<?xml version="1.0" encoding="utf-8" standalone="no"?>
<!DOCTYPE svg PUBLIC "-//W3C//DTD SVG 1.1//EN"
  "http://www.w3.org/Graphics/SVG/1.1/DTD/svg11.dtd">
<svg xmlns:xlink="http://www.w3.org/1999/xlink" width="720pt" height="216pt" viewBox="0 0 720 216" xmlns="http://www.w3.org/2000/svg" version="1.1">
 <metadata>
  <rdf:RDF xmlns:dc="http://purl.org/dc/elements/1.1/" xmlns:cc="http://creativecommons.org/ns#" xmlns:rdf="http://www.w3.org/1999/02/22-rdf-syntax-ns#">
   <cc:Work>
    <dc:type rdf:resource="http://purl.org/dc/dcmitype/StillImage"/>
    <dc:date>2024-01-16T05:35:39.072307</dc:date>
    <dc:format>image/svg+xml</dc:format>
    <dc:creator>
     <cc:Agent>
      <dc:title>Matplotlib v3.5.1, https://matplotlib.org/</dc:title>
     </cc:Agent>
    </dc:creator>
   </cc:Work>
  </rdf:RDF>
 </metadata>
 <defs>
  <style type="text/css">*{stroke-linejoin: round; stroke-linecap: butt}</style>
 </defs>
 <g id="figure_1">
  <g id="patch_1">
   <path d="M 0 216 
L 720 216 
L 720 0 
L 0 0 
z
" style="fill: #ffffff"/>
  </g>
  <g id="axes_1">
   <g id="patch_2">
    <path d="M 47.72 174.04 
L 265.215 174.04 
L 265.215 26.88 
L 47.72 26.88 
z
" style="fill: #ffffff"/>
   </g>
   <g id="PolyCollection_1">
    <path d="M 47.72 33.569091 
L 47.72 34.385529 
L 59.167105 35.58982 
L 70.614211 38.81001 
L 82.061316 43.021289 
L 93.508421 48.707023 
L 104.955526 55.419964 
L 116.402632 63.002867 
L 127.849737 70.321173 
L 139.296842 78.264231 
L 150.743947 85.483149 
L 162.191053 92.602176 
L 173.638158 99.996578 
L 185.085263 108.029693 
L 196.532368 114.222667 
L 207.979474 121.364149 
L 219.426579 127.616939 
L 230.873684 133.425909 
L 242.320789 138.779951 
L 253.767895 144.068951 
L 265.215 148.390032 
L 265.215 135.979079 
L 265.215 135.979079 
L 253.767895 130.338153 
L 242.320789 125.041043 
L 230.873684 119.462243 
L 219.426579 113.689851 
L 207.979474 107.245351 
L 196.532368 101.276662 
L 185.085263 94.649457 
L 173.638158 88.02083 
L 162.191053 81.646988 
L 150.743947 75.088444 
L 139.296842 68.25807 
L 127.849737 61.946241 
L 116.402632 55.524728 
L 104.955526 50.236849 
L 93.508421 45.015294 
L 82.061316 40.586124 
L 70.614211 37.081386 
L 59.167105 34.517661 
L 47.72 33.569091 
z
" clip-path="url(#pa298e5cbd0)" style="fill: #1f77b4; fill-opacity: 0.4"/>
   </g>
   <g id="PolyCollection_2">
    <path d="M 47.72 33.581829 
L 47.72 34.391963 
L 59.167105 35.250751 
L 70.614211 36.913246 
L 82.061316 39.03968 
L 93.508421 42.308747 
L 104.955526 46.484509 
L 116.402632 51.643006 
L 127.849737 57.019478 
L 139.296842 62.999093 
L 150.743947 68.93537 
L 162.191053 74.577749 
L 173.638158 80.989882 
L 185.085263 87.620686 
L 196.532368 93.369306 
L 207.979474 99.840401 
L 219.426579 105.638739 
L 230.873684 111.467743 
L 242.320789 116.954877 
L 253.767895 122.681929 
L 265.215 128.154886 
L 265.215 118.344394 
L 265.215 118.344394 
L 253.767895 113.107069 
L 242.320789 107.72985 
L 230.873684 102.489525 
L 219.426579 96.903294 
L 207.979474 90.259543 
L 196.532368 84.562477 
L 185.085263 78.543739 
L 173.638158 72.907637 
L 162.191053 66.971761 
L 150.743947 61.614125 
L 139.296842 56.352021 
L 127.849737 51.42565 
L 116.402632 46.798362 
L 104.955526 43.084927 
L 93.508421 39.798746 
L 82.061316 37.34315 
L 70.614211 35.426605 
L 59.167105 34.144157 
L 47.72 33.581829 
z
" clip-path="url(#pa298e5cbd0)" style="fill: #ff7f0e; fill-opacity: 0.4"/>
   </g>
   <g id="PolyCollection_3">
    <path d="M 47.72 33.581169 
L 47.72 34.403284 
L 59.167105 35.4363 
L 70.614211 36.991539 
L 82.061316 38.949866 
L 93.508421 41.678837 
L 104.955526 44.732715 
L 116.402632 48.096744 
L 127.849737 51.576897 
L 139.296842 55.342611 
L 150.743947 58.748707 
L 162.191053 61.927603 
L 173.638158 65.702282 
L 185.085263 69.642135 
L 196.532368 72.895735 
L 207.979474 76.330921 
L 219.426579 80.225562 
L 230.873684 83.879676 
L 242.320789 87.83397 
L 253.767895 91.685918 
L 265.215 95.509517 
L 265.215 85.743455 
L 265.215 85.743455 
L 253.767895 82.600146 
L 242.320789 78.604034 
L 230.873684 75.552491 
L 219.426579 72.723279 
L 207.979474 68.856096 
L 196.532368 65.585409 
L 185.085263 62.290698 
L 173.638158 59.130326 
L 162.191053 55.520187 
L 150.743947 52.552043 
L 139.296842 49.459 
L 127.849737 46.446008 
L 116.402632 43.584621 
L 104.955526 41.195018 
L 93.508421 38.782267 
L 82.061316 37.086647 
L 70.614211 35.631214 
L 59.167105 34.282785 
L 47.72 33.581169 
z
" clip-path="url(#pa298e5cbd0)" style="fill: #2ca02c; fill-opacity: 0.4"/>
   </g>
   <g id="PolyCollection_4">
    <path d="M 47.72 33.596162 
L 47.72 34.412155 
L 59.167105 35.258649 
L 70.614211 36.403284 
L 82.061316 37.779768 
L 93.508421 39.920448 
L 104.955526 42.449176 
L 116.402632 45.412543 
L 127.849737 48.644413 
L 139.296842 52.28169 
L 150.743947 55.742702 
L 162.191053 58.939166 
L 173.638158 62.943403 
L 185.085263 66.914169 
L 196.532368 70.326863 
L 207.979474 73.885163 
L 219.426579 77.837328 
L 230.873684 81.458489 
L 242.320789 85.363981 
L 253.767895 89.308949 
L 265.215 93.134402 
L 265.215 84.688935 
L 265.215 84.688935 
L 253.767895 81.434338 
L 242.320789 77.447455 
L 230.873684 74.202369 
L 219.426579 71.237113 
L 207.979474 67.217483 
L 196.532368 63.790103 
L 185.085263 60.456515 
L 173.638158 57.203402 
L 162.191053 53.527805 
L 150.743947 50.506308 
L 139.296842 47.373999 
L 127.849737 44.360598 
L 116.402632 41.642289 
L 104.955526 39.45602 
L 93.508421 37.464764 
L 82.061316 36.21723 
L 70.614211 35.084311 
L 59.167105 34.117974 
L 47.72 33.596162 
z
" clip-path="url(#pa298e5cbd0)" style="fill: #d62728; fill-opacity: 0.4"/>
   </g>
   <g id="PolyCollection_5">
    <path d="M 47.72 33.573817 
L 47.72 34.395348 
L 59.167105 35.617998 
L 70.614211 38.82663 
L 82.061316 43.116876 
L 93.508421 48.754709 
L 104.955526 55.477684 
L 116.402632 63.112847 
L 127.849737 70.360505 
L 139.296842 78.432 
L 150.743947 85.498291 
L 162.191053 92.822432 
L 173.638158 100.55354 
L 185.085263 108.022125 
L 196.532368 114.347869 
L 207.979474 121.533056 
L 219.426579 128.425742 
L 230.873684 133.768008 
L 242.320789 139.013623 
L 253.767895 144.929357 
L 265.215 149.060965 
L 265.215 136.56837 
L 265.215 136.56837 
L 253.767895 130.547666 
L 242.320789 125.673224 
L 230.873684 119.798246 
L 219.426579 113.932879 
L 207.979474 107.489252 
L 196.532368 101.654105 
L 185.085263 94.999299 
L 173.638158 87.949103 
L 162.191053 81.638597 
L 150.743947 75.314021 
L 139.296842 68.325194 
L 127.849737 62.151282 
L 116.402632 55.526147 
L 104.955526 50.238464 
L 93.508421 45.076926 
L 82.061316 40.591631 
L 70.614211 37.085522 
L 59.167105 34.529569 
L 47.72 33.573817 
z
" clip-path="url(#pa298e5cbd0)" style="fill: #9467bd; fill-opacity: 0.4"/>
   </g>
   <g id="PolyCollection_6">
    <path d="M 47.72 33.587379 
L 47.72 34.402511 
L 59.167105 35.280857 
L 70.614211 36.928781 
L 82.061316 39.063434 
L 93.508421 42.321188 
L 104.955526 46.519939 
L 116.402632 51.733997 
L 127.849737 57.041499 
L 139.296842 63.051432 
L 150.743947 68.969314 
L 162.191053 74.645205 
L 173.638158 81.295203 
L 185.085263 87.709043 
L 196.532368 93.342116 
L 207.979474 99.912954 
L 219.426579 105.905213 
L 230.873684 111.659642 
L 242.320789 116.945851 
L 253.767895 123.252305 
L 265.215 128.565317 
L 265.215 118.922346 
L 265.215 118.922346 
L 253.767895 113.475244 
L 242.320789 108.142346 
L 230.873684 102.794814 
L 219.426579 97.529022 
L 207.979474 90.617123 
L 196.532368 84.76178 
L 185.085263 78.644654 
L 173.638158 72.968493 
L 162.191053 66.975324 
L 150.743947 61.78766 
L 139.296842 56.37236 
L 127.849737 51.495623 
L 116.402632 46.819113 
L 104.955526 43.123508 
L 93.508421 39.843707 
L 82.061316 37.359166 
L 70.614211 35.440632 
L 59.167105 34.155607 
L 47.72 33.587379 
z
" clip-path="url(#pa298e5cbd0)" style="fill: #8c564b; fill-opacity: 0.4"/>
   </g>
   <g id="PolyCollection_7">
    <path d="M 47.72 47.133599 
L 47.72 50.414041 
L 59.167105 52.154866 
L 70.614211 56.60115 
L 82.061316 62.878703 
L 93.508421 70.031893 
L 104.955526 78.56824 
L 116.402632 87.036895 
L 127.849737 95.435185 
L 139.296842 103.792 
L 150.743947 110.885257 
L 162.191053 117.498885 
L 173.638158 124.649274 
L 185.085263 131.729709 
L 196.532368 137.478817 
L 207.979474 143.971533 
L 219.426579 149.333793 
L 230.873684 154.632888 
L 242.320789 159.195122 
L 253.767895 163.833783 
L 265.215 167.350909 
L 265.215 149.530062 
L 265.215 149.530062 
L 253.767895 144.555218 
L 242.320789 140.134179 
L 230.873684 135.195954 
L 219.426579 130.312463 
L 207.979474 124.394839 
L 196.532368 118.646646 
L 185.085263 112.668949 
L 173.638158 105.912485 
L 162.191053 99.82862 
L 150.743947 93.102691 
L 139.296842 86.265094 
L 127.849737 79.31762 
L 116.402632 72.548975 
L 104.955526 66.494337 
L 93.508421 60.293711 
L 82.061316 54.957902 
L 70.614211 51.01198 
L 59.167105 48.153376 
L 47.72 47.133599 
z
" clip-path="url(#pa298e5cbd0)" style="fill: #e377c2; fill-opacity: 0.4"/>
   </g>
   <g id="PolyCollection_8">
    <path d="M 47.72 33.597025 
L 47.72 34.411928 
L 59.167105 34.992683 
L 70.614211 35.254178 
L 82.061316 35.727083 
L 93.508421 37.512277 
L 104.955526 40.603442 
L 116.402632 44.703651 
L 127.849737 49.631554 
L 139.296842 55.494065 
L 150.743947 61.37907 
L 162.191053 66.8643 
L 173.638158 72.779814 
L 185.085263 78.797227 
L 196.532368 83.807838 
L 207.979474 89.217678 
L 219.426579 94.572786 
L 230.873684 100.043651 
L 242.320789 105.395637 
L 253.767895 111.420595 
L 265.215 117.068446 
L 265.215 106.546478 
L 265.215 106.546478 
L 253.767895 101.004126 
L 242.320789 94.92923 
L 230.873684 89.419463 
L 219.426579 83.893086 
L 207.979474 77.197518 
L 196.532368 71.523726 
L 185.085263 65.431301 
L 173.638158 60.22035 
L 162.191053 54.91818 
L 150.743947 50.395647 
L 139.296842 46.093702 
L 127.849737 42.195728 
L 116.402632 39.342304 
L 104.955526 36.904621 
L 93.508421 35.42866 
L 82.061316 34.679455 
L 70.614211 34.172479 
L 59.167105 33.840422 
L 47.72 33.597025 
z
" clip-path="url(#pa298e5cbd0)" style="fill: #7f7f7f; fill-opacity: 0.4"/>
   </g>
   <g id="matplotlib.axis_1">
    <g id="xtick_1">
     <g id="line2d_1">
      <defs>
       <path id="m5b2f2ee808" d="M 0 0 
L 0 3.5 
" style="stroke: #000000; stroke-width: 0.8"/>
      </defs>
      <g>
       <use xlink:href="#m5b2f2ee808" x="47.72" y="174.04" style="stroke: #000000; stroke-width: 0.8"/>
      </g>
     </g>
     <g id="text_1">
      <!-- 0.0 -->
      <g transform="translate(39.768438 188.638438)scale(0.1 -0.1)">
       <defs>
        <path id="DejaVuSans-30" d="M 2034 4250 
Q 1547 4250 1301 3770 
Q 1056 3291 1056 2328 
Q 1056 1369 1301 889 
Q 1547 409 2034 409 
Q 2525 409 2770 889 
Q 3016 1369 3016 2328 
Q 3016 3291 2770 3770 
Q 2525 4250 2034 4250 
z
M 2034 4750 
Q 2819 4750 3233 4129 
Q 3647 3509 3647 2328 
Q 3647 1150 3233 529 
Q 2819 -91 2034 -91 
Q 1250 -91 836 529 
Q 422 1150 422 2328 
Q 422 3509 836 4129 
Q 1250 4750 2034 4750 
z
" transform="scale(0.015625)"/>
        <path id="DejaVuSans-2e" d="M 684 794 
L 1344 794 
L 1344 0 
L 684 0 
L 684 794 
z
" transform="scale(0.015625)"/>
       </defs>
       <use xlink:href="#DejaVuSans-30"/>
       <use xlink:href="#DejaVuSans-2e" x="63.623047"/>
       <use xlink:href="#DejaVuSans-30" x="95.410156"/>
      </g>
     </g>
    </g>
    <g id="xtick_2">
     <g id="line2d_2">
      <g>
       <use xlink:href="#m5b2f2ee808" x="102.09375" y="174.04" style="stroke: #000000; stroke-width: 0.8"/>
      </g>
     </g>
     <g id="text_2">
      <!-- 0.5 -->
      <g transform="translate(94.142188 188.638438)scale(0.1 -0.1)">
       <defs>
        <path id="DejaVuSans-35" d="M 691 4666 
L 3169 4666 
L 3169 4134 
L 1269 4134 
L 1269 2991 
Q 1406 3038 1543 3061 
Q 1681 3084 1819 3084 
Q 2600 3084 3056 2656 
Q 3513 2228 3513 1497 
Q 3513 744 3044 326 
Q 2575 -91 1722 -91 
Q 1428 -91 1123 -41 
Q 819 9 494 109 
L 494 744 
Q 775 591 1075 516 
Q 1375 441 1709 441 
Q 2250 441 2565 725 
Q 2881 1009 2881 1497 
Q 2881 1984 2565 2268 
Q 2250 2553 1709 2553 
Q 1456 2553 1204 2497 
Q 953 2441 691 2322 
L 691 4666 
z
" transform="scale(0.015625)"/>
       </defs>
       <use xlink:href="#DejaVuSans-30"/>
       <use xlink:href="#DejaVuSans-2e" x="63.623047"/>
       <use xlink:href="#DejaVuSans-35" x="95.410156"/>
      </g>
     </g>
    </g>
    <g id="xtick_3">
     <g id="line2d_3">
      <g>
       <use xlink:href="#m5b2f2ee808" x="156.4675" y="174.04" style="stroke: #000000; stroke-width: 0.8"/>
      </g>
     </g>
     <g id="text_3">
      <!-- 1.0 -->
      <g transform="translate(148.515938 188.638438)scale(0.1 -0.1)">
       <defs>
        <path id="DejaVuSans-31" d="M 794 531 
L 1825 531 
L 1825 4091 
L 703 3866 
L 703 4441 
L 1819 4666 
L 2450 4666 
L 2450 531 
L 3481 531 
L 3481 0 
L 794 0 
L 794 531 
z
" transform="scale(0.015625)"/>
       </defs>
       <use xlink:href="#DejaVuSans-31"/>
       <use xlink:href="#DejaVuSans-2e" x="63.623047"/>
       <use xlink:href="#DejaVuSans-30" x="95.410156"/>
      </g>
     </g>
    </g>
    <g id="xtick_4">
     <g id="line2d_4">
      <g>
       <use xlink:href="#m5b2f2ee808" x="210.84125" y="174.04" style="stroke: #000000; stroke-width: 0.8"/>
      </g>
     </g>
     <g id="text_4">
      <!-- 1.5 -->
      <g transform="translate(202.889687 188.638438)scale(0.1 -0.1)">
       <use xlink:href="#DejaVuSans-31"/>
       <use xlink:href="#DejaVuSans-2e" x="63.623047"/>
       <use xlink:href="#DejaVuSans-35" x="95.410156"/>
      </g>
     </g>
    </g>
    <g id="xtick_5">
     <g id="line2d_5">
      <g>
       <use xlink:href="#m5b2f2ee808" x="265.215" y="174.04" style="stroke: #000000; stroke-width: 0.8"/>
      </g>
     </g>
     <g id="text_5">
      <!-- 2.0 -->
      <g transform="translate(257.263437 188.638438)scale(0.1 -0.1)">
       <defs>
        <path id="DejaVuSans-32" d="M 1228 531 
L 3431 531 
L 3431 0 
L 469 0 
L 469 531 
Q 828 903 1448 1529 
Q 2069 2156 2228 2338 
Q 2531 2678 2651 2914 
Q 2772 3150 2772 3378 
Q 2772 3750 2511 3984 
Q 2250 4219 1831 4219 
Q 1534 4219 1204 4116 
Q 875 4013 500 3803 
L 500 4441 
Q 881 4594 1212 4672 
Q 1544 4750 1819 4750 
Q 2544 4750 2975 4387 
Q 3406 4025 3406 3419 
Q 3406 3131 3298 2873 
Q 3191 2616 2906 2266 
Q 2828 2175 2409 1742 
Q 1991 1309 1228 531 
z
" transform="scale(0.015625)"/>
       </defs>
       <use xlink:href="#DejaVuSans-32"/>
       <use xlink:href="#DejaVuSans-2e" x="63.623047"/>
       <use xlink:href="#DejaVuSans-30" x="95.410156"/>
      </g>
     </g>
    </g>
    <g id="text_6">
     <!-- Influence of surprisal (multiplication) -->
     <g transform="translate(64.320625 202.316563)scale(0.1 -0.1)">
      <defs>
       <path id="DejaVuSans-49" d="M 628 4666 
L 1259 4666 
L 1259 0 
L 628 0 
L 628 4666 
z
" transform="scale(0.015625)"/>
       <path id="DejaVuSans-6e" d="M 3513 2113 
L 3513 0 
L 2938 0 
L 2938 2094 
Q 2938 2591 2744 2837 
Q 2550 3084 2163 3084 
Q 1697 3084 1428 2787 
Q 1159 2491 1159 1978 
L 1159 0 
L 581 0 
L 581 3500 
L 1159 3500 
L 1159 2956 
Q 1366 3272 1645 3428 
Q 1925 3584 2291 3584 
Q 2894 3584 3203 3211 
Q 3513 2838 3513 2113 
z
" transform="scale(0.015625)"/>
       <path id="DejaVuSans-66" d="M 2375 4863 
L 2375 4384 
L 1825 4384 
Q 1516 4384 1395 4259 
Q 1275 4134 1275 3809 
L 1275 3500 
L 2222 3500 
L 2222 3053 
L 1275 3053 
L 1275 0 
L 697 0 
L 697 3053 
L 147 3053 
L 147 3500 
L 697 3500 
L 697 3744 
Q 697 4328 969 4595 
Q 1241 4863 1831 4863 
L 2375 4863 
z
" transform="scale(0.015625)"/>
       <path id="DejaVuSans-6c" d="M 603 4863 
L 1178 4863 
L 1178 0 
L 603 0 
L 603 4863 
z
" transform="scale(0.015625)"/>
       <path id="DejaVuSans-75" d="M 544 1381 
L 544 3500 
L 1119 3500 
L 1119 1403 
Q 1119 906 1312 657 
Q 1506 409 1894 409 
Q 2359 409 2629 706 
Q 2900 1003 2900 1516 
L 2900 3500 
L 3475 3500 
L 3475 0 
L 2900 0 
L 2900 538 
Q 2691 219 2414 64 
Q 2138 -91 1772 -91 
Q 1169 -91 856 284 
Q 544 659 544 1381 
z
M 1991 3584 
L 1991 3584 
z
" transform="scale(0.015625)"/>
       <path id="DejaVuSans-65" d="M 3597 1894 
L 3597 1613 
L 953 1613 
Q 991 1019 1311 708 
Q 1631 397 2203 397 
Q 2534 397 2845 478 
Q 3156 559 3463 722 
L 3463 178 
Q 3153 47 2828 -22 
Q 2503 -91 2169 -91 
Q 1331 -91 842 396 
Q 353 884 353 1716 
Q 353 2575 817 3079 
Q 1281 3584 2069 3584 
Q 2775 3584 3186 3129 
Q 3597 2675 3597 1894 
z
M 3022 2063 
Q 3016 2534 2758 2815 
Q 2500 3097 2075 3097 
Q 1594 3097 1305 2825 
Q 1016 2553 972 2059 
L 3022 2063 
z
" transform="scale(0.015625)"/>
       <path id="DejaVuSans-63" d="M 3122 3366 
L 3122 2828 
Q 2878 2963 2633 3030 
Q 2388 3097 2138 3097 
Q 1578 3097 1268 2742 
Q 959 2388 959 1747 
Q 959 1106 1268 751 
Q 1578 397 2138 397 
Q 2388 397 2633 464 
Q 2878 531 3122 666 
L 3122 134 
Q 2881 22 2623 -34 
Q 2366 -91 2075 -91 
Q 1284 -91 818 406 
Q 353 903 353 1747 
Q 353 2603 823 3093 
Q 1294 3584 2113 3584 
Q 2378 3584 2631 3529 
Q 2884 3475 3122 3366 
z
" transform="scale(0.015625)"/>
       <path id="DejaVuSans-20" transform="scale(0.015625)"/>
       <path id="DejaVuSans-6f" d="M 1959 3097 
Q 1497 3097 1228 2736 
Q 959 2375 959 1747 
Q 959 1119 1226 758 
Q 1494 397 1959 397 
Q 2419 397 2687 759 
Q 2956 1122 2956 1747 
Q 2956 2369 2687 2733 
Q 2419 3097 1959 3097 
z
M 1959 3584 
Q 2709 3584 3137 3096 
Q 3566 2609 3566 1747 
Q 3566 888 3137 398 
Q 2709 -91 1959 -91 
Q 1206 -91 779 398 
Q 353 888 353 1747 
Q 353 2609 779 3096 
Q 1206 3584 1959 3584 
z
" transform="scale(0.015625)"/>
       <path id="DejaVuSans-73" d="M 2834 3397 
L 2834 2853 
Q 2591 2978 2328 3040 
Q 2066 3103 1784 3103 
Q 1356 3103 1142 2972 
Q 928 2841 928 2578 
Q 928 2378 1081 2264 
Q 1234 2150 1697 2047 
L 1894 2003 
Q 2506 1872 2764 1633 
Q 3022 1394 3022 966 
Q 3022 478 2636 193 
Q 2250 -91 1575 -91 
Q 1294 -91 989 -36 
Q 684 19 347 128 
L 347 722 
Q 666 556 975 473 
Q 1284 391 1588 391 
Q 1994 391 2212 530 
Q 2431 669 2431 922 
Q 2431 1156 2273 1281 
Q 2116 1406 1581 1522 
L 1381 1569 
Q 847 1681 609 1914 
Q 372 2147 372 2553 
Q 372 3047 722 3315 
Q 1072 3584 1716 3584 
Q 2034 3584 2315 3537 
Q 2597 3491 2834 3397 
z
" transform="scale(0.015625)"/>
       <path id="DejaVuSans-72" d="M 2631 2963 
Q 2534 3019 2420 3045 
Q 2306 3072 2169 3072 
Q 1681 3072 1420 2755 
Q 1159 2438 1159 1844 
L 1159 0 
L 581 0 
L 581 3500 
L 1159 3500 
L 1159 2956 
Q 1341 3275 1631 3429 
Q 1922 3584 2338 3584 
Q 2397 3584 2469 3576 
Q 2541 3569 2628 3553 
L 2631 2963 
z
" transform="scale(0.015625)"/>
       <path id="DejaVuSans-70" d="M 1159 525 
L 1159 -1331 
L 581 -1331 
L 581 3500 
L 1159 3500 
L 1159 2969 
Q 1341 3281 1617 3432 
Q 1894 3584 2278 3584 
Q 2916 3584 3314 3078 
Q 3713 2572 3713 1747 
Q 3713 922 3314 415 
Q 2916 -91 2278 -91 
Q 1894 -91 1617 61 
Q 1341 213 1159 525 
z
M 3116 1747 
Q 3116 2381 2855 2742 
Q 2594 3103 2138 3103 
Q 1681 3103 1420 2742 
Q 1159 2381 1159 1747 
Q 1159 1113 1420 752 
Q 1681 391 2138 391 
Q 2594 391 2855 752 
Q 3116 1113 3116 1747 
z
" transform="scale(0.015625)"/>
       <path id="DejaVuSans-69" d="M 603 3500 
L 1178 3500 
L 1178 0 
L 603 0 
L 603 3500 
z
M 603 4863 
L 1178 4863 
L 1178 4134 
L 603 4134 
L 603 4863 
z
" transform="scale(0.015625)"/>
       <path id="DejaVuSans-61" d="M 2194 1759 
Q 1497 1759 1228 1600 
Q 959 1441 959 1056 
Q 959 750 1161 570 
Q 1363 391 1709 391 
Q 2188 391 2477 730 
Q 2766 1069 2766 1631 
L 2766 1759 
L 2194 1759 
z
M 3341 1997 
L 3341 0 
L 2766 0 
L 2766 531 
Q 2569 213 2275 61 
Q 1981 -91 1556 -91 
Q 1019 -91 701 211 
Q 384 513 384 1019 
Q 384 1609 779 1909 
Q 1175 2209 1959 2209 
L 2766 2209 
L 2766 2266 
Q 2766 2663 2505 2880 
Q 2244 3097 1772 3097 
Q 1472 3097 1187 3025 
Q 903 2953 641 2809 
L 641 3341 
Q 956 3463 1253 3523 
Q 1550 3584 1831 3584 
Q 2591 3584 2966 3190 
Q 3341 2797 3341 1997 
z
" transform="scale(0.015625)"/>
       <path id="DejaVuSans-28" d="M 1984 4856 
Q 1566 4138 1362 3434 
Q 1159 2731 1159 2009 
Q 1159 1288 1364 580 
Q 1569 -128 1984 -844 
L 1484 -844 
Q 1016 -109 783 600 
Q 550 1309 550 2009 
Q 550 2706 781 3412 
Q 1013 4119 1484 4856 
L 1984 4856 
z
" transform="scale(0.015625)"/>
       <path id="DejaVuSans-6d" d="M 3328 2828 
Q 3544 3216 3844 3400 
Q 4144 3584 4550 3584 
Q 5097 3584 5394 3201 
Q 5691 2819 5691 2113 
L 5691 0 
L 5113 0 
L 5113 2094 
Q 5113 2597 4934 2840 
Q 4756 3084 4391 3084 
Q 3944 3084 3684 2787 
Q 3425 2491 3425 1978 
L 3425 0 
L 2847 0 
L 2847 2094 
Q 2847 2600 2669 2842 
Q 2491 3084 2119 3084 
Q 1678 3084 1418 2786 
Q 1159 2488 1159 1978 
L 1159 0 
L 581 0 
L 581 3500 
L 1159 3500 
L 1159 2956 
Q 1356 3278 1631 3431 
Q 1906 3584 2284 3584 
Q 2666 3584 2933 3390 
Q 3200 3197 3328 2828 
z
" transform="scale(0.015625)"/>
       <path id="DejaVuSans-74" d="M 1172 4494 
L 1172 3500 
L 2356 3500 
L 2356 3053 
L 1172 3053 
L 1172 1153 
Q 1172 725 1289 603 
Q 1406 481 1766 481 
L 2356 481 
L 2356 0 
L 1766 0 
Q 1100 0 847 248 
Q 594 497 594 1153 
L 594 3053 
L 172 3053 
L 172 3500 
L 594 3500 
L 594 4494 
L 1172 4494 
z
" transform="scale(0.015625)"/>
       <path id="DejaVuSans-29" d="M 513 4856 
L 1013 4856 
Q 1481 4119 1714 3412 
Q 1947 2706 1947 2009 
Q 1947 1309 1714 600 
Q 1481 -109 1013 -844 
L 513 -844 
Q 928 -128 1133 580 
Q 1338 1288 1338 2009 
Q 1338 2731 1133 3434 
Q 928 4138 513 4856 
z
" transform="scale(0.015625)"/>
      </defs>
      <use xlink:href="#DejaVuSans-49"/>
      <use xlink:href="#DejaVuSans-6e" x="29.492188"/>
      <use xlink:href="#DejaVuSans-66" x="92.871094"/>
      <use xlink:href="#DejaVuSans-6c" x="128.076172"/>
      <use xlink:href="#DejaVuSans-75" x="155.859375"/>
      <use xlink:href="#DejaVuSans-65" x="219.238281"/>
      <use xlink:href="#DejaVuSans-6e" x="280.761719"/>
      <use xlink:href="#DejaVuSans-63" x="344.140625"/>
      <use xlink:href="#DejaVuSans-65" x="399.121094"/>
      <use xlink:href="#DejaVuSans-20" x="460.644531"/>
      <use xlink:href="#DejaVuSans-6f" x="492.431641"/>
      <use xlink:href="#DejaVuSans-66" x="553.613281"/>
      <use xlink:href="#DejaVuSans-20" x="588.818359"/>
      <use xlink:href="#DejaVuSans-73" x="620.605469"/>
      <use xlink:href="#DejaVuSans-75" x="672.705078"/>
      <use xlink:href="#DejaVuSans-72" x="736.083984"/>
      <use xlink:href="#DejaVuSans-70" x="777.197266"/>
      <use xlink:href="#DejaVuSans-72" x="840.673828"/>
      <use xlink:href="#DejaVuSans-69" x="881.787109"/>
      <use xlink:href="#DejaVuSans-73" x="909.570312"/>
      <use xlink:href="#DejaVuSans-61" x="961.669922"/>
      <use xlink:href="#DejaVuSans-6c" x="1022.949219"/>
      <use xlink:href="#DejaVuSans-20" x="1050.732422"/>
      <use xlink:href="#DejaVuSans-28" x="1082.519531"/>
      <use xlink:href="#DejaVuSans-6d" x="1121.533203"/>
      <use xlink:href="#DejaVuSans-75" x="1218.945312"/>
      <use xlink:href="#DejaVuSans-6c" x="1282.324219"/>
      <use xlink:href="#DejaVuSans-74" x="1310.107422"/>
      <use xlink:href="#DejaVuSans-69" x="1349.316406"/>
      <use xlink:href="#DejaVuSans-70" x="1377.099609"/>
      <use xlink:href="#DejaVuSans-6c" x="1440.576172"/>
      <use xlink:href="#DejaVuSans-69" x="1468.359375"/>
      <use xlink:href="#DejaVuSans-63" x="1496.142578"/>
      <use xlink:href="#DejaVuSans-61" x="1551.123047"/>
      <use xlink:href="#DejaVuSans-74" x="1612.402344"/>
      <use xlink:href="#DejaVuSans-69" x="1651.611328"/>
      <use xlink:href="#DejaVuSans-6f" x="1679.394531"/>
      <use xlink:href="#DejaVuSans-6e" x="1740.576172"/>
      <use xlink:href="#DejaVuSans-29" x="1803.955078"/>
     </g>
    </g>
   </g>
   <g id="matplotlib.axis_2">
    <g id="ytick_1">
     <g id="line2d_6">
      <defs>
       <path id="mfb4a5a3f06" d="M 0 0 
L -3.5 0 
" style="stroke: #000000; stroke-width: 0.8"/>
      </defs>
      <g>
       <use xlink:href="#mfb4a5a3f06" x="47.72" y="139.078048" style="stroke: #000000; stroke-width: 0.8"/>
      </g>
     </g>
     <g id="text_7">
      <!-- 0.4 -->
      <g transform="translate(24.816875 142.877267)scale(0.1 -0.1)">
       <defs>
        <path id="DejaVuSans-34" d="M 2419 4116 
L 825 1625 
L 2419 1625 
L 2419 4116 
z
M 2253 4666 
L 3047 4666 
L 3047 1625 
L 3713 1625 
L 3713 1100 
L 3047 1100 
L 3047 0 
L 2419 0 
L 2419 1100 
L 313 1100 
L 313 1709 
L 2253 4666 
z
" transform="scale(0.015625)"/>
       </defs>
       <use xlink:href="#DejaVuSans-30"/>
       <use xlink:href="#DejaVuSans-2e" x="63.623047"/>
       <use xlink:href="#DejaVuSans-34" x="95.410156"/>
      </g>
     </g>
    </g>
    <g id="ytick_2">
     <g id="line2d_7">
      <g>
       <use xlink:href="#mfb4a5a3f06" x="47.72" y="100.580573" style="stroke: #000000; stroke-width: 0.8"/>
      </g>
     </g>
     <g id="text_8">
      <!-- 0.6 -->
      <g transform="translate(24.816875 104.379792)scale(0.1 -0.1)">
       <defs>
        <path id="DejaVuSans-36" d="M 2113 2584 
Q 1688 2584 1439 2293 
Q 1191 2003 1191 1497 
Q 1191 994 1439 701 
Q 1688 409 2113 409 
Q 2538 409 2786 701 
Q 3034 994 3034 1497 
Q 3034 2003 2786 2293 
Q 2538 2584 2113 2584 
z
M 3366 4563 
L 3366 3988 
Q 3128 4100 2886 4159 
Q 2644 4219 2406 4219 
Q 1781 4219 1451 3797 
Q 1122 3375 1075 2522 
Q 1259 2794 1537 2939 
Q 1816 3084 2150 3084 
Q 2853 3084 3261 2657 
Q 3669 2231 3669 1497 
Q 3669 778 3244 343 
Q 2819 -91 2113 -91 
Q 1303 -91 875 529 
Q 447 1150 447 2328 
Q 447 3434 972 4092 
Q 1497 4750 2381 4750 
Q 2619 4750 2861 4703 
Q 3103 4656 3366 4563 
z
" transform="scale(0.015625)"/>
       </defs>
       <use xlink:href="#DejaVuSans-30"/>
       <use xlink:href="#DejaVuSans-2e" x="63.623047"/>
       <use xlink:href="#DejaVuSans-36" x="95.410156"/>
      </g>
     </g>
    </g>
    <g id="ytick_3">
     <g id="line2d_8">
      <g>
       <use xlink:href="#mfb4a5a3f06" x="47.72" y="62.083098" style="stroke: #000000; stroke-width: 0.8"/>
      </g>
     </g>
     <g id="text_9">
      <!-- 0.8 -->
      <g transform="translate(24.816875 65.882317)scale(0.1 -0.1)">
       <defs>
        <path id="DejaVuSans-38" d="M 2034 2216 
Q 1584 2216 1326 1975 
Q 1069 1734 1069 1313 
Q 1069 891 1326 650 
Q 1584 409 2034 409 
Q 2484 409 2743 651 
Q 3003 894 3003 1313 
Q 3003 1734 2745 1975 
Q 2488 2216 2034 2216 
z
M 1403 2484 
Q 997 2584 770 2862 
Q 544 3141 544 3541 
Q 544 4100 942 4425 
Q 1341 4750 2034 4750 
Q 2731 4750 3128 4425 
Q 3525 4100 3525 3541 
Q 3525 3141 3298 2862 
Q 3072 2584 2669 2484 
Q 3125 2378 3379 2068 
Q 3634 1759 3634 1313 
Q 3634 634 3220 271 
Q 2806 -91 2034 -91 
Q 1263 -91 848 271 
Q 434 634 434 1313 
Q 434 1759 690 2068 
Q 947 2378 1403 2484 
z
M 1172 3481 
Q 1172 3119 1398 2916 
Q 1625 2713 2034 2713 
Q 2441 2713 2670 2916 
Q 2900 3119 2900 3481 
Q 2900 3844 2670 4047 
Q 2441 4250 2034 4250 
Q 1625 4250 1398 4047 
Q 1172 3844 1172 3481 
z
" transform="scale(0.015625)"/>
       </defs>
       <use xlink:href="#DejaVuSans-30"/>
       <use xlink:href="#DejaVuSans-2e" x="63.623047"/>
       <use xlink:href="#DejaVuSans-38" x="95.410156"/>
      </g>
     </g>
    </g>
    <g id="text_10">
     <!-- R-value -->
     <g transform="translate(18.737188 119.064687)rotate(-90)scale(0.1 -0.1)">
      <defs>
       <path id="DejaVuSans-52" d="M 2841 2188 
Q 3044 2119 3236 1894 
Q 3428 1669 3622 1275 
L 4263 0 
L 3584 0 
L 2988 1197 
Q 2756 1666 2539 1819 
Q 2322 1972 1947 1972 
L 1259 1972 
L 1259 0 
L 628 0 
L 628 4666 
L 2053 4666 
Q 2853 4666 3247 4331 
Q 3641 3997 3641 3322 
Q 3641 2881 3436 2590 
Q 3231 2300 2841 2188 
z
M 1259 4147 
L 1259 2491 
L 2053 2491 
Q 2509 2491 2742 2702 
Q 2975 2913 2975 3322 
Q 2975 3731 2742 3939 
Q 2509 4147 2053 4147 
L 1259 4147 
z
" transform="scale(0.015625)"/>
       <path id="DejaVuSans-2d" d="M 313 2009 
L 1997 2009 
L 1997 1497 
L 313 1497 
L 313 2009 
z
" transform="scale(0.015625)"/>
       <path id="DejaVuSans-76" d="M 191 3500 
L 800 3500 
L 1894 563 
L 2988 3500 
L 3597 3500 
L 2284 0 
L 1503 0 
L 191 3500 
z
" transform="scale(0.015625)"/>
      </defs>
      <use xlink:href="#DejaVuSans-52"/>
      <use xlink:href="#DejaVuSans-2d" x="65.482422"/>
      <use xlink:href="#DejaVuSans-76" x="98.941406"/>
      <use xlink:href="#DejaVuSans-61" x="158.121094"/>
      <use xlink:href="#DejaVuSans-6c" x="219.400391"/>
      <use xlink:href="#DejaVuSans-75" x="247.183594"/>
      <use xlink:href="#DejaVuSans-65" x="310.5625"/>
     </g>
    </g>
   </g>
   <g id="line2d_9">
    <path d="M 47.72 33.97731 
L 59.167105 35.05374 
L 70.614211 37.945698 
L 82.061316 41.803707 
L 93.508421 46.861158 
L 104.955526 52.828407 
L 116.402632 59.263797 
L 127.849737 66.133707 
L 139.296842 73.261151 
L 150.743947 80.285796 
L 162.191053 87.124582 
L 173.638158 94.008704 
L 185.085263 101.339575 
L 196.532368 107.749664 
L 207.979474 114.30475 
L 219.426579 120.653395 
L 230.873684 126.444076 
L 242.320789 131.910497 
L 253.767895 137.203552 
L 265.215 142.184556 
" clip-path="url(#pa298e5cbd0)" style="fill: none; stroke: #1f77b4; stroke-width: 1.5; stroke-linecap: square"/>
   </g>
   <g id="line2d_10">
    <path d="M 47.72 33.986896 
L 59.167105 34.697454 
L 70.614211 36.169926 
L 82.061316 38.191415 
L 93.508421 41.053747 
L 104.955526 44.784718 
L 116.402632 49.220684 
L 127.849737 54.222564 
L 139.296842 59.675557 
L 150.743947 65.274747 
L 162.191053 70.774755 
L 173.638158 76.94876 
L 185.085263 83.082212 
L 196.532368 88.965892 
L 207.979474 95.049972 
L 219.426579 101.271017 
L 230.873684 106.978634 
L 242.320789 112.342363 
L 253.767895 117.894499 
L 265.215 123.24964 
" clip-path="url(#pa298e5cbd0)" style="fill: none; stroke: #ff7f0e; stroke-width: 1.5; stroke-linecap: square"/>
   </g>
   <g id="line2d_11">
    <path d="M 47.72 33.992227 
L 59.167105 34.859542 
L 70.614211 36.311377 
L 82.061316 38.018256 
L 93.508421 40.230552 
L 104.955526 42.963866 
L 116.402632 45.840682 
L 127.849737 49.011453 
L 139.296842 52.400805 
L 150.743947 55.650375 
L 162.191053 58.723895 
L 173.638158 62.416304 
L 185.085263 65.966416 
L 196.532368 69.240572 
L 207.979474 72.593509 
L 219.426579 76.47442 
L 230.873684 79.716084 
L 242.320789 83.219002 
L 253.767895 87.143032 
L 265.215 90.626486 
" clip-path="url(#pa298e5cbd0)" style="fill: none; stroke: #2ca02c; stroke-width: 1.5; stroke-linecap: square"/>
   </g>
   <g id="line2d_12">
    <path d="M 47.72 34.004159 
L 59.167105 34.688311 
L 70.614211 35.743797 
L 82.061316 36.998499 
L 93.508421 38.692606 
L 104.955526 40.952598 
L 116.402632 43.527416 
L 127.849737 46.502506 
L 139.296842 49.827844 
L 150.743947 53.124505 
L 162.191053 56.233485 
L 173.638158 60.073403 
L 185.085263 63.685342 
L 196.532368 67.058483 
L 207.979474 70.551323 
L 219.426579 74.537221 
L 230.873684 77.830429 
L 242.320789 81.405718 
L 253.767895 85.371643 
L 265.215 88.911668 
" clip-path="url(#pa298e5cbd0)" style="fill: none; stroke: #d62728; stroke-width: 1.5; stroke-linecap: square"/>
   </g>
   <g id="line2d_13">
    <path d="M 47.72 33.984583 
L 59.167105 35.073784 
L 70.614211 37.956076 
L 82.061316 41.854253 
L 93.508421 46.915817 
L 104.955526 52.858074 
L 116.402632 59.319497 
L 127.849737 66.255894 
L 139.296842 73.378597 
L 150.743947 80.406156 
L 162.191053 87.230515 
L 173.638158 94.251322 
L 185.085263 101.510712 
L 196.532368 108.000987 
L 207.979474 114.511154 
L 219.426579 121.179311 
L 230.873684 126.783127 
L 242.320789 132.343424 
L 253.767895 137.738512 
L 265.215 142.814667 
" clip-path="url(#pa298e5cbd0)" style="fill: none; stroke: #9467bd; stroke-width: 1.5; stroke-linecap: square"/>
   </g>
   <g id="line2d_14">
    <path d="M 47.72 33.994945 
L 59.167105 34.718232 
L 70.614211 36.184707 
L 82.061316 38.2113 
L 93.508421 41.082448 
L 104.955526 44.821723 
L 116.402632 49.276555 
L 127.849737 54.268561 
L 139.296842 59.711896 
L 150.743947 65.378487 
L 162.191053 70.810264 
L 173.638158 77.131848 
L 185.085263 83.176849 
L 196.532368 89.051948 
L 207.979474 95.265039 
L 219.426579 101.717117 
L 230.873684 107.227228 
L 242.320789 112.544098 
L 253.767895 118.363775 
L 265.215 123.743831 
" clip-path="url(#pa298e5cbd0)" style="fill: none; stroke: #8c564b; stroke-width: 1.5; stroke-linecap: square"/>
   </g>
   <g id="line2d_15">
    <path d="M 47.72 48.77382 
L 59.167105 50.154121 
L 70.614211 53.806565 
L 82.061316 58.918302 
L 93.508421 65.162802 
L 104.955526 72.531289 
L 116.402632 79.792935 
L 127.849737 87.376402 
L 139.296842 95.028547 
L 150.743947 101.993974 
L 162.191053 108.663752 
L 173.638158 115.280879 
L 185.085263 122.199329 
L 196.532368 128.062731 
L 207.979474 134.183186 
L 219.426579 139.823128 
L 230.873684 144.914421 
L 242.320789 149.66465 
L 253.767895 154.194501 
L 265.215 158.440485 
" clip-path="url(#pa298e5cbd0)" style="fill: none; stroke: #e377c2; stroke-width: 1.5; stroke-linecap: square"/>
   </g>
   <g id="line2d_16">
    <path d="M 47.72 34.004477 
L 59.167105 34.416553 
L 70.614211 34.713329 
L 82.061316 35.203269 
L 93.508421 36.470469 
L 104.955526 38.754032 
L 116.402632 42.022978 
L 127.849737 45.913641 
L 139.296842 50.793884 
L 150.743947 55.887359 
L 162.191053 60.89124 
L 173.638158 66.500082 
L 185.085263 72.114264 
L 196.532368 77.665782 
L 207.979474 83.207598 
L 219.426579 89.232936 
L 230.873684 94.731557 
L 242.320789 100.162433 
L 253.767895 106.21236 
L 265.215 111.807462 
" clip-path="url(#pa298e5cbd0)" style="fill: none; stroke: #7f7f7f; stroke-width: 1.5; stroke-linecap: square"/>
   </g>
   <g id="patch_3">
    <path d="M 47.72 174.04 
L 47.72 26.88 
" style="fill: none; stroke: #000000; stroke-width: 0.8; stroke-linejoin: miter; stroke-linecap: square"/>
   </g>
   <g id="patch_4">
    <path d="M 47.72 174.04 
L 265.215 174.04 
" style="fill: none; stroke: #000000; stroke-width: 0.8; stroke-linejoin: miter; stroke-linecap: square"/>
   </g>
   <g id="text_11">
    <!-- Node * surprisal -->
    <g transform="translate(108.18625 20.88)scale(0.12 -0.12)">
     <defs>
      <path id="DejaVuSans-4e" d="M 628 4666 
L 1478 4666 
L 3547 763 
L 3547 4666 
L 4159 4666 
L 4159 0 
L 3309 0 
L 1241 3903 
L 1241 0 
L 628 0 
L 628 4666 
z
" transform="scale(0.015625)"/>
      <path id="DejaVuSans-64" d="M 2906 2969 
L 2906 4863 
L 3481 4863 
L 3481 0 
L 2906 0 
L 2906 525 
Q 2725 213 2448 61 
Q 2172 -91 1784 -91 
Q 1150 -91 751 415 
Q 353 922 353 1747 
Q 353 2572 751 3078 
Q 1150 3584 1784 3584 
Q 2172 3584 2448 3432 
Q 2725 3281 2906 2969 
z
M 947 1747 
Q 947 1113 1208 752 
Q 1469 391 1925 391 
Q 2381 391 2643 752 
Q 2906 1113 2906 1747 
Q 2906 2381 2643 2742 
Q 2381 3103 1925 3103 
Q 1469 3103 1208 2742 
Q 947 2381 947 1747 
z
" transform="scale(0.015625)"/>
      <path id="DejaVuSans-2a" d="M 3009 3897 
L 1888 3291 
L 3009 2681 
L 2828 2375 
L 1778 3009 
L 1778 1831 
L 1422 1831 
L 1422 3009 
L 372 2375 
L 191 2681 
L 1313 3291 
L 191 3897 
L 372 4206 
L 1422 3572 
L 1422 4750 
L 1778 4750 
L 1778 3572 
L 2828 4206 
L 3009 3897 
z
" transform="scale(0.015625)"/>
     </defs>
     <use xlink:href="#DejaVuSans-4e"/>
     <use xlink:href="#DejaVuSans-6f" x="74.804688"/>
     <use xlink:href="#DejaVuSans-64" x="135.986328"/>
     <use xlink:href="#DejaVuSans-65" x="199.462891"/>
     <use xlink:href="#DejaVuSans-20" x="260.986328"/>
     <use xlink:href="#DejaVuSans-2a" x="292.773438"/>
     <use xlink:href="#DejaVuSans-20" x="342.773438"/>
     <use xlink:href="#DejaVuSans-73" x="374.560547"/>
     <use xlink:href="#DejaVuSans-75" x="426.660156"/>
     <use xlink:href="#DejaVuSans-72" x="490.039062"/>
     <use xlink:href="#DejaVuSans-70" x="531.152344"/>
     <use xlink:href="#DejaVuSans-72" x="594.628906"/>
     <use xlink:href="#DejaVuSans-69" x="635.742188"/>
     <use xlink:href="#DejaVuSans-73" x="663.525391"/>
     <use xlink:href="#DejaVuSans-61" x="715.625"/>
     <use xlink:href="#DejaVuSans-6c" x="776.904297"/>
    </g>
   </g>
  </g>
  <g id="axes_2">
   <g id="patch_5">
    <path d="M 298.065 174.04 
L 515.56 174.04 
L 515.56 26.88 
L 298.065 26.88 
z
" style="fill: #ffffff"/>
   </g>
   <g id="PolyCollection_9">
    <path d="M 298.065 33.675156 
L 298.065 34.606625 
L 309.512105 35.385747 
L 320.959211 38.544669 
L 332.406316 42.354097 
L 343.853421 47.693281 
L 355.300526 54.610107 
L 366.747632 61.583197 
L 378.194737 68.697081 
L 389.641842 76.071801 
L 401.088947 83.5284 
L 412.536053 90.607643 
L 423.983158 98.381017 
L 435.430263 105.201152 
L 446.877368 112.205084 
L 458.324474 119.04788 
L 469.771579 125.384882 
L 481.218684 131.875793 
L 492.665789 138.285528 
L 504.112895 143.730419 
L 515.56 149.733316 
L 515.56 134.369158 
L 515.56 134.369158 
L 504.112895 129.358524 
L 492.665789 124.592429 
L 481.218684 118.811005 
L 469.771579 113.653743 
L 458.324474 107.698553 
L 446.877368 101.610555 
L 435.430263 94.782509 
L 423.983158 88.116474 
L 412.536053 81.761588 
L 401.088947 74.779128 
L 389.641842 67.853218 
L 378.194737 61.225905 
L 366.747632 54.864409 
L 355.300526 48.902259 
L 343.853421 44.126034 
L 332.406316 40.051925 
L 320.959211 36.738531 
L 309.512105 34.470676 
L 298.065 33.675156 
z
" clip-path="url(#pfee391cd4e)" style="fill: #1f77b4; fill-opacity: 0.4"/>
   </g>
   <g id="PolyCollection_10">
    <path d="M 298.065 33.692088 
L 298.065 34.623059 
L 309.512105 35.391412 
L 320.959211 38.558397 
L 332.406316 42.376946 
L 343.853421 47.723659 
L 355.300526 54.661651 
L 366.747632 61.627613 
L 378.194737 68.767808 
L 389.641842 76.122647 
L 401.088947 83.610597 
L 412.536053 90.663354 
L 423.983158 98.420675 
L 435.430263 105.262874 
L 446.877368 112.206513 
L 458.324474 119.068284 
L 469.771579 125.425847 
L 481.218684 131.959566 
L 492.665789 138.402412 
L 504.112895 143.849075 
L 515.56 149.841937 
L 515.56 134.405643 
L 515.56 134.405643 
L 504.112895 129.415603 
L 492.665789 124.682957 
L 481.218684 118.963767 
L 469.771579 113.832243 
L 458.324474 107.90978 
L 446.877368 101.825811 
L 435.430263 94.996111 
L 423.983158 88.338062 
L 412.536053 81.958145 
L 401.088947 74.918174 
L 389.641842 67.950851 
L 378.194737 61.290118 
L 366.747632 54.905545 
L 355.300526 48.946654 
L 343.853421 44.158965 
L 332.406316 40.087385 
L 320.959211 36.752294 
L 309.512105 34.492384 
L 298.065 33.692088 
z
" clip-path="url(#pfee391cd4e)" style="fill: #ff7f0e; fill-opacity: 0.4"/>
   </g>
   <g id="PolyCollection_11">
    <path d="M 298.065 33.687319 
L 298.065 34.620442 
L 309.512105 35.39745 
L 320.959211 38.544902 
L 332.406316 42.375794 
L 343.853421 47.691999 
L 355.300526 54.625166 
L 366.747632 61.563547 
L 378.194737 68.662358 
L 389.641842 76.047179 
L 401.088947 83.49707 
L 412.536053 90.584292 
L 423.983158 98.350771 
L 435.430263 105.128307 
L 446.877368 112.116482 
L 458.324474 118.948408 
L 469.771579 125.296886 
L 481.218684 131.753033 
L 492.665789 138.219363 
L 504.112895 143.547285 
L 515.56 149.638478 
L 515.56 135.610487 
L 515.56 135.610487 
L 504.112895 130.511164 
L 492.665789 125.575997 
L 481.218684 119.82349 
L 469.771579 114.577167 
L 458.324474 108.573825 
L 446.877368 102.362603 
L 435.430263 95.526609 
L 423.983158 88.707703 
L 412.536053 82.274402 
L 401.088947 75.219427 
L 389.641842 68.116686 
L 378.194737 61.469598 
L 366.747632 54.978542 
L 355.300526 48.969594 
L 343.853421 44.18099 
L 332.406316 40.076187 
L 320.959211 36.746576 
L 309.512105 34.48129 
L 298.065 33.687319 
z
" clip-path="url(#pfee391cd4e)" style="fill: #2ca02c; fill-opacity: 0.4"/>
   </g>
   <g id="PolyCollection_12">
    <path d="M 298.065 33.705966 
L 298.065 34.633707 
L 309.512105 35.417191 
L 320.959211 38.569811 
L 332.406316 42.390803 
L 343.853421 47.711621 
L 355.300526 54.66631 
L 366.747632 61.580408 
L 378.194737 68.701799 
L 389.641842 76.082846 
L 401.088947 83.498778 
L 412.536053 90.574148 
L 423.983158 98.328375 
L 435.430263 105.083636 
L 446.877368 112.031884 
L 458.324474 118.854139 
L 469.771579 125.155229 
L 481.218684 131.645181 
L 492.665789 138.081309 
L 504.112895 143.39871 
L 515.56 149.464939 
L 515.56 135.68133 
L 515.56 135.68133 
L 504.112895 130.523965 
L 492.665789 125.590745 
L 481.218684 119.866011 
L 469.771579 114.622777 
L 458.324474 108.634843 
L 446.877368 102.406888 
L 435.430263 95.591181 
L 423.983158 88.761262 
L 412.536053 82.328161 
L 401.088947 75.262272 
L 389.641842 68.144515 
L 378.194737 61.501464 
L 366.747632 54.991847 
L 355.300526 48.985808 
L 343.853421 44.19316 
L 332.406316 40.100335 
L 320.959211 36.75749 
L 309.512105 34.510857 
L 298.065 33.705966 
z
" clip-path="url(#pfee391cd4e)" style="fill: #d62728; fill-opacity: 0.4"/>
   </g>
   <g id="PolyCollection_13">
    <path d="M 298.065 33.690586 
L 298.065 34.618009 
L 309.512105 35.405885 
L 320.959211 38.571326 
L 332.406316 42.389137 
L 343.853421 47.721172 
L 355.300526 54.607671 
L 366.747632 61.782125 
L 378.194737 68.99883 
L 389.641842 76.034958 
L 401.088947 83.899984 
L 412.536053 90.677742 
L 423.983158 98.448467 
L 435.430263 105.346672 
L 446.877368 112.804571 
L 458.324474 119.166541 
L 469.771579 126.046677 
L 481.218684 133.267293 
L 492.665789 139.60407 
L 504.112895 144.024733 
L 515.56 150.923099 
L 515.56 135.498092 
L 515.56 135.498092 
L 504.112895 129.656578 
L 492.665789 124.387133 
L 481.218684 118.966615 
L 469.771579 114.542224 
L 458.324474 108.185009 
L 446.877368 102.123846 
L 435.430263 95.072829 
L 423.983158 88.112629 
L 412.536053 81.954663 
L 401.088947 74.868891 
L 389.641842 67.979672 
L 378.194737 61.29147 
L 366.747632 54.988296 
L 355.300526 48.857393 
L 343.853421 44.146615 
L 332.406316 40.091456 
L 320.959211 36.741937 
L 309.512105 34.480287 
L 298.065 33.690586 
z
" clip-path="url(#pfee391cd4e)" style="fill: #9467bd; fill-opacity: 0.4"/>
   </g>
   <g id="PolyCollection_14">
    <path d="M 298.065 33.707244 
L 298.065 34.634537 
L 309.512105 35.412229 
L 320.959211 38.586717 
L 332.406316 42.415795 
L 343.853421 47.749007 
L 355.300526 54.655382 
L 366.747632 61.824729 
L 378.194737 69.061005 
L 389.641842 76.087888 
L 401.088947 83.975794 
L 412.536053 90.739379 
L 423.983158 98.490068 
L 435.430263 105.402521 
L 446.877368 112.831324 
L 458.324474 119.153743 
L 469.771579 126.081153 
L 481.218684 133.344088 
L 492.665789 139.676527 
L 504.112895 144.163755 
L 515.56 151.05865 
L 515.56 135.537299 
L 515.56 135.537299 
L 504.112895 129.685265 
L 492.665789 124.485847 
L 481.218684 119.099222 
L 469.771579 114.76459 
L 458.324474 108.42631 
L 446.877368 102.355188 
L 435.430263 95.295173 
L 423.983158 88.331824 
L 412.536053 82.136499 
L 401.088947 75.023382 
L 389.641842 68.07044 
L 378.194737 61.364512 
L 366.747632 55.032098 
L 355.300526 48.905264 
L 343.853421 44.183117 
L 332.406316 40.1306 
L 320.959211 36.756791 
L 309.512105 34.503044 
L 298.065 33.707244 
z
" clip-path="url(#pfee391cd4e)" style="fill: #8c564b; fill-opacity: 0.4"/>
   </g>
   <g id="PolyCollection_15">
    <path d="M 298.065 47.219596 
L 298.065 50.634188 
L 309.512105 51.343666 
L 320.959211 53.934838 
L 332.406316 57.089788 
L 343.853421 61.653429 
L 355.300526 67.345187 
L 366.747632 73.951902 
L 378.194737 80.355667 
L 389.641842 86.959664 
L 401.088947 94.406072 
L 412.536053 100.762948 
L 423.983158 108.08493 
L 435.430263 114.903257 
L 446.877368 121.261124 
L 458.324474 127.875549 
L 469.771579 133.834748 
L 481.218684 139.943241 
L 492.665789 145.433254 
L 504.112895 150.561234 
L 515.56 155.646568 
L 515.56 143.743943 
L 515.56 143.743943 
L 504.112895 138.651197 
L 492.665789 134.301544 
L 481.218684 128.495478 
L 469.771579 123.67631 
L 458.324474 118.351162 
L 446.877368 112.517893 
L 435.430263 106.036147 
L 423.983158 99.896781 
L 412.536053 93.737478 
L 401.088947 86.922367 
L 389.641842 80.600161 
L 378.194737 74.111597 
L 366.747632 68.124626 
L 355.300526 62.51801 
L 343.853421 57.551101 
L 332.406316 53.485128 
L 320.959211 50.162527 
L 309.512105 47.939237 
L 298.065 47.219596 
z
" clip-path="url(#pfee391cd4e)" style="fill: #e377c2; fill-opacity: 0.4"/>
   </g>
   <g id="PolyCollection_16">
    <path d="M 298.065 33.71298 
L 298.065 34.630241 
L 309.512105 35.403267 
L 320.959211 38.5848 
L 332.406316 42.421033 
L 343.853421 47.761217 
L 355.300526 54.732098 
L 366.747632 61.757011 
L 378.194737 68.880304 
L 389.641842 76.261831 
L 401.088947 83.787888 
L 412.536053 90.865629 
L 423.983158 98.687776 
L 435.430263 105.533466 
L 446.877368 112.486825 
L 458.324474 119.422252 
L 469.771579 125.770456 
L 481.218684 132.260875 
L 492.665789 138.671365 
L 504.112895 144.039304 
L 515.56 150.06698 
L 515.56 135.11684 
L 515.56 135.11684 
L 504.112895 130.104253 
L 492.665789 125.354139 
L 481.218684 119.694456 
L 469.771579 114.573708 
L 458.324474 108.646356 
L 446.877368 102.503865 
L 435.430263 95.612078 
L 423.983158 88.827426 
L 412.536053 82.426549 
L 401.088947 75.29325 
L 389.641842 68.226583 
L 378.194737 61.537723 
L 366.747632 55.037854 
L 355.300526 49.0376 
L 343.853421 44.241649 
L 332.406316 40.144837 
L 320.959211 36.784362 
L 309.512105 34.515665 
L 298.065 33.71298 
z
" clip-path="url(#pfee391cd4e)" style="fill: #7f7f7f; fill-opacity: 0.4"/>
   </g>
   <g id="matplotlib.axis_3">
    <g id="xtick_6">
     <g id="line2d_17">
      <g>
       <use xlink:href="#m5b2f2ee808" x="298.065" y="174.04" style="stroke: #000000; stroke-width: 0.8"/>
      </g>
     </g>
     <g id="text_12">
      <!-- 0.0 -->
      <g transform="translate(290.113437 188.638438)scale(0.1 -0.1)">
       <use xlink:href="#DejaVuSans-30"/>
       <use xlink:href="#DejaVuSans-2e" x="63.623047"/>
       <use xlink:href="#DejaVuSans-30" x="95.410156"/>
      </g>
     </g>
    </g>
    <g id="xtick_7">
     <g id="line2d_18">
      <g>
       <use xlink:href="#m5b2f2ee808" x="352.43875" y="174.04" style="stroke: #000000; stroke-width: 0.8"/>
      </g>
     </g>
     <g id="text_13">
      <!-- 0.5 -->
      <g transform="translate(344.487187 188.638438)scale(0.1 -0.1)">
       <use xlink:href="#DejaVuSans-30"/>
       <use xlink:href="#DejaVuSans-2e" x="63.623047"/>
       <use xlink:href="#DejaVuSans-35" x="95.410156"/>
      </g>
     </g>
    </g>
    <g id="xtick_8">
     <g id="line2d_19">
      <g>
       <use xlink:href="#m5b2f2ee808" x="406.8125" y="174.04" style="stroke: #000000; stroke-width: 0.8"/>
      </g>
     </g>
     <g id="text_14">
      <!-- 1.0 -->
      <g transform="translate(398.860937 188.638438)scale(0.1 -0.1)">
       <use xlink:href="#DejaVuSans-31"/>
       <use xlink:href="#DejaVuSans-2e" x="63.623047"/>
       <use xlink:href="#DejaVuSans-30" x="95.410156"/>
      </g>
     </g>
    </g>
    <g id="xtick_9">
     <g id="line2d_20">
      <g>
       <use xlink:href="#m5b2f2ee808" x="461.18625" y="174.04" style="stroke: #000000; stroke-width: 0.8"/>
      </g>
     </g>
     <g id="text_15">
      <!-- 1.5 -->
      <g transform="translate(453.234687 188.638438)scale(0.1 -0.1)">
       <use xlink:href="#DejaVuSans-31"/>
       <use xlink:href="#DejaVuSans-2e" x="63.623047"/>
       <use xlink:href="#DejaVuSans-35" x="95.410156"/>
      </g>
     </g>
    </g>
    <g id="xtick_10">
     <g id="line2d_21">
      <g>
       <use xlink:href="#m5b2f2ee808" x="515.56" y="174.04" style="stroke: #000000; stroke-width: 0.8"/>
      </g>
     </g>
     <g id="text_16">
      <!-- 2.0 -->
      <g transform="translate(507.608437 188.638438)scale(0.1 -0.1)">
       <use xlink:href="#DejaVuSans-32"/>
       <use xlink:href="#DejaVuSans-2e" x="63.623047"/>
       <use xlink:href="#DejaVuSans-30" x="95.410156"/>
      </g>
     </g>
    </g>
    <g id="text_17">
     <!-- Influence of surprisal (multiplication) -->
     <g transform="translate(314.665625 202.316563)scale(0.1 -0.1)">
      <use xlink:href="#DejaVuSans-49"/>
      <use xlink:href="#DejaVuSans-6e" x="29.492188"/>
      <use xlink:href="#DejaVuSans-66" x="92.871094"/>
      <use xlink:href="#DejaVuSans-6c" x="128.076172"/>
      <use xlink:href="#DejaVuSans-75" x="155.859375"/>
      <use xlink:href="#DejaVuSans-65" x="219.238281"/>
      <use xlink:href="#DejaVuSans-6e" x="280.761719"/>
      <use xlink:href="#DejaVuSans-63" x="344.140625"/>
      <use xlink:href="#DejaVuSans-65" x="399.121094"/>
      <use xlink:href="#DejaVuSans-20" x="460.644531"/>
      <use xlink:href="#DejaVuSans-6f" x="492.431641"/>
      <use xlink:href="#DejaVuSans-66" x="553.613281"/>
      <use xlink:href="#DejaVuSans-20" x="588.818359"/>
      <use xlink:href="#DejaVuSans-73" x="620.605469"/>
      <use xlink:href="#DejaVuSans-75" x="672.705078"/>
      <use xlink:href="#DejaVuSans-72" x="736.083984"/>
      <use xlink:href="#DejaVuSans-70" x="777.197266"/>
      <use xlink:href="#DejaVuSans-72" x="840.673828"/>
      <use xlink:href="#DejaVuSans-69" x="881.787109"/>
      <use xlink:href="#DejaVuSans-73" x="909.570312"/>
      <use xlink:href="#DejaVuSans-61" x="961.669922"/>
      <use xlink:href="#DejaVuSans-6c" x="1022.949219"/>
      <use xlink:href="#DejaVuSans-20" x="1050.732422"/>
      <use xlink:href="#DejaVuSans-28" x="1082.519531"/>
      <use xlink:href="#DejaVuSans-6d" x="1121.533203"/>
      <use xlink:href="#DejaVuSans-75" x="1218.945312"/>
      <use xlink:href="#DejaVuSans-6c" x="1282.324219"/>
      <use xlink:href="#DejaVuSans-74" x="1310.107422"/>
      <use xlink:href="#DejaVuSans-69" x="1349.316406"/>
      <use xlink:href="#DejaVuSans-70" x="1377.099609"/>
      <use xlink:href="#DejaVuSans-6c" x="1440.576172"/>
      <use xlink:href="#DejaVuSans-69" x="1468.359375"/>
      <use xlink:href="#DejaVuSans-63" x="1496.142578"/>
      <use xlink:href="#DejaVuSans-61" x="1551.123047"/>
      <use xlink:href="#DejaVuSans-74" x="1612.402344"/>
      <use xlink:href="#DejaVuSans-69" x="1651.611328"/>
      <use xlink:href="#DejaVuSans-6f" x="1679.394531"/>
      <use xlink:href="#DejaVuSans-6e" x="1740.576172"/>
      <use xlink:href="#DejaVuSans-29" x="1803.955078"/>
     </g>
    </g>
   </g>
   <g id="line2d_22">
    <path d="M 298.065 34.140891 
L 309.512105 34.928212 
L 320.959211 37.6416 
L 332.406316 41.203011 
L 343.853421 45.909658 
L 355.300526 51.756183 
L 366.747632 58.223803 
L 378.194737 64.961493 
L 389.641842 71.962509 
L 401.088947 79.153764 
L 412.536053 86.184615 
L 423.983158 93.248746 
L 435.430263 99.991831 
L 446.877368 106.907819 
L 458.324474 113.373217 
L 469.771579 119.519312 
L 481.218684 125.343399 
L 492.665789 131.438979 
L 504.112895 136.544472 
L 515.56 142.051237 
" clip-path="url(#pfee391cd4e)" style="fill: none; stroke: #1f77b4; stroke-width: 1.5; stroke-linecap: square"/>
   </g>
   <g id="line2d_23">
    <path d="M 298.065 34.157573 
L 309.512105 34.941898 
L 320.959211 37.655346 
L 332.406316 41.232166 
L 343.853421 45.941312 
L 355.300526 51.804153 
L 366.747632 58.266579 
L 378.194737 65.028963 
L 389.641842 72.036749 
L 401.088947 79.264385 
L 412.536053 86.31075 
L 423.983158 93.379369 
L 435.430263 100.129493 
L 446.877368 107.016162 
L 458.324474 113.489032 
L 469.771579 119.629045 
L 481.218684 125.461667 
L 492.665789 131.542684 
L 504.112895 136.632339 
L 515.56 142.12379 
" clip-path="url(#pfee391cd4e)" style="fill: none; stroke: #ff7f0e; stroke-width: 1.5; stroke-linecap: square"/>
   </g>
   <g id="line2d_24">
    <path d="M 298.065 34.153881 
L 309.512105 34.93937 
L 320.959211 37.645739 
L 332.406316 41.225991 
L 343.853421 45.936495 
L 355.300526 51.79738 
L 366.747632 58.271044 
L 378.194737 65.065978 
L 389.641842 72.081932 
L 401.088947 79.358249 
L 412.536053 86.429347 
L 423.983158 93.529237 
L 435.430263 100.327458 
L 446.877368 107.239543 
L 458.324474 113.761117 
L 469.771579 119.937026 
L 481.218684 125.788261 
L 492.665789 131.89768 
L 504.112895 137.029224 
L 515.56 142.624483 
" clip-path="url(#pfee391cd4e)" style="fill: none; stroke: #2ca02c; stroke-width: 1.5; stroke-linecap: square"/>
   </g>
   <g id="line2d_25">
    <path d="M 298.065 34.169837 
L 309.512105 34.964024 
L 320.959211 37.663651 
L 332.406316 41.245569 
L 343.853421 45.95239 
L 355.300526 51.826059 
L 366.747632 58.286128 
L 378.194737 65.101632 
L 389.641842 72.11368 
L 401.088947 79.380525 
L 412.536053 86.451155 
L 423.983158 93.544819 
L 435.430263 100.337408 
L 446.877368 107.219386 
L 458.324474 113.744491 
L 469.771579 119.889003 
L 481.218684 125.755596 
L 492.665789 131.836027 
L 504.112895 136.961337 
L 515.56 142.573134 
" clip-path="url(#pfee391cd4e)" style="fill: none; stroke: #d62728; stroke-width: 1.5; stroke-linecap: square"/>
   </g>
   <g id="line2d_26">
    <path d="M 298.065 34.154297 
L 309.512105 34.943086 
L 320.959211 37.656632 
L 332.406316 41.240296 
L 343.853421 45.933894 
L 355.300526 51.732532 
L 366.747632 58.38521 
L 378.194737 65.14515 
L 389.641842 72.007315 
L 401.088947 79.384437 
L 412.536053 86.316202 
L 423.983158 93.280548 
L 435.430263 100.209751 
L 446.877368 107.464209 
L 458.324474 113.675775 
L 469.771579 120.294451 
L 481.218684 126.116954 
L 492.665789 131.995601 
L 504.112895 136.840655 
L 515.56 143.210595 
" clip-path="url(#pfee391cd4e)" style="fill: none; stroke: #9467bd; stroke-width: 1.5; stroke-linecap: square"/>
   </g>
   <g id="line2d_27">
    <path d="M 298.065 34.17089 
L 309.512105 34.957637 
L 320.959211 37.671754 
L 332.406316 41.273197 
L 343.853421 45.966062 
L 355.300526 51.780323 
L 366.747632 58.428413 
L 378.194737 65.212758 
L 389.641842 72.079164 
L 401.088947 79.499588 
L 412.536053 86.437939 
L 423.983158 93.410946 
L 435.430263 100.348847 
L 446.877368 107.593256 
L 458.324474 113.790027 
L 469.771579 120.422872 
L 481.218684 126.221655 
L 492.665789 132.081187 
L 504.112895 136.92451 
L 515.56 143.297975 
" clip-path="url(#pfee391cd4e)" style="fill: none; stroke: #8c564b; stroke-width: 1.5; stroke-linecap: square"/>
   </g>
   <g id="line2d_28">
    <path d="M 298.065 48.926892 
L 309.512105 49.641451 
L 320.959211 52.048682 
L 332.406316 55.287458 
L 343.853421 59.602265 
L 355.300526 64.931599 
L 366.747632 71.038264 
L 378.194737 77.233632 
L 389.641842 83.779913 
L 401.088947 90.66422 
L 412.536053 97.250213 
L 423.983158 103.990856 
L 435.430263 110.469702 
L 446.877368 116.889508 
L 458.324474 123.113355 
L 469.771579 128.755529 
L 481.218684 134.219359 
L 492.665789 139.867399 
L 504.112895 144.606216 
L 515.56 149.695256 
" clip-path="url(#pfee391cd4e)" style="fill: none; stroke: #e377c2; stroke-width: 1.5; stroke-linecap: square"/>
   </g>
   <g id="line2d_29">
    <path d="M 298.065 34.171611 
L 309.512105 34.959466 
L 320.959211 37.684581 
L 332.406316 41.282935 
L 343.853421 46.001433 
L 355.300526 51.884849 
L 366.747632 58.397432 
L 378.194737 65.209013 
L 389.641842 72.244207 
L 401.088947 79.540569 
L 412.536053 86.646089 
L 423.983158 93.757601 
L 435.430263 100.572772 
L 446.877368 107.495345 
L 458.324474 114.034304 
L 469.771579 120.172082 
L 481.218684 125.977665 
L 492.665789 132.012752 
L 504.112895 137.071778 
L 515.56 142.59191 
" clip-path="url(#pfee391cd4e)" style="fill: none; stroke: #7f7f7f; stroke-width: 1.5; stroke-linecap: square"/>
   </g>
   <g id="patch_6">
    <path d="M 298.065 174.04 
L 298.065 26.88 
" style="fill: none; stroke: #000000; stroke-width: 0.8; stroke-linejoin: miter; stroke-linecap: square"/>
   </g>
   <g id="patch_7">
    <path d="M 298.065 174.04 
L 515.56 174.04 
" style="fill: none; stroke: #000000; stroke-width: 0.8; stroke-linejoin: miter; stroke-linecap: square"/>
   </g>
   <g id="text_18">
    <!-- Node * third variable -->
    <g transform="translate(344.2325 20.88)scale(0.12 -0.12)">
     <defs>
      <path id="DejaVuSans-68" d="M 3513 2113 
L 3513 0 
L 2938 0 
L 2938 2094 
Q 2938 2591 2744 2837 
Q 2550 3084 2163 3084 
Q 1697 3084 1428 2787 
Q 1159 2491 1159 1978 
L 1159 0 
L 581 0 
L 581 4863 
L 1159 4863 
L 1159 2956 
Q 1366 3272 1645 3428 
Q 1925 3584 2291 3584 
Q 2894 3584 3203 3211 
Q 3513 2838 3513 2113 
z
" transform="scale(0.015625)"/>
      <path id="DejaVuSans-62" d="M 3116 1747 
Q 3116 2381 2855 2742 
Q 2594 3103 2138 3103 
Q 1681 3103 1420 2742 
Q 1159 2381 1159 1747 
Q 1159 1113 1420 752 
Q 1681 391 2138 391 
Q 2594 391 2855 752 
Q 3116 1113 3116 1747 
z
M 1159 2969 
Q 1341 3281 1617 3432 
Q 1894 3584 2278 3584 
Q 2916 3584 3314 3078 
Q 3713 2572 3713 1747 
Q 3713 922 3314 415 
Q 2916 -91 2278 -91 
Q 1894 -91 1617 61 
Q 1341 213 1159 525 
L 1159 0 
L 581 0 
L 581 4863 
L 1159 4863 
L 1159 2969 
z
" transform="scale(0.015625)"/>
     </defs>
     <use xlink:href="#DejaVuSans-4e"/>
     <use xlink:href="#DejaVuSans-6f" x="74.804688"/>
     <use xlink:href="#DejaVuSans-64" x="135.986328"/>
     <use xlink:href="#DejaVuSans-65" x="199.462891"/>
     <use xlink:href="#DejaVuSans-20" x="260.986328"/>
     <use xlink:href="#DejaVuSans-2a" x="292.773438"/>
     <use xlink:href="#DejaVuSans-20" x="342.773438"/>
     <use xlink:href="#DejaVuSans-74" x="374.560547"/>
     <use xlink:href="#DejaVuSans-68" x="413.769531"/>
     <use xlink:href="#DejaVuSans-69" x="477.148438"/>
     <use xlink:href="#DejaVuSans-72" x="504.931641"/>
     <use xlink:href="#DejaVuSans-64" x="544.294922"/>
     <use xlink:href="#DejaVuSans-20" x="607.771484"/>
     <use xlink:href="#DejaVuSans-76" x="639.558594"/>
     <use xlink:href="#DejaVuSans-61" x="698.738281"/>
     <use xlink:href="#DejaVuSans-72" x="760.017578"/>
     <use xlink:href="#DejaVuSans-69" x="801.130859"/>
     <use xlink:href="#DejaVuSans-61" x="828.914062"/>
     <use xlink:href="#DejaVuSans-62" x="890.193359"/>
     <use xlink:href="#DejaVuSans-6c" x="953.669922"/>
     <use xlink:href="#DejaVuSans-65" x="981.453125"/>
    </g>
   </g>
   <g id="legend_1">
    <g id="line2d_30">
     <path d="M 524.56 39.978437 
L 534.56 39.978437 
L 544.56 39.978437 
" style="fill: none; stroke: #1f77b4; stroke-width: 1.5; stroke-linecap: square"/>
    </g>
    <g id="text_19">
     <!-- Node -->
     <g transform="translate(552.56 43.478437)scale(0.1 -0.1)">
      <use xlink:href="#DejaVuSans-4e"/>
      <use xlink:href="#DejaVuSans-6f" x="74.804688"/>
      <use xlink:href="#DejaVuSans-64" x="135.986328"/>
      <use xlink:href="#DejaVuSans-65" x="199.462891"/>
     </g>
    </g>
    <g id="line2d_31">
     <path d="M 524.56 54.656563 
L 534.56 54.656563 
L 544.56 54.656563 
" style="fill: none; stroke: #ff7f0e; stroke-width: 1.5; stroke-linecap: square"/>
    </g>
    <g id="text_20">
     <!-- Node + surprisal -->
     <g transform="translate(552.56 58.156563)scale(0.1 -0.1)">
      <defs>
       <path id="DejaVuSans-2b" d="M 2944 4013 
L 2944 2272 
L 4684 2272 
L 4684 1741 
L 2944 1741 
L 2944 0 
L 2419 0 
L 2419 1741 
L 678 1741 
L 678 2272 
L 2419 2272 
L 2419 4013 
L 2944 4013 
z
" transform="scale(0.015625)"/>
      </defs>
      <use xlink:href="#DejaVuSans-4e"/>
      <use xlink:href="#DejaVuSans-6f" x="74.804688"/>
      <use xlink:href="#DejaVuSans-64" x="135.986328"/>
      <use xlink:href="#DejaVuSans-65" x="199.462891"/>
      <use xlink:href="#DejaVuSans-20" x="260.986328"/>
      <use xlink:href="#DejaVuSans-2b" x="292.773438"/>
      <use xlink:href="#DejaVuSans-20" x="376.5625"/>
      <use xlink:href="#DejaVuSans-73" x="408.349609"/>
      <use xlink:href="#DejaVuSans-75" x="460.449219"/>
      <use xlink:href="#DejaVuSans-72" x="523.828125"/>
      <use xlink:href="#DejaVuSans-70" x="564.941406"/>
      <use xlink:href="#DejaVuSans-72" x="628.417969"/>
      <use xlink:href="#DejaVuSans-69" x="669.53125"/>
      <use xlink:href="#DejaVuSans-73" x="697.314453"/>
      <use xlink:href="#DejaVuSans-61" x="749.414062"/>
      <use xlink:href="#DejaVuSans-6c" x="810.693359"/>
     </g>
    </g>
    <g id="line2d_32">
     <path d="M 524.56 69.334687 
L 534.56 69.334687 
L 544.56 69.334687 
" style="fill: none; stroke: #2ca02c; stroke-width: 1.5; stroke-linecap: square"/>
    </g>
    <g id="text_21">
     <!-- Node split -->
     <g transform="translate(552.56 72.834687)scale(0.1 -0.1)">
      <use xlink:href="#DejaVuSans-4e"/>
      <use xlink:href="#DejaVuSans-6f" x="74.804688"/>
      <use xlink:href="#DejaVuSans-64" x="135.986328"/>
      <use xlink:href="#DejaVuSans-65" x="199.462891"/>
      <use xlink:href="#DejaVuSans-20" x="260.986328"/>
      <use xlink:href="#DejaVuSans-73" x="292.773438"/>
      <use xlink:href="#DejaVuSans-70" x="344.873047"/>
      <use xlink:href="#DejaVuSans-6c" x="408.349609"/>
      <use xlink:href="#DejaVuSans-69" x="436.132812"/>
      <use xlink:href="#DejaVuSans-74" x="463.916016"/>
     </g>
    </g>
    <g id="line2d_33">
     <path d="M 524.56 84.012812 
L 534.56 84.012812 
L 544.56 84.012812 
" style="fill: none; stroke: #d62728; stroke-width: 1.5; stroke-linecap: square"/>
    </g>
    <g id="text_22">
     <!-- Node split + surprisal -->
     <g transform="translate(552.56 87.512812)scale(0.1 -0.1)">
      <use xlink:href="#DejaVuSans-4e"/>
      <use xlink:href="#DejaVuSans-6f" x="74.804688"/>
      <use xlink:href="#DejaVuSans-64" x="135.986328"/>
      <use xlink:href="#DejaVuSans-65" x="199.462891"/>
      <use xlink:href="#DejaVuSans-20" x="260.986328"/>
      <use xlink:href="#DejaVuSans-73" x="292.773438"/>
      <use xlink:href="#DejaVuSans-70" x="344.873047"/>
      <use xlink:href="#DejaVuSans-6c" x="408.349609"/>
      <use xlink:href="#DejaVuSans-69" x="436.132812"/>
      <use xlink:href="#DejaVuSans-74" x="463.916016"/>
      <use xlink:href="#DejaVuSans-20" x="503.125"/>
      <use xlink:href="#DejaVuSans-2b" x="534.912109"/>
      <use xlink:href="#DejaVuSans-20" x="618.701172"/>
      <use xlink:href="#DejaVuSans-73" x="650.488281"/>
      <use xlink:href="#DejaVuSans-75" x="702.587891"/>
      <use xlink:href="#DejaVuSans-72" x="765.966797"/>
      <use xlink:href="#DejaVuSans-70" x="807.080078"/>
      <use xlink:href="#DejaVuSans-72" x="870.556641"/>
      <use xlink:href="#DejaVuSans-69" x="911.669922"/>
      <use xlink:href="#DejaVuSans-73" x="939.453125"/>
      <use xlink:href="#DejaVuSans-61" x="991.552734"/>
      <use xlink:href="#DejaVuSans-6c" x="1052.832031"/>
     </g>
    </g>
    <g id="line2d_34">
     <path d="M 524.56 98.690937 
L 534.56 98.690937 
L 544.56 98.690937 
" style="fill: none; stroke: #9467bd; stroke-width: 1.5; stroke-linecap: square"/>
    </g>
    <g id="text_23">
     <!-- Node random split -->
     <g transform="translate(552.56 102.190937)scale(0.1 -0.1)">
      <use xlink:href="#DejaVuSans-4e"/>
      <use xlink:href="#DejaVuSans-6f" x="74.804688"/>
      <use xlink:href="#DejaVuSans-64" x="135.986328"/>
      <use xlink:href="#DejaVuSans-65" x="199.462891"/>
      <use xlink:href="#DejaVuSans-20" x="260.986328"/>
      <use xlink:href="#DejaVuSans-72" x="292.773438"/>
      <use xlink:href="#DejaVuSans-61" x="333.886719"/>
      <use xlink:href="#DejaVuSans-6e" x="395.166016"/>
      <use xlink:href="#DejaVuSans-64" x="458.544922"/>
      <use xlink:href="#DejaVuSans-6f" x="522.021484"/>
      <use xlink:href="#DejaVuSans-6d" x="583.203125"/>
      <use xlink:href="#DejaVuSans-20" x="680.615234"/>
      <use xlink:href="#DejaVuSans-73" x="712.402344"/>
      <use xlink:href="#DejaVuSans-70" x="764.501953"/>
      <use xlink:href="#DejaVuSans-6c" x="827.978516"/>
      <use xlink:href="#DejaVuSans-69" x="855.761719"/>
      <use xlink:href="#DejaVuSans-74" x="883.544922"/>
     </g>
    </g>
    <g id="line2d_35">
     <path d="M 524.56 113.369062 
L 534.56 113.369062 
L 544.56 113.369062 
" style="fill: none; stroke: #8c564b; stroke-width: 1.5; stroke-linecap: square"/>
    </g>
    <g id="text_24">
     <!-- Node random split + surprisal -->
     <g transform="translate(552.56 116.869062)scale(0.1 -0.1)">
      <use xlink:href="#DejaVuSans-4e"/>
      <use xlink:href="#DejaVuSans-6f" x="74.804688"/>
      <use xlink:href="#DejaVuSans-64" x="135.986328"/>
      <use xlink:href="#DejaVuSans-65" x="199.462891"/>
      <use xlink:href="#DejaVuSans-20" x="260.986328"/>
      <use xlink:href="#DejaVuSans-72" x="292.773438"/>
      <use xlink:href="#DejaVuSans-61" x="333.886719"/>
      <use xlink:href="#DejaVuSans-6e" x="395.166016"/>
      <use xlink:href="#DejaVuSans-64" x="458.544922"/>
      <use xlink:href="#DejaVuSans-6f" x="522.021484"/>
      <use xlink:href="#DejaVuSans-6d" x="583.203125"/>
      <use xlink:href="#DejaVuSans-20" x="680.615234"/>
      <use xlink:href="#DejaVuSans-73" x="712.402344"/>
      <use xlink:href="#DejaVuSans-70" x="764.501953"/>
      <use xlink:href="#DejaVuSans-6c" x="827.978516"/>
      <use xlink:href="#DejaVuSans-69" x="855.761719"/>
      <use xlink:href="#DejaVuSans-74" x="883.544922"/>
      <use xlink:href="#DejaVuSans-20" x="922.753906"/>
      <use xlink:href="#DejaVuSans-2b" x="954.541016"/>
      <use xlink:href="#DejaVuSans-20" x="1038.330078"/>
      <use xlink:href="#DejaVuSans-73" x="1070.117188"/>
      <use xlink:href="#DejaVuSans-75" x="1122.216797"/>
      <use xlink:href="#DejaVuSans-72" x="1185.595703"/>
      <use xlink:href="#DejaVuSans-70" x="1226.708984"/>
      <use xlink:href="#DejaVuSans-72" x="1290.185547"/>
      <use xlink:href="#DejaVuSans-69" x="1331.298828"/>
      <use xlink:href="#DejaVuSans-73" x="1359.082031"/>
      <use xlink:href="#DejaVuSans-61" x="1411.181641"/>
      <use xlink:href="#DejaVuSans-6c" x="1472.460938"/>
     </g>
    </g>
    <g id="line2d_36">
     <path d="M 524.56 128.047187 
L 534.56 128.047187 
L 544.56 128.047187 
" style="fill: none; stroke: #e377c2; stroke-width: 1.5; stroke-linecap: square"/>
    </g>
    <g id="text_25">
     <!-- Interaction -->
     <g transform="translate(552.56 131.547187)scale(0.1 -0.1)">
      <use xlink:href="#DejaVuSans-49"/>
      <use xlink:href="#DejaVuSans-6e" x="29.492188"/>
      <use xlink:href="#DejaVuSans-74" x="92.871094"/>
      <use xlink:href="#DejaVuSans-65" x="132.080078"/>
      <use xlink:href="#DejaVuSans-72" x="193.603516"/>
      <use xlink:href="#DejaVuSans-61" x="234.716797"/>
      <use xlink:href="#DejaVuSans-63" x="295.996094"/>
      <use xlink:href="#DejaVuSans-74" x="350.976562"/>
      <use xlink:href="#DejaVuSans-69" x="390.185547"/>
      <use xlink:href="#DejaVuSans-6f" x="417.96875"/>
      <use xlink:href="#DejaVuSans-6e" x="479.150391"/>
     </g>
    </g>
    <g id="line2d_37">
     <path d="M 524.56 142.725312 
L 534.56 142.725312 
L 544.56 142.725312 
" style="fill: none; stroke: #7f7f7f; stroke-width: 1.5; stroke-linecap: square"/>
    </g>
    <g id="text_26">
     <!-- Node + surprisal + interaction -->
     <g transform="translate(552.56 146.225312)scale(0.1 -0.1)">
      <use xlink:href="#DejaVuSans-4e"/>
      <use xlink:href="#DejaVuSans-6f" x="74.804688"/>
      <use xlink:href="#DejaVuSans-64" x="135.986328"/>
      <use xlink:href="#DejaVuSans-65" x="199.462891"/>
      <use xlink:href="#DejaVuSans-20" x="260.986328"/>
      <use xlink:href="#DejaVuSans-2b" x="292.773438"/>
      <use xlink:href="#DejaVuSans-20" x="376.5625"/>
      <use xlink:href="#DejaVuSans-73" x="408.349609"/>
      <use xlink:href="#DejaVuSans-75" x="460.449219"/>
      <use xlink:href="#DejaVuSans-72" x="523.828125"/>
      <use xlink:href="#DejaVuSans-70" x="564.941406"/>
      <use xlink:href="#DejaVuSans-72" x="628.417969"/>
      <use xlink:href="#DejaVuSans-69" x="669.53125"/>
      <use xlink:href="#DejaVuSans-73" x="697.314453"/>
      <use xlink:href="#DejaVuSans-61" x="749.414062"/>
      <use xlink:href="#DejaVuSans-6c" x="810.693359"/>
      <use xlink:href="#DejaVuSans-20" x="838.476562"/>
      <use xlink:href="#DejaVuSans-2b" x="870.263672"/>
      <use xlink:href="#DejaVuSans-20" x="954.052734"/>
      <use xlink:href="#DejaVuSans-69" x="985.839844"/>
      <use xlink:href="#DejaVuSans-6e" x="1013.623047"/>
      <use xlink:href="#DejaVuSans-74" x="1077.001953"/>
      <use xlink:href="#DejaVuSans-65" x="1116.210938"/>
      <use xlink:href="#DejaVuSans-72" x="1177.734375"/>
      <use xlink:href="#DejaVuSans-61" x="1218.847656"/>
      <use xlink:href="#DejaVuSans-63" x="1280.126953"/>
      <use xlink:href="#DejaVuSans-74" x="1335.107422"/>
      <use xlink:href="#DejaVuSans-69" x="1374.316406"/>
      <use xlink:href="#DejaVuSans-6f" x="1402.099609"/>
      <use xlink:href="#DejaVuSans-6e" x="1463.28125"/>
     </g>
    </g>
   </g>
  </g>
 </g>
 <defs>
  <clipPath id="pa298e5cbd0">
   <rect x="47.72" y="26.88" width="217.495" height="147.16"/>
  </clipPath>
  <clipPath id="pfee391cd4e">
   <rect x="298.065" y="26.88" width="217.495" height="147.16"/>
  </clipPath>
 </defs>
</svg>
