<?xml version="1.0" encoding="utf-8" standalone="no"?>
<!DOCTYPE svg PUBLIC "-//W3C//DTD SVG 1.1//EN"
  "http://www.w3.org/Graphics/SVG/1.1/DTD/svg11.dtd">
<svg xmlns:xlink="http://www.w3.org/1999/xlink" width="720pt" height="216pt" viewBox="0 0 720 216" xmlns="http://www.w3.org/2000/svg" version="1.1">
 <metadata>
  <rdf:RDF xmlns:dc="http://purl.org/dc/elements/1.1/" xmlns:cc="http://creativecommons.org/ns#" xmlns:rdf="http://www.w3.org/1999/02/22-rdf-syntax-ns#">
   <cc:Work>
    <dc:type rdf:resource="http://purl.org/dc/dcmitype/StillImage"/>
    <dc:date>2024-01-15T20:53:53.810120</dc:date>
    <dc:format>image/svg+xml</dc:format>
    <dc:creator>
     <cc:Agent>
      <dc:title>Matplotlib v3.5.1, https://matplotlib.org/</dc:title>
     </cc:Agent>
    </dc:creator>
   </cc:Work>
  </rdf:RDF>
 </metadata>
 <defs>
  <style type="text/css">*{stroke-linejoin: round; stroke-linecap: butt}</style>
 </defs>
 <g id="figure_1">
  <g id="patch_1">
   <path d="M 0 216 
L 720 216 
L 720 0 
L 0 0 
z
" style="fill: #ffffff"/>
  </g>
  <g id="axes_1">
   <g id="patch_2">
    <path d="M 47.72 174.04 
L 265.215 174.04 
L 265.215 26.88 
L 47.72 26.88 
z
" style="fill: #ffffff"/>
   </g>
   <g id="PolyCollection_1">
    <path d="M 47.72 33.65394 
L 47.72 34.629362 
L 59.167105 35.58683 
L 70.614211 38.875946 
L 82.061316 43.280799 
L 93.508421 48.576686 
L 104.955526 55.377918 
L 116.402632 62.266995 
L 127.849737 69.855286 
L 139.296842 77.376091 
L 150.743947 85.048181 
L 162.191053 92.833479 
L 173.638158 99.935652 
L 185.085263 106.694264 
L 196.532368 113.361808 
L 207.979474 119.842473 
L 219.426579 125.923421 
L 230.873684 131.360828 
L 242.320789 136.526147 
L 253.767895 141.482152 
L 265.215 146.235101 
L 265.215 137.199006 
L 265.215 137.199006 
L 253.767895 132.760832 
L 242.320789 127.104217 
L 230.873684 121.129206 
L 219.426579 115.813852 
L 207.979474 109.554744 
L 196.532368 103.572928 
L 185.085263 96.455108 
L 173.638158 90.122129 
L 162.191053 83.448075 
L 150.743947 76.284712 
L 139.296842 69.258482 
L 127.849737 62.37422 
L 116.402632 56.11434 
L 104.955526 50.129076 
L 93.508421 44.470875 
L 82.061316 40.246816 
L 70.614211 36.813744 
L 59.167105 34.644361 
L 47.72 33.65394 
z
" clip-path="url(#p5adc9aca4b)" style="fill: #1f77b4; fill-opacity: 0.4"/>
   </g>
   <g id="PolyCollection_2">
    <path d="M 47.72 33.671285 
L 47.72 34.64744 
L 59.167105 35.259082 
L 70.614211 37.000579 
L 82.061316 39.405747 
L 93.508421 42.728038 
L 104.955526 47.476883 
L 116.402632 51.979314 
L 127.849737 57.552628 
L 139.296842 63.238602 
L 150.743947 69.739956 
L 162.191053 76.383595 
L 173.638158 83.622774 
L 185.085263 90.356008 
L 196.532368 97.279897 
L 207.979474 103.80936 
L 219.426579 110.248838 
L 230.873684 116.255293 
L 242.320789 121.820609 
L 253.767895 127.813436 
L 265.215 132.956902 
L 265.215 120.504076 
L 265.215 120.504076 
L 253.767895 116.327497 
L 242.320789 110.917937 
L 230.873684 105.122803 
L 219.426579 99.798672 
L 207.979474 93.438504 
L 196.532368 87.409216 
L 185.085263 80.783812 
L 173.638158 74.964457 
L 162.191053 69.114114 
L 150.743947 62.813156 
L 139.296842 57.487452 
L 127.849737 52.169941 
L 116.402632 47.771254 
L 104.955526 43.792116 
L 93.508421 40.062751 
L 82.061316 37.743871 
L 70.614211 35.589076 
L 59.167105 34.356178 
L 47.72 33.671285 
z
" clip-path="url(#p5adc9aca4b)" style="fill: #ff7f0e; fill-opacity: 0.4"/>
   </g>
   <g id="PolyCollection_3">
    <path d="M 47.72 33.671534 
L 47.72 34.660826 
L 59.167105 35.407723 
L 70.614211 37.155593 
L 82.061316 39.19951 
L 93.508421 41.79074 
L 104.955526 44.969577 
L 116.402632 48.292096 
L 127.849737 51.498773 
L 139.296842 55.364479 
L 150.743947 59.311743 
L 162.191053 63.573046 
L 173.638158 67.021292 
L 185.085263 70.728047 
L 196.532368 74.397102 
L 207.979474 77.845907 
L 219.426579 81.78066 
L 230.873684 85.122667 
L 242.320789 88.229055 
L 253.767895 92.031954 
L 265.215 94.75512 
L 265.215 87.119527 
L 265.215 87.119527 
L 253.767895 84.029859 
L 242.320789 80.778257 
L 230.873684 77.039186 
L 219.426579 73.695583 
L 207.979474 70.358232 
L 196.532368 66.642027 
L 185.085263 63.162469 
L 173.638158 59.581349 
L 162.191053 56.417873 
L 150.743947 52.749921 
L 139.296842 49.428645 
L 127.849737 46.192263 
L 116.402632 43.557317 
L 104.955526 40.937766 
L 93.508421 38.513413 
L 82.061316 36.940847 
L 70.614211 35.327655 
L 59.167105 34.482263 
L 47.72 33.671534 
z
" clip-path="url(#p5adc9aca4b)" style="fill: #2ca02c; fill-opacity: 0.4"/>
   </g>
   <g id="PolyCollection_4">
    <path d="M 47.72 33.700031 
L 47.72 34.678995 
L 59.167105 35.254728 
L 70.614211 36.454009 
L 82.061316 37.871108 
L 93.508421 39.914134 
L 104.955526 42.615016 
L 116.402632 45.215175 
L 127.849737 48.120582 
L 139.296842 51.581343 
L 150.743947 55.284789 
L 162.191053 59.350157 
L 173.638158 63.094895 
L 185.085263 66.966686 
L 196.532368 70.842058 
L 207.979474 74.456948 
L 219.426579 78.611232 
L 230.873684 82.218488 
L 242.320789 85.406446 
L 253.767895 89.552983 
L 265.215 92.510819 
L 265.215 86.256951 
L 265.215 86.256951 
L 253.767895 83.19897 
L 242.320789 79.944372 
L 230.873684 75.943635 
L 219.426579 72.502392 
L 207.979474 68.917545 
L 196.532368 65.151984 
L 185.085263 61.421499 
L 173.638158 57.760898 
L 162.191053 54.461174 
L 150.743947 50.690164 
L 139.296842 47.410167 
L 127.849737 44.348283 
L 116.402632 41.953587 
L 104.955526 39.657541 
L 93.508421 37.500529 
L 82.061316 36.363202 
L 70.614211 35.024997 
L 59.167105 34.34533 
L 47.72 33.700031 
z
" clip-path="url(#p5adc9aca4b)" style="fill: #d62728; fill-opacity: 0.4"/>
   </g>
   <g id="PolyCollection_5">
    <path d="M 47.72 33.675371 
L 47.72 34.642356 
L 59.167105 35.600699 
L 70.614211 38.888307 
L 82.061316 43.318175 
L 93.508421 48.600323 
L 104.955526 55.326376 
L 116.402632 62.566357 
L 127.849737 70.03483 
L 139.296842 77.595767 
L 150.743947 84.97623 
L 162.191053 92.815668 
L 173.638158 99.928005 
L 185.085263 106.60189 
L 196.532368 113.673988 
L 207.979474 120.211869 
L 219.426579 125.917868 
L 230.873684 131.847532 
L 242.320789 136.878422 
L 253.767895 142.612859 
L 265.215 146.4195 
L 265.215 137.202697 
L 265.215 137.202697 
L 253.767895 133.582026 
L 242.320789 128.217572 
L 230.873684 122.121244 
L 219.426579 116.735978 
L 207.979474 109.649305 
L 196.532368 103.871466 
L 185.085263 96.283458 
L 173.638158 90.366278 
L 162.191053 83.628161 
L 150.743947 76.599536 
L 139.296842 69.229724 
L 127.849737 62.38736 
L 116.402632 56.18884 
L 104.955526 50.229966 
L 93.508421 44.495039 
L 82.061316 40.259073 
L 70.614211 36.825609 
L 59.167105 34.665333 
L 47.72 33.675371 
z
" clip-path="url(#p5adc9aca4b)" style="fill: #9467bd; fill-opacity: 0.4"/>
   </g>
   <g id="PolyCollection_6">
    <path d="M 47.72 33.692916 
L 47.72 34.660668 
L 59.167105 35.276887 
L 70.614211 37.021726 
L 82.061316 39.423818 
L 93.508421 42.739064 
L 104.955526 47.468761 
L 116.402632 52.26715 
L 127.849737 57.560484 
L 139.296842 63.403359 
L 150.743947 69.744613 
L 162.191053 76.379115 
L 173.638158 83.675073 
L 185.085263 90.268339 
L 196.532368 97.446799 
L 207.979474 104.136438 
L 219.426579 110.19507 
L 230.873684 116.571501 
L 242.320789 122.077783 
L 253.767895 128.497348 
L 265.215 132.990479 
L 265.215 120.523812 
L 265.215 120.523812 
L 253.767895 117.173511 
L 242.320789 111.691413 
L 230.873684 105.951495 
L 219.426579 100.118752 
L 207.979474 93.543934 
L 196.532368 87.591708 
L 185.085263 80.714351 
L 173.638158 75.096442 
L 162.191053 69.214912 
L 150.743947 62.813605 
L 139.296842 57.544273 
L 127.849737 52.205699 
L 116.402632 47.811923 
L 104.955526 43.87223 
L 93.508421 40.063336 
L 82.061316 37.742666 
L 70.614211 35.590709 
L 59.167105 34.375534 
L 47.72 33.692916 
z
" clip-path="url(#p5adc9aca4b)" style="fill: #8c564b; fill-opacity: 0.4"/>
   </g>
   <g id="PolyCollection_7">
    <path d="M 47.72 46.443 
L 47.72 50.952603 
L 59.167105 52.575281 
L 70.614211 57.088658 
L 82.061316 63.449099 
L 93.508421 70.263771 
L 104.955526 77.950863 
L 116.402632 85.822074 
L 127.849737 93.736307 
L 139.296842 101.978213 
L 150.743947 110.284891 
L 162.191053 118.553237 
L 173.638158 125.855924 
L 185.085263 132.764793 
L 196.532368 139.291862 
L 207.979474 145.397413 
L 219.426579 150.79918 
L 230.873684 155.425599 
L 242.320789 159.945766 
L 253.767895 163.928043 
L 265.215 167.350909 
L 265.215 152.544189 
L 265.215 152.544189 
L 253.767895 148.576022 
L 242.320789 143.850399 
L 230.873684 138.654853 
L 219.426579 133.722986 
L 207.979474 128.143639 
L 196.532368 122.157941 
L 185.085263 115.352303 
L 173.638158 109.081734 
L 162.191053 102.144989 
L 150.743947 94.471159 
L 139.296842 86.590657 
L 127.849737 78.950911 
L 116.402632 71.548631 
L 104.955526 64.607818 
L 93.508421 58.010474 
L 82.061316 53.167273 
L 70.614211 49.399151 
L 59.167105 47.454893 
L 47.72 46.443 
z
" clip-path="url(#p5adc9aca4b)" style="fill: #e377c2; fill-opacity: 0.4"/>
   </g>
   <g id="PolyCollection_8">
    <path d="M 47.72 33.698958 
L 47.72 34.676987 
L 59.167105 34.939987 
L 70.614211 35.390625 
L 82.061316 36.264918 
L 93.508421 38.314274 
L 104.955526 41.359144 
L 116.402632 44.869334 
L 127.849737 48.637956 
L 139.296842 53.328322 
L 150.743947 58.838337 
L 162.191053 65.149683 
L 173.638158 71.586343 
L 185.085263 78.15405 
L 196.532368 84.915252 
L 207.979474 91.093924 
L 219.426579 97.493841 
L 230.873684 103.861303 
L 242.320789 109.438418 
L 253.767895 115.53918 
L 265.215 120.590671 
L 265.215 103.761856 
L 265.215 103.761856 
L 253.767895 98.926862 
L 242.320789 92.950329 
L 230.873684 86.777365 
L 219.426579 81.218634 
L 207.979474 74.733539 
L 196.532368 68.496971 
L 185.085263 62.395036 
L 173.638158 56.858402 
L 162.191053 52.038754 
L 150.743947 46.73565 
L 139.296842 42.985439 
L 127.849737 39.350763 
L 116.402632 36.995389 
L 104.955526 35.426473 
L 93.508421 34.373012 
L 82.061316 34.361433 
L 70.614211 33.971776 
L 59.167105 34.078225 
L 47.72 33.698958 
z
" clip-path="url(#p5adc9aca4b)" style="fill: #7f7f7f; fill-opacity: 0.4"/>
   </g>
   <g id="matplotlib.axis_1">
    <g id="xtick_1">
     <g id="line2d_1">
      <defs>
       <path id="m4ff6067cdb" d="M 0 0 
L 0 3.5 
" style="stroke: #000000; stroke-width: 0.8"/>
      </defs>
      <g>
       <use xlink:href="#m4ff6067cdb" x="47.72" y="174.04" style="stroke: #000000; stroke-width: 0.8"/>
      </g>
     </g>
     <g id="text_1">
      <!-- 0.0 -->
      <g transform="translate(39.768438 188.638438)scale(0.1 -0.1)">
       <defs>
        <path id="DejaVuSans-30" d="M 2034 4250 
Q 1547 4250 1301 3770 
Q 1056 3291 1056 2328 
Q 1056 1369 1301 889 
Q 1547 409 2034 409 
Q 2525 409 2770 889 
Q 3016 1369 3016 2328 
Q 3016 3291 2770 3770 
Q 2525 4250 2034 4250 
z
M 2034 4750 
Q 2819 4750 3233 4129 
Q 3647 3509 3647 2328 
Q 3647 1150 3233 529 
Q 2819 -91 2034 -91 
Q 1250 -91 836 529 
Q 422 1150 422 2328 
Q 422 3509 836 4129 
Q 1250 4750 2034 4750 
z
" transform="scale(0.015625)"/>
        <path id="DejaVuSans-2e" d="M 684 794 
L 1344 794 
L 1344 0 
L 684 0 
L 684 794 
z
" transform="scale(0.015625)"/>
       </defs>
       <use xlink:href="#DejaVuSans-30"/>
       <use xlink:href="#DejaVuSans-2e" x="63.623047"/>
       <use xlink:href="#DejaVuSans-30" x="95.410156"/>
      </g>
     </g>
    </g>
    <g id="xtick_2">
     <g id="line2d_2">
      <g>
       <use xlink:href="#m4ff6067cdb" x="102.09375" y="174.04" style="stroke: #000000; stroke-width: 0.8"/>
      </g>
     </g>
     <g id="text_2">
      <!-- 0.5 -->
      <g transform="translate(94.142188 188.638438)scale(0.1 -0.1)">
       <defs>
        <path id="DejaVuSans-35" d="M 691 4666 
L 3169 4666 
L 3169 4134 
L 1269 4134 
L 1269 2991 
Q 1406 3038 1543 3061 
Q 1681 3084 1819 3084 
Q 2600 3084 3056 2656 
Q 3513 2228 3513 1497 
Q 3513 744 3044 326 
Q 2575 -91 1722 -91 
Q 1428 -91 1123 -41 
Q 819 9 494 109 
L 494 744 
Q 775 591 1075 516 
Q 1375 441 1709 441 
Q 2250 441 2565 725 
Q 2881 1009 2881 1497 
Q 2881 1984 2565 2268 
Q 2250 2553 1709 2553 
Q 1456 2553 1204 2497 
Q 953 2441 691 2322 
L 691 4666 
z
" transform="scale(0.015625)"/>
       </defs>
       <use xlink:href="#DejaVuSans-30"/>
       <use xlink:href="#DejaVuSans-2e" x="63.623047"/>
       <use xlink:href="#DejaVuSans-35" x="95.410156"/>
      </g>
     </g>
    </g>
    <g id="xtick_3">
     <g id="line2d_3">
      <g>
       <use xlink:href="#m4ff6067cdb" x="156.4675" y="174.04" style="stroke: #000000; stroke-width: 0.8"/>
      </g>
     </g>
     <g id="text_3">
      <!-- 1.0 -->
      <g transform="translate(148.515938 188.638438)scale(0.1 -0.1)">
       <defs>
        <path id="DejaVuSans-31" d="M 794 531 
L 1825 531 
L 1825 4091 
L 703 3866 
L 703 4441 
L 1819 4666 
L 2450 4666 
L 2450 531 
L 3481 531 
L 3481 0 
L 794 0 
L 794 531 
z
" transform="scale(0.015625)"/>
       </defs>
       <use xlink:href="#DejaVuSans-31"/>
       <use xlink:href="#DejaVuSans-2e" x="63.623047"/>
       <use xlink:href="#DejaVuSans-30" x="95.410156"/>
      </g>
     </g>
    </g>
    <g id="xtick_4">
     <g id="line2d_4">
      <g>
       <use xlink:href="#m4ff6067cdb" x="210.84125" y="174.04" style="stroke: #000000; stroke-width: 0.8"/>
      </g>
     </g>
     <g id="text_4">
      <!-- 1.5 -->
      <g transform="translate(202.889687 188.638438)scale(0.1 -0.1)">
       <use xlink:href="#DejaVuSans-31"/>
       <use xlink:href="#DejaVuSans-2e" x="63.623047"/>
       <use xlink:href="#DejaVuSans-35" x="95.410156"/>
      </g>
     </g>
    </g>
    <g id="xtick_5">
     <g id="line2d_5">
      <g>
       <use xlink:href="#m4ff6067cdb" x="265.215" y="174.04" style="stroke: #000000; stroke-width: 0.8"/>
      </g>
     </g>
     <g id="text_5">
      <!-- 2.0 -->
      <g transform="translate(257.263437 188.638438)scale(0.1 -0.1)">
       <defs>
        <path id="DejaVuSans-32" d="M 1228 531 
L 3431 531 
L 3431 0 
L 469 0 
L 469 531 
Q 828 903 1448 1529 
Q 2069 2156 2228 2338 
Q 2531 2678 2651 2914 
Q 2772 3150 2772 3378 
Q 2772 3750 2511 3984 
Q 2250 4219 1831 4219 
Q 1534 4219 1204 4116 
Q 875 4013 500 3803 
L 500 4441 
Q 881 4594 1212 4672 
Q 1544 4750 1819 4750 
Q 2544 4750 2975 4387 
Q 3406 4025 3406 3419 
Q 3406 3131 3298 2873 
Q 3191 2616 2906 2266 
Q 2828 2175 2409 1742 
Q 1991 1309 1228 531 
z
" transform="scale(0.015625)"/>
       </defs>
       <use xlink:href="#DejaVuSans-32"/>
       <use xlink:href="#DejaVuSans-2e" x="63.623047"/>
       <use xlink:href="#DejaVuSans-30" x="95.410156"/>
      </g>
     </g>
    </g>
    <g id="text_6">
     <!-- Influence of surprisal (multiplication) -->
     <g transform="translate(64.320625 202.316563)scale(0.1 -0.1)">
      <defs>
       <path id="DejaVuSans-49" d="M 628 4666 
L 1259 4666 
L 1259 0 
L 628 0 
L 628 4666 
z
" transform="scale(0.015625)"/>
       <path id="DejaVuSans-6e" d="M 3513 2113 
L 3513 0 
L 2938 0 
L 2938 2094 
Q 2938 2591 2744 2837 
Q 2550 3084 2163 3084 
Q 1697 3084 1428 2787 
Q 1159 2491 1159 1978 
L 1159 0 
L 581 0 
L 581 3500 
L 1159 3500 
L 1159 2956 
Q 1366 3272 1645 3428 
Q 1925 3584 2291 3584 
Q 2894 3584 3203 3211 
Q 3513 2838 3513 2113 
z
" transform="scale(0.015625)"/>
       <path id="DejaVuSans-66" d="M 2375 4863 
L 2375 4384 
L 1825 4384 
Q 1516 4384 1395 4259 
Q 1275 4134 1275 3809 
L 1275 3500 
L 2222 3500 
L 2222 3053 
L 1275 3053 
L 1275 0 
L 697 0 
L 697 3053 
L 147 3053 
L 147 3500 
L 697 3500 
L 697 3744 
Q 697 4328 969 4595 
Q 1241 4863 1831 4863 
L 2375 4863 
z
" transform="scale(0.015625)"/>
       <path id="DejaVuSans-6c" d="M 603 4863 
L 1178 4863 
L 1178 0 
L 603 0 
L 603 4863 
z
" transform="scale(0.015625)"/>
       <path id="DejaVuSans-75" d="M 544 1381 
L 544 3500 
L 1119 3500 
L 1119 1403 
Q 1119 906 1312 657 
Q 1506 409 1894 409 
Q 2359 409 2629 706 
Q 2900 1003 2900 1516 
L 2900 3500 
L 3475 3500 
L 3475 0 
L 2900 0 
L 2900 538 
Q 2691 219 2414 64 
Q 2138 -91 1772 -91 
Q 1169 -91 856 284 
Q 544 659 544 1381 
z
M 1991 3584 
L 1991 3584 
z
" transform="scale(0.015625)"/>
       <path id="DejaVuSans-65" d="M 3597 1894 
L 3597 1613 
L 953 1613 
Q 991 1019 1311 708 
Q 1631 397 2203 397 
Q 2534 397 2845 478 
Q 3156 559 3463 722 
L 3463 178 
Q 3153 47 2828 -22 
Q 2503 -91 2169 -91 
Q 1331 -91 842 396 
Q 353 884 353 1716 
Q 353 2575 817 3079 
Q 1281 3584 2069 3584 
Q 2775 3584 3186 3129 
Q 3597 2675 3597 1894 
z
M 3022 2063 
Q 3016 2534 2758 2815 
Q 2500 3097 2075 3097 
Q 1594 3097 1305 2825 
Q 1016 2553 972 2059 
L 3022 2063 
z
" transform="scale(0.015625)"/>
       <path id="DejaVuSans-63" d="M 3122 3366 
L 3122 2828 
Q 2878 2963 2633 3030 
Q 2388 3097 2138 3097 
Q 1578 3097 1268 2742 
Q 959 2388 959 1747 
Q 959 1106 1268 751 
Q 1578 397 2138 397 
Q 2388 397 2633 464 
Q 2878 531 3122 666 
L 3122 134 
Q 2881 22 2623 -34 
Q 2366 -91 2075 -91 
Q 1284 -91 818 406 
Q 353 903 353 1747 
Q 353 2603 823 3093 
Q 1294 3584 2113 3584 
Q 2378 3584 2631 3529 
Q 2884 3475 3122 3366 
z
" transform="scale(0.015625)"/>
       <path id="DejaVuSans-20" transform="scale(0.015625)"/>
       <path id="DejaVuSans-6f" d="M 1959 3097 
Q 1497 3097 1228 2736 
Q 959 2375 959 1747 
Q 959 1119 1226 758 
Q 1494 397 1959 397 
Q 2419 397 2687 759 
Q 2956 1122 2956 1747 
Q 2956 2369 2687 2733 
Q 2419 3097 1959 3097 
z
M 1959 3584 
Q 2709 3584 3137 3096 
Q 3566 2609 3566 1747 
Q 3566 888 3137 398 
Q 2709 -91 1959 -91 
Q 1206 -91 779 398 
Q 353 888 353 1747 
Q 353 2609 779 3096 
Q 1206 3584 1959 3584 
z
" transform="scale(0.015625)"/>
       <path id="DejaVuSans-73" d="M 2834 3397 
L 2834 2853 
Q 2591 2978 2328 3040 
Q 2066 3103 1784 3103 
Q 1356 3103 1142 2972 
Q 928 2841 928 2578 
Q 928 2378 1081 2264 
Q 1234 2150 1697 2047 
L 1894 2003 
Q 2506 1872 2764 1633 
Q 3022 1394 3022 966 
Q 3022 478 2636 193 
Q 2250 -91 1575 -91 
Q 1294 -91 989 -36 
Q 684 19 347 128 
L 347 722 
Q 666 556 975 473 
Q 1284 391 1588 391 
Q 1994 391 2212 530 
Q 2431 669 2431 922 
Q 2431 1156 2273 1281 
Q 2116 1406 1581 1522 
L 1381 1569 
Q 847 1681 609 1914 
Q 372 2147 372 2553 
Q 372 3047 722 3315 
Q 1072 3584 1716 3584 
Q 2034 3584 2315 3537 
Q 2597 3491 2834 3397 
z
" transform="scale(0.015625)"/>
       <path id="DejaVuSans-72" d="M 2631 2963 
Q 2534 3019 2420 3045 
Q 2306 3072 2169 3072 
Q 1681 3072 1420 2755 
Q 1159 2438 1159 1844 
L 1159 0 
L 581 0 
L 581 3500 
L 1159 3500 
L 1159 2956 
Q 1341 3275 1631 3429 
Q 1922 3584 2338 3584 
Q 2397 3584 2469 3576 
Q 2541 3569 2628 3553 
L 2631 2963 
z
" transform="scale(0.015625)"/>
       <path id="DejaVuSans-70" d="M 1159 525 
L 1159 -1331 
L 581 -1331 
L 581 3500 
L 1159 3500 
L 1159 2969 
Q 1341 3281 1617 3432 
Q 1894 3584 2278 3584 
Q 2916 3584 3314 3078 
Q 3713 2572 3713 1747 
Q 3713 922 3314 415 
Q 2916 -91 2278 -91 
Q 1894 -91 1617 61 
Q 1341 213 1159 525 
z
M 3116 1747 
Q 3116 2381 2855 2742 
Q 2594 3103 2138 3103 
Q 1681 3103 1420 2742 
Q 1159 2381 1159 1747 
Q 1159 1113 1420 752 
Q 1681 391 2138 391 
Q 2594 391 2855 752 
Q 3116 1113 3116 1747 
z
" transform="scale(0.015625)"/>
       <path id="DejaVuSans-69" d="M 603 3500 
L 1178 3500 
L 1178 0 
L 603 0 
L 603 3500 
z
M 603 4863 
L 1178 4863 
L 1178 4134 
L 603 4134 
L 603 4863 
z
" transform="scale(0.015625)"/>
       <path id="DejaVuSans-61" d="M 2194 1759 
Q 1497 1759 1228 1600 
Q 959 1441 959 1056 
Q 959 750 1161 570 
Q 1363 391 1709 391 
Q 2188 391 2477 730 
Q 2766 1069 2766 1631 
L 2766 1759 
L 2194 1759 
z
M 3341 1997 
L 3341 0 
L 2766 0 
L 2766 531 
Q 2569 213 2275 61 
Q 1981 -91 1556 -91 
Q 1019 -91 701 211 
Q 384 513 384 1019 
Q 384 1609 779 1909 
Q 1175 2209 1959 2209 
L 2766 2209 
L 2766 2266 
Q 2766 2663 2505 2880 
Q 2244 3097 1772 3097 
Q 1472 3097 1187 3025 
Q 903 2953 641 2809 
L 641 3341 
Q 956 3463 1253 3523 
Q 1550 3584 1831 3584 
Q 2591 3584 2966 3190 
Q 3341 2797 3341 1997 
z
" transform="scale(0.015625)"/>
       <path id="DejaVuSans-28" d="M 1984 4856 
Q 1566 4138 1362 3434 
Q 1159 2731 1159 2009 
Q 1159 1288 1364 580 
Q 1569 -128 1984 -844 
L 1484 -844 
Q 1016 -109 783 600 
Q 550 1309 550 2009 
Q 550 2706 781 3412 
Q 1013 4119 1484 4856 
L 1984 4856 
z
" transform="scale(0.015625)"/>
       <path id="DejaVuSans-6d" d="M 3328 2828 
Q 3544 3216 3844 3400 
Q 4144 3584 4550 3584 
Q 5097 3584 5394 3201 
Q 5691 2819 5691 2113 
L 5691 0 
L 5113 0 
L 5113 2094 
Q 5113 2597 4934 2840 
Q 4756 3084 4391 3084 
Q 3944 3084 3684 2787 
Q 3425 2491 3425 1978 
L 3425 0 
L 2847 0 
L 2847 2094 
Q 2847 2600 2669 2842 
Q 2491 3084 2119 3084 
Q 1678 3084 1418 2786 
Q 1159 2488 1159 1978 
L 1159 0 
L 581 0 
L 581 3500 
L 1159 3500 
L 1159 2956 
Q 1356 3278 1631 3431 
Q 1906 3584 2284 3584 
Q 2666 3584 2933 3390 
Q 3200 3197 3328 2828 
z
" transform="scale(0.015625)"/>
       <path id="DejaVuSans-74" d="M 1172 4494 
L 1172 3500 
L 2356 3500 
L 2356 3053 
L 1172 3053 
L 1172 1153 
Q 1172 725 1289 603 
Q 1406 481 1766 481 
L 2356 481 
L 2356 0 
L 1766 0 
Q 1100 0 847 248 
Q 594 497 594 1153 
L 594 3053 
L 172 3053 
L 172 3500 
L 594 3500 
L 594 4494 
L 1172 4494 
z
" transform="scale(0.015625)"/>
       <path id="DejaVuSans-29" d="M 513 4856 
L 1013 4856 
Q 1481 4119 1714 3412 
Q 1947 2706 1947 2009 
Q 1947 1309 1714 600 
Q 1481 -109 1013 -844 
L 513 -844 
Q 928 -128 1133 580 
Q 1338 1288 1338 2009 
Q 1338 2731 1133 3434 
Q 928 4138 513 4856 
z
" transform="scale(0.015625)"/>
      </defs>
      <use xlink:href="#DejaVuSans-49"/>
      <use xlink:href="#DejaVuSans-6e" x="29.492188"/>
      <use xlink:href="#DejaVuSans-66" x="92.871094"/>
      <use xlink:href="#DejaVuSans-6c" x="128.076172"/>
      <use xlink:href="#DejaVuSans-75" x="155.859375"/>
      <use xlink:href="#DejaVuSans-65" x="219.238281"/>
      <use xlink:href="#DejaVuSans-6e" x="280.761719"/>
      <use xlink:href="#DejaVuSans-63" x="344.140625"/>
      <use xlink:href="#DejaVuSans-65" x="399.121094"/>
      <use xlink:href="#DejaVuSans-20" x="460.644531"/>
      <use xlink:href="#DejaVuSans-6f" x="492.431641"/>
      <use xlink:href="#DejaVuSans-66" x="553.613281"/>
      <use xlink:href="#DejaVuSans-20" x="588.818359"/>
      <use xlink:href="#DejaVuSans-73" x="620.605469"/>
      <use xlink:href="#DejaVuSans-75" x="672.705078"/>
      <use xlink:href="#DejaVuSans-72" x="736.083984"/>
      <use xlink:href="#DejaVuSans-70" x="777.197266"/>
      <use xlink:href="#DejaVuSans-72" x="840.673828"/>
      <use xlink:href="#DejaVuSans-69" x="881.787109"/>
      <use xlink:href="#DejaVuSans-73" x="909.570312"/>
      <use xlink:href="#DejaVuSans-61" x="961.669922"/>
      <use xlink:href="#DejaVuSans-6c" x="1022.949219"/>
      <use xlink:href="#DejaVuSans-20" x="1050.732422"/>
      <use xlink:href="#DejaVuSans-28" x="1082.519531"/>
      <use xlink:href="#DejaVuSans-6d" x="1121.533203"/>
      <use xlink:href="#DejaVuSans-75" x="1218.945312"/>
      <use xlink:href="#DejaVuSans-6c" x="1282.324219"/>
      <use xlink:href="#DejaVuSans-74" x="1310.107422"/>
      <use xlink:href="#DejaVuSans-69" x="1349.316406"/>
      <use xlink:href="#DejaVuSans-70" x="1377.099609"/>
      <use xlink:href="#DejaVuSans-6c" x="1440.576172"/>
      <use xlink:href="#DejaVuSans-69" x="1468.359375"/>
      <use xlink:href="#DejaVuSans-63" x="1496.142578"/>
      <use xlink:href="#DejaVuSans-61" x="1551.123047"/>
      <use xlink:href="#DejaVuSans-74" x="1612.402344"/>
      <use xlink:href="#DejaVuSans-69" x="1651.611328"/>
      <use xlink:href="#DejaVuSans-6f" x="1679.394531"/>
      <use xlink:href="#DejaVuSans-6e" x="1740.576172"/>
      <use xlink:href="#DejaVuSans-29" x="1803.955078"/>
     </g>
    </g>
   </g>
   <g id="matplotlib.axis_2">
    <g id="ytick_1">
     <g id="line2d_6">
      <defs>
       <path id="m406175b76b" d="M 0 0 
L -3.5 0 
" style="stroke: #000000; stroke-width: 0.8"/>
      </defs>
      <g>
       <use xlink:href="#m406175b76b" x="47.72" y="142.725675" style="stroke: #000000; stroke-width: 0.8"/>
      </g>
     </g>
     <g id="text_7">
      <!-- 0.4 -->
      <g transform="translate(24.816875 146.524894)scale(0.1 -0.1)">
       <defs>
        <path id="DejaVuSans-34" d="M 2419 4116 
L 825 1625 
L 2419 1625 
L 2419 4116 
z
M 2253 4666 
L 3047 4666 
L 3047 1625 
L 3713 1625 
L 3713 1100 
L 3047 1100 
L 3047 0 
L 2419 0 
L 2419 1100 
L 313 1100 
L 313 1709 
L 2253 4666 
z
" transform="scale(0.015625)"/>
       </defs>
       <use xlink:href="#DejaVuSans-30"/>
       <use xlink:href="#DejaVuSans-2e" x="63.623047"/>
       <use xlink:href="#DejaVuSans-34" x="95.410156"/>
      </g>
     </g>
    </g>
    <g id="ytick_2">
     <g id="line2d_7">
      <g>
       <use xlink:href="#m406175b76b" x="47.72" y="102.901174" style="stroke: #000000; stroke-width: 0.8"/>
      </g>
     </g>
     <g id="text_8">
      <!-- 0.6 -->
      <g transform="translate(24.816875 106.700393)scale(0.1 -0.1)">
       <defs>
        <path id="DejaVuSans-36" d="M 2113 2584 
Q 1688 2584 1439 2293 
Q 1191 2003 1191 1497 
Q 1191 994 1439 701 
Q 1688 409 2113 409 
Q 2538 409 2786 701 
Q 3034 994 3034 1497 
Q 3034 2003 2786 2293 
Q 2538 2584 2113 2584 
z
M 3366 4563 
L 3366 3988 
Q 3128 4100 2886 4159 
Q 2644 4219 2406 4219 
Q 1781 4219 1451 3797 
Q 1122 3375 1075 2522 
Q 1259 2794 1537 2939 
Q 1816 3084 2150 3084 
Q 2853 3084 3261 2657 
Q 3669 2231 3669 1497 
Q 3669 778 3244 343 
Q 2819 -91 2113 -91 
Q 1303 -91 875 529 
Q 447 1150 447 2328 
Q 447 3434 972 4092 
Q 1497 4750 2381 4750 
Q 2619 4750 2861 4703 
Q 3103 4656 3366 4563 
z
" transform="scale(0.015625)"/>
       </defs>
       <use xlink:href="#DejaVuSans-30"/>
       <use xlink:href="#DejaVuSans-2e" x="63.623047"/>
       <use xlink:href="#DejaVuSans-36" x="95.410156"/>
      </g>
     </g>
    </g>
    <g id="ytick_3">
     <g id="line2d_8">
      <g>
       <use xlink:href="#m406175b76b" x="47.72" y="63.076673" style="stroke: #000000; stroke-width: 0.8"/>
      </g>
     </g>
     <g id="text_9">
      <!-- 0.8 -->
      <g transform="translate(24.816875 66.875892)scale(0.1 -0.1)">
       <defs>
        <path id="DejaVuSans-38" d="M 2034 2216 
Q 1584 2216 1326 1975 
Q 1069 1734 1069 1313 
Q 1069 891 1326 650 
Q 1584 409 2034 409 
Q 2484 409 2743 651 
Q 3003 894 3003 1313 
Q 3003 1734 2745 1975 
Q 2488 2216 2034 2216 
z
M 1403 2484 
Q 997 2584 770 2862 
Q 544 3141 544 3541 
Q 544 4100 942 4425 
Q 1341 4750 2034 4750 
Q 2731 4750 3128 4425 
Q 3525 4100 3525 3541 
Q 3525 3141 3298 2862 
Q 3072 2584 2669 2484 
Q 3125 2378 3379 2068 
Q 3634 1759 3634 1313 
Q 3634 634 3220 271 
Q 2806 -91 2034 -91 
Q 1263 -91 848 271 
Q 434 634 434 1313 
Q 434 1759 690 2068 
Q 947 2378 1403 2484 
z
M 1172 3481 
Q 1172 3119 1398 2916 
Q 1625 2713 2034 2713 
Q 2441 2713 2670 2916 
Q 2900 3119 2900 3481 
Q 2900 3844 2670 4047 
Q 2441 4250 2034 4250 
Q 1625 4250 1398 4047 
Q 1172 3844 1172 3481 
z
" transform="scale(0.015625)"/>
       </defs>
       <use xlink:href="#DejaVuSans-30"/>
       <use xlink:href="#DejaVuSans-2e" x="63.623047"/>
       <use xlink:href="#DejaVuSans-38" x="95.410156"/>
      </g>
     </g>
    </g>
    <g id="text_10">
     <!-- R-value -->
     <g transform="translate(18.737188 119.064687)rotate(-90)scale(0.1 -0.1)">
      <defs>
       <path id="DejaVuSans-52" d="M 2841 2188 
Q 3044 2119 3236 1894 
Q 3428 1669 3622 1275 
L 4263 0 
L 3584 0 
L 2988 1197 
Q 2756 1666 2539 1819 
Q 2322 1972 1947 1972 
L 1259 1972 
L 1259 0 
L 628 0 
L 628 4666 
L 2053 4666 
Q 2853 4666 3247 4331 
Q 3641 3997 3641 3322 
Q 3641 2881 3436 2590 
Q 3231 2300 2841 2188 
z
M 1259 4147 
L 1259 2491 
L 2053 2491 
Q 2509 2491 2742 2702 
Q 2975 2913 2975 3322 
Q 2975 3731 2742 3939 
Q 2509 4147 2053 4147 
L 1259 4147 
z
" transform="scale(0.015625)"/>
       <path id="DejaVuSans-2d" d="M 313 2009 
L 1997 2009 
L 1997 1497 
L 313 1497 
L 313 2009 
z
" transform="scale(0.015625)"/>
       <path id="DejaVuSans-76" d="M 191 3500 
L 800 3500 
L 1894 563 
L 2988 3500 
L 3597 3500 
L 2284 0 
L 1503 0 
L 191 3500 
z
" transform="scale(0.015625)"/>
      </defs>
      <use xlink:href="#DejaVuSans-52"/>
      <use xlink:href="#DejaVuSans-2d" x="65.482422"/>
      <use xlink:href="#DejaVuSans-76" x="98.941406"/>
      <use xlink:href="#DejaVuSans-61" x="158.121094"/>
      <use xlink:href="#DejaVuSans-6c" x="219.400391"/>
      <use xlink:href="#DejaVuSans-75" x="247.183594"/>
      <use xlink:href="#DejaVuSans-65" x="310.5625"/>
     </g>
    </g>
   </g>
   <g id="line2d_9">
    <path d="M 47.72 34.141651 
L 59.167105 35.115595 
L 70.614211 37.844845 
L 82.061316 41.763808 
L 93.508421 46.523781 
L 104.955526 52.753497 
L 116.402632 59.190668 
L 127.849737 66.114753 
L 139.296842 73.317287 
L 150.743947 80.666446 
L 162.191053 88.140777 
L 173.638158 95.028891 
L 185.085263 101.574686 
L 196.532368 108.467368 
L 207.979474 114.698609 
L 219.426579 120.868637 
L 230.873684 126.245017 
L 242.320789 131.815182 
L 253.767895 137.121492 
L 265.215 141.717054 
" clip-path="url(#p5adc9aca4b)" style="fill: none; stroke: #1f77b4; stroke-width: 1.5; stroke-linecap: square"/>
   </g>
   <g id="line2d_10">
    <path d="M 47.72 34.159362 
L 59.167105 34.80763 
L 70.614211 36.294827 
L 82.061316 38.574809 
L 93.508421 41.395395 
L 104.955526 45.6345 
L 116.402632 49.875284 
L 127.849737 54.861285 
L 139.296842 60.363027 
L 150.743947 66.276556 
L 162.191053 72.748854 
L 173.638158 79.293616 
L 185.085263 85.56991 
L 196.532368 92.344557 
L 207.979474 98.623932 
L 219.426579 105.023755 
L 230.873684 110.689048 
L 242.320789 116.369273 
L 253.767895 122.070466 
L 265.215 126.730489 
" clip-path="url(#p5adc9aca4b)" style="fill: none; stroke: #ff7f0e; stroke-width: 1.5; stroke-linecap: square"/>
   </g>
   <g id="line2d_11">
    <path d="M 47.72 34.16618 
L 59.167105 34.944993 
L 70.614211 36.241624 
L 82.061316 38.070178 
L 93.508421 40.152076 
L 104.955526 42.953672 
L 116.402632 45.924706 
L 127.849737 48.845518 
L 139.296842 52.396562 
L 150.743947 56.030832 
L 162.191053 59.99546 
L 173.638158 63.301321 
L 185.085263 66.945258 
L 196.532368 70.519564 
L 207.979474 74.10207 
L 219.426579 77.738122 
L 230.873684 81.080927 
L 242.320789 84.503656 
L 253.767895 88.030907 
L 265.215 90.937323 
" clip-path="url(#p5adc9aca4b)" style="fill: none; stroke: #2ca02c; stroke-width: 1.5; stroke-linecap: square"/>
   </g>
   <g id="line2d_12">
    <path d="M 47.72 34.189513 
L 59.167105 34.800029 
L 70.614211 35.739503 
L 82.061316 37.117155 
L 93.508421 38.707331 
L 104.955526 41.136279 
L 116.402632 43.584381 
L 127.849737 46.234433 
L 139.296842 49.495755 
L 150.743947 52.987476 
L 162.191053 56.905666 
L 173.638158 60.427897 
L 185.085263 64.194092 
L 196.532368 67.997021 
L 207.979474 71.687246 
L 219.426579 75.556812 
L 230.873684 79.081061 
L 242.320789 82.675409 
L 253.767895 86.375976 
L 265.215 89.383885 
" clip-path="url(#p5adc9aca4b)" style="fill: none; stroke: #d62728; stroke-width: 1.5; stroke-linecap: square"/>
   </g>
   <g id="line2d_13">
    <path d="M 47.72 34.158863 
L 59.167105 35.133016 
L 70.614211 37.856958 
L 82.061316 41.788624 
L 93.508421 46.547681 
L 104.955526 52.778171 
L 116.402632 59.377599 
L 127.849737 66.211095 
L 139.296842 73.412745 
L 150.743947 80.787883 
L 162.191053 88.221914 
L 173.638158 95.147141 
L 185.085263 101.442674 
L 196.532368 108.772727 
L 207.979474 114.930587 
L 219.426579 121.326923 
L 230.873684 126.984388 
L 242.320789 132.547997 
L 253.767895 138.097442 
L 265.215 141.811098 
" clip-path="url(#p5adc9aca4b)" style="fill: none; stroke: #9467bd; stroke-width: 1.5; stroke-linecap: square"/>
   </g>
   <g id="line2d_14">
    <path d="M 47.72 34.176792 
L 59.167105 34.826211 
L 70.614211 36.306217 
L 82.061316 38.583242 
L 93.508421 41.4012 
L 104.955526 45.670495 
L 116.402632 50.039536 
L 127.849737 54.883092 
L 139.296842 60.473816 
L 150.743947 66.279109 
L 162.191053 72.797013 
L 173.638158 79.385758 
L 185.085263 85.491345 
L 196.532368 92.519253 
L 207.979474 98.840186 
L 219.426579 105.156911 
L 230.873684 111.261498 
L 242.320789 116.884598 
L 253.767895 122.835429 
L 265.215 126.757146 
" clip-path="url(#p5adc9aca4b)" style="fill: none; stroke: #8c564b; stroke-width: 1.5; stroke-linecap: square"/>
   </g>
   <g id="line2d_15">
    <path d="M 47.72 48.697802 
L 59.167105 50.015087 
L 70.614211 53.243905 
L 82.061316 58.308186 
L 93.508421 64.137122 
L 104.955526 71.279341 
L 116.402632 78.685353 
L 127.849737 86.343609 
L 139.296842 94.284435 
L 150.743947 102.378025 
L 162.191053 110.349113 
L 173.638158 117.468829 
L 185.085263 124.058548 
L 196.532368 130.724902 
L 207.979474 136.770526 
L 219.426579 142.261083 
L 230.873684 147.040226 
L 242.320789 151.898083 
L 253.767895 156.252033 
L 265.215 159.947549 
" clip-path="url(#p5adc9aca4b)" style="fill: none; stroke: #e377c2; stroke-width: 1.5; stroke-linecap: square"/>
   </g>
   <g id="line2d_16">
    <path d="M 47.72 34.187972 
L 59.167105 34.509106 
L 70.614211 34.6812 
L 82.061316 35.313176 
L 93.508421 36.343643 
L 104.955526 38.392809 
L 116.402632 40.932361 
L 127.849737 43.994359 
L 139.296842 48.156881 
L 150.743947 52.786993 
L 162.191053 58.594218 
L 173.638158 64.222372 
L 185.085263 70.274543 
L 196.532368 76.706112 
L 207.979474 82.913732 
L 219.426579 89.356238 
L 230.873684 95.319334 
L 242.320789 101.194373 
L 253.767895 107.233021 
L 265.215 112.176264 
" clip-path="url(#p5adc9aca4b)" style="fill: none; stroke: #7f7f7f; stroke-width: 1.5; stroke-linecap: square"/>
   </g>
   <g id="patch_3">
    <path d="M 47.72 174.04 
L 47.72 26.88 
" style="fill: none; stroke: #000000; stroke-width: 0.8; stroke-linejoin: miter; stroke-linecap: square"/>
   </g>
   <g id="patch_4">
    <path d="M 47.72 174.04 
L 265.215 174.04 
" style="fill: none; stroke: #000000; stroke-width: 0.8; stroke-linejoin: miter; stroke-linecap: square"/>
   </g>
   <g id="text_11">
    <!-- Node * surprisal -->
    <g transform="translate(108.18625 20.88)scale(0.12 -0.12)">
     <defs>
      <path id="DejaVuSans-4e" d="M 628 4666 
L 1478 4666 
L 3547 763 
L 3547 4666 
L 4159 4666 
L 4159 0 
L 3309 0 
L 1241 3903 
L 1241 0 
L 628 0 
L 628 4666 
z
" transform="scale(0.015625)"/>
      <path id="DejaVuSans-64" d="M 2906 2969 
L 2906 4863 
L 3481 4863 
L 3481 0 
L 2906 0 
L 2906 525 
Q 2725 213 2448 61 
Q 2172 -91 1784 -91 
Q 1150 -91 751 415 
Q 353 922 353 1747 
Q 353 2572 751 3078 
Q 1150 3584 1784 3584 
Q 2172 3584 2448 3432 
Q 2725 3281 2906 2969 
z
M 947 1747 
Q 947 1113 1208 752 
Q 1469 391 1925 391 
Q 2381 391 2643 752 
Q 2906 1113 2906 1747 
Q 2906 2381 2643 2742 
Q 2381 3103 1925 3103 
Q 1469 3103 1208 2742 
Q 947 2381 947 1747 
z
" transform="scale(0.015625)"/>
      <path id="DejaVuSans-2a" d="M 3009 3897 
L 1888 3291 
L 3009 2681 
L 2828 2375 
L 1778 3009 
L 1778 1831 
L 1422 1831 
L 1422 3009 
L 372 2375 
L 191 2681 
L 1313 3291 
L 191 3897 
L 372 4206 
L 1422 3572 
L 1422 4750 
L 1778 4750 
L 1778 3572 
L 2828 4206 
L 3009 3897 
z
" transform="scale(0.015625)"/>
     </defs>
     <use xlink:href="#DejaVuSans-4e"/>
     <use xlink:href="#DejaVuSans-6f" x="74.804688"/>
     <use xlink:href="#DejaVuSans-64" x="135.986328"/>
     <use xlink:href="#DejaVuSans-65" x="199.462891"/>
     <use xlink:href="#DejaVuSans-20" x="260.986328"/>
     <use xlink:href="#DejaVuSans-2a" x="292.773438"/>
     <use xlink:href="#DejaVuSans-20" x="342.773438"/>
     <use xlink:href="#DejaVuSans-73" x="374.560547"/>
     <use xlink:href="#DejaVuSans-75" x="426.660156"/>
     <use xlink:href="#DejaVuSans-72" x="490.039062"/>
     <use xlink:href="#DejaVuSans-70" x="531.152344"/>
     <use xlink:href="#DejaVuSans-72" x="594.628906"/>
     <use xlink:href="#DejaVuSans-69" x="635.742188"/>
     <use xlink:href="#DejaVuSans-73" x="663.525391"/>
     <use xlink:href="#DejaVuSans-61" x="715.625"/>
     <use xlink:href="#DejaVuSans-6c" x="776.904297"/>
    </g>
   </g>
  </g>
  <g id="axes_2">
   <g id="patch_5">
    <path d="M 298.065 174.04 
L 515.56 174.04 
L 515.56 26.88 
L 298.065 26.88 
z
" style="fill: #ffffff"/>
   </g>
   <g id="PolyCollection_9">
    <path d="M 298.065 33.569091 
L 298.065 34.678116 
L 309.512105 35.751654 
L 320.959211 38.895196 
L 332.406316 43.954428 
L 343.853421 49.834856 
L 355.300526 57.401098 
L 366.747632 65.482233 
L 378.194737 73.884015 
L 389.641842 82.681023 
L 401.088947 90.766793 
L 412.536053 99.089242 
L 423.983158 106.504105 
L 435.430263 114.255655 
L 446.877368 121.283312 
L 458.324474 128.244979 
L 469.771579 134.955652 
L 481.218684 140.43506 
L 492.665789 146.546416 
L 504.112895 152.365625 
L 515.56 157.444016 
L 515.56 139.455069 
L 515.56 139.455069 
L 504.112895 134.539969 
L 492.665789 129.757378 
L 481.218684 124.378613 
L 469.771579 118.95436 
L 458.324474 112.720663 
L 446.877368 106.762794 
L 435.430263 100.781862 
L 423.983158 93.547962 
L 412.536053 86.885175 
L 401.088947 79.554367 
L 389.641842 72.648852 
L 378.194737 65.194264 
L 366.747632 57.9781 
L 355.300526 51.3328 
L 343.853421 45.734984 
L 332.406316 40.958342 
L 320.959211 37.086437 
L 309.512105 34.741748 
L 298.065 33.569091 
z
" clip-path="url(#pc592541549)" style="fill: #1f77b4; fill-opacity: 0.4"/>
   </g>
   <g id="PolyCollection_10">
    <path d="M 298.065 33.593594 
L 298.065 34.689442 
L 309.512105 35.763515 
L 320.959211 38.906277 
L 332.406316 43.958039 
L 343.853421 49.841588 
L 355.300526 57.381797 
L 366.747632 65.474456 
L 378.194737 73.872096 
L 389.641842 82.663637 
L 401.088947 90.776611 
L 412.536053 99.142832 
L 423.983158 106.560186 
L 435.430263 114.361062 
L 446.877368 121.424123 
L 458.324474 128.405301 
L 469.771579 135.164081 
L 481.218684 140.658425 
L 492.665789 146.765537 
L 504.112895 152.594181 
L 515.56 157.680351 
L 515.56 139.801185 
L 515.56 139.801185 
L 504.112895 134.881205 
L 492.665789 129.99262 
L 481.218684 124.55397 
L 469.771579 119.113066 
L 458.324474 112.882213 
L 446.877368 106.926421 
L 435.430263 100.925496 
L 423.983158 93.672725 
L 412.536053 86.993342 
L 401.088947 79.671236 
L 389.641842 72.773579 
L 378.194737 65.299315 
L 366.747632 58.073157 
L 355.300526 51.409502 
L 343.853421 45.786878 
L 332.406316 41.006731 
L 320.959211 37.101636 
L 309.512105 34.749755 
L 298.065 33.593594 
z
" clip-path="url(#pc592541549)" style="fill: #ff7f0e; fill-opacity: 0.4"/>
   </g>
   <g id="PolyCollection_11">
    <path d="M 298.065 33.598514 
L 298.065 34.693703 
L 309.512105 35.765151 
L 320.959211 38.910105 
L 332.406316 43.926981 
L 343.853421 49.796938 
L 355.300526 57.35064 
L 366.747632 65.429881 
L 378.194737 73.85539 
L 389.641842 82.682373 
L 401.088947 90.777378 
L 412.536053 99.228931 
L 423.983158 106.68384 
L 435.430263 114.540085 
L 446.877368 121.595846 
L 458.324474 128.60651 
L 469.771579 135.386811 
L 481.218684 140.879539 
L 492.665789 146.99193 
L 504.112895 152.762441 
L 515.56 157.867962 
L 515.56 140.096651 
L 515.56 140.096651 
L 504.112895 135.171715 
L 492.665789 130.230303 
L 481.218684 124.833028 
L 469.771579 119.34418 
L 458.324474 113.142209 
L 446.877368 107.072242 
L 435.430263 101.089196 
L 423.983158 93.835827 
L 412.536053 87.130483 
L 401.088947 79.824133 
L 389.641842 72.876321 
L 378.194737 65.4093 
L 366.747632 58.15111 
L 355.300526 51.461589 
L 343.853421 45.840491 
L 332.406316 41.035902 
L 320.959211 37.115659 
L 309.512105 34.75719 
L 298.065 33.598514 
z
" clip-path="url(#pc592541549)" style="fill: #2ca02c; fill-opacity: 0.4"/>
   </g>
   <g id="PolyCollection_12">
    <path d="M 298.065 33.617548 
L 298.065 34.702102 
L 309.512105 35.774446 
L 320.959211 38.933668 
L 332.406316 43.952777 
L 343.853421 49.83073 
L 355.300526 57.403222 
L 366.747632 65.48241 
L 378.194737 73.899433 
L 389.641842 82.756599 
L 401.088947 90.849871 
L 412.536053 99.320218 
L 423.983158 106.77389 
L 435.430263 114.64793 
L 446.877368 121.733917 
L 458.324474 128.780487 
L 469.771579 135.585368 
L 481.218684 141.092189 
L 492.665789 147.23037 
L 504.112895 153.020185 
L 515.56 158.175171 
L 515.56 140.867033 
L 515.56 140.867033 
L 504.112895 135.887401 
L 492.665789 130.912603 
L 481.218684 125.447923 
L 469.771579 119.846957 
L 458.324474 113.558749 
L 446.877368 107.436266 
L 435.430263 101.379914 
L 423.983158 94.052509 
L 412.536053 87.29805 
L 401.088947 79.976467 
L 389.641842 72.999972 
L 378.194737 65.518371 
L 366.747632 58.209696 
L 355.300526 51.516888 
L 343.853421 45.884541 
L 332.406316 41.070778 
L 320.959211 37.131999 
L 309.512105 34.769453 
L 298.065 33.617548 
z
" clip-path="url(#pc592541549)" style="fill: #d62728; fill-opacity: 0.4"/>
   </g>
   <g id="PolyCollection_13">
    <path d="M 298.065 33.591655 
L 298.065 34.684972 
L 309.512105 35.770588 
L 320.959211 38.928715 
L 332.406316 43.985977 
L 343.853421 49.914349 
L 355.300526 57.428501 
L 366.747632 65.570587 
L 378.194737 74.087907 
L 389.641842 82.793939 
L 401.088947 90.975117 
L 412.536053 99.459205 
L 423.983158 106.693025 
L 435.430263 114.728479 
L 446.877368 121.396368 
L 458.324474 128.383834 
L 469.771579 134.880275 
L 481.218684 140.501787 
L 492.665789 147.172456 
L 504.112895 152.616642 
L 515.56 157.606926 
L 515.56 139.849963 
L 515.56 139.849963 
L 504.112895 134.832836 
L 492.665789 131.193452 
L 481.218684 124.494326 
L 469.771579 119.105791 
L 458.324474 113.217609 
L 446.877368 107.064416 
L 435.430263 100.951873 
L 423.983158 93.932813 
L 412.536053 86.760029 
L 401.088947 79.600922 
L 389.641842 72.748955 
L 378.194737 65.386694 
L 366.747632 58.033246 
L 355.300526 51.298194 
L 343.853421 45.799789 
L 332.406316 40.956762 
L 320.959211 37.11482 
L 309.512105 34.756301 
L 298.065 33.591655 
z
" clip-path="url(#pc592541549)" style="fill: #9467bd; fill-opacity: 0.4"/>
   </g>
   <g id="PolyCollection_14">
    <path d="M 298.065 33.616748 
L 298.065 34.696515 
L 309.512105 35.783242 
L 320.959211 38.941285 
L 332.406316 43.986762 
L 343.853421 49.923983 
L 355.300526 57.409153 
L 366.747632 65.558913 
L 378.194737 74.071073 
L 389.641842 82.777735 
L 401.088947 90.984927 
L 412.536053 99.493674 
L 423.983158 106.748857 
L 435.430263 114.790674 
L 446.877368 121.530119 
L 458.324474 128.544426 
L 469.771579 135.075535 
L 481.218684 140.712657 
L 492.665789 147.414597 
L 504.112895 152.85208 
L 515.56 157.83317 
L 515.56 140.223807 
L 515.56 140.223807 
L 504.112895 135.171929 
L 492.665789 131.456164 
L 481.218684 124.632032 
L 469.771579 119.280448 
L 458.324474 113.343634 
L 446.877368 107.231431 
L 435.430263 101.109546 
L 423.983158 94.048595 
L 412.536053 86.881183 
L 401.088947 79.683759 
L 389.641842 72.873992 
L 378.194737 65.498964 
L 366.747632 58.136566 
L 355.300526 51.377078 
L 343.853421 45.853444 
L 332.406316 41.005873 
L 320.959211 37.130837 
L 309.512105 34.764601 
L 298.065 33.616748 
z
" clip-path="url(#pc592541549)" style="fill: #8c564b; fill-opacity: 0.4"/>
   </g>
   <g id="PolyCollection_15">
    <path d="M 298.065 46.572166 
L 298.065 50.768557 
L 309.512105 51.934483 
L 320.959211 54.428621 
L 332.406316 59.011275 
L 343.853421 64.057678 
L 355.300526 70.811589 
L 366.747632 77.957501 
L 378.194737 85.588589 
L 389.641842 93.553272 
L 401.088947 100.744322 
L 412.536053 108.495629 
L 423.983158 115.104887 
L 435.430263 122.285999 
L 446.877368 129.046598 
L 458.324474 135.7188 
L 469.771579 141.930711 
L 481.218684 147.316852 
L 492.665789 153.196887 
L 504.112895 158.639371 
L 515.56 163.528685 
L 515.56 146.40185 
L 515.56 146.40185 
L 504.112895 141.859851 
L 492.665789 137.694863 
L 481.218684 132.581721 
L 469.771579 127.925446 
L 458.324474 121.918744 
L 446.877368 116.504704 
L 435.430263 110.977748 
L 423.983158 103.908039 
L 412.536053 97.470243 
L 401.088947 90.457431 
L 389.641842 84.057687 
L 378.194737 76.645058 
L 366.747632 69.770476 
L 355.300526 63.592108 
L 343.853421 58.154625 
L 332.406316 53.501101 
L 320.959211 49.898998 
L 309.512105 47.394657 
L 298.065 46.572166 
z
" clip-path="url(#pc592541549)" style="fill: #e377c2; fill-opacity: 0.4"/>
   </g>
   <g id="PolyCollection_16">
    <path d="M 298.065 33.608755 
L 298.065 34.704243 
L 309.512105 35.781585 
L 320.959211 38.931637 
L 332.406316 43.985778 
L 343.853421 49.881034 
L 355.300526 57.469634 
L 366.747632 65.582892 
L 378.194737 73.982841 
L 389.641842 82.800132 
L 401.088947 90.925819 
L 412.536053 99.327249 
L 423.983158 106.757019 
L 435.430263 114.625433 
L 446.877368 121.6815 
L 458.324474 128.684822 
L 469.771579 135.485454 
L 481.218684 141.041166 
L 492.665789 147.16997 
L 504.112895 153.023691 
L 515.56 158.045412 
L 515.56 140.125957 
L 515.56 140.125957 
L 504.112895 135.205965 
L 492.665789 130.361191 
L 481.218684 124.832974 
L 469.771579 119.422659 
L 458.324474 113.171239 
L 446.877368 107.176286 
L 435.430263 101.129129 
L 423.983158 93.867512 
L 412.536053 87.105352 
L 401.088947 79.790534 
L 389.641842 72.873634 
L 378.194737 65.379556 
L 366.747632 58.110191 
L 355.300526 51.450811 
L 343.853421 45.802118 
L 332.406316 41.018849 
L 320.959211 37.123524 
L 309.512105 34.761537 
L 298.065 33.608755 
z
" clip-path="url(#pc592541549)" style="fill: #7f7f7f; fill-opacity: 0.4"/>
   </g>
   <g id="matplotlib.axis_3">
    <g id="xtick_6">
     <g id="line2d_17">
      <g>
       <use xlink:href="#m4ff6067cdb" x="298.065" y="174.04" style="stroke: #000000; stroke-width: 0.8"/>
      </g>
     </g>
     <g id="text_12">
      <!-- 0.0 -->
      <g transform="translate(290.113437 188.638438)scale(0.1 -0.1)">
       <use xlink:href="#DejaVuSans-30"/>
       <use xlink:href="#DejaVuSans-2e" x="63.623047"/>
       <use xlink:href="#DejaVuSans-30" x="95.410156"/>
      </g>
     </g>
    </g>
    <g id="xtick_7">
     <g id="line2d_18">
      <g>
       <use xlink:href="#m4ff6067cdb" x="352.43875" y="174.04" style="stroke: #000000; stroke-width: 0.8"/>
      </g>
     </g>
     <g id="text_13">
      <!-- 0.5 -->
      <g transform="translate(344.487187 188.638438)scale(0.1 -0.1)">
       <use xlink:href="#DejaVuSans-30"/>
       <use xlink:href="#DejaVuSans-2e" x="63.623047"/>
       <use xlink:href="#DejaVuSans-35" x="95.410156"/>
      </g>
     </g>
    </g>
    <g id="xtick_8">
     <g id="line2d_19">
      <g>
       <use xlink:href="#m4ff6067cdb" x="406.8125" y="174.04" style="stroke: #000000; stroke-width: 0.8"/>
      </g>
     </g>
     <g id="text_14">
      <!-- 1.0 -->
      <g transform="translate(398.860937 188.638438)scale(0.1 -0.1)">
       <use xlink:href="#DejaVuSans-31"/>
       <use xlink:href="#DejaVuSans-2e" x="63.623047"/>
       <use xlink:href="#DejaVuSans-30" x="95.410156"/>
      </g>
     </g>
    </g>
    <g id="xtick_9">
     <g id="line2d_20">
      <g>
       <use xlink:href="#m4ff6067cdb" x="461.18625" y="174.04" style="stroke: #000000; stroke-width: 0.8"/>
      </g>
     </g>
     <g id="text_15">
      <!-- 1.5 -->
      <g transform="translate(453.234687 188.638438)scale(0.1 -0.1)">
       <use xlink:href="#DejaVuSans-31"/>
       <use xlink:href="#DejaVuSans-2e" x="63.623047"/>
       <use xlink:href="#DejaVuSans-35" x="95.410156"/>
      </g>
     </g>
    </g>
    <g id="xtick_10">
     <g id="line2d_21">
      <g>
       <use xlink:href="#m4ff6067cdb" x="515.56" y="174.04" style="stroke: #000000; stroke-width: 0.8"/>
      </g>
     </g>
     <g id="text_16">
      <!-- 2.0 -->
      <g transform="translate(507.608437 188.638438)scale(0.1 -0.1)">
       <use xlink:href="#DejaVuSans-32"/>
       <use xlink:href="#DejaVuSans-2e" x="63.623047"/>
       <use xlink:href="#DejaVuSans-30" x="95.410156"/>
      </g>
     </g>
    </g>
    <g id="text_17">
     <!-- Influence of surprisal (multiplication) -->
     <g transform="translate(314.665625 202.316563)scale(0.1 -0.1)">
      <use xlink:href="#DejaVuSans-49"/>
      <use xlink:href="#DejaVuSans-6e" x="29.492188"/>
      <use xlink:href="#DejaVuSans-66" x="92.871094"/>
      <use xlink:href="#DejaVuSans-6c" x="128.076172"/>
      <use xlink:href="#DejaVuSans-75" x="155.859375"/>
      <use xlink:href="#DejaVuSans-65" x="219.238281"/>
      <use xlink:href="#DejaVuSans-6e" x="280.761719"/>
      <use xlink:href="#DejaVuSans-63" x="344.140625"/>
      <use xlink:href="#DejaVuSans-65" x="399.121094"/>
      <use xlink:href="#DejaVuSans-20" x="460.644531"/>
      <use xlink:href="#DejaVuSans-6f" x="492.431641"/>
      <use xlink:href="#DejaVuSans-66" x="553.613281"/>
      <use xlink:href="#DejaVuSans-20" x="588.818359"/>
      <use xlink:href="#DejaVuSans-73" x="620.605469"/>
      <use xlink:href="#DejaVuSans-75" x="672.705078"/>
      <use xlink:href="#DejaVuSans-72" x="736.083984"/>
      <use xlink:href="#DejaVuSans-70" x="777.197266"/>
      <use xlink:href="#DejaVuSans-72" x="840.673828"/>
      <use xlink:href="#DejaVuSans-69" x="881.787109"/>
      <use xlink:href="#DejaVuSans-73" x="909.570312"/>
      <use xlink:href="#DejaVuSans-61" x="961.669922"/>
      <use xlink:href="#DejaVuSans-6c" x="1022.949219"/>
      <use xlink:href="#DejaVuSans-20" x="1050.732422"/>
      <use xlink:href="#DejaVuSans-28" x="1082.519531"/>
      <use xlink:href="#DejaVuSans-6d" x="1121.533203"/>
      <use xlink:href="#DejaVuSans-75" x="1218.945312"/>
      <use xlink:href="#DejaVuSans-6c" x="1282.324219"/>
      <use xlink:href="#DejaVuSans-74" x="1310.107422"/>
      <use xlink:href="#DejaVuSans-69" x="1349.316406"/>
      <use xlink:href="#DejaVuSans-70" x="1377.099609"/>
      <use xlink:href="#DejaVuSans-6c" x="1440.576172"/>
      <use xlink:href="#DejaVuSans-69" x="1468.359375"/>
      <use xlink:href="#DejaVuSans-63" x="1496.142578"/>
      <use xlink:href="#DejaVuSans-61" x="1551.123047"/>
      <use xlink:href="#DejaVuSans-74" x="1612.402344"/>
      <use xlink:href="#DejaVuSans-69" x="1651.611328"/>
      <use xlink:href="#DejaVuSans-6f" x="1679.394531"/>
      <use xlink:href="#DejaVuSans-6e" x="1740.576172"/>
      <use xlink:href="#DejaVuSans-29" x="1803.955078"/>
     </g>
    </g>
   </g>
   <g id="line2d_22">
    <path d="M 298.065 34.123603 
L 309.512105 35.246701 
L 320.959211 37.990817 
L 332.406316 42.456385 
L 343.853421 47.78492 
L 355.300526 54.366949 
L 366.747632 61.730167 
L 378.194737 69.53914 
L 389.641842 77.664938 
L 401.088947 85.16058 
L 412.536053 92.987209 
L 423.983158 100.026033 
L 435.430263 107.518759 
L 446.877368 114.023053 
L 458.324474 120.482821 
L 469.771579 126.955006 
L 481.218684 132.406837 
L 492.665789 138.151897 
L 504.112895 143.452797 
L 515.56 148.449542 
" clip-path="url(#pc592541549)" style="fill: none; stroke: #1f77b4; stroke-width: 1.5; stroke-linecap: square"/>
   </g>
   <g id="line2d_23">
    <path d="M 298.065 34.141518 
L 309.512105 35.256635 
L 320.959211 38.003957 
L 332.406316 42.482385 
L 343.853421 47.814233 
L 355.300526 54.39565 
L 366.747632 61.773806 
L 378.194737 69.585706 
L 389.641842 77.718608 
L 401.088947 85.223923 
L 412.536053 93.068087 
L 423.983158 100.116456 
L 435.430263 107.643279 
L 446.877368 114.175272 
L 458.324474 120.643757 
L 469.771579 127.138573 
L 481.218684 132.606197 
L 492.665789 138.379079 
L 504.112895 143.737693 
L 515.56 148.740768 
" clip-path="url(#pc592541549)" style="fill: none; stroke: #ff7f0e; stroke-width: 1.5; stroke-linecap: square"/>
   </g>
   <g id="line2d_24">
    <path d="M 298.065 34.146108 
L 309.512105 35.261171 
L 320.959211 38.012882 
L 332.406316 42.481441 
L 343.853421 47.818714 
L 355.300526 54.406114 
L 366.747632 61.790495 
L 378.194737 69.632345 
L 389.641842 77.779347 
L 401.088947 85.300756 
L 412.536053 93.179707 
L 423.983158 100.259833 
L 435.430263 107.814641 
L 446.877368 114.334044 
L 458.324474 120.874359 
L 469.771579 127.365496 
L 481.218684 132.856284 
L 492.665789 138.611117 
L 504.112895 143.967078 
L 515.56 148.982307 
" clip-path="url(#pc592541549)" style="fill: none; stroke: #2ca02c; stroke-width: 1.5; stroke-linecap: square"/>
   </g>
   <g id="line2d_25">
    <path d="M 298.065 34.159825 
L 309.512105 35.27195 
L 320.959211 38.032833 
L 332.406316 42.511778 
L 343.853421 47.857635 
L 355.300526 54.460055 
L 366.747632 61.846053 
L 378.194737 69.708902 
L 389.641842 77.878285 
L 401.088947 85.413169 
L 412.536053 93.309134 
L 423.983158 100.4132 
L 435.430263 108.013922 
L 446.877368 114.585092 
L 458.324474 121.169618 
L 469.771579 127.716163 
L 481.218684 133.270056 
L 492.665789 139.071486 
L 504.112895 144.453793 
L 515.56 149.521102 
" clip-path="url(#pc592541549)" style="fill: none; stroke: #d62728; stroke-width: 1.5; stroke-linecap: square"/>
   </g>
   <g id="line2d_26">
    <path d="M 298.065 34.138314 
L 309.512105 35.263444 
L 320.959211 38.021768 
L 332.406316 42.471369 
L 343.853421 47.857069 
L 355.300526 54.363348 
L 366.747632 61.801916 
L 378.194737 69.737301 
L 389.641842 77.771447 
L 401.088947 85.28802 
L 412.536053 93.109617 
L 423.983158 100.312919 
L 435.430263 107.840176 
L 446.877368 114.230392 
L 458.324474 120.800721 
L 469.771579 126.993033 
L 481.218684 132.498056 
L 492.665789 139.182954 
L 504.112895 143.724739 
L 515.56 148.728445 
" clip-path="url(#pc592541549)" style="fill: none; stroke: #9467bd; stroke-width: 1.5; stroke-linecap: square"/>
   </g>
   <g id="line2d_27">
    <path d="M 298.065 34.156632 
L 309.512105 35.273921 
L 320.959211 38.036061 
L 332.406316 42.496318 
L 343.853421 47.888713 
L 355.300526 54.393115 
L 366.747632 61.84774 
L 378.194737 69.785019 
L 389.641842 77.825864 
L 401.088947 85.334343 
L 412.536053 93.187428 
L 423.983158 100.398726 
L 435.430263 107.95011 
L 446.877368 114.380775 
L 458.324474 120.94403 
L 469.771579 127.177992 
L 481.218684 132.672345 
L 492.665789 139.43538 
L 504.112895 144.012005 
L 515.56 149.028488 
" clip-path="url(#pc592541549)" style="fill: none; stroke: #8c564b; stroke-width: 1.5; stroke-linecap: square"/>
   </g>
   <g id="line2d_28">
    <path d="M 298.065 48.670361 
L 309.512105 49.66457 
L 320.959211 52.163809 
L 332.406316 56.256188 
L 343.853421 61.106151 
L 355.300526 67.201849 
L 366.747632 73.863988 
L 378.194737 81.116824 
L 389.641842 88.805479 
L 401.088947 95.600876 
L 412.536053 102.982936 
L 423.983158 109.506463 
L 435.430263 116.631873 
L 446.877368 122.775651 
L 458.324474 128.818772 
L 469.771579 134.928079 
L 481.218684 139.949287 
L 492.665789 145.445875 
L 504.112895 150.249611 
L 515.56 154.965268 
" clip-path="url(#pc592541549)" style="fill: none; stroke: #e377c2; stroke-width: 1.5; stroke-linecap: square"/>
   </g>
   <g id="line2d_29">
    <path d="M 298.065 34.156499 
L 309.512105 35.271561 
L 320.959211 38.02758 
L 332.406316 42.502313 
L 343.853421 47.841576 
L 355.300526 54.460222 
L 366.747632 61.846542 
L 378.194737 69.681198 
L 389.641842 77.836883 
L 401.088947 85.358176 
L 412.536053 93.216301 
L 423.983158 100.312266 
L 435.430263 107.877281 
L 446.877368 114.428893 
L 458.324474 120.928031 
L 469.771579 127.454057 
L 481.218684 132.93707 
L 492.665789 138.765581 
L 504.112895 144.114828 
L 515.56 149.085684 
" clip-path="url(#pc592541549)" style="fill: none; stroke: #7f7f7f; stroke-width: 1.5; stroke-linecap: square"/>
   </g>
   <g id="patch_6">
    <path d="M 298.065 174.04 
L 298.065 26.88 
" style="fill: none; stroke: #000000; stroke-width: 0.8; stroke-linejoin: miter; stroke-linecap: square"/>
   </g>
   <g id="patch_7">
    <path d="M 298.065 174.04 
L 515.56 174.04 
" style="fill: none; stroke: #000000; stroke-width: 0.8; stroke-linejoin: miter; stroke-linecap: square"/>
   </g>
   <g id="text_18">
    <!-- Node * third variable -->
    <g transform="translate(344.2325 20.88)scale(0.12 -0.12)">
     <defs>
      <path id="DejaVuSans-68" d="M 3513 2113 
L 3513 0 
L 2938 0 
L 2938 2094 
Q 2938 2591 2744 2837 
Q 2550 3084 2163 3084 
Q 1697 3084 1428 2787 
Q 1159 2491 1159 1978 
L 1159 0 
L 581 0 
L 581 4863 
L 1159 4863 
L 1159 2956 
Q 1366 3272 1645 3428 
Q 1925 3584 2291 3584 
Q 2894 3584 3203 3211 
Q 3513 2838 3513 2113 
z
" transform="scale(0.015625)"/>
      <path id="DejaVuSans-62" d="M 3116 1747 
Q 3116 2381 2855 2742 
Q 2594 3103 2138 3103 
Q 1681 3103 1420 2742 
Q 1159 2381 1159 1747 
Q 1159 1113 1420 752 
Q 1681 391 2138 391 
Q 2594 391 2855 752 
Q 3116 1113 3116 1747 
z
M 1159 2969 
Q 1341 3281 1617 3432 
Q 1894 3584 2278 3584 
Q 2916 3584 3314 3078 
Q 3713 2572 3713 1747 
Q 3713 922 3314 415 
Q 2916 -91 2278 -91 
Q 1894 -91 1617 61 
Q 1341 213 1159 525 
L 1159 0 
L 581 0 
L 581 4863 
L 1159 4863 
L 1159 2969 
z
" transform="scale(0.015625)"/>
     </defs>
     <use xlink:href="#DejaVuSans-4e"/>
     <use xlink:href="#DejaVuSans-6f" x="74.804688"/>
     <use xlink:href="#DejaVuSans-64" x="135.986328"/>
     <use xlink:href="#DejaVuSans-65" x="199.462891"/>
     <use xlink:href="#DejaVuSans-20" x="260.986328"/>
     <use xlink:href="#DejaVuSans-2a" x="292.773438"/>
     <use xlink:href="#DejaVuSans-20" x="342.773438"/>
     <use xlink:href="#DejaVuSans-74" x="374.560547"/>
     <use xlink:href="#DejaVuSans-68" x="413.769531"/>
     <use xlink:href="#DejaVuSans-69" x="477.148438"/>
     <use xlink:href="#DejaVuSans-72" x="504.931641"/>
     <use xlink:href="#DejaVuSans-64" x="544.294922"/>
     <use xlink:href="#DejaVuSans-20" x="607.771484"/>
     <use xlink:href="#DejaVuSans-76" x="639.558594"/>
     <use xlink:href="#DejaVuSans-61" x="698.738281"/>
     <use xlink:href="#DejaVuSans-72" x="760.017578"/>
     <use xlink:href="#DejaVuSans-69" x="801.130859"/>
     <use xlink:href="#DejaVuSans-61" x="828.914062"/>
     <use xlink:href="#DejaVuSans-62" x="890.193359"/>
     <use xlink:href="#DejaVuSans-6c" x="953.669922"/>
     <use xlink:href="#DejaVuSans-65" x="981.453125"/>
    </g>
   </g>
   <g id="legend_1">
    <g id="line2d_30">
     <path d="M 524.56 39.978437 
L 534.56 39.978437 
L 544.56 39.978437 
" style="fill: none; stroke: #1f77b4; stroke-width: 1.5; stroke-linecap: square"/>
    </g>
    <g id="text_19">
     <!-- Node -->
     <g transform="translate(552.56 43.478437)scale(0.1 -0.1)">
      <use xlink:href="#DejaVuSans-4e"/>
      <use xlink:href="#DejaVuSans-6f" x="74.804688"/>
      <use xlink:href="#DejaVuSans-64" x="135.986328"/>
      <use xlink:href="#DejaVuSans-65" x="199.462891"/>
     </g>
    </g>
    <g id="line2d_31">
     <path d="M 524.56 54.656563 
L 534.56 54.656563 
L 544.56 54.656563 
" style="fill: none; stroke: #ff7f0e; stroke-width: 1.5; stroke-linecap: square"/>
    </g>
    <g id="text_20">
     <!-- Node + surprisal -->
     <g transform="translate(552.56 58.156563)scale(0.1 -0.1)">
      <defs>
       <path id="DejaVuSans-2b" d="M 2944 4013 
L 2944 2272 
L 4684 2272 
L 4684 1741 
L 2944 1741 
L 2944 0 
L 2419 0 
L 2419 1741 
L 678 1741 
L 678 2272 
L 2419 2272 
L 2419 4013 
L 2944 4013 
z
" transform="scale(0.015625)"/>
      </defs>
      <use xlink:href="#DejaVuSans-4e"/>
      <use xlink:href="#DejaVuSans-6f" x="74.804688"/>
      <use xlink:href="#DejaVuSans-64" x="135.986328"/>
      <use xlink:href="#DejaVuSans-65" x="199.462891"/>
      <use xlink:href="#DejaVuSans-20" x="260.986328"/>
      <use xlink:href="#DejaVuSans-2b" x="292.773438"/>
      <use xlink:href="#DejaVuSans-20" x="376.5625"/>
      <use xlink:href="#DejaVuSans-73" x="408.349609"/>
      <use xlink:href="#DejaVuSans-75" x="460.449219"/>
      <use xlink:href="#DejaVuSans-72" x="523.828125"/>
      <use xlink:href="#DejaVuSans-70" x="564.941406"/>
      <use xlink:href="#DejaVuSans-72" x="628.417969"/>
      <use xlink:href="#DejaVuSans-69" x="669.53125"/>
      <use xlink:href="#DejaVuSans-73" x="697.314453"/>
      <use xlink:href="#DejaVuSans-61" x="749.414062"/>
      <use xlink:href="#DejaVuSans-6c" x="810.693359"/>
     </g>
    </g>
    <g id="line2d_32">
     <path d="M 524.56 69.334687 
L 534.56 69.334687 
L 544.56 69.334687 
" style="fill: none; stroke: #2ca02c; stroke-width: 1.5; stroke-linecap: square"/>
    </g>
    <g id="text_21">
     <!-- Node split -->
     <g transform="translate(552.56 72.834687)scale(0.1 -0.1)">
      <use xlink:href="#DejaVuSans-4e"/>
      <use xlink:href="#DejaVuSans-6f" x="74.804688"/>
      <use xlink:href="#DejaVuSans-64" x="135.986328"/>
      <use xlink:href="#DejaVuSans-65" x="199.462891"/>
      <use xlink:href="#DejaVuSans-20" x="260.986328"/>
      <use xlink:href="#DejaVuSans-73" x="292.773438"/>
      <use xlink:href="#DejaVuSans-70" x="344.873047"/>
      <use xlink:href="#DejaVuSans-6c" x="408.349609"/>
      <use xlink:href="#DejaVuSans-69" x="436.132812"/>
      <use xlink:href="#DejaVuSans-74" x="463.916016"/>
     </g>
    </g>
    <g id="line2d_33">
     <path d="M 524.56 84.012812 
L 534.56 84.012812 
L 544.56 84.012812 
" style="fill: none; stroke: #d62728; stroke-width: 1.5; stroke-linecap: square"/>
    </g>
    <g id="text_22">
     <!-- Node split + surprisal -->
     <g transform="translate(552.56 87.512812)scale(0.1 -0.1)">
      <use xlink:href="#DejaVuSans-4e"/>
      <use xlink:href="#DejaVuSans-6f" x="74.804688"/>
      <use xlink:href="#DejaVuSans-64" x="135.986328"/>
      <use xlink:href="#DejaVuSans-65" x="199.462891"/>
      <use xlink:href="#DejaVuSans-20" x="260.986328"/>
      <use xlink:href="#DejaVuSans-73" x="292.773438"/>
      <use xlink:href="#DejaVuSans-70" x="344.873047"/>
      <use xlink:href="#DejaVuSans-6c" x="408.349609"/>
      <use xlink:href="#DejaVuSans-69" x="436.132812"/>
      <use xlink:href="#DejaVuSans-74" x="463.916016"/>
      <use xlink:href="#DejaVuSans-20" x="503.125"/>
      <use xlink:href="#DejaVuSans-2b" x="534.912109"/>
      <use xlink:href="#DejaVuSans-20" x="618.701172"/>
      <use xlink:href="#DejaVuSans-73" x="650.488281"/>
      <use xlink:href="#DejaVuSans-75" x="702.587891"/>
      <use xlink:href="#DejaVuSans-72" x="765.966797"/>
      <use xlink:href="#DejaVuSans-70" x="807.080078"/>
      <use xlink:href="#DejaVuSans-72" x="870.556641"/>
      <use xlink:href="#DejaVuSans-69" x="911.669922"/>
      <use xlink:href="#DejaVuSans-73" x="939.453125"/>
      <use xlink:href="#DejaVuSans-61" x="991.552734"/>
      <use xlink:href="#DejaVuSans-6c" x="1052.832031"/>
     </g>
    </g>
    <g id="line2d_34">
     <path d="M 524.56 98.690937 
L 534.56 98.690937 
L 544.56 98.690937 
" style="fill: none; stroke: #9467bd; stroke-width: 1.5; stroke-linecap: square"/>
    </g>
    <g id="text_23">
     <!-- Node random split -->
     <g transform="translate(552.56 102.190937)scale(0.1 -0.1)">
      <use xlink:href="#DejaVuSans-4e"/>
      <use xlink:href="#DejaVuSans-6f" x="74.804688"/>
      <use xlink:href="#DejaVuSans-64" x="135.986328"/>
      <use xlink:href="#DejaVuSans-65" x="199.462891"/>
      <use xlink:href="#DejaVuSans-20" x="260.986328"/>
      <use xlink:href="#DejaVuSans-72" x="292.773438"/>
      <use xlink:href="#DejaVuSans-61" x="333.886719"/>
      <use xlink:href="#DejaVuSans-6e" x="395.166016"/>
      <use xlink:href="#DejaVuSans-64" x="458.544922"/>
      <use xlink:href="#DejaVuSans-6f" x="522.021484"/>
      <use xlink:href="#DejaVuSans-6d" x="583.203125"/>
      <use xlink:href="#DejaVuSans-20" x="680.615234"/>
      <use xlink:href="#DejaVuSans-73" x="712.402344"/>
      <use xlink:href="#DejaVuSans-70" x="764.501953"/>
      <use xlink:href="#DejaVuSans-6c" x="827.978516"/>
      <use xlink:href="#DejaVuSans-69" x="855.761719"/>
      <use xlink:href="#DejaVuSans-74" x="883.544922"/>
     </g>
    </g>
    <g id="line2d_35">
     <path d="M 524.56 113.369062 
L 534.56 113.369062 
L 544.56 113.369062 
" style="fill: none; stroke: #8c564b; stroke-width: 1.5; stroke-linecap: square"/>
    </g>
    <g id="text_24">
     <!-- Node random split + surprisal -->
     <g transform="translate(552.56 116.869062)scale(0.1 -0.1)">
      <use xlink:href="#DejaVuSans-4e"/>
      <use xlink:href="#DejaVuSans-6f" x="74.804688"/>
      <use xlink:href="#DejaVuSans-64" x="135.986328"/>
      <use xlink:href="#DejaVuSans-65" x="199.462891"/>
      <use xlink:href="#DejaVuSans-20" x="260.986328"/>
      <use xlink:href="#DejaVuSans-72" x="292.773438"/>
      <use xlink:href="#DejaVuSans-61" x="333.886719"/>
      <use xlink:href="#DejaVuSans-6e" x="395.166016"/>
      <use xlink:href="#DejaVuSans-64" x="458.544922"/>
      <use xlink:href="#DejaVuSans-6f" x="522.021484"/>
      <use xlink:href="#DejaVuSans-6d" x="583.203125"/>
      <use xlink:href="#DejaVuSans-20" x="680.615234"/>
      <use xlink:href="#DejaVuSans-73" x="712.402344"/>
      <use xlink:href="#DejaVuSans-70" x="764.501953"/>
      <use xlink:href="#DejaVuSans-6c" x="827.978516"/>
      <use xlink:href="#DejaVuSans-69" x="855.761719"/>
      <use xlink:href="#DejaVuSans-74" x="883.544922"/>
      <use xlink:href="#DejaVuSans-20" x="922.753906"/>
      <use xlink:href="#DejaVuSans-2b" x="954.541016"/>
      <use xlink:href="#DejaVuSans-20" x="1038.330078"/>
      <use xlink:href="#DejaVuSans-73" x="1070.117188"/>
      <use xlink:href="#DejaVuSans-75" x="1122.216797"/>
      <use xlink:href="#DejaVuSans-72" x="1185.595703"/>
      <use xlink:href="#DejaVuSans-70" x="1226.708984"/>
      <use xlink:href="#DejaVuSans-72" x="1290.185547"/>
      <use xlink:href="#DejaVuSans-69" x="1331.298828"/>
      <use xlink:href="#DejaVuSans-73" x="1359.082031"/>
      <use xlink:href="#DejaVuSans-61" x="1411.181641"/>
      <use xlink:href="#DejaVuSans-6c" x="1472.460938"/>
     </g>
    </g>
    <g id="line2d_36">
     <path d="M 524.56 128.047187 
L 534.56 128.047187 
L 544.56 128.047187 
" style="fill: none; stroke: #e377c2; stroke-width: 1.5; stroke-linecap: square"/>
    </g>
    <g id="text_25">
     <!-- Interaction -->
     <g transform="translate(552.56 131.547187)scale(0.1 -0.1)">
      <use xlink:href="#DejaVuSans-49"/>
      <use xlink:href="#DejaVuSans-6e" x="29.492188"/>
      <use xlink:href="#DejaVuSans-74" x="92.871094"/>
      <use xlink:href="#DejaVuSans-65" x="132.080078"/>
      <use xlink:href="#DejaVuSans-72" x="193.603516"/>
      <use xlink:href="#DejaVuSans-61" x="234.716797"/>
      <use xlink:href="#DejaVuSans-63" x="295.996094"/>
      <use xlink:href="#DejaVuSans-74" x="350.976562"/>
      <use xlink:href="#DejaVuSans-69" x="390.185547"/>
      <use xlink:href="#DejaVuSans-6f" x="417.96875"/>
      <use xlink:href="#DejaVuSans-6e" x="479.150391"/>
     </g>
    </g>
    <g id="line2d_37">
     <path d="M 524.56 142.725312 
L 534.56 142.725312 
L 544.56 142.725312 
" style="fill: none; stroke: #7f7f7f; stroke-width: 1.5; stroke-linecap: square"/>
    </g>
    <g id="text_26">
     <!-- Node + surprisal + interaction -->
     <g transform="translate(552.56 146.225312)scale(0.1 -0.1)">
      <use xlink:href="#DejaVuSans-4e"/>
      <use xlink:href="#DejaVuSans-6f" x="74.804688"/>
      <use xlink:href="#DejaVuSans-64" x="135.986328"/>
      <use xlink:href="#DejaVuSans-65" x="199.462891"/>
      <use xlink:href="#DejaVuSans-20" x="260.986328"/>
      <use xlink:href="#DejaVuSans-2b" x="292.773438"/>
      <use xlink:href="#DejaVuSans-20" x="376.5625"/>
      <use xlink:href="#DejaVuSans-73" x="408.349609"/>
      <use xlink:href="#DejaVuSans-75" x="460.449219"/>
      <use xlink:href="#DejaVuSans-72" x="523.828125"/>
      <use xlink:href="#DejaVuSans-70" x="564.941406"/>
      <use xlink:href="#DejaVuSans-72" x="628.417969"/>
      <use xlink:href="#DejaVuSans-69" x="669.53125"/>
      <use xlink:href="#DejaVuSans-73" x="697.314453"/>
      <use xlink:href="#DejaVuSans-61" x="749.414062"/>
      <use xlink:href="#DejaVuSans-6c" x="810.693359"/>
      <use xlink:href="#DejaVuSans-20" x="838.476562"/>
      <use xlink:href="#DejaVuSans-2b" x="870.263672"/>
      <use xlink:href="#DejaVuSans-20" x="954.052734"/>
      <use xlink:href="#DejaVuSans-69" x="985.839844"/>
      <use xlink:href="#DejaVuSans-6e" x="1013.623047"/>
      <use xlink:href="#DejaVuSans-74" x="1077.001953"/>
      <use xlink:href="#DejaVuSans-65" x="1116.210938"/>
      <use xlink:href="#DejaVuSans-72" x="1177.734375"/>
      <use xlink:href="#DejaVuSans-61" x="1218.847656"/>
      <use xlink:href="#DejaVuSans-63" x="1280.126953"/>
      <use xlink:href="#DejaVuSans-74" x="1335.107422"/>
      <use xlink:href="#DejaVuSans-69" x="1374.316406"/>
      <use xlink:href="#DejaVuSans-6f" x="1402.099609"/>
      <use xlink:href="#DejaVuSans-6e" x="1463.28125"/>
     </g>
    </g>
   </g>
  </g>
 </g>
 <defs>
  <clipPath id="p5adc9aca4b">
   <rect x="47.72" y="26.88" width="217.495" height="147.16"/>
  </clipPath>
  <clipPath id="pc592541549">
   <rect x="298.065" y="26.88" width="217.495" height="147.16"/>
  </clipPath>
 </defs>
</svg>
