<?xml version="1.0" encoding="utf-8" standalone="no"?>
<!DOCTYPE svg PUBLIC "-//W3C//DTD SVG 1.1//EN"
  "http://www.w3.org/Graphics/SVG/1.1/DTD/svg11.dtd">
<svg xmlns:xlink="http://www.w3.org/1999/xlink" width="720pt" height="216pt" viewBox="0 0 720 216" xmlns="http://www.w3.org/2000/svg" version="1.1">
 <metadata>
  <rdf:RDF xmlns:dc="http://purl.org/dc/elements/1.1/" xmlns:cc="http://creativecommons.org/ns#" xmlns:rdf="http://www.w3.org/1999/02/22-rdf-syntax-ns#">
   <cc:Work>
    <dc:type rdf:resource="http://purl.org/dc/dcmitype/StillImage"/>
    <dc:date>2024-01-15T23:52:15.641285</dc:date>
    <dc:format>image/svg+xml</dc:format>
    <dc:creator>
     <cc:Agent>
      <dc:title>Matplotlib v3.5.1, https://matplotlib.org/</dc:title>
     </cc:Agent>
    </dc:creator>
   </cc:Work>
  </rdf:RDF>
 </metadata>
 <defs>
  <style type="text/css">*{stroke-linejoin: round; stroke-linecap: butt}</style>
 </defs>
 <g id="figure_1">
  <g id="patch_1">
   <path d="M 0 216 
L 720 216 
L 720 0 
L 0 0 
z
" style="fill: #ffffff"/>
  </g>
  <g id="axes_1">
   <g id="patch_2">
    <path d="M 47.72 174.04 
L 265.215 174.04 
L 265.215 26.88 
L 47.72 26.88 
z
" style="fill: #ffffff"/>
   </g>
   <g id="PolyCollection_1">
    <path d="M 47.72 33.569091 
L 47.72 34.501171 
L 59.167105 35.471483 
L 70.614211 38.172276 
L 82.061316 42.233325 
L 93.508421 48.129153 
L 104.955526 54.311126 
L 116.402632 61.15896 
L 127.849737 68.959387 
L 139.296842 75.910217 
L 150.743947 83.831213 
L 162.191053 91.560541 
L 173.638158 98.640181 
L 185.085263 106.282897 
L 196.532368 113.06231 
L 207.979474 120.304893 
L 219.426579 126.314052 
L 230.873684 132.855465 
L 242.320789 138.518737 
L 253.767895 144.409188 
L 265.215 149.326052 
L 265.215 136.435968 
L 265.215 136.435968 
L 253.767895 131.428834 
L 242.320789 125.711765 
L 230.873684 119.922663 
L 219.426579 115.018962 
L 207.979474 107.890051 
L 196.532368 102.023348 
L 185.085263 94.851005 
L 173.638158 88.878089 
L 162.191053 81.991057 
L 150.743947 75.042058 
L 139.296842 68.162017 
L 127.849737 61.334773 
L 116.402632 55.528851 
L 104.955526 49.388735 
L 93.508421 44.351388 
L 82.061316 40.165534 
L 70.614211 36.869116 
L 59.167105 34.728699 
L 47.72 33.569091 
z
" clip-path="url(#p524d0c26e2)" style="fill: #1f77b4; fill-opacity: 0.4"/>
   </g>
   <g id="PolyCollection_2">
    <path d="M 47.72 33.593797 
L 47.72 34.520084 
L 59.167105 35.174687 
L 70.614211 36.542416 
L 82.061316 38.551294 
L 93.508421 41.771881 
L 104.955526 45.556281 
L 116.402632 50.22009 
L 127.849737 55.784334 
L 139.296842 61.166781 
L 150.743947 67.513646 
L 162.191053 73.864118 
L 173.638158 80.293966 
L 185.085263 87.480322 
L 196.532368 93.999419 
L 207.979474 100.890595 
L 219.426579 107.331575 
L 230.873684 113.764996 
L 242.320789 119.928606 
L 253.767895 126.106573 
L 265.215 131.313157 
L 265.215 121.167853 
L 265.215 121.167853 
L 253.767895 116.06722 
L 242.320789 110.273098 
L 230.873684 104.773323 
L 219.426579 99.621769 
L 207.979474 93.056176 
L 196.532368 87.336222 
L 185.085263 80.727557 
L 173.638158 75.381525 
L 162.191053 69.444199 
L 150.743947 63.253644 
L 139.296842 57.659254 
L 127.849737 52.248954 
L 116.402632 47.836759 
L 104.955526 43.770826 
L 93.508421 40.233309 
L 82.061316 37.598645 
L 70.614211 35.544422 
L 59.167105 34.448616 
L 47.72 33.593797 
z
" clip-path="url(#p524d0c26e2)" style="fill: #ff7f0e; fill-opacity: 0.4"/>
   </g>
   <g id="PolyCollection_3">
    <path d="M 47.72 33.587544 
L 47.72 34.507317 
L 59.167105 35.277897 
L 70.614211 36.559497 
L 82.061316 38.448724 
L 93.508421 41.154526 
L 104.955526 44.187833 
L 116.402632 47.57083 
L 127.849737 51.063345 
L 139.296842 54.589948 
L 150.743947 58.318612 
L 162.191053 62.113817 
L 173.638158 65.674991 
L 185.085263 69.593442 
L 196.532368 73.208687 
L 207.979474 76.969397 
L 219.426579 80.67385 
L 230.873684 84.507845 
L 242.320789 88.656624 
L 253.767895 92.623677 
L 265.215 96.3207 
L 265.215 85.25727 
L 265.215 85.25727 
L 253.767895 81.835988 
L 242.320789 78.532275 
L 230.873684 75.252259 
L 219.426579 71.886678 
L 207.979474 68.635528 
L 196.532368 65.494517 
L 185.085263 61.514837 
L 173.638158 58.445206 
L 162.191053 54.871776 
L 150.743947 51.481797 
L 139.296842 48.48375 
L 127.849737 45.836277 
L 116.402632 43.183735 
L 104.955526 40.69335 
L 93.508421 38.536973 
L 82.061316 36.860651 
L 70.614211 35.524608 
L 59.167105 34.542193 
L 47.72 33.587544 
z
" clip-path="url(#p524d0c26e2)" style="fill: #2ca02c; fill-opacity: 0.4"/>
   </g>
   <g id="PolyCollection_4">
    <path d="M 47.72 33.603521 
L 47.72 34.531081 
L 59.167105 35.154563 
L 70.614211 36.048606 
L 82.061316 37.31069 
L 93.508421 39.276848 
L 104.955526 41.666306 
L 116.402632 44.607256 
L 127.849737 47.74852 
L 139.296842 51.132821 
L 150.743947 54.833243 
L 162.191053 58.725235 
L 173.638158 62.576174 
L 185.085263 66.819662 
L 196.532368 70.639627 
L 207.979474 74.517319 
L 219.426579 78.440745 
L 230.873684 82.45301 
L 242.320789 86.76404 
L 253.767895 90.932577 
L 265.215 94.697969 
L 265.215 84.162785 
L 265.215 84.162785 
L 253.767895 80.662009 
L 242.320789 77.293498 
L 230.873684 73.836968 
L 219.426579 70.324752 
L 207.979474 66.960218 
L 196.532368 63.669719 
L 185.085263 59.59932 
L 173.638158 56.545183 
L 162.191053 53.068488 
L 150.743947 49.730774 
L 139.296842 46.758786 
L 127.849737 44.153424 
L 116.402632 41.65708 
L 104.955526 39.55126 
L 93.508421 37.624743 
L 82.061316 36.213447 
L 70.614211 35.103363 
L 59.167105 34.42511 
L 47.72 33.603521 
z
" clip-path="url(#p524d0c26e2)" style="fill: #d62728; fill-opacity: 0.4"/>
   </g>
   <g id="PolyCollection_5">
    <path d="M 47.72 33.577215 
L 47.72 34.51378 
L 59.167105 35.491319 
L 70.614211 38.20566 
L 82.061316 42.242212 
L 93.508421 48.141473 
L 104.955526 54.448548 
L 116.402632 61.127447 
L 127.849737 69.091295 
L 139.296842 75.870167 
L 150.743947 83.929317 
L 162.191053 92.137947 
L 173.638158 99.031298 
L 185.085263 106.586706 
L 196.532368 114.019604 
L 207.979474 120.427944 
L 219.426579 126.390317 
L 230.873684 133.226323 
L 242.320789 138.527872 
L 253.767895 145.231921 
L 265.215 149.738464 
L 265.215 136.642998 
L 265.215 136.642998 
L 253.767895 132.278235 
L 242.320789 126.207107 
L 230.873684 119.889794 
L 219.426579 115.333543 
L 207.979474 107.776282 
L 196.532368 102.009557 
L 185.085263 94.713277 
L 173.638158 89.1624 
L 162.191053 82.06784 
L 150.743947 75.131346 
L 139.296842 68.182897 
L 127.849737 61.446826 
L 116.402632 55.531005 
L 104.955526 49.458822 
L 93.508421 44.3846 
L 82.061316 40.198328 
L 70.614211 36.899261 
L 59.167105 34.738639 
L 47.72 33.577215 
z
" clip-path="url(#p524d0c26e2)" style="fill: #9467bd; fill-opacity: 0.4"/>
   </g>
   <g id="PolyCollection_6">
    <path d="M 47.72 33.602721 
L 47.72 34.533083 
L 59.167105 35.194405 
L 70.614211 36.555558 
L 82.061316 38.602338 
L 93.508421 41.790903 
L 104.955526 45.625947 
L 116.402632 50.215498 
L 127.849737 55.816208 
L 139.296842 61.174784 
L 150.743947 67.820241 
L 162.191053 74.221507 
L 173.638158 80.430876 
L 185.085263 87.892189 
L 196.532368 94.617251 
L 207.979474 101.007065 
L 219.426579 107.375043 
L 230.873684 113.989503 
L 242.320789 119.882962 
L 253.767895 127.00417 
L 265.215 131.808011 
L 265.215 121.317889 
L 265.215 121.317889 
L 253.767895 116.664513 
L 242.320789 110.682294 
L 230.873684 104.797724 
L 219.426579 99.843566 
L 207.979474 92.933082 
L 196.532368 87.319323 
L 185.085263 80.744119 
L 173.638158 75.549142 
L 162.191053 69.481846 
L 150.743947 63.286785 
L 139.296842 57.637613 
L 127.849737 52.290408 
L 116.402632 47.866538 
L 104.955526 43.810916 
L 93.508421 40.271305 
L 82.061316 37.604268 
L 70.614211 35.575061 
L 59.167105 34.459635 
L 47.72 33.602721 
z
" clip-path="url(#p524d0c26e2)" style="fill: #8c564b; fill-opacity: 0.4"/>
   </g>
   <g id="PolyCollection_7">
    <path d="M 47.72 46.468179 
L 47.72 50.299305 
L 59.167105 51.679053 
L 70.614211 55.46446 
L 82.061316 61.162209 
L 93.508421 68.704333 
L 104.955526 76.627404 
L 116.402632 84.793215 
L 127.849737 93.221579 
L 139.296842 101.276478 
L 150.743947 109.077243 
L 162.191053 116.629177 
L 173.638158 123.580066 
L 185.085263 130.233739 
L 196.532368 136.172576 
L 207.979474 142.597704 
L 219.426579 147.997743 
L 230.873684 153.657986 
L 242.320789 158.65065 
L 253.767895 163.305443 
L 265.215 167.350909 
L 265.215 153.387207 
L 265.215 153.387207 
L 253.767895 148.725156 
L 242.320789 143.218605 
L 230.873684 137.55371 
L 219.426579 132.853173 
L 207.979474 126.473363 
L 196.532368 119.899203 
L 185.085263 112.798455 
L 173.638158 106.049726 
L 162.191053 98.953294 
L 150.743947 91.502695 
L 139.296842 84.227809 
L 127.849737 77.069587 
L 116.402632 70.470896 
L 104.955526 63.808135 
L 93.508421 58.171652 
L 82.061316 53.660166 
L 70.614211 49.950645 
L 59.167105 47.752735 
L 47.72 46.468179 
z
" clip-path="url(#p524d0c26e2)" style="fill: #e377c2; fill-opacity: 0.4"/>
   </g>
   <g id="PolyCollection_8">
    <path d="M 47.72 33.61226 
L 47.72 34.524636 
L 59.167105 34.892956 
L 70.614211 35.006554 
L 82.061316 35.396095 
L 93.508421 36.717775 
L 104.955526 39.320149 
L 116.402632 43.036277 
L 127.849737 47.610168 
L 139.296842 52.666186 
L 150.743947 58.109562 
L 162.191053 63.955458 
L 173.638158 69.494344 
L 185.085263 75.544913 
L 196.532368 81.208972 
L 207.979474 87.14745 
L 219.426579 93.239258 
L 230.873684 99.308812 
L 242.320789 105.550561 
L 253.767895 111.746801 
L 265.215 117.143024 
L 265.215 104.187589 
L 265.215 104.187589 
L 253.767895 98.567623 
L 242.320789 92.51636 
L 230.873684 86.987776 
L 219.426579 81.511092 
L 207.979474 75.311518 
L 196.532368 69.678526 
L 185.085263 63.393949 
L 173.638158 58.401556 
L 162.191053 53.078246 
L 150.743947 48.208978 
L 139.296842 43.957903 
L 127.849737 40.666426 
L 116.402632 38.060879 
L 104.955526 36.319517 
L 93.508421 35.224108 
L 82.061316 34.504394 
L 70.614211 34.092814 
L 59.167105 34.119519 
L 47.72 33.61226 
z
" clip-path="url(#p524d0c26e2)" style="fill: #7f7f7f; fill-opacity: 0.4"/>
   </g>
   <g id="matplotlib.axis_1">
    <g id="xtick_1">
     <g id="line2d_1">
      <defs>
       <path id="meafc75ac02" d="M 0 0 
L 0 3.5 
" style="stroke: #000000; stroke-width: 0.8"/>
      </defs>
      <g>
       <use xlink:href="#meafc75ac02" x="47.72" y="174.04" style="stroke: #000000; stroke-width: 0.8"/>
      </g>
     </g>
     <g id="text_1">
      <!-- 0.0 -->
      <g transform="translate(39.768438 188.638438)scale(0.1 -0.1)">
       <defs>
        <path id="DejaVuSans-30" d="M 2034 4250 
Q 1547 4250 1301 3770 
Q 1056 3291 1056 2328 
Q 1056 1369 1301 889 
Q 1547 409 2034 409 
Q 2525 409 2770 889 
Q 3016 1369 3016 2328 
Q 3016 3291 2770 3770 
Q 2525 4250 2034 4250 
z
M 2034 4750 
Q 2819 4750 3233 4129 
Q 3647 3509 3647 2328 
Q 3647 1150 3233 529 
Q 2819 -91 2034 -91 
Q 1250 -91 836 529 
Q 422 1150 422 2328 
Q 422 3509 836 4129 
Q 1250 4750 2034 4750 
z
" transform="scale(0.015625)"/>
        <path id="DejaVuSans-2e" d="M 684 794 
L 1344 794 
L 1344 0 
L 684 0 
L 684 794 
z
" transform="scale(0.015625)"/>
       </defs>
       <use xlink:href="#DejaVuSans-30"/>
       <use xlink:href="#DejaVuSans-2e" x="63.623047"/>
       <use xlink:href="#DejaVuSans-30" x="95.410156"/>
      </g>
     </g>
    </g>
    <g id="xtick_2">
     <g id="line2d_2">
      <g>
       <use xlink:href="#meafc75ac02" x="102.09375" y="174.04" style="stroke: #000000; stroke-width: 0.8"/>
      </g>
     </g>
     <g id="text_2">
      <!-- 0.5 -->
      <g transform="translate(94.142188 188.638438)scale(0.1 -0.1)">
       <defs>
        <path id="DejaVuSans-35" d="M 691 4666 
L 3169 4666 
L 3169 4134 
L 1269 4134 
L 1269 2991 
Q 1406 3038 1543 3061 
Q 1681 3084 1819 3084 
Q 2600 3084 3056 2656 
Q 3513 2228 3513 1497 
Q 3513 744 3044 326 
Q 2575 -91 1722 -91 
Q 1428 -91 1123 -41 
Q 819 9 494 109 
L 494 744 
Q 775 591 1075 516 
Q 1375 441 1709 441 
Q 2250 441 2565 725 
Q 2881 1009 2881 1497 
Q 2881 1984 2565 2268 
Q 2250 2553 1709 2553 
Q 1456 2553 1204 2497 
Q 953 2441 691 2322 
L 691 4666 
z
" transform="scale(0.015625)"/>
       </defs>
       <use xlink:href="#DejaVuSans-30"/>
       <use xlink:href="#DejaVuSans-2e" x="63.623047"/>
       <use xlink:href="#DejaVuSans-35" x="95.410156"/>
      </g>
     </g>
    </g>
    <g id="xtick_3">
     <g id="line2d_3">
      <g>
       <use xlink:href="#meafc75ac02" x="156.4675" y="174.04" style="stroke: #000000; stroke-width: 0.8"/>
      </g>
     </g>
     <g id="text_3">
      <!-- 1.0 -->
      <g transform="translate(148.515938 188.638438)scale(0.1 -0.1)">
       <defs>
        <path id="DejaVuSans-31" d="M 794 531 
L 1825 531 
L 1825 4091 
L 703 3866 
L 703 4441 
L 1819 4666 
L 2450 4666 
L 2450 531 
L 3481 531 
L 3481 0 
L 794 0 
L 794 531 
z
" transform="scale(0.015625)"/>
       </defs>
       <use xlink:href="#DejaVuSans-31"/>
       <use xlink:href="#DejaVuSans-2e" x="63.623047"/>
       <use xlink:href="#DejaVuSans-30" x="95.410156"/>
      </g>
     </g>
    </g>
    <g id="xtick_4">
     <g id="line2d_4">
      <g>
       <use xlink:href="#meafc75ac02" x="210.84125" y="174.04" style="stroke: #000000; stroke-width: 0.8"/>
      </g>
     </g>
     <g id="text_4">
      <!-- 1.5 -->
      <g transform="translate(202.889687 188.638438)scale(0.1 -0.1)">
       <use xlink:href="#DejaVuSans-31"/>
       <use xlink:href="#DejaVuSans-2e" x="63.623047"/>
       <use xlink:href="#DejaVuSans-35" x="95.410156"/>
      </g>
     </g>
    </g>
    <g id="xtick_5">
     <g id="line2d_5">
      <g>
       <use xlink:href="#meafc75ac02" x="265.215" y="174.04" style="stroke: #000000; stroke-width: 0.8"/>
      </g>
     </g>
     <g id="text_5">
      <!-- 2.0 -->
      <g transform="translate(257.263437 188.638438)scale(0.1 -0.1)">
       <defs>
        <path id="DejaVuSans-32" d="M 1228 531 
L 3431 531 
L 3431 0 
L 469 0 
L 469 531 
Q 828 903 1448 1529 
Q 2069 2156 2228 2338 
Q 2531 2678 2651 2914 
Q 2772 3150 2772 3378 
Q 2772 3750 2511 3984 
Q 2250 4219 1831 4219 
Q 1534 4219 1204 4116 
Q 875 4013 500 3803 
L 500 4441 
Q 881 4594 1212 4672 
Q 1544 4750 1819 4750 
Q 2544 4750 2975 4387 
Q 3406 4025 3406 3419 
Q 3406 3131 3298 2873 
Q 3191 2616 2906 2266 
Q 2828 2175 2409 1742 
Q 1991 1309 1228 531 
z
" transform="scale(0.015625)"/>
       </defs>
       <use xlink:href="#DejaVuSans-32"/>
       <use xlink:href="#DejaVuSans-2e" x="63.623047"/>
       <use xlink:href="#DejaVuSans-30" x="95.410156"/>
      </g>
     </g>
    </g>
    <g id="text_6">
     <!-- Influence of surprisal (multiplication) -->
     <g transform="translate(64.320625 202.316563)scale(0.1 -0.1)">
      <defs>
       <path id="DejaVuSans-49" d="M 628 4666 
L 1259 4666 
L 1259 0 
L 628 0 
L 628 4666 
z
" transform="scale(0.015625)"/>
       <path id="DejaVuSans-6e" d="M 3513 2113 
L 3513 0 
L 2938 0 
L 2938 2094 
Q 2938 2591 2744 2837 
Q 2550 3084 2163 3084 
Q 1697 3084 1428 2787 
Q 1159 2491 1159 1978 
L 1159 0 
L 581 0 
L 581 3500 
L 1159 3500 
L 1159 2956 
Q 1366 3272 1645 3428 
Q 1925 3584 2291 3584 
Q 2894 3584 3203 3211 
Q 3513 2838 3513 2113 
z
" transform="scale(0.015625)"/>
       <path id="DejaVuSans-66" d="M 2375 4863 
L 2375 4384 
L 1825 4384 
Q 1516 4384 1395 4259 
Q 1275 4134 1275 3809 
L 1275 3500 
L 2222 3500 
L 2222 3053 
L 1275 3053 
L 1275 0 
L 697 0 
L 697 3053 
L 147 3053 
L 147 3500 
L 697 3500 
L 697 3744 
Q 697 4328 969 4595 
Q 1241 4863 1831 4863 
L 2375 4863 
z
" transform="scale(0.015625)"/>
       <path id="DejaVuSans-6c" d="M 603 4863 
L 1178 4863 
L 1178 0 
L 603 0 
L 603 4863 
z
" transform="scale(0.015625)"/>
       <path id="DejaVuSans-75" d="M 544 1381 
L 544 3500 
L 1119 3500 
L 1119 1403 
Q 1119 906 1312 657 
Q 1506 409 1894 409 
Q 2359 409 2629 706 
Q 2900 1003 2900 1516 
L 2900 3500 
L 3475 3500 
L 3475 0 
L 2900 0 
L 2900 538 
Q 2691 219 2414 64 
Q 2138 -91 1772 -91 
Q 1169 -91 856 284 
Q 544 659 544 1381 
z
M 1991 3584 
L 1991 3584 
z
" transform="scale(0.015625)"/>
       <path id="DejaVuSans-65" d="M 3597 1894 
L 3597 1613 
L 953 1613 
Q 991 1019 1311 708 
Q 1631 397 2203 397 
Q 2534 397 2845 478 
Q 3156 559 3463 722 
L 3463 178 
Q 3153 47 2828 -22 
Q 2503 -91 2169 -91 
Q 1331 -91 842 396 
Q 353 884 353 1716 
Q 353 2575 817 3079 
Q 1281 3584 2069 3584 
Q 2775 3584 3186 3129 
Q 3597 2675 3597 1894 
z
M 3022 2063 
Q 3016 2534 2758 2815 
Q 2500 3097 2075 3097 
Q 1594 3097 1305 2825 
Q 1016 2553 972 2059 
L 3022 2063 
z
" transform="scale(0.015625)"/>
       <path id="DejaVuSans-63" d="M 3122 3366 
L 3122 2828 
Q 2878 2963 2633 3030 
Q 2388 3097 2138 3097 
Q 1578 3097 1268 2742 
Q 959 2388 959 1747 
Q 959 1106 1268 751 
Q 1578 397 2138 397 
Q 2388 397 2633 464 
Q 2878 531 3122 666 
L 3122 134 
Q 2881 22 2623 -34 
Q 2366 -91 2075 -91 
Q 1284 -91 818 406 
Q 353 903 353 1747 
Q 353 2603 823 3093 
Q 1294 3584 2113 3584 
Q 2378 3584 2631 3529 
Q 2884 3475 3122 3366 
z
" transform="scale(0.015625)"/>
       <path id="DejaVuSans-20" transform="scale(0.015625)"/>
       <path id="DejaVuSans-6f" d="M 1959 3097 
Q 1497 3097 1228 2736 
Q 959 2375 959 1747 
Q 959 1119 1226 758 
Q 1494 397 1959 397 
Q 2419 397 2687 759 
Q 2956 1122 2956 1747 
Q 2956 2369 2687 2733 
Q 2419 3097 1959 3097 
z
M 1959 3584 
Q 2709 3584 3137 3096 
Q 3566 2609 3566 1747 
Q 3566 888 3137 398 
Q 2709 -91 1959 -91 
Q 1206 -91 779 398 
Q 353 888 353 1747 
Q 353 2609 779 3096 
Q 1206 3584 1959 3584 
z
" transform="scale(0.015625)"/>
       <path id="DejaVuSans-73" d="M 2834 3397 
L 2834 2853 
Q 2591 2978 2328 3040 
Q 2066 3103 1784 3103 
Q 1356 3103 1142 2972 
Q 928 2841 928 2578 
Q 928 2378 1081 2264 
Q 1234 2150 1697 2047 
L 1894 2003 
Q 2506 1872 2764 1633 
Q 3022 1394 3022 966 
Q 3022 478 2636 193 
Q 2250 -91 1575 -91 
Q 1294 -91 989 -36 
Q 684 19 347 128 
L 347 722 
Q 666 556 975 473 
Q 1284 391 1588 391 
Q 1994 391 2212 530 
Q 2431 669 2431 922 
Q 2431 1156 2273 1281 
Q 2116 1406 1581 1522 
L 1381 1569 
Q 847 1681 609 1914 
Q 372 2147 372 2553 
Q 372 3047 722 3315 
Q 1072 3584 1716 3584 
Q 2034 3584 2315 3537 
Q 2597 3491 2834 3397 
z
" transform="scale(0.015625)"/>
       <path id="DejaVuSans-72" d="M 2631 2963 
Q 2534 3019 2420 3045 
Q 2306 3072 2169 3072 
Q 1681 3072 1420 2755 
Q 1159 2438 1159 1844 
L 1159 0 
L 581 0 
L 581 3500 
L 1159 3500 
L 1159 2956 
Q 1341 3275 1631 3429 
Q 1922 3584 2338 3584 
Q 2397 3584 2469 3576 
Q 2541 3569 2628 3553 
L 2631 2963 
z
" transform="scale(0.015625)"/>
       <path id="DejaVuSans-70" d="M 1159 525 
L 1159 -1331 
L 581 -1331 
L 581 3500 
L 1159 3500 
L 1159 2969 
Q 1341 3281 1617 3432 
Q 1894 3584 2278 3584 
Q 2916 3584 3314 3078 
Q 3713 2572 3713 1747 
Q 3713 922 3314 415 
Q 2916 -91 2278 -91 
Q 1894 -91 1617 61 
Q 1341 213 1159 525 
z
M 3116 1747 
Q 3116 2381 2855 2742 
Q 2594 3103 2138 3103 
Q 1681 3103 1420 2742 
Q 1159 2381 1159 1747 
Q 1159 1113 1420 752 
Q 1681 391 2138 391 
Q 2594 391 2855 752 
Q 3116 1113 3116 1747 
z
" transform="scale(0.015625)"/>
       <path id="DejaVuSans-69" d="M 603 3500 
L 1178 3500 
L 1178 0 
L 603 0 
L 603 3500 
z
M 603 4863 
L 1178 4863 
L 1178 4134 
L 603 4134 
L 603 4863 
z
" transform="scale(0.015625)"/>
       <path id="DejaVuSans-61" d="M 2194 1759 
Q 1497 1759 1228 1600 
Q 959 1441 959 1056 
Q 959 750 1161 570 
Q 1363 391 1709 391 
Q 2188 391 2477 730 
Q 2766 1069 2766 1631 
L 2766 1759 
L 2194 1759 
z
M 3341 1997 
L 3341 0 
L 2766 0 
L 2766 531 
Q 2569 213 2275 61 
Q 1981 -91 1556 -91 
Q 1019 -91 701 211 
Q 384 513 384 1019 
Q 384 1609 779 1909 
Q 1175 2209 1959 2209 
L 2766 2209 
L 2766 2266 
Q 2766 2663 2505 2880 
Q 2244 3097 1772 3097 
Q 1472 3097 1187 3025 
Q 903 2953 641 2809 
L 641 3341 
Q 956 3463 1253 3523 
Q 1550 3584 1831 3584 
Q 2591 3584 2966 3190 
Q 3341 2797 3341 1997 
z
" transform="scale(0.015625)"/>
       <path id="DejaVuSans-28" d="M 1984 4856 
Q 1566 4138 1362 3434 
Q 1159 2731 1159 2009 
Q 1159 1288 1364 580 
Q 1569 -128 1984 -844 
L 1484 -844 
Q 1016 -109 783 600 
Q 550 1309 550 2009 
Q 550 2706 781 3412 
Q 1013 4119 1484 4856 
L 1984 4856 
z
" transform="scale(0.015625)"/>
       <path id="DejaVuSans-6d" d="M 3328 2828 
Q 3544 3216 3844 3400 
Q 4144 3584 4550 3584 
Q 5097 3584 5394 3201 
Q 5691 2819 5691 2113 
L 5691 0 
L 5113 0 
L 5113 2094 
Q 5113 2597 4934 2840 
Q 4756 3084 4391 3084 
Q 3944 3084 3684 2787 
Q 3425 2491 3425 1978 
L 3425 0 
L 2847 0 
L 2847 2094 
Q 2847 2600 2669 2842 
Q 2491 3084 2119 3084 
Q 1678 3084 1418 2786 
Q 1159 2488 1159 1978 
L 1159 0 
L 581 0 
L 581 3500 
L 1159 3500 
L 1159 2956 
Q 1356 3278 1631 3431 
Q 1906 3584 2284 3584 
Q 2666 3584 2933 3390 
Q 3200 3197 3328 2828 
z
" transform="scale(0.015625)"/>
       <path id="DejaVuSans-74" d="M 1172 4494 
L 1172 3500 
L 2356 3500 
L 2356 3053 
L 1172 3053 
L 1172 1153 
Q 1172 725 1289 603 
Q 1406 481 1766 481 
L 2356 481 
L 2356 0 
L 1766 0 
Q 1100 0 847 248 
Q 594 497 594 1153 
L 594 3053 
L 172 3053 
L 172 3500 
L 594 3500 
L 594 4494 
L 1172 4494 
z
" transform="scale(0.015625)"/>
       <path id="DejaVuSans-29" d="M 513 4856 
L 1013 4856 
Q 1481 4119 1714 3412 
Q 1947 2706 1947 2009 
Q 1947 1309 1714 600 
Q 1481 -109 1013 -844 
L 513 -844 
Q 928 -128 1133 580 
Q 1338 1288 1338 2009 
Q 1338 2731 1133 3434 
Q 928 4138 513 4856 
z
" transform="scale(0.015625)"/>
      </defs>
      <use xlink:href="#DejaVuSans-49"/>
      <use xlink:href="#DejaVuSans-6e" x="29.492188"/>
      <use xlink:href="#DejaVuSans-66" x="92.871094"/>
      <use xlink:href="#DejaVuSans-6c" x="128.076172"/>
      <use xlink:href="#DejaVuSans-75" x="155.859375"/>
      <use xlink:href="#DejaVuSans-65" x="219.238281"/>
      <use xlink:href="#DejaVuSans-6e" x="280.761719"/>
      <use xlink:href="#DejaVuSans-63" x="344.140625"/>
      <use xlink:href="#DejaVuSans-65" x="399.121094"/>
      <use xlink:href="#DejaVuSans-20" x="460.644531"/>
      <use xlink:href="#DejaVuSans-6f" x="492.431641"/>
      <use xlink:href="#DejaVuSans-66" x="553.613281"/>
      <use xlink:href="#DejaVuSans-20" x="588.818359"/>
      <use xlink:href="#DejaVuSans-73" x="620.605469"/>
      <use xlink:href="#DejaVuSans-75" x="672.705078"/>
      <use xlink:href="#DejaVuSans-72" x="736.083984"/>
      <use xlink:href="#DejaVuSans-70" x="777.197266"/>
      <use xlink:href="#DejaVuSans-72" x="840.673828"/>
      <use xlink:href="#DejaVuSans-69" x="881.787109"/>
      <use xlink:href="#DejaVuSans-73" x="909.570312"/>
      <use xlink:href="#DejaVuSans-61" x="961.669922"/>
      <use xlink:href="#DejaVuSans-6c" x="1022.949219"/>
      <use xlink:href="#DejaVuSans-20" x="1050.732422"/>
      <use xlink:href="#DejaVuSans-28" x="1082.519531"/>
      <use xlink:href="#DejaVuSans-6d" x="1121.533203"/>
      <use xlink:href="#DejaVuSans-75" x="1218.945312"/>
      <use xlink:href="#DejaVuSans-6c" x="1282.324219"/>
      <use xlink:href="#DejaVuSans-74" x="1310.107422"/>
      <use xlink:href="#DejaVuSans-69" x="1349.316406"/>
      <use xlink:href="#DejaVuSans-70" x="1377.099609"/>
      <use xlink:href="#DejaVuSans-6c" x="1440.576172"/>
      <use xlink:href="#DejaVuSans-69" x="1468.359375"/>
      <use xlink:href="#DejaVuSans-63" x="1496.142578"/>
      <use xlink:href="#DejaVuSans-61" x="1551.123047"/>
      <use xlink:href="#DejaVuSans-74" x="1612.402344"/>
      <use xlink:href="#DejaVuSans-69" x="1651.611328"/>
      <use xlink:href="#DejaVuSans-6f" x="1679.394531"/>
      <use xlink:href="#DejaVuSans-6e" x="1740.576172"/>
      <use xlink:href="#DejaVuSans-29" x="1803.955078"/>
     </g>
    </g>
   </g>
   <g id="matplotlib.axis_2">
    <g id="ytick_1">
     <g id="line2d_6">
      <defs>
       <path id="mcc91b094b7" d="M 0 0 
L -3.5 0 
" style="stroke: #000000; stroke-width: 0.8"/>
      </defs>
      <g>
       <use xlink:href="#mcc91b094b7" x="47.72" y="142.666855" style="stroke: #000000; stroke-width: 0.8"/>
      </g>
     </g>
     <g id="text_7">
      <!-- 0.4 -->
      <g transform="translate(24.816875 146.466074)scale(0.1 -0.1)">
       <defs>
        <path id="DejaVuSans-34" d="M 2419 4116 
L 825 1625 
L 2419 1625 
L 2419 4116 
z
M 2253 4666 
L 3047 4666 
L 3047 1625 
L 3713 1625 
L 3713 1100 
L 3047 1100 
L 3047 0 
L 2419 0 
L 2419 1100 
L 313 1100 
L 313 1709 
L 2253 4666 
z
" transform="scale(0.015625)"/>
       </defs>
       <use xlink:href="#DejaVuSans-30"/>
       <use xlink:href="#DejaVuSans-2e" x="63.623047"/>
       <use xlink:href="#DejaVuSans-34" x="95.410156"/>
      </g>
     </g>
    </g>
    <g id="ytick_2">
     <g id="line2d_7">
      <g>
       <use xlink:href="#mcc91b094b7" x="47.72" y="102.733523" style="stroke: #000000; stroke-width: 0.8"/>
      </g>
     </g>
     <g id="text_8">
      <!-- 0.6 -->
      <g transform="translate(24.816875 106.532742)scale(0.1 -0.1)">
       <defs>
        <path id="DejaVuSans-36" d="M 2113 2584 
Q 1688 2584 1439 2293 
Q 1191 2003 1191 1497 
Q 1191 994 1439 701 
Q 1688 409 2113 409 
Q 2538 409 2786 701 
Q 3034 994 3034 1497 
Q 3034 2003 2786 2293 
Q 2538 2584 2113 2584 
z
M 3366 4563 
L 3366 3988 
Q 3128 4100 2886 4159 
Q 2644 4219 2406 4219 
Q 1781 4219 1451 3797 
Q 1122 3375 1075 2522 
Q 1259 2794 1537 2939 
Q 1816 3084 2150 3084 
Q 2853 3084 3261 2657 
Q 3669 2231 3669 1497 
Q 3669 778 3244 343 
Q 2819 -91 2113 -91 
Q 1303 -91 875 529 
Q 447 1150 447 2328 
Q 447 3434 972 4092 
Q 1497 4750 2381 4750 
Q 2619 4750 2861 4703 
Q 3103 4656 3366 4563 
z
" transform="scale(0.015625)"/>
       </defs>
       <use xlink:href="#DejaVuSans-30"/>
       <use xlink:href="#DejaVuSans-2e" x="63.623047"/>
       <use xlink:href="#DejaVuSans-36" x="95.410156"/>
      </g>
     </g>
    </g>
    <g id="ytick_3">
     <g id="line2d_8">
      <g>
       <use xlink:href="#mcc91b094b7" x="47.72" y="62.800192" style="stroke: #000000; stroke-width: 0.8"/>
      </g>
     </g>
     <g id="text_9">
      <!-- 0.8 -->
      <g transform="translate(24.816875 66.599411)scale(0.1 -0.1)">
       <defs>
        <path id="DejaVuSans-38" d="M 2034 2216 
Q 1584 2216 1326 1975 
Q 1069 1734 1069 1313 
Q 1069 891 1326 650 
Q 1584 409 2034 409 
Q 2484 409 2743 651 
Q 3003 894 3003 1313 
Q 3003 1734 2745 1975 
Q 2488 2216 2034 2216 
z
M 1403 2484 
Q 997 2584 770 2862 
Q 544 3141 544 3541 
Q 544 4100 942 4425 
Q 1341 4750 2034 4750 
Q 2731 4750 3128 4425 
Q 3525 4100 3525 3541 
Q 3525 3141 3298 2862 
Q 3072 2584 2669 2484 
Q 3125 2378 3379 2068 
Q 3634 1759 3634 1313 
Q 3634 634 3220 271 
Q 2806 -91 2034 -91 
Q 1263 -91 848 271 
Q 434 634 434 1313 
Q 434 1759 690 2068 
Q 947 2378 1403 2484 
z
M 1172 3481 
Q 1172 3119 1398 2916 
Q 1625 2713 2034 2713 
Q 2441 2713 2670 2916 
Q 2900 3119 2900 3481 
Q 2900 3844 2670 4047 
Q 2441 4250 2034 4250 
Q 1625 4250 1398 4047 
Q 1172 3844 1172 3481 
z
" transform="scale(0.015625)"/>
       </defs>
       <use xlink:href="#DejaVuSans-30"/>
       <use xlink:href="#DejaVuSans-2e" x="63.623047"/>
       <use xlink:href="#DejaVuSans-38" x="95.410156"/>
      </g>
     </g>
    </g>
    <g id="text_10">
     <!-- R-value -->
     <g transform="translate(18.737188 119.064687)rotate(-90)scale(0.1 -0.1)">
      <defs>
       <path id="DejaVuSans-52" d="M 2841 2188 
Q 3044 2119 3236 1894 
Q 3428 1669 3622 1275 
L 4263 0 
L 3584 0 
L 2988 1197 
Q 2756 1666 2539 1819 
Q 2322 1972 1947 1972 
L 1259 1972 
L 1259 0 
L 628 0 
L 628 4666 
L 2053 4666 
Q 2853 4666 3247 4331 
Q 3641 3997 3641 3322 
Q 3641 2881 3436 2590 
Q 3231 2300 2841 2188 
z
M 1259 4147 
L 1259 2491 
L 2053 2491 
Q 2509 2491 2742 2702 
Q 2975 2913 2975 3322 
Q 2975 3731 2742 3939 
Q 2509 4147 2053 4147 
L 1259 4147 
z
" transform="scale(0.015625)"/>
       <path id="DejaVuSans-2d" d="M 313 2009 
L 1997 2009 
L 1997 1497 
L 313 1497 
L 313 2009 
z
" transform="scale(0.015625)"/>
       <path id="DejaVuSans-76" d="M 191 3500 
L 800 3500 
L 1894 563 
L 2988 3500 
L 3597 3500 
L 2284 0 
L 1503 0 
L 191 3500 
z
" transform="scale(0.015625)"/>
      </defs>
      <use xlink:href="#DejaVuSans-52"/>
      <use xlink:href="#DejaVuSans-2d" x="65.482422"/>
      <use xlink:href="#DejaVuSans-76" x="98.941406"/>
      <use xlink:href="#DejaVuSans-61" x="158.121094"/>
      <use xlink:href="#DejaVuSans-6c" x="219.400391"/>
      <use xlink:href="#DejaVuSans-75" x="247.183594"/>
      <use xlink:href="#DejaVuSans-65" x="310.5625"/>
     </g>
    </g>
   </g>
   <g id="line2d_9">
    <path d="M 47.72 34.035131 
L 59.167105 35.100091 
L 70.614211 37.520696 
L 82.061316 41.19943 
L 93.508421 46.24027 
L 104.955526 51.84993 
L 116.402632 58.343905 
L 127.849737 65.14708 
L 139.296842 72.036117 
L 150.743947 79.436636 
L 162.191053 86.775799 
L 173.638158 93.759135 
L 185.085263 100.566951 
L 196.532368 107.542829 
L 207.979474 114.097472 
L 219.426579 120.666507 
L 230.873684 126.389064 
L 242.320789 132.115251 
L 253.767895 137.919011 
L 265.215 142.88101 
" clip-path="url(#p524d0c26e2)" style="fill: none; stroke: #1f77b4; stroke-width: 1.5; stroke-linecap: square"/>
   </g>
   <g id="line2d_10">
    <path d="M 47.72 34.05694 
L 59.167105 34.811651 
L 70.614211 36.043419 
L 82.061316 38.074969 
L 93.508421 41.002595 
L 104.955526 44.663554 
L 116.402632 49.028425 
L 127.849737 54.016644 
L 139.296842 59.413017 
L 150.743947 65.383645 
L 162.191053 71.654159 
L 173.638158 77.837746 
L 185.085263 84.103939 
L 196.532368 90.66782 
L 207.979474 96.973386 
L 219.426579 103.476672 
L 230.873684 109.26916 
L 242.320789 115.100852 
L 253.767895 121.086897 
L 265.215 126.240505 
" clip-path="url(#p524d0c26e2)" style="fill: none; stroke: #ff7f0e; stroke-width: 1.5; stroke-linecap: square"/>
   </g>
   <g id="line2d_11">
    <path d="M 47.72 34.04743 
L 59.167105 34.910045 
L 70.614211 36.042053 
L 82.061316 37.654687 
L 93.508421 39.845749 
L 104.955526 42.440591 
L 116.402632 45.377283 
L 127.849737 48.449811 
L 139.296842 51.536849 
L 150.743947 54.900204 
L 162.191053 58.492797 
L 173.638158 62.060098 
L 185.085263 65.55414 
L 196.532368 69.351602 
L 207.979474 72.802463 
L 219.426579 76.280264 
L 230.873684 79.880052 
L 242.320789 83.59445 
L 253.767895 87.229833 
L 265.215 90.788985 
" clip-path="url(#p524d0c26e2)" style="fill: none; stroke: #2ca02c; stroke-width: 1.5; stroke-linecap: square"/>
   </g>
   <g id="line2d_12">
    <path d="M 47.72 34.067301 
L 59.167105 34.789837 
L 70.614211 35.575985 
L 82.061316 36.762069 
L 93.508421 38.450796 
L 104.955526 40.608783 
L 116.402632 43.132168 
L 127.849737 45.950972 
L 139.296842 48.945804 
L 150.743947 52.282009 
L 162.191053 55.896861 
L 173.638158 59.560679 
L 185.085263 63.209491 
L 196.532368 67.154673 
L 207.979474 70.738768 
L 219.426579 74.382749 
L 230.873684 78.144989 
L 242.320789 82.028769 
L 253.767895 85.797293 
L 265.215 89.430377 
" clip-path="url(#p524d0c26e2)" style="fill: none; stroke: #d62728; stroke-width: 1.5; stroke-linecap: square"/>
   </g>
   <g id="line2d_13">
    <path d="M 47.72 34.045497 
L 59.167105 35.114979 
L 70.614211 37.55246 
L 82.061316 41.22027 
L 93.508421 46.263036 
L 104.955526 51.953685 
L 116.402632 58.329226 
L 127.849737 65.26906 
L 139.296842 72.026532 
L 150.743947 79.530332 
L 162.191053 87.102894 
L 173.638158 94.096849 
L 185.085263 100.649991 
L 196.532368 108.01458 
L 207.979474 114.102113 
L 219.426579 120.86193 
L 230.873684 126.558058 
L 242.320789 132.367489 
L 253.767895 138.755078 
L 265.215 143.190731 
" clip-path="url(#p524d0c26e2)" style="fill: none; stroke: #9467bd; stroke-width: 1.5; stroke-linecap: square"/>
   </g>
   <g id="line2d_14">
    <path d="M 47.72 34.067902 
L 59.167105 34.82702 
L 70.614211 36.065309 
L 82.061316 38.103303 
L 93.508421 41.031104 
L 104.955526 44.718432 
L 116.402632 49.041018 
L 127.849737 54.053308 
L 139.296842 59.406198 
L 150.743947 65.553513 
L 162.191053 71.851677 
L 173.638158 77.990009 
L 185.085263 84.318154 
L 196.532368 90.968287 
L 207.979474 96.970074 
L 219.426579 103.609304 
L 230.873684 109.393613 
L 242.320789 115.282628 
L 253.767895 121.834341 
L 265.215 126.56295 
" clip-path="url(#p524d0c26e2)" style="fill: none; stroke: #8c564b; stroke-width: 1.5; stroke-linecap: square"/>
   </g>
   <g id="line2d_15">
    <path d="M 47.72 48.383742 
L 59.167105 49.715894 
L 70.614211 52.707553 
L 82.061316 57.411187 
L 93.508421 63.437993 
L 104.955526 70.217769 
L 116.402632 77.632055 
L 127.849737 85.145583 
L 139.296842 92.752143 
L 150.743947 100.289969 
L 162.191053 107.791235 
L 173.638158 114.814896 
L 185.085263 121.516097 
L 196.532368 128.03589 
L 207.979474 134.535534 
L 219.426579 140.425458 
L 230.873684 145.605848 
L 242.320789 150.934627 
L 253.767895 156.015299 
L 265.215 160.369058 
" clip-path="url(#p524d0c26e2)" style="fill: none; stroke: #e377c2; stroke-width: 1.5; stroke-linecap: square"/>
   </g>
   <g id="line2d_16">
    <path d="M 47.72 34.068448 
L 59.167105 34.506237 
L 70.614211 34.549684 
L 82.061316 34.950244 
L 93.508421 35.970941 
L 104.955526 37.819833 
L 116.402632 40.548578 
L 127.849737 44.138297 
L 139.296842 48.312044 
L 150.743947 53.15927 
L 162.191053 58.516852 
L 173.638158 63.94795 
L 185.085263 69.469431 
L 196.532368 75.443749 
L 207.979474 81.229484 
L 219.426579 87.375175 
L 230.873684 93.148294 
L 242.320789 99.03346 
L 253.767895 105.157212 
L 265.215 110.665307 
" clip-path="url(#p524d0c26e2)" style="fill: none; stroke: #7f7f7f; stroke-width: 1.5; stroke-linecap: square"/>
   </g>
   <g id="patch_3">
    <path d="M 47.72 174.04 
L 47.72 26.88 
" style="fill: none; stroke: #000000; stroke-width: 0.8; stroke-linejoin: miter; stroke-linecap: square"/>
   </g>
   <g id="patch_4">
    <path d="M 47.72 174.04 
L 265.215 174.04 
" style="fill: none; stroke: #000000; stroke-width: 0.8; stroke-linejoin: miter; stroke-linecap: square"/>
   </g>
   <g id="text_11">
    <!-- Node * surprisal -->
    <g transform="translate(108.18625 20.88)scale(0.12 -0.12)">
     <defs>
      <path id="DejaVuSans-4e" d="M 628 4666 
L 1478 4666 
L 3547 763 
L 3547 4666 
L 4159 4666 
L 4159 0 
L 3309 0 
L 1241 3903 
L 1241 0 
L 628 0 
L 628 4666 
z
" transform="scale(0.015625)"/>
      <path id="DejaVuSans-64" d="M 2906 2969 
L 2906 4863 
L 3481 4863 
L 3481 0 
L 2906 0 
L 2906 525 
Q 2725 213 2448 61 
Q 2172 -91 1784 -91 
Q 1150 -91 751 415 
Q 353 922 353 1747 
Q 353 2572 751 3078 
Q 1150 3584 1784 3584 
Q 2172 3584 2448 3432 
Q 2725 3281 2906 2969 
z
M 947 1747 
Q 947 1113 1208 752 
Q 1469 391 1925 391 
Q 2381 391 2643 752 
Q 2906 1113 2906 1747 
Q 2906 2381 2643 2742 
Q 2381 3103 1925 3103 
Q 1469 3103 1208 2742 
Q 947 2381 947 1747 
z
" transform="scale(0.015625)"/>
      <path id="DejaVuSans-2a" d="M 3009 3897 
L 1888 3291 
L 3009 2681 
L 2828 2375 
L 1778 3009 
L 1778 1831 
L 1422 1831 
L 1422 3009 
L 372 2375 
L 191 2681 
L 1313 3291 
L 191 3897 
L 372 4206 
L 1422 3572 
L 1422 4750 
L 1778 4750 
L 1778 3572 
L 2828 4206 
L 3009 3897 
z
" transform="scale(0.015625)"/>
     </defs>
     <use xlink:href="#DejaVuSans-4e"/>
     <use xlink:href="#DejaVuSans-6f" x="74.804688"/>
     <use xlink:href="#DejaVuSans-64" x="135.986328"/>
     <use xlink:href="#DejaVuSans-65" x="199.462891"/>
     <use xlink:href="#DejaVuSans-20" x="260.986328"/>
     <use xlink:href="#DejaVuSans-2a" x="292.773438"/>
     <use xlink:href="#DejaVuSans-20" x="342.773438"/>
     <use xlink:href="#DejaVuSans-73" x="374.560547"/>
     <use xlink:href="#DejaVuSans-75" x="426.660156"/>
     <use xlink:href="#DejaVuSans-72" x="490.039062"/>
     <use xlink:href="#DejaVuSans-70" x="531.152344"/>
     <use xlink:href="#DejaVuSans-72" x="594.628906"/>
     <use xlink:href="#DejaVuSans-69" x="635.742188"/>
     <use xlink:href="#DejaVuSans-73" x="663.525391"/>
     <use xlink:href="#DejaVuSans-61" x="715.625"/>
     <use xlink:href="#DejaVuSans-6c" x="776.904297"/>
    </g>
   </g>
  </g>
  <g id="axes_2">
   <g id="patch_5">
    <path d="M 298.065 174.04 
L 515.56 174.04 
L 515.56 26.88 
L 298.065 26.88 
z
" style="fill: #ffffff"/>
   </g>
   <g id="PolyCollection_9">
    <path d="M 298.065 33.706445 
L 298.065 34.56673 
L 309.512105 35.424729 
L 320.959211 39.552327 
L 332.406316 44.852373 
L 343.853421 52.312616 
L 355.300526 60.1535 
L 366.747632 68.715614 
L 378.194737 77.333045 
L 389.641842 85.918275 
L 401.088947 94.980312 
L 412.536053 102.547348 
L 423.983158 109.656574 
L 435.430263 116.904788 
L 446.877368 124.083406 
L 458.324474 130.941152 
L 469.771579 137.464799 
L 481.218684 143.415254 
L 492.665789 149.786112 
L 504.112895 155.318068 
L 515.56 160.252499 
L 515.56 140.997555 
L 515.56 140.997555 
L 504.112895 136.18971 
L 492.665789 130.987524 
L 481.218684 125.280013 
L 469.771579 119.63935 
L 458.324474 113.527586 
L 446.877368 106.986582 
L 435.430263 99.868775 
L 423.983158 93.17145 
L 412.536053 85.998151 
L 401.088947 78.765987 
L 389.641842 70.584506 
L 378.194737 64.420005 
L 366.747632 56.968063 
L 355.300526 50.520295 
L 343.853421 45.285413 
L 332.406316 40.634852 
L 320.959211 37.155035 
L 309.512105 34.492309 
L 298.065 33.706445 
z
" clip-path="url(#p7be2308a10)" style="fill: #1f77b4; fill-opacity: 0.4"/>
   </g>
   <g id="PolyCollection_10">
    <path d="M 298.065 33.717783 
L 298.065 34.595799 
L 309.512105 35.440235 
L 320.959211 39.560773 
L 332.406316 44.862979 
L 343.853421 52.323855 
L 355.300526 60.185427 
L 366.747632 68.749281 
L 378.194737 77.396002 
L 389.641842 86.04471 
L 401.088947 95.144547 
L 412.536053 102.72502 
L 423.983158 109.941248 
L 435.430263 117.195605 
L 446.877368 124.42719 
L 458.324474 131.281642 
L 469.771579 137.83769 
L 481.218684 143.841479 
L 492.665789 150.22785 
L 504.112895 155.771091 
L 515.56 160.73237 
L 515.56 141.323631 
L 515.56 141.323631 
L 504.112895 136.516998 
L 492.665789 131.260076 
L 481.218684 125.534326 
L 469.771579 119.929062 
L 458.324474 113.787966 
L 446.877368 107.181009 
L 435.430263 100.017088 
L 423.983158 93.299174 
L 412.536053 86.148765 
L 401.088947 78.890879 
L 389.641842 70.669434 
L 378.194737 64.495142 
L 366.747632 57.042986 
L 355.300526 50.559688 
L 343.853421 45.323361 
L 332.406316 40.663259 
L 320.959211 37.184725 
L 309.512105 34.515471 
L 298.065 33.717783 
z
" clip-path="url(#p7be2308a10)" style="fill: #ff7f0e; fill-opacity: 0.4"/>
   </g>
   <g id="PolyCollection_11">
    <path d="M 298.065 33.726227 
L 298.065 34.579629 
L 309.512105 35.439041 
L 320.959211 39.560536 
L 332.406316 44.839621 
L 343.853421 52.315314 
L 355.300526 60.126871 
L 366.747632 68.677996 
L 378.194737 77.243476 
L 389.641842 85.811593 
L 401.088947 94.851108 
L 412.536053 102.431206 
L 423.983158 109.579362 
L 435.430263 116.830354 
L 446.877368 124.058143 
L 458.324474 130.938003 
L 469.771579 137.548485 
L 481.218684 143.711461 
L 492.665789 150.113183 
L 504.112895 155.854286 
L 515.56 160.843304 
L 515.56 142.114021 
L 515.56 142.114021 
L 504.112895 137.238948 
L 492.665789 132.057505 
L 481.218684 126.275941 
L 469.771579 120.557664 
L 458.324474 114.387837 
L 446.877368 107.735814 
L 435.430263 100.467755 
L 423.983158 93.634481 
L 412.536053 86.477474 
L 401.088947 79.125361 
L 389.641842 70.845984 
L 378.194737 64.606312 
L 366.747632 57.08322 
L 355.300526 50.57842 
L 343.853421 45.338308 
L 332.406316 40.675353 
L 320.959211 37.189383 
L 309.512105 34.510526 
L 298.065 33.726227 
z
" clip-path="url(#p7be2308a10)" style="fill: #2ca02c; fill-opacity: 0.4"/>
   </g>
   <g id="PolyCollection_12">
    <path d="M 298.065 33.741391 
L 298.065 34.607684 
L 309.512105 35.458428 
L 320.959211 39.56028 
L 332.406316 44.834295 
L 343.853421 52.2957 
L 355.300526 60.125716 
L 366.747632 68.681253 
L 378.194737 77.277327 
L 389.641842 85.904292 
L 401.088947 95.000175 
L 412.536053 102.606012 
L 423.983158 109.875945 
L 435.430263 117.122379 
L 446.877368 124.444425 
L 458.324474 131.294046 
L 469.771579 137.945825 
L 481.218684 144.154393 
L 492.665789 150.519103 
L 504.112895 156.236349 
L 515.56 161.263829 
L 515.56 142.091908 
L 515.56 142.091908 
L 504.112895 137.204975 
L 492.665789 131.934034 
L 481.218684 126.131683 
L 469.771579 120.468085 
L 458.324474 114.300327 
L 446.877368 107.631437 
L 435.430263 100.386982 
L 423.983158 93.520367 
L 412.536053 86.429401 
L 401.088947 79.076467 
L 389.641842 70.815253 
L 378.194737 64.595635 
L 366.747632 57.101916 
L 355.300526 50.589521 
L 343.853421 45.366358 
L 332.406316 40.696058 
L 320.959211 37.210608 
L 309.512105 34.524196 
L 298.065 33.741391 
z
" clip-path="url(#p7be2308a10)" style="fill: #d62728; fill-opacity: 0.4"/>
   </g>
   <g id="PolyCollection_13">
    <path d="M 298.065 33.719891 
L 298.065 34.579173 
L 309.512105 35.438301 
L 320.959211 39.652869 
L 332.406316 44.804317 
L 343.853421 52.343378 
L 355.300526 60.188747 
L 366.747632 68.801236 
L 378.194737 77.524676 
L 389.641842 86.302787 
L 401.088947 94.695066 
L 412.536053 102.793303 
L 423.983158 109.792235 
L 435.430263 116.757849 
L 446.877368 124.207779 
L 458.324474 130.987136 
L 469.771579 137.548347 
L 481.218684 144.089623 
L 492.665789 150.592798 
L 504.112895 155.423615 
L 515.56 161.113469 
L 515.56 141.358089 
L 515.56 141.358089 
L 504.112895 136.740143 
L 492.665789 131.628299 
L 481.218684 125.87865 
L 469.771579 119.768122 
L 458.324474 113.437789 
L 446.877368 107.136467 
L 435.430263 99.964373 
L 423.983158 93.111108 
L 412.536053 86.10524 
L 401.088947 78.831937 
L 389.641842 70.588205 
L 378.194737 64.65031 
L 366.747632 57.063802 
L 355.300526 50.76609 
L 343.853421 45.325607 
L 332.406316 40.671085 
L 320.959211 37.161483 
L 309.512105 34.519675 
L 298.065 33.719891 
z
" clip-path="url(#p7be2308a10)" style="fill: #9467bd; fill-opacity: 0.4"/>
   </g>
   <g id="PolyCollection_14">
    <path d="M 298.065 33.73158 
L 298.065 34.60821 
L 309.512105 35.453951 
L 320.959211 39.660091 
L 332.406316 44.814137 
L 343.853421 52.351778 
L 355.300526 60.216128 
L 366.747632 68.827107 
L 378.194737 77.576998 
L 389.641842 86.412858 
L 401.088947 94.845316 
L 412.536053 102.955526 
L 423.983158 110.054145 
L 435.430263 117.059167 
L 446.877368 124.554517 
L 458.324474 131.32269 
L 469.771579 137.917282 
L 481.218684 144.502098 
L 492.665789 151.010768 
L 504.112895 155.861059 
L 515.56 161.568357 
L 515.56 141.677564 
L 515.56 141.677564 
L 504.112895 137.11509 
L 492.665789 131.895269 
L 481.218684 126.164919 
L 469.771579 120.072126 
L 458.324474 113.688041 
L 446.877368 107.338698 
L 435.430263 100.114137 
L 423.983158 93.251107 
L 412.536053 86.26371 
L 401.088947 78.946638 
L 389.641842 70.679493 
L 378.194737 64.732588 
L 366.747632 57.140174 
L 355.300526 50.809259 
L 343.853421 45.365289 
L 332.406316 40.701221 
L 320.959211 37.192141 
L 309.512105 34.543768 
L 298.065 33.73158 
z
" clip-path="url(#p7be2308a10)" style="fill: #8c564b; fill-opacity: 0.4"/>
   </g>
   <g id="PolyCollection_15">
    <path d="M 298.065 46.621447 
L 298.065 50.282355 
L 309.512105 51.211451 
L 320.959211 54.818348 
L 332.406316 59.667387 
L 343.853421 66.145288 
L 355.300526 73.262959 
L 366.747632 80.853638 
L 378.194737 88.675761 
L 389.641842 96.31955 
L 401.088947 104.286284 
L 412.536053 110.952258 
L 423.983158 117.579147 
L 435.430263 124.146339 
L 446.877368 130.552551 
L 458.324474 136.872278 
L 469.771579 142.94553 
L 481.218684 148.513217 
L 492.665789 154.244042 
L 504.112895 159.571753 
L 515.56 164.228476 
L 515.56 146.92665 
L 515.56 146.92665 
L 504.112895 142.228904 
L 492.665789 137.467316 
L 481.218684 131.926201 
L 469.771579 126.453166 
L 458.324474 120.807227 
L 446.877368 114.978737 
L 435.430263 108.214045 
L 423.983158 101.85582 
L 412.536053 95.419523 
L 401.088947 88.653765 
L 389.641842 81.173077 
L 378.194737 75.335337 
L 366.747632 68.335298 
L 355.300526 62.370137 
L 343.853421 57.555108 
L 332.406316 53.019 
L 320.959211 49.720595 
L 309.512105 47.227235 
L 298.065 46.621447 
z
" clip-path="url(#p7be2308a10)" style="fill: #e377c2; fill-opacity: 0.4"/>
   </g>
   <g id="PolyCollection_16">
    <path d="M 298.065 33.731644 
L 298.065 34.602705 
L 309.512105 35.455456 
L 320.959211 39.588832 
L 332.406316 44.893443 
L 343.853421 52.399704 
L 355.300526 60.231512 
L 366.747632 68.814887 
L 378.194737 77.457526 
L 389.641842 86.152643 
L 401.088947 95.234217 
L 412.536053 102.888903 
L 423.983158 110.148074 
L 435.430263 117.455867 
L 446.877368 124.75239 
L 458.324474 131.608799 
L 469.771579 138.245162 
L 481.218684 144.38884 
L 492.665789 150.789356 
L 504.112895 156.479403 
L 515.56 161.422461 
L 515.56 141.582348 
L 515.56 141.582348 
L 504.112895 136.717026 
L 492.665789 131.35234 
L 481.218684 125.652609 
L 469.771579 119.999916 
L 458.324474 113.892034 
L 446.877368 107.20657 
L 435.430263 100.093728 
L 423.983158 93.327404 
L 412.536053 86.199718 
L 401.088947 78.942923 
L 389.641842 70.701156 
L 378.194737 64.519839 
L 366.747632 57.040318 
L 355.300526 50.580355 
L 343.853421 45.356305 
L 332.406316 40.686976 
L 320.959211 37.215304 
L 309.512105 34.532038 
L 298.065 33.731644 
z
" clip-path="url(#p7be2308a10)" style="fill: #7f7f7f; fill-opacity: 0.4"/>
   </g>
   <g id="matplotlib.axis_3">
    <g id="xtick_6">
     <g id="line2d_17">
      <g>
       <use xlink:href="#meafc75ac02" x="298.065" y="174.04" style="stroke: #000000; stroke-width: 0.8"/>
      </g>
     </g>
     <g id="text_12">
      <!-- 0.0 -->
      <g transform="translate(290.113437 188.638438)scale(0.1 -0.1)">
       <use xlink:href="#DejaVuSans-30"/>
       <use xlink:href="#DejaVuSans-2e" x="63.623047"/>
       <use xlink:href="#DejaVuSans-30" x="95.410156"/>
      </g>
     </g>
    </g>
    <g id="xtick_7">
     <g id="line2d_18">
      <g>
       <use xlink:href="#meafc75ac02" x="352.43875" y="174.04" style="stroke: #000000; stroke-width: 0.8"/>
      </g>
     </g>
     <g id="text_13">
      <!-- 0.5 -->
      <g transform="translate(344.487187 188.638438)scale(0.1 -0.1)">
       <use xlink:href="#DejaVuSans-30"/>
       <use xlink:href="#DejaVuSans-2e" x="63.623047"/>
       <use xlink:href="#DejaVuSans-35" x="95.410156"/>
      </g>
     </g>
    </g>
    <g id="xtick_8">
     <g id="line2d_19">
      <g>
       <use xlink:href="#meafc75ac02" x="406.8125" y="174.04" style="stroke: #000000; stroke-width: 0.8"/>
      </g>
     </g>
     <g id="text_14">
      <!-- 1.0 -->
      <g transform="translate(398.860937 188.638438)scale(0.1 -0.1)">
       <use xlink:href="#DejaVuSans-31"/>
       <use xlink:href="#DejaVuSans-2e" x="63.623047"/>
       <use xlink:href="#DejaVuSans-30" x="95.410156"/>
      </g>
     </g>
    </g>
    <g id="xtick_9">
     <g id="line2d_20">
      <g>
       <use xlink:href="#meafc75ac02" x="461.18625" y="174.04" style="stroke: #000000; stroke-width: 0.8"/>
      </g>
     </g>
     <g id="text_15">
      <!-- 1.5 -->
      <g transform="translate(453.234687 188.638438)scale(0.1 -0.1)">
       <use xlink:href="#DejaVuSans-31"/>
       <use xlink:href="#DejaVuSans-2e" x="63.623047"/>
       <use xlink:href="#DejaVuSans-35" x="95.410156"/>
      </g>
     </g>
    </g>
    <g id="xtick_10">
     <g id="line2d_21">
      <g>
       <use xlink:href="#meafc75ac02" x="515.56" y="174.04" style="stroke: #000000; stroke-width: 0.8"/>
      </g>
     </g>
     <g id="text_16">
      <!-- 2.0 -->
      <g transform="translate(507.608437 188.638438)scale(0.1 -0.1)">
       <use xlink:href="#DejaVuSans-32"/>
       <use xlink:href="#DejaVuSans-2e" x="63.623047"/>
       <use xlink:href="#DejaVuSans-30" x="95.410156"/>
      </g>
     </g>
    </g>
    <g id="text_17">
     <!-- Influence of surprisal (multiplication) -->
     <g transform="translate(314.665625 202.316563)scale(0.1 -0.1)">
      <use xlink:href="#DejaVuSans-49"/>
      <use xlink:href="#DejaVuSans-6e" x="29.492188"/>
      <use xlink:href="#DejaVuSans-66" x="92.871094"/>
      <use xlink:href="#DejaVuSans-6c" x="128.076172"/>
      <use xlink:href="#DejaVuSans-75" x="155.859375"/>
      <use xlink:href="#DejaVuSans-65" x="219.238281"/>
      <use xlink:href="#DejaVuSans-6e" x="280.761719"/>
      <use xlink:href="#DejaVuSans-63" x="344.140625"/>
      <use xlink:href="#DejaVuSans-65" x="399.121094"/>
      <use xlink:href="#DejaVuSans-20" x="460.644531"/>
      <use xlink:href="#DejaVuSans-6f" x="492.431641"/>
      <use xlink:href="#DejaVuSans-66" x="553.613281"/>
      <use xlink:href="#DejaVuSans-20" x="588.818359"/>
      <use xlink:href="#DejaVuSans-73" x="620.605469"/>
      <use xlink:href="#DejaVuSans-75" x="672.705078"/>
      <use xlink:href="#DejaVuSans-72" x="736.083984"/>
      <use xlink:href="#DejaVuSans-70" x="777.197266"/>
      <use xlink:href="#DejaVuSans-72" x="840.673828"/>
      <use xlink:href="#DejaVuSans-69" x="881.787109"/>
      <use xlink:href="#DejaVuSans-73" x="909.570312"/>
      <use xlink:href="#DejaVuSans-61" x="961.669922"/>
      <use xlink:href="#DejaVuSans-6c" x="1022.949219"/>
      <use xlink:href="#DejaVuSans-20" x="1050.732422"/>
      <use xlink:href="#DejaVuSans-28" x="1082.519531"/>
      <use xlink:href="#DejaVuSans-6d" x="1121.533203"/>
      <use xlink:href="#DejaVuSans-75" x="1218.945312"/>
      <use xlink:href="#DejaVuSans-6c" x="1282.324219"/>
      <use xlink:href="#DejaVuSans-74" x="1310.107422"/>
      <use xlink:href="#DejaVuSans-69" x="1349.316406"/>
      <use xlink:href="#DejaVuSans-70" x="1377.099609"/>
      <use xlink:href="#DejaVuSans-6c" x="1440.576172"/>
      <use xlink:href="#DejaVuSans-69" x="1468.359375"/>
      <use xlink:href="#DejaVuSans-63" x="1496.142578"/>
      <use xlink:href="#DejaVuSans-61" x="1551.123047"/>
      <use xlink:href="#DejaVuSans-74" x="1612.402344"/>
      <use xlink:href="#DejaVuSans-69" x="1651.611328"/>
      <use xlink:href="#DejaVuSans-6f" x="1679.394531"/>
      <use xlink:href="#DejaVuSans-6e" x="1740.576172"/>
      <use xlink:href="#DejaVuSans-29" x="1803.955078"/>
     </g>
    </g>
   </g>
   <g id="line2d_22">
    <path d="M 298.065 34.136587 
L 309.512105 34.958519 
L 320.959211 38.353681 
L 332.406316 42.743613 
L 343.853421 48.799015 
L 355.300526 55.336897 
L 366.747632 62.841839 
L 378.194737 70.876525 
L 389.641842 78.25139 
L 401.088947 86.873149 
L 412.536053 94.27275 
L 423.983158 101.414012 
L 435.430263 108.386781 
L 446.877368 115.534994 
L 458.324474 122.234369 
L 469.771579 128.552074 
L 481.218684 134.347633 
L 492.665789 140.386818 
L 504.112895 145.753889 
L 515.56 150.625027 
" clip-path="url(#p7be2308a10)" style="fill: none; stroke: #1f77b4; stroke-width: 1.5; stroke-linecap: square"/>
   </g>
   <g id="line2d_23">
    <path d="M 298.065 34.156791 
L 309.512105 34.977853 
L 320.959211 38.372749 
L 332.406316 42.763119 
L 343.853421 48.823608 
L 355.300526 55.372557 
L 366.747632 62.896134 
L 378.194737 70.945572 
L 389.641842 78.357072 
L 401.088947 87.017713 
L 412.536053 94.436892 
L 423.983158 101.620211 
L 435.430263 108.606346 
L 446.877368 115.804099 
L 458.324474 122.534804 
L 469.771579 128.883376 
L 481.218684 134.687903 
L 492.665789 140.743963 
L 504.112895 146.144044 
L 515.56 151.028 
" clip-path="url(#p7be2308a10)" style="fill: none; stroke: #ff7f0e; stroke-width: 1.5; stroke-linecap: square"/>
   </g>
   <g id="line2d_24">
    <path d="M 298.065 34.152928 
L 309.512105 34.974784 
L 320.959211 38.374959 
L 332.406316 42.757487 
L 343.853421 48.826811 
L 355.300526 55.352645 
L 366.747632 62.880608 
L 378.194737 70.924894 
L 389.641842 78.328789 
L 401.088947 86.988234 
L 412.536053 94.45434 
L 423.983158 101.606922 
L 435.430263 108.649054 
L 446.877368 115.896978 
L 458.324474 122.66292 
L 469.771579 129.053074 
L 481.218684 134.993701 
L 492.665789 141.085344 
L 504.112895 146.546617 
L 515.56 151.478663 
" clip-path="url(#p7be2308a10)" style="fill: none; stroke: #2ca02c; stroke-width: 1.5; stroke-linecap: square"/>
   </g>
   <g id="line2d_25">
    <path d="M 298.065 34.174537 
L 309.512105 34.991312 
L 320.959211 38.385444 
L 332.406316 42.765176 
L 343.853421 48.831029 
L 355.300526 55.357619 
L 366.747632 62.891585 
L 378.194737 70.936481 
L 389.641842 78.359773 
L 401.088947 87.038321 
L 412.536053 94.517706 
L 423.983158 101.698156 
L 435.430263 108.754681 
L 446.877368 116.037931 
L 458.324474 122.797187 
L 469.771579 129.206955 
L 481.218684 135.143038 
L 492.665789 141.226568 
L 504.112895 146.720662 
L 515.56 151.677869 
" clip-path="url(#p7be2308a10)" style="fill: none; stroke: #d62728; stroke-width: 1.5; stroke-linecap: square"/>
   </g>
   <g id="line2d_26">
    <path d="M 298.065 34.149532 
L 309.512105 34.978988 
L 320.959211 38.407176 
L 332.406316 42.737701 
L 343.853421 48.834493 
L 355.300526 55.477418 
L 366.747632 62.932519 
L 378.194737 71.087493 
L 389.641842 78.445496 
L 401.088947 86.763502 
L 412.536053 94.449271 
L 423.983158 101.451672 
L 435.430263 108.361111 
L 446.877368 115.672123 
L 458.324474 122.212463 
L 469.771579 128.658235 
L 481.218684 134.984136 
L 492.665789 141.110549 
L 504.112895 146.081879 
L 515.56 151.235779 
" clip-path="url(#p7be2308a10)" style="fill: none; stroke: #9467bd; stroke-width: 1.5; stroke-linecap: square"/>
   </g>
   <g id="line2d_27">
    <path d="M 298.065 34.169895 
L 309.512105 34.99886 
L 320.959211 38.426116 
L 332.406316 42.757679 
L 343.853421 48.858534 
L 355.300526 55.512694 
L 366.747632 62.983641 
L 378.194737 71.154793 
L 389.641842 78.546176 
L 401.088947 86.895977 
L 412.536053 94.609618 
L 423.983158 101.652626 
L 435.430263 108.586652 
L 446.877368 115.946608 
L 458.324474 122.505365 
L 469.771579 128.994704 
L 481.218684 135.333509 
L 492.665789 141.453019 
L 504.112895 146.488075 
L 515.56 151.622961 
" clip-path="url(#p7be2308a10)" style="fill: none; stroke: #8c564b; stroke-width: 1.5; stroke-linecap: square"/>
   </g>
   <g id="line2d_28">
    <path d="M 298.065 48.451901 
L 309.512105 49.219343 
L 320.959211 52.269472 
L 332.406316 56.343194 
L 343.853421 61.850198 
L 355.300526 67.816548 
L 366.747632 74.594468 
L 378.194737 82.005549 
L 389.641842 88.746313 
L 401.088947 96.470024 
L 412.536053 103.185891 
L 423.983158 109.717483 
L 435.430263 116.180192 
L 446.877368 122.765644 
L 458.324474 128.839752 
L 469.771579 134.699348 
L 481.218684 140.219709 
L 492.665789 145.855679 
L 504.112895 150.900328 
L 515.56 155.577563 
" clip-path="url(#p7be2308a10)" style="fill: none; stroke: #e377c2; stroke-width: 1.5; stroke-linecap: square"/>
   </g>
   <g id="line2d_29">
    <path d="M 298.065 34.167175 
L 309.512105 34.993747 
L 320.959211 38.402068 
L 332.406316 42.790209 
L 343.853421 48.878004 
L 355.300526 55.405933 
L 366.747632 62.927603 
L 378.194737 70.988683 
L 389.641842 78.4269 
L 401.088947 87.08857 
L 412.536053 94.54431 
L 423.983158 101.737739 
L 435.430263 108.774798 
L 446.877368 115.97948 
L 458.324474 122.750416 
L 469.771579 129.122539 
L 481.218684 135.020725 
L 492.665789 141.070848 
L 504.112895 146.598214 
L 515.56 151.502404 
" clip-path="url(#p7be2308a10)" style="fill: none; stroke: #7f7f7f; stroke-width: 1.5; stroke-linecap: square"/>
   </g>
   <g id="patch_6">
    <path d="M 298.065 174.04 
L 298.065 26.88 
" style="fill: none; stroke: #000000; stroke-width: 0.8; stroke-linejoin: miter; stroke-linecap: square"/>
   </g>
   <g id="patch_7">
    <path d="M 298.065 174.04 
L 515.56 174.04 
" style="fill: none; stroke: #000000; stroke-width: 0.8; stroke-linejoin: miter; stroke-linecap: square"/>
   </g>
   <g id="text_18">
    <!-- Node * third variable -->
    <g transform="translate(344.2325 20.88)scale(0.12 -0.12)">
     <defs>
      <path id="DejaVuSans-68" d="M 3513 2113 
L 3513 0 
L 2938 0 
L 2938 2094 
Q 2938 2591 2744 2837 
Q 2550 3084 2163 3084 
Q 1697 3084 1428 2787 
Q 1159 2491 1159 1978 
L 1159 0 
L 581 0 
L 581 4863 
L 1159 4863 
L 1159 2956 
Q 1366 3272 1645 3428 
Q 1925 3584 2291 3584 
Q 2894 3584 3203 3211 
Q 3513 2838 3513 2113 
z
" transform="scale(0.015625)"/>
      <path id="DejaVuSans-62" d="M 3116 1747 
Q 3116 2381 2855 2742 
Q 2594 3103 2138 3103 
Q 1681 3103 1420 2742 
Q 1159 2381 1159 1747 
Q 1159 1113 1420 752 
Q 1681 391 2138 391 
Q 2594 391 2855 752 
Q 3116 1113 3116 1747 
z
M 1159 2969 
Q 1341 3281 1617 3432 
Q 1894 3584 2278 3584 
Q 2916 3584 3314 3078 
Q 3713 2572 3713 1747 
Q 3713 922 3314 415 
Q 2916 -91 2278 -91 
Q 1894 -91 1617 61 
Q 1341 213 1159 525 
L 1159 0 
L 581 0 
L 581 4863 
L 1159 4863 
L 1159 2969 
z
" transform="scale(0.015625)"/>
     </defs>
     <use xlink:href="#DejaVuSans-4e"/>
     <use xlink:href="#DejaVuSans-6f" x="74.804688"/>
     <use xlink:href="#DejaVuSans-64" x="135.986328"/>
     <use xlink:href="#DejaVuSans-65" x="199.462891"/>
     <use xlink:href="#DejaVuSans-20" x="260.986328"/>
     <use xlink:href="#DejaVuSans-2a" x="292.773438"/>
     <use xlink:href="#DejaVuSans-20" x="342.773438"/>
     <use xlink:href="#DejaVuSans-74" x="374.560547"/>
     <use xlink:href="#DejaVuSans-68" x="413.769531"/>
     <use xlink:href="#DejaVuSans-69" x="477.148438"/>
     <use xlink:href="#DejaVuSans-72" x="504.931641"/>
     <use xlink:href="#DejaVuSans-64" x="544.294922"/>
     <use xlink:href="#DejaVuSans-20" x="607.771484"/>
     <use xlink:href="#DejaVuSans-76" x="639.558594"/>
     <use xlink:href="#DejaVuSans-61" x="698.738281"/>
     <use xlink:href="#DejaVuSans-72" x="760.017578"/>
     <use xlink:href="#DejaVuSans-69" x="801.130859"/>
     <use xlink:href="#DejaVuSans-61" x="828.914062"/>
     <use xlink:href="#DejaVuSans-62" x="890.193359"/>
     <use xlink:href="#DejaVuSans-6c" x="953.669922"/>
     <use xlink:href="#DejaVuSans-65" x="981.453125"/>
    </g>
   </g>
   <g id="legend_1">
    <g id="line2d_30">
     <path d="M 524.56 39.978437 
L 534.56 39.978437 
L 544.56 39.978437 
" style="fill: none; stroke: #1f77b4; stroke-width: 1.5; stroke-linecap: square"/>
    </g>
    <g id="text_19">
     <!-- Node -->
     <g transform="translate(552.56 43.478437)scale(0.1 -0.1)">
      <use xlink:href="#DejaVuSans-4e"/>
      <use xlink:href="#DejaVuSans-6f" x="74.804688"/>
      <use xlink:href="#DejaVuSans-64" x="135.986328"/>
      <use xlink:href="#DejaVuSans-65" x="199.462891"/>
     </g>
    </g>
    <g id="line2d_31">
     <path d="M 524.56 54.656563 
L 534.56 54.656563 
L 544.56 54.656563 
" style="fill: none; stroke: #ff7f0e; stroke-width: 1.5; stroke-linecap: square"/>
    </g>
    <g id="text_20">
     <!-- Node + surprisal -->
     <g transform="translate(552.56 58.156563)scale(0.1 -0.1)">
      <defs>
       <path id="DejaVuSans-2b" d="M 2944 4013 
L 2944 2272 
L 4684 2272 
L 4684 1741 
L 2944 1741 
L 2944 0 
L 2419 0 
L 2419 1741 
L 678 1741 
L 678 2272 
L 2419 2272 
L 2419 4013 
L 2944 4013 
z
" transform="scale(0.015625)"/>
      </defs>
      <use xlink:href="#DejaVuSans-4e"/>
      <use xlink:href="#DejaVuSans-6f" x="74.804688"/>
      <use xlink:href="#DejaVuSans-64" x="135.986328"/>
      <use xlink:href="#DejaVuSans-65" x="199.462891"/>
      <use xlink:href="#DejaVuSans-20" x="260.986328"/>
      <use xlink:href="#DejaVuSans-2b" x="292.773438"/>
      <use xlink:href="#DejaVuSans-20" x="376.5625"/>
      <use xlink:href="#DejaVuSans-73" x="408.349609"/>
      <use xlink:href="#DejaVuSans-75" x="460.449219"/>
      <use xlink:href="#DejaVuSans-72" x="523.828125"/>
      <use xlink:href="#DejaVuSans-70" x="564.941406"/>
      <use xlink:href="#DejaVuSans-72" x="628.417969"/>
      <use xlink:href="#DejaVuSans-69" x="669.53125"/>
      <use xlink:href="#DejaVuSans-73" x="697.314453"/>
      <use xlink:href="#DejaVuSans-61" x="749.414062"/>
      <use xlink:href="#DejaVuSans-6c" x="810.693359"/>
     </g>
    </g>
    <g id="line2d_32">
     <path d="M 524.56 69.334687 
L 534.56 69.334687 
L 544.56 69.334687 
" style="fill: none; stroke: #2ca02c; stroke-width: 1.5; stroke-linecap: square"/>
    </g>
    <g id="text_21">
     <!-- Node split -->
     <g transform="translate(552.56 72.834687)scale(0.1 -0.1)">
      <use xlink:href="#DejaVuSans-4e"/>
      <use xlink:href="#DejaVuSans-6f" x="74.804688"/>
      <use xlink:href="#DejaVuSans-64" x="135.986328"/>
      <use xlink:href="#DejaVuSans-65" x="199.462891"/>
      <use xlink:href="#DejaVuSans-20" x="260.986328"/>
      <use xlink:href="#DejaVuSans-73" x="292.773438"/>
      <use xlink:href="#DejaVuSans-70" x="344.873047"/>
      <use xlink:href="#DejaVuSans-6c" x="408.349609"/>
      <use xlink:href="#DejaVuSans-69" x="436.132812"/>
      <use xlink:href="#DejaVuSans-74" x="463.916016"/>
     </g>
    </g>
    <g id="line2d_33">
     <path d="M 524.56 84.012812 
L 534.56 84.012812 
L 544.56 84.012812 
" style="fill: none; stroke: #d62728; stroke-width: 1.5; stroke-linecap: square"/>
    </g>
    <g id="text_22">
     <!-- Node split + surprisal -->
     <g transform="translate(552.56 87.512812)scale(0.1 -0.1)">
      <use xlink:href="#DejaVuSans-4e"/>
      <use xlink:href="#DejaVuSans-6f" x="74.804688"/>
      <use xlink:href="#DejaVuSans-64" x="135.986328"/>
      <use xlink:href="#DejaVuSans-65" x="199.462891"/>
      <use xlink:href="#DejaVuSans-20" x="260.986328"/>
      <use xlink:href="#DejaVuSans-73" x="292.773438"/>
      <use xlink:href="#DejaVuSans-70" x="344.873047"/>
      <use xlink:href="#DejaVuSans-6c" x="408.349609"/>
      <use xlink:href="#DejaVuSans-69" x="436.132812"/>
      <use xlink:href="#DejaVuSans-74" x="463.916016"/>
      <use xlink:href="#DejaVuSans-20" x="503.125"/>
      <use xlink:href="#DejaVuSans-2b" x="534.912109"/>
      <use xlink:href="#DejaVuSans-20" x="618.701172"/>
      <use xlink:href="#DejaVuSans-73" x="650.488281"/>
      <use xlink:href="#DejaVuSans-75" x="702.587891"/>
      <use xlink:href="#DejaVuSans-72" x="765.966797"/>
      <use xlink:href="#DejaVuSans-70" x="807.080078"/>
      <use xlink:href="#DejaVuSans-72" x="870.556641"/>
      <use xlink:href="#DejaVuSans-69" x="911.669922"/>
      <use xlink:href="#DejaVuSans-73" x="939.453125"/>
      <use xlink:href="#DejaVuSans-61" x="991.552734"/>
      <use xlink:href="#DejaVuSans-6c" x="1052.832031"/>
     </g>
    </g>
    <g id="line2d_34">
     <path d="M 524.56 98.690937 
L 534.56 98.690937 
L 544.56 98.690937 
" style="fill: none; stroke: #9467bd; stroke-width: 1.5; stroke-linecap: square"/>
    </g>
    <g id="text_23">
     <!-- Node random split -->
     <g transform="translate(552.56 102.190937)scale(0.1 -0.1)">
      <use xlink:href="#DejaVuSans-4e"/>
      <use xlink:href="#DejaVuSans-6f" x="74.804688"/>
      <use xlink:href="#DejaVuSans-64" x="135.986328"/>
      <use xlink:href="#DejaVuSans-65" x="199.462891"/>
      <use xlink:href="#DejaVuSans-20" x="260.986328"/>
      <use xlink:href="#DejaVuSans-72" x="292.773438"/>
      <use xlink:href="#DejaVuSans-61" x="333.886719"/>
      <use xlink:href="#DejaVuSans-6e" x="395.166016"/>
      <use xlink:href="#DejaVuSans-64" x="458.544922"/>
      <use xlink:href="#DejaVuSans-6f" x="522.021484"/>
      <use xlink:href="#DejaVuSans-6d" x="583.203125"/>
      <use xlink:href="#DejaVuSans-20" x="680.615234"/>
      <use xlink:href="#DejaVuSans-73" x="712.402344"/>
      <use xlink:href="#DejaVuSans-70" x="764.501953"/>
      <use xlink:href="#DejaVuSans-6c" x="827.978516"/>
      <use xlink:href="#DejaVuSans-69" x="855.761719"/>
      <use xlink:href="#DejaVuSans-74" x="883.544922"/>
     </g>
    </g>
    <g id="line2d_35">
     <path d="M 524.56 113.369062 
L 534.56 113.369062 
L 544.56 113.369062 
" style="fill: none; stroke: #8c564b; stroke-width: 1.5; stroke-linecap: square"/>
    </g>
    <g id="text_24">
     <!-- Node random split + surprisal -->
     <g transform="translate(552.56 116.869062)scale(0.1 -0.1)">
      <use xlink:href="#DejaVuSans-4e"/>
      <use xlink:href="#DejaVuSans-6f" x="74.804688"/>
      <use xlink:href="#DejaVuSans-64" x="135.986328"/>
      <use xlink:href="#DejaVuSans-65" x="199.462891"/>
      <use xlink:href="#DejaVuSans-20" x="260.986328"/>
      <use xlink:href="#DejaVuSans-72" x="292.773438"/>
      <use xlink:href="#DejaVuSans-61" x="333.886719"/>
      <use xlink:href="#DejaVuSans-6e" x="395.166016"/>
      <use xlink:href="#DejaVuSans-64" x="458.544922"/>
      <use xlink:href="#DejaVuSans-6f" x="522.021484"/>
      <use xlink:href="#DejaVuSans-6d" x="583.203125"/>
      <use xlink:href="#DejaVuSans-20" x="680.615234"/>
      <use xlink:href="#DejaVuSans-73" x="712.402344"/>
      <use xlink:href="#DejaVuSans-70" x="764.501953"/>
      <use xlink:href="#DejaVuSans-6c" x="827.978516"/>
      <use xlink:href="#DejaVuSans-69" x="855.761719"/>
      <use xlink:href="#DejaVuSans-74" x="883.544922"/>
      <use xlink:href="#DejaVuSans-20" x="922.753906"/>
      <use xlink:href="#DejaVuSans-2b" x="954.541016"/>
      <use xlink:href="#DejaVuSans-20" x="1038.330078"/>
      <use xlink:href="#DejaVuSans-73" x="1070.117188"/>
      <use xlink:href="#DejaVuSans-75" x="1122.216797"/>
      <use xlink:href="#DejaVuSans-72" x="1185.595703"/>
      <use xlink:href="#DejaVuSans-70" x="1226.708984"/>
      <use xlink:href="#DejaVuSans-72" x="1290.185547"/>
      <use xlink:href="#DejaVuSans-69" x="1331.298828"/>
      <use xlink:href="#DejaVuSans-73" x="1359.082031"/>
      <use xlink:href="#DejaVuSans-61" x="1411.181641"/>
      <use xlink:href="#DejaVuSans-6c" x="1472.460938"/>
     </g>
    </g>
    <g id="line2d_36">
     <path d="M 524.56 128.047187 
L 534.56 128.047187 
L 544.56 128.047187 
" style="fill: none; stroke: #e377c2; stroke-width: 1.5; stroke-linecap: square"/>
    </g>
    <g id="text_25">
     <!-- Interaction -->
     <g transform="translate(552.56 131.547187)scale(0.1 -0.1)">
      <use xlink:href="#DejaVuSans-49"/>
      <use xlink:href="#DejaVuSans-6e" x="29.492188"/>
      <use xlink:href="#DejaVuSans-74" x="92.871094"/>
      <use xlink:href="#DejaVuSans-65" x="132.080078"/>
      <use xlink:href="#DejaVuSans-72" x="193.603516"/>
      <use xlink:href="#DejaVuSans-61" x="234.716797"/>
      <use xlink:href="#DejaVuSans-63" x="295.996094"/>
      <use xlink:href="#DejaVuSans-74" x="350.976562"/>
      <use xlink:href="#DejaVuSans-69" x="390.185547"/>
      <use xlink:href="#DejaVuSans-6f" x="417.96875"/>
      <use xlink:href="#DejaVuSans-6e" x="479.150391"/>
     </g>
    </g>
    <g id="line2d_37">
     <path d="M 524.56 142.725312 
L 534.56 142.725312 
L 544.56 142.725312 
" style="fill: none; stroke: #7f7f7f; stroke-width: 1.5; stroke-linecap: square"/>
    </g>
    <g id="text_26">
     <!-- Node + surprisal + interaction -->
     <g transform="translate(552.56 146.225312)scale(0.1 -0.1)">
      <use xlink:href="#DejaVuSans-4e"/>
      <use xlink:href="#DejaVuSans-6f" x="74.804688"/>
      <use xlink:href="#DejaVuSans-64" x="135.986328"/>
      <use xlink:href="#DejaVuSans-65" x="199.462891"/>
      <use xlink:href="#DejaVuSans-20" x="260.986328"/>
      <use xlink:href="#DejaVuSans-2b" x="292.773438"/>
      <use xlink:href="#DejaVuSans-20" x="376.5625"/>
      <use xlink:href="#DejaVuSans-73" x="408.349609"/>
      <use xlink:href="#DejaVuSans-75" x="460.449219"/>
      <use xlink:href="#DejaVuSans-72" x="523.828125"/>
      <use xlink:href="#DejaVuSans-70" x="564.941406"/>
      <use xlink:href="#DejaVuSans-72" x="628.417969"/>
      <use xlink:href="#DejaVuSans-69" x="669.53125"/>
      <use xlink:href="#DejaVuSans-73" x="697.314453"/>
      <use xlink:href="#DejaVuSans-61" x="749.414062"/>
      <use xlink:href="#DejaVuSans-6c" x="810.693359"/>
      <use xlink:href="#DejaVuSans-20" x="838.476562"/>
      <use xlink:href="#DejaVuSans-2b" x="870.263672"/>
      <use xlink:href="#DejaVuSans-20" x="954.052734"/>
      <use xlink:href="#DejaVuSans-69" x="985.839844"/>
      <use xlink:href="#DejaVuSans-6e" x="1013.623047"/>
      <use xlink:href="#DejaVuSans-74" x="1077.001953"/>
      <use xlink:href="#DejaVuSans-65" x="1116.210938"/>
      <use xlink:href="#DejaVuSans-72" x="1177.734375"/>
      <use xlink:href="#DejaVuSans-61" x="1218.847656"/>
      <use xlink:href="#DejaVuSans-63" x="1280.126953"/>
      <use xlink:href="#DejaVuSans-74" x="1335.107422"/>
      <use xlink:href="#DejaVuSans-69" x="1374.316406"/>
      <use xlink:href="#DejaVuSans-6f" x="1402.099609"/>
      <use xlink:href="#DejaVuSans-6e" x="1463.28125"/>
     </g>
    </g>
   </g>
  </g>
 </g>
 <defs>
  <clipPath id="p524d0c26e2">
   <rect x="47.72" y="26.88" width="217.495" height="147.16"/>
  </clipPath>
  <clipPath id="p7be2308a10">
   <rect x="298.065" y="26.88" width="217.495" height="147.16"/>
  </clipPath>
 </defs>
</svg>
