<?xml version="1.0" encoding="utf-8" standalone="no"?>
<!DOCTYPE svg PUBLIC "-//W3C//DTD SVG 1.1//EN"
  "http://www.w3.org/Graphics/SVG/1.1/DTD/svg11.dtd">
<svg xmlns:xlink="http://www.w3.org/1999/xlink" width="720pt" height="216pt" viewBox="0 0 720 216" xmlns="http://www.w3.org/2000/svg" version="1.1">
 <metadata>
  <rdf:RDF xmlns:dc="http://purl.org/dc/elements/1.1/" xmlns:cc="http://creativecommons.org/ns#" xmlns:rdf="http://www.w3.org/1999/02/22-rdf-syntax-ns#">
   <cc:Work>
    <dc:type rdf:resource="http://purl.org/dc/dcmitype/StillImage"/>
    <dc:date>2024-01-15T23:33:58.675866</dc:date>
    <dc:format>image/svg+xml</dc:format>
    <dc:creator>
     <cc:Agent>
      <dc:title>Matplotlib v3.5.1, https://matplotlib.org/</dc:title>
     </cc:Agent>
    </dc:creator>
   </cc:Work>
  </rdf:RDF>
 </metadata>
 <defs>
  <style type="text/css">*{stroke-linejoin: round; stroke-linecap: butt}</style>
 </defs>
 <g id="figure_1">
  <g id="patch_1">
   <path d="M 0 216 
L 720 216 
L 720 0 
L 0 0 
z
" style="fill: #ffffff"/>
  </g>
  <g id="axes_1">
   <g id="patch_2">
    <path d="M 47.72 174.04 
L 265.215 174.04 
L 265.215 26.88 
L 47.72 26.88 
z
" style="fill: #ffffff"/>
   </g>
   <g id="PolyCollection_1">
    <path d="M 47.72 33.571921 
L 47.72 34.395198 
L 59.167105 35.257504 
L 70.614211 38.375592 
L 82.061316 42.695232 
L 93.508421 48.3389 
L 104.955526 55.062922 
L 116.402632 62.429128 
L 127.849737 70.755268 
L 139.296842 79.172811 
L 150.743947 86.798838 
L 162.191053 94.819715 
L 173.638158 102.70654 
L 185.085263 110.07363 
L 196.532368 117.455003 
L 207.979474 123.477279 
L 219.426579 130.112684 
L 230.873684 135.513411 
L 242.320789 140.900529 
L 253.767895 145.541976 
L 265.215 149.375198 
L 265.215 133.097766 
L 265.215 133.097766 
L 253.767895 129.373404 
L 242.320789 123.887532 
L 230.873684 119.72563 
L 219.426579 113.934349 
L 207.979474 108.098923 
L 196.532368 102.193314 
L 185.085263 96.116284 
L 173.638158 89.776873 
L 162.191053 83.088284 
L 150.743947 75.853424 
L 139.296842 69.46963 
L 127.849737 62.536258 
L 116.402632 56.104809 
L 104.955526 50.156422 
L 93.508421 44.268114 
L 82.061316 39.884634 
L 70.614211 37.0222 
L 59.167105 34.235671 
L 47.72 33.571921 
z
" clip-path="url(#p4ba27efa9a)" style="fill: #1f77b4; fill-opacity: 0.4"/>
   </g>
   <g id="PolyCollection_2">
    <path d="M 47.72 33.582465 
L 47.72 34.406676 
L 59.167105 34.897752 
L 70.614211 36.508639 
L 82.061316 38.671029 
L 93.508421 41.588991 
L 104.955526 45.546569 
L 116.402632 50.22097 
L 127.849737 55.944634 
L 139.296842 62.073553 
L 150.743947 68.159542 
L 162.191053 74.780533 
L 173.638158 81.390925 
L 185.085263 88.173967 
L 196.532368 94.843823 
L 207.979474 100.311368 
L 219.426579 106.745129 
L 230.873684 112.120722 
L 242.320789 117.74343 
L 253.767895 122.311526 
L 265.215 126.666368 
L 265.215 116.224608 
L 265.215 116.224608 
L 253.767895 112.070501 
L 242.320789 106.299344 
L 230.873684 101.557517 
L 219.426579 95.743189 
L 207.979474 90.076439 
L 196.532368 84.177208 
L 185.085263 78.301367 
L 173.638158 72.487934 
L 162.191053 66.606859 
L 150.743947 60.886163 
L 139.296842 55.942794 
L 127.849737 50.804108 
L 116.402632 46.773767 
L 104.955526 43.072723 
L 93.508421 39.379148 
L 82.061316 36.955178 
L 70.614211 35.523159 
L 59.167105 33.973893 
L 47.72 33.582465 
z
" clip-path="url(#p4ba27efa9a)" style="fill: #ff7f0e; fill-opacity: 0.4"/>
   </g>
   <g id="PolyCollection_3">
    <path d="M 47.72 33.5854 
L 47.72 34.409058 
L 59.167105 35.025709 
L 70.614211 36.376682 
L 82.061316 38.180053 
L 93.508421 40.399987 
L 104.955526 43.582276 
L 116.402632 46.519298 
L 127.849737 50.045145 
L 139.296842 54.154259 
L 150.743947 57.433833 
L 162.191053 60.94997 
L 173.638158 64.780741 
L 185.085263 68.868268 
L 196.532368 72.661657 
L 207.979474 76.375676 
L 219.426579 80.104319 
L 230.873684 83.211475 
L 242.320789 87.215712 
L 253.767895 90.460068 
L 265.215 93.606704 
L 265.215 83.570528 
L 265.215 83.570528 
L 253.767895 80.749315 
L 242.320789 77.53443 
L 230.873684 74.48993 
L 219.426579 71.022314 
L 207.979474 67.908623 
L 196.532368 64.712591 
L 185.085263 61.345441 
L 173.638158 57.967802 
L 162.191053 54.705076 
L 150.743947 51.690535 
L 139.296842 48.515367 
L 127.849737 45.570257 
L 116.402632 42.939065 
L 104.955526 40.638445 
L 93.508421 38.273251 
L 82.061316 36.593873 
L 70.614211 35.46234 
L 59.167105 34.075364 
L 47.72 33.5854 
z
" clip-path="url(#p4ba27efa9a)" style="fill: #2ca02c; fill-opacity: 0.4"/>
   </g>
   <g id="PolyCollection_4">
    <path d="M 47.72 33.595319 
L 47.72 34.417036 
L 59.167105 34.872842 
L 70.614211 35.891141 
L 82.061316 37.163152 
L 93.508421 38.829319 
L 104.955526 41.377806 
L 116.402632 43.90371 
L 127.849737 47.152433 
L 139.296842 51.091347 
L 150.743947 54.358598 
L 162.191053 58.056225 
L 173.638158 62.011649 
L 185.085263 66.258496 
L 196.532368 70.336477 
L 207.979474 74.118389 
L 219.426579 77.963108 
L 230.873684 81.187024 
L 242.320789 85.37686 
L 253.767895 88.833197 
L 265.215 91.991741 
L 265.215 81.632202 
L 265.215 81.632202 
L 253.767895 78.713092 
L 242.320789 75.438668 
L 230.873684 72.384539 
L 219.426579 68.799579 
L 207.979474 65.559968 
L 196.532368 62.263487 
L 185.085263 58.768297 
L 173.638158 55.291602 
L 162.191053 51.974009 
L 150.743947 49.009716 
L 139.296842 45.924735 
L 127.849737 43.212567 
L 116.402632 41.00986 
L 104.955526 39.116633 
L 93.508421 37.096052 
L 82.061316 35.861581 
L 70.614211 35.058206 
L 59.167105 33.966333 
L 47.72 33.595319 
z
" clip-path="url(#p4ba27efa9a)" style="fill: #d62728; fill-opacity: 0.4"/>
   </g>
   <g id="PolyCollection_5">
    <path d="M 47.72 33.569091 
L 47.72 34.408336 
L 59.167105 35.261188 
L 70.614211 38.392759 
L 82.061316 42.681037 
L 93.508421 48.412354 
L 104.955526 55.266372 
L 116.402632 62.322773 
L 127.849737 70.944259 
L 139.296842 79.338075 
L 150.743947 86.66021 
L 162.191053 95.230213 
L 173.638158 102.789679 
L 185.085263 110.268303 
L 196.532368 117.880992 
L 207.979474 123.494236 
L 219.426579 131.493109 
L 230.873684 136.387408 
L 242.320789 141.456508 
L 253.767895 147.600611 
L 265.215 149.831118 
L 265.215 133.827104 
L 265.215 133.827104 
L 253.767895 129.568993 
L 242.320789 124.318682 
L 230.873684 120.314953 
L 219.426579 113.767276 
L 207.979474 108.073712 
L 196.532368 102.597269 
L 185.085263 96.112029 
L 173.638158 90.008708 
L 162.191053 83.274227 
L 150.743947 75.985003 
L 139.296842 69.763166 
L 127.849737 62.592837 
L 116.402632 56.10728 
L 104.955526 50.150149 
L 93.508421 44.318486 
L 82.061316 39.946666 
L 70.614211 37.033514 
L 59.167105 34.251191 
L 47.72 33.569091 
z
" clip-path="url(#p4ba27efa9a)" style="fill: #9467bd; fill-opacity: 0.4"/>
   </g>
   <g id="PolyCollection_6">
    <path d="M 47.72 33.580454 
L 47.72 34.420465 
L 59.167105 34.903488 
L 70.614211 36.520605 
L 82.061316 38.677386 
L 93.508421 41.63015 
L 104.955526 45.631621 
L 116.402632 50.261095 
L 127.849737 56.02979 
L 139.296842 62.264045 
L 150.743947 68.225594 
L 162.191053 75.085018 
L 173.638158 81.429744 
L 185.085263 88.405164 
L 196.532368 95.238697 
L 207.979474 100.347079 
L 219.426579 107.448173 
L 230.873684 112.765448 
L 242.320789 118.110871 
L 253.767895 123.754837 
L 265.215 127.449794 
L 265.215 116.816463 
L 265.215 116.816463 
L 253.767895 112.011883 
L 242.320789 106.57764 
L 230.873684 101.760205 
L 219.426579 95.961542 
L 207.979474 90.087415 
L 196.532368 84.311752 
L 185.085263 78.252505 
L 173.638158 72.663543 
L 162.191053 66.706086 
L 150.743947 60.909755 
L 139.296842 56.114102 
L 127.849737 50.7954 
L 116.402632 46.779759 
L 104.955526 43.066256 
L 93.508421 39.402709 
L 82.061316 36.999978 
L 70.614211 35.533905 
L 59.167105 33.988135 
L 47.72 33.580454 
z
" clip-path="url(#p4ba27efa9a)" style="fill: #8c564b; fill-opacity: 0.4"/>
   </g>
   <g id="PolyCollection_7">
    <path d="M 47.72 46.338347 
L 47.72 49.690561 
L 59.167105 50.85223 
L 70.614211 54.678437 
L 82.061316 60.140588 
L 93.508421 66.490082 
L 104.955526 74.898639 
L 116.402632 83.134451 
L 127.849737 91.996804 
L 139.296842 101.172184 
L 150.743947 109.011265 
L 162.191053 117.120375 
L 173.638158 124.78158 
L 185.085263 132.315222 
L 196.532368 139.104491 
L 207.979474 145.101748 
L 219.426579 150.951099 
L 230.873684 155.555077 
L 242.320789 160.346807 
L 253.767895 164.265945 
L 265.215 167.350909 
L 265.215 152.045415 
L 265.215 152.045415 
L 253.767895 148.615506 
L 242.320789 144.014457 
L 230.873684 139.87003 
L 219.426579 134.145205 
L 207.979474 128.372043 
L 196.532368 122.596261 
L 185.085263 116.038665 
L 173.638158 108.961704 
L 162.191053 101.596156 
L 150.743947 93.583822 
L 139.296842 86.10272 
L 127.849737 78.552902 
L 116.402632 71.138153 
L 104.955526 64.297931 
L 93.508421 58.1215 
L 82.061316 53.180716 
L 70.614211 49.860482 
L 59.167105 47.167916 
L 47.72 46.338347 
z
" clip-path="url(#p4ba27efa9a)" style="fill: #e377c2; fill-opacity: 0.4"/>
   </g>
   <g id="PolyCollection_8">
    <path d="M 47.72 33.597965 
L 47.72 34.419933 
L 59.167105 34.623503 
L 70.614211 34.874663 
L 82.061316 35.375894 
L 93.508421 36.064738 
L 104.955526 38.581292 
L 116.402632 41.302886 
L 127.849737 45.463715 
L 139.296842 50.706112 
L 150.743947 55.887636 
L 162.191053 61.340805 
L 173.638158 67.482091 
L 185.085263 73.834139 
L 196.532368 80.029759 
L 207.979474 85.760454 
L 219.426579 92.167267 
L 230.873684 97.741925 
L 242.320789 104.394599 
L 253.767895 109.923562 
L 265.215 114.891165 
L 265.215 101.653396 
L 265.215 101.653396 
L 253.767895 96.475103 
L 242.320789 90.603052 
L 230.873684 84.887003 
L 219.426579 78.554999 
L 207.979474 72.797754 
L 196.532368 66.869692 
L 185.085263 60.890537 
L 173.638158 55.46399 
L 162.191053 50.516916 
L 150.743947 46.025372 
L 139.296842 42.444174 
L 127.849737 39.501089 
L 116.402632 37.40348 
L 104.955526 35.897192 
L 93.508421 34.882998 
L 82.061316 34.220698 
L 70.614211 34.118178 
L 59.167105 33.735873 
L 47.72 33.597965 
z
" clip-path="url(#p4ba27efa9a)" style="fill: #7f7f7f; fill-opacity: 0.4"/>
   </g>
   <g id="matplotlib.axis_1">
    <g id="xtick_1">
     <g id="line2d_1">
      <defs>
       <path id="m65a0eadd64" d="M 0 0 
L 0 3.5 
" style="stroke: #000000; stroke-width: 0.8"/>
      </defs>
      <g>
       <use xlink:href="#m65a0eadd64" x="47.72" y="174.04" style="stroke: #000000; stroke-width: 0.8"/>
      </g>
     </g>
     <g id="text_1">
      <!-- 0.0 -->
      <g transform="translate(39.768438 188.638438)scale(0.1 -0.1)">
       <defs>
        <path id="DejaVuSans-30" d="M 2034 4250 
Q 1547 4250 1301 3770 
Q 1056 3291 1056 2328 
Q 1056 1369 1301 889 
Q 1547 409 2034 409 
Q 2525 409 2770 889 
Q 3016 1369 3016 2328 
Q 3016 3291 2770 3770 
Q 2525 4250 2034 4250 
z
M 2034 4750 
Q 2819 4750 3233 4129 
Q 3647 3509 3647 2328 
Q 3647 1150 3233 529 
Q 2819 -91 2034 -91 
Q 1250 -91 836 529 
Q 422 1150 422 2328 
Q 422 3509 836 4129 
Q 1250 4750 2034 4750 
z
" transform="scale(0.015625)"/>
        <path id="DejaVuSans-2e" d="M 684 794 
L 1344 794 
L 1344 0 
L 684 0 
L 684 794 
z
" transform="scale(0.015625)"/>
       </defs>
       <use xlink:href="#DejaVuSans-30"/>
       <use xlink:href="#DejaVuSans-2e" x="63.623047"/>
       <use xlink:href="#DejaVuSans-30" x="95.410156"/>
      </g>
     </g>
    </g>
    <g id="xtick_2">
     <g id="line2d_2">
      <g>
       <use xlink:href="#m65a0eadd64" x="102.09375" y="174.04" style="stroke: #000000; stroke-width: 0.8"/>
      </g>
     </g>
     <g id="text_2">
      <!-- 0.5 -->
      <g transform="translate(94.142188 188.638438)scale(0.1 -0.1)">
       <defs>
        <path id="DejaVuSans-35" d="M 691 4666 
L 3169 4666 
L 3169 4134 
L 1269 4134 
L 1269 2991 
Q 1406 3038 1543 3061 
Q 1681 3084 1819 3084 
Q 2600 3084 3056 2656 
Q 3513 2228 3513 1497 
Q 3513 744 3044 326 
Q 2575 -91 1722 -91 
Q 1428 -91 1123 -41 
Q 819 9 494 109 
L 494 744 
Q 775 591 1075 516 
Q 1375 441 1709 441 
Q 2250 441 2565 725 
Q 2881 1009 2881 1497 
Q 2881 1984 2565 2268 
Q 2250 2553 1709 2553 
Q 1456 2553 1204 2497 
Q 953 2441 691 2322 
L 691 4666 
z
" transform="scale(0.015625)"/>
       </defs>
       <use xlink:href="#DejaVuSans-30"/>
       <use xlink:href="#DejaVuSans-2e" x="63.623047"/>
       <use xlink:href="#DejaVuSans-35" x="95.410156"/>
      </g>
     </g>
    </g>
    <g id="xtick_3">
     <g id="line2d_3">
      <g>
       <use xlink:href="#m65a0eadd64" x="156.4675" y="174.04" style="stroke: #000000; stroke-width: 0.8"/>
      </g>
     </g>
     <g id="text_3">
      <!-- 1.0 -->
      <g transform="translate(148.515938 188.638438)scale(0.1 -0.1)">
       <defs>
        <path id="DejaVuSans-31" d="M 794 531 
L 1825 531 
L 1825 4091 
L 703 3866 
L 703 4441 
L 1819 4666 
L 2450 4666 
L 2450 531 
L 3481 531 
L 3481 0 
L 794 0 
L 794 531 
z
" transform="scale(0.015625)"/>
       </defs>
       <use xlink:href="#DejaVuSans-31"/>
       <use xlink:href="#DejaVuSans-2e" x="63.623047"/>
       <use xlink:href="#DejaVuSans-30" x="95.410156"/>
      </g>
     </g>
    </g>
    <g id="xtick_4">
     <g id="line2d_4">
      <g>
       <use xlink:href="#m65a0eadd64" x="210.84125" y="174.04" style="stroke: #000000; stroke-width: 0.8"/>
      </g>
     </g>
     <g id="text_4">
      <!-- 1.5 -->
      <g transform="translate(202.889687 188.638438)scale(0.1 -0.1)">
       <use xlink:href="#DejaVuSans-31"/>
       <use xlink:href="#DejaVuSans-2e" x="63.623047"/>
       <use xlink:href="#DejaVuSans-35" x="95.410156"/>
      </g>
     </g>
    </g>
    <g id="xtick_5">
     <g id="line2d_5">
      <g>
       <use xlink:href="#m65a0eadd64" x="265.215" y="174.04" style="stroke: #000000; stroke-width: 0.8"/>
      </g>
     </g>
     <g id="text_5">
      <!-- 2.0 -->
      <g transform="translate(257.263437 188.638438)scale(0.1 -0.1)">
       <defs>
        <path id="DejaVuSans-32" d="M 1228 531 
L 3431 531 
L 3431 0 
L 469 0 
L 469 531 
Q 828 903 1448 1529 
Q 2069 2156 2228 2338 
Q 2531 2678 2651 2914 
Q 2772 3150 2772 3378 
Q 2772 3750 2511 3984 
Q 2250 4219 1831 4219 
Q 1534 4219 1204 4116 
Q 875 4013 500 3803 
L 500 4441 
Q 881 4594 1212 4672 
Q 1544 4750 1819 4750 
Q 2544 4750 2975 4387 
Q 3406 4025 3406 3419 
Q 3406 3131 3298 2873 
Q 3191 2616 2906 2266 
Q 2828 2175 2409 1742 
Q 1991 1309 1228 531 
z
" transform="scale(0.015625)"/>
       </defs>
       <use xlink:href="#DejaVuSans-32"/>
       <use xlink:href="#DejaVuSans-2e" x="63.623047"/>
       <use xlink:href="#DejaVuSans-30" x="95.410156"/>
      </g>
     </g>
    </g>
    <g id="text_6">
     <!-- Influence of surprisal (multiplication) -->
     <g transform="translate(64.320625 202.316563)scale(0.1 -0.1)">
      <defs>
       <path id="DejaVuSans-49" d="M 628 4666 
L 1259 4666 
L 1259 0 
L 628 0 
L 628 4666 
z
" transform="scale(0.015625)"/>
       <path id="DejaVuSans-6e" d="M 3513 2113 
L 3513 0 
L 2938 0 
L 2938 2094 
Q 2938 2591 2744 2837 
Q 2550 3084 2163 3084 
Q 1697 3084 1428 2787 
Q 1159 2491 1159 1978 
L 1159 0 
L 581 0 
L 581 3500 
L 1159 3500 
L 1159 2956 
Q 1366 3272 1645 3428 
Q 1925 3584 2291 3584 
Q 2894 3584 3203 3211 
Q 3513 2838 3513 2113 
z
" transform="scale(0.015625)"/>
       <path id="DejaVuSans-66" d="M 2375 4863 
L 2375 4384 
L 1825 4384 
Q 1516 4384 1395 4259 
Q 1275 4134 1275 3809 
L 1275 3500 
L 2222 3500 
L 2222 3053 
L 1275 3053 
L 1275 0 
L 697 0 
L 697 3053 
L 147 3053 
L 147 3500 
L 697 3500 
L 697 3744 
Q 697 4328 969 4595 
Q 1241 4863 1831 4863 
L 2375 4863 
z
" transform="scale(0.015625)"/>
       <path id="DejaVuSans-6c" d="M 603 4863 
L 1178 4863 
L 1178 0 
L 603 0 
L 603 4863 
z
" transform="scale(0.015625)"/>
       <path id="DejaVuSans-75" d="M 544 1381 
L 544 3500 
L 1119 3500 
L 1119 1403 
Q 1119 906 1312 657 
Q 1506 409 1894 409 
Q 2359 409 2629 706 
Q 2900 1003 2900 1516 
L 2900 3500 
L 3475 3500 
L 3475 0 
L 2900 0 
L 2900 538 
Q 2691 219 2414 64 
Q 2138 -91 1772 -91 
Q 1169 -91 856 284 
Q 544 659 544 1381 
z
M 1991 3584 
L 1991 3584 
z
" transform="scale(0.015625)"/>
       <path id="DejaVuSans-65" d="M 3597 1894 
L 3597 1613 
L 953 1613 
Q 991 1019 1311 708 
Q 1631 397 2203 397 
Q 2534 397 2845 478 
Q 3156 559 3463 722 
L 3463 178 
Q 3153 47 2828 -22 
Q 2503 -91 2169 -91 
Q 1331 -91 842 396 
Q 353 884 353 1716 
Q 353 2575 817 3079 
Q 1281 3584 2069 3584 
Q 2775 3584 3186 3129 
Q 3597 2675 3597 1894 
z
M 3022 2063 
Q 3016 2534 2758 2815 
Q 2500 3097 2075 3097 
Q 1594 3097 1305 2825 
Q 1016 2553 972 2059 
L 3022 2063 
z
" transform="scale(0.015625)"/>
       <path id="DejaVuSans-63" d="M 3122 3366 
L 3122 2828 
Q 2878 2963 2633 3030 
Q 2388 3097 2138 3097 
Q 1578 3097 1268 2742 
Q 959 2388 959 1747 
Q 959 1106 1268 751 
Q 1578 397 2138 397 
Q 2388 397 2633 464 
Q 2878 531 3122 666 
L 3122 134 
Q 2881 22 2623 -34 
Q 2366 -91 2075 -91 
Q 1284 -91 818 406 
Q 353 903 353 1747 
Q 353 2603 823 3093 
Q 1294 3584 2113 3584 
Q 2378 3584 2631 3529 
Q 2884 3475 3122 3366 
z
" transform="scale(0.015625)"/>
       <path id="DejaVuSans-20" transform="scale(0.015625)"/>
       <path id="DejaVuSans-6f" d="M 1959 3097 
Q 1497 3097 1228 2736 
Q 959 2375 959 1747 
Q 959 1119 1226 758 
Q 1494 397 1959 397 
Q 2419 397 2687 759 
Q 2956 1122 2956 1747 
Q 2956 2369 2687 2733 
Q 2419 3097 1959 3097 
z
M 1959 3584 
Q 2709 3584 3137 3096 
Q 3566 2609 3566 1747 
Q 3566 888 3137 398 
Q 2709 -91 1959 -91 
Q 1206 -91 779 398 
Q 353 888 353 1747 
Q 353 2609 779 3096 
Q 1206 3584 1959 3584 
z
" transform="scale(0.015625)"/>
       <path id="DejaVuSans-73" d="M 2834 3397 
L 2834 2853 
Q 2591 2978 2328 3040 
Q 2066 3103 1784 3103 
Q 1356 3103 1142 2972 
Q 928 2841 928 2578 
Q 928 2378 1081 2264 
Q 1234 2150 1697 2047 
L 1894 2003 
Q 2506 1872 2764 1633 
Q 3022 1394 3022 966 
Q 3022 478 2636 193 
Q 2250 -91 1575 -91 
Q 1294 -91 989 -36 
Q 684 19 347 128 
L 347 722 
Q 666 556 975 473 
Q 1284 391 1588 391 
Q 1994 391 2212 530 
Q 2431 669 2431 922 
Q 2431 1156 2273 1281 
Q 2116 1406 1581 1522 
L 1381 1569 
Q 847 1681 609 1914 
Q 372 2147 372 2553 
Q 372 3047 722 3315 
Q 1072 3584 1716 3584 
Q 2034 3584 2315 3537 
Q 2597 3491 2834 3397 
z
" transform="scale(0.015625)"/>
       <path id="DejaVuSans-72" d="M 2631 2963 
Q 2534 3019 2420 3045 
Q 2306 3072 2169 3072 
Q 1681 3072 1420 2755 
Q 1159 2438 1159 1844 
L 1159 0 
L 581 0 
L 581 3500 
L 1159 3500 
L 1159 2956 
Q 1341 3275 1631 3429 
Q 1922 3584 2338 3584 
Q 2397 3584 2469 3576 
Q 2541 3569 2628 3553 
L 2631 2963 
z
" transform="scale(0.015625)"/>
       <path id="DejaVuSans-70" d="M 1159 525 
L 1159 -1331 
L 581 -1331 
L 581 3500 
L 1159 3500 
L 1159 2969 
Q 1341 3281 1617 3432 
Q 1894 3584 2278 3584 
Q 2916 3584 3314 3078 
Q 3713 2572 3713 1747 
Q 3713 922 3314 415 
Q 2916 -91 2278 -91 
Q 1894 -91 1617 61 
Q 1341 213 1159 525 
z
M 3116 1747 
Q 3116 2381 2855 2742 
Q 2594 3103 2138 3103 
Q 1681 3103 1420 2742 
Q 1159 2381 1159 1747 
Q 1159 1113 1420 752 
Q 1681 391 2138 391 
Q 2594 391 2855 752 
Q 3116 1113 3116 1747 
z
" transform="scale(0.015625)"/>
       <path id="DejaVuSans-69" d="M 603 3500 
L 1178 3500 
L 1178 0 
L 603 0 
L 603 3500 
z
M 603 4863 
L 1178 4863 
L 1178 4134 
L 603 4134 
L 603 4863 
z
" transform="scale(0.015625)"/>
       <path id="DejaVuSans-61" d="M 2194 1759 
Q 1497 1759 1228 1600 
Q 959 1441 959 1056 
Q 959 750 1161 570 
Q 1363 391 1709 391 
Q 2188 391 2477 730 
Q 2766 1069 2766 1631 
L 2766 1759 
L 2194 1759 
z
M 3341 1997 
L 3341 0 
L 2766 0 
L 2766 531 
Q 2569 213 2275 61 
Q 1981 -91 1556 -91 
Q 1019 -91 701 211 
Q 384 513 384 1019 
Q 384 1609 779 1909 
Q 1175 2209 1959 2209 
L 2766 2209 
L 2766 2266 
Q 2766 2663 2505 2880 
Q 2244 3097 1772 3097 
Q 1472 3097 1187 3025 
Q 903 2953 641 2809 
L 641 3341 
Q 956 3463 1253 3523 
Q 1550 3584 1831 3584 
Q 2591 3584 2966 3190 
Q 3341 2797 3341 1997 
z
" transform="scale(0.015625)"/>
       <path id="DejaVuSans-28" d="M 1984 4856 
Q 1566 4138 1362 3434 
Q 1159 2731 1159 2009 
Q 1159 1288 1364 580 
Q 1569 -128 1984 -844 
L 1484 -844 
Q 1016 -109 783 600 
Q 550 1309 550 2009 
Q 550 2706 781 3412 
Q 1013 4119 1484 4856 
L 1984 4856 
z
" transform="scale(0.015625)"/>
       <path id="DejaVuSans-6d" d="M 3328 2828 
Q 3544 3216 3844 3400 
Q 4144 3584 4550 3584 
Q 5097 3584 5394 3201 
Q 5691 2819 5691 2113 
L 5691 0 
L 5113 0 
L 5113 2094 
Q 5113 2597 4934 2840 
Q 4756 3084 4391 3084 
Q 3944 3084 3684 2787 
Q 3425 2491 3425 1978 
L 3425 0 
L 2847 0 
L 2847 2094 
Q 2847 2600 2669 2842 
Q 2491 3084 2119 3084 
Q 1678 3084 1418 2786 
Q 1159 2488 1159 1978 
L 1159 0 
L 581 0 
L 581 3500 
L 1159 3500 
L 1159 2956 
Q 1356 3278 1631 3431 
Q 1906 3584 2284 3584 
Q 2666 3584 2933 3390 
Q 3200 3197 3328 2828 
z
" transform="scale(0.015625)"/>
       <path id="DejaVuSans-74" d="M 1172 4494 
L 1172 3500 
L 2356 3500 
L 2356 3053 
L 1172 3053 
L 1172 1153 
Q 1172 725 1289 603 
Q 1406 481 1766 481 
L 2356 481 
L 2356 0 
L 1766 0 
Q 1100 0 847 248 
Q 594 497 594 1153 
L 594 3053 
L 172 3053 
L 172 3500 
L 594 3500 
L 594 4494 
L 1172 4494 
z
" transform="scale(0.015625)"/>
       <path id="DejaVuSans-29" d="M 513 4856 
L 1013 4856 
Q 1481 4119 1714 3412 
Q 1947 2706 1947 2009 
Q 1947 1309 1714 600 
Q 1481 -109 1013 -844 
L 513 -844 
Q 928 -128 1133 580 
Q 1338 1288 1338 2009 
Q 1338 2731 1133 3434 
Q 928 4138 513 4856 
z
" transform="scale(0.015625)"/>
      </defs>
      <use xlink:href="#DejaVuSans-49"/>
      <use xlink:href="#DejaVuSans-6e" x="29.492188"/>
      <use xlink:href="#DejaVuSans-66" x="92.871094"/>
      <use xlink:href="#DejaVuSans-6c" x="128.076172"/>
      <use xlink:href="#DejaVuSans-75" x="155.859375"/>
      <use xlink:href="#DejaVuSans-65" x="219.238281"/>
      <use xlink:href="#DejaVuSans-6e" x="280.761719"/>
      <use xlink:href="#DejaVuSans-63" x="344.140625"/>
      <use xlink:href="#DejaVuSans-65" x="399.121094"/>
      <use xlink:href="#DejaVuSans-20" x="460.644531"/>
      <use xlink:href="#DejaVuSans-6f" x="492.431641"/>
      <use xlink:href="#DejaVuSans-66" x="553.613281"/>
      <use xlink:href="#DejaVuSans-20" x="588.818359"/>
      <use xlink:href="#DejaVuSans-73" x="620.605469"/>
      <use xlink:href="#DejaVuSans-75" x="672.705078"/>
      <use xlink:href="#DejaVuSans-72" x="736.083984"/>
      <use xlink:href="#DejaVuSans-70" x="777.197266"/>
      <use xlink:href="#DejaVuSans-72" x="840.673828"/>
      <use xlink:href="#DejaVuSans-69" x="881.787109"/>
      <use xlink:href="#DejaVuSans-73" x="909.570312"/>
      <use xlink:href="#DejaVuSans-61" x="961.669922"/>
      <use xlink:href="#DejaVuSans-6c" x="1022.949219"/>
      <use xlink:href="#DejaVuSans-20" x="1050.732422"/>
      <use xlink:href="#DejaVuSans-28" x="1082.519531"/>
      <use xlink:href="#DejaVuSans-6d" x="1121.533203"/>
      <use xlink:href="#DejaVuSans-75" x="1218.945312"/>
      <use xlink:href="#DejaVuSans-6c" x="1282.324219"/>
      <use xlink:href="#DejaVuSans-74" x="1310.107422"/>
      <use xlink:href="#DejaVuSans-69" x="1349.316406"/>
      <use xlink:href="#DejaVuSans-70" x="1377.099609"/>
      <use xlink:href="#DejaVuSans-6c" x="1440.576172"/>
      <use xlink:href="#DejaVuSans-69" x="1468.359375"/>
      <use xlink:href="#DejaVuSans-63" x="1496.142578"/>
      <use xlink:href="#DejaVuSans-61" x="1551.123047"/>
      <use xlink:href="#DejaVuSans-74" x="1612.402344"/>
      <use xlink:href="#DejaVuSans-69" x="1651.611328"/>
      <use xlink:href="#DejaVuSans-6f" x="1679.394531"/>
      <use xlink:href="#DejaVuSans-6e" x="1740.576172"/>
      <use xlink:href="#DejaVuSans-29" x="1803.955078"/>
     </g>
    </g>
   </g>
   <g id="matplotlib.axis_2">
    <g id="ytick_1">
     <g id="line2d_6">
      <defs>
       <path id="m78467db4d9" d="M 0 0 
L -3.5 0 
" style="stroke: #000000; stroke-width: 0.8"/>
      </defs>
      <g>
       <use xlink:href="#m78467db4d9" x="47.72" y="172.859121" style="stroke: #000000; stroke-width: 0.8"/>
      </g>
     </g>
     <g id="text_7">
      <!-- 0.2 -->
      <g transform="translate(24.816875 176.65834)scale(0.1 -0.1)">
       <use xlink:href="#DejaVuSans-30"/>
       <use xlink:href="#DejaVuSans-2e" x="63.623047"/>
       <use xlink:href="#DejaVuSans-32" x="95.410156"/>
      </g>
     </g>
    </g>
    <g id="ytick_2">
     <g id="line2d_7">
      <g>
       <use xlink:href="#m78467db4d9" x="47.72" y="135.686368" style="stroke: #000000; stroke-width: 0.8"/>
      </g>
     </g>
     <g id="text_8">
      <!-- 0.4 -->
      <g transform="translate(24.816875 139.485587)scale(0.1 -0.1)">
       <defs>
        <path id="DejaVuSans-34" d="M 2419 4116 
L 825 1625 
L 2419 1625 
L 2419 4116 
z
M 2253 4666 
L 3047 4666 
L 3047 1625 
L 3713 1625 
L 3713 1100 
L 3047 1100 
L 3047 0 
L 2419 0 
L 2419 1100 
L 313 1100 
L 313 1709 
L 2253 4666 
z
" transform="scale(0.015625)"/>
       </defs>
       <use xlink:href="#DejaVuSans-30"/>
       <use xlink:href="#DejaVuSans-2e" x="63.623047"/>
       <use xlink:href="#DejaVuSans-34" x="95.410156"/>
      </g>
     </g>
    </g>
    <g id="ytick_3">
     <g id="line2d_8">
      <g>
       <use xlink:href="#m78467db4d9" x="47.72" y="98.513615" style="stroke: #000000; stroke-width: 0.8"/>
      </g>
     </g>
     <g id="text_9">
      <!-- 0.6 -->
      <g transform="translate(24.816875 102.312833)scale(0.1 -0.1)">
       <defs>
        <path id="DejaVuSans-36" d="M 2113 2584 
Q 1688 2584 1439 2293 
Q 1191 2003 1191 1497 
Q 1191 994 1439 701 
Q 1688 409 2113 409 
Q 2538 409 2786 701 
Q 3034 994 3034 1497 
Q 3034 2003 2786 2293 
Q 2538 2584 2113 2584 
z
M 3366 4563 
L 3366 3988 
Q 3128 4100 2886 4159 
Q 2644 4219 2406 4219 
Q 1781 4219 1451 3797 
Q 1122 3375 1075 2522 
Q 1259 2794 1537 2939 
Q 1816 3084 2150 3084 
Q 2853 3084 3261 2657 
Q 3669 2231 3669 1497 
Q 3669 778 3244 343 
Q 2819 -91 2113 -91 
Q 1303 -91 875 529 
Q 447 1150 447 2328 
Q 447 3434 972 4092 
Q 1497 4750 2381 4750 
Q 2619 4750 2861 4703 
Q 3103 4656 3366 4563 
z
" transform="scale(0.015625)"/>
       </defs>
       <use xlink:href="#DejaVuSans-30"/>
       <use xlink:href="#DejaVuSans-2e" x="63.623047"/>
       <use xlink:href="#DejaVuSans-36" x="95.410156"/>
      </g>
     </g>
    </g>
    <g id="ytick_4">
     <g id="line2d_9">
      <g>
       <use xlink:href="#m78467db4d9" x="47.72" y="61.340861" style="stroke: #000000; stroke-width: 0.8"/>
      </g>
     </g>
     <g id="text_10">
      <!-- 0.8 -->
      <g transform="translate(24.816875 65.14008)scale(0.1 -0.1)">
       <defs>
        <path id="DejaVuSans-38" d="M 2034 2216 
Q 1584 2216 1326 1975 
Q 1069 1734 1069 1313 
Q 1069 891 1326 650 
Q 1584 409 2034 409 
Q 2484 409 2743 651 
Q 3003 894 3003 1313 
Q 3003 1734 2745 1975 
Q 2488 2216 2034 2216 
z
M 1403 2484 
Q 997 2584 770 2862 
Q 544 3141 544 3541 
Q 544 4100 942 4425 
Q 1341 4750 2034 4750 
Q 2731 4750 3128 4425 
Q 3525 4100 3525 3541 
Q 3525 3141 3298 2862 
Q 3072 2584 2669 2484 
Q 3125 2378 3379 2068 
Q 3634 1759 3634 1313 
Q 3634 634 3220 271 
Q 2806 -91 2034 -91 
Q 1263 -91 848 271 
Q 434 634 434 1313 
Q 434 1759 690 2068 
Q 947 2378 1403 2484 
z
M 1172 3481 
Q 1172 3119 1398 2916 
Q 1625 2713 2034 2713 
Q 2441 2713 2670 2916 
Q 2900 3119 2900 3481 
Q 2900 3844 2670 4047 
Q 2441 4250 2034 4250 
Q 1625 4250 1398 4047 
Q 1172 3844 1172 3481 
z
" transform="scale(0.015625)"/>
       </defs>
       <use xlink:href="#DejaVuSans-30"/>
       <use xlink:href="#DejaVuSans-2e" x="63.623047"/>
       <use xlink:href="#DejaVuSans-38" x="95.410156"/>
      </g>
     </g>
    </g>
    <g id="text_11">
     <!-- R-value -->
     <g transform="translate(18.737188 119.064687)rotate(-90)scale(0.1 -0.1)">
      <defs>
       <path id="DejaVuSans-52" d="M 2841 2188 
Q 3044 2119 3236 1894 
Q 3428 1669 3622 1275 
L 4263 0 
L 3584 0 
L 2988 1197 
Q 2756 1666 2539 1819 
Q 2322 1972 1947 1972 
L 1259 1972 
L 1259 0 
L 628 0 
L 628 4666 
L 2053 4666 
Q 2853 4666 3247 4331 
Q 3641 3997 3641 3322 
Q 3641 2881 3436 2590 
Q 3231 2300 2841 2188 
z
M 1259 4147 
L 1259 2491 
L 2053 2491 
Q 2509 2491 2742 2702 
Q 2975 2913 2975 3322 
Q 2975 3731 2742 3939 
Q 2509 4147 2053 4147 
L 1259 4147 
z
" transform="scale(0.015625)"/>
       <path id="DejaVuSans-2d" d="M 313 2009 
L 1997 2009 
L 1997 1497 
L 313 1497 
L 313 2009 
z
" transform="scale(0.015625)"/>
       <path id="DejaVuSans-76" d="M 191 3500 
L 800 3500 
L 1894 563 
L 2988 3500 
L 3597 3500 
L 2284 0 
L 1503 0 
L 191 3500 
z
" transform="scale(0.015625)"/>
      </defs>
      <use xlink:href="#DejaVuSans-52"/>
      <use xlink:href="#DejaVuSans-2d" x="65.482422"/>
      <use xlink:href="#DejaVuSans-76" x="98.941406"/>
      <use xlink:href="#DejaVuSans-61" x="158.121094"/>
      <use xlink:href="#DejaVuSans-6c" x="219.400391"/>
      <use xlink:href="#DejaVuSans-75" x="247.183594"/>
      <use xlink:href="#DejaVuSans-65" x="310.5625"/>
     </g>
    </g>
   </g>
   <g id="line2d_10">
    <path d="M 47.72 33.98356 
L 59.167105 34.746588 
L 70.614211 37.698896 
L 82.061316 41.289933 
L 93.508421 46.303507 
L 104.955526 52.609672 
L 116.402632 59.266969 
L 127.849737 66.645763 
L 139.296842 74.32122 
L 150.743947 81.326131 
L 162.191053 88.953999 
L 173.638158 96.241706 
L 185.085263 103.094957 
L 196.532368 109.824159 
L 207.979474 115.788101 
L 219.426579 122.023517 
L 230.873684 127.61952 
L 242.320789 132.39403 
L 253.767895 137.45769 
L 265.215 141.236482 
" clip-path="url(#p4ba27efa9a)" style="fill: none; stroke: #1f77b4; stroke-width: 1.5; stroke-linecap: square"/>
   </g>
   <g id="line2d_11">
    <path d="M 47.72 33.994571 
L 59.167105 34.435823 
L 70.614211 36.015899 
L 82.061316 37.813104 
L 93.508421 40.484069 
L 104.955526 44.309646 
L 116.402632 48.497369 
L 127.849737 53.374371 
L 139.296842 59.008173 
L 150.743947 64.522852 
L 162.191053 70.693696 
L 173.638158 76.939429 
L 185.085263 83.237667 
L 196.532368 89.510516 
L 207.979474 95.193903 
L 219.426579 101.244159 
L 230.873684 106.83912 
L 242.320789 112.021387 
L 253.767895 117.191013 
L 265.215 121.445488 
" clip-path="url(#p4ba27efa9a)" style="fill: none; stroke: #ff7f0e; stroke-width: 1.5; stroke-linecap: square"/>
   </g>
   <g id="line2d_12">
    <path d="M 47.72 33.997229 
L 59.167105 34.550537 
L 70.614211 35.919511 
L 82.061316 37.386963 
L 93.508421 39.336619 
L 104.955526 42.110361 
L 116.402632 44.729182 
L 127.849737 47.807701 
L 139.296842 51.334813 
L 150.743947 54.562184 
L 162.191053 57.827523 
L 173.638158 61.374272 
L 185.085263 65.106854 
L 196.532368 68.687124 
L 207.979474 72.142149 
L 219.426579 75.563316 
L 230.873684 78.850703 
L 242.320789 82.375071 
L 253.767895 85.604691 
L 265.215 88.588616 
" clip-path="url(#p4ba27efa9a)" style="fill: none; stroke: #2ca02c; stroke-width: 1.5; stroke-linecap: square"/>
   </g>
   <g id="line2d_13">
    <path d="M 47.72 34.006177 
L 59.167105 34.419588 
L 70.614211 35.474673 
L 82.061316 36.512366 
L 93.508421 37.962686 
L 104.955526 40.247219 
L 116.402632 42.456785 
L 127.849737 45.1825 
L 139.296842 48.508041 
L 150.743947 51.684157 
L 162.191053 55.015117 
L 173.638158 58.651626 
L 185.085263 62.513397 
L 196.532368 66.299982 
L 207.979474 69.839178 
L 219.426579 73.381343 
L 230.873684 76.785781 
L 242.320789 80.407764 
L 253.767895 83.773144 
L 265.215 86.811971 
" clip-path="url(#p4ba27efa9a)" style="fill: none; stroke: #d62728; stroke-width: 1.5; stroke-linecap: square"/>
   </g>
   <g id="line2d_14">
    <path d="M 47.72 33.988714 
L 59.167105 34.75619 
L 70.614211 37.713136 
L 82.061316 41.313852 
L 93.508421 46.36542 
L 104.955526 52.70826 
L 116.402632 59.215026 
L 127.849737 66.768548 
L 139.296842 74.55062 
L 150.743947 81.322607 
L 162.191053 89.25222 
L 173.638158 96.399193 
L 185.085263 103.190166 
L 196.532368 110.239131 
L 207.979474 115.783974 
L 219.426579 122.630193 
L 230.873684 128.351181 
L 242.320789 132.887595 
L 253.767895 138.584802 
L 265.215 141.829111 
" clip-path="url(#p4ba27efa9a)" style="fill: none; stroke: #9467bd; stroke-width: 1.5; stroke-linecap: square"/>
   </g>
   <g id="line2d_15">
    <path d="M 47.72 34.00046 
L 59.167105 34.445811 
L 70.614211 36.027255 
L 82.061316 37.838682 
L 93.508421 40.516429 
L 104.955526 44.348938 
L 116.402632 48.520427 
L 127.849737 53.412595 
L 139.296842 59.189073 
L 150.743947 64.567675 
L 162.191053 70.895552 
L 173.638158 77.046644 
L 185.085263 83.328835 
L 196.532368 89.775225 
L 207.979474 95.217247 
L 219.426579 101.704857 
L 230.873684 107.262827 
L 242.320789 112.344256 
L 253.767895 117.88336 
L 265.215 122.133129 
" clip-path="url(#p4ba27efa9a)" style="fill: none; stroke: #8c564b; stroke-width: 1.5; stroke-linecap: square"/>
   </g>
   <g id="line2d_16">
    <path d="M 47.72 48.014454 
L 59.167105 49.010073 
L 70.614211 52.26946 
L 82.061316 56.660652 
L 93.508421 62.305791 
L 104.955526 69.598285 
L 116.402632 77.136302 
L 127.849737 85.274853 
L 139.296842 93.637452 
L 150.743947 101.297543 
L 162.191053 109.358265 
L 173.638158 116.871642 
L 185.085263 124.176943 
L 196.532368 130.850376 
L 207.979474 136.736896 
L 219.426579 142.548152 
L 230.873684 147.712553 
L 242.320789 152.180632 
L 253.767895 156.440725 
L 265.215 159.698162 
" clip-path="url(#p4ba27efa9a)" style="fill: none; stroke: #e377c2; stroke-width: 1.5; stroke-linecap: square"/>
   </g>
   <g id="line2d_17">
    <path d="M 47.72 34.008949 
L 59.167105 34.179688 
L 70.614211 34.496421 
L 82.061316 34.798296 
L 93.508421 35.473868 
L 104.955526 37.239242 
L 116.402632 39.353183 
L 127.849737 42.482402 
L 139.296842 46.575143 
L 150.743947 50.956504 
L 162.191053 55.92886 
L 173.638158 61.47304 
L 185.085263 67.362338 
L 196.532368 73.449726 
L 207.979474 79.279104 
L 219.426579 85.361133 
L 230.873684 91.314464 
L 242.320789 97.498826 
L 253.767895 103.199332 
L 265.215 108.272281 
" clip-path="url(#p4ba27efa9a)" style="fill: none; stroke: #7f7f7f; stroke-width: 1.5; stroke-linecap: square"/>
   </g>
   <g id="patch_3">
    <path d="M 47.72 174.04 
L 47.72 26.88 
" style="fill: none; stroke: #000000; stroke-width: 0.8; stroke-linejoin: miter; stroke-linecap: square"/>
   </g>
   <g id="patch_4">
    <path d="M 47.72 174.04 
L 265.215 174.04 
" style="fill: none; stroke: #000000; stroke-width: 0.8; stroke-linejoin: miter; stroke-linecap: square"/>
   </g>
   <g id="text_12">
    <!-- Node * surprisal -->
    <g transform="translate(108.18625 20.88)scale(0.12 -0.12)">
     <defs>
      <path id="DejaVuSans-4e" d="M 628 4666 
L 1478 4666 
L 3547 763 
L 3547 4666 
L 4159 4666 
L 4159 0 
L 3309 0 
L 1241 3903 
L 1241 0 
L 628 0 
L 628 4666 
z
" transform="scale(0.015625)"/>
      <path id="DejaVuSans-64" d="M 2906 2969 
L 2906 4863 
L 3481 4863 
L 3481 0 
L 2906 0 
L 2906 525 
Q 2725 213 2448 61 
Q 2172 -91 1784 -91 
Q 1150 -91 751 415 
Q 353 922 353 1747 
Q 353 2572 751 3078 
Q 1150 3584 1784 3584 
Q 2172 3584 2448 3432 
Q 2725 3281 2906 2969 
z
M 947 1747 
Q 947 1113 1208 752 
Q 1469 391 1925 391 
Q 2381 391 2643 752 
Q 2906 1113 2906 1747 
Q 2906 2381 2643 2742 
Q 2381 3103 1925 3103 
Q 1469 3103 1208 2742 
Q 947 2381 947 1747 
z
" transform="scale(0.015625)"/>
      <path id="DejaVuSans-2a" d="M 3009 3897 
L 1888 3291 
L 3009 2681 
L 2828 2375 
L 1778 3009 
L 1778 1831 
L 1422 1831 
L 1422 3009 
L 372 2375 
L 191 2681 
L 1313 3291 
L 191 3897 
L 372 4206 
L 1422 3572 
L 1422 4750 
L 1778 4750 
L 1778 3572 
L 2828 4206 
L 3009 3897 
z
" transform="scale(0.015625)"/>
     </defs>
     <use xlink:href="#DejaVuSans-4e"/>
     <use xlink:href="#DejaVuSans-6f" x="74.804688"/>
     <use xlink:href="#DejaVuSans-64" x="135.986328"/>
     <use xlink:href="#DejaVuSans-65" x="199.462891"/>
     <use xlink:href="#DejaVuSans-20" x="260.986328"/>
     <use xlink:href="#DejaVuSans-2a" x="292.773438"/>
     <use xlink:href="#DejaVuSans-20" x="342.773438"/>
     <use xlink:href="#DejaVuSans-73" x="374.560547"/>
     <use xlink:href="#DejaVuSans-75" x="426.660156"/>
     <use xlink:href="#DejaVuSans-72" x="490.039062"/>
     <use xlink:href="#DejaVuSans-70" x="531.152344"/>
     <use xlink:href="#DejaVuSans-72" x="594.628906"/>
     <use xlink:href="#DejaVuSans-69" x="635.742188"/>
     <use xlink:href="#DejaVuSans-73" x="663.525391"/>
     <use xlink:href="#DejaVuSans-61" x="715.625"/>
     <use xlink:href="#DejaVuSans-6c" x="776.904297"/>
    </g>
   </g>
  </g>
  <g id="axes_2">
   <g id="patch_5">
    <path d="M 298.065 174.04 
L 515.56 174.04 
L 515.56 26.88 
L 298.065 26.88 
z
" style="fill: #ffffff"/>
   </g>
   <g id="PolyCollection_9">
    <path d="M 298.065 33.712886 
L 298.065 34.362221 
L 309.512105 35.268817 
L 320.959211 37.995835 
L 332.406316 42.787175 
L 343.853421 48.752684 
L 355.300526 55.630407 
L 366.747632 62.656404 
L 378.194737 70.803272 
L 389.641842 78.259904 
L 401.088947 85.917216 
L 412.536053 93.708971 
L 423.983158 100.971587 
L 435.430263 107.75234 
L 446.877368 114.510761 
L 458.324474 120.956091 
L 469.771579 127.271283 
L 481.218684 132.191686 
L 492.665789 138.658952 
L 504.112895 143.779435 
L 515.56 147.684593 
L 515.56 131.616397 
L 515.56 131.616397 
L 504.112895 126.473167 
L 492.665789 121.364908 
L 481.218684 115.676517 
L 469.771579 109.906329 
L 458.324474 104.641011 
L 446.877368 98.578137 
L 435.430263 92.46203 
L 423.983158 86.418385 
L 412.536053 79.96737 
L 401.088947 73.355044 
L 389.641842 67.05779 
L 378.194737 60.276217 
L 366.747632 54.705655 
L 355.300526 48.832594 
L 343.853421 44.074777 
L 332.406316 39.676419 
L 320.959211 37.026075 
L 309.512105 34.550669 
L 298.065 33.712886 
z
" clip-path="url(#pbb8c494232)" style="fill: #1f77b4; fill-opacity: 0.4"/>
   </g>
   <g id="PolyCollection_10">
    <path d="M 298.065 33.724446 
L 298.065 34.380122 
L 309.512105 35.277627 
L 320.959211 38.007303 
L 332.406316 42.801273 
L 343.853421 48.79146 
L 355.300526 55.672105 
L 366.747632 62.725823 
L 378.194737 70.907323 
L 389.641842 78.36554 
L 401.088947 86.047023 
L 412.536053 93.927939 
L 423.983158 101.199464 
L 435.430263 108.015813 
L 446.877368 114.882714 
L 458.324474 121.33481 
L 469.771579 127.675353 
L 481.218684 132.616384 
L 492.665789 139.102111 
L 504.112895 144.193184 
L 515.56 148.103896 
L 515.56 131.292376 
L 515.56 131.292376 
L 504.112895 126.13456 
L 492.665789 121.061155 
L 481.218684 115.395626 
L 469.771579 109.676022 
L 458.324474 104.392919 
L 446.877368 98.375182 
L 435.430263 92.343073 
L 423.983158 86.345832 
L 412.536053 79.904454 
L 401.088947 73.326697 
L 389.641842 67.035163 
L 378.194737 60.262716 
L 366.747632 54.703268 
L 355.300526 48.856906 
L 343.853421 44.106792 
L 332.406316 39.687875 
L 320.959211 37.037698 
L 309.512105 34.566639 
L 298.065 33.724446 
z
" clip-path="url(#pbb8c494232)" style="fill: #ff7f0e; fill-opacity: 0.4"/>
   </g>
   <g id="PolyCollection_11">
    <path d="M 298.065 33.726062 
L 298.065 34.374482 
L 309.512105 35.279059 
L 320.959211 38.031453 
L 332.406316 42.887093 
L 343.853421 48.896133 
L 355.300526 55.791504 
L 366.747632 62.85292 
L 378.194737 71.029432 
L 389.641842 78.520236 
L 401.088947 86.202211 
L 412.536053 94.067096 
L 423.983158 101.297985 
L 435.430263 108.123382 
L 446.877368 114.959851 
L 458.324474 121.504231 
L 469.771579 127.789308 
L 481.218684 132.786813 
L 492.665789 139.245109 
L 504.112895 144.321942 
L 515.56 148.266136 
L 515.56 131.865685 
L 515.56 131.865685 
L 504.112895 126.634422 
L 492.665789 121.507515 
L 481.218684 115.774627 
L 469.771579 109.9822 
L 458.324474 104.654046 
L 446.877368 98.598669 
L 435.430263 92.479696 
L 423.983158 86.399487 
L 412.536053 79.901391 
L 401.088947 73.268883 
L 389.641842 66.986162 
L 378.194737 60.207391 
L 366.747632 54.616129 
L 355.300526 48.751623 
L 343.853421 44.015312 
L 332.406316 39.633966 
L 320.959211 37.040493 
L 309.512105 34.56675 
L 298.065 33.726062 
z
" clip-path="url(#pbb8c494232)" style="fill: #2ca02c; fill-opacity: 0.4"/>
   </g>
   <g id="PolyCollection_12">
    <path d="M 298.065 33.737651 
L 298.065 34.393146 
L 309.512105 35.296329 
L 320.959211 38.052792 
L 332.406316 42.913221 
L 343.853421 48.9417 
L 355.300526 55.841747 
L 366.747632 62.922582 
L 378.194737 71.115753 
L 389.641842 78.607366 
L 401.088947 86.289502 
L 412.536053 94.194394 
L 423.983158 101.411414 
L 435.430263 108.242306 
L 446.877368 115.110338 
L 458.324474 121.615968 
L 469.771579 127.896004 
L 481.218684 132.888305 
L 492.665789 139.354404 
L 504.112895 144.389109 
L 515.56 148.347667 
L 515.56 131.804791 
L 515.56 131.804791 
L 504.112895 126.556643 
L 492.665789 121.462439 
L 481.218684 115.736024 
L 469.771579 109.936333 
L 458.324474 104.599234 
L 446.877368 98.601441 
L 435.430263 92.501619 
L 423.983158 86.430534 
L 412.536053 79.939623 
L 401.088947 73.317248 
L 389.641842 67.027977 
L 378.194737 60.244565 
L 366.747632 54.642648 
L 355.300526 48.796505 
L 343.853421 44.051087 
L 332.406316 39.661112 
L 320.959211 37.050189 
L 309.512105 34.573011 
L 298.065 33.737651 
z
" clip-path="url(#pbb8c494232)" style="fill: #d62728; fill-opacity: 0.4"/>
   </g>
   <g id="PolyCollection_13">
    <path d="M 298.065 33.733152 
L 298.065 34.37302 
L 309.512105 35.281869 
L 320.959211 37.979514 
L 332.406316 42.844084 
L 343.853421 48.766833 
L 355.300526 55.649477 
L 366.747632 62.79126 
L 378.194737 70.937868 
L 389.641842 78.267384 
L 401.088947 86.005907 
L 412.536053 93.586543 
L 423.983158 101.05037 
L 435.430263 107.862897 
L 446.877368 114.769942 
L 458.324474 121.004316 
L 469.771579 127.501373 
L 481.218684 132.47615 
L 492.665789 139.371254 
L 504.112895 143.718964 
L 515.56 148.070965 
L 515.56 132.057591 
L 515.56 132.057591 
L 504.112895 126.591646 
L 492.665789 121.596354 
L 481.218684 115.661467 
L 469.771579 110.252475 
L 458.324474 104.471705 
L 446.877368 98.886716 
L 435.430263 92.567714 
L 423.983158 86.444464 
L 412.536053 79.975939 
L 401.088947 73.410652 
L 389.641842 67.106869 
L 378.194737 60.392574 
L 366.747632 54.836598 
L 355.300526 48.919969 
L 343.853421 44.076637 
L 332.406316 39.755488 
L 320.959211 37.060489 
L 309.512105 34.562336 
L 298.065 33.733152 
z
" clip-path="url(#pbb8c494232)" style="fill: #9467bd; fill-opacity: 0.4"/>
   </g>
   <g id="PolyCollection_14">
    <path d="M 298.065 33.744717 
L 298.065 34.392051 
L 309.512105 35.290604 
L 320.959211 37.990309 
L 332.406316 42.855653 
L 343.853421 48.804583 
L 355.300526 55.688643 
L 366.747632 62.855968 
L 378.194737 71.037673 
L 389.641842 78.375458 
L 401.088947 86.137457 
L 412.536053 93.808072 
L 423.983158 101.280435 
L 435.430263 108.123586 
L 446.877368 115.13679 
L 458.324474 121.377137 
L 469.771579 127.881751 
L 481.218684 132.914988 
L 492.665789 139.805213 
L 504.112895 144.119386 
L 515.56 148.488971 
L 515.56 131.751363 
L 515.56 131.751363 
L 504.112895 126.25122 
L 492.665789 121.307585 
L 481.218684 115.398776 
L 469.771579 110.018362 
L 458.324474 104.218903 
L 446.877368 98.693337 
L 435.430263 92.453378 
L 423.983158 86.383819 
L 412.536053 79.907841 
L 401.088947 73.39038 
L 389.641842 67.083971 
L 378.194737 60.379575 
L 366.747632 54.834033 
L 355.300526 48.946206 
L 343.853421 44.109607 
L 332.406316 39.767711 
L 320.959211 37.073121 
L 309.512105 34.579206 
L 298.065 33.744717 
z
" clip-path="url(#pbb8c494232)" style="fill: #8c564b; fill-opacity: 0.4"/>
   </g>
   <g id="PolyCollection_15">
    <path d="M 298.065 46.547891 
L 298.065 49.587277 
L 309.512105 50.365987 
L 320.959211 52.695633 
L 332.406316 56.362028 
L 343.853421 61.458872 
L 355.300526 67.630221 
L 366.747632 74.031941 
L 378.194737 81.676333 
L 389.641842 88.473736 
L 401.088947 95.601814 
L 412.536053 103.090143 
L 423.983158 109.919375 
L 435.430263 116.191815 
L 446.877368 122.717836 
L 458.324474 128.780334 
L 469.771579 134.702711 
L 481.218684 139.209265 
L 492.665789 145.012326 
L 504.112895 149.729989 
L 515.56 153.563367 
L 515.56 137.441052 
L 515.56 137.441052 
L 504.112895 132.889478 
L 492.665789 128.206571 
L 481.218684 122.881495 
L 469.771579 117.745141 
L 458.324474 112.803698 
L 446.877368 107.262911 
L 435.430263 101.699075 
L 423.983158 96.138811 
L 412.536053 90.243362 
L 401.088947 84.212334 
L 389.641842 78.571626 
L 378.194737 72.0391 
L 366.747632 67.286544 
L 355.300526 61.702568 
L 343.853421 57.095226 
L 332.406316 52.798764 
L 320.959211 49.787903 
L 309.512105 47.321787 
L 298.065 46.547891 
z
" clip-path="url(#pbb8c494232)" style="fill: #e377c2; fill-opacity: 0.4"/>
   </g>
   <g id="PolyCollection_16">
    <path d="M 298.065 33.740033 
L 298.065 34.388118 
L 309.512105 35.275419 
L 320.959211 38.030969 
L 332.406316 42.843513 
L 343.853421 48.826184 
L 355.300526 55.724415 
L 366.747632 62.761428 
L 378.194737 70.970661 
L 389.641842 78.433067 
L 401.088947 86.128289 
L 412.536053 94.057557 
L 423.983158 101.307585 
L 435.430263 108.231228 
L 446.877368 115.055492 
L 458.324474 121.548353 
L 469.771579 127.800588 
L 481.218684 132.829705 
L 492.665789 139.30686 
L 504.112895 144.414638 
L 515.56 148.390643 
L 515.56 131.508285 
L 515.56 131.508285 
L 504.112895 126.360443 
L 492.665789 121.250236 
L 481.218684 115.513148 
L 469.771579 109.802708 
L 458.324474 104.473775 
L 446.877368 98.472881 
L 435.430263 92.446885 
L 423.983158 86.389869 
L 412.536053 79.938936 
L 401.088947 73.392942 
L 389.641842 67.106892 
L 378.194737 60.305908 
L 366.747632 54.738788 
L 355.300526 48.879631 
L 343.853421 44.119246 
L 332.406316 39.703959 
L 320.959211 37.062795 
L 309.512105 34.586305 
L 298.065 33.740033 
z
" clip-path="url(#pbb8c494232)" style="fill: #7f7f7f; fill-opacity: 0.4"/>
   </g>
   <g id="matplotlib.axis_3">
    <g id="xtick_6">
     <g id="line2d_18">
      <g>
       <use xlink:href="#m65a0eadd64" x="298.065" y="174.04" style="stroke: #000000; stroke-width: 0.8"/>
      </g>
     </g>
     <g id="text_13">
      <!-- 0.0 -->
      <g transform="translate(290.113437 188.638438)scale(0.1 -0.1)">
       <use xlink:href="#DejaVuSans-30"/>
       <use xlink:href="#DejaVuSans-2e" x="63.623047"/>
       <use xlink:href="#DejaVuSans-30" x="95.410156"/>
      </g>
     </g>
    </g>
    <g id="xtick_7">
     <g id="line2d_19">
      <g>
       <use xlink:href="#m65a0eadd64" x="352.43875" y="174.04" style="stroke: #000000; stroke-width: 0.8"/>
      </g>
     </g>
     <g id="text_14">
      <!-- 0.5 -->
      <g transform="translate(344.487187 188.638438)scale(0.1 -0.1)">
       <use xlink:href="#DejaVuSans-30"/>
       <use xlink:href="#DejaVuSans-2e" x="63.623047"/>
       <use xlink:href="#DejaVuSans-35" x="95.410156"/>
      </g>
     </g>
    </g>
    <g id="xtick_8">
     <g id="line2d_20">
      <g>
       <use xlink:href="#m65a0eadd64" x="406.8125" y="174.04" style="stroke: #000000; stroke-width: 0.8"/>
      </g>
     </g>
     <g id="text_15">
      <!-- 1.0 -->
      <g transform="translate(398.860937 188.638438)scale(0.1 -0.1)">
       <use xlink:href="#DejaVuSans-31"/>
       <use xlink:href="#DejaVuSans-2e" x="63.623047"/>
       <use xlink:href="#DejaVuSans-30" x="95.410156"/>
      </g>
     </g>
    </g>
    <g id="xtick_9">
     <g id="line2d_21">
      <g>
       <use xlink:href="#m65a0eadd64" x="461.18625" y="174.04" style="stroke: #000000; stroke-width: 0.8"/>
      </g>
     </g>
     <g id="text_16">
      <!-- 1.5 -->
      <g transform="translate(453.234687 188.638438)scale(0.1 -0.1)">
       <use xlink:href="#DejaVuSans-31"/>
       <use xlink:href="#DejaVuSans-2e" x="63.623047"/>
       <use xlink:href="#DejaVuSans-35" x="95.410156"/>
      </g>
     </g>
    </g>
    <g id="xtick_10">
     <g id="line2d_22">
      <g>
       <use xlink:href="#m65a0eadd64" x="515.56" y="174.04" style="stroke: #000000; stroke-width: 0.8"/>
      </g>
     </g>
     <g id="text_17">
      <!-- 2.0 -->
      <g transform="translate(507.608437 188.638438)scale(0.1 -0.1)">
       <use xlink:href="#DejaVuSans-32"/>
       <use xlink:href="#DejaVuSans-2e" x="63.623047"/>
       <use xlink:href="#DejaVuSans-30" x="95.410156"/>
      </g>
     </g>
    </g>
    <g id="text_18">
     <!-- Influence of surprisal (multiplication) -->
     <g transform="translate(314.665625 202.316563)scale(0.1 -0.1)">
      <use xlink:href="#DejaVuSans-49"/>
      <use xlink:href="#DejaVuSans-6e" x="29.492188"/>
      <use xlink:href="#DejaVuSans-66" x="92.871094"/>
      <use xlink:href="#DejaVuSans-6c" x="128.076172"/>
      <use xlink:href="#DejaVuSans-75" x="155.859375"/>
      <use xlink:href="#DejaVuSans-65" x="219.238281"/>
      <use xlink:href="#DejaVuSans-6e" x="280.761719"/>
      <use xlink:href="#DejaVuSans-63" x="344.140625"/>
      <use xlink:href="#DejaVuSans-65" x="399.121094"/>
      <use xlink:href="#DejaVuSans-20" x="460.644531"/>
      <use xlink:href="#DejaVuSans-6f" x="492.431641"/>
      <use xlink:href="#DejaVuSans-66" x="553.613281"/>
      <use xlink:href="#DejaVuSans-20" x="588.818359"/>
      <use xlink:href="#DejaVuSans-73" x="620.605469"/>
      <use xlink:href="#DejaVuSans-75" x="672.705078"/>
      <use xlink:href="#DejaVuSans-72" x="736.083984"/>
      <use xlink:href="#DejaVuSans-70" x="777.197266"/>
      <use xlink:href="#DejaVuSans-72" x="840.673828"/>
      <use xlink:href="#DejaVuSans-69" x="881.787109"/>
      <use xlink:href="#DejaVuSans-73" x="909.570312"/>
      <use xlink:href="#DejaVuSans-61" x="961.669922"/>
      <use xlink:href="#DejaVuSans-6c" x="1022.949219"/>
      <use xlink:href="#DejaVuSans-20" x="1050.732422"/>
      <use xlink:href="#DejaVuSans-28" x="1082.519531"/>
      <use xlink:href="#DejaVuSans-6d" x="1121.533203"/>
      <use xlink:href="#DejaVuSans-75" x="1218.945312"/>
      <use xlink:href="#DejaVuSans-6c" x="1282.324219"/>
      <use xlink:href="#DejaVuSans-74" x="1310.107422"/>
      <use xlink:href="#DejaVuSans-69" x="1349.316406"/>
      <use xlink:href="#DejaVuSans-70" x="1377.099609"/>
      <use xlink:href="#DejaVuSans-6c" x="1440.576172"/>
      <use xlink:href="#DejaVuSans-69" x="1468.359375"/>
      <use xlink:href="#DejaVuSans-63" x="1496.142578"/>
      <use xlink:href="#DejaVuSans-61" x="1551.123047"/>
      <use xlink:href="#DejaVuSans-74" x="1612.402344"/>
      <use xlink:href="#DejaVuSans-69" x="1651.611328"/>
      <use xlink:href="#DejaVuSans-6f" x="1679.394531"/>
      <use xlink:href="#DejaVuSans-6e" x="1740.576172"/>
      <use xlink:href="#DejaVuSans-29" x="1803.955078"/>
     </g>
    </g>
   </g>
   <g id="line2d_23">
    <path d="M 298.065 34.037554 
L 309.512105 34.909743 
L 320.959211 37.510955 
L 332.406316 41.231797 
L 343.853421 46.41373 
L 355.300526 52.2315 
L 366.747632 58.681029 
L 378.194737 65.539744 
L 389.641842 72.658847 
L 401.088947 79.63613 
L 412.536053 86.83817 
L 423.983158 93.694986 
L 435.430263 100.107185 
L 446.877368 106.544449 
L 458.324474 112.798551 
L 469.771579 118.588806 
L 481.218684 123.934102 
L 492.665789 130.01193 
L 504.112895 135.126301 
L 515.56 139.650495 
" clip-path="url(#pbb8c494232)" style="fill: none; stroke: #1f77b4; stroke-width: 1.5; stroke-linecap: square"/>
   </g>
   <g id="line2d_24">
    <path d="M 298.065 34.052284 
L 309.512105 34.922133 
L 320.959211 37.5225 
L 332.406316 41.244574 
L 343.853421 46.449126 
L 355.300526 52.264506 
L 366.747632 58.714545 
L 378.194737 65.585019 
L 389.641842 72.700351 
L 401.088947 79.68686 
L 412.536053 86.916197 
L 423.983158 93.772648 
L 435.430263 100.179443 
L 446.877368 106.628948 
L 458.324474 112.863864 
L 469.771579 118.675688 
L 481.218684 124.006005 
L 492.665789 130.081633 
L 504.112895 135.163872 
L 515.56 139.698136 
" clip-path="url(#pbb8c494232)" style="fill: none; stroke: #ff7f0e; stroke-width: 1.5; stroke-linecap: square"/>
   </g>
   <g id="line2d_25">
    <path d="M 298.065 34.050272 
L 309.512105 34.922905 
L 320.959211 37.535973 
L 332.406316 41.26053 
L 343.853421 46.455723 
L 355.300526 52.271564 
L 366.747632 58.734524 
L 378.194737 65.618411 
L 389.641842 72.753199 
L 401.088947 79.735547 
L 412.536053 86.984244 
L 423.983158 93.848736 
L 435.430263 100.301539 
L 446.877368 106.77926 
L 458.324474 113.079139 
L 469.771579 118.885754 
L 481.218684 124.28072 
L 492.665789 130.376312 
L 504.112895 135.478182 
L 515.56 140.065911 
" clip-path="url(#pbb8c494232)" style="fill: none; stroke: #2ca02c; stroke-width: 1.5; stroke-linecap: square"/>
   </g>
   <g id="line2d_26">
    <path d="M 298.065 34.065398 
L 309.512105 34.93467 
L 320.959211 37.551491 
L 332.406316 41.287166 
L 343.853421 46.496394 
L 355.300526 52.319126 
L 366.747632 58.782615 
L 378.194737 65.680159 
L 389.641842 72.817672 
L 401.088947 79.803375 
L 412.536053 87.067009 
L 423.983158 93.920974 
L 435.430263 100.371963 
L 446.877368 106.855889 
L 458.324474 113.107601 
L 469.771579 118.916169 
L 481.218684 124.312165 
L 492.665789 130.408422 
L 504.112895 135.472876 
L 515.56 140.076229 
" clip-path="url(#pbb8c494232)" style="fill: none; stroke: #d62728; stroke-width: 1.5; stroke-linecap: square"/>
   </g>
   <g id="line2d_27">
    <path d="M 298.065 34.053086 
L 309.512105 34.922103 
L 320.959211 37.520001 
L 332.406316 41.299786 
L 343.853421 46.421735 
L 355.300526 52.284723 
L 366.747632 58.813929 
L 378.194737 65.665221 
L 389.641842 72.687127 
L 401.088947 79.708279 
L 412.536053 86.781241 
L 423.983158 93.747417 
L 435.430263 100.215306 
L 446.877368 106.828329 
L 458.324474 112.73801 
L 469.771579 118.876924 
L 481.218684 124.068809 
L 492.665789 130.483804 
L 504.112895 135.155305 
L 515.56 140.064278 
" clip-path="url(#pbb8c494232)" style="fill: none; stroke: #9467bd; stroke-width: 1.5; stroke-linecap: square"/>
   </g>
   <g id="line2d_28">
    <path d="M 298.065 34.068384 
L 309.512105 34.934905 
L 320.959211 37.531715 
L 332.406316 41.311682 
L 343.853421 46.457095 
L 355.300526 52.317425 
L 366.747632 58.845 
L 378.194737 65.708624 
L 389.641842 72.729715 
L 401.088947 79.763919 
L 412.536053 86.857956 
L 423.983158 93.832127 
L 435.430263 100.288482 
L 446.877368 106.915064 
L 458.324474 112.79802 
L 469.771579 118.950056 
L 481.218684 124.156882 
L 492.665789 130.556399 
L 504.112895 135.185303 
L 515.56 140.120167 
" clip-path="url(#pbb8c494232)" style="fill: none; stroke: #8c564b; stroke-width: 1.5; stroke-linecap: square"/>
   </g>
   <g id="line2d_29">
    <path d="M 298.065 48.067584 
L 309.512105 48.843887 
L 320.959211 51.241768 
L 332.406316 54.580396 
L 343.853421 59.277049 
L 355.300526 64.666395 
L 366.747632 70.659242 
L 378.194737 76.857716 
L 389.641842 83.522681 
L 401.088947 89.907074 
L 412.536053 96.666753 
L 423.983158 103.029093 
L 435.430263 108.945445 
L 446.877368 114.990374 
L 458.324474 120.792016 
L 469.771579 126.223926 
L 481.218684 131.04538 
L 492.665789 136.609449 
L 504.112895 141.309733 
L 515.56 145.502209 
" clip-path="url(#pbb8c494232)" style="fill: none; stroke: #e377c2; stroke-width: 1.5; stroke-linecap: square"/>
   </g>
   <g id="line2d_30">
    <path d="M 298.065 34.064075 
L 309.512105 34.930862 
L 320.959211 37.546882 
L 332.406316 41.273736 
L 343.853421 46.472715 
L 355.300526 52.302023 
L 366.747632 58.750108 
L 378.194737 65.638285 
L 389.641842 72.76998 
L 401.088947 79.760616 
L 412.536053 86.998247 
L 423.983158 93.848727 
L 435.430263 100.339057 
L 446.877368 106.764187 
L 458.324474 113.011064 
L 469.771579 118.801648 
L 481.218684 124.171426 
L 492.665789 130.278548 
L 504.112895 135.387541 
L 515.56 139.949464 
" clip-path="url(#pbb8c494232)" style="fill: none; stroke: #7f7f7f; stroke-width: 1.5; stroke-linecap: square"/>
   </g>
   <g id="patch_6">
    <path d="M 298.065 174.04 
L 298.065 26.88 
" style="fill: none; stroke: #000000; stroke-width: 0.8; stroke-linejoin: miter; stroke-linecap: square"/>
   </g>
   <g id="patch_7">
    <path d="M 298.065 174.04 
L 515.56 174.04 
" style="fill: none; stroke: #000000; stroke-width: 0.8; stroke-linejoin: miter; stroke-linecap: square"/>
   </g>
   <g id="text_19">
    <!-- Node * third variable -->
    <g transform="translate(344.2325 20.88)scale(0.12 -0.12)">
     <defs>
      <path id="DejaVuSans-68" d="M 3513 2113 
L 3513 0 
L 2938 0 
L 2938 2094 
Q 2938 2591 2744 2837 
Q 2550 3084 2163 3084 
Q 1697 3084 1428 2787 
Q 1159 2491 1159 1978 
L 1159 0 
L 581 0 
L 581 4863 
L 1159 4863 
L 1159 2956 
Q 1366 3272 1645 3428 
Q 1925 3584 2291 3584 
Q 2894 3584 3203 3211 
Q 3513 2838 3513 2113 
z
" transform="scale(0.015625)"/>
      <path id="DejaVuSans-62" d="M 3116 1747 
Q 3116 2381 2855 2742 
Q 2594 3103 2138 3103 
Q 1681 3103 1420 2742 
Q 1159 2381 1159 1747 
Q 1159 1113 1420 752 
Q 1681 391 2138 391 
Q 2594 391 2855 752 
Q 3116 1113 3116 1747 
z
M 1159 2969 
Q 1341 3281 1617 3432 
Q 1894 3584 2278 3584 
Q 2916 3584 3314 3078 
Q 3713 2572 3713 1747 
Q 3713 922 3314 415 
Q 2916 -91 2278 -91 
Q 1894 -91 1617 61 
Q 1341 213 1159 525 
L 1159 0 
L 581 0 
L 581 4863 
L 1159 4863 
L 1159 2969 
z
" transform="scale(0.015625)"/>
     </defs>
     <use xlink:href="#DejaVuSans-4e"/>
     <use xlink:href="#DejaVuSans-6f" x="74.804688"/>
     <use xlink:href="#DejaVuSans-64" x="135.986328"/>
     <use xlink:href="#DejaVuSans-65" x="199.462891"/>
     <use xlink:href="#DejaVuSans-20" x="260.986328"/>
     <use xlink:href="#DejaVuSans-2a" x="292.773438"/>
     <use xlink:href="#DejaVuSans-20" x="342.773438"/>
     <use xlink:href="#DejaVuSans-74" x="374.560547"/>
     <use xlink:href="#DejaVuSans-68" x="413.769531"/>
     <use xlink:href="#DejaVuSans-69" x="477.148438"/>
     <use xlink:href="#DejaVuSans-72" x="504.931641"/>
     <use xlink:href="#DejaVuSans-64" x="544.294922"/>
     <use xlink:href="#DejaVuSans-20" x="607.771484"/>
     <use xlink:href="#DejaVuSans-76" x="639.558594"/>
     <use xlink:href="#DejaVuSans-61" x="698.738281"/>
     <use xlink:href="#DejaVuSans-72" x="760.017578"/>
     <use xlink:href="#DejaVuSans-69" x="801.130859"/>
     <use xlink:href="#DejaVuSans-61" x="828.914062"/>
     <use xlink:href="#DejaVuSans-62" x="890.193359"/>
     <use xlink:href="#DejaVuSans-6c" x="953.669922"/>
     <use xlink:href="#DejaVuSans-65" x="981.453125"/>
    </g>
   </g>
   <g id="legend_1">
    <g id="line2d_31">
     <path d="M 524.56 39.978437 
L 534.56 39.978437 
L 544.56 39.978437 
" style="fill: none; stroke: #1f77b4; stroke-width: 1.5; stroke-linecap: square"/>
    </g>
    <g id="text_20">
     <!-- Node -->
     <g transform="translate(552.56 43.478437)scale(0.1 -0.1)">
      <use xlink:href="#DejaVuSans-4e"/>
      <use xlink:href="#DejaVuSans-6f" x="74.804688"/>
      <use xlink:href="#DejaVuSans-64" x="135.986328"/>
      <use xlink:href="#DejaVuSans-65" x="199.462891"/>
     </g>
    </g>
    <g id="line2d_32">
     <path d="M 524.56 54.656563 
L 534.56 54.656563 
L 544.56 54.656563 
" style="fill: none; stroke: #ff7f0e; stroke-width: 1.5; stroke-linecap: square"/>
    </g>
    <g id="text_21">
     <!-- Node + surprisal -->
     <g transform="translate(552.56 58.156563)scale(0.1 -0.1)">
      <defs>
       <path id="DejaVuSans-2b" d="M 2944 4013 
L 2944 2272 
L 4684 2272 
L 4684 1741 
L 2944 1741 
L 2944 0 
L 2419 0 
L 2419 1741 
L 678 1741 
L 678 2272 
L 2419 2272 
L 2419 4013 
L 2944 4013 
z
" transform="scale(0.015625)"/>
      </defs>
      <use xlink:href="#DejaVuSans-4e"/>
      <use xlink:href="#DejaVuSans-6f" x="74.804688"/>
      <use xlink:href="#DejaVuSans-64" x="135.986328"/>
      <use xlink:href="#DejaVuSans-65" x="199.462891"/>
      <use xlink:href="#DejaVuSans-20" x="260.986328"/>
      <use xlink:href="#DejaVuSans-2b" x="292.773438"/>
      <use xlink:href="#DejaVuSans-20" x="376.5625"/>
      <use xlink:href="#DejaVuSans-73" x="408.349609"/>
      <use xlink:href="#DejaVuSans-75" x="460.449219"/>
      <use xlink:href="#DejaVuSans-72" x="523.828125"/>
      <use xlink:href="#DejaVuSans-70" x="564.941406"/>
      <use xlink:href="#DejaVuSans-72" x="628.417969"/>
      <use xlink:href="#DejaVuSans-69" x="669.53125"/>
      <use xlink:href="#DejaVuSans-73" x="697.314453"/>
      <use xlink:href="#DejaVuSans-61" x="749.414062"/>
      <use xlink:href="#DejaVuSans-6c" x="810.693359"/>
     </g>
    </g>
    <g id="line2d_33">
     <path d="M 524.56 69.334687 
L 534.56 69.334687 
L 544.56 69.334687 
" style="fill: none; stroke: #2ca02c; stroke-width: 1.5; stroke-linecap: square"/>
    </g>
    <g id="text_22">
     <!-- Node split -->
     <g transform="translate(552.56 72.834687)scale(0.1 -0.1)">
      <use xlink:href="#DejaVuSans-4e"/>
      <use xlink:href="#DejaVuSans-6f" x="74.804688"/>
      <use xlink:href="#DejaVuSans-64" x="135.986328"/>
      <use xlink:href="#DejaVuSans-65" x="199.462891"/>
      <use xlink:href="#DejaVuSans-20" x="260.986328"/>
      <use xlink:href="#DejaVuSans-73" x="292.773438"/>
      <use xlink:href="#DejaVuSans-70" x="344.873047"/>
      <use xlink:href="#DejaVuSans-6c" x="408.349609"/>
      <use xlink:href="#DejaVuSans-69" x="436.132812"/>
      <use xlink:href="#DejaVuSans-74" x="463.916016"/>
     </g>
    </g>
    <g id="line2d_34">
     <path d="M 524.56 84.012812 
L 534.56 84.012812 
L 544.56 84.012812 
" style="fill: none; stroke: #d62728; stroke-width: 1.5; stroke-linecap: square"/>
    </g>
    <g id="text_23">
     <!-- Node split + surprisal -->
     <g transform="translate(552.56 87.512812)scale(0.1 -0.1)">
      <use xlink:href="#DejaVuSans-4e"/>
      <use xlink:href="#DejaVuSans-6f" x="74.804688"/>
      <use xlink:href="#DejaVuSans-64" x="135.986328"/>
      <use xlink:href="#DejaVuSans-65" x="199.462891"/>
      <use xlink:href="#DejaVuSans-20" x="260.986328"/>
      <use xlink:href="#DejaVuSans-73" x="292.773438"/>
      <use xlink:href="#DejaVuSans-70" x="344.873047"/>
      <use xlink:href="#DejaVuSans-6c" x="408.349609"/>
      <use xlink:href="#DejaVuSans-69" x="436.132812"/>
      <use xlink:href="#DejaVuSans-74" x="463.916016"/>
      <use xlink:href="#DejaVuSans-20" x="503.125"/>
      <use xlink:href="#DejaVuSans-2b" x="534.912109"/>
      <use xlink:href="#DejaVuSans-20" x="618.701172"/>
      <use xlink:href="#DejaVuSans-73" x="650.488281"/>
      <use xlink:href="#DejaVuSans-75" x="702.587891"/>
      <use xlink:href="#DejaVuSans-72" x="765.966797"/>
      <use xlink:href="#DejaVuSans-70" x="807.080078"/>
      <use xlink:href="#DejaVuSans-72" x="870.556641"/>
      <use xlink:href="#DejaVuSans-69" x="911.669922"/>
      <use xlink:href="#DejaVuSans-73" x="939.453125"/>
      <use xlink:href="#DejaVuSans-61" x="991.552734"/>
      <use xlink:href="#DejaVuSans-6c" x="1052.832031"/>
     </g>
    </g>
    <g id="line2d_35">
     <path d="M 524.56 98.690937 
L 534.56 98.690937 
L 544.56 98.690937 
" style="fill: none; stroke: #9467bd; stroke-width: 1.5; stroke-linecap: square"/>
    </g>
    <g id="text_24">
     <!-- Node random split -->
     <g transform="translate(552.56 102.190937)scale(0.1 -0.1)">
      <use xlink:href="#DejaVuSans-4e"/>
      <use xlink:href="#DejaVuSans-6f" x="74.804688"/>
      <use xlink:href="#DejaVuSans-64" x="135.986328"/>
      <use xlink:href="#DejaVuSans-65" x="199.462891"/>
      <use xlink:href="#DejaVuSans-20" x="260.986328"/>
      <use xlink:href="#DejaVuSans-72" x="292.773438"/>
      <use xlink:href="#DejaVuSans-61" x="333.886719"/>
      <use xlink:href="#DejaVuSans-6e" x="395.166016"/>
      <use xlink:href="#DejaVuSans-64" x="458.544922"/>
      <use xlink:href="#DejaVuSans-6f" x="522.021484"/>
      <use xlink:href="#DejaVuSans-6d" x="583.203125"/>
      <use xlink:href="#DejaVuSans-20" x="680.615234"/>
      <use xlink:href="#DejaVuSans-73" x="712.402344"/>
      <use xlink:href="#DejaVuSans-70" x="764.501953"/>
      <use xlink:href="#DejaVuSans-6c" x="827.978516"/>
      <use xlink:href="#DejaVuSans-69" x="855.761719"/>
      <use xlink:href="#DejaVuSans-74" x="883.544922"/>
     </g>
    </g>
    <g id="line2d_36">
     <path d="M 524.56 113.369062 
L 534.56 113.369062 
L 544.56 113.369062 
" style="fill: none; stroke: #8c564b; stroke-width: 1.5; stroke-linecap: square"/>
    </g>
    <g id="text_25">
     <!-- Node random split + surprisal -->
     <g transform="translate(552.56 116.869062)scale(0.1 -0.1)">
      <use xlink:href="#DejaVuSans-4e"/>
      <use xlink:href="#DejaVuSans-6f" x="74.804688"/>
      <use xlink:href="#DejaVuSans-64" x="135.986328"/>
      <use xlink:href="#DejaVuSans-65" x="199.462891"/>
      <use xlink:href="#DejaVuSans-20" x="260.986328"/>
      <use xlink:href="#DejaVuSans-72" x="292.773438"/>
      <use xlink:href="#DejaVuSans-61" x="333.886719"/>
      <use xlink:href="#DejaVuSans-6e" x="395.166016"/>
      <use xlink:href="#DejaVuSans-64" x="458.544922"/>
      <use xlink:href="#DejaVuSans-6f" x="522.021484"/>
      <use xlink:href="#DejaVuSans-6d" x="583.203125"/>
      <use xlink:href="#DejaVuSans-20" x="680.615234"/>
      <use xlink:href="#DejaVuSans-73" x="712.402344"/>
      <use xlink:href="#DejaVuSans-70" x="764.501953"/>
      <use xlink:href="#DejaVuSans-6c" x="827.978516"/>
      <use xlink:href="#DejaVuSans-69" x="855.761719"/>
      <use xlink:href="#DejaVuSans-74" x="883.544922"/>
      <use xlink:href="#DejaVuSans-20" x="922.753906"/>
      <use xlink:href="#DejaVuSans-2b" x="954.541016"/>
      <use xlink:href="#DejaVuSans-20" x="1038.330078"/>
      <use xlink:href="#DejaVuSans-73" x="1070.117188"/>
      <use xlink:href="#DejaVuSans-75" x="1122.216797"/>
      <use xlink:href="#DejaVuSans-72" x="1185.595703"/>
      <use xlink:href="#DejaVuSans-70" x="1226.708984"/>
      <use xlink:href="#DejaVuSans-72" x="1290.185547"/>
      <use xlink:href="#DejaVuSans-69" x="1331.298828"/>
      <use xlink:href="#DejaVuSans-73" x="1359.082031"/>
      <use xlink:href="#DejaVuSans-61" x="1411.181641"/>
      <use xlink:href="#DejaVuSans-6c" x="1472.460938"/>
     </g>
    </g>
    <g id="line2d_37">
     <path d="M 524.56 128.047187 
L 534.56 128.047187 
L 544.56 128.047187 
" style="fill: none; stroke: #e377c2; stroke-width: 1.5; stroke-linecap: square"/>
    </g>
    <g id="text_26">
     <!-- Interaction -->
     <g transform="translate(552.56 131.547187)scale(0.1 -0.1)">
      <use xlink:href="#DejaVuSans-49"/>
      <use xlink:href="#DejaVuSans-6e" x="29.492188"/>
      <use xlink:href="#DejaVuSans-74" x="92.871094"/>
      <use xlink:href="#DejaVuSans-65" x="132.080078"/>
      <use xlink:href="#DejaVuSans-72" x="193.603516"/>
      <use xlink:href="#DejaVuSans-61" x="234.716797"/>
      <use xlink:href="#DejaVuSans-63" x="295.996094"/>
      <use xlink:href="#DejaVuSans-74" x="350.976562"/>
      <use xlink:href="#DejaVuSans-69" x="390.185547"/>
      <use xlink:href="#DejaVuSans-6f" x="417.96875"/>
      <use xlink:href="#DejaVuSans-6e" x="479.150391"/>
     </g>
    </g>
    <g id="line2d_38">
     <path d="M 524.56 142.725312 
L 534.56 142.725312 
L 544.56 142.725312 
" style="fill: none; stroke: #7f7f7f; stroke-width: 1.5; stroke-linecap: square"/>
    </g>
    <g id="text_27">
     <!-- Node + surprisal + interaction -->
     <g transform="translate(552.56 146.225312)scale(0.1 -0.1)">
      <use xlink:href="#DejaVuSans-4e"/>
      <use xlink:href="#DejaVuSans-6f" x="74.804688"/>
      <use xlink:href="#DejaVuSans-64" x="135.986328"/>
      <use xlink:href="#DejaVuSans-65" x="199.462891"/>
      <use xlink:href="#DejaVuSans-20" x="260.986328"/>
      <use xlink:href="#DejaVuSans-2b" x="292.773438"/>
      <use xlink:href="#DejaVuSans-20" x="376.5625"/>
      <use xlink:href="#DejaVuSans-73" x="408.349609"/>
      <use xlink:href="#DejaVuSans-75" x="460.449219"/>
      <use xlink:href="#DejaVuSans-72" x="523.828125"/>
      <use xlink:href="#DejaVuSans-70" x="564.941406"/>
      <use xlink:href="#DejaVuSans-72" x="628.417969"/>
      <use xlink:href="#DejaVuSans-69" x="669.53125"/>
      <use xlink:href="#DejaVuSans-73" x="697.314453"/>
      <use xlink:href="#DejaVuSans-61" x="749.414062"/>
      <use xlink:href="#DejaVuSans-6c" x="810.693359"/>
      <use xlink:href="#DejaVuSans-20" x="838.476562"/>
      <use xlink:href="#DejaVuSans-2b" x="870.263672"/>
      <use xlink:href="#DejaVuSans-20" x="954.052734"/>
      <use xlink:href="#DejaVuSans-69" x="985.839844"/>
      <use xlink:href="#DejaVuSans-6e" x="1013.623047"/>
      <use xlink:href="#DejaVuSans-74" x="1077.001953"/>
      <use xlink:href="#DejaVuSans-65" x="1116.210938"/>
      <use xlink:href="#DejaVuSans-72" x="1177.734375"/>
      <use xlink:href="#DejaVuSans-61" x="1218.847656"/>
      <use xlink:href="#DejaVuSans-63" x="1280.126953"/>
      <use xlink:href="#DejaVuSans-74" x="1335.107422"/>
      <use xlink:href="#DejaVuSans-69" x="1374.316406"/>
      <use xlink:href="#DejaVuSans-6f" x="1402.099609"/>
      <use xlink:href="#DejaVuSans-6e" x="1463.28125"/>
     </g>
    </g>
   </g>
  </g>
 </g>
 <defs>
  <clipPath id="p4ba27efa9a">
   <rect x="47.72" y="26.88" width="217.495" height="147.16"/>
  </clipPath>
  <clipPath id="pbb8c494232">
   <rect x="298.065" y="26.88" width="217.495" height="147.16"/>
  </clipPath>
 </defs>
</svg>
