<?xml version="1.0" encoding="utf-8" standalone="no"?>
<!DOCTYPE svg PUBLIC "-//W3C//DTD SVG 1.1//EN"
  "http://www.w3.org/Graphics/SVG/1.1/DTD/svg11.dtd">
<svg xmlns:xlink="http://www.w3.org/1999/xlink" width="720pt" height="216pt" viewBox="0 0 720 216" xmlns="http://www.w3.org/2000/svg" version="1.1">
 <metadata>
  <rdf:RDF xmlns:dc="http://purl.org/dc/elements/1.1/" xmlns:cc="http://creativecommons.org/ns#" xmlns:rdf="http://www.w3.org/1999/02/22-rdf-syntax-ns#">
   <cc:Work>
    <dc:type rdf:resource="http://purl.org/dc/dcmitype/StillImage"/>
    <dc:date>2024-01-15T20:54:27.983916</dc:date>
    <dc:format>image/svg+xml</dc:format>
    <dc:creator>
     <cc:Agent>
      <dc:title>Matplotlib v3.5.1, https://matplotlib.org/</dc:title>
     </cc:Agent>
    </dc:creator>
   </cc:Work>
  </rdf:RDF>
 </metadata>
 <defs>
  <style type="text/css">*{stroke-linejoin: round; stroke-linecap: butt}</style>
 </defs>
 <g id="figure_1">
  <g id="patch_1">
   <path d="M 0 216 
L 720 216 
L 720 0 
L 0 0 
z
" style="fill: #ffffff"/>
  </g>
  <g id="axes_1">
   <g id="patch_2">
    <path d="M 47.72 174.04 
L 265.215 174.04 
L 265.215 26.88 
L 47.72 26.88 
z
" style="fill: #ffffff"/>
   </g>
   <g id="PolyCollection_1">
    <path d="M 47.72 33.768561 
L 47.72 34.565675 
L 59.167105 35.595099 
L 70.614211 38.360853 
L 82.061316 42.37332 
L 93.508421 48.011166 
L 104.955526 54.564937 
L 116.402632 61.816929 
L 127.849737 69.558537 
L 139.296842 77.816506 
L 150.743947 85.454346 
L 162.191053 93.717575 
L 173.638158 101.996245 
L 185.085263 109.30479 
L 196.532368 116.427171 
L 207.979474 124.042284 
L 219.426579 130.654275 
L 230.873684 137.179441 
L 242.320789 143.397415 
L 253.767895 148.649937 
L 265.215 154.315093 
L 265.215 138.984548 
L 265.215 138.984548 
L 253.767895 133.840509 
L 242.320789 128.624976 
L 230.873684 123.596384 
L 219.426579 118.238357 
L 207.979474 112.312265 
L 196.532368 105.556563 
L 185.085263 98.792688 
L 173.638158 92.093338 
L 162.191053 84.955362 
L 150.743947 77.737664 
L 139.296842 70.066771 
L 127.849737 62.96872 
L 116.402632 56.927963 
L 104.955526 50.133258 
L 93.508421 44.844191 
L 82.061316 40.56714 
L 70.614211 36.802763 
L 59.167105 34.745939 
L 47.72 33.768561 
z
" clip-path="url(#pad12ab9e35)" style="fill: #1f77b4; fill-opacity: 0.4"/>
   </g>
   <g id="PolyCollection_2">
    <path d="M 47.72 33.783273 
L 47.72 34.571431 
L 59.167105 35.353879 
L 70.614211 36.627325 
L 82.061316 39.004777 
L 93.508421 41.850591 
L 104.955526 45.852276 
L 116.402632 50.956092 
L 127.849737 56.131581 
L 139.296842 62.57279 
L 150.743947 69.137212 
L 162.191053 76.263315 
L 173.638158 83.432575 
L 185.085263 90.121934 
L 196.532368 97.097063 
L 207.979474 104.005768 
L 219.426579 110.348716 
L 230.873684 116.710223 
L 242.320789 122.921185 
L 253.767895 128.429463 
L 265.215 134.048323 
L 265.215 122.399234 
L 265.215 122.399234 
L 253.767895 116.617808 
L 242.320789 111.682372 
L 230.873684 106.266456 
L 219.426579 100.802736 
L 207.979474 95.078924 
L 196.532368 88.423558 
L 185.085263 82.016014 
L 173.638158 76.099937 
L 162.191053 69.892575 
L 150.743947 63.697651 
L 139.296842 58.17284 
L 127.849737 52.826136 
L 116.402632 48.425885 
L 104.955526 44.168951 
L 93.508421 40.699136 
L 82.061316 37.828187 
L 70.614211 35.63623 
L 59.167105 34.459883 
L 47.72 33.783273 
z
" clip-path="url(#pad12ab9e35)" style="fill: #ff7f0e; fill-opacity: 0.4"/>
   </g>
   <g id="PolyCollection_3">
    <path d="M 47.72 33.775631 
L 47.72 34.588805 
L 59.167105 35.433515 
L 70.614211 36.5319 
L 82.061316 38.346989 
L 93.508421 40.589352 
L 104.955526 43.451529 
L 116.402632 46.922351 
L 127.849737 50.246951 
L 139.296842 54.263913 
L 150.743947 58.035586 
L 162.191053 61.950983 
L 173.638158 65.719637 
L 185.085263 69.403689 
L 196.532368 73.035276 
L 207.979474 76.946447 
L 219.426579 80.758834 
L 230.873684 85.219519 
L 242.320789 89.699123 
L 253.767895 93.259295 
L 265.215 97.530393 
L 265.215 90.773335 
L 265.215 90.773335 
L 253.767895 87.050053 
L 242.320789 83.561246 
L 230.873684 79.99797 
L 219.426579 76.763369 
L 207.979474 73.078636 
L 196.532368 69.159564 
L 185.085263 65.075789 
L 173.638158 61.487379 
L 162.191053 57.92105 
L 150.743947 54.306062 
L 139.296842 50.763592 
L 127.849737 47.153613 
L 116.402632 44.412889 
L 104.955526 41.435091 
L 93.508421 38.8139 
L 82.061316 37.196121 
L 70.614211 35.414711 
L 59.167105 34.523526 
L 47.72 33.775631 
z
" clip-path="url(#pad12ab9e35)" style="fill: #2ca02c; fill-opacity: 0.4"/>
   </g>
   <g id="PolyCollection_4">
    <path d="M 47.72 33.795138 
L 47.72 34.598215 
L 59.167105 35.336867 
L 70.614211 36.026508 
L 82.061316 37.525888 
L 93.508421 38.941637 
L 104.955526 41.272957 
L 116.402632 44.265135 
L 127.849737 47.186962 
L 139.296842 51.227914 
L 150.743947 54.924763 
L 162.191053 59.049422 
L 173.638158 62.999354 
L 185.085263 66.852669 
L 196.532368 70.711928 
L 207.979474 74.81671 
L 219.426579 78.79633 
L 230.873684 83.395251 
L 242.320789 88.087299 
L 253.767895 91.679219 
L 265.215 96.060425 
L 265.215 88.730291 
L 265.215 88.730291 
L 253.767895 84.875172 
L 242.320789 81.25753 
L 230.873684 77.718545 
L 219.426579 74.419505 
L 207.979474 70.716816 
L 196.532368 66.703988 
L 185.085263 62.551989 
L 173.638158 58.919466 
L 162.191053 55.364121 
L 150.743947 51.703094 
L 139.296842 48.326679 
L 127.849737 45.072416 
L 116.402632 42.654297 
L 104.955526 40.108845 
L 93.508421 37.939401 
L 82.061316 36.404871 
L 70.614211 35.082497 
L 59.167105 34.415449 
L 47.72 33.795138 
z
" clip-path="url(#pad12ab9e35)" style="fill: #d62728; fill-opacity: 0.4"/>
   </g>
   <g id="PolyCollection_5">
    <path d="M 47.72 33.777611 
L 47.72 34.580268 
L 59.167105 35.608841 
L 70.614211 38.357975 
L 82.061316 42.377042 
L 93.508421 48.038443 
L 104.955526 54.652236 
L 116.402632 61.892154 
L 127.849737 69.774573 
L 139.296842 78.041808 
L 150.743947 86.057954 
L 162.191053 93.886602 
L 173.638158 102.24041 
L 185.085263 109.520302 
L 196.532368 116.616495 
L 207.979474 124.337449 
L 219.426579 131.371627 
L 230.873684 137.498216 
L 242.320789 143.714706 
L 253.767895 149.021031 
L 265.215 154.77461 
L 265.215 139.118154 
L 265.215 139.118154 
L 253.767895 134.195956 
L 242.320789 128.354053 
L 230.873684 123.674325 
L 219.426579 118.758598 
L 207.979474 112.571363 
L 196.532368 105.747213 
L 185.085263 98.619599 
L 173.638158 92.116211 
L 162.191053 85.066197 
L 150.743947 77.879034 
L 139.296842 70.369329 
L 127.849737 63.00616 
L 116.402632 56.900885 
L 104.955526 50.204974 
L 93.508421 44.885347 
L 82.061316 40.622095 
L 70.614211 36.79837 
L 59.167105 34.76042 
L 47.72 33.777611 
z
" clip-path="url(#pad12ab9e35)" style="fill: #9467bd; fill-opacity: 0.4"/>
   </g>
   <g id="PolyCollection_6">
    <path d="M 47.72 33.7924 
L 47.72 34.58722 
L 59.167105 35.36416 
L 70.614211 36.637716 
L 82.061316 39.018887 
L 93.508421 41.874872 
L 104.955526 45.964934 
L 116.402632 50.986886 
L 127.849737 56.154675 
L 139.296842 62.703711 
L 150.743947 69.620792 
L 162.191053 76.449328 
L 173.638158 83.492181 
L 185.085263 90.278457 
L 196.532368 97.159209 
L 207.979474 104.381101 
L 219.426579 111.012751 
L 230.873684 117.065784 
L 242.320789 123.168 
L 253.767895 128.613669 
L 265.215 134.24194 
L 265.215 122.346454 
L 265.215 122.346454 
L 253.767895 116.885918 
L 242.320789 111.55603 
L 230.873684 106.290001 
L 219.426579 101.078702 
L 207.979474 95.296373 
L 196.532368 88.453403 
L 185.085263 81.876355 
L 173.638158 76.147878 
L 162.191053 69.927811 
L 150.743947 63.632583 
L 139.296842 58.327087 
L 127.849737 52.847621 
L 116.402632 48.426876 
L 104.955526 44.188228 
L 93.508421 40.737242 
L 82.061316 37.833838 
L 70.614211 35.632196 
L 59.167105 34.471481 
L 47.72 33.7924 
z
" clip-path="url(#pad12ab9e35)" style="fill: #8c564b; fill-opacity: 0.4"/>
   </g>
   <g id="PolyCollection_7">
    <path d="M 47.72 45.767397 
L 47.72 49.439496 
L 59.167105 50.832686 
L 70.614211 54.286826 
L 82.061316 59.26547 
L 93.508421 66.052904 
L 104.955526 73.639105 
L 116.402632 82.045487 
L 127.849737 90.313233 
L 139.296842 98.920282 
L 150.743947 106.897108 
L 162.191053 115.097175 
L 173.638158 122.92197 
L 185.085263 129.761593 
L 196.532368 135.76034 
L 207.979474 142.1345 
L 219.426579 147.445514 
L 230.873684 152.89234 
L 242.320789 158.504163 
L 253.767895 162.735199 
L 265.215 167.350909 
L 265.215 153.34483 
L 265.215 153.34483 
L 253.767895 148.668831 
L 242.320789 143.889372 
L 230.873684 139.564309 
L 219.426579 134.45779 
L 207.979474 128.249496 
L 196.532368 121.353699 
L 185.085263 114.216352 
L 173.638158 107.073179 
L 162.191053 99.622728 
L 150.743947 92.136705 
L 139.296842 84.070188 
L 127.849737 76.53692 
L 116.402632 70.006925 
L 104.955526 62.954754 
L 93.508421 57.09859 
L 82.061316 52.76456 
L 70.614211 48.861153 
L 59.167105 46.672074 
L 47.72 45.767397 
z
" clip-path="url(#pad12ab9e35)" style="fill: #e377c2; fill-opacity: 0.4"/>
   </g>
   <g id="PolyCollection_8">
    <path d="M 47.72 33.792109 
L 47.72 34.584098 
L 59.167105 35.058875 
L 70.614211 34.960594 
L 82.061316 35.55781 
L 93.508421 36.206965 
L 104.955526 38.054302 
L 116.402632 41.230488 
L 127.849737 44.909726 
L 139.296842 50.452869 
L 150.743947 55.678925 
L 162.191053 62.085585 
L 173.638158 68.302221 
L 185.085263 74.700776 
L 196.532368 81.30061 
L 207.979474 87.664545 
L 219.426579 93.566363 
L 230.873684 99.695982 
L 242.320789 106.278601 
L 253.767895 112.567494 
L 265.215 118.831115 
L 265.215 107.39752 
L 265.215 107.39752 
L 253.767895 100.671055 
L 242.320789 94.693674 
L 230.873684 88.700204 
L 219.426579 82.44394 
L 207.979474 75.816996 
L 196.532368 69.494057 
L 185.085263 63.031452 
L 173.638158 57.797887 
L 162.191053 52.362114 
L 150.743947 47.560361 
L 139.296842 43.415487 
L 127.849737 40.268161 
L 116.402632 38.140362 
L 104.955526 36.236928 
L 93.508421 35.118312 
L 82.061316 34.414255 
L 70.614211 33.914545 
L 59.167105 34.104648 
L 47.72 33.792109 
z
" clip-path="url(#pad12ab9e35)" style="fill: #7f7f7f; fill-opacity: 0.4"/>
   </g>
   <g id="matplotlib.axis_1">
    <g id="xtick_1">
     <g id="line2d_1">
      <defs>
       <path id="m114f67b7bf" d="M 0 0 
L 0 3.5 
" style="stroke: #000000; stroke-width: 0.8"/>
      </defs>
      <g>
       <use xlink:href="#m114f67b7bf" x="47.72" y="174.04" style="stroke: #000000; stroke-width: 0.8"/>
      </g>
     </g>
     <g id="text_1">
      <!-- 0.0 -->
      <g transform="translate(39.768438 188.638438)scale(0.1 -0.1)">
       <defs>
        <path id="DejaVuSans-30" d="M 2034 4250 
Q 1547 4250 1301 3770 
Q 1056 3291 1056 2328 
Q 1056 1369 1301 889 
Q 1547 409 2034 409 
Q 2525 409 2770 889 
Q 3016 1369 3016 2328 
Q 3016 3291 2770 3770 
Q 2525 4250 2034 4250 
z
M 2034 4750 
Q 2819 4750 3233 4129 
Q 3647 3509 3647 2328 
Q 3647 1150 3233 529 
Q 2819 -91 2034 -91 
Q 1250 -91 836 529 
Q 422 1150 422 2328 
Q 422 3509 836 4129 
Q 1250 4750 2034 4750 
z
" transform="scale(0.015625)"/>
        <path id="DejaVuSans-2e" d="M 684 794 
L 1344 794 
L 1344 0 
L 684 0 
L 684 794 
z
" transform="scale(0.015625)"/>
       </defs>
       <use xlink:href="#DejaVuSans-30"/>
       <use xlink:href="#DejaVuSans-2e" x="63.623047"/>
       <use xlink:href="#DejaVuSans-30" x="95.410156"/>
      </g>
     </g>
    </g>
    <g id="xtick_2">
     <g id="line2d_2">
      <g>
       <use xlink:href="#m114f67b7bf" x="102.09375" y="174.04" style="stroke: #000000; stroke-width: 0.8"/>
      </g>
     </g>
     <g id="text_2">
      <!-- 0.5 -->
      <g transform="translate(94.142188 188.638438)scale(0.1 -0.1)">
       <defs>
        <path id="DejaVuSans-35" d="M 691 4666 
L 3169 4666 
L 3169 4134 
L 1269 4134 
L 1269 2991 
Q 1406 3038 1543 3061 
Q 1681 3084 1819 3084 
Q 2600 3084 3056 2656 
Q 3513 2228 3513 1497 
Q 3513 744 3044 326 
Q 2575 -91 1722 -91 
Q 1428 -91 1123 -41 
Q 819 9 494 109 
L 494 744 
Q 775 591 1075 516 
Q 1375 441 1709 441 
Q 2250 441 2565 725 
Q 2881 1009 2881 1497 
Q 2881 1984 2565 2268 
Q 2250 2553 1709 2553 
Q 1456 2553 1204 2497 
Q 953 2441 691 2322 
L 691 4666 
z
" transform="scale(0.015625)"/>
       </defs>
       <use xlink:href="#DejaVuSans-30"/>
       <use xlink:href="#DejaVuSans-2e" x="63.623047"/>
       <use xlink:href="#DejaVuSans-35" x="95.410156"/>
      </g>
     </g>
    </g>
    <g id="xtick_3">
     <g id="line2d_3">
      <g>
       <use xlink:href="#m114f67b7bf" x="156.4675" y="174.04" style="stroke: #000000; stroke-width: 0.8"/>
      </g>
     </g>
     <g id="text_3">
      <!-- 1.0 -->
      <g transform="translate(148.515938 188.638438)scale(0.1 -0.1)">
       <defs>
        <path id="DejaVuSans-31" d="M 794 531 
L 1825 531 
L 1825 4091 
L 703 3866 
L 703 4441 
L 1819 4666 
L 2450 4666 
L 2450 531 
L 3481 531 
L 3481 0 
L 794 0 
L 794 531 
z
" transform="scale(0.015625)"/>
       </defs>
       <use xlink:href="#DejaVuSans-31"/>
       <use xlink:href="#DejaVuSans-2e" x="63.623047"/>
       <use xlink:href="#DejaVuSans-30" x="95.410156"/>
      </g>
     </g>
    </g>
    <g id="xtick_4">
     <g id="line2d_4">
      <g>
       <use xlink:href="#m114f67b7bf" x="210.84125" y="174.04" style="stroke: #000000; stroke-width: 0.8"/>
      </g>
     </g>
     <g id="text_4">
      <!-- 1.5 -->
      <g transform="translate(202.889687 188.638438)scale(0.1 -0.1)">
       <use xlink:href="#DejaVuSans-31"/>
       <use xlink:href="#DejaVuSans-2e" x="63.623047"/>
       <use xlink:href="#DejaVuSans-35" x="95.410156"/>
      </g>
     </g>
    </g>
    <g id="xtick_5">
     <g id="line2d_5">
      <g>
       <use xlink:href="#m114f67b7bf" x="265.215" y="174.04" style="stroke: #000000; stroke-width: 0.8"/>
      </g>
     </g>
     <g id="text_5">
      <!-- 2.0 -->
      <g transform="translate(257.263437 188.638438)scale(0.1 -0.1)">
       <defs>
        <path id="DejaVuSans-32" d="M 1228 531 
L 3431 531 
L 3431 0 
L 469 0 
L 469 531 
Q 828 903 1448 1529 
Q 2069 2156 2228 2338 
Q 2531 2678 2651 2914 
Q 2772 3150 2772 3378 
Q 2772 3750 2511 3984 
Q 2250 4219 1831 4219 
Q 1534 4219 1204 4116 
Q 875 4013 500 3803 
L 500 4441 
Q 881 4594 1212 4672 
Q 1544 4750 1819 4750 
Q 2544 4750 2975 4387 
Q 3406 4025 3406 3419 
Q 3406 3131 3298 2873 
Q 3191 2616 2906 2266 
Q 2828 2175 2409 1742 
Q 1991 1309 1228 531 
z
" transform="scale(0.015625)"/>
       </defs>
       <use xlink:href="#DejaVuSans-32"/>
       <use xlink:href="#DejaVuSans-2e" x="63.623047"/>
       <use xlink:href="#DejaVuSans-30" x="95.410156"/>
      </g>
     </g>
    </g>
    <g id="text_6">
     <!-- Influence of surprisal (multiplication) -->
     <g transform="translate(64.320625 202.316563)scale(0.1 -0.1)">
      <defs>
       <path id="DejaVuSans-49" d="M 628 4666 
L 1259 4666 
L 1259 0 
L 628 0 
L 628 4666 
z
" transform="scale(0.015625)"/>
       <path id="DejaVuSans-6e" d="M 3513 2113 
L 3513 0 
L 2938 0 
L 2938 2094 
Q 2938 2591 2744 2837 
Q 2550 3084 2163 3084 
Q 1697 3084 1428 2787 
Q 1159 2491 1159 1978 
L 1159 0 
L 581 0 
L 581 3500 
L 1159 3500 
L 1159 2956 
Q 1366 3272 1645 3428 
Q 1925 3584 2291 3584 
Q 2894 3584 3203 3211 
Q 3513 2838 3513 2113 
z
" transform="scale(0.015625)"/>
       <path id="DejaVuSans-66" d="M 2375 4863 
L 2375 4384 
L 1825 4384 
Q 1516 4384 1395 4259 
Q 1275 4134 1275 3809 
L 1275 3500 
L 2222 3500 
L 2222 3053 
L 1275 3053 
L 1275 0 
L 697 0 
L 697 3053 
L 147 3053 
L 147 3500 
L 697 3500 
L 697 3744 
Q 697 4328 969 4595 
Q 1241 4863 1831 4863 
L 2375 4863 
z
" transform="scale(0.015625)"/>
       <path id="DejaVuSans-6c" d="M 603 4863 
L 1178 4863 
L 1178 0 
L 603 0 
L 603 4863 
z
" transform="scale(0.015625)"/>
       <path id="DejaVuSans-75" d="M 544 1381 
L 544 3500 
L 1119 3500 
L 1119 1403 
Q 1119 906 1312 657 
Q 1506 409 1894 409 
Q 2359 409 2629 706 
Q 2900 1003 2900 1516 
L 2900 3500 
L 3475 3500 
L 3475 0 
L 2900 0 
L 2900 538 
Q 2691 219 2414 64 
Q 2138 -91 1772 -91 
Q 1169 -91 856 284 
Q 544 659 544 1381 
z
M 1991 3584 
L 1991 3584 
z
" transform="scale(0.015625)"/>
       <path id="DejaVuSans-65" d="M 3597 1894 
L 3597 1613 
L 953 1613 
Q 991 1019 1311 708 
Q 1631 397 2203 397 
Q 2534 397 2845 478 
Q 3156 559 3463 722 
L 3463 178 
Q 3153 47 2828 -22 
Q 2503 -91 2169 -91 
Q 1331 -91 842 396 
Q 353 884 353 1716 
Q 353 2575 817 3079 
Q 1281 3584 2069 3584 
Q 2775 3584 3186 3129 
Q 3597 2675 3597 1894 
z
M 3022 2063 
Q 3016 2534 2758 2815 
Q 2500 3097 2075 3097 
Q 1594 3097 1305 2825 
Q 1016 2553 972 2059 
L 3022 2063 
z
" transform="scale(0.015625)"/>
       <path id="DejaVuSans-63" d="M 3122 3366 
L 3122 2828 
Q 2878 2963 2633 3030 
Q 2388 3097 2138 3097 
Q 1578 3097 1268 2742 
Q 959 2388 959 1747 
Q 959 1106 1268 751 
Q 1578 397 2138 397 
Q 2388 397 2633 464 
Q 2878 531 3122 666 
L 3122 134 
Q 2881 22 2623 -34 
Q 2366 -91 2075 -91 
Q 1284 -91 818 406 
Q 353 903 353 1747 
Q 353 2603 823 3093 
Q 1294 3584 2113 3584 
Q 2378 3584 2631 3529 
Q 2884 3475 3122 3366 
z
" transform="scale(0.015625)"/>
       <path id="DejaVuSans-20" transform="scale(0.015625)"/>
       <path id="DejaVuSans-6f" d="M 1959 3097 
Q 1497 3097 1228 2736 
Q 959 2375 959 1747 
Q 959 1119 1226 758 
Q 1494 397 1959 397 
Q 2419 397 2687 759 
Q 2956 1122 2956 1747 
Q 2956 2369 2687 2733 
Q 2419 3097 1959 3097 
z
M 1959 3584 
Q 2709 3584 3137 3096 
Q 3566 2609 3566 1747 
Q 3566 888 3137 398 
Q 2709 -91 1959 -91 
Q 1206 -91 779 398 
Q 353 888 353 1747 
Q 353 2609 779 3096 
Q 1206 3584 1959 3584 
z
" transform="scale(0.015625)"/>
       <path id="DejaVuSans-73" d="M 2834 3397 
L 2834 2853 
Q 2591 2978 2328 3040 
Q 2066 3103 1784 3103 
Q 1356 3103 1142 2972 
Q 928 2841 928 2578 
Q 928 2378 1081 2264 
Q 1234 2150 1697 2047 
L 1894 2003 
Q 2506 1872 2764 1633 
Q 3022 1394 3022 966 
Q 3022 478 2636 193 
Q 2250 -91 1575 -91 
Q 1294 -91 989 -36 
Q 684 19 347 128 
L 347 722 
Q 666 556 975 473 
Q 1284 391 1588 391 
Q 1994 391 2212 530 
Q 2431 669 2431 922 
Q 2431 1156 2273 1281 
Q 2116 1406 1581 1522 
L 1381 1569 
Q 847 1681 609 1914 
Q 372 2147 372 2553 
Q 372 3047 722 3315 
Q 1072 3584 1716 3584 
Q 2034 3584 2315 3537 
Q 2597 3491 2834 3397 
z
" transform="scale(0.015625)"/>
       <path id="DejaVuSans-72" d="M 2631 2963 
Q 2534 3019 2420 3045 
Q 2306 3072 2169 3072 
Q 1681 3072 1420 2755 
Q 1159 2438 1159 1844 
L 1159 0 
L 581 0 
L 581 3500 
L 1159 3500 
L 1159 2956 
Q 1341 3275 1631 3429 
Q 1922 3584 2338 3584 
Q 2397 3584 2469 3576 
Q 2541 3569 2628 3553 
L 2631 2963 
z
" transform="scale(0.015625)"/>
       <path id="DejaVuSans-70" d="M 1159 525 
L 1159 -1331 
L 581 -1331 
L 581 3500 
L 1159 3500 
L 1159 2969 
Q 1341 3281 1617 3432 
Q 1894 3584 2278 3584 
Q 2916 3584 3314 3078 
Q 3713 2572 3713 1747 
Q 3713 922 3314 415 
Q 2916 -91 2278 -91 
Q 1894 -91 1617 61 
Q 1341 213 1159 525 
z
M 3116 1747 
Q 3116 2381 2855 2742 
Q 2594 3103 2138 3103 
Q 1681 3103 1420 2742 
Q 1159 2381 1159 1747 
Q 1159 1113 1420 752 
Q 1681 391 2138 391 
Q 2594 391 2855 752 
Q 3116 1113 3116 1747 
z
" transform="scale(0.015625)"/>
       <path id="DejaVuSans-69" d="M 603 3500 
L 1178 3500 
L 1178 0 
L 603 0 
L 603 3500 
z
M 603 4863 
L 1178 4863 
L 1178 4134 
L 603 4134 
L 603 4863 
z
" transform="scale(0.015625)"/>
       <path id="DejaVuSans-61" d="M 2194 1759 
Q 1497 1759 1228 1600 
Q 959 1441 959 1056 
Q 959 750 1161 570 
Q 1363 391 1709 391 
Q 2188 391 2477 730 
Q 2766 1069 2766 1631 
L 2766 1759 
L 2194 1759 
z
M 3341 1997 
L 3341 0 
L 2766 0 
L 2766 531 
Q 2569 213 2275 61 
Q 1981 -91 1556 -91 
Q 1019 -91 701 211 
Q 384 513 384 1019 
Q 384 1609 779 1909 
Q 1175 2209 1959 2209 
L 2766 2209 
L 2766 2266 
Q 2766 2663 2505 2880 
Q 2244 3097 1772 3097 
Q 1472 3097 1187 3025 
Q 903 2953 641 2809 
L 641 3341 
Q 956 3463 1253 3523 
Q 1550 3584 1831 3584 
Q 2591 3584 2966 3190 
Q 3341 2797 3341 1997 
z
" transform="scale(0.015625)"/>
       <path id="DejaVuSans-28" d="M 1984 4856 
Q 1566 4138 1362 3434 
Q 1159 2731 1159 2009 
Q 1159 1288 1364 580 
Q 1569 -128 1984 -844 
L 1484 -844 
Q 1016 -109 783 600 
Q 550 1309 550 2009 
Q 550 2706 781 3412 
Q 1013 4119 1484 4856 
L 1984 4856 
z
" transform="scale(0.015625)"/>
       <path id="DejaVuSans-6d" d="M 3328 2828 
Q 3544 3216 3844 3400 
Q 4144 3584 4550 3584 
Q 5097 3584 5394 3201 
Q 5691 2819 5691 2113 
L 5691 0 
L 5113 0 
L 5113 2094 
Q 5113 2597 4934 2840 
Q 4756 3084 4391 3084 
Q 3944 3084 3684 2787 
Q 3425 2491 3425 1978 
L 3425 0 
L 2847 0 
L 2847 2094 
Q 2847 2600 2669 2842 
Q 2491 3084 2119 3084 
Q 1678 3084 1418 2786 
Q 1159 2488 1159 1978 
L 1159 0 
L 581 0 
L 581 3500 
L 1159 3500 
L 1159 2956 
Q 1356 3278 1631 3431 
Q 1906 3584 2284 3584 
Q 2666 3584 2933 3390 
Q 3200 3197 3328 2828 
z
" transform="scale(0.015625)"/>
       <path id="DejaVuSans-74" d="M 1172 4494 
L 1172 3500 
L 2356 3500 
L 2356 3053 
L 1172 3053 
L 1172 1153 
Q 1172 725 1289 603 
Q 1406 481 1766 481 
L 2356 481 
L 2356 0 
L 1766 0 
Q 1100 0 847 248 
Q 594 497 594 1153 
L 594 3053 
L 172 3053 
L 172 3500 
L 594 3500 
L 594 4494 
L 1172 4494 
z
" transform="scale(0.015625)"/>
       <path id="DejaVuSans-29" d="M 513 4856 
L 1013 4856 
Q 1481 4119 1714 3412 
Q 1947 2706 1947 2009 
Q 1947 1309 1714 600 
Q 1481 -109 1013 -844 
L 513 -844 
Q 928 -128 1133 580 
Q 1338 1288 1338 2009 
Q 1338 2731 1133 3434 
Q 928 4138 513 4856 
z
" transform="scale(0.015625)"/>
      </defs>
      <use xlink:href="#DejaVuSans-49"/>
      <use xlink:href="#DejaVuSans-6e" x="29.492188"/>
      <use xlink:href="#DejaVuSans-66" x="92.871094"/>
      <use xlink:href="#DejaVuSans-6c" x="128.076172"/>
      <use xlink:href="#DejaVuSans-75" x="155.859375"/>
      <use xlink:href="#DejaVuSans-65" x="219.238281"/>
      <use xlink:href="#DejaVuSans-6e" x="280.761719"/>
      <use xlink:href="#DejaVuSans-63" x="344.140625"/>
      <use xlink:href="#DejaVuSans-65" x="399.121094"/>
      <use xlink:href="#DejaVuSans-20" x="460.644531"/>
      <use xlink:href="#DejaVuSans-6f" x="492.431641"/>
      <use xlink:href="#DejaVuSans-66" x="553.613281"/>
      <use xlink:href="#DejaVuSans-20" x="588.818359"/>
      <use xlink:href="#DejaVuSans-73" x="620.605469"/>
      <use xlink:href="#DejaVuSans-75" x="672.705078"/>
      <use xlink:href="#DejaVuSans-72" x="736.083984"/>
      <use xlink:href="#DejaVuSans-70" x="777.197266"/>
      <use xlink:href="#DejaVuSans-72" x="840.673828"/>
      <use xlink:href="#DejaVuSans-69" x="881.787109"/>
      <use xlink:href="#DejaVuSans-73" x="909.570312"/>
      <use xlink:href="#DejaVuSans-61" x="961.669922"/>
      <use xlink:href="#DejaVuSans-6c" x="1022.949219"/>
      <use xlink:href="#DejaVuSans-20" x="1050.732422"/>
      <use xlink:href="#DejaVuSans-28" x="1082.519531"/>
      <use xlink:href="#DejaVuSans-6d" x="1121.533203"/>
      <use xlink:href="#DejaVuSans-75" x="1218.945312"/>
      <use xlink:href="#DejaVuSans-6c" x="1282.324219"/>
      <use xlink:href="#DejaVuSans-74" x="1310.107422"/>
      <use xlink:href="#DejaVuSans-69" x="1349.316406"/>
      <use xlink:href="#DejaVuSans-70" x="1377.099609"/>
      <use xlink:href="#DejaVuSans-6c" x="1440.576172"/>
      <use xlink:href="#DejaVuSans-69" x="1468.359375"/>
      <use xlink:href="#DejaVuSans-63" x="1496.142578"/>
      <use xlink:href="#DejaVuSans-61" x="1551.123047"/>
      <use xlink:href="#DejaVuSans-74" x="1612.402344"/>
      <use xlink:href="#DejaVuSans-69" x="1651.611328"/>
      <use xlink:href="#DejaVuSans-6f" x="1679.394531"/>
      <use xlink:href="#DejaVuSans-6e" x="1740.576172"/>
      <use xlink:href="#DejaVuSans-29" x="1803.955078"/>
     </g>
    </g>
   </g>
   <g id="matplotlib.axis_2">
    <g id="ytick_1">
     <g id="line2d_6">
      <defs>
       <path id="mbf129288fb" d="M 0 0 
L -3.5 0 
" style="stroke: #000000; stroke-width: 0.8"/>
      </defs>
      <g>
       <use xlink:href="#mbf129288fb" x="47.72" y="139.314441" style="stroke: #000000; stroke-width: 0.8"/>
      </g>
     </g>
     <g id="text_7">
      <!-- 0.4 -->
      <g transform="translate(24.816875 143.11366)scale(0.1 -0.1)">
       <defs>
        <path id="DejaVuSans-34" d="M 2419 4116 
L 825 1625 
L 2419 1625 
L 2419 4116 
z
M 2253 4666 
L 3047 4666 
L 3047 1625 
L 3713 1625 
L 3713 1100 
L 3047 1100 
L 3047 0 
L 2419 0 
L 2419 1100 
L 313 1100 
L 313 1709 
L 2253 4666 
z
" transform="scale(0.015625)"/>
       </defs>
       <use xlink:href="#DejaVuSans-30"/>
       <use xlink:href="#DejaVuSans-2e" x="63.623047"/>
       <use xlink:href="#DejaVuSans-34" x="95.410156"/>
      </g>
     </g>
    </g>
    <g id="ytick_2">
     <g id="line2d_7">
      <g>
       <use xlink:href="#mbf129288fb" x="47.72" y="100.692369" style="stroke: #000000; stroke-width: 0.8"/>
      </g>
     </g>
     <g id="text_8">
      <!-- 0.6 -->
      <g transform="translate(24.816875 104.491588)scale(0.1 -0.1)">
       <defs>
        <path id="DejaVuSans-36" d="M 2113 2584 
Q 1688 2584 1439 2293 
Q 1191 2003 1191 1497 
Q 1191 994 1439 701 
Q 1688 409 2113 409 
Q 2538 409 2786 701 
Q 3034 994 3034 1497 
Q 3034 2003 2786 2293 
Q 2538 2584 2113 2584 
z
M 3366 4563 
L 3366 3988 
Q 3128 4100 2886 4159 
Q 2644 4219 2406 4219 
Q 1781 4219 1451 3797 
Q 1122 3375 1075 2522 
Q 1259 2794 1537 2939 
Q 1816 3084 2150 3084 
Q 2853 3084 3261 2657 
Q 3669 2231 3669 1497 
Q 3669 778 3244 343 
Q 2819 -91 2113 -91 
Q 1303 -91 875 529 
Q 447 1150 447 2328 
Q 447 3434 972 4092 
Q 1497 4750 2381 4750 
Q 2619 4750 2861 4703 
Q 3103 4656 3366 4563 
z
" transform="scale(0.015625)"/>
       </defs>
       <use xlink:href="#DejaVuSans-30"/>
       <use xlink:href="#DejaVuSans-2e" x="63.623047"/>
       <use xlink:href="#DejaVuSans-36" x="95.410156"/>
      </g>
     </g>
    </g>
    <g id="ytick_3">
     <g id="line2d_8">
      <g>
       <use xlink:href="#mbf129288fb" x="47.72" y="62.070297" style="stroke: #000000; stroke-width: 0.8"/>
      </g>
     </g>
     <g id="text_9">
      <!-- 0.8 -->
      <g transform="translate(24.816875 65.869515)scale(0.1 -0.1)">
       <defs>
        <path id="DejaVuSans-38" d="M 2034 2216 
Q 1584 2216 1326 1975 
Q 1069 1734 1069 1313 
Q 1069 891 1326 650 
Q 1584 409 2034 409 
Q 2484 409 2743 651 
Q 3003 894 3003 1313 
Q 3003 1734 2745 1975 
Q 2488 2216 2034 2216 
z
M 1403 2484 
Q 997 2584 770 2862 
Q 544 3141 544 3541 
Q 544 4100 942 4425 
Q 1341 4750 2034 4750 
Q 2731 4750 3128 4425 
Q 3525 4100 3525 3541 
Q 3525 3141 3298 2862 
Q 3072 2584 2669 2484 
Q 3125 2378 3379 2068 
Q 3634 1759 3634 1313 
Q 3634 634 3220 271 
Q 2806 -91 2034 -91 
Q 1263 -91 848 271 
Q 434 634 434 1313 
Q 434 1759 690 2068 
Q 947 2378 1403 2484 
z
M 1172 3481 
Q 1172 3119 1398 2916 
Q 1625 2713 2034 2713 
Q 2441 2713 2670 2916 
Q 2900 3119 2900 3481 
Q 2900 3844 2670 4047 
Q 2441 4250 2034 4250 
Q 1625 4250 1398 4047 
Q 1172 3844 1172 3481 
z
" transform="scale(0.015625)"/>
       </defs>
       <use xlink:href="#DejaVuSans-30"/>
       <use xlink:href="#DejaVuSans-2e" x="63.623047"/>
       <use xlink:href="#DejaVuSans-38" x="95.410156"/>
      </g>
     </g>
    </g>
    <g id="text_10">
     <!-- R-value -->
     <g transform="translate(18.737188 119.064687)rotate(-90)scale(0.1 -0.1)">
      <defs>
       <path id="DejaVuSans-52" d="M 2841 2188 
Q 3044 2119 3236 1894 
Q 3428 1669 3622 1275 
L 4263 0 
L 3584 0 
L 2988 1197 
Q 2756 1666 2539 1819 
Q 2322 1972 1947 1972 
L 1259 1972 
L 1259 0 
L 628 0 
L 628 4666 
L 2053 4666 
Q 2853 4666 3247 4331 
Q 3641 3997 3641 3322 
Q 3641 2881 3436 2590 
Q 3231 2300 2841 2188 
z
M 1259 4147 
L 1259 2491 
L 2053 2491 
Q 2509 2491 2742 2702 
Q 2975 2913 2975 3322 
Q 2975 3731 2742 3939 
Q 2509 4147 2053 4147 
L 1259 4147 
z
" transform="scale(0.015625)"/>
       <path id="DejaVuSans-2d" d="M 313 2009 
L 1997 2009 
L 1997 1497 
L 313 1497 
L 313 2009 
z
" transform="scale(0.015625)"/>
       <path id="DejaVuSans-76" d="M 191 3500 
L 800 3500 
L 1894 563 
L 2988 3500 
L 3597 3500 
L 2284 0 
L 1503 0 
L 191 3500 
z
" transform="scale(0.015625)"/>
      </defs>
      <use xlink:href="#DejaVuSans-52"/>
      <use xlink:href="#DejaVuSans-2d" x="65.482422"/>
      <use xlink:href="#DejaVuSans-76" x="98.941406"/>
      <use xlink:href="#DejaVuSans-61" x="158.121094"/>
      <use xlink:href="#DejaVuSans-6c" x="219.400391"/>
      <use xlink:href="#DejaVuSans-75" x="247.183594"/>
      <use xlink:href="#DejaVuSans-65" x="310.5625"/>
     </g>
    </g>
   </g>
   <g id="line2d_9">
    <path d="M 47.72 34.167118 
L 59.167105 35.170519 
L 70.614211 37.581808 
L 82.061316 41.47023 
L 93.508421 46.427678 
L 104.955526 52.349097 
L 116.402632 59.372446 
L 127.849737 66.263629 
L 139.296842 73.941639 
L 150.743947 81.596005 
L 162.191053 89.336469 
L 173.638158 97.044791 
L 185.085263 104.048739 
L 196.532368 110.991867 
L 207.979474 118.177275 
L 219.426579 124.446316 
L 230.873684 130.387913 
L 242.320789 136.011195 
L 253.767895 141.245223 
L 265.215 146.64982 
" clip-path="url(#pad12ab9e35)" style="fill: none; stroke: #1f77b4; stroke-width: 1.5; stroke-linecap: square"/>
   </g>
   <g id="line2d_10">
    <path d="M 47.72 34.177352 
L 59.167105 34.906881 
L 70.614211 36.131778 
L 82.061316 38.416482 
L 93.508421 41.274863 
L 104.955526 45.010614 
L 116.402632 49.690988 
L 127.849737 54.478859 
L 139.296842 60.372815 
L 150.743947 66.417431 
L 162.191053 73.077945 
L 173.638158 79.766256 
L 185.085263 86.068974 
L 196.532368 92.760311 
L 207.979474 99.542346 
L 219.426579 105.575726 
L 230.873684 111.488339 
L 242.320789 117.301779 
L 253.767895 122.523636 
L 265.215 128.223778 
" clip-path="url(#pad12ab9e35)" style="fill: none; stroke: #ff7f0e; stroke-width: 1.5; stroke-linecap: square"/>
   </g>
   <g id="line2d_11">
    <path d="M 47.72 34.182218 
L 59.167105 34.97852 
L 70.614211 35.973306 
L 82.061316 37.771555 
L 93.508421 39.701626 
L 104.955526 42.44331 
L 116.402632 45.66762 
L 127.849737 48.700282 
L 139.296842 52.513752 
L 150.743947 56.170824 
L 162.191053 59.936017 
L 173.638158 63.603508 
L 185.085263 67.239739 
L 196.532368 71.09742 
L 207.979474 75.012542 
L 219.426579 78.761102 
L 230.873684 82.608745 
L 242.320789 86.630185 
L 253.767895 90.154674 
L 265.215 94.151864 
" clip-path="url(#pad12ab9e35)" style="fill: none; stroke: #2ca02c; stroke-width: 1.5; stroke-linecap: square"/>
   </g>
   <g id="line2d_12">
    <path d="M 47.72 34.196677 
L 59.167105 34.876158 
L 70.614211 35.554503 
L 82.061316 36.96538 
L 93.508421 38.440519 
L 104.955526 40.690901 
L 116.402632 43.459716 
L 127.849737 46.129689 
L 139.296842 49.777296 
L 150.743947 53.313929 
L 162.191053 57.206772 
L 173.638158 60.95941 
L 185.085263 64.702329 
L 196.532368 68.707958 
L 207.979474 72.766763 
L 219.426579 76.607917 
L 230.873684 80.556898 
L 242.320789 84.672415 
L 253.767895 88.277195 
L 265.215 92.395358 
" clip-path="url(#pad12ab9e35)" style="fill: none; stroke: #d62728; stroke-width: 1.5; stroke-linecap: square"/>
   </g>
   <g id="line2d_13">
    <path d="M 47.72 34.17894 
L 59.167105 35.184631 
L 70.614211 37.578173 
L 82.061316 41.499568 
L 93.508421 46.461895 
L 104.955526 52.428605 
L 116.402632 59.396519 
L 127.849737 66.390367 
L 139.296842 74.205569 
L 150.743947 81.968494 
L 162.191053 89.476399 
L 173.638158 97.178311 
L 185.085263 104.06995 
L 196.532368 111.181854 
L 207.979474 118.454406 
L 219.426579 125.065112 
L 230.873684 130.58627 
L 242.320789 136.034379 
L 253.767895 141.608493 
L 265.215 146.946382 
" clip-path="url(#pad12ab9e35)" style="fill: none; stroke: #9467bd; stroke-width: 1.5; stroke-linecap: square"/>
   </g>
   <g id="line2d_14">
    <path d="M 47.72 34.18981 
L 59.167105 34.91782 
L 70.614211 36.134956 
L 82.061316 38.426362 
L 93.508421 41.306057 
L 104.955526 45.076581 
L 116.402632 49.706881 
L 127.849737 54.501148 
L 139.296842 60.515399 
L 150.743947 66.626688 
L 162.191053 73.188569 
L 173.638158 79.82003 
L 185.085263 86.077406 
L 196.532368 92.806306 
L 207.979474 99.838737 
L 219.426579 106.045727 
L 230.873684 111.677892 
L 242.320789 117.362015 
L 253.767895 122.749794 
L 265.215 128.294197 
" clip-path="url(#pad12ab9e35)" style="fill: none; stroke: #8c564b; stroke-width: 1.5; stroke-linecap: square"/>
   </g>
   <g id="line2d_15">
    <path d="M 47.72 47.603447 
L 59.167105 48.75238 
L 70.614211 51.573989 
L 82.061316 56.015015 
L 93.508421 61.575747 
L 104.955526 68.29693 
L 116.402632 76.026206 
L 127.849737 83.425076 
L 139.296842 91.495235 
L 150.743947 99.516907 
L 162.191053 107.359952 
L 173.638158 114.997574 
L 185.085263 121.988973 
L 196.532368 128.557019 
L 207.979474 135.191998 
L 219.426579 140.951652 
L 230.873684 146.228325 
L 242.320789 151.196767 
L 253.767895 155.702015 
L 265.215 160.34787 
" clip-path="url(#pad12ab9e35)" style="fill: none; stroke: #e377c2; stroke-width: 1.5; stroke-linecap: square"/>
   </g>
   <g id="line2d_16">
    <path d="M 47.72 34.188103 
L 59.167105 34.581762 
L 70.614211 34.43757 
L 82.061316 34.986033 
L 93.508421 35.662639 
L 104.955526 37.145615 
L 116.402632 39.685425 
L 127.849737 42.588943 
L 139.296842 46.934178 
L 150.743947 51.619643 
L 162.191053 57.22385 
L 173.638158 63.050054 
L 185.085263 68.866114 
L 196.532368 75.397333 
L 207.979474 81.74077 
L 219.426579 88.005152 
L 230.873684 94.198093 
L 242.320789 100.486137 
L 253.767895 106.619275 
L 265.215 113.114317 
" clip-path="url(#pad12ab9e35)" style="fill: none; stroke: #7f7f7f; stroke-width: 1.5; stroke-linecap: square"/>
   </g>
   <g id="patch_3">
    <path d="M 47.72 174.04 
L 47.72 26.88 
" style="fill: none; stroke: #000000; stroke-width: 0.8; stroke-linejoin: miter; stroke-linecap: square"/>
   </g>
   <g id="patch_4">
    <path d="M 47.72 174.04 
L 265.215 174.04 
" style="fill: none; stroke: #000000; stroke-width: 0.8; stroke-linejoin: miter; stroke-linecap: square"/>
   </g>
   <g id="text_11">
    <!-- Node * surprisal -->
    <g transform="translate(108.18625 20.88)scale(0.12 -0.12)">
     <defs>
      <path id="DejaVuSans-4e" d="M 628 4666 
L 1478 4666 
L 3547 763 
L 3547 4666 
L 4159 4666 
L 4159 0 
L 3309 0 
L 1241 3903 
L 1241 0 
L 628 0 
L 628 4666 
z
" transform="scale(0.015625)"/>
      <path id="DejaVuSans-64" d="M 2906 2969 
L 2906 4863 
L 3481 4863 
L 3481 0 
L 2906 0 
L 2906 525 
Q 2725 213 2448 61 
Q 2172 -91 1784 -91 
Q 1150 -91 751 415 
Q 353 922 353 1747 
Q 353 2572 751 3078 
Q 1150 3584 1784 3584 
Q 2172 3584 2448 3432 
Q 2725 3281 2906 2969 
z
M 947 1747 
Q 947 1113 1208 752 
Q 1469 391 1925 391 
Q 2381 391 2643 752 
Q 2906 1113 2906 1747 
Q 2906 2381 2643 2742 
Q 2381 3103 1925 3103 
Q 1469 3103 1208 2742 
Q 947 2381 947 1747 
z
" transform="scale(0.015625)"/>
      <path id="DejaVuSans-2a" d="M 3009 3897 
L 1888 3291 
L 3009 2681 
L 2828 2375 
L 1778 3009 
L 1778 1831 
L 1422 1831 
L 1422 3009 
L 372 2375 
L 191 2681 
L 1313 3291 
L 191 3897 
L 372 4206 
L 1422 3572 
L 1422 4750 
L 1778 4750 
L 1778 3572 
L 2828 4206 
L 3009 3897 
z
" transform="scale(0.015625)"/>
     </defs>
     <use xlink:href="#DejaVuSans-4e"/>
     <use xlink:href="#DejaVuSans-6f" x="74.804688"/>
     <use xlink:href="#DejaVuSans-64" x="135.986328"/>
     <use xlink:href="#DejaVuSans-65" x="199.462891"/>
     <use xlink:href="#DejaVuSans-20" x="260.986328"/>
     <use xlink:href="#DejaVuSans-2a" x="292.773438"/>
     <use xlink:href="#DejaVuSans-20" x="342.773438"/>
     <use xlink:href="#DejaVuSans-73" x="374.560547"/>
     <use xlink:href="#DejaVuSans-75" x="426.660156"/>
     <use xlink:href="#DejaVuSans-72" x="490.039062"/>
     <use xlink:href="#DejaVuSans-70" x="531.152344"/>
     <use xlink:href="#DejaVuSans-72" x="594.628906"/>
     <use xlink:href="#DejaVuSans-69" x="635.742188"/>
     <use xlink:href="#DejaVuSans-73" x="663.525391"/>
     <use xlink:href="#DejaVuSans-61" x="715.625"/>
     <use xlink:href="#DejaVuSans-6c" x="776.904297"/>
    </g>
   </g>
  </g>
  <g id="axes_2">
   <g id="patch_5">
    <path d="M 298.065 174.04 
L 515.56 174.04 
L 515.56 26.88 
L 298.065 26.88 
z
" style="fill: #ffffff"/>
   </g>
   <g id="PolyCollection_9">
    <path d="M 298.065 33.569091 
L 298.065 34.756688 
L 309.512105 35.307346 
L 320.959211 38.109048 
L 332.406316 41.901835 
L 343.853421 46.871959 
L 355.300526 53.17215 
L 366.747632 60.144913 
L 378.194737 67.357018 
L 389.641842 75.232638 
L 401.088947 82.762618 
L 412.536053 90.996095 
L 423.983158 98.409356 
L 435.430263 106.132606 
L 446.877368 112.210479 
L 458.324474 119.573065 
L 469.771579 125.572913 
L 481.218684 131.94571 
L 492.665789 136.921191 
L 504.112895 142.451237 
L 515.56 147.341812 
L 515.56 138.154354 
L 515.56 138.154354 
L 504.112895 132.421288 
L 492.665789 127.833254 
L 481.218684 122.698317 
L 469.771579 116.685507 
L 458.324474 110.603862 
L 446.877368 104.433437 
L 435.430263 97.899922 
L 423.983158 90.810766 
L 412.536053 83.86047 
L 401.088947 76.666862 
L 389.641842 69.357406 
L 378.194737 62.302971 
L 366.747632 55.662689 
L 355.300526 49.800012 
L 343.853421 44.671734 
L 332.406316 40.01699 
L 320.959211 37.151848 
L 309.512105 34.510117 
L 298.065 33.569091 
z
" clip-path="url(#p10ead18b35)" style="fill: #1f77b4; fill-opacity: 0.4"/>
   </g>
   <g id="PolyCollection_10">
    <path d="M 298.065 33.587218 
L 298.065 34.77875 
L 309.512105 35.328794 
L 320.959211 38.14478 
L 332.406316 41.951398 
L 343.853421 46.951281 
L 355.300526 53.258798 
L 366.747632 60.241218 
L 378.194737 67.474845 
L 389.641842 75.394929 
L 401.088947 82.938995 
L 412.536053 91.163614 
L 423.983158 98.63267 
L 435.430263 106.347795 
L 446.877368 112.469937 
L 458.324474 119.831354 
L 469.771579 125.84012 
L 481.218684 132.233367 
L 492.665789 137.245269 
L 504.112895 142.787153 
L 515.56 147.732865 
L 515.56 138.822365 
L 515.56 138.822365 
L 504.112895 133.015966 
L 492.665789 128.380333 
L 481.218684 123.14968 
L 469.771579 116.965362 
L 458.324474 110.93874 
L 446.877368 104.651536 
L 435.430263 98.091701 
L 423.983158 90.926496 
L 412.536053 83.984305 
L 401.088947 76.745293 
L 389.641842 69.442227 
L 378.194737 62.392369 
L 366.747632 55.729267 
L 355.300526 49.848157 
L 343.853421 44.712692 
L 332.406316 40.037348 
L 320.959211 37.190614 
L 309.512105 34.52023 
L 298.065 33.587218 
z
" clip-path="url(#p10ead18b35)" style="fill: #ff7f0e; fill-opacity: 0.4"/>
   </g>
   <g id="PolyCollection_11">
    <path d="M 298.065 33.58299 
L 298.065 34.782537 
L 309.512105 35.324229 
L 320.959211 38.130453 
L 332.406316 41.951165 
L 343.853421 46.923495 
L 355.300526 53.256929 
L 366.747632 60.261268 
L 378.194737 67.554452 
L 389.641842 75.435856 
L 401.088947 82.990497 
L 412.536053 91.202685 
L 423.983158 98.634676 
L 435.430263 106.379413 
L 446.877368 112.465042 
L 458.324474 119.805802 
L 469.771579 125.819913 
L 481.218684 132.079171 
L 492.665789 137.118001 
L 504.112895 142.6754 
L 515.56 147.654924 
L 515.56 138.662112 
L 515.56 138.662112 
L 504.112895 132.832231 
L 492.665789 128.26663 
L 481.218684 123.046727 
L 469.771579 116.943867 
L 458.324474 110.945339 
L 446.877368 104.656968 
L 435.430263 98.062666 
L 423.983158 90.975406 
L 412.536053 83.984904 
L 401.088947 76.719579 
L 389.641842 69.424169 
L 378.194737 62.354751 
L 366.747632 55.744645 
L 355.300526 49.834668 
L 343.853421 44.717187 
L 332.406316 40.04176 
L 320.959211 37.188226 
L 309.512105 34.533716 
L 298.065 33.58299 
z
" clip-path="url(#p10ead18b35)" style="fill: #2ca02c; fill-opacity: 0.4"/>
   </g>
   <g id="PolyCollection_12">
    <path d="M 298.065 33.606572 
L 298.065 34.799003 
L 309.512105 35.339632 
L 320.959211 38.153717 
L 332.406316 41.9735 
L 343.853421 46.966436 
L 355.300526 53.300504 
L 366.747632 60.3024 
L 378.194737 67.579386 
L 389.641842 75.478191 
L 401.088947 83.01702 
L 412.536053 91.182866 
L 423.983158 98.652086 
L 435.430263 106.3586 
L 446.877368 112.446973 
L 458.324474 119.755866 
L 469.771579 125.737403 
L 481.218684 132.000421 
L 492.665789 137.049259 
L 504.112895 142.555007 
L 515.56 147.510594 
L 515.56 139.099254 
L 515.56 139.099254 
L 504.112895 133.271392 
L 492.665789 128.606639 
L 481.218684 123.298627 
L 469.771579 117.083121 
L 458.324474 111.078825 
L 446.877368 104.696005 
L 435.430263 98.092047 
L 423.983158 90.955028 
L 412.536053 83.988563 
L 401.088947 76.709601 
L 389.641842 69.423139 
L 378.194737 62.372375 
L 366.747632 55.740524 
L 355.300526 49.841029 
L 343.853421 44.73411 
L 332.406316 40.050259 
L 320.959211 37.208515 
L 309.512105 34.546649 
L 298.065 33.606572 
z
" clip-path="url(#p10ead18b35)" style="fill: #d62728; fill-opacity: 0.4"/>
   </g>
   <g id="PolyCollection_13">
    <path d="M 298.065 33.593734 
L 298.065 34.77676 
L 309.512105 35.328331 
L 320.959211 38.134032 
L 332.406316 41.962527 
L 343.853421 46.91742 
L 355.300526 53.214989 
L 366.747632 60.262509 
L 378.194737 67.333426 
L 389.641842 75.351009 
L 401.088947 83.216003 
L 412.536053 91.440278 
L 423.983158 98.513584 
L 435.430263 106.903103 
L 446.877368 112.20061 
L 458.324474 119.684428 
L 469.771579 125.651512 
L 481.218684 131.882795 
L 492.665789 137.202506 
L 504.112895 143.036995 
L 515.56 147.628105 
L 515.56 138.253737 
L 515.56 138.253737 
L 504.112895 132.47419 
L 492.665789 128.227543 
L 481.218684 123.565089 
L 469.771579 117.498944 
L 458.324474 111.25743 
L 446.877368 104.668828 
L 435.430263 98.107097 
L 423.983158 91.016799 
L 412.536053 83.653538 
L 401.088947 76.661737 
L 389.641842 69.435072 
L 378.194737 62.488656 
L 366.747632 55.690255 
L 355.300526 49.853784 
L 343.853421 44.658939 
L 332.406316 40.06633 
L 320.959211 37.171226 
L 309.512105 34.51868 
L 298.065 33.593734 
z
" clip-path="url(#p10ead18b35)" style="fill: #9467bd; fill-opacity: 0.4"/>
   </g>
   <g id="PolyCollection_14">
    <path d="M 298.065 33.611885 
L 298.065 34.799399 
L 309.512105 35.351157 
L 320.959211 38.169899 
L 332.406316 42.015398 
L 343.853421 46.997426 
L 355.300526 53.301554 
L 366.747632 60.353748 
L 378.194737 67.45029 
L 389.641842 75.505449 
L 401.088947 83.400495 
L 412.536053 91.593415 
L 423.983158 98.730623 
L 435.430263 107.051963 
L 446.877368 112.459785 
L 458.324474 119.955367 
L 469.771579 125.927702 
L 481.218684 132.147102 
L 492.665789 137.530579 
L 504.112895 143.358977 
L 515.56 148.021413 
L 515.56 138.920879 
L 515.56 138.920879 
L 504.112895 133.079176 
L 492.665789 128.761979 
L 481.218684 123.994237 
L 469.771579 117.808879 
L 458.324474 111.624597 
L 446.877368 104.887868 
L 435.430263 98.328466 
L 423.983158 91.129347 
L 412.536053 83.782931 
L 401.088947 76.725468 
L 389.641842 69.520783 
L 378.194737 62.573396 
L 366.747632 55.760334 
L 355.300526 49.902975 
L 343.853421 44.704691 
L 332.406316 40.084619 
L 320.959211 37.209385 
L 309.512105 34.528437 
L 298.065 33.611885 
z
" clip-path="url(#p10ead18b35)" style="fill: #8c564b; fill-opacity: 0.4"/>
   </g>
   <g id="PolyCollection_15">
    <path d="M 298.065 45.537211 
L 298.065 49.673487 
L 309.512105 50.270419 
L 320.959211 52.476996 
L 332.406316 55.765567 
L 343.853421 59.960546 
L 355.300526 65.69768 
L 366.747632 72.167906 
L 378.194737 78.866243 
L 389.641842 86.585155 
L 401.088947 93.502254 
L 412.536053 101.180077 
L 423.983158 108.472043 
L 435.430263 115.650377 
L 446.877368 121.529385 
L 458.324474 128.280419 
L 469.771579 134.196417 
L 481.218684 140.05412 
L 492.665789 144.787953 
L 504.112895 149.752255 
L 515.56 154.457447 
L 515.56 143.259983 
L 515.56 143.259983 
L 504.112895 138.121523 
L 492.665789 133.799158 
L 481.218684 128.979926 
L 469.771579 123.425934 
L 458.324474 117.879452 
L 446.877368 112.000325 
L 435.430263 106.192646 
L 423.983158 99.469361 
L 412.536053 93.224707 
L 401.088947 86.563362 
L 389.641842 79.718514 
L 378.194737 73.3664 
L 366.747632 67.2242 
L 355.300526 61.705561 
L 343.853421 56.677854 
L 332.406316 51.921316 
L 320.959211 49.124512 
L 309.512105 46.262745 
L 298.065 45.537211 
z
" clip-path="url(#p10ead18b35)" style="fill: #e377c2; fill-opacity: 0.4"/>
   </g>
   <g id="PolyCollection_16">
    <path d="M 298.065 33.597299 
L 298.065 34.803259 
L 309.512105 35.333626 
L 320.959211 38.1734 
L 332.406316 41.99789 
L 343.853421 46.993611 
L 355.300526 53.301812 
L 366.747632 60.280836 
L 378.194737 67.526306 
L 389.641842 75.410967 
L 401.088947 82.975606 
L 412.536053 91.229271 
L 423.983158 98.717289 
L 435.430263 106.419987 
L 446.877368 112.604294 
L 458.324474 120.048745 
L 469.771579 126.026089 
L 481.218684 132.542116 
L 492.665789 137.610947 
L 504.112895 143.140209 
L 515.56 148.128047 
L 515.56 139.045882 
L 515.56 139.045882 
L 504.112895 133.260987 
L 492.665789 128.732461 
L 481.218684 123.432229 
L 469.771579 117.319661 
L 458.324474 111.300173 
L 446.877368 104.991131 
L 435.430263 98.45182 
L 423.983158 91.133744 
L 412.536053 84.134191 
L 401.088947 76.858558 
L 389.641842 69.525072 
L 378.194737 62.437103 
L 366.747632 55.74917 
L 355.300526 49.841037 
L 343.853421 44.691513 
L 332.406316 40.015728 
L 320.959211 37.215404 
L 309.512105 34.528022 
L 298.065 33.597299 
z
" clip-path="url(#p10ead18b35)" style="fill: #7f7f7f; fill-opacity: 0.4"/>
   </g>
   <g id="matplotlib.axis_3">
    <g id="xtick_6">
     <g id="line2d_17">
      <g>
       <use xlink:href="#m114f67b7bf" x="298.065" y="174.04" style="stroke: #000000; stroke-width: 0.8"/>
      </g>
     </g>
     <g id="text_12">
      <!-- 0.0 -->
      <g transform="translate(290.113437 188.638438)scale(0.1 -0.1)">
       <use xlink:href="#DejaVuSans-30"/>
       <use xlink:href="#DejaVuSans-2e" x="63.623047"/>
       <use xlink:href="#DejaVuSans-30" x="95.410156"/>
      </g>
     </g>
    </g>
    <g id="xtick_7">
     <g id="line2d_18">
      <g>
       <use xlink:href="#m114f67b7bf" x="352.43875" y="174.04" style="stroke: #000000; stroke-width: 0.8"/>
      </g>
     </g>
     <g id="text_13">
      <!-- 0.5 -->
      <g transform="translate(344.487187 188.638438)scale(0.1 -0.1)">
       <use xlink:href="#DejaVuSans-30"/>
       <use xlink:href="#DejaVuSans-2e" x="63.623047"/>
       <use xlink:href="#DejaVuSans-35" x="95.410156"/>
      </g>
     </g>
    </g>
    <g id="xtick_8">
     <g id="line2d_19">
      <g>
       <use xlink:href="#m114f67b7bf" x="406.8125" y="174.04" style="stroke: #000000; stroke-width: 0.8"/>
      </g>
     </g>
     <g id="text_14">
      <!-- 1.0 -->
      <g transform="translate(398.860937 188.638438)scale(0.1 -0.1)">
       <use xlink:href="#DejaVuSans-31"/>
       <use xlink:href="#DejaVuSans-2e" x="63.623047"/>
       <use xlink:href="#DejaVuSans-30" x="95.410156"/>
      </g>
     </g>
    </g>
    <g id="xtick_9">
     <g id="line2d_20">
      <g>
       <use xlink:href="#m114f67b7bf" x="461.18625" y="174.04" style="stroke: #000000; stroke-width: 0.8"/>
      </g>
     </g>
     <g id="text_15">
      <!-- 1.5 -->
      <g transform="translate(453.234687 188.638438)scale(0.1 -0.1)">
       <use xlink:href="#DejaVuSans-31"/>
       <use xlink:href="#DejaVuSans-2e" x="63.623047"/>
       <use xlink:href="#DejaVuSans-35" x="95.410156"/>
      </g>
     </g>
    </g>
    <g id="xtick_10">
     <g id="line2d_21">
      <g>
       <use xlink:href="#m114f67b7bf" x="515.56" y="174.04" style="stroke: #000000; stroke-width: 0.8"/>
      </g>
     </g>
     <g id="text_16">
      <!-- 2.0 -->
      <g transform="translate(507.608437 188.638438)scale(0.1 -0.1)">
       <use xlink:href="#DejaVuSans-32"/>
       <use xlink:href="#DejaVuSans-2e" x="63.623047"/>
       <use xlink:href="#DejaVuSans-30" x="95.410156"/>
      </g>
     </g>
    </g>
    <g id="text_17">
     <!-- Influence of surprisal (multiplication) -->
     <g transform="translate(314.665625 202.316563)scale(0.1 -0.1)">
      <use xlink:href="#DejaVuSans-49"/>
      <use xlink:href="#DejaVuSans-6e" x="29.492188"/>
      <use xlink:href="#DejaVuSans-66" x="92.871094"/>
      <use xlink:href="#DejaVuSans-6c" x="128.076172"/>
      <use xlink:href="#DejaVuSans-75" x="155.859375"/>
      <use xlink:href="#DejaVuSans-65" x="219.238281"/>
      <use xlink:href="#DejaVuSans-6e" x="280.761719"/>
      <use xlink:href="#DejaVuSans-63" x="344.140625"/>
      <use xlink:href="#DejaVuSans-65" x="399.121094"/>
      <use xlink:href="#DejaVuSans-20" x="460.644531"/>
      <use xlink:href="#DejaVuSans-6f" x="492.431641"/>
      <use xlink:href="#DejaVuSans-66" x="553.613281"/>
      <use xlink:href="#DejaVuSans-20" x="588.818359"/>
      <use xlink:href="#DejaVuSans-73" x="620.605469"/>
      <use xlink:href="#DejaVuSans-75" x="672.705078"/>
      <use xlink:href="#DejaVuSans-72" x="736.083984"/>
      <use xlink:href="#DejaVuSans-70" x="777.197266"/>
      <use xlink:href="#DejaVuSans-72" x="840.673828"/>
      <use xlink:href="#DejaVuSans-69" x="881.787109"/>
      <use xlink:href="#DejaVuSans-73" x="909.570312"/>
      <use xlink:href="#DejaVuSans-61" x="961.669922"/>
      <use xlink:href="#DejaVuSans-6c" x="1022.949219"/>
      <use xlink:href="#DejaVuSans-20" x="1050.732422"/>
      <use xlink:href="#DejaVuSans-28" x="1082.519531"/>
      <use xlink:href="#DejaVuSans-6d" x="1121.533203"/>
      <use xlink:href="#DejaVuSans-75" x="1218.945312"/>
      <use xlink:href="#DejaVuSans-6c" x="1282.324219"/>
      <use xlink:href="#DejaVuSans-74" x="1310.107422"/>
      <use xlink:href="#DejaVuSans-69" x="1349.316406"/>
      <use xlink:href="#DejaVuSans-70" x="1377.099609"/>
      <use xlink:href="#DejaVuSans-6c" x="1440.576172"/>
      <use xlink:href="#DejaVuSans-69" x="1468.359375"/>
      <use xlink:href="#DejaVuSans-63" x="1496.142578"/>
      <use xlink:href="#DejaVuSans-61" x="1551.123047"/>
      <use xlink:href="#DejaVuSans-74" x="1612.402344"/>
      <use xlink:href="#DejaVuSans-69" x="1651.611328"/>
      <use xlink:href="#DejaVuSans-6f" x="1679.394531"/>
      <use xlink:href="#DejaVuSans-6e" x="1740.576172"/>
      <use xlink:href="#DejaVuSans-29" x="1803.955078"/>
     </g>
    </g>
   </g>
   <g id="line2d_22">
    <path d="M 298.065 34.162889 
L 309.512105 34.908732 
L 320.959211 37.630448 
L 332.406316 40.959412 
L 343.853421 45.771847 
L 355.300526 51.486081 
L 366.747632 57.903801 
L 378.194737 64.829995 
L 389.641842 72.295022 
L 401.088947 79.71474 
L 412.536053 87.428283 
L 423.983158 94.610061 
L 435.430263 102.016264 
L 446.877368 108.321958 
L 458.324474 115.088464 
L 469.771579 121.12921 
L 481.218684 127.322013 
L 492.665789 132.377223 
L 504.112895 137.436263 
L 515.56 142.748083 
" clip-path="url(#p10ead18b35)" style="fill: none; stroke: #1f77b4; stroke-width: 1.5; stroke-linecap: square"/>
   </g>
   <g id="line2d_23">
    <path d="M 298.065 34.182984 
L 309.512105 34.924512 
L 320.959211 37.667697 
L 332.406316 40.994373 
L 343.853421 45.831987 
L 355.300526 51.553477 
L 366.747632 57.985242 
L 378.194737 64.933607 
L 389.641842 72.418578 
L 401.088947 79.842144 
L 412.536053 87.573959 
L 423.983158 94.779583 
L 435.430263 102.219748 
L 446.877368 108.560736 
L 458.324474 115.385047 
L 469.771579 121.402741 
L 481.218684 127.691524 
L 492.665789 132.812801 
L 504.112895 137.901559 
L 515.56 143.277615 
" clip-path="url(#p10ead18b35)" style="fill: none; stroke: #ff7f0e; stroke-width: 1.5; stroke-linecap: square"/>
   </g>
   <g id="line2d_24">
    <path d="M 298.065 34.182764 
L 309.512105 34.928972 
L 320.959211 37.65934 
L 332.406316 40.996463 
L 343.853421 45.820341 
L 355.300526 51.545798 
L 366.747632 58.002957 
L 378.194737 64.954602 
L 389.641842 72.430012 
L 401.088947 79.855038 
L 412.536053 87.593794 
L 423.983158 94.805041 
L 435.430263 102.22104 
L 446.877368 108.561005 
L 458.324474 115.375571 
L 469.771579 121.38189 
L 481.218684 127.562949 
L 492.665789 132.692316 
L 504.112895 137.753816 
L 515.56 143.158518 
" clip-path="url(#p10ead18b35)" style="fill: none; stroke: #2ca02c; stroke-width: 1.5; stroke-linecap: square"/>
   </g>
   <g id="line2d_25">
    <path d="M 298.065 34.202787 
L 309.512105 34.94314 
L 320.959211 37.681116 
L 332.406316 41.01188 
L 343.853421 45.850273 
L 355.300526 51.570766 
L 366.747632 58.021462 
L 378.194737 64.975881 
L 389.641842 72.450665 
L 401.088947 79.86331 
L 412.536053 87.585714 
L 423.983158 94.803557 
L 435.430263 102.225324 
L 446.877368 108.571489 
L 458.324474 115.417345 
L 469.771579 121.410262 
L 481.218684 127.649524 
L 492.665789 132.827949 
L 504.112895 137.9132 
L 515.56 143.304924 
" clip-path="url(#p10ead18b35)" style="fill: none; stroke: #d62728; stroke-width: 1.5; stroke-linecap: square"/>
   </g>
   <g id="line2d_26">
    <path d="M 298.065 34.185247 
L 309.512105 34.923506 
L 320.959211 37.652629 
L 332.406316 41.014429 
L 343.853421 45.78818 
L 355.300526 51.534387 
L 366.747632 57.976382 
L 378.194737 64.911041 
L 389.641842 72.39304 
L 401.088947 79.93887 
L 412.536053 87.546908 
L 423.983158 94.765191 
L 435.430263 102.5051 
L 446.877368 108.434719 
L 458.324474 115.470929 
L 469.771579 121.575228 
L 481.218684 127.723942 
L 492.665789 132.715025 
L 504.112895 137.755592 
L 515.56 142.940921 
" clip-path="url(#p10ead18b35)" style="fill: none; stroke: #9467bd; stroke-width: 1.5; stroke-linecap: square"/>
   </g>
   <g id="line2d_27">
    <path d="M 298.065 34.205642 
L 309.512105 34.939797 
L 320.959211 37.689642 
L 332.406316 41.050008 
L 343.853421 45.851058 
L 355.300526 51.602265 
L 366.747632 58.057041 
L 378.194737 65.011843 
L 389.641842 72.513116 
L 401.088947 80.062981 
L 412.536053 87.688173 
L 423.983158 94.929985 
L 435.430263 102.690214 
L 446.877368 108.673826 
L 458.324474 115.789982 
L 469.771579 121.868291 
L 481.218684 128.07067 
L 492.665789 133.146279 
L 504.112895 138.219077 
L 515.56 143.471146 
" clip-path="url(#p10ead18b35)" style="fill: none; stroke: #8c564b; stroke-width: 1.5; stroke-linecap: square"/>
   </g>
   <g id="line2d_28">
    <path d="M 298.065 47.605349 
L 309.512105 48.266582 
L 320.959211 50.800754 
L 332.406316 53.843442 
L 343.853421 58.3192 
L 355.300526 63.701621 
L 366.747632 69.696053 
L 378.194737 76.116321 
L 389.641842 83.151835 
L 401.088947 90.032808 
L 412.536053 97.202392 
L 423.983158 103.970702 
L 435.430263 110.921512 
L 446.877368 116.764855 
L 458.324474 123.079935 
L 469.771579 128.811176 
L 481.218684 134.517023 
L 492.665789 139.293556 
L 504.112895 143.936889 
L 515.56 148.858715 
" clip-path="url(#p10ead18b35)" style="fill: none; stroke: #e377c2; stroke-width: 1.5; stroke-linecap: square"/>
   </g>
   <g id="line2d_29">
    <path d="M 298.065 34.200279 
L 309.512105 34.930824 
L 320.959211 37.694402 
L 332.406316 41.006809 
L 343.853421 45.842562 
L 355.300526 51.571424 
L 366.747632 58.015003 
L 378.194737 64.981704 
L 389.641842 72.46802 
L 401.088947 79.917082 
L 412.536053 87.681731 
L 423.983158 94.925517 
L 435.430263 102.435904 
L 446.877368 108.797712 
L 458.324474 115.674459 
L 469.771579 121.672875 
L 481.218684 127.987172 
L 492.665789 133.171704 
L 504.112895 138.200598 
L 515.56 143.586965 
" clip-path="url(#p10ead18b35)" style="fill: none; stroke: #7f7f7f; stroke-width: 1.5; stroke-linecap: square"/>
   </g>
   <g id="patch_6">
    <path d="M 298.065 174.04 
L 298.065 26.88 
" style="fill: none; stroke: #000000; stroke-width: 0.8; stroke-linejoin: miter; stroke-linecap: square"/>
   </g>
   <g id="patch_7">
    <path d="M 298.065 174.04 
L 515.56 174.04 
" style="fill: none; stroke: #000000; stroke-width: 0.8; stroke-linejoin: miter; stroke-linecap: square"/>
   </g>
   <g id="text_18">
    <!-- Node * third variable -->
    <g transform="translate(344.2325 20.88)scale(0.12 -0.12)">
     <defs>
      <path id="DejaVuSans-68" d="M 3513 2113 
L 3513 0 
L 2938 0 
L 2938 2094 
Q 2938 2591 2744 2837 
Q 2550 3084 2163 3084 
Q 1697 3084 1428 2787 
Q 1159 2491 1159 1978 
L 1159 0 
L 581 0 
L 581 4863 
L 1159 4863 
L 1159 2956 
Q 1366 3272 1645 3428 
Q 1925 3584 2291 3584 
Q 2894 3584 3203 3211 
Q 3513 2838 3513 2113 
z
" transform="scale(0.015625)"/>
      <path id="DejaVuSans-62" d="M 3116 1747 
Q 3116 2381 2855 2742 
Q 2594 3103 2138 3103 
Q 1681 3103 1420 2742 
Q 1159 2381 1159 1747 
Q 1159 1113 1420 752 
Q 1681 391 2138 391 
Q 2594 391 2855 752 
Q 3116 1113 3116 1747 
z
M 1159 2969 
Q 1341 3281 1617 3432 
Q 1894 3584 2278 3584 
Q 2916 3584 3314 3078 
Q 3713 2572 3713 1747 
Q 3713 922 3314 415 
Q 2916 -91 2278 -91 
Q 1894 -91 1617 61 
Q 1341 213 1159 525 
L 1159 0 
L 581 0 
L 581 4863 
L 1159 4863 
L 1159 2969 
z
" transform="scale(0.015625)"/>
     </defs>
     <use xlink:href="#DejaVuSans-4e"/>
     <use xlink:href="#DejaVuSans-6f" x="74.804688"/>
     <use xlink:href="#DejaVuSans-64" x="135.986328"/>
     <use xlink:href="#DejaVuSans-65" x="199.462891"/>
     <use xlink:href="#DejaVuSans-20" x="260.986328"/>
     <use xlink:href="#DejaVuSans-2a" x="292.773438"/>
     <use xlink:href="#DejaVuSans-20" x="342.773438"/>
     <use xlink:href="#DejaVuSans-74" x="374.560547"/>
     <use xlink:href="#DejaVuSans-68" x="413.769531"/>
     <use xlink:href="#DejaVuSans-69" x="477.148438"/>
     <use xlink:href="#DejaVuSans-72" x="504.931641"/>
     <use xlink:href="#DejaVuSans-64" x="544.294922"/>
     <use xlink:href="#DejaVuSans-20" x="607.771484"/>
     <use xlink:href="#DejaVuSans-76" x="639.558594"/>
     <use xlink:href="#DejaVuSans-61" x="698.738281"/>
     <use xlink:href="#DejaVuSans-72" x="760.017578"/>
     <use xlink:href="#DejaVuSans-69" x="801.130859"/>
     <use xlink:href="#DejaVuSans-61" x="828.914062"/>
     <use xlink:href="#DejaVuSans-62" x="890.193359"/>
     <use xlink:href="#DejaVuSans-6c" x="953.669922"/>
     <use xlink:href="#DejaVuSans-65" x="981.453125"/>
    </g>
   </g>
   <g id="legend_1">
    <g id="line2d_30">
     <path d="M 524.56 39.978437 
L 534.56 39.978437 
L 544.56 39.978437 
" style="fill: none; stroke: #1f77b4; stroke-width: 1.5; stroke-linecap: square"/>
    </g>
    <g id="text_19">
     <!-- Node -->
     <g transform="translate(552.56 43.478437)scale(0.1 -0.1)">
      <use xlink:href="#DejaVuSans-4e"/>
      <use xlink:href="#DejaVuSans-6f" x="74.804688"/>
      <use xlink:href="#DejaVuSans-64" x="135.986328"/>
      <use xlink:href="#DejaVuSans-65" x="199.462891"/>
     </g>
    </g>
    <g id="line2d_31">
     <path d="M 524.56 54.656563 
L 534.56 54.656563 
L 544.56 54.656563 
" style="fill: none; stroke: #ff7f0e; stroke-width: 1.5; stroke-linecap: square"/>
    </g>
    <g id="text_20">
     <!-- Node + surprisal -->
     <g transform="translate(552.56 58.156563)scale(0.1 -0.1)">
      <defs>
       <path id="DejaVuSans-2b" d="M 2944 4013 
L 2944 2272 
L 4684 2272 
L 4684 1741 
L 2944 1741 
L 2944 0 
L 2419 0 
L 2419 1741 
L 678 1741 
L 678 2272 
L 2419 2272 
L 2419 4013 
L 2944 4013 
z
" transform="scale(0.015625)"/>
      </defs>
      <use xlink:href="#DejaVuSans-4e"/>
      <use xlink:href="#DejaVuSans-6f" x="74.804688"/>
      <use xlink:href="#DejaVuSans-64" x="135.986328"/>
      <use xlink:href="#DejaVuSans-65" x="199.462891"/>
      <use xlink:href="#DejaVuSans-20" x="260.986328"/>
      <use xlink:href="#DejaVuSans-2b" x="292.773438"/>
      <use xlink:href="#DejaVuSans-20" x="376.5625"/>
      <use xlink:href="#DejaVuSans-73" x="408.349609"/>
      <use xlink:href="#DejaVuSans-75" x="460.449219"/>
      <use xlink:href="#DejaVuSans-72" x="523.828125"/>
      <use xlink:href="#DejaVuSans-70" x="564.941406"/>
      <use xlink:href="#DejaVuSans-72" x="628.417969"/>
      <use xlink:href="#DejaVuSans-69" x="669.53125"/>
      <use xlink:href="#DejaVuSans-73" x="697.314453"/>
      <use xlink:href="#DejaVuSans-61" x="749.414062"/>
      <use xlink:href="#DejaVuSans-6c" x="810.693359"/>
     </g>
    </g>
    <g id="line2d_32">
     <path d="M 524.56 69.334687 
L 534.56 69.334687 
L 544.56 69.334687 
" style="fill: none; stroke: #2ca02c; stroke-width: 1.5; stroke-linecap: square"/>
    </g>
    <g id="text_21">
     <!-- Node split -->
     <g transform="translate(552.56 72.834687)scale(0.1 -0.1)">
      <use xlink:href="#DejaVuSans-4e"/>
      <use xlink:href="#DejaVuSans-6f" x="74.804688"/>
      <use xlink:href="#DejaVuSans-64" x="135.986328"/>
      <use xlink:href="#DejaVuSans-65" x="199.462891"/>
      <use xlink:href="#DejaVuSans-20" x="260.986328"/>
      <use xlink:href="#DejaVuSans-73" x="292.773438"/>
      <use xlink:href="#DejaVuSans-70" x="344.873047"/>
      <use xlink:href="#DejaVuSans-6c" x="408.349609"/>
      <use xlink:href="#DejaVuSans-69" x="436.132812"/>
      <use xlink:href="#DejaVuSans-74" x="463.916016"/>
     </g>
    </g>
    <g id="line2d_33">
     <path d="M 524.56 84.012812 
L 534.56 84.012812 
L 544.56 84.012812 
" style="fill: none; stroke: #d62728; stroke-width: 1.5; stroke-linecap: square"/>
    </g>
    <g id="text_22">
     <!-- Node split + surprisal -->
     <g transform="translate(552.56 87.512812)scale(0.1 -0.1)">
      <use xlink:href="#DejaVuSans-4e"/>
      <use xlink:href="#DejaVuSans-6f" x="74.804688"/>
      <use xlink:href="#DejaVuSans-64" x="135.986328"/>
      <use xlink:href="#DejaVuSans-65" x="199.462891"/>
      <use xlink:href="#DejaVuSans-20" x="260.986328"/>
      <use xlink:href="#DejaVuSans-73" x="292.773438"/>
      <use xlink:href="#DejaVuSans-70" x="344.873047"/>
      <use xlink:href="#DejaVuSans-6c" x="408.349609"/>
      <use xlink:href="#DejaVuSans-69" x="436.132812"/>
      <use xlink:href="#DejaVuSans-74" x="463.916016"/>
      <use xlink:href="#DejaVuSans-20" x="503.125"/>
      <use xlink:href="#DejaVuSans-2b" x="534.912109"/>
      <use xlink:href="#DejaVuSans-20" x="618.701172"/>
      <use xlink:href="#DejaVuSans-73" x="650.488281"/>
      <use xlink:href="#DejaVuSans-75" x="702.587891"/>
      <use xlink:href="#DejaVuSans-72" x="765.966797"/>
      <use xlink:href="#DejaVuSans-70" x="807.080078"/>
      <use xlink:href="#DejaVuSans-72" x="870.556641"/>
      <use xlink:href="#DejaVuSans-69" x="911.669922"/>
      <use xlink:href="#DejaVuSans-73" x="939.453125"/>
      <use xlink:href="#DejaVuSans-61" x="991.552734"/>
      <use xlink:href="#DejaVuSans-6c" x="1052.832031"/>
     </g>
    </g>
    <g id="line2d_34">
     <path d="M 524.56 98.690937 
L 534.56 98.690937 
L 544.56 98.690937 
" style="fill: none; stroke: #9467bd; stroke-width: 1.5; stroke-linecap: square"/>
    </g>
    <g id="text_23">
     <!-- Node random split -->
     <g transform="translate(552.56 102.190937)scale(0.1 -0.1)">
      <use xlink:href="#DejaVuSans-4e"/>
      <use xlink:href="#DejaVuSans-6f" x="74.804688"/>
      <use xlink:href="#DejaVuSans-64" x="135.986328"/>
      <use xlink:href="#DejaVuSans-65" x="199.462891"/>
      <use xlink:href="#DejaVuSans-20" x="260.986328"/>
      <use xlink:href="#DejaVuSans-72" x="292.773438"/>
      <use xlink:href="#DejaVuSans-61" x="333.886719"/>
      <use xlink:href="#DejaVuSans-6e" x="395.166016"/>
      <use xlink:href="#DejaVuSans-64" x="458.544922"/>
      <use xlink:href="#DejaVuSans-6f" x="522.021484"/>
      <use xlink:href="#DejaVuSans-6d" x="583.203125"/>
      <use xlink:href="#DejaVuSans-20" x="680.615234"/>
      <use xlink:href="#DejaVuSans-73" x="712.402344"/>
      <use xlink:href="#DejaVuSans-70" x="764.501953"/>
      <use xlink:href="#DejaVuSans-6c" x="827.978516"/>
      <use xlink:href="#DejaVuSans-69" x="855.761719"/>
      <use xlink:href="#DejaVuSans-74" x="883.544922"/>
     </g>
    </g>
    <g id="line2d_35">
     <path d="M 524.56 113.369062 
L 534.56 113.369062 
L 544.56 113.369062 
" style="fill: none; stroke: #8c564b; stroke-width: 1.5; stroke-linecap: square"/>
    </g>
    <g id="text_24">
     <!-- Node random split + surprisal -->
     <g transform="translate(552.56 116.869062)scale(0.1 -0.1)">
      <use xlink:href="#DejaVuSans-4e"/>
      <use xlink:href="#DejaVuSans-6f" x="74.804688"/>
      <use xlink:href="#DejaVuSans-64" x="135.986328"/>
      <use xlink:href="#DejaVuSans-65" x="199.462891"/>
      <use xlink:href="#DejaVuSans-20" x="260.986328"/>
      <use xlink:href="#DejaVuSans-72" x="292.773438"/>
      <use xlink:href="#DejaVuSans-61" x="333.886719"/>
      <use xlink:href="#DejaVuSans-6e" x="395.166016"/>
      <use xlink:href="#DejaVuSans-64" x="458.544922"/>
      <use xlink:href="#DejaVuSans-6f" x="522.021484"/>
      <use xlink:href="#DejaVuSans-6d" x="583.203125"/>
      <use xlink:href="#DejaVuSans-20" x="680.615234"/>
      <use xlink:href="#DejaVuSans-73" x="712.402344"/>
      <use xlink:href="#DejaVuSans-70" x="764.501953"/>
      <use xlink:href="#DejaVuSans-6c" x="827.978516"/>
      <use xlink:href="#DejaVuSans-69" x="855.761719"/>
      <use xlink:href="#DejaVuSans-74" x="883.544922"/>
      <use xlink:href="#DejaVuSans-20" x="922.753906"/>
      <use xlink:href="#DejaVuSans-2b" x="954.541016"/>
      <use xlink:href="#DejaVuSans-20" x="1038.330078"/>
      <use xlink:href="#DejaVuSans-73" x="1070.117188"/>
      <use xlink:href="#DejaVuSans-75" x="1122.216797"/>
      <use xlink:href="#DejaVuSans-72" x="1185.595703"/>
      <use xlink:href="#DejaVuSans-70" x="1226.708984"/>
      <use xlink:href="#DejaVuSans-72" x="1290.185547"/>
      <use xlink:href="#DejaVuSans-69" x="1331.298828"/>
      <use xlink:href="#DejaVuSans-73" x="1359.082031"/>
      <use xlink:href="#DejaVuSans-61" x="1411.181641"/>
      <use xlink:href="#DejaVuSans-6c" x="1472.460938"/>
     </g>
    </g>
    <g id="line2d_36">
     <path d="M 524.56 128.047187 
L 534.56 128.047187 
L 544.56 128.047187 
" style="fill: none; stroke: #e377c2; stroke-width: 1.5; stroke-linecap: square"/>
    </g>
    <g id="text_25">
     <!-- Interaction -->
     <g transform="translate(552.56 131.547187)scale(0.1 -0.1)">
      <use xlink:href="#DejaVuSans-49"/>
      <use xlink:href="#DejaVuSans-6e" x="29.492188"/>
      <use xlink:href="#DejaVuSans-74" x="92.871094"/>
      <use xlink:href="#DejaVuSans-65" x="132.080078"/>
      <use xlink:href="#DejaVuSans-72" x="193.603516"/>
      <use xlink:href="#DejaVuSans-61" x="234.716797"/>
      <use xlink:href="#DejaVuSans-63" x="295.996094"/>
      <use xlink:href="#DejaVuSans-74" x="350.976562"/>
      <use xlink:href="#DejaVuSans-69" x="390.185547"/>
      <use xlink:href="#DejaVuSans-6f" x="417.96875"/>
      <use xlink:href="#DejaVuSans-6e" x="479.150391"/>
     </g>
    </g>
    <g id="line2d_37">
     <path d="M 524.56 142.725312 
L 534.56 142.725312 
L 544.56 142.725312 
" style="fill: none; stroke: #7f7f7f; stroke-width: 1.5; stroke-linecap: square"/>
    </g>
    <g id="text_26">
     <!-- Node + surprisal + interaction -->
     <g transform="translate(552.56 146.225312)scale(0.1 -0.1)">
      <use xlink:href="#DejaVuSans-4e"/>
      <use xlink:href="#DejaVuSans-6f" x="74.804688"/>
      <use xlink:href="#DejaVuSans-64" x="135.986328"/>
      <use xlink:href="#DejaVuSans-65" x="199.462891"/>
      <use xlink:href="#DejaVuSans-20" x="260.986328"/>
      <use xlink:href="#DejaVuSans-2b" x="292.773438"/>
      <use xlink:href="#DejaVuSans-20" x="376.5625"/>
      <use xlink:href="#DejaVuSans-73" x="408.349609"/>
      <use xlink:href="#DejaVuSans-75" x="460.449219"/>
      <use xlink:href="#DejaVuSans-72" x="523.828125"/>
      <use xlink:href="#DejaVuSans-70" x="564.941406"/>
      <use xlink:href="#DejaVuSans-72" x="628.417969"/>
      <use xlink:href="#DejaVuSans-69" x="669.53125"/>
      <use xlink:href="#DejaVuSans-73" x="697.314453"/>
      <use xlink:href="#DejaVuSans-61" x="749.414062"/>
      <use xlink:href="#DejaVuSans-6c" x="810.693359"/>
      <use xlink:href="#DejaVuSans-20" x="838.476562"/>
      <use xlink:href="#DejaVuSans-2b" x="870.263672"/>
      <use xlink:href="#DejaVuSans-20" x="954.052734"/>
      <use xlink:href="#DejaVuSans-69" x="985.839844"/>
      <use xlink:href="#DejaVuSans-6e" x="1013.623047"/>
      <use xlink:href="#DejaVuSans-74" x="1077.001953"/>
      <use xlink:href="#DejaVuSans-65" x="1116.210938"/>
      <use xlink:href="#DejaVuSans-72" x="1177.734375"/>
      <use xlink:href="#DejaVuSans-61" x="1218.847656"/>
      <use xlink:href="#DejaVuSans-63" x="1280.126953"/>
      <use xlink:href="#DejaVuSans-74" x="1335.107422"/>
      <use xlink:href="#DejaVuSans-69" x="1374.316406"/>
      <use xlink:href="#DejaVuSans-6f" x="1402.099609"/>
      <use xlink:href="#DejaVuSans-6e" x="1463.28125"/>
     </g>
    </g>
   </g>
  </g>
 </g>
 <defs>
  <clipPath id="pad12ab9e35">
   <rect x="47.72" y="26.88" width="217.495" height="147.16"/>
  </clipPath>
  <clipPath id="p10ead18b35">
   <rect x="298.065" y="26.88" width="217.495" height="147.16"/>
  </clipPath>
 </defs>
</svg>
