<?xml version="1.0" encoding="utf-8" standalone="no"?>
<!DOCTYPE svg PUBLIC "-//W3C//DTD SVG 1.1//EN"
  "http://www.w3.org/Graphics/SVG/1.1/DTD/svg11.dtd">
<svg xmlns:xlink="http://www.w3.org/1999/xlink" width="720pt" height="216pt" viewBox="0 0 720 216" xmlns="http://www.w3.org/2000/svg" version="1.1">
 <metadata>
  <rdf:RDF xmlns:dc="http://purl.org/dc/elements/1.1/" xmlns:cc="http://creativecommons.org/ns#" xmlns:rdf="http://www.w3.org/1999/02/22-rdf-syntax-ns#">
   <cc:Work>
    <dc:type rdf:resource="http://purl.org/dc/dcmitype/StillImage"/>
    <dc:date>2024-01-15T21:14:58.750582</dc:date>
    <dc:format>image/svg+xml</dc:format>
    <dc:creator>
     <cc:Agent>
      <dc:title>Matplotlib v3.5.1, https://matplotlib.org/</dc:title>
     </cc:Agent>
    </dc:creator>
   </cc:Work>
  </rdf:RDF>
 </metadata>
 <defs>
  <style type="text/css">*{stroke-linejoin: round; stroke-linecap: butt}</style>
 </defs>
 <g id="figure_1">
  <g id="patch_1">
   <path d="M 0 216 
L 720 216 
L 720 0 
L 0 0 
z
" style="fill: #ffffff"/>
  </g>
  <g id="axes_1">
   <g id="patch_2">
    <path d="M 47.72 174.04 
L 265.215 174.04 
L 265.215 26.88 
L 47.72 26.88 
z
" style="fill: #ffffff"/>
   </g>
   <g id="PolyCollection_1">
    <path d="M 47.72 33.933615 
L 47.72 34.982504 
L 59.167105 35.483554 
L 70.614211 38.582816 
L 82.061316 42.598003 
L 93.508421 47.943114 
L 104.955526 55.046936 
L 116.402632 62.690453 
L 127.849737 70.409373 
L 139.296842 78.996969 
L 150.743947 87.697685 
L 162.191053 95.416017 
L 173.638158 103.347182 
L 185.085263 109.678918 
L 196.532368 116.89202 
L 207.979474 123.545558 
L 219.426579 129.223748 
L 230.873684 135.110159 
L 242.320789 139.729649 
L 253.767895 144.637866 
L 265.215 149.175163 
L 265.215 135.76416 
L 265.215 135.76416 
L 253.767895 131.440323 
L 242.320789 126.248396 
L 230.873684 121.457515 
L 219.426579 115.661302 
L 207.979474 109.672712 
L 196.532368 103.368008 
L 185.085263 96.866889 
L 173.638158 89.918194 
L 162.191053 82.834801 
L 150.743947 75.82463 
L 139.296842 69.066144 
L 127.849737 62.765365 
L 116.402632 55.977273 
L 104.955526 50.629841 
L 93.508421 45.210758 
L 82.061316 40.639786 
L 70.614211 37.04945 
L 59.167105 34.631088 
L 47.72 33.933615 
z
" clip-path="url(#pedd30db8dc)" style="fill: #1f77b4; fill-opacity: 0.4"/>
   </g>
   <g id="PolyCollection_2">
    <path d="M 47.72 33.943964 
L 47.72 34.99974 
L 59.167105 35.213528 
L 70.614211 36.955637 
L 82.061316 39.129698 
L 93.508421 41.910377 
L 104.955526 46.488635 
L 116.402632 51.436517 
L 127.849737 56.84189 
L 139.296842 63.183611 
L 150.743947 70.258596 
L 162.191053 76.660375 
L 173.638158 83.90422 
L 185.085263 89.730845 
L 196.532368 96.825388 
L 207.979474 103.597147 
L 219.426579 109.536128 
L 230.873684 115.892138 
L 242.320789 120.952632 
L 253.767895 126.192087 
L 265.215 131.015303 
L 265.215 120.80407 
L 265.215 120.80407 
L 253.767895 116.049201 
L 242.320789 110.264086 
L 230.873684 105.263828 
L 219.426579 99.418715 
L 207.979474 93.616572 
L 196.532368 87.136978 
L 185.085263 81.007848 
L 173.638158 74.777424 
L 162.191053 68.739033 
L 150.743947 62.596372 
L 139.296842 57.357918 
L 127.849737 52.567779 
L 116.402632 47.763355 
L 104.955526 44.089066 
L 93.508421 40.576075 
L 82.061316 37.757562 
L 70.614211 35.688531 
L 59.167105 34.353301 
L 47.72 33.943964 
z
" clip-path="url(#pedd30db8dc)" style="fill: #ff7f0e; fill-opacity: 0.4"/>
   </g>
   <g id="PolyCollection_3">
    <path d="M 47.72 33.944665 
L 47.72 34.993308 
L 59.167105 35.307775 
L 70.614211 36.882651 
L 82.061316 38.518519 
L 93.508421 40.713438 
L 104.955526 43.942537 
L 116.402632 47.102311 
L 127.849737 50.793122 
L 139.296842 54.63845 
L 150.743947 59.193144 
L 162.191053 63.230443 
L 173.638158 67.790243 
L 185.085263 71.224421 
L 196.532368 75.779564 
L 207.979474 79.98096 
L 219.426579 83.511814 
L 230.873684 87.460037 
L 242.320789 90.547566 
L 253.767895 94.062947 
L 265.215 97.121399 
L 265.215 86.454803 
L 265.215 86.454803 
L 253.767895 83.140006 
L 242.320789 79.731052 
L 230.873684 76.562144 
L 219.426579 72.637367 
L 207.979474 69.513699 
L 196.532368 65.644252 
L 185.085263 62.31787 
L 173.638158 59.190899 
L 162.191053 55.948339 
L 150.743947 52.804074 
L 139.296842 49.655037 
L 127.849737 46.731525 
L 116.402632 43.841815 
L 104.955526 41.246313 
L 93.508421 38.998415 
L 82.061316 37.02085 
L 70.614211 35.507835 
L 59.167105 34.450796 
L 47.72 33.944665 
z
" clip-path="url(#pedd30db8dc)" style="fill: #2ca02c; fill-opacity: 0.4"/>
   </g>
   <g id="PolyCollection_4">
    <path d="M 47.72 33.959383 
L 47.72 35.018417 
L 59.167105 35.188181 
L 70.614211 36.383483 
L 82.061316 37.575305 
L 93.508421 39.094445 
L 104.955526 41.799052 
L 116.402632 44.538398 
L 127.849737 47.765724 
L 139.296842 51.44657 
L 150.743947 55.90592 
L 162.191053 59.854564 
L 173.638158 64.608642 
L 185.085263 68.031139 
L 196.532368 72.699414 
L 207.979474 77.050649 
L 219.426579 80.705186 
L 230.873684 84.745751 
L 242.320789 88.048654 
L 253.767895 91.728679 
L 265.215 94.979722 
L 265.215 84.801542 
L 265.215 84.801542 
L 253.767895 81.502559 
L 242.320789 78.034324 
L 230.873684 74.920491 
L 219.426579 71.030369 
L 207.979474 67.939031 
L 196.532368 63.995311 
L 185.085263 60.566347 
L 173.638158 57.193145 
L 162.191053 53.906087 
L 150.743947 50.581112 
L 139.296842 47.498007 
L 127.849737 44.793955 
L 116.402632 42.081293 
L 104.955526 39.917289 
L 93.508421 37.96322 
L 82.061316 36.359463 
L 70.614211 35.143376 
L 59.167105 34.332675 
L 47.72 33.959383 
z
" clip-path="url(#pedd30db8dc)" style="fill: #d62728; fill-opacity: 0.4"/>
   </g>
   <g id="PolyCollection_5">
    <path d="M 47.72 33.95746 
L 47.72 34.98792 
L 59.167105 35.507633 
L 70.614211 38.607092 
L 82.061316 42.616268 
L 93.508421 47.981253 
L 104.955526 55.106922 
L 116.402632 62.727183 
L 127.849737 70.450637 
L 139.296842 79.279147 
L 150.743947 87.950023 
L 162.191053 95.653294 
L 173.638158 103.37652 
L 185.085263 109.865087 
L 196.532368 117.613551 
L 207.979474 123.733589 
L 219.426579 129.829362 
L 230.873684 135.821526 
L 242.320789 140.48798 
L 253.767895 145.02023 
L 265.215 149.951921 
L 265.215 136.031928 
L 265.215 136.031928 
L 253.767895 132.137121 
L 242.320789 126.623971 
L 230.873684 121.593162 
L 219.426579 116.185545 
L 207.979474 109.949105 
L 196.532368 103.321127 
L 185.085263 97.435738 
L 173.638158 89.928155 
L 162.191053 82.744779 
L 150.743947 76.081944 
L 139.296842 69.105195 
L 127.849737 62.956736 
L 116.402632 55.934844 
L 104.955526 50.649994 
L 93.508421 45.282206 
L 82.061316 40.699065 
L 70.614211 37.061222 
L 59.167105 34.64523 
L 47.72 33.95746 
z
" clip-path="url(#pedd30db8dc)" style="fill: #9467bd; fill-opacity: 0.4"/>
   </g>
   <g id="PolyCollection_6">
    <path d="M 47.72 33.968365 
L 47.72 35.006385 
L 59.167105 35.237269 
L 70.614211 36.9705 
L 82.061316 39.156402 
L 93.508421 41.948913 
L 104.955526 46.50136 
L 116.402632 51.478274 
L 127.849737 56.84704 
L 139.296842 63.248002 
L 150.743947 70.447359 
L 162.191053 76.781283 
L 173.638158 83.874959 
L 185.085263 89.722286 
L 196.532368 97.300556 
L 207.979474 103.653574 
L 219.426579 110.041393 
L 230.873684 116.160314 
L 242.320789 121.218502 
L 253.767895 126.533807 
L 265.215 131.707064 
L 265.215 120.928751 
L 265.215 120.928751 
L 253.767895 116.415293 
L 242.320789 110.557897 
L 230.873684 105.251992 
L 219.426579 99.897085 
L 207.979474 93.700477 
L 196.532368 87.076441 
L 185.085263 81.502285 
L 173.638158 74.883885 
L 162.191053 68.693589 
L 150.743947 62.627683 
L 139.296842 57.505268 
L 127.849737 52.632102 
L 116.402632 47.779746 
L 104.955526 44.110288 
L 93.508421 40.6106 
L 82.061316 37.783346 
L 70.614211 35.695387 
L 59.167105 34.372156 
L 47.72 33.968365 
z
" clip-path="url(#pedd30db8dc)" style="fill: #8c564b; fill-opacity: 0.4"/>
   </g>
   <g id="PolyCollection_7">
    <path d="M 47.72 46.610458 
L 47.72 49.587371 
L 59.167105 50.631382 
L 70.614211 54.050112 
L 82.061316 59.06352 
L 93.508421 64.937044 
L 104.955526 73.040234 
L 116.402632 81.46175 
L 127.849737 90.209033 
L 139.296842 99.656099 
L 150.743947 108.928246 
L 162.191053 117.786961 
L 173.638158 126.258411 
L 185.085263 133.297466 
L 196.532368 140.563672 
L 207.979474 146.841327 
L 219.426579 151.92584 
L 230.873684 156.5293 
L 242.320789 160.207344 
L 253.767895 163.953843 
L 265.215 167.350909 
L 265.215 150.801735 
L 265.215 150.801735 
L 253.767895 146.846642 
L 242.320789 142.598325 
L 230.873684 137.853877 
L 219.426579 132.416424 
L 207.979474 126.486626 
L 196.532368 120.391467 
L 185.085263 113.876409 
L 173.638158 106.859984 
L 162.191053 99.972473 
L 150.743947 92.493597 
L 139.296842 85.686094 
L 127.849737 78.555993 
L 116.402632 71.34771 
L 104.955526 65.294438 
L 93.508421 59.21242 
L 82.061316 53.736379 
L 70.614211 49.883856 
L 59.167105 47.141236 
L 47.72 46.610458 
z
" clip-path="url(#pedd30db8dc)" style="fill: #e377c2; fill-opacity: 0.4"/>
   </g>
   <g id="PolyCollection_8">
    <path d="M 47.72 33.954163 
L 47.72 35.024981 
L 59.167105 34.917571 
L 70.614211 35.251987 
L 82.061316 35.56538 
L 93.508421 36.180652 
L 104.955526 38.172216 
L 116.402632 40.708548 
L 127.849737 44.216053 
L 139.296842 48.644478 
L 150.743947 53.921161 
L 162.191053 59.531226 
L 173.638158 66.450841 
L 185.085263 72.097087 
L 196.532368 79.52371 
L 207.979474 87.124947 
L 219.426579 93.716936 
L 230.873684 100.887135 
L 242.320789 106.972306 
L 253.767895 113.206391 
L 265.215 118.717674 
L 265.215 104.583073 
L 265.215 104.583073 
L 253.767895 98.885681 
L 242.320789 92.673337 
L 230.873684 87.230046 
L 219.426579 80.762756 
L 207.979474 75.125799 
L 196.532368 69.075341 
L 185.085263 63.346304 
L 173.638158 57.923813 
L 162.191053 52.791531 
L 150.743947 48.063617 
L 139.296842 43.865572 
L 127.849737 40.874196 
L 116.402632 38.306065 
L 104.955526 36.491804 
L 93.508421 35.316068 
L 82.061316 34.40484 
L 70.614211 34.142665 
L 59.167105 34.083436 
L 47.72 33.954163 
z
" clip-path="url(#pedd30db8dc)" style="fill: #7f7f7f; fill-opacity: 0.4"/>
   </g>
   <g id="matplotlib.axis_1">
    <g id="xtick_1">
     <g id="line2d_1">
      <defs>
       <path id="m7d8742ebea" d="M 0 0 
L 0 3.5 
" style="stroke: #000000; stroke-width: 0.8"/>
      </defs>
      <g>
       <use xlink:href="#m7d8742ebea" x="47.72" y="174.04" style="stroke: #000000; stroke-width: 0.8"/>
      </g>
     </g>
     <g id="text_1">
      <!-- 0.0 -->
      <g transform="translate(39.768438 188.638438)scale(0.1 -0.1)">
       <defs>
        <path id="DejaVuSans-30" d="M 2034 4250 
Q 1547 4250 1301 3770 
Q 1056 3291 1056 2328 
Q 1056 1369 1301 889 
Q 1547 409 2034 409 
Q 2525 409 2770 889 
Q 3016 1369 3016 2328 
Q 3016 3291 2770 3770 
Q 2525 4250 2034 4250 
z
M 2034 4750 
Q 2819 4750 3233 4129 
Q 3647 3509 3647 2328 
Q 3647 1150 3233 529 
Q 2819 -91 2034 -91 
Q 1250 -91 836 529 
Q 422 1150 422 2328 
Q 422 3509 836 4129 
Q 1250 4750 2034 4750 
z
" transform="scale(0.015625)"/>
        <path id="DejaVuSans-2e" d="M 684 794 
L 1344 794 
L 1344 0 
L 684 0 
L 684 794 
z
" transform="scale(0.015625)"/>
       </defs>
       <use xlink:href="#DejaVuSans-30"/>
       <use xlink:href="#DejaVuSans-2e" x="63.623047"/>
       <use xlink:href="#DejaVuSans-30" x="95.410156"/>
      </g>
     </g>
    </g>
    <g id="xtick_2">
     <g id="line2d_2">
      <g>
       <use xlink:href="#m7d8742ebea" x="102.09375" y="174.04" style="stroke: #000000; stroke-width: 0.8"/>
      </g>
     </g>
     <g id="text_2">
      <!-- 0.5 -->
      <g transform="translate(94.142188 188.638438)scale(0.1 -0.1)">
       <defs>
        <path id="DejaVuSans-35" d="M 691 4666 
L 3169 4666 
L 3169 4134 
L 1269 4134 
L 1269 2991 
Q 1406 3038 1543 3061 
Q 1681 3084 1819 3084 
Q 2600 3084 3056 2656 
Q 3513 2228 3513 1497 
Q 3513 744 3044 326 
Q 2575 -91 1722 -91 
Q 1428 -91 1123 -41 
Q 819 9 494 109 
L 494 744 
Q 775 591 1075 516 
Q 1375 441 1709 441 
Q 2250 441 2565 725 
Q 2881 1009 2881 1497 
Q 2881 1984 2565 2268 
Q 2250 2553 1709 2553 
Q 1456 2553 1204 2497 
Q 953 2441 691 2322 
L 691 4666 
z
" transform="scale(0.015625)"/>
       </defs>
       <use xlink:href="#DejaVuSans-30"/>
       <use xlink:href="#DejaVuSans-2e" x="63.623047"/>
       <use xlink:href="#DejaVuSans-35" x="95.410156"/>
      </g>
     </g>
    </g>
    <g id="xtick_3">
     <g id="line2d_3">
      <g>
       <use xlink:href="#m7d8742ebea" x="156.4675" y="174.04" style="stroke: #000000; stroke-width: 0.8"/>
      </g>
     </g>
     <g id="text_3">
      <!-- 1.0 -->
      <g transform="translate(148.515938 188.638438)scale(0.1 -0.1)">
       <defs>
        <path id="DejaVuSans-31" d="M 794 531 
L 1825 531 
L 1825 4091 
L 703 3866 
L 703 4441 
L 1819 4666 
L 2450 4666 
L 2450 531 
L 3481 531 
L 3481 0 
L 794 0 
L 794 531 
z
" transform="scale(0.015625)"/>
       </defs>
       <use xlink:href="#DejaVuSans-31"/>
       <use xlink:href="#DejaVuSans-2e" x="63.623047"/>
       <use xlink:href="#DejaVuSans-30" x="95.410156"/>
      </g>
     </g>
    </g>
    <g id="xtick_4">
     <g id="line2d_4">
      <g>
       <use xlink:href="#m7d8742ebea" x="210.84125" y="174.04" style="stroke: #000000; stroke-width: 0.8"/>
      </g>
     </g>
     <g id="text_4">
      <!-- 1.5 -->
      <g transform="translate(202.889687 188.638438)scale(0.1 -0.1)">
       <use xlink:href="#DejaVuSans-31"/>
       <use xlink:href="#DejaVuSans-2e" x="63.623047"/>
       <use xlink:href="#DejaVuSans-35" x="95.410156"/>
      </g>
     </g>
    </g>
    <g id="xtick_5">
     <g id="line2d_5">
      <g>
       <use xlink:href="#m7d8742ebea" x="265.215" y="174.04" style="stroke: #000000; stroke-width: 0.8"/>
      </g>
     </g>
     <g id="text_5">
      <!-- 2.0 -->
      <g transform="translate(257.263437 188.638438)scale(0.1 -0.1)">
       <defs>
        <path id="DejaVuSans-32" d="M 1228 531 
L 3431 531 
L 3431 0 
L 469 0 
L 469 531 
Q 828 903 1448 1529 
Q 2069 2156 2228 2338 
Q 2531 2678 2651 2914 
Q 2772 3150 2772 3378 
Q 2772 3750 2511 3984 
Q 2250 4219 1831 4219 
Q 1534 4219 1204 4116 
Q 875 4013 500 3803 
L 500 4441 
Q 881 4594 1212 4672 
Q 1544 4750 1819 4750 
Q 2544 4750 2975 4387 
Q 3406 4025 3406 3419 
Q 3406 3131 3298 2873 
Q 3191 2616 2906 2266 
Q 2828 2175 2409 1742 
Q 1991 1309 1228 531 
z
" transform="scale(0.015625)"/>
       </defs>
       <use xlink:href="#DejaVuSans-32"/>
       <use xlink:href="#DejaVuSans-2e" x="63.623047"/>
       <use xlink:href="#DejaVuSans-30" x="95.410156"/>
      </g>
     </g>
    </g>
    <g id="text_6">
     <!-- Influence of surprisal (multiplication) -->
     <g transform="translate(64.320625 202.316563)scale(0.1 -0.1)">
      <defs>
       <path id="DejaVuSans-49" d="M 628 4666 
L 1259 4666 
L 1259 0 
L 628 0 
L 628 4666 
z
" transform="scale(0.015625)"/>
       <path id="DejaVuSans-6e" d="M 3513 2113 
L 3513 0 
L 2938 0 
L 2938 2094 
Q 2938 2591 2744 2837 
Q 2550 3084 2163 3084 
Q 1697 3084 1428 2787 
Q 1159 2491 1159 1978 
L 1159 0 
L 581 0 
L 581 3500 
L 1159 3500 
L 1159 2956 
Q 1366 3272 1645 3428 
Q 1925 3584 2291 3584 
Q 2894 3584 3203 3211 
Q 3513 2838 3513 2113 
z
" transform="scale(0.015625)"/>
       <path id="DejaVuSans-66" d="M 2375 4863 
L 2375 4384 
L 1825 4384 
Q 1516 4384 1395 4259 
Q 1275 4134 1275 3809 
L 1275 3500 
L 2222 3500 
L 2222 3053 
L 1275 3053 
L 1275 0 
L 697 0 
L 697 3053 
L 147 3053 
L 147 3500 
L 697 3500 
L 697 3744 
Q 697 4328 969 4595 
Q 1241 4863 1831 4863 
L 2375 4863 
z
" transform="scale(0.015625)"/>
       <path id="DejaVuSans-6c" d="M 603 4863 
L 1178 4863 
L 1178 0 
L 603 0 
L 603 4863 
z
" transform="scale(0.015625)"/>
       <path id="DejaVuSans-75" d="M 544 1381 
L 544 3500 
L 1119 3500 
L 1119 1403 
Q 1119 906 1312 657 
Q 1506 409 1894 409 
Q 2359 409 2629 706 
Q 2900 1003 2900 1516 
L 2900 3500 
L 3475 3500 
L 3475 0 
L 2900 0 
L 2900 538 
Q 2691 219 2414 64 
Q 2138 -91 1772 -91 
Q 1169 -91 856 284 
Q 544 659 544 1381 
z
M 1991 3584 
L 1991 3584 
z
" transform="scale(0.015625)"/>
       <path id="DejaVuSans-65" d="M 3597 1894 
L 3597 1613 
L 953 1613 
Q 991 1019 1311 708 
Q 1631 397 2203 397 
Q 2534 397 2845 478 
Q 3156 559 3463 722 
L 3463 178 
Q 3153 47 2828 -22 
Q 2503 -91 2169 -91 
Q 1331 -91 842 396 
Q 353 884 353 1716 
Q 353 2575 817 3079 
Q 1281 3584 2069 3584 
Q 2775 3584 3186 3129 
Q 3597 2675 3597 1894 
z
M 3022 2063 
Q 3016 2534 2758 2815 
Q 2500 3097 2075 3097 
Q 1594 3097 1305 2825 
Q 1016 2553 972 2059 
L 3022 2063 
z
" transform="scale(0.015625)"/>
       <path id="DejaVuSans-63" d="M 3122 3366 
L 3122 2828 
Q 2878 2963 2633 3030 
Q 2388 3097 2138 3097 
Q 1578 3097 1268 2742 
Q 959 2388 959 1747 
Q 959 1106 1268 751 
Q 1578 397 2138 397 
Q 2388 397 2633 464 
Q 2878 531 3122 666 
L 3122 134 
Q 2881 22 2623 -34 
Q 2366 -91 2075 -91 
Q 1284 -91 818 406 
Q 353 903 353 1747 
Q 353 2603 823 3093 
Q 1294 3584 2113 3584 
Q 2378 3584 2631 3529 
Q 2884 3475 3122 3366 
z
" transform="scale(0.015625)"/>
       <path id="DejaVuSans-20" transform="scale(0.015625)"/>
       <path id="DejaVuSans-6f" d="M 1959 3097 
Q 1497 3097 1228 2736 
Q 959 2375 959 1747 
Q 959 1119 1226 758 
Q 1494 397 1959 397 
Q 2419 397 2687 759 
Q 2956 1122 2956 1747 
Q 2956 2369 2687 2733 
Q 2419 3097 1959 3097 
z
M 1959 3584 
Q 2709 3584 3137 3096 
Q 3566 2609 3566 1747 
Q 3566 888 3137 398 
Q 2709 -91 1959 -91 
Q 1206 -91 779 398 
Q 353 888 353 1747 
Q 353 2609 779 3096 
Q 1206 3584 1959 3584 
z
" transform="scale(0.015625)"/>
       <path id="DejaVuSans-73" d="M 2834 3397 
L 2834 2853 
Q 2591 2978 2328 3040 
Q 2066 3103 1784 3103 
Q 1356 3103 1142 2972 
Q 928 2841 928 2578 
Q 928 2378 1081 2264 
Q 1234 2150 1697 2047 
L 1894 2003 
Q 2506 1872 2764 1633 
Q 3022 1394 3022 966 
Q 3022 478 2636 193 
Q 2250 -91 1575 -91 
Q 1294 -91 989 -36 
Q 684 19 347 128 
L 347 722 
Q 666 556 975 473 
Q 1284 391 1588 391 
Q 1994 391 2212 530 
Q 2431 669 2431 922 
Q 2431 1156 2273 1281 
Q 2116 1406 1581 1522 
L 1381 1569 
Q 847 1681 609 1914 
Q 372 2147 372 2553 
Q 372 3047 722 3315 
Q 1072 3584 1716 3584 
Q 2034 3584 2315 3537 
Q 2597 3491 2834 3397 
z
" transform="scale(0.015625)"/>
       <path id="DejaVuSans-72" d="M 2631 2963 
Q 2534 3019 2420 3045 
Q 2306 3072 2169 3072 
Q 1681 3072 1420 2755 
Q 1159 2438 1159 1844 
L 1159 0 
L 581 0 
L 581 3500 
L 1159 3500 
L 1159 2956 
Q 1341 3275 1631 3429 
Q 1922 3584 2338 3584 
Q 2397 3584 2469 3576 
Q 2541 3569 2628 3553 
L 2631 2963 
z
" transform="scale(0.015625)"/>
       <path id="DejaVuSans-70" d="M 1159 525 
L 1159 -1331 
L 581 -1331 
L 581 3500 
L 1159 3500 
L 1159 2969 
Q 1341 3281 1617 3432 
Q 1894 3584 2278 3584 
Q 2916 3584 3314 3078 
Q 3713 2572 3713 1747 
Q 3713 922 3314 415 
Q 2916 -91 2278 -91 
Q 1894 -91 1617 61 
Q 1341 213 1159 525 
z
M 3116 1747 
Q 3116 2381 2855 2742 
Q 2594 3103 2138 3103 
Q 1681 3103 1420 2742 
Q 1159 2381 1159 1747 
Q 1159 1113 1420 752 
Q 1681 391 2138 391 
Q 2594 391 2855 752 
Q 3116 1113 3116 1747 
z
" transform="scale(0.015625)"/>
       <path id="DejaVuSans-69" d="M 603 3500 
L 1178 3500 
L 1178 0 
L 603 0 
L 603 3500 
z
M 603 4863 
L 1178 4863 
L 1178 4134 
L 603 4134 
L 603 4863 
z
" transform="scale(0.015625)"/>
       <path id="DejaVuSans-61" d="M 2194 1759 
Q 1497 1759 1228 1600 
Q 959 1441 959 1056 
Q 959 750 1161 570 
Q 1363 391 1709 391 
Q 2188 391 2477 730 
Q 2766 1069 2766 1631 
L 2766 1759 
L 2194 1759 
z
M 3341 1997 
L 3341 0 
L 2766 0 
L 2766 531 
Q 2569 213 2275 61 
Q 1981 -91 1556 -91 
Q 1019 -91 701 211 
Q 384 513 384 1019 
Q 384 1609 779 1909 
Q 1175 2209 1959 2209 
L 2766 2209 
L 2766 2266 
Q 2766 2663 2505 2880 
Q 2244 3097 1772 3097 
Q 1472 3097 1187 3025 
Q 903 2953 641 2809 
L 641 3341 
Q 956 3463 1253 3523 
Q 1550 3584 1831 3584 
Q 2591 3584 2966 3190 
Q 3341 2797 3341 1997 
z
" transform="scale(0.015625)"/>
       <path id="DejaVuSans-28" d="M 1984 4856 
Q 1566 4138 1362 3434 
Q 1159 2731 1159 2009 
Q 1159 1288 1364 580 
Q 1569 -128 1984 -844 
L 1484 -844 
Q 1016 -109 783 600 
Q 550 1309 550 2009 
Q 550 2706 781 3412 
Q 1013 4119 1484 4856 
L 1984 4856 
z
" transform="scale(0.015625)"/>
       <path id="DejaVuSans-6d" d="M 3328 2828 
Q 3544 3216 3844 3400 
Q 4144 3584 4550 3584 
Q 5097 3584 5394 3201 
Q 5691 2819 5691 2113 
L 5691 0 
L 5113 0 
L 5113 2094 
Q 5113 2597 4934 2840 
Q 4756 3084 4391 3084 
Q 3944 3084 3684 2787 
Q 3425 2491 3425 1978 
L 3425 0 
L 2847 0 
L 2847 2094 
Q 2847 2600 2669 2842 
Q 2491 3084 2119 3084 
Q 1678 3084 1418 2786 
Q 1159 2488 1159 1978 
L 1159 0 
L 581 0 
L 581 3500 
L 1159 3500 
L 1159 2956 
Q 1356 3278 1631 3431 
Q 1906 3584 2284 3584 
Q 2666 3584 2933 3390 
Q 3200 3197 3328 2828 
z
" transform="scale(0.015625)"/>
       <path id="DejaVuSans-74" d="M 1172 4494 
L 1172 3500 
L 2356 3500 
L 2356 3053 
L 1172 3053 
L 1172 1153 
Q 1172 725 1289 603 
Q 1406 481 1766 481 
L 2356 481 
L 2356 0 
L 1766 0 
Q 1100 0 847 248 
Q 594 497 594 1153 
L 594 3053 
L 172 3053 
L 172 3500 
L 594 3500 
L 594 4494 
L 1172 4494 
z
" transform="scale(0.015625)"/>
       <path id="DejaVuSans-29" d="M 513 4856 
L 1013 4856 
Q 1481 4119 1714 3412 
Q 1947 2706 1947 2009 
Q 1947 1309 1714 600 
Q 1481 -109 1013 -844 
L 513 -844 
Q 928 -128 1133 580 
Q 1338 1288 1338 2009 
Q 1338 2731 1133 3434 
Q 928 4138 513 4856 
z
" transform="scale(0.015625)"/>
      </defs>
      <use xlink:href="#DejaVuSans-49"/>
      <use xlink:href="#DejaVuSans-6e" x="29.492188"/>
      <use xlink:href="#DejaVuSans-66" x="92.871094"/>
      <use xlink:href="#DejaVuSans-6c" x="128.076172"/>
      <use xlink:href="#DejaVuSans-75" x="155.859375"/>
      <use xlink:href="#DejaVuSans-65" x="219.238281"/>
      <use xlink:href="#DejaVuSans-6e" x="280.761719"/>
      <use xlink:href="#DejaVuSans-63" x="344.140625"/>
      <use xlink:href="#DejaVuSans-65" x="399.121094"/>
      <use xlink:href="#DejaVuSans-20" x="460.644531"/>
      <use xlink:href="#DejaVuSans-6f" x="492.431641"/>
      <use xlink:href="#DejaVuSans-66" x="553.613281"/>
      <use xlink:href="#DejaVuSans-20" x="588.818359"/>
      <use xlink:href="#DejaVuSans-73" x="620.605469"/>
      <use xlink:href="#DejaVuSans-75" x="672.705078"/>
      <use xlink:href="#DejaVuSans-72" x="736.083984"/>
      <use xlink:href="#DejaVuSans-70" x="777.197266"/>
      <use xlink:href="#DejaVuSans-72" x="840.673828"/>
      <use xlink:href="#DejaVuSans-69" x="881.787109"/>
      <use xlink:href="#DejaVuSans-73" x="909.570312"/>
      <use xlink:href="#DejaVuSans-61" x="961.669922"/>
      <use xlink:href="#DejaVuSans-6c" x="1022.949219"/>
      <use xlink:href="#DejaVuSans-20" x="1050.732422"/>
      <use xlink:href="#DejaVuSans-28" x="1082.519531"/>
      <use xlink:href="#DejaVuSans-6d" x="1121.533203"/>
      <use xlink:href="#DejaVuSans-75" x="1218.945312"/>
      <use xlink:href="#DejaVuSans-6c" x="1282.324219"/>
      <use xlink:href="#DejaVuSans-74" x="1310.107422"/>
      <use xlink:href="#DejaVuSans-69" x="1349.316406"/>
      <use xlink:href="#DejaVuSans-70" x="1377.099609"/>
      <use xlink:href="#DejaVuSans-6c" x="1440.576172"/>
      <use xlink:href="#DejaVuSans-69" x="1468.359375"/>
      <use xlink:href="#DejaVuSans-63" x="1496.142578"/>
      <use xlink:href="#DejaVuSans-61" x="1551.123047"/>
      <use xlink:href="#DejaVuSans-74" x="1612.402344"/>
      <use xlink:href="#DejaVuSans-69" x="1651.611328"/>
      <use xlink:href="#DejaVuSans-6f" x="1679.394531"/>
      <use xlink:href="#DejaVuSans-6e" x="1740.576172"/>
      <use xlink:href="#DejaVuSans-29" x="1803.955078"/>
     </g>
    </g>
   </g>
   <g id="matplotlib.axis_2">
    <g id="ytick_1">
     <g id="line2d_6">
      <defs>
       <path id="m3bd1cfb700" d="M 0 0 
L -3.5 0 
" style="stroke: #000000; stroke-width: 0.8"/>
      </defs>
      <g>
       <use xlink:href="#m3bd1cfb700" x="47.72" y="137.909249" style="stroke: #000000; stroke-width: 0.8"/>
      </g>
     </g>
     <g id="text_7">
      <!-- 0.4 -->
      <g transform="translate(24.816875 141.708468)scale(0.1 -0.1)">
       <defs>
        <path id="DejaVuSans-34" d="M 2419 4116 
L 825 1625 
L 2419 1625 
L 2419 4116 
z
M 2253 4666 
L 3047 4666 
L 3047 1625 
L 3713 1625 
L 3713 1100 
L 3047 1100 
L 3047 0 
L 2419 0 
L 2419 1100 
L 313 1100 
L 313 1709 
L 2253 4666 
z
" transform="scale(0.015625)"/>
       </defs>
       <use xlink:href="#DejaVuSans-30"/>
       <use xlink:href="#DejaVuSans-2e" x="63.623047"/>
       <use xlink:href="#DejaVuSans-34" x="95.410156"/>
      </g>
     </g>
    </g>
    <g id="ytick_2">
     <g id="line2d_7">
      <g>
       <use xlink:href="#m3bd1cfb700" x="47.72" y="99.964937" style="stroke: #000000; stroke-width: 0.8"/>
      </g>
     </g>
     <g id="text_8">
      <!-- 0.6 -->
      <g transform="translate(24.816875 103.764156)scale(0.1 -0.1)">
       <defs>
        <path id="DejaVuSans-36" d="M 2113 2584 
Q 1688 2584 1439 2293 
Q 1191 2003 1191 1497 
Q 1191 994 1439 701 
Q 1688 409 2113 409 
Q 2538 409 2786 701 
Q 3034 994 3034 1497 
Q 3034 2003 2786 2293 
Q 2538 2584 2113 2584 
z
M 3366 4563 
L 3366 3988 
Q 3128 4100 2886 4159 
Q 2644 4219 2406 4219 
Q 1781 4219 1451 3797 
Q 1122 3375 1075 2522 
Q 1259 2794 1537 2939 
Q 1816 3084 2150 3084 
Q 2853 3084 3261 2657 
Q 3669 2231 3669 1497 
Q 3669 778 3244 343 
Q 2819 -91 2113 -91 
Q 1303 -91 875 529 
Q 447 1150 447 2328 
Q 447 3434 972 4092 
Q 1497 4750 2381 4750 
Q 2619 4750 2861 4703 
Q 3103 4656 3366 4563 
z
" transform="scale(0.015625)"/>
       </defs>
       <use xlink:href="#DejaVuSans-30"/>
       <use xlink:href="#DejaVuSans-2e" x="63.623047"/>
       <use xlink:href="#DejaVuSans-36" x="95.410156"/>
      </g>
     </g>
    </g>
    <g id="ytick_3">
     <g id="line2d_8">
      <g>
       <use xlink:href="#m3bd1cfb700" x="47.72" y="62.020625" style="stroke: #000000; stroke-width: 0.8"/>
      </g>
     </g>
     <g id="text_9">
      <!-- 0.8 -->
      <g transform="translate(24.816875 65.819844)scale(0.1 -0.1)">
       <defs>
        <path id="DejaVuSans-38" d="M 2034 2216 
Q 1584 2216 1326 1975 
Q 1069 1734 1069 1313 
Q 1069 891 1326 650 
Q 1584 409 2034 409 
Q 2484 409 2743 651 
Q 3003 894 3003 1313 
Q 3003 1734 2745 1975 
Q 2488 2216 2034 2216 
z
M 1403 2484 
Q 997 2584 770 2862 
Q 544 3141 544 3541 
Q 544 4100 942 4425 
Q 1341 4750 2034 4750 
Q 2731 4750 3128 4425 
Q 3525 4100 3525 3541 
Q 3525 3141 3298 2862 
Q 3072 2584 2669 2484 
Q 3125 2378 3379 2068 
Q 3634 1759 3634 1313 
Q 3634 634 3220 271 
Q 2806 -91 2034 -91 
Q 1263 -91 848 271 
Q 434 634 434 1313 
Q 434 1759 690 2068 
Q 947 2378 1403 2484 
z
M 1172 3481 
Q 1172 3119 1398 2916 
Q 1625 2713 2034 2713 
Q 2441 2713 2670 2916 
Q 2900 3119 2900 3481 
Q 2900 3844 2670 4047 
Q 2441 4250 2034 4250 
Q 1625 4250 1398 4047 
Q 1172 3844 1172 3481 
z
" transform="scale(0.015625)"/>
       </defs>
       <use xlink:href="#DejaVuSans-30"/>
       <use xlink:href="#DejaVuSans-2e" x="63.623047"/>
       <use xlink:href="#DejaVuSans-38" x="95.410156"/>
      </g>
     </g>
    </g>
    <g id="text_10">
     <!-- R-value -->
     <g transform="translate(18.737188 119.064687)rotate(-90)scale(0.1 -0.1)">
      <defs>
       <path id="DejaVuSans-52" d="M 2841 2188 
Q 3044 2119 3236 1894 
Q 3428 1669 3622 1275 
L 4263 0 
L 3584 0 
L 2988 1197 
Q 2756 1666 2539 1819 
Q 2322 1972 1947 1972 
L 1259 1972 
L 1259 0 
L 628 0 
L 628 4666 
L 2053 4666 
Q 2853 4666 3247 4331 
Q 3641 3997 3641 3322 
Q 3641 2881 3436 2590 
Q 3231 2300 2841 2188 
z
M 1259 4147 
L 1259 2491 
L 2053 2491 
Q 2509 2491 2742 2702 
Q 2975 2913 2975 3322 
Q 2975 3731 2742 3939 
Q 2509 4147 2053 4147 
L 1259 4147 
z
" transform="scale(0.015625)"/>
       <path id="DejaVuSans-2d" d="M 313 2009 
L 1997 2009 
L 1997 1497 
L 313 1497 
L 313 2009 
z
" transform="scale(0.015625)"/>
       <path id="DejaVuSans-76" d="M 191 3500 
L 800 3500 
L 1894 563 
L 2988 3500 
L 3597 3500 
L 2284 0 
L 1503 0 
L 191 3500 
z
" transform="scale(0.015625)"/>
      </defs>
      <use xlink:href="#DejaVuSans-52"/>
      <use xlink:href="#DejaVuSans-2d" x="65.482422"/>
      <use xlink:href="#DejaVuSans-76" x="98.941406"/>
      <use xlink:href="#DejaVuSans-61" x="158.121094"/>
      <use xlink:href="#DejaVuSans-6c" x="219.400391"/>
      <use xlink:href="#DejaVuSans-75" x="247.183594"/>
      <use xlink:href="#DejaVuSans-65" x="310.5625"/>
     </g>
    </g>
   </g>
   <g id="line2d_9">
    <path d="M 47.72 34.458059 
L 59.167105 35.057321 
L 70.614211 37.816133 
L 82.061316 41.618895 
L 93.508421 46.576936 
L 104.955526 52.838388 
L 116.402632 59.333863 
L 127.849737 66.587369 
L 139.296842 74.031557 
L 150.743947 81.761158 
L 162.191053 89.125409 
L 173.638158 96.632688 
L 185.085263 103.272904 
L 196.532368 110.130014 
L 207.979474 116.609135 
L 219.426579 122.442525 
L 230.873684 128.283837 
L 242.320789 132.989022 
L 253.767895 138.039094 
L 265.215 142.469662 
" clip-path="url(#pedd30db8dc)" style="fill: none; stroke: #1f77b4; stroke-width: 1.5; stroke-linecap: square"/>
   </g>
   <g id="line2d_10">
    <path d="M 47.72 34.471852 
L 59.167105 34.783414 
L 70.614211 36.322084 
L 82.061316 38.44363 
L 93.508421 41.243226 
L 104.955526 45.288851 
L 116.402632 49.599936 
L 127.849737 54.704835 
L 139.296842 60.270765 
L 150.743947 66.427484 
L 162.191053 72.699704 
L 173.638158 79.340822 
L 185.085263 85.369346 
L 196.532368 91.981183 
L 207.979474 98.606859 
L 219.426579 104.477421 
L 230.873684 110.577983 
L 242.320789 115.608359 
L 253.767895 121.120644 
L 265.215 125.909686 
" clip-path="url(#pedd30db8dc)" style="fill: none; stroke: #ff7f0e; stroke-width: 1.5; stroke-linecap: square"/>
   </g>
   <g id="line2d_11">
    <path d="M 47.72 34.468987 
L 59.167105 34.879286 
L 70.614211 36.195243 
L 82.061316 37.769684 
L 93.508421 39.855926 
L 104.955526 42.594425 
L 116.402632 45.472063 
L 127.849737 48.762323 
L 139.296842 52.146743 
L 150.743947 55.998609 
L 162.191053 59.589391 
L 173.638158 63.490571 
L 185.085263 66.771145 
L 196.532368 70.711908 
L 207.979474 74.747329 
L 219.426579 78.074591 
L 230.873684 82.01109 
L 242.320789 85.139309 
L 253.767895 88.601477 
L 265.215 91.788101 
" clip-path="url(#pedd30db8dc)" style="fill: none; stroke: #2ca02c; stroke-width: 1.5; stroke-linecap: square"/>
   </g>
   <g id="line2d_12">
    <path d="M 47.72 34.4889 
L 59.167105 34.760428 
L 70.614211 35.76343 
L 82.061316 36.967384 
L 93.508421 38.528832 
L 104.955526 40.858171 
L 116.402632 43.309845 
L 127.849737 46.279839 
L 139.296842 49.472288 
L 150.743947 53.243516 
L 162.191053 56.880325 
L 173.638158 60.900893 
L 185.085263 64.298743 
L 196.532368 68.347362 
L 207.979474 72.49484 
L 219.426579 75.867778 
L 230.873684 79.833121 
L 242.320789 83.041489 
L 253.767895 86.615619 
L 265.215 89.890632 
" clip-path="url(#pedd30db8dc)" style="fill: none; stroke: #d62728; stroke-width: 1.5; stroke-linecap: square"/>
   </g>
   <g id="line2d_13">
    <path d="M 47.72 34.47269 
L 59.167105 35.076431 
L 70.614211 37.834157 
L 82.061316 41.657666 
L 93.508421 46.63173 
L 104.955526 52.878458 
L 116.402632 59.331014 
L 127.849737 66.703687 
L 139.296842 74.192171 
L 150.743947 82.015983 
L 162.191053 89.199036 
L 173.638158 96.652337 
L 185.085263 103.650413 
L 196.532368 110.467339 
L 207.979474 116.841347 
L 219.426579 123.007453 
L 230.873684 128.707344 
L 242.320789 133.555975 
L 253.767895 138.578676 
L 265.215 142.991924 
" clip-path="url(#pedd30db8dc)" style="fill: none; stroke: #9467bd; stroke-width: 1.5; stroke-linecap: square"/>
   </g>
   <g id="line2d_14">
    <path d="M 47.72 34.487375 
L 59.167105 34.804713 
L 70.614211 36.332944 
L 82.061316 38.469874 
L 93.508421 41.279756 
L 104.955526 45.305824 
L 116.402632 49.62901 
L 127.849737 54.739571 
L 139.296842 60.376635 
L 150.743947 66.537521 
L 162.191053 72.737436 
L 173.638158 79.379422 
L 185.085263 85.612286 
L 196.532368 92.188499 
L 207.979474 98.677025 
L 219.426579 104.969239 
L 230.873684 110.706153 
L 242.320789 115.8882 
L 253.767895 121.47455 
L 265.215 126.317908 
" clip-path="url(#pedd30db8dc)" style="fill: none; stroke: #8c564b; stroke-width: 1.5; stroke-linecap: square"/>
   </g>
   <g id="line2d_15">
    <path d="M 47.72 48.098914 
L 59.167105 48.886309 
L 70.614211 51.966984 
L 82.061316 56.399949 
L 93.508421 62.074732 
L 104.955526 69.167336 
L 116.402632 76.40473 
L 127.849737 84.382513 
L 139.296842 92.671096 
L 150.743947 100.710922 
L 162.191053 108.879717 
L 173.638158 116.559198 
L 185.085263 123.586937 
L 196.532368 130.47757 
L 207.979474 136.663977 
L 219.426579 142.171132 
L 230.873684 147.191588 
L 242.320789 151.402835 
L 253.767895 155.400242 
L 265.215 159.076322 
" clip-path="url(#pedd30db8dc)" style="fill: none; stroke: #e377c2; stroke-width: 1.5; stroke-linecap: square"/>
   </g>
   <g id="line2d_16">
    <path d="M 47.72 34.489572 
L 59.167105 34.500504 
L 70.614211 34.697326 
L 82.061316 34.98511 
L 93.508421 35.74836 
L 104.955526 37.33201 
L 116.402632 39.507306 
L 127.849737 42.545124 
L 139.296842 46.255025 
L 150.743947 50.992389 
L 162.191053 56.161379 
L 173.638158 62.187327 
L 185.085263 67.721695 
L 196.532368 74.299526 
L 207.979474 81.125373 
L 219.426579 87.239846 
L 230.873684 94.058591 
L 242.320789 99.822821 
L 253.767895 106.046036 
L 265.215 111.650374 
" clip-path="url(#pedd30db8dc)" style="fill: none; stroke: #7f7f7f; stroke-width: 1.5; stroke-linecap: square"/>
   </g>
   <g id="patch_3">
    <path d="M 47.72 174.04 
L 47.72 26.88 
" style="fill: none; stroke: #000000; stroke-width: 0.8; stroke-linejoin: miter; stroke-linecap: square"/>
   </g>
   <g id="patch_4">
    <path d="M 47.72 174.04 
L 265.215 174.04 
" style="fill: none; stroke: #000000; stroke-width: 0.8; stroke-linejoin: miter; stroke-linecap: square"/>
   </g>
   <g id="text_11">
    <!-- Node * surprisal -->
    <g transform="translate(108.18625 20.88)scale(0.12 -0.12)">
     <defs>
      <path id="DejaVuSans-4e" d="M 628 4666 
L 1478 4666 
L 3547 763 
L 3547 4666 
L 4159 4666 
L 4159 0 
L 3309 0 
L 1241 3903 
L 1241 0 
L 628 0 
L 628 4666 
z
" transform="scale(0.015625)"/>
      <path id="DejaVuSans-64" d="M 2906 2969 
L 2906 4863 
L 3481 4863 
L 3481 0 
L 2906 0 
L 2906 525 
Q 2725 213 2448 61 
Q 2172 -91 1784 -91 
Q 1150 -91 751 415 
Q 353 922 353 1747 
Q 353 2572 751 3078 
Q 1150 3584 1784 3584 
Q 2172 3584 2448 3432 
Q 2725 3281 2906 2969 
z
M 947 1747 
Q 947 1113 1208 752 
Q 1469 391 1925 391 
Q 2381 391 2643 752 
Q 2906 1113 2906 1747 
Q 2906 2381 2643 2742 
Q 2381 3103 1925 3103 
Q 1469 3103 1208 2742 
Q 947 2381 947 1747 
z
" transform="scale(0.015625)"/>
      <path id="DejaVuSans-2a" d="M 3009 3897 
L 1888 3291 
L 3009 2681 
L 2828 2375 
L 1778 3009 
L 1778 1831 
L 1422 1831 
L 1422 3009 
L 372 2375 
L 191 2681 
L 1313 3291 
L 191 3897 
L 372 4206 
L 1422 3572 
L 1422 4750 
L 1778 4750 
L 1778 3572 
L 2828 4206 
L 3009 3897 
z
" transform="scale(0.015625)"/>
     </defs>
     <use xlink:href="#DejaVuSans-4e"/>
     <use xlink:href="#DejaVuSans-6f" x="74.804688"/>
     <use xlink:href="#DejaVuSans-64" x="135.986328"/>
     <use xlink:href="#DejaVuSans-65" x="199.462891"/>
     <use xlink:href="#DejaVuSans-20" x="260.986328"/>
     <use xlink:href="#DejaVuSans-2a" x="292.773438"/>
     <use xlink:href="#DejaVuSans-20" x="342.773438"/>
     <use xlink:href="#DejaVuSans-73" x="374.560547"/>
     <use xlink:href="#DejaVuSans-75" x="426.660156"/>
     <use xlink:href="#DejaVuSans-72" x="490.039062"/>
     <use xlink:href="#DejaVuSans-70" x="531.152344"/>
     <use xlink:href="#DejaVuSans-72" x="594.628906"/>
     <use xlink:href="#DejaVuSans-69" x="635.742188"/>
     <use xlink:href="#DejaVuSans-73" x="663.525391"/>
     <use xlink:href="#DejaVuSans-61" x="715.625"/>
     <use xlink:href="#DejaVuSans-6c" x="776.904297"/>
    </g>
   </g>
  </g>
  <g id="axes_2">
   <g id="patch_5">
    <path d="M 298.065 174.04 
L 515.56 174.04 
L 515.56 26.88 
L 298.065 26.88 
z
" style="fill: #ffffff"/>
   </g>
   <g id="PolyCollection_9">
    <path d="M 298.065 33.569091 
L 298.065 34.925493 
L 309.512105 35.766887 
L 320.959211 38.818084 
L 332.406316 43.347668 
L 343.853421 48.959232 
L 355.300526 56.136773 
L 366.747632 63.125906 
L 378.194737 71.500052 
L 389.641842 79.102685 
L 401.088947 87.369599 
L 412.536053 94.859335 
L 423.983158 102.849123 
L 435.430263 110.04713 
L 446.877368 116.958906 
L 458.324474 122.636613 
L 469.771579 128.27035 
L 481.218684 133.611867 
L 492.665789 138.77268 
L 504.112895 143.03031 
L 515.56 147.846246 
L 515.56 135.668529 
L 515.56 135.668529 
L 504.112895 131.338454 
L 492.665789 126.414724 
L 481.218684 120.979944 
L 469.771579 115.566921 
L 458.324474 109.665823 
L 446.877368 103.421166 
L 435.430263 96.632281 
L 423.983158 90.03769 
L 412.536053 83.195981 
L 401.088947 76.776304 
L 389.641842 70.378238 
L 378.194737 63.404528 
L 366.747632 56.715693 
L 355.300526 50.835331 
L 343.853421 45.281778 
L 332.406316 40.676477 
L 320.959211 37.28962 
L 309.512105 34.752925 
L 298.065 33.569091 
z
" clip-path="url(#p2d8ec70a3a)" style="fill: #1f77b4; fill-opacity: 0.4"/>
   </g>
   <g id="PolyCollection_10">
    <path d="M 298.065 33.577659 
L 298.065 34.937487 
L 309.512105 35.792357 
L 320.959211 38.851446 
L 332.406316 43.387738 
L 343.853421 49.023987 
L 355.300526 56.231583 
L 366.747632 63.27969 
L 378.194737 71.666545 
L 389.641842 79.295271 
L 401.088947 87.624008 
L 412.536053 95.148261 
L 423.983158 103.15113 
L 435.430263 110.36985 
L 446.877368 117.267317 
L 458.324474 122.935949 
L 469.771579 128.590746 
L 481.218684 133.948864 
L 492.665789 139.095702 
L 504.112895 143.283395 
L 515.56 148.082052 
L 515.56 135.921751 
L 515.56 135.921751 
L 504.112895 131.58182 
L 492.665789 126.606577 
L 481.218684 121.18672 
L 469.771579 115.744569 
L 458.324474 109.842491 
L 446.877368 103.545421 
L 435.430263 96.754717 
L 423.983158 90.180375 
L 412.536053 83.333525 
L 401.088947 76.866882 
L 389.641842 70.46917 
L 378.194737 63.474548 
L 366.747632 56.802526 
L 355.300526 50.895526 
L 343.853421 45.34427 
L 332.406316 40.726614 
L 320.959211 37.321501 
L 309.512105 34.760829 
L 298.065 33.577659 
z
" clip-path="url(#p2d8ec70a3a)" style="fill: #ff7f0e; fill-opacity: 0.4"/>
   </g>
   <g id="PolyCollection_11">
    <path d="M 298.065 33.58365 
L 298.065 34.939758 
L 309.512105 35.78777 
L 320.959211 38.848353 
L 332.406316 43.349418 
L 343.853421 49.01222 
L 355.300526 56.222211 
L 366.747632 63.225766 
L 378.194737 71.551431 
L 389.641842 79.140597 
L 401.088947 87.433334 
L 412.536053 94.908116 
L 423.983158 102.926062 
L 435.430263 110.096443 
L 446.877368 117.012355 
L 458.324474 122.690251 
L 469.771579 128.28524 
L 481.218684 133.692019 
L 492.665789 138.717143 
L 504.112895 143.039843 
L 515.56 147.804344 
L 515.56 136.006276 
L 515.56 136.006276 
L 504.112895 131.526679 
L 492.665789 126.645746 
L 481.218684 121.152837 
L 469.771579 115.779923 
L 458.324474 109.835868 
L 446.877368 103.630268 
L 435.430263 96.860399 
L 423.983158 90.232164 
L 412.536053 83.374257 
L 401.088947 76.906471 
L 389.641842 70.543394 
L 378.194737 63.543537 
L 366.747632 56.797911 
L 355.300526 50.876106 
L 343.853421 45.321885 
L 332.406316 40.706398 
L 320.959211 37.313834 
L 309.512105 34.775088 
L 298.065 33.58365 
z
" clip-path="url(#p2d8ec70a3a)" style="fill: #2ca02c; fill-opacity: 0.4"/>
   </g>
   <g id="PolyCollection_12">
    <path d="M 298.065 33.593289 
L 298.065 34.953313 
L 309.512105 35.820062 
L 320.959211 38.884783 
L 332.406316 43.395714 
L 343.853421 49.085604 
L 355.300526 56.298953 
L 366.747632 63.357567 
L 378.194737 71.685145 
L 389.641842 79.280817 
L 401.088947 87.61806 
L 412.536053 95.120266 
L 423.983158 103.139859 
L 435.430263 110.372873 
L 446.877368 117.289089 
L 458.324474 122.976842 
L 469.771579 128.602296 
L 481.218684 134.073107 
L 492.665789 139.12798 
L 504.112895 143.309906 
L 515.56 148.125538 
L 515.56 135.794623 
L 515.56 135.794623 
L 504.112895 131.362042 
L 492.665789 126.425814 
L 481.218684 120.96445 
L 469.771579 115.607096 
L 458.324474 109.677776 
L 446.877368 103.503055 
L 435.430263 96.782321 
L 423.983158 90.176493 
L 412.536053 83.397246 
L 401.088947 76.917835 
L 389.641842 70.555067 
L 378.194737 63.579429 
L 366.747632 56.829323 
L 355.300526 50.895541 
L 343.853421 45.364423 
L 332.406316 40.72985 
L 320.959211 37.336563 
L 309.512105 34.781022 
L 298.065 33.593289 
z
" clip-path="url(#p2d8ec70a3a)" style="fill: #d62728; fill-opacity: 0.4"/>
   </g>
   <g id="PolyCollection_13">
    <path d="M 298.065 33.588893 
L 298.065 34.945451 
L 309.512105 35.804758 
L 320.959211 38.866555 
L 332.406316 43.370109 
L 343.853421 48.975476 
L 355.300526 56.197154 
L 366.747632 63.20736 
L 378.194737 71.487336 
L 389.641842 79.275785 
L 401.088947 87.556192 
L 412.536053 95.284557 
L 423.983158 103.181789 
L 435.430263 110.017755 
L 446.877368 117.100607 
L 458.324474 123.156943 
L 469.771579 128.153173 
L 481.218684 133.947521 
L 492.665789 138.888642 
L 504.112895 142.592994 
L 515.56 148.363062 
L 515.56 135.579884 
L 515.56 135.579884 
L 504.112895 131.371258 
L 492.665789 126.370498 
L 481.218684 121.25863 
L 469.771579 115.822092 
L 458.324474 109.891007 
L 446.877368 103.622369 
L 435.430263 96.718009 
L 423.983158 90.192337 
L 412.536053 83.398819 
L 401.088947 76.64359 
L 389.641842 70.604256 
L 378.194737 63.556762 
L 366.747632 56.844238 
L 355.300526 50.849456 
L 343.853421 45.352812 
L 332.406316 40.699251 
L 320.959211 37.313843 
L 309.512105 34.77067 
L 298.065 33.588893 
z
" clip-path="url(#p2d8ec70a3a)" style="fill: #9467bd; fill-opacity: 0.4"/>
   </g>
   <g id="PolyCollection_14">
    <path d="M 298.065 33.598197 
L 298.065 34.957777 
L 309.512105 35.830195 
L 320.959211 38.900834 
L 332.406316 43.409481 
L 343.853421 49.039075 
L 355.300526 56.291889 
L 366.747632 63.352962 
L 378.194737 71.649807 
L 389.641842 79.458341 
L 401.088947 87.796458 
L 412.536053 95.574516 
L 423.983158 103.505912 
L 435.430263 110.334517 
L 446.877368 117.393408 
L 458.324474 123.426928 
L 469.771579 128.446903 
L 481.218684 134.280461 
L 492.665789 139.228616 
L 504.112895 142.811143 
L 515.56 148.602489 
L 515.56 135.827705 
L 515.56 135.827705 
L 504.112895 131.605263 
L 492.665789 126.549643 
L 481.218684 121.487218 
L 469.771579 115.998494 
L 458.324474 110.055798 
L 446.877368 103.736864 
L 435.430263 96.840183 
L 423.983158 90.327454 
L 412.536053 83.540495 
L 401.088947 76.743653 
L 389.641842 70.698041 
L 378.194737 63.629807 
L 366.747632 56.927946 
L 355.300526 50.914368 
L 343.853421 45.410886 
L 332.406316 40.750594 
L 320.959211 37.346432 
L 309.512105 34.778782 
L 298.065 33.598197 
z
" clip-path="url(#p2d8ec70a3a)" style="fill: #8c564b; fill-opacity: 0.4"/>
   </g>
   <g id="PolyCollection_15">
    <path d="M 298.065 46.374964 
L 298.065 49.421089 
L 309.512105 50.383947 
L 320.959211 52.671503 
L 332.406316 56.773208 
L 343.853421 61.473703 
L 355.300526 67.90987 
L 366.747632 74.270928 
L 378.194737 82.080506 
L 389.641842 88.962821 
L 401.088947 96.927043 
L 412.536053 103.614356 
L 423.983158 111.281504 
L 435.430263 117.882976 
L 446.877368 124.292233 
L 458.324474 129.569922 
L 469.771579 135.002644 
L 481.218684 139.827089 
L 492.665789 144.784829 
L 504.112895 148.550053 
L 515.56 153.026679 
L 515.56 140.894183 
L 515.56 140.894183 
L 504.112895 136.670272 
L 492.665789 132.248242 
L 481.218684 127.164427 
L 469.771579 122.297176 
L 458.324474 116.609323 
L 446.877368 111.024264 
L 435.430263 104.668366 
L 423.983158 98.494219 
L 412.536053 92.122372 
L 401.088947 86.120296 
L 389.641842 80.218089 
L 378.194737 73.60784 
L 366.747632 67.553718 
L 355.300526 62.240979 
L 343.853421 57.127542 
L 332.406316 52.732336 
L 320.959211 49.687077 
L 309.512105 47.169699 
L 298.065 46.374964 
z
" clip-path="url(#p2d8ec70a3a)" style="fill: #e377c2; fill-opacity: 0.4"/>
   </g>
   <g id="PolyCollection_16">
    <path d="M 298.065 33.582653 
L 298.065 34.948855 
L 309.512105 35.819457 
L 320.959211 38.866823 
L 332.406316 43.425566 
L 343.853421 49.10473 
L 355.300526 56.320295 
L 366.747632 63.403199 
L 378.194737 71.836804 
L 389.641842 79.454097 
L 401.088947 87.818989 
L 412.536053 95.352792 
L 423.983158 103.344321 
L 435.430263 110.577294 
L 446.877368 117.426796 
L 458.324474 123.060891 
L 469.771579 128.683255 
L 481.218684 133.997499 
L 492.665789 139.117964 
L 504.112895 143.286545 
L 515.56 148.134328 
L 515.56 136.455649 
L 515.56 136.455649 
L 504.112895 132.006885 
L 492.665789 126.950635 
L 481.218684 121.513489 
L 469.771579 116.038661 
L 458.324474 110.135151 
L 446.877368 103.810957 
L 435.430263 96.996955 
L 423.983158 90.363057 
L 412.536053 83.489367 
L 401.088947 77.002091 
L 389.641842 70.620149 
L 378.194737 63.612737 
L 366.747632 56.892821 
L 355.300526 51.010431 
L 343.853421 45.455893 
L 332.406316 40.782283 
L 320.959211 37.348838 
L 309.512105 34.769636 
L 298.065 33.582653 
z
" clip-path="url(#p2d8ec70a3a)" style="fill: #7f7f7f; fill-opacity: 0.4"/>
   </g>
   <g id="matplotlib.axis_3">
    <g id="xtick_6">
     <g id="line2d_17">
      <g>
       <use xlink:href="#m7d8742ebea" x="298.065" y="174.04" style="stroke: #000000; stroke-width: 0.8"/>
      </g>
     </g>
     <g id="text_12">
      <!-- 0.0 -->
      <g transform="translate(290.113437 188.638438)scale(0.1 -0.1)">
       <use xlink:href="#DejaVuSans-30"/>
       <use xlink:href="#DejaVuSans-2e" x="63.623047"/>
       <use xlink:href="#DejaVuSans-30" x="95.410156"/>
      </g>
     </g>
    </g>
    <g id="xtick_7">
     <g id="line2d_18">
      <g>
       <use xlink:href="#m7d8742ebea" x="352.43875" y="174.04" style="stroke: #000000; stroke-width: 0.8"/>
      </g>
     </g>
     <g id="text_13">
      <!-- 0.5 -->
      <g transform="translate(344.487187 188.638438)scale(0.1 -0.1)">
       <use xlink:href="#DejaVuSans-30"/>
       <use xlink:href="#DejaVuSans-2e" x="63.623047"/>
       <use xlink:href="#DejaVuSans-35" x="95.410156"/>
      </g>
     </g>
    </g>
    <g id="xtick_8">
     <g id="line2d_19">
      <g>
       <use xlink:href="#m7d8742ebea" x="406.8125" y="174.04" style="stroke: #000000; stroke-width: 0.8"/>
      </g>
     </g>
     <g id="text_14">
      <!-- 1.0 -->
      <g transform="translate(398.860937 188.638438)scale(0.1 -0.1)">
       <use xlink:href="#DejaVuSans-31"/>
       <use xlink:href="#DejaVuSans-2e" x="63.623047"/>
       <use xlink:href="#DejaVuSans-30" x="95.410156"/>
      </g>
     </g>
    </g>
    <g id="xtick_9">
     <g id="line2d_20">
      <g>
       <use xlink:href="#m7d8742ebea" x="461.18625" y="174.04" style="stroke: #000000; stroke-width: 0.8"/>
      </g>
     </g>
     <g id="text_15">
      <!-- 1.5 -->
      <g transform="translate(453.234687 188.638438)scale(0.1 -0.1)">
       <use xlink:href="#DejaVuSans-31"/>
       <use xlink:href="#DejaVuSans-2e" x="63.623047"/>
       <use xlink:href="#DejaVuSans-35" x="95.410156"/>
      </g>
     </g>
    </g>
    <g id="xtick_10">
     <g id="line2d_21">
      <g>
       <use xlink:href="#m7d8742ebea" x="515.56" y="174.04" style="stroke: #000000; stroke-width: 0.8"/>
      </g>
     </g>
     <g id="text_16">
      <!-- 2.0 -->
      <g transform="translate(507.608437 188.638438)scale(0.1 -0.1)">
       <use xlink:href="#DejaVuSans-32"/>
       <use xlink:href="#DejaVuSans-2e" x="63.623047"/>
       <use xlink:href="#DejaVuSans-30" x="95.410156"/>
      </g>
     </g>
    </g>
    <g id="text_17">
     <!-- Influence of surprisal (multiplication) -->
     <g transform="translate(314.665625 202.316563)scale(0.1 -0.1)">
      <use xlink:href="#DejaVuSans-49"/>
      <use xlink:href="#DejaVuSans-6e" x="29.492188"/>
      <use xlink:href="#DejaVuSans-66" x="92.871094"/>
      <use xlink:href="#DejaVuSans-6c" x="128.076172"/>
      <use xlink:href="#DejaVuSans-75" x="155.859375"/>
      <use xlink:href="#DejaVuSans-65" x="219.238281"/>
      <use xlink:href="#DejaVuSans-6e" x="280.761719"/>
      <use xlink:href="#DejaVuSans-63" x="344.140625"/>
      <use xlink:href="#DejaVuSans-65" x="399.121094"/>
      <use xlink:href="#DejaVuSans-20" x="460.644531"/>
      <use xlink:href="#DejaVuSans-6f" x="492.431641"/>
      <use xlink:href="#DejaVuSans-66" x="553.613281"/>
      <use xlink:href="#DejaVuSans-20" x="588.818359"/>
      <use xlink:href="#DejaVuSans-73" x="620.605469"/>
      <use xlink:href="#DejaVuSans-75" x="672.705078"/>
      <use xlink:href="#DejaVuSans-72" x="736.083984"/>
      <use xlink:href="#DejaVuSans-70" x="777.197266"/>
      <use xlink:href="#DejaVuSans-72" x="840.673828"/>
      <use xlink:href="#DejaVuSans-69" x="881.787109"/>
      <use xlink:href="#DejaVuSans-73" x="909.570312"/>
      <use xlink:href="#DejaVuSans-61" x="961.669922"/>
      <use xlink:href="#DejaVuSans-6c" x="1022.949219"/>
      <use xlink:href="#DejaVuSans-20" x="1050.732422"/>
      <use xlink:href="#DejaVuSans-28" x="1082.519531"/>
      <use xlink:href="#DejaVuSans-6d" x="1121.533203"/>
      <use xlink:href="#DejaVuSans-75" x="1218.945312"/>
      <use xlink:href="#DejaVuSans-6c" x="1282.324219"/>
      <use xlink:href="#DejaVuSans-74" x="1310.107422"/>
      <use xlink:href="#DejaVuSans-69" x="1349.316406"/>
      <use xlink:href="#DejaVuSans-70" x="1377.099609"/>
      <use xlink:href="#DejaVuSans-6c" x="1440.576172"/>
      <use xlink:href="#DejaVuSans-69" x="1468.359375"/>
      <use xlink:href="#DejaVuSans-63" x="1496.142578"/>
      <use xlink:href="#DejaVuSans-61" x="1551.123047"/>
      <use xlink:href="#DejaVuSans-74" x="1612.402344"/>
      <use xlink:href="#DejaVuSans-69" x="1651.611328"/>
      <use xlink:href="#DejaVuSans-6f" x="1679.394531"/>
      <use xlink:href="#DejaVuSans-6e" x="1740.576172"/>
      <use xlink:href="#DejaVuSans-29" x="1803.955078"/>
     </g>
    </g>
   </g>
   <g id="line2d_22">
    <path d="M 298.065 34.247292 
L 309.512105 35.259906 
L 320.959211 38.053852 
L 332.406316 42.012072 
L 343.853421 47.120505 
L 355.300526 53.486052 
L 366.747632 59.9208 
L 378.194737 67.45229 
L 389.641842 74.740462 
L 401.088947 82.072952 
L 412.536053 89.027658 
L 423.983158 96.443406 
L 435.430263 103.339705 
L 446.877368 110.190036 
L 458.324474 116.151218 
L 469.771579 121.918636 
L 481.218684 127.295906 
L 492.665789 132.593702 
L 504.112895 137.184382 
L 515.56 141.757387 
" clip-path="url(#p2d8ec70a3a)" style="fill: none; stroke: #1f77b4; stroke-width: 1.5; stroke-linecap: square"/>
   </g>
   <g id="line2d_23">
    <path d="M 298.065 34.257573 
L 309.512105 35.276593 
L 320.959211 38.086474 
L 332.406316 42.057176 
L 343.853421 47.184128 
L 355.300526 53.563554 
L 366.747632 60.041108 
L 378.194737 67.570547 
L 389.641842 74.88222 
L 401.088947 82.245445 
L 412.536053 89.240893 
L 423.983158 96.665753 
L 435.430263 103.562284 
L 446.877368 110.406369 
L 458.324474 116.38922 
L 469.771579 122.167657 
L 481.218684 127.567792 
L 492.665789 132.851139 
L 504.112895 137.432607 
L 515.56 142.001902 
" clip-path="url(#p2d8ec70a3a)" style="fill: none; stroke: #ff7f0e; stroke-width: 1.5; stroke-linecap: square"/>
   </g>
   <g id="line2d_24">
    <path d="M 298.065 34.261704 
L 309.512105 35.281429 
L 320.959211 38.081094 
L 332.406316 42.027908 
L 343.853421 47.167052 
L 355.300526 53.549158 
L 366.747632 60.011838 
L 378.194737 67.547484 
L 389.641842 74.841996 
L 401.088947 82.169903 
L 412.536053 89.141187 
L 423.983158 96.579113 
L 435.430263 103.478421 
L 446.877368 110.321311 
L 458.324474 116.263059 
L 469.771579 122.032581 
L 481.218684 127.422428 
L 492.665789 132.681444 
L 504.112895 137.283261 
L 515.56 141.90531 
" clip-path="url(#p2d8ec70a3a)" style="fill: none; stroke: #2ca02c; stroke-width: 1.5; stroke-linecap: square"/>
   </g>
   <g id="line2d_25">
    <path d="M 298.065 34.273301 
L 309.512105 35.300542 
L 320.959211 38.110673 
L 332.406316 42.062782 
L 343.853421 47.225013 
L 355.300526 53.597247 
L 366.747632 60.093445 
L 378.194737 67.632287 
L 389.641842 74.917942 
L 401.088947 82.267947 
L 412.536053 89.258756 
L 423.983158 96.658176 
L 435.430263 103.577597 
L 446.877368 110.396072 
L 458.324474 116.327309 
L 469.771579 122.104696 
L 481.218684 127.518779 
L 492.665789 132.776897 
L 504.112895 137.335974 
L 515.56 141.96008 
" clip-path="url(#p2d8ec70a3a)" style="fill: none; stroke: #d62728; stroke-width: 1.5; stroke-linecap: square"/>
   </g>
   <g id="line2d_26">
    <path d="M 298.065 34.267172 
L 309.512105 35.287714 
L 320.959211 38.090199 
L 332.406316 42.03468 
L 343.853421 47.164144 
L 355.300526 53.523305 
L 366.747632 60.025799 
L 378.194737 67.522049 
L 389.641842 74.94002 
L 401.088947 82.099891 
L 412.536053 89.341688 
L 423.983158 96.687063 
L 435.430263 103.367882 
L 446.877368 110.361488 
L 458.324474 116.523975 
L 469.771579 121.987633 
L 481.218684 127.603076 
L 492.665789 132.62957 
L 504.112895 136.982126 
L 515.56 141.971473 
" clip-path="url(#p2d8ec70a3a)" style="fill: none; stroke: #9467bd; stroke-width: 1.5; stroke-linecap: square"/>
   </g>
   <g id="line2d_27">
    <path d="M 298.065 34.277987 
L 309.512105 35.304489 
L 320.959211 38.123633 
L 332.406316 42.080037 
L 343.853421 47.22498 
L 355.300526 53.603128 
L 366.747632 60.140454 
L 378.194737 67.639807 
L 389.641842 75.078191 
L 401.088947 82.270056 
L 412.536053 89.557505 
L 423.983158 96.916683 
L 435.430263 103.58735 
L 446.877368 110.565136 
L 458.324474 116.741363 
L 469.771579 122.222698 
L 481.218684 127.883839 
L 492.665789 132.889129 
L 504.112895 137.208203 
L 515.56 142.215097 
" clip-path="url(#p2d8ec70a3a)" style="fill: none; stroke: #8c564b; stroke-width: 1.5; stroke-linecap: square"/>
   </g>
   <g id="line2d_28">
    <path d="M 298.065 47.898027 
L 309.512105 48.776823 
L 320.959211 51.17929 
L 332.406316 54.752772 
L 343.853421 59.300622 
L 355.300526 65.075424 
L 366.747632 70.912323 
L 378.194737 77.844173 
L 389.641842 84.590455 
L 401.088947 91.523669 
L 412.536053 97.868364 
L 423.983158 104.887862 
L 435.430263 111.275671 
L 446.877368 117.658249 
L 458.324474 123.089622 
L 469.771579 128.64991 
L 481.218684 133.495758 
L 492.665789 138.516535 
L 504.112895 142.610162 
L 515.56 146.960431 
" clip-path="url(#p2d8ec70a3a)" style="fill: none; stroke: #e377c2; stroke-width: 1.5; stroke-linecap: square"/>
   </g>
   <g id="line2d_29">
    <path d="M 298.065 34.265754 
L 309.512105 35.294546 
L 320.959211 38.10783 
L 332.406316 42.103925 
L 343.853421 47.280312 
L 355.300526 53.665363 
L 366.747632 60.14801 
L 378.194737 67.72477 
L 389.641842 75.037123 
L 401.088947 82.41054 
L 412.536053 89.42108 
L 423.983158 96.853689 
L 435.430263 103.787125 
L 446.877368 110.618877 
L 458.324474 116.598021 
L 469.771579 122.360958 
L 481.218684 127.755494 
L 492.665789 133.0343 
L 504.112895 137.646715 
L 515.56 142.294988 
" clip-path="url(#p2d8ec70a3a)" style="fill: none; stroke: #7f7f7f; stroke-width: 1.5; stroke-linecap: square"/>
   </g>
   <g id="patch_6">
    <path d="M 298.065 174.04 
L 298.065 26.88 
" style="fill: none; stroke: #000000; stroke-width: 0.8; stroke-linejoin: miter; stroke-linecap: square"/>
   </g>
   <g id="patch_7">
    <path d="M 298.065 174.04 
L 515.56 174.04 
" style="fill: none; stroke: #000000; stroke-width: 0.8; stroke-linejoin: miter; stroke-linecap: square"/>
   </g>
   <g id="text_18">
    <!-- Node * third variable -->
    <g transform="translate(344.2325 20.88)scale(0.12 -0.12)">
     <defs>
      <path id="DejaVuSans-68" d="M 3513 2113 
L 3513 0 
L 2938 0 
L 2938 2094 
Q 2938 2591 2744 2837 
Q 2550 3084 2163 3084 
Q 1697 3084 1428 2787 
Q 1159 2491 1159 1978 
L 1159 0 
L 581 0 
L 581 4863 
L 1159 4863 
L 1159 2956 
Q 1366 3272 1645 3428 
Q 1925 3584 2291 3584 
Q 2894 3584 3203 3211 
Q 3513 2838 3513 2113 
z
" transform="scale(0.015625)"/>
      <path id="DejaVuSans-62" d="M 3116 1747 
Q 3116 2381 2855 2742 
Q 2594 3103 2138 3103 
Q 1681 3103 1420 2742 
Q 1159 2381 1159 1747 
Q 1159 1113 1420 752 
Q 1681 391 2138 391 
Q 2594 391 2855 752 
Q 3116 1113 3116 1747 
z
M 1159 2969 
Q 1341 3281 1617 3432 
Q 1894 3584 2278 3584 
Q 2916 3584 3314 3078 
Q 3713 2572 3713 1747 
Q 3713 922 3314 415 
Q 2916 -91 2278 -91 
Q 1894 -91 1617 61 
Q 1341 213 1159 525 
L 1159 0 
L 581 0 
L 581 4863 
L 1159 4863 
L 1159 2969 
z
" transform="scale(0.015625)"/>
     </defs>
     <use xlink:href="#DejaVuSans-4e"/>
     <use xlink:href="#DejaVuSans-6f" x="74.804688"/>
     <use xlink:href="#DejaVuSans-64" x="135.986328"/>
     <use xlink:href="#DejaVuSans-65" x="199.462891"/>
     <use xlink:href="#DejaVuSans-20" x="260.986328"/>
     <use xlink:href="#DejaVuSans-2a" x="292.773438"/>
     <use xlink:href="#DejaVuSans-20" x="342.773438"/>
     <use xlink:href="#DejaVuSans-74" x="374.560547"/>
     <use xlink:href="#DejaVuSans-68" x="413.769531"/>
     <use xlink:href="#DejaVuSans-69" x="477.148438"/>
     <use xlink:href="#DejaVuSans-72" x="504.931641"/>
     <use xlink:href="#DejaVuSans-64" x="544.294922"/>
     <use xlink:href="#DejaVuSans-20" x="607.771484"/>
     <use xlink:href="#DejaVuSans-76" x="639.558594"/>
     <use xlink:href="#DejaVuSans-61" x="698.738281"/>
     <use xlink:href="#DejaVuSans-72" x="760.017578"/>
     <use xlink:href="#DejaVuSans-69" x="801.130859"/>
     <use xlink:href="#DejaVuSans-61" x="828.914062"/>
     <use xlink:href="#DejaVuSans-62" x="890.193359"/>
     <use xlink:href="#DejaVuSans-6c" x="953.669922"/>
     <use xlink:href="#DejaVuSans-65" x="981.453125"/>
    </g>
   </g>
   <g id="legend_1">
    <g id="line2d_30">
     <path d="M 524.56 39.978437 
L 534.56 39.978437 
L 544.56 39.978437 
" style="fill: none; stroke: #1f77b4; stroke-width: 1.5; stroke-linecap: square"/>
    </g>
    <g id="text_19">
     <!-- Node -->
     <g transform="translate(552.56 43.478437)scale(0.1 -0.1)">
      <use xlink:href="#DejaVuSans-4e"/>
      <use xlink:href="#DejaVuSans-6f" x="74.804688"/>
      <use xlink:href="#DejaVuSans-64" x="135.986328"/>
      <use xlink:href="#DejaVuSans-65" x="199.462891"/>
     </g>
    </g>
    <g id="line2d_31">
     <path d="M 524.56 54.656563 
L 534.56 54.656563 
L 544.56 54.656563 
" style="fill: none; stroke: #ff7f0e; stroke-width: 1.5; stroke-linecap: square"/>
    </g>
    <g id="text_20">
     <!-- Node + surprisal -->
     <g transform="translate(552.56 58.156563)scale(0.1 -0.1)">
      <defs>
       <path id="DejaVuSans-2b" d="M 2944 4013 
L 2944 2272 
L 4684 2272 
L 4684 1741 
L 2944 1741 
L 2944 0 
L 2419 0 
L 2419 1741 
L 678 1741 
L 678 2272 
L 2419 2272 
L 2419 4013 
L 2944 4013 
z
" transform="scale(0.015625)"/>
      </defs>
      <use xlink:href="#DejaVuSans-4e"/>
      <use xlink:href="#DejaVuSans-6f" x="74.804688"/>
      <use xlink:href="#DejaVuSans-64" x="135.986328"/>
      <use xlink:href="#DejaVuSans-65" x="199.462891"/>
      <use xlink:href="#DejaVuSans-20" x="260.986328"/>
      <use xlink:href="#DejaVuSans-2b" x="292.773438"/>
      <use xlink:href="#DejaVuSans-20" x="376.5625"/>
      <use xlink:href="#DejaVuSans-73" x="408.349609"/>
      <use xlink:href="#DejaVuSans-75" x="460.449219"/>
      <use xlink:href="#DejaVuSans-72" x="523.828125"/>
      <use xlink:href="#DejaVuSans-70" x="564.941406"/>
      <use xlink:href="#DejaVuSans-72" x="628.417969"/>
      <use xlink:href="#DejaVuSans-69" x="669.53125"/>
      <use xlink:href="#DejaVuSans-73" x="697.314453"/>
      <use xlink:href="#DejaVuSans-61" x="749.414062"/>
      <use xlink:href="#DejaVuSans-6c" x="810.693359"/>
     </g>
    </g>
    <g id="line2d_32">
     <path d="M 524.56 69.334687 
L 534.56 69.334687 
L 544.56 69.334687 
" style="fill: none; stroke: #2ca02c; stroke-width: 1.5; stroke-linecap: square"/>
    </g>
    <g id="text_21">
     <!-- Node split -->
     <g transform="translate(552.56 72.834687)scale(0.1 -0.1)">
      <use xlink:href="#DejaVuSans-4e"/>
      <use xlink:href="#DejaVuSans-6f" x="74.804688"/>
      <use xlink:href="#DejaVuSans-64" x="135.986328"/>
      <use xlink:href="#DejaVuSans-65" x="199.462891"/>
      <use xlink:href="#DejaVuSans-20" x="260.986328"/>
      <use xlink:href="#DejaVuSans-73" x="292.773438"/>
      <use xlink:href="#DejaVuSans-70" x="344.873047"/>
      <use xlink:href="#DejaVuSans-6c" x="408.349609"/>
      <use xlink:href="#DejaVuSans-69" x="436.132812"/>
      <use xlink:href="#DejaVuSans-74" x="463.916016"/>
     </g>
    </g>
    <g id="line2d_33">
     <path d="M 524.56 84.012812 
L 534.56 84.012812 
L 544.56 84.012812 
" style="fill: none; stroke: #d62728; stroke-width: 1.5; stroke-linecap: square"/>
    </g>
    <g id="text_22">
     <!-- Node split + surprisal -->
     <g transform="translate(552.56 87.512812)scale(0.1 -0.1)">
      <use xlink:href="#DejaVuSans-4e"/>
      <use xlink:href="#DejaVuSans-6f" x="74.804688"/>
      <use xlink:href="#DejaVuSans-64" x="135.986328"/>
      <use xlink:href="#DejaVuSans-65" x="199.462891"/>
      <use xlink:href="#DejaVuSans-20" x="260.986328"/>
      <use xlink:href="#DejaVuSans-73" x="292.773438"/>
      <use xlink:href="#DejaVuSans-70" x="344.873047"/>
      <use xlink:href="#DejaVuSans-6c" x="408.349609"/>
      <use xlink:href="#DejaVuSans-69" x="436.132812"/>
      <use xlink:href="#DejaVuSans-74" x="463.916016"/>
      <use xlink:href="#DejaVuSans-20" x="503.125"/>
      <use xlink:href="#DejaVuSans-2b" x="534.912109"/>
      <use xlink:href="#DejaVuSans-20" x="618.701172"/>
      <use xlink:href="#DejaVuSans-73" x="650.488281"/>
      <use xlink:href="#DejaVuSans-75" x="702.587891"/>
      <use xlink:href="#DejaVuSans-72" x="765.966797"/>
      <use xlink:href="#DejaVuSans-70" x="807.080078"/>
      <use xlink:href="#DejaVuSans-72" x="870.556641"/>
      <use xlink:href="#DejaVuSans-69" x="911.669922"/>
      <use xlink:href="#DejaVuSans-73" x="939.453125"/>
      <use xlink:href="#DejaVuSans-61" x="991.552734"/>
      <use xlink:href="#DejaVuSans-6c" x="1052.832031"/>
     </g>
    </g>
    <g id="line2d_34">
     <path d="M 524.56 98.690937 
L 534.56 98.690937 
L 544.56 98.690937 
" style="fill: none; stroke: #9467bd; stroke-width: 1.5; stroke-linecap: square"/>
    </g>
    <g id="text_23">
     <!-- Node random split -->
     <g transform="translate(552.56 102.190937)scale(0.1 -0.1)">
      <use xlink:href="#DejaVuSans-4e"/>
      <use xlink:href="#DejaVuSans-6f" x="74.804688"/>
      <use xlink:href="#DejaVuSans-64" x="135.986328"/>
      <use xlink:href="#DejaVuSans-65" x="199.462891"/>
      <use xlink:href="#DejaVuSans-20" x="260.986328"/>
      <use xlink:href="#DejaVuSans-72" x="292.773438"/>
      <use xlink:href="#DejaVuSans-61" x="333.886719"/>
      <use xlink:href="#DejaVuSans-6e" x="395.166016"/>
      <use xlink:href="#DejaVuSans-64" x="458.544922"/>
      <use xlink:href="#DejaVuSans-6f" x="522.021484"/>
      <use xlink:href="#DejaVuSans-6d" x="583.203125"/>
      <use xlink:href="#DejaVuSans-20" x="680.615234"/>
      <use xlink:href="#DejaVuSans-73" x="712.402344"/>
      <use xlink:href="#DejaVuSans-70" x="764.501953"/>
      <use xlink:href="#DejaVuSans-6c" x="827.978516"/>
      <use xlink:href="#DejaVuSans-69" x="855.761719"/>
      <use xlink:href="#DejaVuSans-74" x="883.544922"/>
     </g>
    </g>
    <g id="line2d_35">
     <path d="M 524.56 113.369062 
L 534.56 113.369062 
L 544.56 113.369062 
" style="fill: none; stroke: #8c564b; stroke-width: 1.5; stroke-linecap: square"/>
    </g>
    <g id="text_24">
     <!-- Node random split + surprisal -->
     <g transform="translate(552.56 116.869062)scale(0.1 -0.1)">
      <use xlink:href="#DejaVuSans-4e"/>
      <use xlink:href="#DejaVuSans-6f" x="74.804688"/>
      <use xlink:href="#DejaVuSans-64" x="135.986328"/>
      <use xlink:href="#DejaVuSans-65" x="199.462891"/>
      <use xlink:href="#DejaVuSans-20" x="260.986328"/>
      <use xlink:href="#DejaVuSans-72" x="292.773438"/>
      <use xlink:href="#DejaVuSans-61" x="333.886719"/>
      <use xlink:href="#DejaVuSans-6e" x="395.166016"/>
      <use xlink:href="#DejaVuSans-64" x="458.544922"/>
      <use xlink:href="#DejaVuSans-6f" x="522.021484"/>
      <use xlink:href="#DejaVuSans-6d" x="583.203125"/>
      <use xlink:href="#DejaVuSans-20" x="680.615234"/>
      <use xlink:href="#DejaVuSans-73" x="712.402344"/>
      <use xlink:href="#DejaVuSans-70" x="764.501953"/>
      <use xlink:href="#DejaVuSans-6c" x="827.978516"/>
      <use xlink:href="#DejaVuSans-69" x="855.761719"/>
      <use xlink:href="#DejaVuSans-74" x="883.544922"/>
      <use xlink:href="#DejaVuSans-20" x="922.753906"/>
      <use xlink:href="#DejaVuSans-2b" x="954.541016"/>
      <use xlink:href="#DejaVuSans-20" x="1038.330078"/>
      <use xlink:href="#DejaVuSans-73" x="1070.117188"/>
      <use xlink:href="#DejaVuSans-75" x="1122.216797"/>
      <use xlink:href="#DejaVuSans-72" x="1185.595703"/>
      <use xlink:href="#DejaVuSans-70" x="1226.708984"/>
      <use xlink:href="#DejaVuSans-72" x="1290.185547"/>
      <use xlink:href="#DejaVuSans-69" x="1331.298828"/>
      <use xlink:href="#DejaVuSans-73" x="1359.082031"/>
      <use xlink:href="#DejaVuSans-61" x="1411.181641"/>
      <use xlink:href="#DejaVuSans-6c" x="1472.460938"/>
     </g>
    </g>
    <g id="line2d_36">
     <path d="M 524.56 128.047187 
L 534.56 128.047187 
L 544.56 128.047187 
" style="fill: none; stroke: #e377c2; stroke-width: 1.5; stroke-linecap: square"/>
    </g>
    <g id="text_25">
     <!-- Interaction -->
     <g transform="translate(552.56 131.547187)scale(0.1 -0.1)">
      <use xlink:href="#DejaVuSans-49"/>
      <use xlink:href="#DejaVuSans-6e" x="29.492188"/>
      <use xlink:href="#DejaVuSans-74" x="92.871094"/>
      <use xlink:href="#DejaVuSans-65" x="132.080078"/>
      <use xlink:href="#DejaVuSans-72" x="193.603516"/>
      <use xlink:href="#DejaVuSans-61" x="234.716797"/>
      <use xlink:href="#DejaVuSans-63" x="295.996094"/>
      <use xlink:href="#DejaVuSans-74" x="350.976562"/>
      <use xlink:href="#DejaVuSans-69" x="390.185547"/>
      <use xlink:href="#DejaVuSans-6f" x="417.96875"/>
      <use xlink:href="#DejaVuSans-6e" x="479.150391"/>
     </g>
    </g>
    <g id="line2d_37">
     <path d="M 524.56 142.725312 
L 534.56 142.725312 
L 544.56 142.725312 
" style="fill: none; stroke: #7f7f7f; stroke-width: 1.5; stroke-linecap: square"/>
    </g>
    <g id="text_26">
     <!-- Node + surprisal + interaction -->
     <g transform="translate(552.56 146.225312)scale(0.1 -0.1)">
      <use xlink:href="#DejaVuSans-4e"/>
      <use xlink:href="#DejaVuSans-6f" x="74.804688"/>
      <use xlink:href="#DejaVuSans-64" x="135.986328"/>
      <use xlink:href="#DejaVuSans-65" x="199.462891"/>
      <use xlink:href="#DejaVuSans-20" x="260.986328"/>
      <use xlink:href="#DejaVuSans-2b" x="292.773438"/>
      <use xlink:href="#DejaVuSans-20" x="376.5625"/>
      <use xlink:href="#DejaVuSans-73" x="408.349609"/>
      <use xlink:href="#DejaVuSans-75" x="460.449219"/>
      <use xlink:href="#DejaVuSans-72" x="523.828125"/>
      <use xlink:href="#DejaVuSans-70" x="564.941406"/>
      <use xlink:href="#DejaVuSans-72" x="628.417969"/>
      <use xlink:href="#DejaVuSans-69" x="669.53125"/>
      <use xlink:href="#DejaVuSans-73" x="697.314453"/>
      <use xlink:href="#DejaVuSans-61" x="749.414062"/>
      <use xlink:href="#DejaVuSans-6c" x="810.693359"/>
      <use xlink:href="#DejaVuSans-20" x="838.476562"/>
      <use xlink:href="#DejaVuSans-2b" x="870.263672"/>
      <use xlink:href="#DejaVuSans-20" x="954.052734"/>
      <use xlink:href="#DejaVuSans-69" x="985.839844"/>
      <use xlink:href="#DejaVuSans-6e" x="1013.623047"/>
      <use xlink:href="#DejaVuSans-74" x="1077.001953"/>
      <use xlink:href="#DejaVuSans-65" x="1116.210938"/>
      <use xlink:href="#DejaVuSans-72" x="1177.734375"/>
      <use xlink:href="#DejaVuSans-61" x="1218.847656"/>
      <use xlink:href="#DejaVuSans-63" x="1280.126953"/>
      <use xlink:href="#DejaVuSans-74" x="1335.107422"/>
      <use xlink:href="#DejaVuSans-69" x="1374.316406"/>
      <use xlink:href="#DejaVuSans-6f" x="1402.099609"/>
      <use xlink:href="#DejaVuSans-6e" x="1463.28125"/>
     </g>
    </g>
   </g>
  </g>
 </g>
 <defs>
  <clipPath id="pedd30db8dc">
   <rect x="47.72" y="26.88" width="217.495" height="147.16"/>
  </clipPath>
  <clipPath id="p2d8ec70a3a">
   <rect x="298.065" y="26.88" width="217.495" height="147.16"/>
  </clipPath>
 </defs>
</svg>
