<?xml version="1.0" encoding="utf-8" standalone="no"?>
<!DOCTYPE svg PUBLIC "-//W3C//DTD SVG 1.1//EN"
  "http://www.w3.org/Graphics/SVG/1.1/DTD/svg11.dtd">
<svg xmlns:xlink="http://www.w3.org/1999/xlink" width="720pt" height="216pt" viewBox="0 0 720 216" xmlns="http://www.w3.org/2000/svg" version="1.1">
 <metadata>
  <rdf:RDF xmlns:dc="http://purl.org/dc/elements/1.1/" xmlns:cc="http://creativecommons.org/ns#" xmlns:rdf="http://www.w3.org/1999/02/22-rdf-syntax-ns#">
   <cc:Work>
    <dc:type rdf:resource="http://purl.org/dc/dcmitype/StillImage"/>
    <dc:date>2024-01-15T23:59:41.719395</dc:date>
    <dc:format>image/svg+xml</dc:format>
    <dc:creator>
     <cc:Agent>
      <dc:title>Matplotlib v3.5.1, https://matplotlib.org/</dc:title>
     </cc:Agent>
    </dc:creator>
   </cc:Work>
  </rdf:RDF>
 </metadata>
 <defs>
  <style type="text/css">*{stroke-linejoin: round; stroke-linecap: butt}</style>
 </defs>
 <g id="figure_1">
  <g id="patch_1">
   <path d="M 0 216 
L 720 216 
L 720 0 
L 0 0 
z
" style="fill: #ffffff"/>
  </g>
  <g id="axes_1">
   <g id="patch_2">
    <path d="M 47.72 174.04 
L 265.215 174.04 
L 265.215 26.88 
L 47.72 26.88 
z
" style="fill: #ffffff"/>
   </g>
   <g id="PolyCollection_1">
    <path d="M 47.72 33.65122 
L 47.72 34.190316 
L 59.167105 35.101764 
L 70.614211 38.436259 
L 82.061316 43.151284 
L 93.508421 49.26197 
L 104.955526 56.127276 
L 116.402632 64.206369 
L 127.849737 71.404124 
L 139.296842 79.922509 
L 150.743947 88.318136 
L 162.191053 95.692694 
L 173.638158 102.757595 
L 185.085263 109.993295 
L 196.532368 117.328077 
L 207.979474 123.795563 
L 219.426579 129.962735 
L 230.873684 135.469254 
L 242.320789 141.656126 
L 253.767895 146.288542 
L 265.215 151.335469 
L 265.215 138.952892 
L 265.215 138.952892 
L 253.767895 134.201067 
L 242.320789 128.930077 
L 230.873684 123.660688 
L 219.426579 117.18731 
L 207.979474 111.010671 
L 196.532368 104.044504 
L 185.085263 97.726918 
L 173.638158 91.052778 
L 162.191053 83.502358 
L 150.743947 76.778508 
L 139.296842 69.558624 
L 127.849737 62.791928 
L 116.402632 56.308183 
L 104.955526 50.815063 
L 93.508421 45.22779 
L 82.061316 40.52284 
L 70.614211 36.855034 
L 59.167105 34.359189 
L 47.72 33.65122 
z
" clip-path="url(#p1cbd1a8dee)" style="fill: #1f77b4; fill-opacity: 0.4"/>
   </g>
   <g id="PolyCollection_2">
    <path d="M 47.72 33.659109 
L 47.72 34.200678 
L 59.167105 34.720176 
L 70.614211 36.526874 
L 82.061316 39.326637 
L 93.508421 43.338355 
L 104.955526 47.960109 
L 116.402632 53.393887 
L 127.849737 58.793483 
L 139.296842 64.543605 
L 150.743947 71.396972 
L 162.191053 77.72625 
L 173.638158 84.16041 
L 185.085263 90.776138 
L 196.532368 97.186417 
L 207.979474 103.581115 
L 219.426579 109.844104 
L 230.873684 115.55836 
L 242.320789 121.855786 
L 253.767895 126.716994 
L 265.215 132.113875 
L 265.215 121.808716 
L 265.215 121.808716 
L 253.767895 117.216832 
L 242.320789 112.145466 
L 230.873684 106.993197 
L 219.426579 100.972303 
L 207.979474 95.437775 
L 196.532368 89.021402 
L 185.085263 83.05075 
L 173.638158 76.734161 
L 162.191053 69.895977 
L 150.743947 64.367459 
L 139.296842 58.23513 
L 127.849737 52.317326 
L 116.402632 47.619426 
L 104.955526 43.470719 
L 93.508421 40.081893 
L 82.061316 37.253121 
L 70.614211 35.321108 
L 59.167105 34.019863 
L 47.72 33.659109 
z
" clip-path="url(#p1cbd1a8dee)" style="fill: #ff7f0e; fill-opacity: 0.4"/>
   </g>
   <g id="PolyCollection_3">
    <path d="M 47.72 33.664837 
L 47.72 34.199974 
L 59.167105 34.833892 
L 70.614211 36.500109 
L 82.061316 38.754661 
L 93.508421 41.473604 
L 104.955526 44.583666 
L 116.402632 48.247408 
L 127.849737 51.42034 
L 139.296842 55.515026 
L 150.743947 59.422783 
L 162.191053 63.299852 
L 173.638158 66.701614 
L 185.085263 70.205916 
L 196.532368 74.360577 
L 207.979474 78.414568 
L 219.426579 81.578021 
L 230.873684 85.45158 
L 242.320789 89.476931 
L 253.767895 93.32019 
L 265.215 96.968044 
L 265.215 85.184201 
L 265.215 85.184201 
L 253.767895 81.850942 
L 242.320789 78.887914 
L 230.873684 75.312592 
L 219.426579 71.528404 
L 207.979474 68.334972 
L 196.532368 64.906026 
L 185.085263 61.985615 
L 173.638158 58.895446 
L 162.191053 55.048431 
L 150.743947 52.140976 
L 139.296842 48.903495 
L 127.849737 45.977066 
L 116.402632 43.333813 
L 104.955526 40.972269 
L 93.508421 38.714046 
L 82.061316 36.585951 
L 70.614211 35.333752 
L 59.167105 34.138039 
L 47.72 33.664837 
z
" clip-path="url(#p1cbd1a8dee)" style="fill: #2ca02c; fill-opacity: 0.4"/>
   </g>
   <g id="PolyCollection_4">
    <path d="M 47.72 33.677291 
L 47.72 34.205115 
L 59.167105 34.682711 
L 70.614211 35.924261 
L 82.061316 37.659673 
L 93.508421 40.052978 
L 104.955526 42.732852 
L 116.402632 46.032934 
L 127.849737 49.003478 
L 139.296842 52.732117 
L 150.743947 56.771254 
L 162.191053 60.735952 
L 173.638158 64.352198 
L 185.085263 68.105574 
L 196.532368 72.288761 
L 207.979474 76.511529 
L 219.426579 79.837542 
L 230.873684 83.650784 
L 242.320789 87.775715 
L 253.767895 91.71851 
L 265.215 95.523774 
L 265.215 84.227963 
L 265.215 84.227963 
L 253.767895 80.891598 
L 242.320789 77.99226 
L 230.873684 74.276716 
L 219.426579 70.477958 
L 207.979474 67.1775 
L 196.532368 63.576892 
L 185.085263 60.46831 
L 173.638158 57.186832 
L 162.191053 53.186946 
L 150.743947 50.243078 
L 139.296842 46.940614 
L 127.849737 43.957352 
L 116.402632 41.42804 
L 104.955526 39.259616 
L 93.508421 37.436424 
L 82.061316 35.789567 
L 70.614211 34.855134 
L 59.167105 33.994962 
L 47.72 33.677291 
z
" clip-path="url(#p1cbd1a8dee)" style="fill: #d62728; fill-opacity: 0.4"/>
   </g>
   <g id="PolyCollection_5">
    <path d="M 47.72 33.665776 
L 47.72 34.199557 
L 59.167105 35.10447 
L 70.614211 38.455417 
L 82.061316 43.174299 
L 93.508421 49.334334 
L 104.955526 56.205255 
L 116.402632 64.275826 
L 127.849737 71.385688 
L 139.296842 80.079249 
L 150.743947 88.372737 
L 162.191053 95.651963 
L 173.638158 102.772556 
L 185.085263 110.079523 
L 196.532368 117.356504 
L 207.979474 124.132431 
L 219.426579 130.104095 
L 230.873684 136.242016 
L 242.320789 141.647549 
L 253.767895 146.098924 
L 265.215 151.549948 
L 265.215 139.014511 
L 265.215 139.014511 
L 253.767895 134.714871 
L 242.320789 129.3181 
L 230.873684 124.192909 
L 219.426579 117.267273 
L 207.979474 110.760803 
L 196.532368 104.20999 
L 185.085263 97.98992 
L 173.638158 91.26703 
L 162.191053 83.741044 
L 150.743947 76.753682 
L 139.296842 69.861735 
L 127.849737 62.828907 
L 116.402632 56.440888 
L 104.955526 50.867645 
L 93.508421 45.266868 
L 82.061316 40.515193 
L 70.614211 36.862989 
L 59.167105 34.360334 
L 47.72 33.665776 
z
" clip-path="url(#p1cbd1a8dee)" style="fill: #9467bd; fill-opacity: 0.4"/>
   </g>
   <g id="PolyCollection_6">
    <path d="M 47.72 33.673515 
L 47.72 34.210687 
L 59.167105 34.723807 
L 70.614211 36.544218 
L 82.061316 39.345018 
L 93.508421 43.404034 
L 104.955526 48.005053 
L 116.402632 53.487732 
L 127.849737 58.770224 
L 139.296842 64.555484 
L 150.743947 71.455151 
L 162.191053 77.758677 
L 173.638158 84.239565 
L 185.085263 90.775618 
L 196.532368 97.330099 
L 207.979474 103.720191 
L 219.426579 110.115995 
L 230.873684 115.676389 
L 242.320789 121.934326 
L 253.767895 126.943232 
L 265.215 132.504054 
L 265.215 121.684972 
L 265.215 121.684972 
L 253.767895 117.297468 
L 242.320789 112.448333 
L 230.873684 107.747473 
L 219.426579 100.902852 
L 207.979474 95.495347 
L 196.532368 89.211899 
L 185.085263 83.187007 
L 173.638158 76.878013 
L 162.191053 70.118194 
L 150.743947 64.419288 
L 139.296842 58.511597 
L 127.849737 52.389341 
L 116.402632 47.701742 
L 104.955526 43.513973 
L 93.508421 40.100554 
L 82.061316 37.264105 
L 70.614211 35.332687 
L 59.167105 34.020169 
L 47.72 33.673515 
z
" clip-path="url(#p1cbd1a8dee)" style="fill: #8c564b; fill-opacity: 0.4"/>
   </g>
   <g id="PolyCollection_7">
    <path d="M 47.72 47.359503 
L 47.72 50.435308 
L 59.167105 51.953921 
L 70.614211 56.417864 
L 82.061316 62.479394 
L 93.508421 69.919476 
L 104.955526 77.881906 
L 116.402632 86.606253 
L 127.849737 94.56904 
L 139.296842 103.3224 
L 150.743947 111.569345 
L 162.191053 119.274431 
L 173.638158 125.73813 
L 185.085263 132.09129 
L 196.532368 138.908737 
L 207.979474 144.468532 
L 219.426579 149.595609 
L 230.873684 154.547587 
L 242.320789 159.519537 
L 253.767895 163.401445 
L 265.215 167.350909 
L 265.215 151.552862 
L 265.215 151.552862 
L 253.767895 147.112964 
L 242.320789 142.640068 
L 230.873684 137.991811 
L 219.426579 132.235384 
L 207.979474 126.388893 
L 196.532368 120.322133 
L 185.085263 114.447331 
L 173.638158 108.058729 
L 162.191053 100.91694 
L 150.743947 94.14062 
L 139.296842 86.912521 
L 127.849737 80.110799 
L 116.402632 73.31837 
L 104.955526 66.955553 
L 93.508421 60.82261 
L 82.061316 55.157339 
L 70.614211 50.838636 
L 59.167105 48.157231 
L 47.72 47.359503 
z
" clip-path="url(#p1cbd1a8dee)" style="fill: #e377c2; fill-opacity: 0.4"/>
   </g>
   <g id="PolyCollection_8">
    <path d="M 47.72 33.671796 
L 47.72 34.209942 
L 59.167105 34.330743 
L 70.614211 34.730217 
L 82.061316 35.89658 
L 93.508421 38.00907 
L 104.955526 41.397396 
L 116.402632 45.190042 
L 127.849737 49.616537 
L 139.296842 54.623801 
L 150.743947 60.76604 
L 162.191053 66.87878 
L 173.638158 73.534137 
L 185.085263 80.0558 
L 196.532368 86.267253 
L 207.979474 92.581392 
L 219.426579 98.302852 
L 230.873684 103.783 
L 242.320789 110.139128 
L 253.767895 115.292278 
L 265.215 120.756406 
L 265.215 106.239463 
L 265.215 106.239463 
L 253.767895 100.822772 
L 242.320789 95.110313 
L 230.873684 89.408522 
L 219.426579 82.795695 
L 207.979474 77.306341 
L 196.532368 71.277961 
L 185.085263 65.87019 
L 173.638158 60.324495 
L 162.191053 54.931143 
L 150.743947 50.504975 
L 139.296842 45.537502 
L 127.849737 41.092636 
L 116.402632 38.223473 
L 104.955526 35.816768 
L 93.508421 34.748829 
L 82.061316 34.07377 
L 70.614211 33.958996 
L 59.167105 33.689481 
L 47.72 33.671796 
z
" clip-path="url(#p1cbd1a8dee)" style="fill: #7f7f7f; fill-opacity: 0.4"/>
   </g>
   <g id="matplotlib.axis_1">
    <g id="xtick_1">
     <g id="line2d_1">
      <defs>
       <path id="me1c9bee390" d="M 0 0 
L 0 3.5 
" style="stroke: #000000; stroke-width: 0.8"/>
      </defs>
      <g>
       <use xlink:href="#me1c9bee390" x="47.72" y="174.04" style="stroke: #000000; stroke-width: 0.8"/>
      </g>
     </g>
     <g id="text_1">
      <!-- 0.0 -->
      <g transform="translate(39.768438 188.638438)scale(0.1 -0.1)">
       <defs>
        <path id="DejaVuSans-30" d="M 2034 4250 
Q 1547 4250 1301 3770 
Q 1056 3291 1056 2328 
Q 1056 1369 1301 889 
Q 1547 409 2034 409 
Q 2525 409 2770 889 
Q 3016 1369 3016 2328 
Q 3016 3291 2770 3770 
Q 2525 4250 2034 4250 
z
M 2034 4750 
Q 2819 4750 3233 4129 
Q 3647 3509 3647 2328 
Q 3647 1150 3233 529 
Q 2819 -91 2034 -91 
Q 1250 -91 836 529 
Q 422 1150 422 2328 
Q 422 3509 836 4129 
Q 1250 4750 2034 4750 
z
" transform="scale(0.015625)"/>
        <path id="DejaVuSans-2e" d="M 684 794 
L 1344 794 
L 1344 0 
L 684 0 
L 684 794 
z
" transform="scale(0.015625)"/>
       </defs>
       <use xlink:href="#DejaVuSans-30"/>
       <use xlink:href="#DejaVuSans-2e" x="63.623047"/>
       <use xlink:href="#DejaVuSans-30" x="95.410156"/>
      </g>
     </g>
    </g>
    <g id="xtick_2">
     <g id="line2d_2">
      <g>
       <use xlink:href="#me1c9bee390" x="102.09375" y="174.04" style="stroke: #000000; stroke-width: 0.8"/>
      </g>
     </g>
     <g id="text_2">
      <!-- 0.5 -->
      <g transform="translate(94.142188 188.638438)scale(0.1 -0.1)">
       <defs>
        <path id="DejaVuSans-35" d="M 691 4666 
L 3169 4666 
L 3169 4134 
L 1269 4134 
L 1269 2991 
Q 1406 3038 1543 3061 
Q 1681 3084 1819 3084 
Q 2600 3084 3056 2656 
Q 3513 2228 3513 1497 
Q 3513 744 3044 326 
Q 2575 -91 1722 -91 
Q 1428 -91 1123 -41 
Q 819 9 494 109 
L 494 744 
Q 775 591 1075 516 
Q 1375 441 1709 441 
Q 2250 441 2565 725 
Q 2881 1009 2881 1497 
Q 2881 1984 2565 2268 
Q 2250 2553 1709 2553 
Q 1456 2553 1204 2497 
Q 953 2441 691 2322 
L 691 4666 
z
" transform="scale(0.015625)"/>
       </defs>
       <use xlink:href="#DejaVuSans-30"/>
       <use xlink:href="#DejaVuSans-2e" x="63.623047"/>
       <use xlink:href="#DejaVuSans-35" x="95.410156"/>
      </g>
     </g>
    </g>
    <g id="xtick_3">
     <g id="line2d_3">
      <g>
       <use xlink:href="#me1c9bee390" x="156.4675" y="174.04" style="stroke: #000000; stroke-width: 0.8"/>
      </g>
     </g>
     <g id="text_3">
      <!-- 1.0 -->
      <g transform="translate(148.515938 188.638438)scale(0.1 -0.1)">
       <defs>
        <path id="DejaVuSans-31" d="M 794 531 
L 1825 531 
L 1825 4091 
L 703 3866 
L 703 4441 
L 1819 4666 
L 2450 4666 
L 2450 531 
L 3481 531 
L 3481 0 
L 794 0 
L 794 531 
z
" transform="scale(0.015625)"/>
       </defs>
       <use xlink:href="#DejaVuSans-31"/>
       <use xlink:href="#DejaVuSans-2e" x="63.623047"/>
       <use xlink:href="#DejaVuSans-30" x="95.410156"/>
      </g>
     </g>
    </g>
    <g id="xtick_4">
     <g id="line2d_4">
      <g>
       <use xlink:href="#me1c9bee390" x="210.84125" y="174.04" style="stroke: #000000; stroke-width: 0.8"/>
      </g>
     </g>
     <g id="text_4">
      <!-- 1.5 -->
      <g transform="translate(202.889687 188.638438)scale(0.1 -0.1)">
       <use xlink:href="#DejaVuSans-31"/>
       <use xlink:href="#DejaVuSans-2e" x="63.623047"/>
       <use xlink:href="#DejaVuSans-35" x="95.410156"/>
      </g>
     </g>
    </g>
    <g id="xtick_5">
     <g id="line2d_5">
      <g>
       <use xlink:href="#me1c9bee390" x="265.215" y="174.04" style="stroke: #000000; stroke-width: 0.8"/>
      </g>
     </g>
     <g id="text_5">
      <!-- 2.0 -->
      <g transform="translate(257.263437 188.638438)scale(0.1 -0.1)">
       <defs>
        <path id="DejaVuSans-32" d="M 1228 531 
L 3431 531 
L 3431 0 
L 469 0 
L 469 531 
Q 828 903 1448 1529 
Q 2069 2156 2228 2338 
Q 2531 2678 2651 2914 
Q 2772 3150 2772 3378 
Q 2772 3750 2511 3984 
Q 2250 4219 1831 4219 
Q 1534 4219 1204 4116 
Q 875 4013 500 3803 
L 500 4441 
Q 881 4594 1212 4672 
Q 1544 4750 1819 4750 
Q 2544 4750 2975 4387 
Q 3406 4025 3406 3419 
Q 3406 3131 3298 2873 
Q 3191 2616 2906 2266 
Q 2828 2175 2409 1742 
Q 1991 1309 1228 531 
z
" transform="scale(0.015625)"/>
       </defs>
       <use xlink:href="#DejaVuSans-32"/>
       <use xlink:href="#DejaVuSans-2e" x="63.623047"/>
       <use xlink:href="#DejaVuSans-30" x="95.410156"/>
      </g>
     </g>
    </g>
    <g id="text_6">
     <!-- Influence of surprisal (multiplication) -->
     <g transform="translate(64.320625 202.316563)scale(0.1 -0.1)">
      <defs>
       <path id="DejaVuSans-49" d="M 628 4666 
L 1259 4666 
L 1259 0 
L 628 0 
L 628 4666 
z
" transform="scale(0.015625)"/>
       <path id="DejaVuSans-6e" d="M 3513 2113 
L 3513 0 
L 2938 0 
L 2938 2094 
Q 2938 2591 2744 2837 
Q 2550 3084 2163 3084 
Q 1697 3084 1428 2787 
Q 1159 2491 1159 1978 
L 1159 0 
L 581 0 
L 581 3500 
L 1159 3500 
L 1159 2956 
Q 1366 3272 1645 3428 
Q 1925 3584 2291 3584 
Q 2894 3584 3203 3211 
Q 3513 2838 3513 2113 
z
" transform="scale(0.015625)"/>
       <path id="DejaVuSans-66" d="M 2375 4863 
L 2375 4384 
L 1825 4384 
Q 1516 4384 1395 4259 
Q 1275 4134 1275 3809 
L 1275 3500 
L 2222 3500 
L 2222 3053 
L 1275 3053 
L 1275 0 
L 697 0 
L 697 3053 
L 147 3053 
L 147 3500 
L 697 3500 
L 697 3744 
Q 697 4328 969 4595 
Q 1241 4863 1831 4863 
L 2375 4863 
z
" transform="scale(0.015625)"/>
       <path id="DejaVuSans-6c" d="M 603 4863 
L 1178 4863 
L 1178 0 
L 603 0 
L 603 4863 
z
" transform="scale(0.015625)"/>
       <path id="DejaVuSans-75" d="M 544 1381 
L 544 3500 
L 1119 3500 
L 1119 1403 
Q 1119 906 1312 657 
Q 1506 409 1894 409 
Q 2359 409 2629 706 
Q 2900 1003 2900 1516 
L 2900 3500 
L 3475 3500 
L 3475 0 
L 2900 0 
L 2900 538 
Q 2691 219 2414 64 
Q 2138 -91 1772 -91 
Q 1169 -91 856 284 
Q 544 659 544 1381 
z
M 1991 3584 
L 1991 3584 
z
" transform="scale(0.015625)"/>
       <path id="DejaVuSans-65" d="M 3597 1894 
L 3597 1613 
L 953 1613 
Q 991 1019 1311 708 
Q 1631 397 2203 397 
Q 2534 397 2845 478 
Q 3156 559 3463 722 
L 3463 178 
Q 3153 47 2828 -22 
Q 2503 -91 2169 -91 
Q 1331 -91 842 396 
Q 353 884 353 1716 
Q 353 2575 817 3079 
Q 1281 3584 2069 3584 
Q 2775 3584 3186 3129 
Q 3597 2675 3597 1894 
z
M 3022 2063 
Q 3016 2534 2758 2815 
Q 2500 3097 2075 3097 
Q 1594 3097 1305 2825 
Q 1016 2553 972 2059 
L 3022 2063 
z
" transform="scale(0.015625)"/>
       <path id="DejaVuSans-63" d="M 3122 3366 
L 3122 2828 
Q 2878 2963 2633 3030 
Q 2388 3097 2138 3097 
Q 1578 3097 1268 2742 
Q 959 2388 959 1747 
Q 959 1106 1268 751 
Q 1578 397 2138 397 
Q 2388 397 2633 464 
Q 2878 531 3122 666 
L 3122 134 
Q 2881 22 2623 -34 
Q 2366 -91 2075 -91 
Q 1284 -91 818 406 
Q 353 903 353 1747 
Q 353 2603 823 3093 
Q 1294 3584 2113 3584 
Q 2378 3584 2631 3529 
Q 2884 3475 3122 3366 
z
" transform="scale(0.015625)"/>
       <path id="DejaVuSans-20" transform="scale(0.015625)"/>
       <path id="DejaVuSans-6f" d="M 1959 3097 
Q 1497 3097 1228 2736 
Q 959 2375 959 1747 
Q 959 1119 1226 758 
Q 1494 397 1959 397 
Q 2419 397 2687 759 
Q 2956 1122 2956 1747 
Q 2956 2369 2687 2733 
Q 2419 3097 1959 3097 
z
M 1959 3584 
Q 2709 3584 3137 3096 
Q 3566 2609 3566 1747 
Q 3566 888 3137 398 
Q 2709 -91 1959 -91 
Q 1206 -91 779 398 
Q 353 888 353 1747 
Q 353 2609 779 3096 
Q 1206 3584 1959 3584 
z
" transform="scale(0.015625)"/>
       <path id="DejaVuSans-73" d="M 2834 3397 
L 2834 2853 
Q 2591 2978 2328 3040 
Q 2066 3103 1784 3103 
Q 1356 3103 1142 2972 
Q 928 2841 928 2578 
Q 928 2378 1081 2264 
Q 1234 2150 1697 2047 
L 1894 2003 
Q 2506 1872 2764 1633 
Q 3022 1394 3022 966 
Q 3022 478 2636 193 
Q 2250 -91 1575 -91 
Q 1294 -91 989 -36 
Q 684 19 347 128 
L 347 722 
Q 666 556 975 473 
Q 1284 391 1588 391 
Q 1994 391 2212 530 
Q 2431 669 2431 922 
Q 2431 1156 2273 1281 
Q 2116 1406 1581 1522 
L 1381 1569 
Q 847 1681 609 1914 
Q 372 2147 372 2553 
Q 372 3047 722 3315 
Q 1072 3584 1716 3584 
Q 2034 3584 2315 3537 
Q 2597 3491 2834 3397 
z
" transform="scale(0.015625)"/>
       <path id="DejaVuSans-72" d="M 2631 2963 
Q 2534 3019 2420 3045 
Q 2306 3072 2169 3072 
Q 1681 3072 1420 2755 
Q 1159 2438 1159 1844 
L 1159 0 
L 581 0 
L 581 3500 
L 1159 3500 
L 1159 2956 
Q 1341 3275 1631 3429 
Q 1922 3584 2338 3584 
Q 2397 3584 2469 3576 
Q 2541 3569 2628 3553 
L 2631 2963 
z
" transform="scale(0.015625)"/>
       <path id="DejaVuSans-70" d="M 1159 525 
L 1159 -1331 
L 581 -1331 
L 581 3500 
L 1159 3500 
L 1159 2969 
Q 1341 3281 1617 3432 
Q 1894 3584 2278 3584 
Q 2916 3584 3314 3078 
Q 3713 2572 3713 1747 
Q 3713 922 3314 415 
Q 2916 -91 2278 -91 
Q 1894 -91 1617 61 
Q 1341 213 1159 525 
z
M 3116 1747 
Q 3116 2381 2855 2742 
Q 2594 3103 2138 3103 
Q 1681 3103 1420 2742 
Q 1159 2381 1159 1747 
Q 1159 1113 1420 752 
Q 1681 391 2138 391 
Q 2594 391 2855 752 
Q 3116 1113 3116 1747 
z
" transform="scale(0.015625)"/>
       <path id="DejaVuSans-69" d="M 603 3500 
L 1178 3500 
L 1178 0 
L 603 0 
L 603 3500 
z
M 603 4863 
L 1178 4863 
L 1178 4134 
L 603 4134 
L 603 4863 
z
" transform="scale(0.015625)"/>
       <path id="DejaVuSans-61" d="M 2194 1759 
Q 1497 1759 1228 1600 
Q 959 1441 959 1056 
Q 959 750 1161 570 
Q 1363 391 1709 391 
Q 2188 391 2477 730 
Q 2766 1069 2766 1631 
L 2766 1759 
L 2194 1759 
z
M 3341 1997 
L 3341 0 
L 2766 0 
L 2766 531 
Q 2569 213 2275 61 
Q 1981 -91 1556 -91 
Q 1019 -91 701 211 
Q 384 513 384 1019 
Q 384 1609 779 1909 
Q 1175 2209 1959 2209 
L 2766 2209 
L 2766 2266 
Q 2766 2663 2505 2880 
Q 2244 3097 1772 3097 
Q 1472 3097 1187 3025 
Q 903 2953 641 2809 
L 641 3341 
Q 956 3463 1253 3523 
Q 1550 3584 1831 3584 
Q 2591 3584 2966 3190 
Q 3341 2797 3341 1997 
z
" transform="scale(0.015625)"/>
       <path id="DejaVuSans-28" d="M 1984 4856 
Q 1566 4138 1362 3434 
Q 1159 2731 1159 2009 
Q 1159 1288 1364 580 
Q 1569 -128 1984 -844 
L 1484 -844 
Q 1016 -109 783 600 
Q 550 1309 550 2009 
Q 550 2706 781 3412 
Q 1013 4119 1484 4856 
L 1984 4856 
z
" transform="scale(0.015625)"/>
       <path id="DejaVuSans-6d" d="M 3328 2828 
Q 3544 3216 3844 3400 
Q 4144 3584 4550 3584 
Q 5097 3584 5394 3201 
Q 5691 2819 5691 2113 
L 5691 0 
L 5113 0 
L 5113 2094 
Q 5113 2597 4934 2840 
Q 4756 3084 4391 3084 
Q 3944 3084 3684 2787 
Q 3425 2491 3425 1978 
L 3425 0 
L 2847 0 
L 2847 2094 
Q 2847 2600 2669 2842 
Q 2491 3084 2119 3084 
Q 1678 3084 1418 2786 
Q 1159 2488 1159 1978 
L 1159 0 
L 581 0 
L 581 3500 
L 1159 3500 
L 1159 2956 
Q 1356 3278 1631 3431 
Q 1906 3584 2284 3584 
Q 2666 3584 2933 3390 
Q 3200 3197 3328 2828 
z
" transform="scale(0.015625)"/>
       <path id="DejaVuSans-74" d="M 1172 4494 
L 1172 3500 
L 2356 3500 
L 2356 3053 
L 1172 3053 
L 1172 1153 
Q 1172 725 1289 603 
Q 1406 481 1766 481 
L 2356 481 
L 2356 0 
L 1766 0 
Q 1100 0 847 248 
Q 594 497 594 1153 
L 594 3053 
L 172 3053 
L 172 3500 
L 594 3500 
L 594 4494 
L 1172 4494 
z
" transform="scale(0.015625)"/>
       <path id="DejaVuSans-29" d="M 513 4856 
L 1013 4856 
Q 1481 4119 1714 3412 
Q 1947 2706 1947 2009 
Q 1947 1309 1714 600 
Q 1481 -109 1013 -844 
L 513 -844 
Q 928 -128 1133 580 
Q 1338 1288 1338 2009 
Q 1338 2731 1133 3434 
Q 928 4138 513 4856 
z
" transform="scale(0.015625)"/>
      </defs>
      <use xlink:href="#DejaVuSans-49"/>
      <use xlink:href="#DejaVuSans-6e" x="29.492188"/>
      <use xlink:href="#DejaVuSans-66" x="92.871094"/>
      <use xlink:href="#DejaVuSans-6c" x="128.076172"/>
      <use xlink:href="#DejaVuSans-75" x="155.859375"/>
      <use xlink:href="#DejaVuSans-65" x="219.238281"/>
      <use xlink:href="#DejaVuSans-6e" x="280.761719"/>
      <use xlink:href="#DejaVuSans-63" x="344.140625"/>
      <use xlink:href="#DejaVuSans-65" x="399.121094"/>
      <use xlink:href="#DejaVuSans-20" x="460.644531"/>
      <use xlink:href="#DejaVuSans-6f" x="492.431641"/>
      <use xlink:href="#DejaVuSans-66" x="553.613281"/>
      <use xlink:href="#DejaVuSans-20" x="588.818359"/>
      <use xlink:href="#DejaVuSans-73" x="620.605469"/>
      <use xlink:href="#DejaVuSans-75" x="672.705078"/>
      <use xlink:href="#DejaVuSans-72" x="736.083984"/>
      <use xlink:href="#DejaVuSans-70" x="777.197266"/>
      <use xlink:href="#DejaVuSans-72" x="840.673828"/>
      <use xlink:href="#DejaVuSans-69" x="881.787109"/>
      <use xlink:href="#DejaVuSans-73" x="909.570312"/>
      <use xlink:href="#DejaVuSans-61" x="961.669922"/>
      <use xlink:href="#DejaVuSans-6c" x="1022.949219"/>
      <use xlink:href="#DejaVuSans-20" x="1050.732422"/>
      <use xlink:href="#DejaVuSans-28" x="1082.519531"/>
      <use xlink:href="#DejaVuSans-6d" x="1121.533203"/>
      <use xlink:href="#DejaVuSans-75" x="1218.945312"/>
      <use xlink:href="#DejaVuSans-6c" x="1282.324219"/>
      <use xlink:href="#DejaVuSans-74" x="1310.107422"/>
      <use xlink:href="#DejaVuSans-69" x="1349.316406"/>
      <use xlink:href="#DejaVuSans-70" x="1377.099609"/>
      <use xlink:href="#DejaVuSans-6c" x="1440.576172"/>
      <use xlink:href="#DejaVuSans-69" x="1468.359375"/>
      <use xlink:href="#DejaVuSans-63" x="1496.142578"/>
      <use xlink:href="#DejaVuSans-61" x="1551.123047"/>
      <use xlink:href="#DejaVuSans-74" x="1612.402344"/>
      <use xlink:href="#DejaVuSans-69" x="1651.611328"/>
      <use xlink:href="#DejaVuSans-6f" x="1679.394531"/>
      <use xlink:href="#DejaVuSans-6e" x="1740.576172"/>
      <use xlink:href="#DejaVuSans-29" x="1803.955078"/>
     </g>
    </g>
   </g>
   <g id="matplotlib.axis_2">
    <g id="ytick_1">
     <g id="line2d_6">
      <defs>
       <path id="m3dbddd3825" d="M 0 0 
L -3.5 0 
" style="stroke: #000000; stroke-width: 0.8"/>
      </defs>
      <g>
       <use xlink:href="#m3dbddd3825" x="47.72" y="173.300938" style="stroke: #000000; stroke-width: 0.8"/>
      </g>
     </g>
     <g id="text_7">
      <!-- 0.2 -->
      <g transform="translate(24.816875 177.100157)scale(0.1 -0.1)">
       <use xlink:href="#DejaVuSans-30"/>
       <use xlink:href="#DejaVuSans-2e" x="63.623047"/>
       <use xlink:href="#DejaVuSans-32" x="95.410156"/>
      </g>
     </g>
    </g>
    <g id="ytick_2">
     <g id="line2d_7">
      <g>
       <use xlink:href="#m3dbddd3825" x="47.72" y="135.946341" style="stroke: #000000; stroke-width: 0.8"/>
      </g>
     </g>
     <g id="text_8">
      <!-- 0.4 -->
      <g transform="translate(24.816875 139.74556)scale(0.1 -0.1)">
       <defs>
        <path id="DejaVuSans-34" d="M 2419 4116 
L 825 1625 
L 2419 1625 
L 2419 4116 
z
M 2253 4666 
L 3047 4666 
L 3047 1625 
L 3713 1625 
L 3713 1100 
L 3047 1100 
L 3047 0 
L 2419 0 
L 2419 1100 
L 313 1100 
L 313 1709 
L 2253 4666 
z
" transform="scale(0.015625)"/>
       </defs>
       <use xlink:href="#DejaVuSans-30"/>
       <use xlink:href="#DejaVuSans-2e" x="63.623047"/>
       <use xlink:href="#DejaVuSans-34" x="95.410156"/>
      </g>
     </g>
    </g>
    <g id="ytick_3">
     <g id="line2d_8">
      <g>
       <use xlink:href="#m3dbddd3825" x="47.72" y="98.591744" style="stroke: #000000; stroke-width: 0.8"/>
      </g>
     </g>
     <g id="text_9">
      <!-- 0.6 -->
      <g transform="translate(24.816875 102.390963)scale(0.1 -0.1)">
       <defs>
        <path id="DejaVuSans-36" d="M 2113 2584 
Q 1688 2584 1439 2293 
Q 1191 2003 1191 1497 
Q 1191 994 1439 701 
Q 1688 409 2113 409 
Q 2538 409 2786 701 
Q 3034 994 3034 1497 
Q 3034 2003 2786 2293 
Q 2538 2584 2113 2584 
z
M 3366 4563 
L 3366 3988 
Q 3128 4100 2886 4159 
Q 2644 4219 2406 4219 
Q 1781 4219 1451 3797 
Q 1122 3375 1075 2522 
Q 1259 2794 1537 2939 
Q 1816 3084 2150 3084 
Q 2853 3084 3261 2657 
Q 3669 2231 3669 1497 
Q 3669 778 3244 343 
Q 2819 -91 2113 -91 
Q 1303 -91 875 529 
Q 447 1150 447 2328 
Q 447 3434 972 4092 
Q 1497 4750 2381 4750 
Q 2619 4750 2861 4703 
Q 3103 4656 3366 4563 
z
" transform="scale(0.015625)"/>
       </defs>
       <use xlink:href="#DejaVuSans-30"/>
       <use xlink:href="#DejaVuSans-2e" x="63.623047"/>
       <use xlink:href="#DejaVuSans-36" x="95.410156"/>
      </g>
     </g>
    </g>
    <g id="ytick_4">
     <g id="line2d_9">
      <g>
       <use xlink:href="#m3dbddd3825" x="47.72" y="61.237147" style="stroke: #000000; stroke-width: 0.8"/>
      </g>
     </g>
     <g id="text_10">
      <!-- 0.8 -->
      <g transform="translate(24.816875 65.036365)scale(0.1 -0.1)">
       <defs>
        <path id="DejaVuSans-38" d="M 2034 2216 
Q 1584 2216 1326 1975 
Q 1069 1734 1069 1313 
Q 1069 891 1326 650 
Q 1584 409 2034 409 
Q 2484 409 2743 651 
Q 3003 894 3003 1313 
Q 3003 1734 2745 1975 
Q 2488 2216 2034 2216 
z
M 1403 2484 
Q 997 2584 770 2862 
Q 544 3141 544 3541 
Q 544 4100 942 4425 
Q 1341 4750 2034 4750 
Q 2731 4750 3128 4425 
Q 3525 4100 3525 3541 
Q 3525 3141 3298 2862 
Q 3072 2584 2669 2484 
Q 3125 2378 3379 2068 
Q 3634 1759 3634 1313 
Q 3634 634 3220 271 
Q 2806 -91 2034 -91 
Q 1263 -91 848 271 
Q 434 634 434 1313 
Q 434 1759 690 2068 
Q 947 2378 1403 2484 
z
M 1172 3481 
Q 1172 3119 1398 2916 
Q 1625 2713 2034 2713 
Q 2441 2713 2670 2916 
Q 2900 3119 2900 3481 
Q 2900 3844 2670 4047 
Q 2441 4250 2034 4250 
Q 1625 4250 1398 4047 
Q 1172 3844 1172 3481 
z
" transform="scale(0.015625)"/>
       </defs>
       <use xlink:href="#DejaVuSans-30"/>
       <use xlink:href="#DejaVuSans-2e" x="63.623047"/>
       <use xlink:href="#DejaVuSans-38" x="95.410156"/>
      </g>
     </g>
    </g>
    <g id="text_11">
     <!-- R-value -->
     <g transform="translate(18.737188 119.064687)rotate(-90)scale(0.1 -0.1)">
      <defs>
       <path id="DejaVuSans-52" d="M 2841 2188 
Q 3044 2119 3236 1894 
Q 3428 1669 3622 1275 
L 4263 0 
L 3584 0 
L 2988 1197 
Q 2756 1666 2539 1819 
Q 2322 1972 1947 1972 
L 1259 1972 
L 1259 0 
L 628 0 
L 628 4666 
L 2053 4666 
Q 2853 4666 3247 4331 
Q 3641 3997 3641 3322 
Q 3641 2881 3436 2590 
Q 3231 2300 2841 2188 
z
M 1259 4147 
L 1259 2491 
L 2053 2491 
Q 2509 2491 2742 2702 
Q 2975 2913 2975 3322 
Q 2975 3731 2742 3939 
Q 2509 4147 2053 4147 
L 1259 4147 
z
" transform="scale(0.015625)"/>
       <path id="DejaVuSans-2d" d="M 313 2009 
L 1997 2009 
L 1997 1497 
L 313 1497 
L 313 2009 
z
" transform="scale(0.015625)"/>
       <path id="DejaVuSans-76" d="M 191 3500 
L 800 3500 
L 1894 563 
L 2988 3500 
L 3597 3500 
L 2284 0 
L 1503 0 
L 191 3500 
z
" transform="scale(0.015625)"/>
      </defs>
      <use xlink:href="#DejaVuSans-52"/>
      <use xlink:href="#DejaVuSans-2d" x="65.482422"/>
      <use xlink:href="#DejaVuSans-76" x="98.941406"/>
      <use xlink:href="#DejaVuSans-61" x="158.121094"/>
      <use xlink:href="#DejaVuSans-6c" x="219.400391"/>
      <use xlink:href="#DejaVuSans-75" x="247.183594"/>
      <use xlink:href="#DejaVuSans-65" x="310.5625"/>
     </g>
    </g>
   </g>
   <g id="line2d_10">
    <path d="M 47.72 33.920768 
L 59.167105 34.730477 
L 70.614211 37.645646 
L 82.061316 41.837062 
L 93.508421 47.24488 
L 104.955526 53.47117 
L 116.402632 60.257276 
L 127.849737 67.098026 
L 139.296842 74.740566 
L 150.743947 82.548322 
L 162.191053 89.597526 
L 173.638158 96.905187 
L 185.085263 103.860106 
L 196.532368 110.68629 
L 207.979474 117.403117 
L 219.426579 123.575022 
L 230.873684 129.564971 
L 242.320789 135.293102 
L 253.767895 140.244805 
L 265.215 145.14418 
" clip-path="url(#p1cbd1a8dee)" style="fill: none; stroke: #1f77b4; stroke-width: 1.5; stroke-linecap: square"/>
   </g>
   <g id="line2d_11">
    <path d="M 47.72 33.929894 
L 59.167105 34.37002 
L 70.614211 35.923991 
L 82.061316 38.289879 
L 93.508421 41.710124 
L 104.955526 45.715414 
L 116.402632 50.506656 
L 127.849737 55.555405 
L 139.296842 61.389367 
L 150.743947 67.882215 
L 162.191053 73.811114 
L 173.638158 80.447286 
L 185.085263 86.913444 
L 196.532368 93.103909 
L 207.979474 99.509445 
L 219.426579 105.408203 
L 230.873684 111.275778 
L 242.320789 117.000626 
L 253.767895 121.966913 
L 265.215 126.961296 
" clip-path="url(#p1cbd1a8dee)" style="fill: none; stroke: #ff7f0e; stroke-width: 1.5; stroke-linecap: square"/>
   </g>
   <g id="line2d_12">
    <path d="M 47.72 33.932406 
L 59.167105 34.485965 
L 70.614211 35.916931 
L 82.061316 37.670306 
L 93.508421 40.093825 
L 104.955526 42.777967 
L 116.402632 45.79061 
L 127.849737 48.698703 
L 139.296842 52.20926 
L 150.743947 55.781879 
L 162.191053 59.174142 
L 173.638158 62.79853 
L 185.085263 66.095766 
L 196.532368 69.633302 
L 207.979474 73.37477 
L 219.426579 76.553213 
L 230.873684 80.382086 
L 242.320789 84.182423 
L 253.767895 87.585566 
L 265.215 91.076122 
" clip-path="url(#p1cbd1a8dee)" style="fill: none; stroke: #2ca02c; stroke-width: 1.5; stroke-linecap: square"/>
   </g>
   <g id="line2d_13">
    <path d="M 47.72 33.941203 
L 59.167105 34.338836 
L 70.614211 35.389697 
L 82.061316 36.72462 
L 93.508421 38.744701 
L 104.955526 40.996234 
L 116.402632 43.730487 
L 127.849737 46.480415 
L 139.296842 49.836366 
L 150.743947 53.507166 
L 162.191053 56.961449 
L 173.638158 60.769515 
L 185.085263 64.286942 
L 196.532368 67.932826 
L 207.979474 71.844514 
L 219.426579 75.15775 
L 230.873684 78.96375 
L 242.320789 82.883988 
L 253.767895 86.305054 
L 265.215 89.875869 
" clip-path="url(#p1cbd1a8dee)" style="fill: none; stroke: #d62728; stroke-width: 1.5; stroke-linecap: square"/>
   </g>
   <g id="line2d_14">
    <path d="M 47.72 33.932666 
L 59.167105 34.732402 
L 70.614211 37.659203 
L 82.061316 41.844746 
L 93.508421 47.300601 
L 104.955526 53.53645 
L 116.402632 60.358357 
L 127.849737 67.107297 
L 139.296842 74.970492 
L 150.743947 82.56321 
L 162.191053 89.696503 
L 173.638158 97.019793 
L 185.085263 104.034722 
L 196.532368 110.783247 
L 207.979474 117.446617 
L 219.426579 123.685684 
L 230.873684 130.217462 
L 242.320789 135.482824 
L 253.767895 140.406897 
L 265.215 145.282229 
" clip-path="url(#p1cbd1a8dee)" style="fill: none; stroke: #9467bd; stroke-width: 1.5; stroke-linecap: square"/>
   </g>
   <g id="line2d_15">
    <path d="M 47.72 33.942101 
L 59.167105 34.371988 
L 70.614211 35.938453 
L 82.061316 38.304561 
L 93.508421 41.752294 
L 104.955526 45.759513 
L 116.402632 50.594737 
L 127.849737 55.579783 
L 139.296842 61.533541 
L 150.743947 67.937219 
L 162.191053 73.938436 
L 173.638158 80.558789 
L 185.085263 86.981312 
L 196.532368 93.270999 
L 207.979474 99.607769 
L 219.426579 105.509423 
L 230.873684 111.711931 
L 242.320789 117.19133 
L 253.767895 122.12035 
L 265.215 127.094513 
" clip-path="url(#p1cbd1a8dee)" style="fill: none; stroke: #8c564b; stroke-width: 1.5; stroke-linecap: square"/>
   </g>
   <g id="line2d_16">
    <path d="M 47.72 48.897405 
L 59.167105 50.055576 
L 70.614211 53.62825 
L 82.061316 58.818367 
L 93.508421 65.371043 
L 104.955526 72.41873 
L 116.402632 79.962312 
L 127.849737 87.33992 
L 139.296842 95.11746 
L 150.743947 102.854982 
L 162.191053 110.095686 
L 173.638158 116.89843 
L 185.085263 123.269311 
L 196.532368 129.615435 
L 207.979474 135.428713 
L 219.426579 140.915496 
L 230.873684 146.269699 
L 242.320789 151.079803 
L 253.767895 155.257205 
L 265.215 159.451886 
" clip-path="url(#p1cbd1a8dee)" style="fill: none; stroke: #e377c2; stroke-width: 1.5; stroke-linecap: square"/>
   </g>
   <g id="line2d_17">
    <path d="M 47.72 33.940869 
L 59.167105 34.010112 
L 70.614211 34.344607 
L 82.061316 34.985175 
L 93.508421 36.378949 
L 104.955526 38.607082 
L 116.402632 41.706758 
L 127.849737 45.354586 
L 139.296842 50.080652 
L 150.743947 55.635508 
L 162.191053 60.904962 
L 173.638158 66.929316 
L 185.085263 72.962995 
L 196.532368 78.772607 
L 207.979474 84.943867 
L 219.426579 90.549274 
L 230.873684 96.595761 
L 242.320789 102.624721 
L 253.767895 108.057525 
L 265.215 113.497935 
" clip-path="url(#p1cbd1a8dee)" style="fill: none; stroke: #7f7f7f; stroke-width: 1.5; stroke-linecap: square"/>
   </g>
   <g id="patch_3">
    <path d="M 47.72 174.04 
L 47.72 26.88 
" style="fill: none; stroke: #000000; stroke-width: 0.8; stroke-linejoin: miter; stroke-linecap: square"/>
   </g>
   <g id="patch_4">
    <path d="M 47.72 174.04 
L 265.215 174.04 
" style="fill: none; stroke: #000000; stroke-width: 0.8; stroke-linejoin: miter; stroke-linecap: square"/>
   </g>
   <g id="text_12">
    <!-- Node * surprisal -->
    <g transform="translate(108.18625 20.88)scale(0.12 -0.12)">
     <defs>
      <path id="DejaVuSans-4e" d="M 628 4666 
L 1478 4666 
L 3547 763 
L 3547 4666 
L 4159 4666 
L 4159 0 
L 3309 0 
L 1241 3903 
L 1241 0 
L 628 0 
L 628 4666 
z
" transform="scale(0.015625)"/>
      <path id="DejaVuSans-64" d="M 2906 2969 
L 2906 4863 
L 3481 4863 
L 3481 0 
L 2906 0 
L 2906 525 
Q 2725 213 2448 61 
Q 2172 -91 1784 -91 
Q 1150 -91 751 415 
Q 353 922 353 1747 
Q 353 2572 751 3078 
Q 1150 3584 1784 3584 
Q 2172 3584 2448 3432 
Q 2725 3281 2906 2969 
z
M 947 1747 
Q 947 1113 1208 752 
Q 1469 391 1925 391 
Q 2381 391 2643 752 
Q 2906 1113 2906 1747 
Q 2906 2381 2643 2742 
Q 2381 3103 1925 3103 
Q 1469 3103 1208 2742 
Q 947 2381 947 1747 
z
" transform="scale(0.015625)"/>
      <path id="DejaVuSans-2a" d="M 3009 3897 
L 1888 3291 
L 3009 2681 
L 2828 2375 
L 1778 3009 
L 1778 1831 
L 1422 1831 
L 1422 3009 
L 372 2375 
L 191 2681 
L 1313 3291 
L 191 3897 
L 372 4206 
L 1422 3572 
L 1422 4750 
L 1778 4750 
L 1778 3572 
L 2828 4206 
L 3009 3897 
z
" transform="scale(0.015625)"/>
     </defs>
     <use xlink:href="#DejaVuSans-4e"/>
     <use xlink:href="#DejaVuSans-6f" x="74.804688"/>
     <use xlink:href="#DejaVuSans-64" x="135.986328"/>
     <use xlink:href="#DejaVuSans-65" x="199.462891"/>
     <use xlink:href="#DejaVuSans-20" x="260.986328"/>
     <use xlink:href="#DejaVuSans-2a" x="292.773438"/>
     <use xlink:href="#DejaVuSans-20" x="342.773438"/>
     <use xlink:href="#DejaVuSans-73" x="374.560547"/>
     <use xlink:href="#DejaVuSans-75" x="426.660156"/>
     <use xlink:href="#DejaVuSans-72" x="490.039062"/>
     <use xlink:href="#DejaVuSans-70" x="531.152344"/>
     <use xlink:href="#DejaVuSans-72" x="594.628906"/>
     <use xlink:href="#DejaVuSans-69" x="635.742188"/>
     <use xlink:href="#DejaVuSans-73" x="663.525391"/>
     <use xlink:href="#DejaVuSans-61" x="715.625"/>
     <use xlink:href="#DejaVuSans-6c" x="776.904297"/>
    </g>
   </g>
  </g>
  <g id="axes_2">
   <g id="patch_5">
    <path d="M 298.065 174.04 
L 515.56 174.04 
L 515.56 26.88 
L 298.065 26.88 
z
" style="fill: #ffffff"/>
   </g>
   <g id="PolyCollection_9">
    <path d="M 298.065 33.569091 
L 298.065 34.190562 
L 309.512105 35.005038 
L 320.959211 38.034908 
L 332.406316 42.587647 
L 343.853421 47.613649 
L 355.300526 54.845016 
L 366.747632 61.849735 
L 378.194737 69.851049 
L 389.641842 77.681081 
L 401.088947 85.521655 
L 412.536053 93.04879 
L 423.983158 101.199656 
L 435.430263 107.639484 
L 446.877368 115.559071 
L 458.324474 121.697833 
L 469.771579 127.91012 
L 481.218684 132.622177 
L 492.665789 138.302444 
L 504.112895 143.175509 
L 515.56 147.286875 
L 515.56 134.802117 
L 515.56 134.802117 
L 504.112895 130.243857 
L 492.665789 125.257482 
L 481.218684 119.910766 
L 469.771579 114.124096 
L 458.324474 108.360931 
L 446.877368 102.021648 
L 435.430263 95.912472 
L 423.983158 89.233476 
L 412.536053 82.306955 
L 401.088947 75.779765 
L 389.641842 68.044873 
L 378.194737 61.92043 
L 366.747632 55.607474 
L 355.300526 49.381535 
L 343.853421 44.377669 
L 332.406316 40.026153 
L 320.959211 36.817739 
L 309.512105 34.522791 
L 298.065 33.569091 
z
" clip-path="url(#p22e238442d)" style="fill: #1f77b4; fill-opacity: 0.4"/>
   </g>
   <g id="PolyCollection_10">
    <path d="M 298.065 33.586085 
L 298.065 34.19608 
L 309.512105 35.018264 
L 320.959211 38.051017 
L 332.406316 42.588145 
L 343.853421 47.63023 
L 355.300526 54.862014 
L 366.747632 61.863257 
L 378.194737 69.849914 
L 389.641842 77.688972 
L 401.088947 85.574262 
L 412.536053 93.101698 
L 423.983158 101.275117 
L 435.430263 107.695071 
L 446.877368 115.67792 
L 458.324474 121.840842 
L 469.771579 128.06337 
L 481.218684 132.846138 
L 492.665789 138.556309 
L 504.112895 143.489572 
L 515.56 147.573417 
L 515.56 134.869142 
L 515.56 134.869142 
L 504.112895 130.344109 
L 492.665789 125.392433 
L 481.218684 120.067937 
L 469.771579 114.264976 
L 458.324474 108.453629 
L 446.877368 102.123877 
L 435.430263 95.978988 
L 423.983158 89.304719 
L 412.536053 82.327941 
L 401.088947 75.794058 
L 389.641842 68.062251 
L 378.194737 61.912906 
L 366.747632 55.605398 
L 355.300526 49.390693 
L 343.853421 44.381637 
L 332.406316 40.030437 
L 320.959211 36.826164 
L 309.512105 34.5352 
L 298.065 33.586085 
z
" clip-path="url(#p22e238442d)" style="fill: #ff7f0e; fill-opacity: 0.4"/>
   </g>
   <g id="PolyCollection_11">
    <path d="M 298.065 33.586727 
L 298.065 34.204371 
L 309.512105 35.011796 
L 320.959211 38.052857 
L 332.406316 42.591944 
L 343.853421 47.642903 
L 355.300526 54.87825 
L 366.747632 61.897943 
L 378.194737 69.907027 
L 389.641842 77.707872 
L 401.088947 85.537567 
L 412.536053 93.097312 
L 423.983158 101.195076 
L 435.430263 107.682735 
L 446.877368 115.569182 
L 458.324474 121.709476 
L 469.771579 128.004319 
L 481.218684 132.718583 
L 492.665789 138.480364 
L 504.112895 143.373536 
L 515.56 147.492825 
L 515.56 134.616996 
L 515.56 134.616996 
L 504.112895 130.097244 
L 492.665789 125.143646 
L 481.218684 119.818795 
L 469.771579 114.075797 
L 458.324474 108.311172 
L 446.877368 101.974617 
L 435.430263 95.901718 
L 423.983158 89.206786 
L 412.536053 82.213904 
L 401.088947 75.711729 
L 389.641842 67.998275 
L 378.194737 61.896286 
L 366.747632 55.545791 
L 355.300526 49.351939 
L 343.853421 44.368046 
L 332.406316 40.013072 
L 320.959211 36.822604 
L 309.512105 34.533826 
L 298.065 33.586727 
z
" clip-path="url(#p22e238442d)" style="fill: #2ca02c; fill-opacity: 0.4"/>
   </g>
   <g id="PolyCollection_12">
    <path d="M 298.065 33.603288 
L 298.065 34.211959 
L 309.512105 35.0309 
L 320.959211 38.072307 
L 332.406316 42.608624 
L 343.853421 47.694861 
L 355.300526 54.910371 
L 366.747632 61.922968 
L 378.194737 69.928386 
L 389.641842 77.722349 
L 401.088947 85.584122 
L 412.536053 93.133295 
L 423.983158 101.250041 
L 435.430263 107.708174 
L 446.877368 115.632387 
L 458.324474 121.747796 
L 469.771579 128.040903 
L 481.218684 132.797195 
L 492.665789 138.577954 
L 504.112895 143.535766 
L 515.56 147.633798 
L 515.56 134.801073 
L 515.56 134.801073 
L 504.112895 130.328871 
L 492.665789 125.333743 
L 481.218684 120.02413 
L 469.771579 114.237226 
L 458.324474 108.437172 
L 446.877368 102.103179 
L 435.430263 95.978972 
L 423.983158 89.285766 
L 412.536053 82.269164 
L 401.088947 75.740606 
L 389.641842 68.028554 
L 378.194737 61.913979 
L 366.747632 55.567652 
L 355.300526 49.3759 
L 343.853421 44.369899 
L 332.406316 40.027397 
L 320.959211 36.831993 
L 309.512105 34.542639 
L 298.065 33.603288 
z
" clip-path="url(#p22e238442d)" style="fill: #d62728; fill-opacity: 0.4"/>
   </g>
   <g id="PolyCollection_13">
    <path d="M 298.065 33.578773 
L 298.065 34.198348 
L 309.512105 35.026932 
L 320.959211 38.057655 
L 332.406316 42.580843 
L 343.853421 47.621449 
L 355.300526 54.895817 
L 366.747632 62.039891 
L 378.194737 69.952962 
L 389.641842 77.860362 
L 401.088947 85.52492 
L 412.536053 93.123872 
L 423.983158 101.311456 
L 435.430263 107.961412 
L 446.877368 115.623035 
L 458.324474 121.601674 
L 469.771579 128.434755 
L 481.218684 132.730661 
L 492.665789 139.803889 
L 504.112895 143.550581 
L 515.56 147.918477 
L 515.56 134.916256 
L 515.56 134.916256 
L 504.112895 130.628086 
L 492.665789 125.917764 
L 481.218684 119.978424 
L 469.771579 113.954388 
L 458.324474 108.241871 
L 446.877368 102.548781 
L 435.430263 96.038818 
L 423.983158 89.396792 
L 412.536053 82.361385 
L 401.088947 75.779563 
L 389.641842 68.181554 
L 378.194737 62.017603 
L 366.747632 55.627763 
L 355.300526 49.471499 
L 343.853421 44.411264 
L 332.406316 40.110278 
L 320.959211 36.8408 
L 309.512105 34.528208 
L 298.065 33.578773 
z
" clip-path="url(#p22e238442d)" style="fill: #9467bd; fill-opacity: 0.4"/>
   </g>
   <g id="PolyCollection_14">
    <path d="M 298.065 33.595942 
L 298.065 34.204548 
L 309.512105 35.040225 
L 320.959211 38.074733 
L 332.406316 42.58141 
L 343.853421 47.637181 
L 355.300526 54.911268 
L 366.747632 62.052316 
L 378.194737 69.953833 
L 389.641842 77.865411 
L 401.088947 85.574458 
L 412.536053 93.173408 
L 423.983158 101.389542 
L 435.430263 108.014619 
L 446.877368 115.727793 
L 458.324474 121.742725 
L 469.771579 128.58039 
L 481.218684 132.965713 
L 492.665789 140.037165 
L 504.112895 143.839478 
L 515.56 148.170667 
L 515.56 135.017993 
L 515.56 135.017993 
L 504.112895 130.736357 
L 492.665789 126.087642 
L 481.218684 120.126985 
L 469.771579 114.085792 
L 458.324474 108.334075 
L 446.877368 102.67607 
L 435.430263 96.105068 
L 423.983158 89.46279 
L 412.536053 82.380422 
L 401.088947 75.799671 
L 389.641842 68.204835 
L 378.194737 62.010668 
L 366.747632 55.624269 
L 355.300526 49.482672 
L 343.853421 44.416449 
L 332.406316 40.115158 
L 320.959211 36.850195 
L 309.512105 34.540838 
L 298.065 33.595942 
z
" clip-path="url(#p22e238442d)" style="fill: #8c564b; fill-opacity: 0.4"/>
   </g>
   <g id="PolyCollection_15">
    <path d="M 298.065 47.271086 
L 298.065 50.497924 
L 309.512105 51.348857 
L 320.959211 53.425837 
L 332.406316 56.831599 
L 343.853421 60.973497 
L 355.300526 67.23051 
L 366.747632 73.685335 
L 378.194737 80.965475 
L 389.641842 88.157753 
L 401.088947 95.388929 
L 412.536053 102.611736 
L 423.983158 110.082075 
L 435.430263 116.057249 
L 446.877368 123.533416 
L 458.324474 129.362845 
L 469.771579 135.187905 
L 481.218684 139.693644 
L 492.665789 145.242775 
L 504.112895 149.74891 
L 515.56 153.671221 
L 515.56 142.379811 
L 515.56 142.379811 
L 504.112895 138.015629 
L 492.665789 133.749968 
L 481.218684 128.840434 
L 469.771579 123.698149 
L 458.324474 118.2684 
L 446.877368 112.643122 
L 435.430263 106.546858 
L 423.983158 100.479325 
L 412.536053 93.864417 
L 401.088947 88.185025 
L 389.641842 80.949712 
L 378.194737 75.155354 
L 366.747632 69.407089 
L 355.300526 63.723211 
L 343.853421 58.680887 
L 332.406316 54.28388 
L 320.959211 50.642524 
L 309.512105 47.983124 
L 298.065 47.271086 
z
" clip-path="url(#p22e238442d)" style="fill: #e377c2; fill-opacity: 0.4"/>
   </g>
   <g id="PolyCollection_16">
    <path d="M 298.065 33.597207 
L 298.065 34.204872 
L 309.512105 35.039972 
L 320.959211 38.064485 
L 332.406316 42.603459 
L 343.853421 47.657035 
L 355.300526 54.890023 
L 366.747632 61.882781 
L 378.194737 69.932329 
L 389.641842 77.7421 
L 401.088947 85.653757 
L 412.536053 93.292488 
L 423.983158 101.433388 
L 435.430263 107.873095 
L 446.877368 115.951204 
L 458.324474 122.164226 
L 469.771579 128.540713 
L 481.218684 133.331054 
L 492.665789 139.202831 
L 504.112895 144.344577 
L 515.56 148.482522 
L 515.56 135.059941 
L 515.56 135.059941 
L 504.112895 130.644553 
L 492.665789 125.763659 
L 481.218684 120.491063 
L 469.771579 114.643526 
L 458.324474 108.814568 
L 446.877368 102.456253 
L 435.430263 96.212838 
L 423.983158 89.503224 
L 412.536053 82.428458 
L 401.088947 75.897642 
L 389.641842 68.116258 
L 378.194737 62.002336 
L 366.747632 55.635436 
L 355.300526 49.430512 
L 343.853421 44.427811 
L 332.406316 40.056605 
L 320.959211 36.830077 
L 309.512105 34.546952 
L 298.065 33.597207 
z
" clip-path="url(#p22e238442d)" style="fill: #7f7f7f; fill-opacity: 0.4"/>
   </g>
   <g id="matplotlib.axis_3">
    <g id="xtick_6">
     <g id="line2d_18">
      <g>
       <use xlink:href="#me1c9bee390" x="298.065" y="174.04" style="stroke: #000000; stroke-width: 0.8"/>
      </g>
     </g>
     <g id="text_13">
      <!-- 0.0 -->
      <g transform="translate(290.113437 188.638438)scale(0.1 -0.1)">
       <use xlink:href="#DejaVuSans-30"/>
       <use xlink:href="#DejaVuSans-2e" x="63.623047"/>
       <use xlink:href="#DejaVuSans-30" x="95.410156"/>
      </g>
     </g>
    </g>
    <g id="xtick_7">
     <g id="line2d_19">
      <g>
       <use xlink:href="#me1c9bee390" x="352.43875" y="174.04" style="stroke: #000000; stroke-width: 0.8"/>
      </g>
     </g>
     <g id="text_14">
      <!-- 0.5 -->
      <g transform="translate(344.487187 188.638438)scale(0.1 -0.1)">
       <use xlink:href="#DejaVuSans-30"/>
       <use xlink:href="#DejaVuSans-2e" x="63.623047"/>
       <use xlink:href="#DejaVuSans-35" x="95.410156"/>
      </g>
     </g>
    </g>
    <g id="xtick_8">
     <g id="line2d_20">
      <g>
       <use xlink:href="#me1c9bee390" x="406.8125" y="174.04" style="stroke: #000000; stroke-width: 0.8"/>
      </g>
     </g>
     <g id="text_15">
      <!-- 1.0 -->
      <g transform="translate(398.860937 188.638438)scale(0.1 -0.1)">
       <use xlink:href="#DejaVuSans-31"/>
       <use xlink:href="#DejaVuSans-2e" x="63.623047"/>
       <use xlink:href="#DejaVuSans-30" x="95.410156"/>
      </g>
     </g>
    </g>
    <g id="xtick_9">
     <g id="line2d_21">
      <g>
       <use xlink:href="#me1c9bee390" x="461.18625" y="174.04" style="stroke: #000000; stroke-width: 0.8"/>
      </g>
     </g>
     <g id="text_16">
      <!-- 1.5 -->
      <g transform="translate(453.234687 188.638438)scale(0.1 -0.1)">
       <use xlink:href="#DejaVuSans-31"/>
       <use xlink:href="#DejaVuSans-2e" x="63.623047"/>
       <use xlink:href="#DejaVuSans-35" x="95.410156"/>
      </g>
     </g>
    </g>
    <g id="xtick_10">
     <g id="line2d_22">
      <g>
       <use xlink:href="#me1c9bee390" x="515.56" y="174.04" style="stroke: #000000; stroke-width: 0.8"/>
      </g>
     </g>
     <g id="text_17">
      <!-- 2.0 -->
      <g transform="translate(507.608437 188.638438)scale(0.1 -0.1)">
       <use xlink:href="#DejaVuSans-32"/>
       <use xlink:href="#DejaVuSans-2e" x="63.623047"/>
       <use xlink:href="#DejaVuSans-30" x="95.410156"/>
      </g>
     </g>
    </g>
    <g id="text_18">
     <!-- Influence of surprisal (multiplication) -->
     <g transform="translate(314.665625 202.316563)scale(0.1 -0.1)">
      <use xlink:href="#DejaVuSans-49"/>
      <use xlink:href="#DejaVuSans-6e" x="29.492188"/>
      <use xlink:href="#DejaVuSans-66" x="92.871094"/>
      <use xlink:href="#DejaVuSans-6c" x="128.076172"/>
      <use xlink:href="#DejaVuSans-75" x="155.859375"/>
      <use xlink:href="#DejaVuSans-65" x="219.238281"/>
      <use xlink:href="#DejaVuSans-6e" x="280.761719"/>
      <use xlink:href="#DejaVuSans-63" x="344.140625"/>
      <use xlink:href="#DejaVuSans-65" x="399.121094"/>
      <use xlink:href="#DejaVuSans-20" x="460.644531"/>
      <use xlink:href="#DejaVuSans-6f" x="492.431641"/>
      <use xlink:href="#DejaVuSans-66" x="553.613281"/>
      <use xlink:href="#DejaVuSans-20" x="588.818359"/>
      <use xlink:href="#DejaVuSans-73" x="620.605469"/>
      <use xlink:href="#DejaVuSans-75" x="672.705078"/>
      <use xlink:href="#DejaVuSans-72" x="736.083984"/>
      <use xlink:href="#DejaVuSans-70" x="777.197266"/>
      <use xlink:href="#DejaVuSans-72" x="840.673828"/>
      <use xlink:href="#DejaVuSans-69" x="881.787109"/>
      <use xlink:href="#DejaVuSans-73" x="909.570312"/>
      <use xlink:href="#DejaVuSans-61" x="961.669922"/>
      <use xlink:href="#DejaVuSans-6c" x="1022.949219"/>
      <use xlink:href="#DejaVuSans-20" x="1050.732422"/>
      <use xlink:href="#DejaVuSans-28" x="1082.519531"/>
      <use xlink:href="#DejaVuSans-6d" x="1121.533203"/>
      <use xlink:href="#DejaVuSans-75" x="1218.945312"/>
      <use xlink:href="#DejaVuSans-6c" x="1282.324219"/>
      <use xlink:href="#DejaVuSans-74" x="1310.107422"/>
      <use xlink:href="#DejaVuSans-69" x="1349.316406"/>
      <use xlink:href="#DejaVuSans-70" x="1377.099609"/>
      <use xlink:href="#DejaVuSans-6c" x="1440.576172"/>
      <use xlink:href="#DejaVuSans-69" x="1468.359375"/>
      <use xlink:href="#DejaVuSans-63" x="1496.142578"/>
      <use xlink:href="#DejaVuSans-61" x="1551.123047"/>
      <use xlink:href="#DejaVuSans-74" x="1612.402344"/>
      <use xlink:href="#DejaVuSans-69" x="1651.611328"/>
      <use xlink:href="#DejaVuSans-6f" x="1679.394531"/>
      <use xlink:href="#DejaVuSans-6e" x="1740.576172"/>
      <use xlink:href="#DejaVuSans-29" x="1803.955078"/>
     </g>
    </g>
   </g>
   <g id="line2d_23">
    <path d="M 298.065 33.879827 
L 309.512105 34.763915 
L 320.959211 37.426324 
L 332.406316 41.3069 
L 343.853421 45.995659 
L 355.300526 52.113275 
L 366.747632 58.728605 
L 378.194737 65.885739 
L 389.641842 72.862977 
L 401.088947 80.65071 
L 412.536053 87.677872 
L 423.983158 95.216566 
L 435.430263 101.775978 
L 446.877368 108.79036 
L 458.324474 115.029382 
L 469.771579 121.017108 
L 481.218684 126.266471 
L 492.665789 131.779963 
L 504.112895 136.709683 
L 515.56 141.044496 
" clip-path="url(#p22e238442d)" style="fill: none; stroke: #1f77b4; stroke-width: 1.5; stroke-linecap: square"/>
   </g>
   <g id="line2d_24">
    <path d="M 298.065 33.891083 
L 309.512105 34.776732 
L 320.959211 37.43859 
L 332.406316 41.309291 
L 343.853421 46.005934 
L 355.300526 52.126354 
L 366.747632 58.734328 
L 378.194737 65.88141 
L 389.641842 72.875612 
L 401.088947 80.68416 
L 412.536053 87.714819 
L 423.983158 95.289918 
L 435.430263 101.837029 
L 446.877368 108.900898 
L 458.324474 115.147236 
L 469.771579 121.164173 
L 481.218684 126.457037 
L 492.665789 131.974371 
L 504.112895 136.91684 
L 515.56 141.221279 
" clip-path="url(#p22e238442d)" style="fill: none; stroke: #ff7f0e; stroke-width: 1.5; stroke-linecap: square"/>
   </g>
   <g id="line2d_25">
    <path d="M 298.065 33.895549 
L 309.512105 34.772811 
L 320.959211 37.43773 
L 332.406316 41.302508 
L 343.853421 46.005475 
L 355.300526 52.115095 
L 366.747632 58.721867 
L 378.194737 65.901656 
L 389.641842 72.853073 
L 401.088947 80.624648 
L 412.536053 87.655608 
L 423.983158 95.200931 
L 435.430263 101.792226 
L 446.877368 108.7719 
L 458.324474 115.010324 
L 469.771579 121.040058 
L 481.218684 126.268689 
L 492.665789 131.812005 
L 504.112895 136.73539 
L 515.56 141.05491 
" clip-path="url(#p22e238442d)" style="fill: none; stroke: #2ca02c; stroke-width: 1.5; stroke-linecap: square"/>
   </g>
   <g id="line2d_26">
    <path d="M 298.065 33.907624 
L 309.512105 34.78677 
L 320.959211 37.45215 
L 332.406316 41.31801 
L 343.853421 46.03238 
L 355.300526 52.143135 
L 366.747632 58.74531 
L 378.194737 65.921182 
L 389.641842 72.875451 
L 401.088947 80.662364 
L 412.536053 87.701229 
L 423.983158 95.267903 
L 435.430263 101.843573 
L 446.877368 108.867783 
L 458.324474 115.092484 
L 469.771579 121.139065 
L 481.218684 126.410662 
L 492.665789 131.955848 
L 504.112895 136.932319 
L 515.56 141.217435 
" clip-path="url(#p22e238442d)" style="fill: none; stroke: #d62728; stroke-width: 1.5; stroke-linecap: square"/>
   </g>
   <g id="line2d_27">
    <path d="M 298.065 33.88856 
L 309.512105 34.77757 
L 320.959211 37.449227 
L 332.406316 41.34556 
L 343.853421 46.016357 
L 355.300526 52.183658 
L 366.747632 58.833827 
L 378.194737 65.985282 
L 389.641842 73.020958 
L 401.088947 80.652241 
L 412.536053 87.742628 
L 423.983158 95.354124 
L 435.430263 102.000115 
L 446.877368 109.085908 
L 458.324474 114.921772 
L 469.771579 121.194572 
L 481.218684 126.354543 
L 492.665789 132.860826 
L 504.112895 137.089333 
L 515.56 141.417366 
" clip-path="url(#p22e238442d)" style="fill: none; stroke: #9467bd; stroke-width: 1.5; stroke-linecap: square"/>
   </g>
   <g id="line2d_28">
    <path d="M 298.065 33.900245 
L 309.512105 34.790532 
L 320.959211 37.462464 
L 332.406316 41.348284 
L 343.853421 46.026815 
L 355.300526 52.19697 
L 366.747632 58.838292 
L 378.194737 65.98225 
L 389.641842 73.035123 
L 401.088947 80.687065 
L 412.536053 87.776915 
L 423.983158 95.426166 
L 435.430263 102.059844 
L 446.877368 109.201932 
L 458.324474 115.0384 
L 469.771579 121.333091 
L 481.218684 126.546349 
L 492.665789 133.062404 
L 504.112895 137.287918 
L 515.56 141.59433 
" clip-path="url(#p22e238442d)" style="fill: none; stroke: #8c564b; stroke-width: 1.5; stroke-linecap: square"/>
   </g>
   <g id="line2d_29">
    <path d="M 298.065 48.884505 
L 309.512105 49.665991 
L 320.959211 52.03418 
L 332.406316 55.55774 
L 343.853421 59.827192 
L 355.300526 65.476861 
L 366.747632 71.546212 
L 378.194737 78.060415 
L 389.641842 84.553732 
L 401.088947 91.786977 
L 412.536053 98.238077 
L 423.983158 105.2807 
L 435.430263 111.302054 
L 446.877368 118.088269 
L 458.324474 123.815623 
L 469.771579 129.443027 
L 481.218684 134.267039 
L 492.665789 139.496371 
L 504.112895 143.882269 
L 515.56 148.025516 
" clip-path="url(#p22e238442d)" style="fill: none; stroke: #e377c2; stroke-width: 1.5; stroke-linecap: square"/>
   </g>
   <g id="line2d_30">
    <path d="M 298.065 33.901039 
L 309.512105 34.793462 
L 320.959211 37.447281 
L 332.406316 41.330032 
L 343.853421 46.042423 
L 355.300526 52.160267 
L 366.747632 58.759108 
L 378.194737 65.967332 
L 389.641842 72.929179 
L 401.088947 80.775699 
L 412.536053 87.860473 
L 423.983158 95.468306 
L 435.430263 102.042966 
L 446.877368 109.203729 
L 458.324474 115.489397 
L 469.771579 121.592119 
L 481.218684 126.911058 
L 492.665789 132.483245 
L 504.112895 137.494565 
L 515.56 141.771232 
" clip-path="url(#p22e238442d)" style="fill: none; stroke: #7f7f7f; stroke-width: 1.5; stroke-linecap: square"/>
   </g>
   <g id="patch_6">
    <path d="M 298.065 174.04 
L 298.065 26.88 
" style="fill: none; stroke: #000000; stroke-width: 0.8; stroke-linejoin: miter; stroke-linecap: square"/>
   </g>
   <g id="patch_7">
    <path d="M 298.065 174.04 
L 515.56 174.04 
" style="fill: none; stroke: #000000; stroke-width: 0.8; stroke-linejoin: miter; stroke-linecap: square"/>
   </g>
   <g id="text_19">
    <!-- Node * third variable -->
    <g transform="translate(344.2325 20.88)scale(0.12 -0.12)">
     <defs>
      <path id="DejaVuSans-68" d="M 3513 2113 
L 3513 0 
L 2938 0 
L 2938 2094 
Q 2938 2591 2744 2837 
Q 2550 3084 2163 3084 
Q 1697 3084 1428 2787 
Q 1159 2491 1159 1978 
L 1159 0 
L 581 0 
L 581 4863 
L 1159 4863 
L 1159 2956 
Q 1366 3272 1645 3428 
Q 1925 3584 2291 3584 
Q 2894 3584 3203 3211 
Q 3513 2838 3513 2113 
z
" transform="scale(0.015625)"/>
      <path id="DejaVuSans-62" d="M 3116 1747 
Q 3116 2381 2855 2742 
Q 2594 3103 2138 3103 
Q 1681 3103 1420 2742 
Q 1159 2381 1159 1747 
Q 1159 1113 1420 752 
Q 1681 391 2138 391 
Q 2594 391 2855 752 
Q 3116 1113 3116 1747 
z
M 1159 2969 
Q 1341 3281 1617 3432 
Q 1894 3584 2278 3584 
Q 2916 3584 3314 3078 
Q 3713 2572 3713 1747 
Q 3713 922 3314 415 
Q 2916 -91 2278 -91 
Q 1894 -91 1617 61 
Q 1341 213 1159 525 
L 1159 0 
L 581 0 
L 581 4863 
L 1159 4863 
L 1159 2969 
z
" transform="scale(0.015625)"/>
     </defs>
     <use xlink:href="#DejaVuSans-4e"/>
     <use xlink:href="#DejaVuSans-6f" x="74.804688"/>
     <use xlink:href="#DejaVuSans-64" x="135.986328"/>
     <use xlink:href="#DejaVuSans-65" x="199.462891"/>
     <use xlink:href="#DejaVuSans-20" x="260.986328"/>
     <use xlink:href="#DejaVuSans-2a" x="292.773438"/>
     <use xlink:href="#DejaVuSans-20" x="342.773438"/>
     <use xlink:href="#DejaVuSans-74" x="374.560547"/>
     <use xlink:href="#DejaVuSans-68" x="413.769531"/>
     <use xlink:href="#DejaVuSans-69" x="477.148438"/>
     <use xlink:href="#DejaVuSans-72" x="504.931641"/>
     <use xlink:href="#DejaVuSans-64" x="544.294922"/>
     <use xlink:href="#DejaVuSans-20" x="607.771484"/>
     <use xlink:href="#DejaVuSans-76" x="639.558594"/>
     <use xlink:href="#DejaVuSans-61" x="698.738281"/>
     <use xlink:href="#DejaVuSans-72" x="760.017578"/>
     <use xlink:href="#DejaVuSans-69" x="801.130859"/>
     <use xlink:href="#DejaVuSans-61" x="828.914062"/>
     <use xlink:href="#DejaVuSans-62" x="890.193359"/>
     <use xlink:href="#DejaVuSans-6c" x="953.669922"/>
     <use xlink:href="#DejaVuSans-65" x="981.453125"/>
    </g>
   </g>
   <g id="legend_1">
    <g id="line2d_31">
     <path d="M 524.56 39.978437 
L 534.56 39.978437 
L 544.56 39.978437 
" style="fill: none; stroke: #1f77b4; stroke-width: 1.5; stroke-linecap: square"/>
    </g>
    <g id="text_20">
     <!-- Node -->
     <g transform="translate(552.56 43.478437)scale(0.1 -0.1)">
      <use xlink:href="#DejaVuSans-4e"/>
      <use xlink:href="#DejaVuSans-6f" x="74.804688"/>
      <use xlink:href="#DejaVuSans-64" x="135.986328"/>
      <use xlink:href="#DejaVuSans-65" x="199.462891"/>
     </g>
    </g>
    <g id="line2d_32">
     <path d="M 524.56 54.656563 
L 534.56 54.656563 
L 544.56 54.656563 
" style="fill: none; stroke: #ff7f0e; stroke-width: 1.5; stroke-linecap: square"/>
    </g>
    <g id="text_21">
     <!-- Node + surprisal -->
     <g transform="translate(552.56 58.156563)scale(0.1 -0.1)">
      <defs>
       <path id="DejaVuSans-2b" d="M 2944 4013 
L 2944 2272 
L 4684 2272 
L 4684 1741 
L 2944 1741 
L 2944 0 
L 2419 0 
L 2419 1741 
L 678 1741 
L 678 2272 
L 2419 2272 
L 2419 4013 
L 2944 4013 
z
" transform="scale(0.015625)"/>
      </defs>
      <use xlink:href="#DejaVuSans-4e"/>
      <use xlink:href="#DejaVuSans-6f" x="74.804688"/>
      <use xlink:href="#DejaVuSans-64" x="135.986328"/>
      <use xlink:href="#DejaVuSans-65" x="199.462891"/>
      <use xlink:href="#DejaVuSans-20" x="260.986328"/>
      <use xlink:href="#DejaVuSans-2b" x="292.773438"/>
      <use xlink:href="#DejaVuSans-20" x="376.5625"/>
      <use xlink:href="#DejaVuSans-73" x="408.349609"/>
      <use xlink:href="#DejaVuSans-75" x="460.449219"/>
      <use xlink:href="#DejaVuSans-72" x="523.828125"/>
      <use xlink:href="#DejaVuSans-70" x="564.941406"/>
      <use xlink:href="#DejaVuSans-72" x="628.417969"/>
      <use xlink:href="#DejaVuSans-69" x="669.53125"/>
      <use xlink:href="#DejaVuSans-73" x="697.314453"/>
      <use xlink:href="#DejaVuSans-61" x="749.414062"/>
      <use xlink:href="#DejaVuSans-6c" x="810.693359"/>
     </g>
    </g>
    <g id="line2d_33">
     <path d="M 524.56 69.334687 
L 534.56 69.334687 
L 544.56 69.334687 
" style="fill: none; stroke: #2ca02c; stroke-width: 1.5; stroke-linecap: square"/>
    </g>
    <g id="text_22">
     <!-- Node split -->
     <g transform="translate(552.56 72.834687)scale(0.1 -0.1)">
      <use xlink:href="#DejaVuSans-4e"/>
      <use xlink:href="#DejaVuSans-6f" x="74.804688"/>
      <use xlink:href="#DejaVuSans-64" x="135.986328"/>
      <use xlink:href="#DejaVuSans-65" x="199.462891"/>
      <use xlink:href="#DejaVuSans-20" x="260.986328"/>
      <use xlink:href="#DejaVuSans-73" x="292.773438"/>
      <use xlink:href="#DejaVuSans-70" x="344.873047"/>
      <use xlink:href="#DejaVuSans-6c" x="408.349609"/>
      <use xlink:href="#DejaVuSans-69" x="436.132812"/>
      <use xlink:href="#DejaVuSans-74" x="463.916016"/>
     </g>
    </g>
    <g id="line2d_34">
     <path d="M 524.56 84.012812 
L 534.56 84.012812 
L 544.56 84.012812 
" style="fill: none; stroke: #d62728; stroke-width: 1.5; stroke-linecap: square"/>
    </g>
    <g id="text_23">
     <!-- Node split + surprisal -->
     <g transform="translate(552.56 87.512812)scale(0.1 -0.1)">
      <use xlink:href="#DejaVuSans-4e"/>
      <use xlink:href="#DejaVuSans-6f" x="74.804688"/>
      <use xlink:href="#DejaVuSans-64" x="135.986328"/>
      <use xlink:href="#DejaVuSans-65" x="199.462891"/>
      <use xlink:href="#DejaVuSans-20" x="260.986328"/>
      <use xlink:href="#DejaVuSans-73" x="292.773438"/>
      <use xlink:href="#DejaVuSans-70" x="344.873047"/>
      <use xlink:href="#DejaVuSans-6c" x="408.349609"/>
      <use xlink:href="#DejaVuSans-69" x="436.132812"/>
      <use xlink:href="#DejaVuSans-74" x="463.916016"/>
      <use xlink:href="#DejaVuSans-20" x="503.125"/>
      <use xlink:href="#DejaVuSans-2b" x="534.912109"/>
      <use xlink:href="#DejaVuSans-20" x="618.701172"/>
      <use xlink:href="#DejaVuSans-73" x="650.488281"/>
      <use xlink:href="#DejaVuSans-75" x="702.587891"/>
      <use xlink:href="#DejaVuSans-72" x="765.966797"/>
      <use xlink:href="#DejaVuSans-70" x="807.080078"/>
      <use xlink:href="#DejaVuSans-72" x="870.556641"/>
      <use xlink:href="#DejaVuSans-69" x="911.669922"/>
      <use xlink:href="#DejaVuSans-73" x="939.453125"/>
      <use xlink:href="#DejaVuSans-61" x="991.552734"/>
      <use xlink:href="#DejaVuSans-6c" x="1052.832031"/>
     </g>
    </g>
    <g id="line2d_35">
     <path d="M 524.56 98.690937 
L 534.56 98.690937 
L 544.56 98.690937 
" style="fill: none; stroke: #9467bd; stroke-width: 1.5; stroke-linecap: square"/>
    </g>
    <g id="text_24">
     <!-- Node random split -->
     <g transform="translate(552.56 102.190937)scale(0.1 -0.1)">
      <use xlink:href="#DejaVuSans-4e"/>
      <use xlink:href="#DejaVuSans-6f" x="74.804688"/>
      <use xlink:href="#DejaVuSans-64" x="135.986328"/>
      <use xlink:href="#DejaVuSans-65" x="199.462891"/>
      <use xlink:href="#DejaVuSans-20" x="260.986328"/>
      <use xlink:href="#DejaVuSans-72" x="292.773438"/>
      <use xlink:href="#DejaVuSans-61" x="333.886719"/>
      <use xlink:href="#DejaVuSans-6e" x="395.166016"/>
      <use xlink:href="#DejaVuSans-64" x="458.544922"/>
      <use xlink:href="#DejaVuSans-6f" x="522.021484"/>
      <use xlink:href="#DejaVuSans-6d" x="583.203125"/>
      <use xlink:href="#DejaVuSans-20" x="680.615234"/>
      <use xlink:href="#DejaVuSans-73" x="712.402344"/>
      <use xlink:href="#DejaVuSans-70" x="764.501953"/>
      <use xlink:href="#DejaVuSans-6c" x="827.978516"/>
      <use xlink:href="#DejaVuSans-69" x="855.761719"/>
      <use xlink:href="#DejaVuSans-74" x="883.544922"/>
     </g>
    </g>
    <g id="line2d_36">
     <path d="M 524.56 113.369062 
L 534.56 113.369062 
L 544.56 113.369062 
" style="fill: none; stroke: #8c564b; stroke-width: 1.5; stroke-linecap: square"/>
    </g>
    <g id="text_25">
     <!-- Node random split + surprisal -->
     <g transform="translate(552.56 116.869062)scale(0.1 -0.1)">
      <use xlink:href="#DejaVuSans-4e"/>
      <use xlink:href="#DejaVuSans-6f" x="74.804688"/>
      <use xlink:href="#DejaVuSans-64" x="135.986328"/>
      <use xlink:href="#DejaVuSans-65" x="199.462891"/>
      <use xlink:href="#DejaVuSans-20" x="260.986328"/>
      <use xlink:href="#DejaVuSans-72" x="292.773438"/>
      <use xlink:href="#DejaVuSans-61" x="333.886719"/>
      <use xlink:href="#DejaVuSans-6e" x="395.166016"/>
      <use xlink:href="#DejaVuSans-64" x="458.544922"/>
      <use xlink:href="#DejaVuSans-6f" x="522.021484"/>
      <use xlink:href="#DejaVuSans-6d" x="583.203125"/>
      <use xlink:href="#DejaVuSans-20" x="680.615234"/>
      <use xlink:href="#DejaVuSans-73" x="712.402344"/>
      <use xlink:href="#DejaVuSans-70" x="764.501953"/>
      <use xlink:href="#DejaVuSans-6c" x="827.978516"/>
      <use xlink:href="#DejaVuSans-69" x="855.761719"/>
      <use xlink:href="#DejaVuSans-74" x="883.544922"/>
      <use xlink:href="#DejaVuSans-20" x="922.753906"/>
      <use xlink:href="#DejaVuSans-2b" x="954.541016"/>
      <use xlink:href="#DejaVuSans-20" x="1038.330078"/>
      <use xlink:href="#DejaVuSans-73" x="1070.117188"/>
      <use xlink:href="#DejaVuSans-75" x="1122.216797"/>
      <use xlink:href="#DejaVuSans-72" x="1185.595703"/>
      <use xlink:href="#DejaVuSans-70" x="1226.708984"/>
      <use xlink:href="#DejaVuSans-72" x="1290.185547"/>
      <use xlink:href="#DejaVuSans-69" x="1331.298828"/>
      <use xlink:href="#DejaVuSans-73" x="1359.082031"/>
      <use xlink:href="#DejaVuSans-61" x="1411.181641"/>
      <use xlink:href="#DejaVuSans-6c" x="1472.460938"/>
     </g>
    </g>
    <g id="line2d_37">
     <path d="M 524.56 128.047187 
L 534.56 128.047187 
L 544.56 128.047187 
" style="fill: none; stroke: #e377c2; stroke-width: 1.5; stroke-linecap: square"/>
    </g>
    <g id="text_26">
     <!-- Interaction -->
     <g transform="translate(552.56 131.547187)scale(0.1 -0.1)">
      <use xlink:href="#DejaVuSans-49"/>
      <use xlink:href="#DejaVuSans-6e" x="29.492188"/>
      <use xlink:href="#DejaVuSans-74" x="92.871094"/>
      <use xlink:href="#DejaVuSans-65" x="132.080078"/>
      <use xlink:href="#DejaVuSans-72" x="193.603516"/>
      <use xlink:href="#DejaVuSans-61" x="234.716797"/>
      <use xlink:href="#DejaVuSans-63" x="295.996094"/>
      <use xlink:href="#DejaVuSans-74" x="350.976562"/>
      <use xlink:href="#DejaVuSans-69" x="390.185547"/>
      <use xlink:href="#DejaVuSans-6f" x="417.96875"/>
      <use xlink:href="#DejaVuSans-6e" x="479.150391"/>
     </g>
    </g>
    <g id="line2d_38">
     <path d="M 524.56 142.725312 
L 534.56 142.725312 
L 544.56 142.725312 
" style="fill: none; stroke: #7f7f7f; stroke-width: 1.5; stroke-linecap: square"/>
    </g>
    <g id="text_27">
     <!-- Node + surprisal + interaction -->
     <g transform="translate(552.56 146.225312)scale(0.1 -0.1)">
      <use xlink:href="#DejaVuSans-4e"/>
      <use xlink:href="#DejaVuSans-6f" x="74.804688"/>
      <use xlink:href="#DejaVuSans-64" x="135.986328"/>
      <use xlink:href="#DejaVuSans-65" x="199.462891"/>
      <use xlink:href="#DejaVuSans-20" x="260.986328"/>
      <use xlink:href="#DejaVuSans-2b" x="292.773438"/>
      <use xlink:href="#DejaVuSans-20" x="376.5625"/>
      <use xlink:href="#DejaVuSans-73" x="408.349609"/>
      <use xlink:href="#DejaVuSans-75" x="460.449219"/>
      <use xlink:href="#DejaVuSans-72" x="523.828125"/>
      <use xlink:href="#DejaVuSans-70" x="564.941406"/>
      <use xlink:href="#DejaVuSans-72" x="628.417969"/>
      <use xlink:href="#DejaVuSans-69" x="669.53125"/>
      <use xlink:href="#DejaVuSans-73" x="697.314453"/>
      <use xlink:href="#DejaVuSans-61" x="749.414062"/>
      <use xlink:href="#DejaVuSans-6c" x="810.693359"/>
      <use xlink:href="#DejaVuSans-20" x="838.476562"/>
      <use xlink:href="#DejaVuSans-2b" x="870.263672"/>
      <use xlink:href="#DejaVuSans-20" x="954.052734"/>
      <use xlink:href="#DejaVuSans-69" x="985.839844"/>
      <use xlink:href="#DejaVuSans-6e" x="1013.623047"/>
      <use xlink:href="#DejaVuSans-74" x="1077.001953"/>
      <use xlink:href="#DejaVuSans-65" x="1116.210938"/>
      <use xlink:href="#DejaVuSans-72" x="1177.734375"/>
      <use xlink:href="#DejaVuSans-61" x="1218.847656"/>
      <use xlink:href="#DejaVuSans-63" x="1280.126953"/>
      <use xlink:href="#DejaVuSans-74" x="1335.107422"/>
      <use xlink:href="#DejaVuSans-69" x="1374.316406"/>
      <use xlink:href="#DejaVuSans-6f" x="1402.099609"/>
      <use xlink:href="#DejaVuSans-6e" x="1463.28125"/>
     </g>
    </g>
   </g>
  </g>
 </g>
 <defs>
  <clipPath id="p1cbd1a8dee">
   <rect x="47.72" y="26.88" width="217.495" height="147.16"/>
  </clipPath>
  <clipPath id="p22e238442d">
   <rect x="298.065" y="26.88" width="217.495" height="147.16"/>
  </clipPath>
 </defs>
</svg>
