<?xml version="1.0" encoding="utf-8" standalone="no"?>
<!DOCTYPE svg PUBLIC "-//W3C//DTD SVG 1.1//EN"
  "http://www.w3.org/Graphics/SVG/1.1/DTD/svg11.dtd">
<svg xmlns:xlink="http://www.w3.org/1999/xlink" width="720pt" height="216pt" viewBox="0 0 720 216" xmlns="http://www.w3.org/2000/svg" version="1.1">
 <metadata>
  <rdf:RDF xmlns:dc="http://purl.org/dc/elements/1.1/" xmlns:cc="http://creativecommons.org/ns#" xmlns:rdf="http://www.w3.org/1999/02/22-rdf-syntax-ns#">
   <cc:Work>
    <dc:type rdf:resource="http://purl.org/dc/dcmitype/StillImage"/>
    <dc:date>2024-01-15T21:14:48.303270</dc:date>
    <dc:format>image/svg+xml</dc:format>
    <dc:creator>
     <cc:Agent>
      <dc:title>Matplotlib v3.5.1, https://matplotlib.org/</dc:title>
     </cc:Agent>
    </dc:creator>
   </cc:Work>
  </rdf:RDF>
 </metadata>
 <defs>
  <style type="text/css">*{stroke-linejoin: round; stroke-linecap: butt}</style>
 </defs>
 <g id="figure_1">
  <g id="patch_1">
   <path d="M 0 216 
L 720 216 
L 720 0 
L 0 0 
z
" style="fill: #ffffff"/>
  </g>
  <g id="axes_1">
   <g id="patch_2">
    <path d="M 47.72 174.04 
L 265.215 174.04 
L 265.215 26.88 
L 47.72 26.88 
z
" style="fill: #ffffff"/>
   </g>
   <g id="PolyCollection_1">
    <path d="M 47.72 33.569091 
L 47.72 34.319382 
L 59.167105 35.410477 
L 70.614211 38.075382 
L 82.061316 42.637392 
L 93.508421 48.446263 
L 104.955526 55.308172 
L 116.402632 62.88163 
L 127.849737 70.490159 
L 139.296842 79.060994 
L 150.743947 86.765498 
L 162.191053 94.283517 
L 173.638158 101.621647 
L 185.085263 108.664621 
L 196.532368 115.302438 
L 207.979474 122.398787 
L 219.426579 128.086327 
L 230.873684 134.269625 
L 242.320789 139.394151 
L 253.767895 145.438418 
L 265.215 150.122514 
L 265.215 137.850159 
L 265.215 137.850159 
L 253.767895 132.138391 
L 242.320789 127.218087 
L 230.873684 121.18236 
L 219.426579 115.171901 
L 207.979474 108.782896 
L 196.532368 102.437277 
L 185.085263 94.918081 
L 173.638158 88.20186 
L 162.191053 81.864022 
L 150.743947 74.320496 
L 139.296842 68.10544 
L 127.849737 61.145179 
L 116.402632 55.046868 
L 104.955526 49.487621 
L 93.508421 44.032499 
L 82.061316 40.265117 
L 70.614211 36.940826 
L 59.167105 34.310672 
L 47.72 33.569091 
z
" clip-path="url(#p0a49b41e32)" style="fill: #1f77b4; fill-opacity: 0.4"/>
   </g>
   <g id="PolyCollection_2">
    <path d="M 47.72 33.589297 
L 47.72 34.339924 
L 59.167105 35.039148 
L 70.614211 36.318706 
L 82.061316 38.57636 
L 93.508421 41.874678 
L 104.955526 46.104459 
L 116.402632 51.408715 
L 127.849737 56.974122 
L 139.296842 64.059146 
L 150.743947 70.346883 
L 162.191053 77.160142 
L 173.638158 83.977599 
L 185.085263 91.036681 
L 196.532368 97.511015 
L 207.979474 104.564177 
L 219.426579 110.553637 
L 230.873684 116.990534 
L 242.320789 122.136089 
L 253.767895 128.508441 
L 265.215 133.699676 
L 265.215 117.775152 
L 265.215 117.775152 
L 253.767895 112.436934 
L 242.320789 107.718856 
L 230.873684 102.270431 
L 219.426579 96.878162 
L 207.979474 91.330119 
L 196.532368 85.302011 
L 185.085263 78.698559 
L 173.638158 73.000614 
L 162.191053 67.239741 
L 150.743947 61.105435 
L 139.296842 56.016072 
L 127.849737 50.771272 
L 116.402632 46.440266 
L 104.955526 42.798106 
L 93.508421 39.273992 
L 82.061316 37.346541 
L 70.614211 35.305589 
L 59.167105 34.021582 
L 47.72 33.589297 
z
" clip-path="url(#p0a49b41e32)" style="fill: #ff7f0e; fill-opacity: 0.4"/>
   </g>
   <g id="PolyCollection_3">
    <path d="M 47.72 33.590319 
L 47.72 34.343096 
L 59.167105 35.214136 
L 70.614211 36.278448 
L 82.061316 38.278354 
L 93.508421 41.024778 
L 104.955526 44.122355 
L 116.402632 47.495053 
L 127.849737 51.229282 
L 139.296842 54.960437 
L 150.743947 58.789235 
L 162.191053 62.557492 
L 173.638158 66.265901 
L 185.085263 69.979851 
L 196.532368 72.876597 
L 207.979474 77.182995 
L 219.426579 80.342312 
L 230.873684 84.436255 
L 242.320789 87.559916 
L 253.767895 90.682333 
L 265.215 94.515198 
L 265.215 85.629761 
L 265.215 85.629761 
L 253.767895 81.783636 
L 242.320789 78.414133 
L 230.873684 74.85163 
L 219.426579 71.551276 
L 207.979474 68.209205 
L 196.532368 65.19107 
L 185.085263 61.37963 
L 173.638158 58.027645 
L 162.191053 55.316094 
L 150.743947 51.720565 
L 139.296842 48.948656 
L 127.849737 45.965713 
L 116.402632 43.359896 
L 104.955526 40.943739 
L 93.508421 38.520311 
L 82.061316 37.150861 
L 70.614211 35.432527 
L 59.167105 34.167764 
L 47.72 33.590319 
z
" clip-path="url(#p0a49b41e32)" style="fill: #2ca02c; fill-opacity: 0.4"/>
   </g>
   <g id="PolyCollection_4">
    <path d="M 47.72 33.604681 
L 47.72 34.353931 
L 59.167105 35.032536 
L 70.614211 35.762101 
L 82.061316 37.106908 
L 93.508421 39.194087 
L 104.955526 41.542439 
L 116.402632 44.524576 
L 127.849737 47.871702 
L 139.296842 51.600013 
L 150.743947 55.352201 
L 162.191053 59.263432 
L 173.638158 63.162214 
L 185.085263 67.113979 
L 196.532368 70.24299 
L 207.979474 74.831316 
L 219.426579 78.301645 
L 230.873684 82.65751 
L 242.320789 85.977004 
L 253.767895 89.229202 
L 265.215 93.14326 
L 265.215 84.071436 
L 265.215 84.071436 
L 253.767895 80.083229 
L 242.320789 76.667203 
L 230.873684 72.977756 
L 219.426579 69.523315 
L 207.979474 66.016343 
L 196.532368 62.891698 
L 185.085263 58.959196 
L 173.638158 55.514341 
L 162.191053 52.643849 
L 150.743947 49.045341 
L 139.296842 46.34261 
L 127.849737 43.484531 
L 116.402632 41.210985 
L 104.955526 39.234627 
L 93.508421 37.113846 
L 82.061316 36.27255 
L 70.614211 34.875657 
L 59.167105 34.028671 
L 47.72 33.604681 
z
" clip-path="url(#p0a49b41e32)" style="fill: #d62728; fill-opacity: 0.4"/>
   </g>
   <g id="PolyCollection_5">
    <path d="M 47.72 33.582059 
L 47.72 34.333161 
L 59.167105 35.418846 
L 70.614211 38.094624 
L 82.061316 42.667891 
L 93.508421 48.521891 
L 104.955526 55.419671 
L 116.402632 62.898276 
L 127.849737 70.617247 
L 139.296842 79.118141 
L 150.743947 86.976624 
L 162.191053 94.356991 
L 173.638158 101.878122 
L 185.085263 108.986191 
L 196.532368 115.472562 
L 207.979474 122.530378 
L 219.426579 128.549073 
L 230.873684 134.824978 
L 242.320789 139.551164 
L 253.767895 145.487455 
L 265.215 150.234453 
L 265.215 138.23565 
L 265.215 138.23565 
L 253.767895 132.402887 
L 242.320789 127.912319 
L 230.873684 122.279846 
L 219.426579 115.879409 
L 207.979474 109.482092 
L 196.532368 102.967579 
L 185.085263 95.199797 
L 173.638158 88.39732 
L 162.191053 81.909078 
L 150.743947 74.274123 
L 139.296842 68.204548 
L 127.849737 61.300779 
L 116.402632 54.993089 
L 104.955526 49.486275 
L 93.508421 44.085791 
L 82.061316 40.30036 
L 70.614211 36.96174 
L 59.167105 34.320819 
L 47.72 33.582059 
z
" clip-path="url(#p0a49b41e32)" style="fill: #9467bd; fill-opacity: 0.4"/>
   </g>
   <g id="PolyCollection_6">
    <path d="M 47.72 33.602288 
L 47.72 34.354313 
L 59.167105 35.049296 
L 70.614211 36.337237 
L 82.061316 38.601467 
L 93.508421 41.925875 
L 104.955526 46.15962 
L 116.402632 51.403459 
L 127.849737 57.061675 
L 139.296842 64.128945 
L 150.743947 70.344801 
L 162.191053 77.140521 
L 173.638158 84.154474 
L 185.085263 91.272856 
L 196.532368 97.572945 
L 207.979474 104.625752 
L 219.426579 110.598234 
L 230.873684 117.413768 
L 242.320789 122.392187 
L 253.767895 128.83205 
L 265.215 133.277632 
L 265.215 118.106853 
L 265.215 118.106853 
L 253.767895 112.366506 
L 242.320789 107.95356 
L 230.873684 102.851517 
L 219.426579 97.232426 
L 207.979474 91.57679 
L 196.532368 85.637122 
L 185.085263 78.99829 
L 173.638158 73.105546 
L 162.191053 67.394449 
L 150.743947 61.166764 
L 139.296842 56.048698 
L 127.849737 50.841954 
L 116.402632 46.437922 
L 104.955526 42.853295 
L 93.508421 39.306822 
L 82.061316 37.387839 
L 70.614211 35.318263 
L 59.167105 34.032352 
L 47.72 33.602288 
z
" clip-path="url(#p0a49b41e32)" style="fill: #8c564b; fill-opacity: 0.4"/>
   </g>
   <g id="PolyCollection_7">
    <path d="M 47.72 46.235223 
L 47.72 49.667039 
L 59.167105 51.246787 
L 70.614211 54.655523 
L 82.061316 60.700611 
L 93.508421 67.70861 
L 104.955526 76.159972 
L 116.402632 84.558779 
L 127.849737 93.439867 
L 139.296842 102.567331 
L 150.743947 110.861892 
L 162.191053 118.626097 
L 173.638158 125.983976 
L 185.085263 132.712641 
L 196.532368 138.851862 
L 207.979474 144.975971 
L 219.426579 149.857496 
L 230.873684 154.754469 
L 242.320789 158.930816 
L 253.767895 163.443187 
L 265.215 167.350909 
L 265.215 152.293812 
L 265.215 152.293812 
L 253.767895 147.25259 
L 242.320789 142.239935 
L 230.873684 136.690991 
L 219.426579 130.953099 
L 207.979474 124.637192 
L 196.532368 118.354082 
L 185.085263 110.999275 
L 173.638158 104.387786 
L 162.191053 98.174469 
L 150.743947 90.880286 
L 139.296842 84.353384 
L 127.849737 77.172455 
L 116.402632 70.691043 
L 104.955526 64.303952 
L 93.508421 58.171314 
L 82.061316 53.658662 
L 70.614211 49.878828 
L 59.167105 47.086656 
L 47.72 46.235223 
z
" clip-path="url(#p0a49b41e32)" style="fill: #e377c2; fill-opacity: 0.4"/>
   </g>
   <g id="PolyCollection_8">
    <path d="M 47.72 33.611809 
L 47.72 34.356511 
L 59.167105 34.731582 
L 70.614211 34.778028 
L 82.061316 35.30829 
L 93.508421 36.624312 
L 104.955526 39.002995 
L 116.402632 42.414897 
L 127.849737 46.840576 
L 139.296842 52.308983 
L 150.743947 57.828976 
L 162.191053 64.14412 
L 173.638158 70.676763 
L 185.085263 77.353974 
L 196.532368 83.838764 
L 207.979474 90.85323 
L 219.426579 96.772511 
L 230.873684 103.382489 
L 242.320789 108.486435 
L 253.767895 114.449728 
L 265.215 119.656306 
L 265.215 102.1909 
L 265.215 102.1909 
L 253.767895 95.701096 
L 242.320789 90.297669 
L 230.873684 84.426388 
L 219.426579 79.028267 
L 207.979474 73.717956 
L 196.532368 68.285211 
L 185.085263 62.672381 
L 173.638158 57.687287 
L 162.191053 53.163172 
L 150.743947 48.431175 
L 139.296842 44.601324 
L 127.849737 40.852805 
L 116.402632 38.326607 
L 104.955526 36.476116 
L 93.508421 34.955137 
L 82.061316 34.64351 
L 70.614211 33.901852 
L 59.167105 33.778822 
L 47.72 33.611809 
z
" clip-path="url(#p0a49b41e32)" style="fill: #7f7f7f; fill-opacity: 0.4"/>
   </g>
   <g id="matplotlib.axis_1">
    <g id="xtick_1">
     <g id="line2d_1">
      <defs>
       <path id="m6b0b7d325f" d="M 0 0 
L 0 3.5 
" style="stroke: #000000; stroke-width: 0.8"/>
      </defs>
      <g>
       <use xlink:href="#m6b0b7d325f" x="47.72" y="174.04" style="stroke: #000000; stroke-width: 0.8"/>
      </g>
     </g>
     <g id="text_1">
      <!-- 0.0 -->
      <g transform="translate(39.768438 188.638438)scale(0.1 -0.1)">
       <defs>
        <path id="DejaVuSans-30" d="M 2034 4250 
Q 1547 4250 1301 3770 
Q 1056 3291 1056 2328 
Q 1056 1369 1301 889 
Q 1547 409 2034 409 
Q 2525 409 2770 889 
Q 3016 1369 3016 2328 
Q 3016 3291 2770 3770 
Q 2525 4250 2034 4250 
z
M 2034 4750 
Q 2819 4750 3233 4129 
Q 3647 3509 3647 2328 
Q 3647 1150 3233 529 
Q 2819 -91 2034 -91 
Q 1250 -91 836 529 
Q 422 1150 422 2328 
Q 422 3509 836 4129 
Q 1250 4750 2034 4750 
z
" transform="scale(0.015625)"/>
        <path id="DejaVuSans-2e" d="M 684 794 
L 1344 794 
L 1344 0 
L 684 0 
L 684 794 
z
" transform="scale(0.015625)"/>
       </defs>
       <use xlink:href="#DejaVuSans-30"/>
       <use xlink:href="#DejaVuSans-2e" x="63.623047"/>
       <use xlink:href="#DejaVuSans-30" x="95.410156"/>
      </g>
     </g>
    </g>
    <g id="xtick_2">
     <g id="line2d_2">
      <g>
       <use xlink:href="#m6b0b7d325f" x="102.09375" y="174.04" style="stroke: #000000; stroke-width: 0.8"/>
      </g>
     </g>
     <g id="text_2">
      <!-- 0.5 -->
      <g transform="translate(94.142188 188.638438)scale(0.1 -0.1)">
       <defs>
        <path id="DejaVuSans-35" d="M 691 4666 
L 3169 4666 
L 3169 4134 
L 1269 4134 
L 1269 2991 
Q 1406 3038 1543 3061 
Q 1681 3084 1819 3084 
Q 2600 3084 3056 2656 
Q 3513 2228 3513 1497 
Q 3513 744 3044 326 
Q 2575 -91 1722 -91 
Q 1428 -91 1123 -41 
Q 819 9 494 109 
L 494 744 
Q 775 591 1075 516 
Q 1375 441 1709 441 
Q 2250 441 2565 725 
Q 2881 1009 2881 1497 
Q 2881 1984 2565 2268 
Q 2250 2553 1709 2553 
Q 1456 2553 1204 2497 
Q 953 2441 691 2322 
L 691 4666 
z
" transform="scale(0.015625)"/>
       </defs>
       <use xlink:href="#DejaVuSans-30"/>
       <use xlink:href="#DejaVuSans-2e" x="63.623047"/>
       <use xlink:href="#DejaVuSans-35" x="95.410156"/>
      </g>
     </g>
    </g>
    <g id="xtick_3">
     <g id="line2d_3">
      <g>
       <use xlink:href="#m6b0b7d325f" x="156.4675" y="174.04" style="stroke: #000000; stroke-width: 0.8"/>
      </g>
     </g>
     <g id="text_3">
      <!-- 1.0 -->
      <g transform="translate(148.515938 188.638438)scale(0.1 -0.1)">
       <defs>
        <path id="DejaVuSans-31" d="M 794 531 
L 1825 531 
L 1825 4091 
L 703 3866 
L 703 4441 
L 1819 4666 
L 2450 4666 
L 2450 531 
L 3481 531 
L 3481 0 
L 794 0 
L 794 531 
z
" transform="scale(0.015625)"/>
       </defs>
       <use xlink:href="#DejaVuSans-31"/>
       <use xlink:href="#DejaVuSans-2e" x="63.623047"/>
       <use xlink:href="#DejaVuSans-30" x="95.410156"/>
      </g>
     </g>
    </g>
    <g id="xtick_4">
     <g id="line2d_4">
      <g>
       <use xlink:href="#m6b0b7d325f" x="210.84125" y="174.04" style="stroke: #000000; stroke-width: 0.8"/>
      </g>
     </g>
     <g id="text_4">
      <!-- 1.5 -->
      <g transform="translate(202.889687 188.638438)scale(0.1 -0.1)">
       <use xlink:href="#DejaVuSans-31"/>
       <use xlink:href="#DejaVuSans-2e" x="63.623047"/>
       <use xlink:href="#DejaVuSans-35" x="95.410156"/>
      </g>
     </g>
    </g>
    <g id="xtick_5">
     <g id="line2d_5">
      <g>
       <use xlink:href="#m6b0b7d325f" x="265.215" y="174.04" style="stroke: #000000; stroke-width: 0.8"/>
      </g>
     </g>
     <g id="text_5">
      <!-- 2.0 -->
      <g transform="translate(257.263437 188.638438)scale(0.1 -0.1)">
       <defs>
        <path id="DejaVuSans-32" d="M 1228 531 
L 3431 531 
L 3431 0 
L 469 0 
L 469 531 
Q 828 903 1448 1529 
Q 2069 2156 2228 2338 
Q 2531 2678 2651 2914 
Q 2772 3150 2772 3378 
Q 2772 3750 2511 3984 
Q 2250 4219 1831 4219 
Q 1534 4219 1204 4116 
Q 875 4013 500 3803 
L 500 4441 
Q 881 4594 1212 4672 
Q 1544 4750 1819 4750 
Q 2544 4750 2975 4387 
Q 3406 4025 3406 3419 
Q 3406 3131 3298 2873 
Q 3191 2616 2906 2266 
Q 2828 2175 2409 1742 
Q 1991 1309 1228 531 
z
" transform="scale(0.015625)"/>
       </defs>
       <use xlink:href="#DejaVuSans-32"/>
       <use xlink:href="#DejaVuSans-2e" x="63.623047"/>
       <use xlink:href="#DejaVuSans-30" x="95.410156"/>
      </g>
     </g>
    </g>
    <g id="text_6">
     <!-- Influence of surprisal (multiplication) -->
     <g transform="translate(64.320625 202.316563)scale(0.1 -0.1)">
      <defs>
       <path id="DejaVuSans-49" d="M 628 4666 
L 1259 4666 
L 1259 0 
L 628 0 
L 628 4666 
z
" transform="scale(0.015625)"/>
       <path id="DejaVuSans-6e" d="M 3513 2113 
L 3513 0 
L 2938 0 
L 2938 2094 
Q 2938 2591 2744 2837 
Q 2550 3084 2163 3084 
Q 1697 3084 1428 2787 
Q 1159 2491 1159 1978 
L 1159 0 
L 581 0 
L 581 3500 
L 1159 3500 
L 1159 2956 
Q 1366 3272 1645 3428 
Q 1925 3584 2291 3584 
Q 2894 3584 3203 3211 
Q 3513 2838 3513 2113 
z
" transform="scale(0.015625)"/>
       <path id="DejaVuSans-66" d="M 2375 4863 
L 2375 4384 
L 1825 4384 
Q 1516 4384 1395 4259 
Q 1275 4134 1275 3809 
L 1275 3500 
L 2222 3500 
L 2222 3053 
L 1275 3053 
L 1275 0 
L 697 0 
L 697 3053 
L 147 3053 
L 147 3500 
L 697 3500 
L 697 3744 
Q 697 4328 969 4595 
Q 1241 4863 1831 4863 
L 2375 4863 
z
" transform="scale(0.015625)"/>
       <path id="DejaVuSans-6c" d="M 603 4863 
L 1178 4863 
L 1178 0 
L 603 0 
L 603 4863 
z
" transform="scale(0.015625)"/>
       <path id="DejaVuSans-75" d="M 544 1381 
L 544 3500 
L 1119 3500 
L 1119 1403 
Q 1119 906 1312 657 
Q 1506 409 1894 409 
Q 2359 409 2629 706 
Q 2900 1003 2900 1516 
L 2900 3500 
L 3475 3500 
L 3475 0 
L 2900 0 
L 2900 538 
Q 2691 219 2414 64 
Q 2138 -91 1772 -91 
Q 1169 -91 856 284 
Q 544 659 544 1381 
z
M 1991 3584 
L 1991 3584 
z
" transform="scale(0.015625)"/>
       <path id="DejaVuSans-65" d="M 3597 1894 
L 3597 1613 
L 953 1613 
Q 991 1019 1311 708 
Q 1631 397 2203 397 
Q 2534 397 2845 478 
Q 3156 559 3463 722 
L 3463 178 
Q 3153 47 2828 -22 
Q 2503 -91 2169 -91 
Q 1331 -91 842 396 
Q 353 884 353 1716 
Q 353 2575 817 3079 
Q 1281 3584 2069 3584 
Q 2775 3584 3186 3129 
Q 3597 2675 3597 1894 
z
M 3022 2063 
Q 3016 2534 2758 2815 
Q 2500 3097 2075 3097 
Q 1594 3097 1305 2825 
Q 1016 2553 972 2059 
L 3022 2063 
z
" transform="scale(0.015625)"/>
       <path id="DejaVuSans-63" d="M 3122 3366 
L 3122 2828 
Q 2878 2963 2633 3030 
Q 2388 3097 2138 3097 
Q 1578 3097 1268 2742 
Q 959 2388 959 1747 
Q 959 1106 1268 751 
Q 1578 397 2138 397 
Q 2388 397 2633 464 
Q 2878 531 3122 666 
L 3122 134 
Q 2881 22 2623 -34 
Q 2366 -91 2075 -91 
Q 1284 -91 818 406 
Q 353 903 353 1747 
Q 353 2603 823 3093 
Q 1294 3584 2113 3584 
Q 2378 3584 2631 3529 
Q 2884 3475 3122 3366 
z
" transform="scale(0.015625)"/>
       <path id="DejaVuSans-20" transform="scale(0.015625)"/>
       <path id="DejaVuSans-6f" d="M 1959 3097 
Q 1497 3097 1228 2736 
Q 959 2375 959 1747 
Q 959 1119 1226 758 
Q 1494 397 1959 397 
Q 2419 397 2687 759 
Q 2956 1122 2956 1747 
Q 2956 2369 2687 2733 
Q 2419 3097 1959 3097 
z
M 1959 3584 
Q 2709 3584 3137 3096 
Q 3566 2609 3566 1747 
Q 3566 888 3137 398 
Q 2709 -91 1959 -91 
Q 1206 -91 779 398 
Q 353 888 353 1747 
Q 353 2609 779 3096 
Q 1206 3584 1959 3584 
z
" transform="scale(0.015625)"/>
       <path id="DejaVuSans-73" d="M 2834 3397 
L 2834 2853 
Q 2591 2978 2328 3040 
Q 2066 3103 1784 3103 
Q 1356 3103 1142 2972 
Q 928 2841 928 2578 
Q 928 2378 1081 2264 
Q 1234 2150 1697 2047 
L 1894 2003 
Q 2506 1872 2764 1633 
Q 3022 1394 3022 966 
Q 3022 478 2636 193 
Q 2250 -91 1575 -91 
Q 1294 -91 989 -36 
Q 684 19 347 128 
L 347 722 
Q 666 556 975 473 
Q 1284 391 1588 391 
Q 1994 391 2212 530 
Q 2431 669 2431 922 
Q 2431 1156 2273 1281 
Q 2116 1406 1581 1522 
L 1381 1569 
Q 847 1681 609 1914 
Q 372 2147 372 2553 
Q 372 3047 722 3315 
Q 1072 3584 1716 3584 
Q 2034 3584 2315 3537 
Q 2597 3491 2834 3397 
z
" transform="scale(0.015625)"/>
       <path id="DejaVuSans-72" d="M 2631 2963 
Q 2534 3019 2420 3045 
Q 2306 3072 2169 3072 
Q 1681 3072 1420 2755 
Q 1159 2438 1159 1844 
L 1159 0 
L 581 0 
L 581 3500 
L 1159 3500 
L 1159 2956 
Q 1341 3275 1631 3429 
Q 1922 3584 2338 3584 
Q 2397 3584 2469 3576 
Q 2541 3569 2628 3553 
L 2631 2963 
z
" transform="scale(0.015625)"/>
       <path id="DejaVuSans-70" d="M 1159 525 
L 1159 -1331 
L 581 -1331 
L 581 3500 
L 1159 3500 
L 1159 2969 
Q 1341 3281 1617 3432 
Q 1894 3584 2278 3584 
Q 2916 3584 3314 3078 
Q 3713 2572 3713 1747 
Q 3713 922 3314 415 
Q 2916 -91 2278 -91 
Q 1894 -91 1617 61 
Q 1341 213 1159 525 
z
M 3116 1747 
Q 3116 2381 2855 2742 
Q 2594 3103 2138 3103 
Q 1681 3103 1420 2742 
Q 1159 2381 1159 1747 
Q 1159 1113 1420 752 
Q 1681 391 2138 391 
Q 2594 391 2855 752 
Q 3116 1113 3116 1747 
z
" transform="scale(0.015625)"/>
       <path id="DejaVuSans-69" d="M 603 3500 
L 1178 3500 
L 1178 0 
L 603 0 
L 603 3500 
z
M 603 4863 
L 1178 4863 
L 1178 4134 
L 603 4134 
L 603 4863 
z
" transform="scale(0.015625)"/>
       <path id="DejaVuSans-61" d="M 2194 1759 
Q 1497 1759 1228 1600 
Q 959 1441 959 1056 
Q 959 750 1161 570 
Q 1363 391 1709 391 
Q 2188 391 2477 730 
Q 2766 1069 2766 1631 
L 2766 1759 
L 2194 1759 
z
M 3341 1997 
L 3341 0 
L 2766 0 
L 2766 531 
Q 2569 213 2275 61 
Q 1981 -91 1556 -91 
Q 1019 -91 701 211 
Q 384 513 384 1019 
Q 384 1609 779 1909 
Q 1175 2209 1959 2209 
L 2766 2209 
L 2766 2266 
Q 2766 2663 2505 2880 
Q 2244 3097 1772 3097 
Q 1472 3097 1187 3025 
Q 903 2953 641 2809 
L 641 3341 
Q 956 3463 1253 3523 
Q 1550 3584 1831 3584 
Q 2591 3584 2966 3190 
Q 3341 2797 3341 1997 
z
" transform="scale(0.015625)"/>
       <path id="DejaVuSans-28" d="M 1984 4856 
Q 1566 4138 1362 3434 
Q 1159 2731 1159 2009 
Q 1159 1288 1364 580 
Q 1569 -128 1984 -844 
L 1484 -844 
Q 1016 -109 783 600 
Q 550 1309 550 2009 
Q 550 2706 781 3412 
Q 1013 4119 1484 4856 
L 1984 4856 
z
" transform="scale(0.015625)"/>
       <path id="DejaVuSans-6d" d="M 3328 2828 
Q 3544 3216 3844 3400 
Q 4144 3584 4550 3584 
Q 5097 3584 5394 3201 
Q 5691 2819 5691 2113 
L 5691 0 
L 5113 0 
L 5113 2094 
Q 5113 2597 4934 2840 
Q 4756 3084 4391 3084 
Q 3944 3084 3684 2787 
Q 3425 2491 3425 1978 
L 3425 0 
L 2847 0 
L 2847 2094 
Q 2847 2600 2669 2842 
Q 2491 3084 2119 3084 
Q 1678 3084 1418 2786 
Q 1159 2488 1159 1978 
L 1159 0 
L 581 0 
L 581 3500 
L 1159 3500 
L 1159 2956 
Q 1356 3278 1631 3431 
Q 1906 3584 2284 3584 
Q 2666 3584 2933 3390 
Q 3200 3197 3328 2828 
z
" transform="scale(0.015625)"/>
       <path id="DejaVuSans-74" d="M 1172 4494 
L 1172 3500 
L 2356 3500 
L 2356 3053 
L 1172 3053 
L 1172 1153 
Q 1172 725 1289 603 
Q 1406 481 1766 481 
L 2356 481 
L 2356 0 
L 1766 0 
Q 1100 0 847 248 
Q 594 497 594 1153 
L 594 3053 
L 172 3053 
L 172 3500 
L 594 3500 
L 594 4494 
L 1172 4494 
z
" transform="scale(0.015625)"/>
       <path id="DejaVuSans-29" d="M 513 4856 
L 1013 4856 
Q 1481 4119 1714 3412 
Q 1947 2706 1947 2009 
Q 1947 1309 1714 600 
Q 1481 -109 1013 -844 
L 513 -844 
Q 928 -128 1133 580 
Q 1338 1288 1338 2009 
Q 1338 2731 1133 3434 
Q 928 4138 513 4856 
z
" transform="scale(0.015625)"/>
      </defs>
      <use xlink:href="#DejaVuSans-49"/>
      <use xlink:href="#DejaVuSans-6e" x="29.492188"/>
      <use xlink:href="#DejaVuSans-66" x="92.871094"/>
      <use xlink:href="#DejaVuSans-6c" x="128.076172"/>
      <use xlink:href="#DejaVuSans-75" x="155.859375"/>
      <use xlink:href="#DejaVuSans-65" x="219.238281"/>
      <use xlink:href="#DejaVuSans-6e" x="280.761719"/>
      <use xlink:href="#DejaVuSans-63" x="344.140625"/>
      <use xlink:href="#DejaVuSans-65" x="399.121094"/>
      <use xlink:href="#DejaVuSans-20" x="460.644531"/>
      <use xlink:href="#DejaVuSans-6f" x="492.431641"/>
      <use xlink:href="#DejaVuSans-66" x="553.613281"/>
      <use xlink:href="#DejaVuSans-20" x="588.818359"/>
      <use xlink:href="#DejaVuSans-73" x="620.605469"/>
      <use xlink:href="#DejaVuSans-75" x="672.705078"/>
      <use xlink:href="#DejaVuSans-72" x="736.083984"/>
      <use xlink:href="#DejaVuSans-70" x="777.197266"/>
      <use xlink:href="#DejaVuSans-72" x="840.673828"/>
      <use xlink:href="#DejaVuSans-69" x="881.787109"/>
      <use xlink:href="#DejaVuSans-73" x="909.570312"/>
      <use xlink:href="#DejaVuSans-61" x="961.669922"/>
      <use xlink:href="#DejaVuSans-6c" x="1022.949219"/>
      <use xlink:href="#DejaVuSans-20" x="1050.732422"/>
      <use xlink:href="#DejaVuSans-28" x="1082.519531"/>
      <use xlink:href="#DejaVuSans-6d" x="1121.533203"/>
      <use xlink:href="#DejaVuSans-75" x="1218.945312"/>
      <use xlink:href="#DejaVuSans-6c" x="1282.324219"/>
      <use xlink:href="#DejaVuSans-74" x="1310.107422"/>
      <use xlink:href="#DejaVuSans-69" x="1349.316406"/>
      <use xlink:href="#DejaVuSans-70" x="1377.099609"/>
      <use xlink:href="#DejaVuSans-6c" x="1440.576172"/>
      <use xlink:href="#DejaVuSans-69" x="1468.359375"/>
      <use xlink:href="#DejaVuSans-63" x="1496.142578"/>
      <use xlink:href="#DejaVuSans-61" x="1551.123047"/>
      <use xlink:href="#DejaVuSans-74" x="1612.402344"/>
      <use xlink:href="#DejaVuSans-69" x="1651.611328"/>
      <use xlink:href="#DejaVuSans-6f" x="1679.394531"/>
      <use xlink:href="#DejaVuSans-6e" x="1740.576172"/>
      <use xlink:href="#DejaVuSans-29" x="1803.955078"/>
     </g>
    </g>
   </g>
   <g id="matplotlib.axis_2">
    <g id="ytick_1">
     <g id="line2d_6">
      <defs>
       <path id="m1f8aa6adae" d="M 0 0 
L -3.5 0 
" style="stroke: #000000; stroke-width: 0.8"/>
      </defs>
      <g>
       <use xlink:href="#m1f8aa6adae" x="47.72" y="139.895021" style="stroke: #000000; stroke-width: 0.8"/>
      </g>
     </g>
     <g id="text_7">
      <!-- 0.4 -->
      <g transform="translate(24.816875 143.694239)scale(0.1 -0.1)">
       <defs>
        <path id="DejaVuSans-34" d="M 2419 4116 
L 825 1625 
L 2419 1625 
L 2419 4116 
z
M 2253 4666 
L 3047 4666 
L 3047 1625 
L 3713 1625 
L 3713 1100 
L 3047 1100 
L 3047 0 
L 2419 0 
L 2419 1100 
L 313 1100 
L 313 1709 
L 2253 4666 
z
" transform="scale(0.015625)"/>
       </defs>
       <use xlink:href="#DejaVuSans-30"/>
       <use xlink:href="#DejaVuSans-2e" x="63.623047"/>
       <use xlink:href="#DejaVuSans-34" x="95.410156"/>
      </g>
     </g>
    </g>
    <g id="ytick_2">
     <g id="line2d_7">
      <g>
       <use xlink:href="#m1f8aa6adae" x="47.72" y="101.174502" style="stroke: #000000; stroke-width: 0.8"/>
      </g>
     </g>
     <g id="text_8">
      <!-- 0.6 -->
      <g transform="translate(24.816875 104.973721)scale(0.1 -0.1)">
       <defs>
        <path id="DejaVuSans-36" d="M 2113 2584 
Q 1688 2584 1439 2293 
Q 1191 2003 1191 1497 
Q 1191 994 1439 701 
Q 1688 409 2113 409 
Q 2538 409 2786 701 
Q 3034 994 3034 1497 
Q 3034 2003 2786 2293 
Q 2538 2584 2113 2584 
z
M 3366 4563 
L 3366 3988 
Q 3128 4100 2886 4159 
Q 2644 4219 2406 4219 
Q 1781 4219 1451 3797 
Q 1122 3375 1075 2522 
Q 1259 2794 1537 2939 
Q 1816 3084 2150 3084 
Q 2853 3084 3261 2657 
Q 3669 2231 3669 1497 
Q 3669 778 3244 343 
Q 2819 -91 2113 -91 
Q 1303 -91 875 529 
Q 447 1150 447 2328 
Q 447 3434 972 4092 
Q 1497 4750 2381 4750 
Q 2619 4750 2861 4703 
Q 3103 4656 3366 4563 
z
" transform="scale(0.015625)"/>
       </defs>
       <use xlink:href="#DejaVuSans-30"/>
       <use xlink:href="#DejaVuSans-2e" x="63.623047"/>
       <use xlink:href="#DejaVuSans-36" x="95.410156"/>
      </g>
     </g>
    </g>
    <g id="ytick_3">
     <g id="line2d_8">
      <g>
       <use xlink:href="#m1f8aa6adae" x="47.72" y="62.453984" style="stroke: #000000; stroke-width: 0.8"/>
      </g>
     </g>
     <g id="text_9">
      <!-- 0.8 -->
      <g transform="translate(24.816875 66.253203)scale(0.1 -0.1)">
       <defs>
        <path id="DejaVuSans-38" d="M 2034 2216 
Q 1584 2216 1326 1975 
Q 1069 1734 1069 1313 
Q 1069 891 1326 650 
Q 1584 409 2034 409 
Q 2484 409 2743 651 
Q 3003 894 3003 1313 
Q 3003 1734 2745 1975 
Q 2488 2216 2034 2216 
z
M 1403 2484 
Q 997 2584 770 2862 
Q 544 3141 544 3541 
Q 544 4100 942 4425 
Q 1341 4750 2034 4750 
Q 2731 4750 3128 4425 
Q 3525 4100 3525 3541 
Q 3525 3141 3298 2862 
Q 3072 2584 2669 2484 
Q 3125 2378 3379 2068 
Q 3634 1759 3634 1313 
Q 3634 634 3220 271 
Q 2806 -91 2034 -91 
Q 1263 -91 848 271 
Q 434 634 434 1313 
Q 434 1759 690 2068 
Q 947 2378 1403 2484 
z
M 1172 3481 
Q 1172 3119 1398 2916 
Q 1625 2713 2034 2713 
Q 2441 2713 2670 2916 
Q 2900 3119 2900 3481 
Q 2900 3844 2670 4047 
Q 2441 4250 2034 4250 
Q 1625 4250 1398 4047 
Q 1172 3844 1172 3481 
z
" transform="scale(0.015625)"/>
       </defs>
       <use xlink:href="#DejaVuSans-30"/>
       <use xlink:href="#DejaVuSans-2e" x="63.623047"/>
       <use xlink:href="#DejaVuSans-38" x="95.410156"/>
      </g>
     </g>
    </g>
    <g id="text_10">
     <!-- R-value -->
     <g transform="translate(18.737188 119.064687)rotate(-90)scale(0.1 -0.1)">
      <defs>
       <path id="DejaVuSans-52" d="M 2841 2188 
Q 3044 2119 3236 1894 
Q 3428 1669 3622 1275 
L 4263 0 
L 3584 0 
L 2988 1197 
Q 2756 1666 2539 1819 
Q 2322 1972 1947 1972 
L 1259 1972 
L 1259 0 
L 628 0 
L 628 4666 
L 2053 4666 
Q 2853 4666 3247 4331 
Q 3641 3997 3641 3322 
Q 3641 2881 3436 2590 
Q 3231 2300 2841 2188 
z
M 1259 4147 
L 1259 2491 
L 2053 2491 
Q 2509 2491 2742 2702 
Q 2975 2913 2975 3322 
Q 2975 3731 2742 3939 
Q 2509 4147 2053 4147 
L 1259 4147 
z
" transform="scale(0.015625)"/>
       <path id="DejaVuSans-2d" d="M 313 2009 
L 1997 2009 
L 1997 1497 
L 313 1497 
L 313 2009 
z
" transform="scale(0.015625)"/>
       <path id="DejaVuSans-76" d="M 191 3500 
L 800 3500 
L 1894 563 
L 2988 3500 
L 3597 3500 
L 2284 0 
L 1503 0 
L 191 3500 
z
" transform="scale(0.015625)"/>
      </defs>
      <use xlink:href="#DejaVuSans-52"/>
      <use xlink:href="#DejaVuSans-2d" x="65.482422"/>
      <use xlink:href="#DejaVuSans-76" x="98.941406"/>
      <use xlink:href="#DejaVuSans-61" x="158.121094"/>
      <use xlink:href="#DejaVuSans-6c" x="219.400391"/>
      <use xlink:href="#DejaVuSans-75" x="247.183594"/>
      <use xlink:href="#DejaVuSans-65" x="310.5625"/>
     </g>
    </g>
   </g>
   <g id="line2d_9">
    <path d="M 47.72 33.944237 
L 59.167105 34.860574 
L 70.614211 37.508104 
L 82.061316 41.451254 
L 93.508421 46.239381 
L 104.955526 52.397897 
L 116.402632 58.964249 
L 127.849737 65.817669 
L 139.296842 73.583217 
L 150.743947 80.542997 
L 162.191053 88.073769 
L 173.638158 94.911753 
L 185.085263 101.791351 
L 196.532368 108.869858 
L 207.979474 115.590841 
L 219.426579 121.629114 
L 230.873684 127.725992 
L 242.320789 133.306119 
L 253.767895 138.788404 
L 265.215 143.986336 
" clip-path="url(#p0a49b41e32)" style="fill: none; stroke: #1f77b4; stroke-width: 1.5; stroke-linecap: square"/>
   </g>
   <g id="line2d_10">
    <path d="M 47.72 33.96461 
L 59.167105 34.530365 
L 70.614211 35.812148 
L 82.061316 37.961451 
L 93.508421 40.574335 
L 104.955526 44.451283 
L 116.402632 48.924491 
L 127.849737 53.872697 
L 139.296842 60.037609 
L 150.743947 65.726159 
L 162.191053 72.199942 
L 173.638158 78.489107 
L 185.085263 84.86762 
L 196.532368 91.406513 
L 207.979474 97.947148 
L 219.426579 103.715899 
L 230.873684 109.630482 
L 242.320789 114.927472 
L 253.767895 120.472687 
L 265.215 125.737414 
" clip-path="url(#p0a49b41e32)" style="fill: none; stroke: #ff7f0e; stroke-width: 1.5; stroke-linecap: square"/>
   </g>
   <g id="line2d_11">
    <path d="M 47.72 33.966708 
L 59.167105 34.69095 
L 70.614211 35.855488 
L 82.061316 37.714607 
L 93.508421 39.772545 
L 104.955526 42.533047 
L 116.402632 45.427475 
L 127.849737 48.597498 
L 139.296842 51.954547 
L 150.743947 55.2549 
L 162.191053 58.936793 
L 173.638158 62.146773 
L 185.085263 65.67974 
L 196.532368 69.033833 
L 207.979474 72.6961 
L 219.426579 75.946794 
L 230.873684 79.643943 
L 242.320789 82.987025 
L 253.767895 86.232985 
L 265.215 90.072479 
" clip-path="url(#p0a49b41e32)" style="fill: none; stroke: #2ca02c; stroke-width: 1.5; stroke-linecap: square"/>
   </g>
   <g id="line2d_12">
    <path d="M 47.72 33.979306 
L 59.167105 34.530604 
L 70.614211 35.318879 
L 82.061316 36.689729 
L 93.508421 38.153966 
L 104.955526 40.388533 
L 116.402632 42.867781 
L 127.849737 45.678117 
L 139.296842 48.971312 
L 150.743947 52.198771 
L 162.191053 55.95364 
L 173.638158 59.338277 
L 185.085263 63.036588 
L 196.532368 66.567344 
L 207.979474 70.42383 
L 219.426579 73.91248 
L 230.873684 77.817633 
L 242.320789 81.322103 
L 253.767895 84.656215 
L 265.215 88.607348 
" clip-path="url(#p0a49b41e32)" style="fill: none; stroke: #d62728; stroke-width: 1.5; stroke-linecap: square"/>
   </g>
   <g id="line2d_13">
    <path d="M 47.72 33.95761 
L 59.167105 34.869833 
L 70.614211 37.528182 
L 82.061316 41.484126 
L 93.508421 46.303841 
L 104.955526 52.452973 
L 116.402632 58.945682 
L 127.849737 65.959013 
L 139.296842 73.661344 
L 150.743947 80.625374 
L 162.191053 88.133035 
L 173.638158 95.137721 
L 185.085263 102.092994 
L 196.532368 109.220071 
L 207.979474 116.006235 
L 219.426579 122.214241 
L 230.873684 128.552412 
L 242.320789 133.731741 
L 253.767895 138.945171 
L 265.215 144.235052 
" clip-path="url(#p0a49b41e32)" style="fill: none; stroke: #9467bd; stroke-width: 1.5; stroke-linecap: square"/>
   </g>
   <g id="line2d_14">
    <path d="M 47.72 33.9783 
L 59.167105 34.540824 
L 70.614211 35.82775 
L 82.061316 37.994653 
L 93.508421 40.616349 
L 104.955526 44.506458 
L 116.402632 48.92069 
L 127.849737 53.951815 
L 139.296842 60.088821 
L 150.743947 65.755783 
L 162.191053 72.267485 
L 173.638158 78.63001 
L 185.085263 85.135573 
L 196.532368 91.605033 
L 207.979474 98.101271 
L 219.426579 103.91533 
L 230.873684 110.132642 
L 242.320789 115.172874 
L 253.767895 120.599278 
L 265.215 125.692242 
" clip-path="url(#p0a49b41e32)" style="fill: none; stroke: #8c564b; stroke-width: 1.5; stroke-linecap: square"/>
   </g>
   <g id="line2d_15">
    <path d="M 47.72 47.951131 
L 59.167105 49.166721 
L 70.614211 52.267176 
L 82.061316 57.179636 
L 93.508421 62.939962 
L 104.955526 70.231962 
L 116.402632 77.624911 
L 127.849737 85.306161 
L 139.296842 93.460357 
L 150.743947 100.871089 
L 162.191053 108.400283 
L 173.638158 115.185881 
L 185.085263 121.855958 
L 196.532368 128.602972 
L 207.979474 134.806582 
L 219.426579 140.405298 
L 230.873684 145.72273 
L 242.320789 150.585375 
L 253.767895 155.347888 
L 265.215 159.822361 
" clip-path="url(#p0a49b41e32)" style="fill: none; stroke: #e377c2; stroke-width: 1.5; stroke-linecap: square"/>
   </g>
   <g id="line2d_16">
    <path d="M 47.72 33.98416 
L 59.167105 34.255202 
L 70.614211 34.33994 
L 82.061316 34.9759 
L 93.508421 35.789725 
L 104.955526 37.739556 
L 116.402632 40.370752 
L 127.849737 43.846691 
L 139.296842 48.455154 
L 150.743947 53.130075 
L 162.191053 58.653646 
L 173.638158 64.182025 
L 185.085263 70.013178 
L 196.532368 76.061987 
L 207.979474 82.285593 
L 219.426579 87.900389 
L 230.873684 93.904438 
L 242.320789 99.392052 
L 253.767895 105.075412 
L 265.215 110.923603 
" clip-path="url(#p0a49b41e32)" style="fill: none; stroke: #7f7f7f; stroke-width: 1.5; stroke-linecap: square"/>
   </g>
   <g id="patch_3">
    <path d="M 47.72 174.04 
L 47.72 26.88 
" style="fill: none; stroke: #000000; stroke-width: 0.8; stroke-linejoin: miter; stroke-linecap: square"/>
   </g>
   <g id="patch_4">
    <path d="M 47.72 174.04 
L 265.215 174.04 
" style="fill: none; stroke: #000000; stroke-width: 0.8; stroke-linejoin: miter; stroke-linecap: square"/>
   </g>
   <g id="text_11">
    <!-- Node * surprisal -->
    <g transform="translate(108.18625 20.88)scale(0.12 -0.12)">
     <defs>
      <path id="DejaVuSans-4e" d="M 628 4666 
L 1478 4666 
L 3547 763 
L 3547 4666 
L 4159 4666 
L 4159 0 
L 3309 0 
L 1241 3903 
L 1241 0 
L 628 0 
L 628 4666 
z
" transform="scale(0.015625)"/>
      <path id="DejaVuSans-64" d="M 2906 2969 
L 2906 4863 
L 3481 4863 
L 3481 0 
L 2906 0 
L 2906 525 
Q 2725 213 2448 61 
Q 2172 -91 1784 -91 
Q 1150 -91 751 415 
Q 353 922 353 1747 
Q 353 2572 751 3078 
Q 1150 3584 1784 3584 
Q 2172 3584 2448 3432 
Q 2725 3281 2906 2969 
z
M 947 1747 
Q 947 1113 1208 752 
Q 1469 391 1925 391 
Q 2381 391 2643 752 
Q 2906 1113 2906 1747 
Q 2906 2381 2643 2742 
Q 2381 3103 1925 3103 
Q 1469 3103 1208 2742 
Q 947 2381 947 1747 
z
" transform="scale(0.015625)"/>
      <path id="DejaVuSans-2a" d="M 3009 3897 
L 1888 3291 
L 3009 2681 
L 2828 2375 
L 1778 3009 
L 1778 1831 
L 1422 1831 
L 1422 3009 
L 372 2375 
L 191 2681 
L 1313 3291 
L 191 3897 
L 372 4206 
L 1422 3572 
L 1422 4750 
L 1778 4750 
L 1778 3572 
L 2828 4206 
L 3009 3897 
z
" transform="scale(0.015625)"/>
     </defs>
     <use xlink:href="#DejaVuSans-4e"/>
     <use xlink:href="#DejaVuSans-6f" x="74.804688"/>
     <use xlink:href="#DejaVuSans-64" x="135.986328"/>
     <use xlink:href="#DejaVuSans-65" x="199.462891"/>
     <use xlink:href="#DejaVuSans-20" x="260.986328"/>
     <use xlink:href="#DejaVuSans-2a" x="292.773438"/>
     <use xlink:href="#DejaVuSans-20" x="342.773438"/>
     <use xlink:href="#DejaVuSans-73" x="374.560547"/>
     <use xlink:href="#DejaVuSans-75" x="426.660156"/>
     <use xlink:href="#DejaVuSans-72" x="490.039062"/>
     <use xlink:href="#DejaVuSans-70" x="531.152344"/>
     <use xlink:href="#DejaVuSans-72" x="594.628906"/>
     <use xlink:href="#DejaVuSans-69" x="635.742188"/>
     <use xlink:href="#DejaVuSans-73" x="663.525391"/>
     <use xlink:href="#DejaVuSans-61" x="715.625"/>
     <use xlink:href="#DejaVuSans-6c" x="776.904297"/>
    </g>
   </g>
  </g>
  <g id="axes_2">
   <g id="patch_5">
    <path d="M 298.065 174.04 
L 515.56 174.04 
L 515.56 26.88 
L 298.065 26.88 
z
" style="fill: #ffffff"/>
   </g>
   <g id="PolyCollection_9">
    <path d="M 298.065 33.733299 
L 298.065 34.256684 
L 309.512105 35.557911 
L 320.959211 37.872399 
L 332.406316 41.905276 
L 343.853421 47.169582 
L 355.300526 53.241394 
L 366.747632 60.297878 
L 378.194737 68.292249 
L 389.641842 75.516183 
L 401.088947 83.435403 
L 412.536053 91.347895 
L 423.983158 99.055227 
L 435.430263 106.253229 
L 446.877368 113.478836 
L 458.324474 120.399271 
L 469.771579 126.587332 
L 481.218684 132.81308 
L 492.665789 138.06239 
L 504.112895 143.113067 
L 515.56 147.793245 
L 515.56 132.30127 
L 515.56 132.30127 
L 504.112895 127.090528 
L 492.665789 122.246519 
L 481.218684 116.948167 
L 469.771579 111.143426 
L 458.324474 105.534788 
L 446.877368 99.391296 
L 435.430263 93.720846 
L 423.983158 87.292495 
L 412.536053 80.784456 
L 401.088947 73.901425 
L 389.641842 67.045949 
L 378.194737 61.129636 
L 366.747632 54.444007 
L 355.300526 48.836125 
L 343.853421 43.774578 
L 332.406316 39.730524 
L 320.959211 36.63199 
L 309.512105 34.237256 
L 298.065 33.733299 
z
" clip-path="url(#p94b793950e)" style="fill: #1f77b4; fill-opacity: 0.4"/>
   </g>
   <g id="PolyCollection_10">
    <path d="M 298.065 33.745967 
L 298.065 34.270093 
L 309.512105 35.568504 
L 320.959211 37.905506 
L 332.406316 41.928314 
L 343.853421 47.192836 
L 355.300526 53.286957 
L 366.747632 60.35285 
L 378.194737 68.345743 
L 389.641842 75.608642 
L 401.088947 83.543593 
L 412.536053 91.519967 
L 423.983158 99.206535 
L 435.430263 106.438294 
L 446.877368 113.661572 
L 458.324474 120.616553 
L 469.771579 126.803477 
L 481.218684 133.06452 
L 492.665789 138.343051 
L 504.112895 143.460161 
L 515.56 148.169832 
L 515.56 132.865648 
L 515.56 132.865648 
L 504.112895 127.71453 
L 492.665789 122.705715 
L 481.218684 117.350249 
L 469.771579 111.536142 
L 458.324474 105.82359 
L 446.877368 99.648746 
L 435.430263 93.874922 
L 423.983158 87.445968 
L 412.536053 80.918578 
L 401.088947 74.010261 
L 389.641842 67.126912 
L 378.194737 61.1983 
L 366.747632 54.517716 
L 355.300526 48.882251 
L 343.853421 43.77917 
L 332.406316 39.744289 
L 320.959211 36.660044 
L 309.512105 34.25031 
L 298.065 33.745967 
z
" clip-path="url(#p94b793950e)" style="fill: #ff7f0e; fill-opacity: 0.4"/>
   </g>
   <g id="PolyCollection_11">
    <path d="M 298.065 33.751276 
L 298.065 34.273474 
L 309.512105 35.557144 
L 320.959211 37.889809 
L 332.406316 41.922553 
L 343.853421 47.182856 
L 355.300526 53.212058 
L 366.747632 60.262479 
L 378.194737 68.165934 
L 389.641842 75.396552 
L 401.088947 83.221948 
L 412.536053 91.171506 
L 423.983158 98.823438 
L 435.430263 105.955931 
L 446.877368 113.155583 
L 458.324474 120.127079 
L 469.771579 126.297439 
L 481.218684 132.517237 
L 492.665789 137.869583 
L 504.112895 143.046248 
L 515.56 147.857429 
L 515.56 132.73882 
L 515.56 132.73882 
L 504.112895 127.641219 
L 492.665789 122.769892 
L 481.218684 117.425081 
L 469.771579 111.615157 
L 458.324474 105.966547 
L 446.877368 99.779537 
L 435.430263 94.049416 
L 423.983158 87.51021 
L 412.536053 81.035525 
L 401.088947 74.075865 
L 389.641842 67.150436 
L 378.194737 61.257572 
L 366.747632 54.511839 
L 355.300526 48.876141 
L 343.853421 43.788457 
L 332.406316 39.740083 
L 320.959211 36.660393 
L 309.512105 34.23703 
L 298.065 33.751276 
z
" clip-path="url(#p94b793950e)" style="fill: #2ca02c; fill-opacity: 0.4"/>
   </g>
   <g id="PolyCollection_12">
    <path d="M 298.065 33.77048 
L 298.065 34.293091 
L 309.512105 35.572772 
L 320.959211 37.932677 
L 332.406316 41.973969 
L 343.853421 47.26327 
L 355.300526 53.313857 
L 366.747632 60.377559 
L 378.194737 68.293679 
L 389.641842 75.55817 
L 401.088947 83.418156 
L 412.536053 91.40416 
L 423.983158 99.044857 
L 435.430263 106.218556 
L 446.877368 113.400057 
L 458.324474 120.334813 
L 469.771579 126.570105 
L 481.218684 132.835076 
L 492.665789 138.1797 
L 504.112895 143.440134 
L 515.56 148.314051 
L 515.56 133.345365 
L 515.56 133.345365 
L 504.112895 128.207819 
L 492.665789 123.175053 
L 481.218684 117.744811 
L 469.771579 111.943788 
L 458.324474 106.232163 
L 446.877368 100.013071 
L 435.430263 94.2153 
L 423.983158 87.742414 
L 412.536053 81.187022 
L 401.088947 74.241756 
L 389.641842 67.304136 
L 378.194737 61.36394 
L 366.747632 54.60826 
L 355.300526 48.946238 
L 343.853421 43.814564 
L 332.406316 39.767614 
L 320.959211 36.692955 
L 309.512105 34.249003 
L 298.065 33.77048 
z
" clip-path="url(#p94b793950e)" style="fill: #d62728; fill-opacity: 0.4"/>
   </g>
   <g id="PolyCollection_13">
    <path d="M 298.065 33.755496 
L 298.065 34.254075 
L 309.512105 35.585731 
L 320.959211 37.863324 
L 332.406316 41.947416 
L 343.853421 47.248692 
L 355.300526 53.259626 
L 366.747632 60.334842 
L 378.194737 68.151648 
L 389.641842 75.615097 
L 401.088947 83.607846 
L 412.536053 91.556646 
L 423.983158 99.34694 
L 435.430263 106.430136 
L 446.877368 113.746221 
L 458.324474 121.082798 
L 469.771579 127.640628 
L 481.218684 133.522235 
L 492.665789 138.385895 
L 504.112895 143.644992 
L 515.56 147.660402 
L 515.56 132.881972 
L 515.56 132.881972 
L 504.112895 127.809233 
L 492.665789 122.45495 
L 481.218684 117.396296 
L 469.771579 111.638834 
L 458.324474 105.782642 
L 446.877368 99.453958 
L 435.430263 93.773211 
L 423.983158 87.605062 
L 412.536053 80.772554 
L 401.088947 74.364808 
L 389.641842 67.055883 
L 378.194737 61.2801 
L 366.747632 54.513625 
L 355.300526 48.874594 
L 343.853421 43.803634 
L 332.406316 39.75413 
L 320.959211 36.65054 
L 309.512105 34.252268 
L 298.065 33.755496 
z
" clip-path="url(#p94b793950e)" style="fill: #9467bd; fill-opacity: 0.4"/>
   </g>
   <g id="PolyCollection_14">
    <path d="M 298.065 33.768614 
L 298.065 34.268295 
L 309.512105 35.596894 
L 320.959211 37.89647 
L 332.406316 41.971191 
L 343.853421 47.283698 
L 355.300526 53.312377 
L 366.747632 60.380865 
L 378.194737 68.205913 
L 389.641842 75.699237 
L 401.088947 83.728888 
L 412.536053 91.723538 
L 423.983158 99.493513 
L 435.430263 106.613668 
L 446.877368 113.928369 
L 458.324474 121.269264 
L 469.771579 127.899776 
L 481.218684 133.782962 
L 492.665789 138.627189 
L 504.112895 143.998242 
L 515.56 148.017516 
L 515.56 133.441271 
L 515.56 133.441271 
L 504.112895 128.438281 
L 492.665789 122.9344 
L 481.218684 117.765949 
L 469.771579 112.040978 
L 458.324474 106.074143 
L 446.877368 99.706571 
L 435.430263 93.939249 
L 423.983158 87.771927 
L 412.536053 80.934495 
L 401.088947 74.469464 
L 389.641842 67.148159 
L 378.194737 61.361627 
L 366.747632 54.59418 
L 355.300526 48.918739 
L 343.853421 43.80845 
L 332.406316 39.770575 
L 320.959211 36.680324 
L 309.512105 34.266225 
L 298.065 33.768614 
z
" clip-path="url(#p94b793950e)" style="fill: #8c564b; fill-opacity: 0.4"/>
   </g>
   <g id="PolyCollection_15">
    <path d="M 298.065 46.172232 
L 298.065 49.841051 
L 309.512105 50.59626 
L 320.959211 52.660427 
L 332.406316 55.846834 
L 343.853421 60.404894 
L 355.300526 65.7802 
L 366.747632 72.345718 
L 378.194737 79.644674 
L 389.641842 86.176156 
L 401.088947 93.647166 
L 412.536053 100.842748 
L 423.983158 108.004779 
L 435.430263 114.917827 
L 446.877368 121.440123 
L 458.324474 127.792236 
L 469.771579 133.550867 
L 481.218684 139.421766 
L 492.665789 144.339644 
L 504.112895 149.217792 
L 515.56 153.492264 
L 515.56 138.799092 
L 515.56 138.799092 
L 504.112895 133.94948 
L 492.665789 130.093458 
L 481.218684 125.126383 
L 469.771579 119.967665 
L 458.324474 114.878732 
L 446.877368 109.075583 
L 435.430263 103.548082 
L 423.983158 97.693999 
L 412.536053 91.520345 
L 401.088947 85.176103 
L 389.641842 78.59517 
L 378.194737 73.061765 
L 366.747632 66.645152 
L 355.300526 61.310111 
L 343.853421 56.510458 
L 332.406316 52.580552 
L 320.959211 49.265556 
L 309.512105 47.005465 
L 298.065 46.172232 
z
" clip-path="url(#p94b793950e)" style="fill: #e377c2; fill-opacity: 0.4"/>
   </g>
   <g id="PolyCollection_16">
    <path d="M 298.065 33.756634 
L 298.065 34.279499 
L 309.512105 35.566367 
L 320.959211 37.917007 
L 332.406316 41.940265 
L 343.853421 47.219959 
L 355.300526 53.303628 
L 366.747632 60.388926 
L 378.194737 68.366298 
L 389.641842 75.622944 
L 401.088947 83.551168 
L 412.536053 91.540181 
L 423.983158 99.150677 
L 435.430263 106.410961 
L 446.877368 113.617758 
L 458.324474 120.561359 
L 469.771579 126.733078 
L 481.218684 133.049343 
L 492.665789 138.286071 
L 504.112895 143.446351 
L 515.56 148.157396 
L 515.56 133.41238 
L 515.56 133.41238 
L 504.112895 128.241513 
L 492.665789 123.203522 
L 481.218684 117.837907 
L 469.771579 112.027456 
L 458.324474 106.262244 
L 446.877368 100.00793 
L 435.430263 94.214333 
L 423.983158 87.65813 
L 412.536053 81.089109 
L 401.088947 74.156588 
L 389.641842 67.231261 
L 378.194737 61.286051 
L 366.747632 54.563788 
L 355.300526 48.922107 
L 343.853421 43.805318 
L 332.406316 39.76206 
L 320.959211 36.680288 
L 309.512105 34.254147 
L 298.065 33.756634 
z
" clip-path="url(#p94b793950e)" style="fill: #7f7f7f; fill-opacity: 0.4"/>
   </g>
   <g id="matplotlib.axis_3">
    <g id="xtick_6">
     <g id="line2d_17">
      <g>
       <use xlink:href="#m6b0b7d325f" x="298.065" y="174.04" style="stroke: #000000; stroke-width: 0.8"/>
      </g>
     </g>
     <g id="text_12">
      <!-- 0.0 -->
      <g transform="translate(290.113437 188.638438)scale(0.1 -0.1)">
       <use xlink:href="#DejaVuSans-30"/>
       <use xlink:href="#DejaVuSans-2e" x="63.623047"/>
       <use xlink:href="#DejaVuSans-30" x="95.410156"/>
      </g>
     </g>
    </g>
    <g id="xtick_7">
     <g id="line2d_18">
      <g>
       <use xlink:href="#m6b0b7d325f" x="352.43875" y="174.04" style="stroke: #000000; stroke-width: 0.8"/>
      </g>
     </g>
     <g id="text_13">
      <!-- 0.5 -->
      <g transform="translate(344.487187 188.638438)scale(0.1 -0.1)">
       <use xlink:href="#DejaVuSans-30"/>
       <use xlink:href="#DejaVuSans-2e" x="63.623047"/>
       <use xlink:href="#DejaVuSans-35" x="95.410156"/>
      </g>
     </g>
    </g>
    <g id="xtick_8">
     <g id="line2d_19">
      <g>
       <use xlink:href="#m6b0b7d325f" x="406.8125" y="174.04" style="stroke: #000000; stroke-width: 0.8"/>
      </g>
     </g>
     <g id="text_14">
      <!-- 1.0 -->
      <g transform="translate(398.860937 188.638438)scale(0.1 -0.1)">
       <use xlink:href="#DejaVuSans-31"/>
       <use xlink:href="#DejaVuSans-2e" x="63.623047"/>
       <use xlink:href="#DejaVuSans-30" x="95.410156"/>
      </g>
     </g>
    </g>
    <g id="xtick_9">
     <g id="line2d_20">
      <g>
       <use xlink:href="#m6b0b7d325f" x="461.18625" y="174.04" style="stroke: #000000; stroke-width: 0.8"/>
      </g>
     </g>
     <g id="text_15">
      <!-- 1.5 -->
      <g transform="translate(453.234687 188.638438)scale(0.1 -0.1)">
       <use xlink:href="#DejaVuSans-31"/>
       <use xlink:href="#DejaVuSans-2e" x="63.623047"/>
       <use xlink:href="#DejaVuSans-35" x="95.410156"/>
      </g>
     </g>
    </g>
    <g id="xtick_10">
     <g id="line2d_21">
      <g>
       <use xlink:href="#m6b0b7d325f" x="515.56" y="174.04" style="stroke: #000000; stroke-width: 0.8"/>
      </g>
     </g>
     <g id="text_16">
      <!-- 2.0 -->
      <g transform="translate(507.608437 188.638438)scale(0.1 -0.1)">
       <use xlink:href="#DejaVuSans-32"/>
       <use xlink:href="#DejaVuSans-2e" x="63.623047"/>
       <use xlink:href="#DejaVuSans-30" x="95.410156"/>
      </g>
     </g>
    </g>
    <g id="text_17">
     <!-- Influence of surprisal (multiplication) -->
     <g transform="translate(314.665625 202.316563)scale(0.1 -0.1)">
      <use xlink:href="#DejaVuSans-49"/>
      <use xlink:href="#DejaVuSans-6e" x="29.492188"/>
      <use xlink:href="#DejaVuSans-66" x="92.871094"/>
      <use xlink:href="#DejaVuSans-6c" x="128.076172"/>
      <use xlink:href="#DejaVuSans-75" x="155.859375"/>
      <use xlink:href="#DejaVuSans-65" x="219.238281"/>
      <use xlink:href="#DejaVuSans-6e" x="280.761719"/>
      <use xlink:href="#DejaVuSans-63" x="344.140625"/>
      <use xlink:href="#DejaVuSans-65" x="399.121094"/>
      <use xlink:href="#DejaVuSans-20" x="460.644531"/>
      <use xlink:href="#DejaVuSans-6f" x="492.431641"/>
      <use xlink:href="#DejaVuSans-66" x="553.613281"/>
      <use xlink:href="#DejaVuSans-20" x="588.818359"/>
      <use xlink:href="#DejaVuSans-73" x="620.605469"/>
      <use xlink:href="#DejaVuSans-75" x="672.705078"/>
      <use xlink:href="#DejaVuSans-72" x="736.083984"/>
      <use xlink:href="#DejaVuSans-70" x="777.197266"/>
      <use xlink:href="#DejaVuSans-72" x="840.673828"/>
      <use xlink:href="#DejaVuSans-69" x="881.787109"/>
      <use xlink:href="#DejaVuSans-73" x="909.570312"/>
      <use xlink:href="#DejaVuSans-61" x="961.669922"/>
      <use xlink:href="#DejaVuSans-6c" x="1022.949219"/>
      <use xlink:href="#DejaVuSans-20" x="1050.732422"/>
      <use xlink:href="#DejaVuSans-28" x="1082.519531"/>
      <use xlink:href="#DejaVuSans-6d" x="1121.533203"/>
      <use xlink:href="#DejaVuSans-75" x="1218.945312"/>
      <use xlink:href="#DejaVuSans-6c" x="1282.324219"/>
      <use xlink:href="#DejaVuSans-74" x="1310.107422"/>
      <use xlink:href="#DejaVuSans-69" x="1349.316406"/>
      <use xlink:href="#DejaVuSans-70" x="1377.099609"/>
      <use xlink:href="#DejaVuSans-6c" x="1440.576172"/>
      <use xlink:href="#DejaVuSans-69" x="1468.359375"/>
      <use xlink:href="#DejaVuSans-63" x="1496.142578"/>
      <use xlink:href="#DejaVuSans-61" x="1551.123047"/>
      <use xlink:href="#DejaVuSans-74" x="1612.402344"/>
      <use xlink:href="#DejaVuSans-69" x="1651.611328"/>
      <use xlink:href="#DejaVuSans-6f" x="1679.394531"/>
      <use xlink:href="#DejaVuSans-6e" x="1740.576172"/>
      <use xlink:href="#DejaVuSans-29" x="1803.955078"/>
     </g>
    </g>
   </g>
   <g id="line2d_22">
    <path d="M 298.065 33.994991 
L 309.512105 34.897583 
L 320.959211 37.252195 
L 332.406316 40.8179 
L 343.853421 45.47208 
L 355.300526 51.038759 
L 366.747632 57.370942 
L 378.194737 64.710942 
L 389.641842 71.281066 
L 401.088947 78.668414 
L 412.536053 86.066175 
L 423.983158 93.173861 
L 435.430263 99.987037 
L 446.877368 106.435066 
L 458.324474 112.96703 
L 469.771579 118.865379 
L 481.218684 124.880623 
L 492.665789 130.154454 
L 504.112895 135.101797 
L 515.56 140.047258 
" clip-path="url(#p94b793950e)" style="fill: none; stroke: #1f77b4; stroke-width: 1.5; stroke-linecap: square"/>
   </g>
   <g id="line2d_23">
    <path d="M 298.065 34.00803 
L 309.512105 34.909407 
L 320.959211 37.282775 
L 332.406316 40.836301 
L 343.853421 45.486003 
L 355.300526 51.084604 
L 366.747632 57.435283 
L 378.194737 64.772022 
L 389.641842 71.367777 
L 401.088947 78.776927 
L 412.536053 86.219272 
L 423.983158 93.326252 
L 435.430263 100.156608 
L 446.877368 106.655159 
L 458.324474 113.220071 
L 469.771579 119.16981 
L 481.218684 125.207384 
L 492.665789 130.524383 
L 504.112895 135.587346 
L 515.56 140.51774 
" clip-path="url(#p94b793950e)" style="fill: none; stroke: #ff7f0e; stroke-width: 1.5; stroke-linecap: square"/>
   </g>
   <g id="line2d_24">
    <path d="M 298.065 34.012375 
L 309.512105 34.897087 
L 320.959211 37.275101 
L 332.406316 40.831318 
L 343.853421 45.485657 
L 355.300526 51.0441 
L 366.747632 57.387159 
L 378.194737 64.711753 
L 389.641842 71.273494 
L 401.088947 78.648906 
L 412.536053 86.103515 
L 423.983158 93.166824 
L 435.430263 100.002674 
L 446.877368 106.46756 
L 458.324474 113.046813 
L 469.771579 118.956298 
L 481.218684 124.971159 
L 492.665789 130.319737 
L 504.112895 135.343733 
L 515.56 140.298124 
" clip-path="url(#p94b793950e)" style="fill: none; stroke: #2ca02c; stroke-width: 1.5; stroke-linecap: square"/>
   </g>
   <g id="line2d_25">
    <path d="M 298.065 34.031786 
L 309.512105 34.910888 
L 320.959211 37.312816 
L 332.406316 40.870792 
L 343.853421 45.538917 
L 355.300526 51.130047 
L 366.747632 57.492909 
L 378.194737 64.82881 
L 389.641842 71.431153 
L 401.088947 78.829956 
L 412.536053 86.295591 
L 423.983158 93.393635 
L 435.430263 100.216928 
L 446.877368 106.706564 
L 458.324474 113.283488 
L 469.771579 119.256946 
L 481.218684 125.289944 
L 492.665789 130.677377 
L 504.112895 135.823977 
L 515.56 140.829708 
" clip-path="url(#p94b793950e)" style="fill: none; stroke: #d62728; stroke-width: 1.5; stroke-linecap: square"/>
   </g>
   <g id="line2d_26">
    <path d="M 298.065 34.004785 
L 309.512105 34.918999 
L 320.959211 37.256932 
L 332.406316 40.850773 
L 343.853421 45.526163 
L 355.300526 51.06711 
L 366.747632 57.424234 
L 378.194737 64.715874 
L 389.641842 71.33549 
L 401.088947 78.986327 
L 412.536053 86.1646 
L 423.983158 93.476001 
L 435.430263 100.101674 
L 446.877368 106.600089 
L 458.324474 113.43272 
L 469.771579 119.639731 
L 481.218684 125.459265 
L 492.665789 130.420423 
L 504.112895 135.727113 
L 515.56 140.271187 
" clip-path="url(#p94b793950e)" style="fill: none; stroke: #9467bd; stroke-width: 1.5; stroke-linecap: square"/>
   </g>
   <g id="line2d_27">
    <path d="M 298.065 34.018455 
L 309.512105 34.93156 
L 320.959211 37.288397 
L 332.406316 40.870883 
L 343.853421 45.546074 
L 355.300526 51.115558 
L 366.747632 57.487523 
L 378.194737 64.78377 
L 389.641842 71.423698 
L 401.088947 79.099176 
L 412.536053 86.329016 
L 423.983158 93.63272 
L 435.430263 100.276458 
L 446.877368 106.81747 
L 458.324474 113.671703 
L 469.771579 119.970377 
L 481.218684 125.774456 
L 492.665789 130.780795 
L 504.112895 136.218262 
L 515.56 140.729394 
" clip-path="url(#p94b793950e)" style="fill: none; stroke: #8c564b; stroke-width: 1.5; stroke-linecap: square"/>
   </g>
   <g id="line2d_28">
    <path d="M 298.065 48.006642 
L 309.512105 48.800862 
L 320.959211 50.962992 
L 332.406316 54.213693 
L 343.853421 58.457676 
L 355.300526 63.545156 
L 366.747632 69.495435 
L 378.194737 76.35322 
L 389.641842 82.385663 
L 401.088947 89.411634 
L 412.536053 96.181546 
L 423.983158 102.849389 
L 435.430263 109.232954 
L 446.877368 115.257853 
L 458.324474 121.335484 
L 469.771579 126.759266 
L 481.218684 132.274074 
L 492.665789 137.216551 
L 504.112895 141.583636 
L 515.56 146.145678 
" clip-path="url(#p94b793950e)" style="fill: none; stroke: #e377c2; stroke-width: 1.5; stroke-linecap: square"/>
   </g>
   <g id="line2d_29">
    <path d="M 298.065 34.018066 
L 309.512105 34.910257 
L 320.959211 37.298647 
L 332.406316 40.851163 
L 343.853421 45.512639 
L 355.300526 51.112868 
L 366.747632 57.476357 
L 378.194737 64.826175 
L 389.641842 71.427103 
L 401.088947 78.853878 
L 412.536053 86.314645 
L 423.983158 93.404404 
L 435.430263 100.312647 
L 446.877368 106.812844 
L 458.324474 113.411802 
L 469.771579 119.380267 
L 481.218684 125.443625 
L 492.665789 130.744797 
L 504.112895 135.843932 
L 515.56 140.784888 
" clip-path="url(#p94b793950e)" style="fill: none; stroke: #7f7f7f; stroke-width: 1.5; stroke-linecap: square"/>
   </g>
   <g id="patch_6">
    <path d="M 298.065 174.04 
L 298.065 26.88 
" style="fill: none; stroke: #000000; stroke-width: 0.8; stroke-linejoin: miter; stroke-linecap: square"/>
   </g>
   <g id="patch_7">
    <path d="M 298.065 174.04 
L 515.56 174.04 
" style="fill: none; stroke: #000000; stroke-width: 0.8; stroke-linejoin: miter; stroke-linecap: square"/>
   </g>
   <g id="text_18">
    <!-- Node * third variable -->
    <g transform="translate(344.2325 20.88)scale(0.12 -0.12)">
     <defs>
      <path id="DejaVuSans-68" d="M 3513 2113 
L 3513 0 
L 2938 0 
L 2938 2094 
Q 2938 2591 2744 2837 
Q 2550 3084 2163 3084 
Q 1697 3084 1428 2787 
Q 1159 2491 1159 1978 
L 1159 0 
L 581 0 
L 581 4863 
L 1159 4863 
L 1159 2956 
Q 1366 3272 1645 3428 
Q 1925 3584 2291 3584 
Q 2894 3584 3203 3211 
Q 3513 2838 3513 2113 
z
" transform="scale(0.015625)"/>
      <path id="DejaVuSans-62" d="M 3116 1747 
Q 3116 2381 2855 2742 
Q 2594 3103 2138 3103 
Q 1681 3103 1420 2742 
Q 1159 2381 1159 1747 
Q 1159 1113 1420 752 
Q 1681 391 2138 391 
Q 2594 391 2855 752 
Q 3116 1113 3116 1747 
z
M 1159 2969 
Q 1341 3281 1617 3432 
Q 1894 3584 2278 3584 
Q 2916 3584 3314 3078 
Q 3713 2572 3713 1747 
Q 3713 922 3314 415 
Q 2916 -91 2278 -91 
Q 1894 -91 1617 61 
Q 1341 213 1159 525 
L 1159 0 
L 581 0 
L 581 4863 
L 1159 4863 
L 1159 2969 
z
" transform="scale(0.015625)"/>
     </defs>
     <use xlink:href="#DejaVuSans-4e"/>
     <use xlink:href="#DejaVuSans-6f" x="74.804688"/>
     <use xlink:href="#DejaVuSans-64" x="135.986328"/>
     <use xlink:href="#DejaVuSans-65" x="199.462891"/>
     <use xlink:href="#DejaVuSans-20" x="260.986328"/>
     <use xlink:href="#DejaVuSans-2a" x="292.773438"/>
     <use xlink:href="#DejaVuSans-20" x="342.773438"/>
     <use xlink:href="#DejaVuSans-74" x="374.560547"/>
     <use xlink:href="#DejaVuSans-68" x="413.769531"/>
     <use xlink:href="#DejaVuSans-69" x="477.148438"/>
     <use xlink:href="#DejaVuSans-72" x="504.931641"/>
     <use xlink:href="#DejaVuSans-64" x="544.294922"/>
     <use xlink:href="#DejaVuSans-20" x="607.771484"/>
     <use xlink:href="#DejaVuSans-76" x="639.558594"/>
     <use xlink:href="#DejaVuSans-61" x="698.738281"/>
     <use xlink:href="#DejaVuSans-72" x="760.017578"/>
     <use xlink:href="#DejaVuSans-69" x="801.130859"/>
     <use xlink:href="#DejaVuSans-61" x="828.914062"/>
     <use xlink:href="#DejaVuSans-62" x="890.193359"/>
     <use xlink:href="#DejaVuSans-6c" x="953.669922"/>
     <use xlink:href="#DejaVuSans-65" x="981.453125"/>
    </g>
   </g>
   <g id="legend_1">
    <g id="line2d_30">
     <path d="M 524.56 39.978437 
L 534.56 39.978437 
L 544.56 39.978437 
" style="fill: none; stroke: #1f77b4; stroke-width: 1.5; stroke-linecap: square"/>
    </g>
    <g id="text_19">
     <!-- Node -->
     <g transform="translate(552.56 43.478437)scale(0.1 -0.1)">
      <use xlink:href="#DejaVuSans-4e"/>
      <use xlink:href="#DejaVuSans-6f" x="74.804688"/>
      <use xlink:href="#DejaVuSans-64" x="135.986328"/>
      <use xlink:href="#DejaVuSans-65" x="199.462891"/>
     </g>
    </g>
    <g id="line2d_31">
     <path d="M 524.56 54.656563 
L 534.56 54.656563 
L 544.56 54.656563 
" style="fill: none; stroke: #ff7f0e; stroke-width: 1.5; stroke-linecap: square"/>
    </g>
    <g id="text_20">
     <!-- Node + surprisal -->
     <g transform="translate(552.56 58.156563)scale(0.1 -0.1)">
      <defs>
       <path id="DejaVuSans-2b" d="M 2944 4013 
L 2944 2272 
L 4684 2272 
L 4684 1741 
L 2944 1741 
L 2944 0 
L 2419 0 
L 2419 1741 
L 678 1741 
L 678 2272 
L 2419 2272 
L 2419 4013 
L 2944 4013 
z
" transform="scale(0.015625)"/>
      </defs>
      <use xlink:href="#DejaVuSans-4e"/>
      <use xlink:href="#DejaVuSans-6f" x="74.804688"/>
      <use xlink:href="#DejaVuSans-64" x="135.986328"/>
      <use xlink:href="#DejaVuSans-65" x="199.462891"/>
      <use xlink:href="#DejaVuSans-20" x="260.986328"/>
      <use xlink:href="#DejaVuSans-2b" x="292.773438"/>
      <use xlink:href="#DejaVuSans-20" x="376.5625"/>
      <use xlink:href="#DejaVuSans-73" x="408.349609"/>
      <use xlink:href="#DejaVuSans-75" x="460.449219"/>
      <use xlink:href="#DejaVuSans-72" x="523.828125"/>
      <use xlink:href="#DejaVuSans-70" x="564.941406"/>
      <use xlink:href="#DejaVuSans-72" x="628.417969"/>
      <use xlink:href="#DejaVuSans-69" x="669.53125"/>
      <use xlink:href="#DejaVuSans-73" x="697.314453"/>
      <use xlink:href="#DejaVuSans-61" x="749.414062"/>
      <use xlink:href="#DejaVuSans-6c" x="810.693359"/>
     </g>
    </g>
    <g id="line2d_32">
     <path d="M 524.56 69.334687 
L 534.56 69.334687 
L 544.56 69.334687 
" style="fill: none; stroke: #2ca02c; stroke-width: 1.5; stroke-linecap: square"/>
    </g>
    <g id="text_21">
     <!-- Node split -->
     <g transform="translate(552.56 72.834687)scale(0.1 -0.1)">
      <use xlink:href="#DejaVuSans-4e"/>
      <use xlink:href="#DejaVuSans-6f" x="74.804688"/>
      <use xlink:href="#DejaVuSans-64" x="135.986328"/>
      <use xlink:href="#DejaVuSans-65" x="199.462891"/>
      <use xlink:href="#DejaVuSans-20" x="260.986328"/>
      <use xlink:href="#DejaVuSans-73" x="292.773438"/>
      <use xlink:href="#DejaVuSans-70" x="344.873047"/>
      <use xlink:href="#DejaVuSans-6c" x="408.349609"/>
      <use xlink:href="#DejaVuSans-69" x="436.132812"/>
      <use xlink:href="#DejaVuSans-74" x="463.916016"/>
     </g>
    </g>
    <g id="line2d_33">
     <path d="M 524.56 84.012812 
L 534.56 84.012812 
L 544.56 84.012812 
" style="fill: none; stroke: #d62728; stroke-width: 1.5; stroke-linecap: square"/>
    </g>
    <g id="text_22">
     <!-- Node split + surprisal -->
     <g transform="translate(552.56 87.512812)scale(0.1 -0.1)">
      <use xlink:href="#DejaVuSans-4e"/>
      <use xlink:href="#DejaVuSans-6f" x="74.804688"/>
      <use xlink:href="#DejaVuSans-64" x="135.986328"/>
      <use xlink:href="#DejaVuSans-65" x="199.462891"/>
      <use xlink:href="#DejaVuSans-20" x="260.986328"/>
      <use xlink:href="#DejaVuSans-73" x="292.773438"/>
      <use xlink:href="#DejaVuSans-70" x="344.873047"/>
      <use xlink:href="#DejaVuSans-6c" x="408.349609"/>
      <use xlink:href="#DejaVuSans-69" x="436.132812"/>
      <use xlink:href="#DejaVuSans-74" x="463.916016"/>
      <use xlink:href="#DejaVuSans-20" x="503.125"/>
      <use xlink:href="#DejaVuSans-2b" x="534.912109"/>
      <use xlink:href="#DejaVuSans-20" x="618.701172"/>
      <use xlink:href="#DejaVuSans-73" x="650.488281"/>
      <use xlink:href="#DejaVuSans-75" x="702.587891"/>
      <use xlink:href="#DejaVuSans-72" x="765.966797"/>
      <use xlink:href="#DejaVuSans-70" x="807.080078"/>
      <use xlink:href="#DejaVuSans-72" x="870.556641"/>
      <use xlink:href="#DejaVuSans-69" x="911.669922"/>
      <use xlink:href="#DejaVuSans-73" x="939.453125"/>
      <use xlink:href="#DejaVuSans-61" x="991.552734"/>
      <use xlink:href="#DejaVuSans-6c" x="1052.832031"/>
     </g>
    </g>
    <g id="line2d_34">
     <path d="M 524.56 98.690937 
L 534.56 98.690937 
L 544.56 98.690937 
" style="fill: none; stroke: #9467bd; stroke-width: 1.5; stroke-linecap: square"/>
    </g>
    <g id="text_23">
     <!-- Node random split -->
     <g transform="translate(552.56 102.190937)scale(0.1 -0.1)">
      <use xlink:href="#DejaVuSans-4e"/>
      <use xlink:href="#DejaVuSans-6f" x="74.804688"/>
      <use xlink:href="#DejaVuSans-64" x="135.986328"/>
      <use xlink:href="#DejaVuSans-65" x="199.462891"/>
      <use xlink:href="#DejaVuSans-20" x="260.986328"/>
      <use xlink:href="#DejaVuSans-72" x="292.773438"/>
      <use xlink:href="#DejaVuSans-61" x="333.886719"/>
      <use xlink:href="#DejaVuSans-6e" x="395.166016"/>
      <use xlink:href="#DejaVuSans-64" x="458.544922"/>
      <use xlink:href="#DejaVuSans-6f" x="522.021484"/>
      <use xlink:href="#DejaVuSans-6d" x="583.203125"/>
      <use xlink:href="#DejaVuSans-20" x="680.615234"/>
      <use xlink:href="#DejaVuSans-73" x="712.402344"/>
      <use xlink:href="#DejaVuSans-70" x="764.501953"/>
      <use xlink:href="#DejaVuSans-6c" x="827.978516"/>
      <use xlink:href="#DejaVuSans-69" x="855.761719"/>
      <use xlink:href="#DejaVuSans-74" x="883.544922"/>
     </g>
    </g>
    <g id="line2d_35">
     <path d="M 524.56 113.369062 
L 534.56 113.369062 
L 544.56 113.369062 
" style="fill: none; stroke: #8c564b; stroke-width: 1.5; stroke-linecap: square"/>
    </g>
    <g id="text_24">
     <!-- Node random split + surprisal -->
     <g transform="translate(552.56 116.869062)scale(0.1 -0.1)">
      <use xlink:href="#DejaVuSans-4e"/>
      <use xlink:href="#DejaVuSans-6f" x="74.804688"/>
      <use xlink:href="#DejaVuSans-64" x="135.986328"/>
      <use xlink:href="#DejaVuSans-65" x="199.462891"/>
      <use xlink:href="#DejaVuSans-20" x="260.986328"/>
      <use xlink:href="#DejaVuSans-72" x="292.773438"/>
      <use xlink:href="#DejaVuSans-61" x="333.886719"/>
      <use xlink:href="#DejaVuSans-6e" x="395.166016"/>
      <use xlink:href="#DejaVuSans-64" x="458.544922"/>
      <use xlink:href="#DejaVuSans-6f" x="522.021484"/>
      <use xlink:href="#DejaVuSans-6d" x="583.203125"/>
      <use xlink:href="#DejaVuSans-20" x="680.615234"/>
      <use xlink:href="#DejaVuSans-73" x="712.402344"/>
      <use xlink:href="#DejaVuSans-70" x="764.501953"/>
      <use xlink:href="#DejaVuSans-6c" x="827.978516"/>
      <use xlink:href="#DejaVuSans-69" x="855.761719"/>
      <use xlink:href="#DejaVuSans-74" x="883.544922"/>
      <use xlink:href="#DejaVuSans-20" x="922.753906"/>
      <use xlink:href="#DejaVuSans-2b" x="954.541016"/>
      <use xlink:href="#DejaVuSans-20" x="1038.330078"/>
      <use xlink:href="#DejaVuSans-73" x="1070.117188"/>
      <use xlink:href="#DejaVuSans-75" x="1122.216797"/>
      <use xlink:href="#DejaVuSans-72" x="1185.595703"/>
      <use xlink:href="#DejaVuSans-70" x="1226.708984"/>
      <use xlink:href="#DejaVuSans-72" x="1290.185547"/>
      <use xlink:href="#DejaVuSans-69" x="1331.298828"/>
      <use xlink:href="#DejaVuSans-73" x="1359.082031"/>
      <use xlink:href="#DejaVuSans-61" x="1411.181641"/>
      <use xlink:href="#DejaVuSans-6c" x="1472.460938"/>
     </g>
    </g>
    <g id="line2d_36">
     <path d="M 524.56 128.047187 
L 534.56 128.047187 
L 544.56 128.047187 
" style="fill: none; stroke: #e377c2; stroke-width: 1.5; stroke-linecap: square"/>
    </g>
    <g id="text_25">
     <!-- Interaction -->
     <g transform="translate(552.56 131.547187)scale(0.1 -0.1)">
      <use xlink:href="#DejaVuSans-49"/>
      <use xlink:href="#DejaVuSans-6e" x="29.492188"/>
      <use xlink:href="#DejaVuSans-74" x="92.871094"/>
      <use xlink:href="#DejaVuSans-65" x="132.080078"/>
      <use xlink:href="#DejaVuSans-72" x="193.603516"/>
      <use xlink:href="#DejaVuSans-61" x="234.716797"/>
      <use xlink:href="#DejaVuSans-63" x="295.996094"/>
      <use xlink:href="#DejaVuSans-74" x="350.976562"/>
      <use xlink:href="#DejaVuSans-69" x="390.185547"/>
      <use xlink:href="#DejaVuSans-6f" x="417.96875"/>
      <use xlink:href="#DejaVuSans-6e" x="479.150391"/>
     </g>
    </g>
    <g id="line2d_37">
     <path d="M 524.56 142.725312 
L 534.56 142.725312 
L 544.56 142.725312 
" style="fill: none; stroke: #7f7f7f; stroke-width: 1.5; stroke-linecap: square"/>
    </g>
    <g id="text_26">
     <!-- Node + surprisal + interaction -->
     <g transform="translate(552.56 146.225312)scale(0.1 -0.1)">
      <use xlink:href="#DejaVuSans-4e"/>
      <use xlink:href="#DejaVuSans-6f" x="74.804688"/>
      <use xlink:href="#DejaVuSans-64" x="135.986328"/>
      <use xlink:href="#DejaVuSans-65" x="199.462891"/>
      <use xlink:href="#DejaVuSans-20" x="260.986328"/>
      <use xlink:href="#DejaVuSans-2b" x="292.773438"/>
      <use xlink:href="#DejaVuSans-20" x="376.5625"/>
      <use xlink:href="#DejaVuSans-73" x="408.349609"/>
      <use xlink:href="#DejaVuSans-75" x="460.449219"/>
      <use xlink:href="#DejaVuSans-72" x="523.828125"/>
      <use xlink:href="#DejaVuSans-70" x="564.941406"/>
      <use xlink:href="#DejaVuSans-72" x="628.417969"/>
      <use xlink:href="#DejaVuSans-69" x="669.53125"/>
      <use xlink:href="#DejaVuSans-73" x="697.314453"/>
      <use xlink:href="#DejaVuSans-61" x="749.414062"/>
      <use xlink:href="#DejaVuSans-6c" x="810.693359"/>
      <use xlink:href="#DejaVuSans-20" x="838.476562"/>
      <use xlink:href="#DejaVuSans-2b" x="870.263672"/>
      <use xlink:href="#DejaVuSans-20" x="954.052734"/>
      <use xlink:href="#DejaVuSans-69" x="985.839844"/>
      <use xlink:href="#DejaVuSans-6e" x="1013.623047"/>
      <use xlink:href="#DejaVuSans-74" x="1077.001953"/>
      <use xlink:href="#DejaVuSans-65" x="1116.210938"/>
      <use xlink:href="#DejaVuSans-72" x="1177.734375"/>
      <use xlink:href="#DejaVuSans-61" x="1218.847656"/>
      <use xlink:href="#DejaVuSans-63" x="1280.126953"/>
      <use xlink:href="#DejaVuSans-74" x="1335.107422"/>
      <use xlink:href="#DejaVuSans-69" x="1374.316406"/>
      <use xlink:href="#DejaVuSans-6f" x="1402.099609"/>
      <use xlink:href="#DejaVuSans-6e" x="1463.28125"/>
     </g>
    </g>
   </g>
  </g>
 </g>
 <defs>
  <clipPath id="p0a49b41e32">
   <rect x="47.72" y="26.88" width="217.495" height="147.16"/>
  </clipPath>
  <clipPath id="p94b793950e">
   <rect x="298.065" y="26.88" width="217.495" height="147.16"/>
  </clipPath>
 </defs>
</svg>
