<?xml version="1.0" encoding="utf-8" standalone="no"?>
<!DOCTYPE svg PUBLIC "-//W3C//DTD SVG 1.1//EN"
  "http://www.w3.org/Graphics/SVG/1.1/DTD/svg11.dtd">
<svg xmlns:xlink="http://www.w3.org/1999/xlink" width="720pt" height="216pt" viewBox="0 0 720 216" xmlns="http://www.w3.org/2000/svg" version="1.1">
 <metadata>
  <rdf:RDF xmlns:dc="http://purl.org/dc/elements/1.1/" xmlns:cc="http://creativecommons.org/ns#" xmlns:rdf="http://www.w3.org/1999/02/22-rdf-syntax-ns#">
   <cc:Work>
    <dc:type rdf:resource="http://purl.org/dc/dcmitype/StillImage"/>
    <dc:date>2024-01-15T23:39:49.581110</dc:date>
    <dc:format>image/svg+xml</dc:format>
    <dc:creator>
     <cc:Agent>
      <dc:title>Matplotlib v3.5.1, https://matplotlib.org/</dc:title>
     </cc:Agent>
    </dc:creator>
   </cc:Work>
  </rdf:RDF>
 </metadata>
 <defs>
  <style type="text/css">*{stroke-linejoin: round; stroke-linecap: butt}</style>
 </defs>
 <g id="figure_1">
  <g id="patch_1">
   <path d="M 0 216 
L 720 216 
L 720 0 
L 0 0 
z
" style="fill: #ffffff"/>
  </g>
  <g id="axes_1">
   <g id="patch_2">
    <path d="M 47.72 174.04 
L 265.215 174.04 
L 265.215 26.88 
L 47.72 26.88 
z
" style="fill: #ffffff"/>
   </g>
   <g id="PolyCollection_1">
    <path d="M 47.72 33.623846 
L 47.72 34.197078 
L 59.167105 35.227149 
L 70.614211 38.480198 
L 82.061316 42.988661 
L 93.508421 48.702165 
L 104.955526 55.134539 
L 116.402632 62.283708 
L 127.849737 69.801968 
L 139.296842 76.815632 
L 150.743947 84.917296 
L 162.191053 92.496959 
L 173.638158 100.344019 
L 185.085263 107.370557 
L 196.532368 115.102504 
L 207.979474 121.75451 
L 219.426579 128.341679 
L 230.873684 134.640646 
L 242.320789 140.771176 
L 253.767895 146.430879 
L 265.215 151.537049 
L 265.215 136.59251 
L 265.215 136.59251 
L 253.767895 131.847348 
L 242.320789 127.656805 
L 230.873684 122.159581 
L 219.426579 116.553032 
L 207.979474 110.272841 
L 196.532368 104.741346 
L 185.085263 97.808256 
L 173.638158 91.493032 
L 162.191053 84.243575 
L 150.743947 77.106278 
L 139.296842 70.241455 
L 127.849737 63.469973 
L 116.402632 56.276899 
L 104.955526 50.362396 
L 93.508421 44.319582 
L 82.061316 40.014112 
L 70.614211 36.892861 
L 59.167105 34.525919 
L 47.72 33.623846 
z
" clip-path="url(#p368de60927)" style="fill: #1f77b4; fill-opacity: 0.4"/>
   </g>
   <g id="PolyCollection_2">
    <path d="M 47.72 33.648835 
L 47.72 34.212525 
L 59.167105 34.879573 
L 70.614211 36.761832 
L 82.061316 39.246449 
L 93.508421 42.892738 
L 104.955526 47.515795 
L 116.402632 53.029856 
L 127.849737 59.176056 
L 139.296842 65.134229 
L 150.743947 72.172167 
L 162.191053 78.727619 
L 173.638158 85.787524 
L 185.085263 92.304969 
L 196.532368 99.415889 
L 207.979474 105.789098 
L 219.426579 112.010666 
L 230.873684 118.316228 
L 242.320789 124.24828 
L 253.767895 129.658421 
L 265.215 134.750175 
L 265.215 119.173235 
L 265.215 119.173235 
L 253.767895 113.879876 
L 242.320789 109.271489 
L 230.873684 103.868447 
L 219.426579 98.15133 
L 207.979474 91.935319 
L 196.532368 86.540361 
L 185.085263 80.33269 
L 173.638158 74.642491 
L 162.191053 68.401292 
L 150.743947 62.296852 
L 139.296842 56.833125 
L 127.849737 51.959205 
L 116.402632 47.123109 
L 104.955526 43.485214 
L 93.508421 39.833349 
L 82.061316 37.371643 
L 70.614211 35.550874 
L 59.167105 34.285975 
L 47.72 33.648835 
z
" clip-path="url(#p368de60927)" style="fill: #ff7f0e; fill-opacity: 0.4"/>
   </g>
   <g id="PolyCollection_3">
    <path d="M 47.72 33.638417 
L 47.72 34.219977 
L 59.167105 35.004485 
L 70.614211 36.625553 
L 82.061316 38.742808 
L 93.508421 41.708447 
L 104.955526 44.620786 
L 116.402632 48.008587 
L 127.849737 51.912515 
L 139.296842 55.007471 
L 150.743947 58.633187 
L 162.191053 62.023088 
L 173.638158 65.775202 
L 185.085263 69.738427 
L 196.532368 73.546301 
L 207.979474 76.982452 
L 219.426579 80.414568 
L 230.873684 84.409382 
L 242.320789 87.884227 
L 253.767895 91.256148 
L 265.215 94.359932 
L 265.215 86.523781 
L 265.215 86.523781 
L 253.767895 83.268589 
L 242.320789 79.93272 
L 230.873684 76.550838 
L 219.426579 73.057562 
L 207.979474 69.169135 
L 196.532368 66.427652 
L 185.085263 62.791485 
L 173.638158 59.715415 
L 162.191053 56.199395 
L 150.743947 52.775256 
L 139.296842 49.034166 
L 127.849737 46.721258 
L 116.402632 43.475068 
L 104.955526 40.750349 
L 93.508421 38.289191 
L 82.061316 36.408087 
L 70.614211 35.463636 
L 59.167105 34.354904 
L 47.72 33.638417 
z
" clip-path="url(#p368de60927)" style="fill: #2ca02c; fill-opacity: 0.4"/>
   </g>
   <g id="PolyCollection_4">
    <path d="M 47.72 33.665864 
L 47.72 34.234099 
L 59.167105 34.853721 
L 70.614211 36.070986 
L 82.061316 37.481304 
L 93.508421 39.736542 
L 104.955526 42.162355 
L 116.402632 45.317828 
L 127.849737 49.031288 
L 139.296842 52.204128 
L 150.743947 55.964697 
L 162.191053 59.527025 
L 173.638158 63.526289 
L 185.085263 67.61062 
L 196.532368 71.517569 
L 207.979474 75.072952 
L 219.426579 78.584977 
L 230.873684 82.651811 
L 242.320789 86.30652 
L 253.767895 89.794892 
L 265.215 93.047099 
L 265.215 84.715562 
L 265.215 84.715562 
L 253.767895 81.303788 
L 242.320789 77.927994 
L 230.873684 74.511978 
L 219.426579 70.980811 
L 207.979474 67.022286 
L 196.532368 64.153543 
L 185.085263 60.307002 
L 173.638158 57.131273 
L 162.191053 53.662898 
L 150.743947 50.241766 
L 139.296842 46.67578 
L 127.849737 44.46959 
L 116.402632 41.646538 
L 104.955526 39.471778 
L 93.508421 37.367271 
L 82.061316 35.918059 
L 70.614211 35.074584 
L 59.167105 34.268576 
L 47.72 33.665864 
z
" clip-path="url(#p368de60927)" style="fill: #d62728; fill-opacity: 0.4"/>
   </g>
   <g id="PolyCollection_5">
    <path d="M 47.72 33.64319 
L 47.72 34.219798 
L 59.167105 35.247596 
L 70.614211 38.51118 
L 82.061316 43.018417 
L 93.508421 48.757536 
L 104.955526 55.200222 
L 116.402632 62.445 
L 127.849737 69.772214 
L 139.296842 77.207646 
L 150.743947 84.986508 
L 162.191053 92.603848 
L 173.638158 100.597059 
L 185.085263 107.333743 
L 196.532368 115.232105 
L 207.979474 122.114667 
L 219.426579 128.932253 
L 230.873684 135.459278 
L 242.320789 141.478955 
L 253.767895 147.139734 
L 265.215 152.310281 
L 265.215 137.061364 
L 265.215 137.061364 
L 253.767895 132.277794 
L 242.320789 127.516055 
L 230.873684 122.826118 
L 219.426579 116.829566 
L 207.979474 110.619962 
L 196.532368 105.088295 
L 185.085263 98.026182 
L 173.638158 91.695974 
L 162.191053 84.16714 
L 150.743947 77.392735 
L 139.296842 70.436303 
L 127.849737 63.447652 
L 116.402632 56.361422 
L 104.955526 50.501204 
L 93.508421 44.432047 
L 82.061316 40.047552 
L 70.614211 36.911298 
L 59.167105 34.546671 
L 47.72 33.64319 
z
" clip-path="url(#p368de60927)" style="fill: #9467bd; fill-opacity: 0.4"/>
   </g>
   <g id="PolyCollection_6">
    <path d="M 47.72 33.66904 
L 47.72 34.236054 
L 59.167105 34.900133 
L 70.614211 36.788826 
L 82.061316 39.263856 
L 93.508421 42.93509 
L 104.955526 47.542027 
L 116.402632 53.063274 
L 127.849737 59.186326 
L 139.296842 65.314553 
L 150.743947 72.308934 
L 162.191053 78.770272 
L 173.638158 86.054226 
L 185.085263 92.318032 
L 196.532368 99.517138 
L 207.979474 105.97987 
L 219.426579 112.271695 
L 230.873684 119.040747 
L 242.320789 124.644152 
L 253.767895 130.214758 
L 265.215 135.163492 
L 265.215 119.39705 
L 265.215 119.39705 
L 253.767895 114.277184 
L 242.320789 109.263952 
L 230.873684 104.014288 
L 219.426579 98.418274 
L 207.979474 92.225802 
L 196.532368 86.963636 
L 185.085263 80.358914 
L 173.638158 74.786392 
L 162.191053 68.403626 
L 150.743947 62.449259 
L 139.296842 56.946588 
L 127.849737 51.963849 
L 116.402632 47.182932 
L 104.955526 43.603414 
L 93.508421 39.918975 
L 82.061316 37.391744 
L 70.614211 35.570793 
L 59.167105 34.304907 
L 47.72 33.66904 
z
" clip-path="url(#p368de60927)" style="fill: #8c564b; fill-opacity: 0.4"/>
   </g>
   <g id="PolyCollection_7">
    <path d="M 47.72 46.828661 
L 47.72 50.077747 
L 59.167105 51.715364 
L 70.614211 55.912978 
L 82.061316 62.101175 
L 93.508421 69.750041 
L 104.955526 77.925351 
L 116.402632 86.162616 
L 127.849737 94.55947 
L 139.296842 102.229117 
L 150.743947 110.056473 
L 162.191053 117.216142 
L 173.638158 124.574507 
L 185.085263 130.835708 
L 196.532368 138.040637 
L 207.979474 144.079433 
L 219.426579 149.687296 
L 230.873684 154.691284 
L 242.320789 159.651665 
L 253.767895 163.66453 
L 265.215 167.350909 
L 265.215 157.642996 
L 265.215 157.642996 
L 253.767895 153.658582 
L 242.320789 149.3073 
L 230.873684 143.965768 
L 219.426579 137.950197 
L 207.979474 131.451716 
L 196.532368 125.952509 
L 185.085263 119.107948 
L 173.638158 112.040015 
L 162.191053 104.251194 
L 150.743947 96.032798 
L 139.296842 88.121156 
L 127.849737 80.750072 
L 116.402632 72.690161 
L 104.955526 65.422561 
L 93.508421 59.02322 
L 82.061316 53.826277 
L 70.614211 50.304828 
L 59.167105 47.799767 
L 47.72 46.828661 
z
" clip-path="url(#p368de60927)" style="fill: #e377c2; fill-opacity: 0.4"/>
   </g>
   <g id="PolyCollection_8">
    <path d="M 47.72 33.662601 
L 47.72 34.224384 
L 59.167105 34.495234 
L 70.614211 34.874256 
L 82.061316 35.463676 
L 93.508421 37.149113 
L 104.955526 39.79146 
L 116.402632 44.032554 
L 127.849737 48.968384 
L 139.296842 54.37796 
L 150.743947 60.799153 
L 162.191053 66.49963 
L 173.638158 72.462437 
L 185.085263 78.502477 
L 196.532368 84.319152 
L 207.979474 90.73265 
L 219.426579 96.883874 
L 230.873684 103.390751 
L 242.320789 109.334166 
L 253.767895 115.140346 
L 265.215 120.218216 
L 265.215 103.990795 
L 265.215 103.990795 
L 253.767895 97.886939 
L 242.320789 92.779196 
L 230.873684 86.643923 
L 219.426579 80.627735 
L 207.979474 74.44462 
L 196.532368 69.192781 
L 185.085263 62.842834 
L 173.638158 57.265303 
L 162.191053 51.585187 
L 150.743947 46.60627 
L 139.296842 42.454029 
L 127.849737 39.700569 
L 116.402632 37.005692 
L 104.955526 35.60949 
L 93.508421 34.539179 
L 82.061316 34.011332 
L 70.614211 34.095004 
L 59.167105 33.981637 
L 47.72 33.662601 
z
" clip-path="url(#p368de60927)" style="fill: #7f7f7f; fill-opacity: 0.4"/>
   </g>
   <g id="matplotlib.axis_1">
    <g id="xtick_1">
     <g id="line2d_1">
      <defs>
       <path id="m9fc7b304c1" d="M 0 0 
L 0 3.5 
" style="stroke: #000000; stroke-width: 0.8"/>
      </defs>
      <g>
       <use xlink:href="#m9fc7b304c1" x="47.72" y="174.04" style="stroke: #000000; stroke-width: 0.8"/>
      </g>
     </g>
     <g id="text_1">
      <!-- 0.0 -->
      <g transform="translate(39.768438 188.638438)scale(0.1 -0.1)">
       <defs>
        <path id="DejaVuSans-30" d="M 2034 4250 
Q 1547 4250 1301 3770 
Q 1056 3291 1056 2328 
Q 1056 1369 1301 889 
Q 1547 409 2034 409 
Q 2525 409 2770 889 
Q 3016 1369 3016 2328 
Q 3016 3291 2770 3770 
Q 2525 4250 2034 4250 
z
M 2034 4750 
Q 2819 4750 3233 4129 
Q 3647 3509 3647 2328 
Q 3647 1150 3233 529 
Q 2819 -91 2034 -91 
Q 1250 -91 836 529 
Q 422 1150 422 2328 
Q 422 3509 836 4129 
Q 1250 4750 2034 4750 
z
" transform="scale(0.015625)"/>
        <path id="DejaVuSans-2e" d="M 684 794 
L 1344 794 
L 1344 0 
L 684 0 
L 684 794 
z
" transform="scale(0.015625)"/>
       </defs>
       <use xlink:href="#DejaVuSans-30"/>
       <use xlink:href="#DejaVuSans-2e" x="63.623047"/>
       <use xlink:href="#DejaVuSans-30" x="95.410156"/>
      </g>
     </g>
    </g>
    <g id="xtick_2">
     <g id="line2d_2">
      <g>
       <use xlink:href="#m9fc7b304c1" x="102.09375" y="174.04" style="stroke: #000000; stroke-width: 0.8"/>
      </g>
     </g>
     <g id="text_2">
      <!-- 0.5 -->
      <g transform="translate(94.142188 188.638438)scale(0.1 -0.1)">
       <defs>
        <path id="DejaVuSans-35" d="M 691 4666 
L 3169 4666 
L 3169 4134 
L 1269 4134 
L 1269 2991 
Q 1406 3038 1543 3061 
Q 1681 3084 1819 3084 
Q 2600 3084 3056 2656 
Q 3513 2228 3513 1497 
Q 3513 744 3044 326 
Q 2575 -91 1722 -91 
Q 1428 -91 1123 -41 
Q 819 9 494 109 
L 494 744 
Q 775 591 1075 516 
Q 1375 441 1709 441 
Q 2250 441 2565 725 
Q 2881 1009 2881 1497 
Q 2881 1984 2565 2268 
Q 2250 2553 1709 2553 
Q 1456 2553 1204 2497 
Q 953 2441 691 2322 
L 691 4666 
z
" transform="scale(0.015625)"/>
       </defs>
       <use xlink:href="#DejaVuSans-30"/>
       <use xlink:href="#DejaVuSans-2e" x="63.623047"/>
       <use xlink:href="#DejaVuSans-35" x="95.410156"/>
      </g>
     </g>
    </g>
    <g id="xtick_3">
     <g id="line2d_3">
      <g>
       <use xlink:href="#m9fc7b304c1" x="156.4675" y="174.04" style="stroke: #000000; stroke-width: 0.8"/>
      </g>
     </g>
     <g id="text_3">
      <!-- 1.0 -->
      <g transform="translate(148.515938 188.638438)scale(0.1 -0.1)">
       <defs>
        <path id="DejaVuSans-31" d="M 794 531 
L 1825 531 
L 1825 4091 
L 703 3866 
L 703 4441 
L 1819 4666 
L 2450 4666 
L 2450 531 
L 3481 531 
L 3481 0 
L 794 0 
L 794 531 
z
" transform="scale(0.015625)"/>
       </defs>
       <use xlink:href="#DejaVuSans-31"/>
       <use xlink:href="#DejaVuSans-2e" x="63.623047"/>
       <use xlink:href="#DejaVuSans-30" x="95.410156"/>
      </g>
     </g>
    </g>
    <g id="xtick_4">
     <g id="line2d_4">
      <g>
       <use xlink:href="#m9fc7b304c1" x="210.84125" y="174.04" style="stroke: #000000; stroke-width: 0.8"/>
      </g>
     </g>
     <g id="text_4">
      <!-- 1.5 -->
      <g transform="translate(202.889687 188.638438)scale(0.1 -0.1)">
       <use xlink:href="#DejaVuSans-31"/>
       <use xlink:href="#DejaVuSans-2e" x="63.623047"/>
       <use xlink:href="#DejaVuSans-35" x="95.410156"/>
      </g>
     </g>
    </g>
    <g id="xtick_5">
     <g id="line2d_5">
      <g>
       <use xlink:href="#m9fc7b304c1" x="265.215" y="174.04" style="stroke: #000000; stroke-width: 0.8"/>
      </g>
     </g>
     <g id="text_5">
      <!-- 2.0 -->
      <g transform="translate(257.263437 188.638438)scale(0.1 -0.1)">
       <defs>
        <path id="DejaVuSans-32" d="M 1228 531 
L 3431 531 
L 3431 0 
L 469 0 
L 469 531 
Q 828 903 1448 1529 
Q 2069 2156 2228 2338 
Q 2531 2678 2651 2914 
Q 2772 3150 2772 3378 
Q 2772 3750 2511 3984 
Q 2250 4219 1831 4219 
Q 1534 4219 1204 4116 
Q 875 4013 500 3803 
L 500 4441 
Q 881 4594 1212 4672 
Q 1544 4750 1819 4750 
Q 2544 4750 2975 4387 
Q 3406 4025 3406 3419 
Q 3406 3131 3298 2873 
Q 3191 2616 2906 2266 
Q 2828 2175 2409 1742 
Q 1991 1309 1228 531 
z
" transform="scale(0.015625)"/>
       </defs>
       <use xlink:href="#DejaVuSans-32"/>
       <use xlink:href="#DejaVuSans-2e" x="63.623047"/>
       <use xlink:href="#DejaVuSans-30" x="95.410156"/>
      </g>
     </g>
    </g>
    <g id="text_6">
     <!-- Influence of surprisal (multiplication) -->
     <g transform="translate(64.320625 202.316563)scale(0.1 -0.1)">
      <defs>
       <path id="DejaVuSans-49" d="M 628 4666 
L 1259 4666 
L 1259 0 
L 628 0 
L 628 4666 
z
" transform="scale(0.015625)"/>
       <path id="DejaVuSans-6e" d="M 3513 2113 
L 3513 0 
L 2938 0 
L 2938 2094 
Q 2938 2591 2744 2837 
Q 2550 3084 2163 3084 
Q 1697 3084 1428 2787 
Q 1159 2491 1159 1978 
L 1159 0 
L 581 0 
L 581 3500 
L 1159 3500 
L 1159 2956 
Q 1366 3272 1645 3428 
Q 1925 3584 2291 3584 
Q 2894 3584 3203 3211 
Q 3513 2838 3513 2113 
z
" transform="scale(0.015625)"/>
       <path id="DejaVuSans-66" d="M 2375 4863 
L 2375 4384 
L 1825 4384 
Q 1516 4384 1395 4259 
Q 1275 4134 1275 3809 
L 1275 3500 
L 2222 3500 
L 2222 3053 
L 1275 3053 
L 1275 0 
L 697 0 
L 697 3053 
L 147 3053 
L 147 3500 
L 697 3500 
L 697 3744 
Q 697 4328 969 4595 
Q 1241 4863 1831 4863 
L 2375 4863 
z
" transform="scale(0.015625)"/>
       <path id="DejaVuSans-6c" d="M 603 4863 
L 1178 4863 
L 1178 0 
L 603 0 
L 603 4863 
z
" transform="scale(0.015625)"/>
       <path id="DejaVuSans-75" d="M 544 1381 
L 544 3500 
L 1119 3500 
L 1119 1403 
Q 1119 906 1312 657 
Q 1506 409 1894 409 
Q 2359 409 2629 706 
Q 2900 1003 2900 1516 
L 2900 3500 
L 3475 3500 
L 3475 0 
L 2900 0 
L 2900 538 
Q 2691 219 2414 64 
Q 2138 -91 1772 -91 
Q 1169 -91 856 284 
Q 544 659 544 1381 
z
M 1991 3584 
L 1991 3584 
z
" transform="scale(0.015625)"/>
       <path id="DejaVuSans-65" d="M 3597 1894 
L 3597 1613 
L 953 1613 
Q 991 1019 1311 708 
Q 1631 397 2203 397 
Q 2534 397 2845 478 
Q 3156 559 3463 722 
L 3463 178 
Q 3153 47 2828 -22 
Q 2503 -91 2169 -91 
Q 1331 -91 842 396 
Q 353 884 353 1716 
Q 353 2575 817 3079 
Q 1281 3584 2069 3584 
Q 2775 3584 3186 3129 
Q 3597 2675 3597 1894 
z
M 3022 2063 
Q 3016 2534 2758 2815 
Q 2500 3097 2075 3097 
Q 1594 3097 1305 2825 
Q 1016 2553 972 2059 
L 3022 2063 
z
" transform="scale(0.015625)"/>
       <path id="DejaVuSans-63" d="M 3122 3366 
L 3122 2828 
Q 2878 2963 2633 3030 
Q 2388 3097 2138 3097 
Q 1578 3097 1268 2742 
Q 959 2388 959 1747 
Q 959 1106 1268 751 
Q 1578 397 2138 397 
Q 2388 397 2633 464 
Q 2878 531 3122 666 
L 3122 134 
Q 2881 22 2623 -34 
Q 2366 -91 2075 -91 
Q 1284 -91 818 406 
Q 353 903 353 1747 
Q 353 2603 823 3093 
Q 1294 3584 2113 3584 
Q 2378 3584 2631 3529 
Q 2884 3475 3122 3366 
z
" transform="scale(0.015625)"/>
       <path id="DejaVuSans-20" transform="scale(0.015625)"/>
       <path id="DejaVuSans-6f" d="M 1959 3097 
Q 1497 3097 1228 2736 
Q 959 2375 959 1747 
Q 959 1119 1226 758 
Q 1494 397 1959 397 
Q 2419 397 2687 759 
Q 2956 1122 2956 1747 
Q 2956 2369 2687 2733 
Q 2419 3097 1959 3097 
z
M 1959 3584 
Q 2709 3584 3137 3096 
Q 3566 2609 3566 1747 
Q 3566 888 3137 398 
Q 2709 -91 1959 -91 
Q 1206 -91 779 398 
Q 353 888 353 1747 
Q 353 2609 779 3096 
Q 1206 3584 1959 3584 
z
" transform="scale(0.015625)"/>
       <path id="DejaVuSans-73" d="M 2834 3397 
L 2834 2853 
Q 2591 2978 2328 3040 
Q 2066 3103 1784 3103 
Q 1356 3103 1142 2972 
Q 928 2841 928 2578 
Q 928 2378 1081 2264 
Q 1234 2150 1697 2047 
L 1894 2003 
Q 2506 1872 2764 1633 
Q 3022 1394 3022 966 
Q 3022 478 2636 193 
Q 2250 -91 1575 -91 
Q 1294 -91 989 -36 
Q 684 19 347 128 
L 347 722 
Q 666 556 975 473 
Q 1284 391 1588 391 
Q 1994 391 2212 530 
Q 2431 669 2431 922 
Q 2431 1156 2273 1281 
Q 2116 1406 1581 1522 
L 1381 1569 
Q 847 1681 609 1914 
Q 372 2147 372 2553 
Q 372 3047 722 3315 
Q 1072 3584 1716 3584 
Q 2034 3584 2315 3537 
Q 2597 3491 2834 3397 
z
" transform="scale(0.015625)"/>
       <path id="DejaVuSans-72" d="M 2631 2963 
Q 2534 3019 2420 3045 
Q 2306 3072 2169 3072 
Q 1681 3072 1420 2755 
Q 1159 2438 1159 1844 
L 1159 0 
L 581 0 
L 581 3500 
L 1159 3500 
L 1159 2956 
Q 1341 3275 1631 3429 
Q 1922 3584 2338 3584 
Q 2397 3584 2469 3576 
Q 2541 3569 2628 3553 
L 2631 2963 
z
" transform="scale(0.015625)"/>
       <path id="DejaVuSans-70" d="M 1159 525 
L 1159 -1331 
L 581 -1331 
L 581 3500 
L 1159 3500 
L 1159 2969 
Q 1341 3281 1617 3432 
Q 1894 3584 2278 3584 
Q 2916 3584 3314 3078 
Q 3713 2572 3713 1747 
Q 3713 922 3314 415 
Q 2916 -91 2278 -91 
Q 1894 -91 1617 61 
Q 1341 213 1159 525 
z
M 3116 1747 
Q 3116 2381 2855 2742 
Q 2594 3103 2138 3103 
Q 1681 3103 1420 2742 
Q 1159 2381 1159 1747 
Q 1159 1113 1420 752 
Q 1681 391 2138 391 
Q 2594 391 2855 752 
Q 3116 1113 3116 1747 
z
" transform="scale(0.015625)"/>
       <path id="DejaVuSans-69" d="M 603 3500 
L 1178 3500 
L 1178 0 
L 603 0 
L 603 3500 
z
M 603 4863 
L 1178 4863 
L 1178 4134 
L 603 4134 
L 603 4863 
z
" transform="scale(0.015625)"/>
       <path id="DejaVuSans-61" d="M 2194 1759 
Q 1497 1759 1228 1600 
Q 959 1441 959 1056 
Q 959 750 1161 570 
Q 1363 391 1709 391 
Q 2188 391 2477 730 
Q 2766 1069 2766 1631 
L 2766 1759 
L 2194 1759 
z
M 3341 1997 
L 3341 0 
L 2766 0 
L 2766 531 
Q 2569 213 2275 61 
Q 1981 -91 1556 -91 
Q 1019 -91 701 211 
Q 384 513 384 1019 
Q 384 1609 779 1909 
Q 1175 2209 1959 2209 
L 2766 2209 
L 2766 2266 
Q 2766 2663 2505 2880 
Q 2244 3097 1772 3097 
Q 1472 3097 1187 3025 
Q 903 2953 641 2809 
L 641 3341 
Q 956 3463 1253 3523 
Q 1550 3584 1831 3584 
Q 2591 3584 2966 3190 
Q 3341 2797 3341 1997 
z
" transform="scale(0.015625)"/>
       <path id="DejaVuSans-28" d="M 1984 4856 
Q 1566 4138 1362 3434 
Q 1159 2731 1159 2009 
Q 1159 1288 1364 580 
Q 1569 -128 1984 -844 
L 1484 -844 
Q 1016 -109 783 600 
Q 550 1309 550 2009 
Q 550 2706 781 3412 
Q 1013 4119 1484 4856 
L 1984 4856 
z
" transform="scale(0.015625)"/>
       <path id="DejaVuSans-6d" d="M 3328 2828 
Q 3544 3216 3844 3400 
Q 4144 3584 4550 3584 
Q 5097 3584 5394 3201 
Q 5691 2819 5691 2113 
L 5691 0 
L 5113 0 
L 5113 2094 
Q 5113 2597 4934 2840 
Q 4756 3084 4391 3084 
Q 3944 3084 3684 2787 
Q 3425 2491 3425 1978 
L 3425 0 
L 2847 0 
L 2847 2094 
Q 2847 2600 2669 2842 
Q 2491 3084 2119 3084 
Q 1678 3084 1418 2786 
Q 1159 2488 1159 1978 
L 1159 0 
L 581 0 
L 581 3500 
L 1159 3500 
L 1159 2956 
Q 1356 3278 1631 3431 
Q 1906 3584 2284 3584 
Q 2666 3584 2933 3390 
Q 3200 3197 3328 2828 
z
" transform="scale(0.015625)"/>
       <path id="DejaVuSans-74" d="M 1172 4494 
L 1172 3500 
L 2356 3500 
L 2356 3053 
L 1172 3053 
L 1172 1153 
Q 1172 725 1289 603 
Q 1406 481 1766 481 
L 2356 481 
L 2356 0 
L 1766 0 
Q 1100 0 847 248 
Q 594 497 594 1153 
L 594 3053 
L 172 3053 
L 172 3500 
L 594 3500 
L 594 4494 
L 1172 4494 
z
" transform="scale(0.015625)"/>
       <path id="DejaVuSans-29" d="M 513 4856 
L 1013 4856 
Q 1481 4119 1714 3412 
Q 1947 2706 1947 2009 
Q 1947 1309 1714 600 
Q 1481 -109 1013 -844 
L 513 -844 
Q 928 -128 1133 580 
Q 1338 1288 1338 2009 
Q 1338 2731 1133 3434 
Q 928 4138 513 4856 
z
" transform="scale(0.015625)"/>
      </defs>
      <use xlink:href="#DejaVuSans-49"/>
      <use xlink:href="#DejaVuSans-6e" x="29.492188"/>
      <use xlink:href="#DejaVuSans-66" x="92.871094"/>
      <use xlink:href="#DejaVuSans-6c" x="128.076172"/>
      <use xlink:href="#DejaVuSans-75" x="155.859375"/>
      <use xlink:href="#DejaVuSans-65" x="219.238281"/>
      <use xlink:href="#DejaVuSans-6e" x="280.761719"/>
      <use xlink:href="#DejaVuSans-63" x="344.140625"/>
      <use xlink:href="#DejaVuSans-65" x="399.121094"/>
      <use xlink:href="#DejaVuSans-20" x="460.644531"/>
      <use xlink:href="#DejaVuSans-6f" x="492.431641"/>
      <use xlink:href="#DejaVuSans-66" x="553.613281"/>
      <use xlink:href="#DejaVuSans-20" x="588.818359"/>
      <use xlink:href="#DejaVuSans-73" x="620.605469"/>
      <use xlink:href="#DejaVuSans-75" x="672.705078"/>
      <use xlink:href="#DejaVuSans-72" x="736.083984"/>
      <use xlink:href="#DejaVuSans-70" x="777.197266"/>
      <use xlink:href="#DejaVuSans-72" x="840.673828"/>
      <use xlink:href="#DejaVuSans-69" x="881.787109"/>
      <use xlink:href="#DejaVuSans-73" x="909.570312"/>
      <use xlink:href="#DejaVuSans-61" x="961.669922"/>
      <use xlink:href="#DejaVuSans-6c" x="1022.949219"/>
      <use xlink:href="#DejaVuSans-20" x="1050.732422"/>
      <use xlink:href="#DejaVuSans-28" x="1082.519531"/>
      <use xlink:href="#DejaVuSans-6d" x="1121.533203"/>
      <use xlink:href="#DejaVuSans-75" x="1218.945312"/>
      <use xlink:href="#DejaVuSans-6c" x="1282.324219"/>
      <use xlink:href="#DejaVuSans-74" x="1310.107422"/>
      <use xlink:href="#DejaVuSans-69" x="1349.316406"/>
      <use xlink:href="#DejaVuSans-70" x="1377.099609"/>
      <use xlink:href="#DejaVuSans-6c" x="1440.576172"/>
      <use xlink:href="#DejaVuSans-69" x="1468.359375"/>
      <use xlink:href="#DejaVuSans-63" x="1496.142578"/>
      <use xlink:href="#DejaVuSans-61" x="1551.123047"/>
      <use xlink:href="#DejaVuSans-74" x="1612.402344"/>
      <use xlink:href="#DejaVuSans-69" x="1651.611328"/>
      <use xlink:href="#DejaVuSans-6f" x="1679.394531"/>
      <use xlink:href="#DejaVuSans-6e" x="1740.576172"/>
      <use xlink:href="#DejaVuSans-29" x="1803.955078"/>
     </g>
    </g>
   </g>
   <g id="matplotlib.axis_2">
    <g id="ytick_1">
     <g id="line2d_6">
      <defs>
       <path id="mb72fa0a074" d="M 0 0 
L -3.5 0 
" style="stroke: #000000; stroke-width: 0.8"/>
      </defs>
      <g>
       <use xlink:href="#mb72fa0a074" x="47.72" y="143.653491" style="stroke: #000000; stroke-width: 0.8"/>
      </g>
     </g>
     <g id="text_7">
      <!-- 0.4 -->
      <g transform="translate(24.816875 147.45271)scale(0.1 -0.1)">
       <defs>
        <path id="DejaVuSans-34" d="M 2419 4116 
L 825 1625 
L 2419 1625 
L 2419 4116 
z
M 2253 4666 
L 3047 4666 
L 3047 1625 
L 3713 1625 
L 3713 1100 
L 3047 1100 
L 3047 0 
L 2419 0 
L 2419 1100 
L 313 1100 
L 313 1709 
L 2253 4666 
z
" transform="scale(0.015625)"/>
       </defs>
       <use xlink:href="#DejaVuSans-30"/>
       <use xlink:href="#DejaVuSans-2e" x="63.623047"/>
       <use xlink:href="#DejaVuSans-34" x="95.410156"/>
      </g>
     </g>
    </g>
    <g id="ytick_2">
     <g id="line2d_7">
      <g>
       <use xlink:href="#mb72fa0a074" x="47.72" y="103.437804" style="stroke: #000000; stroke-width: 0.8"/>
      </g>
     </g>
     <g id="text_8">
      <!-- 0.6 -->
      <g transform="translate(24.816875 107.237023)scale(0.1 -0.1)">
       <defs>
        <path id="DejaVuSans-36" d="M 2113 2584 
Q 1688 2584 1439 2293 
Q 1191 2003 1191 1497 
Q 1191 994 1439 701 
Q 1688 409 2113 409 
Q 2538 409 2786 701 
Q 3034 994 3034 1497 
Q 3034 2003 2786 2293 
Q 2538 2584 2113 2584 
z
M 3366 4563 
L 3366 3988 
Q 3128 4100 2886 4159 
Q 2644 4219 2406 4219 
Q 1781 4219 1451 3797 
Q 1122 3375 1075 2522 
Q 1259 2794 1537 2939 
Q 1816 3084 2150 3084 
Q 2853 3084 3261 2657 
Q 3669 2231 3669 1497 
Q 3669 778 3244 343 
Q 2819 -91 2113 -91 
Q 1303 -91 875 529 
Q 447 1150 447 2328 
Q 447 3434 972 4092 
Q 1497 4750 2381 4750 
Q 2619 4750 2861 4703 
Q 3103 4656 3366 4563 
z
" transform="scale(0.015625)"/>
       </defs>
       <use xlink:href="#DejaVuSans-30"/>
       <use xlink:href="#DejaVuSans-2e" x="63.623047"/>
       <use xlink:href="#DejaVuSans-36" x="95.410156"/>
      </g>
     </g>
    </g>
    <g id="ytick_3">
     <g id="line2d_8">
      <g>
       <use xlink:href="#mb72fa0a074" x="47.72" y="63.222117" style="stroke: #000000; stroke-width: 0.8"/>
      </g>
     </g>
     <g id="text_9">
      <!-- 0.8 -->
      <g transform="translate(24.816875 67.021335)scale(0.1 -0.1)">
       <defs>
        <path id="DejaVuSans-38" d="M 2034 2216 
Q 1584 2216 1326 1975 
Q 1069 1734 1069 1313 
Q 1069 891 1326 650 
Q 1584 409 2034 409 
Q 2484 409 2743 651 
Q 3003 894 3003 1313 
Q 3003 1734 2745 1975 
Q 2488 2216 2034 2216 
z
M 1403 2484 
Q 997 2584 770 2862 
Q 544 3141 544 3541 
Q 544 4100 942 4425 
Q 1341 4750 2034 4750 
Q 2731 4750 3128 4425 
Q 3525 4100 3525 3541 
Q 3525 3141 3298 2862 
Q 3072 2584 2669 2484 
Q 3125 2378 3379 2068 
Q 3634 1759 3634 1313 
Q 3634 634 3220 271 
Q 2806 -91 2034 -91 
Q 1263 -91 848 271 
Q 434 634 434 1313 
Q 434 1759 690 2068 
Q 947 2378 1403 2484 
z
M 1172 3481 
Q 1172 3119 1398 2916 
Q 1625 2713 2034 2713 
Q 2441 2713 2670 2916 
Q 2900 3119 2900 3481 
Q 2900 3844 2670 4047 
Q 2441 4250 2034 4250 
Q 1625 4250 1398 4047 
Q 1172 3844 1172 3481 
z
" transform="scale(0.015625)"/>
       </defs>
       <use xlink:href="#DejaVuSans-30"/>
       <use xlink:href="#DejaVuSans-2e" x="63.623047"/>
       <use xlink:href="#DejaVuSans-38" x="95.410156"/>
      </g>
     </g>
    </g>
    <g id="text_10">
     <!-- R-value -->
     <g transform="translate(18.737188 119.064687)rotate(-90)scale(0.1 -0.1)">
      <defs>
       <path id="DejaVuSans-52" d="M 2841 2188 
Q 3044 2119 3236 1894 
Q 3428 1669 3622 1275 
L 4263 0 
L 3584 0 
L 2988 1197 
Q 2756 1666 2539 1819 
Q 2322 1972 1947 1972 
L 1259 1972 
L 1259 0 
L 628 0 
L 628 4666 
L 2053 4666 
Q 2853 4666 3247 4331 
Q 3641 3997 3641 3322 
Q 3641 2881 3436 2590 
Q 3231 2300 2841 2188 
z
M 1259 4147 
L 1259 2491 
L 2053 2491 
Q 2509 2491 2742 2702 
Q 2975 2913 2975 3322 
Q 2975 3731 2742 3939 
Q 2509 4147 2053 4147 
L 1259 4147 
z
" transform="scale(0.015625)"/>
       <path id="DejaVuSans-2d" d="M 313 2009 
L 1997 2009 
L 1997 1497 
L 313 1497 
L 313 2009 
z
" transform="scale(0.015625)"/>
       <path id="DejaVuSans-76" d="M 191 3500 
L 800 3500 
L 1894 563 
L 2988 3500 
L 3597 3500 
L 2284 0 
L 1503 0 
L 191 3500 
z
" transform="scale(0.015625)"/>
      </defs>
      <use xlink:href="#DejaVuSans-52"/>
      <use xlink:href="#DejaVuSans-2d" x="65.482422"/>
      <use xlink:href="#DejaVuSans-76" x="98.941406"/>
      <use xlink:href="#DejaVuSans-61" x="158.121094"/>
      <use xlink:href="#DejaVuSans-6c" x="219.400391"/>
      <use xlink:href="#DejaVuSans-75" x="247.183594"/>
      <use xlink:href="#DejaVuSans-65" x="310.5625"/>
     </g>
    </g>
   </g>
   <g id="line2d_9">
    <path d="M 47.72 33.910462 
L 59.167105 34.876534 
L 70.614211 37.686529 
L 82.061316 41.501387 
L 93.508421 46.510873 
L 104.955526 52.748468 
L 116.402632 59.280304 
L 127.849737 66.635971 
L 139.296842 73.528543 
L 150.743947 81.011787 
L 162.191053 88.370267 
L 173.638158 95.918526 
L 185.085263 102.589407 
L 196.532368 109.921925 
L 207.979474 116.013676 
L 219.426579 122.447355 
L 230.873684 128.400114 
L 242.320789 134.21399 
L 253.767895 139.139113 
L 265.215 144.064779 
" clip-path="url(#p368de60927)" style="fill: none; stroke: #1f77b4; stroke-width: 1.5; stroke-linecap: square"/>
   </g>
   <g id="line2d_10">
    <path d="M 47.72 33.93068 
L 59.167105 34.582774 
L 70.614211 36.156353 
L 82.061316 38.309046 
L 93.508421 41.363043 
L 104.955526 45.500504 
L 116.402632 50.076483 
L 127.849737 55.56763 
L 139.296842 60.983677 
L 150.743947 67.234509 
L 162.191053 73.564456 
L 173.638158 80.215008 
L 185.085263 86.31883 
L 196.532368 92.978125 
L 207.979474 98.862208 
L 219.426579 105.080998 
L 230.873684 111.092338 
L 242.320789 116.759885 
L 253.767895 121.769149 
L 265.215 126.961705 
" clip-path="url(#p368de60927)" style="fill: none; stroke: #ff7f0e; stroke-width: 1.5; stroke-linecap: square"/>
   </g>
   <g id="line2d_11">
    <path d="M 47.72 33.929197 
L 59.167105 34.679695 
L 70.614211 36.044594 
L 82.061316 37.575448 
L 93.508421 39.998819 
L 104.955526 42.685568 
L 116.402632 45.741827 
L 127.849737 49.316886 
L 139.296842 52.020818 
L 150.743947 55.704222 
L 162.191053 59.111241 
L 173.638158 62.745308 
L 185.085263 66.264956 
L 196.532368 69.986977 
L 207.979474 73.075794 
L 219.426579 76.736065 
L 230.873684 80.48011 
L 242.320789 83.908474 
L 253.767895 87.262368 
L 265.215 90.441857 
" clip-path="url(#p368de60927)" style="fill: none; stroke: #2ca02c; stroke-width: 1.5; stroke-linecap: square"/>
   </g>
   <g id="line2d_12">
    <path d="M 47.72 33.949982 
L 59.167105 34.561148 
L 70.614211 35.572785 
L 82.061316 36.699682 
L 93.508421 38.551906 
L 104.955526 40.817066 
L 116.402632 43.482183 
L 127.849737 46.750439 
L 139.296842 49.439954 
L 150.743947 53.103231 
L 162.191053 56.594961 
L 173.638158 60.328781 
L 185.085263 63.958811 
L 196.532368 67.835556 
L 207.979474 71.047619 
L 219.426579 74.782894 
L 230.873684 78.581895 
L 242.320789 82.117257 
L 253.767895 85.54934 
L 265.215 88.881331 
" clip-path="url(#p368de60927)" style="fill: none; stroke: #d62728; stroke-width: 1.5; stroke-linecap: square"/>
   </g>
   <g id="line2d_13">
    <path d="M 47.72 33.931494 
L 59.167105 34.897133 
L 70.614211 37.711239 
L 82.061316 41.532984 
L 93.508421 46.594791 
L 104.955526 52.850713 
L 116.402632 59.403211 
L 127.849737 66.609933 
L 139.296842 73.821975 
L 150.743947 81.189622 
L 162.191053 88.385494 
L 173.638158 96.146517 
L 185.085263 102.679963 
L 196.532368 110.1602 
L 207.979474 116.367314 
L 219.426579 122.88091 
L 230.873684 129.142698 
L 242.320789 134.497505 
L 253.767895 139.708764 
L 265.215 144.685823 
" clip-path="url(#p368de60927)" style="fill: none; stroke: #9467bd; stroke-width: 1.5; stroke-linecap: square"/>
   </g>
   <g id="line2d_14">
    <path d="M 47.72 33.952547 
L 59.167105 34.60252 
L 70.614211 36.179809 
L 82.061316 38.3278 
L 93.508421 41.427032 
L 104.955526 45.572721 
L 116.402632 50.123103 
L 127.849737 55.575087 
L 139.296842 61.130571 
L 150.743947 67.379096 
L 162.191053 73.586949 
L 173.638158 80.420309 
L 185.085263 86.338473 
L 196.532368 93.240387 
L 207.979474 99.102836 
L 219.426579 105.344984 
L 230.873684 111.527517 
L 242.320789 116.954052 
L 253.767895 122.245971 
L 265.215 127.280271 
" clip-path="url(#p368de60927)" style="fill: none; stroke: #8c564b; stroke-width: 1.5; stroke-linecap: square"/>
   </g>
   <g id="line2d_15">
    <path d="M 47.72 48.453204 
L 59.167105 49.757565 
L 70.614211 53.108903 
L 82.061316 57.963726 
L 93.508421 64.386631 
L 104.955526 71.673956 
L 116.402632 79.426388 
L 127.849737 87.654771 
L 139.296842 95.175137 
L 150.743947 103.044635 
L 162.191053 110.733668 
L 173.638158 118.307261 
L 185.085263 124.971828 
L 196.532368 131.996573 
L 207.979474 137.765575 
L 219.426579 143.818747 
L 230.873684 149.328526 
L 242.320789 154.479482 
L 253.767895 158.661556 
L 265.215 162.496952 
" clip-path="url(#p368de60927)" style="fill: none; stroke: #e377c2; stroke-width: 1.5; stroke-linecap: square"/>
   </g>
   <g id="line2d_16">
    <path d="M 47.72 33.943493 
L 59.167105 34.238436 
L 70.614211 34.48463 
L 82.061316 34.737504 
L 93.508421 35.844146 
L 104.955526 37.700475 
L 116.402632 40.519123 
L 127.849737 44.334476 
L 139.296842 48.415995 
L 150.743947 53.702711 
L 162.191053 59.042408 
L 173.638158 64.86387 
L 185.085263 70.672656 
L 196.532368 76.755966 
L 207.979474 82.588635 
L 219.426579 88.755804 
L 230.873684 95.017337 
L 242.320789 101.056681 
L 253.767895 106.513642 
L 265.215 112.104505 
" clip-path="url(#p368de60927)" style="fill: none; stroke: #7f7f7f; stroke-width: 1.5; stroke-linecap: square"/>
   </g>
   <g id="patch_3">
    <path d="M 47.72 174.04 
L 47.72 26.88 
" style="fill: none; stroke: #000000; stroke-width: 0.8; stroke-linejoin: miter; stroke-linecap: square"/>
   </g>
   <g id="patch_4">
    <path d="M 47.72 174.04 
L 265.215 174.04 
" style="fill: none; stroke: #000000; stroke-width: 0.8; stroke-linejoin: miter; stroke-linecap: square"/>
   </g>
   <g id="text_11">
    <!-- Node * surprisal -->
    <g transform="translate(108.18625 20.88)scale(0.12 -0.12)">
     <defs>
      <path id="DejaVuSans-4e" d="M 628 4666 
L 1478 4666 
L 3547 763 
L 3547 4666 
L 4159 4666 
L 4159 0 
L 3309 0 
L 1241 3903 
L 1241 0 
L 628 0 
L 628 4666 
z
" transform="scale(0.015625)"/>
      <path id="DejaVuSans-64" d="M 2906 2969 
L 2906 4863 
L 3481 4863 
L 3481 0 
L 2906 0 
L 2906 525 
Q 2725 213 2448 61 
Q 2172 -91 1784 -91 
Q 1150 -91 751 415 
Q 353 922 353 1747 
Q 353 2572 751 3078 
Q 1150 3584 1784 3584 
Q 2172 3584 2448 3432 
Q 2725 3281 2906 2969 
z
M 947 1747 
Q 947 1113 1208 752 
Q 1469 391 1925 391 
Q 2381 391 2643 752 
Q 2906 1113 2906 1747 
Q 2906 2381 2643 2742 
Q 2381 3103 1925 3103 
Q 1469 3103 1208 2742 
Q 947 2381 947 1747 
z
" transform="scale(0.015625)"/>
      <path id="DejaVuSans-2a" d="M 3009 3897 
L 1888 3291 
L 3009 2681 
L 2828 2375 
L 1778 3009 
L 1778 1831 
L 1422 1831 
L 1422 3009 
L 372 2375 
L 191 2681 
L 1313 3291 
L 191 3897 
L 372 4206 
L 1422 3572 
L 1422 4750 
L 1778 4750 
L 1778 3572 
L 2828 4206 
L 3009 3897 
z
" transform="scale(0.015625)"/>
     </defs>
     <use xlink:href="#DejaVuSans-4e"/>
     <use xlink:href="#DejaVuSans-6f" x="74.804688"/>
     <use xlink:href="#DejaVuSans-64" x="135.986328"/>
     <use xlink:href="#DejaVuSans-65" x="199.462891"/>
     <use xlink:href="#DejaVuSans-20" x="260.986328"/>
     <use xlink:href="#DejaVuSans-2a" x="292.773438"/>
     <use xlink:href="#DejaVuSans-20" x="342.773438"/>
     <use xlink:href="#DejaVuSans-73" x="374.560547"/>
     <use xlink:href="#DejaVuSans-75" x="426.660156"/>
     <use xlink:href="#DejaVuSans-72" x="490.039062"/>
     <use xlink:href="#DejaVuSans-70" x="531.152344"/>
     <use xlink:href="#DejaVuSans-72" x="594.628906"/>
     <use xlink:href="#DejaVuSans-69" x="635.742188"/>
     <use xlink:href="#DejaVuSans-73" x="663.525391"/>
     <use xlink:href="#DejaVuSans-61" x="715.625"/>
     <use xlink:href="#DejaVuSans-6c" x="776.904297"/>
    </g>
   </g>
  </g>
  <g id="axes_2">
   <g id="patch_5">
    <path d="M 298.065 174.04 
L 515.56 174.04 
L 515.56 26.88 
L 298.065 26.88 
z
" style="fill: #ffffff"/>
   </g>
   <g id="PolyCollection_9">
    <path d="M 298.065 33.569091 
L 298.065 34.224499 
L 309.512105 35.178546 
L 320.959211 39.154393 
L 332.406316 44.293518 
L 343.853421 51.628495 
L 355.300526 59.566874 
L 366.747632 67.71439 
L 378.194737 76.702191 
L 389.641842 84.549482 
L 401.088947 92.275785 
L 412.536053 100.561736 
L 423.983158 107.989525 
L 435.430263 115.329284 
L 446.877368 121.540899 
L 458.324474 127.728329 
L 469.771579 133.153643 
L 481.218684 138.589386 
L 492.665789 143.534758 
L 504.112895 148.416442 
L 515.56 152.854827 
L 515.56 143.225471 
L 515.56 143.225471 
L 504.112895 138.176003 
L 492.665789 132.533737 
L 481.218684 126.899904 
L 469.771579 121.477056 
L 458.324474 115.338052 
L 446.877368 108.720818 
L 435.430263 101.761194 
L 423.983158 95.31634 
L 412.536053 87.939156 
L 401.088947 80.474972 
L 389.641842 73.295745 
L 378.194737 66.390088 
L 366.747632 59.18765 
L 355.300526 52.506132 
L 343.853421 45.884391 
L 332.406316 41.132738 
L 320.959211 37.623962 
L 309.512105 34.522474 
L 298.065 33.569091 
z
" clip-path="url(#p6adf3a867a)" style="fill: #1f77b4; fill-opacity: 0.4"/>
   </g>
   <g id="PolyCollection_10">
    <path d="M 298.065 33.58778 
L 298.065 34.24032 
L 309.512105 35.201265 
L 320.959211 39.173163 
L 332.406316 44.330127 
L 343.853421 51.653148 
L 355.300526 59.622226 
L 366.747632 67.769321 
L 378.194737 76.773149 
L 389.641842 84.609393 
L 401.088947 92.350736 
L 412.536053 100.651096 
L 423.983158 108.099001 
L 435.430263 115.452983 
L 446.877368 121.669075 
L 458.324474 127.84315 
L 469.771579 133.311052 
L 481.218684 138.790047 
L 492.665789 143.772947 
L 504.112895 148.640549 
L 515.56 153.12656 
L 515.56 143.573489 
L 515.56 143.573489 
L 504.112895 138.515598 
L 492.665789 132.801229 
L 481.218684 127.094478 
L 469.771579 121.663069 
L 458.324474 115.497844 
L 446.877368 108.870841 
L 435.430263 101.869031 
L 423.983158 95.424696 
L 412.536053 88.03925 
L 401.088947 80.5685 
L 389.641842 73.377087 
L 378.194737 66.44494 
L 366.747632 59.215472 
L 355.300526 52.550093 
L 343.853421 45.91994 
L 332.406316 41.135247 
L 320.959211 37.639642 
L 309.512105 34.531708 
L 298.065 33.58778 
z
" clip-path="url(#p6adf3a867a)" style="fill: #ff7f0e; fill-opacity: 0.4"/>
   </g>
   <g id="PolyCollection_11">
    <path d="M 298.065 33.590751 
L 298.065 34.246815 
L 309.512105 35.193106 
L 320.959211 39.168952 
L 332.406316 44.332837 
L 343.853421 51.6695 
L 355.300526 59.615462 
L 366.747632 67.78805 
L 378.194737 76.803006 
L 389.641842 84.710986 
L 401.088947 92.443747 
L 412.536053 100.7375 
L 423.983158 108.196513 
L 435.430263 115.539121 
L 446.877368 121.761839 
L 458.324474 128.032912 
L 469.771579 133.479525 
L 481.218684 138.983359 
L 492.665789 144.084772 
L 504.112895 148.992169 
L 515.56 153.525915 
L 515.56 142.889104 
L 515.56 142.889104 
L 504.112895 137.780521 
L 492.665789 132.2013 
L 481.218684 126.617094 
L 469.771579 121.226462 
L 458.324474 115.170727 
L 446.877368 108.686454 
L 435.430263 101.739795 
L 423.983158 95.369094 
L 412.536053 88.026477 
L 401.088947 80.546898 
L 389.641842 73.397202 
L 378.194737 66.489752 
L 366.747632 59.285774 
L 355.300526 52.577007 
L 343.853421 45.951634 
L 332.406316 41.173814 
L 320.959211 37.658851 
L 309.512105 34.53381 
L 298.065 33.590751 
z
" clip-path="url(#p6adf3a867a)" style="fill: #2ca02c; fill-opacity: 0.4"/>
   </g>
   <g id="PolyCollection_12">
    <path d="M 298.065 33.599853 
L 298.065 34.256277 
L 309.512105 35.219298 
L 320.959211 39.190812 
L 332.406316 44.357239 
L 343.853421 51.684747 
L 355.300526 59.652856 
L 366.747632 67.832981 
L 378.194737 76.851147 
L 389.641842 84.751023 
L 401.088947 92.502617 
L 412.536053 100.79284 
L 423.983158 108.266783 
L 435.430263 115.65633 
L 446.877368 121.879327 
L 458.324474 128.174655 
L 469.771579 133.675524 
L 481.218684 139.193238 
L 492.665789 144.330983 
L 504.112895 149.244808 
L 515.56 153.753102 
L 515.56 143.145755 
L 515.56 143.145755 
L 504.112895 138.127204 
L 492.665789 132.439847 
L 481.218684 126.819793 
L 469.771579 121.423859 
L 458.324474 115.342742 
L 446.877368 108.846983 
L 435.430263 101.849716 
L 423.983158 95.480636 
L 412.536053 88.144972 
L 401.088947 80.601711 
L 389.641842 73.472988 
L 378.194737 66.530128 
L 366.747632 59.307424 
L 355.300526 52.612755 
L 343.853421 45.979479 
L 332.406316 41.175976 
L 320.959211 37.689284 
L 309.512105 34.546312 
L 298.065 33.599853 
z
" clip-path="url(#p6adf3a867a)" style="fill: #d62728; fill-opacity: 0.4"/>
   </g>
   <g id="PolyCollection_13">
    <path d="M 298.065 33.586795 
L 298.065 34.24503 
L 309.512105 35.191988 
L 320.959211 39.198411 
L 332.406316 44.30916 
L 343.853421 51.691909 
L 355.300526 59.755314 
L 366.747632 67.720436 
L 378.194737 76.740419 
L 389.641842 84.931674 
L 401.088947 92.250059 
L 412.536053 100.745063 
L 423.983158 108.224988 
L 435.430263 115.73535 
L 446.877368 122.04401 
L 458.324474 127.877396 
L 469.771579 133.384866 
L 481.218684 138.456455 
L 492.665789 144.078411 
L 504.112895 149.22162 
L 515.56 153.517008 
L 515.56 143.295572 
L 515.56 143.295572 
L 504.112895 138.153687 
L 492.665789 132.90604 
L 481.218684 127.193181 
L 469.771579 121.613163 
L 458.324474 116.328696 
L 446.877368 108.939174 
L 435.430263 102.139738 
L 423.983158 95.598011 
L 412.536053 87.880498 
L 401.088947 80.57728 
L 389.641842 73.341365 
L 378.194737 66.434631 
L 366.747632 59.152868 
L 355.300526 52.679212 
L 343.853421 45.881125 
L 332.406316 41.155705 
L 320.959211 37.652554 
L 309.512105 34.538093 
L 298.065 33.586795 
z
" clip-path="url(#p6adf3a867a)" style="fill: #9467bd; fill-opacity: 0.4"/>
   </g>
   <g id="PolyCollection_14">
    <path d="M 298.065 33.605807 
L 298.065 34.26155 
L 309.512105 35.215693 
L 320.959211 39.217544 
L 332.406316 44.344681 
L 343.853421 51.716995 
L 355.300526 59.812245 
L 366.747632 67.770682 
L 378.194737 76.806021 
L 389.641842 84.9942 
L 401.088947 92.30922 
L 412.536053 100.837841 
L 423.983158 108.346866 
L 435.430263 115.833722 
L 446.877368 122.153853 
L 458.324474 127.982533 
L 469.771579 133.501196 
L 481.218684 138.644012 
L 492.665789 144.299822 
L 504.112895 149.426911 
L 515.56 153.800386 
L 515.56 143.644772 
L 515.56 143.644772 
L 504.112895 138.488231 
L 492.665789 133.139303 
L 481.218684 127.383468 
L 469.771579 121.798116 
L 458.324474 116.466821 
L 446.877368 109.086884 
L 435.430263 102.259673 
L 423.983158 95.699902 
L 412.536053 87.975859 
L 401.088947 80.688608 
L 389.641842 73.424784 
L 378.194737 66.47975 
L 366.747632 59.181225 
L 355.300526 52.719235 
L 343.853421 45.918629 
L 332.406316 41.159799 
L 320.959211 37.669316 
L 309.512105 34.547923 
L 298.065 33.605807 
z
" clip-path="url(#p6adf3a867a)" style="fill: #8c564b; fill-opacity: 0.4"/>
   </g>
   <g id="PolyCollection_15">
    <path d="M 298.065 46.907131 
L 298.065 49.932134 
L 309.512105 50.904984 
L 320.959211 53.975511 
L 332.406316 58.336712 
L 343.853421 64.560626 
L 355.300526 71.665706 
L 366.747632 78.712405 
L 378.194737 86.839418 
L 389.641842 94.098273 
L 401.088947 100.94446 
L 412.536053 108.523156 
L 423.983158 115.545325 
L 435.430263 122.60374 
L 446.877368 128.471679 
L 458.324474 134.282648 
L 469.771579 139.651726 
L 481.218684 144.556262 
L 492.665789 148.688761 
L 504.112895 153.494834 
L 515.56 157.585955 
L 515.56 148.806525 
L 515.56 148.806525 
L 504.112895 143.862948 
L 492.665789 138.824453 
L 481.218684 133.456301 
L 469.771579 128.738178 
L 458.324474 123.135749 
L 446.877368 117.399531 
L 435.430263 111.449566 
L 423.983158 105.918491 
L 412.536053 99.295735 
L 401.088947 92.769583 
L 389.641842 85.990001 
L 378.194737 79.723173 
L 366.747632 72.876337 
L 355.300526 66.352534 
L 343.853421 59.899972 
L 332.406316 54.926159 
L 320.959211 51.156146 
L 309.512105 47.700724 
L 298.065 46.907131 
z
" clip-path="url(#p6adf3a867a)" style="fill: #e377c2; fill-opacity: 0.4"/>
   </g>
   <g id="PolyCollection_16">
    <path d="M 298.065 33.610149 
L 298.065 34.259991 
L 309.512105 35.209697 
L 320.959211 39.187251 
L 332.406316 44.366195 
L 343.853421 51.698883 
L 355.300526 59.672654 
L 366.747632 67.850362 
L 378.194737 76.871238 
L 389.641842 84.730632 
L 401.088947 92.466266 
L 412.536053 100.773555 
L 423.983158 108.185202 
L 435.430263 115.502836 
L 446.877368 121.692173 
L 458.324474 127.807697 
L 469.771579 133.22419 
L 481.218684 138.680718 
L 492.665789 143.631755 
L 504.112895 148.499601 
L 515.56 152.95729 
L 515.56 143.374959 
L 515.56 143.374959 
L 504.112895 138.245332 
L 492.665789 132.590256 
L 481.218684 126.917472 
L 469.771579 121.522553 
L 458.324474 115.429184 
L 446.877368 108.784869 
L 435.430263 101.786273 
L 423.983158 95.3949 
L 412.536053 88.054679 
L 401.088947 80.592095 
L 389.641842 73.461655 
L 378.194737 66.543806 
L 366.747632 59.312509 
L 355.300526 52.637273 
L 343.853421 46.023731 
L 332.406316 41.18219 
L 320.959211 37.672515 
L 309.512105 34.550408 
L 298.065 33.610149 
z
" clip-path="url(#p6adf3a867a)" style="fill: #7f7f7f; fill-opacity: 0.4"/>
   </g>
   <g id="matplotlib.axis_3">
    <g id="xtick_6">
     <g id="line2d_17">
      <g>
       <use xlink:href="#m9fc7b304c1" x="298.065" y="174.04" style="stroke: #000000; stroke-width: 0.8"/>
      </g>
     </g>
     <g id="text_12">
      <!-- 0.0 -->
      <g transform="translate(290.113437 188.638438)scale(0.1 -0.1)">
       <use xlink:href="#DejaVuSans-30"/>
       <use xlink:href="#DejaVuSans-2e" x="63.623047"/>
       <use xlink:href="#DejaVuSans-30" x="95.410156"/>
      </g>
     </g>
    </g>
    <g id="xtick_7">
     <g id="line2d_18">
      <g>
       <use xlink:href="#m9fc7b304c1" x="352.43875" y="174.04" style="stroke: #000000; stroke-width: 0.8"/>
      </g>
     </g>
     <g id="text_13">
      <!-- 0.5 -->
      <g transform="translate(344.487187 188.638438)scale(0.1 -0.1)">
       <use xlink:href="#DejaVuSans-30"/>
       <use xlink:href="#DejaVuSans-2e" x="63.623047"/>
       <use xlink:href="#DejaVuSans-35" x="95.410156"/>
      </g>
     </g>
    </g>
    <g id="xtick_8">
     <g id="line2d_19">
      <g>
       <use xlink:href="#m9fc7b304c1" x="406.8125" y="174.04" style="stroke: #000000; stroke-width: 0.8"/>
      </g>
     </g>
     <g id="text_14">
      <!-- 1.0 -->
      <g transform="translate(398.860937 188.638438)scale(0.1 -0.1)">
       <use xlink:href="#DejaVuSans-31"/>
       <use xlink:href="#DejaVuSans-2e" x="63.623047"/>
       <use xlink:href="#DejaVuSans-30" x="95.410156"/>
      </g>
     </g>
    </g>
    <g id="xtick_9">
     <g id="line2d_20">
      <g>
       <use xlink:href="#m9fc7b304c1" x="461.18625" y="174.04" style="stroke: #000000; stroke-width: 0.8"/>
      </g>
     </g>
     <g id="text_15">
      <!-- 1.5 -->
      <g transform="translate(453.234687 188.638438)scale(0.1 -0.1)">
       <use xlink:href="#DejaVuSans-31"/>
       <use xlink:href="#DejaVuSans-2e" x="63.623047"/>
       <use xlink:href="#DejaVuSans-35" x="95.410156"/>
      </g>
     </g>
    </g>
    <g id="xtick_10">
     <g id="line2d_21">
      <g>
       <use xlink:href="#m9fc7b304c1" x="515.56" y="174.04" style="stroke: #000000; stroke-width: 0.8"/>
      </g>
     </g>
     <g id="text_16">
      <!-- 2.0 -->
      <g transform="translate(507.608437 188.638438)scale(0.1 -0.1)">
       <use xlink:href="#DejaVuSans-32"/>
       <use xlink:href="#DejaVuSans-2e" x="63.623047"/>
       <use xlink:href="#DejaVuSans-30" x="95.410156"/>
      </g>
     </g>
    </g>
    <g id="text_17">
     <!-- Influence of surprisal (multiplication) -->
     <g transform="translate(314.665625 202.316563)scale(0.1 -0.1)">
      <use xlink:href="#DejaVuSans-49"/>
      <use xlink:href="#DejaVuSans-6e" x="29.492188"/>
      <use xlink:href="#DejaVuSans-66" x="92.871094"/>
      <use xlink:href="#DejaVuSans-6c" x="128.076172"/>
      <use xlink:href="#DejaVuSans-75" x="155.859375"/>
      <use xlink:href="#DejaVuSans-65" x="219.238281"/>
      <use xlink:href="#DejaVuSans-6e" x="280.761719"/>
      <use xlink:href="#DejaVuSans-63" x="344.140625"/>
      <use xlink:href="#DejaVuSans-65" x="399.121094"/>
      <use xlink:href="#DejaVuSans-20" x="460.644531"/>
      <use xlink:href="#DejaVuSans-6f" x="492.431641"/>
      <use xlink:href="#DejaVuSans-66" x="553.613281"/>
      <use xlink:href="#DejaVuSans-20" x="588.818359"/>
      <use xlink:href="#DejaVuSans-73" x="620.605469"/>
      <use xlink:href="#DejaVuSans-75" x="672.705078"/>
      <use xlink:href="#DejaVuSans-72" x="736.083984"/>
      <use xlink:href="#DejaVuSans-70" x="777.197266"/>
      <use xlink:href="#DejaVuSans-72" x="840.673828"/>
      <use xlink:href="#DejaVuSans-69" x="881.787109"/>
      <use xlink:href="#DejaVuSans-73" x="909.570312"/>
      <use xlink:href="#DejaVuSans-61" x="961.669922"/>
      <use xlink:href="#DejaVuSans-6c" x="1022.949219"/>
      <use xlink:href="#DejaVuSans-20" x="1050.732422"/>
      <use xlink:href="#DejaVuSans-28" x="1082.519531"/>
      <use xlink:href="#DejaVuSans-6d" x="1121.533203"/>
      <use xlink:href="#DejaVuSans-75" x="1218.945312"/>
      <use xlink:href="#DejaVuSans-6c" x="1282.324219"/>
      <use xlink:href="#DejaVuSans-74" x="1310.107422"/>
      <use xlink:href="#DejaVuSans-69" x="1349.316406"/>
      <use xlink:href="#DejaVuSans-70" x="1377.099609"/>
      <use xlink:href="#DejaVuSans-6c" x="1440.576172"/>
      <use xlink:href="#DejaVuSans-69" x="1468.359375"/>
      <use xlink:href="#DejaVuSans-63" x="1496.142578"/>
      <use xlink:href="#DejaVuSans-61" x="1551.123047"/>
      <use xlink:href="#DejaVuSans-74" x="1612.402344"/>
      <use xlink:href="#DejaVuSans-69" x="1651.611328"/>
      <use xlink:href="#DejaVuSans-6f" x="1679.394531"/>
      <use xlink:href="#DejaVuSans-6e" x="1740.576172"/>
      <use xlink:href="#DejaVuSans-29" x="1803.955078"/>
     </g>
    </g>
   </g>
   <g id="line2d_22">
    <path d="M 298.065 33.896795 
L 309.512105 34.85051 
L 320.959211 38.389178 
L 332.406316 42.713128 
L 343.853421 48.756443 
L 355.300526 56.036503 
L 366.747632 63.45102 
L 378.194737 71.546139 
L 389.641842 78.922614 
L 401.088947 86.375379 
L 412.536053 94.250446 
L 423.983158 101.652932 
L 435.430263 108.545239 
L 446.877368 115.130859 
L 458.324474 121.53319 
L 469.771579 127.31535 
L 481.218684 132.744645 
L 492.665789 138.034247 
L 504.112895 143.296223 
L 515.56 148.040149 
" clip-path="url(#p6adf3a867a)" style="fill: none; stroke: #1f77b4; stroke-width: 1.5; stroke-linecap: square"/>
   </g>
   <g id="line2d_23">
    <path d="M 298.065 33.91405 
L 309.512105 34.866486 
L 320.959211 38.406403 
L 332.406316 42.732687 
L 343.853421 48.786544 
L 355.300526 56.086159 
L 366.747632 63.492397 
L 378.194737 71.609044 
L 389.641842 78.99324 
L 401.088947 86.459618 
L 412.536053 94.345173 
L 423.983158 101.761849 
L 435.430263 108.661007 
L 446.877368 115.269958 
L 458.324474 121.670497 
L 469.771579 127.48706 
L 481.218684 132.942263 
L 492.665789 138.287088 
L 504.112895 143.578074 
L 515.56 148.350024 
" clip-path="url(#p6adf3a867a)" style="fill: none; stroke: #ff7f0e; stroke-width: 1.5; stroke-linecap: square"/>
   </g>
   <g id="line2d_24">
    <path d="M 298.065 33.918783 
L 309.512105 34.863458 
L 320.959211 38.413902 
L 332.406316 42.753326 
L 343.853421 48.810567 
L 355.300526 56.096235 
L 366.747632 63.536912 
L 378.194737 71.646379 
L 389.641842 79.054094 
L 401.088947 86.495323 
L 412.536053 94.381988 
L 423.983158 101.782804 
L 435.430263 108.639458 
L 446.877368 115.224147 
L 458.324474 121.601819 
L 469.771579 127.352994 
L 481.218684 132.800227 
L 492.665789 138.143036 
L 504.112895 143.386345 
L 515.56 148.207509 
" clip-path="url(#p6adf3a867a)" style="fill: none; stroke: #2ca02c; stroke-width: 1.5; stroke-linecap: square"/>
   </g>
   <g id="line2d_25">
    <path d="M 298.065 33.928065 
L 309.512105 34.882805 
L 320.959211 38.440048 
L 332.406316 42.766607 
L 343.853421 48.832113 
L 355.300526 56.132806 
L 366.747632 63.570202 
L 378.194737 71.690638 
L 389.641842 79.112005 
L 401.088947 86.552164 
L 412.536053 94.468906 
L 423.983158 101.873709 
L 435.430263 108.753023 
L 446.877368 115.363155 
L 458.324474 121.758698 
L 469.771579 127.549691 
L 481.218684 133.006515 
L 492.665789 138.385415 
L 504.112895 143.686006 
L 515.56 148.449428 
" clip-path="url(#p6adf3a867a)" style="fill: none; stroke: #d62728; stroke-width: 1.5; stroke-linecap: square"/>
   </g>
   <g id="line2d_26">
    <path d="M 298.065 33.915912 
L 309.512105 34.865041 
L 320.959211 38.425483 
L 332.406316 42.732433 
L 343.853421 48.786517 
L 355.300526 56.217263 
L 366.747632 63.436652 
L 378.194737 71.587525 
L 389.641842 79.136519 
L 401.088947 86.413669 
L 412.536053 94.31278 
L 423.983158 101.911499 
L 435.430263 108.937544 
L 446.877368 115.491592 
L 458.324474 122.103046 
L 469.771579 127.499014 
L 481.218684 132.824818 
L 492.665789 138.492226 
L 504.112895 143.687653 
L 515.56 148.40629 
" clip-path="url(#p6adf3a867a)" style="fill: none; stroke: #9467bd; stroke-width: 1.5; stroke-linecap: square"/>
   </g>
   <g id="line2d_27">
    <path d="M 298.065 33.933679 
L 309.512105 34.881808 
L 320.959211 38.44343 
L 332.406316 42.75224 
L 343.853421 48.817812 
L 355.300526 56.26574 
L 366.747632 63.475954 
L 378.194737 71.642886 
L 389.641842 79.209492 
L 401.088947 86.498914 
L 412.536053 94.40685 
L 423.983158 102.023384 
L 435.430263 109.046697 
L 446.877368 115.620369 
L 458.324474 122.224677 
L 469.771579 127.649656 
L 481.218684 133.01374 
L 492.665789 138.719562 
L 504.112895 143.957571 
L 515.56 148.722579 
" clip-path="url(#p6adf3a867a)" style="fill: none; stroke: #8c564b; stroke-width: 1.5; stroke-linecap: square"/>
   </g>
   <g id="line2d_28">
    <path d="M 298.065 48.419633 
L 309.512105 49.302854 
L 320.959211 52.565828 
L 332.406316 56.631436 
L 343.853421 62.230299 
L 355.300526 69.00912 
L 366.747632 75.794371 
L 378.194737 83.281296 
L 389.641842 90.044137 
L 401.088947 96.857021 
L 412.536053 103.909445 
L 423.983158 110.731908 
L 435.430263 117.026653 
L 446.877368 122.935605 
L 458.324474 128.709199 
L 469.771579 134.194952 
L 481.218684 139.006282 
L 492.665789 143.756607 
L 504.112895 148.678891 
L 515.56 153.19624 
" clip-path="url(#p6adf3a867a)" style="fill: none; stroke: #e377c2; stroke-width: 1.5; stroke-linecap: square"/>
   </g>
   <g id="line2d_29">
    <path d="M 298.065 33.93507 
L 309.512105 34.880053 
L 320.959211 38.429883 
L 332.406316 42.774192 
L 343.853421 48.861307 
L 355.300526 56.154964 
L 366.747632 63.581435 
L 378.194737 71.707522 
L 389.641842 79.096144 
L 401.088947 86.529181 
L 412.536053 94.414117 
L 423.983158 101.790051 
L 435.430263 108.644555 
L 446.877368 115.238521 
L 458.324474 121.61844 
L 469.771579 127.373371 
L 481.218684 132.799095 
L 492.665789 138.111005 
L 504.112895 143.372467 
L 515.56 148.166125 
" clip-path="url(#p6adf3a867a)" style="fill: none; stroke: #7f7f7f; stroke-width: 1.5; stroke-linecap: square"/>
   </g>
   <g id="patch_6">
    <path d="M 298.065 174.04 
L 298.065 26.88 
" style="fill: none; stroke: #000000; stroke-width: 0.8; stroke-linejoin: miter; stroke-linecap: square"/>
   </g>
   <g id="patch_7">
    <path d="M 298.065 174.04 
L 515.56 174.04 
" style="fill: none; stroke: #000000; stroke-width: 0.8; stroke-linejoin: miter; stroke-linecap: square"/>
   </g>
   <g id="text_18">
    <!-- Node * third variable -->
    <g transform="translate(344.2325 20.88)scale(0.12 -0.12)">
     <defs>
      <path id="DejaVuSans-68" d="M 3513 2113 
L 3513 0 
L 2938 0 
L 2938 2094 
Q 2938 2591 2744 2837 
Q 2550 3084 2163 3084 
Q 1697 3084 1428 2787 
Q 1159 2491 1159 1978 
L 1159 0 
L 581 0 
L 581 4863 
L 1159 4863 
L 1159 2956 
Q 1366 3272 1645 3428 
Q 1925 3584 2291 3584 
Q 2894 3584 3203 3211 
Q 3513 2838 3513 2113 
z
" transform="scale(0.015625)"/>
      <path id="DejaVuSans-62" d="M 3116 1747 
Q 3116 2381 2855 2742 
Q 2594 3103 2138 3103 
Q 1681 3103 1420 2742 
Q 1159 2381 1159 1747 
Q 1159 1113 1420 752 
Q 1681 391 2138 391 
Q 2594 391 2855 752 
Q 3116 1113 3116 1747 
z
M 1159 2969 
Q 1341 3281 1617 3432 
Q 1894 3584 2278 3584 
Q 2916 3584 3314 3078 
Q 3713 2572 3713 1747 
Q 3713 922 3314 415 
Q 2916 -91 2278 -91 
Q 1894 -91 1617 61 
Q 1341 213 1159 525 
L 1159 0 
L 581 0 
L 581 4863 
L 1159 4863 
L 1159 2969 
z
" transform="scale(0.015625)"/>
     </defs>
     <use xlink:href="#DejaVuSans-4e"/>
     <use xlink:href="#DejaVuSans-6f" x="74.804688"/>
     <use xlink:href="#DejaVuSans-64" x="135.986328"/>
     <use xlink:href="#DejaVuSans-65" x="199.462891"/>
     <use xlink:href="#DejaVuSans-20" x="260.986328"/>
     <use xlink:href="#DejaVuSans-2a" x="292.773438"/>
     <use xlink:href="#DejaVuSans-20" x="342.773438"/>
     <use xlink:href="#DejaVuSans-74" x="374.560547"/>
     <use xlink:href="#DejaVuSans-68" x="413.769531"/>
     <use xlink:href="#DejaVuSans-69" x="477.148438"/>
     <use xlink:href="#DejaVuSans-72" x="504.931641"/>
     <use xlink:href="#DejaVuSans-64" x="544.294922"/>
     <use xlink:href="#DejaVuSans-20" x="607.771484"/>
     <use xlink:href="#DejaVuSans-76" x="639.558594"/>
     <use xlink:href="#DejaVuSans-61" x="698.738281"/>
     <use xlink:href="#DejaVuSans-72" x="760.017578"/>
     <use xlink:href="#DejaVuSans-69" x="801.130859"/>
     <use xlink:href="#DejaVuSans-61" x="828.914062"/>
     <use xlink:href="#DejaVuSans-62" x="890.193359"/>
     <use xlink:href="#DejaVuSans-6c" x="953.669922"/>
     <use xlink:href="#DejaVuSans-65" x="981.453125"/>
    </g>
   </g>
   <g id="legend_1">
    <g id="line2d_30">
     <path d="M 524.56 39.978437 
L 534.56 39.978437 
L 544.56 39.978437 
" style="fill: none; stroke: #1f77b4; stroke-width: 1.5; stroke-linecap: square"/>
    </g>
    <g id="text_19">
     <!-- Node -->
     <g transform="translate(552.56 43.478437)scale(0.1 -0.1)">
      <use xlink:href="#DejaVuSans-4e"/>
      <use xlink:href="#DejaVuSans-6f" x="74.804688"/>
      <use xlink:href="#DejaVuSans-64" x="135.986328"/>
      <use xlink:href="#DejaVuSans-65" x="199.462891"/>
     </g>
    </g>
    <g id="line2d_31">
     <path d="M 524.56 54.656563 
L 534.56 54.656563 
L 544.56 54.656563 
" style="fill: none; stroke: #ff7f0e; stroke-width: 1.5; stroke-linecap: square"/>
    </g>
    <g id="text_20">
     <!-- Node + surprisal -->
     <g transform="translate(552.56 58.156563)scale(0.1 -0.1)">
      <defs>
       <path id="DejaVuSans-2b" d="M 2944 4013 
L 2944 2272 
L 4684 2272 
L 4684 1741 
L 2944 1741 
L 2944 0 
L 2419 0 
L 2419 1741 
L 678 1741 
L 678 2272 
L 2419 2272 
L 2419 4013 
L 2944 4013 
z
" transform="scale(0.015625)"/>
      </defs>
      <use xlink:href="#DejaVuSans-4e"/>
      <use xlink:href="#DejaVuSans-6f" x="74.804688"/>
      <use xlink:href="#DejaVuSans-64" x="135.986328"/>
      <use xlink:href="#DejaVuSans-65" x="199.462891"/>
      <use xlink:href="#DejaVuSans-20" x="260.986328"/>
      <use xlink:href="#DejaVuSans-2b" x="292.773438"/>
      <use xlink:href="#DejaVuSans-20" x="376.5625"/>
      <use xlink:href="#DejaVuSans-73" x="408.349609"/>
      <use xlink:href="#DejaVuSans-75" x="460.449219"/>
      <use xlink:href="#DejaVuSans-72" x="523.828125"/>
      <use xlink:href="#DejaVuSans-70" x="564.941406"/>
      <use xlink:href="#DejaVuSans-72" x="628.417969"/>
      <use xlink:href="#DejaVuSans-69" x="669.53125"/>
      <use xlink:href="#DejaVuSans-73" x="697.314453"/>
      <use xlink:href="#DejaVuSans-61" x="749.414062"/>
      <use xlink:href="#DejaVuSans-6c" x="810.693359"/>
     </g>
    </g>
    <g id="line2d_32">
     <path d="M 524.56 69.334687 
L 534.56 69.334687 
L 544.56 69.334687 
" style="fill: none; stroke: #2ca02c; stroke-width: 1.5; stroke-linecap: square"/>
    </g>
    <g id="text_21">
     <!-- Node split -->
     <g transform="translate(552.56 72.834687)scale(0.1 -0.1)">
      <use xlink:href="#DejaVuSans-4e"/>
      <use xlink:href="#DejaVuSans-6f" x="74.804688"/>
      <use xlink:href="#DejaVuSans-64" x="135.986328"/>
      <use xlink:href="#DejaVuSans-65" x="199.462891"/>
      <use xlink:href="#DejaVuSans-20" x="260.986328"/>
      <use xlink:href="#DejaVuSans-73" x="292.773438"/>
      <use xlink:href="#DejaVuSans-70" x="344.873047"/>
      <use xlink:href="#DejaVuSans-6c" x="408.349609"/>
      <use xlink:href="#DejaVuSans-69" x="436.132812"/>
      <use xlink:href="#DejaVuSans-74" x="463.916016"/>
     </g>
    </g>
    <g id="line2d_33">
     <path d="M 524.56 84.012812 
L 534.56 84.012812 
L 544.56 84.012812 
" style="fill: none; stroke: #d62728; stroke-width: 1.5; stroke-linecap: square"/>
    </g>
    <g id="text_22">
     <!-- Node split + surprisal -->
     <g transform="translate(552.56 87.512812)scale(0.1 -0.1)">
      <use xlink:href="#DejaVuSans-4e"/>
      <use xlink:href="#DejaVuSans-6f" x="74.804688"/>
      <use xlink:href="#DejaVuSans-64" x="135.986328"/>
      <use xlink:href="#DejaVuSans-65" x="199.462891"/>
      <use xlink:href="#DejaVuSans-20" x="260.986328"/>
      <use xlink:href="#DejaVuSans-73" x="292.773438"/>
      <use xlink:href="#DejaVuSans-70" x="344.873047"/>
      <use xlink:href="#DejaVuSans-6c" x="408.349609"/>
      <use xlink:href="#DejaVuSans-69" x="436.132812"/>
      <use xlink:href="#DejaVuSans-74" x="463.916016"/>
      <use xlink:href="#DejaVuSans-20" x="503.125"/>
      <use xlink:href="#DejaVuSans-2b" x="534.912109"/>
      <use xlink:href="#DejaVuSans-20" x="618.701172"/>
      <use xlink:href="#DejaVuSans-73" x="650.488281"/>
      <use xlink:href="#DejaVuSans-75" x="702.587891"/>
      <use xlink:href="#DejaVuSans-72" x="765.966797"/>
      <use xlink:href="#DejaVuSans-70" x="807.080078"/>
      <use xlink:href="#DejaVuSans-72" x="870.556641"/>
      <use xlink:href="#DejaVuSans-69" x="911.669922"/>
      <use xlink:href="#DejaVuSans-73" x="939.453125"/>
      <use xlink:href="#DejaVuSans-61" x="991.552734"/>
      <use xlink:href="#DejaVuSans-6c" x="1052.832031"/>
     </g>
    </g>
    <g id="line2d_34">
     <path d="M 524.56 98.690937 
L 534.56 98.690937 
L 544.56 98.690937 
" style="fill: none; stroke: #9467bd; stroke-width: 1.5; stroke-linecap: square"/>
    </g>
    <g id="text_23">
     <!-- Node random split -->
     <g transform="translate(552.56 102.190937)scale(0.1 -0.1)">
      <use xlink:href="#DejaVuSans-4e"/>
      <use xlink:href="#DejaVuSans-6f" x="74.804688"/>
      <use xlink:href="#DejaVuSans-64" x="135.986328"/>
      <use xlink:href="#DejaVuSans-65" x="199.462891"/>
      <use xlink:href="#DejaVuSans-20" x="260.986328"/>
      <use xlink:href="#DejaVuSans-72" x="292.773438"/>
      <use xlink:href="#DejaVuSans-61" x="333.886719"/>
      <use xlink:href="#DejaVuSans-6e" x="395.166016"/>
      <use xlink:href="#DejaVuSans-64" x="458.544922"/>
      <use xlink:href="#DejaVuSans-6f" x="522.021484"/>
      <use xlink:href="#DejaVuSans-6d" x="583.203125"/>
      <use xlink:href="#DejaVuSans-20" x="680.615234"/>
      <use xlink:href="#DejaVuSans-73" x="712.402344"/>
      <use xlink:href="#DejaVuSans-70" x="764.501953"/>
      <use xlink:href="#DejaVuSans-6c" x="827.978516"/>
      <use xlink:href="#DejaVuSans-69" x="855.761719"/>
      <use xlink:href="#DejaVuSans-74" x="883.544922"/>
     </g>
    </g>
    <g id="line2d_35">
     <path d="M 524.56 113.369062 
L 534.56 113.369062 
L 544.56 113.369062 
" style="fill: none; stroke: #8c564b; stroke-width: 1.5; stroke-linecap: square"/>
    </g>
    <g id="text_24">
     <!-- Node random split + surprisal -->
     <g transform="translate(552.56 116.869062)scale(0.1 -0.1)">
      <use xlink:href="#DejaVuSans-4e"/>
      <use xlink:href="#DejaVuSans-6f" x="74.804688"/>
      <use xlink:href="#DejaVuSans-64" x="135.986328"/>
      <use xlink:href="#DejaVuSans-65" x="199.462891"/>
      <use xlink:href="#DejaVuSans-20" x="260.986328"/>
      <use xlink:href="#DejaVuSans-72" x="292.773438"/>
      <use xlink:href="#DejaVuSans-61" x="333.886719"/>
      <use xlink:href="#DejaVuSans-6e" x="395.166016"/>
      <use xlink:href="#DejaVuSans-64" x="458.544922"/>
      <use xlink:href="#DejaVuSans-6f" x="522.021484"/>
      <use xlink:href="#DejaVuSans-6d" x="583.203125"/>
      <use xlink:href="#DejaVuSans-20" x="680.615234"/>
      <use xlink:href="#DejaVuSans-73" x="712.402344"/>
      <use xlink:href="#DejaVuSans-70" x="764.501953"/>
      <use xlink:href="#DejaVuSans-6c" x="827.978516"/>
      <use xlink:href="#DejaVuSans-69" x="855.761719"/>
      <use xlink:href="#DejaVuSans-74" x="883.544922"/>
      <use xlink:href="#DejaVuSans-20" x="922.753906"/>
      <use xlink:href="#DejaVuSans-2b" x="954.541016"/>
      <use xlink:href="#DejaVuSans-20" x="1038.330078"/>
      <use xlink:href="#DejaVuSans-73" x="1070.117188"/>
      <use xlink:href="#DejaVuSans-75" x="1122.216797"/>
      <use xlink:href="#DejaVuSans-72" x="1185.595703"/>
      <use xlink:href="#DejaVuSans-70" x="1226.708984"/>
      <use xlink:href="#DejaVuSans-72" x="1290.185547"/>
      <use xlink:href="#DejaVuSans-69" x="1331.298828"/>
      <use xlink:href="#DejaVuSans-73" x="1359.082031"/>
      <use xlink:href="#DejaVuSans-61" x="1411.181641"/>
      <use xlink:href="#DejaVuSans-6c" x="1472.460938"/>
     </g>
    </g>
    <g id="line2d_36">
     <path d="M 524.56 128.047187 
L 534.56 128.047187 
L 544.56 128.047187 
" style="fill: none; stroke: #e377c2; stroke-width: 1.5; stroke-linecap: square"/>
    </g>
    <g id="text_25">
     <!-- Interaction -->
     <g transform="translate(552.56 131.547187)scale(0.1 -0.1)">
      <use xlink:href="#DejaVuSans-49"/>
      <use xlink:href="#DejaVuSans-6e" x="29.492188"/>
      <use xlink:href="#DejaVuSans-74" x="92.871094"/>
      <use xlink:href="#DejaVuSans-65" x="132.080078"/>
      <use xlink:href="#DejaVuSans-72" x="193.603516"/>
      <use xlink:href="#DejaVuSans-61" x="234.716797"/>
      <use xlink:href="#DejaVuSans-63" x="295.996094"/>
      <use xlink:href="#DejaVuSans-74" x="350.976562"/>
      <use xlink:href="#DejaVuSans-69" x="390.185547"/>
      <use xlink:href="#DejaVuSans-6f" x="417.96875"/>
      <use xlink:href="#DejaVuSans-6e" x="479.150391"/>
     </g>
    </g>
    <g id="line2d_37">
     <path d="M 524.56 142.725312 
L 534.56 142.725312 
L 544.56 142.725312 
" style="fill: none; stroke: #7f7f7f; stroke-width: 1.5; stroke-linecap: square"/>
    </g>
    <g id="text_26">
     <!-- Node + surprisal + interaction -->
     <g transform="translate(552.56 146.225312)scale(0.1 -0.1)">
      <use xlink:href="#DejaVuSans-4e"/>
      <use xlink:href="#DejaVuSans-6f" x="74.804688"/>
      <use xlink:href="#DejaVuSans-64" x="135.986328"/>
      <use xlink:href="#DejaVuSans-65" x="199.462891"/>
      <use xlink:href="#DejaVuSans-20" x="260.986328"/>
      <use xlink:href="#DejaVuSans-2b" x="292.773438"/>
      <use xlink:href="#DejaVuSans-20" x="376.5625"/>
      <use xlink:href="#DejaVuSans-73" x="408.349609"/>
      <use xlink:href="#DejaVuSans-75" x="460.449219"/>
      <use xlink:href="#DejaVuSans-72" x="523.828125"/>
      <use xlink:href="#DejaVuSans-70" x="564.941406"/>
      <use xlink:href="#DejaVuSans-72" x="628.417969"/>
      <use xlink:href="#DejaVuSans-69" x="669.53125"/>
      <use xlink:href="#DejaVuSans-73" x="697.314453"/>
      <use xlink:href="#DejaVuSans-61" x="749.414062"/>
      <use xlink:href="#DejaVuSans-6c" x="810.693359"/>
      <use xlink:href="#DejaVuSans-20" x="838.476562"/>
      <use xlink:href="#DejaVuSans-2b" x="870.263672"/>
      <use xlink:href="#DejaVuSans-20" x="954.052734"/>
      <use xlink:href="#DejaVuSans-69" x="985.839844"/>
      <use xlink:href="#DejaVuSans-6e" x="1013.623047"/>
      <use xlink:href="#DejaVuSans-74" x="1077.001953"/>
      <use xlink:href="#DejaVuSans-65" x="1116.210938"/>
      <use xlink:href="#DejaVuSans-72" x="1177.734375"/>
      <use xlink:href="#DejaVuSans-61" x="1218.847656"/>
      <use xlink:href="#DejaVuSans-63" x="1280.126953"/>
      <use xlink:href="#DejaVuSans-74" x="1335.107422"/>
      <use xlink:href="#DejaVuSans-69" x="1374.316406"/>
      <use xlink:href="#DejaVuSans-6f" x="1402.099609"/>
      <use xlink:href="#DejaVuSans-6e" x="1463.28125"/>
     </g>
    </g>
   </g>
  </g>
 </g>
 <defs>
  <clipPath id="p368de60927">
   <rect x="47.72" y="26.88" width="217.495" height="147.16"/>
  </clipPath>
  <clipPath id="p6adf3a867a">
   <rect x="298.065" y="26.88" width="217.495" height="147.16"/>
  </clipPath>
 </defs>
</svg>
