<?xml version="1.0" encoding="utf-8" standalone="no"?>
<!DOCTYPE svg PUBLIC "-//W3C//DTD SVG 1.1//EN"
  "http://www.w3.org/Graphics/SVG/1.1/DTD/svg11.dtd">
<svg xmlns:xlink="http://www.w3.org/1999/xlink" width="720pt" height="216pt" viewBox="0 0 720 216" xmlns="http://www.w3.org/2000/svg" version="1.1">
 <metadata>
  <rdf:RDF xmlns:dc="http://purl.org/dc/elements/1.1/" xmlns:cc="http://creativecommons.org/ns#" xmlns:rdf="http://www.w3.org/1999/02/22-rdf-syntax-ns#">
   <cc:Work>
    <dc:type rdf:resource="http://purl.org/dc/dcmitype/StillImage"/>
    <dc:date>2024-01-16T05:39:37.266626</dc:date>
    <dc:format>image/svg+xml</dc:format>
    <dc:creator>
     <cc:Agent>
      <dc:title>Matplotlib v3.5.1, https://matplotlib.org/</dc:title>
     </cc:Agent>
    </dc:creator>
   </cc:Work>
  </rdf:RDF>
 </metadata>
 <defs>
  <style type="text/css">*{stroke-linejoin: round; stroke-linecap: butt}</style>
 </defs>
 <g id="figure_1">
  <g id="patch_1">
   <path d="M 0 216 
L 720 216 
L 720 0 
L 0 0 
z
" style="fill: #ffffff"/>
  </g>
  <g id="axes_1">
   <g id="patch_2">
    <path d="M 47.72 174.04 
L 265.215 174.04 
L 265.215 26.88 
L 47.72 26.88 
z
" style="fill: #ffffff"/>
   </g>
   <g id="PolyCollection_1">
    <path d="M 47.72 33.625293 
L 47.72 34.924837 
L 59.167105 35.713432 
L 70.614211 38.479829 
L 82.061316 42.872912 
L 93.508421 48.116632 
L 104.955526 54.575489 
L 116.402632 61.799253 
L 127.849737 69.856059 
L 139.296842 77.589443 
L 150.743947 85.634791 
L 162.191053 93.272616 
L 173.638158 101.529831 
L 185.085263 108.685282 
L 196.532368 116.261886 
L 207.979474 122.303144 
L 219.426579 128.637156 
L 230.873684 134.152495 
L 242.320789 139.524702 
L 253.767895 144.422332 
L 265.215 148.762596 
L 265.215 138.495014 
L 265.215 138.495014 
L 253.767895 133.710189 
L 242.320789 128.583724 
L 230.873684 124.050308 
L 219.426579 118.088751 
L 207.979474 112.569891 
L 196.532368 105.734409 
L 185.085263 99.235837 
L 173.638158 92.043501 
L 162.191053 84.693079 
L 150.743947 77.311631 
L 139.296842 70.310039 
L 127.849737 62.947737 
L 116.402632 56.550753 
L 104.955526 50.238498 
L 93.508421 44.785172 
L 82.061316 40.566058 
L 70.614211 37.017069 
L 59.167105 34.268945 
L 47.72 33.625293 
z
" clip-path="url(#pb8e016fbad)" style="fill: #1f77b4; fill-opacity: 0.4"/>
   </g>
   <g id="PolyCollection_2">
    <path d="M 47.72 33.638278 
L 47.72 34.921114 
L 59.167105 35.374066 
L 70.614211 36.904692 
L 82.061316 39.04965 
L 93.508421 42.016712 
L 104.955526 46.029374 
L 116.402632 50.830776 
L 127.849737 56.553741 
L 139.296842 62.150827 
L 150.743947 69.119203 
L 162.191053 74.970537 
L 173.638158 82.779738 
L 185.085263 89.348475 
L 196.532368 96.6834 
L 207.979474 102.943269 
L 219.426579 109.130464 
L 230.873684 114.802308 
L 242.320789 121.106559 
L 253.767895 126.219792 
L 265.215 131.194685 
L 265.215 120.870428 
L 265.215 120.870428 
L 253.767895 115.727357 
L 242.320789 110.369599 
L 230.873684 105.621513 
L 219.426579 99.662328 
L 207.979474 93.803001 
L 196.532368 87.279197 
L 185.085263 80.986301 
L 173.638158 74.461168 
L 162.191053 68.459646 
L 150.743947 62.059116 
L 139.296842 57.213691 
L 127.849737 51.62802 
L 116.402632 47.343276 
L 104.955526 43.315118 
L 93.508421 40.07757 
L 82.061316 37.758007 
L 70.614211 35.604848 
L 59.167105 33.957267 
L 47.72 33.638278 
z
" clip-path="url(#pb8e016fbad)" style="fill: #ff7f0e; fill-opacity: 0.4"/>
   </g>
   <g id="PolyCollection_3">
    <path d="M 47.72 33.640234 
L 47.72 34.941126 
L 59.167105 35.4509 
L 70.614211 36.889968 
L 82.061316 38.64472 
L 93.508421 40.713 
L 104.955526 43.500532 
L 116.402632 46.894511 
L 127.849737 50.218201 
L 139.296842 54.013552 
L 150.743947 57.836864 
L 162.191053 61.187251 
L 173.638158 65.503015 
L 185.085263 69.023908 
L 196.532368 73.734831 
L 207.979474 77.269869 
L 219.426579 81.462731 
L 230.873684 84.841078 
L 242.320789 89.174532 
L 253.767895 92.567482 
L 265.215 96.15786 
L 265.215 86.87317 
L 265.215 86.87317 
L 253.767895 83.328961 
L 242.320789 79.710926 
L 230.873684 76.497278 
L 219.426579 72.377631 
L 207.979474 68.818773 
L 196.532368 65.689751 
L 185.085263 61.755109 
L 173.638158 58.158894 
L 162.191053 54.980976 
L 150.743947 51.477739 
L 139.296842 48.293896 
L 127.849737 45.639836 
L 116.402632 42.914643 
L 104.955526 40.345959 
L 93.508421 38.335769 
L 82.061316 36.769571 
L 70.614211 35.393383 
L 59.167105 34.030275 
L 47.72 33.640234 
z
" clip-path="url(#pb8e016fbad)" style="fill: #2ca02c; fill-opacity: 0.4"/>
   </g>
   <g id="PolyCollection_4">
    <path d="M 47.72 33.656862 
L 47.72 34.943466 
L 59.167105 35.330559 
L 70.614211 36.421029 
L 82.061316 37.600939 
L 93.508421 39.069915 
L 104.955526 41.377435 
L 116.402632 44.203895 
L 127.849737 47.314065 
L 139.296842 50.776018 
L 150.743947 54.829122 
L 162.191053 57.962588 
L 173.638158 62.642903 
L 185.085263 66.116269 
L 196.532368 71.122376 
L 207.979474 74.734484 
L 219.426579 79.056441 
L 230.873684 82.605325 
L 242.320789 87.075157 
L 253.767895 90.695687 
L 265.215 94.495674 
L 265.215 85.616998 
L 265.215 85.616998 
L 253.767895 81.889246 
L 242.320789 78.278112 
L 230.873684 74.865272 
L 219.426579 70.714571 
L 207.979474 67.120285 
L 196.532368 63.733383 
L 185.085263 59.835177 
L 173.638158 55.932646 
L 162.191053 52.85478 
L 150.743947 49.185178 
L 139.296842 46.363286 
L 127.849737 43.685908 
L 116.402632 41.344709 
L 104.955526 39.056988 
L 93.508421 37.451258 
L 82.061316 36.185157 
L 70.614211 35.030325 
L 59.167105 33.917102 
L 47.72 33.656862 
z
" clip-path="url(#pb8e016fbad)" style="fill: #d62728; fill-opacity: 0.4"/>
   </g>
   <g id="PolyCollection_5">
    <path d="M 47.72 33.647728 
L 47.72 34.947986 
L 59.167105 35.724524 
L 70.614211 38.476271 
L 82.061316 42.863857 
L 93.508421 48.162677 
L 104.955526 54.630276 
L 116.402632 61.791672 
L 127.849737 69.853237 
L 139.296842 77.833035 
L 150.743947 85.637694 
L 162.191053 93.765488 
L 173.638158 101.884357 
L 185.085263 108.718308 
L 196.532368 116.289963 
L 207.979474 122.723665 
L 219.426579 129.070712 
L 230.873684 134.882066 
L 242.320789 139.949732 
L 253.767895 144.88605 
L 265.215 149.538644 
L 265.215 138.653324 
L 265.215 138.653324 
L 253.767895 134.378833 
L 242.320789 129.137799 
L 230.873684 123.972658 
L 219.426579 117.75522 
L 207.979474 113.136223 
L 196.532368 105.90135 
L 185.085263 99.533203 
L 173.638158 91.950682 
L 162.191053 84.967385 
L 150.743947 77.24334 
L 139.296842 70.660502 
L 127.849737 63.001945 
L 116.402632 56.574364 
L 104.955526 50.268455 
L 93.508421 44.806408 
L 82.061316 40.64397 
L 70.614211 37.049916 
L 59.167105 34.294328 
L 47.72 33.647728 
z
" clip-path="url(#pb8e016fbad)" style="fill: #9467bd; fill-opacity: 0.4"/>
   </g>
   <g id="PolyCollection_6">
    <path d="M 47.72 33.661174 
L 47.72 34.945512 
L 59.167105 35.382798 
L 70.614211 36.904354 
L 82.061316 39.05647 
L 93.508421 42.040883 
L 104.955526 46.056179 
L 116.402632 50.824629 
L 127.849737 56.571463 
L 139.296842 62.232737 
L 150.743947 69.122678 
L 162.191053 75.114626 
L 173.638158 82.831069 
L 185.085263 89.417841 
L 196.532368 96.600276 
L 207.979474 103.057095 
L 219.426579 109.237133 
L 230.873684 115.341795 
L 242.320789 121.267613 
L 253.767895 126.508121 
L 265.215 131.951487 
L 265.215 120.839622 
L 265.215 120.839622 
L 253.767895 116.195429 
L 242.320789 110.754562 
L 230.873684 105.46717 
L 219.426579 99.581255 
L 207.979474 94.280494 
L 196.532368 87.439108 
L 185.085263 81.228782 
L 173.638158 74.578118 
L 162.191053 68.771123 
L 150.743947 62.060559 
L 139.296842 57.520218 
L 127.849737 51.682741 
L 116.402632 47.385304 
L 104.955526 43.340912 
L 93.508421 40.084277 
L 82.061316 37.790241 
L 70.614211 35.630653 
L 59.167105 33.980999 
L 47.72 33.661174 
z
" clip-path="url(#pb8e016fbad)" style="fill: #8c564b; fill-opacity: 0.4"/>
   </g>
   <g id="PolyCollection_7">
    <path d="M 47.72 45.913041 
L 47.72 49.862796 
L 59.167105 51.097819 
L 70.614211 54.693031 
L 82.061316 60.085482 
L 93.508421 66.493377 
L 104.955526 73.600079 
L 116.402632 81.761402 
L 127.849737 90.326535 
L 139.296842 98.558875 
L 150.743947 107.176962 
L 162.191053 115.597113 
L 173.638158 124.047099 
L 185.085263 131.689055 
L 196.532368 138.687306 
L 207.979474 144.569441 
L 219.426579 150.316869 
L 230.873684 155.453922 
L 242.320789 159.618974 
L 253.767895 163.9857 
L 265.215 167.350909 
L 265.215 155.322755 
L 265.215 155.322755 
L 253.767895 150.862254 
L 242.320789 146.032233 
L 230.873684 141.535832 
L 219.426579 135.291506 
L 207.979474 129.663154 
L 196.532368 122.926772 
L 185.085263 115.500723 
L 173.638158 107.974645 
L 162.191053 100.427171 
L 150.743947 92.572119 
L 139.296842 85.133977 
L 127.849737 77.348833 
L 116.402632 70.222225 
L 104.955526 63.379011 
L 93.508421 57.467351 
L 82.061316 52.707152 
L 70.614211 49.04818 
L 59.167105 46.543563 
L 47.72 45.913041 
z
" clip-path="url(#pb8e016fbad)" style="fill: #e377c2; fill-opacity: 0.4"/>
   </g>
   <g id="PolyCollection_8">
    <path d="M 47.72 33.649085 
L 47.72 34.931625 
L 59.167105 35.06876 
L 70.614211 35.501829 
L 82.061316 35.954551 
L 93.508421 36.780323 
L 104.955526 38.680599 
L 116.402632 41.779614 
L 127.849737 45.586226 
L 139.296842 49.849375 
L 150.743947 54.980781 
L 162.191053 59.555555 
L 173.638158 65.988166 
L 185.085263 71.704561 
L 196.532368 78.745555 
L 207.979474 84.889307 
L 219.426579 91.758929 
L 230.873684 97.487749 
L 242.320789 104.504273 
L 253.767895 110.06342 
L 265.215 115.809508 
L 265.215 102.651205 
L 265.215 102.651205 
L 253.767895 96.489915 
L 242.320789 90.300607 
L 230.873684 84.618295 
L 219.426579 78.216284 
L 207.979474 72.61888 
L 196.532368 66.574828 
L 185.085263 60.890578 
L 173.638158 55.432642 
L 162.191053 50.4247 
L 150.743947 45.86165 
L 139.296842 42.459359 
L 127.849737 39.194513 
L 116.402632 37.219185 
L 104.955526 35.739604 
L 93.508421 34.875604 
L 82.061316 34.449972 
L 70.614211 34.095166 
L 59.167105 33.640148 
L 47.72 33.649085 
z
" clip-path="url(#pb8e016fbad)" style="fill: #7f7f7f; fill-opacity: 0.4"/>
   </g>
   <g id="matplotlib.axis_1">
    <g id="xtick_1">
     <g id="line2d_1">
      <defs>
       <path id="m84adc8f3d9" d="M 0 0 
L 0 3.5 
" style="stroke: #000000; stroke-width: 0.8"/>
      </defs>
      <g>
       <use xlink:href="#m84adc8f3d9" x="47.72" y="174.04" style="stroke: #000000; stroke-width: 0.8"/>
      </g>
     </g>
     <g id="text_1">
      <!-- 0.0 -->
      <g transform="translate(39.768438 188.638438)scale(0.1 -0.1)">
       <defs>
        <path id="DejaVuSans-30" d="M 2034 4250 
Q 1547 4250 1301 3770 
Q 1056 3291 1056 2328 
Q 1056 1369 1301 889 
Q 1547 409 2034 409 
Q 2525 409 2770 889 
Q 3016 1369 3016 2328 
Q 3016 3291 2770 3770 
Q 2525 4250 2034 4250 
z
M 2034 4750 
Q 2819 4750 3233 4129 
Q 3647 3509 3647 2328 
Q 3647 1150 3233 529 
Q 2819 -91 2034 -91 
Q 1250 -91 836 529 
Q 422 1150 422 2328 
Q 422 3509 836 4129 
Q 1250 4750 2034 4750 
z
" transform="scale(0.015625)"/>
        <path id="DejaVuSans-2e" d="M 684 794 
L 1344 794 
L 1344 0 
L 684 0 
L 684 794 
z
" transform="scale(0.015625)"/>
       </defs>
       <use xlink:href="#DejaVuSans-30"/>
       <use xlink:href="#DejaVuSans-2e" x="63.623047"/>
       <use xlink:href="#DejaVuSans-30" x="95.410156"/>
      </g>
     </g>
    </g>
    <g id="xtick_2">
     <g id="line2d_2">
      <g>
       <use xlink:href="#m84adc8f3d9" x="102.09375" y="174.04" style="stroke: #000000; stroke-width: 0.8"/>
      </g>
     </g>
     <g id="text_2">
      <!-- 0.5 -->
      <g transform="translate(94.142188 188.638438)scale(0.1 -0.1)">
       <defs>
        <path id="DejaVuSans-35" d="M 691 4666 
L 3169 4666 
L 3169 4134 
L 1269 4134 
L 1269 2991 
Q 1406 3038 1543 3061 
Q 1681 3084 1819 3084 
Q 2600 3084 3056 2656 
Q 3513 2228 3513 1497 
Q 3513 744 3044 326 
Q 2575 -91 1722 -91 
Q 1428 -91 1123 -41 
Q 819 9 494 109 
L 494 744 
Q 775 591 1075 516 
Q 1375 441 1709 441 
Q 2250 441 2565 725 
Q 2881 1009 2881 1497 
Q 2881 1984 2565 2268 
Q 2250 2553 1709 2553 
Q 1456 2553 1204 2497 
Q 953 2441 691 2322 
L 691 4666 
z
" transform="scale(0.015625)"/>
       </defs>
       <use xlink:href="#DejaVuSans-30"/>
       <use xlink:href="#DejaVuSans-2e" x="63.623047"/>
       <use xlink:href="#DejaVuSans-35" x="95.410156"/>
      </g>
     </g>
    </g>
    <g id="xtick_3">
     <g id="line2d_3">
      <g>
       <use xlink:href="#m84adc8f3d9" x="156.4675" y="174.04" style="stroke: #000000; stroke-width: 0.8"/>
      </g>
     </g>
     <g id="text_3">
      <!-- 1.0 -->
      <g transform="translate(148.515938 188.638438)scale(0.1 -0.1)">
       <defs>
        <path id="DejaVuSans-31" d="M 794 531 
L 1825 531 
L 1825 4091 
L 703 3866 
L 703 4441 
L 1819 4666 
L 2450 4666 
L 2450 531 
L 3481 531 
L 3481 0 
L 794 0 
L 794 531 
z
" transform="scale(0.015625)"/>
       </defs>
       <use xlink:href="#DejaVuSans-31"/>
       <use xlink:href="#DejaVuSans-2e" x="63.623047"/>
       <use xlink:href="#DejaVuSans-30" x="95.410156"/>
      </g>
     </g>
    </g>
    <g id="xtick_4">
     <g id="line2d_4">
      <g>
       <use xlink:href="#m84adc8f3d9" x="210.84125" y="174.04" style="stroke: #000000; stroke-width: 0.8"/>
      </g>
     </g>
     <g id="text_4">
      <!-- 1.5 -->
      <g transform="translate(202.889687 188.638438)scale(0.1 -0.1)">
       <use xlink:href="#DejaVuSans-31"/>
       <use xlink:href="#DejaVuSans-2e" x="63.623047"/>
       <use xlink:href="#DejaVuSans-35" x="95.410156"/>
      </g>
     </g>
    </g>
    <g id="xtick_5">
     <g id="line2d_5">
      <g>
       <use xlink:href="#m84adc8f3d9" x="265.215" y="174.04" style="stroke: #000000; stroke-width: 0.8"/>
      </g>
     </g>
     <g id="text_5">
      <!-- 2.0 -->
      <g transform="translate(257.263437 188.638438)scale(0.1 -0.1)">
       <defs>
        <path id="DejaVuSans-32" d="M 1228 531 
L 3431 531 
L 3431 0 
L 469 0 
L 469 531 
Q 828 903 1448 1529 
Q 2069 2156 2228 2338 
Q 2531 2678 2651 2914 
Q 2772 3150 2772 3378 
Q 2772 3750 2511 3984 
Q 2250 4219 1831 4219 
Q 1534 4219 1204 4116 
Q 875 4013 500 3803 
L 500 4441 
Q 881 4594 1212 4672 
Q 1544 4750 1819 4750 
Q 2544 4750 2975 4387 
Q 3406 4025 3406 3419 
Q 3406 3131 3298 2873 
Q 3191 2616 2906 2266 
Q 2828 2175 2409 1742 
Q 1991 1309 1228 531 
z
" transform="scale(0.015625)"/>
       </defs>
       <use xlink:href="#DejaVuSans-32"/>
       <use xlink:href="#DejaVuSans-2e" x="63.623047"/>
       <use xlink:href="#DejaVuSans-30" x="95.410156"/>
      </g>
     </g>
    </g>
    <g id="text_6">
     <!-- Influence of surprisal (multiplication) -->
     <g transform="translate(64.320625 202.316563)scale(0.1 -0.1)">
      <defs>
       <path id="DejaVuSans-49" d="M 628 4666 
L 1259 4666 
L 1259 0 
L 628 0 
L 628 4666 
z
" transform="scale(0.015625)"/>
       <path id="DejaVuSans-6e" d="M 3513 2113 
L 3513 0 
L 2938 0 
L 2938 2094 
Q 2938 2591 2744 2837 
Q 2550 3084 2163 3084 
Q 1697 3084 1428 2787 
Q 1159 2491 1159 1978 
L 1159 0 
L 581 0 
L 581 3500 
L 1159 3500 
L 1159 2956 
Q 1366 3272 1645 3428 
Q 1925 3584 2291 3584 
Q 2894 3584 3203 3211 
Q 3513 2838 3513 2113 
z
" transform="scale(0.015625)"/>
       <path id="DejaVuSans-66" d="M 2375 4863 
L 2375 4384 
L 1825 4384 
Q 1516 4384 1395 4259 
Q 1275 4134 1275 3809 
L 1275 3500 
L 2222 3500 
L 2222 3053 
L 1275 3053 
L 1275 0 
L 697 0 
L 697 3053 
L 147 3053 
L 147 3500 
L 697 3500 
L 697 3744 
Q 697 4328 969 4595 
Q 1241 4863 1831 4863 
L 2375 4863 
z
" transform="scale(0.015625)"/>
       <path id="DejaVuSans-6c" d="M 603 4863 
L 1178 4863 
L 1178 0 
L 603 0 
L 603 4863 
z
" transform="scale(0.015625)"/>
       <path id="DejaVuSans-75" d="M 544 1381 
L 544 3500 
L 1119 3500 
L 1119 1403 
Q 1119 906 1312 657 
Q 1506 409 1894 409 
Q 2359 409 2629 706 
Q 2900 1003 2900 1516 
L 2900 3500 
L 3475 3500 
L 3475 0 
L 2900 0 
L 2900 538 
Q 2691 219 2414 64 
Q 2138 -91 1772 -91 
Q 1169 -91 856 284 
Q 544 659 544 1381 
z
M 1991 3584 
L 1991 3584 
z
" transform="scale(0.015625)"/>
       <path id="DejaVuSans-65" d="M 3597 1894 
L 3597 1613 
L 953 1613 
Q 991 1019 1311 708 
Q 1631 397 2203 397 
Q 2534 397 2845 478 
Q 3156 559 3463 722 
L 3463 178 
Q 3153 47 2828 -22 
Q 2503 -91 2169 -91 
Q 1331 -91 842 396 
Q 353 884 353 1716 
Q 353 2575 817 3079 
Q 1281 3584 2069 3584 
Q 2775 3584 3186 3129 
Q 3597 2675 3597 1894 
z
M 3022 2063 
Q 3016 2534 2758 2815 
Q 2500 3097 2075 3097 
Q 1594 3097 1305 2825 
Q 1016 2553 972 2059 
L 3022 2063 
z
" transform="scale(0.015625)"/>
       <path id="DejaVuSans-63" d="M 3122 3366 
L 3122 2828 
Q 2878 2963 2633 3030 
Q 2388 3097 2138 3097 
Q 1578 3097 1268 2742 
Q 959 2388 959 1747 
Q 959 1106 1268 751 
Q 1578 397 2138 397 
Q 2388 397 2633 464 
Q 2878 531 3122 666 
L 3122 134 
Q 2881 22 2623 -34 
Q 2366 -91 2075 -91 
Q 1284 -91 818 406 
Q 353 903 353 1747 
Q 353 2603 823 3093 
Q 1294 3584 2113 3584 
Q 2378 3584 2631 3529 
Q 2884 3475 3122 3366 
z
" transform="scale(0.015625)"/>
       <path id="DejaVuSans-20" transform="scale(0.015625)"/>
       <path id="DejaVuSans-6f" d="M 1959 3097 
Q 1497 3097 1228 2736 
Q 959 2375 959 1747 
Q 959 1119 1226 758 
Q 1494 397 1959 397 
Q 2419 397 2687 759 
Q 2956 1122 2956 1747 
Q 2956 2369 2687 2733 
Q 2419 3097 1959 3097 
z
M 1959 3584 
Q 2709 3584 3137 3096 
Q 3566 2609 3566 1747 
Q 3566 888 3137 398 
Q 2709 -91 1959 -91 
Q 1206 -91 779 398 
Q 353 888 353 1747 
Q 353 2609 779 3096 
Q 1206 3584 1959 3584 
z
" transform="scale(0.015625)"/>
       <path id="DejaVuSans-73" d="M 2834 3397 
L 2834 2853 
Q 2591 2978 2328 3040 
Q 2066 3103 1784 3103 
Q 1356 3103 1142 2972 
Q 928 2841 928 2578 
Q 928 2378 1081 2264 
Q 1234 2150 1697 2047 
L 1894 2003 
Q 2506 1872 2764 1633 
Q 3022 1394 3022 966 
Q 3022 478 2636 193 
Q 2250 -91 1575 -91 
Q 1294 -91 989 -36 
Q 684 19 347 128 
L 347 722 
Q 666 556 975 473 
Q 1284 391 1588 391 
Q 1994 391 2212 530 
Q 2431 669 2431 922 
Q 2431 1156 2273 1281 
Q 2116 1406 1581 1522 
L 1381 1569 
Q 847 1681 609 1914 
Q 372 2147 372 2553 
Q 372 3047 722 3315 
Q 1072 3584 1716 3584 
Q 2034 3584 2315 3537 
Q 2597 3491 2834 3397 
z
" transform="scale(0.015625)"/>
       <path id="DejaVuSans-72" d="M 2631 2963 
Q 2534 3019 2420 3045 
Q 2306 3072 2169 3072 
Q 1681 3072 1420 2755 
Q 1159 2438 1159 1844 
L 1159 0 
L 581 0 
L 581 3500 
L 1159 3500 
L 1159 2956 
Q 1341 3275 1631 3429 
Q 1922 3584 2338 3584 
Q 2397 3584 2469 3576 
Q 2541 3569 2628 3553 
L 2631 2963 
z
" transform="scale(0.015625)"/>
       <path id="DejaVuSans-70" d="M 1159 525 
L 1159 -1331 
L 581 -1331 
L 581 3500 
L 1159 3500 
L 1159 2969 
Q 1341 3281 1617 3432 
Q 1894 3584 2278 3584 
Q 2916 3584 3314 3078 
Q 3713 2572 3713 1747 
Q 3713 922 3314 415 
Q 2916 -91 2278 -91 
Q 1894 -91 1617 61 
Q 1341 213 1159 525 
z
M 3116 1747 
Q 3116 2381 2855 2742 
Q 2594 3103 2138 3103 
Q 1681 3103 1420 2742 
Q 1159 2381 1159 1747 
Q 1159 1113 1420 752 
Q 1681 391 2138 391 
Q 2594 391 2855 752 
Q 3116 1113 3116 1747 
z
" transform="scale(0.015625)"/>
       <path id="DejaVuSans-69" d="M 603 3500 
L 1178 3500 
L 1178 0 
L 603 0 
L 603 3500 
z
M 603 4863 
L 1178 4863 
L 1178 4134 
L 603 4134 
L 603 4863 
z
" transform="scale(0.015625)"/>
       <path id="DejaVuSans-61" d="M 2194 1759 
Q 1497 1759 1228 1600 
Q 959 1441 959 1056 
Q 959 750 1161 570 
Q 1363 391 1709 391 
Q 2188 391 2477 730 
Q 2766 1069 2766 1631 
L 2766 1759 
L 2194 1759 
z
M 3341 1997 
L 3341 0 
L 2766 0 
L 2766 531 
Q 2569 213 2275 61 
Q 1981 -91 1556 -91 
Q 1019 -91 701 211 
Q 384 513 384 1019 
Q 384 1609 779 1909 
Q 1175 2209 1959 2209 
L 2766 2209 
L 2766 2266 
Q 2766 2663 2505 2880 
Q 2244 3097 1772 3097 
Q 1472 3097 1187 3025 
Q 903 2953 641 2809 
L 641 3341 
Q 956 3463 1253 3523 
Q 1550 3584 1831 3584 
Q 2591 3584 2966 3190 
Q 3341 2797 3341 1997 
z
" transform="scale(0.015625)"/>
       <path id="DejaVuSans-28" d="M 1984 4856 
Q 1566 4138 1362 3434 
Q 1159 2731 1159 2009 
Q 1159 1288 1364 580 
Q 1569 -128 1984 -844 
L 1484 -844 
Q 1016 -109 783 600 
Q 550 1309 550 2009 
Q 550 2706 781 3412 
Q 1013 4119 1484 4856 
L 1984 4856 
z
" transform="scale(0.015625)"/>
       <path id="DejaVuSans-6d" d="M 3328 2828 
Q 3544 3216 3844 3400 
Q 4144 3584 4550 3584 
Q 5097 3584 5394 3201 
Q 5691 2819 5691 2113 
L 5691 0 
L 5113 0 
L 5113 2094 
Q 5113 2597 4934 2840 
Q 4756 3084 4391 3084 
Q 3944 3084 3684 2787 
Q 3425 2491 3425 1978 
L 3425 0 
L 2847 0 
L 2847 2094 
Q 2847 2600 2669 2842 
Q 2491 3084 2119 3084 
Q 1678 3084 1418 2786 
Q 1159 2488 1159 1978 
L 1159 0 
L 581 0 
L 581 3500 
L 1159 3500 
L 1159 2956 
Q 1356 3278 1631 3431 
Q 1906 3584 2284 3584 
Q 2666 3584 2933 3390 
Q 3200 3197 3328 2828 
z
" transform="scale(0.015625)"/>
       <path id="DejaVuSans-74" d="M 1172 4494 
L 1172 3500 
L 2356 3500 
L 2356 3053 
L 1172 3053 
L 1172 1153 
Q 1172 725 1289 603 
Q 1406 481 1766 481 
L 2356 481 
L 2356 0 
L 1766 0 
Q 1100 0 847 248 
Q 594 497 594 1153 
L 594 3053 
L 172 3053 
L 172 3500 
L 594 3500 
L 594 4494 
L 1172 4494 
z
" transform="scale(0.015625)"/>
       <path id="DejaVuSans-29" d="M 513 4856 
L 1013 4856 
Q 1481 4119 1714 3412 
Q 1947 2706 1947 2009 
Q 1947 1309 1714 600 
Q 1481 -109 1013 -844 
L 513 -844 
Q 928 -128 1133 580 
Q 1338 1288 1338 2009 
Q 1338 2731 1133 3434 
Q 928 4138 513 4856 
z
" transform="scale(0.015625)"/>
      </defs>
      <use xlink:href="#DejaVuSans-49"/>
      <use xlink:href="#DejaVuSans-6e" x="29.492188"/>
      <use xlink:href="#DejaVuSans-66" x="92.871094"/>
      <use xlink:href="#DejaVuSans-6c" x="128.076172"/>
      <use xlink:href="#DejaVuSans-75" x="155.859375"/>
      <use xlink:href="#DejaVuSans-65" x="219.238281"/>
      <use xlink:href="#DejaVuSans-6e" x="280.761719"/>
      <use xlink:href="#DejaVuSans-63" x="344.140625"/>
      <use xlink:href="#DejaVuSans-65" x="399.121094"/>
      <use xlink:href="#DejaVuSans-20" x="460.644531"/>
      <use xlink:href="#DejaVuSans-6f" x="492.431641"/>
      <use xlink:href="#DejaVuSans-66" x="553.613281"/>
      <use xlink:href="#DejaVuSans-20" x="588.818359"/>
      <use xlink:href="#DejaVuSans-73" x="620.605469"/>
      <use xlink:href="#DejaVuSans-75" x="672.705078"/>
      <use xlink:href="#DejaVuSans-72" x="736.083984"/>
      <use xlink:href="#DejaVuSans-70" x="777.197266"/>
      <use xlink:href="#DejaVuSans-72" x="840.673828"/>
      <use xlink:href="#DejaVuSans-69" x="881.787109"/>
      <use xlink:href="#DejaVuSans-73" x="909.570312"/>
      <use xlink:href="#DejaVuSans-61" x="961.669922"/>
      <use xlink:href="#DejaVuSans-6c" x="1022.949219"/>
      <use xlink:href="#DejaVuSans-20" x="1050.732422"/>
      <use xlink:href="#DejaVuSans-28" x="1082.519531"/>
      <use xlink:href="#DejaVuSans-6d" x="1121.533203"/>
      <use xlink:href="#DejaVuSans-75" x="1218.945312"/>
      <use xlink:href="#DejaVuSans-6c" x="1282.324219"/>
      <use xlink:href="#DejaVuSans-74" x="1310.107422"/>
      <use xlink:href="#DejaVuSans-69" x="1349.316406"/>
      <use xlink:href="#DejaVuSans-70" x="1377.099609"/>
      <use xlink:href="#DejaVuSans-6c" x="1440.576172"/>
      <use xlink:href="#DejaVuSans-69" x="1468.359375"/>
      <use xlink:href="#DejaVuSans-63" x="1496.142578"/>
      <use xlink:href="#DejaVuSans-61" x="1551.123047"/>
      <use xlink:href="#DejaVuSans-74" x="1612.402344"/>
      <use xlink:href="#DejaVuSans-69" x="1651.611328"/>
      <use xlink:href="#DejaVuSans-6f" x="1679.394531"/>
      <use xlink:href="#DejaVuSans-6e" x="1740.576172"/>
      <use xlink:href="#DejaVuSans-29" x="1803.955078"/>
     </g>
    </g>
   </g>
   <g id="matplotlib.axis_2">
    <g id="ytick_1">
     <g id="line2d_6">
      <defs>
       <path id="mbff41081d0" d="M 0 0 
L -3.5 0 
" style="stroke: #000000; stroke-width: 0.8"/>
      </defs>
      <g>
       <use xlink:href="#mbff41081d0" x="47.72" y="138.105439" style="stroke: #000000; stroke-width: 0.8"/>
      </g>
     </g>
     <g id="text_7">
      <!-- 0.4 -->
      <g transform="translate(24.816875 141.904657)scale(0.1 -0.1)">
       <defs>
        <path id="DejaVuSans-34" d="M 2419 4116 
L 825 1625 
L 2419 1625 
L 2419 4116 
z
M 2253 4666 
L 3047 4666 
L 3047 1625 
L 3713 1625 
L 3713 1100 
L 3047 1100 
L 3047 0 
L 2419 0 
L 2419 1100 
L 313 1100 
L 313 1709 
L 2253 4666 
z
" transform="scale(0.015625)"/>
       </defs>
       <use xlink:href="#DejaVuSans-30"/>
       <use xlink:href="#DejaVuSans-2e" x="63.623047"/>
       <use xlink:href="#DejaVuSans-34" x="95.410156"/>
      </g>
     </g>
    </g>
    <g id="ytick_2">
     <g id="line2d_7">
      <g>
       <use xlink:href="#mbff41081d0" x="47.72" y="100.01377" style="stroke: #000000; stroke-width: 0.8"/>
      </g>
     </g>
     <g id="text_8">
      <!-- 0.6 -->
      <g transform="translate(24.816875 103.812989)scale(0.1 -0.1)">
       <defs>
        <path id="DejaVuSans-36" d="M 2113 2584 
Q 1688 2584 1439 2293 
Q 1191 2003 1191 1497 
Q 1191 994 1439 701 
Q 1688 409 2113 409 
Q 2538 409 2786 701 
Q 3034 994 3034 1497 
Q 3034 2003 2786 2293 
Q 2538 2584 2113 2584 
z
M 3366 4563 
L 3366 3988 
Q 3128 4100 2886 4159 
Q 2644 4219 2406 4219 
Q 1781 4219 1451 3797 
Q 1122 3375 1075 2522 
Q 1259 2794 1537 2939 
Q 1816 3084 2150 3084 
Q 2853 3084 3261 2657 
Q 3669 2231 3669 1497 
Q 3669 778 3244 343 
Q 2819 -91 2113 -91 
Q 1303 -91 875 529 
Q 447 1150 447 2328 
Q 447 3434 972 4092 
Q 1497 4750 2381 4750 
Q 2619 4750 2861 4703 
Q 3103 4656 3366 4563 
z
" transform="scale(0.015625)"/>
       </defs>
       <use xlink:href="#DejaVuSans-30"/>
       <use xlink:href="#DejaVuSans-2e" x="63.623047"/>
       <use xlink:href="#DejaVuSans-36" x="95.410156"/>
      </g>
     </g>
    </g>
    <g id="ytick_3">
     <g id="line2d_8">
      <g>
       <use xlink:href="#mbff41081d0" x="47.72" y="61.922101" style="stroke: #000000; stroke-width: 0.8"/>
      </g>
     </g>
     <g id="text_9">
      <!-- 0.8 -->
      <g transform="translate(24.816875 65.72132)scale(0.1 -0.1)">
       <defs>
        <path id="DejaVuSans-38" d="M 2034 2216 
Q 1584 2216 1326 1975 
Q 1069 1734 1069 1313 
Q 1069 891 1326 650 
Q 1584 409 2034 409 
Q 2484 409 2743 651 
Q 3003 894 3003 1313 
Q 3003 1734 2745 1975 
Q 2488 2216 2034 2216 
z
M 1403 2484 
Q 997 2584 770 2862 
Q 544 3141 544 3541 
Q 544 4100 942 4425 
Q 1341 4750 2034 4750 
Q 2731 4750 3128 4425 
Q 3525 4100 3525 3541 
Q 3525 3141 3298 2862 
Q 3072 2584 2669 2484 
Q 3125 2378 3379 2068 
Q 3634 1759 3634 1313 
Q 3634 634 3220 271 
Q 2806 -91 2034 -91 
Q 1263 -91 848 271 
Q 434 634 434 1313 
Q 434 1759 690 2068 
Q 947 2378 1403 2484 
z
M 1172 3481 
Q 1172 3119 1398 2916 
Q 1625 2713 2034 2713 
Q 2441 2713 2670 2916 
Q 2900 3119 2900 3481 
Q 2900 3844 2670 4047 
Q 2441 4250 2034 4250 
Q 1625 4250 1398 4047 
Q 1172 3844 1172 3481 
z
" transform="scale(0.015625)"/>
       </defs>
       <use xlink:href="#DejaVuSans-30"/>
       <use xlink:href="#DejaVuSans-2e" x="63.623047"/>
       <use xlink:href="#DejaVuSans-38" x="95.410156"/>
      </g>
     </g>
    </g>
    <g id="text_10">
     <!-- R-value -->
     <g transform="translate(18.737188 119.064687)rotate(-90)scale(0.1 -0.1)">
      <defs>
       <path id="DejaVuSans-52" d="M 2841 2188 
Q 3044 2119 3236 1894 
Q 3428 1669 3622 1275 
L 4263 0 
L 3584 0 
L 2988 1197 
Q 2756 1666 2539 1819 
Q 2322 1972 1947 1972 
L 1259 1972 
L 1259 0 
L 628 0 
L 628 4666 
L 2053 4666 
Q 2853 4666 3247 4331 
Q 3641 3997 3641 3322 
Q 3641 2881 3436 2590 
Q 3231 2300 2841 2188 
z
M 1259 4147 
L 1259 2491 
L 2053 2491 
Q 2509 2491 2742 2702 
Q 2975 2913 2975 3322 
Q 2975 3731 2742 3939 
Q 2509 4147 2053 4147 
L 1259 4147 
z
" transform="scale(0.015625)"/>
       <path id="DejaVuSans-2d" d="M 313 2009 
L 1997 2009 
L 1997 1497 
L 313 1497 
L 313 2009 
z
" transform="scale(0.015625)"/>
       <path id="DejaVuSans-76" d="M 191 3500 
L 800 3500 
L 1894 563 
L 2988 3500 
L 3597 3500 
L 2284 0 
L 1503 0 
L 191 3500 
z
" transform="scale(0.015625)"/>
      </defs>
      <use xlink:href="#DejaVuSans-52"/>
      <use xlink:href="#DejaVuSans-2d" x="65.482422"/>
      <use xlink:href="#DejaVuSans-76" x="98.941406"/>
      <use xlink:href="#DejaVuSans-61" x="158.121094"/>
      <use xlink:href="#DejaVuSans-6c" x="219.400391"/>
      <use xlink:href="#DejaVuSans-75" x="247.183594"/>
      <use xlink:href="#DejaVuSans-65" x="310.5625"/>
     </g>
    </g>
   </g>
   <g id="line2d_9">
    <path d="M 47.72 34.275065 
L 59.167105 34.991189 
L 70.614211 37.748449 
L 82.061316 41.719485 
L 93.508421 46.450902 
L 104.955526 52.406994 
L 116.402632 59.175003 
L 127.849737 66.401898 
L 139.296842 73.949741 
L 150.743947 81.473211 
L 162.191053 88.982848 
L 173.638158 96.786666 
L 185.085263 103.96056 
L 196.532368 110.998147 
L 207.979474 117.436517 
L 219.426579 123.362954 
L 230.873684 129.101401 
L 242.320789 134.054213 
L 253.767895 139.066261 
L 265.215 143.628805 
" clip-path="url(#pb8e016fbad)" style="fill: none; stroke: #1f77b4; stroke-width: 1.5; stroke-linecap: square"/>
   </g>
   <g id="line2d_10">
    <path d="M 47.72 34.279696 
L 59.167105 34.665667 
L 70.614211 36.25477 
L 82.061316 38.403829 
L 93.508421 41.047141 
L 104.955526 44.672246 
L 116.402632 49.087026 
L 127.849737 54.09088 
L 139.296842 59.682259 
L 150.743947 65.58916 
L 162.191053 71.715092 
L 173.638158 78.620453 
L 185.085263 85.167388 
L 196.532368 91.981298 
L 207.979474 98.373135 
L 219.426579 104.396396 
L 230.873684 110.21191 
L 242.320789 115.738079 
L 253.767895 120.973575 
L 265.215 126.032556 
" clip-path="url(#pb8e016fbad)" style="fill: none; stroke: #ff7f0e; stroke-width: 1.5; stroke-linecap: square"/>
   </g>
   <g id="line2d_11">
    <path d="M 47.72 34.29068 
L 59.167105 34.740587 
L 70.614211 36.141676 
L 82.061316 37.707145 
L 93.508421 39.524384 
L 104.955526 41.923245 
L 116.402632 44.904577 
L 127.849737 47.929018 
L 139.296842 51.153724 
L 150.743947 54.657302 
L 162.191053 58.084113 
L 173.638158 61.830955 
L 185.085263 65.389509 
L 196.532368 69.712291 
L 207.979474 73.044321 
L 219.426579 76.920181 
L 230.873684 80.669178 
L 242.320789 84.442729 
L 253.767895 87.948222 
L 265.215 91.515515 
" clip-path="url(#pb8e016fbad)" style="fill: none; stroke: #2ca02c; stroke-width: 1.5; stroke-linecap: square"/>
   </g>
   <g id="line2d_12">
    <path d="M 47.72 34.300164 
L 59.167105 34.623831 
L 70.614211 35.725677 
L 82.061316 36.893048 
L 93.508421 38.260587 
L 104.955526 40.217211 
L 116.402632 42.774302 
L 127.849737 45.499987 
L 139.296842 48.569652 
L 150.743947 52.00715 
L 162.191053 55.408684 
L 173.638158 59.287775 
L 185.085263 62.975723 
L 196.532368 67.427879 
L 207.979474 70.927384 
L 219.426579 74.885506 
L 230.873684 78.735299 
L 242.320789 82.676634 
L 253.767895 86.292467 
L 265.215 90.056336 
" clip-path="url(#pb8e016fbad)" style="fill: none; stroke: #d62728; stroke-width: 1.5; stroke-linecap: square"/>
   </g>
   <g id="line2d_13">
    <path d="M 47.72 34.297857 
L 59.167105 35.009426 
L 70.614211 37.763093 
L 82.061316 41.753913 
L 93.508421 46.484542 
L 104.955526 52.449366 
L 116.402632 59.183018 
L 127.849737 66.427591 
L 139.296842 74.246769 
L 150.743947 81.440517 
L 162.191053 89.366437 
L 173.638158 96.917519 
L 185.085263 104.125755 
L 196.532368 111.095657 
L 207.979474 117.929944 
L 219.426579 123.412966 
L 230.873684 129.427362 
L 242.320789 134.543765 
L 253.767895 139.632442 
L 265.215 144.095984 
" clip-path="url(#pb8e016fbad)" style="fill: none; stroke: #9467bd; stroke-width: 1.5; stroke-linecap: square"/>
   </g>
   <g id="line2d_14">
    <path d="M 47.72 34.303343 
L 59.167105 34.681899 
L 70.614211 36.267504 
L 82.061316 38.423355 
L 93.508421 41.06258 
L 104.955526 44.698546 
L 116.402632 49.104966 
L 127.849737 54.127102 
L 139.296842 59.876477 
L 150.743947 65.591619 
L 162.191053 71.942874 
L 173.638158 78.704593 
L 185.085263 85.323312 
L 196.532368 92.019692 
L 207.979474 98.668795 
L 219.426579 104.409194 
L 230.873684 110.404482 
L 242.320789 116.011088 
L 253.767895 121.351775 
L 265.215 126.395554 
" clip-path="url(#pb8e016fbad)" style="fill: none; stroke: #8c564b; stroke-width: 1.5; stroke-linecap: square"/>
   </g>
   <g id="line2d_15">
    <path d="M 47.72 47.887919 
L 59.167105 48.820691 
L 70.614211 51.870605 
L 82.061316 56.396317 
L 93.508421 61.980364 
L 104.955526 68.489545 
L 116.402632 75.991813 
L 127.849737 83.837684 
L 139.296842 91.846426 
L 150.743947 99.87454 
L 162.191053 108.012142 
L 173.638158 116.010872 
L 185.085263 123.594889 
L 196.532368 130.807039 
L 207.979474 137.116297 
L 219.426579 142.804188 
L 230.873684 148.494877 
L 242.320789 152.825603 
L 253.767895 157.423977 
L 265.215 161.336832 
" clip-path="url(#pb8e016fbad)" style="fill: none; stroke: #e377c2; stroke-width: 1.5; stroke-linecap: square"/>
   </g>
   <g id="line2d_16">
    <path d="M 47.72 34.290355 
L 59.167105 34.354454 
L 70.614211 34.798498 
L 82.061316 35.202261 
L 93.508421 35.827964 
L 104.955526 37.210102 
L 116.402632 39.499399 
L 127.849737 42.390369 
L 139.296842 46.154367 
L 150.743947 50.421215 
L 162.191053 54.990128 
L 173.638158 60.710404 
L 185.085263 66.29757 
L 196.532368 72.660192 
L 207.979474 78.754093 
L 219.426579 84.987606 
L 230.873684 91.053022 
L 242.320789 97.40244 
L 253.767895 103.276667 
L 265.215 109.230356 
" clip-path="url(#pb8e016fbad)" style="fill: none; stroke: #7f7f7f; stroke-width: 1.5; stroke-linecap: square"/>
   </g>
   <g id="patch_3">
    <path d="M 47.72 174.04 
L 47.72 26.88 
" style="fill: none; stroke: #000000; stroke-width: 0.8; stroke-linejoin: miter; stroke-linecap: square"/>
   </g>
   <g id="patch_4">
    <path d="M 47.72 174.04 
L 265.215 174.04 
" style="fill: none; stroke: #000000; stroke-width: 0.8; stroke-linejoin: miter; stroke-linecap: square"/>
   </g>
   <g id="text_11">
    <!-- Node * surprisal -->
    <g transform="translate(108.18625 20.88)scale(0.12 -0.12)">
     <defs>
      <path id="DejaVuSans-4e" d="M 628 4666 
L 1478 4666 
L 3547 763 
L 3547 4666 
L 4159 4666 
L 4159 0 
L 3309 0 
L 1241 3903 
L 1241 0 
L 628 0 
L 628 4666 
z
" transform="scale(0.015625)"/>
      <path id="DejaVuSans-64" d="M 2906 2969 
L 2906 4863 
L 3481 4863 
L 3481 0 
L 2906 0 
L 2906 525 
Q 2725 213 2448 61 
Q 2172 -91 1784 -91 
Q 1150 -91 751 415 
Q 353 922 353 1747 
Q 353 2572 751 3078 
Q 1150 3584 1784 3584 
Q 2172 3584 2448 3432 
Q 2725 3281 2906 2969 
z
M 947 1747 
Q 947 1113 1208 752 
Q 1469 391 1925 391 
Q 2381 391 2643 752 
Q 2906 1113 2906 1747 
Q 2906 2381 2643 2742 
Q 2381 3103 1925 3103 
Q 1469 3103 1208 2742 
Q 947 2381 947 1747 
z
" transform="scale(0.015625)"/>
      <path id="DejaVuSans-2a" d="M 3009 3897 
L 1888 3291 
L 3009 2681 
L 2828 2375 
L 1778 3009 
L 1778 1831 
L 1422 1831 
L 1422 3009 
L 372 2375 
L 191 2681 
L 1313 3291 
L 191 3897 
L 372 4206 
L 1422 3572 
L 1422 4750 
L 1778 4750 
L 1778 3572 
L 2828 4206 
L 3009 3897 
z
" transform="scale(0.015625)"/>
     </defs>
     <use xlink:href="#DejaVuSans-4e"/>
     <use xlink:href="#DejaVuSans-6f" x="74.804688"/>
     <use xlink:href="#DejaVuSans-64" x="135.986328"/>
     <use xlink:href="#DejaVuSans-65" x="199.462891"/>
     <use xlink:href="#DejaVuSans-20" x="260.986328"/>
     <use xlink:href="#DejaVuSans-2a" x="292.773438"/>
     <use xlink:href="#DejaVuSans-20" x="342.773438"/>
     <use xlink:href="#DejaVuSans-73" x="374.560547"/>
     <use xlink:href="#DejaVuSans-75" x="426.660156"/>
     <use xlink:href="#DejaVuSans-72" x="490.039062"/>
     <use xlink:href="#DejaVuSans-70" x="531.152344"/>
     <use xlink:href="#DejaVuSans-72" x="594.628906"/>
     <use xlink:href="#DejaVuSans-69" x="635.742188"/>
     <use xlink:href="#DejaVuSans-73" x="663.525391"/>
     <use xlink:href="#DejaVuSans-61" x="715.625"/>
     <use xlink:href="#DejaVuSans-6c" x="776.904297"/>
    </g>
   </g>
  </g>
  <g id="axes_2">
   <g id="patch_5">
    <path d="M 298.065 174.04 
L 515.56 174.04 
L 515.56 26.88 
L 298.065 26.88 
z
" style="fill: #ffffff"/>
   </g>
   <g id="PolyCollection_9">
    <path d="M 298.065 33.569091 
L 298.065 34.739318 
L 309.512105 35.912692 
L 320.959211 39.034714 
L 332.406316 43.481704 
L 343.853421 49.172908 
L 355.300526 55.857389 
L 366.747632 62.995965 
L 378.194737 70.814113 
L 389.641842 78.529266 
L 401.088947 86.296164 
L 412.536053 93.871281 
L 423.983158 101.206335 
L 435.430263 108.672675 
L 446.877368 115.602719 
L 458.324474 122.136088 
L 469.771579 128.642336 
L 481.218684 134.448494 
L 492.665789 139.401652 
L 504.112895 145.040395 
L 515.56 149.416949 
L 515.56 135.626581 
L 515.56 135.626581 
L 504.112895 131.787909 
L 492.665789 127.163423 
L 481.218684 122.17786 
L 469.771579 116.750239 
L 458.324474 111.27656 
L 446.877368 105.297458 
L 435.430263 98.618792 
L 423.983158 91.28428 
L 412.536053 84.233935 
L 401.088947 77.266032 
L 389.641842 70.287873 
L 378.194737 63.120919 
L 366.747632 56.617076 
L 355.300526 50.41185 
L 343.853421 44.847107 
L 332.406316 40.269664 
L 320.959211 37.041562 
L 309.512105 34.505309 
L 298.065 33.569091 
z
" clip-path="url(#paafcbc14f9)" style="fill: #1f77b4; fill-opacity: 0.4"/>
   </g>
   <g id="PolyCollection_10">
    <path d="M 298.065 33.57852 
L 298.065 34.75799 
L 309.512105 35.921344 
L 320.959211 39.031372 
L 332.406316 43.486039 
L 343.853421 49.150694 
L 355.300526 55.785245 
L 366.747632 62.894488 
L 378.194737 70.719958 
L 389.641842 78.432347 
L 401.088947 86.202769 
L 412.536053 93.760675 
L 423.983158 101.156051 
L 435.430263 108.610047 
L 446.877368 115.643183 
L 458.324474 122.192577 
L 469.771579 128.790386 
L 481.218684 134.691015 
L 492.665789 139.749395 
L 504.112895 145.380587 
L 515.56 149.794126 
L 515.56 135.733533 
L 515.56 135.733533 
L 504.112895 131.892777 
L 492.665789 127.2401 
L 481.218684 122.314096 
L 469.771579 116.920934 
L 458.324474 111.425435 
L 446.877368 105.484277 
L 435.430263 98.755585 
L 423.983158 91.426983 
L 412.536053 84.372237 
L 401.088947 77.377401 
L 389.641842 70.376683 
L 378.194737 63.197148 
L 366.747632 56.689937 
L 355.300526 50.463239 
L 343.853421 44.888674 
L 332.406316 40.294638 
L 320.959211 37.058077 
L 309.512105 34.51934 
L 298.065 33.57852 
z
" clip-path="url(#paafcbc14f9)" style="fill: #ff7f0e; fill-opacity: 0.4"/>
   </g>
   <g id="PolyCollection_11">
    <path d="M 298.065 33.580023 
L 298.065 34.755214 
L 309.512105 35.915646 
L 320.959211 39.014926 
L 332.406316 43.477385 
L 343.853421 49.120547 
L 355.300526 55.784578 
L 366.747632 62.837975 
L 378.194737 70.686315 
L 389.641842 78.432196 
L 401.088947 86.27826 
L 412.536053 93.843462 
L 423.983158 101.252331 
L 435.430263 108.732969 
L 446.877368 115.825043 
L 458.324474 122.453397 
L 469.771579 129.018406 
L 481.218684 134.95536 
L 492.665789 139.999945 
L 504.112895 145.672808 
L 515.56 150.075782 
L 515.56 135.949288 
L 515.56 135.949288 
L 504.112895 132.015089 
L 492.665789 127.356432 
L 481.218684 122.389501 
L 469.771579 117.013917 
L 458.324474 111.422668 
L 446.877368 105.517602 
L 435.430263 98.817571 
L 423.983158 91.47847 
L 412.536053 84.439602 
L 401.088947 77.447646 
L 389.641842 70.413173 
L 378.194737 63.265878 
L 366.747632 56.763065 
L 355.300526 50.517079 
L 343.853421 44.895075 
L 332.406316 40.318326 
L 320.959211 37.070886 
L 309.512105 34.521413 
L 298.065 33.580023 
z
" clip-path="url(#paafcbc14f9)" style="fill: #2ca02c; fill-opacity: 0.4"/>
   </g>
   <g id="PolyCollection_12">
    <path d="M 298.065 33.594462 
L 298.065 34.779794 
L 309.512105 35.929326 
L 320.959211 39.02561 
L 332.406316 43.487092 
L 343.853421 49.134239 
L 355.300526 55.778961 
L 366.747632 62.837492 
L 378.194737 70.670859 
L 389.641842 78.417537 
L 401.088947 86.247175 
L 412.536053 93.814037 
L 423.983158 101.212607 
L 435.430263 108.670493 
L 446.877368 115.78057 
L 458.324474 122.39013 
L 469.771579 128.980377 
L 481.218684 134.911533 
L 492.665789 139.956618 
L 504.112895 145.617184 
L 515.56 149.998406 
L 515.56 136.245617 
L 515.56 136.245617 
L 504.112895 132.283401 
L 492.665789 127.617489 
L 481.218684 122.646229 
L 469.771579 117.265201 
L 458.324474 111.644711 
L 446.877368 105.718918 
L 435.430263 98.954657 
L 423.983158 91.584805 
L 412.536053 84.50227 
L 401.088947 77.487666 
L 389.641842 70.444267 
L 378.194737 63.288008 
L 366.747632 56.775407 
L 355.300526 50.529272 
L 343.853421 44.915884 
L 332.406316 40.321103 
L 320.959211 37.08072 
L 309.512105 34.536097 
L 298.065 33.594462 
z
" clip-path="url(#paafcbc14f9)" style="fill: #d62728; fill-opacity: 0.4"/>
   </g>
   <g id="PolyCollection_13">
    <path d="M 298.065 33.584338 
L 298.065 34.75306 
L 309.512105 35.929725 
L 320.959211 39.053909 
L 332.406316 43.502534 
L 343.853421 49.199604 
L 355.300526 55.924882 
L 366.747632 63.075104 
L 378.194737 71.007637 
L 389.641842 78.808128 
L 401.088947 86.42352 
L 412.536053 94.277344 
L 423.983158 101.316988 
L 435.430263 109.171719 
L 446.877368 115.659934 
L 458.324474 122.036266 
L 469.771579 129.246002 
L 481.218684 135.413742 
L 492.665789 139.599796 
L 504.112895 145.189518 
L 515.56 150.281907 
L 515.56 135.763444 
L 515.56 135.763444 
L 504.112895 131.420527 
L 492.665789 126.960719 
L 481.218684 122.8736 
L 469.771579 117.343372 
L 458.324474 111.224423 
L 446.877368 106.140593 
L 435.430263 98.734588 
L 423.983158 91.210465 
L 412.536053 84.201103 
L 401.088947 77.438594 
L 389.641842 70.184987 
L 378.194737 63.277892 
L 366.747632 56.63032 
L 355.300526 50.498314 
L 343.853421 44.825363 
L 332.406316 40.292651 
L 320.959211 37.03379 
L 309.512105 34.518268 
L 298.065 33.584338 
z
" clip-path="url(#paafcbc14f9)" style="fill: #9467bd; fill-opacity: 0.4"/>
   </g>
   <g id="PolyCollection_14">
    <path d="M 298.065 33.593923 
L 298.065 34.772179 
L 309.512105 35.939693 
L 320.959211 39.050783 
L 332.406316 43.507826 
L 343.853421 49.177576 
L 355.300526 55.851861 
L 366.747632 62.975717 
L 378.194737 70.921097 
L 389.641842 78.694485 
L 401.088947 86.33101 
L 412.536053 94.166626 
L 423.983158 101.276413 
L 435.430263 109.07535 
L 446.877368 115.708968 
L 458.324474 122.071185 
L 469.771579 129.395345 
L 481.218684 135.641974 
L 492.665789 139.96564 
L 504.112895 145.562636 
L 515.56 150.662338 
L 515.56 135.876634 
L 515.56 135.876634 
L 504.112895 131.49798 
L 492.665789 127.027268 
L 481.218684 123.022274 
L 469.771579 117.495898 
L 458.324474 111.373484 
L 446.877368 106.346192 
L 435.430263 98.884183 
L 423.983158 91.358007 
L 412.536053 84.332848 
L 401.088947 77.54759 
L 389.641842 70.279878 
L 378.194737 63.355931 
L 366.747632 56.703669 
L 355.300526 50.549831 
L 343.853421 44.871428 
L 332.406316 40.318505 
L 320.959211 37.052049 
L 309.512105 34.53275 
L 298.065 33.593923 
z
" clip-path="url(#paafcbc14f9)" style="fill: #8c564b; fill-opacity: 0.4"/>
   </g>
   <g id="PolyCollection_15">
    <path d="M 298.065 45.877099 
L 298.065 49.684975 
L 309.512105 50.699919 
L 320.959211 53.420275 
L 332.406316 57.283442 
L 343.853421 62.401179 
L 355.300526 68.638224 
L 366.747632 75.437751 
L 378.194737 83.034328 
L 389.641842 90.181164 
L 401.088947 97.455615 
L 412.536053 104.668082 
L 423.983158 111.150668 
L 435.430263 118.202725 
L 446.877368 124.508598 
L 458.324474 130.054949 
L 469.771579 135.545709 
L 481.218684 140.987154 
L 492.665789 145.301394 
L 504.112895 150.4455 
L 515.56 154.459303 
L 515.56 143.07441 
L 515.56 143.07441 
L 504.112895 139.171733 
L 492.665789 135.216516 
L 481.218684 129.916405 
L 469.771579 125.010782 
L 458.324474 119.417344 
L 446.877368 113.743849 
L 435.430263 107.386163 
L 423.983158 100.508329 
L 412.536053 93.896894 
L 401.088947 87.530602 
L 389.641842 80.916247 
L 378.194737 74.077683 
L 366.747632 68.221314 
L 355.300526 62.404297 
L 343.853421 57.032707 
L 332.406316 52.644581 
L 320.959211 49.357766 
L 309.512105 46.812312 
L 298.065 45.877099 
z
" clip-path="url(#paafcbc14f9)" style="fill: #e377c2; fill-opacity: 0.4"/>
   </g>
   <g id="PolyCollection_16">
    <path d="M 298.065 33.600315 
L 298.065 34.767453 
L 309.512105 35.941164 
L 320.959211 39.051542 
L 332.406316 43.515304 
L 343.853421 49.195588 
L 355.300526 55.869079 
L 366.747632 63.007223 
L 378.194737 70.838283 
L 389.641842 78.629205 
L 401.088947 86.499881 
L 412.536053 94.112313 
L 423.983158 101.595148 
L 435.430263 109.072023 
L 446.877368 116.239559 
L 458.324474 122.910853 
L 469.771579 129.593526 
L 481.218684 135.637982 
L 492.665789 140.781787 
L 504.112895 146.518255 
L 515.56 151.069486 
L 515.56 136.208037 
L 515.56 136.208037 
L 504.112895 132.301649 
L 492.665789 127.586886 
L 481.218684 122.570762 
L 469.771579 117.266816 
L 458.324474 111.604849 
L 446.877368 105.738635 
L 435.430263 99.019495 
L 423.983158 91.62928 
L 412.536053 84.557245 
L 401.088947 77.51639 
L 389.641842 70.475206 
L 378.194737 63.317525 
L 366.747632 56.783297 
L 355.300526 50.544703 
L 343.853421 44.925556 
L 332.406316 40.328151 
L 320.959211 37.086045 
L 309.512105 34.544428 
L 298.065 33.600315 
z
" clip-path="url(#paafcbc14f9)" style="fill: #7f7f7f; fill-opacity: 0.4"/>
   </g>
   <g id="matplotlib.axis_3">
    <g id="xtick_6">
     <g id="line2d_17">
      <g>
       <use xlink:href="#m84adc8f3d9" x="298.065" y="174.04" style="stroke: #000000; stroke-width: 0.8"/>
      </g>
     </g>
     <g id="text_12">
      <!-- 0.0 -->
      <g transform="translate(290.113437 188.638438)scale(0.1 -0.1)">
       <use xlink:href="#DejaVuSans-30"/>
       <use xlink:href="#DejaVuSans-2e" x="63.623047"/>
       <use xlink:href="#DejaVuSans-30" x="95.410156"/>
      </g>
     </g>
    </g>
    <g id="xtick_7">
     <g id="line2d_18">
      <g>
       <use xlink:href="#m84adc8f3d9" x="352.43875" y="174.04" style="stroke: #000000; stroke-width: 0.8"/>
      </g>
     </g>
     <g id="text_13">
      <!-- 0.5 -->
      <g transform="translate(344.487187 188.638438)scale(0.1 -0.1)">
       <use xlink:href="#DejaVuSans-30"/>
       <use xlink:href="#DejaVuSans-2e" x="63.623047"/>
       <use xlink:href="#DejaVuSans-35" x="95.410156"/>
      </g>
     </g>
    </g>
    <g id="xtick_8">
     <g id="line2d_19">
      <g>
       <use xlink:href="#m84adc8f3d9" x="406.8125" y="174.04" style="stroke: #000000; stroke-width: 0.8"/>
      </g>
     </g>
     <g id="text_14">
      <!-- 1.0 -->
      <g transform="translate(398.860937 188.638438)scale(0.1 -0.1)">
       <use xlink:href="#DejaVuSans-31"/>
       <use xlink:href="#DejaVuSans-2e" x="63.623047"/>
       <use xlink:href="#DejaVuSans-30" x="95.410156"/>
      </g>
     </g>
    </g>
    <g id="xtick_9">
     <g id="line2d_20">
      <g>
       <use xlink:href="#m84adc8f3d9" x="461.18625" y="174.04" style="stroke: #000000; stroke-width: 0.8"/>
      </g>
     </g>
     <g id="text_15">
      <!-- 1.5 -->
      <g transform="translate(453.234687 188.638438)scale(0.1 -0.1)">
       <use xlink:href="#DejaVuSans-31"/>
       <use xlink:href="#DejaVuSans-2e" x="63.623047"/>
       <use xlink:href="#DejaVuSans-35" x="95.410156"/>
      </g>
     </g>
    </g>
    <g id="xtick_10">
     <g id="line2d_21">
      <g>
       <use xlink:href="#m84adc8f3d9" x="515.56" y="174.04" style="stroke: #000000; stroke-width: 0.8"/>
      </g>
     </g>
     <g id="text_16">
      <!-- 2.0 -->
      <g transform="translate(507.608437 188.638438)scale(0.1 -0.1)">
       <use xlink:href="#DejaVuSans-32"/>
       <use xlink:href="#DejaVuSans-2e" x="63.623047"/>
       <use xlink:href="#DejaVuSans-30" x="95.410156"/>
      </g>
     </g>
    </g>
    <g id="text_17">
     <!-- Influence of surprisal (multiplication) -->
     <g transform="translate(314.665625 202.316563)scale(0.1 -0.1)">
      <use xlink:href="#DejaVuSans-49"/>
      <use xlink:href="#DejaVuSans-6e" x="29.492188"/>
      <use xlink:href="#DejaVuSans-66" x="92.871094"/>
      <use xlink:href="#DejaVuSans-6c" x="128.076172"/>
      <use xlink:href="#DejaVuSans-75" x="155.859375"/>
      <use xlink:href="#DejaVuSans-65" x="219.238281"/>
      <use xlink:href="#DejaVuSans-6e" x="280.761719"/>
      <use xlink:href="#DejaVuSans-63" x="344.140625"/>
      <use xlink:href="#DejaVuSans-65" x="399.121094"/>
      <use xlink:href="#DejaVuSans-20" x="460.644531"/>
      <use xlink:href="#DejaVuSans-6f" x="492.431641"/>
      <use xlink:href="#DejaVuSans-66" x="553.613281"/>
      <use xlink:href="#DejaVuSans-20" x="588.818359"/>
      <use xlink:href="#DejaVuSans-73" x="620.605469"/>
      <use xlink:href="#DejaVuSans-75" x="672.705078"/>
      <use xlink:href="#DejaVuSans-72" x="736.083984"/>
      <use xlink:href="#DejaVuSans-70" x="777.197266"/>
      <use xlink:href="#DejaVuSans-72" x="840.673828"/>
      <use xlink:href="#DejaVuSans-69" x="881.787109"/>
      <use xlink:href="#DejaVuSans-73" x="909.570312"/>
      <use xlink:href="#DejaVuSans-61" x="961.669922"/>
      <use xlink:href="#DejaVuSans-6c" x="1022.949219"/>
      <use xlink:href="#DejaVuSans-20" x="1050.732422"/>
      <use xlink:href="#DejaVuSans-28" x="1082.519531"/>
      <use xlink:href="#DejaVuSans-6d" x="1121.533203"/>
      <use xlink:href="#DejaVuSans-75" x="1218.945312"/>
      <use xlink:href="#DejaVuSans-6c" x="1282.324219"/>
      <use xlink:href="#DejaVuSans-74" x="1310.107422"/>
      <use xlink:href="#DejaVuSans-69" x="1349.316406"/>
      <use xlink:href="#DejaVuSans-70" x="1377.099609"/>
      <use xlink:href="#DejaVuSans-6c" x="1440.576172"/>
      <use xlink:href="#DejaVuSans-69" x="1468.359375"/>
      <use xlink:href="#DejaVuSans-63" x="1496.142578"/>
      <use xlink:href="#DejaVuSans-61" x="1551.123047"/>
      <use xlink:href="#DejaVuSans-74" x="1612.402344"/>
      <use xlink:href="#DejaVuSans-69" x="1651.611328"/>
      <use xlink:href="#DejaVuSans-6f" x="1679.394531"/>
      <use xlink:href="#DejaVuSans-6e" x="1740.576172"/>
      <use xlink:href="#DejaVuSans-29" x="1803.955078"/>
     </g>
    </g>
   </g>
   <g id="line2d_22">
    <path d="M 298.065 34.154204 
L 309.512105 35.209 
L 320.959211 38.038138 
L 332.406316 41.875684 
L 343.853421 47.010007 
L 355.300526 53.13462 
L 366.747632 59.80652 
L 378.194737 66.967516 
L 389.641842 74.40857 
L 401.088947 81.781098 
L 412.536053 89.052608 
L 423.983158 96.245307 
L 435.430263 103.645734 
L 446.877368 110.450089 
L 458.324474 116.706324 
L 469.771579 122.696287 
L 481.218684 128.313177 
L 492.665789 133.282537 
L 504.112895 138.414152 
L 515.56 142.521765 
" clip-path="url(#paafcbc14f9)" style="fill: none; stroke: #1f77b4; stroke-width: 1.5; stroke-linecap: square"/>
   </g>
   <g id="line2d_23">
    <path d="M 298.065 34.168255 
L 309.512105 35.220342 
L 320.959211 38.044725 
L 332.406316 41.890339 
L 343.853421 47.019684 
L 355.300526 53.124242 
L 366.747632 59.792213 
L 378.194737 66.958553 
L 389.641842 74.404515 
L 401.088947 81.790085 
L 412.536053 89.066456 
L 423.983158 96.291517 
L 435.430263 103.682816 
L 446.877368 110.56373 
L 458.324474 116.809006 
L 469.771579 122.85566 
L 481.218684 128.502555 
L 492.665789 133.494747 
L 504.112895 138.636682 
L 515.56 142.763829 
" clip-path="url(#paafcbc14f9)" style="fill: none; stroke: #ff7f0e; stroke-width: 1.5; stroke-linecap: square"/>
   </g>
   <g id="line2d_24">
    <path d="M 298.065 34.167619 
L 309.512105 35.21853 
L 320.959211 38.042906 
L 332.406316 41.897855 
L 343.853421 47.007811 
L 355.300526 53.150829 
L 366.747632 59.80052 
L 378.194737 66.976096 
L 389.641842 74.422684 
L 401.088947 81.862953 
L 412.536053 89.141532 
L 423.983158 96.365401 
L 435.430263 103.77527 
L 446.877368 110.671322 
L 458.324474 116.938032 
L 469.771579 123.016161 
L 481.218684 128.67243 
L 492.665789 133.678189 
L 504.112895 138.843948 
L 515.56 143.012535 
" clip-path="url(#paafcbc14f9)" style="fill: none; stroke: #2ca02c; stroke-width: 1.5; stroke-linecap: square"/>
   </g>
   <g id="line2d_25">
    <path d="M 298.065 34.187128 
L 309.512105 35.232711 
L 320.959211 38.053165 
L 332.406316 41.904097 
L 343.853421 47.025062 
L 355.300526 53.154116 
L 366.747632 59.806449 
L 378.194737 66.979434 
L 389.641842 74.430902 
L 401.088947 81.86742 
L 412.536053 89.158153 
L 423.983158 96.398706 
L 435.430263 103.812575 
L 446.877368 110.749744 
L 458.324474 117.017421 
L 469.771579 123.122789 
L 481.218684 128.778881 
L 492.665789 133.787053 
L 504.112895 138.950292 
L 515.56 143.122012 
" clip-path="url(#paafcbc14f9)" style="fill: none; stroke: #d62728; stroke-width: 1.5; stroke-linecap: square"/>
   </g>
   <g id="line2d_26">
    <path d="M 298.065 34.168699 
L 309.512105 35.223997 
L 320.959211 38.043849 
L 332.406316 41.897592 
L 343.853421 47.012483 
L 355.300526 53.211598 
L 366.747632 59.852712 
L 378.194737 67.142765 
L 389.641842 74.496558 
L 401.088947 81.931057 
L 412.536053 89.239224 
L 423.983158 96.263726 
L 435.430263 103.953154 
L 446.877368 110.900264 
L 458.324474 116.630345 
L 469.771579 123.294687 
L 481.218684 129.143671 
L 492.665789 133.280257 
L 504.112895 138.305023 
L 515.56 143.022676 
" clip-path="url(#paafcbc14f9)" style="fill: none; stroke: #9467bd; stroke-width: 1.5; stroke-linecap: square"/>
   </g>
   <g id="line2d_27">
    <path d="M 298.065 34.183051 
L 309.512105 35.236221 
L 320.959211 38.051416 
L 332.406316 41.913165 
L 343.853421 47.024502 
L 355.300526 53.200846 
L 366.747632 59.839693 
L 378.194737 67.138514 
L 389.641842 74.487182 
L 401.088947 81.9393 
L 412.536053 89.249737 
L 423.983158 96.31721 
L 435.430263 103.979767 
L 446.877368 111.02758 
L 458.324474 116.722334 
L 469.771579 123.445621 
L 481.218684 129.332124 
L 492.665789 133.496454 
L 504.112895 138.530308 
L 515.56 143.269486 
" clip-path="url(#paafcbc14f9)" style="fill: none; stroke: #8c564b; stroke-width: 1.5; stroke-linecap: square"/>
   </g>
   <g id="line2d_28">
    <path d="M 298.065 47.781037 
L 309.512105 48.756116 
L 320.959211 51.389021 
L 332.406316 54.964012 
L 343.853421 59.716943 
L 355.300526 65.521261 
L 366.747632 71.829533 
L 378.194737 78.556005 
L 389.641842 85.548706 
L 401.088947 92.493108 
L 412.536053 99.282488 
L 423.983158 105.829499 
L 435.430263 112.794444 
L 446.877368 119.126224 
L 458.324474 124.736146 
L 469.771579 130.278246 
L 481.218684 135.451779 
L 492.665789 140.258955 
L 504.112895 144.808616 
L 515.56 148.766856 
" clip-path="url(#paafcbc14f9)" style="fill: none; stroke: #e377c2; stroke-width: 1.5; stroke-linecap: square"/>
   </g>
   <g id="line2d_29">
    <path d="M 298.065 34.183884 
L 309.512105 35.242796 
L 320.959211 38.068793 
L 332.406316 41.921728 
L 343.853421 47.060572 
L 355.300526 53.206891 
L 366.747632 59.89526 
L 378.194737 67.077904 
L 389.641842 74.552205 
L 401.088947 82.008136 
L 412.536053 89.334779 
L 423.983158 96.612214 
L 435.430263 104.045759 
L 446.877368 110.989097 
L 458.324474 117.257851 
L 469.771579 123.430171 
L 481.218684 129.104372 
L 492.665789 134.184337 
L 504.112895 139.409952 
L 515.56 143.638761 
" clip-path="url(#paafcbc14f9)" style="fill: none; stroke: #7f7f7f; stroke-width: 1.5; stroke-linecap: square"/>
   </g>
   <g id="patch_6">
    <path d="M 298.065 174.04 
L 298.065 26.88 
" style="fill: none; stroke: #000000; stroke-width: 0.8; stroke-linejoin: miter; stroke-linecap: square"/>
   </g>
   <g id="patch_7">
    <path d="M 298.065 174.04 
L 515.56 174.04 
" style="fill: none; stroke: #000000; stroke-width: 0.8; stroke-linejoin: miter; stroke-linecap: square"/>
   </g>
   <g id="text_18">
    <!-- Node * third variable -->
    <g transform="translate(344.2325 20.88)scale(0.12 -0.12)">
     <defs>
      <path id="DejaVuSans-68" d="M 3513 2113 
L 3513 0 
L 2938 0 
L 2938 2094 
Q 2938 2591 2744 2837 
Q 2550 3084 2163 3084 
Q 1697 3084 1428 2787 
Q 1159 2491 1159 1978 
L 1159 0 
L 581 0 
L 581 4863 
L 1159 4863 
L 1159 2956 
Q 1366 3272 1645 3428 
Q 1925 3584 2291 3584 
Q 2894 3584 3203 3211 
Q 3513 2838 3513 2113 
z
" transform="scale(0.015625)"/>
      <path id="DejaVuSans-62" d="M 3116 1747 
Q 3116 2381 2855 2742 
Q 2594 3103 2138 3103 
Q 1681 3103 1420 2742 
Q 1159 2381 1159 1747 
Q 1159 1113 1420 752 
Q 1681 391 2138 391 
Q 2594 391 2855 752 
Q 3116 1113 3116 1747 
z
M 1159 2969 
Q 1341 3281 1617 3432 
Q 1894 3584 2278 3584 
Q 2916 3584 3314 3078 
Q 3713 2572 3713 1747 
Q 3713 922 3314 415 
Q 2916 -91 2278 -91 
Q 1894 -91 1617 61 
Q 1341 213 1159 525 
L 1159 0 
L 581 0 
L 581 4863 
L 1159 4863 
L 1159 2969 
z
" transform="scale(0.015625)"/>
     </defs>
     <use xlink:href="#DejaVuSans-4e"/>
     <use xlink:href="#DejaVuSans-6f" x="74.804688"/>
     <use xlink:href="#DejaVuSans-64" x="135.986328"/>
     <use xlink:href="#DejaVuSans-65" x="199.462891"/>
     <use xlink:href="#DejaVuSans-20" x="260.986328"/>
     <use xlink:href="#DejaVuSans-2a" x="292.773438"/>
     <use xlink:href="#DejaVuSans-20" x="342.773438"/>
     <use xlink:href="#DejaVuSans-74" x="374.560547"/>
     <use xlink:href="#DejaVuSans-68" x="413.769531"/>
     <use xlink:href="#DejaVuSans-69" x="477.148438"/>
     <use xlink:href="#DejaVuSans-72" x="504.931641"/>
     <use xlink:href="#DejaVuSans-64" x="544.294922"/>
     <use xlink:href="#DejaVuSans-20" x="607.771484"/>
     <use xlink:href="#DejaVuSans-76" x="639.558594"/>
     <use xlink:href="#DejaVuSans-61" x="698.738281"/>
     <use xlink:href="#DejaVuSans-72" x="760.017578"/>
     <use xlink:href="#DejaVuSans-69" x="801.130859"/>
     <use xlink:href="#DejaVuSans-61" x="828.914062"/>
     <use xlink:href="#DejaVuSans-62" x="890.193359"/>
     <use xlink:href="#DejaVuSans-6c" x="953.669922"/>
     <use xlink:href="#DejaVuSans-65" x="981.453125"/>
    </g>
   </g>
   <g id="legend_1">
    <g id="line2d_30">
     <path d="M 524.56 39.978437 
L 534.56 39.978437 
L 544.56 39.978437 
" style="fill: none; stroke: #1f77b4; stroke-width: 1.5; stroke-linecap: square"/>
    </g>
    <g id="text_19">
     <!-- Node -->
     <g transform="translate(552.56 43.478437)scale(0.1 -0.1)">
      <use xlink:href="#DejaVuSans-4e"/>
      <use xlink:href="#DejaVuSans-6f" x="74.804688"/>
      <use xlink:href="#DejaVuSans-64" x="135.986328"/>
      <use xlink:href="#DejaVuSans-65" x="199.462891"/>
     </g>
    </g>
    <g id="line2d_31">
     <path d="M 524.56 54.656563 
L 534.56 54.656563 
L 544.56 54.656563 
" style="fill: none; stroke: #ff7f0e; stroke-width: 1.5; stroke-linecap: square"/>
    </g>
    <g id="text_20">
     <!-- Node + surprisal -->
     <g transform="translate(552.56 58.156563)scale(0.1 -0.1)">
      <defs>
       <path id="DejaVuSans-2b" d="M 2944 4013 
L 2944 2272 
L 4684 2272 
L 4684 1741 
L 2944 1741 
L 2944 0 
L 2419 0 
L 2419 1741 
L 678 1741 
L 678 2272 
L 2419 2272 
L 2419 4013 
L 2944 4013 
z
" transform="scale(0.015625)"/>
      </defs>
      <use xlink:href="#DejaVuSans-4e"/>
      <use xlink:href="#DejaVuSans-6f" x="74.804688"/>
      <use xlink:href="#DejaVuSans-64" x="135.986328"/>
      <use xlink:href="#DejaVuSans-65" x="199.462891"/>
      <use xlink:href="#DejaVuSans-20" x="260.986328"/>
      <use xlink:href="#DejaVuSans-2b" x="292.773438"/>
      <use xlink:href="#DejaVuSans-20" x="376.5625"/>
      <use xlink:href="#DejaVuSans-73" x="408.349609"/>
      <use xlink:href="#DejaVuSans-75" x="460.449219"/>
      <use xlink:href="#DejaVuSans-72" x="523.828125"/>
      <use xlink:href="#DejaVuSans-70" x="564.941406"/>
      <use xlink:href="#DejaVuSans-72" x="628.417969"/>
      <use xlink:href="#DejaVuSans-69" x="669.53125"/>
      <use xlink:href="#DejaVuSans-73" x="697.314453"/>
      <use xlink:href="#DejaVuSans-61" x="749.414062"/>
      <use xlink:href="#DejaVuSans-6c" x="810.693359"/>
     </g>
    </g>
    <g id="line2d_32">
     <path d="M 524.56 69.334687 
L 534.56 69.334687 
L 544.56 69.334687 
" style="fill: none; stroke: #2ca02c; stroke-width: 1.5; stroke-linecap: square"/>
    </g>
    <g id="text_21">
     <!-- Node split -->
     <g transform="translate(552.56 72.834687)scale(0.1 -0.1)">
      <use xlink:href="#DejaVuSans-4e"/>
      <use xlink:href="#DejaVuSans-6f" x="74.804688"/>
      <use xlink:href="#DejaVuSans-64" x="135.986328"/>
      <use xlink:href="#DejaVuSans-65" x="199.462891"/>
      <use xlink:href="#DejaVuSans-20" x="260.986328"/>
      <use xlink:href="#DejaVuSans-73" x="292.773438"/>
      <use xlink:href="#DejaVuSans-70" x="344.873047"/>
      <use xlink:href="#DejaVuSans-6c" x="408.349609"/>
      <use xlink:href="#DejaVuSans-69" x="436.132812"/>
      <use xlink:href="#DejaVuSans-74" x="463.916016"/>
     </g>
    </g>
    <g id="line2d_33">
     <path d="M 524.56 84.012812 
L 534.56 84.012812 
L 544.56 84.012812 
" style="fill: none; stroke: #d62728; stroke-width: 1.5; stroke-linecap: square"/>
    </g>
    <g id="text_22">
     <!-- Node split + surprisal -->
     <g transform="translate(552.56 87.512812)scale(0.1 -0.1)">
      <use xlink:href="#DejaVuSans-4e"/>
      <use xlink:href="#DejaVuSans-6f" x="74.804688"/>
      <use xlink:href="#DejaVuSans-64" x="135.986328"/>
      <use xlink:href="#DejaVuSans-65" x="199.462891"/>
      <use xlink:href="#DejaVuSans-20" x="260.986328"/>
      <use xlink:href="#DejaVuSans-73" x="292.773438"/>
      <use xlink:href="#DejaVuSans-70" x="344.873047"/>
      <use xlink:href="#DejaVuSans-6c" x="408.349609"/>
      <use xlink:href="#DejaVuSans-69" x="436.132812"/>
      <use xlink:href="#DejaVuSans-74" x="463.916016"/>
      <use xlink:href="#DejaVuSans-20" x="503.125"/>
      <use xlink:href="#DejaVuSans-2b" x="534.912109"/>
      <use xlink:href="#DejaVuSans-20" x="618.701172"/>
      <use xlink:href="#DejaVuSans-73" x="650.488281"/>
      <use xlink:href="#DejaVuSans-75" x="702.587891"/>
      <use xlink:href="#DejaVuSans-72" x="765.966797"/>
      <use xlink:href="#DejaVuSans-70" x="807.080078"/>
      <use xlink:href="#DejaVuSans-72" x="870.556641"/>
      <use xlink:href="#DejaVuSans-69" x="911.669922"/>
      <use xlink:href="#DejaVuSans-73" x="939.453125"/>
      <use xlink:href="#DejaVuSans-61" x="991.552734"/>
      <use xlink:href="#DejaVuSans-6c" x="1052.832031"/>
     </g>
    </g>
    <g id="line2d_34">
     <path d="M 524.56 98.690937 
L 534.56 98.690937 
L 544.56 98.690937 
" style="fill: none; stroke: #9467bd; stroke-width: 1.5; stroke-linecap: square"/>
    </g>
    <g id="text_23">
     <!-- Node random split -->
     <g transform="translate(552.56 102.190937)scale(0.1 -0.1)">
      <use xlink:href="#DejaVuSans-4e"/>
      <use xlink:href="#DejaVuSans-6f" x="74.804688"/>
      <use xlink:href="#DejaVuSans-64" x="135.986328"/>
      <use xlink:href="#DejaVuSans-65" x="199.462891"/>
      <use xlink:href="#DejaVuSans-20" x="260.986328"/>
      <use xlink:href="#DejaVuSans-72" x="292.773438"/>
      <use xlink:href="#DejaVuSans-61" x="333.886719"/>
      <use xlink:href="#DejaVuSans-6e" x="395.166016"/>
      <use xlink:href="#DejaVuSans-64" x="458.544922"/>
      <use xlink:href="#DejaVuSans-6f" x="522.021484"/>
      <use xlink:href="#DejaVuSans-6d" x="583.203125"/>
      <use xlink:href="#DejaVuSans-20" x="680.615234"/>
      <use xlink:href="#DejaVuSans-73" x="712.402344"/>
      <use xlink:href="#DejaVuSans-70" x="764.501953"/>
      <use xlink:href="#DejaVuSans-6c" x="827.978516"/>
      <use xlink:href="#DejaVuSans-69" x="855.761719"/>
      <use xlink:href="#DejaVuSans-74" x="883.544922"/>
     </g>
    </g>
    <g id="line2d_35">
     <path d="M 524.56 113.369062 
L 534.56 113.369062 
L 544.56 113.369062 
" style="fill: none; stroke: #8c564b; stroke-width: 1.5; stroke-linecap: square"/>
    </g>
    <g id="text_24">
     <!-- Node random split + surprisal -->
     <g transform="translate(552.56 116.869062)scale(0.1 -0.1)">
      <use xlink:href="#DejaVuSans-4e"/>
      <use xlink:href="#DejaVuSans-6f" x="74.804688"/>
      <use xlink:href="#DejaVuSans-64" x="135.986328"/>
      <use xlink:href="#DejaVuSans-65" x="199.462891"/>
      <use xlink:href="#DejaVuSans-20" x="260.986328"/>
      <use xlink:href="#DejaVuSans-72" x="292.773438"/>
      <use xlink:href="#DejaVuSans-61" x="333.886719"/>
      <use xlink:href="#DejaVuSans-6e" x="395.166016"/>
      <use xlink:href="#DejaVuSans-64" x="458.544922"/>
      <use xlink:href="#DejaVuSans-6f" x="522.021484"/>
      <use xlink:href="#DejaVuSans-6d" x="583.203125"/>
      <use xlink:href="#DejaVuSans-20" x="680.615234"/>
      <use xlink:href="#DejaVuSans-73" x="712.402344"/>
      <use xlink:href="#DejaVuSans-70" x="764.501953"/>
      <use xlink:href="#DejaVuSans-6c" x="827.978516"/>
      <use xlink:href="#DejaVuSans-69" x="855.761719"/>
      <use xlink:href="#DejaVuSans-74" x="883.544922"/>
      <use xlink:href="#DejaVuSans-20" x="922.753906"/>
      <use xlink:href="#DejaVuSans-2b" x="954.541016"/>
      <use xlink:href="#DejaVuSans-20" x="1038.330078"/>
      <use xlink:href="#DejaVuSans-73" x="1070.117188"/>
      <use xlink:href="#DejaVuSans-75" x="1122.216797"/>
      <use xlink:href="#DejaVuSans-72" x="1185.595703"/>
      <use xlink:href="#DejaVuSans-70" x="1226.708984"/>
      <use xlink:href="#DejaVuSans-72" x="1290.185547"/>
      <use xlink:href="#DejaVuSans-69" x="1331.298828"/>
      <use xlink:href="#DejaVuSans-73" x="1359.082031"/>
      <use xlink:href="#DejaVuSans-61" x="1411.181641"/>
      <use xlink:href="#DejaVuSans-6c" x="1472.460938"/>
     </g>
    </g>
    <g id="line2d_36">
     <path d="M 524.56 128.047187 
L 534.56 128.047187 
L 544.56 128.047187 
" style="fill: none; stroke: #e377c2; stroke-width: 1.5; stroke-linecap: square"/>
    </g>
    <g id="text_25">
     <!-- Interaction -->
     <g transform="translate(552.56 131.547187)scale(0.1 -0.1)">
      <use xlink:href="#DejaVuSans-49"/>
      <use xlink:href="#DejaVuSans-6e" x="29.492188"/>
      <use xlink:href="#DejaVuSans-74" x="92.871094"/>
      <use xlink:href="#DejaVuSans-65" x="132.080078"/>
      <use xlink:href="#DejaVuSans-72" x="193.603516"/>
      <use xlink:href="#DejaVuSans-61" x="234.716797"/>
      <use xlink:href="#DejaVuSans-63" x="295.996094"/>
      <use xlink:href="#DejaVuSans-74" x="350.976562"/>
      <use xlink:href="#DejaVuSans-69" x="390.185547"/>
      <use xlink:href="#DejaVuSans-6f" x="417.96875"/>
      <use xlink:href="#DejaVuSans-6e" x="479.150391"/>
     </g>
    </g>
    <g id="line2d_37">
     <path d="M 524.56 142.725312 
L 534.56 142.725312 
L 544.56 142.725312 
" style="fill: none; stroke: #7f7f7f; stroke-width: 1.5; stroke-linecap: square"/>
    </g>
    <g id="text_26">
     <!-- Node + surprisal + interaction -->
     <g transform="translate(552.56 146.225312)scale(0.1 -0.1)">
      <use xlink:href="#DejaVuSans-4e"/>
      <use xlink:href="#DejaVuSans-6f" x="74.804688"/>
      <use xlink:href="#DejaVuSans-64" x="135.986328"/>
      <use xlink:href="#DejaVuSans-65" x="199.462891"/>
      <use xlink:href="#DejaVuSans-20" x="260.986328"/>
      <use xlink:href="#DejaVuSans-2b" x="292.773438"/>
      <use xlink:href="#DejaVuSans-20" x="376.5625"/>
      <use xlink:href="#DejaVuSans-73" x="408.349609"/>
      <use xlink:href="#DejaVuSans-75" x="460.449219"/>
      <use xlink:href="#DejaVuSans-72" x="523.828125"/>
      <use xlink:href="#DejaVuSans-70" x="564.941406"/>
      <use xlink:href="#DejaVuSans-72" x="628.417969"/>
      <use xlink:href="#DejaVuSans-69" x="669.53125"/>
      <use xlink:href="#DejaVuSans-73" x="697.314453"/>
      <use xlink:href="#DejaVuSans-61" x="749.414062"/>
      <use xlink:href="#DejaVuSans-6c" x="810.693359"/>
      <use xlink:href="#DejaVuSans-20" x="838.476562"/>
      <use xlink:href="#DejaVuSans-2b" x="870.263672"/>
      <use xlink:href="#DejaVuSans-20" x="954.052734"/>
      <use xlink:href="#DejaVuSans-69" x="985.839844"/>
      <use xlink:href="#DejaVuSans-6e" x="1013.623047"/>
      <use xlink:href="#DejaVuSans-74" x="1077.001953"/>
      <use xlink:href="#DejaVuSans-65" x="1116.210938"/>
      <use xlink:href="#DejaVuSans-72" x="1177.734375"/>
      <use xlink:href="#DejaVuSans-61" x="1218.847656"/>
      <use xlink:href="#DejaVuSans-63" x="1280.126953"/>
      <use xlink:href="#DejaVuSans-74" x="1335.107422"/>
      <use xlink:href="#DejaVuSans-69" x="1374.316406"/>
      <use xlink:href="#DejaVuSans-6f" x="1402.099609"/>
      <use xlink:href="#DejaVuSans-6e" x="1463.28125"/>
     </g>
    </g>
   </g>
  </g>
 </g>
 <defs>
  <clipPath id="pb8e016fbad">
   <rect x="47.72" y="26.88" width="217.495" height="147.16"/>
  </clipPath>
  <clipPath id="paafcbc14f9">
   <rect x="298.065" y="26.88" width="217.495" height="147.16"/>
  </clipPath>
 </defs>
</svg>
