<?xml version="1.0" encoding="utf-8" standalone="no"?>
<!DOCTYPE svg PUBLIC "-//W3C//DTD SVG 1.1//EN"
  "http://www.w3.org/Graphics/SVG/1.1/DTD/svg11.dtd">
<svg xmlns:xlink="http://www.w3.org/1999/xlink" width="720pt" height="216pt" viewBox="0 0 720 216" xmlns="http://www.w3.org/2000/svg" version="1.1">
 <metadata>
  <rdf:RDF xmlns:dc="http://purl.org/dc/elements/1.1/" xmlns:cc="http://creativecommons.org/ns#" xmlns:rdf="http://www.w3.org/1999/02/22-rdf-syntax-ns#">
   <cc:Work>
    <dc:type rdf:resource="http://purl.org/dc/dcmitype/StillImage"/>
    <dc:date>2024-01-16T00:14:22.448558</dc:date>
    <dc:format>image/svg+xml</dc:format>
    <dc:creator>
     <cc:Agent>
      <dc:title>Matplotlib v3.5.1, https://matplotlib.org/</dc:title>
     </cc:Agent>
    </dc:creator>
   </cc:Work>
  </rdf:RDF>
 </metadata>
 <defs>
  <style type="text/css">*{stroke-linejoin: round; stroke-linecap: butt}</style>
 </defs>
 <g id="figure_1">
  <g id="patch_1">
   <path d="M 0 216 
L 720 216 
L 720 0 
L 0 0 
z
" style="fill: #ffffff"/>
  </g>
  <g id="axes_1">
   <g id="patch_2">
    <path d="M 47.72 174.04 
L 265.215 174.04 
L 265.215 26.88 
L 47.72 26.88 
z
" style="fill: #ffffff"/>
   </g>
   <g id="PolyCollection_1">
    <path d="M 47.72 33.825003 
L 47.72 34.319856 
L 59.167105 35.220464 
L 70.614211 38.352949 
L 82.061316 43.343251 
L 93.508421 50.089929 
L 104.955526 56.585752 
L 116.402632 63.905067 
L 127.849737 71.278119 
L 139.296842 79.853081 
L 150.743947 87.15588 
L 162.191053 95.730291 
L 173.638158 102.65766 
L 185.085263 110.515135 
L 196.532368 117.495805 
L 207.979474 123.937777 
L 219.426579 130.550562 
L 230.873684 136.543438 
L 242.320789 141.242994 
L 253.767895 146.856939 
L 265.215 150.990808 
L 265.215 139.7003 
L 265.215 139.7003 
L 253.767895 135.235281 
L 242.320789 130.393195 
L 230.873684 124.634623 
L 219.426579 119.240886 
L 207.979474 113.366221 
L 196.532368 106.417665 
L 185.085263 100.048476 
L 173.638158 92.776078 
L 162.191053 85.469761 
L 150.743947 78.266447 
L 139.296842 70.777642 
L 127.849737 63.436102 
L 116.402632 56.989273 
L 104.955526 50.921108 
L 93.508421 44.782911 
L 82.061316 40.581269 
L 70.614211 37.073907 
L 59.167105 34.815848 
L 47.72 33.825003 
z
" clip-path="url(#pd72082e2c2)" style="fill: #1f77b4; fill-opacity: 0.4"/>
   </g>
   <g id="PolyCollection_2">
    <path d="M 47.72 33.846791 
L 47.72 34.334371 
L 59.167105 34.877126 
L 70.614211 36.55163 
L 82.061316 39.313216 
L 93.508421 43.537201 
L 104.955526 47.819855 
L 116.402632 53.196278 
L 127.849737 59.22288 
L 139.296842 65.985794 
L 150.743947 71.94617 
L 162.191053 78.864773 
L 173.638158 84.610763 
L 185.085263 91.565714 
L 196.532368 97.779483 
L 207.979474 103.997579 
L 219.426579 110.57126 
L 230.873684 116.21171 
L 242.320789 121.423293 
L 253.767895 127.140548 
L 265.215 131.533973 
L 265.215 123.057949 
L 265.215 123.057949 
L 253.767895 118.197459 
L 242.320789 113.317589 
L 230.873684 107.459866 
L 219.426579 101.672145 
L 207.979474 95.794188 
L 196.532368 89.239681 
L 185.085263 83.198287 
L 173.638158 76.645977 
L 162.191053 70.197351 
L 150.743947 64.121104 
L 139.296842 58.247654 
L 127.849737 52.576266 
L 116.402632 48.187362 
L 104.955526 44.394487 
L 93.508421 40.292251 
L 82.061316 37.856109 
L 70.614211 35.710955 
L 59.167105 34.459898 
L 47.72 33.846791 
z
" clip-path="url(#pd72082e2c2)" style="fill: #ff7f0e; fill-opacity: 0.4"/>
   </g>
   <g id="PolyCollection_3">
    <path d="M 47.72 33.83503 
L 47.72 34.335697 
L 59.167105 35.033331 
L 70.614211 36.505396 
L 82.061316 39.027853 
L 93.508421 42.297193 
L 104.955526 44.968043 
L 116.402632 48.113513 
L 127.849737 51.478662 
L 139.296842 55.476573 
L 150.743947 58.901289 
L 162.191053 62.902011 
L 173.638158 66.505317 
L 185.085263 70.964925 
L 196.532368 74.693676 
L 207.979474 78.24746 
L 219.426579 82.592659 
L 230.873684 86.047384 
L 242.320789 89.800706 
L 253.767895 94.346412 
L 265.215 97.652174 
L 265.215 89.609221 
L 265.215 89.609221 
L 253.767895 86.727921 
L 242.320789 83.466909 
L 230.873684 79.918562 
L 219.426579 76.633884 
L 207.979474 72.932465 
L 196.532368 68.977255 
L 185.085263 65.06368 
L 173.638158 61.810853 
L 162.191053 57.952942 
L 150.743947 54.210759 
L 139.296842 50.762335 
L 127.849737 46.960256 
L 116.402632 44.138057 
L 104.955526 41.728243 
L 93.508421 38.733169 
L 82.061316 37.080747 
L 70.614211 35.527506 
L 59.167105 34.560875 
L 47.72 33.83503 
z
" clip-path="url(#pd72082e2c2)" style="fill: #2ca02c; fill-opacity: 0.4"/>
   </g>
   <g id="PolyCollection_4">
    <path d="M 47.72 33.853047 
L 47.72 34.343838 
L 59.167105 34.864215 
L 70.614211 35.956638 
L 82.061316 37.769325 
L 93.508421 40.385925 
L 104.955526 42.696963 
L 116.402632 45.618618 
L 127.849737 49.074751 
L 139.296842 53.197947 
L 150.743947 56.717379 
L 162.191053 60.857789 
L 173.638158 64.62273 
L 185.085263 69.169716 
L 196.532368 73.120863 
L 207.979474 76.827444 
L 219.426579 81.473151 
L 230.873684 85.060416 
L 242.320789 88.947591 
L 253.767895 93.583732 
L 265.215 96.948073 
L 265.215 87.399407 
L 265.215 87.399407 
L 253.767895 84.365248 
L 242.320789 80.900269 
L 230.873684 77.19139 
L 219.426579 73.970475 
L 207.979474 70.411433 
L 196.532368 66.428343 
L 185.085263 62.603743 
L 173.638158 59.184276 
L 162.191053 55.291957 
L 150.743947 51.627427 
L 139.296842 48.208812 
L 127.849737 44.730319 
L 116.402632 42.234886 
L 104.955526 40.264963 
L 93.508421 37.737212 
L 82.061316 36.444329 
L 70.614211 35.161692 
L 59.167105 34.414888 
L 47.72 33.853047 
z
" clip-path="url(#pd72082e2c2)" style="fill: #d62728; fill-opacity: 0.4"/>
   </g>
   <g id="PolyCollection_5">
    <path d="M 47.72 33.83629 
L 47.72 34.324543 
L 59.167105 35.243372 
L 70.614211 38.389355 
L 82.061316 43.391733 
L 93.508421 50.107194 
L 104.955526 56.565978 
L 116.402632 64.017549 
L 127.849737 71.203415 
L 139.296842 79.990952 
L 150.743947 87.086893 
L 162.191053 95.995333 
L 173.638158 102.992897 
L 185.085263 110.739146 
L 196.532368 117.833564 
L 207.979474 125.01643 
L 219.426579 130.13923 
L 230.873684 136.622296 
L 242.320789 141.327852 
L 253.767895 147.64989 
L 265.215 150.949599 
L 265.215 139.798816 
L 265.215 139.798816 
L 253.767895 135.714715 
L 242.320789 130.538144 
L 230.873684 124.383161 
L 219.426579 119.662013 
L 207.979474 113.087115 
L 196.532368 106.419896 
L 185.085263 100.553692 
L 173.638158 92.834034 
L 162.191053 85.946952 
L 150.743947 78.387903 
L 139.296842 70.99753 
L 127.849737 63.47797 
L 116.402632 56.948298 
L 104.955526 50.936306 
L 93.508421 44.801729 
L 82.061316 40.609569 
L 70.614211 37.096989 
L 59.167105 34.842017 
L 47.72 33.83629 
z
" clip-path="url(#pd72082e2c2)" style="fill: #9467bd; fill-opacity: 0.4"/>
   </g>
   <g id="PolyCollection_6">
    <path d="M 47.72 33.858483 
L 47.72 34.340458 
L 59.167105 34.902903 
L 70.614211 36.563734 
L 82.061316 39.37112 
L 93.508421 43.557514 
L 104.955526 47.834178 
L 116.402632 53.260569 
L 127.849737 59.218884 
L 139.296842 66.099533 
L 150.743947 71.912789 
L 162.191053 78.984175 
L 173.638158 84.744251 
L 185.085263 91.892838 
L 196.532368 98.095324 
L 207.979474 104.579421 
L 219.426579 110.219376 
L 230.873684 116.311515 
L 242.320789 121.230425 
L 253.767895 127.767992 
L 265.215 131.774602 
L 265.215 123.092044 
L 265.215 123.092044 
L 253.767895 118.450019 
L 242.320789 113.366431 
L 230.873684 107.311327 
L 219.426579 101.953993 
L 207.979474 95.576058 
L 196.532368 89.340229 
L 185.085263 83.583315 
L 173.638158 76.772274 
L 162.191053 70.395312 
L 150.743947 64.185461 
L 139.296842 58.399465 
L 127.849737 52.634833 
L 116.402632 48.233403 
L 104.955526 44.43586 
L 93.508421 40.28782 
L 82.061316 37.860402 
L 70.614211 35.745273 
L 59.167105 34.482063 
L 47.72 33.858483 
z
" clip-path="url(#pd72082e2c2)" style="fill: #8c564b; fill-opacity: 0.4"/>
   </g>
   <g id="PolyCollection_7">
    <path d="M 47.72 46.153808 
L 47.72 51.200066 
L 59.167105 52.741283 
L 70.614211 56.716175 
L 82.061316 63.587569 
L 93.508421 72.070631 
L 104.955526 79.714341 
L 116.402632 87.973719 
L 127.849737 95.607098 
L 139.296842 104.417838 
L 150.743947 111.624337 
L 162.191053 119.766274 
L 173.638158 126.833328 
L 185.085263 133.968666 
L 196.532368 140.493649 
L 207.979474 145.972151 
L 219.426579 151.623621 
L 230.873684 156.358035 
L 242.320789 160.323735 
L 253.767895 164.740615 
L 265.215 167.350909 
L 265.215 153.115702 
L 265.215 153.115702 
L 253.767895 149.480554 
L 242.320789 145.056707 
L 230.873684 140.199676 
L 219.426579 134.918036 
L 207.979474 129.305602 
L 196.532368 122.372522 
L 185.085263 115.801333 
L 173.638158 108.314554 
L 162.191053 101.076874 
L 150.743947 93.08517 
L 139.296842 85.677005 
L 127.849737 77.251589 
L 116.402632 70.521403 
L 104.955526 64.036548 
L 93.508421 57.567944 
L 82.061316 52.779079 
L 70.614211 49.392584 
L 59.167105 47.094536 
L 47.72 46.153808 
z
" clip-path="url(#pd72082e2c2)" style="fill: #e377c2; fill-opacity: 0.4"/>
   </g>
   <g id="PolyCollection_8">
    <path d="M 47.72 33.850714 
L 47.72 34.353559 
L 59.167105 34.574561 
L 70.614211 34.900845 
L 82.061316 35.812558 
L 93.508421 37.874911 
L 104.955526 40.654238 
L 116.402632 44.786811 
L 127.849737 49.596985 
L 139.296842 54.998608 
L 150.743947 60.339482 
L 162.191053 65.751125 
L 173.638158 71.313909 
L 185.085263 77.566014 
L 196.532368 83.52763 
L 207.979474 90.091297 
L 219.426579 96.891894 
L 230.873684 102.563792 
L 242.320789 108.338049 
L 253.767895 114.291148 
L 265.215 119.13658 
L 265.215 110.015789 
L 265.215 110.015789 
L 253.767895 104.138283 
L 242.320789 97.844287 
L 230.873684 91.163354 
L 219.426579 84.430357 
L 207.979474 77.972143 
L 196.532368 71.138636 
L 185.085263 65.134842 
L 173.638158 58.867775 
L 162.191053 53.17164 
L 150.743947 47.946961 
L 139.296842 43.456831 
L 127.849737 39.853332 
L 116.402632 37.414749 
L 104.955526 36.141697 
L 93.508421 34.743226 
L 82.061316 34.49108 
L 70.614211 34.039197 
L 59.167105 34.069594 
L 47.72 33.850714 
z
" clip-path="url(#pd72082e2c2)" style="fill: #7f7f7f; fill-opacity: 0.4"/>
   </g>
   <g id="matplotlib.axis_1">
    <g id="xtick_1">
     <g id="line2d_1">
      <defs>
       <path id="mb619435624" d="M 0 0 
L 0 3.5 
" style="stroke: #000000; stroke-width: 0.8"/>
      </defs>
      <g>
       <use xlink:href="#mb619435624" x="47.72" y="174.04" style="stroke: #000000; stroke-width: 0.8"/>
      </g>
     </g>
     <g id="text_1">
      <!-- 0.0 -->
      <g transform="translate(39.768438 188.638438)scale(0.1 -0.1)">
       <defs>
        <path id="DejaVuSans-30" d="M 2034 4250 
Q 1547 4250 1301 3770 
Q 1056 3291 1056 2328 
Q 1056 1369 1301 889 
Q 1547 409 2034 409 
Q 2525 409 2770 889 
Q 3016 1369 3016 2328 
Q 3016 3291 2770 3770 
Q 2525 4250 2034 4250 
z
M 2034 4750 
Q 2819 4750 3233 4129 
Q 3647 3509 3647 2328 
Q 3647 1150 3233 529 
Q 2819 -91 2034 -91 
Q 1250 -91 836 529 
Q 422 1150 422 2328 
Q 422 3509 836 4129 
Q 1250 4750 2034 4750 
z
" transform="scale(0.015625)"/>
        <path id="DejaVuSans-2e" d="M 684 794 
L 1344 794 
L 1344 0 
L 684 0 
L 684 794 
z
" transform="scale(0.015625)"/>
       </defs>
       <use xlink:href="#DejaVuSans-30"/>
       <use xlink:href="#DejaVuSans-2e" x="63.623047"/>
       <use xlink:href="#DejaVuSans-30" x="95.410156"/>
      </g>
     </g>
    </g>
    <g id="xtick_2">
     <g id="line2d_2">
      <g>
       <use xlink:href="#mb619435624" x="102.09375" y="174.04" style="stroke: #000000; stroke-width: 0.8"/>
      </g>
     </g>
     <g id="text_2">
      <!-- 0.5 -->
      <g transform="translate(94.142188 188.638438)scale(0.1 -0.1)">
       <defs>
        <path id="DejaVuSans-35" d="M 691 4666 
L 3169 4666 
L 3169 4134 
L 1269 4134 
L 1269 2991 
Q 1406 3038 1543 3061 
Q 1681 3084 1819 3084 
Q 2600 3084 3056 2656 
Q 3513 2228 3513 1497 
Q 3513 744 3044 326 
Q 2575 -91 1722 -91 
Q 1428 -91 1123 -41 
Q 819 9 494 109 
L 494 744 
Q 775 591 1075 516 
Q 1375 441 1709 441 
Q 2250 441 2565 725 
Q 2881 1009 2881 1497 
Q 2881 1984 2565 2268 
Q 2250 2553 1709 2553 
Q 1456 2553 1204 2497 
Q 953 2441 691 2322 
L 691 4666 
z
" transform="scale(0.015625)"/>
       </defs>
       <use xlink:href="#DejaVuSans-30"/>
       <use xlink:href="#DejaVuSans-2e" x="63.623047"/>
       <use xlink:href="#DejaVuSans-35" x="95.410156"/>
      </g>
     </g>
    </g>
    <g id="xtick_3">
     <g id="line2d_3">
      <g>
       <use xlink:href="#mb619435624" x="156.4675" y="174.04" style="stroke: #000000; stroke-width: 0.8"/>
      </g>
     </g>
     <g id="text_3">
      <!-- 1.0 -->
      <g transform="translate(148.515938 188.638438)scale(0.1 -0.1)">
       <defs>
        <path id="DejaVuSans-31" d="M 794 531 
L 1825 531 
L 1825 4091 
L 703 3866 
L 703 4441 
L 1819 4666 
L 2450 4666 
L 2450 531 
L 3481 531 
L 3481 0 
L 794 0 
L 794 531 
z
" transform="scale(0.015625)"/>
       </defs>
       <use xlink:href="#DejaVuSans-31"/>
       <use xlink:href="#DejaVuSans-2e" x="63.623047"/>
       <use xlink:href="#DejaVuSans-30" x="95.410156"/>
      </g>
     </g>
    </g>
    <g id="xtick_4">
     <g id="line2d_4">
      <g>
       <use xlink:href="#mb619435624" x="210.84125" y="174.04" style="stroke: #000000; stroke-width: 0.8"/>
      </g>
     </g>
     <g id="text_4">
      <!-- 1.5 -->
      <g transform="translate(202.889687 188.638438)scale(0.1 -0.1)">
       <use xlink:href="#DejaVuSans-31"/>
       <use xlink:href="#DejaVuSans-2e" x="63.623047"/>
       <use xlink:href="#DejaVuSans-35" x="95.410156"/>
      </g>
     </g>
    </g>
    <g id="xtick_5">
     <g id="line2d_5">
      <g>
       <use xlink:href="#mb619435624" x="265.215" y="174.04" style="stroke: #000000; stroke-width: 0.8"/>
      </g>
     </g>
     <g id="text_5">
      <!-- 2.0 -->
      <g transform="translate(257.263437 188.638438)scale(0.1 -0.1)">
       <defs>
        <path id="DejaVuSans-32" d="M 1228 531 
L 3431 531 
L 3431 0 
L 469 0 
L 469 531 
Q 828 903 1448 1529 
Q 2069 2156 2228 2338 
Q 2531 2678 2651 2914 
Q 2772 3150 2772 3378 
Q 2772 3750 2511 3984 
Q 2250 4219 1831 4219 
Q 1534 4219 1204 4116 
Q 875 4013 500 3803 
L 500 4441 
Q 881 4594 1212 4672 
Q 1544 4750 1819 4750 
Q 2544 4750 2975 4387 
Q 3406 4025 3406 3419 
Q 3406 3131 3298 2873 
Q 3191 2616 2906 2266 
Q 2828 2175 2409 1742 
Q 1991 1309 1228 531 
z
" transform="scale(0.015625)"/>
       </defs>
       <use xlink:href="#DejaVuSans-32"/>
       <use xlink:href="#DejaVuSans-2e" x="63.623047"/>
       <use xlink:href="#DejaVuSans-30" x="95.410156"/>
      </g>
     </g>
    </g>
    <g id="text_6">
     <!-- Influence of surprisal (multiplication) -->
     <g transform="translate(64.320625 202.316563)scale(0.1 -0.1)">
      <defs>
       <path id="DejaVuSans-49" d="M 628 4666 
L 1259 4666 
L 1259 0 
L 628 0 
L 628 4666 
z
" transform="scale(0.015625)"/>
       <path id="DejaVuSans-6e" d="M 3513 2113 
L 3513 0 
L 2938 0 
L 2938 2094 
Q 2938 2591 2744 2837 
Q 2550 3084 2163 3084 
Q 1697 3084 1428 2787 
Q 1159 2491 1159 1978 
L 1159 0 
L 581 0 
L 581 3500 
L 1159 3500 
L 1159 2956 
Q 1366 3272 1645 3428 
Q 1925 3584 2291 3584 
Q 2894 3584 3203 3211 
Q 3513 2838 3513 2113 
z
" transform="scale(0.015625)"/>
       <path id="DejaVuSans-66" d="M 2375 4863 
L 2375 4384 
L 1825 4384 
Q 1516 4384 1395 4259 
Q 1275 4134 1275 3809 
L 1275 3500 
L 2222 3500 
L 2222 3053 
L 1275 3053 
L 1275 0 
L 697 0 
L 697 3053 
L 147 3053 
L 147 3500 
L 697 3500 
L 697 3744 
Q 697 4328 969 4595 
Q 1241 4863 1831 4863 
L 2375 4863 
z
" transform="scale(0.015625)"/>
       <path id="DejaVuSans-6c" d="M 603 4863 
L 1178 4863 
L 1178 0 
L 603 0 
L 603 4863 
z
" transform="scale(0.015625)"/>
       <path id="DejaVuSans-75" d="M 544 1381 
L 544 3500 
L 1119 3500 
L 1119 1403 
Q 1119 906 1312 657 
Q 1506 409 1894 409 
Q 2359 409 2629 706 
Q 2900 1003 2900 1516 
L 2900 3500 
L 3475 3500 
L 3475 0 
L 2900 0 
L 2900 538 
Q 2691 219 2414 64 
Q 2138 -91 1772 -91 
Q 1169 -91 856 284 
Q 544 659 544 1381 
z
M 1991 3584 
L 1991 3584 
z
" transform="scale(0.015625)"/>
       <path id="DejaVuSans-65" d="M 3597 1894 
L 3597 1613 
L 953 1613 
Q 991 1019 1311 708 
Q 1631 397 2203 397 
Q 2534 397 2845 478 
Q 3156 559 3463 722 
L 3463 178 
Q 3153 47 2828 -22 
Q 2503 -91 2169 -91 
Q 1331 -91 842 396 
Q 353 884 353 1716 
Q 353 2575 817 3079 
Q 1281 3584 2069 3584 
Q 2775 3584 3186 3129 
Q 3597 2675 3597 1894 
z
M 3022 2063 
Q 3016 2534 2758 2815 
Q 2500 3097 2075 3097 
Q 1594 3097 1305 2825 
Q 1016 2553 972 2059 
L 3022 2063 
z
" transform="scale(0.015625)"/>
       <path id="DejaVuSans-63" d="M 3122 3366 
L 3122 2828 
Q 2878 2963 2633 3030 
Q 2388 3097 2138 3097 
Q 1578 3097 1268 2742 
Q 959 2388 959 1747 
Q 959 1106 1268 751 
Q 1578 397 2138 397 
Q 2388 397 2633 464 
Q 2878 531 3122 666 
L 3122 134 
Q 2881 22 2623 -34 
Q 2366 -91 2075 -91 
Q 1284 -91 818 406 
Q 353 903 353 1747 
Q 353 2603 823 3093 
Q 1294 3584 2113 3584 
Q 2378 3584 2631 3529 
Q 2884 3475 3122 3366 
z
" transform="scale(0.015625)"/>
       <path id="DejaVuSans-20" transform="scale(0.015625)"/>
       <path id="DejaVuSans-6f" d="M 1959 3097 
Q 1497 3097 1228 2736 
Q 959 2375 959 1747 
Q 959 1119 1226 758 
Q 1494 397 1959 397 
Q 2419 397 2687 759 
Q 2956 1122 2956 1747 
Q 2956 2369 2687 2733 
Q 2419 3097 1959 3097 
z
M 1959 3584 
Q 2709 3584 3137 3096 
Q 3566 2609 3566 1747 
Q 3566 888 3137 398 
Q 2709 -91 1959 -91 
Q 1206 -91 779 398 
Q 353 888 353 1747 
Q 353 2609 779 3096 
Q 1206 3584 1959 3584 
z
" transform="scale(0.015625)"/>
       <path id="DejaVuSans-73" d="M 2834 3397 
L 2834 2853 
Q 2591 2978 2328 3040 
Q 2066 3103 1784 3103 
Q 1356 3103 1142 2972 
Q 928 2841 928 2578 
Q 928 2378 1081 2264 
Q 1234 2150 1697 2047 
L 1894 2003 
Q 2506 1872 2764 1633 
Q 3022 1394 3022 966 
Q 3022 478 2636 193 
Q 2250 -91 1575 -91 
Q 1294 -91 989 -36 
Q 684 19 347 128 
L 347 722 
Q 666 556 975 473 
Q 1284 391 1588 391 
Q 1994 391 2212 530 
Q 2431 669 2431 922 
Q 2431 1156 2273 1281 
Q 2116 1406 1581 1522 
L 1381 1569 
Q 847 1681 609 1914 
Q 372 2147 372 2553 
Q 372 3047 722 3315 
Q 1072 3584 1716 3584 
Q 2034 3584 2315 3537 
Q 2597 3491 2834 3397 
z
" transform="scale(0.015625)"/>
       <path id="DejaVuSans-72" d="M 2631 2963 
Q 2534 3019 2420 3045 
Q 2306 3072 2169 3072 
Q 1681 3072 1420 2755 
Q 1159 2438 1159 1844 
L 1159 0 
L 581 0 
L 581 3500 
L 1159 3500 
L 1159 2956 
Q 1341 3275 1631 3429 
Q 1922 3584 2338 3584 
Q 2397 3584 2469 3576 
Q 2541 3569 2628 3553 
L 2631 2963 
z
" transform="scale(0.015625)"/>
       <path id="DejaVuSans-70" d="M 1159 525 
L 1159 -1331 
L 581 -1331 
L 581 3500 
L 1159 3500 
L 1159 2969 
Q 1341 3281 1617 3432 
Q 1894 3584 2278 3584 
Q 2916 3584 3314 3078 
Q 3713 2572 3713 1747 
Q 3713 922 3314 415 
Q 2916 -91 2278 -91 
Q 1894 -91 1617 61 
Q 1341 213 1159 525 
z
M 3116 1747 
Q 3116 2381 2855 2742 
Q 2594 3103 2138 3103 
Q 1681 3103 1420 2742 
Q 1159 2381 1159 1747 
Q 1159 1113 1420 752 
Q 1681 391 2138 391 
Q 2594 391 2855 752 
Q 3116 1113 3116 1747 
z
" transform="scale(0.015625)"/>
       <path id="DejaVuSans-69" d="M 603 3500 
L 1178 3500 
L 1178 0 
L 603 0 
L 603 3500 
z
M 603 4863 
L 1178 4863 
L 1178 4134 
L 603 4134 
L 603 4863 
z
" transform="scale(0.015625)"/>
       <path id="DejaVuSans-61" d="M 2194 1759 
Q 1497 1759 1228 1600 
Q 959 1441 959 1056 
Q 959 750 1161 570 
Q 1363 391 1709 391 
Q 2188 391 2477 730 
Q 2766 1069 2766 1631 
L 2766 1759 
L 2194 1759 
z
M 3341 1997 
L 3341 0 
L 2766 0 
L 2766 531 
Q 2569 213 2275 61 
Q 1981 -91 1556 -91 
Q 1019 -91 701 211 
Q 384 513 384 1019 
Q 384 1609 779 1909 
Q 1175 2209 1959 2209 
L 2766 2209 
L 2766 2266 
Q 2766 2663 2505 2880 
Q 2244 3097 1772 3097 
Q 1472 3097 1187 3025 
Q 903 2953 641 2809 
L 641 3341 
Q 956 3463 1253 3523 
Q 1550 3584 1831 3584 
Q 2591 3584 2966 3190 
Q 3341 2797 3341 1997 
z
" transform="scale(0.015625)"/>
       <path id="DejaVuSans-28" d="M 1984 4856 
Q 1566 4138 1362 3434 
Q 1159 2731 1159 2009 
Q 1159 1288 1364 580 
Q 1569 -128 1984 -844 
L 1484 -844 
Q 1016 -109 783 600 
Q 550 1309 550 2009 
Q 550 2706 781 3412 
Q 1013 4119 1484 4856 
L 1984 4856 
z
" transform="scale(0.015625)"/>
       <path id="DejaVuSans-6d" d="M 3328 2828 
Q 3544 3216 3844 3400 
Q 4144 3584 4550 3584 
Q 5097 3584 5394 3201 
Q 5691 2819 5691 2113 
L 5691 0 
L 5113 0 
L 5113 2094 
Q 5113 2597 4934 2840 
Q 4756 3084 4391 3084 
Q 3944 3084 3684 2787 
Q 3425 2491 3425 1978 
L 3425 0 
L 2847 0 
L 2847 2094 
Q 2847 2600 2669 2842 
Q 2491 3084 2119 3084 
Q 1678 3084 1418 2786 
Q 1159 2488 1159 1978 
L 1159 0 
L 581 0 
L 581 3500 
L 1159 3500 
L 1159 2956 
Q 1356 3278 1631 3431 
Q 1906 3584 2284 3584 
Q 2666 3584 2933 3390 
Q 3200 3197 3328 2828 
z
" transform="scale(0.015625)"/>
       <path id="DejaVuSans-74" d="M 1172 4494 
L 1172 3500 
L 2356 3500 
L 2356 3053 
L 1172 3053 
L 1172 1153 
Q 1172 725 1289 603 
Q 1406 481 1766 481 
L 2356 481 
L 2356 0 
L 1766 0 
Q 1100 0 847 248 
Q 594 497 594 1153 
L 594 3053 
L 172 3053 
L 172 3500 
L 594 3500 
L 594 4494 
L 1172 4494 
z
" transform="scale(0.015625)"/>
       <path id="DejaVuSans-29" d="M 513 4856 
L 1013 4856 
Q 1481 4119 1714 3412 
Q 1947 2706 1947 2009 
Q 1947 1309 1714 600 
Q 1481 -109 1013 -844 
L 513 -844 
Q 928 -128 1133 580 
Q 1338 1288 1338 2009 
Q 1338 2731 1133 3434 
Q 928 4138 513 4856 
z
" transform="scale(0.015625)"/>
      </defs>
      <use xlink:href="#DejaVuSans-49"/>
      <use xlink:href="#DejaVuSans-6e" x="29.492188"/>
      <use xlink:href="#DejaVuSans-66" x="92.871094"/>
      <use xlink:href="#DejaVuSans-6c" x="128.076172"/>
      <use xlink:href="#DejaVuSans-75" x="155.859375"/>
      <use xlink:href="#DejaVuSans-65" x="219.238281"/>
      <use xlink:href="#DejaVuSans-6e" x="280.761719"/>
      <use xlink:href="#DejaVuSans-63" x="344.140625"/>
      <use xlink:href="#DejaVuSans-65" x="399.121094"/>
      <use xlink:href="#DejaVuSans-20" x="460.644531"/>
      <use xlink:href="#DejaVuSans-6f" x="492.431641"/>
      <use xlink:href="#DejaVuSans-66" x="553.613281"/>
      <use xlink:href="#DejaVuSans-20" x="588.818359"/>
      <use xlink:href="#DejaVuSans-73" x="620.605469"/>
      <use xlink:href="#DejaVuSans-75" x="672.705078"/>
      <use xlink:href="#DejaVuSans-72" x="736.083984"/>
      <use xlink:href="#DejaVuSans-70" x="777.197266"/>
      <use xlink:href="#DejaVuSans-72" x="840.673828"/>
      <use xlink:href="#DejaVuSans-69" x="881.787109"/>
      <use xlink:href="#DejaVuSans-73" x="909.570312"/>
      <use xlink:href="#DejaVuSans-61" x="961.669922"/>
      <use xlink:href="#DejaVuSans-6c" x="1022.949219"/>
      <use xlink:href="#DejaVuSans-20" x="1050.732422"/>
      <use xlink:href="#DejaVuSans-28" x="1082.519531"/>
      <use xlink:href="#DejaVuSans-6d" x="1121.533203"/>
      <use xlink:href="#DejaVuSans-75" x="1218.945312"/>
      <use xlink:href="#DejaVuSans-6c" x="1282.324219"/>
      <use xlink:href="#DejaVuSans-74" x="1310.107422"/>
      <use xlink:href="#DejaVuSans-69" x="1349.316406"/>
      <use xlink:href="#DejaVuSans-70" x="1377.099609"/>
      <use xlink:href="#DejaVuSans-6c" x="1440.576172"/>
      <use xlink:href="#DejaVuSans-69" x="1468.359375"/>
      <use xlink:href="#DejaVuSans-63" x="1496.142578"/>
      <use xlink:href="#DejaVuSans-61" x="1551.123047"/>
      <use xlink:href="#DejaVuSans-74" x="1612.402344"/>
      <use xlink:href="#DejaVuSans-69" x="1651.611328"/>
      <use xlink:href="#DejaVuSans-6f" x="1679.394531"/>
      <use xlink:href="#DejaVuSans-6e" x="1740.576172"/>
      <use xlink:href="#DejaVuSans-29" x="1803.955078"/>
     </g>
    </g>
   </g>
   <g id="matplotlib.axis_2">
    <g id="ytick_1">
     <g id="line2d_6">
      <defs>
       <path id="m89711c3849" d="M 0 0 
L -3.5 0 
" style="stroke: #000000; stroke-width: 0.8"/>
      </defs>
      <g>
       <use xlink:href="#m89711c3849" x="47.72" y="137.403494" style="stroke: #000000; stroke-width: 0.8"/>
      </g>
     </g>
     <g id="text_7">
      <!-- 0.4 -->
      <g transform="translate(24.816875 141.202713)scale(0.1 -0.1)">
       <defs>
        <path id="DejaVuSans-34" d="M 2419 4116 
L 825 1625 
L 2419 1625 
L 2419 4116 
z
M 2253 4666 
L 3047 4666 
L 3047 1625 
L 3713 1625 
L 3713 1100 
L 3047 1100 
L 3047 0 
L 2419 0 
L 2419 1100 
L 313 1100 
L 313 1709 
L 2253 4666 
z
" transform="scale(0.015625)"/>
       </defs>
       <use xlink:href="#DejaVuSans-30"/>
       <use xlink:href="#DejaVuSans-2e" x="63.623047"/>
       <use xlink:href="#DejaVuSans-34" x="95.410156"/>
      </g>
     </g>
    </g>
    <g id="ytick_2">
     <g id="line2d_7">
      <g>
       <use xlink:href="#m89711c3849" x="47.72" y="99.525024" style="stroke: #000000; stroke-width: 0.8"/>
      </g>
     </g>
     <g id="text_8">
      <!-- 0.6 -->
      <g transform="translate(24.816875 103.324243)scale(0.1 -0.1)">
       <defs>
        <path id="DejaVuSans-36" d="M 2113 2584 
Q 1688 2584 1439 2293 
Q 1191 2003 1191 1497 
Q 1191 994 1439 701 
Q 1688 409 2113 409 
Q 2538 409 2786 701 
Q 3034 994 3034 1497 
Q 3034 2003 2786 2293 
Q 2538 2584 2113 2584 
z
M 3366 4563 
L 3366 3988 
Q 3128 4100 2886 4159 
Q 2644 4219 2406 4219 
Q 1781 4219 1451 3797 
Q 1122 3375 1075 2522 
Q 1259 2794 1537 2939 
Q 1816 3084 2150 3084 
Q 2853 3084 3261 2657 
Q 3669 2231 3669 1497 
Q 3669 778 3244 343 
Q 2819 -91 2113 -91 
Q 1303 -91 875 529 
Q 447 1150 447 2328 
Q 447 3434 972 4092 
Q 1497 4750 2381 4750 
Q 2619 4750 2861 4703 
Q 3103 4656 3366 4563 
z
" transform="scale(0.015625)"/>
       </defs>
       <use xlink:href="#DejaVuSans-30"/>
       <use xlink:href="#DejaVuSans-2e" x="63.623047"/>
       <use xlink:href="#DejaVuSans-36" x="95.410156"/>
      </g>
     </g>
    </g>
    <g id="ytick_3">
     <g id="line2d_8">
      <g>
       <use xlink:href="#m89711c3849" x="47.72" y="61.646555" style="stroke: #000000; stroke-width: 0.8"/>
      </g>
     </g>
     <g id="text_9">
      <!-- 0.8 -->
      <g transform="translate(24.816875 65.445774)scale(0.1 -0.1)">
       <defs>
        <path id="DejaVuSans-38" d="M 2034 2216 
Q 1584 2216 1326 1975 
Q 1069 1734 1069 1313 
Q 1069 891 1326 650 
Q 1584 409 2034 409 
Q 2484 409 2743 651 
Q 3003 894 3003 1313 
Q 3003 1734 2745 1975 
Q 2488 2216 2034 2216 
z
M 1403 2484 
Q 997 2584 770 2862 
Q 544 3141 544 3541 
Q 544 4100 942 4425 
Q 1341 4750 2034 4750 
Q 2731 4750 3128 4425 
Q 3525 4100 3525 3541 
Q 3525 3141 3298 2862 
Q 3072 2584 2669 2484 
Q 3125 2378 3379 2068 
Q 3634 1759 3634 1313 
Q 3634 634 3220 271 
Q 2806 -91 2034 -91 
Q 1263 -91 848 271 
Q 434 634 434 1313 
Q 434 1759 690 2068 
Q 947 2378 1403 2484 
z
M 1172 3481 
Q 1172 3119 1398 2916 
Q 1625 2713 2034 2713 
Q 2441 2713 2670 2916 
Q 2900 3119 2900 3481 
Q 2900 3844 2670 4047 
Q 2441 4250 2034 4250 
Q 1625 4250 1398 4047 
Q 1172 3844 1172 3481 
z
" transform="scale(0.015625)"/>
       </defs>
       <use xlink:href="#DejaVuSans-30"/>
       <use xlink:href="#DejaVuSans-2e" x="63.623047"/>
       <use xlink:href="#DejaVuSans-38" x="95.410156"/>
      </g>
     </g>
    </g>
    <g id="text_10">
     <!-- R-value -->
     <g transform="translate(18.737188 119.064687)rotate(-90)scale(0.1 -0.1)">
      <defs>
       <path id="DejaVuSans-52" d="M 2841 2188 
Q 3044 2119 3236 1894 
Q 3428 1669 3622 1275 
L 4263 0 
L 3584 0 
L 2988 1197 
Q 2756 1666 2539 1819 
Q 2322 1972 1947 1972 
L 1259 1972 
L 1259 0 
L 628 0 
L 628 4666 
L 2053 4666 
Q 2853 4666 3247 4331 
Q 3641 3997 3641 3322 
Q 3641 2881 3436 2590 
Q 3231 2300 2841 2188 
z
M 1259 4147 
L 1259 2491 
L 2053 2491 
Q 2509 2491 2742 2702 
Q 2975 2913 2975 3322 
Q 2975 3731 2742 3939 
Q 2509 4147 2053 4147 
L 1259 4147 
z
" transform="scale(0.015625)"/>
       <path id="DejaVuSans-2d" d="M 313 2009 
L 1997 2009 
L 1997 1497 
L 313 1497 
L 313 2009 
z
" transform="scale(0.015625)"/>
       <path id="DejaVuSans-76" d="M 191 3500 
L 800 3500 
L 1894 563 
L 2988 3500 
L 3597 3500 
L 2284 0 
L 1503 0 
L 191 3500 
z
" transform="scale(0.015625)"/>
      </defs>
      <use xlink:href="#DejaVuSans-52"/>
      <use xlink:href="#DejaVuSans-2d" x="65.482422"/>
      <use xlink:href="#DejaVuSans-76" x="98.941406"/>
      <use xlink:href="#DejaVuSans-61" x="158.121094"/>
      <use xlink:href="#DejaVuSans-6c" x="219.400391"/>
      <use xlink:href="#DejaVuSans-75" x="247.183594"/>
      <use xlink:href="#DejaVuSans-65" x="310.5625"/>
     </g>
    </g>
   </g>
   <g id="line2d_9">
    <path d="M 47.72 34.072429 
L 59.167105 35.018156 
L 70.614211 37.713428 
L 82.061316 41.96226 
L 93.508421 47.43642 
L 104.955526 53.75343 
L 116.402632 60.44717 
L 127.849737 67.35711 
L 139.296842 75.315361 
L 150.743947 82.711163 
L 162.191053 90.600026 
L 173.638158 97.716869 
L 185.085263 105.281806 
L 196.532368 111.956735 
L 207.979474 118.651999 
L 219.426579 124.895724 
L 230.873684 130.589031 
L 242.320789 135.818095 
L 253.767895 141.04611 
L 265.215 145.345554 
" clip-path="url(#pd72082e2c2)" style="fill: none; stroke: #1f77b4; stroke-width: 1.5; stroke-linecap: square"/>
   </g>
   <g id="line2d_10">
    <path d="M 47.72 34.090581 
L 59.167105 34.668512 
L 70.614211 36.131293 
L 82.061316 38.584662 
L 93.508421 41.914726 
L 104.955526 46.107171 
L 116.402632 50.69182 
L 127.849737 55.899573 
L 139.296842 62.116724 
L 150.743947 68.033637 
L 162.191053 74.531062 
L 173.638158 80.62837 
L 185.085263 87.382001 
L 196.532368 93.509582 
L 207.979474 99.895883 
L 219.426579 106.121702 
L 230.873684 111.835788 
L 242.320789 117.370441 
L 253.767895 122.669004 
L 265.215 127.295961 
" clip-path="url(#pd72082e2c2)" style="fill: none; stroke: #ff7f0e; stroke-width: 1.5; stroke-linecap: square"/>
   </g>
   <g id="line2d_11">
    <path d="M 47.72 34.085363 
L 59.167105 34.797103 
L 70.614211 36.016451 
L 82.061316 38.0543 
L 93.508421 40.515181 
L 104.955526 43.348143 
L 116.402632 46.125785 
L 127.849737 49.219459 
L 139.296842 53.119454 
L 150.743947 56.556024 
L 162.191053 60.427477 
L 173.638158 64.158085 
L 185.085263 68.014302 
L 196.532368 71.835466 
L 207.979474 75.589963 
L 219.426579 79.613271 
L 230.873684 82.982973 
L 242.320789 86.633808 
L 253.767895 90.537166 
L 265.215 93.630697 
" clip-path="url(#pd72082e2c2)" style="fill: none; stroke: #2ca02c; stroke-width: 1.5; stroke-linecap: square"/>
   </g>
   <g id="line2d_12">
    <path d="M 47.72 34.098443 
L 59.167105 34.639552 
L 70.614211 35.559165 
L 82.061316 37.106827 
L 93.508421 39.061568 
L 104.955526 41.480963 
L 116.402632 43.926752 
L 127.849737 46.902535 
L 139.296842 50.70338 
L 150.743947 54.172403 
L 162.191053 58.074873 
L 173.638158 61.903503 
L 185.085263 65.886729 
L 196.532368 69.774603 
L 207.979474 73.619438 
L 219.426579 77.721813 
L 230.873684 81.125903 
L 242.320789 84.92393 
L 253.767895 88.97449 
L 265.215 92.17374 
" clip-path="url(#pd72082e2c2)" style="fill: none; stroke: #d62728; stroke-width: 1.5; stroke-linecap: square"/>
   </g>
   <g id="line2d_13">
    <path d="M 47.72 34.080417 
L 59.167105 35.042694 
L 70.614211 37.743172 
L 82.061316 42.000651 
L 93.508421 47.454462 
L 104.955526 53.751142 
L 116.402632 60.482923 
L 127.849737 67.340692 
L 139.296842 75.494241 
L 150.743947 82.737398 
L 162.191053 90.971143 
L 173.638158 97.913466 
L 185.085263 105.646419 
L 196.532368 112.12673 
L 207.979474 119.051773 
L 219.426579 124.900622 
L 230.873684 130.502729 
L 242.320789 135.932998 
L 253.767895 141.682302 
L 265.215 145.374208 
" clip-path="url(#pd72082e2c2)" style="fill: none; stroke: #9467bd; stroke-width: 1.5; stroke-linecap: square"/>
   </g>
   <g id="line2d_14">
    <path d="M 47.72 34.099471 
L 59.167105 34.692483 
L 70.614211 36.154504 
L 82.061316 38.615761 
L 93.508421 41.922667 
L 104.955526 46.135019 
L 116.402632 50.746986 
L 127.849737 55.926859 
L 139.296842 62.249499 
L 150.743947 68.049125 
L 162.191053 74.689744 
L 173.638158 80.758262 
L 185.085263 87.738077 
L 196.532368 93.717776 
L 207.979474 100.077739 
L 219.426579 106.086685 
L 230.873684 111.811421 
L 242.320789 117.298428 
L 253.767895 123.109006 
L 265.215 127.433323 
" clip-path="url(#pd72082e2c2)" style="fill: none; stroke: #8c564b; stroke-width: 1.5; stroke-linecap: square"/>
   </g>
   <g id="line2d_15">
    <path d="M 47.72 48.676937 
L 59.167105 49.91791 
L 70.614211 53.054379 
L 82.061316 58.183324 
L 93.508421 64.819287 
L 104.955526 71.875445 
L 116.402632 79.247561 
L 127.849737 86.429344 
L 139.296842 95.047421 
L 150.743947 102.354753 
L 162.191053 110.421574 
L 173.638158 117.573941 
L 185.085263 124.885 
L 196.532368 131.433085 
L 207.979474 137.638877 
L 219.426579 143.270829 
L 230.873684 148.278856 
L 242.320789 152.690221 
L 253.767895 157.110584 
L 265.215 160.233306 
" clip-path="url(#pd72082e2c2)" style="fill: none; stroke: #e377c2; stroke-width: 1.5; stroke-linecap: square"/>
   </g>
   <g id="line2d_16">
    <path d="M 47.72 34.102137 
L 59.167105 34.322077 
L 70.614211 34.470021 
L 82.061316 35.151819 
L 93.508421 36.309068 
L 104.955526 38.397968 
L 116.402632 41.10078 
L 127.849737 44.725158 
L 139.296842 49.227719 
L 150.743947 54.143221 
L 162.191053 59.461383 
L 173.638158 65.090842 
L 185.085263 71.350428 
L 196.532368 77.333133 
L 207.979474 84.03172 
L 219.426579 90.661126 
L 230.873684 96.863573 
L 242.320789 103.091168 
L 253.767895 109.214716 
L 265.215 114.576184 
" clip-path="url(#pd72082e2c2)" style="fill: none; stroke: #7f7f7f; stroke-width: 1.5; stroke-linecap: square"/>
   </g>
   <g id="patch_3">
    <path d="M 47.72 174.04 
L 47.72 26.88 
" style="fill: none; stroke: #000000; stroke-width: 0.8; stroke-linejoin: miter; stroke-linecap: square"/>
   </g>
   <g id="patch_4">
    <path d="M 47.72 174.04 
L 265.215 174.04 
" style="fill: none; stroke: #000000; stroke-width: 0.8; stroke-linejoin: miter; stroke-linecap: square"/>
   </g>
   <g id="text_11">
    <!-- Node * surprisal -->
    <g transform="translate(108.18625 20.88)scale(0.12 -0.12)">
     <defs>
      <path id="DejaVuSans-4e" d="M 628 4666 
L 1478 4666 
L 3547 763 
L 3547 4666 
L 4159 4666 
L 4159 0 
L 3309 0 
L 1241 3903 
L 1241 0 
L 628 0 
L 628 4666 
z
" transform="scale(0.015625)"/>
      <path id="DejaVuSans-64" d="M 2906 2969 
L 2906 4863 
L 3481 4863 
L 3481 0 
L 2906 0 
L 2906 525 
Q 2725 213 2448 61 
Q 2172 -91 1784 -91 
Q 1150 -91 751 415 
Q 353 922 353 1747 
Q 353 2572 751 3078 
Q 1150 3584 1784 3584 
Q 2172 3584 2448 3432 
Q 2725 3281 2906 2969 
z
M 947 1747 
Q 947 1113 1208 752 
Q 1469 391 1925 391 
Q 2381 391 2643 752 
Q 2906 1113 2906 1747 
Q 2906 2381 2643 2742 
Q 2381 3103 1925 3103 
Q 1469 3103 1208 2742 
Q 947 2381 947 1747 
z
" transform="scale(0.015625)"/>
      <path id="DejaVuSans-2a" d="M 3009 3897 
L 1888 3291 
L 3009 2681 
L 2828 2375 
L 1778 3009 
L 1778 1831 
L 1422 1831 
L 1422 3009 
L 372 2375 
L 191 2681 
L 1313 3291 
L 191 3897 
L 372 4206 
L 1422 3572 
L 1422 4750 
L 1778 4750 
L 1778 3572 
L 2828 4206 
L 3009 3897 
z
" transform="scale(0.015625)"/>
     </defs>
     <use xlink:href="#DejaVuSans-4e"/>
     <use xlink:href="#DejaVuSans-6f" x="74.804688"/>
     <use xlink:href="#DejaVuSans-64" x="135.986328"/>
     <use xlink:href="#DejaVuSans-65" x="199.462891"/>
     <use xlink:href="#DejaVuSans-20" x="260.986328"/>
     <use xlink:href="#DejaVuSans-2a" x="292.773438"/>
     <use xlink:href="#DejaVuSans-20" x="342.773438"/>
     <use xlink:href="#DejaVuSans-73" x="374.560547"/>
     <use xlink:href="#DejaVuSans-75" x="426.660156"/>
     <use xlink:href="#DejaVuSans-72" x="490.039062"/>
     <use xlink:href="#DejaVuSans-70" x="531.152344"/>
     <use xlink:href="#DejaVuSans-72" x="594.628906"/>
     <use xlink:href="#DejaVuSans-69" x="635.742188"/>
     <use xlink:href="#DejaVuSans-73" x="663.525391"/>
     <use xlink:href="#DejaVuSans-61" x="715.625"/>
     <use xlink:href="#DejaVuSans-6c" x="776.904297"/>
    </g>
   </g>
  </g>
  <g id="axes_2">
   <g id="patch_5">
    <path d="M 298.065 174.04 
L 515.56 174.04 
L 515.56 26.88 
L 298.065 26.88 
z
" style="fill: #ffffff"/>
   </g>
   <g id="PolyCollection_9">
    <path d="M 298.065 33.569091 
L 298.065 34.461032 
L 309.512105 35.282705 
L 320.959211 38.117023 
L 332.406316 41.972658 
L 343.853421 47.61296 
L 355.300526 53.562566 
L 366.747632 60.416595 
L 378.194737 68.050154 
L 389.641842 75.738894 
L 401.088947 83.451673 
L 412.536053 91.210912 
L 423.983158 98.759363 
L 435.430263 106.563487 
L 446.877368 113.765037 
L 458.324474 120.86667 
L 469.771579 127.18847 
L 481.218684 133.697282 
L 492.665789 138.833609 
L 504.112895 144.431478 
L 515.56 149.549041 
L 515.56 128.874912 
L 515.56 128.874912 
L 504.112895 124.180206 
L 492.665789 119.398047 
L 481.218684 113.949224 
L 469.771579 108.911798 
L 458.324474 103.268741 
L 446.877368 97.722221 
L 435.430263 92.235789 
L 423.983158 86.159828 
L 412.536053 79.940373 
L 401.088947 74.056651 
L 389.641842 67.886076 
L 378.194737 61.791308 
L 366.747632 55.577979 
L 355.300526 49.933804 
L 343.853421 44.575931 
L 332.406316 40.344532 
L 320.959211 36.784509 
L 309.512105 34.674719 
L 298.065 33.569091 
z
" clip-path="url(#pc6449d260d)" style="fill: #1f77b4; fill-opacity: 0.4"/>
   </g>
   <g id="PolyCollection_10">
    <path d="M 298.065 33.586235 
L 298.065 34.476417 
L 309.512105 35.306335 
L 320.959211 38.130388 
L 332.406316 41.983108 
L 343.853421 47.62531 
L 355.300526 53.583844 
L 366.747632 60.453179 
L 378.194737 68.073427 
L 389.641842 75.782146 
L 401.088947 83.510358 
L 412.536053 91.31539 
L 423.983158 98.898141 
L 435.430263 106.725968 
L 446.877368 113.986662 
L 458.324474 121.114545 
L 469.771579 127.446386 
L 481.218684 133.951967 
L 492.665789 139.134761 
L 504.112895 144.754298 
L 515.56 149.864972 
L 515.56 128.969477 
L 515.56 128.969477 
L 504.112895 124.273034 
L 492.665789 119.509241 
L 481.218684 113.991601 
L 469.771579 109.000699 
L 458.324474 103.39824 
L 446.877368 97.814064 
L 435.430263 92.354052 
L 423.983158 86.290046 
L 412.536053 80.049242 
L 401.088947 74.154086 
L 389.641842 68.016194 
L 378.194737 61.877864 
L 366.747632 55.632883 
L 355.300526 49.994617 
L 343.853421 44.617897 
L 332.406316 40.363473 
L 320.959211 36.800477 
L 309.512105 34.680062 
L 298.065 33.586235 
z
" clip-path="url(#pc6449d260d)" style="fill: #ff7f0e; fill-opacity: 0.4"/>
   </g>
   <g id="PolyCollection_11">
    <path d="M 298.065 33.584129 
L 298.065 34.473304 
L 309.512105 35.285661 
L 320.959211 38.114825 
L 332.406316 41.969827 
L 343.853421 47.597257 
L 355.300526 53.54338 
L 366.747632 60.388191 
L 378.194737 68.00158 
L 389.641842 75.733609 
L 401.088947 83.420941 
L 412.536053 91.204904 
L 423.983158 98.765895 
L 435.430263 106.625726 
L 446.877368 113.847324 
L 458.324474 121.04279 
L 469.771579 127.344323 
L 481.218684 133.807635 
L 492.665789 139.031007 
L 504.112895 144.687911 
L 515.56 149.724013 
L 515.56 129.37355 
L 515.56 129.37355 
L 504.112895 124.605651 
L 492.665789 119.732606 
L 481.218684 114.211524 
L 469.771579 109.100546 
L 458.324474 103.436618 
L 446.877368 97.817479 
L 435.430263 92.315189 
L 423.983158 86.20386 
L 412.536053 79.909788 
L 401.088947 74.034333 
L 389.641842 67.81147 
L 378.194737 61.756377 
L 366.747632 55.512954 
L 355.300526 49.880463 
L 343.853421 44.54356 
L 332.406316 40.333096 
L 320.959211 36.773576 
L 309.512105 34.680615 
L 298.065 33.584129 
z
" clip-path="url(#pc6449d260d)" style="fill: #2ca02c; fill-opacity: 0.4"/>
   </g>
   <g id="PolyCollection_12">
    <path d="M 298.065 33.597136 
L 298.065 34.485586 
L 309.512105 35.311245 
L 320.959211 38.132329 
L 332.406316 42.008303 
L 343.853421 47.64309 
L 355.300526 53.629792 
L 366.747632 60.496201 
L 378.194737 68.099646 
L 389.641842 75.877062 
L 401.088947 83.575056 
L 412.536053 91.387891 
L 423.983158 98.946679 
L 435.430263 106.801042 
L 446.877368 114.090212 
L 458.324474 121.274382 
L 469.771579 127.611043 
L 481.218684 134.079925 
L 492.665789 139.388857 
L 504.112895 145.03645 
L 515.56 150.09436 
L 515.56 129.605637 
L 515.56 129.605637 
L 504.112895 124.797614 
L 492.665789 119.865032 
L 481.218684 114.313782 
L 469.771579 109.236439 
L 458.324474 103.557634 
L 446.877368 97.927271 
L 435.430263 92.405324 
L 423.983158 86.339671 
L 412.536053 80.027413 
L 401.088947 74.116098 
L 389.641842 67.916401 
L 378.194737 61.842238 
L 366.747632 55.560632 
L 355.300526 49.915534 
L 343.853421 44.563704 
L 332.406316 40.3584 
L 320.959211 36.799826 
L 309.512105 34.687097 
L 298.065 33.597136 
z
" clip-path="url(#pc6449d260d)" style="fill: #d62728; fill-opacity: 0.4"/>
   </g>
   <g id="PolyCollection_13">
    <path d="M 298.065 33.57745 
L 298.065 34.468255 
L 309.512105 35.2999 
L 320.959211 38.125642 
L 332.406316 42.091763 
L 343.853421 47.594091 
L 355.300526 53.703722 
L 366.747632 60.554008 
L 378.194737 68.11375 
L 389.641842 75.727058 
L 401.088947 83.578857 
L 412.536053 91.161555 
L 423.983158 98.721677 
L 435.430263 107.152812 
L 446.877368 113.963015 
L 458.324474 121.394887 
L 469.771579 127.472285 
L 481.218684 133.742525 
L 492.665789 139.576236 
L 504.112895 144.832662 
L 515.56 150.828127 
L 515.56 129.831169 
L 515.56 129.831169 
L 504.112895 123.999846 
L 492.665789 119.338772 
L 481.218684 113.905523 
L 469.771579 109.254535 
L 458.324474 103.765264 
L 446.877368 97.744009 
L 435.430263 92.236089 
L 423.983158 86.170138 
L 412.536053 80.487331 
L 401.088947 74.19592 
L 389.641842 68.215969 
L 378.194737 61.910775 
L 366.747632 55.699105 
L 355.300526 50.017891 
L 343.853421 44.579119 
L 332.406316 40.355267 
L 320.959211 36.809411 
L 309.512105 34.69525 
L 298.065 33.57745 
z
" clip-path="url(#pc6449d260d)" style="fill: #9467bd; fill-opacity: 0.4"/>
   </g>
   <g id="PolyCollection_14">
    <path d="M 298.065 33.594976 
L 298.065 34.483922 
L 309.512105 35.32522 
L 320.959211 38.139617 
L 332.406316 42.105947 
L 343.853421 47.60716 
L 355.300526 53.72769 
L 366.747632 60.606871 
L 378.194737 68.138052 
L 389.641842 75.781675 
L 401.088947 83.634297 
L 412.536053 91.266528 
L 423.983158 98.871094 
L 435.430263 107.361361 
L 446.877368 114.177126 
L 458.324474 121.656215 
L 469.771579 127.724605 
L 481.218684 134.006891 
L 492.665789 139.844049 
L 504.112895 145.14831 
L 515.56 151.132608 
L 515.56 129.890049 
L 515.56 129.890049 
L 504.112895 124.096115 
L 492.665789 119.438279 
L 481.218684 113.951951 
L 469.771579 109.355099 
L 458.324474 103.895442 
L 446.877368 97.824251 
L 435.430263 92.349686 
L 423.983158 86.291904 
L 412.536053 80.613136 
L 401.088947 74.302413 
L 389.641842 68.364039 
L 378.194737 61.993431 
L 366.747632 55.749739 
L 355.300526 50.07933 
L 343.853421 44.622119 
L 332.406316 40.371594 
L 320.959211 36.825535 
L 309.512105 34.7001 
L 298.065 33.594976 
z
" clip-path="url(#pc6449d260d)" style="fill: #8c564b; fill-opacity: 0.4"/>
   </g>
   <g id="PolyCollection_15">
    <path d="M 298.065 46.094338 
L 298.065 51.167833 
L 309.512105 51.920253 
L 320.959211 54.198765 
L 332.406316 57.567652 
L 343.853421 62.258149 
L 355.300526 67.718479 
L 366.747632 73.855507 
L 378.194737 80.709037 
L 389.641842 87.61376 
L 401.088947 94.488984 
L 412.536053 101.532929 
L 423.983158 108.116316 
L 435.430263 115.366687 
L 446.877368 121.81107 
L 458.324474 128.483123 
L 469.771579 134.272614 
L 481.218684 140.224552 
L 492.665789 145.320665 
L 504.112895 150.590399 
L 515.56 155.512396 
L 515.56 138.594455 
L 515.56 138.594455 
L 504.112895 134.135684 
L 492.665789 129.655228 
L 481.218684 124.493938 
L 469.771579 119.733221 
L 458.324474 114.319168 
L 446.877368 109.175042 
L 435.430263 103.681039 
L 423.983158 97.968209 
L 412.536053 91.855557 
L 401.088947 86.214662 
L 389.641842 80.254934 
L 378.194737 74.118639 
L 366.747632 67.964297 
L 355.300526 62.588821 
L 343.853421 57.393007 
L 332.406316 52.853593 
L 320.959211 49.322752 
L 309.512105 47.106469 
L 298.065 46.094338 
z
" clip-path="url(#pc6449d260d)" style="fill: #e377c2; fill-opacity: 0.4"/>
   </g>
   <g id="PolyCollection_16">
    <path d="M 298.065 33.60979 
L 298.065 34.492248 
L 309.512105 35.320761 
L 320.959211 38.117408 
L 332.406316 41.989125 
L 343.853421 47.62318 
L 355.300526 53.576246 
L 366.747632 60.451711 
L 378.194737 68.066822 
L 389.641842 75.848463 
L 401.088947 83.552665 
L 412.536053 91.39961 
L 423.983158 98.996906 
L 435.430263 106.896659 
L 446.877368 114.216432 
L 458.324474 121.405009 
L 469.771579 127.791736 
L 481.218684 134.267487 
L 492.665789 139.64944 
L 504.112895 145.160858 
L 515.56 150.378482 
L 515.56 129.449078 
L 515.56 129.449078 
L 504.112895 124.731483 
L 492.665789 119.929302 
L 481.218684 114.428282 
L 469.771579 109.419781 
L 458.324474 103.799687 
L 446.877368 98.199602 
L 435.430263 92.651992 
L 423.983158 86.578692 
L 412.536053 80.256798 
L 401.088947 74.310605 
L 389.641842 68.13578 
L 378.194737 61.972667 
L 366.747632 55.732209 
L 355.300526 50.025835 
L 343.853421 44.660163 
L 332.406316 40.386644 
L 320.959211 36.819044 
L 309.512105 34.692204 
L 298.065 33.60979 
z
" clip-path="url(#pc6449d260d)" style="fill: #7f7f7f; fill-opacity: 0.4"/>
   </g>
   <g id="matplotlib.axis_3">
    <g id="xtick_6">
     <g id="line2d_17">
      <g>
       <use xlink:href="#mb619435624" x="298.065" y="174.04" style="stroke: #000000; stroke-width: 0.8"/>
      </g>
     </g>
     <g id="text_12">
      <!-- 0.0 -->
      <g transform="translate(290.113437 188.638438)scale(0.1 -0.1)">
       <use xlink:href="#DejaVuSans-30"/>
       <use xlink:href="#DejaVuSans-2e" x="63.623047"/>
       <use xlink:href="#DejaVuSans-30" x="95.410156"/>
      </g>
     </g>
    </g>
    <g id="xtick_7">
     <g id="line2d_18">
      <g>
       <use xlink:href="#mb619435624" x="352.43875" y="174.04" style="stroke: #000000; stroke-width: 0.8"/>
      </g>
     </g>
     <g id="text_13">
      <!-- 0.5 -->
      <g transform="translate(344.487187 188.638438)scale(0.1 -0.1)">
       <use xlink:href="#DejaVuSans-30"/>
       <use xlink:href="#DejaVuSans-2e" x="63.623047"/>
       <use xlink:href="#DejaVuSans-35" x="95.410156"/>
      </g>
     </g>
    </g>
    <g id="xtick_8">
     <g id="line2d_19">
      <g>
       <use xlink:href="#mb619435624" x="406.8125" y="174.04" style="stroke: #000000; stroke-width: 0.8"/>
      </g>
     </g>
     <g id="text_14">
      <!-- 1.0 -->
      <g transform="translate(398.860937 188.638438)scale(0.1 -0.1)">
       <use xlink:href="#DejaVuSans-31"/>
       <use xlink:href="#DejaVuSans-2e" x="63.623047"/>
       <use xlink:href="#DejaVuSans-30" x="95.410156"/>
      </g>
     </g>
    </g>
    <g id="xtick_9">
     <g id="line2d_20">
      <g>
       <use xlink:href="#mb619435624" x="461.18625" y="174.04" style="stroke: #000000; stroke-width: 0.8"/>
      </g>
     </g>
     <g id="text_15">
      <!-- 1.5 -->
      <g transform="translate(453.234687 188.638438)scale(0.1 -0.1)">
       <use xlink:href="#DejaVuSans-31"/>
       <use xlink:href="#DejaVuSans-2e" x="63.623047"/>
       <use xlink:href="#DejaVuSans-35" x="95.410156"/>
      </g>
     </g>
    </g>
    <g id="xtick_10">
     <g id="line2d_21">
      <g>
       <use xlink:href="#mb619435624" x="515.56" y="174.04" style="stroke: #000000; stroke-width: 0.8"/>
      </g>
     </g>
     <g id="text_16">
      <!-- 2.0 -->
      <g transform="translate(507.608437 188.638438)scale(0.1 -0.1)">
       <use xlink:href="#DejaVuSans-32"/>
       <use xlink:href="#DejaVuSans-2e" x="63.623047"/>
       <use xlink:href="#DejaVuSans-30" x="95.410156"/>
      </g>
     </g>
    </g>
    <g id="text_17">
     <!-- Influence of surprisal (multiplication) -->
     <g transform="translate(314.665625 202.316563)scale(0.1 -0.1)">
      <use xlink:href="#DejaVuSans-49"/>
      <use xlink:href="#DejaVuSans-6e" x="29.492188"/>
      <use xlink:href="#DejaVuSans-66" x="92.871094"/>
      <use xlink:href="#DejaVuSans-6c" x="128.076172"/>
      <use xlink:href="#DejaVuSans-75" x="155.859375"/>
      <use xlink:href="#DejaVuSans-65" x="219.238281"/>
      <use xlink:href="#DejaVuSans-6e" x="280.761719"/>
      <use xlink:href="#DejaVuSans-63" x="344.140625"/>
      <use xlink:href="#DejaVuSans-65" x="399.121094"/>
      <use xlink:href="#DejaVuSans-20" x="460.644531"/>
      <use xlink:href="#DejaVuSans-6f" x="492.431641"/>
      <use xlink:href="#DejaVuSans-66" x="553.613281"/>
      <use xlink:href="#DejaVuSans-20" x="588.818359"/>
      <use xlink:href="#DejaVuSans-73" x="620.605469"/>
      <use xlink:href="#DejaVuSans-75" x="672.705078"/>
      <use xlink:href="#DejaVuSans-72" x="736.083984"/>
      <use xlink:href="#DejaVuSans-70" x="777.197266"/>
      <use xlink:href="#DejaVuSans-72" x="840.673828"/>
      <use xlink:href="#DejaVuSans-69" x="881.787109"/>
      <use xlink:href="#DejaVuSans-73" x="909.570312"/>
      <use xlink:href="#DejaVuSans-61" x="961.669922"/>
      <use xlink:href="#DejaVuSans-6c" x="1022.949219"/>
      <use xlink:href="#DejaVuSans-20" x="1050.732422"/>
      <use xlink:href="#DejaVuSans-28" x="1082.519531"/>
      <use xlink:href="#DejaVuSans-6d" x="1121.533203"/>
      <use xlink:href="#DejaVuSans-75" x="1218.945312"/>
      <use xlink:href="#DejaVuSans-6c" x="1282.324219"/>
      <use xlink:href="#DejaVuSans-74" x="1310.107422"/>
      <use xlink:href="#DejaVuSans-69" x="1349.316406"/>
      <use xlink:href="#DejaVuSans-70" x="1377.099609"/>
      <use xlink:href="#DejaVuSans-6c" x="1440.576172"/>
      <use xlink:href="#DejaVuSans-69" x="1468.359375"/>
      <use xlink:href="#DejaVuSans-63" x="1496.142578"/>
      <use xlink:href="#DejaVuSans-61" x="1551.123047"/>
      <use xlink:href="#DejaVuSans-74" x="1612.402344"/>
      <use xlink:href="#DejaVuSans-69" x="1651.611328"/>
      <use xlink:href="#DejaVuSans-6f" x="1679.394531"/>
      <use xlink:href="#DejaVuSans-6e" x="1740.576172"/>
      <use xlink:href="#DejaVuSans-29" x="1803.955078"/>
     </g>
    </g>
   </g>
   <g id="line2d_22">
    <path d="M 298.065 34.015062 
L 309.512105 34.978712 
L 320.959211 37.450766 
L 332.406316 41.158595 
L 343.853421 46.094446 
L 355.300526 51.748185 
L 366.747632 57.997287 
L 378.194737 64.920731 
L 389.641842 71.812485 
L 401.088947 78.754162 
L 412.536053 85.575642 
L 423.983158 92.459596 
L 435.430263 99.399638 
L 446.877368 105.743629 
L 458.324474 112.067705 
L 469.771579 118.050134 
L 481.218684 123.823253 
L 492.665789 129.115828 
L 504.112895 134.305842 
L 515.56 139.211977 
" clip-path="url(#pc6449d260d)" style="fill: none; stroke: #1f77b4; stroke-width: 1.5; stroke-linecap: square"/>
   </g>
   <g id="line2d_23">
    <path d="M 298.065 34.031326 
L 309.512105 34.993198 
L 320.959211 37.465432 
L 332.406316 41.173291 
L 343.853421 46.121604 
L 355.300526 51.789231 
L 366.747632 58.043031 
L 378.194737 64.975646 
L 389.641842 71.89917 
L 401.088947 78.832222 
L 412.536053 85.682316 
L 423.983158 92.594094 
L 435.430263 99.54001 
L 446.877368 105.900363 
L 458.324474 112.256393 
L 469.771579 118.223543 
L 481.218684 123.971784 
L 492.665789 129.322001 
L 504.112895 134.513666 
L 515.56 139.417225 
" clip-path="url(#pc6449d260d)" style="fill: none; stroke: #ff7f0e; stroke-width: 1.5; stroke-linecap: square"/>
   </g>
   <g id="line2d_24">
    <path d="M 298.065 34.028716 
L 309.512105 34.983138 
L 320.959211 37.444201 
L 332.406316 41.151461 
L 343.853421 46.070409 
L 355.300526 51.711922 
L 366.747632 57.950572 
L 378.194737 64.878978 
L 389.641842 71.77254 
L 401.088947 78.727637 
L 412.536053 85.557346 
L 423.983158 92.484877 
L 435.430263 99.470458 
L 446.877368 105.832402 
L 458.324474 112.239704 
L 469.771579 118.222434 
L 481.218684 124.009579 
L 492.665789 129.381806 
L 504.112895 134.646781 
L 515.56 139.548782 
" clip-path="url(#pc6449d260d)" style="fill: none; stroke: #2ca02c; stroke-width: 1.5; stroke-linecap: square"/>
   </g>
   <g id="line2d_25">
    <path d="M 298.065 34.041361 
L 309.512105 34.999171 
L 320.959211 37.466078 
L 332.406316 41.183352 
L 343.853421 46.103397 
L 355.300526 51.772663 
L 366.747632 58.028416 
L 378.194737 64.970942 
L 389.641842 71.896731 
L 401.088947 78.845577 
L 412.536053 85.707652 
L 423.983158 92.643175 
L 435.430263 99.603183 
L 446.877368 106.008741 
L 458.324474 112.416008 
L 469.771579 118.423741 
L 481.218684 124.196854 
L 492.665789 129.626945 
L 504.112895 134.917032 
L 515.56 139.849998 
" clip-path="url(#pc6449d260d)" style="fill: none; stroke: #d62728; stroke-width: 1.5; stroke-linecap: square"/>
   </g>
   <g id="line2d_26">
    <path d="M 298.065 34.022853 
L 309.512105 34.997575 
L 320.959211 37.467526 
L 332.406316 41.223515 
L 343.853421 46.086605 
L 355.300526 51.860807 
L 366.747632 58.126556 
L 378.194737 65.012262 
L 389.641842 71.971513 
L 401.088947 78.887389 
L 412.536053 85.824443 
L 423.983158 92.445908 
L 435.430263 99.69445 
L 446.877368 105.853512 
L 458.324474 112.580076 
L 469.771579 118.36341 
L 481.218684 123.824024 
L 492.665789 129.457504 
L 504.112895 134.416254 
L 515.56 140.329648 
" clip-path="url(#pc6449d260d)" style="fill: none; stroke: #9467bd; stroke-width: 1.5; stroke-linecap: square"/>
   </g>
   <g id="line2d_27">
    <path d="M 298.065 34.039449 
L 309.512105 35.01266 
L 320.959211 37.482576 
L 332.406316 41.238771 
L 343.853421 46.114639 
L 355.300526 51.90351 
L 366.747632 58.178305 
L 378.194737 65.065742 
L 389.641842 72.072857 
L 401.088947 78.968355 
L 412.536053 85.939832 
L 423.983158 92.581499 
L 435.430263 99.855523 
L 446.877368 106.000689 
L 458.324474 112.775829 
L 469.771579 118.539852 
L 481.218684 123.979421 
L 492.665789 129.641164 
L 504.112895 134.622212 
L 515.56 140.511328 
" clip-path="url(#pc6449d260d)" style="fill: none; stroke: #8c564b; stroke-width: 1.5; stroke-linecap: square"/>
   </g>
   <g id="line2d_28">
    <path d="M 298.065 48.631086 
L 309.512105 49.513361 
L 320.959211 51.760759 
L 332.406316 55.210622 
L 343.853421 59.825578 
L 355.300526 65.15365 
L 366.747632 70.909902 
L 378.194737 77.413838 
L 389.641842 83.934347 
L 401.088947 90.351823 
L 412.536053 96.694243 
L 423.983158 103.042263 
L 435.430263 109.523863 
L 446.877368 115.493056 
L 458.324474 121.401146 
L 469.771579 127.002917 
L 481.218684 132.359245 
L 492.665789 137.487946 
L 504.112895 142.363042 
L 515.56 147.053426 
" clip-path="url(#pc6449d260d)" style="fill: none; stroke: #e377c2; stroke-width: 1.5; stroke-linecap: square"/>
   </g>
   <g id="line2d_29">
    <path d="M 298.065 34.051019 
L 309.512105 35.006483 
L 320.959211 37.468226 
L 332.406316 41.187884 
L 343.853421 46.141672 
L 355.300526 51.801041 
L 366.747632 58.09196 
L 378.194737 65.019744 
L 389.641842 71.992121 
L 401.088947 78.931635 
L 412.536053 85.828204 
L 423.983158 92.787799 
L 435.430263 99.774326 
L 446.877368 106.208017 
L 458.324474 112.602348 
L 469.771579 118.605759 
L 481.218684 124.347885 
L 492.665789 129.789371 
L 504.112895 134.946171 
L 515.56 139.91378 
" clip-path="url(#pc6449d260d)" style="fill: none; stroke: #7f7f7f; stroke-width: 1.5; stroke-linecap: square"/>
   </g>
   <g id="patch_6">
    <path d="M 298.065 174.04 
L 298.065 26.88 
" style="fill: none; stroke: #000000; stroke-width: 0.8; stroke-linejoin: miter; stroke-linecap: square"/>
   </g>
   <g id="patch_7">
    <path d="M 298.065 174.04 
L 515.56 174.04 
" style="fill: none; stroke: #000000; stroke-width: 0.8; stroke-linejoin: miter; stroke-linecap: square"/>
   </g>
   <g id="text_18">
    <!-- Node * third variable -->
    <g transform="translate(344.2325 20.88)scale(0.12 -0.12)">
     <defs>
      <path id="DejaVuSans-68" d="M 3513 2113 
L 3513 0 
L 2938 0 
L 2938 2094 
Q 2938 2591 2744 2837 
Q 2550 3084 2163 3084 
Q 1697 3084 1428 2787 
Q 1159 2491 1159 1978 
L 1159 0 
L 581 0 
L 581 4863 
L 1159 4863 
L 1159 2956 
Q 1366 3272 1645 3428 
Q 1925 3584 2291 3584 
Q 2894 3584 3203 3211 
Q 3513 2838 3513 2113 
z
" transform="scale(0.015625)"/>
      <path id="DejaVuSans-62" d="M 3116 1747 
Q 3116 2381 2855 2742 
Q 2594 3103 2138 3103 
Q 1681 3103 1420 2742 
Q 1159 2381 1159 1747 
Q 1159 1113 1420 752 
Q 1681 391 2138 391 
Q 2594 391 2855 752 
Q 3116 1113 3116 1747 
z
M 1159 2969 
Q 1341 3281 1617 3432 
Q 1894 3584 2278 3584 
Q 2916 3584 3314 3078 
Q 3713 2572 3713 1747 
Q 3713 922 3314 415 
Q 2916 -91 2278 -91 
Q 1894 -91 1617 61 
Q 1341 213 1159 525 
L 1159 0 
L 581 0 
L 581 4863 
L 1159 4863 
L 1159 2969 
z
" transform="scale(0.015625)"/>
     </defs>
     <use xlink:href="#DejaVuSans-4e"/>
     <use xlink:href="#DejaVuSans-6f" x="74.804688"/>
     <use xlink:href="#DejaVuSans-64" x="135.986328"/>
     <use xlink:href="#DejaVuSans-65" x="199.462891"/>
     <use xlink:href="#DejaVuSans-20" x="260.986328"/>
     <use xlink:href="#DejaVuSans-2a" x="292.773438"/>
     <use xlink:href="#DejaVuSans-20" x="342.773438"/>
     <use xlink:href="#DejaVuSans-74" x="374.560547"/>
     <use xlink:href="#DejaVuSans-68" x="413.769531"/>
     <use xlink:href="#DejaVuSans-69" x="477.148438"/>
     <use xlink:href="#DejaVuSans-72" x="504.931641"/>
     <use xlink:href="#DejaVuSans-64" x="544.294922"/>
     <use xlink:href="#DejaVuSans-20" x="607.771484"/>
     <use xlink:href="#DejaVuSans-76" x="639.558594"/>
     <use xlink:href="#DejaVuSans-61" x="698.738281"/>
     <use xlink:href="#DejaVuSans-72" x="760.017578"/>
     <use xlink:href="#DejaVuSans-69" x="801.130859"/>
     <use xlink:href="#DejaVuSans-61" x="828.914062"/>
     <use xlink:href="#DejaVuSans-62" x="890.193359"/>
     <use xlink:href="#DejaVuSans-6c" x="953.669922"/>
     <use xlink:href="#DejaVuSans-65" x="981.453125"/>
    </g>
   </g>
   <g id="legend_1">
    <g id="line2d_30">
     <path d="M 524.56 39.978437 
L 534.56 39.978437 
L 544.56 39.978437 
" style="fill: none; stroke: #1f77b4; stroke-width: 1.5; stroke-linecap: square"/>
    </g>
    <g id="text_19">
     <!-- Node -->
     <g transform="translate(552.56 43.478437)scale(0.1 -0.1)">
      <use xlink:href="#DejaVuSans-4e"/>
      <use xlink:href="#DejaVuSans-6f" x="74.804688"/>
      <use xlink:href="#DejaVuSans-64" x="135.986328"/>
      <use xlink:href="#DejaVuSans-65" x="199.462891"/>
     </g>
    </g>
    <g id="line2d_31">
     <path d="M 524.56 54.656563 
L 534.56 54.656563 
L 544.56 54.656563 
" style="fill: none; stroke: #ff7f0e; stroke-width: 1.5; stroke-linecap: square"/>
    </g>
    <g id="text_20">
     <!-- Node + surprisal -->
     <g transform="translate(552.56 58.156563)scale(0.1 -0.1)">
      <defs>
       <path id="DejaVuSans-2b" d="M 2944 4013 
L 2944 2272 
L 4684 2272 
L 4684 1741 
L 2944 1741 
L 2944 0 
L 2419 0 
L 2419 1741 
L 678 1741 
L 678 2272 
L 2419 2272 
L 2419 4013 
L 2944 4013 
z
" transform="scale(0.015625)"/>
      </defs>
      <use xlink:href="#DejaVuSans-4e"/>
      <use xlink:href="#DejaVuSans-6f" x="74.804688"/>
      <use xlink:href="#DejaVuSans-64" x="135.986328"/>
      <use xlink:href="#DejaVuSans-65" x="199.462891"/>
      <use xlink:href="#DejaVuSans-20" x="260.986328"/>
      <use xlink:href="#DejaVuSans-2b" x="292.773438"/>
      <use xlink:href="#DejaVuSans-20" x="376.5625"/>
      <use xlink:href="#DejaVuSans-73" x="408.349609"/>
      <use xlink:href="#DejaVuSans-75" x="460.449219"/>
      <use xlink:href="#DejaVuSans-72" x="523.828125"/>
      <use xlink:href="#DejaVuSans-70" x="564.941406"/>
      <use xlink:href="#DejaVuSans-72" x="628.417969"/>
      <use xlink:href="#DejaVuSans-69" x="669.53125"/>
      <use xlink:href="#DejaVuSans-73" x="697.314453"/>
      <use xlink:href="#DejaVuSans-61" x="749.414062"/>
      <use xlink:href="#DejaVuSans-6c" x="810.693359"/>
     </g>
    </g>
    <g id="line2d_32">
     <path d="M 524.56 69.334687 
L 534.56 69.334687 
L 544.56 69.334687 
" style="fill: none; stroke: #2ca02c; stroke-width: 1.5; stroke-linecap: square"/>
    </g>
    <g id="text_21">
     <!-- Node split -->
     <g transform="translate(552.56 72.834687)scale(0.1 -0.1)">
      <use xlink:href="#DejaVuSans-4e"/>
      <use xlink:href="#DejaVuSans-6f" x="74.804688"/>
      <use xlink:href="#DejaVuSans-64" x="135.986328"/>
      <use xlink:href="#DejaVuSans-65" x="199.462891"/>
      <use xlink:href="#DejaVuSans-20" x="260.986328"/>
      <use xlink:href="#DejaVuSans-73" x="292.773438"/>
      <use xlink:href="#DejaVuSans-70" x="344.873047"/>
      <use xlink:href="#DejaVuSans-6c" x="408.349609"/>
      <use xlink:href="#DejaVuSans-69" x="436.132812"/>
      <use xlink:href="#DejaVuSans-74" x="463.916016"/>
     </g>
    </g>
    <g id="line2d_33">
     <path d="M 524.56 84.012812 
L 534.56 84.012812 
L 544.56 84.012812 
" style="fill: none; stroke: #d62728; stroke-width: 1.5; stroke-linecap: square"/>
    </g>
    <g id="text_22">
     <!-- Node split + surprisal -->
     <g transform="translate(552.56 87.512812)scale(0.1 -0.1)">
      <use xlink:href="#DejaVuSans-4e"/>
      <use xlink:href="#DejaVuSans-6f" x="74.804688"/>
      <use xlink:href="#DejaVuSans-64" x="135.986328"/>
      <use xlink:href="#DejaVuSans-65" x="199.462891"/>
      <use xlink:href="#DejaVuSans-20" x="260.986328"/>
      <use xlink:href="#DejaVuSans-73" x="292.773438"/>
      <use xlink:href="#DejaVuSans-70" x="344.873047"/>
      <use xlink:href="#DejaVuSans-6c" x="408.349609"/>
      <use xlink:href="#DejaVuSans-69" x="436.132812"/>
      <use xlink:href="#DejaVuSans-74" x="463.916016"/>
      <use xlink:href="#DejaVuSans-20" x="503.125"/>
      <use xlink:href="#DejaVuSans-2b" x="534.912109"/>
      <use xlink:href="#DejaVuSans-20" x="618.701172"/>
      <use xlink:href="#DejaVuSans-73" x="650.488281"/>
      <use xlink:href="#DejaVuSans-75" x="702.587891"/>
      <use xlink:href="#DejaVuSans-72" x="765.966797"/>
      <use xlink:href="#DejaVuSans-70" x="807.080078"/>
      <use xlink:href="#DejaVuSans-72" x="870.556641"/>
      <use xlink:href="#DejaVuSans-69" x="911.669922"/>
      <use xlink:href="#DejaVuSans-73" x="939.453125"/>
      <use xlink:href="#DejaVuSans-61" x="991.552734"/>
      <use xlink:href="#DejaVuSans-6c" x="1052.832031"/>
     </g>
    </g>
    <g id="line2d_34">
     <path d="M 524.56 98.690937 
L 534.56 98.690937 
L 544.56 98.690937 
" style="fill: none; stroke: #9467bd; stroke-width: 1.5; stroke-linecap: square"/>
    </g>
    <g id="text_23">
     <!-- Node random split -->
     <g transform="translate(552.56 102.190937)scale(0.1 -0.1)">
      <use xlink:href="#DejaVuSans-4e"/>
      <use xlink:href="#DejaVuSans-6f" x="74.804688"/>
      <use xlink:href="#DejaVuSans-64" x="135.986328"/>
      <use xlink:href="#DejaVuSans-65" x="199.462891"/>
      <use xlink:href="#DejaVuSans-20" x="260.986328"/>
      <use xlink:href="#DejaVuSans-72" x="292.773438"/>
      <use xlink:href="#DejaVuSans-61" x="333.886719"/>
      <use xlink:href="#DejaVuSans-6e" x="395.166016"/>
      <use xlink:href="#DejaVuSans-64" x="458.544922"/>
      <use xlink:href="#DejaVuSans-6f" x="522.021484"/>
      <use xlink:href="#DejaVuSans-6d" x="583.203125"/>
      <use xlink:href="#DejaVuSans-20" x="680.615234"/>
      <use xlink:href="#DejaVuSans-73" x="712.402344"/>
      <use xlink:href="#DejaVuSans-70" x="764.501953"/>
      <use xlink:href="#DejaVuSans-6c" x="827.978516"/>
      <use xlink:href="#DejaVuSans-69" x="855.761719"/>
      <use xlink:href="#DejaVuSans-74" x="883.544922"/>
     </g>
    </g>
    <g id="line2d_35">
     <path d="M 524.56 113.369062 
L 534.56 113.369062 
L 544.56 113.369062 
" style="fill: none; stroke: #8c564b; stroke-width: 1.5; stroke-linecap: square"/>
    </g>
    <g id="text_24">
     <!-- Node random split + surprisal -->
     <g transform="translate(552.56 116.869062)scale(0.1 -0.1)">
      <use xlink:href="#DejaVuSans-4e"/>
      <use xlink:href="#DejaVuSans-6f" x="74.804688"/>
      <use xlink:href="#DejaVuSans-64" x="135.986328"/>
      <use xlink:href="#DejaVuSans-65" x="199.462891"/>
      <use xlink:href="#DejaVuSans-20" x="260.986328"/>
      <use xlink:href="#DejaVuSans-72" x="292.773438"/>
      <use xlink:href="#DejaVuSans-61" x="333.886719"/>
      <use xlink:href="#DejaVuSans-6e" x="395.166016"/>
      <use xlink:href="#DejaVuSans-64" x="458.544922"/>
      <use xlink:href="#DejaVuSans-6f" x="522.021484"/>
      <use xlink:href="#DejaVuSans-6d" x="583.203125"/>
      <use xlink:href="#DejaVuSans-20" x="680.615234"/>
      <use xlink:href="#DejaVuSans-73" x="712.402344"/>
      <use xlink:href="#DejaVuSans-70" x="764.501953"/>
      <use xlink:href="#DejaVuSans-6c" x="827.978516"/>
      <use xlink:href="#DejaVuSans-69" x="855.761719"/>
      <use xlink:href="#DejaVuSans-74" x="883.544922"/>
      <use xlink:href="#DejaVuSans-20" x="922.753906"/>
      <use xlink:href="#DejaVuSans-2b" x="954.541016"/>
      <use xlink:href="#DejaVuSans-20" x="1038.330078"/>
      <use xlink:href="#DejaVuSans-73" x="1070.117188"/>
      <use xlink:href="#DejaVuSans-75" x="1122.216797"/>
      <use xlink:href="#DejaVuSans-72" x="1185.595703"/>
      <use xlink:href="#DejaVuSans-70" x="1226.708984"/>
      <use xlink:href="#DejaVuSans-72" x="1290.185547"/>
      <use xlink:href="#DejaVuSans-69" x="1331.298828"/>
      <use xlink:href="#DejaVuSans-73" x="1359.082031"/>
      <use xlink:href="#DejaVuSans-61" x="1411.181641"/>
      <use xlink:href="#DejaVuSans-6c" x="1472.460938"/>
     </g>
    </g>
    <g id="line2d_36">
     <path d="M 524.56 128.047187 
L 534.56 128.047187 
L 544.56 128.047187 
" style="fill: none; stroke: #e377c2; stroke-width: 1.5; stroke-linecap: square"/>
    </g>
    <g id="text_25">
     <!-- Interaction -->
     <g transform="translate(552.56 131.547187)scale(0.1 -0.1)">
      <use xlink:href="#DejaVuSans-49"/>
      <use xlink:href="#DejaVuSans-6e" x="29.492188"/>
      <use xlink:href="#DejaVuSans-74" x="92.871094"/>
      <use xlink:href="#DejaVuSans-65" x="132.080078"/>
      <use xlink:href="#DejaVuSans-72" x="193.603516"/>
      <use xlink:href="#DejaVuSans-61" x="234.716797"/>
      <use xlink:href="#DejaVuSans-63" x="295.996094"/>
      <use xlink:href="#DejaVuSans-74" x="350.976562"/>
      <use xlink:href="#DejaVuSans-69" x="390.185547"/>
      <use xlink:href="#DejaVuSans-6f" x="417.96875"/>
      <use xlink:href="#DejaVuSans-6e" x="479.150391"/>
     </g>
    </g>
    <g id="line2d_37">
     <path d="M 524.56 142.725312 
L 534.56 142.725312 
L 544.56 142.725312 
" style="fill: none; stroke: #7f7f7f; stroke-width: 1.5; stroke-linecap: square"/>
    </g>
    <g id="text_26">
     <!-- Node + surprisal + interaction -->
     <g transform="translate(552.56 146.225312)scale(0.1 -0.1)">
      <use xlink:href="#DejaVuSans-4e"/>
      <use xlink:href="#DejaVuSans-6f" x="74.804688"/>
      <use xlink:href="#DejaVuSans-64" x="135.986328"/>
      <use xlink:href="#DejaVuSans-65" x="199.462891"/>
      <use xlink:href="#DejaVuSans-20" x="260.986328"/>
      <use xlink:href="#DejaVuSans-2b" x="292.773438"/>
      <use xlink:href="#DejaVuSans-20" x="376.5625"/>
      <use xlink:href="#DejaVuSans-73" x="408.349609"/>
      <use xlink:href="#DejaVuSans-75" x="460.449219"/>
      <use xlink:href="#DejaVuSans-72" x="523.828125"/>
      <use xlink:href="#DejaVuSans-70" x="564.941406"/>
      <use xlink:href="#DejaVuSans-72" x="628.417969"/>
      <use xlink:href="#DejaVuSans-69" x="669.53125"/>
      <use xlink:href="#DejaVuSans-73" x="697.314453"/>
      <use xlink:href="#DejaVuSans-61" x="749.414062"/>
      <use xlink:href="#DejaVuSans-6c" x="810.693359"/>
      <use xlink:href="#DejaVuSans-20" x="838.476562"/>
      <use xlink:href="#DejaVuSans-2b" x="870.263672"/>
      <use xlink:href="#DejaVuSans-20" x="954.052734"/>
      <use xlink:href="#DejaVuSans-69" x="985.839844"/>
      <use xlink:href="#DejaVuSans-6e" x="1013.623047"/>
      <use xlink:href="#DejaVuSans-74" x="1077.001953"/>
      <use xlink:href="#DejaVuSans-65" x="1116.210938"/>
      <use xlink:href="#DejaVuSans-72" x="1177.734375"/>
      <use xlink:href="#DejaVuSans-61" x="1218.847656"/>
      <use xlink:href="#DejaVuSans-63" x="1280.126953"/>
      <use xlink:href="#DejaVuSans-74" x="1335.107422"/>
      <use xlink:href="#DejaVuSans-69" x="1374.316406"/>
      <use xlink:href="#DejaVuSans-6f" x="1402.099609"/>
      <use xlink:href="#DejaVuSans-6e" x="1463.28125"/>
     </g>
    </g>
   </g>
  </g>
 </g>
 <defs>
  <clipPath id="pd72082e2c2">
   <rect x="47.72" y="26.88" width="217.495" height="147.16"/>
  </clipPath>
  <clipPath id="pc6449d260d">
   <rect x="298.065" y="26.88" width="217.495" height="147.16"/>
  </clipPath>
 </defs>
</svg>
