<?xml version="1.0" encoding="utf-8" standalone="no"?>
<!DOCTYPE svg PUBLIC "-//W3C//DTD SVG 1.1//EN"
  "http://www.w3.org/Graphics/SVG/1.1/DTD/svg11.dtd">
<svg xmlns:xlink="http://www.w3.org/1999/xlink" width="720pt" height="216pt" viewBox="0 0 720 216" xmlns="http://www.w3.org/2000/svg" version="1.1">
 <metadata>
  <rdf:RDF xmlns:dc="http://purl.org/dc/elements/1.1/" xmlns:cc="http://creativecommons.org/ns#" xmlns:rdf="http://www.w3.org/1999/02/22-rdf-syntax-ns#">
   <cc:Work>
    <dc:type rdf:resource="http://purl.org/dc/dcmitype/StillImage"/>
    <dc:date>2024-01-16T05:31:01.449248</dc:date>
    <dc:format>image/svg+xml</dc:format>
    <dc:creator>
     <cc:Agent>
      <dc:title>Matplotlib v3.5.1, https://matplotlib.org/</dc:title>
     </cc:Agent>
    </dc:creator>
   </cc:Work>
  </rdf:RDF>
 </metadata>
 <defs>
  <style type="text/css">*{stroke-linejoin: round; stroke-linecap: butt}</style>
 </defs>
 <g id="figure_1">
  <g id="patch_1">
   <path d="M 0 216 
L 720 216 
L 720 0 
L 0 0 
z
" style="fill: #ffffff"/>
  </g>
  <g id="axes_1">
   <g id="patch_2">
    <path d="M 47.72 174.04 
L 265.215 174.04 
L 265.215 26.88 
L 47.72 26.88 
z
" style="fill: #ffffff"/>
   </g>
   <g id="PolyCollection_1">
    <path d="M 47.72 33.69157 
L 47.72 34.324469 
L 59.167105 35.381743 
L 70.614211 38.341116 
L 82.061316 43.188978 
L 93.508421 48.727207 
L 104.955526 55.775626 
L 116.402632 63.481892 
L 127.849737 70.628248 
L 139.296842 78.797019 
L 150.743947 86.919264 
L 162.191053 94.826275 
L 173.638158 102.716593 
L 185.085263 109.617053 
L 196.532368 117.674381 
L 207.979474 124.26728 
L 219.426579 130.906993 
L 230.873684 137.038677 
L 242.320789 142.768079 
L 253.767895 148.725751 
L 265.215 154.311082 
L 265.215 140.090961 
L 265.215 140.090961 
L 253.767895 135.43861 
L 242.320789 129.998842 
L 230.873684 124.949629 
L 219.426579 119.234421 
L 207.979474 113.096306 
L 196.532368 107.333527 
L 185.085263 100.885951 
L 173.638158 93.346707 
L 162.191053 87.353834 
L 150.743947 79.779466 
L 139.296842 72.789197 
L 127.849737 65.101573 
L 116.402632 58.847111 
L 104.955526 51.580727 
L 93.508421 45.990427 
L 82.061316 40.89701 
L 70.614211 37.239388 
L 59.167105 34.566622 
L 47.72 33.69157 
z
" clip-path="url(#pbe0259e878)" style="fill: #1f77b4; fill-opacity: 0.4"/>
   </g>
   <g id="PolyCollection_2">
    <path d="M 47.72 33.708086 
L 47.72 34.345141 
L 59.167105 34.987698 
L 70.614211 36.530392 
L 82.061316 39.175505 
L 93.508421 42.716549 
L 104.955526 47.418285 
L 116.402632 53.236398 
L 127.849737 58.712096 
L 139.296842 65.421625 
L 150.743947 72.481833 
L 162.191053 79.308557 
L 173.638158 86.390936 
L 185.085263 93.203751 
L 196.532368 100.930619 
L 207.979474 107.279017 
L 219.426579 113.971909 
L 230.873684 120.498973 
L 242.320789 126.248893 
L 253.767895 132.110302 
L 265.215 137.395532 
L 265.215 122.340089 
L 265.215 122.340089 
L 253.767895 117.491207 
L 242.320789 112.190357 
L 230.873684 107.314352 
L 219.426579 102.216118 
L 207.979474 96.388796 
L 196.532368 90.955977 
L 185.085263 84.829643 
L 173.638158 77.765783 
L 162.191053 71.984879 
L 150.743947 65.029636 
L 139.296842 59.237021 
L 127.849737 53.067259 
L 116.402632 48.730641 
L 104.955526 44.062852 
L 93.508421 40.480528 
L 82.061316 37.721643 
L 70.614211 35.625386 
L 59.167105 34.25697 
L 47.72 33.708086 
z
" clip-path="url(#pbe0259e878)" style="fill: #ff7f0e; fill-opacity: 0.4"/>
   </g>
   <g id="PolyCollection_3">
    <path d="M 47.72 33.702539 
L 47.72 34.333011 
L 59.167105 35.131773 
L 70.614211 36.456251 
L 82.061316 38.65294 
L 93.508421 41.281357 
L 104.955526 44.381468 
L 116.402632 47.972128 
L 127.849737 51.349819 
L 139.296842 55.203894 
L 150.743947 58.895695 
L 162.191053 63.040701 
L 173.638158 67.052371 
L 185.085263 70.913 
L 196.532368 75.035133 
L 207.979474 78.344131 
L 219.426579 81.969465 
L 230.873684 85.648907 
L 242.320789 88.930612 
L 253.767895 92.798222 
L 265.215 96.132253 
L 265.215 88.793163 
L 265.215 88.793163 
L 253.767895 85.312764 
L 242.320789 81.552421 
L 230.873684 78.47692 
L 219.426579 75.054989 
L 207.979474 71.389836 
L 196.532368 68.458487 
L 185.085263 64.952708 
L 173.638158 61.376566 
L 162.191053 58.339815 
L 150.743947 54.872065 
L 139.296842 51.359783 
L 127.849737 47.777144 
L 116.402632 45.052244 
L 104.955526 41.82449 
L 93.508421 39.396871 
L 82.061316 37.248096 
L 70.614211 35.596385 
L 59.167105 34.371813 
L 47.72 33.702539 
z
" clip-path="url(#pbe0259e878)" style="fill: #2ca02c; fill-opacity: 0.4"/>
   </g>
   <g id="PolyCollection_4">
    <path d="M 47.72 33.726506 
L 47.72 34.357289 
L 59.167105 34.967436 
L 70.614211 35.888247 
L 82.061316 37.448466 
L 93.508421 39.513907 
L 104.955526 42.202538 
L 116.402632 45.469025 
L 127.849737 48.474685 
L 139.296842 52.343406 
L 150.743947 56.199584 
L 162.191053 60.287708 
L 173.638158 64.407434 
L 185.085263 68.224568 
L 196.532368 72.64737 
L 207.979474 76.04685 
L 219.426579 79.697868 
L 230.873684 83.747977 
L 242.320789 87.191737 
L 253.767895 91.283811 
L 265.215 94.727584 
L 265.215 87.888284 
L 265.215 87.888284 
L 253.767895 84.423549 
L 242.320789 80.569322 
L 230.873684 77.400364 
L 219.426579 73.881309 
L 207.979474 69.987652 
L 196.532368 66.827229 
L 185.085263 63.339734 
L 173.638158 59.302155 
L 162.191053 55.995636 
L 150.743947 52.174176 
L 139.296842 48.716004 
L 127.849737 45.263614 
L 116.402632 42.771267 
L 104.955526 40.000511 
L 93.508421 38.059371 
L 82.061316 36.443916 
L 70.614211 35.114413 
L 59.167105 34.245667 
L 47.72 33.726506 
z
" clip-path="url(#pbe0259e878)" style="fill: #d62728; fill-opacity: 0.4"/>
   </g>
   <g id="PolyCollection_5">
    <path d="M 47.72 33.70709 
L 47.72 34.344132 
L 59.167105 35.405859 
L 70.614211 38.361136 
L 82.061316 43.261684 
L 93.508421 48.720808 
L 104.955526 55.741576 
L 116.402632 63.432369 
L 127.849737 70.895301 
L 139.296842 78.753548 
L 150.743947 86.898987 
L 162.191053 94.836494 
L 173.638158 102.876097 
L 185.085263 109.793106 
L 196.532368 118.178723 
L 207.979474 124.871877 
L 219.426579 131.269452 
L 230.873684 137.339411 
L 242.320789 143.017136 
L 253.767895 149.438863 
L 265.215 154.248182 
L 265.215 140.795531 
L 265.215 140.795531 
L 253.767895 134.904847 
L 242.320789 130.611264 
L 230.873684 125.573716 
L 219.426579 119.388723 
L 207.979474 113.402826 
L 196.532368 107.63706 
L 185.085263 101.048812 
L 173.638158 93.576386 
L 162.191053 87.323717 
L 150.743947 79.797269 
L 139.296842 73.059934 
L 127.849737 65.056096 
L 116.402632 58.969957 
L 104.955526 51.716013 
L 93.508421 46.045758 
L 82.061316 40.910415 
L 70.614211 37.266539 
L 59.167105 34.580489 
L 47.72 33.70709 
z
" clip-path="url(#pbe0259e878)" style="fill: #9467bd; fill-opacity: 0.4"/>
   </g>
   <g id="PolyCollection_6">
    <path d="M 47.72 33.724283 
L 47.72 34.365564 
L 59.167105 35.014478 
L 70.614211 36.541886 
L 82.061316 39.206706 
L 93.508421 42.734833 
L 104.955526 47.445229 
L 116.402632 53.262011 
L 127.849737 58.852597 
L 139.296842 65.373043 
L 150.743947 72.465387 
L 162.191053 79.245325 
L 173.638158 86.509438 
L 185.085263 93.504913 
L 196.532368 101.325271 
L 207.979474 107.834199 
L 219.426579 114.26131 
L 230.873684 120.547817 
L 242.320789 126.322914 
L 253.767895 132.420722 
L 265.215 137.314269 
L 265.215 122.981288 
L 265.215 122.981288 
L 253.767895 116.942752 
L 242.320789 112.685366 
L 230.873684 107.674981 
L 219.426579 102.374098 
L 207.979474 96.580632 
L 196.532368 91.054669 
L 185.085263 85.021008 
L 173.638158 77.936947 
L 162.191053 71.933749 
L 150.743947 65.079712 
L 139.296842 59.295301 
L 127.849737 53.0492 
L 116.402632 48.834664 
L 104.955526 44.111021 
L 93.508421 40.527658 
L 82.061316 37.738101 
L 70.614211 35.670349 
L 59.167105 34.270555 
L 47.72 33.724283 
z
" clip-path="url(#pbe0259e878)" style="fill: #8c564b; fill-opacity: 0.4"/>
   </g>
   <g id="PolyCollection_7">
    <path d="M 47.72 47.548998 
L 47.72 50.378056 
L 59.167105 51.976811 
L 70.614211 55.981499 
L 82.061316 62.388673 
L 93.508421 69.44258 
L 104.955526 77.947529 
L 116.402632 86.665815 
L 127.849737 94.70624 
L 139.296842 103.32343 
L 150.743947 110.886996 
L 162.191053 118.476831 
L 173.638158 126.384442 
L 185.085263 132.542521 
L 196.532368 139.01082 
L 207.979474 144.871355 
L 219.426579 150.02181 
L 230.873684 155.045066 
L 242.320789 158.817363 
L 253.767895 163.564113 
L 265.215 167.350909 
L 265.215 156.681387 
L 265.215 156.681387 
L 253.767895 152.330119 
L 242.320789 147.69009 
L 230.873684 142.814032 
L 219.426579 137.742363 
L 207.979474 131.941009 
L 196.532368 126.369368 
L 185.085263 119.970515 
L 173.638158 112.677195 
L 162.191053 106.282986 
L 150.743947 98.682006 
L 139.296842 90.79555 
L 127.849737 82.726908 
L 116.402632 75.428491 
L 104.955526 67.636378 
L 93.508421 61.155741 
L 82.061316 55.422845 
L 70.614211 51.229073 
L 59.167105 48.493212 
L 47.72 47.548998 
z
" clip-path="url(#pbe0259e878)" style="fill: #e377c2; fill-opacity: 0.4"/>
   </g>
   <g id="PolyCollection_8">
    <path d="M 47.72 33.734379 
L 47.72 34.35391 
L 59.167105 34.655611 
L 70.614211 34.770309 
L 82.061316 35.420328 
L 93.508421 37.055041 
L 104.955526 39.738076 
L 116.402632 44.080124 
L 127.849737 48.759237 
L 139.296842 54.659858 
L 150.743947 60.420071 
L 162.191053 66.288357 
L 173.638158 72.443302 
L 185.085263 78.175643 
L 196.532368 84.733795 
L 207.979474 90.675266 
L 219.426579 97.045105 
L 230.873684 103.713193 
L 242.320789 109.480979 
L 253.767895 115.647461 
L 265.215 121.185171 
L 265.215 110.70046 
L 265.215 110.70046 
L 253.767895 105.073119 
L 242.320789 99.533091 
L 230.873684 94.078085 
L 219.426579 88.671965 
L 207.979474 82.411923 
L 196.532368 76.711633 
L 185.085263 69.892439 
L 173.638158 62.727961 
L 162.191053 56.886453 
L 150.743947 50.71877 
L 139.296842 45.621629 
L 127.849737 41.201007 
L 116.402632 38.87369 
L 104.955526 36.501095 
L 93.508421 35.072079 
L 82.061316 34.539017 
L 70.614211 34.0391 
L 59.167105 33.932217 
L 47.72 33.734379 
z
" clip-path="url(#pbe0259e878)" style="fill: #7f7f7f; fill-opacity: 0.4"/>
   </g>
   <g id="matplotlib.axis_1">
    <g id="xtick_1">
     <g id="line2d_1">
      <defs>
       <path id="m400c1d5ea7" d="M 0 0 
L 0 3.5 
" style="stroke: #000000; stroke-width: 0.8"/>
      </defs>
      <g>
       <use xlink:href="#m400c1d5ea7" x="47.72" y="174.04" style="stroke: #000000; stroke-width: 0.8"/>
      </g>
     </g>
     <g id="text_1">
      <!-- 0.0 -->
      <g transform="translate(39.768438 188.638438)scale(0.1 -0.1)">
       <defs>
        <path id="DejaVuSans-30" d="M 2034 4250 
Q 1547 4250 1301 3770 
Q 1056 3291 1056 2328 
Q 1056 1369 1301 889 
Q 1547 409 2034 409 
Q 2525 409 2770 889 
Q 3016 1369 3016 2328 
Q 3016 3291 2770 3770 
Q 2525 4250 2034 4250 
z
M 2034 4750 
Q 2819 4750 3233 4129 
Q 3647 3509 3647 2328 
Q 3647 1150 3233 529 
Q 2819 -91 2034 -91 
Q 1250 -91 836 529 
Q 422 1150 422 2328 
Q 422 3509 836 4129 
Q 1250 4750 2034 4750 
z
" transform="scale(0.015625)"/>
        <path id="DejaVuSans-2e" d="M 684 794 
L 1344 794 
L 1344 0 
L 684 0 
L 684 794 
z
" transform="scale(0.015625)"/>
       </defs>
       <use xlink:href="#DejaVuSans-30"/>
       <use xlink:href="#DejaVuSans-2e" x="63.623047"/>
       <use xlink:href="#DejaVuSans-30" x="95.410156"/>
      </g>
     </g>
    </g>
    <g id="xtick_2">
     <g id="line2d_2">
      <g>
       <use xlink:href="#m400c1d5ea7" x="102.09375" y="174.04" style="stroke: #000000; stroke-width: 0.8"/>
      </g>
     </g>
     <g id="text_2">
      <!-- 0.5 -->
      <g transform="translate(94.142188 188.638438)scale(0.1 -0.1)">
       <defs>
        <path id="DejaVuSans-35" d="M 691 4666 
L 3169 4666 
L 3169 4134 
L 1269 4134 
L 1269 2991 
Q 1406 3038 1543 3061 
Q 1681 3084 1819 3084 
Q 2600 3084 3056 2656 
Q 3513 2228 3513 1497 
Q 3513 744 3044 326 
Q 2575 -91 1722 -91 
Q 1428 -91 1123 -41 
Q 819 9 494 109 
L 494 744 
Q 775 591 1075 516 
Q 1375 441 1709 441 
Q 2250 441 2565 725 
Q 2881 1009 2881 1497 
Q 2881 1984 2565 2268 
Q 2250 2553 1709 2553 
Q 1456 2553 1204 2497 
Q 953 2441 691 2322 
L 691 4666 
z
" transform="scale(0.015625)"/>
       </defs>
       <use xlink:href="#DejaVuSans-30"/>
       <use xlink:href="#DejaVuSans-2e" x="63.623047"/>
       <use xlink:href="#DejaVuSans-35" x="95.410156"/>
      </g>
     </g>
    </g>
    <g id="xtick_3">
     <g id="line2d_3">
      <g>
       <use xlink:href="#m400c1d5ea7" x="156.4675" y="174.04" style="stroke: #000000; stroke-width: 0.8"/>
      </g>
     </g>
     <g id="text_3">
      <!-- 1.0 -->
      <g transform="translate(148.515938 188.638438)scale(0.1 -0.1)">
       <defs>
        <path id="DejaVuSans-31" d="M 794 531 
L 1825 531 
L 1825 4091 
L 703 3866 
L 703 4441 
L 1819 4666 
L 2450 4666 
L 2450 531 
L 3481 531 
L 3481 0 
L 794 0 
L 794 531 
z
" transform="scale(0.015625)"/>
       </defs>
       <use xlink:href="#DejaVuSans-31"/>
       <use xlink:href="#DejaVuSans-2e" x="63.623047"/>
       <use xlink:href="#DejaVuSans-30" x="95.410156"/>
      </g>
     </g>
    </g>
    <g id="xtick_4">
     <g id="line2d_4">
      <g>
       <use xlink:href="#m400c1d5ea7" x="210.84125" y="174.04" style="stroke: #000000; stroke-width: 0.8"/>
      </g>
     </g>
     <g id="text_4">
      <!-- 1.5 -->
      <g transform="translate(202.889687 188.638438)scale(0.1 -0.1)">
       <use xlink:href="#DejaVuSans-31"/>
       <use xlink:href="#DejaVuSans-2e" x="63.623047"/>
       <use xlink:href="#DejaVuSans-35" x="95.410156"/>
      </g>
     </g>
    </g>
    <g id="xtick_5">
     <g id="line2d_5">
      <g>
       <use xlink:href="#m400c1d5ea7" x="265.215" y="174.04" style="stroke: #000000; stroke-width: 0.8"/>
      </g>
     </g>
     <g id="text_5">
      <!-- 2.0 -->
      <g transform="translate(257.263437 188.638438)scale(0.1 -0.1)">
       <defs>
        <path id="DejaVuSans-32" d="M 1228 531 
L 3431 531 
L 3431 0 
L 469 0 
L 469 531 
Q 828 903 1448 1529 
Q 2069 2156 2228 2338 
Q 2531 2678 2651 2914 
Q 2772 3150 2772 3378 
Q 2772 3750 2511 3984 
Q 2250 4219 1831 4219 
Q 1534 4219 1204 4116 
Q 875 4013 500 3803 
L 500 4441 
Q 881 4594 1212 4672 
Q 1544 4750 1819 4750 
Q 2544 4750 2975 4387 
Q 3406 4025 3406 3419 
Q 3406 3131 3298 2873 
Q 3191 2616 2906 2266 
Q 2828 2175 2409 1742 
Q 1991 1309 1228 531 
z
" transform="scale(0.015625)"/>
       </defs>
       <use xlink:href="#DejaVuSans-32"/>
       <use xlink:href="#DejaVuSans-2e" x="63.623047"/>
       <use xlink:href="#DejaVuSans-30" x="95.410156"/>
      </g>
     </g>
    </g>
    <g id="text_6">
     <!-- Influence of surprisal (multiplication) -->
     <g transform="translate(64.320625 202.316563)scale(0.1 -0.1)">
      <defs>
       <path id="DejaVuSans-49" d="M 628 4666 
L 1259 4666 
L 1259 0 
L 628 0 
L 628 4666 
z
" transform="scale(0.015625)"/>
       <path id="DejaVuSans-6e" d="M 3513 2113 
L 3513 0 
L 2938 0 
L 2938 2094 
Q 2938 2591 2744 2837 
Q 2550 3084 2163 3084 
Q 1697 3084 1428 2787 
Q 1159 2491 1159 1978 
L 1159 0 
L 581 0 
L 581 3500 
L 1159 3500 
L 1159 2956 
Q 1366 3272 1645 3428 
Q 1925 3584 2291 3584 
Q 2894 3584 3203 3211 
Q 3513 2838 3513 2113 
z
" transform="scale(0.015625)"/>
       <path id="DejaVuSans-66" d="M 2375 4863 
L 2375 4384 
L 1825 4384 
Q 1516 4384 1395 4259 
Q 1275 4134 1275 3809 
L 1275 3500 
L 2222 3500 
L 2222 3053 
L 1275 3053 
L 1275 0 
L 697 0 
L 697 3053 
L 147 3053 
L 147 3500 
L 697 3500 
L 697 3744 
Q 697 4328 969 4595 
Q 1241 4863 1831 4863 
L 2375 4863 
z
" transform="scale(0.015625)"/>
       <path id="DejaVuSans-6c" d="M 603 4863 
L 1178 4863 
L 1178 0 
L 603 0 
L 603 4863 
z
" transform="scale(0.015625)"/>
       <path id="DejaVuSans-75" d="M 544 1381 
L 544 3500 
L 1119 3500 
L 1119 1403 
Q 1119 906 1312 657 
Q 1506 409 1894 409 
Q 2359 409 2629 706 
Q 2900 1003 2900 1516 
L 2900 3500 
L 3475 3500 
L 3475 0 
L 2900 0 
L 2900 538 
Q 2691 219 2414 64 
Q 2138 -91 1772 -91 
Q 1169 -91 856 284 
Q 544 659 544 1381 
z
M 1991 3584 
L 1991 3584 
z
" transform="scale(0.015625)"/>
       <path id="DejaVuSans-65" d="M 3597 1894 
L 3597 1613 
L 953 1613 
Q 991 1019 1311 708 
Q 1631 397 2203 397 
Q 2534 397 2845 478 
Q 3156 559 3463 722 
L 3463 178 
Q 3153 47 2828 -22 
Q 2503 -91 2169 -91 
Q 1331 -91 842 396 
Q 353 884 353 1716 
Q 353 2575 817 3079 
Q 1281 3584 2069 3584 
Q 2775 3584 3186 3129 
Q 3597 2675 3597 1894 
z
M 3022 2063 
Q 3016 2534 2758 2815 
Q 2500 3097 2075 3097 
Q 1594 3097 1305 2825 
Q 1016 2553 972 2059 
L 3022 2063 
z
" transform="scale(0.015625)"/>
       <path id="DejaVuSans-63" d="M 3122 3366 
L 3122 2828 
Q 2878 2963 2633 3030 
Q 2388 3097 2138 3097 
Q 1578 3097 1268 2742 
Q 959 2388 959 1747 
Q 959 1106 1268 751 
Q 1578 397 2138 397 
Q 2388 397 2633 464 
Q 2878 531 3122 666 
L 3122 134 
Q 2881 22 2623 -34 
Q 2366 -91 2075 -91 
Q 1284 -91 818 406 
Q 353 903 353 1747 
Q 353 2603 823 3093 
Q 1294 3584 2113 3584 
Q 2378 3584 2631 3529 
Q 2884 3475 3122 3366 
z
" transform="scale(0.015625)"/>
       <path id="DejaVuSans-20" transform="scale(0.015625)"/>
       <path id="DejaVuSans-6f" d="M 1959 3097 
Q 1497 3097 1228 2736 
Q 959 2375 959 1747 
Q 959 1119 1226 758 
Q 1494 397 1959 397 
Q 2419 397 2687 759 
Q 2956 1122 2956 1747 
Q 2956 2369 2687 2733 
Q 2419 3097 1959 3097 
z
M 1959 3584 
Q 2709 3584 3137 3096 
Q 3566 2609 3566 1747 
Q 3566 888 3137 398 
Q 2709 -91 1959 -91 
Q 1206 -91 779 398 
Q 353 888 353 1747 
Q 353 2609 779 3096 
Q 1206 3584 1959 3584 
z
" transform="scale(0.015625)"/>
       <path id="DejaVuSans-73" d="M 2834 3397 
L 2834 2853 
Q 2591 2978 2328 3040 
Q 2066 3103 1784 3103 
Q 1356 3103 1142 2972 
Q 928 2841 928 2578 
Q 928 2378 1081 2264 
Q 1234 2150 1697 2047 
L 1894 2003 
Q 2506 1872 2764 1633 
Q 3022 1394 3022 966 
Q 3022 478 2636 193 
Q 2250 -91 1575 -91 
Q 1294 -91 989 -36 
Q 684 19 347 128 
L 347 722 
Q 666 556 975 473 
Q 1284 391 1588 391 
Q 1994 391 2212 530 
Q 2431 669 2431 922 
Q 2431 1156 2273 1281 
Q 2116 1406 1581 1522 
L 1381 1569 
Q 847 1681 609 1914 
Q 372 2147 372 2553 
Q 372 3047 722 3315 
Q 1072 3584 1716 3584 
Q 2034 3584 2315 3537 
Q 2597 3491 2834 3397 
z
" transform="scale(0.015625)"/>
       <path id="DejaVuSans-72" d="M 2631 2963 
Q 2534 3019 2420 3045 
Q 2306 3072 2169 3072 
Q 1681 3072 1420 2755 
Q 1159 2438 1159 1844 
L 1159 0 
L 581 0 
L 581 3500 
L 1159 3500 
L 1159 2956 
Q 1341 3275 1631 3429 
Q 1922 3584 2338 3584 
Q 2397 3584 2469 3576 
Q 2541 3569 2628 3553 
L 2631 2963 
z
" transform="scale(0.015625)"/>
       <path id="DejaVuSans-70" d="M 1159 525 
L 1159 -1331 
L 581 -1331 
L 581 3500 
L 1159 3500 
L 1159 2969 
Q 1341 3281 1617 3432 
Q 1894 3584 2278 3584 
Q 2916 3584 3314 3078 
Q 3713 2572 3713 1747 
Q 3713 922 3314 415 
Q 2916 -91 2278 -91 
Q 1894 -91 1617 61 
Q 1341 213 1159 525 
z
M 3116 1747 
Q 3116 2381 2855 2742 
Q 2594 3103 2138 3103 
Q 1681 3103 1420 2742 
Q 1159 2381 1159 1747 
Q 1159 1113 1420 752 
Q 1681 391 2138 391 
Q 2594 391 2855 752 
Q 3116 1113 3116 1747 
z
" transform="scale(0.015625)"/>
       <path id="DejaVuSans-69" d="M 603 3500 
L 1178 3500 
L 1178 0 
L 603 0 
L 603 3500 
z
M 603 4863 
L 1178 4863 
L 1178 4134 
L 603 4134 
L 603 4863 
z
" transform="scale(0.015625)"/>
       <path id="DejaVuSans-61" d="M 2194 1759 
Q 1497 1759 1228 1600 
Q 959 1441 959 1056 
Q 959 750 1161 570 
Q 1363 391 1709 391 
Q 2188 391 2477 730 
Q 2766 1069 2766 1631 
L 2766 1759 
L 2194 1759 
z
M 3341 1997 
L 3341 0 
L 2766 0 
L 2766 531 
Q 2569 213 2275 61 
Q 1981 -91 1556 -91 
Q 1019 -91 701 211 
Q 384 513 384 1019 
Q 384 1609 779 1909 
Q 1175 2209 1959 2209 
L 2766 2209 
L 2766 2266 
Q 2766 2663 2505 2880 
Q 2244 3097 1772 3097 
Q 1472 3097 1187 3025 
Q 903 2953 641 2809 
L 641 3341 
Q 956 3463 1253 3523 
Q 1550 3584 1831 3584 
Q 2591 3584 2966 3190 
Q 3341 2797 3341 1997 
z
" transform="scale(0.015625)"/>
       <path id="DejaVuSans-28" d="M 1984 4856 
Q 1566 4138 1362 3434 
Q 1159 2731 1159 2009 
Q 1159 1288 1364 580 
Q 1569 -128 1984 -844 
L 1484 -844 
Q 1016 -109 783 600 
Q 550 1309 550 2009 
Q 550 2706 781 3412 
Q 1013 4119 1484 4856 
L 1984 4856 
z
" transform="scale(0.015625)"/>
       <path id="DejaVuSans-6d" d="M 3328 2828 
Q 3544 3216 3844 3400 
Q 4144 3584 4550 3584 
Q 5097 3584 5394 3201 
Q 5691 2819 5691 2113 
L 5691 0 
L 5113 0 
L 5113 2094 
Q 5113 2597 4934 2840 
Q 4756 3084 4391 3084 
Q 3944 3084 3684 2787 
Q 3425 2491 3425 1978 
L 3425 0 
L 2847 0 
L 2847 2094 
Q 2847 2600 2669 2842 
Q 2491 3084 2119 3084 
Q 1678 3084 1418 2786 
Q 1159 2488 1159 1978 
L 1159 0 
L 581 0 
L 581 3500 
L 1159 3500 
L 1159 2956 
Q 1356 3278 1631 3431 
Q 1906 3584 2284 3584 
Q 2666 3584 2933 3390 
Q 3200 3197 3328 2828 
z
" transform="scale(0.015625)"/>
       <path id="DejaVuSans-74" d="M 1172 4494 
L 1172 3500 
L 2356 3500 
L 2356 3053 
L 1172 3053 
L 1172 1153 
Q 1172 725 1289 603 
Q 1406 481 1766 481 
L 2356 481 
L 2356 0 
L 1766 0 
Q 1100 0 847 248 
Q 594 497 594 1153 
L 594 3053 
L 172 3053 
L 172 3500 
L 594 3500 
L 594 4494 
L 1172 4494 
z
" transform="scale(0.015625)"/>
       <path id="DejaVuSans-29" d="M 513 4856 
L 1013 4856 
Q 1481 4119 1714 3412 
Q 1947 2706 1947 2009 
Q 1947 1309 1714 600 
Q 1481 -109 1013 -844 
L 513 -844 
Q 928 -128 1133 580 
Q 1338 1288 1338 2009 
Q 1338 2731 1133 3434 
Q 928 4138 513 4856 
z
" transform="scale(0.015625)"/>
      </defs>
      <use xlink:href="#DejaVuSans-49"/>
      <use xlink:href="#DejaVuSans-6e" x="29.492188"/>
      <use xlink:href="#DejaVuSans-66" x="92.871094"/>
      <use xlink:href="#DejaVuSans-6c" x="128.076172"/>
      <use xlink:href="#DejaVuSans-75" x="155.859375"/>
      <use xlink:href="#DejaVuSans-65" x="219.238281"/>
      <use xlink:href="#DejaVuSans-6e" x="280.761719"/>
      <use xlink:href="#DejaVuSans-63" x="344.140625"/>
      <use xlink:href="#DejaVuSans-65" x="399.121094"/>
      <use xlink:href="#DejaVuSans-20" x="460.644531"/>
      <use xlink:href="#DejaVuSans-6f" x="492.431641"/>
      <use xlink:href="#DejaVuSans-66" x="553.613281"/>
      <use xlink:href="#DejaVuSans-20" x="588.818359"/>
      <use xlink:href="#DejaVuSans-73" x="620.605469"/>
      <use xlink:href="#DejaVuSans-75" x="672.705078"/>
      <use xlink:href="#DejaVuSans-72" x="736.083984"/>
      <use xlink:href="#DejaVuSans-70" x="777.197266"/>
      <use xlink:href="#DejaVuSans-72" x="840.673828"/>
      <use xlink:href="#DejaVuSans-69" x="881.787109"/>
      <use xlink:href="#DejaVuSans-73" x="909.570312"/>
      <use xlink:href="#DejaVuSans-61" x="961.669922"/>
      <use xlink:href="#DejaVuSans-6c" x="1022.949219"/>
      <use xlink:href="#DejaVuSans-20" x="1050.732422"/>
      <use xlink:href="#DejaVuSans-28" x="1082.519531"/>
      <use xlink:href="#DejaVuSans-6d" x="1121.533203"/>
      <use xlink:href="#DejaVuSans-75" x="1218.945312"/>
      <use xlink:href="#DejaVuSans-6c" x="1282.324219"/>
      <use xlink:href="#DejaVuSans-74" x="1310.107422"/>
      <use xlink:href="#DejaVuSans-69" x="1349.316406"/>
      <use xlink:href="#DejaVuSans-70" x="1377.099609"/>
      <use xlink:href="#DejaVuSans-6c" x="1440.576172"/>
      <use xlink:href="#DejaVuSans-69" x="1468.359375"/>
      <use xlink:href="#DejaVuSans-63" x="1496.142578"/>
      <use xlink:href="#DejaVuSans-61" x="1551.123047"/>
      <use xlink:href="#DejaVuSans-74" x="1612.402344"/>
      <use xlink:href="#DejaVuSans-69" x="1651.611328"/>
      <use xlink:href="#DejaVuSans-6f" x="1679.394531"/>
      <use xlink:href="#DejaVuSans-6e" x="1740.576172"/>
      <use xlink:href="#DejaVuSans-29" x="1803.955078"/>
     </g>
    </g>
   </g>
   <g id="matplotlib.axis_2">
    <g id="ytick_1">
     <g id="line2d_6">
      <defs>
       <path id="mbcb596619f" d="M 0 0 
L -3.5 0 
" style="stroke: #000000; stroke-width: 0.8"/>
      </defs>
      <g>
       <use xlink:href="#mbcb596619f" x="47.72" y="140.000494" style="stroke: #000000; stroke-width: 0.8"/>
      </g>
     </g>
     <g id="text_7">
      <!-- 0.4 -->
      <g transform="translate(24.816875 143.799713)scale(0.1 -0.1)">
       <defs>
        <path id="DejaVuSans-34" d="M 2419 4116 
L 825 1625 
L 2419 1625 
L 2419 4116 
z
M 2253 4666 
L 3047 4666 
L 3047 1625 
L 3713 1625 
L 3713 1100 
L 3047 1100 
L 3047 0 
L 2419 0 
L 2419 1100 
L 313 1100 
L 313 1709 
L 2253 4666 
z
" transform="scale(0.015625)"/>
       </defs>
       <use xlink:href="#DejaVuSans-30"/>
       <use xlink:href="#DejaVuSans-2e" x="63.623047"/>
       <use xlink:href="#DejaVuSans-34" x="95.410156"/>
      </g>
     </g>
    </g>
    <g id="ytick_2">
     <g id="line2d_7">
      <g>
       <use xlink:href="#mbcb596619f" x="47.72" y="101.216838" style="stroke: #000000; stroke-width: 0.8"/>
      </g>
     </g>
     <g id="text_8">
      <!-- 0.6 -->
      <g transform="translate(24.816875 105.016057)scale(0.1 -0.1)">
       <defs>
        <path id="DejaVuSans-36" d="M 2113 2584 
Q 1688 2584 1439 2293 
Q 1191 2003 1191 1497 
Q 1191 994 1439 701 
Q 1688 409 2113 409 
Q 2538 409 2786 701 
Q 3034 994 3034 1497 
Q 3034 2003 2786 2293 
Q 2538 2584 2113 2584 
z
M 3366 4563 
L 3366 3988 
Q 3128 4100 2886 4159 
Q 2644 4219 2406 4219 
Q 1781 4219 1451 3797 
Q 1122 3375 1075 2522 
Q 1259 2794 1537 2939 
Q 1816 3084 2150 3084 
Q 2853 3084 3261 2657 
Q 3669 2231 3669 1497 
Q 3669 778 3244 343 
Q 2819 -91 2113 -91 
Q 1303 -91 875 529 
Q 447 1150 447 2328 
Q 447 3434 972 4092 
Q 1497 4750 2381 4750 
Q 2619 4750 2861 4703 
Q 3103 4656 3366 4563 
z
" transform="scale(0.015625)"/>
       </defs>
       <use xlink:href="#DejaVuSans-30"/>
       <use xlink:href="#DejaVuSans-2e" x="63.623047"/>
       <use xlink:href="#DejaVuSans-36" x="95.410156"/>
      </g>
     </g>
    </g>
    <g id="ytick_3">
     <g id="line2d_8">
      <g>
       <use xlink:href="#mbcb596619f" x="47.72" y="62.433182" style="stroke: #000000; stroke-width: 0.8"/>
      </g>
     </g>
     <g id="text_9">
      <!-- 0.8 -->
      <g transform="translate(24.816875 66.232401)scale(0.1 -0.1)">
       <defs>
        <path id="DejaVuSans-38" d="M 2034 2216 
Q 1584 2216 1326 1975 
Q 1069 1734 1069 1313 
Q 1069 891 1326 650 
Q 1584 409 2034 409 
Q 2484 409 2743 651 
Q 3003 894 3003 1313 
Q 3003 1734 2745 1975 
Q 2488 2216 2034 2216 
z
M 1403 2484 
Q 997 2584 770 2862 
Q 544 3141 544 3541 
Q 544 4100 942 4425 
Q 1341 4750 2034 4750 
Q 2731 4750 3128 4425 
Q 3525 4100 3525 3541 
Q 3525 3141 3298 2862 
Q 3072 2584 2669 2484 
Q 3125 2378 3379 2068 
Q 3634 1759 3634 1313 
Q 3634 634 3220 271 
Q 2806 -91 2034 -91 
Q 1263 -91 848 271 
Q 434 634 434 1313 
Q 434 1759 690 2068 
Q 947 2378 1403 2484 
z
M 1172 3481 
Q 1172 3119 1398 2916 
Q 1625 2713 2034 2713 
Q 2441 2713 2670 2916 
Q 2900 3119 2900 3481 
Q 2900 3844 2670 4047 
Q 2441 4250 2034 4250 
Q 1625 4250 1398 4047 
Q 1172 3844 1172 3481 
z
" transform="scale(0.015625)"/>
       </defs>
       <use xlink:href="#DejaVuSans-30"/>
       <use xlink:href="#DejaVuSans-2e" x="63.623047"/>
       <use xlink:href="#DejaVuSans-38" x="95.410156"/>
      </g>
     </g>
    </g>
    <g id="text_10">
     <!-- R-value -->
     <g transform="translate(18.737188 119.064687)rotate(-90)scale(0.1 -0.1)">
      <defs>
       <path id="DejaVuSans-52" d="M 2841 2188 
Q 3044 2119 3236 1894 
Q 3428 1669 3622 1275 
L 4263 0 
L 3584 0 
L 2988 1197 
Q 2756 1666 2539 1819 
Q 2322 1972 1947 1972 
L 1259 1972 
L 1259 0 
L 628 0 
L 628 4666 
L 2053 4666 
Q 2853 4666 3247 4331 
Q 3641 3997 3641 3322 
Q 3641 2881 3436 2590 
Q 3231 2300 2841 2188 
z
M 1259 4147 
L 1259 2491 
L 2053 2491 
Q 2509 2491 2742 2702 
Q 2975 2913 2975 3322 
Q 2975 3731 2742 3939 
Q 2509 4147 2053 4147 
L 1259 4147 
z
" transform="scale(0.015625)"/>
       <path id="DejaVuSans-2d" d="M 313 2009 
L 1997 2009 
L 1997 1497 
L 313 1497 
L 313 2009 
z
" transform="scale(0.015625)"/>
       <path id="DejaVuSans-76" d="M 191 3500 
L 800 3500 
L 1894 563 
L 2988 3500 
L 3597 3500 
L 2284 0 
L 1503 0 
L 191 3500 
z
" transform="scale(0.015625)"/>
      </defs>
      <use xlink:href="#DejaVuSans-52"/>
      <use xlink:href="#DejaVuSans-2d" x="65.482422"/>
      <use xlink:href="#DejaVuSans-76" x="98.941406"/>
      <use xlink:href="#DejaVuSans-61" x="158.121094"/>
      <use xlink:href="#DejaVuSans-6c" x="219.400391"/>
      <use xlink:href="#DejaVuSans-75" x="247.183594"/>
      <use xlink:href="#DejaVuSans-65" x="310.5625"/>
     </g>
    </g>
   </g>
   <g id="line2d_9">
    <path d="M 47.72 34.008019 
L 59.167105 34.974183 
L 70.614211 37.790252 
L 82.061316 42.042994 
L 93.508421 47.358817 
L 104.955526 53.678177 
L 116.402632 61.164502 
L 127.849737 67.86491 
L 139.296842 75.793108 
L 150.743947 83.349365 
L 162.191053 91.090054 
L 173.638158 98.03165 
L 185.085263 105.251502 
L 196.532368 112.503954 
L 207.979474 118.681793 
L 219.426579 125.070707 
L 230.873684 130.994153 
L 242.320789 136.383461 
L 253.767895 142.08218 
L 265.215 147.201021 
" clip-path="url(#pbe0259e878)" style="fill: none; stroke: #1f77b4; stroke-width: 1.5; stroke-linecap: square"/>
   </g>
   <g id="line2d_10">
    <path d="M 47.72 34.026613 
L 59.167105 34.622334 
L 70.614211 36.077889 
L 82.061316 38.448574 
L 93.508421 41.598539 
L 104.955526 45.740569 
L 116.402632 50.983519 
L 127.849737 55.889678 
L 139.296842 62.329323 
L 150.743947 68.755735 
L 162.191053 75.646718 
L 173.638158 82.07836 
L 185.085263 89.016697 
L 196.532368 95.943298 
L 207.979474 101.833906 
L 219.426579 108.094014 
L 230.873684 113.906662 
L 242.320789 119.219625 
L 253.767895 124.800754 
L 265.215 129.867811 
" clip-path="url(#pbe0259e878)" style="fill: none; stroke: #ff7f0e; stroke-width: 1.5; stroke-linecap: square"/>
   </g>
   <g id="line2d_11">
    <path d="M 47.72 34.017775 
L 59.167105 34.751793 
L 70.614211 36.026318 
L 82.061316 37.950518 
L 93.508421 40.339114 
L 104.955526 43.102979 
L 116.402632 46.512186 
L 127.849737 49.563482 
L 139.296842 53.281839 
L 150.743947 56.88388 
L 162.191053 60.690258 
L 173.638158 64.214468 
L 185.085263 67.932854 
L 196.532368 71.74681 
L 207.979474 74.866984 
L 219.426579 78.512227 
L 230.873684 82.062913 
L 242.320789 85.241517 
L 253.767895 89.055493 
L 265.215 92.462708 
" clip-path="url(#pbe0259e878)" style="fill: none; stroke: #2ca02c; stroke-width: 1.5; stroke-linecap: square"/>
   </g>
   <g id="line2d_12">
    <path d="M 47.72 34.041897 
L 59.167105 34.606551 
L 70.614211 35.50133 
L 82.061316 36.946191 
L 93.508421 38.786639 
L 104.955526 41.101525 
L 116.402632 44.120146 
L 127.849737 46.869149 
L 139.296842 50.529705 
L 150.743947 54.18688 
L 162.191053 58.141672 
L 173.638158 61.854795 
L 185.085263 65.782151 
L 196.532368 69.737299 
L 207.979474 73.017251 
L 219.426579 76.789588 
L 230.873684 80.57417 
L 242.320789 83.88053 
L 253.767895 87.85368 
L 265.215 91.307934 
" clip-path="url(#pbe0259e878)" style="fill: none; stroke: #d62728; stroke-width: 1.5; stroke-linecap: square"/>
   </g>
   <g id="line2d_13">
    <path d="M 47.72 34.025611 
L 59.167105 34.993174 
L 70.614211 37.813838 
L 82.061316 42.08605 
L 93.508421 47.383283 
L 104.955526 53.728794 
L 116.402632 61.201163 
L 127.849737 67.975699 
L 139.296842 75.906741 
L 150.743947 83.348128 
L 162.191053 91.080105 
L 173.638158 98.226241 
L 185.085263 105.420959 
L 196.532368 112.907891 
L 207.979474 119.137351 
L 219.426579 125.329087 
L 230.873684 131.456564 
L 242.320789 136.8142 
L 253.767895 142.171855 
L 265.215 147.521857 
" clip-path="url(#pbe0259e878)" style="fill: none; stroke: #9467bd; stroke-width: 1.5; stroke-linecap: square"/>
   </g>
   <g id="line2d_14">
    <path d="M 47.72 34.044923 
L 59.167105 34.642517 
L 70.614211 36.106118 
L 82.061316 38.472403 
L 93.508421 41.631245 
L 104.955526 45.778125 
L 116.402632 51.048338 
L 127.849737 55.950899 
L 139.296842 62.334172 
L 150.743947 68.772549 
L 162.191053 75.589537 
L 173.638158 82.223193 
L 185.085263 89.26296 
L 196.532368 96.18997 
L 207.979474 102.207416 
L 219.426579 108.317704 
L 230.873684 114.111399 
L 242.320789 119.50414 
L 253.767895 124.681737 
L 265.215 130.147778 
" clip-path="url(#pbe0259e878)" style="fill: none; stroke: #8c564b; stroke-width: 1.5; stroke-linecap: square"/>
   </g>
   <g id="line2d_15">
    <path d="M 47.72 48.963527 
L 59.167105 50.235011 
L 70.614211 53.605286 
L 82.061316 58.905759 
L 93.508421 65.29916 
L 104.955526 72.791953 
L 116.402632 81.047153 
L 127.849737 88.716574 
L 139.296842 97.05949 
L 150.743947 104.784501 
L 162.191053 112.379909 
L 173.638158 119.530819 
L 185.085263 126.256518 
L 196.532368 132.690094 
L 207.979474 138.406182 
L 219.426579 143.882087 
L 230.873684 148.929549 
L 242.320789 153.253726 
L 253.767895 157.947116 
L 265.215 162.016148 
" clip-path="url(#pbe0259e878)" style="fill: none; stroke: #e377c2; stroke-width: 1.5; stroke-linecap: square"/>
   </g>
   <g id="line2d_16">
    <path d="M 47.72 34.044144 
L 59.167105 34.293914 
L 70.614211 34.404704 
L 82.061316 34.979673 
L 93.508421 36.06356 
L 104.955526 38.119586 
L 116.402632 41.476907 
L 127.849737 44.980122 
L 139.296842 50.140744 
L 150.743947 55.569421 
L 162.191053 61.587405 
L 173.638158 67.585631 
L 185.085263 74.034041 
L 196.532368 80.722714 
L 207.979474 86.543594 
L 219.426579 92.858535 
L 230.873684 98.895639 
L 242.320789 104.507035 
L 253.767895 110.36029 
L 265.215 115.942815 
" clip-path="url(#pbe0259e878)" style="fill: none; stroke: #7f7f7f; stroke-width: 1.5; stroke-linecap: square"/>
   </g>
   <g id="patch_3">
    <path d="M 47.72 174.04 
L 47.72 26.88 
" style="fill: none; stroke: #000000; stroke-width: 0.8; stroke-linejoin: miter; stroke-linecap: square"/>
   </g>
   <g id="patch_4">
    <path d="M 47.72 174.04 
L 265.215 174.04 
" style="fill: none; stroke: #000000; stroke-width: 0.8; stroke-linejoin: miter; stroke-linecap: square"/>
   </g>
   <g id="text_11">
    <!-- Node * surprisal -->
    <g transform="translate(108.18625 20.88)scale(0.12 -0.12)">
     <defs>
      <path id="DejaVuSans-4e" d="M 628 4666 
L 1478 4666 
L 3547 763 
L 3547 4666 
L 4159 4666 
L 4159 0 
L 3309 0 
L 1241 3903 
L 1241 0 
L 628 0 
L 628 4666 
z
" transform="scale(0.015625)"/>
      <path id="DejaVuSans-64" d="M 2906 2969 
L 2906 4863 
L 3481 4863 
L 3481 0 
L 2906 0 
L 2906 525 
Q 2725 213 2448 61 
Q 2172 -91 1784 -91 
Q 1150 -91 751 415 
Q 353 922 353 1747 
Q 353 2572 751 3078 
Q 1150 3584 1784 3584 
Q 2172 3584 2448 3432 
Q 2725 3281 2906 2969 
z
M 947 1747 
Q 947 1113 1208 752 
Q 1469 391 1925 391 
Q 2381 391 2643 752 
Q 2906 1113 2906 1747 
Q 2906 2381 2643 2742 
Q 2381 3103 1925 3103 
Q 1469 3103 1208 2742 
Q 947 2381 947 1747 
z
" transform="scale(0.015625)"/>
      <path id="DejaVuSans-2a" d="M 3009 3897 
L 1888 3291 
L 3009 2681 
L 2828 2375 
L 1778 3009 
L 1778 1831 
L 1422 1831 
L 1422 3009 
L 372 2375 
L 191 2681 
L 1313 3291 
L 191 3897 
L 372 4206 
L 1422 3572 
L 1422 4750 
L 1778 4750 
L 1778 3572 
L 2828 4206 
L 3009 3897 
z
" transform="scale(0.015625)"/>
     </defs>
     <use xlink:href="#DejaVuSans-4e"/>
     <use xlink:href="#DejaVuSans-6f" x="74.804688"/>
     <use xlink:href="#DejaVuSans-64" x="135.986328"/>
     <use xlink:href="#DejaVuSans-65" x="199.462891"/>
     <use xlink:href="#DejaVuSans-20" x="260.986328"/>
     <use xlink:href="#DejaVuSans-2a" x="292.773438"/>
     <use xlink:href="#DejaVuSans-20" x="342.773438"/>
     <use xlink:href="#DejaVuSans-73" x="374.560547"/>
     <use xlink:href="#DejaVuSans-75" x="426.660156"/>
     <use xlink:href="#DejaVuSans-72" x="490.039062"/>
     <use xlink:href="#DejaVuSans-70" x="531.152344"/>
     <use xlink:href="#DejaVuSans-72" x="594.628906"/>
     <use xlink:href="#DejaVuSans-69" x="635.742188"/>
     <use xlink:href="#DejaVuSans-73" x="663.525391"/>
     <use xlink:href="#DejaVuSans-61" x="715.625"/>
     <use xlink:href="#DejaVuSans-6c" x="776.904297"/>
    </g>
   </g>
  </g>
  <g id="axes_2">
   <g id="patch_5">
    <path d="M 298.065 174.04 
L 515.56 174.04 
L 515.56 26.88 
L 298.065 26.88 
z
" style="fill: #ffffff"/>
   </g>
   <g id="PolyCollection_9">
    <path d="M 298.065 33.569091 
L 298.065 34.410714 
L 309.512105 35.454049 
L 320.959211 38.2012 
L 332.406316 42.915412 
L 343.853421 48.295697 
L 355.300526 55.473969 
L 366.747632 63.484968 
L 378.194737 71.858484 
L 389.641842 80.93087 
L 401.088947 89.895205 
L 412.536053 98.369888 
L 423.983158 106.268568 
L 435.430263 113.722354 
L 446.877368 121.79048 
L 458.324474 127.925869 
L 469.771579 133.743695 
L 481.218684 140.148311 
L 492.665789 145.093993 
L 504.112895 149.412631 
L 515.56 154.305893 
L 515.56 133.468933 
L 515.56 133.468933 
L 504.112895 128.356075 
L 492.665789 123.354794 
L 481.218684 118.156096 
L 469.771579 112.77216 
L 458.324474 105.642279 
L 446.877368 99.851525 
L 435.430263 93.950878 
L 423.983158 87.508471 
L 412.536053 80.943729 
L 401.088947 74.472039 
L 389.641842 68.123028 
L 378.194737 61.308014 
L 366.747632 55.250384 
L 355.300526 49.739274 
L 343.853421 44.446449 
L 332.406316 39.964114 
L 320.959211 36.720122 
L 309.512105 34.462202 
L 298.065 33.569091 
z
" clip-path="url(#p621c1ca78f)" style="fill: #1f77b4; fill-opacity: 0.4"/>
   </g>
   <g id="PolyCollection_10">
    <path d="M 298.065 33.586619 
L 298.065 34.429133 
L 309.512105 35.479538 
L 320.959211 38.21754 
L 332.406316 42.933238 
L 343.853421 48.316483 
L 355.300526 55.534971 
L 366.747632 63.559625 
L 378.194737 71.931285 
L 389.641842 81.01228 
L 401.088947 89.985572 
L 412.536053 98.469551 
L 423.983158 106.376226 
L 435.430263 113.855241 
L 446.877368 121.941604 
L 458.324474 128.142992 
L 469.771579 133.97793 
L 481.218684 140.379104 
L 492.665789 145.370764 
L 504.112895 149.673541 
L 515.56 154.610137 
L 515.56 134.484554 
L 515.56 134.484554 
L 504.112895 129.239119 
L 492.665789 124.018987 
L 481.218684 118.696342 
L 469.771579 113.277551 
L 458.324474 106.051919 
L 446.877368 100.194827 
L 435.430263 94.201365 
L 423.983158 87.712868 
L 412.536053 81.115934 
L 401.088947 74.592574 
L 389.641842 68.226201 
L 378.194737 61.378101 
L 366.747632 55.3108 
L 355.300526 49.776907 
L 343.853421 44.485689 
L 332.406316 39.983481 
L 320.959211 36.732445 
L 309.512105 34.485563 
L 298.065 33.586619 
z
" clip-path="url(#p621c1ca78f)" style="fill: #ff7f0e; fill-opacity: 0.4"/>
   </g>
   <g id="PolyCollection_11">
    <path d="M 298.065 33.587672 
L 298.065 34.423346 
L 309.512105 35.479166 
L 320.959211 38.214209 
L 332.406316 42.980609 
L 343.853421 48.378526 
L 355.300526 55.674279 
L 366.747632 63.737293 
L 378.194737 72.193517 
L 389.641842 81.311791 
L 401.088947 90.37732 
L 412.536053 98.954937 
L 423.983158 106.879281 
L 435.430263 114.395809 
L 446.877368 122.592534 
L 458.324474 128.871122 
L 469.771579 134.727509 
L 481.218684 141.118747 
L 492.665789 145.987701 
L 504.112895 150.351709 
L 515.56 155.18435 
L 515.56 134.44484 
L 515.56 134.44484 
L 504.112895 129.170499 
L 492.665789 124.005829 
L 481.218684 118.584317 
L 469.771579 113.207157 
L 458.324474 105.990663 
L 446.877368 100.121204 
L 435.430263 94.151682 
L 423.983158 87.674471 
L 412.536053 81.064003 
L 401.088947 74.488884 
L 389.641842 68.110592 
L 378.194737 61.30543 
L 366.747632 55.222849 
L 355.300526 49.714802 
L 343.853421 44.480145 
L 332.406316 39.967616 
L 320.959211 36.721637 
L 309.512105 34.480305 
L 298.065 33.587672 
z
" clip-path="url(#p621c1ca78f)" style="fill: #2ca02c; fill-opacity: 0.4"/>
   </g>
   <g id="PolyCollection_12">
    <path d="M 298.065 33.600995 
L 298.065 34.444682 
L 309.512105 35.492845 
L 320.959211 38.234692 
L 332.406316 42.977376 
L 343.853421 48.372417 
L 355.300526 55.693238 
L 366.747632 63.770329 
L 378.194737 72.203364 
L 389.641842 81.355274 
L 401.088947 90.414309 
L 412.536053 99.029742 
L 423.983158 106.976938 
L 435.430263 114.516445 
L 446.877368 122.747516 
L 458.324474 129.08825 
L 469.771579 134.974858 
L 481.218684 141.385942 
L 492.665789 146.336797 
L 504.112895 150.796174 
L 515.56 155.669286 
L 515.56 135.126426 
L 515.56 135.126426 
L 504.112895 129.742109 
L 492.665789 124.523075 
L 481.218684 119.045881 
L 469.771579 113.614034 
L 458.324474 106.318071 
L 446.877368 100.419753 
L 435.430263 94.406279 
L 423.983158 87.912907 
L 412.536053 81.261036 
L 401.088947 74.656856 
L 389.641842 68.268438 
L 378.194737 61.41244 
L 366.747632 55.330315 
L 355.300526 49.778193 
L 343.853421 44.55692 
L 332.406316 40.010062 
L 320.959211 36.743657 
L 309.512105 34.512416 
L 298.065 33.600995 
z
" clip-path="url(#p621c1ca78f)" style="fill: #d62728; fill-opacity: 0.4"/>
   </g>
   <g id="PolyCollection_13">
    <path d="M 298.065 33.58664 
L 298.065 34.413245 
L 309.512105 35.468304 
L 320.959211 38.215645 
L 332.406316 42.90634 
L 343.853421 48.354758 
L 355.300526 55.535978 
L 366.747632 63.591397 
L 378.194737 71.95121 
L 389.641842 81.090333 
L 401.088947 89.999963 
L 412.536053 98.379261 
L 423.983158 106.823414 
L 435.430263 113.701765 
L 446.877368 122.309345 
L 458.324474 127.97828 
L 469.771579 133.866095 
L 481.218684 139.797518 
L 492.665789 145.693623 
L 504.112895 149.779165 
L 515.56 154.807209 
L 515.56 134.241378 
L 515.56 134.241378 
L 504.112895 128.885395 
L 492.665789 123.89033 
L 481.218684 118.554179 
L 469.771579 113.152722 
L 458.324474 105.997125 
L 446.877368 100.391938 
L 435.430263 94.313229 
L 423.983158 87.605198 
L 412.536053 81.152545 
L 401.088947 74.753386 
L 389.641842 68.286659 
L 378.194737 61.457887 
L 366.747632 55.407315 
L 355.300526 49.728055 
L 343.853421 44.462896 
L 332.406316 39.990416 
L 320.959211 36.774551 
L 309.512105 34.476664 
L 298.065 33.58664 
z
" clip-path="url(#p621c1ca78f)" style="fill: #9467bd; fill-opacity: 0.4"/>
   </g>
   <g id="PolyCollection_14">
    <path d="M 298.065 33.604249 
L 298.065 34.432792 
L 309.512105 35.49416 
L 320.959211 38.233457 
L 332.406316 42.925309 
L 343.853421 48.377244 
L 355.300526 55.603488 
L 366.747632 63.662134 
L 378.194737 72.023963 
L 389.641842 81.164342 
L 401.088947 90.096423 
L 412.536053 98.480837 
L 423.983158 106.914405 
L 435.430263 113.818141 
L 446.877368 122.463269 
L 458.324474 128.183361 
L 469.771579 134.089317 
L 481.218684 140.020217 
L 492.665789 145.97246 
L 504.112895 150.025213 
L 515.56 155.170714 
L 515.56 135.225192 
L 515.56 135.225192 
L 504.112895 129.746585 
L 492.665789 124.568916 
L 481.218684 119.077169 
L 469.771579 113.663518 
L 458.324474 106.452874 
L 446.877368 100.688873 
L 435.430263 94.53686 
L 423.983158 87.815024 
L 412.536053 81.336265 
L 401.088947 74.881031 
L 389.641842 68.400154 
L 378.194737 61.535102 
L 366.747632 55.472293 
L 355.300526 49.766986 
L 343.853421 44.5057 
L 332.406316 40.013096 
L 320.959211 36.787186 
L 309.512105 34.501362 
L 298.065 33.604249 
z
" clip-path="url(#p621c1ca78f)" style="fill: #8c564b; fill-opacity: 0.4"/>
   </g>
   <g id="PolyCollection_15">
    <path d="M 298.065 47.490451 
L 298.065 50.425982 
L 309.512105 51.376246 
L 320.959211 53.687607 
L 332.406316 58.088729 
L 343.853421 62.931572 
L 355.300526 69.891238 
L 366.747632 77.169171 
L 378.194737 85.475013 
L 389.641842 93.897148 
L 401.088947 102.419886 
L 412.536053 110.188675 
L 423.983158 117.599057 
L 435.430263 124.294462 
L 446.877368 131.607374 
L 458.324474 136.731627 
L 469.771579 141.921575 
L 481.218684 147.616234 
L 492.665789 151.98222 
L 504.112895 155.748266 
L 515.56 160.199313 
L 515.56 141.218919 
L 515.56 141.218919 
L 504.112895 136.446491 
L 492.665789 131.538626 
L 481.218684 126.653685 
L 469.771579 121.693174 
L 458.324474 115.029705 
L 446.877368 109.42092 
L 435.430263 103.92164 
L 423.983158 97.658522 
L 412.536053 91.835981 
L 401.088947 85.749684 
L 389.641842 79.82291 
L 378.194737 73.592535 
L 366.747632 68.065007 
L 355.300526 63.023505 
L 343.853421 58.063928 
L 332.406316 53.833795 
L 320.959211 50.713502 
L 309.512105 48.323406 
L 298.065 47.490451 
z
" clip-path="url(#p621c1ca78f)" style="fill: #e377c2; fill-opacity: 0.4"/>
   </g>
   <g id="PolyCollection_16">
    <path d="M 298.065 33.609803 
L 298.065 34.457252 
L 309.512105 35.498029 
L 320.959211 38.217553 
L 332.406316 42.948588 
L 343.853421 48.316176 
L 355.300526 55.578269 
L 366.747632 63.567003 
L 378.194737 71.934853 
L 389.641842 81.010015 
L 401.088947 90.040309 
L 412.536053 98.511625 
L 423.983158 106.420424 
L 435.430263 113.976441 
L 446.877368 122.067563 
L 458.324474 128.307319 
L 469.771579 134.208992 
L 481.218684 140.601952 
L 492.665789 145.66395 
L 504.112895 150.027536 
L 515.56 154.972467 
L 515.56 135.556533 
L 515.56 135.556533 
L 504.112895 130.128937 
L 492.665789 124.836352 
L 481.218684 119.28402 
L 469.771579 113.874328 
L 458.324474 106.49883 
L 446.877368 100.568625 
L 435.430263 94.447232 
L 423.983158 87.940037 
L 412.536053 81.312738 
L 401.088947 74.668605 
L 389.641842 68.304776 
L 378.194737 61.431881 
L 366.747632 55.35983 
L 355.300526 49.808146 
L 343.853421 44.537629 
L 332.406316 40.009222 
L 320.959211 36.752104 
L 309.512105 34.511836 
L 298.065 33.609803 
z
" clip-path="url(#p621c1ca78f)" style="fill: #7f7f7f; fill-opacity: 0.4"/>
   </g>
   <g id="matplotlib.axis_3">
    <g id="xtick_6">
     <g id="line2d_17">
      <g>
       <use xlink:href="#m400c1d5ea7" x="298.065" y="174.04" style="stroke: #000000; stroke-width: 0.8"/>
      </g>
     </g>
     <g id="text_12">
      <!-- 0.0 -->
      <g transform="translate(290.113437 188.638438)scale(0.1 -0.1)">
       <use xlink:href="#DejaVuSans-30"/>
       <use xlink:href="#DejaVuSans-2e" x="63.623047"/>
       <use xlink:href="#DejaVuSans-30" x="95.410156"/>
      </g>
     </g>
    </g>
    <g id="xtick_7">
     <g id="line2d_18">
      <g>
       <use xlink:href="#m400c1d5ea7" x="352.43875" y="174.04" style="stroke: #000000; stroke-width: 0.8"/>
      </g>
     </g>
     <g id="text_13">
      <!-- 0.5 -->
      <g transform="translate(344.487187 188.638438)scale(0.1 -0.1)">
       <use xlink:href="#DejaVuSans-30"/>
       <use xlink:href="#DejaVuSans-2e" x="63.623047"/>
       <use xlink:href="#DejaVuSans-35" x="95.410156"/>
      </g>
     </g>
    </g>
    <g id="xtick_8">
     <g id="line2d_19">
      <g>
       <use xlink:href="#m400c1d5ea7" x="406.8125" y="174.04" style="stroke: #000000; stroke-width: 0.8"/>
      </g>
     </g>
     <g id="text_14">
      <!-- 1.0 -->
      <g transform="translate(398.860937 188.638438)scale(0.1 -0.1)">
       <use xlink:href="#DejaVuSans-31"/>
       <use xlink:href="#DejaVuSans-2e" x="63.623047"/>
       <use xlink:href="#DejaVuSans-30" x="95.410156"/>
      </g>
     </g>
    </g>
    <g id="xtick_9">
     <g id="line2d_20">
      <g>
       <use xlink:href="#m400c1d5ea7" x="461.18625" y="174.04" style="stroke: #000000; stroke-width: 0.8"/>
      </g>
     </g>
     <g id="text_15">
      <!-- 1.5 -->
      <g transform="translate(453.234687 188.638438)scale(0.1 -0.1)">
       <use xlink:href="#DejaVuSans-31"/>
       <use xlink:href="#DejaVuSans-2e" x="63.623047"/>
       <use xlink:href="#DejaVuSans-35" x="95.410156"/>
      </g>
     </g>
    </g>
    <g id="xtick_10">
     <g id="line2d_21">
      <g>
       <use xlink:href="#m400c1d5ea7" x="515.56" y="174.04" style="stroke: #000000; stroke-width: 0.8"/>
      </g>
     </g>
     <g id="text_16">
      <!-- 2.0 -->
      <g transform="translate(507.608437 188.638438)scale(0.1 -0.1)">
       <use xlink:href="#DejaVuSans-32"/>
       <use xlink:href="#DejaVuSans-2e" x="63.623047"/>
       <use xlink:href="#DejaVuSans-30" x="95.410156"/>
      </g>
     </g>
    </g>
    <g id="text_17">
     <!-- Influence of surprisal (multiplication) -->
     <g transform="translate(314.665625 202.316563)scale(0.1 -0.1)">
      <use xlink:href="#DejaVuSans-49"/>
      <use xlink:href="#DejaVuSans-6e" x="29.492188"/>
      <use xlink:href="#DejaVuSans-66" x="92.871094"/>
      <use xlink:href="#DejaVuSans-6c" x="128.076172"/>
      <use xlink:href="#DejaVuSans-75" x="155.859375"/>
      <use xlink:href="#DejaVuSans-65" x="219.238281"/>
      <use xlink:href="#DejaVuSans-6e" x="280.761719"/>
      <use xlink:href="#DejaVuSans-63" x="344.140625"/>
      <use xlink:href="#DejaVuSans-65" x="399.121094"/>
      <use xlink:href="#DejaVuSans-20" x="460.644531"/>
      <use xlink:href="#DejaVuSans-6f" x="492.431641"/>
      <use xlink:href="#DejaVuSans-66" x="553.613281"/>
      <use xlink:href="#DejaVuSans-20" x="588.818359"/>
      <use xlink:href="#DejaVuSans-73" x="620.605469"/>
      <use xlink:href="#DejaVuSans-75" x="672.705078"/>
      <use xlink:href="#DejaVuSans-72" x="736.083984"/>
      <use xlink:href="#DejaVuSans-70" x="777.197266"/>
      <use xlink:href="#DejaVuSans-72" x="840.673828"/>
      <use xlink:href="#DejaVuSans-69" x="881.787109"/>
      <use xlink:href="#DejaVuSans-73" x="909.570312"/>
      <use xlink:href="#DejaVuSans-61" x="961.669922"/>
      <use xlink:href="#DejaVuSans-6c" x="1022.949219"/>
      <use xlink:href="#DejaVuSans-20" x="1050.732422"/>
      <use xlink:href="#DejaVuSans-28" x="1082.519531"/>
      <use xlink:href="#DejaVuSans-6d" x="1121.533203"/>
      <use xlink:href="#DejaVuSans-75" x="1218.945312"/>
      <use xlink:href="#DejaVuSans-6c" x="1282.324219"/>
      <use xlink:href="#DejaVuSans-74" x="1310.107422"/>
      <use xlink:href="#DejaVuSans-69" x="1349.316406"/>
      <use xlink:href="#DejaVuSans-70" x="1377.099609"/>
      <use xlink:href="#DejaVuSans-6c" x="1440.576172"/>
      <use xlink:href="#DejaVuSans-69" x="1468.359375"/>
      <use xlink:href="#DejaVuSans-63" x="1496.142578"/>
      <use xlink:href="#DejaVuSans-61" x="1551.123047"/>
      <use xlink:href="#DejaVuSans-74" x="1612.402344"/>
      <use xlink:href="#DejaVuSans-69" x="1651.611328"/>
      <use xlink:href="#DejaVuSans-6f" x="1679.394531"/>
      <use xlink:href="#DejaVuSans-6e" x="1740.576172"/>
      <use xlink:href="#DejaVuSans-29" x="1803.955078"/>
     </g>
    </g>
   </g>
   <g id="line2d_22">
    <path d="M 298.065 33.989902 
L 309.512105 34.958125 
L 320.959211 37.460661 
L 332.406316 41.439763 
L 343.853421 46.371073 
L 355.300526 52.606622 
L 366.747632 59.367676 
L 378.194737 66.583249 
L 389.641842 74.526949 
L 401.088947 82.183622 
L 412.536053 89.656808 
L 423.983158 96.888519 
L 435.430263 103.836616 
L 446.877368 110.821002 
L 458.324474 116.784074 
L 469.771579 123.257928 
L 481.218684 129.152204 
L 492.665789 134.224393 
L 504.112895 138.884353 
L 515.56 143.887413 
" clip-path="url(#p621c1ca78f)" style="fill: none; stroke: #1f77b4; stroke-width: 1.5; stroke-linecap: square"/>
   </g>
   <g id="line2d_23">
    <path d="M 298.065 34.007876 
L 309.512105 34.982551 
L 320.959211 37.474992 
L 332.406316 41.45836 
L 343.853421 46.401086 
L 355.300526 52.655939 
L 366.747632 59.435212 
L 378.194737 66.654693 
L 389.641842 74.619241 
L 401.088947 82.289073 
L 412.536053 89.792742 
L 423.983158 97.044547 
L 435.430263 104.028303 
L 446.877368 111.068215 
L 458.324474 117.097456 
L 469.771579 123.62774 
L 481.218684 129.537723 
L 492.665789 134.694876 
L 504.112895 139.45633 
L 515.56 144.547345 
" clip-path="url(#p621c1ca78f)" style="fill: none; stroke: #ff7f0e; stroke-width: 1.5; stroke-linecap: square"/>
   </g>
   <g id="line2d_24">
    <path d="M 298.065 34.005509 
L 309.512105 34.979736 
L 320.959211 37.467923 
L 332.406316 41.474112 
L 343.853421 46.429336 
L 355.300526 52.694541 
L 366.747632 59.480071 
L 378.194737 66.749474 
L 389.641842 74.711192 
L 401.088947 82.433102 
L 412.536053 90.00947 
L 423.983158 97.276876 
L 435.430263 104.273746 
L 446.877368 111.356869 
L 458.324474 117.430893 
L 469.771579 123.967333 
L 481.218684 129.851532 
L 492.665789 134.996765 
L 504.112895 139.761104 
L 515.56 144.814595 
" clip-path="url(#p621c1ca78f)" style="fill: none; stroke: #2ca02c; stroke-width: 1.5; stroke-linecap: square"/>
   </g>
   <g id="line2d_25">
    <path d="M 298.065 34.022839 
L 309.512105 35.002631 
L 320.959211 37.489174 
L 332.406316 41.493719 
L 343.853421 46.464668 
L 355.300526 52.735716 
L 366.747632 59.550322 
L 378.194737 66.807902 
L 389.641842 74.811856 
L 401.088947 82.535582 
L 412.536053 90.145389 
L 423.983158 97.444922 
L 435.430263 104.461362 
L 446.877368 111.583635 
L 458.324474 117.70316 
L 469.771579 124.294446 
L 481.218684 130.215911 
L 492.665789 135.429936 
L 504.112895 140.269141 
L 515.56 145.397856 
" clip-path="url(#p621c1ca78f)" style="fill: none; stroke: #d62728; stroke-width: 1.5; stroke-linecap: square"/>
   </g>
   <g id="line2d_26">
    <path d="M 298.065 33.999943 
L 309.512105 34.972484 
L 320.959211 37.495098 
L 332.406316 41.448378 
L 343.853421 46.408827 
L 355.300526 52.632016 
L 366.747632 59.499356 
L 378.194737 66.704549 
L 389.641842 74.688496 
L 401.088947 82.376675 
L 412.536053 89.765903 
L 423.983158 97.214306 
L 435.430263 104.007497 
L 446.877368 111.350641 
L 458.324474 116.987702 
L 469.771579 123.509408 
L 481.218684 129.175848 
L 492.665789 134.791977 
L 504.112895 139.33228 
L 515.56 144.524294 
" clip-path="url(#p621c1ca78f)" style="fill: none; stroke: #9467bd; stroke-width: 1.5; stroke-linecap: square"/>
   </g>
   <g id="line2d_27">
    <path d="M 298.065 34.01852 
L 309.512105 34.997761 
L 320.959211 37.510322 
L 332.406316 41.469203 
L 343.853421 46.441472 
L 355.300526 52.685237 
L 366.747632 59.567214 
L 378.194737 66.779532 
L 389.641842 74.782248 
L 401.088947 82.488727 
L 412.536053 89.908551 
L 423.983158 97.364714 
L 435.430263 104.1775 
L 446.877368 111.576071 
L 458.324474 117.318118 
L 469.771579 123.876418 
L 481.218684 129.548693 
L 492.665789 135.270688 
L 504.112895 139.885899 
L 515.56 145.197953 
" clip-path="url(#p621c1ca78f)" style="fill: none; stroke: #8c564b; stroke-width: 1.5; stroke-linecap: square"/>
   </g>
   <g id="line2d_28">
    <path d="M 298.065 48.958217 
L 309.512105 49.849826 
L 320.959211 52.200554 
L 332.406316 55.961262 
L 343.853421 60.49775 
L 355.300526 66.457372 
L 366.747632 72.617089 
L 378.194737 79.533774 
L 389.641842 86.860029 
L 401.088947 94.084785 
L 412.536053 101.012328 
L 423.983158 107.628789 
L 435.430263 114.108051 
L 446.877368 120.514147 
L 458.324474 125.880666 
L 469.771579 131.807374 
L 481.218684 137.134959 
L 492.665789 141.760423 
L 504.112895 146.097378 
L 515.56 150.709116 
" clip-path="url(#p621c1ca78f)" style="fill: none; stroke: #e377c2; stroke-width: 1.5; stroke-linecap: square"/>
   </g>
   <g id="line2d_29">
    <path d="M 298.065 34.033527 
L 309.512105 35.004933 
L 320.959211 37.484828 
L 332.406316 41.478905 
L 343.853421 46.426902 
L 355.300526 52.693208 
L 366.747632 59.463416 
L 378.194737 66.683367 
L 389.641842 74.657396 
L 401.088947 82.354457 
L 412.536053 89.912182 
L 423.983158 97.180231 
L 435.430263 104.211837 
L 446.877368 111.318094 
L 458.324474 117.403075 
L 469.771579 124.04166 
L 481.218684 129.942986 
L 492.665789 135.250151 
L 504.112895 140.078236 
L 515.56 145.2645 
" clip-path="url(#p621c1ca78f)" style="fill: none; stroke: #7f7f7f; stroke-width: 1.5; stroke-linecap: square"/>
   </g>
   <g id="patch_6">
    <path d="M 298.065 174.04 
L 298.065 26.88 
" style="fill: none; stroke: #000000; stroke-width: 0.8; stroke-linejoin: miter; stroke-linecap: square"/>
   </g>
   <g id="patch_7">
    <path d="M 298.065 174.04 
L 515.56 174.04 
" style="fill: none; stroke: #000000; stroke-width: 0.8; stroke-linejoin: miter; stroke-linecap: square"/>
   </g>
   <g id="text_18">
    <!-- Node * third variable -->
    <g transform="translate(344.2325 20.88)scale(0.12 -0.12)">
     <defs>
      <path id="DejaVuSans-68" d="M 3513 2113 
L 3513 0 
L 2938 0 
L 2938 2094 
Q 2938 2591 2744 2837 
Q 2550 3084 2163 3084 
Q 1697 3084 1428 2787 
Q 1159 2491 1159 1978 
L 1159 0 
L 581 0 
L 581 4863 
L 1159 4863 
L 1159 2956 
Q 1366 3272 1645 3428 
Q 1925 3584 2291 3584 
Q 2894 3584 3203 3211 
Q 3513 2838 3513 2113 
z
" transform="scale(0.015625)"/>
      <path id="DejaVuSans-62" d="M 3116 1747 
Q 3116 2381 2855 2742 
Q 2594 3103 2138 3103 
Q 1681 3103 1420 2742 
Q 1159 2381 1159 1747 
Q 1159 1113 1420 752 
Q 1681 391 2138 391 
Q 2594 391 2855 752 
Q 3116 1113 3116 1747 
z
M 1159 2969 
Q 1341 3281 1617 3432 
Q 1894 3584 2278 3584 
Q 2916 3584 3314 3078 
Q 3713 2572 3713 1747 
Q 3713 922 3314 415 
Q 2916 -91 2278 -91 
Q 1894 -91 1617 61 
Q 1341 213 1159 525 
L 1159 0 
L 581 0 
L 581 4863 
L 1159 4863 
L 1159 2969 
z
" transform="scale(0.015625)"/>
     </defs>
     <use xlink:href="#DejaVuSans-4e"/>
     <use xlink:href="#DejaVuSans-6f" x="74.804688"/>
     <use xlink:href="#DejaVuSans-64" x="135.986328"/>
     <use xlink:href="#DejaVuSans-65" x="199.462891"/>
     <use xlink:href="#DejaVuSans-20" x="260.986328"/>
     <use xlink:href="#DejaVuSans-2a" x="292.773438"/>
     <use xlink:href="#DejaVuSans-20" x="342.773438"/>
     <use xlink:href="#DejaVuSans-74" x="374.560547"/>
     <use xlink:href="#DejaVuSans-68" x="413.769531"/>
     <use xlink:href="#DejaVuSans-69" x="477.148438"/>
     <use xlink:href="#DejaVuSans-72" x="504.931641"/>
     <use xlink:href="#DejaVuSans-64" x="544.294922"/>
     <use xlink:href="#DejaVuSans-20" x="607.771484"/>
     <use xlink:href="#DejaVuSans-76" x="639.558594"/>
     <use xlink:href="#DejaVuSans-61" x="698.738281"/>
     <use xlink:href="#DejaVuSans-72" x="760.017578"/>
     <use xlink:href="#DejaVuSans-69" x="801.130859"/>
     <use xlink:href="#DejaVuSans-61" x="828.914062"/>
     <use xlink:href="#DejaVuSans-62" x="890.193359"/>
     <use xlink:href="#DejaVuSans-6c" x="953.669922"/>
     <use xlink:href="#DejaVuSans-65" x="981.453125"/>
    </g>
   </g>
   <g id="legend_1">
    <g id="line2d_30">
     <path d="M 524.56 39.978437 
L 534.56 39.978437 
L 544.56 39.978437 
" style="fill: none; stroke: #1f77b4; stroke-width: 1.5; stroke-linecap: square"/>
    </g>
    <g id="text_19">
     <!-- Node -->
     <g transform="translate(552.56 43.478437)scale(0.1 -0.1)">
      <use xlink:href="#DejaVuSans-4e"/>
      <use xlink:href="#DejaVuSans-6f" x="74.804688"/>
      <use xlink:href="#DejaVuSans-64" x="135.986328"/>
      <use xlink:href="#DejaVuSans-65" x="199.462891"/>
     </g>
    </g>
    <g id="line2d_31">
     <path d="M 524.56 54.656563 
L 534.56 54.656563 
L 544.56 54.656563 
" style="fill: none; stroke: #ff7f0e; stroke-width: 1.5; stroke-linecap: square"/>
    </g>
    <g id="text_20">
     <!-- Node + surprisal -->
     <g transform="translate(552.56 58.156563)scale(0.1 -0.1)">
      <defs>
       <path id="DejaVuSans-2b" d="M 2944 4013 
L 2944 2272 
L 4684 2272 
L 4684 1741 
L 2944 1741 
L 2944 0 
L 2419 0 
L 2419 1741 
L 678 1741 
L 678 2272 
L 2419 2272 
L 2419 4013 
L 2944 4013 
z
" transform="scale(0.015625)"/>
      </defs>
      <use xlink:href="#DejaVuSans-4e"/>
      <use xlink:href="#DejaVuSans-6f" x="74.804688"/>
      <use xlink:href="#DejaVuSans-64" x="135.986328"/>
      <use xlink:href="#DejaVuSans-65" x="199.462891"/>
      <use xlink:href="#DejaVuSans-20" x="260.986328"/>
      <use xlink:href="#DejaVuSans-2b" x="292.773438"/>
      <use xlink:href="#DejaVuSans-20" x="376.5625"/>
      <use xlink:href="#DejaVuSans-73" x="408.349609"/>
      <use xlink:href="#DejaVuSans-75" x="460.449219"/>
      <use xlink:href="#DejaVuSans-72" x="523.828125"/>
      <use xlink:href="#DejaVuSans-70" x="564.941406"/>
      <use xlink:href="#DejaVuSans-72" x="628.417969"/>
      <use xlink:href="#DejaVuSans-69" x="669.53125"/>
      <use xlink:href="#DejaVuSans-73" x="697.314453"/>
      <use xlink:href="#DejaVuSans-61" x="749.414062"/>
      <use xlink:href="#DejaVuSans-6c" x="810.693359"/>
     </g>
    </g>
    <g id="line2d_32">
     <path d="M 524.56 69.334687 
L 534.56 69.334687 
L 544.56 69.334687 
" style="fill: none; stroke: #2ca02c; stroke-width: 1.5; stroke-linecap: square"/>
    </g>
    <g id="text_21">
     <!-- Node split -->
     <g transform="translate(552.56 72.834687)scale(0.1 -0.1)">
      <use xlink:href="#DejaVuSans-4e"/>
      <use xlink:href="#DejaVuSans-6f" x="74.804688"/>
      <use xlink:href="#DejaVuSans-64" x="135.986328"/>
      <use xlink:href="#DejaVuSans-65" x="199.462891"/>
      <use xlink:href="#DejaVuSans-20" x="260.986328"/>
      <use xlink:href="#DejaVuSans-73" x="292.773438"/>
      <use xlink:href="#DejaVuSans-70" x="344.873047"/>
      <use xlink:href="#DejaVuSans-6c" x="408.349609"/>
      <use xlink:href="#DejaVuSans-69" x="436.132812"/>
      <use xlink:href="#DejaVuSans-74" x="463.916016"/>
     </g>
    </g>
    <g id="line2d_33">
     <path d="M 524.56 84.012812 
L 534.56 84.012812 
L 544.56 84.012812 
" style="fill: none; stroke: #d62728; stroke-width: 1.5; stroke-linecap: square"/>
    </g>
    <g id="text_22">
     <!-- Node split + surprisal -->
     <g transform="translate(552.56 87.512812)scale(0.1 -0.1)">
      <use xlink:href="#DejaVuSans-4e"/>
      <use xlink:href="#DejaVuSans-6f" x="74.804688"/>
      <use xlink:href="#DejaVuSans-64" x="135.986328"/>
      <use xlink:href="#DejaVuSans-65" x="199.462891"/>
      <use xlink:href="#DejaVuSans-20" x="260.986328"/>
      <use xlink:href="#DejaVuSans-73" x="292.773438"/>
      <use xlink:href="#DejaVuSans-70" x="344.873047"/>
      <use xlink:href="#DejaVuSans-6c" x="408.349609"/>
      <use xlink:href="#DejaVuSans-69" x="436.132812"/>
      <use xlink:href="#DejaVuSans-74" x="463.916016"/>
      <use xlink:href="#DejaVuSans-20" x="503.125"/>
      <use xlink:href="#DejaVuSans-2b" x="534.912109"/>
      <use xlink:href="#DejaVuSans-20" x="618.701172"/>
      <use xlink:href="#DejaVuSans-73" x="650.488281"/>
      <use xlink:href="#DejaVuSans-75" x="702.587891"/>
      <use xlink:href="#DejaVuSans-72" x="765.966797"/>
      <use xlink:href="#DejaVuSans-70" x="807.080078"/>
      <use xlink:href="#DejaVuSans-72" x="870.556641"/>
      <use xlink:href="#DejaVuSans-69" x="911.669922"/>
      <use xlink:href="#DejaVuSans-73" x="939.453125"/>
      <use xlink:href="#DejaVuSans-61" x="991.552734"/>
      <use xlink:href="#DejaVuSans-6c" x="1052.832031"/>
     </g>
    </g>
    <g id="line2d_34">
     <path d="M 524.56 98.690937 
L 534.56 98.690937 
L 544.56 98.690937 
" style="fill: none; stroke: #9467bd; stroke-width: 1.5; stroke-linecap: square"/>
    </g>
    <g id="text_23">
     <!-- Node random split -->
     <g transform="translate(552.56 102.190937)scale(0.1 -0.1)">
      <use xlink:href="#DejaVuSans-4e"/>
      <use xlink:href="#DejaVuSans-6f" x="74.804688"/>
      <use xlink:href="#DejaVuSans-64" x="135.986328"/>
      <use xlink:href="#DejaVuSans-65" x="199.462891"/>
      <use xlink:href="#DejaVuSans-20" x="260.986328"/>
      <use xlink:href="#DejaVuSans-72" x="292.773438"/>
      <use xlink:href="#DejaVuSans-61" x="333.886719"/>
      <use xlink:href="#DejaVuSans-6e" x="395.166016"/>
      <use xlink:href="#DejaVuSans-64" x="458.544922"/>
      <use xlink:href="#DejaVuSans-6f" x="522.021484"/>
      <use xlink:href="#DejaVuSans-6d" x="583.203125"/>
      <use xlink:href="#DejaVuSans-20" x="680.615234"/>
      <use xlink:href="#DejaVuSans-73" x="712.402344"/>
      <use xlink:href="#DejaVuSans-70" x="764.501953"/>
      <use xlink:href="#DejaVuSans-6c" x="827.978516"/>
      <use xlink:href="#DejaVuSans-69" x="855.761719"/>
      <use xlink:href="#DejaVuSans-74" x="883.544922"/>
     </g>
    </g>
    <g id="line2d_35">
     <path d="M 524.56 113.369062 
L 534.56 113.369062 
L 544.56 113.369062 
" style="fill: none; stroke: #8c564b; stroke-width: 1.5; stroke-linecap: square"/>
    </g>
    <g id="text_24">
     <!-- Node random split + surprisal -->
     <g transform="translate(552.56 116.869062)scale(0.1 -0.1)">
      <use xlink:href="#DejaVuSans-4e"/>
      <use xlink:href="#DejaVuSans-6f" x="74.804688"/>
      <use xlink:href="#DejaVuSans-64" x="135.986328"/>
      <use xlink:href="#DejaVuSans-65" x="199.462891"/>
      <use xlink:href="#DejaVuSans-20" x="260.986328"/>
      <use xlink:href="#DejaVuSans-72" x="292.773438"/>
      <use xlink:href="#DejaVuSans-61" x="333.886719"/>
      <use xlink:href="#DejaVuSans-6e" x="395.166016"/>
      <use xlink:href="#DejaVuSans-64" x="458.544922"/>
      <use xlink:href="#DejaVuSans-6f" x="522.021484"/>
      <use xlink:href="#DejaVuSans-6d" x="583.203125"/>
      <use xlink:href="#DejaVuSans-20" x="680.615234"/>
      <use xlink:href="#DejaVuSans-73" x="712.402344"/>
      <use xlink:href="#DejaVuSans-70" x="764.501953"/>
      <use xlink:href="#DejaVuSans-6c" x="827.978516"/>
      <use xlink:href="#DejaVuSans-69" x="855.761719"/>
      <use xlink:href="#DejaVuSans-74" x="883.544922"/>
      <use xlink:href="#DejaVuSans-20" x="922.753906"/>
      <use xlink:href="#DejaVuSans-2b" x="954.541016"/>
      <use xlink:href="#DejaVuSans-20" x="1038.330078"/>
      <use xlink:href="#DejaVuSans-73" x="1070.117188"/>
      <use xlink:href="#DejaVuSans-75" x="1122.216797"/>
      <use xlink:href="#DejaVuSans-72" x="1185.595703"/>
      <use xlink:href="#DejaVuSans-70" x="1226.708984"/>
      <use xlink:href="#DejaVuSans-72" x="1290.185547"/>
      <use xlink:href="#DejaVuSans-69" x="1331.298828"/>
      <use xlink:href="#DejaVuSans-73" x="1359.082031"/>
      <use xlink:href="#DejaVuSans-61" x="1411.181641"/>
      <use xlink:href="#DejaVuSans-6c" x="1472.460938"/>
     </g>
    </g>
    <g id="line2d_36">
     <path d="M 524.56 128.047187 
L 534.56 128.047187 
L 544.56 128.047187 
" style="fill: none; stroke: #e377c2; stroke-width: 1.5; stroke-linecap: square"/>
    </g>
    <g id="text_25">
     <!-- Interaction -->
     <g transform="translate(552.56 131.547187)scale(0.1 -0.1)">
      <use xlink:href="#DejaVuSans-49"/>
      <use xlink:href="#DejaVuSans-6e" x="29.492188"/>
      <use xlink:href="#DejaVuSans-74" x="92.871094"/>
      <use xlink:href="#DejaVuSans-65" x="132.080078"/>
      <use xlink:href="#DejaVuSans-72" x="193.603516"/>
      <use xlink:href="#DejaVuSans-61" x="234.716797"/>
      <use xlink:href="#DejaVuSans-63" x="295.996094"/>
      <use xlink:href="#DejaVuSans-74" x="350.976562"/>
      <use xlink:href="#DejaVuSans-69" x="390.185547"/>
      <use xlink:href="#DejaVuSans-6f" x="417.96875"/>
      <use xlink:href="#DejaVuSans-6e" x="479.150391"/>
     </g>
    </g>
    <g id="line2d_37">
     <path d="M 524.56 142.725312 
L 534.56 142.725312 
L 544.56 142.725312 
" style="fill: none; stroke: #7f7f7f; stroke-width: 1.5; stroke-linecap: square"/>
    </g>
    <g id="text_26">
     <!-- Node + surprisal + interaction -->
     <g transform="translate(552.56 146.225312)scale(0.1 -0.1)">
      <use xlink:href="#DejaVuSans-4e"/>
      <use xlink:href="#DejaVuSans-6f" x="74.804688"/>
      <use xlink:href="#DejaVuSans-64" x="135.986328"/>
      <use xlink:href="#DejaVuSans-65" x="199.462891"/>
      <use xlink:href="#DejaVuSans-20" x="260.986328"/>
      <use xlink:href="#DejaVuSans-2b" x="292.773438"/>
      <use xlink:href="#DejaVuSans-20" x="376.5625"/>
      <use xlink:href="#DejaVuSans-73" x="408.349609"/>
      <use xlink:href="#DejaVuSans-75" x="460.449219"/>
      <use xlink:href="#DejaVuSans-72" x="523.828125"/>
      <use xlink:href="#DejaVuSans-70" x="564.941406"/>
      <use xlink:href="#DejaVuSans-72" x="628.417969"/>
      <use xlink:href="#DejaVuSans-69" x="669.53125"/>
      <use xlink:href="#DejaVuSans-73" x="697.314453"/>
      <use xlink:href="#DejaVuSans-61" x="749.414062"/>
      <use xlink:href="#DejaVuSans-6c" x="810.693359"/>
      <use xlink:href="#DejaVuSans-20" x="838.476562"/>
      <use xlink:href="#DejaVuSans-2b" x="870.263672"/>
      <use xlink:href="#DejaVuSans-20" x="954.052734"/>
      <use xlink:href="#DejaVuSans-69" x="985.839844"/>
      <use xlink:href="#DejaVuSans-6e" x="1013.623047"/>
      <use xlink:href="#DejaVuSans-74" x="1077.001953"/>
      <use xlink:href="#DejaVuSans-65" x="1116.210938"/>
      <use xlink:href="#DejaVuSans-72" x="1177.734375"/>
      <use xlink:href="#DejaVuSans-61" x="1218.847656"/>
      <use xlink:href="#DejaVuSans-63" x="1280.126953"/>
      <use xlink:href="#DejaVuSans-74" x="1335.107422"/>
      <use xlink:href="#DejaVuSans-69" x="1374.316406"/>
      <use xlink:href="#DejaVuSans-6f" x="1402.099609"/>
      <use xlink:href="#DejaVuSans-6e" x="1463.28125"/>
     </g>
    </g>
   </g>
  </g>
 </g>
 <defs>
  <clipPath id="pbe0259e878">
   <rect x="47.72" y="26.88" width="217.495" height="147.16"/>
  </clipPath>
  <clipPath id="p621c1ca78f">
   <rect x="298.065" y="26.88" width="217.495" height="147.16"/>
  </clipPath>
 </defs>
</svg>
