<?xml version="1.0" encoding="utf-8" standalone="no"?>
<!DOCTYPE svg PUBLIC "-//W3C//DTD SVG 1.1//EN"
  "http://www.w3.org/Graphics/SVG/1.1/DTD/svg11.dtd">
<svg xmlns:xlink="http://www.w3.org/1999/xlink" width="720pt" height="216pt" viewBox="0 0 720 216" xmlns="http://www.w3.org/2000/svg" version="1.1">
 <metadata>
  <rdf:RDF xmlns:dc="http://purl.org/dc/elements/1.1/" xmlns:cc="http://creativecommons.org/ns#" xmlns:rdf="http://www.w3.org/1999/02/22-rdf-syntax-ns#">
   <cc:Work>
    <dc:type rdf:resource="http://purl.org/dc/dcmitype/StillImage"/>
    <dc:date>2024-01-16T00:12:45.525861</dc:date>
    <dc:format>image/svg+xml</dc:format>
    <dc:creator>
     <cc:Agent>
      <dc:title>Matplotlib v3.5.1, https://matplotlib.org/</dc:title>
     </cc:Agent>
    </dc:creator>
   </cc:Work>
  </rdf:RDF>
 </metadata>
 <defs>
  <style type="text/css">*{stroke-linejoin: round; stroke-linecap: butt}</style>
 </defs>
 <g id="figure_1">
  <g id="patch_1">
   <path d="M 0 216 
L 720 216 
L 720 0 
L 0 0 
z
" style="fill: #ffffff"/>
  </g>
  <g id="axes_1">
   <g id="patch_2">
    <path d="M 47.72 174.04 
L 265.215 174.04 
L 265.215 26.88 
L 47.72 26.88 
z
" style="fill: #ffffff"/>
   </g>
   <g id="PolyCollection_1">
    <path d="M 47.72 33.744134 
L 47.72 35.083075 
L 59.167105 35.585365 
L 70.614211 38.563014 
L 82.061316 43.396094 
L 93.508421 49.55745 
L 104.955526 56.261364 
L 116.402632 64.044981 
L 127.849737 71.760391 
L 139.296842 79.953153 
L 150.743947 87.872019 
L 162.191053 95.267977 
L 173.638158 102.650256 
L 185.085263 109.72991 
L 196.532368 116.201466 
L 207.979474 122.305973 
L 219.426579 127.786182 
L 230.873684 132.730058 
L 242.320789 138.339276 
L 253.767895 142.663313 
L 265.215 147.552772 
L 265.215 135.222033 
L 265.215 135.222033 
L 253.767895 130.568949 
L 242.320789 125.188633 
L 230.873684 120.662494 
L 219.426579 114.248385 
L 207.979474 108.41792 
L 196.532368 101.932314 
L 185.085263 94.977862 
L 173.638158 88.602486 
L 162.191053 81.280786 
L 150.743947 74.372569 
L 139.296842 67.432211 
L 127.849737 60.718859 
L 116.402632 54.941089 
L 104.955526 49.393614 
L 93.508421 44.203027 
L 82.061316 40.022941 
L 70.614211 36.938992 
L 59.167105 34.284524 
L 47.72 33.744134 
z
" clip-path="url(#p55fd11a393)" style="fill: #1f77b4; fill-opacity: 0.4"/>
   </g>
   <g id="PolyCollection_2">
    <path d="M 47.72 33.759557 
L 47.72 35.099944 
L 59.167105 35.298386 
L 70.614211 36.833669 
L 82.061316 39.418556 
L 93.508421 43.181241 
L 104.955526 47.480157 
L 116.402632 52.742379 
L 127.849737 58.522792 
L 139.296842 64.53801 
L 150.743947 71.195536 
L 162.191053 77.68738 
L 173.638158 84.677863 
L 185.085263 91.773321 
L 196.532368 98.520004 
L 207.979474 104.888108 
L 219.426579 110.956431 
L 230.873684 116.331436 
L 242.320789 122.05103 
L 253.767895 127.073703 
L 265.215 132.482609 
L 265.215 118.352497 
L 265.215 118.352497 
L 253.767895 113.494269 
L 242.320789 107.827352 
L 230.873684 103.02542 
L 219.426579 96.389175 
L 207.979474 90.977521 
L 196.532368 84.795562 
L 185.085263 78.406564 
L 173.638158 72.791686 
L 162.191053 66.496644 
L 150.743947 61.117194 
L 139.296842 55.819626 
L 127.849737 50.900393 
L 116.402632 47.185401 
L 104.955526 43.273497 
L 93.508421 39.99621 
L 82.061316 37.475068 
L 70.614211 35.517428 
L 59.167105 33.993803 
L 47.72 33.759557 
z
" clip-path="url(#p55fd11a393)" style="fill: #ff7f0e; fill-opacity: 0.4"/>
   </g>
   <g id="PolyCollection_3">
    <path d="M 47.72 33.762581 
L 47.72 35.10313 
L 59.167105 35.394085 
L 70.614211 36.814502 
L 82.061316 39.037451 
L 93.508421 41.811771 
L 104.955526 44.874806 
L 116.402632 48.604027 
L 127.849737 52.146509 
L 139.296842 56.239698 
L 150.743947 60.508954 
L 162.191053 64.543905 
L 173.638158 68.54379 
L 185.085263 72.659189 
L 196.532368 76.56157 
L 207.979474 80.562543 
L 219.426579 84.313704 
L 230.873684 87.527057 
L 242.320789 90.784821 
L 253.767895 94.590923 
L 265.215 97.332941 
L 265.215 85.140302 
L 265.215 85.140302 
L 253.767895 81.549764 
L 242.320789 78.223401 
L 230.873684 74.903099 
L 219.426579 70.772525 
L 207.979474 67.759041 
L 196.532368 63.636839 
L 185.085263 60.606066 
L 173.638158 57.368967 
L 162.191053 53.916978 
L 150.743947 50.976354 
L 139.296842 47.915496 
L 127.849737 45.042787 
L 116.402632 42.695225 
L 104.955526 40.594438 
L 93.508421 38.502136 
L 82.061316 36.811442 
L 70.614211 35.432666 
L 59.167105 34.108456 
L 47.72 33.762581 
z
" clip-path="url(#p55fd11a393)" style="fill: #2ca02c; fill-opacity: 0.4"/>
   </g>
   <g id="PolyCollection_4">
    <path d="M 47.72 33.776119 
L 47.72 35.119249 
L 59.167105 35.276606 
L 70.614211 36.289802 
L 82.061316 37.923733 
L 93.508421 40.145154 
L 104.955526 42.669314 
L 116.402632 45.887792 
L 127.849737 49.281517 
L 139.296842 53.030851 
L 150.743947 57.239134 
L 162.191053 61.214832 
L 173.638158 65.316406 
L 185.085263 69.60694 
L 196.532368 73.728064 
L 207.979474 77.863622 
L 219.426579 81.904542 
L 230.873684 85.435061 
L 242.320789 88.946485 
L 253.767895 92.93793 
L 265.215 95.829595 
L 265.215 83.597135 
L 265.215 83.597135 
L 253.767895 79.969682 
L 242.320789 76.657273 
L 230.873684 73.493785 
L 219.426579 69.321632 
L 207.979474 66.355982 
L 196.532368 62.239729 
L 185.085263 59.00869 
L 173.638158 55.707074 
L 162.191053 52.074779 
L 150.743947 49.150073 
L 139.296842 46.127798 
L 127.849737 43.414593 
L 116.402632 41.429764 
L 104.955526 39.416406 
L 93.508421 37.623403 
L 82.061316 36.228099 
L 70.614211 35.040032 
L 59.167105 33.977808 
L 47.72 33.776119 
z
" clip-path="url(#p55fd11a393)" style="fill: #d62728; fill-opacity: 0.4"/>
   </g>
   <g id="PolyCollection_5">
    <path d="M 47.72 33.753035 
L 47.72 35.094144 
L 59.167105 35.597986 
L 70.614211 38.559108 
L 82.061316 43.393172 
L 93.508421 49.589369 
L 104.955526 56.281993 
L 116.402632 64.118089 
L 127.849737 71.998826 
L 139.296842 79.865334 
L 150.743947 87.957131 
L 162.191053 95.621688 
L 173.638158 103.21496 
L 185.085263 110.071569 
L 196.532368 116.360382 
L 207.979474 122.766128 
L 219.426579 128.015512 
L 230.873684 133.418066 
L 242.320789 137.821081 
L 253.767895 144.079986 
L 265.215 147.440969 
L 265.215 135.228397 
L 265.215 135.228397 
L 253.767895 131.465354 
L 242.320789 125.02524 
L 230.873684 120.461989 
L 219.426579 114.754638 
L 207.979474 108.711865 
L 196.532368 102.041283 
L 185.085263 94.920618 
L 173.638158 88.547629 
L 162.191053 81.395438 
L 150.743947 74.378727 
L 139.296842 67.629049 
L 127.849737 60.658051 
L 116.402632 55.012072 
L 104.955526 49.382056 
L 93.508421 44.228189 
L 82.061316 40.059749 
L 70.614211 36.961957 
L 59.167105 34.292555 
L 47.72 33.753035 
z
" clip-path="url(#p55fd11a393)" style="fill: #9467bd; fill-opacity: 0.4"/>
   </g>
   <g id="PolyCollection_6">
    <path d="M 47.72 33.768556 
L 47.72 35.111266 
L 59.167105 35.307918 
L 70.614211 36.828392 
L 82.061316 39.447522 
L 93.508421 43.199148 
L 104.955526 47.498876 
L 116.402632 52.794917 
L 127.849737 58.656173 
L 139.296842 64.583971 
L 150.743947 71.245738 
L 162.191053 77.863769 
L 173.638158 84.967541 
L 185.085263 92.00118 
L 196.532368 98.617207 
L 207.979474 105.02422 
L 219.426579 111.160139 
L 230.873684 116.883782 
L 242.320789 121.815861 
L 253.767895 127.890982 
L 265.215 132.421896 
L 265.215 118.214831 
L 265.215 118.214831 
L 253.767895 114.283052 
L 242.320789 107.566509 
L 230.873684 103.025491 
L 219.426579 96.799784 
L 207.979474 91.262102 
L 196.532368 85.006203 
L 185.085263 78.40867 
L 173.638158 72.849157 
L 162.191053 66.526146 
L 150.743947 61.147042 
L 139.296842 55.92048 
L 127.849737 50.86114 
L 116.402632 47.210984 
L 104.955526 43.268367 
L 93.508421 40.025704 
L 82.061316 37.494787 
L 70.614211 35.541367 
L 59.167105 34.001635 
L 47.72 33.768556 
z
" clip-path="url(#p55fd11a393)" style="fill: #8c564b; fill-opacity: 0.4"/>
   </g>
   <g id="PolyCollection_7">
    <path d="M 47.72 45.950476 
L 47.72 51.376518 
L 59.167105 52.866903 
L 70.614211 57.230798 
L 82.061316 63.552678 
L 93.508421 70.935397 
L 104.955526 78.622498 
L 116.402632 87.20979 
L 127.849737 95.816804 
L 139.296842 104.646715 
L 150.743947 113.110871 
L 162.191053 121.118383 
L 173.638158 128.839008 
L 185.085263 136.043156 
L 196.532368 142.660689 
L 207.979474 147.863914 
L 219.426579 152.674023 
L 230.873684 156.486503 
L 242.320789 160.396807 
L 253.767895 163.957458 
L 265.215 167.350909 
L 265.215 150.556854 
L 265.215 150.556854 
L 253.767895 146.416206 
L 242.320789 141.406686 
L 230.873684 136.504917 
L 219.426579 130.156501 
L 207.979474 124.384768 
L 196.532368 117.789167 
L 185.085263 110.581098 
L 173.638158 104.126197 
L 162.191053 96.592475 
L 150.743947 89.453498 
L 139.296842 82.144066 
L 127.849737 75.104634 
L 116.402632 68.537309 
L 104.955526 62.535231 
L 93.508421 56.78116 
L 82.061316 52.027837 
L 70.614211 48.541778 
L 59.167105 46.147171 
L 47.72 45.950476 
z
" clip-path="url(#p55fd11a393)" style="fill: #e377c2; fill-opacity: 0.4"/>
   </g>
   <g id="PolyCollection_8">
    <path d="M 47.72 33.778301 
L 47.72 35.108199 
L 59.167105 34.999411 
L 70.614211 35.249551 
L 82.061316 36.02368 
L 93.508421 37.907887 
L 104.955526 40.825228 
L 116.402632 44.562505 
L 127.849737 48.846145 
L 139.296842 53.446371 
L 150.743947 58.937475 
L 162.191053 64.651658 
L 173.638158 71.466255 
L 185.085263 78.450449 
L 196.532368 85.448302 
L 207.979474 92.261864 
L 219.426579 98.840192 
L 230.873684 104.464268 
L 242.320789 110.692414 
L 253.767895 116.515818 
L 265.215 121.969682 
L 265.215 102.861426 
L 265.215 102.861426 
L 253.767895 97.11915 
L 242.320789 91.350384 
L 230.873684 85.981615 
L 219.426579 79.220102 
L 207.979474 73.962507 
L 196.532368 67.731405 
L 185.085263 62.261655 
L 173.638158 56.731186 
L 162.191053 51.624242 
L 150.743947 47.197128 
L 139.296842 43.157114 
L 127.849737 39.605436 
L 116.402632 37.65032 
L 104.955526 36.126288 
L 93.508421 35.132728 
L 82.061316 34.557382 
L 70.614211 34.048327 
L 59.167105 33.749855 
L 47.72 33.778301 
z
" clip-path="url(#p55fd11a393)" style="fill: #7f7f7f; fill-opacity: 0.4"/>
   </g>
   <g id="matplotlib.axis_1">
    <g id="xtick_1">
     <g id="line2d_1">
      <defs>
       <path id="mae3583e3ea" d="M 0 0 
L 0 3.5 
" style="stroke: #000000; stroke-width: 0.8"/>
      </defs>
      <g>
       <use xlink:href="#mae3583e3ea" x="47.72" y="174.04" style="stroke: #000000; stroke-width: 0.8"/>
      </g>
     </g>
     <g id="text_1">
      <!-- 0.0 -->
      <g transform="translate(39.768438 188.638438)scale(0.1 -0.1)">
       <defs>
        <path id="DejaVuSans-30" d="M 2034 4250 
Q 1547 4250 1301 3770 
Q 1056 3291 1056 2328 
Q 1056 1369 1301 889 
Q 1547 409 2034 409 
Q 2525 409 2770 889 
Q 3016 1369 3016 2328 
Q 3016 3291 2770 3770 
Q 2525 4250 2034 4250 
z
M 2034 4750 
Q 2819 4750 3233 4129 
Q 3647 3509 3647 2328 
Q 3647 1150 3233 529 
Q 2819 -91 2034 -91 
Q 1250 -91 836 529 
Q 422 1150 422 2328 
Q 422 3509 836 4129 
Q 1250 4750 2034 4750 
z
" transform="scale(0.015625)"/>
        <path id="DejaVuSans-2e" d="M 684 794 
L 1344 794 
L 1344 0 
L 684 0 
L 684 794 
z
" transform="scale(0.015625)"/>
       </defs>
       <use xlink:href="#DejaVuSans-30"/>
       <use xlink:href="#DejaVuSans-2e" x="63.623047"/>
       <use xlink:href="#DejaVuSans-30" x="95.410156"/>
      </g>
     </g>
    </g>
    <g id="xtick_2">
     <g id="line2d_2">
      <g>
       <use xlink:href="#mae3583e3ea" x="102.09375" y="174.04" style="stroke: #000000; stroke-width: 0.8"/>
      </g>
     </g>
     <g id="text_2">
      <!-- 0.5 -->
      <g transform="translate(94.142188 188.638438)scale(0.1 -0.1)">
       <defs>
        <path id="DejaVuSans-35" d="M 691 4666 
L 3169 4666 
L 3169 4134 
L 1269 4134 
L 1269 2991 
Q 1406 3038 1543 3061 
Q 1681 3084 1819 3084 
Q 2600 3084 3056 2656 
Q 3513 2228 3513 1497 
Q 3513 744 3044 326 
Q 2575 -91 1722 -91 
Q 1428 -91 1123 -41 
Q 819 9 494 109 
L 494 744 
Q 775 591 1075 516 
Q 1375 441 1709 441 
Q 2250 441 2565 725 
Q 2881 1009 2881 1497 
Q 2881 1984 2565 2268 
Q 2250 2553 1709 2553 
Q 1456 2553 1204 2497 
Q 953 2441 691 2322 
L 691 4666 
z
" transform="scale(0.015625)"/>
       </defs>
       <use xlink:href="#DejaVuSans-30"/>
       <use xlink:href="#DejaVuSans-2e" x="63.623047"/>
       <use xlink:href="#DejaVuSans-35" x="95.410156"/>
      </g>
     </g>
    </g>
    <g id="xtick_3">
     <g id="line2d_3">
      <g>
       <use xlink:href="#mae3583e3ea" x="156.4675" y="174.04" style="stroke: #000000; stroke-width: 0.8"/>
      </g>
     </g>
     <g id="text_3">
      <!-- 1.0 -->
      <g transform="translate(148.515938 188.638438)scale(0.1 -0.1)">
       <defs>
        <path id="DejaVuSans-31" d="M 794 531 
L 1825 531 
L 1825 4091 
L 703 3866 
L 703 4441 
L 1819 4666 
L 2450 4666 
L 2450 531 
L 3481 531 
L 3481 0 
L 794 0 
L 794 531 
z
" transform="scale(0.015625)"/>
       </defs>
       <use xlink:href="#DejaVuSans-31"/>
       <use xlink:href="#DejaVuSans-2e" x="63.623047"/>
       <use xlink:href="#DejaVuSans-30" x="95.410156"/>
      </g>
     </g>
    </g>
    <g id="xtick_4">
     <g id="line2d_4">
      <g>
       <use xlink:href="#mae3583e3ea" x="210.84125" y="174.04" style="stroke: #000000; stroke-width: 0.8"/>
      </g>
     </g>
     <g id="text_4">
      <!-- 1.5 -->
      <g transform="translate(202.889687 188.638438)scale(0.1 -0.1)">
       <use xlink:href="#DejaVuSans-31"/>
       <use xlink:href="#DejaVuSans-2e" x="63.623047"/>
       <use xlink:href="#DejaVuSans-35" x="95.410156"/>
      </g>
     </g>
    </g>
    <g id="xtick_5">
     <g id="line2d_5">
      <g>
       <use xlink:href="#mae3583e3ea" x="265.215" y="174.04" style="stroke: #000000; stroke-width: 0.8"/>
      </g>
     </g>
     <g id="text_5">
      <!-- 2.0 -->
      <g transform="translate(257.263437 188.638438)scale(0.1 -0.1)">
       <defs>
        <path id="DejaVuSans-32" d="M 1228 531 
L 3431 531 
L 3431 0 
L 469 0 
L 469 531 
Q 828 903 1448 1529 
Q 2069 2156 2228 2338 
Q 2531 2678 2651 2914 
Q 2772 3150 2772 3378 
Q 2772 3750 2511 3984 
Q 2250 4219 1831 4219 
Q 1534 4219 1204 4116 
Q 875 4013 500 3803 
L 500 4441 
Q 881 4594 1212 4672 
Q 1544 4750 1819 4750 
Q 2544 4750 2975 4387 
Q 3406 4025 3406 3419 
Q 3406 3131 3298 2873 
Q 3191 2616 2906 2266 
Q 2828 2175 2409 1742 
Q 1991 1309 1228 531 
z
" transform="scale(0.015625)"/>
       </defs>
       <use xlink:href="#DejaVuSans-32"/>
       <use xlink:href="#DejaVuSans-2e" x="63.623047"/>
       <use xlink:href="#DejaVuSans-30" x="95.410156"/>
      </g>
     </g>
    </g>
    <g id="text_6">
     <!-- Influence of surprisal (multiplication) -->
     <g transform="translate(64.320625 202.316563)scale(0.1 -0.1)">
      <defs>
       <path id="DejaVuSans-49" d="M 628 4666 
L 1259 4666 
L 1259 0 
L 628 0 
L 628 4666 
z
" transform="scale(0.015625)"/>
       <path id="DejaVuSans-6e" d="M 3513 2113 
L 3513 0 
L 2938 0 
L 2938 2094 
Q 2938 2591 2744 2837 
Q 2550 3084 2163 3084 
Q 1697 3084 1428 2787 
Q 1159 2491 1159 1978 
L 1159 0 
L 581 0 
L 581 3500 
L 1159 3500 
L 1159 2956 
Q 1366 3272 1645 3428 
Q 1925 3584 2291 3584 
Q 2894 3584 3203 3211 
Q 3513 2838 3513 2113 
z
" transform="scale(0.015625)"/>
       <path id="DejaVuSans-66" d="M 2375 4863 
L 2375 4384 
L 1825 4384 
Q 1516 4384 1395 4259 
Q 1275 4134 1275 3809 
L 1275 3500 
L 2222 3500 
L 2222 3053 
L 1275 3053 
L 1275 0 
L 697 0 
L 697 3053 
L 147 3053 
L 147 3500 
L 697 3500 
L 697 3744 
Q 697 4328 969 4595 
Q 1241 4863 1831 4863 
L 2375 4863 
z
" transform="scale(0.015625)"/>
       <path id="DejaVuSans-6c" d="M 603 4863 
L 1178 4863 
L 1178 0 
L 603 0 
L 603 4863 
z
" transform="scale(0.015625)"/>
       <path id="DejaVuSans-75" d="M 544 1381 
L 544 3500 
L 1119 3500 
L 1119 1403 
Q 1119 906 1312 657 
Q 1506 409 1894 409 
Q 2359 409 2629 706 
Q 2900 1003 2900 1516 
L 2900 3500 
L 3475 3500 
L 3475 0 
L 2900 0 
L 2900 538 
Q 2691 219 2414 64 
Q 2138 -91 1772 -91 
Q 1169 -91 856 284 
Q 544 659 544 1381 
z
M 1991 3584 
L 1991 3584 
z
" transform="scale(0.015625)"/>
       <path id="DejaVuSans-65" d="M 3597 1894 
L 3597 1613 
L 953 1613 
Q 991 1019 1311 708 
Q 1631 397 2203 397 
Q 2534 397 2845 478 
Q 3156 559 3463 722 
L 3463 178 
Q 3153 47 2828 -22 
Q 2503 -91 2169 -91 
Q 1331 -91 842 396 
Q 353 884 353 1716 
Q 353 2575 817 3079 
Q 1281 3584 2069 3584 
Q 2775 3584 3186 3129 
Q 3597 2675 3597 1894 
z
M 3022 2063 
Q 3016 2534 2758 2815 
Q 2500 3097 2075 3097 
Q 1594 3097 1305 2825 
Q 1016 2553 972 2059 
L 3022 2063 
z
" transform="scale(0.015625)"/>
       <path id="DejaVuSans-63" d="M 3122 3366 
L 3122 2828 
Q 2878 2963 2633 3030 
Q 2388 3097 2138 3097 
Q 1578 3097 1268 2742 
Q 959 2388 959 1747 
Q 959 1106 1268 751 
Q 1578 397 2138 397 
Q 2388 397 2633 464 
Q 2878 531 3122 666 
L 3122 134 
Q 2881 22 2623 -34 
Q 2366 -91 2075 -91 
Q 1284 -91 818 406 
Q 353 903 353 1747 
Q 353 2603 823 3093 
Q 1294 3584 2113 3584 
Q 2378 3584 2631 3529 
Q 2884 3475 3122 3366 
z
" transform="scale(0.015625)"/>
       <path id="DejaVuSans-20" transform="scale(0.015625)"/>
       <path id="DejaVuSans-6f" d="M 1959 3097 
Q 1497 3097 1228 2736 
Q 959 2375 959 1747 
Q 959 1119 1226 758 
Q 1494 397 1959 397 
Q 2419 397 2687 759 
Q 2956 1122 2956 1747 
Q 2956 2369 2687 2733 
Q 2419 3097 1959 3097 
z
M 1959 3584 
Q 2709 3584 3137 3096 
Q 3566 2609 3566 1747 
Q 3566 888 3137 398 
Q 2709 -91 1959 -91 
Q 1206 -91 779 398 
Q 353 888 353 1747 
Q 353 2609 779 3096 
Q 1206 3584 1959 3584 
z
" transform="scale(0.015625)"/>
       <path id="DejaVuSans-73" d="M 2834 3397 
L 2834 2853 
Q 2591 2978 2328 3040 
Q 2066 3103 1784 3103 
Q 1356 3103 1142 2972 
Q 928 2841 928 2578 
Q 928 2378 1081 2264 
Q 1234 2150 1697 2047 
L 1894 2003 
Q 2506 1872 2764 1633 
Q 3022 1394 3022 966 
Q 3022 478 2636 193 
Q 2250 -91 1575 -91 
Q 1294 -91 989 -36 
Q 684 19 347 128 
L 347 722 
Q 666 556 975 473 
Q 1284 391 1588 391 
Q 1994 391 2212 530 
Q 2431 669 2431 922 
Q 2431 1156 2273 1281 
Q 2116 1406 1581 1522 
L 1381 1569 
Q 847 1681 609 1914 
Q 372 2147 372 2553 
Q 372 3047 722 3315 
Q 1072 3584 1716 3584 
Q 2034 3584 2315 3537 
Q 2597 3491 2834 3397 
z
" transform="scale(0.015625)"/>
       <path id="DejaVuSans-72" d="M 2631 2963 
Q 2534 3019 2420 3045 
Q 2306 3072 2169 3072 
Q 1681 3072 1420 2755 
Q 1159 2438 1159 1844 
L 1159 0 
L 581 0 
L 581 3500 
L 1159 3500 
L 1159 2956 
Q 1341 3275 1631 3429 
Q 1922 3584 2338 3584 
Q 2397 3584 2469 3576 
Q 2541 3569 2628 3553 
L 2631 2963 
z
" transform="scale(0.015625)"/>
       <path id="DejaVuSans-70" d="M 1159 525 
L 1159 -1331 
L 581 -1331 
L 581 3500 
L 1159 3500 
L 1159 2969 
Q 1341 3281 1617 3432 
Q 1894 3584 2278 3584 
Q 2916 3584 3314 3078 
Q 3713 2572 3713 1747 
Q 3713 922 3314 415 
Q 2916 -91 2278 -91 
Q 1894 -91 1617 61 
Q 1341 213 1159 525 
z
M 3116 1747 
Q 3116 2381 2855 2742 
Q 2594 3103 2138 3103 
Q 1681 3103 1420 2742 
Q 1159 2381 1159 1747 
Q 1159 1113 1420 752 
Q 1681 391 2138 391 
Q 2594 391 2855 752 
Q 3116 1113 3116 1747 
z
" transform="scale(0.015625)"/>
       <path id="DejaVuSans-69" d="M 603 3500 
L 1178 3500 
L 1178 0 
L 603 0 
L 603 3500 
z
M 603 4863 
L 1178 4863 
L 1178 4134 
L 603 4134 
L 603 4863 
z
" transform="scale(0.015625)"/>
       <path id="DejaVuSans-61" d="M 2194 1759 
Q 1497 1759 1228 1600 
Q 959 1441 959 1056 
Q 959 750 1161 570 
Q 1363 391 1709 391 
Q 2188 391 2477 730 
Q 2766 1069 2766 1631 
L 2766 1759 
L 2194 1759 
z
M 3341 1997 
L 3341 0 
L 2766 0 
L 2766 531 
Q 2569 213 2275 61 
Q 1981 -91 1556 -91 
Q 1019 -91 701 211 
Q 384 513 384 1019 
Q 384 1609 779 1909 
Q 1175 2209 1959 2209 
L 2766 2209 
L 2766 2266 
Q 2766 2663 2505 2880 
Q 2244 3097 1772 3097 
Q 1472 3097 1187 3025 
Q 903 2953 641 2809 
L 641 3341 
Q 956 3463 1253 3523 
Q 1550 3584 1831 3584 
Q 2591 3584 2966 3190 
Q 3341 2797 3341 1997 
z
" transform="scale(0.015625)"/>
       <path id="DejaVuSans-28" d="M 1984 4856 
Q 1566 4138 1362 3434 
Q 1159 2731 1159 2009 
Q 1159 1288 1364 580 
Q 1569 -128 1984 -844 
L 1484 -844 
Q 1016 -109 783 600 
Q 550 1309 550 2009 
Q 550 2706 781 3412 
Q 1013 4119 1484 4856 
L 1984 4856 
z
" transform="scale(0.015625)"/>
       <path id="DejaVuSans-6d" d="M 3328 2828 
Q 3544 3216 3844 3400 
Q 4144 3584 4550 3584 
Q 5097 3584 5394 3201 
Q 5691 2819 5691 2113 
L 5691 0 
L 5113 0 
L 5113 2094 
Q 5113 2597 4934 2840 
Q 4756 3084 4391 3084 
Q 3944 3084 3684 2787 
Q 3425 2491 3425 1978 
L 3425 0 
L 2847 0 
L 2847 2094 
Q 2847 2600 2669 2842 
Q 2491 3084 2119 3084 
Q 1678 3084 1418 2786 
Q 1159 2488 1159 1978 
L 1159 0 
L 581 0 
L 581 3500 
L 1159 3500 
L 1159 2956 
Q 1356 3278 1631 3431 
Q 1906 3584 2284 3584 
Q 2666 3584 2933 3390 
Q 3200 3197 3328 2828 
z
" transform="scale(0.015625)"/>
       <path id="DejaVuSans-74" d="M 1172 4494 
L 1172 3500 
L 2356 3500 
L 2356 3053 
L 1172 3053 
L 1172 1153 
Q 1172 725 1289 603 
Q 1406 481 1766 481 
L 2356 481 
L 2356 0 
L 1766 0 
Q 1100 0 847 248 
Q 594 497 594 1153 
L 594 3053 
L 172 3053 
L 172 3500 
L 594 3500 
L 594 4494 
L 1172 4494 
z
" transform="scale(0.015625)"/>
       <path id="DejaVuSans-29" d="M 513 4856 
L 1013 4856 
Q 1481 4119 1714 3412 
Q 1947 2706 1947 2009 
Q 1947 1309 1714 600 
Q 1481 -109 1013 -844 
L 513 -844 
Q 928 -128 1133 580 
Q 1338 1288 1338 2009 
Q 1338 2731 1133 3434 
Q 928 4138 513 4856 
z
" transform="scale(0.015625)"/>
      </defs>
      <use xlink:href="#DejaVuSans-49"/>
      <use xlink:href="#DejaVuSans-6e" x="29.492188"/>
      <use xlink:href="#DejaVuSans-66" x="92.871094"/>
      <use xlink:href="#DejaVuSans-6c" x="128.076172"/>
      <use xlink:href="#DejaVuSans-75" x="155.859375"/>
      <use xlink:href="#DejaVuSans-65" x="219.238281"/>
      <use xlink:href="#DejaVuSans-6e" x="280.761719"/>
      <use xlink:href="#DejaVuSans-63" x="344.140625"/>
      <use xlink:href="#DejaVuSans-65" x="399.121094"/>
      <use xlink:href="#DejaVuSans-20" x="460.644531"/>
      <use xlink:href="#DejaVuSans-6f" x="492.431641"/>
      <use xlink:href="#DejaVuSans-66" x="553.613281"/>
      <use xlink:href="#DejaVuSans-20" x="588.818359"/>
      <use xlink:href="#DejaVuSans-73" x="620.605469"/>
      <use xlink:href="#DejaVuSans-75" x="672.705078"/>
      <use xlink:href="#DejaVuSans-72" x="736.083984"/>
      <use xlink:href="#DejaVuSans-70" x="777.197266"/>
      <use xlink:href="#DejaVuSans-72" x="840.673828"/>
      <use xlink:href="#DejaVuSans-69" x="881.787109"/>
      <use xlink:href="#DejaVuSans-73" x="909.570312"/>
      <use xlink:href="#DejaVuSans-61" x="961.669922"/>
      <use xlink:href="#DejaVuSans-6c" x="1022.949219"/>
      <use xlink:href="#DejaVuSans-20" x="1050.732422"/>
      <use xlink:href="#DejaVuSans-28" x="1082.519531"/>
      <use xlink:href="#DejaVuSans-6d" x="1121.533203"/>
      <use xlink:href="#DejaVuSans-75" x="1218.945312"/>
      <use xlink:href="#DejaVuSans-6c" x="1282.324219"/>
      <use xlink:href="#DejaVuSans-74" x="1310.107422"/>
      <use xlink:href="#DejaVuSans-69" x="1349.316406"/>
      <use xlink:href="#DejaVuSans-70" x="1377.099609"/>
      <use xlink:href="#DejaVuSans-6c" x="1440.576172"/>
      <use xlink:href="#DejaVuSans-69" x="1468.359375"/>
      <use xlink:href="#DejaVuSans-63" x="1496.142578"/>
      <use xlink:href="#DejaVuSans-61" x="1551.123047"/>
      <use xlink:href="#DejaVuSans-74" x="1612.402344"/>
      <use xlink:href="#DejaVuSans-69" x="1651.611328"/>
      <use xlink:href="#DejaVuSans-6f" x="1679.394531"/>
      <use xlink:href="#DejaVuSans-6e" x="1740.576172"/>
      <use xlink:href="#DejaVuSans-29" x="1803.955078"/>
     </g>
    </g>
   </g>
   <g id="matplotlib.axis_2">
    <g id="ytick_1">
     <g id="line2d_6">
      <defs>
       <path id="m404d15ea2f" d="M 0 0 
L -3.5 0 
" style="stroke: #000000; stroke-width: 0.8"/>
      </defs>
      <g>
       <use xlink:href="#m404d15ea2f" x="47.72" y="137.376036" style="stroke: #000000; stroke-width: 0.8"/>
      </g>
     </g>
     <g id="text_7">
      <!-- 0.4 -->
      <g transform="translate(24.816875 141.175255)scale(0.1 -0.1)">
       <defs>
        <path id="DejaVuSans-34" d="M 2419 4116 
L 825 1625 
L 2419 1625 
L 2419 4116 
z
M 2253 4666 
L 3047 4666 
L 3047 1625 
L 3713 1625 
L 3713 1100 
L 3047 1100 
L 3047 0 
L 2419 0 
L 2419 1100 
L 313 1100 
L 313 1709 
L 2253 4666 
z
" transform="scale(0.015625)"/>
       </defs>
       <use xlink:href="#DejaVuSans-30"/>
       <use xlink:href="#DejaVuSans-2e" x="63.623047"/>
       <use xlink:href="#DejaVuSans-34" x="95.410156"/>
      </g>
     </g>
    </g>
    <g id="ytick_2">
     <g id="line2d_7">
      <g>
       <use xlink:href="#m404d15ea2f" x="47.72" y="99.455336" style="stroke: #000000; stroke-width: 0.8"/>
      </g>
     </g>
     <g id="text_8">
      <!-- 0.6 -->
      <g transform="translate(24.816875 103.254555)scale(0.1 -0.1)">
       <defs>
        <path id="DejaVuSans-36" d="M 2113 2584 
Q 1688 2584 1439 2293 
Q 1191 2003 1191 1497 
Q 1191 994 1439 701 
Q 1688 409 2113 409 
Q 2538 409 2786 701 
Q 3034 994 3034 1497 
Q 3034 2003 2786 2293 
Q 2538 2584 2113 2584 
z
M 3366 4563 
L 3366 3988 
Q 3128 4100 2886 4159 
Q 2644 4219 2406 4219 
Q 1781 4219 1451 3797 
Q 1122 3375 1075 2522 
Q 1259 2794 1537 2939 
Q 1816 3084 2150 3084 
Q 2853 3084 3261 2657 
Q 3669 2231 3669 1497 
Q 3669 778 3244 343 
Q 2819 -91 2113 -91 
Q 1303 -91 875 529 
Q 447 1150 447 2328 
Q 447 3434 972 4092 
Q 1497 4750 2381 4750 
Q 2619 4750 2861 4703 
Q 3103 4656 3366 4563 
z
" transform="scale(0.015625)"/>
       </defs>
       <use xlink:href="#DejaVuSans-30"/>
       <use xlink:href="#DejaVuSans-2e" x="63.623047"/>
       <use xlink:href="#DejaVuSans-36" x="95.410156"/>
      </g>
     </g>
    </g>
    <g id="ytick_3">
     <g id="line2d_8">
      <g>
       <use xlink:href="#m404d15ea2f" x="47.72" y="61.534636" style="stroke: #000000; stroke-width: 0.8"/>
      </g>
     </g>
     <g id="text_9">
      <!-- 0.8 -->
      <g transform="translate(24.816875 65.333854)scale(0.1 -0.1)">
       <defs>
        <path id="DejaVuSans-38" d="M 2034 2216 
Q 1584 2216 1326 1975 
Q 1069 1734 1069 1313 
Q 1069 891 1326 650 
Q 1584 409 2034 409 
Q 2484 409 2743 651 
Q 3003 894 3003 1313 
Q 3003 1734 2745 1975 
Q 2488 2216 2034 2216 
z
M 1403 2484 
Q 997 2584 770 2862 
Q 544 3141 544 3541 
Q 544 4100 942 4425 
Q 1341 4750 2034 4750 
Q 2731 4750 3128 4425 
Q 3525 4100 3525 3541 
Q 3525 3141 3298 2862 
Q 3072 2584 2669 2484 
Q 3125 2378 3379 2068 
Q 3634 1759 3634 1313 
Q 3634 634 3220 271 
Q 2806 -91 2034 -91 
Q 1263 -91 848 271 
Q 434 634 434 1313 
Q 434 1759 690 2068 
Q 947 2378 1403 2484 
z
M 1172 3481 
Q 1172 3119 1398 2916 
Q 1625 2713 2034 2713 
Q 2441 2713 2670 2916 
Q 2900 3119 2900 3481 
Q 2900 3844 2670 4047 
Q 2441 4250 2034 4250 
Q 1625 4250 1398 4047 
Q 1172 3844 1172 3481 
z
" transform="scale(0.015625)"/>
       </defs>
       <use xlink:href="#DejaVuSans-30"/>
       <use xlink:href="#DejaVuSans-2e" x="63.623047"/>
       <use xlink:href="#DejaVuSans-38" x="95.410156"/>
      </g>
     </g>
    </g>
    <g id="text_10">
     <!-- R-value -->
     <g transform="translate(18.737188 119.064687)rotate(-90)scale(0.1 -0.1)">
      <defs>
       <path id="DejaVuSans-52" d="M 2841 2188 
Q 3044 2119 3236 1894 
Q 3428 1669 3622 1275 
L 4263 0 
L 3584 0 
L 2988 1197 
Q 2756 1666 2539 1819 
Q 2322 1972 1947 1972 
L 1259 1972 
L 1259 0 
L 628 0 
L 628 4666 
L 2053 4666 
Q 2853 4666 3247 4331 
Q 3641 3997 3641 3322 
Q 3641 2881 3436 2590 
Q 3231 2300 2841 2188 
z
M 1259 4147 
L 1259 2491 
L 2053 2491 
Q 2509 2491 2742 2702 
Q 2975 2913 2975 3322 
Q 2975 3731 2742 3939 
Q 2509 4147 2053 4147 
L 1259 4147 
z
" transform="scale(0.015625)"/>
       <path id="DejaVuSans-2d" d="M 313 2009 
L 1997 2009 
L 1997 1497 
L 313 1497 
L 313 2009 
z
" transform="scale(0.015625)"/>
       <path id="DejaVuSans-76" d="M 191 3500 
L 800 3500 
L 1894 563 
L 2988 3500 
L 3597 3500 
L 2284 0 
L 1503 0 
L 191 3500 
z
" transform="scale(0.015625)"/>
      </defs>
      <use xlink:href="#DejaVuSans-52"/>
      <use xlink:href="#DejaVuSans-2d" x="65.482422"/>
      <use xlink:href="#DejaVuSans-76" x="98.941406"/>
      <use xlink:href="#DejaVuSans-61" x="158.121094"/>
      <use xlink:href="#DejaVuSans-6c" x="219.400391"/>
      <use xlink:href="#DejaVuSans-75" x="247.183594"/>
      <use xlink:href="#DejaVuSans-65" x="310.5625"/>
     </g>
    </g>
   </g>
   <g id="line2d_9">
    <path d="M 47.72 34.413604 
L 59.167105 34.934944 
L 70.614211 37.751003 
L 82.061316 41.709518 
L 93.508421 46.880239 
L 104.955526 52.827489 
L 116.402632 59.493035 
L 127.849737 66.239625 
L 139.296842 73.692682 
L 150.743947 81.122294 
L 162.191053 88.274382 
L 173.638158 95.626371 
L 185.085263 102.353886 
L 196.532368 109.06689 
L 207.979474 115.361946 
L 219.426579 121.017284 
L 230.873684 126.696276 
L 242.320789 131.763954 
L 253.767895 136.616131 
L 265.215 141.387403 
" clip-path="url(#p55fd11a393)" style="fill: none; stroke: #1f77b4; stroke-width: 1.5; stroke-linecap: square"/>
   </g>
   <g id="line2d_10">
    <path d="M 47.72 34.42975 
L 59.167105 34.646095 
L 70.614211 36.175548 
L 82.061316 38.446812 
L 93.508421 41.588725 
L 104.955526 45.376827 
L 116.402632 49.96389 
L 127.849737 54.711593 
L 139.296842 60.178818 
L 150.743947 66.156365 
L 162.191053 72.092012 
L 173.638158 78.734775 
L 185.085263 85.089942 
L 196.532368 91.657783 
L 207.979474 97.932815 
L 219.426579 103.672803 
L 230.873684 109.678428 
L 242.320789 114.939191 
L 253.767895 120.283986 
L 265.215 125.417553 
" clip-path="url(#p55fd11a393)" style="fill: none; stroke: #ff7f0e; stroke-width: 1.5; stroke-linecap: square"/>
   </g>
   <g id="line2d_11">
    <path d="M 47.72 34.432856 
L 59.167105 34.75127 
L 70.614211 36.123584 
L 82.061316 37.924447 
L 93.508421 40.156954 
L 104.955526 42.734622 
L 116.402632 45.649626 
L 127.849737 48.594648 
L 139.296842 52.077597 
L 150.743947 55.742654 
L 162.191053 59.230441 
L 173.638158 62.956378 
L 185.085263 66.632627 
L 196.532368 70.099204 
L 207.979474 74.160792 
L 219.426579 77.543114 
L 230.873684 81.215078 
L 242.320789 84.504111 
L 253.767895 88.070344 
L 265.215 91.236621 
" clip-path="url(#p55fd11a393)" style="fill: none; stroke: #2ca02c; stroke-width: 1.5; stroke-linecap: square"/>
   </g>
   <g id="line2d_12">
    <path d="M 47.72 34.447684 
L 59.167105 34.627207 
L 70.614211 35.664917 
L 82.061316 37.075916 
L 93.508421 38.884278 
L 104.955526 41.04286 
L 116.402632 43.658778 
L 127.849737 46.348055 
L 139.296842 49.579324 
L 150.743947 53.194604 
L 162.191053 56.644805 
L 173.638158 60.51174 
L 185.085263 64.307815 
L 196.532368 67.983896 
L 207.979474 72.109802 
L 219.426579 75.613087 
L 230.873684 79.464423 
L 242.320789 82.801879 
L 253.767895 86.453806 
L 265.215 89.713365 
" clip-path="url(#p55fd11a393)" style="fill: none; stroke: #d62728; stroke-width: 1.5; stroke-linecap: square"/>
   </g>
   <g id="line2d_13">
    <path d="M 47.72 34.423589 
L 59.167105 34.945271 
L 70.614211 37.760532 
L 82.061316 41.726461 
L 93.508421 46.908779 
L 104.955526 52.832025 
L 116.402632 59.565081 
L 127.849737 66.328439 
L 139.296842 73.747192 
L 150.743947 81.167929 
L 162.191053 88.508563 
L 173.638158 95.881295 
L 185.085263 102.496093 
L 196.532368 109.200832 
L 207.979474 115.738996 
L 219.426579 121.385075 
L 230.873684 126.940028 
L 242.320789 131.423161 
L 253.767895 137.77267 
L 265.215 141.334683 
" clip-path="url(#p55fd11a393)" style="fill: none; stroke: #9467bd; stroke-width: 1.5; stroke-linecap: square"/>
   </g>
   <g id="line2d_14">
    <path d="M 47.72 34.439911 
L 59.167105 34.654776 
L 70.614211 36.18488 
L 82.061316 38.471155 
L 93.508421 41.612426 
L 104.955526 45.383621 
L 116.402632 50.002951 
L 127.849737 54.758657 
L 139.296842 60.252226 
L 150.743947 66.19639 
L 162.191053 72.194958 
L 173.638158 78.908349 
L 185.085263 85.204925 
L 196.532368 91.811705 
L 207.979474 98.143161 
L 219.426579 103.979962 
L 230.873684 109.954636 
L 242.320789 114.691185 
L 253.767895 121.087017 
L 265.215 125.318364 
" clip-path="url(#p55fd11a393)" style="fill: none; stroke: #8c564b; stroke-width: 1.5; stroke-linecap: square"/>
   </g>
   <g id="line2d_15">
    <path d="M 47.72 48.663497 
L 59.167105 49.507037 
L 70.614211 52.886288 
L 82.061316 57.790258 
L 93.508421 63.858279 
L 104.955526 70.578865 
L 116.402632 77.87355 
L 127.849737 85.460719 
L 139.296842 93.395391 
L 150.743947 101.282185 
L 162.191053 108.855429 
L 173.638158 116.482603 
L 185.085263 123.312127 
L 196.532368 130.224928 
L 207.979474 136.124341 
L 219.426579 141.415262 
L 230.873684 146.49571 
L 242.320789 150.901746 
L 253.767895 155.186832 
L 265.215 158.953882 
" clip-path="url(#p55fd11a393)" style="fill: none; stroke: #e377c2; stroke-width: 1.5; stroke-linecap: square"/>
   </g>
   <g id="line2d_16">
    <path d="M 47.72 34.44325 
L 59.167105 34.374633 
L 70.614211 34.648939 
L 82.061316 35.290531 
L 93.508421 36.520307 
L 104.955526 38.475758 
L 116.402632 41.106412 
L 127.849737 44.225791 
L 139.296842 48.301743 
L 150.743947 53.067302 
L 162.191053 58.13795 
L 173.638158 64.098721 
L 185.085263 70.356052 
L 196.532368 76.589853 
L 207.979474 83.112186 
L 219.426579 89.030147 
L 230.873684 95.222941 
L 242.320789 101.021399 
L 253.767895 106.817484 
L 265.215 112.415554 
" clip-path="url(#p55fd11a393)" style="fill: none; stroke: #7f7f7f; stroke-width: 1.5; stroke-linecap: square"/>
   </g>
   <g id="patch_3">
    <path d="M 47.72 174.04 
L 47.72 26.88 
" style="fill: none; stroke: #000000; stroke-width: 0.8; stroke-linejoin: miter; stroke-linecap: square"/>
   </g>
   <g id="patch_4">
    <path d="M 47.72 174.04 
L 265.215 174.04 
" style="fill: none; stroke: #000000; stroke-width: 0.8; stroke-linejoin: miter; stroke-linecap: square"/>
   </g>
   <g id="text_11">
    <!-- Node * surprisal -->
    <g transform="translate(108.18625 20.88)scale(0.12 -0.12)">
     <defs>
      <path id="DejaVuSans-4e" d="M 628 4666 
L 1478 4666 
L 3547 763 
L 3547 4666 
L 4159 4666 
L 4159 0 
L 3309 0 
L 1241 3903 
L 1241 0 
L 628 0 
L 628 4666 
z
" transform="scale(0.015625)"/>
      <path id="DejaVuSans-64" d="M 2906 2969 
L 2906 4863 
L 3481 4863 
L 3481 0 
L 2906 0 
L 2906 525 
Q 2725 213 2448 61 
Q 2172 -91 1784 -91 
Q 1150 -91 751 415 
Q 353 922 353 1747 
Q 353 2572 751 3078 
Q 1150 3584 1784 3584 
Q 2172 3584 2448 3432 
Q 2725 3281 2906 2969 
z
M 947 1747 
Q 947 1113 1208 752 
Q 1469 391 1925 391 
Q 2381 391 2643 752 
Q 2906 1113 2906 1747 
Q 2906 2381 2643 2742 
Q 2381 3103 1925 3103 
Q 1469 3103 1208 2742 
Q 947 2381 947 1747 
z
" transform="scale(0.015625)"/>
      <path id="DejaVuSans-2a" d="M 3009 3897 
L 1888 3291 
L 3009 2681 
L 2828 2375 
L 1778 3009 
L 1778 1831 
L 1422 1831 
L 1422 3009 
L 372 2375 
L 191 2681 
L 1313 3291 
L 191 3897 
L 372 4206 
L 1422 3572 
L 1422 4750 
L 1778 4750 
L 1778 3572 
L 2828 4206 
L 3009 3897 
z
" transform="scale(0.015625)"/>
     </defs>
     <use xlink:href="#DejaVuSans-4e"/>
     <use xlink:href="#DejaVuSans-6f" x="74.804688"/>
     <use xlink:href="#DejaVuSans-64" x="135.986328"/>
     <use xlink:href="#DejaVuSans-65" x="199.462891"/>
     <use xlink:href="#DejaVuSans-20" x="260.986328"/>
     <use xlink:href="#DejaVuSans-2a" x="292.773438"/>
     <use xlink:href="#DejaVuSans-20" x="342.773438"/>
     <use xlink:href="#DejaVuSans-73" x="374.560547"/>
     <use xlink:href="#DejaVuSans-75" x="426.660156"/>
     <use xlink:href="#DejaVuSans-72" x="490.039062"/>
     <use xlink:href="#DejaVuSans-70" x="531.152344"/>
     <use xlink:href="#DejaVuSans-72" x="594.628906"/>
     <use xlink:href="#DejaVuSans-69" x="635.742188"/>
     <use xlink:href="#DejaVuSans-73" x="663.525391"/>
     <use xlink:href="#DejaVuSans-61" x="715.625"/>
     <use xlink:href="#DejaVuSans-6c" x="776.904297"/>
    </g>
   </g>
  </g>
  <g id="axes_2">
   <g id="patch_5">
    <path d="M 298.065 174.04 
L 515.56 174.04 
L 515.56 26.88 
L 298.065 26.88 
z
" style="fill: #ffffff"/>
   </g>
   <g id="PolyCollection_9">
    <path d="M 298.065 33.569091 
L 298.065 34.854677 
L 309.512105 35.972272 
L 320.959211 39.185003 
L 332.406316 44.001775 
L 343.853421 50.757363 
L 355.300526 58.324529 
L 366.747632 66.452678 
L 378.194737 74.280551 
L 389.641842 82.283034 
L 401.088947 89.85489 
L 412.536053 97.424275 
L 423.983158 103.83901 
L 435.430263 110.722345 
L 446.877368 117.043482 
L 458.324474 122.522897 
L 469.771579 127.969487 
L 481.218684 133.601739 
L 492.665789 138.774282 
L 504.112895 143.744353 
L 515.56 148.410004 
L 515.56 139.559251 
L 515.56 139.559251 
L 504.112895 134.879919 
L 492.665789 130.23918 
L 481.218684 124.77056 
L 469.771579 119.071176 
L 458.324474 113.018297 
L 446.877368 106.179489 
L 435.430263 99.711759 
L 423.983158 91.892685 
L 412.536053 85.097265 
L 401.088947 77.578242 
L 389.641842 70.095016 
L 378.194737 62.704573 
L 366.747632 56.885618 
L 355.300526 50.260032 
L 343.853421 45.084854 
L 332.406316 40.451241 
L 320.959211 37.163871 
L 309.512105 34.594195 
L 298.065 33.569091 
z
" clip-path="url(#p69f02413e5)" style="fill: #1f77b4; fill-opacity: 0.4"/>
   </g>
   <g id="PolyCollection_10">
    <path d="M 298.065 33.582897 
L 298.065 34.874526 
L 309.512105 35.979348 
L 320.959211 39.174101 
L 332.406316 44.001507 
L 343.853421 50.777893 
L 355.300526 58.32951 
L 366.747632 66.448244 
L 378.194737 74.324103 
L 389.641842 82.333869 
L 401.088947 89.932845 
L 412.536053 97.568597 
L 423.983158 104.026069 
L 435.430263 111.013042 
L 446.877368 117.360517 
L 458.324474 122.892169 
L 469.771579 128.396847 
L 481.218684 134.04022 
L 492.665789 139.231269 
L 504.112895 144.15642 
L 515.56 148.796443 
L 515.56 139.131388 
L 515.56 139.131388 
L 504.112895 134.474413 
L 492.665789 129.872938 
L 481.218684 124.422097 
L 469.771579 118.823603 
L 458.324474 112.777728 
L 446.877368 106.080715 
L 435.430263 99.594418 
L 423.983158 91.815563 
L 412.536053 85.037607 
L 401.088947 77.558522 
L 389.641842 70.099981 
L 378.194737 62.716943 
L 366.747632 56.911173 
L 355.300526 50.269222 
L 343.853421 45.108482 
L 332.406316 40.490675 
L 320.959211 37.184862 
L 309.512105 34.612935 
L 298.065 33.582897 
z
" clip-path="url(#p69f02413e5)" style="fill: #ff7f0e; fill-opacity: 0.4"/>
   </g>
   <g id="PolyCollection_11">
    <path d="M 298.065 33.578316 
L 298.065 34.861025 
L 309.512105 35.989692 
L 320.959211 39.157581 
L 332.406316 43.977438 
L 343.853421 50.742667 
L 355.300526 58.303267 
L 366.747632 66.425975 
L 378.194737 74.363387 
L 389.641842 82.423114 
L 401.088947 90.091552 
L 412.536053 97.690476 
L 423.983158 104.13934 
L 435.430263 111.130262 
L 446.877368 117.438837 
L 458.324474 122.893015 
L 469.771579 128.383478 
L 481.218684 133.923631 
L 492.665789 139.139828 
L 504.112895 144.043968 
L 515.56 148.623426 
L 515.56 139.037553 
L 515.56 139.037553 
L 504.112895 134.411173 
L 492.665789 129.867917 
L 481.218684 124.528502 
L 469.771579 118.873328 
L 458.324474 112.951066 
L 446.877368 106.257301 
L 435.430263 99.754891 
L 423.983158 91.98505 
L 412.536053 85.131024 
L 401.088947 77.567219 
L 389.641842 70.10226 
L 378.194737 62.753668 
L 366.747632 56.99512 
L 355.300526 50.309183 
L 343.853421 45.139522 
L 332.406316 40.526219 
L 320.959211 37.222252 
L 309.512105 34.615502 
L 298.065 33.578316 
z
" clip-path="url(#p69f02413e5)" style="fill: #2ca02c; fill-opacity: 0.4"/>
   </g>
   <g id="PolyCollection_12">
    <path d="M 298.065 33.596474 
L 298.065 34.883973 
L 309.512105 36.001494 
L 320.959211 39.171575 
L 332.406316 43.988452 
L 343.853421 50.785096 
L 355.300526 58.332948 
L 366.747632 66.448465 
L 378.194737 74.393394 
L 389.641842 82.44389 
L 401.088947 90.110137 
L 412.536053 97.715 
L 423.983158 104.172213 
L 435.430263 111.167234 
L 446.877368 117.501962 
L 458.324474 122.99244 
L 469.771579 128.46458 
L 481.218684 134.003334 
L 492.665789 139.214252 
L 504.112895 144.101256 
L 515.56 148.678972 
L 515.56 139.329653 
L 515.56 139.329653 
L 504.112895 134.675324 
L 492.665789 130.065413 
L 481.218684 124.637125 
L 469.771579 118.980425 
L 458.324474 113.029855 
L 446.877368 106.356612 
L 435.430263 99.814523 
L 423.983158 92.039761 
L 412.536053 85.157487 
L 401.088947 77.589555 
L 389.641842 70.132347 
L 378.194737 62.763944 
L 366.747632 56.999441 
L 355.300526 50.319472 
L 343.853421 45.156178 
L 332.406316 40.555487 
L 320.959211 37.240767 
L 309.512105 34.626622 
L 298.065 33.596474 
z
" clip-path="url(#p69f02413e5)" style="fill: #d62728; fill-opacity: 0.4"/>
   </g>
   <g id="PolyCollection_13">
    <path d="M 298.065 33.577547 
L 298.065 34.884173 
L 309.512105 36.000727 
L 320.959211 39.20728 
L 332.406316 44.005082 
L 343.853421 50.765378 
L 355.300526 58.404988 
L 366.747632 66.603375 
L 378.194737 74.299002 
L 389.641842 82.226967 
L 401.088947 89.962075 
L 412.536053 97.519016 
L 423.983158 104.116572 
L 435.430263 111.150471 
L 446.877368 116.949519 
L 458.324474 122.724957 
L 469.771579 128.354404 
L 481.218684 133.348884 
L 492.665789 139.200889 
L 504.112895 144.22685 
L 515.56 149.401817 
L 515.56 140.101827 
L 515.56 140.101827 
L 504.112895 135.169795 
L 492.665789 130.536735 
L 481.218684 124.72317 
L 469.771579 119.478145 
L 458.324474 113.358266 
L 446.877368 106.364784 
L 435.430263 100.135183 
L 423.983158 92.01526 
L 412.536053 85.044664 
L 401.088947 77.729371 
L 389.641842 70.31964 
L 378.194737 62.764747 
L 366.747632 56.949992 
L 355.300526 50.261189 
L 343.853421 45.151566 
L 332.406316 40.479868 
L 320.959211 37.19518 
L 309.512105 34.601336 
L 298.065 33.577547 
z
" clip-path="url(#p69f02413e5)" style="fill: #9467bd; fill-opacity: 0.4"/>
   </g>
   <g id="PolyCollection_14">
    <path d="M 298.065 33.591593 
L 298.065 34.904425 
L 309.512105 36.008164 
L 320.959211 39.197133 
L 332.406316 44.004859 
L 343.853421 50.782798 
L 355.300526 58.403766 
L 366.747632 66.591525 
L 378.194737 74.337841 
L 389.641842 82.269191 
L 401.088947 90.028903 
L 412.536053 97.644895 
L 423.983158 104.30922 
L 435.430263 111.434039 
L 446.877368 117.252112 
L 458.324474 123.066231 
L 469.771579 128.757535 
L 481.218684 133.782529 
L 492.665789 139.622657 
L 504.112895 144.605575 
L 515.56 149.773698 
L 515.56 139.676346 
L 515.56 139.676346 
L 504.112895 134.765912 
L 492.665789 130.198209 
L 481.218684 124.370662 
L 469.771579 119.240616 
L 458.324474 113.134562 
L 446.877368 106.293644 
L 435.430263 100.021881 
L 423.983158 91.940977 
L 412.536053 84.991405 
L 401.088947 77.71885 
L 389.641842 70.335624 
L 378.194737 62.784164 
L 366.747632 56.978083 
L 355.300526 50.271832 
L 343.853421 45.175475 
L 332.406316 40.520392 
L 320.959211 37.216407 
L 309.512105 34.620719 
L 298.065 33.591593 
z
" clip-path="url(#p69f02413e5)" style="fill: #8c564b; fill-opacity: 0.4"/>
   </g>
   <g id="PolyCollection_15">
    <path d="M 298.065 45.667283 
L 298.065 51.322508 
L 309.512105 52.172435 
L 320.959211 54.745712 
L 332.406316 58.48661 
L 343.853421 64.225626 
L 355.300526 70.249558 
L 366.747632 77.475178 
L 378.194737 84.051594 
L 389.641842 91.386755 
L 401.088947 97.949396 
L 412.536053 104.725516 
L 423.983158 110.899499 
L 435.430263 117.353025 
L 446.877368 123.33104 
L 458.324474 128.783472 
L 469.771579 134.032641 
L 481.218684 139.520238 
L 492.665789 144.785393 
L 504.112895 149.698191 
L 515.56 154.123519 
L 515.56 145.571451 
L 515.56 145.571451 
L 504.112895 141.423678 
L 492.665789 137.64397 
L 481.218684 132.662685 
L 469.771579 127.296592 
L 458.324474 122.103003 
L 446.877368 115.555801 
L 435.430263 109.480993 
L 423.983158 102.031064 
L 412.536053 95.782839 
L 401.088947 88.48433 
L 389.641842 81.182205 
L 378.194737 74.358212 
L 366.747632 68.561353 
L 355.300526 62.345561 
L 343.853421 57.101321 
L 332.406316 52.433432 
L 320.959211 49.225937 
L 309.512105 46.667284 
L 298.065 45.667283 
z
" clip-path="url(#p69f02413e5)" style="fill: #e377c2; fill-opacity: 0.4"/>
   </g>
   <g id="PolyCollection_16">
    <path d="M 298.065 33.58799 
L 298.065 34.880003 
L 309.512105 35.990531 
L 320.959211 39.175429 
L 332.406316 44.005804 
L 343.853421 50.798232 
L 355.300526 58.342096 
L 366.747632 66.448324 
L 378.194737 74.363675 
L 389.641842 82.373972 
L 401.088947 89.97881 
L 412.536053 97.593999 
L 423.983158 104.044421 
L 435.430263 111.045824 
L 446.877368 117.362365 
L 458.324474 122.864726 
L 469.771579 128.339235 
L 481.218684 133.899756 
L 492.665789 139.092388 
L 504.112895 143.977479 
L 515.56 148.554128 
L 515.56 138.651338 
L 515.56 138.651338 
L 504.112895 134.043261 
L 492.665789 129.53489 
L 481.218684 124.188622 
L 469.771579 118.687375 
L 458.324474 112.742666 
L 446.877368 106.084267 
L 435.430263 99.622671 
L 423.983158 91.833596 
L 412.536053 85.040021 
L 401.088947 77.548645 
L 389.641842 70.118201 
L 378.194737 62.740917 
L 366.747632 56.967923 
L 355.300526 50.322936 
L 343.853421 45.160922 
L 332.406316 40.532916 
L 320.959211 37.202713 
L 309.512105 34.629433 
L 298.065 33.58799 
z
" clip-path="url(#p69f02413e5)" style="fill: #7f7f7f; fill-opacity: 0.4"/>
   </g>
   <g id="matplotlib.axis_3">
    <g id="xtick_6">
     <g id="line2d_17">
      <g>
       <use xlink:href="#mae3583e3ea" x="298.065" y="174.04" style="stroke: #000000; stroke-width: 0.8"/>
      </g>
     </g>
     <g id="text_12">
      <!-- 0.0 -->
      <g transform="translate(290.113437 188.638438)scale(0.1 -0.1)">
       <use xlink:href="#DejaVuSans-30"/>
       <use xlink:href="#DejaVuSans-2e" x="63.623047"/>
       <use xlink:href="#DejaVuSans-30" x="95.410156"/>
      </g>
     </g>
    </g>
    <g id="xtick_7">
     <g id="line2d_18">
      <g>
       <use xlink:href="#mae3583e3ea" x="352.43875" y="174.04" style="stroke: #000000; stroke-width: 0.8"/>
      </g>
     </g>
     <g id="text_13">
      <!-- 0.5 -->
      <g transform="translate(344.487187 188.638438)scale(0.1 -0.1)">
       <use xlink:href="#DejaVuSans-30"/>
       <use xlink:href="#DejaVuSans-2e" x="63.623047"/>
       <use xlink:href="#DejaVuSans-35" x="95.410156"/>
      </g>
     </g>
    </g>
    <g id="xtick_8">
     <g id="line2d_19">
      <g>
       <use xlink:href="#mae3583e3ea" x="406.8125" y="174.04" style="stroke: #000000; stroke-width: 0.8"/>
      </g>
     </g>
     <g id="text_14">
      <!-- 1.0 -->
      <g transform="translate(398.860937 188.638438)scale(0.1 -0.1)">
       <use xlink:href="#DejaVuSans-31"/>
       <use xlink:href="#DejaVuSans-2e" x="63.623047"/>
       <use xlink:href="#DejaVuSans-30" x="95.410156"/>
      </g>
     </g>
    </g>
    <g id="xtick_9">
     <g id="line2d_20">
      <g>
       <use xlink:href="#mae3583e3ea" x="461.18625" y="174.04" style="stroke: #000000; stroke-width: 0.8"/>
      </g>
     </g>
     <g id="text_15">
      <!-- 1.5 -->
      <g transform="translate(453.234687 188.638438)scale(0.1 -0.1)">
       <use xlink:href="#DejaVuSans-31"/>
       <use xlink:href="#DejaVuSans-2e" x="63.623047"/>
       <use xlink:href="#DejaVuSans-35" x="95.410156"/>
      </g>
     </g>
    </g>
    <g id="xtick_10">
     <g id="line2d_21">
      <g>
       <use xlink:href="#mae3583e3ea" x="515.56" y="174.04" style="stroke: #000000; stroke-width: 0.8"/>
      </g>
     </g>
     <g id="text_16">
      <!-- 2.0 -->
      <g transform="translate(507.608437 188.638438)scale(0.1 -0.1)">
       <use xlink:href="#DejaVuSans-32"/>
       <use xlink:href="#DejaVuSans-2e" x="63.623047"/>
       <use xlink:href="#DejaVuSans-30" x="95.410156"/>
      </g>
     </g>
    </g>
    <g id="text_17">
     <!-- Influence of surprisal (multiplication) -->
     <g transform="translate(314.665625 202.316563)scale(0.1 -0.1)">
      <use xlink:href="#DejaVuSans-49"/>
      <use xlink:href="#DejaVuSans-6e" x="29.492188"/>
      <use xlink:href="#DejaVuSans-66" x="92.871094"/>
      <use xlink:href="#DejaVuSans-6c" x="128.076172"/>
      <use xlink:href="#DejaVuSans-75" x="155.859375"/>
      <use xlink:href="#DejaVuSans-65" x="219.238281"/>
      <use xlink:href="#DejaVuSans-6e" x="280.761719"/>
      <use xlink:href="#DejaVuSans-63" x="344.140625"/>
      <use xlink:href="#DejaVuSans-65" x="399.121094"/>
      <use xlink:href="#DejaVuSans-20" x="460.644531"/>
      <use xlink:href="#DejaVuSans-6f" x="492.431641"/>
      <use xlink:href="#DejaVuSans-66" x="553.613281"/>
      <use xlink:href="#DejaVuSans-20" x="588.818359"/>
      <use xlink:href="#DejaVuSans-73" x="620.605469"/>
      <use xlink:href="#DejaVuSans-75" x="672.705078"/>
      <use xlink:href="#DejaVuSans-72" x="736.083984"/>
      <use xlink:href="#DejaVuSans-70" x="777.197266"/>
      <use xlink:href="#DejaVuSans-72" x="840.673828"/>
      <use xlink:href="#DejaVuSans-69" x="881.787109"/>
      <use xlink:href="#DejaVuSans-73" x="909.570312"/>
      <use xlink:href="#DejaVuSans-61" x="961.669922"/>
      <use xlink:href="#DejaVuSans-6c" x="1022.949219"/>
      <use xlink:href="#DejaVuSans-20" x="1050.732422"/>
      <use xlink:href="#DejaVuSans-28" x="1082.519531"/>
      <use xlink:href="#DejaVuSans-6d" x="1121.533203"/>
      <use xlink:href="#DejaVuSans-75" x="1218.945312"/>
      <use xlink:href="#DejaVuSans-6c" x="1282.324219"/>
      <use xlink:href="#DejaVuSans-74" x="1310.107422"/>
      <use xlink:href="#DejaVuSans-69" x="1349.316406"/>
      <use xlink:href="#DejaVuSans-70" x="1377.099609"/>
      <use xlink:href="#DejaVuSans-6c" x="1440.576172"/>
      <use xlink:href="#DejaVuSans-69" x="1468.359375"/>
      <use xlink:href="#DejaVuSans-63" x="1496.142578"/>
      <use xlink:href="#DejaVuSans-61" x="1551.123047"/>
      <use xlink:href="#DejaVuSans-74" x="1612.402344"/>
      <use xlink:href="#DejaVuSans-69" x="1651.611328"/>
      <use xlink:href="#DejaVuSans-6f" x="1679.394531"/>
      <use xlink:href="#DejaVuSans-6e" x="1740.576172"/>
      <use xlink:href="#DejaVuSans-29" x="1803.955078"/>
     </g>
    </g>
   </g>
   <g id="line2d_22">
    <path d="M 298.065 34.211884 
L 309.512105 35.283233 
L 320.959211 38.174437 
L 332.406316 42.226508 
L 343.853421 47.921109 
L 355.300526 54.292281 
L 366.747632 61.669148 
L 378.194737 68.492562 
L 389.641842 76.189025 
L 401.088947 83.716566 
L 412.536053 91.26077 
L 423.983158 97.865848 
L 435.430263 105.217052 
L 446.877368 111.611486 
L 458.324474 117.770597 
L 469.771579 123.520331 
L 481.218684 129.186149 
L 492.665789 134.506731 
L 504.112895 139.312136 
L 515.56 143.984627 
" clip-path="url(#p69f02413e5)" style="fill: none; stroke: #1f77b4; stroke-width: 1.5; stroke-linecap: square"/>
   </g>
   <g id="line2d_23">
    <path d="M 298.065 34.228712 
L 309.512105 35.296142 
L 320.959211 38.179482 
L 332.406316 42.246091 
L 343.853421 47.943187 
L 355.300526 54.299366 
L 366.747632 61.679708 
L 378.194737 68.520523 
L 389.641842 76.216925 
L 401.088947 83.745683 
L 412.536053 91.303102 
L 423.983158 97.920816 
L 435.430263 105.30373 
L 446.877368 111.720616 
L 458.324474 117.834949 
L 469.771579 123.610225 
L 481.218684 129.231159 
L 492.665789 134.552104 
L 504.112895 139.315416 
L 515.56 143.963915 
" clip-path="url(#p69f02413e5)" style="fill: none; stroke: #ff7f0e; stroke-width: 1.5; stroke-linecap: square"/>
   </g>
   <g id="line2d_24">
    <path d="M 298.065 34.219671 
L 309.512105 35.302597 
L 320.959211 38.189917 
L 332.406316 42.251829 
L 343.853421 47.941095 
L 355.300526 54.306225 
L 366.747632 61.710548 
L 378.194737 68.558527 
L 389.641842 76.262687 
L 401.088947 83.829385 
L 412.536053 91.41075 
L 423.983158 98.062195 
L 435.430263 105.442576 
L 446.877368 111.848069 
L 458.324474 117.92204 
L 469.771579 123.628403 
L 481.218684 129.226067 
L 492.665789 134.503873 
L 504.112895 139.22757 
L 515.56 143.83049 
" clip-path="url(#p69f02413e5)" style="fill: none; stroke: #2ca02c; stroke-width: 1.5; stroke-linecap: square"/>
   </g>
   <g id="line2d_25">
    <path d="M 298.065 34.240224 
L 309.512105 35.314058 
L 320.959211 38.206171 
L 332.406316 42.27197 
L 343.853421 47.970637 
L 355.300526 54.32621 
L 366.747632 61.723953 
L 378.194737 68.578669 
L 389.641842 76.288119 
L 401.088947 83.849846 
L 412.536053 91.436244 
L 423.983158 98.105987 
L 435.430263 105.490878 
L 446.877368 111.929287 
L 458.324474 118.011148 
L 469.771579 123.722503 
L 481.218684 129.320229 
L 492.665789 134.639833 
L 504.112895 139.38829 
L 515.56 144.004313 
" clip-path="url(#p69f02413e5)" style="fill: none; stroke: #d62728; stroke-width: 1.5; stroke-linecap: square"/>
   </g>
   <g id="line2d_26">
    <path d="M 298.065 34.23086 
L 309.512105 35.301031 
L 320.959211 38.20123 
L 332.406316 42.242475 
L 343.853421 47.958472 
L 355.300526 54.333089 
L 366.747632 61.776684 
L 378.194737 68.531875 
L 389.641842 76.273303 
L 401.088947 83.845723 
L 412.536053 91.28184 
L 423.983158 98.065916 
L 435.430263 105.642827 
L 446.877368 111.657152 
L 458.324474 118.041611 
L 469.771579 123.916274 
L 481.218684 129.036027 
L 492.665789 134.868812 
L 504.112895 139.698322 
L 515.56 144.751822 
" clip-path="url(#p69f02413e5)" style="fill: none; stroke: #9467bd; stroke-width: 1.5; stroke-linecap: square"/>
   </g>
   <g id="line2d_27">
    <path d="M 298.065 34.248009 
L 309.512105 35.314441 
L 320.959211 38.20677 
L 332.406316 42.262626 
L 343.853421 47.979136 
L 355.300526 54.337799 
L 366.747632 61.784804 
L 378.194737 68.561002 
L 389.641842 76.302407 
L 401.088947 83.873876 
L 412.536053 91.31815 
L 423.983158 98.125098 
L 435.430263 105.72796 
L 446.877368 111.772878 
L 458.324474 118.100396 
L 469.771579 123.999076 
L 481.218684 129.076595 
L 492.665789 134.910433 
L 504.112895 139.685744 
L 515.56 144.725022 
" clip-path="url(#p69f02413e5)" style="fill: none; stroke: #8c564b; stroke-width: 1.5; stroke-linecap: square"/>
   </g>
   <g id="line2d_28">
    <path d="M 298.065 48.494895 
L 309.512105 49.419859 
L 320.959211 51.985824 
L 332.406316 55.460021 
L 343.853421 60.663473 
L 355.300526 66.297559 
L 366.747632 73.018266 
L 378.194737 79.204903 
L 389.641842 86.28448 
L 401.088947 93.216863 
L 412.536053 100.254178 
L 423.983158 106.465281 
L 435.430263 113.417009 
L 446.877368 119.44342 
L 458.324474 125.443238 
L 469.771579 130.664616 
L 481.218684 136.091461 
L 492.665789 141.214681 
L 504.112895 145.560934 
L 515.56 149.847485 
" clip-path="url(#p69f02413e5)" style="fill: none; stroke: #e377c2; stroke-width: 1.5; stroke-linecap: square"/>
   </g>
   <g id="line2d_29">
    <path d="M 298.065 34.233996 
L 309.512105 35.309982 
L 320.959211 38.189071 
L 332.406316 42.26936 
L 343.853421 47.979577 
L 355.300526 54.332516 
L 366.747632 61.708124 
L 378.194737 68.552296 
L 389.641842 76.246086 
L 401.088947 83.763727 
L 412.536053 91.31701 
L 423.983158 97.939009 
L 435.430263 105.334247 
L 446.877368 111.723316 
L 458.324474 117.803696 
L 469.771579 123.513305 
L 481.218684 129.044189 
L 492.665789 134.313639 
L 504.112895 139.01037 
L 515.56 143.602733 
" clip-path="url(#p69f02413e5)" style="fill: none; stroke: #7f7f7f; stroke-width: 1.5; stroke-linecap: square"/>
   </g>
   <g id="patch_6">
    <path d="M 298.065 174.04 
L 298.065 26.88 
" style="fill: none; stroke: #000000; stroke-width: 0.8; stroke-linejoin: miter; stroke-linecap: square"/>
   </g>
   <g id="patch_7">
    <path d="M 298.065 174.04 
L 515.56 174.04 
" style="fill: none; stroke: #000000; stroke-width: 0.8; stroke-linejoin: miter; stroke-linecap: square"/>
   </g>
   <g id="text_18">
    <!-- Node * third variable -->
    <g transform="translate(344.2325 20.88)scale(0.12 -0.12)">
     <defs>
      <path id="DejaVuSans-68" d="M 3513 2113 
L 3513 0 
L 2938 0 
L 2938 2094 
Q 2938 2591 2744 2837 
Q 2550 3084 2163 3084 
Q 1697 3084 1428 2787 
Q 1159 2491 1159 1978 
L 1159 0 
L 581 0 
L 581 4863 
L 1159 4863 
L 1159 2956 
Q 1366 3272 1645 3428 
Q 1925 3584 2291 3584 
Q 2894 3584 3203 3211 
Q 3513 2838 3513 2113 
z
" transform="scale(0.015625)"/>
      <path id="DejaVuSans-62" d="M 3116 1747 
Q 3116 2381 2855 2742 
Q 2594 3103 2138 3103 
Q 1681 3103 1420 2742 
Q 1159 2381 1159 1747 
Q 1159 1113 1420 752 
Q 1681 391 2138 391 
Q 2594 391 2855 752 
Q 3116 1113 3116 1747 
z
M 1159 2969 
Q 1341 3281 1617 3432 
Q 1894 3584 2278 3584 
Q 2916 3584 3314 3078 
Q 3713 2572 3713 1747 
Q 3713 922 3314 415 
Q 2916 -91 2278 -91 
Q 1894 -91 1617 61 
Q 1341 213 1159 525 
L 1159 0 
L 581 0 
L 581 4863 
L 1159 4863 
L 1159 2969 
z
" transform="scale(0.015625)"/>
     </defs>
     <use xlink:href="#DejaVuSans-4e"/>
     <use xlink:href="#DejaVuSans-6f" x="74.804688"/>
     <use xlink:href="#DejaVuSans-64" x="135.986328"/>
     <use xlink:href="#DejaVuSans-65" x="199.462891"/>
     <use xlink:href="#DejaVuSans-20" x="260.986328"/>
     <use xlink:href="#DejaVuSans-2a" x="292.773438"/>
     <use xlink:href="#DejaVuSans-20" x="342.773438"/>
     <use xlink:href="#DejaVuSans-74" x="374.560547"/>
     <use xlink:href="#DejaVuSans-68" x="413.769531"/>
     <use xlink:href="#DejaVuSans-69" x="477.148438"/>
     <use xlink:href="#DejaVuSans-72" x="504.931641"/>
     <use xlink:href="#DejaVuSans-64" x="544.294922"/>
     <use xlink:href="#DejaVuSans-20" x="607.771484"/>
     <use xlink:href="#DejaVuSans-76" x="639.558594"/>
     <use xlink:href="#DejaVuSans-61" x="698.738281"/>
     <use xlink:href="#DejaVuSans-72" x="760.017578"/>
     <use xlink:href="#DejaVuSans-69" x="801.130859"/>
     <use xlink:href="#DejaVuSans-61" x="828.914062"/>
     <use xlink:href="#DejaVuSans-62" x="890.193359"/>
     <use xlink:href="#DejaVuSans-6c" x="953.669922"/>
     <use xlink:href="#DejaVuSans-65" x="981.453125"/>
    </g>
   </g>
   <g id="legend_1">
    <g id="line2d_30">
     <path d="M 524.56 39.978437 
L 534.56 39.978437 
L 544.56 39.978437 
" style="fill: none; stroke: #1f77b4; stroke-width: 1.5; stroke-linecap: square"/>
    </g>
    <g id="text_19">
     <!-- Node -->
     <g transform="translate(552.56 43.478437)scale(0.1 -0.1)">
      <use xlink:href="#DejaVuSans-4e"/>
      <use xlink:href="#DejaVuSans-6f" x="74.804688"/>
      <use xlink:href="#DejaVuSans-64" x="135.986328"/>
      <use xlink:href="#DejaVuSans-65" x="199.462891"/>
     </g>
    </g>
    <g id="line2d_31">
     <path d="M 524.56 54.656563 
L 534.56 54.656563 
L 544.56 54.656563 
" style="fill: none; stroke: #ff7f0e; stroke-width: 1.5; stroke-linecap: square"/>
    </g>
    <g id="text_20">
     <!-- Node + surprisal -->
     <g transform="translate(552.56 58.156563)scale(0.1 -0.1)">
      <defs>
       <path id="DejaVuSans-2b" d="M 2944 4013 
L 2944 2272 
L 4684 2272 
L 4684 1741 
L 2944 1741 
L 2944 0 
L 2419 0 
L 2419 1741 
L 678 1741 
L 678 2272 
L 2419 2272 
L 2419 4013 
L 2944 4013 
z
" transform="scale(0.015625)"/>
      </defs>
      <use xlink:href="#DejaVuSans-4e"/>
      <use xlink:href="#DejaVuSans-6f" x="74.804688"/>
      <use xlink:href="#DejaVuSans-64" x="135.986328"/>
      <use xlink:href="#DejaVuSans-65" x="199.462891"/>
      <use xlink:href="#DejaVuSans-20" x="260.986328"/>
      <use xlink:href="#DejaVuSans-2b" x="292.773438"/>
      <use xlink:href="#DejaVuSans-20" x="376.5625"/>
      <use xlink:href="#DejaVuSans-73" x="408.349609"/>
      <use xlink:href="#DejaVuSans-75" x="460.449219"/>
      <use xlink:href="#DejaVuSans-72" x="523.828125"/>
      <use xlink:href="#DejaVuSans-70" x="564.941406"/>
      <use xlink:href="#DejaVuSans-72" x="628.417969"/>
      <use xlink:href="#DejaVuSans-69" x="669.53125"/>
      <use xlink:href="#DejaVuSans-73" x="697.314453"/>
      <use xlink:href="#DejaVuSans-61" x="749.414062"/>
      <use xlink:href="#DejaVuSans-6c" x="810.693359"/>
     </g>
    </g>
    <g id="line2d_32">
     <path d="M 524.56 69.334687 
L 534.56 69.334687 
L 544.56 69.334687 
" style="fill: none; stroke: #2ca02c; stroke-width: 1.5; stroke-linecap: square"/>
    </g>
    <g id="text_21">
     <!-- Node split -->
     <g transform="translate(552.56 72.834687)scale(0.1 -0.1)">
      <use xlink:href="#DejaVuSans-4e"/>
      <use xlink:href="#DejaVuSans-6f" x="74.804688"/>
      <use xlink:href="#DejaVuSans-64" x="135.986328"/>
      <use xlink:href="#DejaVuSans-65" x="199.462891"/>
      <use xlink:href="#DejaVuSans-20" x="260.986328"/>
      <use xlink:href="#DejaVuSans-73" x="292.773438"/>
      <use xlink:href="#DejaVuSans-70" x="344.873047"/>
      <use xlink:href="#DejaVuSans-6c" x="408.349609"/>
      <use xlink:href="#DejaVuSans-69" x="436.132812"/>
      <use xlink:href="#DejaVuSans-74" x="463.916016"/>
     </g>
    </g>
    <g id="line2d_33">
     <path d="M 524.56 84.012812 
L 534.56 84.012812 
L 544.56 84.012812 
" style="fill: none; stroke: #d62728; stroke-width: 1.5; stroke-linecap: square"/>
    </g>
    <g id="text_22">
     <!-- Node split + surprisal -->
     <g transform="translate(552.56 87.512812)scale(0.1 -0.1)">
      <use xlink:href="#DejaVuSans-4e"/>
      <use xlink:href="#DejaVuSans-6f" x="74.804688"/>
      <use xlink:href="#DejaVuSans-64" x="135.986328"/>
      <use xlink:href="#DejaVuSans-65" x="199.462891"/>
      <use xlink:href="#DejaVuSans-20" x="260.986328"/>
      <use xlink:href="#DejaVuSans-73" x="292.773438"/>
      <use xlink:href="#DejaVuSans-70" x="344.873047"/>
      <use xlink:href="#DejaVuSans-6c" x="408.349609"/>
      <use xlink:href="#DejaVuSans-69" x="436.132812"/>
      <use xlink:href="#DejaVuSans-74" x="463.916016"/>
      <use xlink:href="#DejaVuSans-20" x="503.125"/>
      <use xlink:href="#DejaVuSans-2b" x="534.912109"/>
      <use xlink:href="#DejaVuSans-20" x="618.701172"/>
      <use xlink:href="#DejaVuSans-73" x="650.488281"/>
      <use xlink:href="#DejaVuSans-75" x="702.587891"/>
      <use xlink:href="#DejaVuSans-72" x="765.966797"/>
      <use xlink:href="#DejaVuSans-70" x="807.080078"/>
      <use xlink:href="#DejaVuSans-72" x="870.556641"/>
      <use xlink:href="#DejaVuSans-69" x="911.669922"/>
      <use xlink:href="#DejaVuSans-73" x="939.453125"/>
      <use xlink:href="#DejaVuSans-61" x="991.552734"/>
      <use xlink:href="#DejaVuSans-6c" x="1052.832031"/>
     </g>
    </g>
    <g id="line2d_34">
     <path d="M 524.56 98.690937 
L 534.56 98.690937 
L 544.56 98.690937 
" style="fill: none; stroke: #9467bd; stroke-width: 1.5; stroke-linecap: square"/>
    </g>
    <g id="text_23">
     <!-- Node random split -->
     <g transform="translate(552.56 102.190937)scale(0.1 -0.1)">
      <use xlink:href="#DejaVuSans-4e"/>
      <use xlink:href="#DejaVuSans-6f" x="74.804688"/>
      <use xlink:href="#DejaVuSans-64" x="135.986328"/>
      <use xlink:href="#DejaVuSans-65" x="199.462891"/>
      <use xlink:href="#DejaVuSans-20" x="260.986328"/>
      <use xlink:href="#DejaVuSans-72" x="292.773438"/>
      <use xlink:href="#DejaVuSans-61" x="333.886719"/>
      <use xlink:href="#DejaVuSans-6e" x="395.166016"/>
      <use xlink:href="#DejaVuSans-64" x="458.544922"/>
      <use xlink:href="#DejaVuSans-6f" x="522.021484"/>
      <use xlink:href="#DejaVuSans-6d" x="583.203125"/>
      <use xlink:href="#DejaVuSans-20" x="680.615234"/>
      <use xlink:href="#DejaVuSans-73" x="712.402344"/>
      <use xlink:href="#DejaVuSans-70" x="764.501953"/>
      <use xlink:href="#DejaVuSans-6c" x="827.978516"/>
      <use xlink:href="#DejaVuSans-69" x="855.761719"/>
      <use xlink:href="#DejaVuSans-74" x="883.544922"/>
     </g>
    </g>
    <g id="line2d_35">
     <path d="M 524.56 113.369062 
L 534.56 113.369062 
L 544.56 113.369062 
" style="fill: none; stroke: #8c564b; stroke-width: 1.5; stroke-linecap: square"/>
    </g>
    <g id="text_24">
     <!-- Node random split + surprisal -->
     <g transform="translate(552.56 116.869062)scale(0.1 -0.1)">
      <use xlink:href="#DejaVuSans-4e"/>
      <use xlink:href="#DejaVuSans-6f" x="74.804688"/>
      <use xlink:href="#DejaVuSans-64" x="135.986328"/>
      <use xlink:href="#DejaVuSans-65" x="199.462891"/>
      <use xlink:href="#DejaVuSans-20" x="260.986328"/>
      <use xlink:href="#DejaVuSans-72" x="292.773438"/>
      <use xlink:href="#DejaVuSans-61" x="333.886719"/>
      <use xlink:href="#DejaVuSans-6e" x="395.166016"/>
      <use xlink:href="#DejaVuSans-64" x="458.544922"/>
      <use xlink:href="#DejaVuSans-6f" x="522.021484"/>
      <use xlink:href="#DejaVuSans-6d" x="583.203125"/>
      <use xlink:href="#DejaVuSans-20" x="680.615234"/>
      <use xlink:href="#DejaVuSans-73" x="712.402344"/>
      <use xlink:href="#DejaVuSans-70" x="764.501953"/>
      <use xlink:href="#DejaVuSans-6c" x="827.978516"/>
      <use xlink:href="#DejaVuSans-69" x="855.761719"/>
      <use xlink:href="#DejaVuSans-74" x="883.544922"/>
      <use xlink:href="#DejaVuSans-20" x="922.753906"/>
      <use xlink:href="#DejaVuSans-2b" x="954.541016"/>
      <use xlink:href="#DejaVuSans-20" x="1038.330078"/>
      <use xlink:href="#DejaVuSans-73" x="1070.117188"/>
      <use xlink:href="#DejaVuSans-75" x="1122.216797"/>
      <use xlink:href="#DejaVuSans-72" x="1185.595703"/>
      <use xlink:href="#DejaVuSans-70" x="1226.708984"/>
      <use xlink:href="#DejaVuSans-72" x="1290.185547"/>
      <use xlink:href="#DejaVuSans-69" x="1331.298828"/>
      <use xlink:href="#DejaVuSans-73" x="1359.082031"/>
      <use xlink:href="#DejaVuSans-61" x="1411.181641"/>
      <use xlink:href="#DejaVuSans-6c" x="1472.460938"/>
     </g>
    </g>
    <g id="line2d_36">
     <path d="M 524.56 128.047187 
L 534.56 128.047187 
L 544.56 128.047187 
" style="fill: none; stroke: #e377c2; stroke-width: 1.5; stroke-linecap: square"/>
    </g>
    <g id="text_25">
     <!-- Interaction -->
     <g transform="translate(552.56 131.547187)scale(0.1 -0.1)">
      <use xlink:href="#DejaVuSans-49"/>
      <use xlink:href="#DejaVuSans-6e" x="29.492188"/>
      <use xlink:href="#DejaVuSans-74" x="92.871094"/>
      <use xlink:href="#DejaVuSans-65" x="132.080078"/>
      <use xlink:href="#DejaVuSans-72" x="193.603516"/>
      <use xlink:href="#DejaVuSans-61" x="234.716797"/>
      <use xlink:href="#DejaVuSans-63" x="295.996094"/>
      <use xlink:href="#DejaVuSans-74" x="350.976562"/>
      <use xlink:href="#DejaVuSans-69" x="390.185547"/>
      <use xlink:href="#DejaVuSans-6f" x="417.96875"/>
      <use xlink:href="#DejaVuSans-6e" x="479.150391"/>
     </g>
    </g>
    <g id="line2d_37">
     <path d="M 524.56 142.725312 
L 534.56 142.725312 
L 544.56 142.725312 
" style="fill: none; stroke: #7f7f7f; stroke-width: 1.5; stroke-linecap: square"/>
    </g>
    <g id="text_26">
     <!-- Node + surprisal + interaction -->
     <g transform="translate(552.56 146.225312)scale(0.1 -0.1)">
      <use xlink:href="#DejaVuSans-4e"/>
      <use xlink:href="#DejaVuSans-6f" x="74.804688"/>
      <use xlink:href="#DejaVuSans-64" x="135.986328"/>
      <use xlink:href="#DejaVuSans-65" x="199.462891"/>
      <use xlink:href="#DejaVuSans-20" x="260.986328"/>
      <use xlink:href="#DejaVuSans-2b" x="292.773438"/>
      <use xlink:href="#DejaVuSans-20" x="376.5625"/>
      <use xlink:href="#DejaVuSans-73" x="408.349609"/>
      <use xlink:href="#DejaVuSans-75" x="460.449219"/>
      <use xlink:href="#DejaVuSans-72" x="523.828125"/>
      <use xlink:href="#DejaVuSans-70" x="564.941406"/>
      <use xlink:href="#DejaVuSans-72" x="628.417969"/>
      <use xlink:href="#DejaVuSans-69" x="669.53125"/>
      <use xlink:href="#DejaVuSans-73" x="697.314453"/>
      <use xlink:href="#DejaVuSans-61" x="749.414062"/>
      <use xlink:href="#DejaVuSans-6c" x="810.693359"/>
      <use xlink:href="#DejaVuSans-20" x="838.476562"/>
      <use xlink:href="#DejaVuSans-2b" x="870.263672"/>
      <use xlink:href="#DejaVuSans-20" x="954.052734"/>
      <use xlink:href="#DejaVuSans-69" x="985.839844"/>
      <use xlink:href="#DejaVuSans-6e" x="1013.623047"/>
      <use xlink:href="#DejaVuSans-74" x="1077.001953"/>
      <use xlink:href="#DejaVuSans-65" x="1116.210938"/>
      <use xlink:href="#DejaVuSans-72" x="1177.734375"/>
      <use xlink:href="#DejaVuSans-61" x="1218.847656"/>
      <use xlink:href="#DejaVuSans-63" x="1280.126953"/>
      <use xlink:href="#DejaVuSans-74" x="1335.107422"/>
      <use xlink:href="#DejaVuSans-69" x="1374.316406"/>
      <use xlink:href="#DejaVuSans-6f" x="1402.099609"/>
      <use xlink:href="#DejaVuSans-6e" x="1463.28125"/>
     </g>
    </g>
   </g>
  </g>
 </g>
 <defs>
  <clipPath id="p55fd11a393">
   <rect x="47.72" y="26.88" width="217.495" height="147.16"/>
  </clipPath>
  <clipPath id="p69f02413e5">
   <rect x="298.065" y="26.88" width="217.495" height="147.16"/>
  </clipPath>
 </defs>
</svg>
