<?xml version="1.0" encoding="utf-8" standalone="no"?>
<!DOCTYPE svg PUBLIC "-//W3C//DTD SVG 1.1//EN"
  "http://www.w3.org/Graphics/SVG/1.1/DTD/svg11.dtd">
<svg xmlns:xlink="http://www.w3.org/1999/xlink" width="720pt" height="216pt" viewBox="0 0 720 216" xmlns="http://www.w3.org/2000/svg" version="1.1">
 <metadata>
  <rdf:RDF xmlns:dc="http://purl.org/dc/elements/1.1/" xmlns:cc="http://creativecommons.org/ns#" xmlns:rdf="http://www.w3.org/1999/02/22-rdf-syntax-ns#">
   <cc:Work>
    <dc:type rdf:resource="http://purl.org/dc/dcmitype/StillImage"/>
    <dc:date>2024-01-16T05:45:40.382092</dc:date>
    <dc:format>image/svg+xml</dc:format>
    <dc:creator>
     <cc:Agent>
      <dc:title>Matplotlib v3.5.1, https://matplotlib.org/</dc:title>
     </cc:Agent>
    </dc:creator>
   </cc:Work>
  </rdf:RDF>
 </metadata>
 <defs>
  <style type="text/css">*{stroke-linejoin: round; stroke-linecap: butt}</style>
 </defs>
 <g id="figure_1">
  <g id="patch_1">
   <path d="M 0 216 
L 720 216 
L 720 0 
L 0 0 
z
" style="fill: #ffffff"/>
  </g>
  <g id="axes_1">
   <g id="patch_2">
    <path d="M 47.72 174.04 
L 265.215 174.04 
L 265.215 26.88 
L 47.72 26.88 
z
" style="fill: #ffffff"/>
   </g>
   <g id="PolyCollection_1">
    <path d="M 47.72 33.725668 
L 47.72 34.257362 
L 59.167105 35.493221 
L 70.614211 37.926868 
L 82.061316 42.382682 
L 93.508421 48.135923 
L 104.955526 54.74968 
L 116.402632 61.29565 
L 127.849737 69.319348 
L 139.296842 76.884655 
L 150.743947 84.810128 
L 162.191053 92.646895 
L 173.638158 100.698917 
L 185.085263 108.651591 
L 196.532368 115.946769 
L 207.979474 123.459211 
L 219.426579 130.335343 
L 230.873684 136.916642 
L 242.320789 143.087574 
L 253.767895 149.002484 
L 265.215 154.368003 
L 265.215 139.291061 
L 265.215 139.291061 
L 253.767895 134.407987 
L 242.320789 129.188866 
L 230.873684 122.617351 
L 219.426579 116.932086 
L 207.979474 110.661621 
L 196.532368 104.366599 
L 185.085263 97.424728 
L 173.638158 90.748384 
L 162.191053 83.285584 
L 150.743947 76.878897 
L 139.296842 70.137814 
L 127.849737 63.024386 
L 116.402632 56.244575 
L 104.955526 50.185371 
L 93.508421 44.920563 
L 82.061316 40.280058 
L 70.614211 36.635958 
L 59.167105 34.491455 
L 47.72 33.725668 
z
" clip-path="url(#p9ec4f3e4b2)" style="fill: #1f77b4; fill-opacity: 0.4"/>
   </g>
   <g id="PolyCollection_2">
    <path d="M 47.72 33.746366 
L 47.72 34.268466 
L 59.167105 35.147101 
L 70.614211 36.357998 
L 82.061316 38.881647 
L 93.508421 42.408844 
L 104.955526 46.829331 
L 116.402632 51.313525 
L 127.849737 57.464708 
L 139.296842 63.675405 
L 150.743947 70.164494 
L 162.191053 76.809704 
L 173.638158 84.101817 
L 185.085263 91.362903 
L 196.532368 98.114709 
L 207.979474 105.20243 
L 219.426579 111.658025 
L 230.873684 118.039245 
L 242.320789 124.637669 
L 253.767895 130.48682 
L 265.215 136.001255 
L 265.215 122.390292 
L 265.215 122.390292 
L 253.767895 117.298459 
L 242.320789 111.719614 
L 230.873684 105.545048 
L 219.426579 99.836214 
L 207.979474 93.703503 
L 196.532368 87.332587 
L 185.085263 80.927625 
L 173.638158 74.961105 
L 162.191053 68.222876 
L 150.743947 62.630755 
L 139.296842 57.251843 
L 127.849737 52.235308 
L 116.402632 47.37752 
L 104.955526 43.321846 
L 93.508421 40.146714 
L 82.061316 37.44865 
L 70.614211 35.329588 
L 59.167105 34.236933 
L 47.72 33.746366 
z
" clip-path="url(#p9ec4f3e4b2)" style="fill: #ff7f0e; fill-opacity: 0.4"/>
   </g>
   <g id="PolyCollection_3">
    <path d="M 47.72 33.742284 
L 47.72 34.272644 
L 59.167105 35.276811 
L 70.614211 36.310655 
L 82.061316 38.497948 
L 93.508421 41.499852 
L 104.955526 44.147256 
L 116.402632 47.072944 
L 127.849737 50.869431 
L 139.296842 54.343155 
L 150.743947 58.394415 
L 162.191053 61.616695 
L 173.638158 65.780808 
L 185.085263 70.245751 
L 196.532368 74.005314 
L 207.979474 78.071913 
L 219.426579 82.204508 
L 230.873684 85.660224 
L 242.320789 89.639497 
L 253.767895 93.470446 
L 265.215 96.927991 
L 265.215 86.731405 
L 265.215 86.731405 
L 253.767895 83.159298 
L 242.320789 79.496929 
L 230.873684 75.344542 
L 219.426579 72.095216 
L 207.979474 68.8521 
L 196.532368 65.545131 
L 185.085263 62.336569 
L 173.638158 59.248939 
L 162.191053 55.770816 
L 150.743947 52.52055 
L 139.296842 49.59781 
L 127.849737 46.651904 
L 116.402632 43.322308 
L 104.955526 40.630204 
L 93.508421 38.566051 
L 82.061316 36.804739 
L 70.614211 35.091327 
L 59.167105 34.328413 
L 47.72 33.742284 
z
" clip-path="url(#p9ec4f3e4b2)" style="fill: #2ca02c; fill-opacity: 0.4"/>
   </g>
   <g id="PolyCollection_4">
    <path d="M 47.72 33.761366 
L 47.72 34.280724 
L 59.167105 35.120845 
L 70.614211 35.801527 
L 82.061316 37.406054 
L 93.508421 39.739145 
L 104.955526 41.991085 
L 116.402632 44.42625 
L 127.849737 47.81913 
L 139.296842 51.248646 
L 150.743947 55.039405 
L 162.191053 58.418455 
L 173.638158 62.78269 
L 185.085263 67.112146 
L 196.532368 70.933902 
L 207.979474 75.072887 
L 219.426579 79.138611 
L 230.873684 82.787743 
L 242.320789 86.946419 
L 253.767895 91.002474 
L 265.215 94.667321 
L 265.215 85.64102 
L 265.215 85.64102 
L 253.767895 82.082763 
L 242.320789 78.426603 
L 230.873684 74.320914 
L 219.426579 70.948668 
L 207.979474 67.442315 
L 196.532368 63.877047 
L 185.085263 60.425475 
L 173.638158 57.025756 
L 162.191053 53.405441 
L 150.743947 50.189817 
L 139.296842 47.198764 
L 127.849737 44.49562 
L 116.402632 41.365036 
L 104.955526 39.07686 
L 93.508421 37.449915 
L 82.061316 36.064207 
L 70.614211 34.744456 
L 59.167105 34.215052 
L 47.72 33.761366 
z
" clip-path="url(#p9ec4f3e4b2)" style="fill: #d62728; fill-opacity: 0.4"/>
   </g>
   <g id="PolyCollection_5">
    <path d="M 47.72 33.742911 
L 47.72 34.273164 
L 59.167105 35.508163 
L 70.614211 37.946951 
L 82.061316 42.387398 
L 93.508421 48.162621 
L 104.955526 54.801478 
L 116.402632 61.403783 
L 127.849737 69.449519 
L 139.296842 77.0024 
L 150.743947 85.02558 
L 162.191053 92.400464 
L 173.638158 100.727454 
L 185.085263 109.060611 
L 196.532368 116.128241 
L 207.979474 124.036752 
L 219.426579 129.978029 
L 230.873684 137.390219 
L 242.320789 143.482886 
L 253.767895 149.09509 
L 265.215 154.598777 
L 265.215 139.691095 
L 265.215 139.691095 
L 253.767895 134.791846 
L 242.320789 129.756009 
L 230.873684 122.904754 
L 219.426579 117.066599 
L 207.979474 110.551261 
L 196.532368 104.963203 
L 185.085263 97.888236 
L 173.638158 90.673965 
L 162.191053 83.340239 
L 150.743947 76.818518 
L 139.296842 70.226768 
L 127.849737 63.10307 
L 116.402632 56.283354 
L 104.955526 50.193348 
L 93.508421 44.98714 
L 82.061316 40.297029 
L 70.614211 36.665829 
L 59.167105 34.504755 
L 47.72 33.742911 
z
" clip-path="url(#p9ec4f3e4b2)" style="fill: #9467bd; fill-opacity: 0.4"/>
   </g>
   <g id="PolyCollection_6">
    <path d="M 47.72 33.764143 
L 47.72 34.285299 
L 59.167105 35.158486 
L 70.614211 36.372208 
L 82.061316 38.901273 
L 93.508421 42.429268 
L 104.955526 46.867983 
L 116.402632 51.377842 
L 127.849737 57.565996 
L 139.296842 63.724342 
L 150.743947 70.27379 
L 162.191053 76.844761 
L 173.638158 84.130858 
L 185.085263 91.645986 
L 196.532368 98.076801 
L 207.979474 105.438677 
L 219.426579 111.549709 
L 230.873684 118.458769 
L 242.320789 124.921761 
L 253.767895 130.472577 
L 265.215 136.049615 
L 265.215 122.842276 
L 265.215 122.842276 
L 253.767895 117.645931 
L 242.320789 111.961194 
L 230.873684 105.557361 
L 219.426579 99.58683 
L 207.979474 93.790167 
L 196.532368 87.69116 
L 185.085263 81.120821 
L 173.638158 74.97711 
L 162.191053 68.201373 
L 150.743947 62.622934 
L 139.296842 57.330544 
L 127.849737 52.293504 
L 116.402632 47.402894 
L 104.955526 43.321973 
L 93.508421 40.181313 
L 82.061316 37.455057 
L 70.614211 35.35082 
L 59.167105 34.24969 
L 47.72 33.764143 
z
" clip-path="url(#p9ec4f3e4b2)" style="fill: #8c564b; fill-opacity: 0.4"/>
   </g>
   <g id="PolyCollection_7">
    <path d="M 47.72 46.123459 
L 47.72 49.522717 
L 59.167105 50.889067 
L 70.614211 54.005431 
L 82.061316 59.764125 
L 93.508421 66.772312 
L 104.955526 74.318902 
L 116.402632 81.841454 
L 127.849737 90.790178 
L 139.296842 98.513096 
L 150.743947 106.26329 
L 162.191053 113.505763 
L 173.638158 120.927592 
L 185.085263 128.509033 
L 196.532368 135.01379 
L 207.979474 141.176404 
L 219.426579 147.105178 
L 230.873684 152.566337 
L 242.320789 158.020924 
L 253.767895 163.272052 
L 265.215 167.350909 
L 265.215 155.369437 
L 265.215 155.369437 
L 253.767895 150.9866 
L 242.320789 146.484657 
L 230.873684 140.718491 
L 219.426579 135.426522 
L 207.979474 129.197365 
L 196.532368 122.60052 
L 185.085263 115.89113 
L 173.638158 108.855753 
L 162.191053 101.504797 
L 150.743947 94.333428 
L 139.296842 86.778614 
L 127.849737 79.16818 
L 116.402632 71.611401 
L 104.955526 65.072641 
L 93.508421 58.998035 
L 82.061316 53.692444 
L 70.614211 49.482133 
L 59.167105 47.237974 
L 47.72 46.123459 
z
" clip-path="url(#p9ec4f3e4b2)" style="fill: #e377c2; fill-opacity: 0.4"/>
   </g>
   <g id="PolyCollection_8">
    <path d="M 47.72 33.760162 
L 47.72 34.275702 
L 59.167105 34.795889 
L 70.614211 34.691282 
L 82.061316 35.249828 
L 93.508421 36.780932 
L 104.955526 38.602807 
L 116.402632 41.466706 
L 127.849737 45.681829 
L 139.296842 50.570934 
L 150.743947 56.110458 
L 162.191053 61.479917 
L 173.638158 67.860336 
L 185.085263 74.310906 
L 196.532368 80.199015 
L 207.979474 86.858393 
L 219.426579 92.913833 
L 230.873684 99.284733 
L 242.320789 105.868749 
L 253.767895 112.232427 
L 265.215 117.780883 
L 265.215 105.984995 
L 265.215 105.984995 
L 253.767895 99.878556 
L 242.320789 94.244638 
L 230.873684 87.941162 
L 219.426579 82.706206 
L 207.979474 76.457581 
L 196.532368 70.873656 
L 185.085263 64.866349 
L 173.638158 59.394559 
L 162.191053 53.87412 
L 150.743947 49.074225 
L 139.296842 44.860787 
L 127.849737 41.545795 
L 116.402632 38.334485 
L 104.955526 36.303986 
L 93.508421 35.065618 
L 82.061316 34.409185 
L 70.614211 33.802782 
L 59.167105 33.949557 
L 47.72 33.760162 
z
" clip-path="url(#p9ec4f3e4b2)" style="fill: #7f7f7f; fill-opacity: 0.4"/>
   </g>
   <g id="matplotlib.axis_1">
    <g id="xtick_1">
     <g id="line2d_1">
      <defs>
       <path id="mbc18cbda62" d="M 0 0 
L 0 3.5 
" style="stroke: #000000; stroke-width: 0.8"/>
      </defs>
      <g>
       <use xlink:href="#mbc18cbda62" x="47.72" y="174.04" style="stroke: #000000; stroke-width: 0.8"/>
      </g>
     </g>
     <g id="text_1">
      <!-- 0.0 -->
      <g transform="translate(39.768438 188.638438)scale(0.1 -0.1)">
       <defs>
        <path id="DejaVuSans-30" d="M 2034 4250 
Q 1547 4250 1301 3770 
Q 1056 3291 1056 2328 
Q 1056 1369 1301 889 
Q 1547 409 2034 409 
Q 2525 409 2770 889 
Q 3016 1369 3016 2328 
Q 3016 3291 2770 3770 
Q 2525 4250 2034 4250 
z
M 2034 4750 
Q 2819 4750 3233 4129 
Q 3647 3509 3647 2328 
Q 3647 1150 3233 529 
Q 2819 -91 2034 -91 
Q 1250 -91 836 529 
Q 422 1150 422 2328 
Q 422 3509 836 4129 
Q 1250 4750 2034 4750 
z
" transform="scale(0.015625)"/>
        <path id="DejaVuSans-2e" d="M 684 794 
L 1344 794 
L 1344 0 
L 684 0 
L 684 794 
z
" transform="scale(0.015625)"/>
       </defs>
       <use xlink:href="#DejaVuSans-30"/>
       <use xlink:href="#DejaVuSans-2e" x="63.623047"/>
       <use xlink:href="#DejaVuSans-30" x="95.410156"/>
      </g>
     </g>
    </g>
    <g id="xtick_2">
     <g id="line2d_2">
      <g>
       <use xlink:href="#mbc18cbda62" x="102.09375" y="174.04" style="stroke: #000000; stroke-width: 0.8"/>
      </g>
     </g>
     <g id="text_2">
      <!-- 0.5 -->
      <g transform="translate(94.142188 188.638438)scale(0.1 -0.1)">
       <defs>
        <path id="DejaVuSans-35" d="M 691 4666 
L 3169 4666 
L 3169 4134 
L 1269 4134 
L 1269 2991 
Q 1406 3038 1543 3061 
Q 1681 3084 1819 3084 
Q 2600 3084 3056 2656 
Q 3513 2228 3513 1497 
Q 3513 744 3044 326 
Q 2575 -91 1722 -91 
Q 1428 -91 1123 -41 
Q 819 9 494 109 
L 494 744 
Q 775 591 1075 516 
Q 1375 441 1709 441 
Q 2250 441 2565 725 
Q 2881 1009 2881 1497 
Q 2881 1984 2565 2268 
Q 2250 2553 1709 2553 
Q 1456 2553 1204 2497 
Q 953 2441 691 2322 
L 691 4666 
z
" transform="scale(0.015625)"/>
       </defs>
       <use xlink:href="#DejaVuSans-30"/>
       <use xlink:href="#DejaVuSans-2e" x="63.623047"/>
       <use xlink:href="#DejaVuSans-35" x="95.410156"/>
      </g>
     </g>
    </g>
    <g id="xtick_3">
     <g id="line2d_3">
      <g>
       <use xlink:href="#mbc18cbda62" x="156.4675" y="174.04" style="stroke: #000000; stroke-width: 0.8"/>
      </g>
     </g>
     <g id="text_3">
      <!-- 1.0 -->
      <g transform="translate(148.515938 188.638438)scale(0.1 -0.1)">
       <defs>
        <path id="DejaVuSans-31" d="M 794 531 
L 1825 531 
L 1825 4091 
L 703 3866 
L 703 4441 
L 1819 4666 
L 2450 4666 
L 2450 531 
L 3481 531 
L 3481 0 
L 794 0 
L 794 531 
z
" transform="scale(0.015625)"/>
       </defs>
       <use xlink:href="#DejaVuSans-31"/>
       <use xlink:href="#DejaVuSans-2e" x="63.623047"/>
       <use xlink:href="#DejaVuSans-30" x="95.410156"/>
      </g>
     </g>
    </g>
    <g id="xtick_4">
     <g id="line2d_4">
      <g>
       <use xlink:href="#mbc18cbda62" x="210.84125" y="174.04" style="stroke: #000000; stroke-width: 0.8"/>
      </g>
     </g>
     <g id="text_4">
      <!-- 1.5 -->
      <g transform="translate(202.889687 188.638438)scale(0.1 -0.1)">
       <use xlink:href="#DejaVuSans-31"/>
       <use xlink:href="#DejaVuSans-2e" x="63.623047"/>
       <use xlink:href="#DejaVuSans-35" x="95.410156"/>
      </g>
     </g>
    </g>
    <g id="xtick_5">
     <g id="line2d_5">
      <g>
       <use xlink:href="#mbc18cbda62" x="265.215" y="174.04" style="stroke: #000000; stroke-width: 0.8"/>
      </g>
     </g>
     <g id="text_5">
      <!-- 2.0 -->
      <g transform="translate(257.263437 188.638438)scale(0.1 -0.1)">
       <defs>
        <path id="DejaVuSans-32" d="M 1228 531 
L 3431 531 
L 3431 0 
L 469 0 
L 469 531 
Q 828 903 1448 1529 
Q 2069 2156 2228 2338 
Q 2531 2678 2651 2914 
Q 2772 3150 2772 3378 
Q 2772 3750 2511 3984 
Q 2250 4219 1831 4219 
Q 1534 4219 1204 4116 
Q 875 4013 500 3803 
L 500 4441 
Q 881 4594 1212 4672 
Q 1544 4750 1819 4750 
Q 2544 4750 2975 4387 
Q 3406 4025 3406 3419 
Q 3406 3131 3298 2873 
Q 3191 2616 2906 2266 
Q 2828 2175 2409 1742 
Q 1991 1309 1228 531 
z
" transform="scale(0.015625)"/>
       </defs>
       <use xlink:href="#DejaVuSans-32"/>
       <use xlink:href="#DejaVuSans-2e" x="63.623047"/>
       <use xlink:href="#DejaVuSans-30" x="95.410156"/>
      </g>
     </g>
    </g>
    <g id="text_6">
     <!-- Influence of surprisal (multiplication) -->
     <g transform="translate(64.320625 202.316563)scale(0.1 -0.1)">
      <defs>
       <path id="DejaVuSans-49" d="M 628 4666 
L 1259 4666 
L 1259 0 
L 628 0 
L 628 4666 
z
" transform="scale(0.015625)"/>
       <path id="DejaVuSans-6e" d="M 3513 2113 
L 3513 0 
L 2938 0 
L 2938 2094 
Q 2938 2591 2744 2837 
Q 2550 3084 2163 3084 
Q 1697 3084 1428 2787 
Q 1159 2491 1159 1978 
L 1159 0 
L 581 0 
L 581 3500 
L 1159 3500 
L 1159 2956 
Q 1366 3272 1645 3428 
Q 1925 3584 2291 3584 
Q 2894 3584 3203 3211 
Q 3513 2838 3513 2113 
z
" transform="scale(0.015625)"/>
       <path id="DejaVuSans-66" d="M 2375 4863 
L 2375 4384 
L 1825 4384 
Q 1516 4384 1395 4259 
Q 1275 4134 1275 3809 
L 1275 3500 
L 2222 3500 
L 2222 3053 
L 1275 3053 
L 1275 0 
L 697 0 
L 697 3053 
L 147 3053 
L 147 3500 
L 697 3500 
L 697 3744 
Q 697 4328 969 4595 
Q 1241 4863 1831 4863 
L 2375 4863 
z
" transform="scale(0.015625)"/>
       <path id="DejaVuSans-6c" d="M 603 4863 
L 1178 4863 
L 1178 0 
L 603 0 
L 603 4863 
z
" transform="scale(0.015625)"/>
       <path id="DejaVuSans-75" d="M 544 1381 
L 544 3500 
L 1119 3500 
L 1119 1403 
Q 1119 906 1312 657 
Q 1506 409 1894 409 
Q 2359 409 2629 706 
Q 2900 1003 2900 1516 
L 2900 3500 
L 3475 3500 
L 3475 0 
L 2900 0 
L 2900 538 
Q 2691 219 2414 64 
Q 2138 -91 1772 -91 
Q 1169 -91 856 284 
Q 544 659 544 1381 
z
M 1991 3584 
L 1991 3584 
z
" transform="scale(0.015625)"/>
       <path id="DejaVuSans-65" d="M 3597 1894 
L 3597 1613 
L 953 1613 
Q 991 1019 1311 708 
Q 1631 397 2203 397 
Q 2534 397 2845 478 
Q 3156 559 3463 722 
L 3463 178 
Q 3153 47 2828 -22 
Q 2503 -91 2169 -91 
Q 1331 -91 842 396 
Q 353 884 353 1716 
Q 353 2575 817 3079 
Q 1281 3584 2069 3584 
Q 2775 3584 3186 3129 
Q 3597 2675 3597 1894 
z
M 3022 2063 
Q 3016 2534 2758 2815 
Q 2500 3097 2075 3097 
Q 1594 3097 1305 2825 
Q 1016 2553 972 2059 
L 3022 2063 
z
" transform="scale(0.015625)"/>
       <path id="DejaVuSans-63" d="M 3122 3366 
L 3122 2828 
Q 2878 2963 2633 3030 
Q 2388 3097 2138 3097 
Q 1578 3097 1268 2742 
Q 959 2388 959 1747 
Q 959 1106 1268 751 
Q 1578 397 2138 397 
Q 2388 397 2633 464 
Q 2878 531 3122 666 
L 3122 134 
Q 2881 22 2623 -34 
Q 2366 -91 2075 -91 
Q 1284 -91 818 406 
Q 353 903 353 1747 
Q 353 2603 823 3093 
Q 1294 3584 2113 3584 
Q 2378 3584 2631 3529 
Q 2884 3475 3122 3366 
z
" transform="scale(0.015625)"/>
       <path id="DejaVuSans-20" transform="scale(0.015625)"/>
       <path id="DejaVuSans-6f" d="M 1959 3097 
Q 1497 3097 1228 2736 
Q 959 2375 959 1747 
Q 959 1119 1226 758 
Q 1494 397 1959 397 
Q 2419 397 2687 759 
Q 2956 1122 2956 1747 
Q 2956 2369 2687 2733 
Q 2419 3097 1959 3097 
z
M 1959 3584 
Q 2709 3584 3137 3096 
Q 3566 2609 3566 1747 
Q 3566 888 3137 398 
Q 2709 -91 1959 -91 
Q 1206 -91 779 398 
Q 353 888 353 1747 
Q 353 2609 779 3096 
Q 1206 3584 1959 3584 
z
" transform="scale(0.015625)"/>
       <path id="DejaVuSans-73" d="M 2834 3397 
L 2834 2853 
Q 2591 2978 2328 3040 
Q 2066 3103 1784 3103 
Q 1356 3103 1142 2972 
Q 928 2841 928 2578 
Q 928 2378 1081 2264 
Q 1234 2150 1697 2047 
L 1894 2003 
Q 2506 1872 2764 1633 
Q 3022 1394 3022 966 
Q 3022 478 2636 193 
Q 2250 -91 1575 -91 
Q 1294 -91 989 -36 
Q 684 19 347 128 
L 347 722 
Q 666 556 975 473 
Q 1284 391 1588 391 
Q 1994 391 2212 530 
Q 2431 669 2431 922 
Q 2431 1156 2273 1281 
Q 2116 1406 1581 1522 
L 1381 1569 
Q 847 1681 609 1914 
Q 372 2147 372 2553 
Q 372 3047 722 3315 
Q 1072 3584 1716 3584 
Q 2034 3584 2315 3537 
Q 2597 3491 2834 3397 
z
" transform="scale(0.015625)"/>
       <path id="DejaVuSans-72" d="M 2631 2963 
Q 2534 3019 2420 3045 
Q 2306 3072 2169 3072 
Q 1681 3072 1420 2755 
Q 1159 2438 1159 1844 
L 1159 0 
L 581 0 
L 581 3500 
L 1159 3500 
L 1159 2956 
Q 1341 3275 1631 3429 
Q 1922 3584 2338 3584 
Q 2397 3584 2469 3576 
Q 2541 3569 2628 3553 
L 2631 2963 
z
" transform="scale(0.015625)"/>
       <path id="DejaVuSans-70" d="M 1159 525 
L 1159 -1331 
L 581 -1331 
L 581 3500 
L 1159 3500 
L 1159 2969 
Q 1341 3281 1617 3432 
Q 1894 3584 2278 3584 
Q 2916 3584 3314 3078 
Q 3713 2572 3713 1747 
Q 3713 922 3314 415 
Q 2916 -91 2278 -91 
Q 1894 -91 1617 61 
Q 1341 213 1159 525 
z
M 3116 1747 
Q 3116 2381 2855 2742 
Q 2594 3103 2138 3103 
Q 1681 3103 1420 2742 
Q 1159 2381 1159 1747 
Q 1159 1113 1420 752 
Q 1681 391 2138 391 
Q 2594 391 2855 752 
Q 3116 1113 3116 1747 
z
" transform="scale(0.015625)"/>
       <path id="DejaVuSans-69" d="M 603 3500 
L 1178 3500 
L 1178 0 
L 603 0 
L 603 3500 
z
M 603 4863 
L 1178 4863 
L 1178 4134 
L 603 4134 
L 603 4863 
z
" transform="scale(0.015625)"/>
       <path id="DejaVuSans-61" d="M 2194 1759 
Q 1497 1759 1228 1600 
Q 959 1441 959 1056 
Q 959 750 1161 570 
Q 1363 391 1709 391 
Q 2188 391 2477 730 
Q 2766 1069 2766 1631 
L 2766 1759 
L 2194 1759 
z
M 3341 1997 
L 3341 0 
L 2766 0 
L 2766 531 
Q 2569 213 2275 61 
Q 1981 -91 1556 -91 
Q 1019 -91 701 211 
Q 384 513 384 1019 
Q 384 1609 779 1909 
Q 1175 2209 1959 2209 
L 2766 2209 
L 2766 2266 
Q 2766 2663 2505 2880 
Q 2244 3097 1772 3097 
Q 1472 3097 1187 3025 
Q 903 2953 641 2809 
L 641 3341 
Q 956 3463 1253 3523 
Q 1550 3584 1831 3584 
Q 2591 3584 2966 3190 
Q 3341 2797 3341 1997 
z
" transform="scale(0.015625)"/>
       <path id="DejaVuSans-28" d="M 1984 4856 
Q 1566 4138 1362 3434 
Q 1159 2731 1159 2009 
Q 1159 1288 1364 580 
Q 1569 -128 1984 -844 
L 1484 -844 
Q 1016 -109 783 600 
Q 550 1309 550 2009 
Q 550 2706 781 3412 
Q 1013 4119 1484 4856 
L 1984 4856 
z
" transform="scale(0.015625)"/>
       <path id="DejaVuSans-6d" d="M 3328 2828 
Q 3544 3216 3844 3400 
Q 4144 3584 4550 3584 
Q 5097 3584 5394 3201 
Q 5691 2819 5691 2113 
L 5691 0 
L 5113 0 
L 5113 2094 
Q 5113 2597 4934 2840 
Q 4756 3084 4391 3084 
Q 3944 3084 3684 2787 
Q 3425 2491 3425 1978 
L 3425 0 
L 2847 0 
L 2847 2094 
Q 2847 2600 2669 2842 
Q 2491 3084 2119 3084 
Q 1678 3084 1418 2786 
Q 1159 2488 1159 1978 
L 1159 0 
L 581 0 
L 581 3500 
L 1159 3500 
L 1159 2956 
Q 1356 3278 1631 3431 
Q 1906 3584 2284 3584 
Q 2666 3584 2933 3390 
Q 3200 3197 3328 2828 
z
" transform="scale(0.015625)"/>
       <path id="DejaVuSans-74" d="M 1172 4494 
L 1172 3500 
L 2356 3500 
L 2356 3053 
L 1172 3053 
L 1172 1153 
Q 1172 725 1289 603 
Q 1406 481 1766 481 
L 2356 481 
L 2356 0 
L 1766 0 
Q 1100 0 847 248 
Q 594 497 594 1153 
L 594 3053 
L 172 3053 
L 172 3500 
L 594 3500 
L 594 4494 
L 1172 4494 
z
" transform="scale(0.015625)"/>
       <path id="DejaVuSans-29" d="M 513 4856 
L 1013 4856 
Q 1481 4119 1714 3412 
Q 1947 2706 1947 2009 
Q 1947 1309 1714 600 
Q 1481 -109 1013 -844 
L 513 -844 
Q 928 -128 1133 580 
Q 1338 1288 1338 2009 
Q 1338 2731 1133 3434 
Q 928 4138 513 4856 
z
" transform="scale(0.015625)"/>
      </defs>
      <use xlink:href="#DejaVuSans-49"/>
      <use xlink:href="#DejaVuSans-6e" x="29.492188"/>
      <use xlink:href="#DejaVuSans-66" x="92.871094"/>
      <use xlink:href="#DejaVuSans-6c" x="128.076172"/>
      <use xlink:href="#DejaVuSans-75" x="155.859375"/>
      <use xlink:href="#DejaVuSans-65" x="219.238281"/>
      <use xlink:href="#DejaVuSans-6e" x="280.761719"/>
      <use xlink:href="#DejaVuSans-63" x="344.140625"/>
      <use xlink:href="#DejaVuSans-65" x="399.121094"/>
      <use xlink:href="#DejaVuSans-20" x="460.644531"/>
      <use xlink:href="#DejaVuSans-6f" x="492.431641"/>
      <use xlink:href="#DejaVuSans-66" x="553.613281"/>
      <use xlink:href="#DejaVuSans-20" x="588.818359"/>
      <use xlink:href="#DejaVuSans-73" x="620.605469"/>
      <use xlink:href="#DejaVuSans-75" x="672.705078"/>
      <use xlink:href="#DejaVuSans-72" x="736.083984"/>
      <use xlink:href="#DejaVuSans-70" x="777.197266"/>
      <use xlink:href="#DejaVuSans-72" x="840.673828"/>
      <use xlink:href="#DejaVuSans-69" x="881.787109"/>
      <use xlink:href="#DejaVuSans-73" x="909.570312"/>
      <use xlink:href="#DejaVuSans-61" x="961.669922"/>
      <use xlink:href="#DejaVuSans-6c" x="1022.949219"/>
      <use xlink:href="#DejaVuSans-20" x="1050.732422"/>
      <use xlink:href="#DejaVuSans-28" x="1082.519531"/>
      <use xlink:href="#DejaVuSans-6d" x="1121.533203"/>
      <use xlink:href="#DejaVuSans-75" x="1218.945312"/>
      <use xlink:href="#DejaVuSans-6c" x="1282.324219"/>
      <use xlink:href="#DejaVuSans-74" x="1310.107422"/>
      <use xlink:href="#DejaVuSans-69" x="1349.316406"/>
      <use xlink:href="#DejaVuSans-70" x="1377.099609"/>
      <use xlink:href="#DejaVuSans-6c" x="1440.576172"/>
      <use xlink:href="#DejaVuSans-69" x="1468.359375"/>
      <use xlink:href="#DejaVuSans-63" x="1496.142578"/>
      <use xlink:href="#DejaVuSans-61" x="1551.123047"/>
      <use xlink:href="#DejaVuSans-74" x="1612.402344"/>
      <use xlink:href="#DejaVuSans-69" x="1651.611328"/>
      <use xlink:href="#DejaVuSans-6f" x="1679.394531"/>
      <use xlink:href="#DejaVuSans-6e" x="1740.576172"/>
      <use xlink:href="#DejaVuSans-29" x="1803.955078"/>
     </g>
    </g>
   </g>
   <g id="matplotlib.axis_2">
    <g id="ytick_1">
     <g id="line2d_6">
      <defs>
       <path id="mf078031337" d="M 0 0 
L -3.5 0 
" style="stroke: #000000; stroke-width: 0.8"/>
      </defs>
      <g>
       <use xlink:href="#mf078031337" x="47.72" y="142.805299" style="stroke: #000000; stroke-width: 0.8"/>
      </g>
     </g>
     <g id="text_7">
      <!-- 0.4 -->
      <g transform="translate(24.816875 146.604518)scale(0.1 -0.1)">
       <defs>
        <path id="DejaVuSans-34" d="M 2419 4116 
L 825 1625 
L 2419 1625 
L 2419 4116 
z
M 2253 4666 
L 3047 4666 
L 3047 1625 
L 3713 1625 
L 3713 1100 
L 3047 1100 
L 3047 0 
L 2419 0 
L 2419 1100 
L 313 1100 
L 313 1709 
L 2253 4666 
z
" transform="scale(0.015625)"/>
       </defs>
       <use xlink:href="#DejaVuSans-30"/>
       <use xlink:href="#DejaVuSans-2e" x="63.623047"/>
       <use xlink:href="#DejaVuSans-34" x="95.410156"/>
      </g>
     </g>
    </g>
    <g id="ytick_2">
     <g id="line2d_7">
      <g>
       <use xlink:href="#mf078031337" x="47.72" y="102.905462" style="stroke: #000000; stroke-width: 0.8"/>
      </g>
     </g>
     <g id="text_8">
      <!-- 0.6 -->
      <g transform="translate(24.816875 106.704681)scale(0.1 -0.1)">
       <defs>
        <path id="DejaVuSans-36" d="M 2113 2584 
Q 1688 2584 1439 2293 
Q 1191 2003 1191 1497 
Q 1191 994 1439 701 
Q 1688 409 2113 409 
Q 2538 409 2786 701 
Q 3034 994 3034 1497 
Q 3034 2003 2786 2293 
Q 2538 2584 2113 2584 
z
M 3366 4563 
L 3366 3988 
Q 3128 4100 2886 4159 
Q 2644 4219 2406 4219 
Q 1781 4219 1451 3797 
Q 1122 3375 1075 2522 
Q 1259 2794 1537 2939 
Q 1816 3084 2150 3084 
Q 2853 3084 3261 2657 
Q 3669 2231 3669 1497 
Q 3669 778 3244 343 
Q 2819 -91 2113 -91 
Q 1303 -91 875 529 
Q 447 1150 447 2328 
Q 447 3434 972 4092 
Q 1497 4750 2381 4750 
Q 2619 4750 2861 4703 
Q 3103 4656 3366 4563 
z
" transform="scale(0.015625)"/>
       </defs>
       <use xlink:href="#DejaVuSans-30"/>
       <use xlink:href="#DejaVuSans-2e" x="63.623047"/>
       <use xlink:href="#DejaVuSans-36" x="95.410156"/>
      </g>
     </g>
    </g>
    <g id="ytick_3">
     <g id="line2d_8">
      <g>
       <use xlink:href="#mf078031337" x="47.72" y="63.005626" style="stroke: #000000; stroke-width: 0.8"/>
      </g>
     </g>
     <g id="text_9">
      <!-- 0.8 -->
      <g transform="translate(24.816875 66.804844)scale(0.1 -0.1)">
       <defs>
        <path id="DejaVuSans-38" d="M 2034 2216 
Q 1584 2216 1326 1975 
Q 1069 1734 1069 1313 
Q 1069 891 1326 650 
Q 1584 409 2034 409 
Q 2484 409 2743 651 
Q 3003 894 3003 1313 
Q 3003 1734 2745 1975 
Q 2488 2216 2034 2216 
z
M 1403 2484 
Q 997 2584 770 2862 
Q 544 3141 544 3541 
Q 544 4100 942 4425 
Q 1341 4750 2034 4750 
Q 2731 4750 3128 4425 
Q 3525 4100 3525 3541 
Q 3525 3141 3298 2862 
Q 3072 2584 2669 2484 
Q 3125 2378 3379 2068 
Q 3634 1759 3634 1313 
Q 3634 634 3220 271 
Q 2806 -91 2034 -91 
Q 1263 -91 848 271 
Q 434 634 434 1313 
Q 434 1759 690 2068 
Q 947 2378 1403 2484 
z
M 1172 3481 
Q 1172 3119 1398 2916 
Q 1625 2713 2034 2713 
Q 2441 2713 2670 2916 
Q 2900 3119 2900 3481 
Q 2900 3844 2670 4047 
Q 2441 4250 2034 4250 
Q 1625 4250 1398 4047 
Q 1172 3844 1172 3481 
z
" transform="scale(0.015625)"/>
       </defs>
       <use xlink:href="#DejaVuSans-30"/>
       <use xlink:href="#DejaVuSans-2e" x="63.623047"/>
       <use xlink:href="#DejaVuSans-38" x="95.410156"/>
      </g>
     </g>
    </g>
    <g id="text_10">
     <!-- R-value -->
     <g transform="translate(18.737188 119.064687)rotate(-90)scale(0.1 -0.1)">
      <defs>
       <path id="DejaVuSans-52" d="M 2841 2188 
Q 3044 2119 3236 1894 
Q 3428 1669 3622 1275 
L 4263 0 
L 3584 0 
L 2988 1197 
Q 2756 1666 2539 1819 
Q 2322 1972 1947 1972 
L 1259 1972 
L 1259 0 
L 628 0 
L 628 4666 
L 2053 4666 
Q 2853 4666 3247 4331 
Q 3641 3997 3641 3322 
Q 3641 2881 3436 2590 
Q 3231 2300 2841 2188 
z
M 1259 4147 
L 1259 2491 
L 2053 2491 
Q 2509 2491 2742 2702 
Q 2975 2913 2975 3322 
Q 2975 3731 2742 3939 
Q 2509 4147 2053 4147 
L 1259 4147 
z
" transform="scale(0.015625)"/>
       <path id="DejaVuSans-2d" d="M 313 2009 
L 1997 2009 
L 1997 1497 
L 313 1497 
L 313 2009 
z
" transform="scale(0.015625)"/>
       <path id="DejaVuSans-76" d="M 191 3500 
L 800 3500 
L 1894 563 
L 2988 3500 
L 3597 3500 
L 2284 0 
L 1503 0 
L 191 3500 
z
" transform="scale(0.015625)"/>
      </defs>
      <use xlink:href="#DejaVuSans-52"/>
      <use xlink:href="#DejaVuSans-2d" x="65.482422"/>
      <use xlink:href="#DejaVuSans-76" x="98.941406"/>
      <use xlink:href="#DejaVuSans-61" x="158.121094"/>
      <use xlink:href="#DejaVuSans-6c" x="219.400391"/>
      <use xlink:href="#DejaVuSans-75" x="247.183594"/>
      <use xlink:href="#DejaVuSans-65" x="310.5625"/>
     </g>
    </g>
   </g>
   <g id="line2d_9">
    <path d="M 47.72 33.991515 
L 59.167105 34.992338 
L 70.614211 37.281413 
L 82.061316 41.33137 
L 93.508421 46.528243 
L 104.955526 52.467525 
L 116.402632 58.770112 
L 127.849737 66.171867 
L 139.296842 73.511235 
L 150.743947 80.844512 
L 162.191053 87.966239 
L 173.638158 95.72365 
L 185.085263 103.038159 
L 196.532368 110.156684 
L 207.979474 117.060416 
L 219.426579 123.633715 
L 230.873684 129.766996 
L 242.320789 136.13822 
L 253.767895 141.705236 
L 265.215 146.829532 
" clip-path="url(#p9ec4f3e4b2)" style="fill: none; stroke: #1f77b4; stroke-width: 1.5; stroke-linecap: square"/>
   </g>
   <g id="line2d_10">
    <path d="M 47.72 34.007416 
L 59.167105 34.692017 
L 70.614211 35.843793 
L 82.061316 38.165149 
L 93.508421 41.277779 
L 104.955526 45.075589 
L 116.402632 49.345522 
L 127.849737 54.850008 
L 139.296842 60.463624 
L 150.743947 66.397625 
L 162.191053 72.51629 
L 173.638158 79.531461 
L 185.085263 86.145264 
L 196.532368 92.723648 
L 207.979474 99.452966 
L 219.426579 105.747119 
L 230.873684 111.792147 
L 242.320789 118.178641 
L 253.767895 123.89264 
L 265.215 129.195774 
" clip-path="url(#p9ec4f3e4b2)" style="fill: none; stroke: #ff7f0e; stroke-width: 1.5; stroke-linecap: square"/>
   </g>
   <g id="line2d_11">
    <path d="M 47.72 34.007464 
L 59.167105 34.802612 
L 70.614211 35.700991 
L 82.061316 37.651344 
L 93.508421 40.032951 
L 104.955526 42.38873 
L 116.402632 45.197626 
L 127.849737 48.760667 
L 139.296842 51.970482 
L 150.743947 55.457483 
L 162.191053 58.693756 
L 173.638158 62.514873 
L 185.085263 66.29116 
L 196.532368 69.775222 
L 207.979474 73.462006 
L 219.426579 77.149862 
L 230.873684 80.502383 
L 242.320789 84.568213 
L 253.767895 88.314872 
L 265.215 91.829698 
" clip-path="url(#p9ec4f3e4b2)" style="fill: none; stroke: #2ca02c; stroke-width: 1.5; stroke-linecap: square"/>
   </g>
   <g id="line2d_12">
    <path d="M 47.72 34.021045 
L 59.167105 34.667949 
L 70.614211 35.272991 
L 82.061316 36.735131 
L 93.508421 38.59453 
L 104.955526 40.533972 
L 116.402632 42.895643 
L 127.849737 46.157375 
L 139.296842 49.223705 
L 150.743947 52.614611 
L 162.191053 55.911948 
L 173.638158 59.904223 
L 185.085263 63.76881 
L 196.532368 67.405475 
L 207.979474 71.257601 
L 219.426579 75.04364 
L 230.873684 78.554329 
L 242.320789 82.686511 
L 253.767895 86.542619 
L 265.215 90.154171 
" clip-path="url(#p9ec4f3e4b2)" style="fill: none; stroke: #d62728; stroke-width: 1.5; stroke-linecap: square"/>
   </g>
   <g id="line2d_13">
    <path d="M 47.72 34.008038 
L 59.167105 35.006459 
L 70.614211 37.30639 
L 82.061316 41.342214 
L 93.508421 46.574881 
L 104.955526 52.497413 
L 116.402632 58.843568 
L 127.849737 66.276294 
L 139.296842 73.614584 
L 150.743947 80.922049 
L 162.191053 87.870351 
L 173.638158 95.70071 
L 185.085263 103.474423 
L 196.532368 110.545722 
L 207.979474 117.294006 
L 219.426579 123.522314 
L 230.873684 130.147486 
L 242.320789 136.619448 
L 253.767895 141.943468 
L 265.215 147.144936 
" clip-path="url(#p9ec4f3e4b2)" style="fill: none; stroke: #9467bd; stroke-width: 1.5; stroke-linecap: square"/>
   </g>
   <g id="line2d_14">
    <path d="M 47.72 34.024721 
L 59.167105 34.704088 
L 70.614211 35.861514 
L 82.061316 38.178165 
L 93.508421 41.30529 
L 104.955526 45.094978 
L 116.402632 49.390368 
L 127.849737 54.92975 
L 139.296842 60.527443 
L 150.743947 66.448362 
L 162.191053 72.523067 
L 173.638158 79.553984 
L 185.085263 86.383403 
L 196.532368 92.883981 
L 207.979474 99.614422 
L 219.426579 105.56827 
L 230.873684 112.008065 
L 242.320789 118.441477 
L 253.767895 124.059254 
L 265.215 129.445945 
" clip-path="url(#p9ec4f3e4b2)" style="fill: none; stroke: #8c564b; stroke-width: 1.5; stroke-linecap: square"/>
   </g>
   <g id="line2d_15">
    <path d="M 47.72 47.823088 
L 59.167105 49.063521 
L 70.614211 51.743782 
L 82.061316 56.728285 
L 93.508421 62.885174 
L 104.955526 69.695771 
L 116.402632 76.726427 
L 127.849737 84.979179 
L 139.296842 92.645855 
L 150.743947 100.298359 
L 162.191053 107.50528 
L 173.638158 114.891672 
L 185.085263 122.200082 
L 196.532368 128.807155 
L 207.979474 135.186885 
L 219.426579 141.26585 
L 230.873684 146.642414 
L 242.320789 152.25279 
L 253.767895 157.129326 
L 265.215 161.360173 
" clip-path="url(#p9ec4f3e4b2)" style="fill: none; stroke: #e377c2; stroke-width: 1.5; stroke-linecap: square"/>
   </g>
   <g id="line2d_16">
    <path d="M 47.72 34.017932 
L 59.167105 34.372723 
L 70.614211 34.247032 
L 82.061316 34.829507 
L 93.508421 35.923275 
L 104.955526 37.453396 
L 116.402632 39.900596 
L 127.849737 43.613812 
L 139.296842 47.715861 
L 150.743947 52.592342 
L 162.191053 57.677019 
L 173.638158 63.627448 
L 185.085263 69.588627 
L 196.532368 75.536336 
L 207.979474 81.657987 
L 219.426579 87.810019 
L 230.873684 93.612947 
L 242.320789 100.056693 
L 253.767895 106.055492 
L 265.215 111.882939 
" clip-path="url(#p9ec4f3e4b2)" style="fill: none; stroke: #7f7f7f; stroke-width: 1.5; stroke-linecap: square"/>
   </g>
   <g id="patch_3">
    <path d="M 47.72 174.04 
L 47.72 26.88 
" style="fill: none; stroke: #000000; stroke-width: 0.8; stroke-linejoin: miter; stroke-linecap: square"/>
   </g>
   <g id="patch_4">
    <path d="M 47.72 174.04 
L 265.215 174.04 
" style="fill: none; stroke: #000000; stroke-width: 0.8; stroke-linejoin: miter; stroke-linecap: square"/>
   </g>
   <g id="text_11">
    <!-- Node * surprisal -->
    <g transform="translate(108.18625 20.88)scale(0.12 -0.12)">
     <defs>
      <path id="DejaVuSans-4e" d="M 628 4666 
L 1478 4666 
L 3547 763 
L 3547 4666 
L 4159 4666 
L 4159 0 
L 3309 0 
L 1241 3903 
L 1241 0 
L 628 0 
L 628 4666 
z
" transform="scale(0.015625)"/>
      <path id="DejaVuSans-64" d="M 2906 2969 
L 2906 4863 
L 3481 4863 
L 3481 0 
L 2906 0 
L 2906 525 
Q 2725 213 2448 61 
Q 2172 -91 1784 -91 
Q 1150 -91 751 415 
Q 353 922 353 1747 
Q 353 2572 751 3078 
Q 1150 3584 1784 3584 
Q 2172 3584 2448 3432 
Q 2725 3281 2906 2969 
z
M 947 1747 
Q 947 1113 1208 752 
Q 1469 391 1925 391 
Q 2381 391 2643 752 
Q 2906 1113 2906 1747 
Q 2906 2381 2643 2742 
Q 2381 3103 1925 3103 
Q 1469 3103 1208 2742 
Q 947 2381 947 1747 
z
" transform="scale(0.015625)"/>
      <path id="DejaVuSans-2a" d="M 3009 3897 
L 1888 3291 
L 3009 2681 
L 2828 2375 
L 1778 3009 
L 1778 1831 
L 1422 1831 
L 1422 3009 
L 372 2375 
L 191 2681 
L 1313 3291 
L 191 3897 
L 372 4206 
L 1422 3572 
L 1422 4750 
L 1778 4750 
L 1778 3572 
L 2828 4206 
L 3009 3897 
z
" transform="scale(0.015625)"/>
     </defs>
     <use xlink:href="#DejaVuSans-4e"/>
     <use xlink:href="#DejaVuSans-6f" x="74.804688"/>
     <use xlink:href="#DejaVuSans-64" x="135.986328"/>
     <use xlink:href="#DejaVuSans-65" x="199.462891"/>
     <use xlink:href="#DejaVuSans-20" x="260.986328"/>
     <use xlink:href="#DejaVuSans-2a" x="292.773438"/>
     <use xlink:href="#DejaVuSans-20" x="342.773438"/>
     <use xlink:href="#DejaVuSans-73" x="374.560547"/>
     <use xlink:href="#DejaVuSans-75" x="426.660156"/>
     <use xlink:href="#DejaVuSans-72" x="490.039062"/>
     <use xlink:href="#DejaVuSans-70" x="531.152344"/>
     <use xlink:href="#DejaVuSans-72" x="594.628906"/>
     <use xlink:href="#DejaVuSans-69" x="635.742188"/>
     <use xlink:href="#DejaVuSans-73" x="663.525391"/>
     <use xlink:href="#DejaVuSans-61" x="715.625"/>
     <use xlink:href="#DejaVuSans-6c" x="776.904297"/>
    </g>
   </g>
  </g>
  <g id="axes_2">
   <g id="patch_5">
    <path d="M 298.065 174.04 
L 515.56 174.04 
L 515.56 26.88 
L 298.065 26.88 
z
" style="fill: #ffffff"/>
   </g>
   <g id="PolyCollection_9">
    <path d="M 298.065 33.569091 
L 298.065 34.093305 
L 309.512105 35.266999 
L 320.959211 38.753414 
L 332.406316 43.103313 
L 343.853421 50.101265 
L 355.300526 56.854331 
L 366.747632 65.022232 
L 378.194737 72.752181 
L 389.641842 80.50177 
L 401.088947 87.987419 
L 412.536053 95.999388 
L 423.983158 103.237074 
L 435.430263 110.120724 
L 446.877368 116.771312 
L 458.324474 124.086875 
L 469.771579 129.962002 
L 481.218684 135.967015 
L 492.665789 141.506958 
L 504.112895 146.723211 
L 515.56 151.659487 
L 515.56 138.44373 
L 515.56 138.44373 
L 504.112895 133.593057 
L 492.665789 128.528222 
L 481.218684 122.624864 
L 469.771579 116.751072 
L 458.324474 110.410286 
L 446.877368 104.096929 
L 435.430263 97.272014 
L 423.983158 89.825839 
L 412.536053 82.922606 
L 401.088947 74.94593 
L 389.641842 68.327027 
L 378.194737 61.239452 
L 366.747632 55.215507 
L 355.300526 49.342837 
L 343.853421 43.942901 
L 332.406316 39.681811 
L 320.959211 36.614391 
L 309.512105 34.426709 
L 298.065 33.569091 
z
" clip-path="url(#p1e736a5eb2)" style="fill: #1f77b4; fill-opacity: 0.4"/>
   </g>
   <g id="PolyCollection_10">
    <path d="M 298.065 33.588183 
L 298.065 34.1027 
L 309.512105 35.287686 
L 320.959211 38.777259 
L 332.406316 43.14933 
L 343.853421 50.149922 
L 355.300526 56.915844 
L 366.747632 65.132628 
L 378.194737 72.918262 
L 389.641842 80.676205 
L 401.088947 88.183946 
L 412.536053 96.204605 
L 423.983158 103.440791 
L 435.430263 110.340465 
L 446.877368 117.028847 
L 458.324474 124.360198 
L 469.771579 130.250181 
L 481.218684 136.230958 
L 492.665789 141.750569 
L 504.112895 146.911155 
L 515.56 151.773071 
L 515.56 138.608097 
L 515.56 138.608097 
L 504.112895 133.703002 
L 492.665789 128.631375 
L 481.218684 122.706919 
L 469.771579 116.773245 
L 458.324474 110.411628 
L 446.877368 104.108492 
L 435.430263 97.271423 
L 423.983158 89.844888 
L 412.536053 82.926503 
L 401.088947 74.961346 
L 389.641842 68.322668 
L 378.194737 61.22027 
L 366.747632 55.207034 
L 355.300526 49.342198 
L 343.853421 43.960296 
L 332.406316 39.685136 
L 320.959211 36.613777 
L 309.512105 34.441655 
L 298.065 33.588183 
z
" clip-path="url(#p1e736a5eb2)" style="fill: #ff7f0e; fill-opacity: 0.4"/>
   </g>
   <g id="PolyCollection_11">
    <path d="M 298.065 33.589855 
L 298.065 34.111099 
L 309.512105 35.293599 
L 320.959211 38.762078 
L 332.406316 43.101698 
L 343.853421 50.1136 
L 355.300526 56.849767 
L 366.747632 64.998748 
L 378.194737 72.746494 
L 389.641842 80.500239 
L 401.088947 88.027305 
L 412.536053 96.094506 
L 423.983158 103.380353 
L 435.430263 110.327501 
L 446.877368 116.982654 
L 458.324474 124.395809 
L 469.771579 130.262553 
L 481.218684 136.20114 
L 492.665789 141.723993 
L 504.112895 146.810933 
L 515.56 151.730251 
L 515.56 138.822817 
L 515.56 138.822817 
L 504.112895 134.004371 
L 492.665789 128.916992 
L 481.218684 122.936044 
L 469.771579 117.019264 
L 458.324474 110.587859 
L 446.877368 104.218832 
L 435.430263 97.40344 
L 423.983158 89.926472 
L 412.536053 82.997311 
L 401.088947 75.006362 
L 389.641842 68.384013 
L 378.194737 61.268614 
L 366.747632 55.242335 
L 355.300526 49.370811 
L 343.853421 43.983751 
L 332.406316 39.714952 
L 320.959211 36.615426 
L 309.512105 34.439345 
L 298.065 33.589855 
z
" clip-path="url(#p1e736a5eb2)" style="fill: #2ca02c; fill-opacity: 0.4"/>
   </g>
   <g id="PolyCollection_12">
    <path d="M 298.065 33.609975 
L 298.065 34.121259 
L 309.512105 35.318687 
L 320.959211 38.796278 
L 332.406316 43.164945 
L 343.853421 50.188422 
L 355.300526 56.9205 
L 366.747632 65.114566 
L 378.194737 72.893264 
L 389.641842 80.642374 
L 401.088947 88.101254 
L 412.536053 96.163405 
L 423.983158 103.475927 
L 435.430263 110.438141 
L 446.877368 117.160191 
L 458.324474 124.606449 
L 469.771579 130.550479 
L 481.218684 136.499027 
L 492.665789 142.060076 
L 504.112895 147.171274 
L 515.56 152.004805 
L 515.56 139.179927 
L 515.56 139.179927 
L 504.112895 134.245669 
L 492.665789 129.169068 
L 481.218684 123.112402 
L 469.771579 117.048976 
L 458.324474 110.565576 
L 446.877368 104.195664 
L 435.430263 97.367264 
L 423.983158 89.916343 
L 412.536053 82.971827 
L 401.088947 75.013191 
L 389.641842 68.375648 
L 378.194737 61.254902 
L 366.747632 55.230533 
L 355.300526 49.364772 
L 343.853421 43.986458 
L 332.406316 39.709214 
L 320.959211 36.633517 
L 309.512105 34.455618 
L 298.065 33.609975 
z
" clip-path="url(#p1e736a5eb2)" style="fill: #d62728; fill-opacity: 0.4"/>
   </g>
   <g id="PolyCollection_13">
    <path d="M 298.065 33.576358 
L 298.065 34.116163 
L 309.512105 35.282287 
L 320.959211 38.807818 
L 332.406316 43.106329 
L 343.853421 50.095168 
L 355.300526 56.85476 
L 366.747632 65.113814 
L 378.194737 72.801354 
L 389.641842 80.452793 
L 401.088947 88.066838 
L 412.536053 96.175127 
L 423.983158 103.440221 
L 435.430263 110.260233 
L 446.877368 116.833501 
L 458.324474 124.77812 
L 469.771579 129.974414 
L 481.218684 136.385109 
L 492.665789 142.502373 
L 504.112895 146.94715 
L 515.56 152.636741 
L 515.56 138.99584 
L 515.56 138.99584 
L 504.112895 134.074558 
L 492.665789 128.785308 
L 481.218684 122.707916 
L 469.771579 117.06114 
L 458.324474 111.04619 
L 446.877368 104.508635 
L 435.430263 97.600365 
L 423.983158 89.909753 
L 412.536053 83.152642 
L 401.088947 75.204621 
L 389.641842 68.38131 
L 378.194737 61.302588 
L 366.747632 55.314771 
L 355.300526 49.259058 
L 343.853421 44.006916 
L 332.406316 39.704838 
L 320.959211 36.613826 
L 309.512105 34.432618 
L 298.065 33.576358 
z
" clip-path="url(#p1e736a5eb2)" style="fill: #9467bd; fill-opacity: 0.4"/>
   </g>
   <g id="PolyCollection_14">
    <path d="M 298.065 33.597117 
L 298.065 34.126582 
L 309.512105 35.303268 
L 320.959211 38.831085 
L 332.406316 43.152347 
L 343.853421 50.144861 
L 355.300526 56.914723 
L 366.747632 65.216284 
L 378.194737 72.960984 
L 389.641842 80.623767 
L 401.088947 88.256101 
L 412.536053 96.391092 
L 423.983158 103.636602 
L 435.430263 110.457391 
L 446.877368 117.087788 
L 458.324474 125.078771 
L 469.771579 130.228545 
L 481.218684 136.640106 
L 492.665789 142.736347 
L 504.112895 147.163196 
L 515.56 152.740918 
L 515.56 139.136518 
L 515.56 139.136518 
L 504.112895 134.185659 
L 492.665789 128.922012 
L 481.218684 122.81236 
L 469.771579 117.107158 
L 458.324474 111.056445 
L 446.877368 104.557472 
L 435.430263 97.608746 
L 423.983158 89.93392 
L 412.536053 83.165874 
L 401.088947 75.230977 
L 389.641842 68.381851 
L 378.194737 61.288395 
L 366.747632 55.311231 
L 355.300526 49.263396 
L 343.853421 44.027298 
L 332.406316 39.710597 
L 320.959211 36.615892 
L 309.512105 34.448733 
L 298.065 33.597117 
z
" clip-path="url(#p1e736a5eb2)" style="fill: #8c564b; fill-opacity: 0.4"/>
   </g>
   <g id="PolyCollection_15">
    <path d="M 298.065 46.087163 
L 298.065 49.283266 
L 309.512105 50.344474 
L 320.959211 53.111635 
L 332.406316 56.801497 
L 343.853421 63.075604 
L 355.300526 69.202851 
L 366.747632 76.612344 
L 378.194737 83.639319 
L 389.641842 90.946571 
L 401.088947 97.762006 
L 412.536053 105.615404 
L 423.983158 112.291924 
L 435.430263 119.039226 
L 446.877368 125.094359 
L 458.324474 131.95173 
L 469.771579 137.384807 
L 481.218684 143.183068 
L 492.665789 148.413847 
L 504.112895 153.204722 
L 515.56 157.901543 
L 515.56 143.85801 
L 515.56 143.85801 
L 504.112895 139.720638 
L 492.665789 134.934468 
L 481.218684 129.568026 
L 469.771579 124.298873 
L 458.324474 118.63664 
L 446.877368 112.70962 
L 435.430263 106.56796 
L 423.983158 99.820988 
L 412.536053 93.683343 
L 401.088947 86.370096 
L 389.641842 80.157246 
L 378.194737 73.373732 
L 366.747632 67.495668 
L 355.300526 61.994892 
L 343.853421 56.689505 
L 332.406316 52.554252 
L 320.959211 49.317198 
L 309.512105 46.879538 
L 298.065 46.087163 
z
" clip-path="url(#p1e736a5eb2)" style="fill: #e377c2; fill-opacity: 0.4"/>
   </g>
   <g id="PolyCollection_16">
    <path d="M 298.065 33.604467 
L 298.065 34.118854 
L 309.512105 35.313963 
L 320.959211 38.809765 
L 332.406316 43.200442 
L 343.853421 50.215769 
L 355.300526 56.974814 
L 366.747632 65.230363 
L 378.194737 73.044576 
L 389.641842 80.806514 
L 401.088947 88.339742 
L 412.536053 96.447636 
L 423.983158 103.743321 
L 435.430263 110.723326 
L 446.877368 117.509159 
L 458.324474 124.964627 
L 469.771579 130.940666 
L 481.218684 136.986742 
L 492.665789 142.498698 
L 504.112895 147.726964 
L 515.56 152.782663 
L 515.56 139.297117 
L 515.56 139.297117 
L 504.112895 134.32239 
L 492.665789 129.149645 
L 481.218684 123.171599 
L 469.771579 117.185729 
L 458.324474 110.777236 
L 446.877368 104.411277 
L 435.430263 97.55282 
L 423.983158 90.139558 
L 412.536053 83.183451 
L 401.088947 75.173027 
L 389.641842 68.502822 
L 378.194737 61.327189 
L 366.747632 55.308915 
L 355.300526 49.409908 
L 343.853421 44.018231 
L 332.406316 39.720986 
L 320.959211 36.630571 
L 309.512105 34.453944 
L 298.065 33.604467 
z
" clip-path="url(#p1e736a5eb2)" style="fill: #7f7f7f; fill-opacity: 0.4"/>
   </g>
   <g id="matplotlib.axis_3">
    <g id="xtick_6">
     <g id="line2d_17">
      <g>
       <use xlink:href="#mbc18cbda62" x="298.065" y="174.04" style="stroke: #000000; stroke-width: 0.8"/>
      </g>
     </g>
     <g id="text_12">
      <!-- 0.0 -->
      <g transform="translate(290.113437 188.638438)scale(0.1 -0.1)">
       <use xlink:href="#DejaVuSans-30"/>
       <use xlink:href="#DejaVuSans-2e" x="63.623047"/>
       <use xlink:href="#DejaVuSans-30" x="95.410156"/>
      </g>
     </g>
    </g>
    <g id="xtick_7">
     <g id="line2d_18">
      <g>
       <use xlink:href="#mbc18cbda62" x="352.43875" y="174.04" style="stroke: #000000; stroke-width: 0.8"/>
      </g>
     </g>
     <g id="text_13">
      <!-- 0.5 -->
      <g transform="translate(344.487187 188.638438)scale(0.1 -0.1)">
       <use xlink:href="#DejaVuSans-30"/>
       <use xlink:href="#DejaVuSans-2e" x="63.623047"/>
       <use xlink:href="#DejaVuSans-35" x="95.410156"/>
      </g>
     </g>
    </g>
    <g id="xtick_8">
     <g id="line2d_19">
      <g>
       <use xlink:href="#mbc18cbda62" x="406.8125" y="174.04" style="stroke: #000000; stroke-width: 0.8"/>
      </g>
     </g>
     <g id="text_14">
      <!-- 1.0 -->
      <g transform="translate(398.860937 188.638438)scale(0.1 -0.1)">
       <use xlink:href="#DejaVuSans-31"/>
       <use xlink:href="#DejaVuSans-2e" x="63.623047"/>
       <use xlink:href="#DejaVuSans-30" x="95.410156"/>
      </g>
     </g>
    </g>
    <g id="xtick_9">
     <g id="line2d_20">
      <g>
       <use xlink:href="#mbc18cbda62" x="461.18625" y="174.04" style="stroke: #000000; stroke-width: 0.8"/>
      </g>
     </g>
     <g id="text_15">
      <!-- 1.5 -->
      <g transform="translate(453.234687 188.638438)scale(0.1 -0.1)">
       <use xlink:href="#DejaVuSans-31"/>
       <use xlink:href="#DejaVuSans-2e" x="63.623047"/>
       <use xlink:href="#DejaVuSans-35" x="95.410156"/>
      </g>
     </g>
    </g>
    <g id="xtick_10">
     <g id="line2d_21">
      <g>
       <use xlink:href="#mbc18cbda62" x="515.56" y="174.04" style="stroke: #000000; stroke-width: 0.8"/>
      </g>
     </g>
     <g id="text_16">
      <!-- 2.0 -->
      <g transform="translate(507.608437 188.638438)scale(0.1 -0.1)">
       <use xlink:href="#DejaVuSans-32"/>
       <use xlink:href="#DejaVuSans-2e" x="63.623047"/>
       <use xlink:href="#DejaVuSans-30" x="95.410156"/>
      </g>
     </g>
    </g>
    <g id="text_17">
     <!-- Influence of surprisal (multiplication) -->
     <g transform="translate(314.665625 202.316563)scale(0.1 -0.1)">
      <use xlink:href="#DejaVuSans-49"/>
      <use xlink:href="#DejaVuSans-6e" x="29.492188"/>
      <use xlink:href="#DejaVuSans-66" x="92.871094"/>
      <use xlink:href="#DejaVuSans-6c" x="128.076172"/>
      <use xlink:href="#DejaVuSans-75" x="155.859375"/>
      <use xlink:href="#DejaVuSans-65" x="219.238281"/>
      <use xlink:href="#DejaVuSans-6e" x="280.761719"/>
      <use xlink:href="#DejaVuSans-63" x="344.140625"/>
      <use xlink:href="#DejaVuSans-65" x="399.121094"/>
      <use xlink:href="#DejaVuSans-20" x="460.644531"/>
      <use xlink:href="#DejaVuSans-6f" x="492.431641"/>
      <use xlink:href="#DejaVuSans-66" x="553.613281"/>
      <use xlink:href="#DejaVuSans-20" x="588.818359"/>
      <use xlink:href="#DejaVuSans-73" x="620.605469"/>
      <use xlink:href="#DejaVuSans-75" x="672.705078"/>
      <use xlink:href="#DejaVuSans-72" x="736.083984"/>
      <use xlink:href="#DejaVuSans-70" x="777.197266"/>
      <use xlink:href="#DejaVuSans-72" x="840.673828"/>
      <use xlink:href="#DejaVuSans-69" x="881.787109"/>
      <use xlink:href="#DejaVuSans-73" x="909.570312"/>
      <use xlink:href="#DejaVuSans-61" x="961.669922"/>
      <use xlink:href="#DejaVuSans-6c" x="1022.949219"/>
      <use xlink:href="#DejaVuSans-20" x="1050.732422"/>
      <use xlink:href="#DejaVuSans-28" x="1082.519531"/>
      <use xlink:href="#DejaVuSans-6d" x="1121.533203"/>
      <use xlink:href="#DejaVuSans-75" x="1218.945312"/>
      <use xlink:href="#DejaVuSans-6c" x="1282.324219"/>
      <use xlink:href="#DejaVuSans-74" x="1310.107422"/>
      <use xlink:href="#DejaVuSans-69" x="1349.316406"/>
      <use xlink:href="#DejaVuSans-70" x="1377.099609"/>
      <use xlink:href="#DejaVuSans-6c" x="1440.576172"/>
      <use xlink:href="#DejaVuSans-69" x="1468.359375"/>
      <use xlink:href="#DejaVuSans-63" x="1496.142578"/>
      <use xlink:href="#DejaVuSans-61" x="1551.123047"/>
      <use xlink:href="#DejaVuSans-74" x="1612.402344"/>
      <use xlink:href="#DejaVuSans-69" x="1651.611328"/>
      <use xlink:href="#DejaVuSans-6f" x="1679.394531"/>
      <use xlink:href="#DejaVuSans-6e" x="1740.576172"/>
      <use xlink:href="#DejaVuSans-29" x="1803.955078"/>
     </g>
    </g>
   </g>
   <g id="line2d_22">
    <path d="M 298.065 33.831198 
L 309.512105 34.846854 
L 320.959211 37.683903 
L 332.406316 41.392562 
L 343.853421 47.022083 
L 355.300526 53.098584 
L 366.747632 60.11887 
L 378.194737 66.995817 
L 389.641842 74.414398 
L 401.088947 81.466675 
L 412.536053 89.460997 
L 423.983158 96.531457 
L 435.430263 103.696369 
L 446.877368 110.434121 
L 458.324474 117.248581 
L 469.771579 123.356537 
L 481.218684 129.295939 
L 492.665789 135.01759 
L 504.112895 140.158134 
L 515.56 145.051608 
" clip-path="url(#p1e736a5eb2)" style="fill: none; stroke: #1f77b4; stroke-width: 1.5; stroke-linecap: square"/>
   </g>
   <g id="line2d_23">
    <path d="M 298.065 33.845441 
L 309.512105 34.864671 
L 320.959211 37.695518 
L 332.406316 41.417233 
L 343.853421 47.055109 
L 355.300526 53.129021 
L 366.747632 60.169831 
L 378.194737 67.069266 
L 389.641842 74.499436 
L 401.088947 81.572646 
L 412.536053 89.565554 
L 423.983158 96.642839 
L 435.430263 103.805944 
L 446.877368 110.568669 
L 458.324474 117.385913 
L 469.771579 123.511713 
L 481.218684 129.468938 
L 492.665789 135.190972 
L 504.112895 140.307079 
L 515.56 145.190584 
" clip-path="url(#p1e736a5eb2)" style="fill: none; stroke: #ff7f0e; stroke-width: 1.5; stroke-linecap: square"/>
   </g>
   <g id="line2d_24">
    <path d="M 298.065 33.850477 
L 309.512105 34.866472 
L 320.959211 37.688752 
L 332.406316 41.408325 
L 343.853421 47.048676 
L 355.300526 53.110289 
L 366.747632 60.120541 
L 378.194737 67.007554 
L 389.641842 74.442126 
L 401.088947 81.516833 
L 412.536053 89.545909 
L 423.983158 96.653412 
L 435.430263 103.865471 
L 446.877368 110.600743 
L 458.324474 117.491834 
L 469.771579 123.640909 
L 481.218684 129.568592 
L 492.665789 135.320493 
L 504.112895 140.407652 
L 515.56 145.276534 
" clip-path="url(#p1e736a5eb2)" style="fill: none; stroke: #2ca02c; stroke-width: 1.5; stroke-linecap: square"/>
   </g>
   <g id="line2d_25">
    <path d="M 298.065 33.865617 
L 309.512105 34.887152 
L 320.959211 37.714897 
L 332.406316 41.43708 
L 343.853421 47.08744 
L 355.300526 53.142636 
L 366.747632 60.172549 
L 378.194737 67.074083 
L 389.641842 74.509011 
L 401.088947 81.557222 
L 412.536053 89.567616 
L 423.983158 96.696135 
L 435.430263 103.902703 
L 446.877368 110.677927 
L 458.324474 117.586013 
L 469.771579 123.799727 
L 481.218684 129.805714 
L 492.665789 135.614572 
L 504.112895 140.708471 
L 515.56 145.592366 
" clip-path="url(#p1e736a5eb2)" style="fill: none; stroke: #d62728; stroke-width: 1.5; stroke-linecap: square"/>
   </g>
   <g id="line2d_26">
    <path d="M 298.065 33.846261 
L 309.512105 34.857453 
L 320.959211 37.710822 
L 332.406316 41.405583 
L 343.853421 47.051042 
L 355.300526 53.056909 
L 366.747632 60.214292 
L 378.194737 67.051971 
L 389.641842 74.417051 
L 401.088947 81.63573 
L 412.536053 89.663885 
L 423.983158 96.674987 
L 435.430263 103.930299 
L 446.877368 110.671068 
L 458.324474 117.912155 
L 469.771579 123.517777 
L 481.218684 129.546513 
L 492.665789 135.64384 
L 504.112895 140.510854 
L 515.56 145.816291 
" clip-path="url(#p1e736a5eb2)" style="fill: none; stroke: #9467bd; stroke-width: 1.5; stroke-linecap: square"/>
   </g>
   <g id="line2d_27">
    <path d="M 298.065 33.86185 
L 309.512105 34.876001 
L 320.959211 37.723489 
L 332.406316 41.431472 
L 343.853421 47.086079 
L 355.300526 53.08906 
L 366.747632 60.263758 
L 378.194737 67.124689 
L 389.641842 74.502809 
L 401.088947 81.743539 
L 412.536053 89.778483 
L 423.983158 96.785261 
L 435.430263 104.033069 
L 446.877368 110.82263 
L 458.324474 118.067608 
L 469.771579 123.667851 
L 481.218684 129.726233 
L 492.665789 135.82918 
L 504.112895 140.674428 
L 515.56 145.938718 
" clip-path="url(#p1e736a5eb2)" style="fill: none; stroke: #8c564b; stroke-width: 1.5; stroke-linecap: square"/>
   </g>
   <g id="line2d_28">
    <path d="M 298.065 47.685215 
L 309.512105 48.612006 
L 320.959211 51.214416 
L 332.406316 54.677875 
L 343.853421 59.882554 
L 355.300526 65.598872 
L 366.747632 72.054006 
L 378.194737 78.506525 
L 389.641842 85.551909 
L 401.088947 92.066051 
L 412.536053 99.649373 
L 423.983158 106.056456 
L 435.430263 112.803593 
L 446.877368 118.90199 
L 458.324474 125.294185 
L 469.771579 130.84184 
L 481.218684 136.375547 
L 492.665789 141.674158 
L 504.112895 146.46268 
L 515.56 150.879776 
" clip-path="url(#p1e736a5eb2)" style="fill: none; stroke: #e377c2; stroke-width: 1.5; stroke-linecap: square"/>
   </g>
   <g id="line2d_29">
    <path d="M 298.065 33.86166 
L 309.512105 34.883953 
L 320.959211 37.720168 
L 332.406316 41.460714 
L 343.853421 47.117 
L 355.300526 53.192361 
L 366.747632 60.269639 
L 378.194737 67.185883 
L 389.641842 74.654668 
L 401.088947 81.756385 
L 412.536053 89.815544 
L 423.983158 96.94144 
L 435.430263 104.138073 
L 446.877368 110.960218 
L 458.324474 117.870931 
L 469.771579 124.063197 
L 481.218684 130.079171 
L 492.665789 135.824171 
L 504.112895 141.024677 
L 515.56 146.03989 
" clip-path="url(#p1e736a5eb2)" style="fill: none; stroke: #7f7f7f; stroke-width: 1.5; stroke-linecap: square"/>
   </g>
   <g id="patch_6">
    <path d="M 298.065 174.04 
L 298.065 26.88 
" style="fill: none; stroke: #000000; stroke-width: 0.8; stroke-linejoin: miter; stroke-linecap: square"/>
   </g>
   <g id="patch_7">
    <path d="M 298.065 174.04 
L 515.56 174.04 
" style="fill: none; stroke: #000000; stroke-width: 0.8; stroke-linejoin: miter; stroke-linecap: square"/>
   </g>
   <g id="text_18">
    <!-- Node * third variable -->
    <g transform="translate(344.2325 20.88)scale(0.12 -0.12)">
     <defs>
      <path id="DejaVuSans-68" d="M 3513 2113 
L 3513 0 
L 2938 0 
L 2938 2094 
Q 2938 2591 2744 2837 
Q 2550 3084 2163 3084 
Q 1697 3084 1428 2787 
Q 1159 2491 1159 1978 
L 1159 0 
L 581 0 
L 581 4863 
L 1159 4863 
L 1159 2956 
Q 1366 3272 1645 3428 
Q 1925 3584 2291 3584 
Q 2894 3584 3203 3211 
Q 3513 2838 3513 2113 
z
" transform="scale(0.015625)"/>
      <path id="DejaVuSans-62" d="M 3116 1747 
Q 3116 2381 2855 2742 
Q 2594 3103 2138 3103 
Q 1681 3103 1420 2742 
Q 1159 2381 1159 1747 
Q 1159 1113 1420 752 
Q 1681 391 2138 391 
Q 2594 391 2855 752 
Q 3116 1113 3116 1747 
z
M 1159 2969 
Q 1341 3281 1617 3432 
Q 1894 3584 2278 3584 
Q 2916 3584 3314 3078 
Q 3713 2572 3713 1747 
Q 3713 922 3314 415 
Q 2916 -91 2278 -91 
Q 1894 -91 1617 61 
Q 1341 213 1159 525 
L 1159 0 
L 581 0 
L 581 4863 
L 1159 4863 
L 1159 2969 
z
" transform="scale(0.015625)"/>
     </defs>
     <use xlink:href="#DejaVuSans-4e"/>
     <use xlink:href="#DejaVuSans-6f" x="74.804688"/>
     <use xlink:href="#DejaVuSans-64" x="135.986328"/>
     <use xlink:href="#DejaVuSans-65" x="199.462891"/>
     <use xlink:href="#DejaVuSans-20" x="260.986328"/>
     <use xlink:href="#DejaVuSans-2a" x="292.773438"/>
     <use xlink:href="#DejaVuSans-20" x="342.773438"/>
     <use xlink:href="#DejaVuSans-74" x="374.560547"/>
     <use xlink:href="#DejaVuSans-68" x="413.769531"/>
     <use xlink:href="#DejaVuSans-69" x="477.148438"/>
     <use xlink:href="#DejaVuSans-72" x="504.931641"/>
     <use xlink:href="#DejaVuSans-64" x="544.294922"/>
     <use xlink:href="#DejaVuSans-20" x="607.771484"/>
     <use xlink:href="#DejaVuSans-76" x="639.558594"/>
     <use xlink:href="#DejaVuSans-61" x="698.738281"/>
     <use xlink:href="#DejaVuSans-72" x="760.017578"/>
     <use xlink:href="#DejaVuSans-69" x="801.130859"/>
     <use xlink:href="#DejaVuSans-61" x="828.914062"/>
     <use xlink:href="#DejaVuSans-62" x="890.193359"/>
     <use xlink:href="#DejaVuSans-6c" x="953.669922"/>
     <use xlink:href="#DejaVuSans-65" x="981.453125"/>
    </g>
   </g>
   <g id="legend_1">
    <g id="line2d_30">
     <path d="M 524.56 39.978437 
L 534.56 39.978437 
L 544.56 39.978437 
" style="fill: none; stroke: #1f77b4; stroke-width: 1.5; stroke-linecap: square"/>
    </g>
    <g id="text_19">
     <!-- Node -->
     <g transform="translate(552.56 43.478437)scale(0.1 -0.1)">
      <use xlink:href="#DejaVuSans-4e"/>
      <use xlink:href="#DejaVuSans-6f" x="74.804688"/>
      <use xlink:href="#DejaVuSans-64" x="135.986328"/>
      <use xlink:href="#DejaVuSans-65" x="199.462891"/>
     </g>
    </g>
    <g id="line2d_31">
     <path d="M 524.56 54.656563 
L 534.56 54.656563 
L 544.56 54.656563 
" style="fill: none; stroke: #ff7f0e; stroke-width: 1.5; stroke-linecap: square"/>
    </g>
    <g id="text_20">
     <!-- Node + surprisal -->
     <g transform="translate(552.56 58.156563)scale(0.1 -0.1)">
      <defs>
       <path id="DejaVuSans-2b" d="M 2944 4013 
L 2944 2272 
L 4684 2272 
L 4684 1741 
L 2944 1741 
L 2944 0 
L 2419 0 
L 2419 1741 
L 678 1741 
L 678 2272 
L 2419 2272 
L 2419 4013 
L 2944 4013 
z
" transform="scale(0.015625)"/>
      </defs>
      <use xlink:href="#DejaVuSans-4e"/>
      <use xlink:href="#DejaVuSans-6f" x="74.804688"/>
      <use xlink:href="#DejaVuSans-64" x="135.986328"/>
      <use xlink:href="#DejaVuSans-65" x="199.462891"/>
      <use xlink:href="#DejaVuSans-20" x="260.986328"/>
      <use xlink:href="#DejaVuSans-2b" x="292.773438"/>
      <use xlink:href="#DejaVuSans-20" x="376.5625"/>
      <use xlink:href="#DejaVuSans-73" x="408.349609"/>
      <use xlink:href="#DejaVuSans-75" x="460.449219"/>
      <use xlink:href="#DejaVuSans-72" x="523.828125"/>
      <use xlink:href="#DejaVuSans-70" x="564.941406"/>
      <use xlink:href="#DejaVuSans-72" x="628.417969"/>
      <use xlink:href="#DejaVuSans-69" x="669.53125"/>
      <use xlink:href="#DejaVuSans-73" x="697.314453"/>
      <use xlink:href="#DejaVuSans-61" x="749.414062"/>
      <use xlink:href="#DejaVuSans-6c" x="810.693359"/>
     </g>
    </g>
    <g id="line2d_32">
     <path d="M 524.56 69.334687 
L 534.56 69.334687 
L 544.56 69.334687 
" style="fill: none; stroke: #2ca02c; stroke-width: 1.5; stroke-linecap: square"/>
    </g>
    <g id="text_21">
     <!-- Node split -->
     <g transform="translate(552.56 72.834687)scale(0.1 -0.1)">
      <use xlink:href="#DejaVuSans-4e"/>
      <use xlink:href="#DejaVuSans-6f" x="74.804688"/>
      <use xlink:href="#DejaVuSans-64" x="135.986328"/>
      <use xlink:href="#DejaVuSans-65" x="199.462891"/>
      <use xlink:href="#DejaVuSans-20" x="260.986328"/>
      <use xlink:href="#DejaVuSans-73" x="292.773438"/>
      <use xlink:href="#DejaVuSans-70" x="344.873047"/>
      <use xlink:href="#DejaVuSans-6c" x="408.349609"/>
      <use xlink:href="#DejaVuSans-69" x="436.132812"/>
      <use xlink:href="#DejaVuSans-74" x="463.916016"/>
     </g>
    </g>
    <g id="line2d_33">
     <path d="M 524.56 84.012812 
L 534.56 84.012812 
L 544.56 84.012812 
" style="fill: none; stroke: #d62728; stroke-width: 1.5; stroke-linecap: square"/>
    </g>
    <g id="text_22">
     <!-- Node split + surprisal -->
     <g transform="translate(552.56 87.512812)scale(0.1 -0.1)">
      <use xlink:href="#DejaVuSans-4e"/>
      <use xlink:href="#DejaVuSans-6f" x="74.804688"/>
      <use xlink:href="#DejaVuSans-64" x="135.986328"/>
      <use xlink:href="#DejaVuSans-65" x="199.462891"/>
      <use xlink:href="#DejaVuSans-20" x="260.986328"/>
      <use xlink:href="#DejaVuSans-73" x="292.773438"/>
      <use xlink:href="#DejaVuSans-70" x="344.873047"/>
      <use xlink:href="#DejaVuSans-6c" x="408.349609"/>
      <use xlink:href="#DejaVuSans-69" x="436.132812"/>
      <use xlink:href="#DejaVuSans-74" x="463.916016"/>
      <use xlink:href="#DejaVuSans-20" x="503.125"/>
      <use xlink:href="#DejaVuSans-2b" x="534.912109"/>
      <use xlink:href="#DejaVuSans-20" x="618.701172"/>
      <use xlink:href="#DejaVuSans-73" x="650.488281"/>
      <use xlink:href="#DejaVuSans-75" x="702.587891"/>
      <use xlink:href="#DejaVuSans-72" x="765.966797"/>
      <use xlink:href="#DejaVuSans-70" x="807.080078"/>
      <use xlink:href="#DejaVuSans-72" x="870.556641"/>
      <use xlink:href="#DejaVuSans-69" x="911.669922"/>
      <use xlink:href="#DejaVuSans-73" x="939.453125"/>
      <use xlink:href="#DejaVuSans-61" x="991.552734"/>
      <use xlink:href="#DejaVuSans-6c" x="1052.832031"/>
     </g>
    </g>
    <g id="line2d_34">
     <path d="M 524.56 98.690937 
L 534.56 98.690937 
L 544.56 98.690937 
" style="fill: none; stroke: #9467bd; stroke-width: 1.5; stroke-linecap: square"/>
    </g>
    <g id="text_23">
     <!-- Node random split -->
     <g transform="translate(552.56 102.190937)scale(0.1 -0.1)">
      <use xlink:href="#DejaVuSans-4e"/>
      <use xlink:href="#DejaVuSans-6f" x="74.804688"/>
      <use xlink:href="#DejaVuSans-64" x="135.986328"/>
      <use xlink:href="#DejaVuSans-65" x="199.462891"/>
      <use xlink:href="#DejaVuSans-20" x="260.986328"/>
      <use xlink:href="#DejaVuSans-72" x="292.773438"/>
      <use xlink:href="#DejaVuSans-61" x="333.886719"/>
      <use xlink:href="#DejaVuSans-6e" x="395.166016"/>
      <use xlink:href="#DejaVuSans-64" x="458.544922"/>
      <use xlink:href="#DejaVuSans-6f" x="522.021484"/>
      <use xlink:href="#DejaVuSans-6d" x="583.203125"/>
      <use xlink:href="#DejaVuSans-20" x="680.615234"/>
      <use xlink:href="#DejaVuSans-73" x="712.402344"/>
      <use xlink:href="#DejaVuSans-70" x="764.501953"/>
      <use xlink:href="#DejaVuSans-6c" x="827.978516"/>
      <use xlink:href="#DejaVuSans-69" x="855.761719"/>
      <use xlink:href="#DejaVuSans-74" x="883.544922"/>
     </g>
    </g>
    <g id="line2d_35">
     <path d="M 524.56 113.369062 
L 534.56 113.369062 
L 544.56 113.369062 
" style="fill: none; stroke: #8c564b; stroke-width: 1.5; stroke-linecap: square"/>
    </g>
    <g id="text_24">
     <!-- Node random split + surprisal -->
     <g transform="translate(552.56 116.869062)scale(0.1 -0.1)">
      <use xlink:href="#DejaVuSans-4e"/>
      <use xlink:href="#DejaVuSans-6f" x="74.804688"/>
      <use xlink:href="#DejaVuSans-64" x="135.986328"/>
      <use xlink:href="#DejaVuSans-65" x="199.462891"/>
      <use xlink:href="#DejaVuSans-20" x="260.986328"/>
      <use xlink:href="#DejaVuSans-72" x="292.773438"/>
      <use xlink:href="#DejaVuSans-61" x="333.886719"/>
      <use xlink:href="#DejaVuSans-6e" x="395.166016"/>
      <use xlink:href="#DejaVuSans-64" x="458.544922"/>
      <use xlink:href="#DejaVuSans-6f" x="522.021484"/>
      <use xlink:href="#DejaVuSans-6d" x="583.203125"/>
      <use xlink:href="#DejaVuSans-20" x="680.615234"/>
      <use xlink:href="#DejaVuSans-73" x="712.402344"/>
      <use xlink:href="#DejaVuSans-70" x="764.501953"/>
      <use xlink:href="#DejaVuSans-6c" x="827.978516"/>
      <use xlink:href="#DejaVuSans-69" x="855.761719"/>
      <use xlink:href="#DejaVuSans-74" x="883.544922"/>
      <use xlink:href="#DejaVuSans-20" x="922.753906"/>
      <use xlink:href="#DejaVuSans-2b" x="954.541016"/>
      <use xlink:href="#DejaVuSans-20" x="1038.330078"/>
      <use xlink:href="#DejaVuSans-73" x="1070.117188"/>
      <use xlink:href="#DejaVuSans-75" x="1122.216797"/>
      <use xlink:href="#DejaVuSans-72" x="1185.595703"/>
      <use xlink:href="#DejaVuSans-70" x="1226.708984"/>
      <use xlink:href="#DejaVuSans-72" x="1290.185547"/>
      <use xlink:href="#DejaVuSans-69" x="1331.298828"/>
      <use xlink:href="#DejaVuSans-73" x="1359.082031"/>
      <use xlink:href="#DejaVuSans-61" x="1411.181641"/>
      <use xlink:href="#DejaVuSans-6c" x="1472.460938"/>
     </g>
    </g>
    <g id="line2d_36">
     <path d="M 524.56 128.047187 
L 534.56 128.047187 
L 544.56 128.047187 
" style="fill: none; stroke: #e377c2; stroke-width: 1.5; stroke-linecap: square"/>
    </g>
    <g id="text_25">
     <!-- Interaction -->
     <g transform="translate(552.56 131.547187)scale(0.1 -0.1)">
      <use xlink:href="#DejaVuSans-49"/>
      <use xlink:href="#DejaVuSans-6e" x="29.492188"/>
      <use xlink:href="#DejaVuSans-74" x="92.871094"/>
      <use xlink:href="#DejaVuSans-65" x="132.080078"/>
      <use xlink:href="#DejaVuSans-72" x="193.603516"/>
      <use xlink:href="#DejaVuSans-61" x="234.716797"/>
      <use xlink:href="#DejaVuSans-63" x="295.996094"/>
      <use xlink:href="#DejaVuSans-74" x="350.976562"/>
      <use xlink:href="#DejaVuSans-69" x="390.185547"/>
      <use xlink:href="#DejaVuSans-6f" x="417.96875"/>
      <use xlink:href="#DejaVuSans-6e" x="479.150391"/>
     </g>
    </g>
    <g id="line2d_37">
     <path d="M 524.56 142.725312 
L 534.56 142.725312 
L 544.56 142.725312 
" style="fill: none; stroke: #7f7f7f; stroke-width: 1.5; stroke-linecap: square"/>
    </g>
    <g id="text_26">
     <!-- Node + surprisal + interaction -->
     <g transform="translate(552.56 146.225312)scale(0.1 -0.1)">
      <use xlink:href="#DejaVuSans-4e"/>
      <use xlink:href="#DejaVuSans-6f" x="74.804688"/>
      <use xlink:href="#DejaVuSans-64" x="135.986328"/>
      <use xlink:href="#DejaVuSans-65" x="199.462891"/>
      <use xlink:href="#DejaVuSans-20" x="260.986328"/>
      <use xlink:href="#DejaVuSans-2b" x="292.773438"/>
      <use xlink:href="#DejaVuSans-20" x="376.5625"/>
      <use xlink:href="#DejaVuSans-73" x="408.349609"/>
      <use xlink:href="#DejaVuSans-75" x="460.449219"/>
      <use xlink:href="#DejaVuSans-72" x="523.828125"/>
      <use xlink:href="#DejaVuSans-70" x="564.941406"/>
      <use xlink:href="#DejaVuSans-72" x="628.417969"/>
      <use xlink:href="#DejaVuSans-69" x="669.53125"/>
      <use xlink:href="#DejaVuSans-73" x="697.314453"/>
      <use xlink:href="#DejaVuSans-61" x="749.414062"/>
      <use xlink:href="#DejaVuSans-6c" x="810.693359"/>
      <use xlink:href="#DejaVuSans-20" x="838.476562"/>
      <use xlink:href="#DejaVuSans-2b" x="870.263672"/>
      <use xlink:href="#DejaVuSans-20" x="954.052734"/>
      <use xlink:href="#DejaVuSans-69" x="985.839844"/>
      <use xlink:href="#DejaVuSans-6e" x="1013.623047"/>
      <use xlink:href="#DejaVuSans-74" x="1077.001953"/>
      <use xlink:href="#DejaVuSans-65" x="1116.210938"/>
      <use xlink:href="#DejaVuSans-72" x="1177.734375"/>
      <use xlink:href="#DejaVuSans-61" x="1218.847656"/>
      <use xlink:href="#DejaVuSans-63" x="1280.126953"/>
      <use xlink:href="#DejaVuSans-74" x="1335.107422"/>
      <use xlink:href="#DejaVuSans-69" x="1374.316406"/>
      <use xlink:href="#DejaVuSans-6f" x="1402.099609"/>
      <use xlink:href="#DejaVuSans-6e" x="1463.28125"/>
     </g>
    </g>
   </g>
  </g>
 </g>
 <defs>
  <clipPath id="p9ec4f3e4b2">
   <rect x="47.72" y="26.88" width="217.495" height="147.16"/>
  </clipPath>
  <clipPath id="p1e736a5eb2">
   <rect x="298.065" y="26.88" width="217.495" height="147.16"/>
  </clipPath>
 </defs>
</svg>
