<?xml version="1.0" encoding="utf-8" standalone="no"?>
<!DOCTYPE svg PUBLIC "-//W3C//DTD SVG 1.1//EN"
  "http://www.w3.org/Graphics/SVG/1.1/DTD/svg11.dtd">
<svg xmlns:xlink="http://www.w3.org/1999/xlink" width="720pt" height="216pt" viewBox="0 0 720 216" xmlns="http://www.w3.org/2000/svg" version="1.1">
 <metadata>
  <rdf:RDF xmlns:dc="http://purl.org/dc/elements/1.1/" xmlns:cc="http://creativecommons.org/ns#" xmlns:rdf="http://www.w3.org/1999/02/22-rdf-syntax-ns#">
   <cc:Work>
    <dc:type rdf:resource="http://purl.org/dc/dcmitype/StillImage"/>
    <dc:date>2024-01-15T23:51:38.342038</dc:date>
    <dc:format>image/svg+xml</dc:format>
    <dc:creator>
     <cc:Agent>
      <dc:title>Matplotlib v3.5.1, https://matplotlib.org/</dc:title>
     </cc:Agent>
    </dc:creator>
   </cc:Work>
  </rdf:RDF>
 </metadata>
 <defs>
  <style type="text/css">*{stroke-linejoin: round; stroke-linecap: butt}</style>
 </defs>
 <g id="figure_1">
  <g id="patch_1">
   <path d="M 0 216 
L 720 216 
L 720 0 
L 0 0 
z
" style="fill: #ffffff"/>
  </g>
  <g id="axes_1">
   <g id="patch_2">
    <path d="M 47.72 174.04 
L 265.215 174.04 
L 265.215 26.88 
L 47.72 26.88 
z
" style="fill: #ffffff"/>
   </g>
   <g id="PolyCollection_1">
    <path d="M 47.72 33.569091 
L 47.72 34.460282 
L 59.167105 35.932209 
L 70.614211 39.174704 
L 82.061316 43.45011 
L 93.508421 49.322448 
L 104.955526 56.329358 
L 116.402632 64.005255 
L 127.849737 71.704021 
L 139.296842 80.174586 
L 150.743947 88.031664 
L 162.191053 95.961071 
L 173.638158 103.700282 
L 185.085263 111.090986 
L 196.532368 118.447928 
L 207.979474 124.318985 
L 219.426579 131.313342 
L 230.873684 137.228761 
L 242.320789 142.963834 
L 253.767895 147.975921 
L 265.215 153.118851 
L 265.215 136.6721 
L 265.215 136.6721 
L 253.767895 132.65906 
L 242.320789 128.235571 
L 230.873684 123.284096 
L 219.426579 118.782667 
L 207.979474 112.953124 
L 196.532368 107.533364 
L 185.085263 101.559914 
L 173.638158 94.685173 
L 162.191053 87.580996 
L 150.743947 80.313809 
L 139.296842 73.472464 
L 127.849737 66.023745 
L 116.402632 58.902071 
L 104.955526 52.365596 
L 93.508421 46.290493 
L 82.061316 41.272456 
L 70.614211 37.50075 
L 59.167105 34.712234 
L 47.72 33.569091 
z
" clip-path="url(#pdfbdf5474c)" style="fill: #1f77b4; fill-opacity: 0.4"/>
   </g>
   <g id="PolyCollection_2">
    <path d="M 47.72 33.584499 
L 47.72 34.482477 
L 59.167105 35.549794 
L 70.614211 37.250921 
L 82.061316 39.558965 
L 93.508421 43.119404 
L 104.955526 47.690877 
L 116.402632 52.755057 
L 127.849737 58.705486 
L 139.296842 65.299538 
L 150.743947 71.931206 
L 162.191053 79.226002 
L 173.638158 86.926888 
L 185.085263 94.173124 
L 196.532368 101.706662 
L 207.979474 108.100326 
L 219.426579 115.096877 
L 230.873684 120.991413 
L 242.320789 126.618254 
L 253.767895 131.550431 
L 265.215 136.474455 
L 265.215 120.284335 
L 265.215 120.284335 
L 253.767895 115.878676 
L 242.320789 110.916549 
L 230.873684 105.800534 
L 219.426579 100.929022 
L 207.979474 94.94416 
L 196.532368 89.618968 
L 185.085263 83.666956 
L 173.638158 77.640536 
L 162.191053 71.232552 
L 150.743947 65.052084 
L 139.296842 59.345286 
L 127.849737 54.054542 
L 116.402632 49.033802 
L 104.955526 44.518696 
L 93.508421 40.73571 
L 82.061316 37.895707 
L 70.614211 35.723966 
L 59.167105 34.341335 
L 47.72 33.584499 
z
" clip-path="url(#pdfbdf5474c)" style="fill: #ff7f0e; fill-opacity: 0.4"/>
   </g>
   <g id="PolyCollection_3">
    <path d="M 47.72 33.577337 
L 47.72 34.488591 
L 59.167105 35.687323 
L 70.614211 37.258983 
L 82.061316 38.90915 
L 93.508421 41.819072 
L 104.955526 44.967587 
L 116.402632 48.268875 
L 127.849737 51.981326 
L 139.296842 55.887947 
L 150.743947 59.585955 
L 162.191053 63.665381 
L 173.638158 67.93119 
L 185.085263 71.568087 
L 196.532368 75.366172 
L 207.979474 79.250259 
L 219.426579 82.824306 
L 230.873684 86.23509 
L 242.320789 89.810893 
L 253.767895 93.229137 
L 265.215 96.656147 
L 265.215 87.212203 
L 265.215 87.212203 
L 253.767895 84.378802 
L 242.320789 81.562646 
L 230.873684 78.446144 
L 219.426579 75.391037 
L 207.979474 71.591361 
L 196.532368 68.302433 
L 185.085263 64.867515 
L 173.638158 61.566 
L 162.191053 58.104225 
L 150.743947 54.226884 
L 139.296842 51.017772 
L 127.849737 47.991758 
L 116.402632 44.932629 
L 104.955526 41.971986 
L 93.508421 39.478388 
L 82.061316 37.466842 
L 70.614211 35.779633 
L 59.167105 34.488365 
L 47.72 33.577337 
z
" clip-path="url(#pdfbdf5474c)" style="fill: #2ca02c; fill-opacity: 0.4"/>
   </g>
   <g id="PolyCollection_4">
    <path d="M 47.72 33.590281 
L 47.72 34.503449 
L 59.167105 35.518908 
L 70.614211 36.689648 
L 82.061316 37.861174 
L 93.508421 40.237316 
L 104.955526 42.878888 
L 116.402632 45.796961 
L 127.849737 49.228232 
L 139.296842 52.759903 
L 150.743947 56.534776 
L 162.191053 60.714192 
L 173.638158 65.294165 
L 185.085263 69.132679 
L 196.532368 73.185021 
L 207.979474 77.217698 
L 219.426579 80.993809 
L 230.873684 84.821444 
L 242.320789 88.548066 
L 253.767895 92.054703 
L 265.215 95.508756 
L 265.215 85.433093 
L 265.215 85.433093 
L 253.767895 82.411899 
L 242.320789 79.405611 
L 230.873684 76.113794 
L 219.426579 73.000772 
L 207.979474 69.137208 
L 196.532368 65.846703 
L 185.085263 62.267729 
L 173.638158 58.921682 
L 162.191053 55.278694 
L 150.743947 51.446813 
L 139.296842 48.296953 
L 127.849737 45.437458 
L 116.402632 42.576189 
L 104.955526 40.059429 
L 93.508421 37.998452 
L 82.061316 36.533094 
L 70.614211 35.198645 
L 59.167105 34.329039 
L 47.72 33.590281 
z
" clip-path="url(#pdfbdf5474c)" style="fill: #d62728; fill-opacity: 0.4"/>
   </g>
   <g id="PolyCollection_5">
    <path d="M 47.72 33.582802 
L 47.72 34.477988 
L 59.167105 35.937494 
L 70.614211 39.19521 
L 82.061316 43.493476 
L 93.508421 49.340567 
L 104.955526 56.361244 
L 116.402632 64.098523 
L 127.849737 71.717902 
L 139.296842 80.31651 
L 150.743947 88.059133 
L 162.191053 96.04923 
L 173.638158 103.794617 
L 185.085263 111.098548 
L 196.532368 118.666391 
L 207.979474 125.436616 
L 219.426579 131.474491 
L 230.873684 137.116081 
L 242.320789 143.727472 
L 253.767895 147.708926 
L 265.215 153.611677 
L 265.215 137.144474 
L 265.215 137.144474 
L 253.767895 132.646489 
L 242.320789 128.952308 
L 230.873684 123.990779 
L 219.426579 119.014894 
L 207.979474 113.012251 
L 196.532368 107.456666 
L 185.085263 101.655624 
L 173.638158 94.609798 
L 162.191053 87.666588 
L 150.743947 80.343403 
L 139.296842 73.412353 
L 127.849737 66.128229 
L 116.402632 59.035101 
L 104.955526 52.399381 
L 93.508421 46.40636 
L 82.061316 41.29139 
L 70.614211 37.505965 
L 59.167105 34.731856 
L 47.72 33.582802 
z
" clip-path="url(#pdfbdf5474c)" style="fill: #9467bd; fill-opacity: 0.4"/>
   </g>
   <g id="PolyCollection_6">
    <path d="M 47.72 33.59927 
L 47.72 34.500629 
L 59.167105 35.556452 
L 70.614211 37.269545 
L 82.061316 39.574582 
L 93.508421 43.149525 
L 104.955526 47.739558 
L 116.402632 52.862018 
L 127.849737 58.708865 
L 139.296842 65.335171 
L 150.743947 72.116679 
L 162.191053 79.294953 
L 173.638158 87.079663 
L 185.085263 94.191208 
L 196.532368 101.988433 
L 207.979474 109.058651 
L 219.426579 115.131329 
L 230.873684 120.842763 
L 242.320789 126.905685 
L 253.767895 131.338105 
L 265.215 137.117364 
L 265.215 120.292567 
L 265.215 120.292567 
L 253.767895 116.029707 
L 242.320789 111.659413 
L 230.873684 106.272215 
L 219.426579 101.198009 
L 207.979474 94.78817 
L 196.532368 89.507522 
L 185.085263 83.684291 
L 173.638158 77.664667 
L 162.191053 71.263527 
L 150.743947 64.972998 
L 139.296842 59.311884 
L 127.849737 54.125642 
L 116.402632 49.129417 
L 104.955526 44.539085 
L 93.508421 40.776033 
L 82.061316 37.919472 
L 70.614211 35.734627 
L 59.167105 34.361332 
L 47.72 33.59927 
z
" clip-path="url(#pdfbdf5474c)" style="fill: #8c564b; fill-opacity: 0.4"/>
   </g>
   <g id="PolyCollection_7">
    <path d="M 47.72 47.050776 
L 47.72 51.720373 
L 59.167105 53.839217 
L 70.614211 58.459676 
L 82.061316 64.443954 
L 93.508421 71.598744 
L 104.955526 79.631034 
L 116.402632 87.907298 
L 127.849737 96.343169 
L 139.296842 105.476276 
L 150.743947 113.811303 
L 162.191053 121.828468 
L 173.638158 129.190555 
L 185.085263 135.934301 
L 196.532368 142.035703 
L 207.979474 146.716767 
L 219.426579 151.928416 
L 230.873684 156.390727 
L 242.320789 160.481601 
L 253.767895 163.823577 
L 265.215 167.350909 
L 265.215 158.112668 
L 265.215 158.112668 
L 253.767895 154.640613 
L 242.320789 150.482638 
L 230.873684 146.023867 
L 219.426579 141.519755 
L 207.979474 135.424414 
L 196.532368 129.24887 
L 185.085263 122.886753 
L 173.638158 115.517411 
L 162.191053 107.791591 
L 150.743947 99.653098 
L 139.296842 92.060578 
L 127.849737 84.037151 
L 116.402632 75.936 
L 104.955526 68.326651 
L 93.508421 61.194733 
L 82.061316 55.347419 
L 70.614211 51.173715 
L 59.167105 48.349203 
L 47.72 47.050776 
z
" clip-path="url(#pdfbdf5474c)" style="fill: #e377c2; fill-opacity: 0.4"/>
   </g>
   <g id="PolyCollection_8">
    <path d="M 47.72 33.599961 
L 47.72 34.502068 
L 59.167105 35.19276 
L 70.614211 35.533184 
L 82.061316 36.365857 
L 93.508421 38.456648 
L 104.955526 40.972563 
L 116.402632 44.29056 
L 127.849737 48.362855 
L 139.296842 53.192407 
L 150.743947 58.887353 
L 162.191053 65.310447 
L 173.638158 72.326398 
L 185.085263 78.862662 
L 196.532368 86.151376 
L 207.979474 92.651282 
L 219.426579 99.109667 
L 230.873684 105.462999 
L 242.320789 111.316256 
L 253.767895 116.513262 
L 265.215 121.723286 
L 265.215 107.659978 
L 265.215 107.659978 
L 253.767895 102.728109 
L 242.320789 96.861804 
L 230.873684 91.143734 
L 219.426579 85.642311 
L 207.979474 79.035432 
L 196.532368 73.249997 
L 185.085263 67.233838 
L 173.638158 61.365273 
L 162.191053 55.77891 
L 150.743947 50.351246 
L 139.296842 45.940837 
L 127.849737 42.140664 
L 116.402632 38.849542 
L 104.955526 36.460754 
L 93.508421 35.090304 
L 82.061316 34.41693 
L 70.614211 34.213772 
L 59.167105 34.01444 
L 47.72 33.599961 
z
" clip-path="url(#pdfbdf5474c)" style="fill: #7f7f7f; fill-opacity: 0.4"/>
   </g>
   <g id="matplotlib.axis_1">
    <g id="xtick_1">
     <g id="line2d_1">
      <defs>
       <path id="m4978ec9d78" d="M 0 0 
L 0 3.5 
" style="stroke: #000000; stroke-width: 0.8"/>
      </defs>
      <g>
       <use xlink:href="#m4978ec9d78" x="47.72" y="174.04" style="stroke: #000000; stroke-width: 0.8"/>
      </g>
     </g>
     <g id="text_1">
      <!-- 0.0 -->
      <g transform="translate(39.768438 188.638438)scale(0.1 -0.1)">
       <defs>
        <path id="DejaVuSans-30" d="M 2034 4250 
Q 1547 4250 1301 3770 
Q 1056 3291 1056 2328 
Q 1056 1369 1301 889 
Q 1547 409 2034 409 
Q 2525 409 2770 889 
Q 3016 1369 3016 2328 
Q 3016 3291 2770 3770 
Q 2525 4250 2034 4250 
z
M 2034 4750 
Q 2819 4750 3233 4129 
Q 3647 3509 3647 2328 
Q 3647 1150 3233 529 
Q 2819 -91 2034 -91 
Q 1250 -91 836 529 
Q 422 1150 422 2328 
Q 422 3509 836 4129 
Q 1250 4750 2034 4750 
z
" transform="scale(0.015625)"/>
        <path id="DejaVuSans-2e" d="M 684 794 
L 1344 794 
L 1344 0 
L 684 0 
L 684 794 
z
" transform="scale(0.015625)"/>
       </defs>
       <use xlink:href="#DejaVuSans-30"/>
       <use xlink:href="#DejaVuSans-2e" x="63.623047"/>
       <use xlink:href="#DejaVuSans-30" x="95.410156"/>
      </g>
     </g>
    </g>
    <g id="xtick_2">
     <g id="line2d_2">
      <g>
       <use xlink:href="#m4978ec9d78" x="102.09375" y="174.04" style="stroke: #000000; stroke-width: 0.8"/>
      </g>
     </g>
     <g id="text_2">
      <!-- 0.5 -->
      <g transform="translate(94.142188 188.638438)scale(0.1 -0.1)">
       <defs>
        <path id="DejaVuSans-35" d="M 691 4666 
L 3169 4666 
L 3169 4134 
L 1269 4134 
L 1269 2991 
Q 1406 3038 1543 3061 
Q 1681 3084 1819 3084 
Q 2600 3084 3056 2656 
Q 3513 2228 3513 1497 
Q 3513 744 3044 326 
Q 2575 -91 1722 -91 
Q 1428 -91 1123 -41 
Q 819 9 494 109 
L 494 744 
Q 775 591 1075 516 
Q 1375 441 1709 441 
Q 2250 441 2565 725 
Q 2881 1009 2881 1497 
Q 2881 1984 2565 2268 
Q 2250 2553 1709 2553 
Q 1456 2553 1204 2497 
Q 953 2441 691 2322 
L 691 4666 
z
" transform="scale(0.015625)"/>
       </defs>
       <use xlink:href="#DejaVuSans-30"/>
       <use xlink:href="#DejaVuSans-2e" x="63.623047"/>
       <use xlink:href="#DejaVuSans-35" x="95.410156"/>
      </g>
     </g>
    </g>
    <g id="xtick_3">
     <g id="line2d_3">
      <g>
       <use xlink:href="#m4978ec9d78" x="156.4675" y="174.04" style="stroke: #000000; stroke-width: 0.8"/>
      </g>
     </g>
     <g id="text_3">
      <!-- 1.0 -->
      <g transform="translate(148.515938 188.638438)scale(0.1 -0.1)">
       <defs>
        <path id="DejaVuSans-31" d="M 794 531 
L 1825 531 
L 1825 4091 
L 703 3866 
L 703 4441 
L 1819 4666 
L 2450 4666 
L 2450 531 
L 3481 531 
L 3481 0 
L 794 0 
L 794 531 
z
" transform="scale(0.015625)"/>
       </defs>
       <use xlink:href="#DejaVuSans-31"/>
       <use xlink:href="#DejaVuSans-2e" x="63.623047"/>
       <use xlink:href="#DejaVuSans-30" x="95.410156"/>
      </g>
     </g>
    </g>
    <g id="xtick_4">
     <g id="line2d_4">
      <g>
       <use xlink:href="#m4978ec9d78" x="210.84125" y="174.04" style="stroke: #000000; stroke-width: 0.8"/>
      </g>
     </g>
     <g id="text_4">
      <!-- 1.5 -->
      <g transform="translate(202.889687 188.638438)scale(0.1 -0.1)">
       <use xlink:href="#DejaVuSans-31"/>
       <use xlink:href="#DejaVuSans-2e" x="63.623047"/>
       <use xlink:href="#DejaVuSans-35" x="95.410156"/>
      </g>
     </g>
    </g>
    <g id="xtick_5">
     <g id="line2d_5">
      <g>
       <use xlink:href="#m4978ec9d78" x="265.215" y="174.04" style="stroke: #000000; stroke-width: 0.8"/>
      </g>
     </g>
     <g id="text_5">
      <!-- 2.0 -->
      <g transform="translate(257.263437 188.638438)scale(0.1 -0.1)">
       <defs>
        <path id="DejaVuSans-32" d="M 1228 531 
L 3431 531 
L 3431 0 
L 469 0 
L 469 531 
Q 828 903 1448 1529 
Q 2069 2156 2228 2338 
Q 2531 2678 2651 2914 
Q 2772 3150 2772 3378 
Q 2772 3750 2511 3984 
Q 2250 4219 1831 4219 
Q 1534 4219 1204 4116 
Q 875 4013 500 3803 
L 500 4441 
Q 881 4594 1212 4672 
Q 1544 4750 1819 4750 
Q 2544 4750 2975 4387 
Q 3406 4025 3406 3419 
Q 3406 3131 3298 2873 
Q 3191 2616 2906 2266 
Q 2828 2175 2409 1742 
Q 1991 1309 1228 531 
z
" transform="scale(0.015625)"/>
       </defs>
       <use xlink:href="#DejaVuSans-32"/>
       <use xlink:href="#DejaVuSans-2e" x="63.623047"/>
       <use xlink:href="#DejaVuSans-30" x="95.410156"/>
      </g>
     </g>
    </g>
    <g id="text_6">
     <!-- Influence of surprisal (multiplication) -->
     <g transform="translate(64.320625 202.316563)scale(0.1 -0.1)">
      <defs>
       <path id="DejaVuSans-49" d="M 628 4666 
L 1259 4666 
L 1259 0 
L 628 0 
L 628 4666 
z
" transform="scale(0.015625)"/>
       <path id="DejaVuSans-6e" d="M 3513 2113 
L 3513 0 
L 2938 0 
L 2938 2094 
Q 2938 2591 2744 2837 
Q 2550 3084 2163 3084 
Q 1697 3084 1428 2787 
Q 1159 2491 1159 1978 
L 1159 0 
L 581 0 
L 581 3500 
L 1159 3500 
L 1159 2956 
Q 1366 3272 1645 3428 
Q 1925 3584 2291 3584 
Q 2894 3584 3203 3211 
Q 3513 2838 3513 2113 
z
" transform="scale(0.015625)"/>
       <path id="DejaVuSans-66" d="M 2375 4863 
L 2375 4384 
L 1825 4384 
Q 1516 4384 1395 4259 
Q 1275 4134 1275 3809 
L 1275 3500 
L 2222 3500 
L 2222 3053 
L 1275 3053 
L 1275 0 
L 697 0 
L 697 3053 
L 147 3053 
L 147 3500 
L 697 3500 
L 697 3744 
Q 697 4328 969 4595 
Q 1241 4863 1831 4863 
L 2375 4863 
z
" transform="scale(0.015625)"/>
       <path id="DejaVuSans-6c" d="M 603 4863 
L 1178 4863 
L 1178 0 
L 603 0 
L 603 4863 
z
" transform="scale(0.015625)"/>
       <path id="DejaVuSans-75" d="M 544 1381 
L 544 3500 
L 1119 3500 
L 1119 1403 
Q 1119 906 1312 657 
Q 1506 409 1894 409 
Q 2359 409 2629 706 
Q 2900 1003 2900 1516 
L 2900 3500 
L 3475 3500 
L 3475 0 
L 2900 0 
L 2900 538 
Q 2691 219 2414 64 
Q 2138 -91 1772 -91 
Q 1169 -91 856 284 
Q 544 659 544 1381 
z
M 1991 3584 
L 1991 3584 
z
" transform="scale(0.015625)"/>
       <path id="DejaVuSans-65" d="M 3597 1894 
L 3597 1613 
L 953 1613 
Q 991 1019 1311 708 
Q 1631 397 2203 397 
Q 2534 397 2845 478 
Q 3156 559 3463 722 
L 3463 178 
Q 3153 47 2828 -22 
Q 2503 -91 2169 -91 
Q 1331 -91 842 396 
Q 353 884 353 1716 
Q 353 2575 817 3079 
Q 1281 3584 2069 3584 
Q 2775 3584 3186 3129 
Q 3597 2675 3597 1894 
z
M 3022 2063 
Q 3016 2534 2758 2815 
Q 2500 3097 2075 3097 
Q 1594 3097 1305 2825 
Q 1016 2553 972 2059 
L 3022 2063 
z
" transform="scale(0.015625)"/>
       <path id="DejaVuSans-63" d="M 3122 3366 
L 3122 2828 
Q 2878 2963 2633 3030 
Q 2388 3097 2138 3097 
Q 1578 3097 1268 2742 
Q 959 2388 959 1747 
Q 959 1106 1268 751 
Q 1578 397 2138 397 
Q 2388 397 2633 464 
Q 2878 531 3122 666 
L 3122 134 
Q 2881 22 2623 -34 
Q 2366 -91 2075 -91 
Q 1284 -91 818 406 
Q 353 903 353 1747 
Q 353 2603 823 3093 
Q 1294 3584 2113 3584 
Q 2378 3584 2631 3529 
Q 2884 3475 3122 3366 
z
" transform="scale(0.015625)"/>
       <path id="DejaVuSans-20" transform="scale(0.015625)"/>
       <path id="DejaVuSans-6f" d="M 1959 3097 
Q 1497 3097 1228 2736 
Q 959 2375 959 1747 
Q 959 1119 1226 758 
Q 1494 397 1959 397 
Q 2419 397 2687 759 
Q 2956 1122 2956 1747 
Q 2956 2369 2687 2733 
Q 2419 3097 1959 3097 
z
M 1959 3584 
Q 2709 3584 3137 3096 
Q 3566 2609 3566 1747 
Q 3566 888 3137 398 
Q 2709 -91 1959 -91 
Q 1206 -91 779 398 
Q 353 888 353 1747 
Q 353 2609 779 3096 
Q 1206 3584 1959 3584 
z
" transform="scale(0.015625)"/>
       <path id="DejaVuSans-73" d="M 2834 3397 
L 2834 2853 
Q 2591 2978 2328 3040 
Q 2066 3103 1784 3103 
Q 1356 3103 1142 2972 
Q 928 2841 928 2578 
Q 928 2378 1081 2264 
Q 1234 2150 1697 2047 
L 1894 2003 
Q 2506 1872 2764 1633 
Q 3022 1394 3022 966 
Q 3022 478 2636 193 
Q 2250 -91 1575 -91 
Q 1294 -91 989 -36 
Q 684 19 347 128 
L 347 722 
Q 666 556 975 473 
Q 1284 391 1588 391 
Q 1994 391 2212 530 
Q 2431 669 2431 922 
Q 2431 1156 2273 1281 
Q 2116 1406 1581 1522 
L 1381 1569 
Q 847 1681 609 1914 
Q 372 2147 372 2553 
Q 372 3047 722 3315 
Q 1072 3584 1716 3584 
Q 2034 3584 2315 3537 
Q 2597 3491 2834 3397 
z
" transform="scale(0.015625)"/>
       <path id="DejaVuSans-72" d="M 2631 2963 
Q 2534 3019 2420 3045 
Q 2306 3072 2169 3072 
Q 1681 3072 1420 2755 
Q 1159 2438 1159 1844 
L 1159 0 
L 581 0 
L 581 3500 
L 1159 3500 
L 1159 2956 
Q 1341 3275 1631 3429 
Q 1922 3584 2338 3584 
Q 2397 3584 2469 3576 
Q 2541 3569 2628 3553 
L 2631 2963 
z
" transform="scale(0.015625)"/>
       <path id="DejaVuSans-70" d="M 1159 525 
L 1159 -1331 
L 581 -1331 
L 581 3500 
L 1159 3500 
L 1159 2969 
Q 1341 3281 1617 3432 
Q 1894 3584 2278 3584 
Q 2916 3584 3314 3078 
Q 3713 2572 3713 1747 
Q 3713 922 3314 415 
Q 2916 -91 2278 -91 
Q 1894 -91 1617 61 
Q 1341 213 1159 525 
z
M 3116 1747 
Q 3116 2381 2855 2742 
Q 2594 3103 2138 3103 
Q 1681 3103 1420 2742 
Q 1159 2381 1159 1747 
Q 1159 1113 1420 752 
Q 1681 391 2138 391 
Q 2594 391 2855 752 
Q 3116 1113 3116 1747 
z
" transform="scale(0.015625)"/>
       <path id="DejaVuSans-69" d="M 603 3500 
L 1178 3500 
L 1178 0 
L 603 0 
L 603 3500 
z
M 603 4863 
L 1178 4863 
L 1178 4134 
L 603 4134 
L 603 4863 
z
" transform="scale(0.015625)"/>
       <path id="DejaVuSans-61" d="M 2194 1759 
Q 1497 1759 1228 1600 
Q 959 1441 959 1056 
Q 959 750 1161 570 
Q 1363 391 1709 391 
Q 2188 391 2477 730 
Q 2766 1069 2766 1631 
L 2766 1759 
L 2194 1759 
z
M 3341 1997 
L 3341 0 
L 2766 0 
L 2766 531 
Q 2569 213 2275 61 
Q 1981 -91 1556 -91 
Q 1019 -91 701 211 
Q 384 513 384 1019 
Q 384 1609 779 1909 
Q 1175 2209 1959 2209 
L 2766 2209 
L 2766 2266 
Q 2766 2663 2505 2880 
Q 2244 3097 1772 3097 
Q 1472 3097 1187 3025 
Q 903 2953 641 2809 
L 641 3341 
Q 956 3463 1253 3523 
Q 1550 3584 1831 3584 
Q 2591 3584 2966 3190 
Q 3341 2797 3341 1997 
z
" transform="scale(0.015625)"/>
       <path id="DejaVuSans-28" d="M 1984 4856 
Q 1566 4138 1362 3434 
Q 1159 2731 1159 2009 
Q 1159 1288 1364 580 
Q 1569 -128 1984 -844 
L 1484 -844 
Q 1016 -109 783 600 
Q 550 1309 550 2009 
Q 550 2706 781 3412 
Q 1013 4119 1484 4856 
L 1984 4856 
z
" transform="scale(0.015625)"/>
       <path id="DejaVuSans-6d" d="M 3328 2828 
Q 3544 3216 3844 3400 
Q 4144 3584 4550 3584 
Q 5097 3584 5394 3201 
Q 5691 2819 5691 2113 
L 5691 0 
L 5113 0 
L 5113 2094 
Q 5113 2597 4934 2840 
Q 4756 3084 4391 3084 
Q 3944 3084 3684 2787 
Q 3425 2491 3425 1978 
L 3425 0 
L 2847 0 
L 2847 2094 
Q 2847 2600 2669 2842 
Q 2491 3084 2119 3084 
Q 1678 3084 1418 2786 
Q 1159 2488 1159 1978 
L 1159 0 
L 581 0 
L 581 3500 
L 1159 3500 
L 1159 2956 
Q 1356 3278 1631 3431 
Q 1906 3584 2284 3584 
Q 2666 3584 2933 3390 
Q 3200 3197 3328 2828 
z
" transform="scale(0.015625)"/>
       <path id="DejaVuSans-74" d="M 1172 4494 
L 1172 3500 
L 2356 3500 
L 2356 3053 
L 1172 3053 
L 1172 1153 
Q 1172 725 1289 603 
Q 1406 481 1766 481 
L 2356 481 
L 2356 0 
L 1766 0 
Q 1100 0 847 248 
Q 594 497 594 1153 
L 594 3053 
L 172 3053 
L 172 3500 
L 594 3500 
L 594 4494 
L 1172 4494 
z
" transform="scale(0.015625)"/>
       <path id="DejaVuSans-29" d="M 513 4856 
L 1013 4856 
Q 1481 4119 1714 3412 
Q 1947 2706 1947 2009 
Q 1947 1309 1714 600 
Q 1481 -109 1013 -844 
L 513 -844 
Q 928 -128 1133 580 
Q 1338 1288 1338 2009 
Q 1338 2731 1133 3434 
Q 928 4138 513 4856 
z
" transform="scale(0.015625)"/>
      </defs>
      <use xlink:href="#DejaVuSans-49"/>
      <use xlink:href="#DejaVuSans-6e" x="29.492188"/>
      <use xlink:href="#DejaVuSans-66" x="92.871094"/>
      <use xlink:href="#DejaVuSans-6c" x="128.076172"/>
      <use xlink:href="#DejaVuSans-75" x="155.859375"/>
      <use xlink:href="#DejaVuSans-65" x="219.238281"/>
      <use xlink:href="#DejaVuSans-6e" x="280.761719"/>
      <use xlink:href="#DejaVuSans-63" x="344.140625"/>
      <use xlink:href="#DejaVuSans-65" x="399.121094"/>
      <use xlink:href="#DejaVuSans-20" x="460.644531"/>
      <use xlink:href="#DejaVuSans-6f" x="492.431641"/>
      <use xlink:href="#DejaVuSans-66" x="553.613281"/>
      <use xlink:href="#DejaVuSans-20" x="588.818359"/>
      <use xlink:href="#DejaVuSans-73" x="620.605469"/>
      <use xlink:href="#DejaVuSans-75" x="672.705078"/>
      <use xlink:href="#DejaVuSans-72" x="736.083984"/>
      <use xlink:href="#DejaVuSans-70" x="777.197266"/>
      <use xlink:href="#DejaVuSans-72" x="840.673828"/>
      <use xlink:href="#DejaVuSans-69" x="881.787109"/>
      <use xlink:href="#DejaVuSans-73" x="909.570312"/>
      <use xlink:href="#DejaVuSans-61" x="961.669922"/>
      <use xlink:href="#DejaVuSans-6c" x="1022.949219"/>
      <use xlink:href="#DejaVuSans-20" x="1050.732422"/>
      <use xlink:href="#DejaVuSans-28" x="1082.519531"/>
      <use xlink:href="#DejaVuSans-6d" x="1121.533203"/>
      <use xlink:href="#DejaVuSans-75" x="1218.945312"/>
      <use xlink:href="#DejaVuSans-6c" x="1282.324219"/>
      <use xlink:href="#DejaVuSans-74" x="1310.107422"/>
      <use xlink:href="#DejaVuSans-69" x="1349.316406"/>
      <use xlink:href="#DejaVuSans-70" x="1377.099609"/>
      <use xlink:href="#DejaVuSans-6c" x="1440.576172"/>
      <use xlink:href="#DejaVuSans-69" x="1468.359375"/>
      <use xlink:href="#DejaVuSans-63" x="1496.142578"/>
      <use xlink:href="#DejaVuSans-61" x="1551.123047"/>
      <use xlink:href="#DejaVuSans-74" x="1612.402344"/>
      <use xlink:href="#DejaVuSans-69" x="1651.611328"/>
      <use xlink:href="#DejaVuSans-6f" x="1679.394531"/>
      <use xlink:href="#DejaVuSans-6e" x="1740.576172"/>
      <use xlink:href="#DejaVuSans-29" x="1803.955078"/>
     </g>
    </g>
   </g>
   <g id="matplotlib.axis_2">
    <g id="ytick_1">
     <g id="line2d_6">
      <defs>
       <path id="m027efea26d" d="M 0 0 
L -3.5 0 
" style="stroke: #000000; stroke-width: 0.8"/>
      </defs>
      <g>
       <use xlink:href="#m027efea26d" x="47.72" y="138.925447" style="stroke: #000000; stroke-width: 0.8"/>
      </g>
     </g>
     <g id="text_7">
      <!-- 0.4 -->
      <g transform="translate(24.816875 142.724666)scale(0.1 -0.1)">
       <defs>
        <path id="DejaVuSans-34" d="M 2419 4116 
L 825 1625 
L 2419 1625 
L 2419 4116 
z
M 2253 4666 
L 3047 4666 
L 3047 1625 
L 3713 1625 
L 3713 1100 
L 3047 1100 
L 3047 0 
L 2419 0 
L 2419 1100 
L 313 1100 
L 313 1709 
L 2253 4666 
z
" transform="scale(0.015625)"/>
       </defs>
       <use xlink:href="#DejaVuSans-30"/>
       <use xlink:href="#DejaVuSans-2e" x="63.623047"/>
       <use xlink:href="#DejaVuSans-34" x="95.410156"/>
      </g>
     </g>
    </g>
    <g id="ytick_2">
     <g id="line2d_7">
      <g>
       <use xlink:href="#m027efea26d" x="47.72" y="100.525789" style="stroke: #000000; stroke-width: 0.8"/>
      </g>
     </g>
     <g id="text_8">
      <!-- 0.6 -->
      <g transform="translate(24.816875 104.325008)scale(0.1 -0.1)">
       <defs>
        <path id="DejaVuSans-36" d="M 2113 2584 
Q 1688 2584 1439 2293 
Q 1191 2003 1191 1497 
Q 1191 994 1439 701 
Q 1688 409 2113 409 
Q 2538 409 2786 701 
Q 3034 994 3034 1497 
Q 3034 2003 2786 2293 
Q 2538 2584 2113 2584 
z
M 3366 4563 
L 3366 3988 
Q 3128 4100 2886 4159 
Q 2644 4219 2406 4219 
Q 1781 4219 1451 3797 
Q 1122 3375 1075 2522 
Q 1259 2794 1537 2939 
Q 1816 3084 2150 3084 
Q 2853 3084 3261 2657 
Q 3669 2231 3669 1497 
Q 3669 778 3244 343 
Q 2819 -91 2113 -91 
Q 1303 -91 875 529 
Q 447 1150 447 2328 
Q 447 3434 972 4092 
Q 1497 4750 2381 4750 
Q 2619 4750 2861 4703 
Q 3103 4656 3366 4563 
z
" transform="scale(0.015625)"/>
       </defs>
       <use xlink:href="#DejaVuSans-30"/>
       <use xlink:href="#DejaVuSans-2e" x="63.623047"/>
       <use xlink:href="#DejaVuSans-36" x="95.410156"/>
      </g>
     </g>
    </g>
    <g id="ytick_3">
     <g id="line2d_8">
      <g>
       <use xlink:href="#m027efea26d" x="47.72" y="62.126132" style="stroke: #000000; stroke-width: 0.8"/>
      </g>
     </g>
     <g id="text_9">
      <!-- 0.8 -->
      <g transform="translate(24.816875 65.92535)scale(0.1 -0.1)">
       <defs>
        <path id="DejaVuSans-38" d="M 2034 2216 
Q 1584 2216 1326 1975 
Q 1069 1734 1069 1313 
Q 1069 891 1326 650 
Q 1584 409 2034 409 
Q 2484 409 2743 651 
Q 3003 894 3003 1313 
Q 3003 1734 2745 1975 
Q 2488 2216 2034 2216 
z
M 1403 2484 
Q 997 2584 770 2862 
Q 544 3141 544 3541 
Q 544 4100 942 4425 
Q 1341 4750 2034 4750 
Q 2731 4750 3128 4425 
Q 3525 4100 3525 3541 
Q 3525 3141 3298 2862 
Q 3072 2584 2669 2484 
Q 3125 2378 3379 2068 
Q 3634 1759 3634 1313 
Q 3634 634 3220 271 
Q 2806 -91 2034 -91 
Q 1263 -91 848 271 
Q 434 634 434 1313 
Q 434 1759 690 2068 
Q 947 2378 1403 2484 
z
M 1172 3481 
Q 1172 3119 1398 2916 
Q 1625 2713 2034 2713 
Q 2441 2713 2670 2916 
Q 2900 3119 2900 3481 
Q 2900 3844 2670 4047 
Q 2441 4250 2034 4250 
Q 1625 4250 1398 4047 
Q 1172 3844 1172 3481 
z
" transform="scale(0.015625)"/>
       </defs>
       <use xlink:href="#DejaVuSans-30"/>
       <use xlink:href="#DejaVuSans-2e" x="63.623047"/>
       <use xlink:href="#DejaVuSans-38" x="95.410156"/>
      </g>
     </g>
    </g>
    <g id="text_10">
     <!-- R-value -->
     <g transform="translate(18.737188 119.064687)rotate(-90)scale(0.1 -0.1)">
      <defs>
       <path id="DejaVuSans-52" d="M 2841 2188 
Q 3044 2119 3236 1894 
Q 3428 1669 3622 1275 
L 4263 0 
L 3584 0 
L 2988 1197 
Q 2756 1666 2539 1819 
Q 2322 1972 1947 1972 
L 1259 1972 
L 1259 0 
L 628 0 
L 628 4666 
L 2053 4666 
Q 2853 4666 3247 4331 
Q 3641 3997 3641 3322 
Q 3641 2881 3436 2590 
Q 3231 2300 2841 2188 
z
M 1259 4147 
L 1259 2491 
L 2053 2491 
Q 2509 2491 2742 2702 
Q 2975 2913 2975 3322 
Q 2975 3731 2742 3939 
Q 2509 4147 2053 4147 
L 1259 4147 
z
" transform="scale(0.015625)"/>
       <path id="DejaVuSans-2d" d="M 313 2009 
L 1997 2009 
L 1997 1497 
L 313 1497 
L 313 2009 
z
" transform="scale(0.015625)"/>
       <path id="DejaVuSans-76" d="M 191 3500 
L 800 3500 
L 1894 563 
L 2988 3500 
L 3597 3500 
L 2284 0 
L 1503 0 
L 191 3500 
z
" transform="scale(0.015625)"/>
      </defs>
      <use xlink:href="#DejaVuSans-52"/>
      <use xlink:href="#DejaVuSans-2d" x="65.482422"/>
      <use xlink:href="#DejaVuSans-76" x="98.941406"/>
      <use xlink:href="#DejaVuSans-61" x="158.121094"/>
      <use xlink:href="#DejaVuSans-6c" x="219.400391"/>
      <use xlink:href="#DejaVuSans-75" x="247.183594"/>
      <use xlink:href="#DejaVuSans-65" x="310.5625"/>
     </g>
    </g>
   </g>
   <g id="line2d_9">
    <path d="M 47.72 34.014686 
L 59.167105 35.322221 
L 70.614211 38.337727 
L 82.061316 42.361283 
L 93.508421 47.806471 
L 104.955526 54.347477 
L 116.402632 61.453663 
L 127.849737 68.863883 
L 139.296842 76.823525 
L 150.743947 84.172737 
L 162.191053 91.771033 
L 173.638158 99.192728 
L 185.085263 106.32545 
L 196.532368 112.990646 
L 207.979474 118.636054 
L 219.426579 125.048005 
L 230.873684 130.256428 
L 242.320789 135.599702 
L 253.767895 140.31749 
L 265.215 144.895475 
" clip-path="url(#pdfbdf5474c)" style="fill: none; stroke: #1f77b4; stroke-width: 1.5; stroke-linecap: square"/>
   </g>
   <g id="line2d_10">
    <path d="M 47.72 34.033488 
L 59.167105 34.945564 
L 70.614211 36.487443 
L 82.061316 38.727336 
L 93.508421 41.927557 
L 104.955526 46.104787 
L 116.402632 50.894429 
L 127.849737 56.380014 
L 139.296842 62.322412 
L 150.743947 68.491645 
L 162.191053 75.229277 
L 173.638158 82.283712 
L 185.085263 88.92004 
L 196.532368 95.662815 
L 207.979474 101.522243 
L 219.426579 108.012949 
L 230.873684 113.395974 
L 242.320789 118.767401 
L 253.767895 123.714554 
L 265.215 128.379395 
" clip-path="url(#pdfbdf5474c)" style="fill: none; stroke: #ff7f0e; stroke-width: 1.5; stroke-linecap: square"/>
   </g>
   <g id="line2d_11">
    <path d="M 47.72 34.032964 
L 59.167105 35.087844 
L 70.614211 36.519308 
L 82.061316 38.187996 
L 93.508421 40.64873 
L 104.955526 43.469787 
L 116.402632 46.600752 
L 127.849737 49.986542 
L 139.296842 53.45286 
L 150.743947 56.90642 
L 162.191053 60.884803 
L 173.638158 64.748595 
L 185.085263 68.217801 
L 196.532368 71.834302 
L 207.979474 75.42081 
L 219.426579 79.107672 
L 230.873684 82.340617 
L 242.320789 85.686769 
L 253.767895 88.80397 
L 265.215 91.934175 
" clip-path="url(#pdfbdf5474c)" style="fill: none; stroke: #2ca02c; stroke-width: 1.5; stroke-linecap: square"/>
   </g>
   <g id="line2d_12">
    <path d="M 47.72 34.046865 
L 59.167105 34.923974 
L 70.614211 35.944146 
L 82.061316 37.197134 
L 93.508421 39.117884 
L 104.955526 41.469159 
L 116.402632 44.186575 
L 127.849737 47.332845 
L 139.296842 50.528428 
L 150.743947 53.990794 
L 162.191053 57.996443 
L 173.638158 62.107923 
L 185.085263 65.700204 
L 196.532368 69.515862 
L 207.979474 73.177453 
L 219.426579 76.99729 
L 230.873684 80.467619 
L 242.320789 83.976838 
L 253.767895 87.233301 
L 265.215 90.470925 
" clip-path="url(#pdfbdf5474c)" style="fill: none; stroke: #d62728; stroke-width: 1.5; stroke-linecap: square"/>
   </g>
   <g id="line2d_13">
    <path d="M 47.72 34.030395 
L 59.167105 35.334675 
L 70.614211 38.350588 
L 82.061316 42.392433 
L 93.508421 47.873464 
L 104.955526 54.380312 
L 116.402632 61.566812 
L 127.849737 68.923065 
L 139.296842 76.864431 
L 150.743947 84.201268 
L 162.191053 91.857909 
L 173.638158 99.202208 
L 185.085263 106.377086 
L 196.532368 113.061528 
L 207.979474 119.224433 
L 219.426579 125.244692 
L 230.873684 130.55343 
L 242.320789 136.33989 
L 253.767895 140.177707 
L 265.215 145.378076 
" clip-path="url(#pdfbdf5474c)" style="fill: none; stroke: #9467bd; stroke-width: 1.5; stroke-linecap: square"/>
   </g>
   <g id="line2d_14">
    <path d="M 47.72 34.049949 
L 59.167105 34.958892 
L 70.614211 36.502086 
L 82.061316 38.747027 
L 93.508421 41.962779 
L 104.955526 46.139322 
L 116.402632 50.995717 
L 127.849737 56.417253 
L 139.296842 62.323528 
L 150.743947 68.544838 
L 162.191053 75.27924 
L 173.638158 82.372165 
L 185.085263 88.937749 
L 196.532368 95.747978 
L 207.979474 101.923411 
L 219.426579 108.164669 
L 230.873684 113.557489 
L 242.320789 119.282549 
L 253.767895 123.683906 
L 265.215 128.704965 
" clip-path="url(#pdfbdf5474c)" style="fill: none; stroke: #8c564b; stroke-width: 1.5; stroke-linecap: square"/>
   </g>
   <g id="line2d_15">
    <path d="M 47.72 49.385575 
L 59.167105 51.09421 
L 70.614211 54.816695 
L 82.061316 59.895687 
L 93.508421 66.396739 
L 104.955526 73.978843 
L 116.402632 81.921649 
L 127.849737 90.19016 
L 139.296842 98.768427 
L 150.743947 106.732201 
L 162.191053 114.81003 
L 173.638158 122.353983 
L 185.085263 129.410527 
L 196.532368 135.642286 
L 207.979474 141.070591 
L 219.426579 146.724085 
L 230.873684 151.207297 
L 242.320789 155.482119 
L 253.767895 159.232095 
L 265.215 162.731789 
" clip-path="url(#pdfbdf5474c)" style="fill: none; stroke: #e377c2; stroke-width: 1.5; stroke-linecap: square"/>
   </g>
   <g id="line2d_16">
    <path d="M 47.72 34.051014 
L 59.167105 34.6036 
L 70.614211 34.873478 
L 82.061316 35.391393 
L 93.508421 36.773476 
L 104.955526 38.716658 
L 116.402632 41.570051 
L 127.849737 45.251759 
L 139.296842 49.566622 
L 150.743947 54.619299 
L 162.191053 60.544679 
L 173.638158 66.845835 
L 185.085263 73.04825 
L 196.532368 79.700686 
L 207.979474 85.843357 
L 219.426579 92.375989 
L 230.873684 98.303366 
L 242.320789 104.08903 
L 253.767895 109.620686 
L 265.215 114.691632 
" clip-path="url(#pdfbdf5474c)" style="fill: none; stroke: #7f7f7f; stroke-width: 1.5; stroke-linecap: square"/>
   </g>
   <g id="patch_3">
    <path d="M 47.72 174.04 
L 47.72 26.88 
" style="fill: none; stroke: #000000; stroke-width: 0.8; stroke-linejoin: miter; stroke-linecap: square"/>
   </g>
   <g id="patch_4">
    <path d="M 47.72 174.04 
L 265.215 174.04 
" style="fill: none; stroke: #000000; stroke-width: 0.8; stroke-linejoin: miter; stroke-linecap: square"/>
   </g>
   <g id="text_11">
    <!-- Node * surprisal -->
    <g transform="translate(108.18625 20.88)scale(0.12 -0.12)">
     <defs>
      <path id="DejaVuSans-4e" d="M 628 4666 
L 1478 4666 
L 3547 763 
L 3547 4666 
L 4159 4666 
L 4159 0 
L 3309 0 
L 1241 3903 
L 1241 0 
L 628 0 
L 628 4666 
z
" transform="scale(0.015625)"/>
      <path id="DejaVuSans-64" d="M 2906 2969 
L 2906 4863 
L 3481 4863 
L 3481 0 
L 2906 0 
L 2906 525 
Q 2725 213 2448 61 
Q 2172 -91 1784 -91 
Q 1150 -91 751 415 
Q 353 922 353 1747 
Q 353 2572 751 3078 
Q 1150 3584 1784 3584 
Q 2172 3584 2448 3432 
Q 2725 3281 2906 2969 
z
M 947 1747 
Q 947 1113 1208 752 
Q 1469 391 1925 391 
Q 2381 391 2643 752 
Q 2906 1113 2906 1747 
Q 2906 2381 2643 2742 
Q 2381 3103 1925 3103 
Q 1469 3103 1208 2742 
Q 947 2381 947 1747 
z
" transform="scale(0.015625)"/>
      <path id="DejaVuSans-2a" d="M 3009 3897 
L 1888 3291 
L 3009 2681 
L 2828 2375 
L 1778 3009 
L 1778 1831 
L 1422 1831 
L 1422 3009 
L 372 2375 
L 191 2681 
L 1313 3291 
L 191 3897 
L 372 4206 
L 1422 3572 
L 1422 4750 
L 1778 4750 
L 1778 3572 
L 2828 4206 
L 3009 3897 
z
" transform="scale(0.015625)"/>
     </defs>
     <use xlink:href="#DejaVuSans-4e"/>
     <use xlink:href="#DejaVuSans-6f" x="74.804688"/>
     <use xlink:href="#DejaVuSans-64" x="135.986328"/>
     <use xlink:href="#DejaVuSans-65" x="199.462891"/>
     <use xlink:href="#DejaVuSans-20" x="260.986328"/>
     <use xlink:href="#DejaVuSans-2a" x="292.773438"/>
     <use xlink:href="#DejaVuSans-20" x="342.773438"/>
     <use xlink:href="#DejaVuSans-73" x="374.560547"/>
     <use xlink:href="#DejaVuSans-75" x="426.660156"/>
     <use xlink:href="#DejaVuSans-72" x="490.039062"/>
     <use xlink:href="#DejaVuSans-70" x="531.152344"/>
     <use xlink:href="#DejaVuSans-72" x="594.628906"/>
     <use xlink:href="#DejaVuSans-69" x="635.742188"/>
     <use xlink:href="#DejaVuSans-73" x="663.525391"/>
     <use xlink:href="#DejaVuSans-61" x="715.625"/>
     <use xlink:href="#DejaVuSans-6c" x="776.904297"/>
    </g>
   </g>
  </g>
  <g id="axes_2">
   <g id="patch_5">
    <path d="M 298.065 174.04 
L 515.56 174.04 
L 515.56 26.88 
L 298.065 26.88 
z
" style="fill: #ffffff"/>
   </g>
   <g id="PolyCollection_9">
    <path d="M 298.065 33.76826 
L 298.065 34.73995 
L 309.512105 35.470409 
L 320.959211 38.222349 
L 332.406316 42.321946 
L 343.853421 47.98996 
L 355.300526 54.628556 
L 366.747632 62.070633 
L 378.194737 70.322885 
L 389.641842 78.932509 
L 401.088947 87.012746 
L 412.536053 95.754098 
L 423.983158 103.638614 
L 435.430263 111.416272 
L 446.877368 118.609307 
L 458.324474 125.557936 
L 469.771579 131.910704 
L 481.218684 137.370939 
L 492.665789 143.418832 
L 504.112895 147.951447 
L 515.56 153.145663 
L 515.56 131.419594 
L 515.56 131.419594 
L 504.112895 126.166497 
L 492.665789 120.54225 
L 481.218684 115.920338 
L 469.771579 109.825623 
L 458.324474 103.844596 
L 446.877368 97.624916 
L 435.430263 91.227016 
L 423.983158 85.3516 
L 412.536053 78.229052 
L 401.088947 71.512969 
L 389.641842 65.223867 
L 378.194737 58.975182 
L 366.747632 53.228648 
L 355.300526 47.796514 
L 343.853421 43.310143 
L 332.406316 39.754973 
L 320.959211 36.777176 
L 309.512105 34.674412 
L 298.065 33.76826 
z
" clip-path="url(#pa55fd27c88)" style="fill: #1f77b4; fill-opacity: 0.4"/>
   </g>
   <g id="PolyCollection_10">
    <path d="M 298.065 33.790394 
L 298.065 34.74915 
L 309.512105 35.483536 
L 320.959211 38.242618 
L 332.406316 42.375154 
L 343.853421 48.080679 
L 355.300526 54.74205 
L 366.747632 62.227979 
L 378.194737 70.542616 
L 389.641842 79.168839 
L 401.088947 87.32724 
L 412.536053 96.11022 
L 423.983158 104.025179 
L 435.430263 111.865684 
L 446.877368 119.066387 
L 458.324474 126.03657 
L 469.771579 132.409928 
L 481.218684 137.822063 
L 492.665789 143.83811 
L 504.112895 148.438215 
L 515.56 153.607016 
L 515.56 131.978417 
L 515.56 131.978417 
L 504.112895 126.630886 
L 492.665789 120.934062 
L 481.218684 116.235625 
L 469.771579 110.035634 
L 458.324474 104.017302 
L 446.877368 97.743873 
L 435.430263 91.304905 
L 423.983158 85.418938 
L 412.536053 78.250205 
L 401.088947 71.530901 
L 389.641842 65.224387 
L 378.194737 58.977239 
L 366.747632 53.237887 
L 355.300526 47.79688 
L 343.853421 43.299701 
L 332.406316 39.774824 
L 320.959211 36.811068 
L 309.512105 34.677888 
L 298.065 33.790394 
z
" clip-path="url(#pa55fd27c88)" style="fill: #ff7f0e; fill-opacity: 0.4"/>
   </g>
   <g id="PolyCollection_11">
    <path d="M 298.065 33.797949 
L 298.065 34.749854 
L 309.512105 35.482762 
L 320.959211 38.236928 
L 332.406316 42.356768 
L 343.853421 48.03421 
L 355.300526 54.662914 
L 366.747632 62.108205 
L 378.194737 70.403764 
L 389.641842 78.98775 
L 401.088947 87.04455 
L 412.536053 95.798653 
L 423.983158 103.689359 
L 435.430263 111.496047 
L 446.877368 118.686594 
L 458.324474 125.698519 
L 469.771579 132.053882 
L 481.218684 137.549981 
L 492.665789 143.628911 
L 504.112895 148.241899 
L 515.56 153.521677 
L 515.56 132.085042 
L 515.56 132.085042 
L 504.112895 126.799174 
L 492.665789 121.066279 
L 481.218684 116.452213 
L 469.771579 110.166844 
L 458.324474 104.123344 
L 446.877368 97.910956 
L 435.430263 91.395557 
L 423.983158 85.513489 
L 412.536053 78.356635 
L 401.088947 71.620357 
L 389.641842 65.321493 
L 378.194737 59.014182 
L 366.747632 53.288986 
L 355.300526 47.833132 
L 343.853421 43.316498 
L 332.406316 39.789101 
L 320.959211 36.806368 
L 309.512105 34.686765 
L 298.065 33.797949 
z
" clip-path="url(#pa55fd27c88)" style="fill: #2ca02c; fill-opacity: 0.4"/>
   </g>
   <g id="PolyCollection_12">
    <path d="M 298.065 33.814661 
L 298.065 34.764929 
L 309.512105 35.501898 
L 320.959211 38.263384 
L 332.406316 42.395402 
L 343.853421 48.106676 
L 355.300526 54.762593 
L 366.747632 62.256526 
L 378.194737 70.581376 
L 389.641842 79.210613 
L 401.088947 87.333795 
L 412.536053 96.114602 
L 423.983158 104.054095 
L 435.430263 111.867559 
L 446.877368 119.086403 
L 458.324474 126.055744 
L 469.771579 132.420124 
L 481.218684 137.888172 
L 492.665789 143.873805 
L 504.112895 148.537562 
L 515.56 153.827418 
L 515.56 132.682552 
L 515.56 132.682552 
L 504.112895 127.400155 
L 492.665789 121.598423 
L 481.218684 116.850205 
L 469.771579 110.535405 
L 458.324474 104.427743 
L 446.877368 98.100547 
L 435.430263 91.531986 
L 423.983158 85.612943 
L 412.536053 78.442088 
L 401.088947 71.668563 
L 389.641842 65.336926 
L 378.194737 59.04707 
L 366.747632 53.301967 
L 355.300526 47.851888 
L 343.853421 43.331822 
L 332.406316 39.803653 
L 320.959211 36.829466 
L 309.512105 34.685588 
L 298.065 33.814661 
z
" clip-path="url(#pa55fd27c88)" style="fill: #d62728; fill-opacity: 0.4"/>
   </g>
   <g id="PolyCollection_13">
    <path d="M 298.065 33.781367 
L 298.065 34.750243 
L 309.512105 35.503172 
L 320.959211 38.245681 
L 332.406316 42.306098 
L 343.853421 48.01692 
L 355.300526 54.64889 
L 366.747632 62.263367 
L 378.194737 70.435366 
L 389.641842 78.85461 
L 401.088947 87.415222 
L 412.536053 95.751184 
L 423.983158 104.217793 
L 435.430263 111.790802 
L 446.877368 118.896187 
L 458.324474 125.679587 
L 469.771579 132.078792 
L 481.218684 138.133082 
L 492.665789 143.259559 
L 504.112895 148.376862 
L 515.56 153.367337 
L 515.56 131.440966 
L 515.56 131.440966 
L 504.112895 126.097896 
L 492.665789 121.598626 
L 481.218684 115.53656 
L 469.771579 110.312367 
L 458.324474 104.020498 
L 446.877368 97.836714 
L 435.430263 91.242244 
L 423.983158 85.41968 
L 412.536053 78.422126 
L 401.088947 71.461243 
L 389.641842 65.139471 
L 378.194737 59.078877 
L 366.747632 53.32701 
L 355.300526 47.775518 
L 343.853421 43.344694 
L 332.406316 39.78894 
L 320.959211 36.798412 
L 309.512105 34.687296 
L 298.065 33.781367 
z
" clip-path="url(#pa55fd27c88)" style="fill: #9467bd; fill-opacity: 0.4"/>
   </g>
   <g id="PolyCollection_14">
    <path d="M 298.065 33.804948 
L 298.065 34.760058 
L 309.512105 35.516768 
L 320.959211 38.264583 
L 332.406316 42.359506 
L 343.853421 48.107552 
L 355.300526 54.763202 
L 366.747632 62.424023 
L 378.194737 70.653201 
L 389.641842 79.099363 
L 401.088947 87.70789 
L 412.536053 96.120831 
L 423.983158 104.572807 
L 435.430263 112.247502 
L 446.877368 119.350592 
L 458.324474 126.164508 
L 469.771579 132.566006 
L 481.218684 138.564845 
L 492.665789 143.693776 
L 504.112895 148.88317 
L 515.56 153.804412 
L 515.56 131.985653 
L 515.56 131.985653 
L 504.112895 126.554162 
L 492.665789 121.972763 
L 481.218684 115.891241 
L 469.771579 110.525273 
L 458.324474 104.199694 
L 446.877368 97.980567 
L 435.430263 91.315424 
L 423.983158 85.510847 
L 412.536053 78.448505 
L 401.088947 71.490777 
L 389.641842 65.144179 
L 378.194737 59.089587 
L 366.747632 53.336493 
L 355.300526 47.77946 
L 343.853421 43.335841 
L 332.406316 39.808702 
L 320.959211 36.832671 
L 309.512105 34.691831 
L 298.065 33.804948 
z
" clip-path="url(#pa55fd27c88)" style="fill: #8c564b; fill-opacity: 0.4"/>
   </g>
   <g id="PolyCollection_15">
    <path d="M 298.065 47.317285 
L 298.065 51.913294 
L 309.512105 52.658511 
L 320.959211 54.956658 
L 332.406316 58.784973 
L 343.853421 63.64065 
L 355.300526 69.416306 
L 366.747632 76.170129 
L 378.194737 83.707832 
L 389.641842 91.472912 
L 401.088947 98.916365 
L 412.536053 106.917636 
L 423.983158 114.312134 
L 435.430263 121.478994 
L 446.877368 127.890103 
L 458.324474 134.586866 
L 469.771579 140.338233 
L 481.218684 145.113358 
L 492.665789 151.004998 
L 504.112895 155.129172 
L 515.56 159.713273 
L 515.56 138.2008 
L 515.56 138.2008 
L 504.112895 133.330496 
L 492.665789 128.220486 
L 481.218684 123.953721 
L 469.771579 118.274398 
L 458.324474 112.657845 
L 446.877368 107.075591 
L 435.430263 100.935672 
L 423.983158 95.80702 
L 412.536053 89.133185 
L 401.088947 82.9538 
L 389.641842 77.176522 
L 378.194737 71.232807 
L 366.747632 66.012131 
L 355.300526 60.962968 
L 343.853421 56.496592 
L 332.406316 52.723746 
L 320.959211 50.096533 
L 309.512105 48.043872 
L 298.065 47.317285 
z
" clip-path="url(#pa55fd27c88)" style="fill: #e377c2; fill-opacity: 0.4"/>
   </g>
   <g id="PolyCollection_16">
    <path d="M 298.065 33.8082 
L 298.065 34.754816 
L 309.512105 35.498915 
L 320.959211 38.261877 
L 332.406316 42.396934 
L 343.853421 48.084415 
L 355.300526 54.797459 
L 366.747632 62.267952 
L 378.194737 70.578271 
L 389.641842 79.261561 
L 401.088947 87.375898 
L 412.536053 96.159494 
L 423.983158 104.104215 
L 435.430263 111.917085 
L 446.877368 119.239695 
L 458.324474 126.272647 
L 469.771579 132.663669 
L 481.218684 138.107137 
L 492.665789 144.233439 
L 504.112895 148.879987 
L 515.56 154.184685 
L 515.56 132.580923 
L 515.56 132.580923 
L 504.112895 127.19675 
L 492.665789 121.420597 
L 481.218684 116.633646 
L 469.771579 110.379784 
L 458.324474 104.301008 
L 446.877368 98.002164 
L 435.430263 91.519594 
L 423.983158 85.580714 
L 412.536053 78.424616 
L 401.088947 71.687229 
L 389.641842 65.355084 
L 378.194737 59.07521 
L 366.747632 53.326292 
L 355.300526 47.879825 
L 343.853421 43.346828 
L 332.406316 39.805651 
L 320.959211 36.838382 
L 309.512105 34.687846 
L 298.065 33.8082 
z
" clip-path="url(#pa55fd27c88)" style="fill: #7f7f7f; fill-opacity: 0.4"/>
   </g>
   <g id="matplotlib.axis_3">
    <g id="xtick_6">
     <g id="line2d_17">
      <g>
       <use xlink:href="#m4978ec9d78" x="298.065" y="174.04" style="stroke: #000000; stroke-width: 0.8"/>
      </g>
     </g>
     <g id="text_12">
      <!-- 0.0 -->
      <g transform="translate(290.113437 188.638438)scale(0.1 -0.1)">
       <use xlink:href="#DejaVuSans-30"/>
       <use xlink:href="#DejaVuSans-2e" x="63.623047"/>
       <use xlink:href="#DejaVuSans-30" x="95.410156"/>
      </g>
     </g>
    </g>
    <g id="xtick_7">
     <g id="line2d_18">
      <g>
       <use xlink:href="#m4978ec9d78" x="352.43875" y="174.04" style="stroke: #000000; stroke-width: 0.8"/>
      </g>
     </g>
     <g id="text_13">
      <!-- 0.5 -->
      <g transform="translate(344.487187 188.638438)scale(0.1 -0.1)">
       <use xlink:href="#DejaVuSans-30"/>
       <use xlink:href="#DejaVuSans-2e" x="63.623047"/>
       <use xlink:href="#DejaVuSans-35" x="95.410156"/>
      </g>
     </g>
    </g>
    <g id="xtick_8">
     <g id="line2d_19">
      <g>
       <use xlink:href="#m4978ec9d78" x="406.8125" y="174.04" style="stroke: #000000; stroke-width: 0.8"/>
      </g>
     </g>
     <g id="text_14">
      <!-- 1.0 -->
      <g transform="translate(398.860937 188.638438)scale(0.1 -0.1)">
       <use xlink:href="#DejaVuSans-31"/>
       <use xlink:href="#DejaVuSans-2e" x="63.623047"/>
       <use xlink:href="#DejaVuSans-30" x="95.410156"/>
      </g>
     </g>
    </g>
    <g id="xtick_9">
     <g id="line2d_20">
      <g>
       <use xlink:href="#m4978ec9d78" x="461.18625" y="174.04" style="stroke: #000000; stroke-width: 0.8"/>
      </g>
     </g>
     <g id="text_15">
      <!-- 1.5 -->
      <g transform="translate(453.234687 188.638438)scale(0.1 -0.1)">
       <use xlink:href="#DejaVuSans-31"/>
       <use xlink:href="#DejaVuSans-2e" x="63.623047"/>
       <use xlink:href="#DejaVuSans-35" x="95.410156"/>
      </g>
     </g>
    </g>
    <g id="xtick_10">
     <g id="line2d_21">
      <g>
       <use xlink:href="#m4978ec9d78" x="515.56" y="174.04" style="stroke: #000000; stroke-width: 0.8"/>
      </g>
     </g>
     <g id="text_16">
      <!-- 2.0 -->
      <g transform="translate(507.608437 188.638438)scale(0.1 -0.1)">
       <use xlink:href="#DejaVuSans-32"/>
       <use xlink:href="#DejaVuSans-2e" x="63.623047"/>
       <use xlink:href="#DejaVuSans-30" x="95.410156"/>
      </g>
     </g>
    </g>
    <g id="text_17">
     <!-- Influence of surprisal (multiplication) -->
     <g transform="translate(314.665625 202.316563)scale(0.1 -0.1)">
      <use xlink:href="#DejaVuSans-49"/>
      <use xlink:href="#DejaVuSans-6e" x="29.492188"/>
      <use xlink:href="#DejaVuSans-66" x="92.871094"/>
      <use xlink:href="#DejaVuSans-6c" x="128.076172"/>
      <use xlink:href="#DejaVuSans-75" x="155.859375"/>
      <use xlink:href="#DejaVuSans-65" x="219.238281"/>
      <use xlink:href="#DejaVuSans-6e" x="280.761719"/>
      <use xlink:href="#DejaVuSans-63" x="344.140625"/>
      <use xlink:href="#DejaVuSans-65" x="399.121094"/>
      <use xlink:href="#DejaVuSans-20" x="460.644531"/>
      <use xlink:href="#DejaVuSans-6f" x="492.431641"/>
      <use xlink:href="#DejaVuSans-66" x="553.613281"/>
      <use xlink:href="#DejaVuSans-20" x="588.818359"/>
      <use xlink:href="#DejaVuSans-73" x="620.605469"/>
      <use xlink:href="#DejaVuSans-75" x="672.705078"/>
      <use xlink:href="#DejaVuSans-72" x="736.083984"/>
      <use xlink:href="#DejaVuSans-70" x="777.197266"/>
      <use xlink:href="#DejaVuSans-72" x="840.673828"/>
      <use xlink:href="#DejaVuSans-69" x="881.787109"/>
      <use xlink:href="#DejaVuSans-73" x="909.570312"/>
      <use xlink:href="#DejaVuSans-61" x="961.669922"/>
      <use xlink:href="#DejaVuSans-6c" x="1022.949219"/>
      <use xlink:href="#DejaVuSans-20" x="1050.732422"/>
      <use xlink:href="#DejaVuSans-28" x="1082.519531"/>
      <use xlink:href="#DejaVuSans-6d" x="1121.533203"/>
      <use xlink:href="#DejaVuSans-75" x="1218.945312"/>
      <use xlink:href="#DejaVuSans-6c" x="1282.324219"/>
      <use xlink:href="#DejaVuSans-74" x="1310.107422"/>
      <use xlink:href="#DejaVuSans-69" x="1349.316406"/>
      <use xlink:href="#DejaVuSans-70" x="1377.099609"/>
      <use xlink:href="#DejaVuSans-6c" x="1440.576172"/>
      <use xlink:href="#DejaVuSans-69" x="1468.359375"/>
      <use xlink:href="#DejaVuSans-63" x="1496.142578"/>
      <use xlink:href="#DejaVuSans-61" x="1551.123047"/>
      <use xlink:href="#DejaVuSans-74" x="1612.402344"/>
      <use xlink:href="#DejaVuSans-69" x="1651.611328"/>
      <use xlink:href="#DejaVuSans-6f" x="1679.394531"/>
      <use xlink:href="#DejaVuSans-6e" x="1740.576172"/>
      <use xlink:href="#DejaVuSans-29" x="1803.955078"/>
     </g>
    </g>
   </g>
   <g id="line2d_22">
    <path d="M 298.065 34.254105 
L 309.512105 35.07241 
L 320.959211 37.499762 
L 332.406316 41.03846 
L 343.853421 45.650051 
L 355.300526 51.212535 
L 366.747632 57.64964 
L 378.194737 64.649033 
L 389.641842 72.078188 
L 401.088947 79.262858 
L 412.536053 86.991575 
L 423.983158 94.495107 
L 435.430263 101.321644 
L 446.877368 108.117112 
L 458.324474 114.701266 
L 469.771579 120.868163 
L 481.218684 126.645639 
L 492.665789 131.980541 
L 504.112895 137.058972 
L 515.56 142.282629 
" clip-path="url(#pa55fd27c88)" style="fill: none; stroke: #1f77b4; stroke-width: 1.5; stroke-linecap: square"/>
   </g>
   <g id="line2d_23">
    <path d="M 298.065 34.269772 
L 309.512105 35.080712 
L 320.959211 37.526843 
L 332.406316 41.074989 
L 343.853421 45.69019 
L 355.300526 51.269465 
L 366.747632 57.732933 
L 378.194737 64.759928 
L 389.641842 72.196613 
L 401.088947 79.42907 
L 412.536053 87.180213 
L 423.983158 94.722058 
L 435.430263 101.585295 
L 446.877368 108.40513 
L 458.324474 115.026936 
L 469.771579 121.222781 
L 481.218684 127.028844 
L 492.665789 132.386086 
L 504.112895 137.53455 
L 515.56 142.792716 
" clip-path="url(#pa55fd27c88)" style="fill: none; stroke: #ff7f0e; stroke-width: 1.5; stroke-linecap: square"/>
   </g>
   <g id="line2d_24">
    <path d="M 298.065 34.273902 
L 309.512105 35.084764 
L 320.959211 37.521648 
L 332.406316 41.072935 
L 343.853421 45.675354 
L 355.300526 51.248023 
L 366.747632 57.698595 
L 378.194737 64.708973 
L 389.641842 72.154621 
L 401.088947 79.332454 
L 412.536053 87.077644 
L 423.983158 94.601424 
L 435.430263 101.445802 
L 446.877368 108.298775 
L 458.324474 114.910931 
L 469.771579 121.110363 
L 481.218684 127.001097 
L 492.665789 132.347595 
L 504.112895 137.520536 
L 515.56 142.803359 
" clip-path="url(#pa55fd27c88)" style="fill: none; stroke: #2ca02c; stroke-width: 1.5; stroke-linecap: square"/>
   </g>
   <g id="line2d_25">
    <path d="M 298.065 34.289795 
L 309.512105 35.093743 
L 320.959211 37.546425 
L 332.406316 41.099528 
L 343.853421 45.719249 
L 355.300526 51.30724 
L 366.747632 57.779247 
L 378.194737 64.814223 
L 389.641842 72.27377 
L 401.088947 79.501179 
L 412.536053 87.278345 
L 423.983158 94.833519 
L 435.430263 101.699773 
L 446.877368 108.593475 
L 458.324474 115.241744 
L 469.771579 121.477764 
L 481.218684 127.369188 
L 492.665789 132.736114 
L 504.112895 137.968858 
L 515.56 143.254985 
" clip-path="url(#pa55fd27c88)" style="fill: none; stroke: #d62728; stroke-width: 1.5; stroke-linecap: square"/>
   </g>
   <g id="line2d_26">
    <path d="M 298.065 34.265805 
L 309.512105 35.095234 
L 320.959211 37.522046 
L 332.406316 41.047519 
L 343.853421 45.680807 
L 355.300526 51.212204 
L 366.747632 57.795188 
L 378.194737 64.757122 
L 389.641842 71.997041 
L 401.088947 79.438232 
L 412.536053 87.086655 
L 423.983158 94.818737 
L 435.430263 101.516523 
L 446.877368 108.36645 
L 458.324474 114.850043 
L 469.771579 121.195579 
L 481.218684 126.834821 
L 492.665789 132.429093 
L 504.112895 137.237379 
L 515.56 142.404152 
" clip-path="url(#pa55fd27c88)" style="fill: none; stroke: #9467bd; stroke-width: 1.5; stroke-linecap: square"/>
   </g>
   <g id="line2d_27">
    <path d="M 298.065 34.282503 
L 309.512105 35.104299 
L 320.959211 37.548627 
L 332.406316 41.084104 
L 343.853421 45.721696 
L 355.300526 51.271331 
L 366.747632 57.880258 
L 378.194737 64.871394 
L 389.641842 72.121771 
L 401.088947 79.599333 
L 412.536053 87.284668 
L 423.983158 95.041827 
L 435.430263 101.781463 
L 446.877368 108.665579 
L 458.324474 115.182101 
L 469.771579 121.54564 
L 481.218684 127.228043 
L 492.665789 132.83327 
L 504.112895 137.718666 
L 515.56 142.895032 
" clip-path="url(#pa55fd27c88)" style="fill: none; stroke: #8c564b; stroke-width: 1.5; stroke-linecap: square"/>
   </g>
   <g id="line2d_28">
    <path d="M 298.065 49.61529 
L 309.512105 50.351191 
L 320.959211 52.526595 
L 332.406316 55.75436 
L 343.853421 60.068621 
L 355.300526 65.189637 
L 366.747632 71.09113 
L 378.194737 77.470319 
L 389.641842 84.324717 
L 401.088947 90.935082 
L 412.536053 98.025411 
L 423.983158 105.059577 
L 435.430263 111.207333 
L 446.877368 117.482847 
L 458.324474 123.622355 
L 469.771579 129.306315 
L 481.218684 134.53354 
L 492.665789 139.612742 
L 504.112895 144.229834 
L 515.56 148.957036 
" clip-path="url(#pa55fd27c88)" style="fill: none; stroke: #e377c2; stroke-width: 1.5; stroke-linecap: square"/>
   </g>
   <g id="line2d_29">
    <path d="M 298.065 34.281508 
L 309.512105 35.093381 
L 320.959211 37.55013 
L 332.406316 41.101292 
L 343.853421 45.715622 
L 355.300526 51.338642 
L 366.747632 57.797122 
L 378.194737 64.82674 
L 389.641842 72.308322 
L 401.088947 79.531564 
L 412.536053 87.292055 
L 423.983158 94.842465 
L 435.430263 101.718339 
L 446.877368 108.62093 
L 458.324474 115.286828 
L 469.771579 121.521727 
L 481.218684 127.370392 
L 492.665789 132.827018 
L 504.112895 138.038368 
L 515.56 143.382804 
" clip-path="url(#pa55fd27c88)" style="fill: none; stroke: #7f7f7f; stroke-width: 1.5; stroke-linecap: square"/>
   </g>
   <g id="patch_6">
    <path d="M 298.065 174.04 
L 298.065 26.88 
" style="fill: none; stroke: #000000; stroke-width: 0.8; stroke-linejoin: miter; stroke-linecap: square"/>
   </g>
   <g id="patch_7">
    <path d="M 298.065 174.04 
L 515.56 174.04 
" style="fill: none; stroke: #000000; stroke-width: 0.8; stroke-linejoin: miter; stroke-linecap: square"/>
   </g>
   <g id="text_18">
    <!-- Node * third variable -->
    <g transform="translate(344.2325 20.88)scale(0.12 -0.12)">
     <defs>
      <path id="DejaVuSans-68" d="M 3513 2113 
L 3513 0 
L 2938 0 
L 2938 2094 
Q 2938 2591 2744 2837 
Q 2550 3084 2163 3084 
Q 1697 3084 1428 2787 
Q 1159 2491 1159 1978 
L 1159 0 
L 581 0 
L 581 4863 
L 1159 4863 
L 1159 2956 
Q 1366 3272 1645 3428 
Q 1925 3584 2291 3584 
Q 2894 3584 3203 3211 
Q 3513 2838 3513 2113 
z
" transform="scale(0.015625)"/>
      <path id="DejaVuSans-62" d="M 3116 1747 
Q 3116 2381 2855 2742 
Q 2594 3103 2138 3103 
Q 1681 3103 1420 2742 
Q 1159 2381 1159 1747 
Q 1159 1113 1420 752 
Q 1681 391 2138 391 
Q 2594 391 2855 752 
Q 3116 1113 3116 1747 
z
M 1159 2969 
Q 1341 3281 1617 3432 
Q 1894 3584 2278 3584 
Q 2916 3584 3314 3078 
Q 3713 2572 3713 1747 
Q 3713 922 3314 415 
Q 2916 -91 2278 -91 
Q 1894 -91 1617 61 
Q 1341 213 1159 525 
L 1159 0 
L 581 0 
L 581 4863 
L 1159 4863 
L 1159 2969 
z
" transform="scale(0.015625)"/>
     </defs>
     <use xlink:href="#DejaVuSans-4e"/>
     <use xlink:href="#DejaVuSans-6f" x="74.804688"/>
     <use xlink:href="#DejaVuSans-64" x="135.986328"/>
     <use xlink:href="#DejaVuSans-65" x="199.462891"/>
     <use xlink:href="#DejaVuSans-20" x="260.986328"/>
     <use xlink:href="#DejaVuSans-2a" x="292.773438"/>
     <use xlink:href="#DejaVuSans-20" x="342.773438"/>
     <use xlink:href="#DejaVuSans-74" x="374.560547"/>
     <use xlink:href="#DejaVuSans-68" x="413.769531"/>
     <use xlink:href="#DejaVuSans-69" x="477.148438"/>
     <use xlink:href="#DejaVuSans-72" x="504.931641"/>
     <use xlink:href="#DejaVuSans-64" x="544.294922"/>
     <use xlink:href="#DejaVuSans-20" x="607.771484"/>
     <use xlink:href="#DejaVuSans-76" x="639.558594"/>
     <use xlink:href="#DejaVuSans-61" x="698.738281"/>
     <use xlink:href="#DejaVuSans-72" x="760.017578"/>
     <use xlink:href="#DejaVuSans-69" x="801.130859"/>
     <use xlink:href="#DejaVuSans-61" x="828.914062"/>
     <use xlink:href="#DejaVuSans-62" x="890.193359"/>
     <use xlink:href="#DejaVuSans-6c" x="953.669922"/>
     <use xlink:href="#DejaVuSans-65" x="981.453125"/>
    </g>
   </g>
   <g id="legend_1">
    <g id="line2d_30">
     <path d="M 524.56 39.978437 
L 534.56 39.978437 
L 544.56 39.978437 
" style="fill: none; stroke: #1f77b4; stroke-width: 1.5; stroke-linecap: square"/>
    </g>
    <g id="text_19">
     <!-- Node -->
     <g transform="translate(552.56 43.478437)scale(0.1 -0.1)">
      <use xlink:href="#DejaVuSans-4e"/>
      <use xlink:href="#DejaVuSans-6f" x="74.804688"/>
      <use xlink:href="#DejaVuSans-64" x="135.986328"/>
      <use xlink:href="#DejaVuSans-65" x="199.462891"/>
     </g>
    </g>
    <g id="line2d_31">
     <path d="M 524.56 54.656563 
L 534.56 54.656563 
L 544.56 54.656563 
" style="fill: none; stroke: #ff7f0e; stroke-width: 1.5; stroke-linecap: square"/>
    </g>
    <g id="text_20">
     <!-- Node + surprisal -->
     <g transform="translate(552.56 58.156563)scale(0.1 -0.1)">
      <defs>
       <path id="DejaVuSans-2b" d="M 2944 4013 
L 2944 2272 
L 4684 2272 
L 4684 1741 
L 2944 1741 
L 2944 0 
L 2419 0 
L 2419 1741 
L 678 1741 
L 678 2272 
L 2419 2272 
L 2419 4013 
L 2944 4013 
z
" transform="scale(0.015625)"/>
      </defs>
      <use xlink:href="#DejaVuSans-4e"/>
      <use xlink:href="#DejaVuSans-6f" x="74.804688"/>
      <use xlink:href="#DejaVuSans-64" x="135.986328"/>
      <use xlink:href="#DejaVuSans-65" x="199.462891"/>
      <use xlink:href="#DejaVuSans-20" x="260.986328"/>
      <use xlink:href="#DejaVuSans-2b" x="292.773438"/>
      <use xlink:href="#DejaVuSans-20" x="376.5625"/>
      <use xlink:href="#DejaVuSans-73" x="408.349609"/>
      <use xlink:href="#DejaVuSans-75" x="460.449219"/>
      <use xlink:href="#DejaVuSans-72" x="523.828125"/>
      <use xlink:href="#DejaVuSans-70" x="564.941406"/>
      <use xlink:href="#DejaVuSans-72" x="628.417969"/>
      <use xlink:href="#DejaVuSans-69" x="669.53125"/>
      <use xlink:href="#DejaVuSans-73" x="697.314453"/>
      <use xlink:href="#DejaVuSans-61" x="749.414062"/>
      <use xlink:href="#DejaVuSans-6c" x="810.693359"/>
     </g>
    </g>
    <g id="line2d_32">
     <path d="M 524.56 69.334687 
L 534.56 69.334687 
L 544.56 69.334687 
" style="fill: none; stroke: #2ca02c; stroke-width: 1.5; stroke-linecap: square"/>
    </g>
    <g id="text_21">
     <!-- Node split -->
     <g transform="translate(552.56 72.834687)scale(0.1 -0.1)">
      <use xlink:href="#DejaVuSans-4e"/>
      <use xlink:href="#DejaVuSans-6f" x="74.804688"/>
      <use xlink:href="#DejaVuSans-64" x="135.986328"/>
      <use xlink:href="#DejaVuSans-65" x="199.462891"/>
      <use xlink:href="#DejaVuSans-20" x="260.986328"/>
      <use xlink:href="#DejaVuSans-73" x="292.773438"/>
      <use xlink:href="#DejaVuSans-70" x="344.873047"/>
      <use xlink:href="#DejaVuSans-6c" x="408.349609"/>
      <use xlink:href="#DejaVuSans-69" x="436.132812"/>
      <use xlink:href="#DejaVuSans-74" x="463.916016"/>
     </g>
    </g>
    <g id="line2d_33">
     <path d="M 524.56 84.012812 
L 534.56 84.012812 
L 544.56 84.012812 
" style="fill: none; stroke: #d62728; stroke-width: 1.5; stroke-linecap: square"/>
    </g>
    <g id="text_22">
     <!-- Node split + surprisal -->
     <g transform="translate(552.56 87.512812)scale(0.1 -0.1)">
      <use xlink:href="#DejaVuSans-4e"/>
      <use xlink:href="#DejaVuSans-6f" x="74.804688"/>
      <use xlink:href="#DejaVuSans-64" x="135.986328"/>
      <use xlink:href="#DejaVuSans-65" x="199.462891"/>
      <use xlink:href="#DejaVuSans-20" x="260.986328"/>
      <use xlink:href="#DejaVuSans-73" x="292.773438"/>
      <use xlink:href="#DejaVuSans-70" x="344.873047"/>
      <use xlink:href="#DejaVuSans-6c" x="408.349609"/>
      <use xlink:href="#DejaVuSans-69" x="436.132812"/>
      <use xlink:href="#DejaVuSans-74" x="463.916016"/>
      <use xlink:href="#DejaVuSans-20" x="503.125"/>
      <use xlink:href="#DejaVuSans-2b" x="534.912109"/>
      <use xlink:href="#DejaVuSans-20" x="618.701172"/>
      <use xlink:href="#DejaVuSans-73" x="650.488281"/>
      <use xlink:href="#DejaVuSans-75" x="702.587891"/>
      <use xlink:href="#DejaVuSans-72" x="765.966797"/>
      <use xlink:href="#DejaVuSans-70" x="807.080078"/>
      <use xlink:href="#DejaVuSans-72" x="870.556641"/>
      <use xlink:href="#DejaVuSans-69" x="911.669922"/>
      <use xlink:href="#DejaVuSans-73" x="939.453125"/>
      <use xlink:href="#DejaVuSans-61" x="991.552734"/>
      <use xlink:href="#DejaVuSans-6c" x="1052.832031"/>
     </g>
    </g>
    <g id="line2d_34">
     <path d="M 524.56 98.690937 
L 534.56 98.690937 
L 544.56 98.690937 
" style="fill: none; stroke: #9467bd; stroke-width: 1.5; stroke-linecap: square"/>
    </g>
    <g id="text_23">
     <!-- Node random split -->
     <g transform="translate(552.56 102.190937)scale(0.1 -0.1)">
      <use xlink:href="#DejaVuSans-4e"/>
      <use xlink:href="#DejaVuSans-6f" x="74.804688"/>
      <use xlink:href="#DejaVuSans-64" x="135.986328"/>
      <use xlink:href="#DejaVuSans-65" x="199.462891"/>
      <use xlink:href="#DejaVuSans-20" x="260.986328"/>
      <use xlink:href="#DejaVuSans-72" x="292.773438"/>
      <use xlink:href="#DejaVuSans-61" x="333.886719"/>
      <use xlink:href="#DejaVuSans-6e" x="395.166016"/>
      <use xlink:href="#DejaVuSans-64" x="458.544922"/>
      <use xlink:href="#DejaVuSans-6f" x="522.021484"/>
      <use xlink:href="#DejaVuSans-6d" x="583.203125"/>
      <use xlink:href="#DejaVuSans-20" x="680.615234"/>
      <use xlink:href="#DejaVuSans-73" x="712.402344"/>
      <use xlink:href="#DejaVuSans-70" x="764.501953"/>
      <use xlink:href="#DejaVuSans-6c" x="827.978516"/>
      <use xlink:href="#DejaVuSans-69" x="855.761719"/>
      <use xlink:href="#DejaVuSans-74" x="883.544922"/>
     </g>
    </g>
    <g id="line2d_35">
     <path d="M 524.56 113.369062 
L 534.56 113.369062 
L 544.56 113.369062 
" style="fill: none; stroke: #8c564b; stroke-width: 1.5; stroke-linecap: square"/>
    </g>
    <g id="text_24">
     <!-- Node random split + surprisal -->
     <g transform="translate(552.56 116.869062)scale(0.1 -0.1)">
      <use xlink:href="#DejaVuSans-4e"/>
      <use xlink:href="#DejaVuSans-6f" x="74.804688"/>
      <use xlink:href="#DejaVuSans-64" x="135.986328"/>
      <use xlink:href="#DejaVuSans-65" x="199.462891"/>
      <use xlink:href="#DejaVuSans-20" x="260.986328"/>
      <use xlink:href="#DejaVuSans-72" x="292.773438"/>
      <use xlink:href="#DejaVuSans-61" x="333.886719"/>
      <use xlink:href="#DejaVuSans-6e" x="395.166016"/>
      <use xlink:href="#DejaVuSans-64" x="458.544922"/>
      <use xlink:href="#DejaVuSans-6f" x="522.021484"/>
      <use xlink:href="#DejaVuSans-6d" x="583.203125"/>
      <use xlink:href="#DejaVuSans-20" x="680.615234"/>
      <use xlink:href="#DejaVuSans-73" x="712.402344"/>
      <use xlink:href="#DejaVuSans-70" x="764.501953"/>
      <use xlink:href="#DejaVuSans-6c" x="827.978516"/>
      <use xlink:href="#DejaVuSans-69" x="855.761719"/>
      <use xlink:href="#DejaVuSans-74" x="883.544922"/>
      <use xlink:href="#DejaVuSans-20" x="922.753906"/>
      <use xlink:href="#DejaVuSans-2b" x="954.541016"/>
      <use xlink:href="#DejaVuSans-20" x="1038.330078"/>
      <use xlink:href="#DejaVuSans-73" x="1070.117188"/>
      <use xlink:href="#DejaVuSans-75" x="1122.216797"/>
      <use xlink:href="#DejaVuSans-72" x="1185.595703"/>
      <use xlink:href="#DejaVuSans-70" x="1226.708984"/>
      <use xlink:href="#DejaVuSans-72" x="1290.185547"/>
      <use xlink:href="#DejaVuSans-69" x="1331.298828"/>
      <use xlink:href="#DejaVuSans-73" x="1359.082031"/>
      <use xlink:href="#DejaVuSans-61" x="1411.181641"/>
      <use xlink:href="#DejaVuSans-6c" x="1472.460938"/>
     </g>
    </g>
    <g id="line2d_36">
     <path d="M 524.56 128.047187 
L 534.56 128.047187 
L 544.56 128.047187 
" style="fill: none; stroke: #e377c2; stroke-width: 1.5; stroke-linecap: square"/>
    </g>
    <g id="text_25">
     <!-- Interaction -->
     <g transform="translate(552.56 131.547187)scale(0.1 -0.1)">
      <use xlink:href="#DejaVuSans-49"/>
      <use xlink:href="#DejaVuSans-6e" x="29.492188"/>
      <use xlink:href="#DejaVuSans-74" x="92.871094"/>
      <use xlink:href="#DejaVuSans-65" x="132.080078"/>
      <use xlink:href="#DejaVuSans-72" x="193.603516"/>
      <use xlink:href="#DejaVuSans-61" x="234.716797"/>
      <use xlink:href="#DejaVuSans-63" x="295.996094"/>
      <use xlink:href="#DejaVuSans-74" x="350.976562"/>
      <use xlink:href="#DejaVuSans-69" x="390.185547"/>
      <use xlink:href="#DejaVuSans-6f" x="417.96875"/>
      <use xlink:href="#DejaVuSans-6e" x="479.150391"/>
     </g>
    </g>
    <g id="line2d_37">
     <path d="M 524.56 142.725312 
L 534.56 142.725312 
L 544.56 142.725312 
" style="fill: none; stroke: #7f7f7f; stroke-width: 1.5; stroke-linecap: square"/>
    </g>
    <g id="text_26">
     <!-- Node + surprisal + interaction -->
     <g transform="translate(552.56 146.225312)scale(0.1 -0.1)">
      <use xlink:href="#DejaVuSans-4e"/>
      <use xlink:href="#DejaVuSans-6f" x="74.804688"/>
      <use xlink:href="#DejaVuSans-64" x="135.986328"/>
      <use xlink:href="#DejaVuSans-65" x="199.462891"/>
      <use xlink:href="#DejaVuSans-20" x="260.986328"/>
      <use xlink:href="#DejaVuSans-2b" x="292.773438"/>
      <use xlink:href="#DejaVuSans-20" x="376.5625"/>
      <use xlink:href="#DejaVuSans-73" x="408.349609"/>
      <use xlink:href="#DejaVuSans-75" x="460.449219"/>
      <use xlink:href="#DejaVuSans-72" x="523.828125"/>
      <use xlink:href="#DejaVuSans-70" x="564.941406"/>
      <use xlink:href="#DejaVuSans-72" x="628.417969"/>
      <use xlink:href="#DejaVuSans-69" x="669.53125"/>
      <use xlink:href="#DejaVuSans-73" x="697.314453"/>
      <use xlink:href="#DejaVuSans-61" x="749.414062"/>
      <use xlink:href="#DejaVuSans-6c" x="810.693359"/>
      <use xlink:href="#DejaVuSans-20" x="838.476562"/>
      <use xlink:href="#DejaVuSans-2b" x="870.263672"/>
      <use xlink:href="#DejaVuSans-20" x="954.052734"/>
      <use xlink:href="#DejaVuSans-69" x="985.839844"/>
      <use xlink:href="#DejaVuSans-6e" x="1013.623047"/>
      <use xlink:href="#DejaVuSans-74" x="1077.001953"/>
      <use xlink:href="#DejaVuSans-65" x="1116.210938"/>
      <use xlink:href="#DejaVuSans-72" x="1177.734375"/>
      <use xlink:href="#DejaVuSans-61" x="1218.847656"/>
      <use xlink:href="#DejaVuSans-63" x="1280.126953"/>
      <use xlink:href="#DejaVuSans-74" x="1335.107422"/>
      <use xlink:href="#DejaVuSans-69" x="1374.316406"/>
      <use xlink:href="#DejaVuSans-6f" x="1402.099609"/>
      <use xlink:href="#DejaVuSans-6e" x="1463.28125"/>
     </g>
    </g>
   </g>
  </g>
 </g>
 <defs>
  <clipPath id="pdfbdf5474c">
   <rect x="47.72" y="26.88" width="217.495" height="147.16"/>
  </clipPath>
  <clipPath id="pa55fd27c88">
   <rect x="298.065" y="26.88" width="217.495" height="147.16"/>
  </clipPath>
 </defs>
</svg>
