<?xml version="1.0" encoding="utf-8" standalone="no"?>
<!DOCTYPE svg PUBLIC "-//W3C//DTD SVG 1.1//EN"
  "http://www.w3.org/Graphics/SVG/1.1/DTD/svg11.dtd">
<svg xmlns:xlink="http://www.w3.org/1999/xlink" width="720pt" height="216pt" viewBox="0 0 720 216" xmlns="http://www.w3.org/2000/svg" version="1.1">
 <metadata>
  <rdf:RDF xmlns:dc="http://purl.org/dc/elements/1.1/" xmlns:cc="http://creativecommons.org/ns#" xmlns:rdf="http://www.w3.org/1999/02/22-rdf-syntax-ns#">
   <cc:Work>
    <dc:type rdf:resource="http://purl.org/dc/dcmitype/StillImage"/>
    <dc:date>2024-01-16T01:15:46.984885</dc:date>
    <dc:format>image/svg+xml</dc:format>
    <dc:creator>
     <cc:Agent>
      <dc:title>Matplotlib v3.5.1, https://matplotlib.org/</dc:title>
     </cc:Agent>
    </dc:creator>
   </cc:Work>
  </rdf:RDF>
 </metadata>
 <defs>
  <style type="text/css">*{stroke-linejoin: round; stroke-linecap: butt}</style>
 </defs>
 <g id="figure_1">
  <g id="patch_1">
   <path d="M 0 216 
L 720 216 
L 720 0 
L 0 0 
z
" style="fill: #ffffff"/>
  </g>
  <g id="axes_1">
   <g id="patch_2">
    <path d="M 47.72 174.04 
L 265.215 174.04 
L 265.215 26.88 
L 47.72 26.88 
z
" style="fill: #ffffff"/>
   </g>
   <g id="PolyCollection_1">
    <path d="M 47.72 33.716433 
L 47.72 34.481558 
L 59.167105 35.584956 
L 70.614211 38.826175 
L 82.061316 43.448762 
L 93.508421 49.665755 
L 104.955526 56.788117 
L 116.402632 64.289003 
L 127.849737 72.400848 
L 139.296842 80.527816 
L 150.743947 88.097147 
L 162.191053 95.991885 
L 173.638158 103.623134 
L 185.085263 109.995303 
L 196.532368 117.021565 
L 207.979474 123.250916 
L 219.426579 128.654139 
L 230.873684 134.67844 
L 242.320789 139.701977 
L 253.767895 144.637689 
L 265.215 149.478106 
L 265.215 133.825141 
L 265.215 133.825141 
L 253.767895 129.113499 
L 242.320789 124.166764 
L 230.873684 119.727981 
L 219.426579 113.662879 
L 207.979474 108.465611 
L 196.532368 102.431801 
L 185.085263 96.307981 
L 173.638158 90.119736 
L 162.191053 83.479185 
L 150.743947 76.963517 
L 139.296842 69.995225 
L 127.849737 63.2386 
L 116.402632 56.836001 
L 104.955526 50.970507 
L 93.508421 45.156667 
L 82.061316 40.487493 
L 70.614211 37.085525 
L 59.167105 34.590466 
L 47.72 33.716433 
z
" clip-path="url(#p2da816c157)" style="fill: #1f77b4; fill-opacity: 0.4"/>
   </g>
   <g id="PolyCollection_2">
    <path d="M 47.72 33.718604 
L 47.72 34.498129 
L 59.167105 35.185169 
L 70.614211 36.832933 
L 82.061316 39.444966 
L 93.508421 43.301598 
L 104.955526 48.001247 
L 116.402632 53.492839 
L 127.849737 59.690812 
L 139.296842 66.584285 
L 150.743947 73.014848 
L 162.191053 80.505838 
L 173.638158 87.739654 
L 185.085263 94.448353 
L 196.532368 101.520748 
L 207.979474 107.919363 
L 219.426579 113.777499 
L 230.873684 119.788884 
L 242.320789 124.731805 
L 253.767895 129.680816 
L 265.215 134.790642 
L 265.215 117.354141 
L 265.215 117.354141 
L 253.767895 112.288347 
L 242.320789 107.10398 
L 230.873684 102.418887 
L 219.426579 96.186729 
L 207.979474 91.104621 
L 196.532368 85.116926 
L 185.085263 79.143054 
L 173.638158 73.365296 
L 162.191053 67.61145 
L 150.743947 62.343707 
L 139.296842 56.819585 
L 127.849737 51.734695 
L 116.402632 47.3639 
L 104.955526 43.574653 
L 93.508421 40.046475 
L 82.061316 37.331262 
L 70.614211 35.634377 
L 59.167105 34.264302 
L 47.72 33.718604 
z
" clip-path="url(#p2da816c157)" style="fill: #ff7f0e; fill-opacity: 0.4"/>
   </g>
   <g id="PolyCollection_3">
    <path d="M 47.72 33.730075 
L 47.72 34.496349 
L 59.167105 35.327548 
L 70.614211 36.960324 
L 82.061316 39.107636 
L 93.508421 42.272028 
L 104.955526 45.725131 
L 116.402632 49.399327 
L 127.849737 53.435123 
L 139.296842 57.584249 
L 150.743947 61.497569 
L 162.191053 65.776906 
L 173.638158 69.364171 
L 185.085263 73.112101 
L 196.532368 76.99906 
L 207.979474 80.776959 
L 219.426579 84.017015 
L 230.873684 87.382756 
L 242.320789 90.661303 
L 253.767895 93.731814 
L 265.215 97.180949 
L 265.215 87.651725 
L 265.215 87.651725 
L 253.767895 84.546104 
L 242.320789 80.781074 
L 230.873684 78.230607 
L 219.426579 74.25799 
L 207.979474 71.320398 
L 196.532368 67.984322 
L 185.085263 64.060736 
L 173.638158 60.525681 
L 162.191053 57.296097 
L 150.743947 53.778951 
L 139.296842 50.23258 
L 127.849737 46.90807 
L 116.402632 43.982776 
L 104.955526 41.46972 
L 93.508421 38.900802 
L 82.061316 36.991938 
L 70.614211 35.58747 
L 59.167105 34.432404 
L 47.72 33.730075 
z
" clip-path="url(#p2da816c157)" style="fill: #2ca02c; fill-opacity: 0.4"/>
   </g>
   <g id="PolyCollection_4">
    <path d="M 47.72 33.735876 
L 47.72 34.510693 
L 59.167105 35.147317 
L 70.614211 36.280867 
L 82.061316 37.82682 
L 93.508421 40.219362 
L 104.955526 42.998908 
L 116.402632 46.24589 
L 127.849737 49.836618 
L 139.296842 53.851361 
L 150.743947 57.730851 
L 162.191053 62.304958 
L 173.638158 66.055303 
L 185.085263 69.987845 
L 196.532368 74.215644 
L 207.979474 78.232916 
L 219.426579 81.723475 
L 230.873684 85.421467 
L 242.320789 88.947945 
L 253.767895 92.326304 
L 265.215 95.979028 
L 265.215 85.951457 
L 265.215 85.951457 
L 253.767895 82.688646 
L 242.320789 78.841109 
L 230.873684 76.078855 
L 219.426579 71.974454 
L 207.979474 68.863174 
L 196.532368 65.380472 
L 185.085263 61.365815 
L 173.638158 57.786241 
L 162.191053 54.468483 
L 150.743947 51.171472 
L 139.296842 47.773526 
L 127.849737 44.58477 
L 116.402632 41.951041 
L 104.955526 39.800996 
L 93.508421 37.718234 
L 82.061316 36.142895 
L 70.614211 35.16281 
L 59.167105 34.27239 
L 47.72 33.735876 
z
" clip-path="url(#p2da816c157)" style="fill: #d62728; fill-opacity: 0.4"/>
   </g>
   <g id="PolyCollection_5">
    <path d="M 47.72 33.726816 
L 47.72 34.482038 
L 59.167105 35.595233 
L 70.614211 38.82705 
L 82.061316 43.479109 
L 93.508421 49.743244 
L 104.955526 56.86125 
L 116.402632 64.376394 
L 127.849737 72.479956 
L 139.296842 80.64534 
L 150.743947 88.427029 
L 162.191053 95.735815 
L 173.638158 103.833065 
L 185.085263 110.284055 
L 196.532368 117.446823 
L 207.979474 123.206958 
L 219.426579 128.676877 
L 230.873684 134.580951 
L 242.320789 140.820721 
L 253.767895 145.413672 
L 265.215 149.925585 
L 265.215 134.954131 
L 265.215 134.954131 
L 253.767895 129.77646 
L 242.320789 124.868042 
L 230.873684 119.876532 
L 219.426579 113.951813 
L 207.979474 108.769046 
L 196.532368 102.462162 
L 185.085263 96.700989 
L 173.638158 90.246452 
L 162.191053 83.596007 
L 150.743947 77.165987 
L 139.296842 70.276114 
L 127.849737 63.334758 
L 116.402632 56.857528 
L 104.955526 51.027542 
L 93.508421 45.184158 
L 82.061316 40.543 
L 70.614211 37.09989 
L 59.167105 34.611194 
L 47.72 33.726816 
z
" clip-path="url(#p2da816c157)" style="fill: #9467bd; fill-opacity: 0.4"/>
   </g>
   <g id="PolyCollection_6">
    <path d="M 47.72 33.729396 
L 47.72 34.499013 
L 59.167105 35.197141 
L 70.614211 36.845449 
L 82.061316 39.487531 
L 93.508421 43.336628 
L 104.955526 48.055162 
L 116.402632 53.531963 
L 127.849737 59.718705 
L 139.296842 66.608509 
L 150.743947 73.10614 
L 162.191053 80.322086 
L 173.638158 87.920922 
L 185.085263 94.604068 
L 196.532368 101.597319 
L 207.979474 107.873385 
L 219.426579 113.750218 
L 230.873684 119.76486 
L 242.320789 125.547853 
L 253.767895 130.143607 
L 265.215 135.049161 
L 265.215 118.172514 
L 265.215 118.172514 
L 253.767895 112.669974 
L 242.320789 107.557203 
L 230.873684 102.717642 
L 219.426579 96.386775 
L 207.979474 91.238512 
L 196.532368 85.235238 
L 185.085263 79.409271 
L 173.638158 73.445958 
L 162.191053 67.787222 
L 150.743947 62.409837 
L 139.296842 56.933465 
L 127.849737 51.743243 
L 116.402632 47.425956 
L 104.955526 43.639635 
L 93.508421 40.057853 
L 82.061316 37.36274 
L 70.614211 35.648751 
L 59.167105 34.281988 
L 47.72 33.729396 
z
" clip-path="url(#p2da816c157)" style="fill: #8c564b; fill-opacity: 0.4"/>
   </g>
   <g id="PolyCollection_7">
    <path d="M 47.72 46.895362 
L 47.72 50.468624 
L 59.167105 52.050341 
L 70.614211 56.423235 
L 82.061316 62.587689 
L 93.508421 70.540168 
L 104.955526 79.429681 
L 116.402632 88.011672 
L 127.849737 97.2768 
L 139.296842 105.754418 
L 150.743947 113.797356 
L 162.191053 121.691121 
L 173.638158 128.681338 
L 185.085263 135.088284 
L 196.532368 141.184031 
L 207.979474 146.573618 
L 219.426579 151.125663 
L 230.873684 156.051394 
L 242.320789 159.617279 
L 253.767895 163.704651 
L 265.215 167.350909 
L 265.215 152.665726 
L 265.215 152.665726 
L 253.767895 148.542953 
L 242.320789 144.686207 
L 230.873684 140.340769 
L 219.426579 135.110418 
L 207.979474 130.33214 
L 196.532368 124.554925 
L 185.085263 118.084864 
L 173.638158 111.741542 
L 162.191053 104.579201 
L 150.743947 97.020206 
L 139.296842 89.467266 
L 127.849737 81.630204 
L 116.402632 74.340817 
L 104.955526 67.21295 
L 93.508421 60.563204 
L 82.061316 54.907859 
L 70.614211 50.64296 
L 59.167105 48.003933 
L 47.72 46.895362 
z
" clip-path="url(#p2da816c157)" style="fill: #e377c2; fill-opacity: 0.4"/>
   </g>
   <g id="PolyCollection_8">
    <path d="M 47.72 33.73385 
L 47.72 34.517349 
L 59.167105 34.825045 
L 70.614211 35.036266 
L 82.061316 35.563464 
L 93.508421 37.407821 
L 104.955526 40.402933 
L 116.402632 44.184246 
L 127.849737 49.047721 
L 139.296842 54.293144 
L 150.743947 60.463693 
L 162.191053 67.208163 
L 173.638158 73.393632 
L 185.085263 80.314295 
L 196.532368 86.569897 
L 207.979474 92.747635 
L 219.426579 98.969209 
L 230.873684 105.253251 
L 242.320789 110.99345 
L 253.767895 116.416908 
L 265.215 121.914951 
L 265.215 105.925877 
L 265.215 105.925877 
L 253.767895 100.618403 
L 242.320789 94.849151 
L 230.873684 90.003895 
L 219.426579 83.549904 
L 207.979474 78.151849 
L 196.532368 71.694696 
L 185.085263 65.243689 
L 173.638158 59.575555 
L 162.191053 53.971045 
L 150.743947 49.022666 
L 139.296842 44.892251 
L 127.849737 40.982552 
L 116.402632 38.244566 
L 104.955526 36.356261 
L 93.508421 35.087419 
L 82.061316 34.385082 
L 70.614211 34.109287 
L 59.167105 33.982981 
L 47.72 33.73385 
z
" clip-path="url(#p2da816c157)" style="fill: #7f7f7f; fill-opacity: 0.4"/>
   </g>
   <g id="matplotlib.axis_1">
    <g id="xtick_1">
     <g id="line2d_1">
      <defs>
       <path id="m07f474d362" d="M 0 0 
L 0 3.5 
" style="stroke: #000000; stroke-width: 0.8"/>
      </defs>
      <g>
       <use xlink:href="#m07f474d362" x="47.72" y="174.04" style="stroke: #000000; stroke-width: 0.8"/>
      </g>
     </g>
     <g id="text_1">
      <!-- 0.0 -->
      <g transform="translate(39.768438 188.638438)scale(0.1 -0.1)">
       <defs>
        <path id="DejaVuSans-30" d="M 2034 4250 
Q 1547 4250 1301 3770 
Q 1056 3291 1056 2328 
Q 1056 1369 1301 889 
Q 1547 409 2034 409 
Q 2525 409 2770 889 
Q 3016 1369 3016 2328 
Q 3016 3291 2770 3770 
Q 2525 4250 2034 4250 
z
M 2034 4750 
Q 2819 4750 3233 4129 
Q 3647 3509 3647 2328 
Q 3647 1150 3233 529 
Q 2819 -91 2034 -91 
Q 1250 -91 836 529 
Q 422 1150 422 2328 
Q 422 3509 836 4129 
Q 1250 4750 2034 4750 
z
" transform="scale(0.015625)"/>
        <path id="DejaVuSans-2e" d="M 684 794 
L 1344 794 
L 1344 0 
L 684 0 
L 684 794 
z
" transform="scale(0.015625)"/>
       </defs>
       <use xlink:href="#DejaVuSans-30"/>
       <use xlink:href="#DejaVuSans-2e" x="63.623047"/>
       <use xlink:href="#DejaVuSans-30" x="95.410156"/>
      </g>
     </g>
    </g>
    <g id="xtick_2">
     <g id="line2d_2">
      <g>
       <use xlink:href="#m07f474d362" x="102.09375" y="174.04" style="stroke: #000000; stroke-width: 0.8"/>
      </g>
     </g>
     <g id="text_2">
      <!-- 0.5 -->
      <g transform="translate(94.142188 188.638438)scale(0.1 -0.1)">
       <defs>
        <path id="DejaVuSans-35" d="M 691 4666 
L 3169 4666 
L 3169 4134 
L 1269 4134 
L 1269 2991 
Q 1406 3038 1543 3061 
Q 1681 3084 1819 3084 
Q 2600 3084 3056 2656 
Q 3513 2228 3513 1497 
Q 3513 744 3044 326 
Q 2575 -91 1722 -91 
Q 1428 -91 1123 -41 
Q 819 9 494 109 
L 494 744 
Q 775 591 1075 516 
Q 1375 441 1709 441 
Q 2250 441 2565 725 
Q 2881 1009 2881 1497 
Q 2881 1984 2565 2268 
Q 2250 2553 1709 2553 
Q 1456 2553 1204 2497 
Q 953 2441 691 2322 
L 691 4666 
z
" transform="scale(0.015625)"/>
       </defs>
       <use xlink:href="#DejaVuSans-30"/>
       <use xlink:href="#DejaVuSans-2e" x="63.623047"/>
       <use xlink:href="#DejaVuSans-35" x="95.410156"/>
      </g>
     </g>
    </g>
    <g id="xtick_3">
     <g id="line2d_3">
      <g>
       <use xlink:href="#m07f474d362" x="156.4675" y="174.04" style="stroke: #000000; stroke-width: 0.8"/>
      </g>
     </g>
     <g id="text_3">
      <!-- 1.0 -->
      <g transform="translate(148.515938 188.638438)scale(0.1 -0.1)">
       <defs>
        <path id="DejaVuSans-31" d="M 794 531 
L 1825 531 
L 1825 4091 
L 703 3866 
L 703 4441 
L 1819 4666 
L 2450 4666 
L 2450 531 
L 3481 531 
L 3481 0 
L 794 0 
L 794 531 
z
" transform="scale(0.015625)"/>
       </defs>
       <use xlink:href="#DejaVuSans-31"/>
       <use xlink:href="#DejaVuSans-2e" x="63.623047"/>
       <use xlink:href="#DejaVuSans-30" x="95.410156"/>
      </g>
     </g>
    </g>
    <g id="xtick_4">
     <g id="line2d_4">
      <g>
       <use xlink:href="#m07f474d362" x="210.84125" y="174.04" style="stroke: #000000; stroke-width: 0.8"/>
      </g>
     </g>
     <g id="text_4">
      <!-- 1.5 -->
      <g transform="translate(202.889687 188.638438)scale(0.1 -0.1)">
       <use xlink:href="#DejaVuSans-31"/>
       <use xlink:href="#DejaVuSans-2e" x="63.623047"/>
       <use xlink:href="#DejaVuSans-35" x="95.410156"/>
      </g>
     </g>
    </g>
    <g id="xtick_5">
     <g id="line2d_5">
      <g>
       <use xlink:href="#m07f474d362" x="265.215" y="174.04" style="stroke: #000000; stroke-width: 0.8"/>
      </g>
     </g>
     <g id="text_5">
      <!-- 2.0 -->
      <g transform="translate(257.263437 188.638438)scale(0.1 -0.1)">
       <defs>
        <path id="DejaVuSans-32" d="M 1228 531 
L 3431 531 
L 3431 0 
L 469 0 
L 469 531 
Q 828 903 1448 1529 
Q 2069 2156 2228 2338 
Q 2531 2678 2651 2914 
Q 2772 3150 2772 3378 
Q 2772 3750 2511 3984 
Q 2250 4219 1831 4219 
Q 1534 4219 1204 4116 
Q 875 4013 500 3803 
L 500 4441 
Q 881 4594 1212 4672 
Q 1544 4750 1819 4750 
Q 2544 4750 2975 4387 
Q 3406 4025 3406 3419 
Q 3406 3131 3298 2873 
Q 3191 2616 2906 2266 
Q 2828 2175 2409 1742 
Q 1991 1309 1228 531 
z
" transform="scale(0.015625)"/>
       </defs>
       <use xlink:href="#DejaVuSans-32"/>
       <use xlink:href="#DejaVuSans-2e" x="63.623047"/>
       <use xlink:href="#DejaVuSans-30" x="95.410156"/>
      </g>
     </g>
    </g>
    <g id="text_6">
     <!-- Influence of surprisal (multiplication) -->
     <g transform="translate(64.320625 202.316563)scale(0.1 -0.1)">
      <defs>
       <path id="DejaVuSans-49" d="M 628 4666 
L 1259 4666 
L 1259 0 
L 628 0 
L 628 4666 
z
" transform="scale(0.015625)"/>
       <path id="DejaVuSans-6e" d="M 3513 2113 
L 3513 0 
L 2938 0 
L 2938 2094 
Q 2938 2591 2744 2837 
Q 2550 3084 2163 3084 
Q 1697 3084 1428 2787 
Q 1159 2491 1159 1978 
L 1159 0 
L 581 0 
L 581 3500 
L 1159 3500 
L 1159 2956 
Q 1366 3272 1645 3428 
Q 1925 3584 2291 3584 
Q 2894 3584 3203 3211 
Q 3513 2838 3513 2113 
z
" transform="scale(0.015625)"/>
       <path id="DejaVuSans-66" d="M 2375 4863 
L 2375 4384 
L 1825 4384 
Q 1516 4384 1395 4259 
Q 1275 4134 1275 3809 
L 1275 3500 
L 2222 3500 
L 2222 3053 
L 1275 3053 
L 1275 0 
L 697 0 
L 697 3053 
L 147 3053 
L 147 3500 
L 697 3500 
L 697 3744 
Q 697 4328 969 4595 
Q 1241 4863 1831 4863 
L 2375 4863 
z
" transform="scale(0.015625)"/>
       <path id="DejaVuSans-6c" d="M 603 4863 
L 1178 4863 
L 1178 0 
L 603 0 
L 603 4863 
z
" transform="scale(0.015625)"/>
       <path id="DejaVuSans-75" d="M 544 1381 
L 544 3500 
L 1119 3500 
L 1119 1403 
Q 1119 906 1312 657 
Q 1506 409 1894 409 
Q 2359 409 2629 706 
Q 2900 1003 2900 1516 
L 2900 3500 
L 3475 3500 
L 3475 0 
L 2900 0 
L 2900 538 
Q 2691 219 2414 64 
Q 2138 -91 1772 -91 
Q 1169 -91 856 284 
Q 544 659 544 1381 
z
M 1991 3584 
L 1991 3584 
z
" transform="scale(0.015625)"/>
       <path id="DejaVuSans-65" d="M 3597 1894 
L 3597 1613 
L 953 1613 
Q 991 1019 1311 708 
Q 1631 397 2203 397 
Q 2534 397 2845 478 
Q 3156 559 3463 722 
L 3463 178 
Q 3153 47 2828 -22 
Q 2503 -91 2169 -91 
Q 1331 -91 842 396 
Q 353 884 353 1716 
Q 353 2575 817 3079 
Q 1281 3584 2069 3584 
Q 2775 3584 3186 3129 
Q 3597 2675 3597 1894 
z
M 3022 2063 
Q 3016 2534 2758 2815 
Q 2500 3097 2075 3097 
Q 1594 3097 1305 2825 
Q 1016 2553 972 2059 
L 3022 2063 
z
" transform="scale(0.015625)"/>
       <path id="DejaVuSans-63" d="M 3122 3366 
L 3122 2828 
Q 2878 2963 2633 3030 
Q 2388 3097 2138 3097 
Q 1578 3097 1268 2742 
Q 959 2388 959 1747 
Q 959 1106 1268 751 
Q 1578 397 2138 397 
Q 2388 397 2633 464 
Q 2878 531 3122 666 
L 3122 134 
Q 2881 22 2623 -34 
Q 2366 -91 2075 -91 
Q 1284 -91 818 406 
Q 353 903 353 1747 
Q 353 2603 823 3093 
Q 1294 3584 2113 3584 
Q 2378 3584 2631 3529 
Q 2884 3475 3122 3366 
z
" transform="scale(0.015625)"/>
       <path id="DejaVuSans-20" transform="scale(0.015625)"/>
       <path id="DejaVuSans-6f" d="M 1959 3097 
Q 1497 3097 1228 2736 
Q 959 2375 959 1747 
Q 959 1119 1226 758 
Q 1494 397 1959 397 
Q 2419 397 2687 759 
Q 2956 1122 2956 1747 
Q 2956 2369 2687 2733 
Q 2419 3097 1959 3097 
z
M 1959 3584 
Q 2709 3584 3137 3096 
Q 3566 2609 3566 1747 
Q 3566 888 3137 398 
Q 2709 -91 1959 -91 
Q 1206 -91 779 398 
Q 353 888 353 1747 
Q 353 2609 779 3096 
Q 1206 3584 1959 3584 
z
" transform="scale(0.015625)"/>
       <path id="DejaVuSans-73" d="M 2834 3397 
L 2834 2853 
Q 2591 2978 2328 3040 
Q 2066 3103 1784 3103 
Q 1356 3103 1142 2972 
Q 928 2841 928 2578 
Q 928 2378 1081 2264 
Q 1234 2150 1697 2047 
L 1894 2003 
Q 2506 1872 2764 1633 
Q 3022 1394 3022 966 
Q 3022 478 2636 193 
Q 2250 -91 1575 -91 
Q 1294 -91 989 -36 
Q 684 19 347 128 
L 347 722 
Q 666 556 975 473 
Q 1284 391 1588 391 
Q 1994 391 2212 530 
Q 2431 669 2431 922 
Q 2431 1156 2273 1281 
Q 2116 1406 1581 1522 
L 1381 1569 
Q 847 1681 609 1914 
Q 372 2147 372 2553 
Q 372 3047 722 3315 
Q 1072 3584 1716 3584 
Q 2034 3584 2315 3537 
Q 2597 3491 2834 3397 
z
" transform="scale(0.015625)"/>
       <path id="DejaVuSans-72" d="M 2631 2963 
Q 2534 3019 2420 3045 
Q 2306 3072 2169 3072 
Q 1681 3072 1420 2755 
Q 1159 2438 1159 1844 
L 1159 0 
L 581 0 
L 581 3500 
L 1159 3500 
L 1159 2956 
Q 1341 3275 1631 3429 
Q 1922 3584 2338 3584 
Q 2397 3584 2469 3576 
Q 2541 3569 2628 3553 
L 2631 2963 
z
" transform="scale(0.015625)"/>
       <path id="DejaVuSans-70" d="M 1159 525 
L 1159 -1331 
L 581 -1331 
L 581 3500 
L 1159 3500 
L 1159 2969 
Q 1341 3281 1617 3432 
Q 1894 3584 2278 3584 
Q 2916 3584 3314 3078 
Q 3713 2572 3713 1747 
Q 3713 922 3314 415 
Q 2916 -91 2278 -91 
Q 1894 -91 1617 61 
Q 1341 213 1159 525 
z
M 3116 1747 
Q 3116 2381 2855 2742 
Q 2594 3103 2138 3103 
Q 1681 3103 1420 2742 
Q 1159 2381 1159 1747 
Q 1159 1113 1420 752 
Q 1681 391 2138 391 
Q 2594 391 2855 752 
Q 3116 1113 3116 1747 
z
" transform="scale(0.015625)"/>
       <path id="DejaVuSans-69" d="M 603 3500 
L 1178 3500 
L 1178 0 
L 603 0 
L 603 3500 
z
M 603 4863 
L 1178 4863 
L 1178 4134 
L 603 4134 
L 603 4863 
z
" transform="scale(0.015625)"/>
       <path id="DejaVuSans-61" d="M 2194 1759 
Q 1497 1759 1228 1600 
Q 959 1441 959 1056 
Q 959 750 1161 570 
Q 1363 391 1709 391 
Q 2188 391 2477 730 
Q 2766 1069 2766 1631 
L 2766 1759 
L 2194 1759 
z
M 3341 1997 
L 3341 0 
L 2766 0 
L 2766 531 
Q 2569 213 2275 61 
Q 1981 -91 1556 -91 
Q 1019 -91 701 211 
Q 384 513 384 1019 
Q 384 1609 779 1909 
Q 1175 2209 1959 2209 
L 2766 2209 
L 2766 2266 
Q 2766 2663 2505 2880 
Q 2244 3097 1772 3097 
Q 1472 3097 1187 3025 
Q 903 2953 641 2809 
L 641 3341 
Q 956 3463 1253 3523 
Q 1550 3584 1831 3584 
Q 2591 3584 2966 3190 
Q 3341 2797 3341 1997 
z
" transform="scale(0.015625)"/>
       <path id="DejaVuSans-28" d="M 1984 4856 
Q 1566 4138 1362 3434 
Q 1159 2731 1159 2009 
Q 1159 1288 1364 580 
Q 1569 -128 1984 -844 
L 1484 -844 
Q 1016 -109 783 600 
Q 550 1309 550 2009 
Q 550 2706 781 3412 
Q 1013 4119 1484 4856 
L 1984 4856 
z
" transform="scale(0.015625)"/>
       <path id="DejaVuSans-6d" d="M 3328 2828 
Q 3544 3216 3844 3400 
Q 4144 3584 4550 3584 
Q 5097 3584 5394 3201 
Q 5691 2819 5691 2113 
L 5691 0 
L 5113 0 
L 5113 2094 
Q 5113 2597 4934 2840 
Q 4756 3084 4391 3084 
Q 3944 3084 3684 2787 
Q 3425 2491 3425 1978 
L 3425 0 
L 2847 0 
L 2847 2094 
Q 2847 2600 2669 2842 
Q 2491 3084 2119 3084 
Q 1678 3084 1418 2786 
Q 1159 2488 1159 1978 
L 1159 0 
L 581 0 
L 581 3500 
L 1159 3500 
L 1159 2956 
Q 1356 3278 1631 3431 
Q 1906 3584 2284 3584 
Q 2666 3584 2933 3390 
Q 3200 3197 3328 2828 
z
" transform="scale(0.015625)"/>
       <path id="DejaVuSans-74" d="M 1172 4494 
L 1172 3500 
L 2356 3500 
L 2356 3053 
L 1172 3053 
L 1172 1153 
Q 1172 725 1289 603 
Q 1406 481 1766 481 
L 2356 481 
L 2356 0 
L 1766 0 
Q 1100 0 847 248 
Q 594 497 594 1153 
L 594 3053 
L 172 3053 
L 172 3500 
L 594 3500 
L 594 4494 
L 1172 4494 
z
" transform="scale(0.015625)"/>
       <path id="DejaVuSans-29" d="M 513 4856 
L 1013 4856 
Q 1481 4119 1714 3412 
Q 1947 2706 1947 2009 
Q 1947 1309 1714 600 
Q 1481 -109 1013 -844 
L 513 -844 
Q 928 -128 1133 580 
Q 1338 1288 1338 2009 
Q 1338 2731 1133 3434 
Q 928 4138 513 4856 
z
" transform="scale(0.015625)"/>
      </defs>
      <use xlink:href="#DejaVuSans-49"/>
      <use xlink:href="#DejaVuSans-6e" x="29.492188"/>
      <use xlink:href="#DejaVuSans-66" x="92.871094"/>
      <use xlink:href="#DejaVuSans-6c" x="128.076172"/>
      <use xlink:href="#DejaVuSans-75" x="155.859375"/>
      <use xlink:href="#DejaVuSans-65" x="219.238281"/>
      <use xlink:href="#DejaVuSans-6e" x="280.761719"/>
      <use xlink:href="#DejaVuSans-63" x="344.140625"/>
      <use xlink:href="#DejaVuSans-65" x="399.121094"/>
      <use xlink:href="#DejaVuSans-20" x="460.644531"/>
      <use xlink:href="#DejaVuSans-6f" x="492.431641"/>
      <use xlink:href="#DejaVuSans-66" x="553.613281"/>
      <use xlink:href="#DejaVuSans-20" x="588.818359"/>
      <use xlink:href="#DejaVuSans-73" x="620.605469"/>
      <use xlink:href="#DejaVuSans-75" x="672.705078"/>
      <use xlink:href="#DejaVuSans-72" x="736.083984"/>
      <use xlink:href="#DejaVuSans-70" x="777.197266"/>
      <use xlink:href="#DejaVuSans-72" x="840.673828"/>
      <use xlink:href="#DejaVuSans-69" x="881.787109"/>
      <use xlink:href="#DejaVuSans-73" x="909.570312"/>
      <use xlink:href="#DejaVuSans-61" x="961.669922"/>
      <use xlink:href="#DejaVuSans-6c" x="1022.949219"/>
      <use xlink:href="#DejaVuSans-20" x="1050.732422"/>
      <use xlink:href="#DejaVuSans-28" x="1082.519531"/>
      <use xlink:href="#DejaVuSans-6d" x="1121.533203"/>
      <use xlink:href="#DejaVuSans-75" x="1218.945312"/>
      <use xlink:href="#DejaVuSans-6c" x="1282.324219"/>
      <use xlink:href="#DejaVuSans-74" x="1310.107422"/>
      <use xlink:href="#DejaVuSans-69" x="1349.316406"/>
      <use xlink:href="#DejaVuSans-70" x="1377.099609"/>
      <use xlink:href="#DejaVuSans-6c" x="1440.576172"/>
      <use xlink:href="#DejaVuSans-69" x="1468.359375"/>
      <use xlink:href="#DejaVuSans-63" x="1496.142578"/>
      <use xlink:href="#DejaVuSans-61" x="1551.123047"/>
      <use xlink:href="#DejaVuSans-74" x="1612.402344"/>
      <use xlink:href="#DejaVuSans-69" x="1651.611328"/>
      <use xlink:href="#DejaVuSans-6f" x="1679.394531"/>
      <use xlink:href="#DejaVuSans-6e" x="1740.576172"/>
      <use xlink:href="#DejaVuSans-29" x="1803.955078"/>
     </g>
    </g>
   </g>
   <g id="matplotlib.axis_2">
    <g id="ytick_1">
     <g id="line2d_6">
      <defs>
       <path id="mf5e055d0fe" d="M 0 0 
L -3.5 0 
" style="stroke: #000000; stroke-width: 0.8"/>
      </defs>
      <g>
       <use xlink:href="#mf5e055d0fe" x="47.72" y="140.168043" style="stroke: #000000; stroke-width: 0.8"/>
      </g>
     </g>
     <g id="text_7">
      <!-- 0.4 -->
      <g transform="translate(24.816875 143.967261)scale(0.1 -0.1)">
       <defs>
        <path id="DejaVuSans-34" d="M 2419 4116 
L 825 1625 
L 2419 1625 
L 2419 4116 
z
M 2253 4666 
L 3047 4666 
L 3047 1625 
L 3713 1625 
L 3713 1100 
L 3047 1100 
L 3047 0 
L 2419 0 
L 2419 1100 
L 313 1100 
L 313 1709 
L 2253 4666 
z
" transform="scale(0.015625)"/>
       </defs>
       <use xlink:href="#DejaVuSans-30"/>
       <use xlink:href="#DejaVuSans-2e" x="63.623047"/>
       <use xlink:href="#DejaVuSans-34" x="95.410156"/>
      </g>
     </g>
    </g>
    <g id="ytick_2">
     <g id="line2d_7">
      <g>
       <use xlink:href="#mf5e055d0fe" x="47.72" y="101.2762" style="stroke: #000000; stroke-width: 0.8"/>
      </g>
     </g>
     <g id="text_8">
      <!-- 0.6 -->
      <g transform="translate(24.816875 105.075419)scale(0.1 -0.1)">
       <defs>
        <path id="DejaVuSans-36" d="M 2113 2584 
Q 1688 2584 1439 2293 
Q 1191 2003 1191 1497 
Q 1191 994 1439 701 
Q 1688 409 2113 409 
Q 2538 409 2786 701 
Q 3034 994 3034 1497 
Q 3034 2003 2786 2293 
Q 2538 2584 2113 2584 
z
M 3366 4563 
L 3366 3988 
Q 3128 4100 2886 4159 
Q 2644 4219 2406 4219 
Q 1781 4219 1451 3797 
Q 1122 3375 1075 2522 
Q 1259 2794 1537 2939 
Q 1816 3084 2150 3084 
Q 2853 3084 3261 2657 
Q 3669 2231 3669 1497 
Q 3669 778 3244 343 
Q 2819 -91 2113 -91 
Q 1303 -91 875 529 
Q 447 1150 447 2328 
Q 447 3434 972 4092 
Q 1497 4750 2381 4750 
Q 2619 4750 2861 4703 
Q 3103 4656 3366 4563 
z
" transform="scale(0.015625)"/>
       </defs>
       <use xlink:href="#DejaVuSans-30"/>
       <use xlink:href="#DejaVuSans-2e" x="63.623047"/>
       <use xlink:href="#DejaVuSans-36" x="95.410156"/>
      </g>
     </g>
    </g>
    <g id="ytick_3">
     <g id="line2d_8">
      <g>
       <use xlink:href="#mf5e055d0fe" x="47.72" y="62.384357" style="stroke: #000000; stroke-width: 0.8"/>
      </g>
     </g>
     <g id="text_9">
      <!-- 0.8 -->
      <g transform="translate(24.816875 66.183576)scale(0.1 -0.1)">
       <defs>
        <path id="DejaVuSans-38" d="M 2034 2216 
Q 1584 2216 1326 1975 
Q 1069 1734 1069 1313 
Q 1069 891 1326 650 
Q 1584 409 2034 409 
Q 2484 409 2743 651 
Q 3003 894 3003 1313 
Q 3003 1734 2745 1975 
Q 2488 2216 2034 2216 
z
M 1403 2484 
Q 997 2584 770 2862 
Q 544 3141 544 3541 
Q 544 4100 942 4425 
Q 1341 4750 2034 4750 
Q 2731 4750 3128 4425 
Q 3525 4100 3525 3541 
Q 3525 3141 3298 2862 
Q 3072 2584 2669 2484 
Q 3125 2378 3379 2068 
Q 3634 1759 3634 1313 
Q 3634 634 3220 271 
Q 2806 -91 2034 -91 
Q 1263 -91 848 271 
Q 434 634 434 1313 
Q 434 1759 690 2068 
Q 947 2378 1403 2484 
z
M 1172 3481 
Q 1172 3119 1398 2916 
Q 1625 2713 2034 2713 
Q 2441 2713 2670 2916 
Q 2900 3119 2900 3481 
Q 2900 3844 2670 4047 
Q 2441 4250 2034 4250 
Q 1625 4250 1398 4047 
Q 1172 3844 1172 3481 
z
" transform="scale(0.015625)"/>
       </defs>
       <use xlink:href="#DejaVuSans-30"/>
       <use xlink:href="#DejaVuSans-2e" x="63.623047"/>
       <use xlink:href="#DejaVuSans-38" x="95.410156"/>
      </g>
     </g>
    </g>
    <g id="text_10">
     <!-- R-value -->
     <g transform="translate(18.737188 119.064687)rotate(-90)scale(0.1 -0.1)">
      <defs>
       <path id="DejaVuSans-52" d="M 2841 2188 
Q 3044 2119 3236 1894 
Q 3428 1669 3622 1275 
L 4263 0 
L 3584 0 
L 2988 1197 
Q 2756 1666 2539 1819 
Q 2322 1972 1947 1972 
L 1259 1972 
L 1259 0 
L 628 0 
L 628 4666 
L 2053 4666 
Q 2853 4666 3247 4331 
Q 3641 3997 3641 3322 
Q 3641 2881 3436 2590 
Q 3231 2300 2841 2188 
z
M 1259 4147 
L 1259 2491 
L 2053 2491 
Q 2509 2491 2742 2702 
Q 2975 2913 2975 3322 
Q 2975 3731 2742 3939 
Q 2509 4147 2053 4147 
L 1259 4147 
z
" transform="scale(0.015625)"/>
       <path id="DejaVuSans-2d" d="M 313 2009 
L 1997 2009 
L 1997 1497 
L 313 1497 
L 313 2009 
z
" transform="scale(0.015625)"/>
       <path id="DejaVuSans-76" d="M 191 3500 
L 800 3500 
L 1894 563 
L 2988 3500 
L 3597 3500 
L 2284 0 
L 1503 0 
L 191 3500 
z
" transform="scale(0.015625)"/>
      </defs>
      <use xlink:href="#DejaVuSans-52"/>
      <use xlink:href="#DejaVuSans-2d" x="65.482422"/>
      <use xlink:href="#DejaVuSans-76" x="98.941406"/>
      <use xlink:href="#DejaVuSans-61" x="158.121094"/>
      <use xlink:href="#DejaVuSans-6c" x="219.400391"/>
      <use xlink:href="#DejaVuSans-75" x="247.183594"/>
      <use xlink:href="#DejaVuSans-65" x="310.5625"/>
     </g>
    </g>
   </g>
   <g id="line2d_9">
    <path d="M 47.72 34.098996 
L 59.167105 35.087711 
L 70.614211 37.95585 
L 82.061316 41.968127 
L 93.508421 47.411211 
L 104.955526 53.879312 
L 116.402632 60.562502 
L 127.849737 67.819724 
L 139.296842 75.26152 
L 150.743947 82.530332 
L 162.191053 89.735535 
L 173.638158 96.871435 
L 185.085263 103.151642 
L 196.532368 109.726683 
L 207.979474 115.858263 
L 219.426579 121.158509 
L 230.873684 127.20321 
L 242.320789 131.93437 
L 253.767895 136.875594 
L 265.215 141.651624 
" clip-path="url(#p2da816c157)" style="fill: none; stroke: #1f77b4; stroke-width: 1.5; stroke-linecap: square"/>
   </g>
   <g id="line2d_10">
    <path d="M 47.72 34.108366 
L 59.167105 34.724736 
L 70.614211 36.233655 
L 82.061316 38.388114 
L 93.508421 41.674036 
L 104.955526 45.78795 
L 116.402632 50.42837 
L 127.849737 55.712753 
L 139.296842 61.701935 
L 150.743947 67.679278 
L 162.191053 74.058644 
L 173.638158 80.552475 
L 185.085263 86.795703 
L 196.532368 93.318837 
L 207.979474 99.511992 
L 219.426579 104.982114 
L 230.873684 111.103886 
L 242.320789 115.917892 
L 253.767895 120.984582 
L 265.215 126.072392 
" clip-path="url(#p2da816c157)" style="fill: none; stroke: #ff7f0e; stroke-width: 1.5; stroke-linecap: square"/>
   </g>
   <g id="line2d_11">
    <path d="M 47.72 34.113212 
L 59.167105 34.879976 
L 70.614211 36.273897 
L 82.061316 38.049787 
L 93.508421 40.586415 
L 104.955526 43.597425 
L 116.402632 46.691051 
L 127.849737 50.171596 
L 139.296842 53.908414 
L 150.743947 57.63826 
L 162.191053 61.536502 
L 173.638158 64.944926 
L 185.085263 68.586418 
L 196.532368 72.491691 
L 207.979474 76.048679 
L 219.426579 79.137502 
L 230.873684 82.806682 
L 242.320789 85.721188 
L 253.767895 89.138959 
L 265.215 92.416337 
" clip-path="url(#p2da816c157)" style="fill: none; stroke: #2ca02c; stroke-width: 1.5; stroke-linecap: square"/>
   </g>
   <g id="line2d_12">
    <path d="M 47.72 34.123284 
L 59.167105 34.709854 
L 70.614211 35.721838 
L 82.061316 36.984857 
L 93.508421 38.968798 
L 104.955526 41.399952 
L 116.402632 44.098466 
L 127.849737 47.210694 
L 139.296842 50.812443 
L 150.743947 54.451162 
L 162.191053 58.386721 
L 173.638158 61.920772 
L 185.085263 65.67683 
L 196.532368 69.798058 
L 207.979474 73.548045 
L 219.426579 76.848965 
L 230.873684 80.750161 
L 242.320789 83.894527 
L 253.767895 87.507475 
L 265.215 90.965243 
" clip-path="url(#p2da816c157)" style="fill: none; stroke: #d62728; stroke-width: 1.5; stroke-linecap: square"/>
   </g>
   <g id="line2d_13">
    <path d="M 47.72 34.104427 
L 59.167105 35.103214 
L 70.614211 37.96347 
L 82.061316 42.011054 
L 93.508421 47.463701 
L 104.955526 53.944396 
L 116.402632 60.616961 
L 127.849737 67.907357 
L 139.296842 75.460727 
L 150.743947 82.796508 
L 162.191053 89.665911 
L 173.638158 97.039759 
L 185.085263 103.492522 
L 196.532368 109.954492 
L 207.979474 115.988002 
L 219.426579 121.314345 
L 230.873684 127.228742 
L 242.320789 132.844381 
L 253.767895 137.595066 
L 265.215 142.439858 
" clip-path="url(#p2da816c157)" style="fill: none; stroke: #9467bd; stroke-width: 1.5; stroke-linecap: square"/>
   </g>
   <g id="line2d_14">
    <path d="M 47.72 34.114204 
L 59.167105 34.739565 
L 70.614211 36.2471 
L 82.061316 38.425136 
L 93.508421 41.69724 
L 104.955526 45.847398 
L 116.402632 50.47896 
L 127.849737 55.730974 
L 139.296842 61.770987 
L 150.743947 67.757988 
L 162.191053 74.054654 
L 173.638158 80.68344 
L 185.085263 87.006669 
L 196.532368 93.416279 
L 207.979474 99.555949 
L 219.426579 105.068496 
L 230.873684 111.241251 
L 242.320789 116.552528 
L 253.767895 121.406791 
L 265.215 126.610837 
" clip-path="url(#p2da816c157)" style="fill: none; stroke: #8c564b; stroke-width: 1.5; stroke-linecap: square"/>
   </g>
   <g id="line2d_15">
    <path d="M 47.72 48.681993 
L 59.167105 50.027137 
L 70.614211 53.533098 
L 82.061316 58.747774 
L 93.508421 65.551686 
L 104.955526 73.321316 
L 116.402632 81.176245 
L 127.849737 89.453502 
L 139.296842 97.610842 
L 150.743947 105.408781 
L 162.191053 113.135161 
L 173.638158 120.21144 
L 185.085263 126.586574 
L 196.532368 132.869478 
L 207.979474 138.452879 
L 219.426579 143.11804 
L 230.873684 148.196082 
L 242.320789 152.151743 
L 253.767895 156.123802 
L 265.215 160.008317 
" clip-path="url(#p2da816c157)" style="fill: none; stroke: #e377c2; stroke-width: 1.5; stroke-linecap: square"/>
   </g>
   <g id="line2d_16">
    <path d="M 47.72 34.1256 
L 59.167105 34.404013 
L 70.614211 34.572777 
L 82.061316 34.974273 
L 93.508421 36.24762 
L 104.955526 38.379597 
L 116.402632 41.214406 
L 127.849737 45.015137 
L 139.296842 49.592697 
L 150.743947 54.743179 
L 162.191053 60.589604 
L 173.638158 66.484593 
L 185.085263 72.778992 
L 196.532368 79.132296 
L 207.979474 85.449742 
L 219.426579 91.259556 
L 230.873684 97.628573 
L 242.320789 102.9213 
L 253.767895 108.517655 
L 265.215 113.920414 
" clip-path="url(#p2da816c157)" style="fill: none; stroke: #7f7f7f; stroke-width: 1.5; stroke-linecap: square"/>
   </g>
   <g id="patch_3">
    <path d="M 47.72 174.04 
L 47.72 26.88 
" style="fill: none; stroke: #000000; stroke-width: 0.8; stroke-linejoin: miter; stroke-linecap: square"/>
   </g>
   <g id="patch_4">
    <path d="M 47.72 174.04 
L 265.215 174.04 
" style="fill: none; stroke: #000000; stroke-width: 0.8; stroke-linejoin: miter; stroke-linecap: square"/>
   </g>
   <g id="text_11">
    <!-- Node * surprisal -->
    <g transform="translate(108.18625 20.88)scale(0.12 -0.12)">
     <defs>
      <path id="DejaVuSans-4e" d="M 628 4666 
L 1478 4666 
L 3547 763 
L 3547 4666 
L 4159 4666 
L 4159 0 
L 3309 0 
L 1241 3903 
L 1241 0 
L 628 0 
L 628 4666 
z
" transform="scale(0.015625)"/>
      <path id="DejaVuSans-64" d="M 2906 2969 
L 2906 4863 
L 3481 4863 
L 3481 0 
L 2906 0 
L 2906 525 
Q 2725 213 2448 61 
Q 2172 -91 1784 -91 
Q 1150 -91 751 415 
Q 353 922 353 1747 
Q 353 2572 751 3078 
Q 1150 3584 1784 3584 
Q 2172 3584 2448 3432 
Q 2725 3281 2906 2969 
z
M 947 1747 
Q 947 1113 1208 752 
Q 1469 391 1925 391 
Q 2381 391 2643 752 
Q 2906 1113 2906 1747 
Q 2906 2381 2643 2742 
Q 2381 3103 1925 3103 
Q 1469 3103 1208 2742 
Q 947 2381 947 1747 
z
" transform="scale(0.015625)"/>
      <path id="DejaVuSans-2a" d="M 3009 3897 
L 1888 3291 
L 3009 2681 
L 2828 2375 
L 1778 3009 
L 1778 1831 
L 1422 1831 
L 1422 3009 
L 372 2375 
L 191 2681 
L 1313 3291 
L 191 3897 
L 372 4206 
L 1422 3572 
L 1422 4750 
L 1778 4750 
L 1778 3572 
L 2828 4206 
L 3009 3897 
z
" transform="scale(0.015625)"/>
     </defs>
     <use xlink:href="#DejaVuSans-4e"/>
     <use xlink:href="#DejaVuSans-6f" x="74.804688"/>
     <use xlink:href="#DejaVuSans-64" x="135.986328"/>
     <use xlink:href="#DejaVuSans-65" x="199.462891"/>
     <use xlink:href="#DejaVuSans-20" x="260.986328"/>
     <use xlink:href="#DejaVuSans-2a" x="292.773438"/>
     <use xlink:href="#DejaVuSans-20" x="342.773438"/>
     <use xlink:href="#DejaVuSans-73" x="374.560547"/>
     <use xlink:href="#DejaVuSans-75" x="426.660156"/>
     <use xlink:href="#DejaVuSans-72" x="490.039062"/>
     <use xlink:href="#DejaVuSans-70" x="531.152344"/>
     <use xlink:href="#DejaVuSans-72" x="594.628906"/>
     <use xlink:href="#DejaVuSans-69" x="635.742188"/>
     <use xlink:href="#DejaVuSans-73" x="663.525391"/>
     <use xlink:href="#DejaVuSans-61" x="715.625"/>
     <use xlink:href="#DejaVuSans-6c" x="776.904297"/>
    </g>
   </g>
  </g>
  <g id="axes_2">
   <g id="patch_5">
    <path d="M 298.065 174.04 
L 515.56 174.04 
L 515.56 26.88 
L 298.065 26.88 
z
" style="fill: #ffffff"/>
   </g>
   <g id="PolyCollection_9">
    <path d="M 298.065 33.569091 
L 298.065 34.464895 
L 309.512105 35.477162 
L 320.959211 39.315203 
L 332.406316 44.432003 
L 343.853421 51.33483 
L 355.300526 58.216854 
L 366.747632 65.554209 
L 378.194737 73.215235 
L 389.641842 79.833066 
L 401.088947 87.369244 
L 412.536053 94.700207 
L 423.983158 102.077526 
L 435.430263 109.085903 
L 446.877368 116.011024 
L 458.324474 122.471183 
L 469.771579 128.708345 
L 481.218684 134.654995 
L 492.665789 139.610356 
L 504.112895 144.191129 
L 515.56 148.574075 
L 515.56 139.826763 
L 515.56 139.826763 
L 504.112895 134.358354 
L 492.665789 129.452077 
L 481.218684 123.619207 
L 469.771579 117.9199 
L 458.324474 111.909733 
L 446.877368 105.327357 
L 435.430263 99.097051 
L 423.983158 92.304911 
L 412.536053 84.80183 
L 401.088947 78.137849 
L 389.641842 70.710431 
L 378.194737 63.705497 
L 366.747632 57.15656 
L 355.300526 50.681765 
L 343.853421 45.238421 
L 332.406316 40.945472 
L 320.959211 37.068782 
L 309.512105 34.742655 
L 298.065 33.569091 
z
" clip-path="url(#pb9084eae12)" style="fill: #1f77b4; fill-opacity: 0.4"/>
   </g>
   <g id="PolyCollection_10">
    <path d="M 298.065 33.575836 
L 298.065 34.492962 
L 309.512105 35.491777 
L 320.959211 39.342329 
L 332.406316 44.474048 
L 343.853421 51.383843 
L 355.300526 58.255434 
L 366.747632 65.58933 
L 378.194737 73.25206 
L 389.641842 79.818147 
L 401.088947 87.350998 
L 412.536053 94.647363 
L 423.983158 102.081813 
L 435.430263 109.054262 
L 446.877368 115.985297 
L 458.324474 122.431105 
L 469.771579 128.728456 
L 481.218684 134.678901 
L 492.665789 139.741126 
L 504.112895 144.380601 
L 515.56 148.756276 
L 515.56 139.888668 
L 515.56 139.888668 
L 504.112895 134.453159 
L 492.665789 129.532208 
L 481.218684 123.734022 
L 469.771579 118.027641 
L 458.324474 112.017287 
L 446.877368 105.497358 
L 435.430263 99.233474 
L 423.983158 92.415052 
L 412.536053 84.910277 
L 401.088947 78.187884 
L 389.641842 70.766931 
L 378.194737 63.723952 
L 366.747632 57.174293 
L 355.300526 50.686372 
L 343.853421 45.254421 
L 332.406316 40.963076 
L 320.959211 37.079569 
L 309.512105 34.753173 
L 298.065 33.575836 
z
" clip-path="url(#pb9084eae12)" style="fill: #ff7f0e; fill-opacity: 0.4"/>
   </g>
   <g id="PolyCollection_11">
    <path d="M 298.065 33.57155 
L 298.065 34.498223 
L 309.512105 35.487762 
L 320.959211 39.352155 
L 332.406316 44.495465 
L 343.853421 51.439208 
L 355.300526 58.365379 
L 366.747632 65.765879 
L 378.194737 73.441441 
L 389.641842 80.082089 
L 401.088947 87.692934 
L 412.536053 95.051158 
L 423.983158 102.505561 
L 435.430263 109.669971 
L 446.877368 116.739317 
L 458.324474 123.160407 
L 469.771579 129.519677 
L 481.218684 135.546571 
L 492.665789 140.65971 
L 504.112895 145.422506 
L 515.56 149.805749 
L 515.56 140.394553 
L 515.56 140.394553 
L 504.112895 134.703246 
L 492.665789 129.727136 
L 481.218684 123.921592 
L 469.771579 118.123169 
L 458.324474 112.048082 
L 446.877368 105.372782 
L 435.430263 99.096825 
L 423.983158 92.287084 
L 412.536053 84.76369 
L 401.088947 78.072547 
L 389.641842 70.681591 
L 378.194737 63.655199 
L 366.747632 57.103664 
L 355.300526 50.640849 
L 343.853421 45.229108 
L 332.406316 40.932092 
L 320.959211 37.076054 
L 309.512105 34.756365 
L 298.065 33.57155 
z
" clip-path="url(#pb9084eae12)" style="fill: #2ca02c; fill-opacity: 0.4"/>
   </g>
   <g id="PolyCollection_12">
    <path d="M 298.065 33.586896 
L 298.065 34.515316 
L 309.512105 35.502314 
L 320.959211 39.387377 
L 332.406316 44.527424 
L 343.853421 51.475929 
L 355.300526 58.376121 
L 366.747632 65.771522 
L 378.194737 73.437874 
L 389.641842 80.058809 
L 401.088947 87.685511 
L 412.536053 95.05532 
L 423.983158 102.538281 
L 435.430263 109.703402 
L 446.877368 116.7422 
L 458.324474 123.172047 
L 469.771579 129.499189 
L 481.218684 135.49545 
L 492.665789 140.645483 
L 504.112895 145.438099 
L 515.56 149.688334 
L 515.56 140.747918 
L 515.56 140.747918 
L 504.112895 135.045859 
L 492.665789 130.052204 
L 481.218684 124.173729 
L 469.771579 118.343207 
L 458.324474 112.265277 
L 446.877368 105.613825 
L 435.430263 99.311892 
L 423.983158 92.496664 
L 412.536053 84.956278 
L 401.088947 78.193391 
L 389.641842 70.803644 
L 378.194737 63.739837 
L 366.747632 57.186617 
L 355.300526 50.684766 
L 343.853421 45.262072 
L 332.406316 40.968753 
L 320.959211 37.089406 
L 309.512105 34.776052 
L 298.065 33.586896 
z
" clip-path="url(#pb9084eae12)" style="fill: #d62728; fill-opacity: 0.4"/>
   </g>
   <g id="PolyCollection_13">
    <path d="M 298.065 33.585474 
L 298.065 34.487668 
L 309.512105 35.493981 
L 320.959211 39.336884 
L 332.406316 44.457831 
L 343.853421 51.312193 
L 355.300526 58.23245 
L 366.747632 65.785809 
L 378.194737 73.290842 
L 389.641842 79.645831 
L 401.088947 87.562888 
L 412.536053 94.978131 
L 423.983158 102.297084 
L 435.430263 109.309624 
L 446.877368 116.296938 
L 458.324474 122.756609 
L 469.771579 128.74091 
L 481.218684 134.937149 
L 492.665789 139.924544 
L 504.112895 144.501332 
L 515.56 149.994516 
L 515.56 140.238287 
L 515.56 140.238287 
L 504.112895 135.192639 
L 492.665789 129.941329 
L 481.218684 123.953566 
L 469.771579 119.052028 
L 458.324474 112.373056 
L 446.877368 105.88326 
L 435.430263 99.163444 
L 423.983158 92.477089 
L 412.536053 85.101836 
L 401.088947 78.605329 
L 389.641842 70.661078 
L 378.194737 63.750143 
L 366.747632 57.341876 
L 355.300526 50.854686 
L 343.853421 45.278971 
L 332.406316 41.033658 
L 320.959211 37.05284 
L 309.512105 34.762447 
L 298.065 33.585474 
z
" clip-path="url(#pb9084eae12)" style="fill: #9467bd; fill-opacity: 0.4"/>
   </g>
   <g id="PolyCollection_14">
    <path d="M 298.065 33.592834 
L 298.065 34.516383 
L 309.512105 35.50916 
L 320.959211 39.363133 
L 332.406316 44.500945 
L 343.853421 51.358907 
L 355.300526 58.267987 
L 366.747632 65.830836 
L 378.194737 73.325901 
L 389.641842 79.614606 
L 401.088947 87.535227 
L 412.536053 94.930464 
L 423.983158 102.294928 
L 435.430263 109.279761 
L 446.877368 116.269514 
L 458.324474 122.720212 
L 469.771579 128.725183 
L 481.218684 134.963286 
L 492.665789 140.042254 
L 504.112895 144.665175 
L 515.56 150.180246 
L 515.56 140.272231 
L 515.56 140.272231 
L 504.112895 135.24391 
L 492.665789 129.985093 
L 481.218684 124.023312 
L 469.771579 119.176006 
L 458.324474 112.465343 
L 446.877368 106.055627 
L 435.430263 99.290697 
L 423.983158 92.587146 
L 412.536053 85.200933 
L 401.088947 78.675047 
L 389.641842 70.733657 
L 378.194737 63.76732 
L 366.747632 57.363233 
L 355.300526 50.85877 
L 343.853421 45.294176 
L 332.406316 41.054696 
L 320.959211 37.06451 
L 309.512105 34.773553 
L 298.065 33.592834 
z
" clip-path="url(#pb9084eae12)" style="fill: #8c564b; fill-opacity: 0.4"/>
   </g>
   <g id="PolyCollection_15">
    <path d="M 298.065 46.710062 
L 298.065 50.546779 
L 309.512105 51.37431 
L 320.959211 54.654495 
L 332.406316 59.231443 
L 343.853421 65.459699 
L 355.300526 71.734739 
L 366.747632 78.446844 
L 378.194737 85.037454 
L 389.641842 91.180144 
L 401.088947 97.79392 
L 412.536053 104.279309 
L 423.983158 111.32109 
L 435.430263 117.658309 
L 446.877368 124.018748 
L 458.324474 129.878826 
L 469.771579 135.69406 
L 481.218684 141.003874 
L 492.665789 145.871122 
L 504.112895 149.90042 
L 515.56 154.352192 
L 515.56 143.426202 
L 515.56 143.426202 
L 504.112895 138.225059 
L 492.665789 133.785845 
L 481.218684 128.480134 
L 469.771579 123.229731 
L 458.324474 117.7684 
L 446.877368 111.947696 
L 435.430263 106.171165 
L 423.983158 100.096669 
L 412.536053 93.445608 
L 401.088947 87.361519 
L 389.641842 80.690645 
L 378.194737 74.346994 
L 366.747632 68.495343 
L 355.300526 62.846361 
L 343.853421 57.922888 
L 332.406316 53.867626 
L 320.959211 50.215131 
L 309.512105 47.830375 
L 298.065 46.710062 
z
" clip-path="url(#pb9084eae12)" style="fill: #e377c2; fill-opacity: 0.4"/>
   </g>
   <g id="PolyCollection_16">
    <path d="M 298.065 33.581541 
L 298.065 34.509954 
L 309.512105 35.502728 
L 320.959211 39.368404 
L 332.406316 44.514812 
L 343.853421 51.453784 
L 355.300526 58.34463 
L 366.747632 65.693456 
L 378.194737 73.34138 
L 389.641842 79.930347 
L 401.088947 87.440784 
L 412.536053 94.800109 
L 423.983158 102.27331 
L 435.430263 109.345098 
L 446.877368 116.399731 
L 458.324474 122.823209 
L 469.771579 129.24864 
L 481.218684 135.245441 
L 492.665789 140.330078 
L 504.112895 144.966833 
L 515.56 149.303653 
L 515.56 140.757026 
L 515.56 140.757026 
L 504.112895 135.307211 
L 492.665789 130.209945 
L 481.218684 124.364001 
L 469.771579 118.570482 
L 458.324474 112.514897 
L 446.877368 105.950006 
L 435.430263 99.648922 
L 423.983158 92.761325 
L 412.536053 85.192784 
L 401.088947 78.394627 
L 389.641842 70.968336 
L 378.194737 63.845862 
L 366.747632 57.242254 
L 355.300526 50.730331 
L 343.853421 45.284584 
L 332.406316 40.985931 
L 320.959211 37.085184 
L 309.512105 34.776773 
L 298.065 33.581541 
z
" clip-path="url(#pb9084eae12)" style="fill: #7f7f7f; fill-opacity: 0.4"/>
   </g>
   <g id="matplotlib.axis_3">
    <g id="xtick_6">
     <g id="line2d_17">
      <g>
       <use xlink:href="#m07f474d362" x="298.065" y="174.04" style="stroke: #000000; stroke-width: 0.8"/>
      </g>
     </g>
     <g id="text_12">
      <!-- 0.0 -->
      <g transform="translate(290.113437 188.638438)scale(0.1 -0.1)">
       <use xlink:href="#DejaVuSans-30"/>
       <use xlink:href="#DejaVuSans-2e" x="63.623047"/>
       <use xlink:href="#DejaVuSans-30" x="95.410156"/>
      </g>
     </g>
    </g>
    <g id="xtick_7">
     <g id="line2d_18">
      <g>
       <use xlink:href="#m07f474d362" x="352.43875" y="174.04" style="stroke: #000000; stroke-width: 0.8"/>
      </g>
     </g>
     <g id="text_13">
      <!-- 0.5 -->
      <g transform="translate(344.487187 188.638438)scale(0.1 -0.1)">
       <use xlink:href="#DejaVuSans-30"/>
       <use xlink:href="#DejaVuSans-2e" x="63.623047"/>
       <use xlink:href="#DejaVuSans-35" x="95.410156"/>
      </g>
     </g>
    </g>
    <g id="xtick_8">
     <g id="line2d_19">
      <g>
       <use xlink:href="#m07f474d362" x="406.8125" y="174.04" style="stroke: #000000; stroke-width: 0.8"/>
      </g>
     </g>
     <g id="text_14">
      <!-- 1.0 -->
      <g transform="translate(398.860937 188.638438)scale(0.1 -0.1)">
       <use xlink:href="#DejaVuSans-31"/>
       <use xlink:href="#DejaVuSans-2e" x="63.623047"/>
       <use xlink:href="#DejaVuSans-30" x="95.410156"/>
      </g>
     </g>
    </g>
    <g id="xtick_9">
     <g id="line2d_20">
      <g>
       <use xlink:href="#m07f474d362" x="461.18625" y="174.04" style="stroke: #000000; stroke-width: 0.8"/>
      </g>
     </g>
     <g id="text_15">
      <!-- 1.5 -->
      <g transform="translate(453.234687 188.638438)scale(0.1 -0.1)">
       <use xlink:href="#DejaVuSans-31"/>
       <use xlink:href="#DejaVuSans-2e" x="63.623047"/>
       <use xlink:href="#DejaVuSans-35" x="95.410156"/>
      </g>
     </g>
    </g>
    <g id="xtick_10">
     <g id="line2d_21">
      <g>
       <use xlink:href="#m07f474d362" x="515.56" y="174.04" style="stroke: #000000; stroke-width: 0.8"/>
      </g>
     </g>
     <g id="text_16">
      <!-- 2.0 -->
      <g transform="translate(507.608437 188.638438)scale(0.1 -0.1)">
       <use xlink:href="#DejaVuSans-32"/>
       <use xlink:href="#DejaVuSans-2e" x="63.623047"/>
       <use xlink:href="#DejaVuSans-30" x="95.410156"/>
      </g>
     </g>
    </g>
    <g id="text_17">
     <!-- Influence of surprisal (multiplication) -->
     <g transform="translate(314.665625 202.316563)scale(0.1 -0.1)">
      <use xlink:href="#DejaVuSans-49"/>
      <use xlink:href="#DejaVuSans-6e" x="29.492188"/>
      <use xlink:href="#DejaVuSans-66" x="92.871094"/>
      <use xlink:href="#DejaVuSans-6c" x="128.076172"/>
      <use xlink:href="#DejaVuSans-75" x="155.859375"/>
      <use xlink:href="#DejaVuSans-65" x="219.238281"/>
      <use xlink:href="#DejaVuSans-6e" x="280.761719"/>
      <use xlink:href="#DejaVuSans-63" x="344.140625"/>
      <use xlink:href="#DejaVuSans-65" x="399.121094"/>
      <use xlink:href="#DejaVuSans-20" x="460.644531"/>
      <use xlink:href="#DejaVuSans-6f" x="492.431641"/>
      <use xlink:href="#DejaVuSans-66" x="553.613281"/>
      <use xlink:href="#DejaVuSans-20" x="588.818359"/>
      <use xlink:href="#DejaVuSans-73" x="620.605469"/>
      <use xlink:href="#DejaVuSans-75" x="672.705078"/>
      <use xlink:href="#DejaVuSans-72" x="736.083984"/>
      <use xlink:href="#DejaVuSans-70" x="777.197266"/>
      <use xlink:href="#DejaVuSans-72" x="840.673828"/>
      <use xlink:href="#DejaVuSans-69" x="881.787109"/>
      <use xlink:href="#DejaVuSans-73" x="909.570312"/>
      <use xlink:href="#DejaVuSans-61" x="961.669922"/>
      <use xlink:href="#DejaVuSans-6c" x="1022.949219"/>
      <use xlink:href="#DejaVuSans-20" x="1050.732422"/>
      <use xlink:href="#DejaVuSans-28" x="1082.519531"/>
      <use xlink:href="#DejaVuSans-6d" x="1121.533203"/>
      <use xlink:href="#DejaVuSans-75" x="1218.945312"/>
      <use xlink:href="#DejaVuSans-6c" x="1282.324219"/>
      <use xlink:href="#DejaVuSans-74" x="1310.107422"/>
      <use xlink:href="#DejaVuSans-69" x="1349.316406"/>
      <use xlink:href="#DejaVuSans-70" x="1377.099609"/>
      <use xlink:href="#DejaVuSans-6c" x="1440.576172"/>
      <use xlink:href="#DejaVuSans-69" x="1468.359375"/>
      <use xlink:href="#DejaVuSans-63" x="1496.142578"/>
      <use xlink:href="#DejaVuSans-61" x="1551.123047"/>
      <use xlink:href="#DejaVuSans-74" x="1612.402344"/>
      <use xlink:href="#DejaVuSans-69" x="1651.611328"/>
      <use xlink:href="#DejaVuSans-6f" x="1679.394531"/>
      <use xlink:href="#DejaVuSans-6e" x="1740.576172"/>
      <use xlink:href="#DejaVuSans-29" x="1803.955078"/>
     </g>
    </g>
   </g>
   <g id="line2d_22">
    <path d="M 298.065 34.016993 
L 309.512105 35.109908 
L 320.959211 38.191993 
L 332.406316 42.688738 
L 343.853421 48.286625 
L 355.300526 54.449309 
L 366.747632 61.355385 
L 378.194737 68.460366 
L 389.641842 75.271748 
L 401.088947 82.753547 
L 412.536053 89.751018 
L 423.983158 97.191218 
L 435.430263 104.091477 
L 446.877368 110.669191 
L 458.324474 117.190458 
L 469.771579 123.314122 
L 481.218684 129.137101 
L 492.665789 134.531217 
L 504.112895 139.274741 
L 515.56 144.200419 
" clip-path="url(#pb9084eae12)" style="fill: none; stroke: #1f77b4; stroke-width: 1.5; stroke-linecap: square"/>
   </g>
   <g id="line2d_23">
    <path d="M 298.065 34.034399 
L 309.512105 35.122475 
L 320.959211 38.210949 
L 332.406316 42.718562 
L 343.853421 48.319132 
L 355.300526 54.470903 
L 366.747632 61.381811 
L 378.194737 68.488006 
L 389.641842 75.292539 
L 401.088947 82.769441 
L 412.536053 89.77882 
L 423.983158 97.248432 
L 435.430263 104.143868 
L 446.877368 110.741328 
L 458.324474 117.224196 
L 469.771579 123.378049 
L 481.218684 129.206461 
L 492.665789 134.636667 
L 504.112895 139.41688 
L 515.56 144.322472 
" clip-path="url(#pb9084eae12)" style="fill: none; stroke: #ff7f0e; stroke-width: 1.5; stroke-linecap: square"/>
   </g>
   <g id="line2d_24">
    <path d="M 298.065 34.034887 
L 309.512105 35.122063 
L 320.959211 38.214104 
L 332.406316 42.713778 
L 343.853421 48.334158 
L 355.300526 54.503114 
L 366.747632 61.434772 
L 378.194737 68.54832 
L 389.641842 75.38184 
L 401.088947 82.88274 
L 412.536053 89.907424 
L 423.983158 97.396322 
L 435.430263 104.383398 
L 446.877368 111.056049 
L 458.324474 117.604244 
L 469.771579 123.821423 
L 481.218684 129.734082 
L 492.665789 135.193423 
L 504.112895 140.062876 
L 515.56 145.100151 
" clip-path="url(#pb9084eae12)" style="fill: none; stroke: #2ca02c; stroke-width: 1.5; stroke-linecap: square"/>
   </g>
   <g id="line2d_25">
    <path d="M 298.065 34.051106 
L 309.512105 35.139183 
L 320.959211 38.238392 
L 332.406316 42.748089 
L 343.853421 48.369 
L 355.300526 54.530443 
L 366.747632 61.47907 
L 378.194737 68.588856 
L 389.641842 75.431227 
L 401.088947 82.939451 
L 412.536053 90.005799 
L 423.983158 97.517472 
L 435.430263 104.507647 
L 446.877368 111.178012 
L 458.324474 117.718662 
L 469.771579 123.921198 
L 481.218684 129.834589 
L 492.665789 135.348843 
L 504.112895 140.241979 
L 515.56 145.218126 
" clip-path="url(#pb9084eae12)" style="fill: none; stroke: #d62728; stroke-width: 1.5; stroke-linecap: square"/>
   </g>
   <g id="line2d_26">
    <path d="M 298.065 34.036571 
L 309.512105 35.128214 
L 320.959211 38.194862 
L 332.406316 42.745745 
L 343.853421 48.295582 
L 355.300526 54.543568 
L 366.747632 61.563842 
L 378.194737 68.520493 
L 389.641842 75.153455 
L 401.088947 83.084109 
L 412.536053 90.039983 
L 423.983158 97.387087 
L 435.430263 104.236534 
L 446.877368 111.090099 
L 458.324474 117.564833 
L 469.771579 123.896469 
L 481.218684 129.445358 
L 492.665789 134.932937 
L 504.112895 139.846985 
L 515.56 145.116402 
" clip-path="url(#pb9084eae12)" style="fill: none; stroke: #9467bd; stroke-width: 1.5; stroke-linecap: square"/>
   </g>
   <g id="line2d_27">
    <path d="M 298.065 34.054608 
L 309.512105 35.141357 
L 320.959211 38.213822 
L 332.406316 42.777821 
L 343.853421 48.326542 
L 355.300526 54.563378 
L 366.747632 61.597035 
L 378.194737 68.54661 
L 389.641842 75.174131 
L 401.088947 83.105137 
L 412.536053 90.065699 
L 423.983158 97.441037 
L 435.430263 104.285229 
L 446.877368 111.162571 
L 458.324474 117.592778 
L 469.771579 123.950594 
L 481.218684 129.493299 
L 492.665789 135.013673 
L 504.112895 139.954542 
L 515.56 145.226239 
" clip-path="url(#pb9084eae12)" style="fill: none; stroke: #8c564b; stroke-width: 1.5; stroke-linecap: square"/>
   </g>
   <g id="line2d_28">
    <path d="M 298.065 48.62842 
L 309.512105 49.602342 
L 320.959211 52.434813 
L 332.406316 56.549534 
L 343.853421 61.691294 
L 355.300526 67.29055 
L 366.747632 73.471094 
L 378.194737 79.692224 
L 389.641842 85.935394 
L 401.088947 92.57772 
L 412.536053 98.862458 
L 423.983158 105.70888 
L 435.430263 111.914737 
L 446.877368 117.983222 
L 458.324474 123.823613 
L 469.771579 129.461896 
L 481.218684 134.742004 
L 492.665789 139.828483 
L 504.112895 144.06274 
L 515.56 148.889197 
" clip-path="url(#pb9084eae12)" style="fill: none; stroke: #e377c2; stroke-width: 1.5; stroke-linecap: square"/>
   </g>
   <g id="line2d_29">
    <path d="M 298.065 34.045748 
L 309.512105 35.13975 
L 320.959211 38.226794 
L 332.406316 42.750371 
L 343.853421 48.369184 
L 355.300526 54.537481 
L 366.747632 61.467855 
L 378.194737 68.593621 
L 389.641842 75.449341 
L 401.088947 82.917706 
L 412.536053 89.996447 
L 423.983158 97.517317 
L 435.430263 104.49701 
L 446.877368 111.174868 
L 458.324474 117.669053 
L 469.771579 123.909561 
L 481.218684 129.804721 
L 492.665789 135.270012 
L 504.112895 140.137022 
L 515.56 145.030339 
" clip-path="url(#pb9084eae12)" style="fill: none; stroke: #7f7f7f; stroke-width: 1.5; stroke-linecap: square"/>
   </g>
   <g id="patch_6">
    <path d="M 298.065 174.04 
L 298.065 26.88 
" style="fill: none; stroke: #000000; stroke-width: 0.8; stroke-linejoin: miter; stroke-linecap: square"/>
   </g>
   <g id="patch_7">
    <path d="M 298.065 174.04 
L 515.56 174.04 
" style="fill: none; stroke: #000000; stroke-width: 0.8; stroke-linejoin: miter; stroke-linecap: square"/>
   </g>
   <g id="text_18">
    <!-- Node * third variable -->
    <g transform="translate(344.2325 20.88)scale(0.12 -0.12)">
     <defs>
      <path id="DejaVuSans-68" d="M 3513 2113 
L 3513 0 
L 2938 0 
L 2938 2094 
Q 2938 2591 2744 2837 
Q 2550 3084 2163 3084 
Q 1697 3084 1428 2787 
Q 1159 2491 1159 1978 
L 1159 0 
L 581 0 
L 581 4863 
L 1159 4863 
L 1159 2956 
Q 1366 3272 1645 3428 
Q 1925 3584 2291 3584 
Q 2894 3584 3203 3211 
Q 3513 2838 3513 2113 
z
" transform="scale(0.015625)"/>
      <path id="DejaVuSans-62" d="M 3116 1747 
Q 3116 2381 2855 2742 
Q 2594 3103 2138 3103 
Q 1681 3103 1420 2742 
Q 1159 2381 1159 1747 
Q 1159 1113 1420 752 
Q 1681 391 2138 391 
Q 2594 391 2855 752 
Q 3116 1113 3116 1747 
z
M 1159 2969 
Q 1341 3281 1617 3432 
Q 1894 3584 2278 3584 
Q 2916 3584 3314 3078 
Q 3713 2572 3713 1747 
Q 3713 922 3314 415 
Q 2916 -91 2278 -91 
Q 1894 -91 1617 61 
Q 1341 213 1159 525 
L 1159 0 
L 581 0 
L 581 4863 
L 1159 4863 
L 1159 2969 
z
" transform="scale(0.015625)"/>
     </defs>
     <use xlink:href="#DejaVuSans-4e"/>
     <use xlink:href="#DejaVuSans-6f" x="74.804688"/>
     <use xlink:href="#DejaVuSans-64" x="135.986328"/>
     <use xlink:href="#DejaVuSans-65" x="199.462891"/>
     <use xlink:href="#DejaVuSans-20" x="260.986328"/>
     <use xlink:href="#DejaVuSans-2a" x="292.773438"/>
     <use xlink:href="#DejaVuSans-20" x="342.773438"/>
     <use xlink:href="#DejaVuSans-74" x="374.560547"/>
     <use xlink:href="#DejaVuSans-68" x="413.769531"/>
     <use xlink:href="#DejaVuSans-69" x="477.148438"/>
     <use xlink:href="#DejaVuSans-72" x="504.931641"/>
     <use xlink:href="#DejaVuSans-64" x="544.294922"/>
     <use xlink:href="#DejaVuSans-20" x="607.771484"/>
     <use xlink:href="#DejaVuSans-76" x="639.558594"/>
     <use xlink:href="#DejaVuSans-61" x="698.738281"/>
     <use xlink:href="#DejaVuSans-72" x="760.017578"/>
     <use xlink:href="#DejaVuSans-69" x="801.130859"/>
     <use xlink:href="#DejaVuSans-61" x="828.914062"/>
     <use xlink:href="#DejaVuSans-62" x="890.193359"/>
     <use xlink:href="#DejaVuSans-6c" x="953.669922"/>
     <use xlink:href="#DejaVuSans-65" x="981.453125"/>
    </g>
   </g>
   <g id="legend_1">
    <g id="line2d_30">
     <path d="M 524.56 39.978437 
L 534.56 39.978437 
L 544.56 39.978437 
" style="fill: none; stroke: #1f77b4; stroke-width: 1.5; stroke-linecap: square"/>
    </g>
    <g id="text_19">
     <!-- Node -->
     <g transform="translate(552.56 43.478437)scale(0.1 -0.1)">
      <use xlink:href="#DejaVuSans-4e"/>
      <use xlink:href="#DejaVuSans-6f" x="74.804688"/>
      <use xlink:href="#DejaVuSans-64" x="135.986328"/>
      <use xlink:href="#DejaVuSans-65" x="199.462891"/>
     </g>
    </g>
    <g id="line2d_31">
     <path d="M 524.56 54.656563 
L 534.56 54.656563 
L 544.56 54.656563 
" style="fill: none; stroke: #ff7f0e; stroke-width: 1.5; stroke-linecap: square"/>
    </g>
    <g id="text_20">
     <!-- Node + surprisal -->
     <g transform="translate(552.56 58.156563)scale(0.1 -0.1)">
      <defs>
       <path id="DejaVuSans-2b" d="M 2944 4013 
L 2944 2272 
L 4684 2272 
L 4684 1741 
L 2944 1741 
L 2944 0 
L 2419 0 
L 2419 1741 
L 678 1741 
L 678 2272 
L 2419 2272 
L 2419 4013 
L 2944 4013 
z
" transform="scale(0.015625)"/>
      </defs>
      <use xlink:href="#DejaVuSans-4e"/>
      <use xlink:href="#DejaVuSans-6f" x="74.804688"/>
      <use xlink:href="#DejaVuSans-64" x="135.986328"/>
      <use xlink:href="#DejaVuSans-65" x="199.462891"/>
      <use xlink:href="#DejaVuSans-20" x="260.986328"/>
      <use xlink:href="#DejaVuSans-2b" x="292.773438"/>
      <use xlink:href="#DejaVuSans-20" x="376.5625"/>
      <use xlink:href="#DejaVuSans-73" x="408.349609"/>
      <use xlink:href="#DejaVuSans-75" x="460.449219"/>
      <use xlink:href="#DejaVuSans-72" x="523.828125"/>
      <use xlink:href="#DejaVuSans-70" x="564.941406"/>
      <use xlink:href="#DejaVuSans-72" x="628.417969"/>
      <use xlink:href="#DejaVuSans-69" x="669.53125"/>
      <use xlink:href="#DejaVuSans-73" x="697.314453"/>
      <use xlink:href="#DejaVuSans-61" x="749.414062"/>
      <use xlink:href="#DejaVuSans-6c" x="810.693359"/>
     </g>
    </g>
    <g id="line2d_32">
     <path d="M 524.56 69.334687 
L 534.56 69.334687 
L 544.56 69.334687 
" style="fill: none; stroke: #2ca02c; stroke-width: 1.5; stroke-linecap: square"/>
    </g>
    <g id="text_21">
     <!-- Node split -->
     <g transform="translate(552.56 72.834687)scale(0.1 -0.1)">
      <use xlink:href="#DejaVuSans-4e"/>
      <use xlink:href="#DejaVuSans-6f" x="74.804688"/>
      <use xlink:href="#DejaVuSans-64" x="135.986328"/>
      <use xlink:href="#DejaVuSans-65" x="199.462891"/>
      <use xlink:href="#DejaVuSans-20" x="260.986328"/>
      <use xlink:href="#DejaVuSans-73" x="292.773438"/>
      <use xlink:href="#DejaVuSans-70" x="344.873047"/>
      <use xlink:href="#DejaVuSans-6c" x="408.349609"/>
      <use xlink:href="#DejaVuSans-69" x="436.132812"/>
      <use xlink:href="#DejaVuSans-74" x="463.916016"/>
     </g>
    </g>
    <g id="line2d_33">
     <path d="M 524.56 84.012812 
L 534.56 84.012812 
L 544.56 84.012812 
" style="fill: none; stroke: #d62728; stroke-width: 1.5; stroke-linecap: square"/>
    </g>
    <g id="text_22">
     <!-- Node split + surprisal -->
     <g transform="translate(552.56 87.512812)scale(0.1 -0.1)">
      <use xlink:href="#DejaVuSans-4e"/>
      <use xlink:href="#DejaVuSans-6f" x="74.804688"/>
      <use xlink:href="#DejaVuSans-64" x="135.986328"/>
      <use xlink:href="#DejaVuSans-65" x="199.462891"/>
      <use xlink:href="#DejaVuSans-20" x="260.986328"/>
      <use xlink:href="#DejaVuSans-73" x="292.773438"/>
      <use xlink:href="#DejaVuSans-70" x="344.873047"/>
      <use xlink:href="#DejaVuSans-6c" x="408.349609"/>
      <use xlink:href="#DejaVuSans-69" x="436.132812"/>
      <use xlink:href="#DejaVuSans-74" x="463.916016"/>
      <use xlink:href="#DejaVuSans-20" x="503.125"/>
      <use xlink:href="#DejaVuSans-2b" x="534.912109"/>
      <use xlink:href="#DejaVuSans-20" x="618.701172"/>
      <use xlink:href="#DejaVuSans-73" x="650.488281"/>
      <use xlink:href="#DejaVuSans-75" x="702.587891"/>
      <use xlink:href="#DejaVuSans-72" x="765.966797"/>
      <use xlink:href="#DejaVuSans-70" x="807.080078"/>
      <use xlink:href="#DejaVuSans-72" x="870.556641"/>
      <use xlink:href="#DejaVuSans-69" x="911.669922"/>
      <use xlink:href="#DejaVuSans-73" x="939.453125"/>
      <use xlink:href="#DejaVuSans-61" x="991.552734"/>
      <use xlink:href="#DejaVuSans-6c" x="1052.832031"/>
     </g>
    </g>
    <g id="line2d_34">
     <path d="M 524.56 98.690937 
L 534.56 98.690937 
L 544.56 98.690937 
" style="fill: none; stroke: #9467bd; stroke-width: 1.5; stroke-linecap: square"/>
    </g>
    <g id="text_23">
     <!-- Node random split -->
     <g transform="translate(552.56 102.190937)scale(0.1 -0.1)">
      <use xlink:href="#DejaVuSans-4e"/>
      <use xlink:href="#DejaVuSans-6f" x="74.804688"/>
      <use xlink:href="#DejaVuSans-64" x="135.986328"/>
      <use xlink:href="#DejaVuSans-65" x="199.462891"/>
      <use xlink:href="#DejaVuSans-20" x="260.986328"/>
      <use xlink:href="#DejaVuSans-72" x="292.773438"/>
      <use xlink:href="#DejaVuSans-61" x="333.886719"/>
      <use xlink:href="#DejaVuSans-6e" x="395.166016"/>
      <use xlink:href="#DejaVuSans-64" x="458.544922"/>
      <use xlink:href="#DejaVuSans-6f" x="522.021484"/>
      <use xlink:href="#DejaVuSans-6d" x="583.203125"/>
      <use xlink:href="#DejaVuSans-20" x="680.615234"/>
      <use xlink:href="#DejaVuSans-73" x="712.402344"/>
      <use xlink:href="#DejaVuSans-70" x="764.501953"/>
      <use xlink:href="#DejaVuSans-6c" x="827.978516"/>
      <use xlink:href="#DejaVuSans-69" x="855.761719"/>
      <use xlink:href="#DejaVuSans-74" x="883.544922"/>
     </g>
    </g>
    <g id="line2d_35">
     <path d="M 524.56 113.369062 
L 534.56 113.369062 
L 544.56 113.369062 
" style="fill: none; stroke: #8c564b; stroke-width: 1.5; stroke-linecap: square"/>
    </g>
    <g id="text_24">
     <!-- Node random split + surprisal -->
     <g transform="translate(552.56 116.869062)scale(0.1 -0.1)">
      <use xlink:href="#DejaVuSans-4e"/>
      <use xlink:href="#DejaVuSans-6f" x="74.804688"/>
      <use xlink:href="#DejaVuSans-64" x="135.986328"/>
      <use xlink:href="#DejaVuSans-65" x="199.462891"/>
      <use xlink:href="#DejaVuSans-20" x="260.986328"/>
      <use xlink:href="#DejaVuSans-72" x="292.773438"/>
      <use xlink:href="#DejaVuSans-61" x="333.886719"/>
      <use xlink:href="#DejaVuSans-6e" x="395.166016"/>
      <use xlink:href="#DejaVuSans-64" x="458.544922"/>
      <use xlink:href="#DejaVuSans-6f" x="522.021484"/>
      <use xlink:href="#DejaVuSans-6d" x="583.203125"/>
      <use xlink:href="#DejaVuSans-20" x="680.615234"/>
      <use xlink:href="#DejaVuSans-73" x="712.402344"/>
      <use xlink:href="#DejaVuSans-70" x="764.501953"/>
      <use xlink:href="#DejaVuSans-6c" x="827.978516"/>
      <use xlink:href="#DejaVuSans-69" x="855.761719"/>
      <use xlink:href="#DejaVuSans-74" x="883.544922"/>
      <use xlink:href="#DejaVuSans-20" x="922.753906"/>
      <use xlink:href="#DejaVuSans-2b" x="954.541016"/>
      <use xlink:href="#DejaVuSans-20" x="1038.330078"/>
      <use xlink:href="#DejaVuSans-73" x="1070.117188"/>
      <use xlink:href="#DejaVuSans-75" x="1122.216797"/>
      <use xlink:href="#DejaVuSans-72" x="1185.595703"/>
      <use xlink:href="#DejaVuSans-70" x="1226.708984"/>
      <use xlink:href="#DejaVuSans-72" x="1290.185547"/>
      <use xlink:href="#DejaVuSans-69" x="1331.298828"/>
      <use xlink:href="#DejaVuSans-73" x="1359.082031"/>
      <use xlink:href="#DejaVuSans-61" x="1411.181641"/>
      <use xlink:href="#DejaVuSans-6c" x="1472.460938"/>
     </g>
    </g>
    <g id="line2d_36">
     <path d="M 524.56 128.047187 
L 534.56 128.047187 
L 544.56 128.047187 
" style="fill: none; stroke: #e377c2; stroke-width: 1.5; stroke-linecap: square"/>
    </g>
    <g id="text_25">
     <!-- Interaction -->
     <g transform="translate(552.56 131.547187)scale(0.1 -0.1)">
      <use xlink:href="#DejaVuSans-49"/>
      <use xlink:href="#DejaVuSans-6e" x="29.492188"/>
      <use xlink:href="#DejaVuSans-74" x="92.871094"/>
      <use xlink:href="#DejaVuSans-65" x="132.080078"/>
      <use xlink:href="#DejaVuSans-72" x="193.603516"/>
      <use xlink:href="#DejaVuSans-61" x="234.716797"/>
      <use xlink:href="#DejaVuSans-63" x="295.996094"/>
      <use xlink:href="#DejaVuSans-74" x="350.976562"/>
      <use xlink:href="#DejaVuSans-69" x="390.185547"/>
      <use xlink:href="#DejaVuSans-6f" x="417.96875"/>
      <use xlink:href="#DejaVuSans-6e" x="479.150391"/>
     </g>
    </g>
    <g id="line2d_37">
     <path d="M 524.56 142.725312 
L 534.56 142.725312 
L 544.56 142.725312 
" style="fill: none; stroke: #7f7f7f; stroke-width: 1.5; stroke-linecap: square"/>
    </g>
    <g id="text_26">
     <!-- Node + surprisal + interaction -->
     <g transform="translate(552.56 146.225312)scale(0.1 -0.1)">
      <use xlink:href="#DejaVuSans-4e"/>
      <use xlink:href="#DejaVuSans-6f" x="74.804688"/>
      <use xlink:href="#DejaVuSans-64" x="135.986328"/>
      <use xlink:href="#DejaVuSans-65" x="199.462891"/>
      <use xlink:href="#DejaVuSans-20" x="260.986328"/>
      <use xlink:href="#DejaVuSans-2b" x="292.773438"/>
      <use xlink:href="#DejaVuSans-20" x="376.5625"/>
      <use xlink:href="#DejaVuSans-73" x="408.349609"/>
      <use xlink:href="#DejaVuSans-75" x="460.449219"/>
      <use xlink:href="#DejaVuSans-72" x="523.828125"/>
      <use xlink:href="#DejaVuSans-70" x="564.941406"/>
      <use xlink:href="#DejaVuSans-72" x="628.417969"/>
      <use xlink:href="#DejaVuSans-69" x="669.53125"/>
      <use xlink:href="#DejaVuSans-73" x="697.314453"/>
      <use xlink:href="#DejaVuSans-61" x="749.414062"/>
      <use xlink:href="#DejaVuSans-6c" x="810.693359"/>
      <use xlink:href="#DejaVuSans-20" x="838.476562"/>
      <use xlink:href="#DejaVuSans-2b" x="870.263672"/>
      <use xlink:href="#DejaVuSans-20" x="954.052734"/>
      <use xlink:href="#DejaVuSans-69" x="985.839844"/>
      <use xlink:href="#DejaVuSans-6e" x="1013.623047"/>
      <use xlink:href="#DejaVuSans-74" x="1077.001953"/>
      <use xlink:href="#DejaVuSans-65" x="1116.210938"/>
      <use xlink:href="#DejaVuSans-72" x="1177.734375"/>
      <use xlink:href="#DejaVuSans-61" x="1218.847656"/>
      <use xlink:href="#DejaVuSans-63" x="1280.126953"/>
      <use xlink:href="#DejaVuSans-74" x="1335.107422"/>
      <use xlink:href="#DejaVuSans-69" x="1374.316406"/>
      <use xlink:href="#DejaVuSans-6f" x="1402.099609"/>
      <use xlink:href="#DejaVuSans-6e" x="1463.28125"/>
     </g>
    </g>
   </g>
  </g>
 </g>
 <defs>
  <clipPath id="p2da816c157">
   <rect x="47.72" y="26.88" width="217.495" height="147.16"/>
  </clipPath>
  <clipPath id="pb9084eae12">
   <rect x="298.065" y="26.88" width="217.495" height="147.16"/>
  </clipPath>
 </defs>
</svg>
