<?xml version="1.0" encoding="utf-8" standalone="no"?>
<!DOCTYPE svg PUBLIC "-//W3C//DTD SVG 1.1//EN"
  "http://www.w3.org/Graphics/SVG/1.1/DTD/svg11.dtd">
<svg xmlns:xlink="http://www.w3.org/1999/xlink" width="720pt" height="216pt" viewBox="0 0 720 216" xmlns="http://www.w3.org/2000/svg" version="1.1">
 <metadata>
  <rdf:RDF xmlns:dc="http://purl.org/dc/elements/1.1/" xmlns:cc="http://creativecommons.org/ns#" xmlns:rdf="http://www.w3.org/1999/02/22-rdf-syntax-ns#">
   <cc:Work>
    <dc:type rdf:resource="http://purl.org/dc/dcmitype/StillImage"/>
    <dc:date>2024-01-16T02:41:23.986586</dc:date>
    <dc:format>image/svg+xml</dc:format>
    <dc:creator>
     <cc:Agent>
      <dc:title>Matplotlib v3.5.1, https://matplotlib.org/</dc:title>
     </cc:Agent>
    </dc:creator>
   </cc:Work>
  </rdf:RDF>
 </metadata>
 <defs>
  <style type="text/css">*{stroke-linejoin: round; stroke-linecap: butt}</style>
 </defs>
 <g id="figure_1">
  <g id="patch_1">
   <path d="M 0 216 
L 720 216 
L 720 0 
L 0 0 
z
" style="fill: #ffffff"/>
  </g>
  <g id="axes_1">
   <g id="patch_2">
    <path d="M 47.72 174.04 
L 265.215 174.04 
L 265.215 26.88 
L 47.72 26.88 
z
" style="fill: #ffffff"/>
   </g>
   <g id="PolyCollection_1">
    <path d="M 47.72 33.569091 
L 47.72 34.547974 
L 59.167105 35.356073 
L 70.614211 38.90572 
L 82.061316 43.208898 
L 93.508421 49.622721 
L 104.955526 56.572739 
L 116.402632 64.861443 
L 127.849737 72.934792 
L 139.296842 81.124459 
L 150.743947 89.566831 
L 162.191053 97.517543 
L 173.638158 105.047533 
L 185.085263 111.567651 
L 196.532368 118.058804 
L 207.979474 124.951664 
L 219.426579 130.566504 
L 230.873684 135.745353 
L 242.320789 140.546772 
L 253.767895 145.338331 
L 265.215 150.262462 
L 265.215 134.461359 
L 265.215 134.461359 
L 253.767895 129.831038 
L 242.320789 124.851173 
L 230.873684 119.7491 
L 219.426579 113.640969 
L 207.979474 107.938349 
L 196.532368 101.622611 
L 185.085263 95.600298 
L 173.638158 88.150865 
L 162.191053 81.588362 
L 150.743947 74.788142 
L 139.296842 67.935091 
L 127.849737 61.433411 
L 116.402632 55.188349 
L 104.955526 49.491684 
L 93.508421 44.475222 
L 82.061316 39.906157 
L 70.614211 36.604321 
L 59.167105 34.590478 
L 47.72 33.569091 
z
" clip-path="url(#paca76faa26)" style="fill: #1f77b4; fill-opacity: 0.4"/>
   </g>
   <g id="PolyCollection_2">
    <path d="M 47.72 33.582032 
L 47.72 34.568374 
L 59.167105 35.061885 
L 70.614211 37.009825 
L 82.061316 39.281794 
L 93.508421 43.167622 
L 104.955526 47.274691 
L 116.402632 52.881722 
L 127.849737 58.804322 
L 139.296842 65.2177 
L 150.743947 72.402982 
L 162.191053 79.473747 
L 173.638158 86.640725 
L 185.085263 93.151508 
L 196.532368 99.79415 
L 207.979474 106.902367 
L 219.426579 112.748927 
L 230.873684 118.272525 
L 242.320789 123.491211 
L 253.767895 128.295609 
L 265.215 133.822095 
L 265.215 119.151183 
L 265.215 119.151183 
L 253.767895 114.711676 
L 242.320789 109.48532 
L 230.873684 104.408113 
L 219.426579 98.349834 
L 207.979474 92.724054 
L 196.532368 86.699372 
L 185.085263 81.034274 
L 173.638158 74.129453 
L 162.191053 68.459982 
L 150.743947 62.609139 
L 139.296842 57.021083 
L 127.849737 51.986516 
L 116.402632 47.42926 
L 104.955526 43.459572 
L 93.508421 40.144227 
L 82.061316 37.229397 
L 70.614211 35.204225 
L 59.167105 34.29845 
L 47.72 33.582032 
z
" clip-path="url(#paca76faa26)" style="fill: #ff7f0e; fill-opacity: 0.4"/>
   </g>
   <g id="PolyCollection_3">
    <path d="M 47.72 33.577227 
L 47.72 34.554231 
L 59.167105 35.136058 
L 70.614211 36.933686 
L 82.061316 38.555887 
L 93.508421 41.794782 
L 104.955526 44.895683 
L 116.402632 48.856691 
L 127.849737 52.726067 
L 139.296842 56.52906 
L 150.743947 60.166047 
L 162.191053 64.995675 
L 173.638158 68.982066 
L 185.085263 72.601002 
L 196.532368 76.733052 
L 207.979474 80.52946 
L 219.426579 83.860205 
L 230.873684 87.405466 
L 242.320789 90.890877 
L 253.767895 94.176985 
L 265.215 97.817224 
L 265.215 83.284647 
L 265.215 83.284647 
L 253.767895 80.15006 
L 242.320789 76.958444 
L 230.873684 74.045176 
L 219.426579 70.299159 
L 207.979474 67.536417 
L 196.532368 63.917863 
L 185.085263 61.212244 
L 173.638158 57.80534 
L 162.191053 54.618856 
L 150.743947 51.696876 
L 139.296842 48.517591 
L 127.849737 45.852323 
L 116.402632 43.092323 
L 104.955526 40.648679 
L 93.508421 38.420023 
L 82.061316 36.60648 
L 70.614211 35.191461 
L 59.167105 34.420067 
L 47.72 33.577227 
z
" clip-path="url(#paca76faa26)" style="fill: #2ca02c; fill-opacity: 0.4"/>
   </g>
   <g id="PolyCollection_4">
    <path d="M 47.72 33.590225 
L 47.72 34.581022 
L 59.167105 35.017777 
L 70.614211 36.37731 
L 82.061316 37.515456 
L 93.508421 40.06456 
L 104.955526 42.436523 
L 116.402632 45.839711 
L 127.849737 49.332512 
L 139.296842 52.94866 
L 150.743947 56.714177 
L 162.191053 61.601108 
L 173.638158 65.75627 
L 185.085263 69.554519 
L 196.532368 73.890278 
L 207.979474 77.968677 
L 219.426579 81.508907 
L 230.873684 85.17803 
L 242.320789 88.840085 
L 253.767895 92.270386 
L 265.215 96.015778 
L 265.215 81.92446 
L 265.215 81.92446 
L 253.767895 78.660066 
L 242.320789 75.37848 
L 230.873684 72.292416 
L 219.426579 68.480691 
L 207.979474 65.676872 
L 196.532368 61.997021 
L 185.085263 59.195532 
L 173.638158 55.622657 
L 162.191053 52.383178 
L 150.743947 49.394717 
L 139.296842 46.302263 
L 127.849737 43.716541 
L 116.402632 41.219093 
L 104.955526 39.128724 
L 93.508421 37.337476 
L 82.061316 35.838254 
L 70.614211 34.705181 
L 59.167105 34.29519 
L 47.72 33.590225 
z
" clip-path="url(#paca76faa26)" style="fill: #d62728; fill-opacity: 0.4"/>
   </g>
   <g id="PolyCollection_5">
    <path d="M 47.72 33.589891 
L 47.72 34.561696 
L 59.167105 35.374934 
L 70.614211 38.912007 
L 82.061316 43.249101 
L 93.508421 49.737039 
L 104.955526 56.606149 
L 116.402632 64.923337 
L 127.849737 72.968684 
L 139.296842 81.415638 
L 150.743947 89.511832 
L 162.191053 97.885305 
L 173.638158 105.389245 
L 185.085263 111.715668 
L 196.532368 118.398235 
L 207.979474 125.651249 
L 219.426579 130.783043 
L 230.873684 136.286532 
L 242.320789 141.157723 
L 253.767895 145.708195 
L 265.215 151.314065 
L 265.215 134.824957 
L 265.215 134.824957 
L 253.767895 130.743775 
L 242.320789 124.447284 
L 230.873684 119.27894 
L 219.426579 113.762123 
L 207.979474 107.990901 
L 196.532368 101.834844 
L 185.085263 95.864004 
L 173.638158 88.356387 
L 162.191053 81.711891 
L 150.743947 75.061028 
L 139.296842 67.912354 
L 127.849737 61.451164 
L 116.402632 55.210676 
L 104.955526 49.651365 
L 93.508421 44.464099 
L 82.061316 39.926967 
L 70.614211 36.632329 
L 59.167105 34.598985 
L 47.72 33.589891 
z
" clip-path="url(#paca76faa26)" style="fill: #9467bd; fill-opacity: 0.4"/>
   </g>
   <g id="PolyCollection_6">
    <path d="M 47.72 33.603685 
L 47.72 34.582079 
L 59.167105 35.080598 
L 70.614211 37.011215 
L 82.061316 39.304576 
L 93.508421 43.26457 
L 104.955526 47.331434 
L 116.402632 52.936555 
L 127.849737 58.837176 
L 139.296842 65.297287 
L 150.743947 72.393762 
L 162.191053 79.723917 
L 173.638158 86.939661 
L 185.085263 93.191404 
L 196.532368 100.062884 
L 207.979474 107.559003 
L 219.426579 112.884695 
L 230.873684 118.613677 
L 242.320789 123.764794 
L 253.767895 128.721721 
L 265.215 134.531083 
L 265.215 119.305002 
L 265.215 119.305002 
L 253.767895 115.039101 
L 242.320789 109.391677 
L 230.873684 104.059455 
L 219.426579 98.415427 
L 207.979474 92.92755 
L 196.532368 86.791144 
L 185.085263 81.13282 
L 173.638158 74.197504 
L 162.191053 68.542519 
L 150.743947 62.741928 
L 139.296842 57.04983 
L 127.849737 52.043786 
L 116.402632 47.437023 
L 104.955526 43.501185 
L 93.508421 40.131999 
L 82.061316 37.250275 
L 70.614211 35.237426 
L 59.167105 34.307043 
L 47.72 33.603685 
z
" clip-path="url(#paca76faa26)" style="fill: #8c564b; fill-opacity: 0.4"/>
   </g>
   <g id="PolyCollection_7">
    <path d="M 47.72 46.090864 
L 47.72 49.915548 
L 59.167105 51.013648 
L 70.614211 55.279711 
L 82.061316 60.430083 
L 93.508421 68.336361 
L 104.955526 76.302034 
L 116.402632 85.957207 
L 127.849737 95.108203 
L 139.296842 104.002091 
L 150.743947 112.989263 
L 162.191053 122.030726 
L 173.638158 129.65089 
L 185.085263 136.185898 
L 196.532368 142.329589 
L 207.979474 148.326106 
L 219.426579 152.611026 
L 230.873684 157.074868 
L 242.320789 160.349223 
L 253.767895 164.117969 
L 265.215 167.350909 
L 265.215 148.716936 
L 265.215 148.716936 
L 253.767895 144.376958 
L 242.320789 139.945441 
L 230.873684 135.11031 
L 219.426579 129.743535 
L 207.979474 123.963161 
L 196.532368 117.687482 
L 185.085263 111.955231 
L 173.638158 104.75993 
L 162.191053 97.835305 
L 150.743947 91.375945 
L 139.296842 84.058379 
L 127.849737 77.315463 
L 116.402632 70.483512 
L 104.955526 64.257366 
L 93.508421 58.375169 
L 82.061316 53.290411 
L 70.614211 49.553462 
L 59.167105 47.30641 
L 47.72 46.090864 
z
" clip-path="url(#paca76faa26)" style="fill: #e377c2; fill-opacity: 0.4"/>
   </g>
   <g id="PolyCollection_8">
    <path d="M 47.72 33.588381 
L 47.72 34.585806 
L 59.167105 34.718053 
L 70.614211 35.118098 
L 82.061316 35.387238 
L 93.508421 36.625147 
L 104.955526 38.365348 
L 116.402632 41.421531 
L 127.849737 45.3793 
L 139.296842 50.363445 
L 150.743947 56.058898 
L 162.191053 62.858005 
L 173.638158 69.373806 
L 185.085263 75.730994 
L 196.532368 82.676983 
L 207.979474 89.559557 
L 219.426579 95.790951 
L 230.873684 101.917324 
L 242.320789 107.843856 
L 253.767895 113.123887 
L 265.215 119.269347 
L 265.215 104.036737 
L 265.215 104.036737 
L 253.767895 98.803001 
L 242.320789 92.986996 
L 230.873684 87.63094 
L 219.426579 81.306056 
L 207.979474 75.814262 
L 196.532368 69.80512 
L 185.085263 64.823789 
L 173.638158 58.964223 
L 162.191053 53.672275 
L 150.743947 49.291278 
L 139.296842 44.924614 
L 127.849737 41.596494 
L 116.402632 38.764386 
L 104.955526 36.667118 
L 93.508421 35.227394 
L 82.061316 34.30391 
L 70.614211 33.830395 
L 59.167105 34.014723 
L 47.72 33.588381 
z
" clip-path="url(#paca76faa26)" style="fill: #7f7f7f; fill-opacity: 0.4"/>
   </g>
   <g id="matplotlib.axis_1">
    <g id="xtick_1">
     <g id="line2d_1">
      <defs>
       <path id="m5f3dbc2ea3" d="M 0 0 
L 0 3.5 
" style="stroke: #000000; stroke-width: 0.8"/>
      </defs>
      <g>
       <use xlink:href="#m5f3dbc2ea3" x="47.72" y="174.04" style="stroke: #000000; stroke-width: 0.8"/>
      </g>
     </g>
     <g id="text_1">
      <!-- 0.0 -->
      <g transform="translate(39.768438 188.638438)scale(0.1 -0.1)">
       <defs>
        <path id="DejaVuSans-30" d="M 2034 4250 
Q 1547 4250 1301 3770 
Q 1056 3291 1056 2328 
Q 1056 1369 1301 889 
Q 1547 409 2034 409 
Q 2525 409 2770 889 
Q 3016 1369 3016 2328 
Q 3016 3291 2770 3770 
Q 2525 4250 2034 4250 
z
M 2034 4750 
Q 2819 4750 3233 4129 
Q 3647 3509 3647 2328 
Q 3647 1150 3233 529 
Q 2819 -91 2034 -91 
Q 1250 -91 836 529 
Q 422 1150 422 2328 
Q 422 3509 836 4129 
Q 1250 4750 2034 4750 
z
" transform="scale(0.015625)"/>
        <path id="DejaVuSans-2e" d="M 684 794 
L 1344 794 
L 1344 0 
L 684 0 
L 684 794 
z
" transform="scale(0.015625)"/>
       </defs>
       <use xlink:href="#DejaVuSans-30"/>
       <use xlink:href="#DejaVuSans-2e" x="63.623047"/>
       <use xlink:href="#DejaVuSans-30" x="95.410156"/>
      </g>
     </g>
    </g>
    <g id="xtick_2">
     <g id="line2d_2">
      <g>
       <use xlink:href="#m5f3dbc2ea3" x="102.09375" y="174.04" style="stroke: #000000; stroke-width: 0.8"/>
      </g>
     </g>
     <g id="text_2">
      <!-- 0.5 -->
      <g transform="translate(94.142188 188.638438)scale(0.1 -0.1)">
       <defs>
        <path id="DejaVuSans-35" d="M 691 4666 
L 3169 4666 
L 3169 4134 
L 1269 4134 
L 1269 2991 
Q 1406 3038 1543 3061 
Q 1681 3084 1819 3084 
Q 2600 3084 3056 2656 
Q 3513 2228 3513 1497 
Q 3513 744 3044 326 
Q 2575 -91 1722 -91 
Q 1428 -91 1123 -41 
Q 819 9 494 109 
L 494 744 
Q 775 591 1075 516 
Q 1375 441 1709 441 
Q 2250 441 2565 725 
Q 2881 1009 2881 1497 
Q 2881 1984 2565 2268 
Q 2250 2553 1709 2553 
Q 1456 2553 1204 2497 
Q 953 2441 691 2322 
L 691 4666 
z
" transform="scale(0.015625)"/>
       </defs>
       <use xlink:href="#DejaVuSans-30"/>
       <use xlink:href="#DejaVuSans-2e" x="63.623047"/>
       <use xlink:href="#DejaVuSans-35" x="95.410156"/>
      </g>
     </g>
    </g>
    <g id="xtick_3">
     <g id="line2d_3">
      <g>
       <use xlink:href="#m5f3dbc2ea3" x="156.4675" y="174.04" style="stroke: #000000; stroke-width: 0.8"/>
      </g>
     </g>
     <g id="text_3">
      <!-- 1.0 -->
      <g transform="translate(148.515938 188.638438)scale(0.1 -0.1)">
       <defs>
        <path id="DejaVuSans-31" d="M 794 531 
L 1825 531 
L 1825 4091 
L 703 3866 
L 703 4441 
L 1819 4666 
L 2450 4666 
L 2450 531 
L 3481 531 
L 3481 0 
L 794 0 
L 794 531 
z
" transform="scale(0.015625)"/>
       </defs>
       <use xlink:href="#DejaVuSans-31"/>
       <use xlink:href="#DejaVuSans-2e" x="63.623047"/>
       <use xlink:href="#DejaVuSans-30" x="95.410156"/>
      </g>
     </g>
    </g>
    <g id="xtick_4">
     <g id="line2d_4">
      <g>
       <use xlink:href="#m5f3dbc2ea3" x="210.84125" y="174.04" style="stroke: #000000; stroke-width: 0.8"/>
      </g>
     </g>
     <g id="text_4">
      <!-- 1.5 -->
      <g transform="translate(202.889687 188.638438)scale(0.1 -0.1)">
       <use xlink:href="#DejaVuSans-31"/>
       <use xlink:href="#DejaVuSans-2e" x="63.623047"/>
       <use xlink:href="#DejaVuSans-35" x="95.410156"/>
      </g>
     </g>
    </g>
    <g id="xtick_5">
     <g id="line2d_5">
      <g>
       <use xlink:href="#m5f3dbc2ea3" x="265.215" y="174.04" style="stroke: #000000; stroke-width: 0.8"/>
      </g>
     </g>
     <g id="text_5">
      <!-- 2.0 -->
      <g transform="translate(257.263437 188.638438)scale(0.1 -0.1)">
       <defs>
        <path id="DejaVuSans-32" d="M 1228 531 
L 3431 531 
L 3431 0 
L 469 0 
L 469 531 
Q 828 903 1448 1529 
Q 2069 2156 2228 2338 
Q 2531 2678 2651 2914 
Q 2772 3150 2772 3378 
Q 2772 3750 2511 3984 
Q 2250 4219 1831 4219 
Q 1534 4219 1204 4116 
Q 875 4013 500 3803 
L 500 4441 
Q 881 4594 1212 4672 
Q 1544 4750 1819 4750 
Q 2544 4750 2975 4387 
Q 3406 4025 3406 3419 
Q 3406 3131 3298 2873 
Q 3191 2616 2906 2266 
Q 2828 2175 2409 1742 
Q 1991 1309 1228 531 
z
" transform="scale(0.015625)"/>
       </defs>
       <use xlink:href="#DejaVuSans-32"/>
       <use xlink:href="#DejaVuSans-2e" x="63.623047"/>
       <use xlink:href="#DejaVuSans-30" x="95.410156"/>
      </g>
     </g>
    </g>
    <g id="text_6">
     <!-- Influence of surprisal (multiplication) -->
     <g transform="translate(64.320625 202.316563)scale(0.1 -0.1)">
      <defs>
       <path id="DejaVuSans-49" d="M 628 4666 
L 1259 4666 
L 1259 0 
L 628 0 
L 628 4666 
z
" transform="scale(0.015625)"/>
       <path id="DejaVuSans-6e" d="M 3513 2113 
L 3513 0 
L 2938 0 
L 2938 2094 
Q 2938 2591 2744 2837 
Q 2550 3084 2163 3084 
Q 1697 3084 1428 2787 
Q 1159 2491 1159 1978 
L 1159 0 
L 581 0 
L 581 3500 
L 1159 3500 
L 1159 2956 
Q 1366 3272 1645 3428 
Q 1925 3584 2291 3584 
Q 2894 3584 3203 3211 
Q 3513 2838 3513 2113 
z
" transform="scale(0.015625)"/>
       <path id="DejaVuSans-66" d="M 2375 4863 
L 2375 4384 
L 1825 4384 
Q 1516 4384 1395 4259 
Q 1275 4134 1275 3809 
L 1275 3500 
L 2222 3500 
L 2222 3053 
L 1275 3053 
L 1275 0 
L 697 0 
L 697 3053 
L 147 3053 
L 147 3500 
L 697 3500 
L 697 3744 
Q 697 4328 969 4595 
Q 1241 4863 1831 4863 
L 2375 4863 
z
" transform="scale(0.015625)"/>
       <path id="DejaVuSans-6c" d="M 603 4863 
L 1178 4863 
L 1178 0 
L 603 0 
L 603 4863 
z
" transform="scale(0.015625)"/>
       <path id="DejaVuSans-75" d="M 544 1381 
L 544 3500 
L 1119 3500 
L 1119 1403 
Q 1119 906 1312 657 
Q 1506 409 1894 409 
Q 2359 409 2629 706 
Q 2900 1003 2900 1516 
L 2900 3500 
L 3475 3500 
L 3475 0 
L 2900 0 
L 2900 538 
Q 2691 219 2414 64 
Q 2138 -91 1772 -91 
Q 1169 -91 856 284 
Q 544 659 544 1381 
z
M 1991 3584 
L 1991 3584 
z
" transform="scale(0.015625)"/>
       <path id="DejaVuSans-65" d="M 3597 1894 
L 3597 1613 
L 953 1613 
Q 991 1019 1311 708 
Q 1631 397 2203 397 
Q 2534 397 2845 478 
Q 3156 559 3463 722 
L 3463 178 
Q 3153 47 2828 -22 
Q 2503 -91 2169 -91 
Q 1331 -91 842 396 
Q 353 884 353 1716 
Q 353 2575 817 3079 
Q 1281 3584 2069 3584 
Q 2775 3584 3186 3129 
Q 3597 2675 3597 1894 
z
M 3022 2063 
Q 3016 2534 2758 2815 
Q 2500 3097 2075 3097 
Q 1594 3097 1305 2825 
Q 1016 2553 972 2059 
L 3022 2063 
z
" transform="scale(0.015625)"/>
       <path id="DejaVuSans-63" d="M 3122 3366 
L 3122 2828 
Q 2878 2963 2633 3030 
Q 2388 3097 2138 3097 
Q 1578 3097 1268 2742 
Q 959 2388 959 1747 
Q 959 1106 1268 751 
Q 1578 397 2138 397 
Q 2388 397 2633 464 
Q 2878 531 3122 666 
L 3122 134 
Q 2881 22 2623 -34 
Q 2366 -91 2075 -91 
Q 1284 -91 818 406 
Q 353 903 353 1747 
Q 353 2603 823 3093 
Q 1294 3584 2113 3584 
Q 2378 3584 2631 3529 
Q 2884 3475 3122 3366 
z
" transform="scale(0.015625)"/>
       <path id="DejaVuSans-20" transform="scale(0.015625)"/>
       <path id="DejaVuSans-6f" d="M 1959 3097 
Q 1497 3097 1228 2736 
Q 959 2375 959 1747 
Q 959 1119 1226 758 
Q 1494 397 1959 397 
Q 2419 397 2687 759 
Q 2956 1122 2956 1747 
Q 2956 2369 2687 2733 
Q 2419 3097 1959 3097 
z
M 1959 3584 
Q 2709 3584 3137 3096 
Q 3566 2609 3566 1747 
Q 3566 888 3137 398 
Q 2709 -91 1959 -91 
Q 1206 -91 779 398 
Q 353 888 353 1747 
Q 353 2609 779 3096 
Q 1206 3584 1959 3584 
z
" transform="scale(0.015625)"/>
       <path id="DejaVuSans-73" d="M 2834 3397 
L 2834 2853 
Q 2591 2978 2328 3040 
Q 2066 3103 1784 3103 
Q 1356 3103 1142 2972 
Q 928 2841 928 2578 
Q 928 2378 1081 2264 
Q 1234 2150 1697 2047 
L 1894 2003 
Q 2506 1872 2764 1633 
Q 3022 1394 3022 966 
Q 3022 478 2636 193 
Q 2250 -91 1575 -91 
Q 1294 -91 989 -36 
Q 684 19 347 128 
L 347 722 
Q 666 556 975 473 
Q 1284 391 1588 391 
Q 1994 391 2212 530 
Q 2431 669 2431 922 
Q 2431 1156 2273 1281 
Q 2116 1406 1581 1522 
L 1381 1569 
Q 847 1681 609 1914 
Q 372 2147 372 2553 
Q 372 3047 722 3315 
Q 1072 3584 1716 3584 
Q 2034 3584 2315 3537 
Q 2597 3491 2834 3397 
z
" transform="scale(0.015625)"/>
       <path id="DejaVuSans-72" d="M 2631 2963 
Q 2534 3019 2420 3045 
Q 2306 3072 2169 3072 
Q 1681 3072 1420 2755 
Q 1159 2438 1159 1844 
L 1159 0 
L 581 0 
L 581 3500 
L 1159 3500 
L 1159 2956 
Q 1341 3275 1631 3429 
Q 1922 3584 2338 3584 
Q 2397 3584 2469 3576 
Q 2541 3569 2628 3553 
L 2631 2963 
z
" transform="scale(0.015625)"/>
       <path id="DejaVuSans-70" d="M 1159 525 
L 1159 -1331 
L 581 -1331 
L 581 3500 
L 1159 3500 
L 1159 2969 
Q 1341 3281 1617 3432 
Q 1894 3584 2278 3584 
Q 2916 3584 3314 3078 
Q 3713 2572 3713 1747 
Q 3713 922 3314 415 
Q 2916 -91 2278 -91 
Q 1894 -91 1617 61 
Q 1341 213 1159 525 
z
M 3116 1747 
Q 3116 2381 2855 2742 
Q 2594 3103 2138 3103 
Q 1681 3103 1420 2742 
Q 1159 2381 1159 1747 
Q 1159 1113 1420 752 
Q 1681 391 2138 391 
Q 2594 391 2855 752 
Q 3116 1113 3116 1747 
z
" transform="scale(0.015625)"/>
       <path id="DejaVuSans-69" d="M 603 3500 
L 1178 3500 
L 1178 0 
L 603 0 
L 603 3500 
z
M 603 4863 
L 1178 4863 
L 1178 4134 
L 603 4134 
L 603 4863 
z
" transform="scale(0.015625)"/>
       <path id="DejaVuSans-61" d="M 2194 1759 
Q 1497 1759 1228 1600 
Q 959 1441 959 1056 
Q 959 750 1161 570 
Q 1363 391 1709 391 
Q 2188 391 2477 730 
Q 2766 1069 2766 1631 
L 2766 1759 
L 2194 1759 
z
M 3341 1997 
L 3341 0 
L 2766 0 
L 2766 531 
Q 2569 213 2275 61 
Q 1981 -91 1556 -91 
Q 1019 -91 701 211 
Q 384 513 384 1019 
Q 384 1609 779 1909 
Q 1175 2209 1959 2209 
L 2766 2209 
L 2766 2266 
Q 2766 2663 2505 2880 
Q 2244 3097 1772 3097 
Q 1472 3097 1187 3025 
Q 903 2953 641 2809 
L 641 3341 
Q 956 3463 1253 3523 
Q 1550 3584 1831 3584 
Q 2591 3584 2966 3190 
Q 3341 2797 3341 1997 
z
" transform="scale(0.015625)"/>
       <path id="DejaVuSans-28" d="M 1984 4856 
Q 1566 4138 1362 3434 
Q 1159 2731 1159 2009 
Q 1159 1288 1364 580 
Q 1569 -128 1984 -844 
L 1484 -844 
Q 1016 -109 783 600 
Q 550 1309 550 2009 
Q 550 2706 781 3412 
Q 1013 4119 1484 4856 
L 1984 4856 
z
" transform="scale(0.015625)"/>
       <path id="DejaVuSans-6d" d="M 3328 2828 
Q 3544 3216 3844 3400 
Q 4144 3584 4550 3584 
Q 5097 3584 5394 3201 
Q 5691 2819 5691 2113 
L 5691 0 
L 5113 0 
L 5113 2094 
Q 5113 2597 4934 2840 
Q 4756 3084 4391 3084 
Q 3944 3084 3684 2787 
Q 3425 2491 3425 1978 
L 3425 0 
L 2847 0 
L 2847 2094 
Q 2847 2600 2669 2842 
Q 2491 3084 2119 3084 
Q 1678 3084 1418 2786 
Q 1159 2488 1159 1978 
L 1159 0 
L 581 0 
L 581 3500 
L 1159 3500 
L 1159 2956 
Q 1356 3278 1631 3431 
Q 1906 3584 2284 3584 
Q 2666 3584 2933 3390 
Q 3200 3197 3328 2828 
z
" transform="scale(0.015625)"/>
       <path id="DejaVuSans-74" d="M 1172 4494 
L 1172 3500 
L 2356 3500 
L 2356 3053 
L 1172 3053 
L 1172 1153 
Q 1172 725 1289 603 
Q 1406 481 1766 481 
L 2356 481 
L 2356 0 
L 1766 0 
Q 1100 0 847 248 
Q 594 497 594 1153 
L 594 3053 
L 172 3053 
L 172 3500 
L 594 3500 
L 594 4494 
L 1172 4494 
z
" transform="scale(0.015625)"/>
       <path id="DejaVuSans-29" d="M 513 4856 
L 1013 4856 
Q 1481 4119 1714 3412 
Q 1947 2706 1947 2009 
Q 1947 1309 1714 600 
Q 1481 -109 1013 -844 
L 513 -844 
Q 928 -128 1133 580 
Q 1338 1288 1338 2009 
Q 1338 2731 1133 3434 
Q 928 4138 513 4856 
z
" transform="scale(0.015625)"/>
      </defs>
      <use xlink:href="#DejaVuSans-49"/>
      <use xlink:href="#DejaVuSans-6e" x="29.492188"/>
      <use xlink:href="#DejaVuSans-66" x="92.871094"/>
      <use xlink:href="#DejaVuSans-6c" x="128.076172"/>
      <use xlink:href="#DejaVuSans-75" x="155.859375"/>
      <use xlink:href="#DejaVuSans-65" x="219.238281"/>
      <use xlink:href="#DejaVuSans-6e" x="280.761719"/>
      <use xlink:href="#DejaVuSans-63" x="344.140625"/>
      <use xlink:href="#DejaVuSans-65" x="399.121094"/>
      <use xlink:href="#DejaVuSans-20" x="460.644531"/>
      <use xlink:href="#DejaVuSans-6f" x="492.431641"/>
      <use xlink:href="#DejaVuSans-66" x="553.613281"/>
      <use xlink:href="#DejaVuSans-20" x="588.818359"/>
      <use xlink:href="#DejaVuSans-73" x="620.605469"/>
      <use xlink:href="#DejaVuSans-75" x="672.705078"/>
      <use xlink:href="#DejaVuSans-72" x="736.083984"/>
      <use xlink:href="#DejaVuSans-70" x="777.197266"/>
      <use xlink:href="#DejaVuSans-72" x="840.673828"/>
      <use xlink:href="#DejaVuSans-69" x="881.787109"/>
      <use xlink:href="#DejaVuSans-73" x="909.570312"/>
      <use xlink:href="#DejaVuSans-61" x="961.669922"/>
      <use xlink:href="#DejaVuSans-6c" x="1022.949219"/>
      <use xlink:href="#DejaVuSans-20" x="1050.732422"/>
      <use xlink:href="#DejaVuSans-28" x="1082.519531"/>
      <use xlink:href="#DejaVuSans-6d" x="1121.533203"/>
      <use xlink:href="#DejaVuSans-75" x="1218.945312"/>
      <use xlink:href="#DejaVuSans-6c" x="1282.324219"/>
      <use xlink:href="#DejaVuSans-74" x="1310.107422"/>
      <use xlink:href="#DejaVuSans-69" x="1349.316406"/>
      <use xlink:href="#DejaVuSans-70" x="1377.099609"/>
      <use xlink:href="#DejaVuSans-6c" x="1440.576172"/>
      <use xlink:href="#DejaVuSans-69" x="1468.359375"/>
      <use xlink:href="#DejaVuSans-63" x="1496.142578"/>
      <use xlink:href="#DejaVuSans-61" x="1551.123047"/>
      <use xlink:href="#DejaVuSans-74" x="1612.402344"/>
      <use xlink:href="#DejaVuSans-69" x="1651.611328"/>
      <use xlink:href="#DejaVuSans-6f" x="1679.394531"/>
      <use xlink:href="#DejaVuSans-6e" x="1740.576172"/>
      <use xlink:href="#DejaVuSans-29" x="1803.955078"/>
     </g>
    </g>
   </g>
   <g id="matplotlib.axis_2">
    <g id="ytick_1">
     <g id="line2d_6">
      <defs>
       <path id="m8c7542bd33" d="M 0 0 
L -3.5 0 
" style="stroke: #000000; stroke-width: 0.8"/>
      </defs>
      <g>
       <use xlink:href="#m8c7542bd33" x="47.72" y="173.407402" style="stroke: #000000; stroke-width: 0.8"/>
      </g>
     </g>
     <g id="text_7">
      <!-- 0.2 -->
      <g transform="translate(24.816875 177.206621)scale(0.1 -0.1)">
       <use xlink:href="#DejaVuSans-30"/>
       <use xlink:href="#DejaVuSans-2e" x="63.623047"/>
       <use xlink:href="#DejaVuSans-32" x="95.410156"/>
      </g>
     </g>
    </g>
    <g id="ytick_2">
     <g id="line2d_7">
      <g>
       <use xlink:href="#m8c7542bd33" x="47.72" y="136.04378" style="stroke: #000000; stroke-width: 0.8"/>
      </g>
     </g>
     <g id="text_8">
      <!-- 0.4 -->
      <g transform="translate(24.816875 139.842999)scale(0.1 -0.1)">
       <defs>
        <path id="DejaVuSans-34" d="M 2419 4116 
L 825 1625 
L 2419 1625 
L 2419 4116 
z
M 2253 4666 
L 3047 4666 
L 3047 1625 
L 3713 1625 
L 3713 1100 
L 3047 1100 
L 3047 0 
L 2419 0 
L 2419 1100 
L 313 1100 
L 313 1709 
L 2253 4666 
z
" transform="scale(0.015625)"/>
       </defs>
       <use xlink:href="#DejaVuSans-30"/>
       <use xlink:href="#DejaVuSans-2e" x="63.623047"/>
       <use xlink:href="#DejaVuSans-34" x="95.410156"/>
      </g>
     </g>
    </g>
    <g id="ytick_3">
     <g id="line2d_8">
      <g>
       <use xlink:href="#m8c7542bd33" x="47.72" y="98.680159" style="stroke: #000000; stroke-width: 0.8"/>
      </g>
     </g>
     <g id="text_9">
      <!-- 0.6 -->
      <g transform="translate(24.816875 102.479377)scale(0.1 -0.1)">
       <defs>
        <path id="DejaVuSans-36" d="M 2113 2584 
Q 1688 2584 1439 2293 
Q 1191 2003 1191 1497 
Q 1191 994 1439 701 
Q 1688 409 2113 409 
Q 2538 409 2786 701 
Q 3034 994 3034 1497 
Q 3034 2003 2786 2293 
Q 2538 2584 2113 2584 
z
M 3366 4563 
L 3366 3988 
Q 3128 4100 2886 4159 
Q 2644 4219 2406 4219 
Q 1781 4219 1451 3797 
Q 1122 3375 1075 2522 
Q 1259 2794 1537 2939 
Q 1816 3084 2150 3084 
Q 2853 3084 3261 2657 
Q 3669 2231 3669 1497 
Q 3669 778 3244 343 
Q 2819 -91 2113 -91 
Q 1303 -91 875 529 
Q 447 1150 447 2328 
Q 447 3434 972 4092 
Q 1497 4750 2381 4750 
Q 2619 4750 2861 4703 
Q 3103 4656 3366 4563 
z
" transform="scale(0.015625)"/>
       </defs>
       <use xlink:href="#DejaVuSans-30"/>
       <use xlink:href="#DejaVuSans-2e" x="63.623047"/>
       <use xlink:href="#DejaVuSans-36" x="95.410156"/>
      </g>
     </g>
    </g>
    <g id="ytick_4">
     <g id="line2d_9">
      <g>
       <use xlink:href="#m8c7542bd33" x="47.72" y="61.316537" style="stroke: #000000; stroke-width: 0.8"/>
      </g>
     </g>
     <g id="text_10">
      <!-- 0.8 -->
      <g transform="translate(24.816875 65.115756)scale(0.1 -0.1)">
       <defs>
        <path id="DejaVuSans-38" d="M 2034 2216 
Q 1584 2216 1326 1975 
Q 1069 1734 1069 1313 
Q 1069 891 1326 650 
Q 1584 409 2034 409 
Q 2484 409 2743 651 
Q 3003 894 3003 1313 
Q 3003 1734 2745 1975 
Q 2488 2216 2034 2216 
z
M 1403 2484 
Q 997 2584 770 2862 
Q 544 3141 544 3541 
Q 544 4100 942 4425 
Q 1341 4750 2034 4750 
Q 2731 4750 3128 4425 
Q 3525 4100 3525 3541 
Q 3525 3141 3298 2862 
Q 3072 2584 2669 2484 
Q 3125 2378 3379 2068 
Q 3634 1759 3634 1313 
Q 3634 634 3220 271 
Q 2806 -91 2034 -91 
Q 1263 -91 848 271 
Q 434 634 434 1313 
Q 434 1759 690 2068 
Q 947 2378 1403 2484 
z
M 1172 3481 
Q 1172 3119 1398 2916 
Q 1625 2713 2034 2713 
Q 2441 2713 2670 2916 
Q 2900 3119 2900 3481 
Q 2900 3844 2670 4047 
Q 2441 4250 2034 4250 
Q 1625 4250 1398 4047 
Q 1172 3844 1172 3481 
z
" transform="scale(0.015625)"/>
       </defs>
       <use xlink:href="#DejaVuSans-30"/>
       <use xlink:href="#DejaVuSans-2e" x="63.623047"/>
       <use xlink:href="#DejaVuSans-38" x="95.410156"/>
      </g>
     </g>
    </g>
    <g id="text_11">
     <!-- R-value -->
     <g transform="translate(18.737188 119.064687)rotate(-90)scale(0.1 -0.1)">
      <defs>
       <path id="DejaVuSans-52" d="M 2841 2188 
Q 3044 2119 3236 1894 
Q 3428 1669 3622 1275 
L 4263 0 
L 3584 0 
L 2988 1197 
Q 2756 1666 2539 1819 
Q 2322 1972 1947 1972 
L 1259 1972 
L 1259 0 
L 628 0 
L 628 4666 
L 2053 4666 
Q 2853 4666 3247 4331 
Q 3641 3997 3641 3322 
Q 3641 2881 3436 2590 
Q 3231 2300 2841 2188 
z
M 1259 4147 
L 1259 2491 
L 2053 2491 
Q 2509 2491 2742 2702 
Q 2975 2913 2975 3322 
Q 2975 3731 2742 3939 
Q 2509 4147 2053 4147 
L 1259 4147 
z
" transform="scale(0.015625)"/>
       <path id="DejaVuSans-2d" d="M 313 2009 
L 1997 2009 
L 1997 1497 
L 313 1497 
L 313 2009 
z
" transform="scale(0.015625)"/>
       <path id="DejaVuSans-76" d="M 191 3500 
L 800 3500 
L 1894 563 
L 2988 3500 
L 3597 3500 
L 2284 0 
L 1503 0 
L 191 3500 
z
" transform="scale(0.015625)"/>
      </defs>
      <use xlink:href="#DejaVuSans-52"/>
      <use xlink:href="#DejaVuSans-2d" x="65.482422"/>
      <use xlink:href="#DejaVuSans-76" x="98.941406"/>
      <use xlink:href="#DejaVuSans-61" x="158.121094"/>
      <use xlink:href="#DejaVuSans-6c" x="219.400391"/>
      <use xlink:href="#DejaVuSans-75" x="247.183594"/>
      <use xlink:href="#DejaVuSans-65" x="310.5625"/>
     </g>
    </g>
   </g>
   <g id="line2d_10">
    <path d="M 47.72 34.058532 
L 59.167105 34.973275 
L 70.614211 37.75502 
L 82.061316 41.557527 
L 93.508421 47.048972 
L 104.955526 53.032211 
L 116.402632 60.024896 
L 127.849737 67.184101 
L 139.296842 74.529775 
L 150.743947 82.177487 
L 162.191053 89.552952 
L 173.638158 96.599199 
L 185.085263 103.583974 
L 196.532368 109.840707 
L 207.979474 116.445006 
L 219.426579 122.103737 
L 230.873684 127.747226 
L 242.320789 132.698973 
L 253.767895 137.584685 
L 265.215 142.361911 
" clip-path="url(#paca76faa26)" style="fill: none; stroke: #1f77b4; stroke-width: 1.5; stroke-linecap: square"/>
   </g>
   <g id="line2d_11">
    <path d="M 47.72 34.075203 
L 59.167105 34.680167 
L 70.614211 36.107025 
L 82.061316 38.255595 
L 93.508421 41.655924 
L 104.955526 45.367132 
L 116.402632 50.155491 
L 127.849737 55.395419 
L 139.296842 61.119392 
L 150.743947 67.50606 
L 162.191053 73.966865 
L 173.638158 80.385089 
L 185.085263 87.092891 
L 196.532368 93.246761 
L 207.979474 99.81321 
L 219.426579 105.549381 
L 230.873684 111.340319 
L 242.320789 116.488266 
L 253.767895 121.503642 
L 265.215 126.486639 
" clip-path="url(#paca76faa26)" style="fill: none; stroke: #ff7f0e; stroke-width: 1.5; stroke-linecap: square"/>
   </g>
   <g id="line2d_12">
    <path d="M 47.72 34.065729 
L 59.167105 34.778062 
L 70.614211 36.062573 
L 82.061316 37.581184 
L 93.508421 40.107403 
L 104.955526 42.772181 
L 116.402632 45.974507 
L 127.849737 49.289195 
L 139.296842 52.523325 
L 150.743947 55.931462 
L 162.191053 59.807265 
L 173.638158 63.393703 
L 185.085263 66.906623 
L 196.532368 70.325457 
L 207.979474 74.032939 
L 219.426579 77.079682 
L 230.873684 80.725321 
L 242.320789 83.924661 
L 253.767895 87.163522 
L 265.215 90.550935 
" clip-path="url(#paca76faa26)" style="fill: none; stroke: #2ca02c; stroke-width: 1.5; stroke-linecap: square"/>
   </g>
   <g id="line2d_13">
    <path d="M 47.72 34.085623 
L 59.167105 34.656483 
L 70.614211 35.541245 
L 82.061316 36.676855 
L 93.508421 38.701018 
L 104.955526 40.782624 
L 116.402632 43.529402 
L 127.849737 46.524527 
L 139.296842 49.625462 
L 150.743947 53.054447 
L 162.191053 56.992143 
L 173.638158 60.689463 
L 185.085263 64.375026 
L 196.532368 67.943649 
L 207.979474 71.822774 
L 219.426579 74.994799 
L 230.873684 78.735223 
L 242.320789 82.109282 
L 253.767895 85.465226 
L 265.215 88.970119 
" clip-path="url(#paca76faa26)" style="fill: none; stroke: #d62728; stroke-width: 1.5; stroke-linecap: square"/>
   </g>
   <g id="line2d_14">
    <path d="M 47.72 34.075794 
L 59.167105 34.98696 
L 70.614211 37.772168 
L 82.061316 41.588034 
L 93.508421 47.100569 
L 104.955526 53.128757 
L 116.402632 60.067006 
L 127.849737 67.209924 
L 139.296842 74.663996 
L 150.743947 82.28643 
L 162.191053 89.798598 
L 173.638158 96.872816 
L 185.085263 103.789836 
L 196.532368 110.11654 
L 207.979474 116.821075 
L 219.426579 122.272583 
L 230.873684 127.782736 
L 242.320789 132.802504 
L 253.767895 138.225985 
L 265.215 143.069511 
" clip-path="url(#paca76faa26)" style="fill: none; stroke: #9467bd; stroke-width: 1.5; stroke-linecap: square"/>
   </g>
   <g id="line2d_15">
    <path d="M 47.72 34.092882 
L 59.167105 34.69382 
L 70.614211 36.12432 
L 82.061316 38.277425 
L 93.508421 41.698285 
L 104.955526 45.41631 
L 116.402632 50.186789 
L 127.849737 55.440481 
L 139.296842 61.173558 
L 150.743947 67.567845 
L 162.191053 74.133218 
L 173.638158 80.568582 
L 185.085263 87.162112 
L 196.532368 93.427014 
L 207.979474 100.243276 
L 219.426579 105.650061 
L 230.873684 111.336566 
L 242.320789 116.578236 
L 253.767895 121.880411 
L 265.215 126.918043 
" clip-path="url(#paca76faa26)" style="fill: none; stroke: #8c564b; stroke-width: 1.5; stroke-linecap: square"/>
   </g>
   <g id="line2d_16">
    <path d="M 47.72 48.003206 
L 59.167105 49.160029 
L 70.614211 52.416587 
L 82.061316 56.860247 
L 93.508421 63.355765 
L 104.955526 70.2797 
L 116.402632 78.220359 
L 127.849737 86.211833 
L 139.296842 94.030235 
L 150.743947 102.182604 
L 162.191053 109.933015 
L 173.638158 117.20541 
L 185.085263 124.070564 
L 196.532368 130.008535 
L 207.979474 136.144633 
L 219.426579 141.17728 
L 230.873684 146.092589 
L 242.320789 150.147332 
L 253.767895 154.247464 
L 265.215 158.033922 
" clip-path="url(#paca76faa26)" style="fill: none; stroke: #e377c2; stroke-width: 1.5; stroke-linecap: square"/>
   </g>
   <g id="line2d_17">
    <path d="M 47.72 34.087093 
L 59.167105 34.366388 
L 70.614211 34.474246 
L 82.061316 34.845574 
L 93.508421 35.92627 
L 104.955526 37.516233 
L 116.402632 40.092958 
L 127.849737 43.487897 
L 139.296842 47.644029 
L 150.743947 52.675088 
L 162.191053 58.26514 
L 173.638158 64.169014 
L 185.085263 70.277392 
L 196.532368 76.241051 
L 207.979474 82.686909 
L 219.426579 88.548503 
L 230.873684 94.774132 
L 242.320789 100.415426 
L 253.767895 105.963444 
L 265.215 111.653042 
" clip-path="url(#paca76faa26)" style="fill: none; stroke: #7f7f7f; stroke-width: 1.5; stroke-linecap: square"/>
   </g>
   <g id="patch_3">
    <path d="M 47.72 174.04 
L 47.72 26.88 
" style="fill: none; stroke: #000000; stroke-width: 0.8; stroke-linejoin: miter; stroke-linecap: square"/>
   </g>
   <g id="patch_4">
    <path d="M 47.72 174.04 
L 265.215 174.04 
" style="fill: none; stroke: #000000; stroke-width: 0.8; stroke-linejoin: miter; stroke-linecap: square"/>
   </g>
   <g id="text_12">
    <!-- Node * surprisal -->
    <g transform="translate(108.18625 20.88)scale(0.12 -0.12)">
     <defs>
      <path id="DejaVuSans-4e" d="M 628 4666 
L 1478 4666 
L 3547 763 
L 3547 4666 
L 4159 4666 
L 4159 0 
L 3309 0 
L 1241 3903 
L 1241 0 
L 628 0 
L 628 4666 
z
" transform="scale(0.015625)"/>
      <path id="DejaVuSans-64" d="M 2906 2969 
L 2906 4863 
L 3481 4863 
L 3481 0 
L 2906 0 
L 2906 525 
Q 2725 213 2448 61 
Q 2172 -91 1784 -91 
Q 1150 -91 751 415 
Q 353 922 353 1747 
Q 353 2572 751 3078 
Q 1150 3584 1784 3584 
Q 2172 3584 2448 3432 
Q 2725 3281 2906 2969 
z
M 947 1747 
Q 947 1113 1208 752 
Q 1469 391 1925 391 
Q 2381 391 2643 752 
Q 2906 1113 2906 1747 
Q 2906 2381 2643 2742 
Q 2381 3103 1925 3103 
Q 1469 3103 1208 2742 
Q 947 2381 947 1747 
z
" transform="scale(0.015625)"/>
      <path id="DejaVuSans-2a" d="M 3009 3897 
L 1888 3291 
L 3009 2681 
L 2828 2375 
L 1778 3009 
L 1778 1831 
L 1422 1831 
L 1422 3009 
L 372 2375 
L 191 2681 
L 1313 3291 
L 191 3897 
L 372 4206 
L 1422 3572 
L 1422 4750 
L 1778 4750 
L 1778 3572 
L 2828 4206 
L 3009 3897 
z
" transform="scale(0.015625)"/>
     </defs>
     <use xlink:href="#DejaVuSans-4e"/>
     <use xlink:href="#DejaVuSans-6f" x="74.804688"/>
     <use xlink:href="#DejaVuSans-64" x="135.986328"/>
     <use xlink:href="#DejaVuSans-65" x="199.462891"/>
     <use xlink:href="#DejaVuSans-20" x="260.986328"/>
     <use xlink:href="#DejaVuSans-2a" x="292.773438"/>
     <use xlink:href="#DejaVuSans-20" x="342.773438"/>
     <use xlink:href="#DejaVuSans-73" x="374.560547"/>
     <use xlink:href="#DejaVuSans-75" x="426.660156"/>
     <use xlink:href="#DejaVuSans-72" x="490.039062"/>
     <use xlink:href="#DejaVuSans-70" x="531.152344"/>
     <use xlink:href="#DejaVuSans-72" x="594.628906"/>
     <use xlink:href="#DejaVuSans-69" x="635.742188"/>
     <use xlink:href="#DejaVuSans-73" x="663.525391"/>
     <use xlink:href="#DejaVuSans-61" x="715.625"/>
     <use xlink:href="#DejaVuSans-6c" x="776.904297"/>
    </g>
   </g>
  </g>
  <g id="axes_2">
   <g id="patch_5">
    <path d="M 298.065 174.04 
L 515.56 174.04 
L 515.56 26.88 
L 298.065 26.88 
z
" style="fill: #ffffff"/>
   </g>
   <g id="PolyCollection_9">
    <path d="M 298.065 33.590633 
L 298.065 34.44268 
L 309.512105 35.527369 
L 320.959211 38.87137 
L 332.406316 43.385034 
L 343.853421 49.830847 
L 355.300526 57.001777 
L 366.747632 64.441086 
L 378.194737 72.103999 
L 389.641842 80.029484 
L 401.088947 87.983182 
L 412.536053 95.350282 
L 423.983158 103.177599 
L 435.430263 110.192214 
L 446.877368 116.444387 
L 458.324474 123.641501 
L 469.771579 129.028197 
L 481.218684 134.947896 
L 492.665789 139.44715 
L 504.112895 143.830934 
L 515.56 148.778227 
L 515.56 134.874652 
L 515.56 134.874652 
L 504.112895 129.610327 
L 492.665789 125.401218 
L 481.218684 120.260559 
L 469.771579 114.464237 
L 458.324474 108.71234 
L 446.877368 102.807242 
L 435.430263 96.45977 
L 423.983158 90.54173 
L 412.536053 83.215023 
L 401.088947 76.554961 
L 389.641842 69.673585 
L 378.194737 62.37848 
L 366.747632 56.452509 
L 355.300526 50.291462 
L 343.853421 44.993657 
L 332.406316 40.437907 
L 320.959211 37.110673 
L 309.512105 34.604785 
L 298.065 33.590633 
z
" clip-path="url(#p320cb924c9)" style="fill: #1f77b4; fill-opacity: 0.4"/>
   </g>
   <g id="PolyCollection_10">
    <path d="M 298.065 33.60813 
L 298.065 34.464769 
L 309.512105 35.55158 
L 320.959211 38.887809 
L 332.406316 43.39131 
L 343.853421 49.840612 
L 355.300526 57.008486 
L 366.747632 64.448826 
L 378.194737 72.094213 
L 389.641842 80.044232 
L 401.088947 87.999741 
L 412.536053 95.373908 
L 423.983158 103.213232 
L 435.430263 110.255916 
L 446.877368 116.532399 
L 458.324474 123.727707 
L 469.771579 129.128471 
L 481.218684 135.080673 
L 492.665789 139.58892 
L 504.112895 143.977872 
L 515.56 148.96464 
L 515.56 135.013554 
L 515.56 135.013554 
L 504.112895 129.707706 
L 492.665789 125.527135 
L 481.218684 120.407031 
L 469.771579 114.567007 
L 458.324474 108.852503 
L 446.877368 102.8777 
L 435.430263 96.553164 
L 423.983158 90.588589 
L 412.536053 83.251986 
L 401.088947 76.593718 
L 389.641842 69.686439 
L 378.194737 62.383456 
L 366.747632 56.456985 
L 355.300526 50.29282 
L 343.853421 45.014893 
L 332.406316 40.462732 
L 320.959211 37.131857 
L 309.512105 34.619599 
L 298.065 33.60813 
z
" clip-path="url(#p320cb924c9)" style="fill: #ff7f0e; fill-opacity: 0.4"/>
   </g>
   <g id="PolyCollection_11">
    <path d="M 298.065 33.605428 
L 298.065 34.466823 
L 309.512105 35.547287 
L 320.959211 38.872441 
L 332.406316 43.397486 
L 343.853421 49.877892 
L 355.300526 57.072646 
L 366.747632 64.507923 
L 378.194737 72.241065 
L 389.641842 80.183759 
L 401.088947 88.193881 
L 412.536053 95.552525 
L 423.983158 103.467109 
L 435.430263 110.531335 
L 446.877368 116.842498 
L 458.324474 124.138704 
L 469.771579 129.717217 
L 481.218684 135.698903 
L 492.665789 140.258491 
L 504.112895 144.927114 
L 515.56 149.841441 
L 515.56 134.885866 
L 515.56 134.885866 
L 504.112895 129.582331 
L 492.665789 125.390109 
L 481.218684 120.245553 
L 469.771579 114.491565 
L 458.324474 108.667233 
L 446.877368 102.811202 
L 435.430263 96.494697 
L 423.983158 90.609771 
L 412.536053 83.251747 
L 401.088947 76.597086 
L 389.641842 69.718814 
L 378.194737 62.454472 
L 366.747632 56.498702 
L 355.300526 50.326638 
L 343.853421 45.042318 
L 332.406316 40.45973 
L 320.959211 37.131065 
L 309.512105 34.620705 
L 298.065 33.605428 
z
" clip-path="url(#p320cb924c9)" style="fill: #2ca02c; fill-opacity: 0.4"/>
   </g>
   <g id="PolyCollection_12">
    <path d="M 298.065 33.620742 
L 298.065 34.489912 
L 309.512105 35.576892 
L 320.959211 38.883993 
L 332.406316 43.397977 
L 343.853421 49.875091 
L 355.300526 57.060414 
L 366.747632 64.492918 
L 378.194737 72.212001 
L 389.641842 80.15423 
L 401.088947 88.161751 
L 412.536053 95.527565 
L 423.983158 103.442915 
L 435.430263 110.472959 
L 446.877368 116.772994 
L 458.324474 124.05028 
L 469.771579 129.667636 
L 481.218684 135.638087 
L 492.665789 140.232742 
L 504.112895 144.893818 
L 515.56 149.78553 
L 515.56 135.214482 
L 515.56 135.214482 
L 504.112895 129.840908 
L 492.665789 125.579584 
L 481.218684 120.458116 
L 469.771579 114.571332 
L 458.324474 108.783743 
L 446.877368 102.856148 
L 435.430263 96.568883 
L 423.983158 90.642858 
L 412.536053 83.258046 
L 401.088947 76.612657 
L 389.641842 69.686936 
L 378.194737 62.430911 
L 366.747632 56.470327 
L 355.300526 50.32483 
L 343.853421 45.053461 
L 332.406316 40.471675 
L 320.959211 37.138209 
L 309.512105 34.637386 
L 298.065 33.620742 
z
" clip-path="url(#p320cb924c9)" style="fill: #d62728; fill-opacity: 0.4"/>
   </g>
   <g id="PolyCollection_13">
    <path d="M 298.065 33.604958 
L 298.065 34.464174 
L 309.512105 35.556568 
L 320.959211 38.868961 
L 332.406316 43.397221 
L 343.853421 49.808151 
L 355.300526 57.077004 
L 366.747632 64.41613 
L 378.194737 72.222728 
L 389.641842 80.224968 
L 401.088947 87.859109 
L 412.536053 95.460714 
L 423.983158 103.304031 
L 435.430263 110.176202 
L 446.877368 116.436886 
L 458.324474 123.996907 
L 469.771579 129.337098 
L 481.218684 135.646482 
L 492.665789 139.407646 
L 504.112895 143.808567 
L 515.56 149.273269 
L 515.56 135.680527 
L 515.56 135.680527 
L 504.112895 130.395799 
L 492.665789 126.307577 
L 481.218684 120.720187 
L 469.771579 114.942834 
L 458.324474 108.626734 
L 446.877368 102.913764 
L 435.430263 96.69925 
L 423.983158 90.627837 
L 412.536053 83.215657 
L 401.088947 76.531658 
L 389.641842 69.606219 
L 378.194737 62.419079 
L 366.747632 56.507052 
L 355.300526 50.414653 
L 343.853421 45.062401 
L 332.406316 40.471112 
L 320.959211 37.124484 
L 309.512105 34.614447 
L 298.065 33.604958 
z
" clip-path="url(#p320cb924c9)" style="fill: #9467bd; fill-opacity: 0.4"/>
   </g>
   <g id="PolyCollection_14">
    <path d="M 298.065 33.623008 
L 298.065 34.486501 
L 309.512105 35.581199 
L 320.959211 38.886951 
L 332.406316 43.404545 
L 343.853421 49.818607 
L 355.300526 57.084106 
L 366.747632 64.417784 
L 378.194737 72.211159 
L 389.641842 80.237992 
L 401.088947 87.868139 
L 412.536053 95.484635 
L 423.983158 103.338449 
L 435.430263 110.239573 
L 446.877368 116.525834 
L 458.324474 124.076101 
L 469.771579 129.44146 
L 481.218684 135.75955 
L 492.665789 139.538433 
L 504.112895 143.949758 
L 515.56 149.46469 
L 515.56 135.796763 
L 515.56 135.796763 
L 504.112895 130.539759 
L 492.665789 126.437453 
L 481.218684 120.879268 
L 469.771579 115.045565 
L 458.324474 108.767344 
L 446.877368 102.982474 
L 435.430263 96.786682 
L 423.983158 90.668792 
L 412.536053 83.252454 
L 401.088947 76.564896 
L 389.641842 69.617391 
L 378.194737 62.418413 
L 366.747632 56.513142 
L 355.300526 50.414785 
L 343.853421 45.085046 
L 332.406316 40.494735 
L 320.959211 37.145478 
L 309.512105 34.629703 
L 298.065 33.623008 
z
" clip-path="url(#p320cb924c9)" style="fill: #8c564b; fill-opacity: 0.4"/>
   </g>
   <g id="PolyCollection_15">
    <path d="M 298.065 46.252292 
L 298.065 49.738761 
L 309.512105 50.805563 
L 320.959211 53.530194 
L 332.406316 57.773225 
L 343.853421 63.551117 
L 355.300526 70.213131 
L 366.747632 76.687889 
L 378.194737 83.613556 
L 389.641842 90.751423 
L 401.088947 98.124867 
L 412.536053 105.147951 
L 423.983158 112.419487 
L 435.430263 119.136299 
L 446.877368 125.044014 
L 458.324474 131.946017 
L 469.771579 136.813725 
L 481.218684 142.569157 
L 492.665789 146.673702 
L 504.112895 150.865293 
L 515.56 155.659055 
L 515.56 140.108305 
L 515.56 140.108305 
L 504.112895 135.216798 
L 492.665789 131.414165 
L 481.218684 126.244238 
L 469.771579 121.02124 
L 458.324474 115.637995 
L 446.877368 110.250787 
L 435.430263 104.203699 
L 423.983158 98.901022 
L 412.536053 92.380834 
L 401.088947 86.359984 
L 389.641842 80.138673 
L 378.194737 73.376446 
L 366.747632 67.952226 
L 355.300526 62.119352 
L 343.853421 57.422529 
L 332.406316 53.070257 
L 320.959211 49.941159 
L 309.512105 47.137764 
L 298.065 46.252292 
z
" clip-path="url(#p320cb924c9)" style="fill: #e377c2; fill-opacity: 0.4"/>
   </g>
   <g id="PolyCollection_16">
    <path d="M 298.065 33.6168 
L 298.065 34.483054 
L 309.512105 35.596117 
L 320.959211 38.905374 
L 332.406316 43.426982 
L 343.853421 49.896818 
L 355.300526 57.112214 
L 366.747632 64.596634 
L 378.194737 72.318434 
L 389.641842 80.314427 
L 401.088947 88.377736 
L 412.536053 95.821949 
L 423.983158 103.77024 
L 435.430263 110.890626 
L 446.877368 117.216992 
L 458.324474 124.519314 
L 469.771579 130.039873 
L 481.218684 136.073144 
L 492.665789 140.655095 
L 504.112895 145.075677 
L 515.56 150.12659 
L 515.56 135.325607 
L 515.56 135.325607 
L 504.112895 129.938061 
L 492.665789 125.719208 
L 481.218684 120.617559 
L 469.771579 114.696575 
L 458.324474 108.925869 
L 446.877368 103.009052 
L 435.430263 96.624813 
L 423.983158 90.650275 
L 412.536053 83.31563 
L 401.088947 76.642381 
L 389.641842 69.742663 
L 378.194737 62.403293 
L 366.747632 56.468392 
L 355.300526 50.295342 
L 343.853421 45.027435 
L 332.406316 40.461691 
L 320.959211 37.135536 
L 309.512105 34.639317 
L 298.065 33.6168 
z
" clip-path="url(#p320cb924c9)" style="fill: #7f7f7f; fill-opacity: 0.4"/>
   </g>
   <g id="matplotlib.axis_3">
    <g id="xtick_6">
     <g id="line2d_18">
      <g>
       <use xlink:href="#m5f3dbc2ea3" x="298.065" y="174.04" style="stroke: #000000; stroke-width: 0.8"/>
      </g>
     </g>
     <g id="text_13">
      <!-- 0.0 -->
      <g transform="translate(290.113437 188.638438)scale(0.1 -0.1)">
       <use xlink:href="#DejaVuSans-30"/>
       <use xlink:href="#DejaVuSans-2e" x="63.623047"/>
       <use xlink:href="#DejaVuSans-30" x="95.410156"/>
      </g>
     </g>
    </g>
    <g id="xtick_7">
     <g id="line2d_19">
      <g>
       <use xlink:href="#m5f3dbc2ea3" x="352.43875" y="174.04" style="stroke: #000000; stroke-width: 0.8"/>
      </g>
     </g>
     <g id="text_14">
      <!-- 0.5 -->
      <g transform="translate(344.487187 188.638438)scale(0.1 -0.1)">
       <use xlink:href="#DejaVuSans-30"/>
       <use xlink:href="#DejaVuSans-2e" x="63.623047"/>
       <use xlink:href="#DejaVuSans-35" x="95.410156"/>
      </g>
     </g>
    </g>
    <g id="xtick_8">
     <g id="line2d_20">
      <g>
       <use xlink:href="#m5f3dbc2ea3" x="406.8125" y="174.04" style="stroke: #000000; stroke-width: 0.8"/>
      </g>
     </g>
     <g id="text_15">
      <!-- 1.0 -->
      <g transform="translate(398.860937 188.638438)scale(0.1 -0.1)">
       <use xlink:href="#DejaVuSans-31"/>
       <use xlink:href="#DejaVuSans-2e" x="63.623047"/>
       <use xlink:href="#DejaVuSans-30" x="95.410156"/>
      </g>
     </g>
    </g>
    <g id="xtick_9">
     <g id="line2d_21">
      <g>
       <use xlink:href="#m5f3dbc2ea3" x="461.18625" y="174.04" style="stroke: #000000; stroke-width: 0.8"/>
      </g>
     </g>
     <g id="text_16">
      <!-- 1.5 -->
      <g transform="translate(453.234687 188.638438)scale(0.1 -0.1)">
       <use xlink:href="#DejaVuSans-31"/>
       <use xlink:href="#DejaVuSans-2e" x="63.623047"/>
       <use xlink:href="#DejaVuSans-35" x="95.410156"/>
      </g>
     </g>
    </g>
    <g id="xtick_10">
     <g id="line2d_22">
      <g>
       <use xlink:href="#m5f3dbc2ea3" x="515.56" y="174.04" style="stroke: #000000; stroke-width: 0.8"/>
      </g>
     </g>
     <g id="text_17">
      <!-- 2.0 -->
      <g transform="translate(507.608437 188.638438)scale(0.1 -0.1)">
       <use xlink:href="#DejaVuSans-32"/>
       <use xlink:href="#DejaVuSans-2e" x="63.623047"/>
       <use xlink:href="#DejaVuSans-30" x="95.410156"/>
      </g>
     </g>
    </g>
    <g id="text_18">
     <!-- Influence of surprisal (multiplication) -->
     <g transform="translate(314.665625 202.316563)scale(0.1 -0.1)">
      <use xlink:href="#DejaVuSans-49"/>
      <use xlink:href="#DejaVuSans-6e" x="29.492188"/>
      <use xlink:href="#DejaVuSans-66" x="92.871094"/>
      <use xlink:href="#DejaVuSans-6c" x="128.076172"/>
      <use xlink:href="#DejaVuSans-75" x="155.859375"/>
      <use xlink:href="#DejaVuSans-65" x="219.238281"/>
      <use xlink:href="#DejaVuSans-6e" x="280.761719"/>
      <use xlink:href="#DejaVuSans-63" x="344.140625"/>
      <use xlink:href="#DejaVuSans-65" x="399.121094"/>
      <use xlink:href="#DejaVuSans-20" x="460.644531"/>
      <use xlink:href="#DejaVuSans-6f" x="492.431641"/>
      <use xlink:href="#DejaVuSans-66" x="553.613281"/>
      <use xlink:href="#DejaVuSans-20" x="588.818359"/>
      <use xlink:href="#DejaVuSans-73" x="620.605469"/>
      <use xlink:href="#DejaVuSans-75" x="672.705078"/>
      <use xlink:href="#DejaVuSans-72" x="736.083984"/>
      <use xlink:href="#DejaVuSans-70" x="777.197266"/>
      <use xlink:href="#DejaVuSans-72" x="840.673828"/>
      <use xlink:href="#DejaVuSans-69" x="881.787109"/>
      <use xlink:href="#DejaVuSans-73" x="909.570312"/>
      <use xlink:href="#DejaVuSans-61" x="961.669922"/>
      <use xlink:href="#DejaVuSans-6c" x="1022.949219"/>
      <use xlink:href="#DejaVuSans-20" x="1050.732422"/>
      <use xlink:href="#DejaVuSans-28" x="1082.519531"/>
      <use xlink:href="#DejaVuSans-6d" x="1121.533203"/>
      <use xlink:href="#DejaVuSans-75" x="1218.945312"/>
      <use xlink:href="#DejaVuSans-6c" x="1282.324219"/>
      <use xlink:href="#DejaVuSans-74" x="1310.107422"/>
      <use xlink:href="#DejaVuSans-69" x="1349.316406"/>
      <use xlink:href="#DejaVuSans-70" x="1377.099609"/>
      <use xlink:href="#DejaVuSans-6c" x="1440.576172"/>
      <use xlink:href="#DejaVuSans-69" x="1468.359375"/>
      <use xlink:href="#DejaVuSans-63" x="1496.142578"/>
      <use xlink:href="#DejaVuSans-61" x="1551.123047"/>
      <use xlink:href="#DejaVuSans-74" x="1612.402344"/>
      <use xlink:href="#DejaVuSans-69" x="1651.611328"/>
      <use xlink:href="#DejaVuSans-6f" x="1679.394531"/>
      <use xlink:href="#DejaVuSans-6e" x="1740.576172"/>
      <use xlink:href="#DejaVuSans-29" x="1803.955078"/>
     </g>
    </g>
   </g>
   <g id="line2d_23">
    <path d="M 298.065 34.016657 
L 309.512105 35.066077 
L 320.959211 37.991022 
L 332.406316 41.91147 
L 343.853421 47.412252 
L 355.300526 53.64662 
L 366.747632 60.446797 
L 378.194737 67.241239 
L 389.641842 74.851535 
L 401.088947 82.269072 
L 412.536053 89.282653 
L 423.983158 96.859665 
L 435.430263 103.325992 
L 446.877368 109.625815 
L 458.324474 116.176921 
L 469.771579 121.746217 
L 481.218684 127.604228 
L 492.665789 132.424184 
L 504.112895 136.72063 
L 515.56 141.826439 
" clip-path="url(#p320cb924c9)" style="fill: none; stroke: #1f77b4; stroke-width: 1.5; stroke-linecap: square"/>
   </g>
   <g id="line2d_24">
    <path d="M 298.065 34.03645 
L 309.512105 35.08559 
L 320.959211 38.009833 
L 332.406316 41.927021 
L 343.853421 47.427753 
L 355.300526 53.650653 
L 366.747632 60.452906 
L 378.194737 67.238835 
L 389.641842 74.865335 
L 401.088947 82.296729 
L 412.536053 89.312947 
L 423.983158 96.90091 
L 435.430263 103.40454 
L 446.877368 109.70505 
L 458.324474 116.290105 
L 469.771579 121.847739 
L 481.218684 127.743852 
L 492.665789 132.558028 
L 504.112895 136.842789 
L 515.56 141.989097 
" clip-path="url(#p320cb924c9)" style="fill: none; stroke: #ff7f0e; stroke-width: 1.5; stroke-linecap: square"/>
   </g>
   <g id="line2d_25">
    <path d="M 298.065 34.036125 
L 309.512105 35.083996 
L 320.959211 38.001753 
L 332.406316 41.928608 
L 343.853421 47.460105 
L 355.300526 53.699642 
L 366.747632 60.503312 
L 378.194737 67.347769 
L 389.641842 74.951287 
L 401.088947 82.395484 
L 412.536053 89.402136 
L 423.983158 97.03844 
L 435.430263 103.513016 
L 446.877368 109.82685 
L 458.324474 116.402968 
L 469.771579 122.104391 
L 481.218684 127.972228 
L 492.665789 132.8243 
L 504.112895 137.254723 
L 515.56 142.363653 
" clip-path="url(#p320cb924c9)" style="fill: none; stroke: #2ca02c; stroke-width: 1.5; stroke-linecap: square"/>
   </g>
   <g id="line2d_26">
    <path d="M 298.065 34.055327 
L 309.512105 35.107139 
L 320.959211 38.011101 
L 332.406316 41.934826 
L 343.853421 47.464276 
L 355.300526 53.692622 
L 366.747632 60.481622 
L 378.194737 67.321456 
L 389.641842 74.920583 
L 401.088947 82.387204 
L 412.536053 89.392806 
L 423.983158 97.042886 
L 435.430263 103.520921 
L 446.877368 109.814571 
L 458.324474 116.417011 
L 469.771579 122.119484 
L 481.218684 128.048101 
L 492.665789 132.906163 
L 504.112895 137.367363 
L 515.56 142.500006 
" clip-path="url(#p320cb924c9)" style="fill: none; stroke: #d62728; stroke-width: 1.5; stroke-linecap: square"/>
   </g>
   <g id="line2d_27">
    <path d="M 298.065 34.034566 
L 309.512105 35.085507 
L 320.959211 37.996722 
L 332.406316 41.934167 
L 343.853421 47.435276 
L 355.300526 53.745829 
L 366.747632 60.461591 
L 378.194737 67.320904 
L 389.641842 74.915594 
L 401.088947 82.195384 
L 412.536053 89.338186 
L 423.983158 96.965934 
L 435.430263 103.437726 
L 446.877368 109.675325 
L 458.324474 116.311821 
L 469.771579 122.139966 
L 481.218684 128.183335 
L 492.665789 132.857611 
L 504.112895 137.102183 
L 515.56 142.476898 
" clip-path="url(#p320cb924c9)" style="fill: none; stroke: #9467bd; stroke-width: 1.5; stroke-linecap: square"/>
   </g>
   <g id="line2d_28">
    <path d="M 298.065 34.054754 
L 309.512105 35.105451 
L 320.959211 38.016215 
L 332.406316 41.94964 
L 343.853421 47.451826 
L 355.300526 53.749446 
L 366.747632 60.465463 
L 378.194737 67.314786 
L 389.641842 74.927691 
L 401.088947 82.216517 
L 412.536053 89.368545 
L 423.983158 97.00362 
L 435.430263 103.513127 
L 446.877368 109.754154 
L 458.324474 116.421723 
L 469.771579 122.243513 
L 481.218684 128.319409 
L 492.665789 132.987943 
L 504.112895 137.244758 
L 515.56 142.630727 
" clip-path="url(#p320cb924c9)" style="fill: none; stroke: #8c564b; stroke-width: 1.5; stroke-linecap: square"/>
   </g>
   <g id="line2d_29">
    <path d="M 298.065 47.995526 
L 309.512105 48.971663 
L 320.959211 51.735676 
L 332.406316 55.421741 
L 343.853421 60.486823 
L 355.300526 66.166242 
L 366.747632 72.320058 
L 378.194737 78.495001 
L 389.641842 85.445048 
L 401.088947 92.242425 
L 412.536053 98.764393 
L 423.983158 105.660254 
L 435.430263 111.669999 
L 446.877368 117.647401 
L 458.324474 123.792006 
L 469.771579 128.917482 
L 481.218684 134.406697 
L 492.665789 139.043934 
L 504.112895 143.041045 
L 515.56 147.88368 
" clip-path="url(#p320cb924c9)" style="fill: none; stroke: #e377c2; stroke-width: 1.5; stroke-linecap: square"/>
   </g>
   <g id="line2d_30">
    <path d="M 298.065 34.049927 
L 309.512105 35.117717 
L 320.959211 38.020455 
L 332.406316 41.944336 
L 343.853421 47.462127 
L 355.300526 53.703778 
L 366.747632 60.532513 
L 378.194737 67.360864 
L 389.641842 75.028545 
L 401.088947 82.510059 
L 412.536053 89.568789 
L 423.983158 97.210257 
L 435.430263 103.757719 
L 446.877368 110.113022 
L 458.324474 116.722591 
L 469.771579 122.368224 
L 481.218684 128.345352 
L 492.665789 133.187151 
L 504.112895 137.506869 
L 515.56 142.726099 
" clip-path="url(#p320cb924c9)" style="fill: none; stroke: #7f7f7f; stroke-width: 1.5; stroke-linecap: square"/>
   </g>
   <g id="patch_6">
    <path d="M 298.065 174.04 
L 298.065 26.88 
" style="fill: none; stroke: #000000; stroke-width: 0.8; stroke-linejoin: miter; stroke-linecap: square"/>
   </g>
   <g id="patch_7">
    <path d="M 298.065 174.04 
L 515.56 174.04 
" style="fill: none; stroke: #000000; stroke-width: 0.8; stroke-linejoin: miter; stroke-linecap: square"/>
   </g>
   <g id="text_19">
    <!-- Node * third variable -->
    <g transform="translate(344.2325 20.88)scale(0.12 -0.12)">
     <defs>
      <path id="DejaVuSans-68" d="M 3513 2113 
L 3513 0 
L 2938 0 
L 2938 2094 
Q 2938 2591 2744 2837 
Q 2550 3084 2163 3084 
Q 1697 3084 1428 2787 
Q 1159 2491 1159 1978 
L 1159 0 
L 581 0 
L 581 4863 
L 1159 4863 
L 1159 2956 
Q 1366 3272 1645 3428 
Q 1925 3584 2291 3584 
Q 2894 3584 3203 3211 
Q 3513 2838 3513 2113 
z
" transform="scale(0.015625)"/>
      <path id="DejaVuSans-62" d="M 3116 1747 
Q 3116 2381 2855 2742 
Q 2594 3103 2138 3103 
Q 1681 3103 1420 2742 
Q 1159 2381 1159 1747 
Q 1159 1113 1420 752 
Q 1681 391 2138 391 
Q 2594 391 2855 752 
Q 3116 1113 3116 1747 
z
M 1159 2969 
Q 1341 3281 1617 3432 
Q 1894 3584 2278 3584 
Q 2916 3584 3314 3078 
Q 3713 2572 3713 1747 
Q 3713 922 3314 415 
Q 2916 -91 2278 -91 
Q 1894 -91 1617 61 
Q 1341 213 1159 525 
L 1159 0 
L 581 0 
L 581 4863 
L 1159 4863 
L 1159 2969 
z
" transform="scale(0.015625)"/>
     </defs>
     <use xlink:href="#DejaVuSans-4e"/>
     <use xlink:href="#DejaVuSans-6f" x="74.804688"/>
     <use xlink:href="#DejaVuSans-64" x="135.986328"/>
     <use xlink:href="#DejaVuSans-65" x="199.462891"/>
     <use xlink:href="#DejaVuSans-20" x="260.986328"/>
     <use xlink:href="#DejaVuSans-2a" x="292.773438"/>
     <use xlink:href="#DejaVuSans-20" x="342.773438"/>
     <use xlink:href="#DejaVuSans-74" x="374.560547"/>
     <use xlink:href="#DejaVuSans-68" x="413.769531"/>
     <use xlink:href="#DejaVuSans-69" x="477.148438"/>
     <use xlink:href="#DejaVuSans-72" x="504.931641"/>
     <use xlink:href="#DejaVuSans-64" x="544.294922"/>
     <use xlink:href="#DejaVuSans-20" x="607.771484"/>
     <use xlink:href="#DejaVuSans-76" x="639.558594"/>
     <use xlink:href="#DejaVuSans-61" x="698.738281"/>
     <use xlink:href="#DejaVuSans-72" x="760.017578"/>
     <use xlink:href="#DejaVuSans-69" x="801.130859"/>
     <use xlink:href="#DejaVuSans-61" x="828.914062"/>
     <use xlink:href="#DejaVuSans-62" x="890.193359"/>
     <use xlink:href="#DejaVuSans-6c" x="953.669922"/>
     <use xlink:href="#DejaVuSans-65" x="981.453125"/>
    </g>
   </g>
   <g id="legend_1">
    <g id="line2d_31">
     <path d="M 524.56 39.978437 
L 534.56 39.978437 
L 544.56 39.978437 
" style="fill: none; stroke: #1f77b4; stroke-width: 1.5; stroke-linecap: square"/>
    </g>
    <g id="text_20">
     <!-- Node -->
     <g transform="translate(552.56 43.478437)scale(0.1 -0.1)">
      <use xlink:href="#DejaVuSans-4e"/>
      <use xlink:href="#DejaVuSans-6f" x="74.804688"/>
      <use xlink:href="#DejaVuSans-64" x="135.986328"/>
      <use xlink:href="#DejaVuSans-65" x="199.462891"/>
     </g>
    </g>
    <g id="line2d_32">
     <path d="M 524.56 54.656563 
L 534.56 54.656563 
L 544.56 54.656563 
" style="fill: none; stroke: #ff7f0e; stroke-width: 1.5; stroke-linecap: square"/>
    </g>
    <g id="text_21">
     <!-- Node + surprisal -->
     <g transform="translate(552.56 58.156563)scale(0.1 -0.1)">
      <defs>
       <path id="DejaVuSans-2b" d="M 2944 4013 
L 2944 2272 
L 4684 2272 
L 4684 1741 
L 2944 1741 
L 2944 0 
L 2419 0 
L 2419 1741 
L 678 1741 
L 678 2272 
L 2419 2272 
L 2419 4013 
L 2944 4013 
z
" transform="scale(0.015625)"/>
      </defs>
      <use xlink:href="#DejaVuSans-4e"/>
      <use xlink:href="#DejaVuSans-6f" x="74.804688"/>
      <use xlink:href="#DejaVuSans-64" x="135.986328"/>
      <use xlink:href="#DejaVuSans-65" x="199.462891"/>
      <use xlink:href="#DejaVuSans-20" x="260.986328"/>
      <use xlink:href="#DejaVuSans-2b" x="292.773438"/>
      <use xlink:href="#DejaVuSans-20" x="376.5625"/>
      <use xlink:href="#DejaVuSans-73" x="408.349609"/>
      <use xlink:href="#DejaVuSans-75" x="460.449219"/>
      <use xlink:href="#DejaVuSans-72" x="523.828125"/>
      <use xlink:href="#DejaVuSans-70" x="564.941406"/>
      <use xlink:href="#DejaVuSans-72" x="628.417969"/>
      <use xlink:href="#DejaVuSans-69" x="669.53125"/>
      <use xlink:href="#DejaVuSans-73" x="697.314453"/>
      <use xlink:href="#DejaVuSans-61" x="749.414062"/>
      <use xlink:href="#DejaVuSans-6c" x="810.693359"/>
     </g>
    </g>
    <g id="line2d_33">
     <path d="M 524.56 69.334687 
L 534.56 69.334687 
L 544.56 69.334687 
" style="fill: none; stroke: #2ca02c; stroke-width: 1.5; stroke-linecap: square"/>
    </g>
    <g id="text_22">
     <!-- Node split -->
     <g transform="translate(552.56 72.834687)scale(0.1 -0.1)">
      <use xlink:href="#DejaVuSans-4e"/>
      <use xlink:href="#DejaVuSans-6f" x="74.804688"/>
      <use xlink:href="#DejaVuSans-64" x="135.986328"/>
      <use xlink:href="#DejaVuSans-65" x="199.462891"/>
      <use xlink:href="#DejaVuSans-20" x="260.986328"/>
      <use xlink:href="#DejaVuSans-73" x="292.773438"/>
      <use xlink:href="#DejaVuSans-70" x="344.873047"/>
      <use xlink:href="#DejaVuSans-6c" x="408.349609"/>
      <use xlink:href="#DejaVuSans-69" x="436.132812"/>
      <use xlink:href="#DejaVuSans-74" x="463.916016"/>
     </g>
    </g>
    <g id="line2d_34">
     <path d="M 524.56 84.012812 
L 534.56 84.012812 
L 544.56 84.012812 
" style="fill: none; stroke: #d62728; stroke-width: 1.5; stroke-linecap: square"/>
    </g>
    <g id="text_23">
     <!-- Node split + surprisal -->
     <g transform="translate(552.56 87.512812)scale(0.1 -0.1)">
      <use xlink:href="#DejaVuSans-4e"/>
      <use xlink:href="#DejaVuSans-6f" x="74.804688"/>
      <use xlink:href="#DejaVuSans-64" x="135.986328"/>
      <use xlink:href="#DejaVuSans-65" x="199.462891"/>
      <use xlink:href="#DejaVuSans-20" x="260.986328"/>
      <use xlink:href="#DejaVuSans-73" x="292.773438"/>
      <use xlink:href="#DejaVuSans-70" x="344.873047"/>
      <use xlink:href="#DejaVuSans-6c" x="408.349609"/>
      <use xlink:href="#DejaVuSans-69" x="436.132812"/>
      <use xlink:href="#DejaVuSans-74" x="463.916016"/>
      <use xlink:href="#DejaVuSans-20" x="503.125"/>
      <use xlink:href="#DejaVuSans-2b" x="534.912109"/>
      <use xlink:href="#DejaVuSans-20" x="618.701172"/>
      <use xlink:href="#DejaVuSans-73" x="650.488281"/>
      <use xlink:href="#DejaVuSans-75" x="702.587891"/>
      <use xlink:href="#DejaVuSans-72" x="765.966797"/>
      <use xlink:href="#DejaVuSans-70" x="807.080078"/>
      <use xlink:href="#DejaVuSans-72" x="870.556641"/>
      <use xlink:href="#DejaVuSans-69" x="911.669922"/>
      <use xlink:href="#DejaVuSans-73" x="939.453125"/>
      <use xlink:href="#DejaVuSans-61" x="991.552734"/>
      <use xlink:href="#DejaVuSans-6c" x="1052.832031"/>
     </g>
    </g>
    <g id="line2d_35">
     <path d="M 524.56 98.690937 
L 534.56 98.690937 
L 544.56 98.690937 
" style="fill: none; stroke: #9467bd; stroke-width: 1.5; stroke-linecap: square"/>
    </g>
    <g id="text_24">
     <!-- Node random split -->
     <g transform="translate(552.56 102.190937)scale(0.1 -0.1)">
      <use xlink:href="#DejaVuSans-4e"/>
      <use xlink:href="#DejaVuSans-6f" x="74.804688"/>
      <use xlink:href="#DejaVuSans-64" x="135.986328"/>
      <use xlink:href="#DejaVuSans-65" x="199.462891"/>
      <use xlink:href="#DejaVuSans-20" x="260.986328"/>
      <use xlink:href="#DejaVuSans-72" x="292.773438"/>
      <use xlink:href="#DejaVuSans-61" x="333.886719"/>
      <use xlink:href="#DejaVuSans-6e" x="395.166016"/>
      <use xlink:href="#DejaVuSans-64" x="458.544922"/>
      <use xlink:href="#DejaVuSans-6f" x="522.021484"/>
      <use xlink:href="#DejaVuSans-6d" x="583.203125"/>
      <use xlink:href="#DejaVuSans-20" x="680.615234"/>
      <use xlink:href="#DejaVuSans-73" x="712.402344"/>
      <use xlink:href="#DejaVuSans-70" x="764.501953"/>
      <use xlink:href="#DejaVuSans-6c" x="827.978516"/>
      <use xlink:href="#DejaVuSans-69" x="855.761719"/>
      <use xlink:href="#DejaVuSans-74" x="883.544922"/>
     </g>
    </g>
    <g id="line2d_36">
     <path d="M 524.56 113.369062 
L 534.56 113.369062 
L 544.56 113.369062 
" style="fill: none; stroke: #8c564b; stroke-width: 1.5; stroke-linecap: square"/>
    </g>
    <g id="text_25">
     <!-- Node random split + surprisal -->
     <g transform="translate(552.56 116.869062)scale(0.1 -0.1)">
      <use xlink:href="#DejaVuSans-4e"/>
      <use xlink:href="#DejaVuSans-6f" x="74.804688"/>
      <use xlink:href="#DejaVuSans-64" x="135.986328"/>
      <use xlink:href="#DejaVuSans-65" x="199.462891"/>
      <use xlink:href="#DejaVuSans-20" x="260.986328"/>
      <use xlink:href="#DejaVuSans-72" x="292.773438"/>
      <use xlink:href="#DejaVuSans-61" x="333.886719"/>
      <use xlink:href="#DejaVuSans-6e" x="395.166016"/>
      <use xlink:href="#DejaVuSans-64" x="458.544922"/>
      <use xlink:href="#DejaVuSans-6f" x="522.021484"/>
      <use xlink:href="#DejaVuSans-6d" x="583.203125"/>
      <use xlink:href="#DejaVuSans-20" x="680.615234"/>
      <use xlink:href="#DejaVuSans-73" x="712.402344"/>
      <use xlink:href="#DejaVuSans-70" x="764.501953"/>
      <use xlink:href="#DejaVuSans-6c" x="827.978516"/>
      <use xlink:href="#DejaVuSans-69" x="855.761719"/>
      <use xlink:href="#DejaVuSans-74" x="883.544922"/>
      <use xlink:href="#DejaVuSans-20" x="922.753906"/>
      <use xlink:href="#DejaVuSans-2b" x="954.541016"/>
      <use xlink:href="#DejaVuSans-20" x="1038.330078"/>
      <use xlink:href="#DejaVuSans-73" x="1070.117188"/>
      <use xlink:href="#DejaVuSans-75" x="1122.216797"/>
      <use xlink:href="#DejaVuSans-72" x="1185.595703"/>
      <use xlink:href="#DejaVuSans-70" x="1226.708984"/>
      <use xlink:href="#DejaVuSans-72" x="1290.185547"/>
      <use xlink:href="#DejaVuSans-69" x="1331.298828"/>
      <use xlink:href="#DejaVuSans-73" x="1359.082031"/>
      <use xlink:href="#DejaVuSans-61" x="1411.181641"/>
      <use xlink:href="#DejaVuSans-6c" x="1472.460938"/>
     </g>
    </g>
    <g id="line2d_37">
     <path d="M 524.56 128.047187 
L 534.56 128.047187 
L 544.56 128.047187 
" style="fill: none; stroke: #e377c2; stroke-width: 1.5; stroke-linecap: square"/>
    </g>
    <g id="text_26">
     <!-- Interaction -->
     <g transform="translate(552.56 131.547187)scale(0.1 -0.1)">
      <use xlink:href="#DejaVuSans-49"/>
      <use xlink:href="#DejaVuSans-6e" x="29.492188"/>
      <use xlink:href="#DejaVuSans-74" x="92.871094"/>
      <use xlink:href="#DejaVuSans-65" x="132.080078"/>
      <use xlink:href="#DejaVuSans-72" x="193.603516"/>
      <use xlink:href="#DejaVuSans-61" x="234.716797"/>
      <use xlink:href="#DejaVuSans-63" x="295.996094"/>
      <use xlink:href="#DejaVuSans-74" x="350.976562"/>
      <use xlink:href="#DejaVuSans-69" x="390.185547"/>
      <use xlink:href="#DejaVuSans-6f" x="417.96875"/>
      <use xlink:href="#DejaVuSans-6e" x="479.150391"/>
     </g>
    </g>
    <g id="line2d_38">
     <path d="M 524.56 142.725312 
L 534.56 142.725312 
L 544.56 142.725312 
" style="fill: none; stroke: #7f7f7f; stroke-width: 1.5; stroke-linecap: square"/>
    </g>
    <g id="text_27">
     <!-- Node + surprisal + interaction -->
     <g transform="translate(552.56 146.225312)scale(0.1 -0.1)">
      <use xlink:href="#DejaVuSans-4e"/>
      <use xlink:href="#DejaVuSans-6f" x="74.804688"/>
      <use xlink:href="#DejaVuSans-64" x="135.986328"/>
      <use xlink:href="#DejaVuSans-65" x="199.462891"/>
      <use xlink:href="#DejaVuSans-20" x="260.986328"/>
      <use xlink:href="#DejaVuSans-2b" x="292.773438"/>
      <use xlink:href="#DejaVuSans-20" x="376.5625"/>
      <use xlink:href="#DejaVuSans-73" x="408.349609"/>
      <use xlink:href="#DejaVuSans-75" x="460.449219"/>
      <use xlink:href="#DejaVuSans-72" x="523.828125"/>
      <use xlink:href="#DejaVuSans-70" x="564.941406"/>
      <use xlink:href="#DejaVuSans-72" x="628.417969"/>
      <use xlink:href="#DejaVuSans-69" x="669.53125"/>
      <use xlink:href="#DejaVuSans-73" x="697.314453"/>
      <use xlink:href="#DejaVuSans-61" x="749.414062"/>
      <use xlink:href="#DejaVuSans-6c" x="810.693359"/>
      <use xlink:href="#DejaVuSans-20" x="838.476562"/>
      <use xlink:href="#DejaVuSans-2b" x="870.263672"/>
      <use xlink:href="#DejaVuSans-20" x="954.052734"/>
      <use xlink:href="#DejaVuSans-69" x="985.839844"/>
      <use xlink:href="#DejaVuSans-6e" x="1013.623047"/>
      <use xlink:href="#DejaVuSans-74" x="1077.001953"/>
      <use xlink:href="#DejaVuSans-65" x="1116.210938"/>
      <use xlink:href="#DejaVuSans-72" x="1177.734375"/>
      <use xlink:href="#DejaVuSans-61" x="1218.847656"/>
      <use xlink:href="#DejaVuSans-63" x="1280.126953"/>
      <use xlink:href="#DejaVuSans-74" x="1335.107422"/>
      <use xlink:href="#DejaVuSans-69" x="1374.316406"/>
      <use xlink:href="#DejaVuSans-6f" x="1402.099609"/>
      <use xlink:href="#DejaVuSans-6e" x="1463.28125"/>
     </g>
    </g>
   </g>
  </g>
 </g>
 <defs>
  <clipPath id="paca76faa26">
   <rect x="47.72" y="26.88" width="217.495" height="147.16"/>
  </clipPath>
  <clipPath id="p320cb924c9">
   <rect x="298.065" y="26.88" width="217.495" height="147.16"/>
  </clipPath>
 </defs>
</svg>
