<?xml version="1.0" encoding="utf-8" standalone="no"?>
<!DOCTYPE svg PUBLIC "-//W3C//DTD SVG 1.1//EN"
  "http://www.w3.org/Graphics/SVG/1.1/DTD/svg11.dtd">
<svg xmlns:xlink="http://www.w3.org/1999/xlink" width="720pt" height="216pt" viewBox="0 0 720 216" xmlns="http://www.w3.org/2000/svg" version="1.1">
 <metadata>
  <rdf:RDF xmlns:dc="http://purl.org/dc/elements/1.1/" xmlns:cc="http://creativecommons.org/ns#" xmlns:rdf="http://www.w3.org/1999/02/22-rdf-syntax-ns#">
   <cc:Work>
    <dc:type rdf:resource="http://purl.org/dc/dcmitype/StillImage"/>
    <dc:date>2024-01-16T05:38:27.728794</dc:date>
    <dc:format>image/svg+xml</dc:format>
    <dc:creator>
     <cc:Agent>
      <dc:title>Matplotlib v3.5.1, https://matplotlib.org/</dc:title>
     </cc:Agent>
    </dc:creator>
   </cc:Work>
  </rdf:RDF>
 </metadata>
 <defs>
  <style type="text/css">*{stroke-linejoin: round; stroke-linecap: butt}</style>
 </defs>
 <g id="figure_1">
  <g id="patch_1">
   <path d="M 0 216 
L 720 216 
L 720 0 
L 0 0 
z
" style="fill: #ffffff"/>
  </g>
  <g id="axes_1">
   <g id="patch_2">
    <path d="M 47.72 174.04 
L 265.215 174.04 
L 265.215 26.88 
L 47.72 26.88 
z
" style="fill: #ffffff"/>
   </g>
   <g id="PolyCollection_1">
    <path d="M 47.72 33.59828 
L 47.72 34.909048 
L 59.167105 35.677931 
L 70.614211 38.511577 
L 82.061316 43.050387 
L 93.508421 48.869754 
L 104.955526 55.664166 
L 116.402632 62.74616 
L 127.849737 71.027292 
L 139.296842 78.894003 
L 150.743947 86.977756 
L 162.191053 94.753989 
L 173.638158 102.553343 
L 185.085263 109.516448 
L 196.532368 116.50772 
L 207.979474 122.86056 
L 219.426579 129.19442 
L 230.873684 135.181966 
L 242.320789 140.66457 
L 253.767895 145.691144 
L 265.215 150.779184 
L 265.215 135.443334 
L 265.215 135.443334 
L 253.767895 130.594854 
L 242.320789 125.633741 
L 230.873684 120.521981 
L 219.426579 115.292424 
L 207.979474 109.339802 
L 196.532368 103.538893 
L 185.085263 97.213014 
L 173.638158 90.259095 
L 162.191053 83.772711 
L 150.743947 77.18385 
L 139.296842 69.48057 
L 127.849737 63.01094 
L 116.402632 56.260625 
L 104.955526 50.782106 
L 93.508421 45.031761 
L 82.061316 40.563491 
L 70.614211 36.868292 
L 59.167105 34.633578 
L 47.72 33.59828 
z
" clip-path="url(#pbb414d213c)" style="fill: #1f77b4; fill-opacity: 0.4"/>
   </g>
   <g id="PolyCollection_2">
    <path d="M 47.72 33.606949 
L 47.72 34.919487 
L 59.167105 35.358518 
L 70.614211 36.892381 
L 82.061316 39.305248 
L 93.508421 42.367758 
L 104.955526 46.358874 
L 116.402632 50.970625 
L 127.849737 56.654938 
L 139.296842 62.444886 
L 150.743947 68.918021 
L 162.191053 75.19552 
L 173.638158 82.234319 
L 185.085263 88.655375 
L 196.532368 95.504783 
L 207.979474 101.623363 
L 219.426579 107.552319 
L 230.873684 113.601337 
L 242.320789 119.423274 
L 253.767895 124.807448 
L 265.215 130.520307 
L 265.215 117.513952 
L 265.215 117.513952 
L 253.767895 112.664555 
L 242.320789 107.790622 
L 230.873684 102.664257 
L 219.426579 97.325385 
L 207.979474 91.30627 
L 196.532368 85.684998 
L 185.085263 79.816361 
L 173.638158 73.567043 
L 162.191053 68.378429 
L 150.743947 63.160431 
L 139.296842 57.162727 
L 127.849737 52.58027 
L 116.402632 47.830551 
L 104.955526 44.254099 
L 93.508421 40.545946 
L 82.061316 37.668073 
L 70.614211 35.393338 
L 59.167105 34.354612 
L 47.72 33.606949 
z
" clip-path="url(#pbb414d213c)" style="fill: #ff7f0e; fill-opacity: 0.4"/>
   </g>
   <g id="PolyCollection_3">
    <path d="M 47.72 33.620418 
L 47.72 34.917849 
L 59.167105 35.466063 
L 70.614211 36.833279 
L 82.061316 38.913088 
L 93.508421 41.359409 
L 104.955526 44.376309 
L 116.402632 47.546624 
L 127.849737 51.332718 
L 139.296842 55.28424 
L 150.743947 59.139691 
L 162.191053 62.75601 
L 173.638158 66.840952 
L 185.085263 70.179638 
L 196.532368 74.011885 
L 207.979474 77.665266 
L 219.426579 81.032101 
L 230.873684 84.633989 
L 242.320789 87.897765 
L 253.767895 91.335766 
L 265.215 95.176527 
L 265.215 85.669689 
L 265.215 85.669689 
L 253.767895 82.567887 
L 242.320789 79.502456 
L 230.873684 76.118317 
L 219.426579 72.960753 
L 207.979474 69.481429 
L 196.532368 66.261763 
L 185.085263 62.721845 
L 173.638158 59.339139 
L 162.191053 55.883962 
L 150.743947 52.618147 
L 139.296842 49.014487 
L 127.849737 46.420557 
L 116.402632 43.3594 
L 104.955526 41.190206 
L 93.508421 38.756173 
L 82.061316 36.934001 
L 70.614211 35.210967 
L 59.167105 34.44059 
L 47.72 33.620418 
z
" clip-path="url(#pbb414d213c)" style="fill: #2ca02c; fill-opacity: 0.4"/>
   </g>
   <g id="PolyCollection_4">
    <path d="M 47.72 33.625887 
L 47.72 34.929066 
L 59.167105 35.341018 
L 70.614211 36.394365 
L 82.061316 37.935419 
L 93.508421 39.693476 
L 104.955526 42.162495 
L 116.402632 44.8635 
L 127.849737 48.33538 
L 139.296842 52.025261 
L 150.743947 55.896442 
L 162.191053 59.451523 
L 173.638158 63.771432 
L 185.085263 67.238919 
L 196.532368 71.364962 
L 207.979474 75.057973 
L 219.426579 78.725922 
L 230.873684 82.551535 
L 242.320789 85.995274 
L 253.767895 89.504948 
L 265.215 93.457661 
L 265.215 84.272628 
L 265.215 84.272628 
L 253.767895 80.997125 
L 242.320789 77.692186 
L 230.873684 74.246027 
L 219.426579 71.128692 
L 207.979474 67.698728 
L 196.532368 64.451013 
L 185.085263 60.892192 
L 173.638158 57.336874 
L 162.191053 53.973418 
L 150.743947 50.758816 
L 139.296842 47.123781 
L 127.849737 44.713364 
L 116.402632 41.930409 
L 104.955526 40.002791 
L 93.508421 37.924077 
L 82.061316 36.276177 
L 70.614211 34.83311 
L 59.167105 34.32845 
L 47.72 33.625887 
z
" clip-path="url(#pbb414d213c)" style="fill: #d62728; fill-opacity: 0.4"/>
   </g>
   <g id="PolyCollection_5">
    <path d="M 47.72 33.60749 
L 47.72 34.926016 
L 59.167105 35.702214 
L 70.614211 38.54187 
L 82.061316 43.083504 
L 93.508421 48.968672 
L 104.955526 55.662185 
L 116.402632 62.89145 
L 127.849737 71.088412 
L 139.296842 79.215674 
L 150.743947 87.016194 
L 162.191053 94.872574 
L 173.638158 103.01972 
L 185.085263 109.929487 
L 196.532368 116.377947 
L 207.979474 122.784908 
L 219.426579 129.808331 
L 230.873684 135.854166 
L 242.320789 140.625322 
L 253.767895 146.25056 
L 265.215 151.467683 
L 265.215 135.249692 
L 265.215 135.249692 
L 253.767895 130.942054 
L 242.320789 126.094325 
L 230.873684 121.157601 
L 219.426579 115.481084 
L 207.979474 110.099974 
L 196.532368 104.086702 
L 185.085263 97.233575 
L 173.638158 90.422859 
L 162.191053 83.749601 
L 150.743947 77.286622 
L 139.296842 69.60692 
L 127.849737 63.008698 
L 116.402632 56.353892 
L 104.955526 50.827211 
L 93.508421 45.07931 
L 82.061316 40.633526 
L 70.614211 36.875167 
L 59.167105 34.646731 
L 47.72 33.60749 
z
" clip-path="url(#pbb414d213c)" style="fill: #9467bd; fill-opacity: 0.4"/>
   </g>
   <g id="PolyCollection_6">
    <path d="M 47.72 33.617146 
L 47.72 34.936744 
L 59.167105 35.375721 
L 70.614211 36.927844 
L 82.061316 39.32477 
L 93.508421 42.410081 
L 104.955526 46.396813 
L 116.402632 51.050448 
L 127.849737 56.676178 
L 139.296842 62.617585 
L 150.743947 68.949853 
L 162.191053 75.372425 
L 173.638158 82.454021 
L 185.085263 89.007136 
L 196.532368 95.566641 
L 207.979474 101.724048 
L 219.426579 107.938899 
L 230.873684 114.392354 
L 242.320789 119.549279 
L 253.767895 125.055232 
L 265.215 130.891732 
L 265.215 117.338327 
L 265.215 117.338327 
L 253.767895 113.122014 
L 242.320789 108.135887 
L 230.873684 103.127929 
L 219.426579 97.441259 
L 207.979474 91.800366 
L 196.532368 85.853845 
L 185.085263 79.841797 
L 173.638158 73.516583 
L 162.191053 68.315475 
L 150.743947 63.260237 
L 139.296842 57.255099 
L 127.849737 52.603935 
L 116.402632 47.851452 
L 104.955526 44.268293 
L 93.508421 40.560832 
L 82.061316 37.706397 
L 70.614211 35.399146 
L 59.167105 34.369483 
L 47.72 33.617146 
z
" clip-path="url(#pbb414d213c)" style="fill: #8c564b; fill-opacity: 0.4"/>
   </g>
   <g id="PolyCollection_7">
    <path d="M 47.72 46.852587 
L 47.72 50.461295 
L 59.167105 51.94447 
L 70.614211 55.475313 
L 82.061316 61.533834 
L 93.508421 68.690346 
L 104.955526 76.773073 
L 116.402632 85.045453 
L 127.849737 93.974376 
L 139.296842 102.641603 
L 150.743947 111.274142 
L 162.191053 119.072659 
L 173.638158 126.678493 
L 185.085263 133.227146 
L 196.532368 139.530142 
L 207.979474 145.045806 
L 219.426579 150.0943 
L 230.873684 155.309479 
L 242.320789 159.428789 
L 253.767895 163.470526 
L 265.215 167.350909 
L 265.215 151.925865 
L 265.215 151.925865 
L 253.767895 147.702386 
L 242.320789 143.670056 
L 230.873684 139.55505 
L 219.426579 134.794106 
L 207.979474 128.785767 
L 196.532368 123.295075 
L 185.085263 116.620259 
L 173.638158 109.570558 
L 162.191053 102.13653 
L 150.743947 94.694124 
L 139.296842 86.437779 
L 127.849737 79.415521 
L 116.402632 71.685036 
L 104.955526 65.427951 
L 93.508421 59.084668 
L 82.061316 54.073622 
L 70.614211 49.973902 
L 59.167105 47.760797 
L 47.72 46.852587 
z
" clip-path="url(#pbb414d213c)" style="fill: #e377c2; fill-opacity: 0.4"/>
   </g>
   <g id="PolyCollection_8">
    <path d="M 47.72 33.621158 
L 47.72 34.932995 
L 59.167105 35.055282 
L 70.614211 35.305802 
L 82.061316 35.875772 
L 93.508421 36.846526 
L 104.955526 39.224902 
L 116.402632 42.252428 
L 127.849737 46.241454 
L 139.296842 51.087104 
L 150.743947 56.744665 
L 162.191053 62.163206 
L 173.638158 68.67821 
L 185.085263 75.296417 
L 196.532368 82.231595 
L 207.979474 88.689514 
L 219.426579 94.728691 
L 230.873684 101.339169 
L 242.320789 107.39423 
L 253.767895 113.031895 
L 265.215 119.063157 
L 265.215 104.060112 
L 265.215 104.060112 
L 253.767895 98.372108 
L 242.320789 92.745088 
L 230.873684 86.932055 
L 219.426579 81.440745 
L 207.979474 75.084763 
L 196.532368 69.305252 
L 185.085263 63.510378 
L 173.638158 58.103289 
L 162.191053 52.815278 
L 150.743947 48.398542 
L 139.296842 43.790915 
L 127.849737 40.747302 
L 116.402632 37.799346 
L 104.955526 36.36113 
L 93.508421 35.18685 
L 82.061316 34.366102 
L 70.614211 33.78816 
L 59.167105 34.029759 
L 47.72 33.621158 
z
" clip-path="url(#pbb414d213c)" style="fill: #7f7f7f; fill-opacity: 0.4"/>
   </g>
   <g id="matplotlib.axis_1">
    <g id="xtick_1">
     <g id="line2d_1">
      <defs>
       <path id="mae6e7882e9" d="M 0 0 
L 0 3.5 
" style="stroke: #000000; stroke-width: 0.8"/>
      </defs>
      <g>
       <use xlink:href="#mae6e7882e9" x="47.72" y="174.04" style="stroke: #000000; stroke-width: 0.8"/>
      </g>
     </g>
     <g id="text_1">
      <!-- 0.0 -->
      <g transform="translate(39.768438 188.638438)scale(0.1 -0.1)">
       <defs>
        <path id="DejaVuSans-30" d="M 2034 4250 
Q 1547 4250 1301 3770 
Q 1056 3291 1056 2328 
Q 1056 1369 1301 889 
Q 1547 409 2034 409 
Q 2525 409 2770 889 
Q 3016 1369 3016 2328 
Q 3016 3291 2770 3770 
Q 2525 4250 2034 4250 
z
M 2034 4750 
Q 2819 4750 3233 4129 
Q 3647 3509 3647 2328 
Q 3647 1150 3233 529 
Q 2819 -91 2034 -91 
Q 1250 -91 836 529 
Q 422 1150 422 2328 
Q 422 3509 836 4129 
Q 1250 4750 2034 4750 
z
" transform="scale(0.015625)"/>
        <path id="DejaVuSans-2e" d="M 684 794 
L 1344 794 
L 1344 0 
L 684 0 
L 684 794 
z
" transform="scale(0.015625)"/>
       </defs>
       <use xlink:href="#DejaVuSans-30"/>
       <use xlink:href="#DejaVuSans-2e" x="63.623047"/>
       <use xlink:href="#DejaVuSans-30" x="95.410156"/>
      </g>
     </g>
    </g>
    <g id="xtick_2">
     <g id="line2d_2">
      <g>
       <use xlink:href="#mae6e7882e9" x="102.09375" y="174.04" style="stroke: #000000; stroke-width: 0.8"/>
      </g>
     </g>
     <g id="text_2">
      <!-- 0.5 -->
      <g transform="translate(94.142188 188.638438)scale(0.1 -0.1)">
       <defs>
        <path id="DejaVuSans-35" d="M 691 4666 
L 3169 4666 
L 3169 4134 
L 1269 4134 
L 1269 2991 
Q 1406 3038 1543 3061 
Q 1681 3084 1819 3084 
Q 2600 3084 3056 2656 
Q 3513 2228 3513 1497 
Q 3513 744 3044 326 
Q 2575 -91 1722 -91 
Q 1428 -91 1123 -41 
Q 819 9 494 109 
L 494 744 
Q 775 591 1075 516 
Q 1375 441 1709 441 
Q 2250 441 2565 725 
Q 2881 1009 2881 1497 
Q 2881 1984 2565 2268 
Q 2250 2553 1709 2553 
Q 1456 2553 1204 2497 
Q 953 2441 691 2322 
L 691 4666 
z
" transform="scale(0.015625)"/>
       </defs>
       <use xlink:href="#DejaVuSans-30"/>
       <use xlink:href="#DejaVuSans-2e" x="63.623047"/>
       <use xlink:href="#DejaVuSans-35" x="95.410156"/>
      </g>
     </g>
    </g>
    <g id="xtick_3">
     <g id="line2d_3">
      <g>
       <use xlink:href="#mae6e7882e9" x="156.4675" y="174.04" style="stroke: #000000; stroke-width: 0.8"/>
      </g>
     </g>
     <g id="text_3">
      <!-- 1.0 -->
      <g transform="translate(148.515938 188.638438)scale(0.1 -0.1)">
       <defs>
        <path id="DejaVuSans-31" d="M 794 531 
L 1825 531 
L 1825 4091 
L 703 3866 
L 703 4441 
L 1819 4666 
L 2450 4666 
L 2450 531 
L 3481 531 
L 3481 0 
L 794 0 
L 794 531 
z
" transform="scale(0.015625)"/>
       </defs>
       <use xlink:href="#DejaVuSans-31"/>
       <use xlink:href="#DejaVuSans-2e" x="63.623047"/>
       <use xlink:href="#DejaVuSans-30" x="95.410156"/>
      </g>
     </g>
    </g>
    <g id="xtick_4">
     <g id="line2d_4">
      <g>
       <use xlink:href="#mae6e7882e9" x="210.84125" y="174.04" style="stroke: #000000; stroke-width: 0.8"/>
      </g>
     </g>
     <g id="text_4">
      <!-- 1.5 -->
      <g transform="translate(202.889687 188.638438)scale(0.1 -0.1)">
       <use xlink:href="#DejaVuSans-31"/>
       <use xlink:href="#DejaVuSans-2e" x="63.623047"/>
       <use xlink:href="#DejaVuSans-35" x="95.410156"/>
      </g>
     </g>
    </g>
    <g id="xtick_5">
     <g id="line2d_5">
      <g>
       <use xlink:href="#mae6e7882e9" x="265.215" y="174.04" style="stroke: #000000; stroke-width: 0.8"/>
      </g>
     </g>
     <g id="text_5">
      <!-- 2.0 -->
      <g transform="translate(257.263437 188.638438)scale(0.1 -0.1)">
       <defs>
        <path id="DejaVuSans-32" d="M 1228 531 
L 3431 531 
L 3431 0 
L 469 0 
L 469 531 
Q 828 903 1448 1529 
Q 2069 2156 2228 2338 
Q 2531 2678 2651 2914 
Q 2772 3150 2772 3378 
Q 2772 3750 2511 3984 
Q 2250 4219 1831 4219 
Q 1534 4219 1204 4116 
Q 875 4013 500 3803 
L 500 4441 
Q 881 4594 1212 4672 
Q 1544 4750 1819 4750 
Q 2544 4750 2975 4387 
Q 3406 4025 3406 3419 
Q 3406 3131 3298 2873 
Q 3191 2616 2906 2266 
Q 2828 2175 2409 1742 
Q 1991 1309 1228 531 
z
" transform="scale(0.015625)"/>
       </defs>
       <use xlink:href="#DejaVuSans-32"/>
       <use xlink:href="#DejaVuSans-2e" x="63.623047"/>
       <use xlink:href="#DejaVuSans-30" x="95.410156"/>
      </g>
     </g>
    </g>
    <g id="text_6">
     <!-- Influence of surprisal (multiplication) -->
     <g transform="translate(64.320625 202.316563)scale(0.1 -0.1)">
      <defs>
       <path id="DejaVuSans-49" d="M 628 4666 
L 1259 4666 
L 1259 0 
L 628 0 
L 628 4666 
z
" transform="scale(0.015625)"/>
       <path id="DejaVuSans-6e" d="M 3513 2113 
L 3513 0 
L 2938 0 
L 2938 2094 
Q 2938 2591 2744 2837 
Q 2550 3084 2163 3084 
Q 1697 3084 1428 2787 
Q 1159 2491 1159 1978 
L 1159 0 
L 581 0 
L 581 3500 
L 1159 3500 
L 1159 2956 
Q 1366 3272 1645 3428 
Q 1925 3584 2291 3584 
Q 2894 3584 3203 3211 
Q 3513 2838 3513 2113 
z
" transform="scale(0.015625)"/>
       <path id="DejaVuSans-66" d="M 2375 4863 
L 2375 4384 
L 1825 4384 
Q 1516 4384 1395 4259 
Q 1275 4134 1275 3809 
L 1275 3500 
L 2222 3500 
L 2222 3053 
L 1275 3053 
L 1275 0 
L 697 0 
L 697 3053 
L 147 3053 
L 147 3500 
L 697 3500 
L 697 3744 
Q 697 4328 969 4595 
Q 1241 4863 1831 4863 
L 2375 4863 
z
" transform="scale(0.015625)"/>
       <path id="DejaVuSans-6c" d="M 603 4863 
L 1178 4863 
L 1178 0 
L 603 0 
L 603 4863 
z
" transform="scale(0.015625)"/>
       <path id="DejaVuSans-75" d="M 544 1381 
L 544 3500 
L 1119 3500 
L 1119 1403 
Q 1119 906 1312 657 
Q 1506 409 1894 409 
Q 2359 409 2629 706 
Q 2900 1003 2900 1516 
L 2900 3500 
L 3475 3500 
L 3475 0 
L 2900 0 
L 2900 538 
Q 2691 219 2414 64 
Q 2138 -91 1772 -91 
Q 1169 -91 856 284 
Q 544 659 544 1381 
z
M 1991 3584 
L 1991 3584 
z
" transform="scale(0.015625)"/>
       <path id="DejaVuSans-65" d="M 3597 1894 
L 3597 1613 
L 953 1613 
Q 991 1019 1311 708 
Q 1631 397 2203 397 
Q 2534 397 2845 478 
Q 3156 559 3463 722 
L 3463 178 
Q 3153 47 2828 -22 
Q 2503 -91 2169 -91 
Q 1331 -91 842 396 
Q 353 884 353 1716 
Q 353 2575 817 3079 
Q 1281 3584 2069 3584 
Q 2775 3584 3186 3129 
Q 3597 2675 3597 1894 
z
M 3022 2063 
Q 3016 2534 2758 2815 
Q 2500 3097 2075 3097 
Q 1594 3097 1305 2825 
Q 1016 2553 972 2059 
L 3022 2063 
z
" transform="scale(0.015625)"/>
       <path id="DejaVuSans-63" d="M 3122 3366 
L 3122 2828 
Q 2878 2963 2633 3030 
Q 2388 3097 2138 3097 
Q 1578 3097 1268 2742 
Q 959 2388 959 1747 
Q 959 1106 1268 751 
Q 1578 397 2138 397 
Q 2388 397 2633 464 
Q 2878 531 3122 666 
L 3122 134 
Q 2881 22 2623 -34 
Q 2366 -91 2075 -91 
Q 1284 -91 818 406 
Q 353 903 353 1747 
Q 353 2603 823 3093 
Q 1294 3584 2113 3584 
Q 2378 3584 2631 3529 
Q 2884 3475 3122 3366 
z
" transform="scale(0.015625)"/>
       <path id="DejaVuSans-20" transform="scale(0.015625)"/>
       <path id="DejaVuSans-6f" d="M 1959 3097 
Q 1497 3097 1228 2736 
Q 959 2375 959 1747 
Q 959 1119 1226 758 
Q 1494 397 1959 397 
Q 2419 397 2687 759 
Q 2956 1122 2956 1747 
Q 2956 2369 2687 2733 
Q 2419 3097 1959 3097 
z
M 1959 3584 
Q 2709 3584 3137 3096 
Q 3566 2609 3566 1747 
Q 3566 888 3137 398 
Q 2709 -91 1959 -91 
Q 1206 -91 779 398 
Q 353 888 353 1747 
Q 353 2609 779 3096 
Q 1206 3584 1959 3584 
z
" transform="scale(0.015625)"/>
       <path id="DejaVuSans-73" d="M 2834 3397 
L 2834 2853 
Q 2591 2978 2328 3040 
Q 2066 3103 1784 3103 
Q 1356 3103 1142 2972 
Q 928 2841 928 2578 
Q 928 2378 1081 2264 
Q 1234 2150 1697 2047 
L 1894 2003 
Q 2506 1872 2764 1633 
Q 3022 1394 3022 966 
Q 3022 478 2636 193 
Q 2250 -91 1575 -91 
Q 1294 -91 989 -36 
Q 684 19 347 128 
L 347 722 
Q 666 556 975 473 
Q 1284 391 1588 391 
Q 1994 391 2212 530 
Q 2431 669 2431 922 
Q 2431 1156 2273 1281 
Q 2116 1406 1581 1522 
L 1381 1569 
Q 847 1681 609 1914 
Q 372 2147 372 2553 
Q 372 3047 722 3315 
Q 1072 3584 1716 3584 
Q 2034 3584 2315 3537 
Q 2597 3491 2834 3397 
z
" transform="scale(0.015625)"/>
       <path id="DejaVuSans-72" d="M 2631 2963 
Q 2534 3019 2420 3045 
Q 2306 3072 2169 3072 
Q 1681 3072 1420 2755 
Q 1159 2438 1159 1844 
L 1159 0 
L 581 0 
L 581 3500 
L 1159 3500 
L 1159 2956 
Q 1341 3275 1631 3429 
Q 1922 3584 2338 3584 
Q 2397 3584 2469 3576 
Q 2541 3569 2628 3553 
L 2631 2963 
z
" transform="scale(0.015625)"/>
       <path id="DejaVuSans-70" d="M 1159 525 
L 1159 -1331 
L 581 -1331 
L 581 3500 
L 1159 3500 
L 1159 2969 
Q 1341 3281 1617 3432 
Q 1894 3584 2278 3584 
Q 2916 3584 3314 3078 
Q 3713 2572 3713 1747 
Q 3713 922 3314 415 
Q 2916 -91 2278 -91 
Q 1894 -91 1617 61 
Q 1341 213 1159 525 
z
M 3116 1747 
Q 3116 2381 2855 2742 
Q 2594 3103 2138 3103 
Q 1681 3103 1420 2742 
Q 1159 2381 1159 1747 
Q 1159 1113 1420 752 
Q 1681 391 2138 391 
Q 2594 391 2855 752 
Q 3116 1113 3116 1747 
z
" transform="scale(0.015625)"/>
       <path id="DejaVuSans-69" d="M 603 3500 
L 1178 3500 
L 1178 0 
L 603 0 
L 603 3500 
z
M 603 4863 
L 1178 4863 
L 1178 4134 
L 603 4134 
L 603 4863 
z
" transform="scale(0.015625)"/>
       <path id="DejaVuSans-61" d="M 2194 1759 
Q 1497 1759 1228 1600 
Q 959 1441 959 1056 
Q 959 750 1161 570 
Q 1363 391 1709 391 
Q 2188 391 2477 730 
Q 2766 1069 2766 1631 
L 2766 1759 
L 2194 1759 
z
M 3341 1997 
L 3341 0 
L 2766 0 
L 2766 531 
Q 2569 213 2275 61 
Q 1981 -91 1556 -91 
Q 1019 -91 701 211 
Q 384 513 384 1019 
Q 384 1609 779 1909 
Q 1175 2209 1959 2209 
L 2766 2209 
L 2766 2266 
Q 2766 2663 2505 2880 
Q 2244 3097 1772 3097 
Q 1472 3097 1187 3025 
Q 903 2953 641 2809 
L 641 3341 
Q 956 3463 1253 3523 
Q 1550 3584 1831 3584 
Q 2591 3584 2966 3190 
Q 3341 2797 3341 1997 
z
" transform="scale(0.015625)"/>
       <path id="DejaVuSans-28" d="M 1984 4856 
Q 1566 4138 1362 3434 
Q 1159 2731 1159 2009 
Q 1159 1288 1364 580 
Q 1569 -128 1984 -844 
L 1484 -844 
Q 1016 -109 783 600 
Q 550 1309 550 2009 
Q 550 2706 781 3412 
Q 1013 4119 1484 4856 
L 1984 4856 
z
" transform="scale(0.015625)"/>
       <path id="DejaVuSans-6d" d="M 3328 2828 
Q 3544 3216 3844 3400 
Q 4144 3584 4550 3584 
Q 5097 3584 5394 3201 
Q 5691 2819 5691 2113 
L 5691 0 
L 5113 0 
L 5113 2094 
Q 5113 2597 4934 2840 
Q 4756 3084 4391 3084 
Q 3944 3084 3684 2787 
Q 3425 2491 3425 1978 
L 3425 0 
L 2847 0 
L 2847 2094 
Q 2847 2600 2669 2842 
Q 2491 3084 2119 3084 
Q 1678 3084 1418 2786 
Q 1159 2488 1159 1978 
L 1159 0 
L 581 0 
L 581 3500 
L 1159 3500 
L 1159 2956 
Q 1356 3278 1631 3431 
Q 1906 3584 2284 3584 
Q 2666 3584 2933 3390 
Q 3200 3197 3328 2828 
z
" transform="scale(0.015625)"/>
       <path id="DejaVuSans-74" d="M 1172 4494 
L 1172 3500 
L 2356 3500 
L 2356 3053 
L 1172 3053 
L 1172 1153 
Q 1172 725 1289 603 
Q 1406 481 1766 481 
L 2356 481 
L 2356 0 
L 1766 0 
Q 1100 0 847 248 
Q 594 497 594 1153 
L 594 3053 
L 172 3053 
L 172 3500 
L 594 3500 
L 594 4494 
L 1172 4494 
z
" transform="scale(0.015625)"/>
       <path id="DejaVuSans-29" d="M 513 4856 
L 1013 4856 
Q 1481 4119 1714 3412 
Q 1947 2706 1947 2009 
Q 1947 1309 1714 600 
Q 1481 -109 1013 -844 
L 513 -844 
Q 928 -128 1133 580 
Q 1338 1288 1338 2009 
Q 1338 2731 1133 3434 
Q 928 4138 513 4856 
z
" transform="scale(0.015625)"/>
      </defs>
      <use xlink:href="#DejaVuSans-49"/>
      <use xlink:href="#DejaVuSans-6e" x="29.492188"/>
      <use xlink:href="#DejaVuSans-66" x="92.871094"/>
      <use xlink:href="#DejaVuSans-6c" x="128.076172"/>
      <use xlink:href="#DejaVuSans-75" x="155.859375"/>
      <use xlink:href="#DejaVuSans-65" x="219.238281"/>
      <use xlink:href="#DejaVuSans-6e" x="280.761719"/>
      <use xlink:href="#DejaVuSans-63" x="344.140625"/>
      <use xlink:href="#DejaVuSans-65" x="399.121094"/>
      <use xlink:href="#DejaVuSans-20" x="460.644531"/>
      <use xlink:href="#DejaVuSans-6f" x="492.431641"/>
      <use xlink:href="#DejaVuSans-66" x="553.613281"/>
      <use xlink:href="#DejaVuSans-20" x="588.818359"/>
      <use xlink:href="#DejaVuSans-73" x="620.605469"/>
      <use xlink:href="#DejaVuSans-75" x="672.705078"/>
      <use xlink:href="#DejaVuSans-72" x="736.083984"/>
      <use xlink:href="#DejaVuSans-70" x="777.197266"/>
      <use xlink:href="#DejaVuSans-72" x="840.673828"/>
      <use xlink:href="#DejaVuSans-69" x="881.787109"/>
      <use xlink:href="#DejaVuSans-73" x="909.570312"/>
      <use xlink:href="#DejaVuSans-61" x="961.669922"/>
      <use xlink:href="#DejaVuSans-6c" x="1022.949219"/>
      <use xlink:href="#DejaVuSans-20" x="1050.732422"/>
      <use xlink:href="#DejaVuSans-28" x="1082.519531"/>
      <use xlink:href="#DejaVuSans-6d" x="1121.533203"/>
      <use xlink:href="#DejaVuSans-75" x="1218.945312"/>
      <use xlink:href="#DejaVuSans-6c" x="1282.324219"/>
      <use xlink:href="#DejaVuSans-74" x="1310.107422"/>
      <use xlink:href="#DejaVuSans-69" x="1349.316406"/>
      <use xlink:href="#DejaVuSans-70" x="1377.099609"/>
      <use xlink:href="#DejaVuSans-6c" x="1440.576172"/>
      <use xlink:href="#DejaVuSans-69" x="1468.359375"/>
      <use xlink:href="#DejaVuSans-63" x="1496.142578"/>
      <use xlink:href="#DejaVuSans-61" x="1551.123047"/>
      <use xlink:href="#DejaVuSans-74" x="1612.402344"/>
      <use xlink:href="#DejaVuSans-69" x="1651.611328"/>
      <use xlink:href="#DejaVuSans-6f" x="1679.394531"/>
      <use xlink:href="#DejaVuSans-6e" x="1740.576172"/>
      <use xlink:href="#DejaVuSans-29" x="1803.955078"/>
     </g>
    </g>
   </g>
   <g id="matplotlib.axis_2">
    <g id="ytick_1">
     <g id="line2d_6">
      <defs>
       <path id="md7f1b882a7" d="M 0 0 
L -3.5 0 
" style="stroke: #000000; stroke-width: 0.8"/>
      </defs>
      <g>
       <use xlink:href="#md7f1b882a7" x="47.72" y="139.532058" style="stroke: #000000; stroke-width: 0.8"/>
      </g>
     </g>
     <g id="text_7">
      <!-- 0.4 -->
      <g transform="translate(24.816875 143.331276)scale(0.1 -0.1)">
       <defs>
        <path id="DejaVuSans-34" d="M 2419 4116 
L 825 1625 
L 2419 1625 
L 2419 4116 
z
M 2253 4666 
L 3047 4666 
L 3047 1625 
L 3713 1625 
L 3713 1100 
L 3047 1100 
L 3047 0 
L 2419 0 
L 2419 1100 
L 313 1100 
L 313 1709 
L 2253 4666 
z
" transform="scale(0.015625)"/>
       </defs>
       <use xlink:href="#DejaVuSans-30"/>
       <use xlink:href="#DejaVuSans-2e" x="63.623047"/>
       <use xlink:href="#DejaVuSans-34" x="95.410156"/>
      </g>
     </g>
    </g>
    <g id="ytick_2">
     <g id="line2d_7">
      <g>
       <use xlink:href="#md7f1b882a7" x="47.72" y="100.910249" style="stroke: #000000; stroke-width: 0.8"/>
      </g>
     </g>
     <g id="text_8">
      <!-- 0.6 -->
      <g transform="translate(24.816875 104.709468)scale(0.1 -0.1)">
       <defs>
        <path id="DejaVuSans-36" d="M 2113 2584 
Q 1688 2584 1439 2293 
Q 1191 2003 1191 1497 
Q 1191 994 1439 701 
Q 1688 409 2113 409 
Q 2538 409 2786 701 
Q 3034 994 3034 1497 
Q 3034 2003 2786 2293 
Q 2538 2584 2113 2584 
z
M 3366 4563 
L 3366 3988 
Q 3128 4100 2886 4159 
Q 2644 4219 2406 4219 
Q 1781 4219 1451 3797 
Q 1122 3375 1075 2522 
Q 1259 2794 1537 2939 
Q 1816 3084 2150 3084 
Q 2853 3084 3261 2657 
Q 3669 2231 3669 1497 
Q 3669 778 3244 343 
Q 2819 -91 2113 -91 
Q 1303 -91 875 529 
Q 447 1150 447 2328 
Q 447 3434 972 4092 
Q 1497 4750 2381 4750 
Q 2619 4750 2861 4703 
Q 3103 4656 3366 4563 
z
" transform="scale(0.015625)"/>
       </defs>
       <use xlink:href="#DejaVuSans-30"/>
       <use xlink:href="#DejaVuSans-2e" x="63.623047"/>
       <use xlink:href="#DejaVuSans-36" x="95.410156"/>
      </g>
     </g>
    </g>
    <g id="ytick_3">
     <g id="line2d_8">
      <g>
       <use xlink:href="#md7f1b882a7" x="47.72" y="62.288441" style="stroke: #000000; stroke-width: 0.8"/>
      </g>
     </g>
     <g id="text_9">
      <!-- 0.8 -->
      <g transform="translate(24.816875 66.087659)scale(0.1 -0.1)">
       <defs>
        <path id="DejaVuSans-38" d="M 2034 2216 
Q 1584 2216 1326 1975 
Q 1069 1734 1069 1313 
Q 1069 891 1326 650 
Q 1584 409 2034 409 
Q 2484 409 2743 651 
Q 3003 894 3003 1313 
Q 3003 1734 2745 1975 
Q 2488 2216 2034 2216 
z
M 1403 2484 
Q 997 2584 770 2862 
Q 544 3141 544 3541 
Q 544 4100 942 4425 
Q 1341 4750 2034 4750 
Q 2731 4750 3128 4425 
Q 3525 4100 3525 3541 
Q 3525 3141 3298 2862 
Q 3072 2584 2669 2484 
Q 3125 2378 3379 2068 
Q 3634 1759 3634 1313 
Q 3634 634 3220 271 
Q 2806 -91 2034 -91 
Q 1263 -91 848 271 
Q 434 634 434 1313 
Q 434 1759 690 2068 
Q 947 2378 1403 2484 
z
M 1172 3481 
Q 1172 3119 1398 2916 
Q 1625 2713 2034 2713 
Q 2441 2713 2670 2916 
Q 2900 3119 2900 3481 
Q 2900 3844 2670 4047 
Q 2441 4250 2034 4250 
Q 1625 4250 1398 4047 
Q 1172 3844 1172 3481 
z
" transform="scale(0.015625)"/>
       </defs>
       <use xlink:href="#DejaVuSans-30"/>
       <use xlink:href="#DejaVuSans-2e" x="63.623047"/>
       <use xlink:href="#DejaVuSans-38" x="95.410156"/>
      </g>
     </g>
    </g>
    <g id="text_10">
     <!-- R-value -->
     <g transform="translate(18.737188 119.064687)rotate(-90)scale(0.1 -0.1)">
      <defs>
       <path id="DejaVuSans-52" d="M 2841 2188 
Q 3044 2119 3236 1894 
Q 3428 1669 3622 1275 
L 4263 0 
L 3584 0 
L 2988 1197 
Q 2756 1666 2539 1819 
Q 2322 1972 1947 1972 
L 1259 1972 
L 1259 0 
L 628 0 
L 628 4666 
L 2053 4666 
Q 2853 4666 3247 4331 
Q 3641 3997 3641 3322 
Q 3641 2881 3436 2590 
Q 3231 2300 2841 2188 
z
M 1259 4147 
L 1259 2491 
L 2053 2491 
Q 2509 2491 2742 2702 
Q 2975 2913 2975 3322 
Q 2975 3731 2742 3939 
Q 2509 4147 2053 4147 
L 1259 4147 
z
" transform="scale(0.015625)"/>
       <path id="DejaVuSans-2d" d="M 313 2009 
L 1997 2009 
L 1997 1497 
L 313 1497 
L 313 2009 
z
" transform="scale(0.015625)"/>
       <path id="DejaVuSans-76" d="M 191 3500 
L 800 3500 
L 1894 563 
L 2988 3500 
L 3597 3500 
L 2284 0 
L 1503 0 
L 191 3500 
z
" transform="scale(0.015625)"/>
      </defs>
      <use xlink:href="#DejaVuSans-52"/>
      <use xlink:href="#DejaVuSans-2d" x="65.482422"/>
      <use xlink:href="#DejaVuSans-76" x="98.941406"/>
      <use xlink:href="#DejaVuSans-61" x="158.121094"/>
      <use xlink:href="#DejaVuSans-6c" x="219.400391"/>
      <use xlink:href="#DejaVuSans-75" x="247.183594"/>
      <use xlink:href="#DejaVuSans-65" x="310.5625"/>
     </g>
    </g>
   </g>
   <g id="line2d_9">
    <path d="M 47.72 34.253664 
L 59.167105 35.155755 
L 70.614211 37.689934 
L 82.061316 41.806939 
L 93.508421 46.950757 
L 104.955526 53.223136 
L 116.402632 59.503392 
L 127.849737 67.019116 
L 139.296842 74.187287 
L 150.743947 82.080803 
L 162.191053 89.26335 
L 173.638158 96.406219 
L 185.085263 103.364731 
L 196.532368 110.023307 
L 207.979474 116.100181 
L 219.426579 122.243422 
L 230.873684 127.851974 
L 242.320789 133.149156 
L 253.767895 138.142999 
L 265.215 143.111259 
" clip-path="url(#pbb414d213c)" style="fill: none; stroke: #1f77b4; stroke-width: 1.5; stroke-linecap: square"/>
   </g>
   <g id="line2d_10">
    <path d="M 47.72 34.263218 
L 59.167105 34.856565 
L 70.614211 36.14286 
L 82.061316 38.48666 
L 93.508421 41.456852 
L 104.955526 45.306486 
L 116.402632 49.400588 
L 127.849737 54.617604 
L 139.296842 59.803806 
L 150.743947 66.039226 
L 162.191053 71.786975 
L 173.638158 77.900681 
L 185.085263 84.235868 
L 196.532368 90.59489 
L 207.979474 96.464817 
L 219.426579 102.438852 
L 230.873684 108.132797 
L 242.320789 113.606948 
L 253.767895 118.736001 
L 265.215 124.017129 
" clip-path="url(#pbb414d213c)" style="fill: none; stroke: #ff7f0e; stroke-width: 1.5; stroke-linecap: square"/>
   </g>
   <g id="line2d_11">
    <path d="M 47.72 34.269134 
L 59.167105 34.953327 
L 70.614211 36.022123 
L 82.061316 37.923544 
L 93.508421 40.057791 
L 104.955526 42.783257 
L 116.402632 45.453012 
L 127.849737 48.876637 
L 139.296842 52.149364 
L 150.743947 55.878919 
L 162.191053 59.319986 
L 173.638158 63.090045 
L 185.085263 66.450741 
L 196.532368 70.136824 
L 207.979474 73.573348 
L 219.426579 76.996427 
L 230.873684 80.376153 
L 242.320789 83.70011 
L 253.767895 86.951826 
L 265.215 90.423108 
" clip-path="url(#pbb414d213c)" style="fill: none; stroke: #2ca02c; stroke-width: 1.5; stroke-linecap: square"/>
   </g>
   <g id="line2d_12">
    <path d="M 47.72 34.277477 
L 59.167105 34.834734 
L 70.614211 35.613738 
L 82.061316 37.105798 
L 93.508421 38.808776 
L 104.955526 41.082643 
L 116.402632 43.396955 
L 127.849737 46.524372 
L 139.296842 49.574521 
L 150.743947 53.327629 
L 162.191053 56.712471 
L 173.638158 60.554153 
L 185.085263 64.065556 
L 196.532368 67.907988 
L 207.979474 71.378351 
L 219.426579 74.927307 
L 230.873684 78.398781 
L 242.320789 81.84373 
L 253.767895 85.251036 
L 265.215 88.865145 
" clip-path="url(#pbb414d213c)" style="fill: none; stroke: #d62728; stroke-width: 1.5; stroke-linecap: square"/>
   </g>
   <g id="line2d_13">
    <path d="M 47.72 34.266753 
L 59.167105 35.174472 
L 70.614211 37.708518 
L 82.061316 41.858515 
L 93.508421 47.023991 
L 104.955526 53.244698 
L 116.402632 59.622671 
L 127.849737 67.048555 
L 139.296842 74.411297 
L 150.743947 82.151408 
L 162.191053 89.311087 
L 173.638158 96.72129 
L 185.085263 103.581531 
L 196.532368 110.232324 
L 207.979474 116.442441 
L 219.426579 122.644708 
L 230.873684 128.505883 
L 242.320789 133.359824 
L 253.767895 138.596307 
L 265.215 143.358688 
" clip-path="url(#pbb414d213c)" style="fill: none; stroke: #9467bd; stroke-width: 1.5; stroke-linecap: square"/>
   </g>
   <g id="line2d_14">
    <path d="M 47.72 34.276945 
L 59.167105 34.872602 
L 70.614211 36.163495 
L 82.061316 38.515583 
L 93.508421 41.485457 
L 104.955526 45.332553 
L 116.402632 49.45095 
L 127.849737 54.640057 
L 139.296842 59.936342 
L 150.743947 66.105045 
L 162.191053 71.84395 
L 173.638158 77.985302 
L 185.085263 84.424467 
L 196.532368 90.710243 
L 207.979474 96.762207 
L 219.426579 102.690079 
L 230.873684 108.760141 
L 242.320789 113.842583 
L 253.767895 119.088623 
L 265.215 124.11503 
" clip-path="url(#pbb414d213c)" style="fill: none; stroke: #8c564b; stroke-width: 1.5; stroke-linecap: square"/>
   </g>
   <g id="line2d_15">
    <path d="M 47.72 48.656941 
L 59.167105 49.852633 
L 70.614211 52.724608 
L 82.061316 57.803728 
L 93.508421 63.887507 
L 104.955526 71.100512 
L 116.402632 78.365245 
L 127.849737 86.694948 
L 139.296842 94.539691 
L 150.743947 102.984133 
L 162.191053 110.604594 
L 173.638158 118.124525 
L 185.085263 124.923703 
L 196.532368 131.412608 
L 207.979474 136.915786 
L 219.426579 142.444203 
L 230.873684 147.432264 
L 242.320789 151.549423 
L 253.767895 155.586456 
L 265.215 159.638387 
" clip-path="url(#pbb414d213c)" style="fill: none; stroke: #e377c2; stroke-width: 1.5; stroke-linecap: square"/>
   </g>
   <g id="line2d_16">
    <path d="M 47.72 34.277076 
L 59.167105 34.542521 
L 70.614211 34.546981 
L 82.061316 35.120937 
L 93.508421 36.016688 
L 104.955526 37.793016 
L 116.402632 40.025887 
L 127.849737 43.494378 
L 139.296842 47.439009 
L 150.743947 52.571604 
L 162.191053 57.489242 
L 173.638158 63.39075 
L 185.085263 69.403397 
L 196.532368 75.768424 
L 207.979474 81.887139 
L 219.426579 88.084718 
L 230.873684 94.135612 
L 242.320789 100.069659 
L 253.767895 105.702001 
L 265.215 111.561634 
" clip-path="url(#pbb414d213c)" style="fill: none; stroke: #7f7f7f; stroke-width: 1.5; stroke-linecap: square"/>
   </g>
   <g id="patch_3">
    <path d="M 47.72 174.04 
L 47.72 26.88 
" style="fill: none; stroke: #000000; stroke-width: 0.8; stroke-linejoin: miter; stroke-linecap: square"/>
   </g>
   <g id="patch_4">
    <path d="M 47.72 174.04 
L 265.215 174.04 
" style="fill: none; stroke: #000000; stroke-width: 0.8; stroke-linejoin: miter; stroke-linecap: square"/>
   </g>
   <g id="text_11">
    <!-- Node * surprisal -->
    <g transform="translate(108.18625 20.88)scale(0.12 -0.12)">
     <defs>
      <path id="DejaVuSans-4e" d="M 628 4666 
L 1478 4666 
L 3547 763 
L 3547 4666 
L 4159 4666 
L 4159 0 
L 3309 0 
L 1241 3903 
L 1241 0 
L 628 0 
L 628 4666 
z
" transform="scale(0.015625)"/>
      <path id="DejaVuSans-64" d="M 2906 2969 
L 2906 4863 
L 3481 4863 
L 3481 0 
L 2906 0 
L 2906 525 
Q 2725 213 2448 61 
Q 2172 -91 1784 -91 
Q 1150 -91 751 415 
Q 353 922 353 1747 
Q 353 2572 751 3078 
Q 1150 3584 1784 3584 
Q 2172 3584 2448 3432 
Q 2725 3281 2906 2969 
z
M 947 1747 
Q 947 1113 1208 752 
Q 1469 391 1925 391 
Q 2381 391 2643 752 
Q 2906 1113 2906 1747 
Q 2906 2381 2643 2742 
Q 2381 3103 1925 3103 
Q 1469 3103 1208 2742 
Q 947 2381 947 1747 
z
" transform="scale(0.015625)"/>
      <path id="DejaVuSans-2a" d="M 3009 3897 
L 1888 3291 
L 3009 2681 
L 2828 2375 
L 1778 3009 
L 1778 1831 
L 1422 1831 
L 1422 3009 
L 372 2375 
L 191 2681 
L 1313 3291 
L 191 3897 
L 372 4206 
L 1422 3572 
L 1422 4750 
L 1778 4750 
L 1778 3572 
L 2828 4206 
L 3009 3897 
z
" transform="scale(0.015625)"/>
     </defs>
     <use xlink:href="#DejaVuSans-4e"/>
     <use xlink:href="#DejaVuSans-6f" x="74.804688"/>
     <use xlink:href="#DejaVuSans-64" x="135.986328"/>
     <use xlink:href="#DejaVuSans-65" x="199.462891"/>
     <use xlink:href="#DejaVuSans-20" x="260.986328"/>
     <use xlink:href="#DejaVuSans-2a" x="292.773438"/>
     <use xlink:href="#DejaVuSans-20" x="342.773438"/>
     <use xlink:href="#DejaVuSans-73" x="374.560547"/>
     <use xlink:href="#DejaVuSans-75" x="426.660156"/>
     <use xlink:href="#DejaVuSans-72" x="490.039062"/>
     <use xlink:href="#DejaVuSans-70" x="531.152344"/>
     <use xlink:href="#DejaVuSans-72" x="594.628906"/>
     <use xlink:href="#DejaVuSans-69" x="635.742188"/>
     <use xlink:href="#DejaVuSans-73" x="663.525391"/>
     <use xlink:href="#DejaVuSans-61" x="715.625"/>
     <use xlink:href="#DejaVuSans-6c" x="776.904297"/>
    </g>
   </g>
  </g>
  <g id="axes_2">
   <g id="patch_5">
    <path d="M 298.065 174.04 
L 515.56 174.04 
L 515.56 26.88 
L 298.065 26.88 
z
" style="fill: #ffffff"/>
   </g>
   <g id="PolyCollection_9">
    <path d="M 298.065 33.569091 
L 298.065 34.827461 
L 309.512105 35.636371 
L 320.959211 38.757907 
L 332.406316 43.442736 
L 343.853421 49.230966 
L 355.300526 56.628818 
L 366.747632 64.180731 
L 378.194737 72.823798 
L 389.641842 81.679638 
L 401.088947 89.835815 
L 412.536053 98.368465 
L 423.983158 106.266743 
L 435.430263 113.952036 
L 446.877368 120.76493 
L 458.324474 127.612659 
L 469.771579 133.730974 
L 481.218684 139.101077 
L 492.665789 144.363097 
L 504.112895 148.513894 
L 515.56 153.234312 
L 515.56 136.322855 
L 515.56 136.322855 
L 504.112895 132.277767 
L 492.665789 127.636984 
L 481.218684 122.417676 
L 469.771579 117.407704 
L 458.324474 111.939058 
L 446.877368 105.553981 
L 435.430263 99.620753 
L 423.983158 92.352359 
L 412.536053 86.021232 
L 401.088947 78.540904 
L 389.641842 70.423411 
L 378.194737 64.347877 
L 366.747632 57.544751 
L 355.300526 51.025461 
L 343.853421 45.573634 
L 332.406316 40.49101 
L 320.959211 37.205957 
L 309.512105 34.42231 
L 298.065 33.569091 
z
" clip-path="url(#pe81937df33)" style="fill: #1f77b4; fill-opacity: 0.4"/>
   </g>
   <g id="PolyCollection_10">
    <path d="M 298.065 33.582572 
L 298.065 34.845927 
L 309.512105 35.650026 
L 320.959211 38.787069 
L 332.406316 43.505296 
L 343.853421 49.314961 
L 355.300526 56.724995 
L 366.747632 64.277867 
L 378.194737 72.9405 
L 389.641842 81.813907 
L 401.088947 89.977557 
L 412.536053 98.519803 
L 423.983158 106.453592 
L 435.430263 114.155208 
L 446.877368 121.037103 
L 458.324474 127.96862 
L 469.771579 134.124878 
L 481.218684 139.49823 
L 492.665789 144.783612 
L 504.112895 149.029193 
L 515.56 153.747074 
L 515.56 136.567059 
L 515.56 136.567059 
L 504.112895 132.536243 
L 492.665789 127.896264 
L 481.218684 122.581438 
L 469.771579 117.462532 
L 458.324474 112.057179 
L 446.877368 105.631921 
L 435.430263 99.655432 
L 423.983158 92.344086 
L 412.536053 86.031452 
L 401.088947 78.503606 
L 389.641842 70.425655 
L 378.194737 64.350666 
L 366.747632 57.546697 
L 355.300526 51.017419 
L 343.853421 45.548188 
L 332.406316 40.475867 
L 320.959211 37.217445 
L 309.512105 34.428924 
L 298.065 33.582572 
z
" clip-path="url(#pe81937df33)" style="fill: #ff7f0e; fill-opacity: 0.4"/>
   </g>
   <g id="PolyCollection_11">
    <path d="M 298.065 33.579918 
L 298.065 34.843554 
L 309.512105 35.664157 
L 320.959211 38.791706 
L 332.406316 43.518716 
L 343.853421 49.324327 
L 355.300526 56.792908 
L 366.747632 64.343215 
L 378.194737 73.05169 
L 389.641842 81.994451 
L 401.088947 90.231708 
L 412.536053 98.784261 
L 423.983158 106.924689 
L 435.430263 114.663105 
L 446.877368 121.700461 
L 458.324474 128.599037 
L 469.771579 134.878146 
L 481.218684 140.261676 
L 492.665789 145.659404 
L 504.112895 149.882015 
L 515.56 154.795171 
L 515.56 137.229733 
L 515.56 137.229733 
L 504.112895 133.034804 
L 492.665789 128.338086 
L 481.218684 122.883249 
L 469.771579 117.678904 
L 458.324474 112.153652 
L 446.877368 105.734744 
L 435.430263 99.683501 
L 423.983158 92.369753 
L 412.536053 86.101639 
L 401.088947 78.5472 
L 389.641842 70.447567 
L 378.194737 64.394969 
L 366.747632 57.606728 
L 355.300526 51.034504 
L 343.853421 45.555454 
L 332.406316 40.477649 
L 320.959211 37.222037 
L 309.512105 34.426687 
L 298.065 33.579918 
z
" clip-path="url(#pe81937df33)" style="fill: #2ca02c; fill-opacity: 0.4"/>
   </g>
   <g id="PolyCollection_12">
    <path d="M 298.065 33.59134 
L 298.065 34.857001 
L 309.512105 35.676235 
L 320.959211 38.817682 
L 332.406316 43.548588 
L 343.853421 49.365257 
L 355.300526 56.836754 
L 366.747632 64.407567 
L 378.194737 73.133881 
L 389.641842 82.094098 
L 401.088947 90.360814 
L 412.536053 98.888313 
L 423.983158 107.033504 
L 435.430263 114.816622 
L 446.877368 121.861828 
L 458.324474 128.825383 
L 469.771579 135.074129 
L 481.218684 140.531185 
L 492.665789 145.931315 
L 504.112895 150.258586 
L 515.56 155.147934 
L 515.56 137.418785 
L 515.56 137.418785 
L 504.112895 133.158381 
L 492.665789 128.543121 
L 481.218684 123.077681 
L 469.771579 117.833245 
L 458.324474 112.316166 
L 446.877368 105.86119 
L 435.430263 99.809208 
L 423.983158 92.474955 
L 412.536053 86.144297 
L 401.088947 78.557643 
L 389.641842 70.469935 
L 378.194737 64.422176 
L 366.747632 57.625514 
L 355.300526 51.066542 
L 343.853421 45.564288 
L 332.406316 40.486882 
L 320.959211 37.247654 
L 309.512105 34.433965 
L 298.065 33.59134 
z
" clip-path="url(#pe81937df33)" style="fill: #d62728; fill-opacity: 0.4"/>
   </g>
   <g id="PolyCollection_13">
    <path d="M 298.065 33.588097 
L 298.065 34.845531 
L 309.512105 35.642126 
L 320.959211 38.782929 
L 332.406316 43.509757 
L 343.853421 49.258908 
L 355.300526 56.680984 
L 366.747632 64.32322 
L 378.194737 72.812153 
L 389.641842 81.998047 
L 401.088947 89.999571 
L 412.536053 98.495778 
L 423.983158 106.226665 
L 435.430263 114.246494 
L 446.877368 121.332832 
L 458.324474 127.032552 
L 469.771579 134.329085 
L 481.218684 139.803913 
L 492.665789 144.548918 
L 504.112895 148.803358 
L 515.56 153.341628 
L 515.56 137.037888 
L 515.56 137.037888 
L 504.112895 132.350629 
L 492.665789 128.320944 
L 481.218684 122.752655 
L 469.771579 117.706137 
L 458.324474 113.171759 
L 446.877368 105.882601 
L 435.430263 99.956916 
L 423.983158 92.454674 
L 412.536053 86.075941 
L 401.088947 78.572829 
L 389.641842 70.398961 
L 378.194737 64.307886 
L 366.747632 57.677789 
L 355.300526 51.032889 
L 343.853421 45.655683 
L 332.406316 40.563205 
L 320.959211 37.218296 
L 309.512105 34.440893 
L 298.065 33.588097 
z
" clip-path="url(#pe81937df33)" style="fill: #9467bd; fill-opacity: 0.4"/>
   </g>
   <g id="PolyCollection_14">
    <path d="M 298.065 33.601541 
L 298.065 34.864599 
L 309.512105 35.655545 
L 320.959211 38.80922 
L 332.406316 43.56852 
L 343.853421 49.333987 
L 355.300526 56.766627 
L 366.747632 64.419786 
L 378.194737 72.921607 
L 389.641842 82.124523 
L 401.088947 90.123108 
L 412.536053 98.637636 
L 423.983158 106.407841 
L 435.430263 114.443747 
L 446.877368 121.591578 
L 458.324474 127.393422 
L 469.771579 134.731471 
L 481.218684 140.179473 
L 492.665789 144.956473 
L 504.112895 149.286282 
L 515.56 153.851965 
L 515.56 137.281448 
L 515.56 137.281448 
L 504.112895 132.652541 
L 492.665789 128.568451 
L 481.218684 122.902883 
L 469.771579 117.754245 
L 458.324474 113.280294 
L 446.877368 105.974394 
L 435.430263 99.96268 
L 423.983158 92.447409 
L 412.536053 86.099667 
L 401.088947 78.561734 
L 389.641842 70.400192 
L 378.194737 64.309901 
L 366.747632 57.683332 
L 355.300526 51.034429 
L 343.853421 45.63805 
L 332.406316 40.551416 
L 320.959211 37.231884 
L 309.512105 34.448449 
L 298.065 33.601541 
z
" clip-path="url(#pe81937df33)" style="fill: #8c564b; fill-opacity: 0.4"/>
   </g>
   <g id="PolyCollection_15">
    <path d="M 298.065 46.612282 
L 298.065 50.601077 
L 309.512105 51.13971 
L 320.959211 53.990703 
L 332.406316 57.751277 
L 343.853421 62.8478 
L 355.300526 69.167775 
L 366.747632 76.299304 
L 378.194737 84.574767 
L 389.641842 92.814897 
L 401.088947 100.709803 
L 412.536053 108.547516 
L 423.983158 115.880244 
L 435.430263 122.761096 
L 446.877368 129.123174 
L 458.324474 135.534334 
L 469.771579 140.897386 
L 481.218684 145.97984 
L 492.665789 150.896934 
L 504.112895 154.711377 
L 515.56 159.203294 
L 515.56 144.729968 
L 515.56 144.729968 
L 504.112895 141.442318 
L 492.665789 137.483568 
L 481.218684 133.081537 
L 469.771579 128.489333 
L 458.324474 123.907367 
L 446.877368 118.087935 
L 435.430263 112.429482 
L 423.983158 105.65 
L 412.536053 99.970016 
L 401.088947 92.382106 
L 389.641842 84.708838 
L 378.194737 78.814303 
L 366.747632 72.362729 
L 355.300526 65.80983 
L 343.853421 60.061574 
L 332.406316 54.640399 
L 320.959211 50.591318 
L 309.512105 47.713917 
L 298.065 46.612282 
z
" clip-path="url(#pe81937df33)" style="fill: #e377c2; fill-opacity: 0.4"/>
   </g>
   <g id="PolyCollection_16">
    <path d="M 298.065 33.604403 
L 298.065 34.851408 
L 309.512105 35.661888 
L 320.959211 38.807253 
L 332.406316 43.539904 
L 343.853421 49.348582 
L 355.300526 56.758534 
L 366.747632 64.27496 
L 378.194737 72.940321 
L 389.641842 81.866296 
L 401.088947 90.077562 
L 412.536053 98.65817 
L 423.983158 106.729216 
L 435.430263 114.54897 
L 446.877368 121.55033 
L 458.324474 128.624142 
L 469.771579 134.80696 
L 481.218684 140.227037 
L 492.665789 145.55371 
L 504.112895 149.904324 
L 515.56 154.768454 
L 515.56 136.615511 
L 515.56 136.615511 
L 504.112895 132.566319 
L 492.665789 127.90646 
L 481.218684 122.516302 
L 469.771579 117.315013 
L 458.324474 111.922379 
L 446.877368 105.542193 
L 435.430263 99.540324 
L 423.983158 92.331116 
L 412.536053 86.09443 
L 401.088947 78.54414 
L 389.641842 70.495859 
L 378.194737 64.443312 
L 366.747632 57.634501 
L 355.300526 51.07073 
L 343.853421 45.57575 
L 332.406316 40.489116 
L 320.959211 37.245246 
L 309.512105 34.427671 
L 298.065 33.604403 
z
" clip-path="url(#pe81937df33)" style="fill: #7f7f7f; fill-opacity: 0.4"/>
   </g>
   <g id="matplotlib.axis_3">
    <g id="xtick_6">
     <g id="line2d_17">
      <g>
       <use xlink:href="#mae6e7882e9" x="298.065" y="174.04" style="stroke: #000000; stroke-width: 0.8"/>
      </g>
     </g>
     <g id="text_12">
      <!-- 0.0 -->
      <g transform="translate(290.113437 188.638438)scale(0.1 -0.1)">
       <use xlink:href="#DejaVuSans-30"/>
       <use xlink:href="#DejaVuSans-2e" x="63.623047"/>
       <use xlink:href="#DejaVuSans-30" x="95.410156"/>
      </g>
     </g>
    </g>
    <g id="xtick_7">
     <g id="line2d_18">
      <g>
       <use xlink:href="#mae6e7882e9" x="352.43875" y="174.04" style="stroke: #000000; stroke-width: 0.8"/>
      </g>
     </g>
     <g id="text_13">
      <!-- 0.5 -->
      <g transform="translate(344.487187 188.638438)scale(0.1 -0.1)">
       <use xlink:href="#DejaVuSans-30"/>
       <use xlink:href="#DejaVuSans-2e" x="63.623047"/>
       <use xlink:href="#DejaVuSans-35" x="95.410156"/>
      </g>
     </g>
    </g>
    <g id="xtick_8">
     <g id="line2d_19">
      <g>
       <use xlink:href="#mae6e7882e9" x="406.8125" y="174.04" style="stroke: #000000; stroke-width: 0.8"/>
      </g>
     </g>
     <g id="text_14">
      <!-- 1.0 -->
      <g transform="translate(398.860937 188.638438)scale(0.1 -0.1)">
       <use xlink:href="#DejaVuSans-31"/>
       <use xlink:href="#DejaVuSans-2e" x="63.623047"/>
       <use xlink:href="#DejaVuSans-30" x="95.410156"/>
      </g>
     </g>
    </g>
    <g id="xtick_9">
     <g id="line2d_20">
      <g>
       <use xlink:href="#mae6e7882e9" x="461.18625" y="174.04" style="stroke: #000000; stroke-width: 0.8"/>
      </g>
     </g>
     <g id="text_15">
      <!-- 1.5 -->
      <g transform="translate(453.234687 188.638438)scale(0.1 -0.1)">
       <use xlink:href="#DejaVuSans-31"/>
       <use xlink:href="#DejaVuSans-2e" x="63.623047"/>
       <use xlink:href="#DejaVuSans-35" x="95.410156"/>
      </g>
     </g>
    </g>
    <g id="xtick_10">
     <g id="line2d_21">
      <g>
       <use xlink:href="#mae6e7882e9" x="515.56" y="174.04" style="stroke: #000000; stroke-width: 0.8"/>
      </g>
     </g>
     <g id="text_16">
      <!-- 2.0 -->
      <g transform="translate(507.608437 188.638438)scale(0.1 -0.1)">
       <use xlink:href="#DejaVuSans-32"/>
       <use xlink:href="#DejaVuSans-2e" x="63.623047"/>
       <use xlink:href="#DejaVuSans-30" x="95.410156"/>
      </g>
     </g>
    </g>
    <g id="text_17">
     <!-- Influence of surprisal (multiplication) -->
     <g transform="translate(314.665625 202.316563)scale(0.1 -0.1)">
      <use xlink:href="#DejaVuSans-49"/>
      <use xlink:href="#DejaVuSans-6e" x="29.492188"/>
      <use xlink:href="#DejaVuSans-66" x="92.871094"/>
      <use xlink:href="#DejaVuSans-6c" x="128.076172"/>
      <use xlink:href="#DejaVuSans-75" x="155.859375"/>
      <use xlink:href="#DejaVuSans-65" x="219.238281"/>
      <use xlink:href="#DejaVuSans-6e" x="280.761719"/>
      <use xlink:href="#DejaVuSans-63" x="344.140625"/>
      <use xlink:href="#DejaVuSans-65" x="399.121094"/>
      <use xlink:href="#DejaVuSans-20" x="460.644531"/>
      <use xlink:href="#DejaVuSans-6f" x="492.431641"/>
      <use xlink:href="#DejaVuSans-66" x="553.613281"/>
      <use xlink:href="#DejaVuSans-20" x="588.818359"/>
      <use xlink:href="#DejaVuSans-73" x="620.605469"/>
      <use xlink:href="#DejaVuSans-75" x="672.705078"/>
      <use xlink:href="#DejaVuSans-72" x="736.083984"/>
      <use xlink:href="#DejaVuSans-70" x="777.197266"/>
      <use xlink:href="#DejaVuSans-72" x="840.673828"/>
      <use xlink:href="#DejaVuSans-69" x="881.787109"/>
      <use xlink:href="#DejaVuSans-73" x="909.570312"/>
      <use xlink:href="#DejaVuSans-61" x="961.669922"/>
      <use xlink:href="#DejaVuSans-6c" x="1022.949219"/>
      <use xlink:href="#DejaVuSans-20" x="1050.732422"/>
      <use xlink:href="#DejaVuSans-28" x="1082.519531"/>
      <use xlink:href="#DejaVuSans-6d" x="1121.533203"/>
      <use xlink:href="#DejaVuSans-75" x="1218.945312"/>
      <use xlink:href="#DejaVuSans-6c" x="1282.324219"/>
      <use xlink:href="#DejaVuSans-74" x="1310.107422"/>
      <use xlink:href="#DejaVuSans-69" x="1349.316406"/>
      <use xlink:href="#DejaVuSans-70" x="1377.099609"/>
      <use xlink:href="#DejaVuSans-6c" x="1440.576172"/>
      <use xlink:href="#DejaVuSans-69" x="1468.359375"/>
      <use xlink:href="#DejaVuSans-63" x="1496.142578"/>
      <use xlink:href="#DejaVuSans-61" x="1551.123047"/>
      <use xlink:href="#DejaVuSans-74" x="1612.402344"/>
      <use xlink:href="#DejaVuSans-69" x="1651.611328"/>
      <use xlink:href="#DejaVuSans-6f" x="1679.394531"/>
      <use xlink:href="#DejaVuSans-6e" x="1740.576172"/>
      <use xlink:href="#DejaVuSans-29" x="1803.955078"/>
     </g>
    </g>
   </g>
   <g id="line2d_22">
    <path d="M 298.065 34.198276 
L 309.512105 35.029341 
L 320.959211 37.981932 
L 332.406316 41.966873 
L 343.853421 47.4023 
L 355.300526 53.82714 
L 366.747632 60.862741 
L 378.194737 68.585837 
L 389.641842 76.051524 
L 401.088947 84.18836 
L 412.536053 92.194848 
L 423.983158 99.309551 
L 435.430263 106.786394 
L 446.877368 113.159456 
L 458.324474 119.775859 
L 469.771579 125.569339 
L 481.218684 130.759377 
L 492.665789 136.000041 
L 504.112895 140.39583 
L 515.56 144.778584 
" clip-path="url(#pe81937df33)" style="fill: none; stroke: #1f77b4; stroke-width: 1.5; stroke-linecap: square"/>
   </g>
   <g id="line2d_23">
    <path d="M 298.065 34.214249 
L 309.512105 35.039475 
L 320.959211 38.002257 
L 332.406316 41.990581 
L 343.853421 47.431574 
L 355.300526 53.871207 
L 366.747632 60.912282 
L 378.194737 68.645583 
L 389.641842 76.119781 
L 401.088947 84.240582 
L 412.536053 92.275628 
L 423.983158 99.398839 
L 435.430263 106.90532 
L 446.877368 113.334512 
L 458.324474 120.012899 
L 469.771579 125.793705 
L 481.218684 131.039834 
L 492.665789 136.339938 
L 504.112895 140.782718 
L 515.56 145.157067 
" clip-path="url(#pe81937df33)" style="fill: none; stroke: #ff7f0e; stroke-width: 1.5; stroke-linecap: square"/>
   </g>
   <g id="line2d_24">
    <path d="M 298.065 34.211736 
L 309.512105 35.045422 
L 320.959211 38.006872 
L 332.406316 41.998182 
L 343.853421 47.43989 
L 355.300526 53.913706 
L 366.747632 60.974971 
L 378.194737 68.723329 
L 389.641842 76.221009 
L 401.088947 84.389454 
L 412.536053 92.44295 
L 423.983158 99.647221 
L 435.430263 107.173303 
L 446.877368 113.717602 
L 458.324474 120.376344 
L 469.771579 126.278525 
L 481.218684 131.572463 
L 492.665789 136.998745 
L 504.112895 141.45841 
L 515.56 146.012452 
" clip-path="url(#pe81937df33)" style="fill: none; stroke: #2ca02c; stroke-width: 1.5; stroke-linecap: square"/>
   </g>
   <g id="line2d_25">
    <path d="M 298.065 34.224171 
L 309.512105 35.0551 
L 320.959211 38.032668 
L 332.406316 42.017735 
L 343.853421 47.464772 
L 355.300526 53.951648 
L 366.747632 61.01654 
L 378.194737 68.778029 
L 389.641842 76.282016 
L 401.088947 84.459228 
L 412.536053 92.516305 
L 423.983158 99.75423 
L 435.430263 107.312915 
L 446.877368 113.861509 
L 458.324474 120.570775 
L 469.771579 126.453687 
L 481.218684 131.804433 
L 492.665789 137.237218 
L 504.112895 141.708483 
L 515.56 146.28336 
" clip-path="url(#pe81937df33)" style="fill: none; stroke: #d62728; stroke-width: 1.5; stroke-linecap: square"/>
   </g>
   <g id="line2d_26">
    <path d="M 298.065 34.216814 
L 309.512105 35.041509 
L 320.959211 38.000612 
L 332.406316 42.036481 
L 343.853421 47.457295 
L 355.300526 53.856936 
L 366.747632 61.000505 
L 378.194737 68.560019 
L 389.641842 76.198504 
L 401.088947 84.2862 
L 412.536053 92.285859 
L 423.983158 99.340669 
L 435.430263 107.101705 
L 446.877368 113.607716 
L 458.324474 120.102156 
L 469.771579 126.017611 
L 481.218684 131.278284 
L 492.665789 136.434931 
L 504.112895 140.576993 
L 515.56 145.189758 
" clip-path="url(#pe81937df33)" style="fill: none; stroke: #9467bd; stroke-width: 1.5; stroke-linecap: square"/>
   </g>
   <g id="line2d_27">
    <path d="M 298.065 34.23307 
L 309.512105 35.051997 
L 320.959211 38.020552 
L 332.406316 42.059968 
L 343.853421 47.486019 
L 355.300526 53.900528 
L 366.747632 61.051559 
L 378.194737 68.615754 
L 389.641842 76.262357 
L 401.088947 84.342421 
L 412.536053 92.368652 
L 423.983158 99.427625 
L 435.430263 107.203214 
L 446.877368 113.782986 
L 458.324474 120.336858 
L 469.771579 126.242858 
L 481.218684 131.541178 
L 492.665789 136.762462 
L 504.112895 140.969412 
L 515.56 145.566706 
" clip-path="url(#pe81937df33)" style="fill: none; stroke: #8c564b; stroke-width: 1.5; stroke-linecap: square"/>
   </g>
   <g id="line2d_28">
    <path d="M 298.065 48.60668 
L 309.512105 49.426813 
L 320.959211 52.291011 
L 332.406316 56.195838 
L 343.853421 61.454687 
L 355.300526 67.488803 
L 366.747632 74.331017 
L 378.194737 81.694535 
L 389.641842 88.761868 
L 401.088947 96.545955 
L 412.536053 104.258766 
L 423.983158 110.765122 
L 435.430263 117.595289 
L 446.877368 123.605554 
L 458.324474 129.720851 
L 469.771579 134.693359 
L 481.218684 139.530688 
L 492.665789 144.190251 
L 504.112895 148.076848 
L 515.56 151.966631 
" clip-path="url(#pe81937df33)" style="fill: none; stroke: #e377c2; stroke-width: 1.5; stroke-linecap: square"/>
   </g>
   <g id="line2d_29">
    <path d="M 298.065 34.227906 
L 309.512105 35.044779 
L 320.959211 38.026249 
L 332.406316 42.01451 
L 343.853421 47.462166 
L 355.300526 53.914632 
L 366.747632 60.95473 
L 378.194737 68.691817 
L 389.641842 76.181078 
L 401.088947 84.310851 
L 412.536053 92.3763 
L 423.983158 99.530166 
L 435.430263 107.044647 
L 446.877368 113.546261 
L 458.324474 120.273261 
L 469.771579 126.060987 
L 481.218684 131.37167 
L 492.665789 136.730085 
L 504.112895 141.235322 
L 515.56 145.691982 
" clip-path="url(#pe81937df33)" style="fill: none; stroke: #7f7f7f; stroke-width: 1.5; stroke-linecap: square"/>
   </g>
   <g id="patch_6">
    <path d="M 298.065 174.04 
L 298.065 26.88 
" style="fill: none; stroke: #000000; stroke-width: 0.8; stroke-linejoin: miter; stroke-linecap: square"/>
   </g>
   <g id="patch_7">
    <path d="M 298.065 174.04 
L 515.56 174.04 
" style="fill: none; stroke: #000000; stroke-width: 0.8; stroke-linejoin: miter; stroke-linecap: square"/>
   </g>
   <g id="text_18">
    <!-- Node * third variable -->
    <g transform="translate(344.2325 20.88)scale(0.12 -0.12)">
     <defs>
      <path id="DejaVuSans-68" d="M 3513 2113 
L 3513 0 
L 2938 0 
L 2938 2094 
Q 2938 2591 2744 2837 
Q 2550 3084 2163 3084 
Q 1697 3084 1428 2787 
Q 1159 2491 1159 1978 
L 1159 0 
L 581 0 
L 581 4863 
L 1159 4863 
L 1159 2956 
Q 1366 3272 1645 3428 
Q 1925 3584 2291 3584 
Q 2894 3584 3203 3211 
Q 3513 2838 3513 2113 
z
" transform="scale(0.015625)"/>
      <path id="DejaVuSans-62" d="M 3116 1747 
Q 3116 2381 2855 2742 
Q 2594 3103 2138 3103 
Q 1681 3103 1420 2742 
Q 1159 2381 1159 1747 
Q 1159 1113 1420 752 
Q 1681 391 2138 391 
Q 2594 391 2855 752 
Q 3116 1113 3116 1747 
z
M 1159 2969 
Q 1341 3281 1617 3432 
Q 1894 3584 2278 3584 
Q 2916 3584 3314 3078 
Q 3713 2572 3713 1747 
Q 3713 922 3314 415 
Q 2916 -91 2278 -91 
Q 1894 -91 1617 61 
Q 1341 213 1159 525 
L 1159 0 
L 581 0 
L 581 4863 
L 1159 4863 
L 1159 2969 
z
" transform="scale(0.015625)"/>
     </defs>
     <use xlink:href="#DejaVuSans-4e"/>
     <use xlink:href="#DejaVuSans-6f" x="74.804688"/>
     <use xlink:href="#DejaVuSans-64" x="135.986328"/>
     <use xlink:href="#DejaVuSans-65" x="199.462891"/>
     <use xlink:href="#DejaVuSans-20" x="260.986328"/>
     <use xlink:href="#DejaVuSans-2a" x="292.773438"/>
     <use xlink:href="#DejaVuSans-20" x="342.773438"/>
     <use xlink:href="#DejaVuSans-74" x="374.560547"/>
     <use xlink:href="#DejaVuSans-68" x="413.769531"/>
     <use xlink:href="#DejaVuSans-69" x="477.148438"/>
     <use xlink:href="#DejaVuSans-72" x="504.931641"/>
     <use xlink:href="#DejaVuSans-64" x="544.294922"/>
     <use xlink:href="#DejaVuSans-20" x="607.771484"/>
     <use xlink:href="#DejaVuSans-76" x="639.558594"/>
     <use xlink:href="#DejaVuSans-61" x="698.738281"/>
     <use xlink:href="#DejaVuSans-72" x="760.017578"/>
     <use xlink:href="#DejaVuSans-69" x="801.130859"/>
     <use xlink:href="#DejaVuSans-61" x="828.914062"/>
     <use xlink:href="#DejaVuSans-62" x="890.193359"/>
     <use xlink:href="#DejaVuSans-6c" x="953.669922"/>
     <use xlink:href="#DejaVuSans-65" x="981.453125"/>
    </g>
   </g>
   <g id="legend_1">
    <g id="line2d_30">
     <path d="M 524.56 39.978437 
L 534.56 39.978437 
L 544.56 39.978437 
" style="fill: none; stroke: #1f77b4; stroke-width: 1.5; stroke-linecap: square"/>
    </g>
    <g id="text_19">
     <!-- Node -->
     <g transform="translate(552.56 43.478437)scale(0.1 -0.1)">
      <use xlink:href="#DejaVuSans-4e"/>
      <use xlink:href="#DejaVuSans-6f" x="74.804688"/>
      <use xlink:href="#DejaVuSans-64" x="135.986328"/>
      <use xlink:href="#DejaVuSans-65" x="199.462891"/>
     </g>
    </g>
    <g id="line2d_31">
     <path d="M 524.56 54.656563 
L 534.56 54.656563 
L 544.56 54.656563 
" style="fill: none; stroke: #ff7f0e; stroke-width: 1.5; stroke-linecap: square"/>
    </g>
    <g id="text_20">
     <!-- Node + surprisal -->
     <g transform="translate(552.56 58.156563)scale(0.1 -0.1)">
      <defs>
       <path id="DejaVuSans-2b" d="M 2944 4013 
L 2944 2272 
L 4684 2272 
L 4684 1741 
L 2944 1741 
L 2944 0 
L 2419 0 
L 2419 1741 
L 678 1741 
L 678 2272 
L 2419 2272 
L 2419 4013 
L 2944 4013 
z
" transform="scale(0.015625)"/>
      </defs>
      <use xlink:href="#DejaVuSans-4e"/>
      <use xlink:href="#DejaVuSans-6f" x="74.804688"/>
      <use xlink:href="#DejaVuSans-64" x="135.986328"/>
      <use xlink:href="#DejaVuSans-65" x="199.462891"/>
      <use xlink:href="#DejaVuSans-20" x="260.986328"/>
      <use xlink:href="#DejaVuSans-2b" x="292.773438"/>
      <use xlink:href="#DejaVuSans-20" x="376.5625"/>
      <use xlink:href="#DejaVuSans-73" x="408.349609"/>
      <use xlink:href="#DejaVuSans-75" x="460.449219"/>
      <use xlink:href="#DejaVuSans-72" x="523.828125"/>
      <use xlink:href="#DejaVuSans-70" x="564.941406"/>
      <use xlink:href="#DejaVuSans-72" x="628.417969"/>
      <use xlink:href="#DejaVuSans-69" x="669.53125"/>
      <use xlink:href="#DejaVuSans-73" x="697.314453"/>
      <use xlink:href="#DejaVuSans-61" x="749.414062"/>
      <use xlink:href="#DejaVuSans-6c" x="810.693359"/>
     </g>
    </g>
    <g id="line2d_32">
     <path d="M 524.56 69.334687 
L 534.56 69.334687 
L 544.56 69.334687 
" style="fill: none; stroke: #2ca02c; stroke-width: 1.5; stroke-linecap: square"/>
    </g>
    <g id="text_21">
     <!-- Node split -->
     <g transform="translate(552.56 72.834687)scale(0.1 -0.1)">
      <use xlink:href="#DejaVuSans-4e"/>
      <use xlink:href="#DejaVuSans-6f" x="74.804688"/>
      <use xlink:href="#DejaVuSans-64" x="135.986328"/>
      <use xlink:href="#DejaVuSans-65" x="199.462891"/>
      <use xlink:href="#DejaVuSans-20" x="260.986328"/>
      <use xlink:href="#DejaVuSans-73" x="292.773438"/>
      <use xlink:href="#DejaVuSans-70" x="344.873047"/>
      <use xlink:href="#DejaVuSans-6c" x="408.349609"/>
      <use xlink:href="#DejaVuSans-69" x="436.132812"/>
      <use xlink:href="#DejaVuSans-74" x="463.916016"/>
     </g>
    </g>
    <g id="line2d_33">
     <path d="M 524.56 84.012812 
L 534.56 84.012812 
L 544.56 84.012812 
" style="fill: none; stroke: #d62728; stroke-width: 1.5; stroke-linecap: square"/>
    </g>
    <g id="text_22">
     <!-- Node split + surprisal -->
     <g transform="translate(552.56 87.512812)scale(0.1 -0.1)">
      <use xlink:href="#DejaVuSans-4e"/>
      <use xlink:href="#DejaVuSans-6f" x="74.804688"/>
      <use xlink:href="#DejaVuSans-64" x="135.986328"/>
      <use xlink:href="#DejaVuSans-65" x="199.462891"/>
      <use xlink:href="#DejaVuSans-20" x="260.986328"/>
      <use xlink:href="#DejaVuSans-73" x="292.773438"/>
      <use xlink:href="#DejaVuSans-70" x="344.873047"/>
      <use xlink:href="#DejaVuSans-6c" x="408.349609"/>
      <use xlink:href="#DejaVuSans-69" x="436.132812"/>
      <use xlink:href="#DejaVuSans-74" x="463.916016"/>
      <use xlink:href="#DejaVuSans-20" x="503.125"/>
      <use xlink:href="#DejaVuSans-2b" x="534.912109"/>
      <use xlink:href="#DejaVuSans-20" x="618.701172"/>
      <use xlink:href="#DejaVuSans-73" x="650.488281"/>
      <use xlink:href="#DejaVuSans-75" x="702.587891"/>
      <use xlink:href="#DejaVuSans-72" x="765.966797"/>
      <use xlink:href="#DejaVuSans-70" x="807.080078"/>
      <use xlink:href="#DejaVuSans-72" x="870.556641"/>
      <use xlink:href="#DejaVuSans-69" x="911.669922"/>
      <use xlink:href="#DejaVuSans-73" x="939.453125"/>
      <use xlink:href="#DejaVuSans-61" x="991.552734"/>
      <use xlink:href="#DejaVuSans-6c" x="1052.832031"/>
     </g>
    </g>
    <g id="line2d_34">
     <path d="M 524.56 98.690937 
L 534.56 98.690937 
L 544.56 98.690937 
" style="fill: none; stroke: #9467bd; stroke-width: 1.5; stroke-linecap: square"/>
    </g>
    <g id="text_23">
     <!-- Node random split -->
     <g transform="translate(552.56 102.190937)scale(0.1 -0.1)">
      <use xlink:href="#DejaVuSans-4e"/>
      <use xlink:href="#DejaVuSans-6f" x="74.804688"/>
      <use xlink:href="#DejaVuSans-64" x="135.986328"/>
      <use xlink:href="#DejaVuSans-65" x="199.462891"/>
      <use xlink:href="#DejaVuSans-20" x="260.986328"/>
      <use xlink:href="#DejaVuSans-72" x="292.773438"/>
      <use xlink:href="#DejaVuSans-61" x="333.886719"/>
      <use xlink:href="#DejaVuSans-6e" x="395.166016"/>
      <use xlink:href="#DejaVuSans-64" x="458.544922"/>
      <use xlink:href="#DejaVuSans-6f" x="522.021484"/>
      <use xlink:href="#DejaVuSans-6d" x="583.203125"/>
      <use xlink:href="#DejaVuSans-20" x="680.615234"/>
      <use xlink:href="#DejaVuSans-73" x="712.402344"/>
      <use xlink:href="#DejaVuSans-70" x="764.501953"/>
      <use xlink:href="#DejaVuSans-6c" x="827.978516"/>
      <use xlink:href="#DejaVuSans-69" x="855.761719"/>
      <use xlink:href="#DejaVuSans-74" x="883.544922"/>
     </g>
    </g>
    <g id="line2d_35">
     <path d="M 524.56 113.369062 
L 534.56 113.369062 
L 544.56 113.369062 
" style="fill: none; stroke: #8c564b; stroke-width: 1.5; stroke-linecap: square"/>
    </g>
    <g id="text_24">
     <!-- Node random split + surprisal -->
     <g transform="translate(552.56 116.869062)scale(0.1 -0.1)">
      <use xlink:href="#DejaVuSans-4e"/>
      <use xlink:href="#DejaVuSans-6f" x="74.804688"/>
      <use xlink:href="#DejaVuSans-64" x="135.986328"/>
      <use xlink:href="#DejaVuSans-65" x="199.462891"/>
      <use xlink:href="#DejaVuSans-20" x="260.986328"/>
      <use xlink:href="#DejaVuSans-72" x="292.773438"/>
      <use xlink:href="#DejaVuSans-61" x="333.886719"/>
      <use xlink:href="#DejaVuSans-6e" x="395.166016"/>
      <use xlink:href="#DejaVuSans-64" x="458.544922"/>
      <use xlink:href="#DejaVuSans-6f" x="522.021484"/>
      <use xlink:href="#DejaVuSans-6d" x="583.203125"/>
      <use xlink:href="#DejaVuSans-20" x="680.615234"/>
      <use xlink:href="#DejaVuSans-73" x="712.402344"/>
      <use xlink:href="#DejaVuSans-70" x="764.501953"/>
      <use xlink:href="#DejaVuSans-6c" x="827.978516"/>
      <use xlink:href="#DejaVuSans-69" x="855.761719"/>
      <use xlink:href="#DejaVuSans-74" x="883.544922"/>
      <use xlink:href="#DejaVuSans-20" x="922.753906"/>
      <use xlink:href="#DejaVuSans-2b" x="954.541016"/>
      <use xlink:href="#DejaVuSans-20" x="1038.330078"/>
      <use xlink:href="#DejaVuSans-73" x="1070.117188"/>
      <use xlink:href="#DejaVuSans-75" x="1122.216797"/>
      <use xlink:href="#DejaVuSans-72" x="1185.595703"/>
      <use xlink:href="#DejaVuSans-70" x="1226.708984"/>
      <use xlink:href="#DejaVuSans-72" x="1290.185547"/>
      <use xlink:href="#DejaVuSans-69" x="1331.298828"/>
      <use xlink:href="#DejaVuSans-73" x="1359.082031"/>
      <use xlink:href="#DejaVuSans-61" x="1411.181641"/>
      <use xlink:href="#DejaVuSans-6c" x="1472.460938"/>
     </g>
    </g>
    <g id="line2d_36">
     <path d="M 524.56 128.047187 
L 534.56 128.047187 
L 544.56 128.047187 
" style="fill: none; stroke: #e377c2; stroke-width: 1.5; stroke-linecap: square"/>
    </g>
    <g id="text_25">
     <!-- Interaction -->
     <g transform="translate(552.56 131.547187)scale(0.1 -0.1)">
      <use xlink:href="#DejaVuSans-49"/>
      <use xlink:href="#DejaVuSans-6e" x="29.492188"/>
      <use xlink:href="#DejaVuSans-74" x="92.871094"/>
      <use xlink:href="#DejaVuSans-65" x="132.080078"/>
      <use xlink:href="#DejaVuSans-72" x="193.603516"/>
      <use xlink:href="#DejaVuSans-61" x="234.716797"/>
      <use xlink:href="#DejaVuSans-63" x="295.996094"/>
      <use xlink:href="#DejaVuSans-74" x="350.976562"/>
      <use xlink:href="#DejaVuSans-69" x="390.185547"/>
      <use xlink:href="#DejaVuSans-6f" x="417.96875"/>
      <use xlink:href="#DejaVuSans-6e" x="479.150391"/>
     </g>
    </g>
    <g id="line2d_37">
     <path d="M 524.56 142.725312 
L 534.56 142.725312 
L 544.56 142.725312 
" style="fill: none; stroke: #7f7f7f; stroke-width: 1.5; stroke-linecap: square"/>
    </g>
    <g id="text_26">
     <!-- Node + surprisal + interaction -->
     <g transform="translate(552.56 146.225312)scale(0.1 -0.1)">
      <use xlink:href="#DejaVuSans-4e"/>
      <use xlink:href="#DejaVuSans-6f" x="74.804688"/>
      <use xlink:href="#DejaVuSans-64" x="135.986328"/>
      <use xlink:href="#DejaVuSans-65" x="199.462891"/>
      <use xlink:href="#DejaVuSans-20" x="260.986328"/>
      <use xlink:href="#DejaVuSans-2b" x="292.773438"/>
      <use xlink:href="#DejaVuSans-20" x="376.5625"/>
      <use xlink:href="#DejaVuSans-73" x="408.349609"/>
      <use xlink:href="#DejaVuSans-75" x="460.449219"/>
      <use xlink:href="#DejaVuSans-72" x="523.828125"/>
      <use xlink:href="#DejaVuSans-70" x="564.941406"/>
      <use xlink:href="#DejaVuSans-72" x="628.417969"/>
      <use xlink:href="#DejaVuSans-69" x="669.53125"/>
      <use xlink:href="#DejaVuSans-73" x="697.314453"/>
      <use xlink:href="#DejaVuSans-61" x="749.414062"/>
      <use xlink:href="#DejaVuSans-6c" x="810.693359"/>
      <use xlink:href="#DejaVuSans-20" x="838.476562"/>
      <use xlink:href="#DejaVuSans-2b" x="870.263672"/>
      <use xlink:href="#DejaVuSans-20" x="954.052734"/>
      <use xlink:href="#DejaVuSans-69" x="985.839844"/>
      <use xlink:href="#DejaVuSans-6e" x="1013.623047"/>
      <use xlink:href="#DejaVuSans-74" x="1077.001953"/>
      <use xlink:href="#DejaVuSans-65" x="1116.210938"/>
      <use xlink:href="#DejaVuSans-72" x="1177.734375"/>
      <use xlink:href="#DejaVuSans-61" x="1218.847656"/>
      <use xlink:href="#DejaVuSans-63" x="1280.126953"/>
      <use xlink:href="#DejaVuSans-74" x="1335.107422"/>
      <use xlink:href="#DejaVuSans-69" x="1374.316406"/>
      <use xlink:href="#DejaVuSans-6f" x="1402.099609"/>
      <use xlink:href="#DejaVuSans-6e" x="1463.28125"/>
     </g>
    </g>
   </g>
  </g>
 </g>
 <defs>
  <clipPath id="pbb414d213c">
   <rect x="47.72" y="26.88" width="217.495" height="147.16"/>
  </clipPath>
  <clipPath id="pe81937df33">
   <rect x="298.065" y="26.88" width="217.495" height="147.16"/>
  </clipPath>
 </defs>
</svg>
