<?xml version="1.0" encoding="utf-8" standalone="no"?>
<!DOCTYPE svg PUBLIC "-//W3C//DTD SVG 1.1//EN"
  "http://www.w3.org/Graphics/SVG/1.1/DTD/svg11.dtd">
<svg xmlns:xlink="http://www.w3.org/1999/xlink" width="720pt" height="216pt" viewBox="0 0 720 216" xmlns="http://www.w3.org/2000/svg" version="1.1">
 <metadata>
  <rdf:RDF xmlns:dc="http://purl.org/dc/elements/1.1/" xmlns:cc="http://creativecommons.org/ns#" xmlns:rdf="http://www.w3.org/1999/02/22-rdf-syntax-ns#">
   <cc:Work>
    <dc:type rdf:resource="http://purl.org/dc/dcmitype/StillImage"/>
    <dc:date>2024-01-16T05:58:31.655890</dc:date>
    <dc:format>image/svg+xml</dc:format>
    <dc:creator>
     <cc:Agent>
      <dc:title>Matplotlib v3.5.1, https://matplotlib.org/</dc:title>
     </cc:Agent>
    </dc:creator>
   </cc:Work>
  </rdf:RDF>
 </metadata>
 <defs>
  <style type="text/css">*{stroke-linejoin: round; stroke-linecap: butt}</style>
 </defs>
 <g id="figure_1">
  <g id="patch_1">
   <path d="M 0 216 
L 720 216 
L 720 0 
L 0 0 
z
" style="fill: #ffffff"/>
  </g>
  <g id="axes_1">
   <g id="patch_2">
    <path d="M 47.72 174.04 
L 265.215 174.04 
L 265.215 26.88 
L 47.72 26.88 
z
" style="fill: #ffffff"/>
   </g>
   <g id="PolyCollection_1">
    <path d="M 47.72 33.814877 
L 47.72 34.477259 
L 59.167105 35.697812 
L 70.614211 39.191774 
L 82.061316 44.516307 
L 93.508421 50.766453 
L 104.955526 58.016459 
L 116.402632 65.498062 
L 127.849737 74.178667 
L 139.296842 81.5517 
L 150.743947 89.946773 
L 162.191053 96.8993 
L 173.638158 104.321562 
L 185.085263 110.89385 
L 196.532368 117.313072 
L 207.979474 123.171567 
L 219.426579 128.296683 
L 230.873684 133.609459 
L 242.320789 138.478467 
L 253.767895 143.824165 
L 265.215 148.007138 
L 265.215 137.432338 
L 265.215 137.432338 
L 253.767895 133.09802 
L 242.320789 128.294638 
L 230.873684 123.007718 
L 219.426579 117.231541 
L 207.979474 111.527413 
L 196.532368 104.676639 
L 185.085263 98.706182 
L 173.638158 90.992858 
L 162.191053 84.636295 
L 150.743947 77.21575 
L 139.296842 71.015325 
L 127.849737 63.679042 
L 116.402632 57.433889 
L 104.955526 50.926957 
L 93.508421 45.067125 
L 82.061316 40.798327 
L 70.614211 37.188191 
L 59.167105 34.668269 
L 47.72 33.814877 
z
" clip-path="url(#pf2dbbadc28)" style="fill: #1f77b4; fill-opacity: 0.4"/>
   </g>
   <g id="PolyCollection_2">
    <path d="M 47.72 33.821802 
L 47.72 34.50588 
L 59.167105 35.270468 
L 70.614211 37.084659 
L 82.061316 40.074112 
L 93.508421 43.811758 
L 104.955526 48.808345 
L 116.402632 53.965794 
L 127.849737 60.608116 
L 139.296842 66.444637 
L 150.743947 73.076819 
L 162.191053 79.151336 
L 173.638158 86.179349 
L 185.085263 92.392865 
L 196.532368 98.803072 
L 207.979474 105.037467 
L 219.426579 110.204541 
L 230.873684 115.727033 
L 242.320789 120.845991 
L 253.767895 126.034623 
L 265.215 130.413925 
L 265.215 120.877102 
L 265.215 120.877102 
L 253.767895 115.916678 
L 242.320789 110.225304 
L 230.873684 104.849598 
L 219.426579 98.706686 
L 207.979474 92.873214 
L 196.532368 86.538993 
L 185.085263 80.924979 
L 173.638158 74.165763 
L 162.191053 68.732972 
L 150.743947 62.54754 
L 139.296842 57.460562 
L 127.849737 52.064389 
L 116.402632 47.440064 
L 104.955526 43.274848 
L 93.508421 39.991345 
L 82.061316 37.655075 
L 70.614211 35.660413 
L 59.167105 34.377948 
L 47.72 33.821802 
z
" clip-path="url(#pf2dbbadc28)" style="fill: #ff7f0e; fill-opacity: 0.4"/>
   </g>
   <g id="PolyCollection_3">
    <path d="M 47.72 33.819988 
L 47.72 34.494003 
L 59.167105 35.431926 
L 70.614211 37.206262 
L 82.061316 39.998197 
L 93.508421 43.18095 
L 104.955526 46.843382 
L 116.402632 50.270277 
L 127.849737 54.645346 
L 139.296842 58.388908 
L 150.743947 62.679392 
L 162.191053 66.002107 
L 173.638158 70.647311 
L 185.085263 74.418069 
L 196.532368 78.316524 
L 207.979474 82.223602 
L 219.426579 85.353746 
L 230.873684 88.690609 
L 242.320789 91.171433 
L 253.767895 94.180372 
L 265.215 97.085868 
L 265.215 86.528794 
L 265.215 86.528794 
L 253.767895 83.165737 
L 242.320789 79.282881 
L 230.873684 76.069937 
L 219.426579 72.226356 
L 207.979474 68.771868 
L 196.532368 65.413059 
L 185.085263 61.955627 
L 173.638158 58.537262 
L 162.191053 55.384589 
L 150.743947 51.996966 
L 139.296842 49.261243 
L 127.849737 46.110683 
L 116.402632 43.363515 
L 104.955526 40.670183 
L 93.508421 38.417901 
L 82.061316 36.943297 
L 70.614211 35.49744 
L 59.167105 34.498309 
L 47.72 33.819988 
z
" clip-path="url(#pf2dbbadc28)" style="fill: #2ca02c; fill-opacity: 0.4"/>
   </g>
   <g id="PolyCollection_4">
    <path d="M 47.72 33.828242 
L 47.72 34.523194 
L 59.167105 35.245555 
L 70.614211 36.509473 
L 82.061316 38.627809 
L 93.508421 41.080792 
L 104.955526 44.292379 
L 116.402632 47.321878 
L 127.849737 51.530565 
L 139.296842 55.191298 
L 150.743947 59.436803 
L 162.191053 62.95161 
L 173.638158 67.659393 
L 185.085263 71.541237 
L 196.532368 75.602892 
L 207.979474 79.610192 
L 219.426579 82.921078 
L 230.873684 86.506169 
L 242.320789 89.236811 
L 253.767895 92.506815 
L 265.215 95.714735 
L 265.215 84.971595 
L 265.215 84.971595 
L 253.767895 81.488713 
L 242.320789 77.5295 
L 230.873684 74.338951 
L 219.426579 70.482523 
L 207.979474 67.106511 
L 196.532368 63.640967 
L 185.085263 60.115559 
L 173.638158 56.533543 
L 162.191053 53.354579 
L 150.743947 49.853878 
L 139.296842 47.133363 
L 127.849737 44.142372 
L 116.402632 41.550356 
L 104.955526 39.199087 
L 93.508421 37.453564 
L 82.061316 36.301219 
L 70.614211 35.160043 
L 59.167105 34.366351 
L 47.72 33.828242 
z
" clip-path="url(#pf2dbbadc28)" style="fill: #d62728; fill-opacity: 0.4"/>
   </g>
   <g id="PolyCollection_5">
    <path d="M 47.72 33.838964 
L 47.72 34.496438 
L 59.167105 35.706799 
L 70.614211 39.218289 
L 82.061316 44.580758 
L 93.508421 50.64009 
L 104.955526 58.094556 
L 116.402632 65.611834 
L 127.849737 74.220853 
L 139.296842 81.667945 
L 150.743947 90.03809 
L 162.191053 96.702465 
L 173.638158 104.518538 
L 185.085263 110.619439 
L 196.532368 117.629383 
L 207.979474 123.269656 
L 219.426579 128.613716 
L 230.873684 133.696187 
L 242.320789 138.829209 
L 253.767895 144.233402 
L 265.215 148.558344 
L 265.215 138.190874 
L 265.215 138.190874 
L 253.767895 132.603208 
L 242.320789 128.653426 
L 230.873684 123.320621 
L 219.426579 117.231427 
L 207.979474 111.779199 
L 196.532368 104.630505 
L 185.085263 98.710704 
L 173.638158 91.232584 
L 162.191053 85.243135 
L 150.743947 77.318225 
L 139.296842 70.956622 
L 127.849737 63.722047 
L 116.402632 57.637881 
L 104.955526 51.021992 
L 93.508421 45.188755 
L 82.061316 40.865655 
L 70.614211 37.226025 
L 59.167105 34.681624 
L 47.72 33.838964 
z
" clip-path="url(#pf2dbbadc28)" style="fill: #9467bd; fill-opacity: 0.4"/>
   </g>
   <g id="PolyCollection_6">
    <path d="M 47.72 33.846852 
L 47.72 34.525612 
L 59.167105 35.280521 
L 70.614211 37.09208 
L 82.061316 40.108821 
L 93.508421 43.794456 
L 104.955526 48.837382 
L 116.402632 54.105526 
L 127.849737 60.613457 
L 139.296842 66.497046 
L 150.743947 73.1115 
L 162.191053 79.09068 
L 173.638158 86.343969 
L 185.085263 92.282535 
L 196.532368 99.005951 
L 207.979474 105.03731 
L 219.426579 110.629902 
L 230.873684 116.017749 
L 242.320789 120.946913 
L 253.767895 126.306709 
L 265.215 130.710419 
L 265.215 121.627841 
L 265.215 121.627841 
L 253.767895 115.624126 
L 242.320789 110.629996 
L 230.873684 105.085891 
L 219.426579 98.66668 
L 207.979474 93.002139 
L 196.532368 86.493678 
L 185.085263 80.899749 
L 173.638158 74.379324 
L 162.191053 68.903784 
L 150.743947 62.638088 
L 139.296842 57.413433 
L 127.849737 52.090445 
L 116.402632 47.472347 
L 104.955526 43.301626 
L 93.508421 40.056448 
L 82.061316 37.681038 
L 70.614211 35.687389 
L 59.167105 34.392652 
L 47.72 33.846852 
z
" clip-path="url(#pf2dbbadc28)" style="fill: #8c564b; fill-opacity: 0.4"/>
   </g>
   <g id="PolyCollection_7">
    <path d="M 47.72 47.59933 
L 47.72 52.649027 
L 59.167105 54.681308 
L 70.614211 59.318633 
L 82.061316 67.067943 
L 93.508421 75.588303 
L 104.955526 84.753709 
L 116.402632 93.267482 
L 127.849737 102.826479 
L 139.296842 110.767869 
L 150.743947 119.142266 
L 162.191053 125.949155 
L 173.638158 133.851925 
L 185.085263 139.702656 
L 196.532368 145.177877 
L 207.979474 149.947121 
L 219.426579 153.662326 
L 230.873684 157.340263 
L 242.320789 160.754871 
L 253.767895 164.342428 
L 265.215 167.350909 
L 265.215 157.937949 
L 265.215 157.937949 
L 253.767895 154.243016 
L 242.320789 149.731917 
L 230.873684 145.238737 
L 219.426579 139.169127 
L 207.979474 133.565866 
L 196.532368 126.522336 
L 185.085263 120.036515 
L 173.638158 112.201046 
L 162.191053 105.469608 
L 150.743947 97.486421 
L 139.296842 90.002424 
L 127.849737 81.885717 
L 116.402632 74.304217 
L 104.955526 66.750703 
L 93.508421 60.020248 
L 82.061316 55.017914 
L 70.614211 51.093037 
L 59.167105 48.458929 
L 47.72 47.59933 
z
" clip-path="url(#pf2dbbadc28)" style="fill: #e377c2; fill-opacity: 0.4"/>
   </g>
   <g id="PolyCollection_8">
    <path d="M 47.72 33.833938 
L 47.72 34.511655 
L 59.167105 34.889461 
L 70.614211 35.086513 
L 82.061316 36.124839 
L 93.508421 38.392311 
L 104.955526 42.030216 
L 116.402632 46.910916 
L 127.849737 52.922843 
L 139.296842 58.59985 
L 150.743947 64.688819 
L 162.191053 70.252696 
L 173.638158 76.830656 
L 185.085263 82.738716 
L 196.532368 88.876356 
L 207.979474 95.695388 
L 219.426579 101.766714 
L 230.873684 108.172102 
L 242.320789 113.828996 
L 253.767895 119.547455 
L 265.215 124.367227 
L 265.215 106.607544 
L 265.215 106.607544 
L 253.767895 101.081712 
L 242.320789 95.233763 
L 230.873684 89.599729 
L 219.426579 83.416095 
L 207.979474 77.575489 
L 196.532368 71.410553 
L 185.085263 65.302096 
L 173.638158 59.047899 
L 162.191053 53.051389 
L 150.743947 47.605809 
L 139.296842 43.305942 
L 127.849737 39.509042 
L 116.402632 37.001182 
L 104.955526 35.450609 
L 93.508421 34.623561 
L 82.061316 34.565695 
L 70.614211 34.166743 
L 59.167105 34.040625 
L 47.72 33.833938 
z
" clip-path="url(#pf2dbbadc28)" style="fill: #7f7f7f; fill-opacity: 0.4"/>
   </g>
   <g id="matplotlib.axis_1">
    <g id="xtick_1">
     <g id="line2d_1">
      <defs>
       <path id="m9cdea1cc27" d="M 0 0 
L 0 3.5 
" style="stroke: #000000; stroke-width: 0.8"/>
      </defs>
      <g>
       <use xlink:href="#m9cdea1cc27" x="47.72" y="174.04" style="stroke: #000000; stroke-width: 0.8"/>
      </g>
     </g>
     <g id="text_1">
      <!-- 0.0 -->
      <g transform="translate(39.768438 188.638438)scale(0.1 -0.1)">
       <defs>
        <path id="DejaVuSans-30" d="M 2034 4250 
Q 1547 4250 1301 3770 
Q 1056 3291 1056 2328 
Q 1056 1369 1301 889 
Q 1547 409 2034 409 
Q 2525 409 2770 889 
Q 3016 1369 3016 2328 
Q 3016 3291 2770 3770 
Q 2525 4250 2034 4250 
z
M 2034 4750 
Q 2819 4750 3233 4129 
Q 3647 3509 3647 2328 
Q 3647 1150 3233 529 
Q 2819 -91 2034 -91 
Q 1250 -91 836 529 
Q 422 1150 422 2328 
Q 422 3509 836 4129 
Q 1250 4750 2034 4750 
z
" transform="scale(0.015625)"/>
        <path id="DejaVuSans-2e" d="M 684 794 
L 1344 794 
L 1344 0 
L 684 0 
L 684 794 
z
" transform="scale(0.015625)"/>
       </defs>
       <use xlink:href="#DejaVuSans-30"/>
       <use xlink:href="#DejaVuSans-2e" x="63.623047"/>
       <use xlink:href="#DejaVuSans-30" x="95.410156"/>
      </g>
     </g>
    </g>
    <g id="xtick_2">
     <g id="line2d_2">
      <g>
       <use xlink:href="#m9cdea1cc27" x="102.09375" y="174.04" style="stroke: #000000; stroke-width: 0.8"/>
      </g>
     </g>
     <g id="text_2">
      <!-- 0.5 -->
      <g transform="translate(94.142188 188.638438)scale(0.1 -0.1)">
       <defs>
        <path id="DejaVuSans-35" d="M 691 4666 
L 3169 4666 
L 3169 4134 
L 1269 4134 
L 1269 2991 
Q 1406 3038 1543 3061 
Q 1681 3084 1819 3084 
Q 2600 3084 3056 2656 
Q 3513 2228 3513 1497 
Q 3513 744 3044 326 
Q 2575 -91 1722 -91 
Q 1428 -91 1123 -41 
Q 819 9 494 109 
L 494 744 
Q 775 591 1075 516 
Q 1375 441 1709 441 
Q 2250 441 2565 725 
Q 2881 1009 2881 1497 
Q 2881 1984 2565 2268 
Q 2250 2553 1709 2553 
Q 1456 2553 1204 2497 
Q 953 2441 691 2322 
L 691 4666 
z
" transform="scale(0.015625)"/>
       </defs>
       <use xlink:href="#DejaVuSans-30"/>
       <use xlink:href="#DejaVuSans-2e" x="63.623047"/>
       <use xlink:href="#DejaVuSans-35" x="95.410156"/>
      </g>
     </g>
    </g>
    <g id="xtick_3">
     <g id="line2d_3">
      <g>
       <use xlink:href="#m9cdea1cc27" x="156.4675" y="174.04" style="stroke: #000000; stroke-width: 0.8"/>
      </g>
     </g>
     <g id="text_3">
      <!-- 1.0 -->
      <g transform="translate(148.515938 188.638438)scale(0.1 -0.1)">
       <defs>
        <path id="DejaVuSans-31" d="M 794 531 
L 1825 531 
L 1825 4091 
L 703 3866 
L 703 4441 
L 1819 4666 
L 2450 4666 
L 2450 531 
L 3481 531 
L 3481 0 
L 794 0 
L 794 531 
z
" transform="scale(0.015625)"/>
       </defs>
       <use xlink:href="#DejaVuSans-31"/>
       <use xlink:href="#DejaVuSans-2e" x="63.623047"/>
       <use xlink:href="#DejaVuSans-30" x="95.410156"/>
      </g>
     </g>
    </g>
    <g id="xtick_4">
     <g id="line2d_4">
      <g>
       <use xlink:href="#m9cdea1cc27" x="210.84125" y="174.04" style="stroke: #000000; stroke-width: 0.8"/>
      </g>
     </g>
     <g id="text_4">
      <!-- 1.5 -->
      <g transform="translate(202.889687 188.638438)scale(0.1 -0.1)">
       <use xlink:href="#DejaVuSans-31"/>
       <use xlink:href="#DejaVuSans-2e" x="63.623047"/>
       <use xlink:href="#DejaVuSans-35" x="95.410156"/>
      </g>
     </g>
    </g>
    <g id="xtick_5">
     <g id="line2d_5">
      <g>
       <use xlink:href="#m9cdea1cc27" x="265.215" y="174.04" style="stroke: #000000; stroke-width: 0.8"/>
      </g>
     </g>
     <g id="text_5">
      <!-- 2.0 -->
      <g transform="translate(257.263437 188.638438)scale(0.1 -0.1)">
       <defs>
        <path id="DejaVuSans-32" d="M 1228 531 
L 3431 531 
L 3431 0 
L 469 0 
L 469 531 
Q 828 903 1448 1529 
Q 2069 2156 2228 2338 
Q 2531 2678 2651 2914 
Q 2772 3150 2772 3378 
Q 2772 3750 2511 3984 
Q 2250 4219 1831 4219 
Q 1534 4219 1204 4116 
Q 875 4013 500 3803 
L 500 4441 
Q 881 4594 1212 4672 
Q 1544 4750 1819 4750 
Q 2544 4750 2975 4387 
Q 3406 4025 3406 3419 
Q 3406 3131 3298 2873 
Q 3191 2616 2906 2266 
Q 2828 2175 2409 1742 
Q 1991 1309 1228 531 
z
" transform="scale(0.015625)"/>
       </defs>
       <use xlink:href="#DejaVuSans-32"/>
       <use xlink:href="#DejaVuSans-2e" x="63.623047"/>
       <use xlink:href="#DejaVuSans-30" x="95.410156"/>
      </g>
     </g>
    </g>
    <g id="text_6">
     <!-- Influence of surprisal (multiplication) -->
     <g transform="translate(64.320625 202.316563)scale(0.1 -0.1)">
      <defs>
       <path id="DejaVuSans-49" d="M 628 4666 
L 1259 4666 
L 1259 0 
L 628 0 
L 628 4666 
z
" transform="scale(0.015625)"/>
       <path id="DejaVuSans-6e" d="M 3513 2113 
L 3513 0 
L 2938 0 
L 2938 2094 
Q 2938 2591 2744 2837 
Q 2550 3084 2163 3084 
Q 1697 3084 1428 2787 
Q 1159 2491 1159 1978 
L 1159 0 
L 581 0 
L 581 3500 
L 1159 3500 
L 1159 2956 
Q 1366 3272 1645 3428 
Q 1925 3584 2291 3584 
Q 2894 3584 3203 3211 
Q 3513 2838 3513 2113 
z
" transform="scale(0.015625)"/>
       <path id="DejaVuSans-66" d="M 2375 4863 
L 2375 4384 
L 1825 4384 
Q 1516 4384 1395 4259 
Q 1275 4134 1275 3809 
L 1275 3500 
L 2222 3500 
L 2222 3053 
L 1275 3053 
L 1275 0 
L 697 0 
L 697 3053 
L 147 3053 
L 147 3500 
L 697 3500 
L 697 3744 
Q 697 4328 969 4595 
Q 1241 4863 1831 4863 
L 2375 4863 
z
" transform="scale(0.015625)"/>
       <path id="DejaVuSans-6c" d="M 603 4863 
L 1178 4863 
L 1178 0 
L 603 0 
L 603 4863 
z
" transform="scale(0.015625)"/>
       <path id="DejaVuSans-75" d="M 544 1381 
L 544 3500 
L 1119 3500 
L 1119 1403 
Q 1119 906 1312 657 
Q 1506 409 1894 409 
Q 2359 409 2629 706 
Q 2900 1003 2900 1516 
L 2900 3500 
L 3475 3500 
L 3475 0 
L 2900 0 
L 2900 538 
Q 2691 219 2414 64 
Q 2138 -91 1772 -91 
Q 1169 -91 856 284 
Q 544 659 544 1381 
z
M 1991 3584 
L 1991 3584 
z
" transform="scale(0.015625)"/>
       <path id="DejaVuSans-65" d="M 3597 1894 
L 3597 1613 
L 953 1613 
Q 991 1019 1311 708 
Q 1631 397 2203 397 
Q 2534 397 2845 478 
Q 3156 559 3463 722 
L 3463 178 
Q 3153 47 2828 -22 
Q 2503 -91 2169 -91 
Q 1331 -91 842 396 
Q 353 884 353 1716 
Q 353 2575 817 3079 
Q 1281 3584 2069 3584 
Q 2775 3584 3186 3129 
Q 3597 2675 3597 1894 
z
M 3022 2063 
Q 3016 2534 2758 2815 
Q 2500 3097 2075 3097 
Q 1594 3097 1305 2825 
Q 1016 2553 972 2059 
L 3022 2063 
z
" transform="scale(0.015625)"/>
       <path id="DejaVuSans-63" d="M 3122 3366 
L 3122 2828 
Q 2878 2963 2633 3030 
Q 2388 3097 2138 3097 
Q 1578 3097 1268 2742 
Q 959 2388 959 1747 
Q 959 1106 1268 751 
Q 1578 397 2138 397 
Q 2388 397 2633 464 
Q 2878 531 3122 666 
L 3122 134 
Q 2881 22 2623 -34 
Q 2366 -91 2075 -91 
Q 1284 -91 818 406 
Q 353 903 353 1747 
Q 353 2603 823 3093 
Q 1294 3584 2113 3584 
Q 2378 3584 2631 3529 
Q 2884 3475 3122 3366 
z
" transform="scale(0.015625)"/>
       <path id="DejaVuSans-20" transform="scale(0.015625)"/>
       <path id="DejaVuSans-6f" d="M 1959 3097 
Q 1497 3097 1228 2736 
Q 959 2375 959 1747 
Q 959 1119 1226 758 
Q 1494 397 1959 397 
Q 2419 397 2687 759 
Q 2956 1122 2956 1747 
Q 2956 2369 2687 2733 
Q 2419 3097 1959 3097 
z
M 1959 3584 
Q 2709 3584 3137 3096 
Q 3566 2609 3566 1747 
Q 3566 888 3137 398 
Q 2709 -91 1959 -91 
Q 1206 -91 779 398 
Q 353 888 353 1747 
Q 353 2609 779 3096 
Q 1206 3584 1959 3584 
z
" transform="scale(0.015625)"/>
       <path id="DejaVuSans-73" d="M 2834 3397 
L 2834 2853 
Q 2591 2978 2328 3040 
Q 2066 3103 1784 3103 
Q 1356 3103 1142 2972 
Q 928 2841 928 2578 
Q 928 2378 1081 2264 
Q 1234 2150 1697 2047 
L 1894 2003 
Q 2506 1872 2764 1633 
Q 3022 1394 3022 966 
Q 3022 478 2636 193 
Q 2250 -91 1575 -91 
Q 1294 -91 989 -36 
Q 684 19 347 128 
L 347 722 
Q 666 556 975 473 
Q 1284 391 1588 391 
Q 1994 391 2212 530 
Q 2431 669 2431 922 
Q 2431 1156 2273 1281 
Q 2116 1406 1581 1522 
L 1381 1569 
Q 847 1681 609 1914 
Q 372 2147 372 2553 
Q 372 3047 722 3315 
Q 1072 3584 1716 3584 
Q 2034 3584 2315 3537 
Q 2597 3491 2834 3397 
z
" transform="scale(0.015625)"/>
       <path id="DejaVuSans-72" d="M 2631 2963 
Q 2534 3019 2420 3045 
Q 2306 3072 2169 3072 
Q 1681 3072 1420 2755 
Q 1159 2438 1159 1844 
L 1159 0 
L 581 0 
L 581 3500 
L 1159 3500 
L 1159 2956 
Q 1341 3275 1631 3429 
Q 1922 3584 2338 3584 
Q 2397 3584 2469 3576 
Q 2541 3569 2628 3553 
L 2631 2963 
z
" transform="scale(0.015625)"/>
       <path id="DejaVuSans-70" d="M 1159 525 
L 1159 -1331 
L 581 -1331 
L 581 3500 
L 1159 3500 
L 1159 2969 
Q 1341 3281 1617 3432 
Q 1894 3584 2278 3584 
Q 2916 3584 3314 3078 
Q 3713 2572 3713 1747 
Q 3713 922 3314 415 
Q 2916 -91 2278 -91 
Q 1894 -91 1617 61 
Q 1341 213 1159 525 
z
M 3116 1747 
Q 3116 2381 2855 2742 
Q 2594 3103 2138 3103 
Q 1681 3103 1420 2742 
Q 1159 2381 1159 1747 
Q 1159 1113 1420 752 
Q 1681 391 2138 391 
Q 2594 391 2855 752 
Q 3116 1113 3116 1747 
z
" transform="scale(0.015625)"/>
       <path id="DejaVuSans-69" d="M 603 3500 
L 1178 3500 
L 1178 0 
L 603 0 
L 603 3500 
z
M 603 4863 
L 1178 4863 
L 1178 4134 
L 603 4134 
L 603 4863 
z
" transform="scale(0.015625)"/>
       <path id="DejaVuSans-61" d="M 2194 1759 
Q 1497 1759 1228 1600 
Q 959 1441 959 1056 
Q 959 750 1161 570 
Q 1363 391 1709 391 
Q 2188 391 2477 730 
Q 2766 1069 2766 1631 
L 2766 1759 
L 2194 1759 
z
M 3341 1997 
L 3341 0 
L 2766 0 
L 2766 531 
Q 2569 213 2275 61 
Q 1981 -91 1556 -91 
Q 1019 -91 701 211 
Q 384 513 384 1019 
Q 384 1609 779 1909 
Q 1175 2209 1959 2209 
L 2766 2209 
L 2766 2266 
Q 2766 2663 2505 2880 
Q 2244 3097 1772 3097 
Q 1472 3097 1187 3025 
Q 903 2953 641 2809 
L 641 3341 
Q 956 3463 1253 3523 
Q 1550 3584 1831 3584 
Q 2591 3584 2966 3190 
Q 3341 2797 3341 1997 
z
" transform="scale(0.015625)"/>
       <path id="DejaVuSans-28" d="M 1984 4856 
Q 1566 4138 1362 3434 
Q 1159 2731 1159 2009 
Q 1159 1288 1364 580 
Q 1569 -128 1984 -844 
L 1484 -844 
Q 1016 -109 783 600 
Q 550 1309 550 2009 
Q 550 2706 781 3412 
Q 1013 4119 1484 4856 
L 1984 4856 
z
" transform="scale(0.015625)"/>
       <path id="DejaVuSans-6d" d="M 3328 2828 
Q 3544 3216 3844 3400 
Q 4144 3584 4550 3584 
Q 5097 3584 5394 3201 
Q 5691 2819 5691 2113 
L 5691 0 
L 5113 0 
L 5113 2094 
Q 5113 2597 4934 2840 
Q 4756 3084 4391 3084 
Q 3944 3084 3684 2787 
Q 3425 2491 3425 1978 
L 3425 0 
L 2847 0 
L 2847 2094 
Q 2847 2600 2669 2842 
Q 2491 3084 2119 3084 
Q 1678 3084 1418 2786 
Q 1159 2488 1159 1978 
L 1159 0 
L 581 0 
L 581 3500 
L 1159 3500 
L 1159 2956 
Q 1356 3278 1631 3431 
Q 1906 3584 2284 3584 
Q 2666 3584 2933 3390 
Q 3200 3197 3328 2828 
z
" transform="scale(0.015625)"/>
       <path id="DejaVuSans-74" d="M 1172 4494 
L 1172 3500 
L 2356 3500 
L 2356 3053 
L 1172 3053 
L 1172 1153 
Q 1172 725 1289 603 
Q 1406 481 1766 481 
L 2356 481 
L 2356 0 
L 1766 0 
Q 1100 0 847 248 
Q 594 497 594 1153 
L 594 3053 
L 172 3053 
L 172 3500 
L 594 3500 
L 594 4494 
L 1172 4494 
z
" transform="scale(0.015625)"/>
       <path id="DejaVuSans-29" d="M 513 4856 
L 1013 4856 
Q 1481 4119 1714 3412 
Q 1947 2706 1947 2009 
Q 1947 1309 1714 600 
Q 1481 -109 1013 -844 
L 513 -844 
Q 928 -128 1133 580 
Q 1338 1288 1338 2009 
Q 1338 2731 1133 3434 
Q 928 4138 513 4856 
z
" transform="scale(0.015625)"/>
      </defs>
      <use xlink:href="#DejaVuSans-49"/>
      <use xlink:href="#DejaVuSans-6e" x="29.492188"/>
      <use xlink:href="#DejaVuSans-66" x="92.871094"/>
      <use xlink:href="#DejaVuSans-6c" x="128.076172"/>
      <use xlink:href="#DejaVuSans-75" x="155.859375"/>
      <use xlink:href="#DejaVuSans-65" x="219.238281"/>
      <use xlink:href="#DejaVuSans-6e" x="280.761719"/>
      <use xlink:href="#DejaVuSans-63" x="344.140625"/>
      <use xlink:href="#DejaVuSans-65" x="399.121094"/>
      <use xlink:href="#DejaVuSans-20" x="460.644531"/>
      <use xlink:href="#DejaVuSans-6f" x="492.431641"/>
      <use xlink:href="#DejaVuSans-66" x="553.613281"/>
      <use xlink:href="#DejaVuSans-20" x="588.818359"/>
      <use xlink:href="#DejaVuSans-73" x="620.605469"/>
      <use xlink:href="#DejaVuSans-75" x="672.705078"/>
      <use xlink:href="#DejaVuSans-72" x="736.083984"/>
      <use xlink:href="#DejaVuSans-70" x="777.197266"/>
      <use xlink:href="#DejaVuSans-72" x="840.673828"/>
      <use xlink:href="#DejaVuSans-69" x="881.787109"/>
      <use xlink:href="#DejaVuSans-73" x="909.570312"/>
      <use xlink:href="#DejaVuSans-61" x="961.669922"/>
      <use xlink:href="#DejaVuSans-6c" x="1022.949219"/>
      <use xlink:href="#DejaVuSans-20" x="1050.732422"/>
      <use xlink:href="#DejaVuSans-28" x="1082.519531"/>
      <use xlink:href="#DejaVuSans-6d" x="1121.533203"/>
      <use xlink:href="#DejaVuSans-75" x="1218.945312"/>
      <use xlink:href="#DejaVuSans-6c" x="1282.324219"/>
      <use xlink:href="#DejaVuSans-74" x="1310.107422"/>
      <use xlink:href="#DejaVuSans-69" x="1349.316406"/>
      <use xlink:href="#DejaVuSans-70" x="1377.099609"/>
      <use xlink:href="#DejaVuSans-6c" x="1440.576172"/>
      <use xlink:href="#DejaVuSans-69" x="1468.359375"/>
      <use xlink:href="#DejaVuSans-63" x="1496.142578"/>
      <use xlink:href="#DejaVuSans-61" x="1551.123047"/>
      <use xlink:href="#DejaVuSans-74" x="1612.402344"/>
      <use xlink:href="#DejaVuSans-69" x="1651.611328"/>
      <use xlink:href="#DejaVuSans-6f" x="1679.394531"/>
      <use xlink:href="#DejaVuSans-6e" x="1740.576172"/>
      <use xlink:href="#DejaVuSans-29" x="1803.955078"/>
     </g>
    </g>
   </g>
   <g id="matplotlib.axis_2">
    <g id="ytick_1">
     <g id="line2d_6">
      <defs>
       <path id="m1b9e2c7b39" d="M 0 0 
L -3.5 0 
" style="stroke: #000000; stroke-width: 0.8"/>
      </defs>
      <g>
       <use xlink:href="#m1b9e2c7b39" x="47.72" y="141.0666" style="stroke: #000000; stroke-width: 0.8"/>
      </g>
     </g>
     <g id="text_7">
      <!-- 0.4 -->
      <g transform="translate(24.816875 144.865819)scale(0.1 -0.1)">
       <defs>
        <path id="DejaVuSans-34" d="M 2419 4116 
L 825 1625 
L 2419 1625 
L 2419 4116 
z
M 2253 4666 
L 3047 4666 
L 3047 1625 
L 3713 1625 
L 3713 1100 
L 3047 1100 
L 3047 0 
L 2419 0 
L 2419 1100 
L 313 1100 
L 313 1709 
L 2253 4666 
z
" transform="scale(0.015625)"/>
       </defs>
       <use xlink:href="#DejaVuSans-30"/>
       <use xlink:href="#DejaVuSans-2e" x="63.623047"/>
       <use xlink:href="#DejaVuSans-34" x="95.410156"/>
      </g>
     </g>
    </g>
    <g id="ytick_2">
     <g id="line2d_7">
      <g>
       <use xlink:href="#m1b9e2c7b39" x="47.72" y="101.886611" style="stroke: #000000; stroke-width: 0.8"/>
      </g>
     </g>
     <g id="text_8">
      <!-- 0.6 -->
      <g transform="translate(24.816875 105.68583)scale(0.1 -0.1)">
       <defs>
        <path id="DejaVuSans-36" d="M 2113 2584 
Q 1688 2584 1439 2293 
Q 1191 2003 1191 1497 
Q 1191 994 1439 701 
Q 1688 409 2113 409 
Q 2538 409 2786 701 
Q 3034 994 3034 1497 
Q 3034 2003 2786 2293 
Q 2538 2584 2113 2584 
z
M 3366 4563 
L 3366 3988 
Q 3128 4100 2886 4159 
Q 2644 4219 2406 4219 
Q 1781 4219 1451 3797 
Q 1122 3375 1075 2522 
Q 1259 2794 1537 2939 
Q 1816 3084 2150 3084 
Q 2853 3084 3261 2657 
Q 3669 2231 3669 1497 
Q 3669 778 3244 343 
Q 2819 -91 2113 -91 
Q 1303 -91 875 529 
Q 447 1150 447 2328 
Q 447 3434 972 4092 
Q 1497 4750 2381 4750 
Q 2619 4750 2861 4703 
Q 3103 4656 3366 4563 
z
" transform="scale(0.015625)"/>
       </defs>
       <use xlink:href="#DejaVuSans-30"/>
       <use xlink:href="#DejaVuSans-2e" x="63.623047"/>
       <use xlink:href="#DejaVuSans-36" x="95.410156"/>
      </g>
     </g>
    </g>
    <g id="ytick_3">
     <g id="line2d_8">
      <g>
       <use xlink:href="#m1b9e2c7b39" x="47.72" y="62.706622" style="stroke: #000000; stroke-width: 0.8"/>
      </g>
     </g>
     <g id="text_9">
      <!-- 0.8 -->
      <g transform="translate(24.816875 66.505841)scale(0.1 -0.1)">
       <defs>
        <path id="DejaVuSans-38" d="M 2034 2216 
Q 1584 2216 1326 1975 
Q 1069 1734 1069 1313 
Q 1069 891 1326 650 
Q 1584 409 2034 409 
Q 2484 409 2743 651 
Q 3003 894 3003 1313 
Q 3003 1734 2745 1975 
Q 2488 2216 2034 2216 
z
M 1403 2484 
Q 997 2584 770 2862 
Q 544 3141 544 3541 
Q 544 4100 942 4425 
Q 1341 4750 2034 4750 
Q 2731 4750 3128 4425 
Q 3525 4100 3525 3541 
Q 3525 3141 3298 2862 
Q 3072 2584 2669 2484 
Q 3125 2378 3379 2068 
Q 3634 1759 3634 1313 
Q 3634 634 3220 271 
Q 2806 -91 2034 -91 
Q 1263 -91 848 271 
Q 434 634 434 1313 
Q 434 1759 690 2068 
Q 947 2378 1403 2484 
z
M 1172 3481 
Q 1172 3119 1398 2916 
Q 1625 2713 2034 2713 
Q 2441 2713 2670 2916 
Q 2900 3119 2900 3481 
Q 2900 3844 2670 4047 
Q 2441 4250 2034 4250 
Q 1625 4250 1398 4047 
Q 1172 3844 1172 3481 
z
" transform="scale(0.015625)"/>
       </defs>
       <use xlink:href="#DejaVuSans-30"/>
       <use xlink:href="#DejaVuSans-2e" x="63.623047"/>
       <use xlink:href="#DejaVuSans-38" x="95.410156"/>
      </g>
     </g>
    </g>
    <g id="text_10">
     <!-- R-value -->
     <g transform="translate(18.737188 119.064687)rotate(-90)scale(0.1 -0.1)">
      <defs>
       <path id="DejaVuSans-52" d="M 2841 2188 
Q 3044 2119 3236 1894 
Q 3428 1669 3622 1275 
L 4263 0 
L 3584 0 
L 2988 1197 
Q 2756 1666 2539 1819 
Q 2322 1972 1947 1972 
L 1259 1972 
L 1259 0 
L 628 0 
L 628 4666 
L 2053 4666 
Q 2853 4666 3247 4331 
Q 3641 3997 3641 3322 
Q 3641 2881 3436 2590 
Q 3231 2300 2841 2188 
z
M 1259 4147 
L 1259 2491 
L 2053 2491 
Q 2509 2491 2742 2702 
Q 2975 2913 2975 3322 
Q 2975 3731 2742 3939 
Q 2509 4147 2053 4147 
L 1259 4147 
z
" transform="scale(0.015625)"/>
       <path id="DejaVuSans-2d" d="M 313 2009 
L 1997 2009 
L 1997 1497 
L 313 1497 
L 313 2009 
z
" transform="scale(0.015625)"/>
       <path id="DejaVuSans-76" d="M 191 3500 
L 800 3500 
L 1894 563 
L 2988 3500 
L 3597 3500 
L 2284 0 
L 1503 0 
L 191 3500 
z
" transform="scale(0.015625)"/>
      </defs>
      <use xlink:href="#DejaVuSans-52"/>
      <use xlink:href="#DejaVuSans-2d" x="65.482422"/>
      <use xlink:href="#DejaVuSans-76" x="98.941406"/>
      <use xlink:href="#DejaVuSans-61" x="158.121094"/>
      <use xlink:href="#DejaVuSans-6c" x="219.400391"/>
      <use xlink:href="#DejaVuSans-75" x="247.183594"/>
      <use xlink:href="#DejaVuSans-65" x="310.5625"/>
     </g>
    </g>
   </g>
   <g id="line2d_9">
    <path d="M 47.72 34.146068 
L 59.167105 35.183041 
L 70.614211 38.189982 
L 82.061316 42.657317 
L 93.508421 47.916789 
L 104.955526 54.471708 
L 116.402632 61.465975 
L 127.849737 68.928854 
L 139.296842 76.283512 
L 150.743947 83.581262 
L 162.191053 90.767798 
L 173.638158 97.65721 
L 185.085263 104.800016 
L 196.532368 110.994855 
L 207.979474 117.34949 
L 219.426579 122.764112 
L 230.873684 128.308589 
L 242.320789 133.386552 
L 253.767895 138.461093 
L 265.215 142.719738 
" clip-path="url(#pf2dbbadc28)" style="fill: none; stroke: #1f77b4; stroke-width: 1.5; stroke-linecap: square"/>
   </g>
   <g id="line2d_10">
    <path d="M 47.72 34.163841 
L 59.167105 34.824208 
L 70.614211 36.372536 
L 82.061316 38.864594 
L 93.508421 41.901552 
L 104.955526 46.041597 
L 116.402632 50.702929 
L 127.849737 56.336253 
L 139.296842 61.952599 
L 150.743947 67.812179 
L 162.191053 73.942154 
L 173.638158 80.172556 
L 185.085263 86.658922 
L 196.532368 92.671032 
L 207.979474 98.955341 
L 219.426579 104.455614 
L 230.873684 110.288315 
L 242.320789 115.535647 
L 253.767895 120.975651 
L 265.215 125.645513 
" clip-path="url(#pf2dbbadc28)" style="fill: none; stroke: #ff7f0e; stroke-width: 1.5; stroke-linecap: square"/>
   </g>
   <g id="line2d_11">
    <path d="M 47.72 34.156995 
L 59.167105 34.965117 
L 70.614211 36.351851 
L 82.061316 38.470747 
L 93.508421 40.799425 
L 104.955526 43.756783 
L 116.402632 46.816896 
L 127.849737 50.378014 
L 139.296842 53.825075 
L 150.743947 57.338179 
L 162.191053 60.693348 
L 173.638158 64.592286 
L 185.085263 68.186848 
L 196.532368 71.864791 
L 207.979474 75.497735 
L 219.426579 78.790051 
L 230.873684 82.380273 
L 242.320789 85.227157 
L 253.767895 88.673055 
L 265.215 91.807331 
" clip-path="url(#pf2dbbadc28)" style="fill: none; stroke: #2ca02c; stroke-width: 1.5; stroke-linecap: square"/>
   </g>
   <g id="line2d_12">
    <path d="M 47.72 34.175718 
L 59.167105 34.805953 
L 70.614211 35.834758 
L 82.061316 37.464514 
L 93.508421 39.267178 
L 104.955526 41.745733 
L 116.402632 44.436117 
L 127.849737 47.836468 
L 139.296842 51.16233 
L 150.743947 54.64534 
L 162.191053 58.153094 
L 173.638158 62.096468 
L 185.085263 65.828398 
L 196.532368 69.621929 
L 207.979474 73.358352 
L 219.426579 76.701801 
L 230.873684 80.42256 
L 242.320789 83.383156 
L 253.767895 86.997764 
L 265.215 90.343165 
" clip-path="url(#pf2dbbadc28)" style="fill: none; stroke: #d62728; stroke-width: 1.5; stroke-linecap: square"/>
   </g>
   <g id="line2d_13">
    <path d="M 47.72 34.167701 
L 59.167105 35.194211 
L 70.614211 38.222157 
L 82.061316 42.723207 
L 93.508421 47.914423 
L 104.955526 54.558274 
L 116.402632 61.624857 
L 127.849737 68.97145 
L 139.296842 76.312283 
L 150.743947 83.678158 
L 162.191053 90.9728 
L 173.638158 97.875561 
L 185.085263 104.665071 
L 196.532368 111.129944 
L 207.979474 117.524428 
L 219.426579 122.922572 
L 230.873684 128.508404 
L 242.320789 133.741317 
L 253.767895 138.418305 
L 265.215 143.374609 
" clip-path="url(#pf2dbbadc28)" style="fill: none; stroke: #9467bd; stroke-width: 1.5; stroke-linecap: square"/>
   </g>
   <g id="line2d_14">
    <path d="M 47.72 34.186232 
L 59.167105 34.836587 
L 70.614211 36.389734 
L 82.061316 38.89493 
L 93.508421 41.925452 
L 104.955526 46.069504 
L 116.402632 50.788936 
L 127.849737 56.351951 
L 139.296842 61.95524 
L 150.743947 67.874794 
L 162.191053 73.997232 
L 173.638158 80.361646 
L 185.085263 86.591142 
L 196.532368 92.749814 
L 207.979474 99.019725 
L 219.426579 104.648291 
L 230.873684 110.55182 
L 242.320789 115.788455 
L 253.767895 120.965417 
L 265.215 126.16913 
" clip-path="url(#pf2dbbadc28)" style="fill: none; stroke: #8c564b; stroke-width: 1.5; stroke-linecap: square"/>
   </g>
   <g id="line2d_15">
    <path d="M 47.72 50.124179 
L 59.167105 51.570119 
L 70.614211 55.205835 
L 82.061316 61.042928 
L 93.508421 67.804276 
L 104.955526 75.752206 
L 116.402632 83.78585 
L 127.849737 92.356098 
L 139.296842 100.385147 
L 150.743947 108.314344 
L 162.191053 115.709381 
L 173.638158 123.026486 
L 185.085263 129.869585 
L 196.532368 135.850106 
L 207.979474 141.756494 
L 219.426579 146.415727 
L 230.873684 151.2895 
L 242.320789 155.243394 
L 253.767895 159.292722 
L 265.215 162.644429 
" clip-path="url(#pf2dbbadc28)" style="fill: none; stroke: #e377c2; stroke-width: 1.5; stroke-linecap: square"/>
   </g>
   <g id="line2d_16">
    <path d="M 47.72 34.172796 
L 59.167105 34.465043 
L 70.614211 34.626628 
L 82.061316 35.345267 
L 93.508421 36.507936 
L 104.955526 38.740412 
L 116.402632 41.956049 
L 127.849737 46.215943 
L 139.296842 50.952896 
L 150.743947 56.147314 
L 162.191053 61.652043 
L 173.638158 67.939277 
L 185.085263 74.020406 
L 196.532368 80.143455 
L 207.979474 86.635438 
L 219.426579 92.591405 
L 230.873684 98.885916 
L 242.320789 104.53138 
L 253.767895 110.314584 
L 265.215 115.487385 
" clip-path="url(#pf2dbbadc28)" style="fill: none; stroke: #7f7f7f; stroke-width: 1.5; stroke-linecap: square"/>
   </g>
   <g id="patch_3">
    <path d="M 47.72 174.04 
L 47.72 26.88 
" style="fill: none; stroke: #000000; stroke-width: 0.8; stroke-linejoin: miter; stroke-linecap: square"/>
   </g>
   <g id="patch_4">
    <path d="M 47.72 174.04 
L 265.215 174.04 
" style="fill: none; stroke: #000000; stroke-width: 0.8; stroke-linejoin: miter; stroke-linecap: square"/>
   </g>
   <g id="text_11">
    <!-- Node * surprisal -->
    <g transform="translate(108.18625 20.88)scale(0.12 -0.12)">
     <defs>
      <path id="DejaVuSans-4e" d="M 628 4666 
L 1478 4666 
L 3547 763 
L 3547 4666 
L 4159 4666 
L 4159 0 
L 3309 0 
L 1241 3903 
L 1241 0 
L 628 0 
L 628 4666 
z
" transform="scale(0.015625)"/>
      <path id="DejaVuSans-64" d="M 2906 2969 
L 2906 4863 
L 3481 4863 
L 3481 0 
L 2906 0 
L 2906 525 
Q 2725 213 2448 61 
Q 2172 -91 1784 -91 
Q 1150 -91 751 415 
Q 353 922 353 1747 
Q 353 2572 751 3078 
Q 1150 3584 1784 3584 
Q 2172 3584 2448 3432 
Q 2725 3281 2906 2969 
z
M 947 1747 
Q 947 1113 1208 752 
Q 1469 391 1925 391 
Q 2381 391 2643 752 
Q 2906 1113 2906 1747 
Q 2906 2381 2643 2742 
Q 2381 3103 1925 3103 
Q 1469 3103 1208 2742 
Q 947 2381 947 1747 
z
" transform="scale(0.015625)"/>
      <path id="DejaVuSans-2a" d="M 3009 3897 
L 1888 3291 
L 3009 2681 
L 2828 2375 
L 1778 3009 
L 1778 1831 
L 1422 1831 
L 1422 3009 
L 372 2375 
L 191 2681 
L 1313 3291 
L 191 3897 
L 372 4206 
L 1422 3572 
L 1422 4750 
L 1778 4750 
L 1778 3572 
L 2828 4206 
L 3009 3897 
z
" transform="scale(0.015625)"/>
     </defs>
     <use xlink:href="#DejaVuSans-4e"/>
     <use xlink:href="#DejaVuSans-6f" x="74.804688"/>
     <use xlink:href="#DejaVuSans-64" x="135.986328"/>
     <use xlink:href="#DejaVuSans-65" x="199.462891"/>
     <use xlink:href="#DejaVuSans-20" x="260.986328"/>
     <use xlink:href="#DejaVuSans-2a" x="292.773438"/>
     <use xlink:href="#DejaVuSans-20" x="342.773438"/>
     <use xlink:href="#DejaVuSans-73" x="374.560547"/>
     <use xlink:href="#DejaVuSans-75" x="426.660156"/>
     <use xlink:href="#DejaVuSans-72" x="490.039062"/>
     <use xlink:href="#DejaVuSans-70" x="531.152344"/>
     <use xlink:href="#DejaVuSans-72" x="594.628906"/>
     <use xlink:href="#DejaVuSans-69" x="635.742188"/>
     <use xlink:href="#DejaVuSans-73" x="663.525391"/>
     <use xlink:href="#DejaVuSans-61" x="715.625"/>
     <use xlink:href="#DejaVuSans-6c" x="776.904297"/>
    </g>
   </g>
  </g>
  <g id="axes_2">
   <g id="patch_5">
    <path d="M 298.065 174.04 
L 515.56 174.04 
L 515.56 26.88 
L 298.065 26.88 
z
" style="fill: #ffffff"/>
   </g>
   <g id="PolyCollection_9">
    <path d="M 298.065 33.569091 
L 298.065 34.540843 
L 309.512105 35.506099 
L 320.959211 38.71217 
L 332.406316 43.06819 
L 343.853421 49.259675 
L 355.300526 55.971165 
L 366.747632 63.573191 
L 378.194737 71.855814 
L 389.641842 79.946886 
L 401.088947 88.646949 
L 412.536053 97.107167 
L 423.983158 104.828992 
L 435.430263 112.306629 
L 446.877368 120.277782 
L 458.324474 126.996825 
L 469.771579 132.922581 
L 481.218684 138.779328 
L 492.665789 144.280694 
L 504.112895 148.863378 
L 515.56 153.880844 
L 515.56 141.87223 
L 515.56 141.87223 
L 504.112895 136.935349 
L 492.665789 132.672081 
L 481.218684 126.864758 
L 469.771579 121.572487 
L 458.324474 115.806536 
L 446.877368 108.56398 
L 435.430263 101.446197 
L 423.983158 93.885589 
L 412.536053 87.319423 
L 401.088947 79.694092 
L 389.641842 72.173056 
L 378.194737 65.314876 
L 366.747632 58.041511 
L 355.300526 51.79327 
L 343.853421 45.679788 
L 332.406316 40.740873 
L 320.959211 37.089293 
L 309.512105 34.636604 
L 298.065 33.569091 
z
" clip-path="url(#p0e3bfa0a04)" style="fill: #1f77b4; fill-opacity: 0.4"/>
   </g>
   <g id="PolyCollection_10">
    <path d="M 298.065 33.572425 
L 298.065 34.566071 
L 309.512105 35.522098 
L 320.959211 38.730205 
L 332.406316 43.087781 
L 343.853421 49.306542 
L 355.300526 56.009616 
L 366.747632 63.6489 
L 378.194737 71.930392 
L 389.641842 80.060355 
L 401.088947 88.751469 
L 412.536053 97.253902 
L 423.983158 105.025516 
L 435.430263 112.509875 
L 446.877368 120.511153 
L 458.324474 127.253746 
L 469.771579 133.181851 
L 481.218684 139.104083 
L 492.665789 144.590544 
L 504.112895 149.191227 
L 515.56 154.239689 
L 515.56 141.747771 
L 515.56 141.747771 
L 504.112895 136.807579 
L 492.665789 132.498376 
L 481.218684 126.789032 
L 469.771579 121.52067 
L 458.324474 115.73978 
L 446.877368 108.571338 
L 435.430263 101.482887 
L 423.983158 93.913551 
L 412.536053 87.349369 
L 401.088947 79.716294 
L 389.641842 72.219156 
L 378.194737 65.35658 
L 366.747632 58.073558 
L 355.300526 51.830479 
L 343.853421 45.696341 
L 332.406316 40.749489 
L 320.959211 37.109041 
L 309.512105 34.649182 
L 298.065 33.572425 
z
" clip-path="url(#p0e3bfa0a04)" style="fill: #ff7f0e; fill-opacity: 0.4"/>
   </g>
   <g id="PolyCollection_11">
    <path d="M 298.065 33.577196 
L 298.065 34.56186 
L 309.512105 35.519523 
L 320.959211 38.72622 
L 332.406316 43.076606 
L 343.853421 49.295185 
L 355.300526 55.987919 
L 366.747632 63.664382 
L 378.194737 71.954868 
L 389.641842 80.131465 
L 401.088947 88.85143 
L 412.536053 97.384628 
L 423.983158 105.158016 
L 435.430263 112.748291 
L 446.877368 120.724739 
L 458.324474 127.540849 
L 469.771579 133.5357 
L 481.218684 139.455998 
L 492.665789 144.941325 
L 504.112895 149.385641 
L 515.56 154.458441 
L 515.56 141.75124 
L 515.56 141.75124 
L 504.112895 136.744226 
L 492.665789 132.416517 
L 481.218684 126.800233 
L 469.771579 121.514741 
L 458.324474 115.772663 
L 446.877368 108.601824 
L 435.430263 101.489439 
L 423.983158 93.962381 
L 412.536053 87.351701 
L 401.088947 79.747865 
L 389.641842 72.234468 
L 378.194737 65.353838 
L 366.747632 58.077472 
L 355.300526 51.806411 
L 343.853421 45.68736 
L 332.406316 40.748413 
L 320.959211 37.104066 
L 309.512105 34.647407 
L 298.065 33.577196 
z
" clip-path="url(#p0e3bfa0a04)" style="fill: #2ca02c; fill-opacity: 0.4"/>
   </g>
   <g id="PolyCollection_12">
    <path d="M 298.065 33.589833 
L 298.065 34.592945 
L 309.512105 35.529607 
L 320.959211 38.751057 
L 332.406316 43.1 
L 343.853421 49.323792 
L 355.300526 56.015691 
L 366.747632 63.68908 
L 378.194737 71.994665 
L 389.641842 80.183438 
L 401.088947 88.884864 
L 412.536053 97.464072 
L 423.983158 105.23177 
L 435.430263 112.823176 
L 446.877368 120.809276 
L 458.324474 127.581661 
L 469.771579 133.609103 
L 481.218684 139.465658 
L 492.665789 144.968281 
L 504.112895 149.404738 
L 515.56 154.465925 
L 515.56 141.721187 
L 515.56 141.721187 
L 504.112895 136.67418 
L 492.665789 132.377757 
L 481.218684 126.759967 
L 469.771579 121.488636 
L 458.324474 115.734742 
L 446.877368 108.583894 
L 435.430263 101.486921 
L 423.983158 93.961013 
L 412.536053 87.361551 
L 401.088947 79.76111 
L 389.641842 72.275788 
L 378.194737 65.390839 
L 366.747632 58.116258 
L 355.300526 51.845128 
L 343.853421 45.702235 
L 332.406316 40.767196 
L 320.959211 37.131453 
L 309.512105 34.664871 
L 298.065 33.589833 
z
" clip-path="url(#p0e3bfa0a04)" style="fill: #d62728; fill-opacity: 0.4"/>
   </g>
   <g id="PolyCollection_13">
    <path d="M 298.065 33.573693 
L 298.065 34.561011 
L 309.512105 35.516042 
L 320.959211 38.729858 
L 332.406316 43.17626 
L 343.853421 49.239445 
L 355.300526 56.093396 
L 366.747632 63.646259 
L 378.194737 72.040705 
L 389.641842 79.973446 
L 401.088947 88.769278 
L 412.536053 97.497049 
L 423.983158 105.533918 
L 435.430263 112.952775 
L 446.877368 120.633994 
L 458.324474 126.632021 
L 469.771579 133.321292 
L 481.218684 139.364181 
L 492.665789 144.583799 
L 504.112895 149.144651 
L 515.56 154.915514 
L 515.56 142.144365 
L 515.56 142.144365 
L 504.112895 138.182843 
L 492.665789 133.020484 
L 481.218684 127.105556 
L 469.771579 121.813202 
L 458.324474 115.828956 
L 446.877368 109.046235 
L 435.430263 102.45741 
L 423.983158 93.962699 
L 412.536053 87.394746 
L 401.088947 79.938676 
L 389.641842 72.323183 
L 378.194737 65.384591 
L 366.747632 58.088136 
L 355.300526 51.911895 
L 343.853421 45.749099 
L 332.406316 40.750052 
L 320.959211 37.113704 
L 309.512105 34.654694 
L 298.065 33.573693 
z
" clip-path="url(#p0e3bfa0a04)" style="fill: #9467bd; fill-opacity: 0.4"/>
   </g>
   <g id="PolyCollection_14">
    <path d="M 298.065 33.57883 
L 298.065 34.58629 
L 309.512105 35.53278 
L 320.959211 38.747168 
L 332.406316 43.195471 
L 343.853421 49.286975 
L 355.300526 56.127525 
L 366.747632 63.722145 
L 378.194737 72.115627 
L 389.641842 80.085575 
L 401.088947 88.88457 
L 412.536053 97.644086 
L 423.983158 105.741023 
L 435.430263 113.171374 
L 446.877368 120.849882 
L 458.324474 126.87819 
L 469.771579 133.558964 
L 481.218684 139.708255 
L 492.665789 144.88191 
L 504.112895 149.483945 
L 515.56 155.266605 
L 515.56 142.027626 
L 515.56 142.027626 
L 504.112895 138.045977 
L 492.665789 132.830597 
L 481.218684 127.022658 
L 469.771579 121.75754 
L 458.324474 115.767634 
L 446.877368 109.048368 
L 435.430263 102.48896 
L 423.983158 93.978674 
L 412.536053 87.424174 
L 401.088947 79.960446 
L 389.641842 72.373157 
L 378.194737 65.427889 
L 366.747632 58.122697 
L 355.300526 51.945687 
L 343.853421 45.764418 
L 332.406316 40.757825 
L 320.959211 37.133319 
L 309.512105 34.668642 
L 298.065 33.57883 
z
" clip-path="url(#p0e3bfa0a04)" style="fill: #8c564b; fill-opacity: 0.4"/>
   </g>
   <g id="PolyCollection_15">
    <path d="M 298.065 47.373798 
L 298.065 52.649304 
L 309.512105 53.590785 
L 320.959211 56.168321 
L 332.406316 59.554778 
L 343.853421 65.33489 
L 355.300526 70.979988 
L 366.747632 77.652185 
L 378.194737 84.827651 
L 389.641842 92.045856 
L 401.088947 99.855834 
L 412.536053 107.767691 
L 423.983158 114.363559 
L 435.430263 121.428299 
L 446.877368 128.701288 
L 458.324474 135.387782 
L 469.771579 140.474852 
L 481.218684 146.070657 
L 492.665789 151.129486 
L 504.112895 155.227045 
L 515.56 160.046082 
L 515.56 145.985879 
L 515.56 145.985879 
L 504.112895 141.276295 
L 492.665789 137.338473 
L 481.218684 131.917341 
L 469.771579 127.392204 
L 458.324474 121.860624 
L 446.877368 115.638903 
L 435.430263 109.261677 
L 423.983158 102.869491 
L 412.536053 96.444708 
L 401.088947 89.900156 
L 389.641842 82.856312 
L 378.194737 76.57612 
L 366.747632 69.76998 
L 355.300526 64.154175 
L 343.853421 58.284674 
L 332.406316 54.259564 
L 320.959211 50.58863 
L 309.512105 48.277809 
L 298.065 47.373798 
z
" clip-path="url(#p0e3bfa0a04)" style="fill: #e377c2; fill-opacity: 0.4"/>
   </g>
   <g id="PolyCollection_16">
    <path d="M 298.065 33.585292 
L 298.065 34.593779 
L 309.512105 35.52413 
L 320.959211 38.754518 
L 332.406316 43.119296 
L 343.853421 49.390438 
L 355.300526 56.120039 
L 366.747632 63.819172 
L 378.194737 72.1208 
L 389.641842 80.301795 
L 401.088947 89.063378 
L 412.536053 97.636779 
L 423.983158 105.391295 
L 435.430263 112.935797 
L 446.877368 120.933149 
L 458.324474 127.596557 
L 469.771579 133.71981 
L 481.218684 139.572273 
L 492.665789 145.093145 
L 504.112895 149.866928 
L 515.56 155.071039 
L 515.56 142.369602 
L 515.56 142.369602 
L 504.112895 137.250623 
L 492.665789 132.909149 
L 481.218684 127.134784 
L 469.771579 121.744831 
L 458.324474 115.929529 
L 446.877368 108.720405 
L 435.430263 101.576484 
L 423.983158 93.951805 
L 412.536053 87.350425 
L 401.088947 79.712133 
L 389.641842 72.215083 
L 378.194737 65.338209 
L 366.747632 58.059395 
L 355.300526 51.820503 
L 343.853421 45.694897 
L 332.406316 40.774713 
L 320.959211 37.128231 
L 309.512105 34.662049 
L 298.065 33.585292 
z
" clip-path="url(#p0e3bfa0a04)" style="fill: #7f7f7f; fill-opacity: 0.4"/>
   </g>
   <g id="matplotlib.axis_3">
    <g id="xtick_6">
     <g id="line2d_17">
      <g>
       <use xlink:href="#m9cdea1cc27" x="298.065" y="174.04" style="stroke: #000000; stroke-width: 0.8"/>
      </g>
     </g>
     <g id="text_12">
      <!-- 0.0 -->
      <g transform="translate(290.113437 188.638438)scale(0.1 -0.1)">
       <use xlink:href="#DejaVuSans-30"/>
       <use xlink:href="#DejaVuSans-2e" x="63.623047"/>
       <use xlink:href="#DejaVuSans-30" x="95.410156"/>
      </g>
     </g>
    </g>
    <g id="xtick_7">
     <g id="line2d_18">
      <g>
       <use xlink:href="#m9cdea1cc27" x="352.43875" y="174.04" style="stroke: #000000; stroke-width: 0.8"/>
      </g>
     </g>
     <g id="text_13">
      <!-- 0.5 -->
      <g transform="translate(344.487187 188.638438)scale(0.1 -0.1)">
       <use xlink:href="#DejaVuSans-30"/>
       <use xlink:href="#DejaVuSans-2e" x="63.623047"/>
       <use xlink:href="#DejaVuSans-35" x="95.410156"/>
      </g>
     </g>
    </g>
    <g id="xtick_8">
     <g id="line2d_19">
      <g>
       <use xlink:href="#m9cdea1cc27" x="406.8125" y="174.04" style="stroke: #000000; stroke-width: 0.8"/>
      </g>
     </g>
     <g id="text_14">
      <!-- 1.0 -->
      <g transform="translate(398.860937 188.638438)scale(0.1 -0.1)">
       <use xlink:href="#DejaVuSans-31"/>
       <use xlink:href="#DejaVuSans-2e" x="63.623047"/>
       <use xlink:href="#DejaVuSans-30" x="95.410156"/>
      </g>
     </g>
    </g>
    <g id="xtick_9">
     <g id="line2d_20">
      <g>
       <use xlink:href="#m9cdea1cc27" x="461.18625" y="174.04" style="stroke: #000000; stroke-width: 0.8"/>
      </g>
     </g>
     <g id="text_15">
      <!-- 1.5 -->
      <g transform="translate(453.234687 188.638438)scale(0.1 -0.1)">
       <use xlink:href="#DejaVuSans-31"/>
       <use xlink:href="#DejaVuSans-2e" x="63.623047"/>
       <use xlink:href="#DejaVuSans-35" x="95.410156"/>
      </g>
     </g>
    </g>
    <g id="xtick_10">
     <g id="line2d_21">
      <g>
       <use xlink:href="#m9cdea1cc27" x="515.56" y="174.04" style="stroke: #000000; stroke-width: 0.8"/>
      </g>
     </g>
     <g id="text_16">
      <!-- 2.0 -->
      <g transform="translate(507.608437 188.638438)scale(0.1 -0.1)">
       <use xlink:href="#DejaVuSans-32"/>
       <use xlink:href="#DejaVuSans-2e" x="63.623047"/>
       <use xlink:href="#DejaVuSans-30" x="95.410156"/>
      </g>
     </g>
    </g>
    <g id="text_17">
     <!-- Influence of surprisal (multiplication) -->
     <g transform="translate(314.665625 202.316563)scale(0.1 -0.1)">
      <use xlink:href="#DejaVuSans-49"/>
      <use xlink:href="#DejaVuSans-6e" x="29.492188"/>
      <use xlink:href="#DejaVuSans-66" x="92.871094"/>
      <use xlink:href="#DejaVuSans-6c" x="128.076172"/>
      <use xlink:href="#DejaVuSans-75" x="155.859375"/>
      <use xlink:href="#DejaVuSans-65" x="219.238281"/>
      <use xlink:href="#DejaVuSans-6e" x="280.761719"/>
      <use xlink:href="#DejaVuSans-63" x="344.140625"/>
      <use xlink:href="#DejaVuSans-65" x="399.121094"/>
      <use xlink:href="#DejaVuSans-20" x="460.644531"/>
      <use xlink:href="#DejaVuSans-6f" x="492.431641"/>
      <use xlink:href="#DejaVuSans-66" x="553.613281"/>
      <use xlink:href="#DejaVuSans-20" x="588.818359"/>
      <use xlink:href="#DejaVuSans-73" x="620.605469"/>
      <use xlink:href="#DejaVuSans-75" x="672.705078"/>
      <use xlink:href="#DejaVuSans-72" x="736.083984"/>
      <use xlink:href="#DejaVuSans-70" x="777.197266"/>
      <use xlink:href="#DejaVuSans-72" x="840.673828"/>
      <use xlink:href="#DejaVuSans-69" x="881.787109"/>
      <use xlink:href="#DejaVuSans-73" x="909.570312"/>
      <use xlink:href="#DejaVuSans-61" x="961.669922"/>
      <use xlink:href="#DejaVuSans-6c" x="1022.949219"/>
      <use xlink:href="#DejaVuSans-20" x="1050.732422"/>
      <use xlink:href="#DejaVuSans-28" x="1082.519531"/>
      <use xlink:href="#DejaVuSans-6d" x="1121.533203"/>
      <use xlink:href="#DejaVuSans-75" x="1218.945312"/>
      <use xlink:href="#DejaVuSans-6c" x="1282.324219"/>
      <use xlink:href="#DejaVuSans-74" x="1310.107422"/>
      <use xlink:href="#DejaVuSans-69" x="1349.316406"/>
      <use xlink:href="#DejaVuSans-70" x="1377.099609"/>
      <use xlink:href="#DejaVuSans-6c" x="1440.576172"/>
      <use xlink:href="#DejaVuSans-69" x="1468.359375"/>
      <use xlink:href="#DejaVuSans-63" x="1496.142578"/>
      <use xlink:href="#DejaVuSans-61" x="1551.123047"/>
      <use xlink:href="#DejaVuSans-74" x="1612.402344"/>
      <use xlink:href="#DejaVuSans-69" x="1651.611328"/>
      <use xlink:href="#DejaVuSans-6f" x="1679.394531"/>
      <use xlink:href="#DejaVuSans-6e" x="1740.576172"/>
      <use xlink:href="#DejaVuSans-29" x="1803.955078"/>
     </g>
    </g>
   </g>
   <g id="line2d_22">
    <path d="M 298.065 34.054967 
L 309.512105 35.071351 
L 320.959211 37.900731 
L 332.406316 41.904532 
L 343.853421 47.469731 
L 355.300526 53.882217 
L 366.747632 60.807351 
L 378.194737 68.585345 
L 389.641842 76.059971 
L 401.088947 84.170521 
L 412.536053 92.213295 
L 423.983158 99.35729 
L 435.430263 106.876413 
L 446.877368 114.420881 
L 458.324474 121.401681 
L 469.771579 127.247534 
L 481.218684 132.822043 
L 492.665789 138.476388 
L 504.112895 142.899363 
L 515.56 147.876537 
" clip-path="url(#p0e3bfa0a04)" style="fill: none; stroke: #1f77b4; stroke-width: 1.5; stroke-linecap: square"/>
   </g>
   <g id="line2d_23">
    <path d="M 298.065 34.069248 
L 309.512105 35.08564 
L 320.959211 37.919623 
L 332.406316 41.918635 
L 343.853421 47.501442 
L 355.300526 53.920047 
L 366.747632 60.861229 
L 378.194737 68.643486 
L 389.641842 76.139756 
L 401.088947 84.233882 
L 412.536053 92.301635 
L 423.983158 99.469534 
L 435.430263 106.996381 
L 446.877368 114.541245 
L 458.324474 121.496763 
L 469.771579 127.35126 
L 481.218684 132.946557 
L 492.665789 138.54446 
L 504.112895 142.999403 
L 515.56 147.99373 
" clip-path="url(#p0e3bfa0a04)" style="fill: none; stroke: #ff7f0e; stroke-width: 1.5; stroke-linecap: square"/>
   </g>
   <g id="line2d_24">
    <path d="M 298.065 34.069528 
L 309.512105 35.083465 
L 320.959211 37.915143 
L 332.406316 41.91251 
L 343.853421 47.491273 
L 355.300526 53.897165 
L 366.747632 60.870927 
L 378.194737 68.654353 
L 389.641842 76.182966 
L 401.088947 84.299648 
L 412.536053 92.368165 
L 423.983158 99.560198 
L 435.430263 107.118865 
L 446.877368 114.663281 
L 458.324474 121.656756 
L 469.771579 127.52522 
L 481.218684 133.128116 
L 492.665789 138.678921 
L 504.112895 143.064934 
L 515.56 148.104841 
" clip-path="url(#p0e3bfa0a04)" style="fill: none; stroke: #2ca02c; stroke-width: 1.5; stroke-linecap: square"/>
   </g>
   <g id="line2d_25">
    <path d="M 298.065 34.091389 
L 309.512105 35.097239 
L 320.959211 37.941255 
L 332.406316 41.933598 
L 343.853421 47.513013 
L 355.300526 53.930409 
L 366.747632 60.902669 
L 378.194737 68.692752 
L 389.641842 76.229613 
L 401.088947 84.322987 
L 412.536053 92.412811 
L 423.983158 99.596392 
L 435.430263 107.155048 
L 446.877368 114.696585 
L 458.324474 121.658201 
L 469.771579 127.54887 
L 481.218684 133.112812 
L 492.665789 138.673019 
L 504.112895 143.039459 
L 515.56 148.093556 
" clip-path="url(#p0e3bfa0a04)" style="fill: none; stroke: #d62728; stroke-width: 1.5; stroke-linecap: square"/>
   </g>
   <g id="line2d_26">
    <path d="M 298.065 34.067352 
L 309.512105 35.085368 
L 320.959211 37.921781 
L 332.406316 41.963156 
L 343.853421 47.494272 
L 355.300526 54.002646 
L 366.747632 60.867197 
L 378.194737 68.712648 
L 389.641842 76.148314 
L 401.088947 84.353977 
L 412.536053 92.445898 
L 423.983158 99.748309 
L 435.430263 107.705092 
L 446.877368 114.840115 
L 458.324474 121.230488 
L 469.771579 127.567247 
L 481.218684 133.234868 
L 492.665789 138.802142 
L 504.112895 143.663747 
L 515.56 148.529939 
" clip-path="url(#p0e3bfa0a04)" style="fill: none; stroke: #9467bd; stroke-width: 1.5; stroke-linecap: square"/>
   </g>
   <g id="line2d_27">
    <path d="M 298.065 34.08256 
L 309.512105 35.100711 
L 320.959211 37.940244 
L 332.406316 41.976648 
L 343.853421 47.525697 
L 355.300526 54.036606 
L 366.747632 60.922421 
L 378.194737 68.771758 
L 389.641842 76.229366 
L 401.088947 84.422508 
L 412.536053 92.53413 
L 423.983158 99.859849 
L 435.430263 107.830167 
L 446.877368 114.949125 
L 458.324474 121.322912 
L 469.771579 127.658252 
L 481.218684 133.365456 
L 492.665789 138.856253 
L 504.112895 143.764961 
L 515.56 148.647116 
" clip-path="url(#p0e3bfa0a04)" style="fill: none; stroke: #8c564b; stroke-width: 1.5; stroke-linecap: square"/>
   </g>
   <g id="line2d_28">
    <path d="M 298.065 50.011551 
L 309.512105 50.934297 
L 320.959211 53.378476 
L 332.406316 56.907171 
L 343.853421 61.809782 
L 355.300526 67.567082 
L 366.747632 73.711083 
L 378.194737 80.701886 
L 389.641842 87.451084 
L 401.088947 94.877995 
L 412.536053 102.1062 
L 423.983158 108.616525 
L 435.430263 115.344988 
L 446.877368 122.170096 
L 458.324474 128.624203 
L 469.771579 133.933528 
L 481.218684 138.993999 
L 492.665789 144.233979 
L 504.112895 148.25167 
L 515.56 153.015981 
" clip-path="url(#p0e3bfa0a04)" style="fill: none; stroke: #e377c2; stroke-width: 1.5; stroke-linecap: square"/>
   </g>
   <g id="line2d_29">
    <path d="M 298.065 34.089536 
L 309.512105 35.09309 
L 320.959211 37.941374 
L 332.406316 41.947005 
L 343.853421 47.542667 
L 355.300526 53.970271 
L 366.747632 60.939284 
L 378.194737 68.729505 
L 389.641842 76.258439 
L 401.088947 84.387755 
L 412.536053 92.493602 
L 423.983158 99.67155 
L 435.430263 107.256141 
L 446.877368 114.826777 
L 458.324474 121.763043 
L 469.771579 127.732321 
L 481.218684 133.353528 
L 492.665789 139.001147 
L 504.112895 143.558775 
L 515.56 148.720321 
" clip-path="url(#p0e3bfa0a04)" style="fill: none; stroke: #7f7f7f; stroke-width: 1.5; stroke-linecap: square"/>
   </g>
   <g id="patch_6">
    <path d="M 298.065 174.04 
L 298.065 26.88 
" style="fill: none; stroke: #000000; stroke-width: 0.8; stroke-linejoin: miter; stroke-linecap: square"/>
   </g>
   <g id="patch_7">
    <path d="M 298.065 174.04 
L 515.56 174.04 
" style="fill: none; stroke: #000000; stroke-width: 0.8; stroke-linejoin: miter; stroke-linecap: square"/>
   </g>
   <g id="text_18">
    <!-- Node * third variable -->
    <g transform="translate(344.2325 20.88)scale(0.12 -0.12)">
     <defs>
      <path id="DejaVuSans-68" d="M 3513 2113 
L 3513 0 
L 2938 0 
L 2938 2094 
Q 2938 2591 2744 2837 
Q 2550 3084 2163 3084 
Q 1697 3084 1428 2787 
Q 1159 2491 1159 1978 
L 1159 0 
L 581 0 
L 581 4863 
L 1159 4863 
L 1159 2956 
Q 1366 3272 1645 3428 
Q 1925 3584 2291 3584 
Q 2894 3584 3203 3211 
Q 3513 2838 3513 2113 
z
" transform="scale(0.015625)"/>
      <path id="DejaVuSans-62" d="M 3116 1747 
Q 3116 2381 2855 2742 
Q 2594 3103 2138 3103 
Q 1681 3103 1420 2742 
Q 1159 2381 1159 1747 
Q 1159 1113 1420 752 
Q 1681 391 2138 391 
Q 2594 391 2855 752 
Q 3116 1113 3116 1747 
z
M 1159 2969 
Q 1341 3281 1617 3432 
Q 1894 3584 2278 3584 
Q 2916 3584 3314 3078 
Q 3713 2572 3713 1747 
Q 3713 922 3314 415 
Q 2916 -91 2278 -91 
Q 1894 -91 1617 61 
Q 1341 213 1159 525 
L 1159 0 
L 581 0 
L 581 4863 
L 1159 4863 
L 1159 2969 
z
" transform="scale(0.015625)"/>
     </defs>
     <use xlink:href="#DejaVuSans-4e"/>
     <use xlink:href="#DejaVuSans-6f" x="74.804688"/>
     <use xlink:href="#DejaVuSans-64" x="135.986328"/>
     <use xlink:href="#DejaVuSans-65" x="199.462891"/>
     <use xlink:href="#DejaVuSans-20" x="260.986328"/>
     <use xlink:href="#DejaVuSans-2a" x="292.773438"/>
     <use xlink:href="#DejaVuSans-20" x="342.773438"/>
     <use xlink:href="#DejaVuSans-74" x="374.560547"/>
     <use xlink:href="#DejaVuSans-68" x="413.769531"/>
     <use xlink:href="#DejaVuSans-69" x="477.148438"/>
     <use xlink:href="#DejaVuSans-72" x="504.931641"/>
     <use xlink:href="#DejaVuSans-64" x="544.294922"/>
     <use xlink:href="#DejaVuSans-20" x="607.771484"/>
     <use xlink:href="#DejaVuSans-76" x="639.558594"/>
     <use xlink:href="#DejaVuSans-61" x="698.738281"/>
     <use xlink:href="#DejaVuSans-72" x="760.017578"/>
     <use xlink:href="#DejaVuSans-69" x="801.130859"/>
     <use xlink:href="#DejaVuSans-61" x="828.914062"/>
     <use xlink:href="#DejaVuSans-62" x="890.193359"/>
     <use xlink:href="#DejaVuSans-6c" x="953.669922"/>
     <use xlink:href="#DejaVuSans-65" x="981.453125"/>
    </g>
   </g>
   <g id="legend_1">
    <g id="line2d_30">
     <path d="M 524.56 39.978437 
L 534.56 39.978437 
L 544.56 39.978437 
" style="fill: none; stroke: #1f77b4; stroke-width: 1.5; stroke-linecap: square"/>
    </g>
    <g id="text_19">
     <!-- Node -->
     <g transform="translate(552.56 43.478437)scale(0.1 -0.1)">
      <use xlink:href="#DejaVuSans-4e"/>
      <use xlink:href="#DejaVuSans-6f" x="74.804688"/>
      <use xlink:href="#DejaVuSans-64" x="135.986328"/>
      <use xlink:href="#DejaVuSans-65" x="199.462891"/>
     </g>
    </g>
    <g id="line2d_31">
     <path d="M 524.56 54.656563 
L 534.56 54.656563 
L 544.56 54.656563 
" style="fill: none; stroke: #ff7f0e; stroke-width: 1.5; stroke-linecap: square"/>
    </g>
    <g id="text_20">
     <!-- Node + surprisal -->
     <g transform="translate(552.56 58.156563)scale(0.1 -0.1)">
      <defs>
       <path id="DejaVuSans-2b" d="M 2944 4013 
L 2944 2272 
L 4684 2272 
L 4684 1741 
L 2944 1741 
L 2944 0 
L 2419 0 
L 2419 1741 
L 678 1741 
L 678 2272 
L 2419 2272 
L 2419 4013 
L 2944 4013 
z
" transform="scale(0.015625)"/>
      </defs>
      <use xlink:href="#DejaVuSans-4e"/>
      <use xlink:href="#DejaVuSans-6f" x="74.804688"/>
      <use xlink:href="#DejaVuSans-64" x="135.986328"/>
      <use xlink:href="#DejaVuSans-65" x="199.462891"/>
      <use xlink:href="#DejaVuSans-20" x="260.986328"/>
      <use xlink:href="#DejaVuSans-2b" x="292.773438"/>
      <use xlink:href="#DejaVuSans-20" x="376.5625"/>
      <use xlink:href="#DejaVuSans-73" x="408.349609"/>
      <use xlink:href="#DejaVuSans-75" x="460.449219"/>
      <use xlink:href="#DejaVuSans-72" x="523.828125"/>
      <use xlink:href="#DejaVuSans-70" x="564.941406"/>
      <use xlink:href="#DejaVuSans-72" x="628.417969"/>
      <use xlink:href="#DejaVuSans-69" x="669.53125"/>
      <use xlink:href="#DejaVuSans-73" x="697.314453"/>
      <use xlink:href="#DejaVuSans-61" x="749.414062"/>
      <use xlink:href="#DejaVuSans-6c" x="810.693359"/>
     </g>
    </g>
    <g id="line2d_32">
     <path d="M 524.56 69.334687 
L 534.56 69.334687 
L 544.56 69.334687 
" style="fill: none; stroke: #2ca02c; stroke-width: 1.5; stroke-linecap: square"/>
    </g>
    <g id="text_21">
     <!-- Node split -->
     <g transform="translate(552.56 72.834687)scale(0.1 -0.1)">
      <use xlink:href="#DejaVuSans-4e"/>
      <use xlink:href="#DejaVuSans-6f" x="74.804688"/>
      <use xlink:href="#DejaVuSans-64" x="135.986328"/>
      <use xlink:href="#DejaVuSans-65" x="199.462891"/>
      <use xlink:href="#DejaVuSans-20" x="260.986328"/>
      <use xlink:href="#DejaVuSans-73" x="292.773438"/>
      <use xlink:href="#DejaVuSans-70" x="344.873047"/>
      <use xlink:href="#DejaVuSans-6c" x="408.349609"/>
      <use xlink:href="#DejaVuSans-69" x="436.132812"/>
      <use xlink:href="#DejaVuSans-74" x="463.916016"/>
     </g>
    </g>
    <g id="line2d_33">
     <path d="M 524.56 84.012812 
L 534.56 84.012812 
L 544.56 84.012812 
" style="fill: none; stroke: #d62728; stroke-width: 1.5; stroke-linecap: square"/>
    </g>
    <g id="text_22">
     <!-- Node split + surprisal -->
     <g transform="translate(552.56 87.512812)scale(0.1 -0.1)">
      <use xlink:href="#DejaVuSans-4e"/>
      <use xlink:href="#DejaVuSans-6f" x="74.804688"/>
      <use xlink:href="#DejaVuSans-64" x="135.986328"/>
      <use xlink:href="#DejaVuSans-65" x="199.462891"/>
      <use xlink:href="#DejaVuSans-20" x="260.986328"/>
      <use xlink:href="#DejaVuSans-73" x="292.773438"/>
      <use xlink:href="#DejaVuSans-70" x="344.873047"/>
      <use xlink:href="#DejaVuSans-6c" x="408.349609"/>
      <use xlink:href="#DejaVuSans-69" x="436.132812"/>
      <use xlink:href="#DejaVuSans-74" x="463.916016"/>
      <use xlink:href="#DejaVuSans-20" x="503.125"/>
      <use xlink:href="#DejaVuSans-2b" x="534.912109"/>
      <use xlink:href="#DejaVuSans-20" x="618.701172"/>
      <use xlink:href="#DejaVuSans-73" x="650.488281"/>
      <use xlink:href="#DejaVuSans-75" x="702.587891"/>
      <use xlink:href="#DejaVuSans-72" x="765.966797"/>
      <use xlink:href="#DejaVuSans-70" x="807.080078"/>
      <use xlink:href="#DejaVuSans-72" x="870.556641"/>
      <use xlink:href="#DejaVuSans-69" x="911.669922"/>
      <use xlink:href="#DejaVuSans-73" x="939.453125"/>
      <use xlink:href="#DejaVuSans-61" x="991.552734"/>
      <use xlink:href="#DejaVuSans-6c" x="1052.832031"/>
     </g>
    </g>
    <g id="line2d_34">
     <path d="M 524.56 98.690937 
L 534.56 98.690937 
L 544.56 98.690937 
" style="fill: none; stroke: #9467bd; stroke-width: 1.5; stroke-linecap: square"/>
    </g>
    <g id="text_23">
     <!-- Node random split -->
     <g transform="translate(552.56 102.190937)scale(0.1 -0.1)">
      <use xlink:href="#DejaVuSans-4e"/>
      <use xlink:href="#DejaVuSans-6f" x="74.804688"/>
      <use xlink:href="#DejaVuSans-64" x="135.986328"/>
      <use xlink:href="#DejaVuSans-65" x="199.462891"/>
      <use xlink:href="#DejaVuSans-20" x="260.986328"/>
      <use xlink:href="#DejaVuSans-72" x="292.773438"/>
      <use xlink:href="#DejaVuSans-61" x="333.886719"/>
      <use xlink:href="#DejaVuSans-6e" x="395.166016"/>
      <use xlink:href="#DejaVuSans-64" x="458.544922"/>
      <use xlink:href="#DejaVuSans-6f" x="522.021484"/>
      <use xlink:href="#DejaVuSans-6d" x="583.203125"/>
      <use xlink:href="#DejaVuSans-20" x="680.615234"/>
      <use xlink:href="#DejaVuSans-73" x="712.402344"/>
      <use xlink:href="#DejaVuSans-70" x="764.501953"/>
      <use xlink:href="#DejaVuSans-6c" x="827.978516"/>
      <use xlink:href="#DejaVuSans-69" x="855.761719"/>
      <use xlink:href="#DejaVuSans-74" x="883.544922"/>
     </g>
    </g>
    <g id="line2d_35">
     <path d="M 524.56 113.369062 
L 534.56 113.369062 
L 544.56 113.369062 
" style="fill: none; stroke: #8c564b; stroke-width: 1.5; stroke-linecap: square"/>
    </g>
    <g id="text_24">
     <!-- Node random split + surprisal -->
     <g transform="translate(552.56 116.869062)scale(0.1 -0.1)">
      <use xlink:href="#DejaVuSans-4e"/>
      <use xlink:href="#DejaVuSans-6f" x="74.804688"/>
      <use xlink:href="#DejaVuSans-64" x="135.986328"/>
      <use xlink:href="#DejaVuSans-65" x="199.462891"/>
      <use xlink:href="#DejaVuSans-20" x="260.986328"/>
      <use xlink:href="#DejaVuSans-72" x="292.773438"/>
      <use xlink:href="#DejaVuSans-61" x="333.886719"/>
      <use xlink:href="#DejaVuSans-6e" x="395.166016"/>
      <use xlink:href="#DejaVuSans-64" x="458.544922"/>
      <use xlink:href="#DejaVuSans-6f" x="522.021484"/>
      <use xlink:href="#DejaVuSans-6d" x="583.203125"/>
      <use xlink:href="#DejaVuSans-20" x="680.615234"/>
      <use xlink:href="#DejaVuSans-73" x="712.402344"/>
      <use xlink:href="#DejaVuSans-70" x="764.501953"/>
      <use xlink:href="#DejaVuSans-6c" x="827.978516"/>
      <use xlink:href="#DejaVuSans-69" x="855.761719"/>
      <use xlink:href="#DejaVuSans-74" x="883.544922"/>
      <use xlink:href="#DejaVuSans-20" x="922.753906"/>
      <use xlink:href="#DejaVuSans-2b" x="954.541016"/>
      <use xlink:href="#DejaVuSans-20" x="1038.330078"/>
      <use xlink:href="#DejaVuSans-73" x="1070.117188"/>
      <use xlink:href="#DejaVuSans-75" x="1122.216797"/>
      <use xlink:href="#DejaVuSans-72" x="1185.595703"/>
      <use xlink:href="#DejaVuSans-70" x="1226.708984"/>
      <use xlink:href="#DejaVuSans-72" x="1290.185547"/>
      <use xlink:href="#DejaVuSans-69" x="1331.298828"/>
      <use xlink:href="#DejaVuSans-73" x="1359.082031"/>
      <use xlink:href="#DejaVuSans-61" x="1411.181641"/>
      <use xlink:href="#DejaVuSans-6c" x="1472.460938"/>
     </g>
    </g>
    <g id="line2d_36">
     <path d="M 524.56 128.047187 
L 534.56 128.047187 
L 544.56 128.047187 
" style="fill: none; stroke: #e377c2; stroke-width: 1.5; stroke-linecap: square"/>
    </g>
    <g id="text_25">
     <!-- Interaction -->
     <g transform="translate(552.56 131.547187)scale(0.1 -0.1)">
      <use xlink:href="#DejaVuSans-49"/>
      <use xlink:href="#DejaVuSans-6e" x="29.492188"/>
      <use xlink:href="#DejaVuSans-74" x="92.871094"/>
      <use xlink:href="#DejaVuSans-65" x="132.080078"/>
      <use xlink:href="#DejaVuSans-72" x="193.603516"/>
      <use xlink:href="#DejaVuSans-61" x="234.716797"/>
      <use xlink:href="#DejaVuSans-63" x="295.996094"/>
      <use xlink:href="#DejaVuSans-74" x="350.976562"/>
      <use xlink:href="#DejaVuSans-69" x="390.185547"/>
      <use xlink:href="#DejaVuSans-6f" x="417.96875"/>
      <use xlink:href="#DejaVuSans-6e" x="479.150391"/>
     </g>
    </g>
    <g id="line2d_37">
     <path d="M 524.56 142.725312 
L 534.56 142.725312 
L 544.56 142.725312 
" style="fill: none; stroke: #7f7f7f; stroke-width: 1.5; stroke-linecap: square"/>
    </g>
    <g id="text_26">
     <!-- Node + surprisal + interaction -->
     <g transform="translate(552.56 146.225312)scale(0.1 -0.1)">
      <use xlink:href="#DejaVuSans-4e"/>
      <use xlink:href="#DejaVuSans-6f" x="74.804688"/>
      <use xlink:href="#DejaVuSans-64" x="135.986328"/>
      <use xlink:href="#DejaVuSans-65" x="199.462891"/>
      <use xlink:href="#DejaVuSans-20" x="260.986328"/>
      <use xlink:href="#DejaVuSans-2b" x="292.773438"/>
      <use xlink:href="#DejaVuSans-20" x="376.5625"/>
      <use xlink:href="#DejaVuSans-73" x="408.349609"/>
      <use xlink:href="#DejaVuSans-75" x="460.449219"/>
      <use xlink:href="#DejaVuSans-72" x="523.828125"/>
      <use xlink:href="#DejaVuSans-70" x="564.941406"/>
      <use xlink:href="#DejaVuSans-72" x="628.417969"/>
      <use xlink:href="#DejaVuSans-69" x="669.53125"/>
      <use xlink:href="#DejaVuSans-73" x="697.314453"/>
      <use xlink:href="#DejaVuSans-61" x="749.414062"/>
      <use xlink:href="#DejaVuSans-6c" x="810.693359"/>
      <use xlink:href="#DejaVuSans-20" x="838.476562"/>
      <use xlink:href="#DejaVuSans-2b" x="870.263672"/>
      <use xlink:href="#DejaVuSans-20" x="954.052734"/>
      <use xlink:href="#DejaVuSans-69" x="985.839844"/>
      <use xlink:href="#DejaVuSans-6e" x="1013.623047"/>
      <use xlink:href="#DejaVuSans-74" x="1077.001953"/>
      <use xlink:href="#DejaVuSans-65" x="1116.210938"/>
      <use xlink:href="#DejaVuSans-72" x="1177.734375"/>
      <use xlink:href="#DejaVuSans-61" x="1218.847656"/>
      <use xlink:href="#DejaVuSans-63" x="1280.126953"/>
      <use xlink:href="#DejaVuSans-74" x="1335.107422"/>
      <use xlink:href="#DejaVuSans-69" x="1374.316406"/>
      <use xlink:href="#DejaVuSans-6f" x="1402.099609"/>
      <use xlink:href="#DejaVuSans-6e" x="1463.28125"/>
     </g>
    </g>
   </g>
  </g>
 </g>
 <defs>
  <clipPath id="pf2dbbadc28">
   <rect x="47.72" y="26.88" width="217.495" height="147.16"/>
  </clipPath>
  <clipPath id="p0e3bfa0a04">
   <rect x="298.065" y="26.88" width="217.495" height="147.16"/>
  </clipPath>
 </defs>
</svg>
