<?xml version="1.0" encoding="utf-8" standalone="no"?>
<!DOCTYPE svg PUBLIC "-//W3C//DTD SVG 1.1//EN"
  "http://www.w3.org/Graphics/SVG/1.1/DTD/svg11.dtd">
<svg xmlns:xlink="http://www.w3.org/1999/xlink" width="720pt" height="216pt" viewBox="0 0 720 216" xmlns="http://www.w3.org/2000/svg" version="1.1">
 <metadata>
  <rdf:RDF xmlns:dc="http://purl.org/dc/elements/1.1/" xmlns:cc="http://creativecommons.org/ns#" xmlns:rdf="http://www.w3.org/1999/02/22-rdf-syntax-ns#">
   <cc:Work>
    <dc:type rdf:resource="http://purl.org/dc/dcmitype/StillImage"/>
    <dc:date>2024-01-16T02:13:19.241694</dc:date>
    <dc:format>image/svg+xml</dc:format>
    <dc:creator>
     <cc:Agent>
      <dc:title>Matplotlib v3.5.1, https://matplotlib.org/</dc:title>
     </cc:Agent>
    </dc:creator>
   </cc:Work>
  </rdf:RDF>
 </metadata>
 <defs>
  <style type="text/css">*{stroke-linejoin: round; stroke-linecap: butt}</style>
 </defs>
 <g id="figure_1">
  <g id="patch_1">
   <path d="M 0 216 
L 720 216 
L 720 0 
L 0 0 
z
" style="fill: #ffffff"/>
  </g>
  <g id="axes_1">
   <g id="patch_2">
    <path d="M 47.72 174.04 
L 265.215 174.04 
L 265.215 26.88 
L 47.72 26.88 
z
" style="fill: #ffffff"/>
   </g>
   <g id="PolyCollection_1">
    <path d="M 47.72 33.827353 
L 47.72 35.039595 
L 59.167105 35.932419 
L 70.614211 39.532018 
L 82.061316 44.584829 
L 93.508421 51.116183 
L 104.955526 58.654489 
L 116.402632 66.954018 
L 127.849737 75.451056 
L 139.296842 83.465813 
L 150.743947 91.563891 
L 162.191053 99.101988 
L 173.638158 105.494327 
L 185.085263 112.479519 
L 196.532368 117.842095 
L 207.979474 123.966188 
L 219.426579 128.381062 
L 230.873684 133.562351 
L 242.320789 137.996181 
L 253.767895 142.633654 
L 265.215 146.456266 
L 265.215 135.987216 
L 265.215 135.987216 
L 253.767895 131.906983 
L 242.320789 127.146868 
L 230.873684 122.384164 
L 219.426579 117.165722 
L 207.979474 111.60431 
L 196.532368 105.453093 
L 185.085263 98.956552 
L 173.638158 92.295538 
L 162.191053 85.002249 
L 150.743947 77.936117 
L 139.296842 70.818281 
L 127.849737 64.282018 
L 116.402632 57.762737 
L 104.955526 51.212962 
L 93.508421 46.071735 
L 82.061316 41.046173 
L 70.614211 37.49366 
L 59.167105 34.868843 
L 47.72 33.827353 
z
" clip-path="url(#p124849a2c7)" style="fill: #1f77b4; fill-opacity: 0.4"/>
   </g>
   <g id="PolyCollection_2">
    <path d="M 47.72 33.827639 
L 47.72 35.051931 
L 59.167105 35.533456 
L 70.614211 37.485791 
L 82.061316 40.187067 
L 93.508421 44.071573 
L 104.955526 48.678853 
L 116.402632 54.265444 
L 127.849737 60.223414 
L 139.296842 66.235854 
L 150.743947 72.867232 
L 162.191053 79.626582 
L 173.638158 85.761535 
L 185.085263 92.770372 
L 196.532368 98.15249 
L 207.979474 104.550514 
L 219.426579 109.002521 
L 230.873684 114.451295 
L 242.320789 119.019185 
L 253.767895 123.746789 
L 265.215 128.306802 
L 265.215 119.4692 
L 265.215 119.4692 
L 253.767895 114.923625 
L 242.320789 109.406691 
L 230.873684 104.015015 
L 219.426579 98.422027 
L 207.979474 92.433744 
L 196.532368 86.487929 
L 185.085263 80.352445 
L 173.638158 74.49375 
L 162.191053 68.225027 
L 150.743947 62.651972 
L 139.296842 57.09627 
L 127.849737 52.438289 
L 116.402632 48.031729 
L 104.955526 43.781252 
L 93.508421 40.685322 
L 82.061316 37.807767 
L 70.614211 35.810884 
L 59.167105 34.560534 
L 47.72 33.827639 
z
" clip-path="url(#p124849a2c7)" style="fill: #ff7f0e; fill-opacity: 0.4"/>
   </g>
   <g id="PolyCollection_3">
    <path d="M 47.72 33.820657 
L 47.72 35.047136 
L 59.167105 35.690292 
L 70.614211 37.534928 
L 82.061316 39.884106 
L 93.508421 42.99811 
L 104.955526 46.774671 
L 116.402632 51.096966 
L 127.849737 55.690741 
L 139.296842 59.978896 
L 150.743947 64.059023 
L 162.191053 68.326667 
L 173.638158 72.004803 
L 185.085263 76.076351 
L 196.532368 79.759642 
L 207.979474 83.360634 
L 219.426579 86.080527 
L 230.873684 89.695191 
L 242.320789 92.375834 
L 253.767895 95.54601 
L 265.215 98.30438 
L 265.215 89.205064 
L 265.215 89.205064 
L 253.767895 85.88953 
L 242.320789 82.588093 
L 230.873684 78.855599 
L 219.426579 75.247716 
L 207.979474 71.723532 
L 196.532368 67.663234 
L 185.085263 64.166266 
L 173.638158 60.708898 
L 162.191053 57.108291 
L 150.743947 53.673633 
L 139.296842 49.925262 
L 127.849737 47.13355 
L 116.402632 44.47539 
L 104.955526 41.714156 
L 93.508421 39.463772 
L 82.061316 37.413572 
L 70.614211 35.845844 
L 59.167105 34.655773 
L 47.72 33.820657 
z
" clip-path="url(#p124849a2c7)" style="fill: #2ca02c; fill-opacity: 0.4"/>
   </g>
   <g id="PolyCollection_4">
    <path d="M 47.72 33.832832 
L 47.72 35.056999 
L 59.167105 35.508275 
L 70.614211 36.896406 
L 82.061316 38.61388 
L 93.508421 41.069792 
L 104.955526 44.104408 
L 116.402632 47.878773 
L 127.849737 51.964326 
L 139.296842 55.986336 
L 150.743947 60.130023 
L 162.191053 64.474345 
L 173.638158 68.29473 
L 185.085263 72.60813 
L 196.532368 76.398292 
L 207.979474 80.326052 
L 219.426579 83.326744 
L 230.873684 87.319844 
L 242.320789 90.32152 
L 253.767895 93.701021 
L 265.215 96.705883 
L 265.215 86.581414 
L 265.215 86.581414 
L 253.767895 83.18209 
L 242.320789 79.885691 
L 230.873684 76.131912 
L 219.426579 72.581765 
L 207.979474 69.103591 
L 196.532368 65.037306 
L 185.085263 61.470578 
L 173.638158 58.015713 
L 162.191053 54.275845 
L 150.743947 50.957271 
L 139.296842 47.409524 
L 127.849737 44.784433 
L 116.402632 42.430707 
L 104.955526 40.018414 
L 93.508421 38.214516 
L 82.061316 36.574704 
L 70.614211 35.341731 
L 59.167105 34.527977 
L 47.72 33.832832 
z
" clip-path="url(#p124849a2c7)" style="fill: #d62728; fill-opacity: 0.4"/>
   </g>
   <g id="PolyCollection_5">
    <path d="M 47.72 33.84272 
L 47.72 35.05664 
L 59.167105 35.962962 
L 70.614211 39.566447 
L 82.061316 44.628258 
L 93.508421 51.152027 
L 104.955526 58.616189 
L 116.402632 67.095927 
L 127.849737 75.59706 
L 139.296842 83.520785 
L 150.743947 91.964035 
L 162.191053 99.524761 
L 173.638158 105.581366 
L 185.085263 112.506584 
L 196.532368 118.085565 
L 207.979474 123.861756 
L 219.426579 128.610453 
L 230.873684 133.685166 
L 242.320789 137.843979 
L 253.767895 142.794952 
L 265.215 147.169864 
L 265.215 136.409075 
L 265.215 136.409075 
L 253.767895 132.422258 
L 242.320789 127.874714 
L 230.873684 123.126722 
L 219.426579 117.327461 
L 207.979474 111.409088 
L 196.532368 105.972524 
L 185.085263 99.253569 
L 173.638158 92.42713 
L 162.191053 85.241432 
L 150.743947 77.840373 
L 139.296842 70.741901 
L 127.849737 64.333766 
L 116.402632 57.683638 
L 104.955526 51.192969 
L 93.508421 46.144939 
L 82.061316 41.063541 
L 70.614211 37.541807 
L 59.167105 34.885864 
L 47.72 33.84272 
z
" clip-path="url(#p124849a2c7)" style="fill: #9467bd; fill-opacity: 0.4"/>
   </g>
   <g id="PolyCollection_6">
    <path d="M 47.72 33.843173 
L 47.72 35.070047 
L 59.167105 35.560729 
L 70.614211 37.508622 
L 82.061316 40.222593 
L 93.508421 44.105525 
L 104.955526 48.710369 
L 116.402632 54.30907 
L 127.849737 60.327476 
L 139.296842 66.356361 
L 150.743947 72.941459 
L 162.191053 79.798675 
L 173.638158 85.96267 
L 185.085263 92.813136 
L 196.532368 98.536748 
L 207.979474 104.486767 
L 219.426579 109.085523 
L 230.873684 114.39321 
L 242.320789 118.961821 
L 253.767895 123.878802 
L 265.215 128.956806 
L 265.215 119.574563 
L 265.215 119.574563 
L 253.767895 115.474118 
L 242.320789 109.874217 
L 230.873684 104.666034 
L 219.426579 98.466295 
L 207.979474 92.373339 
L 196.532368 86.743002 
L 185.085263 80.472231 
L 173.638158 74.454366 
L 162.191053 68.365973 
L 150.743947 62.645228 
L 139.296842 57.098997 
L 127.849737 52.493227 
L 116.402632 48.007643 
L 104.955526 43.796132 
L 93.508421 40.692707 
L 82.061316 37.820118 
L 70.614211 35.844017 
L 59.167105 34.572685 
L 47.72 33.843173 
z
" clip-path="url(#p124849a2c7)" style="fill: #8c564b; fill-opacity: 0.4"/>
   </g>
   <g id="PolyCollection_7">
    <path d="M 47.72 47.057427 
L 47.72 52.537864 
L 59.167105 54.378382 
L 70.614211 59.059199 
L 82.061316 66.123658 
L 93.508421 74.490736 
L 104.955526 83.440538 
L 116.402632 92.907348 
L 127.849737 102.755667 
L 139.296842 111.564453 
L 150.743947 120.256007 
L 162.191053 128.531332 
L 173.638158 135.283383 
L 185.085263 141.916536 
L 196.532368 147.15051 
L 207.979474 151.776814 
L 219.426579 155.284456 
L 230.873684 158.702282 
L 242.320789 161.660762 
L 253.767895 164.551969 
L 265.215 167.350909 
L 265.215 152.754644 
L 265.215 152.754644 
L 253.767895 149.645934 
L 242.320789 145.578736 
L 230.873684 140.983837 
L 219.426579 136.174948 
L 207.979474 130.685648 
L 196.532368 124.291899 
L 185.085263 117.792958 
L 173.638158 110.97078 
L 162.191053 103.561982 
L 150.743947 96.084707 
L 139.296842 88.436479 
L 127.849737 81.398397 
L 116.402632 74.086642 
L 104.955526 66.626981 
L 93.508421 60.253806 
L 82.061316 54.605272 
L 70.614211 50.706066 
L 59.167105 47.924936 
L 47.72 47.057427 
z
" clip-path="url(#p124849a2c7)" style="fill: #e377c2; fill-opacity: 0.4"/>
   </g>
   <g id="PolyCollection_8">
    <path d="M 47.72 33.832757 
L 47.72 35.066438 
L 59.167105 35.189479 
L 70.614211 35.693281 
L 82.061316 36.611512 
L 93.508421 38.726699 
L 104.955526 41.705051 
L 116.402632 46.115523 
L 127.849737 51.225931 
L 139.296842 56.431235 
L 150.743947 62.532503 
L 162.191053 69.635237 
L 173.638158 76.452278 
L 185.085263 84.285951 
L 196.532368 90.770508 
L 207.979474 97.689789 
L 219.426579 103.231419 
L 230.873684 109.098118 
L 242.320789 113.946327 
L 253.767895 118.769877 
L 265.215 123.15264 
L 265.215 106.734304 
L 265.215 106.734304 
L 253.767895 100.953706 
L 242.320789 94.916807 
L 230.873684 89.038922 
L 219.426579 82.659217 
L 207.979474 77.078591 
L 196.532368 70.661998 
L 185.085263 65.259826 
L 173.638158 59.740373 
L 162.191053 54.611898 
L 150.743947 49.830572 
L 139.296842 45.049616 
L 127.849737 41.272517 
L 116.402632 38.510337 
L 104.955526 36.255036 
L 93.508421 35.157193 
L 82.061316 34.457519 
L 70.614211 34.157886 
L 59.167105 34.183973 
L 47.72 33.832757 
z
" clip-path="url(#p124849a2c7)" style="fill: #7f7f7f; fill-opacity: 0.4"/>
   </g>
   <g id="matplotlib.axis_1">
    <g id="xtick_1">
     <g id="line2d_1">
      <defs>
       <path id="me34dd29f8d" d="M 0 0 
L 0 3.5 
" style="stroke: #000000; stroke-width: 0.8"/>
      </defs>
      <g>
       <use xlink:href="#me34dd29f8d" x="47.72" y="174.04" style="stroke: #000000; stroke-width: 0.8"/>
      </g>
     </g>
     <g id="text_1">
      <!-- 0.0 -->
      <g transform="translate(39.768438 188.638438)scale(0.1 -0.1)">
       <defs>
        <path id="DejaVuSans-30" d="M 2034 4250 
Q 1547 4250 1301 3770 
Q 1056 3291 1056 2328 
Q 1056 1369 1301 889 
Q 1547 409 2034 409 
Q 2525 409 2770 889 
Q 3016 1369 3016 2328 
Q 3016 3291 2770 3770 
Q 2525 4250 2034 4250 
z
M 2034 4750 
Q 2819 4750 3233 4129 
Q 3647 3509 3647 2328 
Q 3647 1150 3233 529 
Q 2819 -91 2034 -91 
Q 1250 -91 836 529 
Q 422 1150 422 2328 
Q 422 3509 836 4129 
Q 1250 4750 2034 4750 
z
" transform="scale(0.015625)"/>
        <path id="DejaVuSans-2e" d="M 684 794 
L 1344 794 
L 1344 0 
L 684 0 
L 684 794 
z
" transform="scale(0.015625)"/>
       </defs>
       <use xlink:href="#DejaVuSans-30"/>
       <use xlink:href="#DejaVuSans-2e" x="63.623047"/>
       <use xlink:href="#DejaVuSans-30" x="95.410156"/>
      </g>
     </g>
    </g>
    <g id="xtick_2">
     <g id="line2d_2">
      <g>
       <use xlink:href="#me34dd29f8d" x="102.09375" y="174.04" style="stroke: #000000; stroke-width: 0.8"/>
      </g>
     </g>
     <g id="text_2">
      <!-- 0.5 -->
      <g transform="translate(94.142188 188.638438)scale(0.1 -0.1)">
       <defs>
        <path id="DejaVuSans-35" d="M 691 4666 
L 3169 4666 
L 3169 4134 
L 1269 4134 
L 1269 2991 
Q 1406 3038 1543 3061 
Q 1681 3084 1819 3084 
Q 2600 3084 3056 2656 
Q 3513 2228 3513 1497 
Q 3513 744 3044 326 
Q 2575 -91 1722 -91 
Q 1428 -91 1123 -41 
Q 819 9 494 109 
L 494 744 
Q 775 591 1075 516 
Q 1375 441 1709 441 
Q 2250 441 2565 725 
Q 2881 1009 2881 1497 
Q 2881 1984 2565 2268 
Q 2250 2553 1709 2553 
Q 1456 2553 1204 2497 
Q 953 2441 691 2322 
L 691 4666 
z
" transform="scale(0.015625)"/>
       </defs>
       <use xlink:href="#DejaVuSans-30"/>
       <use xlink:href="#DejaVuSans-2e" x="63.623047"/>
       <use xlink:href="#DejaVuSans-35" x="95.410156"/>
      </g>
     </g>
    </g>
    <g id="xtick_3">
     <g id="line2d_3">
      <g>
       <use xlink:href="#me34dd29f8d" x="156.4675" y="174.04" style="stroke: #000000; stroke-width: 0.8"/>
      </g>
     </g>
     <g id="text_3">
      <!-- 1.0 -->
      <g transform="translate(148.515938 188.638438)scale(0.1 -0.1)">
       <defs>
        <path id="DejaVuSans-31" d="M 794 531 
L 1825 531 
L 1825 4091 
L 703 3866 
L 703 4441 
L 1819 4666 
L 2450 4666 
L 2450 531 
L 3481 531 
L 3481 0 
L 794 0 
L 794 531 
z
" transform="scale(0.015625)"/>
       </defs>
       <use xlink:href="#DejaVuSans-31"/>
       <use xlink:href="#DejaVuSans-2e" x="63.623047"/>
       <use xlink:href="#DejaVuSans-30" x="95.410156"/>
      </g>
     </g>
    </g>
    <g id="xtick_4">
     <g id="line2d_4">
      <g>
       <use xlink:href="#me34dd29f8d" x="210.84125" y="174.04" style="stroke: #000000; stroke-width: 0.8"/>
      </g>
     </g>
     <g id="text_4">
      <!-- 1.5 -->
      <g transform="translate(202.889687 188.638438)scale(0.1 -0.1)">
       <use xlink:href="#DejaVuSans-31"/>
       <use xlink:href="#DejaVuSans-2e" x="63.623047"/>
       <use xlink:href="#DejaVuSans-35" x="95.410156"/>
      </g>
     </g>
    </g>
    <g id="xtick_5">
     <g id="line2d_5">
      <g>
       <use xlink:href="#me34dd29f8d" x="265.215" y="174.04" style="stroke: #000000; stroke-width: 0.8"/>
      </g>
     </g>
     <g id="text_5">
      <!-- 2.0 -->
      <g transform="translate(257.263437 188.638438)scale(0.1 -0.1)">
       <defs>
        <path id="DejaVuSans-32" d="M 1228 531 
L 3431 531 
L 3431 0 
L 469 0 
L 469 531 
Q 828 903 1448 1529 
Q 2069 2156 2228 2338 
Q 2531 2678 2651 2914 
Q 2772 3150 2772 3378 
Q 2772 3750 2511 3984 
Q 2250 4219 1831 4219 
Q 1534 4219 1204 4116 
Q 875 4013 500 3803 
L 500 4441 
Q 881 4594 1212 4672 
Q 1544 4750 1819 4750 
Q 2544 4750 2975 4387 
Q 3406 4025 3406 3419 
Q 3406 3131 3298 2873 
Q 3191 2616 2906 2266 
Q 2828 2175 2409 1742 
Q 1991 1309 1228 531 
z
" transform="scale(0.015625)"/>
       </defs>
       <use xlink:href="#DejaVuSans-32"/>
       <use xlink:href="#DejaVuSans-2e" x="63.623047"/>
       <use xlink:href="#DejaVuSans-30" x="95.410156"/>
      </g>
     </g>
    </g>
    <g id="text_6">
     <!-- Influence of surprisal (multiplication) -->
     <g transform="translate(64.320625 202.316563)scale(0.1 -0.1)">
      <defs>
       <path id="DejaVuSans-49" d="M 628 4666 
L 1259 4666 
L 1259 0 
L 628 0 
L 628 4666 
z
" transform="scale(0.015625)"/>
       <path id="DejaVuSans-6e" d="M 3513 2113 
L 3513 0 
L 2938 0 
L 2938 2094 
Q 2938 2591 2744 2837 
Q 2550 3084 2163 3084 
Q 1697 3084 1428 2787 
Q 1159 2491 1159 1978 
L 1159 0 
L 581 0 
L 581 3500 
L 1159 3500 
L 1159 2956 
Q 1366 3272 1645 3428 
Q 1925 3584 2291 3584 
Q 2894 3584 3203 3211 
Q 3513 2838 3513 2113 
z
" transform="scale(0.015625)"/>
       <path id="DejaVuSans-66" d="M 2375 4863 
L 2375 4384 
L 1825 4384 
Q 1516 4384 1395 4259 
Q 1275 4134 1275 3809 
L 1275 3500 
L 2222 3500 
L 2222 3053 
L 1275 3053 
L 1275 0 
L 697 0 
L 697 3053 
L 147 3053 
L 147 3500 
L 697 3500 
L 697 3744 
Q 697 4328 969 4595 
Q 1241 4863 1831 4863 
L 2375 4863 
z
" transform="scale(0.015625)"/>
       <path id="DejaVuSans-6c" d="M 603 4863 
L 1178 4863 
L 1178 0 
L 603 0 
L 603 4863 
z
" transform="scale(0.015625)"/>
       <path id="DejaVuSans-75" d="M 544 1381 
L 544 3500 
L 1119 3500 
L 1119 1403 
Q 1119 906 1312 657 
Q 1506 409 1894 409 
Q 2359 409 2629 706 
Q 2900 1003 2900 1516 
L 2900 3500 
L 3475 3500 
L 3475 0 
L 2900 0 
L 2900 538 
Q 2691 219 2414 64 
Q 2138 -91 1772 -91 
Q 1169 -91 856 284 
Q 544 659 544 1381 
z
M 1991 3584 
L 1991 3584 
z
" transform="scale(0.015625)"/>
       <path id="DejaVuSans-65" d="M 3597 1894 
L 3597 1613 
L 953 1613 
Q 991 1019 1311 708 
Q 1631 397 2203 397 
Q 2534 397 2845 478 
Q 3156 559 3463 722 
L 3463 178 
Q 3153 47 2828 -22 
Q 2503 -91 2169 -91 
Q 1331 -91 842 396 
Q 353 884 353 1716 
Q 353 2575 817 3079 
Q 1281 3584 2069 3584 
Q 2775 3584 3186 3129 
Q 3597 2675 3597 1894 
z
M 3022 2063 
Q 3016 2534 2758 2815 
Q 2500 3097 2075 3097 
Q 1594 3097 1305 2825 
Q 1016 2553 972 2059 
L 3022 2063 
z
" transform="scale(0.015625)"/>
       <path id="DejaVuSans-63" d="M 3122 3366 
L 3122 2828 
Q 2878 2963 2633 3030 
Q 2388 3097 2138 3097 
Q 1578 3097 1268 2742 
Q 959 2388 959 1747 
Q 959 1106 1268 751 
Q 1578 397 2138 397 
Q 2388 397 2633 464 
Q 2878 531 3122 666 
L 3122 134 
Q 2881 22 2623 -34 
Q 2366 -91 2075 -91 
Q 1284 -91 818 406 
Q 353 903 353 1747 
Q 353 2603 823 3093 
Q 1294 3584 2113 3584 
Q 2378 3584 2631 3529 
Q 2884 3475 3122 3366 
z
" transform="scale(0.015625)"/>
       <path id="DejaVuSans-20" transform="scale(0.015625)"/>
       <path id="DejaVuSans-6f" d="M 1959 3097 
Q 1497 3097 1228 2736 
Q 959 2375 959 1747 
Q 959 1119 1226 758 
Q 1494 397 1959 397 
Q 2419 397 2687 759 
Q 2956 1122 2956 1747 
Q 2956 2369 2687 2733 
Q 2419 3097 1959 3097 
z
M 1959 3584 
Q 2709 3584 3137 3096 
Q 3566 2609 3566 1747 
Q 3566 888 3137 398 
Q 2709 -91 1959 -91 
Q 1206 -91 779 398 
Q 353 888 353 1747 
Q 353 2609 779 3096 
Q 1206 3584 1959 3584 
z
" transform="scale(0.015625)"/>
       <path id="DejaVuSans-73" d="M 2834 3397 
L 2834 2853 
Q 2591 2978 2328 3040 
Q 2066 3103 1784 3103 
Q 1356 3103 1142 2972 
Q 928 2841 928 2578 
Q 928 2378 1081 2264 
Q 1234 2150 1697 2047 
L 1894 2003 
Q 2506 1872 2764 1633 
Q 3022 1394 3022 966 
Q 3022 478 2636 193 
Q 2250 -91 1575 -91 
Q 1294 -91 989 -36 
Q 684 19 347 128 
L 347 722 
Q 666 556 975 473 
Q 1284 391 1588 391 
Q 1994 391 2212 530 
Q 2431 669 2431 922 
Q 2431 1156 2273 1281 
Q 2116 1406 1581 1522 
L 1381 1569 
Q 847 1681 609 1914 
Q 372 2147 372 2553 
Q 372 3047 722 3315 
Q 1072 3584 1716 3584 
Q 2034 3584 2315 3537 
Q 2597 3491 2834 3397 
z
" transform="scale(0.015625)"/>
       <path id="DejaVuSans-72" d="M 2631 2963 
Q 2534 3019 2420 3045 
Q 2306 3072 2169 3072 
Q 1681 3072 1420 2755 
Q 1159 2438 1159 1844 
L 1159 0 
L 581 0 
L 581 3500 
L 1159 3500 
L 1159 2956 
Q 1341 3275 1631 3429 
Q 1922 3584 2338 3584 
Q 2397 3584 2469 3576 
Q 2541 3569 2628 3553 
L 2631 2963 
z
" transform="scale(0.015625)"/>
       <path id="DejaVuSans-70" d="M 1159 525 
L 1159 -1331 
L 581 -1331 
L 581 3500 
L 1159 3500 
L 1159 2969 
Q 1341 3281 1617 3432 
Q 1894 3584 2278 3584 
Q 2916 3584 3314 3078 
Q 3713 2572 3713 1747 
Q 3713 922 3314 415 
Q 2916 -91 2278 -91 
Q 1894 -91 1617 61 
Q 1341 213 1159 525 
z
M 3116 1747 
Q 3116 2381 2855 2742 
Q 2594 3103 2138 3103 
Q 1681 3103 1420 2742 
Q 1159 2381 1159 1747 
Q 1159 1113 1420 752 
Q 1681 391 2138 391 
Q 2594 391 2855 752 
Q 3116 1113 3116 1747 
z
" transform="scale(0.015625)"/>
       <path id="DejaVuSans-69" d="M 603 3500 
L 1178 3500 
L 1178 0 
L 603 0 
L 603 3500 
z
M 603 4863 
L 1178 4863 
L 1178 4134 
L 603 4134 
L 603 4863 
z
" transform="scale(0.015625)"/>
       <path id="DejaVuSans-61" d="M 2194 1759 
Q 1497 1759 1228 1600 
Q 959 1441 959 1056 
Q 959 750 1161 570 
Q 1363 391 1709 391 
Q 2188 391 2477 730 
Q 2766 1069 2766 1631 
L 2766 1759 
L 2194 1759 
z
M 3341 1997 
L 3341 0 
L 2766 0 
L 2766 531 
Q 2569 213 2275 61 
Q 1981 -91 1556 -91 
Q 1019 -91 701 211 
Q 384 513 384 1019 
Q 384 1609 779 1909 
Q 1175 2209 1959 2209 
L 2766 2209 
L 2766 2266 
Q 2766 2663 2505 2880 
Q 2244 3097 1772 3097 
Q 1472 3097 1187 3025 
Q 903 2953 641 2809 
L 641 3341 
Q 956 3463 1253 3523 
Q 1550 3584 1831 3584 
Q 2591 3584 2966 3190 
Q 3341 2797 3341 1997 
z
" transform="scale(0.015625)"/>
       <path id="DejaVuSans-28" d="M 1984 4856 
Q 1566 4138 1362 3434 
Q 1159 2731 1159 2009 
Q 1159 1288 1364 580 
Q 1569 -128 1984 -844 
L 1484 -844 
Q 1016 -109 783 600 
Q 550 1309 550 2009 
Q 550 2706 781 3412 
Q 1013 4119 1484 4856 
L 1984 4856 
z
" transform="scale(0.015625)"/>
       <path id="DejaVuSans-6d" d="M 3328 2828 
Q 3544 3216 3844 3400 
Q 4144 3584 4550 3584 
Q 5097 3584 5394 3201 
Q 5691 2819 5691 2113 
L 5691 0 
L 5113 0 
L 5113 2094 
Q 5113 2597 4934 2840 
Q 4756 3084 4391 3084 
Q 3944 3084 3684 2787 
Q 3425 2491 3425 1978 
L 3425 0 
L 2847 0 
L 2847 2094 
Q 2847 2600 2669 2842 
Q 2491 3084 2119 3084 
Q 1678 3084 1418 2786 
Q 1159 2488 1159 1978 
L 1159 0 
L 581 0 
L 581 3500 
L 1159 3500 
L 1159 2956 
Q 1356 3278 1631 3431 
Q 1906 3584 2284 3584 
Q 2666 3584 2933 3390 
Q 3200 3197 3328 2828 
z
" transform="scale(0.015625)"/>
       <path id="DejaVuSans-74" d="M 1172 4494 
L 1172 3500 
L 2356 3500 
L 2356 3053 
L 1172 3053 
L 1172 1153 
Q 1172 725 1289 603 
Q 1406 481 1766 481 
L 2356 481 
L 2356 0 
L 1766 0 
Q 1100 0 847 248 
Q 594 497 594 1153 
L 594 3053 
L 172 3053 
L 172 3500 
L 594 3500 
L 594 4494 
L 1172 4494 
z
" transform="scale(0.015625)"/>
       <path id="DejaVuSans-29" d="M 513 4856 
L 1013 4856 
Q 1481 4119 1714 3412 
Q 1947 2706 1947 2009 
Q 1947 1309 1714 600 
Q 1481 -109 1013 -844 
L 513 -844 
Q 928 -128 1133 580 
Q 1338 1288 1338 2009 
Q 1338 2731 1133 3434 
Q 928 4138 513 4856 
z
" transform="scale(0.015625)"/>
      </defs>
      <use xlink:href="#DejaVuSans-49"/>
      <use xlink:href="#DejaVuSans-6e" x="29.492188"/>
      <use xlink:href="#DejaVuSans-66" x="92.871094"/>
      <use xlink:href="#DejaVuSans-6c" x="128.076172"/>
      <use xlink:href="#DejaVuSans-75" x="155.859375"/>
      <use xlink:href="#DejaVuSans-65" x="219.238281"/>
      <use xlink:href="#DejaVuSans-6e" x="280.761719"/>
      <use xlink:href="#DejaVuSans-63" x="344.140625"/>
      <use xlink:href="#DejaVuSans-65" x="399.121094"/>
      <use xlink:href="#DejaVuSans-20" x="460.644531"/>
      <use xlink:href="#DejaVuSans-6f" x="492.431641"/>
      <use xlink:href="#DejaVuSans-66" x="553.613281"/>
      <use xlink:href="#DejaVuSans-20" x="588.818359"/>
      <use xlink:href="#DejaVuSans-73" x="620.605469"/>
      <use xlink:href="#DejaVuSans-75" x="672.705078"/>
      <use xlink:href="#DejaVuSans-72" x="736.083984"/>
      <use xlink:href="#DejaVuSans-70" x="777.197266"/>
      <use xlink:href="#DejaVuSans-72" x="840.673828"/>
      <use xlink:href="#DejaVuSans-69" x="881.787109"/>
      <use xlink:href="#DejaVuSans-73" x="909.570312"/>
      <use xlink:href="#DejaVuSans-61" x="961.669922"/>
      <use xlink:href="#DejaVuSans-6c" x="1022.949219"/>
      <use xlink:href="#DejaVuSans-20" x="1050.732422"/>
      <use xlink:href="#DejaVuSans-28" x="1082.519531"/>
      <use xlink:href="#DejaVuSans-6d" x="1121.533203"/>
      <use xlink:href="#DejaVuSans-75" x="1218.945312"/>
      <use xlink:href="#DejaVuSans-6c" x="1282.324219"/>
      <use xlink:href="#DejaVuSans-74" x="1310.107422"/>
      <use xlink:href="#DejaVuSans-69" x="1349.316406"/>
      <use xlink:href="#DejaVuSans-70" x="1377.099609"/>
      <use xlink:href="#DejaVuSans-6c" x="1440.576172"/>
      <use xlink:href="#DejaVuSans-69" x="1468.359375"/>
      <use xlink:href="#DejaVuSans-63" x="1496.142578"/>
      <use xlink:href="#DejaVuSans-61" x="1551.123047"/>
      <use xlink:href="#DejaVuSans-74" x="1612.402344"/>
      <use xlink:href="#DejaVuSans-69" x="1651.611328"/>
      <use xlink:href="#DejaVuSans-6f" x="1679.394531"/>
      <use xlink:href="#DejaVuSans-6e" x="1740.576172"/>
      <use xlink:href="#DejaVuSans-29" x="1803.955078"/>
     </g>
    </g>
   </g>
   <g id="matplotlib.axis_2">
    <g id="ytick_1">
     <g id="line2d_6">
      <defs>
       <path id="maf249f5b52" d="M 0 0 
L -3.5 0 
" style="stroke: #000000; stroke-width: 0.8"/>
      </defs>
      <g>
       <use xlink:href="#maf249f5b52" x="47.72" y="173.30169" style="stroke: #000000; stroke-width: 0.8"/>
      </g>
     </g>
     <g id="text_7">
      <!-- 0.2 -->
      <g transform="translate(24.816875 177.100909)scale(0.1 -0.1)">
       <use xlink:href="#DejaVuSans-30"/>
       <use xlink:href="#DejaVuSans-2e" x="63.623047"/>
       <use xlink:href="#DejaVuSans-32" x="95.410156"/>
      </g>
     </g>
    </g>
    <g id="ytick_2">
     <g id="line2d_7">
      <g>
       <use xlink:href="#maf249f5b52" x="47.72" y="136.035355" style="stroke: #000000; stroke-width: 0.8"/>
      </g>
     </g>
     <g id="text_8">
      <!-- 0.4 -->
      <g transform="translate(24.816875 139.834573)scale(0.1 -0.1)">
       <defs>
        <path id="DejaVuSans-34" d="M 2419 4116 
L 825 1625 
L 2419 1625 
L 2419 4116 
z
M 2253 4666 
L 3047 4666 
L 3047 1625 
L 3713 1625 
L 3713 1100 
L 3047 1100 
L 3047 0 
L 2419 0 
L 2419 1100 
L 313 1100 
L 313 1709 
L 2253 4666 
z
" transform="scale(0.015625)"/>
       </defs>
       <use xlink:href="#DejaVuSans-30"/>
       <use xlink:href="#DejaVuSans-2e" x="63.623047"/>
       <use xlink:href="#DejaVuSans-34" x="95.410156"/>
      </g>
     </g>
    </g>
    <g id="ytick_3">
     <g id="line2d_8">
      <g>
       <use xlink:href="#maf249f5b52" x="47.72" y="98.769019" style="stroke: #000000; stroke-width: 0.8"/>
      </g>
     </g>
     <g id="text_9">
      <!-- 0.6 -->
      <g transform="translate(24.816875 102.568238)scale(0.1 -0.1)">
       <defs>
        <path id="DejaVuSans-36" d="M 2113 2584 
Q 1688 2584 1439 2293 
Q 1191 2003 1191 1497 
Q 1191 994 1439 701 
Q 1688 409 2113 409 
Q 2538 409 2786 701 
Q 3034 994 3034 1497 
Q 3034 2003 2786 2293 
Q 2538 2584 2113 2584 
z
M 3366 4563 
L 3366 3988 
Q 3128 4100 2886 4159 
Q 2644 4219 2406 4219 
Q 1781 4219 1451 3797 
Q 1122 3375 1075 2522 
Q 1259 2794 1537 2939 
Q 1816 3084 2150 3084 
Q 2853 3084 3261 2657 
Q 3669 2231 3669 1497 
Q 3669 778 3244 343 
Q 2819 -91 2113 -91 
Q 1303 -91 875 529 
Q 447 1150 447 2328 
Q 447 3434 972 4092 
Q 1497 4750 2381 4750 
Q 2619 4750 2861 4703 
Q 3103 4656 3366 4563 
z
" transform="scale(0.015625)"/>
       </defs>
       <use xlink:href="#DejaVuSans-30"/>
       <use xlink:href="#DejaVuSans-2e" x="63.623047"/>
       <use xlink:href="#DejaVuSans-36" x="95.410156"/>
      </g>
     </g>
    </g>
    <g id="ytick_4">
     <g id="line2d_9">
      <g>
       <use xlink:href="#maf249f5b52" x="47.72" y="61.502683" style="stroke: #000000; stroke-width: 0.8"/>
      </g>
     </g>
     <g id="text_10">
      <!-- 0.8 -->
      <g transform="translate(24.816875 65.301902)scale(0.1 -0.1)">
       <defs>
        <path id="DejaVuSans-38" d="M 2034 2216 
Q 1584 2216 1326 1975 
Q 1069 1734 1069 1313 
Q 1069 891 1326 650 
Q 1584 409 2034 409 
Q 2484 409 2743 651 
Q 3003 894 3003 1313 
Q 3003 1734 2745 1975 
Q 2488 2216 2034 2216 
z
M 1403 2484 
Q 997 2584 770 2862 
Q 544 3141 544 3541 
Q 544 4100 942 4425 
Q 1341 4750 2034 4750 
Q 2731 4750 3128 4425 
Q 3525 4100 3525 3541 
Q 3525 3141 3298 2862 
Q 3072 2584 2669 2484 
Q 3125 2378 3379 2068 
Q 3634 1759 3634 1313 
Q 3634 634 3220 271 
Q 2806 -91 2034 -91 
Q 1263 -91 848 271 
Q 434 634 434 1313 
Q 434 1759 690 2068 
Q 947 2378 1403 2484 
z
M 1172 3481 
Q 1172 3119 1398 2916 
Q 1625 2713 2034 2713 
Q 2441 2713 2670 2916 
Q 2900 3119 2900 3481 
Q 2900 3844 2670 4047 
Q 2441 4250 2034 4250 
Q 1625 4250 1398 4047 
Q 1172 3844 1172 3481 
z
" transform="scale(0.015625)"/>
       </defs>
       <use xlink:href="#DejaVuSans-30"/>
       <use xlink:href="#DejaVuSans-2e" x="63.623047"/>
       <use xlink:href="#DejaVuSans-38" x="95.410156"/>
      </g>
     </g>
    </g>
    <g id="text_11">
     <!-- R-value -->
     <g transform="translate(18.737188 119.064687)rotate(-90)scale(0.1 -0.1)">
      <defs>
       <path id="DejaVuSans-52" d="M 2841 2188 
Q 3044 2119 3236 1894 
Q 3428 1669 3622 1275 
L 4263 0 
L 3584 0 
L 2988 1197 
Q 2756 1666 2539 1819 
Q 2322 1972 1947 1972 
L 1259 1972 
L 1259 0 
L 628 0 
L 628 4666 
L 2053 4666 
Q 2853 4666 3247 4331 
Q 3641 3997 3641 3322 
Q 3641 2881 3436 2590 
Q 3231 2300 2841 2188 
z
M 1259 4147 
L 1259 2491 
L 2053 2491 
Q 2509 2491 2742 2702 
Q 2975 2913 2975 3322 
Q 2975 3731 2742 3939 
Q 2509 4147 2053 4147 
L 1259 4147 
z
" transform="scale(0.015625)"/>
       <path id="DejaVuSans-2d" d="M 313 2009 
L 1997 2009 
L 1997 1497 
L 313 1497 
L 313 2009 
z
" transform="scale(0.015625)"/>
       <path id="DejaVuSans-76" d="M 191 3500 
L 800 3500 
L 1894 563 
L 2988 3500 
L 3597 3500 
L 2284 0 
L 1503 0 
L 191 3500 
z
" transform="scale(0.015625)"/>
      </defs>
      <use xlink:href="#DejaVuSans-52"/>
      <use xlink:href="#DejaVuSans-2d" x="65.482422"/>
      <use xlink:href="#DejaVuSans-76" x="98.941406"/>
      <use xlink:href="#DejaVuSans-61" x="158.121094"/>
      <use xlink:href="#DejaVuSans-6c" x="219.400391"/>
      <use xlink:href="#DejaVuSans-75" x="247.183594"/>
      <use xlink:href="#DejaVuSans-65" x="310.5625"/>
     </g>
    </g>
   </g>
   <g id="line2d_10">
    <path d="M 47.72 34.433474 
L 59.167105 35.400631 
L 70.614211 38.512839 
L 82.061316 42.815501 
L 93.508421 48.593959 
L 104.955526 54.933726 
L 116.402632 62.358378 
L 127.849737 69.866537 
L 139.296842 77.142047 
L 150.743947 84.750004 
L 162.191053 92.052119 
L 173.638158 98.894933 
L 185.085263 105.718035 
L 196.532368 111.647594 
L 207.979474 117.785249 
L 219.426579 122.773392 
L 230.873684 127.973258 
L 242.320789 132.571524 
L 253.767895 137.270318 
L 265.215 141.221741 
" clip-path="url(#p124849a2c7)" style="fill: none; stroke: #1f77b4; stroke-width: 1.5; stroke-linecap: square"/>
   </g>
   <g id="line2d_11">
    <path d="M 47.72 34.439785 
L 59.167105 35.046995 
L 70.614211 36.648337 
L 82.061316 38.997417 
L 93.508421 42.378448 
L 104.955526 46.230053 
L 116.402632 51.148586 
L 127.849737 56.330852 
L 139.296842 61.666062 
L 150.743947 67.759602 
L 162.191053 73.925804 
L 173.638158 80.127643 
L 185.085263 86.561408 
L 196.532368 92.320209 
L 207.979474 98.492129 
L 219.426579 103.712274 
L 230.873684 109.233155 
L 242.320789 114.212938 
L 253.767895 119.335207 
L 265.215 123.888001 
" clip-path="url(#p124849a2c7)" style="fill: none; stroke: #ff7f0e; stroke-width: 1.5; stroke-linecap: square"/>
   </g>
   <g id="line2d_12">
    <path d="M 47.72 34.433896 
L 59.167105 35.173033 
L 70.614211 36.690386 
L 82.061316 38.648839 
L 93.508421 41.230941 
L 104.955526 44.244414 
L 116.402632 47.786178 
L 127.849737 51.412145 
L 139.296842 54.952079 
L 150.743947 58.866328 
L 162.191053 62.717479 
L 173.638158 66.356851 
L 185.085263 70.121309 
L 196.532368 73.711438 
L 207.979474 77.542083 
L 219.426579 80.664122 
L 230.873684 84.275395 
L 242.320789 87.481964 
L 253.767895 90.71777 
L 265.215 93.754722 
" clip-path="url(#p124849a2c7)" style="fill: none; stroke: #2ca02c; stroke-width: 1.5; stroke-linecap: square"/>
   </g>
   <g id="line2d_13">
    <path d="M 47.72 34.444916 
L 59.167105 35.018126 
L 70.614211 36.119069 
L 82.061316 37.594292 
L 93.508421 39.642154 
L 104.955526 42.061411 
L 116.402632 45.15474 
L 127.849737 48.37438 
L 139.296842 51.69793 
L 150.743947 55.543647 
L 162.191053 59.375095 
L 173.638158 63.155221 
L 185.085263 67.039354 
L 196.532368 70.717799 
L 207.979474 74.714821 
L 219.426579 77.954254 
L 230.873684 81.725878 
L 242.320789 85.103606 
L 253.767895 88.441556 
L 265.215 91.643648 
" clip-path="url(#p124849a2c7)" style="fill: none; stroke: #d62728; stroke-width: 1.5; stroke-linecap: square"/>
   </g>
   <g id="line2d_14">
    <path d="M 47.72 34.44968 
L 59.167105 35.424413 
L 70.614211 38.554127 
L 82.061316 42.845899 
L 93.508421 48.648483 
L 104.955526 54.904579 
L 116.402632 62.389782 
L 127.849737 69.965413 
L 139.296842 77.131343 
L 150.743947 84.902204 
L 162.191053 92.383097 
L 173.638158 99.004248 
L 185.085263 105.880076 
L 196.532368 112.029045 
L 207.979474 117.635422 
L 219.426579 122.968957 
L 230.873684 128.405944 
L 242.320789 132.859347 
L 253.767895 137.608605 
L 265.215 141.78947 
" clip-path="url(#p124849a2c7)" style="fill: none; stroke: #9467bd; stroke-width: 1.5; stroke-linecap: square"/>
   </g>
   <g id="line2d_15">
    <path d="M 47.72 34.45661 
L 59.167105 35.066707 
L 70.614211 36.676319 
L 82.061316 39.021355 
L 93.508421 42.399116 
L 104.955526 46.25325 
L 116.402632 51.158356 
L 127.849737 56.410352 
L 139.296842 61.727679 
L 150.743947 67.793343 
L 162.191053 74.082324 
L 173.638158 80.208518 
L 185.085263 86.642684 
L 196.532368 92.639875 
L 207.979474 98.430053 
L 219.426579 103.775909 
L 230.873684 109.529622 
L 242.320789 114.418019 
L 253.767895 119.67646 
L 265.215 124.265685 
" clip-path="url(#p124849a2c7)" style="fill: none; stroke: #8c564b; stroke-width: 1.5; stroke-linecap: square"/>
   </g>
   <g id="line2d_16">
    <path d="M 47.72 49.797645 
L 59.167105 51.151659 
L 70.614211 54.882633 
L 82.061316 60.364465 
L 93.508421 67.372271 
L 104.955526 75.033759 
L 116.402632 83.496995 
L 127.849737 92.077032 
L 139.296842 100.000466 
L 150.743947 108.170357 
L 162.191053 116.046657 
L 173.638158 123.127082 
L 185.085263 129.854747 
L 196.532368 135.721204 
L 207.979474 141.231231 
L 219.426579 145.729702 
L 230.873684 149.843059 
L 242.320789 153.619749 
L 253.767895 157.098951 
L 265.215 160.052776 
" clip-path="url(#p124849a2c7)" style="fill: none; stroke: #e377c2; stroke-width: 1.5; stroke-linecap: square"/>
   </g>
   <g id="line2d_17">
    <path d="M 47.72 34.449597 
L 59.167105 34.686726 
L 70.614211 34.925583 
L 82.061316 35.534516 
L 93.508421 36.941946 
L 104.955526 38.980043 
L 116.402632 42.31293 
L 127.849737 46.249224 
L 139.296842 50.740426 
L 150.743947 56.181537 
L 162.191053 62.123568 
L 173.638158 68.096326 
L 185.085263 74.772888 
L 196.532368 80.716253 
L 207.979474 87.38419 
L 219.426579 92.945318 
L 230.873684 99.06852 
L 242.320789 104.431567 
L 253.767895 109.861792 
L 265.215 114.943472 
" clip-path="url(#p124849a2c7)" style="fill: none; stroke: #7f7f7f; stroke-width: 1.5; stroke-linecap: square"/>
   </g>
   <g id="patch_3">
    <path d="M 47.72 174.04 
L 47.72 26.88 
" style="fill: none; stroke: #000000; stroke-width: 0.8; stroke-linejoin: miter; stroke-linecap: square"/>
   </g>
   <g id="patch_4">
    <path d="M 47.72 174.04 
L 265.215 174.04 
" style="fill: none; stroke: #000000; stroke-width: 0.8; stroke-linejoin: miter; stroke-linecap: square"/>
   </g>
   <g id="text_12">
    <!-- Node * surprisal -->
    <g transform="translate(108.18625 20.88)scale(0.12 -0.12)">
     <defs>
      <path id="DejaVuSans-4e" d="M 628 4666 
L 1478 4666 
L 3547 763 
L 3547 4666 
L 4159 4666 
L 4159 0 
L 3309 0 
L 1241 3903 
L 1241 0 
L 628 0 
L 628 4666 
z
" transform="scale(0.015625)"/>
      <path id="DejaVuSans-64" d="M 2906 2969 
L 2906 4863 
L 3481 4863 
L 3481 0 
L 2906 0 
L 2906 525 
Q 2725 213 2448 61 
Q 2172 -91 1784 -91 
Q 1150 -91 751 415 
Q 353 922 353 1747 
Q 353 2572 751 3078 
Q 1150 3584 1784 3584 
Q 2172 3584 2448 3432 
Q 2725 3281 2906 2969 
z
M 947 1747 
Q 947 1113 1208 752 
Q 1469 391 1925 391 
Q 2381 391 2643 752 
Q 2906 1113 2906 1747 
Q 2906 2381 2643 2742 
Q 2381 3103 1925 3103 
Q 1469 3103 1208 2742 
Q 947 2381 947 1747 
z
" transform="scale(0.015625)"/>
      <path id="DejaVuSans-2a" d="M 3009 3897 
L 1888 3291 
L 3009 2681 
L 2828 2375 
L 1778 3009 
L 1778 1831 
L 1422 1831 
L 1422 3009 
L 372 2375 
L 191 2681 
L 1313 3291 
L 191 3897 
L 372 4206 
L 1422 3572 
L 1422 4750 
L 1778 4750 
L 1778 3572 
L 2828 4206 
L 3009 3897 
z
" transform="scale(0.015625)"/>
     </defs>
     <use xlink:href="#DejaVuSans-4e"/>
     <use xlink:href="#DejaVuSans-6f" x="74.804688"/>
     <use xlink:href="#DejaVuSans-64" x="135.986328"/>
     <use xlink:href="#DejaVuSans-65" x="199.462891"/>
     <use xlink:href="#DejaVuSans-20" x="260.986328"/>
     <use xlink:href="#DejaVuSans-2a" x="292.773438"/>
     <use xlink:href="#DejaVuSans-20" x="342.773438"/>
     <use xlink:href="#DejaVuSans-73" x="374.560547"/>
     <use xlink:href="#DejaVuSans-75" x="426.660156"/>
     <use xlink:href="#DejaVuSans-72" x="490.039062"/>
     <use xlink:href="#DejaVuSans-70" x="531.152344"/>
     <use xlink:href="#DejaVuSans-72" x="594.628906"/>
     <use xlink:href="#DejaVuSans-69" x="635.742188"/>
     <use xlink:href="#DejaVuSans-73" x="663.525391"/>
     <use xlink:href="#DejaVuSans-61" x="715.625"/>
     <use xlink:href="#DejaVuSans-6c" x="776.904297"/>
    </g>
   </g>
  </g>
  <g id="axes_2">
   <g id="patch_5">
    <path d="M 298.065 174.04 
L 515.56 174.04 
L 515.56 26.88 
L 298.065 26.88 
z
" style="fill: #ffffff"/>
   </g>
   <g id="PolyCollection_9">
    <path d="M 298.065 33.569091 
L 298.065 35.222395 
L 309.512105 35.879078 
L 320.959211 39.195174 
L 332.406316 43.5301 
L 343.853421 49.511747 
L 355.300526 56.612104 
L 366.747632 64.606487 
L 378.194737 73.408753 
L 389.641842 81.660982 
L 401.088947 90.643289 
L 412.536053 99.755267 
L 423.983158 108.339411 
L 435.430263 116.013688 
L 446.877368 123.874783 
L 458.324474 130.526441 
L 469.771579 136.547119 
L 481.218684 142.653702 
L 492.665789 147.18798 
L 504.112895 151.667006 
L 515.56 156.406244 
L 515.56 132.91994 
L 515.56 132.91994 
L 504.112895 127.970174 
L 492.665789 122.498454 
L 481.218684 118.072473 
L 469.771579 111.592381 
L 458.324474 105.805294 
L 446.877368 99.622923 
L 435.430263 93.488496 
L 423.983158 86.864636 
L 412.536053 79.874595 
L 401.088947 73.526112 
L 389.641842 66.668771 
L 378.194737 60.715945 
L 366.747632 54.270503 
L 355.300526 48.883918 
L 343.853421 44.434968 
L 332.406316 40.116493 
L 320.959211 37.01643 
L 309.512105 34.564518 
L 298.065 33.569091 
z
" clip-path="url(#pa22c314a27)" style="fill: #1f77b4; fill-opacity: 0.4"/>
   </g>
   <g id="PolyCollection_10">
    <path d="M 298.065 33.576214 
L 298.065 35.24222 
L 309.512105 35.914833 
L 320.959211 39.212148 
L 332.406316 43.557617 
L 343.853421 49.563903 
L 355.300526 56.629926 
L 366.747632 64.648254 
L 378.194737 73.429463 
L 389.641842 81.671702 
L 401.088947 90.665538 
L 412.536053 99.780974 
L 423.983158 108.344349 
L 435.430263 116.066657 
L 446.877368 123.903782 
L 458.324474 130.554033 
L 469.771579 136.571494 
L 481.218684 142.717573 
L 492.665789 147.16047 
L 504.112895 151.654014 
L 515.56 156.36717 
L 515.56 133.330219 
L 515.56 133.330219 
L 504.112895 128.309622 
L 492.665789 122.834313 
L 481.218684 118.40346 
L 469.771579 111.893214 
L 458.324474 106.09447 
L 446.877368 99.915439 
L 435.430263 93.750697 
L 423.983158 87.130817 
L 412.536053 80.088982 
L 401.088947 73.702374 
L 389.641842 66.802341 
L 378.194737 60.802559 
L 366.747632 54.341799 
L 355.300526 48.939143 
L 343.853421 44.461997 
L 332.406316 40.132625 
L 320.959211 37.023272 
L 309.512105 34.587998 
L 298.065 33.576214 
z
" clip-path="url(#pa22c314a27)" style="fill: #ff7f0e; fill-opacity: 0.4"/>
   </g>
   <g id="PolyCollection_11">
    <path d="M 298.065 33.584863 
L 298.065 35.227747 
L 309.512105 35.889647 
L 320.959211 39.207654 
L 332.406316 43.567709 
L 343.853421 49.563237 
L 355.300526 56.67791 
L 366.747632 64.664936 
L 378.194737 73.46643 
L 389.641842 81.758217 
L 401.088947 90.712899 
L 412.536053 99.813673 
L 423.983158 108.383718 
L 435.430263 116.056652 
L 446.877368 123.859586 
L 458.324474 130.448752 
L 469.771579 136.413967 
L 481.218684 142.528481 
L 492.665789 147.035675 
L 504.112895 151.49172 
L 515.56 156.274291 
L 515.56 133.29069 
L 515.56 133.29069 
L 504.112895 128.272245 
L 492.665789 122.712173 
L 481.218684 118.293847 
L 469.771579 111.835907 
L 458.324474 106.074626 
L 446.877368 99.842744 
L 435.430263 93.766937 
L 423.983158 87.113932 
L 412.536053 80.106339 
L 401.088947 73.741979 
L 389.641842 66.861375 
L 378.194737 60.85079 
L 366.747632 54.381051 
L 355.300526 48.983387 
L 343.853421 44.487803 
L 332.406316 40.156676 
L 320.959211 37.042707 
L 309.512105 34.595642 
L 298.065 33.584863 
z
" clip-path="url(#pa22c314a27)" style="fill: #2ca02c; fill-opacity: 0.4"/>
   </g>
   <g id="PolyCollection_12">
    <path d="M 298.065 33.595107 
L 298.065 35.25041 
L 309.512105 35.921628 
L 320.959211 39.21812 
L 332.406316 43.57429 
L 343.853421 49.587226 
L 355.300526 56.684044 
L 366.747632 64.699358 
L 378.194737 73.487975 
L 389.641842 81.767367 
L 401.088947 90.742513 
L 412.536053 99.827635 
L 423.983158 108.388693 
L 435.430263 116.114693 
L 446.877368 123.921236 
L 458.324474 130.563801 
L 469.771579 136.537751 
L 481.218684 142.636543 
L 492.665789 147.113736 
L 504.112895 151.607818 
L 515.56 156.332703 
L 515.56 133.253067 
L 515.56 133.253067 
L 504.112895 128.241007 
L 492.665789 122.719731 
L 481.218684 118.357127 
L 469.771579 111.883164 
L 458.324474 106.176338 
L 446.877368 99.982625 
L 435.430263 93.901016 
L 423.983158 87.253441 
L 412.536053 80.215914 
L 401.088947 73.852622 
L 389.641842 66.928061 
L 378.194737 60.896253 
L 366.747632 54.42699 
L 355.300526 49.031612 
L 343.853421 44.504132 
L 332.406316 40.173644 
L 320.959211 37.056313 
L 309.512105 34.606969 
L 298.065 33.595107 
z
" clip-path="url(#pa22c314a27)" style="fill: #d62728; fill-opacity: 0.4"/>
   </g>
   <g id="PolyCollection_13">
    <path d="M 298.065 33.581944 
L 298.065 35.237001 
L 309.512105 35.914094 
L 320.959211 39.194664 
L 332.406316 43.580829 
L 343.853421 49.523998 
L 355.300526 56.581157 
L 366.747632 64.681856 
L 378.194737 73.473322 
L 389.641842 81.822815 
L 401.088947 91.049038 
L 412.536053 100.286024 
L 423.983158 108.778997 
L 435.430263 116.473759 
L 446.877368 124.28666 
L 458.324474 130.64798 
L 469.771579 136.513906 
L 481.218684 143.205532 
L 492.665789 147.065216 
L 504.112895 152.124266 
L 515.56 157.357687 
L 515.56 133.286361 
L 515.56 133.286361 
L 504.112895 128.252445 
L 492.665789 122.643787 
L 481.218684 119.045538 
L 469.771579 112.216955 
L 458.324474 105.981853 
L 446.877368 100.285414 
L 435.430263 94.105383 
L 423.983158 87.672195 
L 412.536053 80.362629 
L 401.088947 73.763692 
L 389.641842 66.625967 
L 378.194737 60.73959 
L 366.747632 54.352835 
L 355.300526 48.951924 
L 343.853421 44.449868 
L 332.406316 40.183869 
L 320.959211 37.03725 
L 309.512105 34.571802 
L 298.065 33.581944 
z
" clip-path="url(#pa22c314a27)" style="fill: #9467bd; fill-opacity: 0.4"/>
   </g>
   <g id="PolyCollection_14">
    <path d="M 298.065 33.589661 
L 298.065 35.257128 
L 309.512105 35.95035 
L 320.959211 39.211232 
L 332.406316 43.608575 
L 343.853421 49.574801 
L 355.300526 56.595851 
L 366.747632 64.726532 
L 378.194737 73.491462 
L 389.641842 81.828297 
L 401.088947 91.070917 
L 412.536053 100.308052 
L 423.983158 108.784472 
L 435.430263 116.524009 
L 446.877368 124.29501 
L 458.324474 130.678867 
L 469.771579 136.541941 
L 481.218684 143.261057 
L 492.665789 147.028928 
L 504.112895 152.105056 
L 515.56 157.359449 
L 515.56 133.666757 
L 515.56 133.666757 
L 504.112895 128.57944 
L 492.665789 122.971936 
L 481.218684 119.359591 
L 469.771579 112.514841 
L 458.324474 106.270866 
L 446.877368 100.588273 
L 435.430263 94.371074 
L 423.983158 87.940523 
L 412.536053 80.560538 
L 401.088947 73.935301 
L 389.641842 66.762359 
L 378.194737 60.829012 
L 366.747632 54.422464 
L 355.300526 49.009693 
L 343.853421 44.479765 
L 332.406316 40.200578 
L 320.959211 37.045447 
L 309.512105 34.594953 
L 298.065 33.589661 
z
" clip-path="url(#pa22c314a27)" style="fill: #8c564b; fill-opacity: 0.4"/>
   </g>
   <g id="PolyCollection_15">
    <path d="M 298.065 46.847974 
L 298.065 52.652794 
L 309.512105 53.207289 
L 320.959211 55.918783 
L 332.406316 59.6564 
L 343.853421 64.792032 
L 355.300526 71.032142 
L 366.747632 78.239129 
L 378.194737 85.973298 
L 389.641842 93.563323 
L 401.088947 101.813439 
L 412.536053 110.210207 
L 423.983158 117.859271 
L 435.430263 124.990076 
L 446.877368 131.944101 
L 458.324474 138.078144 
L 469.771579 143.370103 
L 481.218684 148.995554 
L 492.665789 153.073318 
L 504.112895 156.844899 
L 515.56 161.333101 
L 515.56 138.656744 
L 515.56 138.656744 
L 504.112895 134.231756 
L 492.665789 129.075362 
L 481.218684 125.179789 
L 469.771579 119.31217 
L 458.324474 113.952258 
L 446.877368 108.341839 
L 435.430263 102.615059 
L 423.983158 96.462942 
L 412.536053 90.093815 
L 401.088947 84.05414 
L 389.641842 77.799431 
L 378.194737 72.244302 
L 366.747632 66.291599 
L 355.300526 61.346631 
L 343.853421 57.119538 
L 332.406316 52.965869 
L 320.959211 50.106854 
L 309.512105 47.719394 
L 298.065 46.847974 
z
" clip-path="url(#pa22c314a27)" style="fill: #e377c2; fill-opacity: 0.4"/>
   </g>
   <g id="PolyCollection_16">
    <path d="M 298.065 33.584785 
L 298.065 35.262239 
L 309.512105 35.929827 
L 320.959211 39.264569 
L 332.406316 43.619733 
L 343.853421 49.667193 
L 355.300526 56.734678 
L 366.747632 64.77757 
L 378.194737 73.54759 
L 389.641842 81.843318 
L 401.088947 90.847449 
L 412.536053 99.989659 
L 423.983158 108.602329 
L 435.430263 116.297302 
L 446.877368 124.249513 
L 458.324474 130.814396 
L 469.771579 136.821486 
L 481.218684 142.961181 
L 492.665789 147.39832 
L 504.112895 151.717547 
L 515.56 156.465167 
L 515.56 133.741749 
L 515.56 133.741749 
L 504.112895 128.693797 
L 492.665789 123.102113 
L 481.218684 118.682663 
L 469.771579 112.153982 
L 458.324474 106.440466 
L 446.877368 100.238333 
L 435.430263 94.08699 
L 423.983158 87.428359 
L 412.536053 80.417144 
L 401.088947 73.967094 
L 389.641842 67.047682 
L 378.194737 60.988975 
L 366.747632 54.456601 
L 355.300526 49.004333 
L 343.853421 44.494142 
L 332.406316 40.162722 
L 320.959211 37.042908 
L 309.512105 34.60598 
L 298.065 33.584785 
z
" clip-path="url(#pa22c314a27)" style="fill: #7f7f7f; fill-opacity: 0.4"/>
   </g>
   <g id="matplotlib.axis_3">
    <g id="xtick_6">
     <g id="line2d_18">
      <g>
       <use xlink:href="#me34dd29f8d" x="298.065" y="174.04" style="stroke: #000000; stroke-width: 0.8"/>
      </g>
     </g>
     <g id="text_13">
      <!-- 0.0 -->
      <g transform="translate(290.113437 188.638438)scale(0.1 -0.1)">
       <use xlink:href="#DejaVuSans-30"/>
       <use xlink:href="#DejaVuSans-2e" x="63.623047"/>
       <use xlink:href="#DejaVuSans-30" x="95.410156"/>
      </g>
     </g>
    </g>
    <g id="xtick_7">
     <g id="line2d_19">
      <g>
       <use xlink:href="#me34dd29f8d" x="352.43875" y="174.04" style="stroke: #000000; stroke-width: 0.8"/>
      </g>
     </g>
     <g id="text_14">
      <!-- 0.5 -->
      <g transform="translate(344.487187 188.638438)scale(0.1 -0.1)">
       <use xlink:href="#DejaVuSans-30"/>
       <use xlink:href="#DejaVuSans-2e" x="63.623047"/>
       <use xlink:href="#DejaVuSans-35" x="95.410156"/>
      </g>
     </g>
    </g>
    <g id="xtick_8">
     <g id="line2d_20">
      <g>
       <use xlink:href="#me34dd29f8d" x="406.8125" y="174.04" style="stroke: #000000; stroke-width: 0.8"/>
      </g>
     </g>
     <g id="text_15">
      <!-- 1.0 -->
      <g transform="translate(398.860937 188.638438)scale(0.1 -0.1)">
       <use xlink:href="#DejaVuSans-31"/>
       <use xlink:href="#DejaVuSans-2e" x="63.623047"/>
       <use xlink:href="#DejaVuSans-30" x="95.410156"/>
      </g>
     </g>
    </g>
    <g id="xtick_9">
     <g id="line2d_21">
      <g>
       <use xlink:href="#me34dd29f8d" x="461.18625" y="174.04" style="stroke: #000000; stroke-width: 0.8"/>
      </g>
     </g>
     <g id="text_16">
      <!-- 1.5 -->
      <g transform="translate(453.234687 188.638438)scale(0.1 -0.1)">
       <use xlink:href="#DejaVuSans-31"/>
       <use xlink:href="#DejaVuSans-2e" x="63.623047"/>
       <use xlink:href="#DejaVuSans-35" x="95.410156"/>
      </g>
     </g>
    </g>
    <g id="xtick_10">
     <g id="line2d_22">
      <g>
       <use xlink:href="#me34dd29f8d" x="515.56" y="174.04" style="stroke: #000000; stroke-width: 0.8"/>
      </g>
     </g>
     <g id="text_17">
      <!-- 2.0 -->
      <g transform="translate(507.608437 188.638438)scale(0.1 -0.1)">
       <use xlink:href="#DejaVuSans-32"/>
       <use xlink:href="#DejaVuSans-2e" x="63.623047"/>
       <use xlink:href="#DejaVuSans-30" x="95.410156"/>
      </g>
     </g>
    </g>
    <g id="text_18">
     <!-- Influence of surprisal (multiplication) -->
     <g transform="translate(314.665625 202.316563)scale(0.1 -0.1)">
      <use xlink:href="#DejaVuSans-49"/>
      <use xlink:href="#DejaVuSans-6e" x="29.492188"/>
      <use xlink:href="#DejaVuSans-66" x="92.871094"/>
      <use xlink:href="#DejaVuSans-6c" x="128.076172"/>
      <use xlink:href="#DejaVuSans-75" x="155.859375"/>
      <use xlink:href="#DejaVuSans-65" x="219.238281"/>
      <use xlink:href="#DejaVuSans-6e" x="280.761719"/>
      <use xlink:href="#DejaVuSans-63" x="344.140625"/>
      <use xlink:href="#DejaVuSans-65" x="399.121094"/>
      <use xlink:href="#DejaVuSans-20" x="460.644531"/>
      <use xlink:href="#DejaVuSans-6f" x="492.431641"/>
      <use xlink:href="#DejaVuSans-66" x="553.613281"/>
      <use xlink:href="#DejaVuSans-20" x="588.818359"/>
      <use xlink:href="#DejaVuSans-73" x="620.605469"/>
      <use xlink:href="#DejaVuSans-75" x="672.705078"/>
      <use xlink:href="#DejaVuSans-72" x="736.083984"/>
      <use xlink:href="#DejaVuSans-70" x="777.197266"/>
      <use xlink:href="#DejaVuSans-72" x="840.673828"/>
      <use xlink:href="#DejaVuSans-69" x="881.787109"/>
      <use xlink:href="#DejaVuSans-73" x="909.570312"/>
      <use xlink:href="#DejaVuSans-61" x="961.669922"/>
      <use xlink:href="#DejaVuSans-6c" x="1022.949219"/>
      <use xlink:href="#DejaVuSans-20" x="1050.732422"/>
      <use xlink:href="#DejaVuSans-28" x="1082.519531"/>
      <use xlink:href="#DejaVuSans-6d" x="1121.533203"/>
      <use xlink:href="#DejaVuSans-75" x="1218.945312"/>
      <use xlink:href="#DejaVuSans-6c" x="1282.324219"/>
      <use xlink:href="#DejaVuSans-74" x="1310.107422"/>
      <use xlink:href="#DejaVuSans-69" x="1349.316406"/>
      <use xlink:href="#DejaVuSans-70" x="1377.099609"/>
      <use xlink:href="#DejaVuSans-6c" x="1440.576172"/>
      <use xlink:href="#DejaVuSans-69" x="1468.359375"/>
      <use xlink:href="#DejaVuSans-63" x="1496.142578"/>
      <use xlink:href="#DejaVuSans-61" x="1551.123047"/>
      <use xlink:href="#DejaVuSans-74" x="1612.402344"/>
      <use xlink:href="#DejaVuSans-69" x="1651.611328"/>
      <use xlink:href="#DejaVuSans-6f" x="1679.394531"/>
      <use xlink:href="#DejaVuSans-6e" x="1740.576172"/>
      <use xlink:href="#DejaVuSans-29" x="1803.955078"/>
     </g>
    </g>
   </g>
   <g id="line2d_23">
    <path d="M 298.065 34.395743 
L 309.512105 35.221798 
L 320.959211 38.105802 
L 332.406316 41.823296 
L 343.853421 46.973358 
L 355.300526 52.748011 
L 366.747632 59.438495 
L 378.194737 67.062349 
L 389.641842 74.164877 
L 401.088947 82.084701 
L 412.536053 89.814931 
L 423.983158 97.602023 
L 435.430263 104.751092 
L 446.877368 111.748853 
L 458.324474 118.165867 
L 469.771579 124.06975 
L 481.218684 130.363088 
L 492.665789 134.843217 
L 504.112895 139.81859 
L 515.56 144.663092 
" clip-path="url(#pa22c314a27)" style="fill: none; stroke: #1f77b4; stroke-width: 1.5; stroke-linecap: square"/>
   </g>
   <g id="line2d_24">
    <path d="M 298.065 34.409217 
L 309.512105 35.251415 
L 320.959211 38.11771 
L 332.406316 41.845121 
L 343.853421 47.01295 
L 355.300526 52.784534 
L 366.747632 59.495027 
L 378.194737 67.116011 
L 389.641842 74.237022 
L 401.088947 82.183956 
L 412.536053 89.934978 
L 423.983158 97.737583 
L 435.430263 104.908677 
L 446.877368 111.90961 
L 458.324474 118.324251 
L 469.771579 124.232354 
L 481.218684 130.560516 
L 492.665789 134.997392 
L 504.112895 139.981818 
L 515.56 144.848694 
" clip-path="url(#pa22c314a27)" style="fill: none; stroke: #ff7f0e; stroke-width: 1.5; stroke-linecap: square"/>
   </g>
   <g id="line2d_25">
    <path d="M 298.065 34.406305 
L 309.512105 35.242645 
L 320.959211 38.125181 
L 332.406316 41.862193 
L 343.853421 47.02552 
L 355.300526 52.830648 
L 366.747632 59.522993 
L 378.194737 67.15861 
L 389.641842 74.309796 
L 401.088947 82.227439 
L 412.536053 89.960006 
L 423.983158 97.748825 
L 435.430263 104.911795 
L 446.877368 111.851165 
L 458.324474 118.261689 
L 469.771579 124.124937 
L 481.218684 130.411164 
L 492.665789 134.873924 
L 504.112895 139.881983 
L 515.56 144.782491 
" clip-path="url(#pa22c314a27)" style="fill: none; stroke: #2ca02c; stroke-width: 1.5; stroke-linecap: square"/>
   </g>
   <g id="line2d_26">
    <path d="M 298.065 34.422759 
L 309.512105 35.264298 
L 320.959211 38.137217 
L 332.406316 41.873967 
L 343.853421 47.045679 
L 355.300526 52.857828 
L 366.747632 59.563174 
L 378.194737 67.192114 
L 389.641842 74.347714 
L 401.088947 82.297568 
L 412.536053 90.021775 
L 423.983158 97.821067 
L 435.430263 105.007855 
L 446.877368 111.95193 
L 458.324474 118.370069 
L 469.771579 124.210457 
L 481.218684 130.496835 
L 492.665789 134.916734 
L 504.112895 139.924412 
L 515.56 144.792885 
" clip-path="url(#pa22c314a27)" style="fill: none; stroke: #d62728; stroke-width: 1.5; stroke-linecap: square"/>
   </g>
   <g id="line2d_27">
    <path d="M 298.065 34.409473 
L 309.512105 35.242948 
L 320.959211 38.115957 
L 332.406316 41.882349 
L 343.853421 46.986933 
L 355.300526 52.76654 
L 366.747632 59.517346 
L 378.194737 67.106456 
L 389.641842 74.224391 
L 401.088947 82.406365 
L 412.536053 90.324327 
L 423.983158 98.225596 
L 435.430263 105.289571 
L 446.877368 112.286037 
L 458.324474 118.314917 
L 469.771579 124.365431 
L 481.218684 131.125535 
L 492.665789 134.854501 
L 504.112895 140.188355 
L 515.56 145.322024 
" clip-path="url(#pa22c314a27)" style="fill: none; stroke: #9467bd; stroke-width: 1.5; stroke-linecap: square"/>
   </g>
   <g id="line2d_28">
    <path d="M 298.065 34.423394 
L 309.512105 35.272651 
L 320.959211 38.12834 
L 332.406316 41.904577 
L 343.853421 47.027283 
L 355.300526 52.802772 
L 366.747632 59.574498 
L 378.194737 67.160237 
L 389.641842 74.295328 
L 401.088947 82.503109 
L 412.536053 90.434295 
L 423.983158 98.362497 
L 435.430263 105.447541 
L 446.877368 112.441641 
L 458.324474 118.474866 
L 469.771579 124.528391 
L 481.218684 131.310324 
L 492.665789 135.000432 
L 504.112895 140.342248 
L 515.56 145.513103 
" clip-path="url(#pa22c314a27)" style="fill: none; stroke: #8c564b; stroke-width: 1.5; stroke-linecap: square"/>
   </g>
   <g id="line2d_29">
    <path d="M 298.065 49.750384 
L 309.512105 50.463341 
L 320.959211 53.012819 
L 332.406316 56.311135 
L 343.853421 60.955785 
L 355.300526 66.189386 
L 366.747632 72.265364 
L 378.194737 79.1088 
L 389.641842 85.681377 
L 401.088947 92.933789 
L 412.536053 100.152011 
L 423.983158 107.161106 
L 435.430263 113.802568 
L 446.877368 120.14297 
L 458.324474 126.015201 
L 469.771579 131.341136 
L 481.218684 137.087672 
L 492.665789 141.07434 
L 504.112895 145.538328 
L 515.56 149.994923 
" clip-path="url(#pa22c314a27)" style="fill: none; stroke: #e377c2; stroke-width: 1.5; stroke-linecap: square"/>
   </g>
   <g id="line2d_30">
    <path d="M 298.065 34.423512 
L 309.512105 35.267904 
L 320.959211 38.153738 
L 332.406316 41.891228 
L 343.853421 47.080667 
L 355.300526 52.869506 
L 366.747632 59.617085 
L 378.194737 67.268282 
L 389.641842 74.4455 
L 401.088947 82.407272 
L 412.536053 90.203402 
L 423.983158 98.015344 
L 435.430263 105.192146 
L 446.877368 112.243923 
L 458.324474 118.627431 
L 469.771579 124.487734 
L 481.218684 130.821922 
L 492.665789 135.250217 
L 504.112895 140.205672 
L 515.56 145.103458 
" clip-path="url(#pa22c314a27)" style="fill: none; stroke: #7f7f7f; stroke-width: 1.5; stroke-linecap: square"/>
   </g>
   <g id="patch_6">
    <path d="M 298.065 174.04 
L 298.065 26.88 
" style="fill: none; stroke: #000000; stroke-width: 0.8; stroke-linejoin: miter; stroke-linecap: square"/>
   </g>
   <g id="patch_7">
    <path d="M 298.065 174.04 
L 515.56 174.04 
" style="fill: none; stroke: #000000; stroke-width: 0.8; stroke-linejoin: miter; stroke-linecap: square"/>
   </g>
   <g id="text_19">
    <!-- Node * third variable -->
    <g transform="translate(344.2325 20.88)scale(0.12 -0.12)">
     <defs>
      <path id="DejaVuSans-68" d="M 3513 2113 
L 3513 0 
L 2938 0 
L 2938 2094 
Q 2938 2591 2744 2837 
Q 2550 3084 2163 3084 
Q 1697 3084 1428 2787 
Q 1159 2491 1159 1978 
L 1159 0 
L 581 0 
L 581 4863 
L 1159 4863 
L 1159 2956 
Q 1366 3272 1645 3428 
Q 1925 3584 2291 3584 
Q 2894 3584 3203 3211 
Q 3513 2838 3513 2113 
z
" transform="scale(0.015625)"/>
      <path id="DejaVuSans-62" d="M 3116 1747 
Q 3116 2381 2855 2742 
Q 2594 3103 2138 3103 
Q 1681 3103 1420 2742 
Q 1159 2381 1159 1747 
Q 1159 1113 1420 752 
Q 1681 391 2138 391 
Q 2594 391 2855 752 
Q 3116 1113 3116 1747 
z
M 1159 2969 
Q 1341 3281 1617 3432 
Q 1894 3584 2278 3584 
Q 2916 3584 3314 3078 
Q 3713 2572 3713 1747 
Q 3713 922 3314 415 
Q 2916 -91 2278 -91 
Q 1894 -91 1617 61 
Q 1341 213 1159 525 
L 1159 0 
L 581 0 
L 581 4863 
L 1159 4863 
L 1159 2969 
z
" transform="scale(0.015625)"/>
     </defs>
     <use xlink:href="#DejaVuSans-4e"/>
     <use xlink:href="#DejaVuSans-6f" x="74.804688"/>
     <use xlink:href="#DejaVuSans-64" x="135.986328"/>
     <use xlink:href="#DejaVuSans-65" x="199.462891"/>
     <use xlink:href="#DejaVuSans-20" x="260.986328"/>
     <use xlink:href="#DejaVuSans-2a" x="292.773438"/>
     <use xlink:href="#DejaVuSans-20" x="342.773438"/>
     <use xlink:href="#DejaVuSans-74" x="374.560547"/>
     <use xlink:href="#DejaVuSans-68" x="413.769531"/>
     <use xlink:href="#DejaVuSans-69" x="477.148438"/>
     <use xlink:href="#DejaVuSans-72" x="504.931641"/>
     <use xlink:href="#DejaVuSans-64" x="544.294922"/>
     <use xlink:href="#DejaVuSans-20" x="607.771484"/>
     <use xlink:href="#DejaVuSans-76" x="639.558594"/>
     <use xlink:href="#DejaVuSans-61" x="698.738281"/>
     <use xlink:href="#DejaVuSans-72" x="760.017578"/>
     <use xlink:href="#DejaVuSans-69" x="801.130859"/>
     <use xlink:href="#DejaVuSans-61" x="828.914062"/>
     <use xlink:href="#DejaVuSans-62" x="890.193359"/>
     <use xlink:href="#DejaVuSans-6c" x="953.669922"/>
     <use xlink:href="#DejaVuSans-65" x="981.453125"/>
    </g>
   </g>
   <g id="legend_1">
    <g id="line2d_31">
     <path d="M 524.56 39.978437 
L 534.56 39.978437 
L 544.56 39.978437 
" style="fill: none; stroke: #1f77b4; stroke-width: 1.5; stroke-linecap: square"/>
    </g>
    <g id="text_20">
     <!-- Node -->
     <g transform="translate(552.56 43.478437)scale(0.1 -0.1)">
      <use xlink:href="#DejaVuSans-4e"/>
      <use xlink:href="#DejaVuSans-6f" x="74.804688"/>
      <use xlink:href="#DejaVuSans-64" x="135.986328"/>
      <use xlink:href="#DejaVuSans-65" x="199.462891"/>
     </g>
    </g>
    <g id="line2d_32">
     <path d="M 524.56 54.656563 
L 534.56 54.656563 
L 544.56 54.656563 
" style="fill: none; stroke: #ff7f0e; stroke-width: 1.5; stroke-linecap: square"/>
    </g>
    <g id="text_21">
     <!-- Node + surprisal -->
     <g transform="translate(552.56 58.156563)scale(0.1 -0.1)">
      <defs>
       <path id="DejaVuSans-2b" d="M 2944 4013 
L 2944 2272 
L 4684 2272 
L 4684 1741 
L 2944 1741 
L 2944 0 
L 2419 0 
L 2419 1741 
L 678 1741 
L 678 2272 
L 2419 2272 
L 2419 4013 
L 2944 4013 
z
" transform="scale(0.015625)"/>
      </defs>
      <use xlink:href="#DejaVuSans-4e"/>
      <use xlink:href="#DejaVuSans-6f" x="74.804688"/>
      <use xlink:href="#DejaVuSans-64" x="135.986328"/>
      <use xlink:href="#DejaVuSans-65" x="199.462891"/>
      <use xlink:href="#DejaVuSans-20" x="260.986328"/>
      <use xlink:href="#DejaVuSans-2b" x="292.773438"/>
      <use xlink:href="#DejaVuSans-20" x="376.5625"/>
      <use xlink:href="#DejaVuSans-73" x="408.349609"/>
      <use xlink:href="#DejaVuSans-75" x="460.449219"/>
      <use xlink:href="#DejaVuSans-72" x="523.828125"/>
      <use xlink:href="#DejaVuSans-70" x="564.941406"/>
      <use xlink:href="#DejaVuSans-72" x="628.417969"/>
      <use xlink:href="#DejaVuSans-69" x="669.53125"/>
      <use xlink:href="#DejaVuSans-73" x="697.314453"/>
      <use xlink:href="#DejaVuSans-61" x="749.414062"/>
      <use xlink:href="#DejaVuSans-6c" x="810.693359"/>
     </g>
    </g>
    <g id="line2d_33">
     <path d="M 524.56 69.334687 
L 534.56 69.334687 
L 544.56 69.334687 
" style="fill: none; stroke: #2ca02c; stroke-width: 1.5; stroke-linecap: square"/>
    </g>
    <g id="text_22">
     <!-- Node split -->
     <g transform="translate(552.56 72.834687)scale(0.1 -0.1)">
      <use xlink:href="#DejaVuSans-4e"/>
      <use xlink:href="#DejaVuSans-6f" x="74.804688"/>
      <use xlink:href="#DejaVuSans-64" x="135.986328"/>
      <use xlink:href="#DejaVuSans-65" x="199.462891"/>
      <use xlink:href="#DejaVuSans-20" x="260.986328"/>
      <use xlink:href="#DejaVuSans-73" x="292.773438"/>
      <use xlink:href="#DejaVuSans-70" x="344.873047"/>
      <use xlink:href="#DejaVuSans-6c" x="408.349609"/>
      <use xlink:href="#DejaVuSans-69" x="436.132812"/>
      <use xlink:href="#DejaVuSans-74" x="463.916016"/>
     </g>
    </g>
    <g id="line2d_34">
     <path d="M 524.56 84.012812 
L 534.56 84.012812 
L 544.56 84.012812 
" style="fill: none; stroke: #d62728; stroke-width: 1.5; stroke-linecap: square"/>
    </g>
    <g id="text_23">
     <!-- Node split + surprisal -->
     <g transform="translate(552.56 87.512812)scale(0.1 -0.1)">
      <use xlink:href="#DejaVuSans-4e"/>
      <use xlink:href="#DejaVuSans-6f" x="74.804688"/>
      <use xlink:href="#DejaVuSans-64" x="135.986328"/>
      <use xlink:href="#DejaVuSans-65" x="199.462891"/>
      <use xlink:href="#DejaVuSans-20" x="260.986328"/>
      <use xlink:href="#DejaVuSans-73" x="292.773438"/>
      <use xlink:href="#DejaVuSans-70" x="344.873047"/>
      <use xlink:href="#DejaVuSans-6c" x="408.349609"/>
      <use xlink:href="#DejaVuSans-69" x="436.132812"/>
      <use xlink:href="#DejaVuSans-74" x="463.916016"/>
      <use xlink:href="#DejaVuSans-20" x="503.125"/>
      <use xlink:href="#DejaVuSans-2b" x="534.912109"/>
      <use xlink:href="#DejaVuSans-20" x="618.701172"/>
      <use xlink:href="#DejaVuSans-73" x="650.488281"/>
      <use xlink:href="#DejaVuSans-75" x="702.587891"/>
      <use xlink:href="#DejaVuSans-72" x="765.966797"/>
      <use xlink:href="#DejaVuSans-70" x="807.080078"/>
      <use xlink:href="#DejaVuSans-72" x="870.556641"/>
      <use xlink:href="#DejaVuSans-69" x="911.669922"/>
      <use xlink:href="#DejaVuSans-73" x="939.453125"/>
      <use xlink:href="#DejaVuSans-61" x="991.552734"/>
      <use xlink:href="#DejaVuSans-6c" x="1052.832031"/>
     </g>
    </g>
    <g id="line2d_35">
     <path d="M 524.56 98.690937 
L 534.56 98.690937 
L 544.56 98.690937 
" style="fill: none; stroke: #9467bd; stroke-width: 1.5; stroke-linecap: square"/>
    </g>
    <g id="text_24">
     <!-- Node random split -->
     <g transform="translate(552.56 102.190937)scale(0.1 -0.1)">
      <use xlink:href="#DejaVuSans-4e"/>
      <use xlink:href="#DejaVuSans-6f" x="74.804688"/>
      <use xlink:href="#DejaVuSans-64" x="135.986328"/>
      <use xlink:href="#DejaVuSans-65" x="199.462891"/>
      <use xlink:href="#DejaVuSans-20" x="260.986328"/>
      <use xlink:href="#DejaVuSans-72" x="292.773438"/>
      <use xlink:href="#DejaVuSans-61" x="333.886719"/>
      <use xlink:href="#DejaVuSans-6e" x="395.166016"/>
      <use xlink:href="#DejaVuSans-64" x="458.544922"/>
      <use xlink:href="#DejaVuSans-6f" x="522.021484"/>
      <use xlink:href="#DejaVuSans-6d" x="583.203125"/>
      <use xlink:href="#DejaVuSans-20" x="680.615234"/>
      <use xlink:href="#DejaVuSans-73" x="712.402344"/>
      <use xlink:href="#DejaVuSans-70" x="764.501953"/>
      <use xlink:href="#DejaVuSans-6c" x="827.978516"/>
      <use xlink:href="#DejaVuSans-69" x="855.761719"/>
      <use xlink:href="#DejaVuSans-74" x="883.544922"/>
     </g>
    </g>
    <g id="line2d_36">
     <path d="M 524.56 113.369062 
L 534.56 113.369062 
L 544.56 113.369062 
" style="fill: none; stroke: #8c564b; stroke-width: 1.5; stroke-linecap: square"/>
    </g>
    <g id="text_25">
     <!-- Node random split + surprisal -->
     <g transform="translate(552.56 116.869062)scale(0.1 -0.1)">
      <use xlink:href="#DejaVuSans-4e"/>
      <use xlink:href="#DejaVuSans-6f" x="74.804688"/>
      <use xlink:href="#DejaVuSans-64" x="135.986328"/>
      <use xlink:href="#DejaVuSans-65" x="199.462891"/>
      <use xlink:href="#DejaVuSans-20" x="260.986328"/>
      <use xlink:href="#DejaVuSans-72" x="292.773438"/>
      <use xlink:href="#DejaVuSans-61" x="333.886719"/>
      <use xlink:href="#DejaVuSans-6e" x="395.166016"/>
      <use xlink:href="#DejaVuSans-64" x="458.544922"/>
      <use xlink:href="#DejaVuSans-6f" x="522.021484"/>
      <use xlink:href="#DejaVuSans-6d" x="583.203125"/>
      <use xlink:href="#DejaVuSans-20" x="680.615234"/>
      <use xlink:href="#DejaVuSans-73" x="712.402344"/>
      <use xlink:href="#DejaVuSans-70" x="764.501953"/>
      <use xlink:href="#DejaVuSans-6c" x="827.978516"/>
      <use xlink:href="#DejaVuSans-69" x="855.761719"/>
      <use xlink:href="#DejaVuSans-74" x="883.544922"/>
      <use xlink:href="#DejaVuSans-20" x="922.753906"/>
      <use xlink:href="#DejaVuSans-2b" x="954.541016"/>
      <use xlink:href="#DejaVuSans-20" x="1038.330078"/>
      <use xlink:href="#DejaVuSans-73" x="1070.117188"/>
      <use xlink:href="#DejaVuSans-75" x="1122.216797"/>
      <use xlink:href="#DejaVuSans-72" x="1185.595703"/>
      <use xlink:href="#DejaVuSans-70" x="1226.708984"/>
      <use xlink:href="#DejaVuSans-72" x="1290.185547"/>
      <use xlink:href="#DejaVuSans-69" x="1331.298828"/>
      <use xlink:href="#DejaVuSans-73" x="1359.082031"/>
      <use xlink:href="#DejaVuSans-61" x="1411.181641"/>
      <use xlink:href="#DejaVuSans-6c" x="1472.460938"/>
     </g>
    </g>
    <g id="line2d_37">
     <path d="M 524.56 128.047187 
L 534.56 128.047187 
L 544.56 128.047187 
" style="fill: none; stroke: #e377c2; stroke-width: 1.5; stroke-linecap: square"/>
    </g>
    <g id="text_26">
     <!-- Interaction -->
     <g transform="translate(552.56 131.547187)scale(0.1 -0.1)">
      <use xlink:href="#DejaVuSans-49"/>
      <use xlink:href="#DejaVuSans-6e" x="29.492188"/>
      <use xlink:href="#DejaVuSans-74" x="92.871094"/>
      <use xlink:href="#DejaVuSans-65" x="132.080078"/>
      <use xlink:href="#DejaVuSans-72" x="193.603516"/>
      <use xlink:href="#DejaVuSans-61" x="234.716797"/>
      <use xlink:href="#DejaVuSans-63" x="295.996094"/>
      <use xlink:href="#DejaVuSans-74" x="350.976562"/>
      <use xlink:href="#DejaVuSans-69" x="390.185547"/>
      <use xlink:href="#DejaVuSans-6f" x="417.96875"/>
      <use xlink:href="#DejaVuSans-6e" x="479.150391"/>
     </g>
    </g>
    <g id="line2d_38">
     <path d="M 524.56 142.725312 
L 534.56 142.725312 
L 544.56 142.725312 
" style="fill: none; stroke: #7f7f7f; stroke-width: 1.5; stroke-linecap: square"/>
    </g>
    <g id="text_27">
     <!-- Node + surprisal + interaction -->
     <g transform="translate(552.56 146.225312)scale(0.1 -0.1)">
      <use xlink:href="#DejaVuSans-4e"/>
      <use xlink:href="#DejaVuSans-6f" x="74.804688"/>
      <use xlink:href="#DejaVuSans-64" x="135.986328"/>
      <use xlink:href="#DejaVuSans-65" x="199.462891"/>
      <use xlink:href="#DejaVuSans-20" x="260.986328"/>
      <use xlink:href="#DejaVuSans-2b" x="292.773438"/>
      <use xlink:href="#DejaVuSans-20" x="376.5625"/>
      <use xlink:href="#DejaVuSans-73" x="408.349609"/>
      <use xlink:href="#DejaVuSans-75" x="460.449219"/>
      <use xlink:href="#DejaVuSans-72" x="523.828125"/>
      <use xlink:href="#DejaVuSans-70" x="564.941406"/>
      <use xlink:href="#DejaVuSans-72" x="628.417969"/>
      <use xlink:href="#DejaVuSans-69" x="669.53125"/>
      <use xlink:href="#DejaVuSans-73" x="697.314453"/>
      <use xlink:href="#DejaVuSans-61" x="749.414062"/>
      <use xlink:href="#DejaVuSans-6c" x="810.693359"/>
      <use xlink:href="#DejaVuSans-20" x="838.476562"/>
      <use xlink:href="#DejaVuSans-2b" x="870.263672"/>
      <use xlink:href="#DejaVuSans-20" x="954.052734"/>
      <use xlink:href="#DejaVuSans-69" x="985.839844"/>
      <use xlink:href="#DejaVuSans-6e" x="1013.623047"/>
      <use xlink:href="#DejaVuSans-74" x="1077.001953"/>
      <use xlink:href="#DejaVuSans-65" x="1116.210938"/>
      <use xlink:href="#DejaVuSans-72" x="1177.734375"/>
      <use xlink:href="#DejaVuSans-61" x="1218.847656"/>
      <use xlink:href="#DejaVuSans-63" x="1280.126953"/>
      <use xlink:href="#DejaVuSans-74" x="1335.107422"/>
      <use xlink:href="#DejaVuSans-69" x="1374.316406"/>
      <use xlink:href="#DejaVuSans-6f" x="1402.099609"/>
      <use xlink:href="#DejaVuSans-6e" x="1463.28125"/>
     </g>
    </g>
   </g>
  </g>
 </g>
 <defs>
  <clipPath id="p124849a2c7">
   <rect x="47.72" y="26.88" width="217.495" height="147.16"/>
  </clipPath>
  <clipPath id="pa22c314a27">
   <rect x="298.065" y="26.88" width="217.495" height="147.16"/>
  </clipPath>
 </defs>
</svg>
