<?xml version="1.0" encoding="utf-8" standalone="no"?>
<!DOCTYPE svg PUBLIC "-//W3C//DTD SVG 1.1//EN"
  "http://www.w3.org/Graphics/SVG/1.1/DTD/svg11.dtd">
<svg xmlns:xlink="http://www.w3.org/1999/xlink" width="720pt" height="216pt" viewBox="0 0 720 216" xmlns="http://www.w3.org/2000/svg" version="1.1">
 <metadata>
  <rdf:RDF xmlns:dc="http://purl.org/dc/elements/1.1/" xmlns:cc="http://creativecommons.org/ns#" xmlns:rdf="http://www.w3.org/1999/02/22-rdf-syntax-ns#">
   <cc:Work>
    <dc:type rdf:resource="http://purl.org/dc/dcmitype/StillImage"/>
    <dc:date>2024-01-16T05:45:35.623263</dc:date>
    <dc:format>image/svg+xml</dc:format>
    <dc:creator>
     <cc:Agent>
      <dc:title>Matplotlib v3.5.1, https://matplotlib.org/</dc:title>
     </cc:Agent>
    </dc:creator>
   </cc:Work>
  </rdf:RDF>
 </metadata>
 <defs>
  <style type="text/css">*{stroke-linejoin: round; stroke-linecap: butt}</style>
 </defs>
 <g id="figure_1">
  <g id="patch_1">
   <path d="M 0 216 
L 720 216 
L 720 0 
L 0 0 
z
" style="fill: #ffffff"/>
  </g>
  <g id="axes_1">
   <g id="patch_2">
    <path d="M 47.72 174.04 
L 265.215 174.04 
L 265.215 26.88 
L 47.72 26.88 
z
" style="fill: #ffffff"/>
   </g>
   <g id="PolyCollection_1">
    <path d="M 47.72 33.569091 
L 47.72 34.534575 
L 59.167105 35.480073 
L 70.614211 38.442356 
L 82.061316 42.717671 
L 93.508421 48.569004 
L 104.955526 55.208003 
L 116.402632 62.195213 
L 127.849737 69.990124 
L 139.296842 77.829115 
L 150.743947 85.385782 
L 162.191053 93.496433 
L 173.638158 101.143703 
L 185.085263 108.400854 
L 196.532368 115.00444 
L 207.979474 121.199637 
L 219.426579 127.594368 
L 230.873684 132.521393 
L 242.320789 137.759542 
L 253.767895 142.08465 
L 265.215 146.866723 
L 265.215 134.473047 
L 265.215 134.473047 
L 253.767895 130.220513 
L 242.320789 125.527679 
L 230.873684 120.024329 
L 219.426579 114.761563 
L 207.979474 109.622407 
L 196.532368 103.670177 
L 185.085263 96.600114 
L 173.638158 90.56013 
L 162.191053 84.075405 
L 150.743947 76.887597 
L 139.296842 70.06027 
L 127.849737 63.182522 
L 116.402632 56.709178 
L 104.955526 50.358816 
L 93.508421 44.642783 
L 82.061316 40.643924 
L 70.614211 37.158864 
L 59.167105 34.425332 
L 47.72 33.569091 
z
" clip-path="url(#p21d24ea19c)" style="fill: #1f77b4; fill-opacity: 0.4"/>
   </g>
   <g id="PolyCollection_2">
    <path d="M 47.72 33.578796 
L 47.72 34.545835 
L 59.167105 35.128871 
L 70.614211 36.504487 
L 82.061316 38.767074 
L 93.508421 41.944609 
L 104.955526 46.120617 
L 116.402632 50.862011 
L 127.849737 56.574476 
L 139.296842 62.748794 
L 150.743947 68.913713 
L 162.191053 75.599938 
L 173.638158 82.365738 
L 185.085263 88.953581 
L 196.532368 95.576544 
L 207.979474 101.767289 
L 219.426579 108.703781 
L 230.873684 114.438842 
L 242.320789 120.324824 
L 253.767895 125.255362 
L 265.215 131.16175 
L 265.215 118.604043 
L 265.215 118.604043 
L 253.767895 114.247196 
L 242.320789 109.217746 
L 230.873684 103.200795 
L 219.426579 97.741012 
L 207.979474 92.443616 
L 196.532368 86.289524 
L 185.085263 79.752303 
L 173.638158 73.818641 
L 162.191053 68.073111 
L 150.743947 62.157497 
L 139.296842 56.685937 
L 127.849737 51.548576 
L 116.402632 47.225707 
L 104.955526 42.983437 
L 93.508421 39.659328 
L 82.061316 37.333541 
L 70.614211 35.591859 
L 59.167105 34.115902 
L 47.72 33.578796 
z
" clip-path="url(#p21d24ea19c)" style="fill: #ff7f0e; fill-opacity: 0.4"/>
   </g>
   <g id="PolyCollection_3">
    <path d="M 47.72 33.573525 
L 47.72 34.557992 
L 59.167105 35.302534 
L 70.614211 36.623235 
L 82.061316 38.763562 
L 93.508421 41.41043 
L 104.955526 44.538869 
L 116.402632 47.649991 
L 127.849737 51.143535 
L 139.296842 54.804307 
L 150.743947 58.720743 
L 162.191053 62.624617 
L 173.638158 66.755554 
L 185.085263 70.620566 
L 196.532368 75.018401 
L 207.979474 79.00113 
L 219.426579 83.261387 
L 230.873684 86.86601 
L 242.320789 90.831294 
L 253.767895 93.693091 
L 265.215 97.724464 
L 265.215 86.291658 
L 265.215 86.291658 
L 253.767895 83.485615 
L 242.320789 80.36932 
L 230.873684 76.661359 
L 219.426579 73.367629 
L 207.979474 70.058043 
L 196.532368 66.685684 
L 185.085263 63.02722 
L 173.638158 59.52316 
L 162.191053 55.98019 
L 150.743947 52.702707 
L 139.296842 49.428182 
L 127.849737 46.418813 
L 116.402632 43.268595 
L 104.955526 41.048613 
L 93.508421 38.562515 
L 82.061316 36.84849 
L 70.614211 35.454493 
L 59.167105 34.236527 
L 47.72 33.573525 
z
" clip-path="url(#p21d24ea19c)" style="fill: #2ca02c; fill-opacity: 0.4"/>
   </g>
   <g id="PolyCollection_4">
    <path d="M 47.72 33.586549 
L 47.72 34.57331 
L 59.167105 35.12895 
L 70.614211 36.008063 
L 82.061316 37.506705 
L 93.508421 39.436389 
L 104.955526 41.879162 
L 116.402632 44.475642 
L 127.849737 47.683692 
L 139.296842 51.258184 
L 150.743947 55.069014 
L 162.191053 58.975907 
L 173.638158 63.208323 
L 185.085263 67.222434 
L 196.532368 71.582093 
L 207.979474 75.514912 
L 219.426579 79.962359 
L 230.873684 83.649959 
L 242.320789 87.725115 
L 253.767895 90.934547 
L 265.215 95.124934 
L 265.215 84.536109 
L 265.215 84.536109 
L 253.767895 81.525612 
L 242.320789 78.408436 
L 230.873684 74.59469 
L 219.426579 71.163733 
L 207.979474 67.965952 
L 196.532368 64.419735 
L 185.085263 60.609452 
L 173.638158 57.047159 
L 162.191053 53.480034 
L 150.743947 50.194085 
L 139.296842 46.941965 
L 127.849737 44.070252 
L 116.402632 41.391341 
L 104.955526 39.295339 
L 93.508421 37.331496 
L 82.061316 35.993588 
L 70.614211 35.024829 
L 59.167105 34.098386 
L 47.72 33.586549 
z
" clip-path="url(#p21d24ea19c)" style="fill: #d62728; fill-opacity: 0.4"/>
   </g>
   <g id="PolyCollection_5">
    <path d="M 47.72 33.590973 
L 47.72 34.550209 
L 59.167105 35.482831 
L 70.614211 38.457265 
L 82.061316 42.735344 
L 93.508421 48.553295 
L 104.955526 55.267728 
L 116.402632 62.27446 
L 127.849737 70.078237 
L 139.296842 77.9727 
L 150.743947 85.441452 
L 162.191053 93.713303 
L 173.638158 101.266134 
L 185.085263 108.582999 
L 196.532368 115.340348 
L 207.979474 121.135795 
L 219.426579 127.697885 
L 230.873684 133.166611 
L 242.320789 137.742993 
L 253.767895 142.921732 
L 265.215 147.371379 
L 265.215 134.303283 
L 265.215 134.303283 
L 253.767895 130.952599 
L 242.320789 125.5988 
L 230.873684 120.320718 
L 219.426579 114.865381 
L 207.979474 109.390925 
L 196.532368 103.791213 
L 185.085263 97.069057 
L 173.638158 90.766628 
L 162.191053 83.938529 
L 150.743947 76.933325 
L 139.296842 70.08355 
L 127.849737 63.266917 
L 116.402632 56.70549 
L 104.955526 50.389981 
L 93.508421 44.677598 
L 82.061316 40.661437 
L 70.614211 37.16844 
L 59.167105 34.440832 
L 47.72 33.590973 
z
" clip-path="url(#p21d24ea19c)" style="fill: #9467bd; fill-opacity: 0.4"/>
   </g>
   <g id="PolyCollection_6">
    <path d="M 47.72 33.60251 
L 47.72 34.562019 
L 59.167105 35.133745 
L 70.614211 36.520206 
L 82.061316 38.780284 
L 93.508421 41.966235 
L 104.955526 46.166889 
L 116.402632 50.93588 
L 127.849737 56.624365 
L 139.296842 62.843132 
L 150.743947 68.902778 
L 162.191053 75.730482 
L 173.638158 82.455688 
L 185.085263 88.992241 
L 196.532368 95.853636 
L 207.979474 101.84242 
L 219.426579 108.866691 
L 230.873684 114.894104 
L 242.320789 120.384714 
L 253.767895 125.638573 
L 265.215 131.259471 
L 265.215 119.000367 
L 265.215 119.000367 
L 253.767895 114.94792 
L 242.320789 109.219412 
L 230.873684 103.328604 
L 219.426579 97.958595 
L 207.979474 92.32213 
L 196.532368 86.398539 
L 185.085263 80.127943 
L 173.638158 74.103737 
L 162.191053 67.979528 
L 150.743947 62.238867 
L 139.296842 56.741332 
L 127.849737 51.630736 
L 116.402632 47.241862 
L 104.955526 43.012422 
L 93.508421 39.685772 
L 82.061316 37.356721 
L 70.614211 35.598178 
L 59.167105 34.130905 
L 47.72 33.60251 
z
" clip-path="url(#p21d24ea19c)" style="fill: #8c564b; fill-opacity: 0.4"/>
   </g>
   <g id="PolyCollection_7">
    <path d="M 47.72 46.833868 
L 47.72 50.518122 
L 59.167105 51.832088 
L 70.614211 55.679801 
L 82.061316 61.3952 
L 93.508421 68.621376 
L 104.955526 76.513918 
L 116.402632 84.73165 
L 127.849737 93.167331 
L 139.296842 101.558717 
L 150.743947 109.458733 
L 162.191053 117.733114 
L 173.638158 125.705653 
L 185.085263 132.948263 
L 196.532368 139.699865 
L 207.979474 145.539532 
L 219.426579 151.333514 
L 230.873684 155.680842 
L 242.320789 160.254607 
L 253.767895 163.558652 
L 265.215 167.350909 
L 265.215 151.116164 
L 265.215 151.116164 
L 253.767895 147.992204 
L 242.320789 143.844784 
L 230.873684 139.061616 
L 219.426579 134.543935 
L 207.979474 129.929945 
L 196.532368 123.925388 
L 185.085263 116.889352 
L 173.638158 110.272506 
L 162.191053 103.185634 
L 150.743947 95.607497 
L 139.296842 88.195655 
L 127.849737 80.3241 
L 116.402632 72.981808 
L 104.955526 66.141219 
L 93.508421 59.480516 
L 82.061316 54.688427 
L 70.614211 50.555001 
L 59.167105 47.952779 
L 47.72 46.833868 
z
" clip-path="url(#p21d24ea19c)" style="fill: #e377c2; fill-opacity: 0.4"/>
   </g>
   <g id="PolyCollection_8">
    <path d="M 47.72 33.582361 
L 47.72 34.552355 
L 59.167105 34.843427 
L 70.614211 34.940973 
L 82.061316 35.540365 
L 93.508421 37.014543 
L 104.955526 39.492761 
L 116.402632 42.739655 
L 127.849737 47.160375 
L 139.296842 51.847824 
L 150.743947 56.993397 
L 162.191053 62.527916 
L 173.638158 68.715018 
L 185.085263 74.440994 
L 196.532368 80.903498 
L 207.979474 87.020426 
L 219.426579 94.191803 
L 230.873684 100.623625 
L 242.320789 107.434185 
L 253.767895 112.910171 
L 265.215 119.566253 
L 265.215 104.773936 
L 265.215 104.773936 
L 253.767895 100.032236 
L 242.320789 94.321247 
L 230.873684 88.13735 
L 219.426579 82.438793 
L 207.979474 76.713934 
L 196.532368 70.643675 
L 185.085263 64.12144 
L 173.638158 58.147412 
L 162.191053 52.986921 
L 150.743947 47.93153 
L 139.296842 43.902857 
L 127.849737 40.489217 
L 116.402632 37.888046 
L 104.955526 36.158955 
L 93.508421 35.022847 
L 82.061316 34.475402 
L 70.614211 34.212696 
L 59.167105 33.872707 
L 47.72 33.582361 
z
" clip-path="url(#p21d24ea19c)" style="fill: #7f7f7f; fill-opacity: 0.4"/>
   </g>
   <g id="matplotlib.axis_1">
    <g id="xtick_1">
     <g id="line2d_1">
      <defs>
       <path id="m0d2995aaa0" d="M 0 0 
L 0 3.5 
" style="stroke: #000000; stroke-width: 0.8"/>
      </defs>
      <g>
       <use xlink:href="#m0d2995aaa0" x="47.72" y="174.04" style="stroke: #000000; stroke-width: 0.8"/>
      </g>
     </g>
     <g id="text_1">
      <!-- 0.0 -->
      <g transform="translate(39.768438 188.638438)scale(0.1 -0.1)">
       <defs>
        <path id="DejaVuSans-30" d="M 2034 4250 
Q 1547 4250 1301 3770 
Q 1056 3291 1056 2328 
Q 1056 1369 1301 889 
Q 1547 409 2034 409 
Q 2525 409 2770 889 
Q 3016 1369 3016 2328 
Q 3016 3291 2770 3770 
Q 2525 4250 2034 4250 
z
M 2034 4750 
Q 2819 4750 3233 4129 
Q 3647 3509 3647 2328 
Q 3647 1150 3233 529 
Q 2819 -91 2034 -91 
Q 1250 -91 836 529 
Q 422 1150 422 2328 
Q 422 3509 836 4129 
Q 1250 4750 2034 4750 
z
" transform="scale(0.015625)"/>
        <path id="DejaVuSans-2e" d="M 684 794 
L 1344 794 
L 1344 0 
L 684 0 
L 684 794 
z
" transform="scale(0.015625)"/>
       </defs>
       <use xlink:href="#DejaVuSans-30"/>
       <use xlink:href="#DejaVuSans-2e" x="63.623047"/>
       <use xlink:href="#DejaVuSans-30" x="95.410156"/>
      </g>
     </g>
    </g>
    <g id="xtick_2">
     <g id="line2d_2">
      <g>
       <use xlink:href="#m0d2995aaa0" x="102.09375" y="174.04" style="stroke: #000000; stroke-width: 0.8"/>
      </g>
     </g>
     <g id="text_2">
      <!-- 0.5 -->
      <g transform="translate(94.142188 188.638438)scale(0.1 -0.1)">
       <defs>
        <path id="DejaVuSans-35" d="M 691 4666 
L 3169 4666 
L 3169 4134 
L 1269 4134 
L 1269 2991 
Q 1406 3038 1543 3061 
Q 1681 3084 1819 3084 
Q 2600 3084 3056 2656 
Q 3513 2228 3513 1497 
Q 3513 744 3044 326 
Q 2575 -91 1722 -91 
Q 1428 -91 1123 -41 
Q 819 9 494 109 
L 494 744 
Q 775 591 1075 516 
Q 1375 441 1709 441 
Q 2250 441 2565 725 
Q 2881 1009 2881 1497 
Q 2881 1984 2565 2268 
Q 2250 2553 1709 2553 
Q 1456 2553 1204 2497 
Q 953 2441 691 2322 
L 691 4666 
z
" transform="scale(0.015625)"/>
       </defs>
       <use xlink:href="#DejaVuSans-30"/>
       <use xlink:href="#DejaVuSans-2e" x="63.623047"/>
       <use xlink:href="#DejaVuSans-35" x="95.410156"/>
      </g>
     </g>
    </g>
    <g id="xtick_3">
     <g id="line2d_3">
      <g>
       <use xlink:href="#m0d2995aaa0" x="156.4675" y="174.04" style="stroke: #000000; stroke-width: 0.8"/>
      </g>
     </g>
     <g id="text_3">
      <!-- 1.0 -->
      <g transform="translate(148.515938 188.638438)scale(0.1 -0.1)">
       <defs>
        <path id="DejaVuSans-31" d="M 794 531 
L 1825 531 
L 1825 4091 
L 703 3866 
L 703 4441 
L 1819 4666 
L 2450 4666 
L 2450 531 
L 3481 531 
L 3481 0 
L 794 0 
L 794 531 
z
" transform="scale(0.015625)"/>
       </defs>
       <use xlink:href="#DejaVuSans-31"/>
       <use xlink:href="#DejaVuSans-2e" x="63.623047"/>
       <use xlink:href="#DejaVuSans-30" x="95.410156"/>
      </g>
     </g>
    </g>
    <g id="xtick_4">
     <g id="line2d_4">
      <g>
       <use xlink:href="#m0d2995aaa0" x="210.84125" y="174.04" style="stroke: #000000; stroke-width: 0.8"/>
      </g>
     </g>
     <g id="text_4">
      <!-- 1.5 -->
      <g transform="translate(202.889687 188.638438)scale(0.1 -0.1)">
       <use xlink:href="#DejaVuSans-31"/>
       <use xlink:href="#DejaVuSans-2e" x="63.623047"/>
       <use xlink:href="#DejaVuSans-35" x="95.410156"/>
      </g>
     </g>
    </g>
    <g id="xtick_5">
     <g id="line2d_5">
      <g>
       <use xlink:href="#m0d2995aaa0" x="265.215" y="174.04" style="stroke: #000000; stroke-width: 0.8"/>
      </g>
     </g>
     <g id="text_5">
      <!-- 2.0 -->
      <g transform="translate(257.263437 188.638438)scale(0.1 -0.1)">
       <defs>
        <path id="DejaVuSans-32" d="M 1228 531 
L 3431 531 
L 3431 0 
L 469 0 
L 469 531 
Q 828 903 1448 1529 
Q 2069 2156 2228 2338 
Q 2531 2678 2651 2914 
Q 2772 3150 2772 3378 
Q 2772 3750 2511 3984 
Q 2250 4219 1831 4219 
Q 1534 4219 1204 4116 
Q 875 4013 500 3803 
L 500 4441 
Q 881 4594 1212 4672 
Q 1544 4750 1819 4750 
Q 2544 4750 2975 4387 
Q 3406 4025 3406 3419 
Q 3406 3131 3298 2873 
Q 3191 2616 2906 2266 
Q 2828 2175 2409 1742 
Q 1991 1309 1228 531 
z
" transform="scale(0.015625)"/>
       </defs>
       <use xlink:href="#DejaVuSans-32"/>
       <use xlink:href="#DejaVuSans-2e" x="63.623047"/>
       <use xlink:href="#DejaVuSans-30" x="95.410156"/>
      </g>
     </g>
    </g>
    <g id="text_6">
     <!-- Influence of surprisal (multiplication) -->
     <g transform="translate(64.320625 202.316563)scale(0.1 -0.1)">
      <defs>
       <path id="DejaVuSans-49" d="M 628 4666 
L 1259 4666 
L 1259 0 
L 628 0 
L 628 4666 
z
" transform="scale(0.015625)"/>
       <path id="DejaVuSans-6e" d="M 3513 2113 
L 3513 0 
L 2938 0 
L 2938 2094 
Q 2938 2591 2744 2837 
Q 2550 3084 2163 3084 
Q 1697 3084 1428 2787 
Q 1159 2491 1159 1978 
L 1159 0 
L 581 0 
L 581 3500 
L 1159 3500 
L 1159 2956 
Q 1366 3272 1645 3428 
Q 1925 3584 2291 3584 
Q 2894 3584 3203 3211 
Q 3513 2838 3513 2113 
z
" transform="scale(0.015625)"/>
       <path id="DejaVuSans-66" d="M 2375 4863 
L 2375 4384 
L 1825 4384 
Q 1516 4384 1395 4259 
Q 1275 4134 1275 3809 
L 1275 3500 
L 2222 3500 
L 2222 3053 
L 1275 3053 
L 1275 0 
L 697 0 
L 697 3053 
L 147 3053 
L 147 3500 
L 697 3500 
L 697 3744 
Q 697 4328 969 4595 
Q 1241 4863 1831 4863 
L 2375 4863 
z
" transform="scale(0.015625)"/>
       <path id="DejaVuSans-6c" d="M 603 4863 
L 1178 4863 
L 1178 0 
L 603 0 
L 603 4863 
z
" transform="scale(0.015625)"/>
       <path id="DejaVuSans-75" d="M 544 1381 
L 544 3500 
L 1119 3500 
L 1119 1403 
Q 1119 906 1312 657 
Q 1506 409 1894 409 
Q 2359 409 2629 706 
Q 2900 1003 2900 1516 
L 2900 3500 
L 3475 3500 
L 3475 0 
L 2900 0 
L 2900 538 
Q 2691 219 2414 64 
Q 2138 -91 1772 -91 
Q 1169 -91 856 284 
Q 544 659 544 1381 
z
M 1991 3584 
L 1991 3584 
z
" transform="scale(0.015625)"/>
       <path id="DejaVuSans-65" d="M 3597 1894 
L 3597 1613 
L 953 1613 
Q 991 1019 1311 708 
Q 1631 397 2203 397 
Q 2534 397 2845 478 
Q 3156 559 3463 722 
L 3463 178 
Q 3153 47 2828 -22 
Q 2503 -91 2169 -91 
Q 1331 -91 842 396 
Q 353 884 353 1716 
Q 353 2575 817 3079 
Q 1281 3584 2069 3584 
Q 2775 3584 3186 3129 
Q 3597 2675 3597 1894 
z
M 3022 2063 
Q 3016 2534 2758 2815 
Q 2500 3097 2075 3097 
Q 1594 3097 1305 2825 
Q 1016 2553 972 2059 
L 3022 2063 
z
" transform="scale(0.015625)"/>
       <path id="DejaVuSans-63" d="M 3122 3366 
L 3122 2828 
Q 2878 2963 2633 3030 
Q 2388 3097 2138 3097 
Q 1578 3097 1268 2742 
Q 959 2388 959 1747 
Q 959 1106 1268 751 
Q 1578 397 2138 397 
Q 2388 397 2633 464 
Q 2878 531 3122 666 
L 3122 134 
Q 2881 22 2623 -34 
Q 2366 -91 2075 -91 
Q 1284 -91 818 406 
Q 353 903 353 1747 
Q 353 2603 823 3093 
Q 1294 3584 2113 3584 
Q 2378 3584 2631 3529 
Q 2884 3475 3122 3366 
z
" transform="scale(0.015625)"/>
       <path id="DejaVuSans-20" transform="scale(0.015625)"/>
       <path id="DejaVuSans-6f" d="M 1959 3097 
Q 1497 3097 1228 2736 
Q 959 2375 959 1747 
Q 959 1119 1226 758 
Q 1494 397 1959 397 
Q 2419 397 2687 759 
Q 2956 1122 2956 1747 
Q 2956 2369 2687 2733 
Q 2419 3097 1959 3097 
z
M 1959 3584 
Q 2709 3584 3137 3096 
Q 3566 2609 3566 1747 
Q 3566 888 3137 398 
Q 2709 -91 1959 -91 
Q 1206 -91 779 398 
Q 353 888 353 1747 
Q 353 2609 779 3096 
Q 1206 3584 1959 3584 
z
" transform="scale(0.015625)"/>
       <path id="DejaVuSans-73" d="M 2834 3397 
L 2834 2853 
Q 2591 2978 2328 3040 
Q 2066 3103 1784 3103 
Q 1356 3103 1142 2972 
Q 928 2841 928 2578 
Q 928 2378 1081 2264 
Q 1234 2150 1697 2047 
L 1894 2003 
Q 2506 1872 2764 1633 
Q 3022 1394 3022 966 
Q 3022 478 2636 193 
Q 2250 -91 1575 -91 
Q 1294 -91 989 -36 
Q 684 19 347 128 
L 347 722 
Q 666 556 975 473 
Q 1284 391 1588 391 
Q 1994 391 2212 530 
Q 2431 669 2431 922 
Q 2431 1156 2273 1281 
Q 2116 1406 1581 1522 
L 1381 1569 
Q 847 1681 609 1914 
Q 372 2147 372 2553 
Q 372 3047 722 3315 
Q 1072 3584 1716 3584 
Q 2034 3584 2315 3537 
Q 2597 3491 2834 3397 
z
" transform="scale(0.015625)"/>
       <path id="DejaVuSans-72" d="M 2631 2963 
Q 2534 3019 2420 3045 
Q 2306 3072 2169 3072 
Q 1681 3072 1420 2755 
Q 1159 2438 1159 1844 
L 1159 0 
L 581 0 
L 581 3500 
L 1159 3500 
L 1159 2956 
Q 1341 3275 1631 3429 
Q 1922 3584 2338 3584 
Q 2397 3584 2469 3576 
Q 2541 3569 2628 3553 
L 2631 2963 
z
" transform="scale(0.015625)"/>
       <path id="DejaVuSans-70" d="M 1159 525 
L 1159 -1331 
L 581 -1331 
L 581 3500 
L 1159 3500 
L 1159 2969 
Q 1341 3281 1617 3432 
Q 1894 3584 2278 3584 
Q 2916 3584 3314 3078 
Q 3713 2572 3713 1747 
Q 3713 922 3314 415 
Q 2916 -91 2278 -91 
Q 1894 -91 1617 61 
Q 1341 213 1159 525 
z
M 3116 1747 
Q 3116 2381 2855 2742 
Q 2594 3103 2138 3103 
Q 1681 3103 1420 2742 
Q 1159 2381 1159 1747 
Q 1159 1113 1420 752 
Q 1681 391 2138 391 
Q 2594 391 2855 752 
Q 3116 1113 3116 1747 
z
" transform="scale(0.015625)"/>
       <path id="DejaVuSans-69" d="M 603 3500 
L 1178 3500 
L 1178 0 
L 603 0 
L 603 3500 
z
M 603 4863 
L 1178 4863 
L 1178 4134 
L 603 4134 
L 603 4863 
z
" transform="scale(0.015625)"/>
       <path id="DejaVuSans-61" d="M 2194 1759 
Q 1497 1759 1228 1600 
Q 959 1441 959 1056 
Q 959 750 1161 570 
Q 1363 391 1709 391 
Q 2188 391 2477 730 
Q 2766 1069 2766 1631 
L 2766 1759 
L 2194 1759 
z
M 3341 1997 
L 3341 0 
L 2766 0 
L 2766 531 
Q 2569 213 2275 61 
Q 1981 -91 1556 -91 
Q 1019 -91 701 211 
Q 384 513 384 1019 
Q 384 1609 779 1909 
Q 1175 2209 1959 2209 
L 2766 2209 
L 2766 2266 
Q 2766 2663 2505 2880 
Q 2244 3097 1772 3097 
Q 1472 3097 1187 3025 
Q 903 2953 641 2809 
L 641 3341 
Q 956 3463 1253 3523 
Q 1550 3584 1831 3584 
Q 2591 3584 2966 3190 
Q 3341 2797 3341 1997 
z
" transform="scale(0.015625)"/>
       <path id="DejaVuSans-28" d="M 1984 4856 
Q 1566 4138 1362 3434 
Q 1159 2731 1159 2009 
Q 1159 1288 1364 580 
Q 1569 -128 1984 -844 
L 1484 -844 
Q 1016 -109 783 600 
Q 550 1309 550 2009 
Q 550 2706 781 3412 
Q 1013 4119 1484 4856 
L 1984 4856 
z
" transform="scale(0.015625)"/>
       <path id="DejaVuSans-6d" d="M 3328 2828 
Q 3544 3216 3844 3400 
Q 4144 3584 4550 3584 
Q 5097 3584 5394 3201 
Q 5691 2819 5691 2113 
L 5691 0 
L 5113 0 
L 5113 2094 
Q 5113 2597 4934 2840 
Q 4756 3084 4391 3084 
Q 3944 3084 3684 2787 
Q 3425 2491 3425 1978 
L 3425 0 
L 2847 0 
L 2847 2094 
Q 2847 2600 2669 2842 
Q 2491 3084 2119 3084 
Q 1678 3084 1418 2786 
Q 1159 2488 1159 1978 
L 1159 0 
L 581 0 
L 581 3500 
L 1159 3500 
L 1159 2956 
Q 1356 3278 1631 3431 
Q 1906 3584 2284 3584 
Q 2666 3584 2933 3390 
Q 3200 3197 3328 2828 
z
" transform="scale(0.015625)"/>
       <path id="DejaVuSans-74" d="M 1172 4494 
L 1172 3500 
L 2356 3500 
L 2356 3053 
L 1172 3053 
L 1172 1153 
Q 1172 725 1289 603 
Q 1406 481 1766 481 
L 2356 481 
L 2356 0 
L 1766 0 
Q 1100 0 847 248 
Q 594 497 594 1153 
L 594 3053 
L 172 3053 
L 172 3500 
L 594 3500 
L 594 4494 
L 1172 4494 
z
" transform="scale(0.015625)"/>
       <path id="DejaVuSans-29" d="M 513 4856 
L 1013 4856 
Q 1481 4119 1714 3412 
Q 1947 2706 1947 2009 
Q 1947 1309 1714 600 
Q 1481 -109 1013 -844 
L 513 -844 
Q 928 -128 1133 580 
Q 1338 1288 1338 2009 
Q 1338 2731 1133 3434 
Q 928 4138 513 4856 
z
" transform="scale(0.015625)"/>
      </defs>
      <use xlink:href="#DejaVuSans-49"/>
      <use xlink:href="#DejaVuSans-6e" x="29.492188"/>
      <use xlink:href="#DejaVuSans-66" x="92.871094"/>
      <use xlink:href="#DejaVuSans-6c" x="128.076172"/>
      <use xlink:href="#DejaVuSans-75" x="155.859375"/>
      <use xlink:href="#DejaVuSans-65" x="219.238281"/>
      <use xlink:href="#DejaVuSans-6e" x="280.761719"/>
      <use xlink:href="#DejaVuSans-63" x="344.140625"/>
      <use xlink:href="#DejaVuSans-65" x="399.121094"/>
      <use xlink:href="#DejaVuSans-20" x="460.644531"/>
      <use xlink:href="#DejaVuSans-6f" x="492.431641"/>
      <use xlink:href="#DejaVuSans-66" x="553.613281"/>
      <use xlink:href="#DejaVuSans-20" x="588.818359"/>
      <use xlink:href="#DejaVuSans-73" x="620.605469"/>
      <use xlink:href="#DejaVuSans-75" x="672.705078"/>
      <use xlink:href="#DejaVuSans-72" x="736.083984"/>
      <use xlink:href="#DejaVuSans-70" x="777.197266"/>
      <use xlink:href="#DejaVuSans-72" x="840.673828"/>
      <use xlink:href="#DejaVuSans-69" x="881.787109"/>
      <use xlink:href="#DejaVuSans-73" x="909.570312"/>
      <use xlink:href="#DejaVuSans-61" x="961.669922"/>
      <use xlink:href="#DejaVuSans-6c" x="1022.949219"/>
      <use xlink:href="#DejaVuSans-20" x="1050.732422"/>
      <use xlink:href="#DejaVuSans-28" x="1082.519531"/>
      <use xlink:href="#DejaVuSans-6d" x="1121.533203"/>
      <use xlink:href="#DejaVuSans-75" x="1218.945312"/>
      <use xlink:href="#DejaVuSans-6c" x="1282.324219"/>
      <use xlink:href="#DejaVuSans-74" x="1310.107422"/>
      <use xlink:href="#DejaVuSans-69" x="1349.316406"/>
      <use xlink:href="#DejaVuSans-70" x="1377.099609"/>
      <use xlink:href="#DejaVuSans-6c" x="1440.576172"/>
      <use xlink:href="#DejaVuSans-69" x="1468.359375"/>
      <use xlink:href="#DejaVuSans-63" x="1496.142578"/>
      <use xlink:href="#DejaVuSans-61" x="1551.123047"/>
      <use xlink:href="#DejaVuSans-74" x="1612.402344"/>
      <use xlink:href="#DejaVuSans-69" x="1651.611328"/>
      <use xlink:href="#DejaVuSans-6f" x="1679.394531"/>
      <use xlink:href="#DejaVuSans-6e" x="1740.576172"/>
      <use xlink:href="#DejaVuSans-29" x="1803.955078"/>
     </g>
    </g>
   </g>
   <g id="matplotlib.axis_2">
    <g id="ytick_1">
     <g id="line2d_6">
      <defs>
       <path id="md9f1d44d1a" d="M 0 0 
L -3.5 0 
" style="stroke: #000000; stroke-width: 0.8"/>
      </defs>
      <g>
       <use xlink:href="#md9f1d44d1a" x="47.72" y="138.748647" style="stroke: #000000; stroke-width: 0.8"/>
      </g>
     </g>
     <g id="text_7">
      <!-- 0.4 -->
      <g transform="translate(24.816875 142.547865)scale(0.1 -0.1)">
       <defs>
        <path id="DejaVuSans-34" d="M 2419 4116 
L 825 1625 
L 2419 1625 
L 2419 4116 
z
M 2253 4666 
L 3047 4666 
L 3047 1625 
L 3713 1625 
L 3713 1100 
L 3047 1100 
L 3047 0 
L 2419 0 
L 2419 1100 
L 313 1100 
L 313 1709 
L 2253 4666 
z
" transform="scale(0.015625)"/>
       </defs>
       <use xlink:href="#DejaVuSans-30"/>
       <use xlink:href="#DejaVuSans-2e" x="63.623047"/>
       <use xlink:href="#DejaVuSans-34" x="95.410156"/>
      </g>
     </g>
    </g>
    <g id="ytick_2">
     <g id="line2d_7">
      <g>
       <use xlink:href="#md9f1d44d1a" x="47.72" y="100.383499" style="stroke: #000000; stroke-width: 0.8"/>
      </g>
     </g>
     <g id="text_8">
      <!-- 0.6 -->
      <g transform="translate(24.816875 104.182717)scale(0.1 -0.1)">
       <defs>
        <path id="DejaVuSans-36" d="M 2113 2584 
Q 1688 2584 1439 2293 
Q 1191 2003 1191 1497 
Q 1191 994 1439 701 
Q 1688 409 2113 409 
Q 2538 409 2786 701 
Q 3034 994 3034 1497 
Q 3034 2003 2786 2293 
Q 2538 2584 2113 2584 
z
M 3366 4563 
L 3366 3988 
Q 3128 4100 2886 4159 
Q 2644 4219 2406 4219 
Q 1781 4219 1451 3797 
Q 1122 3375 1075 2522 
Q 1259 2794 1537 2939 
Q 1816 3084 2150 3084 
Q 2853 3084 3261 2657 
Q 3669 2231 3669 1497 
Q 3669 778 3244 343 
Q 2819 -91 2113 -91 
Q 1303 -91 875 529 
Q 447 1150 447 2328 
Q 447 3434 972 4092 
Q 1497 4750 2381 4750 
Q 2619 4750 2861 4703 
Q 3103 4656 3366 4563 
z
" transform="scale(0.015625)"/>
       </defs>
       <use xlink:href="#DejaVuSans-30"/>
       <use xlink:href="#DejaVuSans-2e" x="63.623047"/>
       <use xlink:href="#DejaVuSans-36" x="95.410156"/>
      </g>
     </g>
    </g>
    <g id="ytick_3">
     <g id="line2d_8">
      <g>
       <use xlink:href="#md9f1d44d1a" x="47.72" y="62.018351" style="stroke: #000000; stroke-width: 0.8"/>
      </g>
     </g>
     <g id="text_9">
      <!-- 0.8 -->
      <g transform="translate(24.816875 65.817569)scale(0.1 -0.1)">
       <defs>
        <path id="DejaVuSans-38" d="M 2034 2216 
Q 1584 2216 1326 1975 
Q 1069 1734 1069 1313 
Q 1069 891 1326 650 
Q 1584 409 2034 409 
Q 2484 409 2743 651 
Q 3003 894 3003 1313 
Q 3003 1734 2745 1975 
Q 2488 2216 2034 2216 
z
M 1403 2484 
Q 997 2584 770 2862 
Q 544 3141 544 3541 
Q 544 4100 942 4425 
Q 1341 4750 2034 4750 
Q 2731 4750 3128 4425 
Q 3525 4100 3525 3541 
Q 3525 3141 3298 2862 
Q 3072 2584 2669 2484 
Q 3125 2378 3379 2068 
Q 3634 1759 3634 1313 
Q 3634 634 3220 271 
Q 2806 -91 2034 -91 
Q 1263 -91 848 271 
Q 434 634 434 1313 
Q 434 1759 690 2068 
Q 947 2378 1403 2484 
z
M 1172 3481 
Q 1172 3119 1398 2916 
Q 1625 2713 2034 2713 
Q 2441 2713 2670 2916 
Q 2900 3119 2900 3481 
Q 2900 3844 2670 4047 
Q 2441 4250 2034 4250 
Q 1625 4250 1398 4047 
Q 1172 3844 1172 3481 
z
" transform="scale(0.015625)"/>
       </defs>
       <use xlink:href="#DejaVuSans-30"/>
       <use xlink:href="#DejaVuSans-2e" x="63.623047"/>
       <use xlink:href="#DejaVuSans-38" x="95.410156"/>
      </g>
     </g>
    </g>
    <g id="text_10">
     <!-- R-value -->
     <g transform="translate(18.737188 119.064687)rotate(-90)scale(0.1 -0.1)">
      <defs>
       <path id="DejaVuSans-52" d="M 2841 2188 
Q 3044 2119 3236 1894 
Q 3428 1669 3622 1275 
L 4263 0 
L 3584 0 
L 2988 1197 
Q 2756 1666 2539 1819 
Q 2322 1972 1947 1972 
L 1259 1972 
L 1259 0 
L 628 0 
L 628 4666 
L 2053 4666 
Q 2853 4666 3247 4331 
Q 3641 3997 3641 3322 
Q 3641 2881 3436 2590 
Q 3231 2300 2841 2188 
z
M 1259 4147 
L 1259 2491 
L 2053 2491 
Q 2509 2491 2742 2702 
Q 2975 2913 2975 3322 
Q 2975 3731 2742 3939 
Q 2509 4147 2053 4147 
L 1259 4147 
z
" transform="scale(0.015625)"/>
       <path id="DejaVuSans-2d" d="M 313 2009 
L 1997 2009 
L 1997 1497 
L 313 1497 
L 313 2009 
z
" transform="scale(0.015625)"/>
       <path id="DejaVuSans-76" d="M 191 3500 
L 800 3500 
L 1894 563 
L 2988 3500 
L 3597 3500 
L 2284 0 
L 1503 0 
L 191 3500 
z
" transform="scale(0.015625)"/>
      </defs>
      <use xlink:href="#DejaVuSans-52"/>
      <use xlink:href="#DejaVuSans-2d" x="65.482422"/>
      <use xlink:href="#DejaVuSans-76" x="98.941406"/>
      <use xlink:href="#DejaVuSans-61" x="158.121094"/>
      <use xlink:href="#DejaVuSans-6c" x="219.400391"/>
      <use xlink:href="#DejaVuSans-75" x="247.183594"/>
      <use xlink:href="#DejaVuSans-65" x="310.5625"/>
     </g>
    </g>
   </g>
   <g id="line2d_9">
    <path d="M 47.72 34.051833 
L 59.167105 34.952703 
L 70.614211 37.80061 
L 82.061316 41.680797 
L 93.508421 46.605893 
L 104.955526 52.78341 
L 116.402632 59.452195 
L 127.849737 66.586323 
L 139.296842 73.944693 
L 150.743947 81.13669 
L 162.191053 88.785919 
L 173.638158 95.851917 
L 185.085263 102.500484 
L 196.532368 109.337309 
L 207.979474 115.411022 
L 219.426579 121.177965 
L 230.873684 126.272861 
L 242.320789 131.64361 
L 253.767895 136.152581 
L 265.215 140.669885 
" clip-path="url(#p21d24ea19c)" style="fill: none; stroke: #1f77b4; stroke-width: 1.5; stroke-linecap: square"/>
   </g>
   <g id="line2d_10">
    <path d="M 47.72 34.062316 
L 59.167105 34.622386 
L 70.614211 36.048173 
L 82.061316 38.050308 
L 93.508421 40.801969 
L 104.955526 44.552027 
L 116.402632 49.043859 
L 127.849737 54.061526 
L 139.296842 59.717365 
L 150.743947 65.535605 
L 162.191053 71.836525 
L 173.638158 78.092189 
L 185.085263 84.352942 
L 196.532368 90.933034 
L 207.979474 97.105453 
L 219.426579 103.222396 
L 230.873684 108.819819 
L 242.320789 114.771285 
L 253.767895 119.751279 
L 265.215 124.882896 
" clip-path="url(#p21d24ea19c)" style="fill: none; stroke: #ff7f0e; stroke-width: 1.5; stroke-linecap: square"/>
   </g>
   <g id="line2d_11">
    <path d="M 47.72 34.065759 
L 59.167105 34.769531 
L 70.614211 36.038864 
L 82.061316 37.806026 
L 93.508421 39.986472 
L 104.955526 42.793741 
L 116.402632 45.459293 
L 127.849737 48.781174 
L 139.296842 52.116244 
L 150.743947 55.711725 
L 162.191053 59.302404 
L 173.638158 63.139357 
L 185.085263 66.823893 
L 196.532368 70.852042 
L 207.979474 74.529586 
L 219.426579 78.314508 
L 230.873684 81.763684 
L 242.320789 85.600307 
L 253.767895 88.589353 
L 265.215 92.008061 
" clip-path="url(#p21d24ea19c)" style="fill: none; stroke: #2ca02c; stroke-width: 1.5; stroke-linecap: square"/>
   </g>
   <g id="line2d_12">
    <path d="M 47.72 34.07993 
L 59.167105 34.613668 
L 70.614211 35.516446 
L 82.061316 36.750146 
L 93.508421 38.383943 
L 104.955526 40.58725 
L 116.402632 42.933491 
L 127.849737 45.876972 
L 139.296842 49.100075 
L 150.743947 52.631549 
L 162.191053 56.22797 
L 173.638158 60.127741 
L 185.085263 63.915943 
L 196.532368 68.000914 
L 207.979474 71.740432 
L 219.426579 75.563046 
L 230.873684 79.122325 
L 242.320789 83.066776 
L 253.767895 86.230079 
L 265.215 89.830521 
" clip-path="url(#p21d24ea19c)" style="fill: none; stroke: #d62728; stroke-width: 1.5; stroke-linecap: square"/>
   </g>
   <g id="line2d_13">
    <path d="M 47.72 34.070591 
L 59.167105 34.961832 
L 70.614211 37.812852 
L 82.061316 41.69839 
L 93.508421 46.615447 
L 104.955526 52.828854 
L 116.402632 59.489975 
L 127.849737 66.672577 
L 139.296842 74.028125 
L 150.743947 81.187389 
L 162.191053 88.825916 
L 173.638158 96.016381 
L 185.085263 102.826028 
L 196.532368 109.565781 
L 207.979474 115.26336 
L 219.426579 121.281633 
L 230.873684 126.743665 
L 242.320789 131.670896 
L 253.767895 136.937165 
L 265.215 140.837331 
" clip-path="url(#p21d24ea19c)" style="fill: none; stroke: #9467bd; stroke-width: 1.5; stroke-linecap: square"/>
   </g>
   <g id="line2d_14">
    <path d="M 47.72 34.082264 
L 59.167105 34.632325 
L 70.614211 36.059192 
L 82.061316 38.068502 
L 93.508421 40.826003 
L 104.955526 44.589655 
L 116.402632 49.088871 
L 127.849737 54.12755 
L 139.296842 59.792232 
L 150.743947 65.570823 
L 162.191053 71.855005 
L 173.638158 78.279713 
L 185.085263 84.560092 
L 196.532368 91.126088 
L 207.979474 97.082275 
L 219.426579 103.412643 
L 230.873684 109.111354 
L 242.320789 114.802063 
L 253.767895 120.293247 
L 265.215 125.129919 
" clip-path="url(#p21d24ea19c)" style="fill: none; stroke: #8c564b; stroke-width: 1.5; stroke-linecap: square"/>
   </g>
   <g id="line2d_15">
    <path d="M 47.72 48.675995 
L 59.167105 49.892433 
L 70.614211 53.117401 
L 82.061316 58.041813 
L 93.508421 64.050946 
L 104.955526 71.327568 
L 116.402632 78.856729 
L 127.849737 86.745716 
L 139.296842 94.877186 
L 150.743947 102.533115 
L 162.191053 110.459374 
L 173.638158 117.989079 
L 185.085263 124.918807 
L 196.532368 131.812627 
L 207.979474 137.734739 
L 219.426579 142.938725 
L 230.873684 147.371229 
L 242.320789 152.049695 
L 253.767895 155.775428 
L 265.215 159.233537 
" clip-path="url(#p21d24ea19c)" style="fill: none; stroke: #e377c2; stroke-width: 1.5; stroke-linecap: square"/>
   </g>
   <g id="line2d_16">
    <path d="M 47.72 34.067358 
L 59.167105 34.358067 
L 70.614211 34.576835 
L 82.061316 35.007884 
L 93.508421 36.018695 
L 104.955526 37.825858 
L 116.402632 40.313851 
L 127.849737 43.824796 
L 139.296842 47.87534 
L 150.743947 52.462464 
L 162.191053 57.757418 
L 173.638158 63.431215 
L 185.085263 69.281217 
L 196.532368 75.773586 
L 207.979474 81.86718 
L 219.426579 88.315298 
L 230.873684 94.380488 
L 242.320789 100.877716 
L 253.767895 106.471204 
L 265.215 112.170095 
" clip-path="url(#p21d24ea19c)" style="fill: none; stroke: #7f7f7f; stroke-width: 1.5; stroke-linecap: square"/>
   </g>
   <g id="patch_3">
    <path d="M 47.72 174.04 
L 47.72 26.88 
" style="fill: none; stroke: #000000; stroke-width: 0.8; stroke-linejoin: miter; stroke-linecap: square"/>
   </g>
   <g id="patch_4">
    <path d="M 47.72 174.04 
L 265.215 174.04 
" style="fill: none; stroke: #000000; stroke-width: 0.8; stroke-linejoin: miter; stroke-linecap: square"/>
   </g>
   <g id="text_11">
    <!-- Node * surprisal -->
    <g transform="translate(108.18625 20.88)scale(0.12 -0.12)">
     <defs>
      <path id="DejaVuSans-4e" d="M 628 4666 
L 1478 4666 
L 3547 763 
L 3547 4666 
L 4159 4666 
L 4159 0 
L 3309 0 
L 1241 3903 
L 1241 0 
L 628 0 
L 628 4666 
z
" transform="scale(0.015625)"/>
      <path id="DejaVuSans-64" d="M 2906 2969 
L 2906 4863 
L 3481 4863 
L 3481 0 
L 2906 0 
L 2906 525 
Q 2725 213 2448 61 
Q 2172 -91 1784 -91 
Q 1150 -91 751 415 
Q 353 922 353 1747 
Q 353 2572 751 3078 
Q 1150 3584 1784 3584 
Q 2172 3584 2448 3432 
Q 2725 3281 2906 2969 
z
M 947 1747 
Q 947 1113 1208 752 
Q 1469 391 1925 391 
Q 2381 391 2643 752 
Q 2906 1113 2906 1747 
Q 2906 2381 2643 2742 
Q 2381 3103 1925 3103 
Q 1469 3103 1208 2742 
Q 947 2381 947 1747 
z
" transform="scale(0.015625)"/>
      <path id="DejaVuSans-2a" d="M 3009 3897 
L 1888 3291 
L 3009 2681 
L 2828 2375 
L 1778 3009 
L 1778 1831 
L 1422 1831 
L 1422 3009 
L 372 2375 
L 191 2681 
L 1313 3291 
L 191 3897 
L 372 4206 
L 1422 3572 
L 1422 4750 
L 1778 4750 
L 1778 3572 
L 2828 4206 
L 3009 3897 
z
" transform="scale(0.015625)"/>
     </defs>
     <use xlink:href="#DejaVuSans-4e"/>
     <use xlink:href="#DejaVuSans-6f" x="74.804688"/>
     <use xlink:href="#DejaVuSans-64" x="135.986328"/>
     <use xlink:href="#DejaVuSans-65" x="199.462891"/>
     <use xlink:href="#DejaVuSans-20" x="260.986328"/>
     <use xlink:href="#DejaVuSans-2a" x="292.773438"/>
     <use xlink:href="#DejaVuSans-20" x="342.773438"/>
     <use xlink:href="#DejaVuSans-73" x="374.560547"/>
     <use xlink:href="#DejaVuSans-75" x="426.660156"/>
     <use xlink:href="#DejaVuSans-72" x="490.039062"/>
     <use xlink:href="#DejaVuSans-70" x="531.152344"/>
     <use xlink:href="#DejaVuSans-72" x="594.628906"/>
     <use xlink:href="#DejaVuSans-69" x="635.742188"/>
     <use xlink:href="#DejaVuSans-73" x="663.525391"/>
     <use xlink:href="#DejaVuSans-61" x="715.625"/>
     <use xlink:href="#DejaVuSans-6c" x="776.904297"/>
    </g>
   </g>
  </g>
  <g id="axes_2">
   <g id="patch_5">
    <path d="M 298.065 174.04 
L 515.56 174.04 
L 515.56 26.88 
L 298.065 26.88 
z
" style="fill: #ffffff"/>
   </g>
   <g id="PolyCollection_9">
    <path d="M 298.065 33.635376 
L 298.065 34.358435 
L 309.512105 35.27364 
L 320.959211 38.494779 
L 332.406316 42.986982 
L 343.853421 48.984065 
L 355.300526 55.612227 
L 366.747632 63.253946 
L 378.194737 70.447673 
L 389.641842 78.593823 
L 401.088947 85.832788 
L 412.536053 93.910312 
L 423.983158 100.893973 
L 435.430263 108.448821 
L 446.877368 114.518348 
L 458.324474 121.418787 
L 469.771579 127.088657 
L 481.218684 132.226866 
L 492.665789 137.458563 
L 504.112895 142.113337 
L 515.56 146.016161 
L 515.56 139.326662 
L 515.56 139.326662 
L 504.112895 134.134685 
L 492.665789 129.089421 
L 481.218684 123.586364 
L 469.771579 118.016634 
L 458.324474 111.748798 
L 446.877368 105.636543 
L 435.430263 99.088877 
L 423.983158 91.656594 
L 412.536053 85.060456 
L 401.088947 77.914442 
L 389.641842 70.803338 
L 378.194737 63.486983 
L 366.747632 56.814868 
L 355.300526 50.613074 
L 343.853421 45.226978 
L 332.406316 40.681982 
L 320.959211 37.072551 
L 309.512105 34.569371 
L 298.065 33.635376 
z
" clip-path="url(#p75d64b2417)" style="fill: #1f77b4; fill-opacity: 0.4"/>
   </g>
   <g id="PolyCollection_10">
    <path d="M 298.065 33.653214 
L 298.065 34.379059 
L 309.512105 35.291918 
L 320.959211 38.532126 
L 332.406316 43.039147 
L 343.853421 49.071397 
L 355.300526 55.733285 
L 366.747632 63.384605 
L 378.194737 70.605595 
L 389.641842 78.794699 
L 401.088947 86.070763 
L 412.536053 94.156045 
L 423.983158 101.177222 
L 435.430263 108.779011 
L 446.877368 114.898583 
L 458.324474 121.78817 
L 469.771579 127.526834 
L 481.218684 132.737161 
L 492.665789 138.011145 
L 504.112895 142.765058 
L 515.56 146.722247 
L 515.56 139.593666 
L 515.56 139.593666 
L 504.112895 134.309785 
L 492.665789 129.231555 
L 481.218684 123.713923 
L 469.771579 118.081974 
L 458.324474 111.838651 
L 446.877368 105.73347 
L 435.430263 99.176913 
L 423.983158 91.736028 
L 412.536053 85.145399 
L 401.088947 77.993018 
L 389.641842 70.858681 
L 378.194737 63.573275 
L 366.747632 56.861578 
L 355.300526 50.660576 
L 343.853421 45.269543 
L 332.406316 40.719908 
L 320.959211 37.103015 
L 309.512105 34.593194 
L 298.065 33.653214 
z
" clip-path="url(#p75d64b2417)" style="fill: #ff7f0e; fill-opacity: 0.4"/>
   </g>
   <g id="PolyCollection_11">
    <path d="M 298.065 33.643664 
L 298.065 34.364282 
L 309.512105 35.295199 
L 320.959211 38.513048 
L 332.406316 43.019719 
L 343.853421 49.043031 
L 355.300526 55.717875 
L 366.747632 63.43821 
L 378.194737 70.656048 
L 389.641842 78.867086 
L 401.088947 86.180414 
L 412.536053 94.371777 
L 423.983158 101.456922 
L 435.430263 109.144325 
L 446.877368 115.311995 
L 458.324474 122.19174 
L 469.771579 127.93455 
L 481.218684 133.124323 
L 492.665789 138.419868 
L 504.112895 143.076029 
L 515.56 146.989504 
L 515.56 139.92416 
L 515.56 139.92416 
L 504.112895 134.56583 
L 492.665789 129.466952 
L 481.218684 123.796097 
L 469.771579 118.191312 
L 458.324474 111.829969 
L 446.877368 105.723315 
L 435.430263 99.021071 
L 423.983158 91.616439 
L 412.536053 85.022066 
L 401.088947 77.83181 
L 389.641842 70.784266 
L 378.194737 63.467522 
L 366.747632 56.779902 
L 355.300526 50.634225 
L 343.853421 45.232878 
L 332.406316 40.713332 
L 320.959211 37.115283 
L 309.512105 34.579105 
L 298.065 33.643664 
z
" clip-path="url(#p75d64b2417)" style="fill: #2ca02c; fill-opacity: 0.4"/>
   </g>
   <g id="PolyCollection_12">
    <path d="M 298.065 33.661231 
L 298.065 34.395458 
L 309.512105 35.320131 
L 320.959211 38.553045 
L 332.406316 43.050328 
L 343.853421 49.094633 
L 355.300526 55.766745 
L 366.747632 63.474839 
L 378.194737 70.703164 
L 389.641842 78.931246 
L 401.088947 86.259551 
L 412.536053 94.445839 
L 423.983158 101.506527 
L 435.430263 109.24137 
L 446.877368 115.388733 
L 458.324474 122.28465 
L 469.771579 128.083043 
L 481.218684 133.355904 
L 492.665789 138.667047 
L 504.112895 143.383777 
L 515.56 147.303242 
L 515.56 140.228664 
L 515.56 140.228664 
L 504.112895 134.77546 
L 492.665789 129.659649 
L 481.218684 123.985681 
L 469.771579 118.309613 
L 458.324474 111.954461 
L 446.877368 105.841945 
L 435.430263 99.150571 
L 423.983158 91.715506 
L 412.536053 85.127459 
L 401.088947 77.922633 
L 389.641842 70.841491 
L 378.194737 63.533691 
L 366.747632 56.836606 
L 355.300526 50.684325 
L 343.853421 45.270658 
L 332.406316 40.742833 
L 320.959211 37.136169 
L 309.512105 34.610626 
L 298.065 33.661231 
z
" clip-path="url(#p75d64b2417)" style="fill: #d62728; fill-opacity: 0.4"/>
   </g>
   <g id="PolyCollection_13">
    <path d="M 298.065 33.672131 
L 298.065 34.37116 
L 309.512105 35.289319 
L 320.959211 38.527429 
L 332.406316 43.010011 
L 343.853421 49.063876 
L 355.300526 55.627749 
L 366.747632 63.325773 
L 378.194737 70.440046 
L 389.641842 78.732011 
L 401.088947 86.162742 
L 412.536053 93.902392 
L 423.983158 101.093609 
L 435.430263 108.405962 
L 446.877368 114.49856 
L 458.324474 121.595856 
L 469.771579 127.381453 
L 481.218684 132.616837 
L 492.665789 137.577024 
L 504.112895 143.48341 
L 515.56 146.533074 
L 515.56 139.534628 
L 515.56 139.534628 
L 504.112895 134.593527 
L 492.665789 129.290188 
L 481.218684 123.621261 
L 469.771579 118.643715 
L 458.324474 111.762975 
L 446.877368 106.02415 
L 435.430263 99.267151 
L 423.983158 91.792144 
L 412.536053 86.143386 
L 401.088947 78.102634 
L 389.641842 70.928279 
L 378.194737 63.489536 
L 366.747632 56.893524 
L 355.300526 50.81798 
L 343.853421 45.237984 
L 332.406316 40.701281 
L 320.959211 37.096202 
L 309.512105 34.582691 
L 298.065 33.672131 
z
" clip-path="url(#p75d64b2417)" style="fill: #9467bd; fill-opacity: 0.4"/>
   </g>
   <g id="PolyCollection_14">
    <path d="M 298.065 33.690044 
L 298.065 34.391736 
L 309.512105 35.308847 
L 320.959211 38.565238 
L 332.406316 43.060835 
L 343.853421 49.15286 
L 355.300526 55.755904 
L 366.747632 63.453602 
L 378.194737 70.591437 
L 389.641842 78.939225 
L 401.088947 86.403408 
L 412.536053 94.130927 
L 423.983158 101.37581 
L 435.430263 108.757296 
L 446.877368 114.874141 
L 458.324474 121.959484 
L 469.771579 127.789313 
L 481.218684 133.107164 
L 492.665789 138.113775 
L 504.112895 144.102098 
L 515.56 147.182941 
L 515.56 139.845097 
L 515.56 139.845097 
L 504.112895 134.792366 
L 492.665789 129.440537 
L 481.218684 123.773675 
L 469.771579 118.728943 
L 458.324474 111.867531 
L 446.877368 106.124524 
L 435.430263 99.348999 
L 423.983158 91.872714 
L 412.536053 86.23393 
L 401.088947 78.186584 
L 389.641842 70.977201 
L 378.194737 63.582887 
L 366.747632 56.943135 
L 355.300526 50.87094 
L 343.853421 45.28285 
L 332.406316 40.742738 
L 320.959211 37.129975 
L 309.512105 34.606971 
L 298.065 33.690044 
z
" clip-path="url(#p75d64b2417)" style="fill: #8c564b; fill-opacity: 0.4"/>
   </g>
   <g id="PolyCollection_15">
    <path d="M 298.065 47.025984 
L 298.065 50.274004 
L 309.512105 51.22591 
L 320.959211 54.055264 
L 332.406316 58.078009 
L 343.853421 63.749145 
L 355.300526 69.710991 
L 366.747632 76.675502 
L 378.194737 83.321934 
L 389.641842 90.650714 
L 401.088947 97.549587 
L 412.536053 104.968252 
L 423.983158 111.238624 
L 435.430263 118.421275 
L 446.877368 123.862365 
L 458.324474 130.101822 
L 469.771579 134.995676 
L 481.218684 139.992312 
L 492.665789 144.481591 
L 504.112895 148.571359 
L 515.56 152.072956 
L 515.56 145.249361 
L 515.56 145.249361 
L 504.112895 140.274728 
L 492.665789 135.44435 
L 481.218684 130.218761 
L 469.771579 125.014667 
L 458.324474 119.108754 
L 446.877368 113.653319 
L 435.430263 107.245915 
L 423.983158 100.918462 
L 412.536053 94.851209 
L 401.088947 88.429575 
L 389.641842 81.938823 
L 378.194737 75.262161 
L 366.747632 68.969695 
L 355.300526 63.296718 
L 343.853421 58.113687 
L 332.406316 53.810827 
L 320.959211 50.30621 
L 309.512105 47.78657 
L 298.065 47.025984 
z
" clip-path="url(#p75d64b2417)" style="fill: #e377c2; fill-opacity: 0.4"/>
   </g>
   <g id="PolyCollection_16">
    <path d="M 298.065 33.672571 
L 298.065 34.396714 
L 309.512105 35.324412 
L 320.959211 38.553831 
L 332.406316 43.065914 
L 343.853421 49.144389 
L 355.300526 55.821064 
L 366.747632 63.521642 
L 378.194737 70.786859 
L 389.641842 79.010825 
L 401.088947 86.295019 
L 412.536053 94.417454 
L 423.983158 101.452197 
L 435.430263 109.102932 
L 446.877368 115.232843 
L 458.324474 122.07157 
L 469.771579 127.886583 
L 481.218684 133.111193 
L 492.665789 138.363796 
L 504.112895 143.078369 
L 515.56 147.035148 
L 515.56 140.093485 
L 515.56 140.093485 
L 504.112895 134.841919 
L 492.665789 129.722748 
L 481.218684 124.098676 
L 469.771579 118.358532 
L 458.324474 112.059215 
L 446.877368 105.946201 
L 435.430263 99.257508 
L 423.983158 91.817614 
L 412.536053 85.196515 
L 401.088947 78.002421 
L 389.641842 70.820764 
L 378.194737 63.554864 
L 366.747632 56.858287 
L 355.300526 50.685075 
L 343.853421 45.290593 
L 332.406316 40.743316 
L 320.959211 37.148077 
L 309.512105 34.610269 
L 298.065 33.672571 
z
" clip-path="url(#p75d64b2417)" style="fill: #7f7f7f; fill-opacity: 0.4"/>
   </g>
   <g id="matplotlib.axis_3">
    <g id="xtick_6">
     <g id="line2d_17">
      <g>
       <use xlink:href="#m0d2995aaa0" x="298.065" y="174.04" style="stroke: #000000; stroke-width: 0.8"/>
      </g>
     </g>
     <g id="text_12">
      <!-- 0.0 -->
      <g transform="translate(290.113437 188.638438)scale(0.1 -0.1)">
       <use xlink:href="#DejaVuSans-30"/>
       <use xlink:href="#DejaVuSans-2e" x="63.623047"/>
       <use xlink:href="#DejaVuSans-30" x="95.410156"/>
      </g>
     </g>
    </g>
    <g id="xtick_7">
     <g id="line2d_18">
      <g>
       <use xlink:href="#m0d2995aaa0" x="352.43875" y="174.04" style="stroke: #000000; stroke-width: 0.8"/>
      </g>
     </g>
     <g id="text_13">
      <!-- 0.5 -->
      <g transform="translate(344.487187 188.638438)scale(0.1 -0.1)">
       <use xlink:href="#DejaVuSans-30"/>
       <use xlink:href="#DejaVuSans-2e" x="63.623047"/>
       <use xlink:href="#DejaVuSans-35" x="95.410156"/>
      </g>
     </g>
    </g>
    <g id="xtick_8">
     <g id="line2d_19">
      <g>
       <use xlink:href="#m0d2995aaa0" x="406.8125" y="174.04" style="stroke: #000000; stroke-width: 0.8"/>
      </g>
     </g>
     <g id="text_14">
      <!-- 1.0 -->
      <g transform="translate(398.860937 188.638438)scale(0.1 -0.1)">
       <use xlink:href="#DejaVuSans-31"/>
       <use xlink:href="#DejaVuSans-2e" x="63.623047"/>
       <use xlink:href="#DejaVuSans-30" x="95.410156"/>
      </g>
     </g>
    </g>
    <g id="xtick_9">
     <g id="line2d_20">
      <g>
       <use xlink:href="#m0d2995aaa0" x="461.18625" y="174.04" style="stroke: #000000; stroke-width: 0.8"/>
      </g>
     </g>
     <g id="text_15">
      <!-- 1.5 -->
      <g transform="translate(453.234687 188.638438)scale(0.1 -0.1)">
       <use xlink:href="#DejaVuSans-31"/>
       <use xlink:href="#DejaVuSans-2e" x="63.623047"/>
       <use xlink:href="#DejaVuSans-35" x="95.410156"/>
      </g>
     </g>
    </g>
    <g id="xtick_10">
     <g id="line2d_21">
      <g>
       <use xlink:href="#m0d2995aaa0" x="515.56" y="174.04" style="stroke: #000000; stroke-width: 0.8"/>
      </g>
     </g>
     <g id="text_16">
      <!-- 2.0 -->
      <g transform="translate(507.608437 188.638438)scale(0.1 -0.1)">
       <use xlink:href="#DejaVuSans-32"/>
       <use xlink:href="#DejaVuSans-2e" x="63.623047"/>
       <use xlink:href="#DejaVuSans-30" x="95.410156"/>
      </g>
     </g>
    </g>
    <g id="text_17">
     <!-- Influence of surprisal (multiplication) -->
     <g transform="translate(314.665625 202.316563)scale(0.1 -0.1)">
      <use xlink:href="#DejaVuSans-49"/>
      <use xlink:href="#DejaVuSans-6e" x="29.492188"/>
      <use xlink:href="#DejaVuSans-66" x="92.871094"/>
      <use xlink:href="#DejaVuSans-6c" x="128.076172"/>
      <use xlink:href="#DejaVuSans-75" x="155.859375"/>
      <use xlink:href="#DejaVuSans-65" x="219.238281"/>
      <use xlink:href="#DejaVuSans-6e" x="280.761719"/>
      <use xlink:href="#DejaVuSans-63" x="344.140625"/>
      <use xlink:href="#DejaVuSans-65" x="399.121094"/>
      <use xlink:href="#DejaVuSans-20" x="460.644531"/>
      <use xlink:href="#DejaVuSans-6f" x="492.431641"/>
      <use xlink:href="#DejaVuSans-66" x="553.613281"/>
      <use xlink:href="#DejaVuSans-20" x="588.818359"/>
      <use xlink:href="#DejaVuSans-73" x="620.605469"/>
      <use xlink:href="#DejaVuSans-75" x="672.705078"/>
      <use xlink:href="#DejaVuSans-72" x="736.083984"/>
      <use xlink:href="#DejaVuSans-70" x="777.197266"/>
      <use xlink:href="#DejaVuSans-72" x="840.673828"/>
      <use xlink:href="#DejaVuSans-69" x="881.787109"/>
      <use xlink:href="#DejaVuSans-73" x="909.570312"/>
      <use xlink:href="#DejaVuSans-61" x="961.669922"/>
      <use xlink:href="#DejaVuSans-6c" x="1022.949219"/>
      <use xlink:href="#DejaVuSans-20" x="1050.732422"/>
      <use xlink:href="#DejaVuSans-28" x="1082.519531"/>
      <use xlink:href="#DejaVuSans-6d" x="1121.533203"/>
      <use xlink:href="#DejaVuSans-75" x="1218.945312"/>
      <use xlink:href="#DejaVuSans-6c" x="1282.324219"/>
      <use xlink:href="#DejaVuSans-74" x="1310.107422"/>
      <use xlink:href="#DejaVuSans-69" x="1349.316406"/>
      <use xlink:href="#DejaVuSans-70" x="1377.099609"/>
      <use xlink:href="#DejaVuSans-6c" x="1440.576172"/>
      <use xlink:href="#DejaVuSans-69" x="1468.359375"/>
      <use xlink:href="#DejaVuSans-63" x="1496.142578"/>
      <use xlink:href="#DejaVuSans-61" x="1551.123047"/>
      <use xlink:href="#DejaVuSans-74" x="1612.402344"/>
      <use xlink:href="#DejaVuSans-69" x="1651.611328"/>
      <use xlink:href="#DejaVuSans-6f" x="1679.394531"/>
      <use xlink:href="#DejaVuSans-6e" x="1740.576172"/>
      <use xlink:href="#DejaVuSans-29" x="1803.955078"/>
     </g>
    </g>
   </g>
   <g id="line2d_22">
    <path d="M 298.065 33.996905 
L 309.512105 34.921506 
L 320.959211 37.783665 
L 332.406316 41.834482 
L 343.853421 47.105521 
L 355.300526 53.11265 
L 366.747632 60.034407 
L 378.194737 66.967328 
L 389.641842 74.698581 
L 401.088947 81.873615 
L 412.536053 89.485384 
L 423.983158 96.275284 
L 435.430263 103.768849 
L 446.877368 110.077446 
L 458.324474 116.583793 
L 469.771579 122.552646 
L 481.218684 127.906615 
L 492.665789 133.273992 
L 504.112895 138.124011 
L 515.56 142.671411 
" clip-path="url(#p75d64b2417)" style="fill: none; stroke: #1f77b4; stroke-width: 1.5; stroke-linecap: square"/>
   </g>
   <g id="line2d_23">
    <path d="M 298.065 34.016137 
L 309.512105 34.942556 
L 320.959211 37.817571 
L 332.406316 41.879528 
L 343.853421 47.17047 
L 355.300526 53.196931 
L 366.747632 60.123092 
L 378.194737 67.089435 
L 389.641842 74.82669 
L 401.088947 82.03189 
L 412.536053 89.650722 
L 423.983158 96.456625 
L 435.430263 103.977962 
L 446.877368 110.316026 
L 458.324474 116.813411 
L 469.771579 122.804404 
L 481.218684 128.225542 
L 492.665789 133.62135 
L 504.112895 138.537421 
L 515.56 143.157956 
" clip-path="url(#p75d64b2417)" style="fill: none; stroke: #ff7f0e; stroke-width: 1.5; stroke-linecap: square"/>
   </g>
   <g id="line2d_24">
    <path d="M 298.065 34.003973 
L 309.512105 34.937152 
L 320.959211 37.814166 
L 332.406316 41.866526 
L 343.853421 47.137954 
L 355.300526 53.17605 
L 366.747632 60.109056 
L 378.194737 67.061785 
L 389.641842 74.825676 
L 401.088947 82.006112 
L 412.536053 89.696922 
L 423.983158 96.536681 
L 435.430263 104.082698 
L 446.877368 110.517655 
L 458.324474 117.010855 
L 469.771579 123.062931 
L 481.218684 128.46021 
L 492.665789 133.94341 
L 504.112895 138.82093 
L 515.56 143.456832 
" clip-path="url(#p75d64b2417)" style="fill: none; stroke: #2ca02c; stroke-width: 1.5; stroke-linecap: square"/>
   </g>
   <g id="line2d_25">
    <path d="M 298.065 34.028344 
L 309.512105 34.965379 
L 320.959211 37.844607 
L 332.406316 41.89658 
L 343.853421 47.182645 
L 355.300526 53.225535 
L 366.747632 60.155723 
L 378.194737 67.118427 
L 389.641842 74.886368 
L 401.088947 82.091092 
L 412.536053 89.786649 
L 423.983158 96.611017 
L 435.430263 104.195971 
L 446.877368 110.615339 
L 458.324474 117.119556 
L 469.771579 123.196328 
L 481.218684 128.670793 
L 492.665789 134.163348 
L 504.112895 139.079618 
L 515.56 143.765953 
" clip-path="url(#p75d64b2417)" style="fill: none; stroke: #d62728; stroke-width: 1.5; stroke-linecap: square"/>
   </g>
   <g id="line2d_26">
    <path d="M 298.065 34.021645 
L 309.512105 34.936005 
L 320.959211 37.811815 
L 332.406316 41.855646 
L 343.853421 47.15093 
L 355.300526 53.222864 
L 366.747632 60.109649 
L 378.194737 66.964791 
L 389.641842 74.830145 
L 401.088947 82.132688 
L 412.536053 90.022889 
L 423.983158 96.442876 
L 435.430263 103.836557 
L 446.877368 110.261355 
L 458.324474 116.679416 
L 469.771579 123.012584 
L 481.218684 128.119049 
L 492.665789 133.433606 
L 504.112895 139.038468 
L 515.56 143.033851 
" clip-path="url(#p75d64b2417)" style="fill: none; stroke: #9467bd; stroke-width: 1.5; stroke-linecap: square"/>
   </g>
   <g id="line2d_27">
    <path d="M 298.065 34.04089 
L 309.512105 34.957909 
L 320.959211 37.847606 
L 332.406316 41.901787 
L 343.853421 47.217855 
L 355.300526 53.313422 
L 366.747632 60.198368 
L 378.194737 67.087162 
L 389.641842 74.958213 
L 401.088947 82.294996 
L 412.536053 90.182429 
L 423.983158 96.624262 
L 435.430263 104.053148 
L 446.877368 110.499333 
L 458.324474 116.913508 
L 469.771579 123.259128 
L 481.218684 128.44042 
L 492.665789 133.777156 
L 504.112895 139.447232 
L 515.56 143.514019 
" clip-path="url(#p75d64b2417)" style="fill: none; stroke: #8c564b; stroke-width: 1.5; stroke-linecap: square"/>
   </g>
   <g id="line2d_28">
    <path d="M 298.065 48.649994 
L 309.512105 49.50624 
L 320.959211 52.180737 
L 332.406316 55.944418 
L 343.853421 60.931416 
L 355.300526 66.503855 
L 366.747632 72.822598 
L 378.194737 79.292048 
L 389.641842 86.294768 
L 401.088947 92.989581 
L 412.536053 99.909731 
L 423.983158 106.078543 
L 435.430263 112.833595 
L 446.877368 118.757842 
L 458.324474 124.605288 
L 469.771579 130.005171 
L 481.218684 135.105536 
L 492.665789 139.962971 
L 504.112895 144.423043 
L 515.56 148.661159 
" clip-path="url(#p75d64b2417)" style="fill: none; stroke: #e377c2; stroke-width: 1.5; stroke-linecap: square"/>
   </g>
   <g id="line2d_29">
    <path d="M 298.065 34.034642 
L 309.512105 34.96734 
L 320.959211 37.850954 
L 332.406316 41.904615 
L 343.853421 47.217491 
L 355.300526 53.253069 
L 366.747632 60.189964 
L 378.194737 67.170862 
L 389.641842 74.915794 
L 401.088947 82.14872 
L 412.536053 89.806984 
L 423.983158 96.634906 
L 435.430263 104.18022 
L 446.877368 110.589522 
L 458.324474 117.065393 
L 469.771579 123.122557 
L 481.218684 128.604934 
L 492.665789 134.043272 
L 504.112895 138.960144 
L 515.56 143.564316 
" clip-path="url(#p75d64b2417)" style="fill: none; stroke: #7f7f7f; stroke-width: 1.5; stroke-linecap: square"/>
   </g>
   <g id="patch_6">
    <path d="M 298.065 174.04 
L 298.065 26.88 
" style="fill: none; stroke: #000000; stroke-width: 0.8; stroke-linejoin: miter; stroke-linecap: square"/>
   </g>
   <g id="patch_7">
    <path d="M 298.065 174.04 
L 515.56 174.04 
" style="fill: none; stroke: #000000; stroke-width: 0.8; stroke-linejoin: miter; stroke-linecap: square"/>
   </g>
   <g id="text_18">
    <!-- Node * third variable -->
    <g transform="translate(344.2325 20.88)scale(0.12 -0.12)">
     <defs>
      <path id="DejaVuSans-68" d="M 3513 2113 
L 3513 0 
L 2938 0 
L 2938 2094 
Q 2938 2591 2744 2837 
Q 2550 3084 2163 3084 
Q 1697 3084 1428 2787 
Q 1159 2491 1159 1978 
L 1159 0 
L 581 0 
L 581 4863 
L 1159 4863 
L 1159 2956 
Q 1366 3272 1645 3428 
Q 1925 3584 2291 3584 
Q 2894 3584 3203 3211 
Q 3513 2838 3513 2113 
z
" transform="scale(0.015625)"/>
      <path id="DejaVuSans-62" d="M 3116 1747 
Q 3116 2381 2855 2742 
Q 2594 3103 2138 3103 
Q 1681 3103 1420 2742 
Q 1159 2381 1159 1747 
Q 1159 1113 1420 752 
Q 1681 391 2138 391 
Q 2594 391 2855 752 
Q 3116 1113 3116 1747 
z
M 1159 2969 
Q 1341 3281 1617 3432 
Q 1894 3584 2278 3584 
Q 2916 3584 3314 3078 
Q 3713 2572 3713 1747 
Q 3713 922 3314 415 
Q 2916 -91 2278 -91 
Q 1894 -91 1617 61 
Q 1341 213 1159 525 
L 1159 0 
L 581 0 
L 581 4863 
L 1159 4863 
L 1159 2969 
z
" transform="scale(0.015625)"/>
     </defs>
     <use xlink:href="#DejaVuSans-4e"/>
     <use xlink:href="#DejaVuSans-6f" x="74.804688"/>
     <use xlink:href="#DejaVuSans-64" x="135.986328"/>
     <use xlink:href="#DejaVuSans-65" x="199.462891"/>
     <use xlink:href="#DejaVuSans-20" x="260.986328"/>
     <use xlink:href="#DejaVuSans-2a" x="292.773438"/>
     <use xlink:href="#DejaVuSans-20" x="342.773438"/>
     <use xlink:href="#DejaVuSans-74" x="374.560547"/>
     <use xlink:href="#DejaVuSans-68" x="413.769531"/>
     <use xlink:href="#DejaVuSans-69" x="477.148438"/>
     <use xlink:href="#DejaVuSans-72" x="504.931641"/>
     <use xlink:href="#DejaVuSans-64" x="544.294922"/>
     <use xlink:href="#DejaVuSans-20" x="607.771484"/>
     <use xlink:href="#DejaVuSans-76" x="639.558594"/>
     <use xlink:href="#DejaVuSans-61" x="698.738281"/>
     <use xlink:href="#DejaVuSans-72" x="760.017578"/>
     <use xlink:href="#DejaVuSans-69" x="801.130859"/>
     <use xlink:href="#DejaVuSans-61" x="828.914062"/>
     <use xlink:href="#DejaVuSans-62" x="890.193359"/>
     <use xlink:href="#DejaVuSans-6c" x="953.669922"/>
     <use xlink:href="#DejaVuSans-65" x="981.453125"/>
    </g>
   </g>
   <g id="legend_1">
    <g id="line2d_30">
     <path d="M 524.56 39.978437 
L 534.56 39.978437 
L 544.56 39.978437 
" style="fill: none; stroke: #1f77b4; stroke-width: 1.5; stroke-linecap: square"/>
    </g>
    <g id="text_19">
     <!-- Node -->
     <g transform="translate(552.56 43.478437)scale(0.1 -0.1)">
      <use xlink:href="#DejaVuSans-4e"/>
      <use xlink:href="#DejaVuSans-6f" x="74.804688"/>
      <use xlink:href="#DejaVuSans-64" x="135.986328"/>
      <use xlink:href="#DejaVuSans-65" x="199.462891"/>
     </g>
    </g>
    <g id="line2d_31">
     <path d="M 524.56 54.656563 
L 534.56 54.656563 
L 544.56 54.656563 
" style="fill: none; stroke: #ff7f0e; stroke-width: 1.5; stroke-linecap: square"/>
    </g>
    <g id="text_20">
     <!-- Node + surprisal -->
     <g transform="translate(552.56 58.156563)scale(0.1 -0.1)">
      <defs>
       <path id="DejaVuSans-2b" d="M 2944 4013 
L 2944 2272 
L 4684 2272 
L 4684 1741 
L 2944 1741 
L 2944 0 
L 2419 0 
L 2419 1741 
L 678 1741 
L 678 2272 
L 2419 2272 
L 2419 4013 
L 2944 4013 
z
" transform="scale(0.015625)"/>
      </defs>
      <use xlink:href="#DejaVuSans-4e"/>
      <use xlink:href="#DejaVuSans-6f" x="74.804688"/>
      <use xlink:href="#DejaVuSans-64" x="135.986328"/>
      <use xlink:href="#DejaVuSans-65" x="199.462891"/>
      <use xlink:href="#DejaVuSans-20" x="260.986328"/>
      <use xlink:href="#DejaVuSans-2b" x="292.773438"/>
      <use xlink:href="#DejaVuSans-20" x="376.5625"/>
      <use xlink:href="#DejaVuSans-73" x="408.349609"/>
      <use xlink:href="#DejaVuSans-75" x="460.449219"/>
      <use xlink:href="#DejaVuSans-72" x="523.828125"/>
      <use xlink:href="#DejaVuSans-70" x="564.941406"/>
      <use xlink:href="#DejaVuSans-72" x="628.417969"/>
      <use xlink:href="#DejaVuSans-69" x="669.53125"/>
      <use xlink:href="#DejaVuSans-73" x="697.314453"/>
      <use xlink:href="#DejaVuSans-61" x="749.414062"/>
      <use xlink:href="#DejaVuSans-6c" x="810.693359"/>
     </g>
    </g>
    <g id="line2d_32">
     <path d="M 524.56 69.334687 
L 534.56 69.334687 
L 544.56 69.334687 
" style="fill: none; stroke: #2ca02c; stroke-width: 1.5; stroke-linecap: square"/>
    </g>
    <g id="text_21">
     <!-- Node split -->
     <g transform="translate(552.56 72.834687)scale(0.1 -0.1)">
      <use xlink:href="#DejaVuSans-4e"/>
      <use xlink:href="#DejaVuSans-6f" x="74.804688"/>
      <use xlink:href="#DejaVuSans-64" x="135.986328"/>
      <use xlink:href="#DejaVuSans-65" x="199.462891"/>
      <use xlink:href="#DejaVuSans-20" x="260.986328"/>
      <use xlink:href="#DejaVuSans-73" x="292.773438"/>
      <use xlink:href="#DejaVuSans-70" x="344.873047"/>
      <use xlink:href="#DejaVuSans-6c" x="408.349609"/>
      <use xlink:href="#DejaVuSans-69" x="436.132812"/>
      <use xlink:href="#DejaVuSans-74" x="463.916016"/>
     </g>
    </g>
    <g id="line2d_33">
     <path d="M 524.56 84.012812 
L 534.56 84.012812 
L 544.56 84.012812 
" style="fill: none; stroke: #d62728; stroke-width: 1.5; stroke-linecap: square"/>
    </g>
    <g id="text_22">
     <!-- Node split + surprisal -->
     <g transform="translate(552.56 87.512812)scale(0.1 -0.1)">
      <use xlink:href="#DejaVuSans-4e"/>
      <use xlink:href="#DejaVuSans-6f" x="74.804688"/>
      <use xlink:href="#DejaVuSans-64" x="135.986328"/>
      <use xlink:href="#DejaVuSans-65" x="199.462891"/>
      <use xlink:href="#DejaVuSans-20" x="260.986328"/>
      <use xlink:href="#DejaVuSans-73" x="292.773438"/>
      <use xlink:href="#DejaVuSans-70" x="344.873047"/>
      <use xlink:href="#DejaVuSans-6c" x="408.349609"/>
      <use xlink:href="#DejaVuSans-69" x="436.132812"/>
      <use xlink:href="#DejaVuSans-74" x="463.916016"/>
      <use xlink:href="#DejaVuSans-20" x="503.125"/>
      <use xlink:href="#DejaVuSans-2b" x="534.912109"/>
      <use xlink:href="#DejaVuSans-20" x="618.701172"/>
      <use xlink:href="#DejaVuSans-73" x="650.488281"/>
      <use xlink:href="#DejaVuSans-75" x="702.587891"/>
      <use xlink:href="#DejaVuSans-72" x="765.966797"/>
      <use xlink:href="#DejaVuSans-70" x="807.080078"/>
      <use xlink:href="#DejaVuSans-72" x="870.556641"/>
      <use xlink:href="#DejaVuSans-69" x="911.669922"/>
      <use xlink:href="#DejaVuSans-73" x="939.453125"/>
      <use xlink:href="#DejaVuSans-61" x="991.552734"/>
      <use xlink:href="#DejaVuSans-6c" x="1052.832031"/>
     </g>
    </g>
    <g id="line2d_34">
     <path d="M 524.56 98.690937 
L 534.56 98.690937 
L 544.56 98.690937 
" style="fill: none; stroke: #9467bd; stroke-width: 1.5; stroke-linecap: square"/>
    </g>
    <g id="text_23">
     <!-- Node random split -->
     <g transform="translate(552.56 102.190937)scale(0.1 -0.1)">
      <use xlink:href="#DejaVuSans-4e"/>
      <use xlink:href="#DejaVuSans-6f" x="74.804688"/>
      <use xlink:href="#DejaVuSans-64" x="135.986328"/>
      <use xlink:href="#DejaVuSans-65" x="199.462891"/>
      <use xlink:href="#DejaVuSans-20" x="260.986328"/>
      <use xlink:href="#DejaVuSans-72" x="292.773438"/>
      <use xlink:href="#DejaVuSans-61" x="333.886719"/>
      <use xlink:href="#DejaVuSans-6e" x="395.166016"/>
      <use xlink:href="#DejaVuSans-64" x="458.544922"/>
      <use xlink:href="#DejaVuSans-6f" x="522.021484"/>
      <use xlink:href="#DejaVuSans-6d" x="583.203125"/>
      <use xlink:href="#DejaVuSans-20" x="680.615234"/>
      <use xlink:href="#DejaVuSans-73" x="712.402344"/>
      <use xlink:href="#DejaVuSans-70" x="764.501953"/>
      <use xlink:href="#DejaVuSans-6c" x="827.978516"/>
      <use xlink:href="#DejaVuSans-69" x="855.761719"/>
      <use xlink:href="#DejaVuSans-74" x="883.544922"/>
     </g>
    </g>
    <g id="line2d_35">
     <path d="M 524.56 113.369062 
L 534.56 113.369062 
L 544.56 113.369062 
" style="fill: none; stroke: #8c564b; stroke-width: 1.5; stroke-linecap: square"/>
    </g>
    <g id="text_24">
     <!-- Node random split + surprisal -->
     <g transform="translate(552.56 116.869062)scale(0.1 -0.1)">
      <use xlink:href="#DejaVuSans-4e"/>
      <use xlink:href="#DejaVuSans-6f" x="74.804688"/>
      <use xlink:href="#DejaVuSans-64" x="135.986328"/>
      <use xlink:href="#DejaVuSans-65" x="199.462891"/>
      <use xlink:href="#DejaVuSans-20" x="260.986328"/>
      <use xlink:href="#DejaVuSans-72" x="292.773438"/>
      <use xlink:href="#DejaVuSans-61" x="333.886719"/>
      <use xlink:href="#DejaVuSans-6e" x="395.166016"/>
      <use xlink:href="#DejaVuSans-64" x="458.544922"/>
      <use xlink:href="#DejaVuSans-6f" x="522.021484"/>
      <use xlink:href="#DejaVuSans-6d" x="583.203125"/>
      <use xlink:href="#DejaVuSans-20" x="680.615234"/>
      <use xlink:href="#DejaVuSans-73" x="712.402344"/>
      <use xlink:href="#DejaVuSans-70" x="764.501953"/>
      <use xlink:href="#DejaVuSans-6c" x="827.978516"/>
      <use xlink:href="#DejaVuSans-69" x="855.761719"/>
      <use xlink:href="#DejaVuSans-74" x="883.544922"/>
      <use xlink:href="#DejaVuSans-20" x="922.753906"/>
      <use xlink:href="#DejaVuSans-2b" x="954.541016"/>
      <use xlink:href="#DejaVuSans-20" x="1038.330078"/>
      <use xlink:href="#DejaVuSans-73" x="1070.117188"/>
      <use xlink:href="#DejaVuSans-75" x="1122.216797"/>
      <use xlink:href="#DejaVuSans-72" x="1185.595703"/>
      <use xlink:href="#DejaVuSans-70" x="1226.708984"/>
      <use xlink:href="#DejaVuSans-72" x="1290.185547"/>
      <use xlink:href="#DejaVuSans-69" x="1331.298828"/>
      <use xlink:href="#DejaVuSans-73" x="1359.082031"/>
      <use xlink:href="#DejaVuSans-61" x="1411.181641"/>
      <use xlink:href="#DejaVuSans-6c" x="1472.460938"/>
     </g>
    </g>
    <g id="line2d_36">
     <path d="M 524.56 128.047187 
L 534.56 128.047187 
L 544.56 128.047187 
" style="fill: none; stroke: #e377c2; stroke-width: 1.5; stroke-linecap: square"/>
    </g>
    <g id="text_25">
     <!-- Interaction -->
     <g transform="translate(552.56 131.547187)scale(0.1 -0.1)">
      <use xlink:href="#DejaVuSans-49"/>
      <use xlink:href="#DejaVuSans-6e" x="29.492188"/>
      <use xlink:href="#DejaVuSans-74" x="92.871094"/>
      <use xlink:href="#DejaVuSans-65" x="132.080078"/>
      <use xlink:href="#DejaVuSans-72" x="193.603516"/>
      <use xlink:href="#DejaVuSans-61" x="234.716797"/>
      <use xlink:href="#DejaVuSans-63" x="295.996094"/>
      <use xlink:href="#DejaVuSans-74" x="350.976562"/>
      <use xlink:href="#DejaVuSans-69" x="390.185547"/>
      <use xlink:href="#DejaVuSans-6f" x="417.96875"/>
      <use xlink:href="#DejaVuSans-6e" x="479.150391"/>
     </g>
    </g>
    <g id="line2d_37">
     <path d="M 524.56 142.725312 
L 534.56 142.725312 
L 544.56 142.725312 
" style="fill: none; stroke: #7f7f7f; stroke-width: 1.5; stroke-linecap: square"/>
    </g>
    <g id="text_26">
     <!-- Node + surprisal + interaction -->
     <g transform="translate(552.56 146.225312)scale(0.1 -0.1)">
      <use xlink:href="#DejaVuSans-4e"/>
      <use xlink:href="#DejaVuSans-6f" x="74.804688"/>
      <use xlink:href="#DejaVuSans-64" x="135.986328"/>
      <use xlink:href="#DejaVuSans-65" x="199.462891"/>
      <use xlink:href="#DejaVuSans-20" x="260.986328"/>
      <use xlink:href="#DejaVuSans-2b" x="292.773438"/>
      <use xlink:href="#DejaVuSans-20" x="376.5625"/>
      <use xlink:href="#DejaVuSans-73" x="408.349609"/>
      <use xlink:href="#DejaVuSans-75" x="460.449219"/>
      <use xlink:href="#DejaVuSans-72" x="523.828125"/>
      <use xlink:href="#DejaVuSans-70" x="564.941406"/>
      <use xlink:href="#DejaVuSans-72" x="628.417969"/>
      <use xlink:href="#DejaVuSans-69" x="669.53125"/>
      <use xlink:href="#DejaVuSans-73" x="697.314453"/>
      <use xlink:href="#DejaVuSans-61" x="749.414062"/>
      <use xlink:href="#DejaVuSans-6c" x="810.693359"/>
      <use xlink:href="#DejaVuSans-20" x="838.476562"/>
      <use xlink:href="#DejaVuSans-2b" x="870.263672"/>
      <use xlink:href="#DejaVuSans-20" x="954.052734"/>
      <use xlink:href="#DejaVuSans-69" x="985.839844"/>
      <use xlink:href="#DejaVuSans-6e" x="1013.623047"/>
      <use xlink:href="#DejaVuSans-74" x="1077.001953"/>
      <use xlink:href="#DejaVuSans-65" x="1116.210938"/>
      <use xlink:href="#DejaVuSans-72" x="1177.734375"/>
      <use xlink:href="#DejaVuSans-61" x="1218.847656"/>
      <use xlink:href="#DejaVuSans-63" x="1280.126953"/>
      <use xlink:href="#DejaVuSans-74" x="1335.107422"/>
      <use xlink:href="#DejaVuSans-69" x="1374.316406"/>
      <use xlink:href="#DejaVuSans-6f" x="1402.099609"/>
      <use xlink:href="#DejaVuSans-6e" x="1463.28125"/>
     </g>
    </g>
   </g>
  </g>
 </g>
 <defs>
  <clipPath id="p21d24ea19c">
   <rect x="47.72" y="26.88" width="217.495" height="147.16"/>
  </clipPath>
  <clipPath id="p75d64b2417">
   <rect x="298.065" y="26.88" width="217.495" height="147.16"/>
  </clipPath>
 </defs>
</svg>
