<?xml version="1.0" encoding="utf-8" standalone="no"?>
<!DOCTYPE svg PUBLIC "-//W3C//DTD SVG 1.1//EN"
  "http://www.w3.org/Graphics/SVG/1.1/DTD/svg11.dtd">
<svg xmlns:xlink="http://www.w3.org/1999/xlink" width="720pt" height="216pt" viewBox="0 0 720 216" xmlns="http://www.w3.org/2000/svg" version="1.1">
 <metadata>
  <rdf:RDF xmlns:dc="http://purl.org/dc/elements/1.1/" xmlns:cc="http://creativecommons.org/ns#" xmlns:rdf="http://www.w3.org/1999/02/22-rdf-syntax-ns#">
   <cc:Work>
    <dc:type rdf:resource="http://purl.org/dc/dcmitype/StillImage"/>
    <dc:date>2024-01-15T23:51:36.357864</dc:date>
    <dc:format>image/svg+xml</dc:format>
    <dc:creator>
     <cc:Agent>
      <dc:title>Matplotlib v3.5.1, https://matplotlib.org/</dc:title>
     </cc:Agent>
    </dc:creator>
   </cc:Work>
  </rdf:RDF>
 </metadata>
 <defs>
  <style type="text/css">*{stroke-linejoin: round; stroke-linecap: butt}</style>
 </defs>
 <g id="figure_1">
  <g id="patch_1">
   <path d="M 0 216 
L 720 216 
L 720 0 
L 0 0 
z
" style="fill: #ffffff"/>
  </g>
  <g id="axes_1">
   <g id="patch_2">
    <path d="M 47.72 174.04 
L 265.215 174.04 
L 265.215 26.88 
L 47.72 26.88 
z
" style="fill: #ffffff"/>
   </g>
   <g id="PolyCollection_1">
    <path d="M 47.72 33.569091 
L 47.72 34.729874 
L 59.167105 35.789535 
L 70.614211 38.39999 
L 82.061316 43.177984 
L 93.508421 49.406051 
L 104.955526 56.329553 
L 116.402632 64.30447 
L 127.849737 72.226126 
L 139.296842 80.356032 
L 150.743947 87.919088 
L 162.191053 95.601887 
L 173.638158 102.199742 
L 185.085263 108.877855 
L 196.532368 115.196965 
L 207.979474 121.071323 
L 219.426579 126.187658 
L 230.873684 131.586316 
L 242.320789 136.524708 
L 253.767895 141.25188 
L 265.215 146.455236 
L 265.215 131.173575 
L 265.215 131.173575 
L 253.767895 125.998619 
L 242.320789 121.36486 
L 230.873684 117.643641 
L 219.426579 111.932943 
L 207.979474 106.349075 
L 196.532368 100.171905 
L 185.085263 95.249434 
L 173.638158 88.768599 
L 162.191053 82.654474 
L 150.743947 76.421659 
L 139.296842 69.45844 
L 127.849737 63.534349 
L 116.402632 56.77499 
L 104.955526 51.187915 
L 93.508421 45.848799 
L 82.061316 41.141724 
L 70.614211 37.430452 
L 59.167105 34.649448 
L 47.72 33.569091 
z
" clip-path="url(#pf0839f1b2e)" style="fill: #1f77b4; fill-opacity: 0.4"/>
   </g>
   <g id="PolyCollection_2">
    <path d="M 47.72 33.589428 
L 47.72 34.747775 
L 59.167105 35.523739 
L 70.614211 36.73791 
L 82.061316 39.205792 
L 93.508421 42.664602 
L 104.955526 46.933408 
L 116.402632 52.582365 
L 127.849737 58.864139 
L 139.296842 65.503356 
L 150.743947 72.805481 
L 162.191053 80.213013 
L 173.638158 87.215926 
L 185.085263 93.837378 
L 196.532368 100.329474 
L 207.979474 106.179514 
L 219.426579 111.127774 
L 230.873684 116.440277 
L 242.320789 121.257736 
L 253.767895 125.932098 
L 265.215 131.579598 
L 265.215 118.436825 
L 265.215 118.436825 
L 253.767895 113.143324 
L 242.320789 108.466997 
L 230.873684 104.076561 
L 219.426579 98.157509 
L 207.979474 92.341341 
L 196.532368 86.218717 
L 185.085263 81.181721 
L 173.638158 74.759432 
L 162.191053 69.206771 
L 150.743947 63.441867 
L 139.296842 57.864372 
L 127.849737 53.264119 
L 116.402632 48.195894 
L 104.955526 44.386467 
L 93.508421 40.930241 
L 82.061316 37.989808 
L 70.614211 35.789984 
L 59.167105 34.26403 
L 47.72 33.589428 
z
" clip-path="url(#pf0839f1b2e)" style="fill: #ff7f0e; fill-opacity: 0.4"/>
   </g>
   <g id="PolyCollection_3">
    <path d="M 47.72 33.584242 
L 47.72 34.746856 
L 59.167105 35.630253 
L 70.614211 36.683125 
L 82.061316 38.928547 
L 93.508421 41.724172 
L 104.955526 45.144597 
L 116.402632 49.322387 
L 127.849737 53.178241 
L 139.296842 57.061771 
L 150.743947 61.458125 
L 162.191053 65.329494 
L 173.638158 69.154384 
L 185.085263 72.642329 
L 196.532368 76.541658 
L 207.979474 79.757929 
L 219.426579 83.04855 
L 230.873684 86.502925 
L 242.320789 89.583258 
L 253.767895 92.908433 
L 265.215 96.617314 
L 265.215 86.985458 
L 265.215 86.985458 
L 253.767895 83.658059 
L 242.320789 80.860025 
L 230.873684 77.733794 
L 219.426579 73.940674 
L 207.979474 70.908626 
L 196.532368 67.557685 
L 185.085263 64.548571 
L 173.638158 61.037518 
L 162.191053 57.730379 
L 150.743947 54.420086 
L 139.296842 51.266367 
L 127.849737 48.355565 
L 116.402632 44.911162 
L 104.955526 42.353651 
L 93.508421 39.976602 
L 82.061316 37.742705 
L 70.614211 35.845081 
L 59.167105 34.451107 
L 47.72 33.584242 
z
" clip-path="url(#pf0839f1b2e)" style="fill: #2ca02c; fill-opacity: 0.4"/>
   </g>
   <g id="PolyCollection_4">
    <path d="M 47.72 33.605261 
L 47.72 34.763035 
L 59.167105 35.514334 
L 70.614211 36.195917 
L 82.061316 37.742514 
L 93.508421 39.759512 
L 104.955526 42.380945 
L 116.402632 45.98899 
L 127.849737 49.57538 
L 139.296842 53.459136 
L 150.743947 58.032529 
L 162.191053 62.379275 
L 173.638158 66.651246 
L 185.085263 70.528825 
L 196.532368 74.848621 
L 207.979474 78.297025 
L 219.426579 81.874181 
L 230.873684 85.543486 
L 242.320789 88.875311 
L 253.767895 92.1982 
L 265.215 95.990191 
L 265.215 85.878816 
L 265.215 85.878816 
L 253.767895 82.452347 
L 242.320789 79.399566 
L 230.873684 76.151284 
L 219.426579 72.189672 
L 207.979474 68.964536 
L 196.532368 65.448517 
L 185.085263 62.36324 
L 173.638158 58.741356 
L 162.191053 55.360782 
L 150.743947 51.925968 
L 139.296842 48.766486 
L 127.849737 46.160416 
L 116.402632 42.90186 
L 104.955526 40.694883 
L 93.508421 38.626464 
L 82.061316 36.783166 
L 70.614211 35.301602 
L 59.167105 34.261505 
L 47.72 33.605261 
z
" clip-path="url(#pf0839f1b2e)" style="fill: #d62728; fill-opacity: 0.4"/>
   </g>
   <g id="PolyCollection_5">
    <path d="M 47.72 33.579711 
L 47.72 34.749995 
L 59.167105 35.819127 
L 70.614211 38.433335 
L 82.061316 43.196638 
L 93.508421 49.483727 
L 104.955526 56.40119 
L 116.402632 64.29425 
L 127.849737 72.415406 
L 139.296842 80.373753 
L 150.743947 87.857504 
L 162.191053 95.595457 
L 173.638158 102.199871 
L 185.085263 109.299813 
L 196.532368 115.523232 
L 207.979474 121.644286 
L 219.426579 126.541319 
L 230.873684 131.852018 
L 242.320789 137.228194 
L 253.767895 141.745748 
L 265.215 146.781258 
L 265.215 131.370715 
L 265.215 131.370715 
L 253.767895 126.328375 
L 242.320789 121.965915 
L 230.873684 117.690396 
L 219.426579 112.35409 
L 207.979474 106.640579 
L 196.532368 100.785896 
L 185.085263 95.362762 
L 173.638158 89.170708 
L 162.191053 82.775223 
L 150.743947 76.680461 
L 139.296842 69.527427 
L 127.849737 63.625016 
L 116.402632 56.842856 
L 104.955526 51.372266 
L 93.508421 45.871808 
L 82.061316 41.119486 
L 70.614211 37.438659 
L 59.167105 34.667122 
L 47.72 33.579711 
z
" clip-path="url(#pf0839f1b2e)" style="fill: #9467bd; fill-opacity: 0.4"/>
   </g>
   <g id="PolyCollection_6">
    <path d="M 47.72 33.600925 
L 47.72 34.767598 
L 59.167105 35.547941 
L 70.614211 36.756027 
L 82.061316 39.200188 
L 93.508421 42.698644 
L 104.955526 47.009763 
L 116.402632 52.603496 
L 127.849737 58.931366 
L 139.296842 65.556327 
L 150.743947 72.788055 
L 162.191053 80.239728 
L 173.638158 87.267031 
L 185.085263 94.115833 
L 196.532368 100.651391 
L 207.979474 106.548196 
L 219.426579 111.338588 
L 230.873684 116.563857 
L 242.320789 121.702854 
L 253.767895 126.359236 
L 265.215 131.876787 
L 265.215 118.607176 
L 265.215 118.607176 
L 253.767895 113.31356 
L 242.320789 108.74958 
L 230.873684 104.300326 
L 219.426579 98.543548 
L 207.979474 92.629002 
L 196.532368 86.637856 
L 185.085263 81.378808 
L 173.638158 74.909508 
L 162.191053 69.221264 
L 150.743947 63.626276 
L 139.296842 57.984227 
L 127.849737 53.357433 
L 116.402632 48.240465 
L 104.955526 44.409536 
L 93.508421 40.957697 
L 82.061316 37.996565 
L 70.614211 35.811403 
L 59.167105 34.287188 
L 47.72 33.600925 
z
" clip-path="url(#pf0839f1b2e)" style="fill: #8c564b; fill-opacity: 0.4"/>
   </g>
   <g id="PolyCollection_7">
    <path d="M 47.72 47.605268 
L 47.72 51.301898 
L 59.167105 52.982618 
L 70.614211 56.681818 
L 82.061316 62.96844 
L 93.508421 70.632432 
L 104.955526 79.308481 
L 116.402632 89.119312 
L 127.849737 98.389765 
L 139.296842 107.745184 
L 150.743947 116.583813 
L 162.191053 125.005994 
L 173.638158 131.928003 
L 185.085263 138.311805 
L 196.532368 144.309604 
L 207.979474 149.282763 
L 219.426579 153.357975 
L 230.873684 157.052744 
L 242.320789 160.553993 
L 253.767895 163.569829 
L 265.215 167.350909 
L 265.215 149.045003 
L 265.215 149.045003 
L 253.767895 144.697693 
L 242.320789 140.411259 
L 230.873684 136.803533 
L 219.426579 131.529158 
L 207.979474 126.38626 
L 196.532368 120.811348 
L 185.085263 116.11797 
L 173.638158 109.91286 
L 162.191053 103.603626 
L 150.743947 97.113383 
L 139.296842 89.701716 
L 127.849737 83.132728 
L 116.402632 75.074731 
L 104.955526 68.434409 
L 93.508421 62.048614 
L 82.061316 56.17176 
L 70.614211 51.556751 
L 59.167105 48.701559 
L 47.72 47.605268 
z
" clip-path="url(#pf0839f1b2e)" style="fill: #e377c2; fill-opacity: 0.4"/>
   </g>
   <g id="PolyCollection_8">
    <path d="M 47.72 33.592538 
L 47.72 34.76249 
L 59.167105 35.215326 
L 70.614211 35.006996 
L 82.061316 35.580895 
L 93.508421 36.638566 
L 104.955526 38.882953 
L 116.402632 42.487696 
L 127.849737 47.322003 
L 139.296842 52.704358 
L 150.743947 59.576505 
L 162.191053 66.444157 
L 173.638158 73.432017 
L 185.085263 80.568796 
L 196.532368 87.591173 
L 207.979474 94.22125 
L 219.426579 100.131949 
L 230.873684 106.253108 
L 242.320789 111.684709 
L 253.767895 116.836445 
L 265.215 122.8648 
L 265.215 104.712328 
L 265.215 104.712328 
L 253.767895 99.033031 
L 242.320789 94.085158 
L 230.873684 89.129844 
L 219.426579 83.120714 
L 207.979474 77.33804 
L 196.532368 71.402865 
L 185.085263 66.171742 
L 173.638158 60.477884 
L 162.191053 55.206003 
L 150.743947 50.210471 
L 139.296842 45.854359 
L 127.849737 42.315644 
L 116.402632 39.071692 
L 104.955526 37.113483 
L 93.508421 35.658454 
L 82.061316 34.672255 
L 70.614211 34.138141 
L 59.167105 33.928124 
L 47.72 33.592538 
z
" clip-path="url(#pf0839f1b2e)" style="fill: #7f7f7f; fill-opacity: 0.4"/>
   </g>
   <g id="matplotlib.axis_1">
    <g id="xtick_1">
     <g id="line2d_1">
      <defs>
       <path id="m5eafaec55b" d="M 0 0 
L 0 3.5 
" style="stroke: #000000; stroke-width: 0.8"/>
      </defs>
      <g>
       <use xlink:href="#m5eafaec55b" x="47.72" y="174.04" style="stroke: #000000; stroke-width: 0.8"/>
      </g>
     </g>
     <g id="text_1">
      <!-- 0.0 -->
      <g transform="translate(39.768438 188.638438)scale(0.1 -0.1)">
       <defs>
        <path id="DejaVuSans-30" d="M 2034 4250 
Q 1547 4250 1301 3770 
Q 1056 3291 1056 2328 
Q 1056 1369 1301 889 
Q 1547 409 2034 409 
Q 2525 409 2770 889 
Q 3016 1369 3016 2328 
Q 3016 3291 2770 3770 
Q 2525 4250 2034 4250 
z
M 2034 4750 
Q 2819 4750 3233 4129 
Q 3647 3509 3647 2328 
Q 3647 1150 3233 529 
Q 2819 -91 2034 -91 
Q 1250 -91 836 529 
Q 422 1150 422 2328 
Q 422 3509 836 4129 
Q 1250 4750 2034 4750 
z
" transform="scale(0.015625)"/>
        <path id="DejaVuSans-2e" d="M 684 794 
L 1344 794 
L 1344 0 
L 684 0 
L 684 794 
z
" transform="scale(0.015625)"/>
       </defs>
       <use xlink:href="#DejaVuSans-30"/>
       <use xlink:href="#DejaVuSans-2e" x="63.623047"/>
       <use xlink:href="#DejaVuSans-30" x="95.410156"/>
      </g>
     </g>
    </g>
    <g id="xtick_2">
     <g id="line2d_2">
      <g>
       <use xlink:href="#m5eafaec55b" x="102.09375" y="174.04" style="stroke: #000000; stroke-width: 0.8"/>
      </g>
     </g>
     <g id="text_2">
      <!-- 0.5 -->
      <g transform="translate(94.142188 188.638438)scale(0.1 -0.1)">
       <defs>
        <path id="DejaVuSans-35" d="M 691 4666 
L 3169 4666 
L 3169 4134 
L 1269 4134 
L 1269 2991 
Q 1406 3038 1543 3061 
Q 1681 3084 1819 3084 
Q 2600 3084 3056 2656 
Q 3513 2228 3513 1497 
Q 3513 744 3044 326 
Q 2575 -91 1722 -91 
Q 1428 -91 1123 -41 
Q 819 9 494 109 
L 494 744 
Q 775 591 1075 516 
Q 1375 441 1709 441 
Q 2250 441 2565 725 
Q 2881 1009 2881 1497 
Q 2881 1984 2565 2268 
Q 2250 2553 1709 2553 
Q 1456 2553 1204 2497 
Q 953 2441 691 2322 
L 691 4666 
z
" transform="scale(0.015625)"/>
       </defs>
       <use xlink:href="#DejaVuSans-30"/>
       <use xlink:href="#DejaVuSans-2e" x="63.623047"/>
       <use xlink:href="#DejaVuSans-35" x="95.410156"/>
      </g>
     </g>
    </g>
    <g id="xtick_3">
     <g id="line2d_3">
      <g>
       <use xlink:href="#m5eafaec55b" x="156.4675" y="174.04" style="stroke: #000000; stroke-width: 0.8"/>
      </g>
     </g>
     <g id="text_3">
      <!-- 1.0 -->
      <g transform="translate(148.515938 188.638438)scale(0.1 -0.1)">
       <defs>
        <path id="DejaVuSans-31" d="M 794 531 
L 1825 531 
L 1825 4091 
L 703 3866 
L 703 4441 
L 1819 4666 
L 2450 4666 
L 2450 531 
L 3481 531 
L 3481 0 
L 794 0 
L 794 531 
z
" transform="scale(0.015625)"/>
       </defs>
       <use xlink:href="#DejaVuSans-31"/>
       <use xlink:href="#DejaVuSans-2e" x="63.623047"/>
       <use xlink:href="#DejaVuSans-30" x="95.410156"/>
      </g>
     </g>
    </g>
    <g id="xtick_4">
     <g id="line2d_4">
      <g>
       <use xlink:href="#m5eafaec55b" x="210.84125" y="174.04" style="stroke: #000000; stroke-width: 0.8"/>
      </g>
     </g>
     <g id="text_4">
      <!-- 1.5 -->
      <g transform="translate(202.889687 188.638438)scale(0.1 -0.1)">
       <use xlink:href="#DejaVuSans-31"/>
       <use xlink:href="#DejaVuSans-2e" x="63.623047"/>
       <use xlink:href="#DejaVuSans-35" x="95.410156"/>
      </g>
     </g>
    </g>
    <g id="xtick_5">
     <g id="line2d_5">
      <g>
       <use xlink:href="#m5eafaec55b" x="265.215" y="174.04" style="stroke: #000000; stroke-width: 0.8"/>
      </g>
     </g>
     <g id="text_5">
      <!-- 2.0 -->
      <g transform="translate(257.263437 188.638438)scale(0.1 -0.1)">
       <defs>
        <path id="DejaVuSans-32" d="M 1228 531 
L 3431 531 
L 3431 0 
L 469 0 
L 469 531 
Q 828 903 1448 1529 
Q 2069 2156 2228 2338 
Q 2531 2678 2651 2914 
Q 2772 3150 2772 3378 
Q 2772 3750 2511 3984 
Q 2250 4219 1831 4219 
Q 1534 4219 1204 4116 
Q 875 4013 500 3803 
L 500 4441 
Q 881 4594 1212 4672 
Q 1544 4750 1819 4750 
Q 2544 4750 2975 4387 
Q 3406 4025 3406 3419 
Q 3406 3131 3298 2873 
Q 3191 2616 2906 2266 
Q 2828 2175 2409 1742 
Q 1991 1309 1228 531 
z
" transform="scale(0.015625)"/>
       </defs>
       <use xlink:href="#DejaVuSans-32"/>
       <use xlink:href="#DejaVuSans-2e" x="63.623047"/>
       <use xlink:href="#DejaVuSans-30" x="95.410156"/>
      </g>
     </g>
    </g>
    <g id="text_6">
     <!-- Influence of surprisal (multiplication) -->
     <g transform="translate(64.320625 202.316563)scale(0.1 -0.1)">
      <defs>
       <path id="DejaVuSans-49" d="M 628 4666 
L 1259 4666 
L 1259 0 
L 628 0 
L 628 4666 
z
" transform="scale(0.015625)"/>
       <path id="DejaVuSans-6e" d="M 3513 2113 
L 3513 0 
L 2938 0 
L 2938 2094 
Q 2938 2591 2744 2837 
Q 2550 3084 2163 3084 
Q 1697 3084 1428 2787 
Q 1159 2491 1159 1978 
L 1159 0 
L 581 0 
L 581 3500 
L 1159 3500 
L 1159 2956 
Q 1366 3272 1645 3428 
Q 1925 3584 2291 3584 
Q 2894 3584 3203 3211 
Q 3513 2838 3513 2113 
z
" transform="scale(0.015625)"/>
       <path id="DejaVuSans-66" d="M 2375 4863 
L 2375 4384 
L 1825 4384 
Q 1516 4384 1395 4259 
Q 1275 4134 1275 3809 
L 1275 3500 
L 2222 3500 
L 2222 3053 
L 1275 3053 
L 1275 0 
L 697 0 
L 697 3053 
L 147 3053 
L 147 3500 
L 697 3500 
L 697 3744 
Q 697 4328 969 4595 
Q 1241 4863 1831 4863 
L 2375 4863 
z
" transform="scale(0.015625)"/>
       <path id="DejaVuSans-6c" d="M 603 4863 
L 1178 4863 
L 1178 0 
L 603 0 
L 603 4863 
z
" transform="scale(0.015625)"/>
       <path id="DejaVuSans-75" d="M 544 1381 
L 544 3500 
L 1119 3500 
L 1119 1403 
Q 1119 906 1312 657 
Q 1506 409 1894 409 
Q 2359 409 2629 706 
Q 2900 1003 2900 1516 
L 2900 3500 
L 3475 3500 
L 3475 0 
L 2900 0 
L 2900 538 
Q 2691 219 2414 64 
Q 2138 -91 1772 -91 
Q 1169 -91 856 284 
Q 544 659 544 1381 
z
M 1991 3584 
L 1991 3584 
z
" transform="scale(0.015625)"/>
       <path id="DejaVuSans-65" d="M 3597 1894 
L 3597 1613 
L 953 1613 
Q 991 1019 1311 708 
Q 1631 397 2203 397 
Q 2534 397 2845 478 
Q 3156 559 3463 722 
L 3463 178 
Q 3153 47 2828 -22 
Q 2503 -91 2169 -91 
Q 1331 -91 842 396 
Q 353 884 353 1716 
Q 353 2575 817 3079 
Q 1281 3584 2069 3584 
Q 2775 3584 3186 3129 
Q 3597 2675 3597 1894 
z
M 3022 2063 
Q 3016 2534 2758 2815 
Q 2500 3097 2075 3097 
Q 1594 3097 1305 2825 
Q 1016 2553 972 2059 
L 3022 2063 
z
" transform="scale(0.015625)"/>
       <path id="DejaVuSans-63" d="M 3122 3366 
L 3122 2828 
Q 2878 2963 2633 3030 
Q 2388 3097 2138 3097 
Q 1578 3097 1268 2742 
Q 959 2388 959 1747 
Q 959 1106 1268 751 
Q 1578 397 2138 397 
Q 2388 397 2633 464 
Q 2878 531 3122 666 
L 3122 134 
Q 2881 22 2623 -34 
Q 2366 -91 2075 -91 
Q 1284 -91 818 406 
Q 353 903 353 1747 
Q 353 2603 823 3093 
Q 1294 3584 2113 3584 
Q 2378 3584 2631 3529 
Q 2884 3475 3122 3366 
z
" transform="scale(0.015625)"/>
       <path id="DejaVuSans-20" transform="scale(0.015625)"/>
       <path id="DejaVuSans-6f" d="M 1959 3097 
Q 1497 3097 1228 2736 
Q 959 2375 959 1747 
Q 959 1119 1226 758 
Q 1494 397 1959 397 
Q 2419 397 2687 759 
Q 2956 1122 2956 1747 
Q 2956 2369 2687 2733 
Q 2419 3097 1959 3097 
z
M 1959 3584 
Q 2709 3584 3137 3096 
Q 3566 2609 3566 1747 
Q 3566 888 3137 398 
Q 2709 -91 1959 -91 
Q 1206 -91 779 398 
Q 353 888 353 1747 
Q 353 2609 779 3096 
Q 1206 3584 1959 3584 
z
" transform="scale(0.015625)"/>
       <path id="DejaVuSans-73" d="M 2834 3397 
L 2834 2853 
Q 2591 2978 2328 3040 
Q 2066 3103 1784 3103 
Q 1356 3103 1142 2972 
Q 928 2841 928 2578 
Q 928 2378 1081 2264 
Q 1234 2150 1697 2047 
L 1894 2003 
Q 2506 1872 2764 1633 
Q 3022 1394 3022 966 
Q 3022 478 2636 193 
Q 2250 -91 1575 -91 
Q 1294 -91 989 -36 
Q 684 19 347 128 
L 347 722 
Q 666 556 975 473 
Q 1284 391 1588 391 
Q 1994 391 2212 530 
Q 2431 669 2431 922 
Q 2431 1156 2273 1281 
Q 2116 1406 1581 1522 
L 1381 1569 
Q 847 1681 609 1914 
Q 372 2147 372 2553 
Q 372 3047 722 3315 
Q 1072 3584 1716 3584 
Q 2034 3584 2315 3537 
Q 2597 3491 2834 3397 
z
" transform="scale(0.015625)"/>
       <path id="DejaVuSans-72" d="M 2631 2963 
Q 2534 3019 2420 3045 
Q 2306 3072 2169 3072 
Q 1681 3072 1420 2755 
Q 1159 2438 1159 1844 
L 1159 0 
L 581 0 
L 581 3500 
L 1159 3500 
L 1159 2956 
Q 1341 3275 1631 3429 
Q 1922 3584 2338 3584 
Q 2397 3584 2469 3576 
Q 2541 3569 2628 3553 
L 2631 2963 
z
" transform="scale(0.015625)"/>
       <path id="DejaVuSans-70" d="M 1159 525 
L 1159 -1331 
L 581 -1331 
L 581 3500 
L 1159 3500 
L 1159 2969 
Q 1341 3281 1617 3432 
Q 1894 3584 2278 3584 
Q 2916 3584 3314 3078 
Q 3713 2572 3713 1747 
Q 3713 922 3314 415 
Q 2916 -91 2278 -91 
Q 1894 -91 1617 61 
Q 1341 213 1159 525 
z
M 3116 1747 
Q 3116 2381 2855 2742 
Q 2594 3103 2138 3103 
Q 1681 3103 1420 2742 
Q 1159 2381 1159 1747 
Q 1159 1113 1420 752 
Q 1681 391 2138 391 
Q 2594 391 2855 752 
Q 3116 1113 3116 1747 
z
" transform="scale(0.015625)"/>
       <path id="DejaVuSans-69" d="M 603 3500 
L 1178 3500 
L 1178 0 
L 603 0 
L 603 3500 
z
M 603 4863 
L 1178 4863 
L 1178 4134 
L 603 4134 
L 603 4863 
z
" transform="scale(0.015625)"/>
       <path id="DejaVuSans-61" d="M 2194 1759 
Q 1497 1759 1228 1600 
Q 959 1441 959 1056 
Q 959 750 1161 570 
Q 1363 391 1709 391 
Q 2188 391 2477 730 
Q 2766 1069 2766 1631 
L 2766 1759 
L 2194 1759 
z
M 3341 1997 
L 3341 0 
L 2766 0 
L 2766 531 
Q 2569 213 2275 61 
Q 1981 -91 1556 -91 
Q 1019 -91 701 211 
Q 384 513 384 1019 
Q 384 1609 779 1909 
Q 1175 2209 1959 2209 
L 2766 2209 
L 2766 2266 
Q 2766 2663 2505 2880 
Q 2244 3097 1772 3097 
Q 1472 3097 1187 3025 
Q 903 2953 641 2809 
L 641 3341 
Q 956 3463 1253 3523 
Q 1550 3584 1831 3584 
Q 2591 3584 2966 3190 
Q 3341 2797 3341 1997 
z
" transform="scale(0.015625)"/>
       <path id="DejaVuSans-28" d="M 1984 4856 
Q 1566 4138 1362 3434 
Q 1159 2731 1159 2009 
Q 1159 1288 1364 580 
Q 1569 -128 1984 -844 
L 1484 -844 
Q 1016 -109 783 600 
Q 550 1309 550 2009 
Q 550 2706 781 3412 
Q 1013 4119 1484 4856 
L 1984 4856 
z
" transform="scale(0.015625)"/>
       <path id="DejaVuSans-6d" d="M 3328 2828 
Q 3544 3216 3844 3400 
Q 4144 3584 4550 3584 
Q 5097 3584 5394 3201 
Q 5691 2819 5691 2113 
L 5691 0 
L 5113 0 
L 5113 2094 
Q 5113 2597 4934 2840 
Q 4756 3084 4391 3084 
Q 3944 3084 3684 2787 
Q 3425 2491 3425 1978 
L 3425 0 
L 2847 0 
L 2847 2094 
Q 2847 2600 2669 2842 
Q 2491 3084 2119 3084 
Q 1678 3084 1418 2786 
Q 1159 2488 1159 1978 
L 1159 0 
L 581 0 
L 581 3500 
L 1159 3500 
L 1159 2956 
Q 1356 3278 1631 3431 
Q 1906 3584 2284 3584 
Q 2666 3584 2933 3390 
Q 3200 3197 3328 2828 
z
" transform="scale(0.015625)"/>
       <path id="DejaVuSans-74" d="M 1172 4494 
L 1172 3500 
L 2356 3500 
L 2356 3053 
L 1172 3053 
L 1172 1153 
Q 1172 725 1289 603 
Q 1406 481 1766 481 
L 2356 481 
L 2356 0 
L 1766 0 
Q 1100 0 847 248 
Q 594 497 594 1153 
L 594 3053 
L 172 3053 
L 172 3500 
L 594 3500 
L 594 4494 
L 1172 4494 
z
" transform="scale(0.015625)"/>
       <path id="DejaVuSans-29" d="M 513 4856 
L 1013 4856 
Q 1481 4119 1714 3412 
Q 1947 2706 1947 2009 
Q 1947 1309 1714 600 
Q 1481 -109 1013 -844 
L 513 -844 
Q 928 -128 1133 580 
Q 1338 1288 1338 2009 
Q 1338 2731 1133 3434 
Q 928 4138 513 4856 
z
" transform="scale(0.015625)"/>
      </defs>
      <use xlink:href="#DejaVuSans-49"/>
      <use xlink:href="#DejaVuSans-6e" x="29.492188"/>
      <use xlink:href="#DejaVuSans-66" x="92.871094"/>
      <use xlink:href="#DejaVuSans-6c" x="128.076172"/>
      <use xlink:href="#DejaVuSans-75" x="155.859375"/>
      <use xlink:href="#DejaVuSans-65" x="219.238281"/>
      <use xlink:href="#DejaVuSans-6e" x="280.761719"/>
      <use xlink:href="#DejaVuSans-63" x="344.140625"/>
      <use xlink:href="#DejaVuSans-65" x="399.121094"/>
      <use xlink:href="#DejaVuSans-20" x="460.644531"/>
      <use xlink:href="#DejaVuSans-6f" x="492.431641"/>
      <use xlink:href="#DejaVuSans-66" x="553.613281"/>
      <use xlink:href="#DejaVuSans-20" x="588.818359"/>
      <use xlink:href="#DejaVuSans-73" x="620.605469"/>
      <use xlink:href="#DejaVuSans-75" x="672.705078"/>
      <use xlink:href="#DejaVuSans-72" x="736.083984"/>
      <use xlink:href="#DejaVuSans-70" x="777.197266"/>
      <use xlink:href="#DejaVuSans-72" x="840.673828"/>
      <use xlink:href="#DejaVuSans-69" x="881.787109"/>
      <use xlink:href="#DejaVuSans-73" x="909.570312"/>
      <use xlink:href="#DejaVuSans-61" x="961.669922"/>
      <use xlink:href="#DejaVuSans-6c" x="1022.949219"/>
      <use xlink:href="#DejaVuSans-20" x="1050.732422"/>
      <use xlink:href="#DejaVuSans-28" x="1082.519531"/>
      <use xlink:href="#DejaVuSans-6d" x="1121.533203"/>
      <use xlink:href="#DejaVuSans-75" x="1218.945312"/>
      <use xlink:href="#DejaVuSans-6c" x="1282.324219"/>
      <use xlink:href="#DejaVuSans-74" x="1310.107422"/>
      <use xlink:href="#DejaVuSans-69" x="1349.316406"/>
      <use xlink:href="#DejaVuSans-70" x="1377.099609"/>
      <use xlink:href="#DejaVuSans-6c" x="1440.576172"/>
      <use xlink:href="#DejaVuSans-69" x="1468.359375"/>
      <use xlink:href="#DejaVuSans-63" x="1496.142578"/>
      <use xlink:href="#DejaVuSans-61" x="1551.123047"/>
      <use xlink:href="#DejaVuSans-74" x="1612.402344"/>
      <use xlink:href="#DejaVuSans-69" x="1651.611328"/>
      <use xlink:href="#DejaVuSans-6f" x="1679.394531"/>
      <use xlink:href="#DejaVuSans-6e" x="1740.576172"/>
      <use xlink:href="#DejaVuSans-29" x="1803.955078"/>
     </g>
    </g>
   </g>
   <g id="matplotlib.axis_2">
    <g id="ytick_1">
     <g id="line2d_6">
      <defs>
       <path id="md73a829cad" d="M 0 0 
L -3.5 0 
" style="stroke: #000000; stroke-width: 0.8"/>
      </defs>
      <g>
       <use xlink:href="#md73a829cad" x="47.72" y="138.786263" style="stroke: #000000; stroke-width: 0.8"/>
      </g>
     </g>
     <g id="text_7">
      <!-- 0.4 -->
      <g transform="translate(24.816875 142.585481)scale(0.1 -0.1)">
       <defs>
        <path id="DejaVuSans-34" d="M 2419 4116 
L 825 1625 
L 2419 1625 
L 2419 4116 
z
M 2253 4666 
L 3047 4666 
L 3047 1625 
L 3713 1625 
L 3713 1100 
L 3047 1100 
L 3047 0 
L 2419 0 
L 2419 1100 
L 313 1100 
L 313 1709 
L 2253 4666 
z
" transform="scale(0.015625)"/>
       </defs>
       <use xlink:href="#DejaVuSans-30"/>
       <use xlink:href="#DejaVuSans-2e" x="63.623047"/>
       <use xlink:href="#DejaVuSans-34" x="95.410156"/>
      </g>
     </g>
    </g>
    <g id="ytick_2">
     <g id="line2d_7">
      <g>
       <use xlink:href="#md73a829cad" x="47.72" y="100.378083" style="stroke: #000000; stroke-width: 0.8"/>
      </g>
     </g>
     <g id="text_8">
      <!-- 0.6 -->
      <g transform="translate(24.816875 104.177302)scale(0.1 -0.1)">
       <defs>
        <path id="DejaVuSans-36" d="M 2113 2584 
Q 1688 2584 1439 2293 
Q 1191 2003 1191 1497 
Q 1191 994 1439 701 
Q 1688 409 2113 409 
Q 2538 409 2786 701 
Q 3034 994 3034 1497 
Q 3034 2003 2786 2293 
Q 2538 2584 2113 2584 
z
M 3366 4563 
L 3366 3988 
Q 3128 4100 2886 4159 
Q 2644 4219 2406 4219 
Q 1781 4219 1451 3797 
Q 1122 3375 1075 2522 
Q 1259 2794 1537 2939 
Q 1816 3084 2150 3084 
Q 2853 3084 3261 2657 
Q 3669 2231 3669 1497 
Q 3669 778 3244 343 
Q 2819 -91 2113 -91 
Q 1303 -91 875 529 
Q 447 1150 447 2328 
Q 447 3434 972 4092 
Q 1497 4750 2381 4750 
Q 2619 4750 2861 4703 
Q 3103 4656 3366 4563 
z
" transform="scale(0.015625)"/>
       </defs>
       <use xlink:href="#DejaVuSans-30"/>
       <use xlink:href="#DejaVuSans-2e" x="63.623047"/>
       <use xlink:href="#DejaVuSans-36" x="95.410156"/>
      </g>
     </g>
    </g>
    <g id="ytick_3">
     <g id="line2d_8">
      <g>
       <use xlink:href="#md73a829cad" x="47.72" y="61.969904" style="stroke: #000000; stroke-width: 0.8"/>
      </g>
     </g>
     <g id="text_9">
      <!-- 0.8 -->
      <g transform="translate(24.816875 65.769122)scale(0.1 -0.1)">
       <defs>
        <path id="DejaVuSans-38" d="M 2034 2216 
Q 1584 2216 1326 1975 
Q 1069 1734 1069 1313 
Q 1069 891 1326 650 
Q 1584 409 2034 409 
Q 2484 409 2743 651 
Q 3003 894 3003 1313 
Q 3003 1734 2745 1975 
Q 2488 2216 2034 2216 
z
M 1403 2484 
Q 997 2584 770 2862 
Q 544 3141 544 3541 
Q 544 4100 942 4425 
Q 1341 4750 2034 4750 
Q 2731 4750 3128 4425 
Q 3525 4100 3525 3541 
Q 3525 3141 3298 2862 
Q 3072 2584 2669 2484 
Q 3125 2378 3379 2068 
Q 3634 1759 3634 1313 
Q 3634 634 3220 271 
Q 2806 -91 2034 -91 
Q 1263 -91 848 271 
Q 434 634 434 1313 
Q 434 1759 690 2068 
Q 947 2378 1403 2484 
z
M 1172 3481 
Q 1172 3119 1398 2916 
Q 1625 2713 2034 2713 
Q 2441 2713 2670 2916 
Q 2900 3119 2900 3481 
Q 2900 3844 2670 4047 
Q 2441 4250 2034 4250 
Q 1625 4250 1398 4047 
Q 1172 3844 1172 3481 
z
" transform="scale(0.015625)"/>
       </defs>
       <use xlink:href="#DejaVuSans-30"/>
       <use xlink:href="#DejaVuSans-2e" x="63.623047"/>
       <use xlink:href="#DejaVuSans-38" x="95.410156"/>
      </g>
     </g>
    </g>
    <g id="text_10">
     <!-- R-value -->
     <g transform="translate(18.737188 119.064687)rotate(-90)scale(0.1 -0.1)">
      <defs>
       <path id="DejaVuSans-52" d="M 2841 2188 
Q 3044 2119 3236 1894 
Q 3428 1669 3622 1275 
L 4263 0 
L 3584 0 
L 2988 1197 
Q 2756 1666 2539 1819 
Q 2322 1972 1947 1972 
L 1259 1972 
L 1259 0 
L 628 0 
L 628 4666 
L 2053 4666 
Q 2853 4666 3247 4331 
Q 3641 3997 3641 3322 
Q 3641 2881 3436 2590 
Q 3231 2300 2841 2188 
z
M 1259 4147 
L 1259 2491 
L 2053 2491 
Q 2509 2491 2742 2702 
Q 2975 2913 2975 3322 
Q 2975 3731 2742 3939 
Q 2509 4147 2053 4147 
L 1259 4147 
z
" transform="scale(0.015625)"/>
       <path id="DejaVuSans-2d" d="M 313 2009 
L 1997 2009 
L 1997 1497 
L 313 1497 
L 313 2009 
z
" transform="scale(0.015625)"/>
       <path id="DejaVuSans-76" d="M 191 3500 
L 800 3500 
L 1894 563 
L 2988 3500 
L 3597 3500 
L 2284 0 
L 1503 0 
L 191 3500 
z
" transform="scale(0.015625)"/>
      </defs>
      <use xlink:href="#DejaVuSans-52"/>
      <use xlink:href="#DejaVuSans-2d" x="65.482422"/>
      <use xlink:href="#DejaVuSans-76" x="98.941406"/>
      <use xlink:href="#DejaVuSans-61" x="158.121094"/>
      <use xlink:href="#DejaVuSans-6c" x="219.400391"/>
      <use xlink:href="#DejaVuSans-75" x="247.183594"/>
      <use xlink:href="#DejaVuSans-65" x="310.5625"/>
     </g>
    </g>
   </g>
   <g id="line2d_9">
    <path d="M 47.72 34.149483 
L 59.167105 35.219492 
L 70.614211 37.915221 
L 82.061316 42.159854 
L 93.508421 47.627425 
L 104.955526 53.758734 
L 116.402632 60.53973 
L 127.849737 67.880238 
L 139.296842 74.907236 
L 150.743947 82.170373 
L 162.191053 89.12818 
L 173.638158 95.48417 
L 185.085263 102.063644 
L 196.532368 107.684435 
L 207.979474 113.710199 
L 219.426579 119.060301 
L 230.873684 124.614978 
L 242.320789 128.944784 
L 253.767895 133.625249 
L 265.215 138.814405 
" clip-path="url(#pf0839f1b2e)" style="fill: none; stroke: #1f77b4; stroke-width: 1.5; stroke-linecap: square"/>
   </g>
   <g id="line2d_10">
    <path d="M 47.72 34.168601 
L 59.167105 34.893884 
L 70.614211 36.263947 
L 82.061316 38.5978 
L 93.508421 41.797421 
L 104.955526 45.659937 
L 116.402632 50.38913 
L 127.849737 56.064129 
L 139.296842 61.683864 
L 150.743947 68.123674 
L 162.191053 74.709892 
L 173.638158 80.987679 
L 185.085263 87.50955 
L 196.532368 93.274095 
L 207.979474 99.260428 
L 219.426579 104.642642 
L 230.873684 110.258419 
L 242.320789 114.862367 
L 253.767895 119.537711 
L 265.215 125.008211 
" clip-path="url(#pf0839f1b2e)" style="fill: none; stroke: #ff7f0e; stroke-width: 1.5; stroke-linecap: square"/>
   </g>
   <g id="line2d_11">
    <path d="M 47.72 34.165549 
L 59.167105 35.04068 
L 70.614211 36.264103 
L 82.061316 38.335626 
L 93.508421 40.850387 
L 104.955526 43.749124 
L 116.402632 47.116775 
L 127.849737 50.766903 
L 139.296842 54.164069 
L 150.743947 57.939106 
L 162.191053 61.529936 
L 173.638158 65.095951 
L 185.085263 68.59545 
L 196.532368 72.049672 
L 207.979474 75.333278 
L 219.426579 78.494612 
L 230.873684 82.11836 
L 242.320789 85.221641 
L 253.767895 88.283246 
L 265.215 91.801386 
" clip-path="url(#pf0839f1b2e)" style="fill: none; stroke: #2ca02c; stroke-width: 1.5; stroke-linecap: square"/>
   </g>
   <g id="line2d_12">
    <path d="M 47.72 34.184148 
L 59.167105 34.887919 
L 70.614211 35.748759 
L 82.061316 37.26284 
L 93.508421 39.192988 
L 104.955526 41.537914 
L 116.402632 44.445425 
L 127.849737 47.867898 
L 139.296842 51.112811 
L 150.743947 54.979249 
L 162.191053 58.870029 
L 173.638158 62.696301 
L 185.085263 66.446033 
L 196.532368 70.148569 
L 207.979474 73.630781 
L 219.426579 77.031927 
L 230.873684 80.847385 
L 242.320789 84.137439 
L 253.767895 87.325274 
L 265.215 90.934503 
" clip-path="url(#pf0839f1b2e)" style="fill: none; stroke: #d62728; stroke-width: 1.5; stroke-linecap: square"/>
   </g>
   <g id="line2d_13">
    <path d="M 47.72 34.164853 
L 59.167105 35.243125 
L 70.614211 37.935997 
L 82.061316 42.158062 
L 93.508421 47.677767 
L 104.955526 53.886728 
L 116.402632 60.568553 
L 127.849737 68.020211 
L 139.296842 74.95059 
L 150.743947 82.268982 
L 162.191053 89.18534 
L 173.638158 95.685289 
L 185.085263 102.331288 
L 196.532368 108.154564 
L 207.979474 114.142432 
L 219.426579 119.447705 
L 230.873684 124.771207 
L 242.320789 129.597055 
L 253.767895 134.037061 
L 265.215 139.075987 
" clip-path="url(#pf0839f1b2e)" style="fill: none; stroke: #9467bd; stroke-width: 1.5; stroke-linecap: square"/>
   </g>
   <g id="line2d_14">
    <path d="M 47.72 34.184261 
L 59.167105 34.917564 
L 70.614211 36.283715 
L 82.061316 38.598377 
L 93.508421 41.828171 
L 104.955526 45.709649 
L 116.402632 50.42198 
L 127.849737 56.144399 
L 139.296842 61.770277 
L 150.743947 68.207166 
L 162.191053 74.730496 
L 173.638158 81.08827 
L 185.085263 87.74732 
L 196.532368 93.644623 
L 207.979474 99.588599 
L 219.426579 104.941068 
L 230.873684 110.432091 
L 242.320789 115.226217 
L 253.767895 119.836398 
L 265.215 125.241982 
" clip-path="url(#pf0839f1b2e)" style="fill: none; stroke: #8c564b; stroke-width: 1.5; stroke-linecap: square"/>
   </g>
   <g id="line2d_15">
    <path d="M 47.72 49.453583 
L 59.167105 50.842088 
L 70.614211 54.119285 
L 82.061316 59.5701 
L 93.508421 66.340523 
L 104.955526 73.871445 
L 116.402632 82.097022 
L 127.849737 90.761247 
L 139.296842 98.72345 
L 150.743947 106.848598 
L 162.191053 114.30481 
L 173.638158 120.920431 
L 185.085263 127.214888 
L 196.532368 132.560476 
L 207.979474 137.834511 
L 219.426579 142.443567 
L 230.873684 146.928138 
L 242.320789 150.482626 
L 253.767895 154.133761 
L 265.215 158.197956 
" clip-path="url(#pf0839f1b2e)" style="fill: none; stroke: #e377c2; stroke-width: 1.5; stroke-linecap: square"/>
   </g>
   <g id="line2d_16">
    <path d="M 47.72 34.177514 
L 59.167105 34.571725 
L 70.614211 34.572568 
L 82.061316 35.126575 
L 93.508421 36.14851 
L 104.955526 37.998218 
L 116.402632 40.779694 
L 127.849737 44.818823 
L 139.296842 49.279358 
L 150.743947 54.893488 
L 162.191053 60.82508 
L 173.638158 66.954951 
L 185.085263 73.370269 
L 196.532368 79.497019 
L 207.979474 85.779645 
L 219.426579 91.626331 
L 230.873684 97.691476 
L 242.320789 102.884934 
L 253.767895 107.934738 
L 265.215 113.788564 
" clip-path="url(#pf0839f1b2e)" style="fill: none; stroke: #7f7f7f; stroke-width: 1.5; stroke-linecap: square"/>
   </g>
   <g id="patch_3">
    <path d="M 47.72 174.04 
L 47.72 26.88 
" style="fill: none; stroke: #000000; stroke-width: 0.8; stroke-linejoin: miter; stroke-linecap: square"/>
   </g>
   <g id="patch_4">
    <path d="M 47.72 174.04 
L 265.215 174.04 
" style="fill: none; stroke: #000000; stroke-width: 0.8; stroke-linejoin: miter; stroke-linecap: square"/>
   </g>
   <g id="text_11">
    <!-- Node * surprisal -->
    <g transform="translate(108.18625 20.88)scale(0.12 -0.12)">
     <defs>
      <path id="DejaVuSans-4e" d="M 628 4666 
L 1478 4666 
L 3547 763 
L 3547 4666 
L 4159 4666 
L 4159 0 
L 3309 0 
L 1241 3903 
L 1241 0 
L 628 0 
L 628 4666 
z
" transform="scale(0.015625)"/>
      <path id="DejaVuSans-64" d="M 2906 2969 
L 2906 4863 
L 3481 4863 
L 3481 0 
L 2906 0 
L 2906 525 
Q 2725 213 2448 61 
Q 2172 -91 1784 -91 
Q 1150 -91 751 415 
Q 353 922 353 1747 
Q 353 2572 751 3078 
Q 1150 3584 1784 3584 
Q 2172 3584 2448 3432 
Q 2725 3281 2906 2969 
z
M 947 1747 
Q 947 1113 1208 752 
Q 1469 391 1925 391 
Q 2381 391 2643 752 
Q 2906 1113 2906 1747 
Q 2906 2381 2643 2742 
Q 2381 3103 1925 3103 
Q 1469 3103 1208 2742 
Q 947 2381 947 1747 
z
" transform="scale(0.015625)"/>
      <path id="DejaVuSans-2a" d="M 3009 3897 
L 1888 3291 
L 3009 2681 
L 2828 2375 
L 1778 3009 
L 1778 1831 
L 1422 1831 
L 1422 3009 
L 372 2375 
L 191 2681 
L 1313 3291 
L 191 3897 
L 372 4206 
L 1422 3572 
L 1422 4750 
L 1778 4750 
L 1778 3572 
L 2828 4206 
L 3009 3897 
z
" transform="scale(0.015625)"/>
     </defs>
     <use xlink:href="#DejaVuSans-4e"/>
     <use xlink:href="#DejaVuSans-6f" x="74.804688"/>
     <use xlink:href="#DejaVuSans-64" x="135.986328"/>
     <use xlink:href="#DejaVuSans-65" x="199.462891"/>
     <use xlink:href="#DejaVuSans-20" x="260.986328"/>
     <use xlink:href="#DejaVuSans-2a" x="292.773438"/>
     <use xlink:href="#DejaVuSans-20" x="342.773438"/>
     <use xlink:href="#DejaVuSans-73" x="374.560547"/>
     <use xlink:href="#DejaVuSans-75" x="426.660156"/>
     <use xlink:href="#DejaVuSans-72" x="490.039062"/>
     <use xlink:href="#DejaVuSans-70" x="531.152344"/>
     <use xlink:href="#DejaVuSans-72" x="594.628906"/>
     <use xlink:href="#DejaVuSans-69" x="635.742188"/>
     <use xlink:href="#DejaVuSans-73" x="663.525391"/>
     <use xlink:href="#DejaVuSans-61" x="715.625"/>
     <use xlink:href="#DejaVuSans-6c" x="776.904297"/>
    </g>
   </g>
  </g>
  <g id="axes_2">
   <g id="patch_5">
    <path d="M 298.065 174.04 
L 515.56 174.04 
L 515.56 26.88 
L 298.065 26.88 
z
" style="fill: #ffffff"/>
   </g>
   <g id="PolyCollection_9">
    <path d="M 298.065 33.819978 
L 298.065 34.792272 
L 309.512105 35.740302 
L 320.959211 38.347915 
L 332.406316 42.39491 
L 343.853421 47.856478 
L 355.300526 54.825984 
L 366.747632 62.350085 
L 378.194737 70.021893 
L 389.641842 78.569938 
L 401.088947 87.024041 
L 412.536053 94.874318 
L 423.983158 102.821774 
L 435.430263 110.720966 
L 446.877368 117.677408 
L 458.324474 125.046209 
L 469.771579 131.769963 
L 481.218684 137.938966 
L 492.665789 143.215902 
L 504.112895 148.801042 
L 515.56 153.806651 
L 515.56 133.673978 
L 515.56 133.673978 
L 504.112895 128.534636 
L 492.665789 124.020971 
L 481.218684 119.039999 
L 469.771579 113.2029 
L 458.324474 107.586746 
L 446.877368 102.042795 
L 435.430263 95.399037 
L 423.983158 89.223469 
L 412.536053 82.429084 
L 401.088947 75.833616 
L 389.641842 68.780616 
L 378.194737 62.134955 
L 366.747632 55.432817 
L 355.300526 49.821427 
L 343.853421 44.734399 
L 332.406316 40.569991 
L 320.959211 37.064343 
L 309.512105 34.554969 
L 298.065 33.819978 
z
" clip-path="url(#pc47e4eff8a)" style="fill: #1f77b4; fill-opacity: 0.4"/>
   </g>
   <g id="PolyCollection_10">
    <path d="M 298.065 33.826979 
L 298.065 34.811045 
L 309.512105 35.748551 
L 320.959211 38.370263 
L 332.406316 42.455756 
L 343.853421 47.935038 
L 355.300526 54.94497 
L 366.747632 62.490817 
L 378.194737 70.162162 
L 389.641842 78.754646 
L 401.088947 87.218592 
L 412.536053 95.129162 
L 423.983158 103.121643 
L 435.430263 111.110789 
L 446.877368 118.053247 
L 458.324474 125.483779 
L 469.771579 132.271939 
L 481.218684 138.472673 
L 492.665789 143.79068 
L 504.112895 149.38664 
L 515.56 154.453442 
L 515.56 133.898187 
L 515.56 133.898187 
L 504.112895 128.839105 
L 492.665789 124.202689 
L 481.218684 119.206036 
L 469.771579 113.344822 
L 458.324474 107.722433 
L 446.877368 102.138151 
L 435.430263 95.467912 
L 423.983158 89.266014 
L 412.536053 82.45655 
L 401.088947 75.844741 
L 389.641842 68.760035 
L 378.194737 62.13385 
L 366.747632 55.435839 
L 355.300526 49.832887 
L 343.853421 44.748479 
L 332.406316 40.577508 
L 320.959211 37.081474 
L 309.512105 34.565875 
L 298.065 33.826979 
z
" clip-path="url(#pc47e4eff8a)" style="fill: #ff7f0e; fill-opacity: 0.4"/>
   </g>
   <g id="PolyCollection_11">
    <path d="M 298.065 33.825082 
L 298.065 34.80659 
L 309.512105 35.74736 
L 320.959211 38.383233 
L 332.406316 42.496647 
L 343.853421 48.022776 
L 355.300526 55.041672 
L 366.747632 62.631096 
L 378.194737 70.384562 
L 389.641842 79.04338 
L 401.088947 87.555967 
L 412.536053 95.410787 
L 423.983158 103.395172 
L 435.430263 111.371126 
L 446.877368 118.232176 
L 458.324474 125.590859 
L 469.771579 132.30206 
L 481.218684 138.464743 
L 492.665789 143.774887 
L 504.112895 149.227366 
L 515.56 154.383161 
L 515.56 134.198399 
L 515.56 134.198399 
L 504.112895 129.084797 
L 492.665789 124.492008 
L 481.218684 119.435129 
L 469.771579 113.599764 
L 458.324474 107.912019 
L 446.877368 102.274638 
L 435.430263 95.604769 
L 423.983158 89.348102 
L 412.536053 82.52712 
L 401.088947 75.909572 
L 389.641842 68.785066 
L 378.194737 62.171281 
L 366.747632 55.486959 
L 355.300526 49.849631 
L 343.853421 44.782984 
L 332.406316 40.584393 
L 320.959211 37.113897 
L 309.512105 34.566355 
L 298.065 33.825082 
z
" clip-path="url(#pc47e4eff8a)" style="fill: #2ca02c; fill-opacity: 0.4"/>
   </g>
   <g id="PolyCollection_12">
    <path d="M 298.065 33.832673 
L 298.065 34.826639 
L 309.512105 35.762635 
L 320.959211 38.411596 
L 332.406316 42.527606 
L 343.853421 48.073715 
L 355.300526 55.112506 
L 366.747632 62.695887 
L 378.194737 70.47338 
L 389.641842 79.140317 
L 401.088947 87.665313 
L 412.536053 95.526035 
L 423.983158 103.51562 
L 435.430263 111.512553 
L 446.877368 118.377743 
L 458.324474 125.738969 
L 469.771579 132.467052 
L 481.218684 138.590077 
L 492.665789 143.891564 
L 504.112895 149.370434 
L 515.56 154.484563 
L 515.56 134.715687 
L 515.56 134.715687 
L 504.112895 129.599075 
L 492.665789 124.895376 
L 481.218684 119.759333 
L 469.771579 113.864765 
L 458.324474 108.154506 
L 446.877368 102.500482 
L 435.430263 95.771135 
L 423.983158 89.516854 
L 412.536053 82.673978 
L 401.088947 76.031938 
L 389.641842 68.873114 
L 378.194737 62.23319 
L 366.747632 55.552138 
L 355.300526 49.895626 
L 343.853421 44.818143 
L 332.406316 40.598146 
L 320.959211 37.123011 
L 309.512105 34.585995 
L 298.065 33.832673 
z
" clip-path="url(#pc47e4eff8a)" style="fill: #d62728; fill-opacity: 0.4"/>
   </g>
   <g id="PolyCollection_13">
    <path d="M 298.065 33.856771 
L 298.065 34.796346 
L 309.512105 35.758196 
L 320.959211 38.367868 
L 332.406316 42.372741 
L 343.853421 47.890111 
L 355.300526 54.775114 
L 366.747632 62.459193 
L 378.194737 70.071237 
L 389.641842 78.801325 
L 401.088947 87.227185 
L 412.536053 94.790438 
L 423.983158 103.329071 
L 435.430263 111.379793 
L 446.877368 117.475293 
L 458.324474 125.071066 
L 469.771579 132.320619 
L 481.218684 137.822175 
L 492.665789 143.972406 
L 504.112895 149.629829 
L 515.56 154.060437 
L 515.56 134.726163 
L 515.56 134.726163 
L 504.112895 129.147867 
L 492.665789 124.443591 
L 481.218684 119.531648 
L 469.771579 113.360919 
L 458.324474 107.70424 
L 446.877368 102.05581 
L 435.430263 95.643221 
L 423.983158 89.255119 
L 412.536053 82.493239 
L 401.088947 75.880088 
L 389.641842 68.815524 
L 378.194737 62.262602 
L 366.747632 55.327561 
L 355.300526 49.866118 
L 343.853421 44.711175 
L 332.406316 40.572588 
L 320.959211 37.084261 
L 309.512105 34.570076 
L 298.065 33.856771 
z
" clip-path="url(#pc47e4eff8a)" style="fill: #9467bd; fill-opacity: 0.4"/>
   </g>
   <g id="PolyCollection_14">
    <path d="M 298.065 33.865273 
L 298.065 34.814744 
L 309.512105 35.767421 
L 320.959211 38.390572 
L 332.406316 42.429624 
L 343.853421 47.963749 
L 355.300526 54.893306 
L 366.747632 62.592901 
L 378.194737 70.193425 
L 389.641842 78.979683 
L 401.088947 87.40995 
L 412.536053 95.06542 
L 423.983158 103.605711 
L 435.430263 111.731964 
L 446.877368 117.818262 
L 458.324474 125.494481 
L 469.771579 132.785253 
L 481.218684 138.37097 
L 492.665789 144.504723 
L 504.112895 150.29825 
L 515.56 154.669149 
L 515.56 134.949931 
L 515.56 134.949931 
L 504.112895 129.385252 
L 492.665789 124.624926 
L 481.218684 119.685394 
L 469.771579 113.520857 
L 458.324474 107.814133 
L 446.877368 102.187199 
L 435.430263 95.702771 
L 423.983158 89.289808 
L 412.536053 82.513918 
L 401.088947 75.894152 
L 389.641842 68.78367 
L 378.194737 62.271115 
L 366.747632 55.333333 
L 355.300526 49.880097 
L 343.853421 44.728152 
L 332.406316 40.582531 
L 320.959211 37.101921 
L 309.512105 34.580878 
L 298.065 33.865273 
z
" clip-path="url(#pc47e4eff8a)" style="fill: #8c564b; fill-opacity: 0.4"/>
   </g>
   <g id="PolyCollection_15">
    <path d="M 298.065 47.65834 
L 298.065 51.529912 
L 309.512105 52.309922 
L 320.959211 54.449838 
L 332.406316 58.024433 
L 343.853421 62.527571 
L 355.300526 68.589805 
L 366.747632 75.231603 
L 378.194737 82.333511 
L 389.641842 89.713449 
L 401.088947 97.318505 
L 412.536053 104.479254 
L 423.983158 111.766171 
L 435.430263 118.561415 
L 446.877368 125.137549 
L 458.324474 131.616662 
L 469.771579 137.733039 
L 481.218684 143.354452 
L 492.665789 148.036866 
L 504.112895 153.245077 
L 515.56 157.661322 
L 515.56 140.592548 
L 515.56 140.592548 
L 504.112895 135.435758 
L 492.665789 131.68885 
L 481.218684 127.249317 
L 469.771579 121.627274 
L 458.324474 116.532143 
L 446.877368 111.390218 
L 435.430263 105.525033 
L 423.983158 99.943539 
L 412.536053 93.567632 
L 401.088947 87.484337 
L 389.641842 81.206641 
L 378.194737 74.701522 
L 366.747632 68.611223 
L 355.300526 63.28957 
L 343.853421 58.252118 
L 332.406316 54.208358 
L 320.959211 50.859747 
L 309.512105 48.427232 
L 298.065 47.65834 
z
" clip-path="url(#pc47e4eff8a)" style="fill: #e377c2; fill-opacity: 0.4"/>
   </g>
   <g id="PolyCollection_16">
    <path d="M 298.065 33.838168 
L 298.065 34.831216 
L 309.512105 35.752938 
L 320.959211 38.397103 
L 332.406316 42.485339 
L 343.853421 47.985965 
L 355.300526 54.994562 
L 366.747632 62.570258 
L 378.194737 70.283892 
L 389.641842 78.937138 
L 401.088947 87.455316 
L 412.536053 95.359969 
L 423.983158 103.40758 
L 435.430263 111.374423 
L 446.877368 118.297499 
L 458.324474 125.709177 
L 469.771579 132.532154 
L 481.218684 138.794142 
L 492.665789 144.082517 
L 504.112895 149.665721 
L 515.56 154.839757 
L 515.56 133.989082 
L 515.56 133.989082 
L 504.112895 128.969043 
L 492.665789 124.328021 
L 481.218684 119.300059 
L 469.771579 113.428528 
L 458.324474 107.786903 
L 446.877368 102.160117 
L 435.430263 95.528468 
L 423.983158 89.289627 
L 412.536053 82.465233 
L 401.088947 75.881813 
L 389.641842 68.767751 
L 378.194737 62.154161 
L 366.747632 55.457961 
L 355.300526 49.836343 
L 343.853421 44.774144 
L 332.406316 40.576039 
L 320.959211 37.107563 
L 309.512105 34.582065 
L 298.065 33.838168 
z
" clip-path="url(#pc47e4eff8a)" style="fill: #7f7f7f; fill-opacity: 0.4"/>
   </g>
   <g id="matplotlib.axis_3">
    <g id="xtick_6">
     <g id="line2d_17">
      <g>
       <use xlink:href="#m5eafaec55b" x="298.065" y="174.04" style="stroke: #000000; stroke-width: 0.8"/>
      </g>
     </g>
     <g id="text_12">
      <!-- 0.0 -->
      <g transform="translate(290.113437 188.638438)scale(0.1 -0.1)">
       <use xlink:href="#DejaVuSans-30"/>
       <use xlink:href="#DejaVuSans-2e" x="63.623047"/>
       <use xlink:href="#DejaVuSans-30" x="95.410156"/>
      </g>
     </g>
    </g>
    <g id="xtick_7">
     <g id="line2d_18">
      <g>
       <use xlink:href="#m5eafaec55b" x="352.43875" y="174.04" style="stroke: #000000; stroke-width: 0.8"/>
      </g>
     </g>
     <g id="text_13">
      <!-- 0.5 -->
      <g transform="translate(344.487187 188.638438)scale(0.1 -0.1)">
       <use xlink:href="#DejaVuSans-30"/>
       <use xlink:href="#DejaVuSans-2e" x="63.623047"/>
       <use xlink:href="#DejaVuSans-35" x="95.410156"/>
      </g>
     </g>
    </g>
    <g id="xtick_8">
     <g id="line2d_19">
      <g>
       <use xlink:href="#m5eafaec55b" x="406.8125" y="174.04" style="stroke: #000000; stroke-width: 0.8"/>
      </g>
     </g>
     <g id="text_14">
      <!-- 1.0 -->
      <g transform="translate(398.860937 188.638438)scale(0.1 -0.1)">
       <use xlink:href="#DejaVuSans-31"/>
       <use xlink:href="#DejaVuSans-2e" x="63.623047"/>
       <use xlink:href="#DejaVuSans-30" x="95.410156"/>
      </g>
     </g>
    </g>
    <g id="xtick_9">
     <g id="line2d_20">
      <g>
       <use xlink:href="#m5eafaec55b" x="461.18625" y="174.04" style="stroke: #000000; stroke-width: 0.8"/>
      </g>
     </g>
     <g id="text_15">
      <!-- 1.5 -->
      <g transform="translate(453.234687 188.638438)scale(0.1 -0.1)">
       <use xlink:href="#DejaVuSans-31"/>
       <use xlink:href="#DejaVuSans-2e" x="63.623047"/>
       <use xlink:href="#DejaVuSans-35" x="95.410156"/>
      </g>
     </g>
    </g>
    <g id="xtick_10">
     <g id="line2d_21">
      <g>
       <use xlink:href="#m5eafaec55b" x="515.56" y="174.04" style="stroke: #000000; stroke-width: 0.8"/>
      </g>
     </g>
     <g id="text_16">
      <!-- 2.0 -->
      <g transform="translate(507.608437 188.638438)scale(0.1 -0.1)">
       <use xlink:href="#DejaVuSans-32"/>
       <use xlink:href="#DejaVuSans-2e" x="63.623047"/>
       <use xlink:href="#DejaVuSans-30" x="95.410156"/>
      </g>
     </g>
    </g>
    <g id="text_17">
     <!-- Influence of surprisal (multiplication) -->
     <g transform="translate(314.665625 202.316563)scale(0.1 -0.1)">
      <use xlink:href="#DejaVuSans-49"/>
      <use xlink:href="#DejaVuSans-6e" x="29.492188"/>
      <use xlink:href="#DejaVuSans-66" x="92.871094"/>
      <use xlink:href="#DejaVuSans-6c" x="128.076172"/>
      <use xlink:href="#DejaVuSans-75" x="155.859375"/>
      <use xlink:href="#DejaVuSans-65" x="219.238281"/>
      <use xlink:href="#DejaVuSans-6e" x="280.761719"/>
      <use xlink:href="#DejaVuSans-63" x="344.140625"/>
      <use xlink:href="#DejaVuSans-65" x="399.121094"/>
      <use xlink:href="#DejaVuSans-20" x="460.644531"/>
      <use xlink:href="#DejaVuSans-6f" x="492.431641"/>
      <use xlink:href="#DejaVuSans-66" x="553.613281"/>
      <use xlink:href="#DejaVuSans-20" x="588.818359"/>
      <use xlink:href="#DejaVuSans-73" x="620.605469"/>
      <use xlink:href="#DejaVuSans-75" x="672.705078"/>
      <use xlink:href="#DejaVuSans-72" x="736.083984"/>
      <use xlink:href="#DejaVuSans-70" x="777.197266"/>
      <use xlink:href="#DejaVuSans-72" x="840.673828"/>
      <use xlink:href="#DejaVuSans-69" x="881.787109"/>
      <use xlink:href="#DejaVuSans-73" x="909.570312"/>
      <use xlink:href="#DejaVuSans-61" x="961.669922"/>
      <use xlink:href="#DejaVuSans-6c" x="1022.949219"/>
      <use xlink:href="#DejaVuSans-20" x="1050.732422"/>
      <use xlink:href="#DejaVuSans-28" x="1082.519531"/>
      <use xlink:href="#DejaVuSans-6d" x="1121.533203"/>
      <use xlink:href="#DejaVuSans-75" x="1218.945312"/>
      <use xlink:href="#DejaVuSans-6c" x="1282.324219"/>
      <use xlink:href="#DejaVuSans-74" x="1310.107422"/>
      <use xlink:href="#DejaVuSans-69" x="1349.316406"/>
      <use xlink:href="#DejaVuSans-70" x="1377.099609"/>
      <use xlink:href="#DejaVuSans-6c" x="1440.576172"/>
      <use xlink:href="#DejaVuSans-69" x="1468.359375"/>
      <use xlink:href="#DejaVuSans-63" x="1496.142578"/>
      <use xlink:href="#DejaVuSans-61" x="1551.123047"/>
      <use xlink:href="#DejaVuSans-74" x="1612.402344"/>
      <use xlink:href="#DejaVuSans-69" x="1651.611328"/>
      <use xlink:href="#DejaVuSans-6f" x="1679.394531"/>
      <use xlink:href="#DejaVuSans-6e" x="1740.576172"/>
      <use xlink:href="#DejaVuSans-29" x="1803.955078"/>
     </g>
    </g>
   </g>
   <g id="line2d_22">
    <path d="M 298.065 34.306125 
L 309.512105 35.147636 
L 320.959211 37.706129 
L 332.406316 41.48245 
L 343.853421 46.295438 
L 355.300526 52.323705 
L 366.747632 58.891451 
L 378.194737 66.078424 
L 389.641842 73.675277 
L 401.088947 81.428829 
L 412.536053 88.651701 
L 423.983158 96.022621 
L 435.430263 103.060001 
L 446.877368 109.860101 
L 458.324474 116.316478 
L 469.771579 122.486432 
L 481.218684 128.489482 
L 492.665789 133.618436 
L 504.112895 138.667839 
L 515.56 143.740314 
" clip-path="url(#pc47e4eff8a)" style="fill: none; stroke: #1f77b4; stroke-width: 1.5; stroke-linecap: square"/>
   </g>
   <g id="line2d_23">
    <path d="M 298.065 34.319012 
L 309.512105 35.157213 
L 320.959211 37.725868 
L 332.406316 41.516632 
L 343.853421 46.341759 
L 355.300526 52.388928 
L 366.747632 58.963328 
L 378.194737 66.148006 
L 389.641842 73.75734 
L 401.088947 81.531667 
L 412.536053 88.792856 
L 423.983158 96.193828 
L 435.430263 103.28935 
L 446.877368 110.095699 
L 458.324474 116.603106 
L 469.771579 122.80838 
L 481.218684 128.839355 
L 492.665789 133.996684 
L 504.112895 139.112872 
L 515.56 144.175814 
" clip-path="url(#pc47e4eff8a)" style="fill: none; stroke: #ff7f0e; stroke-width: 1.5; stroke-linecap: square"/>
   </g>
   <g id="line2d_24">
    <path d="M 298.065 34.315836 
L 309.512105 35.156858 
L 320.959211 37.748565 
L 332.406316 41.54052 
L 343.853421 46.40288 
L 355.300526 52.445651 
L 366.747632 59.059027 
L 378.194737 66.277921 
L 389.641842 73.914223 
L 401.088947 81.73277 
L 412.536053 88.968954 
L 423.983158 96.371637 
L 435.430263 103.487947 
L 446.877368 110.253407 
L 458.324474 116.751439 
L 469.771579 122.950912 
L 481.218684 128.949936 
L 492.665789 134.133448 
L 504.112895 139.156082 
L 515.56 144.29078 
" clip-path="url(#pc47e4eff8a)" style="fill: none; stroke: #2ca02c; stroke-width: 1.5; stroke-linecap: square"/>
   </g>
   <g id="line2d_25">
    <path d="M 298.065 34.329656 
L 309.512105 35.174315 
L 320.959211 37.767304 
L 332.406316 41.562876 
L 343.853421 46.445929 
L 355.300526 52.504066 
L 366.747632 59.124013 
L 378.194737 66.353285 
L 389.641842 74.006715 
L 401.088947 81.848626 
L 412.536053 89.100007 
L 423.983158 96.516237 
L 435.430263 103.641844 
L 446.877368 110.439113 
L 458.324474 116.946737 
L 469.771579 123.165909 
L 481.218684 129.174705 
L 492.665789 134.39347 
L 504.112895 139.484755 
L 515.56 144.600125 
" clip-path="url(#pc47e4eff8a)" style="fill: none; stroke: #d62728; stroke-width: 1.5; stroke-linecap: square"/>
   </g>
   <g id="line2d_26">
    <path d="M 298.065 34.326558 
L 309.512105 35.164136 
L 320.959211 37.726065 
L 332.406316 41.472664 
L 343.853421 46.300643 
L 355.300526 52.320616 
L 366.747632 58.893377 
L 378.194737 66.166919 
L 389.641842 73.808424 
L 401.088947 81.553636 
L 412.536053 88.641838 
L 423.983158 96.292095 
L 435.430263 103.511507 
L 446.877368 109.765552 
L 458.324474 116.387653 
L 469.771579 122.840769 
L 481.218684 128.676912 
L 492.665789 134.207998 
L 504.112895 139.388848 
L 515.56 144.3933 
" clip-path="url(#pc47e4eff8a)" style="fill: none; stroke: #9467bd; stroke-width: 1.5; stroke-linecap: square"/>
   </g>
   <g id="line2d_27">
    <path d="M 298.065 34.340009 
L 309.512105 35.17415 
L 320.959211 37.746246 
L 332.406316 41.506078 
L 343.853421 46.345951 
L 355.300526 52.386701 
L 366.747632 58.963117 
L 378.194737 66.23227 
L 389.641842 73.881677 
L 401.088947 81.652051 
L 412.536053 88.789669 
L 423.983158 96.44776 
L 435.430263 103.717367 
L 446.877368 110.00273 
L 458.324474 116.654307 
L 469.771579 123.153055 
L 481.218684 129.028182 
L 492.665789 134.564825 
L 504.112895 139.841751 
L 515.56 144.80954 
" clip-path="url(#pc47e4eff8a)" style="fill: none; stroke: #8c564b; stroke-width: 1.5; stroke-linecap: square"/>
   </g>
   <g id="line2d_28">
    <path d="M 298.065 49.594126 
L 309.512105 50.368577 
L 320.959211 52.654793 
L 332.406316 56.116395 
L 343.853421 60.389845 
L 355.300526 65.939688 
L 366.747632 71.921413 
L 378.194737 78.517516 
L 389.641842 85.460045 
L 401.088947 92.401421 
L 412.536053 99.023443 
L 423.983158 105.854855 
L 435.430263 112.043224 
L 446.877368 118.263883 
L 458.324474 124.074403 
L 469.771579 129.680157 
L 481.218684 135.301885 
L 492.665789 139.862858 
L 504.112895 144.340417 
L 515.56 149.126935 
" clip-path="url(#pc47e4eff8a)" style="fill: none; stroke: #e377c2; stroke-width: 1.5; stroke-linecap: square"/>
   </g>
   <g id="line2d_29">
    <path d="M 298.065 34.334692 
L 309.512105 35.167501 
L 320.959211 37.752333 
L 332.406316 41.530689 
L 343.853421 46.380054 
L 355.300526 52.415453 
L 366.747632 59.014109 
L 378.194737 66.219027 
L 389.641842 73.852444 
L 401.088947 81.668564 
L 412.536053 88.912601 
L 423.983158 96.348603 
L 435.430263 103.451445 
L 446.877368 110.228808 
L 458.324474 116.74804 
L 469.771579 122.980341 
L 481.218684 129.0471 
L 492.665789 134.205269 
L 504.112895 139.317382 
L 515.56 144.414419 
" clip-path="url(#pc47e4eff8a)" style="fill: none; stroke: #7f7f7f; stroke-width: 1.5; stroke-linecap: square"/>
   </g>
   <g id="patch_6">
    <path d="M 298.065 174.04 
L 298.065 26.88 
" style="fill: none; stroke: #000000; stroke-width: 0.8; stroke-linejoin: miter; stroke-linecap: square"/>
   </g>
   <g id="patch_7">
    <path d="M 298.065 174.04 
L 515.56 174.04 
" style="fill: none; stroke: #000000; stroke-width: 0.8; stroke-linejoin: miter; stroke-linecap: square"/>
   </g>
   <g id="text_18">
    <!-- Node * third variable -->
    <g transform="translate(344.2325 20.88)scale(0.12 -0.12)">
     <defs>
      <path id="DejaVuSans-68" d="M 3513 2113 
L 3513 0 
L 2938 0 
L 2938 2094 
Q 2938 2591 2744 2837 
Q 2550 3084 2163 3084 
Q 1697 3084 1428 2787 
Q 1159 2491 1159 1978 
L 1159 0 
L 581 0 
L 581 4863 
L 1159 4863 
L 1159 2956 
Q 1366 3272 1645 3428 
Q 1925 3584 2291 3584 
Q 2894 3584 3203 3211 
Q 3513 2838 3513 2113 
z
" transform="scale(0.015625)"/>
      <path id="DejaVuSans-62" d="M 3116 1747 
Q 3116 2381 2855 2742 
Q 2594 3103 2138 3103 
Q 1681 3103 1420 2742 
Q 1159 2381 1159 1747 
Q 1159 1113 1420 752 
Q 1681 391 2138 391 
Q 2594 391 2855 752 
Q 3116 1113 3116 1747 
z
M 1159 2969 
Q 1341 3281 1617 3432 
Q 1894 3584 2278 3584 
Q 2916 3584 3314 3078 
Q 3713 2572 3713 1747 
Q 3713 922 3314 415 
Q 2916 -91 2278 -91 
Q 1894 -91 1617 61 
Q 1341 213 1159 525 
L 1159 0 
L 581 0 
L 581 4863 
L 1159 4863 
L 1159 2969 
z
" transform="scale(0.015625)"/>
     </defs>
     <use xlink:href="#DejaVuSans-4e"/>
     <use xlink:href="#DejaVuSans-6f" x="74.804688"/>
     <use xlink:href="#DejaVuSans-64" x="135.986328"/>
     <use xlink:href="#DejaVuSans-65" x="199.462891"/>
     <use xlink:href="#DejaVuSans-20" x="260.986328"/>
     <use xlink:href="#DejaVuSans-2a" x="292.773438"/>
     <use xlink:href="#DejaVuSans-20" x="342.773438"/>
     <use xlink:href="#DejaVuSans-74" x="374.560547"/>
     <use xlink:href="#DejaVuSans-68" x="413.769531"/>
     <use xlink:href="#DejaVuSans-69" x="477.148438"/>
     <use xlink:href="#DejaVuSans-72" x="504.931641"/>
     <use xlink:href="#DejaVuSans-64" x="544.294922"/>
     <use xlink:href="#DejaVuSans-20" x="607.771484"/>
     <use xlink:href="#DejaVuSans-76" x="639.558594"/>
     <use xlink:href="#DejaVuSans-61" x="698.738281"/>
     <use xlink:href="#DejaVuSans-72" x="760.017578"/>
     <use xlink:href="#DejaVuSans-69" x="801.130859"/>
     <use xlink:href="#DejaVuSans-61" x="828.914062"/>
     <use xlink:href="#DejaVuSans-62" x="890.193359"/>
     <use xlink:href="#DejaVuSans-6c" x="953.669922"/>
     <use xlink:href="#DejaVuSans-65" x="981.453125"/>
    </g>
   </g>
   <g id="legend_1">
    <g id="line2d_30">
     <path d="M 524.56 39.978437 
L 534.56 39.978437 
L 544.56 39.978437 
" style="fill: none; stroke: #1f77b4; stroke-width: 1.5; stroke-linecap: square"/>
    </g>
    <g id="text_19">
     <!-- Node -->
     <g transform="translate(552.56 43.478437)scale(0.1 -0.1)">
      <use xlink:href="#DejaVuSans-4e"/>
      <use xlink:href="#DejaVuSans-6f" x="74.804688"/>
      <use xlink:href="#DejaVuSans-64" x="135.986328"/>
      <use xlink:href="#DejaVuSans-65" x="199.462891"/>
     </g>
    </g>
    <g id="line2d_31">
     <path d="M 524.56 54.656563 
L 534.56 54.656563 
L 544.56 54.656563 
" style="fill: none; stroke: #ff7f0e; stroke-width: 1.5; stroke-linecap: square"/>
    </g>
    <g id="text_20">
     <!-- Node + surprisal -->
     <g transform="translate(552.56 58.156563)scale(0.1 -0.1)">
      <defs>
       <path id="DejaVuSans-2b" d="M 2944 4013 
L 2944 2272 
L 4684 2272 
L 4684 1741 
L 2944 1741 
L 2944 0 
L 2419 0 
L 2419 1741 
L 678 1741 
L 678 2272 
L 2419 2272 
L 2419 4013 
L 2944 4013 
z
" transform="scale(0.015625)"/>
      </defs>
      <use xlink:href="#DejaVuSans-4e"/>
      <use xlink:href="#DejaVuSans-6f" x="74.804688"/>
      <use xlink:href="#DejaVuSans-64" x="135.986328"/>
      <use xlink:href="#DejaVuSans-65" x="199.462891"/>
      <use xlink:href="#DejaVuSans-20" x="260.986328"/>
      <use xlink:href="#DejaVuSans-2b" x="292.773438"/>
      <use xlink:href="#DejaVuSans-20" x="376.5625"/>
      <use xlink:href="#DejaVuSans-73" x="408.349609"/>
      <use xlink:href="#DejaVuSans-75" x="460.449219"/>
      <use xlink:href="#DejaVuSans-72" x="523.828125"/>
      <use xlink:href="#DejaVuSans-70" x="564.941406"/>
      <use xlink:href="#DejaVuSans-72" x="628.417969"/>
      <use xlink:href="#DejaVuSans-69" x="669.53125"/>
      <use xlink:href="#DejaVuSans-73" x="697.314453"/>
      <use xlink:href="#DejaVuSans-61" x="749.414062"/>
      <use xlink:href="#DejaVuSans-6c" x="810.693359"/>
     </g>
    </g>
    <g id="line2d_32">
     <path d="M 524.56 69.334687 
L 534.56 69.334687 
L 544.56 69.334687 
" style="fill: none; stroke: #2ca02c; stroke-width: 1.5; stroke-linecap: square"/>
    </g>
    <g id="text_21">
     <!-- Node split -->
     <g transform="translate(552.56 72.834687)scale(0.1 -0.1)">
      <use xlink:href="#DejaVuSans-4e"/>
      <use xlink:href="#DejaVuSans-6f" x="74.804688"/>
      <use xlink:href="#DejaVuSans-64" x="135.986328"/>
      <use xlink:href="#DejaVuSans-65" x="199.462891"/>
      <use xlink:href="#DejaVuSans-20" x="260.986328"/>
      <use xlink:href="#DejaVuSans-73" x="292.773438"/>
      <use xlink:href="#DejaVuSans-70" x="344.873047"/>
      <use xlink:href="#DejaVuSans-6c" x="408.349609"/>
      <use xlink:href="#DejaVuSans-69" x="436.132812"/>
      <use xlink:href="#DejaVuSans-74" x="463.916016"/>
     </g>
    </g>
    <g id="line2d_33">
     <path d="M 524.56 84.012812 
L 534.56 84.012812 
L 544.56 84.012812 
" style="fill: none; stroke: #d62728; stroke-width: 1.5; stroke-linecap: square"/>
    </g>
    <g id="text_22">
     <!-- Node split + surprisal -->
     <g transform="translate(552.56 87.512812)scale(0.1 -0.1)">
      <use xlink:href="#DejaVuSans-4e"/>
      <use xlink:href="#DejaVuSans-6f" x="74.804688"/>
      <use xlink:href="#DejaVuSans-64" x="135.986328"/>
      <use xlink:href="#DejaVuSans-65" x="199.462891"/>
      <use xlink:href="#DejaVuSans-20" x="260.986328"/>
      <use xlink:href="#DejaVuSans-73" x="292.773438"/>
      <use xlink:href="#DejaVuSans-70" x="344.873047"/>
      <use xlink:href="#DejaVuSans-6c" x="408.349609"/>
      <use xlink:href="#DejaVuSans-69" x="436.132812"/>
      <use xlink:href="#DejaVuSans-74" x="463.916016"/>
      <use xlink:href="#DejaVuSans-20" x="503.125"/>
      <use xlink:href="#DejaVuSans-2b" x="534.912109"/>
      <use xlink:href="#DejaVuSans-20" x="618.701172"/>
      <use xlink:href="#DejaVuSans-73" x="650.488281"/>
      <use xlink:href="#DejaVuSans-75" x="702.587891"/>
      <use xlink:href="#DejaVuSans-72" x="765.966797"/>
      <use xlink:href="#DejaVuSans-70" x="807.080078"/>
      <use xlink:href="#DejaVuSans-72" x="870.556641"/>
      <use xlink:href="#DejaVuSans-69" x="911.669922"/>
      <use xlink:href="#DejaVuSans-73" x="939.453125"/>
      <use xlink:href="#DejaVuSans-61" x="991.552734"/>
      <use xlink:href="#DejaVuSans-6c" x="1052.832031"/>
     </g>
    </g>
    <g id="line2d_34">
     <path d="M 524.56 98.690937 
L 534.56 98.690937 
L 544.56 98.690937 
" style="fill: none; stroke: #9467bd; stroke-width: 1.5; stroke-linecap: square"/>
    </g>
    <g id="text_23">
     <!-- Node random split -->
     <g transform="translate(552.56 102.190937)scale(0.1 -0.1)">
      <use xlink:href="#DejaVuSans-4e"/>
      <use xlink:href="#DejaVuSans-6f" x="74.804688"/>
      <use xlink:href="#DejaVuSans-64" x="135.986328"/>
      <use xlink:href="#DejaVuSans-65" x="199.462891"/>
      <use xlink:href="#DejaVuSans-20" x="260.986328"/>
      <use xlink:href="#DejaVuSans-72" x="292.773438"/>
      <use xlink:href="#DejaVuSans-61" x="333.886719"/>
      <use xlink:href="#DejaVuSans-6e" x="395.166016"/>
      <use xlink:href="#DejaVuSans-64" x="458.544922"/>
      <use xlink:href="#DejaVuSans-6f" x="522.021484"/>
      <use xlink:href="#DejaVuSans-6d" x="583.203125"/>
      <use xlink:href="#DejaVuSans-20" x="680.615234"/>
      <use xlink:href="#DejaVuSans-73" x="712.402344"/>
      <use xlink:href="#DejaVuSans-70" x="764.501953"/>
      <use xlink:href="#DejaVuSans-6c" x="827.978516"/>
      <use xlink:href="#DejaVuSans-69" x="855.761719"/>
      <use xlink:href="#DejaVuSans-74" x="883.544922"/>
     </g>
    </g>
    <g id="line2d_35">
     <path d="M 524.56 113.369062 
L 534.56 113.369062 
L 544.56 113.369062 
" style="fill: none; stroke: #8c564b; stroke-width: 1.5; stroke-linecap: square"/>
    </g>
    <g id="text_24">
     <!-- Node random split + surprisal -->
     <g transform="translate(552.56 116.869062)scale(0.1 -0.1)">
      <use xlink:href="#DejaVuSans-4e"/>
      <use xlink:href="#DejaVuSans-6f" x="74.804688"/>
      <use xlink:href="#DejaVuSans-64" x="135.986328"/>
      <use xlink:href="#DejaVuSans-65" x="199.462891"/>
      <use xlink:href="#DejaVuSans-20" x="260.986328"/>
      <use xlink:href="#DejaVuSans-72" x="292.773438"/>
      <use xlink:href="#DejaVuSans-61" x="333.886719"/>
      <use xlink:href="#DejaVuSans-6e" x="395.166016"/>
      <use xlink:href="#DejaVuSans-64" x="458.544922"/>
      <use xlink:href="#DejaVuSans-6f" x="522.021484"/>
      <use xlink:href="#DejaVuSans-6d" x="583.203125"/>
      <use xlink:href="#DejaVuSans-20" x="680.615234"/>
      <use xlink:href="#DejaVuSans-73" x="712.402344"/>
      <use xlink:href="#DejaVuSans-70" x="764.501953"/>
      <use xlink:href="#DejaVuSans-6c" x="827.978516"/>
      <use xlink:href="#DejaVuSans-69" x="855.761719"/>
      <use xlink:href="#DejaVuSans-74" x="883.544922"/>
      <use xlink:href="#DejaVuSans-20" x="922.753906"/>
      <use xlink:href="#DejaVuSans-2b" x="954.541016"/>
      <use xlink:href="#DejaVuSans-20" x="1038.330078"/>
      <use xlink:href="#DejaVuSans-73" x="1070.117188"/>
      <use xlink:href="#DejaVuSans-75" x="1122.216797"/>
      <use xlink:href="#DejaVuSans-72" x="1185.595703"/>
      <use xlink:href="#DejaVuSans-70" x="1226.708984"/>
      <use xlink:href="#DejaVuSans-72" x="1290.185547"/>
      <use xlink:href="#DejaVuSans-69" x="1331.298828"/>
      <use xlink:href="#DejaVuSans-73" x="1359.082031"/>
      <use xlink:href="#DejaVuSans-61" x="1411.181641"/>
      <use xlink:href="#DejaVuSans-6c" x="1472.460938"/>
     </g>
    </g>
    <g id="line2d_36">
     <path d="M 524.56 128.047187 
L 534.56 128.047187 
L 544.56 128.047187 
" style="fill: none; stroke: #e377c2; stroke-width: 1.5; stroke-linecap: square"/>
    </g>
    <g id="text_25">
     <!-- Interaction -->
     <g transform="translate(552.56 131.547187)scale(0.1 -0.1)">
      <use xlink:href="#DejaVuSans-49"/>
      <use xlink:href="#DejaVuSans-6e" x="29.492188"/>
      <use xlink:href="#DejaVuSans-74" x="92.871094"/>
      <use xlink:href="#DejaVuSans-65" x="132.080078"/>
      <use xlink:href="#DejaVuSans-72" x="193.603516"/>
      <use xlink:href="#DejaVuSans-61" x="234.716797"/>
      <use xlink:href="#DejaVuSans-63" x="295.996094"/>
      <use xlink:href="#DejaVuSans-74" x="350.976562"/>
      <use xlink:href="#DejaVuSans-69" x="390.185547"/>
      <use xlink:href="#DejaVuSans-6f" x="417.96875"/>
      <use xlink:href="#DejaVuSans-6e" x="479.150391"/>
     </g>
    </g>
    <g id="line2d_37">
     <path d="M 524.56 142.725312 
L 534.56 142.725312 
L 544.56 142.725312 
" style="fill: none; stroke: #7f7f7f; stroke-width: 1.5; stroke-linecap: square"/>
    </g>
    <g id="text_26">
     <!-- Node + surprisal + interaction -->
     <g transform="translate(552.56 146.225312)scale(0.1 -0.1)">
      <use xlink:href="#DejaVuSans-4e"/>
      <use xlink:href="#DejaVuSans-6f" x="74.804688"/>
      <use xlink:href="#DejaVuSans-64" x="135.986328"/>
      <use xlink:href="#DejaVuSans-65" x="199.462891"/>
      <use xlink:href="#DejaVuSans-20" x="260.986328"/>
      <use xlink:href="#DejaVuSans-2b" x="292.773438"/>
      <use xlink:href="#DejaVuSans-20" x="376.5625"/>
      <use xlink:href="#DejaVuSans-73" x="408.349609"/>
      <use xlink:href="#DejaVuSans-75" x="460.449219"/>
      <use xlink:href="#DejaVuSans-72" x="523.828125"/>
      <use xlink:href="#DejaVuSans-70" x="564.941406"/>
      <use xlink:href="#DejaVuSans-72" x="628.417969"/>
      <use xlink:href="#DejaVuSans-69" x="669.53125"/>
      <use xlink:href="#DejaVuSans-73" x="697.314453"/>
      <use xlink:href="#DejaVuSans-61" x="749.414062"/>
      <use xlink:href="#DejaVuSans-6c" x="810.693359"/>
      <use xlink:href="#DejaVuSans-20" x="838.476562"/>
      <use xlink:href="#DejaVuSans-2b" x="870.263672"/>
      <use xlink:href="#DejaVuSans-20" x="954.052734"/>
      <use xlink:href="#DejaVuSans-69" x="985.839844"/>
      <use xlink:href="#DejaVuSans-6e" x="1013.623047"/>
      <use xlink:href="#DejaVuSans-74" x="1077.001953"/>
      <use xlink:href="#DejaVuSans-65" x="1116.210938"/>
      <use xlink:href="#DejaVuSans-72" x="1177.734375"/>
      <use xlink:href="#DejaVuSans-61" x="1218.847656"/>
      <use xlink:href="#DejaVuSans-63" x="1280.126953"/>
      <use xlink:href="#DejaVuSans-74" x="1335.107422"/>
      <use xlink:href="#DejaVuSans-69" x="1374.316406"/>
      <use xlink:href="#DejaVuSans-6f" x="1402.099609"/>
      <use xlink:href="#DejaVuSans-6e" x="1463.28125"/>
     </g>
    </g>
   </g>
  </g>
 </g>
 <defs>
  <clipPath id="pf0839f1b2e">
   <rect x="47.72" y="26.88" width="217.495" height="147.16"/>
  </clipPath>
  <clipPath id="pc47e4eff8a">
   <rect x="298.065" y="26.88" width="217.495" height="147.16"/>
  </clipPath>
 </defs>
</svg>
