<?xml version="1.0" encoding="utf-8" standalone="no"?>
<!DOCTYPE svg PUBLIC "-//W3C//DTD SVG 1.1//EN"
  "http://www.w3.org/Graphics/SVG/1.1/DTD/svg11.dtd">
<svg xmlns:xlink="http://www.w3.org/1999/xlink" width="720pt" height="216pt" viewBox="0 0 720 216" xmlns="http://www.w3.org/2000/svg" version="1.1">
 <metadata>
  <rdf:RDF xmlns:dc="http://purl.org/dc/elements/1.1/" xmlns:cc="http://creativecommons.org/ns#" xmlns:rdf="http://www.w3.org/1999/02/22-rdf-syntax-ns#">
   <cc:Work>
    <dc:type rdf:resource="http://purl.org/dc/dcmitype/StillImage"/>
    <dc:date>2024-01-16T01:44:43.313709</dc:date>
    <dc:format>image/svg+xml</dc:format>
    <dc:creator>
     <cc:Agent>
      <dc:title>Matplotlib v3.5.1, https://matplotlib.org/</dc:title>
     </cc:Agent>
    </dc:creator>
   </cc:Work>
  </rdf:RDF>
 </metadata>
 <defs>
  <style type="text/css">*{stroke-linejoin: round; stroke-linecap: butt}</style>
 </defs>
 <g id="figure_1">
  <g id="patch_1">
   <path d="M 0 216 
L 720 216 
L 720 0 
L 0 0 
z
" style="fill: #ffffff"/>
  </g>
  <g id="axes_1">
   <g id="patch_2">
    <path d="M 47.72 174.04 
L 265.215 174.04 
L 265.215 26.88 
L 47.72 26.88 
z
" style="fill: #ffffff"/>
   </g>
   <g id="PolyCollection_1">
    <path d="M 47.72 33.569091 
L 47.72 34.499477 
L 59.167105 35.332117 
L 70.614211 38.545002 
L 82.061316 42.673586 
L 93.508421 48.170197 
L 104.955526 54.980566 
L 116.402632 62.494611 
L 127.849737 70.716963 
L 139.296842 78.364299 
L 150.743947 87.249398 
L 162.191053 94.948253 
L 173.638158 102.886415 
L 185.085263 110.692434 
L 196.532368 117.558246 
L 207.979474 124.088069 
L 219.426579 130.389098 
L 230.873684 135.738418 
L 242.320789 141.539277 
L 253.767895 146.090441 
L 265.215 150.231436 
L 265.215 136.155615 
L 265.215 136.155615 
L 253.767895 132.034263 
L 242.320789 127.299546 
L 230.873684 122.825864 
L 219.426579 117.772281 
L 207.979474 112.697319 
L 196.532368 106.572028 
L 185.085263 101.074329 
L 173.638158 94.642435 
L 162.191053 87.557705 
L 150.743947 80.077444 
L 139.296842 73.267345 
L 127.849737 65.266429 
L 116.402632 58.059601 
L 104.955526 51.111556 
L 93.508421 45.713446 
L 82.061316 40.955664 
L 70.614211 37.010482 
L 59.167105 34.20146 
L 47.72 33.569091 
z
" clip-path="url(#p5f024b0837)" style="fill: #1f77b4; fill-opacity: 0.4"/>
   </g>
   <g id="PolyCollection_2">
    <path d="M 47.72 33.583288 
L 47.72 34.519515 
L 59.167105 34.980379 
L 70.614211 36.843359 
L 82.061316 39.050284 
L 93.508421 42.421063 
L 104.955526 46.752127 
L 116.402632 51.971114 
L 127.849737 57.71989 
L 139.296842 63.325366 
L 150.743947 70.477687 
L 162.191053 76.807897 
L 173.638158 83.478025 
L 185.085263 90.438868 
L 196.532368 96.796076 
L 207.979474 103.134015 
L 219.426579 109.433716 
L 230.873684 115.05049 
L 242.320789 120.948804 
L 253.767895 126.099996 
L 265.215 130.948705 
L 265.215 118.435719 
L 265.215 118.435719 
L 253.767895 114.058678 
L 242.320789 109.180682 
L 230.873684 104.163465 
L 219.426579 98.964044 
L 207.979474 93.615562 
L 196.532368 87.31106 
L 185.085263 81.718189 
L 173.638158 75.593894 
L 162.191053 69.260788 
L 150.743947 62.852006 
L 139.296842 57.826312 
L 127.849737 52.264063 
L 116.402632 47.612632 
L 104.955526 43.352821 
L 93.508421 40.263142 
L 82.061316 37.687897 
L 70.614211 35.553529 
L 59.167105 33.889234 
L 47.72 33.583288 
z
" clip-path="url(#p5f024b0837)" style="fill: #ff7f0e; fill-opacity: 0.4"/>
   </g>
   <g id="PolyCollection_3">
    <path d="M 47.72 33.582532 
L 47.72 34.526195 
L 59.167105 35.054213 
L 70.614211 36.555986 
L 82.061316 38.252928 
L 93.508421 40.662574 
L 104.955526 43.304794 
L 116.402632 46.89832 
L 127.849737 50.42054 
L 139.296842 53.80235 
L 150.743947 58.215785 
L 162.191053 61.788077 
L 173.638158 65.647945 
L 185.085263 69.685737 
L 196.532368 73.206221 
L 207.979474 77.028547 
L 219.426579 80.952378 
L 230.873684 84.235413 
L 242.320789 88.398065 
L 253.767895 92.06834 
L 265.215 95.228563 
L 265.215 87.816859 
L 265.215 87.816859 
L 253.767895 84.537018 
L 242.320789 81.326732 
L 230.873684 78.272999 
L 219.426579 75.352712 
L 207.979474 72.216946 
L 196.532368 68.274146 
L 185.085263 64.902534 
L 173.638158 61.258901 
L 162.191053 57.31658 
L 150.743947 53.83188 
L 139.296842 50.464219 
L 127.849737 46.689069 
L 116.402632 43.6203 
L 104.955526 40.823057 
L 93.508421 38.615247 
L 82.061316 36.909089 
L 70.614211 35.337319 
L 59.167105 33.983103 
L 47.72 33.582532 
z
" clip-path="url(#p5f024b0837)" style="fill: #2ca02c; fill-opacity: 0.4"/>
   </g>
   <g id="PolyCollection_4">
    <path d="M 47.72 33.591461 
L 47.72 34.541261 
L 59.167105 34.941104 
L 70.614211 36.153897 
L 82.061316 37.403679 
L 93.508421 39.417944 
L 104.955526 41.66676 
L 116.402632 44.970369 
L 127.849737 48.152863 
L 139.296842 51.420389 
L 150.743947 55.895464 
L 162.191053 59.621726 
L 173.638158 63.61021 
L 185.085263 67.794875 
L 196.532368 71.403413 
L 207.979474 75.257996 
L 219.426579 79.221945 
L 230.873684 82.50393 
L 242.320789 86.655321 
L 253.767895 90.45617 
L 265.215 93.66794 
L 265.215 86.716352 
L 265.215 86.716352 
L 253.767895 83.30015 
L 242.320789 79.925007 
L 230.873684 76.706047 
L 219.426579 73.565465 
L 207.979474 70.311971 
L 196.532368 66.239826 
L 185.085263 62.8135 
L 173.638158 59.048162 
L 162.191053 55.02463 
L 150.743947 51.347185 
L 139.296842 48.15794 
L 127.849737 44.63563 
L 116.402632 41.832778 
L 104.955526 39.455725 
L 93.508421 37.624762 
L 82.061316 36.238369 
L 70.614211 34.997786 
L 59.167105 33.856504 
L 47.72 33.591461 
z
" clip-path="url(#p5f024b0837)" style="fill: #d62728; fill-opacity: 0.4"/>
   </g>
   <g id="PolyCollection_5">
    <path d="M 47.72 33.587569 
L 47.72 34.512372 
L 59.167105 35.342809 
L 70.614211 38.585896 
L 82.061316 42.673195 
L 93.508421 48.215308 
L 104.955526 54.967453 
L 116.402632 62.606799 
L 127.849737 70.74741 
L 139.296842 78.347101 
L 150.743947 87.538322 
L 162.191053 95.139856 
L 173.638158 103.342074 
L 185.085263 110.920777 
L 196.532368 117.831007 
L 207.979474 124.150659 
L 219.426579 130.359898 
L 230.873684 135.882553 
L 242.320789 141.20177 
L 253.767895 146.240497 
L 265.215 150.501882 
L 265.215 137.097772 
L 265.215 137.097772 
L 253.767895 133.006436 
L 242.320789 127.621589 
L 230.873684 123.454267 
L 219.426579 118.178875 
L 207.979474 113.120605 
L 196.532368 107.145446 
L 185.085263 101.01426 
L 173.638158 94.86289 
L 162.191053 87.605103 
L 150.743947 80.16759 
L 139.296842 73.367767 
L 127.849737 65.370172 
L 116.402632 58.144246 
L 104.955526 51.144752 
L 93.508421 45.708443 
L 82.061316 40.958016 
L 70.614211 37.033268 
L 59.167105 34.20668 
L 47.72 33.587569 
z
" clip-path="url(#p5f024b0837)" style="fill: #9467bd; fill-opacity: 0.4"/>
   </g>
   <g id="PolyCollection_6">
    <path d="M 47.72 33.601988 
L 47.72 34.533093 
L 59.167105 34.990852 
L 70.614211 36.865523 
L 82.061316 39.039288 
L 93.508421 42.451947 
L 104.955526 46.773067 
L 116.402632 52.024708 
L 127.849737 57.70227 
L 139.296842 63.467466 
L 150.743947 70.699914 
L 162.191053 76.940463 
L 173.638158 83.669985 
L 185.085263 90.536714 
L 196.532368 97.046856 
L 207.979474 103.502733 
L 219.426579 109.367435 
L 230.873684 115.294158 
L 242.320789 120.762775 
L 253.767895 126.346075 
L 265.215 131.09584 
L 265.215 118.948124 
L 265.215 118.948124 
L 253.767895 114.801992 
L 242.320789 109.500118 
L 230.873684 104.527788 
L 219.426579 99.120105 
L 207.979474 93.899788 
L 196.532368 87.707679 
L 185.085263 81.850513 
L 173.638158 75.816057 
L 162.191053 69.399582 
L 150.743947 62.885084 
L 139.296842 57.873976 
L 127.849737 52.415072 
L 116.402632 47.679393 
L 104.955526 43.386357 
L 93.508421 40.289982 
L 82.061316 37.685738 
L 70.614211 35.581837 
L 59.167105 33.8948 
L 47.72 33.601988 
z
" clip-path="url(#p5f024b0837)" style="fill: #8c564b; fill-opacity: 0.4"/>
   </g>
   <g id="PolyCollection_7">
    <path d="M 47.72 47.413788 
L 47.72 49.543163 
L 59.167105 50.638448 
L 70.614211 54.335334 
L 82.061316 59.285508 
L 93.508421 65.966031 
L 104.955526 73.564229 
L 116.402632 82.527774 
L 127.849737 91.557258 
L 139.296842 99.882941 
L 150.743947 109.163552 
L 162.191053 117.547376 
L 173.638158 124.892123 
L 185.085263 132.470833 
L 196.532368 138.971407 
L 207.979474 145.264113 
L 219.426579 150.869733 
L 230.873684 155.120866 
L 242.320789 159.714281 
L 253.767895 163.667819 
L 265.215 167.350909 
L 265.215 155.185124 
L 265.215 155.185124 
L 253.767895 151.644201 
L 242.320789 148.035882 
L 230.873684 144.158753 
L 219.426579 139.687734 
L 207.979474 134.850087 
L 196.532368 128.95393 
L 185.085263 122.699325 
L 173.638158 115.695729 
L 162.191053 106.992596 
L 150.743947 99.253234 
L 139.296842 91.109487 
L 127.849737 82.011698 
L 116.402632 74.174343 
L 104.955526 66.656539 
L 93.508421 60.431602 
L 82.061316 55.395 
L 70.614211 51.11018 
L 59.167105 48.154665 
L 47.72 47.413788 
z
" clip-path="url(#p5f024b0837)" style="fill: #e377c2; fill-opacity: 0.4"/>
   </g>
   <g id="PolyCollection_8">
    <path d="M 47.72 33.599263 
L 47.72 34.531704 
L 59.167105 34.623984 
L 70.614211 35.054605 
L 82.061316 35.385392 
L 93.508421 36.333571 
L 104.955526 37.926192 
L 116.402632 41.002864 
L 127.849737 44.910325 
L 139.296842 49.265971 
L 150.743947 55.214054 
L 162.191053 61.465938 
L 173.638158 67.679372 
L 185.085263 74.781407 
L 196.532368 81.093937 
L 207.979474 87.76435 
L 219.426579 94.471343 
L 230.873684 99.842823 
L 242.320789 106.067193 
L 253.767895 112.064377 
L 265.215 117.550841 
L 265.215 107.786116 
L 265.215 107.786116 
L 253.767895 102.73327 
L 242.320789 97.281442 
L 230.873684 91.117228 
L 219.426579 84.531351 
L 207.979474 78.413114 
L 196.532368 71.637148 
L 185.085263 65.278858 
L 173.638158 59.515941 
L 162.191053 53.316175 
L 150.743947 48.356081 
L 139.296842 44.41429 
L 127.849737 40.594667 
L 116.402632 38.010977 
L 104.955526 36.095657 
L 93.508421 35.011472 
L 82.061316 34.40099 
L 70.614211 33.987825 
L 59.167105 33.609963 
L 47.72 33.599263 
z
" clip-path="url(#p5f024b0837)" style="fill: #7f7f7f; fill-opacity: 0.4"/>
   </g>
   <g id="matplotlib.axis_1">
    <g id="xtick_1">
     <g id="line2d_1">
      <defs>
       <path id="m0302a00b2c" d="M 0 0 
L 0 3.5 
" style="stroke: #000000; stroke-width: 0.8"/>
      </defs>
      <g>
       <use xlink:href="#m0302a00b2c" x="47.72" y="174.04" style="stroke: #000000; stroke-width: 0.8"/>
      </g>
     </g>
     <g id="text_1">
      <!-- 0.0 -->
      <g transform="translate(39.768438 188.638438)scale(0.1 -0.1)">
       <defs>
        <path id="DejaVuSans-30" d="M 2034 4250 
Q 1547 4250 1301 3770 
Q 1056 3291 1056 2328 
Q 1056 1369 1301 889 
Q 1547 409 2034 409 
Q 2525 409 2770 889 
Q 3016 1369 3016 2328 
Q 3016 3291 2770 3770 
Q 2525 4250 2034 4250 
z
M 2034 4750 
Q 2819 4750 3233 4129 
Q 3647 3509 3647 2328 
Q 3647 1150 3233 529 
Q 2819 -91 2034 -91 
Q 1250 -91 836 529 
Q 422 1150 422 2328 
Q 422 3509 836 4129 
Q 1250 4750 2034 4750 
z
" transform="scale(0.015625)"/>
        <path id="DejaVuSans-2e" d="M 684 794 
L 1344 794 
L 1344 0 
L 684 0 
L 684 794 
z
" transform="scale(0.015625)"/>
       </defs>
       <use xlink:href="#DejaVuSans-30"/>
       <use xlink:href="#DejaVuSans-2e" x="63.623047"/>
       <use xlink:href="#DejaVuSans-30" x="95.410156"/>
      </g>
     </g>
    </g>
    <g id="xtick_2">
     <g id="line2d_2">
      <g>
       <use xlink:href="#m0302a00b2c" x="102.09375" y="174.04" style="stroke: #000000; stroke-width: 0.8"/>
      </g>
     </g>
     <g id="text_2">
      <!-- 0.5 -->
      <g transform="translate(94.142188 188.638438)scale(0.1 -0.1)">
       <defs>
        <path id="DejaVuSans-35" d="M 691 4666 
L 3169 4666 
L 3169 4134 
L 1269 4134 
L 1269 2991 
Q 1406 3038 1543 3061 
Q 1681 3084 1819 3084 
Q 2600 3084 3056 2656 
Q 3513 2228 3513 1497 
Q 3513 744 3044 326 
Q 2575 -91 1722 -91 
Q 1428 -91 1123 -41 
Q 819 9 494 109 
L 494 744 
Q 775 591 1075 516 
Q 1375 441 1709 441 
Q 2250 441 2565 725 
Q 2881 1009 2881 1497 
Q 2881 1984 2565 2268 
Q 2250 2553 1709 2553 
Q 1456 2553 1204 2497 
Q 953 2441 691 2322 
L 691 4666 
z
" transform="scale(0.015625)"/>
       </defs>
       <use xlink:href="#DejaVuSans-30"/>
       <use xlink:href="#DejaVuSans-2e" x="63.623047"/>
       <use xlink:href="#DejaVuSans-35" x="95.410156"/>
      </g>
     </g>
    </g>
    <g id="xtick_3">
     <g id="line2d_3">
      <g>
       <use xlink:href="#m0302a00b2c" x="156.4675" y="174.04" style="stroke: #000000; stroke-width: 0.8"/>
      </g>
     </g>
     <g id="text_3">
      <!-- 1.0 -->
      <g transform="translate(148.515938 188.638438)scale(0.1 -0.1)">
       <defs>
        <path id="DejaVuSans-31" d="M 794 531 
L 1825 531 
L 1825 4091 
L 703 3866 
L 703 4441 
L 1819 4666 
L 2450 4666 
L 2450 531 
L 3481 531 
L 3481 0 
L 794 0 
L 794 531 
z
" transform="scale(0.015625)"/>
       </defs>
       <use xlink:href="#DejaVuSans-31"/>
       <use xlink:href="#DejaVuSans-2e" x="63.623047"/>
       <use xlink:href="#DejaVuSans-30" x="95.410156"/>
      </g>
     </g>
    </g>
    <g id="xtick_4">
     <g id="line2d_4">
      <g>
       <use xlink:href="#m0302a00b2c" x="210.84125" y="174.04" style="stroke: #000000; stroke-width: 0.8"/>
      </g>
     </g>
     <g id="text_4">
      <!-- 1.5 -->
      <g transform="translate(202.889687 188.638438)scale(0.1 -0.1)">
       <use xlink:href="#DejaVuSans-31"/>
       <use xlink:href="#DejaVuSans-2e" x="63.623047"/>
       <use xlink:href="#DejaVuSans-35" x="95.410156"/>
      </g>
     </g>
    </g>
    <g id="xtick_5">
     <g id="line2d_5">
      <g>
       <use xlink:href="#m0302a00b2c" x="265.215" y="174.04" style="stroke: #000000; stroke-width: 0.8"/>
      </g>
     </g>
     <g id="text_5">
      <!-- 2.0 -->
      <g transform="translate(257.263437 188.638438)scale(0.1 -0.1)">
       <defs>
        <path id="DejaVuSans-32" d="M 1228 531 
L 3431 531 
L 3431 0 
L 469 0 
L 469 531 
Q 828 903 1448 1529 
Q 2069 2156 2228 2338 
Q 2531 2678 2651 2914 
Q 2772 3150 2772 3378 
Q 2772 3750 2511 3984 
Q 2250 4219 1831 4219 
Q 1534 4219 1204 4116 
Q 875 4013 500 3803 
L 500 4441 
Q 881 4594 1212 4672 
Q 1544 4750 1819 4750 
Q 2544 4750 2975 4387 
Q 3406 4025 3406 3419 
Q 3406 3131 3298 2873 
Q 3191 2616 2906 2266 
Q 2828 2175 2409 1742 
Q 1991 1309 1228 531 
z
" transform="scale(0.015625)"/>
       </defs>
       <use xlink:href="#DejaVuSans-32"/>
       <use xlink:href="#DejaVuSans-2e" x="63.623047"/>
       <use xlink:href="#DejaVuSans-30" x="95.410156"/>
      </g>
     </g>
    </g>
    <g id="text_6">
     <!-- Influence of surprisal (multiplication) -->
     <g transform="translate(64.320625 202.316563)scale(0.1 -0.1)">
      <defs>
       <path id="DejaVuSans-49" d="M 628 4666 
L 1259 4666 
L 1259 0 
L 628 0 
L 628 4666 
z
" transform="scale(0.015625)"/>
       <path id="DejaVuSans-6e" d="M 3513 2113 
L 3513 0 
L 2938 0 
L 2938 2094 
Q 2938 2591 2744 2837 
Q 2550 3084 2163 3084 
Q 1697 3084 1428 2787 
Q 1159 2491 1159 1978 
L 1159 0 
L 581 0 
L 581 3500 
L 1159 3500 
L 1159 2956 
Q 1366 3272 1645 3428 
Q 1925 3584 2291 3584 
Q 2894 3584 3203 3211 
Q 3513 2838 3513 2113 
z
" transform="scale(0.015625)"/>
       <path id="DejaVuSans-66" d="M 2375 4863 
L 2375 4384 
L 1825 4384 
Q 1516 4384 1395 4259 
Q 1275 4134 1275 3809 
L 1275 3500 
L 2222 3500 
L 2222 3053 
L 1275 3053 
L 1275 0 
L 697 0 
L 697 3053 
L 147 3053 
L 147 3500 
L 697 3500 
L 697 3744 
Q 697 4328 969 4595 
Q 1241 4863 1831 4863 
L 2375 4863 
z
" transform="scale(0.015625)"/>
       <path id="DejaVuSans-6c" d="M 603 4863 
L 1178 4863 
L 1178 0 
L 603 0 
L 603 4863 
z
" transform="scale(0.015625)"/>
       <path id="DejaVuSans-75" d="M 544 1381 
L 544 3500 
L 1119 3500 
L 1119 1403 
Q 1119 906 1312 657 
Q 1506 409 1894 409 
Q 2359 409 2629 706 
Q 2900 1003 2900 1516 
L 2900 3500 
L 3475 3500 
L 3475 0 
L 2900 0 
L 2900 538 
Q 2691 219 2414 64 
Q 2138 -91 1772 -91 
Q 1169 -91 856 284 
Q 544 659 544 1381 
z
M 1991 3584 
L 1991 3584 
z
" transform="scale(0.015625)"/>
       <path id="DejaVuSans-65" d="M 3597 1894 
L 3597 1613 
L 953 1613 
Q 991 1019 1311 708 
Q 1631 397 2203 397 
Q 2534 397 2845 478 
Q 3156 559 3463 722 
L 3463 178 
Q 3153 47 2828 -22 
Q 2503 -91 2169 -91 
Q 1331 -91 842 396 
Q 353 884 353 1716 
Q 353 2575 817 3079 
Q 1281 3584 2069 3584 
Q 2775 3584 3186 3129 
Q 3597 2675 3597 1894 
z
M 3022 2063 
Q 3016 2534 2758 2815 
Q 2500 3097 2075 3097 
Q 1594 3097 1305 2825 
Q 1016 2553 972 2059 
L 3022 2063 
z
" transform="scale(0.015625)"/>
       <path id="DejaVuSans-63" d="M 3122 3366 
L 3122 2828 
Q 2878 2963 2633 3030 
Q 2388 3097 2138 3097 
Q 1578 3097 1268 2742 
Q 959 2388 959 1747 
Q 959 1106 1268 751 
Q 1578 397 2138 397 
Q 2388 397 2633 464 
Q 2878 531 3122 666 
L 3122 134 
Q 2881 22 2623 -34 
Q 2366 -91 2075 -91 
Q 1284 -91 818 406 
Q 353 903 353 1747 
Q 353 2603 823 3093 
Q 1294 3584 2113 3584 
Q 2378 3584 2631 3529 
Q 2884 3475 3122 3366 
z
" transform="scale(0.015625)"/>
       <path id="DejaVuSans-20" transform="scale(0.015625)"/>
       <path id="DejaVuSans-6f" d="M 1959 3097 
Q 1497 3097 1228 2736 
Q 959 2375 959 1747 
Q 959 1119 1226 758 
Q 1494 397 1959 397 
Q 2419 397 2687 759 
Q 2956 1122 2956 1747 
Q 2956 2369 2687 2733 
Q 2419 3097 1959 3097 
z
M 1959 3584 
Q 2709 3584 3137 3096 
Q 3566 2609 3566 1747 
Q 3566 888 3137 398 
Q 2709 -91 1959 -91 
Q 1206 -91 779 398 
Q 353 888 353 1747 
Q 353 2609 779 3096 
Q 1206 3584 1959 3584 
z
" transform="scale(0.015625)"/>
       <path id="DejaVuSans-73" d="M 2834 3397 
L 2834 2853 
Q 2591 2978 2328 3040 
Q 2066 3103 1784 3103 
Q 1356 3103 1142 2972 
Q 928 2841 928 2578 
Q 928 2378 1081 2264 
Q 1234 2150 1697 2047 
L 1894 2003 
Q 2506 1872 2764 1633 
Q 3022 1394 3022 966 
Q 3022 478 2636 193 
Q 2250 -91 1575 -91 
Q 1294 -91 989 -36 
Q 684 19 347 128 
L 347 722 
Q 666 556 975 473 
Q 1284 391 1588 391 
Q 1994 391 2212 530 
Q 2431 669 2431 922 
Q 2431 1156 2273 1281 
Q 2116 1406 1581 1522 
L 1381 1569 
Q 847 1681 609 1914 
Q 372 2147 372 2553 
Q 372 3047 722 3315 
Q 1072 3584 1716 3584 
Q 2034 3584 2315 3537 
Q 2597 3491 2834 3397 
z
" transform="scale(0.015625)"/>
       <path id="DejaVuSans-72" d="M 2631 2963 
Q 2534 3019 2420 3045 
Q 2306 3072 2169 3072 
Q 1681 3072 1420 2755 
Q 1159 2438 1159 1844 
L 1159 0 
L 581 0 
L 581 3500 
L 1159 3500 
L 1159 2956 
Q 1341 3275 1631 3429 
Q 1922 3584 2338 3584 
Q 2397 3584 2469 3576 
Q 2541 3569 2628 3553 
L 2631 2963 
z
" transform="scale(0.015625)"/>
       <path id="DejaVuSans-70" d="M 1159 525 
L 1159 -1331 
L 581 -1331 
L 581 3500 
L 1159 3500 
L 1159 2969 
Q 1341 3281 1617 3432 
Q 1894 3584 2278 3584 
Q 2916 3584 3314 3078 
Q 3713 2572 3713 1747 
Q 3713 922 3314 415 
Q 2916 -91 2278 -91 
Q 1894 -91 1617 61 
Q 1341 213 1159 525 
z
M 3116 1747 
Q 3116 2381 2855 2742 
Q 2594 3103 2138 3103 
Q 1681 3103 1420 2742 
Q 1159 2381 1159 1747 
Q 1159 1113 1420 752 
Q 1681 391 2138 391 
Q 2594 391 2855 752 
Q 3116 1113 3116 1747 
z
" transform="scale(0.015625)"/>
       <path id="DejaVuSans-69" d="M 603 3500 
L 1178 3500 
L 1178 0 
L 603 0 
L 603 3500 
z
M 603 4863 
L 1178 4863 
L 1178 4134 
L 603 4134 
L 603 4863 
z
" transform="scale(0.015625)"/>
       <path id="DejaVuSans-61" d="M 2194 1759 
Q 1497 1759 1228 1600 
Q 959 1441 959 1056 
Q 959 750 1161 570 
Q 1363 391 1709 391 
Q 2188 391 2477 730 
Q 2766 1069 2766 1631 
L 2766 1759 
L 2194 1759 
z
M 3341 1997 
L 3341 0 
L 2766 0 
L 2766 531 
Q 2569 213 2275 61 
Q 1981 -91 1556 -91 
Q 1019 -91 701 211 
Q 384 513 384 1019 
Q 384 1609 779 1909 
Q 1175 2209 1959 2209 
L 2766 2209 
L 2766 2266 
Q 2766 2663 2505 2880 
Q 2244 3097 1772 3097 
Q 1472 3097 1187 3025 
Q 903 2953 641 2809 
L 641 3341 
Q 956 3463 1253 3523 
Q 1550 3584 1831 3584 
Q 2591 3584 2966 3190 
Q 3341 2797 3341 1997 
z
" transform="scale(0.015625)"/>
       <path id="DejaVuSans-28" d="M 1984 4856 
Q 1566 4138 1362 3434 
Q 1159 2731 1159 2009 
Q 1159 1288 1364 580 
Q 1569 -128 1984 -844 
L 1484 -844 
Q 1016 -109 783 600 
Q 550 1309 550 2009 
Q 550 2706 781 3412 
Q 1013 4119 1484 4856 
L 1984 4856 
z
" transform="scale(0.015625)"/>
       <path id="DejaVuSans-6d" d="M 3328 2828 
Q 3544 3216 3844 3400 
Q 4144 3584 4550 3584 
Q 5097 3584 5394 3201 
Q 5691 2819 5691 2113 
L 5691 0 
L 5113 0 
L 5113 2094 
Q 5113 2597 4934 2840 
Q 4756 3084 4391 3084 
Q 3944 3084 3684 2787 
Q 3425 2491 3425 1978 
L 3425 0 
L 2847 0 
L 2847 2094 
Q 2847 2600 2669 2842 
Q 2491 3084 2119 3084 
Q 1678 3084 1418 2786 
Q 1159 2488 1159 1978 
L 1159 0 
L 581 0 
L 581 3500 
L 1159 3500 
L 1159 2956 
Q 1356 3278 1631 3431 
Q 1906 3584 2284 3584 
Q 2666 3584 2933 3390 
Q 3200 3197 3328 2828 
z
" transform="scale(0.015625)"/>
       <path id="DejaVuSans-74" d="M 1172 4494 
L 1172 3500 
L 2356 3500 
L 2356 3053 
L 1172 3053 
L 1172 1153 
Q 1172 725 1289 603 
Q 1406 481 1766 481 
L 2356 481 
L 2356 0 
L 1766 0 
Q 1100 0 847 248 
Q 594 497 594 1153 
L 594 3053 
L 172 3053 
L 172 3500 
L 594 3500 
L 594 4494 
L 1172 4494 
z
" transform="scale(0.015625)"/>
       <path id="DejaVuSans-29" d="M 513 4856 
L 1013 4856 
Q 1481 4119 1714 3412 
Q 1947 2706 1947 2009 
Q 1947 1309 1714 600 
Q 1481 -109 1013 -844 
L 513 -844 
Q 928 -128 1133 580 
Q 1338 1288 1338 2009 
Q 1338 2731 1133 3434 
Q 928 4138 513 4856 
z
" transform="scale(0.015625)"/>
      </defs>
      <use xlink:href="#DejaVuSans-49"/>
      <use xlink:href="#DejaVuSans-6e" x="29.492188"/>
      <use xlink:href="#DejaVuSans-66" x="92.871094"/>
      <use xlink:href="#DejaVuSans-6c" x="128.076172"/>
      <use xlink:href="#DejaVuSans-75" x="155.859375"/>
      <use xlink:href="#DejaVuSans-65" x="219.238281"/>
      <use xlink:href="#DejaVuSans-6e" x="280.761719"/>
      <use xlink:href="#DejaVuSans-63" x="344.140625"/>
      <use xlink:href="#DejaVuSans-65" x="399.121094"/>
      <use xlink:href="#DejaVuSans-20" x="460.644531"/>
      <use xlink:href="#DejaVuSans-6f" x="492.431641"/>
      <use xlink:href="#DejaVuSans-66" x="553.613281"/>
      <use xlink:href="#DejaVuSans-20" x="588.818359"/>
      <use xlink:href="#DejaVuSans-73" x="620.605469"/>
      <use xlink:href="#DejaVuSans-75" x="672.705078"/>
      <use xlink:href="#DejaVuSans-72" x="736.083984"/>
      <use xlink:href="#DejaVuSans-70" x="777.197266"/>
      <use xlink:href="#DejaVuSans-72" x="840.673828"/>
      <use xlink:href="#DejaVuSans-69" x="881.787109"/>
      <use xlink:href="#DejaVuSans-73" x="909.570312"/>
      <use xlink:href="#DejaVuSans-61" x="961.669922"/>
      <use xlink:href="#DejaVuSans-6c" x="1022.949219"/>
      <use xlink:href="#DejaVuSans-20" x="1050.732422"/>
      <use xlink:href="#DejaVuSans-28" x="1082.519531"/>
      <use xlink:href="#DejaVuSans-6d" x="1121.533203"/>
      <use xlink:href="#DejaVuSans-75" x="1218.945312"/>
      <use xlink:href="#DejaVuSans-6c" x="1282.324219"/>
      <use xlink:href="#DejaVuSans-74" x="1310.107422"/>
      <use xlink:href="#DejaVuSans-69" x="1349.316406"/>
      <use xlink:href="#DejaVuSans-70" x="1377.099609"/>
      <use xlink:href="#DejaVuSans-6c" x="1440.576172"/>
      <use xlink:href="#DejaVuSans-69" x="1468.359375"/>
      <use xlink:href="#DejaVuSans-63" x="1496.142578"/>
      <use xlink:href="#DejaVuSans-61" x="1551.123047"/>
      <use xlink:href="#DejaVuSans-74" x="1612.402344"/>
      <use xlink:href="#DejaVuSans-69" x="1651.611328"/>
      <use xlink:href="#DejaVuSans-6f" x="1679.394531"/>
      <use xlink:href="#DejaVuSans-6e" x="1740.576172"/>
      <use xlink:href="#DejaVuSans-29" x="1803.955078"/>
     </g>
    </g>
   </g>
   <g id="matplotlib.axis_2">
    <g id="ytick_1">
     <g id="line2d_6">
      <defs>
       <path id="mb6fe0a4114" d="M 0 0 
L -3.5 0 
" style="stroke: #000000; stroke-width: 0.8"/>
      </defs>
      <g>
       <use xlink:href="#mb6fe0a4114" x="47.72" y="173.959168" style="stroke: #000000; stroke-width: 0.8"/>
      </g>
     </g>
     <g id="text_7">
      <!-- 0.2 -->
      <g transform="translate(24.816875 177.758387)scale(0.1 -0.1)">
       <use xlink:href="#DejaVuSans-30"/>
       <use xlink:href="#DejaVuSans-2e" x="63.623047"/>
       <use xlink:href="#DejaVuSans-32" x="95.410156"/>
      </g>
     </g>
    </g>
    <g id="ytick_2">
     <g id="line2d_7">
      <g>
       <use xlink:href="#mb6fe0a4114" x="47.72" y="136.4554" style="stroke: #000000; stroke-width: 0.8"/>
      </g>
     </g>
     <g id="text_8">
      <!-- 0.4 -->
      <g transform="translate(24.816875 140.254619)scale(0.1 -0.1)">
       <defs>
        <path id="DejaVuSans-34" d="M 2419 4116 
L 825 1625 
L 2419 1625 
L 2419 4116 
z
M 2253 4666 
L 3047 4666 
L 3047 1625 
L 3713 1625 
L 3713 1100 
L 3047 1100 
L 3047 0 
L 2419 0 
L 2419 1100 
L 313 1100 
L 313 1709 
L 2253 4666 
z
" transform="scale(0.015625)"/>
       </defs>
       <use xlink:href="#DejaVuSans-30"/>
       <use xlink:href="#DejaVuSans-2e" x="63.623047"/>
       <use xlink:href="#DejaVuSans-34" x="95.410156"/>
      </g>
     </g>
    </g>
    <g id="ytick_3">
     <g id="line2d_8">
      <g>
       <use xlink:href="#mb6fe0a4114" x="47.72" y="98.951632" style="stroke: #000000; stroke-width: 0.8"/>
      </g>
     </g>
     <g id="text_9">
      <!-- 0.6 -->
      <g transform="translate(24.816875 102.750851)scale(0.1 -0.1)">
       <defs>
        <path id="DejaVuSans-36" d="M 2113 2584 
Q 1688 2584 1439 2293 
Q 1191 2003 1191 1497 
Q 1191 994 1439 701 
Q 1688 409 2113 409 
Q 2538 409 2786 701 
Q 3034 994 3034 1497 
Q 3034 2003 2786 2293 
Q 2538 2584 2113 2584 
z
M 3366 4563 
L 3366 3988 
Q 3128 4100 2886 4159 
Q 2644 4219 2406 4219 
Q 1781 4219 1451 3797 
Q 1122 3375 1075 2522 
Q 1259 2794 1537 2939 
Q 1816 3084 2150 3084 
Q 2853 3084 3261 2657 
Q 3669 2231 3669 1497 
Q 3669 778 3244 343 
Q 2819 -91 2113 -91 
Q 1303 -91 875 529 
Q 447 1150 447 2328 
Q 447 3434 972 4092 
Q 1497 4750 2381 4750 
Q 2619 4750 2861 4703 
Q 3103 4656 3366 4563 
z
" transform="scale(0.015625)"/>
       </defs>
       <use xlink:href="#DejaVuSans-30"/>
       <use xlink:href="#DejaVuSans-2e" x="63.623047"/>
       <use xlink:href="#DejaVuSans-36" x="95.410156"/>
      </g>
     </g>
    </g>
    <g id="ytick_4">
     <g id="line2d_9">
      <g>
       <use xlink:href="#mb6fe0a4114" x="47.72" y="61.447864" style="stroke: #000000; stroke-width: 0.8"/>
      </g>
     </g>
     <g id="text_10">
      <!-- 0.8 -->
      <g transform="translate(24.816875 65.247083)scale(0.1 -0.1)">
       <defs>
        <path id="DejaVuSans-38" d="M 2034 2216 
Q 1584 2216 1326 1975 
Q 1069 1734 1069 1313 
Q 1069 891 1326 650 
Q 1584 409 2034 409 
Q 2484 409 2743 651 
Q 3003 894 3003 1313 
Q 3003 1734 2745 1975 
Q 2488 2216 2034 2216 
z
M 1403 2484 
Q 997 2584 770 2862 
Q 544 3141 544 3541 
Q 544 4100 942 4425 
Q 1341 4750 2034 4750 
Q 2731 4750 3128 4425 
Q 3525 4100 3525 3541 
Q 3525 3141 3298 2862 
Q 3072 2584 2669 2484 
Q 3125 2378 3379 2068 
Q 3634 1759 3634 1313 
Q 3634 634 3220 271 
Q 2806 -91 2034 -91 
Q 1263 -91 848 271 
Q 434 634 434 1313 
Q 434 1759 690 2068 
Q 947 2378 1403 2484 
z
M 1172 3481 
Q 1172 3119 1398 2916 
Q 1625 2713 2034 2713 
Q 2441 2713 2670 2916 
Q 2900 3119 2900 3481 
Q 2900 3844 2670 4047 
Q 2441 4250 2034 4250 
Q 1625 4250 1398 4047 
Q 1172 3844 1172 3481 
z
" transform="scale(0.015625)"/>
       </defs>
       <use xlink:href="#DejaVuSans-30"/>
       <use xlink:href="#DejaVuSans-2e" x="63.623047"/>
       <use xlink:href="#DejaVuSans-38" x="95.410156"/>
      </g>
     </g>
    </g>
    <g id="text_11">
     <!-- R-value -->
     <g transform="translate(18.737188 119.064687)rotate(-90)scale(0.1 -0.1)">
      <defs>
       <path id="DejaVuSans-52" d="M 2841 2188 
Q 3044 2119 3236 1894 
Q 3428 1669 3622 1275 
L 4263 0 
L 3584 0 
L 2988 1197 
Q 2756 1666 2539 1819 
Q 2322 1972 1947 1972 
L 1259 1972 
L 1259 0 
L 628 0 
L 628 4666 
L 2053 4666 
Q 2853 4666 3247 4331 
Q 3641 3997 3641 3322 
Q 3641 2881 3436 2590 
Q 3231 2300 2841 2188 
z
M 1259 4147 
L 1259 2491 
L 2053 2491 
Q 2509 2491 2742 2702 
Q 2975 2913 2975 3322 
Q 2975 3731 2742 3939 
Q 2509 4147 2053 4147 
L 1259 4147 
z
" transform="scale(0.015625)"/>
       <path id="DejaVuSans-2d" d="M 313 2009 
L 1997 2009 
L 1997 1497 
L 313 1497 
L 313 2009 
z
" transform="scale(0.015625)"/>
       <path id="DejaVuSans-76" d="M 191 3500 
L 800 3500 
L 1894 563 
L 2988 3500 
L 3597 3500 
L 2284 0 
L 1503 0 
L 191 3500 
z
" transform="scale(0.015625)"/>
      </defs>
      <use xlink:href="#DejaVuSans-52"/>
      <use xlink:href="#DejaVuSans-2d" x="65.482422"/>
      <use xlink:href="#DejaVuSans-76" x="98.941406"/>
      <use xlink:href="#DejaVuSans-61" x="158.121094"/>
      <use xlink:href="#DejaVuSans-6c" x="219.400391"/>
      <use xlink:href="#DejaVuSans-75" x="247.183594"/>
      <use xlink:href="#DejaVuSans-65" x="310.5625"/>
     </g>
    </g>
   </g>
   <g id="line2d_10">
    <path d="M 47.72 34.034284 
L 59.167105 34.766788 
L 70.614211 37.777742 
L 82.061316 41.814625 
L 93.508421 46.941822 
L 104.955526 53.046061 
L 116.402632 60.277106 
L 127.849737 67.991696 
L 139.296842 75.815822 
L 150.743947 83.663421 
L 162.191053 91.252979 
L 173.638158 98.764425 
L 185.085263 105.883381 
L 196.532368 112.065137 
L 207.979474 118.392694 
L 219.426579 124.08069 
L 230.873684 129.282141 
L 242.320789 134.419412 
L 253.767895 139.062352 
L 265.215 143.193526 
" clip-path="url(#p5f024b0837)" style="fill: none; stroke: #1f77b4; stroke-width: 1.5; stroke-linecap: square"/>
   </g>
   <g id="line2d_11">
    <path d="M 47.72 34.051401 
L 59.167105 34.434806 
L 70.614211 36.198444 
L 82.061316 38.369091 
L 93.508421 41.342102 
L 104.955526 45.052474 
L 116.402632 49.791873 
L 127.849737 54.991976 
L 139.296842 60.575839 
L 150.743947 66.664847 
L 162.191053 73.034342 
L 173.638158 79.535959 
L 185.085263 86.078529 
L 196.532368 92.053568 
L 207.979474 98.374788 
L 219.426579 104.19888 
L 230.873684 109.606977 
L 242.320789 115.064743 
L 253.767895 120.079337 
L 265.215 124.692212 
" clip-path="url(#p5f024b0837)" style="fill: none; stroke: #ff7f0e; stroke-width: 1.5; stroke-linecap: square"/>
   </g>
   <g id="line2d_12">
    <path d="M 47.72 34.054363 
L 59.167105 34.518658 
L 70.614211 35.946653 
L 82.061316 37.581008 
L 93.508421 39.63891 
L 104.955526 42.063926 
L 116.402632 45.25931 
L 127.849737 48.554804 
L 139.296842 52.133285 
L 150.743947 56.023833 
L 162.191053 59.552329 
L 173.638158 63.453423 
L 185.085263 67.294136 
L 196.532368 70.740184 
L 207.979474 74.622746 
L 219.426579 78.152545 
L 230.873684 81.254206 
L 242.320789 84.862398 
L 253.767895 88.302679 
L 265.215 91.522711 
" clip-path="url(#p5f024b0837)" style="fill: none; stroke: #2ca02c; stroke-width: 1.5; stroke-linecap: square"/>
   </g>
   <g id="line2d_13">
    <path d="M 47.72 34.066361 
L 59.167105 34.398804 
L 70.614211 35.575841 
L 82.061316 36.821024 
L 93.508421 38.521353 
L 104.955526 40.561242 
L 116.402632 43.401574 
L 127.849737 46.394246 
L 139.296842 49.789165 
L 150.743947 53.621325 
L 162.191053 57.323178 
L 173.638158 61.329186 
L 185.085263 65.304188 
L 196.532368 68.821619 
L 207.979474 72.784983 
L 219.426579 76.393705 
L 230.873684 79.604988 
L 242.320789 83.290164 
L 253.767895 86.87816 
L 265.215 90.192146 
" clip-path="url(#p5f024b0837)" style="fill: none; stroke: #d62728; stroke-width: 1.5; stroke-linecap: square"/>
   </g>
   <g id="line2d_14">
    <path d="M 47.72 34.049971 
L 59.167105 34.774745 
L 70.614211 37.809582 
L 82.061316 41.815605 
L 93.508421 46.961875 
L 104.955526 53.056103 
L 116.402632 60.375523 
L 127.849737 68.058791 
L 139.296842 75.857434 
L 150.743947 83.852956 
L 162.191053 91.37248 
L 173.638158 99.102482 
L 185.085263 105.967518 
L 196.532368 112.488226 
L 207.979474 118.635632 
L 219.426579 124.269386 
L 230.873684 129.66841 
L 242.320789 134.41168 
L 253.767895 139.623466 
L 265.215 143.799827 
" clip-path="url(#p5f024b0837)" style="fill: none; stroke: #9467bd; stroke-width: 1.5; stroke-linecap: square"/>
   </g>
   <g id="line2d_15">
    <path d="M 47.72 34.067541 
L 59.167105 34.442826 
L 70.614211 36.22368 
L 82.061316 38.362513 
L 93.508421 41.370965 
L 104.955526 45.079712 
L 116.402632 49.85205 
L 127.849737 55.058671 
L 139.296842 60.670721 
L 150.743947 66.792499 
L 162.191053 73.170022 
L 173.638158 79.743021 
L 185.085263 86.193613 
L 196.532368 92.377267 
L 207.979474 98.70126 
L 219.426579 104.24377 
L 230.873684 109.910973 
L 242.320789 115.131446 
L 253.767895 120.574034 
L 265.215 125.021982 
" clip-path="url(#p5f024b0837)" style="fill: none; stroke: #8c564b; stroke-width: 1.5; stroke-linecap: square"/>
   </g>
   <g id="line2d_16">
    <path d="M 47.72 48.478475 
L 59.167105 49.396557 
L 70.614211 52.722757 
L 82.061316 57.340254 
L 93.508421 63.198816 
L 104.955526 70.110384 
L 116.402632 78.351058 
L 127.849737 86.784478 
L 139.296842 95.496214 
L 150.743947 104.208393 
L 162.191053 112.269986 
L 173.638158 120.293926 
L 185.085263 127.585079 
L 196.532368 133.962669 
L 207.979474 140.0571 
L 219.426579 145.278733 
L 230.873684 149.63981 
L 242.320789 153.875082 
L 253.767895 157.65601 
L 265.215 161.268016 
" clip-path="url(#p5f024b0837)" style="fill: none; stroke: #e377c2; stroke-width: 1.5; stroke-linecap: square"/>
   </g>
   <g id="line2d_17">
    <path d="M 47.72 34.065483 
L 59.167105 34.116973 
L 70.614211 34.521215 
L 82.061316 34.893191 
L 93.508421 35.672521 
L 104.955526 37.010924 
L 116.402632 39.50692 
L 127.849737 42.752496 
L 139.296842 46.84013 
L 150.743947 51.785068 
L 162.191053 57.391057 
L 173.638158 63.597656 
L 185.085263 70.030132 
L 196.532368 76.365543 
L 207.979474 83.088732 
L 219.426579 89.501347 
L 230.873684 95.480026 
L 242.320789 101.674318 
L 253.767895 107.398824 
L 265.215 112.668479 
" clip-path="url(#p5f024b0837)" style="fill: none; stroke: #7f7f7f; stroke-width: 1.5; stroke-linecap: square"/>
   </g>
   <g id="patch_3">
    <path d="M 47.72 174.04 
L 47.72 26.88 
" style="fill: none; stroke: #000000; stroke-width: 0.8; stroke-linejoin: miter; stroke-linecap: square"/>
   </g>
   <g id="patch_4">
    <path d="M 47.72 174.04 
L 265.215 174.04 
" style="fill: none; stroke: #000000; stroke-width: 0.8; stroke-linejoin: miter; stroke-linecap: square"/>
   </g>
   <g id="text_12">
    <!-- Node * surprisal -->
    <g transform="translate(108.18625 20.88)scale(0.12 -0.12)">
     <defs>
      <path id="DejaVuSans-4e" d="M 628 4666 
L 1478 4666 
L 3547 763 
L 3547 4666 
L 4159 4666 
L 4159 0 
L 3309 0 
L 1241 3903 
L 1241 0 
L 628 0 
L 628 4666 
z
" transform="scale(0.015625)"/>
      <path id="DejaVuSans-64" d="M 2906 2969 
L 2906 4863 
L 3481 4863 
L 3481 0 
L 2906 0 
L 2906 525 
Q 2725 213 2448 61 
Q 2172 -91 1784 -91 
Q 1150 -91 751 415 
Q 353 922 353 1747 
Q 353 2572 751 3078 
Q 1150 3584 1784 3584 
Q 2172 3584 2448 3432 
Q 2725 3281 2906 2969 
z
M 947 1747 
Q 947 1113 1208 752 
Q 1469 391 1925 391 
Q 2381 391 2643 752 
Q 2906 1113 2906 1747 
Q 2906 2381 2643 2742 
Q 2381 3103 1925 3103 
Q 1469 3103 1208 2742 
Q 947 2381 947 1747 
z
" transform="scale(0.015625)"/>
      <path id="DejaVuSans-2a" d="M 3009 3897 
L 1888 3291 
L 3009 2681 
L 2828 2375 
L 1778 3009 
L 1778 1831 
L 1422 1831 
L 1422 3009 
L 372 2375 
L 191 2681 
L 1313 3291 
L 191 3897 
L 372 4206 
L 1422 3572 
L 1422 4750 
L 1778 4750 
L 1778 3572 
L 2828 4206 
L 3009 3897 
z
" transform="scale(0.015625)"/>
     </defs>
     <use xlink:href="#DejaVuSans-4e"/>
     <use xlink:href="#DejaVuSans-6f" x="74.804688"/>
     <use xlink:href="#DejaVuSans-64" x="135.986328"/>
     <use xlink:href="#DejaVuSans-65" x="199.462891"/>
     <use xlink:href="#DejaVuSans-20" x="260.986328"/>
     <use xlink:href="#DejaVuSans-2a" x="292.773438"/>
     <use xlink:href="#DejaVuSans-20" x="342.773438"/>
     <use xlink:href="#DejaVuSans-73" x="374.560547"/>
     <use xlink:href="#DejaVuSans-75" x="426.660156"/>
     <use xlink:href="#DejaVuSans-72" x="490.039062"/>
     <use xlink:href="#DejaVuSans-70" x="531.152344"/>
     <use xlink:href="#DejaVuSans-72" x="594.628906"/>
     <use xlink:href="#DejaVuSans-69" x="635.742188"/>
     <use xlink:href="#DejaVuSans-73" x="663.525391"/>
     <use xlink:href="#DejaVuSans-61" x="715.625"/>
     <use xlink:href="#DejaVuSans-6c" x="776.904297"/>
    </g>
   </g>
  </g>
  <g id="axes_2">
   <g id="patch_5">
    <path d="M 298.065 174.04 
L 515.56 174.04 
L 515.56 26.88 
L 298.065 26.88 
z
" style="fill: #ffffff"/>
   </g>
   <g id="PolyCollection_9">
    <path d="M 298.065 33.605065 
L 298.065 34.39302 
L 309.512105 35.423141 
L 320.959211 38.278092 
L 332.406316 42.706767 
L 343.853421 48.637603 
L 355.300526 54.809898 
L 366.747632 61.311747 
L 378.194737 68.305622 
L 389.641842 75.927751 
L 401.088947 83.20056 
L 412.536053 90.415089 
L 423.983158 97.373463 
L 435.430263 104.507195 
L 446.877368 111.263473 
L 458.324474 117.827936 
L 469.771579 123.328677 
L 481.218684 129.607451 
L 492.665789 134.924439 
L 504.112895 140.015061 
L 515.56 144.794529 
L 515.56 136.165352 
L 515.56 136.165352 
L 504.112895 131.704605 
L 492.665789 126.947054 
L 481.218684 121.626283 
L 469.771579 116.226191 
L 458.324474 110.468368 
L 446.877368 104.355123 
L 435.430263 97.910775 
L 423.983158 91.102066 
L 412.536053 84.067405 
L 401.088947 76.667336 
L 389.641842 70.03955 
L 378.194737 63.086965 
L 366.747632 56.315244 
L 355.300526 50.165933 
L 343.853421 44.51507 
L 332.406316 40.118929 
L 320.959211 36.764842 
L 309.512105 34.441146 
L 298.065 33.605065 
z
" clip-path="url(#pe0ccbdcadc)" style="fill: #1f77b4; fill-opacity: 0.4"/>
   </g>
   <g id="PolyCollection_10">
    <path d="M 298.065 33.613278 
L 298.065 34.413359 
L 309.512105 35.430122 
L 320.959211 38.303613 
L 332.406316 42.742849 
L 343.853421 48.687043 
L 355.300526 54.891919 
L 366.747632 61.423787 
L 378.194737 68.43845 
L 389.641842 76.049482 
L 401.088947 83.311465 
L 412.536053 90.538231 
L 423.983158 97.474776 
L 435.430263 104.607096 
L 446.877368 111.393813 
L 458.324474 117.944971 
L 469.771579 123.473049 
L 481.218684 129.76877 
L 492.665789 135.097837 
L 504.112895 140.129892 
L 515.56 144.894158 
L 515.56 136.108071 
L 515.56 136.108071 
L 504.112895 131.660163 
L 492.665789 126.95422 
L 481.218684 121.635298 
L 469.771579 116.265388 
L 458.324474 110.492 
L 446.877368 104.437481 
L 435.430263 98.051347 
L 423.983158 91.219007 
L 412.536053 84.155639 
L 401.088947 76.755238 
L 389.641842 70.122117 
L 378.194737 63.133443 
L 366.747632 56.35994 
L 355.300526 50.201297 
L 343.853421 44.53912 
L 332.406316 40.14053 
L 320.959211 36.78985 
L 309.512105 34.443001 
L 298.065 33.613278 
z
" clip-path="url(#pe0ccbdcadc)" style="fill: #ff7f0e; fill-opacity: 0.4"/>
   </g>
   <g id="PolyCollection_11">
    <path d="M 298.065 33.611034 
L 298.065 34.415514 
L 309.512105 35.42945 
L 320.959211 38.299302 
L 332.406316 42.725312 
L 343.853421 48.662187 
L 355.300526 54.854812 
L 366.747632 61.409506 
L 378.194737 68.403928 
L 389.641842 76.011361 
L 401.088947 83.278843 
L 412.536053 90.481836 
L 423.983158 97.412239 
L 435.430263 104.535818 
L 446.877368 111.303334 
L 458.324474 117.853192 
L 469.771579 123.430851 
L 481.218684 129.620488 
L 492.665789 134.994975 
L 504.112895 140.077927 
L 515.56 144.922059 
L 515.56 135.880701 
L 515.56 135.880701 
L 504.112895 131.503848 
L 492.665789 126.787422 
L 481.218684 121.499018 
L 469.771579 116.161606 
L 458.324474 110.444594 
L 446.877368 104.383518 
L 435.430263 97.952361 
L 423.983158 91.146772 
L 412.536053 84.077316 
L 401.088947 76.68252 
L 389.641842 70.046955 
L 378.194737 63.060755 
L 366.747632 56.294937 
L 355.300526 50.14788 
L 343.853421 44.523563 
L 332.406316 40.109222 
L 320.959211 36.782001 
L 309.512105 34.453438 
L 298.065 33.611034 
z
" clip-path="url(#pe0ccbdcadc)" style="fill: #2ca02c; fill-opacity: 0.4"/>
   </g>
   <g id="PolyCollection_12">
    <path d="M 298.065 33.618377 
L 298.065 34.424224 
L 309.512105 35.436578 
L 320.959211 38.307955 
L 332.406316 42.745106 
L 343.853421 48.677906 
L 355.300526 54.883967 
L 366.747632 61.447321 
L 378.194737 68.461924 
L 389.641842 76.080817 
L 401.088947 83.364303 
L 412.536053 90.579423 
L 423.983158 97.559525 
L 435.430263 104.710065 
L 446.877368 111.51021 
L 458.324474 118.057159 
L 469.771579 123.681713 
L 481.218684 129.947557 
L 492.665789 135.344537 
L 504.112895 140.358081 
L 515.56 145.25068 
L 515.56 135.973228 
L 515.56 135.973228 
L 504.112895 131.55432 
L 492.665789 126.849774 
L 481.218684 121.536431 
L 469.771579 116.219461 
L 458.324474 110.481429 
L 446.877368 104.43218 
L 435.430263 98.031823 
L 423.983158 91.176015 
L 412.536053 84.104081 
L 401.088947 76.723956 
L 389.641842 70.093619 
L 378.194737 63.068008 
L 366.747632 56.313594 
L 355.300526 50.163445 
L 343.853421 44.524245 
L 332.406316 40.126738 
L 320.959211 36.799199 
L 309.512105 34.456259 
L 298.065 33.618377 
z
" clip-path="url(#pe0ccbdcadc)" style="fill: #d62728; fill-opacity: 0.4"/>
   </g>
   <g id="PolyCollection_13">
    <path d="M 298.065 33.616469 
L 298.065 34.40178 
L 309.512105 35.439789 
L 320.959211 38.312541 
L 332.406316 42.756641 
L 343.853421 48.684857 
L 355.300526 54.836873 
L 366.747632 61.345788 
L 378.194737 68.267412 
L 389.641842 76.13005 
L 401.088947 83.140821 
L 412.536053 90.474272 
L 423.983158 97.630522 
L 435.430263 104.550987 
L 446.877368 111.70234 
L 458.324474 118.317744 
L 469.771579 122.795303 
L 481.218684 130.007494 
L 492.665789 135.621975 
L 504.112895 140.600897 
L 515.56 145.290423 
L 515.56 136.728219 
L 515.56 136.728219 
L 504.112895 132.100613 
L 492.665789 127.328113 
L 481.218684 121.951646 
L 469.771579 116.957269 
L 458.324474 110.562268 
L 446.877368 104.476524 
L 435.430263 97.982829 
L 423.983158 91.069423 
L 412.536053 84.369376 
L 401.088947 76.729631 
L 389.641842 70.161908 
L 378.194737 63.140851 
L 366.747632 56.297909 
L 355.300526 50.197407 
L 343.853421 44.489239 
L 332.406316 40.151535 
L 320.959211 36.795316 
L 309.512105 34.459441 
L 298.065 33.616469 
z
" clip-path="url(#pe0ccbdcadc)" style="fill: #9467bd; fill-opacity: 0.4"/>
   </g>
   <g id="PolyCollection_14">
    <path d="M 298.065 33.625464 
L 298.065 34.422645 
L 309.512105 35.447706 
L 320.959211 38.339906 
L 332.406316 42.792876 
L 343.853421 48.73341 
L 355.300526 54.920572 
L 366.747632 61.460905 
L 378.194737 68.40029 
L 389.641842 76.253548 
L 401.088947 83.250405 
L 412.536053 90.620445 
L 423.983158 97.736451 
L 435.430263 104.652754 
L 446.877368 111.830012 
L 458.324474 118.428892 
L 469.771579 122.956413 
L 481.218684 130.166512 
L 492.665789 135.79435 
L 504.112895 140.726844 
L 515.56 145.386433 
L 515.56 136.687923 
L 515.56 136.687923 
L 504.112895 132.06781 
L 492.665789 127.329357 
L 481.218684 121.961075 
L 469.771579 116.970338 
L 458.324474 110.583698 
L 446.877368 104.56908 
L 435.430263 98.127942 
L 423.983158 91.205539 
L 412.536053 84.495645 
L 401.088947 76.811794 
L 389.641842 70.216462 
L 378.194737 63.188083 
L 366.747632 56.339068 
L 355.300526 50.238351 
L 343.853421 44.515289 
L 332.406316 40.174304 
L 320.959211 36.820357 
L 309.512105 34.461558 
L 298.065 33.625464 
z
" clip-path="url(#pe0ccbdcadc)" style="fill: #8c564b; fill-opacity: 0.4"/>
   </g>
   <g id="PolyCollection_15">
    <path d="M 298.065 47.377823 
L 298.065 49.505668 
L 309.512105 50.310831 
L 320.959211 52.893858 
L 332.406316 56.617943 
L 343.853421 62.000447 
L 355.300526 67.621337 
L 366.747632 73.916717 
L 378.194737 80.379785 
L 389.641842 87.435923 
L 401.088947 94.176084 
L 412.536053 101.216526 
L 423.983158 107.596988 
L 435.430263 114.369688 
L 446.877368 121.02214 
L 458.324474 127.166574 
L 469.771579 132.375892 
L 481.218684 138.471795 
L 492.665789 143.285333 
L 504.112895 148.128826 
L 515.56 152.512645 
L 515.56 138.698666 
L 515.56 138.698666 
L 504.112895 134.691676 
L 492.665789 130.549647 
L 481.218684 126.036167 
L 469.771579 121.304592 
L 458.324474 116.346817 
L 446.877368 111.263942 
L 435.430263 105.47236 
L 423.983158 99.859908 
L 412.536053 93.349913 
L 401.088947 87.134172 
L 389.641842 81.081271 
L 378.194737 74.793402 
L 366.747632 68.476474 
L 355.300526 62.948384 
L 343.853421 57.721007 
L 332.406316 53.671377 
L 320.959211 50.32888 
L 309.512105 48.225888 
L 298.065 47.377823 
z
" clip-path="url(#pe0ccbdcadc)" style="fill: #e377c2; fill-opacity: 0.4"/>
   </g>
   <g id="PolyCollection_16">
    <path d="M 298.065 33.619235 
L 298.065 34.432035 
L 309.512105 35.457429 
L 320.959211 38.322522 
L 332.406316 42.789376 
L 343.853421 48.759715 
L 355.300526 54.958958 
L 366.747632 61.558036 
L 378.194737 68.569038 
L 389.641842 76.123973 
L 401.088947 83.427382 
L 412.536053 90.632503 
L 423.983158 97.51861 
L 435.430263 104.649591 
L 446.877368 111.376325 
L 458.324474 117.923865 
L 469.771579 123.464839 
L 481.218684 129.720089 
L 492.665789 135.040262 
L 504.112895 140.008086 
L 515.56 144.893825 
L 515.56 136.354504 
L 515.56 136.354504 
L 504.112895 131.811972 
L 492.665789 127.110521 
L 481.218684 121.796785 
L 469.771579 116.433538 
L 458.324474 110.673142 
L 446.877368 104.592713 
L 435.430263 98.188931 
L 423.983158 91.345266 
L 412.536053 84.237418 
L 401.088947 76.837712 
L 389.641842 70.167926 
L 378.194737 63.191254 
L 366.747632 56.365527 
L 355.300526 50.23656 
L 343.853421 44.560366 
L 332.406316 40.168625 
L 320.959211 36.808024 
L 309.512105 34.457917 
L 298.065 33.619235 
z
" clip-path="url(#pe0ccbdcadc)" style="fill: #7f7f7f; fill-opacity: 0.4"/>
   </g>
   <g id="matplotlib.axis_3">
    <g id="xtick_6">
     <g id="line2d_18">
      <g>
       <use xlink:href="#m0302a00b2c" x="298.065" y="174.04" style="stroke: #000000; stroke-width: 0.8"/>
      </g>
     </g>
     <g id="text_13">
      <!-- 0.0 -->
      <g transform="translate(290.113437 188.638438)scale(0.1 -0.1)">
       <use xlink:href="#DejaVuSans-30"/>
       <use xlink:href="#DejaVuSans-2e" x="63.623047"/>
       <use xlink:href="#DejaVuSans-30" x="95.410156"/>
      </g>
     </g>
    </g>
    <g id="xtick_7">
     <g id="line2d_19">
      <g>
       <use xlink:href="#m0302a00b2c" x="352.43875" y="174.04" style="stroke: #000000; stroke-width: 0.8"/>
      </g>
     </g>
     <g id="text_14">
      <!-- 0.5 -->
      <g transform="translate(344.487187 188.638438)scale(0.1 -0.1)">
       <use xlink:href="#DejaVuSans-30"/>
       <use xlink:href="#DejaVuSans-2e" x="63.623047"/>
       <use xlink:href="#DejaVuSans-35" x="95.410156"/>
      </g>
     </g>
    </g>
    <g id="xtick_8">
     <g id="line2d_20">
      <g>
       <use xlink:href="#m0302a00b2c" x="406.8125" y="174.04" style="stroke: #000000; stroke-width: 0.8"/>
      </g>
     </g>
     <g id="text_15">
      <!-- 1.0 -->
      <g transform="translate(398.860937 188.638438)scale(0.1 -0.1)">
       <use xlink:href="#DejaVuSans-31"/>
       <use xlink:href="#DejaVuSans-2e" x="63.623047"/>
       <use xlink:href="#DejaVuSans-30" x="95.410156"/>
      </g>
     </g>
    </g>
    <g id="xtick_9">
     <g id="line2d_21">
      <g>
       <use xlink:href="#m0302a00b2c" x="461.18625" y="174.04" style="stroke: #000000; stroke-width: 0.8"/>
      </g>
     </g>
     <g id="text_16">
      <!-- 1.5 -->
      <g transform="translate(453.234687 188.638438)scale(0.1 -0.1)">
       <use xlink:href="#DejaVuSans-31"/>
       <use xlink:href="#DejaVuSans-2e" x="63.623047"/>
       <use xlink:href="#DejaVuSans-35" x="95.410156"/>
      </g>
     </g>
    </g>
    <g id="xtick_10">
     <g id="line2d_22">
      <g>
       <use xlink:href="#m0302a00b2c" x="515.56" y="174.04" style="stroke: #000000; stroke-width: 0.8"/>
      </g>
     </g>
     <g id="text_17">
      <!-- 2.0 -->
      <g transform="translate(507.608437 188.638438)scale(0.1 -0.1)">
       <use xlink:href="#DejaVuSans-32"/>
       <use xlink:href="#DejaVuSans-2e" x="63.623047"/>
       <use xlink:href="#DejaVuSans-30" x="95.410156"/>
      </g>
     </g>
    </g>
    <g id="text_18">
     <!-- Influence of surprisal (multiplication) -->
     <g transform="translate(314.665625 202.316563)scale(0.1 -0.1)">
      <use xlink:href="#DejaVuSans-49"/>
      <use xlink:href="#DejaVuSans-6e" x="29.492188"/>
      <use xlink:href="#DejaVuSans-66" x="92.871094"/>
      <use xlink:href="#DejaVuSans-6c" x="128.076172"/>
      <use xlink:href="#DejaVuSans-75" x="155.859375"/>
      <use xlink:href="#DejaVuSans-65" x="219.238281"/>
      <use xlink:href="#DejaVuSans-6e" x="280.761719"/>
      <use xlink:href="#DejaVuSans-63" x="344.140625"/>
      <use xlink:href="#DejaVuSans-65" x="399.121094"/>
      <use xlink:href="#DejaVuSans-20" x="460.644531"/>
      <use xlink:href="#DejaVuSans-6f" x="492.431641"/>
      <use xlink:href="#DejaVuSans-66" x="553.613281"/>
      <use xlink:href="#DejaVuSans-20" x="588.818359"/>
      <use xlink:href="#DejaVuSans-73" x="620.605469"/>
      <use xlink:href="#DejaVuSans-75" x="672.705078"/>
      <use xlink:href="#DejaVuSans-72" x="736.083984"/>
      <use xlink:href="#DejaVuSans-70" x="777.197266"/>
      <use xlink:href="#DejaVuSans-72" x="840.673828"/>
      <use xlink:href="#DejaVuSans-69" x="881.787109"/>
      <use xlink:href="#DejaVuSans-73" x="909.570312"/>
      <use xlink:href="#DejaVuSans-61" x="961.669922"/>
      <use xlink:href="#DejaVuSans-6c" x="1022.949219"/>
      <use xlink:href="#DejaVuSans-20" x="1050.732422"/>
      <use xlink:href="#DejaVuSans-28" x="1082.519531"/>
      <use xlink:href="#DejaVuSans-6d" x="1121.533203"/>
      <use xlink:href="#DejaVuSans-75" x="1218.945312"/>
      <use xlink:href="#DejaVuSans-6c" x="1282.324219"/>
      <use xlink:href="#DejaVuSans-74" x="1310.107422"/>
      <use xlink:href="#DejaVuSans-69" x="1349.316406"/>
      <use xlink:href="#DejaVuSans-70" x="1377.099609"/>
      <use xlink:href="#DejaVuSans-6c" x="1440.576172"/>
      <use xlink:href="#DejaVuSans-69" x="1468.359375"/>
      <use xlink:href="#DejaVuSans-63" x="1496.142578"/>
      <use xlink:href="#DejaVuSans-61" x="1551.123047"/>
      <use xlink:href="#DejaVuSans-74" x="1612.402344"/>
      <use xlink:href="#DejaVuSans-69" x="1651.611328"/>
      <use xlink:href="#DejaVuSans-6f" x="1679.394531"/>
      <use xlink:href="#DejaVuSans-6e" x="1740.576172"/>
      <use xlink:href="#DejaVuSans-29" x="1803.955078"/>
     </g>
    </g>
   </g>
   <g id="line2d_23">
    <path d="M 298.065 33.999043 
L 309.512105 34.932143 
L 320.959211 37.521467 
L 332.406316 41.412848 
L 343.853421 46.576336 
L 355.300526 52.487916 
L 366.747632 58.813496 
L 378.194737 65.696293 
L 389.641842 72.983651 
L 401.088947 79.933948 
L 412.536053 87.241247 
L 423.983158 94.237764 
L 435.430263 101.208985 
L 446.877368 107.809298 
L 458.324474 114.148152 
L 469.771579 119.777434 
L 481.218684 125.616867 
L 492.665789 130.935746 
L 504.112895 135.859833 
L 515.56 140.479941 
" clip-path="url(#pe0ccbdcadc)" style="fill: none; stroke: #1f77b4; stroke-width: 1.5; stroke-linecap: square"/>
   </g>
   <g id="line2d_24">
    <path d="M 298.065 34.013318 
L 309.512105 34.936561 
L 320.959211 37.546731 
L 332.406316 41.441689 
L 343.853421 46.613081 
L 355.300526 52.546608 
L 366.747632 58.891863 
L 378.194737 65.785947 
L 389.641842 73.0858 
L 401.088947 80.033351 
L 412.536053 87.346935 
L 423.983158 94.346892 
L 435.430263 101.329221 
L 446.877368 107.915647 
L 458.324474 114.218485 
L 469.771579 119.869218 
L 481.218684 125.702034 
L 492.665789 131.026029 
L 504.112895 135.895027 
L 515.56 140.501114 
" clip-path="url(#pe0ccbdcadc)" style="fill: none; stroke: #ff7f0e; stroke-width: 1.5; stroke-linecap: square"/>
   </g>
   <g id="line2d_25">
    <path d="M 298.065 34.013274 
L 309.512105 34.941444 
L 320.959211 37.540652 
L 332.406316 41.417267 
L 343.853421 46.592875 
L 355.300526 52.501346 
L 366.747632 58.852221 
L 378.194737 65.732342 
L 389.641842 73.029158 
L 401.088947 79.980681 
L 412.536053 87.279576 
L 423.983158 94.279506 
L 435.430263 101.244089 
L 446.877368 107.843426 
L 458.324474 114.148893 
L 469.771579 119.796229 
L 481.218684 125.559753 
L 492.665789 130.891199 
L 504.112895 135.790888 
L 515.56 140.40138 
" clip-path="url(#pe0ccbdcadc)" style="fill: none; stroke: #2ca02c; stroke-width: 1.5; stroke-linecap: square"/>
   </g>
   <g id="line2d_26">
    <path d="M 298.065 34.021301 
L 309.512105 34.946419 
L 320.959211 37.553577 
L 332.406316 41.435922 
L 343.853421 46.601076 
L 355.300526 52.523706 
L 366.747632 58.880457 
L 378.194737 65.764966 
L 389.641842 73.087218 
L 401.088947 80.04413 
L 412.536053 87.341752 
L 423.983158 94.36777 
L 435.430263 101.370944 
L 446.877368 107.971195 
L 458.324474 114.269294 
L 469.771579 119.950587 
L 481.218684 125.741994 
L 492.665789 131.097155 
L 504.112895 135.956201 
L 515.56 140.611954 
" clip-path="url(#pe0ccbdcadc)" style="fill: none; stroke: #d62728; stroke-width: 1.5; stroke-linecap: square"/>
   </g>
   <g id="line2d_27">
    <path d="M 298.065 34.009124 
L 309.512105 34.949615 
L 320.959211 37.553929 
L 332.406316 41.454088 
L 343.853421 46.587048 
L 355.300526 52.51714 
L 366.747632 58.821848 
L 378.194737 65.704131 
L 389.641842 73.145979 
L 401.088947 79.935226 
L 412.536053 87.421824 
L 423.983158 94.349972 
L 435.430263 101.266908 
L 446.877368 108.089432 
L 458.324474 114.440006 
L 469.771579 119.876286 
L 481.218684 125.97957 
L 492.665789 131.475044 
L 504.112895 136.350755 
L 515.56 141.009321 
" clip-path="url(#pe0ccbdcadc)" style="fill: none; stroke: #9467bd; stroke-width: 1.5; stroke-linecap: square"/>
   </g>
   <g id="line2d_28">
    <path d="M 298.065 34.024055 
L 309.512105 34.954632 
L 320.959211 37.580132 
L 332.406316 41.48359 
L 343.853421 46.62435 
L 355.300526 52.579461 
L 366.747632 58.899987 
L 378.194737 65.794186 
L 389.641842 73.235005 
L 401.088947 80.0311 
L 412.536053 87.558045 
L 423.983158 94.470995 
L 435.430263 101.390348 
L 446.877368 108.199546 
L 458.324474 114.506295 
L 469.771579 119.963376 
L 481.218684 126.063794 
L 492.665789 131.561854 
L 504.112895 136.397327 
L 515.56 141.037178 
" clip-path="url(#pe0ccbdcadc)" style="fill: none; stroke: #8c564b; stroke-width: 1.5; stroke-linecap: square"/>
   </g>
   <g id="line2d_29">
    <path d="M 298.065 48.441746 
L 309.512105 49.268359 
L 320.959211 51.611369 
L 332.406316 55.14466 
L 343.853421 59.860727 
L 355.300526 65.284861 
L 366.747632 71.196596 
L 378.194737 77.586593 
L 389.641842 84.258597 
L 401.088947 90.655128 
L 412.536053 97.28322 
L 423.983158 103.728448 
L 435.430263 109.921024 
L 446.877368 116.143041 
L 458.324474 121.756696 
L 469.771579 126.840242 
L 481.218684 132.253981 
L 492.665789 136.91749 
L 504.112895 141.410251 
L 515.56 145.605656 
" clip-path="url(#pe0ccbdcadc)" style="fill: none; stroke: #e377c2; stroke-width: 1.5; stroke-linecap: square"/>
   </g>
   <g id="line2d_30">
    <path d="M 298.065 34.025635 
L 309.512105 34.957673 
L 320.959211 37.565273 
L 332.406316 41.479001 
L 343.853421 46.66004 
L 355.300526 52.597759 
L 366.747632 58.961781 
L 378.194737 65.880146 
L 389.641842 73.145949 
L 401.088947 80.132547 
L 412.536053 87.43496 
L 423.983158 94.431938 
L 435.430263 101.419261 
L 446.877368 107.984519 
L 458.324474 114.298503 
L 469.771579 119.949189 
L 481.218684 125.758437 
L 492.665789 131.075391 
L 504.112895 135.910029 
L 515.56 140.624164 
" clip-path="url(#pe0ccbdcadc)" style="fill: none; stroke: #7f7f7f; stroke-width: 1.5; stroke-linecap: square"/>
   </g>
   <g id="patch_6">
    <path d="M 298.065 174.04 
L 298.065 26.88 
" style="fill: none; stroke: #000000; stroke-width: 0.8; stroke-linejoin: miter; stroke-linecap: square"/>
   </g>
   <g id="patch_7">
    <path d="M 298.065 174.04 
L 515.56 174.04 
" style="fill: none; stroke: #000000; stroke-width: 0.8; stroke-linejoin: miter; stroke-linecap: square"/>
   </g>
   <g id="text_19">
    <!-- Node * third variable -->
    <g transform="translate(344.2325 20.88)scale(0.12 -0.12)">
     <defs>
      <path id="DejaVuSans-68" d="M 3513 2113 
L 3513 0 
L 2938 0 
L 2938 2094 
Q 2938 2591 2744 2837 
Q 2550 3084 2163 3084 
Q 1697 3084 1428 2787 
Q 1159 2491 1159 1978 
L 1159 0 
L 581 0 
L 581 4863 
L 1159 4863 
L 1159 2956 
Q 1366 3272 1645 3428 
Q 1925 3584 2291 3584 
Q 2894 3584 3203 3211 
Q 3513 2838 3513 2113 
z
" transform="scale(0.015625)"/>
      <path id="DejaVuSans-62" d="M 3116 1747 
Q 3116 2381 2855 2742 
Q 2594 3103 2138 3103 
Q 1681 3103 1420 2742 
Q 1159 2381 1159 1747 
Q 1159 1113 1420 752 
Q 1681 391 2138 391 
Q 2594 391 2855 752 
Q 3116 1113 3116 1747 
z
M 1159 2969 
Q 1341 3281 1617 3432 
Q 1894 3584 2278 3584 
Q 2916 3584 3314 3078 
Q 3713 2572 3713 1747 
Q 3713 922 3314 415 
Q 2916 -91 2278 -91 
Q 1894 -91 1617 61 
Q 1341 213 1159 525 
L 1159 0 
L 581 0 
L 581 4863 
L 1159 4863 
L 1159 2969 
z
" transform="scale(0.015625)"/>
     </defs>
     <use xlink:href="#DejaVuSans-4e"/>
     <use xlink:href="#DejaVuSans-6f" x="74.804688"/>
     <use xlink:href="#DejaVuSans-64" x="135.986328"/>
     <use xlink:href="#DejaVuSans-65" x="199.462891"/>
     <use xlink:href="#DejaVuSans-20" x="260.986328"/>
     <use xlink:href="#DejaVuSans-2a" x="292.773438"/>
     <use xlink:href="#DejaVuSans-20" x="342.773438"/>
     <use xlink:href="#DejaVuSans-74" x="374.560547"/>
     <use xlink:href="#DejaVuSans-68" x="413.769531"/>
     <use xlink:href="#DejaVuSans-69" x="477.148438"/>
     <use xlink:href="#DejaVuSans-72" x="504.931641"/>
     <use xlink:href="#DejaVuSans-64" x="544.294922"/>
     <use xlink:href="#DejaVuSans-20" x="607.771484"/>
     <use xlink:href="#DejaVuSans-76" x="639.558594"/>
     <use xlink:href="#DejaVuSans-61" x="698.738281"/>
     <use xlink:href="#DejaVuSans-72" x="760.017578"/>
     <use xlink:href="#DejaVuSans-69" x="801.130859"/>
     <use xlink:href="#DejaVuSans-61" x="828.914062"/>
     <use xlink:href="#DejaVuSans-62" x="890.193359"/>
     <use xlink:href="#DejaVuSans-6c" x="953.669922"/>
     <use xlink:href="#DejaVuSans-65" x="981.453125"/>
    </g>
   </g>
   <g id="legend_1">
    <g id="line2d_31">
     <path d="M 524.56 39.978437 
L 534.56 39.978437 
L 544.56 39.978437 
" style="fill: none; stroke: #1f77b4; stroke-width: 1.5; stroke-linecap: square"/>
    </g>
    <g id="text_20">
     <!-- Node -->
     <g transform="translate(552.56 43.478437)scale(0.1 -0.1)">
      <use xlink:href="#DejaVuSans-4e"/>
      <use xlink:href="#DejaVuSans-6f" x="74.804688"/>
      <use xlink:href="#DejaVuSans-64" x="135.986328"/>
      <use xlink:href="#DejaVuSans-65" x="199.462891"/>
     </g>
    </g>
    <g id="line2d_32">
     <path d="M 524.56 54.656563 
L 534.56 54.656563 
L 544.56 54.656563 
" style="fill: none; stroke: #ff7f0e; stroke-width: 1.5; stroke-linecap: square"/>
    </g>
    <g id="text_21">
     <!-- Node + surprisal -->
     <g transform="translate(552.56 58.156563)scale(0.1 -0.1)">
      <defs>
       <path id="DejaVuSans-2b" d="M 2944 4013 
L 2944 2272 
L 4684 2272 
L 4684 1741 
L 2944 1741 
L 2944 0 
L 2419 0 
L 2419 1741 
L 678 1741 
L 678 2272 
L 2419 2272 
L 2419 4013 
L 2944 4013 
z
" transform="scale(0.015625)"/>
      </defs>
      <use xlink:href="#DejaVuSans-4e"/>
      <use xlink:href="#DejaVuSans-6f" x="74.804688"/>
      <use xlink:href="#DejaVuSans-64" x="135.986328"/>
      <use xlink:href="#DejaVuSans-65" x="199.462891"/>
      <use xlink:href="#DejaVuSans-20" x="260.986328"/>
      <use xlink:href="#DejaVuSans-2b" x="292.773438"/>
      <use xlink:href="#DejaVuSans-20" x="376.5625"/>
      <use xlink:href="#DejaVuSans-73" x="408.349609"/>
      <use xlink:href="#DejaVuSans-75" x="460.449219"/>
      <use xlink:href="#DejaVuSans-72" x="523.828125"/>
      <use xlink:href="#DejaVuSans-70" x="564.941406"/>
      <use xlink:href="#DejaVuSans-72" x="628.417969"/>
      <use xlink:href="#DejaVuSans-69" x="669.53125"/>
      <use xlink:href="#DejaVuSans-73" x="697.314453"/>
      <use xlink:href="#DejaVuSans-61" x="749.414062"/>
      <use xlink:href="#DejaVuSans-6c" x="810.693359"/>
     </g>
    </g>
    <g id="line2d_33">
     <path d="M 524.56 69.334687 
L 534.56 69.334687 
L 544.56 69.334687 
" style="fill: none; stroke: #2ca02c; stroke-width: 1.5; stroke-linecap: square"/>
    </g>
    <g id="text_22">
     <!-- Node split -->
     <g transform="translate(552.56 72.834687)scale(0.1 -0.1)">
      <use xlink:href="#DejaVuSans-4e"/>
      <use xlink:href="#DejaVuSans-6f" x="74.804688"/>
      <use xlink:href="#DejaVuSans-64" x="135.986328"/>
      <use xlink:href="#DejaVuSans-65" x="199.462891"/>
      <use xlink:href="#DejaVuSans-20" x="260.986328"/>
      <use xlink:href="#DejaVuSans-73" x="292.773438"/>
      <use xlink:href="#DejaVuSans-70" x="344.873047"/>
      <use xlink:href="#DejaVuSans-6c" x="408.349609"/>
      <use xlink:href="#DejaVuSans-69" x="436.132812"/>
      <use xlink:href="#DejaVuSans-74" x="463.916016"/>
     </g>
    </g>
    <g id="line2d_34">
     <path d="M 524.56 84.012812 
L 534.56 84.012812 
L 544.56 84.012812 
" style="fill: none; stroke: #d62728; stroke-width: 1.5; stroke-linecap: square"/>
    </g>
    <g id="text_23">
     <!-- Node split + surprisal -->
     <g transform="translate(552.56 87.512812)scale(0.1 -0.1)">
      <use xlink:href="#DejaVuSans-4e"/>
      <use xlink:href="#DejaVuSans-6f" x="74.804688"/>
      <use xlink:href="#DejaVuSans-64" x="135.986328"/>
      <use xlink:href="#DejaVuSans-65" x="199.462891"/>
      <use xlink:href="#DejaVuSans-20" x="260.986328"/>
      <use xlink:href="#DejaVuSans-73" x="292.773438"/>
      <use xlink:href="#DejaVuSans-70" x="344.873047"/>
      <use xlink:href="#DejaVuSans-6c" x="408.349609"/>
      <use xlink:href="#DejaVuSans-69" x="436.132812"/>
      <use xlink:href="#DejaVuSans-74" x="463.916016"/>
      <use xlink:href="#DejaVuSans-20" x="503.125"/>
      <use xlink:href="#DejaVuSans-2b" x="534.912109"/>
      <use xlink:href="#DejaVuSans-20" x="618.701172"/>
      <use xlink:href="#DejaVuSans-73" x="650.488281"/>
      <use xlink:href="#DejaVuSans-75" x="702.587891"/>
      <use xlink:href="#DejaVuSans-72" x="765.966797"/>
      <use xlink:href="#DejaVuSans-70" x="807.080078"/>
      <use xlink:href="#DejaVuSans-72" x="870.556641"/>
      <use xlink:href="#DejaVuSans-69" x="911.669922"/>
      <use xlink:href="#DejaVuSans-73" x="939.453125"/>
      <use xlink:href="#DejaVuSans-61" x="991.552734"/>
      <use xlink:href="#DejaVuSans-6c" x="1052.832031"/>
     </g>
    </g>
    <g id="line2d_35">
     <path d="M 524.56 98.690937 
L 534.56 98.690937 
L 544.56 98.690937 
" style="fill: none; stroke: #9467bd; stroke-width: 1.5; stroke-linecap: square"/>
    </g>
    <g id="text_24">
     <!-- Node random split -->
     <g transform="translate(552.56 102.190937)scale(0.1 -0.1)">
      <use xlink:href="#DejaVuSans-4e"/>
      <use xlink:href="#DejaVuSans-6f" x="74.804688"/>
      <use xlink:href="#DejaVuSans-64" x="135.986328"/>
      <use xlink:href="#DejaVuSans-65" x="199.462891"/>
      <use xlink:href="#DejaVuSans-20" x="260.986328"/>
      <use xlink:href="#DejaVuSans-72" x="292.773438"/>
      <use xlink:href="#DejaVuSans-61" x="333.886719"/>
      <use xlink:href="#DejaVuSans-6e" x="395.166016"/>
      <use xlink:href="#DejaVuSans-64" x="458.544922"/>
      <use xlink:href="#DejaVuSans-6f" x="522.021484"/>
      <use xlink:href="#DejaVuSans-6d" x="583.203125"/>
      <use xlink:href="#DejaVuSans-20" x="680.615234"/>
      <use xlink:href="#DejaVuSans-73" x="712.402344"/>
      <use xlink:href="#DejaVuSans-70" x="764.501953"/>
      <use xlink:href="#DejaVuSans-6c" x="827.978516"/>
      <use xlink:href="#DejaVuSans-69" x="855.761719"/>
      <use xlink:href="#DejaVuSans-74" x="883.544922"/>
     </g>
    </g>
    <g id="line2d_36">
     <path d="M 524.56 113.369062 
L 534.56 113.369062 
L 544.56 113.369062 
" style="fill: none; stroke: #8c564b; stroke-width: 1.5; stroke-linecap: square"/>
    </g>
    <g id="text_25">
     <!-- Node random split + surprisal -->
     <g transform="translate(552.56 116.869062)scale(0.1 -0.1)">
      <use xlink:href="#DejaVuSans-4e"/>
      <use xlink:href="#DejaVuSans-6f" x="74.804688"/>
      <use xlink:href="#DejaVuSans-64" x="135.986328"/>
      <use xlink:href="#DejaVuSans-65" x="199.462891"/>
      <use xlink:href="#DejaVuSans-20" x="260.986328"/>
      <use xlink:href="#DejaVuSans-72" x="292.773438"/>
      <use xlink:href="#DejaVuSans-61" x="333.886719"/>
      <use xlink:href="#DejaVuSans-6e" x="395.166016"/>
      <use xlink:href="#DejaVuSans-64" x="458.544922"/>
      <use xlink:href="#DejaVuSans-6f" x="522.021484"/>
      <use xlink:href="#DejaVuSans-6d" x="583.203125"/>
      <use xlink:href="#DejaVuSans-20" x="680.615234"/>
      <use xlink:href="#DejaVuSans-73" x="712.402344"/>
      <use xlink:href="#DejaVuSans-70" x="764.501953"/>
      <use xlink:href="#DejaVuSans-6c" x="827.978516"/>
      <use xlink:href="#DejaVuSans-69" x="855.761719"/>
      <use xlink:href="#DejaVuSans-74" x="883.544922"/>
      <use xlink:href="#DejaVuSans-20" x="922.753906"/>
      <use xlink:href="#DejaVuSans-2b" x="954.541016"/>
      <use xlink:href="#DejaVuSans-20" x="1038.330078"/>
      <use xlink:href="#DejaVuSans-73" x="1070.117188"/>
      <use xlink:href="#DejaVuSans-75" x="1122.216797"/>
      <use xlink:href="#DejaVuSans-72" x="1185.595703"/>
      <use xlink:href="#DejaVuSans-70" x="1226.708984"/>
      <use xlink:href="#DejaVuSans-72" x="1290.185547"/>
      <use xlink:href="#DejaVuSans-69" x="1331.298828"/>
      <use xlink:href="#DejaVuSans-73" x="1359.082031"/>
      <use xlink:href="#DejaVuSans-61" x="1411.181641"/>
      <use xlink:href="#DejaVuSans-6c" x="1472.460938"/>
     </g>
    </g>
    <g id="line2d_37">
     <path d="M 524.56 128.047187 
L 534.56 128.047187 
L 544.56 128.047187 
" style="fill: none; stroke: #e377c2; stroke-width: 1.5; stroke-linecap: square"/>
    </g>
    <g id="text_26">
     <!-- Interaction -->
     <g transform="translate(552.56 131.547187)scale(0.1 -0.1)">
      <use xlink:href="#DejaVuSans-49"/>
      <use xlink:href="#DejaVuSans-6e" x="29.492188"/>
      <use xlink:href="#DejaVuSans-74" x="92.871094"/>
      <use xlink:href="#DejaVuSans-65" x="132.080078"/>
      <use xlink:href="#DejaVuSans-72" x="193.603516"/>
      <use xlink:href="#DejaVuSans-61" x="234.716797"/>
      <use xlink:href="#DejaVuSans-63" x="295.996094"/>
      <use xlink:href="#DejaVuSans-74" x="350.976562"/>
      <use xlink:href="#DejaVuSans-69" x="390.185547"/>
      <use xlink:href="#DejaVuSans-6f" x="417.96875"/>
      <use xlink:href="#DejaVuSans-6e" x="479.150391"/>
     </g>
    </g>
    <g id="line2d_38">
     <path d="M 524.56 142.725312 
L 534.56 142.725312 
L 544.56 142.725312 
" style="fill: none; stroke: #7f7f7f; stroke-width: 1.5; stroke-linecap: square"/>
    </g>
    <g id="text_27">
     <!-- Node + surprisal + interaction -->
     <g transform="translate(552.56 146.225312)scale(0.1 -0.1)">
      <use xlink:href="#DejaVuSans-4e"/>
      <use xlink:href="#DejaVuSans-6f" x="74.804688"/>
      <use xlink:href="#DejaVuSans-64" x="135.986328"/>
      <use xlink:href="#DejaVuSans-65" x="199.462891"/>
      <use xlink:href="#DejaVuSans-20" x="260.986328"/>
      <use xlink:href="#DejaVuSans-2b" x="292.773438"/>
      <use xlink:href="#DejaVuSans-20" x="376.5625"/>
      <use xlink:href="#DejaVuSans-73" x="408.349609"/>
      <use xlink:href="#DejaVuSans-75" x="460.449219"/>
      <use xlink:href="#DejaVuSans-72" x="523.828125"/>
      <use xlink:href="#DejaVuSans-70" x="564.941406"/>
      <use xlink:href="#DejaVuSans-72" x="628.417969"/>
      <use xlink:href="#DejaVuSans-69" x="669.53125"/>
      <use xlink:href="#DejaVuSans-73" x="697.314453"/>
      <use xlink:href="#DejaVuSans-61" x="749.414062"/>
      <use xlink:href="#DejaVuSans-6c" x="810.693359"/>
      <use xlink:href="#DejaVuSans-20" x="838.476562"/>
      <use xlink:href="#DejaVuSans-2b" x="870.263672"/>
      <use xlink:href="#DejaVuSans-20" x="954.052734"/>
      <use xlink:href="#DejaVuSans-69" x="985.839844"/>
      <use xlink:href="#DejaVuSans-6e" x="1013.623047"/>
      <use xlink:href="#DejaVuSans-74" x="1077.001953"/>
      <use xlink:href="#DejaVuSans-65" x="1116.210938"/>
      <use xlink:href="#DejaVuSans-72" x="1177.734375"/>
      <use xlink:href="#DejaVuSans-61" x="1218.847656"/>
      <use xlink:href="#DejaVuSans-63" x="1280.126953"/>
      <use xlink:href="#DejaVuSans-74" x="1335.107422"/>
      <use xlink:href="#DejaVuSans-69" x="1374.316406"/>
      <use xlink:href="#DejaVuSans-6f" x="1402.099609"/>
      <use xlink:href="#DejaVuSans-6e" x="1463.28125"/>
     </g>
    </g>
   </g>
  </g>
 </g>
 <defs>
  <clipPath id="p5f024b0837">
   <rect x="47.72" y="26.88" width="217.495" height="147.16"/>
  </clipPath>
  <clipPath id="pe0ccbdcadc">
   <rect x="298.065" y="26.88" width="217.495" height="147.16"/>
  </clipPath>
 </defs>
</svg>
