<?xml version="1.0" encoding="utf-8" standalone="no"?>
<!DOCTYPE svg PUBLIC "-//W3C//DTD SVG 1.1//EN"
  "http://www.w3.org/Graphics/SVG/1.1/DTD/svg11.dtd">
<svg xmlns:xlink="http://www.w3.org/1999/xlink" width="720pt" height="216pt" viewBox="0 0 720 216" xmlns="http://www.w3.org/2000/svg" version="1.1">
 <metadata>
  <rdf:RDF xmlns:dc="http://purl.org/dc/elements/1.1/" xmlns:cc="http://creativecommons.org/ns#" xmlns:rdf="http://www.w3.org/1999/02/22-rdf-syntax-ns#">
   <cc:Work>
    <dc:type rdf:resource="http://purl.org/dc/dcmitype/StillImage"/>
    <dc:date>2024-01-16T05:34:54.137592</dc:date>
    <dc:format>image/svg+xml</dc:format>
    <dc:creator>
     <cc:Agent>
      <dc:title>Matplotlib v3.5.1, https://matplotlib.org/</dc:title>
     </cc:Agent>
    </dc:creator>
   </cc:Work>
  </rdf:RDF>
 </metadata>
 <defs>
  <style type="text/css">*{stroke-linejoin: round; stroke-linecap: butt}</style>
 </defs>
 <g id="figure_1">
  <g id="patch_1">
   <path d="M 0 216 
L 720 216 
L 720 0 
L 0 0 
z
" style="fill: #ffffff"/>
  </g>
  <g id="axes_1">
   <g id="patch_2">
    <path d="M 47.72 174.04 
L 265.215 174.04 
L 265.215 26.88 
L 47.72 26.88 
z
" style="fill: #ffffff"/>
   </g>
   <g id="PolyCollection_1">
    <path d="M 47.72 33.733156 
L 47.72 34.557719 
L 59.167105 35.395007 
L 70.614211 38.305239 
L 82.061316 42.641544 
L 93.508421 48.113256 
L 104.955526 55.053778 
L 116.402632 62.269508 
L 127.849737 69.816796 
L 139.296842 77.363709 
L 150.743947 85.638835 
L 162.191053 93.590809 
L 173.638158 101.596111 
L 185.085263 109.129999 
L 196.532368 116.432206 
L 207.979474 122.965572 
L 219.426579 129.039691 
L 230.873684 135.863887 
L 242.320789 140.618441 
L 253.767895 146.337007 
L 265.215 150.970634 
L 265.215 131.074828 
L 265.215 131.074828 
L 253.767895 126.984969 
L 242.320789 122.571038 
L 230.873684 117.47459 
L 219.426579 113.041756 
L 207.979474 108.034124 
L 196.532368 102.061152 
L 185.085263 96.538733 
L 173.638158 90.1224 
L 162.191053 83.573514 
L 150.743947 76.828882 
L 139.296842 69.885096 
L 127.849737 63.348767 
L 116.402632 56.323955 
L 104.955526 50.219737 
L 93.508421 44.589936 
L 82.061316 40.411538 
L 70.614211 36.985988 
L 59.167105 34.354052 
L 47.72 33.733156 
z
" clip-path="url(#pf8a5db76e2)" style="fill: #1f77b4; fill-opacity: 0.4"/>
   </g>
   <g id="PolyCollection_2">
    <path d="M 47.72 33.745425 
L 47.72 34.565426 
L 59.167105 35.0274 
L 70.614211 36.590228 
L 82.061316 38.9357 
L 93.508421 42.301152 
L 104.955526 46.909433 
L 116.402632 51.939927 
L 127.849737 57.624225 
L 139.296842 63.535482 
L 150.743947 70.183527 
L 162.191053 76.706442 
L 173.638158 83.496674 
L 185.085263 90.141413 
L 196.532368 96.767705 
L 207.979474 103.434802 
L 219.426579 109.178903 
L 230.873684 115.826247 
L 242.320789 120.752058 
L 253.767895 126.894387 
L 265.215 131.588209 
L 265.215 113.016285 
L 265.215 113.016285 
L 253.767895 108.473098 
L 242.320789 103.680252 
L 230.873684 98.528796 
L 219.426579 93.519233 
L 207.979474 88.245053 
L 196.532368 82.590855 
L 185.085263 77.111649 
L 173.638158 71.315982 
L 162.191053 65.467899 
L 150.743947 59.742107 
L 139.296842 54.629825 
L 127.849737 50.349724 
L 116.402632 46.111692 
L 104.955526 42.441094 
L 93.508421 39.50304 
L 82.061316 37.298657 
L 70.614211 35.503364 
L 59.167105 34.081722 
L 47.72 33.745425 
z
" clip-path="url(#pf8a5db76e2)" style="fill: #ff7f0e; fill-opacity: 0.4"/>
   </g>
   <g id="PolyCollection_3">
    <path d="M 47.72 33.741199 
L 47.72 34.567127 
L 59.167105 35.166026 
L 70.614211 36.58457 
L 82.061316 38.674986 
L 93.508421 41.411302 
L 104.955526 44.781989 
L 116.402632 47.996471 
L 127.849737 51.519643 
L 139.296842 55.146448 
L 150.743947 58.989823 
L 162.191053 62.756795 
L 173.638158 66.899501 
L 185.085263 70.804782 
L 196.532368 75.316914 
L 207.979474 78.843188 
L 219.426579 82.660277 
L 230.873684 86.636831 
L 242.320789 89.900891 
L 253.767895 94.445377 
L 265.215 98.160746 
L 265.215 83.009619 
L 265.215 83.009619 
L 253.767895 80.467643 
L 242.320789 78.061067 
L 230.873684 75.304133 
L 219.426579 72.056796 
L 207.979474 69.102182 
L 196.532368 65.649078 
L 185.085263 62.673049 
L 173.638158 59.100471 
L 162.191053 55.437347 
L 150.743947 52.30524 
L 139.296842 48.909012 
L 127.849737 45.933852 
L 116.402632 42.703045 
L 104.955526 40.459523 
L 93.508421 38.042622 
L 82.061316 36.720739 
L 70.614211 35.323868 
L 59.167105 34.153395 
L 47.72 33.741199 
z
" clip-path="url(#pf8a5db76e2)" style="fill: #2ca02c; fill-opacity: 0.4"/>
   </g>
   <g id="PolyCollection_4">
    <path d="M 47.72 33.755298 
L 47.72 34.56947 
L 59.167105 35.000325 
L 70.614211 36.030338 
L 82.061316 37.504692 
L 93.508421 39.662787 
L 104.955526 42.470149 
L 116.402632 45.361957 
L 127.849737 48.61818 
L 139.296842 52.158525 
L 150.743947 56.112679 
L 162.191053 60.021587 
L 173.638158 64.334516 
L 185.085263 68.290401 
L 196.532368 72.84878 
L 207.979474 76.619864 
L 219.426579 80.450137 
L 230.873684 84.605311 
L 242.320789 88.009486 
L 253.767895 92.639127 
L 265.215 96.479619 
L 265.215 81.07564 
L 265.215 81.07564 
L 253.767895 78.295789 
L 242.320789 75.659675 
L 230.873684 72.685855 
L 219.426579 69.407191 
L 207.979474 66.342202 
L 196.532368 62.901499 
L 185.085263 59.808068 
L 173.638158 56.096455 
L 162.191053 52.527143 
L 150.743947 49.335473 
L 139.296842 46.205028 
L 127.849737 43.563138 
L 116.402632 40.84144 
L 104.955526 38.967206 
L 93.508421 37.139861 
L 82.061316 36.08777 
L 70.614211 34.998199 
L 59.167105 34.061816 
L 47.72 33.755298 
z
" clip-path="url(#pf8a5db76e2)" style="fill: #d62728; fill-opacity: 0.4"/>
   </g>
   <g id="PolyCollection_5">
    <path d="M 47.72 33.74254 
L 47.72 34.580209 
L 59.167105 35.418922 
L 70.614211 38.311671 
L 82.061316 42.651283 
L 93.508421 48.154274 
L 104.955526 55.100208 
L 116.402632 62.325975 
L 127.849737 69.962175 
L 139.296842 77.232 
L 150.743947 85.738506 
L 162.191053 93.76101 
L 173.638158 101.519279 
L 185.085263 109.406328 
L 196.532368 117.11846 
L 207.979474 123.321591 
L 219.426579 130.211228 
L 230.873684 136.61763 
L 242.320789 140.853974 
L 253.767895 146.958348 
L 265.215 150.899557 
L 265.215 131.150099 
L 265.215 131.150099 
L 253.767895 127.248757 
L 242.320789 122.915155 
L 230.873684 117.850094 
L 219.426579 113.278211 
L 207.979474 108.275334 
L 196.532368 102.16745 
L 185.085263 96.43359 
L 173.638158 90.427875 
L 162.191053 83.772657 
L 150.743947 76.943732 
L 139.296842 69.91519 
L 127.849737 63.42364 
L 116.402632 56.431136 
L 104.955526 50.320678 
L 93.508421 44.643875 
L 82.061316 40.406479 
L 70.614211 37.016365 
L 59.167105 34.367761 
L 47.72 33.74254 
z
" clip-path="url(#pf8a5db76e2)" style="fill: #9467bd; fill-opacity: 0.4"/>
   </g>
   <g id="PolyCollection_6">
    <path d="M 47.72 33.755397 
L 47.72 34.58928 
L 59.167105 35.050352 
L 70.614211 36.597438 
L 82.061316 38.956118 
L 93.508421 42.321523 
L 104.955526 46.942373 
L 116.402632 51.959539 
L 127.849737 57.71236 
L 139.296842 63.467439 
L 150.743947 70.185425 
L 162.191053 76.750559 
L 173.638158 83.615899 
L 185.085263 90.268731 
L 196.532368 97.140278 
L 207.979474 103.569875 
L 219.426579 109.690678 
L 230.873684 116.360568 
L 242.320789 120.999502 
L 253.767895 127.167649 
L 265.215 131.674695 
L 265.215 113.030866 
L 265.215 113.030866 
L 253.767895 108.73448 
L 242.320789 103.907664 
L 230.873684 98.798485 
L 219.426579 93.592125 
L 207.979474 88.32568 
L 196.532368 82.691001 
L 185.085263 77.146325 
L 173.638158 71.382433 
L 162.191053 65.606933 
L 150.743947 59.836448 
L 139.296842 54.711463 
L 127.849737 50.416527 
L 116.402632 46.161379 
L 104.955526 42.472739 
L 93.508421 39.526845 
L 82.061316 37.312574 
L 70.614211 35.521971 
L 59.167105 34.095286 
L 47.72 33.755397 
z
" clip-path="url(#pf8a5db76e2)" style="fill: #8c564b; fill-opacity: 0.4"/>
   </g>
   <g id="PolyCollection_7">
    <path d="M 47.72 46.488153 
L 47.72 49.771848 
L 59.167105 50.96972 
L 70.614211 54.656675 
L 82.061316 60.22662 
L 93.508421 67.484587 
L 104.955526 75.412238 
L 116.402632 83.969352 
L 127.849737 92.400625 
L 139.296842 100.833621 
L 150.743947 109.126933 
L 162.191053 117.079823 
L 173.638158 124.638921 
L 185.085263 132.080029 
L 196.532368 138.903255 
L 207.979474 144.655316 
L 219.426579 149.953555 
L 230.873684 155.337081 
L 242.320789 159.053306 
L 253.767895 163.669706 
L 265.215 167.350909 
L 265.215 152.004471 
L 265.215 152.004471 
L 253.767895 148.217595 
L 242.320789 144.449172 
L 230.873684 139.61053 
L 219.426579 135.052623 
L 207.979474 130.037602 
L 196.532368 123.636621 
L 185.085263 117.701691 
L 173.638158 110.406142 
L 162.191053 102.726032 
L 150.743947 95.024448 
L 139.296842 86.981718 
L 127.849737 79.439559 
L 116.402632 71.255391 
L 104.955526 64.624172 
L 93.508421 58.062122 
L 82.061316 53.645499 
L 70.614211 49.886528 
L 59.167105 47.290587 
L 47.72 46.488153 
z
" clip-path="url(#pf8a5db76e2)" style="fill: #e377c2; fill-opacity: 0.4"/>
   </g>
   <g id="PolyCollection_8">
    <path d="M 47.72 33.764663 
L 47.72 34.583616 
L 59.167105 34.70443 
L 70.614211 34.925282 
L 82.061316 35.513108 
L 93.508421 36.704342 
L 104.955526 39.157423 
L 116.402632 42.390734 
L 127.849737 46.368805 
L 139.296842 51.361807 
L 150.743947 57.067692 
L 162.191053 62.948597 
L 173.638158 69.323957 
L 185.085263 75.647503 
L 196.532368 82.239642 
L 207.979474 88.85542 
L 219.426579 94.670223 
L 230.873684 101.381105 
L 242.320789 106.967468 
L 253.767895 113.430466 
L 265.215 118.752413 
L 265.215 103.019708 
L 265.215 103.019708 
L 253.767895 98.255526 
L 242.320789 93.08476 
L 230.873684 87.606075 
L 219.426579 81.72417 
L 207.979474 75.707775 
L 196.532368 69.385584 
L 185.085263 63.377834 
L 173.638158 57.420421 
L 162.191053 51.612676 
L 150.743947 46.617025 
L 139.296842 42.391801 
L 127.849737 39.631289 
L 116.402632 37.179437 
L 104.955526 35.660293 
L 93.508421 34.730498 
L 82.061316 34.36755 
L 70.614211 34.030518 
L 59.167105 33.819015 
L 47.72 33.764663 
z
" clip-path="url(#pf8a5db76e2)" style="fill: #7f7f7f; fill-opacity: 0.4"/>
   </g>
   <g id="matplotlib.axis_1">
    <g id="xtick_1">
     <g id="line2d_1">
      <defs>
       <path id="m43826849cc" d="M 0 0 
L 0 3.5 
" style="stroke: #000000; stroke-width: 0.8"/>
      </defs>
      <g>
       <use xlink:href="#m43826849cc" x="47.72" y="174.04" style="stroke: #000000; stroke-width: 0.8"/>
      </g>
     </g>
     <g id="text_1">
      <!-- 0.0 -->
      <g transform="translate(39.768438 188.638438)scale(0.1 -0.1)">
       <defs>
        <path id="DejaVuSans-30" d="M 2034 4250 
Q 1547 4250 1301 3770 
Q 1056 3291 1056 2328 
Q 1056 1369 1301 889 
Q 1547 409 2034 409 
Q 2525 409 2770 889 
Q 3016 1369 3016 2328 
Q 3016 3291 2770 3770 
Q 2525 4250 2034 4250 
z
M 2034 4750 
Q 2819 4750 3233 4129 
Q 3647 3509 3647 2328 
Q 3647 1150 3233 529 
Q 2819 -91 2034 -91 
Q 1250 -91 836 529 
Q 422 1150 422 2328 
Q 422 3509 836 4129 
Q 1250 4750 2034 4750 
z
" transform="scale(0.015625)"/>
        <path id="DejaVuSans-2e" d="M 684 794 
L 1344 794 
L 1344 0 
L 684 0 
L 684 794 
z
" transform="scale(0.015625)"/>
       </defs>
       <use xlink:href="#DejaVuSans-30"/>
       <use xlink:href="#DejaVuSans-2e" x="63.623047"/>
       <use xlink:href="#DejaVuSans-30" x="95.410156"/>
      </g>
     </g>
    </g>
    <g id="xtick_2">
     <g id="line2d_2">
      <g>
       <use xlink:href="#m43826849cc" x="102.09375" y="174.04" style="stroke: #000000; stroke-width: 0.8"/>
      </g>
     </g>
     <g id="text_2">
      <!-- 0.5 -->
      <g transform="translate(94.142188 188.638438)scale(0.1 -0.1)">
       <defs>
        <path id="DejaVuSans-35" d="M 691 4666 
L 3169 4666 
L 3169 4134 
L 1269 4134 
L 1269 2991 
Q 1406 3038 1543 3061 
Q 1681 3084 1819 3084 
Q 2600 3084 3056 2656 
Q 3513 2228 3513 1497 
Q 3513 744 3044 326 
Q 2575 -91 1722 -91 
Q 1428 -91 1123 -41 
Q 819 9 494 109 
L 494 744 
Q 775 591 1075 516 
Q 1375 441 1709 441 
Q 2250 441 2565 725 
Q 2881 1009 2881 1497 
Q 2881 1984 2565 2268 
Q 2250 2553 1709 2553 
Q 1456 2553 1204 2497 
Q 953 2441 691 2322 
L 691 4666 
z
" transform="scale(0.015625)"/>
       </defs>
       <use xlink:href="#DejaVuSans-30"/>
       <use xlink:href="#DejaVuSans-2e" x="63.623047"/>
       <use xlink:href="#DejaVuSans-35" x="95.410156"/>
      </g>
     </g>
    </g>
    <g id="xtick_3">
     <g id="line2d_3">
      <g>
       <use xlink:href="#m43826849cc" x="156.4675" y="174.04" style="stroke: #000000; stroke-width: 0.8"/>
      </g>
     </g>
     <g id="text_3">
      <!-- 1.0 -->
      <g transform="translate(148.515938 188.638438)scale(0.1 -0.1)">
       <defs>
        <path id="DejaVuSans-31" d="M 794 531 
L 1825 531 
L 1825 4091 
L 703 3866 
L 703 4441 
L 1819 4666 
L 2450 4666 
L 2450 531 
L 3481 531 
L 3481 0 
L 794 0 
L 794 531 
z
" transform="scale(0.015625)"/>
       </defs>
       <use xlink:href="#DejaVuSans-31"/>
       <use xlink:href="#DejaVuSans-2e" x="63.623047"/>
       <use xlink:href="#DejaVuSans-30" x="95.410156"/>
      </g>
     </g>
    </g>
    <g id="xtick_4">
     <g id="line2d_4">
      <g>
       <use xlink:href="#m43826849cc" x="210.84125" y="174.04" style="stroke: #000000; stroke-width: 0.8"/>
      </g>
     </g>
     <g id="text_4">
      <!-- 1.5 -->
      <g transform="translate(202.889687 188.638438)scale(0.1 -0.1)">
       <use xlink:href="#DejaVuSans-31"/>
       <use xlink:href="#DejaVuSans-2e" x="63.623047"/>
       <use xlink:href="#DejaVuSans-35" x="95.410156"/>
      </g>
     </g>
    </g>
    <g id="xtick_5">
     <g id="line2d_5">
      <g>
       <use xlink:href="#m43826849cc" x="265.215" y="174.04" style="stroke: #000000; stroke-width: 0.8"/>
      </g>
     </g>
     <g id="text_5">
      <!-- 2.0 -->
      <g transform="translate(257.263437 188.638438)scale(0.1 -0.1)">
       <defs>
        <path id="DejaVuSans-32" d="M 1228 531 
L 3431 531 
L 3431 0 
L 469 0 
L 469 531 
Q 828 903 1448 1529 
Q 2069 2156 2228 2338 
Q 2531 2678 2651 2914 
Q 2772 3150 2772 3378 
Q 2772 3750 2511 3984 
Q 2250 4219 1831 4219 
Q 1534 4219 1204 4116 
Q 875 4013 500 3803 
L 500 4441 
Q 881 4594 1212 4672 
Q 1544 4750 1819 4750 
Q 2544 4750 2975 4387 
Q 3406 4025 3406 3419 
Q 3406 3131 3298 2873 
Q 3191 2616 2906 2266 
Q 2828 2175 2409 1742 
Q 1991 1309 1228 531 
z
" transform="scale(0.015625)"/>
       </defs>
       <use xlink:href="#DejaVuSans-32"/>
       <use xlink:href="#DejaVuSans-2e" x="63.623047"/>
       <use xlink:href="#DejaVuSans-30" x="95.410156"/>
      </g>
     </g>
    </g>
    <g id="text_6">
     <!-- Influence of surprisal (multiplication) -->
     <g transform="translate(64.320625 202.316563)scale(0.1 -0.1)">
      <defs>
       <path id="DejaVuSans-49" d="M 628 4666 
L 1259 4666 
L 1259 0 
L 628 0 
L 628 4666 
z
" transform="scale(0.015625)"/>
       <path id="DejaVuSans-6e" d="M 3513 2113 
L 3513 0 
L 2938 0 
L 2938 2094 
Q 2938 2591 2744 2837 
Q 2550 3084 2163 3084 
Q 1697 3084 1428 2787 
Q 1159 2491 1159 1978 
L 1159 0 
L 581 0 
L 581 3500 
L 1159 3500 
L 1159 2956 
Q 1366 3272 1645 3428 
Q 1925 3584 2291 3584 
Q 2894 3584 3203 3211 
Q 3513 2838 3513 2113 
z
" transform="scale(0.015625)"/>
       <path id="DejaVuSans-66" d="M 2375 4863 
L 2375 4384 
L 1825 4384 
Q 1516 4384 1395 4259 
Q 1275 4134 1275 3809 
L 1275 3500 
L 2222 3500 
L 2222 3053 
L 1275 3053 
L 1275 0 
L 697 0 
L 697 3053 
L 147 3053 
L 147 3500 
L 697 3500 
L 697 3744 
Q 697 4328 969 4595 
Q 1241 4863 1831 4863 
L 2375 4863 
z
" transform="scale(0.015625)"/>
       <path id="DejaVuSans-6c" d="M 603 4863 
L 1178 4863 
L 1178 0 
L 603 0 
L 603 4863 
z
" transform="scale(0.015625)"/>
       <path id="DejaVuSans-75" d="M 544 1381 
L 544 3500 
L 1119 3500 
L 1119 1403 
Q 1119 906 1312 657 
Q 1506 409 1894 409 
Q 2359 409 2629 706 
Q 2900 1003 2900 1516 
L 2900 3500 
L 3475 3500 
L 3475 0 
L 2900 0 
L 2900 538 
Q 2691 219 2414 64 
Q 2138 -91 1772 -91 
Q 1169 -91 856 284 
Q 544 659 544 1381 
z
M 1991 3584 
L 1991 3584 
z
" transform="scale(0.015625)"/>
       <path id="DejaVuSans-65" d="M 3597 1894 
L 3597 1613 
L 953 1613 
Q 991 1019 1311 708 
Q 1631 397 2203 397 
Q 2534 397 2845 478 
Q 3156 559 3463 722 
L 3463 178 
Q 3153 47 2828 -22 
Q 2503 -91 2169 -91 
Q 1331 -91 842 396 
Q 353 884 353 1716 
Q 353 2575 817 3079 
Q 1281 3584 2069 3584 
Q 2775 3584 3186 3129 
Q 3597 2675 3597 1894 
z
M 3022 2063 
Q 3016 2534 2758 2815 
Q 2500 3097 2075 3097 
Q 1594 3097 1305 2825 
Q 1016 2553 972 2059 
L 3022 2063 
z
" transform="scale(0.015625)"/>
       <path id="DejaVuSans-63" d="M 3122 3366 
L 3122 2828 
Q 2878 2963 2633 3030 
Q 2388 3097 2138 3097 
Q 1578 3097 1268 2742 
Q 959 2388 959 1747 
Q 959 1106 1268 751 
Q 1578 397 2138 397 
Q 2388 397 2633 464 
Q 2878 531 3122 666 
L 3122 134 
Q 2881 22 2623 -34 
Q 2366 -91 2075 -91 
Q 1284 -91 818 406 
Q 353 903 353 1747 
Q 353 2603 823 3093 
Q 1294 3584 2113 3584 
Q 2378 3584 2631 3529 
Q 2884 3475 3122 3366 
z
" transform="scale(0.015625)"/>
       <path id="DejaVuSans-20" transform="scale(0.015625)"/>
       <path id="DejaVuSans-6f" d="M 1959 3097 
Q 1497 3097 1228 2736 
Q 959 2375 959 1747 
Q 959 1119 1226 758 
Q 1494 397 1959 397 
Q 2419 397 2687 759 
Q 2956 1122 2956 1747 
Q 2956 2369 2687 2733 
Q 2419 3097 1959 3097 
z
M 1959 3584 
Q 2709 3584 3137 3096 
Q 3566 2609 3566 1747 
Q 3566 888 3137 398 
Q 2709 -91 1959 -91 
Q 1206 -91 779 398 
Q 353 888 353 1747 
Q 353 2609 779 3096 
Q 1206 3584 1959 3584 
z
" transform="scale(0.015625)"/>
       <path id="DejaVuSans-73" d="M 2834 3397 
L 2834 2853 
Q 2591 2978 2328 3040 
Q 2066 3103 1784 3103 
Q 1356 3103 1142 2972 
Q 928 2841 928 2578 
Q 928 2378 1081 2264 
Q 1234 2150 1697 2047 
L 1894 2003 
Q 2506 1872 2764 1633 
Q 3022 1394 3022 966 
Q 3022 478 2636 193 
Q 2250 -91 1575 -91 
Q 1294 -91 989 -36 
Q 684 19 347 128 
L 347 722 
Q 666 556 975 473 
Q 1284 391 1588 391 
Q 1994 391 2212 530 
Q 2431 669 2431 922 
Q 2431 1156 2273 1281 
Q 2116 1406 1581 1522 
L 1381 1569 
Q 847 1681 609 1914 
Q 372 2147 372 2553 
Q 372 3047 722 3315 
Q 1072 3584 1716 3584 
Q 2034 3584 2315 3537 
Q 2597 3491 2834 3397 
z
" transform="scale(0.015625)"/>
       <path id="DejaVuSans-72" d="M 2631 2963 
Q 2534 3019 2420 3045 
Q 2306 3072 2169 3072 
Q 1681 3072 1420 2755 
Q 1159 2438 1159 1844 
L 1159 0 
L 581 0 
L 581 3500 
L 1159 3500 
L 1159 2956 
Q 1341 3275 1631 3429 
Q 1922 3584 2338 3584 
Q 2397 3584 2469 3576 
Q 2541 3569 2628 3553 
L 2631 2963 
z
" transform="scale(0.015625)"/>
       <path id="DejaVuSans-70" d="M 1159 525 
L 1159 -1331 
L 581 -1331 
L 581 3500 
L 1159 3500 
L 1159 2969 
Q 1341 3281 1617 3432 
Q 1894 3584 2278 3584 
Q 2916 3584 3314 3078 
Q 3713 2572 3713 1747 
Q 3713 922 3314 415 
Q 2916 -91 2278 -91 
Q 1894 -91 1617 61 
Q 1341 213 1159 525 
z
M 3116 1747 
Q 3116 2381 2855 2742 
Q 2594 3103 2138 3103 
Q 1681 3103 1420 2742 
Q 1159 2381 1159 1747 
Q 1159 1113 1420 752 
Q 1681 391 2138 391 
Q 2594 391 2855 752 
Q 3116 1113 3116 1747 
z
" transform="scale(0.015625)"/>
       <path id="DejaVuSans-69" d="M 603 3500 
L 1178 3500 
L 1178 0 
L 603 0 
L 603 3500 
z
M 603 4863 
L 1178 4863 
L 1178 4134 
L 603 4134 
L 603 4863 
z
" transform="scale(0.015625)"/>
       <path id="DejaVuSans-61" d="M 2194 1759 
Q 1497 1759 1228 1600 
Q 959 1441 959 1056 
Q 959 750 1161 570 
Q 1363 391 1709 391 
Q 2188 391 2477 730 
Q 2766 1069 2766 1631 
L 2766 1759 
L 2194 1759 
z
M 3341 1997 
L 3341 0 
L 2766 0 
L 2766 531 
Q 2569 213 2275 61 
Q 1981 -91 1556 -91 
Q 1019 -91 701 211 
Q 384 513 384 1019 
Q 384 1609 779 1909 
Q 1175 2209 1959 2209 
L 2766 2209 
L 2766 2266 
Q 2766 2663 2505 2880 
Q 2244 3097 1772 3097 
Q 1472 3097 1187 3025 
Q 903 2953 641 2809 
L 641 3341 
Q 956 3463 1253 3523 
Q 1550 3584 1831 3584 
Q 2591 3584 2966 3190 
Q 3341 2797 3341 1997 
z
" transform="scale(0.015625)"/>
       <path id="DejaVuSans-28" d="M 1984 4856 
Q 1566 4138 1362 3434 
Q 1159 2731 1159 2009 
Q 1159 1288 1364 580 
Q 1569 -128 1984 -844 
L 1484 -844 
Q 1016 -109 783 600 
Q 550 1309 550 2009 
Q 550 2706 781 3412 
Q 1013 4119 1484 4856 
L 1984 4856 
z
" transform="scale(0.015625)"/>
       <path id="DejaVuSans-6d" d="M 3328 2828 
Q 3544 3216 3844 3400 
Q 4144 3584 4550 3584 
Q 5097 3584 5394 3201 
Q 5691 2819 5691 2113 
L 5691 0 
L 5113 0 
L 5113 2094 
Q 5113 2597 4934 2840 
Q 4756 3084 4391 3084 
Q 3944 3084 3684 2787 
Q 3425 2491 3425 1978 
L 3425 0 
L 2847 0 
L 2847 2094 
Q 2847 2600 2669 2842 
Q 2491 3084 2119 3084 
Q 1678 3084 1418 2786 
Q 1159 2488 1159 1978 
L 1159 0 
L 581 0 
L 581 3500 
L 1159 3500 
L 1159 2956 
Q 1356 3278 1631 3431 
Q 1906 3584 2284 3584 
Q 2666 3584 2933 3390 
Q 3200 3197 3328 2828 
z
" transform="scale(0.015625)"/>
       <path id="DejaVuSans-74" d="M 1172 4494 
L 1172 3500 
L 2356 3500 
L 2356 3053 
L 1172 3053 
L 1172 1153 
Q 1172 725 1289 603 
Q 1406 481 1766 481 
L 2356 481 
L 2356 0 
L 1766 0 
Q 1100 0 847 248 
Q 594 497 594 1153 
L 594 3053 
L 172 3053 
L 172 3500 
L 594 3500 
L 594 4494 
L 1172 4494 
z
" transform="scale(0.015625)"/>
       <path id="DejaVuSans-29" d="M 513 4856 
L 1013 4856 
Q 1481 4119 1714 3412 
Q 1947 2706 1947 2009 
Q 1947 1309 1714 600 
Q 1481 -109 1013 -844 
L 513 -844 
Q 928 -128 1133 580 
Q 1338 1288 1338 2009 
Q 1338 2731 1133 3434 
Q 928 4138 513 4856 
z
" transform="scale(0.015625)"/>
      </defs>
      <use xlink:href="#DejaVuSans-49"/>
      <use xlink:href="#DejaVuSans-6e" x="29.492188"/>
      <use xlink:href="#DejaVuSans-66" x="92.871094"/>
      <use xlink:href="#DejaVuSans-6c" x="128.076172"/>
      <use xlink:href="#DejaVuSans-75" x="155.859375"/>
      <use xlink:href="#DejaVuSans-65" x="219.238281"/>
      <use xlink:href="#DejaVuSans-6e" x="280.761719"/>
      <use xlink:href="#DejaVuSans-63" x="344.140625"/>
      <use xlink:href="#DejaVuSans-65" x="399.121094"/>
      <use xlink:href="#DejaVuSans-20" x="460.644531"/>
      <use xlink:href="#DejaVuSans-6f" x="492.431641"/>
      <use xlink:href="#DejaVuSans-66" x="553.613281"/>
      <use xlink:href="#DejaVuSans-20" x="588.818359"/>
      <use xlink:href="#DejaVuSans-73" x="620.605469"/>
      <use xlink:href="#DejaVuSans-75" x="672.705078"/>
      <use xlink:href="#DejaVuSans-72" x="736.083984"/>
      <use xlink:href="#DejaVuSans-70" x="777.197266"/>
      <use xlink:href="#DejaVuSans-72" x="840.673828"/>
      <use xlink:href="#DejaVuSans-69" x="881.787109"/>
      <use xlink:href="#DejaVuSans-73" x="909.570312"/>
      <use xlink:href="#DejaVuSans-61" x="961.669922"/>
      <use xlink:href="#DejaVuSans-6c" x="1022.949219"/>
      <use xlink:href="#DejaVuSans-20" x="1050.732422"/>
      <use xlink:href="#DejaVuSans-28" x="1082.519531"/>
      <use xlink:href="#DejaVuSans-6d" x="1121.533203"/>
      <use xlink:href="#DejaVuSans-75" x="1218.945312"/>
      <use xlink:href="#DejaVuSans-6c" x="1282.324219"/>
      <use xlink:href="#DejaVuSans-74" x="1310.107422"/>
      <use xlink:href="#DejaVuSans-69" x="1349.316406"/>
      <use xlink:href="#DejaVuSans-70" x="1377.099609"/>
      <use xlink:href="#DejaVuSans-6c" x="1440.576172"/>
      <use xlink:href="#DejaVuSans-69" x="1468.359375"/>
      <use xlink:href="#DejaVuSans-63" x="1496.142578"/>
      <use xlink:href="#DejaVuSans-61" x="1551.123047"/>
      <use xlink:href="#DejaVuSans-74" x="1612.402344"/>
      <use xlink:href="#DejaVuSans-69" x="1651.611328"/>
      <use xlink:href="#DejaVuSans-6f" x="1679.394531"/>
      <use xlink:href="#DejaVuSans-6e" x="1740.576172"/>
      <use xlink:href="#DejaVuSans-29" x="1803.955078"/>
     </g>
    </g>
   </g>
   <g id="matplotlib.axis_2">
    <g id="ytick_1">
     <g id="line2d_6">
      <defs>
       <path id="m85c11327b3" d="M 0 0 
L -3.5 0 
" style="stroke: #000000; stroke-width: 0.8"/>
      </defs>
      <g>
       <use xlink:href="#m85c11327b3" x="47.72" y="138.422865" style="stroke: #000000; stroke-width: 0.8"/>
      </g>
     </g>
     <g id="text_7">
      <!-- 0.4 -->
      <g transform="translate(24.816875 142.222084)scale(0.1 -0.1)">
       <defs>
        <path id="DejaVuSans-34" d="M 2419 4116 
L 825 1625 
L 2419 1625 
L 2419 4116 
z
M 2253 4666 
L 3047 4666 
L 3047 1625 
L 3713 1625 
L 3713 1100 
L 3047 1100 
L 3047 0 
L 2419 0 
L 2419 1100 
L 313 1100 
L 313 1709 
L 2253 4666 
z
" transform="scale(0.015625)"/>
       </defs>
       <use xlink:href="#DejaVuSans-30"/>
       <use xlink:href="#DejaVuSans-2e" x="63.623047"/>
       <use xlink:href="#DejaVuSans-34" x="95.410156"/>
      </g>
     </g>
    </g>
    <g id="ytick_2">
     <g id="line2d_7">
      <g>
       <use xlink:href="#m85c11327b3" x="47.72" y="100.237401" style="stroke: #000000; stroke-width: 0.8"/>
      </g>
     </g>
     <g id="text_8">
      <!-- 0.6 -->
      <g transform="translate(24.816875 104.03662)scale(0.1 -0.1)">
       <defs>
        <path id="DejaVuSans-36" d="M 2113 2584 
Q 1688 2584 1439 2293 
Q 1191 2003 1191 1497 
Q 1191 994 1439 701 
Q 1688 409 2113 409 
Q 2538 409 2786 701 
Q 3034 994 3034 1497 
Q 3034 2003 2786 2293 
Q 2538 2584 2113 2584 
z
M 3366 4563 
L 3366 3988 
Q 3128 4100 2886 4159 
Q 2644 4219 2406 4219 
Q 1781 4219 1451 3797 
Q 1122 3375 1075 2522 
Q 1259 2794 1537 2939 
Q 1816 3084 2150 3084 
Q 2853 3084 3261 2657 
Q 3669 2231 3669 1497 
Q 3669 778 3244 343 
Q 2819 -91 2113 -91 
Q 1303 -91 875 529 
Q 447 1150 447 2328 
Q 447 3434 972 4092 
Q 1497 4750 2381 4750 
Q 2619 4750 2861 4703 
Q 3103 4656 3366 4563 
z
" transform="scale(0.015625)"/>
       </defs>
       <use xlink:href="#DejaVuSans-30"/>
       <use xlink:href="#DejaVuSans-2e" x="63.623047"/>
       <use xlink:href="#DejaVuSans-36" x="95.410156"/>
      </g>
     </g>
    </g>
    <g id="ytick_3">
     <g id="line2d_8">
      <g>
       <use xlink:href="#m85c11327b3" x="47.72" y="62.051937" style="stroke: #000000; stroke-width: 0.8"/>
      </g>
     </g>
     <g id="text_9">
      <!-- 0.8 -->
      <g transform="translate(24.816875 65.851155)scale(0.1 -0.1)">
       <defs>
        <path id="DejaVuSans-38" d="M 2034 2216 
Q 1584 2216 1326 1975 
Q 1069 1734 1069 1313 
Q 1069 891 1326 650 
Q 1584 409 2034 409 
Q 2484 409 2743 651 
Q 3003 894 3003 1313 
Q 3003 1734 2745 1975 
Q 2488 2216 2034 2216 
z
M 1403 2484 
Q 997 2584 770 2862 
Q 544 3141 544 3541 
Q 544 4100 942 4425 
Q 1341 4750 2034 4750 
Q 2731 4750 3128 4425 
Q 3525 4100 3525 3541 
Q 3525 3141 3298 2862 
Q 3072 2584 2669 2484 
Q 3125 2378 3379 2068 
Q 3634 1759 3634 1313 
Q 3634 634 3220 271 
Q 2806 -91 2034 -91 
Q 1263 -91 848 271 
Q 434 634 434 1313 
Q 434 1759 690 2068 
Q 947 2378 1403 2484 
z
M 1172 3481 
Q 1172 3119 1398 2916 
Q 1625 2713 2034 2713 
Q 2441 2713 2670 2916 
Q 2900 3119 2900 3481 
Q 2900 3844 2670 4047 
Q 2441 4250 2034 4250 
Q 1625 4250 1398 4047 
Q 1172 3844 1172 3481 
z
" transform="scale(0.015625)"/>
       </defs>
       <use xlink:href="#DejaVuSans-30"/>
       <use xlink:href="#DejaVuSans-2e" x="63.623047"/>
       <use xlink:href="#DejaVuSans-38" x="95.410156"/>
      </g>
     </g>
    </g>
    <g id="text_10">
     <!-- R-value -->
     <g transform="translate(18.737188 119.064687)rotate(-90)scale(0.1 -0.1)">
      <defs>
       <path id="DejaVuSans-52" d="M 2841 2188 
Q 3044 2119 3236 1894 
Q 3428 1669 3622 1275 
L 4263 0 
L 3584 0 
L 2988 1197 
Q 2756 1666 2539 1819 
Q 2322 1972 1947 1972 
L 1259 1972 
L 1259 0 
L 628 0 
L 628 4666 
L 2053 4666 
Q 2853 4666 3247 4331 
Q 3641 3997 3641 3322 
Q 3641 2881 3436 2590 
Q 3231 2300 2841 2188 
z
M 1259 4147 
L 1259 2491 
L 2053 2491 
Q 2509 2491 2742 2702 
Q 2975 2913 2975 3322 
Q 2975 3731 2742 3939 
Q 2509 4147 2053 4147 
L 1259 4147 
z
" transform="scale(0.015625)"/>
       <path id="DejaVuSans-2d" d="M 313 2009 
L 1997 2009 
L 1997 1497 
L 313 1497 
L 313 2009 
z
" transform="scale(0.015625)"/>
       <path id="DejaVuSans-76" d="M 191 3500 
L 800 3500 
L 1894 563 
L 2988 3500 
L 3597 3500 
L 2284 0 
L 1503 0 
L 191 3500 
z
" transform="scale(0.015625)"/>
      </defs>
      <use xlink:href="#DejaVuSans-52"/>
      <use xlink:href="#DejaVuSans-2d" x="65.482422"/>
      <use xlink:href="#DejaVuSans-76" x="98.941406"/>
      <use xlink:href="#DejaVuSans-61" x="158.121094"/>
      <use xlink:href="#DejaVuSans-6c" x="219.400391"/>
      <use xlink:href="#DejaVuSans-75" x="247.183594"/>
      <use xlink:href="#DejaVuSans-65" x="310.5625"/>
     </g>
    </g>
   </g>
   <g id="line2d_9">
    <path d="M 47.72 34.145438 
L 59.167105 34.87453 
L 70.614211 37.645613 
L 82.061316 41.526541 
L 93.508421 46.351596 
L 104.955526 52.636757 
L 116.402632 59.296731 
L 127.849737 66.582782 
L 139.296842 73.624403 
L 150.743947 81.233859 
L 162.191053 88.582161 
L 173.638158 95.859255 
L 185.085263 102.834366 
L 196.532368 109.246679 
L 207.979474 115.499848 
L 219.426579 121.040724 
L 230.873684 126.669239 
L 242.320789 131.594739 
L 253.767895 136.660988 
L 265.215 141.022731 
" clip-path="url(#pf8a5db76e2)" style="fill: none; stroke: #1f77b4; stroke-width: 1.5; stroke-linecap: square"/>
   </g>
   <g id="line2d_10">
    <path d="M 47.72 34.155426 
L 59.167105 34.554561 
L 70.614211 36.046796 
L 82.061316 38.117179 
L 93.508421 40.902096 
L 104.955526 44.675264 
L 116.402632 49.02581 
L 127.849737 53.986974 
L 139.296842 59.082653 
L 150.743947 64.962817 
L 162.191053 71.087171 
L 173.638158 77.406328 
L 185.085263 83.626531 
L 196.532368 89.67928 
L 207.979474 95.839927 
L 219.426579 101.349068 
L 230.873684 107.177522 
L 242.320789 112.216155 
L 253.767895 117.683743 
L 265.215 122.302247 
" clip-path="url(#pf8a5db76e2)" style="fill: none; stroke: #ff7f0e; stroke-width: 1.5; stroke-linecap: square"/>
   </g>
   <g id="line2d_11">
    <path d="M 47.72 34.154163 
L 59.167105 34.65971 
L 70.614211 35.954219 
L 82.061316 37.697862 
L 93.508421 39.726962 
L 104.955526 42.620756 
L 116.402632 45.349758 
L 127.849737 48.726748 
L 139.296842 52.02773 
L 150.743947 55.647532 
L 162.191053 59.097071 
L 173.638158 62.999986 
L 185.085263 66.738916 
L 196.532368 70.482996 
L 207.979474 73.972685 
L 219.426579 77.358537 
L 230.873684 80.970482 
L 242.320789 83.980979 
L 253.767895 87.45651 
L 265.215 90.585183 
" clip-path="url(#pf8a5db76e2)" style="fill: none; stroke: #2ca02c; stroke-width: 1.5; stroke-linecap: square"/>
   </g>
   <g id="line2d_12">
    <path d="M 47.72 34.162384 
L 59.167105 34.531071 
L 70.614211 35.514269 
L 82.061316 36.796231 
L 93.508421 38.401324 
L 104.955526 40.718677 
L 116.402632 43.101698 
L 127.849737 46.090659 
L 139.296842 49.181777 
L 150.743947 52.724076 
L 162.191053 56.274365 
L 173.638158 60.215485 
L 185.085263 64.049234 
L 196.532368 67.87514 
L 207.979474 71.481033 
L 219.426579 74.928664 
L 230.873684 78.645583 
L 242.320789 81.83458 
L 253.767895 85.467458 
L 265.215 88.77763 
" clip-path="url(#pf8a5db76e2)" style="fill: none; stroke: #d62728; stroke-width: 1.5; stroke-linecap: square"/>
   </g>
   <g id="line2d_13">
    <path d="M 47.72 34.161375 
L 59.167105 34.893342 
L 70.614211 37.664018 
L 82.061316 41.528881 
L 93.508421 46.399074 
L 104.955526 52.710443 
L 116.402632 59.378555 
L 127.849737 66.692908 
L 139.296842 73.573595 
L 150.743947 81.341119 
L 162.191053 88.766834 
L 173.638158 95.973577 
L 185.085263 102.919959 
L 196.532368 109.642955 
L 207.979474 115.798463 
L 219.426579 121.74472 
L 230.873684 127.233862 
L 242.320789 131.884565 
L 253.767895 137.103552 
L 265.215 141.024828 
" clip-path="url(#pf8a5db76e2)" style="fill: none; stroke: #9467bd; stroke-width: 1.5; stroke-linecap: square"/>
   </g>
   <g id="line2d_14">
    <path d="M 47.72 34.172339 
L 59.167105 34.572819 
L 70.614211 36.059705 
L 82.061316 38.134346 
L 93.508421 40.924184 
L 104.955526 44.707556 
L 116.402632 49.060459 
L 127.849737 54.064443 
L 139.296842 59.089451 
L 150.743947 65.010937 
L 162.191053 71.178746 
L 173.638158 77.499166 
L 185.085263 83.707528 
L 196.532368 89.91564 
L 207.979474 95.947777 
L 219.426579 101.641402 
L 230.873684 107.579527 
L 242.320789 112.453583 
L 253.767895 117.951064 
L 265.215 122.352781 
" clip-path="url(#pf8a5db76e2)" style="fill: none; stroke: #8c564b; stroke-width: 1.5; stroke-linecap: square"/>
   </g>
   <g id="line2d_15">
    <path d="M 47.72 48.13 
L 59.167105 49.130154 
L 70.614211 52.271601 
L 82.061316 56.93606 
L 93.508421 62.773355 
L 104.955526 70.018205 
L 116.402632 77.612372 
L 127.849737 85.920092 
L 139.296842 93.90767 
L 150.743947 102.07569 
L 162.191053 109.902928 
L 173.638158 117.522532 
L 185.085263 124.89086 
L 196.532368 131.269938 
L 207.979474 137.346459 
L 219.426579 142.503089 
L 230.873684 147.473805 
L 242.320789 151.751239 
L 253.767895 155.94365 
L 265.215 159.67769 
" clip-path="url(#pf8a5db76e2)" style="fill: none; stroke: #e377c2; stroke-width: 1.5; stroke-linecap: square"/>
   </g>
   <g id="line2d_16">
    <path d="M 47.72 34.17414 
L 59.167105 34.261722 
L 70.614211 34.4779 
L 82.061316 34.940329 
L 93.508421 35.71742 
L 104.955526 37.408858 
L 116.402632 39.785086 
L 127.849737 43.000047 
L 139.296842 46.876804 
L 150.743947 51.842358 
L 162.191053 57.280637 
L 173.638158 63.372189 
L 185.085263 69.512669 
L 196.532368 75.812613 
L 207.979474 82.281597 
L 219.426579 88.197197 
L 230.873684 94.49359 
L 242.320789 100.026114 
L 253.767895 105.842996 
L 265.215 110.886061 
" clip-path="url(#pf8a5db76e2)" style="fill: none; stroke: #7f7f7f; stroke-width: 1.5; stroke-linecap: square"/>
   </g>
   <g id="patch_3">
    <path d="M 47.72 174.04 
L 47.72 26.88 
" style="fill: none; stroke: #000000; stroke-width: 0.8; stroke-linejoin: miter; stroke-linecap: square"/>
   </g>
   <g id="patch_4">
    <path d="M 47.72 174.04 
L 265.215 174.04 
" style="fill: none; stroke: #000000; stroke-width: 0.8; stroke-linejoin: miter; stroke-linecap: square"/>
   </g>
   <g id="text_11">
    <!-- Node * surprisal -->
    <g transform="translate(108.18625 20.88)scale(0.12 -0.12)">
     <defs>
      <path id="DejaVuSans-4e" d="M 628 4666 
L 1478 4666 
L 3547 763 
L 3547 4666 
L 4159 4666 
L 4159 0 
L 3309 0 
L 1241 3903 
L 1241 0 
L 628 0 
L 628 4666 
z
" transform="scale(0.015625)"/>
      <path id="DejaVuSans-64" d="M 2906 2969 
L 2906 4863 
L 3481 4863 
L 3481 0 
L 2906 0 
L 2906 525 
Q 2725 213 2448 61 
Q 2172 -91 1784 -91 
Q 1150 -91 751 415 
Q 353 922 353 1747 
Q 353 2572 751 3078 
Q 1150 3584 1784 3584 
Q 2172 3584 2448 3432 
Q 2725 3281 2906 2969 
z
M 947 1747 
Q 947 1113 1208 752 
Q 1469 391 1925 391 
Q 2381 391 2643 752 
Q 2906 1113 2906 1747 
Q 2906 2381 2643 2742 
Q 2381 3103 1925 3103 
Q 1469 3103 1208 2742 
Q 947 2381 947 1747 
z
" transform="scale(0.015625)"/>
      <path id="DejaVuSans-2a" d="M 3009 3897 
L 1888 3291 
L 3009 2681 
L 2828 2375 
L 1778 3009 
L 1778 1831 
L 1422 1831 
L 1422 3009 
L 372 2375 
L 191 2681 
L 1313 3291 
L 191 3897 
L 372 4206 
L 1422 3572 
L 1422 4750 
L 1778 4750 
L 1778 3572 
L 2828 4206 
L 3009 3897 
z
" transform="scale(0.015625)"/>
     </defs>
     <use xlink:href="#DejaVuSans-4e"/>
     <use xlink:href="#DejaVuSans-6f" x="74.804688"/>
     <use xlink:href="#DejaVuSans-64" x="135.986328"/>
     <use xlink:href="#DejaVuSans-65" x="199.462891"/>
     <use xlink:href="#DejaVuSans-20" x="260.986328"/>
     <use xlink:href="#DejaVuSans-2a" x="292.773438"/>
     <use xlink:href="#DejaVuSans-20" x="342.773438"/>
     <use xlink:href="#DejaVuSans-73" x="374.560547"/>
     <use xlink:href="#DejaVuSans-75" x="426.660156"/>
     <use xlink:href="#DejaVuSans-72" x="490.039062"/>
     <use xlink:href="#DejaVuSans-70" x="531.152344"/>
     <use xlink:href="#DejaVuSans-72" x="594.628906"/>
     <use xlink:href="#DejaVuSans-69" x="635.742188"/>
     <use xlink:href="#DejaVuSans-73" x="663.525391"/>
     <use xlink:href="#DejaVuSans-61" x="715.625"/>
     <use xlink:href="#DejaVuSans-6c" x="776.904297"/>
    </g>
   </g>
  </g>
  <g id="axes_2">
   <g id="patch_5">
    <path d="M 298.065 174.04 
L 515.56 174.04 
L 515.56 26.88 
L 298.065 26.88 
z
" style="fill: #ffffff"/>
   </g>
   <g id="PolyCollection_9">
    <path d="M 298.065 33.569091 
L 298.065 34.53065 
L 309.512105 35.645666 
L 320.959211 38.834381 
L 332.406316 43.761685 
L 343.853421 49.903451 
L 355.300526 57.04961 
L 366.747632 64.380914 
L 378.194737 72.036668 
L 389.641842 80.195334 
L 401.088947 88.215809 
L 412.536053 96.059663 
L 423.983158 103.544915 
L 435.430263 110.941478 
L 446.877368 118.765868 
L 458.324474 124.937582 
L 469.771579 131.236767 
L 481.218684 137.045989 
L 492.665789 142.51097 
L 504.112895 146.966443 
L 515.56 151.692066 
L 515.56 132.508405 
L 515.56 132.508405 
L 504.112895 127.368933 
L 492.665789 122.342944 
L 481.218684 117.385118 
L 469.771579 111.447704 
L 458.324474 106.774045 
L 446.877368 100.301469 
L 435.430263 94.289431 
L 423.983158 88.364919 
L 412.536053 81.185523 
L 401.088947 74.466356 
L 389.641842 67.931851 
L 378.194737 61.012501 
L 366.747632 54.683982 
L 355.300526 48.958264 
L 343.853421 43.973186 
L 332.406316 39.762996 
L 320.959211 36.656919 
L 309.512105 34.446441 
L 298.065 33.569091 
z
" clip-path="url(#p2a7889f25a)" style="fill: #1f77b4; fill-opacity: 0.4"/>
   </g>
   <g id="PolyCollection_10">
    <path d="M 298.065 33.59172 
L 298.065 34.544446 
L 309.512105 35.67251 
L 320.959211 38.884616 
L 332.406316 43.823444 
L 343.853421 49.972481 
L 355.300526 57.168048 
L 366.747632 64.528123 
L 378.194737 72.206723 
L 389.641842 80.386072 
L 401.088947 88.422304 
L 412.536053 96.296818 
L 423.983158 103.815905 
L 435.430263 111.219506 
L 446.877368 119.088819 
L 458.324474 125.197502 
L 469.771579 131.461812 
L 481.218684 137.267462 
L 492.665789 142.694899 
L 504.112895 147.13129 
L 515.56 151.889968 
L 515.56 133.329941 
L 515.56 133.329941 
L 504.112895 128.081168 
L 492.665789 123.025144 
L 481.218684 118.052808 
L 469.771579 112.02301 
L 458.324474 107.286351 
L 446.877368 100.751327 
L 435.430263 94.677696 
L 423.983158 88.695523 
L 412.536053 81.456044 
L 401.088947 74.707767 
L 389.641842 68.109137 
L 378.194737 61.160749 
L 366.747632 54.809887 
L 355.300526 49.049979 
L 343.853421 44.032027 
L 332.406316 39.812981 
L 320.959211 36.685451 
L 309.512105 34.451617 
L 298.065 33.59172 
z
" clip-path="url(#p2a7889f25a)" style="fill: #ff7f0e; fill-opacity: 0.4"/>
   </g>
   <g id="PolyCollection_11">
    <path d="M 298.065 33.589558 
L 298.065 34.539319 
L 309.512105 35.668268 
L 320.959211 38.851272 
L 332.406316 43.797688 
L 343.853421 49.948728 
L 355.300526 57.058124 
L 366.747632 64.390531 
L 378.194737 72.040289 
L 389.641842 80.210698 
L 401.088947 88.184897 
L 412.536053 95.995512 
L 423.983158 103.554192 
L 435.430263 110.986696 
L 446.877368 118.782318 
L 458.324474 124.994396 
L 469.771579 131.21176 
L 481.218684 137.107301 
L 492.665789 142.547429 
L 504.112895 146.95648 
L 515.56 151.641032 
L 515.56 133.413834 
L 515.56 133.413834 
L 504.112895 128.19717 
L 492.665789 123.114424 
L 481.218684 118.201343 
L 469.771579 112.175643 
L 458.324474 107.427411 
L 446.877368 100.907191 
L 435.430263 94.808856 
L 423.983158 88.894491 
L 412.536053 81.637535 
L 401.088947 74.797446 
L 389.641842 68.184215 
L 378.194737 61.200989 
L 366.747632 54.877781 
L 355.300526 49.101066 
L 343.853421 44.069651 
L 332.406316 39.811245 
L 320.959211 36.672366 
L 309.512105 34.456404 
L 298.065 33.589558 
z
" clip-path="url(#p2a7889f25a)" style="fill: #2ca02c; fill-opacity: 0.4"/>
   </g>
   <g id="PolyCollection_12">
    <path d="M 298.065 33.610674 
L 298.065 34.556843 
L 309.512105 35.704558 
L 320.959211 38.91132 
L 332.406316 43.872908 
L 343.853421 50.032207 
L 355.300526 57.203949 
L 366.747632 64.571887 
L 378.194737 72.249157 
L 389.641842 80.442761 
L 401.088947 88.474669 
L 412.536053 96.340182 
L 423.983158 103.971618 
L 435.430263 111.470437 
L 446.877368 119.320036 
L 458.324474 125.534275 
L 469.771579 131.753691 
L 481.218684 137.669204 
L 492.665789 143.083147 
L 504.112895 147.472176 
L 515.56 152.17074 
L 515.56 133.628587 
L 515.56 133.628587 
L 504.112895 128.39144 
L 492.665789 123.288332 
L 481.218684 118.434784 
L 469.771579 112.337144 
L 458.324474 107.566296 
L 446.877368 101.039157 
L 435.430263 94.943876 
L 423.983158 89.04549 
L 412.536053 81.767018 
L 401.088947 74.944761 
L 389.641842 68.325747 
L 378.194737 61.324809 
L 366.747632 55.000412 
L 355.300526 49.194113 
L 343.853421 44.126246 
L 332.406316 39.851175 
L 320.959211 36.701925 
L 309.512105 34.464717 
L 298.065 33.610674 
z
" clip-path="url(#p2a7889f25a)" style="fill: #d62728; fill-opacity: 0.4"/>
   </g>
   <g id="PolyCollection_13">
    <path d="M 298.065 33.584155 
L 298.065 34.550987 
L 309.512105 35.648925 
L 320.959211 38.837805 
L 332.406316 43.832432 
L 343.853421 49.932286 
L 355.300526 57.270454 
L 366.747632 64.462021 
L 378.194737 72.138541 
L 389.641842 80.30366 
L 401.088947 88.355042 
L 412.536053 96.256865 
L 423.983158 103.756436 
L 435.430263 110.92766 
L 446.877368 118.938934 
L 458.324474 125.216001 
L 469.771579 130.921607 
L 481.218684 137.253887 
L 492.665789 142.466224 
L 504.112895 147.300918 
L 515.56 151.873231 
L 515.56 132.458534 
L 515.56 132.458534 
L 504.112895 127.485189 
L 492.665789 122.763126 
L 481.218684 117.444301 
L 469.771579 111.312733 
L 458.324474 107.130207 
L 446.877368 100.662052 
L 435.430263 94.259945 
L 423.983158 88.587123 
L 412.536053 81.791055 
L 401.088947 74.456021 
L 389.641842 68.127796 
L 378.194737 61.250542 
L 366.747632 54.854265 
L 355.300526 48.981638 
L 343.853421 44.052765 
L 332.406316 39.818027 
L 320.959211 36.674897 
L 309.512105 34.456652 
L 298.065 33.584155 
z
" clip-path="url(#p2a7889f25a)" style="fill: #9467bd; fill-opacity: 0.4"/>
   </g>
   <g id="PolyCollection_14">
    <path d="M 298.065 33.606646 
L 298.065 34.564647 
L 309.512105 35.676339 
L 320.959211 38.888443 
L 332.406316 43.895719 
L 343.853421 49.996565 
L 355.300526 57.371228 
L 366.747632 64.607637 
L 378.194737 72.318798 
L 389.641842 80.486003 
L 401.088947 88.559417 
L 412.536053 96.500917 
L 423.983158 104.022832 
L 435.430263 111.192048 
L 446.877368 119.254071 
L 458.324474 125.48429 
L 469.771579 131.167374 
L 481.218684 137.460994 
L 492.665789 142.641976 
L 504.112895 147.4319 
L 515.56 152.060877 
L 515.56 133.314029 
L 515.56 133.314029 
L 504.112895 128.219978 
L 492.665789 123.49349 
L 481.218684 118.136239 
L 469.771579 111.893089 
L 458.324474 107.649359 
L 446.877368 101.108485 
L 435.430263 94.681981 
L 423.983158 88.920283 
L 412.536053 82.074439 
L 401.088947 74.699843 
L 389.641842 68.295916 
L 378.194737 61.409152 
L 366.747632 54.978036 
L 355.300526 49.07508 
L 343.853421 44.113027 
L 332.406316 39.86803 
L 320.959211 36.703733 
L 309.512105 34.461611 
L 298.065 33.606646 
z
" clip-path="url(#p2a7889f25a)" style="fill: #8c564b; fill-opacity: 0.4"/>
   </g>
   <g id="PolyCollection_15">
    <path d="M 298.065 46.327104 
L 298.065 49.792917 
L 309.512105 50.835498 
L 320.959211 53.53472 
L 332.406316 57.917019 
L 343.853421 63.432825 
L 355.300526 70.001891 
L 366.747632 76.696537 
L 378.194737 83.973881 
L 389.641842 91.667589 
L 401.088947 99.387864 
L 412.536053 106.813756 
L 423.983158 113.94251 
L 435.430263 120.718833 
L 446.877368 127.996141 
L 458.324474 133.834185 
L 469.771579 139.871784 
L 481.218684 145.657576 
L 492.665789 150.800706 
L 504.112895 154.898091 
L 515.56 159.636971 
L 515.56 139.68477 
L 515.56 139.68477 
L 504.112895 135.035978 
L 492.665789 130.413068 
L 481.218684 125.821734 
L 469.771579 120.238202 
L 458.324474 115.864999 
L 446.877368 109.707043 
L 435.430263 103.889154 
L 423.983158 98.281141 
L 412.536053 91.321523 
L 401.088947 84.877771 
L 389.641842 78.878372 
L 378.194737 72.240382 
L 366.747632 66.366992 
L 355.300526 61.10401 
L 343.853421 56.307687 
L 332.406316 52.367871 
L 320.959211 49.326846 
L 309.512105 47.082943 
L 298.065 46.327104 
z
" clip-path="url(#p2a7889f25a)" style="fill: #e377c2; fill-opacity: 0.4"/>
   </g>
   <g id="PolyCollection_16">
    <path d="M 298.065 33.59739 
L 298.065 34.566854 
L 309.512105 35.698548 
L 320.959211 38.903755 
L 332.406316 43.841894 
L 343.853421 50.007648 
L 355.300526 57.193974 
L 366.747632 64.559107 
L 378.194737 72.231988 
L 389.641842 80.451351 
L 401.088947 88.477479 
L 412.536053 96.372234 
L 423.983158 103.960854 
L 435.430263 111.452626 
L 446.877368 119.380464 
L 458.324474 125.532095 
L 469.771579 131.810747 
L 481.218684 137.703055 
L 492.665789 143.144902 
L 504.112895 147.623334 
L 515.56 152.377638 
L 515.56 133.33977 
L 515.56 133.33977 
L 504.112895 128.188833 
L 492.665789 123.111235 
L 481.218684 118.219134 
L 469.771579 112.195213 
L 458.324474 107.468228 
L 446.877368 101.012011 
L 435.430263 94.937569 
L 423.983158 89.006885 
L 412.536053 81.734396 
L 401.088947 75.006017 
L 389.641842 68.375906 
L 378.194737 61.382103 
L 366.747632 55.031372 
L 355.300526 49.228561 
L 343.853421 44.134743 
L 332.406316 39.877609 
L 320.959211 36.704239 
L 309.512105 34.468818 
L 298.065 33.59739 
z
" clip-path="url(#p2a7889f25a)" style="fill: #7f7f7f; fill-opacity: 0.4"/>
   </g>
   <g id="matplotlib.axis_3">
    <g id="xtick_6">
     <g id="line2d_17">
      <g>
       <use xlink:href="#m43826849cc" x="298.065" y="174.04" style="stroke: #000000; stroke-width: 0.8"/>
      </g>
     </g>
     <g id="text_12">
      <!-- 0.0 -->
      <g transform="translate(290.113437 188.638438)scale(0.1 -0.1)">
       <use xlink:href="#DejaVuSans-30"/>
       <use xlink:href="#DejaVuSans-2e" x="63.623047"/>
       <use xlink:href="#DejaVuSans-30" x="95.410156"/>
      </g>
     </g>
    </g>
    <g id="xtick_7">
     <g id="line2d_18">
      <g>
       <use xlink:href="#m43826849cc" x="352.43875" y="174.04" style="stroke: #000000; stroke-width: 0.8"/>
      </g>
     </g>
     <g id="text_13">
      <!-- 0.5 -->
      <g transform="translate(344.487187 188.638438)scale(0.1 -0.1)">
       <use xlink:href="#DejaVuSans-30"/>
       <use xlink:href="#DejaVuSans-2e" x="63.623047"/>
       <use xlink:href="#DejaVuSans-35" x="95.410156"/>
      </g>
     </g>
    </g>
    <g id="xtick_8">
     <g id="line2d_19">
      <g>
       <use xlink:href="#m43826849cc" x="406.8125" y="174.04" style="stroke: #000000; stroke-width: 0.8"/>
      </g>
     </g>
     <g id="text_14">
      <!-- 1.0 -->
      <g transform="translate(398.860937 188.638438)scale(0.1 -0.1)">
       <use xlink:href="#DejaVuSans-31"/>
       <use xlink:href="#DejaVuSans-2e" x="63.623047"/>
       <use xlink:href="#DejaVuSans-30" x="95.410156"/>
      </g>
     </g>
    </g>
    <g id="xtick_9">
     <g id="line2d_20">
      <g>
       <use xlink:href="#m43826849cc" x="461.18625" y="174.04" style="stroke: #000000; stroke-width: 0.8"/>
      </g>
     </g>
     <g id="text_15">
      <!-- 1.5 -->
      <g transform="translate(453.234687 188.638438)scale(0.1 -0.1)">
       <use xlink:href="#DejaVuSans-31"/>
       <use xlink:href="#DejaVuSans-2e" x="63.623047"/>
       <use xlink:href="#DejaVuSans-35" x="95.410156"/>
      </g>
     </g>
    </g>
    <g id="xtick_10">
     <g id="line2d_21">
      <g>
       <use xlink:href="#m43826849cc" x="515.56" y="174.04" style="stroke: #000000; stroke-width: 0.8"/>
      </g>
     </g>
     <g id="text_16">
      <!-- 2.0 -->
      <g transform="translate(507.608437 188.638438)scale(0.1 -0.1)">
       <use xlink:href="#DejaVuSans-32"/>
       <use xlink:href="#DejaVuSans-2e" x="63.623047"/>
       <use xlink:href="#DejaVuSans-30" x="95.410156"/>
      </g>
     </g>
    </g>
    <g id="text_17">
     <!-- Influence of surprisal (multiplication) -->
     <g transform="translate(314.665625 202.316563)scale(0.1 -0.1)">
      <use xlink:href="#DejaVuSans-49"/>
      <use xlink:href="#DejaVuSans-6e" x="29.492188"/>
      <use xlink:href="#DejaVuSans-66" x="92.871094"/>
      <use xlink:href="#DejaVuSans-6c" x="128.076172"/>
      <use xlink:href="#DejaVuSans-75" x="155.859375"/>
      <use xlink:href="#DejaVuSans-65" x="219.238281"/>
      <use xlink:href="#DejaVuSans-6e" x="280.761719"/>
      <use xlink:href="#DejaVuSans-63" x="344.140625"/>
      <use xlink:href="#DejaVuSans-65" x="399.121094"/>
      <use xlink:href="#DejaVuSans-20" x="460.644531"/>
      <use xlink:href="#DejaVuSans-6f" x="492.431641"/>
      <use xlink:href="#DejaVuSans-66" x="553.613281"/>
      <use xlink:href="#DejaVuSans-20" x="588.818359"/>
      <use xlink:href="#DejaVuSans-73" x="620.605469"/>
      <use xlink:href="#DejaVuSans-75" x="672.705078"/>
      <use xlink:href="#DejaVuSans-72" x="736.083984"/>
      <use xlink:href="#DejaVuSans-70" x="777.197266"/>
      <use xlink:href="#DejaVuSans-72" x="840.673828"/>
      <use xlink:href="#DejaVuSans-69" x="881.787109"/>
      <use xlink:href="#DejaVuSans-73" x="909.570312"/>
      <use xlink:href="#DejaVuSans-61" x="961.669922"/>
      <use xlink:href="#DejaVuSans-6c" x="1022.949219"/>
      <use xlink:href="#DejaVuSans-20" x="1050.732422"/>
      <use xlink:href="#DejaVuSans-28" x="1082.519531"/>
      <use xlink:href="#DejaVuSans-6d" x="1121.533203"/>
      <use xlink:href="#DejaVuSans-75" x="1218.945312"/>
      <use xlink:href="#DejaVuSans-6c" x="1282.324219"/>
      <use xlink:href="#DejaVuSans-74" x="1310.107422"/>
      <use xlink:href="#DejaVuSans-69" x="1349.316406"/>
      <use xlink:href="#DejaVuSans-70" x="1377.099609"/>
      <use xlink:href="#DejaVuSans-6c" x="1440.576172"/>
      <use xlink:href="#DejaVuSans-69" x="1468.359375"/>
      <use xlink:href="#DejaVuSans-63" x="1496.142578"/>
      <use xlink:href="#DejaVuSans-61" x="1551.123047"/>
      <use xlink:href="#DejaVuSans-74" x="1612.402344"/>
      <use xlink:href="#DejaVuSans-69" x="1651.611328"/>
      <use xlink:href="#DejaVuSans-6f" x="1679.394531"/>
      <use xlink:href="#DejaVuSans-6e" x="1740.576172"/>
      <use xlink:href="#DejaVuSans-29" x="1803.955078"/>
     </g>
    </g>
   </g>
   <g id="line2d_22">
    <path d="M 298.065 34.04987 
L 309.512105 35.046054 
L 320.959211 37.74565 
L 332.406316 41.762341 
L 343.853421 46.938318 
L 355.300526 53.003937 
L 366.747632 59.532448 
L 378.194737 66.524585 
L 389.641842 74.063593 
L 401.088947 81.341083 
L 412.536053 88.622593 
L 423.983158 95.954917 
L 435.430263 102.615454 
L 446.877368 109.533669 
L 458.324474 115.855814 
L 469.771579 121.342235 
L 481.218684 127.215553 
L 492.665789 132.426957 
L 504.112895 137.167688 
L 515.56 142.100235 
" clip-path="url(#p2a7889f25a)" style="fill: none; stroke: #1f77b4; stroke-width: 1.5; stroke-linecap: square"/>
   </g>
   <g id="line2d_23">
    <path d="M 298.065 34.068083 
L 309.512105 35.062063 
L 320.959211 37.785033 
L 332.406316 41.818212 
L 343.853421 47.002254 
L 355.300526 53.109013 
L 366.747632 59.669005 
L 378.194737 66.683736 
L 389.641842 74.247605 
L 401.088947 81.565035 
L 412.536053 88.876431 
L 423.983158 96.255714 
L 435.430263 102.948601 
L 446.877368 109.920073 
L 458.324474 116.241926 
L 469.771579 121.742411 
L 481.218684 127.660135 
L 492.665789 132.860022 
L 504.112895 137.606229 
L 515.56 142.609954 
" clip-path="url(#p2a7889f25a)" style="fill: none; stroke: #ff7f0e; stroke-width: 1.5; stroke-linecap: square"/>
   </g>
   <g id="line2d_24">
    <path d="M 298.065 34.064438 
L 309.512105 35.062336 
L 320.959211 37.761819 
L 332.406316 41.804467 
L 343.853421 47.009189 
L 355.300526 53.079595 
L 366.747632 59.634156 
L 378.194737 66.620639 
L 389.641842 74.197456 
L 401.088947 81.491172 
L 412.536053 88.816524 
L 423.983158 96.224342 
L 435.430263 102.897776 
L 446.877368 109.844754 
L 458.324474 116.210904 
L 469.771579 121.693701 
L 481.218684 127.654322 
L 492.665789 132.830927 
L 504.112895 137.576825 
L 515.56 142.527433 
" clip-path="url(#p2a7889f25a)" style="fill: none; stroke: #2ca02c; stroke-width: 1.5; stroke-linecap: square"/>
   </g>
   <g id="line2d_25">
    <path d="M 298.065 34.083759 
L 309.512105 35.084637 
L 320.959211 37.806622 
L 332.406316 41.862041 
L 343.853421 47.079226 
L 355.300526 53.199031 
L 366.747632 59.786149 
L 378.194737 66.786983 
L 389.641842 74.384254 
L 401.088947 81.709715 
L 412.536053 89.0536 
L 423.983158 96.508554 
L 435.430263 103.207156 
L 446.877368 110.179596 
L 458.324474 116.550286 
L 469.771579 122.045418 
L 481.218684 128.051994 
L 492.665789 133.185739 
L 504.112895 137.931808 
L 515.56 142.899663 
" clip-path="url(#p2a7889f25a)" style="fill: none; stroke: #d62728; stroke-width: 1.5; stroke-linecap: square"/>
   </g>
   <g id="line2d_26">
    <path d="M 298.065 34.067571 
L 309.512105 35.052789 
L 320.959211 37.756351 
L 332.406316 41.82523 
L 343.853421 46.992526 
L 355.300526 53.126046 
L 366.747632 59.658143 
L 378.194737 66.694541 
L 389.641842 74.215728 
L 401.088947 81.405532 
L 412.536053 89.02396 
L 423.983158 96.171779 
L 435.430263 102.593803 
L 446.877368 109.800493 
L 458.324474 116.173104 
L 469.771579 121.11717 
L 481.218684 127.349094 
L 492.665789 132.614675 
L 504.112895 137.393054 
L 515.56 142.165882 
" clip-path="url(#p2a7889f25a)" style="fill: none; stroke: #9467bd; stroke-width: 1.5; stroke-linecap: square"/>
   </g>
   <g id="line2d_27">
    <path d="M 298.065 34.085646 
L 309.512105 35.068975 
L 320.959211 37.796088 
L 332.406316 41.881874 
L 343.853421 47.054796 
L 355.300526 53.223154 
L 366.747632 59.792836 
L 378.194737 66.863975 
L 389.641842 74.39096 
L 401.088947 81.62963 
L 412.536053 89.287678 
L 423.983158 96.471557 
L 435.430263 102.937015 
L 446.877368 110.181278 
L 458.324474 116.566825 
L 469.771579 121.530231 
L 481.218684 127.798616 
L 492.665789 133.067733 
L 504.112895 137.825939 
L 515.56 142.687453 
" clip-path="url(#p2a7889f25a)" style="fill: none; stroke: #8c564b; stroke-width: 1.5; stroke-linecap: square"/>
   </g>
   <g id="line2d_28">
    <path d="M 298.065 48.060011 
L 309.512105 48.95922 
L 320.959211 51.430783 
L 332.406316 55.142445 
L 343.853421 59.870256 
L 355.300526 65.55295 
L 366.747632 71.531764 
L 378.194737 78.107132 
L 389.641842 85.272981 
L 401.088947 92.132818 
L 412.536053 99.067639 
L 423.983158 106.111825 
L 435.430263 112.303993 
L 446.877368 118.851592 
L 458.324474 124.849592 
L 469.771579 130.054993 
L 481.218684 135.739655 
L 492.665789 140.606887 
L 504.112895 144.967034 
L 515.56 149.660871 
" clip-path="url(#p2a7889f25a)" style="fill: none; stroke: #e377c2; stroke-width: 1.5; stroke-linecap: square"/>
   </g>
   <g id="line2d_29">
    <path d="M 298.065 34.082122 
L 309.512105 35.083683 
L 320.959211 37.803997 
L 332.406316 41.859752 
L 343.853421 47.071196 
L 355.300526 53.211268 
L 366.747632 59.795239 
L 378.194737 66.807045 
L 389.641842 74.413628 
L 401.088947 81.741748 
L 412.536053 89.053315 
L 423.983158 96.483869 
L 435.430263 103.195097 
L 446.877368 110.196238 
L 458.324474 116.500162 
L 469.771579 122.00298 
L 481.218684 127.961094 
L 492.665789 133.128068 
L 504.112895 137.906083 
L 515.56 142.858704 
" clip-path="url(#p2a7889f25a)" style="fill: none; stroke: #7f7f7f; stroke-width: 1.5; stroke-linecap: square"/>
   </g>
   <g id="patch_6">
    <path d="M 298.065 174.04 
L 298.065 26.88 
" style="fill: none; stroke: #000000; stroke-width: 0.8; stroke-linejoin: miter; stroke-linecap: square"/>
   </g>
   <g id="patch_7">
    <path d="M 298.065 174.04 
L 515.56 174.04 
" style="fill: none; stroke: #000000; stroke-width: 0.8; stroke-linejoin: miter; stroke-linecap: square"/>
   </g>
   <g id="text_18">
    <!-- Node * third variable -->
    <g transform="translate(344.2325 20.88)scale(0.12 -0.12)">
     <defs>
      <path id="DejaVuSans-68" d="M 3513 2113 
L 3513 0 
L 2938 0 
L 2938 2094 
Q 2938 2591 2744 2837 
Q 2550 3084 2163 3084 
Q 1697 3084 1428 2787 
Q 1159 2491 1159 1978 
L 1159 0 
L 581 0 
L 581 4863 
L 1159 4863 
L 1159 2956 
Q 1366 3272 1645 3428 
Q 1925 3584 2291 3584 
Q 2894 3584 3203 3211 
Q 3513 2838 3513 2113 
z
" transform="scale(0.015625)"/>
      <path id="DejaVuSans-62" d="M 3116 1747 
Q 3116 2381 2855 2742 
Q 2594 3103 2138 3103 
Q 1681 3103 1420 2742 
Q 1159 2381 1159 1747 
Q 1159 1113 1420 752 
Q 1681 391 2138 391 
Q 2594 391 2855 752 
Q 3116 1113 3116 1747 
z
M 1159 2969 
Q 1341 3281 1617 3432 
Q 1894 3584 2278 3584 
Q 2916 3584 3314 3078 
Q 3713 2572 3713 1747 
Q 3713 922 3314 415 
Q 2916 -91 2278 -91 
Q 1894 -91 1617 61 
Q 1341 213 1159 525 
L 1159 0 
L 581 0 
L 581 4863 
L 1159 4863 
L 1159 2969 
z
" transform="scale(0.015625)"/>
     </defs>
     <use xlink:href="#DejaVuSans-4e"/>
     <use xlink:href="#DejaVuSans-6f" x="74.804688"/>
     <use xlink:href="#DejaVuSans-64" x="135.986328"/>
     <use xlink:href="#DejaVuSans-65" x="199.462891"/>
     <use xlink:href="#DejaVuSans-20" x="260.986328"/>
     <use xlink:href="#DejaVuSans-2a" x="292.773438"/>
     <use xlink:href="#DejaVuSans-20" x="342.773438"/>
     <use xlink:href="#DejaVuSans-74" x="374.560547"/>
     <use xlink:href="#DejaVuSans-68" x="413.769531"/>
     <use xlink:href="#DejaVuSans-69" x="477.148438"/>
     <use xlink:href="#DejaVuSans-72" x="504.931641"/>
     <use xlink:href="#DejaVuSans-64" x="544.294922"/>
     <use xlink:href="#DejaVuSans-20" x="607.771484"/>
     <use xlink:href="#DejaVuSans-76" x="639.558594"/>
     <use xlink:href="#DejaVuSans-61" x="698.738281"/>
     <use xlink:href="#DejaVuSans-72" x="760.017578"/>
     <use xlink:href="#DejaVuSans-69" x="801.130859"/>
     <use xlink:href="#DejaVuSans-61" x="828.914062"/>
     <use xlink:href="#DejaVuSans-62" x="890.193359"/>
     <use xlink:href="#DejaVuSans-6c" x="953.669922"/>
     <use xlink:href="#DejaVuSans-65" x="981.453125"/>
    </g>
   </g>
   <g id="legend_1">
    <g id="line2d_30">
     <path d="M 524.56 39.978437 
L 534.56 39.978437 
L 544.56 39.978437 
" style="fill: none; stroke: #1f77b4; stroke-width: 1.5; stroke-linecap: square"/>
    </g>
    <g id="text_19">
     <!-- Node -->
     <g transform="translate(552.56 43.478437)scale(0.1 -0.1)">
      <use xlink:href="#DejaVuSans-4e"/>
      <use xlink:href="#DejaVuSans-6f" x="74.804688"/>
      <use xlink:href="#DejaVuSans-64" x="135.986328"/>
      <use xlink:href="#DejaVuSans-65" x="199.462891"/>
     </g>
    </g>
    <g id="line2d_31">
     <path d="M 524.56 54.656563 
L 534.56 54.656563 
L 544.56 54.656563 
" style="fill: none; stroke: #ff7f0e; stroke-width: 1.5; stroke-linecap: square"/>
    </g>
    <g id="text_20">
     <!-- Node + surprisal -->
     <g transform="translate(552.56 58.156563)scale(0.1 -0.1)">
      <defs>
       <path id="DejaVuSans-2b" d="M 2944 4013 
L 2944 2272 
L 4684 2272 
L 4684 1741 
L 2944 1741 
L 2944 0 
L 2419 0 
L 2419 1741 
L 678 1741 
L 678 2272 
L 2419 2272 
L 2419 4013 
L 2944 4013 
z
" transform="scale(0.015625)"/>
      </defs>
      <use xlink:href="#DejaVuSans-4e"/>
      <use xlink:href="#DejaVuSans-6f" x="74.804688"/>
      <use xlink:href="#DejaVuSans-64" x="135.986328"/>
      <use xlink:href="#DejaVuSans-65" x="199.462891"/>
      <use xlink:href="#DejaVuSans-20" x="260.986328"/>
      <use xlink:href="#DejaVuSans-2b" x="292.773438"/>
      <use xlink:href="#DejaVuSans-20" x="376.5625"/>
      <use xlink:href="#DejaVuSans-73" x="408.349609"/>
      <use xlink:href="#DejaVuSans-75" x="460.449219"/>
      <use xlink:href="#DejaVuSans-72" x="523.828125"/>
      <use xlink:href="#DejaVuSans-70" x="564.941406"/>
      <use xlink:href="#DejaVuSans-72" x="628.417969"/>
      <use xlink:href="#DejaVuSans-69" x="669.53125"/>
      <use xlink:href="#DejaVuSans-73" x="697.314453"/>
      <use xlink:href="#DejaVuSans-61" x="749.414062"/>
      <use xlink:href="#DejaVuSans-6c" x="810.693359"/>
     </g>
    </g>
    <g id="line2d_32">
     <path d="M 524.56 69.334687 
L 534.56 69.334687 
L 544.56 69.334687 
" style="fill: none; stroke: #2ca02c; stroke-width: 1.5; stroke-linecap: square"/>
    </g>
    <g id="text_21">
     <!-- Node split -->
     <g transform="translate(552.56 72.834687)scale(0.1 -0.1)">
      <use xlink:href="#DejaVuSans-4e"/>
      <use xlink:href="#DejaVuSans-6f" x="74.804688"/>
      <use xlink:href="#DejaVuSans-64" x="135.986328"/>
      <use xlink:href="#DejaVuSans-65" x="199.462891"/>
      <use xlink:href="#DejaVuSans-20" x="260.986328"/>
      <use xlink:href="#DejaVuSans-73" x="292.773438"/>
      <use xlink:href="#DejaVuSans-70" x="344.873047"/>
      <use xlink:href="#DejaVuSans-6c" x="408.349609"/>
      <use xlink:href="#DejaVuSans-69" x="436.132812"/>
      <use xlink:href="#DejaVuSans-74" x="463.916016"/>
     </g>
    </g>
    <g id="line2d_33">
     <path d="M 524.56 84.012812 
L 534.56 84.012812 
L 544.56 84.012812 
" style="fill: none; stroke: #d62728; stroke-width: 1.5; stroke-linecap: square"/>
    </g>
    <g id="text_22">
     <!-- Node split + surprisal -->
     <g transform="translate(552.56 87.512812)scale(0.1 -0.1)">
      <use xlink:href="#DejaVuSans-4e"/>
      <use xlink:href="#DejaVuSans-6f" x="74.804688"/>
      <use xlink:href="#DejaVuSans-64" x="135.986328"/>
      <use xlink:href="#DejaVuSans-65" x="199.462891"/>
      <use xlink:href="#DejaVuSans-20" x="260.986328"/>
      <use xlink:href="#DejaVuSans-73" x="292.773438"/>
      <use xlink:href="#DejaVuSans-70" x="344.873047"/>
      <use xlink:href="#DejaVuSans-6c" x="408.349609"/>
      <use xlink:href="#DejaVuSans-69" x="436.132812"/>
      <use xlink:href="#DejaVuSans-74" x="463.916016"/>
      <use xlink:href="#DejaVuSans-20" x="503.125"/>
      <use xlink:href="#DejaVuSans-2b" x="534.912109"/>
      <use xlink:href="#DejaVuSans-20" x="618.701172"/>
      <use xlink:href="#DejaVuSans-73" x="650.488281"/>
      <use xlink:href="#DejaVuSans-75" x="702.587891"/>
      <use xlink:href="#DejaVuSans-72" x="765.966797"/>
      <use xlink:href="#DejaVuSans-70" x="807.080078"/>
      <use xlink:href="#DejaVuSans-72" x="870.556641"/>
      <use xlink:href="#DejaVuSans-69" x="911.669922"/>
      <use xlink:href="#DejaVuSans-73" x="939.453125"/>
      <use xlink:href="#DejaVuSans-61" x="991.552734"/>
      <use xlink:href="#DejaVuSans-6c" x="1052.832031"/>
     </g>
    </g>
    <g id="line2d_34">
     <path d="M 524.56 98.690937 
L 534.56 98.690937 
L 544.56 98.690937 
" style="fill: none; stroke: #9467bd; stroke-width: 1.5; stroke-linecap: square"/>
    </g>
    <g id="text_23">
     <!-- Node random split -->
     <g transform="translate(552.56 102.190937)scale(0.1 -0.1)">
      <use xlink:href="#DejaVuSans-4e"/>
      <use xlink:href="#DejaVuSans-6f" x="74.804688"/>
      <use xlink:href="#DejaVuSans-64" x="135.986328"/>
      <use xlink:href="#DejaVuSans-65" x="199.462891"/>
      <use xlink:href="#DejaVuSans-20" x="260.986328"/>
      <use xlink:href="#DejaVuSans-72" x="292.773438"/>
      <use xlink:href="#DejaVuSans-61" x="333.886719"/>
      <use xlink:href="#DejaVuSans-6e" x="395.166016"/>
      <use xlink:href="#DejaVuSans-64" x="458.544922"/>
      <use xlink:href="#DejaVuSans-6f" x="522.021484"/>
      <use xlink:href="#DejaVuSans-6d" x="583.203125"/>
      <use xlink:href="#DejaVuSans-20" x="680.615234"/>
      <use xlink:href="#DejaVuSans-73" x="712.402344"/>
      <use xlink:href="#DejaVuSans-70" x="764.501953"/>
      <use xlink:href="#DejaVuSans-6c" x="827.978516"/>
      <use xlink:href="#DejaVuSans-69" x="855.761719"/>
      <use xlink:href="#DejaVuSans-74" x="883.544922"/>
     </g>
    </g>
    <g id="line2d_35">
     <path d="M 524.56 113.369062 
L 534.56 113.369062 
L 544.56 113.369062 
" style="fill: none; stroke: #8c564b; stroke-width: 1.5; stroke-linecap: square"/>
    </g>
    <g id="text_24">
     <!-- Node random split + surprisal -->
     <g transform="translate(552.56 116.869062)scale(0.1 -0.1)">
      <use xlink:href="#DejaVuSans-4e"/>
      <use xlink:href="#DejaVuSans-6f" x="74.804688"/>
      <use xlink:href="#DejaVuSans-64" x="135.986328"/>
      <use xlink:href="#DejaVuSans-65" x="199.462891"/>
      <use xlink:href="#DejaVuSans-20" x="260.986328"/>
      <use xlink:href="#DejaVuSans-72" x="292.773438"/>
      <use xlink:href="#DejaVuSans-61" x="333.886719"/>
      <use xlink:href="#DejaVuSans-6e" x="395.166016"/>
      <use xlink:href="#DejaVuSans-64" x="458.544922"/>
      <use xlink:href="#DejaVuSans-6f" x="522.021484"/>
      <use xlink:href="#DejaVuSans-6d" x="583.203125"/>
      <use xlink:href="#DejaVuSans-20" x="680.615234"/>
      <use xlink:href="#DejaVuSans-73" x="712.402344"/>
      <use xlink:href="#DejaVuSans-70" x="764.501953"/>
      <use xlink:href="#DejaVuSans-6c" x="827.978516"/>
      <use xlink:href="#DejaVuSans-69" x="855.761719"/>
      <use xlink:href="#DejaVuSans-74" x="883.544922"/>
      <use xlink:href="#DejaVuSans-20" x="922.753906"/>
      <use xlink:href="#DejaVuSans-2b" x="954.541016"/>
      <use xlink:href="#DejaVuSans-20" x="1038.330078"/>
      <use xlink:href="#DejaVuSans-73" x="1070.117188"/>
      <use xlink:href="#DejaVuSans-75" x="1122.216797"/>
      <use xlink:href="#DejaVuSans-72" x="1185.595703"/>
      <use xlink:href="#DejaVuSans-70" x="1226.708984"/>
      <use xlink:href="#DejaVuSans-72" x="1290.185547"/>
      <use xlink:href="#DejaVuSans-69" x="1331.298828"/>
      <use xlink:href="#DejaVuSans-73" x="1359.082031"/>
      <use xlink:href="#DejaVuSans-61" x="1411.181641"/>
      <use xlink:href="#DejaVuSans-6c" x="1472.460938"/>
     </g>
    </g>
    <g id="line2d_36">
     <path d="M 524.56 128.047187 
L 534.56 128.047187 
L 544.56 128.047187 
" style="fill: none; stroke: #e377c2; stroke-width: 1.5; stroke-linecap: square"/>
    </g>
    <g id="text_25">
     <!-- Interaction -->
     <g transform="translate(552.56 131.547187)scale(0.1 -0.1)">
      <use xlink:href="#DejaVuSans-49"/>
      <use xlink:href="#DejaVuSans-6e" x="29.492188"/>
      <use xlink:href="#DejaVuSans-74" x="92.871094"/>
      <use xlink:href="#DejaVuSans-65" x="132.080078"/>
      <use xlink:href="#DejaVuSans-72" x="193.603516"/>
      <use xlink:href="#DejaVuSans-61" x="234.716797"/>
      <use xlink:href="#DejaVuSans-63" x="295.996094"/>
      <use xlink:href="#DejaVuSans-74" x="350.976562"/>
      <use xlink:href="#DejaVuSans-69" x="390.185547"/>
      <use xlink:href="#DejaVuSans-6f" x="417.96875"/>
      <use xlink:href="#DejaVuSans-6e" x="479.150391"/>
     </g>
    </g>
    <g id="line2d_37">
     <path d="M 524.56 142.725312 
L 534.56 142.725312 
L 544.56 142.725312 
" style="fill: none; stroke: #7f7f7f; stroke-width: 1.5; stroke-linecap: square"/>
    </g>
    <g id="text_26">
     <!-- Node + surprisal + interaction -->
     <g transform="translate(552.56 146.225312)scale(0.1 -0.1)">
      <use xlink:href="#DejaVuSans-4e"/>
      <use xlink:href="#DejaVuSans-6f" x="74.804688"/>
      <use xlink:href="#DejaVuSans-64" x="135.986328"/>
      <use xlink:href="#DejaVuSans-65" x="199.462891"/>
      <use xlink:href="#DejaVuSans-20" x="260.986328"/>
      <use xlink:href="#DejaVuSans-2b" x="292.773438"/>
      <use xlink:href="#DejaVuSans-20" x="376.5625"/>
      <use xlink:href="#DejaVuSans-73" x="408.349609"/>
      <use xlink:href="#DejaVuSans-75" x="460.449219"/>
      <use xlink:href="#DejaVuSans-72" x="523.828125"/>
      <use xlink:href="#DejaVuSans-70" x="564.941406"/>
      <use xlink:href="#DejaVuSans-72" x="628.417969"/>
      <use xlink:href="#DejaVuSans-69" x="669.53125"/>
      <use xlink:href="#DejaVuSans-73" x="697.314453"/>
      <use xlink:href="#DejaVuSans-61" x="749.414062"/>
      <use xlink:href="#DejaVuSans-6c" x="810.693359"/>
      <use xlink:href="#DejaVuSans-20" x="838.476562"/>
      <use xlink:href="#DejaVuSans-2b" x="870.263672"/>
      <use xlink:href="#DejaVuSans-20" x="954.052734"/>
      <use xlink:href="#DejaVuSans-69" x="985.839844"/>
      <use xlink:href="#DejaVuSans-6e" x="1013.623047"/>
      <use xlink:href="#DejaVuSans-74" x="1077.001953"/>
      <use xlink:href="#DejaVuSans-65" x="1116.210938"/>
      <use xlink:href="#DejaVuSans-72" x="1177.734375"/>
      <use xlink:href="#DejaVuSans-61" x="1218.847656"/>
      <use xlink:href="#DejaVuSans-63" x="1280.126953"/>
      <use xlink:href="#DejaVuSans-74" x="1335.107422"/>
      <use xlink:href="#DejaVuSans-69" x="1374.316406"/>
      <use xlink:href="#DejaVuSans-6f" x="1402.099609"/>
      <use xlink:href="#DejaVuSans-6e" x="1463.28125"/>
     </g>
    </g>
   </g>
  </g>
 </g>
 <defs>
  <clipPath id="pf8a5db76e2">
   <rect x="47.72" y="26.88" width="217.495" height="147.16"/>
  </clipPath>
  <clipPath id="p2a7889f25a">
   <rect x="298.065" y="26.88" width="217.495" height="147.16"/>
  </clipPath>
 </defs>
</svg>
