<?xml version="1.0" encoding="utf-8" standalone="no"?>
<!DOCTYPE svg PUBLIC "-//W3C//DTD SVG 1.1//EN"
  "http://www.w3.org/Graphics/SVG/1.1/DTD/svg11.dtd">
<svg xmlns:xlink="http://www.w3.org/1999/xlink" width="720pt" height="216pt" viewBox="0 0 720 216" xmlns="http://www.w3.org/2000/svg" version="1.1">
 <metadata>
  <rdf:RDF xmlns:dc="http://purl.org/dc/elements/1.1/" xmlns:cc="http://creativecommons.org/ns#" xmlns:rdf="http://www.w3.org/1999/02/22-rdf-syntax-ns#">
   <cc:Work>
    <dc:type rdf:resource="http://purl.org/dc/dcmitype/StillImage"/>
    <dc:date>2024-01-16T02:42:39.892042</dc:date>
    <dc:format>image/svg+xml</dc:format>
    <dc:creator>
     <cc:Agent>
      <dc:title>Matplotlib v3.5.1, https://matplotlib.org/</dc:title>
     </cc:Agent>
    </dc:creator>
   </cc:Work>
  </rdf:RDF>
 </metadata>
 <defs>
  <style type="text/css">*{stroke-linejoin: round; stroke-linecap: butt}</style>
 </defs>
 <g id="figure_1">
  <g id="patch_1">
   <path d="M 0 216 
L 720 216 
L 720 0 
L 0 0 
z
" style="fill: #ffffff"/>
  </g>
  <g id="axes_1">
   <g id="patch_2">
    <path d="M 47.72 174.04 
L 265.215 174.04 
L 265.215 26.88 
L 47.72 26.88 
z
" style="fill: #ffffff"/>
   </g>
   <g id="PolyCollection_1">
    <path d="M 47.72 33.569091 
L 47.72 34.567202 
L 59.167105 35.39994 
L 70.614211 38.259598 
L 82.061316 42.485186 
L 93.508421 47.834474 
L 104.955526 54.190835 
L 116.402632 61.172664 
L 127.849737 68.897957 
L 139.296842 76.114367 
L 150.743947 85.191688 
L 162.191053 93.113407 
L 173.638158 100.778165 
L 185.085263 108.609808 
L 196.532368 115.90825 
L 207.979474 122.630687 
L 219.426579 129.597927 
L 230.873684 135.652446 
L 242.320789 141.548743 
L 253.767895 146.638482 
L 265.215 152.17028 
L 265.215 137.200923 
L 265.215 137.200923 
L 253.767895 132.22681 
L 242.320789 127.215594 
L 230.873684 121.969783 
L 219.426579 116.403364 
L 207.979474 110.119026 
L 196.532368 104.462237 
L 185.085263 97.839741 
L 173.638158 91.30563 
L 162.191053 85.12673 
L 150.743947 77.999296 
L 139.296842 71.381219 
L 127.849737 64.924163 
L 116.402632 58.234345 
L 104.955526 51.455526 
L 93.508421 45.945186 
L 82.061316 40.743845 
L 70.614211 37.203161 
L 59.167105 34.569207 
L 47.72 33.569091 
z
" clip-path="url(#p02c5985b44)" style="fill: #1f77b4; fill-opacity: 0.4"/>
   </g>
   <g id="PolyCollection_2">
    <path d="M 47.72 33.594175 
L 47.72 34.575181 
L 59.167105 35.0585 
L 70.614211 36.396823 
L 82.061316 38.652472 
L 93.508421 41.966282 
L 104.955526 45.938724 
L 116.402632 50.610082 
L 127.849737 56.284002 
L 139.296842 61.500379 
L 150.743947 68.363067 
L 162.191053 74.601901 
L 173.638158 80.719294 
L 185.085263 87.936785 
L 196.532368 94.761935 
L 207.979474 101.610886 
L 219.426579 108.444456 
L 230.873684 115.012973 
L 242.320789 120.80078 
L 253.767895 126.322828 
L 265.215 132.255793 
L 265.215 121.324985 
L 265.215 121.324985 
L 253.767895 116.410044 
L 242.320789 111.359609 
L 230.873684 105.740356 
L 219.426579 100.290999 
L 207.979474 94.228907 
L 196.532368 88.353953 
L 185.085263 82.111529 
L 173.638158 76.138843 
L 162.191053 70.059486 
L 150.743947 63.965511 
L 139.296842 58.239048 
L 127.849737 53.060848 
L 116.402632 48.295115 
L 104.955526 43.683159 
L 93.508421 40.269575 
L 82.061316 37.449692 
L 70.614211 35.535105 
L 59.167105 34.209294 
L 47.72 33.594175 
z
" clip-path="url(#p02c5985b44)" style="fill: #ff7f0e; fill-opacity: 0.4"/>
   </g>
   <g id="PolyCollection_3">
    <path d="M 47.72 33.573781 
L 47.72 34.58499 
L 59.167105 35.164472 
L 70.614211 36.536119 
L 82.061316 38.303051 
L 93.508421 40.835149 
L 104.955526 43.621386 
L 116.402632 46.719994 
L 127.849737 50.410599 
L 139.296842 53.377677 
L 150.743947 57.491353 
L 162.191053 61.598355 
L 173.638158 66.183279 
L 185.085263 69.92971 
L 196.532368 74.293129 
L 207.979474 78.564246 
L 219.426579 82.612702 
L 230.873684 86.855928 
L 242.320789 90.618995 
L 253.767895 94.322435 
L 265.215 98.339244 
L 265.215 85.921238 
L 265.215 85.921238 
L 253.767895 82.921253 
L 242.320789 79.803202 
L 230.873684 76.429789 
L 219.426579 73.219298 
L 207.979474 69.946775 
L 196.532368 67.186953 
L 185.085263 63.986333 
L 173.638158 60.73777 
L 162.191053 58.245899 
L 150.743947 54.614845 
L 139.296842 51.32382 
L 127.849737 48.161289 
L 116.402632 45.420574 
L 104.955526 42.115864 
L 93.508421 39.801664 
L 82.061316 37.243175 
L 70.614211 35.599718 
L 59.167105 34.399957 
L 47.72 33.573781 
z
" clip-path="url(#p02c5985b44)" style="fill: #2ca02c; fill-opacity: 0.4"/>
   </g>
   <g id="PolyCollection_4">
    <path d="M 47.72 33.606762 
L 47.72 34.59965 
L 59.167105 35.02668 
L 70.614211 35.911013 
L 82.061316 37.192312 
L 93.508421 39.195337 
L 104.955526 41.496121 
L 116.402632 44.09628 
L 127.849737 47.475359 
L 139.296842 50.240858 
L 150.743947 54.47018 
L 162.191053 58.226829 
L 173.638158 62.717119 
L 185.085263 66.5591 
L 196.532368 70.973062 
L 207.979474 75.421673 
L 219.426579 79.503598 
L 230.873684 84.057864 
L 242.320789 87.921698 
L 253.767895 91.786475 
L 265.215 96.020315 
L 265.215 84.705256 
L 265.215 84.705256 
L 253.767895 81.624921 
L 242.320789 78.408234 
L 230.873684 74.717709 
L 219.426579 71.403672 
L 207.979474 67.997684 
L 196.532368 65.025898 
L 185.085263 61.622907 
L 173.638158 58.209814 
L 162.191053 55.43753 
L 150.743947 51.555554 
L 139.296842 48.458736 
L 127.849737 45.405516 
L 116.402632 42.817234 
L 104.955526 39.920721 
L 93.508421 38.105092 
L 82.061316 36.220323 
L 70.614211 35.055906 
L 59.167105 34.205901 
L 47.72 33.606762 
z
" clip-path="url(#p02c5985b44)" style="fill: #d62728; fill-opacity: 0.4"/>
   </g>
   <g id="PolyCollection_5">
    <path d="M 47.72 33.58468 
L 47.72 34.586253 
L 59.167105 35.415789 
L 70.614211 38.283818 
L 82.061316 42.542679 
L 93.508421 47.83646 
L 104.955526 54.212372 
L 116.402632 61.211744 
L 127.849737 69.118331 
L 139.296842 76.023389 
L 150.743947 85.367564 
L 162.191053 92.914652 
L 173.638158 101.156128 
L 185.085263 108.819032 
L 196.532368 116.153456 
L 207.979474 122.380731 
L 219.426579 129.843991 
L 230.873684 135.785905 
L 242.320789 141.735617 
L 253.767895 146.755021 
L 265.215 152.335202 
L 265.215 137.368917 
L 265.215 137.368917 
L 253.767895 132.768087 
L 242.320789 127.472634 
L 230.873684 122.632294 
L 219.426579 116.605488 
L 207.979474 110.179466 
L 196.532368 104.60724 
L 185.085263 97.86686 
L 173.638158 91.285541 
L 162.191053 85.337974 
L 150.743947 78.221499 
L 139.296842 71.476757 
L 127.849737 65.118894 
L 116.402632 58.25189 
L 104.955526 51.570952 
L 93.508421 45.978487 
L 82.061316 40.781026 
L 70.614211 37.217762 
L 59.167105 34.590378 
L 47.72 33.58468 
z
" clip-path="url(#p02c5985b44)" style="fill: #9467bd; fill-opacity: 0.4"/>
   </g>
   <g id="PolyCollection_6">
    <path d="M 47.72 33.609483 
L 47.72 34.594844 
L 59.167105 35.074777 
L 70.614211 36.410488 
L 82.061316 38.695096 
L 93.508421 41.967882 
L 104.955526 45.959324 
L 116.402632 50.581315 
L 127.849737 56.374457 
L 139.296842 61.493907 
L 150.743947 68.449596 
L 162.191053 74.6797 
L 173.638158 80.946636 
L 185.085263 88.174692 
L 196.532368 94.91492 
L 207.979474 101.489595 
L 219.426579 108.564752 
L 230.873684 115.500492 
L 242.320789 120.822678 
L 253.767895 126.60624 
L 265.215 132.451176 
L 265.215 121.546072 
L 265.215 121.546072 
L 253.767895 116.852795 
L 242.320789 111.733144 
L 230.873684 106.024397 
L 219.426579 100.490963 
L 207.979474 94.423527 
L 196.532368 88.470963 
L 185.085263 82.033536 
L 173.638158 76.151071 
L 162.191053 70.176451 
L 150.743947 64.042285 
L 139.296842 58.26531 
L 127.849737 53.177923 
L 116.402632 48.33745 
L 104.955526 43.77194 
L 93.508421 40.271038 
L 82.061316 37.474651 
L 70.614211 35.558747 
L 59.167105 34.230671 
L 47.72 33.609483 
z
" clip-path="url(#p02c5985b44)" style="fill: #8c564b; fill-opacity: 0.4"/>
   </g>
   <g id="PolyCollection_7">
    <path d="M 47.72 47.066436 
L 47.72 50.352809 
L 59.167105 51.788449 
L 70.614211 55.563697 
L 82.061316 61.35502 
L 93.508421 67.948525 
L 104.955526 75.662905 
L 116.402632 83.418791 
L 127.849737 91.250223 
L 139.296842 98.60373 
L 150.743947 106.732864 
L 162.191053 114.116556 
L 173.638158 121.527281 
L 185.085263 129.076992 
L 196.532368 136.045773 
L 207.979474 142.234514 
L 219.426579 148.78364 
L 230.873684 153.985554 
L 242.320789 158.752773 
L 253.767895 163.023551 
L 265.215 167.350909 
L 265.215 153.215683 
L 265.215 153.215683 
L 253.767895 149.166329 
L 242.320789 144.947773 
L 230.873684 140.276382 
L 219.426579 135.425621 
L 207.979474 129.963272 
L 196.532368 124.677289 
L 185.085263 118.671971 
L 173.638158 112.207412 
L 162.191053 105.742745 
L 150.743947 97.754736 
L 139.296842 89.632057 
L 127.849737 82.436222 
L 116.402632 74.802673 
L 104.955526 67.054442 
L 93.508421 60.756617 
L 82.061316 54.838484 
L 70.614211 50.81857 
L 59.167105 48.091718 
L 47.72 47.066436 
z
" clip-path="url(#p02c5985b44)" style="fill: #e377c2; fill-opacity: 0.4"/>
   </g>
   <g id="PolyCollection_8">
    <path d="M 47.72 33.61053 
L 47.72 34.603104 
L 59.167105 34.702192 
L 70.614211 34.947322 
L 82.061316 35.451625 
L 93.508421 37.27876 
L 104.955526 39.971604 
L 116.402632 43.512848 
L 127.849737 47.929142 
L 139.296842 52.604563 
L 150.743947 58.136933 
L 162.191053 64.005555 
L 173.638158 69.256356 
L 185.085263 75.486454 
L 196.532368 81.771773 
L 207.979474 87.957375 
L 219.426579 94.175318 
L 230.873684 100.752279 
L 242.320789 106.786698 
L 253.767895 112.672571 
L 265.215 119.122728 
L 265.215 109.352632 
L 265.215 109.352632 
L 253.767895 104.286108 
L 242.320789 99.092535 
L 230.873684 93.023974 
L 219.426579 87.361007 
L 207.979474 80.312104 
L 196.532368 73.826778 
L 185.085263 67.220878 
L 173.638158 60.890491 
L 162.191053 54.530898 
L 150.743947 49.271279 
L 139.296842 44.741554 
L 127.849737 41.111005 
L 116.402632 38.212662 
L 104.955526 35.997248 
L 93.508421 35.148014 
L 82.061316 34.482146 
L 70.614211 33.978529 
L 59.167105 33.961777 
L 47.72 33.61053 
z
" clip-path="url(#p02c5985b44)" style="fill: #7f7f7f; fill-opacity: 0.4"/>
   </g>
   <g id="matplotlib.axis_1">
    <g id="xtick_1">
     <g id="line2d_1">
      <defs>
       <path id="m9a1fedd64f" d="M 0 0 
L 0 3.5 
" style="stroke: #000000; stroke-width: 0.8"/>
      </defs>
      <g>
       <use xlink:href="#m9a1fedd64f" x="47.72" y="174.04" style="stroke: #000000; stroke-width: 0.8"/>
      </g>
     </g>
     <g id="text_1">
      <!-- 0.0 -->
      <g transform="translate(39.768438 188.638438)scale(0.1 -0.1)">
       <defs>
        <path id="DejaVuSans-30" d="M 2034 4250 
Q 1547 4250 1301 3770 
Q 1056 3291 1056 2328 
Q 1056 1369 1301 889 
Q 1547 409 2034 409 
Q 2525 409 2770 889 
Q 3016 1369 3016 2328 
Q 3016 3291 2770 3770 
Q 2525 4250 2034 4250 
z
M 2034 4750 
Q 2819 4750 3233 4129 
Q 3647 3509 3647 2328 
Q 3647 1150 3233 529 
Q 2819 -91 2034 -91 
Q 1250 -91 836 529 
Q 422 1150 422 2328 
Q 422 3509 836 4129 
Q 1250 4750 2034 4750 
z
" transform="scale(0.015625)"/>
        <path id="DejaVuSans-2e" d="M 684 794 
L 1344 794 
L 1344 0 
L 684 0 
L 684 794 
z
" transform="scale(0.015625)"/>
       </defs>
       <use xlink:href="#DejaVuSans-30"/>
       <use xlink:href="#DejaVuSans-2e" x="63.623047"/>
       <use xlink:href="#DejaVuSans-30" x="95.410156"/>
      </g>
     </g>
    </g>
    <g id="xtick_2">
     <g id="line2d_2">
      <g>
       <use xlink:href="#m9a1fedd64f" x="102.09375" y="174.04" style="stroke: #000000; stroke-width: 0.8"/>
      </g>
     </g>
     <g id="text_2">
      <!-- 0.5 -->
      <g transform="translate(94.142188 188.638438)scale(0.1 -0.1)">
       <defs>
        <path id="DejaVuSans-35" d="M 691 4666 
L 3169 4666 
L 3169 4134 
L 1269 4134 
L 1269 2991 
Q 1406 3038 1543 3061 
Q 1681 3084 1819 3084 
Q 2600 3084 3056 2656 
Q 3513 2228 3513 1497 
Q 3513 744 3044 326 
Q 2575 -91 1722 -91 
Q 1428 -91 1123 -41 
Q 819 9 494 109 
L 494 744 
Q 775 591 1075 516 
Q 1375 441 1709 441 
Q 2250 441 2565 725 
Q 2881 1009 2881 1497 
Q 2881 1984 2565 2268 
Q 2250 2553 1709 2553 
Q 1456 2553 1204 2497 
Q 953 2441 691 2322 
L 691 4666 
z
" transform="scale(0.015625)"/>
       </defs>
       <use xlink:href="#DejaVuSans-30"/>
       <use xlink:href="#DejaVuSans-2e" x="63.623047"/>
       <use xlink:href="#DejaVuSans-35" x="95.410156"/>
      </g>
     </g>
    </g>
    <g id="xtick_3">
     <g id="line2d_3">
      <g>
       <use xlink:href="#m9a1fedd64f" x="156.4675" y="174.04" style="stroke: #000000; stroke-width: 0.8"/>
      </g>
     </g>
     <g id="text_3">
      <!-- 1.0 -->
      <g transform="translate(148.515938 188.638438)scale(0.1 -0.1)">
       <defs>
        <path id="DejaVuSans-31" d="M 794 531 
L 1825 531 
L 1825 4091 
L 703 3866 
L 703 4441 
L 1819 4666 
L 2450 4666 
L 2450 531 
L 3481 531 
L 3481 0 
L 794 0 
L 794 531 
z
" transform="scale(0.015625)"/>
       </defs>
       <use xlink:href="#DejaVuSans-31"/>
       <use xlink:href="#DejaVuSans-2e" x="63.623047"/>
       <use xlink:href="#DejaVuSans-30" x="95.410156"/>
      </g>
     </g>
    </g>
    <g id="xtick_4">
     <g id="line2d_4">
      <g>
       <use xlink:href="#m9a1fedd64f" x="210.84125" y="174.04" style="stroke: #000000; stroke-width: 0.8"/>
      </g>
     </g>
     <g id="text_4">
      <!-- 1.5 -->
      <g transform="translate(202.889687 188.638438)scale(0.1 -0.1)">
       <use xlink:href="#DejaVuSans-31"/>
       <use xlink:href="#DejaVuSans-2e" x="63.623047"/>
       <use xlink:href="#DejaVuSans-35" x="95.410156"/>
      </g>
     </g>
    </g>
    <g id="xtick_5">
     <g id="line2d_5">
      <g>
       <use xlink:href="#m9a1fedd64f" x="265.215" y="174.04" style="stroke: #000000; stroke-width: 0.8"/>
      </g>
     </g>
     <g id="text_5">
      <!-- 2.0 -->
      <g transform="translate(257.263437 188.638438)scale(0.1 -0.1)">
       <defs>
        <path id="DejaVuSans-32" d="M 1228 531 
L 3431 531 
L 3431 0 
L 469 0 
L 469 531 
Q 828 903 1448 1529 
Q 2069 2156 2228 2338 
Q 2531 2678 2651 2914 
Q 2772 3150 2772 3378 
Q 2772 3750 2511 3984 
Q 2250 4219 1831 4219 
Q 1534 4219 1204 4116 
Q 875 4013 500 3803 
L 500 4441 
Q 881 4594 1212 4672 
Q 1544 4750 1819 4750 
Q 2544 4750 2975 4387 
Q 3406 4025 3406 3419 
Q 3406 3131 3298 2873 
Q 3191 2616 2906 2266 
Q 2828 2175 2409 1742 
Q 1991 1309 1228 531 
z
" transform="scale(0.015625)"/>
       </defs>
       <use xlink:href="#DejaVuSans-32"/>
       <use xlink:href="#DejaVuSans-2e" x="63.623047"/>
       <use xlink:href="#DejaVuSans-30" x="95.410156"/>
      </g>
     </g>
    </g>
    <g id="text_6">
     <!-- Influence of surprisal (multiplication) -->
     <g transform="translate(64.320625 202.316563)scale(0.1 -0.1)">
      <defs>
       <path id="DejaVuSans-49" d="M 628 4666 
L 1259 4666 
L 1259 0 
L 628 0 
L 628 4666 
z
" transform="scale(0.015625)"/>
       <path id="DejaVuSans-6e" d="M 3513 2113 
L 3513 0 
L 2938 0 
L 2938 2094 
Q 2938 2591 2744 2837 
Q 2550 3084 2163 3084 
Q 1697 3084 1428 2787 
Q 1159 2491 1159 1978 
L 1159 0 
L 581 0 
L 581 3500 
L 1159 3500 
L 1159 2956 
Q 1366 3272 1645 3428 
Q 1925 3584 2291 3584 
Q 2894 3584 3203 3211 
Q 3513 2838 3513 2113 
z
" transform="scale(0.015625)"/>
       <path id="DejaVuSans-66" d="M 2375 4863 
L 2375 4384 
L 1825 4384 
Q 1516 4384 1395 4259 
Q 1275 4134 1275 3809 
L 1275 3500 
L 2222 3500 
L 2222 3053 
L 1275 3053 
L 1275 0 
L 697 0 
L 697 3053 
L 147 3053 
L 147 3500 
L 697 3500 
L 697 3744 
Q 697 4328 969 4595 
Q 1241 4863 1831 4863 
L 2375 4863 
z
" transform="scale(0.015625)"/>
       <path id="DejaVuSans-6c" d="M 603 4863 
L 1178 4863 
L 1178 0 
L 603 0 
L 603 4863 
z
" transform="scale(0.015625)"/>
       <path id="DejaVuSans-75" d="M 544 1381 
L 544 3500 
L 1119 3500 
L 1119 1403 
Q 1119 906 1312 657 
Q 1506 409 1894 409 
Q 2359 409 2629 706 
Q 2900 1003 2900 1516 
L 2900 3500 
L 3475 3500 
L 3475 0 
L 2900 0 
L 2900 538 
Q 2691 219 2414 64 
Q 2138 -91 1772 -91 
Q 1169 -91 856 284 
Q 544 659 544 1381 
z
M 1991 3584 
L 1991 3584 
z
" transform="scale(0.015625)"/>
       <path id="DejaVuSans-65" d="M 3597 1894 
L 3597 1613 
L 953 1613 
Q 991 1019 1311 708 
Q 1631 397 2203 397 
Q 2534 397 2845 478 
Q 3156 559 3463 722 
L 3463 178 
Q 3153 47 2828 -22 
Q 2503 -91 2169 -91 
Q 1331 -91 842 396 
Q 353 884 353 1716 
Q 353 2575 817 3079 
Q 1281 3584 2069 3584 
Q 2775 3584 3186 3129 
Q 3597 2675 3597 1894 
z
M 3022 2063 
Q 3016 2534 2758 2815 
Q 2500 3097 2075 3097 
Q 1594 3097 1305 2825 
Q 1016 2553 972 2059 
L 3022 2063 
z
" transform="scale(0.015625)"/>
       <path id="DejaVuSans-63" d="M 3122 3366 
L 3122 2828 
Q 2878 2963 2633 3030 
Q 2388 3097 2138 3097 
Q 1578 3097 1268 2742 
Q 959 2388 959 1747 
Q 959 1106 1268 751 
Q 1578 397 2138 397 
Q 2388 397 2633 464 
Q 2878 531 3122 666 
L 3122 134 
Q 2881 22 2623 -34 
Q 2366 -91 2075 -91 
Q 1284 -91 818 406 
Q 353 903 353 1747 
Q 353 2603 823 3093 
Q 1294 3584 2113 3584 
Q 2378 3584 2631 3529 
Q 2884 3475 3122 3366 
z
" transform="scale(0.015625)"/>
       <path id="DejaVuSans-20" transform="scale(0.015625)"/>
       <path id="DejaVuSans-6f" d="M 1959 3097 
Q 1497 3097 1228 2736 
Q 959 2375 959 1747 
Q 959 1119 1226 758 
Q 1494 397 1959 397 
Q 2419 397 2687 759 
Q 2956 1122 2956 1747 
Q 2956 2369 2687 2733 
Q 2419 3097 1959 3097 
z
M 1959 3584 
Q 2709 3584 3137 3096 
Q 3566 2609 3566 1747 
Q 3566 888 3137 398 
Q 2709 -91 1959 -91 
Q 1206 -91 779 398 
Q 353 888 353 1747 
Q 353 2609 779 3096 
Q 1206 3584 1959 3584 
z
" transform="scale(0.015625)"/>
       <path id="DejaVuSans-73" d="M 2834 3397 
L 2834 2853 
Q 2591 2978 2328 3040 
Q 2066 3103 1784 3103 
Q 1356 3103 1142 2972 
Q 928 2841 928 2578 
Q 928 2378 1081 2264 
Q 1234 2150 1697 2047 
L 1894 2003 
Q 2506 1872 2764 1633 
Q 3022 1394 3022 966 
Q 3022 478 2636 193 
Q 2250 -91 1575 -91 
Q 1294 -91 989 -36 
Q 684 19 347 128 
L 347 722 
Q 666 556 975 473 
Q 1284 391 1588 391 
Q 1994 391 2212 530 
Q 2431 669 2431 922 
Q 2431 1156 2273 1281 
Q 2116 1406 1581 1522 
L 1381 1569 
Q 847 1681 609 1914 
Q 372 2147 372 2553 
Q 372 3047 722 3315 
Q 1072 3584 1716 3584 
Q 2034 3584 2315 3537 
Q 2597 3491 2834 3397 
z
" transform="scale(0.015625)"/>
       <path id="DejaVuSans-72" d="M 2631 2963 
Q 2534 3019 2420 3045 
Q 2306 3072 2169 3072 
Q 1681 3072 1420 2755 
Q 1159 2438 1159 1844 
L 1159 0 
L 581 0 
L 581 3500 
L 1159 3500 
L 1159 2956 
Q 1341 3275 1631 3429 
Q 1922 3584 2338 3584 
Q 2397 3584 2469 3576 
Q 2541 3569 2628 3553 
L 2631 2963 
z
" transform="scale(0.015625)"/>
       <path id="DejaVuSans-70" d="M 1159 525 
L 1159 -1331 
L 581 -1331 
L 581 3500 
L 1159 3500 
L 1159 2969 
Q 1341 3281 1617 3432 
Q 1894 3584 2278 3584 
Q 2916 3584 3314 3078 
Q 3713 2572 3713 1747 
Q 3713 922 3314 415 
Q 2916 -91 2278 -91 
Q 1894 -91 1617 61 
Q 1341 213 1159 525 
z
M 3116 1747 
Q 3116 2381 2855 2742 
Q 2594 3103 2138 3103 
Q 1681 3103 1420 2742 
Q 1159 2381 1159 1747 
Q 1159 1113 1420 752 
Q 1681 391 2138 391 
Q 2594 391 2855 752 
Q 3116 1113 3116 1747 
z
" transform="scale(0.015625)"/>
       <path id="DejaVuSans-69" d="M 603 3500 
L 1178 3500 
L 1178 0 
L 603 0 
L 603 3500 
z
M 603 4863 
L 1178 4863 
L 1178 4134 
L 603 4134 
L 603 4863 
z
" transform="scale(0.015625)"/>
       <path id="DejaVuSans-61" d="M 2194 1759 
Q 1497 1759 1228 1600 
Q 959 1441 959 1056 
Q 959 750 1161 570 
Q 1363 391 1709 391 
Q 2188 391 2477 730 
Q 2766 1069 2766 1631 
L 2766 1759 
L 2194 1759 
z
M 3341 1997 
L 3341 0 
L 2766 0 
L 2766 531 
Q 2569 213 2275 61 
Q 1981 -91 1556 -91 
Q 1019 -91 701 211 
Q 384 513 384 1019 
Q 384 1609 779 1909 
Q 1175 2209 1959 2209 
L 2766 2209 
L 2766 2266 
Q 2766 2663 2505 2880 
Q 2244 3097 1772 3097 
Q 1472 3097 1187 3025 
Q 903 2953 641 2809 
L 641 3341 
Q 956 3463 1253 3523 
Q 1550 3584 1831 3584 
Q 2591 3584 2966 3190 
Q 3341 2797 3341 1997 
z
" transform="scale(0.015625)"/>
       <path id="DejaVuSans-28" d="M 1984 4856 
Q 1566 4138 1362 3434 
Q 1159 2731 1159 2009 
Q 1159 1288 1364 580 
Q 1569 -128 1984 -844 
L 1484 -844 
Q 1016 -109 783 600 
Q 550 1309 550 2009 
Q 550 2706 781 3412 
Q 1013 4119 1484 4856 
L 1984 4856 
z
" transform="scale(0.015625)"/>
       <path id="DejaVuSans-6d" d="M 3328 2828 
Q 3544 3216 3844 3400 
Q 4144 3584 4550 3584 
Q 5097 3584 5394 3201 
Q 5691 2819 5691 2113 
L 5691 0 
L 5113 0 
L 5113 2094 
Q 5113 2597 4934 2840 
Q 4756 3084 4391 3084 
Q 3944 3084 3684 2787 
Q 3425 2491 3425 1978 
L 3425 0 
L 2847 0 
L 2847 2094 
Q 2847 2600 2669 2842 
Q 2491 3084 2119 3084 
Q 1678 3084 1418 2786 
Q 1159 2488 1159 1978 
L 1159 0 
L 581 0 
L 581 3500 
L 1159 3500 
L 1159 2956 
Q 1356 3278 1631 3431 
Q 1906 3584 2284 3584 
Q 2666 3584 2933 3390 
Q 3200 3197 3328 2828 
z
" transform="scale(0.015625)"/>
       <path id="DejaVuSans-74" d="M 1172 4494 
L 1172 3500 
L 2356 3500 
L 2356 3053 
L 1172 3053 
L 1172 1153 
Q 1172 725 1289 603 
Q 1406 481 1766 481 
L 2356 481 
L 2356 0 
L 1766 0 
Q 1100 0 847 248 
Q 594 497 594 1153 
L 594 3053 
L 172 3053 
L 172 3500 
L 594 3500 
L 594 4494 
L 1172 4494 
z
" transform="scale(0.015625)"/>
       <path id="DejaVuSans-29" d="M 513 4856 
L 1013 4856 
Q 1481 4119 1714 3412 
Q 1947 2706 1947 2009 
Q 1947 1309 1714 600 
Q 1481 -109 1013 -844 
L 513 -844 
Q 928 -128 1133 580 
Q 1338 1288 1338 2009 
Q 1338 2731 1133 3434 
Q 928 4138 513 4856 
z
" transform="scale(0.015625)"/>
      </defs>
      <use xlink:href="#DejaVuSans-49"/>
      <use xlink:href="#DejaVuSans-6e" x="29.492188"/>
      <use xlink:href="#DejaVuSans-66" x="92.871094"/>
      <use xlink:href="#DejaVuSans-6c" x="128.076172"/>
      <use xlink:href="#DejaVuSans-75" x="155.859375"/>
      <use xlink:href="#DejaVuSans-65" x="219.238281"/>
      <use xlink:href="#DejaVuSans-6e" x="280.761719"/>
      <use xlink:href="#DejaVuSans-63" x="344.140625"/>
      <use xlink:href="#DejaVuSans-65" x="399.121094"/>
      <use xlink:href="#DejaVuSans-20" x="460.644531"/>
      <use xlink:href="#DejaVuSans-6f" x="492.431641"/>
      <use xlink:href="#DejaVuSans-66" x="553.613281"/>
      <use xlink:href="#DejaVuSans-20" x="588.818359"/>
      <use xlink:href="#DejaVuSans-73" x="620.605469"/>
      <use xlink:href="#DejaVuSans-75" x="672.705078"/>
      <use xlink:href="#DejaVuSans-72" x="736.083984"/>
      <use xlink:href="#DejaVuSans-70" x="777.197266"/>
      <use xlink:href="#DejaVuSans-72" x="840.673828"/>
      <use xlink:href="#DejaVuSans-69" x="881.787109"/>
      <use xlink:href="#DejaVuSans-73" x="909.570312"/>
      <use xlink:href="#DejaVuSans-61" x="961.669922"/>
      <use xlink:href="#DejaVuSans-6c" x="1022.949219"/>
      <use xlink:href="#DejaVuSans-20" x="1050.732422"/>
      <use xlink:href="#DejaVuSans-28" x="1082.519531"/>
      <use xlink:href="#DejaVuSans-6d" x="1121.533203"/>
      <use xlink:href="#DejaVuSans-75" x="1218.945312"/>
      <use xlink:href="#DejaVuSans-6c" x="1282.324219"/>
      <use xlink:href="#DejaVuSans-74" x="1310.107422"/>
      <use xlink:href="#DejaVuSans-69" x="1349.316406"/>
      <use xlink:href="#DejaVuSans-70" x="1377.099609"/>
      <use xlink:href="#DejaVuSans-6c" x="1440.576172"/>
      <use xlink:href="#DejaVuSans-69" x="1468.359375"/>
      <use xlink:href="#DejaVuSans-63" x="1496.142578"/>
      <use xlink:href="#DejaVuSans-61" x="1551.123047"/>
      <use xlink:href="#DejaVuSans-74" x="1612.402344"/>
      <use xlink:href="#DejaVuSans-69" x="1651.611328"/>
      <use xlink:href="#DejaVuSans-6f" x="1679.394531"/>
      <use xlink:href="#DejaVuSans-6e" x="1740.576172"/>
      <use xlink:href="#DejaVuSans-29" x="1803.955078"/>
     </g>
    </g>
   </g>
   <g id="matplotlib.axis_2">
    <g id="ytick_1">
     <g id="line2d_6">
      <defs>
       <path id="m3ca4cdb3e7" d="M 0 0 
L -3.5 0 
" style="stroke: #000000; stroke-width: 0.8"/>
      </defs>
      <g>
       <use xlink:href="#m3ca4cdb3e7" x="47.72" y="139.376745" style="stroke: #000000; stroke-width: 0.8"/>
      </g>
     </g>
     <g id="text_7">
      <!-- 0.4 -->
      <g transform="translate(24.816875 143.175964)scale(0.1 -0.1)">
       <defs>
        <path id="DejaVuSans-34" d="M 2419 4116 
L 825 1625 
L 2419 1625 
L 2419 4116 
z
M 2253 4666 
L 3047 4666 
L 3047 1625 
L 3713 1625 
L 3713 1100 
L 3047 1100 
L 3047 0 
L 2419 0 
L 2419 1100 
L 313 1100 
L 313 1709 
L 2253 4666 
z
" transform="scale(0.015625)"/>
       </defs>
       <use xlink:href="#DejaVuSans-30"/>
       <use xlink:href="#DejaVuSans-2e" x="63.623047"/>
       <use xlink:href="#DejaVuSans-34" x="95.410156"/>
      </g>
     </g>
    </g>
    <g id="ytick_2">
     <g id="line2d_7">
      <g>
       <use xlink:href="#m3ca4cdb3e7" x="47.72" y="100.779171" style="stroke: #000000; stroke-width: 0.8"/>
      </g>
     </g>
     <g id="text_8">
      <!-- 0.6 -->
      <g transform="translate(24.816875 104.578389)scale(0.1 -0.1)">
       <defs>
        <path id="DejaVuSans-36" d="M 2113 2584 
Q 1688 2584 1439 2293 
Q 1191 2003 1191 1497 
Q 1191 994 1439 701 
Q 1688 409 2113 409 
Q 2538 409 2786 701 
Q 3034 994 3034 1497 
Q 3034 2003 2786 2293 
Q 2538 2584 2113 2584 
z
M 3366 4563 
L 3366 3988 
Q 3128 4100 2886 4159 
Q 2644 4219 2406 4219 
Q 1781 4219 1451 3797 
Q 1122 3375 1075 2522 
Q 1259 2794 1537 2939 
Q 1816 3084 2150 3084 
Q 2853 3084 3261 2657 
Q 3669 2231 3669 1497 
Q 3669 778 3244 343 
Q 2819 -91 2113 -91 
Q 1303 -91 875 529 
Q 447 1150 447 2328 
Q 447 3434 972 4092 
Q 1497 4750 2381 4750 
Q 2619 4750 2861 4703 
Q 3103 4656 3366 4563 
z
" transform="scale(0.015625)"/>
       </defs>
       <use xlink:href="#DejaVuSans-30"/>
       <use xlink:href="#DejaVuSans-2e" x="63.623047"/>
       <use xlink:href="#DejaVuSans-36" x="95.410156"/>
      </g>
     </g>
    </g>
    <g id="ytick_3">
     <g id="line2d_8">
      <g>
       <use xlink:href="#m3ca4cdb3e7" x="47.72" y="62.181596" style="stroke: #000000; stroke-width: 0.8"/>
      </g>
     </g>
     <g id="text_9">
      <!-- 0.8 -->
      <g transform="translate(24.816875 65.980815)scale(0.1 -0.1)">
       <defs>
        <path id="DejaVuSans-38" d="M 2034 2216 
Q 1584 2216 1326 1975 
Q 1069 1734 1069 1313 
Q 1069 891 1326 650 
Q 1584 409 2034 409 
Q 2484 409 2743 651 
Q 3003 894 3003 1313 
Q 3003 1734 2745 1975 
Q 2488 2216 2034 2216 
z
M 1403 2484 
Q 997 2584 770 2862 
Q 544 3141 544 3541 
Q 544 4100 942 4425 
Q 1341 4750 2034 4750 
Q 2731 4750 3128 4425 
Q 3525 4100 3525 3541 
Q 3525 3141 3298 2862 
Q 3072 2584 2669 2484 
Q 3125 2378 3379 2068 
Q 3634 1759 3634 1313 
Q 3634 634 3220 271 
Q 2806 -91 2034 -91 
Q 1263 -91 848 271 
Q 434 634 434 1313 
Q 434 1759 690 2068 
Q 947 2378 1403 2484 
z
M 1172 3481 
Q 1172 3119 1398 2916 
Q 1625 2713 2034 2713 
Q 2441 2713 2670 2916 
Q 2900 3119 2900 3481 
Q 2900 3844 2670 4047 
Q 2441 4250 2034 4250 
Q 1625 4250 1398 4047 
Q 1172 3844 1172 3481 
z
" transform="scale(0.015625)"/>
       </defs>
       <use xlink:href="#DejaVuSans-30"/>
       <use xlink:href="#DejaVuSans-2e" x="63.623047"/>
       <use xlink:href="#DejaVuSans-38" x="95.410156"/>
      </g>
     </g>
    </g>
    <g id="text_10">
     <!-- R-value -->
     <g transform="translate(18.737188 119.064687)rotate(-90)scale(0.1 -0.1)">
      <defs>
       <path id="DejaVuSans-52" d="M 2841 2188 
Q 3044 2119 3236 1894 
Q 3428 1669 3622 1275 
L 4263 0 
L 3584 0 
L 2988 1197 
Q 2756 1666 2539 1819 
Q 2322 1972 1947 1972 
L 1259 1972 
L 1259 0 
L 628 0 
L 628 4666 
L 2053 4666 
Q 2853 4666 3247 4331 
Q 3641 3997 3641 3322 
Q 3641 2881 3436 2590 
Q 3231 2300 2841 2188 
z
M 1259 4147 
L 1259 2491 
L 2053 2491 
Q 2509 2491 2742 2702 
Q 2975 2913 2975 3322 
Q 2975 3731 2742 3939 
Q 2509 4147 2053 4147 
L 1259 4147 
z
" transform="scale(0.015625)"/>
       <path id="DejaVuSans-2d" d="M 313 2009 
L 1997 2009 
L 1997 1497 
L 313 1497 
L 313 2009 
z
" transform="scale(0.015625)"/>
       <path id="DejaVuSans-76" d="M 191 3500 
L 800 3500 
L 1894 563 
L 2988 3500 
L 3597 3500 
L 2284 0 
L 1503 0 
L 191 3500 
z
" transform="scale(0.015625)"/>
      </defs>
      <use xlink:href="#DejaVuSans-52"/>
      <use xlink:href="#DejaVuSans-2d" x="65.482422"/>
      <use xlink:href="#DejaVuSans-76" x="98.941406"/>
      <use xlink:href="#DejaVuSans-61" x="158.121094"/>
      <use xlink:href="#DejaVuSans-6c" x="219.400391"/>
      <use xlink:href="#DejaVuSans-75" x="247.183594"/>
      <use xlink:href="#DejaVuSans-65" x="310.5625"/>
     </g>
    </g>
   </g>
   <g id="line2d_9">
    <path d="M 47.72 34.068147 
L 59.167105 34.984574 
L 70.614211 37.73138 
L 82.061316 41.614516 
L 93.508421 46.88983 
L 104.955526 52.823181 
L 116.402632 59.703504 
L 127.849737 66.91106 
L 139.296842 73.747793 
L 150.743947 81.595492 
L 162.191053 89.120068 
L 173.638158 96.041897 
L 185.085263 103.224774 
L 196.532368 110.185243 
L 207.979474 116.374856 
L 219.426579 123.000645 
L 230.873684 128.811115 
L 242.320789 134.382169 
L 253.767895 139.432646 
L 265.215 144.685601 
" clip-path="url(#p02c5985b44)" style="fill: none; stroke: #1f77b4; stroke-width: 1.5; stroke-linecap: square"/>
   </g>
   <g id="line2d_10">
    <path d="M 47.72 34.084678 
L 59.167105 34.633897 
L 70.614211 35.965964 
L 82.061316 38.051082 
L 93.508421 41.117929 
L 104.955526 44.810942 
L 116.402632 49.452599 
L 127.849737 54.672425 
L 139.296842 59.869714 
L 150.743947 66.164289 
L 162.191053 72.330693 
L 173.638158 78.429068 
L 185.085263 85.024157 
L 196.532368 91.557944 
L 207.979474 97.919897 
L 219.426579 104.367727 
L 230.873684 110.376664 
L 242.320789 116.080194 
L 253.767895 121.366436 
L 265.215 126.790389 
" clip-path="url(#p02c5985b44)" style="fill: none; stroke: #ff7f0e; stroke-width: 1.5; stroke-linecap: square"/>
   </g>
   <g id="line2d_11">
    <path d="M 47.72 34.079386 
L 59.167105 34.782215 
L 70.614211 36.067918 
L 82.061316 37.773113 
L 93.508421 40.318407 
L 104.955526 42.868625 
L 116.402632 46.070284 
L 127.849737 49.285944 
L 139.296842 52.350749 
L 150.743947 56.053099 
L 162.191053 59.922127 
L 173.638158 63.460525 
L 185.085263 66.958022 
L 196.532368 70.740041 
L 207.979474 74.255511 
L 219.426579 77.916 
L 230.873684 81.642858 
L 242.320789 85.211098 
L 253.767895 88.621844 
L 265.215 92.130241 
" clip-path="url(#p02c5985b44)" style="fill: none; stroke: #2ca02c; stroke-width: 1.5; stroke-linecap: square"/>
   </g>
   <g id="line2d_12">
    <path d="M 47.72 34.103206 
L 59.167105 34.61629 
L 70.614211 35.483459 
L 82.061316 36.706318 
L 93.508421 38.650214 
L 104.955526 40.708421 
L 116.402632 43.456757 
L 127.849737 46.440437 
L 139.296842 49.349797 
L 150.743947 53.012867 
L 162.191053 56.832179 
L 173.638158 60.463467 
L 185.085263 64.091003 
L 196.532368 67.99948 
L 207.979474 71.709678 
L 219.426579 75.453635 
L 230.873684 79.387787 
L 242.320789 83.164966 
L 253.767895 86.705698 
L 265.215 90.362786 
" clip-path="url(#p02c5985b44)" style="fill: none; stroke: #d62728; stroke-width: 1.5; stroke-linecap: square"/>
   </g>
   <g id="line2d_13">
    <path d="M 47.72 34.085466 
L 59.167105 35.003083 
L 70.614211 37.75079 
L 82.061316 41.661853 
L 93.508421 46.907474 
L 104.955526 52.891662 
L 116.402632 59.731817 
L 127.849737 67.118612 
L 139.296842 73.750073 
L 150.743947 81.794531 
L 162.191053 89.126313 
L 173.638158 96.220835 
L 185.085263 103.342946 
L 196.532368 110.380348 
L 207.979474 116.280098 
L 219.426579 123.224739 
L 230.873684 129.2091 
L 242.320789 134.604125 
L 253.767895 139.761554 
L 265.215 144.852059 
" clip-path="url(#p02c5985b44)" style="fill: none; stroke: #9467bd; stroke-width: 1.5; stroke-linecap: square"/>
   </g>
   <g id="line2d_14">
    <path d="M 47.72 34.102163 
L 59.167105 34.652724 
L 70.614211 35.984617 
L 82.061316 38.084874 
L 93.508421 41.11946 
L 104.955526 44.865632 
L 116.402632 49.459383 
L 127.849737 54.77619 
L 139.296842 59.879608 
L 150.743947 66.245941 
L 162.191053 72.428075 
L 173.638158 78.548853 
L 185.085263 85.104114 
L 196.532368 91.692942 
L 207.979474 97.956561 
L 219.426579 104.527858 
L 230.873684 110.762444 
L 242.320789 116.277911 
L 253.767895 121.729518 
L 265.215 126.998624 
" clip-path="url(#p02c5985b44)" style="fill: none; stroke: #8c564b; stroke-width: 1.5; stroke-linecap: square"/>
   </g>
   <g id="line2d_15">
    <path d="M 47.72 48.709622 
L 59.167105 49.940083 
L 70.614211 53.191134 
L 82.061316 58.096752 
L 93.508421 64.352571 
L 104.955526 71.358674 
L 116.402632 79.110732 
L 127.849737 86.843223 
L 139.296842 94.117893 
L 150.743947 102.2438 
L 162.191053 109.929651 
L 173.638158 116.867346 
L 185.085263 123.874482 
L 196.532368 130.361531 
L 207.979474 136.098893 
L 219.426579 142.104631 
L 230.873684 147.130968 
L 242.320789 151.850273 
L 253.767895 156.09494 
L 265.215 160.283296 
" clip-path="url(#p02c5985b44)" style="fill: none; stroke: #e377c2; stroke-width: 1.5; stroke-linecap: square"/>
   </g>
   <g id="line2d_16">
    <path d="M 47.72 34.106817 
L 59.167105 34.331984 
L 70.614211 34.462926 
L 82.061316 34.966885 
L 93.508421 36.213387 
L 104.955526 37.984426 
L 116.402632 40.862755 
L 127.849737 44.520074 
L 139.296842 48.673058 
L 150.743947 53.704106 
L 162.191053 59.268227 
L 173.638158 65.073423 
L 185.085263 71.353666 
L 196.532368 77.799275 
L 207.979474 84.134739 
L 219.426579 90.768162 
L 230.873684 96.888127 
L 242.320789 102.939616 
L 253.767895 108.479339 
L 265.215 114.23768 
" clip-path="url(#p02c5985b44)" style="fill: none; stroke: #7f7f7f; stroke-width: 1.5; stroke-linecap: square"/>
   </g>
   <g id="patch_3">
    <path d="M 47.72 174.04 
L 47.72 26.88 
" style="fill: none; stroke: #000000; stroke-width: 0.8; stroke-linejoin: miter; stroke-linecap: square"/>
   </g>
   <g id="patch_4">
    <path d="M 47.72 174.04 
L 265.215 174.04 
" style="fill: none; stroke: #000000; stroke-width: 0.8; stroke-linejoin: miter; stroke-linecap: square"/>
   </g>
   <g id="text_11">
    <!-- Node * surprisal -->
    <g transform="translate(108.18625 20.88)scale(0.12 -0.12)">
     <defs>
      <path id="DejaVuSans-4e" d="M 628 4666 
L 1478 4666 
L 3547 763 
L 3547 4666 
L 4159 4666 
L 4159 0 
L 3309 0 
L 1241 3903 
L 1241 0 
L 628 0 
L 628 4666 
z
" transform="scale(0.015625)"/>
      <path id="DejaVuSans-64" d="M 2906 2969 
L 2906 4863 
L 3481 4863 
L 3481 0 
L 2906 0 
L 2906 525 
Q 2725 213 2448 61 
Q 2172 -91 1784 -91 
Q 1150 -91 751 415 
Q 353 922 353 1747 
Q 353 2572 751 3078 
Q 1150 3584 1784 3584 
Q 2172 3584 2448 3432 
Q 2725 3281 2906 2969 
z
M 947 1747 
Q 947 1113 1208 752 
Q 1469 391 1925 391 
Q 2381 391 2643 752 
Q 2906 1113 2906 1747 
Q 2906 2381 2643 2742 
Q 2381 3103 1925 3103 
Q 1469 3103 1208 2742 
Q 947 2381 947 1747 
z
" transform="scale(0.015625)"/>
      <path id="DejaVuSans-2a" d="M 3009 3897 
L 1888 3291 
L 3009 2681 
L 2828 2375 
L 1778 3009 
L 1778 1831 
L 1422 1831 
L 1422 3009 
L 372 2375 
L 191 2681 
L 1313 3291 
L 191 3897 
L 372 4206 
L 1422 3572 
L 1422 4750 
L 1778 4750 
L 1778 3572 
L 2828 4206 
L 3009 3897 
z
" transform="scale(0.015625)"/>
     </defs>
     <use xlink:href="#DejaVuSans-4e"/>
     <use xlink:href="#DejaVuSans-6f" x="74.804688"/>
     <use xlink:href="#DejaVuSans-64" x="135.986328"/>
     <use xlink:href="#DejaVuSans-65" x="199.462891"/>
     <use xlink:href="#DejaVuSans-20" x="260.986328"/>
     <use xlink:href="#DejaVuSans-2a" x="292.773438"/>
     <use xlink:href="#DejaVuSans-20" x="342.773438"/>
     <use xlink:href="#DejaVuSans-73" x="374.560547"/>
     <use xlink:href="#DejaVuSans-75" x="426.660156"/>
     <use xlink:href="#DejaVuSans-72" x="490.039062"/>
     <use xlink:href="#DejaVuSans-70" x="531.152344"/>
     <use xlink:href="#DejaVuSans-72" x="594.628906"/>
     <use xlink:href="#DejaVuSans-69" x="635.742188"/>
     <use xlink:href="#DejaVuSans-73" x="663.525391"/>
     <use xlink:href="#DejaVuSans-61" x="715.625"/>
     <use xlink:href="#DejaVuSans-6c" x="776.904297"/>
    </g>
   </g>
  </g>
  <g id="axes_2">
   <g id="patch_5">
    <path d="M 298.065 174.04 
L 515.56 174.04 
L 515.56 26.88 
L 298.065 26.88 
z
" style="fill: #ffffff"/>
   </g>
   <g id="PolyCollection_9">
    <path d="M 298.065 33.654274 
L 298.065 34.418054 
L 309.512105 35.128288 
L 320.959211 38.162635 
L 332.406316 42.456732 
L 343.853421 47.95343 
L 355.300526 54.646082 
L 366.747632 61.894875 
L 378.194737 69.214699 
L 389.641842 76.331369 
L 401.088947 82.872451 
L 412.536053 90.220914 
L 423.983158 97.094726 
L 435.430263 103.419642 
L 446.877368 110.387388 
L 458.324474 116.967049 
L 469.771579 123.343842 
L 481.218684 130.093754 
L 492.665789 135.742257 
L 504.112895 141.816382 
L 515.56 147.519757 
L 515.56 130.338321 
L 515.56 130.338321 
L 504.112895 125.618697 
L 492.665789 120.922314 
L 481.218684 116.231905 
L 469.771579 111.366001 
L 458.324474 106.199122 
L 446.877368 101.267696 
L 435.430263 95.105866 
L 423.983158 89.286428 
L 412.536053 83.035036 
L 401.088947 76.059892 
L 389.641842 69.378943 
L 378.194737 62.495614 
L 366.747632 56.103029 
L 355.300526 50.081841 
L 343.853421 44.937388 
L 332.406316 40.480727 
L 320.959211 36.995868 
L 309.512105 34.379074 
L 298.065 33.654274 
z
" clip-path="url(#p5b4c8990c2)" style="fill: #1f77b4; fill-opacity: 0.4"/>
   </g>
   <g id="PolyCollection_10">
    <path d="M 298.065 33.673268 
L 298.065 34.438505 
L 309.512105 35.165006 
L 320.959211 38.18223 
L 332.406316 42.467053 
L 343.853421 47.965057 
L 355.300526 54.648693 
L 366.747632 61.905301 
L 378.194737 69.23249 
L 389.641842 76.373485 
L 401.088947 82.928623 
L 412.536053 90.307249 
L 423.983158 97.188735 
L 435.430263 103.548043 
L 446.877368 110.548044 
L 458.324474 117.178279 
L 469.771579 123.56462 
L 481.218684 130.359269 
L 492.665789 136.015154 
L 504.112895 142.101749 
L 515.56 147.812663 
L 515.56 130.934631 
L 515.56 130.934631 
L 504.112895 126.173504 
L 492.665789 121.473843 
L 481.218684 116.762803 
L 469.771579 111.777914 
L 458.324474 106.547771 
L 446.877368 101.572145 
L 435.430263 95.353353 
L 423.983158 89.486842 
L 412.536053 83.205395 
L 401.088947 76.168554 
L 389.641842 69.458073 
L 378.194737 62.561234 
L 366.747632 56.151805 
L 355.300526 50.1147 
L 343.853421 44.966363 
L 332.406316 40.503579 
L 320.959211 37.011241 
L 309.512105 34.398728 
L 298.065 33.673268 
z
" clip-path="url(#p5b4c8990c2)" style="fill: #ff7f0e; fill-opacity: 0.4"/>
   </g>
   <g id="PolyCollection_11">
    <path d="M 298.065 33.671763 
L 298.065 34.444795 
L 309.512105 35.147174 
L 320.959211 38.166227 
L 332.406316 42.451046 
L 343.853421 47.932246 
L 355.300526 54.63408 
L 366.747632 61.870862 
L 378.194737 69.216233 
L 389.641842 76.354282 
L 401.088947 82.897776 
L 412.536053 90.324883 
L 423.983158 97.215313 
L 435.430263 103.640215 
L 446.877368 110.661974 
L 458.324474 117.287264 
L 469.771579 123.649882 
L 481.218684 130.399367 
L 492.665789 136.078328 
L 504.112895 142.17347 
L 515.56 147.939186 
L 515.56 131.116006 
L 515.56 131.116006 
L 504.112895 126.255002 
L 492.665789 121.43348 
L 481.218684 116.676833 
L 469.771579 111.590341 
L 458.324474 106.328189 
L 446.877368 101.332965 
L 435.430263 95.097968 
L 423.983158 89.307372 
L 412.536053 83.037781 
L 401.088947 76.061008 
L 389.641842 69.444643 
L 378.194737 62.524154 
L 366.747632 56.114918 
L 355.300526 50.117629 
L 343.853421 44.955686 
L 332.406316 40.489906 
L 320.959211 37.024889 
L 309.512105 34.391168 
L 298.065 33.671763 
z
" clip-path="url(#p5b4c8990c2)" style="fill: #2ca02c; fill-opacity: 0.4"/>
   </g>
   <g id="PolyCollection_12">
    <path d="M 298.065 33.68784 
L 298.065 34.462208 
L 309.512105 35.186226 
L 320.959211 38.172828 
L 332.406316 42.451961 
L 343.853421 47.942404 
L 355.300526 54.60927 
L 366.747632 61.864463 
L 378.194737 69.221632 
L 389.641842 76.368884 
L 401.088947 82.933205 
L 412.536053 90.40282 
L 423.983158 97.291736 
L 435.430263 103.690749 
L 446.877368 110.711695 
L 458.324474 117.410007 
L 469.771579 123.757125 
L 481.218684 130.565944 
L 492.665789 136.269203 
L 504.112895 142.333437 
L 515.56 148.073855 
L 515.56 131.889642 
L 515.56 131.889642 
L 504.112895 126.948864 
L 492.665789 122.071174 
L 481.218684 117.312579 
L 469.771579 112.137919 
L 458.324474 106.779145 
L 446.877368 101.731615 
L 435.430263 95.452282 
L 423.983158 89.577562 
L 412.536053 83.26895 
L 401.088947 76.222531 
L 389.641842 69.569319 
L 378.194737 62.653235 
L 366.747632 56.201894 
L 355.300526 50.183819 
L 343.853421 45.005687 
L 332.406316 40.53828 
L 320.959211 37.040971 
L 309.512105 34.410545 
L 298.065 33.68784 
z
" clip-path="url(#p5b4c8990c2)" style="fill: #d62728; fill-opacity: 0.4"/>
   </g>
   <g id="PolyCollection_13">
    <path d="M 298.065 33.669378 
L 298.065 34.427658 
L 309.512105 35.14361 
L 320.959211 38.188348 
L 332.406316 42.469619 
L 343.853421 47.934816 
L 355.300526 54.681099 
L 366.747632 61.967672 
L 378.194737 69.484747 
L 389.641842 76.598736 
L 401.088947 83.536875 
L 412.536053 90.313968 
L 423.983158 97.485269 
L 435.430263 103.86283 
L 446.877368 110.591327 
L 458.324474 117.228501 
L 469.771579 123.360109 
L 481.218684 130.890296 
L 492.665789 136.329709 
L 504.112895 142.301042 
L 515.56 148.000688 
L 515.56 132.21794 
L 515.56 132.21794 
L 504.112895 125.998167 
L 492.665789 121.219383 
L 481.218684 116.74997 
L 469.771579 111.114893 
L 458.324474 106.834289 
L 446.877368 101.514533 
L 435.430263 95.042319 
L 423.983158 89.67621 
L 412.536053 83.151247 
L 401.088947 76.088665 
L 389.641842 69.658538 
L 378.194737 62.53061 
L 366.747632 56.131694 
L 355.300526 50.136094 
L 343.853421 45.014526 
L 332.406316 40.499994 
L 320.959211 37.007052 
L 309.512105 34.410761 
L 298.065 33.669378 
z
" clip-path="url(#p5b4c8990c2)" style="fill: #9467bd; fill-opacity: 0.4"/>
   </g>
   <g id="PolyCollection_14">
    <path d="M 298.065 33.688979 
L 298.065 34.449733 
L 309.512105 35.181007 
L 320.959211 38.209524 
L 332.406316 42.479289 
L 343.853421 47.945253 
L 355.300526 54.678148 
L 366.747632 61.973982 
L 378.194737 69.50108 
L 389.641842 76.641571 
L 401.088947 83.581702 
L 412.536053 90.399254 
L 423.983158 97.577136 
L 435.430263 103.943004 
L 446.877368 110.761391 
L 458.324474 117.450732 
L 469.771579 123.588145 
L 481.218684 131.133785 
L 492.665789 136.582423 
L 504.112895 142.571231 
L 515.56 148.272491 
L 515.56 132.783736 
L 515.56 132.783736 
L 504.112895 126.577688 
L 492.665789 121.801345 
L 481.218684 117.293709 
L 469.771579 111.540012 
L 458.324474 107.184811 
L 446.877368 101.804283 
L 435.430263 95.303557 
L 423.983158 89.868152 
L 412.536053 83.321754 
L 401.088947 76.202303 
L 389.641842 69.755089 
L 378.194737 62.601817 
L 366.747632 56.18172 
L 355.300526 50.175976 
L 343.853421 45.047237 
L 332.406316 40.524629 
L 320.959211 37.022812 
L 309.512105 34.431479 
L 298.065 33.688979 
z
" clip-path="url(#p5b4c8990c2)" style="fill: #8c564b; fill-opacity: 0.4"/>
   </g>
   <g id="PolyCollection_15">
    <path d="M 298.065 47.148428 
L 298.065 50.135761 
L 309.512105 50.84848 
L 320.959211 53.416331 
L 332.406316 57.218048 
L 343.853421 61.94927 
L 355.300526 68.007861 
L 366.747632 74.472103 
L 378.194737 81.323997 
L 389.641842 87.755345 
L 401.088947 93.774946 
L 412.536053 100.477712 
L 423.983158 106.879027 
L 435.430263 112.535157 
L 446.877368 119.138398 
L 458.324474 125.224986 
L 469.771579 130.722668 
L 481.218684 137.378971 
L 492.665789 142.279471 
L 504.112895 147.861533 
L 515.56 153.245562 
L 515.56 137.288284 
L 515.56 137.288284 
L 504.112895 132.933839 
L 492.665789 128.52434 
L 481.218684 124.092957 
L 469.771579 119.554179 
L 458.324474 114.645161 
L 446.877368 110.04534 
L 435.430263 104.570506 
L 423.983158 99.087159 
L 412.536053 93.536258 
L 401.088947 87.008471 
L 389.641842 80.96059 
L 378.194737 74.549116 
L 366.747632 68.771613 
L 355.300526 63.053153 
L 343.853421 58.180048 
L 332.406316 53.818796 
L 320.959211 50.310444 
L 309.512105 47.830252 
L 298.065 47.148428 
z
" clip-path="url(#p5b4c8990c2)" style="fill: #e377c2; fill-opacity: 0.4"/>
   </g>
   <g id="PolyCollection_16">
    <path d="M 298.065 33.689085 
L 298.065 34.450167 
L 309.512105 35.182095 
L 320.959211 38.170027 
L 332.406316 42.448554 
L 343.853421 47.920602 
L 355.300526 54.57609 
L 366.747632 61.817902 
L 378.194737 69.123897 
L 389.641842 76.260662 
L 401.088947 82.807227 
L 412.536053 90.207628 
L 423.983158 97.082156 
L 435.430263 103.454424 
L 446.877368 110.461608 
L 458.324474 117.115076 
L 469.771579 123.495065 
L 481.218684 130.265874 
L 492.665789 135.884198 
L 504.112895 142.055818 
L 515.56 147.774966 
L 515.56 131.305892 
L 515.56 131.305892 
L 504.112895 126.554123 
L 492.665789 121.730909 
L 481.218684 117.007168 
L 469.771579 111.938774 
L 458.324474 106.669675 
L 446.877368 101.687102 
L 435.430263 95.385988 
L 423.983158 89.494653 
L 412.536053 83.194085 
L 401.088947 76.130042 
L 389.641842 69.468784 
L 378.194737 62.545858 
L 366.747632 56.12212 
L 355.300526 50.111956 
L 343.853421 44.979918 
L 332.406316 40.510624 
L 320.959211 37.012068 
L 309.512105 34.413213 
L 298.065 33.689085 
z
" clip-path="url(#p5b4c8990c2)" style="fill: #7f7f7f; fill-opacity: 0.4"/>
   </g>
   <g id="matplotlib.axis_3">
    <g id="xtick_6">
     <g id="line2d_17">
      <g>
       <use xlink:href="#m9a1fedd64f" x="298.065" y="174.04" style="stroke: #000000; stroke-width: 0.8"/>
      </g>
     </g>
     <g id="text_12">
      <!-- 0.0 -->
      <g transform="translate(290.113437 188.638438)scale(0.1 -0.1)">
       <use xlink:href="#DejaVuSans-30"/>
       <use xlink:href="#DejaVuSans-2e" x="63.623047"/>
       <use xlink:href="#DejaVuSans-30" x="95.410156"/>
      </g>
     </g>
    </g>
    <g id="xtick_7">
     <g id="line2d_18">
      <g>
       <use xlink:href="#m9a1fedd64f" x="352.43875" y="174.04" style="stroke: #000000; stroke-width: 0.8"/>
      </g>
     </g>
     <g id="text_13">
      <!-- 0.5 -->
      <g transform="translate(344.487187 188.638438)scale(0.1 -0.1)">
       <use xlink:href="#DejaVuSans-30"/>
       <use xlink:href="#DejaVuSans-2e" x="63.623047"/>
       <use xlink:href="#DejaVuSans-35" x="95.410156"/>
      </g>
     </g>
    </g>
    <g id="xtick_8">
     <g id="line2d_19">
      <g>
       <use xlink:href="#m9a1fedd64f" x="406.8125" y="174.04" style="stroke: #000000; stroke-width: 0.8"/>
      </g>
     </g>
     <g id="text_14">
      <!-- 1.0 -->
      <g transform="translate(398.860937 188.638438)scale(0.1 -0.1)">
       <use xlink:href="#DejaVuSans-31"/>
       <use xlink:href="#DejaVuSans-2e" x="63.623047"/>
       <use xlink:href="#DejaVuSans-30" x="95.410156"/>
      </g>
     </g>
    </g>
    <g id="xtick_9">
     <g id="line2d_20">
      <g>
       <use xlink:href="#m9a1fedd64f" x="461.18625" y="174.04" style="stroke: #000000; stroke-width: 0.8"/>
      </g>
     </g>
     <g id="text_15">
      <!-- 1.5 -->
      <g transform="translate(453.234687 188.638438)scale(0.1 -0.1)">
       <use xlink:href="#DejaVuSans-31"/>
       <use xlink:href="#DejaVuSans-2e" x="63.623047"/>
       <use xlink:href="#DejaVuSans-35" x="95.410156"/>
      </g>
     </g>
    </g>
    <g id="xtick_10">
     <g id="line2d_21">
      <g>
       <use xlink:href="#m9a1fedd64f" x="515.56" y="174.04" style="stroke: #000000; stroke-width: 0.8"/>
      </g>
     </g>
     <g id="text_16">
      <!-- 2.0 -->
      <g transform="translate(507.608437 188.638438)scale(0.1 -0.1)">
       <use xlink:href="#DejaVuSans-32"/>
       <use xlink:href="#DejaVuSans-2e" x="63.623047"/>
       <use xlink:href="#DejaVuSans-30" x="95.410156"/>
      </g>
     </g>
    </g>
    <g id="text_17">
     <!-- Influence of surprisal (multiplication) -->
     <g transform="translate(314.665625 202.316563)scale(0.1 -0.1)">
      <use xlink:href="#DejaVuSans-49"/>
      <use xlink:href="#DejaVuSans-6e" x="29.492188"/>
      <use xlink:href="#DejaVuSans-66" x="92.871094"/>
      <use xlink:href="#DejaVuSans-6c" x="128.076172"/>
      <use xlink:href="#DejaVuSans-75" x="155.859375"/>
      <use xlink:href="#DejaVuSans-65" x="219.238281"/>
      <use xlink:href="#DejaVuSans-6e" x="280.761719"/>
      <use xlink:href="#DejaVuSans-63" x="344.140625"/>
      <use xlink:href="#DejaVuSans-65" x="399.121094"/>
      <use xlink:href="#DejaVuSans-20" x="460.644531"/>
      <use xlink:href="#DejaVuSans-6f" x="492.431641"/>
      <use xlink:href="#DejaVuSans-66" x="553.613281"/>
      <use xlink:href="#DejaVuSans-20" x="588.818359"/>
      <use xlink:href="#DejaVuSans-73" x="620.605469"/>
      <use xlink:href="#DejaVuSans-75" x="672.705078"/>
      <use xlink:href="#DejaVuSans-72" x="736.083984"/>
      <use xlink:href="#DejaVuSans-70" x="777.197266"/>
      <use xlink:href="#DejaVuSans-72" x="840.673828"/>
      <use xlink:href="#DejaVuSans-69" x="881.787109"/>
      <use xlink:href="#DejaVuSans-73" x="909.570312"/>
      <use xlink:href="#DejaVuSans-61" x="961.669922"/>
      <use xlink:href="#DejaVuSans-6c" x="1022.949219"/>
      <use xlink:href="#DejaVuSans-20" x="1050.732422"/>
      <use xlink:href="#DejaVuSans-28" x="1082.519531"/>
      <use xlink:href="#DejaVuSans-6d" x="1121.533203"/>
      <use xlink:href="#DejaVuSans-75" x="1218.945312"/>
      <use xlink:href="#DejaVuSans-6c" x="1282.324219"/>
      <use xlink:href="#DejaVuSans-74" x="1310.107422"/>
      <use xlink:href="#DejaVuSans-69" x="1349.316406"/>
      <use xlink:href="#DejaVuSans-70" x="1377.099609"/>
      <use xlink:href="#DejaVuSans-6c" x="1440.576172"/>
      <use xlink:href="#DejaVuSans-69" x="1468.359375"/>
      <use xlink:href="#DejaVuSans-63" x="1496.142578"/>
      <use xlink:href="#DejaVuSans-61" x="1551.123047"/>
      <use xlink:href="#DejaVuSans-74" x="1612.402344"/>
      <use xlink:href="#DejaVuSans-69" x="1651.611328"/>
      <use xlink:href="#DejaVuSans-6f" x="1679.394531"/>
      <use xlink:href="#DejaVuSans-6e" x="1740.576172"/>
      <use xlink:href="#DejaVuSans-29" x="1803.955078"/>
     </g>
    </g>
   </g>
   <g id="line2d_22">
    <path d="M 298.065 34.036164 
L 309.512105 34.753681 
L 320.959211 37.579252 
L 332.406316 41.46873 
L 343.853421 46.445409 
L 355.300526 52.363962 
L 366.747632 58.998952 
L 378.194737 65.855157 
L 389.641842 72.855156 
L 401.088947 79.466171 
L 412.536053 86.627975 
L 423.983158 93.190577 
L 435.430263 99.262754 
L 446.877368 105.827542 
L 458.324474 111.583085 
L 469.771579 117.354921 
L 481.218684 123.16283 
L 492.665789 128.332286 
L 504.112895 133.717539 
L 515.56 138.929039 
" clip-path="url(#p5b4c8990c2)" style="fill: none; stroke: #1f77b4; stroke-width: 1.5; stroke-linecap: square"/>
   </g>
   <g id="line2d_23">
    <path d="M 298.065 34.055886 
L 309.512105 34.781867 
L 320.959211 37.596736 
L 332.406316 41.485316 
L 343.853421 46.46571 
L 355.300526 52.381697 
L 366.747632 59.028553 
L 378.194737 65.896862 
L 389.641842 72.915779 
L 401.088947 79.548588 
L 412.536053 86.756322 
L 423.983158 93.337789 
L 435.430263 99.450698 
L 446.877368 106.060095 
L 458.324474 111.863025 
L 469.771579 117.671267 
L 481.218684 123.561036 
L 492.665789 128.744498 
L 504.112895 134.137626 
L 515.56 139.373647 
" clip-path="url(#p5b4c8990c2)" style="fill: none; stroke: #ff7f0e; stroke-width: 1.5; stroke-linecap: square"/>
   </g>
   <g id="line2d_24">
    <path d="M 298.065 34.058279 
L 309.512105 34.769171 
L 320.959211 37.595558 
L 332.406316 41.470476 
L 343.853421 46.443966 
L 355.300526 52.375854 
L 366.747632 58.99289 
L 378.194737 65.870194 
L 389.641842 72.899463 
L 401.088947 79.479392 
L 412.536053 86.681332 
L 423.983158 93.261342 
L 435.430263 99.369092 
L 446.877368 105.99747 
L 458.324474 111.807726 
L 469.771579 117.620111 
L 481.218684 123.5381 
L 492.665789 128.755904 
L 504.112895 134.214236 
L 515.56 139.527596 
" clip-path="url(#p5b4c8990c2)" style="fill: none; stroke: #2ca02c; stroke-width: 1.5; stroke-linecap: square"/>
   </g>
   <g id="line2d_25">
    <path d="M 298.065 34.075024 
L 309.512105 34.798385 
L 320.959211 37.6069 
L 332.406316 41.49512 
L 343.853421 46.474045 
L 355.300526 52.396545 
L 366.747632 59.033178 
L 378.194737 65.937434 
L 389.641842 72.969101 
L 401.088947 79.577868 
L 412.536053 86.835885 
L 423.983158 93.434649 
L 435.430263 99.571516 
L 446.877368 106.221655 
L 458.324474 112.094576 
L 469.771579 117.947522 
L 481.218684 123.939261 
L 492.665789 129.170189 
L 504.112895 134.64115 
L 515.56 139.981749 
" clip-path="url(#p5b4c8990c2)" style="fill: none; stroke: #d62728; stroke-width: 1.5; stroke-linecap: square"/>
   </g>
   <g id="line2d_26">
    <path d="M 298.065 34.048518 
L 309.512105 34.777186 
L 320.959211 37.5977 
L 332.406316 41.484806 
L 343.853421 46.474671 
L 355.300526 52.408597 
L 366.747632 59.049683 
L 378.194737 66.007678 
L 389.641842 73.128637 
L 401.088947 79.81277 
L 412.536053 86.732608 
L 423.983158 93.580739 
L 435.430263 99.452574 
L 446.877368 106.05293 
L 458.324474 112.031395 
L 469.771579 117.237501 
L 481.218684 123.820133 
L 492.665789 128.774546 
L 504.112895 134.149605 
L 515.56 140.109314 
" clip-path="url(#p5b4c8990c2)" style="fill: none; stroke: #9467bd; stroke-width: 1.5; stroke-linecap: square"/>
   </g>
   <g id="line2d_27">
    <path d="M 298.065 34.069356 
L 309.512105 34.806243 
L 320.959211 37.616168 
L 332.406316 41.501959 
L 343.853421 46.496245 
L 355.300526 52.427062 
L 366.747632 59.077851 
L 378.194737 66.051448 
L 389.641842 73.19833 
L 401.088947 79.892002 
L 412.536053 86.860504 
L 423.983158 93.722644 
L 435.430263 99.623281 
L 446.877368 106.282837 
L 458.324474 112.317772 
L 469.771579 117.564079 
L 481.218684 124.213747 
L 492.665789 129.191884 
L 504.112895 134.574459 
L 515.56 140.528114 
" clip-path="url(#p5b4c8990c2)" style="fill: none; stroke: #8c564b; stroke-width: 1.5; stroke-linecap: square"/>
   </g>
   <g id="line2d_28">
    <path d="M 298.065 48.642094 
L 309.512105 49.339366 
L 320.959211 51.863387 
L 332.406316 55.518422 
L 343.853421 60.064659 
L 355.300526 65.530507 
L 366.747632 71.621858 
L 378.194737 77.936556 
L 389.641842 84.357967 
L 401.088947 90.391708 
L 412.536053 97.006985 
L 423.983158 102.983093 
L 435.430263 108.552831 
L 446.877368 114.591869 
L 458.324474 119.935074 
L 469.771579 125.138423 
L 481.218684 130.735964 
L 492.665789 135.401905 
L 504.112895 140.397686 
L 515.56 145.266923 
" clip-path="url(#p5b4c8990c2)" style="fill: none; stroke: #e377c2; stroke-width: 1.5; stroke-linecap: square"/>
   </g>
   <g id="line2d_29">
    <path d="M 298.065 34.069626 
L 309.512105 34.797654 
L 320.959211 37.591047 
L 332.406316 41.479589 
L 343.853421 46.45026 
L 355.300526 52.344023 
L 366.747632 58.970011 
L 378.194737 65.834877 
L 389.641842 72.864723 
L 401.088947 79.468634 
L 412.536053 86.700856 
L 423.983158 93.288405 
L 435.430263 99.420206 
L 446.877368 106.074355 
L 458.324474 111.892376 
L 469.771579 117.716919 
L 481.218684 123.636521 
L 492.665789 128.807553 
L 504.112895 134.30497 
L 515.56 139.540429 
" clip-path="url(#p5b4c8990c2)" style="fill: none; stroke: #7f7f7f; stroke-width: 1.5; stroke-linecap: square"/>
   </g>
   <g id="patch_6">
    <path d="M 298.065 174.04 
L 298.065 26.88 
" style="fill: none; stroke: #000000; stroke-width: 0.8; stroke-linejoin: miter; stroke-linecap: square"/>
   </g>
   <g id="patch_7">
    <path d="M 298.065 174.04 
L 515.56 174.04 
" style="fill: none; stroke: #000000; stroke-width: 0.8; stroke-linejoin: miter; stroke-linecap: square"/>
   </g>
   <g id="text_18">
    <!-- Node * third variable -->
    <g transform="translate(344.2325 20.88)scale(0.12 -0.12)">
     <defs>
      <path id="DejaVuSans-68" d="M 3513 2113 
L 3513 0 
L 2938 0 
L 2938 2094 
Q 2938 2591 2744 2837 
Q 2550 3084 2163 3084 
Q 1697 3084 1428 2787 
Q 1159 2491 1159 1978 
L 1159 0 
L 581 0 
L 581 4863 
L 1159 4863 
L 1159 2956 
Q 1366 3272 1645 3428 
Q 1925 3584 2291 3584 
Q 2894 3584 3203 3211 
Q 3513 2838 3513 2113 
z
" transform="scale(0.015625)"/>
      <path id="DejaVuSans-62" d="M 3116 1747 
Q 3116 2381 2855 2742 
Q 2594 3103 2138 3103 
Q 1681 3103 1420 2742 
Q 1159 2381 1159 1747 
Q 1159 1113 1420 752 
Q 1681 391 2138 391 
Q 2594 391 2855 752 
Q 3116 1113 3116 1747 
z
M 1159 2969 
Q 1341 3281 1617 3432 
Q 1894 3584 2278 3584 
Q 2916 3584 3314 3078 
Q 3713 2572 3713 1747 
Q 3713 922 3314 415 
Q 2916 -91 2278 -91 
Q 1894 -91 1617 61 
Q 1341 213 1159 525 
L 1159 0 
L 581 0 
L 581 4863 
L 1159 4863 
L 1159 2969 
z
" transform="scale(0.015625)"/>
     </defs>
     <use xlink:href="#DejaVuSans-4e"/>
     <use xlink:href="#DejaVuSans-6f" x="74.804688"/>
     <use xlink:href="#DejaVuSans-64" x="135.986328"/>
     <use xlink:href="#DejaVuSans-65" x="199.462891"/>
     <use xlink:href="#DejaVuSans-20" x="260.986328"/>
     <use xlink:href="#DejaVuSans-2a" x="292.773438"/>
     <use xlink:href="#DejaVuSans-20" x="342.773438"/>
     <use xlink:href="#DejaVuSans-74" x="374.560547"/>
     <use xlink:href="#DejaVuSans-68" x="413.769531"/>
     <use xlink:href="#DejaVuSans-69" x="477.148438"/>
     <use xlink:href="#DejaVuSans-72" x="504.931641"/>
     <use xlink:href="#DejaVuSans-64" x="544.294922"/>
     <use xlink:href="#DejaVuSans-20" x="607.771484"/>
     <use xlink:href="#DejaVuSans-76" x="639.558594"/>
     <use xlink:href="#DejaVuSans-61" x="698.738281"/>
     <use xlink:href="#DejaVuSans-72" x="760.017578"/>
     <use xlink:href="#DejaVuSans-69" x="801.130859"/>
     <use xlink:href="#DejaVuSans-61" x="828.914062"/>
     <use xlink:href="#DejaVuSans-62" x="890.193359"/>
     <use xlink:href="#DejaVuSans-6c" x="953.669922"/>
     <use xlink:href="#DejaVuSans-65" x="981.453125"/>
    </g>
   </g>
   <g id="legend_1">
    <g id="line2d_30">
     <path d="M 524.56 39.978437 
L 534.56 39.978437 
L 544.56 39.978437 
" style="fill: none; stroke: #1f77b4; stroke-width: 1.5; stroke-linecap: square"/>
    </g>
    <g id="text_19">
     <!-- Node -->
     <g transform="translate(552.56 43.478437)scale(0.1 -0.1)">
      <use xlink:href="#DejaVuSans-4e"/>
      <use xlink:href="#DejaVuSans-6f" x="74.804688"/>
      <use xlink:href="#DejaVuSans-64" x="135.986328"/>
      <use xlink:href="#DejaVuSans-65" x="199.462891"/>
     </g>
    </g>
    <g id="line2d_31">
     <path d="M 524.56 54.656563 
L 534.56 54.656563 
L 544.56 54.656563 
" style="fill: none; stroke: #ff7f0e; stroke-width: 1.5; stroke-linecap: square"/>
    </g>
    <g id="text_20">
     <!-- Node + surprisal -->
     <g transform="translate(552.56 58.156563)scale(0.1 -0.1)">
      <defs>
       <path id="DejaVuSans-2b" d="M 2944 4013 
L 2944 2272 
L 4684 2272 
L 4684 1741 
L 2944 1741 
L 2944 0 
L 2419 0 
L 2419 1741 
L 678 1741 
L 678 2272 
L 2419 2272 
L 2419 4013 
L 2944 4013 
z
" transform="scale(0.015625)"/>
      </defs>
      <use xlink:href="#DejaVuSans-4e"/>
      <use xlink:href="#DejaVuSans-6f" x="74.804688"/>
      <use xlink:href="#DejaVuSans-64" x="135.986328"/>
      <use xlink:href="#DejaVuSans-65" x="199.462891"/>
      <use xlink:href="#DejaVuSans-20" x="260.986328"/>
      <use xlink:href="#DejaVuSans-2b" x="292.773438"/>
      <use xlink:href="#DejaVuSans-20" x="376.5625"/>
      <use xlink:href="#DejaVuSans-73" x="408.349609"/>
      <use xlink:href="#DejaVuSans-75" x="460.449219"/>
      <use xlink:href="#DejaVuSans-72" x="523.828125"/>
      <use xlink:href="#DejaVuSans-70" x="564.941406"/>
      <use xlink:href="#DejaVuSans-72" x="628.417969"/>
      <use xlink:href="#DejaVuSans-69" x="669.53125"/>
      <use xlink:href="#DejaVuSans-73" x="697.314453"/>
      <use xlink:href="#DejaVuSans-61" x="749.414062"/>
      <use xlink:href="#DejaVuSans-6c" x="810.693359"/>
     </g>
    </g>
    <g id="line2d_32">
     <path d="M 524.56 69.334687 
L 534.56 69.334687 
L 544.56 69.334687 
" style="fill: none; stroke: #2ca02c; stroke-width: 1.5; stroke-linecap: square"/>
    </g>
    <g id="text_21">
     <!-- Node split -->
     <g transform="translate(552.56 72.834687)scale(0.1 -0.1)">
      <use xlink:href="#DejaVuSans-4e"/>
      <use xlink:href="#DejaVuSans-6f" x="74.804688"/>
      <use xlink:href="#DejaVuSans-64" x="135.986328"/>
      <use xlink:href="#DejaVuSans-65" x="199.462891"/>
      <use xlink:href="#DejaVuSans-20" x="260.986328"/>
      <use xlink:href="#DejaVuSans-73" x="292.773438"/>
      <use xlink:href="#DejaVuSans-70" x="344.873047"/>
      <use xlink:href="#DejaVuSans-6c" x="408.349609"/>
      <use xlink:href="#DejaVuSans-69" x="436.132812"/>
      <use xlink:href="#DejaVuSans-74" x="463.916016"/>
     </g>
    </g>
    <g id="line2d_33">
     <path d="M 524.56 84.012812 
L 534.56 84.012812 
L 544.56 84.012812 
" style="fill: none; stroke: #d62728; stroke-width: 1.5; stroke-linecap: square"/>
    </g>
    <g id="text_22">
     <!-- Node split + surprisal -->
     <g transform="translate(552.56 87.512812)scale(0.1 -0.1)">
      <use xlink:href="#DejaVuSans-4e"/>
      <use xlink:href="#DejaVuSans-6f" x="74.804688"/>
      <use xlink:href="#DejaVuSans-64" x="135.986328"/>
      <use xlink:href="#DejaVuSans-65" x="199.462891"/>
      <use xlink:href="#DejaVuSans-20" x="260.986328"/>
      <use xlink:href="#DejaVuSans-73" x="292.773438"/>
      <use xlink:href="#DejaVuSans-70" x="344.873047"/>
      <use xlink:href="#DejaVuSans-6c" x="408.349609"/>
      <use xlink:href="#DejaVuSans-69" x="436.132812"/>
      <use xlink:href="#DejaVuSans-74" x="463.916016"/>
      <use xlink:href="#DejaVuSans-20" x="503.125"/>
      <use xlink:href="#DejaVuSans-2b" x="534.912109"/>
      <use xlink:href="#DejaVuSans-20" x="618.701172"/>
      <use xlink:href="#DejaVuSans-73" x="650.488281"/>
      <use xlink:href="#DejaVuSans-75" x="702.587891"/>
      <use xlink:href="#DejaVuSans-72" x="765.966797"/>
      <use xlink:href="#DejaVuSans-70" x="807.080078"/>
      <use xlink:href="#DejaVuSans-72" x="870.556641"/>
      <use xlink:href="#DejaVuSans-69" x="911.669922"/>
      <use xlink:href="#DejaVuSans-73" x="939.453125"/>
      <use xlink:href="#DejaVuSans-61" x="991.552734"/>
      <use xlink:href="#DejaVuSans-6c" x="1052.832031"/>
     </g>
    </g>
    <g id="line2d_34">
     <path d="M 524.56 98.690937 
L 534.56 98.690937 
L 544.56 98.690937 
" style="fill: none; stroke: #9467bd; stroke-width: 1.5; stroke-linecap: square"/>
    </g>
    <g id="text_23">
     <!-- Node random split -->
     <g transform="translate(552.56 102.190937)scale(0.1 -0.1)">
      <use xlink:href="#DejaVuSans-4e"/>
      <use xlink:href="#DejaVuSans-6f" x="74.804688"/>
      <use xlink:href="#DejaVuSans-64" x="135.986328"/>
      <use xlink:href="#DejaVuSans-65" x="199.462891"/>
      <use xlink:href="#DejaVuSans-20" x="260.986328"/>
      <use xlink:href="#DejaVuSans-72" x="292.773438"/>
      <use xlink:href="#DejaVuSans-61" x="333.886719"/>
      <use xlink:href="#DejaVuSans-6e" x="395.166016"/>
      <use xlink:href="#DejaVuSans-64" x="458.544922"/>
      <use xlink:href="#DejaVuSans-6f" x="522.021484"/>
      <use xlink:href="#DejaVuSans-6d" x="583.203125"/>
      <use xlink:href="#DejaVuSans-20" x="680.615234"/>
      <use xlink:href="#DejaVuSans-73" x="712.402344"/>
      <use xlink:href="#DejaVuSans-70" x="764.501953"/>
      <use xlink:href="#DejaVuSans-6c" x="827.978516"/>
      <use xlink:href="#DejaVuSans-69" x="855.761719"/>
      <use xlink:href="#DejaVuSans-74" x="883.544922"/>
     </g>
    </g>
    <g id="line2d_35">
     <path d="M 524.56 113.369062 
L 534.56 113.369062 
L 544.56 113.369062 
" style="fill: none; stroke: #8c564b; stroke-width: 1.5; stroke-linecap: square"/>
    </g>
    <g id="text_24">
     <!-- Node random split + surprisal -->
     <g transform="translate(552.56 116.869062)scale(0.1 -0.1)">
      <use xlink:href="#DejaVuSans-4e"/>
      <use xlink:href="#DejaVuSans-6f" x="74.804688"/>
      <use xlink:href="#DejaVuSans-64" x="135.986328"/>
      <use xlink:href="#DejaVuSans-65" x="199.462891"/>
      <use xlink:href="#DejaVuSans-20" x="260.986328"/>
      <use xlink:href="#DejaVuSans-72" x="292.773438"/>
      <use xlink:href="#DejaVuSans-61" x="333.886719"/>
      <use xlink:href="#DejaVuSans-6e" x="395.166016"/>
      <use xlink:href="#DejaVuSans-64" x="458.544922"/>
      <use xlink:href="#DejaVuSans-6f" x="522.021484"/>
      <use xlink:href="#DejaVuSans-6d" x="583.203125"/>
      <use xlink:href="#DejaVuSans-20" x="680.615234"/>
      <use xlink:href="#DejaVuSans-73" x="712.402344"/>
      <use xlink:href="#DejaVuSans-70" x="764.501953"/>
      <use xlink:href="#DejaVuSans-6c" x="827.978516"/>
      <use xlink:href="#DejaVuSans-69" x="855.761719"/>
      <use xlink:href="#DejaVuSans-74" x="883.544922"/>
      <use xlink:href="#DejaVuSans-20" x="922.753906"/>
      <use xlink:href="#DejaVuSans-2b" x="954.541016"/>
      <use xlink:href="#DejaVuSans-20" x="1038.330078"/>
      <use xlink:href="#DejaVuSans-73" x="1070.117188"/>
      <use xlink:href="#DejaVuSans-75" x="1122.216797"/>
      <use xlink:href="#DejaVuSans-72" x="1185.595703"/>
      <use xlink:href="#DejaVuSans-70" x="1226.708984"/>
      <use xlink:href="#DejaVuSans-72" x="1290.185547"/>
      <use xlink:href="#DejaVuSans-69" x="1331.298828"/>
      <use xlink:href="#DejaVuSans-73" x="1359.082031"/>
      <use xlink:href="#DejaVuSans-61" x="1411.181641"/>
      <use xlink:href="#DejaVuSans-6c" x="1472.460938"/>
     </g>
    </g>
    <g id="line2d_36">
     <path d="M 524.56 128.047187 
L 534.56 128.047187 
L 544.56 128.047187 
" style="fill: none; stroke: #e377c2; stroke-width: 1.5; stroke-linecap: square"/>
    </g>
    <g id="text_25">
     <!-- Interaction -->
     <g transform="translate(552.56 131.547187)scale(0.1 -0.1)">
      <use xlink:href="#DejaVuSans-49"/>
      <use xlink:href="#DejaVuSans-6e" x="29.492188"/>
      <use xlink:href="#DejaVuSans-74" x="92.871094"/>
      <use xlink:href="#DejaVuSans-65" x="132.080078"/>
      <use xlink:href="#DejaVuSans-72" x="193.603516"/>
      <use xlink:href="#DejaVuSans-61" x="234.716797"/>
      <use xlink:href="#DejaVuSans-63" x="295.996094"/>
      <use xlink:href="#DejaVuSans-74" x="350.976562"/>
      <use xlink:href="#DejaVuSans-69" x="390.185547"/>
      <use xlink:href="#DejaVuSans-6f" x="417.96875"/>
      <use xlink:href="#DejaVuSans-6e" x="479.150391"/>
     </g>
    </g>
    <g id="line2d_37">
     <path d="M 524.56 142.725312 
L 534.56 142.725312 
L 544.56 142.725312 
" style="fill: none; stroke: #7f7f7f; stroke-width: 1.5; stroke-linecap: square"/>
    </g>
    <g id="text_26">
     <!-- Node + surprisal + interaction -->
     <g transform="translate(552.56 146.225312)scale(0.1 -0.1)">
      <use xlink:href="#DejaVuSans-4e"/>
      <use xlink:href="#DejaVuSans-6f" x="74.804688"/>
      <use xlink:href="#DejaVuSans-64" x="135.986328"/>
      <use xlink:href="#DejaVuSans-65" x="199.462891"/>
      <use xlink:href="#DejaVuSans-20" x="260.986328"/>
      <use xlink:href="#DejaVuSans-2b" x="292.773438"/>
      <use xlink:href="#DejaVuSans-20" x="376.5625"/>
      <use xlink:href="#DejaVuSans-73" x="408.349609"/>
      <use xlink:href="#DejaVuSans-75" x="460.449219"/>
      <use xlink:href="#DejaVuSans-72" x="523.828125"/>
      <use xlink:href="#DejaVuSans-70" x="564.941406"/>
      <use xlink:href="#DejaVuSans-72" x="628.417969"/>
      <use xlink:href="#DejaVuSans-69" x="669.53125"/>
      <use xlink:href="#DejaVuSans-73" x="697.314453"/>
      <use xlink:href="#DejaVuSans-61" x="749.414062"/>
      <use xlink:href="#DejaVuSans-6c" x="810.693359"/>
      <use xlink:href="#DejaVuSans-20" x="838.476562"/>
      <use xlink:href="#DejaVuSans-2b" x="870.263672"/>
      <use xlink:href="#DejaVuSans-20" x="954.052734"/>
      <use xlink:href="#DejaVuSans-69" x="985.839844"/>
      <use xlink:href="#DejaVuSans-6e" x="1013.623047"/>
      <use xlink:href="#DejaVuSans-74" x="1077.001953"/>
      <use xlink:href="#DejaVuSans-65" x="1116.210938"/>
      <use xlink:href="#DejaVuSans-72" x="1177.734375"/>
      <use xlink:href="#DejaVuSans-61" x="1218.847656"/>
      <use xlink:href="#DejaVuSans-63" x="1280.126953"/>
      <use xlink:href="#DejaVuSans-74" x="1335.107422"/>
      <use xlink:href="#DejaVuSans-69" x="1374.316406"/>
      <use xlink:href="#DejaVuSans-6f" x="1402.099609"/>
      <use xlink:href="#DejaVuSans-6e" x="1463.28125"/>
     </g>
    </g>
   </g>
  </g>
 </g>
 <defs>
  <clipPath id="p02c5985b44">
   <rect x="47.72" y="26.88" width="217.495" height="147.16"/>
  </clipPath>
  <clipPath id="p5b4c8990c2">
   <rect x="298.065" y="26.88" width="217.495" height="147.16"/>
  </clipPath>
 </defs>
</svg>
