<?xml version="1.0" encoding="utf-8" standalone="no"?>
<!DOCTYPE svg PUBLIC "-//W3C//DTD SVG 1.1//EN"
  "http://www.w3.org/Graphics/SVG/1.1/DTD/svg11.dtd">
<svg xmlns:xlink="http://www.w3.org/1999/xlink" width="720pt" height="216pt" viewBox="0 0 720 216" xmlns="http://www.w3.org/2000/svg" version="1.1">
 <metadata>
  <rdf:RDF xmlns:dc="http://purl.org/dc/elements/1.1/" xmlns:cc="http://creativecommons.org/ns#" xmlns:rdf="http://www.w3.org/1999/02/22-rdf-syntax-ns#">
   <cc:Work>
    <dc:type rdf:resource="http://purl.org/dc/dcmitype/StillImage"/>
    <dc:date>2024-01-15T23:22:50.146626</dc:date>
    <dc:format>image/svg+xml</dc:format>
    <dc:creator>
     <cc:Agent>
      <dc:title>Matplotlib v3.5.1, https://matplotlib.org/</dc:title>
     </cc:Agent>
    </dc:creator>
   </cc:Work>
  </rdf:RDF>
 </metadata>
 <defs>
  <style type="text/css">*{stroke-linejoin: round; stroke-linecap: butt}</style>
 </defs>
 <g id="figure_1">
  <g id="patch_1">
   <path d="M 0 216 
L 720 216 
L 720 0 
L 0 0 
z
" style="fill: #ffffff"/>
  </g>
  <g id="axes_1">
   <g id="patch_2">
    <path d="M 47.72 174.04 
L 265.215 174.04 
L 265.215 26.88 
L 47.72 26.88 
z
" style="fill: #ffffff"/>
   </g>
   <g id="PolyCollection_1">
    <path d="M 47.72 33.621586 
L 47.72 34.273909 
L 59.167105 35.580602 
L 70.614211 38.925259 
L 82.061316 43.56888 
L 93.508421 49.500515 
L 104.955526 56.03009 
L 116.402632 63.124025 
L 127.849737 70.981425 
L 139.296842 78.273367 
L 150.743947 86.261843 
L 162.191053 93.308565 
L 173.638158 100.691149 
L 185.085263 107.751817 
L 196.532368 115.063656 
L 207.979474 122.047331 
L 219.426579 128.549667 
L 230.873684 135.372202 
L 242.320789 140.885699 
L 253.767895 147.557543 
L 265.215 152.417313 
L 265.215 139.101112 
L 265.215 139.101112 
L 253.767895 133.89633 
L 242.320789 127.598495 
L 230.873684 121.856434 
L 219.426579 115.639323 
L 207.979474 108.505876 
L 196.532368 101.886055 
L 185.085263 95.28684 
L 173.638158 87.601944 
L 162.191053 80.486279 
L 150.743947 73.414495 
L 139.296842 66.893154 
L 127.849737 59.968427 
L 116.402632 54.042856 
L 104.955526 48.422245 
L 93.508421 43.82589 
L 82.061316 39.534515 
L 70.614211 36.570442 
L 59.167105 34.224038 
L 47.72 33.621586 
z
" clip-path="url(#p0711a0cc50)" style="fill: #1f77b4; fill-opacity: 0.4"/>
   </g>
   <g id="PolyCollection_2">
    <path d="M 47.72 33.650457 
L 47.72 34.290682 
L 59.167105 35.241163 
L 70.614211 37.098457 
L 82.061316 39.907673 
L 93.508421 43.864906 
L 104.955526 48.419294 
L 116.402632 53.888171 
L 127.849737 59.82129 
L 139.296842 66.052967 
L 150.743947 73.288962 
L 162.191053 79.885411 
L 173.638158 86.879246 
L 185.085263 93.383167 
L 196.532368 100.134556 
L 207.979474 106.56045 
L 219.426579 112.618547 
L 230.873684 119.021558 
L 242.320789 124.215427 
L 253.767895 130.78026 
L 265.215 135.53847 
L 265.215 120.491755 
L 265.215 120.491755 
L 253.767895 115.083178 
L 242.320789 108.951891 
L 230.873684 103.378017 
L 219.426579 97.780701 
L 207.979474 91.208134 
L 196.532368 85.059395 
L 185.085263 79.468474 
L 173.638158 72.816262 
L 162.191053 67.029335 
L 150.743947 61.249812 
L 139.296842 56.142846 
L 127.849737 50.937746 
L 116.402632 46.720195 
L 104.955526 42.781033 
L 93.508421 39.621557 
L 82.061316 37.027159 
L 70.614211 35.317628 
L 59.167105 33.966883 
L 47.72 33.650457 
z
" clip-path="url(#p0711a0cc50)" style="fill: #ff7f0e; fill-opacity: 0.4"/>
   </g>
   <g id="PolyCollection_3">
    <path d="M 47.72 33.635177 
L 47.72 34.276518 
L 59.167105 35.356256 
L 70.614211 37.009154 
L 82.061316 39.143005 
L 93.508421 42.067127 
L 104.955526 45.185389 
L 116.402632 48.597167 
L 127.849737 52.35857 
L 139.296842 55.823842 
L 150.743947 59.72532 
L 162.191053 63.259196 
L 173.638158 66.465053 
L 185.085263 70.055235 
L 196.532368 73.367006 
L 207.979474 76.864464 
L 219.426579 80.492943 
L 230.873684 84.345507 
L 242.320789 87.448204 
L 253.767895 91.701024 
L 265.215 95.147869 
L 265.215 87.123629 
L 265.215 87.123629 
L 253.767895 83.581425 
L 242.320789 79.746079 
L 230.873684 75.744777 
L 219.426579 72.319245 
L 207.979474 67.840612 
L 196.532368 64.441702 
L 185.085263 61.20906 
L 173.638158 57.39625 
L 162.191053 54.070194 
L 150.743947 50.95766 
L 139.296842 47.889229 
L 127.849737 44.917631 
L 116.402632 42.325721 
L 104.955526 40.043244 
L 93.508421 38.382877 
L 82.061316 36.573731 
L 70.614211 35.330389 
L 59.167105 34.103839 
L 47.72 33.635177 
z
" clip-path="url(#p0711a0cc50)" style="fill: #2ca02c; fill-opacity: 0.4"/>
   </g>
   <g id="PolyCollection_4">
    <path d="M 47.72 33.663564 
L 47.72 34.303034 
L 59.167105 35.203071 
L 70.614211 36.434533 
L 82.061316 38.091066 
L 93.508421 40.480549 
L 104.955526 43.133929 
L 116.402632 46.261251 
L 127.849737 49.671855 
L 139.296842 53.080999 
L 150.743947 57.222386 
L 162.191053 60.984004 
L 173.638158 64.458606 
L 185.085263 68.196211 
L 196.532368 71.711467 
L 207.979474 75.442045 
L 219.426579 79.241357 
L 230.873684 83.104497 
L 242.320789 86.280815 
L 253.767895 90.522653 
L 265.215 93.930732 
L 265.215 84.903859 
L 265.215 84.903859 
L 253.767895 81.363882 
L 242.320789 77.525404 
L 230.873684 73.68289 
L 219.426579 70.230918 
L 207.979474 65.922644 
L 196.532368 62.545972 
L 185.085263 59.292131 
L 173.638158 55.318299 
L 162.191053 51.960991 
L 150.743947 48.880939 
L 139.296842 45.980513 
L 127.849737 43.143655 
L 116.402632 40.831323 
L 104.955526 38.7259 
L 93.508421 37.228382 
L 82.061316 35.806031 
L 70.614211 34.877433 
L 59.167105 33.965917 
L 47.72 33.663564 
z
" clip-path="url(#p0711a0cc50)" style="fill: #d62728; fill-opacity: 0.4"/>
   </g>
   <g id="PolyCollection_5">
    <path d="M 47.72 33.637486 
L 47.72 34.288496 
L 59.167105 35.59783 
L 70.614211 38.948674 
L 82.061316 43.579558 
L 93.508421 49.447589 
L 104.955526 56.110076 
L 116.402632 63.237281 
L 127.849737 70.982282 
L 139.296842 78.455185 
L 150.743947 86.18257 
L 162.191053 93.414148 
L 173.638158 100.728246 
L 185.085263 107.611227 
L 196.532368 115.546144 
L 207.979474 122.722405 
L 219.426579 128.725276 
L 230.873684 135.687442 
L 242.320789 140.909085 
L 253.767895 148.313062 
L 265.215 153.136342 
L 265.215 139.475038 
L 265.215 139.475038 
L 253.767895 134.231558 
L 242.320789 127.376319 
L 230.873684 122.322734 
L 219.426579 116.591215 
L 207.979474 108.595658 
L 196.532368 102.347704 
L 185.085263 96.619642 
L 173.638158 87.690145 
L 162.191053 80.671287 
L 150.743947 73.402436 
L 139.296842 67.038305 
L 127.849737 60.025085 
L 116.402632 54.085202 
L 104.955526 48.420398 
L 93.508421 43.885399 
L 82.061316 39.536815 
L 70.614211 36.593624 
L 59.167105 34.248917 
L 47.72 33.637486 
z
" clip-path="url(#p0711a0cc50)" style="fill: #9467bd; fill-opacity: 0.4"/>
   </g>
   <g id="PolyCollection_6">
    <path d="M 47.72 33.667291 
L 47.72 34.305328 
L 59.167105 35.258065 
L 70.614211 37.110605 
L 82.061316 39.94216 
L 93.508421 43.89419 
L 104.955526 48.46704 
L 116.402632 53.95825 
L 127.849737 59.827399 
L 139.296842 66.12382 
L 150.743947 73.23929 
L 162.191053 79.911164 
L 173.638158 86.886008 
L 185.085263 93.428679 
L 196.532368 100.407776 
L 207.979474 107.029721 
L 219.426579 112.771269 
L 230.873684 119.150569 
L 242.320789 124.205562 
L 253.767895 131.280201 
L 265.215 135.847056 
L 265.215 120.647639 
L 265.215 120.647639 
L 253.767895 115.228943 
L 242.320789 108.894425 
L 230.873684 103.56465 
L 219.426579 98.585781 
L 207.979474 91.308974 
L 196.532368 85.435739 
L 185.085263 80.134744 
L 173.638158 72.792583 
L 162.191053 67.075649 
L 150.743947 61.356828 
L 139.296842 56.20438 
L 127.849737 50.917731 
L 116.402632 46.791186 
L 104.955526 42.810748 
L 93.508421 39.662856 
L 82.061316 37.030086 
L 70.614211 35.329977 
L 59.167105 33.992355 
L 47.72 33.667291 
z
" clip-path="url(#p0711a0cc50)" style="fill: #8c564b; fill-opacity: 0.4"/>
   </g>
   <g id="PolyCollection_7">
    <path d="M 47.72 45.837124 
L 47.72 51.25281 
L 59.167105 53.228954 
L 70.614211 57.862798 
L 82.061316 64.321439 
L 93.508421 71.542791 
L 104.955526 78.992655 
L 116.402632 86.704119 
L 127.849737 95.413852 
L 139.296842 103.230871 
L 150.743947 111.157206 
L 162.191053 117.925793 
L 173.638158 124.315376 
L 185.085263 130.466528 
L 196.532368 136.547044 
L 207.979474 142.075016 
L 219.426579 147.167134 
L 230.873684 152.68978 
L 242.320789 157.16696 
L 253.767895 162.68872 
L 265.215 167.350909 
L 265.215 151.322722 
L 265.215 151.322722 
L 253.767895 146.847454 
L 242.320789 141.185805 
L 230.873684 135.668901 
L 219.426579 130.099378 
L 207.979474 122.942063 
L 196.532368 116.783025 
L 185.085263 110.257098 
L 173.638158 102.756014 
L 162.191053 95.422833 
L 150.743947 88.435836 
L 139.296842 81.677314 
L 127.849737 74.694758 
L 116.402632 68.722598 
L 104.955526 62.805841 
L 93.508421 57.682 
L 82.061316 52.57174 
L 70.614211 49.147739 
L 59.167105 46.543439 
L 47.72 45.837124 
z
" clip-path="url(#p0711a0cc50)" style="fill: #e377c2; fill-opacity: 0.4"/>
   </g>
   <g id="PolyCollection_8">
    <path d="M 47.72 33.658216 
L 47.72 34.3056 
L 59.167105 34.862769 
L 70.614211 35.208123 
L 82.061316 36.417512 
L 93.508421 38.864262 
L 104.955526 41.950376 
L 116.402632 45.950577 
L 127.849737 50.608665 
L 139.296842 56.193127 
L 150.743947 63.242906 
L 162.191053 69.816852 
L 173.638158 76.392364 
L 185.085263 82.880959 
L 196.532368 88.726967 
L 207.979474 94.440752 
L 219.426579 100.168594 
L 230.873684 106.010653 
L 242.320789 111.336368 
L 253.767895 117.630719 
L 265.215 122.982885 
L 265.215 102.569526 
L 265.215 102.569526 
L 253.767895 96.834315 
L 242.320789 90.012961 
L 230.873684 83.955041 
L 219.426579 78.124211 
L 207.979474 71.531457 
L 196.532368 65.948681 
L 185.085263 60.989005 
L 173.638158 55.841756 
L 162.191053 51.404562 
L 150.743947 47.176405 
L 139.296842 44.068959 
L 127.849737 40.671747 
L 116.402632 38.231502 
L 104.955526 35.947737 
L 93.508421 34.762664 
L 82.061316 34.070562 
L 70.614211 34.077795 
L 59.167105 33.748402 
L 47.72 33.658216 
z
" clip-path="url(#p0711a0cc50)" style="fill: #7f7f7f; fill-opacity: 0.4"/>
   </g>
   <g id="matplotlib.axis_1">
    <g id="xtick_1">
     <g id="line2d_1">
      <defs>
       <path id="m4c0815968d" d="M 0 0 
L 0 3.5 
" style="stroke: #000000; stroke-width: 0.8"/>
      </defs>
      <g>
       <use xlink:href="#m4c0815968d" x="47.72" y="174.04" style="stroke: #000000; stroke-width: 0.8"/>
      </g>
     </g>
     <g id="text_1">
      <!-- 0.0 -->
      <g transform="translate(39.768438 188.638438)scale(0.1 -0.1)">
       <defs>
        <path id="DejaVuSans-30" d="M 2034 4250 
Q 1547 4250 1301 3770 
Q 1056 3291 1056 2328 
Q 1056 1369 1301 889 
Q 1547 409 2034 409 
Q 2525 409 2770 889 
Q 3016 1369 3016 2328 
Q 3016 3291 2770 3770 
Q 2525 4250 2034 4250 
z
M 2034 4750 
Q 2819 4750 3233 4129 
Q 3647 3509 3647 2328 
Q 3647 1150 3233 529 
Q 2819 -91 2034 -91 
Q 1250 -91 836 529 
Q 422 1150 422 2328 
Q 422 3509 836 4129 
Q 1250 4750 2034 4750 
z
" transform="scale(0.015625)"/>
        <path id="DejaVuSans-2e" d="M 684 794 
L 1344 794 
L 1344 0 
L 684 0 
L 684 794 
z
" transform="scale(0.015625)"/>
       </defs>
       <use xlink:href="#DejaVuSans-30"/>
       <use xlink:href="#DejaVuSans-2e" x="63.623047"/>
       <use xlink:href="#DejaVuSans-30" x="95.410156"/>
      </g>
     </g>
    </g>
    <g id="xtick_2">
     <g id="line2d_2">
      <g>
       <use xlink:href="#m4c0815968d" x="102.09375" y="174.04" style="stroke: #000000; stroke-width: 0.8"/>
      </g>
     </g>
     <g id="text_2">
      <!-- 0.5 -->
      <g transform="translate(94.142188 188.638438)scale(0.1 -0.1)">
       <defs>
        <path id="DejaVuSans-35" d="M 691 4666 
L 3169 4666 
L 3169 4134 
L 1269 4134 
L 1269 2991 
Q 1406 3038 1543 3061 
Q 1681 3084 1819 3084 
Q 2600 3084 3056 2656 
Q 3513 2228 3513 1497 
Q 3513 744 3044 326 
Q 2575 -91 1722 -91 
Q 1428 -91 1123 -41 
Q 819 9 494 109 
L 494 744 
Q 775 591 1075 516 
Q 1375 441 1709 441 
Q 2250 441 2565 725 
Q 2881 1009 2881 1497 
Q 2881 1984 2565 2268 
Q 2250 2553 1709 2553 
Q 1456 2553 1204 2497 
Q 953 2441 691 2322 
L 691 4666 
z
" transform="scale(0.015625)"/>
       </defs>
       <use xlink:href="#DejaVuSans-30"/>
       <use xlink:href="#DejaVuSans-2e" x="63.623047"/>
       <use xlink:href="#DejaVuSans-35" x="95.410156"/>
      </g>
     </g>
    </g>
    <g id="xtick_3">
     <g id="line2d_3">
      <g>
       <use xlink:href="#m4c0815968d" x="156.4675" y="174.04" style="stroke: #000000; stroke-width: 0.8"/>
      </g>
     </g>
     <g id="text_3">
      <!-- 1.0 -->
      <g transform="translate(148.515938 188.638438)scale(0.1 -0.1)">
       <defs>
        <path id="DejaVuSans-31" d="M 794 531 
L 1825 531 
L 1825 4091 
L 703 3866 
L 703 4441 
L 1819 4666 
L 2450 4666 
L 2450 531 
L 3481 531 
L 3481 0 
L 794 0 
L 794 531 
z
" transform="scale(0.015625)"/>
       </defs>
       <use xlink:href="#DejaVuSans-31"/>
       <use xlink:href="#DejaVuSans-2e" x="63.623047"/>
       <use xlink:href="#DejaVuSans-30" x="95.410156"/>
      </g>
     </g>
    </g>
    <g id="xtick_4">
     <g id="line2d_4">
      <g>
       <use xlink:href="#m4c0815968d" x="210.84125" y="174.04" style="stroke: #000000; stroke-width: 0.8"/>
      </g>
     </g>
     <g id="text_4">
      <!-- 1.5 -->
      <g transform="translate(202.889687 188.638438)scale(0.1 -0.1)">
       <use xlink:href="#DejaVuSans-31"/>
       <use xlink:href="#DejaVuSans-2e" x="63.623047"/>
       <use xlink:href="#DejaVuSans-35" x="95.410156"/>
      </g>
     </g>
    </g>
    <g id="xtick_5">
     <g id="line2d_5">
      <g>
       <use xlink:href="#m4c0815968d" x="265.215" y="174.04" style="stroke: #000000; stroke-width: 0.8"/>
      </g>
     </g>
     <g id="text_5">
      <!-- 2.0 -->
      <g transform="translate(257.263437 188.638438)scale(0.1 -0.1)">
       <defs>
        <path id="DejaVuSans-32" d="M 1228 531 
L 3431 531 
L 3431 0 
L 469 0 
L 469 531 
Q 828 903 1448 1529 
Q 2069 2156 2228 2338 
Q 2531 2678 2651 2914 
Q 2772 3150 2772 3378 
Q 2772 3750 2511 3984 
Q 2250 4219 1831 4219 
Q 1534 4219 1204 4116 
Q 875 4013 500 3803 
L 500 4441 
Q 881 4594 1212 4672 
Q 1544 4750 1819 4750 
Q 2544 4750 2975 4387 
Q 3406 4025 3406 3419 
Q 3406 3131 3298 2873 
Q 3191 2616 2906 2266 
Q 2828 2175 2409 1742 
Q 1991 1309 1228 531 
z
" transform="scale(0.015625)"/>
       </defs>
       <use xlink:href="#DejaVuSans-32"/>
       <use xlink:href="#DejaVuSans-2e" x="63.623047"/>
       <use xlink:href="#DejaVuSans-30" x="95.410156"/>
      </g>
     </g>
    </g>
    <g id="text_6">
     <!-- Influence of surprisal (multiplication) -->
     <g transform="translate(64.320625 202.316563)scale(0.1 -0.1)">
      <defs>
       <path id="DejaVuSans-49" d="M 628 4666 
L 1259 4666 
L 1259 0 
L 628 0 
L 628 4666 
z
" transform="scale(0.015625)"/>
       <path id="DejaVuSans-6e" d="M 3513 2113 
L 3513 0 
L 2938 0 
L 2938 2094 
Q 2938 2591 2744 2837 
Q 2550 3084 2163 3084 
Q 1697 3084 1428 2787 
Q 1159 2491 1159 1978 
L 1159 0 
L 581 0 
L 581 3500 
L 1159 3500 
L 1159 2956 
Q 1366 3272 1645 3428 
Q 1925 3584 2291 3584 
Q 2894 3584 3203 3211 
Q 3513 2838 3513 2113 
z
" transform="scale(0.015625)"/>
       <path id="DejaVuSans-66" d="M 2375 4863 
L 2375 4384 
L 1825 4384 
Q 1516 4384 1395 4259 
Q 1275 4134 1275 3809 
L 1275 3500 
L 2222 3500 
L 2222 3053 
L 1275 3053 
L 1275 0 
L 697 0 
L 697 3053 
L 147 3053 
L 147 3500 
L 697 3500 
L 697 3744 
Q 697 4328 969 4595 
Q 1241 4863 1831 4863 
L 2375 4863 
z
" transform="scale(0.015625)"/>
       <path id="DejaVuSans-6c" d="M 603 4863 
L 1178 4863 
L 1178 0 
L 603 0 
L 603 4863 
z
" transform="scale(0.015625)"/>
       <path id="DejaVuSans-75" d="M 544 1381 
L 544 3500 
L 1119 3500 
L 1119 1403 
Q 1119 906 1312 657 
Q 1506 409 1894 409 
Q 2359 409 2629 706 
Q 2900 1003 2900 1516 
L 2900 3500 
L 3475 3500 
L 3475 0 
L 2900 0 
L 2900 538 
Q 2691 219 2414 64 
Q 2138 -91 1772 -91 
Q 1169 -91 856 284 
Q 544 659 544 1381 
z
M 1991 3584 
L 1991 3584 
z
" transform="scale(0.015625)"/>
       <path id="DejaVuSans-65" d="M 3597 1894 
L 3597 1613 
L 953 1613 
Q 991 1019 1311 708 
Q 1631 397 2203 397 
Q 2534 397 2845 478 
Q 3156 559 3463 722 
L 3463 178 
Q 3153 47 2828 -22 
Q 2503 -91 2169 -91 
Q 1331 -91 842 396 
Q 353 884 353 1716 
Q 353 2575 817 3079 
Q 1281 3584 2069 3584 
Q 2775 3584 3186 3129 
Q 3597 2675 3597 1894 
z
M 3022 2063 
Q 3016 2534 2758 2815 
Q 2500 3097 2075 3097 
Q 1594 3097 1305 2825 
Q 1016 2553 972 2059 
L 3022 2063 
z
" transform="scale(0.015625)"/>
       <path id="DejaVuSans-63" d="M 3122 3366 
L 3122 2828 
Q 2878 2963 2633 3030 
Q 2388 3097 2138 3097 
Q 1578 3097 1268 2742 
Q 959 2388 959 1747 
Q 959 1106 1268 751 
Q 1578 397 2138 397 
Q 2388 397 2633 464 
Q 2878 531 3122 666 
L 3122 134 
Q 2881 22 2623 -34 
Q 2366 -91 2075 -91 
Q 1284 -91 818 406 
Q 353 903 353 1747 
Q 353 2603 823 3093 
Q 1294 3584 2113 3584 
Q 2378 3584 2631 3529 
Q 2884 3475 3122 3366 
z
" transform="scale(0.015625)"/>
       <path id="DejaVuSans-20" transform="scale(0.015625)"/>
       <path id="DejaVuSans-6f" d="M 1959 3097 
Q 1497 3097 1228 2736 
Q 959 2375 959 1747 
Q 959 1119 1226 758 
Q 1494 397 1959 397 
Q 2419 397 2687 759 
Q 2956 1122 2956 1747 
Q 2956 2369 2687 2733 
Q 2419 3097 1959 3097 
z
M 1959 3584 
Q 2709 3584 3137 3096 
Q 3566 2609 3566 1747 
Q 3566 888 3137 398 
Q 2709 -91 1959 -91 
Q 1206 -91 779 398 
Q 353 888 353 1747 
Q 353 2609 779 3096 
Q 1206 3584 1959 3584 
z
" transform="scale(0.015625)"/>
       <path id="DejaVuSans-73" d="M 2834 3397 
L 2834 2853 
Q 2591 2978 2328 3040 
Q 2066 3103 1784 3103 
Q 1356 3103 1142 2972 
Q 928 2841 928 2578 
Q 928 2378 1081 2264 
Q 1234 2150 1697 2047 
L 1894 2003 
Q 2506 1872 2764 1633 
Q 3022 1394 3022 966 
Q 3022 478 2636 193 
Q 2250 -91 1575 -91 
Q 1294 -91 989 -36 
Q 684 19 347 128 
L 347 722 
Q 666 556 975 473 
Q 1284 391 1588 391 
Q 1994 391 2212 530 
Q 2431 669 2431 922 
Q 2431 1156 2273 1281 
Q 2116 1406 1581 1522 
L 1381 1569 
Q 847 1681 609 1914 
Q 372 2147 372 2553 
Q 372 3047 722 3315 
Q 1072 3584 1716 3584 
Q 2034 3584 2315 3537 
Q 2597 3491 2834 3397 
z
" transform="scale(0.015625)"/>
       <path id="DejaVuSans-72" d="M 2631 2963 
Q 2534 3019 2420 3045 
Q 2306 3072 2169 3072 
Q 1681 3072 1420 2755 
Q 1159 2438 1159 1844 
L 1159 0 
L 581 0 
L 581 3500 
L 1159 3500 
L 1159 2956 
Q 1341 3275 1631 3429 
Q 1922 3584 2338 3584 
Q 2397 3584 2469 3576 
Q 2541 3569 2628 3553 
L 2631 2963 
z
" transform="scale(0.015625)"/>
       <path id="DejaVuSans-70" d="M 1159 525 
L 1159 -1331 
L 581 -1331 
L 581 3500 
L 1159 3500 
L 1159 2969 
Q 1341 3281 1617 3432 
Q 1894 3584 2278 3584 
Q 2916 3584 3314 3078 
Q 3713 2572 3713 1747 
Q 3713 922 3314 415 
Q 2916 -91 2278 -91 
Q 1894 -91 1617 61 
Q 1341 213 1159 525 
z
M 3116 1747 
Q 3116 2381 2855 2742 
Q 2594 3103 2138 3103 
Q 1681 3103 1420 2742 
Q 1159 2381 1159 1747 
Q 1159 1113 1420 752 
Q 1681 391 2138 391 
Q 2594 391 2855 752 
Q 3116 1113 3116 1747 
z
" transform="scale(0.015625)"/>
       <path id="DejaVuSans-69" d="M 603 3500 
L 1178 3500 
L 1178 0 
L 603 0 
L 603 3500 
z
M 603 4863 
L 1178 4863 
L 1178 4134 
L 603 4134 
L 603 4863 
z
" transform="scale(0.015625)"/>
       <path id="DejaVuSans-61" d="M 2194 1759 
Q 1497 1759 1228 1600 
Q 959 1441 959 1056 
Q 959 750 1161 570 
Q 1363 391 1709 391 
Q 2188 391 2477 730 
Q 2766 1069 2766 1631 
L 2766 1759 
L 2194 1759 
z
M 3341 1997 
L 3341 0 
L 2766 0 
L 2766 531 
Q 2569 213 2275 61 
Q 1981 -91 1556 -91 
Q 1019 -91 701 211 
Q 384 513 384 1019 
Q 384 1609 779 1909 
Q 1175 2209 1959 2209 
L 2766 2209 
L 2766 2266 
Q 2766 2663 2505 2880 
Q 2244 3097 1772 3097 
Q 1472 3097 1187 3025 
Q 903 2953 641 2809 
L 641 3341 
Q 956 3463 1253 3523 
Q 1550 3584 1831 3584 
Q 2591 3584 2966 3190 
Q 3341 2797 3341 1997 
z
" transform="scale(0.015625)"/>
       <path id="DejaVuSans-28" d="M 1984 4856 
Q 1566 4138 1362 3434 
Q 1159 2731 1159 2009 
Q 1159 1288 1364 580 
Q 1569 -128 1984 -844 
L 1484 -844 
Q 1016 -109 783 600 
Q 550 1309 550 2009 
Q 550 2706 781 3412 
Q 1013 4119 1484 4856 
L 1984 4856 
z
" transform="scale(0.015625)"/>
       <path id="DejaVuSans-6d" d="M 3328 2828 
Q 3544 3216 3844 3400 
Q 4144 3584 4550 3584 
Q 5097 3584 5394 3201 
Q 5691 2819 5691 2113 
L 5691 0 
L 5113 0 
L 5113 2094 
Q 5113 2597 4934 2840 
Q 4756 3084 4391 3084 
Q 3944 3084 3684 2787 
Q 3425 2491 3425 1978 
L 3425 0 
L 2847 0 
L 2847 2094 
Q 2847 2600 2669 2842 
Q 2491 3084 2119 3084 
Q 1678 3084 1418 2786 
Q 1159 2488 1159 1978 
L 1159 0 
L 581 0 
L 581 3500 
L 1159 3500 
L 1159 2956 
Q 1356 3278 1631 3431 
Q 1906 3584 2284 3584 
Q 2666 3584 2933 3390 
Q 3200 3197 3328 2828 
z
" transform="scale(0.015625)"/>
       <path id="DejaVuSans-74" d="M 1172 4494 
L 1172 3500 
L 2356 3500 
L 2356 3053 
L 1172 3053 
L 1172 1153 
Q 1172 725 1289 603 
Q 1406 481 1766 481 
L 2356 481 
L 2356 0 
L 1766 0 
Q 1100 0 847 248 
Q 594 497 594 1153 
L 594 3053 
L 172 3053 
L 172 3500 
L 594 3500 
L 594 4494 
L 1172 4494 
z
" transform="scale(0.015625)"/>
       <path id="DejaVuSans-29" d="M 513 4856 
L 1013 4856 
Q 1481 4119 1714 3412 
Q 1947 2706 1947 2009 
Q 1947 1309 1714 600 
Q 1481 -109 1013 -844 
L 513 -844 
Q 928 -128 1133 580 
Q 1338 1288 1338 2009 
Q 1338 2731 1133 3434 
Q 928 4138 513 4856 
z
" transform="scale(0.015625)"/>
      </defs>
      <use xlink:href="#DejaVuSans-49"/>
      <use xlink:href="#DejaVuSans-6e" x="29.492188"/>
      <use xlink:href="#DejaVuSans-66" x="92.871094"/>
      <use xlink:href="#DejaVuSans-6c" x="128.076172"/>
      <use xlink:href="#DejaVuSans-75" x="155.859375"/>
      <use xlink:href="#DejaVuSans-65" x="219.238281"/>
      <use xlink:href="#DejaVuSans-6e" x="280.761719"/>
      <use xlink:href="#DejaVuSans-63" x="344.140625"/>
      <use xlink:href="#DejaVuSans-65" x="399.121094"/>
      <use xlink:href="#DejaVuSans-20" x="460.644531"/>
      <use xlink:href="#DejaVuSans-6f" x="492.431641"/>
      <use xlink:href="#DejaVuSans-66" x="553.613281"/>
      <use xlink:href="#DejaVuSans-20" x="588.818359"/>
      <use xlink:href="#DejaVuSans-73" x="620.605469"/>
      <use xlink:href="#DejaVuSans-75" x="672.705078"/>
      <use xlink:href="#DejaVuSans-72" x="736.083984"/>
      <use xlink:href="#DejaVuSans-70" x="777.197266"/>
      <use xlink:href="#DejaVuSans-72" x="840.673828"/>
      <use xlink:href="#DejaVuSans-69" x="881.787109"/>
      <use xlink:href="#DejaVuSans-73" x="909.570312"/>
      <use xlink:href="#DejaVuSans-61" x="961.669922"/>
      <use xlink:href="#DejaVuSans-6c" x="1022.949219"/>
      <use xlink:href="#DejaVuSans-20" x="1050.732422"/>
      <use xlink:href="#DejaVuSans-28" x="1082.519531"/>
      <use xlink:href="#DejaVuSans-6d" x="1121.533203"/>
      <use xlink:href="#DejaVuSans-75" x="1218.945312"/>
      <use xlink:href="#DejaVuSans-6c" x="1282.324219"/>
      <use xlink:href="#DejaVuSans-74" x="1310.107422"/>
      <use xlink:href="#DejaVuSans-69" x="1349.316406"/>
      <use xlink:href="#DejaVuSans-70" x="1377.099609"/>
      <use xlink:href="#DejaVuSans-6c" x="1440.576172"/>
      <use xlink:href="#DejaVuSans-69" x="1468.359375"/>
      <use xlink:href="#DejaVuSans-63" x="1496.142578"/>
      <use xlink:href="#DejaVuSans-61" x="1551.123047"/>
      <use xlink:href="#DejaVuSans-74" x="1612.402344"/>
      <use xlink:href="#DejaVuSans-69" x="1651.611328"/>
      <use xlink:href="#DejaVuSans-6f" x="1679.394531"/>
      <use xlink:href="#DejaVuSans-6e" x="1740.576172"/>
      <use xlink:href="#DejaVuSans-29" x="1803.955078"/>
     </g>
    </g>
   </g>
   <g id="matplotlib.axis_2">
    <g id="ytick_1">
     <g id="line2d_6">
      <defs>
       <path id="md5ac337516" d="M 0 0 
L -3.5 0 
" style="stroke: #000000; stroke-width: 0.8"/>
      </defs>
      <g>
       <use xlink:href="#md5ac337516" x="47.72" y="142.495158" style="stroke: #000000; stroke-width: 0.8"/>
      </g>
     </g>
     <g id="text_7">
      <!-- 0.4 -->
      <g transform="translate(24.816875 146.294376)scale(0.1 -0.1)">
       <defs>
        <path id="DejaVuSans-34" d="M 2419 4116 
L 825 1625 
L 2419 1625 
L 2419 4116 
z
M 2253 4666 
L 3047 4666 
L 3047 1625 
L 3713 1625 
L 3713 1100 
L 3047 1100 
L 3047 0 
L 2419 0 
L 2419 1100 
L 313 1100 
L 313 1709 
L 2253 4666 
z
" transform="scale(0.015625)"/>
       </defs>
       <use xlink:href="#DejaVuSans-30"/>
       <use xlink:href="#DejaVuSans-2e" x="63.623047"/>
       <use xlink:href="#DejaVuSans-34" x="95.410156"/>
      </g>
     </g>
    </g>
    <g id="ytick_2">
     <g id="line2d_7">
      <g>
       <use xlink:href="#md5ac337516" x="47.72" y="102.826842" style="stroke: #000000; stroke-width: 0.8"/>
      </g>
     </g>
     <g id="text_8">
      <!-- 0.6 -->
      <g transform="translate(24.816875 106.626061)scale(0.1 -0.1)">
       <defs>
        <path id="DejaVuSans-36" d="M 2113 2584 
Q 1688 2584 1439 2293 
Q 1191 2003 1191 1497 
Q 1191 994 1439 701 
Q 1688 409 2113 409 
Q 2538 409 2786 701 
Q 3034 994 3034 1497 
Q 3034 2003 2786 2293 
Q 2538 2584 2113 2584 
z
M 3366 4563 
L 3366 3988 
Q 3128 4100 2886 4159 
Q 2644 4219 2406 4219 
Q 1781 4219 1451 3797 
Q 1122 3375 1075 2522 
Q 1259 2794 1537 2939 
Q 1816 3084 2150 3084 
Q 2853 3084 3261 2657 
Q 3669 2231 3669 1497 
Q 3669 778 3244 343 
Q 2819 -91 2113 -91 
Q 1303 -91 875 529 
Q 447 1150 447 2328 
Q 447 3434 972 4092 
Q 1497 4750 2381 4750 
Q 2619 4750 2861 4703 
Q 3103 4656 3366 4563 
z
" transform="scale(0.015625)"/>
       </defs>
       <use xlink:href="#DejaVuSans-30"/>
       <use xlink:href="#DejaVuSans-2e" x="63.623047"/>
       <use xlink:href="#DejaVuSans-36" x="95.410156"/>
      </g>
     </g>
    </g>
    <g id="ytick_3">
     <g id="line2d_8">
      <g>
       <use xlink:href="#md5ac337516" x="47.72" y="63.158527" style="stroke: #000000; stroke-width: 0.8"/>
      </g>
     </g>
     <g id="text_9">
      <!-- 0.8 -->
      <g transform="translate(24.816875 66.957745)scale(0.1 -0.1)">
       <defs>
        <path id="DejaVuSans-38" d="M 2034 2216 
Q 1584 2216 1326 1975 
Q 1069 1734 1069 1313 
Q 1069 891 1326 650 
Q 1584 409 2034 409 
Q 2484 409 2743 651 
Q 3003 894 3003 1313 
Q 3003 1734 2745 1975 
Q 2488 2216 2034 2216 
z
M 1403 2484 
Q 997 2584 770 2862 
Q 544 3141 544 3541 
Q 544 4100 942 4425 
Q 1341 4750 2034 4750 
Q 2731 4750 3128 4425 
Q 3525 4100 3525 3541 
Q 3525 3141 3298 2862 
Q 3072 2584 2669 2484 
Q 3125 2378 3379 2068 
Q 3634 1759 3634 1313 
Q 3634 634 3220 271 
Q 2806 -91 2034 -91 
Q 1263 -91 848 271 
Q 434 634 434 1313 
Q 434 1759 690 2068 
Q 947 2378 1403 2484 
z
M 1172 3481 
Q 1172 3119 1398 2916 
Q 1625 2713 2034 2713 
Q 2441 2713 2670 2916 
Q 2900 3119 2900 3481 
Q 2900 3844 2670 4047 
Q 2441 4250 2034 4250 
Q 1625 4250 1398 4047 
Q 1172 3844 1172 3481 
z
" transform="scale(0.015625)"/>
       </defs>
       <use xlink:href="#DejaVuSans-30"/>
       <use xlink:href="#DejaVuSans-2e" x="63.623047"/>
       <use xlink:href="#DejaVuSans-38" x="95.410156"/>
      </g>
     </g>
    </g>
    <g id="text_10">
     <!-- R-value -->
     <g transform="translate(18.737188 119.064687)rotate(-90)scale(0.1 -0.1)">
      <defs>
       <path id="DejaVuSans-52" d="M 2841 2188 
Q 3044 2119 3236 1894 
Q 3428 1669 3622 1275 
L 4263 0 
L 3584 0 
L 2988 1197 
Q 2756 1666 2539 1819 
Q 2322 1972 1947 1972 
L 1259 1972 
L 1259 0 
L 628 0 
L 628 4666 
L 2053 4666 
Q 2853 4666 3247 4331 
Q 3641 3997 3641 3322 
Q 3641 2881 3436 2590 
Q 3231 2300 2841 2188 
z
M 1259 4147 
L 1259 2491 
L 2053 2491 
Q 2509 2491 2742 2702 
Q 2975 2913 2975 3322 
Q 2975 3731 2742 3939 
Q 2509 4147 2053 4147 
L 1259 4147 
z
" transform="scale(0.015625)"/>
       <path id="DejaVuSans-2d" d="M 313 2009 
L 1997 2009 
L 1997 1497 
L 313 1497 
L 313 2009 
z
" transform="scale(0.015625)"/>
       <path id="DejaVuSans-76" d="M 191 3500 
L 800 3500 
L 1894 563 
L 2988 3500 
L 3597 3500 
L 2284 0 
L 1503 0 
L 191 3500 
z
" transform="scale(0.015625)"/>
      </defs>
      <use xlink:href="#DejaVuSans-52"/>
      <use xlink:href="#DejaVuSans-2d" x="65.482422"/>
      <use xlink:href="#DejaVuSans-76" x="98.941406"/>
      <use xlink:href="#DejaVuSans-61" x="158.121094"/>
      <use xlink:href="#DejaVuSans-6c" x="219.400391"/>
      <use xlink:href="#DejaVuSans-75" x="247.183594"/>
      <use xlink:href="#DejaVuSans-65" x="310.5625"/>
     </g>
    </g>
   </g>
   <g id="line2d_9">
    <path d="M 47.72 33.947747 
L 59.167105 34.90232 
L 70.614211 37.747851 
L 82.061316 41.551697 
L 93.508421 46.663203 
L 104.955526 52.226167 
L 116.402632 58.58344 
L 127.849737 65.474926 
L 139.296842 72.58326 
L 150.743947 79.838169 
L 162.191053 86.897422 
L 173.638158 94.146547 
L 185.085263 101.519328 
L 196.532368 108.474855 
L 207.979474 115.276603 
L 219.426579 122.094495 
L 230.873684 128.614318 
L 242.320789 134.242097 
L 253.767895 140.726937 
L 265.215 145.759213 
" clip-path="url(#p0711a0cc50)" style="fill: none; stroke: #1f77b4; stroke-width: 1.5; stroke-linecap: square"/>
   </g>
   <g id="line2d_10">
    <path d="M 47.72 33.97057 
L 59.167105 34.604023 
L 70.614211 36.208042 
L 82.061316 38.467416 
L 93.508421 41.743231 
L 104.955526 45.600164 
L 116.402632 50.304183 
L 127.849737 55.379518 
L 139.296842 61.097906 
L 150.743947 67.269387 
L 162.191053 73.457373 
L 173.638158 79.847754 
L 185.085263 86.425821 
L 196.532368 92.596976 
L 207.979474 98.884292 
L 219.426579 105.199624 
L 230.873684 111.199788 
L 242.320789 116.583659 
L 253.767895 122.931719 
L 265.215 128.015113 
" clip-path="url(#p0711a0cc50)" style="fill: none; stroke: #ff7f0e; stroke-width: 1.5; stroke-linecap: square"/>
   </g>
   <g id="line2d_11">
    <path d="M 47.72 33.955847 
L 59.167105 34.730048 
L 70.614211 36.169772 
L 82.061316 37.858368 
L 93.508421 40.225002 
L 104.955526 42.614317 
L 116.402632 45.461444 
L 127.849737 48.6381 
L 139.296842 51.856536 
L 150.743947 55.34149 
L 162.191053 58.664695 
L 173.638158 61.930651 
L 185.085263 65.632147 
L 196.532368 68.904354 
L 207.979474 72.352538 
L 219.426579 76.406094 
L 230.873684 80.045142 
L 242.320789 83.597141 
L 253.767895 87.641224 
L 265.215 91.135749 
" clip-path="url(#p0711a0cc50)" style="fill: none; stroke: #2ca02c; stroke-width: 1.5; stroke-linecap: square"/>
   </g>
   <g id="line2d_12">
    <path d="M 47.72 33.983299 
L 59.167105 34.584494 
L 70.614211 35.655983 
L 82.061316 36.948549 
L 93.508421 38.854466 
L 104.955526 40.929915 
L 116.402632 43.546287 
L 127.849737 46.407755 
L 139.296842 49.530756 
L 150.743947 53.051662 
L 162.191053 56.472498 
L 173.638158 59.888453 
L 185.085263 63.744171 
L 196.532368 67.12872 
L 207.979474 70.682344 
L 219.426579 74.736138 
L 230.873684 78.393694 
L 242.320789 81.903109 
L 253.767895 85.943268 
L 265.215 89.417296 
" clip-path="url(#p0711a0cc50)" style="fill: none; stroke: #d62728; stroke-width: 1.5; stroke-linecap: square"/>
   </g>
   <g id="line2d_13">
    <path d="M 47.72 33.962991 
L 59.167105 34.923374 
L 70.614211 37.771149 
L 82.061316 41.558187 
L 93.508421 46.666494 
L 104.955526 52.265237 
L 116.402632 58.661242 
L 127.849737 65.503683 
L 139.296842 72.746745 
L 150.743947 79.792503 
L 162.191053 87.042718 
L 173.638158 94.209196 
L 185.085263 102.115435 
L 196.532368 108.946924 
L 207.979474 115.659032 
L 219.426579 122.658245 
L 230.873684 129.005088 
L 242.320789 134.142702 
L 253.767895 141.27231 
L 265.215 146.30569 
" clip-path="url(#p0711a0cc50)" style="fill: none; stroke: #9467bd; stroke-width: 1.5; stroke-linecap: square"/>
   </g>
   <g id="line2d_14">
    <path d="M 47.72 33.986309 
L 59.167105 34.62521 
L 70.614211 36.220291 
L 82.061316 38.486123 
L 93.508421 41.778523 
L 104.955526 45.638894 
L 116.402632 50.374718 
L 127.849737 55.372565 
L 139.296842 61.1641 
L 150.743947 67.298059 
L 162.191053 73.493407 
L 173.638158 79.839295 
L 185.085263 86.781712 
L 196.532368 92.921757 
L 207.979474 99.169347 
L 219.426579 105.678525 
L 230.873684 111.357609 
L 242.320789 116.549993 
L 253.767895 123.254572 
L 265.215 128.247347 
" clip-path="url(#p0711a0cc50)" style="fill: none; stroke: #8c564b; stroke-width: 1.5; stroke-linecap: square"/>
   </g>
   <g id="line2d_15">
    <path d="M 47.72 48.544967 
L 59.167105 49.886197 
L 70.614211 53.505268 
L 82.061316 58.44659 
L 93.508421 64.612396 
L 104.955526 70.899248 
L 116.402632 77.713358 
L 127.849737 85.054305 
L 139.296842 92.454092 
L 150.743947 99.796521 
L 162.191053 106.674313 
L 173.638158 113.535695 
L 185.085263 120.361813 
L 196.532368 126.665035 
L 207.979474 132.508539 
L 219.426579 138.633256 
L 230.873684 144.17934 
L 242.320789 149.176382 
L 253.767895 154.768087 
L 265.215 159.336815 
" clip-path="url(#p0711a0cc50)" style="fill: none; stroke: #e377c2; stroke-width: 1.5; stroke-linecap: square"/>
   </g>
   <g id="line2d_16">
    <path d="M 47.72 33.981908 
L 59.167105 34.305585 
L 70.614211 34.642959 
L 82.061316 35.244037 
L 93.508421 36.813463 
L 104.955526 38.949057 
L 116.402632 42.091039 
L 127.849737 45.640206 
L 139.296842 50.131043 
L 150.743947 55.209656 
L 162.191053 60.610707 
L 173.638158 66.11706 
L 185.085263 71.934982 
L 196.532368 77.337824 
L 207.979474 82.986105 
L 219.426579 89.146403 
L 230.873684 94.982847 
L 242.320789 100.674664 
L 253.767895 107.232517 
L 265.215 112.776205 
" clip-path="url(#p0711a0cc50)" style="fill: none; stroke: #7f7f7f; stroke-width: 1.5; stroke-linecap: square"/>
   </g>
   <g id="patch_3">
    <path d="M 47.72 174.04 
L 47.72 26.88 
" style="fill: none; stroke: #000000; stroke-width: 0.8; stroke-linejoin: miter; stroke-linecap: square"/>
   </g>
   <g id="patch_4">
    <path d="M 47.72 174.04 
L 265.215 174.04 
" style="fill: none; stroke: #000000; stroke-width: 0.8; stroke-linejoin: miter; stroke-linecap: square"/>
   </g>
   <g id="text_11">
    <!-- Node * surprisal -->
    <g transform="translate(108.18625 20.88)scale(0.12 -0.12)">
     <defs>
      <path id="DejaVuSans-4e" d="M 628 4666 
L 1478 4666 
L 3547 763 
L 3547 4666 
L 4159 4666 
L 4159 0 
L 3309 0 
L 1241 3903 
L 1241 0 
L 628 0 
L 628 4666 
z
" transform="scale(0.015625)"/>
      <path id="DejaVuSans-64" d="M 2906 2969 
L 2906 4863 
L 3481 4863 
L 3481 0 
L 2906 0 
L 2906 525 
Q 2725 213 2448 61 
Q 2172 -91 1784 -91 
Q 1150 -91 751 415 
Q 353 922 353 1747 
Q 353 2572 751 3078 
Q 1150 3584 1784 3584 
Q 2172 3584 2448 3432 
Q 2725 3281 2906 2969 
z
M 947 1747 
Q 947 1113 1208 752 
Q 1469 391 1925 391 
Q 2381 391 2643 752 
Q 2906 1113 2906 1747 
Q 2906 2381 2643 2742 
Q 2381 3103 1925 3103 
Q 1469 3103 1208 2742 
Q 947 2381 947 1747 
z
" transform="scale(0.015625)"/>
      <path id="DejaVuSans-2a" d="M 3009 3897 
L 1888 3291 
L 3009 2681 
L 2828 2375 
L 1778 3009 
L 1778 1831 
L 1422 1831 
L 1422 3009 
L 372 2375 
L 191 2681 
L 1313 3291 
L 191 3897 
L 372 4206 
L 1422 3572 
L 1422 4750 
L 1778 4750 
L 1778 3572 
L 2828 4206 
L 3009 3897 
z
" transform="scale(0.015625)"/>
     </defs>
     <use xlink:href="#DejaVuSans-4e"/>
     <use xlink:href="#DejaVuSans-6f" x="74.804688"/>
     <use xlink:href="#DejaVuSans-64" x="135.986328"/>
     <use xlink:href="#DejaVuSans-65" x="199.462891"/>
     <use xlink:href="#DejaVuSans-20" x="260.986328"/>
     <use xlink:href="#DejaVuSans-2a" x="292.773438"/>
     <use xlink:href="#DejaVuSans-20" x="342.773438"/>
     <use xlink:href="#DejaVuSans-73" x="374.560547"/>
     <use xlink:href="#DejaVuSans-75" x="426.660156"/>
     <use xlink:href="#DejaVuSans-72" x="490.039062"/>
     <use xlink:href="#DejaVuSans-70" x="531.152344"/>
     <use xlink:href="#DejaVuSans-72" x="594.628906"/>
     <use xlink:href="#DejaVuSans-69" x="635.742188"/>
     <use xlink:href="#DejaVuSans-73" x="663.525391"/>
     <use xlink:href="#DejaVuSans-61" x="715.625"/>
     <use xlink:href="#DejaVuSans-6c" x="776.904297"/>
    </g>
   </g>
  </g>
  <g id="axes_2">
   <g id="patch_5">
    <path d="M 298.065 174.04 
L 515.56 174.04 
L 515.56 26.88 
L 298.065 26.88 
z
" style="fill: #ffffff"/>
   </g>
   <g id="PolyCollection_9">
    <path d="M 298.065 33.569091 
L 298.065 34.729013 
L 309.512105 35.599574 
L 320.959211 38.669006 
L 332.406316 42.907561 
L 343.853421 47.986533 
L 355.300526 54.859829 
L 366.747632 61.902782 
L 378.194737 69.423885 
L 389.641842 77.967837 
L 401.088947 86.178376 
L 412.536053 94.454626 
L 423.983158 102.049753 
L 435.430263 110.291798 
L 446.877368 117.474696 
L 458.324474 125.282717 
L 469.771579 132.232817 
L 481.218684 138.248317 
L 492.665789 144.084752 
L 504.112895 149.859503 
L 515.56 155.13526 
L 515.56 135.763682 
L 515.56 135.763682 
L 504.112895 130.737193 
L 492.665789 125.544837 
L 481.218684 120.346398 
L 469.771579 113.455337 
L 458.324474 107.701172 
L 446.877368 101.730402 
L 435.430263 95.110997 
L 423.983158 88.138636 
L 412.536053 81.693423 
L 401.088947 74.598285 
L 389.641842 68.013058 
L 378.194737 61.213252 
L 366.747632 54.905404 
L 355.300526 48.988009 
L 343.853421 44.162745 
L 332.406316 39.391764 
L 320.959211 36.677602 
L 309.512105 34.356551 
L 298.065 33.569091 
z
" clip-path="url(#pc134fde30c)" style="fill: #1f77b4; fill-opacity: 0.4"/>
   </g>
   <g id="PolyCollection_10">
    <path d="M 298.065 33.583925 
L 298.065 34.754571 
L 309.512105 35.616534 
L 320.959211 38.698583 
L 332.406316 42.931673 
L 343.853421 48.028804 
L 355.300526 54.910033 
L 366.747632 61.93431 
L 378.194737 69.461905 
L 389.641842 78.017961 
L 401.088947 86.204804 
L 412.536053 94.492113 
L 423.983158 102.122363 
L 435.430263 110.384014 
L 446.877368 117.551551 
L 458.324474 125.380695 
L 469.771579 132.322067 
L 481.218684 138.430506 
L 492.665789 144.274188 
L 504.112895 150.03842 
L 515.56 155.296703 
L 515.56 135.960595 
L 515.56 135.960595 
L 504.112895 130.835345 
L 492.665789 125.7287 
L 481.218684 120.473942 
L 469.771579 113.616075 
L 458.324474 107.852611 
L 446.877368 101.816215 
L 435.430263 95.187846 
L 423.983158 88.168385 
L 412.536053 81.727167 
L 401.088947 74.631669 
L 389.641842 68.014817 
L 378.194737 61.217465 
L 366.747632 54.882782 
L 355.300526 48.992075 
L 343.853421 44.14545 
L 332.406316 39.409594 
L 320.959211 36.695589 
L 309.512105 34.370817 
L 298.065 33.583925 
z
" clip-path="url(#pc134fde30c)" style="fill: #ff7f0e; fill-opacity: 0.4"/>
   </g>
   <g id="PolyCollection_11">
    <path d="M 298.065 33.57954 
L 298.065 34.749932 
L 309.512105 35.607877 
L 320.959211 38.705884 
L 332.406316 42.980831 
L 343.853421 48.100566 
L 355.300526 55.011006 
L 366.747632 62.091464 
L 378.194737 69.67684 
L 389.641842 78.266945 
L 401.088947 86.5309 
L 412.536053 94.94108 
L 423.983158 102.55152 
L 435.430263 110.848301 
L 446.877368 118.179877 
L 458.324474 125.970668 
L 469.771579 132.964212 
L 481.218684 139.161365 
L 492.665789 145.102232 
L 504.112895 150.799026 
L 515.56 156.231453 
L 515.56 135.803651 
L 515.56 135.803651 
L 504.112895 130.734533 
L 492.665789 125.599922 
L 481.218684 120.400719 
L 469.771579 113.679749 
L 458.324474 107.824896 
L 446.877368 101.862059 
L 435.430263 95.327856 
L 423.983158 88.269432 
L 412.536053 81.833253 
L 401.088947 74.730085 
L 389.641842 68.105153 
L 378.194737 61.260323 
L 366.747632 54.936246 
L 355.300526 49.000588 
L 343.853421 44.158359 
L 332.406316 39.409894 
L 320.959211 36.697977 
L 309.512105 34.384296 
L 298.065 33.57954 
z
" clip-path="url(#pc134fde30c)" style="fill: #2ca02c; fill-opacity: 0.4"/>
   </g>
   <g id="PolyCollection_12">
    <path d="M 298.065 33.588027 
L 298.065 34.768536 
L 309.512105 35.627886 
L 320.959211 38.74166 
L 332.406316 43.025021 
L 343.853421 48.162895 
L 355.300526 55.100458 
L 366.747632 62.157259 
L 378.194737 69.768839 
L 389.641842 78.347025 
L 401.088947 86.613667 
L 412.536053 95.008593 
L 423.983158 102.608822 
L 435.430263 110.890278 
L 446.877368 118.215435 
L 458.324474 125.979795 
L 469.771579 132.989127 
L 481.218684 139.20036 
L 492.665789 145.126265 
L 504.112895 150.819907 
L 515.56 156.316959 
L 515.56 136.100748 
L 515.56 136.100748 
L 504.112895 130.966067 
L 492.665789 125.881492 
L 481.218684 120.662511 
L 469.771579 113.919911 
L 458.324474 108.063018 
L 446.877368 102.044554 
L 435.430263 95.461006 
L 423.983158 88.377653 
L 412.536053 81.92978 
L 401.088947 74.800763 
L 389.641842 68.175159 
L 378.194737 61.317858 
L 366.747632 54.985158 
L 355.300526 49.044161 
L 343.853421 44.182427 
L 332.406316 39.449045 
L 320.959211 36.720964 
L 309.512105 34.397232 
L 298.065 33.588027 
z
" clip-path="url(#pc134fde30c)" style="fill: #d62728; fill-opacity: 0.4"/>
   </g>
   <g id="PolyCollection_13">
    <path d="M 298.065 33.586617 
L 298.065 34.745637 
L 309.512105 35.615864 
L 320.959211 38.675903 
L 332.406316 42.955787 
L 343.853421 47.990256 
L 355.300526 55.019646 
L 366.747632 62.040033 
L 378.194737 69.395699 
L 389.641842 78.20998 
L 401.088947 86.542874 
L 412.536053 94.610681 
L 423.983158 101.603814 
L 435.430263 110.330828 
L 446.877368 117.491726 
L 458.324474 125.814782 
L 469.771579 132.325349 
L 481.218684 139.004323 
L 492.665789 143.314846 
L 504.112895 150.863475 
L 515.56 156.305069 
L 515.56 136.023236 
L 515.56 136.023236 
L 504.112895 131.009894 
L 492.665789 125.932813 
L 481.218684 120.829826 
L 469.771579 113.807812 
L 458.324474 108.396327 
L 446.877368 101.910039 
L 435.430263 95.187052 
L 423.983158 88.176815 
L 412.536053 81.978933 
L 401.088947 74.577793 
L 389.641842 68.241592 
L 378.194737 61.306879 
L 366.747632 55.025968 
L 355.300526 49.014501 
L 343.853421 44.16681 
L 332.406316 39.423611 
L 320.959211 36.667807 
L 309.512105 34.368637 
L 298.065 33.586617 
z
" clip-path="url(#pc134fde30c)" style="fill: #9467bd; fill-opacity: 0.4"/>
   </g>
   <g id="PolyCollection_14">
    <path d="M 298.065 33.60218 
L 298.065 34.770287 
L 309.512105 35.634029 
L 320.959211 38.705492 
L 332.406316 42.978535 
L 343.853421 48.02858 
L 355.300526 55.07001 
L 366.747632 62.076738 
L 378.194737 69.431776 
L 389.641842 78.264892 
L 401.088947 86.561689 
L 412.536053 94.640684 
L 423.983158 101.654028 
L 435.430263 110.419434 
L 446.877368 117.535189 
L 458.324474 125.948633 
L 469.771579 132.387018 
L 481.218684 139.169558 
L 492.665789 143.46755 
L 504.112895 150.946839 
L 515.56 156.478289 
L 515.56 136.208493 
L 515.56 136.208493 
L 504.112895 131.141334 
L 492.665789 126.128515 
L 481.218684 120.9549 
L 469.771579 113.961049 
L 458.324474 108.55372 
L 446.877368 102.000751 
L 435.430263 95.252913 
L 423.983158 88.21589 
L 412.536053 82.016019 
L 401.088947 74.615085 
L 389.641842 68.239085 
L 378.194737 61.319135 
L 366.747632 55.001312 
L 355.300526 49.01962 
L 343.853421 44.149848 
L 332.406316 39.43883 
L 320.959211 36.686629 
L 309.512105 34.383353 
L 298.065 33.60218 
z
" clip-path="url(#pc134fde30c)" style="fill: #8c564b; fill-opacity: 0.4"/>
   </g>
   <g id="PolyCollection_15">
    <path d="M 298.065 45.925826 
L 298.065 51.557511 
L 309.512105 52.289026 
L 320.959211 54.766936 
L 332.406316 57.728094 
L 343.853421 61.94064 
L 355.300526 67.460409 
L 366.747632 73.642082 
L 378.194737 80.08488 
L 389.641842 87.807442 
L 401.088947 95.042436 
L 412.536053 102.66236 
L 423.983158 109.595318 
L 435.430263 117.162813 
L 446.877368 123.725829 
L 458.324474 131.023378 
L 469.771579 137.215599 
L 481.218684 142.815523 
L 492.665789 148.300797 
L 504.112895 153.666947 
L 515.56 158.518179 
L 515.56 140.696266 
L 515.56 140.696266 
L 504.112895 136.207359 
L 492.665789 131.750164 
L 481.218684 126.907453 
L 469.771579 120.759035 
L 458.324474 115.701947 
L 446.877368 110.248452 
L 435.430263 104.050762 
L 423.983158 98.123588 
L 412.536053 92.284373 
L 401.088947 85.937625 
L 389.641842 79.859027 
L 378.194737 73.669467 
L 366.747632 67.588545 
L 355.300526 61.615723 
L 343.853421 56.720981 
L 332.406316 52.15002 
L 320.959211 49.098131 
L 309.512105 46.573774 
L 298.065 45.925826 
z
" clip-path="url(#pc134fde30c)" style="fill: #e377c2; fill-opacity: 0.4"/>
   </g>
   <g id="PolyCollection_16">
    <path d="M 298.065 33.597371 
L 298.065 34.786965 
L 309.512105 35.636793 
L 320.959211 38.77357 
L 332.406316 43.055679 
L 343.853421 48.154751 
L 355.300526 55.11409 
L 366.747632 62.204352 
L 378.194737 69.780585 
L 389.641842 78.38909 
L 401.088947 86.654629 
L 412.536053 95.020481 
L 423.983158 102.706369 
L 435.430263 111.019825 
L 446.877368 118.37243 
L 458.324474 126.178174 
L 469.771579 133.243732 
L 481.218684 139.569673 
L 492.665789 145.585779 
L 504.112895 151.343073 
L 515.56 156.667898 
L 515.56 135.832835 
L 515.56 135.832835 
L 504.112895 130.738845 
L 492.665789 125.670132 
L 481.218684 120.400936 
L 469.771579 113.673268 
L 458.324474 107.903377 
L 446.877368 101.884398 
L 435.430263 95.296608 
L 423.983158 88.260178 
L 412.536053 81.854918 
L 401.088947 74.766711 
L 389.641842 68.106663 
L 378.194737 61.28301 
L 366.747632 54.933984 
L 355.300526 49.00567 
L 343.853421 44.172963 
L 332.406316 39.418217 
L 320.959211 36.709796 
L 309.512105 34.380529 
L 298.065 33.597371 
z
" clip-path="url(#pc134fde30c)" style="fill: #7f7f7f; fill-opacity: 0.4"/>
   </g>
   <g id="matplotlib.axis_3">
    <g id="xtick_6">
     <g id="line2d_17">
      <g>
       <use xlink:href="#m4c0815968d" x="298.065" y="174.04" style="stroke: #000000; stroke-width: 0.8"/>
      </g>
     </g>
     <g id="text_12">
      <!-- 0.0 -->
      <g transform="translate(290.113437 188.638438)scale(0.1 -0.1)">
       <use xlink:href="#DejaVuSans-30"/>
       <use xlink:href="#DejaVuSans-2e" x="63.623047"/>
       <use xlink:href="#DejaVuSans-30" x="95.410156"/>
      </g>
     </g>
    </g>
    <g id="xtick_7">
     <g id="line2d_18">
      <g>
       <use xlink:href="#m4c0815968d" x="352.43875" y="174.04" style="stroke: #000000; stroke-width: 0.8"/>
      </g>
     </g>
     <g id="text_13">
      <!-- 0.5 -->
      <g transform="translate(344.487187 188.638438)scale(0.1 -0.1)">
       <use xlink:href="#DejaVuSans-30"/>
       <use xlink:href="#DejaVuSans-2e" x="63.623047"/>
       <use xlink:href="#DejaVuSans-35" x="95.410156"/>
      </g>
     </g>
    </g>
    <g id="xtick_8">
     <g id="line2d_19">
      <g>
       <use xlink:href="#m4c0815968d" x="406.8125" y="174.04" style="stroke: #000000; stroke-width: 0.8"/>
      </g>
     </g>
     <g id="text_14">
      <!-- 1.0 -->
      <g transform="translate(398.860937 188.638438)scale(0.1 -0.1)">
       <use xlink:href="#DejaVuSans-31"/>
       <use xlink:href="#DejaVuSans-2e" x="63.623047"/>
       <use xlink:href="#DejaVuSans-30" x="95.410156"/>
      </g>
     </g>
    </g>
    <g id="xtick_9">
     <g id="line2d_20">
      <g>
       <use xlink:href="#m4c0815968d" x="461.18625" y="174.04" style="stroke: #000000; stroke-width: 0.8"/>
      </g>
     </g>
     <g id="text_15">
      <!-- 1.5 -->
      <g transform="translate(453.234687 188.638438)scale(0.1 -0.1)">
       <use xlink:href="#DejaVuSans-31"/>
       <use xlink:href="#DejaVuSans-2e" x="63.623047"/>
       <use xlink:href="#DejaVuSans-35" x="95.410156"/>
      </g>
     </g>
    </g>
    <g id="xtick_10">
     <g id="line2d_21">
      <g>
       <use xlink:href="#m4c0815968d" x="515.56" y="174.04" style="stroke: #000000; stroke-width: 0.8"/>
      </g>
     </g>
     <g id="text_16">
      <!-- 2.0 -->
      <g transform="translate(507.608437 188.638438)scale(0.1 -0.1)">
       <use xlink:href="#DejaVuSans-32"/>
       <use xlink:href="#DejaVuSans-2e" x="63.623047"/>
       <use xlink:href="#DejaVuSans-30" x="95.410156"/>
      </g>
     </g>
    </g>
    <g id="text_17">
     <!-- Influence of surprisal (multiplication) -->
     <g transform="translate(314.665625 202.316563)scale(0.1 -0.1)">
      <use xlink:href="#DejaVuSans-49"/>
      <use xlink:href="#DejaVuSans-6e" x="29.492188"/>
      <use xlink:href="#DejaVuSans-66" x="92.871094"/>
      <use xlink:href="#DejaVuSans-6c" x="128.076172"/>
      <use xlink:href="#DejaVuSans-75" x="155.859375"/>
      <use xlink:href="#DejaVuSans-65" x="219.238281"/>
      <use xlink:href="#DejaVuSans-6e" x="280.761719"/>
      <use xlink:href="#DejaVuSans-63" x="344.140625"/>
      <use xlink:href="#DejaVuSans-65" x="399.121094"/>
      <use xlink:href="#DejaVuSans-20" x="460.644531"/>
      <use xlink:href="#DejaVuSans-6f" x="492.431641"/>
      <use xlink:href="#DejaVuSans-66" x="553.613281"/>
      <use xlink:href="#DejaVuSans-20" x="588.818359"/>
      <use xlink:href="#DejaVuSans-73" x="620.605469"/>
      <use xlink:href="#DejaVuSans-75" x="672.705078"/>
      <use xlink:href="#DejaVuSans-72" x="736.083984"/>
      <use xlink:href="#DejaVuSans-70" x="777.197266"/>
      <use xlink:href="#DejaVuSans-72" x="840.673828"/>
      <use xlink:href="#DejaVuSans-69" x="881.787109"/>
      <use xlink:href="#DejaVuSans-73" x="909.570312"/>
      <use xlink:href="#DejaVuSans-61" x="961.669922"/>
      <use xlink:href="#DejaVuSans-6c" x="1022.949219"/>
      <use xlink:href="#DejaVuSans-20" x="1050.732422"/>
      <use xlink:href="#DejaVuSans-28" x="1082.519531"/>
      <use xlink:href="#DejaVuSans-6d" x="1121.533203"/>
      <use xlink:href="#DejaVuSans-75" x="1218.945312"/>
      <use xlink:href="#DejaVuSans-6c" x="1282.324219"/>
      <use xlink:href="#DejaVuSans-74" x="1310.107422"/>
      <use xlink:href="#DejaVuSans-69" x="1349.316406"/>
      <use xlink:href="#DejaVuSans-70" x="1377.099609"/>
      <use xlink:href="#DejaVuSans-6c" x="1440.576172"/>
      <use xlink:href="#DejaVuSans-69" x="1468.359375"/>
      <use xlink:href="#DejaVuSans-63" x="1496.142578"/>
      <use xlink:href="#DejaVuSans-61" x="1551.123047"/>
      <use xlink:href="#DejaVuSans-74" x="1612.402344"/>
      <use xlink:href="#DejaVuSans-69" x="1651.611328"/>
      <use xlink:href="#DejaVuSans-6f" x="1679.394531"/>
      <use xlink:href="#DejaVuSans-6e" x="1740.576172"/>
      <use xlink:href="#DejaVuSans-29" x="1803.955078"/>
     </g>
    </g>
   </g>
   <g id="line2d_22">
    <path d="M 298.065 34.149052 
L 309.512105 34.978063 
L 320.959211 37.673304 
L 332.406316 41.149662 
L 343.853421 46.074639 
L 355.300526 51.923919 
L 366.747632 58.404093 
L 378.194737 65.318568 
L 389.641842 72.990447 
L 401.088947 80.38833 
L 412.536053 88.074025 
L 423.983158 95.094195 
L 435.430263 102.701397 
L 446.877368 109.602549 
L 458.324474 116.491945 
L 469.771579 122.844077 
L 481.218684 129.297357 
L 492.665789 134.814794 
L 504.112895 140.298348 
L 515.56 145.449471 
" clip-path="url(#pc134fde30c)" style="fill: none; stroke: #1f77b4; stroke-width: 1.5; stroke-linecap: square"/>
   </g>
   <g id="line2d_23">
    <path d="M 298.065 34.169248 
L 309.512105 34.993675 
L 320.959211 37.697086 
L 332.406316 41.170634 
L 343.853421 46.087127 
L 355.300526 51.951054 
L 366.747632 58.408546 
L 378.194737 65.339685 
L 389.641842 73.016389 
L 401.088947 80.418236 
L 412.536053 88.10964 
L 423.983158 95.145374 
L 435.430263 102.78593 
L 446.877368 109.683883 
L 458.324474 116.616653 
L 469.771579 122.969071 
L 481.218684 129.452224 
L 492.665789 135.001444 
L 504.112895 140.436883 
L 515.56 145.628649 
" clip-path="url(#pc134fde30c)" style="fill: none; stroke: #ff7f0e; stroke-width: 1.5; stroke-linecap: square"/>
   </g>
   <g id="line2d_24">
    <path d="M 298.065 34.164736 
L 309.512105 34.996087 
L 320.959211 37.70193 
L 332.406316 41.195362 
L 343.853421 46.129462 
L 355.300526 52.005797 
L 366.747632 58.513855 
L 378.194737 65.468582 
L 389.641842 73.186049 
L 401.088947 80.630493 
L 412.536053 88.387167 
L 423.983158 95.410476 
L 435.430263 103.088078 
L 446.877368 110.020968 
L 458.324474 116.897782 
L 469.771579 123.321981 
L 481.218684 129.781042 
L 492.665789 135.351077 
L 504.112895 140.76678 
L 515.56 146.017552 
" clip-path="url(#pc134fde30c)" style="fill: none; stroke: #2ca02c; stroke-width: 1.5; stroke-linecap: square"/>
   </g>
   <g id="line2d_25">
    <path d="M 298.065 34.178282 
L 309.512105 35.012559 
L 320.959211 37.731312 
L 332.406316 41.237033 
L 343.853421 46.172661 
L 355.300526 52.07231 
L 366.747632 58.571209 
L 378.194737 65.543349 
L 389.641842 73.261092 
L 401.088947 80.707215 
L 412.536053 88.469187 
L 423.983158 95.493238 
L 435.430263 103.175642 
L 446.877368 110.129995 
L 458.324474 117.021406 
L 469.771579 123.454519 
L 481.218684 129.931435 
L 492.665789 135.503878 
L 504.112895 140.892987 
L 515.56 146.208853 
" clip-path="url(#pc134fde30c)" style="fill: none; stroke: #d62728; stroke-width: 1.5; stroke-linecap: square"/>
   </g>
   <g id="line2d_26">
    <path d="M 298.065 34.166127 
L 309.512105 34.99225 
L 320.959211 37.671855 
L 332.406316 41.189699 
L 343.853421 46.078533 
L 355.300526 52.017074 
L 366.747632 58.533 
L 378.194737 65.351289 
L 389.641842 73.225786 
L 401.088947 80.560334 
L 412.536053 88.294807 
L 423.983158 94.890315 
L 435.430263 102.75894 
L 446.877368 109.700882 
L 458.324474 117.105554 
L 469.771579 123.066581 
L 481.218684 129.917075 
L 492.665789 134.62383 
L 504.112895 140.936685 
L 515.56 146.164153 
" clip-path="url(#pc134fde30c)" style="fill: none; stroke: #9467bd; stroke-width: 1.5; stroke-linecap: square"/>
   </g>
   <g id="line2d_27">
    <path d="M 298.065 34.186234 
L 309.512105 35.008691 
L 320.959211 37.696061 
L 332.406316 41.208682 
L 343.853421 46.089214 
L 355.300526 52.044815 
L 366.747632 58.539025 
L 378.194737 65.375456 
L 389.641842 73.251988 
L 401.088947 80.588387 
L 412.536053 88.328352 
L 423.983158 94.934959 
L 435.430263 102.836173 
L 446.877368 109.76797 
L 458.324474 117.251176 
L 469.771579 123.174033 
L 481.218684 130.062229 
L 492.665789 134.798032 
L 504.112895 141.044087 
L 515.56 146.343391 
" clip-path="url(#pc134fde30c)" style="fill: none; stroke: #8c564b; stroke-width: 1.5; stroke-linecap: square"/>
   </g>
   <g id="line2d_28">
    <path d="M 298.065 48.741669 
L 309.512105 49.4314 
L 320.959211 51.932533 
L 332.406316 54.939057 
L 343.853421 59.33081 
L 355.300526 64.538066 
L 366.747632 70.615314 
L 378.194737 76.877174 
L 389.641842 83.833235 
L 401.088947 90.49003 
L 412.536053 97.473367 
L 423.983158 103.859453 
L 435.430263 110.606788 
L 446.877368 116.98714 
L 458.324474 123.362663 
L 469.771579 128.987317 
L 481.218684 134.861488 
L 492.665789 140.02548 
L 504.112895 144.937153 
L 515.56 149.607223 
" clip-path="url(#pc134fde30c)" style="fill: none; stroke: #e377c2; stroke-width: 1.5; stroke-linecap: square"/>
   </g>
   <g id="line2d_29">
    <path d="M 298.065 34.192168 
L 309.512105 35.008661 
L 320.959211 37.741683 
L 332.406316 41.236948 
L 343.853421 46.163857 
L 355.300526 52.05988 
L 366.747632 58.569168 
L 378.194737 65.531798 
L 389.641842 73.247876 
L 401.088947 80.71067 
L 412.536053 88.4377 
L 423.983158 95.483274 
L 435.430263 103.158216 
L 446.877368 110.128414 
L 458.324474 117.040775 
L 469.771579 123.4585 
L 481.218684 129.985304 
L 492.665789 135.627955 
L 504.112895 141.040959 
L 515.56 146.250366 
" clip-path="url(#pc134fde30c)" style="fill: none; stroke: #7f7f7f; stroke-width: 1.5; stroke-linecap: square"/>
   </g>
   <g id="patch_6">
    <path d="M 298.065 174.04 
L 298.065 26.88 
" style="fill: none; stroke: #000000; stroke-width: 0.8; stroke-linejoin: miter; stroke-linecap: square"/>
   </g>
   <g id="patch_7">
    <path d="M 298.065 174.04 
L 515.56 174.04 
" style="fill: none; stroke: #000000; stroke-width: 0.8; stroke-linejoin: miter; stroke-linecap: square"/>
   </g>
   <g id="text_18">
    <!-- Node * third variable -->
    <g transform="translate(344.2325 20.88)scale(0.12 -0.12)">
     <defs>
      <path id="DejaVuSans-68" d="M 3513 2113 
L 3513 0 
L 2938 0 
L 2938 2094 
Q 2938 2591 2744 2837 
Q 2550 3084 2163 3084 
Q 1697 3084 1428 2787 
Q 1159 2491 1159 1978 
L 1159 0 
L 581 0 
L 581 4863 
L 1159 4863 
L 1159 2956 
Q 1366 3272 1645 3428 
Q 1925 3584 2291 3584 
Q 2894 3584 3203 3211 
Q 3513 2838 3513 2113 
z
" transform="scale(0.015625)"/>
      <path id="DejaVuSans-62" d="M 3116 1747 
Q 3116 2381 2855 2742 
Q 2594 3103 2138 3103 
Q 1681 3103 1420 2742 
Q 1159 2381 1159 1747 
Q 1159 1113 1420 752 
Q 1681 391 2138 391 
Q 2594 391 2855 752 
Q 3116 1113 3116 1747 
z
M 1159 2969 
Q 1341 3281 1617 3432 
Q 1894 3584 2278 3584 
Q 2916 3584 3314 3078 
Q 3713 2572 3713 1747 
Q 3713 922 3314 415 
Q 2916 -91 2278 -91 
Q 1894 -91 1617 61 
Q 1341 213 1159 525 
L 1159 0 
L 581 0 
L 581 4863 
L 1159 4863 
L 1159 2969 
z
" transform="scale(0.015625)"/>
     </defs>
     <use xlink:href="#DejaVuSans-4e"/>
     <use xlink:href="#DejaVuSans-6f" x="74.804688"/>
     <use xlink:href="#DejaVuSans-64" x="135.986328"/>
     <use xlink:href="#DejaVuSans-65" x="199.462891"/>
     <use xlink:href="#DejaVuSans-20" x="260.986328"/>
     <use xlink:href="#DejaVuSans-2a" x="292.773438"/>
     <use xlink:href="#DejaVuSans-20" x="342.773438"/>
     <use xlink:href="#DejaVuSans-74" x="374.560547"/>
     <use xlink:href="#DejaVuSans-68" x="413.769531"/>
     <use xlink:href="#DejaVuSans-69" x="477.148438"/>
     <use xlink:href="#DejaVuSans-72" x="504.931641"/>
     <use xlink:href="#DejaVuSans-64" x="544.294922"/>
     <use xlink:href="#DejaVuSans-20" x="607.771484"/>
     <use xlink:href="#DejaVuSans-76" x="639.558594"/>
     <use xlink:href="#DejaVuSans-61" x="698.738281"/>
     <use xlink:href="#DejaVuSans-72" x="760.017578"/>
     <use xlink:href="#DejaVuSans-69" x="801.130859"/>
     <use xlink:href="#DejaVuSans-61" x="828.914062"/>
     <use xlink:href="#DejaVuSans-62" x="890.193359"/>
     <use xlink:href="#DejaVuSans-6c" x="953.669922"/>
     <use xlink:href="#DejaVuSans-65" x="981.453125"/>
    </g>
   </g>
   <g id="legend_1">
    <g id="line2d_30">
     <path d="M 524.56 39.978437 
L 534.56 39.978437 
L 544.56 39.978437 
" style="fill: none; stroke: #1f77b4; stroke-width: 1.5; stroke-linecap: square"/>
    </g>
    <g id="text_19">
     <!-- Node -->
     <g transform="translate(552.56 43.478437)scale(0.1 -0.1)">
      <use xlink:href="#DejaVuSans-4e"/>
      <use xlink:href="#DejaVuSans-6f" x="74.804688"/>
      <use xlink:href="#DejaVuSans-64" x="135.986328"/>
      <use xlink:href="#DejaVuSans-65" x="199.462891"/>
     </g>
    </g>
    <g id="line2d_31">
     <path d="M 524.56 54.656563 
L 534.56 54.656563 
L 544.56 54.656563 
" style="fill: none; stroke: #ff7f0e; stroke-width: 1.5; stroke-linecap: square"/>
    </g>
    <g id="text_20">
     <!-- Node + surprisal -->
     <g transform="translate(552.56 58.156563)scale(0.1 -0.1)">
      <defs>
       <path id="DejaVuSans-2b" d="M 2944 4013 
L 2944 2272 
L 4684 2272 
L 4684 1741 
L 2944 1741 
L 2944 0 
L 2419 0 
L 2419 1741 
L 678 1741 
L 678 2272 
L 2419 2272 
L 2419 4013 
L 2944 4013 
z
" transform="scale(0.015625)"/>
      </defs>
      <use xlink:href="#DejaVuSans-4e"/>
      <use xlink:href="#DejaVuSans-6f" x="74.804688"/>
      <use xlink:href="#DejaVuSans-64" x="135.986328"/>
      <use xlink:href="#DejaVuSans-65" x="199.462891"/>
      <use xlink:href="#DejaVuSans-20" x="260.986328"/>
      <use xlink:href="#DejaVuSans-2b" x="292.773438"/>
      <use xlink:href="#DejaVuSans-20" x="376.5625"/>
      <use xlink:href="#DejaVuSans-73" x="408.349609"/>
      <use xlink:href="#DejaVuSans-75" x="460.449219"/>
      <use xlink:href="#DejaVuSans-72" x="523.828125"/>
      <use xlink:href="#DejaVuSans-70" x="564.941406"/>
      <use xlink:href="#DejaVuSans-72" x="628.417969"/>
      <use xlink:href="#DejaVuSans-69" x="669.53125"/>
      <use xlink:href="#DejaVuSans-73" x="697.314453"/>
      <use xlink:href="#DejaVuSans-61" x="749.414062"/>
      <use xlink:href="#DejaVuSans-6c" x="810.693359"/>
     </g>
    </g>
    <g id="line2d_32">
     <path d="M 524.56 69.334687 
L 534.56 69.334687 
L 544.56 69.334687 
" style="fill: none; stroke: #2ca02c; stroke-width: 1.5; stroke-linecap: square"/>
    </g>
    <g id="text_21">
     <!-- Node split -->
     <g transform="translate(552.56 72.834687)scale(0.1 -0.1)">
      <use xlink:href="#DejaVuSans-4e"/>
      <use xlink:href="#DejaVuSans-6f" x="74.804688"/>
      <use xlink:href="#DejaVuSans-64" x="135.986328"/>
      <use xlink:href="#DejaVuSans-65" x="199.462891"/>
      <use xlink:href="#DejaVuSans-20" x="260.986328"/>
      <use xlink:href="#DejaVuSans-73" x="292.773438"/>
      <use xlink:href="#DejaVuSans-70" x="344.873047"/>
      <use xlink:href="#DejaVuSans-6c" x="408.349609"/>
      <use xlink:href="#DejaVuSans-69" x="436.132812"/>
      <use xlink:href="#DejaVuSans-74" x="463.916016"/>
     </g>
    </g>
    <g id="line2d_33">
     <path d="M 524.56 84.012812 
L 534.56 84.012812 
L 544.56 84.012812 
" style="fill: none; stroke: #d62728; stroke-width: 1.5; stroke-linecap: square"/>
    </g>
    <g id="text_22">
     <!-- Node split + surprisal -->
     <g transform="translate(552.56 87.512812)scale(0.1 -0.1)">
      <use xlink:href="#DejaVuSans-4e"/>
      <use xlink:href="#DejaVuSans-6f" x="74.804688"/>
      <use xlink:href="#DejaVuSans-64" x="135.986328"/>
      <use xlink:href="#DejaVuSans-65" x="199.462891"/>
      <use xlink:href="#DejaVuSans-20" x="260.986328"/>
      <use xlink:href="#DejaVuSans-73" x="292.773438"/>
      <use xlink:href="#DejaVuSans-70" x="344.873047"/>
      <use xlink:href="#DejaVuSans-6c" x="408.349609"/>
      <use xlink:href="#DejaVuSans-69" x="436.132812"/>
      <use xlink:href="#DejaVuSans-74" x="463.916016"/>
      <use xlink:href="#DejaVuSans-20" x="503.125"/>
      <use xlink:href="#DejaVuSans-2b" x="534.912109"/>
      <use xlink:href="#DejaVuSans-20" x="618.701172"/>
      <use xlink:href="#DejaVuSans-73" x="650.488281"/>
      <use xlink:href="#DejaVuSans-75" x="702.587891"/>
      <use xlink:href="#DejaVuSans-72" x="765.966797"/>
      <use xlink:href="#DejaVuSans-70" x="807.080078"/>
      <use xlink:href="#DejaVuSans-72" x="870.556641"/>
      <use xlink:href="#DejaVuSans-69" x="911.669922"/>
      <use xlink:href="#DejaVuSans-73" x="939.453125"/>
      <use xlink:href="#DejaVuSans-61" x="991.552734"/>
      <use xlink:href="#DejaVuSans-6c" x="1052.832031"/>
     </g>
    </g>
    <g id="line2d_34">
     <path d="M 524.56 98.690937 
L 534.56 98.690937 
L 544.56 98.690937 
" style="fill: none; stroke: #9467bd; stroke-width: 1.5; stroke-linecap: square"/>
    </g>
    <g id="text_23">
     <!-- Node random split -->
     <g transform="translate(552.56 102.190937)scale(0.1 -0.1)">
      <use xlink:href="#DejaVuSans-4e"/>
      <use xlink:href="#DejaVuSans-6f" x="74.804688"/>
      <use xlink:href="#DejaVuSans-64" x="135.986328"/>
      <use xlink:href="#DejaVuSans-65" x="199.462891"/>
      <use xlink:href="#DejaVuSans-20" x="260.986328"/>
      <use xlink:href="#DejaVuSans-72" x="292.773438"/>
      <use xlink:href="#DejaVuSans-61" x="333.886719"/>
      <use xlink:href="#DejaVuSans-6e" x="395.166016"/>
      <use xlink:href="#DejaVuSans-64" x="458.544922"/>
      <use xlink:href="#DejaVuSans-6f" x="522.021484"/>
      <use xlink:href="#DejaVuSans-6d" x="583.203125"/>
      <use xlink:href="#DejaVuSans-20" x="680.615234"/>
      <use xlink:href="#DejaVuSans-73" x="712.402344"/>
      <use xlink:href="#DejaVuSans-70" x="764.501953"/>
      <use xlink:href="#DejaVuSans-6c" x="827.978516"/>
      <use xlink:href="#DejaVuSans-69" x="855.761719"/>
      <use xlink:href="#DejaVuSans-74" x="883.544922"/>
     </g>
    </g>
    <g id="line2d_35">
     <path d="M 524.56 113.369062 
L 534.56 113.369062 
L 544.56 113.369062 
" style="fill: none; stroke: #8c564b; stroke-width: 1.5; stroke-linecap: square"/>
    </g>
    <g id="text_24">
     <!-- Node random split + surprisal -->
     <g transform="translate(552.56 116.869062)scale(0.1 -0.1)">
      <use xlink:href="#DejaVuSans-4e"/>
      <use xlink:href="#DejaVuSans-6f" x="74.804688"/>
      <use xlink:href="#DejaVuSans-64" x="135.986328"/>
      <use xlink:href="#DejaVuSans-65" x="199.462891"/>
      <use xlink:href="#DejaVuSans-20" x="260.986328"/>
      <use xlink:href="#DejaVuSans-72" x="292.773438"/>
      <use xlink:href="#DejaVuSans-61" x="333.886719"/>
      <use xlink:href="#DejaVuSans-6e" x="395.166016"/>
      <use xlink:href="#DejaVuSans-64" x="458.544922"/>
      <use xlink:href="#DejaVuSans-6f" x="522.021484"/>
      <use xlink:href="#DejaVuSans-6d" x="583.203125"/>
      <use xlink:href="#DejaVuSans-20" x="680.615234"/>
      <use xlink:href="#DejaVuSans-73" x="712.402344"/>
      <use xlink:href="#DejaVuSans-70" x="764.501953"/>
      <use xlink:href="#DejaVuSans-6c" x="827.978516"/>
      <use xlink:href="#DejaVuSans-69" x="855.761719"/>
      <use xlink:href="#DejaVuSans-74" x="883.544922"/>
      <use xlink:href="#DejaVuSans-20" x="922.753906"/>
      <use xlink:href="#DejaVuSans-2b" x="954.541016"/>
      <use xlink:href="#DejaVuSans-20" x="1038.330078"/>
      <use xlink:href="#DejaVuSans-73" x="1070.117188"/>
      <use xlink:href="#DejaVuSans-75" x="1122.216797"/>
      <use xlink:href="#DejaVuSans-72" x="1185.595703"/>
      <use xlink:href="#DejaVuSans-70" x="1226.708984"/>
      <use xlink:href="#DejaVuSans-72" x="1290.185547"/>
      <use xlink:href="#DejaVuSans-69" x="1331.298828"/>
      <use xlink:href="#DejaVuSans-73" x="1359.082031"/>
      <use xlink:href="#DejaVuSans-61" x="1411.181641"/>
      <use xlink:href="#DejaVuSans-6c" x="1472.460938"/>
     </g>
    </g>
    <g id="line2d_36">
     <path d="M 524.56 128.047187 
L 534.56 128.047187 
L 544.56 128.047187 
" style="fill: none; stroke: #e377c2; stroke-width: 1.5; stroke-linecap: square"/>
    </g>
    <g id="text_25">
     <!-- Interaction -->
     <g transform="translate(552.56 131.547187)scale(0.1 -0.1)">
      <use xlink:href="#DejaVuSans-49"/>
      <use xlink:href="#DejaVuSans-6e" x="29.492188"/>
      <use xlink:href="#DejaVuSans-74" x="92.871094"/>
      <use xlink:href="#DejaVuSans-65" x="132.080078"/>
      <use xlink:href="#DejaVuSans-72" x="193.603516"/>
      <use xlink:href="#DejaVuSans-61" x="234.716797"/>
      <use xlink:href="#DejaVuSans-63" x="295.996094"/>
      <use xlink:href="#DejaVuSans-74" x="350.976562"/>
      <use xlink:href="#DejaVuSans-69" x="390.185547"/>
      <use xlink:href="#DejaVuSans-6f" x="417.96875"/>
      <use xlink:href="#DejaVuSans-6e" x="479.150391"/>
     </g>
    </g>
    <g id="line2d_37">
     <path d="M 524.56 142.725312 
L 534.56 142.725312 
L 544.56 142.725312 
" style="fill: none; stroke: #7f7f7f; stroke-width: 1.5; stroke-linecap: square"/>
    </g>
    <g id="text_26">
     <!-- Node + surprisal + interaction -->
     <g transform="translate(552.56 146.225312)scale(0.1 -0.1)">
      <use xlink:href="#DejaVuSans-4e"/>
      <use xlink:href="#DejaVuSans-6f" x="74.804688"/>
      <use xlink:href="#DejaVuSans-64" x="135.986328"/>
      <use xlink:href="#DejaVuSans-65" x="199.462891"/>
      <use xlink:href="#DejaVuSans-20" x="260.986328"/>
      <use xlink:href="#DejaVuSans-2b" x="292.773438"/>
      <use xlink:href="#DejaVuSans-20" x="376.5625"/>
      <use xlink:href="#DejaVuSans-73" x="408.349609"/>
      <use xlink:href="#DejaVuSans-75" x="460.449219"/>
      <use xlink:href="#DejaVuSans-72" x="523.828125"/>
      <use xlink:href="#DejaVuSans-70" x="564.941406"/>
      <use xlink:href="#DejaVuSans-72" x="628.417969"/>
      <use xlink:href="#DejaVuSans-69" x="669.53125"/>
      <use xlink:href="#DejaVuSans-73" x="697.314453"/>
      <use xlink:href="#DejaVuSans-61" x="749.414062"/>
      <use xlink:href="#DejaVuSans-6c" x="810.693359"/>
      <use xlink:href="#DejaVuSans-20" x="838.476562"/>
      <use xlink:href="#DejaVuSans-2b" x="870.263672"/>
      <use xlink:href="#DejaVuSans-20" x="954.052734"/>
      <use xlink:href="#DejaVuSans-69" x="985.839844"/>
      <use xlink:href="#DejaVuSans-6e" x="1013.623047"/>
      <use xlink:href="#DejaVuSans-74" x="1077.001953"/>
      <use xlink:href="#DejaVuSans-65" x="1116.210938"/>
      <use xlink:href="#DejaVuSans-72" x="1177.734375"/>
      <use xlink:href="#DejaVuSans-61" x="1218.847656"/>
      <use xlink:href="#DejaVuSans-63" x="1280.126953"/>
      <use xlink:href="#DejaVuSans-74" x="1335.107422"/>
      <use xlink:href="#DejaVuSans-69" x="1374.316406"/>
      <use xlink:href="#DejaVuSans-6f" x="1402.099609"/>
      <use xlink:href="#DejaVuSans-6e" x="1463.28125"/>
     </g>
    </g>
   </g>
  </g>
 </g>
 <defs>
  <clipPath id="p0711a0cc50">
   <rect x="47.72" y="26.88" width="217.495" height="147.16"/>
  </clipPath>
  <clipPath id="pc134fde30c">
   <rect x="298.065" y="26.88" width="217.495" height="147.16"/>
  </clipPath>
 </defs>
</svg>
