<?xml version="1.0" encoding="utf-8" standalone="no"?>
<!DOCTYPE svg PUBLIC "-//W3C//DTD SVG 1.1//EN"
  "http://www.w3.org/Graphics/SVG/1.1/DTD/svg11.dtd">
<svg xmlns:xlink="http://www.w3.org/1999/xlink" width="720pt" height="216pt" viewBox="0 0 720 216" xmlns="http://www.w3.org/2000/svg" version="1.1">
 <metadata>
  <rdf:RDF xmlns:dc="http://purl.org/dc/elements/1.1/" xmlns:cc="http://creativecommons.org/ns#" xmlns:rdf="http://www.w3.org/1999/02/22-rdf-syntax-ns#">
   <cc:Work>
    <dc:type rdf:resource="http://purl.org/dc/dcmitype/StillImage"/>
    <dc:date>2024-01-15T21:41:06.565863</dc:date>
    <dc:format>image/svg+xml</dc:format>
    <dc:creator>
     <cc:Agent>
      <dc:title>Matplotlib v3.5.1, https://matplotlib.org/</dc:title>
     </cc:Agent>
    </dc:creator>
   </cc:Work>
  </rdf:RDF>
 </metadata>
 <defs>
  <style type="text/css">*{stroke-linejoin: round; stroke-linecap: butt}</style>
 </defs>
 <g id="figure_1">
  <g id="patch_1">
   <path d="M 0 216 
L 720 216 
L 720 0 
L 0 0 
z
" style="fill: #ffffff"/>
  </g>
  <g id="axes_1">
   <g id="patch_2">
    <path d="M 47.72 174.04 
L 265.215 174.04 
L 265.215 26.88 
L 47.72 26.88 
z
" style="fill: #ffffff"/>
   </g>
   <g id="PolyCollection_1">
    <path d="M 47.72 33.569091 
L 47.72 33.569092 
L 59.167105 34.734967 
L 70.614211 38.159744 
L 82.061316 42.845428 
L 93.508421 48.743212 
L 104.955526 55.282989 
L 116.402632 62.890867 
L 127.849737 70.858691 
L 139.296842 79.395387 
L 150.743947 87.641892 
L 162.191053 95.481623 
L 173.638158 102.206424 
L 185.085263 109.637655 
L 196.532368 116.360734 
L 207.979474 122.612148 
L 219.426579 128.959846 
L 230.873684 134.473221 
L 242.320789 140.073297 
L 253.767895 144.658097 
L 265.215 150.456108 
L 265.215 139.769305 
L 265.215 139.769305 
L 253.767895 134.548369 
L 242.320789 130.266797 
L 230.873684 124.691109 
L 219.426579 118.798572 
L 207.979474 112.7722 
L 196.532368 106.784432 
L 185.085263 99.083424 
L 173.638158 92.428742 
L 162.191053 85.153229 
L 150.743947 77.371067 
L 139.296842 69.921063 
L 127.849737 63.316863 
L 116.402632 56.452842 
L 104.955526 50.216451 
L 93.508421 44.934222 
L 82.061316 40.150299 
L 70.614211 36.687878 
L 59.167105 34.328226 
L 47.72 33.569091 
z
" clip-path="url(#p577dccc8c7)" style="fill: #1f77b4; fill-opacity: 0.4"/>
   </g>
   <g id="PolyCollection_2">
    <path d="M 47.72 33.569232 
L 47.72 33.569309 
L 59.167105 34.296904 
L 70.614211 36.045704 
L 82.061316 38.789116 
L 93.508421 42.500001 
L 104.955526 46.7258 
L 116.402632 51.785639 
L 127.849737 57.149297 
L 139.296842 63.363274 
L 150.743947 70.182546 
L 162.191053 77.00217 
L 173.638158 83.290805 
L 185.085263 90.381949 
L 196.532368 97.258302 
L 207.979474 103.547242 
L 219.426579 109.90871 
L 230.873684 115.642885 
L 242.320789 121.285172 
L 253.767895 126.111695 
L 265.215 131.935569 
L 265.215 119.324283 
L 265.215 119.324283 
L 253.767895 113.859084 
L 242.320789 109.379798 
L 230.873684 103.563126 
L 219.426579 97.79606 
L 207.979474 91.976966 
L 196.532368 86.283698 
L 185.085263 79.699198 
L 173.638158 73.932589 
L 162.191053 68.005474 
L 150.743947 61.875897 
L 139.296842 56.401615 
L 127.849737 51.801728 
L 116.402632 46.826096 
L 104.955526 43.01045 
L 93.508421 39.76049 
L 82.061316 37.171471 
L 70.614211 35.346925 
L 59.167105 34.083864 
L 47.72 33.569232 
z
" clip-path="url(#p577dccc8c7)" style="fill: #ff7f0e; fill-opacity: 0.4"/>
   </g>
   <g id="PolyCollection_3">
    <path d="M 47.72 33.5691 
L 47.72 33.569105 
L 59.167105 34.45674 
L 70.614211 36.290259 
L 82.061316 38.471682 
L 93.508421 41.390483 
L 104.955526 44.32144 
L 116.402632 47.860295 
L 127.849737 51.535381 
L 139.296842 55.390464 
L 150.743947 59.444376 
L 162.191053 63.599541 
L 173.638158 67.521932 
L 185.085263 71.237603 
L 196.532368 75.351617 
L 207.979474 79.293675 
L 219.426579 82.733215 
L 230.873684 86.396085 
L 242.320789 90.231823 
L 253.767895 93.664488 
L 265.215 97.578273 
L 265.215 85.373846 
L 265.215 85.373846 
L 253.767895 81.855958 
L 242.320789 78.695793 
L 230.873684 75.163103 
L 219.426579 71.547212 
L 207.979474 68.080216 
L 196.532368 64.680346 
L 185.085263 60.984734 
L 173.638158 57.782406 
L 162.191053 54.609792 
L 150.743947 50.87434 
L 139.296842 47.960317 
L 127.849737 45.353342 
L 116.402632 42.344356 
L 104.955526 40.057347 
L 93.508421 37.951073 
L 82.061316 36.158345 
L 70.614211 34.991916 
L 59.167105 34.129327 
L 47.72 33.5691 
z
" clip-path="url(#p577dccc8c7)" style="fill: #2ca02c; fill-opacity: 0.4"/>
   </g>
   <g id="PolyCollection_4">
    <path d="M 47.72 33.569834 
L 47.72 33.570314 
L 59.167105 34.254051 
L 70.614211 35.56333 
L 82.061316 37.278367 
L 93.508421 39.683279 
L 104.955526 42.185629 
L 116.402632 45.227588 
L 127.849737 48.47051 
L 139.296842 52.017968 
L 150.743947 56.009506 
L 162.191053 60.173973 
L 173.638158 64.129997 
L 185.085263 67.995006 
L 196.532368 72.211618 
L 207.979474 76.288998 
L 219.426579 79.941271 
L 230.873684 83.908223 
L 242.320789 87.940677 
L 253.767895 91.70913 
L 265.215 95.802429 
L 265.215 83.922878 
L 265.215 83.922878 
L 253.767895 80.329085 
L 242.320789 77.135027 
L 230.873684 73.52544 
L 219.426579 69.861014 
L 207.979474 66.352754 
L 196.532368 62.857478 
L 185.085263 59.013431 
L 173.638158 55.629467 
L 162.191053 52.447688 
L 150.743947 48.769115 
L 139.296842 45.94091 
L 127.849737 43.453477 
L 116.402632 40.634408 
L 104.955526 38.700073 
L 93.508421 36.939915 
L 82.061316 35.605841 
L 70.614211 34.727864 
L 59.167105 34.045983 
L 47.72 33.569834 
z
" clip-path="url(#p577dccc8c7)" style="fill: #d62728; fill-opacity: 0.4"/>
   </g>
   <g id="PolyCollection_5">
    <path d="M 47.72 33.5691 
L 47.72 33.569105 
L 59.167105 34.737977 
L 70.614211 38.154642 
L 82.061316 42.877821 
L 93.508421 48.697328 
L 104.955526 55.359923 
L 116.402632 62.945061 
L 127.849737 71.070825 
L 139.296842 79.6616 
L 150.743947 88.029407 
L 162.191053 95.738628 
L 173.638158 102.112195 
L 185.085263 109.647145 
L 196.532368 116.645603 
L 207.979474 122.630495 
L 219.426579 129.099253 
L 230.873684 134.490299 
L 242.320789 140.341021 
L 253.767895 144.662853 
L 265.215 151.389697 
L 265.215 140.157274 
L 265.215 140.157274 
L 253.767895 135.130558 
L 242.320789 131.045441 
L 230.873684 124.690843 
L 219.426579 119.086526 
L 207.979474 112.910482 
L 196.532368 106.938254 
L 185.085263 98.784818 
L 173.638158 92.463603 
L 162.191053 85.933272 
L 150.743947 77.452033 
L 139.296842 70.09547 
L 127.849737 63.551984 
L 116.402632 56.450925 
L 104.955526 50.253985 
L 93.508421 44.995248 
L 82.061316 40.222202 
L 70.614211 36.695263 
L 59.167105 34.327328 
L 47.72 33.5691 
z
" clip-path="url(#p577dccc8c7)" style="fill: #9467bd; fill-opacity: 0.4"/>
   </g>
   <g id="PolyCollection_6">
    <path d="M 47.72 33.569664 
L 47.72 33.569973 
L 59.167105 34.297716 
L 70.614211 36.053365 
L 82.061316 38.812602 
L 93.508421 42.46244 
L 104.955526 46.781454 
L 116.402632 51.857355 
L 127.849737 57.19332 
L 139.296842 63.44633 
L 150.743947 70.41145 
L 162.191053 77.185578 
L 173.638158 83.210757 
L 185.085263 90.500968 
L 196.532368 97.435737 
L 207.979474 103.72389 
L 219.426579 110.003242 
L 230.873684 115.684832 
L 242.320789 121.448419 
L 253.767895 126.371319 
L 265.215 132.423718 
L 265.215 119.751786 
L 265.215 119.751786 
L 253.767895 114.310209 
L 242.320789 109.805012 
L 230.873684 103.458447 
L 219.426579 97.910723 
L 207.979474 92.159148 
L 196.532368 86.344636 
L 185.085263 79.599626 
L 173.638158 74.000806 
L 162.191053 68.464555 
L 150.743947 61.943026 
L 139.296842 56.530979 
L 127.849737 51.9033 
L 116.402632 46.87613 
L 104.955526 43.058669 
L 93.508421 39.779053 
L 82.061316 37.1863 
L 70.614211 35.343181 
L 59.167105 34.083466 
L 47.72 33.569664 
z
" clip-path="url(#p577dccc8c7)" style="fill: #8c564b; fill-opacity: 0.4"/>
   </g>
   <g id="PolyCollection_7">
    <path d="M 47.72 45.933478 
L 47.72 51.168488 
L 59.167105 52.960547 
L 70.614211 58.133045 
L 82.061316 64.775674 
L 93.508421 72.24699 
L 104.955526 79.367227 
L 116.402632 87.379695 
L 127.849737 95.61986 
L 139.296842 104.085045 
L 150.743947 112.911848 
L 162.191053 120.666682 
L 173.638158 127.977255 
L 185.085263 134.601017 
L 196.532368 141.002978 
L 207.979474 146.427358 
L 219.426579 151.316402 
L 230.873684 155.669956 
L 242.320789 159.749076 
L 253.767895 163.102652 
L 265.215 167.350909 
L 265.215 159.824485 
L 265.215 159.824485 
L 253.767895 154.735811 
L 242.320789 150.266621 
L 230.873684 144.956478 
L 219.426579 138.853144 
L 207.979474 132.664103 
L 196.532368 126.131333 
L 185.085263 118.464891 
L 173.638158 110.998642 
L 162.191053 103.356479 
L 150.743947 94.642713 
L 139.296842 86.987417 
L 127.849737 79.378603 
L 116.402632 71.330675 
L 104.955526 64.090352 
L 93.508421 57.766159 
L 82.061316 52.2353 
L 70.614211 48.705589 
L 59.167105 46.741115 
L 47.72 45.933478 
z
" clip-path="url(#p577dccc8c7)" style="fill: #e377c2; fill-opacity: 0.4"/>
   </g>
   <g id="PolyCollection_8">
    <path d="M 47.72 33.569316 
L 47.72 33.569611 
L 59.167105 33.853855 
L 70.614211 34.430666 
L 82.061316 35.924718 
L 93.508421 38.673733 
L 104.955526 42.105798 
L 116.402632 46.00608 
L 127.849737 50.097479 
L 139.296842 54.154841 
L 150.743947 59.380253 
L 162.191053 65.223133 
L 173.638158 71.378849 
L 185.085263 77.623501 
L 196.532368 84.463815 
L 207.979474 90.801964 
L 219.426579 97.156208 
L 230.873684 103.341539 
L 242.320789 108.982706 
L 253.767895 114.154461 
L 265.215 120.266878 
L 265.215 105.983716 
L 265.215 105.983716 
L 253.767895 99.900218 
L 242.320789 94.401044 
L 230.873684 87.730821 
L 219.426579 81.871676 
L 207.979474 75.948355 
L 196.532368 70.131645 
L 185.085263 63.737901 
L 173.638158 58.278775 
L 162.191053 52.944562 
L 150.743947 47.44603 
L 139.296842 42.767142 
L 127.849737 38.882252 
L 116.402632 35.780217 
L 104.955526 34.182373 
L 93.508421 33.654623 
L 82.061316 33.57095 
L 70.614211 33.755241 
L 59.167105 33.832326 
L 47.72 33.569316 
z
" clip-path="url(#p577dccc8c7)" style="fill: #7f7f7f; fill-opacity: 0.4"/>
   </g>
   <g id="matplotlib.axis_1">
    <g id="xtick_1">
     <g id="line2d_1">
      <defs>
       <path id="ma0db238d5e" d="M 0 0 
L 0 3.5 
" style="stroke: #000000; stroke-width: 0.8"/>
      </defs>
      <g>
       <use xlink:href="#ma0db238d5e" x="47.72" y="174.04" style="stroke: #000000; stroke-width: 0.8"/>
      </g>
     </g>
     <g id="text_1">
      <!-- 0.0 -->
      <g transform="translate(39.768438 188.638438)scale(0.1 -0.1)">
       <defs>
        <path id="DejaVuSans-30" d="M 2034 4250 
Q 1547 4250 1301 3770 
Q 1056 3291 1056 2328 
Q 1056 1369 1301 889 
Q 1547 409 2034 409 
Q 2525 409 2770 889 
Q 3016 1369 3016 2328 
Q 3016 3291 2770 3770 
Q 2525 4250 2034 4250 
z
M 2034 4750 
Q 2819 4750 3233 4129 
Q 3647 3509 3647 2328 
Q 3647 1150 3233 529 
Q 2819 -91 2034 -91 
Q 1250 -91 836 529 
Q 422 1150 422 2328 
Q 422 3509 836 4129 
Q 1250 4750 2034 4750 
z
" transform="scale(0.015625)"/>
        <path id="DejaVuSans-2e" d="M 684 794 
L 1344 794 
L 1344 0 
L 684 0 
L 684 794 
z
" transform="scale(0.015625)"/>
       </defs>
       <use xlink:href="#DejaVuSans-30"/>
       <use xlink:href="#DejaVuSans-2e" x="63.623047"/>
       <use xlink:href="#DejaVuSans-30" x="95.410156"/>
      </g>
     </g>
    </g>
    <g id="xtick_2">
     <g id="line2d_2">
      <g>
       <use xlink:href="#ma0db238d5e" x="102.09375" y="174.04" style="stroke: #000000; stroke-width: 0.8"/>
      </g>
     </g>
     <g id="text_2">
      <!-- 0.5 -->
      <g transform="translate(94.142188 188.638438)scale(0.1 -0.1)">
       <defs>
        <path id="DejaVuSans-35" d="M 691 4666 
L 3169 4666 
L 3169 4134 
L 1269 4134 
L 1269 2991 
Q 1406 3038 1543 3061 
Q 1681 3084 1819 3084 
Q 2600 3084 3056 2656 
Q 3513 2228 3513 1497 
Q 3513 744 3044 326 
Q 2575 -91 1722 -91 
Q 1428 -91 1123 -41 
Q 819 9 494 109 
L 494 744 
Q 775 591 1075 516 
Q 1375 441 1709 441 
Q 2250 441 2565 725 
Q 2881 1009 2881 1497 
Q 2881 1984 2565 2268 
Q 2250 2553 1709 2553 
Q 1456 2553 1204 2497 
Q 953 2441 691 2322 
L 691 4666 
z
" transform="scale(0.015625)"/>
       </defs>
       <use xlink:href="#DejaVuSans-30"/>
       <use xlink:href="#DejaVuSans-2e" x="63.623047"/>
       <use xlink:href="#DejaVuSans-35" x="95.410156"/>
      </g>
     </g>
    </g>
    <g id="xtick_3">
     <g id="line2d_3">
      <g>
       <use xlink:href="#ma0db238d5e" x="156.4675" y="174.04" style="stroke: #000000; stroke-width: 0.8"/>
      </g>
     </g>
     <g id="text_3">
      <!-- 1.0 -->
      <g transform="translate(148.515938 188.638438)scale(0.1 -0.1)">
       <defs>
        <path id="DejaVuSans-31" d="M 794 531 
L 1825 531 
L 1825 4091 
L 703 3866 
L 703 4441 
L 1819 4666 
L 2450 4666 
L 2450 531 
L 3481 531 
L 3481 0 
L 794 0 
L 794 531 
z
" transform="scale(0.015625)"/>
       </defs>
       <use xlink:href="#DejaVuSans-31"/>
       <use xlink:href="#DejaVuSans-2e" x="63.623047"/>
       <use xlink:href="#DejaVuSans-30" x="95.410156"/>
      </g>
     </g>
    </g>
    <g id="xtick_4">
     <g id="line2d_4">
      <g>
       <use xlink:href="#ma0db238d5e" x="210.84125" y="174.04" style="stroke: #000000; stroke-width: 0.8"/>
      </g>
     </g>
     <g id="text_4">
      <!-- 1.5 -->
      <g transform="translate(202.889687 188.638438)scale(0.1 -0.1)">
       <use xlink:href="#DejaVuSans-31"/>
       <use xlink:href="#DejaVuSans-2e" x="63.623047"/>
       <use xlink:href="#DejaVuSans-35" x="95.410156"/>
      </g>
     </g>
    </g>
    <g id="xtick_5">
     <g id="line2d_5">
      <g>
       <use xlink:href="#ma0db238d5e" x="265.215" y="174.04" style="stroke: #000000; stroke-width: 0.8"/>
      </g>
     </g>
     <g id="text_5">
      <!-- 2.0 -->
      <g transform="translate(257.263437 188.638438)scale(0.1 -0.1)">
       <defs>
        <path id="DejaVuSans-32" d="M 1228 531 
L 3431 531 
L 3431 0 
L 469 0 
L 469 531 
Q 828 903 1448 1529 
Q 2069 2156 2228 2338 
Q 2531 2678 2651 2914 
Q 2772 3150 2772 3378 
Q 2772 3750 2511 3984 
Q 2250 4219 1831 4219 
Q 1534 4219 1204 4116 
Q 875 4013 500 3803 
L 500 4441 
Q 881 4594 1212 4672 
Q 1544 4750 1819 4750 
Q 2544 4750 2975 4387 
Q 3406 4025 3406 3419 
Q 3406 3131 3298 2873 
Q 3191 2616 2906 2266 
Q 2828 2175 2409 1742 
Q 1991 1309 1228 531 
z
" transform="scale(0.015625)"/>
       </defs>
       <use xlink:href="#DejaVuSans-32"/>
       <use xlink:href="#DejaVuSans-2e" x="63.623047"/>
       <use xlink:href="#DejaVuSans-30" x="95.410156"/>
      </g>
     </g>
    </g>
    <g id="text_6">
     <!-- Influence of surprisal (multiplication) -->
     <g transform="translate(64.320625 202.316563)scale(0.1 -0.1)">
      <defs>
       <path id="DejaVuSans-49" d="M 628 4666 
L 1259 4666 
L 1259 0 
L 628 0 
L 628 4666 
z
" transform="scale(0.015625)"/>
       <path id="DejaVuSans-6e" d="M 3513 2113 
L 3513 0 
L 2938 0 
L 2938 2094 
Q 2938 2591 2744 2837 
Q 2550 3084 2163 3084 
Q 1697 3084 1428 2787 
Q 1159 2491 1159 1978 
L 1159 0 
L 581 0 
L 581 3500 
L 1159 3500 
L 1159 2956 
Q 1366 3272 1645 3428 
Q 1925 3584 2291 3584 
Q 2894 3584 3203 3211 
Q 3513 2838 3513 2113 
z
" transform="scale(0.015625)"/>
       <path id="DejaVuSans-66" d="M 2375 4863 
L 2375 4384 
L 1825 4384 
Q 1516 4384 1395 4259 
Q 1275 4134 1275 3809 
L 1275 3500 
L 2222 3500 
L 2222 3053 
L 1275 3053 
L 1275 0 
L 697 0 
L 697 3053 
L 147 3053 
L 147 3500 
L 697 3500 
L 697 3744 
Q 697 4328 969 4595 
Q 1241 4863 1831 4863 
L 2375 4863 
z
" transform="scale(0.015625)"/>
       <path id="DejaVuSans-6c" d="M 603 4863 
L 1178 4863 
L 1178 0 
L 603 0 
L 603 4863 
z
" transform="scale(0.015625)"/>
       <path id="DejaVuSans-75" d="M 544 1381 
L 544 3500 
L 1119 3500 
L 1119 1403 
Q 1119 906 1312 657 
Q 1506 409 1894 409 
Q 2359 409 2629 706 
Q 2900 1003 2900 1516 
L 2900 3500 
L 3475 3500 
L 3475 0 
L 2900 0 
L 2900 538 
Q 2691 219 2414 64 
Q 2138 -91 1772 -91 
Q 1169 -91 856 284 
Q 544 659 544 1381 
z
M 1991 3584 
L 1991 3584 
z
" transform="scale(0.015625)"/>
       <path id="DejaVuSans-65" d="M 3597 1894 
L 3597 1613 
L 953 1613 
Q 991 1019 1311 708 
Q 1631 397 2203 397 
Q 2534 397 2845 478 
Q 3156 559 3463 722 
L 3463 178 
Q 3153 47 2828 -22 
Q 2503 -91 2169 -91 
Q 1331 -91 842 396 
Q 353 884 353 1716 
Q 353 2575 817 3079 
Q 1281 3584 2069 3584 
Q 2775 3584 3186 3129 
Q 3597 2675 3597 1894 
z
M 3022 2063 
Q 3016 2534 2758 2815 
Q 2500 3097 2075 3097 
Q 1594 3097 1305 2825 
Q 1016 2553 972 2059 
L 3022 2063 
z
" transform="scale(0.015625)"/>
       <path id="DejaVuSans-63" d="M 3122 3366 
L 3122 2828 
Q 2878 2963 2633 3030 
Q 2388 3097 2138 3097 
Q 1578 3097 1268 2742 
Q 959 2388 959 1747 
Q 959 1106 1268 751 
Q 1578 397 2138 397 
Q 2388 397 2633 464 
Q 2878 531 3122 666 
L 3122 134 
Q 2881 22 2623 -34 
Q 2366 -91 2075 -91 
Q 1284 -91 818 406 
Q 353 903 353 1747 
Q 353 2603 823 3093 
Q 1294 3584 2113 3584 
Q 2378 3584 2631 3529 
Q 2884 3475 3122 3366 
z
" transform="scale(0.015625)"/>
       <path id="DejaVuSans-20" transform="scale(0.015625)"/>
       <path id="DejaVuSans-6f" d="M 1959 3097 
Q 1497 3097 1228 2736 
Q 959 2375 959 1747 
Q 959 1119 1226 758 
Q 1494 397 1959 397 
Q 2419 397 2687 759 
Q 2956 1122 2956 1747 
Q 2956 2369 2687 2733 
Q 2419 3097 1959 3097 
z
M 1959 3584 
Q 2709 3584 3137 3096 
Q 3566 2609 3566 1747 
Q 3566 888 3137 398 
Q 2709 -91 1959 -91 
Q 1206 -91 779 398 
Q 353 888 353 1747 
Q 353 2609 779 3096 
Q 1206 3584 1959 3584 
z
" transform="scale(0.015625)"/>
       <path id="DejaVuSans-73" d="M 2834 3397 
L 2834 2853 
Q 2591 2978 2328 3040 
Q 2066 3103 1784 3103 
Q 1356 3103 1142 2972 
Q 928 2841 928 2578 
Q 928 2378 1081 2264 
Q 1234 2150 1697 2047 
L 1894 2003 
Q 2506 1872 2764 1633 
Q 3022 1394 3022 966 
Q 3022 478 2636 193 
Q 2250 -91 1575 -91 
Q 1294 -91 989 -36 
Q 684 19 347 128 
L 347 722 
Q 666 556 975 473 
Q 1284 391 1588 391 
Q 1994 391 2212 530 
Q 2431 669 2431 922 
Q 2431 1156 2273 1281 
Q 2116 1406 1581 1522 
L 1381 1569 
Q 847 1681 609 1914 
Q 372 2147 372 2553 
Q 372 3047 722 3315 
Q 1072 3584 1716 3584 
Q 2034 3584 2315 3537 
Q 2597 3491 2834 3397 
z
" transform="scale(0.015625)"/>
       <path id="DejaVuSans-72" d="M 2631 2963 
Q 2534 3019 2420 3045 
Q 2306 3072 2169 3072 
Q 1681 3072 1420 2755 
Q 1159 2438 1159 1844 
L 1159 0 
L 581 0 
L 581 3500 
L 1159 3500 
L 1159 2956 
Q 1341 3275 1631 3429 
Q 1922 3584 2338 3584 
Q 2397 3584 2469 3576 
Q 2541 3569 2628 3553 
L 2631 2963 
z
" transform="scale(0.015625)"/>
       <path id="DejaVuSans-70" d="M 1159 525 
L 1159 -1331 
L 581 -1331 
L 581 3500 
L 1159 3500 
L 1159 2969 
Q 1341 3281 1617 3432 
Q 1894 3584 2278 3584 
Q 2916 3584 3314 3078 
Q 3713 2572 3713 1747 
Q 3713 922 3314 415 
Q 2916 -91 2278 -91 
Q 1894 -91 1617 61 
Q 1341 213 1159 525 
z
M 3116 1747 
Q 3116 2381 2855 2742 
Q 2594 3103 2138 3103 
Q 1681 3103 1420 2742 
Q 1159 2381 1159 1747 
Q 1159 1113 1420 752 
Q 1681 391 2138 391 
Q 2594 391 2855 752 
Q 3116 1113 3116 1747 
z
" transform="scale(0.015625)"/>
       <path id="DejaVuSans-69" d="M 603 3500 
L 1178 3500 
L 1178 0 
L 603 0 
L 603 3500 
z
M 603 4863 
L 1178 4863 
L 1178 4134 
L 603 4134 
L 603 4863 
z
" transform="scale(0.015625)"/>
       <path id="DejaVuSans-61" d="M 2194 1759 
Q 1497 1759 1228 1600 
Q 959 1441 959 1056 
Q 959 750 1161 570 
Q 1363 391 1709 391 
Q 2188 391 2477 730 
Q 2766 1069 2766 1631 
L 2766 1759 
L 2194 1759 
z
M 3341 1997 
L 3341 0 
L 2766 0 
L 2766 531 
Q 2569 213 2275 61 
Q 1981 -91 1556 -91 
Q 1019 -91 701 211 
Q 384 513 384 1019 
Q 384 1609 779 1909 
Q 1175 2209 1959 2209 
L 2766 2209 
L 2766 2266 
Q 2766 2663 2505 2880 
Q 2244 3097 1772 3097 
Q 1472 3097 1187 3025 
Q 903 2953 641 2809 
L 641 3341 
Q 956 3463 1253 3523 
Q 1550 3584 1831 3584 
Q 2591 3584 2966 3190 
Q 3341 2797 3341 1997 
z
" transform="scale(0.015625)"/>
       <path id="DejaVuSans-28" d="M 1984 4856 
Q 1566 4138 1362 3434 
Q 1159 2731 1159 2009 
Q 1159 1288 1364 580 
Q 1569 -128 1984 -844 
L 1484 -844 
Q 1016 -109 783 600 
Q 550 1309 550 2009 
Q 550 2706 781 3412 
Q 1013 4119 1484 4856 
L 1984 4856 
z
" transform="scale(0.015625)"/>
       <path id="DejaVuSans-6d" d="M 3328 2828 
Q 3544 3216 3844 3400 
Q 4144 3584 4550 3584 
Q 5097 3584 5394 3201 
Q 5691 2819 5691 2113 
L 5691 0 
L 5113 0 
L 5113 2094 
Q 5113 2597 4934 2840 
Q 4756 3084 4391 3084 
Q 3944 3084 3684 2787 
Q 3425 2491 3425 1978 
L 3425 0 
L 2847 0 
L 2847 2094 
Q 2847 2600 2669 2842 
Q 2491 3084 2119 3084 
Q 1678 3084 1418 2786 
Q 1159 2488 1159 1978 
L 1159 0 
L 581 0 
L 581 3500 
L 1159 3500 
L 1159 2956 
Q 1356 3278 1631 3431 
Q 1906 3584 2284 3584 
Q 2666 3584 2933 3390 
Q 3200 3197 3328 2828 
z
" transform="scale(0.015625)"/>
       <path id="DejaVuSans-74" d="M 1172 4494 
L 1172 3500 
L 2356 3500 
L 2356 3053 
L 1172 3053 
L 1172 1153 
Q 1172 725 1289 603 
Q 1406 481 1766 481 
L 2356 481 
L 2356 0 
L 1766 0 
Q 1100 0 847 248 
Q 594 497 594 1153 
L 594 3053 
L 172 3053 
L 172 3500 
L 594 3500 
L 594 4494 
L 1172 4494 
z
" transform="scale(0.015625)"/>
       <path id="DejaVuSans-29" d="M 513 4856 
L 1013 4856 
Q 1481 4119 1714 3412 
Q 1947 2706 1947 2009 
Q 1947 1309 1714 600 
Q 1481 -109 1013 -844 
L 513 -844 
Q 928 -128 1133 580 
Q 1338 1288 1338 2009 
Q 1338 2731 1133 3434 
Q 928 4138 513 4856 
z
" transform="scale(0.015625)"/>
      </defs>
      <use xlink:href="#DejaVuSans-49"/>
      <use xlink:href="#DejaVuSans-6e" x="29.492188"/>
      <use xlink:href="#DejaVuSans-66" x="92.871094"/>
      <use xlink:href="#DejaVuSans-6c" x="128.076172"/>
      <use xlink:href="#DejaVuSans-75" x="155.859375"/>
      <use xlink:href="#DejaVuSans-65" x="219.238281"/>
      <use xlink:href="#DejaVuSans-6e" x="280.761719"/>
      <use xlink:href="#DejaVuSans-63" x="344.140625"/>
      <use xlink:href="#DejaVuSans-65" x="399.121094"/>
      <use xlink:href="#DejaVuSans-20" x="460.644531"/>
      <use xlink:href="#DejaVuSans-6f" x="492.431641"/>
      <use xlink:href="#DejaVuSans-66" x="553.613281"/>
      <use xlink:href="#DejaVuSans-20" x="588.818359"/>
      <use xlink:href="#DejaVuSans-73" x="620.605469"/>
      <use xlink:href="#DejaVuSans-75" x="672.705078"/>
      <use xlink:href="#DejaVuSans-72" x="736.083984"/>
      <use xlink:href="#DejaVuSans-70" x="777.197266"/>
      <use xlink:href="#DejaVuSans-72" x="840.673828"/>
      <use xlink:href="#DejaVuSans-69" x="881.787109"/>
      <use xlink:href="#DejaVuSans-73" x="909.570312"/>
      <use xlink:href="#DejaVuSans-61" x="961.669922"/>
      <use xlink:href="#DejaVuSans-6c" x="1022.949219"/>
      <use xlink:href="#DejaVuSans-20" x="1050.732422"/>
      <use xlink:href="#DejaVuSans-28" x="1082.519531"/>
      <use xlink:href="#DejaVuSans-6d" x="1121.533203"/>
      <use xlink:href="#DejaVuSans-75" x="1218.945312"/>
      <use xlink:href="#DejaVuSans-6c" x="1282.324219"/>
      <use xlink:href="#DejaVuSans-74" x="1310.107422"/>
      <use xlink:href="#DejaVuSans-69" x="1349.316406"/>
      <use xlink:href="#DejaVuSans-70" x="1377.099609"/>
      <use xlink:href="#DejaVuSans-6c" x="1440.576172"/>
      <use xlink:href="#DejaVuSans-69" x="1468.359375"/>
      <use xlink:href="#DejaVuSans-63" x="1496.142578"/>
      <use xlink:href="#DejaVuSans-61" x="1551.123047"/>
      <use xlink:href="#DejaVuSans-74" x="1612.402344"/>
      <use xlink:href="#DejaVuSans-69" x="1651.611328"/>
      <use xlink:href="#DejaVuSans-6f" x="1679.394531"/>
      <use xlink:href="#DejaVuSans-6e" x="1740.576172"/>
      <use xlink:href="#DejaVuSans-29" x="1803.955078"/>
     </g>
    </g>
   </g>
   <g id="matplotlib.axis_2">
    <g id="ytick_1">
     <g id="line2d_6">
      <defs>
       <path id="m2db296a099" d="M 0 0 
L -3.5 0 
" style="stroke: #000000; stroke-width: 0.8"/>
      </defs>
      <g>
       <use xlink:href="#m2db296a099" x="47.72" y="143.365609" style="stroke: #000000; stroke-width: 0.8"/>
      </g>
     </g>
     <g id="text_7">
      <!-- 0.4 -->
      <g transform="translate(24.816875 147.164828)scale(0.1 -0.1)">
       <defs>
        <path id="DejaVuSans-34" d="M 2419 4116 
L 825 1625 
L 2419 1625 
L 2419 4116 
z
M 2253 4666 
L 3047 4666 
L 3047 1625 
L 3713 1625 
L 3713 1100 
L 3047 1100 
L 3047 0 
L 2419 0 
L 2419 1100 
L 313 1100 
L 313 1709 
L 2253 4666 
z
" transform="scale(0.015625)"/>
       </defs>
       <use xlink:href="#DejaVuSans-30"/>
       <use xlink:href="#DejaVuSans-2e" x="63.623047"/>
       <use xlink:href="#DejaVuSans-34" x="95.410156"/>
      </g>
     </g>
    </g>
    <g id="ytick_2">
     <g id="line2d_7">
      <g>
       <use xlink:href="#m2db296a099" x="47.72" y="106.766769" style="stroke: #000000; stroke-width: 0.8"/>
      </g>
     </g>
     <g id="text_8">
      <!-- 0.6 -->
      <g transform="translate(24.816875 110.565988)scale(0.1 -0.1)">
       <defs>
        <path id="DejaVuSans-36" d="M 2113 2584 
Q 1688 2584 1439 2293 
Q 1191 2003 1191 1497 
Q 1191 994 1439 701 
Q 1688 409 2113 409 
Q 2538 409 2786 701 
Q 3034 994 3034 1497 
Q 3034 2003 2786 2293 
Q 2538 2584 2113 2584 
z
M 3366 4563 
L 3366 3988 
Q 3128 4100 2886 4159 
Q 2644 4219 2406 4219 
Q 1781 4219 1451 3797 
Q 1122 3375 1075 2522 
Q 1259 2794 1537 2939 
Q 1816 3084 2150 3084 
Q 2853 3084 3261 2657 
Q 3669 2231 3669 1497 
Q 3669 778 3244 343 
Q 2819 -91 2113 -91 
Q 1303 -91 875 529 
Q 447 1150 447 2328 
Q 447 3434 972 4092 
Q 1497 4750 2381 4750 
Q 2619 4750 2861 4703 
Q 3103 4656 3366 4563 
z
" transform="scale(0.015625)"/>
       </defs>
       <use xlink:href="#DejaVuSans-30"/>
       <use xlink:href="#DejaVuSans-2e" x="63.623047"/>
       <use xlink:href="#DejaVuSans-36" x="95.410156"/>
      </g>
     </g>
    </g>
    <g id="ytick_3">
     <g id="line2d_8">
      <g>
       <use xlink:href="#m2db296a099" x="47.72" y="70.167928" style="stroke: #000000; stroke-width: 0.8"/>
      </g>
     </g>
     <g id="text_9">
      <!-- 0.8 -->
      <g transform="translate(24.816875 73.967147)scale(0.1 -0.1)">
       <defs>
        <path id="DejaVuSans-38" d="M 2034 2216 
Q 1584 2216 1326 1975 
Q 1069 1734 1069 1313 
Q 1069 891 1326 650 
Q 1584 409 2034 409 
Q 2484 409 2743 651 
Q 3003 894 3003 1313 
Q 3003 1734 2745 1975 
Q 2488 2216 2034 2216 
z
M 1403 2484 
Q 997 2584 770 2862 
Q 544 3141 544 3541 
Q 544 4100 942 4425 
Q 1341 4750 2034 4750 
Q 2731 4750 3128 4425 
Q 3525 4100 3525 3541 
Q 3525 3141 3298 2862 
Q 3072 2584 2669 2484 
Q 3125 2378 3379 2068 
Q 3634 1759 3634 1313 
Q 3634 634 3220 271 
Q 2806 -91 2034 -91 
Q 1263 -91 848 271 
Q 434 634 434 1313 
Q 434 1759 690 2068 
Q 947 2378 1403 2484 
z
M 1172 3481 
Q 1172 3119 1398 2916 
Q 1625 2713 2034 2713 
Q 2441 2713 2670 2916 
Q 2900 3119 2900 3481 
Q 2900 3844 2670 4047 
Q 2441 4250 2034 4250 
Q 1625 4250 1398 4047 
Q 1172 3844 1172 3481 
z
" transform="scale(0.015625)"/>
       </defs>
       <use xlink:href="#DejaVuSans-30"/>
       <use xlink:href="#DejaVuSans-2e" x="63.623047"/>
       <use xlink:href="#DejaVuSans-38" x="95.410156"/>
      </g>
     </g>
    </g>
    <g id="ytick_4">
     <g id="line2d_9">
      <g>
       <use xlink:href="#m2db296a099" x="47.72" y="33.569088" style="stroke: #000000; stroke-width: 0.8"/>
      </g>
     </g>
     <g id="text_10">
      <!-- 1.0 -->
      <g transform="translate(24.816875 37.368307)scale(0.1 -0.1)">
       <use xlink:href="#DejaVuSans-31"/>
       <use xlink:href="#DejaVuSans-2e" x="63.623047"/>
       <use xlink:href="#DejaVuSans-30" x="95.410156"/>
      </g>
     </g>
    </g>
    <g id="text_11">
     <!-- R-value -->
     <g transform="translate(18.737188 119.064687)rotate(-90)scale(0.1 -0.1)">
      <defs>
       <path id="DejaVuSans-52" d="M 2841 2188 
Q 3044 2119 3236 1894 
Q 3428 1669 3622 1275 
L 4263 0 
L 3584 0 
L 2988 1197 
Q 2756 1666 2539 1819 
Q 2322 1972 1947 1972 
L 1259 1972 
L 1259 0 
L 628 0 
L 628 4666 
L 2053 4666 
Q 2853 4666 3247 4331 
Q 3641 3997 3641 3322 
Q 3641 2881 3436 2590 
Q 3231 2300 2841 2188 
z
M 1259 4147 
L 1259 2491 
L 2053 2491 
Q 2509 2491 2742 2702 
Q 2975 2913 2975 3322 
Q 2975 3731 2742 3939 
Q 2509 4147 2053 4147 
L 1259 4147 
z
" transform="scale(0.015625)"/>
       <path id="DejaVuSans-2d" d="M 313 2009 
L 1997 2009 
L 1997 1497 
L 313 1497 
L 313 2009 
z
" transform="scale(0.015625)"/>
       <path id="DejaVuSans-76" d="M 191 3500 
L 800 3500 
L 1894 563 
L 2988 3500 
L 3597 3500 
L 2284 0 
L 1503 0 
L 191 3500 
z
" transform="scale(0.015625)"/>
      </defs>
      <use xlink:href="#DejaVuSans-52"/>
      <use xlink:href="#DejaVuSans-2d" x="65.482422"/>
      <use xlink:href="#DejaVuSans-76" x="98.941406"/>
      <use xlink:href="#DejaVuSans-61" x="158.121094"/>
      <use xlink:href="#DejaVuSans-6c" x="219.400391"/>
      <use xlink:href="#DejaVuSans-75" x="247.183594"/>
      <use xlink:href="#DejaVuSans-65" x="310.5625"/>
     </g>
    </g>
   </g>
   <g id="line2d_10">
    <path d="M 47.72 33.569092 
L 59.167105 34.531596 
L 70.614211 37.423811 
L 82.061316 41.497864 
L 93.508421 46.838717 
L 104.955526 52.74972 
L 116.402632 59.671854 
L 127.849737 67.087777 
L 139.296842 74.658225 
L 150.743947 82.50648 
L 162.191053 90.317426 
L 173.638158 97.317583 
L 185.085263 104.360539 
L 196.532368 111.572583 
L 207.979474 117.692174 
L 219.426579 123.879209 
L 230.873684 129.582165 
L 242.320789 135.170047 
L 253.767895 139.603233 
L 265.215 145.112707 
" clip-path="url(#p577dccc8c7)" style="fill: none; stroke: #1f77b4; stroke-width: 1.5; stroke-linecap: square"/>
   </g>
   <g id="line2d_11">
    <path d="M 47.72 33.569271 
L 59.167105 34.190384 
L 70.614211 35.696314 
L 82.061316 37.980294 
L 93.508421 41.130246 
L 104.955526 44.868125 
L 116.402632 49.305867 
L 127.849737 54.475513 
L 139.296842 59.882444 
L 150.743947 66.029222 
L 162.191053 72.503822 
L 173.638158 78.611697 
L 185.085263 85.040574 
L 196.532368 91.771 
L 207.979474 97.762104 
L 219.426579 103.852385 
L 230.873684 109.603006 
L 242.320789 115.332485 
L 253.767895 119.98539 
L 265.215 125.629926 
" clip-path="url(#p577dccc8c7)" style="fill: none; stroke: #ff7f0e; stroke-width: 1.5; stroke-linecap: square"/>
   </g>
   <g id="line2d_12">
    <path d="M 47.72 33.569102 
L 59.167105 34.293034 
L 70.614211 35.641087 
L 82.061316 37.315014 
L 93.508421 39.670778 
L 104.955526 42.189393 
L 116.402632 45.102325 
L 127.849737 48.444362 
L 139.296842 51.675391 
L 150.743947 55.159358 
L 162.191053 59.104666 
L 173.638158 62.652169 
L 185.085263 66.111168 
L 196.532368 70.015981 
L 207.979474 73.686946 
L 219.426579 77.140214 
L 230.873684 80.779594 
L 242.320789 84.463808 
L 253.767895 87.760223 
L 265.215 91.47606 
" clip-path="url(#p577dccc8c7)" style="fill: none; stroke: #2ca02c; stroke-width: 1.5; stroke-linecap: square"/>
   </g>
   <g id="line2d_13">
    <path d="M 47.72 33.570074 
L 59.167105 34.150017 
L 70.614211 35.145597 
L 82.061316 36.442104 
L 93.508421 38.311597 
L 104.955526 40.442851 
L 116.402632 42.930998 
L 127.849737 45.961994 
L 139.296842 48.979439 
L 150.743947 52.38931 
L 162.191053 56.310831 
L 173.638158 59.879732 
L 185.085263 63.504219 
L 196.532368 67.534548 
L 207.979474 71.320876 
L 219.426579 74.901142 
L 230.873684 78.716831 
L 242.320789 82.537852 
L 253.767895 86.019107 
L 265.215 89.862654 
" clip-path="url(#p577dccc8c7)" style="fill: none; stroke: #d62728; stroke-width: 1.5; stroke-linecap: square"/>
   </g>
   <g id="line2d_14">
    <path d="M 47.72 33.569102 
L 59.167105 34.532652 
L 70.614211 37.424953 
L 82.061316 41.550011 
L 93.508421 46.846288 
L 104.955526 52.806954 
L 116.402632 59.697993 
L 127.849737 67.311405 
L 139.296842 74.878535 
L 150.743947 82.74072 
L 162.191053 90.83595 
L 173.638158 97.287899 
L 185.085263 104.215982 
L 196.532368 111.791929 
L 207.979474 117.770488 
L 219.426579 124.09289 
L 230.873684 129.590571 
L 242.320789 135.693231 
L 253.767895 139.896705 
L 265.215 145.773486 
" clip-path="url(#p577dccc8c7)" style="fill: none; stroke: #9467bd; stroke-width: 1.5; stroke-linecap: square"/>
   </g>
   <g id="line2d_15">
    <path d="M 47.72 33.569819 
L 59.167105 34.190591 
L 70.614211 35.698273 
L 82.061316 37.999451 
L 93.508421 41.120747 
L 104.955526 44.920061 
L 116.402632 49.366742 
L 127.849737 54.54831 
L 139.296842 59.988654 
L 150.743947 66.177238 
L 162.191053 72.825067 
L 173.638158 78.605781 
L 185.085263 85.050297 
L 196.532368 91.890187 
L 207.979474 97.941519 
L 219.426579 103.956983 
L 230.873684 109.571639 
L 242.320789 115.626716 
L 253.767895 120.340764 
L 265.215 126.087752 
" clip-path="url(#p577dccc8c7)" style="fill: none; stroke: #8c564b; stroke-width: 1.5; stroke-linecap: square"/>
   </g>
   <g id="line2d_16">
    <path d="M 47.72 48.550983 
L 59.167105 49.850831 
L 70.614211 53.419317 
L 82.061316 58.505487 
L 93.508421 65.006575 
L 104.955526 71.72879 
L 116.402632 79.355185 
L 127.849737 87.499232 
L 139.296842 95.536231 
L 150.743947 103.777281 
L 162.191053 112.011581 
L 173.638158 119.487949 
L 185.085263 126.532954 
L 196.532368 133.567156 
L 207.979474 139.545731 
L 219.426579 145.084773 
L 230.873684 150.313217 
L 242.320789 155.007848 
L 253.767895 158.919231 
L 265.215 163.587697 
" clip-path="url(#p577dccc8c7)" style="fill: none; stroke: #e377c2; stroke-width: 1.5; stroke-linecap: square"/>
   </g>
   <g id="line2d_17">
    <path d="M 47.72 33.569463 
L 59.167105 33.843091 
L 70.614211 34.092954 
L 82.061316 34.747834 
L 93.508421 36.164178 
L 104.955526 38.144085 
L 116.402632 40.893148 
L 127.849737 44.489866 
L 139.296842 48.460991 
L 150.743947 53.413141 
L 162.191053 59.083848 
L 173.638158 64.828812 
L 185.085263 70.680701 
L 196.532368 77.29773 
L 207.979474 83.37516 
L 219.426579 89.513942 
L 230.873684 95.53618 
L 242.320789 101.691875 
L 253.767895 107.027339 
L 265.215 113.125297 
" clip-path="url(#p577dccc8c7)" style="fill: none; stroke: #7f7f7f; stroke-width: 1.5; stroke-linecap: square"/>
   </g>
   <g id="patch_3">
    <path d="M 47.72 174.04 
L 47.72 26.88 
" style="fill: none; stroke: #000000; stroke-width: 0.8; stroke-linejoin: miter; stroke-linecap: square"/>
   </g>
   <g id="patch_4">
    <path d="M 47.72 174.04 
L 265.215 174.04 
" style="fill: none; stroke: #000000; stroke-width: 0.8; stroke-linejoin: miter; stroke-linecap: square"/>
   </g>
   <g id="text_12">
    <!-- Node * surprisal -->
    <g transform="translate(108.18625 20.88)scale(0.12 -0.12)">
     <defs>
      <path id="DejaVuSans-4e" d="M 628 4666 
L 1478 4666 
L 3547 763 
L 3547 4666 
L 4159 4666 
L 4159 0 
L 3309 0 
L 1241 3903 
L 1241 0 
L 628 0 
L 628 4666 
z
" transform="scale(0.015625)"/>
      <path id="DejaVuSans-64" d="M 2906 2969 
L 2906 4863 
L 3481 4863 
L 3481 0 
L 2906 0 
L 2906 525 
Q 2725 213 2448 61 
Q 2172 -91 1784 -91 
Q 1150 -91 751 415 
Q 353 922 353 1747 
Q 353 2572 751 3078 
Q 1150 3584 1784 3584 
Q 2172 3584 2448 3432 
Q 2725 3281 2906 2969 
z
M 947 1747 
Q 947 1113 1208 752 
Q 1469 391 1925 391 
Q 2381 391 2643 752 
Q 2906 1113 2906 1747 
Q 2906 2381 2643 2742 
Q 2381 3103 1925 3103 
Q 1469 3103 1208 2742 
Q 947 2381 947 1747 
z
" transform="scale(0.015625)"/>
      <path id="DejaVuSans-2a" d="M 3009 3897 
L 1888 3291 
L 3009 2681 
L 2828 2375 
L 1778 3009 
L 1778 1831 
L 1422 1831 
L 1422 3009 
L 372 2375 
L 191 2681 
L 1313 3291 
L 191 3897 
L 372 4206 
L 1422 3572 
L 1422 4750 
L 1778 4750 
L 1778 3572 
L 2828 4206 
L 3009 3897 
z
" transform="scale(0.015625)"/>
     </defs>
     <use xlink:href="#DejaVuSans-4e"/>
     <use xlink:href="#DejaVuSans-6f" x="74.804688"/>
     <use xlink:href="#DejaVuSans-64" x="135.986328"/>
     <use xlink:href="#DejaVuSans-65" x="199.462891"/>
     <use xlink:href="#DejaVuSans-20" x="260.986328"/>
     <use xlink:href="#DejaVuSans-2a" x="292.773438"/>
     <use xlink:href="#DejaVuSans-20" x="342.773438"/>
     <use xlink:href="#DejaVuSans-73" x="374.560547"/>
     <use xlink:href="#DejaVuSans-75" x="426.660156"/>
     <use xlink:href="#DejaVuSans-72" x="490.039062"/>
     <use xlink:href="#DejaVuSans-70" x="531.152344"/>
     <use xlink:href="#DejaVuSans-72" x="594.628906"/>
     <use xlink:href="#DejaVuSans-69" x="635.742188"/>
     <use xlink:href="#DejaVuSans-73" x="663.525391"/>
     <use xlink:href="#DejaVuSans-61" x="715.625"/>
     <use xlink:href="#DejaVuSans-6c" x="776.904297"/>
    </g>
   </g>
  </g>
  <g id="axes_2">
   <g id="patch_5">
    <path d="M 298.065 174.04 
L 515.56 174.04 
L 515.56 26.88 
L 298.065 26.88 
z
" style="fill: #ffffff"/>
   </g>
   <g id="PolyCollection_9">
    <path d="M 298.065 33.569091 
L 298.065 33.569092 
L 309.512105 34.594955 
L 320.959211 37.584678 
L 332.406316 41.686838 
L 343.853421 47.266918 
L 355.300526 54.079196 
L 366.747632 61.520619 
L 378.194737 68.854441 
L 389.641842 77.065397 
L 401.088947 85.07901 
L 412.536053 93.424681 
L 423.983158 100.94771 
L 435.430263 108.234456 
L 446.877368 115.57649 
L 458.324474 122.099403 
L 469.771579 128.354928 
L 481.218684 134.58101 
L 492.665789 140.880792 
L 504.112895 145.693126 
L 515.56 150.490699 
L 515.56 135.919384 
L 515.56 135.919384 
L 504.112895 131.307585 
L 492.665789 126.453116 
L 481.218684 120.827614 
L 469.771579 115.235114 
L 458.324474 108.989813 
L 446.877368 102.899941 
L 435.430263 96.264135 
L 423.983158 90.072811 
L 412.536053 82.595562 
L 401.088947 76.111628 
L 389.641842 68.845632 
L 378.194737 62.217151 
L 366.747632 55.640921 
L 355.300526 49.648081 
L 343.853421 44.365223 
L 332.406316 39.793748 
L 320.959211 36.662534 
L 309.512105 34.33844 
L 298.065 33.569091 
z
" clip-path="url(#p9b69b23ca3)" style="fill: #1f77b4; fill-opacity: 0.4"/>
   </g>
   <g id="PolyCollection_10">
    <path d="M 298.065 33.569232 
L 298.065 33.569309 
L 309.512105 34.596326 
L 320.959211 37.584845 
L 332.406316 41.688848 
L 343.853421 47.263842 
L 355.300526 54.117567 
L 366.747632 61.560648 
L 378.194737 68.922724 
L 389.641842 77.18752 
L 401.088947 85.266103 
L 412.536053 93.679172 
L 423.983158 101.291778 
L 435.430263 108.637897 
L 446.877368 116.051535 
L 458.324474 122.713737 
L 469.771579 128.993484 
L 481.218684 135.297025 
L 492.665789 141.618495 
L 504.112895 146.474855 
L 515.56 151.195644 
L 515.56 136.236433 
L 515.56 136.236433 
L 504.112895 131.559562 
L 492.665789 126.605208 
L 481.218684 120.928361 
L 469.771579 115.314331 
L 458.324474 108.980719 
L 446.877368 102.891088 
L 435.430263 96.257043 
L 423.983158 90.068043 
L 412.536053 82.613778 
L 401.088947 76.113061 
L 389.641842 68.852578 
L 378.194737 62.234986 
L 366.747632 55.655985 
L 355.300526 49.647683 
L 343.853421 44.377309 
L 332.406316 39.79702 
L 320.959211 36.664132 
L 309.512105 34.336954 
L 298.065 33.569232 
z
" clip-path="url(#p9b69b23ca3)" style="fill: #ff7f0e; fill-opacity: 0.4"/>
   </g>
   <g id="PolyCollection_11">
    <path d="M 298.065 33.5691 
L 298.065 33.569105 
L 309.512105 34.59554 
L 320.959211 37.614183 
L 332.406316 41.707545 
L 343.853421 47.341859 
L 355.300526 54.247778 
L 366.747632 61.732034 
L 378.194737 69.06583 
L 389.641842 77.38368 
L 401.088947 85.425949 
L 412.536053 93.836832 
L 423.983158 101.404634 
L 435.430263 108.816086 
L 446.877368 116.135507 
L 458.324474 122.755782 
L 469.771579 128.996746 
L 481.218684 135.262909 
L 492.665789 141.534066 
L 504.112895 146.291479 
L 515.56 151.116233 
L 515.56 136.37814 
L 515.56 136.37814 
L 504.112895 131.740294 
L 492.665789 126.72133 
L 481.218684 121.054378 
L 469.771579 115.459885 
L 458.324474 109.12666 
L 446.877368 103.04882 
L 435.430263 96.4189 
L 423.983158 90.201156 
L 412.536053 82.732797 
L 401.088947 76.18438 
L 389.641842 68.873363 
L 378.194737 62.291065 
L 366.747632 55.646266 
L 355.300526 49.621998 
L 343.853421 44.370877 
L 332.406316 39.789175 
L 320.959211 36.65649 
L 309.512105 34.337558 
L 298.065 33.5691 
z
" clip-path="url(#p9b69b23ca3)" style="fill: #2ca02c; fill-opacity: 0.4"/>
   </g>
   <g id="PolyCollection_12">
    <path d="M 298.065 33.569834 
L 298.065 33.570314 
L 309.512105 34.59602 
L 320.959211 37.619391 
L 332.406316 41.712313 
L 343.853421 47.342736 
L 355.300526 54.267436 
L 366.747632 61.762555 
L 378.194737 69.106951 
L 389.641842 77.46083 
L 401.088947 85.535128 
L 412.536053 94.002958 
L 423.983158 101.607731 
L 435.430263 109.046266 
L 446.877368 116.416481 
L 458.324474 123.111954 
L 469.771579 129.394749 
L 481.218684 135.703867 
L 492.665789 141.989314 
L 504.112895 146.85735 
L 515.56 151.666219 
L 515.56 136.181795 
L 515.56 136.181795 
L 504.112895 131.48476 
L 492.665789 126.469558 
L 481.218684 120.791683 
L 469.771579 115.204433 
L 458.324474 108.867407 
L 446.877368 102.808334 
L 435.430263 96.218094 
L 423.983158 90.051987 
L 412.536053 82.610943 
L 401.088947 76.099443 
L 389.641842 68.818662 
L 378.194737 62.25436 
L 366.747632 55.622539 
L 355.300526 49.60445 
L 343.853421 44.362271 
L 332.406316 39.788393 
L 320.959211 36.655149 
L 309.512105 34.338369 
L 298.065 33.569834 
z
" clip-path="url(#p9b69b23ca3)" style="fill: #d62728; fill-opacity: 0.4"/>
   </g>
   <g id="PolyCollection_13">
    <path d="M 298.065 33.5691 
L 298.065 33.569105 
L 309.512105 34.59807 
L 320.959211 37.594838 
L 332.406316 41.687409 
L 343.853421 47.321076 
L 355.300526 54.210907 
L 366.747632 61.665692 
L 378.194737 68.775483 
L 389.641842 76.942767 
L 401.088947 85.158641 
L 412.536053 93.239807 
L 423.983158 100.821227 
L 435.430263 108.534719 
L 446.877368 115.309716 
L 458.324474 122.136587 
L 469.771579 128.18678 
L 481.218684 134.621939 
L 492.665789 140.450981 
L 504.112895 145.513273 
L 515.56 150.610747 
L 515.56 136.16354 
L 515.56 136.16354 
L 504.112895 131.774825 
L 492.665789 126.281641 
L 481.218684 121.171081 
L 469.771579 115.098971 
L 458.324474 109.20957 
L 446.877368 102.820284 
L 435.430263 96.186124 
L 423.983158 89.996084 
L 412.536053 82.692514 
L 401.088947 76.01735 
L 389.641842 68.968752 
L 378.194737 62.416038 
L 366.747632 55.666346 
L 355.300526 49.857132 
L 343.853421 44.410137 
L 332.406316 39.79216 
L 320.959211 36.673957 
L 309.512105 34.342558 
L 298.065 33.5691 
z
" clip-path="url(#p9b69b23ca3)" style="fill: #9467bd; fill-opacity: 0.4"/>
   </g>
   <g id="PolyCollection_14">
    <path d="M 298.065 33.569664 
L 298.065 33.569971 
L 309.512105 34.599926 
L 320.959211 37.595201 
L 332.406316 41.690117 
L 343.853421 47.316427 
L 355.300526 54.252498 
L 366.747632 61.705592 
L 378.194737 68.847054 
L 389.641842 77.071882 
L 401.088947 85.335307 
L 412.536053 93.462501 
L 423.983158 101.168432 
L 435.430263 108.962774 
L 446.877368 115.789563 
L 458.324474 122.729958 
L 469.771579 128.833854 
L 481.218684 135.305622 
L 492.665789 141.186642 
L 504.112895 146.293793 
L 515.56 151.243944 
L 515.56 136.486709 
L 515.56 136.486709 
L 504.112895 132.016027 
L 492.665789 126.434801 
L 481.218684 121.279785 
L 469.771579 115.199482 
L 458.324474 109.205576 
L 446.877368 102.797842 
L 435.430263 96.177579 
L 423.983158 89.999456 
L 412.536053 82.725614 
L 401.088947 76.019118 
L 389.641842 68.963765 
L 378.194737 62.425328 
L 366.747632 55.686224 
L 355.300526 49.862224 
L 343.853421 44.422045 
L 332.406316 39.796314 
L 320.959211 36.676077 
L 309.512105 34.341518 
L 298.065 33.569664 
z
" clip-path="url(#p9b69b23ca3)" style="fill: #8c564b; fill-opacity: 0.4"/>
   </g>
   <g id="PolyCollection_15">
    <path d="M 298.065 45.933478 
L 298.065 51.168488 
L 309.512105 51.955543 
L 320.959211 54.445755 
L 332.406316 57.959282 
L 343.853421 63.191899 
L 355.300526 69.088474 
L 366.747632 75.930984 
L 378.194737 82.946221 
L 389.641842 90.385519 
L 401.088947 97.482711 
L 412.536053 105.156276 
L 423.983158 111.978092 
L 435.430263 118.454193 
L 446.877368 125.141045 
L 458.324474 131.152404 
L 469.771579 136.670015 
L 481.218684 142.456404 
L 492.665789 148.207388 
L 504.112895 152.554703 
L 515.56 157.339786 
L 515.56 142.929091 
L 515.56 142.929091 
L 504.112895 138.472318 
L 492.665789 133.659383 
L 481.218684 127.90402 
L 469.771579 122.498452 
L 458.324474 116.63292 
L 446.877368 110.864855 
L 435.430263 104.664237 
L 423.983158 98.814001 
L 412.536053 92.316279 
L 401.088947 86.227861 
L 389.641842 79.449714 
L 378.194737 73.499521 
L 366.747632 67.408865 
L 355.300526 61.837785 
L 343.853421 56.724608 
L 332.406316 52.462751 
L 320.959211 49.159582 
L 309.512105 46.81361 
L 298.065 45.933478 
z
" clip-path="url(#p9b69b23ca3)" style="fill: #e377c2; fill-opacity: 0.4"/>
   </g>
   <g id="PolyCollection_16">
    <path d="M 298.065 33.569316 
L 298.065 33.569611 
L 309.512105 34.599832 
L 320.959211 37.602675 
L 332.406316 41.700645 
L 343.853421 47.324416 
L 355.300526 54.248767 
L 366.747632 61.725189 
L 378.194737 69.129215 
L 389.641842 77.453511 
L 401.088947 85.607026 
L 412.536053 94.092233 
L 423.983158 101.783069 
L 435.430263 109.121315 
L 446.877368 116.531589 
L 458.324474 123.253525 
L 469.771579 129.486184 
L 481.218684 135.783129 
L 492.665789 142.065755 
L 504.112895 146.823165 
L 515.56 151.598774 
L 515.56 136.636317 
L 515.56 136.636317 
L 504.112895 131.918673 
L 492.665789 126.895512 
L 481.218684 121.157491 
L 469.771579 115.497843 
L 458.324474 109.066153 
L 446.877368 102.979486 
L 435.430263 96.327224 
L 423.983158 90.062417 
L 412.536053 82.610437 
L 401.088947 76.072799 
L 389.641842 68.7993 
L 378.194737 62.212379 
L 366.747632 55.624161 
L 355.300526 49.612315 
L 343.853421 44.370399 
L 332.406316 39.789471 
L 320.959211 36.655549 
L 309.512105 34.338396 
L 298.065 33.569316 
z
" clip-path="url(#p9b69b23ca3)" style="fill: #7f7f7f; fill-opacity: 0.4"/>
   </g>
   <g id="matplotlib.axis_3">
    <g id="xtick_6">
     <g id="line2d_18">
      <g>
       <use xlink:href="#ma0db238d5e" x="298.065" y="174.04" style="stroke: #000000; stroke-width: 0.8"/>
      </g>
     </g>
     <g id="text_13">
      <!-- 0.0 -->
      <g transform="translate(290.113437 188.638438)scale(0.1 -0.1)">
       <use xlink:href="#DejaVuSans-30"/>
       <use xlink:href="#DejaVuSans-2e" x="63.623047"/>
       <use xlink:href="#DejaVuSans-30" x="95.410156"/>
      </g>
     </g>
    </g>
    <g id="xtick_7">
     <g id="line2d_19">
      <g>
       <use xlink:href="#ma0db238d5e" x="352.43875" y="174.04" style="stroke: #000000; stroke-width: 0.8"/>
      </g>
     </g>
     <g id="text_14">
      <!-- 0.5 -->
      <g transform="translate(344.487187 188.638438)scale(0.1 -0.1)">
       <use xlink:href="#DejaVuSans-30"/>
       <use xlink:href="#DejaVuSans-2e" x="63.623047"/>
       <use xlink:href="#DejaVuSans-35" x="95.410156"/>
      </g>
     </g>
    </g>
    <g id="xtick_8">
     <g id="line2d_20">
      <g>
       <use xlink:href="#ma0db238d5e" x="406.8125" y="174.04" style="stroke: #000000; stroke-width: 0.8"/>
      </g>
     </g>
     <g id="text_15">
      <!-- 1.0 -->
      <g transform="translate(398.860937 188.638438)scale(0.1 -0.1)">
       <use xlink:href="#DejaVuSans-31"/>
       <use xlink:href="#DejaVuSans-2e" x="63.623047"/>
       <use xlink:href="#DejaVuSans-30" x="95.410156"/>
      </g>
     </g>
    </g>
    <g id="xtick_9">
     <g id="line2d_21">
      <g>
       <use xlink:href="#ma0db238d5e" x="461.18625" y="174.04" style="stroke: #000000; stroke-width: 0.8"/>
      </g>
     </g>
     <g id="text_16">
      <!-- 1.5 -->
      <g transform="translate(453.234687 188.638438)scale(0.1 -0.1)">
       <use xlink:href="#DejaVuSans-31"/>
       <use xlink:href="#DejaVuSans-2e" x="63.623047"/>
       <use xlink:href="#DejaVuSans-35" x="95.410156"/>
      </g>
     </g>
    </g>
    <g id="xtick_10">
     <g id="line2d_22">
      <g>
       <use xlink:href="#ma0db238d5e" x="515.56" y="174.04" style="stroke: #000000; stroke-width: 0.8"/>
      </g>
     </g>
     <g id="text_17">
      <!-- 2.0 -->
      <g transform="translate(507.608437 188.638438)scale(0.1 -0.1)">
       <use xlink:href="#DejaVuSans-32"/>
       <use xlink:href="#DejaVuSans-2e" x="63.623047"/>
       <use xlink:href="#DejaVuSans-30" x="95.410156"/>
      </g>
     </g>
    </g>
    <g id="text_18">
     <!-- Influence of surprisal (multiplication) -->
     <g transform="translate(314.665625 202.316563)scale(0.1 -0.1)">
      <use xlink:href="#DejaVuSans-49"/>
      <use xlink:href="#DejaVuSans-6e" x="29.492188"/>
      <use xlink:href="#DejaVuSans-66" x="92.871094"/>
      <use xlink:href="#DejaVuSans-6c" x="128.076172"/>
      <use xlink:href="#DejaVuSans-75" x="155.859375"/>
      <use xlink:href="#DejaVuSans-65" x="219.238281"/>
      <use xlink:href="#DejaVuSans-6e" x="280.761719"/>
      <use xlink:href="#DejaVuSans-63" x="344.140625"/>
      <use xlink:href="#DejaVuSans-65" x="399.121094"/>
      <use xlink:href="#DejaVuSans-20" x="460.644531"/>
      <use xlink:href="#DejaVuSans-6f" x="492.431641"/>
      <use xlink:href="#DejaVuSans-66" x="553.613281"/>
      <use xlink:href="#DejaVuSans-20" x="588.818359"/>
      <use xlink:href="#DejaVuSans-73" x="620.605469"/>
      <use xlink:href="#DejaVuSans-75" x="672.705078"/>
      <use xlink:href="#DejaVuSans-72" x="736.083984"/>
      <use xlink:href="#DejaVuSans-70" x="777.197266"/>
      <use xlink:href="#DejaVuSans-72" x="840.673828"/>
      <use xlink:href="#DejaVuSans-69" x="881.787109"/>
      <use xlink:href="#DejaVuSans-73" x="909.570312"/>
      <use xlink:href="#DejaVuSans-61" x="961.669922"/>
      <use xlink:href="#DejaVuSans-6c" x="1022.949219"/>
      <use xlink:href="#DejaVuSans-20" x="1050.732422"/>
      <use xlink:href="#DejaVuSans-28" x="1082.519531"/>
      <use xlink:href="#DejaVuSans-6d" x="1121.533203"/>
      <use xlink:href="#DejaVuSans-75" x="1218.945312"/>
      <use xlink:href="#DejaVuSans-6c" x="1282.324219"/>
      <use xlink:href="#DejaVuSans-74" x="1310.107422"/>
      <use xlink:href="#DejaVuSans-69" x="1349.316406"/>
      <use xlink:href="#DejaVuSans-70" x="1377.099609"/>
      <use xlink:href="#DejaVuSans-6c" x="1440.576172"/>
      <use xlink:href="#DejaVuSans-69" x="1468.359375"/>
      <use xlink:href="#DejaVuSans-63" x="1496.142578"/>
      <use xlink:href="#DejaVuSans-61" x="1551.123047"/>
      <use xlink:href="#DejaVuSans-74" x="1612.402344"/>
      <use xlink:href="#DejaVuSans-69" x="1651.611328"/>
      <use xlink:href="#DejaVuSans-6f" x="1679.394531"/>
      <use xlink:href="#DejaVuSans-6e" x="1740.576172"/>
      <use xlink:href="#DejaVuSans-29" x="1803.955078"/>
     </g>
    </g>
   </g>
   <g id="line2d_23">
    <path d="M 298.065 33.569092 
L 309.512105 34.466697 
L 320.959211 37.123606 
L 332.406316 40.740293 
L 343.853421 45.816071 
L 355.300526 51.863638 
L 366.747632 58.58077 
L 378.194737 65.535796 
L 389.641842 72.955514 
L 401.088947 80.595319 
L 412.536053 88.010121 
L 423.983158 95.51026 
L 435.430263 102.249295 
L 446.877368 109.238215 
L 458.324474 115.544608 
L 469.771579 121.795021 
L 481.218684 127.704312 
L 492.665789 133.666954 
L 504.112895 138.500355 
L 515.56 143.205041 
" clip-path="url(#p9b69b23ca3)" style="fill: none; stroke: #1f77b4; stroke-width: 1.5; stroke-linecap: square"/>
   </g>
   <g id="line2d_24">
    <path d="M 298.065 33.569271 
L 309.512105 34.46664 
L 320.959211 37.124488 
L 332.406316 40.742934 
L 343.853421 45.820575 
L 355.300526 51.882625 
L 366.747632 58.608317 
L 378.194737 65.578855 
L 389.641842 73.020049 
L 401.088947 80.689582 
L 412.536053 88.146475 
L 423.983158 95.679911 
L 435.430263 102.44747 
L 446.877368 109.471312 
L 458.324474 115.847228 
L 469.771579 122.153907 
L 481.218684 128.112693 
L 492.665789 134.111852 
L 504.112895 139.017209 
L 515.56 143.716038 
" clip-path="url(#p9b69b23ca3)" style="fill: none; stroke: #ff7f0e; stroke-width: 1.5; stroke-linecap: square"/>
   </g>
   <g id="line2d_25">
    <path d="M 298.065 33.569102 
L 309.512105 34.466549 
L 320.959211 37.135337 
L 332.406316 40.74836 
L 343.853421 45.856368 
L 355.300526 51.934888 
L 366.747632 58.68915 
L 378.194737 65.678447 
L 389.641842 73.128522 
L 401.088947 80.805165 
L 412.536053 88.284814 
L 423.983158 95.802895 
L 435.430263 102.617493 
L 446.877368 109.592164 
L 458.324474 115.941221 
L 469.771579 122.228316 
L 481.218684 128.158644 
L 492.665789 134.127698 
L 504.112895 139.015886 
L 515.56 143.747186 
" clip-path="url(#p9b69b23ca3)" style="fill: none; stroke: #2ca02c; stroke-width: 1.5; stroke-linecap: square"/>
   </g>
   <g id="line2d_26">
    <path d="M 298.065 33.570074 
L 309.512105 34.467194 
L 320.959211 37.13727 
L 332.406316 40.750353 
L 343.853421 45.852503 
L 355.300526 51.935943 
L 366.747632 58.692547 
L 378.194737 65.680655 
L 389.641842 73.139746 
L 401.088947 80.817285 
L 412.536053 88.30695 
L 423.983158 95.829859 
L 435.430263 102.63218 
L 446.877368 109.612408 
L 458.324474 115.989681 
L 469.771579 122.299591 
L 481.218684 128.247775 
L 492.665789 134.229436 
L 504.112895 139.171055 
L 515.56 143.924007 
" clip-path="url(#p9b69b23ca3)" style="fill: none; stroke: #d62728; stroke-width: 1.5; stroke-linecap: square"/>
   </g>
   <g id="line2d_27">
    <path d="M 298.065 33.569102 
L 309.512105 34.470314 
L 320.959211 37.134398 
L 332.406316 40.739784 
L 343.853421 45.865606 
L 355.300526 52.034019 
L 366.747632 58.666019 
L 378.194737 65.595761 
L 389.641842 72.95576 
L 401.088947 80.587995 
L 412.536053 87.96616 
L 423.983158 95.408656 
L 435.430263 102.360421 
L 446.877368 109.065 
L 458.324474 115.673078 
L 469.771579 121.642875 
L 481.218684 127.89651 
L 492.665789 133.366311 
L 504.112895 138.644049 
L 515.56 143.387143 
" clip-path="url(#p9b69b23ca3)" style="fill: none; stroke: #9467bd; stroke-width: 1.5; stroke-linecap: square"/>
   </g>
   <g id="line2d_28">
    <path d="M 298.065 33.569817 
L 309.512105 34.470722 
L 320.959211 37.135639 
L 332.406316 40.743216 
L 343.853421 45.869236 
L 355.300526 52.057361 
L 366.747632 58.695908 
L 378.194737 65.636191 
L 389.641842 73.017824 
L 401.088947 80.677212 
L 412.536053 88.094057 
L 423.983158 95.583944 
L 435.430263 102.570176 
L 446.877368 109.293702 
L 458.324474 115.967767 
L 469.771579 122.016668 
L 481.218684 128.292704 
L 492.665789 133.810721 
L 504.112895 139.15491 
L 515.56 143.865327 
" clip-path="url(#p9b69b23ca3)" style="fill: none; stroke: #8c564b; stroke-width: 1.5; stroke-linecap: square"/>
   </g>
   <g id="line2d_29">
    <path d="M 298.065 48.550983 
L 309.512105 49.384576 
L 320.959211 51.802668 
L 332.406316 55.211017 
L 343.853421 59.958254 
L 355.300526 65.46313 
L 366.747632 71.669924 
L 378.194737 78.222871 
L 389.641842 84.917616 
L 401.088947 91.855286 
L 412.536053 98.736278 
L 423.983158 105.396046 
L 435.430263 111.559215 
L 446.877368 118.00295 
L 458.324474 123.892662 
L 469.771579 129.584233 
L 481.218684 135.180212 
L 492.665789 140.933386 
L 504.112895 145.513511 
L 515.56 150.134438 
" clip-path="url(#p9b69b23ca3)" style="fill: none; stroke: #e377c2; stroke-width: 1.5; stroke-linecap: square"/>
   </g>
   <g id="line2d_30">
    <path d="M 298.065 33.569463 
L 309.512105 34.469114 
L 320.959211 37.129112 
L 332.406316 40.745058 
L 343.853421 45.847408 
L 355.300526 51.930541 
L 366.747632 58.674675 
L 378.194737 65.670797 
L 389.641842 73.126405 
L 401.088947 80.839912 
L 412.536053 88.351335 
L 423.983158 95.922743 
L 435.430263 102.72427 
L 446.877368 109.755538 
L 458.324474 116.159839 
L 469.771579 122.492014 
L 481.218684 128.47031 
L 492.665789 134.480634 
L 504.112895 139.370919 
L 515.56 144.117545 
" clip-path="url(#p9b69b23ca3)" style="fill: none; stroke: #7f7f7f; stroke-width: 1.5; stroke-linecap: square"/>
   </g>
   <g id="patch_6">
    <path d="M 298.065 174.04 
L 298.065 26.88 
" style="fill: none; stroke: #000000; stroke-width: 0.8; stroke-linejoin: miter; stroke-linecap: square"/>
   </g>
   <g id="patch_7">
    <path d="M 298.065 174.04 
L 515.56 174.04 
" style="fill: none; stroke: #000000; stroke-width: 0.8; stroke-linejoin: miter; stroke-linecap: square"/>
   </g>
   <g id="text_19">
    <!-- Node * third variable -->
    <g transform="translate(344.2325 20.88)scale(0.12 -0.12)">
     <defs>
      <path id="DejaVuSans-68" d="M 3513 2113 
L 3513 0 
L 2938 0 
L 2938 2094 
Q 2938 2591 2744 2837 
Q 2550 3084 2163 3084 
Q 1697 3084 1428 2787 
Q 1159 2491 1159 1978 
L 1159 0 
L 581 0 
L 581 4863 
L 1159 4863 
L 1159 2956 
Q 1366 3272 1645 3428 
Q 1925 3584 2291 3584 
Q 2894 3584 3203 3211 
Q 3513 2838 3513 2113 
z
" transform="scale(0.015625)"/>
      <path id="DejaVuSans-62" d="M 3116 1747 
Q 3116 2381 2855 2742 
Q 2594 3103 2138 3103 
Q 1681 3103 1420 2742 
Q 1159 2381 1159 1747 
Q 1159 1113 1420 752 
Q 1681 391 2138 391 
Q 2594 391 2855 752 
Q 3116 1113 3116 1747 
z
M 1159 2969 
Q 1341 3281 1617 3432 
Q 1894 3584 2278 3584 
Q 2916 3584 3314 3078 
Q 3713 2572 3713 1747 
Q 3713 922 3314 415 
Q 2916 -91 2278 -91 
Q 1894 -91 1617 61 
Q 1341 213 1159 525 
L 1159 0 
L 581 0 
L 581 4863 
L 1159 4863 
L 1159 2969 
z
" transform="scale(0.015625)"/>
     </defs>
     <use xlink:href="#DejaVuSans-4e"/>
     <use xlink:href="#DejaVuSans-6f" x="74.804688"/>
     <use xlink:href="#DejaVuSans-64" x="135.986328"/>
     <use xlink:href="#DejaVuSans-65" x="199.462891"/>
     <use xlink:href="#DejaVuSans-20" x="260.986328"/>
     <use xlink:href="#DejaVuSans-2a" x="292.773438"/>
     <use xlink:href="#DejaVuSans-20" x="342.773438"/>
     <use xlink:href="#DejaVuSans-74" x="374.560547"/>
     <use xlink:href="#DejaVuSans-68" x="413.769531"/>
     <use xlink:href="#DejaVuSans-69" x="477.148438"/>
     <use xlink:href="#DejaVuSans-72" x="504.931641"/>
     <use xlink:href="#DejaVuSans-64" x="544.294922"/>
     <use xlink:href="#DejaVuSans-20" x="607.771484"/>
     <use xlink:href="#DejaVuSans-76" x="639.558594"/>
     <use xlink:href="#DejaVuSans-61" x="698.738281"/>
     <use xlink:href="#DejaVuSans-72" x="760.017578"/>
     <use xlink:href="#DejaVuSans-69" x="801.130859"/>
     <use xlink:href="#DejaVuSans-61" x="828.914062"/>
     <use xlink:href="#DejaVuSans-62" x="890.193359"/>
     <use xlink:href="#DejaVuSans-6c" x="953.669922"/>
     <use xlink:href="#DejaVuSans-65" x="981.453125"/>
    </g>
   </g>
   <g id="legend_1">
    <g id="line2d_31">
     <path d="M 524.56 39.978437 
L 534.56 39.978437 
L 544.56 39.978437 
" style="fill: none; stroke: #1f77b4; stroke-width: 1.5; stroke-linecap: square"/>
    </g>
    <g id="text_20">
     <!-- Node -->
     <g transform="translate(552.56 43.478437)scale(0.1 -0.1)">
      <use xlink:href="#DejaVuSans-4e"/>
      <use xlink:href="#DejaVuSans-6f" x="74.804688"/>
      <use xlink:href="#DejaVuSans-64" x="135.986328"/>
      <use xlink:href="#DejaVuSans-65" x="199.462891"/>
     </g>
    </g>
    <g id="line2d_32">
     <path d="M 524.56 54.656563 
L 534.56 54.656563 
L 544.56 54.656563 
" style="fill: none; stroke: #ff7f0e; stroke-width: 1.5; stroke-linecap: square"/>
    </g>
    <g id="text_21">
     <!-- Node + surprisal -->
     <g transform="translate(552.56 58.156563)scale(0.1 -0.1)">
      <defs>
       <path id="DejaVuSans-2b" d="M 2944 4013 
L 2944 2272 
L 4684 2272 
L 4684 1741 
L 2944 1741 
L 2944 0 
L 2419 0 
L 2419 1741 
L 678 1741 
L 678 2272 
L 2419 2272 
L 2419 4013 
L 2944 4013 
z
" transform="scale(0.015625)"/>
      </defs>
      <use xlink:href="#DejaVuSans-4e"/>
      <use xlink:href="#DejaVuSans-6f" x="74.804688"/>
      <use xlink:href="#DejaVuSans-64" x="135.986328"/>
      <use xlink:href="#DejaVuSans-65" x="199.462891"/>
      <use xlink:href="#DejaVuSans-20" x="260.986328"/>
      <use xlink:href="#DejaVuSans-2b" x="292.773438"/>
      <use xlink:href="#DejaVuSans-20" x="376.5625"/>
      <use xlink:href="#DejaVuSans-73" x="408.349609"/>
      <use xlink:href="#DejaVuSans-75" x="460.449219"/>
      <use xlink:href="#DejaVuSans-72" x="523.828125"/>
      <use xlink:href="#DejaVuSans-70" x="564.941406"/>
      <use xlink:href="#DejaVuSans-72" x="628.417969"/>
      <use xlink:href="#DejaVuSans-69" x="669.53125"/>
      <use xlink:href="#DejaVuSans-73" x="697.314453"/>
      <use xlink:href="#DejaVuSans-61" x="749.414062"/>
      <use xlink:href="#DejaVuSans-6c" x="810.693359"/>
     </g>
    </g>
    <g id="line2d_33">
     <path d="M 524.56 69.334687 
L 534.56 69.334687 
L 544.56 69.334687 
" style="fill: none; stroke: #2ca02c; stroke-width: 1.5; stroke-linecap: square"/>
    </g>
    <g id="text_22">
     <!-- Node split -->
     <g transform="translate(552.56 72.834687)scale(0.1 -0.1)">
      <use xlink:href="#DejaVuSans-4e"/>
      <use xlink:href="#DejaVuSans-6f" x="74.804688"/>
      <use xlink:href="#DejaVuSans-64" x="135.986328"/>
      <use xlink:href="#DejaVuSans-65" x="199.462891"/>
      <use xlink:href="#DejaVuSans-20" x="260.986328"/>
      <use xlink:href="#DejaVuSans-73" x="292.773438"/>
      <use xlink:href="#DejaVuSans-70" x="344.873047"/>
      <use xlink:href="#DejaVuSans-6c" x="408.349609"/>
      <use xlink:href="#DejaVuSans-69" x="436.132812"/>
      <use xlink:href="#DejaVuSans-74" x="463.916016"/>
     </g>
    </g>
    <g id="line2d_34">
     <path d="M 524.56 84.012812 
L 534.56 84.012812 
L 544.56 84.012812 
" style="fill: none; stroke: #d62728; stroke-width: 1.5; stroke-linecap: square"/>
    </g>
    <g id="text_23">
     <!-- Node split + surprisal -->
     <g transform="translate(552.56 87.512812)scale(0.1 -0.1)">
      <use xlink:href="#DejaVuSans-4e"/>
      <use xlink:href="#DejaVuSans-6f" x="74.804688"/>
      <use xlink:href="#DejaVuSans-64" x="135.986328"/>
      <use xlink:href="#DejaVuSans-65" x="199.462891"/>
      <use xlink:href="#DejaVuSans-20" x="260.986328"/>
      <use xlink:href="#DejaVuSans-73" x="292.773438"/>
      <use xlink:href="#DejaVuSans-70" x="344.873047"/>
      <use xlink:href="#DejaVuSans-6c" x="408.349609"/>
      <use xlink:href="#DejaVuSans-69" x="436.132812"/>
      <use xlink:href="#DejaVuSans-74" x="463.916016"/>
      <use xlink:href="#DejaVuSans-20" x="503.125"/>
      <use xlink:href="#DejaVuSans-2b" x="534.912109"/>
      <use xlink:href="#DejaVuSans-20" x="618.701172"/>
      <use xlink:href="#DejaVuSans-73" x="650.488281"/>
      <use xlink:href="#DejaVuSans-75" x="702.587891"/>
      <use xlink:href="#DejaVuSans-72" x="765.966797"/>
      <use xlink:href="#DejaVuSans-70" x="807.080078"/>
      <use xlink:href="#DejaVuSans-72" x="870.556641"/>
      <use xlink:href="#DejaVuSans-69" x="911.669922"/>
      <use xlink:href="#DejaVuSans-73" x="939.453125"/>
      <use xlink:href="#DejaVuSans-61" x="991.552734"/>
      <use xlink:href="#DejaVuSans-6c" x="1052.832031"/>
     </g>
    </g>
    <g id="line2d_35">
     <path d="M 524.56 98.690937 
L 534.56 98.690937 
L 544.56 98.690937 
" style="fill: none; stroke: #9467bd; stroke-width: 1.5; stroke-linecap: square"/>
    </g>
    <g id="text_24">
     <!-- Node random split -->
     <g transform="translate(552.56 102.190937)scale(0.1 -0.1)">
      <use xlink:href="#DejaVuSans-4e"/>
      <use xlink:href="#DejaVuSans-6f" x="74.804688"/>
      <use xlink:href="#DejaVuSans-64" x="135.986328"/>
      <use xlink:href="#DejaVuSans-65" x="199.462891"/>
      <use xlink:href="#DejaVuSans-20" x="260.986328"/>
      <use xlink:href="#DejaVuSans-72" x="292.773438"/>
      <use xlink:href="#DejaVuSans-61" x="333.886719"/>
      <use xlink:href="#DejaVuSans-6e" x="395.166016"/>
      <use xlink:href="#DejaVuSans-64" x="458.544922"/>
      <use xlink:href="#DejaVuSans-6f" x="522.021484"/>
      <use xlink:href="#DejaVuSans-6d" x="583.203125"/>
      <use xlink:href="#DejaVuSans-20" x="680.615234"/>
      <use xlink:href="#DejaVuSans-73" x="712.402344"/>
      <use xlink:href="#DejaVuSans-70" x="764.501953"/>
      <use xlink:href="#DejaVuSans-6c" x="827.978516"/>
      <use xlink:href="#DejaVuSans-69" x="855.761719"/>
      <use xlink:href="#DejaVuSans-74" x="883.544922"/>
     </g>
    </g>
    <g id="line2d_36">
     <path d="M 524.56 113.369062 
L 534.56 113.369062 
L 544.56 113.369062 
" style="fill: none; stroke: #8c564b; stroke-width: 1.5; stroke-linecap: square"/>
    </g>
    <g id="text_25">
     <!-- Node random split + surprisal -->
     <g transform="translate(552.56 116.869062)scale(0.1 -0.1)">
      <use xlink:href="#DejaVuSans-4e"/>
      <use xlink:href="#DejaVuSans-6f" x="74.804688"/>
      <use xlink:href="#DejaVuSans-64" x="135.986328"/>
      <use xlink:href="#DejaVuSans-65" x="199.462891"/>
      <use xlink:href="#DejaVuSans-20" x="260.986328"/>
      <use xlink:href="#DejaVuSans-72" x="292.773438"/>
      <use xlink:href="#DejaVuSans-61" x="333.886719"/>
      <use xlink:href="#DejaVuSans-6e" x="395.166016"/>
      <use xlink:href="#DejaVuSans-64" x="458.544922"/>
      <use xlink:href="#DejaVuSans-6f" x="522.021484"/>
      <use xlink:href="#DejaVuSans-6d" x="583.203125"/>
      <use xlink:href="#DejaVuSans-20" x="680.615234"/>
      <use xlink:href="#DejaVuSans-73" x="712.402344"/>
      <use xlink:href="#DejaVuSans-70" x="764.501953"/>
      <use xlink:href="#DejaVuSans-6c" x="827.978516"/>
      <use xlink:href="#DejaVuSans-69" x="855.761719"/>
      <use xlink:href="#DejaVuSans-74" x="883.544922"/>
      <use xlink:href="#DejaVuSans-20" x="922.753906"/>
      <use xlink:href="#DejaVuSans-2b" x="954.541016"/>
      <use xlink:href="#DejaVuSans-20" x="1038.330078"/>
      <use xlink:href="#DejaVuSans-73" x="1070.117188"/>
      <use xlink:href="#DejaVuSans-75" x="1122.216797"/>
      <use xlink:href="#DejaVuSans-72" x="1185.595703"/>
      <use xlink:href="#DejaVuSans-70" x="1226.708984"/>
      <use xlink:href="#DejaVuSans-72" x="1290.185547"/>
      <use xlink:href="#DejaVuSans-69" x="1331.298828"/>
      <use xlink:href="#DejaVuSans-73" x="1359.082031"/>
      <use xlink:href="#DejaVuSans-61" x="1411.181641"/>
      <use xlink:href="#DejaVuSans-6c" x="1472.460938"/>
     </g>
    </g>
    <g id="line2d_37">
     <path d="M 524.56 128.047187 
L 534.56 128.047187 
L 544.56 128.047187 
" style="fill: none; stroke: #e377c2; stroke-width: 1.5; stroke-linecap: square"/>
    </g>
    <g id="text_26">
     <!-- Interaction -->
     <g transform="translate(552.56 131.547187)scale(0.1 -0.1)">
      <use xlink:href="#DejaVuSans-49"/>
      <use xlink:href="#DejaVuSans-6e" x="29.492188"/>
      <use xlink:href="#DejaVuSans-74" x="92.871094"/>
      <use xlink:href="#DejaVuSans-65" x="132.080078"/>
      <use xlink:href="#DejaVuSans-72" x="193.603516"/>
      <use xlink:href="#DejaVuSans-61" x="234.716797"/>
      <use xlink:href="#DejaVuSans-63" x="295.996094"/>
      <use xlink:href="#DejaVuSans-74" x="350.976562"/>
      <use xlink:href="#DejaVuSans-69" x="390.185547"/>
      <use xlink:href="#DejaVuSans-6f" x="417.96875"/>
      <use xlink:href="#DejaVuSans-6e" x="479.150391"/>
     </g>
    </g>
    <g id="line2d_38">
     <path d="M 524.56 142.725312 
L 534.56 142.725312 
L 544.56 142.725312 
" style="fill: none; stroke: #7f7f7f; stroke-width: 1.5; stroke-linecap: square"/>
    </g>
    <g id="text_27">
     <!-- Node + surprisal + interaction -->
     <g transform="translate(552.56 146.225312)scale(0.1 -0.1)">
      <use xlink:href="#DejaVuSans-4e"/>
      <use xlink:href="#DejaVuSans-6f" x="74.804688"/>
      <use xlink:href="#DejaVuSans-64" x="135.986328"/>
      <use xlink:href="#DejaVuSans-65" x="199.462891"/>
      <use xlink:href="#DejaVuSans-20" x="260.986328"/>
      <use xlink:href="#DejaVuSans-2b" x="292.773438"/>
      <use xlink:href="#DejaVuSans-20" x="376.5625"/>
      <use xlink:href="#DejaVuSans-73" x="408.349609"/>
      <use xlink:href="#DejaVuSans-75" x="460.449219"/>
      <use xlink:href="#DejaVuSans-72" x="523.828125"/>
      <use xlink:href="#DejaVuSans-70" x="564.941406"/>
      <use xlink:href="#DejaVuSans-72" x="628.417969"/>
      <use xlink:href="#DejaVuSans-69" x="669.53125"/>
      <use xlink:href="#DejaVuSans-73" x="697.314453"/>
      <use xlink:href="#DejaVuSans-61" x="749.414062"/>
      <use xlink:href="#DejaVuSans-6c" x="810.693359"/>
      <use xlink:href="#DejaVuSans-20" x="838.476562"/>
      <use xlink:href="#DejaVuSans-2b" x="870.263672"/>
      <use xlink:href="#DejaVuSans-20" x="954.052734"/>
      <use xlink:href="#DejaVuSans-69" x="985.839844"/>
      <use xlink:href="#DejaVuSans-6e" x="1013.623047"/>
      <use xlink:href="#DejaVuSans-74" x="1077.001953"/>
      <use xlink:href="#DejaVuSans-65" x="1116.210938"/>
      <use xlink:href="#DejaVuSans-72" x="1177.734375"/>
      <use xlink:href="#DejaVuSans-61" x="1218.847656"/>
      <use xlink:href="#DejaVuSans-63" x="1280.126953"/>
      <use xlink:href="#DejaVuSans-74" x="1335.107422"/>
      <use xlink:href="#DejaVuSans-69" x="1374.316406"/>
      <use xlink:href="#DejaVuSans-6f" x="1402.099609"/>
      <use xlink:href="#DejaVuSans-6e" x="1463.28125"/>
     </g>
    </g>
   </g>
  </g>
 </g>
 <defs>
  <clipPath id="p577dccc8c7">
   <rect x="47.72" y="26.88" width="217.495" height="147.16"/>
  </clipPath>
  <clipPath id="p9b69b23ca3">
   <rect x="298.065" y="26.88" width="217.495" height="147.16"/>
  </clipPath>
 </defs>
</svg>
