<?xml version="1.0" encoding="utf-8" standalone="no"?>
<!DOCTYPE svg PUBLIC "-//W3C//DTD SVG 1.1//EN"
  "http://www.w3.org/Graphics/SVG/1.1/DTD/svg11.dtd">
<svg xmlns:xlink="http://www.w3.org/1999/xlink" width="720pt" height="216pt" viewBox="0 0 720 216" xmlns="http://www.w3.org/2000/svg" version="1.1">
 <metadata>
  <rdf:RDF xmlns:dc="http://purl.org/dc/elements/1.1/" xmlns:cc="http://creativecommons.org/ns#" xmlns:rdf="http://www.w3.org/1999/02/22-rdf-syntax-ns#">
   <cc:Work>
    <dc:type rdf:resource="http://purl.org/dc/dcmitype/StillImage"/>
    <dc:date>2024-01-15T21:01:08.971220</dc:date>
    <dc:format>image/svg+xml</dc:format>
    <dc:creator>
     <cc:Agent>
      <dc:title>Matplotlib v3.5.1, https://matplotlib.org/</dc:title>
     </cc:Agent>
    </dc:creator>
   </cc:Work>
  </rdf:RDF>
 </metadata>
 <defs>
  <style type="text/css">*{stroke-linejoin: round; stroke-linecap: butt}</style>
 </defs>
 <g id="figure_1">
  <g id="patch_1">
   <path d="M 0 216 
L 720 216 
L 720 0 
L 0 0 
z
" style="fill: #ffffff"/>
  </g>
  <g id="axes_1">
   <g id="patch_2">
    <path d="M 47.72 174.04 
L 265.215 174.04 
L 265.215 26.88 
L 47.72 26.88 
z
" style="fill: #ffffff"/>
   </g>
   <g id="PolyCollection_1">
    <path d="M 47.72 33.569091 
L 47.72 33.569092 
L 59.167105 34.676568 
L 70.614211 38.020967 
L 82.061316 42.536145 
L 93.508421 48.546354 
L 104.955526 55.175226 
L 116.402632 63.052688 
L 127.849737 70.436414 
L 139.296842 78.814083 
L 150.743947 86.797963 
L 162.191053 95.358275 
L 173.638158 103.490554 
L 185.085263 110.884948 
L 196.532368 119.087836 
L 207.979474 125.586017 
L 219.426579 132.465128 
L 230.873684 138.069053 
L 242.320789 144.144423 
L 253.767895 148.939679 
L 265.215 153.553863 
L 265.215 131.698198 
L 265.215 131.698198 
L 253.767895 127.126284 
L 242.320789 121.684106 
L 230.873684 116.582784 
L 219.426579 111.337218 
L 207.979474 105.43026 
L 196.532368 99.666729 
L 185.085263 92.963342 
L 173.638158 87.066979 
L 162.191053 80.475155 
L 150.743947 74.046119 
L 139.296842 67.534986 
L 127.849737 61.38767 
L 116.402632 55.468274 
L 104.955526 49.512089 
L 93.508421 44.317122 
L 82.061316 39.916417 
L 70.614211 36.762467 
L 59.167105 34.365827 
L 47.72 33.569091 
z
" clip-path="url(#pbcb4cca136)" style="fill: #1f77b4; fill-opacity: 0.4"/>
   </g>
   <g id="PolyCollection_2">
    <path d="M 47.72 33.569236 
L 47.72 33.569294 
L 59.167105 34.299708 
L 70.614211 36.134014 
L 82.061316 38.846764 
L 93.508421 42.68847 
L 104.955526 46.844194 
L 116.402632 52.394517 
L 127.849737 57.793981 
L 139.296842 63.778651 
L 150.743947 70.279159 
L 162.191053 77.257418 
L 173.638158 84.448778 
L 185.085263 91.145547 
L 196.532368 98.949453 
L 207.979474 105.308623 
L 219.426579 112.157982 
L 230.873684 117.897289 
L 242.320789 124.472083 
L 253.767895 129.902991 
L 265.215 135.403594 
L 265.215 115.032161 
L 265.215 115.032161 
L 253.767895 110.590928 
L 242.320789 105.464524 
L 230.873684 100.563616 
L 219.426579 95.642134 
L 207.979474 90.055313 
L 196.532368 84.532247 
L 185.085263 78.435823 
L 173.638158 73.238078 
L 162.191053 67.678367 
L 150.743947 62.586669 
L 139.296842 57.25991 
L 127.849737 52.218388 
L 116.402632 47.566682 
L 104.955526 43.466366 
L 93.508421 39.956947 
L 82.061316 37.31712 
L 70.614211 35.420168 
L 59.167105 34.099118 
L 47.72 33.569236 
z
" clip-path="url(#pbcb4cca136)" style="fill: #ff7f0e; fill-opacity: 0.4"/>
   </g>
   <g id="PolyCollection_3">
    <path d="M 47.72 33.569099 
L 47.72 33.569102 
L 59.167105 34.414354 
L 70.614211 36.132123 
L 82.061316 38.31242 
L 93.508421 41.230695 
L 104.955526 44.425762 
L 116.402632 47.884325 
L 127.849737 50.921584 
L 139.296842 54.551462 
L 150.743947 58.29937 
L 162.191053 62.469474 
L 173.638158 66.517351 
L 185.085263 70.455758 
L 196.532368 75.337226 
L 207.979474 79.173448 
L 219.426579 83.691116 
L 230.873684 87.369361 
L 242.320789 91.838057 
L 253.767895 96.011461 
L 265.215 99.891221 
L 265.215 81.782079 
L 265.215 81.782079 
L 253.767895 78.872865 
L 242.320789 75.296919 
L 230.873684 72.271686 
L 219.426579 69.223062 
L 207.979474 66.286092 
L 196.532368 63.150512 
L 185.085263 59.741042 
L 173.638158 56.605763 
L 162.191053 53.689533 
L 150.743947 50.783482 
L 139.296842 47.847035 
L 127.849737 45.099212 
L 116.402632 42.563303 
L 104.955526 40.190004 
L 93.508421 38.150097 
L 82.061316 36.366313 
L 70.614211 35.095838 
L 59.167105 34.167028 
L 47.72 33.569099 
z
" clip-path="url(#pbcb4cca136)" style="fill: #2ca02c; fill-opacity: 0.4"/>
   </g>
   <g id="PolyCollection_4">
    <path d="M 47.72 33.569833 
L 47.72 33.570235 
L 59.167105 34.249638 
L 70.614211 35.552051 
L 82.061316 37.320038 
L 93.508421 39.751954 
L 104.955526 42.385355 
L 116.402632 45.593317 
L 127.849737 48.521826 
L 139.296842 51.875892 
L 150.743947 55.600544 
L 162.191053 59.75534 
L 173.638158 63.893142 
L 185.085263 67.910261 
L 196.532368 72.944879 
L 207.979474 76.732053 
L 219.426579 81.2602 
L 230.873684 84.924914 
L 242.320789 89.570459 
L 253.767895 93.755753 
L 265.215 97.710023 
L 265.215 80.858403 
L 265.215 80.858403 
L 253.767895 78.040833 
L 242.320789 74.478997 
L 230.873684 71.457743 
L 219.426579 68.36928 
L 207.979474 65.387879 
L 196.532368 62.088525 
L 185.085263 58.642579 
L 173.638158 55.488346 
L 162.191053 52.42595 
L 150.743947 49.52491 
L 139.296842 46.465182 
L 127.849737 43.570712 
L 116.402632 41.089473 
L 104.955526 38.964398 
L 93.508421 37.199247 
L 82.061316 35.764118 
L 70.614211 34.755664 
L 59.167105 34.056099 
L 47.72 33.569833 
z
" clip-path="url(#pbcb4cca136)" style="fill: #d62728; fill-opacity: 0.4"/>
   </g>
   <g id="PolyCollection_5">
    <path d="M 47.72 33.5691 
L 47.72 33.569102 
L 59.167105 34.673154 
L 70.614211 38.026632 
L 82.061316 42.534606 
L 93.508421 48.581598 
L 104.955526 55.238329 
L 116.402632 63.063191 
L 127.849737 70.393296 
L 139.296842 78.854726 
L 150.743947 87.102114 
L 162.191053 95.702809 
L 173.638158 103.768253 
L 185.085263 111.644011 
L 196.532368 119.892495 
L 207.979474 125.497928 
L 219.426579 132.474718 
L 230.873684 138.783975 
L 242.320789 144.174273 
L 253.767895 149.159514 
L 265.215 153.255508 
L 265.215 132.120848 
L 265.215 132.120848 
L 253.767895 127.68683 
L 242.320789 121.629091 
L 230.873684 116.43888 
L 219.426579 111.958814 
L 207.979474 105.767207 
L 196.532368 100.052446 
L 185.085263 92.866162 
L 173.638158 87.373161 
L 162.191053 81.022834 
L 150.743947 74.108972 
L 139.296842 67.671553 
L 127.849737 61.48911 
L 116.402632 55.383836 
L 104.955526 49.602028 
L 93.508421 44.376437 
L 82.061316 39.975399 
L 70.614211 36.782662 
L 59.167105 34.365779 
L 47.72 33.5691 
z
" clip-path="url(#pbcb4cca136)" style="fill: #9467bd; fill-opacity: 0.4"/>
   </g>
   <g id="PolyCollection_6">
    <path d="M 47.72 33.569678 
L 47.72 33.569913 
L 59.167105 34.299294 
L 70.614211 36.141786 
L 82.061316 38.865838 
L 93.508421 42.744716 
L 104.955526 46.896915 
L 116.402632 52.471255 
L 127.849737 57.793447 
L 139.296842 63.82944 
L 150.743947 70.545213 
L 162.191053 77.503458 
L 173.638158 84.656035 
L 185.085263 91.647624 
L 196.532368 99.583748 
L 207.979474 105.393885 
L 219.426579 112.147131 
L 230.873684 118.462786 
L 242.320789 124.391951 
L 253.767895 130.083316 
L 265.215 135.236192 
L 265.215 115.383535 
L 265.215 115.383535 
L 253.767895 111.127747 
L 242.320789 105.461709 
L 230.873684 100.521645 
L 219.426579 96.001699 
L 207.979474 90.223886 
L 196.532368 84.851062 
L 185.085263 78.358769 
L 173.638158 73.43823 
L 162.191053 68.081951 
L 150.743947 62.618552 
L 139.296842 57.323936 
L 127.849737 52.274132 
L 116.402632 47.553398 
L 104.955526 43.520767 
L 93.508421 39.994007 
L 82.061316 37.338917 
L 70.614211 35.427576 
L 59.167105 34.099598 
L 47.72 33.569678 
z
" clip-path="url(#pbcb4cca136)" style="fill: #8c564b; fill-opacity: 0.4"/>
   </g>
   <g id="PolyCollection_7">
    <path d="M 47.72 45.56659 
L 47.72 50.372216 
L 59.167105 51.999983 
L 70.614211 56.786654 
L 82.061316 63.331555 
L 93.508421 70.972936 
L 104.955526 78.600002 
L 116.402632 86.484658 
L 127.849737 93.309107 
L 139.296842 100.456314 
L 150.743947 107.570363 
L 162.191053 115.321518 
L 173.638158 122.505823 
L 185.085263 129.429749 
L 196.532368 137.014467 
L 207.979474 142.928843 
L 219.426579 149.202 
L 230.873684 154.202074 
L 242.320789 159.263752 
L 253.767895 163.621154 
L 265.215 167.350909 
L 265.215 148.010225 
L 265.215 148.010225 
L 253.767895 144.054331 
L 242.320789 139.530184 
L 230.873684 135.178164 
L 219.426579 130.183317 
L 207.979474 124.659503 
L 196.532368 118.799417 
L 185.085263 112.038455 
L 173.638158 105.471464 
L 162.191053 98.747295 
L 150.743947 91.469389 
L 139.296842 84.325909 
L 127.849737 76.91812 
L 116.402632 69.978273 
L 104.955526 62.933273 
L 93.508421 57.137727 
L 82.061316 52.075948 
L 70.614211 48.779706 
L 59.167105 46.465116 
L 47.72 45.56659 
z
" clip-path="url(#pbcb4cca136)" style="fill: #e377c2; fill-opacity: 0.4"/>
   </g>
   <g id="PolyCollection_8">
    <path d="M 47.72 33.569417 
L 47.72 33.569641 
L 59.167105 33.864511 
L 70.614211 34.26155 
L 82.061316 35.439054 
L 93.508421 37.73745 
L 104.955526 41.531581 
L 116.402632 46.311907 
L 127.849737 51.188062 
L 139.296842 56.111728 
L 150.743947 61.205889 
L 162.191053 66.627458 
L 173.638158 71.78128 
L 185.085263 77.317521 
L 196.532368 84.029297 
L 207.979474 89.540515 
L 219.426579 96.20841 
L 230.873684 101.747767 
L 242.320789 108.020212 
L 253.767895 114.300549 
L 265.215 120.233411 
L 265.215 103.336421 
L 265.215 103.336421 
L 253.767895 98.016785 
L 242.320789 92.414956 
L 230.873684 86.298998 
L 219.426579 80.648161 
L 207.979474 74.841828 
L 196.532368 68.668463 
L 185.085263 62.390132 
L 173.638158 57.273714 
L 162.191053 51.994651 
L 150.743947 47.354469 
L 139.296842 42.906498 
L 127.849737 39.425221 
L 116.402632 36.864408 
L 104.955526 35.22515 
L 93.508421 34.38703 
L 82.061316 33.968536 
L 70.614211 33.844368 
L 59.167105 33.821471 
L 47.72 33.569417 
z
" clip-path="url(#pbcb4cca136)" style="fill: #7f7f7f; fill-opacity: 0.4"/>
   </g>
   <g id="matplotlib.axis_1">
    <g id="xtick_1">
     <g id="line2d_1">
      <defs>
       <path id="m17dbc71ca8" d="M 0 0 
L 0 3.5 
" style="stroke: #000000; stroke-width: 0.8"/>
      </defs>
      <g>
       <use xlink:href="#m17dbc71ca8" x="47.72" y="174.04" style="stroke: #000000; stroke-width: 0.8"/>
      </g>
     </g>
     <g id="text_1">
      <!-- 0.0 -->
      <g transform="translate(39.768438 188.638438)scale(0.1 -0.1)">
       <defs>
        <path id="DejaVuSans-30" d="M 2034 4250 
Q 1547 4250 1301 3770 
Q 1056 3291 1056 2328 
Q 1056 1369 1301 889 
Q 1547 409 2034 409 
Q 2525 409 2770 889 
Q 3016 1369 3016 2328 
Q 3016 3291 2770 3770 
Q 2525 4250 2034 4250 
z
M 2034 4750 
Q 2819 4750 3233 4129 
Q 3647 3509 3647 2328 
Q 3647 1150 3233 529 
Q 2819 -91 2034 -91 
Q 1250 -91 836 529 
Q 422 1150 422 2328 
Q 422 3509 836 4129 
Q 1250 4750 2034 4750 
z
" transform="scale(0.015625)"/>
        <path id="DejaVuSans-2e" d="M 684 794 
L 1344 794 
L 1344 0 
L 684 0 
L 684 794 
z
" transform="scale(0.015625)"/>
       </defs>
       <use xlink:href="#DejaVuSans-30"/>
       <use xlink:href="#DejaVuSans-2e" x="63.623047"/>
       <use xlink:href="#DejaVuSans-30" x="95.410156"/>
      </g>
     </g>
    </g>
    <g id="xtick_2">
     <g id="line2d_2">
      <g>
       <use xlink:href="#m17dbc71ca8" x="102.09375" y="174.04" style="stroke: #000000; stroke-width: 0.8"/>
      </g>
     </g>
     <g id="text_2">
      <!-- 0.5 -->
      <g transform="translate(94.142188 188.638438)scale(0.1 -0.1)">
       <defs>
        <path id="DejaVuSans-35" d="M 691 4666 
L 3169 4666 
L 3169 4134 
L 1269 4134 
L 1269 2991 
Q 1406 3038 1543 3061 
Q 1681 3084 1819 3084 
Q 2600 3084 3056 2656 
Q 3513 2228 3513 1497 
Q 3513 744 3044 326 
Q 2575 -91 1722 -91 
Q 1428 -91 1123 -41 
Q 819 9 494 109 
L 494 744 
Q 775 591 1075 516 
Q 1375 441 1709 441 
Q 2250 441 2565 725 
Q 2881 1009 2881 1497 
Q 2881 1984 2565 2268 
Q 2250 2553 1709 2553 
Q 1456 2553 1204 2497 
Q 953 2441 691 2322 
L 691 4666 
z
" transform="scale(0.015625)"/>
       </defs>
       <use xlink:href="#DejaVuSans-30"/>
       <use xlink:href="#DejaVuSans-2e" x="63.623047"/>
       <use xlink:href="#DejaVuSans-35" x="95.410156"/>
      </g>
     </g>
    </g>
    <g id="xtick_3">
     <g id="line2d_3">
      <g>
       <use xlink:href="#m17dbc71ca8" x="156.4675" y="174.04" style="stroke: #000000; stroke-width: 0.8"/>
      </g>
     </g>
     <g id="text_3">
      <!-- 1.0 -->
      <g transform="translate(148.515938 188.638438)scale(0.1 -0.1)">
       <defs>
        <path id="DejaVuSans-31" d="M 794 531 
L 1825 531 
L 1825 4091 
L 703 3866 
L 703 4441 
L 1819 4666 
L 2450 4666 
L 2450 531 
L 3481 531 
L 3481 0 
L 794 0 
L 794 531 
z
" transform="scale(0.015625)"/>
       </defs>
       <use xlink:href="#DejaVuSans-31"/>
       <use xlink:href="#DejaVuSans-2e" x="63.623047"/>
       <use xlink:href="#DejaVuSans-30" x="95.410156"/>
      </g>
     </g>
    </g>
    <g id="xtick_4">
     <g id="line2d_4">
      <g>
       <use xlink:href="#m17dbc71ca8" x="210.84125" y="174.04" style="stroke: #000000; stroke-width: 0.8"/>
      </g>
     </g>
     <g id="text_4">
      <!-- 1.5 -->
      <g transform="translate(202.889687 188.638438)scale(0.1 -0.1)">
       <use xlink:href="#DejaVuSans-31"/>
       <use xlink:href="#DejaVuSans-2e" x="63.623047"/>
       <use xlink:href="#DejaVuSans-35" x="95.410156"/>
      </g>
     </g>
    </g>
    <g id="xtick_5">
     <g id="line2d_5">
      <g>
       <use xlink:href="#m17dbc71ca8" x="265.215" y="174.04" style="stroke: #000000; stroke-width: 0.8"/>
      </g>
     </g>
     <g id="text_5">
      <!-- 2.0 -->
      <g transform="translate(257.263437 188.638438)scale(0.1 -0.1)">
       <defs>
        <path id="DejaVuSans-32" d="M 1228 531 
L 3431 531 
L 3431 0 
L 469 0 
L 469 531 
Q 828 903 1448 1529 
Q 2069 2156 2228 2338 
Q 2531 2678 2651 2914 
Q 2772 3150 2772 3378 
Q 2772 3750 2511 3984 
Q 2250 4219 1831 4219 
Q 1534 4219 1204 4116 
Q 875 4013 500 3803 
L 500 4441 
Q 881 4594 1212 4672 
Q 1544 4750 1819 4750 
Q 2544 4750 2975 4387 
Q 3406 4025 3406 3419 
Q 3406 3131 3298 2873 
Q 3191 2616 2906 2266 
Q 2828 2175 2409 1742 
Q 1991 1309 1228 531 
z
" transform="scale(0.015625)"/>
       </defs>
       <use xlink:href="#DejaVuSans-32"/>
       <use xlink:href="#DejaVuSans-2e" x="63.623047"/>
       <use xlink:href="#DejaVuSans-30" x="95.410156"/>
      </g>
     </g>
    </g>
    <g id="text_6">
     <!-- Influence of surprisal (multiplication) -->
     <g transform="translate(64.320625 202.316563)scale(0.1 -0.1)">
      <defs>
       <path id="DejaVuSans-49" d="M 628 4666 
L 1259 4666 
L 1259 0 
L 628 0 
L 628 4666 
z
" transform="scale(0.015625)"/>
       <path id="DejaVuSans-6e" d="M 3513 2113 
L 3513 0 
L 2938 0 
L 2938 2094 
Q 2938 2591 2744 2837 
Q 2550 3084 2163 3084 
Q 1697 3084 1428 2787 
Q 1159 2491 1159 1978 
L 1159 0 
L 581 0 
L 581 3500 
L 1159 3500 
L 1159 2956 
Q 1366 3272 1645 3428 
Q 1925 3584 2291 3584 
Q 2894 3584 3203 3211 
Q 3513 2838 3513 2113 
z
" transform="scale(0.015625)"/>
       <path id="DejaVuSans-66" d="M 2375 4863 
L 2375 4384 
L 1825 4384 
Q 1516 4384 1395 4259 
Q 1275 4134 1275 3809 
L 1275 3500 
L 2222 3500 
L 2222 3053 
L 1275 3053 
L 1275 0 
L 697 0 
L 697 3053 
L 147 3053 
L 147 3500 
L 697 3500 
L 697 3744 
Q 697 4328 969 4595 
Q 1241 4863 1831 4863 
L 2375 4863 
z
" transform="scale(0.015625)"/>
       <path id="DejaVuSans-6c" d="M 603 4863 
L 1178 4863 
L 1178 0 
L 603 0 
L 603 4863 
z
" transform="scale(0.015625)"/>
       <path id="DejaVuSans-75" d="M 544 1381 
L 544 3500 
L 1119 3500 
L 1119 1403 
Q 1119 906 1312 657 
Q 1506 409 1894 409 
Q 2359 409 2629 706 
Q 2900 1003 2900 1516 
L 2900 3500 
L 3475 3500 
L 3475 0 
L 2900 0 
L 2900 538 
Q 2691 219 2414 64 
Q 2138 -91 1772 -91 
Q 1169 -91 856 284 
Q 544 659 544 1381 
z
M 1991 3584 
L 1991 3584 
z
" transform="scale(0.015625)"/>
       <path id="DejaVuSans-65" d="M 3597 1894 
L 3597 1613 
L 953 1613 
Q 991 1019 1311 708 
Q 1631 397 2203 397 
Q 2534 397 2845 478 
Q 3156 559 3463 722 
L 3463 178 
Q 3153 47 2828 -22 
Q 2503 -91 2169 -91 
Q 1331 -91 842 396 
Q 353 884 353 1716 
Q 353 2575 817 3079 
Q 1281 3584 2069 3584 
Q 2775 3584 3186 3129 
Q 3597 2675 3597 1894 
z
M 3022 2063 
Q 3016 2534 2758 2815 
Q 2500 3097 2075 3097 
Q 1594 3097 1305 2825 
Q 1016 2553 972 2059 
L 3022 2063 
z
" transform="scale(0.015625)"/>
       <path id="DejaVuSans-63" d="M 3122 3366 
L 3122 2828 
Q 2878 2963 2633 3030 
Q 2388 3097 2138 3097 
Q 1578 3097 1268 2742 
Q 959 2388 959 1747 
Q 959 1106 1268 751 
Q 1578 397 2138 397 
Q 2388 397 2633 464 
Q 2878 531 3122 666 
L 3122 134 
Q 2881 22 2623 -34 
Q 2366 -91 2075 -91 
Q 1284 -91 818 406 
Q 353 903 353 1747 
Q 353 2603 823 3093 
Q 1294 3584 2113 3584 
Q 2378 3584 2631 3529 
Q 2884 3475 3122 3366 
z
" transform="scale(0.015625)"/>
       <path id="DejaVuSans-20" transform="scale(0.015625)"/>
       <path id="DejaVuSans-6f" d="M 1959 3097 
Q 1497 3097 1228 2736 
Q 959 2375 959 1747 
Q 959 1119 1226 758 
Q 1494 397 1959 397 
Q 2419 397 2687 759 
Q 2956 1122 2956 1747 
Q 2956 2369 2687 2733 
Q 2419 3097 1959 3097 
z
M 1959 3584 
Q 2709 3584 3137 3096 
Q 3566 2609 3566 1747 
Q 3566 888 3137 398 
Q 2709 -91 1959 -91 
Q 1206 -91 779 398 
Q 353 888 353 1747 
Q 353 2609 779 3096 
Q 1206 3584 1959 3584 
z
" transform="scale(0.015625)"/>
       <path id="DejaVuSans-73" d="M 2834 3397 
L 2834 2853 
Q 2591 2978 2328 3040 
Q 2066 3103 1784 3103 
Q 1356 3103 1142 2972 
Q 928 2841 928 2578 
Q 928 2378 1081 2264 
Q 1234 2150 1697 2047 
L 1894 2003 
Q 2506 1872 2764 1633 
Q 3022 1394 3022 966 
Q 3022 478 2636 193 
Q 2250 -91 1575 -91 
Q 1294 -91 989 -36 
Q 684 19 347 128 
L 347 722 
Q 666 556 975 473 
Q 1284 391 1588 391 
Q 1994 391 2212 530 
Q 2431 669 2431 922 
Q 2431 1156 2273 1281 
Q 2116 1406 1581 1522 
L 1381 1569 
Q 847 1681 609 1914 
Q 372 2147 372 2553 
Q 372 3047 722 3315 
Q 1072 3584 1716 3584 
Q 2034 3584 2315 3537 
Q 2597 3491 2834 3397 
z
" transform="scale(0.015625)"/>
       <path id="DejaVuSans-72" d="M 2631 2963 
Q 2534 3019 2420 3045 
Q 2306 3072 2169 3072 
Q 1681 3072 1420 2755 
Q 1159 2438 1159 1844 
L 1159 0 
L 581 0 
L 581 3500 
L 1159 3500 
L 1159 2956 
Q 1341 3275 1631 3429 
Q 1922 3584 2338 3584 
Q 2397 3584 2469 3576 
Q 2541 3569 2628 3553 
L 2631 2963 
z
" transform="scale(0.015625)"/>
       <path id="DejaVuSans-70" d="M 1159 525 
L 1159 -1331 
L 581 -1331 
L 581 3500 
L 1159 3500 
L 1159 2969 
Q 1341 3281 1617 3432 
Q 1894 3584 2278 3584 
Q 2916 3584 3314 3078 
Q 3713 2572 3713 1747 
Q 3713 922 3314 415 
Q 2916 -91 2278 -91 
Q 1894 -91 1617 61 
Q 1341 213 1159 525 
z
M 3116 1747 
Q 3116 2381 2855 2742 
Q 2594 3103 2138 3103 
Q 1681 3103 1420 2742 
Q 1159 2381 1159 1747 
Q 1159 1113 1420 752 
Q 1681 391 2138 391 
Q 2594 391 2855 752 
Q 3116 1113 3116 1747 
z
" transform="scale(0.015625)"/>
       <path id="DejaVuSans-69" d="M 603 3500 
L 1178 3500 
L 1178 0 
L 603 0 
L 603 3500 
z
M 603 4863 
L 1178 4863 
L 1178 4134 
L 603 4134 
L 603 4863 
z
" transform="scale(0.015625)"/>
       <path id="DejaVuSans-61" d="M 2194 1759 
Q 1497 1759 1228 1600 
Q 959 1441 959 1056 
Q 959 750 1161 570 
Q 1363 391 1709 391 
Q 2188 391 2477 730 
Q 2766 1069 2766 1631 
L 2766 1759 
L 2194 1759 
z
M 3341 1997 
L 3341 0 
L 2766 0 
L 2766 531 
Q 2569 213 2275 61 
Q 1981 -91 1556 -91 
Q 1019 -91 701 211 
Q 384 513 384 1019 
Q 384 1609 779 1909 
Q 1175 2209 1959 2209 
L 2766 2209 
L 2766 2266 
Q 2766 2663 2505 2880 
Q 2244 3097 1772 3097 
Q 1472 3097 1187 3025 
Q 903 2953 641 2809 
L 641 3341 
Q 956 3463 1253 3523 
Q 1550 3584 1831 3584 
Q 2591 3584 2966 3190 
Q 3341 2797 3341 1997 
z
" transform="scale(0.015625)"/>
       <path id="DejaVuSans-28" d="M 1984 4856 
Q 1566 4138 1362 3434 
Q 1159 2731 1159 2009 
Q 1159 1288 1364 580 
Q 1569 -128 1984 -844 
L 1484 -844 
Q 1016 -109 783 600 
Q 550 1309 550 2009 
Q 550 2706 781 3412 
Q 1013 4119 1484 4856 
L 1984 4856 
z
" transform="scale(0.015625)"/>
       <path id="DejaVuSans-6d" d="M 3328 2828 
Q 3544 3216 3844 3400 
Q 4144 3584 4550 3584 
Q 5097 3584 5394 3201 
Q 5691 2819 5691 2113 
L 5691 0 
L 5113 0 
L 5113 2094 
Q 5113 2597 4934 2840 
Q 4756 3084 4391 3084 
Q 3944 3084 3684 2787 
Q 3425 2491 3425 1978 
L 3425 0 
L 2847 0 
L 2847 2094 
Q 2847 2600 2669 2842 
Q 2491 3084 2119 3084 
Q 1678 3084 1418 2786 
Q 1159 2488 1159 1978 
L 1159 0 
L 581 0 
L 581 3500 
L 1159 3500 
L 1159 2956 
Q 1356 3278 1631 3431 
Q 1906 3584 2284 3584 
Q 2666 3584 2933 3390 
Q 3200 3197 3328 2828 
z
" transform="scale(0.015625)"/>
       <path id="DejaVuSans-74" d="M 1172 4494 
L 1172 3500 
L 2356 3500 
L 2356 3053 
L 1172 3053 
L 1172 1153 
Q 1172 725 1289 603 
Q 1406 481 1766 481 
L 2356 481 
L 2356 0 
L 1766 0 
Q 1100 0 847 248 
Q 594 497 594 1153 
L 594 3053 
L 172 3053 
L 172 3500 
L 594 3500 
L 594 4494 
L 1172 4494 
z
" transform="scale(0.015625)"/>
       <path id="DejaVuSans-29" d="M 513 4856 
L 1013 4856 
Q 1481 4119 1714 3412 
Q 1947 2706 1947 2009 
Q 1947 1309 1714 600 
Q 1481 -109 1013 -844 
L 513 -844 
Q 928 -128 1133 580 
Q 1338 1288 1338 2009 
Q 1338 2731 1133 3434 
Q 928 4138 513 4856 
z
" transform="scale(0.015625)"/>
      </defs>
      <use xlink:href="#DejaVuSans-49"/>
      <use xlink:href="#DejaVuSans-6e" x="29.492188"/>
      <use xlink:href="#DejaVuSans-66" x="92.871094"/>
      <use xlink:href="#DejaVuSans-6c" x="128.076172"/>
      <use xlink:href="#DejaVuSans-75" x="155.859375"/>
      <use xlink:href="#DejaVuSans-65" x="219.238281"/>
      <use xlink:href="#DejaVuSans-6e" x="280.761719"/>
      <use xlink:href="#DejaVuSans-63" x="344.140625"/>
      <use xlink:href="#DejaVuSans-65" x="399.121094"/>
      <use xlink:href="#DejaVuSans-20" x="460.644531"/>
      <use xlink:href="#DejaVuSans-6f" x="492.431641"/>
      <use xlink:href="#DejaVuSans-66" x="553.613281"/>
      <use xlink:href="#DejaVuSans-20" x="588.818359"/>
      <use xlink:href="#DejaVuSans-73" x="620.605469"/>
      <use xlink:href="#DejaVuSans-75" x="672.705078"/>
      <use xlink:href="#DejaVuSans-72" x="736.083984"/>
      <use xlink:href="#DejaVuSans-70" x="777.197266"/>
      <use xlink:href="#DejaVuSans-72" x="840.673828"/>
      <use xlink:href="#DejaVuSans-69" x="881.787109"/>
      <use xlink:href="#DejaVuSans-73" x="909.570312"/>
      <use xlink:href="#DejaVuSans-61" x="961.669922"/>
      <use xlink:href="#DejaVuSans-6c" x="1022.949219"/>
      <use xlink:href="#DejaVuSans-20" x="1050.732422"/>
      <use xlink:href="#DejaVuSans-28" x="1082.519531"/>
      <use xlink:href="#DejaVuSans-6d" x="1121.533203"/>
      <use xlink:href="#DejaVuSans-75" x="1218.945312"/>
      <use xlink:href="#DejaVuSans-6c" x="1282.324219"/>
      <use xlink:href="#DejaVuSans-74" x="1310.107422"/>
      <use xlink:href="#DejaVuSans-69" x="1349.316406"/>
      <use xlink:href="#DejaVuSans-70" x="1377.099609"/>
      <use xlink:href="#DejaVuSans-6c" x="1440.576172"/>
      <use xlink:href="#DejaVuSans-69" x="1468.359375"/>
      <use xlink:href="#DejaVuSans-63" x="1496.142578"/>
      <use xlink:href="#DejaVuSans-61" x="1551.123047"/>
      <use xlink:href="#DejaVuSans-74" x="1612.402344"/>
      <use xlink:href="#DejaVuSans-69" x="1651.611328"/>
      <use xlink:href="#DejaVuSans-6f" x="1679.394531"/>
      <use xlink:href="#DejaVuSans-6e" x="1740.576172"/>
      <use xlink:href="#DejaVuSans-29" x="1803.955078"/>
     </g>
    </g>
   </g>
   <g id="matplotlib.axis_2">
    <g id="ytick_1">
     <g id="line2d_6">
      <defs>
       <path id="m7ca372477c" d="M 0 0 
L -3.5 0 
" style="stroke: #000000; stroke-width: 0.8"/>
      </defs>
      <g>
       <use xlink:href="#m7ca372477c" x="47.72" y="173.400833" style="stroke: #000000; stroke-width: 0.8"/>
      </g>
     </g>
     <g id="text_7">
      <!-- 0.2 -->
      <g transform="translate(24.816875 177.200052)scale(0.1 -0.1)">
       <use xlink:href="#DejaVuSans-30"/>
       <use xlink:href="#DejaVuSans-2e" x="63.623047"/>
       <use xlink:href="#DejaVuSans-32" x="95.410156"/>
      </g>
     </g>
    </g>
    <g id="ytick_2">
     <g id="line2d_7">
      <g>
       <use xlink:href="#m7ca372477c" x="47.72" y="138.442897" style="stroke: #000000; stroke-width: 0.8"/>
      </g>
     </g>
     <g id="text_8">
      <!-- 0.4 -->
      <g transform="translate(24.816875 142.242116)scale(0.1 -0.1)">
       <defs>
        <path id="DejaVuSans-34" d="M 2419 4116 
L 825 1625 
L 2419 1625 
L 2419 4116 
z
M 2253 4666 
L 3047 4666 
L 3047 1625 
L 3713 1625 
L 3713 1100 
L 3047 1100 
L 3047 0 
L 2419 0 
L 2419 1100 
L 313 1100 
L 313 1709 
L 2253 4666 
z
" transform="scale(0.015625)"/>
       </defs>
       <use xlink:href="#DejaVuSans-30"/>
       <use xlink:href="#DejaVuSans-2e" x="63.623047"/>
       <use xlink:href="#DejaVuSans-34" x="95.410156"/>
      </g>
     </g>
    </g>
    <g id="ytick_3">
     <g id="line2d_8">
      <g>
       <use xlink:href="#m7ca372477c" x="47.72" y="103.484961" style="stroke: #000000; stroke-width: 0.8"/>
      </g>
     </g>
     <g id="text_9">
      <!-- 0.6 -->
      <g transform="translate(24.816875 107.284179)scale(0.1 -0.1)">
       <defs>
        <path id="DejaVuSans-36" d="M 2113 2584 
Q 1688 2584 1439 2293 
Q 1191 2003 1191 1497 
Q 1191 994 1439 701 
Q 1688 409 2113 409 
Q 2538 409 2786 701 
Q 3034 994 3034 1497 
Q 3034 2003 2786 2293 
Q 2538 2584 2113 2584 
z
M 3366 4563 
L 3366 3988 
Q 3128 4100 2886 4159 
Q 2644 4219 2406 4219 
Q 1781 4219 1451 3797 
Q 1122 3375 1075 2522 
Q 1259 2794 1537 2939 
Q 1816 3084 2150 3084 
Q 2853 3084 3261 2657 
Q 3669 2231 3669 1497 
Q 3669 778 3244 343 
Q 2819 -91 2113 -91 
Q 1303 -91 875 529 
Q 447 1150 447 2328 
Q 447 3434 972 4092 
Q 1497 4750 2381 4750 
Q 2619 4750 2861 4703 
Q 3103 4656 3366 4563 
z
" transform="scale(0.015625)"/>
       </defs>
       <use xlink:href="#DejaVuSans-30"/>
       <use xlink:href="#DejaVuSans-2e" x="63.623047"/>
       <use xlink:href="#DejaVuSans-36" x="95.410156"/>
      </g>
     </g>
    </g>
    <g id="ytick_4">
     <g id="line2d_9">
      <g>
       <use xlink:href="#m7ca372477c" x="47.72" y="68.527024" style="stroke: #000000; stroke-width: 0.8"/>
      </g>
     </g>
     <g id="text_10">
      <!-- 0.8 -->
      <g transform="translate(24.816875 72.326243)scale(0.1 -0.1)">
       <defs>
        <path id="DejaVuSans-38" d="M 2034 2216 
Q 1584 2216 1326 1975 
Q 1069 1734 1069 1313 
Q 1069 891 1326 650 
Q 1584 409 2034 409 
Q 2484 409 2743 651 
Q 3003 894 3003 1313 
Q 3003 1734 2745 1975 
Q 2488 2216 2034 2216 
z
M 1403 2484 
Q 997 2584 770 2862 
Q 544 3141 544 3541 
Q 544 4100 942 4425 
Q 1341 4750 2034 4750 
Q 2731 4750 3128 4425 
Q 3525 4100 3525 3541 
Q 3525 3141 3298 2862 
Q 3072 2584 2669 2484 
Q 3125 2378 3379 2068 
Q 3634 1759 3634 1313 
Q 3634 634 3220 271 
Q 2806 -91 2034 -91 
Q 1263 -91 848 271 
Q 434 634 434 1313 
Q 434 1759 690 2068 
Q 947 2378 1403 2484 
z
M 1172 3481 
Q 1172 3119 1398 2916 
Q 1625 2713 2034 2713 
Q 2441 2713 2670 2916 
Q 2900 3119 2900 3481 
Q 2900 3844 2670 4047 
Q 2441 4250 2034 4250 
Q 1625 4250 1398 4047 
Q 1172 3844 1172 3481 
z
" transform="scale(0.015625)"/>
       </defs>
       <use xlink:href="#DejaVuSans-30"/>
       <use xlink:href="#DejaVuSans-2e" x="63.623047"/>
       <use xlink:href="#DejaVuSans-38" x="95.410156"/>
      </g>
     </g>
    </g>
    <g id="ytick_5">
     <g id="line2d_10">
      <g>
       <use xlink:href="#m7ca372477c" x="47.72" y="33.569088" style="stroke: #000000; stroke-width: 0.8"/>
      </g>
     </g>
     <g id="text_11">
      <!-- 1.0 -->
      <g transform="translate(24.816875 37.368307)scale(0.1 -0.1)">
       <use xlink:href="#DejaVuSans-31"/>
       <use xlink:href="#DejaVuSans-2e" x="63.623047"/>
       <use xlink:href="#DejaVuSans-30" x="95.410156"/>
      </g>
     </g>
    </g>
    <g id="text_12">
     <!-- R-value -->
     <g transform="translate(18.737188 119.064687)rotate(-90)scale(0.1 -0.1)">
      <defs>
       <path id="DejaVuSans-52" d="M 2841 2188 
Q 3044 2119 3236 1894 
Q 3428 1669 3622 1275 
L 4263 0 
L 3584 0 
L 2988 1197 
Q 2756 1666 2539 1819 
Q 2322 1972 1947 1972 
L 1259 1972 
L 1259 0 
L 628 0 
L 628 4666 
L 2053 4666 
Q 2853 4666 3247 4331 
Q 3641 3997 3641 3322 
Q 3641 2881 3436 2590 
Q 3231 2300 2841 2188 
z
M 1259 4147 
L 1259 2491 
L 2053 2491 
Q 2509 2491 2742 2702 
Q 2975 2913 2975 3322 
Q 2975 3731 2742 3939 
Q 2509 4147 2053 4147 
L 1259 4147 
z
" transform="scale(0.015625)"/>
       <path id="DejaVuSans-2d" d="M 313 2009 
L 1997 2009 
L 1997 1497 
L 313 1497 
L 313 2009 
z
" transform="scale(0.015625)"/>
       <path id="DejaVuSans-76" d="M 191 3500 
L 800 3500 
L 1894 563 
L 2988 3500 
L 3597 3500 
L 2284 0 
L 1503 0 
L 191 3500 
z
" transform="scale(0.015625)"/>
      </defs>
      <use xlink:href="#DejaVuSans-52"/>
      <use xlink:href="#DejaVuSans-2d" x="65.482422"/>
      <use xlink:href="#DejaVuSans-76" x="98.941406"/>
      <use xlink:href="#DejaVuSans-61" x="158.121094"/>
      <use xlink:href="#DejaVuSans-6c" x="219.400391"/>
      <use xlink:href="#DejaVuSans-75" x="247.183594"/>
      <use xlink:href="#DejaVuSans-65" x="310.5625"/>
     </g>
    </g>
   </g>
   <g id="line2d_11">
    <path d="M 47.72 33.569091 
L 59.167105 34.521198 
L 70.614211 37.391717 
L 82.061316 41.226281 
L 93.508421 46.431738 
L 104.955526 52.343658 
L 116.402632 59.260481 
L 127.849737 65.912042 
L 139.296842 73.174535 
L 150.743947 80.422041 
L 162.191053 87.916715 
L 173.638158 95.278767 
L 185.085263 101.924145 
L 196.532368 109.377283 
L 207.979474 115.508138 
L 219.426579 121.901173 
L 230.873684 127.325918 
L 242.320789 132.914265 
L 253.767895 138.032981 
L 265.215 142.626031 
" clip-path="url(#pbcb4cca136)" style="fill: none; stroke: #1f77b4; stroke-width: 1.5; stroke-linecap: square"/>
   </g>
   <g id="line2d_12">
    <path d="M 47.72 33.569265 
L 59.167105 34.199413 
L 70.614211 35.777091 
L 82.061316 38.081942 
L 93.508421 41.322709 
L 104.955526 45.15528 
L 116.402632 49.980599 
L 127.849737 55.006185 
L 139.296842 60.51928 
L 150.743947 66.432914 
L 162.191053 72.467892 
L 173.638158 78.843428 
L 185.085263 84.790685 
L 196.532368 91.74085 
L 207.979474 97.681968 
L 219.426579 103.900058 
L 230.873684 109.230453 
L 242.320789 114.968304 
L 253.767895 120.246959 
L 265.215 125.217878 
" clip-path="url(#pbcb4cca136)" style="fill: none; stroke: #ff7f0e; stroke-width: 1.5; stroke-linecap: square"/>
   </g>
   <g id="line2d_13">
    <path d="M 47.72 33.569101 
L 59.167105 34.290691 
L 70.614211 35.613981 
L 82.061316 37.339366 
L 93.508421 39.690396 
L 104.955526 42.307883 
L 116.402632 45.223814 
L 127.849737 48.010398 
L 139.296842 51.199248 
L 150.743947 54.541426 
L 162.191053 58.079504 
L 173.638158 61.561557 
L 185.085263 65.0984 
L 196.532368 69.243869 
L 207.979474 72.72977 
L 219.426579 76.457089 
L 230.873684 79.820523 
L 242.320789 83.567488 
L 253.767895 87.442163 
L 265.215 90.83665 
" clip-path="url(#pbcb4cca136)" style="fill: none; stroke: #2ca02c; stroke-width: 1.5; stroke-linecap: square"/>
   </g>
   <g id="line2d_14">
    <path d="M 47.72 33.570034 
L 59.167105 34.152869 
L 70.614211 35.153858 
L 82.061316 36.542078 
L 93.508421 38.475601 
L 104.955526 40.674877 
L 116.402632 43.341395 
L 127.849737 46.046269 
L 139.296842 49.170537 
L 150.743947 52.562727 
L 162.191053 56.090645 
L 173.638158 59.690744 
L 185.085263 63.27642 
L 196.532368 67.516702 
L 207.979474 71.059966 
L 219.426579 74.81474 
L 230.873684 78.191328 
L 242.320789 82.024728 
L 253.767895 85.898293 
L 265.215 89.284213 
" clip-path="url(#pbcb4cca136)" style="fill: none; stroke: #d62728; stroke-width: 1.5; stroke-linecap: square"/>
   </g>
   <g id="line2d_15">
    <path d="M 47.72 33.569101 
L 59.167105 34.519466 
L 70.614211 37.404647 
L 82.061316 41.255002 
L 93.508421 46.479018 
L 104.955526 52.420179 
L 116.402632 59.223513 
L 127.849737 65.941203 
L 139.296842 73.26314 
L 150.743947 80.605543 
L 162.191053 88.362821 
L 173.638158 95.570707 
L 185.085263 102.255086 
L 196.532368 109.972471 
L 207.979474 115.632568 
L 219.426579 122.216766 
L 230.873684 127.611428 
L 242.320789 132.901682 
L 253.767895 138.423172 
L 265.215 142.688178 
" clip-path="url(#pbcb4cca136)" style="fill: none; stroke: #9467bd; stroke-width: 1.5; stroke-linecap: square"/>
   </g>
   <g id="line2d_16">
    <path d="M 47.72 33.569796 
L 59.167105 34.199446 
L 70.614211 35.784681 
L 82.061316 38.102378 
L 93.508421 41.369361 
L 104.955526 45.208841 
L 116.402632 50.012327 
L 127.849737 55.03379 
L 139.296842 60.576688 
L 150.743947 66.581883 
L 162.191053 72.792704 
L 173.638158 79.047132 
L 185.085263 85.003197 
L 196.532368 92.217405 
L 207.979474 97.808886 
L 219.426579 104.074415 
L 230.873684 109.492215 
L 242.320789 114.92683 
L 253.767895 120.605532 
L 265.215 125.309864 
" clip-path="url(#pbcb4cca136)" style="fill: none; stroke: #8c564b; stroke-width: 1.5; stroke-linecap: square"/>
   </g>
   <g id="line2d_17">
    <path d="M 47.72 47.969403 
L 59.167105 49.232549 
L 70.614211 52.78318 
L 82.061316 57.703751 
L 93.508421 64.055331 
L 104.955526 70.766637 
L 116.402632 78.231466 
L 127.849737 85.113614 
L 139.296842 92.391111 
L 150.743947 99.519876 
L 162.191053 107.034407 
L 173.638158 113.988643 
L 185.085263 120.734102 
L 196.532368 127.906942 
L 207.979474 133.794173 
L 219.426579 139.692658 
L 230.873684 144.690119 
L 242.320789 149.396968 
L 253.767895 153.837743 
L 265.215 157.680567 
" clip-path="url(#pbcb4cca136)" style="fill: none; stroke: #e377c2; stroke-width: 1.5; stroke-linecap: square"/>
   </g>
   <g id="line2d_18">
    <path d="M 47.72 33.569529 
L 59.167105 33.842991 
L 70.614211 34.052959 
L 82.061316 34.703795 
L 93.508421 36.06224 
L 104.955526 38.378365 
L 116.402632 41.588157 
L 127.849737 45.306641 
L 139.296842 49.509113 
L 150.743947 54.280179 
L 162.191053 59.311054 
L 173.638158 64.527497 
L 185.085263 69.853826 
L 196.532368 76.34888 
L 207.979474 82.191171 
L 219.426579 88.428285 
L 230.873684 94.023383 
L 242.320789 100.217584 
L 253.767895 106.158667 
L 265.215 111.784916 
" clip-path="url(#pbcb4cca136)" style="fill: none; stroke: #7f7f7f; stroke-width: 1.5; stroke-linecap: square"/>
   </g>
   <g id="patch_3">
    <path d="M 47.72 174.04 
L 47.72 26.88 
" style="fill: none; stroke: #000000; stroke-width: 0.8; stroke-linejoin: miter; stroke-linecap: square"/>
   </g>
   <g id="patch_4">
    <path d="M 47.72 174.04 
L 265.215 174.04 
" style="fill: none; stroke: #000000; stroke-width: 0.8; stroke-linejoin: miter; stroke-linecap: square"/>
   </g>
   <g id="text_13">
    <!-- Node * surprisal -->
    <g transform="translate(108.18625 20.88)scale(0.12 -0.12)">
     <defs>
      <path id="DejaVuSans-4e" d="M 628 4666 
L 1478 4666 
L 3547 763 
L 3547 4666 
L 4159 4666 
L 4159 0 
L 3309 0 
L 1241 3903 
L 1241 0 
L 628 0 
L 628 4666 
z
" transform="scale(0.015625)"/>
      <path id="DejaVuSans-64" d="M 2906 2969 
L 2906 4863 
L 3481 4863 
L 3481 0 
L 2906 0 
L 2906 525 
Q 2725 213 2448 61 
Q 2172 -91 1784 -91 
Q 1150 -91 751 415 
Q 353 922 353 1747 
Q 353 2572 751 3078 
Q 1150 3584 1784 3584 
Q 2172 3584 2448 3432 
Q 2725 3281 2906 2969 
z
M 947 1747 
Q 947 1113 1208 752 
Q 1469 391 1925 391 
Q 2381 391 2643 752 
Q 2906 1113 2906 1747 
Q 2906 2381 2643 2742 
Q 2381 3103 1925 3103 
Q 1469 3103 1208 2742 
Q 947 2381 947 1747 
z
" transform="scale(0.015625)"/>
      <path id="DejaVuSans-2a" d="M 3009 3897 
L 1888 3291 
L 3009 2681 
L 2828 2375 
L 1778 3009 
L 1778 1831 
L 1422 1831 
L 1422 3009 
L 372 2375 
L 191 2681 
L 1313 3291 
L 191 3897 
L 372 4206 
L 1422 3572 
L 1422 4750 
L 1778 4750 
L 1778 3572 
L 2828 4206 
L 3009 3897 
z
" transform="scale(0.015625)"/>
     </defs>
     <use xlink:href="#DejaVuSans-4e"/>
     <use xlink:href="#DejaVuSans-6f" x="74.804688"/>
     <use xlink:href="#DejaVuSans-64" x="135.986328"/>
     <use xlink:href="#DejaVuSans-65" x="199.462891"/>
     <use xlink:href="#DejaVuSans-20" x="260.986328"/>
     <use xlink:href="#DejaVuSans-2a" x="292.773438"/>
     <use xlink:href="#DejaVuSans-20" x="342.773438"/>
     <use xlink:href="#DejaVuSans-73" x="374.560547"/>
     <use xlink:href="#DejaVuSans-75" x="426.660156"/>
     <use xlink:href="#DejaVuSans-72" x="490.039062"/>
     <use xlink:href="#DejaVuSans-70" x="531.152344"/>
     <use xlink:href="#DejaVuSans-72" x="594.628906"/>
     <use xlink:href="#DejaVuSans-69" x="635.742188"/>
     <use xlink:href="#DejaVuSans-73" x="663.525391"/>
     <use xlink:href="#DejaVuSans-61" x="715.625"/>
     <use xlink:href="#DejaVuSans-6c" x="776.904297"/>
    </g>
   </g>
  </g>
  <g id="axes_2">
   <g id="patch_5">
    <path d="M 298.065 174.04 
L 515.56 174.04 
L 515.56 26.88 
L 298.065 26.88 
z
" style="fill: #ffffff"/>
   </g>
   <g id="PolyCollection_9">
    <path d="M 298.065 33.569091 
L 298.065 33.569092 
L 309.512105 34.588068 
L 320.959211 37.582345 
L 332.406316 41.804026 
L 343.853421 47.424734 
L 355.300526 53.613686 
L 366.747632 60.211986 
L 378.194737 67.938137 
L 389.641842 74.642176 
L 401.088947 82.6299 
L 412.536053 90.16674 
L 423.983158 97.782504 
L 435.430263 104.778892 
L 446.877368 112.206327 
L 458.324474 118.073311 
L 469.771579 124.558645 
L 481.218684 130.437497 
L 492.665789 135.837263 
L 504.112895 140.517254 
L 515.56 145.749882 
L 515.56 126.48273 
L 515.56 126.48273 
L 504.112895 121.948492 
L 492.665789 117.312843 
L 481.218684 111.31849 
L 469.771579 105.939619 
L 458.324474 100.800348 
L 446.877368 94.375425 
L 435.430263 89.019664 
L 423.983158 83.543569 
L 412.536053 77.43273 
L 401.088947 72.548456 
L 389.641842 66.916958 
L 378.194737 60.898476 
L 366.747632 54.871338 
L 355.300526 49.358028 
L 343.853421 44.341988 
L 332.406316 40.123618 
L 320.959211 36.539293 
L 309.512105 34.352601 
L 298.065 33.569091 
z
" clip-path="url(#p7ba3c109ef)" style="fill: #1f77b4; fill-opacity: 0.4"/>
   </g>
   <g id="PolyCollection_10">
    <path d="M 298.065 33.569236 
L 298.065 33.569294 
L 309.512105 34.589666 
L 320.959211 37.60614 
L 332.406316 41.84528 
L 343.853421 47.506031 
L 355.300526 53.764817 
L 366.747632 60.430535 
L 378.194737 68.224593 
L 389.641842 75.028005 
L 401.088947 83.05267 
L 412.536053 90.692155 
L 423.983158 98.367747 
L 435.430263 105.409865 
L 446.877368 112.886806 
L 458.324474 118.852354 
L 469.771579 125.420938 
L 481.218684 131.371665 
L 492.665789 136.815782 
L 504.112895 141.606669 
L 515.56 147.000631 
L 515.56 126.533142 
L 515.56 126.533142 
L 504.112895 122.00974 
L 492.665789 117.336372 
L 481.218684 111.339433 
L 469.771579 105.903591 
L 458.324474 100.797112 
L 446.877368 94.33084 
L 435.430263 88.993694 
L 423.983158 83.495726 
L 412.536053 77.355739 
L 401.088947 72.483568 
L 389.641842 66.830458 
L 378.194737 60.845238 
L 366.747632 54.829962 
L 355.300526 49.330124 
L 343.853421 44.334733 
L 332.406316 40.127232 
L 320.959211 36.53553 
L 309.512105 34.351705 
L 298.065 33.569236 
z
" clip-path="url(#p7ba3c109ef)" style="fill: #ff7f0e; fill-opacity: 0.4"/>
   </g>
   <g id="PolyCollection_11">
    <path d="M 298.065 33.569099 
L 298.065 33.569102 
L 309.512105 34.597334 
L 320.959211 37.596664 
L 332.406316 41.863658 
L 343.853421 47.487117 
L 355.300526 53.765972 
L 366.747632 60.409847 
L 378.194737 68.215096 
L 389.641842 75.0144 
L 401.088947 83.051662 
L 412.536053 90.638915 
L 423.983158 98.358385 
L 435.430263 105.408895 
L 446.877368 112.959611 
L 458.324474 118.945095 
L 469.771579 125.463722 
L 481.218684 131.511109 
L 492.665789 136.980437 
L 504.112895 141.699059 
L 515.56 147.170554 
L 515.56 126.371598 
L 515.56 126.371598 
L 504.112895 121.863687 
L 492.665789 117.200517 
L 481.218684 111.208631 
L 469.771579 105.814851 
L 458.324474 100.7338 
L 446.877368 94.320635 
L 435.430263 89.024486 
L 423.983158 83.534131 
L 412.536053 77.437319 
L 401.088947 72.557734 
L 389.641842 66.933251 
L 378.194737 60.933706 
L 366.747632 54.907541 
L 355.300526 49.362197 
L 343.853421 44.365237 
L 332.406316 40.126744 
L 320.959211 36.541245 
L 309.512105 34.34949 
L 298.065 33.569099 
z
" clip-path="url(#p7ba3c109ef)" style="fill: #2ca02c; fill-opacity: 0.4"/>
   </g>
   <g id="PolyCollection_12">
    <path d="M 298.065 33.569833 
L 298.065 33.570235 
L 309.512105 34.598289 
L 320.959211 37.60578 
L 332.406316 41.867555 
L 343.853421 47.504316 
L 355.300526 53.806753 
L 366.747632 60.493696 
L 378.194737 68.319759 
L 389.641842 75.155017 
L 401.088947 83.218577 
L 412.536053 90.865181 
L 423.983158 98.612521 
L 435.430263 105.672715 
L 446.877368 113.241946 
L 458.324474 119.26946 
L 469.771579 125.89078 
L 481.218684 131.977764 
L 492.665789 137.488396 
L 504.112895 142.305863 
L 515.56 147.895559 
L 515.56 126.358074 
L 515.56 126.358074 
L 504.112895 121.886819 
L 492.665789 117.217826 
L 481.218684 111.258463 
L 469.771579 105.849431 
L 458.324474 100.809767 
L 446.877368 94.34528 
L 435.430263 89.042163 
L 423.983158 83.556403 
L 412.536053 77.425171 
L 401.088947 72.541384 
L 389.641842 66.908284 
L 378.194737 60.920897 
L 366.747632 54.915202 
L 355.300526 49.372603 
L 343.853421 44.374961 
L 332.406316 40.141131 
L 320.959211 36.546898 
L 309.512105 34.350484 
L 298.065 33.569833 
z
" clip-path="url(#p7ba3c109ef)" style="fill: #d62728; fill-opacity: 0.4"/>
   </g>
   <g id="PolyCollection_13">
    <path d="M 298.065 33.5691 
L 298.065 33.569102 
L 309.512105 34.590047 
L 320.959211 37.584313 
L 332.406316 41.797437 
L 343.853421 47.360746 
L 355.300526 53.525371 
L 366.747632 60.239251 
L 378.194737 67.956512 
L 389.641842 74.676358 
L 401.088947 82.730384 
L 412.536053 90.245719 
L 423.983158 98.213934 
L 435.430263 104.981197 
L 446.877368 112.139074 
L 458.324474 118.639384 
L 469.771579 124.927521 
L 481.218684 130.643567 
L 492.665789 136.776474 
L 504.112895 141.339929 
L 515.56 145.482701 
L 515.56 126.675294 
L 515.56 126.675294 
L 504.112895 122.952385 
L 492.665789 117.578694 
L 481.218684 112.2104 
L 469.771579 106.425409 
L 458.324474 100.834391 
L 446.877368 94.396479 
L 435.430263 89.146352 
L 423.983158 83.579043 
L 412.536053 77.812578 
L 401.088947 72.803338 
L 389.641842 66.90752 
L 378.194737 60.968622 
L 366.747632 54.929867 
L 355.300526 49.349265 
L 343.853421 44.368856 
L 332.406316 40.11109 
L 320.959211 36.544101 
L 309.512105 34.352785 
L 298.065 33.5691 
z
" clip-path="url(#p7ba3c109ef)" style="fill: #9467bd; fill-opacity: 0.4"/>
   </g>
   <g id="PolyCollection_14">
    <path d="M 298.065 33.569679 
L 298.065 33.569915 
L 309.512105 34.592307 
L 320.959211 37.608665 
L 332.406316 41.840869 
L 343.853421 47.444475 
L 355.300526 53.667265 
L 366.747632 60.45585 
L 378.194737 68.24904 
L 389.641842 75.048327 
L 401.088947 83.142674 
L 412.536053 90.740037 
L 423.983158 98.79024 
L 435.430263 105.577981 
L 446.877368 112.825723 
L 458.324474 119.428018 
L 469.771579 125.78243 
L 481.218684 131.538775 
L 492.665789 137.676666 
L 504.112895 142.496196 
L 515.56 146.698065 
L 515.56 126.708276 
L 515.56 126.708276 
L 504.112895 123.003737 
L 492.665789 117.660567 
L 481.218684 112.279504 
L 469.771579 106.396675 
L 458.324474 100.81869 
L 446.877368 94.357575 
L 435.430263 89.128232 
L 423.983158 83.547142 
L 412.536053 77.749145 
L 401.088947 72.749838 
L 389.641842 66.837851 
L 378.194737 60.924039 
L 366.747632 54.886967 
L 355.300526 49.327772 
L 343.853421 44.362256 
L 332.406316 40.116064 
L 320.959211 36.54137 
L 309.512105 34.352376 
L 298.065 33.569679 
z
" clip-path="url(#p7ba3c109ef)" style="fill: #8c564b; fill-opacity: 0.4"/>
   </g>
   <g id="PolyCollection_15">
    <path d="M 298.065 45.56659 
L 298.065 50.372216 
L 309.512105 51.251748 
L 320.959211 53.755976 
L 332.406316 57.616359 
L 343.853421 62.171711 
L 355.300526 67.715096 
L 366.747632 73.431242 
L 378.194737 79.806596 
L 389.641842 85.850831 
L 401.088947 92.93025 
L 412.536053 99.585894 
L 423.983158 106.465486 
L 435.430263 112.675606 
L 446.877368 119.829864 
L 458.324474 124.883827 
L 469.771579 130.851466 
L 481.218684 136.074355 
L 492.665789 141.091107 
L 504.112895 145.561886 
L 515.56 150.383399 
L 515.56 133.20666 
L 515.56 133.20666 
L 504.112895 129.220684 
L 492.665789 125.192159 
L 481.218684 119.616112 
L 469.771579 114.858863 
L 458.324474 110.244185 
L 446.877368 104.335147 
L 435.430263 99.405991 
L 423.983158 94.443394 
L 412.536053 88.599722 
L 401.088947 83.896513 
L 389.641842 78.422062 
L 378.194737 72.689077 
L 366.747632 66.488349 
L 355.300526 60.936283 
L 343.853421 56.105071 
L 332.406316 51.83229 
L 320.959211 48.532881 
L 309.512105 46.33544 
L 298.065 45.56659 
z
" clip-path="url(#p7ba3c109ef)" style="fill: #e377c2; fill-opacity: 0.4"/>
   </g>
   <g id="PolyCollection_16">
    <path d="M 298.065 33.569417 
L 298.065 33.569641 
L 309.512105 34.594126 
L 320.959211 37.610695 
L 332.406316 41.868453 
L 343.853421 47.535132 
L 355.300526 53.815229 
L 366.747632 60.506884 
L 378.194737 68.377646 
L 389.641842 75.245439 
L 401.088947 83.326421 
L 412.536053 90.982791 
L 423.983158 98.73491 
L 435.430263 105.839736 
L 446.877368 113.360556 
L 458.324474 119.313639 
L 469.771579 125.89168 
L 481.218684 131.85204 
L 492.665789 137.322791 
L 504.112895 142.091009 
L 515.56 147.523308 
L 515.56 126.627617 
L 515.56 126.627617 
L 504.112895 122.150273 
L 492.665789 117.531473 
L 481.218684 111.561669 
L 469.771579 106.109148 
L 458.324474 101.050079 
L 446.877368 94.556718 
L 435.430263 89.218764 
L 423.983158 83.686836 
L 412.536053 77.530002 
L 401.088947 72.591251 
L 389.641842 66.939631 
L 378.194737 60.979243 
L 366.747632 54.935915 
L 355.300526 49.425551 
L 343.853421 44.412906 
L 332.406316 40.16944 
L 320.959211 36.561234 
L 309.512105 34.356214 
L 298.065 33.569417 
z
" clip-path="url(#p7ba3c109ef)" style="fill: #7f7f7f; fill-opacity: 0.4"/>
   </g>
   <g id="matplotlib.axis_3">
    <g id="xtick_6">
     <g id="line2d_19">
      <g>
       <use xlink:href="#m17dbc71ca8" x="298.065" y="174.04" style="stroke: #000000; stroke-width: 0.8"/>
      </g>
     </g>
     <g id="text_14">
      <!-- 0.0 -->
      <g transform="translate(290.113437 188.638438)scale(0.1 -0.1)">
       <use xlink:href="#DejaVuSans-30"/>
       <use xlink:href="#DejaVuSans-2e" x="63.623047"/>
       <use xlink:href="#DejaVuSans-30" x="95.410156"/>
      </g>
     </g>
    </g>
    <g id="xtick_7">
     <g id="line2d_20">
      <g>
       <use xlink:href="#m17dbc71ca8" x="352.43875" y="174.04" style="stroke: #000000; stroke-width: 0.8"/>
      </g>
     </g>
     <g id="text_15">
      <!-- 0.5 -->
      <g transform="translate(344.487187 188.638438)scale(0.1 -0.1)">
       <use xlink:href="#DejaVuSans-30"/>
       <use xlink:href="#DejaVuSans-2e" x="63.623047"/>
       <use xlink:href="#DejaVuSans-35" x="95.410156"/>
      </g>
     </g>
    </g>
    <g id="xtick_8">
     <g id="line2d_21">
      <g>
       <use xlink:href="#m17dbc71ca8" x="406.8125" y="174.04" style="stroke: #000000; stroke-width: 0.8"/>
      </g>
     </g>
     <g id="text_16">
      <!-- 1.0 -->
      <g transform="translate(398.860937 188.638438)scale(0.1 -0.1)">
       <use xlink:href="#DejaVuSans-31"/>
       <use xlink:href="#DejaVuSans-2e" x="63.623047"/>
       <use xlink:href="#DejaVuSans-30" x="95.410156"/>
      </g>
     </g>
    </g>
    <g id="xtick_9">
     <g id="line2d_22">
      <g>
       <use xlink:href="#m17dbc71ca8" x="461.18625" y="174.04" style="stroke: #000000; stroke-width: 0.8"/>
      </g>
     </g>
     <g id="text_17">
      <!-- 1.5 -->
      <g transform="translate(453.234687 188.638438)scale(0.1 -0.1)">
       <use xlink:href="#DejaVuSans-31"/>
       <use xlink:href="#DejaVuSans-2e" x="63.623047"/>
       <use xlink:href="#DejaVuSans-35" x="95.410156"/>
      </g>
     </g>
    </g>
    <g id="xtick_10">
     <g id="line2d_23">
      <g>
       <use xlink:href="#m17dbc71ca8" x="515.56" y="174.04" style="stroke: #000000; stroke-width: 0.8"/>
      </g>
     </g>
     <g id="text_18">
      <!-- 2.0 -->
      <g transform="translate(507.608437 188.638438)scale(0.1 -0.1)">
       <use xlink:href="#DejaVuSans-32"/>
       <use xlink:href="#DejaVuSans-2e" x="63.623047"/>
       <use xlink:href="#DejaVuSans-30" x="95.410156"/>
      </g>
     </g>
    </g>
    <g id="text_19">
     <!-- Influence of surprisal (multiplication) -->
     <g transform="translate(314.665625 202.316563)scale(0.1 -0.1)">
      <use xlink:href="#DejaVuSans-49"/>
      <use xlink:href="#DejaVuSans-6e" x="29.492188"/>
      <use xlink:href="#DejaVuSans-66" x="92.871094"/>
      <use xlink:href="#DejaVuSans-6c" x="128.076172"/>
      <use xlink:href="#DejaVuSans-75" x="155.859375"/>
      <use xlink:href="#DejaVuSans-65" x="219.238281"/>
      <use xlink:href="#DejaVuSans-6e" x="280.761719"/>
      <use xlink:href="#DejaVuSans-63" x="344.140625"/>
      <use xlink:href="#DejaVuSans-65" x="399.121094"/>
      <use xlink:href="#DejaVuSans-20" x="460.644531"/>
      <use xlink:href="#DejaVuSans-6f" x="492.431641"/>
      <use xlink:href="#DejaVuSans-66" x="553.613281"/>
      <use xlink:href="#DejaVuSans-20" x="588.818359"/>
      <use xlink:href="#DejaVuSans-73" x="620.605469"/>
      <use xlink:href="#DejaVuSans-75" x="672.705078"/>
      <use xlink:href="#DejaVuSans-72" x="736.083984"/>
      <use xlink:href="#DejaVuSans-70" x="777.197266"/>
      <use xlink:href="#DejaVuSans-72" x="840.673828"/>
      <use xlink:href="#DejaVuSans-69" x="881.787109"/>
      <use xlink:href="#DejaVuSans-73" x="909.570312"/>
      <use xlink:href="#DejaVuSans-61" x="961.669922"/>
      <use xlink:href="#DejaVuSans-6c" x="1022.949219"/>
      <use xlink:href="#DejaVuSans-20" x="1050.732422"/>
      <use xlink:href="#DejaVuSans-28" x="1082.519531"/>
      <use xlink:href="#DejaVuSans-6d" x="1121.533203"/>
      <use xlink:href="#DejaVuSans-75" x="1218.945312"/>
      <use xlink:href="#DejaVuSans-6c" x="1282.324219"/>
      <use xlink:href="#DejaVuSans-74" x="1310.107422"/>
      <use xlink:href="#DejaVuSans-69" x="1349.316406"/>
      <use xlink:href="#DejaVuSans-70" x="1377.099609"/>
      <use xlink:href="#DejaVuSans-6c" x="1440.576172"/>
      <use xlink:href="#DejaVuSans-69" x="1468.359375"/>
      <use xlink:href="#DejaVuSans-63" x="1496.142578"/>
      <use xlink:href="#DejaVuSans-61" x="1551.123047"/>
      <use xlink:href="#DejaVuSans-74" x="1612.402344"/>
      <use xlink:href="#DejaVuSans-69" x="1651.611328"/>
      <use xlink:href="#DejaVuSans-6f" x="1679.394531"/>
      <use xlink:href="#DejaVuSans-6e" x="1740.576172"/>
      <use xlink:href="#DejaVuSans-29" x="1803.955078"/>
     </g>
    </g>
   </g>
   <g id="line2d_24">
    <path d="M 298.065 33.569091 
L 309.512105 34.470335 
L 320.959211 37.060819 
L 332.406316 40.963822 
L 343.853421 45.883361 
L 355.300526 51.485857 
L 366.747632 57.541662 
L 378.194737 64.418306 
L 389.641842 70.779567 
L 401.088947 77.589178 
L 412.536053 83.799735 
L 423.983158 90.663036 
L 435.430263 96.899278 
L 446.877368 103.290876 
L 458.324474 109.436829 
L 469.771579 115.249132 
L 481.218684 120.877993 
L 492.665789 126.575053 
L 504.112895 131.232873 
L 515.56 136.116306 
" clip-path="url(#p7ba3c109ef)" style="fill: none; stroke: #1f77b4; stroke-width: 1.5; stroke-linecap: square"/>
   </g>
   <g id="line2d_25">
    <path d="M 298.065 33.569265 
L 309.512105 34.470686 
L 320.959211 37.070835 
L 332.406316 40.986256 
L 343.853421 45.920382 
L 355.300526 51.547471 
L 366.747632 57.630248 
L 378.194737 64.534915 
L 389.641842 70.929231 
L 401.088947 77.768119 
L 412.536053 84.023947 
L 423.983158 90.931737 
L 435.430263 97.20178 
L 446.877368 103.608823 
L 458.324474 109.824733 
L 469.771579 115.662265 
L 481.218684 121.355549 
L 492.665789 127.076077 
L 504.112895 131.808204 
L 515.56 136.766887 
" clip-path="url(#p7ba3c109ef)" style="fill: none; stroke: #ff7f0e; stroke-width: 1.5; stroke-linecap: square"/>
   </g>
   <g id="line2d_26">
    <path d="M 298.065 33.569101 
L 309.512105 34.473412 
L 320.959211 37.068954 
L 332.406316 40.995201 
L 343.853421 45.926177 
L 355.300526 51.564084 
L 366.747632 57.658694 
L 378.194737 64.574401 
L 389.641842 70.973826 
L 401.088947 77.804698 
L 412.536053 84.038117 
L 423.983158 90.946258 
L 435.430263 97.21669 
L 446.877368 103.640123 
L 458.324474 109.839447 
L 469.771579 115.639286 
L 481.218684 121.35987 
L 492.665789 127.090477 
L 504.112895 131.781373 
L 515.56 136.771076 
" clip-path="url(#p7ba3c109ef)" style="fill: none; stroke: #2ca02c; stroke-width: 1.5; stroke-linecap: square"/>
   </g>
   <g id="line2d_27">
    <path d="M 298.065 33.570034 
L 309.512105 34.474387 
L 320.959211 37.076339 
L 332.406316 41.004343 
L 343.853421 45.939638 
L 355.300526 51.589678 
L 366.747632 57.704449 
L 378.194737 64.620328 
L 389.641842 71.03165 
L 401.088947 77.87998 
L 412.536053 84.145176 
L 423.983158 91.084462 
L 435.430263 97.357439 
L 446.877368 103.793613 
L 458.324474 110.039614 
L 469.771579 115.870105 
L 481.218684 121.618113 
L 492.665789 127.353111 
L 504.112895 132.096341 
L 515.56 137.126817 
" clip-path="url(#p7ba3c109ef)" style="fill: none; stroke: #d62728; stroke-width: 1.5; stroke-linecap: square"/>
   </g>
   <g id="line2d_28">
    <path d="M 298.065 33.569101 
L 309.512105 34.471416 
L 320.959211 37.064207 
L 332.406316 40.954264 
L 343.853421 45.864801 
L 355.300526 51.437318 
L 366.747632 57.584559 
L 378.194737 64.462567 
L 389.641842 70.791939 
L 401.088947 77.766861 
L 412.536053 84.029148 
L 423.983158 90.896489 
L 435.430263 97.063775 
L 446.877368 103.267776 
L 458.324474 109.736887 
L 469.771579 115.676465 
L 481.218684 121.426984 
L 492.665789 127.177584 
L 504.112895 132.146157 
L 515.56 136.078997 
" clip-path="url(#p7ba3c109ef)" style="fill: none; stroke: #9467bd; stroke-width: 1.5; stroke-linecap: square"/>
   </g>
   <g id="line2d_29">
    <path d="M 298.065 33.569797 
L 309.512105 34.472342 
L 320.959211 37.075017 
L 332.406316 40.978467 
L 343.853421 45.903365 
L 355.300526 51.497519 
L 366.747632 57.671408 
L 378.194737 64.58654 
L 389.641842 70.943089 
L 401.088947 77.946256 
L 412.536053 84.244591 
L 423.983158 91.168691 
L 435.430263 97.353107 
L 446.877368 103.591649 
L 458.324474 110.123354 
L 469.771579 116.089552 
L 481.218684 121.909139 
L 492.665789 127.668616 
L 504.112895 132.749966 
L 515.56 136.703171 
" clip-path="url(#p7ba3c109ef)" style="fill: none; stroke: #8c564b; stroke-width: 1.5; stroke-linecap: square"/>
   </g>
   <g id="line2d_30">
    <path d="M 298.065 47.969403 
L 309.512105 48.793594 
L 320.959211 51.144428 
L 332.406316 54.724324 
L 343.853421 59.138391 
L 355.300526 64.325689 
L 366.747632 69.959795 
L 378.194737 76.247836 
L 389.641842 82.136447 
L 401.088947 88.413381 
L 412.536053 94.092808 
L 423.983158 100.45444 
L 435.430263 106.040799 
L 446.877368 112.082506 
L 458.324474 117.564006 
L 469.771579 122.855165 
L 481.218684 127.845233 
L 492.665789 133.141633 
L 504.112895 137.391285 
L 515.56 141.79503 
" clip-path="url(#p7ba3c109ef)" style="fill: none; stroke: #e377c2; stroke-width: 1.5; stroke-linecap: square"/>
   </g>
   <g id="line2d_31">
    <path d="M 298.065 33.569529 
L 309.512105 34.47517 
L 320.959211 37.085964 
L 332.406316 41.018946 
L 343.853421 45.974019 
L 355.300526 51.62039 
L 366.747632 57.7214 
L 378.194737 64.678445 
L 389.641842 71.092535 
L 401.088947 77.958836 
L 412.536053 84.256396 
L 423.983158 91.210873 
L 435.430263 97.52925 
L 446.877368 103.958637 
L 458.324474 110.181859 
L 469.771579 116.000414 
L 481.218684 121.706855 
L 492.665789 127.427132 
L 504.112895 132.120641 
L 515.56 137.075463 
" clip-path="url(#p7ba3c109ef)" style="fill: none; stroke: #7f7f7f; stroke-width: 1.5; stroke-linecap: square"/>
   </g>
   <g id="patch_6">
    <path d="M 298.065 174.04 
L 298.065 26.88 
" style="fill: none; stroke: #000000; stroke-width: 0.8; stroke-linejoin: miter; stroke-linecap: square"/>
   </g>
   <g id="patch_7">
    <path d="M 298.065 174.04 
L 515.56 174.04 
" style="fill: none; stroke: #000000; stroke-width: 0.8; stroke-linejoin: miter; stroke-linecap: square"/>
   </g>
   <g id="text_20">
    <!-- Node * third variable -->
    <g transform="translate(344.2325 20.88)scale(0.12 -0.12)">
     <defs>
      <path id="DejaVuSans-68" d="M 3513 2113 
L 3513 0 
L 2938 0 
L 2938 2094 
Q 2938 2591 2744 2837 
Q 2550 3084 2163 3084 
Q 1697 3084 1428 2787 
Q 1159 2491 1159 1978 
L 1159 0 
L 581 0 
L 581 4863 
L 1159 4863 
L 1159 2956 
Q 1366 3272 1645 3428 
Q 1925 3584 2291 3584 
Q 2894 3584 3203 3211 
Q 3513 2838 3513 2113 
z
" transform="scale(0.015625)"/>
      <path id="DejaVuSans-62" d="M 3116 1747 
Q 3116 2381 2855 2742 
Q 2594 3103 2138 3103 
Q 1681 3103 1420 2742 
Q 1159 2381 1159 1747 
Q 1159 1113 1420 752 
Q 1681 391 2138 391 
Q 2594 391 2855 752 
Q 3116 1113 3116 1747 
z
M 1159 2969 
Q 1341 3281 1617 3432 
Q 1894 3584 2278 3584 
Q 2916 3584 3314 3078 
Q 3713 2572 3713 1747 
Q 3713 922 3314 415 
Q 2916 -91 2278 -91 
Q 1894 -91 1617 61 
Q 1341 213 1159 525 
L 1159 0 
L 581 0 
L 581 4863 
L 1159 4863 
L 1159 2969 
z
" transform="scale(0.015625)"/>
     </defs>
     <use xlink:href="#DejaVuSans-4e"/>
     <use xlink:href="#DejaVuSans-6f" x="74.804688"/>
     <use xlink:href="#DejaVuSans-64" x="135.986328"/>
     <use xlink:href="#DejaVuSans-65" x="199.462891"/>
     <use xlink:href="#DejaVuSans-20" x="260.986328"/>
     <use xlink:href="#DejaVuSans-2a" x="292.773438"/>
     <use xlink:href="#DejaVuSans-20" x="342.773438"/>
     <use xlink:href="#DejaVuSans-74" x="374.560547"/>
     <use xlink:href="#DejaVuSans-68" x="413.769531"/>
     <use xlink:href="#DejaVuSans-69" x="477.148438"/>
     <use xlink:href="#DejaVuSans-72" x="504.931641"/>
     <use xlink:href="#DejaVuSans-64" x="544.294922"/>
     <use xlink:href="#DejaVuSans-20" x="607.771484"/>
     <use xlink:href="#DejaVuSans-76" x="639.558594"/>
     <use xlink:href="#DejaVuSans-61" x="698.738281"/>
     <use xlink:href="#DejaVuSans-72" x="760.017578"/>
     <use xlink:href="#DejaVuSans-69" x="801.130859"/>
     <use xlink:href="#DejaVuSans-61" x="828.914062"/>
     <use xlink:href="#DejaVuSans-62" x="890.193359"/>
     <use xlink:href="#DejaVuSans-6c" x="953.669922"/>
     <use xlink:href="#DejaVuSans-65" x="981.453125"/>
    </g>
   </g>
   <g id="legend_1">
    <g id="line2d_32">
     <path d="M 524.56 39.978437 
L 534.56 39.978437 
L 544.56 39.978437 
" style="fill: none; stroke: #1f77b4; stroke-width: 1.5; stroke-linecap: square"/>
    </g>
    <g id="text_21">
     <!-- Node -->
     <g transform="translate(552.56 43.478437)scale(0.1 -0.1)">
      <use xlink:href="#DejaVuSans-4e"/>
      <use xlink:href="#DejaVuSans-6f" x="74.804688"/>
      <use xlink:href="#DejaVuSans-64" x="135.986328"/>
      <use xlink:href="#DejaVuSans-65" x="199.462891"/>
     </g>
    </g>
    <g id="line2d_33">
     <path d="M 524.56 54.656563 
L 534.56 54.656563 
L 544.56 54.656563 
" style="fill: none; stroke: #ff7f0e; stroke-width: 1.5; stroke-linecap: square"/>
    </g>
    <g id="text_22">
     <!-- Node + surprisal -->
     <g transform="translate(552.56 58.156563)scale(0.1 -0.1)">
      <defs>
       <path id="DejaVuSans-2b" d="M 2944 4013 
L 2944 2272 
L 4684 2272 
L 4684 1741 
L 2944 1741 
L 2944 0 
L 2419 0 
L 2419 1741 
L 678 1741 
L 678 2272 
L 2419 2272 
L 2419 4013 
L 2944 4013 
z
" transform="scale(0.015625)"/>
      </defs>
      <use xlink:href="#DejaVuSans-4e"/>
      <use xlink:href="#DejaVuSans-6f" x="74.804688"/>
      <use xlink:href="#DejaVuSans-64" x="135.986328"/>
      <use xlink:href="#DejaVuSans-65" x="199.462891"/>
      <use xlink:href="#DejaVuSans-20" x="260.986328"/>
      <use xlink:href="#DejaVuSans-2b" x="292.773438"/>
      <use xlink:href="#DejaVuSans-20" x="376.5625"/>
      <use xlink:href="#DejaVuSans-73" x="408.349609"/>
      <use xlink:href="#DejaVuSans-75" x="460.449219"/>
      <use xlink:href="#DejaVuSans-72" x="523.828125"/>
      <use xlink:href="#DejaVuSans-70" x="564.941406"/>
      <use xlink:href="#DejaVuSans-72" x="628.417969"/>
      <use xlink:href="#DejaVuSans-69" x="669.53125"/>
      <use xlink:href="#DejaVuSans-73" x="697.314453"/>
      <use xlink:href="#DejaVuSans-61" x="749.414062"/>
      <use xlink:href="#DejaVuSans-6c" x="810.693359"/>
     </g>
    </g>
    <g id="line2d_34">
     <path d="M 524.56 69.334687 
L 534.56 69.334687 
L 544.56 69.334687 
" style="fill: none; stroke: #2ca02c; stroke-width: 1.5; stroke-linecap: square"/>
    </g>
    <g id="text_23">
     <!-- Node split -->
     <g transform="translate(552.56 72.834687)scale(0.1 -0.1)">
      <use xlink:href="#DejaVuSans-4e"/>
      <use xlink:href="#DejaVuSans-6f" x="74.804688"/>
      <use xlink:href="#DejaVuSans-64" x="135.986328"/>
      <use xlink:href="#DejaVuSans-65" x="199.462891"/>
      <use xlink:href="#DejaVuSans-20" x="260.986328"/>
      <use xlink:href="#DejaVuSans-73" x="292.773438"/>
      <use xlink:href="#DejaVuSans-70" x="344.873047"/>
      <use xlink:href="#DejaVuSans-6c" x="408.349609"/>
      <use xlink:href="#DejaVuSans-69" x="436.132812"/>
      <use xlink:href="#DejaVuSans-74" x="463.916016"/>
     </g>
    </g>
    <g id="line2d_35">
     <path d="M 524.56 84.012812 
L 534.56 84.012812 
L 544.56 84.012812 
" style="fill: none; stroke: #d62728; stroke-width: 1.5; stroke-linecap: square"/>
    </g>
    <g id="text_24">
     <!-- Node split + surprisal -->
     <g transform="translate(552.56 87.512812)scale(0.1 -0.1)">
      <use xlink:href="#DejaVuSans-4e"/>
      <use xlink:href="#DejaVuSans-6f" x="74.804688"/>
      <use xlink:href="#DejaVuSans-64" x="135.986328"/>
      <use xlink:href="#DejaVuSans-65" x="199.462891"/>
      <use xlink:href="#DejaVuSans-20" x="260.986328"/>
      <use xlink:href="#DejaVuSans-73" x="292.773438"/>
      <use xlink:href="#DejaVuSans-70" x="344.873047"/>
      <use xlink:href="#DejaVuSans-6c" x="408.349609"/>
      <use xlink:href="#DejaVuSans-69" x="436.132812"/>
      <use xlink:href="#DejaVuSans-74" x="463.916016"/>
      <use xlink:href="#DejaVuSans-20" x="503.125"/>
      <use xlink:href="#DejaVuSans-2b" x="534.912109"/>
      <use xlink:href="#DejaVuSans-20" x="618.701172"/>
      <use xlink:href="#DejaVuSans-73" x="650.488281"/>
      <use xlink:href="#DejaVuSans-75" x="702.587891"/>
      <use xlink:href="#DejaVuSans-72" x="765.966797"/>
      <use xlink:href="#DejaVuSans-70" x="807.080078"/>
      <use xlink:href="#DejaVuSans-72" x="870.556641"/>
      <use xlink:href="#DejaVuSans-69" x="911.669922"/>
      <use xlink:href="#DejaVuSans-73" x="939.453125"/>
      <use xlink:href="#DejaVuSans-61" x="991.552734"/>
      <use xlink:href="#DejaVuSans-6c" x="1052.832031"/>
     </g>
    </g>
    <g id="line2d_36">
     <path d="M 524.56 98.690937 
L 534.56 98.690937 
L 544.56 98.690937 
" style="fill: none; stroke: #9467bd; stroke-width: 1.5; stroke-linecap: square"/>
    </g>
    <g id="text_25">
     <!-- Node random split -->
     <g transform="translate(552.56 102.190937)scale(0.1 -0.1)">
      <use xlink:href="#DejaVuSans-4e"/>
      <use xlink:href="#DejaVuSans-6f" x="74.804688"/>
      <use xlink:href="#DejaVuSans-64" x="135.986328"/>
      <use xlink:href="#DejaVuSans-65" x="199.462891"/>
      <use xlink:href="#DejaVuSans-20" x="260.986328"/>
      <use xlink:href="#DejaVuSans-72" x="292.773438"/>
      <use xlink:href="#DejaVuSans-61" x="333.886719"/>
      <use xlink:href="#DejaVuSans-6e" x="395.166016"/>
      <use xlink:href="#DejaVuSans-64" x="458.544922"/>
      <use xlink:href="#DejaVuSans-6f" x="522.021484"/>
      <use xlink:href="#DejaVuSans-6d" x="583.203125"/>
      <use xlink:href="#DejaVuSans-20" x="680.615234"/>
      <use xlink:href="#DejaVuSans-73" x="712.402344"/>
      <use xlink:href="#DejaVuSans-70" x="764.501953"/>
      <use xlink:href="#DejaVuSans-6c" x="827.978516"/>
      <use xlink:href="#DejaVuSans-69" x="855.761719"/>
      <use xlink:href="#DejaVuSans-74" x="883.544922"/>
     </g>
    </g>
    <g id="line2d_37">
     <path d="M 524.56 113.369062 
L 534.56 113.369062 
L 544.56 113.369062 
" style="fill: none; stroke: #8c564b; stroke-width: 1.5; stroke-linecap: square"/>
    </g>
    <g id="text_26">
     <!-- Node random split + surprisal -->
     <g transform="translate(552.56 116.869062)scale(0.1 -0.1)">
      <use xlink:href="#DejaVuSans-4e"/>
      <use xlink:href="#DejaVuSans-6f" x="74.804688"/>
      <use xlink:href="#DejaVuSans-64" x="135.986328"/>
      <use xlink:href="#DejaVuSans-65" x="199.462891"/>
      <use xlink:href="#DejaVuSans-20" x="260.986328"/>
      <use xlink:href="#DejaVuSans-72" x="292.773438"/>
      <use xlink:href="#DejaVuSans-61" x="333.886719"/>
      <use xlink:href="#DejaVuSans-6e" x="395.166016"/>
      <use xlink:href="#DejaVuSans-64" x="458.544922"/>
      <use xlink:href="#DejaVuSans-6f" x="522.021484"/>
      <use xlink:href="#DejaVuSans-6d" x="583.203125"/>
      <use xlink:href="#DejaVuSans-20" x="680.615234"/>
      <use xlink:href="#DejaVuSans-73" x="712.402344"/>
      <use xlink:href="#DejaVuSans-70" x="764.501953"/>
      <use xlink:href="#DejaVuSans-6c" x="827.978516"/>
      <use xlink:href="#DejaVuSans-69" x="855.761719"/>
      <use xlink:href="#DejaVuSans-74" x="883.544922"/>
      <use xlink:href="#DejaVuSans-20" x="922.753906"/>
      <use xlink:href="#DejaVuSans-2b" x="954.541016"/>
      <use xlink:href="#DejaVuSans-20" x="1038.330078"/>
      <use xlink:href="#DejaVuSans-73" x="1070.117188"/>
      <use xlink:href="#DejaVuSans-75" x="1122.216797"/>
      <use xlink:href="#DejaVuSans-72" x="1185.595703"/>
      <use xlink:href="#DejaVuSans-70" x="1226.708984"/>
      <use xlink:href="#DejaVuSans-72" x="1290.185547"/>
      <use xlink:href="#DejaVuSans-69" x="1331.298828"/>
      <use xlink:href="#DejaVuSans-73" x="1359.082031"/>
      <use xlink:href="#DejaVuSans-61" x="1411.181641"/>
      <use xlink:href="#DejaVuSans-6c" x="1472.460938"/>
     </g>
    </g>
    <g id="line2d_38">
     <path d="M 524.56 128.047187 
L 534.56 128.047187 
L 544.56 128.047187 
" style="fill: none; stroke: #e377c2; stroke-width: 1.5; stroke-linecap: square"/>
    </g>
    <g id="text_27">
     <!-- Interaction -->
     <g transform="translate(552.56 131.547187)scale(0.1 -0.1)">
      <use xlink:href="#DejaVuSans-49"/>
      <use xlink:href="#DejaVuSans-6e" x="29.492188"/>
      <use xlink:href="#DejaVuSans-74" x="92.871094"/>
      <use xlink:href="#DejaVuSans-65" x="132.080078"/>
      <use xlink:href="#DejaVuSans-72" x="193.603516"/>
      <use xlink:href="#DejaVuSans-61" x="234.716797"/>
      <use xlink:href="#DejaVuSans-63" x="295.996094"/>
      <use xlink:href="#DejaVuSans-74" x="350.976562"/>
      <use xlink:href="#DejaVuSans-69" x="390.185547"/>
      <use xlink:href="#DejaVuSans-6f" x="417.96875"/>
      <use xlink:href="#DejaVuSans-6e" x="479.150391"/>
     </g>
    </g>
    <g id="line2d_39">
     <path d="M 524.56 142.725312 
L 534.56 142.725312 
L 544.56 142.725312 
" style="fill: none; stroke: #7f7f7f; stroke-width: 1.5; stroke-linecap: square"/>
    </g>
    <g id="text_28">
     <!-- Node + surprisal + interaction -->
     <g transform="translate(552.56 146.225312)scale(0.1 -0.1)">
      <use xlink:href="#DejaVuSans-4e"/>
      <use xlink:href="#DejaVuSans-6f" x="74.804688"/>
      <use xlink:href="#DejaVuSans-64" x="135.986328"/>
      <use xlink:href="#DejaVuSans-65" x="199.462891"/>
      <use xlink:href="#DejaVuSans-20" x="260.986328"/>
      <use xlink:href="#DejaVuSans-2b" x="292.773438"/>
      <use xlink:href="#DejaVuSans-20" x="376.5625"/>
      <use xlink:href="#DejaVuSans-73" x="408.349609"/>
      <use xlink:href="#DejaVuSans-75" x="460.449219"/>
      <use xlink:href="#DejaVuSans-72" x="523.828125"/>
      <use xlink:href="#DejaVuSans-70" x="564.941406"/>
      <use xlink:href="#DejaVuSans-72" x="628.417969"/>
      <use xlink:href="#DejaVuSans-69" x="669.53125"/>
      <use xlink:href="#DejaVuSans-73" x="697.314453"/>
      <use xlink:href="#DejaVuSans-61" x="749.414062"/>
      <use xlink:href="#DejaVuSans-6c" x="810.693359"/>
      <use xlink:href="#DejaVuSans-20" x="838.476562"/>
      <use xlink:href="#DejaVuSans-2b" x="870.263672"/>
      <use xlink:href="#DejaVuSans-20" x="954.052734"/>
      <use xlink:href="#DejaVuSans-69" x="985.839844"/>
      <use xlink:href="#DejaVuSans-6e" x="1013.623047"/>
      <use xlink:href="#DejaVuSans-74" x="1077.001953"/>
      <use xlink:href="#DejaVuSans-65" x="1116.210938"/>
      <use xlink:href="#DejaVuSans-72" x="1177.734375"/>
      <use xlink:href="#DejaVuSans-61" x="1218.847656"/>
      <use xlink:href="#DejaVuSans-63" x="1280.126953"/>
      <use xlink:href="#DejaVuSans-74" x="1335.107422"/>
      <use xlink:href="#DejaVuSans-69" x="1374.316406"/>
      <use xlink:href="#DejaVuSans-6f" x="1402.099609"/>
      <use xlink:href="#DejaVuSans-6e" x="1463.28125"/>
     </g>
    </g>
   </g>
  </g>
 </g>
 <defs>
  <clipPath id="pbcb4cca136">
   <rect x="47.72" y="26.88" width="217.495" height="147.16"/>
  </clipPath>
  <clipPath id="p7ba3c109ef">
   <rect x="298.065" y="26.88" width="217.495" height="147.16"/>
  </clipPath>
 </defs>
</svg>
