<?xml version="1.0" encoding="utf-8" standalone="no"?>
<!DOCTYPE svg PUBLIC "-//W3C//DTD SVG 1.1//EN"
  "http://www.w3.org/Graphics/SVG/1.1/DTD/svg11.dtd">
<svg xmlns:xlink="http://www.w3.org/1999/xlink" width="720pt" height="216pt" viewBox="0 0 720 216" xmlns="http://www.w3.org/2000/svg" version="1.1">
 <metadata>
  <rdf:RDF xmlns:dc="http://purl.org/dc/elements/1.1/" xmlns:cc="http://creativecommons.org/ns#" xmlns:rdf="http://www.w3.org/1999/02/22-rdf-syntax-ns#">
   <cc:Work>
    <dc:type rdf:resource="http://purl.org/dc/dcmitype/StillImage"/>
    <dc:date>2024-01-15T20:58:48.812358</dc:date>
    <dc:format>image/svg+xml</dc:format>
    <dc:creator>
     <cc:Agent>
      <dc:title>Matplotlib v3.5.1, https://matplotlib.org/</dc:title>
     </cc:Agent>
    </dc:creator>
   </cc:Work>
  </rdf:RDF>
 </metadata>
 <defs>
  <style type="text/css">*{stroke-linejoin: round; stroke-linecap: butt}</style>
 </defs>
 <g id="figure_1">
  <g id="patch_1">
   <path d="M 0 216 
L 720 216 
L 720 0 
L 0 0 
z
" style="fill: #ffffff"/>
  </g>
  <g id="axes_1">
   <g id="patch_2">
    <path d="M 47.72 174.04 
L 265.215 174.04 
L 265.215 26.88 
L 47.72 26.88 
z
" style="fill: #ffffff"/>
   </g>
   <g id="PolyCollection_1">
    <path d="M 47.72 33.569091 
L 47.72 33.569092 
L 59.167105 34.655756 
L 70.614211 37.640997 
L 82.061316 42.376492 
L 93.508421 47.951817 
L 104.955526 55.298008 
L 116.402632 62.361442 
L 127.849737 70.5651 
L 139.296842 78.587994 
L 150.743947 86.58232 
L 162.191053 94.474636 
L 173.638158 102.142414 
L 185.085263 109.319764 
L 196.532368 116.463819 
L 207.979474 122.759439 
L 219.426579 128.734004 
L 230.873684 133.376976 
L 242.320789 138.796566 
L 253.767895 142.877414 
L 265.215 146.872755 
L 265.215 136.889156 
L 265.215 136.889156 
L 253.767895 131.820994 
L 242.320789 126.8462 
L 230.873684 121.598594 
L 219.426579 115.12354 
L 207.979474 109.356092 
L 196.532368 102.37169 
L 185.085263 95.984921 
L 173.638158 89.53512 
L 162.191053 82.194229 
L 150.743947 75.373837 
L 139.296842 68.345151 
L 127.849737 61.51529 
L 116.402632 54.811294 
L 104.955526 49.244978 
L 93.508421 43.737986 
L 82.061316 39.729362 
L 70.614211 36.509832 
L 59.167105 34.30806 
L 47.72 33.569091 
z
" clip-path="url(#p27eb576d52)" style="fill: #1f77b4; fill-opacity: 0.4"/>
   </g>
   <g id="PolyCollection_2">
    <path d="M 47.72 33.569234 
L 47.72 33.56932 
L 59.167105 34.247549 
L 70.614211 35.815393 
L 82.061316 38.411256 
L 93.508421 41.729952 
L 104.955526 46.403424 
L 116.402632 51.195222 
L 127.849737 57.62484 
L 139.296842 63.594688 
L 150.743947 70.432821 
L 162.191053 77.101241 
L 173.638158 84.324417 
L 185.085263 90.928553 
L 196.532368 97.713109 
L 207.979474 103.890165 
L 219.426579 110.202555 
L 230.873684 115.343113 
L 242.320789 121.336971 
L 253.767895 126.010627 
L 265.215 130.75713 
L 265.215 119.994142 
L 265.215 119.994142 
L 253.767895 114.405268 
L 242.320789 109.409561 
L 230.873684 104.193037 
L 219.426579 98.090997 
L 207.979474 92.650862 
L 196.532368 85.882169 
L 185.085263 79.800356 
L 173.638158 73.630953 
L 162.191053 67.477625 
L 150.743947 61.446261 
L 139.296842 55.999718 
L 127.849737 50.654882 
L 116.402632 46.240187 
L 104.955526 42.65069 
L 93.508421 39.287368 
L 82.061316 36.899624 
L 70.614211 35.209196 
L 59.167105 34.046924 
L 47.72 33.569234 
z
" clip-path="url(#p27eb576d52)" style="fill: #ff7f0e; fill-opacity: 0.4"/>
   </g>
   <g id="PolyCollection_3">
    <path d="M 47.72 33.569099 
L 47.72 33.569104 
L 59.167105 34.382902 
L 70.614211 35.792657 
L 82.061316 37.993839 
L 93.508421 40.456974 
L 104.955526 43.751714 
L 116.402632 46.926621 
L 127.849737 50.882437 
L 139.296842 54.654279 
L 150.743947 58.367549 
L 162.191053 62.220182 
L 173.638158 66.424366 
L 185.085263 70.114539 
L 196.532368 74.609664 
L 207.979474 78.079685 
L 219.426579 81.860646 
L 230.873684 85.6727 
L 242.320789 89.673136 
L 253.767895 93.278486 
L 265.215 96.633393 
L 265.215 85.486898 
L 265.215 85.486898 
L 253.767895 81.729984 
L 242.320789 78.715087 
L 230.873684 75.397545 
L 219.426579 72.022359 
L 207.979474 68.84437 
L 196.532368 65.10911 
L 185.085263 61.774136 
L 173.638158 58.559146 
L 162.191053 55.014463 
L 150.743947 52.00108 
L 139.296842 48.981368 
L 127.849737 45.599863 
L 116.402632 42.64945 
L 104.955526 40.280156 
L 93.508421 38.051172 
L 82.061316 36.381239 
L 70.614211 35.085529 
L 59.167105 34.150674 
L 47.72 33.569099 
z
" clip-path="url(#p27eb576d52)" style="fill: #2ca02c; fill-opacity: 0.4"/>
   </g>
   <g id="PolyCollection_4">
    <path d="M 47.72 33.569876 
L 47.72 33.570429 
L 59.167105 34.194039 
L 70.614211 35.166134 
L 82.061316 36.74687 
L 93.508421 38.629705 
L 104.955526 41.282274 
L 116.402632 43.98826 
L 127.849737 47.621973 
L 139.296842 51.189127 
L 150.743947 54.954452 
L 162.191053 58.916124 
L 173.638158 63.259513 
L 185.085263 67.151462 
L 196.532368 71.741563 
L 207.979474 75.283296 
L 219.426579 79.235361 
L 230.873684 83.118362 
L 242.320789 87.344045 
L 253.767895 91.075857 
L 265.215 94.619283 
L 265.215 83.532158 
L 265.215 83.532158 
L 253.767895 79.721842 
L 242.320789 76.591675 
L 230.873684 73.232612 
L 219.426579 69.806629 
L 207.979474 66.603943 
L 196.532368 62.692257 
L 185.085263 59.35481 
L 173.638158 55.935172 
L 162.191053 52.352012 
L 150.743947 49.234937 
L 139.296842 46.327327 
L 127.849737 43.209588 
L 116.402632 40.642309 
L 104.955526 38.736283 
L 93.508421 36.966849 
L 82.061316 35.64212 
L 70.614211 34.722471 
L 59.167105 34.023516 
L 47.72 33.569876 
z
" clip-path="url(#p27eb576d52)" style="fill: #d62728; fill-opacity: 0.4"/>
   </g>
   <g id="PolyCollection_5">
    <path d="M 47.72 33.5691 
L 47.72 33.569103 
L 59.167105 34.656911 
L 70.614211 37.633257 
L 82.061316 42.385871 
L 93.508421 47.902599 
L 104.955526 55.448344 
L 116.402632 62.577524 
L 127.849737 70.695804 
L 139.296842 78.570532 
L 150.743947 87.048703 
L 162.191053 94.44825 
L 173.638158 101.916323 
L 185.085263 108.943581 
L 196.532368 116.97814 
L 207.979474 122.920301 
L 219.426579 128.897022 
L 230.873684 133.854245 
L 242.320789 138.936254 
L 253.767895 143.383895 
L 265.215 147.262916 
L 265.215 137.320692 
L 265.215 137.320692 
L 253.767895 131.628955 
L 242.320789 127.057583 
L 230.873684 122.014443 
L 219.426579 115.516367 
L 207.979474 109.242911 
L 196.532368 102.789815 
L 185.085263 96.216498 
L 173.638158 89.501227 
L 162.191053 82.179367 
L 150.743947 75.361867 
L 139.296842 68.381794 
L 127.849737 61.578946 
L 116.402632 54.975959 
L 104.955526 49.308083 
L 93.508421 43.775754 
L 82.061316 39.771261 
L 70.614211 36.51029 
L 59.167105 34.307332 
L 47.72 33.5691 
z
" clip-path="url(#p27eb576d52)" style="fill: #9467bd; fill-opacity: 0.4"/>
   </g>
   <g id="PolyCollection_6">
    <path d="M 47.72 33.56967 
L 47.72 33.570016 
L 59.167105 34.249294 
L 70.614211 35.815649 
L 82.061316 38.412969 
L 93.508421 41.700418 
L 104.955526 46.390264 
L 116.402632 51.304507 
L 127.849737 57.650141 
L 139.296842 63.583431 
L 150.743947 70.761015 
L 162.191053 77.178968 
L 173.638158 84.133525 
L 185.085263 90.739232 
L 196.532368 98.156212 
L 207.979474 104.018077 
L 219.426579 110.448318 
L 230.873684 115.809432 
L 242.320789 121.14871 
L 253.767895 126.485123 
L 265.215 130.864046 
L 265.215 120.47983 
L 265.215 120.47983 
L 253.767895 114.39988 
L 242.320789 109.857629 
L 230.873684 104.452012 
L 219.426579 98.447823 
L 207.979474 92.776505 
L 196.532368 86.193674 
L 185.085263 79.940098 
L 173.638158 73.709876 
L 162.191053 67.516874 
L 150.743947 61.346849 
L 139.296842 56.096641 
L 127.849737 50.747826 
L 116.402632 46.321353 
L 104.955526 42.690672 
L 93.508421 39.308332 
L 82.061316 36.909021 
L 70.614211 35.205152 
L 59.167105 34.047078 
L 47.72 33.56967 
z
" clip-path="url(#p27eb576d52)" style="fill: #8c564b; fill-opacity: 0.4"/>
   </g>
   <g id="PolyCollection_7">
    <path d="M 47.72 45.356221 
L 47.72 49.378162 
L 59.167105 50.763924 
L 70.614211 54.196854 
L 82.061316 60.102707 
L 93.508421 66.895612 
L 104.955526 75.694515 
L 116.402632 83.925058 
L 127.849737 93.359964 
L 139.296842 101.78705 
L 150.743947 110.231457 
L 162.191053 118.298283 
L 173.638158 126.06601 
L 185.085263 133.583604 
L 196.532368 140.527674 
L 207.979474 146.963314 
L 219.426579 152.147531 
L 230.873684 156.455216 
L 242.320789 160.792601 
L 253.767895 164.374409 
L 265.215 167.350909 
L 265.215 151.727761 
L 265.215 151.727761 
L 253.767895 147.264081 
L 242.320789 142.693855 
L 230.873684 137.77862 
L 219.426579 131.82033 
L 207.979474 125.84751 
L 196.532368 119.232435 
L 185.085263 112.82591 
L 173.638158 105.980685 
L 162.191053 98.510512 
L 150.743947 91.018611 
L 139.296842 83.603744 
L 127.849737 75.798668 
L 116.402632 68.635977 
L 104.955526 62.436747 
L 93.508421 56.503721 
L 82.061316 52.074122 
L 70.614211 48.518751 
L 59.167105 46.249888 
L 47.72 45.356221 
z
" clip-path="url(#p27eb576d52)" style="fill: #e377c2; fill-opacity: 0.4"/>
   </g>
   <g id="PolyCollection_8">
    <path d="M 47.72 33.56939 
L 47.72 33.569545 
L 59.167105 33.851606 
L 70.614211 34.03867 
L 82.061316 34.606585 
L 93.508421 35.793539 
L 104.955526 38.414159 
L 116.402632 41.840526 
L 127.849737 46.195711 
L 139.296842 51.031632 
L 150.743947 56.401374 
L 162.191053 61.673943 
L 173.638158 67.809933 
L 185.085263 73.479405 
L 196.532368 80.004522 
L 207.979474 86.45406 
L 219.426579 93.028685 
L 230.873684 99.322161 
L 242.320789 105.964891 
L 253.767895 111.72925 
L 265.215 117.151551 
L 265.215 102.226672 
L 265.215 102.226672 
L 253.767895 95.895303 
L 242.320789 90.599246 
L 230.873684 84.587106 
L 219.426579 78.368451 
L 207.979474 72.678801 
L 196.532368 66.302239 
L 185.085263 60.395246 
L 173.638158 55.035621 
L 162.191053 49.664319 
L 150.743947 45.274741 
L 139.296842 41.484878 
L 127.849737 38.347542 
L 116.402632 36.285824 
L 104.955526 35.224299 
L 93.508421 34.441973 
L 82.061316 34.075723 
L 70.614211 33.914497 
L 59.167105 33.811227 
L 47.72 33.56939 
z
" clip-path="url(#p27eb576d52)" style="fill: #7f7f7f; fill-opacity: 0.4"/>
   </g>
   <g id="matplotlib.axis_1">
    <g id="xtick_1">
     <g id="line2d_1">
      <defs>
       <path id="ma52d273b95" d="M 0 0 
L 0 3.5 
" style="stroke: #000000; stroke-width: 0.8"/>
      </defs>
      <g>
       <use xlink:href="#ma52d273b95" x="47.72" y="174.04" style="stroke: #000000; stroke-width: 0.8"/>
      </g>
     </g>
     <g id="text_1">
      <!-- 0.0 -->
      <g transform="translate(39.768438 188.638438)scale(0.1 -0.1)">
       <defs>
        <path id="DejaVuSans-30" d="M 2034 4250 
Q 1547 4250 1301 3770 
Q 1056 3291 1056 2328 
Q 1056 1369 1301 889 
Q 1547 409 2034 409 
Q 2525 409 2770 889 
Q 3016 1369 3016 2328 
Q 3016 3291 2770 3770 
Q 2525 4250 2034 4250 
z
M 2034 4750 
Q 2819 4750 3233 4129 
Q 3647 3509 3647 2328 
Q 3647 1150 3233 529 
Q 2819 -91 2034 -91 
Q 1250 -91 836 529 
Q 422 1150 422 2328 
Q 422 3509 836 4129 
Q 1250 4750 2034 4750 
z
" transform="scale(0.015625)"/>
        <path id="DejaVuSans-2e" d="M 684 794 
L 1344 794 
L 1344 0 
L 684 0 
L 684 794 
z
" transform="scale(0.015625)"/>
       </defs>
       <use xlink:href="#DejaVuSans-30"/>
       <use xlink:href="#DejaVuSans-2e" x="63.623047"/>
       <use xlink:href="#DejaVuSans-30" x="95.410156"/>
      </g>
     </g>
    </g>
    <g id="xtick_2">
     <g id="line2d_2">
      <g>
       <use xlink:href="#ma52d273b95" x="102.09375" y="174.04" style="stroke: #000000; stroke-width: 0.8"/>
      </g>
     </g>
     <g id="text_2">
      <!-- 0.5 -->
      <g transform="translate(94.142188 188.638438)scale(0.1 -0.1)">
       <defs>
        <path id="DejaVuSans-35" d="M 691 4666 
L 3169 4666 
L 3169 4134 
L 1269 4134 
L 1269 2991 
Q 1406 3038 1543 3061 
Q 1681 3084 1819 3084 
Q 2600 3084 3056 2656 
Q 3513 2228 3513 1497 
Q 3513 744 3044 326 
Q 2575 -91 1722 -91 
Q 1428 -91 1123 -41 
Q 819 9 494 109 
L 494 744 
Q 775 591 1075 516 
Q 1375 441 1709 441 
Q 2250 441 2565 725 
Q 2881 1009 2881 1497 
Q 2881 1984 2565 2268 
Q 2250 2553 1709 2553 
Q 1456 2553 1204 2497 
Q 953 2441 691 2322 
L 691 4666 
z
" transform="scale(0.015625)"/>
       </defs>
       <use xlink:href="#DejaVuSans-30"/>
       <use xlink:href="#DejaVuSans-2e" x="63.623047"/>
       <use xlink:href="#DejaVuSans-35" x="95.410156"/>
      </g>
     </g>
    </g>
    <g id="xtick_3">
     <g id="line2d_3">
      <g>
       <use xlink:href="#ma52d273b95" x="156.4675" y="174.04" style="stroke: #000000; stroke-width: 0.8"/>
      </g>
     </g>
     <g id="text_3">
      <!-- 1.0 -->
      <g transform="translate(148.515938 188.638438)scale(0.1 -0.1)">
       <defs>
        <path id="DejaVuSans-31" d="M 794 531 
L 1825 531 
L 1825 4091 
L 703 3866 
L 703 4441 
L 1819 4666 
L 2450 4666 
L 2450 531 
L 3481 531 
L 3481 0 
L 794 0 
L 794 531 
z
" transform="scale(0.015625)"/>
       </defs>
       <use xlink:href="#DejaVuSans-31"/>
       <use xlink:href="#DejaVuSans-2e" x="63.623047"/>
       <use xlink:href="#DejaVuSans-30" x="95.410156"/>
      </g>
     </g>
    </g>
    <g id="xtick_4">
     <g id="line2d_4">
      <g>
       <use xlink:href="#ma52d273b95" x="210.84125" y="174.04" style="stroke: #000000; stroke-width: 0.8"/>
      </g>
     </g>
     <g id="text_4">
      <!-- 1.5 -->
      <g transform="translate(202.889687 188.638438)scale(0.1 -0.1)">
       <use xlink:href="#DejaVuSans-31"/>
       <use xlink:href="#DejaVuSans-2e" x="63.623047"/>
       <use xlink:href="#DejaVuSans-35" x="95.410156"/>
      </g>
     </g>
    </g>
    <g id="xtick_5">
     <g id="line2d_5">
      <g>
       <use xlink:href="#ma52d273b95" x="265.215" y="174.04" style="stroke: #000000; stroke-width: 0.8"/>
      </g>
     </g>
     <g id="text_5">
      <!-- 2.0 -->
      <g transform="translate(257.263437 188.638438)scale(0.1 -0.1)">
       <defs>
        <path id="DejaVuSans-32" d="M 1228 531 
L 3431 531 
L 3431 0 
L 469 0 
L 469 531 
Q 828 903 1448 1529 
Q 2069 2156 2228 2338 
Q 2531 2678 2651 2914 
Q 2772 3150 2772 3378 
Q 2772 3750 2511 3984 
Q 2250 4219 1831 4219 
Q 1534 4219 1204 4116 
Q 875 4013 500 3803 
L 500 4441 
Q 881 4594 1212 4672 
Q 1544 4750 1819 4750 
Q 2544 4750 2975 4387 
Q 3406 4025 3406 3419 
Q 3406 3131 3298 2873 
Q 3191 2616 2906 2266 
Q 2828 2175 2409 1742 
Q 1991 1309 1228 531 
z
" transform="scale(0.015625)"/>
       </defs>
       <use xlink:href="#DejaVuSans-32"/>
       <use xlink:href="#DejaVuSans-2e" x="63.623047"/>
       <use xlink:href="#DejaVuSans-30" x="95.410156"/>
      </g>
     </g>
    </g>
    <g id="text_6">
     <!-- Influence of surprisal (multiplication) -->
     <g transform="translate(64.320625 202.316563)scale(0.1 -0.1)">
      <defs>
       <path id="DejaVuSans-49" d="M 628 4666 
L 1259 4666 
L 1259 0 
L 628 0 
L 628 4666 
z
" transform="scale(0.015625)"/>
       <path id="DejaVuSans-6e" d="M 3513 2113 
L 3513 0 
L 2938 0 
L 2938 2094 
Q 2938 2591 2744 2837 
Q 2550 3084 2163 3084 
Q 1697 3084 1428 2787 
Q 1159 2491 1159 1978 
L 1159 0 
L 581 0 
L 581 3500 
L 1159 3500 
L 1159 2956 
Q 1366 3272 1645 3428 
Q 1925 3584 2291 3584 
Q 2894 3584 3203 3211 
Q 3513 2838 3513 2113 
z
" transform="scale(0.015625)"/>
       <path id="DejaVuSans-66" d="M 2375 4863 
L 2375 4384 
L 1825 4384 
Q 1516 4384 1395 4259 
Q 1275 4134 1275 3809 
L 1275 3500 
L 2222 3500 
L 2222 3053 
L 1275 3053 
L 1275 0 
L 697 0 
L 697 3053 
L 147 3053 
L 147 3500 
L 697 3500 
L 697 3744 
Q 697 4328 969 4595 
Q 1241 4863 1831 4863 
L 2375 4863 
z
" transform="scale(0.015625)"/>
       <path id="DejaVuSans-6c" d="M 603 4863 
L 1178 4863 
L 1178 0 
L 603 0 
L 603 4863 
z
" transform="scale(0.015625)"/>
       <path id="DejaVuSans-75" d="M 544 1381 
L 544 3500 
L 1119 3500 
L 1119 1403 
Q 1119 906 1312 657 
Q 1506 409 1894 409 
Q 2359 409 2629 706 
Q 2900 1003 2900 1516 
L 2900 3500 
L 3475 3500 
L 3475 0 
L 2900 0 
L 2900 538 
Q 2691 219 2414 64 
Q 2138 -91 1772 -91 
Q 1169 -91 856 284 
Q 544 659 544 1381 
z
M 1991 3584 
L 1991 3584 
z
" transform="scale(0.015625)"/>
       <path id="DejaVuSans-65" d="M 3597 1894 
L 3597 1613 
L 953 1613 
Q 991 1019 1311 708 
Q 1631 397 2203 397 
Q 2534 397 2845 478 
Q 3156 559 3463 722 
L 3463 178 
Q 3153 47 2828 -22 
Q 2503 -91 2169 -91 
Q 1331 -91 842 396 
Q 353 884 353 1716 
Q 353 2575 817 3079 
Q 1281 3584 2069 3584 
Q 2775 3584 3186 3129 
Q 3597 2675 3597 1894 
z
M 3022 2063 
Q 3016 2534 2758 2815 
Q 2500 3097 2075 3097 
Q 1594 3097 1305 2825 
Q 1016 2553 972 2059 
L 3022 2063 
z
" transform="scale(0.015625)"/>
       <path id="DejaVuSans-63" d="M 3122 3366 
L 3122 2828 
Q 2878 2963 2633 3030 
Q 2388 3097 2138 3097 
Q 1578 3097 1268 2742 
Q 959 2388 959 1747 
Q 959 1106 1268 751 
Q 1578 397 2138 397 
Q 2388 397 2633 464 
Q 2878 531 3122 666 
L 3122 134 
Q 2881 22 2623 -34 
Q 2366 -91 2075 -91 
Q 1284 -91 818 406 
Q 353 903 353 1747 
Q 353 2603 823 3093 
Q 1294 3584 2113 3584 
Q 2378 3584 2631 3529 
Q 2884 3475 3122 3366 
z
" transform="scale(0.015625)"/>
       <path id="DejaVuSans-20" transform="scale(0.015625)"/>
       <path id="DejaVuSans-6f" d="M 1959 3097 
Q 1497 3097 1228 2736 
Q 959 2375 959 1747 
Q 959 1119 1226 758 
Q 1494 397 1959 397 
Q 2419 397 2687 759 
Q 2956 1122 2956 1747 
Q 2956 2369 2687 2733 
Q 2419 3097 1959 3097 
z
M 1959 3584 
Q 2709 3584 3137 3096 
Q 3566 2609 3566 1747 
Q 3566 888 3137 398 
Q 2709 -91 1959 -91 
Q 1206 -91 779 398 
Q 353 888 353 1747 
Q 353 2609 779 3096 
Q 1206 3584 1959 3584 
z
" transform="scale(0.015625)"/>
       <path id="DejaVuSans-73" d="M 2834 3397 
L 2834 2853 
Q 2591 2978 2328 3040 
Q 2066 3103 1784 3103 
Q 1356 3103 1142 2972 
Q 928 2841 928 2578 
Q 928 2378 1081 2264 
Q 1234 2150 1697 2047 
L 1894 2003 
Q 2506 1872 2764 1633 
Q 3022 1394 3022 966 
Q 3022 478 2636 193 
Q 2250 -91 1575 -91 
Q 1294 -91 989 -36 
Q 684 19 347 128 
L 347 722 
Q 666 556 975 473 
Q 1284 391 1588 391 
Q 1994 391 2212 530 
Q 2431 669 2431 922 
Q 2431 1156 2273 1281 
Q 2116 1406 1581 1522 
L 1381 1569 
Q 847 1681 609 1914 
Q 372 2147 372 2553 
Q 372 3047 722 3315 
Q 1072 3584 1716 3584 
Q 2034 3584 2315 3537 
Q 2597 3491 2834 3397 
z
" transform="scale(0.015625)"/>
       <path id="DejaVuSans-72" d="M 2631 2963 
Q 2534 3019 2420 3045 
Q 2306 3072 2169 3072 
Q 1681 3072 1420 2755 
Q 1159 2438 1159 1844 
L 1159 0 
L 581 0 
L 581 3500 
L 1159 3500 
L 1159 2956 
Q 1341 3275 1631 3429 
Q 1922 3584 2338 3584 
Q 2397 3584 2469 3576 
Q 2541 3569 2628 3553 
L 2631 2963 
z
" transform="scale(0.015625)"/>
       <path id="DejaVuSans-70" d="M 1159 525 
L 1159 -1331 
L 581 -1331 
L 581 3500 
L 1159 3500 
L 1159 2969 
Q 1341 3281 1617 3432 
Q 1894 3584 2278 3584 
Q 2916 3584 3314 3078 
Q 3713 2572 3713 1747 
Q 3713 922 3314 415 
Q 2916 -91 2278 -91 
Q 1894 -91 1617 61 
Q 1341 213 1159 525 
z
M 3116 1747 
Q 3116 2381 2855 2742 
Q 2594 3103 2138 3103 
Q 1681 3103 1420 2742 
Q 1159 2381 1159 1747 
Q 1159 1113 1420 752 
Q 1681 391 2138 391 
Q 2594 391 2855 752 
Q 3116 1113 3116 1747 
z
" transform="scale(0.015625)"/>
       <path id="DejaVuSans-69" d="M 603 3500 
L 1178 3500 
L 1178 0 
L 603 0 
L 603 3500 
z
M 603 4863 
L 1178 4863 
L 1178 4134 
L 603 4134 
L 603 4863 
z
" transform="scale(0.015625)"/>
       <path id="DejaVuSans-61" d="M 2194 1759 
Q 1497 1759 1228 1600 
Q 959 1441 959 1056 
Q 959 750 1161 570 
Q 1363 391 1709 391 
Q 2188 391 2477 730 
Q 2766 1069 2766 1631 
L 2766 1759 
L 2194 1759 
z
M 3341 1997 
L 3341 0 
L 2766 0 
L 2766 531 
Q 2569 213 2275 61 
Q 1981 -91 1556 -91 
Q 1019 -91 701 211 
Q 384 513 384 1019 
Q 384 1609 779 1909 
Q 1175 2209 1959 2209 
L 2766 2209 
L 2766 2266 
Q 2766 2663 2505 2880 
Q 2244 3097 1772 3097 
Q 1472 3097 1187 3025 
Q 903 2953 641 2809 
L 641 3341 
Q 956 3463 1253 3523 
Q 1550 3584 1831 3584 
Q 2591 3584 2966 3190 
Q 3341 2797 3341 1997 
z
" transform="scale(0.015625)"/>
       <path id="DejaVuSans-28" d="M 1984 4856 
Q 1566 4138 1362 3434 
Q 1159 2731 1159 2009 
Q 1159 1288 1364 580 
Q 1569 -128 1984 -844 
L 1484 -844 
Q 1016 -109 783 600 
Q 550 1309 550 2009 
Q 550 2706 781 3412 
Q 1013 4119 1484 4856 
L 1984 4856 
z
" transform="scale(0.015625)"/>
       <path id="DejaVuSans-6d" d="M 3328 2828 
Q 3544 3216 3844 3400 
Q 4144 3584 4550 3584 
Q 5097 3584 5394 3201 
Q 5691 2819 5691 2113 
L 5691 0 
L 5113 0 
L 5113 2094 
Q 5113 2597 4934 2840 
Q 4756 3084 4391 3084 
Q 3944 3084 3684 2787 
Q 3425 2491 3425 1978 
L 3425 0 
L 2847 0 
L 2847 2094 
Q 2847 2600 2669 2842 
Q 2491 3084 2119 3084 
Q 1678 3084 1418 2786 
Q 1159 2488 1159 1978 
L 1159 0 
L 581 0 
L 581 3500 
L 1159 3500 
L 1159 2956 
Q 1356 3278 1631 3431 
Q 1906 3584 2284 3584 
Q 2666 3584 2933 3390 
Q 3200 3197 3328 2828 
z
" transform="scale(0.015625)"/>
       <path id="DejaVuSans-74" d="M 1172 4494 
L 1172 3500 
L 2356 3500 
L 2356 3053 
L 1172 3053 
L 1172 1153 
Q 1172 725 1289 603 
Q 1406 481 1766 481 
L 2356 481 
L 2356 0 
L 1766 0 
Q 1100 0 847 248 
Q 594 497 594 1153 
L 594 3053 
L 172 3053 
L 172 3500 
L 594 3500 
L 594 4494 
L 1172 4494 
z
" transform="scale(0.015625)"/>
       <path id="DejaVuSans-29" d="M 513 4856 
L 1013 4856 
Q 1481 4119 1714 3412 
Q 1947 2706 1947 2009 
Q 1947 1309 1714 600 
Q 1481 -109 1013 -844 
L 513 -844 
Q 928 -128 1133 580 
Q 1338 1288 1338 2009 
Q 1338 2731 1133 3434 
Q 928 4138 513 4856 
z
" transform="scale(0.015625)"/>
      </defs>
      <use xlink:href="#DejaVuSans-49"/>
      <use xlink:href="#DejaVuSans-6e" x="29.492188"/>
      <use xlink:href="#DejaVuSans-66" x="92.871094"/>
      <use xlink:href="#DejaVuSans-6c" x="128.076172"/>
      <use xlink:href="#DejaVuSans-75" x="155.859375"/>
      <use xlink:href="#DejaVuSans-65" x="219.238281"/>
      <use xlink:href="#DejaVuSans-6e" x="280.761719"/>
      <use xlink:href="#DejaVuSans-63" x="344.140625"/>
      <use xlink:href="#DejaVuSans-65" x="399.121094"/>
      <use xlink:href="#DejaVuSans-20" x="460.644531"/>
      <use xlink:href="#DejaVuSans-6f" x="492.431641"/>
      <use xlink:href="#DejaVuSans-66" x="553.613281"/>
      <use xlink:href="#DejaVuSans-20" x="588.818359"/>
      <use xlink:href="#DejaVuSans-73" x="620.605469"/>
      <use xlink:href="#DejaVuSans-75" x="672.705078"/>
      <use xlink:href="#DejaVuSans-72" x="736.083984"/>
      <use xlink:href="#DejaVuSans-70" x="777.197266"/>
      <use xlink:href="#DejaVuSans-72" x="840.673828"/>
      <use xlink:href="#DejaVuSans-69" x="881.787109"/>
      <use xlink:href="#DejaVuSans-73" x="909.570312"/>
      <use xlink:href="#DejaVuSans-61" x="961.669922"/>
      <use xlink:href="#DejaVuSans-6c" x="1022.949219"/>
      <use xlink:href="#DejaVuSans-20" x="1050.732422"/>
      <use xlink:href="#DejaVuSans-28" x="1082.519531"/>
      <use xlink:href="#DejaVuSans-6d" x="1121.533203"/>
      <use xlink:href="#DejaVuSans-75" x="1218.945312"/>
      <use xlink:href="#DejaVuSans-6c" x="1282.324219"/>
      <use xlink:href="#DejaVuSans-74" x="1310.107422"/>
      <use xlink:href="#DejaVuSans-69" x="1349.316406"/>
      <use xlink:href="#DejaVuSans-70" x="1377.099609"/>
      <use xlink:href="#DejaVuSans-6c" x="1440.576172"/>
      <use xlink:href="#DejaVuSans-69" x="1468.359375"/>
      <use xlink:href="#DejaVuSans-63" x="1496.142578"/>
      <use xlink:href="#DejaVuSans-61" x="1551.123047"/>
      <use xlink:href="#DejaVuSans-74" x="1612.402344"/>
      <use xlink:href="#DejaVuSans-69" x="1651.611328"/>
      <use xlink:href="#DejaVuSans-6f" x="1679.394531"/>
      <use xlink:href="#DejaVuSans-6e" x="1740.576172"/>
      <use xlink:href="#DejaVuSans-29" x="1803.955078"/>
     </g>
    </g>
   </g>
   <g id="matplotlib.axis_2">
    <g id="ytick_1">
     <g id="line2d_6">
      <defs>
       <path id="m69734c1645" d="M 0 0 
L -3.5 0 
" style="stroke: #000000; stroke-width: 0.8"/>
      </defs>
      <g>
       <use xlink:href="#m69734c1645" x="47.72" y="141.734264" style="stroke: #000000; stroke-width: 0.8"/>
      </g>
     </g>
     <g id="text_7">
      <!-- 0.4 -->
      <g transform="translate(24.816875 145.533482)scale(0.1 -0.1)">
       <defs>
        <path id="DejaVuSans-34" d="M 2419 4116 
L 825 1625 
L 2419 1625 
L 2419 4116 
z
M 2253 4666 
L 3047 4666 
L 3047 1625 
L 3713 1625 
L 3713 1100 
L 3047 1100 
L 3047 0 
L 2419 0 
L 2419 1100 
L 313 1100 
L 313 1709 
L 2253 4666 
z
" transform="scale(0.015625)"/>
       </defs>
       <use xlink:href="#DejaVuSans-30"/>
       <use xlink:href="#DejaVuSans-2e" x="63.623047"/>
       <use xlink:href="#DejaVuSans-34" x="95.410156"/>
      </g>
     </g>
    </g>
    <g id="ytick_2">
     <g id="line2d_7">
      <g>
       <use xlink:href="#m69734c1645" x="47.72" y="105.679205" style="stroke: #000000; stroke-width: 0.8"/>
      </g>
     </g>
     <g id="text_8">
      <!-- 0.6 -->
      <g transform="translate(24.816875 109.478424)scale(0.1 -0.1)">
       <defs>
        <path id="DejaVuSans-36" d="M 2113 2584 
Q 1688 2584 1439 2293 
Q 1191 2003 1191 1497 
Q 1191 994 1439 701 
Q 1688 409 2113 409 
Q 2538 409 2786 701 
Q 3034 994 3034 1497 
Q 3034 2003 2786 2293 
Q 2538 2584 2113 2584 
z
M 3366 4563 
L 3366 3988 
Q 3128 4100 2886 4159 
Q 2644 4219 2406 4219 
Q 1781 4219 1451 3797 
Q 1122 3375 1075 2522 
Q 1259 2794 1537 2939 
Q 1816 3084 2150 3084 
Q 2853 3084 3261 2657 
Q 3669 2231 3669 1497 
Q 3669 778 3244 343 
Q 2819 -91 2113 -91 
Q 1303 -91 875 529 
Q 447 1150 447 2328 
Q 447 3434 972 4092 
Q 1497 4750 2381 4750 
Q 2619 4750 2861 4703 
Q 3103 4656 3366 4563 
z
" transform="scale(0.015625)"/>
       </defs>
       <use xlink:href="#DejaVuSans-30"/>
       <use xlink:href="#DejaVuSans-2e" x="63.623047"/>
       <use xlink:href="#DejaVuSans-36" x="95.410156"/>
      </g>
     </g>
    </g>
    <g id="ytick_3">
     <g id="line2d_8">
      <g>
       <use xlink:href="#m69734c1645" x="47.72" y="69.624147" style="stroke: #000000; stroke-width: 0.8"/>
      </g>
     </g>
     <g id="text_9">
      <!-- 0.8 -->
      <g transform="translate(24.816875 73.423365)scale(0.1 -0.1)">
       <defs>
        <path id="DejaVuSans-38" d="M 2034 2216 
Q 1584 2216 1326 1975 
Q 1069 1734 1069 1313 
Q 1069 891 1326 650 
Q 1584 409 2034 409 
Q 2484 409 2743 651 
Q 3003 894 3003 1313 
Q 3003 1734 2745 1975 
Q 2488 2216 2034 2216 
z
M 1403 2484 
Q 997 2584 770 2862 
Q 544 3141 544 3541 
Q 544 4100 942 4425 
Q 1341 4750 2034 4750 
Q 2731 4750 3128 4425 
Q 3525 4100 3525 3541 
Q 3525 3141 3298 2862 
Q 3072 2584 2669 2484 
Q 3125 2378 3379 2068 
Q 3634 1759 3634 1313 
Q 3634 634 3220 271 
Q 2806 -91 2034 -91 
Q 1263 -91 848 271 
Q 434 634 434 1313 
Q 434 1759 690 2068 
Q 947 2378 1403 2484 
z
M 1172 3481 
Q 1172 3119 1398 2916 
Q 1625 2713 2034 2713 
Q 2441 2713 2670 2916 
Q 2900 3119 2900 3481 
Q 2900 3844 2670 4047 
Q 2441 4250 2034 4250 
Q 1625 4250 1398 4047 
Q 1172 3844 1172 3481 
z
" transform="scale(0.015625)"/>
       </defs>
       <use xlink:href="#DejaVuSans-30"/>
       <use xlink:href="#DejaVuSans-2e" x="63.623047"/>
       <use xlink:href="#DejaVuSans-38" x="95.410156"/>
      </g>
     </g>
    </g>
    <g id="ytick_4">
     <g id="line2d_9">
      <g>
       <use xlink:href="#m69734c1645" x="47.72" y="33.569088" style="stroke: #000000; stroke-width: 0.8"/>
      </g>
     </g>
     <g id="text_10">
      <!-- 1.0 -->
      <g transform="translate(24.816875 37.368307)scale(0.1 -0.1)">
       <use xlink:href="#DejaVuSans-31"/>
       <use xlink:href="#DejaVuSans-2e" x="63.623047"/>
       <use xlink:href="#DejaVuSans-30" x="95.410156"/>
      </g>
     </g>
    </g>
    <g id="text_11">
     <!-- R-value -->
     <g transform="translate(18.737188 119.064687)rotate(-90)scale(0.1 -0.1)">
      <defs>
       <path id="DejaVuSans-52" d="M 2841 2188 
Q 3044 2119 3236 1894 
Q 3428 1669 3622 1275 
L 4263 0 
L 3584 0 
L 2988 1197 
Q 2756 1666 2539 1819 
Q 2322 1972 1947 1972 
L 1259 1972 
L 1259 0 
L 628 0 
L 628 4666 
L 2053 4666 
Q 2853 4666 3247 4331 
Q 3641 3997 3641 3322 
Q 3641 2881 3436 2590 
Q 3231 2300 2841 2188 
z
M 1259 4147 
L 1259 2491 
L 2053 2491 
Q 2509 2491 2742 2702 
Q 2975 2913 2975 3322 
Q 2975 3731 2742 3939 
Q 2509 4147 2053 4147 
L 1259 4147 
z
" transform="scale(0.015625)"/>
       <path id="DejaVuSans-2d" d="M 313 2009 
L 1997 2009 
L 1997 1497 
L 313 1497 
L 313 2009 
z
" transform="scale(0.015625)"/>
       <path id="DejaVuSans-76" d="M 191 3500 
L 800 3500 
L 1894 563 
L 2988 3500 
L 3597 3500 
L 2284 0 
L 1503 0 
L 191 3500 
z
" transform="scale(0.015625)"/>
      </defs>
      <use xlink:href="#DejaVuSans-52"/>
      <use xlink:href="#DejaVuSans-2d" x="65.482422"/>
      <use xlink:href="#DejaVuSans-76" x="98.941406"/>
      <use xlink:href="#DejaVuSans-61" x="158.121094"/>
      <use xlink:href="#DejaVuSans-6c" x="219.400391"/>
      <use xlink:href="#DejaVuSans-75" x="247.183594"/>
      <use xlink:href="#DejaVuSans-65" x="310.5625"/>
     </g>
    </g>
   </g>
   <g id="line2d_10">
    <path d="M 47.72 33.569091 
L 59.167105 34.481908 
L 70.614211 37.075414 
L 82.061316 41.052927 
L 93.508421 45.844901 
L 104.955526 52.271493 
L 116.402632 58.586368 
L 127.849737 66.040195 
L 139.296842 73.466573 
L 150.743947 80.978079 
L 162.191053 88.334433 
L 173.638158 95.838767 
L 185.085263 102.652342 
L 196.532368 109.417755 
L 207.979474 116.057765 
L 219.426579 121.928772 
L 230.873684 127.487785 
L 242.320789 132.821383 
L 253.767895 137.349204 
L 265.215 141.880955 
" clip-path="url(#p27eb576d52)" style="fill: none; stroke: #1f77b4; stroke-width: 1.5; stroke-linecap: square"/>
   </g>
   <g id="line2d_11">
    <path d="M 47.72 33.569277 
L 59.167105 34.147236 
L 70.614211 35.512295 
L 82.061316 37.65544 
L 93.508421 40.50866 
L 104.955526 44.527057 
L 116.402632 48.717704 
L 127.849737 54.139861 
L 139.296842 59.797203 
L 150.743947 65.939541 
L 162.191053 72.289433 
L 173.638158 78.977685 
L 185.085263 85.364454 
L 196.532368 91.797639 
L 207.979474 98.270514 
L 219.426579 104.146776 
L 230.873684 109.768075 
L 242.320789 115.373266 
L 253.767895 120.207947 
L 265.215 125.375636 
" clip-path="url(#p27eb576d52)" style="fill: none; stroke: #ff7f0e; stroke-width: 1.5; stroke-linecap: square"/>
   </g>
   <g id="line2d_12">
    <path d="M 47.72 33.569101 
L 59.167105 34.266788 
L 70.614211 35.439093 
L 82.061316 37.187539 
L 93.508421 39.254073 
L 104.955526 42.015935 
L 116.402632 44.788035 
L 127.849737 48.24115 
L 139.296842 51.817824 
L 150.743947 55.184314 
L 162.191053 58.617322 
L 173.638158 62.491756 
L 185.085263 65.944337 
L 196.532368 69.859387 
L 207.979474 73.462027 
L 219.426579 76.941503 
L 230.873684 80.535122 
L 242.320789 84.194111 
L 253.767895 87.504235 
L 265.215 91.060145 
" clip-path="url(#p27eb576d52)" style="fill: none; stroke: #2ca02c; stroke-width: 1.5; stroke-linecap: square"/>
   </g>
   <g id="line2d_13">
    <path d="M 47.72 33.570153 
L 59.167105 34.108778 
L 70.614211 34.944302 
L 82.061316 36.194495 
L 93.508421 37.798277 
L 104.955526 40.009278 
L 116.402632 42.315285 
L 127.849737 45.415781 
L 139.296842 48.758227 
L 150.743947 52.094695 
L 162.191053 55.634068 
L 173.638158 59.597343 
L 185.085263 63.253136 
L 196.532368 67.21691 
L 207.979474 70.943619 
L 219.426579 74.520995 
L 230.873684 78.175487 
L 242.320789 81.96786 
L 253.767895 85.39885 
L 265.215 89.07572 
" clip-path="url(#p27eb576d52)" style="fill: none; stroke: #d62728; stroke-width: 1.5; stroke-linecap: square"/>
   </g>
   <g id="line2d_14">
    <path d="M 47.72 33.569101 
L 59.167105 34.482122 
L 70.614211 37.071774 
L 82.061316 41.078566 
L 93.508421 45.839177 
L 104.955526 52.378214 
L 116.402632 58.776742 
L 127.849737 66.137375 
L 139.296842 73.476163 
L 150.743947 81.205285 
L 162.191053 88.313809 
L 173.638158 95.708775 
L 185.085263 102.58004 
L 196.532368 109.883977 
L 207.979474 116.081606 
L 219.426579 122.206695 
L 230.873684 127.934344 
L 242.320789 132.996918 
L 253.767895 137.506425 
L 265.215 142.291804 
" clip-path="url(#p27eb576d52)" style="fill: none; stroke: #9467bd; stroke-width: 1.5; stroke-linecap: square"/>
   </g>
   <g id="line2d_15">
    <path d="M 47.72 33.569843 
L 59.167105 34.148186 
L 70.614211 35.5104 
L 82.061316 37.660995 
L 93.508421 40.504375 
L 104.955526 44.540468 
L 116.402632 48.81293 
L 127.849737 54.198983 
L 139.296842 59.840036 
L 150.743947 66.053932 
L 162.191053 72.347921 
L 173.638158 78.921701 
L 185.085263 85.339665 
L 196.532368 92.174943 
L 207.979474 98.397291 
L 219.426579 104.448071 
L 230.873684 110.130722 
L 242.320789 115.50317 
L 253.767895 120.442502 
L 265.215 125.671938 
" clip-path="url(#p27eb576d52)" style="fill: none; stroke: #8c564b; stroke-width: 1.5; stroke-linecap: square"/>
   </g>
   <g id="line2d_16">
    <path d="M 47.72 47.367192 
L 59.167105 48.506906 
L 70.614211 51.357803 
L 82.061316 56.088414 
L 93.508421 61.699667 
L 104.955526 69.065631 
L 116.402632 76.280517 
L 127.849737 84.579316 
L 139.296842 92.695397 
L 150.743947 100.625034 
L 162.191053 108.404398 
L 173.638158 116.023348 
L 185.085263 123.204757 
L 196.532368 129.880055 
L 207.979474 136.405412 
L 219.426579 141.98393 
L 230.873684 147.116918 
L 242.320789 151.743228 
L 253.767895 155.819245 
L 265.215 159.539335 
" clip-path="url(#p27eb576d52)" style="fill: none; stroke: #e377c2; stroke-width: 1.5; stroke-linecap: square"/>
   </g>
   <g id="line2d_17">
    <path d="M 47.72 33.569467 
L 59.167105 33.831416 
L 70.614211 33.976583 
L 82.061316 34.341154 
L 93.508421 35.117756 
L 104.955526 36.819229 
L 116.402632 39.063175 
L 127.849737 42.271626 
L 139.296842 46.258255 
L 150.743947 50.838057 
L 162.191053 55.669131 
L 173.638158 61.422777 
L 185.085263 66.937326 
L 196.532368 73.15338 
L 207.979474 79.56643 
L 219.426579 85.698568 
L 230.873684 91.954633 
L 242.320789 98.282068 
L 253.767895 103.812277 
L 265.215 109.689112 
" clip-path="url(#p27eb576d52)" style="fill: none; stroke: #7f7f7f; stroke-width: 1.5; stroke-linecap: square"/>
   </g>
   <g id="patch_3">
    <path d="M 47.72 174.04 
L 47.72 26.88 
" style="fill: none; stroke: #000000; stroke-width: 0.8; stroke-linejoin: miter; stroke-linecap: square"/>
   </g>
   <g id="patch_4">
    <path d="M 47.72 174.04 
L 265.215 174.04 
" style="fill: none; stroke: #000000; stroke-width: 0.8; stroke-linejoin: miter; stroke-linecap: square"/>
   </g>
   <g id="text_12">
    <!-- Node * surprisal -->
    <g transform="translate(108.18625 20.88)scale(0.12 -0.12)">
     <defs>
      <path id="DejaVuSans-4e" d="M 628 4666 
L 1478 4666 
L 3547 763 
L 3547 4666 
L 4159 4666 
L 4159 0 
L 3309 0 
L 1241 3903 
L 1241 0 
L 628 0 
L 628 4666 
z
" transform="scale(0.015625)"/>
      <path id="DejaVuSans-64" d="M 2906 2969 
L 2906 4863 
L 3481 4863 
L 3481 0 
L 2906 0 
L 2906 525 
Q 2725 213 2448 61 
Q 2172 -91 1784 -91 
Q 1150 -91 751 415 
Q 353 922 353 1747 
Q 353 2572 751 3078 
Q 1150 3584 1784 3584 
Q 2172 3584 2448 3432 
Q 2725 3281 2906 2969 
z
M 947 1747 
Q 947 1113 1208 752 
Q 1469 391 1925 391 
Q 2381 391 2643 752 
Q 2906 1113 2906 1747 
Q 2906 2381 2643 2742 
Q 2381 3103 1925 3103 
Q 1469 3103 1208 2742 
Q 947 2381 947 1747 
z
" transform="scale(0.015625)"/>
      <path id="DejaVuSans-2a" d="M 3009 3897 
L 1888 3291 
L 3009 2681 
L 2828 2375 
L 1778 3009 
L 1778 1831 
L 1422 1831 
L 1422 3009 
L 372 2375 
L 191 2681 
L 1313 3291 
L 191 3897 
L 372 4206 
L 1422 3572 
L 1422 4750 
L 1778 4750 
L 1778 3572 
L 2828 4206 
L 3009 3897 
z
" transform="scale(0.015625)"/>
     </defs>
     <use xlink:href="#DejaVuSans-4e"/>
     <use xlink:href="#DejaVuSans-6f" x="74.804688"/>
     <use xlink:href="#DejaVuSans-64" x="135.986328"/>
     <use xlink:href="#DejaVuSans-65" x="199.462891"/>
     <use xlink:href="#DejaVuSans-20" x="260.986328"/>
     <use xlink:href="#DejaVuSans-2a" x="292.773438"/>
     <use xlink:href="#DejaVuSans-20" x="342.773438"/>
     <use xlink:href="#DejaVuSans-73" x="374.560547"/>
     <use xlink:href="#DejaVuSans-75" x="426.660156"/>
     <use xlink:href="#DejaVuSans-72" x="490.039062"/>
     <use xlink:href="#DejaVuSans-70" x="531.152344"/>
     <use xlink:href="#DejaVuSans-72" x="594.628906"/>
     <use xlink:href="#DejaVuSans-69" x="635.742188"/>
     <use xlink:href="#DejaVuSans-73" x="663.525391"/>
     <use xlink:href="#DejaVuSans-61" x="715.625"/>
     <use xlink:href="#DejaVuSans-6c" x="776.904297"/>
    </g>
   </g>
  </g>
  <g id="axes_2">
   <g id="patch_5">
    <path d="M 298.065 174.04 
L 515.56 174.04 
L 515.56 26.88 
L 298.065 26.88 
z
" style="fill: #ffffff"/>
   </g>
   <g id="PolyCollection_9">
    <path d="M 298.065 33.569091 
L 298.065 33.569092 
L 309.512105 34.669833 
L 320.959211 37.774745 
L 332.406316 42.027371 
L 343.853421 47.985141 
L 355.300526 54.892303 
L 366.747632 61.989841 
L 378.194737 69.61988 
L 389.641842 76.961022 
L 401.088947 85.232327 
L 412.536053 91.814352 
L 423.983158 99.133359 
L 435.430263 106.04033 
L 446.877368 112.931277 
L 458.324474 119.890314 
L 469.771579 125.681362 
L 481.218684 131.849813 
L 492.665789 137.362457 
L 504.112895 142.570506 
L 515.56 148.15514 
L 515.56 134.278495 
L 515.56 134.278495 
L 504.112895 130.445247 
L 492.665789 124.655587 
L 481.218684 119.864493 
L 469.771579 114.89748 
L 458.324474 108.406872 
L 446.877368 102.934748 
L 435.430263 95.833636 
L 423.983158 89.712757 
L 412.536053 82.668863 
L 401.088947 75.954489 
L 389.641842 68.858679 
L 378.194737 62.109947 
L 366.747632 55.579775 
L 355.300526 49.631713 
L 343.853421 43.960992 
L 332.406316 39.977882 
L 320.959211 36.714169 
L 309.512105 34.34262 
L 298.065 33.569091 
z
" clip-path="url(#pa63e187aa9)" style="fill: #1f77b4; fill-opacity: 0.4"/>
   </g>
   <g id="PolyCollection_10">
    <path d="M 298.065 33.569234 
L 298.065 33.56932 
L 309.512105 34.669159 
L 320.959211 37.776891 
L 332.406316 42.029514 
L 343.853421 48.006489 
L 355.300526 54.919724 
L 366.747632 62.041916 
L 378.194737 69.68499 
L 389.641842 77.057232 
L 401.088947 85.383567 
L 412.536053 92.005675 
L 423.983158 99.399691 
L 435.430263 106.2952 
L 446.877368 113.227438 
L 458.324474 120.213523 
L 469.771579 126.060813 
L 481.218684 132.195183 
L 492.665789 137.707513 
L 504.112895 142.911054 
L 515.56 148.541099 
L 515.56 134.779887 
L 515.56 134.779887 
L 504.112895 130.96193 
L 492.665789 125.13721 
L 481.218684 120.340003 
L 469.771579 115.283399 
L 458.324474 108.739361 
L 446.877368 103.176645 
L 435.430263 96.010727 
L 423.983158 89.848507 
L 412.536053 82.730292 
L 401.088947 76.007506 
L 389.641842 68.900796 
L 378.194737 62.120389 
L 366.747632 55.592747 
L 355.300526 49.64162 
L 343.853421 43.960624 
L 332.406316 39.976182 
L 320.959211 36.713473 
L 309.512105 34.344034 
L 298.065 33.569234 
z
" clip-path="url(#pa63e187aa9)" style="fill: #ff7f0e; fill-opacity: 0.4"/>
   </g>
   <g id="PolyCollection_11">
    <path d="M 298.065 33.569099 
L 298.065 33.569104 
L 309.512105 34.675205 
L 320.959211 37.789718 
L 332.406316 42.073738 
L 343.853421 48.093966 
L 355.300526 55.030337 
L 366.747632 62.156445 
L 378.194737 69.83533 
L 389.641842 77.18746 
L 401.088947 85.502067 
L 412.536053 92.099735 
L 423.983158 99.479518 
L 435.430263 106.357672 
L 446.877368 113.334644 
L 458.324474 120.322555 
L 469.771579 126.072674 
L 481.218684 132.271408 
L 492.665789 137.727073 
L 504.112895 142.932631 
L 515.56 148.565269 
L 515.56 134.759469 
L 515.56 134.759469 
L 504.112895 130.925719 
L 492.665789 125.137424 
L 481.218684 120.385915 
L 469.771579 115.356859 
L 458.324474 108.776799 
L 446.877368 103.208915 
L 435.430263 96.080154 
L 423.983158 89.936878 
L 412.536053 82.777588 
L 401.088947 76.014793 
L 389.641842 68.920106 
L 378.194737 62.114706 
L 366.747632 55.573879 
L 355.300526 49.631106 
L 343.853421 43.952837 
L 332.406316 39.971905 
L 320.959211 36.709459 
L 309.512105 34.34413 
L 298.065 33.569099 
z
" clip-path="url(#pa63e187aa9)" style="fill: #2ca02c; fill-opacity: 0.4"/>
   </g>
   <g id="PolyCollection_12">
    <path d="M 298.065 33.569876 
L 298.065 33.570429 
L 309.512105 34.677556 
L 320.959211 37.788999 
L 332.406316 42.070824 
L 343.853421 48.083927 
L 355.300526 55.021833 
L 366.747632 62.157315 
L 378.194737 69.818235 
L 389.641842 77.184355 
L 401.088947 85.529597 
L 412.536053 92.139678 
L 423.983158 99.548045 
L 435.430263 106.406454 
L 446.877368 113.401122 
L 458.324474 120.400894 
L 469.771579 126.1996 
L 481.218684 132.430345 
L 492.665789 137.895565 
L 504.112895 143.118131 
L 515.56 148.770207 
L 515.56 135.185558 
L 515.56 135.185558 
L 504.112895 131.360143 
L 492.665789 125.528875 
L 481.218684 120.692552 
L 469.771579 115.575796 
L 458.324474 108.96778 
L 446.877368 103.292046 
L 435.430263 96.135683 
L 423.983158 89.958114 
L 412.536053 82.770434 
L 401.088947 76.009063 
L 389.641842 68.912508 
L 378.194737 62.105749 
L 366.747632 55.555364 
L 355.300526 49.627663 
L 343.853421 43.945465 
L 332.406316 39.968961 
L 320.959211 36.709022 
L 309.512105 34.34547 
L 298.065 33.569876 
z
" clip-path="url(#pa63e187aa9)" style="fill: #d62728; fill-opacity: 0.4"/>
   </g>
   <g id="PolyCollection_13">
    <path d="M 298.065 33.569099 
L 298.065 33.569103 
L 309.512105 34.669418 
L 320.959211 37.7996 
L 332.406316 42.020533 
L 343.853421 48.016792 
L 355.300526 54.865767 
L 366.747632 62.037336 
L 378.194737 69.642634 
L 389.641842 77.26901 
L 401.088947 85.352758 
L 412.536053 91.967346 
L 423.983158 99.224026 
L 435.430263 106.500608 
L 446.877368 113.284306 
L 458.324474 120.248856 
L 469.771579 126.147584 
L 481.218684 132.090978 
L 492.665789 138.498458 
L 504.112895 143.150642 
L 515.56 148.125649 
L 515.56 134.362529 
L 515.56 134.362529 
L 504.112895 131.552406 
L 492.665789 124.432206 
L 481.218684 120.569751 
L 469.771579 115.702506 
L 458.324474 108.587573 
L 446.877368 102.996377 
L 435.430263 95.617217 
L 423.983158 89.761158 
L 412.536053 82.89781 
L 401.088947 76.200906 
L 389.641842 68.973238 
L 378.194737 62.260324 
L 366.747632 55.585204 
L 355.300526 49.594202 
L 343.853421 44.020902 
L 332.406316 39.986343 
L 320.959211 36.72225 
L 309.512105 34.346896 
L 298.065 33.569099 
z
" clip-path="url(#pa63e187aa9)" style="fill: #9467bd; fill-opacity: 0.4"/>
   </g>
   <g id="PolyCollection_14">
    <path d="M 298.065 33.569675 
L 298.065 33.570013 
L 309.512105 34.669422 
L 320.959211 37.801361 
L 332.406316 42.022319 
L 343.853421 48.042797 
L 355.300526 54.886905 
L 366.747632 62.097814 
L 378.194737 69.709463 
L 389.641842 77.356612 
L 401.088947 85.516614 
L 412.536053 92.148223 
L 423.983158 99.471587 
L 435.430263 106.778471 
L 446.877368 113.556002 
L 458.324474 120.56727 
L 469.771579 126.49966 
L 481.218684 132.447479 
L 492.665789 138.821595 
L 504.112895 143.492106 
L 515.56 148.505637 
L 515.56 134.89263 
L 515.56 134.89263 
L 504.112895 132.043933 
L 492.665789 124.922865 
L 481.218684 121.095625 
L 469.771579 116.062596 
L 458.324474 108.915123 
L 446.877368 103.225712 
L 435.430263 95.770603 
L 423.983158 89.912839 
L 412.536053 82.960799 
L 401.088947 76.247506 
L 389.641842 69.004603 
L 378.194737 62.270265 
L 366.747632 55.596203 
L 355.300526 49.602601 
L 343.853421 44.021143 
L 332.406316 39.983902 
L 320.959211 36.721638 
L 309.512105 34.348808 
L 298.065 33.569675 
z
" clip-path="url(#pa63e187aa9)" style="fill: #8c564b; fill-opacity: 0.4"/>
   </g>
   <g id="PolyCollection_15">
    <path d="M 298.065 45.356221 
L 298.065 49.378162 
L 309.512105 50.185142 
L 320.959211 52.730263 
L 332.406316 56.190819 
L 343.853421 61.294127 
L 355.300526 67.638646 
L 366.747632 74.286725 
L 378.194737 81.033645 
L 389.641842 87.854558 
L 401.088947 95.662977 
L 412.536053 101.82961 
L 423.983158 108.759915 
L 435.430263 115.3541 
L 446.877368 121.935892 
L 458.324474 128.266516 
L 469.771579 133.840183 
L 481.218684 139.459634 
L 492.665789 144.864819 
L 504.112895 149.710732 
L 515.56 154.901836 
L 515.56 140.842066 
L 515.56 140.842066 
L 504.112895 137.330224 
L 492.665789 131.861117 
L 481.218684 127.745783 
L 469.771579 122.851222 
L 458.324474 116.8664 
L 446.877368 111.499156 
L 435.430263 104.876799 
L 423.983158 99.188183 
L 412.536053 92.546285 
L 401.088947 86.035007 
L 389.641842 79.251211 
L 378.194737 73.202309 
L 366.747632 66.846413 
L 355.300526 61.30436 
L 343.853421 56.043562 
L 332.406316 52.141896 
L 320.959211 48.690821 
L 309.512105 46.258558 
L 298.065 45.356221 
z
" clip-path="url(#pa63e187aa9)" style="fill: #e377c2; fill-opacity: 0.4"/>
   </g>
   <g id="PolyCollection_16">
    <path d="M 298.065 33.56939 
L 298.065 33.569545 
L 309.512105 34.676722 
L 320.959211 37.794289 
L 332.406316 42.076202 
L 343.853421 48.085442 
L 355.300526 55.032111 
L 366.747632 62.218959 
L 378.194737 69.913466 
L 389.641842 77.327222 
L 401.088947 85.743807 
L 412.536053 92.411107 
L 423.983158 99.894863 
L 435.430263 106.832005 
L 446.877368 113.836398 
L 458.324474 120.877636 
L 469.771579 126.695708 
L 481.218684 132.847522 
L 492.665789 138.40105 
L 504.112895 143.635241 
L 515.56 149.234821 
L 515.56 135.002692 
L 515.56 135.002692 
L 504.112895 131.212899 
L 492.665789 125.340303 
L 481.218684 120.621806 
L 469.771579 115.544252 
L 458.324474 108.929954 
L 446.877368 103.313608 
L 435.430263 96.150661 
L 423.983158 90.010529 
L 412.536053 82.86628 
L 401.088947 76.116755 
L 389.641842 69.027085 
L 378.194737 62.239953 
L 366.747632 55.660603 
L 355.300526 49.710911 
L 343.853421 43.995875 
L 332.406316 40.009045 
L 320.959211 36.732838 
L 309.512105 34.348389 
L 298.065 33.56939 
z
" clip-path="url(#pa63e187aa9)" style="fill: #7f7f7f; fill-opacity: 0.4"/>
   </g>
   <g id="matplotlib.axis_3">
    <g id="xtick_6">
     <g id="line2d_18">
      <g>
       <use xlink:href="#ma52d273b95" x="298.065" y="174.04" style="stroke: #000000; stroke-width: 0.8"/>
      </g>
     </g>
     <g id="text_13">
      <!-- 0.0 -->
      <g transform="translate(290.113437 188.638438)scale(0.1 -0.1)">
       <use xlink:href="#DejaVuSans-30"/>
       <use xlink:href="#DejaVuSans-2e" x="63.623047"/>
       <use xlink:href="#DejaVuSans-30" x="95.410156"/>
      </g>
     </g>
    </g>
    <g id="xtick_7">
     <g id="line2d_19">
      <g>
       <use xlink:href="#ma52d273b95" x="352.43875" y="174.04" style="stroke: #000000; stroke-width: 0.8"/>
      </g>
     </g>
     <g id="text_14">
      <!-- 0.5 -->
      <g transform="translate(344.487187 188.638438)scale(0.1 -0.1)">
       <use xlink:href="#DejaVuSans-30"/>
       <use xlink:href="#DejaVuSans-2e" x="63.623047"/>
       <use xlink:href="#DejaVuSans-35" x="95.410156"/>
      </g>
     </g>
    </g>
    <g id="xtick_8">
     <g id="line2d_20">
      <g>
       <use xlink:href="#ma52d273b95" x="406.8125" y="174.04" style="stroke: #000000; stroke-width: 0.8"/>
      </g>
     </g>
     <g id="text_15">
      <!-- 1.0 -->
      <g transform="translate(398.860937 188.638438)scale(0.1 -0.1)">
       <use xlink:href="#DejaVuSans-31"/>
       <use xlink:href="#DejaVuSans-2e" x="63.623047"/>
       <use xlink:href="#DejaVuSans-30" x="95.410156"/>
      </g>
     </g>
    </g>
    <g id="xtick_9">
     <g id="line2d_21">
      <g>
       <use xlink:href="#ma52d273b95" x="461.18625" y="174.04" style="stroke: #000000; stroke-width: 0.8"/>
      </g>
     </g>
     <g id="text_16">
      <!-- 1.5 -->
      <g transform="translate(453.234687 188.638438)scale(0.1 -0.1)">
       <use xlink:href="#DejaVuSans-31"/>
       <use xlink:href="#DejaVuSans-2e" x="63.623047"/>
       <use xlink:href="#DejaVuSans-35" x="95.410156"/>
      </g>
     </g>
    </g>
    <g id="xtick_10">
     <g id="line2d_22">
      <g>
       <use xlink:href="#ma52d273b95" x="515.56" y="174.04" style="stroke: #000000; stroke-width: 0.8"/>
      </g>
     </g>
     <g id="text_17">
      <!-- 2.0 -->
      <g transform="translate(507.608437 188.638438)scale(0.1 -0.1)">
       <use xlink:href="#DejaVuSans-32"/>
       <use xlink:href="#DejaVuSans-2e" x="63.623047"/>
       <use xlink:href="#DejaVuSans-30" x="95.410156"/>
      </g>
     </g>
    </g>
    <g id="text_18">
     <!-- Influence of surprisal (multiplication) -->
     <g transform="translate(314.665625 202.316563)scale(0.1 -0.1)">
      <use xlink:href="#DejaVuSans-49"/>
      <use xlink:href="#DejaVuSans-6e" x="29.492188"/>
      <use xlink:href="#DejaVuSans-66" x="92.871094"/>
      <use xlink:href="#DejaVuSans-6c" x="128.076172"/>
      <use xlink:href="#DejaVuSans-75" x="155.859375"/>
      <use xlink:href="#DejaVuSans-65" x="219.238281"/>
      <use xlink:href="#DejaVuSans-6e" x="280.761719"/>
      <use xlink:href="#DejaVuSans-63" x="344.140625"/>
      <use xlink:href="#DejaVuSans-65" x="399.121094"/>
      <use xlink:href="#DejaVuSans-20" x="460.644531"/>
      <use xlink:href="#DejaVuSans-6f" x="492.431641"/>
      <use xlink:href="#DejaVuSans-66" x="553.613281"/>
      <use xlink:href="#DejaVuSans-20" x="588.818359"/>
      <use xlink:href="#DejaVuSans-73" x="620.605469"/>
      <use xlink:href="#DejaVuSans-75" x="672.705078"/>
      <use xlink:href="#DejaVuSans-72" x="736.083984"/>
      <use xlink:href="#DejaVuSans-70" x="777.197266"/>
      <use xlink:href="#DejaVuSans-72" x="840.673828"/>
      <use xlink:href="#DejaVuSans-69" x="881.787109"/>
      <use xlink:href="#DejaVuSans-73" x="909.570312"/>
      <use xlink:href="#DejaVuSans-61" x="961.669922"/>
      <use xlink:href="#DejaVuSans-6c" x="1022.949219"/>
      <use xlink:href="#DejaVuSans-20" x="1050.732422"/>
      <use xlink:href="#DejaVuSans-28" x="1082.519531"/>
      <use xlink:href="#DejaVuSans-6d" x="1121.533203"/>
      <use xlink:href="#DejaVuSans-75" x="1218.945312"/>
      <use xlink:href="#DejaVuSans-6c" x="1282.324219"/>
      <use xlink:href="#DejaVuSans-74" x="1310.107422"/>
      <use xlink:href="#DejaVuSans-69" x="1349.316406"/>
      <use xlink:href="#DejaVuSans-70" x="1377.099609"/>
      <use xlink:href="#DejaVuSans-6c" x="1440.576172"/>
      <use xlink:href="#DejaVuSans-69" x="1468.359375"/>
      <use xlink:href="#DejaVuSans-63" x="1496.142578"/>
      <use xlink:href="#DejaVuSans-61" x="1551.123047"/>
      <use xlink:href="#DejaVuSans-74" x="1612.402344"/>
      <use xlink:href="#DejaVuSans-69" x="1651.611328"/>
      <use xlink:href="#DejaVuSans-6f" x="1679.394531"/>
      <use xlink:href="#DejaVuSans-6e" x="1740.576172"/>
      <use xlink:href="#DejaVuSans-29" x="1803.955078"/>
     </g>
    </g>
   </g>
   <g id="line2d_23">
    <path d="M 298.065 33.569091 
L 309.512105 34.506227 
L 320.959211 37.244457 
L 332.406316 41.002627 
L 343.853421 45.973067 
L 355.300526 52.262008 
L 366.747632 58.784808 
L 378.194737 65.864914 
L 389.641842 72.909851 
L 401.088947 80.593408 
L 412.536053 87.241607 
L 423.983158 94.423058 
L 435.430263 100.936983 
L 446.877368 107.933012 
L 458.324474 114.148593 
L 469.771579 120.289421 
L 481.218684 125.857153 
L 492.665789 131.009022 
L 504.112895 136.507876 
L 515.56 141.216817 
" clip-path="url(#pa63e187aa9)" style="fill: none; stroke: #1f77b4; stroke-width: 1.5; stroke-linecap: square"/>
   </g>
   <g id="line2d_24">
    <path d="M 298.065 33.569277 
L 309.512105 34.506596 
L 320.959211 37.245182 
L 332.406316 41.002848 
L 343.853421 45.983557 
L 355.300526 52.280672 
L 366.747632 58.817331 
L 378.194737 65.90269 
L 389.641842 72.979014 
L 401.088947 80.695537 
L 412.536053 87.367984 
L 423.983158 94.624099 
L 435.430263 101.152963 
L 446.877368 108.202042 
L 458.324474 114.476442 
L 469.771579 120.672106 
L 481.218684 126.267593 
L 492.665789 131.422361 
L 504.112895 136.936492 
L 515.56 141.660493 
" clip-path="url(#pa63e187aa9)" style="fill: none; stroke: #ff7f0e; stroke-width: 1.5; stroke-linecap: square"/>
   </g>
   <g id="line2d_25">
    <path d="M 298.065 33.569101 
L 309.512105 34.509668 
L 320.959211 37.249589 
L 332.406316 41.022821 
L 343.853421 46.023402 
L 355.300526 52.330721 
L 366.747632 58.865162 
L 378.194737 65.975018 
L 389.641842 73.053783 
L 401.088947 80.75843 
L 412.536053 87.438662 
L 423.983158 94.708198 
L 435.430263 101.218913 
L 446.877368 108.27178 
L 458.324474 114.549677 
L 469.771579 120.714767 
L 481.218684 126.328662 
L 492.665789 131.432249 
L 504.112895 136.929175 
L 515.56 141.662369 
" clip-path="url(#pa63e187aa9)" style="fill: none; stroke: #2ca02c; stroke-width: 1.5; stroke-linecap: square"/>
   </g>
   <g id="line2d_26">
    <path d="M 298.065 33.570153 
L 309.512105 34.511513 
L 320.959211 37.249011 
L 332.406316 41.019893 
L 343.853421 46.014696 
L 355.300526 52.324748 
L 366.747632 58.856339 
L 378.194737 65.961992 
L 389.641842 73.048431 
L 401.088947 80.76933 
L 412.536053 87.455056 
L 423.983158 94.753079 
L 435.430263 101.271069 
L 446.877368 108.346584 
L 458.324474 114.684337 
L 469.771579 120.887698 
L 481.218684 126.561448 
L 492.665789 131.71222 
L 504.112895 137.239137 
L 515.56 141.977882 
" clip-path="url(#pa63e187aa9)" style="fill: none; stroke: #d62728; stroke-width: 1.5; stroke-linecap: square"/>
   </g>
   <g id="line2d_27">
    <path d="M 298.065 33.569101 
L 309.512105 34.508157 
L 320.959211 37.260925 
L 332.406316 41.003438 
L 343.853421 46.018847 
L 355.300526 52.229985 
L 366.747632 58.81127 
L 378.194737 65.951479 
L 389.641842 73.121124 
L 401.088947 80.776832 
L 412.536053 87.432578 
L 423.983158 94.492592 
L 435.430263 101.058912 
L 446.877368 108.140341 
L 458.324474 114.418215 
L 469.771579 120.925045 
L 481.218684 126.330364 
L 492.665789 131.465332 
L 504.112895 137.351524 
L 515.56 141.244089 
" clip-path="url(#pa63e187aa9)" style="fill: none; stroke: #9467bd; stroke-width: 1.5; stroke-linecap: square"/>
   </g>
   <g id="line2d_28">
    <path d="M 298.065 33.569844 
L 309.512105 34.509115 
L 320.959211 37.2615 
L 332.406316 41.00311 
L 343.853421 46.03197 
L 355.300526 52.244753 
L 366.747632 58.847009 
L 378.194737 65.989864 
L 389.641842 73.180607 
L 401.088947 80.88206 
L 412.536053 87.554511 
L 423.983158 94.692213 
L 435.430263 101.274537 
L 446.877368 108.390857 
L 458.324474 114.741197 
L 469.771579 121.281128 
L 481.218684 126.771552 
L 492.665789 131.87223 
L 504.112895 137.76802 
L 515.56 141.699133 
" clip-path="url(#pa63e187aa9)" style="fill: none; stroke: #8c564b; stroke-width: 1.5; stroke-linecap: square"/>
   </g>
   <g id="line2d_29">
    <path d="M 298.065 47.367192 
L 309.512105 48.22185 
L 320.959211 50.710542 
L 332.406316 54.166358 
L 343.853421 58.668844 
L 355.300526 64.471503 
L 366.747632 70.566569 
L 378.194737 77.117977 
L 389.641842 83.552885 
L 401.088947 90.848992 
L 412.536053 97.187948 
L 423.983158 103.974049 
L 435.430263 110.115449 
L 446.877368 116.717524 
L 458.324474 122.566458 
L 469.771579 128.345702 
L 481.218684 133.602709 
L 492.665789 138.362968 
L 504.112895 143.520478 
L 515.56 147.871951 
" clip-path="url(#pa63e187aa9)" style="fill: none; stroke: #e377c2; stroke-width: 1.5; stroke-linecap: square"/>
   </g>
   <g id="line2d_30">
    <path d="M 298.065 33.569467 
L 309.512105 34.512555 
L 320.959211 37.263564 
L 332.406316 41.042623 
L 343.853421 46.040658 
L 355.300526 52.371511 
L 366.747632 58.939781 
L 378.194737 66.076709 
L 389.641842 73.177154 
L 401.088947 80.930281 
L 412.536053 87.638694 
L 423.983158 94.952696 
L 435.430263 101.491333 
L 446.877368 108.575003 
L 458.324474 114.903795 
L 469.771579 121.11998 
L 481.218684 126.734664 
L 492.665789 131.870677 
L 504.112895 137.42407 
L 515.56 142.118756 
" clip-path="url(#pa63e187aa9)" style="fill: none; stroke: #7f7f7f; stroke-width: 1.5; stroke-linecap: square"/>
   </g>
   <g id="patch_6">
    <path d="M 298.065 174.04 
L 298.065 26.88 
" style="fill: none; stroke: #000000; stroke-width: 0.8; stroke-linejoin: miter; stroke-linecap: square"/>
   </g>
   <g id="patch_7">
    <path d="M 298.065 174.04 
L 515.56 174.04 
" style="fill: none; stroke: #000000; stroke-width: 0.8; stroke-linejoin: miter; stroke-linecap: square"/>
   </g>
   <g id="text_19">
    <!-- Node * third variable -->
    <g transform="translate(344.2325 20.88)scale(0.12 -0.12)">
     <defs>
      <path id="DejaVuSans-68" d="M 3513 2113 
L 3513 0 
L 2938 0 
L 2938 2094 
Q 2938 2591 2744 2837 
Q 2550 3084 2163 3084 
Q 1697 3084 1428 2787 
Q 1159 2491 1159 1978 
L 1159 0 
L 581 0 
L 581 4863 
L 1159 4863 
L 1159 2956 
Q 1366 3272 1645 3428 
Q 1925 3584 2291 3584 
Q 2894 3584 3203 3211 
Q 3513 2838 3513 2113 
z
" transform="scale(0.015625)"/>
      <path id="DejaVuSans-62" d="M 3116 1747 
Q 3116 2381 2855 2742 
Q 2594 3103 2138 3103 
Q 1681 3103 1420 2742 
Q 1159 2381 1159 1747 
Q 1159 1113 1420 752 
Q 1681 391 2138 391 
Q 2594 391 2855 752 
Q 3116 1113 3116 1747 
z
M 1159 2969 
Q 1341 3281 1617 3432 
Q 1894 3584 2278 3584 
Q 2916 3584 3314 3078 
Q 3713 2572 3713 1747 
Q 3713 922 3314 415 
Q 2916 -91 2278 -91 
Q 1894 -91 1617 61 
Q 1341 213 1159 525 
L 1159 0 
L 581 0 
L 581 4863 
L 1159 4863 
L 1159 2969 
z
" transform="scale(0.015625)"/>
     </defs>
     <use xlink:href="#DejaVuSans-4e"/>
     <use xlink:href="#DejaVuSans-6f" x="74.804688"/>
     <use xlink:href="#DejaVuSans-64" x="135.986328"/>
     <use xlink:href="#DejaVuSans-65" x="199.462891"/>
     <use xlink:href="#DejaVuSans-20" x="260.986328"/>
     <use xlink:href="#DejaVuSans-2a" x="292.773438"/>
     <use xlink:href="#DejaVuSans-20" x="342.773438"/>
     <use xlink:href="#DejaVuSans-74" x="374.560547"/>
     <use xlink:href="#DejaVuSans-68" x="413.769531"/>
     <use xlink:href="#DejaVuSans-69" x="477.148438"/>
     <use xlink:href="#DejaVuSans-72" x="504.931641"/>
     <use xlink:href="#DejaVuSans-64" x="544.294922"/>
     <use xlink:href="#DejaVuSans-20" x="607.771484"/>
     <use xlink:href="#DejaVuSans-76" x="639.558594"/>
     <use xlink:href="#DejaVuSans-61" x="698.738281"/>
     <use xlink:href="#DejaVuSans-72" x="760.017578"/>
     <use xlink:href="#DejaVuSans-69" x="801.130859"/>
     <use xlink:href="#DejaVuSans-61" x="828.914062"/>
     <use xlink:href="#DejaVuSans-62" x="890.193359"/>
     <use xlink:href="#DejaVuSans-6c" x="953.669922"/>
     <use xlink:href="#DejaVuSans-65" x="981.453125"/>
    </g>
   </g>
   <g id="legend_1">
    <g id="line2d_31">
     <path d="M 524.56 39.978437 
L 534.56 39.978437 
L 544.56 39.978437 
" style="fill: none; stroke: #1f77b4; stroke-width: 1.5; stroke-linecap: square"/>
    </g>
    <g id="text_20">
     <!-- Node -->
     <g transform="translate(552.56 43.478437)scale(0.1 -0.1)">
      <use xlink:href="#DejaVuSans-4e"/>
      <use xlink:href="#DejaVuSans-6f" x="74.804688"/>
      <use xlink:href="#DejaVuSans-64" x="135.986328"/>
      <use xlink:href="#DejaVuSans-65" x="199.462891"/>
     </g>
    </g>
    <g id="line2d_32">
     <path d="M 524.56 54.656563 
L 534.56 54.656563 
L 544.56 54.656563 
" style="fill: none; stroke: #ff7f0e; stroke-width: 1.5; stroke-linecap: square"/>
    </g>
    <g id="text_21">
     <!-- Node + surprisal -->
     <g transform="translate(552.56 58.156563)scale(0.1 -0.1)">
      <defs>
       <path id="DejaVuSans-2b" d="M 2944 4013 
L 2944 2272 
L 4684 2272 
L 4684 1741 
L 2944 1741 
L 2944 0 
L 2419 0 
L 2419 1741 
L 678 1741 
L 678 2272 
L 2419 2272 
L 2419 4013 
L 2944 4013 
z
" transform="scale(0.015625)"/>
      </defs>
      <use xlink:href="#DejaVuSans-4e"/>
      <use xlink:href="#DejaVuSans-6f" x="74.804688"/>
      <use xlink:href="#DejaVuSans-64" x="135.986328"/>
      <use xlink:href="#DejaVuSans-65" x="199.462891"/>
      <use xlink:href="#DejaVuSans-20" x="260.986328"/>
      <use xlink:href="#DejaVuSans-2b" x="292.773438"/>
      <use xlink:href="#DejaVuSans-20" x="376.5625"/>
      <use xlink:href="#DejaVuSans-73" x="408.349609"/>
      <use xlink:href="#DejaVuSans-75" x="460.449219"/>
      <use xlink:href="#DejaVuSans-72" x="523.828125"/>
      <use xlink:href="#DejaVuSans-70" x="564.941406"/>
      <use xlink:href="#DejaVuSans-72" x="628.417969"/>
      <use xlink:href="#DejaVuSans-69" x="669.53125"/>
      <use xlink:href="#DejaVuSans-73" x="697.314453"/>
      <use xlink:href="#DejaVuSans-61" x="749.414062"/>
      <use xlink:href="#DejaVuSans-6c" x="810.693359"/>
     </g>
    </g>
    <g id="line2d_33">
     <path d="M 524.56 69.334687 
L 534.56 69.334687 
L 544.56 69.334687 
" style="fill: none; stroke: #2ca02c; stroke-width: 1.5; stroke-linecap: square"/>
    </g>
    <g id="text_22">
     <!-- Node split -->
     <g transform="translate(552.56 72.834687)scale(0.1 -0.1)">
      <use xlink:href="#DejaVuSans-4e"/>
      <use xlink:href="#DejaVuSans-6f" x="74.804688"/>
      <use xlink:href="#DejaVuSans-64" x="135.986328"/>
      <use xlink:href="#DejaVuSans-65" x="199.462891"/>
      <use xlink:href="#DejaVuSans-20" x="260.986328"/>
      <use xlink:href="#DejaVuSans-73" x="292.773438"/>
      <use xlink:href="#DejaVuSans-70" x="344.873047"/>
      <use xlink:href="#DejaVuSans-6c" x="408.349609"/>
      <use xlink:href="#DejaVuSans-69" x="436.132812"/>
      <use xlink:href="#DejaVuSans-74" x="463.916016"/>
     </g>
    </g>
    <g id="line2d_34">
     <path d="M 524.56 84.012812 
L 534.56 84.012812 
L 544.56 84.012812 
" style="fill: none; stroke: #d62728; stroke-width: 1.5; stroke-linecap: square"/>
    </g>
    <g id="text_23">
     <!-- Node split + surprisal -->
     <g transform="translate(552.56 87.512812)scale(0.1 -0.1)">
      <use xlink:href="#DejaVuSans-4e"/>
      <use xlink:href="#DejaVuSans-6f" x="74.804688"/>
      <use xlink:href="#DejaVuSans-64" x="135.986328"/>
      <use xlink:href="#DejaVuSans-65" x="199.462891"/>
      <use xlink:href="#DejaVuSans-20" x="260.986328"/>
      <use xlink:href="#DejaVuSans-73" x="292.773438"/>
      <use xlink:href="#DejaVuSans-70" x="344.873047"/>
      <use xlink:href="#DejaVuSans-6c" x="408.349609"/>
      <use xlink:href="#DejaVuSans-69" x="436.132812"/>
      <use xlink:href="#DejaVuSans-74" x="463.916016"/>
      <use xlink:href="#DejaVuSans-20" x="503.125"/>
      <use xlink:href="#DejaVuSans-2b" x="534.912109"/>
      <use xlink:href="#DejaVuSans-20" x="618.701172"/>
      <use xlink:href="#DejaVuSans-73" x="650.488281"/>
      <use xlink:href="#DejaVuSans-75" x="702.587891"/>
      <use xlink:href="#DejaVuSans-72" x="765.966797"/>
      <use xlink:href="#DejaVuSans-70" x="807.080078"/>
      <use xlink:href="#DejaVuSans-72" x="870.556641"/>
      <use xlink:href="#DejaVuSans-69" x="911.669922"/>
      <use xlink:href="#DejaVuSans-73" x="939.453125"/>
      <use xlink:href="#DejaVuSans-61" x="991.552734"/>
      <use xlink:href="#DejaVuSans-6c" x="1052.832031"/>
     </g>
    </g>
    <g id="line2d_35">
     <path d="M 524.56 98.690937 
L 534.56 98.690937 
L 544.56 98.690937 
" style="fill: none; stroke: #9467bd; stroke-width: 1.5; stroke-linecap: square"/>
    </g>
    <g id="text_24">
     <!-- Node random split -->
     <g transform="translate(552.56 102.190937)scale(0.1 -0.1)">
      <use xlink:href="#DejaVuSans-4e"/>
      <use xlink:href="#DejaVuSans-6f" x="74.804688"/>
      <use xlink:href="#DejaVuSans-64" x="135.986328"/>
      <use xlink:href="#DejaVuSans-65" x="199.462891"/>
      <use xlink:href="#DejaVuSans-20" x="260.986328"/>
      <use xlink:href="#DejaVuSans-72" x="292.773438"/>
      <use xlink:href="#DejaVuSans-61" x="333.886719"/>
      <use xlink:href="#DejaVuSans-6e" x="395.166016"/>
      <use xlink:href="#DejaVuSans-64" x="458.544922"/>
      <use xlink:href="#DejaVuSans-6f" x="522.021484"/>
      <use xlink:href="#DejaVuSans-6d" x="583.203125"/>
      <use xlink:href="#DejaVuSans-20" x="680.615234"/>
      <use xlink:href="#DejaVuSans-73" x="712.402344"/>
      <use xlink:href="#DejaVuSans-70" x="764.501953"/>
      <use xlink:href="#DejaVuSans-6c" x="827.978516"/>
      <use xlink:href="#DejaVuSans-69" x="855.761719"/>
      <use xlink:href="#DejaVuSans-74" x="883.544922"/>
     </g>
    </g>
    <g id="line2d_36">
     <path d="M 524.56 113.369062 
L 534.56 113.369062 
L 544.56 113.369062 
" style="fill: none; stroke: #8c564b; stroke-width: 1.5; stroke-linecap: square"/>
    </g>
    <g id="text_25">
     <!-- Node random split + surprisal -->
     <g transform="translate(552.56 116.869062)scale(0.1 -0.1)">
      <use xlink:href="#DejaVuSans-4e"/>
      <use xlink:href="#DejaVuSans-6f" x="74.804688"/>
      <use xlink:href="#DejaVuSans-64" x="135.986328"/>
      <use xlink:href="#DejaVuSans-65" x="199.462891"/>
      <use xlink:href="#DejaVuSans-20" x="260.986328"/>
      <use xlink:href="#DejaVuSans-72" x="292.773438"/>
      <use xlink:href="#DejaVuSans-61" x="333.886719"/>
      <use xlink:href="#DejaVuSans-6e" x="395.166016"/>
      <use xlink:href="#DejaVuSans-64" x="458.544922"/>
      <use xlink:href="#DejaVuSans-6f" x="522.021484"/>
      <use xlink:href="#DejaVuSans-6d" x="583.203125"/>
      <use xlink:href="#DejaVuSans-20" x="680.615234"/>
      <use xlink:href="#DejaVuSans-73" x="712.402344"/>
      <use xlink:href="#DejaVuSans-70" x="764.501953"/>
      <use xlink:href="#DejaVuSans-6c" x="827.978516"/>
      <use xlink:href="#DejaVuSans-69" x="855.761719"/>
      <use xlink:href="#DejaVuSans-74" x="883.544922"/>
      <use xlink:href="#DejaVuSans-20" x="922.753906"/>
      <use xlink:href="#DejaVuSans-2b" x="954.541016"/>
      <use xlink:href="#DejaVuSans-20" x="1038.330078"/>
      <use xlink:href="#DejaVuSans-73" x="1070.117188"/>
      <use xlink:href="#DejaVuSans-75" x="1122.216797"/>
      <use xlink:href="#DejaVuSans-72" x="1185.595703"/>
      <use xlink:href="#DejaVuSans-70" x="1226.708984"/>
      <use xlink:href="#DejaVuSans-72" x="1290.185547"/>
      <use xlink:href="#DejaVuSans-69" x="1331.298828"/>
      <use xlink:href="#DejaVuSans-73" x="1359.082031"/>
      <use xlink:href="#DejaVuSans-61" x="1411.181641"/>
      <use xlink:href="#DejaVuSans-6c" x="1472.460938"/>
     </g>
    </g>
    <g id="line2d_37">
     <path d="M 524.56 128.047187 
L 534.56 128.047187 
L 544.56 128.047187 
" style="fill: none; stroke: #e377c2; stroke-width: 1.5; stroke-linecap: square"/>
    </g>
    <g id="text_26">
     <!-- Interaction -->
     <g transform="translate(552.56 131.547187)scale(0.1 -0.1)">
      <use xlink:href="#DejaVuSans-49"/>
      <use xlink:href="#DejaVuSans-6e" x="29.492188"/>
      <use xlink:href="#DejaVuSans-74" x="92.871094"/>
      <use xlink:href="#DejaVuSans-65" x="132.080078"/>
      <use xlink:href="#DejaVuSans-72" x="193.603516"/>
      <use xlink:href="#DejaVuSans-61" x="234.716797"/>
      <use xlink:href="#DejaVuSans-63" x="295.996094"/>
      <use xlink:href="#DejaVuSans-74" x="350.976562"/>
      <use xlink:href="#DejaVuSans-69" x="390.185547"/>
      <use xlink:href="#DejaVuSans-6f" x="417.96875"/>
      <use xlink:href="#DejaVuSans-6e" x="479.150391"/>
     </g>
    </g>
    <g id="line2d_38">
     <path d="M 524.56 142.725312 
L 534.56 142.725312 
L 544.56 142.725312 
" style="fill: none; stroke: #7f7f7f; stroke-width: 1.5; stroke-linecap: square"/>
    </g>
    <g id="text_27">
     <!-- Node + surprisal + interaction -->
     <g transform="translate(552.56 146.225312)scale(0.1 -0.1)">
      <use xlink:href="#DejaVuSans-4e"/>
      <use xlink:href="#DejaVuSans-6f" x="74.804688"/>
      <use xlink:href="#DejaVuSans-64" x="135.986328"/>
      <use xlink:href="#DejaVuSans-65" x="199.462891"/>
      <use xlink:href="#DejaVuSans-20" x="260.986328"/>
      <use xlink:href="#DejaVuSans-2b" x="292.773438"/>
      <use xlink:href="#DejaVuSans-20" x="376.5625"/>
      <use xlink:href="#DejaVuSans-73" x="408.349609"/>
      <use xlink:href="#DejaVuSans-75" x="460.449219"/>
      <use xlink:href="#DejaVuSans-72" x="523.828125"/>
      <use xlink:href="#DejaVuSans-70" x="564.941406"/>
      <use xlink:href="#DejaVuSans-72" x="628.417969"/>
      <use xlink:href="#DejaVuSans-69" x="669.53125"/>
      <use xlink:href="#DejaVuSans-73" x="697.314453"/>
      <use xlink:href="#DejaVuSans-61" x="749.414062"/>
      <use xlink:href="#DejaVuSans-6c" x="810.693359"/>
      <use xlink:href="#DejaVuSans-20" x="838.476562"/>
      <use xlink:href="#DejaVuSans-2b" x="870.263672"/>
      <use xlink:href="#DejaVuSans-20" x="954.052734"/>
      <use xlink:href="#DejaVuSans-69" x="985.839844"/>
      <use xlink:href="#DejaVuSans-6e" x="1013.623047"/>
      <use xlink:href="#DejaVuSans-74" x="1077.001953"/>
      <use xlink:href="#DejaVuSans-65" x="1116.210938"/>
      <use xlink:href="#DejaVuSans-72" x="1177.734375"/>
      <use xlink:href="#DejaVuSans-61" x="1218.847656"/>
      <use xlink:href="#DejaVuSans-63" x="1280.126953"/>
      <use xlink:href="#DejaVuSans-74" x="1335.107422"/>
      <use xlink:href="#DejaVuSans-69" x="1374.316406"/>
      <use xlink:href="#DejaVuSans-6f" x="1402.099609"/>
      <use xlink:href="#DejaVuSans-6e" x="1463.28125"/>
     </g>
    </g>
   </g>
  </g>
 </g>
 <defs>
  <clipPath id="p27eb576d52">
   <rect x="47.72" y="26.88" width="217.495" height="147.16"/>
  </clipPath>
  <clipPath id="pa63e187aa9">
   <rect x="298.065" y="26.88" width="217.495" height="147.16"/>
  </clipPath>
 </defs>
</svg>
