<?xml version="1.0" encoding="utf-8" standalone="no"?>
<!DOCTYPE svg PUBLIC "-//W3C//DTD SVG 1.1//EN"
  "http://www.w3.org/Graphics/SVG/1.1/DTD/svg11.dtd">
<svg xmlns:xlink="http://www.w3.org/1999/xlink" width="720pt" height="216pt" viewBox="0 0 720 216" xmlns="http://www.w3.org/2000/svg" version="1.1">
 <metadata>
  <rdf:RDF xmlns:dc="http://purl.org/dc/elements/1.1/" xmlns:cc="http://creativecommons.org/ns#" xmlns:rdf="http://www.w3.org/1999/02/22-rdf-syntax-ns#">
   <cc:Work>
    <dc:type rdf:resource="http://purl.org/dc/dcmitype/StillImage"/>
    <dc:date>2024-01-15T20:15:59.585835</dc:date>
    <dc:format>image/svg+xml</dc:format>
    <dc:creator>
     <cc:Agent>
      <dc:title>Matplotlib v3.5.1, https://matplotlib.org/</dc:title>
     </cc:Agent>
    </dc:creator>
   </cc:Work>
  </rdf:RDF>
 </metadata>
 <defs>
  <style type="text/css">*{stroke-linejoin: round; stroke-linecap: butt}</style>
 </defs>
 <g id="figure_1">
  <g id="patch_1">
   <path d="M 0 216 
L 720 216 
L 720 0 
L 0 0 
z
" style="fill: #ffffff"/>
  </g>
  <g id="axes_1">
   <g id="patch_2">
    <path d="M 47.72 174.04 
L 265.215 174.04 
L 265.215 26.88 
L 47.72 26.88 
z
" style="fill: #ffffff"/>
   </g>
   <g id="PolyCollection_1">
    <path d="M 47.72 33.569091 
L 47.72 33.569092 
L 59.167105 34.611784 
L 70.614211 38.00687 
L 82.061316 42.542067 
L 93.508421 48.656227 
L 104.955526 55.766429 
L 116.402632 62.707747 
L 127.849737 71.156401 
L 139.296842 78.628031 
L 150.743947 86.401171 
L 162.191053 93.432431 
L 173.638158 100.177144 
L 185.085263 107.347661 
L 196.532368 113.280396 
L 207.979474 119.214687 
L 219.426579 124.88323 
L 230.873684 130.282134 
L 242.320789 135.302605 
L 253.767895 140.621558 
L 265.215 145.457481 
L 265.215 132.310772 
L 265.215 132.310772 
L 253.767895 127.561226 
L 242.320789 122.167645 
L 230.873684 116.345841 
L 219.426579 110.81341 
L 207.979474 104.608128 
L 196.532368 98.577579 
L 185.085263 91.947398 
L 173.638158 86.323251 
L 162.191053 79.067626 
L 150.743947 72.688731 
L 139.296842 66.592052 
L 127.849737 60.399792 
L 116.402632 54.243466 
L 104.955526 48.7376 
L 93.508421 43.564438 
L 82.061316 39.503745 
L 70.614211 36.562105 
L 59.167105 34.241388 
L 47.72 33.569091 
z
" clip-path="url(#p82dc67aef0)" style="fill: #1f77b4; fill-opacity: 0.4"/>
   </g>
   <g id="PolyCollection_2">
    <path d="M 47.72 33.569241 
L 47.72 33.569325 
L 59.167105 34.181359 
L 70.614211 35.899711 
L 82.061316 38.26808 
L 93.508421 41.646774 
L 104.955526 45.735626 
L 116.402632 50.22371 
L 127.849737 56.083948 
L 139.296842 61.732374 
L 150.743947 68.118248 
L 162.191053 74.266044 
L 173.638158 80.409993 
L 185.085263 86.962612 
L 196.532368 93.029694 
L 207.979474 98.921892 
L 219.426579 104.865635 
L 230.873684 110.360137 
L 242.320789 116.020542 
L 253.767895 121.511851 
L 265.215 126.685265 
L 265.215 114.221534 
L 265.215 114.221534 
L 253.767895 109.087728 
L 242.320789 103.28991 
L 230.873684 97.725737 
L 219.426579 91.94771 
L 207.979474 86.098374 
L 196.532368 80.346814 
L 185.085263 74.536832 
L 173.638158 69.229782 
L 162.191053 63.175539 
L 150.743947 58.156171 
L 139.296842 53.511423 
L 127.849737 49.169551 
L 116.402632 45.136514 
L 104.955526 41.984773 
L 93.508421 38.801028 
L 82.061316 36.652569 
L 70.614211 35.165221 
L 59.167105 34.02744 
L 47.72 33.569241 
z
" clip-path="url(#p82dc67aef0)" style="fill: #ff7f0e; fill-opacity: 0.4"/>
   </g>
   <g id="PolyCollection_3">
    <path d="M 47.72 33.5691 
L 47.72 33.569104 
L 59.167105 34.367473 
L 70.614211 36.092438 
L 82.061316 38.215836 
L 93.508421 41.300646 
L 104.955526 44.369381 
L 116.402632 47.94375 
L 127.849737 51.97025 
L 139.296842 55.685889 
L 150.743947 59.502501 
L 162.191053 63.357219 
L 173.638158 67.062031 
L 185.085263 70.386796 
L 196.532368 73.781583 
L 207.979474 76.912121 
L 219.426579 80.04949 
L 230.873684 83.052202 
L 242.320789 86.511721 
L 253.767895 89.556709 
L 265.215 92.971501 
L 265.215 82.875361 
L 265.215 82.875361 
L 253.767895 79.899269 
L 242.320789 76.382252 
L 230.873684 73.113025 
L 219.426579 69.73454 
L 207.979474 66.242303 
L 196.532368 63.133653 
L 185.085263 59.927881 
L 173.638158 57.102498 
L 162.191053 53.748813 
L 150.743947 50.709874 
L 139.296842 47.879481 
L 127.849737 45.412022 
L 116.402632 42.650282 
L 104.955526 40.261211 
L 93.508421 37.986472 
L 82.061316 36.392554 
L 70.614211 35.210648 
L 59.167105 34.109279 
L 47.72 33.5691 
z
" clip-path="url(#p82dc67aef0)" style="fill: #2ca02c; fill-opacity: 0.4"/>
   </g>
   <g id="PolyCollection_4">
    <path d="M 47.72 33.569905 
L 47.72 33.570341 
L 59.167105 34.153059 
L 70.614211 35.373973 
L 82.061316 36.90144 
L 93.508421 39.187292 
L 104.955526 41.540713 
L 116.402632 44.481052 
L 127.849737 47.966481 
L 139.296842 51.47908 
L 150.743947 55.196943 
L 162.191053 58.988217 
L 173.638158 62.789654 
L 185.085263 66.255689 
L 196.532368 69.845363 
L 207.979474 73.147624 
L 219.426579 76.46179 
L 230.873684 79.734409 
L 242.320789 83.378906 
L 253.767895 86.667597 
L 265.215 90.263358 
L 265.215 80.48062 
L 265.215 80.48062 
L 253.767895 77.383532 
L 242.320789 73.75911 
L 230.873684 70.309089 
L 219.426579 66.831266 
L 207.979474 63.28025 
L 196.532368 60.148225 
L 185.085263 56.872485 
L 173.638158 53.942011 
L 162.191053 50.661597 
L 150.743947 47.690415 
L 139.296842 44.965155 
L 127.849737 42.777276 
L 116.402632 40.411195 
L 104.955526 38.583605 
L 93.508421 36.745335 
L 82.061316 35.602997 
L 70.614211 34.780377 
L 59.167105 34.013451 
L 47.72 33.569905 
z
" clip-path="url(#p82dc67aef0)" style="fill: #d62728; fill-opacity: 0.4"/>
   </g>
   <g id="PolyCollection_5">
    <path d="M 47.72 33.5691 
L 47.72 33.569104 
L 59.167105 34.615716 
L 70.614211 38.020476 
L 82.061316 42.566442 
L 93.508421 48.675477 
L 104.955526 55.831581 
L 116.402632 62.604327 
L 127.849737 71.347862 
L 139.296842 78.758983 
L 150.743947 86.500911 
L 162.191053 93.675121 
L 173.638158 100.199598 
L 185.085263 107.722251 
L 196.532368 113.447626 
L 207.979474 120.306467 
L 219.426579 125.320267 
L 230.873684 130.926994 
L 242.320789 134.41019 
L 253.767895 141.330232 
L 265.215 146.160545 
L 265.215 133.069765 
L 265.215 133.069765 
L 253.767895 128.214198 
L 242.320789 122.008823 
L 230.873684 116.6868 
L 219.426579 110.952156 
L 207.979474 105.019458 
L 196.532368 98.671452 
L 185.085263 92.286313 
L 173.638158 86.486157 
L 162.191053 79.15273 
L 150.743947 72.777385 
L 139.296842 66.710381 
L 127.849737 60.285888 
L 116.402632 54.222025 
L 104.955526 48.794446 
L 93.508421 43.585619 
L 82.061316 39.522884 
L 70.614211 36.582307 
L 59.167105 34.244731 
L 47.72 33.5691 
z
" clip-path="url(#p82dc67aef0)" style="fill: #9467bd; fill-opacity: 0.4"/>
   </g>
   <g id="PolyCollection_6">
    <path d="M 47.72 33.5697 
L 47.72 33.570035 
L 59.167105 34.182709 
L 70.614211 35.915678 
L 82.061316 38.28358 
L 93.508421 41.649487 
L 104.955526 45.754328 
L 116.402632 50.217188 
L 127.849737 56.16574 
L 139.296842 61.800681 
L 150.743947 68.174367 
L 162.191053 74.419626 
L 173.638158 80.456518 
L 185.085263 87.140941 
L 196.532368 93.123856 
L 207.979474 99.213743 
L 219.426579 105.135912 
L 230.873684 110.982299 
L 242.320789 115.645406 
L 253.767895 122.141265 
L 265.215 127.380141 
L 265.215 114.768828 
L 265.215 114.768828 
L 253.767895 109.363555 
L 242.320789 103.281753 
L 230.873684 97.90879 
L 219.426579 92.13627 
L 207.979474 86.40283 
L 196.532368 80.528076 
L 185.085263 74.687333 
L 173.638158 69.348174 
L 162.191053 63.228073 
L 150.743947 58.233928 
L 139.296842 53.627469 
L 127.849737 49.082808 
L 116.402632 45.142849 
L 104.955526 42.050047 
L 93.508421 38.806655 
L 82.061316 36.650085 
L 70.614211 35.168644 
L 59.167105 34.030336 
L 47.72 33.5697 
z
" clip-path="url(#p82dc67aef0)" style="fill: #8c564b; fill-opacity: 0.4"/>
   </g>
   <g id="PolyCollection_7">
    <path d="M 47.72 45.700966 
L 47.72 50.453957 
L 59.167105 51.838893 
L 70.614211 56.067151 
L 82.061316 61.992209 
L 93.508421 70.133613 
L 104.955526 78.854415 
L 116.402632 87.674127 
L 127.849737 97.656536 
L 139.296842 106.030234 
L 150.743947 114.700886 
L 162.191053 122.482539 
L 173.638158 129.259451 
L 185.085263 136.122415 
L 196.532368 141.373524 
L 207.979474 146.406031 
L 219.426579 151.126903 
L 230.873684 155.404274 
L 242.320789 159.443468 
L 253.767895 163.42326 
L 265.215 167.350909 
L 265.215 149.948291 
L 265.215 149.948291 
L 253.767895 145.600716 
L 242.320789 140.515559 
L 230.873684 135.104922 
L 219.426579 129.711482 
L 207.979474 123.684479 
L 196.532368 117.883548 
L 185.085263 111.399938 
L 173.638158 105.978954 
L 162.191053 98.330908 
L 150.743947 91.343452 
L 139.296842 84.814856 
L 127.849737 77.786994 
L 116.402632 70.605166 
L 104.955526 64.181301 
L 93.508421 57.898548 
L 82.061316 53.017314 
L 70.614211 49.34716 
L 59.167105 46.649786 
L 47.72 45.700966 
z
" clip-path="url(#p82dc67aef0)" style="fill: #e377c2; fill-opacity: 0.4"/>
   </g>
   <g id="PolyCollection_8">
    <path d="M 47.72 33.569363 
L 47.72 33.569597 
L 59.167105 33.854444 
L 70.614211 34.059867 
L 82.061316 34.643888 
L 93.508421 36.0977 
L 104.955526 38.517983 
L 116.402632 41.986361 
L 127.849737 46.692048 
L 139.296842 52.250334 
L 150.743947 58.601912 
L 162.191053 65.249596 
L 173.638158 71.886439 
L 185.085263 78.432835 
L 196.532368 84.838731 
L 207.979474 90.836928 
L 219.426579 96.919416 
L 230.873684 102.351797 
L 242.320789 107.964058 
L 253.767895 113.288747 
L 265.215 118.393539 
L 265.215 99.308774 
L 265.215 99.308774 
L 253.767895 94.092055 
L 242.320789 88.192814 
L 230.873684 82.745301 
L 219.426579 77.20552 
L 207.979474 71.807177 
L 196.532368 66.43212 
L 185.085263 61.107921 
L 173.638158 56.223479 
L 162.191053 51.00171 
L 150.743947 46.752786 
L 139.296842 43.032674 
L 127.849737 40.105625 
L 116.402632 37.515402 
L 104.955526 35.967744 
L 93.508421 34.735204 
L 82.061316 34.162527 
L 70.614211 33.963851 
L 59.167105 33.801189 
L 47.72 33.569363 
z
" clip-path="url(#p82dc67aef0)" style="fill: #7f7f7f; fill-opacity: 0.4"/>
   </g>
   <g id="matplotlib.axis_1">
    <g id="xtick_1">
     <g id="line2d_1">
      <defs>
       <path id="m6f83705a7f" d="M 0 0 
L 0 3.5 
" style="stroke: #000000; stroke-width: 0.8"/>
      </defs>
      <g>
       <use xlink:href="#m6f83705a7f" x="47.72" y="174.04" style="stroke: #000000; stroke-width: 0.8"/>
      </g>
     </g>
     <g id="text_1">
      <!-- 0.0 -->
      <g transform="translate(39.768438 188.638438)scale(0.1 -0.1)">
       <defs>
        <path id="DejaVuSans-30" d="M 2034 4250 
Q 1547 4250 1301 3770 
Q 1056 3291 1056 2328 
Q 1056 1369 1301 889 
Q 1547 409 2034 409 
Q 2525 409 2770 889 
Q 3016 1369 3016 2328 
Q 3016 3291 2770 3770 
Q 2525 4250 2034 4250 
z
M 2034 4750 
Q 2819 4750 3233 4129 
Q 3647 3509 3647 2328 
Q 3647 1150 3233 529 
Q 2819 -91 2034 -91 
Q 1250 -91 836 529 
Q 422 1150 422 2328 
Q 422 3509 836 4129 
Q 1250 4750 2034 4750 
z
" transform="scale(0.015625)"/>
        <path id="DejaVuSans-2e" d="M 684 794 
L 1344 794 
L 1344 0 
L 684 0 
L 684 794 
z
" transform="scale(0.015625)"/>
       </defs>
       <use xlink:href="#DejaVuSans-30"/>
       <use xlink:href="#DejaVuSans-2e" x="63.623047"/>
       <use xlink:href="#DejaVuSans-30" x="95.410156"/>
      </g>
     </g>
    </g>
    <g id="xtick_2">
     <g id="line2d_2">
      <g>
       <use xlink:href="#m6f83705a7f" x="102.09375" y="174.04" style="stroke: #000000; stroke-width: 0.8"/>
      </g>
     </g>
     <g id="text_2">
      <!-- 0.5 -->
      <g transform="translate(94.142188 188.638438)scale(0.1 -0.1)">
       <defs>
        <path id="DejaVuSans-35" d="M 691 4666 
L 3169 4666 
L 3169 4134 
L 1269 4134 
L 1269 2991 
Q 1406 3038 1543 3061 
Q 1681 3084 1819 3084 
Q 2600 3084 3056 2656 
Q 3513 2228 3513 1497 
Q 3513 744 3044 326 
Q 2575 -91 1722 -91 
Q 1428 -91 1123 -41 
Q 819 9 494 109 
L 494 744 
Q 775 591 1075 516 
Q 1375 441 1709 441 
Q 2250 441 2565 725 
Q 2881 1009 2881 1497 
Q 2881 1984 2565 2268 
Q 2250 2553 1709 2553 
Q 1456 2553 1204 2497 
Q 953 2441 691 2322 
L 691 4666 
z
" transform="scale(0.015625)"/>
       </defs>
       <use xlink:href="#DejaVuSans-30"/>
       <use xlink:href="#DejaVuSans-2e" x="63.623047"/>
       <use xlink:href="#DejaVuSans-35" x="95.410156"/>
      </g>
     </g>
    </g>
    <g id="xtick_3">
     <g id="line2d_3">
      <g>
       <use xlink:href="#m6f83705a7f" x="156.4675" y="174.04" style="stroke: #000000; stroke-width: 0.8"/>
      </g>
     </g>
     <g id="text_3">
      <!-- 1.0 -->
      <g transform="translate(148.515938 188.638438)scale(0.1 -0.1)">
       <defs>
        <path id="DejaVuSans-31" d="M 794 531 
L 1825 531 
L 1825 4091 
L 703 3866 
L 703 4441 
L 1819 4666 
L 2450 4666 
L 2450 531 
L 3481 531 
L 3481 0 
L 794 0 
L 794 531 
z
" transform="scale(0.015625)"/>
       </defs>
       <use xlink:href="#DejaVuSans-31"/>
       <use xlink:href="#DejaVuSans-2e" x="63.623047"/>
       <use xlink:href="#DejaVuSans-30" x="95.410156"/>
      </g>
     </g>
    </g>
    <g id="xtick_4">
     <g id="line2d_4">
      <g>
       <use xlink:href="#m6f83705a7f" x="210.84125" y="174.04" style="stroke: #000000; stroke-width: 0.8"/>
      </g>
     </g>
     <g id="text_4">
      <!-- 1.5 -->
      <g transform="translate(202.889687 188.638438)scale(0.1 -0.1)">
       <use xlink:href="#DejaVuSans-31"/>
       <use xlink:href="#DejaVuSans-2e" x="63.623047"/>
       <use xlink:href="#DejaVuSans-35" x="95.410156"/>
      </g>
     </g>
    </g>
    <g id="xtick_5">
     <g id="line2d_5">
      <g>
       <use xlink:href="#m6f83705a7f" x="265.215" y="174.04" style="stroke: #000000; stroke-width: 0.8"/>
      </g>
     </g>
     <g id="text_5">
      <!-- 2.0 -->
      <g transform="translate(257.263437 188.638438)scale(0.1 -0.1)">
       <defs>
        <path id="DejaVuSans-32" d="M 1228 531 
L 3431 531 
L 3431 0 
L 469 0 
L 469 531 
Q 828 903 1448 1529 
Q 2069 2156 2228 2338 
Q 2531 2678 2651 2914 
Q 2772 3150 2772 3378 
Q 2772 3750 2511 3984 
Q 2250 4219 1831 4219 
Q 1534 4219 1204 4116 
Q 875 4013 500 3803 
L 500 4441 
Q 881 4594 1212 4672 
Q 1544 4750 1819 4750 
Q 2544 4750 2975 4387 
Q 3406 4025 3406 3419 
Q 3406 3131 3298 2873 
Q 3191 2616 2906 2266 
Q 2828 2175 2409 1742 
Q 1991 1309 1228 531 
z
" transform="scale(0.015625)"/>
       </defs>
       <use xlink:href="#DejaVuSans-32"/>
       <use xlink:href="#DejaVuSans-2e" x="63.623047"/>
       <use xlink:href="#DejaVuSans-30" x="95.410156"/>
      </g>
     </g>
    </g>
    <g id="text_6">
     <!-- Influence of surprisal (multiplication) -->
     <g transform="translate(64.320625 202.316563)scale(0.1 -0.1)">
      <defs>
       <path id="DejaVuSans-49" d="M 628 4666 
L 1259 4666 
L 1259 0 
L 628 0 
L 628 4666 
z
" transform="scale(0.015625)"/>
       <path id="DejaVuSans-6e" d="M 3513 2113 
L 3513 0 
L 2938 0 
L 2938 2094 
Q 2938 2591 2744 2837 
Q 2550 3084 2163 3084 
Q 1697 3084 1428 2787 
Q 1159 2491 1159 1978 
L 1159 0 
L 581 0 
L 581 3500 
L 1159 3500 
L 1159 2956 
Q 1366 3272 1645 3428 
Q 1925 3584 2291 3584 
Q 2894 3584 3203 3211 
Q 3513 2838 3513 2113 
z
" transform="scale(0.015625)"/>
       <path id="DejaVuSans-66" d="M 2375 4863 
L 2375 4384 
L 1825 4384 
Q 1516 4384 1395 4259 
Q 1275 4134 1275 3809 
L 1275 3500 
L 2222 3500 
L 2222 3053 
L 1275 3053 
L 1275 0 
L 697 0 
L 697 3053 
L 147 3053 
L 147 3500 
L 697 3500 
L 697 3744 
Q 697 4328 969 4595 
Q 1241 4863 1831 4863 
L 2375 4863 
z
" transform="scale(0.015625)"/>
       <path id="DejaVuSans-6c" d="M 603 4863 
L 1178 4863 
L 1178 0 
L 603 0 
L 603 4863 
z
" transform="scale(0.015625)"/>
       <path id="DejaVuSans-75" d="M 544 1381 
L 544 3500 
L 1119 3500 
L 1119 1403 
Q 1119 906 1312 657 
Q 1506 409 1894 409 
Q 2359 409 2629 706 
Q 2900 1003 2900 1516 
L 2900 3500 
L 3475 3500 
L 3475 0 
L 2900 0 
L 2900 538 
Q 2691 219 2414 64 
Q 2138 -91 1772 -91 
Q 1169 -91 856 284 
Q 544 659 544 1381 
z
M 1991 3584 
L 1991 3584 
z
" transform="scale(0.015625)"/>
       <path id="DejaVuSans-65" d="M 3597 1894 
L 3597 1613 
L 953 1613 
Q 991 1019 1311 708 
Q 1631 397 2203 397 
Q 2534 397 2845 478 
Q 3156 559 3463 722 
L 3463 178 
Q 3153 47 2828 -22 
Q 2503 -91 2169 -91 
Q 1331 -91 842 396 
Q 353 884 353 1716 
Q 353 2575 817 3079 
Q 1281 3584 2069 3584 
Q 2775 3584 3186 3129 
Q 3597 2675 3597 1894 
z
M 3022 2063 
Q 3016 2534 2758 2815 
Q 2500 3097 2075 3097 
Q 1594 3097 1305 2825 
Q 1016 2553 972 2059 
L 3022 2063 
z
" transform="scale(0.015625)"/>
       <path id="DejaVuSans-63" d="M 3122 3366 
L 3122 2828 
Q 2878 2963 2633 3030 
Q 2388 3097 2138 3097 
Q 1578 3097 1268 2742 
Q 959 2388 959 1747 
Q 959 1106 1268 751 
Q 1578 397 2138 397 
Q 2388 397 2633 464 
Q 2878 531 3122 666 
L 3122 134 
Q 2881 22 2623 -34 
Q 2366 -91 2075 -91 
Q 1284 -91 818 406 
Q 353 903 353 1747 
Q 353 2603 823 3093 
Q 1294 3584 2113 3584 
Q 2378 3584 2631 3529 
Q 2884 3475 3122 3366 
z
" transform="scale(0.015625)"/>
       <path id="DejaVuSans-20" transform="scale(0.015625)"/>
       <path id="DejaVuSans-6f" d="M 1959 3097 
Q 1497 3097 1228 2736 
Q 959 2375 959 1747 
Q 959 1119 1226 758 
Q 1494 397 1959 397 
Q 2419 397 2687 759 
Q 2956 1122 2956 1747 
Q 2956 2369 2687 2733 
Q 2419 3097 1959 3097 
z
M 1959 3584 
Q 2709 3584 3137 3096 
Q 3566 2609 3566 1747 
Q 3566 888 3137 398 
Q 2709 -91 1959 -91 
Q 1206 -91 779 398 
Q 353 888 353 1747 
Q 353 2609 779 3096 
Q 1206 3584 1959 3584 
z
" transform="scale(0.015625)"/>
       <path id="DejaVuSans-73" d="M 2834 3397 
L 2834 2853 
Q 2591 2978 2328 3040 
Q 2066 3103 1784 3103 
Q 1356 3103 1142 2972 
Q 928 2841 928 2578 
Q 928 2378 1081 2264 
Q 1234 2150 1697 2047 
L 1894 2003 
Q 2506 1872 2764 1633 
Q 3022 1394 3022 966 
Q 3022 478 2636 193 
Q 2250 -91 1575 -91 
Q 1294 -91 989 -36 
Q 684 19 347 128 
L 347 722 
Q 666 556 975 473 
Q 1284 391 1588 391 
Q 1994 391 2212 530 
Q 2431 669 2431 922 
Q 2431 1156 2273 1281 
Q 2116 1406 1581 1522 
L 1381 1569 
Q 847 1681 609 1914 
Q 372 2147 372 2553 
Q 372 3047 722 3315 
Q 1072 3584 1716 3584 
Q 2034 3584 2315 3537 
Q 2597 3491 2834 3397 
z
" transform="scale(0.015625)"/>
       <path id="DejaVuSans-72" d="M 2631 2963 
Q 2534 3019 2420 3045 
Q 2306 3072 2169 3072 
Q 1681 3072 1420 2755 
Q 1159 2438 1159 1844 
L 1159 0 
L 581 0 
L 581 3500 
L 1159 3500 
L 1159 2956 
Q 1341 3275 1631 3429 
Q 1922 3584 2338 3584 
Q 2397 3584 2469 3576 
Q 2541 3569 2628 3553 
L 2631 2963 
z
" transform="scale(0.015625)"/>
       <path id="DejaVuSans-70" d="M 1159 525 
L 1159 -1331 
L 581 -1331 
L 581 3500 
L 1159 3500 
L 1159 2969 
Q 1341 3281 1617 3432 
Q 1894 3584 2278 3584 
Q 2916 3584 3314 3078 
Q 3713 2572 3713 1747 
Q 3713 922 3314 415 
Q 2916 -91 2278 -91 
Q 1894 -91 1617 61 
Q 1341 213 1159 525 
z
M 3116 1747 
Q 3116 2381 2855 2742 
Q 2594 3103 2138 3103 
Q 1681 3103 1420 2742 
Q 1159 2381 1159 1747 
Q 1159 1113 1420 752 
Q 1681 391 2138 391 
Q 2594 391 2855 752 
Q 3116 1113 3116 1747 
z
" transform="scale(0.015625)"/>
       <path id="DejaVuSans-69" d="M 603 3500 
L 1178 3500 
L 1178 0 
L 603 0 
L 603 3500 
z
M 603 4863 
L 1178 4863 
L 1178 4134 
L 603 4134 
L 603 4863 
z
" transform="scale(0.015625)"/>
       <path id="DejaVuSans-61" d="M 2194 1759 
Q 1497 1759 1228 1600 
Q 959 1441 959 1056 
Q 959 750 1161 570 
Q 1363 391 1709 391 
Q 2188 391 2477 730 
Q 2766 1069 2766 1631 
L 2766 1759 
L 2194 1759 
z
M 3341 1997 
L 3341 0 
L 2766 0 
L 2766 531 
Q 2569 213 2275 61 
Q 1981 -91 1556 -91 
Q 1019 -91 701 211 
Q 384 513 384 1019 
Q 384 1609 779 1909 
Q 1175 2209 1959 2209 
L 2766 2209 
L 2766 2266 
Q 2766 2663 2505 2880 
Q 2244 3097 1772 3097 
Q 1472 3097 1187 3025 
Q 903 2953 641 2809 
L 641 3341 
Q 956 3463 1253 3523 
Q 1550 3584 1831 3584 
Q 2591 3584 2966 3190 
Q 3341 2797 3341 1997 
z
" transform="scale(0.015625)"/>
       <path id="DejaVuSans-28" d="M 1984 4856 
Q 1566 4138 1362 3434 
Q 1159 2731 1159 2009 
Q 1159 1288 1364 580 
Q 1569 -128 1984 -844 
L 1484 -844 
Q 1016 -109 783 600 
Q 550 1309 550 2009 
Q 550 2706 781 3412 
Q 1013 4119 1484 4856 
L 1984 4856 
z
" transform="scale(0.015625)"/>
       <path id="DejaVuSans-6d" d="M 3328 2828 
Q 3544 3216 3844 3400 
Q 4144 3584 4550 3584 
Q 5097 3584 5394 3201 
Q 5691 2819 5691 2113 
L 5691 0 
L 5113 0 
L 5113 2094 
Q 5113 2597 4934 2840 
Q 4756 3084 4391 3084 
Q 3944 3084 3684 2787 
Q 3425 2491 3425 1978 
L 3425 0 
L 2847 0 
L 2847 2094 
Q 2847 2600 2669 2842 
Q 2491 3084 2119 3084 
Q 1678 3084 1418 2786 
Q 1159 2488 1159 1978 
L 1159 0 
L 581 0 
L 581 3500 
L 1159 3500 
L 1159 2956 
Q 1356 3278 1631 3431 
Q 1906 3584 2284 3584 
Q 2666 3584 2933 3390 
Q 3200 3197 3328 2828 
z
" transform="scale(0.015625)"/>
       <path id="DejaVuSans-74" d="M 1172 4494 
L 1172 3500 
L 2356 3500 
L 2356 3053 
L 1172 3053 
L 1172 1153 
Q 1172 725 1289 603 
Q 1406 481 1766 481 
L 2356 481 
L 2356 0 
L 1766 0 
Q 1100 0 847 248 
Q 594 497 594 1153 
L 594 3053 
L 172 3053 
L 172 3500 
L 594 3500 
L 594 4494 
L 1172 4494 
z
" transform="scale(0.015625)"/>
       <path id="DejaVuSans-29" d="M 513 4856 
L 1013 4856 
Q 1481 4119 1714 3412 
Q 1947 2706 1947 2009 
Q 1947 1309 1714 600 
Q 1481 -109 1013 -844 
L 513 -844 
Q 928 -128 1133 580 
Q 1338 1288 1338 2009 
Q 1338 2731 1133 3434 
Q 928 4138 513 4856 
z
" transform="scale(0.015625)"/>
      </defs>
      <use xlink:href="#DejaVuSans-49"/>
      <use xlink:href="#DejaVuSans-6e" x="29.492188"/>
      <use xlink:href="#DejaVuSans-66" x="92.871094"/>
      <use xlink:href="#DejaVuSans-6c" x="128.076172"/>
      <use xlink:href="#DejaVuSans-75" x="155.859375"/>
      <use xlink:href="#DejaVuSans-65" x="219.238281"/>
      <use xlink:href="#DejaVuSans-6e" x="280.761719"/>
      <use xlink:href="#DejaVuSans-63" x="344.140625"/>
      <use xlink:href="#DejaVuSans-65" x="399.121094"/>
      <use xlink:href="#DejaVuSans-20" x="460.644531"/>
      <use xlink:href="#DejaVuSans-6f" x="492.431641"/>
      <use xlink:href="#DejaVuSans-66" x="553.613281"/>
      <use xlink:href="#DejaVuSans-20" x="588.818359"/>
      <use xlink:href="#DejaVuSans-73" x="620.605469"/>
      <use xlink:href="#DejaVuSans-75" x="672.705078"/>
      <use xlink:href="#DejaVuSans-72" x="736.083984"/>
      <use xlink:href="#DejaVuSans-70" x="777.197266"/>
      <use xlink:href="#DejaVuSans-72" x="840.673828"/>
      <use xlink:href="#DejaVuSans-69" x="881.787109"/>
      <use xlink:href="#DejaVuSans-73" x="909.570312"/>
      <use xlink:href="#DejaVuSans-61" x="961.669922"/>
      <use xlink:href="#DejaVuSans-6c" x="1022.949219"/>
      <use xlink:href="#DejaVuSans-20" x="1050.732422"/>
      <use xlink:href="#DejaVuSans-28" x="1082.519531"/>
      <use xlink:href="#DejaVuSans-6d" x="1121.533203"/>
      <use xlink:href="#DejaVuSans-75" x="1218.945312"/>
      <use xlink:href="#DejaVuSans-6c" x="1282.324219"/>
      <use xlink:href="#DejaVuSans-74" x="1310.107422"/>
      <use xlink:href="#DejaVuSans-69" x="1349.316406"/>
      <use xlink:href="#DejaVuSans-70" x="1377.099609"/>
      <use xlink:href="#DejaVuSans-6c" x="1440.576172"/>
      <use xlink:href="#DejaVuSans-69" x="1468.359375"/>
      <use xlink:href="#DejaVuSans-63" x="1496.142578"/>
      <use xlink:href="#DejaVuSans-61" x="1551.123047"/>
      <use xlink:href="#DejaVuSans-74" x="1612.402344"/>
      <use xlink:href="#DejaVuSans-69" x="1651.611328"/>
      <use xlink:href="#DejaVuSans-6f" x="1679.394531"/>
      <use xlink:href="#DejaVuSans-6e" x="1740.576172"/>
      <use xlink:href="#DejaVuSans-29" x="1803.955078"/>
     </g>
    </g>
   </g>
   <g id="matplotlib.axis_2">
    <g id="ytick_1">
     <g id="line2d_6">
      <defs>
       <path id="mb3d82150c9" d="M 0 0 
L -3.5 0 
" style="stroke: #000000; stroke-width: 0.8"/>
      </defs>
      <g>
       <use xlink:href="#mb3d82150c9" x="47.72" y="145.577305" style="stroke: #000000; stroke-width: 0.8"/>
      </g>
     </g>
     <g id="text_7">
      <!-- 0.4 -->
      <g transform="translate(24.816875 149.376524)scale(0.1 -0.1)">
       <defs>
        <path id="DejaVuSans-34" d="M 2419 4116 
L 825 1625 
L 2419 1625 
L 2419 4116 
z
M 2253 4666 
L 3047 4666 
L 3047 1625 
L 3713 1625 
L 3713 1100 
L 3047 1100 
L 3047 0 
L 2419 0 
L 2419 1100 
L 313 1100 
L 313 1709 
L 2253 4666 
z
" transform="scale(0.015625)"/>
       </defs>
       <use xlink:href="#DejaVuSans-30"/>
       <use xlink:href="#DejaVuSans-2e" x="63.623047"/>
       <use xlink:href="#DejaVuSans-34" x="95.410156"/>
      </g>
     </g>
    </g>
    <g id="ytick_2">
     <g id="line2d_7">
      <g>
       <use xlink:href="#mb3d82150c9" x="47.72" y="108.241233" style="stroke: #000000; stroke-width: 0.8"/>
      </g>
     </g>
     <g id="text_8">
      <!-- 0.6 -->
      <g transform="translate(24.816875 112.040452)scale(0.1 -0.1)">
       <defs>
        <path id="DejaVuSans-36" d="M 2113 2584 
Q 1688 2584 1439 2293 
Q 1191 2003 1191 1497 
Q 1191 994 1439 701 
Q 1688 409 2113 409 
Q 2538 409 2786 701 
Q 3034 994 3034 1497 
Q 3034 2003 2786 2293 
Q 2538 2584 2113 2584 
z
M 3366 4563 
L 3366 3988 
Q 3128 4100 2886 4159 
Q 2644 4219 2406 4219 
Q 1781 4219 1451 3797 
Q 1122 3375 1075 2522 
Q 1259 2794 1537 2939 
Q 1816 3084 2150 3084 
Q 2853 3084 3261 2657 
Q 3669 2231 3669 1497 
Q 3669 778 3244 343 
Q 2819 -91 2113 -91 
Q 1303 -91 875 529 
Q 447 1150 447 2328 
Q 447 3434 972 4092 
Q 1497 4750 2381 4750 
Q 2619 4750 2861 4703 
Q 3103 4656 3366 4563 
z
" transform="scale(0.015625)"/>
       </defs>
       <use xlink:href="#DejaVuSans-30"/>
       <use xlink:href="#DejaVuSans-2e" x="63.623047"/>
       <use xlink:href="#DejaVuSans-36" x="95.410156"/>
      </g>
     </g>
    </g>
    <g id="ytick_3">
     <g id="line2d_8">
      <g>
       <use xlink:href="#mb3d82150c9" x="47.72" y="70.90516" style="stroke: #000000; stroke-width: 0.8"/>
      </g>
     </g>
     <g id="text_9">
      <!-- 0.8 -->
      <g transform="translate(24.816875 74.704379)scale(0.1 -0.1)">
       <defs>
        <path id="DejaVuSans-38" d="M 2034 2216 
Q 1584 2216 1326 1975 
Q 1069 1734 1069 1313 
Q 1069 891 1326 650 
Q 1584 409 2034 409 
Q 2484 409 2743 651 
Q 3003 894 3003 1313 
Q 3003 1734 2745 1975 
Q 2488 2216 2034 2216 
z
M 1403 2484 
Q 997 2584 770 2862 
Q 544 3141 544 3541 
Q 544 4100 942 4425 
Q 1341 4750 2034 4750 
Q 2731 4750 3128 4425 
Q 3525 4100 3525 3541 
Q 3525 3141 3298 2862 
Q 3072 2584 2669 2484 
Q 3125 2378 3379 2068 
Q 3634 1759 3634 1313 
Q 3634 634 3220 271 
Q 2806 -91 2034 -91 
Q 1263 -91 848 271 
Q 434 634 434 1313 
Q 434 1759 690 2068 
Q 947 2378 1403 2484 
z
M 1172 3481 
Q 1172 3119 1398 2916 
Q 1625 2713 2034 2713 
Q 2441 2713 2670 2916 
Q 2900 3119 2900 3481 
Q 2900 3844 2670 4047 
Q 2441 4250 2034 4250 
Q 1625 4250 1398 4047 
Q 1172 3844 1172 3481 
z
" transform="scale(0.015625)"/>
       </defs>
       <use xlink:href="#DejaVuSans-30"/>
       <use xlink:href="#DejaVuSans-2e" x="63.623047"/>
       <use xlink:href="#DejaVuSans-38" x="95.410156"/>
      </g>
     </g>
    </g>
    <g id="ytick_4">
     <g id="line2d_9">
      <g>
       <use xlink:href="#mb3d82150c9" x="47.72" y="33.569088" style="stroke: #000000; stroke-width: 0.8"/>
      </g>
     </g>
     <g id="text_10">
      <!-- 1.0 -->
      <g transform="translate(24.816875 37.368307)scale(0.1 -0.1)">
       <use xlink:href="#DejaVuSans-31"/>
       <use xlink:href="#DejaVuSans-2e" x="63.623047"/>
       <use xlink:href="#DejaVuSans-30" x="95.410156"/>
      </g>
     </g>
    </g>
    <g id="text_11">
     <!-- R-value -->
     <g transform="translate(18.737188 119.064687)rotate(-90)scale(0.1 -0.1)">
      <defs>
       <path id="DejaVuSans-52" d="M 2841 2188 
Q 3044 2119 3236 1894 
Q 3428 1669 3622 1275 
L 4263 0 
L 3584 0 
L 2988 1197 
Q 2756 1666 2539 1819 
Q 2322 1972 1947 1972 
L 1259 1972 
L 1259 0 
L 628 0 
L 628 4666 
L 2053 4666 
Q 2853 4666 3247 4331 
Q 3641 3997 3641 3322 
Q 3641 2881 3436 2590 
Q 3231 2300 2841 2188 
z
M 1259 4147 
L 1259 2491 
L 2053 2491 
Q 2509 2491 2742 2702 
Q 2975 2913 2975 3322 
Q 2975 3731 2742 3939 
Q 2509 4147 2053 4147 
L 1259 4147 
z
" transform="scale(0.015625)"/>
       <path id="DejaVuSans-2d" d="M 313 2009 
L 1997 2009 
L 1997 1497 
L 313 1497 
L 313 2009 
z
" transform="scale(0.015625)"/>
       <path id="DejaVuSans-76" d="M 191 3500 
L 800 3500 
L 1894 563 
L 2988 3500 
L 3597 3500 
L 2284 0 
L 1503 0 
L 191 3500 
z
" transform="scale(0.015625)"/>
      </defs>
      <use xlink:href="#DejaVuSans-52"/>
      <use xlink:href="#DejaVuSans-2d" x="65.482422"/>
      <use xlink:href="#DejaVuSans-76" x="98.941406"/>
      <use xlink:href="#DejaVuSans-61" x="158.121094"/>
      <use xlink:href="#DejaVuSans-6c" x="219.400391"/>
      <use xlink:href="#DejaVuSans-75" x="247.183594"/>
      <use xlink:href="#DejaVuSans-65" x="310.5625"/>
     </g>
    </g>
   </g>
   <g id="line2d_10">
    <path d="M 47.72 33.569091 
L 59.167105 34.426586 
L 70.614211 37.284488 
L 82.061316 41.022906 
L 93.508421 46.110332 
L 104.955526 52.252014 
L 116.402632 58.475607 
L 127.849737 65.778096 
L 139.296842 72.610042 
L 150.743947 79.544951 
L 162.191053 86.250029 
L 173.638158 93.250198 
L 185.085263 99.647529 
L 196.532368 105.928988 
L 207.979474 111.911408 
L 219.426579 117.84832 
L 230.873684 123.313987 
L 242.320789 128.735125 
L 253.767895 134.091392 
L 265.215 138.884126 
" clip-path="url(#p82dc67aef0)" style="fill: none; stroke: #1f77b4; stroke-width: 1.5; stroke-linecap: square"/>
   </g>
   <g id="line2d_11">
    <path d="M 47.72 33.569283 
L 59.167105 34.1044 
L 70.614211 35.532466 
L 82.061316 37.460325 
L 93.508421 40.223901 
L 104.955526 43.860199 
L 116.402632 47.680112 
L 127.849737 52.62675 
L 139.296842 57.621899 
L 150.743947 63.137209 
L 162.191053 68.720792 
L 173.638158 74.819888 
L 185.085263 80.749722 
L 196.532368 86.688254 
L 207.979474 92.510133 
L 219.426579 98.406673 
L 230.873684 104.042937 
L 242.320789 109.655226 
L 253.767895 115.299789 
L 265.215 120.453399 
" clip-path="url(#p82dc67aef0)" style="fill: none; stroke: #ff7f0e; stroke-width: 1.5; stroke-linecap: square"/>
   </g>
   <g id="line2d_12">
    <path d="M 47.72 33.569102 
L 59.167105 34.238376 
L 70.614211 35.651543 
L 82.061316 37.304195 
L 93.508421 39.643559 
L 104.955526 42.315296 
L 116.402632 45.297016 
L 127.849737 48.691136 
L 139.296842 51.782685 
L 150.743947 55.106187 
L 162.191053 58.553016 
L 173.638158 62.082265 
L 185.085263 65.157339 
L 196.532368 68.457618 
L 207.979474 71.577212 
L 219.426579 74.892015 
L 230.873684 78.082614 
L 242.320789 81.446986 
L 253.767895 84.727989 
L 265.215 87.923431 
" clip-path="url(#p82dc67aef0)" style="fill: none; stroke: #2ca02c; stroke-width: 1.5; stroke-linecap: square"/>
   </g>
   <g id="line2d_13">
    <path d="M 47.72 33.570123 
L 59.167105 34.083255 
L 70.614211 35.077175 
L 82.061316 36.252219 
L 93.508421 37.966313 
L 104.955526 40.062159 
L 116.402632 42.446123 
L 127.849737 45.371879 
L 139.296842 48.222118 
L 150.743947 51.443679 
L 162.191053 54.824907 
L 173.638158 58.365833 
L 185.085263 61.564087 
L 196.532368 64.996794 
L 207.979474 68.213937 
L 219.426579 71.646528 
L 230.873684 75.021749 
L 242.320789 78.569008 
L 253.767895 82.025565 
L 265.215 85.371989 
" clip-path="url(#p82dc67aef0)" style="fill: none; stroke: #d62728; stroke-width: 1.5; stroke-linecap: square"/>
   </g>
   <g id="line2d_14">
    <path d="M 47.72 33.569102 
L 59.167105 34.430223 
L 70.614211 37.301391 
L 82.061316 41.044663 
L 93.508421 46.130548 
L 104.955526 52.313014 
L 116.402632 58.413176 
L 127.849737 65.816875 
L 139.296842 72.734682 
L 150.743947 79.639148 
L 162.191053 86.413925 
L 173.638158 93.342877 
L 185.085263 100.004282 
L 196.532368 106.059539 
L 207.979474 112.662962 
L 219.426579 118.136211 
L 230.873684 123.806897 
L 242.320789 128.209507 
L 253.767895 134.772215 
L 265.215 139.615155 
" clip-path="url(#p82dc67aef0)" style="fill: none; stroke: #9467bd; stroke-width: 1.5; stroke-linecap: square"/>
   </g>
   <g id="line2d_15">
    <path d="M 47.72 33.569867 
L 59.167105 34.106523 
L 70.614211 35.542161 
L 82.061316 37.466832 
L 93.508421 40.228071 
L 104.955526 43.902187 
L 116.402632 47.680019 
L 127.849737 52.624274 
L 139.296842 57.714075 
L 150.743947 63.204147 
L 162.191053 68.82385 
L 173.638158 74.902346 
L 185.085263 80.914137 
L 196.532368 86.825966 
L 207.979474 92.808287 
L 219.426579 98.636091 
L 230.873684 104.445545 
L 242.320789 109.46358 
L 253.767895 115.75241 
L 265.215 121.074484 
" clip-path="url(#p82dc67aef0)" style="fill: none; stroke: #8c564b; stroke-width: 1.5; stroke-linecap: square"/>
   </g>
   <g id="line2d_16">
    <path d="M 47.72 48.077462 
L 59.167105 49.24434 
L 70.614211 52.707156 
L 82.061316 57.504761 
L 93.508421 64.01608 
L 104.955526 71.517858 
L 116.402632 79.139647 
L 127.849737 87.721765 
L 139.296842 95.422545 
L 150.743947 103.022169 
L 162.191053 110.406723 
L 173.638158 117.619202 
L 185.085263 123.761176 
L 196.532368 129.628536 
L 207.979474 135.045255 
L 219.426579 140.419193 
L 230.873684 145.254598 
L 242.320789 149.979514 
L 253.767895 154.511988 
L 265.215 158.6496 
" clip-path="url(#p82dc67aef0)" style="fill: none; stroke: #e377c2; stroke-width: 1.5; stroke-linecap: square"/>
   </g>
   <g id="line2d_17">
    <path d="M 47.72 33.56948 
L 59.167105 33.827817 
L 70.614211 34.011859 
L 82.061316 34.403207 
L 93.508421 35.416452 
L 104.955526 37.242864 
L 116.402632 39.750881 
L 127.849737 43.398837 
L 139.296842 47.641504 
L 150.743947 52.677349 
L 162.191053 58.125653 
L 173.638158 64.054959 
L 185.085263 69.770378 
L 196.532368 75.635425 
L 207.979474 81.322052 
L 219.426579 87.062468 
L 230.873684 92.548549 
L 242.320789 98.078436 
L 253.767895 103.690401 
L 265.215 108.851156 
" clip-path="url(#p82dc67aef0)" style="fill: none; stroke: #7f7f7f; stroke-width: 1.5; stroke-linecap: square"/>
   </g>
   <g id="patch_3">
    <path d="M 47.72 174.04 
L 47.72 26.88 
" style="fill: none; stroke: #000000; stroke-width: 0.8; stroke-linejoin: miter; stroke-linecap: square"/>
   </g>
   <g id="patch_4">
    <path d="M 47.72 174.04 
L 265.215 174.04 
" style="fill: none; stroke: #000000; stroke-width: 0.8; stroke-linejoin: miter; stroke-linecap: square"/>
   </g>
   <g id="text_12">
    <!-- Node * surprisal -->
    <g transform="translate(108.18625 20.88)scale(0.12 -0.12)">
     <defs>
      <path id="DejaVuSans-4e" d="M 628 4666 
L 1478 4666 
L 3547 763 
L 3547 4666 
L 4159 4666 
L 4159 0 
L 3309 0 
L 1241 3903 
L 1241 0 
L 628 0 
L 628 4666 
z
" transform="scale(0.015625)"/>
      <path id="DejaVuSans-64" d="M 2906 2969 
L 2906 4863 
L 3481 4863 
L 3481 0 
L 2906 0 
L 2906 525 
Q 2725 213 2448 61 
Q 2172 -91 1784 -91 
Q 1150 -91 751 415 
Q 353 922 353 1747 
Q 353 2572 751 3078 
Q 1150 3584 1784 3584 
Q 2172 3584 2448 3432 
Q 2725 3281 2906 2969 
z
M 947 1747 
Q 947 1113 1208 752 
Q 1469 391 1925 391 
Q 2381 391 2643 752 
Q 2906 1113 2906 1747 
Q 2906 2381 2643 2742 
Q 2381 3103 1925 3103 
Q 1469 3103 1208 2742 
Q 947 2381 947 1747 
z
" transform="scale(0.015625)"/>
      <path id="DejaVuSans-2a" d="M 3009 3897 
L 1888 3291 
L 3009 2681 
L 2828 2375 
L 1778 3009 
L 1778 1831 
L 1422 1831 
L 1422 3009 
L 372 2375 
L 191 2681 
L 1313 3291 
L 191 3897 
L 372 4206 
L 1422 3572 
L 1422 4750 
L 1778 4750 
L 1778 3572 
L 2828 4206 
L 3009 3897 
z
" transform="scale(0.015625)"/>
     </defs>
     <use xlink:href="#DejaVuSans-4e"/>
     <use xlink:href="#DejaVuSans-6f" x="74.804688"/>
     <use xlink:href="#DejaVuSans-64" x="135.986328"/>
     <use xlink:href="#DejaVuSans-65" x="199.462891"/>
     <use xlink:href="#DejaVuSans-20" x="260.986328"/>
     <use xlink:href="#DejaVuSans-2a" x="292.773438"/>
     <use xlink:href="#DejaVuSans-20" x="342.773438"/>
     <use xlink:href="#DejaVuSans-73" x="374.560547"/>
     <use xlink:href="#DejaVuSans-75" x="426.660156"/>
     <use xlink:href="#DejaVuSans-72" x="490.039062"/>
     <use xlink:href="#DejaVuSans-70" x="531.152344"/>
     <use xlink:href="#DejaVuSans-72" x="594.628906"/>
     <use xlink:href="#DejaVuSans-69" x="635.742188"/>
     <use xlink:href="#DejaVuSans-73" x="663.525391"/>
     <use xlink:href="#DejaVuSans-61" x="715.625"/>
     <use xlink:href="#DejaVuSans-6c" x="776.904297"/>
    </g>
   </g>
  </g>
  <g id="axes_2">
   <g id="patch_5">
    <path d="M 298.065 174.04 
L 515.56 174.04 
L 515.56 26.88 
L 298.065 26.88 
z
" style="fill: #ffffff"/>
   </g>
   <g id="PolyCollection_9">
    <path d="M 298.065 33.569091 
L 298.065 33.569092 
L 309.512105 34.594105 
L 320.959211 37.659278 
L 332.406316 41.979376 
L 343.853421 47.955673 
L 355.300526 54.575846 
L 366.747632 62.388969 
L 378.194737 70.096944 
L 389.641842 78.090082 
L 401.088947 85.825498 
L 412.536053 94.219235 
L 423.983158 101.694653 
L 435.430263 108.594226 
L 446.877368 115.694416 
L 458.324474 122.496046 
L 469.771579 128.339317 
L 481.218684 135.371824 
L 492.665789 141.007685 
L 504.112895 146.037921 
L 515.56 151.855322 
L 515.56 141.701819 
L 515.56 141.701819 
L 504.112895 137.004277 
L 492.665789 130.776835 
L 481.218684 124.876556 
L 469.771579 118.711152 
L 458.324474 112.134404 
L 446.877368 105.371651 
L 435.430263 98.909385 
L 423.983158 91.547132 
L 412.536053 83.51547 
L 401.088947 76.45396 
L 389.641842 69.09579 
L 378.194737 62.333273 
L 366.747632 55.161382 
L 355.300526 49.577958 
L 343.853421 44.148253 
L 332.406316 39.900428 
L 320.959211 36.591056 
L 309.512105 34.35171 
L 298.065 33.569091 
z
" clip-path="url(#p45df9d20b2)" style="fill: #1f77b4; fill-opacity: 0.4"/>
   </g>
   <g id="PolyCollection_10">
    <path d="M 298.065 33.569241 
L 298.065 33.569325 
L 309.512105 34.598691 
L 320.959211 37.675256 
L 332.406316 42.015632 
L 343.853421 48.015761 
L 355.300526 54.670165 
L 366.747632 62.513404 
L 378.194737 70.248134 
L 389.641842 78.284478 
L 401.088947 86.090596 
L 412.536053 94.530345 
L 423.983158 102.011106 
L 435.430263 108.976853 
L 446.877368 116.131901 
L 458.324474 122.981743 
L 469.771579 128.889238 
L 481.218684 136.003621 
L 492.665789 141.721396 
L 504.112895 146.897479 
L 515.56 152.626553 
L 515.56 142.274101 
L 515.56 142.274101 
L 504.112895 137.469035 
L 492.665789 131.258093 
L 481.218684 125.324434 
L 469.771579 119.046848 
L 458.324474 112.506788 
L 446.877368 105.653162 
L 435.430263 99.144041 
L 423.983158 91.740119 
L 412.536053 83.660519 
L 401.088947 76.551206 
L 389.641842 69.157863 
L 378.194737 62.371923 
L 366.747632 55.19622 
L 355.300526 49.604838 
L 343.853421 44.173942 
L 332.406316 39.910525 
L 320.959211 36.59389 
L 309.512105 34.351698 
L 298.065 33.569241 
z
" clip-path="url(#p45df9d20b2)" style="fill: #ff7f0e; fill-opacity: 0.4"/>
   </g>
   <g id="PolyCollection_11">
    <path d="M 298.065 33.5691 
L 298.065 33.569104 
L 309.512105 34.595247 
L 320.959211 37.675715 
L 332.406316 41.99374 
L 343.853421 47.990432 
L 355.300526 54.652496 
L 366.747632 62.51911 
L 378.194737 70.27193 
L 389.641842 78.312854 
L 401.088947 86.148463 
L 412.536053 94.582167 
L 423.983158 102.117713 
L 435.430263 109.108785 
L 446.877368 116.295512 
L 458.324474 123.093538 
L 469.771579 128.951119 
L 481.218684 136.041821 
L 492.665789 141.654771 
L 504.112895 146.770673 
L 515.56 152.417314 
L 515.56 142.457187 
L 515.56 142.457187 
L 504.112895 137.552295 
L 492.665789 131.291304 
L 481.218684 125.253824 
L 469.771579 118.996581 
L 458.324474 112.391368 
L 446.877368 105.528305 
L 435.430263 99.052468 
L 423.983158 91.681013 
L 412.536053 83.635362 
L 401.088947 76.467475 
L 389.641842 69.149901 
L 378.194737 62.355738 
L 366.747632 55.173179 
L 355.300526 49.577482 
L 343.853421 44.160926 
L 332.406316 39.899827 
L 320.959211 36.598668 
L 309.512105 34.351316 
L 298.065 33.5691 
z
" clip-path="url(#p45df9d20b2)" style="fill: #2ca02c; fill-opacity: 0.4"/>
   </g>
   <g id="PolyCollection_12">
    <path d="M 298.065 33.569905 
L 298.065 33.570341 
L 309.512105 34.599599 
L 320.959211 37.679447 
L 332.406316 42.00273 
L 343.853421 48.008449 
L 355.300526 54.673802 
L 366.747632 62.565849 
L 378.194737 70.313696 
L 389.641842 78.368263 
L 401.088947 86.237637 
L 412.536053 94.701166 
L 423.983158 102.238582 
L 435.430263 109.277614 
L 446.877368 116.509179 
L 458.324474 123.370313 
L 469.771579 129.279043 
L 481.218684 136.424781 
L 492.665789 142.032473 
L 504.112895 147.218567 
L 515.56 152.811472 
L 515.56 142.793228 
L 515.56 142.793228 
L 504.112895 137.854157 
L 492.665789 131.641904 
L 481.218684 125.565532 
L 469.771579 119.268706 
L 458.324474 112.690527 
L 446.877368 105.763354 
L 435.430263 99.239389 
L 423.983158 91.802018 
L 412.536053 83.719741 
L 401.088947 76.54756 
L 389.641842 69.185538 
L 378.194737 62.386381 
L 366.747632 55.205126 
L 355.300526 49.615105 
L 343.853421 44.188927 
L 332.406316 39.916226 
L 320.959211 36.602926 
L 309.512105 34.351714 
L 298.065 33.569905 
z
" clip-path="url(#p45df9d20b2)" style="fill: #d62728; fill-opacity: 0.4"/>
   </g>
   <g id="PolyCollection_13">
    <path d="M 298.065 33.5691 
L 298.065 33.569104 
L 309.512105 34.595702 
L 320.959211 37.653077 
L 332.406316 41.981726 
L 343.853421 47.971912 
L 355.300526 54.646649 
L 366.747632 62.337897 
L 378.194737 70.135846 
L 389.641842 78.295239 
L 401.088947 86.004169 
L 412.536053 94.364891 
L 423.983158 101.723663 
L 435.430263 108.131863 
L 446.877368 115.646534 
L 458.324474 122.604458 
L 469.771579 129.232807 
L 481.218684 135.186465 
L 492.665789 141.286648 
L 504.112895 146.814573 
L 515.56 152.3044 
L 515.56 142.03482 
L 515.56 142.03482 
L 504.112895 137.396807 
L 492.665789 131.088392 
L 481.218684 125.600661 
L 469.771579 118.808916 
L 458.324474 111.966385 
L 446.877368 105.753012 
L 435.430263 99.129158 
L 423.983158 91.609862 
L 412.536053 83.72836 
L 401.088947 76.501975 
L 389.641842 69.492079 
L 378.194737 62.267389 
L 366.747632 55.186482 
L 355.300526 49.636996 
L 343.853421 44.152805 
L 332.406316 39.959686 
L 320.959211 36.590666 
L 309.512105 34.355757 
L 298.065 33.5691 
z
" clip-path="url(#p45df9d20b2)" style="fill: #9467bd; fill-opacity: 0.4"/>
   </g>
   <g id="PolyCollection_14">
    <path d="M 298.065 33.569699 
L 298.065 33.570033 
L 309.512105 34.600693 
L 320.959211 37.669481 
L 332.406316 42.017968 
L 343.853421 48.031711 
L 355.300526 54.741005 
L 366.747632 62.463201 
L 378.194737 70.289735 
L 389.641842 78.493495 
L 401.088947 86.263522 
L 412.536053 94.681295 
L 423.983158 102.048996 
L 435.430263 108.534469 
L 446.877368 116.086495 
L 458.324474 123.075926 
L 469.771579 129.809705 
L 481.218684 135.798049 
L 492.665789 142.00674 
L 504.112895 147.705811 
L 515.56 153.027674 
L 515.56 142.653723 
L 515.56 142.653723 
L 504.112895 137.845786 
L 492.665789 131.525911 
L 481.218684 126.067841 
L 469.771579 119.142324 
L 458.324474 112.350824 
L 446.877368 106.042411 
L 435.430263 99.365184 
L 423.983158 91.789058 
L 412.536053 83.87639 
L 401.088947 76.604128 
L 389.641842 69.551186 
L 378.194737 62.314502 
L 366.747632 55.223876 
L 355.300526 49.665742 
L 343.853421 44.181787 
L 332.406316 39.97081 
L 320.959211 36.594309 
L 309.512105 34.356596 
L 298.065 33.569699 
z
" clip-path="url(#p45df9d20b2)" style="fill: #8c564b; fill-opacity: 0.4"/>
   </g>
   <g id="PolyCollection_15">
    <path d="M 298.065 45.700966 
L 298.065 50.453957 
L 309.512105 51.257532 
L 320.959211 53.817852 
L 332.406316 57.662663 
L 343.853421 62.788313 
L 355.300526 68.910412 
L 366.747632 75.971387 
L 378.194737 83.193278 
L 389.641842 90.669603 
L 401.088947 97.687182 
L 412.536053 105.445884 
L 423.983158 112.014076 
L 435.430263 118.505289 
L 446.877368 124.762816 
L 458.324474 131.156842 
L 469.771579 136.071106 
L 481.218684 142.518835 
L 492.665789 147.690598 
L 504.112895 151.970254 
L 515.56 157.390668 
L 515.56 148.52222 
L 515.56 148.52222 
L 504.112895 144.507733 
L 492.665789 138.558767 
L 481.218684 133.423336 
L 469.771579 127.655177 
L 458.324474 121.790376 
L 446.877368 115.592114 
L 435.430263 109.401291 
L 423.983158 102.662834 
L 412.536053 95.015802 
L 401.088947 88.20726 
L 389.641842 81.044656 
L 378.194737 74.627823 
L 366.747632 67.884841 
L 355.300526 62.151056 
L 343.853421 56.740384 
L 332.406316 52.381689 
L 320.959211 49.008236 
L 309.512105 46.587354 
L 298.065 45.700966 
z
" clip-path="url(#p45df9d20b2)" style="fill: #e377c2; fill-opacity: 0.4"/>
   </g>
   <g id="PolyCollection_16">
    <path d="M 298.065 33.569363 
L 298.065 33.569597 
L 309.512105 34.599507 
L 320.959211 37.679593 
L 332.406316 42.028373 
L 343.853421 48.028977 
L 355.300526 54.703038 
L 366.747632 62.565168 
L 378.194737 70.344762 
L 389.641842 78.401684 
L 401.088947 86.286603 
L 412.536053 94.757133 
L 423.983158 102.331875 
L 435.430263 109.375004 
L 446.877368 116.574346 
L 458.324474 123.457821 
L 469.771579 129.43542 
L 481.218684 136.655681 
L 492.665789 142.390156 
L 504.112895 147.67716 
L 515.56 153.370581 
L 515.56 142.629872 
L 515.56 142.629872 
L 504.112895 137.725286 
L 492.665789 131.533643 
L 481.218684 125.537644 
L 469.771579 119.181426 
L 458.324474 112.642461 
L 446.877368 105.682382 
L 435.430263 99.140005 
L 423.983158 91.736272 
L 412.536053 83.667786 
L 401.088947 76.517255 
L 389.641842 69.154952 
L 378.194737 62.373435 
L 366.747632 55.205736 
L 355.300526 49.60339 
L 343.853421 44.182233 
L 332.406316 39.911812 
L 320.959211 36.597135 
L 309.512105 34.348181 
L 298.065 33.569363 
z
" clip-path="url(#p45df9d20b2)" style="fill: #7f7f7f; fill-opacity: 0.4"/>
   </g>
   <g id="matplotlib.axis_3">
    <g id="xtick_6">
     <g id="line2d_18">
      <g>
       <use xlink:href="#m6f83705a7f" x="298.065" y="174.04" style="stroke: #000000; stroke-width: 0.8"/>
      </g>
     </g>
     <g id="text_13">
      <!-- 0.0 -->
      <g transform="translate(290.113437 188.638438)scale(0.1 -0.1)">
       <use xlink:href="#DejaVuSans-30"/>
       <use xlink:href="#DejaVuSans-2e" x="63.623047"/>
       <use xlink:href="#DejaVuSans-30" x="95.410156"/>
      </g>
     </g>
    </g>
    <g id="xtick_7">
     <g id="line2d_19">
      <g>
       <use xlink:href="#m6f83705a7f" x="352.43875" y="174.04" style="stroke: #000000; stroke-width: 0.8"/>
      </g>
     </g>
     <g id="text_14">
      <!-- 0.5 -->
      <g transform="translate(344.487187 188.638438)scale(0.1 -0.1)">
       <use xlink:href="#DejaVuSans-30"/>
       <use xlink:href="#DejaVuSans-2e" x="63.623047"/>
       <use xlink:href="#DejaVuSans-35" x="95.410156"/>
      </g>
     </g>
    </g>
    <g id="xtick_8">
     <g id="line2d_20">
      <g>
       <use xlink:href="#m6f83705a7f" x="406.8125" y="174.04" style="stroke: #000000; stroke-width: 0.8"/>
      </g>
     </g>
     <g id="text_15">
      <!-- 1.0 -->
      <g transform="translate(398.860937 188.638438)scale(0.1 -0.1)">
       <use xlink:href="#DejaVuSans-31"/>
       <use xlink:href="#DejaVuSans-2e" x="63.623047"/>
       <use xlink:href="#DejaVuSans-30" x="95.410156"/>
      </g>
     </g>
    </g>
    <g id="xtick_9">
     <g id="line2d_21">
      <g>
       <use xlink:href="#m6f83705a7f" x="461.18625" y="174.04" style="stroke: #000000; stroke-width: 0.8"/>
      </g>
     </g>
     <g id="text_16">
      <!-- 1.5 -->
      <g transform="translate(453.234687 188.638438)scale(0.1 -0.1)">
       <use xlink:href="#DejaVuSans-31"/>
       <use xlink:href="#DejaVuSans-2e" x="63.623047"/>
       <use xlink:href="#DejaVuSans-35" x="95.410156"/>
      </g>
     </g>
    </g>
    <g id="xtick_10">
     <g id="line2d_22">
      <g>
       <use xlink:href="#m6f83705a7f" x="515.56" y="174.04" style="stroke: #000000; stroke-width: 0.8"/>
      </g>
     </g>
     <g id="text_17">
      <!-- 2.0 -->
      <g transform="translate(507.608437 188.638438)scale(0.1 -0.1)">
       <use xlink:href="#DejaVuSans-32"/>
       <use xlink:href="#DejaVuSans-2e" x="63.623047"/>
       <use xlink:href="#DejaVuSans-30" x="95.410156"/>
      </g>
     </g>
    </g>
    <g id="text_18">
     <!-- Influence of surprisal (multiplication) -->
     <g transform="translate(314.665625 202.316563)scale(0.1 -0.1)">
      <use xlink:href="#DejaVuSans-49"/>
      <use xlink:href="#DejaVuSans-6e" x="29.492188"/>
      <use xlink:href="#DejaVuSans-66" x="92.871094"/>
      <use xlink:href="#DejaVuSans-6c" x="128.076172"/>
      <use xlink:href="#DejaVuSans-75" x="155.859375"/>
      <use xlink:href="#DejaVuSans-65" x="219.238281"/>
      <use xlink:href="#DejaVuSans-6e" x="280.761719"/>
      <use xlink:href="#DejaVuSans-63" x="344.140625"/>
      <use xlink:href="#DejaVuSans-65" x="399.121094"/>
      <use xlink:href="#DejaVuSans-20" x="460.644531"/>
      <use xlink:href="#DejaVuSans-6f" x="492.431641"/>
      <use xlink:href="#DejaVuSans-66" x="553.613281"/>
      <use xlink:href="#DejaVuSans-20" x="588.818359"/>
      <use xlink:href="#DejaVuSans-73" x="620.605469"/>
      <use xlink:href="#DejaVuSans-75" x="672.705078"/>
      <use xlink:href="#DejaVuSans-72" x="736.083984"/>
      <use xlink:href="#DejaVuSans-70" x="777.197266"/>
      <use xlink:href="#DejaVuSans-72" x="840.673828"/>
      <use xlink:href="#DejaVuSans-69" x="881.787109"/>
      <use xlink:href="#DejaVuSans-73" x="909.570312"/>
      <use xlink:href="#DejaVuSans-61" x="961.669922"/>
      <use xlink:href="#DejaVuSans-6c" x="1022.949219"/>
      <use xlink:href="#DejaVuSans-20" x="1050.732422"/>
      <use xlink:href="#DejaVuSans-28" x="1082.519531"/>
      <use xlink:href="#DejaVuSans-6d" x="1121.533203"/>
      <use xlink:href="#DejaVuSans-75" x="1218.945312"/>
      <use xlink:href="#DejaVuSans-6c" x="1282.324219"/>
      <use xlink:href="#DejaVuSans-74" x="1310.107422"/>
      <use xlink:href="#DejaVuSans-69" x="1349.316406"/>
      <use xlink:href="#DejaVuSans-70" x="1377.099609"/>
      <use xlink:href="#DejaVuSans-6c" x="1440.576172"/>
      <use xlink:href="#DejaVuSans-69" x="1468.359375"/>
      <use xlink:href="#DejaVuSans-63" x="1496.142578"/>
      <use xlink:href="#DejaVuSans-61" x="1551.123047"/>
      <use xlink:href="#DejaVuSans-74" x="1612.402344"/>
      <use xlink:href="#DejaVuSans-69" x="1651.611328"/>
      <use xlink:href="#DejaVuSans-6f" x="1679.394531"/>
      <use xlink:href="#DejaVuSans-6e" x="1740.576172"/>
      <use xlink:href="#DejaVuSans-29" x="1803.955078"/>
     </g>
    </g>
   </g>
   <g id="line2d_23">
    <path d="M 298.065 33.569091 
L 309.512105 34.472908 
L 320.959211 37.125167 
L 332.406316 40.939902 
L 343.853421 46.051963 
L 355.300526 52.076902 
L 366.747632 58.775176 
L 378.194737 66.215108 
L 389.641842 73.592936 
L 401.088947 81.139729 
L 412.536053 88.867353 
L 423.983158 96.620892 
L 435.430263 103.751805 
L 446.877368 110.533033 
L 458.324474 117.315225 
L 469.771579 123.525235 
L 481.218684 130.12419 
L 492.665789 135.89226 
L 504.112895 141.521099 
L 515.56 146.778571 
" clip-path="url(#p45df9d20b2)" style="fill: none; stroke: #1f77b4; stroke-width: 1.5; stroke-linecap: square"/>
   </g>
   <g id="line2d_24">
    <path d="M 298.065 33.569283 
L 309.512105 34.475195 
L 320.959211 37.134573 
L 332.406316 40.963078 
L 343.853421 46.094852 
L 355.300526 52.137502 
L 366.747632 58.854812 
L 378.194737 66.310029 
L 389.641842 73.72117 
L 401.088947 81.320901 
L 412.536053 89.095432 
L 423.983158 96.875613 
L 435.430263 104.060447 
L 446.877368 110.892532 
L 458.324474 117.744265 
L 469.771579 123.968043 
L 481.218684 130.664028 
L 492.665789 136.489744 
L 504.112895 142.183257 
L 515.56 147.450327 
" clip-path="url(#p45df9d20b2)" style="fill: none; stroke: #ff7f0e; stroke-width: 1.5; stroke-linecap: square"/>
   </g>
   <g id="line2d_25">
    <path d="M 298.065 33.569102 
L 309.512105 34.473281 
L 320.959211 37.137192 
L 332.406316 40.946784 
L 343.853421 46.075679 
L 355.300526 52.114989 
L 366.747632 58.846144 
L 378.194737 66.313834 
L 389.641842 73.731378 
L 401.088947 81.307969 
L 412.536053 89.108764 
L 423.983158 96.899363 
L 435.430263 104.080627 
L 446.877368 110.911909 
L 458.324474 117.742453 
L 469.771579 123.97385 
L 481.218684 130.647823 
L 492.665789 136.473037 
L 504.112895 142.161484 
L 515.56 147.43725 
" clip-path="url(#p45df9d20b2)" style="fill: none; stroke: #2ca02c; stroke-width: 1.5; stroke-linecap: square"/>
   </g>
   <g id="line2d_26">
    <path d="M 298.065 33.570123 
L 309.512105 34.475657 
L 320.959211 37.141186 
L 332.406316 40.959478 
L 343.853421 46.098688 
L 355.300526 52.144453 
L 366.747632 58.885488 
L 378.194737 66.350038 
L 389.641842 73.776901 
L 401.088947 81.392598 
L 412.536053 89.210454 
L 423.983158 97.0203 
L 435.430263 104.258501 
L 446.877368 111.136267 
L 458.324474 118.03042 
L 469.771579 124.273875 
L 481.218684 130.995156 
L 492.665789 136.837189 
L 504.112895 142.536362 
L 515.56 147.80235 
" clip-path="url(#p45df9d20b2)" style="fill: none; stroke: #d62728; stroke-width: 1.5; stroke-linecap: square"/>
   </g>
   <g id="line2d_27">
    <path d="M 298.065 33.569102 
L 309.512105 34.475729 
L 320.959211 37.121872 
L 332.406316 40.970706 
L 343.853421 46.062359 
L 355.300526 52.141823 
L 366.747632 58.76219 
L 378.194737 66.201617 
L 389.641842 73.893659 
L 401.088947 81.253072 
L 412.536053 89.046625 
L 423.983158 96.666763 
L 435.430263 103.63051 
L 446.877368 110.699773 
L 458.324474 117.285421 
L 469.771579 124.020862 
L 481.218684 130.393563 
L 492.665789 136.18752 
L 504.112895 142.10569 
L 515.56 147.16961 
" clip-path="url(#p45df9d20b2)" style="fill: none; stroke: #9467bd; stroke-width: 1.5; stroke-linecap: square"/>
   </g>
   <g id="line2d_28">
    <path d="M 298.065 33.569866 
L 309.512105 34.478645 
L 320.959211 37.131895 
L 332.406316 40.994389 
L 343.853421 46.106749 
L 355.300526 52.203374 
L 366.747632 58.843538 
L 378.194737 66.302118 
L 389.641842 74.022341 
L 401.088947 81.433825 
L 412.536053 89.278843 
L 423.983158 96.919027 
L 435.430263 103.949826 
L 446.877368 111.064453 
L 458.324474 117.713375 
L 469.771579 124.476014 
L 481.218684 130.932945 
L 492.665789 136.766326 
L 504.112895 142.775799 
L 515.56 147.840699 
" clip-path="url(#p45df9d20b2)" style="fill: none; stroke: #8c564b; stroke-width: 1.5; stroke-linecap: square"/>
   </g>
   <g id="line2d_29">
    <path d="M 298.065 48.077462 
L 309.512105 48.922443 
L 320.959211 51.413044 
L 332.406316 55.022176 
L 343.853421 59.764349 
L 355.300526 65.530734 
L 366.747632 71.928114 
L 378.194737 78.910551 
L 389.641842 85.857129 
L 401.088947 92.947221 
L 412.536053 100.230843 
L 423.983158 107.338455 
L 435.430263 113.95329 
L 446.877368 120.177465 
L 458.324474 126.473609 
L 469.771579 131.863141 
L 481.218684 137.971086 
L 492.665789 143.124683 
L 504.112895 148.238993 
L 515.56 152.956444 
" clip-path="url(#p45df9d20b2)" style="fill: none; stroke: #e377c2; stroke-width: 1.5; stroke-linecap: square"/>
   </g>
   <g id="line2d_30">
    <path d="M 298.065 33.56948 
L 309.512105 34.473844 
L 320.959211 37.138364 
L 332.406316 40.970093 
L 343.853421 46.105605 
L 355.300526 52.153214 
L 366.747632 58.885452 
L 378.194737 66.359099 
L 389.641842 73.778318 
L 401.088947 81.401929 
L 412.536053 89.212459 
L 423.983158 97.034073 
L 435.430263 104.257504 
L 446.877368 111.128364 
L 458.324474 118.050141 
L 469.771579 124.308423 
L 481.218684 131.096662 
L 492.665789 136.9619 
L 504.112895 142.701223 
L 515.56 148.000226 
" clip-path="url(#p45df9d20b2)" style="fill: none; stroke: #7f7f7f; stroke-width: 1.5; stroke-linecap: square"/>
   </g>
   <g id="patch_6">
    <path d="M 298.065 174.04 
L 298.065 26.88 
" style="fill: none; stroke: #000000; stroke-width: 0.8; stroke-linejoin: miter; stroke-linecap: square"/>
   </g>
   <g id="patch_7">
    <path d="M 298.065 174.04 
L 515.56 174.04 
" style="fill: none; stroke: #000000; stroke-width: 0.8; stroke-linejoin: miter; stroke-linecap: square"/>
   </g>
   <g id="text_19">
    <!-- Node * third variable -->
    <g transform="translate(344.2325 20.88)scale(0.12 -0.12)">
     <defs>
      <path id="DejaVuSans-68" d="M 3513 2113 
L 3513 0 
L 2938 0 
L 2938 2094 
Q 2938 2591 2744 2837 
Q 2550 3084 2163 3084 
Q 1697 3084 1428 2787 
Q 1159 2491 1159 1978 
L 1159 0 
L 581 0 
L 581 4863 
L 1159 4863 
L 1159 2956 
Q 1366 3272 1645 3428 
Q 1925 3584 2291 3584 
Q 2894 3584 3203 3211 
Q 3513 2838 3513 2113 
z
" transform="scale(0.015625)"/>
      <path id="DejaVuSans-62" d="M 3116 1747 
Q 3116 2381 2855 2742 
Q 2594 3103 2138 3103 
Q 1681 3103 1420 2742 
Q 1159 2381 1159 1747 
Q 1159 1113 1420 752 
Q 1681 391 2138 391 
Q 2594 391 2855 752 
Q 3116 1113 3116 1747 
z
M 1159 2969 
Q 1341 3281 1617 3432 
Q 1894 3584 2278 3584 
Q 2916 3584 3314 3078 
Q 3713 2572 3713 1747 
Q 3713 922 3314 415 
Q 2916 -91 2278 -91 
Q 1894 -91 1617 61 
Q 1341 213 1159 525 
L 1159 0 
L 581 0 
L 581 4863 
L 1159 4863 
L 1159 2969 
z
" transform="scale(0.015625)"/>
     </defs>
     <use xlink:href="#DejaVuSans-4e"/>
     <use xlink:href="#DejaVuSans-6f" x="74.804688"/>
     <use xlink:href="#DejaVuSans-64" x="135.986328"/>
     <use xlink:href="#DejaVuSans-65" x="199.462891"/>
     <use xlink:href="#DejaVuSans-20" x="260.986328"/>
     <use xlink:href="#DejaVuSans-2a" x="292.773438"/>
     <use xlink:href="#DejaVuSans-20" x="342.773438"/>
     <use xlink:href="#DejaVuSans-74" x="374.560547"/>
     <use xlink:href="#DejaVuSans-68" x="413.769531"/>
     <use xlink:href="#DejaVuSans-69" x="477.148438"/>
     <use xlink:href="#DejaVuSans-72" x="504.931641"/>
     <use xlink:href="#DejaVuSans-64" x="544.294922"/>
     <use xlink:href="#DejaVuSans-20" x="607.771484"/>
     <use xlink:href="#DejaVuSans-76" x="639.558594"/>
     <use xlink:href="#DejaVuSans-61" x="698.738281"/>
     <use xlink:href="#DejaVuSans-72" x="760.017578"/>
     <use xlink:href="#DejaVuSans-69" x="801.130859"/>
     <use xlink:href="#DejaVuSans-61" x="828.914062"/>
     <use xlink:href="#DejaVuSans-62" x="890.193359"/>
     <use xlink:href="#DejaVuSans-6c" x="953.669922"/>
     <use xlink:href="#DejaVuSans-65" x="981.453125"/>
    </g>
   </g>
   <g id="legend_1">
    <g id="line2d_31">
     <path d="M 524.56 39.978437 
L 534.56 39.978437 
L 544.56 39.978437 
" style="fill: none; stroke: #1f77b4; stroke-width: 1.5; stroke-linecap: square"/>
    </g>
    <g id="text_20">
     <!-- Node -->
     <g transform="translate(552.56 43.478437)scale(0.1 -0.1)">
      <use xlink:href="#DejaVuSans-4e"/>
      <use xlink:href="#DejaVuSans-6f" x="74.804688"/>
      <use xlink:href="#DejaVuSans-64" x="135.986328"/>
      <use xlink:href="#DejaVuSans-65" x="199.462891"/>
     </g>
    </g>
    <g id="line2d_32">
     <path d="M 524.56 54.656563 
L 534.56 54.656563 
L 544.56 54.656563 
" style="fill: none; stroke: #ff7f0e; stroke-width: 1.5; stroke-linecap: square"/>
    </g>
    <g id="text_21">
     <!-- Node + surprisal -->
     <g transform="translate(552.56 58.156563)scale(0.1 -0.1)">
      <defs>
       <path id="DejaVuSans-2b" d="M 2944 4013 
L 2944 2272 
L 4684 2272 
L 4684 1741 
L 2944 1741 
L 2944 0 
L 2419 0 
L 2419 1741 
L 678 1741 
L 678 2272 
L 2419 2272 
L 2419 4013 
L 2944 4013 
z
" transform="scale(0.015625)"/>
      </defs>
      <use xlink:href="#DejaVuSans-4e"/>
      <use xlink:href="#DejaVuSans-6f" x="74.804688"/>
      <use xlink:href="#DejaVuSans-64" x="135.986328"/>
      <use xlink:href="#DejaVuSans-65" x="199.462891"/>
      <use xlink:href="#DejaVuSans-20" x="260.986328"/>
      <use xlink:href="#DejaVuSans-2b" x="292.773438"/>
      <use xlink:href="#DejaVuSans-20" x="376.5625"/>
      <use xlink:href="#DejaVuSans-73" x="408.349609"/>
      <use xlink:href="#DejaVuSans-75" x="460.449219"/>
      <use xlink:href="#DejaVuSans-72" x="523.828125"/>
      <use xlink:href="#DejaVuSans-70" x="564.941406"/>
      <use xlink:href="#DejaVuSans-72" x="628.417969"/>
      <use xlink:href="#DejaVuSans-69" x="669.53125"/>
      <use xlink:href="#DejaVuSans-73" x="697.314453"/>
      <use xlink:href="#DejaVuSans-61" x="749.414062"/>
      <use xlink:href="#DejaVuSans-6c" x="810.693359"/>
     </g>
    </g>
    <g id="line2d_33">
     <path d="M 524.56 69.334687 
L 534.56 69.334687 
L 544.56 69.334687 
" style="fill: none; stroke: #2ca02c; stroke-width: 1.5; stroke-linecap: square"/>
    </g>
    <g id="text_22">
     <!-- Node split -->
     <g transform="translate(552.56 72.834687)scale(0.1 -0.1)">
      <use xlink:href="#DejaVuSans-4e"/>
      <use xlink:href="#DejaVuSans-6f" x="74.804688"/>
      <use xlink:href="#DejaVuSans-64" x="135.986328"/>
      <use xlink:href="#DejaVuSans-65" x="199.462891"/>
      <use xlink:href="#DejaVuSans-20" x="260.986328"/>
      <use xlink:href="#DejaVuSans-73" x="292.773438"/>
      <use xlink:href="#DejaVuSans-70" x="344.873047"/>
      <use xlink:href="#DejaVuSans-6c" x="408.349609"/>
      <use xlink:href="#DejaVuSans-69" x="436.132812"/>
      <use xlink:href="#DejaVuSans-74" x="463.916016"/>
     </g>
    </g>
    <g id="line2d_34">
     <path d="M 524.56 84.012812 
L 534.56 84.012812 
L 544.56 84.012812 
" style="fill: none; stroke: #d62728; stroke-width: 1.5; stroke-linecap: square"/>
    </g>
    <g id="text_23">
     <!-- Node split + surprisal -->
     <g transform="translate(552.56 87.512812)scale(0.1 -0.1)">
      <use xlink:href="#DejaVuSans-4e"/>
      <use xlink:href="#DejaVuSans-6f" x="74.804688"/>
      <use xlink:href="#DejaVuSans-64" x="135.986328"/>
      <use xlink:href="#DejaVuSans-65" x="199.462891"/>
      <use xlink:href="#DejaVuSans-20" x="260.986328"/>
      <use xlink:href="#DejaVuSans-73" x="292.773438"/>
      <use xlink:href="#DejaVuSans-70" x="344.873047"/>
      <use xlink:href="#DejaVuSans-6c" x="408.349609"/>
      <use xlink:href="#DejaVuSans-69" x="436.132812"/>
      <use xlink:href="#DejaVuSans-74" x="463.916016"/>
      <use xlink:href="#DejaVuSans-20" x="503.125"/>
      <use xlink:href="#DejaVuSans-2b" x="534.912109"/>
      <use xlink:href="#DejaVuSans-20" x="618.701172"/>
      <use xlink:href="#DejaVuSans-73" x="650.488281"/>
      <use xlink:href="#DejaVuSans-75" x="702.587891"/>
      <use xlink:href="#DejaVuSans-72" x="765.966797"/>
      <use xlink:href="#DejaVuSans-70" x="807.080078"/>
      <use xlink:href="#DejaVuSans-72" x="870.556641"/>
      <use xlink:href="#DejaVuSans-69" x="911.669922"/>
      <use xlink:href="#DejaVuSans-73" x="939.453125"/>
      <use xlink:href="#DejaVuSans-61" x="991.552734"/>
      <use xlink:href="#DejaVuSans-6c" x="1052.832031"/>
     </g>
    </g>
    <g id="line2d_35">
     <path d="M 524.56 98.690937 
L 534.56 98.690937 
L 544.56 98.690937 
" style="fill: none; stroke: #9467bd; stroke-width: 1.5; stroke-linecap: square"/>
    </g>
    <g id="text_24">
     <!-- Node random split -->
     <g transform="translate(552.56 102.190937)scale(0.1 -0.1)">
      <use xlink:href="#DejaVuSans-4e"/>
      <use xlink:href="#DejaVuSans-6f" x="74.804688"/>
      <use xlink:href="#DejaVuSans-64" x="135.986328"/>
      <use xlink:href="#DejaVuSans-65" x="199.462891"/>
      <use xlink:href="#DejaVuSans-20" x="260.986328"/>
      <use xlink:href="#DejaVuSans-72" x="292.773438"/>
      <use xlink:href="#DejaVuSans-61" x="333.886719"/>
      <use xlink:href="#DejaVuSans-6e" x="395.166016"/>
      <use xlink:href="#DejaVuSans-64" x="458.544922"/>
      <use xlink:href="#DejaVuSans-6f" x="522.021484"/>
      <use xlink:href="#DejaVuSans-6d" x="583.203125"/>
      <use xlink:href="#DejaVuSans-20" x="680.615234"/>
      <use xlink:href="#DejaVuSans-73" x="712.402344"/>
      <use xlink:href="#DejaVuSans-70" x="764.501953"/>
      <use xlink:href="#DejaVuSans-6c" x="827.978516"/>
      <use xlink:href="#DejaVuSans-69" x="855.761719"/>
      <use xlink:href="#DejaVuSans-74" x="883.544922"/>
     </g>
    </g>
    <g id="line2d_36">
     <path d="M 524.56 113.369062 
L 534.56 113.369062 
L 544.56 113.369062 
" style="fill: none; stroke: #8c564b; stroke-width: 1.5; stroke-linecap: square"/>
    </g>
    <g id="text_25">
     <!-- Node random split + surprisal -->
     <g transform="translate(552.56 116.869062)scale(0.1 -0.1)">
      <use xlink:href="#DejaVuSans-4e"/>
      <use xlink:href="#DejaVuSans-6f" x="74.804688"/>
      <use xlink:href="#DejaVuSans-64" x="135.986328"/>
      <use xlink:href="#DejaVuSans-65" x="199.462891"/>
      <use xlink:href="#DejaVuSans-20" x="260.986328"/>
      <use xlink:href="#DejaVuSans-72" x="292.773438"/>
      <use xlink:href="#DejaVuSans-61" x="333.886719"/>
      <use xlink:href="#DejaVuSans-6e" x="395.166016"/>
      <use xlink:href="#DejaVuSans-64" x="458.544922"/>
      <use xlink:href="#DejaVuSans-6f" x="522.021484"/>
      <use xlink:href="#DejaVuSans-6d" x="583.203125"/>
      <use xlink:href="#DejaVuSans-20" x="680.615234"/>
      <use xlink:href="#DejaVuSans-73" x="712.402344"/>
      <use xlink:href="#DejaVuSans-70" x="764.501953"/>
      <use xlink:href="#DejaVuSans-6c" x="827.978516"/>
      <use xlink:href="#DejaVuSans-69" x="855.761719"/>
      <use xlink:href="#DejaVuSans-74" x="883.544922"/>
      <use xlink:href="#DejaVuSans-20" x="922.753906"/>
      <use xlink:href="#DejaVuSans-2b" x="954.541016"/>
      <use xlink:href="#DejaVuSans-20" x="1038.330078"/>
      <use xlink:href="#DejaVuSans-73" x="1070.117188"/>
      <use xlink:href="#DejaVuSans-75" x="1122.216797"/>
      <use xlink:href="#DejaVuSans-72" x="1185.595703"/>
      <use xlink:href="#DejaVuSans-70" x="1226.708984"/>
      <use xlink:href="#DejaVuSans-72" x="1290.185547"/>
      <use xlink:href="#DejaVuSans-69" x="1331.298828"/>
      <use xlink:href="#DejaVuSans-73" x="1359.082031"/>
      <use xlink:href="#DejaVuSans-61" x="1411.181641"/>
      <use xlink:href="#DejaVuSans-6c" x="1472.460938"/>
     </g>
    </g>
    <g id="line2d_37">
     <path d="M 524.56 128.047187 
L 534.56 128.047187 
L 544.56 128.047187 
" style="fill: none; stroke: #e377c2; stroke-width: 1.5; stroke-linecap: square"/>
    </g>
    <g id="text_26">
     <!-- Interaction -->
     <g transform="translate(552.56 131.547187)scale(0.1 -0.1)">
      <use xlink:href="#DejaVuSans-49"/>
      <use xlink:href="#DejaVuSans-6e" x="29.492188"/>
      <use xlink:href="#DejaVuSans-74" x="92.871094"/>
      <use xlink:href="#DejaVuSans-65" x="132.080078"/>
      <use xlink:href="#DejaVuSans-72" x="193.603516"/>
      <use xlink:href="#DejaVuSans-61" x="234.716797"/>
      <use xlink:href="#DejaVuSans-63" x="295.996094"/>
      <use xlink:href="#DejaVuSans-74" x="350.976562"/>
      <use xlink:href="#DejaVuSans-69" x="390.185547"/>
      <use xlink:href="#DejaVuSans-6f" x="417.96875"/>
      <use xlink:href="#DejaVuSans-6e" x="479.150391"/>
     </g>
    </g>
    <g id="line2d_38">
     <path d="M 524.56 142.725312 
L 534.56 142.725312 
L 544.56 142.725312 
" style="fill: none; stroke: #7f7f7f; stroke-width: 1.5; stroke-linecap: square"/>
    </g>
    <g id="text_27">
     <!-- Node + surprisal + interaction -->
     <g transform="translate(552.56 146.225312)scale(0.1 -0.1)">
      <use xlink:href="#DejaVuSans-4e"/>
      <use xlink:href="#DejaVuSans-6f" x="74.804688"/>
      <use xlink:href="#DejaVuSans-64" x="135.986328"/>
      <use xlink:href="#DejaVuSans-65" x="199.462891"/>
      <use xlink:href="#DejaVuSans-20" x="260.986328"/>
      <use xlink:href="#DejaVuSans-2b" x="292.773438"/>
      <use xlink:href="#DejaVuSans-20" x="376.5625"/>
      <use xlink:href="#DejaVuSans-73" x="408.349609"/>
      <use xlink:href="#DejaVuSans-75" x="460.449219"/>
      <use xlink:href="#DejaVuSans-72" x="523.828125"/>
      <use xlink:href="#DejaVuSans-70" x="564.941406"/>
      <use xlink:href="#DejaVuSans-72" x="628.417969"/>
      <use xlink:href="#DejaVuSans-69" x="669.53125"/>
      <use xlink:href="#DejaVuSans-73" x="697.314453"/>
      <use xlink:href="#DejaVuSans-61" x="749.414062"/>
      <use xlink:href="#DejaVuSans-6c" x="810.693359"/>
      <use xlink:href="#DejaVuSans-20" x="838.476562"/>
      <use xlink:href="#DejaVuSans-2b" x="870.263672"/>
      <use xlink:href="#DejaVuSans-20" x="954.052734"/>
      <use xlink:href="#DejaVuSans-69" x="985.839844"/>
      <use xlink:href="#DejaVuSans-6e" x="1013.623047"/>
      <use xlink:href="#DejaVuSans-74" x="1077.001953"/>
      <use xlink:href="#DejaVuSans-65" x="1116.210938"/>
      <use xlink:href="#DejaVuSans-72" x="1177.734375"/>
      <use xlink:href="#DejaVuSans-61" x="1218.847656"/>
      <use xlink:href="#DejaVuSans-63" x="1280.126953"/>
      <use xlink:href="#DejaVuSans-74" x="1335.107422"/>
      <use xlink:href="#DejaVuSans-69" x="1374.316406"/>
      <use xlink:href="#DejaVuSans-6f" x="1402.099609"/>
      <use xlink:href="#DejaVuSans-6e" x="1463.28125"/>
     </g>
    </g>
   </g>
  </g>
 </g>
 <defs>
  <clipPath id="p82dc67aef0">
   <rect x="47.72" y="26.88" width="217.495" height="147.16"/>
  </clipPath>
  <clipPath id="p45df9d20b2">
   <rect x="298.065" y="26.88" width="217.495" height="147.16"/>
  </clipPath>
 </defs>
</svg>
