<?xml version="1.0" encoding="utf-8" standalone="no"?>
<!DOCTYPE svg PUBLIC "-//W3C//DTD SVG 1.1//EN"
  "http://www.w3.org/Graphics/SVG/1.1/DTD/svg11.dtd">
<svg xmlns:xlink="http://www.w3.org/1999/xlink" width="720pt" height="216pt" viewBox="0 0 720 216" xmlns="http://www.w3.org/2000/svg" version="1.1">
 <metadata>
  <rdf:RDF xmlns:dc="http://purl.org/dc/elements/1.1/" xmlns:cc="http://creativecommons.org/ns#" xmlns:rdf="http://www.w3.org/1999/02/22-rdf-syntax-ns#">
   <cc:Work>
    <dc:type rdf:resource="http://purl.org/dc/dcmitype/StillImage"/>
    <dc:date>2024-01-16T02:04:36.368699</dc:date>
    <dc:format>image/svg+xml</dc:format>
    <dc:creator>
     <cc:Agent>
      <dc:title>Matplotlib v3.5.1, https://matplotlib.org/</dc:title>
     </cc:Agent>
    </dc:creator>
   </cc:Work>
  </rdf:RDF>
 </metadata>
 <defs>
  <style type="text/css">*{stroke-linejoin: round; stroke-linecap: butt}</style>
 </defs>
 <g id="figure_1">
  <g id="patch_1">
   <path d="M 0 216 
L 720 216 
L 720 0 
L 0 0 
z
" style="fill: #ffffff"/>
  </g>
  <g id="axes_1">
   <g id="patch_2">
    <path d="M 47.72 174.04 
L 265.215 174.04 
L 265.215 26.88 
L 47.72 26.88 
z
" style="fill: #ffffff"/>
   </g>
   <g id="PolyCollection_1">
    <path d="M 47.72 33.569091 
L 47.72 33.569093 
L 59.167105 34.7229 
L 70.614211 37.952024 
L 82.061316 42.684436 
L 93.508421 48.587294 
L 104.955526 55.615445 
L 116.402632 63.396662 
L 127.849737 71.190994 
L 139.296842 79.60614 
L 150.743947 86.772922 
L 162.191053 94.272574 
L 173.638158 101.416298 
L 185.085263 108.505708 
L 196.532368 115.24751 
L 207.979474 121.089399 
L 219.426579 127.284423 
L 230.873684 133.043159 
L 242.320789 138.61445 
L 253.767895 143.457551 
L 265.215 148.049141 
L 265.215 137.615395 
L 265.215 137.615395 
L 253.767895 132.843002 
L 242.320789 126.897246 
L 230.873684 121.476928 
L 219.426579 115.044511 
L 207.979474 109.365936 
L 196.532368 102.672795 
L 185.085263 96.221904 
L 173.638158 89.316702 
L 162.191053 82.320935 
L 150.743947 75.301105 
L 139.296842 68.278125 
L 127.849737 61.425239 
L 116.402632 55.380921 
L 104.955526 49.313122 
L 93.508421 44.277488 
L 82.061316 39.702074 
L 70.614211 36.566274 
L 59.167105 34.243971 
L 47.72 33.569091 
z
" clip-path="url(#pd37e0d3e6d)" style="fill: #1f77b4; fill-opacity: 0.4"/>
   </g>
   <g id="PolyCollection_2">
    <path d="M 47.72 33.569227 
L 47.72 33.569329 
L 59.167105 34.285639 
L 70.614211 35.885611 
L 82.061316 38.436979 
L 93.508421 41.900516 
L 104.955526 46.113219 
L 116.402632 51.502165 
L 127.849737 57.33772 
L 139.296842 64.109906 
L 150.743947 70.523208 
L 162.191053 77.316483 
L 173.638158 83.744697 
L 185.085263 90.436703 
L 196.532368 96.694471 
L 207.979474 102.320023 
L 219.426579 108.254409 
L 230.873684 113.678986 
L 242.320789 119.428335 
L 253.767895 124.147695 
L 265.215 129.11975 
L 265.215 119.980128 
L 265.215 119.980128 
L 253.767895 114.995824 
L 242.320789 109.2264 
L 230.873684 103.992462 
L 219.426579 97.62196 
L 207.979474 92.228767 
L 196.532368 85.957746 
L 185.085263 79.924927 
L 173.638158 73.949276 
L 162.191053 67.762191 
L 150.743947 61.779229 
L 139.296842 56.461644 
L 127.849737 51.249563 
L 116.402632 47.013277 
L 104.955526 42.951921 
L 93.508421 39.778218 
L 82.061316 37.096918 
L 70.614211 35.359155 
L 59.167105 34.041804 
L 47.72 33.569227 
z
" clip-path="url(#pd37e0d3e6d)" style="fill: #ff7f0e; fill-opacity: 0.4"/>
   </g>
   <g id="PolyCollection_3">
    <path d="M 47.72 33.5691 
L 47.72 33.569108 
L 59.167105 34.454163 
L 70.614211 36.048253 
L 82.061316 38.297265 
L 93.508421 40.992933 
L 104.955526 44.521034 
L 116.402632 48.181212 
L 127.849737 52.039308 
L 139.296842 56.163074 
L 150.743947 59.890818 
L 162.191053 63.792552 
L 173.638158 67.190979 
L 185.085263 71.094089 
L 196.532368 74.537578 
L 207.979474 78.046751 
L 219.426579 81.65428 
L 230.873684 84.621268 
L 242.320789 88.654522 
L 253.767895 91.493096 
L 265.215 95.272169 
L 265.215 83.129639 
L 265.215 83.129639 
L 253.767895 80.160372 
L 242.320789 76.651678 
L 230.873684 73.585387 
L 219.426579 69.979548 
L 207.979474 66.680505 
L 196.532368 63.28442 
L 185.085263 60.370639 
L 173.638158 57.111876 
L 162.191053 54.215932 
L 150.743947 51.059208 
L 139.296842 48.013297 
L 127.849737 45.242324 
L 116.402632 42.698714 
L 104.955526 40.26677 
L 93.508421 38.337511 
L 82.061316 36.468481 
L 70.614211 35.075575 
L 59.167105 34.10991 
L 47.72 33.5691 
z
" clip-path="url(#pd37e0d3e6d)" style="fill: #2ca02c; fill-opacity: 0.4"/>
   </g>
   <g id="PolyCollection_4">
    <path d="M 47.72 33.5698 
L 47.72 33.570418 
L 59.167105 34.256117 
L 70.614211 35.402451 
L 82.061316 37.09927 
L 93.508421 39.198207 
L 104.955526 42.025958 
L 116.402632 45.29261 
L 127.849737 48.839967 
L 139.296842 53.009358 
L 150.743947 56.833953 
L 162.191053 60.982318 
L 173.638158 64.647677 
L 185.085263 68.808878 
L 196.532368 72.48433 
L 207.979474 76.308097 
L 219.426579 80.085213 
L 230.873684 83.26374 
L 242.320789 87.420849 
L 253.767895 90.366161 
L 265.215 94.238887 
L 265.215 81.570205 
L 265.215 81.570205 
L 253.767895 78.58572 
L 242.320789 74.94438 
L 230.873684 71.744579 
L 219.426579 68.124703 
L 207.979474 64.763644 
L 196.532368 61.319635 
L 185.085263 58.351258 
L 173.638158 55.038068 
L 162.191053 52.024489 
L 150.743947 48.823414 
L 139.296842 45.848348 
L 127.849737 43.20536 
L 116.402632 40.929176 
L 104.955526 38.824109 
L 93.508421 37.286498 
L 82.061316 35.777482 
L 70.614211 34.761846 
L 59.167105 34.014981 
L 47.72 33.5698 
z
" clip-path="url(#pd37e0d3e6d)" style="fill: #d62728; fill-opacity: 0.4"/>
   </g>
   <g id="PolyCollection_5">
    <path d="M 47.72 33.569101 
L 47.72 33.569107 
L 59.167105 34.72336 
L 70.614211 37.952956 
L 82.061316 42.696199 
L 93.508421 48.618743 
L 104.955526 55.597013 
L 116.402632 63.398064 
L 127.849737 71.389384 
L 139.296842 79.698615 
L 150.743947 87.087788 
L 162.191053 94.204343 
L 173.638158 101.592914 
L 185.085263 108.427192 
L 196.532368 115.447485 
L 207.979474 121.447816 
L 219.426579 127.366116 
L 230.873684 133.105491 
L 242.320789 138.7479 
L 253.767895 143.321322 
L 265.215 148.464653 
L 265.215 137.99676 
L 265.215 137.99676 
L 253.767895 132.857572 
L 242.320789 126.929226 
L 230.873684 121.577954 
L 219.426579 114.97837 
L 207.979474 109.953312 
L 196.532368 102.700503 
L 185.085263 96.432958 
L 173.638158 89.522765 
L 162.191053 82.518905 
L 150.743947 75.485412 
L 139.296842 68.392191 
L 127.849737 61.515513 
L 116.402632 55.38229 
L 104.955526 49.351883 
L 93.508421 44.411762 
L 82.061316 39.695265 
L 70.614211 36.600072 
L 59.167105 34.244716 
L 47.72 33.569101 
z
" clip-path="url(#pd37e0d3e6d)" style="fill: #9467bd; fill-opacity: 0.4"/>
   </g>
   <g id="PolyCollection_6">
    <path d="M 47.72 33.569647 
L 47.72 33.570054 
L 59.167105 34.287411 
L 70.614211 35.894669 
L 82.061316 38.44018 
L 93.508421 41.923513 
L 104.955526 46.110104 
L 116.402632 51.532106 
L 127.849737 57.467927 
L 139.296842 64.161618 
L 150.743947 70.598667 
L 162.191053 77.334263 
L 173.638158 83.821872 
L 185.085263 90.300736 
L 196.532368 96.807612 
L 207.979474 102.650344 
L 219.426579 108.236555 
L 230.873684 113.47456 
L 242.320789 119.53562 
L 253.767895 124.077734 
L 265.215 129.483401 
L 265.215 120.224109 
L 265.215 120.224109 
L 253.767895 114.773116 
L 242.320789 109.386351 
L 230.873684 104.315143 
L 219.426579 97.628944 
L 207.979474 92.507329 
L 196.532368 85.952306 
L 185.085263 80.101656 
L 173.638158 73.996772 
L 162.191053 67.858432 
L 150.743947 61.833354 
L 139.296842 56.44915 
L 127.849737 51.317455 
L 116.402632 47.02854 
L 104.955526 42.959473 
L 93.508421 39.837709 
L 82.061316 37.083273 
L 70.614211 35.375974 
L 59.167105 34.04153 
L 47.72 33.569647 
z
" clip-path="url(#pd37e0d3e6d)" style="fill: #8c564b; fill-opacity: 0.4"/>
   </g>
   <g id="PolyCollection_7">
    <path d="M 47.72 45.944891 
L 47.72 50.733716 
L 59.167105 52.314544 
L 70.614211 56.329708 
L 82.061316 62.589839 
L 93.508421 69.843707 
L 104.955526 78.794512 
L 116.402632 87.873545 
L 127.849737 97.242601 
L 139.296842 106.089796 
L 150.743947 114.004257 
L 162.191053 121.488573 
L 173.638158 128.349248 
L 185.085263 134.789685 
L 196.532368 140.599863 
L 207.979474 145.178612 
L 219.426579 150.286748 
L 230.873684 154.811382 
L 242.320789 159.436168 
L 253.767895 163.49875 
L 265.215 167.350909 
L 265.215 153.425946 
L 265.215 153.425946 
L 253.767895 149.214792 
L 242.320789 144.058434 
L 230.873684 139.00996 
L 219.426579 133.200415 
L 207.979474 127.058415 
L 196.532368 120.798129 
L 185.085263 113.925458 
L 173.638158 106.87517 
L 162.191053 99.713925 
L 150.743947 92.289945 
L 139.296842 84.850907 
L 127.849737 77.517026 
L 116.402632 70.656111 
L 104.955526 64.114953 
L 93.508421 58.3655 
L 82.061316 53.148875 
L 70.614211 49.295323 
L 59.167105 46.836761 
L 47.72 45.944891 
z
" clip-path="url(#pd37e0d3e6d)" style="fill: #e377c2; fill-opacity: 0.4"/>
   </g>
   <g id="PolyCollection_8">
    <path d="M 47.72 33.569365 
L 47.72 33.569612 
L 59.167105 33.86376 
L 70.614211 34.078907 
L 82.061316 34.714492 
L 93.508421 36.118509 
L 104.955526 38.565907 
L 116.402632 42.46602 
L 127.849737 47.205794 
L 139.296842 53.054269 
L 150.743947 59.117337 
L 162.191053 65.981508 
L 173.638158 72.485562 
L 185.085263 79.004162 
L 196.532368 85.48178 
L 207.979474 91.563063 
L 219.426579 97.285081 
L 230.873684 102.869337 
L 242.320789 108.808531 
L 253.767895 113.448384 
L 265.215 118.718505 
L 265.215 102.953444 
L 265.215 102.953444 
L 253.767895 97.288474 
L 242.320789 91.148199 
L 230.873684 85.713336 
L 219.426579 79.376969 
L 207.979474 73.669019 
L 196.532368 67.972756 
L 185.085263 62.440591 
L 173.638158 57.09258 
L 162.191053 52.04795 
L 150.743947 47.478011 
L 139.296842 43.5565 
L 127.849737 40.137742 
L 116.402632 37.756365 
L 104.955526 35.948313 
L 93.508421 34.822154 
L 82.061316 34.174612 
L 70.614211 33.943391 
L 59.167105 33.822736 
L 47.72 33.569365 
z
" clip-path="url(#pd37e0d3e6d)" style="fill: #7f7f7f; fill-opacity: 0.4"/>
   </g>
   <g id="matplotlib.axis_1">
    <g id="xtick_1">
     <g id="line2d_1">
      <defs>
       <path id="m48aa99b5a1" d="M 0 0 
L 0 3.5 
" style="stroke: #000000; stroke-width: 0.8"/>
      </defs>
      <g>
       <use xlink:href="#m48aa99b5a1" x="47.72" y="174.04" style="stroke: #000000; stroke-width: 0.8"/>
      </g>
     </g>
     <g id="text_1">
      <!-- 0.0 -->
      <g transform="translate(39.768438 188.638438)scale(0.1 -0.1)">
       <defs>
        <path id="DejaVuSans-30" d="M 2034 4250 
Q 1547 4250 1301 3770 
Q 1056 3291 1056 2328 
Q 1056 1369 1301 889 
Q 1547 409 2034 409 
Q 2525 409 2770 889 
Q 3016 1369 3016 2328 
Q 3016 3291 2770 3770 
Q 2525 4250 2034 4250 
z
M 2034 4750 
Q 2819 4750 3233 4129 
Q 3647 3509 3647 2328 
Q 3647 1150 3233 529 
Q 2819 -91 2034 -91 
Q 1250 -91 836 529 
Q 422 1150 422 2328 
Q 422 3509 836 4129 
Q 1250 4750 2034 4750 
z
" transform="scale(0.015625)"/>
        <path id="DejaVuSans-2e" d="M 684 794 
L 1344 794 
L 1344 0 
L 684 0 
L 684 794 
z
" transform="scale(0.015625)"/>
       </defs>
       <use xlink:href="#DejaVuSans-30"/>
       <use xlink:href="#DejaVuSans-2e" x="63.623047"/>
       <use xlink:href="#DejaVuSans-30" x="95.410156"/>
      </g>
     </g>
    </g>
    <g id="xtick_2">
     <g id="line2d_2">
      <g>
       <use xlink:href="#m48aa99b5a1" x="102.09375" y="174.04" style="stroke: #000000; stroke-width: 0.8"/>
      </g>
     </g>
     <g id="text_2">
      <!-- 0.5 -->
      <g transform="translate(94.142188 188.638438)scale(0.1 -0.1)">
       <defs>
        <path id="DejaVuSans-35" d="M 691 4666 
L 3169 4666 
L 3169 4134 
L 1269 4134 
L 1269 2991 
Q 1406 3038 1543 3061 
Q 1681 3084 1819 3084 
Q 2600 3084 3056 2656 
Q 3513 2228 3513 1497 
Q 3513 744 3044 326 
Q 2575 -91 1722 -91 
Q 1428 -91 1123 -41 
Q 819 9 494 109 
L 494 744 
Q 775 591 1075 516 
Q 1375 441 1709 441 
Q 2250 441 2565 725 
Q 2881 1009 2881 1497 
Q 2881 1984 2565 2268 
Q 2250 2553 1709 2553 
Q 1456 2553 1204 2497 
Q 953 2441 691 2322 
L 691 4666 
z
" transform="scale(0.015625)"/>
       </defs>
       <use xlink:href="#DejaVuSans-30"/>
       <use xlink:href="#DejaVuSans-2e" x="63.623047"/>
       <use xlink:href="#DejaVuSans-35" x="95.410156"/>
      </g>
     </g>
    </g>
    <g id="xtick_3">
     <g id="line2d_3">
      <g>
       <use xlink:href="#m48aa99b5a1" x="156.4675" y="174.04" style="stroke: #000000; stroke-width: 0.8"/>
      </g>
     </g>
     <g id="text_3">
      <!-- 1.0 -->
      <g transform="translate(148.515938 188.638438)scale(0.1 -0.1)">
       <defs>
        <path id="DejaVuSans-31" d="M 794 531 
L 1825 531 
L 1825 4091 
L 703 3866 
L 703 4441 
L 1819 4666 
L 2450 4666 
L 2450 531 
L 3481 531 
L 3481 0 
L 794 0 
L 794 531 
z
" transform="scale(0.015625)"/>
       </defs>
       <use xlink:href="#DejaVuSans-31"/>
       <use xlink:href="#DejaVuSans-2e" x="63.623047"/>
       <use xlink:href="#DejaVuSans-30" x="95.410156"/>
      </g>
     </g>
    </g>
    <g id="xtick_4">
     <g id="line2d_4">
      <g>
       <use xlink:href="#m48aa99b5a1" x="210.84125" y="174.04" style="stroke: #000000; stroke-width: 0.8"/>
      </g>
     </g>
     <g id="text_4">
      <!-- 1.5 -->
      <g transform="translate(202.889687 188.638438)scale(0.1 -0.1)">
       <use xlink:href="#DejaVuSans-31"/>
       <use xlink:href="#DejaVuSans-2e" x="63.623047"/>
       <use xlink:href="#DejaVuSans-35" x="95.410156"/>
      </g>
     </g>
    </g>
    <g id="xtick_5">
     <g id="line2d_5">
      <g>
       <use xlink:href="#m48aa99b5a1" x="265.215" y="174.04" style="stroke: #000000; stroke-width: 0.8"/>
      </g>
     </g>
     <g id="text_5">
      <!-- 2.0 -->
      <g transform="translate(257.263437 188.638438)scale(0.1 -0.1)">
       <defs>
        <path id="DejaVuSans-32" d="M 1228 531 
L 3431 531 
L 3431 0 
L 469 0 
L 469 531 
Q 828 903 1448 1529 
Q 2069 2156 2228 2338 
Q 2531 2678 2651 2914 
Q 2772 3150 2772 3378 
Q 2772 3750 2511 3984 
Q 2250 4219 1831 4219 
Q 1534 4219 1204 4116 
Q 875 4013 500 3803 
L 500 4441 
Q 881 4594 1212 4672 
Q 1544 4750 1819 4750 
Q 2544 4750 2975 4387 
Q 3406 4025 3406 3419 
Q 3406 3131 3298 2873 
Q 3191 2616 2906 2266 
Q 2828 2175 2409 1742 
Q 1991 1309 1228 531 
z
" transform="scale(0.015625)"/>
       </defs>
       <use xlink:href="#DejaVuSans-32"/>
       <use xlink:href="#DejaVuSans-2e" x="63.623047"/>
       <use xlink:href="#DejaVuSans-30" x="95.410156"/>
      </g>
     </g>
    </g>
    <g id="text_6">
     <!-- Influence of surprisal (multiplication) -->
     <g transform="translate(64.320625 202.316563)scale(0.1 -0.1)">
      <defs>
       <path id="DejaVuSans-49" d="M 628 4666 
L 1259 4666 
L 1259 0 
L 628 0 
L 628 4666 
z
" transform="scale(0.015625)"/>
       <path id="DejaVuSans-6e" d="M 3513 2113 
L 3513 0 
L 2938 0 
L 2938 2094 
Q 2938 2591 2744 2837 
Q 2550 3084 2163 3084 
Q 1697 3084 1428 2787 
Q 1159 2491 1159 1978 
L 1159 0 
L 581 0 
L 581 3500 
L 1159 3500 
L 1159 2956 
Q 1366 3272 1645 3428 
Q 1925 3584 2291 3584 
Q 2894 3584 3203 3211 
Q 3513 2838 3513 2113 
z
" transform="scale(0.015625)"/>
       <path id="DejaVuSans-66" d="M 2375 4863 
L 2375 4384 
L 1825 4384 
Q 1516 4384 1395 4259 
Q 1275 4134 1275 3809 
L 1275 3500 
L 2222 3500 
L 2222 3053 
L 1275 3053 
L 1275 0 
L 697 0 
L 697 3053 
L 147 3053 
L 147 3500 
L 697 3500 
L 697 3744 
Q 697 4328 969 4595 
Q 1241 4863 1831 4863 
L 2375 4863 
z
" transform="scale(0.015625)"/>
       <path id="DejaVuSans-6c" d="M 603 4863 
L 1178 4863 
L 1178 0 
L 603 0 
L 603 4863 
z
" transform="scale(0.015625)"/>
       <path id="DejaVuSans-75" d="M 544 1381 
L 544 3500 
L 1119 3500 
L 1119 1403 
Q 1119 906 1312 657 
Q 1506 409 1894 409 
Q 2359 409 2629 706 
Q 2900 1003 2900 1516 
L 2900 3500 
L 3475 3500 
L 3475 0 
L 2900 0 
L 2900 538 
Q 2691 219 2414 64 
Q 2138 -91 1772 -91 
Q 1169 -91 856 284 
Q 544 659 544 1381 
z
M 1991 3584 
L 1991 3584 
z
" transform="scale(0.015625)"/>
       <path id="DejaVuSans-65" d="M 3597 1894 
L 3597 1613 
L 953 1613 
Q 991 1019 1311 708 
Q 1631 397 2203 397 
Q 2534 397 2845 478 
Q 3156 559 3463 722 
L 3463 178 
Q 3153 47 2828 -22 
Q 2503 -91 2169 -91 
Q 1331 -91 842 396 
Q 353 884 353 1716 
Q 353 2575 817 3079 
Q 1281 3584 2069 3584 
Q 2775 3584 3186 3129 
Q 3597 2675 3597 1894 
z
M 3022 2063 
Q 3016 2534 2758 2815 
Q 2500 3097 2075 3097 
Q 1594 3097 1305 2825 
Q 1016 2553 972 2059 
L 3022 2063 
z
" transform="scale(0.015625)"/>
       <path id="DejaVuSans-63" d="M 3122 3366 
L 3122 2828 
Q 2878 2963 2633 3030 
Q 2388 3097 2138 3097 
Q 1578 3097 1268 2742 
Q 959 2388 959 1747 
Q 959 1106 1268 751 
Q 1578 397 2138 397 
Q 2388 397 2633 464 
Q 2878 531 3122 666 
L 3122 134 
Q 2881 22 2623 -34 
Q 2366 -91 2075 -91 
Q 1284 -91 818 406 
Q 353 903 353 1747 
Q 353 2603 823 3093 
Q 1294 3584 2113 3584 
Q 2378 3584 2631 3529 
Q 2884 3475 3122 3366 
z
" transform="scale(0.015625)"/>
       <path id="DejaVuSans-20" transform="scale(0.015625)"/>
       <path id="DejaVuSans-6f" d="M 1959 3097 
Q 1497 3097 1228 2736 
Q 959 2375 959 1747 
Q 959 1119 1226 758 
Q 1494 397 1959 397 
Q 2419 397 2687 759 
Q 2956 1122 2956 1747 
Q 2956 2369 2687 2733 
Q 2419 3097 1959 3097 
z
M 1959 3584 
Q 2709 3584 3137 3096 
Q 3566 2609 3566 1747 
Q 3566 888 3137 398 
Q 2709 -91 1959 -91 
Q 1206 -91 779 398 
Q 353 888 353 1747 
Q 353 2609 779 3096 
Q 1206 3584 1959 3584 
z
" transform="scale(0.015625)"/>
       <path id="DejaVuSans-73" d="M 2834 3397 
L 2834 2853 
Q 2591 2978 2328 3040 
Q 2066 3103 1784 3103 
Q 1356 3103 1142 2972 
Q 928 2841 928 2578 
Q 928 2378 1081 2264 
Q 1234 2150 1697 2047 
L 1894 2003 
Q 2506 1872 2764 1633 
Q 3022 1394 3022 966 
Q 3022 478 2636 193 
Q 2250 -91 1575 -91 
Q 1294 -91 989 -36 
Q 684 19 347 128 
L 347 722 
Q 666 556 975 473 
Q 1284 391 1588 391 
Q 1994 391 2212 530 
Q 2431 669 2431 922 
Q 2431 1156 2273 1281 
Q 2116 1406 1581 1522 
L 1381 1569 
Q 847 1681 609 1914 
Q 372 2147 372 2553 
Q 372 3047 722 3315 
Q 1072 3584 1716 3584 
Q 2034 3584 2315 3537 
Q 2597 3491 2834 3397 
z
" transform="scale(0.015625)"/>
       <path id="DejaVuSans-72" d="M 2631 2963 
Q 2534 3019 2420 3045 
Q 2306 3072 2169 3072 
Q 1681 3072 1420 2755 
Q 1159 2438 1159 1844 
L 1159 0 
L 581 0 
L 581 3500 
L 1159 3500 
L 1159 2956 
Q 1341 3275 1631 3429 
Q 1922 3584 2338 3584 
Q 2397 3584 2469 3576 
Q 2541 3569 2628 3553 
L 2631 2963 
z
" transform="scale(0.015625)"/>
       <path id="DejaVuSans-70" d="M 1159 525 
L 1159 -1331 
L 581 -1331 
L 581 3500 
L 1159 3500 
L 1159 2969 
Q 1341 3281 1617 3432 
Q 1894 3584 2278 3584 
Q 2916 3584 3314 3078 
Q 3713 2572 3713 1747 
Q 3713 922 3314 415 
Q 2916 -91 2278 -91 
Q 1894 -91 1617 61 
Q 1341 213 1159 525 
z
M 3116 1747 
Q 3116 2381 2855 2742 
Q 2594 3103 2138 3103 
Q 1681 3103 1420 2742 
Q 1159 2381 1159 1747 
Q 1159 1113 1420 752 
Q 1681 391 2138 391 
Q 2594 391 2855 752 
Q 3116 1113 3116 1747 
z
" transform="scale(0.015625)"/>
       <path id="DejaVuSans-69" d="M 603 3500 
L 1178 3500 
L 1178 0 
L 603 0 
L 603 3500 
z
M 603 4863 
L 1178 4863 
L 1178 4134 
L 603 4134 
L 603 4863 
z
" transform="scale(0.015625)"/>
       <path id="DejaVuSans-61" d="M 2194 1759 
Q 1497 1759 1228 1600 
Q 959 1441 959 1056 
Q 959 750 1161 570 
Q 1363 391 1709 391 
Q 2188 391 2477 730 
Q 2766 1069 2766 1631 
L 2766 1759 
L 2194 1759 
z
M 3341 1997 
L 3341 0 
L 2766 0 
L 2766 531 
Q 2569 213 2275 61 
Q 1981 -91 1556 -91 
Q 1019 -91 701 211 
Q 384 513 384 1019 
Q 384 1609 779 1909 
Q 1175 2209 1959 2209 
L 2766 2209 
L 2766 2266 
Q 2766 2663 2505 2880 
Q 2244 3097 1772 3097 
Q 1472 3097 1187 3025 
Q 903 2953 641 2809 
L 641 3341 
Q 956 3463 1253 3523 
Q 1550 3584 1831 3584 
Q 2591 3584 2966 3190 
Q 3341 2797 3341 1997 
z
" transform="scale(0.015625)"/>
       <path id="DejaVuSans-28" d="M 1984 4856 
Q 1566 4138 1362 3434 
Q 1159 2731 1159 2009 
Q 1159 1288 1364 580 
Q 1569 -128 1984 -844 
L 1484 -844 
Q 1016 -109 783 600 
Q 550 1309 550 2009 
Q 550 2706 781 3412 
Q 1013 4119 1484 4856 
L 1984 4856 
z
" transform="scale(0.015625)"/>
       <path id="DejaVuSans-6d" d="M 3328 2828 
Q 3544 3216 3844 3400 
Q 4144 3584 4550 3584 
Q 5097 3584 5394 3201 
Q 5691 2819 5691 2113 
L 5691 0 
L 5113 0 
L 5113 2094 
Q 5113 2597 4934 2840 
Q 4756 3084 4391 3084 
Q 3944 3084 3684 2787 
Q 3425 2491 3425 1978 
L 3425 0 
L 2847 0 
L 2847 2094 
Q 2847 2600 2669 2842 
Q 2491 3084 2119 3084 
Q 1678 3084 1418 2786 
Q 1159 2488 1159 1978 
L 1159 0 
L 581 0 
L 581 3500 
L 1159 3500 
L 1159 2956 
Q 1356 3278 1631 3431 
Q 1906 3584 2284 3584 
Q 2666 3584 2933 3390 
Q 3200 3197 3328 2828 
z
" transform="scale(0.015625)"/>
       <path id="DejaVuSans-74" d="M 1172 4494 
L 1172 3500 
L 2356 3500 
L 2356 3053 
L 1172 3053 
L 1172 1153 
Q 1172 725 1289 603 
Q 1406 481 1766 481 
L 2356 481 
L 2356 0 
L 1766 0 
Q 1100 0 847 248 
Q 594 497 594 1153 
L 594 3053 
L 172 3053 
L 172 3500 
L 594 3500 
L 594 4494 
L 1172 4494 
z
" transform="scale(0.015625)"/>
       <path id="DejaVuSans-29" d="M 513 4856 
L 1013 4856 
Q 1481 4119 1714 3412 
Q 1947 2706 1947 2009 
Q 1947 1309 1714 600 
Q 1481 -109 1013 -844 
L 513 -844 
Q 928 -128 1133 580 
Q 1338 1288 1338 2009 
Q 1338 2731 1133 3434 
Q 928 4138 513 4856 
z
" transform="scale(0.015625)"/>
      </defs>
      <use xlink:href="#DejaVuSans-49"/>
      <use xlink:href="#DejaVuSans-6e" x="29.492188"/>
      <use xlink:href="#DejaVuSans-66" x="92.871094"/>
      <use xlink:href="#DejaVuSans-6c" x="128.076172"/>
      <use xlink:href="#DejaVuSans-75" x="155.859375"/>
      <use xlink:href="#DejaVuSans-65" x="219.238281"/>
      <use xlink:href="#DejaVuSans-6e" x="280.761719"/>
      <use xlink:href="#DejaVuSans-63" x="344.140625"/>
      <use xlink:href="#DejaVuSans-65" x="399.121094"/>
      <use xlink:href="#DejaVuSans-20" x="460.644531"/>
      <use xlink:href="#DejaVuSans-6f" x="492.431641"/>
      <use xlink:href="#DejaVuSans-66" x="553.613281"/>
      <use xlink:href="#DejaVuSans-20" x="588.818359"/>
      <use xlink:href="#DejaVuSans-73" x="620.605469"/>
      <use xlink:href="#DejaVuSans-75" x="672.705078"/>
      <use xlink:href="#DejaVuSans-72" x="736.083984"/>
      <use xlink:href="#DejaVuSans-70" x="777.197266"/>
      <use xlink:href="#DejaVuSans-72" x="840.673828"/>
      <use xlink:href="#DejaVuSans-69" x="881.787109"/>
      <use xlink:href="#DejaVuSans-73" x="909.570312"/>
      <use xlink:href="#DejaVuSans-61" x="961.669922"/>
      <use xlink:href="#DejaVuSans-6c" x="1022.949219"/>
      <use xlink:href="#DejaVuSans-20" x="1050.732422"/>
      <use xlink:href="#DejaVuSans-28" x="1082.519531"/>
      <use xlink:href="#DejaVuSans-6d" x="1121.533203"/>
      <use xlink:href="#DejaVuSans-75" x="1218.945312"/>
      <use xlink:href="#DejaVuSans-6c" x="1282.324219"/>
      <use xlink:href="#DejaVuSans-74" x="1310.107422"/>
      <use xlink:href="#DejaVuSans-69" x="1349.316406"/>
      <use xlink:href="#DejaVuSans-70" x="1377.099609"/>
      <use xlink:href="#DejaVuSans-6c" x="1440.576172"/>
      <use xlink:href="#DejaVuSans-69" x="1468.359375"/>
      <use xlink:href="#DejaVuSans-63" x="1496.142578"/>
      <use xlink:href="#DejaVuSans-61" x="1551.123047"/>
      <use xlink:href="#DejaVuSans-74" x="1612.402344"/>
      <use xlink:href="#DejaVuSans-69" x="1651.611328"/>
      <use xlink:href="#DejaVuSans-6f" x="1679.394531"/>
      <use xlink:href="#DejaVuSans-6e" x="1740.576172"/>
      <use xlink:href="#DejaVuSans-29" x="1803.955078"/>
     </g>
    </g>
   </g>
   <g id="matplotlib.axis_2">
    <g id="ytick_1">
     <g id="line2d_6">
      <defs>
       <path id="mde2b698c2e" d="M 0 0 
L -3.5 0 
" style="stroke: #000000; stroke-width: 0.8"/>
      </defs>
      <g>
       <use xlink:href="#mde2b698c2e" x="47.72" y="143.705317" style="stroke: #000000; stroke-width: 0.8"/>
      </g>
     </g>
     <g id="text_7">
      <!-- 0.4 -->
      <g transform="translate(24.816875 147.504536)scale(0.1 -0.1)">
       <defs>
        <path id="DejaVuSans-34" d="M 2419 4116 
L 825 1625 
L 2419 1625 
L 2419 4116 
z
M 2253 4666 
L 3047 4666 
L 3047 1625 
L 3713 1625 
L 3713 1100 
L 3047 1100 
L 3047 0 
L 2419 0 
L 2419 1100 
L 313 1100 
L 313 1709 
L 2253 4666 
z
" transform="scale(0.015625)"/>
       </defs>
       <use xlink:href="#DejaVuSans-30"/>
       <use xlink:href="#DejaVuSans-2e" x="63.623047"/>
       <use xlink:href="#DejaVuSans-34" x="95.410156"/>
      </g>
     </g>
    </g>
    <g id="ytick_2">
     <g id="line2d_7">
      <g>
       <use xlink:href="#mde2b698c2e" x="47.72" y="106.99324" style="stroke: #000000; stroke-width: 0.8"/>
      </g>
     </g>
     <g id="text_8">
      <!-- 0.6 -->
      <g transform="translate(24.816875 110.792459)scale(0.1 -0.1)">
       <defs>
        <path id="DejaVuSans-36" d="M 2113 2584 
Q 1688 2584 1439 2293 
Q 1191 2003 1191 1497 
Q 1191 994 1439 701 
Q 1688 409 2113 409 
Q 2538 409 2786 701 
Q 3034 994 3034 1497 
Q 3034 2003 2786 2293 
Q 2538 2584 2113 2584 
z
M 3366 4563 
L 3366 3988 
Q 3128 4100 2886 4159 
Q 2644 4219 2406 4219 
Q 1781 4219 1451 3797 
Q 1122 3375 1075 2522 
Q 1259 2794 1537 2939 
Q 1816 3084 2150 3084 
Q 2853 3084 3261 2657 
Q 3669 2231 3669 1497 
Q 3669 778 3244 343 
Q 2819 -91 2113 -91 
Q 1303 -91 875 529 
Q 447 1150 447 2328 
Q 447 3434 972 4092 
Q 1497 4750 2381 4750 
Q 2619 4750 2861 4703 
Q 3103 4656 3366 4563 
z
" transform="scale(0.015625)"/>
       </defs>
       <use xlink:href="#DejaVuSans-30"/>
       <use xlink:href="#DejaVuSans-2e" x="63.623047"/>
       <use xlink:href="#DejaVuSans-36" x="95.410156"/>
      </g>
     </g>
    </g>
    <g id="ytick_3">
     <g id="line2d_8">
      <g>
       <use xlink:href="#mde2b698c2e" x="47.72" y="70.281164" style="stroke: #000000; stroke-width: 0.8"/>
      </g>
     </g>
     <g id="text_9">
      <!-- 0.8 -->
      <g transform="translate(24.816875 74.080383)scale(0.1 -0.1)">
       <defs>
        <path id="DejaVuSans-38" d="M 2034 2216 
Q 1584 2216 1326 1975 
Q 1069 1734 1069 1313 
Q 1069 891 1326 650 
Q 1584 409 2034 409 
Q 2484 409 2743 651 
Q 3003 894 3003 1313 
Q 3003 1734 2745 1975 
Q 2488 2216 2034 2216 
z
M 1403 2484 
Q 997 2584 770 2862 
Q 544 3141 544 3541 
Q 544 4100 942 4425 
Q 1341 4750 2034 4750 
Q 2731 4750 3128 4425 
Q 3525 4100 3525 3541 
Q 3525 3141 3298 2862 
Q 3072 2584 2669 2484 
Q 3125 2378 3379 2068 
Q 3634 1759 3634 1313 
Q 3634 634 3220 271 
Q 2806 -91 2034 -91 
Q 1263 -91 848 271 
Q 434 634 434 1313 
Q 434 1759 690 2068 
Q 947 2378 1403 2484 
z
M 1172 3481 
Q 1172 3119 1398 2916 
Q 1625 2713 2034 2713 
Q 2441 2713 2670 2916 
Q 2900 3119 2900 3481 
Q 2900 3844 2670 4047 
Q 2441 4250 2034 4250 
Q 1625 4250 1398 4047 
Q 1172 3844 1172 3481 
z
" transform="scale(0.015625)"/>
       </defs>
       <use xlink:href="#DejaVuSans-30"/>
       <use xlink:href="#DejaVuSans-2e" x="63.623047"/>
       <use xlink:href="#DejaVuSans-38" x="95.410156"/>
      </g>
     </g>
    </g>
    <g id="ytick_4">
     <g id="line2d_9">
      <g>
       <use xlink:href="#mde2b698c2e" x="47.72" y="33.569088" style="stroke: #000000; stroke-width: 0.8"/>
      </g>
     </g>
     <g id="text_10">
      <!-- 1.0 -->
      <g transform="translate(24.816875 37.368307)scale(0.1 -0.1)">
       <use xlink:href="#DejaVuSans-31"/>
       <use xlink:href="#DejaVuSans-2e" x="63.623047"/>
       <use xlink:href="#DejaVuSans-30" x="95.410156"/>
      </g>
     </g>
    </g>
    <g id="text_11">
     <!-- R-value -->
     <g transform="translate(18.737188 119.064687)rotate(-90)scale(0.1 -0.1)">
      <defs>
       <path id="DejaVuSans-52" d="M 2841 2188 
Q 3044 2119 3236 1894 
Q 3428 1669 3622 1275 
L 4263 0 
L 3584 0 
L 2988 1197 
Q 2756 1666 2539 1819 
Q 2322 1972 1947 1972 
L 1259 1972 
L 1259 0 
L 628 0 
L 628 4666 
L 2053 4666 
Q 2853 4666 3247 4331 
Q 3641 3997 3641 3322 
Q 3641 2881 3436 2590 
Q 3231 2300 2841 2188 
z
M 1259 4147 
L 1259 2491 
L 2053 2491 
Q 2509 2491 2742 2702 
Q 2975 2913 2975 3322 
Q 2975 3731 2742 3939 
Q 2509 4147 2053 4147 
L 1259 4147 
z
" transform="scale(0.015625)"/>
       <path id="DejaVuSans-2d" d="M 313 2009 
L 1997 2009 
L 1997 1497 
L 313 1497 
L 313 2009 
z
" transform="scale(0.015625)"/>
       <path id="DejaVuSans-76" d="M 191 3500 
L 800 3500 
L 1894 563 
L 2988 3500 
L 3597 3500 
L 2284 0 
L 1503 0 
L 191 3500 
z
" transform="scale(0.015625)"/>
      </defs>
      <use xlink:href="#DejaVuSans-52"/>
      <use xlink:href="#DejaVuSans-2d" x="65.482422"/>
      <use xlink:href="#DejaVuSans-76" x="98.941406"/>
      <use xlink:href="#DejaVuSans-61" x="158.121094"/>
      <use xlink:href="#DejaVuSans-6c" x="219.400391"/>
      <use xlink:href="#DejaVuSans-75" x="247.183594"/>
      <use xlink:href="#DejaVuSans-65" x="310.5625"/>
     </g>
    </g>
   </g>
   <g id="line2d_10">
    <path d="M 47.72 33.569092 
L 59.167105 34.483436 
L 70.614211 37.259149 
L 82.061316 41.193255 
L 93.508421 46.432391 
L 104.955526 52.464283 
L 116.402632 59.388791 
L 127.849737 66.308117 
L 139.296842 73.942133 
L 150.743947 81.037013 
L 162.191053 88.296754 
L 173.638158 95.3665 
L 185.085263 102.363806 
L 196.532368 108.960152 
L 207.979474 115.227667 
L 219.426579 121.164467 
L 230.873684 127.260043 
L 242.320789 132.755848 
L 253.767895 138.150276 
L 265.215 142.832268 
" clip-path="url(#pd37e0d3e6d)" style="fill: none; stroke: #1f77b4; stroke-width: 1.5; stroke-linecap: square"/>
   </g>
   <g id="line2d_11">
    <path d="M 47.72 33.569278 
L 59.167105 34.163722 
L 70.614211 35.622383 
L 82.061316 37.766949 
L 93.508421 40.839367 
L 104.955526 44.53257 
L 116.402632 49.257721 
L 127.849737 54.293642 
L 139.296842 60.285775 
L 150.743947 66.151219 
L 162.191053 72.539337 
L 173.638158 78.846987 
L 185.085263 85.180815 
L 196.532368 91.326109 
L 207.979474 97.274395 
L 219.426579 102.938184 
L 230.873684 108.835724 
L 242.320789 114.327368 
L 253.767895 119.571759 
L 265.215 124.549939 
" clip-path="url(#pd37e0d3e6d)" style="fill: none; stroke: #ff7f0e; stroke-width: 1.5; stroke-linecap: square"/>
   </g>
   <g id="line2d_12">
    <path d="M 47.72 33.569104 
L 59.167105 34.282037 
L 70.614211 35.561914 
L 82.061316 37.382873 
L 93.508421 39.665222 
L 104.955526 42.393902 
L 116.402632 45.439963 
L 127.849737 48.640816 
L 139.296842 52.088186 
L 150.743947 55.475013 
L 162.191053 59.004242 
L 173.638158 62.151427 
L 185.085263 65.732364 
L 196.532368 68.910999 
L 207.979474 72.363628 
L 219.426579 75.816914 
L 230.873684 79.103328 
L 242.320789 82.6531 
L 253.767895 85.826734 
L 265.215 89.200904 
" clip-path="url(#pd37e0d3e6d)" style="fill: none; stroke: #2ca02c; stroke-width: 1.5; stroke-linecap: square"/>
   </g>
   <g id="line2d_13">
    <path d="M 47.72 33.570109 
L 59.167105 34.135549 
L 70.614211 35.082149 
L 82.061316 36.438376 
L 93.508421 38.242352 
L 104.955526 40.425033 
L 116.402632 43.110893 
L 127.849737 46.022663 
L 139.296842 49.428853 
L 150.743947 52.828683 
L 162.191053 56.503404 
L 173.638158 59.842873 
L 185.085263 63.580068 
L 196.532368 66.901982 
L 207.979474 70.535871 
L 219.426579 74.104958 
L 230.873684 77.504159 
L 242.320789 81.182615 
L 253.767895 84.475941 
L 265.215 87.904546 
" clip-path="url(#pd37e0d3e6d)" style="fill: none; stroke: #d62728; stroke-width: 1.5; stroke-linecap: square"/>
   </g>
   <g id="line2d_14">
    <path d="M 47.72 33.569104 
L 59.167105 34.484038 
L 70.614211 37.276514 
L 82.061316 41.195732 
L 93.508421 46.515253 
L 104.955526 52.474448 
L 116.402632 59.390177 
L 127.849737 66.452448 
L 139.296842 74.045403 
L 150.743947 81.2866 
L 162.191053 88.361624 
L 173.638158 95.557839 
L 185.085263 102.430075 
L 196.532368 109.073994 
L 207.979474 115.700564 
L 219.426579 121.172243 
L 230.873684 127.341723 
L 242.320789 132.838563 
L 253.767895 138.089447 
L 265.215 143.230707 
" clip-path="url(#pd37e0d3e6d)" style="fill: none; stroke: #9467bd; stroke-width: 1.5; stroke-linecap: square"/>
   </g>
   <g id="line2d_15">
    <path d="M 47.72 33.56985 
L 59.167105 34.16447 
L 70.614211 35.635322 
L 82.061316 37.761726 
L 93.508421 40.880611 
L 104.955526 44.534789 
L 116.402632 49.280323 
L 127.849737 54.392691 
L 139.296842 60.305384 
L 150.743947 66.216011 
L 162.191053 72.596348 
L 173.638158 78.909322 
L 185.085263 85.201196 
L 196.532368 91.379959 
L 207.979474 97.578837 
L 219.426579 102.932749 
L 230.873684 108.894852 
L 242.320789 114.460985 
L 253.767895 119.425425 
L 265.215 124.853755 
" clip-path="url(#pd37e0d3e6d)" style="fill: none; stroke: #8c564b; stroke-width: 1.5; stroke-linecap: square"/>
   </g>
   <g id="line2d_16">
    <path d="M 47.72 48.339304 
L 59.167105 49.575652 
L 70.614211 52.812516 
L 82.061316 57.869357 
L 93.508421 64.104604 
L 104.955526 71.454733 
L 116.402632 79.264828 
L 127.849737 87.379814 
L 139.296842 95.470351 
L 150.743947 103.147101 
L 162.191053 110.601249 
L 173.638158 117.612209 
L 185.085263 124.357572 
L 196.532368 130.698996 
L 207.979474 136.118513 
L 219.426579 141.743581 
L 230.873684 146.910671 
L 242.320789 151.747301 
L 253.767895 156.356771 
L 265.215 160.388427 
" clip-path="url(#pd37e0d3e6d)" style="fill: none; stroke: #e377c2; stroke-width: 1.5; stroke-linecap: square"/>
   </g>
   <g id="line2d_17">
    <path d="M 47.72 33.569488 
L 59.167105 33.843248 
L 70.614211 34.011149 
L 82.061316 34.444552 
L 93.508421 35.470332 
L 104.955526 37.25711 
L 116.402632 40.111193 
L 127.849737 43.671768 
L 139.296842 48.305384 
L 150.743947 53.297674 
L 162.191053 59.014729 
L 173.638158 64.789071 
L 185.085263 70.722376 
L 196.532368 76.727268 
L 207.979474 82.616041 
L 219.426579 88.331025 
L 230.873684 94.291337 
L 242.320789 99.978365 
L 253.767895 105.368429 
L 265.215 110.835974 
" clip-path="url(#pd37e0d3e6d)" style="fill: none; stroke: #7f7f7f; stroke-width: 1.5; stroke-linecap: square"/>
   </g>
   <g id="patch_3">
    <path d="M 47.72 174.04 
L 47.72 26.88 
" style="fill: none; stroke: #000000; stroke-width: 0.8; stroke-linejoin: miter; stroke-linecap: square"/>
   </g>
   <g id="patch_4">
    <path d="M 47.72 174.04 
L 265.215 174.04 
" style="fill: none; stroke: #000000; stroke-width: 0.8; stroke-linejoin: miter; stroke-linecap: square"/>
   </g>
   <g id="text_12">
    <!-- Node * surprisal -->
    <g transform="translate(108.18625 20.88)scale(0.12 -0.12)">
     <defs>
      <path id="DejaVuSans-4e" d="M 628 4666 
L 1478 4666 
L 3547 763 
L 3547 4666 
L 4159 4666 
L 4159 0 
L 3309 0 
L 1241 3903 
L 1241 0 
L 628 0 
L 628 4666 
z
" transform="scale(0.015625)"/>
      <path id="DejaVuSans-64" d="M 2906 2969 
L 2906 4863 
L 3481 4863 
L 3481 0 
L 2906 0 
L 2906 525 
Q 2725 213 2448 61 
Q 2172 -91 1784 -91 
Q 1150 -91 751 415 
Q 353 922 353 1747 
Q 353 2572 751 3078 
Q 1150 3584 1784 3584 
Q 2172 3584 2448 3432 
Q 2725 3281 2906 2969 
z
M 947 1747 
Q 947 1113 1208 752 
Q 1469 391 1925 391 
Q 2381 391 2643 752 
Q 2906 1113 2906 1747 
Q 2906 2381 2643 2742 
Q 2381 3103 1925 3103 
Q 1469 3103 1208 2742 
Q 947 2381 947 1747 
z
" transform="scale(0.015625)"/>
      <path id="DejaVuSans-2a" d="M 3009 3897 
L 1888 3291 
L 3009 2681 
L 2828 2375 
L 1778 3009 
L 1778 1831 
L 1422 1831 
L 1422 3009 
L 372 2375 
L 191 2681 
L 1313 3291 
L 191 3897 
L 372 4206 
L 1422 3572 
L 1422 4750 
L 1778 4750 
L 1778 3572 
L 2828 4206 
L 3009 3897 
z
" transform="scale(0.015625)"/>
     </defs>
     <use xlink:href="#DejaVuSans-4e"/>
     <use xlink:href="#DejaVuSans-6f" x="74.804688"/>
     <use xlink:href="#DejaVuSans-64" x="135.986328"/>
     <use xlink:href="#DejaVuSans-65" x="199.462891"/>
     <use xlink:href="#DejaVuSans-20" x="260.986328"/>
     <use xlink:href="#DejaVuSans-2a" x="292.773438"/>
     <use xlink:href="#DejaVuSans-20" x="342.773438"/>
     <use xlink:href="#DejaVuSans-73" x="374.560547"/>
     <use xlink:href="#DejaVuSans-75" x="426.660156"/>
     <use xlink:href="#DejaVuSans-72" x="490.039062"/>
     <use xlink:href="#DejaVuSans-70" x="531.152344"/>
     <use xlink:href="#DejaVuSans-72" x="594.628906"/>
     <use xlink:href="#DejaVuSans-69" x="635.742188"/>
     <use xlink:href="#DejaVuSans-73" x="663.525391"/>
     <use xlink:href="#DejaVuSans-61" x="715.625"/>
     <use xlink:href="#DejaVuSans-6c" x="776.904297"/>
    </g>
   </g>
  </g>
  <g id="axes_2">
   <g id="patch_5">
    <path d="M 298.065 174.04 
L 515.56 174.04 
L 515.56 26.88 
L 298.065 26.88 
z
" style="fill: #ffffff"/>
   </g>
   <g id="PolyCollection_9">
    <path d="M 298.065 33.569091 
L 298.065 33.569093 
L 309.512105 34.749529 
L 320.959211 37.947079 
L 332.406316 42.826299 
L 343.853421 48.605884 
L 355.300526 56.345911 
L 366.747632 64.155778 
L 378.194737 72.566043 
L 389.641842 81.146209 
L 401.088947 89.70969 
L 412.536053 98.022607 
L 423.983158 105.673837 
L 435.430263 113.388078 
L 446.877368 120.131392 
L 458.324474 126.727728 
L 469.771579 132.518589 
L 481.218684 138.07042 
L 492.665789 143.608483 
L 504.112895 148.465607 
L 515.56 153.168701 
L 515.56 134.660928 
L 515.56 134.660928 
L 504.112895 130.182054 
L 492.665789 124.753931 
L 481.218684 118.63352 
L 469.771579 113.682447 
L 458.324474 107.607134 
L 446.877368 101.209311 
L 435.430263 95.182679 
L 423.983158 88.409734 
L 412.536053 81.82049 
L 401.088947 74.304597 
L 389.641842 67.808167 
L 378.194737 61.222238 
L 366.747632 54.699825 
L 355.300526 48.997178 
L 343.853421 44.078025 
L 332.406316 39.599005 
L 320.959211 36.573127 
L 309.512105 34.256307 
L 298.065 33.569091 
z
" clip-path="url(#p6d6290775a)" style="fill: #1f77b4; fill-opacity: 0.4"/>
   </g>
   <g id="PolyCollection_10">
    <path d="M 298.065 33.569227 
L 298.065 33.569329 
L 309.512105 34.747474 
L 320.959211 37.933666 
L 332.406316 42.817774 
L 343.853421 48.574666 
L 355.300526 56.310084 
L 366.747632 64.074914 
L 378.194737 72.518963 
L 389.641842 81.106637 
L 401.088947 89.644675 
L 412.536053 97.990671 
L 423.983158 105.652963 
L 435.430263 113.434399 
L 446.877368 120.184297 
L 458.324474 126.82699 
L 469.771579 132.585473 
L 481.218684 138.2091 
L 492.665789 143.781341 
L 504.112895 148.674152 
L 515.56 153.426593 
L 515.56 134.83689 
L 515.56 134.83689 
L 504.112895 130.388298 
L 492.665789 125.027492 
L 481.218684 118.893411 
L 469.771579 113.90261 
L 458.324474 107.789541 
L 446.877368 101.384515 
L 435.430263 95.321523 
L 423.983158 88.518937 
L 412.536053 81.909402 
L 401.088947 74.399837 
L 389.641842 67.863136 
L 378.194737 61.268312 
L 366.747632 54.753364 
L 355.300526 49.038854 
L 343.853421 44.112626 
L 332.406316 39.616969 
L 320.959211 36.582505 
L 309.512105 34.258304 
L 298.065 33.569227 
z
" clip-path="url(#p6d6290775a)" style="fill: #ff7f0e; fill-opacity: 0.4"/>
   </g>
   <g id="PolyCollection_11">
    <path d="M 298.065 33.5691 
L 298.065 33.569108 
L 309.512105 34.750044 
L 320.959211 37.92661 
L 332.406316 42.787025 
L 343.853421 48.547275 
L 355.300526 56.270332 
L 366.747632 64.085323 
L 378.194737 72.508165 
L 389.641842 81.086642 
L 401.088947 89.642196 
L 412.536053 98.036959 
L 423.983158 105.713973 
L 435.430263 113.56978 
L 446.877368 120.359582 
L 458.324474 127.026265 
L 469.771579 132.826753 
L 481.218684 138.469057 
L 492.665789 144.08284 
L 504.112895 148.987062 
L 515.56 153.822231 
L 515.56 134.742902 
L 515.56 134.742902 
L 504.112895 130.297256 
L 492.665789 124.8817 
L 481.218684 118.771025 
L 469.771579 113.801849 
L 458.324474 107.705468 
L 446.877368 101.342677 
L 435.430263 95.29572 
L 423.983158 88.539678 
L 412.536053 82.001357 
L 401.088947 74.494605 
L 389.641842 67.991212 
L 378.194737 61.400941 
L 366.747632 54.839746 
L 355.300526 49.119556 
L 343.853421 44.154965 
L 332.406316 39.634608 
L 320.959211 36.589221 
L 309.512105 34.257773 
L 298.065 33.5691 
z
" clip-path="url(#p6d6290775a)" style="fill: #2ca02c; fill-opacity: 0.4"/>
   </g>
   <g id="PolyCollection_12">
    <path d="M 298.065 33.5698 
L 298.065 33.570418 
L 309.512105 34.753385 
L 320.959211 37.940544 
L 332.406316 42.829816 
L 343.853421 48.594942 
L 355.300526 56.338463 
L 366.747632 64.154409 
L 378.194737 72.614259 
L 389.641842 81.225563 
L 401.088947 89.806532 
L 412.536053 98.198611 
L 423.983158 105.913585 
L 435.430263 113.777766 
L 446.877368 120.606121 
L 458.324474 127.297724 
L 469.771579 133.124021 
L 481.218684 138.826346 
L 492.665789 144.410735 
L 504.112895 149.347097 
L 515.56 154.192277 
L 515.56 135.030944 
L 515.56 135.030944 
L 504.112895 130.561031 
L 492.665789 125.209635 
L 481.218684 119.068616 
L 469.771579 114.095588 
L 458.324474 107.979422 
L 446.877368 101.619006 
L 435.430263 95.529203 
L 423.983158 88.732698 
L 412.536053 82.155578 
L 401.088947 74.612678 
L 389.641842 68.083342 
L 378.194737 61.452887 
L 366.747632 54.872973 
L 355.300526 49.143543 
L 343.853421 44.176898 
L 332.406316 39.64845 
L 320.959211 36.59115 
L 309.512105 34.262287 
L 298.065 33.5698 
z
" clip-path="url(#p6d6290775a)" style="fill: #d62728; fill-opacity: 0.4"/>
   </g>
   <g id="PolyCollection_13">
    <path d="M 298.065 33.5691 
L 298.065 33.569108 
L 309.512105 34.754659 
L 320.959211 37.994136 
L 332.406316 42.839537 
L 343.853421 48.600287 
L 355.300526 56.295418 
L 366.747632 64.127681 
L 378.194737 72.621482 
L 389.641842 81.306063 
L 401.088947 89.572332 
L 412.536053 98.27632 
L 423.983158 105.566181 
L 435.430263 113.635487 
L 446.877368 120.535556 
L 458.324474 126.973036 
L 469.771579 132.609097 
L 481.218684 138.346314 
L 492.665789 144.00272 
L 504.112895 148.498873 
L 515.56 153.324759 
L 515.56 134.619416 
L 515.56 134.619416 
L 504.112895 130.45621 
L 492.665789 124.696271 
L 481.218684 118.478809 
L 469.771579 114.441394 
L 458.324474 108.098153 
L 446.877368 101.642652 
L 435.430263 95.36878 
L 423.983158 88.718704 
L 412.536053 81.771039 
L 401.088947 74.513136 
L 389.641842 67.75405 
L 378.194737 61.400149 
L 366.747632 54.820345 
L 355.300526 49.0336 
L 343.853421 44.072208 
L 332.406316 39.597251 
L 320.959211 36.567504 
L 309.512105 34.255765 
L 298.065 33.5691 
z
" clip-path="url(#p6d6290775a)" style="fill: #9467bd; fill-opacity: 0.4"/>
   </g>
   <g id="PolyCollection_14">
    <path d="M 298.065 33.56964 
L 298.065 33.570065 
L 309.512105 34.752844 
L 320.959211 37.983011 
L 332.406316 42.832619 
L 343.853421 48.573277 
L 355.300526 56.260063 
L 366.747632 64.053921 
L 378.194737 72.578135 
L 389.641842 81.275417 
L 401.088947 89.496392 
L 412.536053 98.238698 
L 423.983158 105.534183 
L 435.430263 113.673692 
L 446.877368 120.573137 
L 458.324474 127.076403 
L 469.771579 132.693137 
L 481.218684 138.511018 
L 492.665789 144.142366 
L 504.112895 148.682597 
L 515.56 153.591568 
L 515.56 134.738617 
L 515.56 134.738617 
L 504.112895 130.655953 
L 492.665789 124.930463 
L 481.218684 118.692252 
L 469.771579 114.683294 
L 458.324474 108.276134 
L 446.877368 101.832544 
L 435.430263 95.521959 
L 423.983158 88.812435 
L 412.536053 81.870444 
L 401.088947 74.612601 
L 389.641842 67.81585 
L 378.194737 61.453374 
L 366.747632 54.875371 
L 355.300526 49.082418 
L 343.853421 44.104903 
L 332.406316 39.614734 
L 320.959211 36.57782 
L 309.512105 34.258177 
L 298.065 33.56964 
z
" clip-path="url(#p6d6290775a)" style="fill: #8c564b; fill-opacity: 0.4"/>
   </g>
   <g id="PolyCollection_15">
    <path d="M 298.065 45.944891 
L 298.065 50.733716 
L 309.512105 51.614314 
L 320.959211 54.16357 
L 332.406316 58.381227 
L 343.853421 63.691153 
L 355.300526 70.941202 
L 366.747632 78.403815 
L 378.194737 86.343164 
L 389.641842 94.508007 
L 401.088947 102.59323 
L 412.536053 110.541733 
L 423.983158 117.604548 
L 435.430263 124.650533 
L 446.877368 131.138929 
L 458.324474 136.976794 
L 469.771579 142.529823 
L 481.218684 147.47033 
L 492.665789 152.4306 
L 504.112895 156.834135 
L 515.56 161.058193 
L 515.56 140.852411 
L 515.56 140.852411 
L 504.112895 136.628582 
L 492.665789 131.288936 
L 481.218684 125.664986 
L 469.771579 120.862847 
L 458.324474 114.994039 
L 446.877368 109.114806 
L 435.430263 103.380836 
L 423.983158 97.252599 
L 412.536053 91.119738 
L 401.088947 84.208679 
L 389.641842 78.316547 
L 378.194737 72.251486 
L 366.747632 66.561 
L 355.300526 61.254511 
L 343.853421 56.766256 
L 332.406316 52.454812 
L 320.959211 49.420704 
L 309.512105 46.764885 
L 298.065 45.944891 
z
" clip-path="url(#p6d6290775a)" style="fill: #e377c2; fill-opacity: 0.4"/>
   </g>
   <g id="PolyCollection_16">
    <path d="M 298.065 33.569365 
L 298.065 33.569612 
L 309.512105 34.748426 
L 320.959211 37.940096 
L 332.406316 42.804338 
L 343.853421 48.585053 
L 355.300526 56.295743 
L 366.747632 64.070504 
L 378.194737 72.500639 
L 389.641842 81.115115 
L 401.088947 89.636926 
L 412.536053 98.023076 
L 423.983158 105.698327 
L 435.430263 113.564643 
L 446.877368 120.325416 
L 458.324474 127.031542 
L 469.771579 132.792483 
L 481.218684 138.480975 
L 492.665789 144.153838 
L 504.112895 149.112709 
L 515.56 153.883343 
L 515.56 135.222906 
L 515.56 135.222906 
L 504.112895 130.719635 
L 492.665789 125.353937 
L 481.218684 119.272051 
L 469.771579 114.235641 
L 458.324474 108.110236 
L 446.877368 101.74087 
L 435.430263 95.624369 
L 423.983158 88.842372 
L 412.536053 82.223571 
L 401.088947 74.673873 
L 389.641842 68.067913 
L 378.194737 61.462146 
L 366.747632 54.905614 
L 355.300526 49.143765 
L 343.853421 44.198461 
L 332.406316 39.666335 
L 320.959211 36.599665 
L 309.512105 34.260998 
L 298.065 33.569365 
z
" clip-path="url(#p6d6290775a)" style="fill: #7f7f7f; fill-opacity: 0.4"/>
   </g>
   <g id="matplotlib.axis_3">
    <g id="xtick_6">
     <g id="line2d_18">
      <g>
       <use xlink:href="#m48aa99b5a1" x="298.065" y="174.04" style="stroke: #000000; stroke-width: 0.8"/>
      </g>
     </g>
     <g id="text_13">
      <!-- 0.0 -->
      <g transform="translate(290.113437 188.638438)scale(0.1 -0.1)">
       <use xlink:href="#DejaVuSans-30"/>
       <use xlink:href="#DejaVuSans-2e" x="63.623047"/>
       <use xlink:href="#DejaVuSans-30" x="95.410156"/>
      </g>
     </g>
    </g>
    <g id="xtick_7">
     <g id="line2d_19">
      <g>
       <use xlink:href="#m48aa99b5a1" x="352.43875" y="174.04" style="stroke: #000000; stroke-width: 0.8"/>
      </g>
     </g>
     <g id="text_14">
      <!-- 0.5 -->
      <g transform="translate(344.487187 188.638438)scale(0.1 -0.1)">
       <use xlink:href="#DejaVuSans-30"/>
       <use xlink:href="#DejaVuSans-2e" x="63.623047"/>
       <use xlink:href="#DejaVuSans-35" x="95.410156"/>
      </g>
     </g>
    </g>
    <g id="xtick_8">
     <g id="line2d_20">
      <g>
       <use xlink:href="#m48aa99b5a1" x="406.8125" y="174.04" style="stroke: #000000; stroke-width: 0.8"/>
      </g>
     </g>
     <g id="text_15">
      <!-- 1.0 -->
      <g transform="translate(398.860937 188.638438)scale(0.1 -0.1)">
       <use xlink:href="#DejaVuSans-31"/>
       <use xlink:href="#DejaVuSans-2e" x="63.623047"/>
       <use xlink:href="#DejaVuSans-30" x="95.410156"/>
      </g>
     </g>
    </g>
    <g id="xtick_9">
     <g id="line2d_21">
      <g>
       <use xlink:href="#m48aa99b5a1" x="461.18625" y="174.04" style="stroke: #000000; stroke-width: 0.8"/>
      </g>
     </g>
     <g id="text_16">
      <!-- 1.5 -->
      <g transform="translate(453.234687 188.638438)scale(0.1 -0.1)">
       <use xlink:href="#DejaVuSans-31"/>
       <use xlink:href="#DejaVuSans-2e" x="63.623047"/>
       <use xlink:href="#DejaVuSans-35" x="95.410156"/>
      </g>
     </g>
    </g>
    <g id="xtick_10">
     <g id="line2d_22">
      <g>
       <use xlink:href="#m48aa99b5a1" x="515.56" y="174.04" style="stroke: #000000; stroke-width: 0.8"/>
      </g>
     </g>
     <g id="text_17">
      <!-- 2.0 -->
      <g transform="translate(507.608437 188.638438)scale(0.1 -0.1)">
       <use xlink:href="#DejaVuSans-32"/>
       <use xlink:href="#DejaVuSans-2e" x="63.623047"/>
       <use xlink:href="#DejaVuSans-30" x="95.410156"/>
      </g>
     </g>
    </g>
    <g id="text_18">
     <!-- Influence of surprisal (multiplication) -->
     <g transform="translate(314.665625 202.316563)scale(0.1 -0.1)">
      <use xlink:href="#DejaVuSans-49"/>
      <use xlink:href="#DejaVuSans-6e" x="29.492188"/>
      <use xlink:href="#DejaVuSans-66" x="92.871094"/>
      <use xlink:href="#DejaVuSans-6c" x="128.076172"/>
      <use xlink:href="#DejaVuSans-75" x="155.859375"/>
      <use xlink:href="#DejaVuSans-65" x="219.238281"/>
      <use xlink:href="#DejaVuSans-6e" x="280.761719"/>
      <use xlink:href="#DejaVuSans-63" x="344.140625"/>
      <use xlink:href="#DejaVuSans-65" x="399.121094"/>
      <use xlink:href="#DejaVuSans-20" x="460.644531"/>
      <use xlink:href="#DejaVuSans-6f" x="492.431641"/>
      <use xlink:href="#DejaVuSans-66" x="553.613281"/>
      <use xlink:href="#DejaVuSans-20" x="588.818359"/>
      <use xlink:href="#DejaVuSans-73" x="620.605469"/>
      <use xlink:href="#DejaVuSans-75" x="672.705078"/>
      <use xlink:href="#DejaVuSans-72" x="736.083984"/>
      <use xlink:href="#DejaVuSans-70" x="777.197266"/>
      <use xlink:href="#DejaVuSans-72" x="840.673828"/>
      <use xlink:href="#DejaVuSans-69" x="881.787109"/>
      <use xlink:href="#DejaVuSans-73" x="909.570312"/>
      <use xlink:href="#DejaVuSans-61" x="961.669922"/>
      <use xlink:href="#DejaVuSans-6c" x="1022.949219"/>
      <use xlink:href="#DejaVuSans-20" x="1050.732422"/>
      <use xlink:href="#DejaVuSans-28" x="1082.519531"/>
      <use xlink:href="#DejaVuSans-6d" x="1121.533203"/>
      <use xlink:href="#DejaVuSans-75" x="1218.945312"/>
      <use xlink:href="#DejaVuSans-6c" x="1282.324219"/>
      <use xlink:href="#DejaVuSans-74" x="1310.107422"/>
      <use xlink:href="#DejaVuSans-69" x="1349.316406"/>
      <use xlink:href="#DejaVuSans-70" x="1377.099609"/>
      <use xlink:href="#DejaVuSans-6c" x="1440.576172"/>
      <use xlink:href="#DejaVuSans-69" x="1468.359375"/>
      <use xlink:href="#DejaVuSans-63" x="1496.142578"/>
      <use xlink:href="#DejaVuSans-61" x="1551.123047"/>
      <use xlink:href="#DejaVuSans-74" x="1612.402344"/>
      <use xlink:href="#DejaVuSans-69" x="1651.611328"/>
      <use xlink:href="#DejaVuSans-6f" x="1679.394531"/>
      <use xlink:href="#DejaVuSans-6e" x="1740.576172"/>
      <use xlink:href="#DejaVuSans-29" x="1803.955078"/>
     </g>
    </g>
   </g>
   <g id="line2d_23">
    <path d="M 298.065 33.569092 
L 309.512105 34.502918 
L 320.959211 37.260103 
L 332.406316 41.212652 
L 343.853421 46.341955 
L 355.300526 52.671545 
L 366.747632 59.427801 
L 378.194737 66.89414 
L 389.641842 74.477188 
L 401.088947 82.007144 
L 412.536053 89.921548 
L 423.983158 97.041786 
L 435.430263 104.285378 
L 446.877368 110.670352 
L 458.324474 117.167431 
L 469.771579 123.100518 
L 481.218684 128.35197 
L 492.665789 134.181207 
L 504.112895 139.32383 
L 515.56 143.914815 
" clip-path="url(#p6d6290775a)" style="fill: none; stroke: #1f77b4; stroke-width: 1.5; stroke-linecap: square"/>
   </g>
   <g id="line2d_24">
    <path d="M 298.065 33.569278 
L 309.512105 34.502889 
L 320.959211 37.258086 
L 332.406316 41.217371 
L 343.853421 46.343646 
L 355.300526 52.674469 
L 366.747632 59.414139 
L 378.194737 66.893638 
L 389.641842 74.484887 
L 401.088947 82.022256 
L 412.536053 89.950036 
L 423.983158 97.08595 
L 435.430263 104.377961 
L 446.877368 110.784406 
L 458.324474 117.308265 
L 469.771579 123.244042 
L 481.218684 128.551255 
L 492.665789 134.404416 
L 504.112895 139.531225 
L 515.56 144.131741 
" clip-path="url(#p6d6290775a)" style="fill: none; stroke: #ff7f0e; stroke-width: 1.5; stroke-linecap: square"/>
   </g>
   <g id="line2d_25">
    <path d="M 298.065 33.569104 
L 309.512105 34.503909 
L 320.959211 37.257916 
L 332.406316 41.210816 
L 343.853421 46.35112 
L 355.300526 52.694944 
L 366.747632 59.462535 
L 378.194737 66.954553 
L 389.641842 74.538927 
L 401.088947 82.068401 
L 412.536053 90.019158 
L 423.983158 97.126825 
L 435.430263 104.43275 
L 446.877368 110.85113 
L 458.324474 117.365866 
L 469.771579 123.314301 
L 481.218684 128.620041 
L 492.665789 134.48227 
L 504.112895 139.642159 
L 515.56 144.282567 
" clip-path="url(#p6d6290775a)" style="fill: none; stroke: #2ca02c; stroke-width: 1.5; stroke-linecap: square"/>
   </g>
   <g id="line2d_26">
    <path d="M 298.065 33.570109 
L 309.512105 34.507836 
L 320.959211 37.265847 
L 332.406316 41.239133 
L 343.853421 46.38592 
L 355.300526 52.741003 
L 366.747632 59.513691 
L 378.194737 67.033573 
L 389.641842 74.654453 
L 401.088947 82.209605 
L 412.536053 90.177095 
L 423.983158 97.323142 
L 435.430263 104.653484 
L 446.877368 111.112563 
L 458.324474 117.638573 
L 469.771579 123.609805 
L 481.218684 128.947481 
L 492.665789 134.810185 
L 504.112895 139.954064 
L 515.56 144.611611 
" clip-path="url(#p6d6290775a)" style="fill: none; stroke: #d62728; stroke-width: 1.5; stroke-linecap: square"/>
   </g>
   <g id="line2d_27">
    <path d="M 298.065 33.569104 
L 309.512105 34.505212 
L 320.959211 37.28082 
L 332.406316 41.218394 
L 343.853421 46.336247 
L 355.300526 52.664509 
L 366.747632 59.474013 
L 378.194737 67.010816 
L 389.641842 74.530057 
L 401.088947 82.042734 
L 412.536053 90.02368 
L 423.983158 97.142442 
L 435.430263 104.502133 
L 446.877368 111.089104 
L 458.324474 117.535594 
L 469.771579 123.525246 
L 481.218684 128.412561 
L 492.665789 134.349495 
L 504.112895 139.477542 
L 515.56 143.972087 
" clip-path="url(#p6d6290775a)" style="fill: none; stroke: #9467bd; stroke-width: 1.5; stroke-linecap: square"/>
   </g>
   <g id="line2d_28">
    <path d="M 298.065 33.569852 
L 309.512105 34.50551 
L 320.959211 37.280416 
L 332.406316 41.223676 
L 343.853421 46.33909 
L 355.300526 52.67124 
L 366.747632 59.464646 
L 378.194737 67.015755 
L 389.641842 74.545633 
L 401.088947 82.054497 
L 412.536053 90.054571 
L 423.983158 97.173309 
L 435.430263 104.597826 
L 446.877368 111.202841 
L 458.324474 117.676269 
L 469.771579 123.688215 
L 481.218684 128.601635 
L 492.665789 134.536414 
L 504.112895 139.669275 
L 515.56 144.165092 
" clip-path="url(#p6d6290775a)" style="fill: none; stroke: #8c564b; stroke-width: 1.5; stroke-linecap: square"/>
   </g>
   <g id="line2d_29">
    <path d="M 298.065 48.339304 
L 309.512105 49.189599 
L 320.959211 51.792137 
L 332.406316 55.418019 
L 343.853421 60.228704 
L 355.300526 66.097856 
L 366.747632 72.482407 
L 378.194737 79.297325 
L 389.641842 86.412277 
L 401.088947 93.400955 
L 412.536053 100.830736 
L 423.983158 107.428574 
L 435.430263 114.015685 
L 446.877368 120.126868 
L 458.324474 125.985416 
L 469.771579 131.696335 
L 481.218684 136.567658 
L 492.665789 141.859768 
L 504.112895 146.731359 
L 515.56 150.955302 
" clip-path="url(#p6d6290775a)" style="fill: none; stroke: #e377c2; stroke-width: 1.5; stroke-linecap: square"/>
   </g>
   <g id="line2d_30">
    <path d="M 298.065 33.569488 
L 309.512105 34.504712 
L 320.959211 37.269881 
L 332.406316 41.235336 
L 343.853421 46.391757 
L 355.300526 52.719754 
L 366.747632 59.488059 
L 378.194737 66.981392 
L 389.641842 74.591514 
L 401.088947 82.155399 
L 412.536053 90.123324 
L 423.983158 97.27035 
L 435.430263 104.594506 
L 446.877368 111.033143 
L 458.324474 117.570889 
L 469.771579 123.514062 
L 481.218684 128.876513 
L 492.665789 134.753887 
L 504.112895 139.916172 
L 515.56 144.553124 
" clip-path="url(#p6d6290775a)" style="fill: none; stroke: #7f7f7f; stroke-width: 1.5; stroke-linecap: square"/>
   </g>
   <g id="patch_6">
    <path d="M 298.065 174.04 
L 298.065 26.88 
" style="fill: none; stroke: #000000; stroke-width: 0.8; stroke-linejoin: miter; stroke-linecap: square"/>
   </g>
   <g id="patch_7">
    <path d="M 298.065 174.04 
L 515.56 174.04 
" style="fill: none; stroke: #000000; stroke-width: 0.8; stroke-linejoin: miter; stroke-linecap: square"/>
   </g>
   <g id="text_19">
    <!-- Node * third variable -->
    <g transform="translate(344.2325 20.88)scale(0.12 -0.12)">
     <defs>
      <path id="DejaVuSans-68" d="M 3513 2113 
L 3513 0 
L 2938 0 
L 2938 2094 
Q 2938 2591 2744 2837 
Q 2550 3084 2163 3084 
Q 1697 3084 1428 2787 
Q 1159 2491 1159 1978 
L 1159 0 
L 581 0 
L 581 4863 
L 1159 4863 
L 1159 2956 
Q 1366 3272 1645 3428 
Q 1925 3584 2291 3584 
Q 2894 3584 3203 3211 
Q 3513 2838 3513 2113 
z
" transform="scale(0.015625)"/>
      <path id="DejaVuSans-62" d="M 3116 1747 
Q 3116 2381 2855 2742 
Q 2594 3103 2138 3103 
Q 1681 3103 1420 2742 
Q 1159 2381 1159 1747 
Q 1159 1113 1420 752 
Q 1681 391 2138 391 
Q 2594 391 2855 752 
Q 3116 1113 3116 1747 
z
M 1159 2969 
Q 1341 3281 1617 3432 
Q 1894 3584 2278 3584 
Q 2916 3584 3314 3078 
Q 3713 2572 3713 1747 
Q 3713 922 3314 415 
Q 2916 -91 2278 -91 
Q 1894 -91 1617 61 
Q 1341 213 1159 525 
L 1159 0 
L 581 0 
L 581 4863 
L 1159 4863 
L 1159 2969 
z
" transform="scale(0.015625)"/>
     </defs>
     <use xlink:href="#DejaVuSans-4e"/>
     <use xlink:href="#DejaVuSans-6f" x="74.804688"/>
     <use xlink:href="#DejaVuSans-64" x="135.986328"/>
     <use xlink:href="#DejaVuSans-65" x="199.462891"/>
     <use xlink:href="#DejaVuSans-20" x="260.986328"/>
     <use xlink:href="#DejaVuSans-2a" x="292.773438"/>
     <use xlink:href="#DejaVuSans-20" x="342.773438"/>
     <use xlink:href="#DejaVuSans-74" x="374.560547"/>
     <use xlink:href="#DejaVuSans-68" x="413.769531"/>
     <use xlink:href="#DejaVuSans-69" x="477.148438"/>
     <use xlink:href="#DejaVuSans-72" x="504.931641"/>
     <use xlink:href="#DejaVuSans-64" x="544.294922"/>
     <use xlink:href="#DejaVuSans-20" x="607.771484"/>
     <use xlink:href="#DejaVuSans-76" x="639.558594"/>
     <use xlink:href="#DejaVuSans-61" x="698.738281"/>
     <use xlink:href="#DejaVuSans-72" x="760.017578"/>
     <use xlink:href="#DejaVuSans-69" x="801.130859"/>
     <use xlink:href="#DejaVuSans-61" x="828.914062"/>
     <use xlink:href="#DejaVuSans-62" x="890.193359"/>
     <use xlink:href="#DejaVuSans-6c" x="953.669922"/>
     <use xlink:href="#DejaVuSans-65" x="981.453125"/>
    </g>
   </g>
   <g id="legend_1">
    <g id="line2d_31">
     <path d="M 524.56 39.978437 
L 534.56 39.978437 
L 544.56 39.978437 
" style="fill: none; stroke: #1f77b4; stroke-width: 1.5; stroke-linecap: square"/>
    </g>
    <g id="text_20">
     <!-- Node -->
     <g transform="translate(552.56 43.478437)scale(0.1 -0.1)">
      <use xlink:href="#DejaVuSans-4e"/>
      <use xlink:href="#DejaVuSans-6f" x="74.804688"/>
      <use xlink:href="#DejaVuSans-64" x="135.986328"/>
      <use xlink:href="#DejaVuSans-65" x="199.462891"/>
     </g>
    </g>
    <g id="line2d_32">
     <path d="M 524.56 54.656563 
L 534.56 54.656563 
L 544.56 54.656563 
" style="fill: none; stroke: #ff7f0e; stroke-width: 1.5; stroke-linecap: square"/>
    </g>
    <g id="text_21">
     <!-- Node + surprisal -->
     <g transform="translate(552.56 58.156563)scale(0.1 -0.1)">
      <defs>
       <path id="DejaVuSans-2b" d="M 2944 4013 
L 2944 2272 
L 4684 2272 
L 4684 1741 
L 2944 1741 
L 2944 0 
L 2419 0 
L 2419 1741 
L 678 1741 
L 678 2272 
L 2419 2272 
L 2419 4013 
L 2944 4013 
z
" transform="scale(0.015625)"/>
      </defs>
      <use xlink:href="#DejaVuSans-4e"/>
      <use xlink:href="#DejaVuSans-6f" x="74.804688"/>
      <use xlink:href="#DejaVuSans-64" x="135.986328"/>
      <use xlink:href="#DejaVuSans-65" x="199.462891"/>
      <use xlink:href="#DejaVuSans-20" x="260.986328"/>
      <use xlink:href="#DejaVuSans-2b" x="292.773438"/>
      <use xlink:href="#DejaVuSans-20" x="376.5625"/>
      <use xlink:href="#DejaVuSans-73" x="408.349609"/>
      <use xlink:href="#DejaVuSans-75" x="460.449219"/>
      <use xlink:href="#DejaVuSans-72" x="523.828125"/>
      <use xlink:href="#DejaVuSans-70" x="564.941406"/>
      <use xlink:href="#DejaVuSans-72" x="628.417969"/>
      <use xlink:href="#DejaVuSans-69" x="669.53125"/>
      <use xlink:href="#DejaVuSans-73" x="697.314453"/>
      <use xlink:href="#DejaVuSans-61" x="749.414062"/>
      <use xlink:href="#DejaVuSans-6c" x="810.693359"/>
     </g>
    </g>
    <g id="line2d_33">
     <path d="M 524.56 69.334687 
L 534.56 69.334687 
L 544.56 69.334687 
" style="fill: none; stroke: #2ca02c; stroke-width: 1.5; stroke-linecap: square"/>
    </g>
    <g id="text_22">
     <!-- Node split -->
     <g transform="translate(552.56 72.834687)scale(0.1 -0.1)">
      <use xlink:href="#DejaVuSans-4e"/>
      <use xlink:href="#DejaVuSans-6f" x="74.804688"/>
      <use xlink:href="#DejaVuSans-64" x="135.986328"/>
      <use xlink:href="#DejaVuSans-65" x="199.462891"/>
      <use xlink:href="#DejaVuSans-20" x="260.986328"/>
      <use xlink:href="#DejaVuSans-73" x="292.773438"/>
      <use xlink:href="#DejaVuSans-70" x="344.873047"/>
      <use xlink:href="#DejaVuSans-6c" x="408.349609"/>
      <use xlink:href="#DejaVuSans-69" x="436.132812"/>
      <use xlink:href="#DejaVuSans-74" x="463.916016"/>
     </g>
    </g>
    <g id="line2d_34">
     <path d="M 524.56 84.012812 
L 534.56 84.012812 
L 544.56 84.012812 
" style="fill: none; stroke: #d62728; stroke-width: 1.5; stroke-linecap: square"/>
    </g>
    <g id="text_23">
     <!-- Node split + surprisal -->
     <g transform="translate(552.56 87.512812)scale(0.1 -0.1)">
      <use xlink:href="#DejaVuSans-4e"/>
      <use xlink:href="#DejaVuSans-6f" x="74.804688"/>
      <use xlink:href="#DejaVuSans-64" x="135.986328"/>
      <use xlink:href="#DejaVuSans-65" x="199.462891"/>
      <use xlink:href="#DejaVuSans-20" x="260.986328"/>
      <use xlink:href="#DejaVuSans-73" x="292.773438"/>
      <use xlink:href="#DejaVuSans-70" x="344.873047"/>
      <use xlink:href="#DejaVuSans-6c" x="408.349609"/>
      <use xlink:href="#DejaVuSans-69" x="436.132812"/>
      <use xlink:href="#DejaVuSans-74" x="463.916016"/>
      <use xlink:href="#DejaVuSans-20" x="503.125"/>
      <use xlink:href="#DejaVuSans-2b" x="534.912109"/>
      <use xlink:href="#DejaVuSans-20" x="618.701172"/>
      <use xlink:href="#DejaVuSans-73" x="650.488281"/>
      <use xlink:href="#DejaVuSans-75" x="702.587891"/>
      <use xlink:href="#DejaVuSans-72" x="765.966797"/>
      <use xlink:href="#DejaVuSans-70" x="807.080078"/>
      <use xlink:href="#DejaVuSans-72" x="870.556641"/>
      <use xlink:href="#DejaVuSans-69" x="911.669922"/>
      <use xlink:href="#DejaVuSans-73" x="939.453125"/>
      <use xlink:href="#DejaVuSans-61" x="991.552734"/>
      <use xlink:href="#DejaVuSans-6c" x="1052.832031"/>
     </g>
    </g>
    <g id="line2d_35">
     <path d="M 524.56 98.690937 
L 534.56 98.690937 
L 544.56 98.690937 
" style="fill: none; stroke: #9467bd; stroke-width: 1.5; stroke-linecap: square"/>
    </g>
    <g id="text_24">
     <!-- Node random split -->
     <g transform="translate(552.56 102.190937)scale(0.1 -0.1)">
      <use xlink:href="#DejaVuSans-4e"/>
      <use xlink:href="#DejaVuSans-6f" x="74.804688"/>
      <use xlink:href="#DejaVuSans-64" x="135.986328"/>
      <use xlink:href="#DejaVuSans-65" x="199.462891"/>
      <use xlink:href="#DejaVuSans-20" x="260.986328"/>
      <use xlink:href="#DejaVuSans-72" x="292.773438"/>
      <use xlink:href="#DejaVuSans-61" x="333.886719"/>
      <use xlink:href="#DejaVuSans-6e" x="395.166016"/>
      <use xlink:href="#DejaVuSans-64" x="458.544922"/>
      <use xlink:href="#DejaVuSans-6f" x="522.021484"/>
      <use xlink:href="#DejaVuSans-6d" x="583.203125"/>
      <use xlink:href="#DejaVuSans-20" x="680.615234"/>
      <use xlink:href="#DejaVuSans-73" x="712.402344"/>
      <use xlink:href="#DejaVuSans-70" x="764.501953"/>
      <use xlink:href="#DejaVuSans-6c" x="827.978516"/>
      <use xlink:href="#DejaVuSans-69" x="855.761719"/>
      <use xlink:href="#DejaVuSans-74" x="883.544922"/>
     </g>
    </g>
    <g id="line2d_36">
     <path d="M 524.56 113.369062 
L 534.56 113.369062 
L 544.56 113.369062 
" style="fill: none; stroke: #8c564b; stroke-width: 1.5; stroke-linecap: square"/>
    </g>
    <g id="text_25">
     <!-- Node random split + surprisal -->
     <g transform="translate(552.56 116.869062)scale(0.1 -0.1)">
      <use xlink:href="#DejaVuSans-4e"/>
      <use xlink:href="#DejaVuSans-6f" x="74.804688"/>
      <use xlink:href="#DejaVuSans-64" x="135.986328"/>
      <use xlink:href="#DejaVuSans-65" x="199.462891"/>
      <use xlink:href="#DejaVuSans-20" x="260.986328"/>
      <use xlink:href="#DejaVuSans-72" x="292.773438"/>
      <use xlink:href="#DejaVuSans-61" x="333.886719"/>
      <use xlink:href="#DejaVuSans-6e" x="395.166016"/>
      <use xlink:href="#DejaVuSans-64" x="458.544922"/>
      <use xlink:href="#DejaVuSans-6f" x="522.021484"/>
      <use xlink:href="#DejaVuSans-6d" x="583.203125"/>
      <use xlink:href="#DejaVuSans-20" x="680.615234"/>
      <use xlink:href="#DejaVuSans-73" x="712.402344"/>
      <use xlink:href="#DejaVuSans-70" x="764.501953"/>
      <use xlink:href="#DejaVuSans-6c" x="827.978516"/>
      <use xlink:href="#DejaVuSans-69" x="855.761719"/>
      <use xlink:href="#DejaVuSans-74" x="883.544922"/>
      <use xlink:href="#DejaVuSans-20" x="922.753906"/>
      <use xlink:href="#DejaVuSans-2b" x="954.541016"/>
      <use xlink:href="#DejaVuSans-20" x="1038.330078"/>
      <use xlink:href="#DejaVuSans-73" x="1070.117188"/>
      <use xlink:href="#DejaVuSans-75" x="1122.216797"/>
      <use xlink:href="#DejaVuSans-72" x="1185.595703"/>
      <use xlink:href="#DejaVuSans-70" x="1226.708984"/>
      <use xlink:href="#DejaVuSans-72" x="1290.185547"/>
      <use xlink:href="#DejaVuSans-69" x="1331.298828"/>
      <use xlink:href="#DejaVuSans-73" x="1359.082031"/>
      <use xlink:href="#DejaVuSans-61" x="1411.181641"/>
      <use xlink:href="#DejaVuSans-6c" x="1472.460938"/>
     </g>
    </g>
    <g id="line2d_37">
     <path d="M 524.56 128.047187 
L 534.56 128.047187 
L 544.56 128.047187 
" style="fill: none; stroke: #e377c2; stroke-width: 1.5; stroke-linecap: square"/>
    </g>
    <g id="text_26">
     <!-- Interaction -->
     <g transform="translate(552.56 131.547187)scale(0.1 -0.1)">
      <use xlink:href="#DejaVuSans-49"/>
      <use xlink:href="#DejaVuSans-6e" x="29.492188"/>
      <use xlink:href="#DejaVuSans-74" x="92.871094"/>
      <use xlink:href="#DejaVuSans-65" x="132.080078"/>
      <use xlink:href="#DejaVuSans-72" x="193.603516"/>
      <use xlink:href="#DejaVuSans-61" x="234.716797"/>
      <use xlink:href="#DejaVuSans-63" x="295.996094"/>
      <use xlink:href="#DejaVuSans-74" x="350.976562"/>
      <use xlink:href="#DejaVuSans-69" x="390.185547"/>
      <use xlink:href="#DejaVuSans-6f" x="417.96875"/>
      <use xlink:href="#DejaVuSans-6e" x="479.150391"/>
     </g>
    </g>
    <g id="line2d_38">
     <path d="M 524.56 142.725312 
L 534.56 142.725312 
L 544.56 142.725312 
" style="fill: none; stroke: #7f7f7f; stroke-width: 1.5; stroke-linecap: square"/>
    </g>
    <g id="text_27">
     <!-- Node + surprisal + interaction -->
     <g transform="translate(552.56 146.225312)scale(0.1 -0.1)">
      <use xlink:href="#DejaVuSans-4e"/>
      <use xlink:href="#DejaVuSans-6f" x="74.804688"/>
      <use xlink:href="#DejaVuSans-64" x="135.986328"/>
      <use xlink:href="#DejaVuSans-65" x="199.462891"/>
      <use xlink:href="#DejaVuSans-20" x="260.986328"/>
      <use xlink:href="#DejaVuSans-2b" x="292.773438"/>
      <use xlink:href="#DejaVuSans-20" x="376.5625"/>
      <use xlink:href="#DejaVuSans-73" x="408.349609"/>
      <use xlink:href="#DejaVuSans-75" x="460.449219"/>
      <use xlink:href="#DejaVuSans-72" x="523.828125"/>
      <use xlink:href="#DejaVuSans-70" x="564.941406"/>
      <use xlink:href="#DejaVuSans-72" x="628.417969"/>
      <use xlink:href="#DejaVuSans-69" x="669.53125"/>
      <use xlink:href="#DejaVuSans-73" x="697.314453"/>
      <use xlink:href="#DejaVuSans-61" x="749.414062"/>
      <use xlink:href="#DejaVuSans-6c" x="810.693359"/>
      <use xlink:href="#DejaVuSans-20" x="838.476562"/>
      <use xlink:href="#DejaVuSans-2b" x="870.263672"/>
      <use xlink:href="#DejaVuSans-20" x="954.052734"/>
      <use xlink:href="#DejaVuSans-69" x="985.839844"/>
      <use xlink:href="#DejaVuSans-6e" x="1013.623047"/>
      <use xlink:href="#DejaVuSans-74" x="1077.001953"/>
      <use xlink:href="#DejaVuSans-65" x="1116.210938"/>
      <use xlink:href="#DejaVuSans-72" x="1177.734375"/>
      <use xlink:href="#DejaVuSans-61" x="1218.847656"/>
      <use xlink:href="#DejaVuSans-63" x="1280.126953"/>
      <use xlink:href="#DejaVuSans-74" x="1335.107422"/>
      <use xlink:href="#DejaVuSans-69" x="1374.316406"/>
      <use xlink:href="#DejaVuSans-6f" x="1402.099609"/>
      <use xlink:href="#DejaVuSans-6e" x="1463.28125"/>
     </g>
    </g>
   </g>
  </g>
 </g>
 <defs>
  <clipPath id="pd37e0d3e6d">
   <rect x="47.72" y="26.88" width="217.495" height="147.16"/>
  </clipPath>
  <clipPath id="p6d6290775a">
   <rect x="298.065" y="26.88" width="217.495" height="147.16"/>
  </clipPath>
 </defs>
</svg>
