<?xml version="1.0" encoding="utf-8" standalone="no"?>
<!DOCTYPE svg PUBLIC "-//W3C//DTD SVG 1.1//EN"
  "http://www.w3.org/Graphics/SVG/1.1/DTD/svg11.dtd">
<svg xmlns:xlink="http://www.w3.org/1999/xlink" width="720pt" height="216pt" viewBox="0 0 720 216" xmlns="http://www.w3.org/2000/svg" version="1.1">
 <metadata>
  <rdf:RDF xmlns:dc="http://purl.org/dc/elements/1.1/" xmlns:cc="http://creativecommons.org/ns#" xmlns:rdf="http://www.w3.org/1999/02/22-rdf-syntax-ns#">
   <cc:Work>
    <dc:type rdf:resource="http://purl.org/dc/dcmitype/StillImage"/>
    <dc:date>2024-01-16T02:43:07.542176</dc:date>
    <dc:format>image/svg+xml</dc:format>
    <dc:creator>
     <cc:Agent>
      <dc:title>Matplotlib v3.5.1, https://matplotlib.org/</dc:title>
     </cc:Agent>
    </dc:creator>
   </cc:Work>
  </rdf:RDF>
 </metadata>
 <defs>
  <style type="text/css">*{stroke-linejoin: round; stroke-linecap: butt}</style>
 </defs>
 <g id="figure_1">
  <g id="patch_1">
   <path d="M 0 216 
L 720 216 
L 720 0 
L 0 0 
z
" style="fill: #ffffff"/>
  </g>
  <g id="axes_1">
   <g id="patch_2">
    <path d="M 47.72 174.04 
L 265.215 174.04 
L 265.215 26.88 
L 47.72 26.88 
z
" style="fill: #ffffff"/>
   </g>
   <g id="PolyCollection_1">
    <path d="M 47.72 33.569091 
L 47.72 33.569092 
L 59.167105 34.722212 
L 70.614211 38.070848 
L 82.061316 42.656804 
L 93.508421 48.525975 
L 104.955526 55.534318 
L 116.402632 63.258555 
L 127.849737 70.997767 
L 139.296842 78.738326 
L 150.743947 86.870624 
L 162.191053 94.119541 
L 173.638158 101.837341 
L 185.085263 108.583542 
L 196.532368 116.029459 
L 207.979474 122.38757 
L 219.426579 128.779648 
L 230.873684 134.887468 
L 242.320789 140.223455 
L 253.767895 144.473255 
L 265.215 149.776955 
L 265.215 142.308434 
L 265.215 142.308434 
L 253.767895 136.413426 
L 242.320789 131.390179 
L 230.873684 125.045834 
L 219.426579 119.2829 
L 207.979474 112.993565 
L 196.532368 106.048712 
L 185.085263 99.57746 
L 173.638158 93.142523 
L 162.191053 85.48691 
L 150.743947 78.622819 
L 139.296842 71.306806 
L 127.849737 64.528557 
L 116.402632 57.291398 
L 104.955526 50.886392 
L 93.508421 45.127356 
L 82.061316 40.377551 
L 70.614211 36.986485 
L 59.167105 34.394343 
L 47.72 33.569091 
z
" clip-path="url(#pfbfe04c786)" style="fill: #1f77b4; fill-opacity: 0.4"/>
   </g>
   <g id="PolyCollection_2">
    <path d="M 47.72 33.569235 
L 47.72 33.569302 
L 59.167105 34.27865 
L 70.614211 35.893171 
L 82.061316 38.359459 
L 93.508421 41.813575 
L 104.955526 46.4653 
L 116.402632 51.501403 
L 127.849737 57.513667 
L 139.296842 63.509231 
L 150.743947 70.252707 
L 162.191053 76.668233 
L 173.638158 83.683268 
L 185.085263 90.099888 
L 196.532368 96.759601 
L 207.979474 103.057463 
L 219.426579 109.842819 
L 230.873684 115.519666 
L 242.320789 121.539675 
L 253.767895 126.508395 
L 265.215 132.708262 
L 265.215 122.897514 
L 265.215 122.897514 
L 253.767895 117.429355 
L 242.320789 112.323827 
L 230.873684 106.217483 
L 219.426579 99.780269 
L 207.979474 93.821292 
L 196.532368 87.334698 
L 185.085263 80.77484 
L 173.638158 74.883961 
L 162.191053 68.2645 
L 150.743947 62.73825 
L 139.296842 56.979647 
L 127.849737 52.113794 
L 116.402632 47.403935 
L 104.955526 43.149607 
L 93.508421 39.741646 
L 82.061316 37.122564 
L 70.614211 35.3778 
L 59.167105 34.117745 
L 47.72 33.569235 
z
" clip-path="url(#pfbfe04c786)" style="fill: #ff7f0e; fill-opacity: 0.4"/>
   </g>
   <g id="PolyCollection_3">
    <path d="M 47.72 33.5691 
L 47.72 33.569103 
L 59.167105 34.487466 
L 70.614211 36.052623 
L 82.061316 38.424179 
L 93.508421 41.366207 
L 104.955526 44.488279 
L 116.402632 48.265619 
L 127.849737 52.326347 
L 139.296842 56.07624 
L 150.743947 59.801068 
L 162.191053 63.88238 
L 173.638158 67.909237 
L 185.085263 71.366015 
L 196.532368 75.315225 
L 207.979474 78.569868 
L 219.426579 82.377247 
L 230.873684 85.928496 
L 242.320789 89.524117 
L 253.767895 93.16672 
L 265.215 97.094246 
L 265.215 87.843339 
L 265.215 87.843339 
L 253.767895 84.259946 
L 242.320789 81.384433 
L 230.873684 77.481314 
L 219.426579 73.869494 
L 207.979474 70.26401 
L 196.532368 66.754865 
L 185.085263 63.375068 
L 173.638158 59.64898 
L 162.191053 56.044501 
L 150.743947 53.041442 
L 139.296842 49.297171 
L 127.849737 46.312679 
L 116.402632 43.214999 
L 104.955526 40.661967 
L 93.508421 38.423667 
L 82.061316 36.489629 
L 70.614211 35.279846 
L 59.167105 34.193877 
L 47.72 33.5691 
z
" clip-path="url(#pfbfe04c786)" style="fill: #2ca02c; fill-opacity: 0.4"/>
   </g>
   <g id="PolyCollection_4">
    <path d="M 47.72 33.569847 
L 47.72 33.57028 
L 59.167105 34.256501 
L 70.614211 35.267406 
L 82.061316 36.932202 
L 93.508421 39.08477 
L 104.955526 41.647203 
L 116.402632 44.709649 
L 127.849737 48.435445 
L 139.296842 51.975009 
L 150.743947 55.76729 
L 162.191053 59.849571 
L 173.638158 64.007623 
L 185.085263 67.719209 
L 196.532368 71.813647 
L 207.979474 75.320159 
L 219.426579 79.368051 
L 230.873684 83.319343 
L 242.320789 87.206147 
L 253.767895 91.008209 
L 265.215 95.23572 
L 265.215 86.713462 
L 265.215 86.713462 
L 253.767895 83.086671 
L 242.320789 80.064152 
L 230.873684 76.093997 
L 219.426579 72.505865 
L 207.979474 68.783876 
L 196.532368 65.194783 
L 185.085263 61.62513 
L 173.638158 57.799616 
L 162.191053 54.011517 
L 150.743947 50.91745 
L 139.296842 47.21451 
L 127.849737 44.401878 
L 116.402632 41.58353 
L 104.955526 39.260451 
L 93.508421 37.358171 
L 82.061316 35.797199 
L 70.614211 34.874132 
L 59.167105 34.087408 
L 47.72 33.569847 
z
" clip-path="url(#pfbfe04c786)" style="fill: #d62728; fill-opacity: 0.4"/>
   </g>
   <g id="PolyCollection_5">
    <path d="M 47.72 33.5691 
L 47.72 33.569104 
L 59.167105 34.722383 
L 70.614211 38.101476 
L 82.061316 42.670336 
L 93.508421 48.515852 
L 104.955526 55.554406 
L 116.402632 63.457775 
L 127.849737 71.234307 
L 139.296842 78.74616 
L 150.743947 87.030376 
L 162.191053 93.958171 
L 173.638158 102.317079 
L 185.085263 108.375667 
L 196.532368 116.582098 
L 207.979474 122.349638 
L 219.426579 129.379219 
L 230.873684 134.490207 
L 242.320789 140.231584 
L 253.767895 143.998733 
L 265.215 150.252763 
L 265.215 142.979893 
L 265.215 142.979893 
L 253.767895 137.174459 
L 242.320789 132.440688 
L 230.873684 125.110615 
L 219.426579 119.649509 
L 207.979474 113.95397 
L 196.532368 106.207642 
L 185.085263 100.098468 
L 173.638158 93.18645 
L 162.191053 85.798022 
L 150.743947 78.734934 
L 139.296842 71.404872 
L 127.849737 64.543245 
L 116.402632 57.405439 
L 104.955526 50.916304 
L 93.508421 45.163995 
L 82.061316 40.398249 
L 70.614211 36.97865 
L 59.167105 34.395747 
L 47.72 33.5691 
z
" clip-path="url(#pfbfe04c786)" style="fill: #9467bd; fill-opacity: 0.4"/>
   </g>
   <g id="PolyCollection_6">
    <path d="M 47.72 33.569679 
L 47.72 33.569945 
L 59.167105 34.280545 
L 70.614211 35.908379 
L 82.061316 38.376634 
L 93.508421 41.812577 
L 104.955526 46.490826 
L 116.402632 51.609612 
L 127.849737 57.640636 
L 139.296842 63.576611 
L 150.743947 70.361037 
L 162.191053 76.683027 
L 173.638158 84.006788 
L 185.085263 90.047905 
L 196.532368 97.044062 
L 207.979474 103.260365 
L 219.426579 110.277774 
L 230.873684 115.305243 
L 242.320789 121.642796 
L 253.767895 126.563313 
L 265.215 132.960991 
L 265.215 123.544728 
L 265.215 123.544728 
L 253.767895 117.321674 
L 242.320789 112.648736 
L 230.873684 106.16108 
L 219.426579 100.109098 
L 207.979474 94.068509 
L 196.532368 87.3784 
L 185.085263 80.978986 
L 173.638158 74.859669 
L 162.191053 68.358495 
L 150.743947 62.748484 
L 139.296842 56.94238 
L 127.849737 52.184517 
L 116.402632 47.491337 
L 104.955526 43.132962 
L 93.508421 39.73657 
L 82.061316 37.120824 
L 70.614211 35.373452 
L 59.167105 34.119132 
L 47.72 33.569679 
z
" clip-path="url(#pfbfe04c786)" style="fill: #8c564b; fill-opacity: 0.4"/>
   </g>
   <g id="PolyCollection_7">
    <path d="M 47.72 47.294653 
L 47.72 50.568295 
L 59.167105 52.063173 
L 70.614211 56.28944 
L 82.061316 62.410642 
L 93.508421 70.137948 
L 104.955526 78.425332 
L 116.402632 87.36627 
L 127.849737 96.189179 
L 139.296842 104.453787 
L 150.743947 112.632211 
L 162.191053 119.887895 
L 173.638158 127.137035 
L 185.085263 132.933336 
L 196.532368 139.594655 
L 207.979474 145.040997 
L 219.426579 150.615152 
L 230.873684 155.692509 
L 242.320789 160.166127 
L 253.767895 163.437281 
L 265.215 167.350909 
L 265.215 157.069895 
L 265.215 157.069895 
L 253.767895 152.249555 
L 242.320789 148.042008 
L 230.873684 142.976067 
L 219.426579 137.736002 
L 207.979474 132.128095 
L 196.532368 125.958682 
L 185.085263 119.772555 
L 173.638158 112.780146 
L 162.191053 104.778788 
L 150.743947 97.137708 
L 139.296842 89.599215 
L 127.849737 82.028005 
L 116.402632 74.177111 
L 104.955526 66.871039 
L 93.508421 60.618041 
L 82.061316 55.242332 
L 70.614211 51.251539 
L 59.167105 48.443872 
L 47.72 47.294653 
z
" clip-path="url(#pfbfe04c786)" style="fill: #e377c2; fill-opacity: 0.4"/>
   </g>
   <g id="PolyCollection_8">
    <path d="M 47.72 33.569384 
L 47.72 33.569532 
L 59.167105 33.888048 
L 70.614211 34.098704 
L 82.061316 34.864863 
L 93.508421 36.38581 
L 104.955526 39.120008 
L 116.402632 42.438939 
L 127.849737 47.345481 
L 139.296842 52.667741 
L 150.743947 58.868706 
L 162.191053 64.980025 
L 173.638158 71.81247 
L 185.085263 78.30616 
L 196.532368 84.991815 
L 207.979474 91.57855 
L 219.426579 98.309732 
L 230.873684 104.137776 
L 242.320789 110.188514 
L 253.767895 115.303438 
L 265.215 121.334565 
L 265.215 108.797143 
L 265.215 108.797143 
L 253.767895 102.882533 
L 242.320789 97.088747 
L 230.873684 90.78971 
L 219.426579 84.173897 
L 207.979474 78.019431 
L 196.532368 71.67418 
L 185.085263 65.598381 
L 173.638158 59.995505 
L 162.191053 54.304778 
L 150.743947 49.540905 
L 139.296842 45.1187 
L 127.849737 41.618049 
L 116.402632 38.730777 
L 104.955526 36.358269 
L 93.508421 35.104134 
L 82.061316 34.294249 
L 70.614211 33.990774 
L 59.167105 33.853203 
L 47.72 33.569384 
z
" clip-path="url(#pfbfe04c786)" style="fill: #7f7f7f; fill-opacity: 0.4"/>
   </g>
   <g id="matplotlib.axis_1">
    <g id="xtick_1">
     <g id="line2d_1">
      <defs>
       <path id="m2c7201a9ad" d="M 0 0 
L 0 3.5 
" style="stroke: #000000; stroke-width: 0.8"/>
      </defs>
      <g>
       <use xlink:href="#m2c7201a9ad" x="47.72" y="174.04" style="stroke: #000000; stroke-width: 0.8"/>
      </g>
     </g>
     <g id="text_1">
      <!-- 0.0 -->
      <g transform="translate(39.768438 188.638438)scale(0.1 -0.1)">
       <defs>
        <path id="DejaVuSans-30" d="M 2034 4250 
Q 1547 4250 1301 3770 
Q 1056 3291 1056 2328 
Q 1056 1369 1301 889 
Q 1547 409 2034 409 
Q 2525 409 2770 889 
Q 3016 1369 3016 2328 
Q 3016 3291 2770 3770 
Q 2525 4250 2034 4250 
z
M 2034 4750 
Q 2819 4750 3233 4129 
Q 3647 3509 3647 2328 
Q 3647 1150 3233 529 
Q 2819 -91 2034 -91 
Q 1250 -91 836 529 
Q 422 1150 422 2328 
Q 422 3509 836 4129 
Q 1250 4750 2034 4750 
z
" transform="scale(0.015625)"/>
        <path id="DejaVuSans-2e" d="M 684 794 
L 1344 794 
L 1344 0 
L 684 0 
L 684 794 
z
" transform="scale(0.015625)"/>
       </defs>
       <use xlink:href="#DejaVuSans-30"/>
       <use xlink:href="#DejaVuSans-2e" x="63.623047"/>
       <use xlink:href="#DejaVuSans-30" x="95.410156"/>
      </g>
     </g>
    </g>
    <g id="xtick_2">
     <g id="line2d_2">
      <g>
       <use xlink:href="#m2c7201a9ad" x="102.09375" y="174.04" style="stroke: #000000; stroke-width: 0.8"/>
      </g>
     </g>
     <g id="text_2">
      <!-- 0.5 -->
      <g transform="translate(94.142188 188.638438)scale(0.1 -0.1)">
       <defs>
        <path id="DejaVuSans-35" d="M 691 4666 
L 3169 4666 
L 3169 4134 
L 1269 4134 
L 1269 2991 
Q 1406 3038 1543 3061 
Q 1681 3084 1819 3084 
Q 2600 3084 3056 2656 
Q 3513 2228 3513 1497 
Q 3513 744 3044 326 
Q 2575 -91 1722 -91 
Q 1428 -91 1123 -41 
Q 819 9 494 109 
L 494 744 
Q 775 591 1075 516 
Q 1375 441 1709 441 
Q 2250 441 2565 725 
Q 2881 1009 2881 1497 
Q 2881 1984 2565 2268 
Q 2250 2553 1709 2553 
Q 1456 2553 1204 2497 
Q 953 2441 691 2322 
L 691 4666 
z
" transform="scale(0.015625)"/>
       </defs>
       <use xlink:href="#DejaVuSans-30"/>
       <use xlink:href="#DejaVuSans-2e" x="63.623047"/>
       <use xlink:href="#DejaVuSans-35" x="95.410156"/>
      </g>
     </g>
    </g>
    <g id="xtick_3">
     <g id="line2d_3">
      <g>
       <use xlink:href="#m2c7201a9ad" x="156.4675" y="174.04" style="stroke: #000000; stroke-width: 0.8"/>
      </g>
     </g>
     <g id="text_3">
      <!-- 1.0 -->
      <g transform="translate(148.515938 188.638438)scale(0.1 -0.1)">
       <defs>
        <path id="DejaVuSans-31" d="M 794 531 
L 1825 531 
L 1825 4091 
L 703 3866 
L 703 4441 
L 1819 4666 
L 2450 4666 
L 2450 531 
L 3481 531 
L 3481 0 
L 794 0 
L 794 531 
z
" transform="scale(0.015625)"/>
       </defs>
       <use xlink:href="#DejaVuSans-31"/>
       <use xlink:href="#DejaVuSans-2e" x="63.623047"/>
       <use xlink:href="#DejaVuSans-30" x="95.410156"/>
      </g>
     </g>
    </g>
    <g id="xtick_4">
     <g id="line2d_4">
      <g>
       <use xlink:href="#m2c7201a9ad" x="210.84125" y="174.04" style="stroke: #000000; stroke-width: 0.8"/>
      </g>
     </g>
     <g id="text_4">
      <!-- 1.5 -->
      <g transform="translate(202.889687 188.638438)scale(0.1 -0.1)">
       <use xlink:href="#DejaVuSans-31"/>
       <use xlink:href="#DejaVuSans-2e" x="63.623047"/>
       <use xlink:href="#DejaVuSans-35" x="95.410156"/>
      </g>
     </g>
    </g>
    <g id="xtick_5">
     <g id="line2d_5">
      <g>
       <use xlink:href="#m2c7201a9ad" x="265.215" y="174.04" style="stroke: #000000; stroke-width: 0.8"/>
      </g>
     </g>
     <g id="text_5">
      <!-- 2.0 -->
      <g transform="translate(257.263437 188.638438)scale(0.1 -0.1)">
       <defs>
        <path id="DejaVuSans-32" d="M 1228 531 
L 3431 531 
L 3431 0 
L 469 0 
L 469 531 
Q 828 903 1448 1529 
Q 2069 2156 2228 2338 
Q 2531 2678 2651 2914 
Q 2772 3150 2772 3378 
Q 2772 3750 2511 3984 
Q 2250 4219 1831 4219 
Q 1534 4219 1204 4116 
Q 875 4013 500 3803 
L 500 4441 
Q 881 4594 1212 4672 
Q 1544 4750 1819 4750 
Q 2544 4750 2975 4387 
Q 3406 4025 3406 3419 
Q 3406 3131 3298 2873 
Q 3191 2616 2906 2266 
Q 2828 2175 2409 1742 
Q 1991 1309 1228 531 
z
" transform="scale(0.015625)"/>
       </defs>
       <use xlink:href="#DejaVuSans-32"/>
       <use xlink:href="#DejaVuSans-2e" x="63.623047"/>
       <use xlink:href="#DejaVuSans-30" x="95.410156"/>
      </g>
     </g>
    </g>
    <g id="text_6">
     <!-- Influence of surprisal (multiplication) -->
     <g transform="translate(64.320625 202.316563)scale(0.1 -0.1)">
      <defs>
       <path id="DejaVuSans-49" d="M 628 4666 
L 1259 4666 
L 1259 0 
L 628 0 
L 628 4666 
z
" transform="scale(0.015625)"/>
       <path id="DejaVuSans-6e" d="M 3513 2113 
L 3513 0 
L 2938 0 
L 2938 2094 
Q 2938 2591 2744 2837 
Q 2550 3084 2163 3084 
Q 1697 3084 1428 2787 
Q 1159 2491 1159 1978 
L 1159 0 
L 581 0 
L 581 3500 
L 1159 3500 
L 1159 2956 
Q 1366 3272 1645 3428 
Q 1925 3584 2291 3584 
Q 2894 3584 3203 3211 
Q 3513 2838 3513 2113 
z
" transform="scale(0.015625)"/>
       <path id="DejaVuSans-66" d="M 2375 4863 
L 2375 4384 
L 1825 4384 
Q 1516 4384 1395 4259 
Q 1275 4134 1275 3809 
L 1275 3500 
L 2222 3500 
L 2222 3053 
L 1275 3053 
L 1275 0 
L 697 0 
L 697 3053 
L 147 3053 
L 147 3500 
L 697 3500 
L 697 3744 
Q 697 4328 969 4595 
Q 1241 4863 1831 4863 
L 2375 4863 
z
" transform="scale(0.015625)"/>
       <path id="DejaVuSans-6c" d="M 603 4863 
L 1178 4863 
L 1178 0 
L 603 0 
L 603 4863 
z
" transform="scale(0.015625)"/>
       <path id="DejaVuSans-75" d="M 544 1381 
L 544 3500 
L 1119 3500 
L 1119 1403 
Q 1119 906 1312 657 
Q 1506 409 1894 409 
Q 2359 409 2629 706 
Q 2900 1003 2900 1516 
L 2900 3500 
L 3475 3500 
L 3475 0 
L 2900 0 
L 2900 538 
Q 2691 219 2414 64 
Q 2138 -91 1772 -91 
Q 1169 -91 856 284 
Q 544 659 544 1381 
z
M 1991 3584 
L 1991 3584 
z
" transform="scale(0.015625)"/>
       <path id="DejaVuSans-65" d="M 3597 1894 
L 3597 1613 
L 953 1613 
Q 991 1019 1311 708 
Q 1631 397 2203 397 
Q 2534 397 2845 478 
Q 3156 559 3463 722 
L 3463 178 
Q 3153 47 2828 -22 
Q 2503 -91 2169 -91 
Q 1331 -91 842 396 
Q 353 884 353 1716 
Q 353 2575 817 3079 
Q 1281 3584 2069 3584 
Q 2775 3584 3186 3129 
Q 3597 2675 3597 1894 
z
M 3022 2063 
Q 3016 2534 2758 2815 
Q 2500 3097 2075 3097 
Q 1594 3097 1305 2825 
Q 1016 2553 972 2059 
L 3022 2063 
z
" transform="scale(0.015625)"/>
       <path id="DejaVuSans-63" d="M 3122 3366 
L 3122 2828 
Q 2878 2963 2633 3030 
Q 2388 3097 2138 3097 
Q 1578 3097 1268 2742 
Q 959 2388 959 1747 
Q 959 1106 1268 751 
Q 1578 397 2138 397 
Q 2388 397 2633 464 
Q 2878 531 3122 666 
L 3122 134 
Q 2881 22 2623 -34 
Q 2366 -91 2075 -91 
Q 1284 -91 818 406 
Q 353 903 353 1747 
Q 353 2603 823 3093 
Q 1294 3584 2113 3584 
Q 2378 3584 2631 3529 
Q 2884 3475 3122 3366 
z
" transform="scale(0.015625)"/>
       <path id="DejaVuSans-20" transform="scale(0.015625)"/>
       <path id="DejaVuSans-6f" d="M 1959 3097 
Q 1497 3097 1228 2736 
Q 959 2375 959 1747 
Q 959 1119 1226 758 
Q 1494 397 1959 397 
Q 2419 397 2687 759 
Q 2956 1122 2956 1747 
Q 2956 2369 2687 2733 
Q 2419 3097 1959 3097 
z
M 1959 3584 
Q 2709 3584 3137 3096 
Q 3566 2609 3566 1747 
Q 3566 888 3137 398 
Q 2709 -91 1959 -91 
Q 1206 -91 779 398 
Q 353 888 353 1747 
Q 353 2609 779 3096 
Q 1206 3584 1959 3584 
z
" transform="scale(0.015625)"/>
       <path id="DejaVuSans-73" d="M 2834 3397 
L 2834 2853 
Q 2591 2978 2328 3040 
Q 2066 3103 1784 3103 
Q 1356 3103 1142 2972 
Q 928 2841 928 2578 
Q 928 2378 1081 2264 
Q 1234 2150 1697 2047 
L 1894 2003 
Q 2506 1872 2764 1633 
Q 3022 1394 3022 966 
Q 3022 478 2636 193 
Q 2250 -91 1575 -91 
Q 1294 -91 989 -36 
Q 684 19 347 128 
L 347 722 
Q 666 556 975 473 
Q 1284 391 1588 391 
Q 1994 391 2212 530 
Q 2431 669 2431 922 
Q 2431 1156 2273 1281 
Q 2116 1406 1581 1522 
L 1381 1569 
Q 847 1681 609 1914 
Q 372 2147 372 2553 
Q 372 3047 722 3315 
Q 1072 3584 1716 3584 
Q 2034 3584 2315 3537 
Q 2597 3491 2834 3397 
z
" transform="scale(0.015625)"/>
       <path id="DejaVuSans-72" d="M 2631 2963 
Q 2534 3019 2420 3045 
Q 2306 3072 2169 3072 
Q 1681 3072 1420 2755 
Q 1159 2438 1159 1844 
L 1159 0 
L 581 0 
L 581 3500 
L 1159 3500 
L 1159 2956 
Q 1341 3275 1631 3429 
Q 1922 3584 2338 3584 
Q 2397 3584 2469 3576 
Q 2541 3569 2628 3553 
L 2631 2963 
z
" transform="scale(0.015625)"/>
       <path id="DejaVuSans-70" d="M 1159 525 
L 1159 -1331 
L 581 -1331 
L 581 3500 
L 1159 3500 
L 1159 2969 
Q 1341 3281 1617 3432 
Q 1894 3584 2278 3584 
Q 2916 3584 3314 3078 
Q 3713 2572 3713 1747 
Q 3713 922 3314 415 
Q 2916 -91 2278 -91 
Q 1894 -91 1617 61 
Q 1341 213 1159 525 
z
M 3116 1747 
Q 3116 2381 2855 2742 
Q 2594 3103 2138 3103 
Q 1681 3103 1420 2742 
Q 1159 2381 1159 1747 
Q 1159 1113 1420 752 
Q 1681 391 2138 391 
Q 2594 391 2855 752 
Q 3116 1113 3116 1747 
z
" transform="scale(0.015625)"/>
       <path id="DejaVuSans-69" d="M 603 3500 
L 1178 3500 
L 1178 0 
L 603 0 
L 603 3500 
z
M 603 4863 
L 1178 4863 
L 1178 4134 
L 603 4134 
L 603 4863 
z
" transform="scale(0.015625)"/>
       <path id="DejaVuSans-61" d="M 2194 1759 
Q 1497 1759 1228 1600 
Q 959 1441 959 1056 
Q 959 750 1161 570 
Q 1363 391 1709 391 
Q 2188 391 2477 730 
Q 2766 1069 2766 1631 
L 2766 1759 
L 2194 1759 
z
M 3341 1997 
L 3341 0 
L 2766 0 
L 2766 531 
Q 2569 213 2275 61 
Q 1981 -91 1556 -91 
Q 1019 -91 701 211 
Q 384 513 384 1019 
Q 384 1609 779 1909 
Q 1175 2209 1959 2209 
L 2766 2209 
L 2766 2266 
Q 2766 2663 2505 2880 
Q 2244 3097 1772 3097 
Q 1472 3097 1187 3025 
Q 903 2953 641 2809 
L 641 3341 
Q 956 3463 1253 3523 
Q 1550 3584 1831 3584 
Q 2591 3584 2966 3190 
Q 3341 2797 3341 1997 
z
" transform="scale(0.015625)"/>
       <path id="DejaVuSans-28" d="M 1984 4856 
Q 1566 4138 1362 3434 
Q 1159 2731 1159 2009 
Q 1159 1288 1364 580 
Q 1569 -128 1984 -844 
L 1484 -844 
Q 1016 -109 783 600 
Q 550 1309 550 2009 
Q 550 2706 781 3412 
Q 1013 4119 1484 4856 
L 1984 4856 
z
" transform="scale(0.015625)"/>
       <path id="DejaVuSans-6d" d="M 3328 2828 
Q 3544 3216 3844 3400 
Q 4144 3584 4550 3584 
Q 5097 3584 5394 3201 
Q 5691 2819 5691 2113 
L 5691 0 
L 5113 0 
L 5113 2094 
Q 5113 2597 4934 2840 
Q 4756 3084 4391 3084 
Q 3944 3084 3684 2787 
Q 3425 2491 3425 1978 
L 3425 0 
L 2847 0 
L 2847 2094 
Q 2847 2600 2669 2842 
Q 2491 3084 2119 3084 
Q 1678 3084 1418 2786 
Q 1159 2488 1159 1978 
L 1159 0 
L 581 0 
L 581 3500 
L 1159 3500 
L 1159 2956 
Q 1356 3278 1631 3431 
Q 1906 3584 2284 3584 
Q 2666 3584 2933 3390 
Q 3200 3197 3328 2828 
z
" transform="scale(0.015625)"/>
       <path id="DejaVuSans-74" d="M 1172 4494 
L 1172 3500 
L 2356 3500 
L 2356 3053 
L 1172 3053 
L 1172 1153 
Q 1172 725 1289 603 
Q 1406 481 1766 481 
L 2356 481 
L 2356 0 
L 1766 0 
Q 1100 0 847 248 
Q 594 497 594 1153 
L 594 3053 
L 172 3053 
L 172 3500 
L 594 3500 
L 594 4494 
L 1172 4494 
z
" transform="scale(0.015625)"/>
       <path id="DejaVuSans-29" d="M 513 4856 
L 1013 4856 
Q 1481 4119 1714 3412 
Q 1947 2706 1947 2009 
Q 1947 1309 1714 600 
Q 1481 -109 1013 -844 
L 513 -844 
Q 928 -128 1133 580 
Q 1338 1288 1338 2009 
Q 1338 2731 1133 3434 
Q 928 4138 513 4856 
z
" transform="scale(0.015625)"/>
      </defs>
      <use xlink:href="#DejaVuSans-49"/>
      <use xlink:href="#DejaVuSans-6e" x="29.492188"/>
      <use xlink:href="#DejaVuSans-66" x="92.871094"/>
      <use xlink:href="#DejaVuSans-6c" x="128.076172"/>
      <use xlink:href="#DejaVuSans-75" x="155.859375"/>
      <use xlink:href="#DejaVuSans-65" x="219.238281"/>
      <use xlink:href="#DejaVuSans-6e" x="280.761719"/>
      <use xlink:href="#DejaVuSans-63" x="344.140625"/>
      <use xlink:href="#DejaVuSans-65" x="399.121094"/>
      <use xlink:href="#DejaVuSans-20" x="460.644531"/>
      <use xlink:href="#DejaVuSans-6f" x="492.431641"/>
      <use xlink:href="#DejaVuSans-66" x="553.613281"/>
      <use xlink:href="#DejaVuSans-20" x="588.818359"/>
      <use xlink:href="#DejaVuSans-73" x="620.605469"/>
      <use xlink:href="#DejaVuSans-75" x="672.705078"/>
      <use xlink:href="#DejaVuSans-72" x="736.083984"/>
      <use xlink:href="#DejaVuSans-70" x="777.197266"/>
      <use xlink:href="#DejaVuSans-72" x="840.673828"/>
      <use xlink:href="#DejaVuSans-69" x="881.787109"/>
      <use xlink:href="#DejaVuSans-73" x="909.570312"/>
      <use xlink:href="#DejaVuSans-61" x="961.669922"/>
      <use xlink:href="#DejaVuSans-6c" x="1022.949219"/>
      <use xlink:href="#DejaVuSans-20" x="1050.732422"/>
      <use xlink:href="#DejaVuSans-28" x="1082.519531"/>
      <use xlink:href="#DejaVuSans-6d" x="1121.533203"/>
      <use xlink:href="#DejaVuSans-75" x="1218.945312"/>
      <use xlink:href="#DejaVuSans-6c" x="1282.324219"/>
      <use xlink:href="#DejaVuSans-74" x="1310.107422"/>
      <use xlink:href="#DejaVuSans-69" x="1349.316406"/>
      <use xlink:href="#DejaVuSans-70" x="1377.099609"/>
      <use xlink:href="#DejaVuSans-6c" x="1440.576172"/>
      <use xlink:href="#DejaVuSans-69" x="1468.359375"/>
      <use xlink:href="#DejaVuSans-63" x="1496.142578"/>
      <use xlink:href="#DejaVuSans-61" x="1551.123047"/>
      <use xlink:href="#DejaVuSans-74" x="1612.402344"/>
      <use xlink:href="#DejaVuSans-69" x="1651.611328"/>
      <use xlink:href="#DejaVuSans-6f" x="1679.394531"/>
      <use xlink:href="#DejaVuSans-6e" x="1740.576172"/>
      <use xlink:href="#DejaVuSans-29" x="1803.955078"/>
     </g>
    </g>
   </g>
   <g id="matplotlib.axis_2">
    <g id="ytick_1">
     <g id="line2d_6">
      <defs>
       <path id="m40871af9e9" d="M 0 0 
L -3.5 0 
" style="stroke: #000000; stroke-width: 0.8"/>
      </defs>
      <g>
       <use xlink:href="#m40871af9e9" x="47.72" y="145.177156" style="stroke: #000000; stroke-width: 0.8"/>
      </g>
     </g>
     <g id="text_7">
      <!-- 0.4 -->
      <g transform="translate(24.816875 148.976374)scale(0.1 -0.1)">
       <defs>
        <path id="DejaVuSans-34" d="M 2419 4116 
L 825 1625 
L 2419 1625 
L 2419 4116 
z
M 2253 4666 
L 3047 4666 
L 3047 1625 
L 3713 1625 
L 3713 1100 
L 3047 1100 
L 3047 0 
L 2419 0 
L 2419 1100 
L 313 1100 
L 313 1709 
L 2253 4666 
z
" transform="scale(0.015625)"/>
       </defs>
       <use xlink:href="#DejaVuSans-30"/>
       <use xlink:href="#DejaVuSans-2e" x="63.623047"/>
       <use xlink:href="#DejaVuSans-34" x="95.410156"/>
      </g>
     </g>
    </g>
    <g id="ytick_2">
     <g id="line2d_7">
      <g>
       <use xlink:href="#m40871af9e9" x="47.72" y="107.974466" style="stroke: #000000; stroke-width: 0.8"/>
      </g>
     </g>
     <g id="text_8">
      <!-- 0.6 -->
      <g transform="translate(24.816875 111.773685)scale(0.1 -0.1)">
       <defs>
        <path id="DejaVuSans-36" d="M 2113 2584 
Q 1688 2584 1439 2293 
Q 1191 2003 1191 1497 
Q 1191 994 1439 701 
Q 1688 409 2113 409 
Q 2538 409 2786 701 
Q 3034 994 3034 1497 
Q 3034 2003 2786 2293 
Q 2538 2584 2113 2584 
z
M 3366 4563 
L 3366 3988 
Q 3128 4100 2886 4159 
Q 2644 4219 2406 4219 
Q 1781 4219 1451 3797 
Q 1122 3375 1075 2522 
Q 1259 2794 1537 2939 
Q 1816 3084 2150 3084 
Q 2853 3084 3261 2657 
Q 3669 2231 3669 1497 
Q 3669 778 3244 343 
Q 2819 -91 2113 -91 
Q 1303 -91 875 529 
Q 447 1150 447 2328 
Q 447 3434 972 4092 
Q 1497 4750 2381 4750 
Q 2619 4750 2861 4703 
Q 3103 4656 3366 4563 
z
" transform="scale(0.015625)"/>
       </defs>
       <use xlink:href="#DejaVuSans-30"/>
       <use xlink:href="#DejaVuSans-2e" x="63.623047"/>
       <use xlink:href="#DejaVuSans-36" x="95.410156"/>
      </g>
     </g>
    </g>
    <g id="ytick_3">
     <g id="line2d_8">
      <g>
       <use xlink:href="#m40871af9e9" x="47.72" y="70.771777" style="stroke: #000000; stroke-width: 0.8"/>
      </g>
     </g>
     <g id="text_9">
      <!-- 0.8 -->
      <g transform="translate(24.816875 74.570996)scale(0.1 -0.1)">
       <defs>
        <path id="DejaVuSans-38" d="M 2034 2216 
Q 1584 2216 1326 1975 
Q 1069 1734 1069 1313 
Q 1069 891 1326 650 
Q 1584 409 2034 409 
Q 2484 409 2743 651 
Q 3003 894 3003 1313 
Q 3003 1734 2745 1975 
Q 2488 2216 2034 2216 
z
M 1403 2484 
Q 997 2584 770 2862 
Q 544 3141 544 3541 
Q 544 4100 942 4425 
Q 1341 4750 2034 4750 
Q 2731 4750 3128 4425 
Q 3525 4100 3525 3541 
Q 3525 3141 3298 2862 
Q 3072 2584 2669 2484 
Q 3125 2378 3379 2068 
Q 3634 1759 3634 1313 
Q 3634 634 3220 271 
Q 2806 -91 2034 -91 
Q 1263 -91 848 271 
Q 434 634 434 1313 
Q 434 1759 690 2068 
Q 947 2378 1403 2484 
z
M 1172 3481 
Q 1172 3119 1398 2916 
Q 1625 2713 2034 2713 
Q 2441 2713 2670 2916 
Q 2900 3119 2900 3481 
Q 2900 3844 2670 4047 
Q 2441 4250 2034 4250 
Q 1625 4250 1398 4047 
Q 1172 3844 1172 3481 
z
" transform="scale(0.015625)"/>
       </defs>
       <use xlink:href="#DejaVuSans-30"/>
       <use xlink:href="#DejaVuSans-2e" x="63.623047"/>
       <use xlink:href="#DejaVuSans-38" x="95.410156"/>
      </g>
     </g>
    </g>
    <g id="ytick_4">
     <g id="line2d_9">
      <g>
       <use xlink:href="#m40871af9e9" x="47.72" y="33.569088" style="stroke: #000000; stroke-width: 0.8"/>
      </g>
     </g>
     <g id="text_10">
      <!-- 1.0 -->
      <g transform="translate(24.816875 37.368307)scale(0.1 -0.1)">
       <use xlink:href="#DejaVuSans-31"/>
       <use xlink:href="#DejaVuSans-2e" x="63.623047"/>
       <use xlink:href="#DejaVuSans-30" x="95.410156"/>
      </g>
     </g>
    </g>
    <g id="text_11">
     <!-- R-value -->
     <g transform="translate(18.737188 119.064687)rotate(-90)scale(0.1 -0.1)">
      <defs>
       <path id="DejaVuSans-52" d="M 2841 2188 
Q 3044 2119 3236 1894 
Q 3428 1669 3622 1275 
L 4263 0 
L 3584 0 
L 2988 1197 
Q 2756 1666 2539 1819 
Q 2322 1972 1947 1972 
L 1259 1972 
L 1259 0 
L 628 0 
L 628 4666 
L 2053 4666 
Q 2853 4666 3247 4331 
Q 3641 3997 3641 3322 
Q 3641 2881 3436 2590 
Q 3231 2300 2841 2188 
z
M 1259 4147 
L 1259 2491 
L 2053 2491 
Q 2509 2491 2742 2702 
Q 2975 2913 2975 3322 
Q 2975 3731 2742 3939 
Q 2509 4147 2053 4147 
L 1259 4147 
z
" transform="scale(0.015625)"/>
       <path id="DejaVuSans-2d" d="M 313 2009 
L 1997 2009 
L 1997 1497 
L 313 1497 
L 313 2009 
z
" transform="scale(0.015625)"/>
       <path id="DejaVuSans-76" d="M 191 3500 
L 800 3500 
L 1894 563 
L 2988 3500 
L 3597 3500 
L 2284 0 
L 1503 0 
L 191 3500 
z
" transform="scale(0.015625)"/>
      </defs>
      <use xlink:href="#DejaVuSans-52"/>
      <use xlink:href="#DejaVuSans-2d" x="65.482422"/>
      <use xlink:href="#DejaVuSans-76" x="98.941406"/>
      <use xlink:href="#DejaVuSans-61" x="158.121094"/>
      <use xlink:href="#DejaVuSans-6c" x="219.400391"/>
      <use xlink:href="#DejaVuSans-75" x="247.183594"/>
      <use xlink:href="#DejaVuSans-65" x="310.5625"/>
     </g>
    </g>
   </g>
   <g id="line2d_10">
    <path d="M 47.72 33.569091 
L 59.167105 34.558278 
L 70.614211 37.528666 
L 82.061316 41.517177 
L 93.508421 46.826665 
L 104.955526 53.210355 
L 116.402632 60.274976 
L 127.849737 67.763162 
L 139.296842 75.022566 
L 150.743947 82.746722 
L 162.191053 89.803225 
L 173.638158 97.489932 
L 185.085263 104.080501 
L 196.532368 111.039086 
L 207.979474 117.690568 
L 219.426579 124.031274 
L 230.873684 129.966651 
L 242.320789 135.806817 
L 253.767895 140.443341 
L 265.215 146.042695 
" clip-path="url(#pfbfe04c786)" style="fill: none; stroke: #1f77b4; stroke-width: 1.5; stroke-linecap: square"/>
   </g>
   <g id="line2d_11">
    <path d="M 47.72 33.569268 
L 59.167105 34.198198 
L 70.614211 35.635485 
L 82.061316 37.741011 
L 93.508421 40.77761 
L 104.955526 44.807453 
L 116.402632 49.452669 
L 127.849737 54.81373 
L 139.296842 60.244439 
L 150.743947 66.495478 
L 162.191053 72.466367 
L 173.638158 79.283615 
L 185.085263 85.437364 
L 196.532368 92.047149 
L 207.979474 98.439377 
L 219.426579 104.811544 
L 230.873684 110.868575 
L 242.320789 116.931751 
L 253.767895 121.968875 
L 265.215 127.802888 
" clip-path="url(#pfbfe04c786)" style="fill: none; stroke: #ff7f0e; stroke-width: 1.5; stroke-linecap: square"/>
   </g>
   <g id="line2d_12">
    <path d="M 47.72 33.569101 
L 59.167105 34.340671 
L 70.614211 35.666234 
L 82.061316 37.456904 
L 93.508421 39.894937 
L 104.955526 42.575123 
L 116.402632 45.740309 
L 127.849737 49.319513 
L 139.296842 52.686705 
L 150.743947 56.421255 
L 162.191053 59.963441 
L 173.638158 63.779109 
L 185.085263 67.370542 
L 196.532368 71.035045 
L 207.979474 74.416939 
L 219.426579 78.12337 
L 230.873684 81.704905 
L 242.320789 85.454275 
L 253.767895 88.713333 
L 265.215 92.468792 
" clip-path="url(#pfbfe04c786)" style="fill: none; stroke: #2ca02c; stroke-width: 1.5; stroke-linecap: square"/>
   </g>
   <g id="line2d_13">
    <path d="M 47.72 33.570064 
L 59.167105 34.171955 
L 70.614211 35.070769 
L 82.061316 36.364701 
L 93.508421 38.221471 
L 104.955526 40.453827 
L 116.402632 43.146589 
L 127.849737 46.418662 
L 139.296842 49.594759 
L 150.743947 53.34237 
L 162.191053 56.930544 
L 173.638158 60.90362 
L 185.085263 64.672169 
L 196.532368 68.504215 
L 207.979474 72.052018 
L 219.426579 75.936958 
L 230.873684 79.70667 
L 242.320789 83.63515 
L 253.767895 87.04744 
L 265.215 90.974591 
" clip-path="url(#pfbfe04c786)" style="fill: none; stroke: #d62728; stroke-width: 1.5; stroke-linecap: square"/>
   </g>
   <g id="line2d_14">
    <path d="M 47.72 33.569102 
L 59.167105 34.559065 
L 70.614211 37.540063 
L 82.061316 41.534293 
L 93.508421 46.839923 
L 104.955526 53.235355 
L 116.402632 60.431607 
L 127.849737 67.888776 
L 139.296842 75.075516 
L 150.743947 82.882655 
L 162.191053 89.878096 
L 173.638158 97.751765 
L 185.085263 104.237068 
L 196.532368 111.39487 
L 207.979474 118.151804 
L 219.426579 124.514364 
L 230.873684 129.800411 
L 242.320789 136.336136 
L 253.767895 140.586596 
L 265.215 146.616328 
" clip-path="url(#pfbfe04c786)" style="fill: none; stroke: #9467bd; stroke-width: 1.5; stroke-linecap: square"/>
   </g>
   <g id="line2d_15">
    <path d="M 47.72 33.569812 
L 59.167105 34.199839 
L 70.614211 35.640915 
L 82.061316 37.748729 
L 93.508421 40.774573 
L 104.955526 44.811894 
L 116.402632 49.550474 
L 127.849737 54.912576 
L 139.296842 60.259496 
L 150.743947 66.55476 
L 162.191053 72.520761 
L 173.638158 79.433228 
L 185.085263 85.513445 
L 196.532368 92.211231 
L 207.979474 98.664437 
L 219.426579 105.193436 
L 230.873684 110.733161 
L 242.320789 117.145766 
L 253.767895 121.942494 
L 265.215 128.252859 
" clip-path="url(#pfbfe04c786)" style="fill: none; stroke: #8c564b; stroke-width: 1.5; stroke-linecap: square"/>
   </g>
   <g id="line2d_16">
    <path d="M 47.72 48.931474 
L 59.167105 50.253522 
L 70.614211 53.77049 
L 82.061316 58.826487 
L 93.508421 65.377995 
L 104.955526 72.648185 
L 116.402632 80.77169 
L 127.849737 89.108592 
L 139.296842 97.026501 
L 150.743947 104.88496 
L 162.191053 112.333342 
L 173.638158 119.958591 
L 185.085263 126.352945 
L 196.532368 132.776668 
L 207.979474 138.584546 
L 219.426579 144.175577 
L 230.873684 149.334288 
L 242.320789 154.104068 
L 253.767895 157.843418 
L 265.215 162.210402 
" clip-path="url(#pfbfe04c786)" style="fill: none; stroke: #e377c2; stroke-width: 1.5; stroke-linecap: square"/>
   </g>
   <g id="line2d_17">
    <path d="M 47.72 33.569458 
L 59.167105 33.870626 
L 70.614211 34.044739 
L 82.061316 34.579556 
L 93.508421 35.744972 
L 104.955526 37.739138 
L 116.402632 40.584858 
L 127.849737 44.481765 
L 139.296842 48.893221 
L 150.743947 54.204806 
L 162.191053 59.642402 
L 173.638158 65.903987 
L 185.085263 71.95227 
L 196.532368 78.332997 
L 207.979474 84.798991 
L 219.426579 91.241815 
L 230.873684 97.463743 
L 242.320789 103.63863 
L 253.767895 109.092986 
L 265.215 115.065854 
" clip-path="url(#pfbfe04c786)" style="fill: none; stroke: #7f7f7f; stroke-width: 1.5; stroke-linecap: square"/>
   </g>
   <g id="patch_3">
    <path d="M 47.72 174.04 
L 47.72 26.88 
" style="fill: none; stroke: #000000; stroke-width: 0.8; stroke-linejoin: miter; stroke-linecap: square"/>
   </g>
   <g id="patch_4">
    <path d="M 47.72 174.04 
L 265.215 174.04 
" style="fill: none; stroke: #000000; stroke-width: 0.8; stroke-linejoin: miter; stroke-linecap: square"/>
   </g>
   <g id="text_12">
    <!-- Node * surprisal -->
    <g transform="translate(108.18625 20.88)scale(0.12 -0.12)">
     <defs>
      <path id="DejaVuSans-4e" d="M 628 4666 
L 1478 4666 
L 3547 763 
L 3547 4666 
L 4159 4666 
L 4159 0 
L 3309 0 
L 1241 3903 
L 1241 0 
L 628 0 
L 628 4666 
z
" transform="scale(0.015625)"/>
      <path id="DejaVuSans-64" d="M 2906 2969 
L 2906 4863 
L 3481 4863 
L 3481 0 
L 2906 0 
L 2906 525 
Q 2725 213 2448 61 
Q 2172 -91 1784 -91 
Q 1150 -91 751 415 
Q 353 922 353 1747 
Q 353 2572 751 3078 
Q 1150 3584 1784 3584 
Q 2172 3584 2448 3432 
Q 2725 3281 2906 2969 
z
M 947 1747 
Q 947 1113 1208 752 
Q 1469 391 1925 391 
Q 2381 391 2643 752 
Q 2906 1113 2906 1747 
Q 2906 2381 2643 2742 
Q 2381 3103 1925 3103 
Q 1469 3103 1208 2742 
Q 947 2381 947 1747 
z
" transform="scale(0.015625)"/>
      <path id="DejaVuSans-2a" d="M 3009 3897 
L 1888 3291 
L 3009 2681 
L 2828 2375 
L 1778 3009 
L 1778 1831 
L 1422 1831 
L 1422 3009 
L 372 2375 
L 191 2681 
L 1313 3291 
L 191 3897 
L 372 4206 
L 1422 3572 
L 1422 4750 
L 1778 4750 
L 1778 3572 
L 2828 4206 
L 3009 3897 
z
" transform="scale(0.015625)"/>
     </defs>
     <use xlink:href="#DejaVuSans-4e"/>
     <use xlink:href="#DejaVuSans-6f" x="74.804688"/>
     <use xlink:href="#DejaVuSans-64" x="135.986328"/>
     <use xlink:href="#DejaVuSans-65" x="199.462891"/>
     <use xlink:href="#DejaVuSans-20" x="260.986328"/>
     <use xlink:href="#DejaVuSans-2a" x="292.773438"/>
     <use xlink:href="#DejaVuSans-20" x="342.773438"/>
     <use xlink:href="#DejaVuSans-73" x="374.560547"/>
     <use xlink:href="#DejaVuSans-75" x="426.660156"/>
     <use xlink:href="#DejaVuSans-72" x="490.039062"/>
     <use xlink:href="#DejaVuSans-70" x="531.152344"/>
     <use xlink:href="#DejaVuSans-72" x="594.628906"/>
     <use xlink:href="#DejaVuSans-69" x="635.742188"/>
     <use xlink:href="#DejaVuSans-73" x="663.525391"/>
     <use xlink:href="#DejaVuSans-61" x="715.625"/>
     <use xlink:href="#DejaVuSans-6c" x="776.904297"/>
    </g>
   </g>
  </g>
  <g id="axes_2">
   <g id="patch_5">
    <path d="M 298.065 174.04 
L 515.56 174.04 
L 515.56 26.88 
L 298.065 26.88 
z
" style="fill: #ffffff"/>
   </g>
   <g id="PolyCollection_9">
    <path d="M 298.065 33.569091 
L 298.065 33.569092 
L 309.512105 34.71249 
L 320.959211 38.195869 
L 332.406316 42.688261 
L 343.853421 48.360104 
L 355.300526 55.189326 
L 366.747632 62.564933 
L 378.194737 70.742458 
L 389.641842 79.111928 
L 401.088947 87.159381 
L 412.536053 95.585104 
L 423.983158 103.836255 
L 435.430263 111.092592 
L 446.877368 118.928914 
L 458.324474 125.214991 
L 469.771579 131.432953 
L 481.218684 137.606794 
L 492.665789 142.926944 
L 504.112895 147.728171 
L 515.56 152.700743 
L 515.56 133.291189 
L 515.56 133.291189 
L 504.112895 128.422826 
L 492.665789 123.411239 
L 481.218684 118.213156 
L 469.771579 112.372885 
L 458.324474 107.056627 
L 446.877368 101.161344 
L 435.430263 94.769218 
L 423.983158 88.830034 
L 412.536053 81.736542 
L 401.088947 75.549111 
L 389.641842 68.899413 
L 378.194737 61.949194 
L 366.747632 55.712422 
L 355.300526 49.641467 
L 343.853421 44.459079 
L 332.406316 39.929925 
L 320.959211 36.634523 
L 309.512105 34.223038 
L 298.065 33.569091 
z
" clip-path="url(#p62144ef9e0)" style="fill: #1f77b4; fill-opacity: 0.4"/>
   </g>
   <g id="PolyCollection_10">
    <path d="M 298.065 33.569235 
L 298.065 33.569302 
L 309.512105 34.712512 
L 320.959211 38.190021 
L 332.406316 42.680282 
L 343.853421 48.3448 
L 355.300526 55.172213 
L 366.747632 62.544199 
L 378.194737 70.728445 
L 389.641842 79.101737 
L 401.088947 87.150897 
L 412.536053 95.577385 
L 423.983158 103.855358 
L 435.430263 111.141148 
L 446.877368 119.01053 
L 458.324474 125.36967 
L 469.771579 131.66116 
L 481.218684 137.860828 
L 492.665789 143.209044 
L 504.112895 148.109204 
L 515.56 153.087668 
L 515.56 133.334293 
L 515.56 133.334293 
L 504.112895 128.423021 
L 492.665789 123.533801 
L 481.218684 118.315511 
L 469.771579 112.531681 
L 458.324474 107.183514 
L 446.877368 101.344124 
L 435.430263 94.92648 
L 423.983158 88.967878 
L 412.536053 81.826015 
L 401.088947 75.641581 
L 389.641842 68.984787 
L 378.194737 61.990881 
L 366.747632 55.752628 
L 355.300526 49.662939 
L 343.853421 44.477626 
L 332.406316 39.939372 
L 320.959211 36.636375 
L 309.512105 34.223831 
L 298.065 33.569235 
z
" clip-path="url(#p62144ef9e0)" style="fill: #ff7f0e; fill-opacity: 0.4"/>
   </g>
   <g id="PolyCollection_11">
    <path d="M 298.065 33.5691 
L 298.065 33.569103 
L 309.512105 34.7125 
L 320.959211 38.191271 
L 332.406316 42.67987 
L 343.853421 48.350943 
L 355.300526 55.186418 
L 366.747632 62.566438 
L 378.194737 70.804503 
L 389.641842 79.225342 
L 401.088947 87.358677 
L 412.536053 95.842965 
L 423.983158 104.193727 
L 435.430263 111.540413 
L 446.877368 119.368471 
L 458.324474 125.684752 
L 469.771579 131.908422 
L 481.218684 138.002453 
L 492.665789 143.350672 
L 504.112895 148.144607 
L 515.56 152.993522 
L 515.56 134.21017 
L 515.56 134.21017 
L 504.112895 129.216517 
L 492.665789 124.206832 
L 481.218684 118.976771 
L 469.771579 113.061349 
L 458.324474 107.737352 
L 446.877368 101.765056 
L 435.430263 95.274996 
L 423.983158 89.255286 
L 412.536053 82.093023 
L 401.088947 75.853098 
L 389.641842 69.146614 
L 378.194737 62.150158 
L 366.747632 55.872924 
L 355.300526 49.72663 
L 343.853421 44.512506 
L 332.406316 39.985101 
L 320.959211 36.657755 
L 309.512105 34.226074 
L 298.065 33.5691 
z
" clip-path="url(#p62144ef9e0)" style="fill: #2ca02c; fill-opacity: 0.4"/>
   </g>
   <g id="PolyCollection_12">
    <path d="M 298.065 33.569847 
L 298.065 33.57028 
L 309.512105 34.712892 
L 320.959211 38.191125 
L 332.406316 42.684215 
L 343.853421 48.357375 
L 355.300526 55.204755 
L 366.747632 62.597353 
L 378.194737 70.843732 
L 389.641842 79.292803 
L 401.088947 87.404212 
L 412.536053 95.874291 
L 423.983158 104.272325 
L 435.430263 111.630944 
L 446.877368 119.473039 
L 458.324474 125.840577 
L 469.771579 132.18422 
L 481.218684 138.353844 
L 492.665789 143.733255 
L 504.112895 148.574441 
L 515.56 153.485563 
L 515.56 134.164884 
L 515.56 134.164884 
L 504.112895 129.123555 
L 492.665789 124.133099 
L 481.218684 118.912385 
L 469.771579 113.028297 
L 458.324474 107.710072 
L 446.877368 101.771092 
L 435.430263 95.322933 
L 423.983158 89.283761 
L 412.536053 82.104242 
L 401.088947 75.871074 
L 389.641842 69.155234 
L 378.194737 62.145389 
L 366.747632 55.858779 
L 355.300526 49.721647 
L 343.853421 44.511268 
L 332.406316 39.97804 
L 320.959211 36.656977 
L 309.512105 34.226741 
L 298.065 33.569847 
z
" clip-path="url(#p62144ef9e0)" style="fill: #d62728; fill-opacity: 0.4"/>
   </g>
   <g id="PolyCollection_13">
    <path d="M 298.065 33.5691 
L 298.065 33.569103 
L 309.512105 34.712876 
L 320.959211 38.215756 
L 332.406316 42.68028 
L 343.853421 48.399987 
L 355.300526 55.258217 
L 366.747632 62.649401 
L 378.194737 70.796919 
L 389.641842 79.054957 
L 401.088947 87.163499 
L 412.536053 95.556716 
L 423.983158 103.943925 
L 435.430263 111.396126 
L 446.877368 119.070817 
L 458.324474 125.562333 
L 469.771579 131.548056 
L 481.218684 137.690581 
L 492.665789 142.873679 
L 504.112895 147.573376 
L 515.56 152.766576 
L 515.56 134.364561 
L 515.56 134.364561 
L 504.112895 129.095298 
L 492.665789 124.300296 
L 481.218684 118.75915 
L 469.771579 112.175162 
L 458.324474 106.992788 
L 446.877368 101.43107 
L 435.430263 94.519519 
L 423.983158 89.277747 
L 412.536053 81.928578 
L 401.088947 75.532498 
L 389.641842 69.18032 
L 378.194737 62.023388 
L 366.747632 55.727087 
L 355.300526 49.725895 
L 343.853421 44.480512 
L 332.406316 39.929447 
L 320.959211 36.635777 
L 309.512105 34.225413 
L 298.065 33.5691 
z
" clip-path="url(#p62144ef9e0)" style="fill: #9467bd; fill-opacity: 0.4"/>
   </g>
   <g id="PolyCollection_14">
    <path d="M 298.065 33.569674 
L 298.065 33.569943 
L 309.512105 34.713248 
L 320.959211 38.209668 
L 332.406316 42.672607 
L 343.853421 48.383301 
L 355.300526 55.238829 
L 366.747632 62.62473 
L 378.194737 70.787079 
L 389.641842 79.039565 
L 401.088947 87.145764 
L 412.536053 95.529711 
L 423.983158 103.956897 
L 435.430263 111.413166 
L 446.877368 119.136709 
L 458.324474 125.708397 
L 469.771579 131.760033 
L 481.218684 137.953435 
L 492.665789 143.158214 
L 504.112895 147.946278 
L 515.56 153.161344 
L 515.56 134.370299 
L 515.56 134.370299 
L 504.112895 129.076225 
L 492.665789 124.414711 
L 481.218684 118.870736 
L 469.771579 112.325834 
L 458.324474 107.139627 
L 446.877368 101.627177 
L 435.430263 94.729866 
L 423.983158 89.396646 
L 412.536053 82.045935 
L 401.088947 75.632855 
L 389.641842 69.267858 
L 378.194737 62.069727 
L 366.747632 55.769146 
L 355.300526 49.749018 
L 343.853421 44.49905 
L 332.406316 39.942144 
L 320.959211 36.639073 
L 309.512105 34.22706 
L 298.065 33.569674 
z
" clip-path="url(#p62144ef9e0)" style="fill: #8c564b; fill-opacity: 0.4"/>
   </g>
   <g id="PolyCollection_15">
    <path d="M 298.065 47.294653 
L 298.065 50.568295 
L 309.512105 51.337704 
L 320.959211 53.990699 
L 332.406316 57.700346 
L 343.853421 62.359921 
L 355.300526 68.14335 
L 366.747632 74.444968 
L 378.194737 81.714732 
L 389.641842 89.232279 
L 401.088947 96.533273 
L 412.536053 103.902612 
L 423.983158 111.538609 
L 435.430263 118.332926 
L 446.877368 125.569781 
L 458.324474 131.568862 
L 469.771579 137.233784 
L 481.218684 142.78935 
L 492.665789 148.167363 
L 504.112895 152.453031 
L 515.56 156.919087 
L 515.56 141.942017 
L 515.56 141.942017 
L 504.112895 137.690413 
L 492.665789 132.889353 
L 481.218684 128.522176 
L 469.771579 122.989106 
L 458.324474 118.152525 
L 446.877368 112.704703 
L 435.430263 106.723212 
L 423.983158 101.024696 
L 412.536053 94.550402 
L 401.088947 88.575083 
L 389.641842 82.135394 
L 378.194737 75.580584 
L 366.747632 69.711619 
L 355.300526 63.610319 
L 343.853421 58.350301 
L 332.406316 54.016562 
L 320.959211 50.701885 
L 309.512105 48.123368 
L 298.065 47.294653 
z
" clip-path="url(#p62144ef9e0)" style="fill: #e377c2; fill-opacity: 0.4"/>
   </g>
   <g id="PolyCollection_16">
    <path d="M 298.065 33.569384 
L 298.065 33.569532 
L 309.512105 34.710498 
L 320.959211 38.194715 
L 332.406316 42.67943 
L 343.853421 48.370708 
L 355.300526 55.208834 
L 366.747632 62.588483 
L 378.194737 70.80022 
L 389.641842 79.237191 
L 401.088947 87.365146 
L 412.536053 95.816577 
L 423.983158 104.174865 
L 435.430263 111.534753 
L 446.877368 119.392892 
L 458.324474 125.820563 
L 469.771579 132.137925 
L 481.218684 138.349073 
L 492.665789 143.759013 
L 504.112895 148.764871 
L 515.56 153.657194 
L 515.56 133.89395 
L 515.56 133.89395 
L 504.112895 128.974911 
L 492.665789 124.149292 
L 481.218684 118.893909 
L 469.771579 113.01508 
L 458.324474 107.664244 
L 446.877368 101.840423 
L 435.430263 95.332194 
L 423.983158 89.312836 
L 412.536053 82.095231 
L 401.088947 75.877156 
L 389.641842 69.179049 
L 378.194737 62.142448 
L 366.747632 55.857179 
L 355.300526 49.717656 
L 343.853421 44.508631 
L 332.406316 39.978736 
L 320.959211 36.654184 
L 309.512105 34.225878 
L 298.065 33.569384 
z
" clip-path="url(#p62144ef9e0)" style="fill: #7f7f7f; fill-opacity: 0.4"/>
   </g>
   <g id="matplotlib.axis_3">
    <g id="xtick_6">
     <g id="line2d_18">
      <g>
       <use xlink:href="#m2c7201a9ad" x="298.065" y="174.04" style="stroke: #000000; stroke-width: 0.8"/>
      </g>
     </g>
     <g id="text_13">
      <!-- 0.0 -->
      <g transform="translate(290.113437 188.638438)scale(0.1 -0.1)">
       <use xlink:href="#DejaVuSans-30"/>
       <use xlink:href="#DejaVuSans-2e" x="63.623047"/>
       <use xlink:href="#DejaVuSans-30" x="95.410156"/>
      </g>
     </g>
    </g>
    <g id="xtick_7">
     <g id="line2d_19">
      <g>
       <use xlink:href="#m2c7201a9ad" x="352.43875" y="174.04" style="stroke: #000000; stroke-width: 0.8"/>
      </g>
     </g>
     <g id="text_14">
      <!-- 0.5 -->
      <g transform="translate(344.487187 188.638438)scale(0.1 -0.1)">
       <use xlink:href="#DejaVuSans-30"/>
       <use xlink:href="#DejaVuSans-2e" x="63.623047"/>
       <use xlink:href="#DejaVuSans-35" x="95.410156"/>
      </g>
     </g>
    </g>
    <g id="xtick_8">
     <g id="line2d_20">
      <g>
       <use xlink:href="#m2c7201a9ad" x="406.8125" y="174.04" style="stroke: #000000; stroke-width: 0.8"/>
      </g>
     </g>
     <g id="text_15">
      <!-- 1.0 -->
      <g transform="translate(398.860937 188.638438)scale(0.1 -0.1)">
       <use xlink:href="#DejaVuSans-31"/>
       <use xlink:href="#DejaVuSans-2e" x="63.623047"/>
       <use xlink:href="#DejaVuSans-30" x="95.410156"/>
      </g>
     </g>
    </g>
    <g id="xtick_9">
     <g id="line2d_21">
      <g>
       <use xlink:href="#m2c7201a9ad" x="461.18625" y="174.04" style="stroke: #000000; stroke-width: 0.8"/>
      </g>
     </g>
     <g id="text_16">
      <!-- 1.5 -->
      <g transform="translate(453.234687 188.638438)scale(0.1 -0.1)">
       <use xlink:href="#DejaVuSans-31"/>
       <use xlink:href="#DejaVuSans-2e" x="63.623047"/>
       <use xlink:href="#DejaVuSans-35" x="95.410156"/>
      </g>
     </g>
    </g>
    <g id="xtick_10">
     <g id="line2d_22">
      <g>
       <use xlink:href="#m2c7201a9ad" x="515.56" y="174.04" style="stroke: #000000; stroke-width: 0.8"/>
      </g>
     </g>
     <g id="text_17">
      <!-- 2.0 -->
      <g transform="translate(507.608437 188.638438)scale(0.1 -0.1)">
       <use xlink:href="#DejaVuSans-32"/>
       <use xlink:href="#DejaVuSans-2e" x="63.623047"/>
       <use xlink:href="#DejaVuSans-30" x="95.410156"/>
      </g>
     </g>
    </g>
    <g id="text_18">
     <!-- Influence of surprisal (multiplication) -->
     <g transform="translate(314.665625 202.316563)scale(0.1 -0.1)">
      <use xlink:href="#DejaVuSans-49"/>
      <use xlink:href="#DejaVuSans-6e" x="29.492188"/>
      <use xlink:href="#DejaVuSans-66" x="92.871094"/>
      <use xlink:href="#DejaVuSans-6c" x="128.076172"/>
      <use xlink:href="#DejaVuSans-75" x="155.859375"/>
      <use xlink:href="#DejaVuSans-65" x="219.238281"/>
      <use xlink:href="#DejaVuSans-6e" x="280.761719"/>
      <use xlink:href="#DejaVuSans-63" x="344.140625"/>
      <use xlink:href="#DejaVuSans-65" x="399.121094"/>
      <use xlink:href="#DejaVuSans-20" x="460.644531"/>
      <use xlink:href="#DejaVuSans-6f" x="492.431641"/>
      <use xlink:href="#DejaVuSans-66" x="553.613281"/>
      <use xlink:href="#DejaVuSans-20" x="588.818359"/>
      <use xlink:href="#DejaVuSans-73" x="620.605469"/>
      <use xlink:href="#DejaVuSans-75" x="672.705078"/>
      <use xlink:href="#DejaVuSans-72" x="736.083984"/>
      <use xlink:href="#DejaVuSans-70" x="777.197266"/>
      <use xlink:href="#DejaVuSans-72" x="840.673828"/>
      <use xlink:href="#DejaVuSans-69" x="881.787109"/>
      <use xlink:href="#DejaVuSans-73" x="909.570312"/>
      <use xlink:href="#DejaVuSans-61" x="961.669922"/>
      <use xlink:href="#DejaVuSans-6c" x="1022.949219"/>
      <use xlink:href="#DejaVuSans-20" x="1050.732422"/>
      <use xlink:href="#DejaVuSans-28" x="1082.519531"/>
      <use xlink:href="#DejaVuSans-6d" x="1121.533203"/>
      <use xlink:href="#DejaVuSans-75" x="1218.945312"/>
      <use xlink:href="#DejaVuSans-6c" x="1282.324219"/>
      <use xlink:href="#DejaVuSans-74" x="1310.107422"/>
      <use xlink:href="#DejaVuSans-69" x="1349.316406"/>
      <use xlink:href="#DejaVuSans-70" x="1377.099609"/>
      <use xlink:href="#DejaVuSans-6c" x="1440.576172"/>
      <use xlink:href="#DejaVuSans-69" x="1468.359375"/>
      <use xlink:href="#DejaVuSans-63" x="1496.142578"/>
      <use xlink:href="#DejaVuSans-61" x="1551.123047"/>
      <use xlink:href="#DejaVuSans-74" x="1612.402344"/>
      <use xlink:href="#DejaVuSans-69" x="1651.611328"/>
      <use xlink:href="#DejaVuSans-6f" x="1679.394531"/>
      <use xlink:href="#DejaVuSans-6e" x="1740.576172"/>
      <use xlink:href="#DejaVuSans-29" x="1803.955078"/>
     </g>
    </g>
   </g>
   <g id="line2d_23">
    <path d="M 298.065 33.569091 
L 309.512105 34.467764 
L 320.959211 37.415196 
L 332.406316 41.309093 
L 343.853421 46.409591 
L 355.300526 52.415396 
L 366.747632 59.138677 
L 378.194737 66.345826 
L 389.641842 74.005671 
L 401.088947 81.354246 
L 412.536053 88.660823 
L 423.983158 96.333145 
L 435.430263 102.930905 
L 446.877368 110.045129 
L 458.324474 116.135809 
L 469.771579 121.902919 
L 481.218684 127.909975 
L 492.665789 133.169092 
L 504.112895 138.075498 
L 515.56 142.995966 
" clip-path="url(#p62144ef9e0)" style="fill: none; stroke: #1f77b4; stroke-width: 1.5; stroke-linecap: square"/>
   </g>
   <g id="line2d_24">
    <path d="M 298.065 33.569268 
L 309.512105 34.468172 
L 320.959211 37.413198 
L 332.406316 41.309827 
L 343.853421 46.411213 
L 355.300526 52.417576 
L 366.747632 59.148413 
L 378.194737 66.359663 
L 389.641842 74.043262 
L 401.088947 81.396239 
L 412.536053 88.7017 
L 423.983158 96.411618 
L 435.430263 103.033814 
L 446.877368 110.177327 
L 458.324474 116.276592 
L 469.771579 122.09642 
L 481.218684 128.08817 
L 492.665789 133.371423 
L 504.112895 138.266113 
L 515.56 143.210981 
" clip-path="url(#p62144ef9e0)" style="fill: none; stroke: #ff7f0e; stroke-width: 1.5; stroke-linecap: square"/>
   </g>
   <g id="line2d_25">
    <path d="M 298.065 33.569101 
L 309.512105 34.469287 
L 320.959211 37.424513 
L 332.406316 41.332485 
L 343.853421 46.431725 
L 355.300526 52.456524 
L 366.747632 59.219681 
L 378.194737 66.47733 
L 389.641842 74.185978 
L 401.088947 81.605888 
L 412.536053 88.967994 
L 423.983158 96.724506 
L 435.430263 103.407704 
L 446.877368 110.566764 
L 458.324474 116.711052 
L 469.771579 122.484885 
L 481.218684 128.489612 
L 492.665789 133.778752 
L 504.112895 138.680562 
L 515.56 143.601846 
" clip-path="url(#p62144ef9e0)" style="fill: none; stroke: #2ca02c; stroke-width: 1.5; stroke-linecap: square"/>
   </g>
   <g id="line2d_26">
    <path d="M 298.065 33.570064 
L 309.512105 34.469817 
L 320.959211 37.424051 
L 332.406316 41.331127 
L 343.853421 46.434322 
L 355.300526 52.463201 
L 366.747632 59.228066 
L 378.194737 66.49456 
L 389.641842 74.224018 
L 401.088947 81.637643 
L 412.536053 88.989266 
L 423.983158 96.778043 
L 435.430263 103.476938 
L 446.877368 110.622066 
L 458.324474 116.775325 
L 469.771579 122.606258 
L 481.218684 128.633115 
L 492.665789 133.933177 
L 504.112895 138.848998 
L 515.56 143.825223 
" clip-path="url(#p62144ef9e0)" style="fill: none; stroke: #d62728; stroke-width: 1.5; stroke-linecap: square"/>
   </g>
   <g id="line2d_27">
    <path d="M 298.065 33.569102 
L 309.512105 34.469144 
L 320.959211 37.425766 
L 332.406316 41.304863 
L 343.853421 46.440249 
L 355.300526 52.492056 
L 366.747632 59.188244 
L 378.194737 66.410153 
L 389.641842 74.117639 
L 401.088947 81.347998 
L 412.536053 88.742647 
L 423.983158 96.610836 
L 435.430263 102.957822 
L 446.877368 110.250943 
L 458.324474 116.277561 
L 469.771579 121.861609 
L 481.218684 128.224866 
L 492.665789 133.586988 
L 504.112895 138.334337 
L 515.56 143.565568 
" clip-path="url(#p62144ef9e0)" style="fill: none; stroke: #9467bd; stroke-width: 1.5; stroke-linecap: square"/>
   </g>
   <g id="line2d_28">
    <path d="M 298.065 33.569809 
L 309.512105 34.470154 
L 320.959211 37.424371 
L 332.406316 41.307376 
L 343.853421 46.441176 
L 355.300526 52.493924 
L 366.747632 59.196938 
L 378.194737 66.428403 
L 389.641842 74.153712 
L 401.088947 81.389309 
L 412.536053 88.787823 
L 423.983158 96.676772 
L 435.430263 103.071516 
L 446.877368 110.381943 
L 458.324474 116.424012 
L 469.771579 122.042934 
L 481.218684 128.412085 
L 492.665789 133.786463 
L 504.112895 138.511251 
L 515.56 143.765821 
" clip-path="url(#p62144ef9e0)" style="fill: none; stroke: #8c564b; stroke-width: 1.5; stroke-linecap: square"/>
   </g>
   <g id="line2d_29">
    <path d="M 298.065 48.931474 
L 309.512105 49.730536 
L 320.959211 52.346292 
L 332.406316 55.858454 
L 343.853421 60.355111 
L 355.300526 65.876834 
L 366.747632 72.078293 
L 378.194737 78.647658 
L 389.641842 85.683836 
L 401.088947 92.554178 
L 412.536053 99.226507 
L 423.983158 106.281652 
L 435.430263 112.528069 
L 446.877368 119.137242 
L 458.324474 124.860693 
L 469.771579 130.111445 
L 481.218684 135.655763 
L 492.665789 140.528358 
L 504.112895 145.071722 
L 515.56 149.430552 
" clip-path="url(#p62144ef9e0)" style="fill: none; stroke: #e377c2; stroke-width: 1.5; stroke-linecap: square"/>
   </g>
   <g id="line2d_30">
    <path d="M 298.065 33.569458 
L 309.512105 34.468188 
L 320.959211 37.42445 
L 332.406316 41.329083 
L 343.853421 46.43967 
L 355.300526 52.463245 
L 366.747632 59.222831 
L 378.194737 66.471334 
L 389.641842 74.20812 
L 401.088947 81.621151 
L 412.536053 88.955904 
L 423.983158 96.743851 
L 435.430263 103.433473 
L 446.877368 110.616658 
L 458.324474 116.742404 
L 469.771579 122.576502 
L 481.218684 128.621491 
L 492.665789 133.954153 
L 504.112895 138.869891 
L 515.56 143.775572 
" clip-path="url(#p62144ef9e0)" style="fill: none; stroke: #7f7f7f; stroke-width: 1.5; stroke-linecap: square"/>
   </g>
   <g id="patch_6">
    <path d="M 298.065 174.04 
L 298.065 26.88 
" style="fill: none; stroke: #000000; stroke-width: 0.8; stroke-linejoin: miter; stroke-linecap: square"/>
   </g>
   <g id="patch_7">
    <path d="M 298.065 174.04 
L 515.56 174.04 
" style="fill: none; stroke: #000000; stroke-width: 0.8; stroke-linejoin: miter; stroke-linecap: square"/>
   </g>
   <g id="text_19">
    <!-- Node * third variable -->
    <g transform="translate(344.2325 20.88)scale(0.12 -0.12)">
     <defs>
      <path id="DejaVuSans-68" d="M 3513 2113 
L 3513 0 
L 2938 0 
L 2938 2094 
Q 2938 2591 2744 2837 
Q 2550 3084 2163 3084 
Q 1697 3084 1428 2787 
Q 1159 2491 1159 1978 
L 1159 0 
L 581 0 
L 581 4863 
L 1159 4863 
L 1159 2956 
Q 1366 3272 1645 3428 
Q 1925 3584 2291 3584 
Q 2894 3584 3203 3211 
Q 3513 2838 3513 2113 
z
" transform="scale(0.015625)"/>
      <path id="DejaVuSans-62" d="M 3116 1747 
Q 3116 2381 2855 2742 
Q 2594 3103 2138 3103 
Q 1681 3103 1420 2742 
Q 1159 2381 1159 1747 
Q 1159 1113 1420 752 
Q 1681 391 2138 391 
Q 2594 391 2855 752 
Q 3116 1113 3116 1747 
z
M 1159 2969 
Q 1341 3281 1617 3432 
Q 1894 3584 2278 3584 
Q 2916 3584 3314 3078 
Q 3713 2572 3713 1747 
Q 3713 922 3314 415 
Q 2916 -91 2278 -91 
Q 1894 -91 1617 61 
Q 1341 213 1159 525 
L 1159 0 
L 581 0 
L 581 4863 
L 1159 4863 
L 1159 2969 
z
" transform="scale(0.015625)"/>
     </defs>
     <use xlink:href="#DejaVuSans-4e"/>
     <use xlink:href="#DejaVuSans-6f" x="74.804688"/>
     <use xlink:href="#DejaVuSans-64" x="135.986328"/>
     <use xlink:href="#DejaVuSans-65" x="199.462891"/>
     <use xlink:href="#DejaVuSans-20" x="260.986328"/>
     <use xlink:href="#DejaVuSans-2a" x="292.773438"/>
     <use xlink:href="#DejaVuSans-20" x="342.773438"/>
     <use xlink:href="#DejaVuSans-74" x="374.560547"/>
     <use xlink:href="#DejaVuSans-68" x="413.769531"/>
     <use xlink:href="#DejaVuSans-69" x="477.148438"/>
     <use xlink:href="#DejaVuSans-72" x="504.931641"/>
     <use xlink:href="#DejaVuSans-64" x="544.294922"/>
     <use xlink:href="#DejaVuSans-20" x="607.771484"/>
     <use xlink:href="#DejaVuSans-76" x="639.558594"/>
     <use xlink:href="#DejaVuSans-61" x="698.738281"/>
     <use xlink:href="#DejaVuSans-72" x="760.017578"/>
     <use xlink:href="#DejaVuSans-69" x="801.130859"/>
     <use xlink:href="#DejaVuSans-61" x="828.914062"/>
     <use xlink:href="#DejaVuSans-62" x="890.193359"/>
     <use xlink:href="#DejaVuSans-6c" x="953.669922"/>
     <use xlink:href="#DejaVuSans-65" x="981.453125"/>
    </g>
   </g>
   <g id="legend_1">
    <g id="line2d_31">
     <path d="M 524.56 39.978437 
L 534.56 39.978437 
L 544.56 39.978437 
" style="fill: none; stroke: #1f77b4; stroke-width: 1.5; stroke-linecap: square"/>
    </g>
    <g id="text_20">
     <!-- Node -->
     <g transform="translate(552.56 43.478437)scale(0.1 -0.1)">
      <use xlink:href="#DejaVuSans-4e"/>
      <use xlink:href="#DejaVuSans-6f" x="74.804688"/>
      <use xlink:href="#DejaVuSans-64" x="135.986328"/>
      <use xlink:href="#DejaVuSans-65" x="199.462891"/>
     </g>
    </g>
    <g id="line2d_32">
     <path d="M 524.56 54.656563 
L 534.56 54.656563 
L 544.56 54.656563 
" style="fill: none; stroke: #ff7f0e; stroke-width: 1.5; stroke-linecap: square"/>
    </g>
    <g id="text_21">
     <!-- Node + surprisal -->
     <g transform="translate(552.56 58.156563)scale(0.1 -0.1)">
      <defs>
       <path id="DejaVuSans-2b" d="M 2944 4013 
L 2944 2272 
L 4684 2272 
L 4684 1741 
L 2944 1741 
L 2944 0 
L 2419 0 
L 2419 1741 
L 678 1741 
L 678 2272 
L 2419 2272 
L 2419 4013 
L 2944 4013 
z
" transform="scale(0.015625)"/>
      </defs>
      <use xlink:href="#DejaVuSans-4e"/>
      <use xlink:href="#DejaVuSans-6f" x="74.804688"/>
      <use xlink:href="#DejaVuSans-64" x="135.986328"/>
      <use xlink:href="#DejaVuSans-65" x="199.462891"/>
      <use xlink:href="#DejaVuSans-20" x="260.986328"/>
      <use xlink:href="#DejaVuSans-2b" x="292.773438"/>
      <use xlink:href="#DejaVuSans-20" x="376.5625"/>
      <use xlink:href="#DejaVuSans-73" x="408.349609"/>
      <use xlink:href="#DejaVuSans-75" x="460.449219"/>
      <use xlink:href="#DejaVuSans-72" x="523.828125"/>
      <use xlink:href="#DejaVuSans-70" x="564.941406"/>
      <use xlink:href="#DejaVuSans-72" x="628.417969"/>
      <use xlink:href="#DejaVuSans-69" x="669.53125"/>
      <use xlink:href="#DejaVuSans-73" x="697.314453"/>
      <use xlink:href="#DejaVuSans-61" x="749.414062"/>
      <use xlink:href="#DejaVuSans-6c" x="810.693359"/>
     </g>
    </g>
    <g id="line2d_33">
     <path d="M 524.56 69.334687 
L 534.56 69.334687 
L 544.56 69.334687 
" style="fill: none; stroke: #2ca02c; stroke-width: 1.5; stroke-linecap: square"/>
    </g>
    <g id="text_22">
     <!-- Node split -->
     <g transform="translate(552.56 72.834687)scale(0.1 -0.1)">
      <use xlink:href="#DejaVuSans-4e"/>
      <use xlink:href="#DejaVuSans-6f" x="74.804688"/>
      <use xlink:href="#DejaVuSans-64" x="135.986328"/>
      <use xlink:href="#DejaVuSans-65" x="199.462891"/>
      <use xlink:href="#DejaVuSans-20" x="260.986328"/>
      <use xlink:href="#DejaVuSans-73" x="292.773438"/>
      <use xlink:href="#DejaVuSans-70" x="344.873047"/>
      <use xlink:href="#DejaVuSans-6c" x="408.349609"/>
      <use xlink:href="#DejaVuSans-69" x="436.132812"/>
      <use xlink:href="#DejaVuSans-74" x="463.916016"/>
     </g>
    </g>
    <g id="line2d_34">
     <path d="M 524.56 84.012812 
L 534.56 84.012812 
L 544.56 84.012812 
" style="fill: none; stroke: #d62728; stroke-width: 1.5; stroke-linecap: square"/>
    </g>
    <g id="text_23">
     <!-- Node split + surprisal -->
     <g transform="translate(552.56 87.512812)scale(0.1 -0.1)">
      <use xlink:href="#DejaVuSans-4e"/>
      <use xlink:href="#DejaVuSans-6f" x="74.804688"/>
      <use xlink:href="#DejaVuSans-64" x="135.986328"/>
      <use xlink:href="#DejaVuSans-65" x="199.462891"/>
      <use xlink:href="#DejaVuSans-20" x="260.986328"/>
      <use xlink:href="#DejaVuSans-73" x="292.773438"/>
      <use xlink:href="#DejaVuSans-70" x="344.873047"/>
      <use xlink:href="#DejaVuSans-6c" x="408.349609"/>
      <use xlink:href="#DejaVuSans-69" x="436.132812"/>
      <use xlink:href="#DejaVuSans-74" x="463.916016"/>
      <use xlink:href="#DejaVuSans-20" x="503.125"/>
      <use xlink:href="#DejaVuSans-2b" x="534.912109"/>
      <use xlink:href="#DejaVuSans-20" x="618.701172"/>
      <use xlink:href="#DejaVuSans-73" x="650.488281"/>
      <use xlink:href="#DejaVuSans-75" x="702.587891"/>
      <use xlink:href="#DejaVuSans-72" x="765.966797"/>
      <use xlink:href="#DejaVuSans-70" x="807.080078"/>
      <use xlink:href="#DejaVuSans-72" x="870.556641"/>
      <use xlink:href="#DejaVuSans-69" x="911.669922"/>
      <use xlink:href="#DejaVuSans-73" x="939.453125"/>
      <use xlink:href="#DejaVuSans-61" x="991.552734"/>
      <use xlink:href="#DejaVuSans-6c" x="1052.832031"/>
     </g>
    </g>
    <g id="line2d_35">
     <path d="M 524.56 98.690937 
L 534.56 98.690937 
L 544.56 98.690937 
" style="fill: none; stroke: #9467bd; stroke-width: 1.5; stroke-linecap: square"/>
    </g>
    <g id="text_24">
     <!-- Node random split -->
     <g transform="translate(552.56 102.190937)scale(0.1 -0.1)">
      <use xlink:href="#DejaVuSans-4e"/>
      <use xlink:href="#DejaVuSans-6f" x="74.804688"/>
      <use xlink:href="#DejaVuSans-64" x="135.986328"/>
      <use xlink:href="#DejaVuSans-65" x="199.462891"/>
      <use xlink:href="#DejaVuSans-20" x="260.986328"/>
      <use xlink:href="#DejaVuSans-72" x="292.773438"/>
      <use xlink:href="#DejaVuSans-61" x="333.886719"/>
      <use xlink:href="#DejaVuSans-6e" x="395.166016"/>
      <use xlink:href="#DejaVuSans-64" x="458.544922"/>
      <use xlink:href="#DejaVuSans-6f" x="522.021484"/>
      <use xlink:href="#DejaVuSans-6d" x="583.203125"/>
      <use xlink:href="#DejaVuSans-20" x="680.615234"/>
      <use xlink:href="#DejaVuSans-73" x="712.402344"/>
      <use xlink:href="#DejaVuSans-70" x="764.501953"/>
      <use xlink:href="#DejaVuSans-6c" x="827.978516"/>
      <use xlink:href="#DejaVuSans-69" x="855.761719"/>
      <use xlink:href="#DejaVuSans-74" x="883.544922"/>
     </g>
    </g>
    <g id="line2d_36">
     <path d="M 524.56 113.369062 
L 534.56 113.369062 
L 544.56 113.369062 
" style="fill: none; stroke: #8c564b; stroke-width: 1.5; stroke-linecap: square"/>
    </g>
    <g id="text_25">
     <!-- Node random split + surprisal -->
     <g transform="translate(552.56 116.869062)scale(0.1 -0.1)">
      <use xlink:href="#DejaVuSans-4e"/>
      <use xlink:href="#DejaVuSans-6f" x="74.804688"/>
      <use xlink:href="#DejaVuSans-64" x="135.986328"/>
      <use xlink:href="#DejaVuSans-65" x="199.462891"/>
      <use xlink:href="#DejaVuSans-20" x="260.986328"/>
      <use xlink:href="#DejaVuSans-72" x="292.773438"/>
      <use xlink:href="#DejaVuSans-61" x="333.886719"/>
      <use xlink:href="#DejaVuSans-6e" x="395.166016"/>
      <use xlink:href="#DejaVuSans-64" x="458.544922"/>
      <use xlink:href="#DejaVuSans-6f" x="522.021484"/>
      <use xlink:href="#DejaVuSans-6d" x="583.203125"/>
      <use xlink:href="#DejaVuSans-20" x="680.615234"/>
      <use xlink:href="#DejaVuSans-73" x="712.402344"/>
      <use xlink:href="#DejaVuSans-70" x="764.501953"/>
      <use xlink:href="#DejaVuSans-6c" x="827.978516"/>
      <use xlink:href="#DejaVuSans-69" x="855.761719"/>
      <use xlink:href="#DejaVuSans-74" x="883.544922"/>
      <use xlink:href="#DejaVuSans-20" x="922.753906"/>
      <use xlink:href="#DejaVuSans-2b" x="954.541016"/>
      <use xlink:href="#DejaVuSans-20" x="1038.330078"/>
      <use xlink:href="#DejaVuSans-73" x="1070.117188"/>
      <use xlink:href="#DejaVuSans-75" x="1122.216797"/>
      <use xlink:href="#DejaVuSans-72" x="1185.595703"/>
      <use xlink:href="#DejaVuSans-70" x="1226.708984"/>
      <use xlink:href="#DejaVuSans-72" x="1290.185547"/>
      <use xlink:href="#DejaVuSans-69" x="1331.298828"/>
      <use xlink:href="#DejaVuSans-73" x="1359.082031"/>
      <use xlink:href="#DejaVuSans-61" x="1411.181641"/>
      <use xlink:href="#DejaVuSans-6c" x="1472.460938"/>
     </g>
    </g>
    <g id="line2d_37">
     <path d="M 524.56 128.047187 
L 534.56 128.047187 
L 544.56 128.047187 
" style="fill: none; stroke: #e377c2; stroke-width: 1.5; stroke-linecap: square"/>
    </g>
    <g id="text_26">
     <!-- Interaction -->
     <g transform="translate(552.56 131.547187)scale(0.1 -0.1)">
      <use xlink:href="#DejaVuSans-49"/>
      <use xlink:href="#DejaVuSans-6e" x="29.492188"/>
      <use xlink:href="#DejaVuSans-74" x="92.871094"/>
      <use xlink:href="#DejaVuSans-65" x="132.080078"/>
      <use xlink:href="#DejaVuSans-72" x="193.603516"/>
      <use xlink:href="#DejaVuSans-61" x="234.716797"/>
      <use xlink:href="#DejaVuSans-63" x="295.996094"/>
      <use xlink:href="#DejaVuSans-74" x="350.976562"/>
      <use xlink:href="#DejaVuSans-69" x="390.185547"/>
      <use xlink:href="#DejaVuSans-6f" x="417.96875"/>
      <use xlink:href="#DejaVuSans-6e" x="479.150391"/>
     </g>
    </g>
    <g id="line2d_38">
     <path d="M 524.56 142.725312 
L 534.56 142.725312 
L 544.56 142.725312 
" style="fill: none; stroke: #7f7f7f; stroke-width: 1.5; stroke-linecap: square"/>
    </g>
    <g id="text_27">
     <!-- Node + surprisal + interaction -->
     <g transform="translate(552.56 146.225312)scale(0.1 -0.1)">
      <use xlink:href="#DejaVuSans-4e"/>
      <use xlink:href="#DejaVuSans-6f" x="74.804688"/>
      <use xlink:href="#DejaVuSans-64" x="135.986328"/>
      <use xlink:href="#DejaVuSans-65" x="199.462891"/>
      <use xlink:href="#DejaVuSans-20" x="260.986328"/>
      <use xlink:href="#DejaVuSans-2b" x="292.773438"/>
      <use xlink:href="#DejaVuSans-20" x="376.5625"/>
      <use xlink:href="#DejaVuSans-73" x="408.349609"/>
      <use xlink:href="#DejaVuSans-75" x="460.449219"/>
      <use xlink:href="#DejaVuSans-72" x="523.828125"/>
      <use xlink:href="#DejaVuSans-70" x="564.941406"/>
      <use xlink:href="#DejaVuSans-72" x="628.417969"/>
      <use xlink:href="#DejaVuSans-69" x="669.53125"/>
      <use xlink:href="#DejaVuSans-73" x="697.314453"/>
      <use xlink:href="#DejaVuSans-61" x="749.414062"/>
      <use xlink:href="#DejaVuSans-6c" x="810.693359"/>
      <use xlink:href="#DejaVuSans-20" x="838.476562"/>
      <use xlink:href="#DejaVuSans-2b" x="870.263672"/>
      <use xlink:href="#DejaVuSans-20" x="954.052734"/>
      <use xlink:href="#DejaVuSans-69" x="985.839844"/>
      <use xlink:href="#DejaVuSans-6e" x="1013.623047"/>
      <use xlink:href="#DejaVuSans-74" x="1077.001953"/>
      <use xlink:href="#DejaVuSans-65" x="1116.210938"/>
      <use xlink:href="#DejaVuSans-72" x="1177.734375"/>
      <use xlink:href="#DejaVuSans-61" x="1218.847656"/>
      <use xlink:href="#DejaVuSans-63" x="1280.126953"/>
      <use xlink:href="#DejaVuSans-74" x="1335.107422"/>
      <use xlink:href="#DejaVuSans-69" x="1374.316406"/>
      <use xlink:href="#DejaVuSans-6f" x="1402.099609"/>
      <use xlink:href="#DejaVuSans-6e" x="1463.28125"/>
     </g>
    </g>
   </g>
  </g>
 </g>
 <defs>
  <clipPath id="pfbfe04c786">
   <rect x="47.72" y="26.88" width="217.495" height="147.16"/>
  </clipPath>
  <clipPath id="p62144ef9e0">
   <rect x="298.065" y="26.88" width="217.495" height="147.16"/>
  </clipPath>
 </defs>
</svg>
