<?xml version="1.0" encoding="utf-8" standalone="no"?>
<!DOCTYPE svg PUBLIC "-//W3C//DTD SVG 1.1//EN"
  "http://www.w3.org/Graphics/SVG/1.1/DTD/svg11.dtd">
<svg xmlns:xlink="http://www.w3.org/1999/xlink" width="720pt" height="216pt" viewBox="0 0 720 216" xmlns="http://www.w3.org/2000/svg" version="1.1">
 <metadata>
  <rdf:RDF xmlns:dc="http://purl.org/dc/elements/1.1/" xmlns:cc="http://creativecommons.org/ns#" xmlns:rdf="http://www.w3.org/1999/02/22-rdf-syntax-ns#">
   <cc:Work>
    <dc:type rdf:resource="http://purl.org/dc/dcmitype/StillImage"/>
    <dc:date>2024-01-15T19:40:16.181981</dc:date>
    <dc:format>image/svg+xml</dc:format>
    <dc:creator>
     <cc:Agent>
      <dc:title>Matplotlib v3.5.1, https://matplotlib.org/</dc:title>
     </cc:Agent>
    </dc:creator>
   </cc:Work>
  </rdf:RDF>
 </metadata>
 <defs>
  <style type="text/css">*{stroke-linejoin: round; stroke-linecap: butt}</style>
 </defs>
 <g id="figure_1">
  <g id="patch_1">
   <path d="M 0 216 
L 720 216 
L 720 0 
L 0 0 
z
" style="fill: #ffffff"/>
  </g>
  <g id="axes_1">
   <g id="patch_2">
    <path d="M 47.72 174.04 
L 265.215 174.04 
L 265.215 26.88 
L 47.72 26.88 
z
" style="fill: #ffffff"/>
   </g>
   <g id="PolyCollection_1">
    <path d="M 47.72 33.569091 
L 47.72 33.569092 
L 59.167105 34.632163 
L 70.614211 37.755682 
L 82.061316 41.858933 
L 93.508421 47.689107 
L 104.955526 54.057803 
L 116.402632 61.420911 
L 127.849737 69.530945 
L 139.296842 76.929559 
L 150.743947 85.792835 
L 162.191053 93.647449 
L 173.638158 101.891864 
L 185.085263 109.405081 
L 196.532368 116.648432 
L 207.979474 122.998233 
L 219.426579 129.194995 
L 230.873684 135.239657 
L 242.320789 139.780216 
L 253.767895 144.561592 
L 265.215 149.4931 
L 265.215 135.599596 
L 265.215 135.599596 
L 253.767895 130.883165 
L 242.320789 126.3851 
L 230.873684 121.043091 
L 219.426579 115.465019 
L 207.979474 109.34596 
L 196.532368 103.078856 
L 185.085263 96.631 
L 173.638158 89.779987 
L 162.191053 82.698151 
L 150.743947 75.678821 
L 139.296842 68.638324 
L 127.849737 61.757552 
L 116.402632 55.365299 
L 104.955526 49.454231 
L 93.508421 44.160096 
L 82.061316 39.965304 
L 70.614211 36.580872 
L 59.167105 34.328638 
L 47.72 33.569091 
z
" clip-path="url(#p8700e93194)" style="fill: #1f77b4; fill-opacity: 0.4"/>
   </g>
   <g id="PolyCollection_2">
    <path d="M 47.72 33.569241 
L 47.72 33.569291 
L 59.167105 34.232149 
L 70.614211 35.888564 
L 82.061316 38.277836 
L 93.508421 41.919967 
L 104.955526 46.397048 
L 116.402632 51.784322 
L 127.849737 57.671757 
L 139.296842 63.436623 
L 150.743947 70.05877 
L 162.191053 76.536124 
L 173.638158 83.321894 
L 185.085263 90.407247 
L 196.532368 97.230068 
L 207.979474 103.884006 
L 219.426579 110.44316 
L 230.873684 116.953446 
L 242.320789 122.36895 
L 253.767895 127.75681 
L 265.215 133.347697 
L 265.215 117.903178 
L 265.215 117.903178 
L 253.767895 112.971057 
L 242.320789 108.052073 
L 230.873684 102.803925 
L 219.426579 96.9907 
L 207.979474 91.051956 
L 196.532368 85.037882 
L 185.085263 78.998569 
L 173.638158 73.066253 
L 162.191053 66.870575 
L 150.743947 61.398994 
L 139.296842 55.723341 
L 127.849737 51.033748 
L 116.402632 46.536134 
L 104.955526 42.593355 
L 93.508421 39.566153 
L 82.061316 37.014932 
L 70.614211 35.198365 
L 59.167105 34.05784 
L 47.72 33.569241 
z
" clip-path="url(#p8700e93194)" style="fill: #ff7f0e; fill-opacity: 0.4"/>
   </g>
   <g id="PolyCollection_3">
    <path d="M 47.72 33.569099 
L 47.72 33.569104 
L 59.167105 34.377856 
L 70.614211 35.759307 
L 82.061316 37.589204 
L 93.508421 40.202863 
L 104.955526 42.90314 
L 116.402632 46.405019 
L 127.849737 49.927422 
L 139.296842 53.299142 
L 150.743947 57.161764 
L 162.191053 60.856602 
L 173.638158 65.006503 
L 185.085263 69.273562 
L 196.532368 73.222171 
L 207.979474 77.384789 
L 219.426579 81.022857 
L 230.873684 85.127406 
L 242.320789 88.5231 
L 253.767895 92.270562 
L 265.215 95.9437 
L 265.215 86.285747 
L 265.215 86.285747 
L 253.767895 82.560943 
L 242.320789 79.316016 
L 230.873684 75.873533 
L 219.426579 71.73374 
L 207.979474 68.391099 
L 196.532368 64.873861 
L 185.085263 61.198127 
L 173.638158 57.675071 
L 162.191053 54.479784 
L 150.743947 51.032539 
L 139.296842 47.949638 
L 127.849737 45.434202 
L 116.402632 42.572595 
L 104.955526 40.044434 
L 93.508421 37.972026 
L 82.061316 36.44336 
L 70.614211 35.145644 
L 59.167105 34.135392 
L 47.72 33.569099 
z
" clip-path="url(#p8700e93194)" style="fill: #2ca02c; fill-opacity: 0.4"/>
   </g>
   <g id="PolyCollection_4">
    <path d="M 47.72 33.5699 
L 47.72 33.570271 
L 59.167105 34.173288 
L 70.614211 35.165877 
L 82.061316 36.478131 
L 93.508421 38.545565 
L 104.955526 40.839372 
L 116.402632 43.998565 
L 127.849737 47.183898 
L 139.296842 50.267834 
L 150.743947 53.964959 
L 162.191053 57.637155 
L 173.638158 61.756491 
L 185.085263 66.085562 
L 196.532368 70.121362 
L 207.979474 74.334321 
L 219.426579 78.116645 
L 230.873684 82.448877 
L 242.320789 85.965648 
L 253.767895 89.937342 
L 265.215 93.786811 
L 265.215 84.918806 
L 265.215 84.918806 
L 253.767895 81.12723 
L 242.320789 77.774925 
L 230.873684 74.306349 
L 219.426579 70.108953 
L 207.979474 66.6641 
L 196.532368 63.032813 
L 185.085263 59.326804 
L 173.638158 55.826054 
L 162.191053 52.614348 
L 150.743947 49.370712 
L 139.296842 46.23803 
L 127.849737 43.761851 
L 116.402632 41.035541 
L 104.955526 38.778676 
L 93.508421 37.069607 
L 82.061316 35.784387 
L 70.614211 34.755566 
L 59.167105 34.036592 
L 47.72 33.5699 
z
" clip-path="url(#p8700e93194)" style="fill: #d62728; fill-opacity: 0.4"/>
   </g>
   <g id="PolyCollection_5">
    <path d="M 47.72 33.569099 
L 47.72 33.569103 
L 59.167105 34.63204 
L 70.614211 37.766679 
L 82.061316 41.846016 
L 93.508421 47.703994 
L 104.955526 54.09299 
L 116.402632 61.441375 
L 127.849737 69.657773 
L 139.296842 77.112578 
L 150.743947 85.838894 
L 162.191053 93.740587 
L 173.638158 101.913746 
L 185.085263 109.562894 
L 196.532368 116.890264 
L 207.979474 122.647661 
L 219.426579 129.158516 
L 230.873684 135.105457 
L 242.320789 140.016074 
L 253.767895 144.974802 
L 265.215 149.310778 
L 265.215 136.317168 
L 265.215 136.317168 
L 253.767895 131.345289 
L 242.320789 126.943968 
L 230.873684 121.26308 
L 219.426579 115.163578 
L 207.979474 109.87682 
L 196.532368 103.46364 
L 185.085263 96.957807 
L 173.638158 89.801553 
L 162.191053 82.806033 
L 150.743947 75.825951 
L 139.296842 68.729345 
L 127.849737 61.684708 
L 116.402632 55.419889 
L 104.955526 49.451759 
L 93.508421 44.226122 
L 82.061316 39.929067 
L 70.614211 36.594589 
L 59.167105 34.332136 
L 47.72 33.569099 
z
" clip-path="url(#p8700e93194)" style="fill: #9467bd; fill-opacity: 0.4"/>
   </g>
   <g id="PolyCollection_6">
    <path d="M 47.72 33.569698 
L 47.72 33.569899 
L 59.167105 34.230812 
L 70.614211 35.896897 
L 82.061316 38.254449 
L 93.508421 41.943535 
L 104.955526 46.415477 
L 116.402632 51.779992 
L 127.849737 57.637126 
L 139.296842 63.518069 
L 150.743947 70.108426 
L 162.191053 76.49181 
L 173.638158 83.349867 
L 185.085263 90.511546 
L 196.532368 97.513048 
L 207.979474 103.992039 
L 219.426579 110.294075 
L 230.873684 116.990234 
L 242.320789 122.603558 
L 253.767895 127.849547 
L 265.215 133.700994 
L 265.215 118.129462 
L 265.215 118.129462 
L 253.767895 113.421904 
L 242.320789 108.319192 
L 230.873684 103.049013 
L 219.426579 96.835376 
L 207.979474 91.109222 
L 196.532368 85.199734 
L 185.085263 79.196505 
L 173.638158 73.0829 
L 162.191053 67.043182 
L 150.743947 61.520804 
L 139.296842 55.737303 
L 127.849737 51.016448 
L 116.402632 46.518195 
L 104.955526 42.605689 
L 93.508421 39.630618 
L 82.061316 37.014941 
L 70.614211 35.202632 
L 59.167105 34.060157 
L 47.72 33.569698 
z
" clip-path="url(#p8700e93194)" style="fill: #8c564b; fill-opacity: 0.4"/>
   </g>
   <g id="PolyCollection_7">
    <path d="M 47.72 45.728438 
L 47.72 49.773758 
L 59.167105 51.252274 
L 70.614211 55.071917 
L 82.061316 60.479506 
L 93.508421 67.453316 
L 104.955526 74.34795 
L 116.402632 82.317861 
L 127.849737 90.440686 
L 139.296842 98.279864 
L 150.743947 106.983849 
L 162.191053 115.655181 
L 173.638158 124.082495 
L 185.085263 132.18953 
L 196.532368 139.457658 
L 207.979474 145.455402 
L 219.426579 151.180052 
L 230.873684 156.399483 
L 242.320789 160.108318 
L 253.767895 163.650443 
L 265.215 167.350909 
L 265.215 150.218449 
L 265.215 150.218449 
L 253.767895 146.164164 
L 242.320789 142.102619 
L 230.873684 136.993406 
L 219.426579 131.66743 
L 207.979474 125.775663 
L 196.532368 119.614361 
L 185.085263 112.659783 
L 173.638158 105.554068 
L 162.191053 98.498121 
L 150.743947 91.342032 
L 139.296842 83.77349 
L 127.849737 77.068363 
L 116.402632 69.978605 
L 104.955526 63.320096 
L 93.508421 57.508801 
L 82.061316 52.837426 
L 70.614211 49.072598 
L 59.167105 46.662641 
L 47.72 45.728438 
z
" clip-path="url(#p8700e93194)" style="fill: #e377c2; fill-opacity: 0.4"/>
   </g>
   <g id="PolyCollection_8">
    <path d="M 47.72 33.569376 
L 47.72 33.569479 
L 59.167105 33.869086 
L 70.614211 34.127065 
L 82.061316 34.984832 
L 93.508421 36.918896 
L 104.955526 39.607246 
L 116.402632 43.139826 
L 127.849737 47.165562 
L 139.296842 51.206717 
L 150.743947 55.840909 
L 162.191053 61.075922 
L 173.638158 66.930612 
L 185.085263 73.422817 
L 196.532368 79.519927 
L 207.979474 86.142713 
L 219.426579 92.98989 
L 230.873684 99.635615 
L 242.320789 105.403087 
L 253.767895 111.380743 
L 265.215 117.485776 
L 265.215 102.927253 
L 265.215 102.927253 
L 253.767895 97.133961 
L 242.320789 91.612134 
L 230.873684 85.871971 
L 219.426579 79.473601 
L 207.979474 73.571296 
L 196.532368 67.542334 
L 185.085263 61.576468 
L 173.638158 56.252095 
L 162.191053 51.382662 
L 150.743947 47.002411 
L 139.296842 42.703972 
L 127.849737 39.628075 
L 116.402632 37.162504 
L 104.955526 35.427232 
L 93.508421 34.482118 
L 82.061316 34.076195 
L 70.614211 33.905836 
L 59.167105 33.812692 
L 47.72 33.569376 
z
" clip-path="url(#p8700e93194)" style="fill: #7f7f7f; fill-opacity: 0.4"/>
   </g>
   <g id="matplotlib.axis_1">
    <g id="xtick_1">
     <g id="line2d_1">
      <defs>
       <path id="mc3ad4b5119" d="M 0 0 
L 0 3.5 
" style="stroke: #000000; stroke-width: 0.8"/>
      </defs>
      <g>
       <use xlink:href="#mc3ad4b5119" x="47.72" y="174.04" style="stroke: #000000; stroke-width: 0.8"/>
      </g>
     </g>
     <g id="text_1">
      <!-- 0.0 -->
      <g transform="translate(39.768438 188.638438)scale(0.1 -0.1)">
       <defs>
        <path id="DejaVuSans-30" d="M 2034 4250 
Q 1547 4250 1301 3770 
Q 1056 3291 1056 2328 
Q 1056 1369 1301 889 
Q 1547 409 2034 409 
Q 2525 409 2770 889 
Q 3016 1369 3016 2328 
Q 3016 3291 2770 3770 
Q 2525 4250 2034 4250 
z
M 2034 4750 
Q 2819 4750 3233 4129 
Q 3647 3509 3647 2328 
Q 3647 1150 3233 529 
Q 2819 -91 2034 -91 
Q 1250 -91 836 529 
Q 422 1150 422 2328 
Q 422 3509 836 4129 
Q 1250 4750 2034 4750 
z
" transform="scale(0.015625)"/>
        <path id="DejaVuSans-2e" d="M 684 794 
L 1344 794 
L 1344 0 
L 684 0 
L 684 794 
z
" transform="scale(0.015625)"/>
       </defs>
       <use xlink:href="#DejaVuSans-30"/>
       <use xlink:href="#DejaVuSans-2e" x="63.623047"/>
       <use xlink:href="#DejaVuSans-30" x="95.410156"/>
      </g>
     </g>
    </g>
    <g id="xtick_2">
     <g id="line2d_2">
      <g>
       <use xlink:href="#mc3ad4b5119" x="102.09375" y="174.04" style="stroke: #000000; stroke-width: 0.8"/>
      </g>
     </g>
     <g id="text_2">
      <!-- 0.5 -->
      <g transform="translate(94.142188 188.638438)scale(0.1 -0.1)">
       <defs>
        <path id="DejaVuSans-35" d="M 691 4666 
L 3169 4666 
L 3169 4134 
L 1269 4134 
L 1269 2991 
Q 1406 3038 1543 3061 
Q 1681 3084 1819 3084 
Q 2600 3084 3056 2656 
Q 3513 2228 3513 1497 
Q 3513 744 3044 326 
Q 2575 -91 1722 -91 
Q 1428 -91 1123 -41 
Q 819 9 494 109 
L 494 744 
Q 775 591 1075 516 
Q 1375 441 1709 441 
Q 2250 441 2565 725 
Q 2881 1009 2881 1497 
Q 2881 1984 2565 2268 
Q 2250 2553 1709 2553 
Q 1456 2553 1204 2497 
Q 953 2441 691 2322 
L 691 4666 
z
" transform="scale(0.015625)"/>
       </defs>
       <use xlink:href="#DejaVuSans-30"/>
       <use xlink:href="#DejaVuSans-2e" x="63.623047"/>
       <use xlink:href="#DejaVuSans-35" x="95.410156"/>
      </g>
     </g>
    </g>
    <g id="xtick_3">
     <g id="line2d_3">
      <g>
       <use xlink:href="#mc3ad4b5119" x="156.4675" y="174.04" style="stroke: #000000; stroke-width: 0.8"/>
      </g>
     </g>
     <g id="text_3">
      <!-- 1.0 -->
      <g transform="translate(148.515938 188.638438)scale(0.1 -0.1)">
       <defs>
        <path id="DejaVuSans-31" d="M 794 531 
L 1825 531 
L 1825 4091 
L 703 3866 
L 703 4441 
L 1819 4666 
L 2450 4666 
L 2450 531 
L 3481 531 
L 3481 0 
L 794 0 
L 794 531 
z
" transform="scale(0.015625)"/>
       </defs>
       <use xlink:href="#DejaVuSans-31"/>
       <use xlink:href="#DejaVuSans-2e" x="63.623047"/>
       <use xlink:href="#DejaVuSans-30" x="95.410156"/>
      </g>
     </g>
    </g>
    <g id="xtick_4">
     <g id="line2d_4">
      <g>
       <use xlink:href="#mc3ad4b5119" x="210.84125" y="174.04" style="stroke: #000000; stroke-width: 0.8"/>
      </g>
     </g>
     <g id="text_4">
      <!-- 1.5 -->
      <g transform="translate(202.889687 188.638438)scale(0.1 -0.1)">
       <use xlink:href="#DejaVuSans-31"/>
       <use xlink:href="#DejaVuSans-2e" x="63.623047"/>
       <use xlink:href="#DejaVuSans-35" x="95.410156"/>
      </g>
     </g>
    </g>
    <g id="xtick_5">
     <g id="line2d_5">
      <g>
       <use xlink:href="#mc3ad4b5119" x="265.215" y="174.04" style="stroke: #000000; stroke-width: 0.8"/>
      </g>
     </g>
     <g id="text_5">
      <!-- 2.0 -->
      <g transform="translate(257.263437 188.638438)scale(0.1 -0.1)">
       <defs>
        <path id="DejaVuSans-32" d="M 1228 531 
L 3431 531 
L 3431 0 
L 469 0 
L 469 531 
Q 828 903 1448 1529 
Q 2069 2156 2228 2338 
Q 2531 2678 2651 2914 
Q 2772 3150 2772 3378 
Q 2772 3750 2511 3984 
Q 2250 4219 1831 4219 
Q 1534 4219 1204 4116 
Q 875 4013 500 3803 
L 500 4441 
Q 881 4594 1212 4672 
Q 1544 4750 1819 4750 
Q 2544 4750 2975 4387 
Q 3406 4025 3406 3419 
Q 3406 3131 3298 2873 
Q 3191 2616 2906 2266 
Q 2828 2175 2409 1742 
Q 1991 1309 1228 531 
z
" transform="scale(0.015625)"/>
       </defs>
       <use xlink:href="#DejaVuSans-32"/>
       <use xlink:href="#DejaVuSans-2e" x="63.623047"/>
       <use xlink:href="#DejaVuSans-30" x="95.410156"/>
      </g>
     </g>
    </g>
    <g id="text_6">
     <!-- Influence of surprisal (multiplication) -->
     <g transform="translate(64.320625 202.316563)scale(0.1 -0.1)">
      <defs>
       <path id="DejaVuSans-49" d="M 628 4666 
L 1259 4666 
L 1259 0 
L 628 0 
L 628 4666 
z
" transform="scale(0.015625)"/>
       <path id="DejaVuSans-6e" d="M 3513 2113 
L 3513 0 
L 2938 0 
L 2938 2094 
Q 2938 2591 2744 2837 
Q 2550 3084 2163 3084 
Q 1697 3084 1428 2787 
Q 1159 2491 1159 1978 
L 1159 0 
L 581 0 
L 581 3500 
L 1159 3500 
L 1159 2956 
Q 1366 3272 1645 3428 
Q 1925 3584 2291 3584 
Q 2894 3584 3203 3211 
Q 3513 2838 3513 2113 
z
" transform="scale(0.015625)"/>
       <path id="DejaVuSans-66" d="M 2375 4863 
L 2375 4384 
L 1825 4384 
Q 1516 4384 1395 4259 
Q 1275 4134 1275 3809 
L 1275 3500 
L 2222 3500 
L 2222 3053 
L 1275 3053 
L 1275 0 
L 697 0 
L 697 3053 
L 147 3053 
L 147 3500 
L 697 3500 
L 697 3744 
Q 697 4328 969 4595 
Q 1241 4863 1831 4863 
L 2375 4863 
z
" transform="scale(0.015625)"/>
       <path id="DejaVuSans-6c" d="M 603 4863 
L 1178 4863 
L 1178 0 
L 603 0 
L 603 4863 
z
" transform="scale(0.015625)"/>
       <path id="DejaVuSans-75" d="M 544 1381 
L 544 3500 
L 1119 3500 
L 1119 1403 
Q 1119 906 1312 657 
Q 1506 409 1894 409 
Q 2359 409 2629 706 
Q 2900 1003 2900 1516 
L 2900 3500 
L 3475 3500 
L 3475 0 
L 2900 0 
L 2900 538 
Q 2691 219 2414 64 
Q 2138 -91 1772 -91 
Q 1169 -91 856 284 
Q 544 659 544 1381 
z
M 1991 3584 
L 1991 3584 
z
" transform="scale(0.015625)"/>
       <path id="DejaVuSans-65" d="M 3597 1894 
L 3597 1613 
L 953 1613 
Q 991 1019 1311 708 
Q 1631 397 2203 397 
Q 2534 397 2845 478 
Q 3156 559 3463 722 
L 3463 178 
Q 3153 47 2828 -22 
Q 2503 -91 2169 -91 
Q 1331 -91 842 396 
Q 353 884 353 1716 
Q 353 2575 817 3079 
Q 1281 3584 2069 3584 
Q 2775 3584 3186 3129 
Q 3597 2675 3597 1894 
z
M 3022 2063 
Q 3016 2534 2758 2815 
Q 2500 3097 2075 3097 
Q 1594 3097 1305 2825 
Q 1016 2553 972 2059 
L 3022 2063 
z
" transform="scale(0.015625)"/>
       <path id="DejaVuSans-63" d="M 3122 3366 
L 3122 2828 
Q 2878 2963 2633 3030 
Q 2388 3097 2138 3097 
Q 1578 3097 1268 2742 
Q 959 2388 959 1747 
Q 959 1106 1268 751 
Q 1578 397 2138 397 
Q 2388 397 2633 464 
Q 2878 531 3122 666 
L 3122 134 
Q 2881 22 2623 -34 
Q 2366 -91 2075 -91 
Q 1284 -91 818 406 
Q 353 903 353 1747 
Q 353 2603 823 3093 
Q 1294 3584 2113 3584 
Q 2378 3584 2631 3529 
Q 2884 3475 3122 3366 
z
" transform="scale(0.015625)"/>
       <path id="DejaVuSans-20" transform="scale(0.015625)"/>
       <path id="DejaVuSans-6f" d="M 1959 3097 
Q 1497 3097 1228 2736 
Q 959 2375 959 1747 
Q 959 1119 1226 758 
Q 1494 397 1959 397 
Q 2419 397 2687 759 
Q 2956 1122 2956 1747 
Q 2956 2369 2687 2733 
Q 2419 3097 1959 3097 
z
M 1959 3584 
Q 2709 3584 3137 3096 
Q 3566 2609 3566 1747 
Q 3566 888 3137 398 
Q 2709 -91 1959 -91 
Q 1206 -91 779 398 
Q 353 888 353 1747 
Q 353 2609 779 3096 
Q 1206 3584 1959 3584 
z
" transform="scale(0.015625)"/>
       <path id="DejaVuSans-73" d="M 2834 3397 
L 2834 2853 
Q 2591 2978 2328 3040 
Q 2066 3103 1784 3103 
Q 1356 3103 1142 2972 
Q 928 2841 928 2578 
Q 928 2378 1081 2264 
Q 1234 2150 1697 2047 
L 1894 2003 
Q 2506 1872 2764 1633 
Q 3022 1394 3022 966 
Q 3022 478 2636 193 
Q 2250 -91 1575 -91 
Q 1294 -91 989 -36 
Q 684 19 347 128 
L 347 722 
Q 666 556 975 473 
Q 1284 391 1588 391 
Q 1994 391 2212 530 
Q 2431 669 2431 922 
Q 2431 1156 2273 1281 
Q 2116 1406 1581 1522 
L 1381 1569 
Q 847 1681 609 1914 
Q 372 2147 372 2553 
Q 372 3047 722 3315 
Q 1072 3584 1716 3584 
Q 2034 3584 2315 3537 
Q 2597 3491 2834 3397 
z
" transform="scale(0.015625)"/>
       <path id="DejaVuSans-72" d="M 2631 2963 
Q 2534 3019 2420 3045 
Q 2306 3072 2169 3072 
Q 1681 3072 1420 2755 
Q 1159 2438 1159 1844 
L 1159 0 
L 581 0 
L 581 3500 
L 1159 3500 
L 1159 2956 
Q 1341 3275 1631 3429 
Q 1922 3584 2338 3584 
Q 2397 3584 2469 3576 
Q 2541 3569 2628 3553 
L 2631 2963 
z
" transform="scale(0.015625)"/>
       <path id="DejaVuSans-70" d="M 1159 525 
L 1159 -1331 
L 581 -1331 
L 581 3500 
L 1159 3500 
L 1159 2969 
Q 1341 3281 1617 3432 
Q 1894 3584 2278 3584 
Q 2916 3584 3314 3078 
Q 3713 2572 3713 1747 
Q 3713 922 3314 415 
Q 2916 -91 2278 -91 
Q 1894 -91 1617 61 
Q 1341 213 1159 525 
z
M 3116 1747 
Q 3116 2381 2855 2742 
Q 2594 3103 2138 3103 
Q 1681 3103 1420 2742 
Q 1159 2381 1159 1747 
Q 1159 1113 1420 752 
Q 1681 391 2138 391 
Q 2594 391 2855 752 
Q 3116 1113 3116 1747 
z
" transform="scale(0.015625)"/>
       <path id="DejaVuSans-69" d="M 603 3500 
L 1178 3500 
L 1178 0 
L 603 0 
L 603 3500 
z
M 603 4863 
L 1178 4863 
L 1178 4134 
L 603 4134 
L 603 4863 
z
" transform="scale(0.015625)"/>
       <path id="DejaVuSans-61" d="M 2194 1759 
Q 1497 1759 1228 1600 
Q 959 1441 959 1056 
Q 959 750 1161 570 
Q 1363 391 1709 391 
Q 2188 391 2477 730 
Q 2766 1069 2766 1631 
L 2766 1759 
L 2194 1759 
z
M 3341 1997 
L 3341 0 
L 2766 0 
L 2766 531 
Q 2569 213 2275 61 
Q 1981 -91 1556 -91 
Q 1019 -91 701 211 
Q 384 513 384 1019 
Q 384 1609 779 1909 
Q 1175 2209 1959 2209 
L 2766 2209 
L 2766 2266 
Q 2766 2663 2505 2880 
Q 2244 3097 1772 3097 
Q 1472 3097 1187 3025 
Q 903 2953 641 2809 
L 641 3341 
Q 956 3463 1253 3523 
Q 1550 3584 1831 3584 
Q 2591 3584 2966 3190 
Q 3341 2797 3341 1997 
z
" transform="scale(0.015625)"/>
       <path id="DejaVuSans-28" d="M 1984 4856 
Q 1566 4138 1362 3434 
Q 1159 2731 1159 2009 
Q 1159 1288 1364 580 
Q 1569 -128 1984 -844 
L 1484 -844 
Q 1016 -109 783 600 
Q 550 1309 550 2009 
Q 550 2706 781 3412 
Q 1013 4119 1484 4856 
L 1984 4856 
z
" transform="scale(0.015625)"/>
       <path id="DejaVuSans-6d" d="M 3328 2828 
Q 3544 3216 3844 3400 
Q 4144 3584 4550 3584 
Q 5097 3584 5394 3201 
Q 5691 2819 5691 2113 
L 5691 0 
L 5113 0 
L 5113 2094 
Q 5113 2597 4934 2840 
Q 4756 3084 4391 3084 
Q 3944 3084 3684 2787 
Q 3425 2491 3425 1978 
L 3425 0 
L 2847 0 
L 2847 2094 
Q 2847 2600 2669 2842 
Q 2491 3084 2119 3084 
Q 1678 3084 1418 2786 
Q 1159 2488 1159 1978 
L 1159 0 
L 581 0 
L 581 3500 
L 1159 3500 
L 1159 2956 
Q 1356 3278 1631 3431 
Q 1906 3584 2284 3584 
Q 2666 3584 2933 3390 
Q 3200 3197 3328 2828 
z
" transform="scale(0.015625)"/>
       <path id="DejaVuSans-74" d="M 1172 4494 
L 1172 3500 
L 2356 3500 
L 2356 3053 
L 1172 3053 
L 1172 1153 
Q 1172 725 1289 603 
Q 1406 481 1766 481 
L 2356 481 
L 2356 0 
L 1766 0 
Q 1100 0 847 248 
Q 594 497 594 1153 
L 594 3053 
L 172 3053 
L 172 3500 
L 594 3500 
L 594 4494 
L 1172 4494 
z
" transform="scale(0.015625)"/>
       <path id="DejaVuSans-29" d="M 513 4856 
L 1013 4856 
Q 1481 4119 1714 3412 
Q 1947 2706 1947 2009 
Q 1947 1309 1714 600 
Q 1481 -109 1013 -844 
L 513 -844 
Q 928 -128 1133 580 
Q 1338 1288 1338 2009 
Q 1338 2731 1133 3434 
Q 928 4138 513 4856 
z
" transform="scale(0.015625)"/>
      </defs>
      <use xlink:href="#DejaVuSans-49"/>
      <use xlink:href="#DejaVuSans-6e" x="29.492188"/>
      <use xlink:href="#DejaVuSans-66" x="92.871094"/>
      <use xlink:href="#DejaVuSans-6c" x="128.076172"/>
      <use xlink:href="#DejaVuSans-75" x="155.859375"/>
      <use xlink:href="#DejaVuSans-65" x="219.238281"/>
      <use xlink:href="#DejaVuSans-6e" x="280.761719"/>
      <use xlink:href="#DejaVuSans-63" x="344.140625"/>
      <use xlink:href="#DejaVuSans-65" x="399.121094"/>
      <use xlink:href="#DejaVuSans-20" x="460.644531"/>
      <use xlink:href="#DejaVuSans-6f" x="492.431641"/>
      <use xlink:href="#DejaVuSans-66" x="553.613281"/>
      <use xlink:href="#DejaVuSans-20" x="588.818359"/>
      <use xlink:href="#DejaVuSans-73" x="620.605469"/>
      <use xlink:href="#DejaVuSans-75" x="672.705078"/>
      <use xlink:href="#DejaVuSans-72" x="736.083984"/>
      <use xlink:href="#DejaVuSans-70" x="777.197266"/>
      <use xlink:href="#DejaVuSans-72" x="840.673828"/>
      <use xlink:href="#DejaVuSans-69" x="881.787109"/>
      <use xlink:href="#DejaVuSans-73" x="909.570312"/>
      <use xlink:href="#DejaVuSans-61" x="961.669922"/>
      <use xlink:href="#DejaVuSans-6c" x="1022.949219"/>
      <use xlink:href="#DejaVuSans-20" x="1050.732422"/>
      <use xlink:href="#DejaVuSans-28" x="1082.519531"/>
      <use xlink:href="#DejaVuSans-6d" x="1121.533203"/>
      <use xlink:href="#DejaVuSans-75" x="1218.945312"/>
      <use xlink:href="#DejaVuSans-6c" x="1282.324219"/>
      <use xlink:href="#DejaVuSans-74" x="1310.107422"/>
      <use xlink:href="#DejaVuSans-69" x="1349.316406"/>
      <use xlink:href="#DejaVuSans-70" x="1377.099609"/>
      <use xlink:href="#DejaVuSans-6c" x="1440.576172"/>
      <use xlink:href="#DejaVuSans-69" x="1468.359375"/>
      <use xlink:href="#DejaVuSans-63" x="1496.142578"/>
      <use xlink:href="#DejaVuSans-61" x="1551.123047"/>
      <use xlink:href="#DejaVuSans-74" x="1612.402344"/>
      <use xlink:href="#DejaVuSans-69" x="1651.611328"/>
      <use xlink:href="#DejaVuSans-6f" x="1679.394531"/>
      <use xlink:href="#DejaVuSans-6e" x="1740.576172"/>
      <use xlink:href="#DejaVuSans-29" x="1803.955078"/>
     </g>
    </g>
   </g>
   <g id="matplotlib.axis_2">
    <g id="ytick_1">
     <g id="line2d_6">
      <defs>
       <path id="m28c607b3a2" d="M 0 0 
L -3.5 0 
" style="stroke: #000000; stroke-width: 0.8"/>
      </defs>
      <g>
       <use xlink:href="#m28c607b3a2" x="47.72" y="140.107136" style="stroke: #000000; stroke-width: 0.8"/>
      </g>
     </g>
     <g id="text_7">
      <!-- 0.4 -->
      <g transform="translate(24.816875 143.906355)scale(0.1 -0.1)">
       <defs>
        <path id="DejaVuSans-34" d="M 2419 4116 
L 825 1625 
L 2419 1625 
L 2419 4116 
z
M 2253 4666 
L 3047 4666 
L 3047 1625 
L 3713 1625 
L 3713 1100 
L 3047 1100 
L 3047 0 
L 2419 0 
L 2419 1100 
L 313 1100 
L 313 1709 
L 2253 4666 
z
" transform="scale(0.015625)"/>
       </defs>
       <use xlink:href="#DejaVuSans-30"/>
       <use xlink:href="#DejaVuSans-2e" x="63.623047"/>
       <use xlink:href="#DejaVuSans-34" x="95.410156"/>
      </g>
     </g>
    </g>
    <g id="ytick_2">
     <g id="line2d_7">
      <g>
       <use xlink:href="#m28c607b3a2" x="47.72" y="104.594453" style="stroke: #000000; stroke-width: 0.8"/>
      </g>
     </g>
     <g id="text_8">
      <!-- 0.6 -->
      <g transform="translate(24.816875 108.393672)scale(0.1 -0.1)">
       <defs>
        <path id="DejaVuSans-36" d="M 2113 2584 
Q 1688 2584 1439 2293 
Q 1191 2003 1191 1497 
Q 1191 994 1439 701 
Q 1688 409 2113 409 
Q 2538 409 2786 701 
Q 3034 994 3034 1497 
Q 3034 2003 2786 2293 
Q 2538 2584 2113 2584 
z
M 3366 4563 
L 3366 3988 
Q 3128 4100 2886 4159 
Q 2644 4219 2406 4219 
Q 1781 4219 1451 3797 
Q 1122 3375 1075 2522 
Q 1259 2794 1537 2939 
Q 1816 3084 2150 3084 
Q 2853 3084 3261 2657 
Q 3669 2231 3669 1497 
Q 3669 778 3244 343 
Q 2819 -91 2113 -91 
Q 1303 -91 875 529 
Q 447 1150 447 2328 
Q 447 3434 972 4092 
Q 1497 4750 2381 4750 
Q 2619 4750 2861 4703 
Q 3103 4656 3366 4563 
z
" transform="scale(0.015625)"/>
       </defs>
       <use xlink:href="#DejaVuSans-30"/>
       <use xlink:href="#DejaVuSans-2e" x="63.623047"/>
       <use xlink:href="#DejaVuSans-36" x="95.410156"/>
      </g>
     </g>
    </g>
    <g id="ytick_3">
     <g id="line2d_8">
      <g>
       <use xlink:href="#m28c607b3a2" x="47.72" y="69.081771" style="stroke: #000000; stroke-width: 0.8"/>
      </g>
     </g>
     <g id="text_9">
      <!-- 0.8 -->
      <g transform="translate(24.816875 72.88099)scale(0.1 -0.1)">
       <defs>
        <path id="DejaVuSans-38" d="M 2034 2216 
Q 1584 2216 1326 1975 
Q 1069 1734 1069 1313 
Q 1069 891 1326 650 
Q 1584 409 2034 409 
Q 2484 409 2743 651 
Q 3003 894 3003 1313 
Q 3003 1734 2745 1975 
Q 2488 2216 2034 2216 
z
M 1403 2484 
Q 997 2584 770 2862 
Q 544 3141 544 3541 
Q 544 4100 942 4425 
Q 1341 4750 2034 4750 
Q 2731 4750 3128 4425 
Q 3525 4100 3525 3541 
Q 3525 3141 3298 2862 
Q 3072 2584 2669 2484 
Q 3125 2378 3379 2068 
Q 3634 1759 3634 1313 
Q 3634 634 3220 271 
Q 2806 -91 2034 -91 
Q 1263 -91 848 271 
Q 434 634 434 1313 
Q 434 1759 690 2068 
Q 947 2378 1403 2484 
z
M 1172 3481 
Q 1172 3119 1398 2916 
Q 1625 2713 2034 2713 
Q 2441 2713 2670 2916 
Q 2900 3119 2900 3481 
Q 2900 3844 2670 4047 
Q 2441 4250 2034 4250 
Q 1625 4250 1398 4047 
Q 1172 3844 1172 3481 
z
" transform="scale(0.015625)"/>
       </defs>
       <use xlink:href="#DejaVuSans-30"/>
       <use xlink:href="#DejaVuSans-2e" x="63.623047"/>
       <use xlink:href="#DejaVuSans-38" x="95.410156"/>
      </g>
     </g>
    </g>
    <g id="ytick_4">
     <g id="line2d_9">
      <g>
       <use xlink:href="#m28c607b3a2" x="47.72" y="33.569088" style="stroke: #000000; stroke-width: 0.8"/>
      </g>
     </g>
     <g id="text_10">
      <!-- 1.0 -->
      <g transform="translate(24.816875 37.368307)scale(0.1 -0.1)">
       <use xlink:href="#DejaVuSans-31"/>
       <use xlink:href="#DejaVuSans-2e" x="63.623047"/>
       <use xlink:href="#DejaVuSans-30" x="95.410156"/>
      </g>
     </g>
    </g>
    <g id="text_11">
     <!-- R-value -->
     <g transform="translate(18.737188 119.064687)rotate(-90)scale(0.1 -0.1)">
      <defs>
       <path id="DejaVuSans-52" d="M 2841 2188 
Q 3044 2119 3236 1894 
Q 3428 1669 3622 1275 
L 4263 0 
L 3584 0 
L 2988 1197 
Q 2756 1666 2539 1819 
Q 2322 1972 1947 1972 
L 1259 1972 
L 1259 0 
L 628 0 
L 628 4666 
L 2053 4666 
Q 2853 4666 3247 4331 
Q 3641 3997 3641 3322 
Q 3641 2881 3436 2590 
Q 3231 2300 2841 2188 
z
M 1259 4147 
L 1259 2491 
L 2053 2491 
Q 2509 2491 2742 2702 
Q 2975 2913 2975 3322 
Q 2975 3731 2742 3939 
Q 2509 4147 2053 4147 
L 1259 4147 
z
" transform="scale(0.015625)"/>
       <path id="DejaVuSans-2d" d="M 313 2009 
L 1997 2009 
L 1997 1497 
L 313 1497 
L 313 2009 
z
" transform="scale(0.015625)"/>
       <path id="DejaVuSans-76" d="M 191 3500 
L 800 3500 
L 1894 563 
L 2988 3500 
L 3597 3500 
L 2284 0 
L 1503 0 
L 191 3500 
z
" transform="scale(0.015625)"/>
      </defs>
      <use xlink:href="#DejaVuSans-52"/>
      <use xlink:href="#DejaVuSans-2d" x="65.482422"/>
      <use xlink:href="#DejaVuSans-76" x="98.941406"/>
      <use xlink:href="#DejaVuSans-61" x="158.121094"/>
      <use xlink:href="#DejaVuSans-6c" x="219.400391"/>
      <use xlink:href="#DejaVuSans-75" x="247.183594"/>
      <use xlink:href="#DejaVuSans-65" x="310.5625"/>
     </g>
    </g>
   </g>
   <g id="line2d_10">
    <path d="M 47.72 33.569091 
L 59.167105 34.4804 
L 70.614211 37.168277 
L 82.061316 40.912119 
L 93.508421 45.924602 
L 104.955526 51.756017 
L 116.402632 58.393105 
L 127.849737 65.644249 
L 139.296842 72.783942 
L 150.743947 80.735828 
L 162.191053 88.1728 
L 173.638158 95.835925 
L 185.085263 103.01804 
L 196.532368 109.863644 
L 207.979474 116.172097 
L 219.426579 122.330007 
L 230.873684 128.141374 
L 242.320789 133.082658 
L 253.767895 137.722379 
L 265.215 142.546348 
" clip-path="url(#p8700e93194)" style="fill: none; stroke: #1f77b4; stroke-width: 1.5; stroke-linecap: square"/>
   </g>
   <g id="line2d_11">
    <path d="M 47.72 33.569266 
L 59.167105 34.144994 
L 70.614211 35.543465 
L 82.061316 37.646384 
L 93.508421 40.74306 
L 104.955526 44.495202 
L 116.402632 49.160228 
L 127.849737 54.352752 
L 139.296842 59.579982 
L 150.743947 65.728882 
L 162.191053 71.703349 
L 173.638158 78.194074 
L 185.085263 84.702908 
L 196.532368 91.133975 
L 207.979474 97.467981 
L 219.426579 103.71693 
L 230.873684 109.878686 
L 242.320789 115.210512 
L 253.767895 120.363933 
L 265.215 125.625438 
" clip-path="url(#p8700e93194)" style="fill: none; stroke: #ff7f0e; stroke-width: 1.5; stroke-linecap: square"/>
   </g>
   <g id="line2d_12">
    <path d="M 47.72 33.569101 
L 59.167105 34.256624 
L 70.614211 35.452475 
L 82.061316 37.016282 
L 93.508421 39.087444 
L 104.955526 41.473787 
L 116.402632 44.488807 
L 127.849737 47.680812 
L 139.296842 50.62439 
L 150.743947 54.097151 
L 162.191053 57.668193 
L 173.638158 61.340787 
L 185.085263 65.235844 
L 196.532368 69.048016 
L 207.979474 72.887944 
L 219.426579 76.378298 
L 230.873684 80.500469 
L 242.320789 83.919558 
L 253.767895 87.415752 
L 265.215 91.114724 
" clip-path="url(#p8700e93194)" style="fill: none; stroke: #2ca02c; stroke-width: 1.5; stroke-linecap: square"/>
   </g>
   <g id="line2d_13">
    <path d="M 47.72 33.570085 
L 59.167105 34.10494 
L 70.614211 34.960721 
L 82.061316 36.131259 
L 93.508421 37.807586 
L 104.955526 39.809024 
L 116.402632 42.517053 
L 127.849737 45.472875 
L 139.296842 48.252932 
L 150.743947 51.667836 
L 162.191053 55.125752 
L 173.638158 58.791272 
L 185.085263 62.706183 
L 196.532368 66.577087 
L 207.979474 70.499211 
L 219.426579 74.112799 
L 230.873684 78.377613 
L 242.320789 81.870286 
L 253.767895 85.532286 
L 265.215 89.352808 
" clip-path="url(#p8700e93194)" style="fill: none; stroke: #d62728; stroke-width: 1.5; stroke-linecap: square"/>
   </g>
   <g id="line2d_14">
    <path d="M 47.72 33.569101 
L 59.167105 34.482088 
L 70.614211 37.180634 
L 82.061316 40.887542 
L 93.508421 45.965058 
L 104.955526 51.772374 
L 116.402632 58.430632 
L 127.849737 65.67124 
L 139.296842 72.920961 
L 150.743947 80.832423 
L 162.191053 88.27331 
L 173.638158 95.85765 
L 185.085263 103.260351 
L 196.532368 110.176952 
L 207.979474 116.262241 
L 219.426579 122.161047 
L 230.873684 128.184269 
L 242.320789 133.480021 
L 253.767895 138.160046 
L 265.215 142.813973 
" clip-path="url(#p8700e93194)" style="fill: none; stroke: #9467bd; stroke-width: 1.5; stroke-linecap: square"/>
   </g>
   <g id="line2d_15">
    <path d="M 47.72 33.569799 
L 59.167105 34.145484 
L 70.614211 35.549764 
L 82.061316 37.634695 
L 93.508421 40.787076 
L 104.955526 44.510583 
L 116.402632 49.149094 
L 127.849737 54.326787 
L 139.296842 59.627686 
L 150.743947 65.814615 
L 162.191053 71.767496 
L 173.638158 78.216384 
L 185.085263 84.854026 
L 196.532368 91.356391 
L 207.979474 97.55063 
L 219.426579 103.564725 
L 230.873684 110.019624 
L 242.320789 115.461375 
L 253.767895 120.635725 
L 265.215 125.915228 
" clip-path="url(#p8700e93194)" style="fill: none; stroke: #8c564b; stroke-width: 1.5; stroke-linecap: square"/>
   </g>
   <g id="line2d_16">
    <path d="M 47.72 47.751098 
L 59.167105 48.957457 
L 70.614211 52.072258 
L 82.061316 56.658466 
L 93.508421 62.481059 
L 104.955526 68.834023 
L 116.402632 76.148233 
L 127.849737 83.754524 
L 139.296842 91.026677 
L 150.743947 99.16294 
L 162.191053 107.076651 
L 173.638158 114.818281 
L 185.085263 122.424656 
L 196.532368 129.53601 
L 207.979474 135.615533 
L 219.426579 141.423741 
L 230.873684 146.696444 
L 242.320789 151.105469 
L 253.767895 154.907303 
L 265.215 158.784679 
" clip-path="url(#p8700e93194)" style="fill: none; stroke: #e377c2; stroke-width: 1.5; stroke-linecap: square"/>
   </g>
   <g id="line2d_17">
    <path d="M 47.72 33.569428 
L 59.167105 33.840889 
L 70.614211 34.01645 
L 82.061316 34.530514 
L 93.508421 35.700507 
L 104.955526 37.517239 
L 116.402632 40.151165 
L 127.849737 43.396818 
L 139.296842 46.955344 
L 150.743947 51.42166 
L 162.191053 56.229292 
L 173.638158 61.591354 
L 185.085263 67.499643 
L 196.532368 73.531131 
L 207.979474 79.857005 
L 219.426579 86.231745 
L 230.873684 92.753793 
L 242.320789 98.50761 
L 253.767895 104.257352 
L 265.215 110.206515 
" clip-path="url(#p8700e93194)" style="fill: none; stroke: #7f7f7f; stroke-width: 1.5; stroke-linecap: square"/>
   </g>
   <g id="patch_3">
    <path d="M 47.72 174.04 
L 47.72 26.88 
" style="fill: none; stroke: #000000; stroke-width: 0.8; stroke-linejoin: miter; stroke-linecap: square"/>
   </g>
   <g id="patch_4">
    <path d="M 47.72 174.04 
L 265.215 174.04 
" style="fill: none; stroke: #000000; stroke-width: 0.8; stroke-linejoin: miter; stroke-linecap: square"/>
   </g>
   <g id="text_12">
    <!-- Node * surprisal -->
    <g transform="translate(108.18625 20.88)scale(0.12 -0.12)">
     <defs>
      <path id="DejaVuSans-4e" d="M 628 4666 
L 1478 4666 
L 3547 763 
L 3547 4666 
L 4159 4666 
L 4159 0 
L 3309 0 
L 1241 3903 
L 1241 0 
L 628 0 
L 628 4666 
z
" transform="scale(0.015625)"/>
      <path id="DejaVuSans-64" d="M 2906 2969 
L 2906 4863 
L 3481 4863 
L 3481 0 
L 2906 0 
L 2906 525 
Q 2725 213 2448 61 
Q 2172 -91 1784 -91 
Q 1150 -91 751 415 
Q 353 922 353 1747 
Q 353 2572 751 3078 
Q 1150 3584 1784 3584 
Q 2172 3584 2448 3432 
Q 2725 3281 2906 2969 
z
M 947 1747 
Q 947 1113 1208 752 
Q 1469 391 1925 391 
Q 2381 391 2643 752 
Q 2906 1113 2906 1747 
Q 2906 2381 2643 2742 
Q 2381 3103 1925 3103 
Q 1469 3103 1208 2742 
Q 947 2381 947 1747 
z
" transform="scale(0.015625)"/>
      <path id="DejaVuSans-2a" d="M 3009 3897 
L 1888 3291 
L 3009 2681 
L 2828 2375 
L 1778 3009 
L 1778 1831 
L 1422 1831 
L 1422 3009 
L 372 2375 
L 191 2681 
L 1313 3291 
L 191 3897 
L 372 4206 
L 1422 3572 
L 1422 4750 
L 1778 4750 
L 1778 3572 
L 2828 4206 
L 3009 3897 
z
" transform="scale(0.015625)"/>
     </defs>
     <use xlink:href="#DejaVuSans-4e"/>
     <use xlink:href="#DejaVuSans-6f" x="74.804688"/>
     <use xlink:href="#DejaVuSans-64" x="135.986328"/>
     <use xlink:href="#DejaVuSans-65" x="199.462891"/>
     <use xlink:href="#DejaVuSans-20" x="260.986328"/>
     <use xlink:href="#DejaVuSans-2a" x="292.773438"/>
     <use xlink:href="#DejaVuSans-20" x="342.773438"/>
     <use xlink:href="#DejaVuSans-73" x="374.560547"/>
     <use xlink:href="#DejaVuSans-75" x="426.660156"/>
     <use xlink:href="#DejaVuSans-72" x="490.039062"/>
     <use xlink:href="#DejaVuSans-70" x="531.152344"/>
     <use xlink:href="#DejaVuSans-72" x="594.628906"/>
     <use xlink:href="#DejaVuSans-69" x="635.742188"/>
     <use xlink:href="#DejaVuSans-73" x="663.525391"/>
     <use xlink:href="#DejaVuSans-61" x="715.625"/>
     <use xlink:href="#DejaVuSans-6c" x="776.904297"/>
    </g>
   </g>
  </g>
  <g id="axes_2">
   <g id="patch_5">
    <path d="M 298.065 174.04 
L 515.56 174.04 
L 515.56 26.88 
L 298.065 26.88 
z
" style="fill: #ffffff"/>
   </g>
   <g id="PolyCollection_9">
    <path d="M 298.065 33.569091 
L 298.065 33.569092 
L 309.512105 34.662142 
L 320.959211 37.902734 
L 332.406316 42.460354 
L 343.853421 48.49497 
L 355.300526 55.531915 
L 366.747632 62.773477 
L 378.194737 70.696321 
L 389.641842 78.321303 
L 401.088947 86.407561 
L 412.536053 93.75287 
L 423.983158 100.948742 
L 435.430263 107.29517 
L 446.877368 113.270908 
L 458.324474 119.264736 
L 469.771579 124.711196 
L 481.218684 129.637173 
L 492.665789 134.587413 
L 504.112895 139.409135 
L 515.56 144.151626 
L 515.56 136.20263 
L 515.56 136.20263 
L 504.112895 131.554051 
L 492.665789 126.89948 
L 481.218684 121.338554 
L 469.771579 115.889705 
L 458.324474 109.780638 
L 446.877368 102.977978 
L 435.430263 95.762745 
L 423.983158 88.895103 
L 412.536053 81.762332 
L 401.088947 74.745393 
L 389.641842 67.626503 
L 378.194737 60.832759 
L 366.747632 54.580932 
L 355.300526 48.817644 
L 343.853421 43.910438 
L 332.406316 39.645097 
L 320.959211 36.510048 
L 309.512105 34.271877 
L 298.065 33.569091 
z
" clip-path="url(#p99f65fa2ff)" style="fill: #1f77b4; fill-opacity: 0.4"/>
   </g>
   <g id="PolyCollection_10">
    <path d="M 298.065 33.569241 
L 298.065 33.569291 
L 309.512105 34.663298 
L 320.959211 37.899868 
L 332.406316 42.445527 
L 343.853421 48.479188 
L 355.300526 55.523075 
L 366.747632 62.764307 
L 378.194737 70.717203 
L 389.641842 78.375724 
L 401.088947 86.493044 
L 412.536053 93.874636 
L 423.983158 101.11499 
L 435.430263 107.474177 
L 446.877368 113.461956 
L 458.324474 119.4969 
L 469.771579 124.887428 
L 481.218684 129.710399 
L 492.665789 134.592315 
L 504.112895 139.282027 
L 515.56 144.053951 
L 515.56 136.343522 
L 515.56 136.343522 
L 504.112895 131.739412 
L 492.665789 127.005773 
L 481.218684 121.348276 
L 469.771579 115.865084 
L 458.324474 109.736521 
L 446.877368 102.930614 
L 435.430263 95.741041 
L 423.983158 88.894707 
L 412.536053 81.808569 
L 401.088947 74.806417 
L 389.641842 67.682646 
L 378.194737 60.890995 
L 366.747632 54.646993 
L 355.300526 48.85612 
L 343.853421 43.941246 
L 332.406316 39.666557 
L 320.959211 36.521734 
L 309.512105 34.276063 
L 298.065 33.569241 
z
" clip-path="url(#p99f65fa2ff)" style="fill: #ff7f0e; fill-opacity: 0.4"/>
   </g>
   <g id="PolyCollection_11">
    <path d="M 298.065 33.569099 
L 298.065 33.569104 
L 309.512105 34.672201 
L 320.959211 37.919377 
L 332.406316 42.485851 
L 343.853421 48.503644 
L 355.300526 55.540994 
L 366.747632 62.780892 
L 378.194737 70.69574 
L 389.641842 78.278308 
L 401.088947 86.404992 
L 412.536053 93.713972 
L 423.983158 100.953722 
L 435.430263 107.356101 
L 446.877368 113.305661 
L 458.324474 119.391142 
L 469.771579 124.853864 
L 481.218684 129.774701 
L 492.665789 134.739215 
L 504.112895 139.528068 
L 515.56 144.401036 
L 515.56 137.281886 
L 515.56 137.281886 
L 504.112895 132.596538 
L 492.665789 127.762461 
L 481.218684 121.989879 
L 469.771579 116.414923 
L 458.324474 110.103135 
L 446.877368 103.232889 
L 435.430263 95.888212 
L 423.983158 88.985384 
L 412.536053 81.822813 
L 401.088947 74.819137 
L 389.641842 67.66621 
L 378.194737 60.859936 
L 366.747632 54.59415 
L 355.300526 48.81282 
L 343.853421 43.918459 
L 332.406316 39.646184 
L 320.959211 36.502487 
L 309.512105 34.272692 
L 298.065 33.569099 
z
" clip-path="url(#p99f65fa2ff)" style="fill: #2ca02c; fill-opacity: 0.4"/>
   </g>
   <g id="PolyCollection_12">
    <path d="M 298.065 33.5699 
L 298.065 33.570271 
L 309.512105 34.674576 
L 320.959211 37.918441 
L 332.406316 42.489052 
L 343.853421 48.509207 
L 355.300526 55.578642 
L 366.747632 62.825997 
L 378.194737 70.771586 
L 389.641842 78.411929 
L 401.088947 86.549918 
L 412.536053 93.908267 
L 423.983158 101.182547 
L 435.430263 107.581679 
L 446.877368 113.560015 
L 458.324474 119.627695 
L 469.771579 125.058705 
L 481.218684 129.894835 
L 492.665789 134.82858 
L 504.112895 139.598474 
L 515.56 144.471984 
L 515.56 137.329206 
L 515.56 137.329206 
L 504.112895 132.626995 
L 492.665789 127.774362 
L 481.218684 121.930195 
L 469.771579 116.338588 
L 458.324474 110.026764 
L 446.877368 103.152773 
L 435.430263 95.866163 
L 423.983158 88.974882 
L 412.536053 81.859763 
L 401.088947 74.861259 
L 389.641842 67.727524 
L 378.194737 60.912773 
L 366.747632 54.669091 
L 355.300526 48.862051 
L 343.853421 43.951829 
L 332.406316 39.669998 
L 320.959211 36.516083 
L 309.512105 34.275756 
L 298.065 33.5699 
z
" clip-path="url(#p99f65fa2ff)" style="fill: #d62728; fill-opacity: 0.4"/>
   </g>
   <g id="PolyCollection_13">
    <path d="M 298.065 33.569099 
L 298.065 33.569103 
L 309.512105 34.661557 
L 320.959211 37.900065 
L 332.406316 42.496709 
L 343.853421 48.532732 
L 355.300526 55.68879 
L 366.747632 62.770853 
L 378.194737 70.79115 
L 389.641842 78.271053 
L 401.088947 86.295172 
L 412.536053 93.633623 
L 423.983158 101.061809 
L 435.430263 107.557091 
L 446.877368 113.068504 
L 458.324474 119.460631 
L 469.771579 125.201328 
L 481.218684 130.291602 
L 492.665789 134.396524 
L 504.112895 139.75893 
L 515.56 146.009362 
L 515.56 135.781936 
L 515.56 135.781936 
L 504.112895 132.14933 
L 492.665789 126.993272 
L 481.218684 121.832351 
L 469.771579 116.430804 
L 458.324474 110.186652 
L 446.877368 102.924922 
L 435.430263 95.782379 
L 423.983158 88.926772 
L 412.536053 81.712817 
L 401.088947 75.000258 
L 389.641842 67.616994 
L 378.194737 60.851417 
L 366.747632 54.739993 
L 355.300526 48.777494 
L 343.853421 43.932802 
L 332.406316 39.69886 
L 320.959211 36.510569 
L 309.512105 34.271544 
L 298.065 33.569099 
z
" clip-path="url(#p99f65fa2ff)" style="fill: #9467bd; fill-opacity: 0.4"/>
   </g>
   <g id="PolyCollection_14">
    <path d="M 298.065 33.569697 
L 298.065 33.5699 
L 309.512105 34.663098 
L 320.959211 37.897904 
L 332.406316 42.479478 
L 343.853421 48.512645 
L 355.300526 55.679469 
L 366.747632 62.75227 
L 378.194737 70.811462 
L 389.641842 78.314754 
L 401.088947 86.375106 
L 412.536053 93.762833 
L 423.983158 101.227572 
L 435.430263 107.724367 
L 446.877368 113.21638 
L 458.324474 119.681712 
L 469.771579 125.356835 
L 481.218684 130.325889 
L 492.665789 134.42682 
L 504.112895 139.852105 
L 515.56 145.926544 
L 515.56 135.910349 
L 515.56 135.910349 
L 504.112895 132.094338 
L 492.665789 127.076515 
L 481.218684 121.872881 
L 469.771579 116.399612 
L 458.324474 110.129356 
L 446.877368 102.897374 
L 435.430263 95.754183 
L 423.983158 88.927816 
L 412.536053 81.773999 
L 401.088947 75.06204 
L 389.641842 67.670342 
L 378.194737 60.913628 
L 366.747632 54.809928 
L 355.300526 48.820995 
L 343.853421 43.965775 
L 332.406316 39.7186 
L 320.959211 36.523634 
L 309.512105 34.276554 
L 298.065 33.569697 
z
" clip-path="url(#p99f65fa2ff)" style="fill: #8c564b; fill-opacity: 0.4"/>
   </g>
   <g id="PolyCollection_15">
    <path d="M 298.065 45.728438 
L 298.065 49.773758 
L 309.512105 50.51691 
L 320.959211 53.122365 
L 332.406316 56.737236 
L 343.853421 62.045892 
L 355.300526 68.058053 
L 366.747632 74.508193 
L 378.194737 81.680793 
L 389.641842 88.523962 
L 401.088947 96.012289 
L 412.536053 102.824066 
L 423.983158 109.273363 
L 435.430263 115.363711 
L 446.877368 120.913352 
L 458.324474 126.915437 
L 469.771579 132.195984 
L 481.218684 136.96319 
L 492.665789 141.475677 
L 504.112895 145.960647 
L 515.56 150.555277 
L 515.56 140.483168 
L 515.56 140.483168 
L 504.112895 136.726109 
L 492.665789 132.11514 
L 481.218684 127.271536 
L 469.771579 122.240052 
L 458.324474 117.182802 
L 446.877368 111.374711 
L 435.430263 105.10738 
L 423.983158 99.240537 
L 412.536053 92.463798 
L 401.088947 86.406374 
L 389.641842 79.892116 
L 378.194737 73.525802 
L 366.747632 67.535811 
L 355.300526 61.998319 
L 343.853421 56.845676 
L 332.406316 52.695356 
L 320.959211 49.103162 
L 309.512105 46.648265 
L 298.065 45.728438 
z
" clip-path="url(#p99f65fa2ff)" style="fill: #e377c2; fill-opacity: 0.4"/>
   </g>
   <g id="PolyCollection_16">
    <path d="M 298.065 33.569376 
L 298.065 33.569479 
L 309.512105 34.667055 
L 320.959211 37.899494 
L 332.406316 42.447301 
L 343.853421 48.460667 
L 355.300526 55.505078 
L 366.747632 62.745331 
L 378.194737 70.702856 
L 389.641842 78.319925 
L 401.088947 86.459222 
L 412.536053 93.801141 
L 423.983158 101.092632 
L 435.430263 107.443381 
L 446.877368 113.42861 
L 458.324474 119.511258 
L 469.771579 124.949416 
L 481.218684 129.805131 
L 492.665789 134.714749 
L 504.112895 139.409859 
L 515.56 144.373195 
L 515.56 137.046354 
L 515.56 137.046354 
L 504.112895 132.45372 
L 492.665789 127.600855 
L 481.218684 121.923811 
L 469.771579 116.344262 
L 458.324474 110.053073 
L 446.877368 103.185564 
L 435.430263 95.926595 
L 423.983158 89.015913 
L 412.536053 81.868806 
L 401.088947 74.845344 
L 389.641842 67.703594 
L 378.194737 60.919406 
L 366.747632 54.662377 
L 355.300526 48.857597 
L 343.853421 43.959168 
L 332.406316 39.66567 
L 320.959211 36.521733 
L 309.512105 34.275412 
L 298.065 33.569376 
z
" clip-path="url(#p99f65fa2ff)" style="fill: #7f7f7f; fill-opacity: 0.4"/>
   </g>
   <g id="matplotlib.axis_3">
    <g id="xtick_6">
     <g id="line2d_18">
      <g>
       <use xlink:href="#mc3ad4b5119" x="298.065" y="174.04" style="stroke: #000000; stroke-width: 0.8"/>
      </g>
     </g>
     <g id="text_13">
      <!-- 0.0 -->
      <g transform="translate(290.113437 188.638438)scale(0.1 -0.1)">
       <use xlink:href="#DejaVuSans-30"/>
       <use xlink:href="#DejaVuSans-2e" x="63.623047"/>
       <use xlink:href="#DejaVuSans-30" x="95.410156"/>
      </g>
     </g>
    </g>
    <g id="xtick_7">
     <g id="line2d_19">
      <g>
       <use xlink:href="#mc3ad4b5119" x="352.43875" y="174.04" style="stroke: #000000; stroke-width: 0.8"/>
      </g>
     </g>
     <g id="text_14">
      <!-- 0.5 -->
      <g transform="translate(344.487187 188.638438)scale(0.1 -0.1)">
       <use xlink:href="#DejaVuSans-30"/>
       <use xlink:href="#DejaVuSans-2e" x="63.623047"/>
       <use xlink:href="#DejaVuSans-35" x="95.410156"/>
      </g>
     </g>
    </g>
    <g id="xtick_8">
     <g id="line2d_20">
      <g>
       <use xlink:href="#mc3ad4b5119" x="406.8125" y="174.04" style="stroke: #000000; stroke-width: 0.8"/>
      </g>
     </g>
     <g id="text_15">
      <!-- 1.0 -->
      <g transform="translate(398.860937 188.638438)scale(0.1 -0.1)">
       <use xlink:href="#DejaVuSans-31"/>
       <use xlink:href="#DejaVuSans-2e" x="63.623047"/>
       <use xlink:href="#DejaVuSans-30" x="95.410156"/>
      </g>
     </g>
    </g>
    <g id="xtick_9">
     <g id="line2d_21">
      <g>
       <use xlink:href="#mc3ad4b5119" x="461.18625" y="174.04" style="stroke: #000000; stroke-width: 0.8"/>
      </g>
     </g>
     <g id="text_16">
      <!-- 1.5 -->
      <g transform="translate(453.234687 188.638438)scale(0.1 -0.1)">
       <use xlink:href="#DejaVuSans-31"/>
       <use xlink:href="#DejaVuSans-2e" x="63.623047"/>
       <use xlink:href="#DejaVuSans-35" x="95.410156"/>
      </g>
     </g>
    </g>
    <g id="xtick_10">
     <g id="line2d_22">
      <g>
       <use xlink:href="#mc3ad4b5119" x="515.56" y="174.04" style="stroke: #000000; stroke-width: 0.8"/>
      </g>
     </g>
     <g id="text_17">
      <!-- 2.0 -->
      <g transform="translate(507.608437 188.638438)scale(0.1 -0.1)">
       <use xlink:href="#DejaVuSans-32"/>
       <use xlink:href="#DejaVuSans-2e" x="63.623047"/>
       <use xlink:href="#DejaVuSans-30" x="95.410156"/>
      </g>
     </g>
    </g>
    <g id="text_18">
     <!-- Influence of surprisal (multiplication) -->
     <g transform="translate(314.665625 202.316563)scale(0.1 -0.1)">
      <use xlink:href="#DejaVuSans-49"/>
      <use xlink:href="#DejaVuSans-6e" x="29.492188"/>
      <use xlink:href="#DejaVuSans-66" x="92.871094"/>
      <use xlink:href="#DejaVuSans-6c" x="128.076172"/>
      <use xlink:href="#DejaVuSans-75" x="155.859375"/>
      <use xlink:href="#DejaVuSans-65" x="219.238281"/>
      <use xlink:href="#DejaVuSans-6e" x="280.761719"/>
      <use xlink:href="#DejaVuSans-63" x="344.140625"/>
      <use xlink:href="#DejaVuSans-65" x="399.121094"/>
      <use xlink:href="#DejaVuSans-20" x="460.644531"/>
      <use xlink:href="#DejaVuSans-6f" x="492.431641"/>
      <use xlink:href="#DejaVuSans-66" x="553.613281"/>
      <use xlink:href="#DejaVuSans-20" x="588.818359"/>
      <use xlink:href="#DejaVuSans-73" x="620.605469"/>
      <use xlink:href="#DejaVuSans-75" x="672.705078"/>
      <use xlink:href="#DejaVuSans-72" x="736.083984"/>
      <use xlink:href="#DejaVuSans-70" x="777.197266"/>
      <use xlink:href="#DejaVuSans-72" x="840.673828"/>
      <use xlink:href="#DejaVuSans-69" x="881.787109"/>
      <use xlink:href="#DejaVuSans-73" x="909.570312"/>
      <use xlink:href="#DejaVuSans-61" x="961.669922"/>
      <use xlink:href="#DejaVuSans-6c" x="1022.949219"/>
      <use xlink:href="#DejaVuSans-20" x="1050.732422"/>
      <use xlink:href="#DejaVuSans-28" x="1082.519531"/>
      <use xlink:href="#DejaVuSans-6d" x="1121.533203"/>
      <use xlink:href="#DejaVuSans-75" x="1218.945312"/>
      <use xlink:href="#DejaVuSans-6c" x="1282.324219"/>
      <use xlink:href="#DejaVuSans-74" x="1310.107422"/>
      <use xlink:href="#DejaVuSans-69" x="1349.316406"/>
      <use xlink:href="#DejaVuSans-70" x="1377.099609"/>
      <use xlink:href="#DejaVuSans-6c" x="1440.576172"/>
      <use xlink:href="#DejaVuSans-69" x="1468.359375"/>
      <use xlink:href="#DejaVuSans-63" x="1496.142578"/>
      <use xlink:href="#DejaVuSans-61" x="1551.123047"/>
      <use xlink:href="#DejaVuSans-74" x="1612.402344"/>
      <use xlink:href="#DejaVuSans-69" x="1651.611328"/>
      <use xlink:href="#DejaVuSans-6f" x="1679.394531"/>
      <use xlink:href="#DejaVuSans-6e" x="1740.576172"/>
      <use xlink:href="#DejaVuSans-29" x="1803.955078"/>
     </g>
    </g>
   </g>
   <g id="line2d_23">
    <path d="M 298.065 33.569091 
L 309.512105 34.467009 
L 320.959211 37.206391 
L 332.406316 41.052726 
L 343.853421 46.202704 
L 355.300526 52.174779 
L 366.747632 58.677204 
L 378.194737 65.76454 
L 389.641842 72.973903 
L 401.088947 80.576477 
L 412.536053 87.757601 
L 423.983158 94.921922 
L 435.430263 101.528958 
L 446.877368 108.124443 
L 458.324474 114.522687 
L 469.771579 120.30045 
L 481.218684 125.487863 
L 492.665789 130.743447 
L 504.112895 135.481593 
L 515.56 140.177128 
" clip-path="url(#p99f65fa2ff)" style="fill: none; stroke: #1f77b4; stroke-width: 1.5; stroke-linecap: square"/>
   </g>
   <g id="line2d_24">
    <path d="M 298.065 33.569266 
L 309.512105 34.469681 
L 320.959211 37.210801 
L 332.406316 41.056042 
L 343.853421 46.210217 
L 355.300526 52.189597 
L 366.747632 58.70565 
L 378.194737 65.804099 
L 389.641842 73.029185 
L 401.088947 80.64973 
L 412.536053 87.841603 
L 423.983158 95.004849 
L 435.430263 101.607609 
L 446.877368 108.196285 
L 458.324474 114.616711 
L 469.771579 120.376256 
L 481.218684 125.529338 
L 492.665789 130.799044 
L 504.112895 135.510719 
L 515.56 140.198736 
" clip-path="url(#p99f65fa2ff)" style="fill: none; stroke: #ff7f0e; stroke-width: 1.5; stroke-linecap: square"/>
   </g>
   <g id="line2d_25">
    <path d="M 298.065 33.569101 
L 309.512105 34.472446 
L 320.959211 37.210932 
L 332.406316 41.066017 
L 343.853421 46.211051 
L 355.300526 52.176907 
L 366.747632 58.687521 
L 378.194737 65.777838 
L 389.641842 72.972259 
L 401.088947 80.612065 
L 412.536053 87.768392 
L 423.983158 94.969553 
L 435.430263 101.622156 
L 446.877368 108.269275 
L 458.324474 114.747138 
L 469.771579 120.634393 
L 481.218684 125.88229 
L 492.665789 131.250838 
L 504.112895 136.062303 
L 515.56 140.841461 
" clip-path="url(#p99f65fa2ff)" style="fill: none; stroke: #2ca02c; stroke-width: 1.5; stroke-linecap: square"/>
   </g>
   <g id="line2d_26">
    <path d="M 298.065 33.570085 
L 309.512105 34.475166 
L 320.959211 37.217262 
L 332.406316 41.079525 
L 343.853421 46.230518 
L 355.300526 52.220347 
L 366.747632 58.747544 
L 378.194737 65.842179 
L 389.641842 73.069727 
L 401.088947 80.705589 
L 412.536053 87.884015 
L 423.983158 95.078715 
L 435.430263 101.723921 
L 446.877368 108.356394 
L 458.324474 114.82723 
L 469.771579 120.698647 
L 481.218684 125.912515 
L 492.665789 131.301471 
L 504.112895 136.112734 
L 515.56 140.900595 
" clip-path="url(#p99f65fa2ff)" style="fill: none; stroke: #d62728; stroke-width: 1.5; stroke-linecap: square"/>
   </g>
   <g id="line2d_27">
    <path d="M 298.065 33.569101 
L 309.512105 34.46655 
L 320.959211 37.205317 
L 332.406316 41.097784 
L 343.853421 46.232767 
L 355.300526 52.233142 
L 366.747632 58.755423 
L 378.194737 65.821283 
L 389.641842 72.944023 
L 401.088947 80.647715 
L 412.536053 87.67322 
L 423.983158 94.99429 
L 435.430263 101.669735 
L 446.877368 107.996713 
L 458.324474 114.823641 
L 469.771579 120.816066 
L 481.218684 126.061977 
L 492.665789 130.694898 
L 504.112895 135.95413 
L 515.56 140.895649 
" clip-path="url(#p99f65fa2ff)" style="fill: none; stroke: #9467bd; stroke-width: 1.5; stroke-linecap: square"/>
   </g>
   <g id="line2d_28">
    <path d="M 298.065 33.569799 
L 309.512105 34.469826 
L 320.959211 37.210769 
L 332.406316 41.099039 
L 343.853421 46.23921 
L 355.300526 52.250232 
L 366.747632 58.781099 
L 378.194737 65.862545 
L 389.641842 72.992548 
L 401.088947 80.718573 
L 412.536053 87.768416 
L 423.983158 95.077694 
L 435.430263 101.739275 
L 446.877368 108.056877 
L 458.324474 114.905534 
L 469.771579 120.878224 
L 481.218684 126.099385 
L 492.665789 130.751667 
L 504.112895 135.973222 
L 515.56 140.918447 
" clip-path="url(#p99f65fa2ff)" style="fill: none; stroke: #8c564b; stroke-width: 1.5; stroke-linecap: square"/>
   </g>
   <g id="line2d_29">
    <path d="M 298.065 47.751098 
L 309.512105 48.582587 
L 320.959211 51.112763 
L 332.406316 54.716296 
L 343.853421 59.445784 
L 355.300526 65.028186 
L 366.747632 71.022002 
L 378.194737 77.603297 
L 389.641842 84.208039 
L 401.088947 91.209331 
L 412.536053 97.643932 
L 423.983158 104.25695 
L 435.430263 110.235546 
L 446.877368 116.144032 
L 458.324474 122.04912 
L 469.771579 127.218018 
L 481.218684 132.117363 
L 492.665789 136.795408 
L 504.112895 141.343378 
L 515.56 145.519223 
" clip-path="url(#p99f65fa2ff)" style="fill: none; stroke: #e377c2; stroke-width: 1.5; stroke-linecap: square"/>
   </g>
   <g id="line2d_30">
    <path d="M 298.065 33.569428 
L 309.512105 34.471233 
L 320.959211 37.210614 
L 332.406316 41.056486 
L 343.853421 46.209917 
L 355.300526 52.181338 
L 366.747632 58.703854 
L 378.194737 65.811131 
L 389.641842 73.01176 
L 401.088947 80.652283 
L 412.536053 87.834973 
L 423.983158 95.054272 
L 435.430263 101.684988 
L 446.877368 108.307087 
L 458.324474 114.782166 
L 469.771579 120.646839 
L 481.218684 125.864471 
L 492.665789 131.157802 
L 504.112895 135.93179 
L 515.56 140.709775 
" clip-path="url(#p99f65fa2ff)" style="fill: none; stroke: #7f7f7f; stroke-width: 1.5; stroke-linecap: square"/>
   </g>
   <g id="patch_6">
    <path d="M 298.065 174.04 
L 298.065 26.88 
" style="fill: none; stroke: #000000; stroke-width: 0.8; stroke-linejoin: miter; stroke-linecap: square"/>
   </g>
   <g id="patch_7">
    <path d="M 298.065 174.04 
L 515.56 174.04 
" style="fill: none; stroke: #000000; stroke-width: 0.8; stroke-linejoin: miter; stroke-linecap: square"/>
   </g>
   <g id="text_19">
    <!-- Node * third variable -->
    <g transform="translate(344.2325 20.88)scale(0.12 -0.12)">
     <defs>
      <path id="DejaVuSans-68" d="M 3513 2113 
L 3513 0 
L 2938 0 
L 2938 2094 
Q 2938 2591 2744 2837 
Q 2550 3084 2163 3084 
Q 1697 3084 1428 2787 
Q 1159 2491 1159 1978 
L 1159 0 
L 581 0 
L 581 4863 
L 1159 4863 
L 1159 2956 
Q 1366 3272 1645 3428 
Q 1925 3584 2291 3584 
Q 2894 3584 3203 3211 
Q 3513 2838 3513 2113 
z
" transform="scale(0.015625)"/>
      <path id="DejaVuSans-62" d="M 3116 1747 
Q 3116 2381 2855 2742 
Q 2594 3103 2138 3103 
Q 1681 3103 1420 2742 
Q 1159 2381 1159 1747 
Q 1159 1113 1420 752 
Q 1681 391 2138 391 
Q 2594 391 2855 752 
Q 3116 1113 3116 1747 
z
M 1159 2969 
Q 1341 3281 1617 3432 
Q 1894 3584 2278 3584 
Q 2916 3584 3314 3078 
Q 3713 2572 3713 1747 
Q 3713 922 3314 415 
Q 2916 -91 2278 -91 
Q 1894 -91 1617 61 
Q 1341 213 1159 525 
L 1159 0 
L 581 0 
L 581 4863 
L 1159 4863 
L 1159 2969 
z
" transform="scale(0.015625)"/>
     </defs>
     <use xlink:href="#DejaVuSans-4e"/>
     <use xlink:href="#DejaVuSans-6f" x="74.804688"/>
     <use xlink:href="#DejaVuSans-64" x="135.986328"/>
     <use xlink:href="#DejaVuSans-65" x="199.462891"/>
     <use xlink:href="#DejaVuSans-20" x="260.986328"/>
     <use xlink:href="#DejaVuSans-2a" x="292.773438"/>
     <use xlink:href="#DejaVuSans-20" x="342.773438"/>
     <use xlink:href="#DejaVuSans-74" x="374.560547"/>
     <use xlink:href="#DejaVuSans-68" x="413.769531"/>
     <use xlink:href="#DejaVuSans-69" x="477.148438"/>
     <use xlink:href="#DejaVuSans-72" x="504.931641"/>
     <use xlink:href="#DejaVuSans-64" x="544.294922"/>
     <use xlink:href="#DejaVuSans-20" x="607.771484"/>
     <use xlink:href="#DejaVuSans-76" x="639.558594"/>
     <use xlink:href="#DejaVuSans-61" x="698.738281"/>
     <use xlink:href="#DejaVuSans-72" x="760.017578"/>
     <use xlink:href="#DejaVuSans-69" x="801.130859"/>
     <use xlink:href="#DejaVuSans-61" x="828.914062"/>
     <use xlink:href="#DejaVuSans-62" x="890.193359"/>
     <use xlink:href="#DejaVuSans-6c" x="953.669922"/>
     <use xlink:href="#DejaVuSans-65" x="981.453125"/>
    </g>
   </g>
   <g id="legend_1">
    <g id="line2d_31">
     <path d="M 524.56 39.978437 
L 534.56 39.978437 
L 544.56 39.978437 
" style="fill: none; stroke: #1f77b4; stroke-width: 1.5; stroke-linecap: square"/>
    </g>
    <g id="text_20">
     <!-- Node -->
     <g transform="translate(552.56 43.478437)scale(0.1 -0.1)">
      <use xlink:href="#DejaVuSans-4e"/>
      <use xlink:href="#DejaVuSans-6f" x="74.804688"/>
      <use xlink:href="#DejaVuSans-64" x="135.986328"/>
      <use xlink:href="#DejaVuSans-65" x="199.462891"/>
     </g>
    </g>
    <g id="line2d_32">
     <path d="M 524.56 54.656563 
L 534.56 54.656563 
L 544.56 54.656563 
" style="fill: none; stroke: #ff7f0e; stroke-width: 1.5; stroke-linecap: square"/>
    </g>
    <g id="text_21">
     <!-- Node + surprisal -->
     <g transform="translate(552.56 58.156563)scale(0.1 -0.1)">
      <defs>
       <path id="DejaVuSans-2b" d="M 2944 4013 
L 2944 2272 
L 4684 2272 
L 4684 1741 
L 2944 1741 
L 2944 0 
L 2419 0 
L 2419 1741 
L 678 1741 
L 678 2272 
L 2419 2272 
L 2419 4013 
L 2944 4013 
z
" transform="scale(0.015625)"/>
      </defs>
      <use xlink:href="#DejaVuSans-4e"/>
      <use xlink:href="#DejaVuSans-6f" x="74.804688"/>
      <use xlink:href="#DejaVuSans-64" x="135.986328"/>
      <use xlink:href="#DejaVuSans-65" x="199.462891"/>
      <use xlink:href="#DejaVuSans-20" x="260.986328"/>
      <use xlink:href="#DejaVuSans-2b" x="292.773438"/>
      <use xlink:href="#DejaVuSans-20" x="376.5625"/>
      <use xlink:href="#DejaVuSans-73" x="408.349609"/>
      <use xlink:href="#DejaVuSans-75" x="460.449219"/>
      <use xlink:href="#DejaVuSans-72" x="523.828125"/>
      <use xlink:href="#DejaVuSans-70" x="564.941406"/>
      <use xlink:href="#DejaVuSans-72" x="628.417969"/>
      <use xlink:href="#DejaVuSans-69" x="669.53125"/>
      <use xlink:href="#DejaVuSans-73" x="697.314453"/>
      <use xlink:href="#DejaVuSans-61" x="749.414062"/>
      <use xlink:href="#DejaVuSans-6c" x="810.693359"/>
     </g>
    </g>
    <g id="line2d_33">
     <path d="M 524.56 69.334687 
L 534.56 69.334687 
L 544.56 69.334687 
" style="fill: none; stroke: #2ca02c; stroke-width: 1.5; stroke-linecap: square"/>
    </g>
    <g id="text_22">
     <!-- Node split -->
     <g transform="translate(552.56 72.834687)scale(0.1 -0.1)">
      <use xlink:href="#DejaVuSans-4e"/>
      <use xlink:href="#DejaVuSans-6f" x="74.804688"/>
      <use xlink:href="#DejaVuSans-64" x="135.986328"/>
      <use xlink:href="#DejaVuSans-65" x="199.462891"/>
      <use xlink:href="#DejaVuSans-20" x="260.986328"/>
      <use xlink:href="#DejaVuSans-73" x="292.773438"/>
      <use xlink:href="#DejaVuSans-70" x="344.873047"/>
      <use xlink:href="#DejaVuSans-6c" x="408.349609"/>
      <use xlink:href="#DejaVuSans-69" x="436.132812"/>
      <use xlink:href="#DejaVuSans-74" x="463.916016"/>
     </g>
    </g>
    <g id="line2d_34">
     <path d="M 524.56 84.012812 
L 534.56 84.012812 
L 544.56 84.012812 
" style="fill: none; stroke: #d62728; stroke-width: 1.5; stroke-linecap: square"/>
    </g>
    <g id="text_23">
     <!-- Node split + surprisal -->
     <g transform="translate(552.56 87.512812)scale(0.1 -0.1)">
      <use xlink:href="#DejaVuSans-4e"/>
      <use xlink:href="#DejaVuSans-6f" x="74.804688"/>
      <use xlink:href="#DejaVuSans-64" x="135.986328"/>
      <use xlink:href="#DejaVuSans-65" x="199.462891"/>
      <use xlink:href="#DejaVuSans-20" x="260.986328"/>
      <use xlink:href="#DejaVuSans-73" x="292.773438"/>
      <use xlink:href="#DejaVuSans-70" x="344.873047"/>
      <use xlink:href="#DejaVuSans-6c" x="408.349609"/>
      <use xlink:href="#DejaVuSans-69" x="436.132812"/>
      <use xlink:href="#DejaVuSans-74" x="463.916016"/>
      <use xlink:href="#DejaVuSans-20" x="503.125"/>
      <use xlink:href="#DejaVuSans-2b" x="534.912109"/>
      <use xlink:href="#DejaVuSans-20" x="618.701172"/>
      <use xlink:href="#DejaVuSans-73" x="650.488281"/>
      <use xlink:href="#DejaVuSans-75" x="702.587891"/>
      <use xlink:href="#DejaVuSans-72" x="765.966797"/>
      <use xlink:href="#DejaVuSans-70" x="807.080078"/>
      <use xlink:href="#DejaVuSans-72" x="870.556641"/>
      <use xlink:href="#DejaVuSans-69" x="911.669922"/>
      <use xlink:href="#DejaVuSans-73" x="939.453125"/>
      <use xlink:href="#DejaVuSans-61" x="991.552734"/>
      <use xlink:href="#DejaVuSans-6c" x="1052.832031"/>
     </g>
    </g>
    <g id="line2d_35">
     <path d="M 524.56 98.690937 
L 534.56 98.690937 
L 544.56 98.690937 
" style="fill: none; stroke: #9467bd; stroke-width: 1.5; stroke-linecap: square"/>
    </g>
    <g id="text_24">
     <!-- Node random split -->
     <g transform="translate(552.56 102.190937)scale(0.1 -0.1)">
      <use xlink:href="#DejaVuSans-4e"/>
      <use xlink:href="#DejaVuSans-6f" x="74.804688"/>
      <use xlink:href="#DejaVuSans-64" x="135.986328"/>
      <use xlink:href="#DejaVuSans-65" x="199.462891"/>
      <use xlink:href="#DejaVuSans-20" x="260.986328"/>
      <use xlink:href="#DejaVuSans-72" x="292.773438"/>
      <use xlink:href="#DejaVuSans-61" x="333.886719"/>
      <use xlink:href="#DejaVuSans-6e" x="395.166016"/>
      <use xlink:href="#DejaVuSans-64" x="458.544922"/>
      <use xlink:href="#DejaVuSans-6f" x="522.021484"/>
      <use xlink:href="#DejaVuSans-6d" x="583.203125"/>
      <use xlink:href="#DejaVuSans-20" x="680.615234"/>
      <use xlink:href="#DejaVuSans-73" x="712.402344"/>
      <use xlink:href="#DejaVuSans-70" x="764.501953"/>
      <use xlink:href="#DejaVuSans-6c" x="827.978516"/>
      <use xlink:href="#DejaVuSans-69" x="855.761719"/>
      <use xlink:href="#DejaVuSans-74" x="883.544922"/>
     </g>
    </g>
    <g id="line2d_36">
     <path d="M 524.56 113.369062 
L 534.56 113.369062 
L 544.56 113.369062 
" style="fill: none; stroke: #8c564b; stroke-width: 1.5; stroke-linecap: square"/>
    </g>
    <g id="text_25">
     <!-- Node random split + surprisal -->
     <g transform="translate(552.56 116.869062)scale(0.1 -0.1)">
      <use xlink:href="#DejaVuSans-4e"/>
      <use xlink:href="#DejaVuSans-6f" x="74.804688"/>
      <use xlink:href="#DejaVuSans-64" x="135.986328"/>
      <use xlink:href="#DejaVuSans-65" x="199.462891"/>
      <use xlink:href="#DejaVuSans-20" x="260.986328"/>
      <use xlink:href="#DejaVuSans-72" x="292.773438"/>
      <use xlink:href="#DejaVuSans-61" x="333.886719"/>
      <use xlink:href="#DejaVuSans-6e" x="395.166016"/>
      <use xlink:href="#DejaVuSans-64" x="458.544922"/>
      <use xlink:href="#DejaVuSans-6f" x="522.021484"/>
      <use xlink:href="#DejaVuSans-6d" x="583.203125"/>
      <use xlink:href="#DejaVuSans-20" x="680.615234"/>
      <use xlink:href="#DejaVuSans-73" x="712.402344"/>
      <use xlink:href="#DejaVuSans-70" x="764.501953"/>
      <use xlink:href="#DejaVuSans-6c" x="827.978516"/>
      <use xlink:href="#DejaVuSans-69" x="855.761719"/>
      <use xlink:href="#DejaVuSans-74" x="883.544922"/>
      <use xlink:href="#DejaVuSans-20" x="922.753906"/>
      <use xlink:href="#DejaVuSans-2b" x="954.541016"/>
      <use xlink:href="#DejaVuSans-20" x="1038.330078"/>
      <use xlink:href="#DejaVuSans-73" x="1070.117188"/>
      <use xlink:href="#DejaVuSans-75" x="1122.216797"/>
      <use xlink:href="#DejaVuSans-72" x="1185.595703"/>
      <use xlink:href="#DejaVuSans-70" x="1226.708984"/>
      <use xlink:href="#DejaVuSans-72" x="1290.185547"/>
      <use xlink:href="#DejaVuSans-69" x="1331.298828"/>
      <use xlink:href="#DejaVuSans-73" x="1359.082031"/>
      <use xlink:href="#DejaVuSans-61" x="1411.181641"/>
      <use xlink:href="#DejaVuSans-6c" x="1472.460938"/>
     </g>
    </g>
    <g id="line2d_37">
     <path d="M 524.56 128.047187 
L 534.56 128.047187 
L 544.56 128.047187 
" style="fill: none; stroke: #e377c2; stroke-width: 1.5; stroke-linecap: square"/>
    </g>
    <g id="text_26">
     <!-- Interaction -->
     <g transform="translate(552.56 131.547187)scale(0.1 -0.1)">
      <use xlink:href="#DejaVuSans-49"/>
      <use xlink:href="#DejaVuSans-6e" x="29.492188"/>
      <use xlink:href="#DejaVuSans-74" x="92.871094"/>
      <use xlink:href="#DejaVuSans-65" x="132.080078"/>
      <use xlink:href="#DejaVuSans-72" x="193.603516"/>
      <use xlink:href="#DejaVuSans-61" x="234.716797"/>
      <use xlink:href="#DejaVuSans-63" x="295.996094"/>
      <use xlink:href="#DejaVuSans-74" x="350.976562"/>
      <use xlink:href="#DejaVuSans-69" x="390.185547"/>
      <use xlink:href="#DejaVuSans-6f" x="417.96875"/>
      <use xlink:href="#DejaVuSans-6e" x="479.150391"/>
     </g>
    </g>
    <g id="line2d_38">
     <path d="M 524.56 142.725312 
L 534.56 142.725312 
L 544.56 142.725312 
" style="fill: none; stroke: #7f7f7f; stroke-width: 1.5; stroke-linecap: square"/>
    </g>
    <g id="text_27">
     <!-- Node + surprisal + interaction -->
     <g transform="translate(552.56 146.225312)scale(0.1 -0.1)">
      <use xlink:href="#DejaVuSans-4e"/>
      <use xlink:href="#DejaVuSans-6f" x="74.804688"/>
      <use xlink:href="#DejaVuSans-64" x="135.986328"/>
      <use xlink:href="#DejaVuSans-65" x="199.462891"/>
      <use xlink:href="#DejaVuSans-20" x="260.986328"/>
      <use xlink:href="#DejaVuSans-2b" x="292.773438"/>
      <use xlink:href="#DejaVuSans-20" x="376.5625"/>
      <use xlink:href="#DejaVuSans-73" x="408.349609"/>
      <use xlink:href="#DejaVuSans-75" x="460.449219"/>
      <use xlink:href="#DejaVuSans-72" x="523.828125"/>
      <use xlink:href="#DejaVuSans-70" x="564.941406"/>
      <use xlink:href="#DejaVuSans-72" x="628.417969"/>
      <use xlink:href="#DejaVuSans-69" x="669.53125"/>
      <use xlink:href="#DejaVuSans-73" x="697.314453"/>
      <use xlink:href="#DejaVuSans-61" x="749.414062"/>
      <use xlink:href="#DejaVuSans-6c" x="810.693359"/>
      <use xlink:href="#DejaVuSans-20" x="838.476562"/>
      <use xlink:href="#DejaVuSans-2b" x="870.263672"/>
      <use xlink:href="#DejaVuSans-20" x="954.052734"/>
      <use xlink:href="#DejaVuSans-69" x="985.839844"/>
      <use xlink:href="#DejaVuSans-6e" x="1013.623047"/>
      <use xlink:href="#DejaVuSans-74" x="1077.001953"/>
      <use xlink:href="#DejaVuSans-65" x="1116.210938"/>
      <use xlink:href="#DejaVuSans-72" x="1177.734375"/>
      <use xlink:href="#DejaVuSans-61" x="1218.847656"/>
      <use xlink:href="#DejaVuSans-63" x="1280.126953"/>
      <use xlink:href="#DejaVuSans-74" x="1335.107422"/>
      <use xlink:href="#DejaVuSans-69" x="1374.316406"/>
      <use xlink:href="#DejaVuSans-6f" x="1402.099609"/>
      <use xlink:href="#DejaVuSans-6e" x="1463.28125"/>
     </g>
    </g>
   </g>
  </g>
 </g>
 <defs>
  <clipPath id="p8700e93194">
   <rect x="47.72" y="26.88" width="217.495" height="147.16"/>
  </clipPath>
  <clipPath id="p99f65fa2ff">
   <rect x="298.065" y="26.88" width="217.495" height="147.16"/>
  </clipPath>
 </defs>
</svg>
