<?xml version="1.0" encoding="utf-8" standalone="no"?>
<!DOCTYPE svg PUBLIC "-//W3C//DTD SVG 1.1//EN"
  "http://www.w3.org/Graphics/SVG/1.1/DTD/svg11.dtd">
<svg xmlns:xlink="http://www.w3.org/1999/xlink" width="720pt" height="216pt" viewBox="0 0 720 216" xmlns="http://www.w3.org/2000/svg" version="1.1">
 <metadata>
  <rdf:RDF xmlns:dc="http://purl.org/dc/elements/1.1/" xmlns:cc="http://creativecommons.org/ns#" xmlns:rdf="http://www.w3.org/1999/02/22-rdf-syntax-ns#">
   <cc:Work>
    <dc:type rdf:resource="http://purl.org/dc/dcmitype/StillImage"/>
    <dc:date>2024-01-15T21:07:39.588842</dc:date>
    <dc:format>image/svg+xml</dc:format>
    <dc:creator>
     <cc:Agent>
      <dc:title>Matplotlib v3.5.1, https://matplotlib.org/</dc:title>
     </cc:Agent>
    </dc:creator>
   </cc:Work>
  </rdf:RDF>
 </metadata>
 <defs>
  <style type="text/css">*{stroke-linejoin: round; stroke-linecap: butt}</style>
 </defs>
 <g id="figure_1">
  <g id="patch_1">
   <path d="M 0 216 
L 720 216 
L 720 0 
L 0 0 
z
" style="fill: #ffffff"/>
  </g>
  <g id="axes_1">
   <g id="patch_2">
    <path d="M 47.72 174.04 
L 265.215 174.04 
L 265.215 26.88 
L 47.72 26.88 
z
" style="fill: #ffffff"/>
   </g>
   <g id="PolyCollection_1">
    <path d="M 47.72 33.569091 
L 47.72 33.569092 
L 59.167105 34.739108 
L 70.614211 38.055523 
L 82.061316 42.690569 
L 93.508421 48.70085 
L 104.955526 56.159497 
L 116.402632 63.4862 
L 127.849737 71.987925 
L 139.296842 79.744784 
L 150.743947 88.060204 
L 162.191053 95.170064 
L 173.638158 102.705091 
L 185.085263 108.700636 
L 196.532368 115.125271 
L 207.979474 121.399565 
L 219.426579 126.623721 
L 230.873684 132.403009 
L 242.320789 136.738322 
L 253.767895 141.548328 
L 265.215 146.534997 
L 265.215 134.007291 
L 265.215 134.007291 
L 253.767895 129.630982 
L 242.320789 125.002769 
L 230.873684 119.081145 
L 219.426579 114.456184 
L 207.979474 109.190045 
L 196.532368 102.944883 
L 185.085263 97.045478 
L 173.638158 90.379379 
L 162.191053 84.619511 
L 150.743947 77.471346 
L 139.296842 70.60373 
L 127.849737 63.756878 
L 116.402632 57.327681 
L 104.955526 50.86948 
L 93.508421 45.426609 
L 82.061316 40.482444 
L 70.614211 37.045575 
L 59.167105 34.317067 
L 47.72 33.569091 
z
" clip-path="url(#pd2aa04370d)" style="fill: #1f77b4; fill-opacity: 0.4"/>
   </g>
   <g id="PolyCollection_2">
    <path d="M 47.72 33.569242 
L 47.72 33.569294 
L 59.167105 34.30201 
L 70.614211 36.118611 
L 82.061316 38.868241 
L 93.508421 42.697053 
L 104.955526 47.248898 
L 116.402632 52.023845 
L 127.849737 57.571222 
L 139.296842 63.536723 
L 150.743947 70.623846 
L 162.191053 77.133542 
L 173.638158 84.186405 
L 185.085263 89.959257 
L 196.532368 96.69468 
L 207.979474 102.972643 
L 219.426579 108.299279 
L 230.873684 114.336363 
L 242.320789 119.599286 
L 253.767895 124.896339 
L 265.215 129.937967 
L 265.215 118.937513 
L 265.215 118.937513 
L 253.767895 114.04871 
L 242.320789 109.266074 
L 230.873684 103.640735 
L 219.426579 98.631348 
L 207.979474 92.837469 
L 196.532368 86.615039 
L 185.085263 80.838452 
L 173.638158 74.289079 
L 162.191053 68.9076 
L 150.743947 62.541468 
L 139.296842 56.948533 
L 127.849737 52.012837 
L 116.402632 47.209827 
L 104.955526 43.143839 
L 93.508421 39.677271 
L 82.061316 37.031194 
L 70.614211 35.369741 
L 59.167105 34.024704 
L 47.72 33.569242 
z
" clip-path="url(#pd2aa04370d)" style="fill: #ff7f0e; fill-opacity: 0.4"/>
   </g>
   <g id="PolyCollection_3">
    <path d="M 47.72 33.569099 
L 47.72 33.569105 
L 59.167105 34.48769 
L 70.614211 36.300582 
L 82.061316 38.524148 
L 93.508421 41.487939 
L 104.955526 45.14156 
L 116.402632 48.95899 
L 127.849737 53.023515 
L 139.296842 57.195664 
L 150.743947 61.334621 
L 162.191053 65.455375 
L 173.638158 69.551279 
L 185.085263 72.836237 
L 196.532368 76.471482 
L 207.979474 79.785134 
L 219.426579 83.000226 
L 230.873684 86.28143 
L 242.320789 89.566045 
L 253.767895 92.607217 
L 265.215 95.528253 
L 265.215 85.079875 
L 265.215 85.079875 
L 253.767895 82.280603 
L 242.320789 79.072272 
L 230.873684 76.112958 
L 219.426579 72.808137 
L 207.979474 69.371658 
L 196.532368 65.709397 
L 185.085263 62.537595 
L 173.638158 59.283123 
L 162.191053 56.08558 
L 150.743947 52.783025 
L 139.296842 49.498964 
L 127.849737 46.603555 
L 116.402632 43.463473 
L 104.955526 41.023299 
L 93.508421 38.597728 
L 82.061316 36.634409 
L 70.614211 35.311212 
L 59.167105 34.146874 
L 47.72 33.569099 
z
" clip-path="url(#pd2aa04370d)" style="fill: #2ca02c; fill-opacity: 0.4"/>
   </g>
   <g id="PolyCollection_4">
    <path d="M 47.72 33.569898 
L 47.72 33.570313 
L 59.167105 34.262058 
L 70.614211 35.600387 
L 82.061316 37.284567 
L 93.508421 39.689698 
L 104.955526 42.590734 
L 116.402632 45.680917 
L 127.849737 49.177588 
L 139.296842 52.878995 
L 150.743947 57.063153 
L 162.191053 61.166601 
L 173.638158 65.372866 
L 185.085263 68.750011 
L 196.532368 72.512931 
L 207.979474 76.058889 
L 219.426579 79.460064 
L 230.873684 82.968753 
L 242.320789 86.523644 
L 253.767895 89.737948 
L 265.215 92.919493 
L 265.215 83.449152 
L 265.215 83.449152 
L 253.767895 80.573156 
L 242.320789 77.319908 
L 230.873684 74.256524 
L 219.426579 70.772337 
L 207.979474 67.244355 
L 196.532368 63.454782 
L 185.085263 60.101692 
L 173.638158 56.614459 
L 162.191053 53.297958 
L 150.743947 49.802059 
L 139.296842 46.664354 
L 127.849737 43.981838 
L 116.402632 41.249077 
L 104.955526 39.168097 
L 93.508421 37.175334 
L 82.061316 35.736154 
L 70.614211 34.825475 
L 59.167105 34.011524 
L 47.72 33.569898 
z
" clip-path="url(#pd2aa04370d)" style="fill: #d62728; fill-opacity: 0.4"/>
   </g>
   <g id="PolyCollection_5">
    <path d="M 47.72 33.569099 
L 47.72 33.569105 
L 59.167105 34.737876 
L 70.614211 38.074322 
L 82.061316 42.714446 
L 93.508421 48.695967 
L 104.955526 56.308318 
L 116.402632 63.474153 
L 127.849737 72.099141 
L 139.296842 80.160909 
L 150.743947 88.020476 
L 162.191053 95.121627 
L 173.638158 102.752273 
L 185.085263 108.986437 
L 196.532368 115.234278 
L 207.979474 121.535035 
L 219.426579 126.962492 
L 230.873684 133.826097 
L 242.320789 137.675541 
L 253.767895 141.234995 
L 265.215 148.016153 
L 265.215 134.809154 
L 265.215 134.809154 
L 253.767895 130.521723 
L 242.320789 125.673761 
L 230.873684 118.771328 
L 219.426579 114.081904 
L 207.979474 109.058311 
L 196.532368 103.412383 
L 185.085263 97.122987 
L 173.638158 90.536385 
L 162.191053 85.146986 
L 150.743947 77.688357 
L 139.296842 70.692003 
L 127.849737 63.80234 
L 116.402632 57.321422 
L 104.955526 50.903438 
L 93.508421 45.514347 
L 82.061316 40.532662 
L 70.614211 37.056622 
L 59.167105 34.316026 
L 47.72 33.569099 
z
" clip-path="url(#pd2aa04370d)" style="fill: #9467bd; fill-opacity: 0.4"/>
   </g>
   <g id="PolyCollection_6">
    <path d="M 47.72 33.569708 
L 47.72 33.569911 
L 59.167105 34.302609 
L 70.614211 36.128581 
L 82.061316 38.887253 
L 93.508421 42.72071 
L 104.955526 47.300452 
L 116.402632 52.055992 
L 127.849737 57.631997 
L 139.296842 63.563385 
L 150.743947 70.571022 
L 162.191053 77.128323 
L 173.638158 84.275066 
L 185.085263 90.10273 
L 196.532368 96.929424 
L 207.979474 102.863897 
L 219.426579 108.526573 
L 230.873684 115.149091 
L 242.320789 120.142849 
L 253.767895 124.476461 
L 265.215 130.828416 
L 265.215 119.585501 
L 265.215 119.585501 
L 253.767895 114.724808 
L 242.320789 109.757591 
L 230.873684 103.480771 
L 219.426579 98.509968 
L 207.979474 92.958943 
L 196.532368 86.791169 
L 185.085263 80.968253 
L 173.638158 74.381518 
L 162.191053 69.179035 
L 150.743947 62.70613 
L 139.296842 57.110337 
L 127.849737 52.013666 
L 116.402632 47.202273 
L 104.955526 43.186099 
L 93.508421 39.680046 
L 82.061316 37.065049 
L 70.614211 35.383334 
L 59.167105 34.02554 
L 47.72 33.569708 
z
" clip-path="url(#pd2aa04370d)" style="fill: #8c564b; fill-opacity: 0.4"/>
   </g>
   <g id="PolyCollection_7">
    <path d="M 47.72 46.92878 
L 47.72 50.97393 
L 59.167105 52.856713 
L 70.614211 57.554056 
L 82.061316 63.695095 
L 93.508421 70.754259 
L 104.955526 78.799781 
L 116.402632 87.235861 
L 127.849737 96.730431 
L 139.296842 106.10524 
L 150.743947 115.079881 
L 162.191053 123.109536 
L 173.638158 130.734411 
L 185.085263 136.711156 
L 196.532368 142.236798 
L 207.979474 147.589695 
L 219.426579 152.024489 
L 230.873684 156.424277 
L 242.320789 159.809023 
L 253.767895 163.307771 
L 265.215 167.350909 
L 265.215 153.802101 
L 265.215 153.802101 
L 253.767895 150.356069 
L 242.320789 146.040635 
L 230.873684 141.053035 
L 219.426579 136.581471 
L 207.979474 131.921047 
L 196.532368 125.896247 
L 185.085263 120.236717 
L 173.638158 113.460111 
L 162.191053 107.022508 
L 150.743947 99.319026 
L 139.296842 91.744596 
L 127.849737 84.097017 
L 116.402632 76.175715 
L 104.955526 68.716627 
L 93.508421 61.170724 
L 82.061316 54.833533 
L 70.614211 50.669746 
L 59.167105 47.803656 
L 47.72 46.92878 
z
" clip-path="url(#pd2aa04370d)" style="fill: #e377c2; fill-opacity: 0.4"/>
   </g>
   <g id="PolyCollection_8">
    <path d="M 47.72 33.56938 
L 47.72 33.569611 
L 59.167105 33.882886 
L 70.614211 34.447929 
L 82.061316 35.744057 
L 93.508421 38.039695 
L 104.955526 40.870542 
L 116.402632 44.009461 
L 127.849737 48.088722 
L 139.296842 53.180544 
L 150.743947 59.764063 
L 162.191053 66.769334 
L 173.638158 73.673508 
L 185.085263 79.993345 
L 196.532368 86.874689 
L 207.979474 93.186757 
L 219.426579 98.894889 
L 230.873684 104.549862 
L 242.320789 110.120242 
L 253.767895 115.076893 
L 265.215 120.097064 
L 265.215 107.430403 
L 265.215 107.430403 
L 253.767895 102.266923 
L 242.320789 96.475658 
L 230.873684 90.840118 
L 219.426579 84.937125 
L 207.979474 78.673607 
L 196.532368 72.377953 
L 185.085263 66.158717 
L 173.638158 60.028935 
L 162.191053 54.717534 
L 150.743947 49.25515 
L 139.296842 44.725769 
L 127.849737 40.855372 
L 116.402632 37.500062 
L 104.955526 35.206076 
L 93.508421 34.005809 
L 82.061316 33.683644 
L 70.614211 33.783755 
L 59.167105 33.795502 
L 47.72 33.56938 
z
" clip-path="url(#pd2aa04370d)" style="fill: #7f7f7f; fill-opacity: 0.4"/>
   </g>
   <g id="matplotlib.axis_1">
    <g id="xtick_1">
     <g id="line2d_1">
      <defs>
       <path id="mc6163d9ef2" d="M 0 0 
L 0 3.5 
" style="stroke: #000000; stroke-width: 0.8"/>
      </defs>
      <g>
       <use xlink:href="#mc6163d9ef2" x="47.72" y="174.04" style="stroke: #000000; stroke-width: 0.8"/>
      </g>
     </g>
     <g id="text_1">
      <!-- 0.0 -->
      <g transform="translate(39.768438 188.638438)scale(0.1 -0.1)">
       <defs>
        <path id="DejaVuSans-30" d="M 2034 4250 
Q 1547 4250 1301 3770 
Q 1056 3291 1056 2328 
Q 1056 1369 1301 889 
Q 1547 409 2034 409 
Q 2525 409 2770 889 
Q 3016 1369 3016 2328 
Q 3016 3291 2770 3770 
Q 2525 4250 2034 4250 
z
M 2034 4750 
Q 2819 4750 3233 4129 
Q 3647 3509 3647 2328 
Q 3647 1150 3233 529 
Q 2819 -91 2034 -91 
Q 1250 -91 836 529 
Q 422 1150 422 2328 
Q 422 3509 836 4129 
Q 1250 4750 2034 4750 
z
" transform="scale(0.015625)"/>
        <path id="DejaVuSans-2e" d="M 684 794 
L 1344 794 
L 1344 0 
L 684 0 
L 684 794 
z
" transform="scale(0.015625)"/>
       </defs>
       <use xlink:href="#DejaVuSans-30"/>
       <use xlink:href="#DejaVuSans-2e" x="63.623047"/>
       <use xlink:href="#DejaVuSans-30" x="95.410156"/>
      </g>
     </g>
    </g>
    <g id="xtick_2">
     <g id="line2d_2">
      <g>
       <use xlink:href="#mc6163d9ef2" x="102.09375" y="174.04" style="stroke: #000000; stroke-width: 0.8"/>
      </g>
     </g>
     <g id="text_2">
      <!-- 0.5 -->
      <g transform="translate(94.142188 188.638438)scale(0.1 -0.1)">
       <defs>
        <path id="DejaVuSans-35" d="M 691 4666 
L 3169 4666 
L 3169 4134 
L 1269 4134 
L 1269 2991 
Q 1406 3038 1543 3061 
Q 1681 3084 1819 3084 
Q 2600 3084 3056 2656 
Q 3513 2228 3513 1497 
Q 3513 744 3044 326 
Q 2575 -91 1722 -91 
Q 1428 -91 1123 -41 
Q 819 9 494 109 
L 494 744 
Q 775 591 1075 516 
Q 1375 441 1709 441 
Q 2250 441 2565 725 
Q 2881 1009 2881 1497 
Q 2881 1984 2565 2268 
Q 2250 2553 1709 2553 
Q 1456 2553 1204 2497 
Q 953 2441 691 2322 
L 691 4666 
z
" transform="scale(0.015625)"/>
       </defs>
       <use xlink:href="#DejaVuSans-30"/>
       <use xlink:href="#DejaVuSans-2e" x="63.623047"/>
       <use xlink:href="#DejaVuSans-35" x="95.410156"/>
      </g>
     </g>
    </g>
    <g id="xtick_3">
     <g id="line2d_3">
      <g>
       <use xlink:href="#mc6163d9ef2" x="156.4675" y="174.04" style="stroke: #000000; stroke-width: 0.8"/>
      </g>
     </g>
     <g id="text_3">
      <!-- 1.0 -->
      <g transform="translate(148.515938 188.638438)scale(0.1 -0.1)">
       <defs>
        <path id="DejaVuSans-31" d="M 794 531 
L 1825 531 
L 1825 4091 
L 703 3866 
L 703 4441 
L 1819 4666 
L 2450 4666 
L 2450 531 
L 3481 531 
L 3481 0 
L 794 0 
L 794 531 
z
" transform="scale(0.015625)"/>
       </defs>
       <use xlink:href="#DejaVuSans-31"/>
       <use xlink:href="#DejaVuSans-2e" x="63.623047"/>
       <use xlink:href="#DejaVuSans-30" x="95.410156"/>
      </g>
     </g>
    </g>
    <g id="xtick_4">
     <g id="line2d_4">
      <g>
       <use xlink:href="#mc6163d9ef2" x="210.84125" y="174.04" style="stroke: #000000; stroke-width: 0.8"/>
      </g>
     </g>
     <g id="text_4">
      <!-- 1.5 -->
      <g transform="translate(202.889687 188.638438)scale(0.1 -0.1)">
       <use xlink:href="#DejaVuSans-31"/>
       <use xlink:href="#DejaVuSans-2e" x="63.623047"/>
       <use xlink:href="#DejaVuSans-35" x="95.410156"/>
      </g>
     </g>
    </g>
    <g id="xtick_5">
     <g id="line2d_5">
      <g>
       <use xlink:href="#mc6163d9ef2" x="265.215" y="174.04" style="stroke: #000000; stroke-width: 0.8"/>
      </g>
     </g>
     <g id="text_5">
      <!-- 2.0 -->
      <g transform="translate(257.263437 188.638438)scale(0.1 -0.1)">
       <defs>
        <path id="DejaVuSans-32" d="M 1228 531 
L 3431 531 
L 3431 0 
L 469 0 
L 469 531 
Q 828 903 1448 1529 
Q 2069 2156 2228 2338 
Q 2531 2678 2651 2914 
Q 2772 3150 2772 3378 
Q 2772 3750 2511 3984 
Q 2250 4219 1831 4219 
Q 1534 4219 1204 4116 
Q 875 4013 500 3803 
L 500 4441 
Q 881 4594 1212 4672 
Q 1544 4750 1819 4750 
Q 2544 4750 2975 4387 
Q 3406 4025 3406 3419 
Q 3406 3131 3298 2873 
Q 3191 2616 2906 2266 
Q 2828 2175 2409 1742 
Q 1991 1309 1228 531 
z
" transform="scale(0.015625)"/>
       </defs>
       <use xlink:href="#DejaVuSans-32"/>
       <use xlink:href="#DejaVuSans-2e" x="63.623047"/>
       <use xlink:href="#DejaVuSans-30" x="95.410156"/>
      </g>
     </g>
    </g>
    <g id="text_6">
     <!-- Influence of surprisal (multiplication) -->
     <g transform="translate(64.320625 202.316563)scale(0.1 -0.1)">
      <defs>
       <path id="DejaVuSans-49" d="M 628 4666 
L 1259 4666 
L 1259 0 
L 628 0 
L 628 4666 
z
" transform="scale(0.015625)"/>
       <path id="DejaVuSans-6e" d="M 3513 2113 
L 3513 0 
L 2938 0 
L 2938 2094 
Q 2938 2591 2744 2837 
Q 2550 3084 2163 3084 
Q 1697 3084 1428 2787 
Q 1159 2491 1159 1978 
L 1159 0 
L 581 0 
L 581 3500 
L 1159 3500 
L 1159 2956 
Q 1366 3272 1645 3428 
Q 1925 3584 2291 3584 
Q 2894 3584 3203 3211 
Q 3513 2838 3513 2113 
z
" transform="scale(0.015625)"/>
       <path id="DejaVuSans-66" d="M 2375 4863 
L 2375 4384 
L 1825 4384 
Q 1516 4384 1395 4259 
Q 1275 4134 1275 3809 
L 1275 3500 
L 2222 3500 
L 2222 3053 
L 1275 3053 
L 1275 0 
L 697 0 
L 697 3053 
L 147 3053 
L 147 3500 
L 697 3500 
L 697 3744 
Q 697 4328 969 4595 
Q 1241 4863 1831 4863 
L 2375 4863 
z
" transform="scale(0.015625)"/>
       <path id="DejaVuSans-6c" d="M 603 4863 
L 1178 4863 
L 1178 0 
L 603 0 
L 603 4863 
z
" transform="scale(0.015625)"/>
       <path id="DejaVuSans-75" d="M 544 1381 
L 544 3500 
L 1119 3500 
L 1119 1403 
Q 1119 906 1312 657 
Q 1506 409 1894 409 
Q 2359 409 2629 706 
Q 2900 1003 2900 1516 
L 2900 3500 
L 3475 3500 
L 3475 0 
L 2900 0 
L 2900 538 
Q 2691 219 2414 64 
Q 2138 -91 1772 -91 
Q 1169 -91 856 284 
Q 544 659 544 1381 
z
M 1991 3584 
L 1991 3584 
z
" transform="scale(0.015625)"/>
       <path id="DejaVuSans-65" d="M 3597 1894 
L 3597 1613 
L 953 1613 
Q 991 1019 1311 708 
Q 1631 397 2203 397 
Q 2534 397 2845 478 
Q 3156 559 3463 722 
L 3463 178 
Q 3153 47 2828 -22 
Q 2503 -91 2169 -91 
Q 1331 -91 842 396 
Q 353 884 353 1716 
Q 353 2575 817 3079 
Q 1281 3584 2069 3584 
Q 2775 3584 3186 3129 
Q 3597 2675 3597 1894 
z
M 3022 2063 
Q 3016 2534 2758 2815 
Q 2500 3097 2075 3097 
Q 1594 3097 1305 2825 
Q 1016 2553 972 2059 
L 3022 2063 
z
" transform="scale(0.015625)"/>
       <path id="DejaVuSans-63" d="M 3122 3366 
L 3122 2828 
Q 2878 2963 2633 3030 
Q 2388 3097 2138 3097 
Q 1578 3097 1268 2742 
Q 959 2388 959 1747 
Q 959 1106 1268 751 
Q 1578 397 2138 397 
Q 2388 397 2633 464 
Q 2878 531 3122 666 
L 3122 134 
Q 2881 22 2623 -34 
Q 2366 -91 2075 -91 
Q 1284 -91 818 406 
Q 353 903 353 1747 
Q 353 2603 823 3093 
Q 1294 3584 2113 3584 
Q 2378 3584 2631 3529 
Q 2884 3475 3122 3366 
z
" transform="scale(0.015625)"/>
       <path id="DejaVuSans-20" transform="scale(0.015625)"/>
       <path id="DejaVuSans-6f" d="M 1959 3097 
Q 1497 3097 1228 2736 
Q 959 2375 959 1747 
Q 959 1119 1226 758 
Q 1494 397 1959 397 
Q 2419 397 2687 759 
Q 2956 1122 2956 1747 
Q 2956 2369 2687 2733 
Q 2419 3097 1959 3097 
z
M 1959 3584 
Q 2709 3584 3137 3096 
Q 3566 2609 3566 1747 
Q 3566 888 3137 398 
Q 2709 -91 1959 -91 
Q 1206 -91 779 398 
Q 353 888 353 1747 
Q 353 2609 779 3096 
Q 1206 3584 1959 3584 
z
" transform="scale(0.015625)"/>
       <path id="DejaVuSans-73" d="M 2834 3397 
L 2834 2853 
Q 2591 2978 2328 3040 
Q 2066 3103 1784 3103 
Q 1356 3103 1142 2972 
Q 928 2841 928 2578 
Q 928 2378 1081 2264 
Q 1234 2150 1697 2047 
L 1894 2003 
Q 2506 1872 2764 1633 
Q 3022 1394 3022 966 
Q 3022 478 2636 193 
Q 2250 -91 1575 -91 
Q 1294 -91 989 -36 
Q 684 19 347 128 
L 347 722 
Q 666 556 975 473 
Q 1284 391 1588 391 
Q 1994 391 2212 530 
Q 2431 669 2431 922 
Q 2431 1156 2273 1281 
Q 2116 1406 1581 1522 
L 1381 1569 
Q 847 1681 609 1914 
Q 372 2147 372 2553 
Q 372 3047 722 3315 
Q 1072 3584 1716 3584 
Q 2034 3584 2315 3537 
Q 2597 3491 2834 3397 
z
" transform="scale(0.015625)"/>
       <path id="DejaVuSans-72" d="M 2631 2963 
Q 2534 3019 2420 3045 
Q 2306 3072 2169 3072 
Q 1681 3072 1420 2755 
Q 1159 2438 1159 1844 
L 1159 0 
L 581 0 
L 581 3500 
L 1159 3500 
L 1159 2956 
Q 1341 3275 1631 3429 
Q 1922 3584 2338 3584 
Q 2397 3584 2469 3576 
Q 2541 3569 2628 3553 
L 2631 2963 
z
" transform="scale(0.015625)"/>
       <path id="DejaVuSans-70" d="M 1159 525 
L 1159 -1331 
L 581 -1331 
L 581 3500 
L 1159 3500 
L 1159 2969 
Q 1341 3281 1617 3432 
Q 1894 3584 2278 3584 
Q 2916 3584 3314 3078 
Q 3713 2572 3713 1747 
Q 3713 922 3314 415 
Q 2916 -91 2278 -91 
Q 1894 -91 1617 61 
Q 1341 213 1159 525 
z
M 3116 1747 
Q 3116 2381 2855 2742 
Q 2594 3103 2138 3103 
Q 1681 3103 1420 2742 
Q 1159 2381 1159 1747 
Q 1159 1113 1420 752 
Q 1681 391 2138 391 
Q 2594 391 2855 752 
Q 3116 1113 3116 1747 
z
" transform="scale(0.015625)"/>
       <path id="DejaVuSans-69" d="M 603 3500 
L 1178 3500 
L 1178 0 
L 603 0 
L 603 3500 
z
M 603 4863 
L 1178 4863 
L 1178 4134 
L 603 4134 
L 603 4863 
z
" transform="scale(0.015625)"/>
       <path id="DejaVuSans-61" d="M 2194 1759 
Q 1497 1759 1228 1600 
Q 959 1441 959 1056 
Q 959 750 1161 570 
Q 1363 391 1709 391 
Q 2188 391 2477 730 
Q 2766 1069 2766 1631 
L 2766 1759 
L 2194 1759 
z
M 3341 1997 
L 3341 0 
L 2766 0 
L 2766 531 
Q 2569 213 2275 61 
Q 1981 -91 1556 -91 
Q 1019 -91 701 211 
Q 384 513 384 1019 
Q 384 1609 779 1909 
Q 1175 2209 1959 2209 
L 2766 2209 
L 2766 2266 
Q 2766 2663 2505 2880 
Q 2244 3097 1772 3097 
Q 1472 3097 1187 3025 
Q 903 2953 641 2809 
L 641 3341 
Q 956 3463 1253 3523 
Q 1550 3584 1831 3584 
Q 2591 3584 2966 3190 
Q 3341 2797 3341 1997 
z
" transform="scale(0.015625)"/>
       <path id="DejaVuSans-28" d="M 1984 4856 
Q 1566 4138 1362 3434 
Q 1159 2731 1159 2009 
Q 1159 1288 1364 580 
Q 1569 -128 1984 -844 
L 1484 -844 
Q 1016 -109 783 600 
Q 550 1309 550 2009 
Q 550 2706 781 3412 
Q 1013 4119 1484 4856 
L 1984 4856 
z
" transform="scale(0.015625)"/>
       <path id="DejaVuSans-6d" d="M 3328 2828 
Q 3544 3216 3844 3400 
Q 4144 3584 4550 3584 
Q 5097 3584 5394 3201 
Q 5691 2819 5691 2113 
L 5691 0 
L 5113 0 
L 5113 2094 
Q 5113 2597 4934 2840 
Q 4756 3084 4391 3084 
Q 3944 3084 3684 2787 
Q 3425 2491 3425 1978 
L 3425 0 
L 2847 0 
L 2847 2094 
Q 2847 2600 2669 2842 
Q 2491 3084 2119 3084 
Q 1678 3084 1418 2786 
Q 1159 2488 1159 1978 
L 1159 0 
L 581 0 
L 581 3500 
L 1159 3500 
L 1159 2956 
Q 1356 3278 1631 3431 
Q 1906 3584 2284 3584 
Q 2666 3584 2933 3390 
Q 3200 3197 3328 2828 
z
" transform="scale(0.015625)"/>
       <path id="DejaVuSans-74" d="M 1172 4494 
L 1172 3500 
L 2356 3500 
L 2356 3053 
L 1172 3053 
L 1172 1153 
Q 1172 725 1289 603 
Q 1406 481 1766 481 
L 2356 481 
L 2356 0 
L 1766 0 
Q 1100 0 847 248 
Q 594 497 594 1153 
L 594 3053 
L 172 3053 
L 172 3500 
L 594 3500 
L 594 4494 
L 1172 4494 
z
" transform="scale(0.015625)"/>
       <path id="DejaVuSans-29" d="M 513 4856 
L 1013 4856 
Q 1481 4119 1714 3412 
Q 1947 2706 1947 2009 
Q 1947 1309 1714 600 
Q 1481 -109 1013 -844 
L 513 -844 
Q 928 -128 1133 580 
Q 1338 1288 1338 2009 
Q 1338 2731 1133 3434 
Q 928 4138 513 4856 
z
" transform="scale(0.015625)"/>
      </defs>
      <use xlink:href="#DejaVuSans-49"/>
      <use xlink:href="#DejaVuSans-6e" x="29.492188"/>
      <use xlink:href="#DejaVuSans-66" x="92.871094"/>
      <use xlink:href="#DejaVuSans-6c" x="128.076172"/>
      <use xlink:href="#DejaVuSans-75" x="155.859375"/>
      <use xlink:href="#DejaVuSans-65" x="219.238281"/>
      <use xlink:href="#DejaVuSans-6e" x="280.761719"/>
      <use xlink:href="#DejaVuSans-63" x="344.140625"/>
      <use xlink:href="#DejaVuSans-65" x="399.121094"/>
      <use xlink:href="#DejaVuSans-20" x="460.644531"/>
      <use xlink:href="#DejaVuSans-6f" x="492.431641"/>
      <use xlink:href="#DejaVuSans-66" x="553.613281"/>
      <use xlink:href="#DejaVuSans-20" x="588.818359"/>
      <use xlink:href="#DejaVuSans-73" x="620.605469"/>
      <use xlink:href="#DejaVuSans-75" x="672.705078"/>
      <use xlink:href="#DejaVuSans-72" x="736.083984"/>
      <use xlink:href="#DejaVuSans-70" x="777.197266"/>
      <use xlink:href="#DejaVuSans-72" x="840.673828"/>
      <use xlink:href="#DejaVuSans-69" x="881.787109"/>
      <use xlink:href="#DejaVuSans-73" x="909.570312"/>
      <use xlink:href="#DejaVuSans-61" x="961.669922"/>
      <use xlink:href="#DejaVuSans-6c" x="1022.949219"/>
      <use xlink:href="#DejaVuSans-20" x="1050.732422"/>
      <use xlink:href="#DejaVuSans-28" x="1082.519531"/>
      <use xlink:href="#DejaVuSans-6d" x="1121.533203"/>
      <use xlink:href="#DejaVuSans-75" x="1218.945312"/>
      <use xlink:href="#DejaVuSans-6c" x="1282.324219"/>
      <use xlink:href="#DejaVuSans-74" x="1310.107422"/>
      <use xlink:href="#DejaVuSans-69" x="1349.316406"/>
      <use xlink:href="#DejaVuSans-70" x="1377.099609"/>
      <use xlink:href="#DejaVuSans-6c" x="1440.576172"/>
      <use xlink:href="#DejaVuSans-69" x="1468.359375"/>
      <use xlink:href="#DejaVuSans-63" x="1496.142578"/>
      <use xlink:href="#DejaVuSans-61" x="1551.123047"/>
      <use xlink:href="#DejaVuSans-74" x="1612.402344"/>
      <use xlink:href="#DejaVuSans-69" x="1651.611328"/>
      <use xlink:href="#DejaVuSans-6f" x="1679.394531"/>
      <use xlink:href="#DejaVuSans-6e" x="1740.576172"/>
      <use xlink:href="#DejaVuSans-29" x="1803.955078"/>
     </g>
    </g>
   </g>
   <g id="matplotlib.axis_2">
    <g id="ytick_1">
     <g id="line2d_6">
      <defs>
       <path id="m45d10631c7" d="M 0 0 
L -3.5 0 
" style="stroke: #000000; stroke-width: 0.8"/>
      </defs>
      <g>
       <use xlink:href="#m45d10631c7" x="47.72" y="143.390555" style="stroke: #000000; stroke-width: 0.8"/>
      </g>
     </g>
     <g id="text_7">
      <!-- 0.4 -->
      <g transform="translate(24.816875 147.189773)scale(0.1 -0.1)">
       <defs>
        <path id="DejaVuSans-34" d="M 2419 4116 
L 825 1625 
L 2419 1625 
L 2419 4116 
z
M 2253 4666 
L 3047 4666 
L 3047 1625 
L 3713 1625 
L 3713 1100 
L 3047 1100 
L 3047 0 
L 2419 0 
L 2419 1100 
L 313 1100 
L 313 1709 
L 2253 4666 
z
" transform="scale(0.015625)"/>
       </defs>
       <use xlink:href="#DejaVuSans-30"/>
       <use xlink:href="#DejaVuSans-2e" x="63.623047"/>
       <use xlink:href="#DejaVuSans-34" x="95.410156"/>
      </g>
     </g>
    </g>
    <g id="ytick_2">
     <g id="line2d_7">
      <g>
       <use xlink:href="#m45d10631c7" x="47.72" y="106.783399" style="stroke: #000000; stroke-width: 0.8"/>
      </g>
     </g>
     <g id="text_8">
      <!-- 0.6 -->
      <g transform="translate(24.816875 110.582618)scale(0.1 -0.1)">
       <defs>
        <path id="DejaVuSans-36" d="M 2113 2584 
Q 1688 2584 1439 2293 
Q 1191 2003 1191 1497 
Q 1191 994 1439 701 
Q 1688 409 2113 409 
Q 2538 409 2786 701 
Q 3034 994 3034 1497 
Q 3034 2003 2786 2293 
Q 2538 2584 2113 2584 
z
M 3366 4563 
L 3366 3988 
Q 3128 4100 2886 4159 
Q 2644 4219 2406 4219 
Q 1781 4219 1451 3797 
Q 1122 3375 1075 2522 
Q 1259 2794 1537 2939 
Q 1816 3084 2150 3084 
Q 2853 3084 3261 2657 
Q 3669 2231 3669 1497 
Q 3669 778 3244 343 
Q 2819 -91 2113 -91 
Q 1303 -91 875 529 
Q 447 1150 447 2328 
Q 447 3434 972 4092 
Q 1497 4750 2381 4750 
Q 2619 4750 2861 4703 
Q 3103 4656 3366 4563 
z
" transform="scale(0.015625)"/>
       </defs>
       <use xlink:href="#DejaVuSans-30"/>
       <use xlink:href="#DejaVuSans-2e" x="63.623047"/>
       <use xlink:href="#DejaVuSans-36" x="95.410156"/>
      </g>
     </g>
    </g>
    <g id="ytick_3">
     <g id="line2d_8">
      <g>
       <use xlink:href="#m45d10631c7" x="47.72" y="70.176244" style="stroke: #000000; stroke-width: 0.8"/>
      </g>
     </g>
     <g id="text_9">
      <!-- 0.8 -->
      <g transform="translate(24.816875 73.975462)scale(0.1 -0.1)">
       <defs>
        <path id="DejaVuSans-38" d="M 2034 2216 
Q 1584 2216 1326 1975 
Q 1069 1734 1069 1313 
Q 1069 891 1326 650 
Q 1584 409 2034 409 
Q 2484 409 2743 651 
Q 3003 894 3003 1313 
Q 3003 1734 2745 1975 
Q 2488 2216 2034 2216 
z
M 1403 2484 
Q 997 2584 770 2862 
Q 544 3141 544 3541 
Q 544 4100 942 4425 
Q 1341 4750 2034 4750 
Q 2731 4750 3128 4425 
Q 3525 4100 3525 3541 
Q 3525 3141 3298 2862 
Q 3072 2584 2669 2484 
Q 3125 2378 3379 2068 
Q 3634 1759 3634 1313 
Q 3634 634 3220 271 
Q 2806 -91 2034 -91 
Q 1263 -91 848 271 
Q 434 634 434 1313 
Q 434 1759 690 2068 
Q 947 2378 1403 2484 
z
M 1172 3481 
Q 1172 3119 1398 2916 
Q 1625 2713 2034 2713 
Q 2441 2713 2670 2916 
Q 2900 3119 2900 3481 
Q 2900 3844 2670 4047 
Q 2441 4250 2034 4250 
Q 1625 4250 1398 4047 
Q 1172 3844 1172 3481 
z
" transform="scale(0.015625)"/>
       </defs>
       <use xlink:href="#DejaVuSans-30"/>
       <use xlink:href="#DejaVuSans-2e" x="63.623047"/>
       <use xlink:href="#DejaVuSans-38" x="95.410156"/>
      </g>
     </g>
    </g>
    <g id="ytick_4">
     <g id="line2d_9">
      <g>
       <use xlink:href="#m45d10631c7" x="47.72" y="33.569088" style="stroke: #000000; stroke-width: 0.8"/>
      </g>
     </g>
     <g id="text_10">
      <!-- 1.0 -->
      <g transform="translate(24.816875 37.368307)scale(0.1 -0.1)">
       <use xlink:href="#DejaVuSans-31"/>
       <use xlink:href="#DejaVuSans-2e" x="63.623047"/>
       <use xlink:href="#DejaVuSans-30" x="95.410156"/>
      </g>
     </g>
    </g>
    <g id="text_11">
     <!-- R-value -->
     <g transform="translate(18.737188 119.064687)rotate(-90)scale(0.1 -0.1)">
      <defs>
       <path id="DejaVuSans-52" d="M 2841 2188 
Q 3044 2119 3236 1894 
Q 3428 1669 3622 1275 
L 4263 0 
L 3584 0 
L 2988 1197 
Q 2756 1666 2539 1819 
Q 2322 1972 1947 1972 
L 1259 1972 
L 1259 0 
L 628 0 
L 628 4666 
L 2053 4666 
Q 2853 4666 3247 4331 
Q 3641 3997 3641 3322 
Q 3641 2881 3436 2590 
Q 3231 2300 2841 2188 
z
M 1259 4147 
L 1259 2491 
L 2053 2491 
Q 2509 2491 2742 2702 
Q 2975 2913 2975 3322 
Q 2975 3731 2742 3939 
Q 2509 4147 2053 4147 
L 1259 4147 
z
" transform="scale(0.015625)"/>
       <path id="DejaVuSans-2d" d="M 313 2009 
L 1997 2009 
L 1997 1497 
L 313 1497 
L 313 2009 
z
" transform="scale(0.015625)"/>
       <path id="DejaVuSans-76" d="M 191 3500 
L 800 3500 
L 1894 563 
L 2988 3500 
L 3597 3500 
L 2284 0 
L 1503 0 
L 191 3500 
z
" transform="scale(0.015625)"/>
      </defs>
      <use xlink:href="#DejaVuSans-52"/>
      <use xlink:href="#DejaVuSans-2d" x="65.482422"/>
      <use xlink:href="#DejaVuSans-76" x="98.941406"/>
      <use xlink:href="#DejaVuSans-61" x="158.121094"/>
      <use xlink:href="#DejaVuSans-6c" x="219.400391"/>
      <use xlink:href="#DejaVuSans-75" x="247.183594"/>
      <use xlink:href="#DejaVuSans-65" x="310.5625"/>
     </g>
    </g>
   </g>
   <g id="line2d_10">
    <path d="M 47.72 33.569092 
L 59.167105 34.528087 
L 70.614211 37.550549 
L 82.061316 41.586506 
L 93.508421 47.06373 
L 104.955526 53.514489 
L 116.402632 60.406941 
L 127.849737 67.872402 
L 139.296842 75.174257 
L 150.743947 82.765775 
L 162.191053 89.894788 
L 173.638158 96.542235 
L 185.085263 102.873057 
L 196.532368 109.035077 
L 207.979474 115.294805 
L 219.426579 120.539953 
L 230.873684 125.742077 
L 242.320789 130.870546 
L 253.767895 135.589655 
L 265.215 140.271144 
" clip-path="url(#pd2aa04370d)" style="fill: none; stroke: #1f77b4; stroke-width: 1.5; stroke-linecap: square"/>
   </g>
   <g id="line2d_11">
    <path d="M 47.72 33.569268 
L 59.167105 34.163357 
L 70.614211 35.744176 
L 82.061316 37.949718 
L 93.508421 41.187162 
L 104.955526 45.196369 
L 116.402632 49.616836 
L 127.849737 54.79203 
L 139.296842 60.242628 
L 150.743947 66.582657 
L 162.191053 73.020571 
L 173.638158 79.237742 
L 185.085263 85.398855 
L 196.532368 91.654859 
L 207.979474 97.905056 
L 219.426579 103.465314 
L 230.873684 108.988549 
L 242.320789 114.43268 
L 253.767895 119.472525 
L 265.215 124.43774 
" clip-path="url(#pd2aa04370d)" style="fill: none; stroke: #ff7f0e; stroke-width: 1.5; stroke-linecap: square"/>
   </g>
   <g id="line2d_12">
    <path d="M 47.72 33.569102 
L 59.167105 34.317282 
L 70.614211 35.805897 
L 82.061316 37.579278 
L 93.508421 40.042834 
L 104.955526 43.082429 
L 116.402632 46.211232 
L 127.849737 49.813535 
L 139.296842 53.347314 
L 150.743947 57.058823 
L 162.191053 60.770477 
L 173.638158 64.417201 
L 185.085263 67.686916 
L 196.532368 71.09044 
L 207.979474 74.578396 
L 219.426579 77.904182 
L 230.873684 81.197194 
L 242.320789 84.319158 
L 253.767895 87.44391 
L 265.215 90.304064 
" clip-path="url(#pd2aa04370d)" style="fill: none; stroke: #2ca02c; stroke-width: 1.5; stroke-linecap: square"/>
   </g>
   <g id="line2d_13">
    <path d="M 47.72 33.570105 
L 59.167105 34.136791 
L 70.614211 35.212931 
L 82.061316 36.51036 
L 93.508421 38.432516 
L 104.955526 40.879415 
L 116.402632 43.464997 
L 127.849737 46.579713 
L 139.296842 49.771675 
L 150.743947 53.432606 
L 162.191053 57.232279 
L 173.638158 60.993663 
L 185.085263 64.425852 
L 196.532368 67.983856 
L 207.979474 71.651622 
L 219.426579 75.1162 
L 230.873684 78.612638 
L 242.320789 81.921776 
L 253.767895 85.155552 
L 265.215 88.184322 
" clip-path="url(#pd2aa04370d)" style="fill: none; stroke: #d62728; stroke-width: 1.5; stroke-linecap: square"/>
   </g>
   <g id="line2d_14">
    <path d="M 47.72 33.569102 
L 59.167105 34.526951 
L 70.614211 37.565472 
L 82.061316 41.623554 
L 93.508421 47.105157 
L 104.955526 53.605878 
L 116.402632 60.397788 
L 127.849737 67.95074 
L 139.296842 75.426456 
L 150.743947 82.854417 
L 162.191053 90.134307 
L 173.638158 96.644329 
L 185.085263 103.054712 
L 196.532368 109.32333 
L 207.979474 115.296673 
L 219.426579 120.522198 
L 230.873684 126.298712 
L 242.320789 131.674651 
L 253.767895 135.878359 
L 265.215 141.412653 
" clip-path="url(#pd2aa04370d)" style="fill: none; stroke: #9467bd; stroke-width: 1.5; stroke-linecap: square"/>
   </g>
   <g id="line2d_15">
    <path d="M 47.72 33.56981 
L 59.167105 34.164075 
L 70.614211 35.755957 
L 82.061316 37.976151 
L 93.508421 41.200378 
L 104.955526 45.243275 
L 116.402632 49.629132 
L 127.849737 54.822831 
L 139.296842 60.336861 
L 150.743947 66.638576 
L 162.191053 73.153679 
L 173.638158 79.328292 
L 185.085263 85.535492 
L 196.532368 91.860296 
L 207.979474 97.91142 
L 219.426579 103.51827 
L 230.873684 109.314931 
L 242.320789 114.95022 
L 253.767895 119.600635 
L 265.215 125.206958 
" clip-path="url(#pd2aa04370d)" style="fill: none; stroke: #8c564b; stroke-width: 1.5; stroke-linecap: square"/>
   </g>
   <g id="line2d_16">
    <path d="M 47.72 48.951355 
L 59.167105 50.330185 
L 70.614211 54.111901 
L 82.061316 59.264314 
L 93.508421 65.962492 
L 104.955526 73.758204 
L 116.402632 81.705788 
L 127.849737 90.413724 
L 139.296842 98.924918 
L 150.743947 107.199454 
L 162.191053 115.066022 
L 173.638158 122.097261 
L 185.085263 128.473937 
L 196.532368 134.066522 
L 207.979474 139.755371 
L 219.426579 144.30298 
L 230.873684 148.738656 
L 242.320789 152.924829 
L 253.767895 156.83192 
L 265.215 160.576505 
" clip-path="url(#pd2aa04370d)" style="fill: none; stroke: #e377c2; stroke-width: 1.5; stroke-linecap: square"/>
   </g>
   <g id="line2d_17">
    <path d="M 47.72 33.569495 
L 59.167105 33.839194 
L 70.614211 34.115842 
L 82.061316 34.71385 
L 93.508421 36.022752 
L 104.955526 38.038309 
L 116.402632 40.754762 
L 127.849737 44.472047 
L 139.296842 48.953156 
L 150.743947 54.509606 
L 162.191053 60.743434 
L 173.638158 66.851221 
L 185.085263 73.076031 
L 196.532368 79.626321 
L 207.979474 85.930182 
L 219.426579 91.916007 
L 230.873684 97.69499 
L 242.320789 103.29795 
L 253.767895 108.671908 
L 265.215 113.763733 
" clip-path="url(#pd2aa04370d)" style="fill: none; stroke: #7f7f7f; stroke-width: 1.5; stroke-linecap: square"/>
   </g>
   <g id="patch_3">
    <path d="M 47.72 174.04 
L 47.72 26.88 
" style="fill: none; stroke: #000000; stroke-width: 0.8; stroke-linejoin: miter; stroke-linecap: square"/>
   </g>
   <g id="patch_4">
    <path d="M 47.72 174.04 
L 265.215 174.04 
" style="fill: none; stroke: #000000; stroke-width: 0.8; stroke-linejoin: miter; stroke-linecap: square"/>
   </g>
   <g id="text_12">
    <!-- Node * surprisal -->
    <g transform="translate(108.18625 20.88)scale(0.12 -0.12)">
     <defs>
      <path id="DejaVuSans-4e" d="M 628 4666 
L 1478 4666 
L 3547 763 
L 3547 4666 
L 4159 4666 
L 4159 0 
L 3309 0 
L 1241 3903 
L 1241 0 
L 628 0 
L 628 4666 
z
" transform="scale(0.015625)"/>
      <path id="DejaVuSans-64" d="M 2906 2969 
L 2906 4863 
L 3481 4863 
L 3481 0 
L 2906 0 
L 2906 525 
Q 2725 213 2448 61 
Q 2172 -91 1784 -91 
Q 1150 -91 751 415 
Q 353 922 353 1747 
Q 353 2572 751 3078 
Q 1150 3584 1784 3584 
Q 2172 3584 2448 3432 
Q 2725 3281 2906 2969 
z
M 947 1747 
Q 947 1113 1208 752 
Q 1469 391 1925 391 
Q 2381 391 2643 752 
Q 2906 1113 2906 1747 
Q 2906 2381 2643 2742 
Q 2381 3103 1925 3103 
Q 1469 3103 1208 2742 
Q 947 2381 947 1747 
z
" transform="scale(0.015625)"/>
      <path id="DejaVuSans-2a" d="M 3009 3897 
L 1888 3291 
L 3009 2681 
L 2828 2375 
L 1778 3009 
L 1778 1831 
L 1422 1831 
L 1422 3009 
L 372 2375 
L 191 2681 
L 1313 3291 
L 191 3897 
L 372 4206 
L 1422 3572 
L 1422 4750 
L 1778 4750 
L 1778 3572 
L 2828 4206 
L 3009 3897 
z
" transform="scale(0.015625)"/>
     </defs>
     <use xlink:href="#DejaVuSans-4e"/>
     <use xlink:href="#DejaVuSans-6f" x="74.804688"/>
     <use xlink:href="#DejaVuSans-64" x="135.986328"/>
     <use xlink:href="#DejaVuSans-65" x="199.462891"/>
     <use xlink:href="#DejaVuSans-20" x="260.986328"/>
     <use xlink:href="#DejaVuSans-2a" x="292.773438"/>
     <use xlink:href="#DejaVuSans-20" x="342.773438"/>
     <use xlink:href="#DejaVuSans-73" x="374.560547"/>
     <use xlink:href="#DejaVuSans-75" x="426.660156"/>
     <use xlink:href="#DejaVuSans-72" x="490.039062"/>
     <use xlink:href="#DejaVuSans-70" x="531.152344"/>
     <use xlink:href="#DejaVuSans-72" x="594.628906"/>
     <use xlink:href="#DejaVuSans-69" x="635.742188"/>
     <use xlink:href="#DejaVuSans-73" x="663.525391"/>
     <use xlink:href="#DejaVuSans-61" x="715.625"/>
     <use xlink:href="#DejaVuSans-6c" x="776.904297"/>
    </g>
   </g>
  </g>
  <g id="axes_2">
   <g id="patch_5">
    <path d="M 298.065 174.04 
L 515.56 174.04 
L 515.56 26.88 
L 298.065 26.88 
z
" style="fill: #ffffff"/>
   </g>
   <g id="PolyCollection_9">
    <path d="M 298.065 33.569091 
L 298.065 33.569092 
L 309.512105 34.961064 
L 320.959211 38.930791 
L 332.406316 44.131013 
L 343.853421 50.611369 
L 355.300526 58.091332 
L 366.747632 66.407802 
L 378.194737 74.661078 
L 389.641842 82.958883 
L 401.088947 91.938141 
L 412.536053 100.672523 
L 423.983158 109.043368 
L 435.430263 117.18255 
L 446.877368 124.243297 
L 458.324474 131.371245 
L 469.771579 137.259418 
L 481.218684 143.758231 
L 492.665789 149.674293 
L 504.112895 154.626121 
L 515.56 159.730792 
L 515.56 145.243585 
L 515.56 145.243585 
L 504.112895 139.863007 
L 492.665789 134.781218 
L 481.218684 129.386629 
L 469.771579 122.812028 
L 458.324474 116.241512 
L 446.877368 109.644937 
L 435.430263 102.000397 
L 423.983158 94.743751 
L 412.536053 86.638625 
L 401.088947 78.778155 
L 389.641842 70.964115 
L 378.194737 63.389452 
L 366.747632 56.250713 
L 355.300526 50.103516 
L 343.853421 44.168906 
L 332.406316 39.636786 
L 320.959211 36.408061 
L 309.512105 34.336571 
L 298.065 33.569091 
z
" clip-path="url(#pd4c0e819a3)" style="fill: #1f77b4; fill-opacity: 0.4"/>
   </g>
   <g id="PolyCollection_10">
    <path d="M 298.065 33.569242 
L 298.065 33.569294 
L 309.512105 34.960447 
L 320.959211 38.930159 
L 332.406316 44.127324 
L 343.853421 50.596151 
L 355.300526 58.071282 
L 366.747632 66.376973 
L 378.194737 74.626752 
L 389.641842 82.908785 
L 401.088947 91.887269 
L 412.536053 100.598521 
L 423.983158 108.978222 
L 435.430263 117.132159 
L 446.877368 124.194172 
L 458.324474 131.389917 
L 469.771579 137.299152 
L 481.218684 143.855282 
L 492.665789 149.820149 
L 504.112895 154.842683 
L 515.56 160.019278 
L 515.56 145.757566 
L 515.56 145.757566 
L 504.112895 140.245262 
L 492.665789 135.078177 
L 481.218684 129.664175 
L 469.771579 123.027646 
L 458.324474 116.450695 
L 446.877368 109.779839 
L 435.430263 102.128215 
L 423.983158 94.846332 
L 412.536053 86.724315 
L 401.088947 78.85864 
L 389.641842 71.013212 
L 378.194737 63.463589 
L 366.747632 56.302492 
L 355.300526 50.14092 
L 343.853421 44.201259 
L 332.406316 39.655613 
L 320.959211 36.418663 
L 309.512105 34.339496 
L 298.065 33.569242 
z
" clip-path="url(#pd4c0e819a3)" style="fill: #ff7f0e; fill-opacity: 0.4"/>
   </g>
   <g id="PolyCollection_11">
    <path d="M 298.065 33.569099 
L 298.065 33.569105 
L 309.512105 34.95988 
L 320.959211 38.923861 
L 332.406316 44.13948 
L 343.853421 50.595956 
L 355.300526 58.080867 
L 366.747632 66.406602 
L 378.194737 74.691819 
L 389.641842 83.082402 
L 401.088947 92.098077 
L 412.536053 100.887082 
L 423.983158 109.283403 
L 435.430263 117.48193 
L 446.877368 124.616405 
L 458.324474 131.794749 
L 469.771579 137.78804 
L 481.218684 144.264626 
L 492.665789 150.245982 
L 504.112895 155.167464 
L 515.56 160.304253 
L 515.56 146.213766 
L 515.56 146.213766 
L 504.112895 140.749849 
L 492.665789 135.512762 
L 481.218684 130.112384 
L 469.771579 123.397691 
L 458.324474 116.821662 
L 446.877368 110.003608 
L 435.430263 102.343323 
L 423.983158 95.054868 
L 412.536053 86.919383 
L 401.088947 79.068961 
L 389.641842 71.146217 
L 378.194737 63.599652 
L 366.747632 56.458766 
L 355.300526 50.27801 
L 343.853421 44.287585 
L 332.406316 39.703823 
L 320.959211 36.427233 
L 309.512105 34.349006 
L 298.065 33.569099 
z
" clip-path="url(#pd4c0e819a3)" style="fill: #2ca02c; fill-opacity: 0.4"/>
   </g>
   <g id="PolyCollection_12">
    <path d="M 298.065 33.569898 
L 298.065 33.570313 
L 309.512105 34.959598 
L 320.959211 38.923815 
L 332.406316 44.132262 
L 343.853421 50.575528 
L 355.300526 58.059023 
L 366.747632 66.367329 
L 378.194737 74.64533 
L 389.641842 83.042974 
L 401.088947 92.030854 
L 412.536053 100.816724 
L 423.983158 109.208265 
L 435.430263 117.403567 
L 446.877368 124.552056 
L 458.324474 131.746188 
L 469.771579 137.76592 
L 481.218684 144.284731 
L 492.665789 150.314421 
L 504.112895 155.258146 
L 515.56 160.477366 
L 515.56 146.466533 
L 515.56 146.466533 
L 504.112895 140.962923 
L 492.665789 135.687899 
L 481.218684 130.28794 
L 469.771579 123.554352 
L 458.324474 117.008779 
L 446.877368 110.15759 
L 435.430263 102.479849 
L 423.983158 95.158642 
L 412.536053 87.008933 
L 401.088947 79.14316 
L 389.641842 71.197723 
L 378.194737 63.642093 
L 366.747632 56.476496 
L 355.300526 50.291528 
L 343.853421 44.28796 
L 332.406316 39.708856 
L 320.959211 36.427829 
L 309.512105 34.351237 
L 298.065 33.569898 
z
" clip-path="url(#pd4c0e819a3)" style="fill: #d62728; fill-opacity: 0.4"/>
   </g>
   <g id="PolyCollection_13">
    <path d="M 298.065 33.569099 
L 298.065 33.569105 
L 309.512105 34.961806 
L 320.959211 38.932209 
L 332.406316 44.181081 
L 343.853421 50.758402 
L 355.300526 58.137741 
L 366.747632 66.471466 
L 378.194737 74.762974 
L 389.641842 83.35346 
L 401.088947 91.899126 
L 412.536053 100.769741 
L 423.983158 109.286857 
L 435.430263 117.419568 
L 446.877368 124.102189 
L 458.324474 132.084525 
L 469.771579 137.858876 
L 481.218684 144.400222 
L 492.665789 149.703404 
L 504.112895 155.43099 
L 515.56 160.22762 
L 515.56 145.632704 
L 515.56 145.632704 
L 504.112895 139.899361 
L 492.665789 135.094715 
L 481.218684 129.478877 
L 469.771579 123.206779 
L 458.324474 116.418165 
L 446.877368 109.403826 
L 435.430263 102.540487 
L 423.983158 95.154132 
L 412.536053 86.873486 
L 401.088947 78.779275 
L 389.641842 70.903216 
L 378.194737 63.421518 
L 366.747632 56.319176 
L 355.300526 50.191919 
L 343.853421 44.121822 
L 332.406316 39.661499 
L 320.959211 36.420284 
L 309.512105 34.339153 
L 298.065 33.569099 
z
" clip-path="url(#pd4c0e819a3)" style="fill: #9467bd; fill-opacity: 0.4"/>
   </g>
   <g id="PolyCollection_14">
    <path d="M 298.065 33.569702 
L 298.065 33.569907 
L 309.512105 34.96155 
L 320.959211 38.932344 
L 332.406316 44.176965 
L 343.853421 50.742449 
L 355.300526 58.117705 
L 366.747632 66.443024 
L 378.194737 74.728901 
L 389.641842 83.308138 
L 401.088947 91.850423 
L 412.536053 100.696442 
L 423.983158 109.215341 
L 435.430263 117.367624 
L 446.877368 124.038246 
L 458.324474 132.110111 
L 469.771579 137.895297 
L 481.218684 144.515186 
L 492.665789 149.834232 
L 504.112895 155.597406 
L 515.56 160.443393 
L 515.56 146.162698 
L 515.56 146.162698 
L 504.112895 140.280943 
L 492.665789 135.362387 
L 481.218684 129.743321 
L 469.771579 123.428243 
L 458.324474 116.621326 
L 446.877368 109.528458 
L 435.430263 102.648489 
L 423.983158 95.257834 
L 412.536053 86.963954 
L 401.088947 78.854464 
L 389.641842 70.954616 
L 378.194737 63.495117 
L 366.747632 56.37133 
L 355.300526 50.230792 
L 343.853421 44.153649 
L 332.406316 39.67858 
L 320.959211 36.431473 
L 309.512105 34.342663 
L 298.065 33.569702 
z
" clip-path="url(#pd4c0e819a3)" style="fill: #8c564b; fill-opacity: 0.4"/>
   </g>
   <g id="PolyCollection_15">
    <path d="M 298.065 46.92878 
L 298.065 50.97393 
L 309.512105 51.773876 
L 320.959211 54.370312 
L 332.406316 58.355011 
L 343.853421 64.115642 
L 355.300526 70.888768 
L 366.747632 78.482368 
L 378.194737 85.917018 
L 389.641842 93.823939 
L 401.088947 102.010975 
L 412.536053 110.23584 
L 423.983158 118.062357 
L 435.430263 125.7121 
L 446.877368 132.487573 
L 458.324474 139.234135 
L 469.771579 144.939265 
L 481.218684 151.057563 
L 492.665789 156.525113 
L 504.112895 161.374441 
L 515.56 166.04831 
L 515.56 150.348305 
L 515.56 150.348305 
L 504.112895 145.541133 
L 492.665789 140.99323 
L 481.218684 136.008279 
L 469.771579 130.625093 
L 458.324474 124.21398 
L 446.877368 118.671499 
L 435.430263 111.755477 
L 423.983158 105.528651 
L 412.536053 98.230527 
L 401.088947 91.319237 
L 389.641842 84.214896 
L 378.194737 77.224131 
L 366.747632 70.602657 
L 355.300526 64.770446 
L 343.853421 59.108947 
L 332.406316 54.743425 
L 320.959211 50.987487 
L 309.512105 48.0445 
L 298.065 46.92878 
z
" clip-path="url(#pd4c0e819a3)" style="fill: #e377c2; fill-opacity: 0.4"/>
   </g>
   <g id="PolyCollection_16">
    <path d="M 298.065 33.56938 
L 298.065 33.569611 
L 309.512105 34.961539 
L 320.959211 38.944526 
L 332.406316 44.157541 
L 343.853421 50.640765 
L 355.300526 58.126895 
L 366.747632 66.434624 
L 378.194737 74.718934 
L 389.641842 83.020667 
L 401.088947 92.012485 
L 412.536053 100.755543 
L 423.983158 109.152714 
L 435.430263 117.34674 
L 446.877368 124.469116 
L 458.324474 131.713988 
L 469.771579 137.73354 
L 481.218684 144.345242 
L 492.665789 150.38439 
L 504.112895 155.399119 
L 515.56 160.684974 
L 515.56 146.149121 
L 515.56 146.149121 
L 504.112895 140.785278 
L 492.665789 135.58579 
L 481.218684 130.172143 
L 469.771579 123.490124 
L 458.324474 116.879607 
L 446.877368 110.107599 
L 435.430263 102.436542 
L 423.983158 95.13028 
L 412.536053 86.975731 
L 401.088947 79.095413 
L 389.641842 71.185055 
L 378.194737 63.620848 
L 366.747632 56.466485 
L 355.300526 50.269634 
L 343.853421 44.297965 
L 332.406316 39.728575 
L 320.959211 36.438662 
L 309.512105 34.347369 
L 298.065 33.56938 
z
" clip-path="url(#pd4c0e819a3)" style="fill: #7f7f7f; fill-opacity: 0.4"/>
   </g>
   <g id="matplotlib.axis_3">
    <g id="xtick_6">
     <g id="line2d_18">
      <g>
       <use xlink:href="#mc6163d9ef2" x="298.065" y="174.04" style="stroke: #000000; stroke-width: 0.8"/>
      </g>
     </g>
     <g id="text_13">
      <!-- 0.0 -->
      <g transform="translate(290.113437 188.638438)scale(0.1 -0.1)">
       <use xlink:href="#DejaVuSans-30"/>
       <use xlink:href="#DejaVuSans-2e" x="63.623047"/>
       <use xlink:href="#DejaVuSans-30" x="95.410156"/>
      </g>
     </g>
    </g>
    <g id="xtick_7">
     <g id="line2d_19">
      <g>
       <use xlink:href="#mc6163d9ef2" x="352.43875" y="174.04" style="stroke: #000000; stroke-width: 0.8"/>
      </g>
     </g>
     <g id="text_14">
      <!-- 0.5 -->
      <g transform="translate(344.487187 188.638438)scale(0.1 -0.1)">
       <use xlink:href="#DejaVuSans-30"/>
       <use xlink:href="#DejaVuSans-2e" x="63.623047"/>
       <use xlink:href="#DejaVuSans-35" x="95.410156"/>
      </g>
     </g>
    </g>
    <g id="xtick_8">
     <g id="line2d_20">
      <g>
       <use xlink:href="#mc6163d9ef2" x="406.8125" y="174.04" style="stroke: #000000; stroke-width: 0.8"/>
      </g>
     </g>
     <g id="text_15">
      <!-- 1.0 -->
      <g transform="translate(398.860937 188.638438)scale(0.1 -0.1)">
       <use xlink:href="#DejaVuSans-31"/>
       <use xlink:href="#DejaVuSans-2e" x="63.623047"/>
       <use xlink:href="#DejaVuSans-30" x="95.410156"/>
      </g>
     </g>
    </g>
    <g id="xtick_9">
     <g id="line2d_21">
      <g>
       <use xlink:href="#mc6163d9ef2" x="461.18625" y="174.04" style="stroke: #000000; stroke-width: 0.8"/>
      </g>
     </g>
     <g id="text_16">
      <!-- 1.5 -->
      <g transform="translate(453.234687 188.638438)scale(0.1 -0.1)">
       <use xlink:href="#DejaVuSans-31"/>
       <use xlink:href="#DejaVuSans-2e" x="63.623047"/>
       <use xlink:href="#DejaVuSans-35" x="95.410156"/>
      </g>
     </g>
    </g>
    <g id="xtick_10">
     <g id="line2d_22">
      <g>
       <use xlink:href="#mc6163d9ef2" x="515.56" y="174.04" style="stroke: #000000; stroke-width: 0.8"/>
      </g>
     </g>
     <g id="text_17">
      <!-- 2.0 -->
      <g transform="translate(507.608437 188.638438)scale(0.1 -0.1)">
       <use xlink:href="#DejaVuSans-32"/>
       <use xlink:href="#DejaVuSans-2e" x="63.623047"/>
       <use xlink:href="#DejaVuSans-30" x="95.410156"/>
      </g>
     </g>
    </g>
    <g id="text_18">
     <!-- Influence of surprisal (multiplication) -->
     <g transform="translate(314.665625 202.316563)scale(0.1 -0.1)">
      <use xlink:href="#DejaVuSans-49"/>
      <use xlink:href="#DejaVuSans-6e" x="29.492188"/>
      <use xlink:href="#DejaVuSans-66" x="92.871094"/>
      <use xlink:href="#DejaVuSans-6c" x="128.076172"/>
      <use xlink:href="#DejaVuSans-75" x="155.859375"/>
      <use xlink:href="#DejaVuSans-65" x="219.238281"/>
      <use xlink:href="#DejaVuSans-6e" x="280.761719"/>
      <use xlink:href="#DejaVuSans-63" x="344.140625"/>
      <use xlink:href="#DejaVuSans-65" x="399.121094"/>
      <use xlink:href="#DejaVuSans-20" x="460.644531"/>
      <use xlink:href="#DejaVuSans-6f" x="492.431641"/>
      <use xlink:href="#DejaVuSans-66" x="553.613281"/>
      <use xlink:href="#DejaVuSans-20" x="588.818359"/>
      <use xlink:href="#DejaVuSans-73" x="620.605469"/>
      <use xlink:href="#DejaVuSans-75" x="672.705078"/>
      <use xlink:href="#DejaVuSans-72" x="736.083984"/>
      <use xlink:href="#DejaVuSans-70" x="777.197266"/>
      <use xlink:href="#DejaVuSans-72" x="840.673828"/>
      <use xlink:href="#DejaVuSans-69" x="881.787109"/>
      <use xlink:href="#DejaVuSans-73" x="909.570312"/>
      <use xlink:href="#DejaVuSans-61" x="961.669922"/>
      <use xlink:href="#DejaVuSans-6c" x="1022.949219"/>
      <use xlink:href="#DejaVuSans-20" x="1050.732422"/>
      <use xlink:href="#DejaVuSans-28" x="1082.519531"/>
      <use xlink:href="#DejaVuSans-6d" x="1121.533203"/>
      <use xlink:href="#DejaVuSans-75" x="1218.945312"/>
      <use xlink:href="#DejaVuSans-6c" x="1282.324219"/>
      <use xlink:href="#DejaVuSans-74" x="1310.107422"/>
      <use xlink:href="#DejaVuSans-69" x="1349.316406"/>
      <use xlink:href="#DejaVuSans-70" x="1377.099609"/>
      <use xlink:href="#DejaVuSans-6c" x="1440.576172"/>
      <use xlink:href="#DejaVuSans-69" x="1468.359375"/>
      <use xlink:href="#DejaVuSans-63" x="1496.142578"/>
      <use xlink:href="#DejaVuSans-61" x="1551.123047"/>
      <use xlink:href="#DejaVuSans-74" x="1612.402344"/>
      <use xlink:href="#DejaVuSans-69" x="1651.611328"/>
      <use xlink:href="#DejaVuSans-6f" x="1679.394531"/>
      <use xlink:href="#DejaVuSans-6e" x="1740.576172"/>
      <use xlink:href="#DejaVuSans-29" x="1803.955078"/>
     </g>
    </g>
   </g>
   <g id="line2d_23">
    <path d="M 298.065 33.569092 
L 309.512105 34.648818 
L 320.959211 37.669426 
L 332.406316 41.8839 
L 343.853421 47.390137 
L 355.300526 54.097424 
L 366.747632 61.329257 
L 378.194737 69.025265 
L 389.641842 76.961499 
L 401.088947 85.358148 
L 412.536053 93.655574 
L 423.983158 101.89356 
L 435.430263 109.591473 
L 446.877368 116.944117 
L 458.324474 123.806379 
L 469.771579 130.035723 
L 481.218684 136.57243 
L 492.665789 142.227755 
L 504.112895 147.244564 
L 515.56 152.487188 
" clip-path="url(#pd4c0e819a3)" style="fill: none; stroke: #1f77b4; stroke-width: 1.5; stroke-linecap: square"/>
   </g>
   <g id="line2d_24">
    <path d="M 298.065 33.569268 
L 309.512105 34.649971 
L 320.959211 37.674411 
L 332.406316 41.891468 
L 343.853421 47.398705 
L 355.300526 54.106101 
L 366.747632 61.339733 
L 378.194737 69.045171 
L 389.641842 76.960999 
L 401.088947 85.372955 
L 412.536053 93.661418 
L 423.983158 101.912277 
L 435.430263 109.630187 
L 446.877368 116.987005 
L 458.324474 123.920306 
L 469.771579 130.163399 
L 481.218684 136.759728 
L 492.665789 142.449163 
L 504.112895 147.543972 
L 515.56 152.888422 
" clip-path="url(#pd4c0e819a3)" style="fill: none; stroke: #ff7f0e; stroke-width: 1.5; stroke-linecap: square"/>
   </g>
   <g id="line2d_25">
    <path d="M 298.065 33.569102 
L 309.512105 34.654443 
L 320.959211 37.675547 
L 332.406316 41.921652 
L 343.853421 47.441771 
L 355.300526 54.179438 
L 366.747632 61.432684 
L 378.194737 69.145735 
L 389.641842 77.114309 
L 401.088947 85.583519 
L 412.536053 93.903233 
L 423.983158 102.169136 
L 435.430263 109.912626 
L 446.877368 117.310006 
L 458.324474 124.308206 
L 469.771579 130.592865 
L 481.218684 137.188505 
L 492.665789 142.879372 
L 504.112895 147.958656 
L 515.56 153.259009 
" clip-path="url(#pd4c0e819a3)" style="fill: none; stroke: #2ca02c; stroke-width: 1.5; stroke-linecap: square"/>
   </g>
   <g id="line2d_26">
    <path d="M 298.065 33.570105 
L 309.512105 34.655418 
L 320.959211 37.675822 
L 332.406316 41.920559 
L 343.853421 47.431744 
L 355.300526 54.175275 
L 366.747632 61.421913 
L 378.194737 69.143712 
L 389.641842 77.120349 
L 401.088947 85.587007 
L 412.536053 93.912829 
L 423.983158 102.183454 
L 435.430263 109.941708 
L 446.877368 117.354823 
L 458.324474 124.377484 
L 469.771579 130.660136 
L 481.218684 137.286335 
L 492.665789 143.00116 
L 504.112895 148.110535 
L 515.56 153.471949 
" clip-path="url(#pd4c0e819a3)" style="fill: none; stroke: #d62728; stroke-width: 1.5; stroke-linecap: square"/>
   </g>
   <g id="line2d_27">
    <path d="M 298.065 33.569102 
L 309.512105 34.65048 
L 320.959211 37.676246 
L 332.406316 41.92129 
L 343.853421 47.440112 
L 355.300526 54.16483 
L 366.747632 61.395321 
L 378.194737 69.092246 
L 389.641842 77.128338 
L 401.088947 85.3392 
L 412.536053 93.821613 
L 423.983158 102.220494 
L 435.430263 109.980028 
L 446.877368 116.753008 
L 458.324474 124.251345 
L 469.771579 130.532828 
L 481.218684 136.93955 
L 492.665789 142.399059 
L 504.112895 147.665176 
L 515.56 152.930162 
" clip-path="url(#pd4c0e819a3)" style="fill: none; stroke: #9467bd; stroke-width: 1.5; stroke-linecap: square"/>
   </g>
   <g id="line2d_28">
    <path d="M 298.065 33.569804 
L 309.512105 34.652107 
L 320.959211 37.681909 
L 332.406316 41.927772 
L 343.853421 47.448049 
L 355.300526 54.174248 
L 366.747632 61.407177 
L 378.194737 69.112009 
L 389.641842 77.131377 
L 401.088947 85.352444 
L 412.536053 93.830198 
L 423.983158 102.236588 
L 435.430263 110.008056 
L 446.877368 116.783352 
L 458.324474 124.365719 
L 469.771579 130.66177 
L 481.218684 137.129254 
L 492.665789 142.598309 
L 504.112895 147.939174 
L 515.56 153.303046 
" clip-path="url(#pd4c0e819a3)" style="fill: none; stroke: #8c564b; stroke-width: 1.5; stroke-linecap: square"/>
   </g>
   <g id="line2d_29">
    <path d="M 298.065 48.951355 
L 309.512105 49.909188 
L 320.959211 52.678899 
L 332.406316 56.549218 
L 343.853421 61.612295 
L 355.300526 67.829607 
L 366.747632 74.542513 
L 378.194737 81.570574 
L 389.641842 89.019418 
L 401.088947 96.665106 
L 412.536053 104.233183 
L 423.983158 111.795504 
L 435.430263 118.733789 
L 446.877368 125.579536 
L 458.324474 131.724058 
L 469.771579 137.782179 
L 481.218684 143.532921 
L 492.665789 148.759172 
L 504.112895 153.457787 
L 515.56 158.198308 
" clip-path="url(#pd4c0e819a3)" style="fill: none; stroke: #e377c2; stroke-width: 1.5; stroke-linecap: square"/>
   </g>
   <g id="line2d_30">
    <path d="M 298.065 33.569495 
L 309.512105 34.654454 
L 320.959211 37.691594 
L 332.406316 41.943058 
L 343.853421 47.469365 
L 355.300526 54.198265 
L 366.747632 61.450555 
L 378.194737 69.169891 
L 389.641842 77.102861 
L 401.088947 85.553949 
L 412.536053 93.865637 
L 423.983158 102.141497 
L 435.430263 109.891641 
L 446.877368 117.288358 
L 458.324474 124.296798 
L 469.771579 130.611832 
L 481.218684 137.258692 
L 492.665789 142.98509 
L 504.112895 148.092199 
L 515.56 153.417047 
" clip-path="url(#pd4c0e819a3)" style="fill: none; stroke: #7f7f7f; stroke-width: 1.5; stroke-linecap: square"/>
   </g>
   <g id="patch_6">
    <path d="M 298.065 174.04 
L 298.065 26.88 
" style="fill: none; stroke: #000000; stroke-width: 0.8; stroke-linejoin: miter; stroke-linecap: square"/>
   </g>
   <g id="patch_7">
    <path d="M 298.065 174.04 
L 515.56 174.04 
" style="fill: none; stroke: #000000; stroke-width: 0.8; stroke-linejoin: miter; stroke-linecap: square"/>
   </g>
   <g id="text_19">
    <!-- Node * third variable -->
    <g transform="translate(344.2325 20.88)scale(0.12 -0.12)">
     <defs>
      <path id="DejaVuSans-68" d="M 3513 2113 
L 3513 0 
L 2938 0 
L 2938 2094 
Q 2938 2591 2744 2837 
Q 2550 3084 2163 3084 
Q 1697 3084 1428 2787 
Q 1159 2491 1159 1978 
L 1159 0 
L 581 0 
L 581 4863 
L 1159 4863 
L 1159 2956 
Q 1366 3272 1645 3428 
Q 1925 3584 2291 3584 
Q 2894 3584 3203 3211 
Q 3513 2838 3513 2113 
z
" transform="scale(0.015625)"/>
      <path id="DejaVuSans-62" d="M 3116 1747 
Q 3116 2381 2855 2742 
Q 2594 3103 2138 3103 
Q 1681 3103 1420 2742 
Q 1159 2381 1159 1747 
Q 1159 1113 1420 752 
Q 1681 391 2138 391 
Q 2594 391 2855 752 
Q 3116 1113 3116 1747 
z
M 1159 2969 
Q 1341 3281 1617 3432 
Q 1894 3584 2278 3584 
Q 2916 3584 3314 3078 
Q 3713 2572 3713 1747 
Q 3713 922 3314 415 
Q 2916 -91 2278 -91 
Q 1894 -91 1617 61 
Q 1341 213 1159 525 
L 1159 0 
L 581 0 
L 581 4863 
L 1159 4863 
L 1159 2969 
z
" transform="scale(0.015625)"/>
     </defs>
     <use xlink:href="#DejaVuSans-4e"/>
     <use xlink:href="#DejaVuSans-6f" x="74.804688"/>
     <use xlink:href="#DejaVuSans-64" x="135.986328"/>
     <use xlink:href="#DejaVuSans-65" x="199.462891"/>
     <use xlink:href="#DejaVuSans-20" x="260.986328"/>
     <use xlink:href="#DejaVuSans-2a" x="292.773438"/>
     <use xlink:href="#DejaVuSans-20" x="342.773438"/>
     <use xlink:href="#DejaVuSans-74" x="374.560547"/>
     <use xlink:href="#DejaVuSans-68" x="413.769531"/>
     <use xlink:href="#DejaVuSans-69" x="477.148438"/>
     <use xlink:href="#DejaVuSans-72" x="504.931641"/>
     <use xlink:href="#DejaVuSans-64" x="544.294922"/>
     <use xlink:href="#DejaVuSans-20" x="607.771484"/>
     <use xlink:href="#DejaVuSans-76" x="639.558594"/>
     <use xlink:href="#DejaVuSans-61" x="698.738281"/>
     <use xlink:href="#DejaVuSans-72" x="760.017578"/>
     <use xlink:href="#DejaVuSans-69" x="801.130859"/>
     <use xlink:href="#DejaVuSans-61" x="828.914062"/>
     <use xlink:href="#DejaVuSans-62" x="890.193359"/>
     <use xlink:href="#DejaVuSans-6c" x="953.669922"/>
     <use xlink:href="#DejaVuSans-65" x="981.453125"/>
    </g>
   </g>
   <g id="legend_1">
    <g id="line2d_31">
     <path d="M 524.56 39.978437 
L 534.56 39.978437 
L 544.56 39.978437 
" style="fill: none; stroke: #1f77b4; stroke-width: 1.5; stroke-linecap: square"/>
    </g>
    <g id="text_20">
     <!-- Node -->
     <g transform="translate(552.56 43.478437)scale(0.1 -0.1)">
      <use xlink:href="#DejaVuSans-4e"/>
      <use xlink:href="#DejaVuSans-6f" x="74.804688"/>
      <use xlink:href="#DejaVuSans-64" x="135.986328"/>
      <use xlink:href="#DejaVuSans-65" x="199.462891"/>
     </g>
    </g>
    <g id="line2d_32">
     <path d="M 524.56 54.656563 
L 534.56 54.656563 
L 544.56 54.656563 
" style="fill: none; stroke: #ff7f0e; stroke-width: 1.5; stroke-linecap: square"/>
    </g>
    <g id="text_21">
     <!-- Node + surprisal -->
     <g transform="translate(552.56 58.156563)scale(0.1 -0.1)">
      <defs>
       <path id="DejaVuSans-2b" d="M 2944 4013 
L 2944 2272 
L 4684 2272 
L 4684 1741 
L 2944 1741 
L 2944 0 
L 2419 0 
L 2419 1741 
L 678 1741 
L 678 2272 
L 2419 2272 
L 2419 4013 
L 2944 4013 
z
" transform="scale(0.015625)"/>
      </defs>
      <use xlink:href="#DejaVuSans-4e"/>
      <use xlink:href="#DejaVuSans-6f" x="74.804688"/>
      <use xlink:href="#DejaVuSans-64" x="135.986328"/>
      <use xlink:href="#DejaVuSans-65" x="199.462891"/>
      <use xlink:href="#DejaVuSans-20" x="260.986328"/>
      <use xlink:href="#DejaVuSans-2b" x="292.773438"/>
      <use xlink:href="#DejaVuSans-20" x="376.5625"/>
      <use xlink:href="#DejaVuSans-73" x="408.349609"/>
      <use xlink:href="#DejaVuSans-75" x="460.449219"/>
      <use xlink:href="#DejaVuSans-72" x="523.828125"/>
      <use xlink:href="#DejaVuSans-70" x="564.941406"/>
      <use xlink:href="#DejaVuSans-72" x="628.417969"/>
      <use xlink:href="#DejaVuSans-69" x="669.53125"/>
      <use xlink:href="#DejaVuSans-73" x="697.314453"/>
      <use xlink:href="#DejaVuSans-61" x="749.414062"/>
      <use xlink:href="#DejaVuSans-6c" x="810.693359"/>
     </g>
    </g>
    <g id="line2d_33">
     <path d="M 524.56 69.334687 
L 534.56 69.334687 
L 544.56 69.334687 
" style="fill: none; stroke: #2ca02c; stroke-width: 1.5; stroke-linecap: square"/>
    </g>
    <g id="text_22">
     <!-- Node split -->
     <g transform="translate(552.56 72.834687)scale(0.1 -0.1)">
      <use xlink:href="#DejaVuSans-4e"/>
      <use xlink:href="#DejaVuSans-6f" x="74.804688"/>
      <use xlink:href="#DejaVuSans-64" x="135.986328"/>
      <use xlink:href="#DejaVuSans-65" x="199.462891"/>
      <use xlink:href="#DejaVuSans-20" x="260.986328"/>
      <use xlink:href="#DejaVuSans-73" x="292.773438"/>
      <use xlink:href="#DejaVuSans-70" x="344.873047"/>
      <use xlink:href="#DejaVuSans-6c" x="408.349609"/>
      <use xlink:href="#DejaVuSans-69" x="436.132812"/>
      <use xlink:href="#DejaVuSans-74" x="463.916016"/>
     </g>
    </g>
    <g id="line2d_34">
     <path d="M 524.56 84.012812 
L 534.56 84.012812 
L 544.56 84.012812 
" style="fill: none; stroke: #d62728; stroke-width: 1.5; stroke-linecap: square"/>
    </g>
    <g id="text_23">
     <!-- Node split + surprisal -->
     <g transform="translate(552.56 87.512812)scale(0.1 -0.1)">
      <use xlink:href="#DejaVuSans-4e"/>
      <use xlink:href="#DejaVuSans-6f" x="74.804688"/>
      <use xlink:href="#DejaVuSans-64" x="135.986328"/>
      <use xlink:href="#DejaVuSans-65" x="199.462891"/>
      <use xlink:href="#DejaVuSans-20" x="260.986328"/>
      <use xlink:href="#DejaVuSans-73" x="292.773438"/>
      <use xlink:href="#DejaVuSans-70" x="344.873047"/>
      <use xlink:href="#DejaVuSans-6c" x="408.349609"/>
      <use xlink:href="#DejaVuSans-69" x="436.132812"/>
      <use xlink:href="#DejaVuSans-74" x="463.916016"/>
      <use xlink:href="#DejaVuSans-20" x="503.125"/>
      <use xlink:href="#DejaVuSans-2b" x="534.912109"/>
      <use xlink:href="#DejaVuSans-20" x="618.701172"/>
      <use xlink:href="#DejaVuSans-73" x="650.488281"/>
      <use xlink:href="#DejaVuSans-75" x="702.587891"/>
      <use xlink:href="#DejaVuSans-72" x="765.966797"/>
      <use xlink:href="#DejaVuSans-70" x="807.080078"/>
      <use xlink:href="#DejaVuSans-72" x="870.556641"/>
      <use xlink:href="#DejaVuSans-69" x="911.669922"/>
      <use xlink:href="#DejaVuSans-73" x="939.453125"/>
      <use xlink:href="#DejaVuSans-61" x="991.552734"/>
      <use xlink:href="#DejaVuSans-6c" x="1052.832031"/>
     </g>
    </g>
    <g id="line2d_35">
     <path d="M 524.56 98.690937 
L 534.56 98.690937 
L 544.56 98.690937 
" style="fill: none; stroke: #9467bd; stroke-width: 1.5; stroke-linecap: square"/>
    </g>
    <g id="text_24">
     <!-- Node random split -->
     <g transform="translate(552.56 102.190937)scale(0.1 -0.1)">
      <use xlink:href="#DejaVuSans-4e"/>
      <use xlink:href="#DejaVuSans-6f" x="74.804688"/>
      <use xlink:href="#DejaVuSans-64" x="135.986328"/>
      <use xlink:href="#DejaVuSans-65" x="199.462891"/>
      <use xlink:href="#DejaVuSans-20" x="260.986328"/>
      <use xlink:href="#DejaVuSans-72" x="292.773438"/>
      <use xlink:href="#DejaVuSans-61" x="333.886719"/>
      <use xlink:href="#DejaVuSans-6e" x="395.166016"/>
      <use xlink:href="#DejaVuSans-64" x="458.544922"/>
      <use xlink:href="#DejaVuSans-6f" x="522.021484"/>
      <use xlink:href="#DejaVuSans-6d" x="583.203125"/>
      <use xlink:href="#DejaVuSans-20" x="680.615234"/>
      <use xlink:href="#DejaVuSans-73" x="712.402344"/>
      <use xlink:href="#DejaVuSans-70" x="764.501953"/>
      <use xlink:href="#DejaVuSans-6c" x="827.978516"/>
      <use xlink:href="#DejaVuSans-69" x="855.761719"/>
      <use xlink:href="#DejaVuSans-74" x="883.544922"/>
     </g>
    </g>
    <g id="line2d_36">
     <path d="M 524.56 113.369062 
L 534.56 113.369062 
L 544.56 113.369062 
" style="fill: none; stroke: #8c564b; stroke-width: 1.5; stroke-linecap: square"/>
    </g>
    <g id="text_25">
     <!-- Node random split + surprisal -->
     <g transform="translate(552.56 116.869062)scale(0.1 -0.1)">
      <use xlink:href="#DejaVuSans-4e"/>
      <use xlink:href="#DejaVuSans-6f" x="74.804688"/>
      <use xlink:href="#DejaVuSans-64" x="135.986328"/>
      <use xlink:href="#DejaVuSans-65" x="199.462891"/>
      <use xlink:href="#DejaVuSans-20" x="260.986328"/>
      <use xlink:href="#DejaVuSans-72" x="292.773438"/>
      <use xlink:href="#DejaVuSans-61" x="333.886719"/>
      <use xlink:href="#DejaVuSans-6e" x="395.166016"/>
      <use xlink:href="#DejaVuSans-64" x="458.544922"/>
      <use xlink:href="#DejaVuSans-6f" x="522.021484"/>
      <use xlink:href="#DejaVuSans-6d" x="583.203125"/>
      <use xlink:href="#DejaVuSans-20" x="680.615234"/>
      <use xlink:href="#DejaVuSans-73" x="712.402344"/>
      <use xlink:href="#DejaVuSans-70" x="764.501953"/>
      <use xlink:href="#DejaVuSans-6c" x="827.978516"/>
      <use xlink:href="#DejaVuSans-69" x="855.761719"/>
      <use xlink:href="#DejaVuSans-74" x="883.544922"/>
      <use xlink:href="#DejaVuSans-20" x="922.753906"/>
      <use xlink:href="#DejaVuSans-2b" x="954.541016"/>
      <use xlink:href="#DejaVuSans-20" x="1038.330078"/>
      <use xlink:href="#DejaVuSans-73" x="1070.117188"/>
      <use xlink:href="#DejaVuSans-75" x="1122.216797"/>
      <use xlink:href="#DejaVuSans-72" x="1185.595703"/>
      <use xlink:href="#DejaVuSans-70" x="1226.708984"/>
      <use xlink:href="#DejaVuSans-72" x="1290.185547"/>
      <use xlink:href="#DejaVuSans-69" x="1331.298828"/>
      <use xlink:href="#DejaVuSans-73" x="1359.082031"/>
      <use xlink:href="#DejaVuSans-61" x="1411.181641"/>
      <use xlink:href="#DejaVuSans-6c" x="1472.460938"/>
     </g>
    </g>
    <g id="line2d_37">
     <path d="M 524.56 128.047187 
L 534.56 128.047187 
L 544.56 128.047187 
" style="fill: none; stroke: #e377c2; stroke-width: 1.5; stroke-linecap: square"/>
    </g>
    <g id="text_26">
     <!-- Interaction -->
     <g transform="translate(552.56 131.547187)scale(0.1 -0.1)">
      <use xlink:href="#DejaVuSans-49"/>
      <use xlink:href="#DejaVuSans-6e" x="29.492188"/>
      <use xlink:href="#DejaVuSans-74" x="92.871094"/>
      <use xlink:href="#DejaVuSans-65" x="132.080078"/>
      <use xlink:href="#DejaVuSans-72" x="193.603516"/>
      <use xlink:href="#DejaVuSans-61" x="234.716797"/>
      <use xlink:href="#DejaVuSans-63" x="295.996094"/>
      <use xlink:href="#DejaVuSans-74" x="350.976562"/>
      <use xlink:href="#DejaVuSans-69" x="390.185547"/>
      <use xlink:href="#DejaVuSans-6f" x="417.96875"/>
      <use xlink:href="#DejaVuSans-6e" x="479.150391"/>
     </g>
    </g>
    <g id="line2d_38">
     <path d="M 524.56 142.725312 
L 534.56 142.725312 
L 544.56 142.725312 
" style="fill: none; stroke: #7f7f7f; stroke-width: 1.5; stroke-linecap: square"/>
    </g>
    <g id="text_27">
     <!-- Node + surprisal + interaction -->
     <g transform="translate(552.56 146.225312)scale(0.1 -0.1)">
      <use xlink:href="#DejaVuSans-4e"/>
      <use xlink:href="#DejaVuSans-6f" x="74.804688"/>
      <use xlink:href="#DejaVuSans-64" x="135.986328"/>
      <use xlink:href="#DejaVuSans-65" x="199.462891"/>
      <use xlink:href="#DejaVuSans-20" x="260.986328"/>
      <use xlink:href="#DejaVuSans-2b" x="292.773438"/>
      <use xlink:href="#DejaVuSans-20" x="376.5625"/>
      <use xlink:href="#DejaVuSans-73" x="408.349609"/>
      <use xlink:href="#DejaVuSans-75" x="460.449219"/>
      <use xlink:href="#DejaVuSans-72" x="523.828125"/>
      <use xlink:href="#DejaVuSans-70" x="564.941406"/>
      <use xlink:href="#DejaVuSans-72" x="628.417969"/>
      <use xlink:href="#DejaVuSans-69" x="669.53125"/>
      <use xlink:href="#DejaVuSans-73" x="697.314453"/>
      <use xlink:href="#DejaVuSans-61" x="749.414062"/>
      <use xlink:href="#DejaVuSans-6c" x="810.693359"/>
      <use xlink:href="#DejaVuSans-20" x="838.476562"/>
      <use xlink:href="#DejaVuSans-2b" x="870.263672"/>
      <use xlink:href="#DejaVuSans-20" x="954.052734"/>
      <use xlink:href="#DejaVuSans-69" x="985.839844"/>
      <use xlink:href="#DejaVuSans-6e" x="1013.623047"/>
      <use xlink:href="#DejaVuSans-74" x="1077.001953"/>
      <use xlink:href="#DejaVuSans-65" x="1116.210938"/>
      <use xlink:href="#DejaVuSans-72" x="1177.734375"/>
      <use xlink:href="#DejaVuSans-61" x="1218.847656"/>
      <use xlink:href="#DejaVuSans-63" x="1280.126953"/>
      <use xlink:href="#DejaVuSans-74" x="1335.107422"/>
      <use xlink:href="#DejaVuSans-69" x="1374.316406"/>
      <use xlink:href="#DejaVuSans-6f" x="1402.099609"/>
      <use xlink:href="#DejaVuSans-6e" x="1463.28125"/>
     </g>
    </g>
   </g>
  </g>
 </g>
 <defs>
  <clipPath id="pd2aa04370d">
   <rect x="47.72" y="26.88" width="217.495" height="147.16"/>
  </clipPath>
  <clipPath id="pd4c0e819a3">
   <rect x="298.065" y="26.88" width="217.495" height="147.16"/>
  </clipPath>
 </defs>
</svg>
