<?xml version="1.0" encoding="utf-8" standalone="no"?>
<!DOCTYPE svg PUBLIC "-//W3C//DTD SVG 1.1//EN"
  "http://www.w3.org/Graphics/SVG/1.1/DTD/svg11.dtd">
<svg xmlns:xlink="http://www.w3.org/1999/xlink" width="720pt" height="216pt" viewBox="0 0 720 216" xmlns="http://www.w3.org/2000/svg" version="1.1">
 <metadata>
  <rdf:RDF xmlns:dc="http://purl.org/dc/elements/1.1/" xmlns:cc="http://creativecommons.org/ns#" xmlns:rdf="http://www.w3.org/1999/02/22-rdf-syntax-ns#">
   <cc:Work>
    <dc:type rdf:resource="http://purl.org/dc/dcmitype/StillImage"/>
    <dc:date>2024-01-16T03:12:37.175615</dc:date>
    <dc:format>image/svg+xml</dc:format>
    <dc:creator>
     <cc:Agent>
      <dc:title>Matplotlib v3.5.1, https://matplotlib.org/</dc:title>
     </cc:Agent>
    </dc:creator>
   </cc:Work>
  </rdf:RDF>
 </metadata>
 <defs>
  <style type="text/css">*{stroke-linejoin: round; stroke-linecap: butt}</style>
 </defs>
 <g id="figure_1">
  <g id="patch_1">
   <path d="M 0 216 
L 720 216 
L 720 0 
L 0 0 
z
" style="fill: #ffffff"/>
  </g>
  <g id="axes_1">
   <g id="patch_2">
    <path d="M 47.72 174.04 
L 265.215 174.04 
L 265.215 26.88 
L 47.72 26.88 
z
" style="fill: #ffffff"/>
   </g>
   <g id="PolyCollection_1">
    <path d="M 47.72 33.569091 
L 47.72 33.569092 
L 59.167105 34.727003 
L 70.614211 38.276837 
L 82.061316 43.201792 
L 93.508421 48.858518 
L 104.955526 55.986622 
L 116.402632 63.288179 
L 127.849737 70.600393 
L 139.296842 77.468145 
L 150.743947 85.899991 
L 162.191053 92.822468 
L 173.638158 100.064299 
L 185.085263 106.74357 
L 196.532368 113.942285 
L 207.979474 119.384629 
L 219.426579 125.410887 
L 230.873684 130.835133 
L 242.320789 135.432175 
L 253.767895 140.199774 
L 265.215 145.058333 
L 265.215 133.667311 
L 265.215 133.667311 
L 253.767895 129.211619 
L 242.320789 123.93894 
L 230.873684 118.759911 
L 219.426579 112.838316 
L 207.979474 107.254289 
L 196.532368 100.989715 
L 185.085263 94.982815 
L 173.638158 88.712748 
L 162.191053 82.094533 
L 150.743947 75.534305 
L 139.296842 68.183635 
L 127.849737 61.944701 
L 116.402632 55.212702 
L 104.955526 49.401523 
L 93.508421 44.041485 
L 82.061316 39.737765 
L 70.614211 36.643366 
L 59.167105 34.332011 
L 47.72 33.569091 
z
" clip-path="url(#p8118e4f227)" style="fill: #1f77b4; fill-opacity: 0.4"/>
   </g>
   <g id="PolyCollection_2">
    <path d="M 47.72 33.569235 
L 47.72 33.569291 
L 59.167105 34.279523 
L 70.614211 36.160566 
L 82.061316 38.953693 
L 93.508421 42.433876 
L 104.955526 47.057238 
L 116.402632 52.354151 
L 127.849737 58.139225 
L 139.296842 63.478903 
L 150.743947 70.160958 
L 162.191053 75.860536 
L 173.638158 82.114279 
L 185.085263 87.86701 
L 196.532368 94.377718 
L 207.979474 99.721476 
L 219.426579 105.620017 
L 230.873684 111.171839 
L 242.320789 115.722375 
L 253.767895 120.849016 
L 265.215 125.762386 
L 265.215 116.768753 
L 265.215 116.768753 
L 253.767895 111.973954 
L 242.320789 106.913918 
L 230.873684 101.837363 
L 219.426579 96.055278 
L 207.979474 90.606897 
L 196.532368 84.801032 
L 185.085263 79.045018 
L 173.638158 72.989177 
L 162.191053 67.15128 
L 150.743947 61.333581 
L 139.296842 55.467932 
L 127.849737 50.870442 
L 116.402632 46.249912 
L 104.955526 42.578561 
L 93.508421 39.280351 
L 82.061316 36.866492 
L 70.614211 35.301173 
L 59.167105 34.078045 
L 47.72 33.569235 
z
" clip-path="url(#p8118e4f227)" style="fill: #ff7f0e; fill-opacity: 0.4"/>
   </g>
   <g id="PolyCollection_3">
    <path d="M 47.72 33.5691 
L 47.72 33.569105 
L 59.167105 34.435243 
L 70.614211 36.314537 
L 82.061316 38.609018 
L 93.508421 41.389933 
L 104.955526 44.755437 
L 116.402632 48.36462 
L 127.849737 51.890025 
L 139.296842 55.211437 
L 150.743947 59.647837 
L 162.191053 63.390749 
L 173.638158 66.958093 
L 185.085263 70.46242 
L 196.532368 73.975533 
L 207.979474 77.385289 
L 219.426579 80.901949 
L 230.873684 84.293883 
L 242.320789 87.377131 
L 253.767895 90.625079 
L 265.215 93.915895 
L 265.215 84.380276 
L 265.215 84.380276 
L 253.767895 81.071763 
L 242.320789 77.684699 
L 230.873684 74.730466 
L 219.426579 71.099434 
L 207.979474 67.9368 
L 196.532368 64.392466 
L 185.085263 61.011769 
L 173.638158 57.673689 
L 162.191053 54.475451 
L 150.743947 51.306548 
L 139.296842 48.033905 
L 127.849737 45.299437 
L 116.402632 42.44326 
L 104.955526 40.168342 
L 93.508421 38.065746 
L 82.061316 36.383693 
L 70.614211 35.16119 
L 59.167105 34.150609 
L 47.72 33.5691 
z
" clip-path="url(#p8118e4f227)" style="fill: #2ca02c; fill-opacity: 0.4"/>
   </g>
   <g id="PolyCollection_4">
    <path d="M 47.72 33.56981 
L 47.72 33.57016 
L 59.167105 34.237038 
L 70.614211 35.648462 
L 82.061316 37.452417 
L 93.508421 39.725965 
L 104.955526 42.589247 
L 116.402632 45.888034 
L 127.849737 49.375422 
L 139.296842 52.690724 
L 150.743947 57.065174 
L 162.191053 60.890983 
L 173.638158 64.634883 
L 185.085263 68.170426 
L 196.532368 71.756008 
L 207.979474 75.235797 
L 219.426579 78.859017 
L 230.873684 82.379404 
L 242.320789 85.573684 
L 253.767895 88.948533 
L 265.215 92.354401 
L 265.215 82.93555 
L 265.215 82.93555 
L 253.767895 79.586082 
L 242.320789 76.105558 
L 230.873684 73.098386 
L 219.426579 69.400307 
L 207.979474 66.120835 
L 196.532368 62.503039 
L 185.085263 59.037397 
L 173.638158 55.548067 
L 162.191053 52.297554 
L 150.743947 49.104002 
L 139.296842 45.76855 
L 127.849737 43.285263 
L 116.402632 40.677671 
L 104.955526 38.740782 
L 93.508421 36.975876 
L 82.061316 35.667875 
L 70.614211 34.807093 
L 59.167105 34.046907 
L 47.72 33.56981 
z
" clip-path="url(#p8118e4f227)" style="fill: #d62728; fill-opacity: 0.4"/>
   </g>
   <g id="PolyCollection_5">
    <path d="M 47.72 33.569101 
L 47.72 33.569105 
L 59.167105 34.731568 
L 70.614211 38.260507 
L 82.061316 43.178726 
L 93.508421 48.822104 
L 104.955526 55.868227 
L 116.402632 63.554758 
L 127.849737 70.68002 
L 139.296842 77.614164 
L 150.743947 85.970616 
L 162.191053 92.905761 
L 173.638158 100.245777 
L 185.085263 106.909291 
L 196.532368 114.279546 
L 207.979474 119.161804 
L 219.426579 126.261723 
L 230.873684 131.320002 
L 242.320789 135.759631 
L 253.767895 141.443961 
L 265.215 145.36219 
L 265.215 134.177133 
L 265.215 134.177133 
L 253.767895 129.171124 
L 242.320789 123.903311 
L 230.873684 119.458598 
L 219.426579 113.026691 
L 207.979474 107.975879 
L 196.532368 101.441236 
L 185.085263 95.005229 
L 173.638158 88.858722 
L 162.191053 82.261802 
L 150.743947 75.85065 
L 139.296842 68.240348 
L 127.849737 62.060334 
L 116.402632 55.219798 
L 104.955526 49.432152 
L 93.508421 44.197135 
L 82.061316 39.712259 
L 70.614211 36.657644 
L 59.167105 34.333489 
L 47.72 33.569101 
z
" clip-path="url(#p8118e4f227)" style="fill: #9467bd; fill-opacity: 0.4"/>
   </g>
   <g id="PolyCollection_6">
    <path d="M 47.72 33.569678 
L 47.72 33.569901 
L 59.167105 34.285964 
L 70.614211 36.152168 
L 82.061316 38.955527 
L 93.508421 42.425254 
L 104.955526 47.035004 
L 116.402632 52.494472 
L 127.849737 58.1816 
L 139.296842 63.517547 
L 150.743947 70.220781 
L 162.191053 76.004191 
L 173.638158 82.206192 
L 185.085263 88.078567 
L 196.532368 94.709549 
L 207.979474 99.706349 
L 219.426579 106.401317 
L 230.873684 111.692487 
L 242.320789 115.845676 
L 253.767895 121.761656 
L 265.215 125.683875 
L 265.215 117.363445 
L 265.215 117.363445 
L 253.767895 112.11005 
L 242.320789 107.002714 
L 230.873684 102.112013 
L 219.426579 96.220843 
L 207.979474 90.922699 
L 196.532368 85.025108 
L 185.085263 79.157776 
L 173.638158 73.041318 
L 162.191053 67.155835 
L 150.743947 61.471069 
L 139.296842 55.509666 
L 127.849737 50.930564 
L 116.402632 46.262424 
L 104.955526 42.567355 
L 93.508421 39.316224 
L 82.061316 36.863846 
L 70.614211 35.306662 
L 59.167105 34.078687 
L 47.72 33.569678 
z
" clip-path="url(#p8118e4f227)" style="fill: #8c564b; fill-opacity: 0.4"/>
   </g>
   <g id="PolyCollection_7">
    <path d="M 47.72 45.717801 
L 47.72 51.478135 
L 59.167105 53.194848 
L 70.614211 58.092501 
L 82.061316 64.929714 
L 93.508421 72.790266 
L 104.955526 81.443483 
L 116.402632 90.302057 
L 127.849737 98.517535 
L 139.296842 105.710902 
L 150.743947 114.571812 
L 162.191053 121.567039 
L 173.638158 128.637392 
L 185.085263 135.3466 
L 196.532368 141.954722 
L 207.979474 147.060649 
L 219.426579 152.095203 
L 230.873684 156.333531 
L 242.320789 160.070878 
L 253.767895 163.442664 
L 265.215 167.350909 
L 265.215 149.740358 
L 265.215 149.740358 
L 253.767895 146.072832 
L 242.320789 141.266922 
L 230.873684 136.577182 
L 219.426579 131.363021 
L 207.979474 126.019052 
L 196.532368 119.98227 
L 185.085263 113.701445 
L 173.638158 107.157983 
L 162.191053 100.098985 
L 150.743947 92.979152 
L 139.296842 85.149219 
L 127.849737 77.973535 
L 116.402632 70.462013 
L 104.955526 63.914409 
L 93.508421 57.636979 
L 82.061316 52.785656 
L 70.614211 49.216473 
L 59.167105 46.672298 
L 47.72 45.717801 
z
" clip-path="url(#p8118e4f227)" style="fill: #e377c2; fill-opacity: 0.4"/>
   </g>
   <g id="PolyCollection_8">
    <path d="M 47.72 33.569343 
L 47.72 33.56964 
L 59.167105 33.861766 
L 70.614211 34.1996 
L 82.061316 35.191032 
L 93.508421 37.249368 
L 104.955526 40.344228 
L 116.402632 44.836565 
L 127.849737 49.592095 
L 139.296842 54.236068 
L 150.743947 60.256723 
L 162.191053 65.746842 
L 173.638158 71.965001 
L 185.085263 78.011396 
L 196.532368 84.409759 
L 207.979474 90.44456 
L 219.426579 96.99017 
L 230.873684 102.966925 
L 242.320789 108.162533 
L 253.767895 113.743372 
L 265.215 119.066658 
L 265.215 101.416492 
L 265.215 101.416492 
L 253.767895 96.331909 
L 242.320789 90.821752 
L 230.873684 85.498391 
L 219.426579 79.64946 
L 207.979474 73.988934 
L 196.532368 68.242091 
L 185.085263 62.816545 
L 173.638158 57.16129 
L 162.191053 52.08428 
L 150.743947 47.371574 
L 139.296842 43.061636 
L 127.849737 39.875571 
L 116.402632 37.186937 
L 104.955526 35.633785 
L 93.508421 34.565517 
L 82.061316 34.077526 
L 70.614211 33.924017 
L 59.167105 33.812436 
L 47.72 33.569343 
z
" clip-path="url(#p8118e4f227)" style="fill: #7f7f7f; fill-opacity: 0.4"/>
   </g>
   <g id="matplotlib.axis_1">
    <g id="xtick_1">
     <g id="line2d_1">
      <defs>
       <path id="ma06c05a40b" d="M 0 0 
L 0 3.5 
" style="stroke: #000000; stroke-width: 0.8"/>
      </defs>
      <g>
       <use xlink:href="#ma06c05a40b" x="47.72" y="174.04" style="stroke: #000000; stroke-width: 0.8"/>
      </g>
     </g>
     <g id="text_1">
      <!-- 0.0 -->
      <g transform="translate(39.768438 188.638438)scale(0.1 -0.1)">
       <defs>
        <path id="DejaVuSans-30" d="M 2034 4250 
Q 1547 4250 1301 3770 
Q 1056 3291 1056 2328 
Q 1056 1369 1301 889 
Q 1547 409 2034 409 
Q 2525 409 2770 889 
Q 3016 1369 3016 2328 
Q 3016 3291 2770 3770 
Q 2525 4250 2034 4250 
z
M 2034 4750 
Q 2819 4750 3233 4129 
Q 3647 3509 3647 2328 
Q 3647 1150 3233 529 
Q 2819 -91 2034 -91 
Q 1250 -91 836 529 
Q 422 1150 422 2328 
Q 422 3509 836 4129 
Q 1250 4750 2034 4750 
z
" transform="scale(0.015625)"/>
        <path id="DejaVuSans-2e" d="M 684 794 
L 1344 794 
L 1344 0 
L 684 0 
L 684 794 
z
" transform="scale(0.015625)"/>
       </defs>
       <use xlink:href="#DejaVuSans-30"/>
       <use xlink:href="#DejaVuSans-2e" x="63.623047"/>
       <use xlink:href="#DejaVuSans-30" x="95.410156"/>
      </g>
     </g>
    </g>
    <g id="xtick_2">
     <g id="line2d_2">
      <g>
       <use xlink:href="#ma06c05a40b" x="102.09375" y="174.04" style="stroke: #000000; stroke-width: 0.8"/>
      </g>
     </g>
     <g id="text_2">
      <!-- 0.5 -->
      <g transform="translate(94.142188 188.638438)scale(0.1 -0.1)">
       <defs>
        <path id="DejaVuSans-35" d="M 691 4666 
L 3169 4666 
L 3169 4134 
L 1269 4134 
L 1269 2991 
Q 1406 3038 1543 3061 
Q 1681 3084 1819 3084 
Q 2600 3084 3056 2656 
Q 3513 2228 3513 1497 
Q 3513 744 3044 326 
Q 2575 -91 1722 -91 
Q 1428 -91 1123 -41 
Q 819 9 494 109 
L 494 744 
Q 775 591 1075 516 
Q 1375 441 1709 441 
Q 2250 441 2565 725 
Q 2881 1009 2881 1497 
Q 2881 1984 2565 2268 
Q 2250 2553 1709 2553 
Q 1456 2553 1204 2497 
Q 953 2441 691 2322 
L 691 4666 
z
" transform="scale(0.015625)"/>
       </defs>
       <use xlink:href="#DejaVuSans-30"/>
       <use xlink:href="#DejaVuSans-2e" x="63.623047"/>
       <use xlink:href="#DejaVuSans-35" x="95.410156"/>
      </g>
     </g>
    </g>
    <g id="xtick_3">
     <g id="line2d_3">
      <g>
       <use xlink:href="#ma06c05a40b" x="156.4675" y="174.04" style="stroke: #000000; stroke-width: 0.8"/>
      </g>
     </g>
     <g id="text_3">
      <!-- 1.0 -->
      <g transform="translate(148.515938 188.638438)scale(0.1 -0.1)">
       <defs>
        <path id="DejaVuSans-31" d="M 794 531 
L 1825 531 
L 1825 4091 
L 703 3866 
L 703 4441 
L 1819 4666 
L 2450 4666 
L 2450 531 
L 3481 531 
L 3481 0 
L 794 0 
L 794 531 
z
" transform="scale(0.015625)"/>
       </defs>
       <use xlink:href="#DejaVuSans-31"/>
       <use xlink:href="#DejaVuSans-2e" x="63.623047"/>
       <use xlink:href="#DejaVuSans-30" x="95.410156"/>
      </g>
     </g>
    </g>
    <g id="xtick_4">
     <g id="line2d_4">
      <g>
       <use xlink:href="#ma06c05a40b" x="210.84125" y="174.04" style="stroke: #000000; stroke-width: 0.8"/>
      </g>
     </g>
     <g id="text_4">
      <!-- 1.5 -->
      <g transform="translate(202.889687 188.638438)scale(0.1 -0.1)">
       <use xlink:href="#DejaVuSans-31"/>
       <use xlink:href="#DejaVuSans-2e" x="63.623047"/>
       <use xlink:href="#DejaVuSans-35" x="95.410156"/>
      </g>
     </g>
    </g>
    <g id="xtick_5">
     <g id="line2d_5">
      <g>
       <use xlink:href="#ma06c05a40b" x="265.215" y="174.04" style="stroke: #000000; stroke-width: 0.8"/>
      </g>
     </g>
     <g id="text_5">
      <!-- 2.0 -->
      <g transform="translate(257.263437 188.638438)scale(0.1 -0.1)">
       <defs>
        <path id="DejaVuSans-32" d="M 1228 531 
L 3431 531 
L 3431 0 
L 469 0 
L 469 531 
Q 828 903 1448 1529 
Q 2069 2156 2228 2338 
Q 2531 2678 2651 2914 
Q 2772 3150 2772 3378 
Q 2772 3750 2511 3984 
Q 2250 4219 1831 4219 
Q 1534 4219 1204 4116 
Q 875 4013 500 3803 
L 500 4441 
Q 881 4594 1212 4672 
Q 1544 4750 1819 4750 
Q 2544 4750 2975 4387 
Q 3406 4025 3406 3419 
Q 3406 3131 3298 2873 
Q 3191 2616 2906 2266 
Q 2828 2175 2409 1742 
Q 1991 1309 1228 531 
z
" transform="scale(0.015625)"/>
       </defs>
       <use xlink:href="#DejaVuSans-32"/>
       <use xlink:href="#DejaVuSans-2e" x="63.623047"/>
       <use xlink:href="#DejaVuSans-30" x="95.410156"/>
      </g>
     </g>
    </g>
    <g id="text_6">
     <!-- Influence of surprisal (multiplication) -->
     <g transform="translate(64.320625 202.316563)scale(0.1 -0.1)">
      <defs>
       <path id="DejaVuSans-49" d="M 628 4666 
L 1259 4666 
L 1259 0 
L 628 0 
L 628 4666 
z
" transform="scale(0.015625)"/>
       <path id="DejaVuSans-6e" d="M 3513 2113 
L 3513 0 
L 2938 0 
L 2938 2094 
Q 2938 2591 2744 2837 
Q 2550 3084 2163 3084 
Q 1697 3084 1428 2787 
Q 1159 2491 1159 1978 
L 1159 0 
L 581 0 
L 581 3500 
L 1159 3500 
L 1159 2956 
Q 1366 3272 1645 3428 
Q 1925 3584 2291 3584 
Q 2894 3584 3203 3211 
Q 3513 2838 3513 2113 
z
" transform="scale(0.015625)"/>
       <path id="DejaVuSans-66" d="M 2375 4863 
L 2375 4384 
L 1825 4384 
Q 1516 4384 1395 4259 
Q 1275 4134 1275 3809 
L 1275 3500 
L 2222 3500 
L 2222 3053 
L 1275 3053 
L 1275 0 
L 697 0 
L 697 3053 
L 147 3053 
L 147 3500 
L 697 3500 
L 697 3744 
Q 697 4328 969 4595 
Q 1241 4863 1831 4863 
L 2375 4863 
z
" transform="scale(0.015625)"/>
       <path id="DejaVuSans-6c" d="M 603 4863 
L 1178 4863 
L 1178 0 
L 603 0 
L 603 4863 
z
" transform="scale(0.015625)"/>
       <path id="DejaVuSans-75" d="M 544 1381 
L 544 3500 
L 1119 3500 
L 1119 1403 
Q 1119 906 1312 657 
Q 1506 409 1894 409 
Q 2359 409 2629 706 
Q 2900 1003 2900 1516 
L 2900 3500 
L 3475 3500 
L 3475 0 
L 2900 0 
L 2900 538 
Q 2691 219 2414 64 
Q 2138 -91 1772 -91 
Q 1169 -91 856 284 
Q 544 659 544 1381 
z
M 1991 3584 
L 1991 3584 
z
" transform="scale(0.015625)"/>
       <path id="DejaVuSans-65" d="M 3597 1894 
L 3597 1613 
L 953 1613 
Q 991 1019 1311 708 
Q 1631 397 2203 397 
Q 2534 397 2845 478 
Q 3156 559 3463 722 
L 3463 178 
Q 3153 47 2828 -22 
Q 2503 -91 2169 -91 
Q 1331 -91 842 396 
Q 353 884 353 1716 
Q 353 2575 817 3079 
Q 1281 3584 2069 3584 
Q 2775 3584 3186 3129 
Q 3597 2675 3597 1894 
z
M 3022 2063 
Q 3016 2534 2758 2815 
Q 2500 3097 2075 3097 
Q 1594 3097 1305 2825 
Q 1016 2553 972 2059 
L 3022 2063 
z
" transform="scale(0.015625)"/>
       <path id="DejaVuSans-63" d="M 3122 3366 
L 3122 2828 
Q 2878 2963 2633 3030 
Q 2388 3097 2138 3097 
Q 1578 3097 1268 2742 
Q 959 2388 959 1747 
Q 959 1106 1268 751 
Q 1578 397 2138 397 
Q 2388 397 2633 464 
Q 2878 531 3122 666 
L 3122 134 
Q 2881 22 2623 -34 
Q 2366 -91 2075 -91 
Q 1284 -91 818 406 
Q 353 903 353 1747 
Q 353 2603 823 3093 
Q 1294 3584 2113 3584 
Q 2378 3584 2631 3529 
Q 2884 3475 3122 3366 
z
" transform="scale(0.015625)"/>
       <path id="DejaVuSans-20" transform="scale(0.015625)"/>
       <path id="DejaVuSans-6f" d="M 1959 3097 
Q 1497 3097 1228 2736 
Q 959 2375 959 1747 
Q 959 1119 1226 758 
Q 1494 397 1959 397 
Q 2419 397 2687 759 
Q 2956 1122 2956 1747 
Q 2956 2369 2687 2733 
Q 2419 3097 1959 3097 
z
M 1959 3584 
Q 2709 3584 3137 3096 
Q 3566 2609 3566 1747 
Q 3566 888 3137 398 
Q 2709 -91 1959 -91 
Q 1206 -91 779 398 
Q 353 888 353 1747 
Q 353 2609 779 3096 
Q 1206 3584 1959 3584 
z
" transform="scale(0.015625)"/>
       <path id="DejaVuSans-73" d="M 2834 3397 
L 2834 2853 
Q 2591 2978 2328 3040 
Q 2066 3103 1784 3103 
Q 1356 3103 1142 2972 
Q 928 2841 928 2578 
Q 928 2378 1081 2264 
Q 1234 2150 1697 2047 
L 1894 2003 
Q 2506 1872 2764 1633 
Q 3022 1394 3022 966 
Q 3022 478 2636 193 
Q 2250 -91 1575 -91 
Q 1294 -91 989 -36 
Q 684 19 347 128 
L 347 722 
Q 666 556 975 473 
Q 1284 391 1588 391 
Q 1994 391 2212 530 
Q 2431 669 2431 922 
Q 2431 1156 2273 1281 
Q 2116 1406 1581 1522 
L 1381 1569 
Q 847 1681 609 1914 
Q 372 2147 372 2553 
Q 372 3047 722 3315 
Q 1072 3584 1716 3584 
Q 2034 3584 2315 3537 
Q 2597 3491 2834 3397 
z
" transform="scale(0.015625)"/>
       <path id="DejaVuSans-72" d="M 2631 2963 
Q 2534 3019 2420 3045 
Q 2306 3072 2169 3072 
Q 1681 3072 1420 2755 
Q 1159 2438 1159 1844 
L 1159 0 
L 581 0 
L 581 3500 
L 1159 3500 
L 1159 2956 
Q 1341 3275 1631 3429 
Q 1922 3584 2338 3584 
Q 2397 3584 2469 3576 
Q 2541 3569 2628 3553 
L 2631 2963 
z
" transform="scale(0.015625)"/>
       <path id="DejaVuSans-70" d="M 1159 525 
L 1159 -1331 
L 581 -1331 
L 581 3500 
L 1159 3500 
L 1159 2969 
Q 1341 3281 1617 3432 
Q 1894 3584 2278 3584 
Q 2916 3584 3314 3078 
Q 3713 2572 3713 1747 
Q 3713 922 3314 415 
Q 2916 -91 2278 -91 
Q 1894 -91 1617 61 
Q 1341 213 1159 525 
z
M 3116 1747 
Q 3116 2381 2855 2742 
Q 2594 3103 2138 3103 
Q 1681 3103 1420 2742 
Q 1159 2381 1159 1747 
Q 1159 1113 1420 752 
Q 1681 391 2138 391 
Q 2594 391 2855 752 
Q 3116 1113 3116 1747 
z
" transform="scale(0.015625)"/>
       <path id="DejaVuSans-69" d="M 603 3500 
L 1178 3500 
L 1178 0 
L 603 0 
L 603 3500 
z
M 603 4863 
L 1178 4863 
L 1178 4134 
L 603 4134 
L 603 4863 
z
" transform="scale(0.015625)"/>
       <path id="DejaVuSans-61" d="M 2194 1759 
Q 1497 1759 1228 1600 
Q 959 1441 959 1056 
Q 959 750 1161 570 
Q 1363 391 1709 391 
Q 2188 391 2477 730 
Q 2766 1069 2766 1631 
L 2766 1759 
L 2194 1759 
z
M 3341 1997 
L 3341 0 
L 2766 0 
L 2766 531 
Q 2569 213 2275 61 
Q 1981 -91 1556 -91 
Q 1019 -91 701 211 
Q 384 513 384 1019 
Q 384 1609 779 1909 
Q 1175 2209 1959 2209 
L 2766 2209 
L 2766 2266 
Q 2766 2663 2505 2880 
Q 2244 3097 1772 3097 
Q 1472 3097 1187 3025 
Q 903 2953 641 2809 
L 641 3341 
Q 956 3463 1253 3523 
Q 1550 3584 1831 3584 
Q 2591 3584 2966 3190 
Q 3341 2797 3341 1997 
z
" transform="scale(0.015625)"/>
       <path id="DejaVuSans-28" d="M 1984 4856 
Q 1566 4138 1362 3434 
Q 1159 2731 1159 2009 
Q 1159 1288 1364 580 
Q 1569 -128 1984 -844 
L 1484 -844 
Q 1016 -109 783 600 
Q 550 1309 550 2009 
Q 550 2706 781 3412 
Q 1013 4119 1484 4856 
L 1984 4856 
z
" transform="scale(0.015625)"/>
       <path id="DejaVuSans-6d" d="M 3328 2828 
Q 3544 3216 3844 3400 
Q 4144 3584 4550 3584 
Q 5097 3584 5394 3201 
Q 5691 2819 5691 2113 
L 5691 0 
L 5113 0 
L 5113 2094 
Q 5113 2597 4934 2840 
Q 4756 3084 4391 3084 
Q 3944 3084 3684 2787 
Q 3425 2491 3425 1978 
L 3425 0 
L 2847 0 
L 2847 2094 
Q 2847 2600 2669 2842 
Q 2491 3084 2119 3084 
Q 1678 3084 1418 2786 
Q 1159 2488 1159 1978 
L 1159 0 
L 581 0 
L 581 3500 
L 1159 3500 
L 1159 2956 
Q 1356 3278 1631 3431 
Q 1906 3584 2284 3584 
Q 2666 3584 2933 3390 
Q 3200 3197 3328 2828 
z
" transform="scale(0.015625)"/>
       <path id="DejaVuSans-74" d="M 1172 4494 
L 1172 3500 
L 2356 3500 
L 2356 3053 
L 1172 3053 
L 1172 1153 
Q 1172 725 1289 603 
Q 1406 481 1766 481 
L 2356 481 
L 2356 0 
L 1766 0 
Q 1100 0 847 248 
Q 594 497 594 1153 
L 594 3053 
L 172 3053 
L 172 3500 
L 594 3500 
L 594 4494 
L 1172 4494 
z
" transform="scale(0.015625)"/>
       <path id="DejaVuSans-29" d="M 513 4856 
L 1013 4856 
Q 1481 4119 1714 3412 
Q 1947 2706 1947 2009 
Q 1947 1309 1714 600 
Q 1481 -109 1013 -844 
L 513 -844 
Q 928 -128 1133 580 
Q 1338 1288 1338 2009 
Q 1338 2731 1133 3434 
Q 928 4138 513 4856 
z
" transform="scale(0.015625)"/>
      </defs>
      <use xlink:href="#DejaVuSans-49"/>
      <use xlink:href="#DejaVuSans-6e" x="29.492188"/>
      <use xlink:href="#DejaVuSans-66" x="92.871094"/>
      <use xlink:href="#DejaVuSans-6c" x="128.076172"/>
      <use xlink:href="#DejaVuSans-75" x="155.859375"/>
      <use xlink:href="#DejaVuSans-65" x="219.238281"/>
      <use xlink:href="#DejaVuSans-6e" x="280.761719"/>
      <use xlink:href="#DejaVuSans-63" x="344.140625"/>
      <use xlink:href="#DejaVuSans-65" x="399.121094"/>
      <use xlink:href="#DejaVuSans-20" x="460.644531"/>
      <use xlink:href="#DejaVuSans-6f" x="492.431641"/>
      <use xlink:href="#DejaVuSans-66" x="553.613281"/>
      <use xlink:href="#DejaVuSans-20" x="588.818359"/>
      <use xlink:href="#DejaVuSans-73" x="620.605469"/>
      <use xlink:href="#DejaVuSans-75" x="672.705078"/>
      <use xlink:href="#DejaVuSans-72" x="736.083984"/>
      <use xlink:href="#DejaVuSans-70" x="777.197266"/>
      <use xlink:href="#DejaVuSans-72" x="840.673828"/>
      <use xlink:href="#DejaVuSans-69" x="881.787109"/>
      <use xlink:href="#DejaVuSans-73" x="909.570312"/>
      <use xlink:href="#DejaVuSans-61" x="961.669922"/>
      <use xlink:href="#DejaVuSans-6c" x="1022.949219"/>
      <use xlink:href="#DejaVuSans-20" x="1050.732422"/>
      <use xlink:href="#DejaVuSans-28" x="1082.519531"/>
      <use xlink:href="#DejaVuSans-6d" x="1121.533203"/>
      <use xlink:href="#DejaVuSans-75" x="1218.945312"/>
      <use xlink:href="#DejaVuSans-6c" x="1282.324219"/>
      <use xlink:href="#DejaVuSans-74" x="1310.107422"/>
      <use xlink:href="#DejaVuSans-69" x="1349.316406"/>
      <use xlink:href="#DejaVuSans-70" x="1377.099609"/>
      <use xlink:href="#DejaVuSans-6c" x="1440.576172"/>
      <use xlink:href="#DejaVuSans-69" x="1468.359375"/>
      <use xlink:href="#DejaVuSans-63" x="1496.142578"/>
      <use xlink:href="#DejaVuSans-61" x="1551.123047"/>
      <use xlink:href="#DejaVuSans-74" x="1612.402344"/>
      <use xlink:href="#DejaVuSans-69" x="1651.611328"/>
      <use xlink:href="#DejaVuSans-6f" x="1679.394531"/>
      <use xlink:href="#DejaVuSans-6e" x="1740.576172"/>
      <use xlink:href="#DejaVuSans-29" x="1803.955078"/>
     </g>
    </g>
   </g>
   <g id="matplotlib.axis_2">
    <g id="ytick_1">
     <g id="line2d_6">
      <defs>
       <path id="md218ed97a1" d="M 0 0 
L -3.5 0 
" style="stroke: #000000; stroke-width: 0.8"/>
      </defs>
      <g>
       <use xlink:href="#md218ed97a1" x="47.72" y="143.238322" style="stroke: #000000; stroke-width: 0.8"/>
      </g>
     </g>
     <g id="text_7">
      <!-- 0.4 -->
      <g transform="translate(24.816875 147.037541)scale(0.1 -0.1)">
       <defs>
        <path id="DejaVuSans-34" d="M 2419 4116 
L 825 1625 
L 2419 1625 
L 2419 4116 
z
M 2253 4666 
L 3047 4666 
L 3047 1625 
L 3713 1625 
L 3713 1100 
L 3047 1100 
L 3047 0 
L 2419 0 
L 2419 1100 
L 313 1100 
L 313 1709 
L 2253 4666 
z
" transform="scale(0.015625)"/>
       </defs>
       <use xlink:href="#DejaVuSans-30"/>
       <use xlink:href="#DejaVuSans-2e" x="63.623047"/>
       <use xlink:href="#DejaVuSans-34" x="95.410156"/>
      </g>
     </g>
    </g>
    <g id="ytick_2">
     <g id="line2d_7">
      <g>
       <use xlink:href="#md218ed97a1" x="47.72" y="106.68191" style="stroke: #000000; stroke-width: 0.8"/>
      </g>
     </g>
     <g id="text_8">
      <!-- 0.6 -->
      <g transform="translate(24.816875 110.481129)scale(0.1 -0.1)">
       <defs>
        <path id="DejaVuSans-36" d="M 2113 2584 
Q 1688 2584 1439 2293 
Q 1191 2003 1191 1497 
Q 1191 994 1439 701 
Q 1688 409 2113 409 
Q 2538 409 2786 701 
Q 3034 994 3034 1497 
Q 3034 2003 2786 2293 
Q 2538 2584 2113 2584 
z
M 3366 4563 
L 3366 3988 
Q 3128 4100 2886 4159 
Q 2644 4219 2406 4219 
Q 1781 4219 1451 3797 
Q 1122 3375 1075 2522 
Q 1259 2794 1537 2939 
Q 1816 3084 2150 3084 
Q 2853 3084 3261 2657 
Q 3669 2231 3669 1497 
Q 3669 778 3244 343 
Q 2819 -91 2113 -91 
Q 1303 -91 875 529 
Q 447 1150 447 2328 
Q 447 3434 972 4092 
Q 1497 4750 2381 4750 
Q 2619 4750 2861 4703 
Q 3103 4656 3366 4563 
z
" transform="scale(0.015625)"/>
       </defs>
       <use xlink:href="#DejaVuSans-30"/>
       <use xlink:href="#DejaVuSans-2e" x="63.623047"/>
       <use xlink:href="#DejaVuSans-36" x="95.410156"/>
      </g>
     </g>
    </g>
    <g id="ytick_3">
     <g id="line2d_8">
      <g>
       <use xlink:href="#md218ed97a1" x="47.72" y="70.125499" style="stroke: #000000; stroke-width: 0.8"/>
      </g>
     </g>
     <g id="text_9">
      <!-- 0.8 -->
      <g transform="translate(24.816875 73.924718)scale(0.1 -0.1)">
       <defs>
        <path id="DejaVuSans-38" d="M 2034 2216 
Q 1584 2216 1326 1975 
Q 1069 1734 1069 1313 
Q 1069 891 1326 650 
Q 1584 409 2034 409 
Q 2484 409 2743 651 
Q 3003 894 3003 1313 
Q 3003 1734 2745 1975 
Q 2488 2216 2034 2216 
z
M 1403 2484 
Q 997 2584 770 2862 
Q 544 3141 544 3541 
Q 544 4100 942 4425 
Q 1341 4750 2034 4750 
Q 2731 4750 3128 4425 
Q 3525 4100 3525 3541 
Q 3525 3141 3298 2862 
Q 3072 2584 2669 2484 
Q 3125 2378 3379 2068 
Q 3634 1759 3634 1313 
Q 3634 634 3220 271 
Q 2806 -91 2034 -91 
Q 1263 -91 848 271 
Q 434 634 434 1313 
Q 434 1759 690 2068 
Q 947 2378 1403 2484 
z
M 1172 3481 
Q 1172 3119 1398 2916 
Q 1625 2713 2034 2713 
Q 2441 2713 2670 2916 
Q 2900 3119 2900 3481 
Q 2900 3844 2670 4047 
Q 2441 4250 2034 4250 
Q 1625 4250 1398 4047 
Q 1172 3844 1172 3481 
z
" transform="scale(0.015625)"/>
       </defs>
       <use xlink:href="#DejaVuSans-30"/>
       <use xlink:href="#DejaVuSans-2e" x="63.623047"/>
       <use xlink:href="#DejaVuSans-38" x="95.410156"/>
      </g>
     </g>
    </g>
    <g id="ytick_4">
     <g id="line2d_9">
      <g>
       <use xlink:href="#md218ed97a1" x="47.72" y="33.569088" style="stroke: #000000; stroke-width: 0.8"/>
      </g>
     </g>
     <g id="text_10">
      <!-- 1.0 -->
      <g transform="translate(24.816875 37.368306)scale(0.1 -0.1)">
       <use xlink:href="#DejaVuSans-31"/>
       <use xlink:href="#DejaVuSans-2e" x="63.623047"/>
       <use xlink:href="#DejaVuSans-30" x="95.410156"/>
      </g>
     </g>
    </g>
    <g id="text_11">
     <!-- R-value -->
     <g transform="translate(18.737188 119.064687)rotate(-90)scale(0.1 -0.1)">
      <defs>
       <path id="DejaVuSans-52" d="M 2841 2188 
Q 3044 2119 3236 1894 
Q 3428 1669 3622 1275 
L 4263 0 
L 3584 0 
L 2988 1197 
Q 2756 1666 2539 1819 
Q 2322 1972 1947 1972 
L 1259 1972 
L 1259 0 
L 628 0 
L 628 4666 
L 2053 4666 
Q 2853 4666 3247 4331 
Q 3641 3997 3641 3322 
Q 3641 2881 3436 2590 
Q 3231 2300 2841 2188 
z
M 1259 4147 
L 1259 2491 
L 2053 2491 
Q 2509 2491 2742 2702 
Q 2975 2913 2975 3322 
Q 2975 3731 2742 3939 
Q 2509 4147 2053 4147 
L 1259 4147 
z
" transform="scale(0.015625)"/>
       <path id="DejaVuSans-2d" d="M 313 2009 
L 1997 2009 
L 1997 1497 
L 313 1497 
L 313 2009 
z
" transform="scale(0.015625)"/>
       <path id="DejaVuSans-76" d="M 191 3500 
L 800 3500 
L 1894 563 
L 2988 3500 
L 3597 3500 
L 2284 0 
L 1503 0 
L 191 3500 
z
" transform="scale(0.015625)"/>
      </defs>
      <use xlink:href="#DejaVuSans-52"/>
      <use xlink:href="#DejaVuSans-2d" x="65.482422"/>
      <use xlink:href="#DejaVuSans-76" x="98.941406"/>
      <use xlink:href="#DejaVuSans-61" x="158.121094"/>
      <use xlink:href="#DejaVuSans-6c" x="219.400391"/>
      <use xlink:href="#DejaVuSans-75" x="247.183594"/>
      <use xlink:href="#DejaVuSans-65" x="310.5625"/>
     </g>
    </g>
   </g>
   <g id="line2d_10">
    <path d="M 47.72 33.569091 
L 59.167105 34.529507 
L 70.614211 37.460102 
L 82.061316 41.469778 
L 93.508421 46.450002 
L 104.955526 52.694073 
L 116.402632 59.250441 
L 127.849737 66.272547 
L 139.296842 72.82589 
L 150.743947 80.717148 
L 162.191053 87.4585 
L 173.638158 94.388524 
L 185.085263 100.863192 
L 196.532368 107.466 
L 207.979474 113.319459 
L 219.426579 119.124602 
L 230.873684 124.797522 
L 242.320789 129.685557 
L 253.767895 134.705696 
L 265.215 139.362822 
" clip-path="url(#p8118e4f227)" style="fill: none; stroke: #1f77b4; stroke-width: 1.5; stroke-linecap: square"/>
   </g>
   <g id="line2d_11">
    <path d="M 47.72 33.569263 
L 59.167105 34.178784 
L 70.614211 35.730869 
L 82.061316 37.910092 
L 93.508421 40.857114 
L 104.955526 44.817899 
L 116.402632 49.302031 
L 127.849737 54.504833 
L 139.296842 59.473417 
L 150.743947 65.747269 
L 162.191053 71.505908 
L 173.638158 77.551728 
L 185.085263 83.456014 
L 196.532368 89.589375 
L 207.979474 95.164186 
L 219.426579 100.837648 
L 230.873684 106.504601 
L 242.320789 111.318146 
L 253.767895 116.411485 
L 265.215 121.26557 
" clip-path="url(#p8118e4f227)" style="fill: none; stroke: #ff7f0e; stroke-width: 1.5; stroke-linecap: square"/>
   </g>
   <g id="line2d_12">
    <path d="M 47.72 33.569103 
L 59.167105 34.292926 
L 70.614211 35.737863 
L 82.061316 37.496356 
L 93.508421 39.72784 
L 104.955526 42.461889 
L 116.402632 45.40394 
L 127.849737 48.594731 
L 139.296842 51.622671 
L 150.743947 55.477192 
L 162.191053 58.9331 
L 173.638158 62.315891 
L 185.085263 65.737095 
L 196.532368 69.184 
L 207.979474 72.661044 
L 219.426579 76.000692 
L 230.873684 79.512175 
L 242.320789 82.530915 
L 253.767895 85.848421 
L 265.215 89.148086 
" clip-path="url(#p8118e4f227)" style="fill: none; stroke: #2ca02c; stroke-width: 1.5; stroke-linecap: square"/>
   </g>
   <g id="line2d_13">
    <path d="M 47.72 33.569985 
L 59.167105 34.141972 
L 70.614211 35.227777 
L 82.061316 36.560146 
L 93.508421 38.350921 
L 104.955526 40.665014 
L 116.402632 43.282853 
L 127.849737 46.330342 
L 139.296842 49.229637 
L 150.743947 53.084588 
L 162.191053 56.594269 
L 173.638158 60.091475 
L 185.085263 63.603912 
L 196.532368 67.129524 
L 207.979474 70.678316 
L 219.426579 74.129662 
L 230.873684 77.738895 
L 242.320789 80.839621 
L 253.767895 84.267307 
L 265.215 87.644975 
" clip-path="url(#p8118e4f227)" style="fill: none; stroke: #d62728; stroke-width: 1.5; stroke-linecap: square"/>
   </g>
   <g id="line2d_14">
    <path d="M 47.72 33.569103 
L 59.167105 34.532529 
L 70.614211 37.459076 
L 82.061316 41.445493 
L 93.508421 46.50962 
L 104.955526 52.650189 
L 116.402632 59.387278 
L 127.849737 66.370177 
L 139.296842 72.927256 
L 150.743947 80.910633 
L 162.191053 87.583781 
L 173.638158 94.552249 
L 185.085263 100.95726 
L 196.532368 107.860391 
L 207.979474 113.568841 
L 219.426579 119.644207 
L 230.873684 125.3893 
L 242.320789 129.831471 
L 253.767895 135.307543 
L 265.215 139.769661 
" clip-path="url(#p8118e4f227)" style="fill: none; stroke: #9467bd; stroke-width: 1.5; stroke-linecap: square"/>
   </g>
   <g id="line2d_15">
    <path d="M 47.72 33.56979 
L 59.167105 34.182326 
L 70.614211 35.729415 
L 82.061316 37.909686 
L 93.508421 40.870739 
L 104.955526 44.80118 
L 116.402632 49.378448 
L 127.849737 54.556082 
L 139.296842 59.513607 
L 150.743947 65.845925 
L 162.191053 71.580013 
L 173.638158 77.623755 
L 185.085263 83.618171 
L 196.532368 89.867328 
L 207.979474 95.314524 
L 219.426579 101.31108 
L 230.873684 106.90225 
L 242.320789 111.424195 
L 253.767895 116.935853 
L 265.215 121.52366 
" clip-path="url(#p8118e4f227)" style="fill: none; stroke: #8c564b; stroke-width: 1.5; stroke-linecap: square"/>
   </g>
   <g id="line2d_16">
    <path d="M 47.72 48.597968 
L 59.167105 49.933573 
L 70.614211 53.654487 
L 82.061316 58.857685 
L 93.508421 65.213622 
L 104.955526 72.678946 
L 116.402632 80.382035 
L 127.849737 88.245535 
L 139.296842 95.43006 
L 150.743947 103.775482 
L 162.191053 110.833012 
L 173.638158 117.897687 
L 185.085263 124.524022 
L 196.532368 130.968496 
L 207.979474 136.53985 
L 219.426579 141.729112 
L 230.873684 146.455356 
L 242.320789 150.6689 
L 253.767895 154.757748 
L 265.215 158.545634 
" clip-path="url(#p8118e4f227)" style="fill: none; stroke: #e377c2; stroke-width: 1.5; stroke-linecap: square"/>
   </g>
   <g id="line2d_17">
    <path d="M 47.72 33.569491 
L 59.167105 33.837101 
L 70.614211 34.061808 
L 82.061316 34.634279 
L 93.508421 35.907442 
L 104.955526 37.989006 
L 116.402632 41.011751 
L 127.849737 44.733833 
L 139.296842 48.648852 
L 150.743947 53.814148 
L 162.191053 58.915561 
L 173.638158 64.563146 
L 185.085263 70.413971 
L 196.532368 76.325925 
L 207.979474 82.216747 
L 219.426579 88.319815 
L 230.873684 94.232658 
L 242.320789 99.492142 
L 253.767895 105.037641 
L 265.215 110.241575 
" clip-path="url(#p8118e4f227)" style="fill: none; stroke: #7f7f7f; stroke-width: 1.5; stroke-linecap: square"/>
   </g>
   <g id="patch_3">
    <path d="M 47.72 174.04 
L 47.72 26.88 
" style="fill: none; stroke: #000000; stroke-width: 0.8; stroke-linejoin: miter; stroke-linecap: square"/>
   </g>
   <g id="patch_4">
    <path d="M 47.72 174.04 
L 265.215 174.04 
" style="fill: none; stroke: #000000; stroke-width: 0.8; stroke-linejoin: miter; stroke-linecap: square"/>
   </g>
   <g id="text_12">
    <!-- Node * surprisal -->
    <g transform="translate(108.18625 20.88)scale(0.12 -0.12)">
     <defs>
      <path id="DejaVuSans-4e" d="M 628 4666 
L 1478 4666 
L 3547 763 
L 3547 4666 
L 4159 4666 
L 4159 0 
L 3309 0 
L 1241 3903 
L 1241 0 
L 628 0 
L 628 4666 
z
" transform="scale(0.015625)"/>
      <path id="DejaVuSans-64" d="M 2906 2969 
L 2906 4863 
L 3481 4863 
L 3481 0 
L 2906 0 
L 2906 525 
Q 2725 213 2448 61 
Q 2172 -91 1784 -91 
Q 1150 -91 751 415 
Q 353 922 353 1747 
Q 353 2572 751 3078 
Q 1150 3584 1784 3584 
Q 2172 3584 2448 3432 
Q 2725 3281 2906 2969 
z
M 947 1747 
Q 947 1113 1208 752 
Q 1469 391 1925 391 
Q 2381 391 2643 752 
Q 2906 1113 2906 1747 
Q 2906 2381 2643 2742 
Q 2381 3103 1925 3103 
Q 1469 3103 1208 2742 
Q 947 2381 947 1747 
z
" transform="scale(0.015625)"/>
      <path id="DejaVuSans-2a" d="M 3009 3897 
L 1888 3291 
L 3009 2681 
L 2828 2375 
L 1778 3009 
L 1778 1831 
L 1422 1831 
L 1422 3009 
L 372 2375 
L 191 2681 
L 1313 3291 
L 191 3897 
L 372 4206 
L 1422 3572 
L 1422 4750 
L 1778 4750 
L 1778 3572 
L 2828 4206 
L 3009 3897 
z
" transform="scale(0.015625)"/>
     </defs>
     <use xlink:href="#DejaVuSans-4e"/>
     <use xlink:href="#DejaVuSans-6f" x="74.804688"/>
     <use xlink:href="#DejaVuSans-64" x="135.986328"/>
     <use xlink:href="#DejaVuSans-65" x="199.462891"/>
     <use xlink:href="#DejaVuSans-20" x="260.986328"/>
     <use xlink:href="#DejaVuSans-2a" x="292.773438"/>
     <use xlink:href="#DejaVuSans-20" x="342.773438"/>
     <use xlink:href="#DejaVuSans-73" x="374.560547"/>
     <use xlink:href="#DejaVuSans-75" x="426.660156"/>
     <use xlink:href="#DejaVuSans-72" x="490.039062"/>
     <use xlink:href="#DejaVuSans-70" x="531.152344"/>
     <use xlink:href="#DejaVuSans-72" x="594.628906"/>
     <use xlink:href="#DejaVuSans-69" x="635.742188"/>
     <use xlink:href="#DejaVuSans-73" x="663.525391"/>
     <use xlink:href="#DejaVuSans-61" x="715.625"/>
     <use xlink:href="#DejaVuSans-6c" x="776.904297"/>
    </g>
   </g>
  </g>
  <g id="axes_2">
   <g id="patch_5">
    <path d="M 298.065 174.04 
L 515.56 174.04 
L 515.56 26.88 
L 298.065 26.88 
z
" style="fill: #ffffff"/>
   </g>
   <g id="PolyCollection_9">
    <path d="M 298.065 33.569091 
L 298.065 33.569092 
L 309.512105 34.640405 
L 320.959211 37.640649 
L 332.406316 42.018214 
L 343.853421 47.676103 
L 355.300526 54.764969 
L 366.747632 61.767923 
L 378.194737 69.534241 
L 389.641842 77.694566 
L 401.088947 85.114909 
L 412.536053 92.805859 
L 423.983158 100.284366 
L 435.430263 107.898875 
L 446.877368 114.919877 
L 458.324474 120.994678 
L 469.771579 127.610125 
L 481.218684 133.261413 
L 492.665789 138.183889 
L 504.112895 143.321885 
L 515.56 147.819222 
L 515.56 133.225916 
L 515.56 133.225916 
L 504.112895 128.528677 
L 492.665789 123.44666 
L 481.218684 118.458411 
L 469.771579 112.704774 
L 458.324474 106.793782 
L 446.877368 100.697079 
L 435.430263 95.105155 
L 423.983158 88.605948 
L 412.536053 81.889758 
L 401.088947 74.699276 
L 389.641842 68.014249 
L 378.194737 61.904767 
L 366.747632 54.882649 
L 355.300526 49.222746 
L 343.853421 44.046763 
L 332.406316 39.69379 
L 320.959211 36.599836 
L 309.512105 34.288767 
L 298.065 33.569091 
z
" clip-path="url(#pfa7528afc1)" style="fill: #1f77b4; fill-opacity: 0.4"/>
   </g>
   <g id="PolyCollection_10">
    <path d="M 298.065 33.569235 
L 298.065 33.569291 
L 309.512105 34.638691 
L 320.959211 37.634544 
L 332.406316 42.014354 
L 343.853421 47.650756 
L 355.300526 54.740448 
L 366.747632 61.724646 
L 378.194737 69.486513 
L 389.641842 77.638201 
L 401.088947 85.054997 
L 412.536053 92.725223 
L 423.983158 100.202034 
L 435.430263 107.786211 
L 446.877368 114.808403 
L 458.324474 120.887368 
L 469.771579 127.517535 
L 481.218684 133.198108 
L 492.665789 138.118368 
L 504.112895 143.282748 
L 515.56 147.853021 
L 515.56 133.419726 
L 515.56 133.419726 
L 504.112895 128.763749 
L 492.665789 123.741917 
L 481.218684 118.730991 
L 469.771579 112.987636 
L 458.324474 107.101065 
L 446.877368 100.957222 
L 435.430263 95.339248 
L 423.983158 88.80625 
L 412.536053 82.061822 
L 401.088947 74.825458 
L 389.641842 68.131079 
L 378.194737 61.993713 
L 366.747632 54.949937 
L 355.300526 49.275809 
L 343.853421 44.092191 
L 332.406316 39.729544 
L 320.959211 36.615833 
L 309.512105 34.293943 
L 298.065 33.569235 
z
" clip-path="url(#pfa7528afc1)" style="fill: #ff7f0e; fill-opacity: 0.4"/>
   </g>
   <g id="PolyCollection_11">
    <path d="M 298.065 33.5691 
L 298.065 33.569105 
L 309.512105 34.641509 
L 320.959211 37.655849 
L 332.406316 42.07043 
L 343.853421 47.714789 
L 355.300526 54.851263 
L 366.747632 61.853387 
L 378.194737 69.612954 
L 389.641842 77.80665 
L 401.088947 85.225812 
L 412.536053 92.921427 
L 423.983158 100.402242 
L 435.430263 108.068477 
L 446.877368 115.011562 
L 458.324474 121.13918 
L 469.771579 127.780144 
L 481.218684 133.48469 
L 492.665789 138.421997 
L 504.112895 143.556271 
L 515.56 148.13178 
L 515.56 133.162381 
L 515.56 133.162381 
L 504.112895 128.485015 
L 492.665789 123.435207 
L 481.218684 118.391862 
L 469.771579 112.645523 
L 458.324474 106.791137 
L 446.877368 100.750477 
L 435.430263 95.060694 
L 423.983158 88.632857 
L 412.536053 81.903084 
L 401.088947 74.707826 
L 389.641842 68.003769 
L 378.194737 61.901012 
L 366.747632 54.874915 
L 355.300526 49.20918 
L 343.853421 44.038517 
L 332.406316 39.688175 
L 320.959211 36.599879 
L 309.512105 34.290314 
L 298.065 33.5691 
z
" clip-path="url(#pfa7528afc1)" style="fill: #2ca02c; fill-opacity: 0.4"/>
   </g>
   <g id="PolyCollection_12">
    <path d="M 298.065 33.56981 
L 298.065 33.57016 
L 309.512105 34.641184 
L 320.959211 37.650225 
L 332.406316 42.069725 
L 343.853421 47.68404 
L 355.300526 54.836247 
L 366.747632 61.822304 
L 378.194737 69.605633 
L 389.641842 77.794863 
L 401.088947 85.236748 
L 412.536053 92.921456 
L 423.983158 100.40937 
L 435.430263 108.042582 
L 446.877368 115.018816 
L 458.324474 121.151441 
L 469.771579 127.803388 
L 481.218684 133.564047 
L 492.665789 138.522659 
L 504.112895 143.734157 
L 515.56 148.4067 
L 515.56 133.246778 
L 515.56 133.246778 
L 504.112895 128.639491 
L 492.665789 123.644716 
L 481.218684 118.600477 
L 469.771579 112.867937 
L 458.324474 107.018774 
L 446.877368 100.906806 
L 435.430263 95.200273 
L 423.983158 88.730724 
L 412.536053 81.957283 
L 401.088947 74.728288 
L 389.641842 68.029963 
L 378.194737 61.910617 
L 366.747632 54.894428 
L 355.300526 49.218254 
L 343.853421 44.052115 
L 332.406316 39.691752 
L 320.959211 36.606413 
L 309.512105 34.293592 
L 298.065 33.56981 
z
" clip-path="url(#pfa7528afc1)" style="fill: #d62728; fill-opacity: 0.4"/>
   </g>
   <g id="PolyCollection_13">
    <path d="M 298.065 33.569101 
L 298.065 33.569105 
L 309.512105 34.643678 
L 320.959211 37.646189 
L 332.406316 42.036449 
L 343.853421 47.701831 
L 355.300526 54.733861 
L 366.747632 61.785786 
L 378.194737 69.678936 
L 389.641842 77.865693 
L 401.088947 85.299629 
L 412.536053 93.073074 
L 423.983158 100.466776 
L 435.430263 107.996802 
L 446.877368 115.844725 
L 458.324474 121.183102 
L 469.771579 128.770909 
L 481.218684 133.638768 
L 492.665789 138.612835 
L 504.112895 144.360404 
L 515.56 147.635857 
L 515.56 134.271529 
L 515.56 134.271529 
L 504.112895 128.762208 
L 492.665789 123.87979 
L 481.218684 118.681084 
L 469.771579 112.851727 
L 458.324474 107.073757 
L 446.877368 100.693551 
L 435.430263 95.539447 
L 423.983158 88.728347 
L 412.536053 81.849052 
L 401.088947 75.186543 
L 389.641842 68.47528 
L 378.194737 62.038798 
L 366.747632 54.803916 
L 355.300526 49.315422 
L 343.853421 44.050668 
L 332.406316 39.689935 
L 320.959211 36.594924 
L 309.512105 34.284095 
L 298.065 33.569101 
z
" clip-path="url(#pfa7528afc1)" style="fill: #9467bd; fill-opacity: 0.4"/>
   </g>
   <g id="PolyCollection_14">
    <path d="M 298.065 33.569676 
L 298.065 33.569905 
L 309.512105 34.642458 
L 320.959211 37.64033 
L 332.406316 42.032258 
L 343.853421 47.675002 
L 355.300526 54.70634 
L 366.747632 61.736943 
L 378.194737 69.61738 
L 389.641842 77.82196 
L 401.088947 85.225579 
L 412.536053 92.993256 
L 423.983158 100.380479 
L 435.430263 107.883081 
L 446.877368 115.702475 
L 458.324474 121.053524 
L 469.771579 128.673477 
L 481.218684 133.575232 
L 492.665789 138.533044 
L 504.112895 144.296946 
L 515.56 147.674448 
L 515.56 134.450616 
L 515.56 134.450616 
L 504.112895 128.998921 
L 492.665789 124.234851 
L 481.218684 118.968769 
L 469.771579 113.130299 
L 458.324474 107.353803 
L 446.877368 100.961039 
L 435.430263 95.775735 
L 423.983158 88.934033 
L 412.536053 82.020266 
L 401.088947 75.321024 
L 389.641842 68.563072 
L 378.194737 62.132344 
L 366.747632 54.880464 
L 355.300526 49.375034 
L 343.853421 44.100894 
L 332.406316 39.72723 
L 320.959211 36.611895 
L 309.512105 34.289878 
L 298.065 33.569676 
z
" clip-path="url(#pfa7528afc1)" style="fill: #8c564b; fill-opacity: 0.4"/>
   </g>
   <g id="PolyCollection_15">
    <path d="M 298.065 45.717801 
L 298.065 51.478135 
L 309.512105 52.12446 
L 320.959211 54.359194 
L 332.406316 57.513694 
L 343.853421 61.898386 
L 355.300526 67.600418 
L 366.747632 73.340896 
L 378.194737 80.334292 
L 389.641842 87.476687 
L 401.088947 94.055795 
L 412.536053 100.982122 
L 423.983158 107.535206 
L 435.430263 114.393022 
L 446.877368 120.954475 
L 458.324474 126.42529 
L 469.771579 132.635558 
L 481.218684 137.924693 
L 492.665789 142.444967 
L 504.112895 147.488005 
L 515.56 151.475427 
L 515.56 140.258041 
L 515.56 140.258041 
L 504.112895 135.934474 
L 492.665789 131.162066 
L 481.218684 126.527444 
L 469.771579 121.276906 
L 458.324474 115.860087 
L 446.877368 110.290801 
L 435.430263 104.929505 
L 423.983158 99.021481 
L 412.536053 92.907979 
L 401.088947 86.376576 
L 389.641842 80.271338 
L 378.194737 74.611319 
L 366.747632 68.217006 
L 355.300526 62.504158 
L 343.853421 57.196184 
L 332.406316 52.586972 
L 320.959211 49.126057 
L 309.512105 46.598822 
L 298.065 45.717801 
z
" clip-path="url(#pfa7528afc1)" style="fill: #e377c2; fill-opacity: 0.4"/>
   </g>
   <g id="PolyCollection_16">
    <path d="M 298.065 33.569343 
L 298.065 33.56964 
L 309.512105 34.641678 
L 320.959211 37.639883 
L 332.406316 42.033445 
L 343.853421 47.675673 
L 355.300526 54.767894 
L 366.747632 61.785789 
L 378.194737 69.596008 
L 389.641842 77.76721 
L 401.088947 85.216895 
L 412.536053 92.932245 
L 423.983158 100.441436 
L 435.430263 108.093578 
L 446.877368 115.173117 
L 458.324474 121.289799 
L 469.771579 127.917052 
L 481.218684 133.674252 
L 492.665789 138.59716 
L 504.112895 143.678768 
L 515.56 148.22813 
L 515.56 133.457114 
L 515.56 133.457114 
L 504.112895 128.858475 
L 492.665789 123.77337 
L 481.218684 118.766342 
L 469.771579 113.018621 
L 458.324474 107.117658 
L 446.877368 101.033547 
L 435.430263 95.355354 
L 423.983158 88.857466 
L 412.536053 82.086059 
L 401.088947 74.82674 
L 389.641842 68.100776 
L 378.194737 61.948136 
L 366.747632 54.918361 
L 355.300526 49.258689 
L 343.853421 44.087348 
L 332.406316 39.722769 
L 320.959211 36.605278 
L 309.512105 34.296274 
L 298.065 33.569343 
z
" clip-path="url(#pfa7528afc1)" style="fill: #7f7f7f; fill-opacity: 0.4"/>
   </g>
   <g id="matplotlib.axis_3">
    <g id="xtick_6">
     <g id="line2d_18">
      <g>
       <use xlink:href="#ma06c05a40b" x="298.065" y="174.04" style="stroke: #000000; stroke-width: 0.8"/>
      </g>
     </g>
     <g id="text_13">
      <!-- 0.0 -->
      <g transform="translate(290.113437 188.638438)scale(0.1 -0.1)">
       <use xlink:href="#DejaVuSans-30"/>
       <use xlink:href="#DejaVuSans-2e" x="63.623047"/>
       <use xlink:href="#DejaVuSans-30" x="95.410156"/>
      </g>
     </g>
    </g>
    <g id="xtick_7">
     <g id="line2d_19">
      <g>
       <use xlink:href="#ma06c05a40b" x="352.43875" y="174.04" style="stroke: #000000; stroke-width: 0.8"/>
      </g>
     </g>
     <g id="text_14">
      <!-- 0.5 -->
      <g transform="translate(344.487187 188.638438)scale(0.1 -0.1)">
       <use xlink:href="#DejaVuSans-30"/>
       <use xlink:href="#DejaVuSans-2e" x="63.623047"/>
       <use xlink:href="#DejaVuSans-35" x="95.410156"/>
      </g>
     </g>
    </g>
    <g id="xtick_8">
     <g id="line2d_20">
      <g>
       <use xlink:href="#ma06c05a40b" x="406.8125" y="174.04" style="stroke: #000000; stroke-width: 0.8"/>
      </g>
     </g>
     <g id="text_15">
      <!-- 1.0 -->
      <g transform="translate(398.860937 188.638438)scale(0.1 -0.1)">
       <use xlink:href="#DejaVuSans-31"/>
       <use xlink:href="#DejaVuSans-2e" x="63.623047"/>
       <use xlink:href="#DejaVuSans-30" x="95.410156"/>
      </g>
     </g>
    </g>
    <g id="xtick_9">
     <g id="line2d_21">
      <g>
       <use xlink:href="#ma06c05a40b" x="461.18625" y="174.04" style="stroke: #000000; stroke-width: 0.8"/>
      </g>
     </g>
     <g id="text_16">
      <!-- 1.5 -->
      <g transform="translate(453.234687 188.638438)scale(0.1 -0.1)">
       <use xlink:href="#DejaVuSans-31"/>
       <use xlink:href="#DejaVuSans-2e" x="63.623047"/>
       <use xlink:href="#DejaVuSans-35" x="95.410156"/>
      </g>
     </g>
    </g>
    <g id="xtick_10">
     <g id="line2d_22">
      <g>
       <use xlink:href="#ma06c05a40b" x="515.56" y="174.04" style="stroke: #000000; stroke-width: 0.8"/>
      </g>
     </g>
     <g id="text_17">
      <!-- 2.0 -->
      <g transform="translate(507.608437 188.638438)scale(0.1 -0.1)">
       <use xlink:href="#DejaVuSans-32"/>
       <use xlink:href="#DejaVuSans-2e" x="63.623047"/>
       <use xlink:href="#DejaVuSans-30" x="95.410156"/>
      </g>
     </g>
    </g>
    <g id="text_18">
     <!-- Influence of surprisal (multiplication) -->
     <g transform="translate(314.665625 202.316563)scale(0.1 -0.1)">
      <use xlink:href="#DejaVuSans-49"/>
      <use xlink:href="#DejaVuSans-6e" x="29.492188"/>
      <use xlink:href="#DejaVuSans-66" x="92.871094"/>
      <use xlink:href="#DejaVuSans-6c" x="128.076172"/>
      <use xlink:href="#DejaVuSans-75" x="155.859375"/>
      <use xlink:href="#DejaVuSans-65" x="219.238281"/>
      <use xlink:href="#DejaVuSans-6e" x="280.761719"/>
      <use xlink:href="#DejaVuSans-63" x="344.140625"/>
      <use xlink:href="#DejaVuSans-65" x="399.121094"/>
      <use xlink:href="#DejaVuSans-20" x="460.644531"/>
      <use xlink:href="#DejaVuSans-6f" x="492.431641"/>
      <use xlink:href="#DejaVuSans-66" x="553.613281"/>
      <use xlink:href="#DejaVuSans-20" x="588.818359"/>
      <use xlink:href="#DejaVuSans-73" x="620.605469"/>
      <use xlink:href="#DejaVuSans-75" x="672.705078"/>
      <use xlink:href="#DejaVuSans-72" x="736.083984"/>
      <use xlink:href="#DejaVuSans-70" x="777.197266"/>
      <use xlink:href="#DejaVuSans-72" x="840.673828"/>
      <use xlink:href="#DejaVuSans-69" x="881.787109"/>
      <use xlink:href="#DejaVuSans-73" x="909.570312"/>
      <use xlink:href="#DejaVuSans-61" x="961.669922"/>
      <use xlink:href="#DejaVuSans-6c" x="1022.949219"/>
      <use xlink:href="#DejaVuSans-20" x="1050.732422"/>
      <use xlink:href="#DejaVuSans-28" x="1082.519531"/>
      <use xlink:href="#DejaVuSans-6d" x="1121.533203"/>
      <use xlink:href="#DejaVuSans-75" x="1218.945312"/>
      <use xlink:href="#DejaVuSans-6c" x="1282.324219"/>
      <use xlink:href="#DejaVuSans-74" x="1310.107422"/>
      <use xlink:href="#DejaVuSans-69" x="1349.316406"/>
      <use xlink:href="#DejaVuSans-70" x="1377.099609"/>
      <use xlink:href="#DejaVuSans-6c" x="1440.576172"/>
      <use xlink:href="#DejaVuSans-69" x="1468.359375"/>
      <use xlink:href="#DejaVuSans-63" x="1496.142578"/>
      <use xlink:href="#DejaVuSans-61" x="1551.123047"/>
      <use xlink:href="#DejaVuSans-74" x="1612.402344"/>
      <use xlink:href="#DejaVuSans-69" x="1651.611328"/>
      <use xlink:href="#DejaVuSans-6f" x="1679.394531"/>
      <use xlink:href="#DejaVuSans-6e" x="1740.576172"/>
      <use xlink:href="#DejaVuSans-29" x="1803.955078"/>
     </g>
    </g>
   </g>
   <g id="line2d_23">
    <path d="M 298.065 33.569091 
L 309.512105 34.464586 
L 320.959211 37.120242 
L 332.406316 40.856002 
L 343.853421 45.861433 
L 355.300526 51.993858 
L 366.747632 58.325286 
L 378.194737 65.719504 
L 389.641842 72.854407 
L 401.088947 79.907092 
L 412.536053 87.347809 
L 423.983158 94.445157 
L 435.430263 101.502015 
L 446.877368 107.808478 
L 458.324474 113.89423 
L 469.771579 120.157449 
L 481.218684 125.859912 
L 492.665789 130.815274 
L 504.112895 135.925281 
L 515.56 140.522569 
" clip-path="url(#pfa7528afc1)" style="fill: none; stroke: #1f77b4; stroke-width: 1.5; stroke-linecap: square"/>
   </g>
   <g id="line2d_24">
    <path d="M 298.065 33.569263 
L 309.512105 34.466317 
L 320.959211 37.125188 
L 332.406316 40.871949 
L 343.853421 45.871474 
L 355.300526 52.008129 
L 366.747632 58.337292 
L 378.194737 65.740113 
L 389.641842 72.88464 
L 401.088947 79.940228 
L 412.536053 87.393523 
L 423.983158 94.504142 
L 435.430263 101.562729 
L 446.877368 107.882812 
L 458.324474 113.994217 
L 469.771579 120.252586 
L 481.218684 125.96455 
L 492.665789 130.930142 
L 504.112895 136.023249 
L 515.56 140.636373 
" clip-path="url(#pfa7528afc1)" style="fill: none; stroke: #ff7f0e; stroke-width: 1.5; stroke-linecap: square"/>
   </g>
   <g id="line2d_25">
    <path d="M 298.065 33.569103 
L 309.512105 34.465912 
L 320.959211 37.127864 
L 332.406316 40.879302 
L 343.853421 45.876653 
L 355.300526 52.030222 
L 366.747632 58.364151 
L 378.194737 65.756983 
L 389.641842 72.905209 
L 401.088947 79.966819 
L 412.536053 87.412256 
L 423.983158 94.51755 
L 435.430263 101.564586 
L 446.877368 107.881019 
L 458.324474 113.965158 
L 469.771579 120.212834 
L 481.218684 125.938276 
L 492.665789 130.928602 
L 504.112895 136.020643 
L 515.56 140.64708 
" clip-path="url(#pfa7528afc1)" style="fill: none; stroke: #2ca02c; stroke-width: 1.5; stroke-linecap: square"/>
   </g>
   <g id="line2d_26">
    <path d="M 298.065 33.569985 
L 309.512105 34.467388 
L 320.959211 37.128319 
L 332.406316 40.880738 
L 343.853421 45.868077 
L 355.300526 52.027251 
L 366.747632 58.358366 
L 378.194737 65.758125 
L 389.641842 72.912413 
L 401.088947 79.982518 
L 412.536053 87.43937 
L 423.983158 94.570047 
L 435.430263 101.621428 
L 446.877368 107.962811 
L 458.324474 114.085107 
L 469.771579 120.335662 
L 481.218684 126.082262 
L 492.665789 131.083687 
L 504.112895 136.186824 
L 515.56 140.826739 
" clip-path="url(#pfa7528afc1)" style="fill: none; stroke: #d62728; stroke-width: 1.5; stroke-linecap: square"/>
   </g>
   <g id="line2d_27">
    <path d="M 298.065 33.569103 
L 309.512105 34.463886 
L 320.959211 37.120557 
L 332.406316 40.863192 
L 343.853421 45.87625 
L 355.300526 52.024642 
L 366.747632 58.294851 
L 378.194737 65.858867 
L 389.641842 73.170486 
L 401.088947 80.243086 
L 412.536053 87.461063 
L 423.983158 94.597562 
L 435.430263 101.768125 
L 446.877368 108.269138 
L 458.324474 114.12843 
L 469.771579 120.811318 
L 481.218684 126.159926 
L 492.665789 131.246313 
L 504.112895 136.561306 
L 515.56 140.953693 
" clip-path="url(#pfa7528afc1)" style="fill: none; stroke: #9467bd; stroke-width: 1.5; stroke-linecap: square"/>
   </g>
   <g id="line2d_28">
    <path d="M 298.065 33.56979 
L 309.512105 34.466168 
L 320.959211 37.126112 
L 332.406316 40.879744 
L 343.853421 45.887948 
L 355.300526 52.040687 
L 366.747632 58.308703 
L 378.194737 65.874862 
L 389.641842 73.192516 
L 401.088947 80.273301 
L 412.536053 87.506761 
L 423.983158 94.657256 
L 435.430263 101.829408 
L 446.877368 108.331757 
L 458.324474 114.203664 
L 469.771579 120.901888 
L 481.218684 126.272 
L 492.665789 131.383948 
L 504.112895 136.647934 
L 515.56 141.062532 
" clip-path="url(#pfa7528afc1)" style="fill: none; stroke: #8c564b; stroke-width: 1.5; stroke-linecap: square"/>
   </g>
   <g id="line2d_29">
    <path d="M 298.065 48.597968 
L 309.512105 49.361641 
L 320.959211 51.742626 
L 332.406316 55.050333 
L 343.853421 59.547285 
L 355.300526 65.052288 
L 366.747632 70.778951 
L 378.194737 77.472805 
L 389.641842 83.874012 
L 401.088947 90.216186 
L 412.536053 96.945051 
L 423.983158 103.278344 
L 435.430263 109.661264 
L 446.877368 115.622638 
L 458.324474 121.142688 
L 469.771579 126.956232 
L 481.218684 132.226069 
L 492.665789 136.803517 
L 504.112895 141.71124 
L 515.56 145.866734 
" clip-path="url(#pfa7528afc1)" style="fill: none; stroke: #e377c2; stroke-width: 1.5; stroke-linecap: square"/>
   </g>
   <g id="line2d_30">
    <path d="M 298.065 33.569491 
L 309.512105 34.468976 
L 320.959211 37.12258 
L 332.406316 40.878107 
L 343.853421 45.88151 
L 355.300526 52.013291 
L 366.747632 58.352075 
L 378.194737 65.772072 
L 389.641842 72.933993 
L 401.088947 80.021817 
L 412.536053 87.509152 
L 423.983158 94.649451 
L 435.430263 101.724466 
L 446.877368 108.103332 
L 458.324474 114.203729 
L 469.771579 120.467836 
L 481.218684 126.220297 
L 492.665789 131.185265 
L 504.112895 136.268621 
L 515.56 140.842622 
" clip-path="url(#pfa7528afc1)" style="fill: none; stroke: #7f7f7f; stroke-width: 1.5; stroke-linecap: square"/>
   </g>
   <g id="patch_6">
    <path d="M 298.065 174.04 
L 298.065 26.88 
" style="fill: none; stroke: #000000; stroke-width: 0.8; stroke-linejoin: miter; stroke-linecap: square"/>
   </g>
   <g id="patch_7">
    <path d="M 298.065 174.04 
L 515.56 174.04 
" style="fill: none; stroke: #000000; stroke-width: 0.8; stroke-linejoin: miter; stroke-linecap: square"/>
   </g>
   <g id="text_19">
    <!-- Node * third variable -->
    <g transform="translate(344.2325 20.88)scale(0.12 -0.12)">
     <defs>
      <path id="DejaVuSans-68" d="M 3513 2113 
L 3513 0 
L 2938 0 
L 2938 2094 
Q 2938 2591 2744 2837 
Q 2550 3084 2163 3084 
Q 1697 3084 1428 2787 
Q 1159 2491 1159 1978 
L 1159 0 
L 581 0 
L 581 4863 
L 1159 4863 
L 1159 2956 
Q 1366 3272 1645 3428 
Q 1925 3584 2291 3584 
Q 2894 3584 3203 3211 
Q 3513 2838 3513 2113 
z
" transform="scale(0.015625)"/>
      <path id="DejaVuSans-62" d="M 3116 1747 
Q 3116 2381 2855 2742 
Q 2594 3103 2138 3103 
Q 1681 3103 1420 2742 
Q 1159 2381 1159 1747 
Q 1159 1113 1420 752 
Q 1681 391 2138 391 
Q 2594 391 2855 752 
Q 3116 1113 3116 1747 
z
M 1159 2969 
Q 1341 3281 1617 3432 
Q 1894 3584 2278 3584 
Q 2916 3584 3314 3078 
Q 3713 2572 3713 1747 
Q 3713 922 3314 415 
Q 2916 -91 2278 -91 
Q 1894 -91 1617 61 
Q 1341 213 1159 525 
L 1159 0 
L 581 0 
L 581 4863 
L 1159 4863 
L 1159 2969 
z
" transform="scale(0.015625)"/>
     </defs>
     <use xlink:href="#DejaVuSans-4e"/>
     <use xlink:href="#DejaVuSans-6f" x="74.804688"/>
     <use xlink:href="#DejaVuSans-64" x="135.986328"/>
     <use xlink:href="#DejaVuSans-65" x="199.462891"/>
     <use xlink:href="#DejaVuSans-20" x="260.986328"/>
     <use xlink:href="#DejaVuSans-2a" x="292.773438"/>
     <use xlink:href="#DejaVuSans-20" x="342.773438"/>
     <use xlink:href="#DejaVuSans-74" x="374.560547"/>
     <use xlink:href="#DejaVuSans-68" x="413.769531"/>
     <use xlink:href="#DejaVuSans-69" x="477.148438"/>
     <use xlink:href="#DejaVuSans-72" x="504.931641"/>
     <use xlink:href="#DejaVuSans-64" x="544.294922"/>
     <use xlink:href="#DejaVuSans-20" x="607.771484"/>
     <use xlink:href="#DejaVuSans-76" x="639.558594"/>
     <use xlink:href="#DejaVuSans-61" x="698.738281"/>
     <use xlink:href="#DejaVuSans-72" x="760.017578"/>
     <use xlink:href="#DejaVuSans-69" x="801.130859"/>
     <use xlink:href="#DejaVuSans-61" x="828.914062"/>
     <use xlink:href="#DejaVuSans-62" x="890.193359"/>
     <use xlink:href="#DejaVuSans-6c" x="953.669922"/>
     <use xlink:href="#DejaVuSans-65" x="981.453125"/>
    </g>
   </g>
   <g id="legend_1">
    <g id="line2d_31">
     <path d="M 524.56 39.978437 
L 534.56 39.978437 
L 544.56 39.978437 
" style="fill: none; stroke: #1f77b4; stroke-width: 1.5; stroke-linecap: square"/>
    </g>
    <g id="text_20">
     <!-- Node -->
     <g transform="translate(552.56 43.478437)scale(0.1 -0.1)">
      <use xlink:href="#DejaVuSans-4e"/>
      <use xlink:href="#DejaVuSans-6f" x="74.804688"/>
      <use xlink:href="#DejaVuSans-64" x="135.986328"/>
      <use xlink:href="#DejaVuSans-65" x="199.462891"/>
     </g>
    </g>
    <g id="line2d_32">
     <path d="M 524.56 54.656563 
L 534.56 54.656563 
L 544.56 54.656563 
" style="fill: none; stroke: #ff7f0e; stroke-width: 1.5; stroke-linecap: square"/>
    </g>
    <g id="text_21">
     <!-- Node + surprisal -->
     <g transform="translate(552.56 58.156563)scale(0.1 -0.1)">
      <defs>
       <path id="DejaVuSans-2b" d="M 2944 4013 
L 2944 2272 
L 4684 2272 
L 4684 1741 
L 2944 1741 
L 2944 0 
L 2419 0 
L 2419 1741 
L 678 1741 
L 678 2272 
L 2419 2272 
L 2419 4013 
L 2944 4013 
z
" transform="scale(0.015625)"/>
      </defs>
      <use xlink:href="#DejaVuSans-4e"/>
      <use xlink:href="#DejaVuSans-6f" x="74.804688"/>
      <use xlink:href="#DejaVuSans-64" x="135.986328"/>
      <use xlink:href="#DejaVuSans-65" x="199.462891"/>
      <use xlink:href="#DejaVuSans-20" x="260.986328"/>
      <use xlink:href="#DejaVuSans-2b" x="292.773438"/>
      <use xlink:href="#DejaVuSans-20" x="376.5625"/>
      <use xlink:href="#DejaVuSans-73" x="408.349609"/>
      <use xlink:href="#DejaVuSans-75" x="460.449219"/>
      <use xlink:href="#DejaVuSans-72" x="523.828125"/>
      <use xlink:href="#DejaVuSans-70" x="564.941406"/>
      <use xlink:href="#DejaVuSans-72" x="628.417969"/>
      <use xlink:href="#DejaVuSans-69" x="669.53125"/>
      <use xlink:href="#DejaVuSans-73" x="697.314453"/>
      <use xlink:href="#DejaVuSans-61" x="749.414062"/>
      <use xlink:href="#DejaVuSans-6c" x="810.693359"/>
     </g>
    </g>
    <g id="line2d_33">
     <path d="M 524.56 69.334687 
L 534.56 69.334687 
L 544.56 69.334687 
" style="fill: none; stroke: #2ca02c; stroke-width: 1.5; stroke-linecap: square"/>
    </g>
    <g id="text_22">
     <!-- Node split -->
     <g transform="translate(552.56 72.834687)scale(0.1 -0.1)">
      <use xlink:href="#DejaVuSans-4e"/>
      <use xlink:href="#DejaVuSans-6f" x="74.804688"/>
      <use xlink:href="#DejaVuSans-64" x="135.986328"/>
      <use xlink:href="#DejaVuSans-65" x="199.462891"/>
      <use xlink:href="#DejaVuSans-20" x="260.986328"/>
      <use xlink:href="#DejaVuSans-73" x="292.773438"/>
      <use xlink:href="#DejaVuSans-70" x="344.873047"/>
      <use xlink:href="#DejaVuSans-6c" x="408.349609"/>
      <use xlink:href="#DejaVuSans-69" x="436.132812"/>
      <use xlink:href="#DejaVuSans-74" x="463.916016"/>
     </g>
    </g>
    <g id="line2d_34">
     <path d="M 524.56 84.012812 
L 534.56 84.012812 
L 544.56 84.012812 
" style="fill: none; stroke: #d62728; stroke-width: 1.5; stroke-linecap: square"/>
    </g>
    <g id="text_23">
     <!-- Node split + surprisal -->
     <g transform="translate(552.56 87.512812)scale(0.1 -0.1)">
      <use xlink:href="#DejaVuSans-4e"/>
      <use xlink:href="#DejaVuSans-6f" x="74.804688"/>
      <use xlink:href="#DejaVuSans-64" x="135.986328"/>
      <use xlink:href="#DejaVuSans-65" x="199.462891"/>
      <use xlink:href="#DejaVuSans-20" x="260.986328"/>
      <use xlink:href="#DejaVuSans-73" x="292.773438"/>
      <use xlink:href="#DejaVuSans-70" x="344.873047"/>
      <use xlink:href="#DejaVuSans-6c" x="408.349609"/>
      <use xlink:href="#DejaVuSans-69" x="436.132812"/>
      <use xlink:href="#DejaVuSans-74" x="463.916016"/>
      <use xlink:href="#DejaVuSans-20" x="503.125"/>
      <use xlink:href="#DejaVuSans-2b" x="534.912109"/>
      <use xlink:href="#DejaVuSans-20" x="618.701172"/>
      <use xlink:href="#DejaVuSans-73" x="650.488281"/>
      <use xlink:href="#DejaVuSans-75" x="702.587891"/>
      <use xlink:href="#DejaVuSans-72" x="765.966797"/>
      <use xlink:href="#DejaVuSans-70" x="807.080078"/>
      <use xlink:href="#DejaVuSans-72" x="870.556641"/>
      <use xlink:href="#DejaVuSans-69" x="911.669922"/>
      <use xlink:href="#DejaVuSans-73" x="939.453125"/>
      <use xlink:href="#DejaVuSans-61" x="991.552734"/>
      <use xlink:href="#DejaVuSans-6c" x="1052.832031"/>
     </g>
    </g>
    <g id="line2d_35">
     <path d="M 524.56 98.690937 
L 534.56 98.690937 
L 544.56 98.690937 
" style="fill: none; stroke: #9467bd; stroke-width: 1.5; stroke-linecap: square"/>
    </g>
    <g id="text_24">
     <!-- Node random split -->
     <g transform="translate(552.56 102.190937)scale(0.1 -0.1)">
      <use xlink:href="#DejaVuSans-4e"/>
      <use xlink:href="#DejaVuSans-6f" x="74.804688"/>
      <use xlink:href="#DejaVuSans-64" x="135.986328"/>
      <use xlink:href="#DejaVuSans-65" x="199.462891"/>
      <use xlink:href="#DejaVuSans-20" x="260.986328"/>
      <use xlink:href="#DejaVuSans-72" x="292.773438"/>
      <use xlink:href="#DejaVuSans-61" x="333.886719"/>
      <use xlink:href="#DejaVuSans-6e" x="395.166016"/>
      <use xlink:href="#DejaVuSans-64" x="458.544922"/>
      <use xlink:href="#DejaVuSans-6f" x="522.021484"/>
      <use xlink:href="#DejaVuSans-6d" x="583.203125"/>
      <use xlink:href="#DejaVuSans-20" x="680.615234"/>
      <use xlink:href="#DejaVuSans-73" x="712.402344"/>
      <use xlink:href="#DejaVuSans-70" x="764.501953"/>
      <use xlink:href="#DejaVuSans-6c" x="827.978516"/>
      <use xlink:href="#DejaVuSans-69" x="855.761719"/>
      <use xlink:href="#DejaVuSans-74" x="883.544922"/>
     </g>
    </g>
    <g id="line2d_36">
     <path d="M 524.56 113.369062 
L 534.56 113.369062 
L 544.56 113.369062 
" style="fill: none; stroke: #8c564b; stroke-width: 1.5; stroke-linecap: square"/>
    </g>
    <g id="text_25">
     <!-- Node random split + surprisal -->
     <g transform="translate(552.56 116.869062)scale(0.1 -0.1)">
      <use xlink:href="#DejaVuSans-4e"/>
      <use xlink:href="#DejaVuSans-6f" x="74.804688"/>
      <use xlink:href="#DejaVuSans-64" x="135.986328"/>
      <use xlink:href="#DejaVuSans-65" x="199.462891"/>
      <use xlink:href="#DejaVuSans-20" x="260.986328"/>
      <use xlink:href="#DejaVuSans-72" x="292.773438"/>
      <use xlink:href="#DejaVuSans-61" x="333.886719"/>
      <use xlink:href="#DejaVuSans-6e" x="395.166016"/>
      <use xlink:href="#DejaVuSans-64" x="458.544922"/>
      <use xlink:href="#DejaVuSans-6f" x="522.021484"/>
      <use xlink:href="#DejaVuSans-6d" x="583.203125"/>
      <use xlink:href="#DejaVuSans-20" x="680.615234"/>
      <use xlink:href="#DejaVuSans-73" x="712.402344"/>
      <use xlink:href="#DejaVuSans-70" x="764.501953"/>
      <use xlink:href="#DejaVuSans-6c" x="827.978516"/>
      <use xlink:href="#DejaVuSans-69" x="855.761719"/>
      <use xlink:href="#DejaVuSans-74" x="883.544922"/>
      <use xlink:href="#DejaVuSans-20" x="922.753906"/>
      <use xlink:href="#DejaVuSans-2b" x="954.541016"/>
      <use xlink:href="#DejaVuSans-20" x="1038.330078"/>
      <use xlink:href="#DejaVuSans-73" x="1070.117188"/>
      <use xlink:href="#DejaVuSans-75" x="1122.216797"/>
      <use xlink:href="#DejaVuSans-72" x="1185.595703"/>
      <use xlink:href="#DejaVuSans-70" x="1226.708984"/>
      <use xlink:href="#DejaVuSans-72" x="1290.185547"/>
      <use xlink:href="#DejaVuSans-69" x="1331.298828"/>
      <use xlink:href="#DejaVuSans-73" x="1359.082031"/>
      <use xlink:href="#DejaVuSans-61" x="1411.181641"/>
      <use xlink:href="#DejaVuSans-6c" x="1472.460938"/>
     </g>
    </g>
    <g id="line2d_37">
     <path d="M 524.56 128.047187 
L 534.56 128.047187 
L 544.56 128.047187 
" style="fill: none; stroke: #e377c2; stroke-width: 1.5; stroke-linecap: square"/>
    </g>
    <g id="text_26">
     <!-- Interaction -->
     <g transform="translate(552.56 131.547187)scale(0.1 -0.1)">
      <use xlink:href="#DejaVuSans-49"/>
      <use xlink:href="#DejaVuSans-6e" x="29.492188"/>
      <use xlink:href="#DejaVuSans-74" x="92.871094"/>
      <use xlink:href="#DejaVuSans-65" x="132.080078"/>
      <use xlink:href="#DejaVuSans-72" x="193.603516"/>
      <use xlink:href="#DejaVuSans-61" x="234.716797"/>
      <use xlink:href="#DejaVuSans-63" x="295.996094"/>
      <use xlink:href="#DejaVuSans-74" x="350.976562"/>
      <use xlink:href="#DejaVuSans-69" x="390.185547"/>
      <use xlink:href="#DejaVuSans-6f" x="417.96875"/>
      <use xlink:href="#DejaVuSans-6e" x="479.150391"/>
     </g>
    </g>
    <g id="line2d_38">
     <path d="M 524.56 142.725312 
L 534.56 142.725312 
L 544.56 142.725312 
" style="fill: none; stroke: #7f7f7f; stroke-width: 1.5; stroke-linecap: square"/>
    </g>
    <g id="text_27">
     <!-- Node + surprisal + interaction -->
     <g transform="translate(552.56 146.225312)scale(0.1 -0.1)">
      <use xlink:href="#DejaVuSans-4e"/>
      <use xlink:href="#DejaVuSans-6f" x="74.804688"/>
      <use xlink:href="#DejaVuSans-64" x="135.986328"/>
      <use xlink:href="#DejaVuSans-65" x="199.462891"/>
      <use xlink:href="#DejaVuSans-20" x="260.986328"/>
      <use xlink:href="#DejaVuSans-2b" x="292.773438"/>
      <use xlink:href="#DejaVuSans-20" x="376.5625"/>
      <use xlink:href="#DejaVuSans-73" x="408.349609"/>
      <use xlink:href="#DejaVuSans-75" x="460.449219"/>
      <use xlink:href="#DejaVuSans-72" x="523.828125"/>
      <use xlink:href="#DejaVuSans-70" x="564.941406"/>
      <use xlink:href="#DejaVuSans-72" x="628.417969"/>
      <use xlink:href="#DejaVuSans-69" x="669.53125"/>
      <use xlink:href="#DejaVuSans-73" x="697.314453"/>
      <use xlink:href="#DejaVuSans-61" x="749.414062"/>
      <use xlink:href="#DejaVuSans-6c" x="810.693359"/>
      <use xlink:href="#DejaVuSans-20" x="838.476562"/>
      <use xlink:href="#DejaVuSans-2b" x="870.263672"/>
      <use xlink:href="#DejaVuSans-20" x="954.052734"/>
      <use xlink:href="#DejaVuSans-69" x="985.839844"/>
      <use xlink:href="#DejaVuSans-6e" x="1013.623047"/>
      <use xlink:href="#DejaVuSans-74" x="1077.001953"/>
      <use xlink:href="#DejaVuSans-65" x="1116.210938"/>
      <use xlink:href="#DejaVuSans-72" x="1177.734375"/>
      <use xlink:href="#DejaVuSans-61" x="1218.847656"/>
      <use xlink:href="#DejaVuSans-63" x="1280.126953"/>
      <use xlink:href="#DejaVuSans-74" x="1335.107422"/>
      <use xlink:href="#DejaVuSans-69" x="1374.316406"/>
      <use xlink:href="#DejaVuSans-6f" x="1402.099609"/>
      <use xlink:href="#DejaVuSans-6e" x="1463.28125"/>
     </g>
    </g>
   </g>
  </g>
 </g>
 <defs>
  <clipPath id="p8118e4f227">
   <rect x="47.72" y="26.88" width="217.495" height="147.16"/>
  </clipPath>
  <clipPath id="pfa7528afc1">
   <rect x="298.065" y="26.88" width="217.495" height="147.16"/>
  </clipPath>
 </defs>
</svg>
