<?xml version="1.0" encoding="utf-8" standalone="no"?>
<!DOCTYPE svg PUBLIC "-//W3C//DTD SVG 1.1//EN"
  "http://www.w3.org/Graphics/SVG/1.1/DTD/svg11.dtd">
<svg xmlns:xlink="http://www.w3.org/1999/xlink" width="720pt" height="216pt" viewBox="0 0 720 216" xmlns="http://www.w3.org/2000/svg" version="1.1">
 <metadata>
  <rdf:RDF xmlns:dc="http://purl.org/dc/elements/1.1/" xmlns:cc="http://creativecommons.org/ns#" xmlns:rdf="http://www.w3.org/1999/02/22-rdf-syntax-ns#">
   <cc:Work>
    <dc:type rdf:resource="http://purl.org/dc/dcmitype/StillImage"/>
    <dc:date>2024-01-15T21:05:05.070727</dc:date>
    <dc:format>image/svg+xml</dc:format>
    <dc:creator>
     <cc:Agent>
      <dc:title>Matplotlib v3.5.1, https://matplotlib.org/</dc:title>
     </cc:Agent>
    </dc:creator>
   </cc:Work>
  </rdf:RDF>
 </metadata>
 <defs>
  <style type="text/css">*{stroke-linejoin: round; stroke-linecap: butt}</style>
 </defs>
 <g id="figure_1">
  <g id="patch_1">
   <path d="M 0 216 
L 720 216 
L 720 0 
L 0 0 
z
" style="fill: #ffffff"/>
  </g>
  <g id="axes_1">
   <g id="patch_2">
    <path d="M 47.72 174.04 
L 265.215 174.04 
L 265.215 26.88 
L 47.72 26.88 
z
" style="fill: #ffffff"/>
   </g>
   <g id="PolyCollection_1">
    <path d="M 47.72 33.569091 
L 47.72 33.569092 
L 59.167105 34.713434 
L 70.614211 38.187536 
L 82.061316 42.995421 
L 93.508421 49.324111 
L 104.955526 56.287478 
L 116.402632 64.267754 
L 127.849737 72.76393 
L 139.296842 80.369835 
L 150.743947 88.046297 
L 162.191053 96.130544 
L 173.638158 103.099586 
L 185.085263 110.57444 
L 196.532368 116.947059 
L 207.979474 122.966355 
L 219.426579 128.694761 
L 230.873684 132.943067 
L 242.320789 137.191173 
L 253.767895 141.56755 
L 265.215 144.800357 
L 265.215 133.144361 
L 265.215 133.144361 
L 253.767895 128.954282 
L 242.320789 123.942897 
L 230.873684 119.736636 
L 219.426579 114.508768 
L 207.979474 108.601557 
L 196.532368 102.99482 
L 185.085263 96.885248 
L 173.638158 89.987232 
L 162.191053 83.725144 
L 150.743947 76.301326 
L 139.296842 69.560112 
L 127.849737 62.332428 
L 116.402632 55.628148 
L 104.955526 49.721507 
L 93.508421 44.468064 
L 82.061316 39.98125 
L 70.614211 36.565423 
L 59.167105 34.27091 
L 47.72 33.569091 
z
" clip-path="url(#p441fd16f6d)" style="fill: #1f77b4; fill-opacity: 0.4"/>
   </g>
   <g id="PolyCollection_2">
    <path d="M 47.72 33.569239 
L 47.72 33.569312 
L 59.167105 34.260271 
L 70.614211 36.038541 
L 82.061316 38.596229 
L 93.508421 42.469806 
L 104.955526 47.023017 
L 116.402632 52.511704 
L 127.849737 59.022557 
L 139.296842 65.032982 
L 150.743947 71.192572 
L 162.191053 77.925846 
L 173.638158 83.659809 
L 185.085263 90.211549 
L 196.532368 96.054292 
L 207.979474 101.93513 
L 219.426579 107.648368 
L 230.873684 112.664221 
L 242.320789 117.509767 
L 253.767895 122.646342 
L 265.215 127.053077 
L 265.215 116.644183 
L 265.215 116.644183 
L 253.767895 112.0957 
L 242.320789 106.678936 
L 230.873684 102.078432 
L 219.426579 96.730473 
L 207.979474 90.744535 
L 196.532368 84.977565 
L 185.085263 78.925055 
L 173.638158 72.408612 
L 162.191053 66.706553 
L 150.743947 60.794582 
L 139.296842 55.677022 
L 127.849737 50.340746 
L 116.402632 46.117722 
L 104.955526 42.4198 
L 93.508421 39.333846 
L 82.061316 36.999772 
L 70.614211 35.202338 
L 59.167105 34.034443 
L 47.72 33.569239 
z
" clip-path="url(#p441fd16f6d)" style="fill: #ff7f0e; fill-opacity: 0.4"/>
   </g>
   <g id="PolyCollection_3">
    <path d="M 47.72 33.569099 
L 47.72 33.569103 
L 59.167105 34.419533 
L 70.614211 36.049563 
L 82.061316 38.314658 
L 93.508421 41.235519 
L 104.955526 44.454687 
L 116.402632 47.86141 
L 127.849737 52.101525 
L 139.296842 55.49927 
L 150.743947 59.17428 
L 162.191053 63.268387 
L 173.638158 67.032893 
L 185.085263 71.433147 
L 196.532368 75.260564 
L 207.979474 79.459655 
L 219.426579 83.448459 
L 230.873684 87.116329 
L 242.320789 90.248821 
L 253.767895 93.756364 
L 265.215 96.99493 
L 265.215 84.24095 
L 265.215 84.24095 
L 253.767895 81.166786 
L 242.320789 77.807368 
L 230.873684 75.05795 
L 219.426579 72.050657 
L 207.979474 68.539375 
L 196.532368 65.020802 
L 185.085263 62.053621 
L 173.638158 58.593949 
L 162.191053 55.32951 
L 150.743947 52.116725 
L 139.296842 48.690434 
L 127.849737 45.59759 
L 116.402632 42.825931 
L 104.955526 40.278294 
L 93.508421 38.273595 
L 82.061316 36.470691 
L 70.614211 35.125224 
L 59.167105 34.094651 
L 47.72 33.569099 
z
" clip-path="url(#p441fd16f6d)" style="fill: #2ca02c; fill-opacity: 0.4"/>
   </g>
   <g id="PolyCollection_4">
    <path d="M 47.72 33.569871 
L 47.72 33.570265 
L 59.167105 34.218588 
L 70.614211 35.423902 
L 82.061316 37.106046 
L 93.508421 39.53372 
L 104.955526 42.347831 
L 116.402632 45.460409 
L 127.849737 49.608989 
L 139.296842 53.142784 
L 150.743947 56.943138 
L 162.191053 61.221267 
L 173.638158 65.022037 
L 185.085263 69.45654 
L 196.532368 73.222461 
L 207.979474 77.259943 
L 219.426579 81.102931 
L 230.873684 84.613143 
L 242.320789 87.830927 
L 253.767895 91.494685 
L 265.215 94.933318 
L 265.215 83.136181 
L 265.215 83.136181 
L 253.767895 79.945007 
L 242.320789 76.425083 
L 230.873684 73.475981 
L 219.426579 70.15611 
L 207.979474 66.437083 
L 196.532368 62.721877 
L 185.085263 59.54145 
L 173.638158 55.860622 
L 162.191053 52.508999 
L 150.743947 49.305203 
L 139.296842 46.117875 
L 127.849737 43.180749 
L 116.402632 40.824677 
L 104.955526 38.675287 
L 93.508421 37.064816 
L 82.061316 35.75846 
L 70.614211 34.748038 
L 59.167105 34.002116 
L 47.72 33.569871 
z
" clip-path="url(#p441fd16f6d)" style="fill: #d62728; fill-opacity: 0.4"/>
   </g>
   <g id="PolyCollection_5">
    <path d="M 47.72 33.569099 
L 47.72 33.569103 
L 59.167105 34.715312 
L 70.614211 38.206983 
L 82.061316 43.017133 
L 93.508421 49.377659 
L 104.955526 56.312371 
L 116.402632 64.242566 
L 127.849737 72.694824 
L 139.296842 80.53845 
L 150.743947 88.148337 
L 162.191053 96.384393 
L 173.638158 103.481717 
L 185.085263 111.055744 
L 196.532368 117.365736 
L 207.979474 122.890959 
L 219.426579 128.655223 
L 230.873684 132.851064 
L 242.320789 137.49834 
L 253.767895 141.480835 
L 265.215 145.049711 
L 265.215 133.38354 
L 265.215 133.38354 
L 253.767895 129.217911 
L 242.320789 125.620397 
L 230.873684 119.503116 
L 219.426579 114.647568 
L 207.979474 108.90233 
L 196.532368 103.136463 
L 185.085263 97.050637 
L 173.638158 89.984613 
L 162.191053 84.21265 
L 150.743947 76.216662 
L 139.296842 69.66283 
L 127.849737 62.315449 
L 116.402632 55.799955 
L 104.955526 49.75107 
L 93.508421 44.500195 
L 82.061316 39.974563 
L 70.614211 36.585605 
L 59.167105 34.274537 
L 47.72 33.569099 
z
" clip-path="url(#p441fd16f6d)" style="fill: #9467bd; fill-opacity: 0.4"/>
   </g>
   <g id="PolyCollection_6">
    <path d="M 47.72 33.569692 
L 47.72 33.569979 
L 59.167105 34.262906 
L 70.614211 36.047484 
L 82.061316 38.600122 
L 93.508421 42.495568 
L 104.955526 47.05134 
L 116.402632 52.558081 
L 127.849737 59.023346 
L 139.296842 65.161409 
L 150.743947 71.35855 
L 162.191053 78.106729 
L 173.638158 83.929514 
L 185.085263 90.264081 
L 196.532368 96.432301 
L 207.979474 101.922891 
L 219.426579 107.854031 
L 230.873684 112.717614 
L 242.320789 117.756821 
L 253.767895 122.672171 
L 265.215 127.122645 
L 265.215 116.839311 
L 265.215 116.839311 
L 253.767895 112.263948 
L 242.320789 107.82008 
L 230.873684 102.006804 
L 219.426579 96.900511 
L 207.979474 91.095643 
L 196.532368 84.96007 
L 185.085263 79.015603 
L 173.638158 72.359083 
L 162.191053 66.948432 
L 150.743947 60.760072 
L 139.296842 55.747746 
L 127.849737 50.313656 
L 116.402632 46.197107 
L 104.955526 42.437836 
L 93.508421 39.33442 
L 82.061316 36.993012 
L 70.614211 35.207315 
L 59.167105 34.03683 
L 47.72 33.569692 
z
" clip-path="url(#p441fd16f6d)" style="fill: #8c564b; fill-opacity: 0.4"/>
   </g>
   <g id="PolyCollection_7">
    <path d="M 47.72 46.135155 
L 47.72 51.040621 
L 59.167105 52.56813 
L 70.614211 56.883422 
L 82.061316 63.107191 
L 93.508421 70.874721 
L 104.955526 79.385487 
L 116.402632 88.297088 
L 127.849737 98.011191 
L 139.296842 106.161184 
L 150.743947 114.143264 
L 162.191053 122.475279 
L 173.638158 129.999943 
L 185.085263 137.269746 
L 196.532368 143.83378 
L 207.979474 149.408966 
L 219.426579 154.581928 
L 230.873684 158.349884 
L 242.320789 161.650836 
L 253.767895 164.889619 
L 265.215 167.350909 
L 265.215 151.315387 
L 265.215 151.315387 
L 253.767895 147.688174 
L 242.320789 143.104016 
L 230.873684 139.046487 
L 219.426579 134.533163 
L 207.979474 128.929342 
L 196.532368 123.146739 
L 185.085263 116.859577 
L 173.638158 109.674758 
L 162.191053 102.791044 
L 150.743947 94.818479 
L 139.296842 87.014002 
L 127.849737 78.936603 
L 116.402632 71.370894 
L 104.955526 64.67933 
L 93.508421 58.691526 
L 82.061316 53.561159 
L 70.614211 49.525472 
L 59.167105 47.017875 
L 47.72 46.135155 
z
" clip-path="url(#p441fd16f6d)" style="fill: #e377c2; fill-opacity: 0.4"/>
   </g>
   <g id="PolyCollection_8">
    <path d="M 47.72 33.569428 
L 47.72 33.569646 
L 59.167105 33.842089 
L 70.614211 34.107882 
L 82.061316 34.82938 
L 93.508421 36.567535 
L 104.955526 39.214368 
L 116.402632 42.93546 
L 127.849737 47.90076 
L 139.296842 52.817679 
L 150.743947 58.185189 
L 162.191053 64.103958 
L 173.638158 69.71198 
L 185.085263 76.187015 
L 196.532368 82.470995 
L 207.979474 89.342829 
L 219.426579 96.078695 
L 230.873684 102.559592 
L 242.320789 108.521512 
L 253.767895 114.772595 
L 265.215 120.149975 
L 265.215 101.408867 
L 265.215 101.408867 
L 253.767895 96.513775 
L 242.320789 90.660542 
L 230.873684 85.585758 
L 219.426579 80.306263 
L 207.979474 74.344893 
L 196.532368 68.402998 
L 185.085263 62.646766 
L 173.638158 56.700028 
L 162.191053 51.570273 
L 150.743947 46.844353 
L 139.296842 42.886056 
L 127.849737 39.39851 
L 116.402632 37.1101 
L 104.955526 35.499607 
L 93.508421 34.591855 
L 82.061316 34.116513 
L 70.614211 33.906566 
L 59.167105 33.804887 
L 47.72 33.569428 
z
" clip-path="url(#p441fd16f6d)" style="fill: #7f7f7f; fill-opacity: 0.4"/>
   </g>
   <g id="matplotlib.axis_1">
    <g id="xtick_1">
     <g id="line2d_1">
      <defs>
       <path id="mc99a485873" d="M 0 0 
L 0 3.5 
" style="stroke: #000000; stroke-width: 0.8"/>
      </defs>
      <g>
       <use xlink:href="#mc99a485873" x="47.72" y="174.04" style="stroke: #000000; stroke-width: 0.8"/>
      </g>
     </g>
     <g id="text_1">
      <!-- 0.0 -->
      <g transform="translate(39.768438 188.638438)scale(0.1 -0.1)">
       <defs>
        <path id="DejaVuSans-30" d="M 2034 4250 
Q 1547 4250 1301 3770 
Q 1056 3291 1056 2328 
Q 1056 1369 1301 889 
Q 1547 409 2034 409 
Q 2525 409 2770 889 
Q 3016 1369 3016 2328 
Q 3016 3291 2770 3770 
Q 2525 4250 2034 4250 
z
M 2034 4750 
Q 2819 4750 3233 4129 
Q 3647 3509 3647 2328 
Q 3647 1150 3233 529 
Q 2819 -91 2034 -91 
Q 1250 -91 836 529 
Q 422 1150 422 2328 
Q 422 3509 836 4129 
Q 1250 4750 2034 4750 
z
" transform="scale(0.015625)"/>
        <path id="DejaVuSans-2e" d="M 684 794 
L 1344 794 
L 1344 0 
L 684 0 
L 684 794 
z
" transform="scale(0.015625)"/>
       </defs>
       <use xlink:href="#DejaVuSans-30"/>
       <use xlink:href="#DejaVuSans-2e" x="63.623047"/>
       <use xlink:href="#DejaVuSans-30" x="95.410156"/>
      </g>
     </g>
    </g>
    <g id="xtick_2">
     <g id="line2d_2">
      <g>
       <use xlink:href="#mc99a485873" x="102.09375" y="174.04" style="stroke: #000000; stroke-width: 0.8"/>
      </g>
     </g>
     <g id="text_2">
      <!-- 0.5 -->
      <g transform="translate(94.142188 188.638438)scale(0.1 -0.1)">
       <defs>
        <path id="DejaVuSans-35" d="M 691 4666 
L 3169 4666 
L 3169 4134 
L 1269 4134 
L 1269 2991 
Q 1406 3038 1543 3061 
Q 1681 3084 1819 3084 
Q 2600 3084 3056 2656 
Q 3513 2228 3513 1497 
Q 3513 744 3044 326 
Q 2575 -91 1722 -91 
Q 1428 -91 1123 -41 
Q 819 9 494 109 
L 494 744 
Q 775 591 1075 516 
Q 1375 441 1709 441 
Q 2250 441 2565 725 
Q 2881 1009 2881 1497 
Q 2881 1984 2565 2268 
Q 2250 2553 1709 2553 
Q 1456 2553 1204 2497 
Q 953 2441 691 2322 
L 691 4666 
z
" transform="scale(0.015625)"/>
       </defs>
       <use xlink:href="#DejaVuSans-30"/>
       <use xlink:href="#DejaVuSans-2e" x="63.623047"/>
       <use xlink:href="#DejaVuSans-35" x="95.410156"/>
      </g>
     </g>
    </g>
    <g id="xtick_3">
     <g id="line2d_3">
      <g>
       <use xlink:href="#mc99a485873" x="156.4675" y="174.04" style="stroke: #000000; stroke-width: 0.8"/>
      </g>
     </g>
     <g id="text_3">
      <!-- 1.0 -->
      <g transform="translate(148.515938 188.638438)scale(0.1 -0.1)">
       <defs>
        <path id="DejaVuSans-31" d="M 794 531 
L 1825 531 
L 1825 4091 
L 703 3866 
L 703 4441 
L 1819 4666 
L 2450 4666 
L 2450 531 
L 3481 531 
L 3481 0 
L 794 0 
L 794 531 
z
" transform="scale(0.015625)"/>
       </defs>
       <use xlink:href="#DejaVuSans-31"/>
       <use xlink:href="#DejaVuSans-2e" x="63.623047"/>
       <use xlink:href="#DejaVuSans-30" x="95.410156"/>
      </g>
     </g>
    </g>
    <g id="xtick_4">
     <g id="line2d_4">
      <g>
       <use xlink:href="#mc99a485873" x="210.84125" y="174.04" style="stroke: #000000; stroke-width: 0.8"/>
      </g>
     </g>
     <g id="text_4">
      <!-- 1.5 -->
      <g transform="translate(202.889687 188.638438)scale(0.1 -0.1)">
       <use xlink:href="#DejaVuSans-31"/>
       <use xlink:href="#DejaVuSans-2e" x="63.623047"/>
       <use xlink:href="#DejaVuSans-35" x="95.410156"/>
      </g>
     </g>
    </g>
    <g id="xtick_5">
     <g id="line2d_5">
      <g>
       <use xlink:href="#mc99a485873" x="265.215" y="174.04" style="stroke: #000000; stroke-width: 0.8"/>
      </g>
     </g>
     <g id="text_5">
      <!-- 2.0 -->
      <g transform="translate(257.263437 188.638438)scale(0.1 -0.1)">
       <defs>
        <path id="DejaVuSans-32" d="M 1228 531 
L 3431 531 
L 3431 0 
L 469 0 
L 469 531 
Q 828 903 1448 1529 
Q 2069 2156 2228 2338 
Q 2531 2678 2651 2914 
Q 2772 3150 2772 3378 
Q 2772 3750 2511 3984 
Q 2250 4219 1831 4219 
Q 1534 4219 1204 4116 
Q 875 4013 500 3803 
L 500 4441 
Q 881 4594 1212 4672 
Q 1544 4750 1819 4750 
Q 2544 4750 2975 4387 
Q 3406 4025 3406 3419 
Q 3406 3131 3298 2873 
Q 3191 2616 2906 2266 
Q 2828 2175 2409 1742 
Q 1991 1309 1228 531 
z
" transform="scale(0.015625)"/>
       </defs>
       <use xlink:href="#DejaVuSans-32"/>
       <use xlink:href="#DejaVuSans-2e" x="63.623047"/>
       <use xlink:href="#DejaVuSans-30" x="95.410156"/>
      </g>
     </g>
    </g>
    <g id="text_6">
     <!-- Influence of surprisal (multiplication) -->
     <g transform="translate(64.320625 202.316563)scale(0.1 -0.1)">
      <defs>
       <path id="DejaVuSans-49" d="M 628 4666 
L 1259 4666 
L 1259 0 
L 628 0 
L 628 4666 
z
" transform="scale(0.015625)"/>
       <path id="DejaVuSans-6e" d="M 3513 2113 
L 3513 0 
L 2938 0 
L 2938 2094 
Q 2938 2591 2744 2837 
Q 2550 3084 2163 3084 
Q 1697 3084 1428 2787 
Q 1159 2491 1159 1978 
L 1159 0 
L 581 0 
L 581 3500 
L 1159 3500 
L 1159 2956 
Q 1366 3272 1645 3428 
Q 1925 3584 2291 3584 
Q 2894 3584 3203 3211 
Q 3513 2838 3513 2113 
z
" transform="scale(0.015625)"/>
       <path id="DejaVuSans-66" d="M 2375 4863 
L 2375 4384 
L 1825 4384 
Q 1516 4384 1395 4259 
Q 1275 4134 1275 3809 
L 1275 3500 
L 2222 3500 
L 2222 3053 
L 1275 3053 
L 1275 0 
L 697 0 
L 697 3053 
L 147 3053 
L 147 3500 
L 697 3500 
L 697 3744 
Q 697 4328 969 4595 
Q 1241 4863 1831 4863 
L 2375 4863 
z
" transform="scale(0.015625)"/>
       <path id="DejaVuSans-6c" d="M 603 4863 
L 1178 4863 
L 1178 0 
L 603 0 
L 603 4863 
z
" transform="scale(0.015625)"/>
       <path id="DejaVuSans-75" d="M 544 1381 
L 544 3500 
L 1119 3500 
L 1119 1403 
Q 1119 906 1312 657 
Q 1506 409 1894 409 
Q 2359 409 2629 706 
Q 2900 1003 2900 1516 
L 2900 3500 
L 3475 3500 
L 3475 0 
L 2900 0 
L 2900 538 
Q 2691 219 2414 64 
Q 2138 -91 1772 -91 
Q 1169 -91 856 284 
Q 544 659 544 1381 
z
M 1991 3584 
L 1991 3584 
z
" transform="scale(0.015625)"/>
       <path id="DejaVuSans-65" d="M 3597 1894 
L 3597 1613 
L 953 1613 
Q 991 1019 1311 708 
Q 1631 397 2203 397 
Q 2534 397 2845 478 
Q 3156 559 3463 722 
L 3463 178 
Q 3153 47 2828 -22 
Q 2503 -91 2169 -91 
Q 1331 -91 842 396 
Q 353 884 353 1716 
Q 353 2575 817 3079 
Q 1281 3584 2069 3584 
Q 2775 3584 3186 3129 
Q 3597 2675 3597 1894 
z
M 3022 2063 
Q 3016 2534 2758 2815 
Q 2500 3097 2075 3097 
Q 1594 3097 1305 2825 
Q 1016 2553 972 2059 
L 3022 2063 
z
" transform="scale(0.015625)"/>
       <path id="DejaVuSans-63" d="M 3122 3366 
L 3122 2828 
Q 2878 2963 2633 3030 
Q 2388 3097 2138 3097 
Q 1578 3097 1268 2742 
Q 959 2388 959 1747 
Q 959 1106 1268 751 
Q 1578 397 2138 397 
Q 2388 397 2633 464 
Q 2878 531 3122 666 
L 3122 134 
Q 2881 22 2623 -34 
Q 2366 -91 2075 -91 
Q 1284 -91 818 406 
Q 353 903 353 1747 
Q 353 2603 823 3093 
Q 1294 3584 2113 3584 
Q 2378 3584 2631 3529 
Q 2884 3475 3122 3366 
z
" transform="scale(0.015625)"/>
       <path id="DejaVuSans-20" transform="scale(0.015625)"/>
       <path id="DejaVuSans-6f" d="M 1959 3097 
Q 1497 3097 1228 2736 
Q 959 2375 959 1747 
Q 959 1119 1226 758 
Q 1494 397 1959 397 
Q 2419 397 2687 759 
Q 2956 1122 2956 1747 
Q 2956 2369 2687 2733 
Q 2419 3097 1959 3097 
z
M 1959 3584 
Q 2709 3584 3137 3096 
Q 3566 2609 3566 1747 
Q 3566 888 3137 398 
Q 2709 -91 1959 -91 
Q 1206 -91 779 398 
Q 353 888 353 1747 
Q 353 2609 779 3096 
Q 1206 3584 1959 3584 
z
" transform="scale(0.015625)"/>
       <path id="DejaVuSans-73" d="M 2834 3397 
L 2834 2853 
Q 2591 2978 2328 3040 
Q 2066 3103 1784 3103 
Q 1356 3103 1142 2972 
Q 928 2841 928 2578 
Q 928 2378 1081 2264 
Q 1234 2150 1697 2047 
L 1894 2003 
Q 2506 1872 2764 1633 
Q 3022 1394 3022 966 
Q 3022 478 2636 193 
Q 2250 -91 1575 -91 
Q 1294 -91 989 -36 
Q 684 19 347 128 
L 347 722 
Q 666 556 975 473 
Q 1284 391 1588 391 
Q 1994 391 2212 530 
Q 2431 669 2431 922 
Q 2431 1156 2273 1281 
Q 2116 1406 1581 1522 
L 1381 1569 
Q 847 1681 609 1914 
Q 372 2147 372 2553 
Q 372 3047 722 3315 
Q 1072 3584 1716 3584 
Q 2034 3584 2315 3537 
Q 2597 3491 2834 3397 
z
" transform="scale(0.015625)"/>
       <path id="DejaVuSans-72" d="M 2631 2963 
Q 2534 3019 2420 3045 
Q 2306 3072 2169 3072 
Q 1681 3072 1420 2755 
Q 1159 2438 1159 1844 
L 1159 0 
L 581 0 
L 581 3500 
L 1159 3500 
L 1159 2956 
Q 1341 3275 1631 3429 
Q 1922 3584 2338 3584 
Q 2397 3584 2469 3576 
Q 2541 3569 2628 3553 
L 2631 2963 
z
" transform="scale(0.015625)"/>
       <path id="DejaVuSans-70" d="M 1159 525 
L 1159 -1331 
L 581 -1331 
L 581 3500 
L 1159 3500 
L 1159 2969 
Q 1341 3281 1617 3432 
Q 1894 3584 2278 3584 
Q 2916 3584 3314 3078 
Q 3713 2572 3713 1747 
Q 3713 922 3314 415 
Q 2916 -91 2278 -91 
Q 1894 -91 1617 61 
Q 1341 213 1159 525 
z
M 3116 1747 
Q 3116 2381 2855 2742 
Q 2594 3103 2138 3103 
Q 1681 3103 1420 2742 
Q 1159 2381 1159 1747 
Q 1159 1113 1420 752 
Q 1681 391 2138 391 
Q 2594 391 2855 752 
Q 3116 1113 3116 1747 
z
" transform="scale(0.015625)"/>
       <path id="DejaVuSans-69" d="M 603 3500 
L 1178 3500 
L 1178 0 
L 603 0 
L 603 3500 
z
M 603 4863 
L 1178 4863 
L 1178 4134 
L 603 4134 
L 603 4863 
z
" transform="scale(0.015625)"/>
       <path id="DejaVuSans-61" d="M 2194 1759 
Q 1497 1759 1228 1600 
Q 959 1441 959 1056 
Q 959 750 1161 570 
Q 1363 391 1709 391 
Q 2188 391 2477 730 
Q 2766 1069 2766 1631 
L 2766 1759 
L 2194 1759 
z
M 3341 1997 
L 3341 0 
L 2766 0 
L 2766 531 
Q 2569 213 2275 61 
Q 1981 -91 1556 -91 
Q 1019 -91 701 211 
Q 384 513 384 1019 
Q 384 1609 779 1909 
Q 1175 2209 1959 2209 
L 2766 2209 
L 2766 2266 
Q 2766 2663 2505 2880 
Q 2244 3097 1772 3097 
Q 1472 3097 1187 3025 
Q 903 2953 641 2809 
L 641 3341 
Q 956 3463 1253 3523 
Q 1550 3584 1831 3584 
Q 2591 3584 2966 3190 
Q 3341 2797 3341 1997 
z
" transform="scale(0.015625)"/>
       <path id="DejaVuSans-28" d="M 1984 4856 
Q 1566 4138 1362 3434 
Q 1159 2731 1159 2009 
Q 1159 1288 1364 580 
Q 1569 -128 1984 -844 
L 1484 -844 
Q 1016 -109 783 600 
Q 550 1309 550 2009 
Q 550 2706 781 3412 
Q 1013 4119 1484 4856 
L 1984 4856 
z
" transform="scale(0.015625)"/>
       <path id="DejaVuSans-6d" d="M 3328 2828 
Q 3544 3216 3844 3400 
Q 4144 3584 4550 3584 
Q 5097 3584 5394 3201 
Q 5691 2819 5691 2113 
L 5691 0 
L 5113 0 
L 5113 2094 
Q 5113 2597 4934 2840 
Q 4756 3084 4391 3084 
Q 3944 3084 3684 2787 
Q 3425 2491 3425 1978 
L 3425 0 
L 2847 0 
L 2847 2094 
Q 2847 2600 2669 2842 
Q 2491 3084 2119 3084 
Q 1678 3084 1418 2786 
Q 1159 2488 1159 1978 
L 1159 0 
L 581 0 
L 581 3500 
L 1159 3500 
L 1159 2956 
Q 1356 3278 1631 3431 
Q 1906 3584 2284 3584 
Q 2666 3584 2933 3390 
Q 3200 3197 3328 2828 
z
" transform="scale(0.015625)"/>
       <path id="DejaVuSans-74" d="M 1172 4494 
L 1172 3500 
L 2356 3500 
L 2356 3053 
L 1172 3053 
L 1172 1153 
Q 1172 725 1289 603 
Q 1406 481 1766 481 
L 2356 481 
L 2356 0 
L 1766 0 
Q 1100 0 847 248 
Q 594 497 594 1153 
L 594 3053 
L 172 3053 
L 172 3500 
L 594 3500 
L 594 4494 
L 1172 4494 
z
" transform="scale(0.015625)"/>
       <path id="DejaVuSans-29" d="M 513 4856 
L 1013 4856 
Q 1481 4119 1714 3412 
Q 1947 2706 1947 2009 
Q 1947 1309 1714 600 
Q 1481 -109 1013 -844 
L 513 -844 
Q 928 -128 1133 580 
Q 1338 1288 1338 2009 
Q 1338 2731 1133 3434 
Q 928 4138 513 4856 
z
" transform="scale(0.015625)"/>
      </defs>
      <use xlink:href="#DejaVuSans-49"/>
      <use xlink:href="#DejaVuSans-6e" x="29.492188"/>
      <use xlink:href="#DejaVuSans-66" x="92.871094"/>
      <use xlink:href="#DejaVuSans-6c" x="128.076172"/>
      <use xlink:href="#DejaVuSans-75" x="155.859375"/>
      <use xlink:href="#DejaVuSans-65" x="219.238281"/>
      <use xlink:href="#DejaVuSans-6e" x="280.761719"/>
      <use xlink:href="#DejaVuSans-63" x="344.140625"/>
      <use xlink:href="#DejaVuSans-65" x="399.121094"/>
      <use xlink:href="#DejaVuSans-20" x="460.644531"/>
      <use xlink:href="#DejaVuSans-6f" x="492.431641"/>
      <use xlink:href="#DejaVuSans-66" x="553.613281"/>
      <use xlink:href="#DejaVuSans-20" x="588.818359"/>
      <use xlink:href="#DejaVuSans-73" x="620.605469"/>
      <use xlink:href="#DejaVuSans-75" x="672.705078"/>
      <use xlink:href="#DejaVuSans-72" x="736.083984"/>
      <use xlink:href="#DejaVuSans-70" x="777.197266"/>
      <use xlink:href="#DejaVuSans-72" x="840.673828"/>
      <use xlink:href="#DejaVuSans-69" x="881.787109"/>
      <use xlink:href="#DejaVuSans-73" x="909.570312"/>
      <use xlink:href="#DejaVuSans-61" x="961.669922"/>
      <use xlink:href="#DejaVuSans-6c" x="1022.949219"/>
      <use xlink:href="#DejaVuSans-20" x="1050.732422"/>
      <use xlink:href="#DejaVuSans-28" x="1082.519531"/>
      <use xlink:href="#DejaVuSans-6d" x="1121.533203"/>
      <use xlink:href="#DejaVuSans-75" x="1218.945312"/>
      <use xlink:href="#DejaVuSans-6c" x="1282.324219"/>
      <use xlink:href="#DejaVuSans-74" x="1310.107422"/>
      <use xlink:href="#DejaVuSans-69" x="1349.316406"/>
      <use xlink:href="#DejaVuSans-70" x="1377.099609"/>
      <use xlink:href="#DejaVuSans-6c" x="1440.576172"/>
      <use xlink:href="#DejaVuSans-69" x="1468.359375"/>
      <use xlink:href="#DejaVuSans-63" x="1496.142578"/>
      <use xlink:href="#DejaVuSans-61" x="1551.123047"/>
      <use xlink:href="#DejaVuSans-74" x="1612.402344"/>
      <use xlink:href="#DejaVuSans-69" x="1651.611328"/>
      <use xlink:href="#DejaVuSans-6f" x="1679.394531"/>
      <use xlink:href="#DejaVuSans-6e" x="1740.576172"/>
      <use xlink:href="#DejaVuSans-29" x="1803.955078"/>
     </g>
    </g>
   </g>
   <g id="matplotlib.axis_2">
    <g id="ytick_1">
     <g id="line2d_6">
      <defs>
       <path id="m2e8adc99d0" d="M 0 0 
L -3.5 0 
" style="stroke: #000000; stroke-width: 0.8"/>
      </defs>
      <g>
       <use xlink:href="#m2e8adc99d0" x="47.72" y="173.195795" style="stroke: #000000; stroke-width: 0.8"/>
      </g>
     </g>
     <g id="text_7">
      <!-- 0.2 -->
      <g transform="translate(24.816875 176.995014)scale(0.1 -0.1)">
       <use xlink:href="#DejaVuSans-30"/>
       <use xlink:href="#DejaVuSans-2e" x="63.623047"/>
       <use xlink:href="#DejaVuSans-32" x="95.410156"/>
      </g>
     </g>
    </g>
    <g id="ytick_2">
     <g id="line2d_7">
      <g>
       <use xlink:href="#m2e8adc99d0" x="47.72" y="138.289118" style="stroke: #000000; stroke-width: 0.8"/>
      </g>
     </g>
     <g id="text_8">
      <!-- 0.4 -->
      <g transform="translate(24.816875 142.088337)scale(0.1 -0.1)">
       <defs>
        <path id="DejaVuSans-34" d="M 2419 4116 
L 825 1625 
L 2419 1625 
L 2419 4116 
z
M 2253 4666 
L 3047 4666 
L 3047 1625 
L 3713 1625 
L 3713 1100 
L 3047 1100 
L 3047 0 
L 2419 0 
L 2419 1100 
L 313 1100 
L 313 1709 
L 2253 4666 
z
" transform="scale(0.015625)"/>
       </defs>
       <use xlink:href="#DejaVuSans-30"/>
       <use xlink:href="#DejaVuSans-2e" x="63.623047"/>
       <use xlink:href="#DejaVuSans-34" x="95.410156"/>
      </g>
     </g>
    </g>
    <g id="ytick_3">
     <g id="line2d_8">
      <g>
       <use xlink:href="#m2e8adc99d0" x="47.72" y="103.382442" style="stroke: #000000; stroke-width: 0.8"/>
      </g>
     </g>
     <g id="text_9">
      <!-- 0.6 -->
      <g transform="translate(24.816875 107.18166)scale(0.1 -0.1)">
       <defs>
        <path id="DejaVuSans-36" d="M 2113 2584 
Q 1688 2584 1439 2293 
Q 1191 2003 1191 1497 
Q 1191 994 1439 701 
Q 1688 409 2113 409 
Q 2538 409 2786 701 
Q 3034 994 3034 1497 
Q 3034 2003 2786 2293 
Q 2538 2584 2113 2584 
z
M 3366 4563 
L 3366 3988 
Q 3128 4100 2886 4159 
Q 2644 4219 2406 4219 
Q 1781 4219 1451 3797 
Q 1122 3375 1075 2522 
Q 1259 2794 1537 2939 
Q 1816 3084 2150 3084 
Q 2853 3084 3261 2657 
Q 3669 2231 3669 1497 
Q 3669 778 3244 343 
Q 2819 -91 2113 -91 
Q 1303 -91 875 529 
Q 447 1150 447 2328 
Q 447 3434 972 4092 
Q 1497 4750 2381 4750 
Q 2619 4750 2861 4703 
Q 3103 4656 3366 4563 
z
" transform="scale(0.015625)"/>
       </defs>
       <use xlink:href="#DejaVuSans-30"/>
       <use xlink:href="#DejaVuSans-2e" x="63.623047"/>
       <use xlink:href="#DejaVuSans-36" x="95.410156"/>
      </g>
     </g>
    </g>
    <g id="ytick_4">
     <g id="line2d_9">
      <g>
       <use xlink:href="#m2e8adc99d0" x="47.72" y="68.475765" style="stroke: #000000; stroke-width: 0.8"/>
      </g>
     </g>
     <g id="text_10">
      <!-- 0.8 -->
      <g transform="translate(24.816875 72.274984)scale(0.1 -0.1)">
       <defs>
        <path id="DejaVuSans-38" d="M 2034 2216 
Q 1584 2216 1326 1975 
Q 1069 1734 1069 1313 
Q 1069 891 1326 650 
Q 1584 409 2034 409 
Q 2484 409 2743 651 
Q 3003 894 3003 1313 
Q 3003 1734 2745 1975 
Q 2488 2216 2034 2216 
z
M 1403 2484 
Q 997 2584 770 2862 
Q 544 3141 544 3541 
Q 544 4100 942 4425 
Q 1341 4750 2034 4750 
Q 2731 4750 3128 4425 
Q 3525 4100 3525 3541 
Q 3525 3141 3298 2862 
Q 3072 2584 2669 2484 
Q 3125 2378 3379 2068 
Q 3634 1759 3634 1313 
Q 3634 634 3220 271 
Q 2806 -91 2034 -91 
Q 1263 -91 848 271 
Q 434 634 434 1313 
Q 434 1759 690 2068 
Q 947 2378 1403 2484 
z
M 1172 3481 
Q 1172 3119 1398 2916 
Q 1625 2713 2034 2713 
Q 2441 2713 2670 2916 
Q 2900 3119 2900 3481 
Q 2900 3844 2670 4047 
Q 2441 4250 2034 4250 
Q 1625 4250 1398 4047 
Q 1172 3844 1172 3481 
z
" transform="scale(0.015625)"/>
       </defs>
       <use xlink:href="#DejaVuSans-30"/>
       <use xlink:href="#DejaVuSans-2e" x="63.623047"/>
       <use xlink:href="#DejaVuSans-38" x="95.410156"/>
      </g>
     </g>
    </g>
    <g id="ytick_5">
     <g id="line2d_10">
      <g>
       <use xlink:href="#m2e8adc99d0" x="47.72" y="33.569088" style="stroke: #000000; stroke-width: 0.8"/>
      </g>
     </g>
     <g id="text_11">
      <!-- 1.0 -->
      <g transform="translate(24.816875 37.368307)scale(0.1 -0.1)">
       <use xlink:href="#DejaVuSans-31"/>
       <use xlink:href="#DejaVuSans-2e" x="63.623047"/>
       <use xlink:href="#DejaVuSans-30" x="95.410156"/>
      </g>
     </g>
    </g>
    <g id="text_12">
     <!-- R-value -->
     <g transform="translate(18.737188 119.064687)rotate(-90)scale(0.1 -0.1)">
      <defs>
       <path id="DejaVuSans-52" d="M 2841 2188 
Q 3044 2119 3236 1894 
Q 3428 1669 3622 1275 
L 4263 0 
L 3584 0 
L 2988 1197 
Q 2756 1666 2539 1819 
Q 2322 1972 1947 1972 
L 1259 1972 
L 1259 0 
L 628 0 
L 628 4666 
L 2053 4666 
Q 2853 4666 3247 4331 
Q 3641 3997 3641 3322 
Q 3641 2881 3436 2590 
Q 3231 2300 2841 2188 
z
M 1259 4147 
L 1259 2491 
L 2053 2491 
Q 2509 2491 2742 2702 
Q 2975 2913 2975 3322 
Q 2975 3731 2742 3939 
Q 2509 4147 2053 4147 
L 1259 4147 
z
" transform="scale(0.015625)"/>
       <path id="DejaVuSans-2d" d="M 313 2009 
L 1997 2009 
L 1997 1497 
L 313 1497 
L 313 2009 
z
" transform="scale(0.015625)"/>
       <path id="DejaVuSans-76" d="M 191 3500 
L 800 3500 
L 1894 563 
L 2988 3500 
L 3597 3500 
L 2284 0 
L 1503 0 
L 191 3500 
z
" transform="scale(0.015625)"/>
      </defs>
      <use xlink:href="#DejaVuSans-52"/>
      <use xlink:href="#DejaVuSans-2d" x="65.482422"/>
      <use xlink:href="#DejaVuSans-76" x="98.941406"/>
      <use xlink:href="#DejaVuSans-61" x="158.121094"/>
      <use xlink:href="#DejaVuSans-6c" x="219.400391"/>
      <use xlink:href="#DejaVuSans-75" x="247.183594"/>
      <use xlink:href="#DejaVuSans-65" x="310.5625"/>
     </g>
    </g>
   </g>
   <g id="line2d_11">
    <path d="M 47.72 33.569091 
L 59.167105 34.492172 
L 70.614211 37.37648 
L 82.061316 41.488336 
L 93.508421 46.896088 
L 104.955526 53.004492 
L 116.402632 59.947951 
L 127.849737 67.548179 
L 139.296842 74.964974 
L 150.743947 82.173812 
L 162.191053 89.927844 
L 173.638158 96.543409 
L 185.085263 103.729844 
L 196.532368 109.970939 
L 207.979474 115.783956 
L 219.426579 121.601764 
L 230.873684 126.339851 
L 242.320789 130.567035 
L 253.767895 135.260916 
L 265.215 138.972359 
" clip-path="url(#p441fd16f6d)" style="fill: none; stroke: #1f77b4; stroke-width: 1.5; stroke-linecap: square"/>
   </g>
   <g id="line2d_12">
    <path d="M 47.72 33.569276 
L 59.167105 34.147357 
L 70.614211 35.620439 
L 82.061316 37.798001 
L 93.508421 40.901826 
L 104.955526 44.721409 
L 116.402632 49.314713 
L 127.849737 54.681651 
L 139.296842 60.355002 
L 150.743947 65.993577 
L 162.191053 72.316199 
L 173.638158 78.03421 
L 185.085263 84.568302 
L 196.532368 90.515929 
L 207.979474 96.339832 
L 219.426579 102.18942 
L 230.873684 107.371327 
L 242.320789 112.094352 
L 253.767895 117.371021 
L 265.215 121.84863 
" clip-path="url(#p441fd16f6d)" style="fill: none; stroke: #ff7f0e; stroke-width: 1.5; stroke-linecap: square"/>
   </g>
   <g id="line2d_13">
    <path d="M 47.72 33.569101 
L 59.167105 34.257092 
L 70.614211 35.587393 
L 82.061316 37.392674 
L 93.508421 39.754557 
L 104.955526 42.36649 
L 116.402632 45.34367 
L 127.849737 48.849557 
L 139.296842 52.094852 
L 150.743947 55.645503 
L 162.191053 59.298948 
L 173.638158 62.813421 
L 185.085263 66.743384 
L 196.532368 70.140683 
L 207.979474 73.999515 
L 219.426579 77.749558 
L 230.873684 81.087139 
L 242.320789 84.028095 
L 253.767895 87.461575 
L 265.215 90.61794 
" clip-path="url(#p441fd16f6d)" style="fill: none; stroke: #2ca02c; stroke-width: 1.5; stroke-linecap: square"/>
   </g>
   <g id="line2d_14">
    <path d="M 47.72 33.570068 
L 59.167105 34.110352 
L 70.614211 35.08597 
L 82.061316 36.432253 
L 93.508421 38.299268 
L 104.955526 40.511559 
L 116.402632 43.142543 
L 127.849737 46.394869 
L 139.296842 49.630329 
L 150.743947 53.124171 
L 162.191053 56.865133 
L 173.638158 60.441329 
L 185.085263 64.498995 
L 196.532368 67.972169 
L 207.979474 71.848513 
L 219.426579 75.629521 
L 230.873684 79.044562 
L 242.320789 82.128005 
L 253.767895 85.719846 
L 265.215 89.03475 
" clip-path="url(#p441fd16f6d)" style="fill: none; stroke: #d62728; stroke-width: 1.5; stroke-linecap: square"/>
   </g>
   <g id="line2d_15">
    <path d="M 47.72 33.569101 
L 59.167105 34.494925 
L 70.614211 37.396294 
L 82.061316 41.495848 
L 93.508421 46.938927 
L 104.955526 53.031721 
L 116.402632 60.02126 
L 127.849737 67.505137 
L 139.296842 75.10064 
L 150.743947 82.182499 
L 162.191053 90.298522 
L 173.638158 96.733165 
L 185.085263 104.053191 
L 196.532368 110.2511 
L 207.979474 115.896645 
L 219.426579 121.651396 
L 230.873684 126.17709 
L 242.320789 131.559368 
L 253.767895 135.349373 
L 265.215 139.216625 
" clip-path="url(#p441fd16f6d)" style="fill: none; stroke: #9467bd; stroke-width: 1.5; stroke-linecap: square"/>
   </g>
   <g id="line2d_16">
    <path d="M 47.72 33.569835 
L 59.167105 34.149868 
L 70.614211 35.627399 
L 82.061316 37.796567 
L 93.508421 40.914994 
L 104.955526 44.744588 
L 116.402632 49.377594 
L 127.849737 54.668501 
L 139.296842 60.454578 
L 150.743947 66.059311 
L 162.191053 72.52758 
L 173.638158 78.144298 
L 185.085263 84.639842 
L 196.532368 90.696186 
L 207.979474 96.509267 
L 219.426579 102.377271 
L 230.873684 107.362209 
L 242.320789 112.78845 
L 253.767895 117.46806 
L 265.215 121.980978 
" clip-path="url(#p441fd16f6d)" style="fill: none; stroke: #8c564b; stroke-width: 1.5; stroke-linecap: square"/>
   </g>
   <g id="line2d_17">
    <path d="M 47.72 48.587888 
L 59.167105 49.793002 
L 70.614211 53.204447 
L 82.061316 58.334175 
L 93.508421 64.783123 
L 104.955526 72.032409 
L 116.402632 79.833991 
L 127.849737 88.473897 
L 139.296842 96.587593 
L 150.743947 104.480872 
L 162.191053 112.633161 
L 173.638158 119.83735 
L 185.085263 127.064662 
L 196.532368 133.490259 
L 207.979474 139.169154 
L 219.426579 144.557546 
L 230.873684 148.698186 
L 242.320789 152.377426 
L 253.767895 156.288897 
L 265.215 159.333148 
" clip-path="url(#p441fd16f6d)" style="fill: none; stroke: #e377c2; stroke-width: 1.5; stroke-linecap: square"/>
   </g>
   <g id="line2d_18">
    <path d="M 47.72 33.569537 
L 59.167105 33.823488 
L 70.614211 34.007224 
L 82.061316 34.472946 
L 93.508421 35.579695 
L 104.955526 37.356988 
L 116.402632 40.02278 
L 127.849737 43.649635 
L 139.296842 47.851867 
L 150.743947 52.514771 
L 162.191053 57.837115 
L 173.638158 63.206004 
L 185.085263 69.41689 
L 196.532368 75.436996 
L 207.979474 81.843861 
L 219.426579 88.192479 
L 230.873684 94.072675 
L 242.320789 99.591027 
L 253.767895 105.643185 
L 265.215 110.779421 
" clip-path="url(#p441fd16f6d)" style="fill: none; stroke: #7f7f7f; stroke-width: 1.5; stroke-linecap: square"/>
   </g>
   <g id="patch_3">
    <path d="M 47.72 174.04 
L 47.72 26.88 
" style="fill: none; stroke: #000000; stroke-width: 0.8; stroke-linejoin: miter; stroke-linecap: square"/>
   </g>
   <g id="patch_4">
    <path d="M 47.72 174.04 
L 265.215 174.04 
" style="fill: none; stroke: #000000; stroke-width: 0.8; stroke-linejoin: miter; stroke-linecap: square"/>
   </g>
   <g id="text_13">
    <!-- Node * surprisal -->
    <g transform="translate(108.18625 20.88)scale(0.12 -0.12)">
     <defs>
      <path id="DejaVuSans-4e" d="M 628 4666 
L 1478 4666 
L 3547 763 
L 3547 4666 
L 4159 4666 
L 4159 0 
L 3309 0 
L 1241 3903 
L 1241 0 
L 628 0 
L 628 4666 
z
" transform="scale(0.015625)"/>
      <path id="DejaVuSans-64" d="M 2906 2969 
L 2906 4863 
L 3481 4863 
L 3481 0 
L 2906 0 
L 2906 525 
Q 2725 213 2448 61 
Q 2172 -91 1784 -91 
Q 1150 -91 751 415 
Q 353 922 353 1747 
Q 353 2572 751 3078 
Q 1150 3584 1784 3584 
Q 2172 3584 2448 3432 
Q 2725 3281 2906 2969 
z
M 947 1747 
Q 947 1113 1208 752 
Q 1469 391 1925 391 
Q 2381 391 2643 752 
Q 2906 1113 2906 1747 
Q 2906 2381 2643 2742 
Q 2381 3103 1925 3103 
Q 1469 3103 1208 2742 
Q 947 2381 947 1747 
z
" transform="scale(0.015625)"/>
      <path id="DejaVuSans-2a" d="M 3009 3897 
L 1888 3291 
L 3009 2681 
L 2828 2375 
L 1778 3009 
L 1778 1831 
L 1422 1831 
L 1422 3009 
L 372 2375 
L 191 2681 
L 1313 3291 
L 191 3897 
L 372 4206 
L 1422 3572 
L 1422 4750 
L 1778 4750 
L 1778 3572 
L 2828 4206 
L 3009 3897 
z
" transform="scale(0.015625)"/>
     </defs>
     <use xlink:href="#DejaVuSans-4e"/>
     <use xlink:href="#DejaVuSans-6f" x="74.804688"/>
     <use xlink:href="#DejaVuSans-64" x="135.986328"/>
     <use xlink:href="#DejaVuSans-65" x="199.462891"/>
     <use xlink:href="#DejaVuSans-20" x="260.986328"/>
     <use xlink:href="#DejaVuSans-2a" x="292.773438"/>
     <use xlink:href="#DejaVuSans-20" x="342.773438"/>
     <use xlink:href="#DejaVuSans-73" x="374.560547"/>
     <use xlink:href="#DejaVuSans-75" x="426.660156"/>
     <use xlink:href="#DejaVuSans-72" x="490.039062"/>
     <use xlink:href="#DejaVuSans-70" x="531.152344"/>
     <use xlink:href="#DejaVuSans-72" x="594.628906"/>
     <use xlink:href="#DejaVuSans-69" x="635.742188"/>
     <use xlink:href="#DejaVuSans-73" x="663.525391"/>
     <use xlink:href="#DejaVuSans-61" x="715.625"/>
     <use xlink:href="#DejaVuSans-6c" x="776.904297"/>
    </g>
   </g>
  </g>
  <g id="axes_2">
   <g id="patch_5">
    <path d="M 298.065 174.04 
L 515.56 174.04 
L 515.56 26.88 
L 298.065 26.88 
z
" style="fill: #ffffff"/>
   </g>
   <g id="PolyCollection_9">
    <path d="M 298.065 33.569091 
L 298.065 33.569092 
L 309.512105 34.724877 
L 320.959211 37.589342 
L 332.406316 42.084169 
L 343.853421 47.69427 
L 355.300526 54.557089 
L 366.747632 61.77877 
L 378.194737 69.789213 
L 389.641842 77.691389 
L 401.088947 85.929064 
L 412.536053 92.983845 
L 423.983158 100.480554 
L 435.430263 107.271837 
L 446.877368 113.493919 
L 458.324474 120.130674 
L 469.771579 125.790874 
L 481.218684 131.313192 
L 492.665789 136.578749 
L 504.112895 140.783977 
L 515.56 145.414778 
L 515.56 133.396485 
L 515.56 133.396485 
L 504.112895 128.228296 
L 492.665789 122.585779 
L 481.218684 116.773173 
L 469.771579 111.046947 
L 458.324474 105.096052 
L 446.877368 98.867053 
L 435.430263 92.141022 
L 423.983158 85.262216 
L 412.536053 79.223936 
L 401.088947 72.429826 
L 389.641842 65.815403 
L 378.194737 59.362665 
L 366.747632 53.650474 
L 355.300526 47.995115 
L 343.853421 43.096282 
L 332.406316 39.316529 
L 320.959211 36.301891 
L 309.512105 34.299518 
L 298.065 33.569091 
z
" clip-path="url(#pd8f7e3e79a)" style="fill: #1f77b4; fill-opacity: 0.4"/>
   </g>
   <g id="PolyCollection_10">
    <path d="M 298.065 33.569239 
L 298.065 33.569312 
L 309.512105 34.723129 
L 320.959211 37.583999 
L 332.406316 42.068976 
L 343.853421 47.680026 
L 355.300526 54.545724 
L 366.747632 61.753069 
L 378.194737 69.758174 
L 389.641842 77.66251 
L 401.088947 85.883287 
L 412.536053 92.931461 
L 423.983158 100.40529 
L 435.430263 107.194236 
L 446.877368 113.420122 
L 458.324474 120.055049 
L 469.771579 125.719652 
L 481.218684 131.228668 
L 492.665789 136.507057 
L 504.112895 140.697527 
L 515.56 145.292016 
L 515.56 133.869328 
L 515.56 133.869328 
L 504.112895 128.635353 
L 492.665789 122.979 
L 481.218684 117.08311 
L 469.771579 111.304617 
L 458.324474 105.312634 
L 446.877368 99.046642 
L 435.430263 92.299033 
L 423.983158 85.350614 
L 412.536053 79.291784 
L 401.088947 72.486967 
L 389.641842 65.833328 
L 378.194737 59.37503 
L 366.747632 53.656813 
L 355.300526 47.992595 
L 343.853421 43.119287 
L 332.406316 39.332613 
L 320.959211 36.301507 
L 309.512105 34.300961 
L 298.065 33.569239 
z
" clip-path="url(#pd8f7e3e79a)" style="fill: #ff7f0e; fill-opacity: 0.4"/>
   </g>
   <g id="PolyCollection_11">
    <path d="M 298.065 33.569099 
L 298.065 33.569103 
L 309.512105 34.722183 
L 320.959211 37.595597 
L 332.406316 42.078155 
L 343.853421 47.712114 
L 355.300526 54.593279 
L 366.747632 61.857436 
L 378.194737 69.903029 
L 389.641842 77.799817 
L 401.088947 86.074872 
L 412.536053 93.105691 
L 423.983158 100.585699 
L 435.430263 107.369162 
L 446.877368 113.553755 
L 458.324474 120.151292 
L 469.771579 125.8102 
L 481.218684 131.296314 
L 492.665789 136.517491 
L 504.112895 140.70917 
L 515.56 145.327168 
L 515.56 133.528423 
L 515.56 133.528423 
L 504.112895 128.441567 
L 492.665789 122.823939 
L 481.218684 117.046587 
L 469.771579 111.31868 
L 458.324474 105.339424 
L 446.877368 99.088926 
L 435.430263 92.321302 
L 423.983158 85.402431 
L 412.536053 79.328442 
L 401.088947 72.493966 
L 389.641842 65.825599 
L 378.194737 59.340768 
L 366.747632 53.630617 
L 355.300526 47.956641 
L 343.853421 43.090974 
L 332.406316 39.307897 
L 320.959211 36.290185 
L 309.512105 34.29561 
L 298.065 33.569099 
z
" clip-path="url(#pd8f7e3e79a)" style="fill: #2ca02c; fill-opacity: 0.4"/>
   </g>
   <g id="PolyCollection_12">
    <path d="M 298.065 33.569871 
L 298.065 33.570265 
L 309.512105 34.722664 
L 320.959211 37.593277 
L 332.406316 42.071653 
L 343.853421 47.700813 
L 355.300526 54.583921 
L 366.747632 61.836719 
L 378.194737 69.8962 
L 389.641842 77.806184 
L 401.088947 86.074183 
L 412.536053 93.120794 
L 423.983158 100.617479 
L 435.430263 107.421113 
L 446.877368 113.658556 
L 458.324474 120.244587 
L 469.771579 125.93982 
L 481.218684 131.392629 
L 492.665789 136.662023 
L 504.112895 140.816475 
L 515.56 145.445407 
L 515.56 133.966423 
L 515.56 133.966423 
L 504.112895 128.838789 
L 492.665789 123.170545 
L 481.218684 117.341329 
L 469.771579 111.564859 
L 458.324474 105.546876 
L 446.877368 99.273047 
L 435.430263 92.483369 
L 423.983158 85.517673 
L 412.536053 79.436717 
L 401.088947 72.59033 
L 389.641842 65.889701 
L 378.194737 59.394881 
L 366.747632 53.669461 
L 355.300526 47.985679 
L 343.853421 43.116479 
L 332.406316 39.322815 
L 320.959211 36.296821 
L 309.512105 34.298737 
L 298.065 33.569871 
z
" clip-path="url(#pd8f7e3e79a)" style="fill: #d62728; fill-opacity: 0.4"/>
   </g>
   <g id="PolyCollection_13">
    <path d="M 298.065 33.5691 
L 298.065 33.569103 
L 309.512105 34.722736 
L 320.959211 37.588643 
L 332.406316 42.10723 
L 343.853421 47.662261 
L 355.300526 54.636881 
L 366.747632 61.769784 
L 378.194737 70.117272 
L 389.641842 77.780927 
L 401.088947 86.033652 
L 412.536053 92.999514 
L 423.983158 100.760653 
L 435.430263 107.350973 
L 446.877368 113.634796 
L 458.324474 120.425684 
L 469.771579 126.137944 
L 481.218684 132.272878 
L 492.665789 136.82821 
L 504.112895 141.166205 
L 515.56 145.157607 
L 515.56 133.575669 
L 515.56 133.575669 
L 504.112895 128.681011 
L 492.665789 122.711892 
L 481.218684 117.26725 
L 469.771579 111.667616 
L 458.324474 105.116827 
L 446.877368 98.775547 
L 435.430263 92.304126 
L 423.983158 85.195073 
L 412.536053 79.115987 
L 401.088947 72.806944 
L 389.641842 65.986743 
L 378.194737 59.349638 
L 366.747632 53.719873 
L 355.300526 48.01567 
L 343.853421 43.12052 
L 332.406316 39.330701 
L 320.959211 36.29421 
L 309.512105 34.302539 
L 298.065 33.5691 
z
" clip-path="url(#pd8f7e3e79a)" style="fill: #9467bd; fill-opacity: 0.4"/>
   </g>
   <g id="PolyCollection_14">
    <path d="M 298.065 33.569693 
L 298.065 33.569979 
L 309.512105 34.72161 
L 320.959211 37.583268 
L 332.406316 42.094235 
L 343.853421 47.649692 
L 355.300526 54.624656 
L 366.747632 61.74283 
L 378.194737 70.085453 
L 389.641842 77.750801 
L 401.088947 85.98497 
L 412.536053 92.943832 
L 423.983158 100.676784 
L 435.430263 107.271477 
L 446.877368 113.571679 
L 458.324474 120.337141 
L 469.771579 126.060139 
L 481.218684 132.189275 
L 492.665789 136.761799 
L 504.112895 141.046958 
L 515.56 145.011964 
L 515.56 134.084209 
L 515.56 134.084209 
L 504.112895 129.103245 
L 492.665789 123.100405 
L 481.218684 117.574204 
L 469.771579 111.84526 
L 458.324474 105.354634 
L 446.877368 98.957102 
L 435.430263 92.451919 
L 423.983158 85.309759 
L 412.536053 79.189376 
L 401.088947 72.853191 
L 389.641842 66.009399 
L 378.194737 59.366304 
L 366.747632 53.727548 
L 355.300526 48.019872 
L 343.853421 43.147368 
L 332.406316 39.348791 
L 320.959211 36.294876 
L 309.512105 34.30463 
L 298.065 33.569693 
z
" clip-path="url(#pd8f7e3e79a)" style="fill: #8c564b; fill-opacity: 0.4"/>
   </g>
   <g id="PolyCollection_15">
    <path d="M 298.065 46.135155 
L 298.065 51.040621 
L 309.512105 51.864984 
L 320.959211 54.117644 
L 332.406316 57.579988 
L 343.853421 62.418761 
L 355.300526 68.266608 
L 366.747632 74.641321 
L 378.194737 81.470196 
L 389.641842 88.584723 
L 401.088947 95.683545 
L 412.536053 102.027756 
L 423.983158 109.003113 
L 435.430263 115.282245 
L 446.877368 121.016935 
L 458.324474 127.048428 
L 469.771579 132.436361 
L 481.218684 137.929229 
L 492.665789 142.601725 
L 504.112895 146.694878 
L 515.56 151.298612 
L 515.56 138.886639 
L 515.56 138.886639 
L 504.112895 134.344236 
L 492.665789 129.392564 
L 481.218684 123.732945 
L 469.771579 118.845714 
L 458.324474 113.480687 
L 446.877368 107.925748 
L 435.430263 101.815737 
L 423.983158 95.495662 
L 412.536053 90.194981 
L 401.088947 83.892976 
L 389.641842 77.542125 
L 378.194737 71.541153 
L 366.747632 66.004591 
L 355.300526 60.782131 
L 343.853421 56.021672 
L 332.406316 52.348976 
L 320.959211 49.054668 
L 309.512105 46.971693 
L 298.065 46.135155 
z
" clip-path="url(#pd8f7e3e79a)" style="fill: #e377c2; fill-opacity: 0.4"/>
   </g>
   <g id="PolyCollection_16">
    <path d="M 298.065 33.569428 
L 298.065 33.569646 
L 309.512105 34.723408 
L 320.959211 37.583451 
L 332.406316 42.067514 
L 343.853421 47.68817 
L 355.300526 54.540973 
L 366.747632 61.755236 
L 378.194737 69.757618 
L 389.641842 77.642492 
L 401.088947 85.849608 
L 412.536053 92.856524 
L 423.983158 100.282015 
L 435.430263 107.049329 
L 446.877368 113.230418 
L 458.324474 119.810554 
L 469.771579 125.450636 
L 481.218684 130.949323 
L 492.665789 136.265557 
L 504.112895 140.457656 
L 515.56 145.23823 
L 515.56 133.868361 
L 515.56 133.868361 
L 504.112895 128.79502 
L 492.665789 123.124142 
L 481.218684 117.267301 
L 469.771579 111.442251 
L 458.324474 105.413874 
L 446.877368 99.150358 
L 435.430263 92.334154 
L 423.983158 85.347142 
L 412.536053 79.27588 
L 401.088947 72.475307 
L 389.641842 65.825104 
L 378.194737 59.341485 
L 366.747632 53.635655 
L 355.300526 47.973677 
L 343.853421 43.120404 
L 332.406316 39.33053 
L 320.959211 36.298158 
L 309.512105 34.302737 
L 298.065 33.569428 
z
" clip-path="url(#pd8f7e3e79a)" style="fill: #7f7f7f; fill-opacity: 0.4"/>
   </g>
   <g id="matplotlib.axis_3">
    <g id="xtick_6">
     <g id="line2d_19">
      <g>
       <use xlink:href="#mc99a485873" x="298.065" y="174.04" style="stroke: #000000; stroke-width: 0.8"/>
      </g>
     </g>
     <g id="text_14">
      <!-- 0.0 -->
      <g transform="translate(290.113437 188.638438)scale(0.1 -0.1)">
       <use xlink:href="#DejaVuSans-30"/>
       <use xlink:href="#DejaVuSans-2e" x="63.623047"/>
       <use xlink:href="#DejaVuSans-30" x="95.410156"/>
      </g>
     </g>
    </g>
    <g id="xtick_7">
     <g id="line2d_20">
      <g>
       <use xlink:href="#mc99a485873" x="352.43875" y="174.04" style="stroke: #000000; stroke-width: 0.8"/>
      </g>
     </g>
     <g id="text_15">
      <!-- 0.5 -->
      <g transform="translate(344.487187 188.638438)scale(0.1 -0.1)">
       <use xlink:href="#DejaVuSans-30"/>
       <use xlink:href="#DejaVuSans-2e" x="63.623047"/>
       <use xlink:href="#DejaVuSans-35" x="95.410156"/>
      </g>
     </g>
    </g>
    <g id="xtick_8">
     <g id="line2d_21">
      <g>
       <use xlink:href="#mc99a485873" x="406.8125" y="174.04" style="stroke: #000000; stroke-width: 0.8"/>
      </g>
     </g>
     <g id="text_16">
      <!-- 1.0 -->
      <g transform="translate(398.860937 188.638438)scale(0.1 -0.1)">
       <use xlink:href="#DejaVuSans-31"/>
       <use xlink:href="#DejaVuSans-2e" x="63.623047"/>
       <use xlink:href="#DejaVuSans-30" x="95.410156"/>
      </g>
     </g>
    </g>
    <g id="xtick_9">
     <g id="line2d_22">
      <g>
       <use xlink:href="#mc99a485873" x="461.18625" y="174.04" style="stroke: #000000; stroke-width: 0.8"/>
      </g>
     </g>
     <g id="text_17">
      <!-- 1.5 -->
      <g transform="translate(453.234687 188.638438)scale(0.1 -0.1)">
       <use xlink:href="#DejaVuSans-31"/>
       <use xlink:href="#DejaVuSans-2e" x="63.623047"/>
       <use xlink:href="#DejaVuSans-35" x="95.410156"/>
      </g>
     </g>
    </g>
    <g id="xtick_10">
     <g id="line2d_23">
      <g>
       <use xlink:href="#mc99a485873" x="515.56" y="174.04" style="stroke: #000000; stroke-width: 0.8"/>
      </g>
     </g>
     <g id="text_18">
      <!-- 2.0 -->
      <g transform="translate(507.608437 188.638438)scale(0.1 -0.1)">
       <use xlink:href="#DejaVuSans-32"/>
       <use xlink:href="#DejaVuSans-2e" x="63.623047"/>
       <use xlink:href="#DejaVuSans-30" x="95.410156"/>
      </g>
     </g>
    </g>
    <g id="text_19">
     <!-- Influence of surprisal (multiplication) -->
     <g transform="translate(314.665625 202.316563)scale(0.1 -0.1)">
      <use xlink:href="#DejaVuSans-49"/>
      <use xlink:href="#DejaVuSans-6e" x="29.492188"/>
      <use xlink:href="#DejaVuSans-66" x="92.871094"/>
      <use xlink:href="#DejaVuSans-6c" x="128.076172"/>
      <use xlink:href="#DejaVuSans-75" x="155.859375"/>
      <use xlink:href="#DejaVuSans-65" x="219.238281"/>
      <use xlink:href="#DejaVuSans-6e" x="280.761719"/>
      <use xlink:href="#DejaVuSans-63" x="344.140625"/>
      <use xlink:href="#DejaVuSans-65" x="399.121094"/>
      <use xlink:href="#DejaVuSans-20" x="460.644531"/>
      <use xlink:href="#DejaVuSans-6f" x="492.431641"/>
      <use xlink:href="#DejaVuSans-66" x="553.613281"/>
      <use xlink:href="#DejaVuSans-20" x="588.818359"/>
      <use xlink:href="#DejaVuSans-73" x="620.605469"/>
      <use xlink:href="#DejaVuSans-75" x="672.705078"/>
      <use xlink:href="#DejaVuSans-72" x="736.083984"/>
      <use xlink:href="#DejaVuSans-70" x="777.197266"/>
      <use xlink:href="#DejaVuSans-72" x="840.673828"/>
      <use xlink:href="#DejaVuSans-69" x="881.787109"/>
      <use xlink:href="#DejaVuSans-73" x="909.570312"/>
      <use xlink:href="#DejaVuSans-61" x="961.669922"/>
      <use xlink:href="#DejaVuSans-6c" x="1022.949219"/>
      <use xlink:href="#DejaVuSans-20" x="1050.732422"/>
      <use xlink:href="#DejaVuSans-28" x="1082.519531"/>
      <use xlink:href="#DejaVuSans-6d" x="1121.533203"/>
      <use xlink:href="#DejaVuSans-75" x="1218.945312"/>
      <use xlink:href="#DejaVuSans-6c" x="1282.324219"/>
      <use xlink:href="#DejaVuSans-74" x="1310.107422"/>
      <use xlink:href="#DejaVuSans-69" x="1349.316406"/>
      <use xlink:href="#DejaVuSans-70" x="1377.099609"/>
      <use xlink:href="#DejaVuSans-6c" x="1440.576172"/>
      <use xlink:href="#DejaVuSans-69" x="1468.359375"/>
      <use xlink:href="#DejaVuSans-63" x="1496.142578"/>
      <use xlink:href="#DejaVuSans-61" x="1551.123047"/>
      <use xlink:href="#DejaVuSans-74" x="1612.402344"/>
      <use xlink:href="#DejaVuSans-69" x="1651.611328"/>
      <use xlink:href="#DejaVuSans-6f" x="1679.394531"/>
      <use xlink:href="#DejaVuSans-6e" x="1740.576172"/>
      <use xlink:href="#DejaVuSans-29" x="1803.955078"/>
     </g>
    </g>
   </g>
   <g id="line2d_24">
    <path d="M 298.065 33.569091 
L 309.512105 34.512198 
L 320.959211 36.945617 
L 332.406316 40.700349 
L 343.853421 45.395276 
L 355.300526 51.276102 
L 366.747632 57.714622 
L 378.194737 64.575939 
L 389.641842 71.753396 
L 401.088947 79.179445 
L 412.536053 86.10389 
L 423.983158 92.871385 
L 435.430263 99.70643 
L 446.877368 106.180486 
L 458.324474 112.613363 
L 469.771579 118.41891 
L 481.218684 124.043183 
L 492.665789 129.582264 
L 504.112895 134.506137 
L 515.56 139.405632 
" clip-path="url(#pd8f7e3e79a)" style="fill: none; stroke: #1f77b4; stroke-width: 1.5; stroke-linecap: square"/>
   </g>
   <g id="line2d_25">
    <path d="M 298.065 33.569276 
L 309.512105 34.512045 
L 320.959211 36.942753 
L 332.406316 40.700795 
L 343.853421 45.399656 
L 355.300526 51.269159 
L 366.747632 57.704941 
L 378.194737 64.566602 
L 389.641842 71.747919 
L 401.088947 79.185127 
L 412.536053 86.111622 
L 423.983158 92.877952 
L 435.430263 99.746634 
L 446.877368 106.233382 
L 458.324474 112.683842 
L 469.771579 118.512135 
L 481.218684 124.155889 
L 492.665789 129.743029 
L 504.112895 134.66644 
L 515.56 139.580672 
" clip-path="url(#pd8f7e3e79a)" style="fill: none; stroke: #ff7f0e; stroke-width: 1.5; stroke-linecap: square"/>
   </g>
   <g id="line2d_26">
    <path d="M 298.065 33.569101 
L 309.512105 34.508896 
L 320.959211 36.942891 
L 332.406316 40.693026 
L 343.853421 45.401544 
L 355.300526 51.27496 
L 366.747632 57.744026 
L 378.194737 64.621898 
L 389.641842 71.812708 
L 401.088947 79.284419 
L 412.536053 86.217067 
L 423.983158 92.994065 
L 435.430263 99.845232 
L 446.877368 106.32134 
L 458.324474 112.745358 
L 469.771579 118.56444 
L 481.218684 124.17145 
L 492.665789 129.670715 
L 504.112895 134.575369 
L 515.56 139.427795 
" clip-path="url(#pd8f7e3e79a)" style="fill: none; stroke: #2ca02c; stroke-width: 1.5; stroke-linecap: square"/>
   </g>
   <g id="line2d_27">
    <path d="M 298.065 33.570068 
L 309.512105 34.5107 
L 320.959211 36.945049 
L 332.406316 40.697234 
L 343.853421 45.408646 
L 355.300526 51.2848 
L 366.747632 57.75309 
L 378.194737 64.645541 
L 389.641842 71.847942 
L 401.088947 79.332257 
L 412.536053 86.278756 
L 423.983158 93.067576 
L 435.430263 99.952241 
L 446.877368 106.465802 
L 458.324474 112.895732 
L 469.771579 118.752339 
L 481.218684 124.366979 
L 492.665789 129.916284 
L 504.112895 134.827632 
L 515.56 139.705915 
" clip-path="url(#pd8f7e3e79a)" style="fill: none; stroke: #d62728; stroke-width: 1.5; stroke-linecap: square"/>
   </g>
   <g id="line2d_28">
    <path d="M 298.065 33.569101 
L 309.512105 34.512638 
L 320.959211 36.941426 
L 332.406316 40.718966 
L 343.853421 45.391391 
L 355.300526 51.326276 
L 366.747632 57.744828 
L 378.194737 64.733455 
L 389.641842 71.883835 
L 401.088947 79.420298 
L 412.536053 86.057751 
L 423.983158 92.977863 
L 435.430263 99.82755 
L 446.877368 106.205172 
L 458.324474 112.771255 
L 469.771579 118.90278 
L 481.218684 124.770064 
L 492.665789 129.770051 
L 504.112895 134.923608 
L 515.56 139.366638 
" clip-path="url(#pd8f7e3e79a)" style="fill: none; stroke: #9467bd; stroke-width: 1.5; stroke-linecap: square"/>
   </g>
   <g id="line2d_29">
    <path d="M 298.065 33.569836 
L 309.512105 34.51312 
L 320.959211 36.939072 
L 332.406316 40.721513 
L 343.853421 45.39853 
L 355.300526 51.322264 
L 366.747632 57.735189 
L 378.194737 64.725879 
L 389.641842 71.8801 
L 401.088947 79.41908 
L 412.536053 86.066604 
L 423.983158 92.993271 
L 435.430263 99.861698 
L 446.877368 106.264391 
L 458.324474 112.845888 
L 469.771579 118.9527 
L 481.218684 124.88174 
L 492.665789 129.931102 
L 504.112895 135.075101 
L 515.56 139.548087 
" clip-path="url(#pd8f7e3e79a)" style="fill: none; stroke: #8c564b; stroke-width: 1.5; stroke-linecap: square"/>
   </g>
   <g id="line2d_30">
    <path d="M 298.065 48.587888 
L 309.512105 49.418339 
L 320.959211 51.586156 
L 332.406316 54.964482 
L 343.853421 59.220217 
L 355.300526 64.524369 
L 366.747632 70.322956 
L 378.194737 76.505674 
L 389.641842 83.063424 
L 401.088947 89.788261 
L 412.536053 96.111368 
L 423.983158 102.249388 
L 435.430263 108.548991 
L 446.877368 114.471341 
L 458.324474 120.264558 
L 469.771579 125.641037 
L 481.218684 130.831087 
L 492.665789 135.997144 
L 504.112895 140.519557 
L 515.56 145.092625 
" clip-path="url(#pd8f7e3e79a)" style="fill: none; stroke: #e377c2; stroke-width: 1.5; stroke-linecap: square"/>
   </g>
   <g id="line2d_31">
    <path d="M 298.065 33.569537 
L 309.512105 34.513073 
L 320.959211 36.940805 
L 332.406316 40.699022 
L 343.853421 45.404287 
L 355.300526 51.257325 
L 366.747632 57.695446 
L 378.194737 64.549552 
L 389.641842 71.733798 
L 401.088947 79.162457 
L 412.536053 86.066202 
L 423.983158 92.814578 
L 435.430263 99.691741 
L 446.877368 106.190388 
L 458.324474 112.612214 
L 469.771579 118.446444 
L 481.218684 124.108312 
L 492.665789 129.694849 
L 504.112895 134.626338 
L 515.56 139.553295 
" clip-path="url(#pd8f7e3e79a)" style="fill: none; stroke: #7f7f7f; stroke-width: 1.5; stroke-linecap: square"/>
   </g>
   <g id="patch_6">
    <path d="M 298.065 174.04 
L 298.065 26.88 
" style="fill: none; stroke: #000000; stroke-width: 0.8; stroke-linejoin: miter; stroke-linecap: square"/>
   </g>
   <g id="patch_7">
    <path d="M 298.065 174.04 
L 515.56 174.04 
" style="fill: none; stroke: #000000; stroke-width: 0.8; stroke-linejoin: miter; stroke-linecap: square"/>
   </g>
   <g id="text_20">
    <!-- Node * third variable -->
    <g transform="translate(344.2325 20.88)scale(0.12 -0.12)">
     <defs>
      <path id="DejaVuSans-68" d="M 3513 2113 
L 3513 0 
L 2938 0 
L 2938 2094 
Q 2938 2591 2744 2837 
Q 2550 3084 2163 3084 
Q 1697 3084 1428 2787 
Q 1159 2491 1159 1978 
L 1159 0 
L 581 0 
L 581 4863 
L 1159 4863 
L 1159 2956 
Q 1366 3272 1645 3428 
Q 1925 3584 2291 3584 
Q 2894 3584 3203 3211 
Q 3513 2838 3513 2113 
z
" transform="scale(0.015625)"/>
      <path id="DejaVuSans-62" d="M 3116 1747 
Q 3116 2381 2855 2742 
Q 2594 3103 2138 3103 
Q 1681 3103 1420 2742 
Q 1159 2381 1159 1747 
Q 1159 1113 1420 752 
Q 1681 391 2138 391 
Q 2594 391 2855 752 
Q 3116 1113 3116 1747 
z
M 1159 2969 
Q 1341 3281 1617 3432 
Q 1894 3584 2278 3584 
Q 2916 3584 3314 3078 
Q 3713 2572 3713 1747 
Q 3713 922 3314 415 
Q 2916 -91 2278 -91 
Q 1894 -91 1617 61 
Q 1341 213 1159 525 
L 1159 0 
L 581 0 
L 581 4863 
L 1159 4863 
L 1159 2969 
z
" transform="scale(0.015625)"/>
     </defs>
     <use xlink:href="#DejaVuSans-4e"/>
     <use xlink:href="#DejaVuSans-6f" x="74.804688"/>
     <use xlink:href="#DejaVuSans-64" x="135.986328"/>
     <use xlink:href="#DejaVuSans-65" x="199.462891"/>
     <use xlink:href="#DejaVuSans-20" x="260.986328"/>
     <use xlink:href="#DejaVuSans-2a" x="292.773438"/>
     <use xlink:href="#DejaVuSans-20" x="342.773438"/>
     <use xlink:href="#DejaVuSans-74" x="374.560547"/>
     <use xlink:href="#DejaVuSans-68" x="413.769531"/>
     <use xlink:href="#DejaVuSans-69" x="477.148438"/>
     <use xlink:href="#DejaVuSans-72" x="504.931641"/>
     <use xlink:href="#DejaVuSans-64" x="544.294922"/>
     <use xlink:href="#DejaVuSans-20" x="607.771484"/>
     <use xlink:href="#DejaVuSans-76" x="639.558594"/>
     <use xlink:href="#DejaVuSans-61" x="698.738281"/>
     <use xlink:href="#DejaVuSans-72" x="760.017578"/>
     <use xlink:href="#DejaVuSans-69" x="801.130859"/>
     <use xlink:href="#DejaVuSans-61" x="828.914062"/>
     <use xlink:href="#DejaVuSans-62" x="890.193359"/>
     <use xlink:href="#DejaVuSans-6c" x="953.669922"/>
     <use xlink:href="#DejaVuSans-65" x="981.453125"/>
    </g>
   </g>
   <g id="legend_1">
    <g id="line2d_32">
     <path d="M 524.56 39.978437 
L 534.56 39.978437 
L 544.56 39.978437 
" style="fill: none; stroke: #1f77b4; stroke-width: 1.5; stroke-linecap: square"/>
    </g>
    <g id="text_21">
     <!-- Node -->
     <g transform="translate(552.56 43.478437)scale(0.1 -0.1)">
      <use xlink:href="#DejaVuSans-4e"/>
      <use xlink:href="#DejaVuSans-6f" x="74.804688"/>
      <use xlink:href="#DejaVuSans-64" x="135.986328"/>
      <use xlink:href="#DejaVuSans-65" x="199.462891"/>
     </g>
    </g>
    <g id="line2d_33">
     <path d="M 524.56 54.656563 
L 534.56 54.656563 
L 544.56 54.656563 
" style="fill: none; stroke: #ff7f0e; stroke-width: 1.5; stroke-linecap: square"/>
    </g>
    <g id="text_22">
     <!-- Node + surprisal -->
     <g transform="translate(552.56 58.156563)scale(0.1 -0.1)">
      <defs>
       <path id="DejaVuSans-2b" d="M 2944 4013 
L 2944 2272 
L 4684 2272 
L 4684 1741 
L 2944 1741 
L 2944 0 
L 2419 0 
L 2419 1741 
L 678 1741 
L 678 2272 
L 2419 2272 
L 2419 4013 
L 2944 4013 
z
" transform="scale(0.015625)"/>
      </defs>
      <use xlink:href="#DejaVuSans-4e"/>
      <use xlink:href="#DejaVuSans-6f" x="74.804688"/>
      <use xlink:href="#DejaVuSans-64" x="135.986328"/>
      <use xlink:href="#DejaVuSans-65" x="199.462891"/>
      <use xlink:href="#DejaVuSans-20" x="260.986328"/>
      <use xlink:href="#DejaVuSans-2b" x="292.773438"/>
      <use xlink:href="#DejaVuSans-20" x="376.5625"/>
      <use xlink:href="#DejaVuSans-73" x="408.349609"/>
      <use xlink:href="#DejaVuSans-75" x="460.449219"/>
      <use xlink:href="#DejaVuSans-72" x="523.828125"/>
      <use xlink:href="#DejaVuSans-70" x="564.941406"/>
      <use xlink:href="#DejaVuSans-72" x="628.417969"/>
      <use xlink:href="#DejaVuSans-69" x="669.53125"/>
      <use xlink:href="#DejaVuSans-73" x="697.314453"/>
      <use xlink:href="#DejaVuSans-61" x="749.414062"/>
      <use xlink:href="#DejaVuSans-6c" x="810.693359"/>
     </g>
    </g>
    <g id="line2d_34">
     <path d="M 524.56 69.334687 
L 534.56 69.334687 
L 544.56 69.334687 
" style="fill: none; stroke: #2ca02c; stroke-width: 1.5; stroke-linecap: square"/>
    </g>
    <g id="text_23">
     <!-- Node split -->
     <g transform="translate(552.56 72.834687)scale(0.1 -0.1)">
      <use xlink:href="#DejaVuSans-4e"/>
      <use xlink:href="#DejaVuSans-6f" x="74.804688"/>
      <use xlink:href="#DejaVuSans-64" x="135.986328"/>
      <use xlink:href="#DejaVuSans-65" x="199.462891"/>
      <use xlink:href="#DejaVuSans-20" x="260.986328"/>
      <use xlink:href="#DejaVuSans-73" x="292.773438"/>
      <use xlink:href="#DejaVuSans-70" x="344.873047"/>
      <use xlink:href="#DejaVuSans-6c" x="408.349609"/>
      <use xlink:href="#DejaVuSans-69" x="436.132812"/>
      <use xlink:href="#DejaVuSans-74" x="463.916016"/>
     </g>
    </g>
    <g id="line2d_35">
     <path d="M 524.56 84.012812 
L 534.56 84.012812 
L 544.56 84.012812 
" style="fill: none; stroke: #d62728; stroke-width: 1.5; stroke-linecap: square"/>
    </g>
    <g id="text_24">
     <!-- Node split + surprisal -->
     <g transform="translate(552.56 87.512812)scale(0.1 -0.1)">
      <use xlink:href="#DejaVuSans-4e"/>
      <use xlink:href="#DejaVuSans-6f" x="74.804688"/>
      <use xlink:href="#DejaVuSans-64" x="135.986328"/>
      <use xlink:href="#DejaVuSans-65" x="199.462891"/>
      <use xlink:href="#DejaVuSans-20" x="260.986328"/>
      <use xlink:href="#DejaVuSans-73" x="292.773438"/>
      <use xlink:href="#DejaVuSans-70" x="344.873047"/>
      <use xlink:href="#DejaVuSans-6c" x="408.349609"/>
      <use xlink:href="#DejaVuSans-69" x="436.132812"/>
      <use xlink:href="#DejaVuSans-74" x="463.916016"/>
      <use xlink:href="#DejaVuSans-20" x="503.125"/>
      <use xlink:href="#DejaVuSans-2b" x="534.912109"/>
      <use xlink:href="#DejaVuSans-20" x="618.701172"/>
      <use xlink:href="#DejaVuSans-73" x="650.488281"/>
      <use xlink:href="#DejaVuSans-75" x="702.587891"/>
      <use xlink:href="#DejaVuSans-72" x="765.966797"/>
      <use xlink:href="#DejaVuSans-70" x="807.080078"/>
      <use xlink:href="#DejaVuSans-72" x="870.556641"/>
      <use xlink:href="#DejaVuSans-69" x="911.669922"/>
      <use xlink:href="#DejaVuSans-73" x="939.453125"/>
      <use xlink:href="#DejaVuSans-61" x="991.552734"/>
      <use xlink:href="#DejaVuSans-6c" x="1052.832031"/>
     </g>
    </g>
    <g id="line2d_36">
     <path d="M 524.56 98.690937 
L 534.56 98.690937 
L 544.56 98.690937 
" style="fill: none; stroke: #9467bd; stroke-width: 1.5; stroke-linecap: square"/>
    </g>
    <g id="text_25">
     <!-- Node random split -->
     <g transform="translate(552.56 102.190937)scale(0.1 -0.1)">
      <use xlink:href="#DejaVuSans-4e"/>
      <use xlink:href="#DejaVuSans-6f" x="74.804688"/>
      <use xlink:href="#DejaVuSans-64" x="135.986328"/>
      <use xlink:href="#DejaVuSans-65" x="199.462891"/>
      <use xlink:href="#DejaVuSans-20" x="260.986328"/>
      <use xlink:href="#DejaVuSans-72" x="292.773438"/>
      <use xlink:href="#DejaVuSans-61" x="333.886719"/>
      <use xlink:href="#DejaVuSans-6e" x="395.166016"/>
      <use xlink:href="#DejaVuSans-64" x="458.544922"/>
      <use xlink:href="#DejaVuSans-6f" x="522.021484"/>
      <use xlink:href="#DejaVuSans-6d" x="583.203125"/>
      <use xlink:href="#DejaVuSans-20" x="680.615234"/>
      <use xlink:href="#DejaVuSans-73" x="712.402344"/>
      <use xlink:href="#DejaVuSans-70" x="764.501953"/>
      <use xlink:href="#DejaVuSans-6c" x="827.978516"/>
      <use xlink:href="#DejaVuSans-69" x="855.761719"/>
      <use xlink:href="#DejaVuSans-74" x="883.544922"/>
     </g>
    </g>
    <g id="line2d_37">
     <path d="M 524.56 113.369062 
L 534.56 113.369062 
L 544.56 113.369062 
" style="fill: none; stroke: #8c564b; stroke-width: 1.5; stroke-linecap: square"/>
    </g>
    <g id="text_26">
     <!-- Node random split + surprisal -->
     <g transform="translate(552.56 116.869062)scale(0.1 -0.1)">
      <use xlink:href="#DejaVuSans-4e"/>
      <use xlink:href="#DejaVuSans-6f" x="74.804688"/>
      <use xlink:href="#DejaVuSans-64" x="135.986328"/>
      <use xlink:href="#DejaVuSans-65" x="199.462891"/>
      <use xlink:href="#DejaVuSans-20" x="260.986328"/>
      <use xlink:href="#DejaVuSans-72" x="292.773438"/>
      <use xlink:href="#DejaVuSans-61" x="333.886719"/>
      <use xlink:href="#DejaVuSans-6e" x="395.166016"/>
      <use xlink:href="#DejaVuSans-64" x="458.544922"/>
      <use xlink:href="#DejaVuSans-6f" x="522.021484"/>
      <use xlink:href="#DejaVuSans-6d" x="583.203125"/>
      <use xlink:href="#DejaVuSans-20" x="680.615234"/>
      <use xlink:href="#DejaVuSans-73" x="712.402344"/>
      <use xlink:href="#DejaVuSans-70" x="764.501953"/>
      <use xlink:href="#DejaVuSans-6c" x="827.978516"/>
      <use xlink:href="#DejaVuSans-69" x="855.761719"/>
      <use xlink:href="#DejaVuSans-74" x="883.544922"/>
      <use xlink:href="#DejaVuSans-20" x="922.753906"/>
      <use xlink:href="#DejaVuSans-2b" x="954.541016"/>
      <use xlink:href="#DejaVuSans-20" x="1038.330078"/>
      <use xlink:href="#DejaVuSans-73" x="1070.117188"/>
      <use xlink:href="#DejaVuSans-75" x="1122.216797"/>
      <use xlink:href="#DejaVuSans-72" x="1185.595703"/>
      <use xlink:href="#DejaVuSans-70" x="1226.708984"/>
      <use xlink:href="#DejaVuSans-72" x="1290.185547"/>
      <use xlink:href="#DejaVuSans-69" x="1331.298828"/>
      <use xlink:href="#DejaVuSans-73" x="1359.082031"/>
      <use xlink:href="#DejaVuSans-61" x="1411.181641"/>
      <use xlink:href="#DejaVuSans-6c" x="1472.460938"/>
     </g>
    </g>
    <g id="line2d_38">
     <path d="M 524.56 128.047187 
L 534.56 128.047187 
L 544.56 128.047187 
" style="fill: none; stroke: #e377c2; stroke-width: 1.5; stroke-linecap: square"/>
    </g>
    <g id="text_27">
     <!-- Interaction -->
     <g transform="translate(552.56 131.547187)scale(0.1 -0.1)">
      <use xlink:href="#DejaVuSans-49"/>
      <use xlink:href="#DejaVuSans-6e" x="29.492188"/>
      <use xlink:href="#DejaVuSans-74" x="92.871094"/>
      <use xlink:href="#DejaVuSans-65" x="132.080078"/>
      <use xlink:href="#DejaVuSans-72" x="193.603516"/>
      <use xlink:href="#DejaVuSans-61" x="234.716797"/>
      <use xlink:href="#DejaVuSans-63" x="295.996094"/>
      <use xlink:href="#DejaVuSans-74" x="350.976562"/>
      <use xlink:href="#DejaVuSans-69" x="390.185547"/>
      <use xlink:href="#DejaVuSans-6f" x="417.96875"/>
      <use xlink:href="#DejaVuSans-6e" x="479.150391"/>
     </g>
    </g>
    <g id="line2d_39">
     <path d="M 524.56 142.725312 
L 534.56 142.725312 
L 544.56 142.725312 
" style="fill: none; stroke: #7f7f7f; stroke-width: 1.5; stroke-linecap: square"/>
    </g>
    <g id="text_28">
     <!-- Node + surprisal + interaction -->
     <g transform="translate(552.56 146.225312)scale(0.1 -0.1)">
      <use xlink:href="#DejaVuSans-4e"/>
      <use xlink:href="#DejaVuSans-6f" x="74.804688"/>
      <use xlink:href="#DejaVuSans-64" x="135.986328"/>
      <use xlink:href="#DejaVuSans-65" x="199.462891"/>
      <use xlink:href="#DejaVuSans-20" x="260.986328"/>
      <use xlink:href="#DejaVuSans-2b" x="292.773438"/>
      <use xlink:href="#DejaVuSans-20" x="376.5625"/>
      <use xlink:href="#DejaVuSans-73" x="408.349609"/>
      <use xlink:href="#DejaVuSans-75" x="460.449219"/>
      <use xlink:href="#DejaVuSans-72" x="523.828125"/>
      <use xlink:href="#DejaVuSans-70" x="564.941406"/>
      <use xlink:href="#DejaVuSans-72" x="628.417969"/>
      <use xlink:href="#DejaVuSans-69" x="669.53125"/>
      <use xlink:href="#DejaVuSans-73" x="697.314453"/>
      <use xlink:href="#DejaVuSans-61" x="749.414062"/>
      <use xlink:href="#DejaVuSans-6c" x="810.693359"/>
      <use xlink:href="#DejaVuSans-20" x="838.476562"/>
      <use xlink:href="#DejaVuSans-2b" x="870.263672"/>
      <use xlink:href="#DejaVuSans-20" x="954.052734"/>
      <use xlink:href="#DejaVuSans-69" x="985.839844"/>
      <use xlink:href="#DejaVuSans-6e" x="1013.623047"/>
      <use xlink:href="#DejaVuSans-74" x="1077.001953"/>
      <use xlink:href="#DejaVuSans-65" x="1116.210938"/>
      <use xlink:href="#DejaVuSans-72" x="1177.734375"/>
      <use xlink:href="#DejaVuSans-61" x="1218.847656"/>
      <use xlink:href="#DejaVuSans-63" x="1280.126953"/>
      <use xlink:href="#DejaVuSans-74" x="1335.107422"/>
      <use xlink:href="#DejaVuSans-69" x="1374.316406"/>
      <use xlink:href="#DejaVuSans-6f" x="1402.099609"/>
      <use xlink:href="#DejaVuSans-6e" x="1463.28125"/>
     </g>
    </g>
   </g>
  </g>
 </g>
 <defs>
  <clipPath id="p441fd16f6d">
   <rect x="47.72" y="26.88" width="217.495" height="147.16"/>
  </clipPath>
  <clipPath id="pd8f7e3e79a">
   <rect x="298.065" y="26.88" width="217.495" height="147.16"/>
  </clipPath>
 </defs>
</svg>
