<?xml version="1.0" encoding="utf-8" standalone="no"?>
<!DOCTYPE svg PUBLIC "-//W3C//DTD SVG 1.1//EN"
  "http://www.w3.org/Graphics/SVG/1.1/DTD/svg11.dtd">
<svg xmlns:xlink="http://www.w3.org/1999/xlink" width="720pt" height="216pt" viewBox="0 0 720 216" xmlns="http://www.w3.org/2000/svg" version="1.1">
 <metadata>
  <rdf:RDF xmlns:dc="http://purl.org/dc/elements/1.1/" xmlns:cc="http://creativecommons.org/ns#" xmlns:rdf="http://www.w3.org/1999/02/22-rdf-syntax-ns#">
   <cc:Work>
    <dc:type rdf:resource="http://purl.org/dc/dcmitype/StillImage"/>
    <dc:date>2024-01-16T01:22:05.658154</dc:date>
    <dc:format>image/svg+xml</dc:format>
    <dc:creator>
     <cc:Agent>
      <dc:title>Matplotlib v3.5.1, https://matplotlib.org/</dc:title>
     </cc:Agent>
    </dc:creator>
   </cc:Work>
  </rdf:RDF>
 </metadata>
 <defs>
  <style type="text/css">*{stroke-linejoin: round; stroke-linecap: butt}</style>
 </defs>
 <g id="figure_1">
  <g id="patch_1">
   <path d="M 0 216 
L 720 216 
L 720 0 
L 0 0 
z
" style="fill: #ffffff"/>
  </g>
  <g id="axes_1">
   <g id="patch_2">
    <path d="M 47.72 174.04 
L 265.215 174.04 
L 265.215 26.88 
L 47.72 26.88 
z
" style="fill: #ffffff"/>
   </g>
   <g id="PolyCollection_1">
    <path d="M 47.72 33.569091 
L 47.72 33.569092 
L 59.167105 34.594807 
L 70.614211 37.909789 
L 82.061316 42.517284 
L 93.508421 48.514118 
L 104.955526 55.424025 
L 116.402632 63.444649 
L 127.849737 71.315981 
L 139.296842 80.356219 
L 150.743947 87.173592 
L 162.191053 95.378942 
L 173.638158 102.424659 
L 185.085263 109.088672 
L 196.532368 115.787797 
L 207.979474 121.712821 
L 219.426579 127.622878 
L 230.873684 132.799631 
L 242.320789 138.060633 
L 253.767895 143.192131 
L 265.215 147.106182 
L 265.215 135.761372 
L 265.215 135.761372 
L 253.767895 131.139743 
L 242.320789 125.84781 
L 230.873684 119.980843 
L 219.426579 114.599343 
L 207.979474 108.897935 
L 196.532368 103.129855 
L 185.085263 96.556708 
L 173.638158 90.001546 
L 162.191053 82.993953 
L 150.743947 75.978451 
L 139.296842 69.33452 
L 127.849737 62.105529 
L 116.402632 55.690835 
L 104.955526 50.013215 
L 93.508421 44.174357 
L 82.061316 40.043606 
L 70.614211 36.594512 
L 59.167105 34.391494 
L 47.72 33.569091 
z
" clip-path="url(#p1e841dd117)" style="fill: #1f77b4; fill-opacity: 0.4"/>
   </g>
   <g id="PolyCollection_2">
    <path d="M 47.72 33.56925 
L 47.72 33.569314 
L 59.167105 34.222384 
L 70.614211 35.937058 
L 82.061316 38.445747 
L 93.508421 41.880367 
L 104.955526 46.055403 
L 116.402632 51.529397 
L 127.849737 57.139064 
L 139.296842 64.078637 
L 150.743947 69.823605 
L 162.191053 77.042961 
L 173.638158 83.732099 
L 185.085263 89.905602 
L 196.532368 96.61412 
L 207.979474 102.561133 
L 219.426579 108.596564 
L 230.873684 114.10158 
L 242.320789 119.831998 
L 253.767895 124.880445 
L 265.215 129.462198 
L 265.215 118.550974 
L 265.215 118.550974 
L 253.767895 113.697046 
L 242.320789 108.331012 
L 230.873684 102.778735 
L 219.426579 97.075531 
L 207.979474 91.423032 
L 196.532368 85.742089 
L 185.085263 79.511157 
L 173.638158 73.306054 
L 162.191053 67.432429 
L 150.743947 61.3597 
L 139.296842 56.237064 
L 127.849737 50.691228 
L 116.402632 46.24194 
L 104.955526 42.637656 
L 93.508421 39.176269 
L 82.061316 36.904248 
L 70.614211 35.130188 
L 59.167105 34.056252 
L 47.72 33.56925 
z
" clip-path="url(#p1e841dd117)" style="fill: #ff7f0e; fill-opacity: 0.4"/>
   </g>
   <g id="PolyCollection_3">
    <path d="M 47.72 33.5691 
L 47.72 33.569104 
L 59.167105 34.356973 
L 70.614211 36.037742 
L 82.061316 38.179835 
L 93.508421 40.865413 
L 104.955526 44.173382 
L 116.402632 48.280992 
L 127.849737 52.41236 
L 139.296842 56.986931 
L 150.743947 60.691301 
L 162.191053 64.758242 
L 173.638158 68.564068 
L 185.085263 72.189834 
L 196.532368 75.41122 
L 207.979474 79.223759 
L 219.426579 82.950745 
L 230.873684 86.293259 
L 242.320789 89.663926 
L 253.767895 92.734941 
L 265.215 95.976047 
L 265.215 85.925268 
L 265.215 85.925268 
L 253.767895 82.271609 
L 242.320789 79.082322 
L 230.873684 75.760466 
L 219.426579 72.168417 
L 207.979474 68.697064 
L 196.532368 65.597797 
L 185.085263 61.881211 
L 173.638158 58.685676 
L 162.191053 55.241228 
L 150.743947 51.705266 
L 139.296842 48.638271 
L 127.849737 45.645132 
L 116.402632 42.818354 
L 104.955526 40.492319 
L 93.508421 38.173035 
L 82.061316 36.552182 
L 70.614211 35.187048 
L 59.167105 34.196776 
L 47.72 33.5691 
z
" clip-path="url(#p1e841dd117)" style="fill: #2ca02c; fill-opacity: 0.4"/>
   </g>
   <g id="PolyCollection_4">
    <path d="M 47.72 33.569904 
L 47.72 33.570288 
L 59.167105 34.179631 
L 70.614211 35.390454 
L 82.061316 36.981729 
L 93.508421 39.068815 
L 104.955526 41.708133 
L 116.402632 45.254883 
L 127.849737 48.94811 
L 139.296842 53.286993 
L 150.743947 56.949283 
L 162.191053 61.146819 
L 173.638158 65.163456 
L 185.085263 68.939639 
L 196.532368 72.343492 
L 207.979474 76.241998 
L 219.426579 80.11395 
L 230.873684 83.668609 
L 242.320789 87.200894 
L 253.767895 90.482679 
L 265.215 93.913515 
L 265.215 84.384428 
L 265.215 84.384428 
L 253.767895 80.526562 
L 242.320789 77.290146 
L 230.873684 73.804444 
L 219.426579 70.110754 
L 207.979474 66.54875 
L 196.532368 63.31761 
L 185.085263 59.471553 
L 173.638158 56.096128 
L 162.191053 52.640209 
L 150.743947 49.033821 
L 139.296842 46.087183 
L 127.849737 43.16857 
L 116.402632 40.64154 
L 104.955526 38.716806 
L 93.508421 36.885243 
L 82.061316 35.709967 
L 70.614211 34.733848 
L 59.167105 34.040555 
L 47.72 33.569904 
z
" clip-path="url(#p1e841dd117)" style="fill: #d62728; fill-opacity: 0.4"/>
   </g>
   <g id="PolyCollection_5">
    <path d="M 47.72 33.569099 
L 47.72 33.569104 
L 59.167105 34.606114 
L 70.614211 37.907366 
L 82.061316 42.508972 
L 93.508421 48.542758 
L 104.955526 55.474225 
L 116.402632 63.452454 
L 127.849737 71.338128 
L 139.296842 80.346127 
L 150.743947 87.26807 
L 162.191053 95.226575 
L 173.638158 102.93265 
L 185.085263 109.511193 
L 196.532368 116.256445 
L 207.979474 121.655698 
L 219.426579 128.340547 
L 230.873684 133.071176 
L 242.320789 138.18915 
L 253.767895 144.403816 
L 265.215 147.499643 
L 265.215 135.732255 
L 265.215 135.732255 
L 253.767895 131.033782 
L 242.320789 125.966554 
L 230.873684 120.611991 
L 219.426579 115.127108 
L 207.979474 109.165774 
L 196.532368 103.867392 
L 185.085263 97.211485 
L 173.638158 90.108111 
L 162.191053 83.416796 
L 150.743947 76.177694 
L 139.296842 69.298365 
L 127.849737 62.054866 
L 116.402632 55.764375 
L 104.955526 50.025069 
L 93.508421 44.121935 
L 82.061316 40.011669 
L 70.614211 36.608869 
L 59.167105 34.39921 
L 47.72 33.569099 
z
" clip-path="url(#p1e841dd117)" style="fill: #9467bd; fill-opacity: 0.4"/>
   </g>
   <g id="PolyCollection_6">
    <path d="M 47.72 33.569739 
L 47.72 33.569991 
L 59.167105 34.229999 
L 70.614211 35.936111 
L 82.061316 38.4427 
L 93.508421 41.896359 
L 104.955526 46.096806 
L 116.402632 51.560607 
L 127.849737 57.182925 
L 139.296842 64.094722 
L 150.743947 69.912813 
L 162.191053 77.080133 
L 173.638158 84.089701 
L 185.085263 89.964321 
L 196.532368 96.997125 
L 207.979474 102.442949 
L 219.426579 109.010473 
L 230.873684 114.333569 
L 242.320789 119.927571 
L 253.767895 125.783859 
L 265.215 129.9004 
L 265.215 118.357683 
L 265.215 118.357683 
L 253.767895 113.703584 
L 242.320789 108.510556 
L 230.873684 103.436343 
L 219.426579 97.429659 
L 207.979474 91.881438 
L 196.532368 86.213733 
L 185.085263 79.972197 
L 173.638158 73.446876 
L 162.191053 67.619206 
L 150.743947 61.496739 
L 139.296842 56.260863 
L 127.849737 50.667953 
L 116.402632 46.249547 
L 104.955526 42.63779 
L 93.508421 39.165881 
L 82.061316 36.902987 
L 70.614211 35.14241 
L 59.167105 34.061169 
L 47.72 33.569739 
z
" clip-path="url(#p1e841dd117)" style="fill: #8c564b; fill-opacity: 0.4"/>
   </g>
   <g id="PolyCollection_7">
    <path d="M 47.72 46.730242 
L 47.72 49.440203 
L 59.167105 50.745742 
L 70.614211 54.719047 
L 82.061316 60.469001 
L 93.508421 67.803586 
L 104.955526 76.235289 
L 116.402632 86.059903 
L 127.849737 95.434652 
L 139.296842 105.557418 
L 150.743947 113.201756 
L 162.191053 121.582501 
L 173.638158 128.722229 
L 185.085263 135.344878 
L 196.532368 141.333553 
L 207.979474 146.616177 
L 219.426579 151.638627 
L 230.873684 155.845759 
L 242.320789 160.038467 
L 253.767895 164.297923 
L 265.215 167.350909 
L 265.215 152.55908 
L 265.215 152.55908 
L 253.767895 148.685167 
L 242.320789 144.034308 
L 230.873684 139.082359 
L 219.426579 134.253017 
L 207.979474 128.714087 
L 196.532368 122.96483 
L 185.085263 116.286467 
L 173.638158 109.641579 
L 162.191053 102.154488 
L 150.743947 94.57692 
L 139.296842 87.281525 
L 127.849737 79.596769 
L 116.402632 72.373367 
L 104.955526 65.933564 
L 93.508421 59.411826 
L 82.061316 54.45926 
L 70.614211 50.354269 
L 59.167105 47.839451 
L 47.72 46.730242 
z
" clip-path="url(#p1e841dd117)" style="fill: #e377c2; fill-opacity: 0.4"/>
   </g>
   <g id="PolyCollection_8">
    <path d="M 47.72 33.569441 
L 47.72 33.569597 
L 59.167105 33.861467 
L 70.614211 34.040792 
L 82.061316 34.542686 
L 93.508421 35.687962 
L 104.955526 37.855787 
L 116.402632 41.575084 
L 127.849737 46.18668 
L 139.296842 52.53657 
L 150.743947 58.636277 
L 162.191053 65.712306 
L 173.638158 72.844039 
L 185.085263 79.712194 
L 196.532368 85.941048 
L 207.979474 92.060724 
L 219.426579 97.792975 
L 230.873684 103.126735 
L 242.320789 108.585676 
L 253.767895 114.098634 
L 265.215 118.890337 
L 265.215 104.739634 
L 265.215 104.739634 
L 253.767895 99.02293 
L 242.320789 93.226868 
L 230.873684 87.169331 
L 219.426579 80.631336 
L 207.979474 74.497438 
L 196.532368 68.721661 
L 185.085263 62.387441 
L 173.638158 57.17385 
L 162.191053 52.327032 
L 150.743947 47.505927 
L 139.296842 43.948054 
L 127.849737 40.521826 
L 116.402632 37.861175 
L 104.955526 36.214497 
L 93.508421 34.862004 
L 82.061316 34.267675 
L 70.614211 33.944158 
L 59.167105 33.804214 
L 47.72 33.569441 
z
" clip-path="url(#p1e841dd117)" style="fill: #7f7f7f; fill-opacity: 0.4"/>
   </g>
   <g id="matplotlib.axis_1">
    <g id="xtick_1">
     <g id="line2d_1">
      <defs>
       <path id="mbbf1be957d" d="M 0 0 
L 0 3.5 
" style="stroke: #000000; stroke-width: 0.8"/>
      </defs>
      <g>
       <use xlink:href="#mbbf1be957d" x="47.72" y="174.04" style="stroke: #000000; stroke-width: 0.8"/>
      </g>
     </g>
     <g id="text_1">
      <!-- 0.0 -->
      <g transform="translate(39.768438 188.638438)scale(0.1 -0.1)">
       <defs>
        <path id="DejaVuSans-30" d="M 2034 4250 
Q 1547 4250 1301 3770 
Q 1056 3291 1056 2328 
Q 1056 1369 1301 889 
Q 1547 409 2034 409 
Q 2525 409 2770 889 
Q 3016 1369 3016 2328 
Q 3016 3291 2770 3770 
Q 2525 4250 2034 4250 
z
M 2034 4750 
Q 2819 4750 3233 4129 
Q 3647 3509 3647 2328 
Q 3647 1150 3233 529 
Q 2819 -91 2034 -91 
Q 1250 -91 836 529 
Q 422 1150 422 2328 
Q 422 3509 836 4129 
Q 1250 4750 2034 4750 
z
" transform="scale(0.015625)"/>
        <path id="DejaVuSans-2e" d="M 684 794 
L 1344 794 
L 1344 0 
L 684 0 
L 684 794 
z
" transform="scale(0.015625)"/>
       </defs>
       <use xlink:href="#DejaVuSans-30"/>
       <use xlink:href="#DejaVuSans-2e" x="63.623047"/>
       <use xlink:href="#DejaVuSans-30" x="95.410156"/>
      </g>
     </g>
    </g>
    <g id="xtick_2">
     <g id="line2d_2">
      <g>
       <use xlink:href="#mbbf1be957d" x="102.09375" y="174.04" style="stroke: #000000; stroke-width: 0.8"/>
      </g>
     </g>
     <g id="text_2">
      <!-- 0.5 -->
      <g transform="translate(94.142188 188.638438)scale(0.1 -0.1)">
       <defs>
        <path id="DejaVuSans-35" d="M 691 4666 
L 3169 4666 
L 3169 4134 
L 1269 4134 
L 1269 2991 
Q 1406 3038 1543 3061 
Q 1681 3084 1819 3084 
Q 2600 3084 3056 2656 
Q 3513 2228 3513 1497 
Q 3513 744 3044 326 
Q 2575 -91 1722 -91 
Q 1428 -91 1123 -41 
Q 819 9 494 109 
L 494 744 
Q 775 591 1075 516 
Q 1375 441 1709 441 
Q 2250 441 2565 725 
Q 2881 1009 2881 1497 
Q 2881 1984 2565 2268 
Q 2250 2553 1709 2553 
Q 1456 2553 1204 2497 
Q 953 2441 691 2322 
L 691 4666 
z
" transform="scale(0.015625)"/>
       </defs>
       <use xlink:href="#DejaVuSans-30"/>
       <use xlink:href="#DejaVuSans-2e" x="63.623047"/>
       <use xlink:href="#DejaVuSans-35" x="95.410156"/>
      </g>
     </g>
    </g>
    <g id="xtick_3">
     <g id="line2d_3">
      <g>
       <use xlink:href="#mbbf1be957d" x="156.4675" y="174.04" style="stroke: #000000; stroke-width: 0.8"/>
      </g>
     </g>
     <g id="text_3">
      <!-- 1.0 -->
      <g transform="translate(148.515938 188.638438)scale(0.1 -0.1)">
       <defs>
        <path id="DejaVuSans-31" d="M 794 531 
L 1825 531 
L 1825 4091 
L 703 3866 
L 703 4441 
L 1819 4666 
L 2450 4666 
L 2450 531 
L 3481 531 
L 3481 0 
L 794 0 
L 794 531 
z
" transform="scale(0.015625)"/>
       </defs>
       <use xlink:href="#DejaVuSans-31"/>
       <use xlink:href="#DejaVuSans-2e" x="63.623047"/>
       <use xlink:href="#DejaVuSans-30" x="95.410156"/>
      </g>
     </g>
    </g>
    <g id="xtick_4">
     <g id="line2d_4">
      <g>
       <use xlink:href="#mbbf1be957d" x="210.84125" y="174.04" style="stroke: #000000; stroke-width: 0.8"/>
      </g>
     </g>
     <g id="text_4">
      <!-- 1.5 -->
      <g transform="translate(202.889687 188.638438)scale(0.1 -0.1)">
       <use xlink:href="#DejaVuSans-31"/>
       <use xlink:href="#DejaVuSans-2e" x="63.623047"/>
       <use xlink:href="#DejaVuSans-35" x="95.410156"/>
      </g>
     </g>
    </g>
    <g id="xtick_5">
     <g id="line2d_5">
      <g>
       <use xlink:href="#mbbf1be957d" x="265.215" y="174.04" style="stroke: #000000; stroke-width: 0.8"/>
      </g>
     </g>
     <g id="text_5">
      <!-- 2.0 -->
      <g transform="translate(257.263437 188.638438)scale(0.1 -0.1)">
       <defs>
        <path id="DejaVuSans-32" d="M 1228 531 
L 3431 531 
L 3431 0 
L 469 0 
L 469 531 
Q 828 903 1448 1529 
Q 2069 2156 2228 2338 
Q 2531 2678 2651 2914 
Q 2772 3150 2772 3378 
Q 2772 3750 2511 3984 
Q 2250 4219 1831 4219 
Q 1534 4219 1204 4116 
Q 875 4013 500 3803 
L 500 4441 
Q 881 4594 1212 4672 
Q 1544 4750 1819 4750 
Q 2544 4750 2975 4387 
Q 3406 4025 3406 3419 
Q 3406 3131 3298 2873 
Q 3191 2616 2906 2266 
Q 2828 2175 2409 1742 
Q 1991 1309 1228 531 
z
" transform="scale(0.015625)"/>
       </defs>
       <use xlink:href="#DejaVuSans-32"/>
       <use xlink:href="#DejaVuSans-2e" x="63.623047"/>
       <use xlink:href="#DejaVuSans-30" x="95.410156"/>
      </g>
     </g>
    </g>
    <g id="text_6">
     <!-- Influence of surprisal (multiplication) -->
     <g transform="translate(64.320625 202.316563)scale(0.1 -0.1)">
      <defs>
       <path id="DejaVuSans-49" d="M 628 4666 
L 1259 4666 
L 1259 0 
L 628 0 
L 628 4666 
z
" transform="scale(0.015625)"/>
       <path id="DejaVuSans-6e" d="M 3513 2113 
L 3513 0 
L 2938 0 
L 2938 2094 
Q 2938 2591 2744 2837 
Q 2550 3084 2163 3084 
Q 1697 3084 1428 2787 
Q 1159 2491 1159 1978 
L 1159 0 
L 581 0 
L 581 3500 
L 1159 3500 
L 1159 2956 
Q 1366 3272 1645 3428 
Q 1925 3584 2291 3584 
Q 2894 3584 3203 3211 
Q 3513 2838 3513 2113 
z
" transform="scale(0.015625)"/>
       <path id="DejaVuSans-66" d="M 2375 4863 
L 2375 4384 
L 1825 4384 
Q 1516 4384 1395 4259 
Q 1275 4134 1275 3809 
L 1275 3500 
L 2222 3500 
L 2222 3053 
L 1275 3053 
L 1275 0 
L 697 0 
L 697 3053 
L 147 3053 
L 147 3500 
L 697 3500 
L 697 3744 
Q 697 4328 969 4595 
Q 1241 4863 1831 4863 
L 2375 4863 
z
" transform="scale(0.015625)"/>
       <path id="DejaVuSans-6c" d="M 603 4863 
L 1178 4863 
L 1178 0 
L 603 0 
L 603 4863 
z
" transform="scale(0.015625)"/>
       <path id="DejaVuSans-75" d="M 544 1381 
L 544 3500 
L 1119 3500 
L 1119 1403 
Q 1119 906 1312 657 
Q 1506 409 1894 409 
Q 2359 409 2629 706 
Q 2900 1003 2900 1516 
L 2900 3500 
L 3475 3500 
L 3475 0 
L 2900 0 
L 2900 538 
Q 2691 219 2414 64 
Q 2138 -91 1772 -91 
Q 1169 -91 856 284 
Q 544 659 544 1381 
z
M 1991 3584 
L 1991 3584 
z
" transform="scale(0.015625)"/>
       <path id="DejaVuSans-65" d="M 3597 1894 
L 3597 1613 
L 953 1613 
Q 991 1019 1311 708 
Q 1631 397 2203 397 
Q 2534 397 2845 478 
Q 3156 559 3463 722 
L 3463 178 
Q 3153 47 2828 -22 
Q 2503 -91 2169 -91 
Q 1331 -91 842 396 
Q 353 884 353 1716 
Q 353 2575 817 3079 
Q 1281 3584 2069 3584 
Q 2775 3584 3186 3129 
Q 3597 2675 3597 1894 
z
M 3022 2063 
Q 3016 2534 2758 2815 
Q 2500 3097 2075 3097 
Q 1594 3097 1305 2825 
Q 1016 2553 972 2059 
L 3022 2063 
z
" transform="scale(0.015625)"/>
       <path id="DejaVuSans-63" d="M 3122 3366 
L 3122 2828 
Q 2878 2963 2633 3030 
Q 2388 3097 2138 3097 
Q 1578 3097 1268 2742 
Q 959 2388 959 1747 
Q 959 1106 1268 751 
Q 1578 397 2138 397 
Q 2388 397 2633 464 
Q 2878 531 3122 666 
L 3122 134 
Q 2881 22 2623 -34 
Q 2366 -91 2075 -91 
Q 1284 -91 818 406 
Q 353 903 353 1747 
Q 353 2603 823 3093 
Q 1294 3584 2113 3584 
Q 2378 3584 2631 3529 
Q 2884 3475 3122 3366 
z
" transform="scale(0.015625)"/>
       <path id="DejaVuSans-20" transform="scale(0.015625)"/>
       <path id="DejaVuSans-6f" d="M 1959 3097 
Q 1497 3097 1228 2736 
Q 959 2375 959 1747 
Q 959 1119 1226 758 
Q 1494 397 1959 397 
Q 2419 397 2687 759 
Q 2956 1122 2956 1747 
Q 2956 2369 2687 2733 
Q 2419 3097 1959 3097 
z
M 1959 3584 
Q 2709 3584 3137 3096 
Q 3566 2609 3566 1747 
Q 3566 888 3137 398 
Q 2709 -91 1959 -91 
Q 1206 -91 779 398 
Q 353 888 353 1747 
Q 353 2609 779 3096 
Q 1206 3584 1959 3584 
z
" transform="scale(0.015625)"/>
       <path id="DejaVuSans-73" d="M 2834 3397 
L 2834 2853 
Q 2591 2978 2328 3040 
Q 2066 3103 1784 3103 
Q 1356 3103 1142 2972 
Q 928 2841 928 2578 
Q 928 2378 1081 2264 
Q 1234 2150 1697 2047 
L 1894 2003 
Q 2506 1872 2764 1633 
Q 3022 1394 3022 966 
Q 3022 478 2636 193 
Q 2250 -91 1575 -91 
Q 1294 -91 989 -36 
Q 684 19 347 128 
L 347 722 
Q 666 556 975 473 
Q 1284 391 1588 391 
Q 1994 391 2212 530 
Q 2431 669 2431 922 
Q 2431 1156 2273 1281 
Q 2116 1406 1581 1522 
L 1381 1569 
Q 847 1681 609 1914 
Q 372 2147 372 2553 
Q 372 3047 722 3315 
Q 1072 3584 1716 3584 
Q 2034 3584 2315 3537 
Q 2597 3491 2834 3397 
z
" transform="scale(0.015625)"/>
       <path id="DejaVuSans-72" d="M 2631 2963 
Q 2534 3019 2420 3045 
Q 2306 3072 2169 3072 
Q 1681 3072 1420 2755 
Q 1159 2438 1159 1844 
L 1159 0 
L 581 0 
L 581 3500 
L 1159 3500 
L 1159 2956 
Q 1341 3275 1631 3429 
Q 1922 3584 2338 3584 
Q 2397 3584 2469 3576 
Q 2541 3569 2628 3553 
L 2631 2963 
z
" transform="scale(0.015625)"/>
       <path id="DejaVuSans-70" d="M 1159 525 
L 1159 -1331 
L 581 -1331 
L 581 3500 
L 1159 3500 
L 1159 2969 
Q 1341 3281 1617 3432 
Q 1894 3584 2278 3584 
Q 2916 3584 3314 3078 
Q 3713 2572 3713 1747 
Q 3713 922 3314 415 
Q 2916 -91 2278 -91 
Q 1894 -91 1617 61 
Q 1341 213 1159 525 
z
M 3116 1747 
Q 3116 2381 2855 2742 
Q 2594 3103 2138 3103 
Q 1681 3103 1420 2742 
Q 1159 2381 1159 1747 
Q 1159 1113 1420 752 
Q 1681 391 2138 391 
Q 2594 391 2855 752 
Q 3116 1113 3116 1747 
z
" transform="scale(0.015625)"/>
       <path id="DejaVuSans-69" d="M 603 3500 
L 1178 3500 
L 1178 0 
L 603 0 
L 603 3500 
z
M 603 4863 
L 1178 4863 
L 1178 4134 
L 603 4134 
L 603 4863 
z
" transform="scale(0.015625)"/>
       <path id="DejaVuSans-61" d="M 2194 1759 
Q 1497 1759 1228 1600 
Q 959 1441 959 1056 
Q 959 750 1161 570 
Q 1363 391 1709 391 
Q 2188 391 2477 730 
Q 2766 1069 2766 1631 
L 2766 1759 
L 2194 1759 
z
M 3341 1997 
L 3341 0 
L 2766 0 
L 2766 531 
Q 2569 213 2275 61 
Q 1981 -91 1556 -91 
Q 1019 -91 701 211 
Q 384 513 384 1019 
Q 384 1609 779 1909 
Q 1175 2209 1959 2209 
L 2766 2209 
L 2766 2266 
Q 2766 2663 2505 2880 
Q 2244 3097 1772 3097 
Q 1472 3097 1187 3025 
Q 903 2953 641 2809 
L 641 3341 
Q 956 3463 1253 3523 
Q 1550 3584 1831 3584 
Q 2591 3584 2966 3190 
Q 3341 2797 3341 1997 
z
" transform="scale(0.015625)"/>
       <path id="DejaVuSans-28" d="M 1984 4856 
Q 1566 4138 1362 3434 
Q 1159 2731 1159 2009 
Q 1159 1288 1364 580 
Q 1569 -128 1984 -844 
L 1484 -844 
Q 1016 -109 783 600 
Q 550 1309 550 2009 
Q 550 2706 781 3412 
Q 1013 4119 1484 4856 
L 1984 4856 
z
" transform="scale(0.015625)"/>
       <path id="DejaVuSans-6d" d="M 3328 2828 
Q 3544 3216 3844 3400 
Q 4144 3584 4550 3584 
Q 5097 3584 5394 3201 
Q 5691 2819 5691 2113 
L 5691 0 
L 5113 0 
L 5113 2094 
Q 5113 2597 4934 2840 
Q 4756 3084 4391 3084 
Q 3944 3084 3684 2787 
Q 3425 2491 3425 1978 
L 3425 0 
L 2847 0 
L 2847 2094 
Q 2847 2600 2669 2842 
Q 2491 3084 2119 3084 
Q 1678 3084 1418 2786 
Q 1159 2488 1159 1978 
L 1159 0 
L 581 0 
L 581 3500 
L 1159 3500 
L 1159 2956 
Q 1356 3278 1631 3431 
Q 1906 3584 2284 3584 
Q 2666 3584 2933 3390 
Q 3200 3197 3328 2828 
z
" transform="scale(0.015625)"/>
       <path id="DejaVuSans-74" d="M 1172 4494 
L 1172 3500 
L 2356 3500 
L 2356 3053 
L 1172 3053 
L 1172 1153 
Q 1172 725 1289 603 
Q 1406 481 1766 481 
L 2356 481 
L 2356 0 
L 1766 0 
Q 1100 0 847 248 
Q 594 497 594 1153 
L 594 3053 
L 172 3053 
L 172 3500 
L 594 3500 
L 594 4494 
L 1172 4494 
z
" transform="scale(0.015625)"/>
       <path id="DejaVuSans-29" d="M 513 4856 
L 1013 4856 
Q 1481 4119 1714 3412 
Q 1947 2706 1947 2009 
Q 1947 1309 1714 600 
Q 1481 -109 1013 -844 
L 513 -844 
Q 928 -128 1133 580 
Q 1338 1288 1338 2009 
Q 1338 2731 1133 3434 
Q 928 4138 513 4856 
z
" transform="scale(0.015625)"/>
      </defs>
      <use xlink:href="#DejaVuSans-49"/>
      <use xlink:href="#DejaVuSans-6e" x="29.492188"/>
      <use xlink:href="#DejaVuSans-66" x="92.871094"/>
      <use xlink:href="#DejaVuSans-6c" x="128.076172"/>
      <use xlink:href="#DejaVuSans-75" x="155.859375"/>
      <use xlink:href="#DejaVuSans-65" x="219.238281"/>
      <use xlink:href="#DejaVuSans-6e" x="280.761719"/>
      <use xlink:href="#DejaVuSans-63" x="344.140625"/>
      <use xlink:href="#DejaVuSans-65" x="399.121094"/>
      <use xlink:href="#DejaVuSans-20" x="460.644531"/>
      <use xlink:href="#DejaVuSans-6f" x="492.431641"/>
      <use xlink:href="#DejaVuSans-66" x="553.613281"/>
      <use xlink:href="#DejaVuSans-20" x="588.818359"/>
      <use xlink:href="#DejaVuSans-73" x="620.605469"/>
      <use xlink:href="#DejaVuSans-75" x="672.705078"/>
      <use xlink:href="#DejaVuSans-72" x="736.083984"/>
      <use xlink:href="#DejaVuSans-70" x="777.197266"/>
      <use xlink:href="#DejaVuSans-72" x="840.673828"/>
      <use xlink:href="#DejaVuSans-69" x="881.787109"/>
      <use xlink:href="#DejaVuSans-73" x="909.570312"/>
      <use xlink:href="#DejaVuSans-61" x="961.669922"/>
      <use xlink:href="#DejaVuSans-6c" x="1022.949219"/>
      <use xlink:href="#DejaVuSans-20" x="1050.732422"/>
      <use xlink:href="#DejaVuSans-28" x="1082.519531"/>
      <use xlink:href="#DejaVuSans-6d" x="1121.533203"/>
      <use xlink:href="#DejaVuSans-75" x="1218.945312"/>
      <use xlink:href="#DejaVuSans-6c" x="1282.324219"/>
      <use xlink:href="#DejaVuSans-74" x="1310.107422"/>
      <use xlink:href="#DejaVuSans-69" x="1349.316406"/>
      <use xlink:href="#DejaVuSans-70" x="1377.099609"/>
      <use xlink:href="#DejaVuSans-6c" x="1440.576172"/>
      <use xlink:href="#DejaVuSans-69" x="1468.359375"/>
      <use xlink:href="#DejaVuSans-63" x="1496.142578"/>
      <use xlink:href="#DejaVuSans-61" x="1551.123047"/>
      <use xlink:href="#DejaVuSans-74" x="1612.402344"/>
      <use xlink:href="#DejaVuSans-69" x="1651.611328"/>
      <use xlink:href="#DejaVuSans-6f" x="1679.394531"/>
      <use xlink:href="#DejaVuSans-6e" x="1740.576172"/>
      <use xlink:href="#DejaVuSans-29" x="1803.955078"/>
     </g>
    </g>
   </g>
   <g id="matplotlib.axis_2">
    <g id="ytick_1">
     <g id="line2d_6">
      <defs>
       <path id="m37fb2567a9" d="M 0 0 
L -3.5 0 
" style="stroke: #000000; stroke-width: 0.8"/>
      </defs>
      <g>
       <use xlink:href="#m37fb2567a9" x="47.72" y="143.814269" style="stroke: #000000; stroke-width: 0.8"/>
      </g>
     </g>
     <g id="text_7">
      <!-- 0.4 -->
      <g transform="translate(24.816875 147.613488)scale(0.1 -0.1)">
       <defs>
        <path id="DejaVuSans-34" d="M 2419 4116 
L 825 1625 
L 2419 1625 
L 2419 4116 
z
M 2253 4666 
L 3047 4666 
L 3047 1625 
L 3713 1625 
L 3713 1100 
L 3047 1100 
L 3047 0 
L 2419 0 
L 2419 1100 
L 313 1100 
L 313 1709 
L 2253 4666 
z
" transform="scale(0.015625)"/>
       </defs>
       <use xlink:href="#DejaVuSans-30"/>
       <use xlink:href="#DejaVuSans-2e" x="63.623047"/>
       <use xlink:href="#DejaVuSans-34" x="95.410156"/>
      </g>
     </g>
    </g>
    <g id="ytick_2">
     <g id="line2d_7">
      <g>
       <use xlink:href="#m37fb2567a9" x="47.72" y="107.065876" style="stroke: #000000; stroke-width: 0.8"/>
      </g>
     </g>
     <g id="text_8">
      <!-- 0.6 -->
      <g transform="translate(24.816875 110.865094)scale(0.1 -0.1)">
       <defs>
        <path id="DejaVuSans-36" d="M 2113 2584 
Q 1688 2584 1439 2293 
Q 1191 2003 1191 1497 
Q 1191 994 1439 701 
Q 1688 409 2113 409 
Q 2538 409 2786 701 
Q 3034 994 3034 1497 
Q 3034 2003 2786 2293 
Q 2538 2584 2113 2584 
z
M 3366 4563 
L 3366 3988 
Q 3128 4100 2886 4159 
Q 2644 4219 2406 4219 
Q 1781 4219 1451 3797 
Q 1122 3375 1075 2522 
Q 1259 2794 1537 2939 
Q 1816 3084 2150 3084 
Q 2853 3084 3261 2657 
Q 3669 2231 3669 1497 
Q 3669 778 3244 343 
Q 2819 -91 2113 -91 
Q 1303 -91 875 529 
Q 447 1150 447 2328 
Q 447 3434 972 4092 
Q 1497 4750 2381 4750 
Q 2619 4750 2861 4703 
Q 3103 4656 3366 4563 
z
" transform="scale(0.015625)"/>
       </defs>
       <use xlink:href="#DejaVuSans-30"/>
       <use xlink:href="#DejaVuSans-2e" x="63.623047"/>
       <use xlink:href="#DejaVuSans-36" x="95.410156"/>
      </g>
     </g>
    </g>
    <g id="ytick_3">
     <g id="line2d_8">
      <g>
       <use xlink:href="#m37fb2567a9" x="47.72" y="70.317482" style="stroke: #000000; stroke-width: 0.8"/>
      </g>
     </g>
     <g id="text_9">
      <!-- 0.8 -->
      <g transform="translate(24.816875 74.116701)scale(0.1 -0.1)">
       <defs>
        <path id="DejaVuSans-38" d="M 2034 2216 
Q 1584 2216 1326 1975 
Q 1069 1734 1069 1313 
Q 1069 891 1326 650 
Q 1584 409 2034 409 
Q 2484 409 2743 651 
Q 3003 894 3003 1313 
Q 3003 1734 2745 1975 
Q 2488 2216 2034 2216 
z
M 1403 2484 
Q 997 2584 770 2862 
Q 544 3141 544 3541 
Q 544 4100 942 4425 
Q 1341 4750 2034 4750 
Q 2731 4750 3128 4425 
Q 3525 4100 3525 3541 
Q 3525 3141 3298 2862 
Q 3072 2584 2669 2484 
Q 3125 2378 3379 2068 
Q 3634 1759 3634 1313 
Q 3634 634 3220 271 
Q 2806 -91 2034 -91 
Q 1263 -91 848 271 
Q 434 634 434 1313 
Q 434 1759 690 2068 
Q 947 2378 1403 2484 
z
M 1172 3481 
Q 1172 3119 1398 2916 
Q 1625 2713 2034 2713 
Q 2441 2713 2670 2916 
Q 2900 3119 2900 3481 
Q 2900 3844 2670 4047 
Q 2441 4250 2034 4250 
Q 1625 4250 1398 4047 
Q 1172 3844 1172 3481 
z
" transform="scale(0.015625)"/>
       </defs>
       <use xlink:href="#DejaVuSans-30"/>
       <use xlink:href="#DejaVuSans-2e" x="63.623047"/>
       <use xlink:href="#DejaVuSans-38" x="95.410156"/>
      </g>
     </g>
    </g>
    <g id="ytick_4">
     <g id="line2d_9">
      <g>
       <use xlink:href="#m37fb2567a9" x="47.72" y="33.569088" style="stroke: #000000; stroke-width: 0.8"/>
      </g>
     </g>
     <g id="text_10">
      <!-- 1.0 -->
      <g transform="translate(24.816875 37.368307)scale(0.1 -0.1)">
       <use xlink:href="#DejaVuSans-31"/>
       <use xlink:href="#DejaVuSans-2e" x="63.623047"/>
       <use xlink:href="#DejaVuSans-30" x="95.410156"/>
      </g>
     </g>
    </g>
    <g id="text_11">
     <!-- R-value -->
     <g transform="translate(18.737188 119.064687)rotate(-90)scale(0.1 -0.1)">
      <defs>
       <path id="DejaVuSans-52" d="M 2841 2188 
Q 3044 2119 3236 1894 
Q 3428 1669 3622 1275 
L 4263 0 
L 3584 0 
L 2988 1197 
Q 2756 1666 2539 1819 
Q 2322 1972 1947 1972 
L 1259 1972 
L 1259 0 
L 628 0 
L 628 4666 
L 2053 4666 
Q 2853 4666 3247 4331 
Q 3641 3997 3641 3322 
Q 3641 2881 3436 2590 
Q 3231 2300 2841 2188 
z
M 1259 4147 
L 1259 2491 
L 2053 2491 
Q 2509 2491 2742 2702 
Q 2975 2913 2975 3322 
Q 2975 3731 2742 3939 
Q 2509 4147 2053 4147 
L 1259 4147 
z
" transform="scale(0.015625)"/>
       <path id="DejaVuSans-2d" d="M 313 2009 
L 1997 2009 
L 1997 1497 
L 313 1497 
L 313 2009 
z
" transform="scale(0.015625)"/>
       <path id="DejaVuSans-76" d="M 191 3500 
L 800 3500 
L 1894 563 
L 2988 3500 
L 3597 3500 
L 2284 0 
L 1503 0 
L 191 3500 
z
" transform="scale(0.015625)"/>
      </defs>
      <use xlink:href="#DejaVuSans-52"/>
      <use xlink:href="#DejaVuSans-2d" x="65.482422"/>
      <use xlink:href="#DejaVuSans-76" x="98.941406"/>
      <use xlink:href="#DejaVuSans-61" x="158.121094"/>
      <use xlink:href="#DejaVuSans-6c" x="219.400391"/>
      <use xlink:href="#DejaVuSans-75" x="247.183594"/>
      <use xlink:href="#DejaVuSans-65" x="310.5625"/>
     </g>
    </g>
   </g>
   <g id="line2d_10">
    <path d="M 47.72 33.569091 
L 59.167105 34.493151 
L 70.614211 37.25215 
L 82.061316 41.280445 
L 93.508421 46.344237 
L 104.955526 52.71862 
L 116.402632 59.567742 
L 127.849737 66.710755 
L 139.296842 74.84537 
L 150.743947 81.576022 
L 162.191053 89.186447 
L 173.638158 96.213103 
L 185.085263 102.82269 
L 196.532368 109.458826 
L 207.979474 115.305378 
L 219.426579 121.111111 
L 230.873684 126.390237 
L 242.320789 131.954222 
L 253.767895 137.165937 
L 265.215 141.433777 
" clip-path="url(#p1e841dd117)" style="fill: none; stroke: #1f77b4; stroke-width: 1.5; stroke-linecap: square"/>
   </g>
   <g id="line2d_11">
    <path d="M 47.72 33.569282 
L 59.167105 34.139318 
L 70.614211 35.533623 
L 82.061316 37.674997 
L 93.508421 40.528318 
L 104.955526 44.346529 
L 116.402632 48.885669 
L 127.849737 53.915146 
L 139.296842 60.157851 
L 150.743947 65.591653 
L 162.191053 72.237695 
L 173.638158 78.519076 
L 185.085263 84.70838 
L 196.532368 91.178105 
L 207.979474 96.992082 
L 219.426579 102.836047 
L 230.873684 108.440157 
L 242.320789 114.081505 
L 253.767895 119.288745 
L 265.215 124.006586 
" clip-path="url(#p1e841dd117)" style="fill: none; stroke: #ff7f0e; stroke-width: 1.5; stroke-linecap: square"/>
   </g>
   <g id="line2d_12">
    <path d="M 47.72 33.569102 
L 59.167105 34.276875 
L 70.614211 35.612395 
L 82.061316 37.366008 
L 93.508421 39.519224 
L 104.955526 42.33285 
L 116.402632 45.549673 
L 127.849737 49.028746 
L 139.296842 52.812601 
L 150.743947 56.198283 
L 162.191053 59.999735 
L 173.638158 63.624872 
L 185.085263 67.035523 
L 196.532368 70.504508 
L 207.979474 73.960412 
L 219.426579 77.559581 
L 230.873684 81.026862 
L 242.320789 84.373124 
L 253.767895 87.503275 
L 265.215 90.950657 
" clip-path="url(#p1e841dd117)" style="fill: none; stroke: #2ca02c; stroke-width: 1.5; stroke-linecap: square"/>
   </g>
   <g id="line2d_13">
    <path d="M 47.72 33.570096 
L 59.167105 34.110093 
L 70.614211 35.062151 
L 82.061316 36.345848 
L 93.508421 37.977029 
L 104.955526 40.21247 
L 116.402632 42.948212 
L 127.849737 46.05834 
L 139.296842 49.687088 
L 150.743947 52.991552 
L 162.191053 56.893514 
L 173.638158 60.629792 
L 185.085263 64.205596 
L 196.532368 67.830551 
L 207.979474 71.395374 
L 219.426579 75.112352 
L 230.873684 78.736526 
L 242.320789 82.24552 
L 253.767895 85.50462 
L 265.215 89.148972 
" clip-path="url(#p1e841dd117)" style="fill: none; stroke: #d62728; stroke-width: 1.5; stroke-linecap: square"/>
   </g>
   <g id="line2d_14">
    <path d="M 47.72 33.569102 
L 59.167105 34.502662 
L 70.614211 37.258118 
L 82.061316 41.260321 
L 93.508421 46.332346 
L 104.955526 52.749647 
L 116.402632 59.608414 
L 127.849737 66.696497 
L 139.296842 74.822246 
L 150.743947 81.722882 
L 162.191053 89.321685 
L 173.638158 96.520381 
L 185.085263 103.361339 
L 196.532368 110.061918 
L 207.979474 115.410736 
L 219.426579 121.733828 
L 230.873684 126.841584 
L 242.320789 132.077852 
L 253.767895 137.718799 
L 265.215 141.615949 
" clip-path="url(#p1e841dd117)" style="fill: none; stroke: #9467bd; stroke-width: 1.5; stroke-linecap: square"/>
   </g>
   <g id="line2d_15">
    <path d="M 47.72 33.569865 
L 59.167105 34.145584 
L 70.614211 35.53926 
L 82.061316 37.672844 
L 93.508421 40.53112 
L 104.955526 44.367298 
L 116.402632 48.905077 
L 127.849737 53.925439 
L 139.296842 60.177793 
L 150.743947 65.704776 
L 162.191053 72.34967 
L 173.638158 78.768288 
L 185.085263 84.968259 
L 196.532368 91.605429 
L 207.979474 97.162193 
L 219.426579 103.220066 
L 230.873684 108.884956 
L 242.320789 114.219063 
L 253.767895 119.743721 
L 265.215 124.129042 
" clip-path="url(#p1e841dd117)" style="fill: none; stroke: #8c564b; stroke-width: 1.5; stroke-linecap: square"/>
   </g>
   <g id="line2d_16">
    <path d="M 47.72 48.085222 
L 59.167105 49.292597 
L 70.614211 52.536658 
L 82.061316 57.464131 
L 93.508421 63.607706 
L 104.955526 71.084426 
L 116.402632 79.216635 
L 127.849737 87.51571 
L 139.296842 96.419471 
L 150.743947 103.889338 
L 162.191053 111.868495 
L 173.638158 119.181904 
L 185.085263 125.815673 
L 196.532368 132.149192 
L 207.979474 137.665132 
L 219.426579 142.945822 
L 230.873684 147.464059 
L 242.320789 152.036388 
L 253.767895 156.491545 
L 265.215 159.954994 
" clip-path="url(#p1e841dd117)" style="fill: none; stroke: #e377c2; stroke-width: 1.5; stroke-linecap: square"/>
   </g>
   <g id="line2d_17">
    <path d="M 47.72 33.569519 
L 59.167105 33.83284 
L 70.614211 33.992475 
L 82.061316 34.40518 
L 93.508421 35.274983 
L 104.955526 37.035142 
L 116.402632 39.71813 
L 127.849737 43.354253 
L 139.296842 48.242312 
L 150.743947 53.071102 
L 162.191053 59.019669 
L 173.638158 65.008945 
L 185.085263 71.049818 
L 196.532368 77.331355 
L 207.979474 83.279081 
L 219.426579 89.212155 
L 230.873684 95.148033 
L 242.320789 100.906272 
L 253.767895 106.560782 
L 265.215 111.814986 
" clip-path="url(#p1e841dd117)" style="fill: none; stroke: #7f7f7f; stroke-width: 1.5; stroke-linecap: square"/>
   </g>
   <g id="patch_3">
    <path d="M 47.72 174.04 
L 47.72 26.88 
" style="fill: none; stroke: #000000; stroke-width: 0.8; stroke-linejoin: miter; stroke-linecap: square"/>
   </g>
   <g id="patch_4">
    <path d="M 47.72 174.04 
L 265.215 174.04 
" style="fill: none; stroke: #000000; stroke-width: 0.8; stroke-linejoin: miter; stroke-linecap: square"/>
   </g>
   <g id="text_12">
    <!-- Node * surprisal -->
    <g transform="translate(108.18625 20.88)scale(0.12 -0.12)">
     <defs>
      <path id="DejaVuSans-4e" d="M 628 4666 
L 1478 4666 
L 3547 763 
L 3547 4666 
L 4159 4666 
L 4159 0 
L 3309 0 
L 1241 3903 
L 1241 0 
L 628 0 
L 628 4666 
z
" transform="scale(0.015625)"/>
      <path id="DejaVuSans-64" d="M 2906 2969 
L 2906 4863 
L 3481 4863 
L 3481 0 
L 2906 0 
L 2906 525 
Q 2725 213 2448 61 
Q 2172 -91 1784 -91 
Q 1150 -91 751 415 
Q 353 922 353 1747 
Q 353 2572 751 3078 
Q 1150 3584 1784 3584 
Q 2172 3584 2448 3432 
Q 2725 3281 2906 2969 
z
M 947 1747 
Q 947 1113 1208 752 
Q 1469 391 1925 391 
Q 2381 391 2643 752 
Q 2906 1113 2906 1747 
Q 2906 2381 2643 2742 
Q 2381 3103 1925 3103 
Q 1469 3103 1208 2742 
Q 947 2381 947 1747 
z
" transform="scale(0.015625)"/>
      <path id="DejaVuSans-2a" d="M 3009 3897 
L 1888 3291 
L 3009 2681 
L 2828 2375 
L 1778 3009 
L 1778 1831 
L 1422 1831 
L 1422 3009 
L 372 2375 
L 191 2681 
L 1313 3291 
L 191 3897 
L 372 4206 
L 1422 3572 
L 1422 4750 
L 1778 4750 
L 1778 3572 
L 2828 4206 
L 3009 3897 
z
" transform="scale(0.015625)"/>
     </defs>
     <use xlink:href="#DejaVuSans-4e"/>
     <use xlink:href="#DejaVuSans-6f" x="74.804688"/>
     <use xlink:href="#DejaVuSans-64" x="135.986328"/>
     <use xlink:href="#DejaVuSans-65" x="199.462891"/>
     <use xlink:href="#DejaVuSans-20" x="260.986328"/>
     <use xlink:href="#DejaVuSans-2a" x="292.773438"/>
     <use xlink:href="#DejaVuSans-20" x="342.773438"/>
     <use xlink:href="#DejaVuSans-73" x="374.560547"/>
     <use xlink:href="#DejaVuSans-75" x="426.660156"/>
     <use xlink:href="#DejaVuSans-72" x="490.039062"/>
     <use xlink:href="#DejaVuSans-70" x="531.152344"/>
     <use xlink:href="#DejaVuSans-72" x="594.628906"/>
     <use xlink:href="#DejaVuSans-69" x="635.742188"/>
     <use xlink:href="#DejaVuSans-73" x="663.525391"/>
     <use xlink:href="#DejaVuSans-61" x="715.625"/>
     <use xlink:href="#DejaVuSans-6c" x="776.904297"/>
    </g>
   </g>
  </g>
  <g id="axes_2">
   <g id="patch_5">
    <path d="M 298.065 174.04 
L 515.56 174.04 
L 515.56 26.88 
L 298.065 26.88 
z
" style="fill: #ffffff"/>
   </g>
   <g id="PolyCollection_9">
    <path d="M 298.065 33.569091 
L 298.065 33.569092 
L 309.512105 34.72427 
L 320.959211 38.147091 
L 332.406316 42.931413 
L 343.853421 49.301544 
L 355.300526 56.322789 
L 366.747632 63.803604 
L 378.194737 72.211092 
L 389.641842 79.600291 
L 401.088947 87.956237 
L 412.536053 95.730872 
L 423.983158 103.795517 
L 435.430263 111.532864 
L 446.877368 118.164097 
L 458.324474 124.564004 
L 469.771579 131.166974 
L 481.218684 136.709771 
L 492.665789 141.588291 
L 504.112895 146.687469 
L 515.56 151.198534 
L 515.56 134.585118 
L 515.56 134.585118 
L 504.112895 129.067525 
L 492.665789 123.534261 
L 481.218684 117.798646 
L 469.771579 112.646506 
L 458.324474 106.066813 
L 446.877368 100.519536 
L 435.430263 94.652117 
L 423.983158 88.111132 
L 412.536053 82.194588 
L 401.088947 75.509103 
L 389.641842 69.245524 
L 378.194737 62.342854 
L 366.747632 55.978533 
L 355.300526 49.838002 
L 343.853421 44.645457 
L 332.406316 40.056122 
L 320.959211 36.665279 
L 309.512105 34.30734 
L 298.065 33.569091 
z
" clip-path="url(#pef226cb64e)" style="fill: #1f77b4; fill-opacity: 0.4"/>
   </g>
   <g id="PolyCollection_10">
    <path d="M 298.065 33.56925 
L 298.065 33.569314 
L 309.512105 34.725786 
L 320.959211 38.152046 
L 332.406316 42.940465 
L 343.853421 49.319939 
L 355.300526 56.350548 
L 366.747632 63.846696 
L 378.194737 72.283005 
L 389.641842 79.708352 
L 401.088947 88.077851 
L 412.536053 95.897159 
L 423.983158 104.006108 
L 435.430263 111.804779 
L 446.877368 118.473275 
L 458.324474 124.898376 
L 469.771579 131.500936 
L 481.218684 137.070604 
L 492.665789 141.897942 
L 504.112895 147.025398 
L 515.56 151.608631 
L 515.56 134.547698 
L 515.56 134.547698 
L 504.112895 128.9882 
L 492.665789 123.451115 
L 481.218684 117.678381 
L 469.771579 112.563152 
L 458.324474 105.98055 
L 446.877368 100.437738 
L 435.430263 94.577834 
L 423.983158 88.054154 
L 412.536053 82.175697 
L 401.088947 75.508831 
L 389.641842 69.238733 
L 378.194737 62.352418 
L 366.747632 55.993346 
L 355.300526 49.846432 
L 343.853421 44.651395 
L 332.406316 40.057831 
L 320.959211 36.668629 
L 309.512105 34.306715 
L 298.065 33.56925 
z
" clip-path="url(#pef226cb64e)" style="fill: #ff7f0e; fill-opacity: 0.4"/>
   </g>
   <g id="PolyCollection_11">
    <path d="M 298.065 33.5691 
L 298.065 33.569104 
L 309.512105 34.723823 
L 320.959211 38.159729 
L 332.406316 42.958505 
L 343.853421 49.347324 
L 355.300526 56.376758 
L 366.747632 63.943865 
L 378.194737 72.358997 
L 389.641842 79.830007 
L 401.088947 88.228202 
L 412.536053 96.049626 
L 423.983158 104.225301 
L 435.430263 111.98608 
L 446.877368 118.625051 
L 458.324474 125.084833 
L 469.771579 131.672267 
L 481.218684 137.214973 
L 492.665789 142.047618 
L 504.112895 147.022744 
L 515.56 151.54309 
L 515.56 134.829491 
L 515.56 134.829491 
L 504.112895 129.146282 
L 492.665789 123.693361 
L 481.218684 117.956632 
L 469.771579 112.774764 
L 458.324474 106.21412 
L 446.877368 100.677599 
L 435.430263 94.800839 
L 423.983158 88.208073 
L 412.536053 82.357543 
L 401.088947 75.677051 
L 389.641842 69.389084 
L 378.194737 62.461688 
L 366.747632 56.089296 
L 355.300526 49.915696 
L 343.853421 44.70463 
L 332.406316 40.084154 
L 320.959211 36.677508 
L 309.512105 34.307827 
L 298.065 33.5691 
z
" clip-path="url(#pef226cb64e)" style="fill: #2ca02c; fill-opacity: 0.4"/>
   </g>
   <g id="PolyCollection_12">
    <path d="M 298.065 33.569904 
L 298.065 33.570288 
L 309.512105 34.727253 
L 320.959211 38.16145 
L 332.406316 42.954139 
L 343.853421 49.341283 
L 355.300526 56.354194 
L 366.747632 63.920736 
L 378.194737 72.318685 
L 389.641842 79.803448 
L 401.088947 88.209298 
L 412.536053 96.045538 
L 423.983158 104.243149 
L 435.430263 112.056694 
L 446.877368 118.724665 
L 458.324474 125.19062 
L 469.771579 131.788063 
L 481.218684 137.346032 
L 492.665789 142.192225 
L 504.112895 147.223825 
L 515.56 151.804464 
L 515.56 134.700614 
L 515.56 134.700614 
L 504.112895 129.055799 
L 492.665789 123.624159 
L 481.218684 117.893428 
L 469.771579 112.750028 
L 458.324474 106.22132 
L 446.877368 100.730756 
L 435.430263 94.89504 
L 423.983158 88.345218 
L 412.536053 82.525214 
L 401.088947 75.871084 
L 389.641842 69.570105 
L 378.194737 62.662886 
L 366.747632 56.230548 
L 355.300526 50.013865 
L 343.853421 44.78285 
L 332.406316 40.130239 
L 320.959211 36.696944 
L 309.512105 34.311094 
L 298.065 33.569904 
z
" clip-path="url(#pef226cb64e)" style="fill: #d62728; fill-opacity: 0.4"/>
   </g>
   <g id="PolyCollection_13">
    <path d="M 298.065 33.5691 
L 298.065 33.569104 
L 309.512105 34.726309 
L 320.959211 38.162167 
L 332.406316 43.00377 
L 343.853421 49.322647 
L 355.300526 56.332924 
L 366.747632 63.906425 
L 378.194737 72.285613 
L 389.641842 79.799947 
L 401.088947 88.062307 
L 412.536053 95.887724 
L 423.983158 103.72302 
L 435.430263 111.512962 
L 446.877368 117.846666 
L 458.324474 124.694986 
L 469.771579 131.823397 
L 481.218684 136.752625 
L 492.665789 142.136583 
L 504.112895 147.124118 
L 515.56 152.365404 
L 515.56 134.191817 
L 515.56 134.191817 
L 504.112895 129.199447 
L 492.665789 124.013234 
L 481.218684 117.769515 
L 469.771579 113.009972 
L 458.324474 106.320383 
L 446.877368 100.744247 
L 435.430263 94.489606 
L 423.983158 88.128724 
L 412.536053 82.027714 
L 401.088947 75.847635 
L 389.641842 69.590503 
L 378.194737 62.329644 
L 366.747632 56.081013 
L 355.300526 49.867408 
L 343.853421 44.661092 
L 332.406316 40.015898 
L 320.959211 36.660865 
L 309.512105 34.304486 
L 298.065 33.5691 
z
" clip-path="url(#pef226cb64e)" style="fill: #9467bd; fill-opacity: 0.4"/>
   </g>
   <g id="PolyCollection_14">
    <path d="M 298.065 33.569741 
L 298.065 33.569986 
L 309.512105 34.728249 
L 320.959211 38.16785 
L 332.406316 43.013917 
L 343.853421 49.338202 
L 355.300526 56.362569 
L 366.747632 63.948997 
L 378.194737 72.35531 
L 389.641842 79.906498 
L 401.088947 88.174146 
L 412.536053 96.043427 
L 423.983158 103.935105 
L 435.430263 111.778735 
L 446.877368 118.142703 
L 458.324474 125.047881 
L 469.771579 132.144598 
L 481.218684 137.117572 
L 492.665789 142.426882 
L 504.112895 147.436261 
L 515.56 152.781534 
L 515.56 134.165779 
L 515.56 134.165779 
L 504.112895 129.108852 
L 492.665789 123.958528 
L 481.218684 117.651539 
L 469.771579 112.915429 
L 458.324474 106.237448 
L 446.877368 100.663189 
L 435.430263 94.417295 
L 423.983158 88.067289 
L 412.536053 82.015892 
L 401.088947 75.853016 
L 389.641842 69.5985 
L 378.194737 62.34298 
L 366.747632 56.097891 
L 355.300526 49.877681 
L 343.853421 44.670799 
L 332.406316 40.019369 
L 320.959211 36.664693 
L 309.512105 34.304567 
L 298.065 33.569741 
z
" clip-path="url(#pef226cb64e)" style="fill: #8c564b; fill-opacity: 0.4"/>
   </g>
   <g id="PolyCollection_15">
    <path d="M 298.065 46.730242 
L 298.065 49.440203 
L 309.512105 50.399359 
L 320.959211 53.229892 
L 332.406316 57.542857 
L 343.853421 63.208075 
L 355.300526 69.506002 
L 366.747632 76.485988 
L 378.194737 84.23108 
L 389.641842 91.063005 
L 401.088947 98.995494 
L 412.536053 106.285989 
L 423.983158 113.690324 
L 435.430263 120.853939 
L 446.877368 127.179038 
L 458.324474 132.774411 
L 469.771579 139.080337 
L 481.218684 143.951579 
L 492.665789 148.40205 
L 504.112895 153.057067 
L 515.56 157.014086 
L 515.56 141.535682 
L 515.56 141.535682 
L 504.112895 136.616822 
L 492.665789 131.334357 
L 481.218684 126.313527 
L 469.771579 121.28105 
L 458.324474 115.140796 
L 446.877368 109.880919 
L 435.430263 104.382196 
L 423.983158 98.177363 
L 412.536053 92.594216 
L 401.088947 86.493686 
L 389.641842 80.797526 
L 378.194737 74.304914 
L 366.747632 68.393081 
L 355.300526 62.683343 
L 343.853421 57.70262 
L 332.406316 53.305988 
L 320.959211 49.993166 
L 309.512105 47.482088 
L 298.065 46.730242 
z
" clip-path="url(#pef226cb64e)" style="fill: #e377c2; fill-opacity: 0.4"/>
   </g>
   <g id="PolyCollection_16">
    <path d="M 298.065 33.569441 
L 298.065 33.569597 
L 309.512105 34.729176 
L 320.959211 38.167203 
L 332.406316 43.000389 
L 343.853421 49.40945 
L 355.300526 56.475575 
L 366.747632 64.037077 
L 378.194737 72.528528 
L 389.641842 80.04522 
L 401.088947 88.493885 
L 412.536053 96.335121 
L 423.983158 104.574893 
L 435.430263 112.413611 
L 446.877368 119.15094 
L 458.324474 125.514951 
L 469.771579 132.124333 
L 481.218684 137.689393 
L 492.665789 142.469084 
L 504.112895 147.552147 
L 515.56 152.115405 
L 515.56 134.677818 
L 515.56 134.677818 
L 504.112895 129.079022 
L 492.665789 123.560053 
L 481.218684 117.754576 
L 469.771579 112.626584 
L 458.324474 106.034657 
L 446.877368 100.468978 
L 435.430263 94.62096 
L 423.983158 88.0895 
L 412.536053 82.25303 
L 401.088947 75.583139 
L 389.641842 69.322579 
L 378.194737 62.451332 
L 366.747632 56.086749 
L 355.300526 49.919436 
L 343.853421 44.694719 
L 332.406316 40.083108 
L 320.959211 36.67609 
L 309.512105 34.308138 
L 298.065 33.569441 
z
" clip-path="url(#pef226cb64e)" style="fill: #7f7f7f; fill-opacity: 0.4"/>
   </g>
   <g id="matplotlib.axis_3">
    <g id="xtick_6">
     <g id="line2d_18">
      <g>
       <use xlink:href="#mbbf1be957d" x="298.065" y="174.04" style="stroke: #000000; stroke-width: 0.8"/>
      </g>
     </g>
     <g id="text_13">
      <!-- 0.0 -->
      <g transform="translate(290.113437 188.638438)scale(0.1 -0.1)">
       <use xlink:href="#DejaVuSans-30"/>
       <use xlink:href="#DejaVuSans-2e" x="63.623047"/>
       <use xlink:href="#DejaVuSans-30" x="95.410156"/>
      </g>
     </g>
    </g>
    <g id="xtick_7">
     <g id="line2d_19">
      <g>
       <use xlink:href="#mbbf1be957d" x="352.43875" y="174.04" style="stroke: #000000; stroke-width: 0.8"/>
      </g>
     </g>
     <g id="text_14">
      <!-- 0.5 -->
      <g transform="translate(344.487187 188.638438)scale(0.1 -0.1)">
       <use xlink:href="#DejaVuSans-30"/>
       <use xlink:href="#DejaVuSans-2e" x="63.623047"/>
       <use xlink:href="#DejaVuSans-35" x="95.410156"/>
      </g>
     </g>
    </g>
    <g id="xtick_8">
     <g id="line2d_20">
      <g>
       <use xlink:href="#mbbf1be957d" x="406.8125" y="174.04" style="stroke: #000000; stroke-width: 0.8"/>
      </g>
     </g>
     <g id="text_15">
      <!-- 1.0 -->
      <g transform="translate(398.860937 188.638438)scale(0.1 -0.1)">
       <use xlink:href="#DejaVuSans-31"/>
       <use xlink:href="#DejaVuSans-2e" x="63.623047"/>
       <use xlink:href="#DejaVuSans-30" x="95.410156"/>
      </g>
     </g>
    </g>
    <g id="xtick_9">
     <g id="line2d_21">
      <g>
       <use xlink:href="#mbbf1be957d" x="461.18625" y="174.04" style="stroke: #000000; stroke-width: 0.8"/>
      </g>
     </g>
     <g id="text_16">
      <!-- 1.5 -->
      <g transform="translate(453.234687 188.638438)scale(0.1 -0.1)">
       <use xlink:href="#DejaVuSans-31"/>
       <use xlink:href="#DejaVuSans-2e" x="63.623047"/>
       <use xlink:href="#DejaVuSans-35" x="95.410156"/>
      </g>
     </g>
    </g>
    <g id="xtick_10">
     <g id="line2d_22">
      <g>
       <use xlink:href="#mbbf1be957d" x="515.56" y="174.04" style="stroke: #000000; stroke-width: 0.8"/>
      </g>
     </g>
     <g id="text_17">
      <!-- 2.0 -->
      <g transform="translate(507.608437 188.638438)scale(0.1 -0.1)">
       <use xlink:href="#DejaVuSans-32"/>
       <use xlink:href="#DejaVuSans-2e" x="63.623047"/>
       <use xlink:href="#DejaVuSans-30" x="95.410156"/>
      </g>
     </g>
    </g>
    <g id="text_18">
     <!-- Influence of surprisal (multiplication) -->
     <g transform="translate(314.665625 202.316563)scale(0.1 -0.1)">
      <use xlink:href="#DejaVuSans-49"/>
      <use xlink:href="#DejaVuSans-6e" x="29.492188"/>
      <use xlink:href="#DejaVuSans-66" x="92.871094"/>
      <use xlink:href="#DejaVuSans-6c" x="128.076172"/>
      <use xlink:href="#DejaVuSans-75" x="155.859375"/>
      <use xlink:href="#DejaVuSans-65" x="219.238281"/>
      <use xlink:href="#DejaVuSans-6e" x="280.761719"/>
      <use xlink:href="#DejaVuSans-63" x="344.140625"/>
      <use xlink:href="#DejaVuSans-65" x="399.121094"/>
      <use xlink:href="#DejaVuSans-20" x="460.644531"/>
      <use xlink:href="#DejaVuSans-6f" x="492.431641"/>
      <use xlink:href="#DejaVuSans-66" x="553.613281"/>
      <use xlink:href="#DejaVuSans-20" x="588.818359"/>
      <use xlink:href="#DejaVuSans-73" x="620.605469"/>
      <use xlink:href="#DejaVuSans-75" x="672.705078"/>
      <use xlink:href="#DejaVuSans-72" x="736.083984"/>
      <use xlink:href="#DejaVuSans-70" x="777.197266"/>
      <use xlink:href="#DejaVuSans-72" x="840.673828"/>
      <use xlink:href="#DejaVuSans-69" x="881.787109"/>
      <use xlink:href="#DejaVuSans-73" x="909.570312"/>
      <use xlink:href="#DejaVuSans-61" x="961.669922"/>
      <use xlink:href="#DejaVuSans-6c" x="1022.949219"/>
      <use xlink:href="#DejaVuSans-20" x="1050.732422"/>
      <use xlink:href="#DejaVuSans-28" x="1082.519531"/>
      <use xlink:href="#DejaVuSans-6d" x="1121.533203"/>
      <use xlink:href="#DejaVuSans-75" x="1218.945312"/>
      <use xlink:href="#DejaVuSans-6c" x="1282.324219"/>
      <use xlink:href="#DejaVuSans-74" x="1310.107422"/>
      <use xlink:href="#DejaVuSans-69" x="1349.316406"/>
      <use xlink:href="#DejaVuSans-70" x="1377.099609"/>
      <use xlink:href="#DejaVuSans-6c" x="1440.576172"/>
      <use xlink:href="#DejaVuSans-69" x="1468.359375"/>
      <use xlink:href="#DejaVuSans-63" x="1496.142578"/>
      <use xlink:href="#DejaVuSans-61" x="1551.123047"/>
      <use xlink:href="#DejaVuSans-74" x="1612.402344"/>
      <use xlink:href="#DejaVuSans-69" x="1651.611328"/>
      <use xlink:href="#DejaVuSans-6f" x="1679.394531"/>
      <use xlink:href="#DejaVuSans-6e" x="1740.576172"/>
      <use xlink:href="#DejaVuSans-29" x="1803.955078"/>
     </g>
    </g>
   </g>
   <g id="line2d_23">
    <path d="M 298.065 33.569091 
L 309.512105 34.515805 
L 320.959211 37.406185 
L 332.406316 41.493767 
L 343.853421 46.9735 
L 355.300526 53.080395 
L 366.747632 59.891069 
L 378.194737 67.276973 
L 389.641842 74.422908 
L 401.088947 81.73267 
L 412.536053 88.96273 
L 423.983158 95.953325 
L 435.430263 103.09249 
L 446.877368 109.341816 
L 458.324474 115.315408 
L 469.771579 121.90674 
L 481.218684 127.254208 
L 492.665789 132.561276 
L 504.112895 137.877497 
L 515.56 142.891826 
" clip-path="url(#pef226cb64e)" style="fill: none; stroke: #1f77b4; stroke-width: 1.5; stroke-linecap: square"/>
   </g>
   <g id="line2d_24">
    <path d="M 298.065 33.569282 
L 309.512105 34.51625 
L 320.959211 37.410338 
L 332.406316 41.499148 
L 343.853421 46.985667 
L 355.300526 53.09849 
L 366.747632 59.920021 
L 378.194737 67.317712 
L 389.641842 74.473543 
L 401.088947 81.793341 
L 412.536053 89.036428 
L 423.983158 96.030131 
L 435.430263 103.191306 
L 446.877368 109.455506 
L 458.324474 115.439463 
L 469.771579 122.032044 
L 481.218684 127.374492 
L 492.665789 132.674529 
L 504.112895 138.006799 
L 515.56 143.078164 
" clip-path="url(#pef226cb64e)" style="fill: none; stroke: #ff7f0e; stroke-width: 1.5; stroke-linecap: square"/>
   </g>
   <g id="line2d_25">
    <path d="M 298.065 33.569102 
L 309.512105 34.515825 
L 320.959211 37.418619 
L 332.406316 41.52133 
L 343.853421 47.025977 
L 355.300526 53.146227 
L 366.747632 60.01658 
L 378.194737 67.410342 
L 389.641842 74.609546 
L 401.088947 81.952627 
L 412.536053 89.203585 
L 423.983158 96.216687 
L 435.430263 103.39346 
L 446.877368 109.651325 
L 458.324474 115.649477 
L 469.771579 122.223515 
L 481.218684 127.585803 
L 492.665789 132.870489 
L 504.112895 138.084513 
L 515.56 143.186291 
" clip-path="url(#pef226cb64e)" style="fill: none; stroke: #2ca02c; stroke-width: 1.5; stroke-linecap: square"/>
   </g>
   <g id="line2d_26">
    <path d="M 298.065 33.570096 
L 309.512105 34.519174 
L 320.959211 37.429197 
L 332.406316 41.542189 
L 343.853421 47.062066 
L 355.300526 53.18403 
L 366.747632 60.075642 
L 378.194737 67.490786 
L 389.641842 74.686777 
L 401.088947 82.040191 
L 412.536053 89.285376 
L 423.983158 96.294184 
L 435.430263 103.475867 
L 446.877368 109.72771 
L 458.324474 115.70597 
L 469.771579 122.269046 
L 481.218684 127.61973 
L 492.665789 132.908192 
L 504.112895 138.139812 
L 515.56 143.252539 
" clip-path="url(#pef226cb64e)" style="fill: none; stroke: #d62728; stroke-width: 1.5; stroke-linecap: square"/>
   </g>
   <g id="line2d_27">
    <path d="M 298.065 33.569102 
L 309.512105 34.515397 
L 320.959211 37.411516 
L 332.406316 41.509834 
L 343.853421 46.99187 
L 355.300526 53.100166 
L 366.747632 59.993719 
L 378.194737 67.307628 
L 389.641842 74.695225 
L 401.088947 81.954971 
L 412.536053 88.957719 
L 423.983158 95.925872 
L 435.430263 103.001284 
L 446.877368 109.295456 
L 458.324474 115.507685 
L 469.771579 122.416685 
L 481.218684 127.26107 
L 492.665789 133.074908 
L 504.112895 138.161782 
L 515.56 143.278611 
" clip-path="url(#pef226cb64e)" style="fill: none; stroke: #9467bd; stroke-width: 1.5; stroke-linecap: square"/>
   </g>
   <g id="line2d_28">
    <path d="M 298.065 33.569863 
L 309.512105 34.516408 
L 320.959211 37.416272 
L 332.406316 41.516643 
L 343.853421 47.004501 
L 355.300526 53.120125 
L 366.747632 60.023444 
L 378.194737 67.349145 
L 389.641842 74.752499 
L 401.088947 82.013581 
L 412.536053 89.02966 
L 423.983158 96.001197 
L 435.430263 103.098015 
L 446.877368 109.402946 
L 458.324474 115.642664 
L 469.771579 122.530013 
L 481.218684 127.384555 
L 492.665789 133.192705 
L 504.112895 138.272556 
L 515.56 143.473656 
" clip-path="url(#pef226cb64e)" style="fill: none; stroke: #8c564b; stroke-width: 1.5; stroke-linecap: square"/>
   </g>
   <g id="line2d_29">
    <path d="M 298.065 48.085222 
L 309.512105 48.940723 
L 320.959211 51.611529 
L 332.406316 55.424423 
L 343.853421 60.455348 
L 355.300526 66.094673 
L 366.747632 72.439534 
L 378.194737 79.267997 
L 389.641842 85.930266 
L 401.088947 92.74459 
L 412.536053 99.440102 
L 423.983158 105.933844 
L 435.430263 112.618068 
L 446.877368 118.529978 
L 458.324474 123.957604 
L 469.771579 130.180694 
L 481.218684 135.132553 
L 492.665789 139.868203 
L 504.112895 144.836945 
L 515.56 149.274884 
" clip-path="url(#pef226cb64e)" style="fill: none; stroke: #e377c2; stroke-width: 1.5; stroke-linecap: square"/>
   </g>
   <g id="line2d_30">
    <path d="M 298.065 33.569519 
L 309.512105 34.518657 
L 320.959211 37.421647 
L 332.406316 41.541749 
L 343.853421 47.052085 
L 355.300526 53.197505 
L 366.747632 60.061913 
L 378.194737 67.48993 
L 389.641842 74.6839 
L 401.088947 82.038512 
L 412.536053 89.294076 
L 423.983158 96.332197 
L 435.430263 103.517285 
L 446.877368 109.809959 
L 458.324474 115.774804 
L 469.771579 122.375459 
L 481.218684 127.721984 
L 492.665789 133.014568 
L 504.112895 138.315584 
L 515.56 143.396612 
" clip-path="url(#pef226cb64e)" style="fill: none; stroke: #7f7f7f; stroke-width: 1.5; stroke-linecap: square"/>
   </g>
   <g id="patch_6">
    <path d="M 298.065 174.04 
L 298.065 26.88 
" style="fill: none; stroke: #000000; stroke-width: 0.8; stroke-linejoin: miter; stroke-linecap: square"/>
   </g>
   <g id="patch_7">
    <path d="M 298.065 174.04 
L 515.56 174.04 
" style="fill: none; stroke: #000000; stroke-width: 0.8; stroke-linejoin: miter; stroke-linecap: square"/>
   </g>
   <g id="text_19">
    <!-- Node * third variable -->
    <g transform="translate(344.2325 20.88)scale(0.12 -0.12)">
     <defs>
      <path id="DejaVuSans-68" d="M 3513 2113 
L 3513 0 
L 2938 0 
L 2938 2094 
Q 2938 2591 2744 2837 
Q 2550 3084 2163 3084 
Q 1697 3084 1428 2787 
Q 1159 2491 1159 1978 
L 1159 0 
L 581 0 
L 581 4863 
L 1159 4863 
L 1159 2956 
Q 1366 3272 1645 3428 
Q 1925 3584 2291 3584 
Q 2894 3584 3203 3211 
Q 3513 2838 3513 2113 
z
" transform="scale(0.015625)"/>
      <path id="DejaVuSans-62" d="M 3116 1747 
Q 3116 2381 2855 2742 
Q 2594 3103 2138 3103 
Q 1681 3103 1420 2742 
Q 1159 2381 1159 1747 
Q 1159 1113 1420 752 
Q 1681 391 2138 391 
Q 2594 391 2855 752 
Q 3116 1113 3116 1747 
z
M 1159 2969 
Q 1341 3281 1617 3432 
Q 1894 3584 2278 3584 
Q 2916 3584 3314 3078 
Q 3713 2572 3713 1747 
Q 3713 922 3314 415 
Q 2916 -91 2278 -91 
Q 1894 -91 1617 61 
Q 1341 213 1159 525 
L 1159 0 
L 581 0 
L 581 4863 
L 1159 4863 
L 1159 2969 
z
" transform="scale(0.015625)"/>
     </defs>
     <use xlink:href="#DejaVuSans-4e"/>
     <use xlink:href="#DejaVuSans-6f" x="74.804688"/>
     <use xlink:href="#DejaVuSans-64" x="135.986328"/>
     <use xlink:href="#DejaVuSans-65" x="199.462891"/>
     <use xlink:href="#DejaVuSans-20" x="260.986328"/>
     <use xlink:href="#DejaVuSans-2a" x="292.773438"/>
     <use xlink:href="#DejaVuSans-20" x="342.773438"/>
     <use xlink:href="#DejaVuSans-74" x="374.560547"/>
     <use xlink:href="#DejaVuSans-68" x="413.769531"/>
     <use xlink:href="#DejaVuSans-69" x="477.148438"/>
     <use xlink:href="#DejaVuSans-72" x="504.931641"/>
     <use xlink:href="#DejaVuSans-64" x="544.294922"/>
     <use xlink:href="#DejaVuSans-20" x="607.771484"/>
     <use xlink:href="#DejaVuSans-76" x="639.558594"/>
     <use xlink:href="#DejaVuSans-61" x="698.738281"/>
     <use xlink:href="#DejaVuSans-72" x="760.017578"/>
     <use xlink:href="#DejaVuSans-69" x="801.130859"/>
     <use xlink:href="#DejaVuSans-61" x="828.914062"/>
     <use xlink:href="#DejaVuSans-62" x="890.193359"/>
     <use xlink:href="#DejaVuSans-6c" x="953.669922"/>
     <use xlink:href="#DejaVuSans-65" x="981.453125"/>
    </g>
   </g>
   <g id="legend_1">
    <g id="line2d_31">
     <path d="M 524.56 39.978437 
L 534.56 39.978437 
L 544.56 39.978437 
" style="fill: none; stroke: #1f77b4; stroke-width: 1.5; stroke-linecap: square"/>
    </g>
    <g id="text_20">
     <!-- Node -->
     <g transform="translate(552.56 43.478437)scale(0.1 -0.1)">
      <use xlink:href="#DejaVuSans-4e"/>
      <use xlink:href="#DejaVuSans-6f" x="74.804688"/>
      <use xlink:href="#DejaVuSans-64" x="135.986328"/>
      <use xlink:href="#DejaVuSans-65" x="199.462891"/>
     </g>
    </g>
    <g id="line2d_32">
     <path d="M 524.56 54.656563 
L 534.56 54.656563 
L 544.56 54.656563 
" style="fill: none; stroke: #ff7f0e; stroke-width: 1.5; stroke-linecap: square"/>
    </g>
    <g id="text_21">
     <!-- Node + surprisal -->
     <g transform="translate(552.56 58.156563)scale(0.1 -0.1)">
      <defs>
       <path id="DejaVuSans-2b" d="M 2944 4013 
L 2944 2272 
L 4684 2272 
L 4684 1741 
L 2944 1741 
L 2944 0 
L 2419 0 
L 2419 1741 
L 678 1741 
L 678 2272 
L 2419 2272 
L 2419 4013 
L 2944 4013 
z
" transform="scale(0.015625)"/>
      </defs>
      <use xlink:href="#DejaVuSans-4e"/>
      <use xlink:href="#DejaVuSans-6f" x="74.804688"/>
      <use xlink:href="#DejaVuSans-64" x="135.986328"/>
      <use xlink:href="#DejaVuSans-65" x="199.462891"/>
      <use xlink:href="#DejaVuSans-20" x="260.986328"/>
      <use xlink:href="#DejaVuSans-2b" x="292.773438"/>
      <use xlink:href="#DejaVuSans-20" x="376.5625"/>
      <use xlink:href="#DejaVuSans-73" x="408.349609"/>
      <use xlink:href="#DejaVuSans-75" x="460.449219"/>
      <use xlink:href="#DejaVuSans-72" x="523.828125"/>
      <use xlink:href="#DejaVuSans-70" x="564.941406"/>
      <use xlink:href="#DejaVuSans-72" x="628.417969"/>
      <use xlink:href="#DejaVuSans-69" x="669.53125"/>
      <use xlink:href="#DejaVuSans-73" x="697.314453"/>
      <use xlink:href="#DejaVuSans-61" x="749.414062"/>
      <use xlink:href="#DejaVuSans-6c" x="810.693359"/>
     </g>
    </g>
    <g id="line2d_33">
     <path d="M 524.56 69.334687 
L 534.56 69.334687 
L 544.56 69.334687 
" style="fill: none; stroke: #2ca02c; stroke-width: 1.5; stroke-linecap: square"/>
    </g>
    <g id="text_22">
     <!-- Node split -->
     <g transform="translate(552.56 72.834687)scale(0.1 -0.1)">
      <use xlink:href="#DejaVuSans-4e"/>
      <use xlink:href="#DejaVuSans-6f" x="74.804688"/>
      <use xlink:href="#DejaVuSans-64" x="135.986328"/>
      <use xlink:href="#DejaVuSans-65" x="199.462891"/>
      <use xlink:href="#DejaVuSans-20" x="260.986328"/>
      <use xlink:href="#DejaVuSans-73" x="292.773438"/>
      <use xlink:href="#DejaVuSans-70" x="344.873047"/>
      <use xlink:href="#DejaVuSans-6c" x="408.349609"/>
      <use xlink:href="#DejaVuSans-69" x="436.132812"/>
      <use xlink:href="#DejaVuSans-74" x="463.916016"/>
     </g>
    </g>
    <g id="line2d_34">
     <path d="M 524.56 84.012812 
L 534.56 84.012812 
L 544.56 84.012812 
" style="fill: none; stroke: #d62728; stroke-width: 1.5; stroke-linecap: square"/>
    </g>
    <g id="text_23">
     <!-- Node split + surprisal -->
     <g transform="translate(552.56 87.512812)scale(0.1 -0.1)">
      <use xlink:href="#DejaVuSans-4e"/>
      <use xlink:href="#DejaVuSans-6f" x="74.804688"/>
      <use xlink:href="#DejaVuSans-64" x="135.986328"/>
      <use xlink:href="#DejaVuSans-65" x="199.462891"/>
      <use xlink:href="#DejaVuSans-20" x="260.986328"/>
      <use xlink:href="#DejaVuSans-73" x="292.773438"/>
      <use xlink:href="#DejaVuSans-70" x="344.873047"/>
      <use xlink:href="#DejaVuSans-6c" x="408.349609"/>
      <use xlink:href="#DejaVuSans-69" x="436.132812"/>
      <use xlink:href="#DejaVuSans-74" x="463.916016"/>
      <use xlink:href="#DejaVuSans-20" x="503.125"/>
      <use xlink:href="#DejaVuSans-2b" x="534.912109"/>
      <use xlink:href="#DejaVuSans-20" x="618.701172"/>
      <use xlink:href="#DejaVuSans-73" x="650.488281"/>
      <use xlink:href="#DejaVuSans-75" x="702.587891"/>
      <use xlink:href="#DejaVuSans-72" x="765.966797"/>
      <use xlink:href="#DejaVuSans-70" x="807.080078"/>
      <use xlink:href="#DejaVuSans-72" x="870.556641"/>
      <use xlink:href="#DejaVuSans-69" x="911.669922"/>
      <use xlink:href="#DejaVuSans-73" x="939.453125"/>
      <use xlink:href="#DejaVuSans-61" x="991.552734"/>
      <use xlink:href="#DejaVuSans-6c" x="1052.832031"/>
     </g>
    </g>
    <g id="line2d_35">
     <path d="M 524.56 98.690937 
L 534.56 98.690937 
L 544.56 98.690937 
" style="fill: none; stroke: #9467bd; stroke-width: 1.5; stroke-linecap: square"/>
    </g>
    <g id="text_24">
     <!-- Node random split -->
     <g transform="translate(552.56 102.190937)scale(0.1 -0.1)">
      <use xlink:href="#DejaVuSans-4e"/>
      <use xlink:href="#DejaVuSans-6f" x="74.804688"/>
      <use xlink:href="#DejaVuSans-64" x="135.986328"/>
      <use xlink:href="#DejaVuSans-65" x="199.462891"/>
      <use xlink:href="#DejaVuSans-20" x="260.986328"/>
      <use xlink:href="#DejaVuSans-72" x="292.773438"/>
      <use xlink:href="#DejaVuSans-61" x="333.886719"/>
      <use xlink:href="#DejaVuSans-6e" x="395.166016"/>
      <use xlink:href="#DejaVuSans-64" x="458.544922"/>
      <use xlink:href="#DejaVuSans-6f" x="522.021484"/>
      <use xlink:href="#DejaVuSans-6d" x="583.203125"/>
      <use xlink:href="#DejaVuSans-20" x="680.615234"/>
      <use xlink:href="#DejaVuSans-73" x="712.402344"/>
      <use xlink:href="#DejaVuSans-70" x="764.501953"/>
      <use xlink:href="#DejaVuSans-6c" x="827.978516"/>
      <use xlink:href="#DejaVuSans-69" x="855.761719"/>
      <use xlink:href="#DejaVuSans-74" x="883.544922"/>
     </g>
    </g>
    <g id="line2d_36">
     <path d="M 524.56 113.369062 
L 534.56 113.369062 
L 544.56 113.369062 
" style="fill: none; stroke: #8c564b; stroke-width: 1.5; stroke-linecap: square"/>
    </g>
    <g id="text_25">
     <!-- Node random split + surprisal -->
     <g transform="translate(552.56 116.869062)scale(0.1 -0.1)">
      <use xlink:href="#DejaVuSans-4e"/>
      <use xlink:href="#DejaVuSans-6f" x="74.804688"/>
      <use xlink:href="#DejaVuSans-64" x="135.986328"/>
      <use xlink:href="#DejaVuSans-65" x="199.462891"/>
      <use xlink:href="#DejaVuSans-20" x="260.986328"/>
      <use xlink:href="#DejaVuSans-72" x="292.773438"/>
      <use xlink:href="#DejaVuSans-61" x="333.886719"/>
      <use xlink:href="#DejaVuSans-6e" x="395.166016"/>
      <use xlink:href="#DejaVuSans-64" x="458.544922"/>
      <use xlink:href="#DejaVuSans-6f" x="522.021484"/>
      <use xlink:href="#DejaVuSans-6d" x="583.203125"/>
      <use xlink:href="#DejaVuSans-20" x="680.615234"/>
      <use xlink:href="#DejaVuSans-73" x="712.402344"/>
      <use xlink:href="#DejaVuSans-70" x="764.501953"/>
      <use xlink:href="#DejaVuSans-6c" x="827.978516"/>
      <use xlink:href="#DejaVuSans-69" x="855.761719"/>
      <use xlink:href="#DejaVuSans-74" x="883.544922"/>
      <use xlink:href="#DejaVuSans-20" x="922.753906"/>
      <use xlink:href="#DejaVuSans-2b" x="954.541016"/>
      <use xlink:href="#DejaVuSans-20" x="1038.330078"/>
      <use xlink:href="#DejaVuSans-73" x="1070.117188"/>
      <use xlink:href="#DejaVuSans-75" x="1122.216797"/>
      <use xlink:href="#DejaVuSans-72" x="1185.595703"/>
      <use xlink:href="#DejaVuSans-70" x="1226.708984"/>
      <use xlink:href="#DejaVuSans-72" x="1290.185547"/>
      <use xlink:href="#DejaVuSans-69" x="1331.298828"/>
      <use xlink:href="#DejaVuSans-73" x="1359.082031"/>
      <use xlink:href="#DejaVuSans-61" x="1411.181641"/>
      <use xlink:href="#DejaVuSans-6c" x="1472.460938"/>
     </g>
    </g>
    <g id="line2d_37">
     <path d="M 524.56 128.047187 
L 534.56 128.047187 
L 544.56 128.047187 
" style="fill: none; stroke: #e377c2; stroke-width: 1.5; stroke-linecap: square"/>
    </g>
    <g id="text_26">
     <!-- Interaction -->
     <g transform="translate(552.56 131.547187)scale(0.1 -0.1)">
      <use xlink:href="#DejaVuSans-49"/>
      <use xlink:href="#DejaVuSans-6e" x="29.492188"/>
      <use xlink:href="#DejaVuSans-74" x="92.871094"/>
      <use xlink:href="#DejaVuSans-65" x="132.080078"/>
      <use xlink:href="#DejaVuSans-72" x="193.603516"/>
      <use xlink:href="#DejaVuSans-61" x="234.716797"/>
      <use xlink:href="#DejaVuSans-63" x="295.996094"/>
      <use xlink:href="#DejaVuSans-74" x="350.976562"/>
      <use xlink:href="#DejaVuSans-69" x="390.185547"/>
      <use xlink:href="#DejaVuSans-6f" x="417.96875"/>
      <use xlink:href="#DejaVuSans-6e" x="479.150391"/>
     </g>
    </g>
    <g id="line2d_38">
     <path d="M 524.56 142.725312 
L 534.56 142.725312 
L 544.56 142.725312 
" style="fill: none; stroke: #7f7f7f; stroke-width: 1.5; stroke-linecap: square"/>
    </g>
    <g id="text_27">
     <!-- Node + surprisal + interaction -->
     <g transform="translate(552.56 146.225312)scale(0.1 -0.1)">
      <use xlink:href="#DejaVuSans-4e"/>
      <use xlink:href="#DejaVuSans-6f" x="74.804688"/>
      <use xlink:href="#DejaVuSans-64" x="135.986328"/>
      <use xlink:href="#DejaVuSans-65" x="199.462891"/>
      <use xlink:href="#DejaVuSans-20" x="260.986328"/>
      <use xlink:href="#DejaVuSans-2b" x="292.773438"/>
      <use xlink:href="#DejaVuSans-20" x="376.5625"/>
      <use xlink:href="#DejaVuSans-73" x="408.349609"/>
      <use xlink:href="#DejaVuSans-75" x="460.449219"/>
      <use xlink:href="#DejaVuSans-72" x="523.828125"/>
      <use xlink:href="#DejaVuSans-70" x="564.941406"/>
      <use xlink:href="#DejaVuSans-72" x="628.417969"/>
      <use xlink:href="#DejaVuSans-69" x="669.53125"/>
      <use xlink:href="#DejaVuSans-73" x="697.314453"/>
      <use xlink:href="#DejaVuSans-61" x="749.414062"/>
      <use xlink:href="#DejaVuSans-6c" x="810.693359"/>
      <use xlink:href="#DejaVuSans-20" x="838.476562"/>
      <use xlink:href="#DejaVuSans-2b" x="870.263672"/>
      <use xlink:href="#DejaVuSans-20" x="954.052734"/>
      <use xlink:href="#DejaVuSans-69" x="985.839844"/>
      <use xlink:href="#DejaVuSans-6e" x="1013.623047"/>
      <use xlink:href="#DejaVuSans-74" x="1077.001953"/>
      <use xlink:href="#DejaVuSans-65" x="1116.210938"/>
      <use xlink:href="#DejaVuSans-72" x="1177.734375"/>
      <use xlink:href="#DejaVuSans-61" x="1218.847656"/>
      <use xlink:href="#DejaVuSans-63" x="1280.126953"/>
      <use xlink:href="#DejaVuSans-74" x="1335.107422"/>
      <use xlink:href="#DejaVuSans-69" x="1374.316406"/>
      <use xlink:href="#DejaVuSans-6f" x="1402.099609"/>
      <use xlink:href="#DejaVuSans-6e" x="1463.28125"/>
     </g>
    </g>
   </g>
  </g>
 </g>
 <defs>
  <clipPath id="p1e841dd117">
   <rect x="47.72" y="26.88" width="217.495" height="147.16"/>
  </clipPath>
  <clipPath id="pef226cb64e">
   <rect x="298.065" y="26.88" width="217.495" height="147.16"/>
  </clipPath>
 </defs>
</svg>
