<?xml version="1.0" encoding="utf-8" standalone="no"?>
<!DOCTYPE svg PUBLIC "-//W3C//DTD SVG 1.1//EN"
  "http://www.w3.org/Graphics/SVG/1.1/DTD/svg11.dtd">
<svg xmlns:xlink="http://www.w3.org/1999/xlink" width="720pt" height="216pt" viewBox="0 0 720 216" xmlns="http://www.w3.org/2000/svg" version="1.1">
 <metadata>
  <rdf:RDF xmlns:dc="http://purl.org/dc/elements/1.1/" xmlns:cc="http://creativecommons.org/ns#" xmlns:rdf="http://www.w3.org/1999/02/22-rdf-syntax-ns#">
   <cc:Work>
    <dc:type rdf:resource="http://purl.org/dc/dcmitype/StillImage"/>
    <dc:date>2024-01-15T21:03:54.997501</dc:date>
    <dc:format>image/svg+xml</dc:format>
    <dc:creator>
     <cc:Agent>
      <dc:title>Matplotlib v3.5.1, https://matplotlib.org/</dc:title>
     </cc:Agent>
    </dc:creator>
   </cc:Work>
  </rdf:RDF>
 </metadata>
 <defs>
  <style type="text/css">*{stroke-linejoin: round; stroke-linecap: butt}</style>
 </defs>
 <g id="figure_1">
  <g id="patch_1">
   <path d="M 0 216 
L 720 216 
L 720 0 
L 0 0 
z
" style="fill: #ffffff"/>
  </g>
  <g id="axes_1">
   <g id="patch_2">
    <path d="M 47.72 174.04 
L 265.215 174.04 
L 265.215 26.88 
L 47.72 26.88 
z
" style="fill: #ffffff"/>
   </g>
   <g id="PolyCollection_1">
    <path d="M 47.72 33.569091 
L 47.72 33.569092 
L 59.167105 34.755969 
L 70.614211 37.777233 
L 82.061316 42.382012 
L 93.508421 48.055405 
L 104.955526 54.89788 
L 116.402632 62.681761 
L 127.849737 70.538312 
L 139.296842 78.377459 
L 150.743947 86.740607 
L 162.191053 95.151297 
L 173.638158 103.111211 
L 185.085263 109.617832 
L 196.532368 116.799413 
L 207.979474 123.554516 
L 219.426579 129.349085 
L 230.873684 135.002065 
L 242.320789 140.253818 
L 253.767895 145.483461 
L 265.215 149.89768 
L 265.215 134.079551 
L 265.215 134.079551 
L 253.767895 130.111648 
L 242.320789 125.164267 
L 230.873684 120.109408 
L 219.426579 114.78669 
L 207.979474 109.102171 
L 196.532368 102.897672 
L 185.085263 96.894067 
L 173.638158 90.406373 
L 162.191053 83.229513 
L 150.743947 76.297536 
L 139.296842 69.56368 
L 127.849737 63.022474 
L 116.402632 56.521597 
L 104.955526 50.162238 
L 93.508421 44.829137 
L 82.061316 40.260928 
L 70.614211 36.807733 
L 59.167105 34.315349 
L 47.72 33.569091 
z
" clip-path="url(#p781ba65c36)" style="fill: #1f77b4; fill-opacity: 0.4"/>
   </g>
   <g id="PolyCollection_2">
    <path d="M 47.72 33.569233 
L 47.72 33.569305 
L 59.167105 34.328884 
L 70.614211 35.911707 
L 82.061316 38.640341 
L 93.508421 42.042475 
L 104.955526 46.589736 
L 116.402632 51.96905 
L 127.849737 57.78326 
L 139.296842 63.456143 
L 150.743947 69.918359 
L 162.191053 76.976958 
L 173.638158 84.113526 
L 185.085263 90.401251 
L 196.532368 97.674514 
L 207.979474 104.342439 
L 219.426579 110.393554 
L 230.873684 116.143039 
L 242.320789 121.629221 
L 253.767895 126.980571 
L 265.215 131.677138 
L 265.215 117.715121 
L 265.215 117.715121 
L 253.767895 113.642151 
L 242.320789 108.253626 
L 230.873684 103.179879 
L 219.426579 97.790127 
L 207.979474 91.939578 
L 196.532368 85.758102 
L 185.085263 80.088895 
L 173.638158 74.138569 
L 162.191053 67.912588 
L 150.743947 62.125397 
L 139.296842 56.645262 
L 127.849737 51.701624 
L 116.402632 47.237202 
L 104.955526 42.941997 
L 93.508421 39.762563 
L 82.061316 37.121499 
L 70.614211 35.303315 
L 59.167105 34.066917 
L 47.72 33.569233 
z
" clip-path="url(#p781ba65c36)" style="fill: #ff7f0e; fill-opacity: 0.4"/>
   </g>
   <g id="PolyCollection_3">
    <path d="M 47.72 33.5691 
L 47.72 33.569103 
L 59.167105 34.450353 
L 70.614211 35.945064 
L 82.061316 38.01634 
L 93.508421 40.563844 
L 104.955526 43.737362 
L 116.402632 47.29034 
L 127.849737 50.674265 
L 139.296842 54.370098 
L 150.743947 58.4043 
L 162.191053 62.847412 
L 173.638158 66.698548 
L 185.085263 70.346858 
L 196.532368 74.620639 
L 207.979474 78.274339 
L 219.426579 82.00007 
L 230.873684 85.532853 
L 242.320789 88.554713 
L 253.767895 92.044921 
L 265.215 94.935444 
L 265.215 86.612536 
L 265.215 86.612536 
L 253.767895 83.98878 
L 242.320789 80.346956 
L 230.873684 76.745911 
L 219.426579 73.342158 
L 207.979474 69.777614 
L 196.532368 66.163009 
L 185.085263 62.685637 
L 173.638158 59.116872 
L 162.191053 55.745699 
L 150.743947 52.666664 
L 139.296842 49.280573 
L 127.849737 46.383697 
L 116.402632 43.561638 
L 104.955526 40.674095 
L 93.508421 38.493014 
L 82.061316 36.730846 
L 70.614211 35.253926 
L 59.167105 34.143028 
L 47.72 33.5691 
z
" clip-path="url(#p781ba65c36)" style="fill: #2ca02c; fill-opacity: 0.4"/>
   </g>
   <g id="PolyCollection_4">
    <path d="M 47.72 33.569904 
L 47.72 33.570313 
L 59.167105 34.263568 
L 70.614211 35.316215 
L 82.061316 36.942428 
L 93.508421 38.978453 
L 104.955526 41.63915 
L 116.402632 44.855935 
L 127.849737 48.111617 
L 139.296842 51.346917 
L 150.743947 55.158803 
L 162.191053 59.531658 
L 173.638158 63.466111 
L 185.085263 67.156487 
L 196.532368 71.530367 
L 207.979474 75.380536 
L 219.426579 79.296932 
L 230.873684 83.109646 
L 242.320789 86.353368 
L 253.767895 90.043316 
L 265.215 93.190483 
L 265.215 85.294579 
L 265.215 85.294579 
L 253.767895 82.73664 
L 242.320789 79.073722 
L 230.873684 75.43485 
L 219.426579 71.970759 
L 207.979474 68.390369 
L 196.532368 64.734998 
L 185.085263 61.097339 
L 173.638158 57.496652 
L 162.191053 53.928129 
L 150.743947 50.741426 
L 139.296842 47.304508 
L 127.849737 44.336239 
L 116.402632 41.787633 
L 104.955526 39.258539 
L 93.508421 37.393809 
L 82.061316 35.983222 
L 70.614211 34.858479 
L 59.167105 34.045132 
L 47.72 33.569904 
z
" clip-path="url(#p781ba65c36)" style="fill: #d62728; fill-opacity: 0.4"/>
   </g>
   <g id="PolyCollection_5">
    <path d="M 47.72 33.5691 
L 47.72 33.569103 
L 59.167105 34.754687 
L 70.614211 37.799233 
L 82.061316 42.425053 
L 93.508421 48.043655 
L 104.955526 54.890831 
L 116.402632 62.645792 
L 127.849737 70.587196 
L 139.296842 78.442829 
L 150.743947 87.229645 
L 162.191053 95.246727 
L 173.638158 103.08553 
L 185.085263 109.983873 
L 196.532368 116.911248 
L 207.979474 123.743208 
L 219.426579 130.066022 
L 230.873684 135.058757 
L 242.320789 140.887426 
L 253.767895 145.759887 
L 265.215 149.873493 
L 265.215 134.454084 
L 265.215 134.454084 
L 253.767895 130.599959 
L 242.320789 125.351504 
L 230.873684 120.576869 
L 219.426579 115.21528 
L 207.979474 109.377693 
L 196.532368 103.221384 
L 185.085263 97.044639 
L 173.638158 91.132085 
L 162.191053 83.565898 
L 150.743947 76.485657 
L 139.296842 69.514613 
L 127.849737 63.353391 
L 116.402632 56.628476 
L 104.955526 50.213513 
L 93.508421 44.884771 
L 82.061316 40.272727 
L 70.614211 36.819874 
L 59.167105 34.314302 
L 47.72 33.5691 
z
" clip-path="url(#p781ba65c36)" style="fill: #9467bd; fill-opacity: 0.4"/>
   </g>
   <g id="PolyCollection_6">
    <path d="M 47.72 33.569673 
L 47.72 33.569957 
L 59.167105 34.328879 
L 70.614211 35.917815 
L 82.061316 38.665702 
L 93.508421 42.030595 
L 104.955526 46.596074 
L 116.402632 51.934062 
L 127.849737 57.896868 
L 139.296842 63.451925 
L 150.743947 69.983457 
L 162.191053 77.012328 
L 173.638158 84.001464 
L 185.085263 90.613306 
L 196.532368 97.768567 
L 207.979474 104.541162 
L 219.426579 110.880844 
L 230.873684 116.325772 
L 242.320789 121.879991 
L 253.767895 127.099951 
L 265.215 131.564302 
L 265.215 117.815065 
L 265.215 117.815065 
L 253.767895 114.114323 
L 242.320789 108.62783 
L 230.873684 103.527898 
L 219.426579 98.063188 
L 207.979474 92.150931 
L 196.532368 86.011111 
L 185.085263 80.34226 
L 173.638158 74.707662 
L 162.191053 68.059981 
L 150.743947 62.168684 
L 139.296842 56.682137 
L 127.849737 51.76639 
L 116.402632 47.311544 
L 104.955526 42.967031 
L 93.508421 39.786248 
L 82.061316 37.130879 
L 70.614211 35.303718 
L 59.167105 34.06557 
L 47.72 33.569673 
z
" clip-path="url(#p781ba65c36)" style="fill: #8c564b; fill-opacity: 0.4"/>
   </g>
   <g id="PolyCollection_7">
    <path d="M 47.72 46.335501 
L 47.72 49.531719 
L 59.167105 51.108683 
L 70.614211 54.939202 
L 82.061316 60.830381 
L 93.508421 67.782708 
L 104.955526 75.249682 
L 116.402632 83.456432 
L 127.849737 91.770613 
L 139.296842 99.615421 
L 150.743947 108.306908 
L 162.191053 117.21199 
L 173.638158 125.380722 
L 185.085263 131.925406 
L 196.532368 138.872377 
L 207.979474 144.908119 
L 219.426579 149.906729 
L 230.873684 155.220124 
L 242.320789 159.341327 
L 253.767895 163.65016 
L 265.215 167.350909 
L 265.215 151.241479 
L 265.215 151.241479 
L 253.767895 147.783104 
L 242.320789 143.765239 
L 230.873684 139.331598 
L 219.426579 134.591682 
L 207.979474 129.498436 
L 196.532368 123.473116 
L 185.085263 117.316934 
L 173.638158 110.482465 
L 162.191053 103.226488 
L 150.743947 96.016098 
L 139.296842 88.217421 
L 127.849737 80.686896 
L 116.402632 73.413386 
L 104.955526 65.701517 
L 93.508421 59.050079 
L 82.061316 54.061515 
L 70.614211 49.984891 
L 59.167105 47.288276 
L 47.72 46.335501 
z
" clip-path="url(#p781ba65c36)" style="fill: #e377c2; fill-opacity: 0.4"/>
   </g>
   <g id="PolyCollection_8">
    <path d="M 47.72 33.569379 
L 47.72 33.56952 
L 59.167105 33.862525 
L 70.614211 34.132098 
L 82.061316 35.044378 
L 93.508421 36.849195 
L 104.955526 39.534591 
L 116.402632 43.225623 
L 127.849737 47.405134 
L 139.296842 51.822246 
L 150.743947 56.846332 
L 162.191053 62.944758 
L 173.638158 69.393642 
L 185.085263 75.642182 
L 196.532368 83.002286 
L 207.979474 89.57946 
L 219.426579 95.867345 
L 230.873684 101.726489 
L 242.320789 107.35586 
L 253.767895 112.828479 
L 265.215 117.916171 
L 265.215 105.46594 
L 265.215 105.46594 
L 253.767895 100.765314 
L 242.320789 94.778991 
L 230.873684 89.130329 
L 219.426579 83.090239 
L 207.979474 77.010247 
L 196.532368 70.825376 
L 185.085263 65.072929 
L 173.638158 59.234906 
L 162.191053 53.712609 
L 150.743947 48.610963 
L 139.296842 43.890868 
L 127.849737 40.140005 
L 116.402632 37.527963 
L 104.955526 35.459767 
L 93.508421 34.530339 
L 82.061316 34.060813 
L 70.614211 33.907508 
L 59.167105 33.815926 
L 47.72 33.569379 
z
" clip-path="url(#p781ba65c36)" style="fill: #7f7f7f; fill-opacity: 0.4"/>
   </g>
   <g id="matplotlib.axis_1">
    <g id="xtick_1">
     <g id="line2d_1">
      <defs>
       <path id="m97db7a6a6f" d="M 0 0 
L 0 3.5 
" style="stroke: #000000; stroke-width: 0.8"/>
      </defs>
      <g>
       <use xlink:href="#m97db7a6a6f" x="47.72" y="174.04" style="stroke: #000000; stroke-width: 0.8"/>
      </g>
     </g>
     <g id="text_1">
      <!-- 0.0 -->
      <g transform="translate(39.768438 188.638438)scale(0.1 -0.1)">
       <defs>
        <path id="DejaVuSans-30" d="M 2034 4250 
Q 1547 4250 1301 3770 
Q 1056 3291 1056 2328 
Q 1056 1369 1301 889 
Q 1547 409 2034 409 
Q 2525 409 2770 889 
Q 3016 1369 3016 2328 
Q 3016 3291 2770 3770 
Q 2525 4250 2034 4250 
z
M 2034 4750 
Q 2819 4750 3233 4129 
Q 3647 3509 3647 2328 
Q 3647 1150 3233 529 
Q 2819 -91 2034 -91 
Q 1250 -91 836 529 
Q 422 1150 422 2328 
Q 422 3509 836 4129 
Q 1250 4750 2034 4750 
z
" transform="scale(0.015625)"/>
        <path id="DejaVuSans-2e" d="M 684 794 
L 1344 794 
L 1344 0 
L 684 0 
L 684 794 
z
" transform="scale(0.015625)"/>
       </defs>
       <use xlink:href="#DejaVuSans-30"/>
       <use xlink:href="#DejaVuSans-2e" x="63.623047"/>
       <use xlink:href="#DejaVuSans-30" x="95.410156"/>
      </g>
     </g>
    </g>
    <g id="xtick_2">
     <g id="line2d_2">
      <g>
       <use xlink:href="#m97db7a6a6f" x="102.09375" y="174.04" style="stroke: #000000; stroke-width: 0.8"/>
      </g>
     </g>
     <g id="text_2">
      <!-- 0.5 -->
      <g transform="translate(94.142188 188.638438)scale(0.1 -0.1)">
       <defs>
        <path id="DejaVuSans-35" d="M 691 4666 
L 3169 4666 
L 3169 4134 
L 1269 4134 
L 1269 2991 
Q 1406 3038 1543 3061 
Q 1681 3084 1819 3084 
Q 2600 3084 3056 2656 
Q 3513 2228 3513 1497 
Q 3513 744 3044 326 
Q 2575 -91 1722 -91 
Q 1428 -91 1123 -41 
Q 819 9 494 109 
L 494 744 
Q 775 591 1075 516 
Q 1375 441 1709 441 
Q 2250 441 2565 725 
Q 2881 1009 2881 1497 
Q 2881 1984 2565 2268 
Q 2250 2553 1709 2553 
Q 1456 2553 1204 2497 
Q 953 2441 691 2322 
L 691 4666 
z
" transform="scale(0.015625)"/>
       </defs>
       <use xlink:href="#DejaVuSans-30"/>
       <use xlink:href="#DejaVuSans-2e" x="63.623047"/>
       <use xlink:href="#DejaVuSans-35" x="95.410156"/>
      </g>
     </g>
    </g>
    <g id="xtick_3">
     <g id="line2d_3">
      <g>
       <use xlink:href="#m97db7a6a6f" x="156.4675" y="174.04" style="stroke: #000000; stroke-width: 0.8"/>
      </g>
     </g>
     <g id="text_3">
      <!-- 1.0 -->
      <g transform="translate(148.515938 188.638438)scale(0.1 -0.1)">
       <defs>
        <path id="DejaVuSans-31" d="M 794 531 
L 1825 531 
L 1825 4091 
L 703 3866 
L 703 4441 
L 1819 4666 
L 2450 4666 
L 2450 531 
L 3481 531 
L 3481 0 
L 794 0 
L 794 531 
z
" transform="scale(0.015625)"/>
       </defs>
       <use xlink:href="#DejaVuSans-31"/>
       <use xlink:href="#DejaVuSans-2e" x="63.623047"/>
       <use xlink:href="#DejaVuSans-30" x="95.410156"/>
      </g>
     </g>
    </g>
    <g id="xtick_4">
     <g id="line2d_4">
      <g>
       <use xlink:href="#m97db7a6a6f" x="210.84125" y="174.04" style="stroke: #000000; stroke-width: 0.8"/>
      </g>
     </g>
     <g id="text_4">
      <!-- 1.5 -->
      <g transform="translate(202.889687 188.638438)scale(0.1 -0.1)">
       <use xlink:href="#DejaVuSans-31"/>
       <use xlink:href="#DejaVuSans-2e" x="63.623047"/>
       <use xlink:href="#DejaVuSans-35" x="95.410156"/>
      </g>
     </g>
    </g>
    <g id="xtick_5">
     <g id="line2d_5">
      <g>
       <use xlink:href="#m97db7a6a6f" x="265.215" y="174.04" style="stroke: #000000; stroke-width: 0.8"/>
      </g>
     </g>
     <g id="text_5">
      <!-- 2.0 -->
      <g transform="translate(257.263437 188.638438)scale(0.1 -0.1)">
       <defs>
        <path id="DejaVuSans-32" d="M 1228 531 
L 3431 531 
L 3431 0 
L 469 0 
L 469 531 
Q 828 903 1448 1529 
Q 2069 2156 2228 2338 
Q 2531 2678 2651 2914 
Q 2772 3150 2772 3378 
Q 2772 3750 2511 3984 
Q 2250 4219 1831 4219 
Q 1534 4219 1204 4116 
Q 875 4013 500 3803 
L 500 4441 
Q 881 4594 1212 4672 
Q 1544 4750 1819 4750 
Q 2544 4750 2975 4387 
Q 3406 4025 3406 3419 
Q 3406 3131 3298 2873 
Q 3191 2616 2906 2266 
Q 2828 2175 2409 1742 
Q 1991 1309 1228 531 
z
" transform="scale(0.015625)"/>
       </defs>
       <use xlink:href="#DejaVuSans-32"/>
       <use xlink:href="#DejaVuSans-2e" x="63.623047"/>
       <use xlink:href="#DejaVuSans-30" x="95.410156"/>
      </g>
     </g>
    </g>
    <g id="text_6">
     <!-- Influence of surprisal (multiplication) -->
     <g transform="translate(64.320625 202.316563)scale(0.1 -0.1)">
      <defs>
       <path id="DejaVuSans-49" d="M 628 4666 
L 1259 4666 
L 1259 0 
L 628 0 
L 628 4666 
z
" transform="scale(0.015625)"/>
       <path id="DejaVuSans-6e" d="M 3513 2113 
L 3513 0 
L 2938 0 
L 2938 2094 
Q 2938 2591 2744 2837 
Q 2550 3084 2163 3084 
Q 1697 3084 1428 2787 
Q 1159 2491 1159 1978 
L 1159 0 
L 581 0 
L 581 3500 
L 1159 3500 
L 1159 2956 
Q 1366 3272 1645 3428 
Q 1925 3584 2291 3584 
Q 2894 3584 3203 3211 
Q 3513 2838 3513 2113 
z
" transform="scale(0.015625)"/>
       <path id="DejaVuSans-66" d="M 2375 4863 
L 2375 4384 
L 1825 4384 
Q 1516 4384 1395 4259 
Q 1275 4134 1275 3809 
L 1275 3500 
L 2222 3500 
L 2222 3053 
L 1275 3053 
L 1275 0 
L 697 0 
L 697 3053 
L 147 3053 
L 147 3500 
L 697 3500 
L 697 3744 
Q 697 4328 969 4595 
Q 1241 4863 1831 4863 
L 2375 4863 
z
" transform="scale(0.015625)"/>
       <path id="DejaVuSans-6c" d="M 603 4863 
L 1178 4863 
L 1178 0 
L 603 0 
L 603 4863 
z
" transform="scale(0.015625)"/>
       <path id="DejaVuSans-75" d="M 544 1381 
L 544 3500 
L 1119 3500 
L 1119 1403 
Q 1119 906 1312 657 
Q 1506 409 1894 409 
Q 2359 409 2629 706 
Q 2900 1003 2900 1516 
L 2900 3500 
L 3475 3500 
L 3475 0 
L 2900 0 
L 2900 538 
Q 2691 219 2414 64 
Q 2138 -91 1772 -91 
Q 1169 -91 856 284 
Q 544 659 544 1381 
z
M 1991 3584 
L 1991 3584 
z
" transform="scale(0.015625)"/>
       <path id="DejaVuSans-65" d="M 3597 1894 
L 3597 1613 
L 953 1613 
Q 991 1019 1311 708 
Q 1631 397 2203 397 
Q 2534 397 2845 478 
Q 3156 559 3463 722 
L 3463 178 
Q 3153 47 2828 -22 
Q 2503 -91 2169 -91 
Q 1331 -91 842 396 
Q 353 884 353 1716 
Q 353 2575 817 3079 
Q 1281 3584 2069 3584 
Q 2775 3584 3186 3129 
Q 3597 2675 3597 1894 
z
M 3022 2063 
Q 3016 2534 2758 2815 
Q 2500 3097 2075 3097 
Q 1594 3097 1305 2825 
Q 1016 2553 972 2059 
L 3022 2063 
z
" transform="scale(0.015625)"/>
       <path id="DejaVuSans-63" d="M 3122 3366 
L 3122 2828 
Q 2878 2963 2633 3030 
Q 2388 3097 2138 3097 
Q 1578 3097 1268 2742 
Q 959 2388 959 1747 
Q 959 1106 1268 751 
Q 1578 397 2138 397 
Q 2388 397 2633 464 
Q 2878 531 3122 666 
L 3122 134 
Q 2881 22 2623 -34 
Q 2366 -91 2075 -91 
Q 1284 -91 818 406 
Q 353 903 353 1747 
Q 353 2603 823 3093 
Q 1294 3584 2113 3584 
Q 2378 3584 2631 3529 
Q 2884 3475 3122 3366 
z
" transform="scale(0.015625)"/>
       <path id="DejaVuSans-20" transform="scale(0.015625)"/>
       <path id="DejaVuSans-6f" d="M 1959 3097 
Q 1497 3097 1228 2736 
Q 959 2375 959 1747 
Q 959 1119 1226 758 
Q 1494 397 1959 397 
Q 2419 397 2687 759 
Q 2956 1122 2956 1747 
Q 2956 2369 2687 2733 
Q 2419 3097 1959 3097 
z
M 1959 3584 
Q 2709 3584 3137 3096 
Q 3566 2609 3566 1747 
Q 3566 888 3137 398 
Q 2709 -91 1959 -91 
Q 1206 -91 779 398 
Q 353 888 353 1747 
Q 353 2609 779 3096 
Q 1206 3584 1959 3584 
z
" transform="scale(0.015625)"/>
       <path id="DejaVuSans-73" d="M 2834 3397 
L 2834 2853 
Q 2591 2978 2328 3040 
Q 2066 3103 1784 3103 
Q 1356 3103 1142 2972 
Q 928 2841 928 2578 
Q 928 2378 1081 2264 
Q 1234 2150 1697 2047 
L 1894 2003 
Q 2506 1872 2764 1633 
Q 3022 1394 3022 966 
Q 3022 478 2636 193 
Q 2250 -91 1575 -91 
Q 1294 -91 989 -36 
Q 684 19 347 128 
L 347 722 
Q 666 556 975 473 
Q 1284 391 1588 391 
Q 1994 391 2212 530 
Q 2431 669 2431 922 
Q 2431 1156 2273 1281 
Q 2116 1406 1581 1522 
L 1381 1569 
Q 847 1681 609 1914 
Q 372 2147 372 2553 
Q 372 3047 722 3315 
Q 1072 3584 1716 3584 
Q 2034 3584 2315 3537 
Q 2597 3491 2834 3397 
z
" transform="scale(0.015625)"/>
       <path id="DejaVuSans-72" d="M 2631 2963 
Q 2534 3019 2420 3045 
Q 2306 3072 2169 3072 
Q 1681 3072 1420 2755 
Q 1159 2438 1159 1844 
L 1159 0 
L 581 0 
L 581 3500 
L 1159 3500 
L 1159 2956 
Q 1341 3275 1631 3429 
Q 1922 3584 2338 3584 
Q 2397 3584 2469 3576 
Q 2541 3569 2628 3553 
L 2631 2963 
z
" transform="scale(0.015625)"/>
       <path id="DejaVuSans-70" d="M 1159 525 
L 1159 -1331 
L 581 -1331 
L 581 3500 
L 1159 3500 
L 1159 2969 
Q 1341 3281 1617 3432 
Q 1894 3584 2278 3584 
Q 2916 3584 3314 3078 
Q 3713 2572 3713 1747 
Q 3713 922 3314 415 
Q 2916 -91 2278 -91 
Q 1894 -91 1617 61 
Q 1341 213 1159 525 
z
M 3116 1747 
Q 3116 2381 2855 2742 
Q 2594 3103 2138 3103 
Q 1681 3103 1420 2742 
Q 1159 2381 1159 1747 
Q 1159 1113 1420 752 
Q 1681 391 2138 391 
Q 2594 391 2855 752 
Q 3116 1113 3116 1747 
z
" transform="scale(0.015625)"/>
       <path id="DejaVuSans-69" d="M 603 3500 
L 1178 3500 
L 1178 0 
L 603 0 
L 603 3500 
z
M 603 4863 
L 1178 4863 
L 1178 4134 
L 603 4134 
L 603 4863 
z
" transform="scale(0.015625)"/>
       <path id="DejaVuSans-61" d="M 2194 1759 
Q 1497 1759 1228 1600 
Q 959 1441 959 1056 
Q 959 750 1161 570 
Q 1363 391 1709 391 
Q 2188 391 2477 730 
Q 2766 1069 2766 1631 
L 2766 1759 
L 2194 1759 
z
M 3341 1997 
L 3341 0 
L 2766 0 
L 2766 531 
Q 2569 213 2275 61 
Q 1981 -91 1556 -91 
Q 1019 -91 701 211 
Q 384 513 384 1019 
Q 384 1609 779 1909 
Q 1175 2209 1959 2209 
L 2766 2209 
L 2766 2266 
Q 2766 2663 2505 2880 
Q 2244 3097 1772 3097 
Q 1472 3097 1187 3025 
Q 903 2953 641 2809 
L 641 3341 
Q 956 3463 1253 3523 
Q 1550 3584 1831 3584 
Q 2591 3584 2966 3190 
Q 3341 2797 3341 1997 
z
" transform="scale(0.015625)"/>
       <path id="DejaVuSans-28" d="M 1984 4856 
Q 1566 4138 1362 3434 
Q 1159 2731 1159 2009 
Q 1159 1288 1364 580 
Q 1569 -128 1984 -844 
L 1484 -844 
Q 1016 -109 783 600 
Q 550 1309 550 2009 
Q 550 2706 781 3412 
Q 1013 4119 1484 4856 
L 1984 4856 
z
" transform="scale(0.015625)"/>
       <path id="DejaVuSans-6d" d="M 3328 2828 
Q 3544 3216 3844 3400 
Q 4144 3584 4550 3584 
Q 5097 3584 5394 3201 
Q 5691 2819 5691 2113 
L 5691 0 
L 5113 0 
L 5113 2094 
Q 5113 2597 4934 2840 
Q 4756 3084 4391 3084 
Q 3944 3084 3684 2787 
Q 3425 2491 3425 1978 
L 3425 0 
L 2847 0 
L 2847 2094 
Q 2847 2600 2669 2842 
Q 2491 3084 2119 3084 
Q 1678 3084 1418 2786 
Q 1159 2488 1159 1978 
L 1159 0 
L 581 0 
L 581 3500 
L 1159 3500 
L 1159 2956 
Q 1356 3278 1631 3431 
Q 1906 3584 2284 3584 
Q 2666 3584 2933 3390 
Q 3200 3197 3328 2828 
z
" transform="scale(0.015625)"/>
       <path id="DejaVuSans-74" d="M 1172 4494 
L 1172 3500 
L 2356 3500 
L 2356 3053 
L 1172 3053 
L 1172 1153 
Q 1172 725 1289 603 
Q 1406 481 1766 481 
L 2356 481 
L 2356 0 
L 1766 0 
Q 1100 0 847 248 
Q 594 497 594 1153 
L 594 3053 
L 172 3053 
L 172 3500 
L 594 3500 
L 594 4494 
L 1172 4494 
z
" transform="scale(0.015625)"/>
       <path id="DejaVuSans-29" d="M 513 4856 
L 1013 4856 
Q 1481 4119 1714 3412 
Q 1947 2706 1947 2009 
Q 1947 1309 1714 600 
Q 1481 -109 1013 -844 
L 513 -844 
Q 928 -128 1133 580 
Q 1338 1288 1338 2009 
Q 1338 2731 1133 3434 
Q 928 4138 513 4856 
z
" transform="scale(0.015625)"/>
      </defs>
      <use xlink:href="#DejaVuSans-49"/>
      <use xlink:href="#DejaVuSans-6e" x="29.492188"/>
      <use xlink:href="#DejaVuSans-66" x="92.871094"/>
      <use xlink:href="#DejaVuSans-6c" x="128.076172"/>
      <use xlink:href="#DejaVuSans-75" x="155.859375"/>
      <use xlink:href="#DejaVuSans-65" x="219.238281"/>
      <use xlink:href="#DejaVuSans-6e" x="280.761719"/>
      <use xlink:href="#DejaVuSans-63" x="344.140625"/>
      <use xlink:href="#DejaVuSans-65" x="399.121094"/>
      <use xlink:href="#DejaVuSans-20" x="460.644531"/>
      <use xlink:href="#DejaVuSans-6f" x="492.431641"/>
      <use xlink:href="#DejaVuSans-66" x="553.613281"/>
      <use xlink:href="#DejaVuSans-20" x="588.818359"/>
      <use xlink:href="#DejaVuSans-73" x="620.605469"/>
      <use xlink:href="#DejaVuSans-75" x="672.705078"/>
      <use xlink:href="#DejaVuSans-72" x="736.083984"/>
      <use xlink:href="#DejaVuSans-70" x="777.197266"/>
      <use xlink:href="#DejaVuSans-72" x="840.673828"/>
      <use xlink:href="#DejaVuSans-69" x="881.787109"/>
      <use xlink:href="#DejaVuSans-73" x="909.570312"/>
      <use xlink:href="#DejaVuSans-61" x="961.669922"/>
      <use xlink:href="#DejaVuSans-6c" x="1022.949219"/>
      <use xlink:href="#DejaVuSans-20" x="1050.732422"/>
      <use xlink:href="#DejaVuSans-28" x="1082.519531"/>
      <use xlink:href="#DejaVuSans-6d" x="1121.533203"/>
      <use xlink:href="#DejaVuSans-75" x="1218.945312"/>
      <use xlink:href="#DejaVuSans-6c" x="1282.324219"/>
      <use xlink:href="#DejaVuSans-74" x="1310.107422"/>
      <use xlink:href="#DejaVuSans-69" x="1349.316406"/>
      <use xlink:href="#DejaVuSans-70" x="1377.099609"/>
      <use xlink:href="#DejaVuSans-6c" x="1440.576172"/>
      <use xlink:href="#DejaVuSans-69" x="1468.359375"/>
      <use xlink:href="#DejaVuSans-63" x="1496.142578"/>
      <use xlink:href="#DejaVuSans-61" x="1551.123047"/>
      <use xlink:href="#DejaVuSans-74" x="1612.402344"/>
      <use xlink:href="#DejaVuSans-69" x="1651.611328"/>
      <use xlink:href="#DejaVuSans-6f" x="1679.394531"/>
      <use xlink:href="#DejaVuSans-6e" x="1740.576172"/>
      <use xlink:href="#DejaVuSans-29" x="1803.955078"/>
     </g>
    </g>
   </g>
   <g id="matplotlib.axis_2">
    <g id="ytick_1">
     <g id="line2d_6">
      <defs>
       <path id="mfc1dc3a2f9" d="M 0 0 
L -3.5 0 
" style="stroke: #000000; stroke-width: 0.8"/>
      </defs>
      <g>
       <use xlink:href="#mfc1dc3a2f9" x="47.72" y="141.554286" style="stroke: #000000; stroke-width: 0.8"/>
      </g>
     </g>
     <g id="text_7">
      <!-- 0.4 -->
      <g transform="translate(24.816875 145.353504)scale(0.1 -0.1)">
       <defs>
        <path id="DejaVuSans-34" d="M 2419 4116 
L 825 1625 
L 2419 1625 
L 2419 4116 
z
M 2253 4666 
L 3047 4666 
L 3047 1625 
L 3713 1625 
L 3713 1100 
L 3047 1100 
L 3047 0 
L 2419 0 
L 2419 1100 
L 313 1100 
L 313 1709 
L 2253 4666 
z
" transform="scale(0.015625)"/>
       </defs>
       <use xlink:href="#DejaVuSans-30"/>
       <use xlink:href="#DejaVuSans-2e" x="63.623047"/>
       <use xlink:href="#DejaVuSans-34" x="95.410156"/>
      </g>
     </g>
    </g>
    <g id="ytick_2">
     <g id="line2d_7">
      <g>
       <use xlink:href="#mfc1dc3a2f9" x="47.72" y="105.55922" style="stroke: #000000; stroke-width: 0.8"/>
      </g>
     </g>
     <g id="text_8">
      <!-- 0.6 -->
      <g transform="translate(24.816875 109.358438)scale(0.1 -0.1)">
       <defs>
        <path id="DejaVuSans-36" d="M 2113 2584 
Q 1688 2584 1439 2293 
Q 1191 2003 1191 1497 
Q 1191 994 1439 701 
Q 1688 409 2113 409 
Q 2538 409 2786 701 
Q 3034 994 3034 1497 
Q 3034 2003 2786 2293 
Q 2538 2584 2113 2584 
z
M 3366 4563 
L 3366 3988 
Q 3128 4100 2886 4159 
Q 2644 4219 2406 4219 
Q 1781 4219 1451 3797 
Q 1122 3375 1075 2522 
Q 1259 2794 1537 2939 
Q 1816 3084 2150 3084 
Q 2853 3084 3261 2657 
Q 3669 2231 3669 1497 
Q 3669 778 3244 343 
Q 2819 -91 2113 -91 
Q 1303 -91 875 529 
Q 447 1150 447 2328 
Q 447 3434 972 4092 
Q 1497 4750 2381 4750 
Q 2619 4750 2861 4703 
Q 3103 4656 3366 4563 
z
" transform="scale(0.015625)"/>
       </defs>
       <use xlink:href="#DejaVuSans-30"/>
       <use xlink:href="#DejaVuSans-2e" x="63.623047"/>
       <use xlink:href="#DejaVuSans-36" x="95.410156"/>
      </g>
     </g>
    </g>
    <g id="ytick_3">
     <g id="line2d_8">
      <g>
       <use xlink:href="#mfc1dc3a2f9" x="47.72" y="69.564154" style="stroke: #000000; stroke-width: 0.8"/>
      </g>
     </g>
     <g id="text_9">
      <!-- 0.8 -->
      <g transform="translate(24.816875 73.363373)scale(0.1 -0.1)">
       <defs>
        <path id="DejaVuSans-38" d="M 2034 2216 
Q 1584 2216 1326 1975 
Q 1069 1734 1069 1313 
Q 1069 891 1326 650 
Q 1584 409 2034 409 
Q 2484 409 2743 651 
Q 3003 894 3003 1313 
Q 3003 1734 2745 1975 
Q 2488 2216 2034 2216 
z
M 1403 2484 
Q 997 2584 770 2862 
Q 544 3141 544 3541 
Q 544 4100 942 4425 
Q 1341 4750 2034 4750 
Q 2731 4750 3128 4425 
Q 3525 4100 3525 3541 
Q 3525 3141 3298 2862 
Q 3072 2584 2669 2484 
Q 3125 2378 3379 2068 
Q 3634 1759 3634 1313 
Q 3634 634 3220 271 
Q 2806 -91 2034 -91 
Q 1263 -91 848 271 
Q 434 634 434 1313 
Q 434 1759 690 2068 
Q 947 2378 1403 2484 
z
M 1172 3481 
Q 1172 3119 1398 2916 
Q 1625 2713 2034 2713 
Q 2441 2713 2670 2916 
Q 2900 3119 2900 3481 
Q 2900 3844 2670 4047 
Q 2441 4250 2034 4250 
Q 1625 4250 1398 4047 
Q 1172 3844 1172 3481 
z
" transform="scale(0.015625)"/>
       </defs>
       <use xlink:href="#DejaVuSans-30"/>
       <use xlink:href="#DejaVuSans-2e" x="63.623047"/>
       <use xlink:href="#DejaVuSans-38" x="95.410156"/>
      </g>
     </g>
    </g>
    <g id="ytick_4">
     <g id="line2d_9">
      <g>
       <use xlink:href="#mfc1dc3a2f9" x="47.72" y="33.569088" style="stroke: #000000; stroke-width: 0.8"/>
      </g>
     </g>
     <g id="text_10">
      <!-- 1.0 -->
      <g transform="translate(24.816875 37.368307)scale(0.1 -0.1)">
       <use xlink:href="#DejaVuSans-31"/>
       <use xlink:href="#DejaVuSans-2e" x="63.623047"/>
       <use xlink:href="#DejaVuSans-30" x="95.410156"/>
      </g>
     </g>
    </g>
    <g id="text_11">
     <!-- R-value -->
     <g transform="translate(18.737188 119.064687)rotate(-90)scale(0.1 -0.1)">
      <defs>
       <path id="DejaVuSans-52" d="M 2841 2188 
Q 3044 2119 3236 1894 
Q 3428 1669 3622 1275 
L 4263 0 
L 3584 0 
L 2988 1197 
Q 2756 1666 2539 1819 
Q 2322 1972 1947 1972 
L 1259 1972 
L 1259 0 
L 628 0 
L 628 4666 
L 2053 4666 
Q 2853 4666 3247 4331 
Q 3641 3997 3641 3322 
Q 3641 2881 3436 2590 
Q 3231 2300 2841 2188 
z
M 1259 4147 
L 1259 2491 
L 2053 2491 
Q 2509 2491 2742 2702 
Q 2975 2913 2975 3322 
Q 2975 3731 2742 3939 
Q 2509 4147 2053 4147 
L 1259 4147 
z
" transform="scale(0.015625)"/>
       <path id="DejaVuSans-2d" d="M 313 2009 
L 1997 2009 
L 1997 1497 
L 313 1497 
L 313 2009 
z
" transform="scale(0.015625)"/>
       <path id="DejaVuSans-76" d="M 191 3500 
L 800 3500 
L 1894 563 
L 2988 3500 
L 3597 3500 
L 2284 0 
L 1503 0 
L 191 3500 
z
" transform="scale(0.015625)"/>
      </defs>
      <use xlink:href="#DejaVuSans-52"/>
      <use xlink:href="#DejaVuSans-2d" x="65.482422"/>
      <use xlink:href="#DejaVuSans-76" x="98.941406"/>
      <use xlink:href="#DejaVuSans-61" x="158.121094"/>
      <use xlink:href="#DejaVuSans-6c" x="219.400391"/>
      <use xlink:href="#DejaVuSans-75" x="247.183594"/>
      <use xlink:href="#DejaVuSans-65" x="310.5625"/>
     </g>
    </g>
   </g>
   <g id="line2d_10">
    <path d="M 47.72 33.569091 
L 59.167105 34.535659 
L 70.614211 37.292483 
L 82.061316 41.32147 
L 93.508421 46.442271 
L 104.955526 52.530059 
L 116.402632 59.601679 
L 127.849737 66.780393 
L 139.296842 73.97057 
L 150.743947 81.519072 
L 162.191053 89.190405 
L 173.638158 96.758792 
L 185.085263 103.25595 
L 196.532368 109.848543 
L 207.979474 116.328343 
L 219.426579 122.067887 
L 230.873684 127.555737 
L 242.320789 132.709042 
L 253.767895 137.797555 
L 265.215 141.988616 
" clip-path="url(#p781ba65c36)" style="fill: none; stroke: #1f77b4; stroke-width: 1.5; stroke-linecap: square"/>
   </g>
   <g id="line2d_11">
    <path d="M 47.72 33.569269 
L 59.167105 34.1979 
L 70.614211 35.607511 
L 82.061316 37.88092 
L 93.508421 40.902519 
L 104.955526 44.765866 
L 116.402632 49.603126 
L 127.849737 54.742442 
L 139.296842 60.050703 
L 150.743947 66.021878 
L 162.191053 72.444773 
L 173.638158 79.126048 
L 185.085263 85.245073 
L 196.532368 91.716308 
L 207.979474 98.141008 
L 219.426579 104.09184 
L 230.873684 109.661459 
L 242.320789 114.941424 
L 253.767895 120.311361 
L 265.215 124.69613 
" clip-path="url(#p781ba65c36)" style="fill: none; stroke: #ff7f0e; stroke-width: 1.5; stroke-linecap: square"/>
   </g>
   <g id="line2d_12">
    <path d="M 47.72 33.569102 
L 59.167105 34.296691 
L 70.614211 35.599495 
L 82.061316 37.373593 
L 93.508421 39.528429 
L 104.955526 42.205729 
L 116.402632 45.425989 
L 127.849737 48.528981 
L 139.296842 51.825335 
L 150.743947 55.535482 
L 162.191053 59.296555 
L 173.638158 62.90771 
L 185.085263 66.516247 
L 196.532368 70.391824 
L 207.979474 74.025976 
L 219.426579 77.671114 
L 230.873684 81.139382 
L 242.320789 84.450834 
L 253.767895 88.016851 
L 265.215 90.77399 
" clip-path="url(#p781ba65c36)" style="fill: none; stroke: #2ca02c; stroke-width: 1.5; stroke-linecap: square"/>
   </g>
   <g id="line2d_13">
    <path d="M 47.72 33.570109 
L 59.167105 34.15435 
L 70.614211 35.087347 
L 82.061316 36.462825 
L 93.508421 38.186131 
L 104.955526 40.448844 
L 116.402632 43.321784 
L 127.849737 46.223928 
L 139.296842 49.325713 
L 150.743947 52.950114 
L 162.191053 56.729893 
L 173.638158 60.481382 
L 185.085263 64.126913 
L 196.532368 68.132683 
L 207.979474 71.885453 
L 219.426579 75.633845 
L 230.873684 79.272248 
L 242.320789 82.713545 
L 253.767895 86.389978 
L 265.215 89.242531 
" clip-path="url(#p781ba65c36)" style="fill: none; stroke: #d62728; stroke-width: 1.5; stroke-linecap: square"/>
   </g>
   <g id="line2d_14">
    <path d="M 47.72 33.569102 
L 59.167105 34.534494 
L 70.614211 37.309553 
L 82.061316 41.34889 
L 93.508421 46.464213 
L 104.955526 52.552172 
L 116.402632 59.637134 
L 127.849737 66.970294 
L 139.296842 73.978721 
L 150.743947 81.857651 
L 162.191053 89.406313 
L 173.638158 97.108807 
L 185.085263 103.514256 
L 196.532368 110.066316 
L 207.979474 116.560451 
L 219.426579 122.640651 
L 230.873684 127.817813 
L 242.320789 133.119465 
L 253.767895 138.179923 
L 265.215 142.163789 
" clip-path="url(#p781ba65c36)" style="fill: none; stroke: #9467bd; stroke-width: 1.5; stroke-linecap: square"/>
   </g>
   <g id="line2d_15">
    <path d="M 47.72 33.569815 
L 59.167105 34.197225 
L 70.614211 35.610766 
L 82.061316 37.898291 
L 93.508421 40.908421 
L 104.955526 44.781553 
L 116.402632 49.622803 
L 127.849737 54.831629 
L 139.296842 60.067031 
L 150.743947 66.07607 
L 162.191053 72.536155 
L 173.638158 79.354563 
L 185.085263 85.477783 
L 196.532368 91.889839 
L 207.979474 98.346047 
L 219.426579 104.472016 
L 230.873684 109.926835 
L 242.320789 115.253911 
L 253.767895 120.607137 
L 265.215 124.689684 
" clip-path="url(#p781ba65c36)" style="fill: none; stroke: #8c564b; stroke-width: 1.5; stroke-linecap: square"/>
   </g>
   <g id="line2d_16">
    <path d="M 47.72 47.93361 
L 59.167105 49.19848 
L 70.614211 52.462046 
L 82.061316 57.445948 
L 93.508421 63.416393 
L 104.955526 70.4756 
L 116.402632 78.434909 
L 127.849737 86.228754 
L 139.296842 93.916421 
L 150.743947 102.161503 
L 162.191053 110.219239 
L 173.638158 117.931594 
L 185.085263 124.62117 
L 196.532368 131.172747 
L 207.979474 137.203278 
L 219.426579 142.249206 
L 230.873684 147.275861 
L 242.320789 151.553283 
L 253.767895 155.716632 
L 265.215 159.296194 
" clip-path="url(#p781ba65c36)" style="fill: none; stroke: #e377c2; stroke-width: 1.5; stroke-linecap: square"/>
   </g>
   <g id="line2d_17">
    <path d="M 47.72 33.569449 
L 59.167105 33.839225 
L 70.614211 34.019803 
L 82.061316 34.552595 
L 93.508421 35.689767 
L 104.955526 37.497179 
L 116.402632 40.376793 
L 127.849737 43.77257 
L 139.296842 47.856557 
L 150.743947 52.728648 
L 162.191053 58.328683 
L 173.638158 64.314274 
L 185.085263 70.357556 
L 196.532368 76.913831 
L 207.979474 83.294854 
L 219.426579 89.478792 
L 230.873684 95.428409 
L 242.320789 101.067426 
L 253.767895 106.796896 
L 265.215 111.691056 
" clip-path="url(#p781ba65c36)" style="fill: none; stroke: #7f7f7f; stroke-width: 1.5; stroke-linecap: square"/>
   </g>
   <g id="patch_3">
    <path d="M 47.72 174.04 
L 47.72 26.88 
" style="fill: none; stroke: #000000; stroke-width: 0.8; stroke-linejoin: miter; stroke-linecap: square"/>
   </g>
   <g id="patch_4">
    <path d="M 47.72 174.04 
L 265.215 174.04 
" style="fill: none; stroke: #000000; stroke-width: 0.8; stroke-linejoin: miter; stroke-linecap: square"/>
   </g>
   <g id="text_12">
    <!-- Node * surprisal -->
    <g transform="translate(108.18625 20.88)scale(0.12 -0.12)">
     <defs>
      <path id="DejaVuSans-4e" d="M 628 4666 
L 1478 4666 
L 3547 763 
L 3547 4666 
L 4159 4666 
L 4159 0 
L 3309 0 
L 1241 3903 
L 1241 0 
L 628 0 
L 628 4666 
z
" transform="scale(0.015625)"/>
      <path id="DejaVuSans-64" d="M 2906 2969 
L 2906 4863 
L 3481 4863 
L 3481 0 
L 2906 0 
L 2906 525 
Q 2725 213 2448 61 
Q 2172 -91 1784 -91 
Q 1150 -91 751 415 
Q 353 922 353 1747 
Q 353 2572 751 3078 
Q 1150 3584 1784 3584 
Q 2172 3584 2448 3432 
Q 2725 3281 2906 2969 
z
M 947 1747 
Q 947 1113 1208 752 
Q 1469 391 1925 391 
Q 2381 391 2643 752 
Q 2906 1113 2906 1747 
Q 2906 2381 2643 2742 
Q 2381 3103 1925 3103 
Q 1469 3103 1208 2742 
Q 947 2381 947 1747 
z
" transform="scale(0.015625)"/>
      <path id="DejaVuSans-2a" d="M 3009 3897 
L 1888 3291 
L 3009 2681 
L 2828 2375 
L 1778 3009 
L 1778 1831 
L 1422 1831 
L 1422 3009 
L 372 2375 
L 191 2681 
L 1313 3291 
L 191 3897 
L 372 4206 
L 1422 3572 
L 1422 4750 
L 1778 4750 
L 1778 3572 
L 2828 4206 
L 3009 3897 
z
" transform="scale(0.015625)"/>
     </defs>
     <use xlink:href="#DejaVuSans-4e"/>
     <use xlink:href="#DejaVuSans-6f" x="74.804688"/>
     <use xlink:href="#DejaVuSans-64" x="135.986328"/>
     <use xlink:href="#DejaVuSans-65" x="199.462891"/>
     <use xlink:href="#DejaVuSans-20" x="260.986328"/>
     <use xlink:href="#DejaVuSans-2a" x="292.773438"/>
     <use xlink:href="#DejaVuSans-20" x="342.773438"/>
     <use xlink:href="#DejaVuSans-73" x="374.560547"/>
     <use xlink:href="#DejaVuSans-75" x="426.660156"/>
     <use xlink:href="#DejaVuSans-72" x="490.039062"/>
     <use xlink:href="#DejaVuSans-70" x="531.152344"/>
     <use xlink:href="#DejaVuSans-72" x="594.628906"/>
     <use xlink:href="#DejaVuSans-69" x="635.742188"/>
     <use xlink:href="#DejaVuSans-73" x="663.525391"/>
     <use xlink:href="#DejaVuSans-61" x="715.625"/>
     <use xlink:href="#DejaVuSans-6c" x="776.904297"/>
    </g>
   </g>
  </g>
  <g id="axes_2">
   <g id="patch_5">
    <path d="M 298.065 174.04 
L 515.56 174.04 
L 515.56 26.88 
L 298.065 26.88 
z
" style="fill: #ffffff"/>
   </g>
   <g id="PolyCollection_9">
    <path d="M 298.065 33.569091 
L 298.065 33.569092 
L 309.512105 34.818769 
L 320.959211 38.2706 
L 332.406316 42.484804 
L 343.853421 47.666851 
L 355.300526 54.073239 
L 366.747632 61.173327 
L 378.194737 68.465122 
L 389.641842 76.4741 
L 401.088947 84.141951 
L 412.536053 91.648431 
L 423.983158 99.158124 
L 435.430263 105.535306 
L 446.877368 112.715446 
L 458.324474 119.205907 
L 469.771579 124.788372 
L 481.218684 130.845006 
L 492.665789 135.70847 
L 504.112895 140.901428 
L 515.56 145.522572 
L 515.56 132.665597 
L 515.56 132.665597 
L 504.112895 127.674774 
L 492.665789 122.85811 
L 481.218684 117.391008 
L 469.771579 112.241075 
L 458.324474 106.267965 
L 446.877368 100.5551 
L 435.430263 93.531518 
L 423.983158 87.343246 
L 412.536053 80.805467 
L 401.088947 74.483926 
L 389.641842 68.011698 
L 378.194737 61.341146 
L 366.747632 55.184564 
L 355.300526 49.946025 
L 343.853421 45.019276 
L 332.406316 40.464459 
L 320.959211 36.720291 
L 309.512105 34.292326 
L 298.065 33.569091 
z
" clip-path="url(#pb61546a19d)" style="fill: #1f77b4; fill-opacity: 0.4"/>
   </g>
   <g id="PolyCollection_10">
    <path d="M 298.065 33.569233 
L 298.065 33.569305 
L 309.512105 34.820425 
L 320.959211 38.273868 
L 332.406316 42.491827 
L 343.853421 47.665386 
L 355.300526 54.063941 
L 366.747632 61.161295 
L 378.194737 68.449663 
L 389.641842 76.459152 
L 401.088947 84.127861 
L 412.536053 91.631585 
L 423.983158 99.158815 
L 435.430263 105.51347 
L 446.877368 112.704584 
L 458.324474 119.227776 
L 469.771579 124.813844 
L 481.218684 130.886555 
L 492.665789 135.723933 
L 504.112895 140.97052 
L 515.56 145.567054 
L 515.56 133.052094 
L 515.56 133.052094 
L 504.112895 128.053728 
L 492.665789 123.158561 
L 481.218684 117.617061 
L 469.771579 112.446832 
L 458.324474 106.441105 
L 446.877368 100.674268 
L 435.430263 93.648821 
L 423.983158 87.428136 
L 412.536053 80.859554 
L 401.088947 74.521437 
L 389.641842 68.040242 
L 378.194737 61.366128 
L 366.747632 55.198017 
L 355.300526 49.960645 
L 343.853421 45.025832 
L 332.406316 40.460572 
L 320.959211 36.718454 
L 309.512105 34.290083 
L 298.065 33.569233 
z
" clip-path="url(#pb61546a19d)" style="fill: #ff7f0e; fill-opacity: 0.4"/>
   </g>
   <g id="PolyCollection_11">
    <path d="M 298.065 33.5691 
L 298.065 33.569103 
L 309.512105 34.813776 
L 320.959211 38.249936 
L 332.406316 42.457654 
L 343.853421 47.684327 
L 355.300526 54.088938 
L 366.747632 61.230119 
L 378.194737 68.557469 
L 389.641842 76.590679 
L 401.088947 84.306242 
L 412.536053 91.832187 
L 423.983158 99.36257 
L 435.430263 105.766219 
L 446.877368 113.050836 
L 458.324474 119.612866 
L 469.771579 125.264939 
L 481.218684 131.454848 
L 492.665789 136.37041 
L 504.112895 141.729743 
L 515.56 146.372075 
L 515.56 132.396914 
L 515.56 132.396914 
L 504.112895 127.487347 
L 492.665789 122.643384 
L 481.218684 117.15695 
L 469.771579 112.109069 
L 458.324474 106.150969 
L 446.877368 100.469037 
L 435.430263 93.531626 
L 423.983158 87.342775 
L 412.536053 80.778498 
L 401.088947 74.457828 
L 389.641842 67.984687 
L 378.194737 61.322348 
L 366.747632 55.177161 
L 355.300526 49.921209 
L 343.853421 45.011357 
L 332.406316 40.470545 
L 320.959211 36.731307 
L 309.512105 34.296137 
L 298.065 33.5691 
z
" clip-path="url(#pb61546a19d)" style="fill: #2ca02c; fill-opacity: 0.4"/>
   </g>
   <g id="PolyCollection_12">
    <path d="M 298.065 33.569904 
L 298.065 33.570313 
L 309.512105 34.816149 
L 320.959211 38.254131 
L 332.406316 42.472648 
L 343.853421 47.728463 
L 355.300526 54.126445 
L 366.747632 61.290589 
L 378.194737 68.633384 
L 389.641842 76.67117 
L 401.088947 84.388023 
L 412.536053 91.90842 
L 423.983158 99.418459 
L 435.430263 105.799997 
L 446.877368 113.04985 
L 458.324474 119.608652 
L 469.771579 125.209626 
L 481.218684 131.371833 
L 492.665789 136.200785 
L 504.112895 141.552683 
L 515.56 146.120099 
L 515.56 132.684332 
L 515.56 132.684332 
L 504.112895 127.744777 
L 492.665789 122.83134 
L 481.218684 117.292955 
L 469.771579 112.244316 
L 458.324474 106.264029 
L 446.877368 100.560504 
L 435.430263 93.626277 
L 423.983158 87.441622 
L 412.536053 80.854418 
L 401.088947 74.538983 
L 389.641842 68.060863 
L 378.194737 61.406667 
L 366.747632 55.246361 
L 355.300526 49.982415 
L 343.853421 45.070856 
L 332.406316 40.499314 
L 320.959211 36.744404 
L 309.512105 34.299475 
L 298.065 33.569904 
z
" clip-path="url(#pb61546a19d)" style="fill: #d62728; fill-opacity: 0.4"/>
   </g>
   <g id="PolyCollection_13">
    <path d="M 298.065 33.5691 
L 298.065 33.569103 
L 309.512105 34.821977 
L 320.959211 38.261783 
L 332.406316 42.442188 
L 343.853421 47.695891 
L 355.300526 54.178012 
L 366.747632 61.055007 
L 378.194737 68.679628 
L 389.641842 76.734079 
L 401.088947 84.094751 
L 412.536053 91.459395 
L 423.983158 98.953794 
L 435.430263 105.567264 
L 446.877368 112.719622 
L 458.324474 119.742718 
L 469.771579 124.936147 
L 481.218684 131.053243 
L 492.665789 135.271283 
L 504.112895 141.147248 
L 515.56 145.977631 
L 515.56 133.739104 
L 515.56 133.739104 
L 504.112895 128.272201 
L 492.665789 123.395741 
L 481.218684 118.53263 
L 469.771579 112.140671 
L 458.324474 106.840178 
L 446.877368 100.693258 
L 435.430263 93.849295 
L 423.983158 87.62274 
L 412.536053 80.88562 
L 401.088947 74.476291 
L 389.641842 67.947827 
L 378.194737 61.337268 
L 366.747632 55.16602 
L 355.300526 49.948388 
L 343.853421 45.036576 
L 332.406316 40.545551 
L 320.959211 36.726706 
L 309.512105 34.294092 
L 298.065 33.5691 
z
" clip-path="url(#pb61546a19d)" style="fill: #9467bd; fill-opacity: 0.4"/>
   </g>
   <g id="PolyCollection_14">
    <path d="M 298.065 33.569667 
L 298.065 33.569958 
L 309.512105 34.823992 
L 320.959211 38.264989 
L 332.406316 42.45017 
L 343.853421 47.696092 
L 355.300526 54.167821 
L 366.747632 61.044598 
L 378.194737 68.674883 
L 389.641842 76.718661 
L 401.088947 84.071827 
L 412.536053 91.439832 
L 423.983158 98.989876 
L 435.430263 105.56668 
L 446.877368 112.71937 
L 458.324474 119.735703 
L 469.771579 124.930309 
L 481.218684 131.082107 
L 492.665789 135.329457 
L 504.112895 141.221467 
L 515.56 146.08266 
L 515.56 134.017811 
L 515.56 134.017811 
L 504.112895 128.61914 
L 492.665789 123.639791 
L 481.218684 118.773624 
L 469.771579 112.368626 
L 458.324474 107.042738 
L 446.877368 100.811154 
L 435.430263 93.969576 
L 423.983158 87.700466 
L 412.536053 80.937707 
L 401.088947 74.511922 
L 389.641842 67.983213 
L 378.194737 61.361022 
L 366.747632 55.185572 
L 355.300526 49.964047 
L 343.853421 45.043743 
L 332.406316 40.543504 
L 320.959211 36.726063 
L 309.512105 34.292401 
L 298.065 33.569667 
z
" clip-path="url(#pb61546a19d)" style="fill: #8c564b; fill-opacity: 0.4"/>
   </g>
   <g id="PolyCollection_15">
    <path d="M 298.065 46.335501 
L 298.065 49.531719 
L 309.512105 50.569472 
L 320.959211 53.541007 
L 332.406316 57.320931 
L 343.853421 61.638013 
L 355.300526 66.878294 
L 366.747632 73.338878 
L 378.194737 80.324404 
L 389.641842 87.854572 
L 401.088947 95.128801 
L 412.536053 102.25952 
L 423.983158 109.288509 
L 435.430263 115.214036 
L 446.877368 121.960438 
L 458.324474 127.588828 
L 469.771579 133.031131 
L 481.218684 138.177651 
L 492.665789 142.539116 
L 504.112895 147.191618 
L 515.56 151.005989 
L 515.56 139.588464 
L 515.56 139.588464 
L 504.112895 134.892168 
L 492.665789 130.206495 
L 481.218684 125.109017 
L 469.771579 120.212733 
L 458.324474 114.826057 
L 446.877368 109.366809 
L 435.430263 102.880212 
L 423.983158 97.259329 
L 412.536053 91.168497 
L 401.088947 85.500715 
L 389.641842 79.691713 
L 378.194737 73.514405 
L 366.747632 68.051536 
L 355.300526 62.97426 
L 343.853421 57.943279 
L 332.406316 53.215282 
L 320.959211 49.590133 
L 309.512105 47.12421 
L 298.065 46.335501 
z
" clip-path="url(#pb61546a19d)" style="fill: #e377c2; fill-opacity: 0.4"/>
   </g>
   <g id="PolyCollection_16">
    <path d="M 298.065 33.569379 
L 298.065 33.56952 
L 309.512105 34.818671 
L 320.959211 38.283982 
L 332.406316 42.506559 
L 343.853421 47.750048 
L 355.300526 54.17091 
L 366.747632 61.334893 
L 378.194737 68.646763 
L 389.641842 76.684504 
L 401.088947 84.399281 
L 412.536053 91.977731 
L 423.983158 99.520877 
L 435.430263 105.890996 
L 446.877368 113.053245 
L 458.324474 119.641792 
L 469.771579 125.191797 
L 481.218684 131.329434 
L 492.665789 136.214022 
L 504.112895 141.455145 
L 515.56 146.116347 
L 515.56 133.433437 
L 515.56 133.433437 
L 504.112895 128.353616 
L 492.665789 123.385987 
L 481.218684 117.745893 
L 469.771579 112.496423 
L 458.324474 106.42905 
L 446.877368 100.628451 
L 435.430263 93.636141 
L 423.983158 87.390837 
L 412.536053 80.798524 
L 401.088947 74.450447 
L 389.641842 67.973095 
L 378.194737 61.318937 
L 366.747632 55.171058 
L 355.300526 49.958497 
L 343.853421 45.013942 
L 332.406316 40.480395 
L 320.959211 36.744741 
L 309.512105 34.29487 
L 298.065 33.569379 
z
" clip-path="url(#pb61546a19d)" style="fill: #7f7f7f; fill-opacity: 0.4"/>
   </g>
   <g id="matplotlib.axis_3">
    <g id="xtick_6">
     <g id="line2d_18">
      <g>
       <use xlink:href="#m97db7a6a6f" x="298.065" y="174.04" style="stroke: #000000; stroke-width: 0.8"/>
      </g>
     </g>
     <g id="text_13">
      <!-- 0.0 -->
      <g transform="translate(290.113437 188.638438)scale(0.1 -0.1)">
       <use xlink:href="#DejaVuSans-30"/>
       <use xlink:href="#DejaVuSans-2e" x="63.623047"/>
       <use xlink:href="#DejaVuSans-30" x="95.410156"/>
      </g>
     </g>
    </g>
    <g id="xtick_7">
     <g id="line2d_19">
      <g>
       <use xlink:href="#m97db7a6a6f" x="352.43875" y="174.04" style="stroke: #000000; stroke-width: 0.8"/>
      </g>
     </g>
     <g id="text_14">
      <!-- 0.5 -->
      <g transform="translate(344.487187 188.638438)scale(0.1 -0.1)">
       <use xlink:href="#DejaVuSans-30"/>
       <use xlink:href="#DejaVuSans-2e" x="63.623047"/>
       <use xlink:href="#DejaVuSans-35" x="95.410156"/>
      </g>
     </g>
    </g>
    <g id="xtick_8">
     <g id="line2d_20">
      <g>
       <use xlink:href="#m97db7a6a6f" x="406.8125" y="174.04" style="stroke: #000000; stroke-width: 0.8"/>
      </g>
     </g>
     <g id="text_15">
      <!-- 1.0 -->
      <g transform="translate(398.860937 188.638438)scale(0.1 -0.1)">
       <use xlink:href="#DejaVuSans-31"/>
       <use xlink:href="#DejaVuSans-2e" x="63.623047"/>
       <use xlink:href="#DejaVuSans-30" x="95.410156"/>
      </g>
     </g>
    </g>
    <g id="xtick_9">
     <g id="line2d_21">
      <g>
       <use xlink:href="#m97db7a6a6f" x="461.18625" y="174.04" style="stroke: #000000; stroke-width: 0.8"/>
      </g>
     </g>
     <g id="text_16">
      <!-- 1.5 -->
      <g transform="translate(453.234687 188.638438)scale(0.1 -0.1)">
       <use xlink:href="#DejaVuSans-31"/>
       <use xlink:href="#DejaVuSans-2e" x="63.623047"/>
       <use xlink:href="#DejaVuSans-35" x="95.410156"/>
      </g>
     </g>
    </g>
    <g id="xtick_10">
     <g id="line2d_22">
      <g>
       <use xlink:href="#m97db7a6a6f" x="515.56" y="174.04" style="stroke: #000000; stroke-width: 0.8"/>
      </g>
     </g>
     <g id="text_17">
      <!-- 2.0 -->
      <g transform="translate(507.608437 188.638438)scale(0.1 -0.1)">
       <use xlink:href="#DejaVuSans-32"/>
       <use xlink:href="#DejaVuSans-2e" x="63.623047"/>
       <use xlink:href="#DejaVuSans-30" x="95.410156"/>
      </g>
     </g>
    </g>
    <g id="text_18">
     <!-- Influence of surprisal (multiplication) -->
     <g transform="translate(314.665625 202.316563)scale(0.1 -0.1)">
      <use xlink:href="#DejaVuSans-49"/>
      <use xlink:href="#DejaVuSans-6e" x="29.492188"/>
      <use xlink:href="#DejaVuSans-66" x="92.871094"/>
      <use xlink:href="#DejaVuSans-6c" x="128.076172"/>
      <use xlink:href="#DejaVuSans-75" x="155.859375"/>
      <use xlink:href="#DejaVuSans-65" x="219.238281"/>
      <use xlink:href="#DejaVuSans-6e" x="280.761719"/>
      <use xlink:href="#DejaVuSans-63" x="344.140625"/>
      <use xlink:href="#DejaVuSans-65" x="399.121094"/>
      <use xlink:href="#DejaVuSans-20" x="460.644531"/>
      <use xlink:href="#DejaVuSans-6f" x="492.431641"/>
      <use xlink:href="#DejaVuSans-66" x="553.613281"/>
      <use xlink:href="#DejaVuSans-20" x="588.818359"/>
      <use xlink:href="#DejaVuSans-73" x="620.605469"/>
      <use xlink:href="#DejaVuSans-75" x="672.705078"/>
      <use xlink:href="#DejaVuSans-72" x="736.083984"/>
      <use xlink:href="#DejaVuSans-70" x="777.197266"/>
      <use xlink:href="#DejaVuSans-72" x="840.673828"/>
      <use xlink:href="#DejaVuSans-69" x="881.787109"/>
      <use xlink:href="#DejaVuSans-73" x="909.570312"/>
      <use xlink:href="#DejaVuSans-61" x="961.669922"/>
      <use xlink:href="#DejaVuSans-6c" x="1022.949219"/>
      <use xlink:href="#DejaVuSans-20" x="1050.732422"/>
      <use xlink:href="#DejaVuSans-28" x="1082.519531"/>
      <use xlink:href="#DejaVuSans-6d" x="1121.533203"/>
      <use xlink:href="#DejaVuSans-75" x="1218.945312"/>
      <use xlink:href="#DejaVuSans-6c" x="1282.324219"/>
      <use xlink:href="#DejaVuSans-74" x="1310.107422"/>
      <use xlink:href="#DejaVuSans-69" x="1349.316406"/>
      <use xlink:href="#DejaVuSans-70" x="1377.099609"/>
      <use xlink:href="#DejaVuSans-6c" x="1440.576172"/>
      <use xlink:href="#DejaVuSans-69" x="1468.359375"/>
      <use xlink:href="#DejaVuSans-63" x="1496.142578"/>
      <use xlink:href="#DejaVuSans-61" x="1551.123047"/>
      <use xlink:href="#DejaVuSans-74" x="1612.402344"/>
      <use xlink:href="#DejaVuSans-69" x="1651.611328"/>
      <use xlink:href="#DejaVuSans-6f" x="1679.394531"/>
      <use xlink:href="#DejaVuSans-6e" x="1740.576172"/>
      <use xlink:href="#DejaVuSans-29" x="1803.955078"/>
     </g>
    </g>
   </g>
   <g id="line2d_23">
    <path d="M 298.065 33.569091 
L 309.512105 34.555548 
L 320.959211 37.495445 
L 332.406316 41.474632 
L 343.853421 46.343063 
L 355.300526 52.009632 
L 366.747632 58.178945 
L 378.194737 64.903134 
L 389.641842 72.242899 
L 401.088947 79.312939 
L 412.536053 86.226949 
L 423.983158 93.250685 
L 435.430263 99.533412 
L 446.877368 106.635273 
L 458.324474 112.736936 
L 469.771579 118.514723 
L 481.218684 124.118007 
L 492.665789 129.28329 
L 504.112895 134.288101 
L 515.56 139.094084 
" clip-path="url(#pb61546a19d)" style="fill: none; stroke: #1f77b4; stroke-width: 1.5; stroke-linecap: square"/>
   </g>
   <g id="line2d_24">
    <path d="M 298.065 33.569269 
L 309.512105 34.555254 
L 320.959211 37.496161 
L 332.406316 41.476199 
L 343.853421 46.345609 
L 355.300526 52.012293 
L 366.747632 58.179656 
L 378.194737 64.907896 
L 389.641842 72.249697 
L 401.088947 79.324649 
L 412.536053 86.245569 
L 423.983158 93.293476 
L 435.430263 99.581146 
L 446.877368 106.689426 
L 458.324474 112.834441 
L 469.771579 118.630338 
L 481.218684 124.251808 
L 492.665789 129.441247 
L 504.112895 134.512124 
L 515.56 139.309574 
" clip-path="url(#pb61546a19d)" style="fill: none; stroke: #ff7f0e; stroke-width: 1.5; stroke-linecap: square"/>
   </g>
   <g id="line2d_25">
    <path d="M 298.065 33.569102 
L 309.512105 34.554956 
L 320.959211 37.490621 
L 332.406316 41.464099 
L 343.853421 46.347842 
L 355.300526 52.005074 
L 366.747632 58.20364 
L 378.194737 64.939909 
L 389.641842 72.287683 
L 401.088947 79.382035 
L 412.536053 86.305342 
L 423.983158 93.352672 
L 435.430263 99.648922 
L 446.877368 106.759937 
L 458.324474 112.881918 
L 469.771579 118.687004 
L 481.218684 124.305899 
L 492.665789 129.506897 
L 504.112895 134.608545 
L 515.56 139.384495 
" clip-path="url(#pb61546a19d)" style="fill: none; stroke: #2ca02c; stroke-width: 1.5; stroke-linecap: square"/>
   </g>
   <g id="line2d_26">
    <path d="M 298.065 33.570109 
L 309.512105 34.557812 
L 320.959211 37.499268 
L 332.406316 41.485981 
L 343.853421 46.399659 
L 355.300526 52.05443 
L 366.747632 58.268475 
L 378.194737 65.020025 
L 389.641842 72.366016 
L 401.088947 79.463503 
L 412.536053 86.381419 
L 423.983158 93.43004 
L 435.430263 99.713137 
L 446.877368 106.805177 
L 458.324474 112.936341 
L 469.771579 118.726971 
L 481.218684 124.332394 
L 492.665789 129.516062 
L 504.112895 134.64873 
L 515.56 139.402216 
" clip-path="url(#pb61546a19d)" style="fill: none; stroke: #d62728; stroke-width: 1.5; stroke-linecap: square"/>
   </g>
   <g id="line2d_27">
    <path d="M 298.065 33.569102 
L 309.512105 34.558034 
L 320.959211 37.494245 
L 332.406316 41.49387 
L 343.853421 46.366234 
L 355.300526 52.0632 
L 366.747632 58.110514 
L 378.194737 65.008448 
L 389.641842 72.340953 
L 401.088947 79.285521 
L 412.536053 86.172507 
L 423.983158 93.288267 
L 435.430263 99.708279 
L 446.877368 106.70644 
L 458.324474 113.291448 
L 469.771579 118.538409 
L 481.218684 124.792936 
L 492.665789 129.333512 
L 504.112895 134.709725 
L 515.56 139.858367 
" clip-path="url(#pb61546a19d)" style="fill: none; stroke: #9467bd; stroke-width: 1.5; stroke-linecap: square"/>
   </g>
   <g id="line2d_28">
    <path d="M 298.065 33.569812 
L 309.512105 34.558197 
L 320.959211 37.495526 
L 332.406316 41.496837 
L 343.853421 46.369918 
L 355.300526 52.065934 
L 366.747632 58.115085 
L 378.194737 65.017953 
L 389.641842 72.350937 
L 401.088947 79.291874 
L 412.536053 86.18877 
L 423.983158 93.345171 
L 435.430263 99.768128 
L 446.877368 106.765262 
L 458.324474 113.389221 
L 469.771579 118.649467 
L 481.218684 124.927865 
L 492.665789 129.484624 
L 504.112895 134.920304 
L 515.56 140.050235 
" clip-path="url(#pb61546a19d)" style="fill: none; stroke: #8c564b; stroke-width: 1.5; stroke-linecap: square"/>
   </g>
   <g id="line2d_29">
    <path d="M 298.065 47.93361 
L 309.512105 48.846841 
L 320.959211 51.56557 
L 332.406316 55.268106 
L 343.853421 59.790646 
L 355.300526 64.926277 
L 366.747632 70.695207 
L 378.194737 76.919405 
L 389.641842 83.773143 
L 401.088947 90.314758 
L 412.536053 96.714008 
L 423.983158 103.273919 
L 435.430263 109.047124 
L 446.877368 115.663623 
L 458.324474 121.207442 
L 469.771579 126.621932 
L 481.218684 131.643334 
L 492.665789 136.372806 
L 504.112895 141.041893 
L 515.56 145.297227 
" clip-path="url(#pb61546a19d)" style="fill: none; stroke: #e377c2; stroke-width: 1.5; stroke-linecap: square"/>
   </g>
   <g id="line2d_30">
    <path d="M 298.065 33.569449 
L 309.512105 34.556771 
L 320.959211 37.514361 
L 332.406316 41.493477 
L 343.853421 46.381995 
L 355.300526 52.064703 
L 366.747632 58.252976 
L 378.194737 64.98285 
L 389.641842 72.3288 
L 401.088947 79.424864 
L 412.536053 86.388127 
L 423.983158 93.455857 
L 435.430263 99.763568 
L 446.877368 106.840848 
L 458.324474 113.035421 
L 469.771579 118.84411 
L 481.218684 124.537664 
L 492.665789 129.800004 
L 504.112895 134.90438 
L 515.56 139.774892 
" clip-path="url(#pb61546a19d)" style="fill: none; stroke: #7f7f7f; stroke-width: 1.5; stroke-linecap: square"/>
   </g>
   <g id="patch_6">
    <path d="M 298.065 174.04 
L 298.065 26.88 
" style="fill: none; stroke: #000000; stroke-width: 0.8; stroke-linejoin: miter; stroke-linecap: square"/>
   </g>
   <g id="patch_7">
    <path d="M 298.065 174.04 
L 515.56 174.04 
" style="fill: none; stroke: #000000; stroke-width: 0.8; stroke-linejoin: miter; stroke-linecap: square"/>
   </g>
   <g id="text_19">
    <!-- Node * third variable -->
    <g transform="translate(344.2325 20.88)scale(0.12 -0.12)">
     <defs>
      <path id="DejaVuSans-68" d="M 3513 2113 
L 3513 0 
L 2938 0 
L 2938 2094 
Q 2938 2591 2744 2837 
Q 2550 3084 2163 3084 
Q 1697 3084 1428 2787 
Q 1159 2491 1159 1978 
L 1159 0 
L 581 0 
L 581 4863 
L 1159 4863 
L 1159 2956 
Q 1366 3272 1645 3428 
Q 1925 3584 2291 3584 
Q 2894 3584 3203 3211 
Q 3513 2838 3513 2113 
z
" transform="scale(0.015625)"/>
      <path id="DejaVuSans-62" d="M 3116 1747 
Q 3116 2381 2855 2742 
Q 2594 3103 2138 3103 
Q 1681 3103 1420 2742 
Q 1159 2381 1159 1747 
Q 1159 1113 1420 752 
Q 1681 391 2138 391 
Q 2594 391 2855 752 
Q 3116 1113 3116 1747 
z
M 1159 2969 
Q 1341 3281 1617 3432 
Q 1894 3584 2278 3584 
Q 2916 3584 3314 3078 
Q 3713 2572 3713 1747 
Q 3713 922 3314 415 
Q 2916 -91 2278 -91 
Q 1894 -91 1617 61 
Q 1341 213 1159 525 
L 1159 0 
L 581 0 
L 581 4863 
L 1159 4863 
L 1159 2969 
z
" transform="scale(0.015625)"/>
     </defs>
     <use xlink:href="#DejaVuSans-4e"/>
     <use xlink:href="#DejaVuSans-6f" x="74.804688"/>
     <use xlink:href="#DejaVuSans-64" x="135.986328"/>
     <use xlink:href="#DejaVuSans-65" x="199.462891"/>
     <use xlink:href="#DejaVuSans-20" x="260.986328"/>
     <use xlink:href="#DejaVuSans-2a" x="292.773438"/>
     <use xlink:href="#DejaVuSans-20" x="342.773438"/>
     <use xlink:href="#DejaVuSans-74" x="374.560547"/>
     <use xlink:href="#DejaVuSans-68" x="413.769531"/>
     <use xlink:href="#DejaVuSans-69" x="477.148438"/>
     <use xlink:href="#DejaVuSans-72" x="504.931641"/>
     <use xlink:href="#DejaVuSans-64" x="544.294922"/>
     <use xlink:href="#DejaVuSans-20" x="607.771484"/>
     <use xlink:href="#DejaVuSans-76" x="639.558594"/>
     <use xlink:href="#DejaVuSans-61" x="698.738281"/>
     <use xlink:href="#DejaVuSans-72" x="760.017578"/>
     <use xlink:href="#DejaVuSans-69" x="801.130859"/>
     <use xlink:href="#DejaVuSans-61" x="828.914062"/>
     <use xlink:href="#DejaVuSans-62" x="890.193359"/>
     <use xlink:href="#DejaVuSans-6c" x="953.669922"/>
     <use xlink:href="#DejaVuSans-65" x="981.453125"/>
    </g>
   </g>
   <g id="legend_1">
    <g id="line2d_31">
     <path d="M 524.56 39.978437 
L 534.56 39.978437 
L 544.56 39.978437 
" style="fill: none; stroke: #1f77b4; stroke-width: 1.5; stroke-linecap: square"/>
    </g>
    <g id="text_20">
     <!-- Node -->
     <g transform="translate(552.56 43.478437)scale(0.1 -0.1)">
      <use xlink:href="#DejaVuSans-4e"/>
      <use xlink:href="#DejaVuSans-6f" x="74.804688"/>
      <use xlink:href="#DejaVuSans-64" x="135.986328"/>
      <use xlink:href="#DejaVuSans-65" x="199.462891"/>
     </g>
    </g>
    <g id="line2d_32">
     <path d="M 524.56 54.656563 
L 534.56 54.656563 
L 544.56 54.656563 
" style="fill: none; stroke: #ff7f0e; stroke-width: 1.5; stroke-linecap: square"/>
    </g>
    <g id="text_21">
     <!-- Node + surprisal -->
     <g transform="translate(552.56 58.156563)scale(0.1 -0.1)">
      <defs>
       <path id="DejaVuSans-2b" d="M 2944 4013 
L 2944 2272 
L 4684 2272 
L 4684 1741 
L 2944 1741 
L 2944 0 
L 2419 0 
L 2419 1741 
L 678 1741 
L 678 2272 
L 2419 2272 
L 2419 4013 
L 2944 4013 
z
" transform="scale(0.015625)"/>
      </defs>
      <use xlink:href="#DejaVuSans-4e"/>
      <use xlink:href="#DejaVuSans-6f" x="74.804688"/>
      <use xlink:href="#DejaVuSans-64" x="135.986328"/>
      <use xlink:href="#DejaVuSans-65" x="199.462891"/>
      <use xlink:href="#DejaVuSans-20" x="260.986328"/>
      <use xlink:href="#DejaVuSans-2b" x="292.773438"/>
      <use xlink:href="#DejaVuSans-20" x="376.5625"/>
      <use xlink:href="#DejaVuSans-73" x="408.349609"/>
      <use xlink:href="#DejaVuSans-75" x="460.449219"/>
      <use xlink:href="#DejaVuSans-72" x="523.828125"/>
      <use xlink:href="#DejaVuSans-70" x="564.941406"/>
      <use xlink:href="#DejaVuSans-72" x="628.417969"/>
      <use xlink:href="#DejaVuSans-69" x="669.53125"/>
      <use xlink:href="#DejaVuSans-73" x="697.314453"/>
      <use xlink:href="#DejaVuSans-61" x="749.414062"/>
      <use xlink:href="#DejaVuSans-6c" x="810.693359"/>
     </g>
    </g>
    <g id="line2d_33">
     <path d="M 524.56 69.334687 
L 534.56 69.334687 
L 544.56 69.334687 
" style="fill: none; stroke: #2ca02c; stroke-width: 1.5; stroke-linecap: square"/>
    </g>
    <g id="text_22">
     <!-- Node split -->
     <g transform="translate(552.56 72.834687)scale(0.1 -0.1)">
      <use xlink:href="#DejaVuSans-4e"/>
      <use xlink:href="#DejaVuSans-6f" x="74.804688"/>
      <use xlink:href="#DejaVuSans-64" x="135.986328"/>
      <use xlink:href="#DejaVuSans-65" x="199.462891"/>
      <use xlink:href="#DejaVuSans-20" x="260.986328"/>
      <use xlink:href="#DejaVuSans-73" x="292.773438"/>
      <use xlink:href="#DejaVuSans-70" x="344.873047"/>
      <use xlink:href="#DejaVuSans-6c" x="408.349609"/>
      <use xlink:href="#DejaVuSans-69" x="436.132812"/>
      <use xlink:href="#DejaVuSans-74" x="463.916016"/>
     </g>
    </g>
    <g id="line2d_34">
     <path d="M 524.56 84.012812 
L 534.56 84.012812 
L 544.56 84.012812 
" style="fill: none; stroke: #d62728; stroke-width: 1.5; stroke-linecap: square"/>
    </g>
    <g id="text_23">
     <!-- Node split + surprisal -->
     <g transform="translate(552.56 87.512812)scale(0.1 -0.1)">
      <use xlink:href="#DejaVuSans-4e"/>
      <use xlink:href="#DejaVuSans-6f" x="74.804688"/>
      <use xlink:href="#DejaVuSans-64" x="135.986328"/>
      <use xlink:href="#DejaVuSans-65" x="199.462891"/>
      <use xlink:href="#DejaVuSans-20" x="260.986328"/>
      <use xlink:href="#DejaVuSans-73" x="292.773438"/>
      <use xlink:href="#DejaVuSans-70" x="344.873047"/>
      <use xlink:href="#DejaVuSans-6c" x="408.349609"/>
      <use xlink:href="#DejaVuSans-69" x="436.132812"/>
      <use xlink:href="#DejaVuSans-74" x="463.916016"/>
      <use xlink:href="#DejaVuSans-20" x="503.125"/>
      <use xlink:href="#DejaVuSans-2b" x="534.912109"/>
      <use xlink:href="#DejaVuSans-20" x="618.701172"/>
      <use xlink:href="#DejaVuSans-73" x="650.488281"/>
      <use xlink:href="#DejaVuSans-75" x="702.587891"/>
      <use xlink:href="#DejaVuSans-72" x="765.966797"/>
      <use xlink:href="#DejaVuSans-70" x="807.080078"/>
      <use xlink:href="#DejaVuSans-72" x="870.556641"/>
      <use xlink:href="#DejaVuSans-69" x="911.669922"/>
      <use xlink:href="#DejaVuSans-73" x="939.453125"/>
      <use xlink:href="#DejaVuSans-61" x="991.552734"/>
      <use xlink:href="#DejaVuSans-6c" x="1052.832031"/>
     </g>
    </g>
    <g id="line2d_35">
     <path d="M 524.56 98.690937 
L 534.56 98.690937 
L 544.56 98.690937 
" style="fill: none; stroke: #9467bd; stroke-width: 1.5; stroke-linecap: square"/>
    </g>
    <g id="text_24">
     <!-- Node random split -->
     <g transform="translate(552.56 102.190937)scale(0.1 -0.1)">
      <use xlink:href="#DejaVuSans-4e"/>
      <use xlink:href="#DejaVuSans-6f" x="74.804688"/>
      <use xlink:href="#DejaVuSans-64" x="135.986328"/>
      <use xlink:href="#DejaVuSans-65" x="199.462891"/>
      <use xlink:href="#DejaVuSans-20" x="260.986328"/>
      <use xlink:href="#DejaVuSans-72" x="292.773438"/>
      <use xlink:href="#DejaVuSans-61" x="333.886719"/>
      <use xlink:href="#DejaVuSans-6e" x="395.166016"/>
      <use xlink:href="#DejaVuSans-64" x="458.544922"/>
      <use xlink:href="#DejaVuSans-6f" x="522.021484"/>
      <use xlink:href="#DejaVuSans-6d" x="583.203125"/>
      <use xlink:href="#DejaVuSans-20" x="680.615234"/>
      <use xlink:href="#DejaVuSans-73" x="712.402344"/>
      <use xlink:href="#DejaVuSans-70" x="764.501953"/>
      <use xlink:href="#DejaVuSans-6c" x="827.978516"/>
      <use xlink:href="#DejaVuSans-69" x="855.761719"/>
      <use xlink:href="#DejaVuSans-74" x="883.544922"/>
     </g>
    </g>
    <g id="line2d_36">
     <path d="M 524.56 113.369062 
L 534.56 113.369062 
L 544.56 113.369062 
" style="fill: none; stroke: #8c564b; stroke-width: 1.5; stroke-linecap: square"/>
    </g>
    <g id="text_25">
     <!-- Node random split + surprisal -->
     <g transform="translate(552.56 116.869062)scale(0.1 -0.1)">
      <use xlink:href="#DejaVuSans-4e"/>
      <use xlink:href="#DejaVuSans-6f" x="74.804688"/>
      <use xlink:href="#DejaVuSans-64" x="135.986328"/>
      <use xlink:href="#DejaVuSans-65" x="199.462891"/>
      <use xlink:href="#DejaVuSans-20" x="260.986328"/>
      <use xlink:href="#DejaVuSans-72" x="292.773438"/>
      <use xlink:href="#DejaVuSans-61" x="333.886719"/>
      <use xlink:href="#DejaVuSans-6e" x="395.166016"/>
      <use xlink:href="#DejaVuSans-64" x="458.544922"/>
      <use xlink:href="#DejaVuSans-6f" x="522.021484"/>
      <use xlink:href="#DejaVuSans-6d" x="583.203125"/>
      <use xlink:href="#DejaVuSans-20" x="680.615234"/>
      <use xlink:href="#DejaVuSans-73" x="712.402344"/>
      <use xlink:href="#DejaVuSans-70" x="764.501953"/>
      <use xlink:href="#DejaVuSans-6c" x="827.978516"/>
      <use xlink:href="#DejaVuSans-69" x="855.761719"/>
      <use xlink:href="#DejaVuSans-74" x="883.544922"/>
      <use xlink:href="#DejaVuSans-20" x="922.753906"/>
      <use xlink:href="#DejaVuSans-2b" x="954.541016"/>
      <use xlink:href="#DejaVuSans-20" x="1038.330078"/>
      <use xlink:href="#DejaVuSans-73" x="1070.117188"/>
      <use xlink:href="#DejaVuSans-75" x="1122.216797"/>
      <use xlink:href="#DejaVuSans-72" x="1185.595703"/>
      <use xlink:href="#DejaVuSans-70" x="1226.708984"/>
      <use xlink:href="#DejaVuSans-72" x="1290.185547"/>
      <use xlink:href="#DejaVuSans-69" x="1331.298828"/>
      <use xlink:href="#DejaVuSans-73" x="1359.082031"/>
      <use xlink:href="#DejaVuSans-61" x="1411.181641"/>
      <use xlink:href="#DejaVuSans-6c" x="1472.460938"/>
     </g>
    </g>
    <g id="line2d_37">
     <path d="M 524.56 128.047187 
L 534.56 128.047187 
L 544.56 128.047187 
" style="fill: none; stroke: #e377c2; stroke-width: 1.5; stroke-linecap: square"/>
    </g>
    <g id="text_26">
     <!-- Interaction -->
     <g transform="translate(552.56 131.547187)scale(0.1 -0.1)">
      <use xlink:href="#DejaVuSans-49"/>
      <use xlink:href="#DejaVuSans-6e" x="29.492188"/>
      <use xlink:href="#DejaVuSans-74" x="92.871094"/>
      <use xlink:href="#DejaVuSans-65" x="132.080078"/>
      <use xlink:href="#DejaVuSans-72" x="193.603516"/>
      <use xlink:href="#DejaVuSans-61" x="234.716797"/>
      <use xlink:href="#DejaVuSans-63" x="295.996094"/>
      <use xlink:href="#DejaVuSans-74" x="350.976562"/>
      <use xlink:href="#DejaVuSans-69" x="390.185547"/>
      <use xlink:href="#DejaVuSans-6f" x="417.96875"/>
      <use xlink:href="#DejaVuSans-6e" x="479.150391"/>
     </g>
    </g>
    <g id="line2d_38">
     <path d="M 524.56 142.725312 
L 534.56 142.725312 
L 544.56 142.725312 
" style="fill: none; stroke: #7f7f7f; stroke-width: 1.5; stroke-linecap: square"/>
    </g>
    <g id="text_27">
     <!-- Node + surprisal + interaction -->
     <g transform="translate(552.56 146.225312)scale(0.1 -0.1)">
      <use xlink:href="#DejaVuSans-4e"/>
      <use xlink:href="#DejaVuSans-6f" x="74.804688"/>
      <use xlink:href="#DejaVuSans-64" x="135.986328"/>
      <use xlink:href="#DejaVuSans-65" x="199.462891"/>
      <use xlink:href="#DejaVuSans-20" x="260.986328"/>
      <use xlink:href="#DejaVuSans-2b" x="292.773438"/>
      <use xlink:href="#DejaVuSans-20" x="376.5625"/>
      <use xlink:href="#DejaVuSans-73" x="408.349609"/>
      <use xlink:href="#DejaVuSans-75" x="460.449219"/>
      <use xlink:href="#DejaVuSans-72" x="523.828125"/>
      <use xlink:href="#DejaVuSans-70" x="564.941406"/>
      <use xlink:href="#DejaVuSans-72" x="628.417969"/>
      <use xlink:href="#DejaVuSans-69" x="669.53125"/>
      <use xlink:href="#DejaVuSans-73" x="697.314453"/>
      <use xlink:href="#DejaVuSans-61" x="749.414062"/>
      <use xlink:href="#DejaVuSans-6c" x="810.693359"/>
      <use xlink:href="#DejaVuSans-20" x="838.476562"/>
      <use xlink:href="#DejaVuSans-2b" x="870.263672"/>
      <use xlink:href="#DejaVuSans-20" x="954.052734"/>
      <use xlink:href="#DejaVuSans-69" x="985.839844"/>
      <use xlink:href="#DejaVuSans-6e" x="1013.623047"/>
      <use xlink:href="#DejaVuSans-74" x="1077.001953"/>
      <use xlink:href="#DejaVuSans-65" x="1116.210938"/>
      <use xlink:href="#DejaVuSans-72" x="1177.734375"/>
      <use xlink:href="#DejaVuSans-61" x="1218.847656"/>
      <use xlink:href="#DejaVuSans-63" x="1280.126953"/>
      <use xlink:href="#DejaVuSans-74" x="1335.107422"/>
      <use xlink:href="#DejaVuSans-69" x="1374.316406"/>
      <use xlink:href="#DejaVuSans-6f" x="1402.099609"/>
      <use xlink:href="#DejaVuSans-6e" x="1463.28125"/>
     </g>
    </g>
   </g>
  </g>
 </g>
 <defs>
  <clipPath id="p781ba65c36">
   <rect x="47.72" y="26.88" width="217.495" height="147.16"/>
  </clipPath>
  <clipPath id="pb61546a19d">
   <rect x="298.065" y="26.88" width="217.495" height="147.16"/>
  </clipPath>
 </defs>
</svg>
