<?xml version="1.0" encoding="utf-8" standalone="no"?>
<!DOCTYPE svg PUBLIC "-//W3C//DTD SVG 1.1//EN"
  "http://www.w3.org/Graphics/SVG/1.1/DTD/svg11.dtd">
<svg xmlns:xlink="http://www.w3.org/1999/xlink" width="720pt" height="216pt" viewBox="0 0 720 216" xmlns="http://www.w3.org/2000/svg" version="1.1">
 <metadata>
  <rdf:RDF xmlns:dc="http://purl.org/dc/elements/1.1/" xmlns:cc="http://creativecommons.org/ns#" xmlns:rdf="http://www.w3.org/1999/02/22-rdf-syntax-ns#">
   <cc:Work>
    <dc:type rdf:resource="http://purl.org/dc/dcmitype/StillImage"/>
    <dc:date>2024-01-15T20:19:48.608268</dc:date>
    <dc:format>image/svg+xml</dc:format>
    <dc:creator>
     <cc:Agent>
      <dc:title>Matplotlib v3.5.1, https://matplotlib.org/</dc:title>
     </cc:Agent>
    </dc:creator>
   </cc:Work>
  </rdf:RDF>
 </metadata>
 <defs>
  <style type="text/css">*{stroke-linejoin: round; stroke-linecap: butt}</style>
 </defs>
 <g id="figure_1">
  <g id="patch_1">
   <path d="M 0 216 
L 720 216 
L 720 0 
L 0 0 
z
" style="fill: #ffffff"/>
  </g>
  <g id="axes_1">
   <g id="patch_2">
    <path d="M 47.72 174.04 
L 265.215 174.04 
L 265.215 26.88 
L 47.72 26.88 
z
" style="fill: #ffffff"/>
   </g>
   <g id="PolyCollection_1">
    <path d="M 47.72 33.569091 
L 47.72 33.569092 
L 59.167105 34.661137 
L 70.614211 37.704002 
L 82.061316 42.174818 
L 93.508421 47.929799 
L 104.955526 54.856162 
L 116.402632 61.688227 
L 127.849737 69.495111 
L 139.296842 77.816173 
L 150.743947 85.529032 
L 162.191053 93.004361 
L 173.638158 101.48972 
L 185.085263 108.62262 
L 196.532368 115.264223 
L 207.979474 122.423829 
L 219.426579 129.312018 
L 230.873684 134.80507 
L 242.320789 140.546044 
L 253.767895 145.761256 
L 265.215 150.642357 
L 265.215 134.803003 
L 265.215 134.803003 
L 253.767895 130.231284 
L 242.320789 124.301752 
L 230.873684 119.307817 
L 219.426579 113.983793 
L 207.979474 108.317442 
L 196.532368 102.360508 
L 185.085263 96.272567 
L 173.638158 89.616253 
L 162.191053 82.956193 
L 150.743947 76.404415 
L 139.296842 69.741834 
L 127.849737 62.585081 
L 116.402632 56.112098 
L 104.955526 50.153577 
L 93.508421 44.553142 
L 82.061316 40.097335 
L 70.614211 36.706995 
L 59.167105 34.263909 
L 47.72 33.569091 
z
" clip-path="url(#p873799e3eb)" style="fill: #1f77b4; fill-opacity: 0.4"/>
   </g>
   <g id="PolyCollection_2">
    <path d="M 47.72 33.569239 
L 47.72 33.569311 
L 59.167105 34.272642 
L 70.614211 35.882809 
L 82.061316 38.487982 
L 93.508421 41.837663 
L 104.955526 46.646535 
L 116.402632 51.309784 
L 127.849737 57.130698 
L 139.296842 63.598239 
L 150.743947 69.883943 
L 162.191053 76.301894 
L 173.638158 83.937537 
L 185.085263 90.63952 
L 196.532368 97.415953 
L 207.979474 104.945146 
L 219.426579 112.26512 
L 230.873684 118.208879 
L 242.320789 124.212333 
L 253.767895 129.980274 
L 265.215 135.229133 
L 265.215 117.664552 
L 265.215 117.664552 
L 253.767895 113.018279 
L 242.320789 107.169896 
L 230.873684 102.138864 
L 219.426579 96.837496 
L 207.979474 91.103748 
L 196.532368 85.245661 
L 185.085263 79.24225 
L 173.638158 73.049605 
L 162.191053 67.210246 
L 150.743947 61.772247 
L 139.296842 56.405242 
L 127.849737 51.209114 
L 116.402632 46.826926 
L 104.955526 43.151558 
L 93.508421 39.864711 
L 82.061316 37.314799 
L 70.614211 35.395567 
L 59.167105 34.066396 
L 47.72 33.569239 
z
" clip-path="url(#p873799e3eb)" style="fill: #ff7f0e; fill-opacity: 0.4"/>
   </g>
   <g id="PolyCollection_3">
    <path d="M 47.72 33.569101 
L 47.72 33.569105 
L 59.167105 34.409084 
L 70.614211 35.922096 
L 82.061316 38.092609 
L 93.508421 40.773902 
L 104.955526 43.854407 
L 116.402632 46.94408 
L 127.849737 50.294201 
L 139.296842 54.40925 
L 150.743947 58.157547 
L 162.191053 61.900501 
L 173.638158 66.122726 
L 185.085263 70.075122 
L 196.532368 74.074513 
L 207.979474 78.180519 
L 219.426579 82.219647 
L 230.873684 85.765277 
L 242.320789 89.287928 
L 253.767895 92.830486 
L 265.215 96.094627 
L 265.215 85.9657 
L 265.215 85.9657 
L 253.767895 83.096177 
L 242.320789 79.905309 
L 230.873684 77.010587 
L 219.426579 73.833336 
L 207.979474 70.72676 
L 196.532368 67.212579 
L 185.085263 64.243288 
L 173.638158 60.662437 
L 162.191053 57.597534 
L 150.743947 54.189373 
L 139.296842 50.717007 
L 127.849737 47.443515 
L 116.402632 44.332373 
L 104.955526 41.458358 
L 93.508421 38.951636 
L 82.061316 36.917595 
L 70.614211 35.32439 
L 59.167105 34.150496 
L 47.72 33.569101 
z
" clip-path="url(#p873799e3eb)" style="fill: #2ca02c; fill-opacity: 0.4"/>
   </g>
   <g id="PolyCollection_4">
    <path d="M 47.72 33.569932 
L 47.72 33.570337 
L 59.167105 34.22473 
L 70.614211 35.293166 
L 82.061316 36.954018 
L 93.508421 39.014383 
L 104.955526 41.636627 
L 116.402632 44.29678 
L 127.849737 47.462848 
L 139.296842 51.216837 
L 150.743947 54.76512 
L 162.191053 58.534967 
L 173.638158 62.595866 
L 185.085263 66.451173 
L 196.532368 70.44304 
L 207.979474 74.681996 
L 219.426579 78.906848 
L 230.873684 82.59446 
L 242.320789 86.316389 
L 253.767895 90.173097 
L 265.215 93.647443 
L 265.215 84.715816 
L 265.215 84.715816 
L 253.767895 81.736346 
L 242.320789 78.311266 
L 230.873684 75.075921 
L 219.426579 71.676813 
L 207.979474 68.24339 
L 196.532368 64.544857 
L 185.085263 61.261035 
L 173.638158 57.546576 
L 162.191053 54.220379 
L 150.743947 50.953057 
L 139.296842 47.540479 
L 127.849737 44.43793 
L 116.402632 41.850476 
L 104.955526 39.61537 
L 93.508421 37.616595 
L 82.061316 36.131481 
L 70.614211 34.927558 
L 59.167105 34.049511 
L 47.72 33.569932 
z
" clip-path="url(#p873799e3eb)" style="fill: #d62728; fill-opacity: 0.4"/>
   </g>
   <g id="PolyCollection_5">
    <path d="M 47.72 33.569101 
L 47.72 33.569105 
L 59.167105 34.66107 
L 70.614211 37.73065 
L 82.061316 42.221847 
L 93.508421 47.907844 
L 104.955526 54.948382 
L 116.402632 61.752906 
L 127.849737 69.359981 
L 139.296842 77.945159 
L 150.743947 85.541706 
L 162.191053 93.413825 
L 173.638158 101.508426 
L 185.085263 108.809486 
L 196.532368 115.242367 
L 207.979474 122.679764 
L 219.426579 129.195413 
L 230.873684 134.880739 
L 242.320789 140.737758 
L 253.767895 146.078739 
L 265.215 150.698284 
L 265.215 134.52633 
L 265.215 134.52633 
L 253.767895 130.916382 
L 242.320789 124.986841 
L 230.873684 119.575532 
L 219.426579 114.181473 
L 207.979474 108.596059 
L 196.532368 102.739994 
L 185.085263 96.576986 
L 173.638158 89.832191 
L 162.191053 83.121461 
L 150.743947 76.713435 
L 139.296842 69.890106 
L 127.849737 62.751763 
L 116.402632 56.141533 
L 104.955526 50.211798 
L 93.508421 44.574806 
L 82.061316 40.100373 
L 70.614211 36.723062 
L 59.167105 34.26465 
L 47.72 33.569101 
z
" clip-path="url(#p873799e3eb)" style="fill: #9467bd; fill-opacity: 0.4"/>
   </g>
   <g id="PolyCollection_6">
    <path d="M 47.72 33.569694 
L 47.72 33.569981 
L 59.167105 34.274066 
L 70.614211 35.900702 
L 82.061316 38.497648 
L 93.508421 41.824784 
L 104.955526 46.696058 
L 116.402632 51.340527 
L 127.849737 57.040704 
L 139.296842 63.667344 
L 150.743947 69.895906 
L 162.191053 76.322787 
L 173.638158 83.991728 
L 185.085263 90.857936 
L 196.532368 97.327811 
L 207.979474 105.040056 
L 219.426579 112.328039 
L 230.873684 118.430442 
L 242.320789 124.196246 
L 253.767895 130.333705 
L 265.215 134.966488 
L 265.215 117.643515 
L 265.215 117.643515 
L 253.767895 113.710044 
L 242.320789 107.629182 
L 230.873684 102.286045 
L 219.426579 97.015985 
L 207.979474 91.373451 
L 196.532368 85.572359 
L 185.085263 79.502449 
L 173.638158 73.211914 
L 162.191053 67.349384 
L 150.743947 61.927886 
L 139.296842 56.419482 
L 127.849737 51.289791 
L 116.402632 46.888066 
L 104.955526 43.190472 
L 93.508421 39.897131 
L 82.061316 37.327348 
L 70.614211 35.405944 
L 59.167105 34.06629 
L 47.72 33.569694 
z
" clip-path="url(#p873799e3eb)" style="fill: #8c564b; fill-opacity: 0.4"/>
   </g>
   <g id="PolyCollection_7">
    <path d="M 47.72 45.833829 
L 47.72 50.425801 
L 59.167105 51.952256 
L 70.614211 55.87894 
L 82.061316 62.008386 
L 93.508421 69.205168 
L 104.955526 77.211873 
L 116.402632 85.160152 
L 127.849737 93.367498 
L 139.296842 101.61659 
L 150.743947 109.41287 
L 162.191053 117.032964 
L 173.638158 124.89787 
L 185.085263 131.497566 
L 196.532368 137.559649 
L 207.979474 143.973565 
L 219.426579 149.71648 
L 230.873684 154.690751 
L 242.320789 159.089715 
L 253.767895 163.251511 
L 265.215 167.350909 
L 265.215 153.564141 
L 265.215 153.564141 
L 253.767895 150.205716 
L 242.320789 145.514271 
L 230.873684 141.24161 
L 219.426579 136.696042 
L 207.979474 131.39038 
L 196.532368 125.316614 
L 185.085263 118.993868 
L 173.638158 111.909871 
L 162.191053 103.98891 
L 150.743947 96.476676 
L 139.296842 88.611309 
L 127.849737 79.995397 
L 116.402632 72.082171 
L 104.955526 65.161501 
L 93.508421 58.346708 
L 82.061316 53.225515 
L 70.614211 49.319825 
L 59.167105 46.722251 
L 47.72 45.833829 
z
" clip-path="url(#p873799e3eb)" style="fill: #e377c2; fill-opacity: 0.4"/>
   </g>
   <g id="PolyCollection_8">
    <path d="M 47.72 33.56935 
L 47.72 33.569555 
L 59.167105 33.881975 
L 70.614211 34.094024 
L 82.061316 34.895949 
L 93.508421 36.463756 
L 104.955526 39.024067 
L 116.402632 42.343307 
L 127.849737 46.526035 
L 139.296842 51.631608 
L 150.743947 56.994399 
L 162.191053 62.783434 
L 173.638158 69.270268 
L 185.085263 75.921341 
L 196.532368 82.270701 
L 207.979474 89.870116 
L 219.426579 96.790676 
L 230.873684 102.746679 
L 242.320789 108.701255 
L 253.767895 114.448795 
L 265.215 120.065006 
L 265.215 106.742936 
L 265.215 106.742936 
L 253.767895 101.651922 
L 242.320789 95.427017 
L 230.873684 89.769283 
L 219.426579 83.949748 
L 207.979474 77.510025 
L 196.532368 71.127446 
L 185.085263 64.736058 
L 173.638158 58.663243 
L 162.191053 52.768114 
L 150.743947 47.858052 
L 139.296842 43.489446 
L 127.849737 39.687815 
L 116.402632 37.115527 
L 104.955526 35.659224 
L 93.508421 34.571391 
L 82.061316 34.069415 
L 70.614211 33.938836 
L 59.167105 33.810722 
L 47.72 33.56935 
z
" clip-path="url(#p873799e3eb)" style="fill: #7f7f7f; fill-opacity: 0.4"/>
   </g>
   <g id="matplotlib.axis_1">
    <g id="xtick_1">
     <g id="line2d_1">
      <defs>
       <path id="m6668873b23" d="M 0 0 
L 0 3.5 
" style="stroke: #000000; stroke-width: 0.8"/>
      </defs>
      <g>
       <use xlink:href="#m6668873b23" x="47.72" y="174.04" style="stroke: #000000; stroke-width: 0.8"/>
      </g>
     </g>
     <g id="text_1">
      <!-- 0.0 -->
      <g transform="translate(39.768438 188.638438)scale(0.1 -0.1)">
       <defs>
        <path id="DejaVuSans-30" d="M 2034 4250 
Q 1547 4250 1301 3770 
Q 1056 3291 1056 2328 
Q 1056 1369 1301 889 
Q 1547 409 2034 409 
Q 2525 409 2770 889 
Q 3016 1369 3016 2328 
Q 3016 3291 2770 3770 
Q 2525 4250 2034 4250 
z
M 2034 4750 
Q 2819 4750 3233 4129 
Q 3647 3509 3647 2328 
Q 3647 1150 3233 529 
Q 2819 -91 2034 -91 
Q 1250 -91 836 529 
Q 422 1150 422 2328 
Q 422 3509 836 4129 
Q 1250 4750 2034 4750 
z
" transform="scale(0.015625)"/>
        <path id="DejaVuSans-2e" d="M 684 794 
L 1344 794 
L 1344 0 
L 684 0 
L 684 794 
z
" transform="scale(0.015625)"/>
       </defs>
       <use xlink:href="#DejaVuSans-30"/>
       <use xlink:href="#DejaVuSans-2e" x="63.623047"/>
       <use xlink:href="#DejaVuSans-30" x="95.410156"/>
      </g>
     </g>
    </g>
    <g id="xtick_2">
     <g id="line2d_2">
      <g>
       <use xlink:href="#m6668873b23" x="102.09375" y="174.04" style="stroke: #000000; stroke-width: 0.8"/>
      </g>
     </g>
     <g id="text_2">
      <!-- 0.5 -->
      <g transform="translate(94.142188 188.638438)scale(0.1 -0.1)">
       <defs>
        <path id="DejaVuSans-35" d="M 691 4666 
L 3169 4666 
L 3169 4134 
L 1269 4134 
L 1269 2991 
Q 1406 3038 1543 3061 
Q 1681 3084 1819 3084 
Q 2600 3084 3056 2656 
Q 3513 2228 3513 1497 
Q 3513 744 3044 326 
Q 2575 -91 1722 -91 
Q 1428 -91 1123 -41 
Q 819 9 494 109 
L 494 744 
Q 775 591 1075 516 
Q 1375 441 1709 441 
Q 2250 441 2565 725 
Q 2881 1009 2881 1497 
Q 2881 1984 2565 2268 
Q 2250 2553 1709 2553 
Q 1456 2553 1204 2497 
Q 953 2441 691 2322 
L 691 4666 
z
" transform="scale(0.015625)"/>
       </defs>
       <use xlink:href="#DejaVuSans-30"/>
       <use xlink:href="#DejaVuSans-2e" x="63.623047"/>
       <use xlink:href="#DejaVuSans-35" x="95.410156"/>
      </g>
     </g>
    </g>
    <g id="xtick_3">
     <g id="line2d_3">
      <g>
       <use xlink:href="#m6668873b23" x="156.4675" y="174.04" style="stroke: #000000; stroke-width: 0.8"/>
      </g>
     </g>
     <g id="text_3">
      <!-- 1.0 -->
      <g transform="translate(148.515938 188.638438)scale(0.1 -0.1)">
       <defs>
        <path id="DejaVuSans-31" d="M 794 531 
L 1825 531 
L 1825 4091 
L 703 3866 
L 703 4441 
L 1819 4666 
L 2450 4666 
L 2450 531 
L 3481 531 
L 3481 0 
L 794 0 
L 794 531 
z
" transform="scale(0.015625)"/>
       </defs>
       <use xlink:href="#DejaVuSans-31"/>
       <use xlink:href="#DejaVuSans-2e" x="63.623047"/>
       <use xlink:href="#DejaVuSans-30" x="95.410156"/>
      </g>
     </g>
    </g>
    <g id="xtick_4">
     <g id="line2d_4">
      <g>
       <use xlink:href="#m6668873b23" x="210.84125" y="174.04" style="stroke: #000000; stroke-width: 0.8"/>
      </g>
     </g>
     <g id="text_4">
      <!-- 1.5 -->
      <g transform="translate(202.889687 188.638438)scale(0.1 -0.1)">
       <use xlink:href="#DejaVuSans-31"/>
       <use xlink:href="#DejaVuSans-2e" x="63.623047"/>
       <use xlink:href="#DejaVuSans-35" x="95.410156"/>
      </g>
     </g>
    </g>
    <g id="xtick_5">
     <g id="line2d_5">
      <g>
       <use xlink:href="#m6668873b23" x="265.215" y="174.04" style="stroke: #000000; stroke-width: 0.8"/>
      </g>
     </g>
     <g id="text_5">
      <!-- 2.0 -->
      <g transform="translate(257.263437 188.638438)scale(0.1 -0.1)">
       <defs>
        <path id="DejaVuSans-32" d="M 1228 531 
L 3431 531 
L 3431 0 
L 469 0 
L 469 531 
Q 828 903 1448 1529 
Q 2069 2156 2228 2338 
Q 2531 2678 2651 2914 
Q 2772 3150 2772 3378 
Q 2772 3750 2511 3984 
Q 2250 4219 1831 4219 
Q 1534 4219 1204 4116 
Q 875 4013 500 3803 
L 500 4441 
Q 881 4594 1212 4672 
Q 1544 4750 1819 4750 
Q 2544 4750 2975 4387 
Q 3406 4025 3406 3419 
Q 3406 3131 3298 2873 
Q 3191 2616 2906 2266 
Q 2828 2175 2409 1742 
Q 1991 1309 1228 531 
z
" transform="scale(0.015625)"/>
       </defs>
       <use xlink:href="#DejaVuSans-32"/>
       <use xlink:href="#DejaVuSans-2e" x="63.623047"/>
       <use xlink:href="#DejaVuSans-30" x="95.410156"/>
      </g>
     </g>
    </g>
    <g id="text_6">
     <!-- Influence of surprisal (multiplication) -->
     <g transform="translate(64.320625 202.316563)scale(0.1 -0.1)">
      <defs>
       <path id="DejaVuSans-49" d="M 628 4666 
L 1259 4666 
L 1259 0 
L 628 0 
L 628 4666 
z
" transform="scale(0.015625)"/>
       <path id="DejaVuSans-6e" d="M 3513 2113 
L 3513 0 
L 2938 0 
L 2938 2094 
Q 2938 2591 2744 2837 
Q 2550 3084 2163 3084 
Q 1697 3084 1428 2787 
Q 1159 2491 1159 1978 
L 1159 0 
L 581 0 
L 581 3500 
L 1159 3500 
L 1159 2956 
Q 1366 3272 1645 3428 
Q 1925 3584 2291 3584 
Q 2894 3584 3203 3211 
Q 3513 2838 3513 2113 
z
" transform="scale(0.015625)"/>
       <path id="DejaVuSans-66" d="M 2375 4863 
L 2375 4384 
L 1825 4384 
Q 1516 4384 1395 4259 
Q 1275 4134 1275 3809 
L 1275 3500 
L 2222 3500 
L 2222 3053 
L 1275 3053 
L 1275 0 
L 697 0 
L 697 3053 
L 147 3053 
L 147 3500 
L 697 3500 
L 697 3744 
Q 697 4328 969 4595 
Q 1241 4863 1831 4863 
L 2375 4863 
z
" transform="scale(0.015625)"/>
       <path id="DejaVuSans-6c" d="M 603 4863 
L 1178 4863 
L 1178 0 
L 603 0 
L 603 4863 
z
" transform="scale(0.015625)"/>
       <path id="DejaVuSans-75" d="M 544 1381 
L 544 3500 
L 1119 3500 
L 1119 1403 
Q 1119 906 1312 657 
Q 1506 409 1894 409 
Q 2359 409 2629 706 
Q 2900 1003 2900 1516 
L 2900 3500 
L 3475 3500 
L 3475 0 
L 2900 0 
L 2900 538 
Q 2691 219 2414 64 
Q 2138 -91 1772 -91 
Q 1169 -91 856 284 
Q 544 659 544 1381 
z
M 1991 3584 
L 1991 3584 
z
" transform="scale(0.015625)"/>
       <path id="DejaVuSans-65" d="M 3597 1894 
L 3597 1613 
L 953 1613 
Q 991 1019 1311 708 
Q 1631 397 2203 397 
Q 2534 397 2845 478 
Q 3156 559 3463 722 
L 3463 178 
Q 3153 47 2828 -22 
Q 2503 -91 2169 -91 
Q 1331 -91 842 396 
Q 353 884 353 1716 
Q 353 2575 817 3079 
Q 1281 3584 2069 3584 
Q 2775 3584 3186 3129 
Q 3597 2675 3597 1894 
z
M 3022 2063 
Q 3016 2534 2758 2815 
Q 2500 3097 2075 3097 
Q 1594 3097 1305 2825 
Q 1016 2553 972 2059 
L 3022 2063 
z
" transform="scale(0.015625)"/>
       <path id="DejaVuSans-63" d="M 3122 3366 
L 3122 2828 
Q 2878 2963 2633 3030 
Q 2388 3097 2138 3097 
Q 1578 3097 1268 2742 
Q 959 2388 959 1747 
Q 959 1106 1268 751 
Q 1578 397 2138 397 
Q 2388 397 2633 464 
Q 2878 531 3122 666 
L 3122 134 
Q 2881 22 2623 -34 
Q 2366 -91 2075 -91 
Q 1284 -91 818 406 
Q 353 903 353 1747 
Q 353 2603 823 3093 
Q 1294 3584 2113 3584 
Q 2378 3584 2631 3529 
Q 2884 3475 3122 3366 
z
" transform="scale(0.015625)"/>
       <path id="DejaVuSans-20" transform="scale(0.015625)"/>
       <path id="DejaVuSans-6f" d="M 1959 3097 
Q 1497 3097 1228 2736 
Q 959 2375 959 1747 
Q 959 1119 1226 758 
Q 1494 397 1959 397 
Q 2419 397 2687 759 
Q 2956 1122 2956 1747 
Q 2956 2369 2687 2733 
Q 2419 3097 1959 3097 
z
M 1959 3584 
Q 2709 3584 3137 3096 
Q 3566 2609 3566 1747 
Q 3566 888 3137 398 
Q 2709 -91 1959 -91 
Q 1206 -91 779 398 
Q 353 888 353 1747 
Q 353 2609 779 3096 
Q 1206 3584 1959 3584 
z
" transform="scale(0.015625)"/>
       <path id="DejaVuSans-73" d="M 2834 3397 
L 2834 2853 
Q 2591 2978 2328 3040 
Q 2066 3103 1784 3103 
Q 1356 3103 1142 2972 
Q 928 2841 928 2578 
Q 928 2378 1081 2264 
Q 1234 2150 1697 2047 
L 1894 2003 
Q 2506 1872 2764 1633 
Q 3022 1394 3022 966 
Q 3022 478 2636 193 
Q 2250 -91 1575 -91 
Q 1294 -91 989 -36 
Q 684 19 347 128 
L 347 722 
Q 666 556 975 473 
Q 1284 391 1588 391 
Q 1994 391 2212 530 
Q 2431 669 2431 922 
Q 2431 1156 2273 1281 
Q 2116 1406 1581 1522 
L 1381 1569 
Q 847 1681 609 1914 
Q 372 2147 372 2553 
Q 372 3047 722 3315 
Q 1072 3584 1716 3584 
Q 2034 3584 2315 3537 
Q 2597 3491 2834 3397 
z
" transform="scale(0.015625)"/>
       <path id="DejaVuSans-72" d="M 2631 2963 
Q 2534 3019 2420 3045 
Q 2306 3072 2169 3072 
Q 1681 3072 1420 2755 
Q 1159 2438 1159 1844 
L 1159 0 
L 581 0 
L 581 3500 
L 1159 3500 
L 1159 2956 
Q 1341 3275 1631 3429 
Q 1922 3584 2338 3584 
Q 2397 3584 2469 3576 
Q 2541 3569 2628 3553 
L 2631 2963 
z
" transform="scale(0.015625)"/>
       <path id="DejaVuSans-70" d="M 1159 525 
L 1159 -1331 
L 581 -1331 
L 581 3500 
L 1159 3500 
L 1159 2969 
Q 1341 3281 1617 3432 
Q 1894 3584 2278 3584 
Q 2916 3584 3314 3078 
Q 3713 2572 3713 1747 
Q 3713 922 3314 415 
Q 2916 -91 2278 -91 
Q 1894 -91 1617 61 
Q 1341 213 1159 525 
z
M 3116 1747 
Q 3116 2381 2855 2742 
Q 2594 3103 2138 3103 
Q 1681 3103 1420 2742 
Q 1159 2381 1159 1747 
Q 1159 1113 1420 752 
Q 1681 391 2138 391 
Q 2594 391 2855 752 
Q 3116 1113 3116 1747 
z
" transform="scale(0.015625)"/>
       <path id="DejaVuSans-69" d="M 603 3500 
L 1178 3500 
L 1178 0 
L 603 0 
L 603 3500 
z
M 603 4863 
L 1178 4863 
L 1178 4134 
L 603 4134 
L 603 4863 
z
" transform="scale(0.015625)"/>
       <path id="DejaVuSans-61" d="M 2194 1759 
Q 1497 1759 1228 1600 
Q 959 1441 959 1056 
Q 959 750 1161 570 
Q 1363 391 1709 391 
Q 2188 391 2477 730 
Q 2766 1069 2766 1631 
L 2766 1759 
L 2194 1759 
z
M 3341 1997 
L 3341 0 
L 2766 0 
L 2766 531 
Q 2569 213 2275 61 
Q 1981 -91 1556 -91 
Q 1019 -91 701 211 
Q 384 513 384 1019 
Q 384 1609 779 1909 
Q 1175 2209 1959 2209 
L 2766 2209 
L 2766 2266 
Q 2766 2663 2505 2880 
Q 2244 3097 1772 3097 
Q 1472 3097 1187 3025 
Q 903 2953 641 2809 
L 641 3341 
Q 956 3463 1253 3523 
Q 1550 3584 1831 3584 
Q 2591 3584 2966 3190 
Q 3341 2797 3341 1997 
z
" transform="scale(0.015625)"/>
       <path id="DejaVuSans-28" d="M 1984 4856 
Q 1566 4138 1362 3434 
Q 1159 2731 1159 2009 
Q 1159 1288 1364 580 
Q 1569 -128 1984 -844 
L 1484 -844 
Q 1016 -109 783 600 
Q 550 1309 550 2009 
Q 550 2706 781 3412 
Q 1013 4119 1484 4856 
L 1984 4856 
z
" transform="scale(0.015625)"/>
       <path id="DejaVuSans-6d" d="M 3328 2828 
Q 3544 3216 3844 3400 
Q 4144 3584 4550 3584 
Q 5097 3584 5394 3201 
Q 5691 2819 5691 2113 
L 5691 0 
L 5113 0 
L 5113 2094 
Q 5113 2597 4934 2840 
Q 4756 3084 4391 3084 
Q 3944 3084 3684 2787 
Q 3425 2491 3425 1978 
L 3425 0 
L 2847 0 
L 2847 2094 
Q 2847 2600 2669 2842 
Q 2491 3084 2119 3084 
Q 1678 3084 1418 2786 
Q 1159 2488 1159 1978 
L 1159 0 
L 581 0 
L 581 3500 
L 1159 3500 
L 1159 2956 
Q 1356 3278 1631 3431 
Q 1906 3584 2284 3584 
Q 2666 3584 2933 3390 
Q 3200 3197 3328 2828 
z
" transform="scale(0.015625)"/>
       <path id="DejaVuSans-74" d="M 1172 4494 
L 1172 3500 
L 2356 3500 
L 2356 3053 
L 1172 3053 
L 1172 1153 
Q 1172 725 1289 603 
Q 1406 481 1766 481 
L 2356 481 
L 2356 0 
L 1766 0 
Q 1100 0 847 248 
Q 594 497 594 1153 
L 594 3053 
L 172 3053 
L 172 3500 
L 594 3500 
L 594 4494 
L 1172 4494 
z
" transform="scale(0.015625)"/>
       <path id="DejaVuSans-29" d="M 513 4856 
L 1013 4856 
Q 1481 4119 1714 3412 
Q 1947 2706 1947 2009 
Q 1947 1309 1714 600 
Q 1481 -109 1013 -844 
L 513 -844 
Q 928 -128 1133 580 
Q 1338 1288 1338 2009 
Q 1338 2731 1133 3434 
Q 928 4138 513 4856 
z
" transform="scale(0.015625)"/>
      </defs>
      <use xlink:href="#DejaVuSans-49"/>
      <use xlink:href="#DejaVuSans-6e" x="29.492188"/>
      <use xlink:href="#DejaVuSans-66" x="92.871094"/>
      <use xlink:href="#DejaVuSans-6c" x="128.076172"/>
      <use xlink:href="#DejaVuSans-75" x="155.859375"/>
      <use xlink:href="#DejaVuSans-65" x="219.238281"/>
      <use xlink:href="#DejaVuSans-6e" x="280.761719"/>
      <use xlink:href="#DejaVuSans-63" x="344.140625"/>
      <use xlink:href="#DejaVuSans-65" x="399.121094"/>
      <use xlink:href="#DejaVuSans-20" x="460.644531"/>
      <use xlink:href="#DejaVuSans-6f" x="492.431641"/>
      <use xlink:href="#DejaVuSans-66" x="553.613281"/>
      <use xlink:href="#DejaVuSans-20" x="588.818359"/>
      <use xlink:href="#DejaVuSans-73" x="620.605469"/>
      <use xlink:href="#DejaVuSans-75" x="672.705078"/>
      <use xlink:href="#DejaVuSans-72" x="736.083984"/>
      <use xlink:href="#DejaVuSans-70" x="777.197266"/>
      <use xlink:href="#DejaVuSans-72" x="840.673828"/>
      <use xlink:href="#DejaVuSans-69" x="881.787109"/>
      <use xlink:href="#DejaVuSans-73" x="909.570312"/>
      <use xlink:href="#DejaVuSans-61" x="961.669922"/>
      <use xlink:href="#DejaVuSans-6c" x="1022.949219"/>
      <use xlink:href="#DejaVuSans-20" x="1050.732422"/>
      <use xlink:href="#DejaVuSans-28" x="1082.519531"/>
      <use xlink:href="#DejaVuSans-6d" x="1121.533203"/>
      <use xlink:href="#DejaVuSans-75" x="1218.945312"/>
      <use xlink:href="#DejaVuSans-6c" x="1282.324219"/>
      <use xlink:href="#DejaVuSans-74" x="1310.107422"/>
      <use xlink:href="#DejaVuSans-69" x="1349.316406"/>
      <use xlink:href="#DejaVuSans-70" x="1377.099609"/>
      <use xlink:href="#DejaVuSans-6c" x="1440.576172"/>
      <use xlink:href="#DejaVuSans-69" x="1468.359375"/>
      <use xlink:href="#DejaVuSans-63" x="1496.142578"/>
      <use xlink:href="#DejaVuSans-61" x="1551.123047"/>
      <use xlink:href="#DejaVuSans-74" x="1612.402344"/>
      <use xlink:href="#DejaVuSans-69" x="1651.611328"/>
      <use xlink:href="#DejaVuSans-6f" x="1679.394531"/>
      <use xlink:href="#DejaVuSans-6e" x="1740.576172"/>
      <use xlink:href="#DejaVuSans-29" x="1803.955078"/>
     </g>
    </g>
   </g>
   <g id="matplotlib.axis_2">
    <g id="ytick_1">
     <g id="line2d_6">
      <defs>
       <path id="m3e196deff8" d="M 0 0 
L -3.5 0 
" style="stroke: #000000; stroke-width: 0.8"/>
      </defs>
      <g>
       <use xlink:href="#m3e196deff8" x="47.72" y="147.466885" style="stroke: #000000; stroke-width: 0.8"/>
      </g>
     </g>
     <g id="text_7">
      <!-- 0.4 -->
      <g transform="translate(24.816875 151.266103)scale(0.1 -0.1)">
       <defs>
        <path id="DejaVuSans-34" d="M 2419 4116 
L 825 1625 
L 2419 1625 
L 2419 4116 
z
M 2253 4666 
L 3047 4666 
L 3047 1625 
L 3713 1625 
L 3713 1100 
L 3047 1100 
L 3047 0 
L 2419 0 
L 2419 1100 
L 313 1100 
L 313 1709 
L 2253 4666 
z
" transform="scale(0.015625)"/>
       </defs>
       <use xlink:href="#DejaVuSans-30"/>
       <use xlink:href="#DejaVuSans-2e" x="63.623047"/>
       <use xlink:href="#DejaVuSans-34" x="95.410156"/>
      </g>
     </g>
    </g>
    <g id="ytick_2">
     <g id="line2d_7">
      <g>
       <use xlink:href="#m3e196deff8" x="47.72" y="109.500952" style="stroke: #000000; stroke-width: 0.8"/>
      </g>
     </g>
     <g id="text_8">
      <!-- 0.6 -->
      <g transform="translate(24.816875 113.300171)scale(0.1 -0.1)">
       <defs>
        <path id="DejaVuSans-36" d="M 2113 2584 
Q 1688 2584 1439 2293 
Q 1191 2003 1191 1497 
Q 1191 994 1439 701 
Q 1688 409 2113 409 
Q 2538 409 2786 701 
Q 3034 994 3034 1497 
Q 3034 2003 2786 2293 
Q 2538 2584 2113 2584 
z
M 3366 4563 
L 3366 3988 
Q 3128 4100 2886 4159 
Q 2644 4219 2406 4219 
Q 1781 4219 1451 3797 
Q 1122 3375 1075 2522 
Q 1259 2794 1537 2939 
Q 1816 3084 2150 3084 
Q 2853 3084 3261 2657 
Q 3669 2231 3669 1497 
Q 3669 778 3244 343 
Q 2819 -91 2113 -91 
Q 1303 -91 875 529 
Q 447 1150 447 2328 
Q 447 3434 972 4092 
Q 1497 4750 2381 4750 
Q 2619 4750 2861 4703 
Q 3103 4656 3366 4563 
z
" transform="scale(0.015625)"/>
       </defs>
       <use xlink:href="#DejaVuSans-30"/>
       <use xlink:href="#DejaVuSans-2e" x="63.623047"/>
       <use xlink:href="#DejaVuSans-36" x="95.410156"/>
      </g>
     </g>
    </g>
    <g id="ytick_3">
     <g id="line2d_8">
      <g>
       <use xlink:href="#m3e196deff8" x="47.72" y="71.53502" style="stroke: #000000; stroke-width: 0.8"/>
      </g>
     </g>
     <g id="text_9">
      <!-- 0.8 -->
      <g transform="translate(24.816875 75.334239)scale(0.1 -0.1)">
       <defs>
        <path id="DejaVuSans-38" d="M 2034 2216 
Q 1584 2216 1326 1975 
Q 1069 1734 1069 1313 
Q 1069 891 1326 650 
Q 1584 409 2034 409 
Q 2484 409 2743 651 
Q 3003 894 3003 1313 
Q 3003 1734 2745 1975 
Q 2488 2216 2034 2216 
z
M 1403 2484 
Q 997 2584 770 2862 
Q 544 3141 544 3541 
Q 544 4100 942 4425 
Q 1341 4750 2034 4750 
Q 2731 4750 3128 4425 
Q 3525 4100 3525 3541 
Q 3525 3141 3298 2862 
Q 3072 2584 2669 2484 
Q 3125 2378 3379 2068 
Q 3634 1759 3634 1313 
Q 3634 634 3220 271 
Q 2806 -91 2034 -91 
Q 1263 -91 848 271 
Q 434 634 434 1313 
Q 434 1759 690 2068 
Q 947 2378 1403 2484 
z
M 1172 3481 
Q 1172 3119 1398 2916 
Q 1625 2713 2034 2713 
Q 2441 2713 2670 2916 
Q 2900 3119 2900 3481 
Q 2900 3844 2670 4047 
Q 2441 4250 2034 4250 
Q 1625 4250 1398 4047 
Q 1172 3844 1172 3481 
z
" transform="scale(0.015625)"/>
       </defs>
       <use xlink:href="#DejaVuSans-30"/>
       <use xlink:href="#DejaVuSans-2e" x="63.623047"/>
       <use xlink:href="#DejaVuSans-38" x="95.410156"/>
      </g>
     </g>
    </g>
    <g id="ytick_4">
     <g id="line2d_9">
      <g>
       <use xlink:href="#m3e196deff8" x="47.72" y="33.569088" style="stroke: #000000; stroke-width: 0.8"/>
      </g>
     </g>
     <g id="text_10">
      <!-- 1.0 -->
      <g transform="translate(24.816875 37.368306)scale(0.1 -0.1)">
       <use xlink:href="#DejaVuSans-31"/>
       <use xlink:href="#DejaVuSans-2e" x="63.623047"/>
       <use xlink:href="#DejaVuSans-30" x="95.410156"/>
      </g>
     </g>
    </g>
    <g id="text_11">
     <!-- R-value -->
     <g transform="translate(18.737188 119.064687)rotate(-90)scale(0.1 -0.1)">
      <defs>
       <path id="DejaVuSans-52" d="M 2841 2188 
Q 3044 2119 3236 1894 
Q 3428 1669 3622 1275 
L 4263 0 
L 3584 0 
L 2988 1197 
Q 2756 1666 2539 1819 
Q 2322 1972 1947 1972 
L 1259 1972 
L 1259 0 
L 628 0 
L 628 4666 
L 2053 4666 
Q 2853 4666 3247 4331 
Q 3641 3997 3641 3322 
Q 3641 2881 3436 2590 
Q 3231 2300 2841 2188 
z
M 1259 4147 
L 1259 2491 
L 2053 2491 
Q 2509 2491 2742 2702 
Q 2975 2913 2975 3322 
Q 2975 3731 2742 3939 
Q 2509 4147 2053 4147 
L 1259 4147 
z
" transform="scale(0.015625)"/>
       <path id="DejaVuSans-2d" d="M 313 2009 
L 1997 2009 
L 1997 1497 
L 313 1497 
L 313 2009 
z
" transform="scale(0.015625)"/>
       <path id="DejaVuSans-76" d="M 191 3500 
L 800 3500 
L 1894 563 
L 2988 3500 
L 3597 3500 
L 2284 0 
L 1503 0 
L 191 3500 
z
" transform="scale(0.015625)"/>
      </defs>
      <use xlink:href="#DejaVuSans-52"/>
      <use xlink:href="#DejaVuSans-2d" x="65.482422"/>
      <use xlink:href="#DejaVuSans-76" x="98.941406"/>
      <use xlink:href="#DejaVuSans-61" x="158.121094"/>
      <use xlink:href="#DejaVuSans-6c" x="219.400391"/>
      <use xlink:href="#DejaVuSans-75" x="247.183594"/>
      <use xlink:href="#DejaVuSans-65" x="310.5625"/>
     </g>
    </g>
   </g>
   <g id="line2d_10">
    <path d="M 47.72 33.569091 
L 59.167105 34.462523 
L 70.614211 37.205498 
L 82.061316 41.136077 
L 93.508421 46.24147 
L 104.955526 52.504869 
L 116.402632 58.900162 
L 127.849737 66.040096 
L 139.296842 73.779003 
L 150.743947 80.966723 
L 162.191053 87.980277 
L 173.638158 95.552987 
L 185.085263 102.447594 
L 196.532368 108.812365 
L 207.979474 115.370635 
L 219.426579 121.647906 
L 230.873684 127.056444 
L 242.320789 132.423898 
L 253.767895 137.99627 
L 265.215 142.72268 
" clip-path="url(#p873799e3eb)" style="fill: none; stroke: #1f77b4; stroke-width: 1.5; stroke-linecap: square"/>
   </g>
   <g id="line2d_11">
    <path d="M 47.72 33.569275 
L 59.167105 34.169519 
L 70.614211 35.639188 
L 82.061316 37.901391 
L 93.508421 40.851187 
L 104.955526 44.899047 
L 116.402632 49.068355 
L 127.849737 54.169906 
L 139.296842 60.001741 
L 150.743947 65.828095 
L 162.191053 71.75607 
L 173.638158 78.493571 
L 185.085263 84.940885 
L 196.532368 91.330807 
L 207.979474 98.024447 
L 219.426579 104.551308 
L 230.873684 110.173872 
L 242.320789 115.691114 
L 253.767895 121.499277 
L 265.215 126.446842 
" clip-path="url(#p873799e3eb)" style="fill: none; stroke: #ff7f0e; stroke-width: 1.5; stroke-linecap: square"/>
   </g>
   <g id="line2d_12">
    <path d="M 47.72 33.569103 
L 59.167105 34.27979 
L 70.614211 35.623243 
L 82.061316 37.505102 
L 93.508421 39.862769 
L 104.955526 42.656382 
L 116.402632 45.638227 
L 127.849737 48.868858 
L 139.296842 52.563129 
L 150.743947 56.17346 
L 162.191053 59.749017 
L 173.638158 63.392581 
L 185.085263 67.159205 
L 196.532368 70.643546 
L 207.979474 74.453639 
L 219.426579 78.026491 
L 230.873684 81.387932 
L 242.320789 84.596618 
L 253.767895 87.963331 
L 265.215 91.030164 
" clip-path="url(#p873799e3eb)" style="fill: none; stroke: #2ca02c; stroke-width: 1.5; stroke-linecap: square"/>
   </g>
   <g id="line2d_13">
    <path d="M 47.72 33.570135 
L 59.167105 34.13712 
L 70.614211 35.110362 
L 82.061316 36.54275 
L 93.508421 38.315489 
L 104.955526 40.625998 
L 116.402632 43.073628 
L 127.849737 45.950389 
L 139.296842 49.378658 
L 150.743947 52.859088 
L 162.191053 56.377673 
L 173.638158 60.071221 
L 185.085263 63.856104 
L 196.532368 67.493949 
L 207.979474 71.462693 
L 219.426579 75.29183 
L 230.873684 78.83519 
L 242.320789 82.313828 
L 253.767895 85.954722 
L 265.215 89.18163 
" clip-path="url(#p873799e3eb)" style="fill: none; stroke: #d62728; stroke-width: 1.5; stroke-linecap: square"/>
   </g>
   <g id="line2d_14">
    <path d="M 47.72 33.569103 
L 59.167105 34.46286 
L 70.614211 37.226856 
L 82.061316 41.16111 
L 93.508421 46.241325 
L 104.955526 52.58009 
L 116.402632 58.94722 
L 127.849737 66.055872 
L 139.296842 73.917632 
L 150.743947 81.12757 
L 162.191053 88.267643 
L 173.638158 95.670309 
L 185.085263 102.693236 
L 196.532368 108.991181 
L 207.979474 115.637912 
L 219.426579 121.688443 
L 230.873684 127.228135 
L 242.320789 132.862299 
L 253.767895 138.497561 
L 265.215 142.612307 
" clip-path="url(#p873799e3eb)" style="fill: none; stroke: #9467bd; stroke-width: 1.5; stroke-linecap: square"/>
   </g>
   <g id="line2d_15">
    <path d="M 47.72 33.569837 
L 59.167105 34.170178 
L 70.614211 35.653323 
L 82.061316 37.912498 
L 93.508421 40.860958 
L 104.955526 44.943265 
L 116.402632 49.114296 
L 127.849737 54.165248 
L 139.296842 60.043413 
L 150.743947 65.911896 
L 162.191053 71.836086 
L 173.638158 78.601821 
L 185.085263 85.180193 
L 196.532368 91.450085 
L 207.979474 98.206753 
L 219.426579 104.672012 
L 230.873684 110.358243 
L 242.320789 115.912714 
L 253.767895 122.021875 
L 265.215 126.305001 
" clip-path="url(#p873799e3eb)" style="fill: none; stroke: #8c564b; stroke-width: 1.5; stroke-linecap: square"/>
   </g>
   <g id="line2d_16">
    <path d="M 47.72 48.129815 
L 59.167105 49.337253 
L 70.614211 52.599383 
L 82.061316 57.61695 
L 93.508421 63.775938 
L 104.955526 71.186687 
L 116.402632 78.621162 
L 127.849737 86.681447 
L 139.296842 95.113949 
L 150.743947 102.944773 
L 162.191053 110.510937 
L 173.638158 118.403871 
L 185.085263 125.245717 
L 196.532368 131.438132 
L 207.979474 137.681973 
L 219.426579 143.206261 
L 230.873684 147.96618 
L 242.320789 152.301993 
L 253.767895 156.728613 
L 265.215 160.457525 
" clip-path="url(#p873799e3eb)" style="fill: none; stroke: #e377c2; stroke-width: 1.5; stroke-linecap: square"/>
   </g>
   <g id="line2d_17">
    <path d="M 47.72 33.569453 
L 59.167105 33.846349 
L 70.614211 34.01643 
L 82.061316 34.482682 
L 93.508421 35.517573 
L 104.955526 37.341646 
L 116.402632 39.729417 
L 127.849737 43.106925 
L 139.296842 47.560527 
L 150.743947 52.426225 
L 162.191053 57.775774 
L 173.638158 63.966756 
L 185.085263 70.3287 
L 196.532368 76.699073 
L 207.979474 83.69007 
L 219.426579 90.370212 
L 230.873684 96.257981 
L 242.320789 102.064136 
L 253.767895 108.050358 
L 265.215 113.403971 
" clip-path="url(#p873799e3eb)" style="fill: none; stroke: #7f7f7f; stroke-width: 1.5; stroke-linecap: square"/>
   </g>
   <g id="patch_3">
    <path d="M 47.72 174.04 
L 47.72 26.88 
" style="fill: none; stroke: #000000; stroke-width: 0.8; stroke-linejoin: miter; stroke-linecap: square"/>
   </g>
   <g id="patch_4">
    <path d="M 47.72 174.04 
L 265.215 174.04 
" style="fill: none; stroke: #000000; stroke-width: 0.8; stroke-linejoin: miter; stroke-linecap: square"/>
   </g>
   <g id="text_12">
    <!-- Node * surprisal -->
    <g transform="translate(108.18625 20.88)scale(0.12 -0.12)">
     <defs>
      <path id="DejaVuSans-4e" d="M 628 4666 
L 1478 4666 
L 3547 763 
L 3547 4666 
L 4159 4666 
L 4159 0 
L 3309 0 
L 1241 3903 
L 1241 0 
L 628 0 
L 628 4666 
z
" transform="scale(0.015625)"/>
      <path id="DejaVuSans-64" d="M 2906 2969 
L 2906 4863 
L 3481 4863 
L 3481 0 
L 2906 0 
L 2906 525 
Q 2725 213 2448 61 
Q 2172 -91 1784 -91 
Q 1150 -91 751 415 
Q 353 922 353 1747 
Q 353 2572 751 3078 
Q 1150 3584 1784 3584 
Q 2172 3584 2448 3432 
Q 2725 3281 2906 2969 
z
M 947 1747 
Q 947 1113 1208 752 
Q 1469 391 1925 391 
Q 2381 391 2643 752 
Q 2906 1113 2906 1747 
Q 2906 2381 2643 2742 
Q 2381 3103 1925 3103 
Q 1469 3103 1208 2742 
Q 947 2381 947 1747 
z
" transform="scale(0.015625)"/>
      <path id="DejaVuSans-2a" d="M 3009 3897 
L 1888 3291 
L 3009 2681 
L 2828 2375 
L 1778 3009 
L 1778 1831 
L 1422 1831 
L 1422 3009 
L 372 2375 
L 191 2681 
L 1313 3291 
L 191 3897 
L 372 4206 
L 1422 3572 
L 1422 4750 
L 1778 4750 
L 1778 3572 
L 2828 4206 
L 3009 3897 
z
" transform="scale(0.015625)"/>
     </defs>
     <use xlink:href="#DejaVuSans-4e"/>
     <use xlink:href="#DejaVuSans-6f" x="74.804688"/>
     <use xlink:href="#DejaVuSans-64" x="135.986328"/>
     <use xlink:href="#DejaVuSans-65" x="199.462891"/>
     <use xlink:href="#DejaVuSans-20" x="260.986328"/>
     <use xlink:href="#DejaVuSans-2a" x="292.773438"/>
     <use xlink:href="#DejaVuSans-20" x="342.773438"/>
     <use xlink:href="#DejaVuSans-73" x="374.560547"/>
     <use xlink:href="#DejaVuSans-75" x="426.660156"/>
     <use xlink:href="#DejaVuSans-72" x="490.039062"/>
     <use xlink:href="#DejaVuSans-70" x="531.152344"/>
     <use xlink:href="#DejaVuSans-72" x="594.628906"/>
     <use xlink:href="#DejaVuSans-69" x="635.742188"/>
     <use xlink:href="#DejaVuSans-73" x="663.525391"/>
     <use xlink:href="#DejaVuSans-61" x="715.625"/>
     <use xlink:href="#DejaVuSans-6c" x="776.904297"/>
    </g>
   </g>
  </g>
  <g id="axes_2">
   <g id="patch_5">
    <path d="M 298.065 174.04 
L 515.56 174.04 
L 515.56 26.88 
L 298.065 26.88 
z
" style="fill: #ffffff"/>
   </g>
   <g id="PolyCollection_9">
    <path d="M 298.065 33.569091 
L 298.065 33.569092 
L 309.512105 34.736125 
L 320.959211 38.452592 
L 332.406316 43.354013 
L 343.853421 49.46966 
L 355.300526 56.33056 
L 366.747632 64.079052 
L 378.194737 71.874079 
L 389.641842 80.275348 
L 401.088947 88.488161 
L 412.536053 96.640935 
L 423.983158 103.992009 
L 435.430263 111.641511 
L 446.877368 119.030396 
L 458.324474 125.815116 
L 469.771579 132.020156 
L 481.218684 138.013673 
L 492.665789 142.889122 
L 504.112895 147.948676 
L 515.56 152.547509 
L 515.56 135.81005 
L 515.56 135.81005 
L 504.112895 131.186474 
L 492.665789 126.494809 
L 481.218684 121.541147 
L 469.771579 116.581522 
L 458.324474 110.419778 
L 446.877368 104.712726 
L 435.430263 98.521677 
L 423.983158 92.160591 
L 412.536053 85.423336 
L 401.088947 78.036341 
L 389.641842 71.290692 
L 378.194737 64.528977 
L 366.747632 57.276418 
L 355.300526 50.917392 
L 343.853421 45.199235 
L 332.406316 40.32259 
L 320.959211 36.936886 
L 309.512105 34.301656 
L 298.065 33.569091 
z
" clip-path="url(#p66dce0a8ca)" style="fill: #1f77b4; fill-opacity: 0.4"/>
   </g>
   <g id="PolyCollection_10">
    <path d="M 298.065 33.569239 
L 298.065 33.569311 
L 309.512105 34.739414 
L 320.959211 38.460507 
L 332.406316 43.368667 
L 343.853421 49.507132 
L 355.300526 56.366883 
L 366.747632 64.143445 
L 378.194737 71.939711 
L 389.641842 80.388813 
L 401.088947 88.663874 
L 412.536053 96.80371 
L 423.983158 104.202809 
L 435.430263 111.89669 
L 446.877368 119.265019 
L 458.324474 126.044786 
L 469.771579 132.299095 
L 481.218684 138.333528 
L 492.665789 143.275562 
L 504.112895 148.308483 
L 515.56 152.887405 
L 515.56 135.746039 
L 515.56 135.746039 
L 504.112895 131.066379 
L 492.665789 126.350188 
L 481.218684 121.388356 
L 469.771579 116.409402 
L 458.324474 110.265734 
L 446.877368 104.540101 
L 435.430263 98.394028 
L 423.983158 92.031163 
L 412.536053 85.334092 
L 401.088947 77.935717 
L 389.641842 71.213434 
L 378.194737 64.476605 
L 366.747632 57.247898 
L 355.300526 50.904347 
L 343.853421 45.199538 
L 332.406316 40.326901 
L 320.959211 36.93864 
L 309.512105 34.302024 
L 298.065 33.569239 
z
" clip-path="url(#p66dce0a8ca)" style="fill: #ff7f0e; fill-opacity: 0.4"/>
   </g>
   <g id="PolyCollection_11">
    <path d="M 298.065 33.569101 
L 298.065 33.569105 
L 309.512105 34.733073 
L 320.959211 38.449595 
L 332.406316 43.32858 
L 343.853421 49.440987 
L 355.300526 56.268588 
L 366.747632 64.007905 
L 378.194737 71.770838 
L 389.641842 80.179557 
L 401.088947 88.409199 
L 412.536053 96.604615 
L 423.983158 104.014539 
L 435.430263 111.764691 
L 446.877368 119.183229 
L 458.324474 126.043917 
L 469.771579 132.203526 
L 481.218684 138.269919 
L 492.665789 143.310056 
L 504.112895 148.358805 
L 515.56 153.056909 
L 515.56 135.380532 
L 515.56 135.380532 
L 504.112895 130.654794 
L 492.665789 125.994012 
L 481.218684 121.054819 
L 469.771579 116.137709 
L 458.324474 110.025809 
L 446.877368 104.361884 
L 435.430263 98.254877 
L 423.983158 91.96719 
L 412.536053 85.319757 
L 401.088947 77.964245 
L 389.641842 71.242595 
L 378.194737 64.492141 
L 366.747632 57.252361 
L 355.300526 50.886712 
L 343.853421 45.187081 
L 332.406316 40.313198 
L 320.959211 36.929362 
L 309.512105 34.298673 
L 298.065 33.569101 
z
" clip-path="url(#p66dce0a8ca)" style="fill: #2ca02c; fill-opacity: 0.4"/>
   </g>
   <g id="PolyCollection_12">
    <path d="M 298.065 33.569932 
L 298.065 33.570337 
L 309.512105 34.739836 
L 320.959211 38.456706 
L 332.406316 43.349668 
L 343.853421 49.476515 
L 355.300526 56.327938 
L 366.747632 64.098834 
L 378.194737 71.875913 
L 389.641842 80.31896 
L 401.088947 88.623232 
L 412.536053 96.820238 
L 423.983158 104.232645 
L 435.430263 112.015545 
L 446.877368 119.450554 
L 458.324474 126.315889 
L 469.771579 132.586669 
L 481.218684 138.683141 
L 492.665789 143.762089 
L 504.112895 148.93168 
L 515.56 153.558962 
L 515.56 135.549401 
L 515.56 135.549401 
L 504.112895 130.787473 
L 492.665789 126.111997 
L 481.218684 121.088851 
L 469.771579 116.170921 
L 458.324474 110.066243 
L 446.877368 104.373424 
L 435.430263 98.287038 
L 423.983158 91.958413 
L 412.536053 85.321383 
L 401.088947 77.938155 
L 389.641842 71.206809 
L 378.194737 64.461985 
L 366.747632 57.218119 
L 355.300526 50.868978 
L 343.853421 45.177635 
L 332.406316 40.315087 
L 320.959211 36.926391 
L 309.512105 34.298918 
L 298.065 33.569932 
z
" clip-path="url(#p66dce0a8ca)" style="fill: #d62728; fill-opacity: 0.4"/>
   </g>
   <g id="PolyCollection_13">
    <path d="M 298.065 33.569101 
L 298.065 33.569105 
L 309.512105 34.739529 
L 320.959211 38.427234 
L 332.406316 43.347216 
L 343.853421 49.514694 
L 355.300526 56.320745 
L 366.747632 64.254256 
L 378.194737 71.970088 
L 389.641842 80.202753 
L 401.088947 88.663003 
L 412.536053 96.519142 
L 423.983158 103.776047 
L 435.430263 112.050393 
L 446.877368 119.050036 
L 458.324474 125.589499 
L 469.771579 132.669002 
L 481.218684 140.002629 
L 492.665789 142.997331 
L 504.112895 148.211496 
L 515.56 152.750898 
L 515.56 136.180029 
L 515.56 136.180029 
L 504.112895 131.484454 
L 492.665789 127.235611 
L 481.218684 121.722819 
L 469.771579 116.50159 
L 458.324474 110.629867 
L 446.877368 104.875509 
L 435.430263 99.113519 
L 423.983158 92.616575 
L 412.536053 85.676769 
L 401.088947 78.219956 
L 389.641842 71.361283 
L 378.194737 64.661722 
L 366.747632 57.274195 
L 355.300526 50.928117 
L 343.853421 45.207029 
L 332.406316 40.362182 
L 320.959211 36.961849 
L 309.512105 34.304614 
L 298.065 33.569101 
z
" clip-path="url(#p66dce0a8ca)" style="fill: #9467bd; fill-opacity: 0.4"/>
   </g>
   <g id="PolyCollection_14">
    <path d="M 298.065 33.569695 
L 298.065 33.569982 
L 309.512105 34.743715 
L 320.959211 38.434559 
L 332.406316 43.361603 
L 343.853421 49.551723 
L 355.300526 56.356187 
L 366.747632 64.307911 
L 378.194737 72.031324 
L 389.641842 80.312688 
L 401.088947 88.837363 
L 412.536053 96.676408 
L 423.983158 103.978753 
L 435.430263 112.316976 
L 446.877368 119.303832 
L 458.324474 125.843068 
L 469.771579 132.986404 
L 481.218684 140.35153 
L 492.665789 143.357917 
L 504.112895 148.560063 
L 515.56 153.135726 
L 515.56 136.102561 
L 515.56 136.102561 
L 504.112895 131.344279 
L 492.665789 127.077788 
L 481.218684 121.568724 
L 469.771579 116.307501 
L 458.324474 110.473624 
L 446.877368 104.70176 
L 435.430263 98.991852 
L 423.983158 92.492657 
L 412.536053 85.602069 
L 401.088947 78.115708 
L 389.641842 71.283867 
L 378.194737 64.608187 
L 366.747632 57.255851 
L 355.300526 50.913649 
L 343.853421 45.212266 
L 332.406316 40.367397 
L 320.959211 36.965501 
L 309.512105 34.305905 
L 298.065 33.569695 
z
" clip-path="url(#p66dce0a8ca)" style="fill: #8c564b; fill-opacity: 0.4"/>
   </g>
   <g id="PolyCollection_15">
    <path d="M 298.065 45.833829 
L 298.065 50.425801 
L 309.512105 51.187104 
L 320.959211 53.992559 
L 332.406316 57.749719 
L 343.853421 63.200464 
L 355.300526 68.843979 
L 366.747632 76.406759 
L 378.194737 83.834806 
L 389.641842 91.891309 
L 401.088947 99.660385 
L 412.536053 107.748277 
L 423.983158 114.845308 
L 435.430263 122.07625 
L 446.877368 129.191274 
L 458.324474 135.243025 
L 469.771579 141.500503 
L 481.218684 146.932022 
L 492.665789 151.770311 
L 504.112895 156.34596 
L 515.56 160.468827 
L 515.56 143.28319 
L 515.56 143.28319 
L 504.112895 138.976602 
L 492.665789 134.020714 
L 481.218684 129.681116 
L 469.771579 124.763681 
L 458.324474 118.850018 
L 446.877368 113.559551 
L 435.430263 107.587687 
L 423.983158 101.950707 
L 412.536053 95.641704 
L 401.088947 89.017343 
L 389.641842 82.919643 
L 378.194737 76.829052 
L 366.747632 70.0795 
L 355.300526 64.316472 
L 343.853421 58.400005 
L 332.406316 53.599497 
L 320.959211 49.763889 
L 309.512105 46.796583 
L 298.065 45.833829 
z
" clip-path="url(#p66dce0a8ca)" style="fill: #e377c2; fill-opacity: 0.4"/>
   </g>
   <g id="PolyCollection_16">
    <path d="M 298.065 33.56935 
L 298.065 33.569555 
L 309.512105 34.737742 
L 320.959211 38.454588 
L 332.406316 43.362086 
L 343.853421 49.493612 
L 355.300526 56.338133 
L 366.747632 64.089226 
L 378.194737 71.905548 
L 389.641842 80.359567 
L 401.088947 88.613434 
L 412.536053 96.780099 
L 423.983158 104.221354 
L 435.430263 112.010395 
L 446.877368 119.394679 
L 458.324474 126.233331 
L 469.771579 132.463444 
L 481.218684 138.640302 
L 492.665789 143.659934 
L 504.112895 148.723501 
L 515.56 153.314136 
L 515.56 136.708399 
L 515.56 136.708399 
L 504.112895 131.815617 
L 492.665789 126.906384 
L 481.218684 121.749504 
L 469.771579 116.729642 
L 458.324474 110.399977 
L 446.877368 104.66103 
L 435.430263 98.463058 
L 423.983158 92.119234 
L 412.536053 85.420782 
L 401.088947 77.998535 
L 389.641842 71.268395 
L 378.194737 64.526523 
L 366.747632 57.280244 
L 355.300526 50.905459 
L 343.853421 45.207827 
L 332.406316 40.332737 
L 320.959211 36.941922 
L 309.512105 34.301996 
L 298.065 33.56935 
z
" clip-path="url(#p66dce0a8ca)" style="fill: #7f7f7f; fill-opacity: 0.4"/>
   </g>
   <g id="matplotlib.axis_3">
    <g id="xtick_6">
     <g id="line2d_18">
      <g>
       <use xlink:href="#m6668873b23" x="298.065" y="174.04" style="stroke: #000000; stroke-width: 0.8"/>
      </g>
     </g>
     <g id="text_13">
      <!-- 0.0 -->
      <g transform="translate(290.113437 188.638438)scale(0.1 -0.1)">
       <use xlink:href="#DejaVuSans-30"/>
       <use xlink:href="#DejaVuSans-2e" x="63.623047"/>
       <use xlink:href="#DejaVuSans-30" x="95.410156"/>
      </g>
     </g>
    </g>
    <g id="xtick_7">
     <g id="line2d_19">
      <g>
       <use xlink:href="#m6668873b23" x="352.43875" y="174.04" style="stroke: #000000; stroke-width: 0.8"/>
      </g>
     </g>
     <g id="text_14">
      <!-- 0.5 -->
      <g transform="translate(344.487187 188.638438)scale(0.1 -0.1)">
       <use xlink:href="#DejaVuSans-30"/>
       <use xlink:href="#DejaVuSans-2e" x="63.623047"/>
       <use xlink:href="#DejaVuSans-35" x="95.410156"/>
      </g>
     </g>
    </g>
    <g id="xtick_8">
     <g id="line2d_20">
      <g>
       <use xlink:href="#m6668873b23" x="406.8125" y="174.04" style="stroke: #000000; stroke-width: 0.8"/>
      </g>
     </g>
     <g id="text_15">
      <!-- 1.0 -->
      <g transform="translate(398.860937 188.638438)scale(0.1 -0.1)">
       <use xlink:href="#DejaVuSans-31"/>
       <use xlink:href="#DejaVuSans-2e" x="63.623047"/>
       <use xlink:href="#DejaVuSans-30" x="95.410156"/>
      </g>
     </g>
    </g>
    <g id="xtick_9">
     <g id="line2d_21">
      <g>
       <use xlink:href="#m6668873b23" x="461.18625" y="174.04" style="stroke: #000000; stroke-width: 0.8"/>
      </g>
     </g>
     <g id="text_16">
      <!-- 1.5 -->
      <g transform="translate(453.234687 188.638438)scale(0.1 -0.1)">
       <use xlink:href="#DejaVuSans-31"/>
       <use xlink:href="#DejaVuSans-2e" x="63.623047"/>
       <use xlink:href="#DejaVuSans-35" x="95.410156"/>
      </g>
     </g>
    </g>
    <g id="xtick_10">
     <g id="line2d_22">
      <g>
       <use xlink:href="#m6668873b23" x="515.56" y="174.04" style="stroke: #000000; stroke-width: 0.8"/>
      </g>
     </g>
     <g id="text_17">
      <!-- 2.0 -->
      <g transform="translate(507.608437 188.638438)scale(0.1 -0.1)">
       <use xlink:href="#DejaVuSans-32"/>
       <use xlink:href="#DejaVuSans-2e" x="63.623047"/>
       <use xlink:href="#DejaVuSans-30" x="95.410156"/>
      </g>
     </g>
    </g>
    <g id="text_18">
     <!-- Influence of surprisal (multiplication) -->
     <g transform="translate(314.665625 202.316563)scale(0.1 -0.1)">
      <use xlink:href="#DejaVuSans-49"/>
      <use xlink:href="#DejaVuSans-6e" x="29.492188"/>
      <use xlink:href="#DejaVuSans-66" x="92.871094"/>
      <use xlink:href="#DejaVuSans-6c" x="128.076172"/>
      <use xlink:href="#DejaVuSans-75" x="155.859375"/>
      <use xlink:href="#DejaVuSans-65" x="219.238281"/>
      <use xlink:href="#DejaVuSans-6e" x="280.761719"/>
      <use xlink:href="#DejaVuSans-63" x="344.140625"/>
      <use xlink:href="#DejaVuSans-65" x="399.121094"/>
      <use xlink:href="#DejaVuSans-20" x="460.644531"/>
      <use xlink:href="#DejaVuSans-6f" x="492.431641"/>
      <use xlink:href="#DejaVuSans-66" x="553.613281"/>
      <use xlink:href="#DejaVuSans-20" x="588.818359"/>
      <use xlink:href="#DejaVuSans-73" x="620.605469"/>
      <use xlink:href="#DejaVuSans-75" x="672.705078"/>
      <use xlink:href="#DejaVuSans-72" x="736.083984"/>
      <use xlink:href="#DejaVuSans-70" x="777.197266"/>
      <use xlink:href="#DejaVuSans-72" x="840.673828"/>
      <use xlink:href="#DejaVuSans-69" x="881.787109"/>
      <use xlink:href="#DejaVuSans-73" x="909.570312"/>
      <use xlink:href="#DejaVuSans-61" x="961.669922"/>
      <use xlink:href="#DejaVuSans-6c" x="1022.949219"/>
      <use xlink:href="#DejaVuSans-20" x="1050.732422"/>
      <use xlink:href="#DejaVuSans-28" x="1082.519531"/>
      <use xlink:href="#DejaVuSans-6d" x="1121.533203"/>
      <use xlink:href="#DejaVuSans-75" x="1218.945312"/>
      <use xlink:href="#DejaVuSans-6c" x="1282.324219"/>
      <use xlink:href="#DejaVuSans-74" x="1310.107422"/>
      <use xlink:href="#DejaVuSans-69" x="1349.316406"/>
      <use xlink:href="#DejaVuSans-70" x="1377.099609"/>
      <use xlink:href="#DejaVuSans-6c" x="1440.576172"/>
      <use xlink:href="#DejaVuSans-69" x="1468.359375"/>
      <use xlink:href="#DejaVuSans-63" x="1496.142578"/>
      <use xlink:href="#DejaVuSans-61" x="1551.123047"/>
      <use xlink:href="#DejaVuSans-74" x="1612.402344"/>
      <use xlink:href="#DejaVuSans-69" x="1651.611328"/>
      <use xlink:href="#DejaVuSans-6f" x="1679.394531"/>
      <use xlink:href="#DejaVuSans-6e" x="1740.576172"/>
      <use xlink:href="#DejaVuSans-29" x="1803.955078"/>
     </g>
    </g>
   </g>
   <g id="line2d_23">
    <path d="M 298.065 33.569091 
L 309.512105 34.518891 
L 320.959211 37.694739 
L 332.406316 41.838301 
L 343.853421 47.334448 
L 355.300526 53.623976 
L 366.747632 60.677735 
L 378.194737 68.201528 
L 389.641842 75.78302 
L 401.088947 83.262251 
L 412.536053 91.032136 
L 423.983158 98.0763 
L 435.430263 105.081594 
L 446.877368 111.871561 
L 458.324474 118.117447 
L 469.771579 124.300839 
L 481.218684 129.77741 
L 492.665789 134.691965 
L 504.112895 139.567575 
L 515.56 144.17878 
" clip-path="url(#p66dce0a8ca)" style="fill: none; stroke: #1f77b4; stroke-width: 1.5; stroke-linecap: square"/>
   </g>
   <g id="line2d_24">
    <path d="M 298.065 33.569275 
L 309.512105 34.520719 
L 320.959211 37.699573 
L 332.406316 41.847784 
L 343.853421 47.353335 
L 355.300526 53.635615 
L 366.747632 60.695672 
L 378.194737 68.208158 
L 389.641842 75.801123 
L 401.088947 83.299795 
L 412.536053 91.068901 
L 423.983158 98.116986 
L 435.430263 105.145359 
L 446.877368 111.90256 
L 458.324474 118.15526 
L 469.771579 124.354248 
L 481.218684 129.860942 
L 492.665789 134.812875 
L 504.112895 139.687431 
L 515.56 144.316722 
" clip-path="url(#p66dce0a8ca)" style="fill: none; stroke: #ff7f0e; stroke-width: 1.5; stroke-linecap: square"/>
   </g>
   <g id="line2d_25">
    <path d="M 298.065 33.569103 
L 309.512105 34.515873 
L 320.959211 37.689478 
L 332.406316 41.820889 
L 343.853421 47.314034 
L 355.300526 53.57765 
L 366.747632 60.630133 
L 378.194737 68.13149 
L 389.641842 75.711076 
L 401.088947 83.186722 
L 412.536053 90.962186 
L 423.983158 97.990865 
L 435.430263 105.009784 
L 446.877368 111.772557 
L 458.324474 118.034863 
L 469.771579 124.170618 
L 481.218684 129.662369 
L 492.665789 134.652034 
L 504.112895 139.506799 
L 515.56 144.218721 
" clip-path="url(#p66dce0a8ca)" style="fill: none; stroke: #2ca02c; stroke-width: 1.5; stroke-linecap: square"/>
   </g>
   <g id="line2d_26">
    <path d="M 298.065 33.570135 
L 309.512105 34.519377 
L 320.959211 37.691548 
L 332.406316 41.832378 
L 343.853421 47.327075 
L 355.300526 53.598458 
L 366.747632 60.658476 
L 378.194737 68.168949 
L 389.641842 75.762885 
L 401.088947 83.280694 
L 412.536053 91.070811 
L 423.983158 98.095529 
L 435.430263 105.151292 
L 446.877368 111.911989 
L 458.324474 118.191066 
L 469.771579 124.378795 
L 481.218684 129.885996 
L 492.665789 134.937043 
L 504.112895 139.859576 
L 515.56 144.554181 
" clip-path="url(#p66dce0a8ca)" style="fill: none; stroke: #d62728; stroke-width: 1.5; stroke-linecap: square"/>
   </g>
   <g id="line2d_27">
    <path d="M 298.065 33.569103 
L 309.512105 34.522071 
L 320.959211 37.694542 
L 332.406316 41.854699 
L 343.853421 47.360862 
L 355.300526 53.624431 
L 366.747632 60.764225 
L 378.194737 68.315905 
L 389.641842 75.782018 
L 401.088947 83.44148 
L 412.536053 91.097955 
L 423.983158 98.196311 
L 435.430263 105.581956 
L 446.877368 111.962773 
L 458.324474 118.109683 
L 469.771579 124.585296 
L 481.218684 130.862724 
L 492.665789 135.116471 
L 504.112895 139.847975 
L 515.56 144.465464 
" clip-path="url(#p66dce0a8ca)" style="fill: none; stroke: #9467bd; stroke-width: 1.5; stroke-linecap: square"/>
   </g>
   <g id="line2d_28">
    <path d="M 298.065 33.569839 
L 309.512105 34.52481 
L 320.959211 37.70003 
L 332.406316 41.8645 
L 343.853421 47.381995 
L 355.300526 53.634918 
L 366.747632 60.781881 
L 378.194737 68.319755 
L 389.641842 75.798277 
L 401.088947 83.476535 
L 412.536053 91.139239 
L 423.983158 98.235705 
L 435.430263 105.654414 
L 446.877368 112.002796 
L 458.324474 118.158346 
L 469.771579 124.646952 
L 481.218684 130.960127 
L 492.665789 135.217852 
L 504.112895 139.952171 
L 515.56 144.619144 
" clip-path="url(#p66dce0a8ca)" style="fill: none; stroke: #8c564b; stroke-width: 1.5; stroke-linecap: square"/>
   </g>
   <g id="line2d_29">
    <path d="M 298.065 48.129815 
L 309.512105 48.991843 
L 320.959211 51.878224 
L 332.406316 55.674608 
L 343.853421 60.800234 
L 355.300526 66.580226 
L 366.747632 73.243129 
L 378.194737 80.331929 
L 389.641842 87.405476 
L 401.088947 94.338864 
L 412.536053 101.694991 
L 423.983158 108.398007 
L 435.430263 114.831968 
L 446.877368 121.375412 
L 458.324474 127.046522 
L 469.771579 133.132092 
L 481.218684 138.306569 
L 492.665789 142.895513 
L 504.112895 147.661281 
L 515.56 151.876009 
" clip-path="url(#p66dce0a8ca)" style="fill: none; stroke: #e377c2; stroke-width: 1.5; stroke-linecap: square"/>
   </g>
   <g id="line2d_30">
    <path d="M 298.065 33.569453 
L 309.512105 34.519869 
L 320.959211 37.698255 
L 332.406316 41.847412 
L 343.853421 47.350719 
L 355.300526 53.621796 
L 366.747632 60.684735 
L 378.194737 68.216036 
L 389.641842 75.813981 
L 401.088947 83.305985 
L 412.536053 91.100441 
L 423.983158 98.170294 
L 435.430263 105.236727 
L 446.877368 112.027854 
L 458.324474 118.316654 
L 469.771579 124.596543 
L 481.218684 130.194903 
L 492.665789 135.283159 
L 504.112895 140.269559 
L 515.56 145.011268 
" clip-path="url(#p66dce0a8ca)" style="fill: none; stroke: #7f7f7f; stroke-width: 1.5; stroke-linecap: square"/>
   </g>
   <g id="patch_6">
    <path d="M 298.065 174.04 
L 298.065 26.88 
" style="fill: none; stroke: #000000; stroke-width: 0.8; stroke-linejoin: miter; stroke-linecap: square"/>
   </g>
   <g id="patch_7">
    <path d="M 298.065 174.04 
L 515.56 174.04 
" style="fill: none; stroke: #000000; stroke-width: 0.8; stroke-linejoin: miter; stroke-linecap: square"/>
   </g>
   <g id="text_19">
    <!-- Node * third variable -->
    <g transform="translate(344.2325 20.88)scale(0.12 -0.12)">
     <defs>
      <path id="DejaVuSans-68" d="M 3513 2113 
L 3513 0 
L 2938 0 
L 2938 2094 
Q 2938 2591 2744 2837 
Q 2550 3084 2163 3084 
Q 1697 3084 1428 2787 
Q 1159 2491 1159 1978 
L 1159 0 
L 581 0 
L 581 4863 
L 1159 4863 
L 1159 2956 
Q 1366 3272 1645 3428 
Q 1925 3584 2291 3584 
Q 2894 3584 3203 3211 
Q 3513 2838 3513 2113 
z
" transform="scale(0.015625)"/>
      <path id="DejaVuSans-62" d="M 3116 1747 
Q 3116 2381 2855 2742 
Q 2594 3103 2138 3103 
Q 1681 3103 1420 2742 
Q 1159 2381 1159 1747 
Q 1159 1113 1420 752 
Q 1681 391 2138 391 
Q 2594 391 2855 752 
Q 3116 1113 3116 1747 
z
M 1159 2969 
Q 1341 3281 1617 3432 
Q 1894 3584 2278 3584 
Q 2916 3584 3314 3078 
Q 3713 2572 3713 1747 
Q 3713 922 3314 415 
Q 2916 -91 2278 -91 
Q 1894 -91 1617 61 
Q 1341 213 1159 525 
L 1159 0 
L 581 0 
L 581 4863 
L 1159 4863 
L 1159 2969 
z
" transform="scale(0.015625)"/>
     </defs>
     <use xlink:href="#DejaVuSans-4e"/>
     <use xlink:href="#DejaVuSans-6f" x="74.804688"/>
     <use xlink:href="#DejaVuSans-64" x="135.986328"/>
     <use xlink:href="#DejaVuSans-65" x="199.462891"/>
     <use xlink:href="#DejaVuSans-20" x="260.986328"/>
     <use xlink:href="#DejaVuSans-2a" x="292.773438"/>
     <use xlink:href="#DejaVuSans-20" x="342.773438"/>
     <use xlink:href="#DejaVuSans-74" x="374.560547"/>
     <use xlink:href="#DejaVuSans-68" x="413.769531"/>
     <use xlink:href="#DejaVuSans-69" x="477.148438"/>
     <use xlink:href="#DejaVuSans-72" x="504.931641"/>
     <use xlink:href="#DejaVuSans-64" x="544.294922"/>
     <use xlink:href="#DejaVuSans-20" x="607.771484"/>
     <use xlink:href="#DejaVuSans-76" x="639.558594"/>
     <use xlink:href="#DejaVuSans-61" x="698.738281"/>
     <use xlink:href="#DejaVuSans-72" x="760.017578"/>
     <use xlink:href="#DejaVuSans-69" x="801.130859"/>
     <use xlink:href="#DejaVuSans-61" x="828.914062"/>
     <use xlink:href="#DejaVuSans-62" x="890.193359"/>
     <use xlink:href="#DejaVuSans-6c" x="953.669922"/>
     <use xlink:href="#DejaVuSans-65" x="981.453125"/>
    </g>
   </g>
   <g id="legend_1">
    <g id="line2d_31">
     <path d="M 524.56 39.978437 
L 534.56 39.978437 
L 544.56 39.978437 
" style="fill: none; stroke: #1f77b4; stroke-width: 1.5; stroke-linecap: square"/>
    </g>
    <g id="text_20">
     <!-- Node -->
     <g transform="translate(552.56 43.478437)scale(0.1 -0.1)">
      <use xlink:href="#DejaVuSans-4e"/>
      <use xlink:href="#DejaVuSans-6f" x="74.804688"/>
      <use xlink:href="#DejaVuSans-64" x="135.986328"/>
      <use xlink:href="#DejaVuSans-65" x="199.462891"/>
     </g>
    </g>
    <g id="line2d_32">
     <path d="M 524.56 54.656563 
L 534.56 54.656563 
L 544.56 54.656563 
" style="fill: none; stroke: #ff7f0e; stroke-width: 1.5; stroke-linecap: square"/>
    </g>
    <g id="text_21">
     <!-- Node + surprisal -->
     <g transform="translate(552.56 58.156563)scale(0.1 -0.1)">
      <defs>
       <path id="DejaVuSans-2b" d="M 2944 4013 
L 2944 2272 
L 4684 2272 
L 4684 1741 
L 2944 1741 
L 2944 0 
L 2419 0 
L 2419 1741 
L 678 1741 
L 678 2272 
L 2419 2272 
L 2419 4013 
L 2944 4013 
z
" transform="scale(0.015625)"/>
      </defs>
      <use xlink:href="#DejaVuSans-4e"/>
      <use xlink:href="#DejaVuSans-6f" x="74.804688"/>
      <use xlink:href="#DejaVuSans-64" x="135.986328"/>
      <use xlink:href="#DejaVuSans-65" x="199.462891"/>
      <use xlink:href="#DejaVuSans-20" x="260.986328"/>
      <use xlink:href="#DejaVuSans-2b" x="292.773438"/>
      <use xlink:href="#DejaVuSans-20" x="376.5625"/>
      <use xlink:href="#DejaVuSans-73" x="408.349609"/>
      <use xlink:href="#DejaVuSans-75" x="460.449219"/>
      <use xlink:href="#DejaVuSans-72" x="523.828125"/>
      <use xlink:href="#DejaVuSans-70" x="564.941406"/>
      <use xlink:href="#DejaVuSans-72" x="628.417969"/>
      <use xlink:href="#DejaVuSans-69" x="669.53125"/>
      <use xlink:href="#DejaVuSans-73" x="697.314453"/>
      <use xlink:href="#DejaVuSans-61" x="749.414062"/>
      <use xlink:href="#DejaVuSans-6c" x="810.693359"/>
     </g>
    </g>
    <g id="line2d_33">
     <path d="M 524.56 69.334687 
L 534.56 69.334687 
L 544.56 69.334687 
" style="fill: none; stroke: #2ca02c; stroke-width: 1.5; stroke-linecap: square"/>
    </g>
    <g id="text_22">
     <!-- Node split -->
     <g transform="translate(552.56 72.834687)scale(0.1 -0.1)">
      <use xlink:href="#DejaVuSans-4e"/>
      <use xlink:href="#DejaVuSans-6f" x="74.804688"/>
      <use xlink:href="#DejaVuSans-64" x="135.986328"/>
      <use xlink:href="#DejaVuSans-65" x="199.462891"/>
      <use xlink:href="#DejaVuSans-20" x="260.986328"/>
      <use xlink:href="#DejaVuSans-73" x="292.773438"/>
      <use xlink:href="#DejaVuSans-70" x="344.873047"/>
      <use xlink:href="#DejaVuSans-6c" x="408.349609"/>
      <use xlink:href="#DejaVuSans-69" x="436.132812"/>
      <use xlink:href="#DejaVuSans-74" x="463.916016"/>
     </g>
    </g>
    <g id="line2d_34">
     <path d="M 524.56 84.012812 
L 534.56 84.012812 
L 544.56 84.012812 
" style="fill: none; stroke: #d62728; stroke-width: 1.5; stroke-linecap: square"/>
    </g>
    <g id="text_23">
     <!-- Node split + surprisal -->
     <g transform="translate(552.56 87.512812)scale(0.1 -0.1)">
      <use xlink:href="#DejaVuSans-4e"/>
      <use xlink:href="#DejaVuSans-6f" x="74.804688"/>
      <use xlink:href="#DejaVuSans-64" x="135.986328"/>
      <use xlink:href="#DejaVuSans-65" x="199.462891"/>
      <use xlink:href="#DejaVuSans-20" x="260.986328"/>
      <use xlink:href="#DejaVuSans-73" x="292.773438"/>
      <use xlink:href="#DejaVuSans-70" x="344.873047"/>
      <use xlink:href="#DejaVuSans-6c" x="408.349609"/>
      <use xlink:href="#DejaVuSans-69" x="436.132812"/>
      <use xlink:href="#DejaVuSans-74" x="463.916016"/>
      <use xlink:href="#DejaVuSans-20" x="503.125"/>
      <use xlink:href="#DejaVuSans-2b" x="534.912109"/>
      <use xlink:href="#DejaVuSans-20" x="618.701172"/>
      <use xlink:href="#DejaVuSans-73" x="650.488281"/>
      <use xlink:href="#DejaVuSans-75" x="702.587891"/>
      <use xlink:href="#DejaVuSans-72" x="765.966797"/>
      <use xlink:href="#DejaVuSans-70" x="807.080078"/>
      <use xlink:href="#DejaVuSans-72" x="870.556641"/>
      <use xlink:href="#DejaVuSans-69" x="911.669922"/>
      <use xlink:href="#DejaVuSans-73" x="939.453125"/>
      <use xlink:href="#DejaVuSans-61" x="991.552734"/>
      <use xlink:href="#DejaVuSans-6c" x="1052.832031"/>
     </g>
    </g>
    <g id="line2d_35">
     <path d="M 524.56 98.690937 
L 534.56 98.690937 
L 544.56 98.690937 
" style="fill: none; stroke: #9467bd; stroke-width: 1.5; stroke-linecap: square"/>
    </g>
    <g id="text_24">
     <!-- Node random split -->
     <g transform="translate(552.56 102.190937)scale(0.1 -0.1)">
      <use xlink:href="#DejaVuSans-4e"/>
      <use xlink:href="#DejaVuSans-6f" x="74.804688"/>
      <use xlink:href="#DejaVuSans-64" x="135.986328"/>
      <use xlink:href="#DejaVuSans-65" x="199.462891"/>
      <use xlink:href="#DejaVuSans-20" x="260.986328"/>
      <use xlink:href="#DejaVuSans-72" x="292.773438"/>
      <use xlink:href="#DejaVuSans-61" x="333.886719"/>
      <use xlink:href="#DejaVuSans-6e" x="395.166016"/>
      <use xlink:href="#DejaVuSans-64" x="458.544922"/>
      <use xlink:href="#DejaVuSans-6f" x="522.021484"/>
      <use xlink:href="#DejaVuSans-6d" x="583.203125"/>
      <use xlink:href="#DejaVuSans-20" x="680.615234"/>
      <use xlink:href="#DejaVuSans-73" x="712.402344"/>
      <use xlink:href="#DejaVuSans-70" x="764.501953"/>
      <use xlink:href="#DejaVuSans-6c" x="827.978516"/>
      <use xlink:href="#DejaVuSans-69" x="855.761719"/>
      <use xlink:href="#DejaVuSans-74" x="883.544922"/>
     </g>
    </g>
    <g id="line2d_36">
     <path d="M 524.56 113.369062 
L 534.56 113.369062 
L 544.56 113.369062 
" style="fill: none; stroke: #8c564b; stroke-width: 1.5; stroke-linecap: square"/>
    </g>
    <g id="text_25">
     <!-- Node random split + surprisal -->
     <g transform="translate(552.56 116.869062)scale(0.1 -0.1)">
      <use xlink:href="#DejaVuSans-4e"/>
      <use xlink:href="#DejaVuSans-6f" x="74.804688"/>
      <use xlink:href="#DejaVuSans-64" x="135.986328"/>
      <use xlink:href="#DejaVuSans-65" x="199.462891"/>
      <use xlink:href="#DejaVuSans-20" x="260.986328"/>
      <use xlink:href="#DejaVuSans-72" x="292.773438"/>
      <use xlink:href="#DejaVuSans-61" x="333.886719"/>
      <use xlink:href="#DejaVuSans-6e" x="395.166016"/>
      <use xlink:href="#DejaVuSans-64" x="458.544922"/>
      <use xlink:href="#DejaVuSans-6f" x="522.021484"/>
      <use xlink:href="#DejaVuSans-6d" x="583.203125"/>
      <use xlink:href="#DejaVuSans-20" x="680.615234"/>
      <use xlink:href="#DejaVuSans-73" x="712.402344"/>
      <use xlink:href="#DejaVuSans-70" x="764.501953"/>
      <use xlink:href="#DejaVuSans-6c" x="827.978516"/>
      <use xlink:href="#DejaVuSans-69" x="855.761719"/>
      <use xlink:href="#DejaVuSans-74" x="883.544922"/>
      <use xlink:href="#DejaVuSans-20" x="922.753906"/>
      <use xlink:href="#DejaVuSans-2b" x="954.541016"/>
      <use xlink:href="#DejaVuSans-20" x="1038.330078"/>
      <use xlink:href="#DejaVuSans-73" x="1070.117188"/>
      <use xlink:href="#DejaVuSans-75" x="1122.216797"/>
      <use xlink:href="#DejaVuSans-72" x="1185.595703"/>
      <use xlink:href="#DejaVuSans-70" x="1226.708984"/>
      <use xlink:href="#DejaVuSans-72" x="1290.185547"/>
      <use xlink:href="#DejaVuSans-69" x="1331.298828"/>
      <use xlink:href="#DejaVuSans-73" x="1359.082031"/>
      <use xlink:href="#DejaVuSans-61" x="1411.181641"/>
      <use xlink:href="#DejaVuSans-6c" x="1472.460938"/>
     </g>
    </g>
    <g id="line2d_37">
     <path d="M 524.56 128.047187 
L 534.56 128.047187 
L 544.56 128.047187 
" style="fill: none; stroke: #e377c2; stroke-width: 1.5; stroke-linecap: square"/>
    </g>
    <g id="text_26">
     <!-- Interaction -->
     <g transform="translate(552.56 131.547187)scale(0.1 -0.1)">
      <use xlink:href="#DejaVuSans-49"/>
      <use xlink:href="#DejaVuSans-6e" x="29.492188"/>
      <use xlink:href="#DejaVuSans-74" x="92.871094"/>
      <use xlink:href="#DejaVuSans-65" x="132.080078"/>
      <use xlink:href="#DejaVuSans-72" x="193.603516"/>
      <use xlink:href="#DejaVuSans-61" x="234.716797"/>
      <use xlink:href="#DejaVuSans-63" x="295.996094"/>
      <use xlink:href="#DejaVuSans-74" x="350.976562"/>
      <use xlink:href="#DejaVuSans-69" x="390.185547"/>
      <use xlink:href="#DejaVuSans-6f" x="417.96875"/>
      <use xlink:href="#DejaVuSans-6e" x="479.150391"/>
     </g>
    </g>
    <g id="line2d_38">
     <path d="M 524.56 142.725312 
L 534.56 142.725312 
L 544.56 142.725312 
" style="fill: none; stroke: #7f7f7f; stroke-width: 1.5; stroke-linecap: square"/>
    </g>
    <g id="text_27">
     <!-- Node + surprisal + interaction -->
     <g transform="translate(552.56 146.225312)scale(0.1 -0.1)">
      <use xlink:href="#DejaVuSans-4e"/>
      <use xlink:href="#DejaVuSans-6f" x="74.804688"/>
      <use xlink:href="#DejaVuSans-64" x="135.986328"/>
      <use xlink:href="#DejaVuSans-65" x="199.462891"/>
      <use xlink:href="#DejaVuSans-20" x="260.986328"/>
      <use xlink:href="#DejaVuSans-2b" x="292.773438"/>
      <use xlink:href="#DejaVuSans-20" x="376.5625"/>
      <use xlink:href="#DejaVuSans-73" x="408.349609"/>
      <use xlink:href="#DejaVuSans-75" x="460.449219"/>
      <use xlink:href="#DejaVuSans-72" x="523.828125"/>
      <use xlink:href="#DejaVuSans-70" x="564.941406"/>
      <use xlink:href="#DejaVuSans-72" x="628.417969"/>
      <use xlink:href="#DejaVuSans-69" x="669.53125"/>
      <use xlink:href="#DejaVuSans-73" x="697.314453"/>
      <use xlink:href="#DejaVuSans-61" x="749.414062"/>
      <use xlink:href="#DejaVuSans-6c" x="810.693359"/>
      <use xlink:href="#DejaVuSans-20" x="838.476562"/>
      <use xlink:href="#DejaVuSans-2b" x="870.263672"/>
      <use xlink:href="#DejaVuSans-20" x="954.052734"/>
      <use xlink:href="#DejaVuSans-69" x="985.839844"/>
      <use xlink:href="#DejaVuSans-6e" x="1013.623047"/>
      <use xlink:href="#DejaVuSans-74" x="1077.001953"/>
      <use xlink:href="#DejaVuSans-65" x="1116.210938"/>
      <use xlink:href="#DejaVuSans-72" x="1177.734375"/>
      <use xlink:href="#DejaVuSans-61" x="1218.847656"/>
      <use xlink:href="#DejaVuSans-63" x="1280.126953"/>
      <use xlink:href="#DejaVuSans-74" x="1335.107422"/>
      <use xlink:href="#DejaVuSans-69" x="1374.316406"/>
      <use xlink:href="#DejaVuSans-6f" x="1402.099609"/>
      <use xlink:href="#DejaVuSans-6e" x="1463.28125"/>
     </g>
    </g>
   </g>
  </g>
 </g>
 <defs>
  <clipPath id="p873799e3eb">
   <rect x="47.72" y="26.88" width="217.495" height="147.16"/>
  </clipPath>
  <clipPath id="p66dce0a8ca">
   <rect x="298.065" y="26.88" width="217.495" height="147.16"/>
  </clipPath>
 </defs>
</svg>
