<?xml version="1.0" encoding="utf-8" standalone="no"?>
<!DOCTYPE svg PUBLIC "-//W3C//DTD SVG 1.1//EN"
  "http://www.w3.org/Graphics/SVG/1.1/DTD/svg11.dtd">
<svg xmlns:xlink="http://www.w3.org/1999/xlink" width="720pt" height="216pt" viewBox="0 0 720 216" xmlns="http://www.w3.org/2000/svg" version="1.1">
 <metadata>
  <rdf:RDF xmlns:dc="http://purl.org/dc/elements/1.1/" xmlns:cc="http://creativecommons.org/ns#" xmlns:rdf="http://www.w3.org/1999/02/22-rdf-syntax-ns#">
   <cc:Work>
    <dc:type rdf:resource="http://purl.org/dc/dcmitype/StillImage"/>
    <dc:date>2024-01-16T02:54:03.687989</dc:date>
    <dc:format>image/svg+xml</dc:format>
    <dc:creator>
     <cc:Agent>
      <dc:title>Matplotlib v3.5.1, https://matplotlib.org/</dc:title>
     </cc:Agent>
    </dc:creator>
   </cc:Work>
  </rdf:RDF>
 </metadata>
 <defs>
  <style type="text/css">*{stroke-linejoin: round; stroke-linecap: butt}</style>
 </defs>
 <g id="figure_1">
  <g id="patch_1">
   <path d="M 0 216 
L 720 216 
L 720 0 
L 0 0 
z
" style="fill: #ffffff"/>
  </g>
  <g id="axes_1">
   <g id="patch_2">
    <path d="M 47.72 174.04 
L 265.215 174.04 
L 265.215 26.88 
L 47.72 26.88 
z
" style="fill: #ffffff"/>
   </g>
   <g id="PolyCollection_1">
    <path d="M 47.72 33.569091 
L 47.72 33.569092 
L 59.167105 34.908572 
L 70.614211 38.269487 
L 82.061316 43.321538 
L 93.508421 49.504625 
L 104.955526 56.321966 
L 116.402632 63.469788 
L 127.849737 71.059371 
L 139.296842 78.406736 
L 150.743947 86.035752 
L 162.191053 93.911746 
L 173.638158 102.159367 
L 185.085263 109.42505 
L 196.532368 116.897585 
L 207.979474 124.116171 
L 219.426579 130.53807 
L 230.873684 136.206915 
L 242.320789 141.580883 
L 253.767895 146.413066 
L 265.215 150.899138 
L 265.215 135.721157 
L 265.215 135.721157 
L 253.767895 131.125739 
L 242.320789 126.239784 
L 230.873684 121.406666 
L 219.426579 115.38204 
L 207.979474 109.764369 
L 196.532368 104.080062 
L 185.085263 97.935309 
L 173.638158 91.37208 
L 162.191053 85.022554 
L 150.743947 78.431238 
L 139.296842 71.100868 
L 127.849737 64.134634 
L 116.402632 57.166065 
L 104.955526 50.567503 
L 93.508421 44.883042 
L 82.061316 40.28488 
L 70.614211 36.82932 
L 59.167105 34.375945 
L 47.72 33.569091 
z
" clip-path="url(#p8712f36433)" style="fill: #1f77b4; fill-opacity: 0.4"/>
   </g>
   <g id="PolyCollection_2">
    <path d="M 47.72 33.569229 
L 47.72 33.569273 
L 59.167105 34.403597 
L 70.614211 36.282758 
L 82.061316 39.342088 
L 93.508421 43.248821 
L 104.955526 48.104887 
L 116.402632 53.336758 
L 127.849737 59.445235 
L 139.296842 64.890288 
L 150.743947 70.952056 
L 162.191053 77.14733 
L 173.638158 83.910173 
L 185.085263 89.946299 
L 196.532368 96.248806 
L 207.979474 102.212224 
L 219.426579 108.939403 
L 230.873684 114.972436 
L 242.320789 120.215966 
L 253.767895 125.813362 
L 265.215 131.081932 
L 265.215 119.344358 
L 265.215 119.344358 
L 253.767895 114.320963 
L 242.320789 109.335892 
L 230.873684 104.153218 
L 219.426579 98.520412 
L 207.979474 93.069353 
L 196.532368 87.039753 
L 185.085263 80.871727 
L 173.638158 74.936207 
L 162.191053 69.07253 
L 150.743947 63.344029 
L 139.296842 57.441779 
L 127.849737 52.101571 
L 116.402632 47.395718 
L 104.955526 43.070797 
L 93.508421 39.703474 
L 82.061316 37.087592 
L 70.614211 35.353272 
L 59.167105 34.091461 
L 47.72 33.569229 
z
" clip-path="url(#p8712f36433)" style="fill: #ff7f0e; fill-opacity: 0.4"/>
   </g>
   <g id="PolyCollection_3">
    <path d="M 47.72 33.569099 
L 47.72 33.569105 
L 59.167105 34.607957 
L 70.614211 36.383729 
L 82.061316 38.921367 
L 93.508421 42.026127 
L 104.955526 45.417721 
L 116.402632 48.875572 
L 127.849737 52.205628 
L 139.296842 55.855853 
L 150.743947 59.6534 
L 162.191053 63.279371 
L 173.638158 67.190123 
L 185.085263 71.027096 
L 196.532368 75.38733 
L 207.979474 79.134747 
L 219.426579 83.545784 
L 230.873684 87.755865 
L 242.320789 91.528596 
L 253.767895 95.47418 
L 265.215 99.57951 
L 265.215 87.715341 
L 265.215 87.715341 
L 253.767895 84.280886 
L 242.320789 81.110787 
L 230.873684 78.050245 
L 219.426579 74.898924 
L 207.979474 71.692826 
L 196.532368 68.102838 
L 185.085263 64.192086 
L 173.638158 60.76321 
L 162.191053 57.20501 
L 150.743947 53.697608 
L 139.296842 50.042731 
L 127.849737 46.715045 
L 116.402632 43.767244 
L 104.955526 40.778339 
L 93.508421 38.44698 
L 82.061316 36.610348 
L 70.614211 35.261003 
L 59.167105 34.181599 
L 47.72 33.569099 
z
" clip-path="url(#p8712f36433)" style="fill: #2ca02c; fill-opacity: 0.4"/>
   </g>
   <g id="PolyCollection_4">
    <path d="M 47.72 33.569823 
L 47.72 33.570082 
L 59.167105 34.353548 
L 70.614211 35.647612 
L 82.061316 37.558674 
L 93.508421 39.998568 
L 104.955526 42.911859 
L 116.402632 45.973105 
L 127.849737 49.209678 
L 139.296842 52.704902 
L 150.743947 56.487396 
L 162.191053 60.382371 
L 173.638158 64.294695 
L 185.085263 68.055919 
L 196.532368 72.475579 
L 207.979474 76.17514 
L 219.426579 80.531997 
L 230.873684 84.587784 
L 242.320789 88.359419 
L 253.767895 92.336823 
L 265.215 96.643715 
L 265.215 86.59637 
L 265.215 86.59637 
L 253.767895 83.132484 
L 242.320789 79.930753 
L 230.873684 76.748834 
L 219.426579 73.385183 
L 207.979474 70.103093 
L 196.532368 66.395829 
L 185.085263 62.498108 
L 173.638158 58.925755 
L 162.191053 55.203298 
L 150.743947 51.834131 
L 139.296842 48.120935 
L 127.849737 44.900094 
L 116.402632 42.120955 
L 104.955526 39.436345 
L 93.508421 37.4489 
L 82.061316 35.944022 
L 70.614211 34.906542 
L 59.167105 34.064511 
L 47.72 33.569823 
z
" clip-path="url(#p8712f36433)" style="fill: #d62728; fill-opacity: 0.4"/>
   </g>
   <g id="PolyCollection_5">
    <path d="M 47.72 33.5691 
L 47.72 33.569105 
L 59.167105 34.910028 
L 70.614211 38.27811 
L 82.061316 43.336107 
L 93.508421 49.513916 
L 104.955526 56.439116 
L 116.402632 63.562927 
L 127.849737 71.099706 
L 139.296842 78.4196 
L 150.743947 86.088627 
L 162.191053 93.848197 
L 173.638158 102.33404 
L 185.085263 109.427385 
L 196.532368 117.345051 
L 207.979474 124.323671 
L 219.426579 130.480219 
L 230.873684 136.713271 
L 242.320789 142.818923 
L 253.767895 146.682822 
L 265.215 151.761136 
L 265.215 135.868488 
L 265.215 135.868488 
L 253.767895 131.504069 
L 242.320789 126.820644 
L 230.873684 121.454499 
L 219.426579 115.295496 
L 207.979474 110.252992 
L 196.532368 104.34645 
L 185.085263 97.688767 
L 173.638158 91.53368 
L 162.191053 85.030656 
L 150.743947 78.696702 
L 139.296842 71.167112 
L 127.849737 64.106608 
L 116.402632 57.164066 
L 104.955526 50.579176 
L 93.508421 44.899838 
L 82.061316 40.260754 
L 70.614211 36.820147 
L 59.167105 34.375583 
L 47.72 33.5691 
z
" clip-path="url(#p8712f36433)" style="fill: #9467bd; fill-opacity: 0.4"/>
   </g>
   <g id="PolyCollection_6">
    <path d="M 47.72 33.569652 
L 47.72 33.569829 
L 59.167105 34.405983 
L 70.614211 36.289787 
L 82.061316 39.369827 
L 93.508421 43.24922 
L 104.955526 48.138476 
L 116.402632 53.391127 
L 127.849737 59.478424 
L 139.296842 64.945008 
L 150.743947 70.957966 
L 162.191053 77.131662 
L 173.638158 84.265896 
L 185.085263 90.088704 
L 196.532368 96.777895 
L 207.979474 102.221594 
L 219.426579 108.887612 
L 230.873684 115.127829 
L 242.320789 120.83592 
L 253.767895 126.239619 
L 265.215 131.675284 
L 265.215 119.477628 
L 265.215 119.477628 
L 253.767895 114.540494 
L 242.320789 109.928081 
L 230.873684 104.358572 
L 219.426579 98.559927 
L 207.979474 93.297702 
L 196.532368 87.188532 
L 185.085263 80.602992 
L 173.638158 74.874678 
L 162.191053 69.102253 
L 150.743947 63.416352 
L 139.296842 57.399573 
L 127.849737 52.081506 
L 116.402632 47.3934 
L 104.955526 43.125578 
L 93.508421 39.732111 
L 82.061316 37.088623 
L 70.614211 35.344122 
L 59.167105 34.092846 
L 47.72 33.569652 
z
" clip-path="url(#p8712f36433)" style="fill: #8c564b; fill-opacity: 0.4"/>
   </g>
   <g id="PolyCollection_7">
    <path d="M 47.72 46.540292 
L 47.72 50.091964 
L 59.167105 52.029652 
L 70.614211 56.52746 
L 82.061316 63.555022 
L 93.508421 71.630906 
L 104.955526 79.77369 
L 116.402632 87.794553 
L 127.849737 95.443517 
L 139.296842 102.463011 
L 150.743947 109.57026 
L 162.191053 116.526283 
L 173.638158 123.456201 
L 185.085263 130.234932 
L 196.532368 136.766651 
L 207.979474 143.459067 
L 219.426579 149.294716 
L 230.873684 154.711489 
L 242.320789 159.337198 
L 253.767895 163.463381 
L 265.215 167.350909 
L 265.215 150.558599 
L 265.215 150.558599 
L 253.767895 147.011922 
L 242.320789 142.715817 
L 230.873684 138.843144 
L 219.426579 134.140722 
L 207.979474 129.252122 
L 196.532368 123.788805 
L 185.085263 117.343902 
L 173.638158 110.882338 
L 162.191053 103.741463 
L 150.743947 96.220611 
L 139.296842 88.733167 
L 127.849737 80.697614 
L 116.402632 73.274354 
L 104.955526 65.419376 
L 93.508421 59.269986 
L 82.061316 54.019128 
L 70.614211 50.198707 
L 59.167105 47.539895 
L 47.72 46.540292 
z
" clip-path="url(#p8712f36433)" style="fill: #e377c2; fill-opacity: 0.4"/>
   </g>
   <g id="PolyCollection_8">
    <path d="M 47.72 33.569427 
L 47.72 33.569608 
L 59.167105 33.886332 
L 70.614211 34.234517 
L 82.061316 35.441596 
L 93.508421 37.77844 
L 104.955526 41.573419 
L 116.402632 46.047431 
L 127.849737 51.738418 
L 139.296842 56.669183 
L 150.743947 62.510833 
L 162.191053 68.030355 
L 173.638158 73.816605 
L 185.085263 79.345687 
L 196.532368 85.510731 
L 207.979474 91.235316 
L 219.426579 97.890901 
L 230.873684 104.106477 
L 242.320789 109.989368 
L 253.767895 116.198975 
L 265.215 122.248733 
L 265.215 107.831567 
L 265.215 107.831567 
L 253.767895 102.063465 
L 242.320789 96.358355 
L 230.873684 90.324248 
L 219.426579 84.191558 
L 207.979474 77.935597 
L 196.532368 71.371118 
L 185.085263 64.858508 
L 173.638158 59.258416 
L 162.191053 53.73092 
L 150.743947 48.6422 
L 139.296842 44.183398 
L 127.849737 40.338247 
L 116.402632 37.53802 
L 104.955526 35.551106 
L 93.508421 34.54893 
L 82.061316 34.065929 
L 70.614211 33.886925 
L 59.167105 33.815245 
L 47.72 33.569427 
z
" clip-path="url(#p8712f36433)" style="fill: #7f7f7f; fill-opacity: 0.4"/>
   </g>
   <g id="matplotlib.axis_1">
    <g id="xtick_1">
     <g id="line2d_1">
      <defs>
       <path id="mf1cbf40c06" d="M 0 0 
L 0 3.5 
" style="stroke: #000000; stroke-width: 0.8"/>
      </defs>
      <g>
       <use xlink:href="#mf1cbf40c06" x="47.72" y="174.04" style="stroke: #000000; stroke-width: 0.8"/>
      </g>
     </g>
     <g id="text_1">
      <!-- 0.0 -->
      <g transform="translate(39.768438 188.638438)scale(0.1 -0.1)">
       <defs>
        <path id="DejaVuSans-30" d="M 2034 4250 
Q 1547 4250 1301 3770 
Q 1056 3291 1056 2328 
Q 1056 1369 1301 889 
Q 1547 409 2034 409 
Q 2525 409 2770 889 
Q 3016 1369 3016 2328 
Q 3016 3291 2770 3770 
Q 2525 4250 2034 4250 
z
M 2034 4750 
Q 2819 4750 3233 4129 
Q 3647 3509 3647 2328 
Q 3647 1150 3233 529 
Q 2819 -91 2034 -91 
Q 1250 -91 836 529 
Q 422 1150 422 2328 
Q 422 3509 836 4129 
Q 1250 4750 2034 4750 
z
" transform="scale(0.015625)"/>
        <path id="DejaVuSans-2e" d="M 684 794 
L 1344 794 
L 1344 0 
L 684 0 
L 684 794 
z
" transform="scale(0.015625)"/>
       </defs>
       <use xlink:href="#DejaVuSans-30"/>
       <use xlink:href="#DejaVuSans-2e" x="63.623047"/>
       <use xlink:href="#DejaVuSans-30" x="95.410156"/>
      </g>
     </g>
    </g>
    <g id="xtick_2">
     <g id="line2d_2">
      <g>
       <use xlink:href="#mf1cbf40c06" x="102.09375" y="174.04" style="stroke: #000000; stroke-width: 0.8"/>
      </g>
     </g>
     <g id="text_2">
      <!-- 0.5 -->
      <g transform="translate(94.142188 188.638438)scale(0.1 -0.1)">
       <defs>
        <path id="DejaVuSans-35" d="M 691 4666 
L 3169 4666 
L 3169 4134 
L 1269 4134 
L 1269 2991 
Q 1406 3038 1543 3061 
Q 1681 3084 1819 3084 
Q 2600 3084 3056 2656 
Q 3513 2228 3513 1497 
Q 3513 744 3044 326 
Q 2575 -91 1722 -91 
Q 1428 -91 1123 -41 
Q 819 9 494 109 
L 494 744 
Q 775 591 1075 516 
Q 1375 441 1709 441 
Q 2250 441 2565 725 
Q 2881 1009 2881 1497 
Q 2881 1984 2565 2268 
Q 2250 2553 1709 2553 
Q 1456 2553 1204 2497 
Q 953 2441 691 2322 
L 691 4666 
z
" transform="scale(0.015625)"/>
       </defs>
       <use xlink:href="#DejaVuSans-30"/>
       <use xlink:href="#DejaVuSans-2e" x="63.623047"/>
       <use xlink:href="#DejaVuSans-35" x="95.410156"/>
      </g>
     </g>
    </g>
    <g id="xtick_3">
     <g id="line2d_3">
      <g>
       <use xlink:href="#mf1cbf40c06" x="156.4675" y="174.04" style="stroke: #000000; stroke-width: 0.8"/>
      </g>
     </g>
     <g id="text_3">
      <!-- 1.0 -->
      <g transform="translate(148.515938 188.638438)scale(0.1 -0.1)">
       <defs>
        <path id="DejaVuSans-31" d="M 794 531 
L 1825 531 
L 1825 4091 
L 703 3866 
L 703 4441 
L 1819 4666 
L 2450 4666 
L 2450 531 
L 3481 531 
L 3481 0 
L 794 0 
L 794 531 
z
" transform="scale(0.015625)"/>
       </defs>
       <use xlink:href="#DejaVuSans-31"/>
       <use xlink:href="#DejaVuSans-2e" x="63.623047"/>
       <use xlink:href="#DejaVuSans-30" x="95.410156"/>
      </g>
     </g>
    </g>
    <g id="xtick_4">
     <g id="line2d_4">
      <g>
       <use xlink:href="#mf1cbf40c06" x="210.84125" y="174.04" style="stroke: #000000; stroke-width: 0.8"/>
      </g>
     </g>
     <g id="text_4">
      <!-- 1.5 -->
      <g transform="translate(202.889687 188.638438)scale(0.1 -0.1)">
       <use xlink:href="#DejaVuSans-31"/>
       <use xlink:href="#DejaVuSans-2e" x="63.623047"/>
       <use xlink:href="#DejaVuSans-35" x="95.410156"/>
      </g>
     </g>
    </g>
    <g id="xtick_5">
     <g id="line2d_5">
      <g>
       <use xlink:href="#mf1cbf40c06" x="265.215" y="174.04" style="stroke: #000000; stroke-width: 0.8"/>
      </g>
     </g>
     <g id="text_5">
      <!-- 2.0 -->
      <g transform="translate(257.263437 188.638438)scale(0.1 -0.1)">
       <defs>
        <path id="DejaVuSans-32" d="M 1228 531 
L 3431 531 
L 3431 0 
L 469 0 
L 469 531 
Q 828 903 1448 1529 
Q 2069 2156 2228 2338 
Q 2531 2678 2651 2914 
Q 2772 3150 2772 3378 
Q 2772 3750 2511 3984 
Q 2250 4219 1831 4219 
Q 1534 4219 1204 4116 
Q 875 4013 500 3803 
L 500 4441 
Q 881 4594 1212 4672 
Q 1544 4750 1819 4750 
Q 2544 4750 2975 4387 
Q 3406 4025 3406 3419 
Q 3406 3131 3298 2873 
Q 3191 2616 2906 2266 
Q 2828 2175 2409 1742 
Q 1991 1309 1228 531 
z
" transform="scale(0.015625)"/>
       </defs>
       <use xlink:href="#DejaVuSans-32"/>
       <use xlink:href="#DejaVuSans-2e" x="63.623047"/>
       <use xlink:href="#DejaVuSans-30" x="95.410156"/>
      </g>
     </g>
    </g>
    <g id="text_6">
     <!-- Influence of surprisal (multiplication) -->
     <g transform="translate(64.320625 202.316563)scale(0.1 -0.1)">
      <defs>
       <path id="DejaVuSans-49" d="M 628 4666 
L 1259 4666 
L 1259 0 
L 628 0 
L 628 4666 
z
" transform="scale(0.015625)"/>
       <path id="DejaVuSans-6e" d="M 3513 2113 
L 3513 0 
L 2938 0 
L 2938 2094 
Q 2938 2591 2744 2837 
Q 2550 3084 2163 3084 
Q 1697 3084 1428 2787 
Q 1159 2491 1159 1978 
L 1159 0 
L 581 0 
L 581 3500 
L 1159 3500 
L 1159 2956 
Q 1366 3272 1645 3428 
Q 1925 3584 2291 3584 
Q 2894 3584 3203 3211 
Q 3513 2838 3513 2113 
z
" transform="scale(0.015625)"/>
       <path id="DejaVuSans-66" d="M 2375 4863 
L 2375 4384 
L 1825 4384 
Q 1516 4384 1395 4259 
Q 1275 4134 1275 3809 
L 1275 3500 
L 2222 3500 
L 2222 3053 
L 1275 3053 
L 1275 0 
L 697 0 
L 697 3053 
L 147 3053 
L 147 3500 
L 697 3500 
L 697 3744 
Q 697 4328 969 4595 
Q 1241 4863 1831 4863 
L 2375 4863 
z
" transform="scale(0.015625)"/>
       <path id="DejaVuSans-6c" d="M 603 4863 
L 1178 4863 
L 1178 0 
L 603 0 
L 603 4863 
z
" transform="scale(0.015625)"/>
       <path id="DejaVuSans-75" d="M 544 1381 
L 544 3500 
L 1119 3500 
L 1119 1403 
Q 1119 906 1312 657 
Q 1506 409 1894 409 
Q 2359 409 2629 706 
Q 2900 1003 2900 1516 
L 2900 3500 
L 3475 3500 
L 3475 0 
L 2900 0 
L 2900 538 
Q 2691 219 2414 64 
Q 2138 -91 1772 -91 
Q 1169 -91 856 284 
Q 544 659 544 1381 
z
M 1991 3584 
L 1991 3584 
z
" transform="scale(0.015625)"/>
       <path id="DejaVuSans-65" d="M 3597 1894 
L 3597 1613 
L 953 1613 
Q 991 1019 1311 708 
Q 1631 397 2203 397 
Q 2534 397 2845 478 
Q 3156 559 3463 722 
L 3463 178 
Q 3153 47 2828 -22 
Q 2503 -91 2169 -91 
Q 1331 -91 842 396 
Q 353 884 353 1716 
Q 353 2575 817 3079 
Q 1281 3584 2069 3584 
Q 2775 3584 3186 3129 
Q 3597 2675 3597 1894 
z
M 3022 2063 
Q 3016 2534 2758 2815 
Q 2500 3097 2075 3097 
Q 1594 3097 1305 2825 
Q 1016 2553 972 2059 
L 3022 2063 
z
" transform="scale(0.015625)"/>
       <path id="DejaVuSans-63" d="M 3122 3366 
L 3122 2828 
Q 2878 2963 2633 3030 
Q 2388 3097 2138 3097 
Q 1578 3097 1268 2742 
Q 959 2388 959 1747 
Q 959 1106 1268 751 
Q 1578 397 2138 397 
Q 2388 397 2633 464 
Q 2878 531 3122 666 
L 3122 134 
Q 2881 22 2623 -34 
Q 2366 -91 2075 -91 
Q 1284 -91 818 406 
Q 353 903 353 1747 
Q 353 2603 823 3093 
Q 1294 3584 2113 3584 
Q 2378 3584 2631 3529 
Q 2884 3475 3122 3366 
z
" transform="scale(0.015625)"/>
       <path id="DejaVuSans-20" transform="scale(0.015625)"/>
       <path id="DejaVuSans-6f" d="M 1959 3097 
Q 1497 3097 1228 2736 
Q 959 2375 959 1747 
Q 959 1119 1226 758 
Q 1494 397 1959 397 
Q 2419 397 2687 759 
Q 2956 1122 2956 1747 
Q 2956 2369 2687 2733 
Q 2419 3097 1959 3097 
z
M 1959 3584 
Q 2709 3584 3137 3096 
Q 3566 2609 3566 1747 
Q 3566 888 3137 398 
Q 2709 -91 1959 -91 
Q 1206 -91 779 398 
Q 353 888 353 1747 
Q 353 2609 779 3096 
Q 1206 3584 1959 3584 
z
" transform="scale(0.015625)"/>
       <path id="DejaVuSans-73" d="M 2834 3397 
L 2834 2853 
Q 2591 2978 2328 3040 
Q 2066 3103 1784 3103 
Q 1356 3103 1142 2972 
Q 928 2841 928 2578 
Q 928 2378 1081 2264 
Q 1234 2150 1697 2047 
L 1894 2003 
Q 2506 1872 2764 1633 
Q 3022 1394 3022 966 
Q 3022 478 2636 193 
Q 2250 -91 1575 -91 
Q 1294 -91 989 -36 
Q 684 19 347 128 
L 347 722 
Q 666 556 975 473 
Q 1284 391 1588 391 
Q 1994 391 2212 530 
Q 2431 669 2431 922 
Q 2431 1156 2273 1281 
Q 2116 1406 1581 1522 
L 1381 1569 
Q 847 1681 609 1914 
Q 372 2147 372 2553 
Q 372 3047 722 3315 
Q 1072 3584 1716 3584 
Q 2034 3584 2315 3537 
Q 2597 3491 2834 3397 
z
" transform="scale(0.015625)"/>
       <path id="DejaVuSans-72" d="M 2631 2963 
Q 2534 3019 2420 3045 
Q 2306 3072 2169 3072 
Q 1681 3072 1420 2755 
Q 1159 2438 1159 1844 
L 1159 0 
L 581 0 
L 581 3500 
L 1159 3500 
L 1159 2956 
Q 1341 3275 1631 3429 
Q 1922 3584 2338 3584 
Q 2397 3584 2469 3576 
Q 2541 3569 2628 3553 
L 2631 2963 
z
" transform="scale(0.015625)"/>
       <path id="DejaVuSans-70" d="M 1159 525 
L 1159 -1331 
L 581 -1331 
L 581 3500 
L 1159 3500 
L 1159 2969 
Q 1341 3281 1617 3432 
Q 1894 3584 2278 3584 
Q 2916 3584 3314 3078 
Q 3713 2572 3713 1747 
Q 3713 922 3314 415 
Q 2916 -91 2278 -91 
Q 1894 -91 1617 61 
Q 1341 213 1159 525 
z
M 3116 1747 
Q 3116 2381 2855 2742 
Q 2594 3103 2138 3103 
Q 1681 3103 1420 2742 
Q 1159 2381 1159 1747 
Q 1159 1113 1420 752 
Q 1681 391 2138 391 
Q 2594 391 2855 752 
Q 3116 1113 3116 1747 
z
" transform="scale(0.015625)"/>
       <path id="DejaVuSans-69" d="M 603 3500 
L 1178 3500 
L 1178 0 
L 603 0 
L 603 3500 
z
M 603 4863 
L 1178 4863 
L 1178 4134 
L 603 4134 
L 603 4863 
z
" transform="scale(0.015625)"/>
       <path id="DejaVuSans-61" d="M 2194 1759 
Q 1497 1759 1228 1600 
Q 959 1441 959 1056 
Q 959 750 1161 570 
Q 1363 391 1709 391 
Q 2188 391 2477 730 
Q 2766 1069 2766 1631 
L 2766 1759 
L 2194 1759 
z
M 3341 1997 
L 3341 0 
L 2766 0 
L 2766 531 
Q 2569 213 2275 61 
Q 1981 -91 1556 -91 
Q 1019 -91 701 211 
Q 384 513 384 1019 
Q 384 1609 779 1909 
Q 1175 2209 1959 2209 
L 2766 2209 
L 2766 2266 
Q 2766 2663 2505 2880 
Q 2244 3097 1772 3097 
Q 1472 3097 1187 3025 
Q 903 2953 641 2809 
L 641 3341 
Q 956 3463 1253 3523 
Q 1550 3584 1831 3584 
Q 2591 3584 2966 3190 
Q 3341 2797 3341 1997 
z
" transform="scale(0.015625)"/>
       <path id="DejaVuSans-28" d="M 1984 4856 
Q 1566 4138 1362 3434 
Q 1159 2731 1159 2009 
Q 1159 1288 1364 580 
Q 1569 -128 1984 -844 
L 1484 -844 
Q 1016 -109 783 600 
Q 550 1309 550 2009 
Q 550 2706 781 3412 
Q 1013 4119 1484 4856 
L 1984 4856 
z
" transform="scale(0.015625)"/>
       <path id="DejaVuSans-6d" d="M 3328 2828 
Q 3544 3216 3844 3400 
Q 4144 3584 4550 3584 
Q 5097 3584 5394 3201 
Q 5691 2819 5691 2113 
L 5691 0 
L 5113 0 
L 5113 2094 
Q 5113 2597 4934 2840 
Q 4756 3084 4391 3084 
Q 3944 3084 3684 2787 
Q 3425 2491 3425 1978 
L 3425 0 
L 2847 0 
L 2847 2094 
Q 2847 2600 2669 2842 
Q 2491 3084 2119 3084 
Q 1678 3084 1418 2786 
Q 1159 2488 1159 1978 
L 1159 0 
L 581 0 
L 581 3500 
L 1159 3500 
L 1159 2956 
Q 1356 3278 1631 3431 
Q 1906 3584 2284 3584 
Q 2666 3584 2933 3390 
Q 3200 3197 3328 2828 
z
" transform="scale(0.015625)"/>
       <path id="DejaVuSans-74" d="M 1172 4494 
L 1172 3500 
L 2356 3500 
L 2356 3053 
L 1172 3053 
L 1172 1153 
Q 1172 725 1289 603 
Q 1406 481 1766 481 
L 2356 481 
L 2356 0 
L 1766 0 
Q 1100 0 847 248 
Q 594 497 594 1153 
L 594 3053 
L 172 3053 
L 172 3500 
L 594 3500 
L 594 4494 
L 1172 4494 
z
" transform="scale(0.015625)"/>
       <path id="DejaVuSans-29" d="M 513 4856 
L 1013 4856 
Q 1481 4119 1714 3412 
Q 1947 2706 1947 2009 
Q 1947 1309 1714 600 
Q 1481 -109 1013 -844 
L 513 -844 
Q 928 -128 1133 580 
Q 1338 1288 1338 2009 
Q 1338 2731 1133 3434 
Q 928 4138 513 4856 
z
" transform="scale(0.015625)"/>
      </defs>
      <use xlink:href="#DejaVuSans-49"/>
      <use xlink:href="#DejaVuSans-6e" x="29.492188"/>
      <use xlink:href="#DejaVuSans-66" x="92.871094"/>
      <use xlink:href="#DejaVuSans-6c" x="128.076172"/>
      <use xlink:href="#DejaVuSans-75" x="155.859375"/>
      <use xlink:href="#DejaVuSans-65" x="219.238281"/>
      <use xlink:href="#DejaVuSans-6e" x="280.761719"/>
      <use xlink:href="#DejaVuSans-63" x="344.140625"/>
      <use xlink:href="#DejaVuSans-65" x="399.121094"/>
      <use xlink:href="#DejaVuSans-20" x="460.644531"/>
      <use xlink:href="#DejaVuSans-6f" x="492.431641"/>
      <use xlink:href="#DejaVuSans-66" x="553.613281"/>
      <use xlink:href="#DejaVuSans-20" x="588.818359"/>
      <use xlink:href="#DejaVuSans-73" x="620.605469"/>
      <use xlink:href="#DejaVuSans-75" x="672.705078"/>
      <use xlink:href="#DejaVuSans-72" x="736.083984"/>
      <use xlink:href="#DejaVuSans-70" x="777.197266"/>
      <use xlink:href="#DejaVuSans-72" x="840.673828"/>
      <use xlink:href="#DejaVuSans-69" x="881.787109"/>
      <use xlink:href="#DejaVuSans-73" x="909.570312"/>
      <use xlink:href="#DejaVuSans-61" x="961.669922"/>
      <use xlink:href="#DejaVuSans-6c" x="1022.949219"/>
      <use xlink:href="#DejaVuSans-20" x="1050.732422"/>
      <use xlink:href="#DejaVuSans-28" x="1082.519531"/>
      <use xlink:href="#DejaVuSans-6d" x="1121.533203"/>
      <use xlink:href="#DejaVuSans-75" x="1218.945312"/>
      <use xlink:href="#DejaVuSans-6c" x="1282.324219"/>
      <use xlink:href="#DejaVuSans-74" x="1310.107422"/>
      <use xlink:href="#DejaVuSans-69" x="1349.316406"/>
      <use xlink:href="#DejaVuSans-70" x="1377.099609"/>
      <use xlink:href="#DejaVuSans-6c" x="1440.576172"/>
      <use xlink:href="#DejaVuSans-69" x="1468.359375"/>
      <use xlink:href="#DejaVuSans-63" x="1496.142578"/>
      <use xlink:href="#DejaVuSans-61" x="1551.123047"/>
      <use xlink:href="#DejaVuSans-74" x="1612.402344"/>
      <use xlink:href="#DejaVuSans-69" x="1651.611328"/>
      <use xlink:href="#DejaVuSans-6f" x="1679.394531"/>
      <use xlink:href="#DejaVuSans-6e" x="1740.576172"/>
      <use xlink:href="#DejaVuSans-29" x="1803.955078"/>
     </g>
    </g>
   </g>
   <g id="matplotlib.axis_2">
    <g id="ytick_1">
     <g id="line2d_6">
      <defs>
       <path id="mfd344b1b92" d="M 0 0 
L -3.5 0 
" style="stroke: #000000; stroke-width: 0.8"/>
      </defs>
      <g>
       <use xlink:href="#mfd344b1b92" x="47.72" y="140.469869" style="stroke: #000000; stroke-width: 0.8"/>
      </g>
     </g>
     <g id="text_7">
      <!-- 0.4 -->
      <g transform="translate(24.816875 144.269087)scale(0.1 -0.1)">
       <defs>
        <path id="DejaVuSans-34" d="M 2419 4116 
L 825 1625 
L 2419 1625 
L 2419 4116 
z
M 2253 4666 
L 3047 4666 
L 3047 1625 
L 3713 1625 
L 3713 1100 
L 3047 1100 
L 3047 0 
L 2419 0 
L 2419 1100 
L 313 1100 
L 313 1709 
L 2253 4666 
z
" transform="scale(0.015625)"/>
       </defs>
       <use xlink:href="#DejaVuSans-30"/>
       <use xlink:href="#DejaVuSans-2e" x="63.623047"/>
       <use xlink:href="#DejaVuSans-34" x="95.410156"/>
      </g>
     </g>
    </g>
    <g id="ytick_2">
     <g id="line2d_7">
      <g>
       <use xlink:href="#mfd344b1b92" x="47.72" y="104.836275" style="stroke: #000000; stroke-width: 0.8"/>
      </g>
     </g>
     <g id="text_8">
      <!-- 0.6 -->
      <g transform="translate(24.816875 108.635494)scale(0.1 -0.1)">
       <defs>
        <path id="DejaVuSans-36" d="M 2113 2584 
Q 1688 2584 1439 2293 
Q 1191 2003 1191 1497 
Q 1191 994 1439 701 
Q 1688 409 2113 409 
Q 2538 409 2786 701 
Q 3034 994 3034 1497 
Q 3034 2003 2786 2293 
Q 2538 2584 2113 2584 
z
M 3366 4563 
L 3366 3988 
Q 3128 4100 2886 4159 
Q 2644 4219 2406 4219 
Q 1781 4219 1451 3797 
Q 1122 3375 1075 2522 
Q 1259 2794 1537 2939 
Q 1816 3084 2150 3084 
Q 2853 3084 3261 2657 
Q 3669 2231 3669 1497 
Q 3669 778 3244 343 
Q 2819 -91 2113 -91 
Q 1303 -91 875 529 
Q 447 1150 447 2328 
Q 447 3434 972 4092 
Q 1497 4750 2381 4750 
Q 2619 4750 2861 4703 
Q 3103 4656 3366 4563 
z
" transform="scale(0.015625)"/>
       </defs>
       <use xlink:href="#DejaVuSans-30"/>
       <use xlink:href="#DejaVuSans-2e" x="63.623047"/>
       <use xlink:href="#DejaVuSans-36" x="95.410156"/>
      </g>
     </g>
    </g>
    <g id="ytick_3">
     <g id="line2d_8">
      <g>
       <use xlink:href="#mfd344b1b92" x="47.72" y="69.202682" style="stroke: #000000; stroke-width: 0.8"/>
      </g>
     </g>
     <g id="text_9">
      <!-- 0.8 -->
      <g transform="translate(24.816875 73.0019)scale(0.1 -0.1)">
       <defs>
        <path id="DejaVuSans-38" d="M 2034 2216 
Q 1584 2216 1326 1975 
Q 1069 1734 1069 1313 
Q 1069 891 1326 650 
Q 1584 409 2034 409 
Q 2484 409 2743 651 
Q 3003 894 3003 1313 
Q 3003 1734 2745 1975 
Q 2488 2216 2034 2216 
z
M 1403 2484 
Q 997 2584 770 2862 
Q 544 3141 544 3541 
Q 544 4100 942 4425 
Q 1341 4750 2034 4750 
Q 2731 4750 3128 4425 
Q 3525 4100 3525 3541 
Q 3525 3141 3298 2862 
Q 3072 2584 2669 2484 
Q 3125 2378 3379 2068 
Q 3634 1759 3634 1313 
Q 3634 634 3220 271 
Q 2806 -91 2034 -91 
Q 1263 -91 848 271 
Q 434 634 434 1313 
Q 434 1759 690 2068 
Q 947 2378 1403 2484 
z
M 1172 3481 
Q 1172 3119 1398 2916 
Q 1625 2713 2034 2713 
Q 2441 2713 2670 2916 
Q 2900 3119 2900 3481 
Q 2900 3844 2670 4047 
Q 2441 4250 2034 4250 
Q 1625 4250 1398 4047 
Q 1172 3844 1172 3481 
z
" transform="scale(0.015625)"/>
       </defs>
       <use xlink:href="#DejaVuSans-30"/>
       <use xlink:href="#DejaVuSans-2e" x="63.623047"/>
       <use xlink:href="#DejaVuSans-38" x="95.410156"/>
      </g>
     </g>
    </g>
    <g id="ytick_4">
     <g id="line2d_9">
      <g>
       <use xlink:href="#mfd344b1b92" x="47.72" y="33.569088" style="stroke: #000000; stroke-width: 0.8"/>
      </g>
     </g>
     <g id="text_10">
      <!-- 1.0 -->
      <g transform="translate(24.816875 37.368307)scale(0.1 -0.1)">
       <use xlink:href="#DejaVuSans-31"/>
       <use xlink:href="#DejaVuSans-2e" x="63.623047"/>
       <use xlink:href="#DejaVuSans-30" x="95.410156"/>
      </g>
     </g>
    </g>
    <g id="text_11">
     <!-- R-value -->
     <g transform="translate(18.737188 119.064687)rotate(-90)scale(0.1 -0.1)">
      <defs>
       <path id="DejaVuSans-52" d="M 2841 2188 
Q 3044 2119 3236 1894 
Q 3428 1669 3622 1275 
L 4263 0 
L 3584 0 
L 2988 1197 
Q 2756 1666 2539 1819 
Q 2322 1972 1947 1972 
L 1259 1972 
L 1259 0 
L 628 0 
L 628 4666 
L 2053 4666 
Q 2853 4666 3247 4331 
Q 3641 3997 3641 3322 
Q 3641 2881 3436 2590 
Q 3231 2300 2841 2188 
z
M 1259 4147 
L 1259 2491 
L 2053 2491 
Q 2509 2491 2742 2702 
Q 2975 2913 2975 3322 
Q 2975 3731 2742 3939 
Q 2509 4147 2053 4147 
L 1259 4147 
z
" transform="scale(0.015625)"/>
       <path id="DejaVuSans-2d" d="M 313 2009 
L 1997 2009 
L 1997 1497 
L 313 1497 
L 313 2009 
z
" transform="scale(0.015625)"/>
       <path id="DejaVuSans-76" d="M 191 3500 
L 800 3500 
L 1894 563 
L 2988 3500 
L 3597 3500 
L 2284 0 
L 1503 0 
L 191 3500 
z
" transform="scale(0.015625)"/>
      </defs>
      <use xlink:href="#DejaVuSans-52"/>
      <use xlink:href="#DejaVuSans-2d" x="65.482422"/>
      <use xlink:href="#DejaVuSans-76" x="98.941406"/>
      <use xlink:href="#DejaVuSans-61" x="158.121094"/>
      <use xlink:href="#DejaVuSans-6c" x="219.400391"/>
      <use xlink:href="#DejaVuSans-75" x="247.183594"/>
      <use xlink:href="#DejaVuSans-65" x="310.5625"/>
     </g>
    </g>
   </g>
   <g id="line2d_10">
    <path d="M 47.72 33.569092 
L 59.167105 34.642259 
L 70.614211 37.549403 
L 82.061316 41.803209 
L 93.508421 47.193833 
L 104.955526 53.444734 
L 116.402632 60.317927 
L 127.849737 67.597003 
L 139.296842 74.753802 
L 150.743947 82.233495 
L 162.191053 89.46715 
L 173.638158 96.765723 
L 185.085263 103.68018 
L 196.532368 110.488823 
L 207.979474 116.94027 
L 219.426579 122.960055 
L 230.873684 128.806791 
L 242.320789 133.910334 
L 253.767895 138.769402 
L 265.215 143.310147 
" clip-path="url(#p8712f36433)" style="fill: none; stroke: #1f77b4; stroke-width: 1.5; stroke-linecap: square"/>
   </g>
   <g id="line2d_11">
    <path d="M 47.72 33.569251 
L 59.167105 34.247529 
L 70.614211 35.818015 
L 82.061316 38.21484 
L 93.508421 41.476148 
L 104.955526 45.587842 
L 116.402632 50.366238 
L 127.849737 55.773403 
L 139.296842 61.166033 
L 150.743947 67.148042 
L 162.191053 73.10993 
L 173.638158 79.42319 
L 185.085263 85.409013 
L 196.532368 91.644279 
L 207.979474 97.640788 
L 219.426579 103.729907 
L 230.873684 109.562827 
L 242.320789 114.775929 
L 253.767895 120.067162 
L 265.215 125.213145 
" clip-path="url(#p8712f36433)" style="fill: none; stroke: #ff7f0e; stroke-width: 1.5; stroke-linecap: square"/>
   </g>
   <g id="line2d_12">
    <path d="M 47.72 33.569102 
L 59.167105 34.394778 
L 70.614211 35.822366 
L 82.061316 37.765857 
L 93.508421 40.236554 
L 104.955526 43.09803 
L 116.402632 46.321408 
L 127.849737 49.460336 
L 139.296842 52.949292 
L 150.743947 56.675504 
L 162.191053 60.24219 
L 173.638158 63.976667 
L 185.085263 67.609591 
L 196.532368 71.745084 
L 207.979474 75.413787 
L 219.426579 79.222354 
L 230.873684 82.903055 
L 242.320789 86.319692 
L 253.767895 89.877533 
L 265.215 93.647426 
" clip-path="url(#p8712f36433)" style="fill: none; stroke: #2ca02c; stroke-width: 1.5; stroke-linecap: square"/>
   </g>
   <g id="line2d_13">
    <path d="M 47.72 33.569952 
L 59.167105 34.209029 
L 70.614211 35.277077 
L 82.061316 36.751348 
L 93.508421 38.723734 
L 104.955526 41.174102 
L 116.402632 44.04703 
L 127.849737 47.054886 
L 139.296842 50.412918 
L 150.743947 54.160764 
L 162.191053 57.792835 
L 173.638158 61.610225 
L 185.085263 65.277014 
L 196.532368 69.435704 
L 207.979474 73.139116 
L 219.426579 76.95859 
L 230.873684 80.668309 
L 242.320789 84.145086 
L 253.767895 87.734653 
L 265.215 91.620042 
" clip-path="url(#p8712f36433)" style="fill: none; stroke: #d62728; stroke-width: 1.5; stroke-linecap: square"/>
   </g>
   <g id="line2d_14">
    <path d="M 47.72 33.569102 
L 59.167105 34.642806 
L 70.614211 37.549129 
L 82.061316 41.798431 
L 93.508421 47.206877 
L 104.955526 53.509146 
L 116.402632 60.363497 
L 127.849737 67.603157 
L 139.296842 74.793356 
L 150.743947 82.392665 
L 162.191053 89.439427 
L 173.638158 96.93386 
L 185.085263 103.558076 
L 196.532368 110.845751 
L 207.979474 117.288332 
L 219.426579 122.887858 
L 230.873684 129.083885 
L 242.320789 134.819783 
L 253.767895 139.093445 
L 265.215 143.814812 
" clip-path="url(#p8712f36433)" style="fill: none; stroke: #9467bd; stroke-width: 1.5; stroke-linecap: square"/>
   </g>
   <g id="line2d_15">
    <path d="M 47.72 33.569741 
L 59.167105 34.249414 
L 70.614211 35.816954 
L 82.061316 38.229225 
L 93.508421 41.490666 
L 104.955526 45.632027 
L 116.402632 50.392263 
L 127.849737 55.779965 
L 139.296842 61.172291 
L 150.743947 67.187159 
L 162.191053 73.116957 
L 173.638158 79.570287 
L 185.085263 85.345848 
L 196.532368 91.983213 
L 207.979474 97.759648 
L 219.426579 103.723769 
L 230.873684 109.7432 
L 242.320789 115.382001 
L 253.767895 120.390057 
L 265.215 125.576456 
" clip-path="url(#p8712f36433)" style="fill: none; stroke: #8c564b; stroke-width: 1.5; stroke-linecap: square"/>
   </g>
   <g id="line2d_16">
    <path d="M 47.72 48.316128 
L 59.167105 49.784773 
L 70.614211 53.363083 
L 82.061316 58.787075 
L 93.508421 65.450446 
L 104.955526 72.596533 
L 116.402632 80.534453 
L 127.849737 88.070565 
L 139.296842 95.598089 
L 150.743947 102.895436 
L 162.191053 110.133873 
L 173.638158 117.169269 
L 185.085263 123.789417 
L 196.532368 130.277728 
L 207.979474 136.355595 
L 219.426579 141.717719 
L 230.873684 146.777317 
L 242.320789 151.026507 
L 253.767895 155.237652 
L 265.215 158.954754 
" clip-path="url(#p8712f36433)" style="fill: none; stroke: #e377c2; stroke-width: 1.5; stroke-linecap: square"/>
   </g>
   <g id="line2d_17">
    <path d="M 47.72 33.569517 
L 59.167105 33.850788 
L 70.614211 34.060721 
L 82.061316 34.753763 
L 93.508421 36.163685 
L 104.955526 38.562263 
L 116.402632 41.792725 
L 127.849737 46.038332 
L 139.296842 50.42629 
L 150.743947 55.576516 
L 162.191053 60.880638 
L 173.638158 66.53751 
L 185.085263 72.102097 
L 196.532368 78.440924 
L 207.979474 84.585457 
L 219.426579 91.041229 
L 230.873684 97.215363 
L 242.320789 103.173862 
L 253.767895 109.13122 
L 265.215 115.04015 
" clip-path="url(#p8712f36433)" style="fill: none; stroke: #7f7f7f; stroke-width: 1.5; stroke-linecap: square"/>
   </g>
   <g id="patch_3">
    <path d="M 47.72 174.04 
L 47.72 26.88 
" style="fill: none; stroke: #000000; stroke-width: 0.8; stroke-linejoin: miter; stroke-linecap: square"/>
   </g>
   <g id="patch_4">
    <path d="M 47.72 174.04 
L 265.215 174.04 
" style="fill: none; stroke: #000000; stroke-width: 0.8; stroke-linejoin: miter; stroke-linecap: square"/>
   </g>
   <g id="text_12">
    <!-- Node * surprisal -->
    <g transform="translate(108.18625 20.88)scale(0.12 -0.12)">
     <defs>
      <path id="DejaVuSans-4e" d="M 628 4666 
L 1478 4666 
L 3547 763 
L 3547 4666 
L 4159 4666 
L 4159 0 
L 3309 0 
L 1241 3903 
L 1241 0 
L 628 0 
L 628 4666 
z
" transform="scale(0.015625)"/>
      <path id="DejaVuSans-64" d="M 2906 2969 
L 2906 4863 
L 3481 4863 
L 3481 0 
L 2906 0 
L 2906 525 
Q 2725 213 2448 61 
Q 2172 -91 1784 -91 
Q 1150 -91 751 415 
Q 353 922 353 1747 
Q 353 2572 751 3078 
Q 1150 3584 1784 3584 
Q 2172 3584 2448 3432 
Q 2725 3281 2906 2969 
z
M 947 1747 
Q 947 1113 1208 752 
Q 1469 391 1925 391 
Q 2381 391 2643 752 
Q 2906 1113 2906 1747 
Q 2906 2381 2643 2742 
Q 2381 3103 1925 3103 
Q 1469 3103 1208 2742 
Q 947 2381 947 1747 
z
" transform="scale(0.015625)"/>
      <path id="DejaVuSans-2a" d="M 3009 3897 
L 1888 3291 
L 3009 2681 
L 2828 2375 
L 1778 3009 
L 1778 1831 
L 1422 1831 
L 1422 3009 
L 372 2375 
L 191 2681 
L 1313 3291 
L 191 3897 
L 372 4206 
L 1422 3572 
L 1422 4750 
L 1778 4750 
L 1778 3572 
L 2828 4206 
L 3009 3897 
z
" transform="scale(0.015625)"/>
     </defs>
     <use xlink:href="#DejaVuSans-4e"/>
     <use xlink:href="#DejaVuSans-6f" x="74.804688"/>
     <use xlink:href="#DejaVuSans-64" x="135.986328"/>
     <use xlink:href="#DejaVuSans-65" x="199.462891"/>
     <use xlink:href="#DejaVuSans-20" x="260.986328"/>
     <use xlink:href="#DejaVuSans-2a" x="292.773438"/>
     <use xlink:href="#DejaVuSans-20" x="342.773438"/>
     <use xlink:href="#DejaVuSans-73" x="374.560547"/>
     <use xlink:href="#DejaVuSans-75" x="426.660156"/>
     <use xlink:href="#DejaVuSans-72" x="490.039062"/>
     <use xlink:href="#DejaVuSans-70" x="531.152344"/>
     <use xlink:href="#DejaVuSans-72" x="594.628906"/>
     <use xlink:href="#DejaVuSans-69" x="635.742188"/>
     <use xlink:href="#DejaVuSans-73" x="663.525391"/>
     <use xlink:href="#DejaVuSans-61" x="715.625"/>
     <use xlink:href="#DejaVuSans-6c" x="776.904297"/>
    </g>
   </g>
  </g>
  <g id="axes_2">
   <g id="patch_5">
    <path d="M 298.065 174.04 
L 515.56 174.04 
L 515.56 26.88 
L 298.065 26.88 
z
" style="fill: #ffffff"/>
   </g>
   <g id="PolyCollection_9">
    <path d="M 298.065 33.569091 
L 298.065 33.569092 
L 309.512105 34.763427 
L 320.959211 38.442106 
L 332.406316 43.986586 
L 343.853421 50.432518 
L 355.300526 57.7971 
L 366.747632 66.075294 
L 378.194737 74.543014 
L 389.641842 82.655095 
L 401.088947 90.375517 
L 412.536053 97.847542 
L 423.983158 105.52372 
L 435.430263 111.523282 
L 446.877368 117.755451 
L 458.324474 123.715539 
L 469.771579 128.907203 
L 481.218684 134.16122 
L 492.665789 139.001654 
L 504.112895 142.636099 
L 515.56 146.883222 
L 515.56 134.308595 
L 515.56 134.308595 
L 504.112895 129.588737 
L 492.665789 124.346853 
L 481.218684 118.946966 
L 469.771579 113.130043 
L 458.324474 107.079812 
L 446.877368 101.037179 
L 435.430263 94.549313 
L 423.983158 87.806872 
L 412.536053 82.183996 
L 401.088947 75.183313 
L 389.641842 68.591341 
L 378.194737 62.020705 
L 366.747632 55.49841 
L 355.300526 49.359613 
L 343.853421 44.117926 
L 332.406316 39.902464 
L 320.959211 36.665298 
L 309.512105 34.312214 
L 298.065 33.569091 
z
" clip-path="url(#pcef9ac505f)" style="fill: #1f77b4; fill-opacity: 0.4"/>
   </g>
   <g id="PolyCollection_10">
    <path d="M 298.065 33.569229 
L 298.065 33.569273 
L 309.512105 34.7746 
L 320.959211 38.45173 
L 332.406316 44.011672 
L 343.853421 50.476687 
L 355.300526 57.857404 
L 366.747632 66.122229 
L 378.194737 74.586584 
L 389.641842 82.679429 
L 401.088947 90.391262 
L 412.536053 97.845741 
L 423.983158 105.505415 
L 435.430263 111.517792 
L 446.877368 117.740023 
L 458.324474 123.743498 
L 469.771579 128.942029 
L 481.218684 134.196926 
L 492.665789 139.076842 
L 504.112895 142.668034 
L 515.56 146.933549 
L 515.56 134.601758 
L 515.56 134.601758 
L 504.112895 129.874803 
L 492.665789 124.577603 
L 481.218684 119.223278 
L 469.771579 113.378567 
L 458.324474 107.302313 
L 446.877368 101.27817 
L 435.430263 94.757034 
L 423.983158 87.978195 
L 412.536053 82.311499 
L 401.088947 75.316575 
L 389.641842 68.675032 
L 378.194737 62.065629 
L 366.747632 55.5089 
L 355.300526 49.372254 
L 343.853421 44.112545 
L 332.406316 39.899554 
L 320.959211 36.656819 
L 309.512105 34.309647 
L 298.065 33.569229 
z
" clip-path="url(#pcef9ac505f)" style="fill: #ff7f0e; fill-opacity: 0.4"/>
   </g>
   <g id="PolyCollection_11">
    <path d="M 298.065 33.569099 
L 298.065 33.569105 
L 309.512105 34.773355 
L 320.959211 38.453979 
L 332.406316 44.004121 
L 343.853421 50.453928 
L 355.300526 57.817907 
L 366.747632 66.048119 
L 378.194737 74.421609 
L 389.641842 82.412892 
L 401.088947 90.021115 
L 412.536053 97.411204 
L 423.983158 104.9214 
L 435.430263 110.882547 
L 446.877368 116.966031 
L 458.324474 122.770545 
L 469.771579 127.863068 
L 481.218684 133.113856 
L 492.665789 137.95337 
L 504.112895 141.502858 
L 515.56 145.740678 
L 515.56 135.045275 
L 515.56 135.045275 
L 504.112895 130.28475 
L 492.665789 125.018885 
L 481.218684 119.567844 
L 469.771579 113.646989 
L 458.324474 107.513445 
L 446.877368 101.471032 
L 435.430263 94.840038 
L 423.983158 88.031379 
L 412.536053 82.310355 
L 401.088947 75.292212 
L 389.641842 68.630568 
L 378.194737 61.993635 
L 366.747632 55.417944 
L 355.300526 49.259304 
L 343.853421 44.028737 
L 332.406316 39.844623 
L 320.959211 36.640679 
L 309.512105 34.305577 
L 298.065 33.569099 
z
" clip-path="url(#pcef9ac505f)" style="fill: #2ca02c; fill-opacity: 0.4"/>
   </g>
   <g id="PolyCollection_12">
    <path d="M 298.065 33.569823 
L 298.065 33.570082 
L 309.512105 34.77687 
L 320.959211 38.452068 
L 332.406316 43.996053 
L 343.853421 50.44151 
L 355.300526 57.810004 
L 366.747632 66.025499 
L 378.194737 74.396268 
L 389.641842 82.379053 
L 401.088947 89.99305 
L 412.536053 97.371842 
L 423.983158 104.901469 
L 435.430263 110.851903 
L 446.877368 116.934086 
L 458.324474 122.808113 
L 469.771579 127.916656 
L 481.218684 133.235822 
L 492.665789 138.195188 
L 504.112895 141.793588 
L 515.56 146.120364 
L 515.56 135.373286 
L 515.56 135.373286 
L 504.112895 130.588451 
L 492.665789 125.254984 
L 481.218684 119.819984 
L 469.771579 113.900846 
L 458.324474 107.76085 
L 446.877368 101.712469 
L 435.430263 95.033762 
L 423.983158 88.209411 
L 412.536053 82.459064 
L 401.088947 75.446516 
L 389.641842 68.753613 
L 378.194737 62.086072 
L 366.747632 55.479471 
L 355.300526 49.313309 
L 343.853421 44.063165 
L 332.406316 39.868796 
L 320.959211 36.647123 
L 309.512105 34.306278 
L 298.065 33.569823 
z
" clip-path="url(#pcef9ac505f)" style="fill: #d62728; fill-opacity: 0.4"/>
   </g>
   <g id="PolyCollection_13">
    <path d="M 298.065 33.569099 
L 298.065 33.569105 
L 309.512105 34.765493 
L 320.959211 38.435736 
L 332.406316 43.962854 
L 343.853421 50.426879 
L 355.300526 57.863943 
L 366.747632 66.125979 
L 378.194737 74.397043 
L 389.641842 82.774344 
L 401.088947 90.345465 
L 412.536053 97.983109 
L 423.983158 105.748265 
L 435.430263 112.008902 
L 446.877368 117.985336 
L 458.324474 123.830148 
L 469.771579 129.382183 
L 481.218684 134.245093 
L 492.665789 139.361937 
L 504.112895 142.996471 
L 515.56 147.955052 
L 515.56 134.440404 
L 515.56 134.440404 
L 504.112895 129.799041 
L 492.665789 124.838702 
L 481.218684 119.180343 
L 469.771579 112.869473 
L 458.324474 107.205226 
L 446.877368 101.157363 
L 435.430263 94.260453 
L 423.983158 87.600703 
L 412.536053 82.441005 
L 401.088947 75.380032 
L 389.641842 68.728473 
L 378.194737 62.045003 
L 366.747632 55.550499 
L 355.300526 49.348409 
L 343.853421 44.274619 
L 332.406316 39.911605 
L 320.959211 36.67055 
L 309.512105 34.314461 
L 298.065 33.569099 
z
" clip-path="url(#pcef9ac505f)" style="fill: #9467bd; fill-opacity: 0.4"/>
   </g>
   <g id="PolyCollection_14">
    <path d="M 298.065 33.569652 
L 298.065 33.569829 
L 309.512105 34.776648 
L 320.959211 38.44466 
L 332.406316 43.984522 
L 343.853421 50.466359 
L 355.300526 57.922063 
L 366.747632 66.170179 
L 378.194737 74.431206 
L 389.641842 82.799372 
L 401.088947 90.353391 
L 412.536053 97.970944 
L 423.983158 105.736842 
L 435.430263 112.023276 
L 446.877368 117.981618 
L 458.324474 123.851089 
L 469.771579 129.413127 
L 481.218684 134.275106 
L 492.665789 139.440881 
L 504.112895 143.014112 
L 515.56 148.010986 
L 515.56 134.739601 
L 515.56 134.739601 
L 504.112895 130.077491 
L 492.665789 125.073755 
L 481.218684 119.46593 
L 469.771579 113.092404 
L 458.324474 107.440028 
L 446.877368 101.398129 
L 435.430263 94.459849 
L 423.983158 87.773558 
L 412.536053 82.589602 
L 401.088947 75.517179 
L 389.641842 68.814598 
L 378.194737 62.088003 
L 366.747632 55.562723 
L 355.300526 49.358905 
L 343.853421 44.267495 
L 332.406316 39.910623 
L 320.959211 36.663206 
L 309.512105 34.312538 
L 298.065 33.569652 
z
" clip-path="url(#pcef9ac505f)" style="fill: #8c564b; fill-opacity: 0.4"/>
   </g>
   <g id="PolyCollection_15">
    <path d="M 298.065 46.540292 
L 298.065 50.091964 
L 309.512105 50.876392 
L 320.959211 53.594601 
L 332.406316 57.876812 
L 343.853421 63.298938 
L 355.300526 69.866268 
L 366.747632 77.064705 
L 378.194737 84.960596 
L 389.641842 92.404021 
L 401.088947 99.330621 
L 412.536053 106.142606 
L 423.983158 113.283102 
L 435.430263 119.12435 
L 446.877368 124.820636 
L 458.324474 130.483501 
L 469.771579 135.442397 
L 481.218684 140.51636 
L 492.665789 145.191354 
L 504.112895 148.940688 
L 515.56 153.044533 
L 515.56 140.861452 
L 515.56 140.861452 
L 504.112895 136.5906 
L 492.665789 132.083888 
L 481.218684 127.493022 
L 469.771579 122.111342 
L 458.324474 116.766123 
L 446.877368 111.172457 
L 435.430263 105.289524 
L 423.983158 98.777514 
L 412.536053 93.653713 
L 401.088947 87.126924 
L 389.641842 80.670357 
L 378.194737 74.656744 
L 366.747632 68.490802 
L 355.300526 62.745385 
L 343.853421 57.882619 
L 332.406316 53.652729 
L 320.959211 50.112102 
L 309.512105 47.432876 
L 298.065 46.540292 
z
" clip-path="url(#pcef9ac505f)" style="fill: #e377c2; fill-opacity: 0.4"/>
   </g>
   <g id="PolyCollection_16">
    <path d="M 298.065 33.569427 
L 298.065 33.569608 
L 309.512105 34.780511 
L 320.959211 38.447052 
L 332.406316 44.004018 
L 343.853421 50.452321 
L 355.300526 57.831605 
L 366.747632 66.079472 
L 378.194737 74.512678 
L 389.641842 82.576855 
L 401.088947 90.257896 
L 412.536053 97.671041 
L 423.983158 105.298719 
L 435.430263 111.300394 
L 446.877368 117.46639 
L 458.324474 123.414616 
L 469.771579 128.564448 
L 481.218684 133.829335 
L 492.665789 138.718957 
L 504.112895 142.351726 
L 515.56 146.559914 
L 515.56 134.485806 
L 515.56 134.485806 
L 504.112895 129.740773 
L 492.665789 124.464104 
L 481.218684 119.142308 
L 469.771579 113.295737 
L 458.324474 107.221581 
L 446.877368 101.210029 
L 435.430263 94.650533 
L 423.983158 87.889326 
L 412.536053 82.245139 
L 401.088947 75.284458 
L 389.641842 68.645955 
L 378.194737 62.047016 
L 366.747632 55.495695 
L 355.300526 49.352569 
L 343.853421 44.106141 
L 332.406316 39.891498 
L 320.959211 36.656031 
L 309.512105 34.305887 
L 298.065 33.569427 
z
" clip-path="url(#pcef9ac505f)" style="fill: #7f7f7f; fill-opacity: 0.4"/>
   </g>
   <g id="matplotlib.axis_3">
    <g id="xtick_6">
     <g id="line2d_18">
      <g>
       <use xlink:href="#mf1cbf40c06" x="298.065" y="174.04" style="stroke: #000000; stroke-width: 0.8"/>
      </g>
     </g>
     <g id="text_13">
      <!-- 0.0 -->
      <g transform="translate(290.113437 188.638438)scale(0.1 -0.1)">
       <use xlink:href="#DejaVuSans-30"/>
       <use xlink:href="#DejaVuSans-2e" x="63.623047"/>
       <use xlink:href="#DejaVuSans-30" x="95.410156"/>
      </g>
     </g>
    </g>
    <g id="xtick_7">
     <g id="line2d_19">
      <g>
       <use xlink:href="#mf1cbf40c06" x="352.43875" y="174.04" style="stroke: #000000; stroke-width: 0.8"/>
      </g>
     </g>
     <g id="text_14">
      <!-- 0.5 -->
      <g transform="translate(344.487187 188.638438)scale(0.1 -0.1)">
       <use xlink:href="#DejaVuSans-30"/>
       <use xlink:href="#DejaVuSans-2e" x="63.623047"/>
       <use xlink:href="#DejaVuSans-35" x="95.410156"/>
      </g>
     </g>
    </g>
    <g id="xtick_8">
     <g id="line2d_20">
      <g>
       <use xlink:href="#mf1cbf40c06" x="406.8125" y="174.04" style="stroke: #000000; stroke-width: 0.8"/>
      </g>
     </g>
     <g id="text_15">
      <!-- 1.0 -->
      <g transform="translate(398.860937 188.638438)scale(0.1 -0.1)">
       <use xlink:href="#DejaVuSans-31"/>
       <use xlink:href="#DejaVuSans-2e" x="63.623047"/>
       <use xlink:href="#DejaVuSans-30" x="95.410156"/>
      </g>
     </g>
    </g>
    <g id="xtick_9">
     <g id="line2d_21">
      <g>
       <use xlink:href="#mf1cbf40c06" x="461.18625" y="174.04" style="stroke: #000000; stroke-width: 0.8"/>
      </g>
     </g>
     <g id="text_16">
      <!-- 1.5 -->
      <g transform="translate(453.234687 188.638438)scale(0.1 -0.1)">
       <use xlink:href="#DejaVuSans-31"/>
       <use xlink:href="#DejaVuSans-2e" x="63.623047"/>
       <use xlink:href="#DejaVuSans-35" x="95.410156"/>
      </g>
     </g>
    </g>
    <g id="xtick_10">
     <g id="line2d_22">
      <g>
       <use xlink:href="#mf1cbf40c06" x="515.56" y="174.04" style="stroke: #000000; stroke-width: 0.8"/>
      </g>
     </g>
     <g id="text_17">
      <!-- 2.0 -->
      <g transform="translate(507.608437 188.638438)scale(0.1 -0.1)">
       <use xlink:href="#DejaVuSans-32"/>
       <use xlink:href="#DejaVuSans-2e" x="63.623047"/>
       <use xlink:href="#DejaVuSans-30" x="95.410156"/>
      </g>
     </g>
    </g>
    <g id="text_18">
     <!-- Influence of surprisal (multiplication) -->
     <g transform="translate(314.665625 202.316563)scale(0.1 -0.1)">
      <use xlink:href="#DejaVuSans-49"/>
      <use xlink:href="#DejaVuSans-6e" x="29.492188"/>
      <use xlink:href="#DejaVuSans-66" x="92.871094"/>
      <use xlink:href="#DejaVuSans-6c" x="128.076172"/>
      <use xlink:href="#DejaVuSans-75" x="155.859375"/>
      <use xlink:href="#DejaVuSans-65" x="219.238281"/>
      <use xlink:href="#DejaVuSans-6e" x="280.761719"/>
      <use xlink:href="#DejaVuSans-63" x="344.140625"/>
      <use xlink:href="#DejaVuSans-65" x="399.121094"/>
      <use xlink:href="#DejaVuSans-20" x="460.644531"/>
      <use xlink:href="#DejaVuSans-6f" x="492.431641"/>
      <use xlink:href="#DejaVuSans-66" x="553.613281"/>
      <use xlink:href="#DejaVuSans-20" x="588.818359"/>
      <use xlink:href="#DejaVuSans-73" x="620.605469"/>
      <use xlink:href="#DejaVuSans-75" x="672.705078"/>
      <use xlink:href="#DejaVuSans-72" x="736.083984"/>
      <use xlink:href="#DejaVuSans-70" x="777.197266"/>
      <use xlink:href="#DejaVuSans-72" x="840.673828"/>
      <use xlink:href="#DejaVuSans-69" x="881.787109"/>
      <use xlink:href="#DejaVuSans-73" x="909.570312"/>
      <use xlink:href="#DejaVuSans-61" x="961.669922"/>
      <use xlink:href="#DejaVuSans-6c" x="1022.949219"/>
      <use xlink:href="#DejaVuSans-20" x="1050.732422"/>
      <use xlink:href="#DejaVuSans-28" x="1082.519531"/>
      <use xlink:href="#DejaVuSans-6d" x="1121.533203"/>
      <use xlink:href="#DejaVuSans-75" x="1218.945312"/>
      <use xlink:href="#DejaVuSans-6c" x="1282.324219"/>
      <use xlink:href="#DejaVuSans-74" x="1310.107422"/>
      <use xlink:href="#DejaVuSans-69" x="1349.316406"/>
      <use xlink:href="#DejaVuSans-70" x="1377.099609"/>
      <use xlink:href="#DejaVuSans-6c" x="1440.576172"/>
      <use xlink:href="#DejaVuSans-69" x="1468.359375"/>
      <use xlink:href="#DejaVuSans-63" x="1496.142578"/>
      <use xlink:href="#DejaVuSans-61" x="1551.123047"/>
      <use xlink:href="#DejaVuSans-74" x="1612.402344"/>
      <use xlink:href="#DejaVuSans-69" x="1651.611328"/>
      <use xlink:href="#DejaVuSans-6f" x="1679.394531"/>
      <use xlink:href="#DejaVuSans-6e" x="1740.576172"/>
      <use xlink:href="#DejaVuSans-29" x="1803.955078"/>
     </g>
    </g>
   </g>
   <g id="line2d_23">
    <path d="M 298.065 33.569092 
L 309.512105 34.537821 
L 320.959211 37.553702 
L 332.406316 41.944525 
L 343.853421 47.275222 
L 355.300526 53.578357 
L 366.747632 60.786852 
L 378.194737 68.281859 
L 389.641842 75.623218 
L 401.088947 82.779415 
L 412.536053 90.015769 
L 423.983158 96.665296 
L 435.430263 103.036297 
L 446.877368 109.396315 
L 458.324474 115.397676 
L 469.771579 121.018623 
L 481.218684 126.554093 
L 492.665789 131.674254 
L 504.112895 136.112418 
L 515.56 140.595909 
" clip-path="url(#pcef9ac505f)" style="fill: none; stroke: #1f77b4; stroke-width: 1.5; stroke-linecap: square"/>
   </g>
   <g id="line2d_24">
    <path d="M 298.065 33.569251 
L 309.512105 34.542124 
L 320.959211 37.554274 
L 332.406316 41.955613 
L 343.853421 47.294616 
L 355.300526 53.614829 
L 366.747632 60.815564 
L 378.194737 68.326107 
L 389.641842 75.677231 
L 401.088947 82.853919 
L 412.536053 90.07862 
L 423.983158 96.741805 
L 435.430263 103.137413 
L 446.877368 109.509096 
L 458.324474 115.522905 
L 469.771579 121.160298 
L 481.218684 126.710102 
L 492.665789 131.827222 
L 504.112895 136.271419 
L 515.56 140.767653 
" clip-path="url(#pcef9ac505f)" style="fill: none; stroke: #ff7f0e; stroke-width: 1.5; stroke-linecap: square"/>
   </g>
   <g id="line2d_25">
    <path d="M 298.065 33.569102 
L 309.512105 34.539466 
L 320.959211 37.547329 
L 332.406316 41.924372 
L 343.853421 47.241332 
L 355.300526 53.538605 
L 366.747632 60.733032 
L 378.194737 68.207622 
L 389.641842 75.52173 
L 401.088947 82.656663 
L 412.536053 89.86078 
L 423.983158 96.47639 
L 435.430263 102.861293 
L 446.877368 109.218531 
L 458.324474 115.141995 
L 469.771579 120.755028 
L 481.218684 126.34085 
L 492.665789 131.486128 
L 504.112895 135.893804 
L 515.56 140.392976 
" clip-path="url(#pcef9ac505f)" style="fill: none; stroke: #2ca02c; stroke-width: 1.5; stroke-linecap: square"/>
   </g>
   <g id="line2d_26">
    <path d="M 298.065 33.569952 
L 309.512105 34.541574 
L 320.959211 37.549595 
L 332.406316 41.932425 
L 343.853421 47.252337 
L 355.300526 53.561657 
L 366.747632 60.752485 
L 378.194737 68.24117 
L 389.641842 75.566333 
L 401.088947 82.719783 
L 412.536053 89.915453 
L 423.983158 96.55544 
L 435.430263 102.942832 
L 446.877368 109.323277 
L 458.324474 115.284481 
L 469.771579 120.908751 
L 481.218684 126.527903 
L 492.665789 131.725086 
L 504.112895 136.19102 
L 515.56 140.746825 
" clip-path="url(#pcef9ac505f)" style="fill: none; stroke: #d62728; stroke-width: 1.5; stroke-linecap: square"/>
   </g>
   <g id="line2d_27">
    <path d="M 298.065 33.569102 
L 309.512105 34.539977 
L 320.959211 37.553143 
L 332.406316 41.93723 
L 343.853421 47.350749 
L 355.300526 53.606176 
L 366.747632 60.838239 
L 378.194737 68.221023 
L 389.641842 75.751409 
L 401.088947 82.862748 
L 412.536053 90.212057 
L 423.983158 96.674484 
L 435.430263 103.134677 
L 446.877368 109.571349 
L 458.324474 115.517687 
L 469.771579 121.125828 
L 481.218684 126.712718 
L 492.665789 132.10032 
L 504.112895 136.397756 
L 515.56 141.197728 
" clip-path="url(#pcef9ac505f)" style="fill: none; stroke: #9467bd; stroke-width: 1.5; stroke-linecap: square"/>
   </g>
   <g id="line2d_28">
    <path d="M 298.065 33.56974 
L 309.512105 34.544593 
L 320.959211 37.553933 
L 332.406316 41.947573 
L 343.853421 47.366927 
L 355.300526 53.640484 
L 366.747632 60.866451 
L 378.194737 68.259604 
L 389.641842 75.806985 
L 401.088947 82.935285 
L 412.536053 90.280273 
L 423.983158 96.7552 
L 435.430263 103.241562 
L 446.877368 109.689874 
L 458.324474 115.645558 
L 469.771579 121.252766 
L 481.218684 126.870518 
L 492.665789 132.257318 
L 504.112895 136.545801 
L 515.56 141.375294 
" clip-path="url(#pcef9ac505f)" style="fill: none; stroke: #8c564b; stroke-width: 1.5; stroke-linecap: square"/>
   </g>
   <g id="line2d_29">
    <path d="M 298.065 48.316128 
L 309.512105 49.154634 
L 320.959211 51.853351 
L 332.406316 55.76477 
L 343.853421 60.590779 
L 355.300526 66.305827 
L 366.747632 72.777754 
L 378.194737 79.80867 
L 389.641842 86.537189 
L 401.088947 93.228773 
L 412.536053 99.89816 
L 423.983158 106.030308 
L 435.430263 112.206937 
L 446.877368 117.996546 
L 458.324474 123.624812 
L 469.771579 128.776869 
L 481.218684 134.004691 
L 492.665789 138.637621 
L 504.112895 142.765644 
L 515.56 146.952993 
" clip-path="url(#pcef9ac505f)" style="fill: none; stroke: #e377c2; stroke-width: 1.5; stroke-linecap: square"/>
   </g>
   <g id="line2d_30">
    <path d="M 298.065 33.569517 
L 309.512105 34.543199 
L 320.959211 37.551542 
L 332.406316 41.947758 
L 343.853421 47.279231 
L 355.300526 53.592087 
L 366.747632 60.787584 
L 378.194737 68.279847 
L 389.641842 75.611405 
L 401.088947 82.771177 
L 412.536053 89.95809 
L 423.983158 96.594023 
L 435.430263 102.975463 
L 446.877368 109.33821 
L 458.324474 115.318098 
L 469.771579 120.930092 
L 481.218684 126.485822 
L 492.665789 131.591531 
L 504.112895 136.046249 
L 515.56 140.52286 
" clip-path="url(#pcef9ac505f)" style="fill: none; stroke: #7f7f7f; stroke-width: 1.5; stroke-linecap: square"/>
   </g>
   <g id="patch_6">
    <path d="M 298.065 174.04 
L 298.065 26.88 
" style="fill: none; stroke: #000000; stroke-width: 0.8; stroke-linejoin: miter; stroke-linecap: square"/>
   </g>
   <g id="patch_7">
    <path d="M 298.065 174.04 
L 515.56 174.04 
" style="fill: none; stroke: #000000; stroke-width: 0.8; stroke-linejoin: miter; stroke-linecap: square"/>
   </g>
   <g id="text_19">
    <!-- Node * third variable -->
    <g transform="translate(344.2325 20.88)scale(0.12 -0.12)">
     <defs>
      <path id="DejaVuSans-68" d="M 3513 2113 
L 3513 0 
L 2938 0 
L 2938 2094 
Q 2938 2591 2744 2837 
Q 2550 3084 2163 3084 
Q 1697 3084 1428 2787 
Q 1159 2491 1159 1978 
L 1159 0 
L 581 0 
L 581 4863 
L 1159 4863 
L 1159 2956 
Q 1366 3272 1645 3428 
Q 1925 3584 2291 3584 
Q 2894 3584 3203 3211 
Q 3513 2838 3513 2113 
z
" transform="scale(0.015625)"/>
      <path id="DejaVuSans-62" d="M 3116 1747 
Q 3116 2381 2855 2742 
Q 2594 3103 2138 3103 
Q 1681 3103 1420 2742 
Q 1159 2381 1159 1747 
Q 1159 1113 1420 752 
Q 1681 391 2138 391 
Q 2594 391 2855 752 
Q 3116 1113 3116 1747 
z
M 1159 2969 
Q 1341 3281 1617 3432 
Q 1894 3584 2278 3584 
Q 2916 3584 3314 3078 
Q 3713 2572 3713 1747 
Q 3713 922 3314 415 
Q 2916 -91 2278 -91 
Q 1894 -91 1617 61 
Q 1341 213 1159 525 
L 1159 0 
L 581 0 
L 581 4863 
L 1159 4863 
L 1159 2969 
z
" transform="scale(0.015625)"/>
     </defs>
     <use xlink:href="#DejaVuSans-4e"/>
     <use xlink:href="#DejaVuSans-6f" x="74.804688"/>
     <use xlink:href="#DejaVuSans-64" x="135.986328"/>
     <use xlink:href="#DejaVuSans-65" x="199.462891"/>
     <use xlink:href="#DejaVuSans-20" x="260.986328"/>
     <use xlink:href="#DejaVuSans-2a" x="292.773438"/>
     <use xlink:href="#DejaVuSans-20" x="342.773438"/>
     <use xlink:href="#DejaVuSans-74" x="374.560547"/>
     <use xlink:href="#DejaVuSans-68" x="413.769531"/>
     <use xlink:href="#DejaVuSans-69" x="477.148438"/>
     <use xlink:href="#DejaVuSans-72" x="504.931641"/>
     <use xlink:href="#DejaVuSans-64" x="544.294922"/>
     <use xlink:href="#DejaVuSans-20" x="607.771484"/>
     <use xlink:href="#DejaVuSans-76" x="639.558594"/>
     <use xlink:href="#DejaVuSans-61" x="698.738281"/>
     <use xlink:href="#DejaVuSans-72" x="760.017578"/>
     <use xlink:href="#DejaVuSans-69" x="801.130859"/>
     <use xlink:href="#DejaVuSans-61" x="828.914062"/>
     <use xlink:href="#DejaVuSans-62" x="890.193359"/>
     <use xlink:href="#DejaVuSans-6c" x="953.669922"/>
     <use xlink:href="#DejaVuSans-65" x="981.453125"/>
    </g>
   </g>
   <g id="legend_1">
    <g id="line2d_31">
     <path d="M 524.56 39.978437 
L 534.56 39.978437 
L 544.56 39.978437 
" style="fill: none; stroke: #1f77b4; stroke-width: 1.5; stroke-linecap: square"/>
    </g>
    <g id="text_20">
     <!-- Node -->
     <g transform="translate(552.56 43.478437)scale(0.1 -0.1)">
      <use xlink:href="#DejaVuSans-4e"/>
      <use xlink:href="#DejaVuSans-6f" x="74.804688"/>
      <use xlink:href="#DejaVuSans-64" x="135.986328"/>
      <use xlink:href="#DejaVuSans-65" x="199.462891"/>
     </g>
    </g>
    <g id="line2d_32">
     <path d="M 524.56 54.656563 
L 534.56 54.656563 
L 544.56 54.656563 
" style="fill: none; stroke: #ff7f0e; stroke-width: 1.5; stroke-linecap: square"/>
    </g>
    <g id="text_21">
     <!-- Node + surprisal -->
     <g transform="translate(552.56 58.156563)scale(0.1 -0.1)">
      <defs>
       <path id="DejaVuSans-2b" d="M 2944 4013 
L 2944 2272 
L 4684 2272 
L 4684 1741 
L 2944 1741 
L 2944 0 
L 2419 0 
L 2419 1741 
L 678 1741 
L 678 2272 
L 2419 2272 
L 2419 4013 
L 2944 4013 
z
" transform="scale(0.015625)"/>
      </defs>
      <use xlink:href="#DejaVuSans-4e"/>
      <use xlink:href="#DejaVuSans-6f" x="74.804688"/>
      <use xlink:href="#DejaVuSans-64" x="135.986328"/>
      <use xlink:href="#DejaVuSans-65" x="199.462891"/>
      <use xlink:href="#DejaVuSans-20" x="260.986328"/>
      <use xlink:href="#DejaVuSans-2b" x="292.773438"/>
      <use xlink:href="#DejaVuSans-20" x="376.5625"/>
      <use xlink:href="#DejaVuSans-73" x="408.349609"/>
      <use xlink:href="#DejaVuSans-75" x="460.449219"/>
      <use xlink:href="#DejaVuSans-72" x="523.828125"/>
      <use xlink:href="#DejaVuSans-70" x="564.941406"/>
      <use xlink:href="#DejaVuSans-72" x="628.417969"/>
      <use xlink:href="#DejaVuSans-69" x="669.53125"/>
      <use xlink:href="#DejaVuSans-73" x="697.314453"/>
      <use xlink:href="#DejaVuSans-61" x="749.414062"/>
      <use xlink:href="#DejaVuSans-6c" x="810.693359"/>
     </g>
    </g>
    <g id="line2d_33">
     <path d="M 524.56 69.334687 
L 534.56 69.334687 
L 544.56 69.334687 
" style="fill: none; stroke: #2ca02c; stroke-width: 1.5; stroke-linecap: square"/>
    </g>
    <g id="text_22">
     <!-- Node split -->
     <g transform="translate(552.56 72.834687)scale(0.1 -0.1)">
      <use xlink:href="#DejaVuSans-4e"/>
      <use xlink:href="#DejaVuSans-6f" x="74.804688"/>
      <use xlink:href="#DejaVuSans-64" x="135.986328"/>
      <use xlink:href="#DejaVuSans-65" x="199.462891"/>
      <use xlink:href="#DejaVuSans-20" x="260.986328"/>
      <use xlink:href="#DejaVuSans-73" x="292.773438"/>
      <use xlink:href="#DejaVuSans-70" x="344.873047"/>
      <use xlink:href="#DejaVuSans-6c" x="408.349609"/>
      <use xlink:href="#DejaVuSans-69" x="436.132812"/>
      <use xlink:href="#DejaVuSans-74" x="463.916016"/>
     </g>
    </g>
    <g id="line2d_34">
     <path d="M 524.56 84.012812 
L 534.56 84.012812 
L 544.56 84.012812 
" style="fill: none; stroke: #d62728; stroke-width: 1.5; stroke-linecap: square"/>
    </g>
    <g id="text_23">
     <!-- Node split + surprisal -->
     <g transform="translate(552.56 87.512812)scale(0.1 -0.1)">
      <use xlink:href="#DejaVuSans-4e"/>
      <use xlink:href="#DejaVuSans-6f" x="74.804688"/>
      <use xlink:href="#DejaVuSans-64" x="135.986328"/>
      <use xlink:href="#DejaVuSans-65" x="199.462891"/>
      <use xlink:href="#DejaVuSans-20" x="260.986328"/>
      <use xlink:href="#DejaVuSans-73" x="292.773438"/>
      <use xlink:href="#DejaVuSans-70" x="344.873047"/>
      <use xlink:href="#DejaVuSans-6c" x="408.349609"/>
      <use xlink:href="#DejaVuSans-69" x="436.132812"/>
      <use xlink:href="#DejaVuSans-74" x="463.916016"/>
      <use xlink:href="#DejaVuSans-20" x="503.125"/>
      <use xlink:href="#DejaVuSans-2b" x="534.912109"/>
      <use xlink:href="#DejaVuSans-20" x="618.701172"/>
      <use xlink:href="#DejaVuSans-73" x="650.488281"/>
      <use xlink:href="#DejaVuSans-75" x="702.587891"/>
      <use xlink:href="#DejaVuSans-72" x="765.966797"/>
      <use xlink:href="#DejaVuSans-70" x="807.080078"/>
      <use xlink:href="#DejaVuSans-72" x="870.556641"/>
      <use xlink:href="#DejaVuSans-69" x="911.669922"/>
      <use xlink:href="#DejaVuSans-73" x="939.453125"/>
      <use xlink:href="#DejaVuSans-61" x="991.552734"/>
      <use xlink:href="#DejaVuSans-6c" x="1052.832031"/>
     </g>
    </g>
    <g id="line2d_35">
     <path d="M 524.56 98.690937 
L 534.56 98.690937 
L 544.56 98.690937 
" style="fill: none; stroke: #9467bd; stroke-width: 1.5; stroke-linecap: square"/>
    </g>
    <g id="text_24">
     <!-- Node random split -->
     <g transform="translate(552.56 102.190937)scale(0.1 -0.1)">
      <use xlink:href="#DejaVuSans-4e"/>
      <use xlink:href="#DejaVuSans-6f" x="74.804688"/>
      <use xlink:href="#DejaVuSans-64" x="135.986328"/>
      <use xlink:href="#DejaVuSans-65" x="199.462891"/>
      <use xlink:href="#DejaVuSans-20" x="260.986328"/>
      <use xlink:href="#DejaVuSans-72" x="292.773438"/>
      <use xlink:href="#DejaVuSans-61" x="333.886719"/>
      <use xlink:href="#DejaVuSans-6e" x="395.166016"/>
      <use xlink:href="#DejaVuSans-64" x="458.544922"/>
      <use xlink:href="#DejaVuSans-6f" x="522.021484"/>
      <use xlink:href="#DejaVuSans-6d" x="583.203125"/>
      <use xlink:href="#DejaVuSans-20" x="680.615234"/>
      <use xlink:href="#DejaVuSans-73" x="712.402344"/>
      <use xlink:href="#DejaVuSans-70" x="764.501953"/>
      <use xlink:href="#DejaVuSans-6c" x="827.978516"/>
      <use xlink:href="#DejaVuSans-69" x="855.761719"/>
      <use xlink:href="#DejaVuSans-74" x="883.544922"/>
     </g>
    </g>
    <g id="line2d_36">
     <path d="M 524.56 113.369062 
L 534.56 113.369062 
L 544.56 113.369062 
" style="fill: none; stroke: #8c564b; stroke-width: 1.5; stroke-linecap: square"/>
    </g>
    <g id="text_25">
     <!-- Node random split + surprisal -->
     <g transform="translate(552.56 116.869062)scale(0.1 -0.1)">
      <use xlink:href="#DejaVuSans-4e"/>
      <use xlink:href="#DejaVuSans-6f" x="74.804688"/>
      <use xlink:href="#DejaVuSans-64" x="135.986328"/>
      <use xlink:href="#DejaVuSans-65" x="199.462891"/>
      <use xlink:href="#DejaVuSans-20" x="260.986328"/>
      <use xlink:href="#DejaVuSans-72" x="292.773438"/>
      <use xlink:href="#DejaVuSans-61" x="333.886719"/>
      <use xlink:href="#DejaVuSans-6e" x="395.166016"/>
      <use xlink:href="#DejaVuSans-64" x="458.544922"/>
      <use xlink:href="#DejaVuSans-6f" x="522.021484"/>
      <use xlink:href="#DejaVuSans-6d" x="583.203125"/>
      <use xlink:href="#DejaVuSans-20" x="680.615234"/>
      <use xlink:href="#DejaVuSans-73" x="712.402344"/>
      <use xlink:href="#DejaVuSans-70" x="764.501953"/>
      <use xlink:href="#DejaVuSans-6c" x="827.978516"/>
      <use xlink:href="#DejaVuSans-69" x="855.761719"/>
      <use xlink:href="#DejaVuSans-74" x="883.544922"/>
      <use xlink:href="#DejaVuSans-20" x="922.753906"/>
      <use xlink:href="#DejaVuSans-2b" x="954.541016"/>
      <use xlink:href="#DejaVuSans-20" x="1038.330078"/>
      <use xlink:href="#DejaVuSans-73" x="1070.117188"/>
      <use xlink:href="#DejaVuSans-75" x="1122.216797"/>
      <use xlink:href="#DejaVuSans-72" x="1185.595703"/>
      <use xlink:href="#DejaVuSans-70" x="1226.708984"/>
      <use xlink:href="#DejaVuSans-72" x="1290.185547"/>
      <use xlink:href="#DejaVuSans-69" x="1331.298828"/>
      <use xlink:href="#DejaVuSans-73" x="1359.082031"/>
      <use xlink:href="#DejaVuSans-61" x="1411.181641"/>
      <use xlink:href="#DejaVuSans-6c" x="1472.460938"/>
     </g>
    </g>
    <g id="line2d_37">
     <path d="M 524.56 128.047187 
L 534.56 128.047187 
L 544.56 128.047187 
" style="fill: none; stroke: #e377c2; stroke-width: 1.5; stroke-linecap: square"/>
    </g>
    <g id="text_26">
     <!-- Interaction -->
     <g transform="translate(552.56 131.547187)scale(0.1 -0.1)">
      <use xlink:href="#DejaVuSans-49"/>
      <use xlink:href="#DejaVuSans-6e" x="29.492188"/>
      <use xlink:href="#DejaVuSans-74" x="92.871094"/>
      <use xlink:href="#DejaVuSans-65" x="132.080078"/>
      <use xlink:href="#DejaVuSans-72" x="193.603516"/>
      <use xlink:href="#DejaVuSans-61" x="234.716797"/>
      <use xlink:href="#DejaVuSans-63" x="295.996094"/>
      <use xlink:href="#DejaVuSans-74" x="350.976562"/>
      <use xlink:href="#DejaVuSans-69" x="390.185547"/>
      <use xlink:href="#DejaVuSans-6f" x="417.96875"/>
      <use xlink:href="#DejaVuSans-6e" x="479.150391"/>
     </g>
    </g>
    <g id="line2d_38">
     <path d="M 524.56 142.725312 
L 534.56 142.725312 
L 544.56 142.725312 
" style="fill: none; stroke: #7f7f7f; stroke-width: 1.5; stroke-linecap: square"/>
    </g>
    <g id="text_27">
     <!-- Node + surprisal + interaction -->
     <g transform="translate(552.56 146.225312)scale(0.1 -0.1)">
      <use xlink:href="#DejaVuSans-4e"/>
      <use xlink:href="#DejaVuSans-6f" x="74.804688"/>
      <use xlink:href="#DejaVuSans-64" x="135.986328"/>
      <use xlink:href="#DejaVuSans-65" x="199.462891"/>
      <use xlink:href="#DejaVuSans-20" x="260.986328"/>
      <use xlink:href="#DejaVuSans-2b" x="292.773438"/>
      <use xlink:href="#DejaVuSans-20" x="376.5625"/>
      <use xlink:href="#DejaVuSans-73" x="408.349609"/>
      <use xlink:href="#DejaVuSans-75" x="460.449219"/>
      <use xlink:href="#DejaVuSans-72" x="523.828125"/>
      <use xlink:href="#DejaVuSans-70" x="564.941406"/>
      <use xlink:href="#DejaVuSans-72" x="628.417969"/>
      <use xlink:href="#DejaVuSans-69" x="669.53125"/>
      <use xlink:href="#DejaVuSans-73" x="697.314453"/>
      <use xlink:href="#DejaVuSans-61" x="749.414062"/>
      <use xlink:href="#DejaVuSans-6c" x="810.693359"/>
      <use xlink:href="#DejaVuSans-20" x="838.476562"/>
      <use xlink:href="#DejaVuSans-2b" x="870.263672"/>
      <use xlink:href="#DejaVuSans-20" x="954.052734"/>
      <use xlink:href="#DejaVuSans-69" x="985.839844"/>
      <use xlink:href="#DejaVuSans-6e" x="1013.623047"/>
      <use xlink:href="#DejaVuSans-74" x="1077.001953"/>
      <use xlink:href="#DejaVuSans-65" x="1116.210938"/>
      <use xlink:href="#DejaVuSans-72" x="1177.734375"/>
      <use xlink:href="#DejaVuSans-61" x="1218.847656"/>
      <use xlink:href="#DejaVuSans-63" x="1280.126953"/>
      <use xlink:href="#DejaVuSans-74" x="1335.107422"/>
      <use xlink:href="#DejaVuSans-69" x="1374.316406"/>
      <use xlink:href="#DejaVuSans-6f" x="1402.099609"/>
      <use xlink:href="#DejaVuSans-6e" x="1463.28125"/>
     </g>
    </g>
   </g>
  </g>
 </g>
 <defs>
  <clipPath id="p8712f36433">
   <rect x="47.72" y="26.88" width="217.495" height="147.16"/>
  </clipPath>
  <clipPath id="pcef9ac505f">
   <rect x="298.065" y="26.88" width="217.495" height="147.16"/>
  </clipPath>
 </defs>
</svg>
