<?xml version="1.0" encoding="utf-8" standalone="no"?>
<!DOCTYPE svg PUBLIC "-//W3C//DTD SVG 1.1//EN"
  "http://www.w3.org/Graphics/SVG/1.1/DTD/svg11.dtd">
<svg xmlns:xlink="http://www.w3.org/1999/xlink" width="720pt" height="216pt" viewBox="0 0 720 216" xmlns="http://www.w3.org/2000/svg" version="1.1">
 <metadata>
  <rdf:RDF xmlns:dc="http://purl.org/dc/elements/1.1/" xmlns:cc="http://creativecommons.org/ns#" xmlns:rdf="http://www.w3.org/1999/02/22-rdf-syntax-ns#">
   <cc:Work>
    <dc:type rdf:resource="http://purl.org/dc/dcmitype/StillImage"/>
    <dc:date>2024-01-15T21:06:22.164296</dc:date>
    <dc:format>image/svg+xml</dc:format>
    <dc:creator>
     <cc:Agent>
      <dc:title>Matplotlib v3.5.1, https://matplotlib.org/</dc:title>
     </cc:Agent>
    </dc:creator>
   </cc:Work>
  </rdf:RDF>
 </metadata>
 <defs>
  <style type="text/css">*{stroke-linejoin: round; stroke-linecap: butt}</style>
 </defs>
 <g id="figure_1">
  <g id="patch_1">
   <path d="M 0 216 
L 720 216 
L 720 0 
L 0 0 
z
" style="fill: #ffffff"/>
  </g>
  <g id="axes_1">
   <g id="patch_2">
    <path d="M 47.72 174.04 
L 265.215 174.04 
L 265.215 26.88 
L 47.72 26.88 
z
" style="fill: #ffffff"/>
   </g>
   <g id="PolyCollection_1">
    <path d="M 47.72 33.569091 
L 47.72 33.569092 
L 59.167105 34.583618 
L 70.614211 37.60606 
L 82.061316 41.961117 
L 93.508421 47.678903 
L 104.955526 54.187836 
L 116.402632 61.898379 
L 127.849737 69.520545 
L 139.296842 77.256919 
L 150.743947 85.78155 
L 162.191053 93.84748 
L 173.638158 100.68439 
L 185.085263 108.122887 
L 196.532368 115.622793 
L 207.979474 121.656333 
L 219.426579 127.471786 
L 230.873684 133.279521 
L 242.320789 138.407396 
L 253.767895 144.302277 
L 265.215 148.836208 
L 265.215 134.605606 
L 265.215 134.605606 
L 253.767895 130.02771 
L 242.320789 124.890524 
L 230.873684 119.370683 
L 219.426579 113.306343 
L 207.979474 107.50734 
L 196.532368 101.35953 
L 185.085263 94.675176 
L 173.638158 88.321572 
L 162.191053 81.535494 
L 150.743947 74.543715 
L 139.296842 67.947269 
L 127.849737 61.629663 
L 116.402632 55.17767 
L 104.955526 49.31925 
L 93.508421 44.270714 
L 82.061316 39.831122 
L 70.614211 36.604972 
L 59.167105 34.301627 
L 47.72 33.569091 
z
" clip-path="url(#p7783ef5935)" style="fill: #1f77b4; fill-opacity: 0.4"/>
   </g>
   <g id="PolyCollection_2">
    <path d="M 47.72 33.569257 
L 47.72 33.569291 
L 59.167105 34.206812 
L 70.614211 35.688752 
L 82.061316 38.030888 
L 93.508421 41.343976 
L 104.955526 45.184022 
L 116.402632 50.347651 
L 127.849737 55.672449 
L 139.296842 61.604201 
L 150.743947 68.420018 
L 162.191053 75.387771 
L 173.638158 81.778333 
L 185.085263 88.733348 
L 196.532368 96.20322 
L 207.979474 102.040791 
L 219.426579 108.340034 
L 230.873684 114.815962 
L 242.320789 120.478452 
L 253.767895 127.023281 
L 265.215 131.777798 
L 265.215 116.658229 
L 265.215 116.658229 
L 253.767895 111.885653 
L 242.320789 106.646752 
L 230.873684 101.01161 
L 219.426579 94.963155 
L 207.979474 89.488825 
L 196.532368 83.211506 
L 185.085263 77.296435 
L 173.638158 71.546851 
L 162.191053 65.593135 
L 150.743947 59.972833 
L 139.296842 54.619894 
L 127.849737 50.041587 
L 116.402632 45.696922 
L 104.955526 42.287836 
L 93.508421 39.256369 
L 82.061316 36.849617 
L 70.614211 35.178635 
L 59.167105 34.034045 
L 47.72 33.569257 
z
" clip-path="url(#p7783ef5935)" style="fill: #ff7f0e; fill-opacity: 0.4"/>
   </g>
   <g id="PolyCollection_3">
    <path d="M 47.72 33.569099 
L 47.72 33.569103 
L 59.167105 34.333117 
L 70.614211 35.786727 
L 82.061316 37.894224 
L 93.508421 40.480234 
L 104.955526 43.598063 
L 116.402632 47.133886 
L 127.849737 50.902288 
L 139.296842 54.49839 
L 150.743947 59.074439 
L 162.191053 62.952619 
L 173.638158 66.808584 
L 185.085263 70.988396 
L 196.532368 74.702661 
L 207.979474 78.24169 
L 219.426579 82.289549 
L 230.873684 86.431934 
L 242.320789 89.715099 
L 253.767895 93.248143 
L 265.215 96.386031 
L 265.215 85.689203 
L 265.215 85.689203 
L 253.767895 82.547 
L 242.320789 78.910661 
L 230.873684 75.583735 
L 219.426579 72.085334 
L 207.979474 68.595867 
L 196.532368 64.892614 
L 185.085263 61.690466 
L 173.638158 58.58671 
L 162.191053 55.589062 
L 150.743947 52.245123 
L 139.296842 49.215453 
L 127.849737 46.196253 
L 116.402632 43.269361 
L 104.955526 40.780048 
L 93.508421 38.576723 
L 82.061316 36.641791 
L 70.614211 35.234061 
L 59.167105 34.164354 
L 47.72 33.569099 
z
" clip-path="url(#p7783ef5935)" style="fill: #2ca02c; fill-opacity: 0.4"/>
   </g>
   <g id="PolyCollection_4">
    <path d="M 47.72 33.569998 
L 47.72 33.570221 
L 59.167105 34.165813 
L 70.614211 35.161762 
L 82.061316 36.705648 
L 93.508421 38.77584 
L 104.955526 41.198707 
L 116.402632 44.111011 
L 127.849737 47.406737 
L 139.296842 50.76731 
L 150.743947 55.137379 
L 162.191053 59.032979 
L 173.638158 62.929124 
L 185.085263 67.172478 
L 196.532368 71.02356 
L 207.979474 74.634364 
L 219.426579 78.895243 
L 230.873684 83.103216 
L 242.320789 86.69486 
L 253.767895 90.546448 
L 265.215 94.026022 
L 265.215 83.535757 
L 265.215 83.535757 
L 253.767895 80.367359 
L 242.320789 76.684055 
L 230.873684 73.273412 
L 219.426579 69.549019 
L 207.979474 66.080893 
L 196.532368 62.27545 
L 185.085263 58.948886 
L 173.638158 55.68808 
L 162.191053 52.498354 
L 150.743947 49.163137 
L 139.296842 46.140696 
L 127.849737 43.368281 
L 116.402632 40.849562 
L 104.955526 38.842837 
L 93.508421 37.13258 
L 82.061316 35.781007 
L 70.614211 34.772577 
L 59.167105 34.023664 
L 47.72 33.569998 
z
" clip-path="url(#p7783ef5935)" style="fill: #d62728; fill-opacity: 0.4"/>
   </g>
   <g id="PolyCollection_5">
    <path d="M 47.72 33.569099 
L 47.72 33.569104 
L 59.167105 34.59021 
L 70.614211 37.603947 
L 82.061316 41.985686 
L 93.508421 47.752981 
L 104.955526 54.336188 
L 116.402632 61.885424 
L 127.849737 69.49555 
L 139.296842 77.249681 
L 150.743947 85.83955 
L 162.191053 93.825067 
L 173.638158 100.687115 
L 185.085263 108.080044 
L 196.532368 115.778225 
L 207.979474 121.733112 
L 219.426579 127.644386 
L 230.873684 133.304748 
L 242.320789 138.612978 
L 253.767895 144.694943 
L 265.215 149.796581 
L 265.215 135.696368 
L 265.215 135.696368 
L 253.767895 130.416337 
L 242.320789 125.565577 
L 230.873684 120.023602 
L 219.426579 113.686664 
L 207.979474 107.454357 
L 196.532368 101.8788 
L 185.085263 94.879242 
L 173.638158 88.667899 
L 162.191053 81.595538 
L 150.743947 74.92708 
L 139.296842 68.16344 
L 127.849737 61.622737 
L 116.402632 55.209583 
L 104.955526 49.428042 
L 93.508421 44.276078 
L 82.061316 39.862188 
L 70.614211 36.61089 
L 59.167105 34.303017 
L 47.72 33.569099 
z
" clip-path="url(#p7783ef5935)" style="fill: #9467bd; fill-opacity: 0.4"/>
   </g>
   <g id="PolyCollection_6">
    <path d="M 47.72 33.569764 
L 47.72 33.569899 
L 59.167105 34.211716 
L 70.614211 35.693668 
L 82.061316 38.03742 
L 93.508421 41.371104 
L 104.955526 45.257792 
L 116.402632 50.372332 
L 127.849737 55.762742 
L 139.296842 61.59227 
L 150.743947 68.436551 
L 162.191053 75.35734 
L 173.638158 81.842959 
L 185.085263 88.797513 
L 196.532368 96.327692 
L 207.979474 102.019528 
L 219.426579 108.483287 
L 230.873684 114.974627 
L 242.320789 120.840497 
L 253.767895 127.076105 
L 265.215 132.292706 
L 265.215 117.24514 
L 265.215 117.24514 
L 253.767895 112.130758 
L 242.320789 107.04445 
L 230.873684 101.352341 
L 219.426579 95.305455 
L 207.979474 89.541554 
L 196.532368 83.474139 
L 185.085263 77.568684 
L 173.638158 71.839969 
L 162.191053 65.61285 
L 150.743947 60.134377 
L 139.296842 54.797321 
L 127.849737 50.003145 
L 116.402632 45.703749 
L 104.955526 42.314408 
L 93.508421 39.28955 
L 82.061316 36.875387 
L 70.614211 35.178728 
L 59.167105 34.035296 
L 47.72 33.569764 
z
" clip-path="url(#p7783ef5935)" style="fill: #8c564b; fill-opacity: 0.4"/>
   </g>
   <g id="PolyCollection_7">
    <path d="M 47.72 46.091944 
L 47.72 49.331739 
L 59.167105 50.64347 
L 70.614211 54.299231 
L 82.061316 59.876566 
L 93.508421 66.739835 
L 104.955526 74.586469 
L 116.402632 83.184001 
L 127.849737 92.010065 
L 139.296842 100.300951 
L 150.743947 109.701612 
L 162.191053 117.983457 
L 173.638158 125.326404 
L 185.085263 133.04802 
L 196.532368 139.919809 
L 207.979474 145.66134 
L 219.426579 150.786329 
L 230.873684 155.680174 
L 242.320789 159.398984 
L 253.767895 163.684207 
L 265.215 167.350909 
L 265.215 150.202581 
L 265.215 150.202581 
L 253.767895 146.468277 
L 242.320789 141.782471 
L 230.873684 136.848846 
L 219.426579 131.312351 
L 207.979474 125.813895 
L 196.532368 120.057472 
L 185.085263 113.324165 
L 173.638158 107.15947 
L 162.191053 100.224928 
L 150.743947 93.04773 
L 139.296842 85.832432 
L 127.849737 78.815593 
L 116.402632 71.492803 
L 104.955526 64.690495 
L 93.508421 58.77096 
L 82.061316 53.565091 
L 70.614211 49.550953 
L 59.167105 47.107409 
L 47.72 46.091944 
z
" clip-path="url(#p7783ef5935)" style="fill: #e377c2; fill-opacity: 0.4"/>
   </g>
   <g id="PolyCollection_8">
    <path d="M 47.72 33.569412 
L 47.72 33.569556 
L 59.167105 33.863488 
L 70.614211 34.046073 
L 82.061316 34.565449 
L 93.508421 35.821951 
L 104.955526 38.034723 
L 116.402632 41.121152 
L 127.849737 45.334155 
L 139.296842 50.304388 
L 150.743947 55.867116 
L 162.191053 61.607113 
L 173.638158 67.589141 
L 185.085263 74.1059 
L 196.532368 80.625076 
L 207.979474 86.352809 
L 219.426579 93.08707 
L 230.873684 99.409006 
L 242.320789 105.555309 
L 253.767895 111.96283 
L 265.215 117.259076 
L 265.215 102.68045 
L 265.215 102.68045 
L 253.767895 97.484798 
L 242.320789 91.686201 
L 230.873684 85.944569 
L 219.426579 79.65979 
L 207.979474 74.524964 
L 196.532368 68.308803 
L 185.085263 62.756234 
L 173.638158 57.141405 
L 162.191053 52.289507 
L 150.743947 47.211084 
L 139.296842 43.002763 
L 127.849737 39.92677 
L 116.402632 37.379211 
L 104.955526 35.720452 
L 93.508421 34.746915 
L 82.061316 34.172373 
L 70.614211 33.926993 
L 59.167105 33.804681 
L 47.72 33.569412 
z
" clip-path="url(#p7783ef5935)" style="fill: #7f7f7f; fill-opacity: 0.4"/>
   </g>
   <g id="matplotlib.axis_1">
    <g id="xtick_1">
     <g id="line2d_1">
      <defs>
       <path id="m3eef34cb37" d="M 0 0 
L 0 3.5 
" style="stroke: #000000; stroke-width: 0.8"/>
      </defs>
      <g>
       <use xlink:href="#m3eef34cb37" x="47.72" y="174.04" style="stroke: #000000; stroke-width: 0.8"/>
      </g>
     </g>
     <g id="text_1">
      <!-- 0.0 -->
      <g transform="translate(39.768438 188.638438)scale(0.1 -0.1)">
       <defs>
        <path id="DejaVuSans-30" d="M 2034 4250 
Q 1547 4250 1301 3770 
Q 1056 3291 1056 2328 
Q 1056 1369 1301 889 
Q 1547 409 2034 409 
Q 2525 409 2770 889 
Q 3016 1369 3016 2328 
Q 3016 3291 2770 3770 
Q 2525 4250 2034 4250 
z
M 2034 4750 
Q 2819 4750 3233 4129 
Q 3647 3509 3647 2328 
Q 3647 1150 3233 529 
Q 2819 -91 2034 -91 
Q 1250 -91 836 529 
Q 422 1150 422 2328 
Q 422 3509 836 4129 
Q 1250 4750 2034 4750 
z
" transform="scale(0.015625)"/>
        <path id="DejaVuSans-2e" d="M 684 794 
L 1344 794 
L 1344 0 
L 684 0 
L 684 794 
z
" transform="scale(0.015625)"/>
       </defs>
       <use xlink:href="#DejaVuSans-30"/>
       <use xlink:href="#DejaVuSans-2e" x="63.623047"/>
       <use xlink:href="#DejaVuSans-30" x="95.410156"/>
      </g>
     </g>
    </g>
    <g id="xtick_2">
     <g id="line2d_2">
      <g>
       <use xlink:href="#m3eef34cb37" x="102.09375" y="174.04" style="stroke: #000000; stroke-width: 0.8"/>
      </g>
     </g>
     <g id="text_2">
      <!-- 0.5 -->
      <g transform="translate(94.142188 188.638438)scale(0.1 -0.1)">
       <defs>
        <path id="DejaVuSans-35" d="M 691 4666 
L 3169 4666 
L 3169 4134 
L 1269 4134 
L 1269 2991 
Q 1406 3038 1543 3061 
Q 1681 3084 1819 3084 
Q 2600 3084 3056 2656 
Q 3513 2228 3513 1497 
Q 3513 744 3044 326 
Q 2575 -91 1722 -91 
Q 1428 -91 1123 -41 
Q 819 9 494 109 
L 494 744 
Q 775 591 1075 516 
Q 1375 441 1709 441 
Q 2250 441 2565 725 
Q 2881 1009 2881 1497 
Q 2881 1984 2565 2268 
Q 2250 2553 1709 2553 
Q 1456 2553 1204 2497 
Q 953 2441 691 2322 
L 691 4666 
z
" transform="scale(0.015625)"/>
       </defs>
       <use xlink:href="#DejaVuSans-30"/>
       <use xlink:href="#DejaVuSans-2e" x="63.623047"/>
       <use xlink:href="#DejaVuSans-35" x="95.410156"/>
      </g>
     </g>
    </g>
    <g id="xtick_3">
     <g id="line2d_3">
      <g>
       <use xlink:href="#m3eef34cb37" x="156.4675" y="174.04" style="stroke: #000000; stroke-width: 0.8"/>
      </g>
     </g>
     <g id="text_3">
      <!-- 1.0 -->
      <g transform="translate(148.515938 188.638438)scale(0.1 -0.1)">
       <defs>
        <path id="DejaVuSans-31" d="M 794 531 
L 1825 531 
L 1825 4091 
L 703 3866 
L 703 4441 
L 1819 4666 
L 2450 4666 
L 2450 531 
L 3481 531 
L 3481 0 
L 794 0 
L 794 531 
z
" transform="scale(0.015625)"/>
       </defs>
       <use xlink:href="#DejaVuSans-31"/>
       <use xlink:href="#DejaVuSans-2e" x="63.623047"/>
       <use xlink:href="#DejaVuSans-30" x="95.410156"/>
      </g>
     </g>
    </g>
    <g id="xtick_4">
     <g id="line2d_4">
      <g>
       <use xlink:href="#m3eef34cb37" x="210.84125" y="174.04" style="stroke: #000000; stroke-width: 0.8"/>
      </g>
     </g>
     <g id="text_4">
      <!-- 1.5 -->
      <g transform="translate(202.889687 188.638438)scale(0.1 -0.1)">
       <use xlink:href="#DejaVuSans-31"/>
       <use xlink:href="#DejaVuSans-2e" x="63.623047"/>
       <use xlink:href="#DejaVuSans-35" x="95.410156"/>
      </g>
     </g>
    </g>
    <g id="xtick_5">
     <g id="line2d_5">
      <g>
       <use xlink:href="#m3eef34cb37" x="265.215" y="174.04" style="stroke: #000000; stroke-width: 0.8"/>
      </g>
     </g>
     <g id="text_5">
      <!-- 2.0 -->
      <g transform="translate(257.263437 188.638438)scale(0.1 -0.1)">
       <defs>
        <path id="DejaVuSans-32" d="M 1228 531 
L 3431 531 
L 3431 0 
L 469 0 
L 469 531 
Q 828 903 1448 1529 
Q 2069 2156 2228 2338 
Q 2531 2678 2651 2914 
Q 2772 3150 2772 3378 
Q 2772 3750 2511 3984 
Q 2250 4219 1831 4219 
Q 1534 4219 1204 4116 
Q 875 4013 500 3803 
L 500 4441 
Q 881 4594 1212 4672 
Q 1544 4750 1819 4750 
Q 2544 4750 2975 4387 
Q 3406 4025 3406 3419 
Q 3406 3131 3298 2873 
Q 3191 2616 2906 2266 
Q 2828 2175 2409 1742 
Q 1991 1309 1228 531 
z
" transform="scale(0.015625)"/>
       </defs>
       <use xlink:href="#DejaVuSans-32"/>
       <use xlink:href="#DejaVuSans-2e" x="63.623047"/>
       <use xlink:href="#DejaVuSans-30" x="95.410156"/>
      </g>
     </g>
    </g>
    <g id="text_6">
     <!-- Influence of surprisal (multiplication) -->
     <g transform="translate(64.320625 202.316563)scale(0.1 -0.1)">
      <defs>
       <path id="DejaVuSans-49" d="M 628 4666 
L 1259 4666 
L 1259 0 
L 628 0 
L 628 4666 
z
" transform="scale(0.015625)"/>
       <path id="DejaVuSans-6e" d="M 3513 2113 
L 3513 0 
L 2938 0 
L 2938 2094 
Q 2938 2591 2744 2837 
Q 2550 3084 2163 3084 
Q 1697 3084 1428 2787 
Q 1159 2491 1159 1978 
L 1159 0 
L 581 0 
L 581 3500 
L 1159 3500 
L 1159 2956 
Q 1366 3272 1645 3428 
Q 1925 3584 2291 3584 
Q 2894 3584 3203 3211 
Q 3513 2838 3513 2113 
z
" transform="scale(0.015625)"/>
       <path id="DejaVuSans-66" d="M 2375 4863 
L 2375 4384 
L 1825 4384 
Q 1516 4384 1395 4259 
Q 1275 4134 1275 3809 
L 1275 3500 
L 2222 3500 
L 2222 3053 
L 1275 3053 
L 1275 0 
L 697 0 
L 697 3053 
L 147 3053 
L 147 3500 
L 697 3500 
L 697 3744 
Q 697 4328 969 4595 
Q 1241 4863 1831 4863 
L 2375 4863 
z
" transform="scale(0.015625)"/>
       <path id="DejaVuSans-6c" d="M 603 4863 
L 1178 4863 
L 1178 0 
L 603 0 
L 603 4863 
z
" transform="scale(0.015625)"/>
       <path id="DejaVuSans-75" d="M 544 1381 
L 544 3500 
L 1119 3500 
L 1119 1403 
Q 1119 906 1312 657 
Q 1506 409 1894 409 
Q 2359 409 2629 706 
Q 2900 1003 2900 1516 
L 2900 3500 
L 3475 3500 
L 3475 0 
L 2900 0 
L 2900 538 
Q 2691 219 2414 64 
Q 2138 -91 1772 -91 
Q 1169 -91 856 284 
Q 544 659 544 1381 
z
M 1991 3584 
L 1991 3584 
z
" transform="scale(0.015625)"/>
       <path id="DejaVuSans-65" d="M 3597 1894 
L 3597 1613 
L 953 1613 
Q 991 1019 1311 708 
Q 1631 397 2203 397 
Q 2534 397 2845 478 
Q 3156 559 3463 722 
L 3463 178 
Q 3153 47 2828 -22 
Q 2503 -91 2169 -91 
Q 1331 -91 842 396 
Q 353 884 353 1716 
Q 353 2575 817 3079 
Q 1281 3584 2069 3584 
Q 2775 3584 3186 3129 
Q 3597 2675 3597 1894 
z
M 3022 2063 
Q 3016 2534 2758 2815 
Q 2500 3097 2075 3097 
Q 1594 3097 1305 2825 
Q 1016 2553 972 2059 
L 3022 2063 
z
" transform="scale(0.015625)"/>
       <path id="DejaVuSans-63" d="M 3122 3366 
L 3122 2828 
Q 2878 2963 2633 3030 
Q 2388 3097 2138 3097 
Q 1578 3097 1268 2742 
Q 959 2388 959 1747 
Q 959 1106 1268 751 
Q 1578 397 2138 397 
Q 2388 397 2633 464 
Q 2878 531 3122 666 
L 3122 134 
Q 2881 22 2623 -34 
Q 2366 -91 2075 -91 
Q 1284 -91 818 406 
Q 353 903 353 1747 
Q 353 2603 823 3093 
Q 1294 3584 2113 3584 
Q 2378 3584 2631 3529 
Q 2884 3475 3122 3366 
z
" transform="scale(0.015625)"/>
       <path id="DejaVuSans-20" transform="scale(0.015625)"/>
       <path id="DejaVuSans-6f" d="M 1959 3097 
Q 1497 3097 1228 2736 
Q 959 2375 959 1747 
Q 959 1119 1226 758 
Q 1494 397 1959 397 
Q 2419 397 2687 759 
Q 2956 1122 2956 1747 
Q 2956 2369 2687 2733 
Q 2419 3097 1959 3097 
z
M 1959 3584 
Q 2709 3584 3137 3096 
Q 3566 2609 3566 1747 
Q 3566 888 3137 398 
Q 2709 -91 1959 -91 
Q 1206 -91 779 398 
Q 353 888 353 1747 
Q 353 2609 779 3096 
Q 1206 3584 1959 3584 
z
" transform="scale(0.015625)"/>
       <path id="DejaVuSans-73" d="M 2834 3397 
L 2834 2853 
Q 2591 2978 2328 3040 
Q 2066 3103 1784 3103 
Q 1356 3103 1142 2972 
Q 928 2841 928 2578 
Q 928 2378 1081 2264 
Q 1234 2150 1697 2047 
L 1894 2003 
Q 2506 1872 2764 1633 
Q 3022 1394 3022 966 
Q 3022 478 2636 193 
Q 2250 -91 1575 -91 
Q 1294 -91 989 -36 
Q 684 19 347 128 
L 347 722 
Q 666 556 975 473 
Q 1284 391 1588 391 
Q 1994 391 2212 530 
Q 2431 669 2431 922 
Q 2431 1156 2273 1281 
Q 2116 1406 1581 1522 
L 1381 1569 
Q 847 1681 609 1914 
Q 372 2147 372 2553 
Q 372 3047 722 3315 
Q 1072 3584 1716 3584 
Q 2034 3584 2315 3537 
Q 2597 3491 2834 3397 
z
" transform="scale(0.015625)"/>
       <path id="DejaVuSans-72" d="M 2631 2963 
Q 2534 3019 2420 3045 
Q 2306 3072 2169 3072 
Q 1681 3072 1420 2755 
Q 1159 2438 1159 1844 
L 1159 0 
L 581 0 
L 581 3500 
L 1159 3500 
L 1159 2956 
Q 1341 3275 1631 3429 
Q 1922 3584 2338 3584 
Q 2397 3584 2469 3576 
Q 2541 3569 2628 3553 
L 2631 2963 
z
" transform="scale(0.015625)"/>
       <path id="DejaVuSans-70" d="M 1159 525 
L 1159 -1331 
L 581 -1331 
L 581 3500 
L 1159 3500 
L 1159 2969 
Q 1341 3281 1617 3432 
Q 1894 3584 2278 3584 
Q 2916 3584 3314 3078 
Q 3713 2572 3713 1747 
Q 3713 922 3314 415 
Q 2916 -91 2278 -91 
Q 1894 -91 1617 61 
Q 1341 213 1159 525 
z
M 3116 1747 
Q 3116 2381 2855 2742 
Q 2594 3103 2138 3103 
Q 1681 3103 1420 2742 
Q 1159 2381 1159 1747 
Q 1159 1113 1420 752 
Q 1681 391 2138 391 
Q 2594 391 2855 752 
Q 3116 1113 3116 1747 
z
" transform="scale(0.015625)"/>
       <path id="DejaVuSans-69" d="M 603 3500 
L 1178 3500 
L 1178 0 
L 603 0 
L 603 3500 
z
M 603 4863 
L 1178 4863 
L 1178 4134 
L 603 4134 
L 603 4863 
z
" transform="scale(0.015625)"/>
       <path id="DejaVuSans-61" d="M 2194 1759 
Q 1497 1759 1228 1600 
Q 959 1441 959 1056 
Q 959 750 1161 570 
Q 1363 391 1709 391 
Q 2188 391 2477 730 
Q 2766 1069 2766 1631 
L 2766 1759 
L 2194 1759 
z
M 3341 1997 
L 3341 0 
L 2766 0 
L 2766 531 
Q 2569 213 2275 61 
Q 1981 -91 1556 -91 
Q 1019 -91 701 211 
Q 384 513 384 1019 
Q 384 1609 779 1909 
Q 1175 2209 1959 2209 
L 2766 2209 
L 2766 2266 
Q 2766 2663 2505 2880 
Q 2244 3097 1772 3097 
Q 1472 3097 1187 3025 
Q 903 2953 641 2809 
L 641 3341 
Q 956 3463 1253 3523 
Q 1550 3584 1831 3584 
Q 2591 3584 2966 3190 
Q 3341 2797 3341 1997 
z
" transform="scale(0.015625)"/>
       <path id="DejaVuSans-28" d="M 1984 4856 
Q 1566 4138 1362 3434 
Q 1159 2731 1159 2009 
Q 1159 1288 1364 580 
Q 1569 -128 1984 -844 
L 1484 -844 
Q 1016 -109 783 600 
Q 550 1309 550 2009 
Q 550 2706 781 3412 
Q 1013 4119 1484 4856 
L 1984 4856 
z
" transform="scale(0.015625)"/>
       <path id="DejaVuSans-6d" d="M 3328 2828 
Q 3544 3216 3844 3400 
Q 4144 3584 4550 3584 
Q 5097 3584 5394 3201 
Q 5691 2819 5691 2113 
L 5691 0 
L 5113 0 
L 5113 2094 
Q 5113 2597 4934 2840 
Q 4756 3084 4391 3084 
Q 3944 3084 3684 2787 
Q 3425 2491 3425 1978 
L 3425 0 
L 2847 0 
L 2847 2094 
Q 2847 2600 2669 2842 
Q 2491 3084 2119 3084 
Q 1678 3084 1418 2786 
Q 1159 2488 1159 1978 
L 1159 0 
L 581 0 
L 581 3500 
L 1159 3500 
L 1159 2956 
Q 1356 3278 1631 3431 
Q 1906 3584 2284 3584 
Q 2666 3584 2933 3390 
Q 3200 3197 3328 2828 
z
" transform="scale(0.015625)"/>
       <path id="DejaVuSans-74" d="M 1172 4494 
L 1172 3500 
L 2356 3500 
L 2356 3053 
L 1172 3053 
L 1172 1153 
Q 1172 725 1289 603 
Q 1406 481 1766 481 
L 2356 481 
L 2356 0 
L 1766 0 
Q 1100 0 847 248 
Q 594 497 594 1153 
L 594 3053 
L 172 3053 
L 172 3500 
L 594 3500 
L 594 4494 
L 1172 4494 
z
" transform="scale(0.015625)"/>
       <path id="DejaVuSans-29" d="M 513 4856 
L 1013 4856 
Q 1481 4119 1714 3412 
Q 1947 2706 1947 2009 
Q 1947 1309 1714 600 
Q 1481 -109 1013 -844 
L 513 -844 
Q 928 -128 1133 580 
Q 1338 1288 1338 2009 
Q 1338 2731 1133 3434 
Q 928 4138 513 4856 
z
" transform="scale(0.015625)"/>
      </defs>
      <use xlink:href="#DejaVuSans-49"/>
      <use xlink:href="#DejaVuSans-6e" x="29.492188"/>
      <use xlink:href="#DejaVuSans-66" x="92.871094"/>
      <use xlink:href="#DejaVuSans-6c" x="128.076172"/>
      <use xlink:href="#DejaVuSans-75" x="155.859375"/>
      <use xlink:href="#DejaVuSans-65" x="219.238281"/>
      <use xlink:href="#DejaVuSans-6e" x="280.761719"/>
      <use xlink:href="#DejaVuSans-63" x="344.140625"/>
      <use xlink:href="#DejaVuSans-65" x="399.121094"/>
      <use xlink:href="#DejaVuSans-20" x="460.644531"/>
      <use xlink:href="#DejaVuSans-6f" x="492.431641"/>
      <use xlink:href="#DejaVuSans-66" x="553.613281"/>
      <use xlink:href="#DejaVuSans-20" x="588.818359"/>
      <use xlink:href="#DejaVuSans-73" x="620.605469"/>
      <use xlink:href="#DejaVuSans-75" x="672.705078"/>
      <use xlink:href="#DejaVuSans-72" x="736.083984"/>
      <use xlink:href="#DejaVuSans-70" x="777.197266"/>
      <use xlink:href="#DejaVuSans-72" x="840.673828"/>
      <use xlink:href="#DejaVuSans-69" x="881.787109"/>
      <use xlink:href="#DejaVuSans-73" x="909.570312"/>
      <use xlink:href="#DejaVuSans-61" x="961.669922"/>
      <use xlink:href="#DejaVuSans-6c" x="1022.949219"/>
      <use xlink:href="#DejaVuSans-20" x="1050.732422"/>
      <use xlink:href="#DejaVuSans-28" x="1082.519531"/>
      <use xlink:href="#DejaVuSans-6d" x="1121.533203"/>
      <use xlink:href="#DejaVuSans-75" x="1218.945312"/>
      <use xlink:href="#DejaVuSans-6c" x="1282.324219"/>
      <use xlink:href="#DejaVuSans-74" x="1310.107422"/>
      <use xlink:href="#DejaVuSans-69" x="1349.316406"/>
      <use xlink:href="#DejaVuSans-70" x="1377.099609"/>
      <use xlink:href="#DejaVuSans-6c" x="1440.576172"/>
      <use xlink:href="#DejaVuSans-69" x="1468.359375"/>
      <use xlink:href="#DejaVuSans-63" x="1496.142578"/>
      <use xlink:href="#DejaVuSans-61" x="1551.123047"/>
      <use xlink:href="#DejaVuSans-74" x="1612.402344"/>
      <use xlink:href="#DejaVuSans-69" x="1651.611328"/>
      <use xlink:href="#DejaVuSans-6f" x="1679.394531"/>
      <use xlink:href="#DejaVuSans-6e" x="1740.576172"/>
      <use xlink:href="#DejaVuSans-29" x="1803.955078"/>
     </g>
    </g>
   </g>
   <g id="matplotlib.axis_2">
    <g id="ytick_1">
     <g id="line2d_6">
      <defs>
       <path id="m990bdce3d0" d="M 0 0 
L -3.5 0 
" style="stroke: #000000; stroke-width: 0.8"/>
      </defs>
      <g>
       <use xlink:href="#m990bdce3d0" x="47.72" y="147.083595" style="stroke: #000000; stroke-width: 0.8"/>
      </g>
     </g>
     <g id="text_7">
      <!-- 0.4 -->
      <g transform="translate(24.816875 150.882814)scale(0.1 -0.1)">
       <defs>
        <path id="DejaVuSans-34" d="M 2419 4116 
L 825 1625 
L 2419 1625 
L 2419 4116 
z
M 2253 4666 
L 3047 4666 
L 3047 1625 
L 3713 1625 
L 3713 1100 
L 3047 1100 
L 3047 0 
L 2419 0 
L 2419 1100 
L 313 1100 
L 313 1709 
L 2253 4666 
z
" transform="scale(0.015625)"/>
       </defs>
       <use xlink:href="#DejaVuSans-30"/>
       <use xlink:href="#DejaVuSans-2e" x="63.623047"/>
       <use xlink:href="#DejaVuSans-34" x="95.410156"/>
      </g>
     </g>
    </g>
    <g id="ytick_2">
     <g id="line2d_7">
      <g>
       <use xlink:href="#m990bdce3d0" x="47.72" y="109.245426" style="stroke: #000000; stroke-width: 0.8"/>
      </g>
     </g>
     <g id="text_8">
      <!-- 0.6 -->
      <g transform="translate(24.816875 113.044645)scale(0.1 -0.1)">
       <defs>
        <path id="DejaVuSans-36" d="M 2113 2584 
Q 1688 2584 1439 2293 
Q 1191 2003 1191 1497 
Q 1191 994 1439 701 
Q 1688 409 2113 409 
Q 2538 409 2786 701 
Q 3034 994 3034 1497 
Q 3034 2003 2786 2293 
Q 2538 2584 2113 2584 
z
M 3366 4563 
L 3366 3988 
Q 3128 4100 2886 4159 
Q 2644 4219 2406 4219 
Q 1781 4219 1451 3797 
Q 1122 3375 1075 2522 
Q 1259 2794 1537 2939 
Q 1816 3084 2150 3084 
Q 2853 3084 3261 2657 
Q 3669 2231 3669 1497 
Q 3669 778 3244 343 
Q 2819 -91 2113 -91 
Q 1303 -91 875 529 
Q 447 1150 447 2328 
Q 447 3434 972 4092 
Q 1497 4750 2381 4750 
Q 2619 4750 2861 4703 
Q 3103 4656 3366 4563 
z
" transform="scale(0.015625)"/>
       </defs>
       <use xlink:href="#DejaVuSans-30"/>
       <use xlink:href="#DejaVuSans-2e" x="63.623047"/>
       <use xlink:href="#DejaVuSans-36" x="95.410156"/>
      </g>
     </g>
    </g>
    <g id="ytick_3">
     <g id="line2d_8">
      <g>
       <use xlink:href="#m990bdce3d0" x="47.72" y="71.407257" style="stroke: #000000; stroke-width: 0.8"/>
      </g>
     </g>
     <g id="text_9">
      <!-- 0.8 -->
      <g transform="translate(24.816875 75.206476)scale(0.1 -0.1)">
       <defs>
        <path id="DejaVuSans-38" d="M 2034 2216 
Q 1584 2216 1326 1975 
Q 1069 1734 1069 1313 
Q 1069 891 1326 650 
Q 1584 409 2034 409 
Q 2484 409 2743 651 
Q 3003 894 3003 1313 
Q 3003 1734 2745 1975 
Q 2488 2216 2034 2216 
z
M 1403 2484 
Q 997 2584 770 2862 
Q 544 3141 544 3541 
Q 544 4100 942 4425 
Q 1341 4750 2034 4750 
Q 2731 4750 3128 4425 
Q 3525 4100 3525 3541 
Q 3525 3141 3298 2862 
Q 3072 2584 2669 2484 
Q 3125 2378 3379 2068 
Q 3634 1759 3634 1313 
Q 3634 634 3220 271 
Q 2806 -91 2034 -91 
Q 1263 -91 848 271 
Q 434 634 434 1313 
Q 434 1759 690 2068 
Q 947 2378 1403 2484 
z
M 1172 3481 
Q 1172 3119 1398 2916 
Q 1625 2713 2034 2713 
Q 2441 2713 2670 2916 
Q 2900 3119 2900 3481 
Q 2900 3844 2670 4047 
Q 2441 4250 2034 4250 
Q 1625 4250 1398 4047 
Q 1172 3844 1172 3481 
z
" transform="scale(0.015625)"/>
       </defs>
       <use xlink:href="#DejaVuSans-30"/>
       <use xlink:href="#DejaVuSans-2e" x="63.623047"/>
       <use xlink:href="#DejaVuSans-38" x="95.410156"/>
      </g>
     </g>
    </g>
    <g id="ytick_4">
     <g id="line2d_9">
      <g>
       <use xlink:href="#m990bdce3d0" x="47.72" y="33.569088" style="stroke: #000000; stroke-width: 0.8"/>
      </g>
     </g>
     <g id="text_10">
      <!-- 1.0 -->
      <g transform="translate(24.816875 37.368307)scale(0.1 -0.1)">
       <use xlink:href="#DejaVuSans-31"/>
       <use xlink:href="#DejaVuSans-2e" x="63.623047"/>
       <use xlink:href="#DejaVuSans-30" x="95.410156"/>
      </g>
     </g>
    </g>
    <g id="text_11">
     <!-- R-value -->
     <g transform="translate(18.737188 119.064687)rotate(-90)scale(0.1 -0.1)">
      <defs>
       <path id="DejaVuSans-52" d="M 2841 2188 
Q 3044 2119 3236 1894 
Q 3428 1669 3622 1275 
L 4263 0 
L 3584 0 
L 2988 1197 
Q 2756 1666 2539 1819 
Q 2322 1972 1947 1972 
L 1259 1972 
L 1259 0 
L 628 0 
L 628 4666 
L 2053 4666 
Q 2853 4666 3247 4331 
Q 3641 3997 3641 3322 
Q 3641 2881 3436 2590 
Q 3231 2300 2841 2188 
z
M 1259 4147 
L 1259 2491 
L 2053 2491 
Q 2509 2491 2742 2702 
Q 2975 2913 2975 3322 
Q 2975 3731 2742 3939 
Q 2509 4147 2053 4147 
L 1259 4147 
z
" transform="scale(0.015625)"/>
       <path id="DejaVuSans-2d" d="M 313 2009 
L 1997 2009 
L 1997 1497 
L 313 1497 
L 313 2009 
z
" transform="scale(0.015625)"/>
       <path id="DejaVuSans-76" d="M 191 3500 
L 800 3500 
L 1894 563 
L 2988 3500 
L 3597 3500 
L 2284 0 
L 1503 0 
L 191 3500 
z
" transform="scale(0.015625)"/>
      </defs>
      <use xlink:href="#DejaVuSans-52"/>
      <use xlink:href="#DejaVuSans-2d" x="65.482422"/>
      <use xlink:href="#DejaVuSans-76" x="98.941406"/>
      <use xlink:href="#DejaVuSans-61" x="158.121094"/>
      <use xlink:href="#DejaVuSans-6c" x="219.400391"/>
      <use xlink:href="#DejaVuSans-75" x="247.183594"/>
      <use xlink:href="#DejaVuSans-65" x="310.5625"/>
     </g>
    </g>
   </g>
   <g id="line2d_10">
    <path d="M 47.72 33.569091 
L 59.167105 34.442623 
L 70.614211 37.105516 
L 82.061316 40.89612 
L 93.508421 45.974808 
L 104.955526 51.753543 
L 116.402632 58.538025 
L 127.849737 65.575104 
L 139.296842 72.602094 
L 150.743947 80.162632 
L 162.191053 87.691487 
L 173.638158 94.502981 
L 185.085263 101.399032 
L 196.532368 108.491161 
L 207.979474 114.581837 
L 219.426579 120.389065 
L 230.873684 126.325102 
L 242.320789 131.64896 
L 253.767895 137.164994 
L 265.215 141.720907 
" clip-path="url(#p7783ef5935)" style="fill: none; stroke: #1f77b4; stroke-width: 1.5; stroke-linecap: square"/>
   </g>
   <g id="line2d_11">
    <path d="M 47.72 33.569274 
L 59.167105 34.120429 
L 70.614211 35.433693 
L 82.061316 37.440252 
L 93.508421 40.300172 
L 104.955526 43.735929 
L 116.402632 48.022286 
L 127.849737 52.857018 
L 139.296842 58.112048 
L 150.743947 64.196426 
L 162.191053 70.490453 
L 173.638158 76.662592 
L 185.085263 83.014891 
L 196.532368 89.707363 
L 207.979474 95.764808 
L 219.426579 101.651595 
L 230.873684 107.913786 
L 242.320789 113.562602 
L 253.767895 119.454467 
L 265.215 124.218014 
" clip-path="url(#p7783ef5935)" style="fill: none; stroke: #ff7f0e; stroke-width: 1.5; stroke-linecap: square"/>
   </g>
   <g id="line2d_12">
    <path d="M 47.72 33.569101 
L 59.167105 34.248736 
L 70.614211 35.510394 
L 82.061316 37.268008 
L 93.508421 39.528478 
L 104.955526 42.189055 
L 116.402632 45.201623 
L 127.849737 48.54927 
L 139.296842 51.856922 
L 150.743947 55.659781 
L 162.191053 59.27084 
L 173.638158 62.697647 
L 185.085263 66.339431 
L 196.532368 69.797637 
L 207.979474 73.418778 
L 219.426579 77.187441 
L 230.873684 81.007835 
L 242.320789 84.31288 
L 253.767895 87.897571 
L 265.215 91.037617 
" clip-path="url(#p7783ef5935)" style="fill: none; stroke: #2ca02c; stroke-width: 1.5; stroke-linecap: square"/>
   </g>
   <g id="line2d_13">
    <path d="M 47.72 33.570109 
L 59.167105 34.094739 
L 70.614211 34.967169 
L 82.061316 36.243328 
L 93.508421 37.95421 
L 104.955526 40.020772 
L 116.402632 42.480286 
L 127.849737 45.387509 
L 139.296842 48.454003 
L 150.743947 52.150258 
L 162.191053 55.765667 
L 173.638158 59.308602 
L 185.085263 63.060682 
L 196.532368 66.649505 
L 207.979474 70.357628 
L 219.426579 74.222131 
L 230.873684 78.188314 
L 242.320789 81.689458 
L 253.767895 85.456903 
L 265.215 88.780889 
" clip-path="url(#p7783ef5935)" style="fill: none; stroke: #d62728; stroke-width: 1.5; stroke-linecap: square"/>
   </g>
   <g id="line2d_14">
    <path d="M 47.72 33.569102 
L 59.167105 34.446614 
L 70.614211 37.107418 
L 82.061316 40.923937 
L 93.508421 46.01453 
L 104.955526 51.882115 
L 116.402632 58.547504 
L 127.849737 65.559143 
L 139.296842 72.70656 
L 150.743947 80.383315 
L 162.191053 87.710302 
L 173.638158 94.677507 
L 185.085263 101.479643 
L 196.532368 108.828512 
L 207.979474 114.593734 
L 219.426579 120.665525 
L 230.873684 126.664175 
L 242.320789 132.089277 
L 253.767895 137.55564 
L 265.215 142.746474 
" clip-path="url(#p7783ef5935)" style="fill: none; stroke: #9467bd; stroke-width: 1.5; stroke-linecap: square"/>
   </g>
   <g id="line2d_15">
    <path d="M 47.72 33.569831 
L 59.167105 34.123506 
L 70.614211 35.436198 
L 82.061316 37.456404 
L 93.508421 40.330327 
L 104.955526 43.7861 
L 116.402632 48.038041 
L 127.849737 52.882944 
L 139.296842 58.194796 
L 150.743947 64.285464 
L 162.191053 70.485095 
L 173.638158 76.841464 
L 185.085263 83.183099 
L 196.532368 89.900916 
L 207.979474 95.780541 
L 219.426579 101.894371 
L 230.873684 108.163484 
L 242.320789 113.942473 
L 253.767895 119.603432 
L 265.215 124.768923 
" clip-path="url(#p7783ef5935)" style="fill: none; stroke: #8c564b; stroke-width: 1.5; stroke-linecap: square"/>
   </g>
   <g id="line2d_16">
    <path d="M 47.72 47.711841 
L 59.167105 48.87544 
L 70.614211 51.925092 
L 82.061316 56.720829 
L 93.508421 62.755398 
L 104.955526 69.638482 
L 116.402632 77.338402 
L 127.849737 85.412829 
L 139.296842 93.066691 
L 150.743947 101.374671 
L 162.191053 109.104193 
L 173.638158 116.242937 
L 185.085263 123.186093 
L 196.532368 129.988641 
L 207.979474 135.737617 
L 219.426579 141.04934 
L 230.873684 146.26451 
L 242.320789 150.590727 
L 253.767895 155.076242 
L 265.215 158.776745 
" clip-path="url(#p7783ef5935)" style="fill: none; stroke: #e377c2; stroke-width: 1.5; stroke-linecap: square"/>
   </g>
   <g id="line2d_17">
    <path d="M 47.72 33.569484 
L 59.167105 33.834084 
L 70.614211 33.986533 
L 82.061316 34.368911 
L 93.508421 35.284433 
L 104.955526 36.877587 
L 116.402632 39.250181 
L 127.849737 42.630463 
L 139.296842 46.653575 
L 150.743947 51.5391 
L 162.191053 56.94831 
L 173.638158 62.365273 
L 185.085263 68.431067 
L 196.532368 74.466939 
L 207.979474 80.438887 
L 219.426579 86.37343 
L 230.873684 92.676787 
L 242.320789 98.620755 
L 253.767895 104.723814 
L 265.215 109.969763 
" clip-path="url(#p7783ef5935)" style="fill: none; stroke: #7f7f7f; stroke-width: 1.5; stroke-linecap: square"/>
   </g>
   <g id="patch_3">
    <path d="M 47.72 174.04 
L 47.72 26.88 
" style="fill: none; stroke: #000000; stroke-width: 0.8; stroke-linejoin: miter; stroke-linecap: square"/>
   </g>
   <g id="patch_4">
    <path d="M 47.72 174.04 
L 265.215 174.04 
" style="fill: none; stroke: #000000; stroke-width: 0.8; stroke-linejoin: miter; stroke-linecap: square"/>
   </g>
   <g id="text_12">
    <!-- Node * surprisal -->
    <g transform="translate(108.18625 20.88)scale(0.12 -0.12)">
     <defs>
      <path id="DejaVuSans-4e" d="M 628 4666 
L 1478 4666 
L 3547 763 
L 3547 4666 
L 4159 4666 
L 4159 0 
L 3309 0 
L 1241 3903 
L 1241 0 
L 628 0 
L 628 4666 
z
" transform="scale(0.015625)"/>
      <path id="DejaVuSans-64" d="M 2906 2969 
L 2906 4863 
L 3481 4863 
L 3481 0 
L 2906 0 
L 2906 525 
Q 2725 213 2448 61 
Q 2172 -91 1784 -91 
Q 1150 -91 751 415 
Q 353 922 353 1747 
Q 353 2572 751 3078 
Q 1150 3584 1784 3584 
Q 2172 3584 2448 3432 
Q 2725 3281 2906 2969 
z
M 947 1747 
Q 947 1113 1208 752 
Q 1469 391 1925 391 
Q 2381 391 2643 752 
Q 2906 1113 2906 1747 
Q 2906 2381 2643 2742 
Q 2381 3103 1925 3103 
Q 1469 3103 1208 2742 
Q 947 2381 947 1747 
z
" transform="scale(0.015625)"/>
      <path id="DejaVuSans-2a" d="M 3009 3897 
L 1888 3291 
L 3009 2681 
L 2828 2375 
L 1778 3009 
L 1778 1831 
L 1422 1831 
L 1422 3009 
L 372 2375 
L 191 2681 
L 1313 3291 
L 191 3897 
L 372 4206 
L 1422 3572 
L 1422 4750 
L 1778 4750 
L 1778 3572 
L 2828 4206 
L 3009 3897 
z
" transform="scale(0.015625)"/>
     </defs>
     <use xlink:href="#DejaVuSans-4e"/>
     <use xlink:href="#DejaVuSans-6f" x="74.804688"/>
     <use xlink:href="#DejaVuSans-64" x="135.986328"/>
     <use xlink:href="#DejaVuSans-65" x="199.462891"/>
     <use xlink:href="#DejaVuSans-20" x="260.986328"/>
     <use xlink:href="#DejaVuSans-2a" x="292.773438"/>
     <use xlink:href="#DejaVuSans-20" x="342.773438"/>
     <use xlink:href="#DejaVuSans-73" x="374.560547"/>
     <use xlink:href="#DejaVuSans-75" x="426.660156"/>
     <use xlink:href="#DejaVuSans-72" x="490.039062"/>
     <use xlink:href="#DejaVuSans-70" x="531.152344"/>
     <use xlink:href="#DejaVuSans-72" x="594.628906"/>
     <use xlink:href="#DejaVuSans-69" x="635.742188"/>
     <use xlink:href="#DejaVuSans-73" x="663.525391"/>
     <use xlink:href="#DejaVuSans-61" x="715.625"/>
     <use xlink:href="#DejaVuSans-6c" x="776.904297"/>
    </g>
   </g>
  </g>
  <g id="axes_2">
   <g id="patch_5">
    <path d="M 298.065 174.04 
L 515.56 174.04 
L 515.56 26.88 
L 298.065 26.88 
z
" style="fill: #ffffff"/>
   </g>
   <g id="PolyCollection_9">
    <path d="M 298.065 33.569091 
L 298.065 33.569092 
L 309.512105 34.731705 
L 320.959211 38.053427 
L 332.406316 42.84192 
L 343.853421 48.918021 
L 355.300526 55.798829 
L 366.747632 63.848448 
L 378.194737 71.574096 
L 389.641842 79.580764 
L 401.088947 87.768564 
L 412.536053 95.942653 
L 423.983158 103.104749 
L 435.430263 110.583973 
L 446.877368 117.557418 
L 458.324474 124.355219 
L 469.771579 130.934924 
L 481.218684 136.696653 
L 492.665789 142.625482 
L 504.112895 147.99555 
L 515.56 153.038873 
L 515.56 138.813838 
L 515.56 138.813838 
L 504.112895 134.063983 
L 492.665789 129.068119 
L 481.218684 124.034562 
L 469.771579 118.594652 
L 458.324474 112.456291 
L 446.877368 106.09508 
L 435.430263 99.581247 
L 423.983158 92.904893 
L 412.536053 85.583607 
L 401.088947 77.844671 
L 389.641842 70.953764 
L 378.194737 63.608917 
L 366.747632 56.881426 
L 355.300526 50.496995 
L 343.853421 44.737968 
L 332.406316 40.219908 
L 320.959211 36.788861 
L 309.512105 34.421009 
L 298.065 33.569091 
z
" clip-path="url(#p26331c0f72)" style="fill: #1f77b4; fill-opacity: 0.4"/>
   </g>
   <g id="PolyCollection_10">
    <path d="M 298.065 33.569257 
L 298.065 33.569291 
L 309.512105 34.735763 
L 320.959211 38.058834 
L 332.406316 42.856781 
L 343.853421 48.941582 
L 355.300526 55.827789 
L 366.747632 63.885654 
L 378.194737 71.643847 
L 389.641842 79.673822 
L 401.088947 87.897592 
L 412.536053 96.115836 
L 423.983158 103.323964 
L 435.430263 110.868474 
L 446.877368 117.868597 
L 458.324474 124.753223 
L 469.771579 131.304563 
L 481.218684 137.11588 
L 492.665789 143.091283 
L 504.112895 148.46023 
L 515.56 153.52409 
L 515.56 139.111289 
L 515.56 139.111289 
L 504.112895 134.33961 
L 492.665789 129.361552 
L 481.218684 124.381455 
L 469.771579 118.92703 
L 458.324474 112.802934 
L 446.877368 106.437925 
L 435.430263 99.894152 
L 423.983158 93.184225 
L 412.536053 85.840022 
L 401.088947 78.067631 
L 389.641842 71.147833 
L 378.194737 63.769605 
L 366.747632 57.022243 
L 355.300526 50.597903 
L 343.853421 44.810292 
L 332.406316 40.249708 
L 320.959211 36.802316 
L 309.512105 34.424012 
L 298.065 33.569257 
z
" clip-path="url(#p26331c0f72)" style="fill: #ff7f0e; fill-opacity: 0.4"/>
   </g>
   <g id="PolyCollection_11">
    <path d="M 298.065 33.569099 
L 298.065 33.569103 
L 309.512105 34.73486 
L 320.959211 38.064082 
L 332.406316 42.856111 
L 343.853421 48.930081 
L 355.300526 55.824886 
L 366.747632 63.866246 
L 378.194737 71.609725 
L 389.641842 79.658978 
L 401.088947 87.843702 
L 412.536053 96.108046 
L 423.983158 103.335481 
L 435.430263 110.96804 
L 446.877368 118.051927 
L 458.324474 125.048301 
L 469.771579 131.724441 
L 481.218684 137.588214 
L 492.665789 143.667526 
L 504.112895 149.033483 
L 515.56 154.123128 
L 515.56 138.517744 
L 515.56 138.517744 
L 504.112895 133.847722 
L 492.665789 128.811901 
L 481.218684 123.822099 
L 469.771579 118.440463 
L 458.324474 112.400618 
L 446.877368 106.116 
L 435.430263 99.612157 
L 423.983158 93.01524 
L 412.536053 85.741817 
L 401.088947 78.018419 
L 389.641842 71.145542 
L 378.194737 63.738391 
L 366.747632 56.993743 
L 355.300526 50.569922 
L 343.853421 44.779179 
L 332.406316 40.239101 
L 320.959211 36.801067 
L 309.512105 34.42372 
L 298.065 33.569099 
z
" clip-path="url(#p26331c0f72)" style="fill: #2ca02c; fill-opacity: 0.4"/>
   </g>
   <g id="PolyCollection_12">
    <path d="M 298.065 33.569998 
L 298.065 33.570221 
L 309.512105 34.737272 
L 320.959211 38.068431 
L 332.406316 42.865535 
L 343.853421 48.942111 
L 355.300526 55.844324 
L 366.747632 63.882858 
L 378.194737 71.646083 
L 389.641842 79.716858 
L 401.088947 87.965816 
L 412.536053 96.262237 
L 423.983158 103.498694 
L 435.430263 111.166404 
L 446.877368 118.254254 
L 458.324474 125.214319 
L 469.771579 131.829048 
L 481.218684 137.694349 
L 492.665789 143.691762 
L 504.112895 149.085933 
L 515.56 154.185677 
L 515.56 139.015692 
L 515.56 139.015692 
L 504.112895 134.261382 
L 492.665789 129.179627 
L 481.218684 124.125004 
L 469.771579 118.655984 
L 458.324474 112.569033 
L 446.877368 106.228435 
L 435.430263 99.655384 
L 423.983158 93.022715 
L 412.536053 85.749371 
L 401.088947 78.024188 
L 389.641842 71.141579 
L 378.194737 63.748786 
L 366.747632 57.022097 
L 355.300526 50.583332 
L 343.853421 44.794662 
L 332.406316 40.247053 
L 320.959211 36.803204 
L 309.512105 34.426066 
L 298.065 33.569998 
z
" clip-path="url(#p26331c0f72)" style="fill: #d62728; fill-opacity: 0.4"/>
   </g>
   <g id="PolyCollection_13">
    <path d="M 298.065 33.569099 
L 298.065 33.569104 
L 309.512105 34.733083 
L 320.959211 38.04596 
L 332.406316 42.869224 
L 343.853421 48.942016 
L 355.300526 55.764179 
L 366.747632 63.872183 
L 378.194737 71.69886 
L 389.641842 79.976025 
L 401.088947 88.009826 
L 412.536053 95.9973 
L 423.983158 102.828437 
L 435.430263 110.544708 
L 446.877368 118.194492 
L 458.324474 125.150875 
L 469.771579 131.630786 
L 481.218684 136.742849 
L 492.665789 143.253502 
L 504.112895 148.20875 
L 515.56 154.03706 
L 515.56 139.370547 
L 515.56 139.370547 
L 504.112895 133.972556 
L 492.665789 129.142955 
L 481.218684 124.420914 
L 469.771579 119.441309 
L 458.324474 112.708639 
L 446.877368 106.335352 
L 435.430263 99.767074 
L 423.983158 93.039278 
L 412.536053 85.584409 
L 401.088947 77.896157 
L 389.641842 71.155143 
L 378.194737 63.68006 
L 366.747632 56.976563 
L 355.300526 50.561119 
L 343.853421 44.72032 
L 332.406316 40.172827 
L 320.959211 36.783379 
L 309.512105 34.423292 
L 298.065 33.569099 
z
" clip-path="url(#p26331c0f72)" style="fill: #9467bd; fill-opacity: 0.4"/>
   </g>
   <g id="PolyCollection_14">
    <path d="M 298.065 33.569758 
L 298.065 33.569911 
L 309.512105 34.737492 
L 320.959211 38.051958 
L 332.406316 42.885774 
L 343.853421 48.962946 
L 355.300526 55.790593 
L 366.747632 63.908168 
L 378.194737 71.759085 
L 389.641842 80.061769 
L 401.088947 88.14393 
L 412.536053 96.187737 
L 423.983158 103.075021 
L 435.430263 110.82192 
L 446.877368 118.488176 
L 458.324474 125.528805 
L 469.771579 131.983957 
L 481.218684 137.158832 
L 492.665789 143.715198 
L 504.112895 148.677766 
L 515.56 154.477539 
L 515.56 139.678424 
L 515.56 139.678424 
L 504.112895 134.260996 
L 492.665789 129.435312 
L 481.218684 124.739681 
L 469.771579 119.767784 
L 458.324474 113.048445 
L 446.877368 106.698872 
L 435.430263 100.063255 
L 423.983158 93.30263 
L 412.536053 85.828067 
L 401.088947 78.114125 
L 389.641842 71.345898 
L 378.194737 63.835076 
L 366.747632 57.110266 
L 355.300526 50.655178 
L 343.853421 44.791348 
L 332.406316 40.204398 
L 320.959211 36.796583 
L 309.512105 34.426439 
L 298.065 33.569758 
z
" clip-path="url(#p26331c0f72)" style="fill: #8c564b; fill-opacity: 0.4"/>
   </g>
   <g id="PolyCollection_15">
    <path d="M 298.065 46.091944 
L 298.065 49.331739 
L 309.512105 50.212082 
L 320.959211 52.80167 
L 332.406316 56.63399 
L 343.853421 61.864184 
L 355.300526 68.153947 
L 366.747632 75.475257 
L 378.194737 82.236415 
L 389.641842 89.615413 
L 401.088947 97.158008 
L 412.536053 104.778893 
L 423.983158 111.267901 
L 435.430263 118.461334 
L 446.877368 124.582526 
L 458.324474 131.094958 
L 469.771579 136.882776 
L 481.218684 142.324047 
L 492.665789 147.742514 
L 504.112895 152.762614 
L 515.56 157.644765 
L 515.56 145.236385 
L 515.56 145.236385 
L 504.112895 140.852443 
L 492.665789 136.35572 
L 481.218684 131.275621 
L 469.771579 126.080036 
L 458.324474 120.236662 
L 446.877368 114.257452 
L 435.430263 108.081821 
L 423.983158 102.083352 
L 412.536053 95.077239 
L 401.088947 88.021644 
L 389.641842 81.889596 
L 378.194737 75.156825 
L 366.747632 68.675173 
L 355.300526 62.895136 
L 343.853421 57.553364 
L 332.406316 53.056195 
L 320.959211 49.620331 
L 309.512105 46.979862 
L 298.065 46.091944 
z
" clip-path="url(#p26331c0f72)" style="fill: #e377c2; fill-opacity: 0.4"/>
   </g>
   <g id="PolyCollection_16">
    <path d="M 298.065 33.569412 
L 298.065 33.569556 
L 309.512105 34.734124 
L 320.959211 38.054257 
L 332.406316 42.851305 
L 343.853421 48.932075 
L 355.300526 55.799822 
L 366.747632 63.852436 
L 378.194737 71.606618 
L 389.641842 79.669799 
L 401.088947 87.870911 
L 412.536053 96.156237 
L 423.983158 103.428772 
L 435.430263 111.082469 
L 446.877368 118.145873 
L 458.324474 125.151417 
L 469.771579 131.895645 
L 481.218684 137.807901 
L 492.665789 143.957642 
L 504.112895 149.493329 
L 515.56 154.67965 
L 515.56 138.766473 
L 515.56 138.766473 
L 504.112895 134.009135 
L 492.665789 128.969646 
L 481.218684 124.081013 
L 469.771579 118.565454 
L 458.324474 112.537298 
L 446.877368 106.201462 
L 435.430263 99.694328 
L 423.983158 93.030671 
L 412.536053 85.769979 
L 401.088947 78.079971 
L 389.641842 71.167969 
L 378.194737 63.790799 
L 366.747632 57.055123 
L 355.300526 50.65431 
L 343.853421 44.833277 
L 332.406316 40.277094 
L 320.959211 36.808551 
L 309.512105 34.433216 
L 298.065 33.569412 
z
" clip-path="url(#p26331c0f72)" style="fill: #7f7f7f; fill-opacity: 0.4"/>
   </g>
   <g id="matplotlib.axis_3">
    <g id="xtick_6">
     <g id="line2d_18">
      <g>
       <use xlink:href="#m3eef34cb37" x="298.065" y="174.04" style="stroke: #000000; stroke-width: 0.8"/>
      </g>
     </g>
     <g id="text_13">
      <!-- 0.0 -->
      <g transform="translate(290.113437 188.638438)scale(0.1 -0.1)">
       <use xlink:href="#DejaVuSans-30"/>
       <use xlink:href="#DejaVuSans-2e" x="63.623047"/>
       <use xlink:href="#DejaVuSans-30" x="95.410156"/>
      </g>
     </g>
    </g>
    <g id="xtick_7">
     <g id="line2d_19">
      <g>
       <use xlink:href="#m3eef34cb37" x="352.43875" y="174.04" style="stroke: #000000; stroke-width: 0.8"/>
      </g>
     </g>
     <g id="text_14">
      <!-- 0.5 -->
      <g transform="translate(344.487187 188.638438)scale(0.1 -0.1)">
       <use xlink:href="#DejaVuSans-30"/>
       <use xlink:href="#DejaVuSans-2e" x="63.623047"/>
       <use xlink:href="#DejaVuSans-35" x="95.410156"/>
      </g>
     </g>
    </g>
    <g id="xtick_8">
     <g id="line2d_20">
      <g>
       <use xlink:href="#m3eef34cb37" x="406.8125" y="174.04" style="stroke: #000000; stroke-width: 0.8"/>
      </g>
     </g>
     <g id="text_15">
      <!-- 1.0 -->
      <g transform="translate(398.860937 188.638438)scale(0.1 -0.1)">
       <use xlink:href="#DejaVuSans-31"/>
       <use xlink:href="#DejaVuSans-2e" x="63.623047"/>
       <use xlink:href="#DejaVuSans-30" x="95.410156"/>
      </g>
     </g>
    </g>
    <g id="xtick_9">
     <g id="line2d_21">
      <g>
       <use xlink:href="#m3eef34cb37" x="461.18625" y="174.04" style="stroke: #000000; stroke-width: 0.8"/>
      </g>
     </g>
     <g id="text_16">
      <!-- 1.5 -->
      <g transform="translate(453.234687 188.638438)scale(0.1 -0.1)">
       <use xlink:href="#DejaVuSans-31"/>
       <use xlink:href="#DejaVuSans-2e" x="63.623047"/>
       <use xlink:href="#DejaVuSans-35" x="95.410156"/>
      </g>
     </g>
    </g>
    <g id="xtick_10">
     <g id="line2d_22">
      <g>
       <use xlink:href="#m3eef34cb37" x="515.56" y="174.04" style="stroke: #000000; stroke-width: 0.8"/>
      </g>
     </g>
     <g id="text_17">
      <!-- 2.0 -->
      <g transform="translate(507.608437 188.638438)scale(0.1 -0.1)">
       <use xlink:href="#DejaVuSans-32"/>
       <use xlink:href="#DejaVuSans-2e" x="63.623047"/>
       <use xlink:href="#DejaVuSans-30" x="95.410156"/>
      </g>
     </g>
    </g>
    <g id="text_18">
     <!-- Influence of surprisal (multiplication) -->
     <g transform="translate(314.665625 202.316563)scale(0.1 -0.1)">
      <use xlink:href="#DejaVuSans-49"/>
      <use xlink:href="#DejaVuSans-6e" x="29.492188"/>
      <use xlink:href="#DejaVuSans-66" x="92.871094"/>
      <use xlink:href="#DejaVuSans-6c" x="128.076172"/>
      <use xlink:href="#DejaVuSans-75" x="155.859375"/>
      <use xlink:href="#DejaVuSans-65" x="219.238281"/>
      <use xlink:href="#DejaVuSans-6e" x="280.761719"/>
      <use xlink:href="#DejaVuSans-63" x="344.140625"/>
      <use xlink:href="#DejaVuSans-65" x="399.121094"/>
      <use xlink:href="#DejaVuSans-20" x="460.644531"/>
      <use xlink:href="#DejaVuSans-6f" x="492.431641"/>
      <use xlink:href="#DejaVuSans-66" x="553.613281"/>
      <use xlink:href="#DejaVuSans-20" x="588.818359"/>
      <use xlink:href="#DejaVuSans-73" x="620.605469"/>
      <use xlink:href="#DejaVuSans-75" x="672.705078"/>
      <use xlink:href="#DejaVuSans-72" x="736.083984"/>
      <use xlink:href="#DejaVuSans-70" x="777.197266"/>
      <use xlink:href="#DejaVuSans-72" x="840.673828"/>
      <use xlink:href="#DejaVuSans-69" x="881.787109"/>
      <use xlink:href="#DejaVuSans-73" x="909.570312"/>
      <use xlink:href="#DejaVuSans-61" x="961.669922"/>
      <use xlink:href="#DejaVuSans-6c" x="1022.949219"/>
      <use xlink:href="#DejaVuSans-20" x="1050.732422"/>
      <use xlink:href="#DejaVuSans-28" x="1082.519531"/>
      <use xlink:href="#DejaVuSans-6d" x="1121.533203"/>
      <use xlink:href="#DejaVuSans-75" x="1218.945312"/>
      <use xlink:href="#DejaVuSans-6c" x="1282.324219"/>
      <use xlink:href="#DejaVuSans-74" x="1310.107422"/>
      <use xlink:href="#DejaVuSans-69" x="1349.316406"/>
      <use xlink:href="#DejaVuSans-70" x="1377.099609"/>
      <use xlink:href="#DejaVuSans-6c" x="1440.576172"/>
      <use xlink:href="#DejaVuSans-69" x="1468.359375"/>
      <use xlink:href="#DejaVuSans-63" x="1496.142578"/>
      <use xlink:href="#DejaVuSans-61" x="1551.123047"/>
      <use xlink:href="#DejaVuSans-74" x="1612.402344"/>
      <use xlink:href="#DejaVuSans-69" x="1651.611328"/>
      <use xlink:href="#DejaVuSans-6f" x="1679.394531"/>
      <use xlink:href="#DejaVuSans-6e" x="1740.576172"/>
      <use xlink:href="#DejaVuSans-29" x="1803.955078"/>
     </g>
    </g>
   </g>
   <g id="line2d_23">
    <path d="M 298.065 33.569091 
L 309.512105 34.576357 
L 320.959211 37.421144 
L 332.406316 41.530914 
L 343.853421 46.827995 
L 355.300526 53.147912 
L 366.747632 60.364937 
L 378.194737 67.591507 
L 389.641842 75.267264 
L 401.088947 82.806618 
L 412.536053 90.76313 
L 423.983158 98.004821 
L 435.430263 105.08261 
L 446.877368 111.826249 
L 458.324474 118.405755 
L 469.771579 124.764788 
L 481.218684 130.365608 
L 492.665789 135.846801 
L 504.112895 141.029767 
L 515.56 145.926355 
" clip-path="url(#p26331c0f72)" style="fill: none; stroke: #1f77b4; stroke-width: 1.5; stroke-linecap: square"/>
   </g>
   <g id="line2d_24">
    <path d="M 298.065 33.569274 
L 309.512105 34.579888 
L 320.959211 37.430575 
L 332.406316 41.553244 
L 343.853421 46.875937 
L 355.300526 53.212846 
L 366.747632 60.453949 
L 378.194737 67.706726 
L 389.641842 75.410828 
L 401.088947 82.982612 
L 412.536053 90.977929 
L 423.983158 98.254095 
L 435.430263 105.381313 
L 446.877368 112.153261 
L 458.324474 118.778079 
L 469.771579 125.115797 
L 481.218684 130.748668 
L 492.665789 136.226418 
L 504.112895 141.39992 
L 515.56 146.317689 
" clip-path="url(#p26331c0f72)" style="fill: none; stroke: #ff7f0e; stroke-width: 1.5; stroke-linecap: square"/>
   </g>
   <g id="line2d_25">
    <path d="M 298.065 33.569101 
L 309.512105 34.57929 
L 320.959211 37.432574 
L 332.406316 41.547606 
L 343.853421 46.85463 
L 355.300526 53.197404 
L 366.747632 60.429994 
L 378.194737 67.674058 
L 389.641842 75.40226 
L 401.088947 82.93106 
L 412.536053 90.924931 
L 423.983158 98.17536 
L 435.430263 105.290098 
L 446.877368 112.083963 
L 458.324474 118.724459 
L 469.771579 125.082452 
L 481.218684 130.705157 
L 492.665789 136.239714 
L 504.112895 141.440603 
L 515.56 146.320436 
" clip-path="url(#p26331c0f72)" style="fill: none; stroke: #2ca02c; stroke-width: 1.5; stroke-linecap: square"/>
   </g>
   <g id="line2d_26">
    <path d="M 298.065 33.570109 
L 309.512105 34.581669 
L 320.959211 37.435818 
L 332.406316 41.556294 
L 343.853421 46.868387 
L 355.300526 53.213828 
L 366.747632 60.452478 
L 378.194737 67.697434 
L 389.641842 75.429219 
L 401.088947 82.995002 
L 412.536053 91.005804 
L 423.983158 98.260705 
L 435.430263 105.410894 
L 446.877368 112.241345 
L 458.324474 118.891676 
L 469.771579 125.242516 
L 481.218684 130.909677 
L 492.665789 136.435695 
L 504.112895 141.673658 
L 515.56 146.600685 
" clip-path="url(#p26331c0f72)" style="fill: none; stroke: #d62728; stroke-width: 1.5; stroke-linecap: square"/>
   </g>
   <g id="line2d_27">
    <path d="M 298.065 33.569102 
L 309.512105 34.578187 
L 320.959211 37.41467 
L 332.406316 41.521025 
L 343.853421 46.831168 
L 355.300526 53.162649 
L 366.747632 60.424373 
L 378.194737 67.68946 
L 389.641842 75.565584 
L 401.088947 82.952991 
L 412.536053 90.790855 
L 423.983158 97.933858 
L 435.430263 105.155891 
L 446.877368 112.264922 
L 458.324474 118.929757 
L 469.771579 125.536048 
L 481.218684 130.581881 
L 492.665789 136.198229 
L 504.112895 141.090653 
L 515.56 146.703804 
" clip-path="url(#p26331c0f72)" style="fill: none; stroke: #9467bd; stroke-width: 1.5; stroke-linecap: square"/>
   </g>
   <g id="line2d_28">
    <path d="M 298.065 33.569835 
L 309.512105 34.581965 
L 320.959211 37.424271 
L 332.406316 41.545086 
L 343.853421 46.877147 
L 355.300526 53.222886 
L 366.747632 60.509217 
L 378.194737 67.797081 
L 389.641842 75.703833 
L 401.088947 83.129028 
L 412.536053 91.007902 
L 423.983158 98.188825 
L 435.430263 105.442588 
L 446.877368 112.593524 
L 458.324474 119.288625 
L 469.771579 125.875871 
L 481.218684 130.949256 
L 492.665789 136.575255 
L 504.112895 141.469381 
L 515.56 147.077982 
" clip-path="url(#p26331c0f72)" style="fill: none; stroke: #8c564b; stroke-width: 1.5; stroke-linecap: square"/>
   </g>
   <g id="line2d_29">
    <path d="M 298.065 47.711841 
L 309.512105 48.595972 
L 320.959211 51.211001 
L 332.406316 54.845092 
L 343.853421 59.708774 
L 355.300526 65.524541 
L 366.747632 72.075215 
L 378.194737 78.69662 
L 389.641842 85.752505 
L 401.088947 92.589826 
L 412.536053 99.928066 
L 423.983158 106.675626 
L 435.430263 113.271577 
L 446.877368 119.419989 
L 458.324474 125.66581 
L 469.771579 131.481406 
L 481.218684 136.799834 
L 492.665789 142.049117 
L 504.112895 146.807528 
L 515.56 151.440575 
" clip-path="url(#p26331c0f72)" style="fill: none; stroke: #e377c2; stroke-width: 1.5; stroke-linecap: square"/>
   </g>
   <g id="line2d_30">
    <path d="M 298.065 33.569484 
L 309.512105 34.58367 
L 320.959211 37.431404 
L 332.406316 41.564199 
L 343.853421 46.882676 
L 355.300526 53.227066 
L 366.747632 60.453779 
L 378.194737 67.698708 
L 389.641842 75.418884 
L 401.088947 82.975441 
L 412.536053 90.963108 
L 423.983158 98.229721 
L 435.430263 105.388398 
L 446.877368 112.173667 
L 458.324474 118.844357 
L 469.771579 125.230549 
L 481.218684 130.944457 
L 492.665789 136.463644 
L 504.112895 141.751232 
L 515.56 146.723061 
" clip-path="url(#p26331c0f72)" style="fill: none; stroke: #7f7f7f; stroke-width: 1.5; stroke-linecap: square"/>
   </g>
   <g id="patch_6">
    <path d="M 298.065 174.04 
L 298.065 26.88 
" style="fill: none; stroke: #000000; stroke-width: 0.8; stroke-linejoin: miter; stroke-linecap: square"/>
   </g>
   <g id="patch_7">
    <path d="M 298.065 174.04 
L 515.56 174.04 
" style="fill: none; stroke: #000000; stroke-width: 0.8; stroke-linejoin: miter; stroke-linecap: square"/>
   </g>
   <g id="text_19">
    <!-- Node * third variable -->
    <g transform="translate(344.2325 20.88)scale(0.12 -0.12)">
     <defs>
      <path id="DejaVuSans-68" d="M 3513 2113 
L 3513 0 
L 2938 0 
L 2938 2094 
Q 2938 2591 2744 2837 
Q 2550 3084 2163 3084 
Q 1697 3084 1428 2787 
Q 1159 2491 1159 1978 
L 1159 0 
L 581 0 
L 581 4863 
L 1159 4863 
L 1159 2956 
Q 1366 3272 1645 3428 
Q 1925 3584 2291 3584 
Q 2894 3584 3203 3211 
Q 3513 2838 3513 2113 
z
" transform="scale(0.015625)"/>
      <path id="DejaVuSans-62" d="M 3116 1747 
Q 3116 2381 2855 2742 
Q 2594 3103 2138 3103 
Q 1681 3103 1420 2742 
Q 1159 2381 1159 1747 
Q 1159 1113 1420 752 
Q 1681 391 2138 391 
Q 2594 391 2855 752 
Q 3116 1113 3116 1747 
z
M 1159 2969 
Q 1341 3281 1617 3432 
Q 1894 3584 2278 3584 
Q 2916 3584 3314 3078 
Q 3713 2572 3713 1747 
Q 3713 922 3314 415 
Q 2916 -91 2278 -91 
Q 1894 -91 1617 61 
Q 1341 213 1159 525 
L 1159 0 
L 581 0 
L 581 4863 
L 1159 4863 
L 1159 2969 
z
" transform="scale(0.015625)"/>
     </defs>
     <use xlink:href="#DejaVuSans-4e"/>
     <use xlink:href="#DejaVuSans-6f" x="74.804688"/>
     <use xlink:href="#DejaVuSans-64" x="135.986328"/>
     <use xlink:href="#DejaVuSans-65" x="199.462891"/>
     <use xlink:href="#DejaVuSans-20" x="260.986328"/>
     <use xlink:href="#DejaVuSans-2a" x="292.773438"/>
     <use xlink:href="#DejaVuSans-20" x="342.773438"/>
     <use xlink:href="#DejaVuSans-74" x="374.560547"/>
     <use xlink:href="#DejaVuSans-68" x="413.769531"/>
     <use xlink:href="#DejaVuSans-69" x="477.148438"/>
     <use xlink:href="#DejaVuSans-72" x="504.931641"/>
     <use xlink:href="#DejaVuSans-64" x="544.294922"/>
     <use xlink:href="#DejaVuSans-20" x="607.771484"/>
     <use xlink:href="#DejaVuSans-76" x="639.558594"/>
     <use xlink:href="#DejaVuSans-61" x="698.738281"/>
     <use xlink:href="#DejaVuSans-72" x="760.017578"/>
     <use xlink:href="#DejaVuSans-69" x="801.130859"/>
     <use xlink:href="#DejaVuSans-61" x="828.914062"/>
     <use xlink:href="#DejaVuSans-62" x="890.193359"/>
     <use xlink:href="#DejaVuSans-6c" x="953.669922"/>
     <use xlink:href="#DejaVuSans-65" x="981.453125"/>
    </g>
   </g>
   <g id="legend_1">
    <g id="line2d_31">
     <path d="M 524.56 39.978437 
L 534.56 39.978437 
L 544.56 39.978437 
" style="fill: none; stroke: #1f77b4; stroke-width: 1.5; stroke-linecap: square"/>
    </g>
    <g id="text_20">
     <!-- Node -->
     <g transform="translate(552.56 43.478437)scale(0.1 -0.1)">
      <use xlink:href="#DejaVuSans-4e"/>
      <use xlink:href="#DejaVuSans-6f" x="74.804688"/>
      <use xlink:href="#DejaVuSans-64" x="135.986328"/>
      <use xlink:href="#DejaVuSans-65" x="199.462891"/>
     </g>
    </g>
    <g id="line2d_32">
     <path d="M 524.56 54.656563 
L 534.56 54.656563 
L 544.56 54.656563 
" style="fill: none; stroke: #ff7f0e; stroke-width: 1.5; stroke-linecap: square"/>
    </g>
    <g id="text_21">
     <!-- Node + surprisal -->
     <g transform="translate(552.56 58.156563)scale(0.1 -0.1)">
      <defs>
       <path id="DejaVuSans-2b" d="M 2944 4013 
L 2944 2272 
L 4684 2272 
L 4684 1741 
L 2944 1741 
L 2944 0 
L 2419 0 
L 2419 1741 
L 678 1741 
L 678 2272 
L 2419 2272 
L 2419 4013 
L 2944 4013 
z
" transform="scale(0.015625)"/>
      </defs>
      <use xlink:href="#DejaVuSans-4e"/>
      <use xlink:href="#DejaVuSans-6f" x="74.804688"/>
      <use xlink:href="#DejaVuSans-64" x="135.986328"/>
      <use xlink:href="#DejaVuSans-65" x="199.462891"/>
      <use xlink:href="#DejaVuSans-20" x="260.986328"/>
      <use xlink:href="#DejaVuSans-2b" x="292.773438"/>
      <use xlink:href="#DejaVuSans-20" x="376.5625"/>
      <use xlink:href="#DejaVuSans-73" x="408.349609"/>
      <use xlink:href="#DejaVuSans-75" x="460.449219"/>
      <use xlink:href="#DejaVuSans-72" x="523.828125"/>
      <use xlink:href="#DejaVuSans-70" x="564.941406"/>
      <use xlink:href="#DejaVuSans-72" x="628.417969"/>
      <use xlink:href="#DejaVuSans-69" x="669.53125"/>
      <use xlink:href="#DejaVuSans-73" x="697.314453"/>
      <use xlink:href="#DejaVuSans-61" x="749.414062"/>
      <use xlink:href="#DejaVuSans-6c" x="810.693359"/>
     </g>
    </g>
    <g id="line2d_33">
     <path d="M 524.56 69.334687 
L 534.56 69.334687 
L 544.56 69.334687 
" style="fill: none; stroke: #2ca02c; stroke-width: 1.5; stroke-linecap: square"/>
    </g>
    <g id="text_22">
     <!-- Node split -->
     <g transform="translate(552.56 72.834687)scale(0.1 -0.1)">
      <use xlink:href="#DejaVuSans-4e"/>
      <use xlink:href="#DejaVuSans-6f" x="74.804688"/>
      <use xlink:href="#DejaVuSans-64" x="135.986328"/>
      <use xlink:href="#DejaVuSans-65" x="199.462891"/>
      <use xlink:href="#DejaVuSans-20" x="260.986328"/>
      <use xlink:href="#DejaVuSans-73" x="292.773438"/>
      <use xlink:href="#DejaVuSans-70" x="344.873047"/>
      <use xlink:href="#DejaVuSans-6c" x="408.349609"/>
      <use xlink:href="#DejaVuSans-69" x="436.132812"/>
      <use xlink:href="#DejaVuSans-74" x="463.916016"/>
     </g>
    </g>
    <g id="line2d_34">
     <path d="M 524.56 84.012812 
L 534.56 84.012812 
L 544.56 84.012812 
" style="fill: none; stroke: #d62728; stroke-width: 1.5; stroke-linecap: square"/>
    </g>
    <g id="text_23">
     <!-- Node split + surprisal -->
     <g transform="translate(552.56 87.512812)scale(0.1 -0.1)">
      <use xlink:href="#DejaVuSans-4e"/>
      <use xlink:href="#DejaVuSans-6f" x="74.804688"/>
      <use xlink:href="#DejaVuSans-64" x="135.986328"/>
      <use xlink:href="#DejaVuSans-65" x="199.462891"/>
      <use xlink:href="#DejaVuSans-20" x="260.986328"/>
      <use xlink:href="#DejaVuSans-73" x="292.773438"/>
      <use xlink:href="#DejaVuSans-70" x="344.873047"/>
      <use xlink:href="#DejaVuSans-6c" x="408.349609"/>
      <use xlink:href="#DejaVuSans-69" x="436.132812"/>
      <use xlink:href="#DejaVuSans-74" x="463.916016"/>
      <use xlink:href="#DejaVuSans-20" x="503.125"/>
      <use xlink:href="#DejaVuSans-2b" x="534.912109"/>
      <use xlink:href="#DejaVuSans-20" x="618.701172"/>
      <use xlink:href="#DejaVuSans-73" x="650.488281"/>
      <use xlink:href="#DejaVuSans-75" x="702.587891"/>
      <use xlink:href="#DejaVuSans-72" x="765.966797"/>
      <use xlink:href="#DejaVuSans-70" x="807.080078"/>
      <use xlink:href="#DejaVuSans-72" x="870.556641"/>
      <use xlink:href="#DejaVuSans-69" x="911.669922"/>
      <use xlink:href="#DejaVuSans-73" x="939.453125"/>
      <use xlink:href="#DejaVuSans-61" x="991.552734"/>
      <use xlink:href="#DejaVuSans-6c" x="1052.832031"/>
     </g>
    </g>
    <g id="line2d_35">
     <path d="M 524.56 98.690937 
L 534.56 98.690937 
L 544.56 98.690937 
" style="fill: none; stroke: #9467bd; stroke-width: 1.5; stroke-linecap: square"/>
    </g>
    <g id="text_24">
     <!-- Node random split -->
     <g transform="translate(552.56 102.190937)scale(0.1 -0.1)">
      <use xlink:href="#DejaVuSans-4e"/>
      <use xlink:href="#DejaVuSans-6f" x="74.804688"/>
      <use xlink:href="#DejaVuSans-64" x="135.986328"/>
      <use xlink:href="#DejaVuSans-65" x="199.462891"/>
      <use xlink:href="#DejaVuSans-20" x="260.986328"/>
      <use xlink:href="#DejaVuSans-72" x="292.773438"/>
      <use xlink:href="#DejaVuSans-61" x="333.886719"/>
      <use xlink:href="#DejaVuSans-6e" x="395.166016"/>
      <use xlink:href="#DejaVuSans-64" x="458.544922"/>
      <use xlink:href="#DejaVuSans-6f" x="522.021484"/>
      <use xlink:href="#DejaVuSans-6d" x="583.203125"/>
      <use xlink:href="#DejaVuSans-20" x="680.615234"/>
      <use xlink:href="#DejaVuSans-73" x="712.402344"/>
      <use xlink:href="#DejaVuSans-70" x="764.501953"/>
      <use xlink:href="#DejaVuSans-6c" x="827.978516"/>
      <use xlink:href="#DejaVuSans-69" x="855.761719"/>
      <use xlink:href="#DejaVuSans-74" x="883.544922"/>
     </g>
    </g>
    <g id="line2d_36">
     <path d="M 524.56 113.369062 
L 534.56 113.369062 
L 544.56 113.369062 
" style="fill: none; stroke: #8c564b; stroke-width: 1.5; stroke-linecap: square"/>
    </g>
    <g id="text_25">
     <!-- Node random split + surprisal -->
     <g transform="translate(552.56 116.869062)scale(0.1 -0.1)">
      <use xlink:href="#DejaVuSans-4e"/>
      <use xlink:href="#DejaVuSans-6f" x="74.804688"/>
      <use xlink:href="#DejaVuSans-64" x="135.986328"/>
      <use xlink:href="#DejaVuSans-65" x="199.462891"/>
      <use xlink:href="#DejaVuSans-20" x="260.986328"/>
      <use xlink:href="#DejaVuSans-72" x="292.773438"/>
      <use xlink:href="#DejaVuSans-61" x="333.886719"/>
      <use xlink:href="#DejaVuSans-6e" x="395.166016"/>
      <use xlink:href="#DejaVuSans-64" x="458.544922"/>
      <use xlink:href="#DejaVuSans-6f" x="522.021484"/>
      <use xlink:href="#DejaVuSans-6d" x="583.203125"/>
      <use xlink:href="#DejaVuSans-20" x="680.615234"/>
      <use xlink:href="#DejaVuSans-73" x="712.402344"/>
      <use xlink:href="#DejaVuSans-70" x="764.501953"/>
      <use xlink:href="#DejaVuSans-6c" x="827.978516"/>
      <use xlink:href="#DejaVuSans-69" x="855.761719"/>
      <use xlink:href="#DejaVuSans-74" x="883.544922"/>
      <use xlink:href="#DejaVuSans-20" x="922.753906"/>
      <use xlink:href="#DejaVuSans-2b" x="954.541016"/>
      <use xlink:href="#DejaVuSans-20" x="1038.330078"/>
      <use xlink:href="#DejaVuSans-73" x="1070.117188"/>
      <use xlink:href="#DejaVuSans-75" x="1122.216797"/>
      <use xlink:href="#DejaVuSans-72" x="1185.595703"/>
      <use xlink:href="#DejaVuSans-70" x="1226.708984"/>
      <use xlink:href="#DejaVuSans-72" x="1290.185547"/>
      <use xlink:href="#DejaVuSans-69" x="1331.298828"/>
      <use xlink:href="#DejaVuSans-73" x="1359.082031"/>
      <use xlink:href="#DejaVuSans-61" x="1411.181641"/>
      <use xlink:href="#DejaVuSans-6c" x="1472.460938"/>
     </g>
    </g>
    <g id="line2d_37">
     <path d="M 524.56 128.047187 
L 534.56 128.047187 
L 544.56 128.047187 
" style="fill: none; stroke: #e377c2; stroke-width: 1.5; stroke-linecap: square"/>
    </g>
    <g id="text_26">
     <!-- Interaction -->
     <g transform="translate(552.56 131.547187)scale(0.1 -0.1)">
      <use xlink:href="#DejaVuSans-49"/>
      <use xlink:href="#DejaVuSans-6e" x="29.492188"/>
      <use xlink:href="#DejaVuSans-74" x="92.871094"/>
      <use xlink:href="#DejaVuSans-65" x="132.080078"/>
      <use xlink:href="#DejaVuSans-72" x="193.603516"/>
      <use xlink:href="#DejaVuSans-61" x="234.716797"/>
      <use xlink:href="#DejaVuSans-63" x="295.996094"/>
      <use xlink:href="#DejaVuSans-74" x="350.976562"/>
      <use xlink:href="#DejaVuSans-69" x="390.185547"/>
      <use xlink:href="#DejaVuSans-6f" x="417.96875"/>
      <use xlink:href="#DejaVuSans-6e" x="479.150391"/>
     </g>
    </g>
    <g id="line2d_38">
     <path d="M 524.56 142.725312 
L 534.56 142.725312 
L 544.56 142.725312 
" style="fill: none; stroke: #7f7f7f; stroke-width: 1.5; stroke-linecap: square"/>
    </g>
    <g id="text_27">
     <!-- Node + surprisal + interaction -->
     <g transform="translate(552.56 146.225312)scale(0.1 -0.1)">
      <use xlink:href="#DejaVuSans-4e"/>
      <use xlink:href="#DejaVuSans-6f" x="74.804688"/>
      <use xlink:href="#DejaVuSans-64" x="135.986328"/>
      <use xlink:href="#DejaVuSans-65" x="199.462891"/>
      <use xlink:href="#DejaVuSans-20" x="260.986328"/>
      <use xlink:href="#DejaVuSans-2b" x="292.773438"/>
      <use xlink:href="#DejaVuSans-20" x="376.5625"/>
      <use xlink:href="#DejaVuSans-73" x="408.349609"/>
      <use xlink:href="#DejaVuSans-75" x="460.449219"/>
      <use xlink:href="#DejaVuSans-72" x="523.828125"/>
      <use xlink:href="#DejaVuSans-70" x="564.941406"/>
      <use xlink:href="#DejaVuSans-72" x="628.417969"/>
      <use xlink:href="#DejaVuSans-69" x="669.53125"/>
      <use xlink:href="#DejaVuSans-73" x="697.314453"/>
      <use xlink:href="#DejaVuSans-61" x="749.414062"/>
      <use xlink:href="#DejaVuSans-6c" x="810.693359"/>
      <use xlink:href="#DejaVuSans-20" x="838.476562"/>
      <use xlink:href="#DejaVuSans-2b" x="870.263672"/>
      <use xlink:href="#DejaVuSans-20" x="954.052734"/>
      <use xlink:href="#DejaVuSans-69" x="985.839844"/>
      <use xlink:href="#DejaVuSans-6e" x="1013.623047"/>
      <use xlink:href="#DejaVuSans-74" x="1077.001953"/>
      <use xlink:href="#DejaVuSans-65" x="1116.210938"/>
      <use xlink:href="#DejaVuSans-72" x="1177.734375"/>
      <use xlink:href="#DejaVuSans-61" x="1218.847656"/>
      <use xlink:href="#DejaVuSans-63" x="1280.126953"/>
      <use xlink:href="#DejaVuSans-74" x="1335.107422"/>
      <use xlink:href="#DejaVuSans-69" x="1374.316406"/>
      <use xlink:href="#DejaVuSans-6f" x="1402.099609"/>
      <use xlink:href="#DejaVuSans-6e" x="1463.28125"/>
     </g>
    </g>
   </g>
  </g>
 </g>
 <defs>
  <clipPath id="p7783ef5935">
   <rect x="47.72" y="26.88" width="217.495" height="147.16"/>
  </clipPath>
  <clipPath id="p26331c0f72">
   <rect x="298.065" y="26.88" width="217.495" height="147.16"/>
  </clipPath>
 </defs>
</svg>
