<?xml version="1.0" encoding="utf-8" standalone="no"?>
<!DOCTYPE svg PUBLIC "-//W3C//DTD SVG 1.1//EN"
  "http://www.w3.org/Graphics/SVG/1.1/DTD/svg11.dtd">
<svg xmlns:xlink="http://www.w3.org/1999/xlink" width="720pt" height="216pt" viewBox="0 0 720 216" xmlns="http://www.w3.org/2000/svg" version="1.1">
 <metadata>
  <rdf:RDF xmlns:dc="http://purl.org/dc/elements/1.1/" xmlns:cc="http://creativecommons.org/ns#" xmlns:rdf="http://www.w3.org/1999/02/22-rdf-syntax-ns#">
   <cc:Work>
    <dc:type rdf:resource="http://purl.org/dc/dcmitype/StillImage"/>
    <dc:date>2024-01-15T22:15:48.811083</dc:date>
    <dc:format>image/svg+xml</dc:format>
    <dc:creator>
     <cc:Agent>
      <dc:title>Matplotlib v3.5.1, https://matplotlib.org/</dc:title>
     </cc:Agent>
    </dc:creator>
   </cc:Work>
  </rdf:RDF>
 </metadata>
 <defs>
  <style type="text/css">*{stroke-linejoin: round; stroke-linecap: butt}</style>
 </defs>
 <g id="figure_1">
  <g id="patch_1">
   <path d="M 0 216 
L 720 216 
L 720 0 
L 0 0 
z
" style="fill: #ffffff"/>
  </g>
  <g id="axes_1">
   <g id="patch_2">
    <path d="M 47.72 174.04 
L 265.215 174.04 
L 265.215 26.88 
L 47.72 26.88 
z
" style="fill: #ffffff"/>
   </g>
   <g id="PolyCollection_1">
    <path d="M 47.72 33.569091 
L 47.72 33.569092 
L 59.167105 34.5993 
L 70.614211 37.471666 
L 82.061316 41.834366 
L 93.508421 47.342263 
L 104.955526 53.652005 
L 116.402632 60.842377 
L 127.849737 68.783883 
L 139.296842 76.477608 
L 150.743947 84.356252 
L 162.191053 92.245616 
L 173.638158 99.764573 
L 185.085263 107.64832 
L 196.532368 114.480174 
L 207.979474 121.393766 
L 219.426579 127.824413 
L 230.873684 133.798384 
L 242.320789 139.584792 
L 253.767895 144.664417 
L 265.215 149.096003 
L 265.215 137.614337 
L 265.215 137.614337 
L 253.767895 132.894952 
L 242.320789 127.875291 
L 230.873684 121.229219 
L 219.426579 115.880054 
L 207.979474 109.585814 
L 196.532368 103.161081 
L 185.085263 97.031776 
L 173.638158 89.6946 
L 162.191053 82.968497 
L 150.743947 76.469389 
L 139.296842 69.81088 
L 127.849737 63.110743 
L 116.402632 56.577197 
L 104.955526 50.544666 
L 93.508421 44.953128 
L 82.061316 40.345055 
L 70.614211 36.884406 
L 59.167105 34.384292 
L 47.72 33.569091 
z
" clip-path="url(#pec1d3f7a86)" style="fill: #1f77b4; fill-opacity: 0.4"/>
   </g>
   <g id="PolyCollection_2">
    <path d="M 47.72 33.569216 
L 47.72 33.569265 
L 59.167105 34.250902 
L 70.614211 35.860824 
L 82.061316 38.374647 
L 93.508421 41.74703 
L 104.955526 45.872001 
L 116.402632 50.715771 
L 127.849737 56.397477 
L 139.296842 62.191063 
L 150.743947 68.701165 
L 162.191053 75.208605 
L 173.638158 81.61269 
L 185.085263 89.337673 
L 196.532368 95.30281 
L 207.979474 102.005614 
L 219.426579 108.217478 
L 230.873684 114.310737 
L 242.320789 120.350982 
L 253.767895 125.789425 
L 265.215 130.713743 
L 265.215 119.455119 
L 265.215 119.455119 
L 253.767895 114.647778 
L 242.320789 109.562409 
L 230.873684 103.13926 
L 219.426579 97.995422 
L 207.979474 92.12362 
L 196.532368 86.065283 
L 185.085263 80.097138 
L 173.638158 73.889569 
L 162.191053 67.868113 
L 150.743947 61.912606 
L 139.296842 56.717429 
L 127.849737 51.622778 
L 116.402632 47.038732 
L 104.955526 42.972525 
L 93.508421 39.875184 
L 82.061316 37.206949 
L 70.614211 35.411085 
L 59.167105 34.070521 
L 47.72 33.569216 
z
" clip-path="url(#pec1d3f7a86)" style="fill: #ff7f0e; fill-opacity: 0.4"/>
   </g>
   <g id="PolyCollection_3">
    <path d="M 47.72 33.569099 
L 47.72 33.569104 
L 59.167105 34.355296 
L 70.614211 35.80132 
L 82.061316 37.64316 
L 93.508421 40.109324 
L 104.955526 42.895262 
L 116.402632 46.186361 
L 127.849737 49.759403 
L 139.296842 53.039687 
L 150.743947 56.676427 
L 162.191053 60.529224 
L 173.638158 64.628744 
L 185.085263 68.098008 
L 196.532368 71.873766 
L 207.979474 75.623851 
L 219.426579 79.78412 
L 230.873684 83.392144 
L 242.320789 87.262888 
L 253.767895 91.021216 
L 265.215 94.671119 
L 265.215 85.460397 
L 265.215 85.460397 
L 253.767895 82.288093 
L 242.320789 79.063473 
L 230.873684 75.1758 
L 219.426579 72.110652 
L 207.979474 69.136092 
L 196.532368 65.559879 
L 185.085263 62.73435 
L 173.638158 59.259028 
L 162.191053 56.071817 
L 150.743947 53.110838 
L 139.296842 49.921945 
L 127.849737 46.874242 
L 116.402632 43.753289 
L 104.955526 41.111805 
L 93.508421 38.632857 
L 82.061316 36.700955 
L 70.614211 35.247159 
L 59.167105 34.198783 
L 47.72 33.569099 
z
" clip-path="url(#pec1d3f7a86)" style="fill: #2ca02c; fill-opacity: 0.4"/>
   </g>
   <g id="PolyCollection_4">
    <path d="M 47.72 33.569762 
L 47.72 33.570021 
L 59.167105 34.202765 
L 70.614211 35.290061 
L 82.061316 36.78562 
L 93.508421 38.777944 
L 104.955526 41.111376 
L 116.402632 43.958649 
L 127.849737 47.3082 
L 139.296842 50.39927 
L 150.743947 54.099436 
L 162.191053 57.885016 
L 173.638158 62.060913 
L 185.085263 65.924477 
L 196.532368 69.823298 
L 207.979474 73.707636 
L 219.426579 77.958288 
L 230.873684 81.740387 
L 242.320789 85.698379 
L 253.767895 89.611294 
L 265.215 93.326707 
L 265.215 83.555742 
L 265.215 83.555742 
L 253.767895 80.331192 
L 242.320789 77.13382 
L 230.873684 73.295797 
L 219.426579 70.240948 
L 207.979474 67.239812 
L 196.532368 63.535233 
L 185.085263 60.679093 
L 173.638158 57.131412 
L 162.191053 53.872218 
L 150.743947 50.571901 
L 139.296842 47.476298 
L 127.849737 44.514643 
L 116.402632 41.795141 
L 104.955526 39.407996 
L 93.508421 37.512554 
L 82.061316 35.930105 
L 70.614211 34.91154 
L 59.167105 34.05581 
L 47.72 33.569762 
z
" clip-path="url(#pec1d3f7a86)" style="fill: #d62728; fill-opacity: 0.4"/>
   </g>
   <g id="PolyCollection_5">
    <path d="M 47.72 33.5691 
L 47.72 33.569104 
L 59.167105 34.602492 
L 70.614211 37.481751 
L 82.061316 41.874925 
L 93.508421 47.409493 
L 104.955526 53.670339 
L 116.402632 60.920638 
L 127.849737 68.82238 
L 139.296842 76.604224 
L 150.743947 84.387897 
L 162.191053 92.944639 
L 173.638158 100.362853 
L 185.085263 107.702174 
L 196.532368 115.236795 
L 207.979474 121.57426 
L 219.426579 128.097005 
L 230.873684 133.883323 
L 242.320789 139.8413 
L 253.767895 146.096368 
L 265.215 149.59669 
L 265.215 138.163225 
L 265.215 138.163225 
L 253.767895 133.496062 
L 242.320789 128.757336 
L 230.873684 121.306407 
L 219.426579 115.918346 
L 207.979474 109.631577 
L 196.532368 103.260468 
L 185.085263 97.360715 
L 173.638158 89.908931 
L 162.191053 83.536451 
L 150.743947 76.486291 
L 139.296842 69.854826 
L 127.849737 63.104203 
L 116.402632 56.625546 
L 104.955526 50.58343 
L 93.508421 44.970584 
L 82.061316 40.335222 
L 70.614211 36.900776 
L 59.167105 34.38665 
L 47.72 33.5691 
z
" clip-path="url(#pec1d3f7a86)" style="fill: #9467bd; fill-opacity: 0.4"/>
   </g>
   <g id="PolyCollection_6">
    <path d="M 47.72 33.569604 
L 47.72 33.569795 
L 59.167105 34.252491 
L 70.614211 35.863293 
L 82.061316 38.382695 
L 93.508421 41.770995 
L 104.955526 45.902993 
L 116.402632 50.735942 
L 127.849737 56.400186 
L 139.296842 62.285237 
L 150.743947 68.821125 
L 162.191053 75.922286 
L 173.638158 81.995798 
L 185.085263 89.434726 
L 196.532368 95.313361 
L 207.979474 102.182773 
L 219.426579 108.48705 
L 230.873684 114.312048 
L 242.320789 120.631667 
L 253.767895 126.745349 
L 265.215 131.096321 
L 265.215 119.999267 
L 265.215 119.999267 
L 253.767895 115.047317 
L 242.320789 110.269712 
L 230.873684 103.303354 
L 219.426579 97.979684 
L 207.979474 92.154489 
L 196.532368 86.572544 
L 185.085263 80.438543 
L 173.638158 74.01148 
L 162.191053 68.162059 
L 150.743947 61.899493 
L 139.296842 56.843243 
L 127.849737 51.624751 
L 116.402632 47.046733 
L 104.955526 42.98658 
L 93.508421 39.875823 
L 82.061316 37.19587 
L 70.614211 35.416534 
L 59.167105 34.071942 
L 47.72 33.569604 
z
" clip-path="url(#pec1d3f7a86)" style="fill: #8c564b; fill-opacity: 0.4"/>
   </g>
   <g id="PolyCollection_7">
    <path d="M 47.72 46.492783 
L 47.72 49.549555 
L 59.167105 50.834958 
L 70.614211 54.346725 
L 82.061316 59.92209 
L 93.508421 66.709186 
L 104.955526 74.29963 
L 116.402632 82.470373 
L 127.849737 90.995651 
L 139.296842 98.921251 
L 150.743947 106.766852 
L 162.191053 114.415224 
L 173.638158 122.375358 
L 185.085263 129.757154 
L 196.532368 136.409661 
L 207.979474 143.156066 
L 219.426579 148.990427 
L 230.873684 154.49456 
L 242.320789 159.405752 
L 253.767895 163.28387 
L 265.215 167.350909 
L 265.215 151.268279 
L 265.215 151.268279 
L 253.767895 147.255444 
L 242.320789 142.781623 
L 230.873684 136.679315 
L 219.426579 132.059737 
L 207.979474 126.372277 
L 196.532368 120.678044 
L 185.085263 115.209932 
L 173.638158 108.164728 
L 162.191053 101.979282 
L 150.743947 95.022165 
L 139.296842 88.175949 
L 127.849737 80.601566 
L 116.402632 73.165089 
L 104.955526 66.231641 
L 93.508421 59.588518 
L 82.061316 54.297652 
L 70.614211 50.37217 
L 59.167105 47.551917 
L 47.72 46.492783 
z
" clip-path="url(#pec1d3f7a86)" style="fill: #e377c2; fill-opacity: 0.4"/>
   </g>
   <g id="PolyCollection_8">
    <path d="M 47.72 33.569364 
L 47.72 33.569489 
L 59.167105 33.880666 
L 70.614211 34.085013 
L 82.061316 34.834218 
L 93.508421 36.247016 
L 104.955526 38.739152 
L 116.402632 42.060352 
L 127.849737 46.69375 
L 139.296842 51.567908 
L 150.743947 57.072585 
L 162.191053 62.510024 
L 173.638158 68.029643 
L 185.085263 74.133351 
L 196.532368 79.213229 
L 207.979474 84.93423 
L 219.426579 90.421187 
L 230.873684 96.259541 
L 242.320789 102.418692 
L 253.767895 108.320431 
L 265.215 113.832138 
L 265.215 106.879994 
L 265.215 106.879994 
L 253.767895 101.693656 
L 242.320789 96.339068 
L 230.873684 89.859043 
L 219.426579 84.602901 
L 207.979474 78.497962 
L 196.532368 72.445972 
L 185.085263 66.515048 
L 173.638158 60.615338 
L 162.191053 54.740378 
L 150.743947 49.402313 
L 139.296842 44.997618 
L 127.849737 41.231808 
L 116.402632 38.30947 
L 104.955526 36.244036 
L 93.508421 34.842406 
L 82.061316 34.185765 
L 70.614211 33.948913 
L 59.167105 33.815085 
L 47.72 33.569364 
z
" clip-path="url(#pec1d3f7a86)" style="fill: #7f7f7f; fill-opacity: 0.4"/>
   </g>
   <g id="matplotlib.axis_1">
    <g id="xtick_1">
     <g id="line2d_1">
      <defs>
       <path id="m9bc160cea1" d="M 0 0 
L 0 3.5 
" style="stroke: #000000; stroke-width: 0.8"/>
      </defs>
      <g>
       <use xlink:href="#m9bc160cea1" x="47.72" y="174.04" style="stroke: #000000; stroke-width: 0.8"/>
      </g>
     </g>
     <g id="text_1">
      <!-- 0.0 -->
      <g transform="translate(39.768438 188.638438)scale(0.1 -0.1)">
       <defs>
        <path id="DejaVuSans-30" d="M 2034 4250 
Q 1547 4250 1301 3770 
Q 1056 3291 1056 2328 
Q 1056 1369 1301 889 
Q 1547 409 2034 409 
Q 2525 409 2770 889 
Q 3016 1369 3016 2328 
Q 3016 3291 2770 3770 
Q 2525 4250 2034 4250 
z
M 2034 4750 
Q 2819 4750 3233 4129 
Q 3647 3509 3647 2328 
Q 3647 1150 3233 529 
Q 2819 -91 2034 -91 
Q 1250 -91 836 529 
Q 422 1150 422 2328 
Q 422 3509 836 4129 
Q 1250 4750 2034 4750 
z
" transform="scale(0.015625)"/>
        <path id="DejaVuSans-2e" d="M 684 794 
L 1344 794 
L 1344 0 
L 684 0 
L 684 794 
z
" transform="scale(0.015625)"/>
       </defs>
       <use xlink:href="#DejaVuSans-30"/>
       <use xlink:href="#DejaVuSans-2e" x="63.623047"/>
       <use xlink:href="#DejaVuSans-30" x="95.410156"/>
      </g>
     </g>
    </g>
    <g id="xtick_2">
     <g id="line2d_2">
      <g>
       <use xlink:href="#m9bc160cea1" x="102.09375" y="174.04" style="stroke: #000000; stroke-width: 0.8"/>
      </g>
     </g>
     <g id="text_2">
      <!-- 0.5 -->
      <g transform="translate(94.142188 188.638438)scale(0.1 -0.1)">
       <defs>
        <path id="DejaVuSans-35" d="M 691 4666 
L 3169 4666 
L 3169 4134 
L 1269 4134 
L 1269 2991 
Q 1406 3038 1543 3061 
Q 1681 3084 1819 3084 
Q 2600 3084 3056 2656 
Q 3513 2228 3513 1497 
Q 3513 744 3044 326 
Q 2575 -91 1722 -91 
Q 1428 -91 1123 -41 
Q 819 9 494 109 
L 494 744 
Q 775 591 1075 516 
Q 1375 441 1709 441 
Q 2250 441 2565 725 
Q 2881 1009 2881 1497 
Q 2881 1984 2565 2268 
Q 2250 2553 1709 2553 
Q 1456 2553 1204 2497 
Q 953 2441 691 2322 
L 691 4666 
z
" transform="scale(0.015625)"/>
       </defs>
       <use xlink:href="#DejaVuSans-30"/>
       <use xlink:href="#DejaVuSans-2e" x="63.623047"/>
       <use xlink:href="#DejaVuSans-35" x="95.410156"/>
      </g>
     </g>
    </g>
    <g id="xtick_3">
     <g id="line2d_3">
      <g>
       <use xlink:href="#m9bc160cea1" x="156.4675" y="174.04" style="stroke: #000000; stroke-width: 0.8"/>
      </g>
     </g>
     <g id="text_3">
      <!-- 1.0 -->
      <g transform="translate(148.515938 188.638438)scale(0.1 -0.1)">
       <defs>
        <path id="DejaVuSans-31" d="M 794 531 
L 1825 531 
L 1825 4091 
L 703 3866 
L 703 4441 
L 1819 4666 
L 2450 4666 
L 2450 531 
L 3481 531 
L 3481 0 
L 794 0 
L 794 531 
z
" transform="scale(0.015625)"/>
       </defs>
       <use xlink:href="#DejaVuSans-31"/>
       <use xlink:href="#DejaVuSans-2e" x="63.623047"/>
       <use xlink:href="#DejaVuSans-30" x="95.410156"/>
      </g>
     </g>
    </g>
    <g id="xtick_4">
     <g id="line2d_4">
      <g>
       <use xlink:href="#m9bc160cea1" x="210.84125" y="174.04" style="stroke: #000000; stroke-width: 0.8"/>
      </g>
     </g>
     <g id="text_4">
      <!-- 1.5 -->
      <g transform="translate(202.889687 188.638438)scale(0.1 -0.1)">
       <use xlink:href="#DejaVuSans-31"/>
       <use xlink:href="#DejaVuSans-2e" x="63.623047"/>
       <use xlink:href="#DejaVuSans-35" x="95.410156"/>
      </g>
     </g>
    </g>
    <g id="xtick_5">
     <g id="line2d_5">
      <g>
       <use xlink:href="#m9bc160cea1" x="265.215" y="174.04" style="stroke: #000000; stroke-width: 0.8"/>
      </g>
     </g>
     <g id="text_5">
      <!-- 2.0 -->
      <g transform="translate(257.263437 188.638438)scale(0.1 -0.1)">
       <defs>
        <path id="DejaVuSans-32" d="M 1228 531 
L 3431 531 
L 3431 0 
L 469 0 
L 469 531 
Q 828 903 1448 1529 
Q 2069 2156 2228 2338 
Q 2531 2678 2651 2914 
Q 2772 3150 2772 3378 
Q 2772 3750 2511 3984 
Q 2250 4219 1831 4219 
Q 1534 4219 1204 4116 
Q 875 4013 500 3803 
L 500 4441 
Q 881 4594 1212 4672 
Q 1544 4750 1819 4750 
Q 2544 4750 2975 4387 
Q 3406 4025 3406 3419 
Q 3406 3131 3298 2873 
Q 3191 2616 2906 2266 
Q 2828 2175 2409 1742 
Q 1991 1309 1228 531 
z
" transform="scale(0.015625)"/>
       </defs>
       <use xlink:href="#DejaVuSans-32"/>
       <use xlink:href="#DejaVuSans-2e" x="63.623047"/>
       <use xlink:href="#DejaVuSans-30" x="95.410156"/>
      </g>
     </g>
    </g>
    <g id="text_6">
     <!-- Influence of surprisal (multiplication) -->
     <g transform="translate(64.320625 202.316563)scale(0.1 -0.1)">
      <defs>
       <path id="DejaVuSans-49" d="M 628 4666 
L 1259 4666 
L 1259 0 
L 628 0 
L 628 4666 
z
" transform="scale(0.015625)"/>
       <path id="DejaVuSans-6e" d="M 3513 2113 
L 3513 0 
L 2938 0 
L 2938 2094 
Q 2938 2591 2744 2837 
Q 2550 3084 2163 3084 
Q 1697 3084 1428 2787 
Q 1159 2491 1159 1978 
L 1159 0 
L 581 0 
L 581 3500 
L 1159 3500 
L 1159 2956 
Q 1366 3272 1645 3428 
Q 1925 3584 2291 3584 
Q 2894 3584 3203 3211 
Q 3513 2838 3513 2113 
z
" transform="scale(0.015625)"/>
       <path id="DejaVuSans-66" d="M 2375 4863 
L 2375 4384 
L 1825 4384 
Q 1516 4384 1395 4259 
Q 1275 4134 1275 3809 
L 1275 3500 
L 2222 3500 
L 2222 3053 
L 1275 3053 
L 1275 0 
L 697 0 
L 697 3053 
L 147 3053 
L 147 3500 
L 697 3500 
L 697 3744 
Q 697 4328 969 4595 
Q 1241 4863 1831 4863 
L 2375 4863 
z
" transform="scale(0.015625)"/>
       <path id="DejaVuSans-6c" d="M 603 4863 
L 1178 4863 
L 1178 0 
L 603 0 
L 603 4863 
z
" transform="scale(0.015625)"/>
       <path id="DejaVuSans-75" d="M 544 1381 
L 544 3500 
L 1119 3500 
L 1119 1403 
Q 1119 906 1312 657 
Q 1506 409 1894 409 
Q 2359 409 2629 706 
Q 2900 1003 2900 1516 
L 2900 3500 
L 3475 3500 
L 3475 0 
L 2900 0 
L 2900 538 
Q 2691 219 2414 64 
Q 2138 -91 1772 -91 
Q 1169 -91 856 284 
Q 544 659 544 1381 
z
M 1991 3584 
L 1991 3584 
z
" transform="scale(0.015625)"/>
       <path id="DejaVuSans-65" d="M 3597 1894 
L 3597 1613 
L 953 1613 
Q 991 1019 1311 708 
Q 1631 397 2203 397 
Q 2534 397 2845 478 
Q 3156 559 3463 722 
L 3463 178 
Q 3153 47 2828 -22 
Q 2503 -91 2169 -91 
Q 1331 -91 842 396 
Q 353 884 353 1716 
Q 353 2575 817 3079 
Q 1281 3584 2069 3584 
Q 2775 3584 3186 3129 
Q 3597 2675 3597 1894 
z
M 3022 2063 
Q 3016 2534 2758 2815 
Q 2500 3097 2075 3097 
Q 1594 3097 1305 2825 
Q 1016 2553 972 2059 
L 3022 2063 
z
" transform="scale(0.015625)"/>
       <path id="DejaVuSans-63" d="M 3122 3366 
L 3122 2828 
Q 2878 2963 2633 3030 
Q 2388 3097 2138 3097 
Q 1578 3097 1268 2742 
Q 959 2388 959 1747 
Q 959 1106 1268 751 
Q 1578 397 2138 397 
Q 2388 397 2633 464 
Q 2878 531 3122 666 
L 3122 134 
Q 2881 22 2623 -34 
Q 2366 -91 2075 -91 
Q 1284 -91 818 406 
Q 353 903 353 1747 
Q 353 2603 823 3093 
Q 1294 3584 2113 3584 
Q 2378 3584 2631 3529 
Q 2884 3475 3122 3366 
z
" transform="scale(0.015625)"/>
       <path id="DejaVuSans-20" transform="scale(0.015625)"/>
       <path id="DejaVuSans-6f" d="M 1959 3097 
Q 1497 3097 1228 2736 
Q 959 2375 959 1747 
Q 959 1119 1226 758 
Q 1494 397 1959 397 
Q 2419 397 2687 759 
Q 2956 1122 2956 1747 
Q 2956 2369 2687 2733 
Q 2419 3097 1959 3097 
z
M 1959 3584 
Q 2709 3584 3137 3096 
Q 3566 2609 3566 1747 
Q 3566 888 3137 398 
Q 2709 -91 1959 -91 
Q 1206 -91 779 398 
Q 353 888 353 1747 
Q 353 2609 779 3096 
Q 1206 3584 1959 3584 
z
" transform="scale(0.015625)"/>
       <path id="DejaVuSans-73" d="M 2834 3397 
L 2834 2853 
Q 2591 2978 2328 3040 
Q 2066 3103 1784 3103 
Q 1356 3103 1142 2972 
Q 928 2841 928 2578 
Q 928 2378 1081 2264 
Q 1234 2150 1697 2047 
L 1894 2003 
Q 2506 1872 2764 1633 
Q 3022 1394 3022 966 
Q 3022 478 2636 193 
Q 2250 -91 1575 -91 
Q 1294 -91 989 -36 
Q 684 19 347 128 
L 347 722 
Q 666 556 975 473 
Q 1284 391 1588 391 
Q 1994 391 2212 530 
Q 2431 669 2431 922 
Q 2431 1156 2273 1281 
Q 2116 1406 1581 1522 
L 1381 1569 
Q 847 1681 609 1914 
Q 372 2147 372 2553 
Q 372 3047 722 3315 
Q 1072 3584 1716 3584 
Q 2034 3584 2315 3537 
Q 2597 3491 2834 3397 
z
" transform="scale(0.015625)"/>
       <path id="DejaVuSans-72" d="M 2631 2963 
Q 2534 3019 2420 3045 
Q 2306 3072 2169 3072 
Q 1681 3072 1420 2755 
Q 1159 2438 1159 1844 
L 1159 0 
L 581 0 
L 581 3500 
L 1159 3500 
L 1159 2956 
Q 1341 3275 1631 3429 
Q 1922 3584 2338 3584 
Q 2397 3584 2469 3576 
Q 2541 3569 2628 3553 
L 2631 2963 
z
" transform="scale(0.015625)"/>
       <path id="DejaVuSans-70" d="M 1159 525 
L 1159 -1331 
L 581 -1331 
L 581 3500 
L 1159 3500 
L 1159 2969 
Q 1341 3281 1617 3432 
Q 1894 3584 2278 3584 
Q 2916 3584 3314 3078 
Q 3713 2572 3713 1747 
Q 3713 922 3314 415 
Q 2916 -91 2278 -91 
Q 1894 -91 1617 61 
Q 1341 213 1159 525 
z
M 3116 1747 
Q 3116 2381 2855 2742 
Q 2594 3103 2138 3103 
Q 1681 3103 1420 2742 
Q 1159 2381 1159 1747 
Q 1159 1113 1420 752 
Q 1681 391 2138 391 
Q 2594 391 2855 752 
Q 3116 1113 3116 1747 
z
" transform="scale(0.015625)"/>
       <path id="DejaVuSans-69" d="M 603 3500 
L 1178 3500 
L 1178 0 
L 603 0 
L 603 3500 
z
M 603 4863 
L 1178 4863 
L 1178 4134 
L 603 4134 
L 603 4863 
z
" transform="scale(0.015625)"/>
       <path id="DejaVuSans-61" d="M 2194 1759 
Q 1497 1759 1228 1600 
Q 959 1441 959 1056 
Q 959 750 1161 570 
Q 1363 391 1709 391 
Q 2188 391 2477 730 
Q 2766 1069 2766 1631 
L 2766 1759 
L 2194 1759 
z
M 3341 1997 
L 3341 0 
L 2766 0 
L 2766 531 
Q 2569 213 2275 61 
Q 1981 -91 1556 -91 
Q 1019 -91 701 211 
Q 384 513 384 1019 
Q 384 1609 779 1909 
Q 1175 2209 1959 2209 
L 2766 2209 
L 2766 2266 
Q 2766 2663 2505 2880 
Q 2244 3097 1772 3097 
Q 1472 3097 1187 3025 
Q 903 2953 641 2809 
L 641 3341 
Q 956 3463 1253 3523 
Q 1550 3584 1831 3584 
Q 2591 3584 2966 3190 
Q 3341 2797 3341 1997 
z
" transform="scale(0.015625)"/>
       <path id="DejaVuSans-28" d="M 1984 4856 
Q 1566 4138 1362 3434 
Q 1159 2731 1159 2009 
Q 1159 1288 1364 580 
Q 1569 -128 1984 -844 
L 1484 -844 
Q 1016 -109 783 600 
Q 550 1309 550 2009 
Q 550 2706 781 3412 
Q 1013 4119 1484 4856 
L 1984 4856 
z
" transform="scale(0.015625)"/>
       <path id="DejaVuSans-6d" d="M 3328 2828 
Q 3544 3216 3844 3400 
Q 4144 3584 4550 3584 
Q 5097 3584 5394 3201 
Q 5691 2819 5691 2113 
L 5691 0 
L 5113 0 
L 5113 2094 
Q 5113 2597 4934 2840 
Q 4756 3084 4391 3084 
Q 3944 3084 3684 2787 
Q 3425 2491 3425 1978 
L 3425 0 
L 2847 0 
L 2847 2094 
Q 2847 2600 2669 2842 
Q 2491 3084 2119 3084 
Q 1678 3084 1418 2786 
Q 1159 2488 1159 1978 
L 1159 0 
L 581 0 
L 581 3500 
L 1159 3500 
L 1159 2956 
Q 1356 3278 1631 3431 
Q 1906 3584 2284 3584 
Q 2666 3584 2933 3390 
Q 3200 3197 3328 2828 
z
" transform="scale(0.015625)"/>
       <path id="DejaVuSans-74" d="M 1172 4494 
L 1172 3500 
L 2356 3500 
L 2356 3053 
L 1172 3053 
L 1172 1153 
Q 1172 725 1289 603 
Q 1406 481 1766 481 
L 2356 481 
L 2356 0 
L 1766 0 
Q 1100 0 847 248 
Q 594 497 594 1153 
L 594 3053 
L 172 3053 
L 172 3500 
L 594 3500 
L 594 4494 
L 1172 4494 
z
" transform="scale(0.015625)"/>
       <path id="DejaVuSans-29" d="M 513 4856 
L 1013 4856 
Q 1481 4119 1714 3412 
Q 1947 2706 1947 2009 
Q 1947 1309 1714 600 
Q 1481 -109 1013 -844 
L 513 -844 
Q 928 -128 1133 580 
Q 1338 1288 1338 2009 
Q 1338 2731 1133 3434 
Q 928 4138 513 4856 
z
" transform="scale(0.015625)"/>
      </defs>
      <use xlink:href="#DejaVuSans-49"/>
      <use xlink:href="#DejaVuSans-6e" x="29.492188"/>
      <use xlink:href="#DejaVuSans-66" x="92.871094"/>
      <use xlink:href="#DejaVuSans-6c" x="128.076172"/>
      <use xlink:href="#DejaVuSans-75" x="155.859375"/>
      <use xlink:href="#DejaVuSans-65" x="219.238281"/>
      <use xlink:href="#DejaVuSans-6e" x="280.761719"/>
      <use xlink:href="#DejaVuSans-63" x="344.140625"/>
      <use xlink:href="#DejaVuSans-65" x="399.121094"/>
      <use xlink:href="#DejaVuSans-20" x="460.644531"/>
      <use xlink:href="#DejaVuSans-6f" x="492.431641"/>
      <use xlink:href="#DejaVuSans-66" x="553.613281"/>
      <use xlink:href="#DejaVuSans-20" x="588.818359"/>
      <use xlink:href="#DejaVuSans-73" x="620.605469"/>
      <use xlink:href="#DejaVuSans-75" x="672.705078"/>
      <use xlink:href="#DejaVuSans-72" x="736.083984"/>
      <use xlink:href="#DejaVuSans-70" x="777.197266"/>
      <use xlink:href="#DejaVuSans-72" x="840.673828"/>
      <use xlink:href="#DejaVuSans-69" x="881.787109"/>
      <use xlink:href="#DejaVuSans-73" x="909.570312"/>
      <use xlink:href="#DejaVuSans-61" x="961.669922"/>
      <use xlink:href="#DejaVuSans-6c" x="1022.949219"/>
      <use xlink:href="#DejaVuSans-20" x="1050.732422"/>
      <use xlink:href="#DejaVuSans-28" x="1082.519531"/>
      <use xlink:href="#DejaVuSans-6d" x="1121.533203"/>
      <use xlink:href="#DejaVuSans-75" x="1218.945312"/>
      <use xlink:href="#DejaVuSans-6c" x="1282.324219"/>
      <use xlink:href="#DejaVuSans-74" x="1310.107422"/>
      <use xlink:href="#DejaVuSans-69" x="1349.316406"/>
      <use xlink:href="#DejaVuSans-70" x="1377.099609"/>
      <use xlink:href="#DejaVuSans-6c" x="1440.576172"/>
      <use xlink:href="#DejaVuSans-69" x="1468.359375"/>
      <use xlink:href="#DejaVuSans-63" x="1496.142578"/>
      <use xlink:href="#DejaVuSans-61" x="1551.123047"/>
      <use xlink:href="#DejaVuSans-74" x="1612.402344"/>
      <use xlink:href="#DejaVuSans-69" x="1651.611328"/>
      <use xlink:href="#DejaVuSans-6f" x="1679.394531"/>
      <use xlink:href="#DejaVuSans-6e" x="1740.576172"/>
      <use xlink:href="#DejaVuSans-29" x="1803.955078"/>
     </g>
    </g>
   </g>
   <g id="matplotlib.axis_2">
    <g id="ytick_1">
     <g id="line2d_6">
      <defs>
       <path id="m303b8e7e5f" d="M 0 0 
L -3.5 0 
" style="stroke: #000000; stroke-width: 0.8"/>
      </defs>
      <g>
       <use xlink:href="#m303b8e7e5f" x="47.72" y="142.84191" style="stroke: #000000; stroke-width: 0.8"/>
      </g>
     </g>
     <g id="text_7">
      <!-- 0.4 -->
      <g transform="translate(24.816875 146.641129)scale(0.1 -0.1)">
       <defs>
        <path id="DejaVuSans-34" d="M 2419 4116 
L 825 1625 
L 2419 1625 
L 2419 4116 
z
M 2253 4666 
L 3047 4666 
L 3047 1625 
L 3713 1625 
L 3713 1100 
L 3047 1100 
L 3047 0 
L 2419 0 
L 2419 1100 
L 313 1100 
L 313 1709 
L 2253 4666 
z
" transform="scale(0.015625)"/>
       </defs>
       <use xlink:href="#DejaVuSans-30"/>
       <use xlink:href="#DejaVuSans-2e" x="63.623047"/>
       <use xlink:href="#DejaVuSans-34" x="95.410156"/>
      </g>
     </g>
    </g>
    <g id="ytick_2">
     <g id="line2d_7">
      <g>
       <use xlink:href="#m303b8e7e5f" x="47.72" y="106.417636" style="stroke: #000000; stroke-width: 0.8"/>
      </g>
     </g>
     <g id="text_8">
      <!-- 0.6 -->
      <g transform="translate(24.816875 110.216855)scale(0.1 -0.1)">
       <defs>
        <path id="DejaVuSans-36" d="M 2113 2584 
Q 1688 2584 1439 2293 
Q 1191 2003 1191 1497 
Q 1191 994 1439 701 
Q 1688 409 2113 409 
Q 2538 409 2786 701 
Q 3034 994 3034 1497 
Q 3034 2003 2786 2293 
Q 2538 2584 2113 2584 
z
M 3366 4563 
L 3366 3988 
Q 3128 4100 2886 4159 
Q 2644 4219 2406 4219 
Q 1781 4219 1451 3797 
Q 1122 3375 1075 2522 
Q 1259 2794 1537 2939 
Q 1816 3084 2150 3084 
Q 2853 3084 3261 2657 
Q 3669 2231 3669 1497 
Q 3669 778 3244 343 
Q 2819 -91 2113 -91 
Q 1303 -91 875 529 
Q 447 1150 447 2328 
Q 447 3434 972 4092 
Q 1497 4750 2381 4750 
Q 2619 4750 2861 4703 
Q 3103 4656 3366 4563 
z
" transform="scale(0.015625)"/>
       </defs>
       <use xlink:href="#DejaVuSans-30"/>
       <use xlink:href="#DejaVuSans-2e" x="63.623047"/>
       <use xlink:href="#DejaVuSans-36" x="95.410156"/>
      </g>
     </g>
    </g>
    <g id="ytick_3">
     <g id="line2d_8">
      <g>
       <use xlink:href="#m303b8e7e5f" x="47.72" y="69.993362" style="stroke: #000000; stroke-width: 0.8"/>
      </g>
     </g>
     <g id="text_9">
      <!-- 0.8 -->
      <g transform="translate(24.816875 73.792581)scale(0.1 -0.1)">
       <defs>
        <path id="DejaVuSans-38" d="M 2034 2216 
Q 1584 2216 1326 1975 
Q 1069 1734 1069 1313 
Q 1069 891 1326 650 
Q 1584 409 2034 409 
Q 2484 409 2743 651 
Q 3003 894 3003 1313 
Q 3003 1734 2745 1975 
Q 2488 2216 2034 2216 
z
M 1403 2484 
Q 997 2584 770 2862 
Q 544 3141 544 3541 
Q 544 4100 942 4425 
Q 1341 4750 2034 4750 
Q 2731 4750 3128 4425 
Q 3525 4100 3525 3541 
Q 3525 3141 3298 2862 
Q 3072 2584 2669 2484 
Q 3125 2378 3379 2068 
Q 3634 1759 3634 1313 
Q 3634 634 3220 271 
Q 2806 -91 2034 -91 
Q 1263 -91 848 271 
Q 434 634 434 1313 
Q 434 1759 690 2068 
Q 947 2378 1403 2484 
z
M 1172 3481 
Q 1172 3119 1398 2916 
Q 1625 2713 2034 2713 
Q 2441 2713 2670 2916 
Q 2900 3119 2900 3481 
Q 2900 3844 2670 4047 
Q 2441 4250 2034 4250 
Q 1625 4250 1398 4047 
Q 1172 3844 1172 3481 
z
" transform="scale(0.015625)"/>
       </defs>
       <use xlink:href="#DejaVuSans-30"/>
       <use xlink:href="#DejaVuSans-2e" x="63.623047"/>
       <use xlink:href="#DejaVuSans-38" x="95.410156"/>
      </g>
     </g>
    </g>
    <g id="ytick_4">
     <g id="line2d_9">
      <g>
       <use xlink:href="#m303b8e7e5f" x="47.72" y="33.569088" style="stroke: #000000; stroke-width: 0.8"/>
      </g>
     </g>
     <g id="text_10">
      <!-- 1.0 -->
      <g transform="translate(24.816875 37.368307)scale(0.1 -0.1)">
       <use xlink:href="#DejaVuSans-31"/>
       <use xlink:href="#DejaVuSans-2e" x="63.623047"/>
       <use xlink:href="#DejaVuSans-30" x="95.410156"/>
      </g>
     </g>
    </g>
    <g id="text_11">
     <!-- R-value -->
     <g transform="translate(18.737188 119.064687)rotate(-90)scale(0.1 -0.1)">
      <defs>
       <path id="DejaVuSans-52" d="M 2841 2188 
Q 3044 2119 3236 1894 
Q 3428 1669 3622 1275 
L 4263 0 
L 3584 0 
L 2988 1197 
Q 2756 1666 2539 1819 
Q 2322 1972 1947 1972 
L 1259 1972 
L 1259 0 
L 628 0 
L 628 4666 
L 2053 4666 
Q 2853 4666 3247 4331 
Q 3641 3997 3641 3322 
Q 3641 2881 3436 2590 
Q 3231 2300 2841 2188 
z
M 1259 4147 
L 1259 2491 
L 2053 2491 
Q 2509 2491 2742 2702 
Q 2975 2913 2975 3322 
Q 2975 3731 2742 3939 
Q 2509 4147 2053 4147 
L 1259 4147 
z
" transform="scale(0.015625)"/>
       <path id="DejaVuSans-2d" d="M 313 2009 
L 1997 2009 
L 1997 1497 
L 313 1497 
L 313 2009 
z
" transform="scale(0.015625)"/>
       <path id="DejaVuSans-76" d="M 191 3500 
L 800 3500 
L 1894 563 
L 2988 3500 
L 3597 3500 
L 2284 0 
L 1503 0 
L 191 3500 
z
" transform="scale(0.015625)"/>
      </defs>
      <use xlink:href="#DejaVuSans-52"/>
      <use xlink:href="#DejaVuSans-2d" x="65.482422"/>
      <use xlink:href="#DejaVuSans-76" x="98.941406"/>
      <use xlink:href="#DejaVuSans-61" x="158.121094"/>
      <use xlink:href="#DejaVuSans-6c" x="219.400391"/>
      <use xlink:href="#DejaVuSans-75" x="247.183594"/>
      <use xlink:href="#DejaVuSans-65" x="310.5625"/>
     </g>
    </g>
   </g>
   <g id="line2d_10">
    <path d="M 47.72 33.569092 
L 59.167105 34.491796 
L 70.614211 37.178036 
L 82.061316 41.089711 
L 93.508421 46.147696 
L 104.955526 52.098336 
L 116.402632 58.709787 
L 127.849737 65.947313 
L 139.296842 73.144244 
L 150.743947 80.41282 
L 162.191053 87.607057 
L 173.638158 94.729587 
L 185.085263 102.340048 
L 196.532368 108.820627 
L 207.979474 115.48979 
L 219.426579 121.852233 
L 230.873684 127.513801 
L 242.320789 133.730041 
L 253.767895 138.779684 
L 265.215 143.35517 
" clip-path="url(#pec1d3f7a86)" style="fill: none; stroke: #1f77b4; stroke-width: 1.5; stroke-linecap: square"/>
   </g>
   <g id="line2d_11">
    <path d="M 47.72 33.569241 
L 59.167105 34.160711 
L 70.614211 35.635955 
L 82.061316 37.790798 
L 93.508421 40.811107 
L 104.955526 44.422263 
L 116.402632 48.877251 
L 127.849737 54.010128 
L 139.296842 59.454246 
L 150.743947 65.306886 
L 162.191053 71.538359 
L 173.638158 77.751129 
L 185.085263 84.717406 
L 196.532368 90.684047 
L 207.979474 97.064617 
L 219.426579 103.10645 
L 230.873684 108.724999 
L 242.320789 114.956695 
L 253.767895 120.218601 
L 265.215 125.084431 
" clip-path="url(#pec1d3f7a86)" style="fill: none; stroke: #ff7f0e; stroke-width: 1.5; stroke-linecap: square"/>
   </g>
   <g id="line2d_12">
    <path d="M 47.72 33.569102 
L 59.167105 34.27704 
L 70.614211 35.524239 
L 82.061316 37.172057 
L 93.508421 39.37109 
L 104.955526 42.003534 
L 116.402632 44.969825 
L 127.849737 48.316822 
L 139.296842 51.480816 
L 150.743947 54.893633 
L 162.191053 58.30052 
L 173.638158 61.943886 
L 185.085263 65.416179 
L 196.532368 68.716823 
L 207.979474 72.379971 
L 219.426579 75.947386 
L 230.873684 79.283972 
L 242.320789 83.16318 
L 253.767895 86.654654 
L 265.215 90.065758 
" clip-path="url(#pec1d3f7a86)" style="fill: none; stroke: #2ca02c; stroke-width: 1.5; stroke-linecap: square"/>
   </g>
   <g id="line2d_13">
    <path d="M 47.72 33.569891 
L 59.167105 34.129287 
L 70.614211 35.1008 
L 82.061316 36.357862 
L 93.508421 38.145249 
L 104.955526 40.259686 
L 116.402632 42.876895 
L 127.849737 45.911422 
L 139.296842 48.937784 
L 150.743947 52.335668 
L 162.191053 55.878617 
L 173.638158 59.596163 
L 185.085263 63.301785 
L 196.532368 66.679266 
L 207.979474 70.473724 
L 219.426579 74.099618 
L 230.873684 77.518092 
L 242.320789 81.4161 
L 253.767895 84.971243 
L 265.215 88.441225 
" clip-path="url(#pec1d3f7a86)" style="fill: none; stroke: #d62728; stroke-width: 1.5; stroke-linecap: square"/>
   </g>
   <g id="line2d_14">
    <path d="M 47.72 33.569102 
L 59.167105 34.494571 
L 70.614211 37.191264 
L 82.061316 41.105073 
L 93.508421 46.190038 
L 104.955526 52.126885 
L 116.402632 58.773092 
L 127.849737 65.963291 
L 139.296842 73.229525 
L 150.743947 80.437094 
L 162.191053 88.240545 
L 173.638158 95.135892 
L 185.085263 102.531445 
L 196.532368 109.248632 
L 207.979474 115.602918 
L 219.426579 122.007675 
L 230.873684 127.594865 
L 242.320789 134.299318 
L 253.767895 139.796215 
L 265.215 143.879957 
" clip-path="url(#pec1d3f7a86)" style="fill: none; stroke: #9467bd; stroke-width: 1.5; stroke-linecap: square"/>
   </g>
   <g id="line2d_15">
    <path d="M 47.72 33.569699 
L 59.167105 34.162217 
L 70.614211 35.639914 
L 82.061316 37.789283 
L 93.508421 40.823409 
L 104.955526 44.444786 
L 116.402632 48.891338 
L 127.849737 54.012469 
L 139.296842 59.56424 
L 150.743947 65.360309 
L 162.191053 72.042173 
L 173.638158 78.003639 
L 185.085263 84.936634 
L 196.532368 90.942952 
L 207.979474 97.168631 
L 219.426579 103.233367 
L 230.873684 108.807701 
L 242.320789 115.45069 
L 253.767895 120.896333 
L 265.215 125.547794 
" clip-path="url(#pec1d3f7a86)" style="fill: none; stroke: #8c564b; stroke-width: 1.5; stroke-linecap: square"/>
   </g>
   <g id="line2d_16">
    <path d="M 47.72 48.021169 
L 59.167105 49.193437 
L 70.614211 52.359448 
L 82.061316 57.109871 
L 93.508421 63.148852 
L 104.955526 70.265635 
L 116.402632 77.817731 
L 127.849737 85.798609 
L 139.296842 93.5486 
L 150.743947 100.894509 
L 162.191053 108.197253 
L 173.638158 115.270043 
L 185.085263 122.483543 
L 196.532368 128.543853 
L 207.979474 134.764172 
L 219.426579 140.525082 
L 230.873684 145.586937 
L 242.320789 151.093687 
L 253.767895 155.269657 
L 265.215 159.309594 
" clip-path="url(#pec1d3f7a86)" style="fill: none; stroke: #e377c2; stroke-width: 1.5; stroke-linecap: square"/>
   </g>
   <g id="line2d_17">
    <path d="M 47.72 33.569426 
L 59.167105 33.847876 
L 70.614211 34.016963 
L 82.061316 34.509991 
L 93.508421 35.544711 
L 104.955526 37.491594 
L 116.402632 40.184911 
L 127.849737 43.962779 
L 139.296842 48.282763 
L 150.743947 53.237449 
L 162.191053 58.625201 
L 173.638158 64.322491 
L 185.085263 70.324199 
L 196.532368 75.8296 
L 207.979474 81.716096 
L 219.426579 87.512044 
L 230.873684 93.059292 
L 242.320789 99.37888 
L 253.767895 105.007043 
L 265.215 110.356066 
" clip-path="url(#pec1d3f7a86)" style="fill: none; stroke: #7f7f7f; stroke-width: 1.5; stroke-linecap: square"/>
   </g>
   <g id="patch_3">
    <path d="M 47.72 174.04 
L 47.72 26.88 
" style="fill: none; stroke: #000000; stroke-width: 0.8; stroke-linejoin: miter; stroke-linecap: square"/>
   </g>
   <g id="patch_4">
    <path d="M 47.72 174.04 
L 265.215 174.04 
" style="fill: none; stroke: #000000; stroke-width: 0.8; stroke-linejoin: miter; stroke-linecap: square"/>
   </g>
   <g id="text_12">
    <!-- Node * surprisal -->
    <g transform="translate(108.18625 20.88)scale(0.12 -0.12)">
     <defs>
      <path id="DejaVuSans-4e" d="M 628 4666 
L 1478 4666 
L 3547 763 
L 3547 4666 
L 4159 4666 
L 4159 0 
L 3309 0 
L 1241 3903 
L 1241 0 
L 628 0 
L 628 4666 
z
" transform="scale(0.015625)"/>
      <path id="DejaVuSans-64" d="M 2906 2969 
L 2906 4863 
L 3481 4863 
L 3481 0 
L 2906 0 
L 2906 525 
Q 2725 213 2448 61 
Q 2172 -91 1784 -91 
Q 1150 -91 751 415 
Q 353 922 353 1747 
Q 353 2572 751 3078 
Q 1150 3584 1784 3584 
Q 2172 3584 2448 3432 
Q 2725 3281 2906 2969 
z
M 947 1747 
Q 947 1113 1208 752 
Q 1469 391 1925 391 
Q 2381 391 2643 752 
Q 2906 1113 2906 1747 
Q 2906 2381 2643 2742 
Q 2381 3103 1925 3103 
Q 1469 3103 1208 2742 
Q 947 2381 947 1747 
z
" transform="scale(0.015625)"/>
      <path id="DejaVuSans-2a" d="M 3009 3897 
L 1888 3291 
L 3009 2681 
L 2828 2375 
L 1778 3009 
L 1778 1831 
L 1422 1831 
L 1422 3009 
L 372 2375 
L 191 2681 
L 1313 3291 
L 191 3897 
L 372 4206 
L 1422 3572 
L 1422 4750 
L 1778 4750 
L 1778 3572 
L 2828 4206 
L 3009 3897 
z
" transform="scale(0.015625)"/>
     </defs>
     <use xlink:href="#DejaVuSans-4e"/>
     <use xlink:href="#DejaVuSans-6f" x="74.804688"/>
     <use xlink:href="#DejaVuSans-64" x="135.986328"/>
     <use xlink:href="#DejaVuSans-65" x="199.462891"/>
     <use xlink:href="#DejaVuSans-20" x="260.986328"/>
     <use xlink:href="#DejaVuSans-2a" x="292.773438"/>
     <use xlink:href="#DejaVuSans-20" x="342.773438"/>
     <use xlink:href="#DejaVuSans-73" x="374.560547"/>
     <use xlink:href="#DejaVuSans-75" x="426.660156"/>
     <use xlink:href="#DejaVuSans-72" x="490.039062"/>
     <use xlink:href="#DejaVuSans-70" x="531.152344"/>
     <use xlink:href="#DejaVuSans-72" x="594.628906"/>
     <use xlink:href="#DejaVuSans-69" x="635.742188"/>
     <use xlink:href="#DejaVuSans-73" x="663.525391"/>
     <use xlink:href="#DejaVuSans-61" x="715.625"/>
     <use xlink:href="#DejaVuSans-6c" x="776.904297"/>
    </g>
   </g>
  </g>
  <g id="axes_2">
   <g id="patch_5">
    <path d="M 298.065 174.04 
L 515.56 174.04 
L 515.56 26.88 
L 298.065 26.88 
z
" style="fill: #ffffff"/>
   </g>
   <g id="PolyCollection_9">
    <path d="M 298.065 33.569091 
L 298.065 33.569092 
L 309.512105 34.684657 
L 320.959211 38.321573 
L 332.406316 42.933723 
L 343.853421 49.367203 
L 355.300526 55.977344 
L 366.747632 63.111231 
L 378.194737 70.609494 
L 389.641842 77.897747 
L 401.088947 84.79261 
L 412.536053 91.630497 
L 423.983158 98.438453 
L 435.430263 104.707348 
L 446.877368 111.786447 
L 458.324474 117.958932 
L 469.771579 124.221207 
L 481.218684 130.571287 
L 492.665789 136.276142 
L 504.112895 141.858392 
L 515.56 147.271552 
L 515.56 136.348166 
L 515.56 136.348166 
L 504.112895 131.446523 
L 492.665789 127.167026 
L 481.218684 122.184189 
L 469.771579 116.359577 
L 458.324474 111.030692 
L 446.877368 104.79502 
L 435.430263 98.16888 
L 423.983158 91.276096 
L 412.536053 84.558723 
L 401.088947 76.824407 
L 389.641842 69.958895 
L 378.194737 62.792885 
L 366.747632 56.114752 
L 355.300526 49.982526 
L 343.853421 44.281584 
L 332.406316 39.871107 
L 320.959211 36.663812 
L 309.512105 34.316895 
L 298.065 33.569091 
z
" clip-path="url(#p4d153601ad)" style="fill: #1f77b4; fill-opacity: 0.4"/>
   </g>
   <g id="PolyCollection_10">
    <path d="M 298.065 33.569216 
L 298.065 33.569265 
L 309.512105 34.689199 
L 320.959211 38.322783 
L 332.406316 42.943142 
L 343.853421 49.373171 
L 355.300526 55.983608 
L 366.747632 63.101379 
L 378.194737 70.593352 
L 389.641842 77.887356 
L 401.088947 84.779918 
L 412.536053 91.646153 
L 423.983158 98.463294 
L 435.430263 104.771869 
L 446.877368 111.867555 
L 458.324474 118.048263 
L 469.771579 124.2744 
L 481.218684 130.647048 
L 492.665789 136.32188 
L 504.112895 141.914519 
L 515.56 147.300219 
L 515.56 136.317602 
L 515.56 136.317602 
L 504.112895 131.44735 
L 492.665789 127.180353 
L 481.218684 122.240761 
L 469.771579 116.414578 
L 458.324474 111.040439 
L 446.877368 104.814424 
L 435.430263 98.188851 
L 423.983158 91.305043 
L 412.536053 84.588717 
L 401.088947 76.86274 
L 389.641842 69.989569 
L 378.194737 62.825315 
L 366.747632 56.147308 
L 355.300526 50.00051 
L 343.853421 44.298397 
L 332.406316 39.879529 
L 320.959211 36.666831 
L 309.512105 34.318631 
L 298.065 33.569216 
z
" clip-path="url(#p4d153601ad)" style="fill: #ff7f0e; fill-opacity: 0.4"/>
   </g>
   <g id="PolyCollection_11">
    <path d="M 298.065 33.569099 
L 298.065 33.569104 
L 309.512105 34.685861 
L 320.959211 38.322727 
L 332.406316 42.933659 
L 343.853421 49.362919 
L 355.300526 56.01336 
L 366.747632 63.162316 
L 378.194737 70.674148 
L 389.641842 78.005554 
L 401.088947 84.92567 
L 412.536053 91.801105 
L 423.983158 98.677243 
L 435.430263 104.990464 
L 446.877368 112.114401 
L 458.324474 118.145774 
L 469.771579 124.453514 
L 481.218684 130.786669 
L 492.665789 136.466681 
L 504.112895 142.056437 
L 515.56 147.439893 
L 515.56 136.882901 
L 515.56 136.882901 
L 504.112895 131.840017 
L 492.665789 127.446243 
L 481.218684 122.457941 
L 469.771579 116.548449 
L 458.324474 111.250484 
L 446.877368 104.993713 
L 435.430263 98.348053 
L 423.983158 91.448076 
L 412.536053 84.712574 
L 401.088947 76.999628 
L 389.641842 70.109542 
L 378.194737 62.941292 
L 366.747632 56.24478 
L 355.300526 50.063511 
L 343.853421 44.369934 
L 332.406316 39.909434 
L 320.959211 36.679601 
L 309.512105 34.318329 
L 298.065 33.569099 
z
" clip-path="url(#p4d153601ad)" style="fill: #2ca02c; fill-opacity: 0.4"/>
   </g>
   <g id="PolyCollection_12">
    <path d="M 298.065 33.569762 
L 298.065 33.570021 
L 309.512105 34.690164 
L 320.959211 38.341344 
L 332.406316 42.94768 
L 343.853421 49.375998 
L 355.300526 56.027438 
L 366.747632 63.148949 
L 378.194737 70.635456 
L 389.641842 77.951411 
L 401.088947 84.856508 
L 412.536053 91.738963 
L 423.983158 98.61221 
L 435.430263 104.97911 
L 446.877368 112.115856 
L 458.324474 118.179188 
L 469.771579 124.524626 
L 481.218684 130.84962 
L 492.665789 136.508192 
L 504.112895 142.114678 
L 515.56 147.513786 
L 515.56 136.782869 
L 515.56 136.782869 
L 504.112895 131.754494 
L 492.665789 127.368975 
L 481.218684 122.420133 
L 469.771579 116.496729 
L 458.324474 111.194884 
L 446.877368 104.962109 
L 435.430263 98.339796 
L 423.983158 91.458627 
L 412.536053 84.729027 
L 401.088947 77.023083 
L 389.641842 70.133671 
L 378.194737 62.956642 
L 366.747632 56.256157 
L 355.300526 50.059213 
L 343.853421 44.357322 
L 332.406316 39.900541 
L 320.959211 36.673035 
L 309.512105 34.319393 
L 298.065 33.569762 
z
" clip-path="url(#p4d153601ad)" style="fill: #d62728; fill-opacity: 0.4"/>
   </g>
   <g id="PolyCollection_13">
    <path d="M 298.065 33.5691 
L 298.065 33.569104 
L 309.512105 34.684455 
L 320.959211 38.339732 
L 332.406316 42.94042 
L 343.853421 49.455885 
L 355.300526 56.076676 
L 366.747632 63.268772 
L 378.194737 70.781842 
L 389.641842 77.862467 
L 401.088947 84.837654 
L 412.536053 91.531228 
L 423.983158 98.574259 
L 435.430263 104.842413 
L 446.877368 111.744064 
L 458.324474 118.188328 
L 469.771579 124.559453 
L 481.218684 130.560345 
L 492.665789 136.411799 
L 504.112895 142.405109 
L 515.56 147.856162 
L 515.56 136.584559 
L 515.56 136.584559 
L 504.112895 132.230718 
L 492.665789 127.52509 
L 481.218684 121.807278 
L 469.771579 116.795613 
L 458.324474 111.137949 
L 446.877368 105.138111 
L 435.430263 98.261622 
L 423.983158 91.171652 
L 412.536053 84.391067 
L 401.088947 76.721399 
L 389.641842 70.031938 
L 378.194737 63.032992 
L 366.747632 56.362181 
L 355.300526 49.940766 
L 343.853421 44.339245 
L 332.406316 39.923407 
L 320.959211 36.667814 
L 309.512105 34.315187 
L 298.065 33.5691 
z
" clip-path="url(#p4d153601ad)" style="fill: #9467bd; fill-opacity: 0.4"/>
   </g>
   <g id="PolyCollection_14">
    <path d="M 298.065 33.569602 
L 298.065 33.569795 
L 309.512105 34.689685 
L 320.959211 38.342906 
L 332.406316 42.950305 
L 343.853421 49.462708 
L 355.300526 56.080717 
L 366.747632 63.264361 
L 378.194737 70.773163 
L 389.641842 77.851332 
L 401.088947 84.82115 
L 412.536053 91.545642 
L 423.983158 98.591672 
L 435.430263 104.913147 
L 446.877368 111.83046 
L 458.324474 118.259092 
L 469.771579 124.6114 
L 481.218684 130.644512 
L 492.665789 136.426317 
L 504.112895 142.44742 
L 515.56 147.904726 
L 515.56 136.550264 
L 515.56 136.550264 
L 504.112895 132.28435 
L 492.665789 127.53292 
L 481.218684 121.845309 
L 469.771579 116.845745 
L 458.324474 111.160612 
L 446.877368 105.14943 
L 435.430263 98.285564 
L 423.983158 91.195395 
L 412.536053 84.426503 
L 401.088947 76.756733 
L 389.641842 70.067778 
L 378.194737 63.07217 
L 366.747632 56.384996 
L 355.300526 49.959947 
L 343.853421 44.361669 
L 332.406316 39.935173 
L 320.959211 36.672511 
L 309.512105 34.317683 
L 298.065 33.569602 
z
" clip-path="url(#p4d153601ad)" style="fill: #8c564b; fill-opacity: 0.4"/>
   </g>
   <g id="PolyCollection_15">
    <path d="M 298.065 46.492783 
L 298.065 49.549555 
L 309.512105 50.335163 
L 320.959211 53.199602 
L 332.406316 57.202791 
L 343.853421 63.204023 
L 355.300526 69.546648 
L 366.747632 76.445624 
L 378.194737 83.215993 
L 389.641842 89.866947 
L 401.088947 96.191553 
L 412.536053 102.492868 
L 423.983158 108.27307 
L 435.430263 113.725438 
L 446.877368 120.000949 
L 458.324474 125.909022 
L 469.771579 131.620574 
L 481.218684 137.363498 
L 492.665789 142.754985 
L 504.112895 147.62831 
L 515.56 152.47142 
L 515.56 142.300431 
L 515.56 142.300431 
L 504.112895 137.632129 
L 492.665789 133.41085 
L 481.218684 129.222783 
L 469.771579 123.922143 
L 458.324474 118.878471 
L 446.877368 113.807347 
L 435.430263 107.36708 
L 423.983158 101.106419 
L 412.536053 94.644407 
L 401.088947 87.579855 
L 389.641842 81.311116 
L 378.194737 74.616083 
L 366.747632 68.494414 
L 355.300526 62.995547 
L 343.853421 57.778464 
L 332.406316 53.505659 
L 320.959211 50.287383 
L 309.512105 47.421676 
L 298.065 46.492783 
z
" clip-path="url(#p4d153601ad)" style="fill: #e377c2; fill-opacity: 0.4"/>
   </g>
   <g id="PolyCollection_16">
    <path d="M 298.065 33.569364 
L 298.065 33.569489 
L 309.512105 34.692104 
L 320.959211 38.36325 
L 332.406316 42.976402 
L 343.853421 49.390879 
L 355.300526 56.02758 
L 366.747632 63.139833 
L 378.194737 70.628265 
L 389.641842 77.904866 
L 401.088947 84.796951 
L 412.536053 91.695963 
L 423.983158 98.534346 
L 435.430263 104.810564 
L 446.877368 111.973085 
L 458.324474 118.039459 
L 469.771579 124.285493 
L 481.218684 130.630498 
L 492.665789 136.317917 
L 504.112895 141.892225 
L 515.56 147.314047 
L 515.56 137.065376 
L 515.56 137.065376 
L 504.112895 132.122833 
L 492.665789 127.701823 
L 481.218684 122.744719 
L 469.771579 116.84441 
L 458.324474 111.424702 
L 446.877368 105.053506 
L 435.430263 98.462901 
L 423.983158 91.471897 
L 412.536053 84.738539 
L 401.088947 77.01497 
L 389.641842 70.093128 
L 378.194737 62.912059 
L 366.747632 56.21853 
L 355.300526 50.052309 
L 343.853421 44.344472 
L 332.406316 39.90868 
L 320.959211 36.666937 
L 309.512105 34.320372 
L 298.065 33.569364 
z
" clip-path="url(#p4d153601ad)" style="fill: #7f7f7f; fill-opacity: 0.4"/>
   </g>
   <g id="matplotlib.axis_3">
    <g id="xtick_6">
     <g id="line2d_18">
      <g>
       <use xlink:href="#m9bc160cea1" x="298.065" y="174.04" style="stroke: #000000; stroke-width: 0.8"/>
      </g>
     </g>
     <g id="text_13">
      <!-- 0.0 -->
      <g transform="translate(290.113437 188.638438)scale(0.1 -0.1)">
       <use xlink:href="#DejaVuSans-30"/>
       <use xlink:href="#DejaVuSans-2e" x="63.623047"/>
       <use xlink:href="#DejaVuSans-30" x="95.410156"/>
      </g>
     </g>
    </g>
    <g id="xtick_7">
     <g id="line2d_19">
      <g>
       <use xlink:href="#m9bc160cea1" x="352.43875" y="174.04" style="stroke: #000000; stroke-width: 0.8"/>
      </g>
     </g>
     <g id="text_14">
      <!-- 0.5 -->
      <g transform="translate(344.487187 188.638438)scale(0.1 -0.1)">
       <use xlink:href="#DejaVuSans-30"/>
       <use xlink:href="#DejaVuSans-2e" x="63.623047"/>
       <use xlink:href="#DejaVuSans-35" x="95.410156"/>
      </g>
     </g>
    </g>
    <g id="xtick_8">
     <g id="line2d_20">
      <g>
       <use xlink:href="#m9bc160cea1" x="406.8125" y="174.04" style="stroke: #000000; stroke-width: 0.8"/>
      </g>
     </g>
     <g id="text_15">
      <!-- 1.0 -->
      <g transform="translate(398.860937 188.638438)scale(0.1 -0.1)">
       <use xlink:href="#DejaVuSans-31"/>
       <use xlink:href="#DejaVuSans-2e" x="63.623047"/>
       <use xlink:href="#DejaVuSans-30" x="95.410156"/>
      </g>
     </g>
    </g>
    <g id="xtick_9">
     <g id="line2d_21">
      <g>
       <use xlink:href="#m9bc160cea1" x="461.18625" y="174.04" style="stroke: #000000; stroke-width: 0.8"/>
      </g>
     </g>
     <g id="text_16">
      <!-- 1.5 -->
      <g transform="translate(453.234687 188.638438)scale(0.1 -0.1)">
       <use xlink:href="#DejaVuSans-31"/>
       <use xlink:href="#DejaVuSans-2e" x="63.623047"/>
       <use xlink:href="#DejaVuSans-35" x="95.410156"/>
      </g>
     </g>
    </g>
    <g id="xtick_10">
     <g id="line2d_22">
      <g>
       <use xlink:href="#m9bc160cea1" x="515.56" y="174.04" style="stroke: #000000; stroke-width: 0.8"/>
      </g>
     </g>
     <g id="text_17">
      <!-- 2.0 -->
      <g transform="translate(507.608437 188.638438)scale(0.1 -0.1)">
       <use xlink:href="#DejaVuSans-32"/>
       <use xlink:href="#DejaVuSans-2e" x="63.623047"/>
       <use xlink:href="#DejaVuSans-30" x="95.410156"/>
      </g>
     </g>
    </g>
    <g id="text_18">
     <!-- Influence of surprisal (multiplication) -->
     <g transform="translate(314.665625 202.316563)scale(0.1 -0.1)">
      <use xlink:href="#DejaVuSans-49"/>
      <use xlink:href="#DejaVuSans-6e" x="29.492188"/>
      <use xlink:href="#DejaVuSans-66" x="92.871094"/>
      <use xlink:href="#DejaVuSans-6c" x="128.076172"/>
      <use xlink:href="#DejaVuSans-75" x="155.859375"/>
      <use xlink:href="#DejaVuSans-65" x="219.238281"/>
      <use xlink:href="#DejaVuSans-6e" x="280.761719"/>
      <use xlink:href="#DejaVuSans-63" x="344.140625"/>
      <use xlink:href="#DejaVuSans-65" x="399.121094"/>
      <use xlink:href="#DejaVuSans-20" x="460.644531"/>
      <use xlink:href="#DejaVuSans-6f" x="492.431641"/>
      <use xlink:href="#DejaVuSans-66" x="553.613281"/>
      <use xlink:href="#DejaVuSans-20" x="588.818359"/>
      <use xlink:href="#DejaVuSans-73" x="620.605469"/>
      <use xlink:href="#DejaVuSans-75" x="672.705078"/>
      <use xlink:href="#DejaVuSans-72" x="736.083984"/>
      <use xlink:href="#DejaVuSans-70" x="777.197266"/>
      <use xlink:href="#DejaVuSans-72" x="840.673828"/>
      <use xlink:href="#DejaVuSans-69" x="881.787109"/>
      <use xlink:href="#DejaVuSans-73" x="909.570312"/>
      <use xlink:href="#DejaVuSans-61" x="961.669922"/>
      <use xlink:href="#DejaVuSans-6c" x="1022.949219"/>
      <use xlink:href="#DejaVuSans-20" x="1050.732422"/>
      <use xlink:href="#DejaVuSans-28" x="1082.519531"/>
      <use xlink:href="#DejaVuSans-6d" x="1121.533203"/>
      <use xlink:href="#DejaVuSans-75" x="1218.945312"/>
      <use xlink:href="#DejaVuSans-6c" x="1282.324219"/>
      <use xlink:href="#DejaVuSans-74" x="1310.107422"/>
      <use xlink:href="#DejaVuSans-69" x="1349.316406"/>
      <use xlink:href="#DejaVuSans-70" x="1377.099609"/>
      <use xlink:href="#DejaVuSans-6c" x="1440.576172"/>
      <use xlink:href="#DejaVuSans-69" x="1468.359375"/>
      <use xlink:href="#DejaVuSans-63" x="1496.142578"/>
      <use xlink:href="#DejaVuSans-61" x="1551.123047"/>
      <use xlink:href="#DejaVuSans-74" x="1612.402344"/>
      <use xlink:href="#DejaVuSans-69" x="1651.611328"/>
      <use xlink:href="#DejaVuSans-6f" x="1679.394531"/>
      <use xlink:href="#DejaVuSans-6e" x="1740.576172"/>
      <use xlink:href="#DejaVuSans-29" x="1803.955078"/>
     </g>
    </g>
   </g>
   <g id="line2d_23">
    <path d="M 298.065 33.569092 
L 309.512105 34.500776 
L 320.959211 37.492693 
L 332.406316 41.402415 
L 343.853421 46.824394 
L 355.300526 52.979935 
L 366.747632 59.612991 
L 378.194737 66.701189 
L 389.641842 73.928321 
L 401.088947 80.808508 
L 412.536053 88.09461 
L 423.983158 94.857275 
L 435.430263 101.438114 
L 446.877368 108.290733 
L 458.324474 114.494812 
L 469.771579 120.290392 
L 481.218684 126.377738 
L 492.665789 131.721584 
L 504.112895 136.652458 
L 515.56 141.809859 
" clip-path="url(#p4d153601ad)" style="fill: none; stroke: #1f77b4; stroke-width: 1.5; stroke-linecap: square"/>
   </g>
   <g id="line2d_24">
    <path d="M 298.065 33.569241 
L 309.512105 34.503915 
L 320.959211 37.494807 
L 332.406316 41.411335 
L 343.853421 46.835784 
L 355.300526 52.992059 
L 366.747632 59.624343 
L 378.194737 66.709334 
L 389.641842 73.938463 
L 401.088947 80.821329 
L 412.536053 88.117435 
L 423.983158 94.884169 
L 435.430263 101.48036 
L 446.877368 108.340989 
L 458.324474 114.544351 
L 469.771579 120.344489 
L 481.218684 126.443904 
L 492.665789 131.751117 
L 504.112895 136.680935 
L 515.56 141.80891 
" clip-path="url(#p4d153601ad)" style="fill: none; stroke: #ff7f0e; stroke-width: 1.5; stroke-linecap: square"/>
   </g>
   <g id="line2d_25">
    <path d="M 298.065 33.569102 
L 309.512105 34.502095 
L 320.959211 37.501164 
L 332.406316 41.421547 
L 343.853421 46.866426 
L 355.300526 53.038436 
L 366.747632 59.703548 
L 378.194737 66.80772 
L 389.641842 74.057548 
L 401.088947 80.962649 
L 412.536053 88.256839 
L 423.983158 95.06266 
L 435.430263 101.669258 
L 446.877368 108.554057 
L 458.324474 114.698129 
L 469.771579 120.500982 
L 481.218684 126.622305 
L 492.665789 131.956462 
L 504.112895 136.948227 
L 515.56 142.161397 
" clip-path="url(#p4d153601ad)" style="fill: none; stroke: #2ca02c; stroke-width: 1.5; stroke-linecap: square"/>
   </g>
   <g id="line2d_26">
    <path d="M 298.065 33.569891 
L 309.512105 34.504778 
L 320.959211 37.507189 
L 332.406316 41.42411 
L 343.853421 46.86666 
L 355.300526 53.043326 
L 366.747632 59.702553 
L 378.194737 66.796049 
L 389.641842 74.042541 
L 401.088947 80.939795 
L 412.536053 88.233995 
L 423.983158 95.035419 
L 435.430263 101.659453 
L 446.877368 108.538983 
L 458.324474 114.687036 
L 469.771579 120.510677 
L 481.218684 126.634876 
L 492.665789 131.938584 
L 504.112895 136.934586 
L 515.56 142.148327 
" clip-path="url(#p4d153601ad)" style="fill: none; stroke: #d62728; stroke-width: 1.5; stroke-linecap: square"/>
   </g>
   <g id="line2d_27">
    <path d="M 298.065 33.569102 
L 309.512105 34.499821 
L 320.959211 37.503773 
L 332.406316 41.431914 
L 343.853421 46.897565 
L 355.300526 53.008721 
L 366.747632 59.815477 
L 378.194737 66.907417 
L 389.641842 73.947202 
L 401.088947 80.779526 
L 412.536053 87.961148 
L 423.983158 94.872955 
L 435.430263 101.552017 
L 446.877368 108.441088 
L 458.324474 114.663138 
L 469.771579 120.677533 
L 481.218684 126.183812 
L 492.665789 131.968445 
L 504.112895 137.317913 
L 515.56 142.220361 
" clip-path="url(#p4d153601ad)" style="fill: none; stroke: #9467bd; stroke-width: 1.5; stroke-linecap: square"/>
   </g>
   <g id="line2d_28">
    <path d="M 298.065 33.569698 
L 309.512105 34.503684 
L 320.959211 37.507708 
L 332.406316 41.442739 
L 343.853421 46.912188 
L 355.300526 53.020332 
L 366.747632 59.824678 
L 378.194737 66.922667 
L 389.641842 73.959555 
L 401.088947 80.788941 
L 412.536053 87.986073 
L 423.983158 94.893533 
L 435.430263 101.599356 
L 446.877368 108.489945 
L 458.324474 114.709852 
L 469.771579 120.728572 
L 481.218684 126.244911 
L 492.665789 131.979619 
L 504.112895 137.365885 
L 515.56 142.227495 
" clip-path="url(#p4d153601ad)" style="fill: none; stroke: #8c564b; stroke-width: 1.5; stroke-linecap: square"/>
   </g>
   <g id="line2d_29">
    <path d="M 298.065 48.021169 
L 309.512105 48.878419 
L 320.959211 51.743492 
L 332.406316 55.354225 
L 343.853421 60.491244 
L 355.300526 66.271097 
L 366.747632 72.470019 
L 378.194737 78.916038 
L 389.641842 85.589032 
L 401.088947 91.885704 
L 412.536053 98.568637 
L 423.983158 104.689745 
L 435.430263 110.546259 
L 446.877368 116.904148 
L 458.324474 122.393747 
L 469.771579 127.771358 
L 481.218684 133.293141 
L 492.665789 138.082918 
L 504.112895 142.63022 
L 515.56 147.385926 
" clip-path="url(#p4d153601ad)" style="fill: none; stroke: #e377c2; stroke-width: 1.5; stroke-linecap: square"/>
   </g>
   <g id="line2d_30">
    <path d="M 298.065 33.569426 
L 309.512105 34.506238 
L 320.959211 37.515094 
L 332.406316 41.442541 
L 343.853421 46.867676 
L 355.300526 53.039944 
L 366.747632 59.679181 
L 378.194737 66.770162 
L 389.641842 73.998997 
L 401.088947 80.90596 
L 412.536053 88.217251 
L 423.983158 95.003121 
L 435.430263 101.636733 
L 446.877368 108.513295 
L 458.324474 114.73208 
L 469.771579 120.564952 
L 481.218684 126.687609 
L 492.665789 132.00987 
L 504.112895 137.007529 
L 515.56 142.189712 
" clip-path="url(#p4d153601ad)" style="fill: none; stroke: #7f7f7f; stroke-width: 1.5; stroke-linecap: square"/>
   </g>
   <g id="patch_6">
    <path d="M 298.065 174.04 
L 298.065 26.88 
" style="fill: none; stroke: #000000; stroke-width: 0.8; stroke-linejoin: miter; stroke-linecap: square"/>
   </g>
   <g id="patch_7">
    <path d="M 298.065 174.04 
L 515.56 174.04 
" style="fill: none; stroke: #000000; stroke-width: 0.8; stroke-linejoin: miter; stroke-linecap: square"/>
   </g>
   <g id="text_19">
    <!-- Node * third variable -->
    <g transform="translate(344.2325 20.88)scale(0.12 -0.12)">
     <defs>
      <path id="DejaVuSans-68" d="M 3513 2113 
L 3513 0 
L 2938 0 
L 2938 2094 
Q 2938 2591 2744 2837 
Q 2550 3084 2163 3084 
Q 1697 3084 1428 2787 
Q 1159 2491 1159 1978 
L 1159 0 
L 581 0 
L 581 4863 
L 1159 4863 
L 1159 2956 
Q 1366 3272 1645 3428 
Q 1925 3584 2291 3584 
Q 2894 3584 3203 3211 
Q 3513 2838 3513 2113 
z
" transform="scale(0.015625)"/>
      <path id="DejaVuSans-62" d="M 3116 1747 
Q 3116 2381 2855 2742 
Q 2594 3103 2138 3103 
Q 1681 3103 1420 2742 
Q 1159 2381 1159 1747 
Q 1159 1113 1420 752 
Q 1681 391 2138 391 
Q 2594 391 2855 752 
Q 3116 1113 3116 1747 
z
M 1159 2969 
Q 1341 3281 1617 3432 
Q 1894 3584 2278 3584 
Q 2916 3584 3314 3078 
Q 3713 2572 3713 1747 
Q 3713 922 3314 415 
Q 2916 -91 2278 -91 
Q 1894 -91 1617 61 
Q 1341 213 1159 525 
L 1159 0 
L 581 0 
L 581 4863 
L 1159 4863 
L 1159 2969 
z
" transform="scale(0.015625)"/>
     </defs>
     <use xlink:href="#DejaVuSans-4e"/>
     <use xlink:href="#DejaVuSans-6f" x="74.804688"/>
     <use xlink:href="#DejaVuSans-64" x="135.986328"/>
     <use xlink:href="#DejaVuSans-65" x="199.462891"/>
     <use xlink:href="#DejaVuSans-20" x="260.986328"/>
     <use xlink:href="#DejaVuSans-2a" x="292.773438"/>
     <use xlink:href="#DejaVuSans-20" x="342.773438"/>
     <use xlink:href="#DejaVuSans-74" x="374.560547"/>
     <use xlink:href="#DejaVuSans-68" x="413.769531"/>
     <use xlink:href="#DejaVuSans-69" x="477.148438"/>
     <use xlink:href="#DejaVuSans-72" x="504.931641"/>
     <use xlink:href="#DejaVuSans-64" x="544.294922"/>
     <use xlink:href="#DejaVuSans-20" x="607.771484"/>
     <use xlink:href="#DejaVuSans-76" x="639.558594"/>
     <use xlink:href="#DejaVuSans-61" x="698.738281"/>
     <use xlink:href="#DejaVuSans-72" x="760.017578"/>
     <use xlink:href="#DejaVuSans-69" x="801.130859"/>
     <use xlink:href="#DejaVuSans-61" x="828.914062"/>
     <use xlink:href="#DejaVuSans-62" x="890.193359"/>
     <use xlink:href="#DejaVuSans-6c" x="953.669922"/>
     <use xlink:href="#DejaVuSans-65" x="981.453125"/>
    </g>
   </g>
   <g id="legend_1">
    <g id="line2d_31">
     <path d="M 524.56 39.978437 
L 534.56 39.978437 
L 544.56 39.978437 
" style="fill: none; stroke: #1f77b4; stroke-width: 1.5; stroke-linecap: square"/>
    </g>
    <g id="text_20">
     <!-- Node -->
     <g transform="translate(552.56 43.478437)scale(0.1 -0.1)">
      <use xlink:href="#DejaVuSans-4e"/>
      <use xlink:href="#DejaVuSans-6f" x="74.804688"/>
      <use xlink:href="#DejaVuSans-64" x="135.986328"/>
      <use xlink:href="#DejaVuSans-65" x="199.462891"/>
     </g>
    </g>
    <g id="line2d_32">
     <path d="M 524.56 54.656563 
L 534.56 54.656563 
L 544.56 54.656563 
" style="fill: none; stroke: #ff7f0e; stroke-width: 1.5; stroke-linecap: square"/>
    </g>
    <g id="text_21">
     <!-- Node + surprisal -->
     <g transform="translate(552.56 58.156563)scale(0.1 -0.1)">
      <defs>
       <path id="DejaVuSans-2b" d="M 2944 4013 
L 2944 2272 
L 4684 2272 
L 4684 1741 
L 2944 1741 
L 2944 0 
L 2419 0 
L 2419 1741 
L 678 1741 
L 678 2272 
L 2419 2272 
L 2419 4013 
L 2944 4013 
z
" transform="scale(0.015625)"/>
      </defs>
      <use xlink:href="#DejaVuSans-4e"/>
      <use xlink:href="#DejaVuSans-6f" x="74.804688"/>
      <use xlink:href="#DejaVuSans-64" x="135.986328"/>
      <use xlink:href="#DejaVuSans-65" x="199.462891"/>
      <use xlink:href="#DejaVuSans-20" x="260.986328"/>
      <use xlink:href="#DejaVuSans-2b" x="292.773438"/>
      <use xlink:href="#DejaVuSans-20" x="376.5625"/>
      <use xlink:href="#DejaVuSans-73" x="408.349609"/>
      <use xlink:href="#DejaVuSans-75" x="460.449219"/>
      <use xlink:href="#DejaVuSans-72" x="523.828125"/>
      <use xlink:href="#DejaVuSans-70" x="564.941406"/>
      <use xlink:href="#DejaVuSans-72" x="628.417969"/>
      <use xlink:href="#DejaVuSans-69" x="669.53125"/>
      <use xlink:href="#DejaVuSans-73" x="697.314453"/>
      <use xlink:href="#DejaVuSans-61" x="749.414062"/>
      <use xlink:href="#DejaVuSans-6c" x="810.693359"/>
     </g>
    </g>
    <g id="line2d_33">
     <path d="M 524.56 69.334687 
L 534.56 69.334687 
L 544.56 69.334687 
" style="fill: none; stroke: #2ca02c; stroke-width: 1.5; stroke-linecap: square"/>
    </g>
    <g id="text_22">
     <!-- Node split -->
     <g transform="translate(552.56 72.834687)scale(0.1 -0.1)">
      <use xlink:href="#DejaVuSans-4e"/>
      <use xlink:href="#DejaVuSans-6f" x="74.804688"/>
      <use xlink:href="#DejaVuSans-64" x="135.986328"/>
      <use xlink:href="#DejaVuSans-65" x="199.462891"/>
      <use xlink:href="#DejaVuSans-20" x="260.986328"/>
      <use xlink:href="#DejaVuSans-73" x="292.773438"/>
      <use xlink:href="#DejaVuSans-70" x="344.873047"/>
      <use xlink:href="#DejaVuSans-6c" x="408.349609"/>
      <use xlink:href="#DejaVuSans-69" x="436.132812"/>
      <use xlink:href="#DejaVuSans-74" x="463.916016"/>
     </g>
    </g>
    <g id="line2d_34">
     <path d="M 524.56 84.012812 
L 534.56 84.012812 
L 544.56 84.012812 
" style="fill: none; stroke: #d62728; stroke-width: 1.5; stroke-linecap: square"/>
    </g>
    <g id="text_23">
     <!-- Node split + surprisal -->
     <g transform="translate(552.56 87.512812)scale(0.1 -0.1)">
      <use xlink:href="#DejaVuSans-4e"/>
      <use xlink:href="#DejaVuSans-6f" x="74.804688"/>
      <use xlink:href="#DejaVuSans-64" x="135.986328"/>
      <use xlink:href="#DejaVuSans-65" x="199.462891"/>
      <use xlink:href="#DejaVuSans-20" x="260.986328"/>
      <use xlink:href="#DejaVuSans-73" x="292.773438"/>
      <use xlink:href="#DejaVuSans-70" x="344.873047"/>
      <use xlink:href="#DejaVuSans-6c" x="408.349609"/>
      <use xlink:href="#DejaVuSans-69" x="436.132812"/>
      <use xlink:href="#DejaVuSans-74" x="463.916016"/>
      <use xlink:href="#DejaVuSans-20" x="503.125"/>
      <use xlink:href="#DejaVuSans-2b" x="534.912109"/>
      <use xlink:href="#DejaVuSans-20" x="618.701172"/>
      <use xlink:href="#DejaVuSans-73" x="650.488281"/>
      <use xlink:href="#DejaVuSans-75" x="702.587891"/>
      <use xlink:href="#DejaVuSans-72" x="765.966797"/>
      <use xlink:href="#DejaVuSans-70" x="807.080078"/>
      <use xlink:href="#DejaVuSans-72" x="870.556641"/>
      <use xlink:href="#DejaVuSans-69" x="911.669922"/>
      <use xlink:href="#DejaVuSans-73" x="939.453125"/>
      <use xlink:href="#DejaVuSans-61" x="991.552734"/>
      <use xlink:href="#DejaVuSans-6c" x="1052.832031"/>
     </g>
    </g>
    <g id="line2d_35">
     <path d="M 524.56 98.690937 
L 534.56 98.690937 
L 544.56 98.690937 
" style="fill: none; stroke: #9467bd; stroke-width: 1.5; stroke-linecap: square"/>
    </g>
    <g id="text_24">
     <!-- Node random split -->
     <g transform="translate(552.56 102.190937)scale(0.1 -0.1)">
      <use xlink:href="#DejaVuSans-4e"/>
      <use xlink:href="#DejaVuSans-6f" x="74.804688"/>
      <use xlink:href="#DejaVuSans-64" x="135.986328"/>
      <use xlink:href="#DejaVuSans-65" x="199.462891"/>
      <use xlink:href="#DejaVuSans-20" x="260.986328"/>
      <use xlink:href="#DejaVuSans-72" x="292.773438"/>
      <use xlink:href="#DejaVuSans-61" x="333.886719"/>
      <use xlink:href="#DejaVuSans-6e" x="395.166016"/>
      <use xlink:href="#DejaVuSans-64" x="458.544922"/>
      <use xlink:href="#DejaVuSans-6f" x="522.021484"/>
      <use xlink:href="#DejaVuSans-6d" x="583.203125"/>
      <use xlink:href="#DejaVuSans-20" x="680.615234"/>
      <use xlink:href="#DejaVuSans-73" x="712.402344"/>
      <use xlink:href="#DejaVuSans-70" x="764.501953"/>
      <use xlink:href="#DejaVuSans-6c" x="827.978516"/>
      <use xlink:href="#DejaVuSans-69" x="855.761719"/>
      <use xlink:href="#DejaVuSans-74" x="883.544922"/>
     </g>
    </g>
    <g id="line2d_36">
     <path d="M 524.56 113.369062 
L 534.56 113.369062 
L 544.56 113.369062 
" style="fill: none; stroke: #8c564b; stroke-width: 1.5; stroke-linecap: square"/>
    </g>
    <g id="text_25">
     <!-- Node random split + surprisal -->
     <g transform="translate(552.56 116.869062)scale(0.1 -0.1)">
      <use xlink:href="#DejaVuSans-4e"/>
      <use xlink:href="#DejaVuSans-6f" x="74.804688"/>
      <use xlink:href="#DejaVuSans-64" x="135.986328"/>
      <use xlink:href="#DejaVuSans-65" x="199.462891"/>
      <use xlink:href="#DejaVuSans-20" x="260.986328"/>
      <use xlink:href="#DejaVuSans-72" x="292.773438"/>
      <use xlink:href="#DejaVuSans-61" x="333.886719"/>
      <use xlink:href="#DejaVuSans-6e" x="395.166016"/>
      <use xlink:href="#DejaVuSans-64" x="458.544922"/>
      <use xlink:href="#DejaVuSans-6f" x="522.021484"/>
      <use xlink:href="#DejaVuSans-6d" x="583.203125"/>
      <use xlink:href="#DejaVuSans-20" x="680.615234"/>
      <use xlink:href="#DejaVuSans-73" x="712.402344"/>
      <use xlink:href="#DejaVuSans-70" x="764.501953"/>
      <use xlink:href="#DejaVuSans-6c" x="827.978516"/>
      <use xlink:href="#DejaVuSans-69" x="855.761719"/>
      <use xlink:href="#DejaVuSans-74" x="883.544922"/>
      <use xlink:href="#DejaVuSans-20" x="922.753906"/>
      <use xlink:href="#DejaVuSans-2b" x="954.541016"/>
      <use xlink:href="#DejaVuSans-20" x="1038.330078"/>
      <use xlink:href="#DejaVuSans-73" x="1070.117188"/>
      <use xlink:href="#DejaVuSans-75" x="1122.216797"/>
      <use xlink:href="#DejaVuSans-72" x="1185.595703"/>
      <use xlink:href="#DejaVuSans-70" x="1226.708984"/>
      <use xlink:href="#DejaVuSans-72" x="1290.185547"/>
      <use xlink:href="#DejaVuSans-69" x="1331.298828"/>
      <use xlink:href="#DejaVuSans-73" x="1359.082031"/>
      <use xlink:href="#DejaVuSans-61" x="1411.181641"/>
      <use xlink:href="#DejaVuSans-6c" x="1472.460938"/>
     </g>
    </g>
    <g id="line2d_37">
     <path d="M 524.56 128.047187 
L 534.56 128.047187 
L 544.56 128.047187 
" style="fill: none; stroke: #e377c2; stroke-width: 1.5; stroke-linecap: square"/>
    </g>
    <g id="text_26">
     <!-- Interaction -->
     <g transform="translate(552.56 131.547187)scale(0.1 -0.1)">
      <use xlink:href="#DejaVuSans-49"/>
      <use xlink:href="#DejaVuSans-6e" x="29.492188"/>
      <use xlink:href="#DejaVuSans-74" x="92.871094"/>
      <use xlink:href="#DejaVuSans-65" x="132.080078"/>
      <use xlink:href="#DejaVuSans-72" x="193.603516"/>
      <use xlink:href="#DejaVuSans-61" x="234.716797"/>
      <use xlink:href="#DejaVuSans-63" x="295.996094"/>
      <use xlink:href="#DejaVuSans-74" x="350.976562"/>
      <use xlink:href="#DejaVuSans-69" x="390.185547"/>
      <use xlink:href="#DejaVuSans-6f" x="417.96875"/>
      <use xlink:href="#DejaVuSans-6e" x="479.150391"/>
     </g>
    </g>
    <g id="line2d_38">
     <path d="M 524.56 142.725312 
L 534.56 142.725312 
L 544.56 142.725312 
" style="fill: none; stroke: #7f7f7f; stroke-width: 1.5; stroke-linecap: square"/>
    </g>
    <g id="text_27">
     <!-- Node + surprisal + interaction -->
     <g transform="translate(552.56 146.225312)scale(0.1 -0.1)">
      <use xlink:href="#DejaVuSans-4e"/>
      <use xlink:href="#DejaVuSans-6f" x="74.804688"/>
      <use xlink:href="#DejaVuSans-64" x="135.986328"/>
      <use xlink:href="#DejaVuSans-65" x="199.462891"/>
      <use xlink:href="#DejaVuSans-20" x="260.986328"/>
      <use xlink:href="#DejaVuSans-2b" x="292.773438"/>
      <use xlink:href="#DejaVuSans-20" x="376.5625"/>
      <use xlink:href="#DejaVuSans-73" x="408.349609"/>
      <use xlink:href="#DejaVuSans-75" x="460.449219"/>
      <use xlink:href="#DejaVuSans-72" x="523.828125"/>
      <use xlink:href="#DejaVuSans-70" x="564.941406"/>
      <use xlink:href="#DejaVuSans-72" x="628.417969"/>
      <use xlink:href="#DejaVuSans-69" x="669.53125"/>
      <use xlink:href="#DejaVuSans-73" x="697.314453"/>
      <use xlink:href="#DejaVuSans-61" x="749.414062"/>
      <use xlink:href="#DejaVuSans-6c" x="810.693359"/>
      <use xlink:href="#DejaVuSans-20" x="838.476562"/>
      <use xlink:href="#DejaVuSans-2b" x="870.263672"/>
      <use xlink:href="#DejaVuSans-20" x="954.052734"/>
      <use xlink:href="#DejaVuSans-69" x="985.839844"/>
      <use xlink:href="#DejaVuSans-6e" x="1013.623047"/>
      <use xlink:href="#DejaVuSans-74" x="1077.001953"/>
      <use xlink:href="#DejaVuSans-65" x="1116.210938"/>
      <use xlink:href="#DejaVuSans-72" x="1177.734375"/>
      <use xlink:href="#DejaVuSans-61" x="1218.847656"/>
      <use xlink:href="#DejaVuSans-63" x="1280.126953"/>
      <use xlink:href="#DejaVuSans-74" x="1335.107422"/>
      <use xlink:href="#DejaVuSans-69" x="1374.316406"/>
      <use xlink:href="#DejaVuSans-6f" x="1402.099609"/>
      <use xlink:href="#DejaVuSans-6e" x="1463.28125"/>
     </g>
    </g>
   </g>
  </g>
 </g>
 <defs>
  <clipPath id="pec1d3f7a86">
   <rect x="47.72" y="26.88" width="217.495" height="147.16"/>
  </clipPath>
  <clipPath id="p4d153601ad">
   <rect x="298.065" y="26.88" width="217.495" height="147.16"/>
  </clipPath>
 </defs>
</svg>
