<?xml version="1.0" encoding="utf-8" standalone="no"?>
<!DOCTYPE svg PUBLIC "-//W3C//DTD SVG 1.1//EN"
  "http://www.w3.org/Graphics/SVG/1.1/DTD/svg11.dtd">
<svg xmlns:xlink="http://www.w3.org/1999/xlink" width="720pt" height="216pt" viewBox="0 0 720 216" xmlns="http://www.w3.org/2000/svg" version="1.1">
 <metadata>
  <rdf:RDF xmlns:dc="http://purl.org/dc/elements/1.1/" xmlns:cc="http://creativecommons.org/ns#" xmlns:rdf="http://www.w3.org/1999/02/22-rdf-syntax-ns#">
   <cc:Work>
    <dc:type rdf:resource="http://purl.org/dc/dcmitype/StillImage"/>
    <dc:date>2024-01-16T01:52:43.297257</dc:date>
    <dc:format>image/svg+xml</dc:format>
    <dc:creator>
     <cc:Agent>
      <dc:title>Matplotlib v3.5.1, https://matplotlib.org/</dc:title>
     </cc:Agent>
    </dc:creator>
   </cc:Work>
  </rdf:RDF>
 </metadata>
 <defs>
  <style type="text/css">*{stroke-linejoin: round; stroke-linecap: butt}</style>
 </defs>
 <g id="figure_1">
  <g id="patch_1">
   <path d="M 0 216 
L 720 216 
L 720 0 
L 0 0 
z
" style="fill: #ffffff"/>
  </g>
  <g id="axes_1">
   <g id="patch_2">
    <path d="M 47.72 174.04 
L 265.215 174.04 
L 265.215 26.88 
L 47.72 26.88 
z
" style="fill: #ffffff"/>
   </g>
   <g id="PolyCollection_1">
    <path d="M 47.72 33.569091 
L 47.72 33.569092 
L 59.167105 34.697688 
L 70.614211 37.809598 
L 82.061316 42.611039 
L 93.508421 48.340327 
L 104.955526 55.206606 
L 116.402632 62.440205 
L 127.849737 70.468056 
L 139.296842 77.697228 
L 150.743947 85.852238 
L 162.191053 93.177451 
L 173.638158 101.022583 
L 185.085263 108.556702 
L 196.532368 115.376575 
L 207.979474 121.711543 
L 219.426579 128.037148 
L 230.873684 133.194835 
L 242.320789 138.605868 
L 253.767895 143.354627 
L 265.215 148.112661 
L 265.215 137.687418 
L 265.215 137.687418 
L 253.767895 131.580999 
L 242.320789 126.145366 
L 230.873684 120.181015 
L 219.426579 113.647702 
L 207.979474 107.39435 
L 196.532368 101.159165 
L 185.085263 94.331207 
L 173.638158 87.703311 
L 162.191053 80.364218 
L 150.743947 73.988035 
L 139.296842 67.12758 
L 127.849737 60.767161 
L 116.402632 53.947545 
L 104.955526 48.502287 
L 93.508421 43.394007 
L 82.061316 39.516424 
L 70.614211 36.288375 
L 59.167105 34.301735 
L 47.72 33.569091 
z
" clip-path="url(#pcf9cf09418)" style="fill: #1f77b4; fill-opacity: 0.4"/>
   </g>
   <g id="PolyCollection_2">
    <path d="M 47.72 33.569252 
L 47.72 33.569286 
L 59.167105 34.280201 
L 70.614211 35.865149 
L 82.061316 38.604635 
L 93.508421 41.985119 
L 104.955526 46.271428 
L 116.402632 51.323311 
L 127.849737 57.301273 
L 139.296842 62.921084 
L 150.743947 69.448828 
L 162.191053 75.712826 
L 173.638158 82.869284 
L 185.085263 89.432824 
L 196.532368 96.249547 
L 207.979474 102.634062 
L 219.426579 109.18949 
L 230.873684 114.811569 
L 242.320789 120.63265 
L 253.767895 125.723904 
L 265.215 131.520608 
L 265.215 122.259647 
L 265.215 122.259647 
L 253.767895 116.201686 
L 242.320789 110.707092 
L 230.873684 104.388659 
L 219.426579 97.876627 
L 207.979474 91.923287 
L 196.532368 85.925413 
L 185.085263 79.995838 
L 173.638158 73.730222 
L 162.191053 67.490564 
L 150.743947 62.11248 
L 139.296842 56.495788 
L 127.849737 51.63526 
L 116.402632 46.644405 
L 104.955526 42.900224 
L 93.508421 39.580971 
L 82.061316 37.162603 
L 70.614211 35.22529 
L 59.167105 34.089227 
L 47.72 33.569252 
z
" clip-path="url(#pcf9cf09418)" style="fill: #ff7f0e; fill-opacity: 0.4"/>
   </g>
   <g id="PolyCollection_3">
    <path d="M 47.72 33.569101 
L 47.72 33.569104 
L 59.167105 34.434045 
L 70.614211 36.131563 
L 82.061316 38.323064 
L 93.508421 41.328913 
L 104.955526 44.826945 
L 116.402632 48.471397 
L 127.849737 52.328514 
L 139.296842 55.606559 
L 150.743947 59.610737 
L 162.191053 63.001525 
L 173.638158 66.78754 
L 185.085263 70.550944 
L 196.532368 74.226809 
L 207.979474 77.962739 
L 219.426579 82.390536 
L 230.873684 85.706952 
L 242.320789 89.260976 
L 253.767895 92.435663 
L 265.215 95.909475 
L 265.215 86.187263 
L 265.215 86.187263 
L 253.767895 82.813205 
L 242.320789 79.293512 
L 230.873684 75.593957 
L 219.426579 71.547432 
L 207.979474 68.259508 
L 196.532368 64.884821 
L 185.085263 61.345524 
L 173.638158 57.795886 
L 162.191053 54.47767 
L 150.743947 50.809693 
L 139.296842 47.417089 
L 127.849737 44.821271 
L 116.402632 42.026095 
L 104.955526 39.592227 
L 93.508421 37.629738 
L 82.061316 36.208832 
L 70.614211 35.026278 
L 59.167105 34.151223 
L 47.72 33.569101 
z
" clip-path="url(#pcf9cf09418)" style="fill: #2ca02c; fill-opacity: 0.4"/>
   </g>
   <g id="PolyCollection_4">
    <path d="M 47.72 33.569977 
L 47.72 33.570275 
L 59.167105 34.226139 
L 70.614211 35.412742 
L 82.061316 37.043002 
L 93.508421 39.314337 
L 104.955526 42.075051 
L 116.402632 45.18366 
L 127.849737 48.732578 
L 139.296842 51.883056 
L 150.743947 55.780901 
L 162.191053 59.305257 
L 173.638158 63.253896 
L 185.085263 67.150361 
L 196.532368 70.959018 
L 207.979474 74.759535 
L 219.426579 79.288261 
L 230.873684 82.7636 
L 242.320789 86.511021 
L 253.767895 89.902594 
L 265.215 93.611697 
L 265.215 84.596525 
L 265.215 84.596525 
L 253.767895 81.316649 
L 242.320789 77.813419 
L 230.873684 74.019433 
L 219.426579 70.072254 
L 207.979474 66.776534 
L 196.532368 63.307662 
L 185.085263 59.724917 
L 173.638158 56.145642 
L 162.191053 52.72005 
L 150.743947 49.188469 
L 139.296842 45.837783 
L 127.849737 43.354541 
L 116.402632 40.758795 
L 104.955526 38.596692 
L 93.508421 36.914185 
L 82.061316 35.741043 
L 70.614211 34.738845 
L 59.167105 34.065119 
L 47.72 33.569977 
z
" clip-path="url(#pcf9cf09418)" style="fill: #d62728; fill-opacity: 0.4"/>
   </g>
   <g id="PolyCollection_5">
    <path d="M 47.72 33.569101 
L 47.72 33.569104 
L 59.167105 34.699597 
L 70.614211 37.835544 
L 82.061316 42.642603 
L 93.508421 48.375931 
L 104.955526 55.358634 
L 116.402632 62.501693 
L 127.849737 70.470423 
L 139.296842 77.758171 
L 150.743947 85.771007 
L 162.191053 93.379096 
L 173.638158 101.071099 
L 185.085263 108.728667 
L 196.532368 116.041051 
L 207.979474 121.56227 
L 219.426579 128.059675 
L 230.873684 133.140435 
L 242.320789 139.325494 
L 253.767895 143.704418 
L 265.215 147.830935 
L 265.215 137.718566 
L 265.215 137.718566 
L 253.767895 132.168855 
L 242.320789 126.516295 
L 230.873684 120.993993 
L 219.426579 113.751456 
L 207.979474 107.364947 
L 196.532368 101.114982 
L 185.085263 94.352686 
L 173.638158 87.887231 
L 162.191053 80.352173 
L 150.743947 73.930636 
L 139.296842 67.328553 
L 127.849737 60.667736 
L 116.402632 54.063005 
L 104.955526 48.486677 
L 93.508421 43.361331 
L 82.061316 39.570617 
L 70.614211 36.286467 
L 59.167105 34.306247 
L 47.72 33.569101 
z
" clip-path="url(#pcf9cf09418)" style="fill: #9467bd; fill-opacity: 0.4"/>
   </g>
   <g id="PolyCollection_6">
    <path d="M 47.72 33.569745 
L 47.72 33.569879 
L 59.167105 34.280678 
L 70.614211 35.878348 
L 82.061316 38.62148 
L 93.508421 42.040182 
L 104.955526 46.356036 
L 116.402632 51.411952 
L 127.849737 57.343092 
L 139.296842 62.983269 
L 150.743947 69.400712 
L 162.191053 75.804613 
L 173.638158 82.918611 
L 185.085263 89.456283 
L 196.532368 96.661306 
L 207.979474 102.574543 
L 219.426579 109.079984 
L 230.873684 114.6958 
L 242.320789 120.843421 
L 253.767895 126.245946 
L 265.215 131.64917 
L 265.215 122.108281 
L 265.215 122.108281 
L 253.767895 116.541269 
L 242.320789 111.434823 
L 230.873684 105.088559 
L 219.426579 98.029504 
L 207.979474 91.888207 
L 196.532368 85.927252 
L 185.085263 80.106148 
L 173.638158 73.824273 
L 162.191053 67.522573 
L 150.743947 62.062287 
L 139.296842 56.580733 
L 127.849737 51.598926 
L 116.402632 46.710204 
L 104.955526 42.88398 
L 93.508421 39.544575 
L 82.061316 37.172372 
L 70.614211 35.22389 
L 59.167105 34.089245 
L 47.72 33.569745 
z
" clip-path="url(#pcf9cf09418)" style="fill: #8c564b; fill-opacity: 0.4"/>
   </g>
   <g id="PolyCollection_7">
    <path d="M 47.72 45.080686 
L 47.72 50.119194 
L 59.167105 51.580973 
L 70.614211 55.72438 
L 82.061316 61.712849 
L 93.508421 69.47292 
L 104.955526 77.808043 
L 116.402632 86.481765 
L 127.849737 95.456579 
L 139.296842 102.843663 
L 150.743947 111.071646 
L 162.191053 118.101245 
L 173.638158 125.859328 
L 185.085263 132.763464 
L 196.532368 139.145753 
L 207.979474 144.964731 
L 219.426579 150.782538 
L 230.873684 155.297717 
L 242.320789 159.622698 
L 253.767895 163.928975 
L 265.215 167.350909 
L 265.215 149.342123 
L 265.215 149.342123 
L 253.767895 144.332488 
L 242.320789 139.31127 
L 230.873684 134.35613 
L 219.426579 128.28508 
L 207.979474 122.482462 
L 196.532368 116.629647 
L 185.085263 110.008121 
L 173.638158 103.149594 
L 162.191053 96.081634 
L 150.743947 88.948072 
L 139.296842 81.463579 
L 127.849737 74.816676 
L 116.402632 67.270986 
L 104.955526 61.318576 
L 93.508421 55.691214 
L 82.061316 51.670258 
L 70.614211 48.075109 
L 59.167105 45.997254 
L 47.72 45.080686 
z
" clip-path="url(#pcf9cf09418)" style="fill: #e377c2; fill-opacity: 0.4"/>
   </g>
   <g id="PolyCollection_8">
    <path d="M 47.72 33.569343 
L 47.72 33.569564 
L 59.167105 33.86182 
L 70.614211 34.108915 
L 82.061316 34.816393 
L 93.508421 36.53021 
L 104.955526 39.203861 
L 116.402632 43.25896 
L 127.849737 48.522625 
L 139.296842 54.009141 
L 150.743947 60.192597 
L 162.191053 66.145776 
L 173.638158 72.600877 
L 185.085263 78.141576 
L 196.532368 84.302039 
L 207.979474 89.92859 
L 219.426579 96.628396 
L 230.873684 102.285381 
L 242.320789 108.628852 
L 253.767895 114.267159 
L 265.215 120.424836 
L 265.215 105.004997 
L 265.215 105.004997 
L 253.767895 98.592876 
L 242.320789 92.92344 
L 230.873684 86.396121 
L 219.426579 79.686455 
L 207.979474 73.531695 
L 196.532368 67.11306 
L 185.085263 61.148099 
L 173.638158 55.360678 
L 162.191053 49.950288 
L 150.743947 45.795563 
L 139.296842 42.09654 
L 127.849737 39.267672 
L 116.402632 36.935225 
L 104.955526 35.655502 
L 93.508421 34.595665 
L 82.061316 34.191491 
L 70.614211 33.940618 
L 59.167105 33.834854 
L 47.72 33.569343 
z
" clip-path="url(#pcf9cf09418)" style="fill: #7f7f7f; fill-opacity: 0.4"/>
   </g>
   <g id="matplotlib.axis_1">
    <g id="xtick_1">
     <g id="line2d_1">
      <defs>
       <path id="macff0c3a2a" d="M 0 0 
L 0 3.5 
" style="stroke: #000000; stroke-width: 0.8"/>
      </defs>
      <g>
       <use xlink:href="#macff0c3a2a" x="47.72" y="174.04" style="stroke: #000000; stroke-width: 0.8"/>
      </g>
     </g>
     <g id="text_1">
      <!-- 0.0 -->
      <g transform="translate(39.768438 188.638438)scale(0.1 -0.1)">
       <defs>
        <path id="DejaVuSans-30" d="M 2034 4250 
Q 1547 4250 1301 3770 
Q 1056 3291 1056 2328 
Q 1056 1369 1301 889 
Q 1547 409 2034 409 
Q 2525 409 2770 889 
Q 3016 1369 3016 2328 
Q 3016 3291 2770 3770 
Q 2525 4250 2034 4250 
z
M 2034 4750 
Q 2819 4750 3233 4129 
Q 3647 3509 3647 2328 
Q 3647 1150 3233 529 
Q 2819 -91 2034 -91 
Q 1250 -91 836 529 
Q 422 1150 422 2328 
Q 422 3509 836 4129 
Q 1250 4750 2034 4750 
z
" transform="scale(0.015625)"/>
        <path id="DejaVuSans-2e" d="M 684 794 
L 1344 794 
L 1344 0 
L 684 0 
L 684 794 
z
" transform="scale(0.015625)"/>
       </defs>
       <use xlink:href="#DejaVuSans-30"/>
       <use xlink:href="#DejaVuSans-2e" x="63.623047"/>
       <use xlink:href="#DejaVuSans-30" x="95.410156"/>
      </g>
     </g>
    </g>
    <g id="xtick_2">
     <g id="line2d_2">
      <g>
       <use xlink:href="#macff0c3a2a" x="102.09375" y="174.04" style="stroke: #000000; stroke-width: 0.8"/>
      </g>
     </g>
     <g id="text_2">
      <!-- 0.5 -->
      <g transform="translate(94.142188 188.638438)scale(0.1 -0.1)">
       <defs>
        <path id="DejaVuSans-35" d="M 691 4666 
L 3169 4666 
L 3169 4134 
L 1269 4134 
L 1269 2991 
Q 1406 3038 1543 3061 
Q 1681 3084 1819 3084 
Q 2600 3084 3056 2656 
Q 3513 2228 3513 1497 
Q 3513 744 3044 326 
Q 2575 -91 1722 -91 
Q 1428 -91 1123 -41 
Q 819 9 494 109 
L 494 744 
Q 775 591 1075 516 
Q 1375 441 1709 441 
Q 2250 441 2565 725 
Q 2881 1009 2881 1497 
Q 2881 1984 2565 2268 
Q 2250 2553 1709 2553 
Q 1456 2553 1204 2497 
Q 953 2441 691 2322 
L 691 4666 
z
" transform="scale(0.015625)"/>
       </defs>
       <use xlink:href="#DejaVuSans-30"/>
       <use xlink:href="#DejaVuSans-2e" x="63.623047"/>
       <use xlink:href="#DejaVuSans-35" x="95.410156"/>
      </g>
     </g>
    </g>
    <g id="xtick_3">
     <g id="line2d_3">
      <g>
       <use xlink:href="#macff0c3a2a" x="156.4675" y="174.04" style="stroke: #000000; stroke-width: 0.8"/>
      </g>
     </g>
     <g id="text_3">
      <!-- 1.0 -->
      <g transform="translate(148.515938 188.638438)scale(0.1 -0.1)">
       <defs>
        <path id="DejaVuSans-31" d="M 794 531 
L 1825 531 
L 1825 4091 
L 703 3866 
L 703 4441 
L 1819 4666 
L 2450 4666 
L 2450 531 
L 3481 531 
L 3481 0 
L 794 0 
L 794 531 
z
" transform="scale(0.015625)"/>
       </defs>
       <use xlink:href="#DejaVuSans-31"/>
       <use xlink:href="#DejaVuSans-2e" x="63.623047"/>
       <use xlink:href="#DejaVuSans-30" x="95.410156"/>
      </g>
     </g>
    </g>
    <g id="xtick_4">
     <g id="line2d_4">
      <g>
       <use xlink:href="#macff0c3a2a" x="210.84125" y="174.04" style="stroke: #000000; stroke-width: 0.8"/>
      </g>
     </g>
     <g id="text_4">
      <!-- 1.5 -->
      <g transform="translate(202.889687 188.638438)scale(0.1 -0.1)">
       <use xlink:href="#DejaVuSans-31"/>
       <use xlink:href="#DejaVuSans-2e" x="63.623047"/>
       <use xlink:href="#DejaVuSans-35" x="95.410156"/>
      </g>
     </g>
    </g>
    <g id="xtick_5">
     <g id="line2d_5">
      <g>
       <use xlink:href="#macff0c3a2a" x="265.215" y="174.04" style="stroke: #000000; stroke-width: 0.8"/>
      </g>
     </g>
     <g id="text_5">
      <!-- 2.0 -->
      <g transform="translate(257.263437 188.638438)scale(0.1 -0.1)">
       <defs>
        <path id="DejaVuSans-32" d="M 1228 531 
L 3431 531 
L 3431 0 
L 469 0 
L 469 531 
Q 828 903 1448 1529 
Q 2069 2156 2228 2338 
Q 2531 2678 2651 2914 
Q 2772 3150 2772 3378 
Q 2772 3750 2511 3984 
Q 2250 4219 1831 4219 
Q 1534 4219 1204 4116 
Q 875 4013 500 3803 
L 500 4441 
Q 881 4594 1212 4672 
Q 1544 4750 1819 4750 
Q 2544 4750 2975 4387 
Q 3406 4025 3406 3419 
Q 3406 3131 3298 2873 
Q 3191 2616 2906 2266 
Q 2828 2175 2409 1742 
Q 1991 1309 1228 531 
z
" transform="scale(0.015625)"/>
       </defs>
       <use xlink:href="#DejaVuSans-32"/>
       <use xlink:href="#DejaVuSans-2e" x="63.623047"/>
       <use xlink:href="#DejaVuSans-30" x="95.410156"/>
      </g>
     </g>
    </g>
    <g id="text_6">
     <!-- Influence of surprisal (multiplication) -->
     <g transform="translate(64.320625 202.316563)scale(0.1 -0.1)">
      <defs>
       <path id="DejaVuSans-49" d="M 628 4666 
L 1259 4666 
L 1259 0 
L 628 0 
L 628 4666 
z
" transform="scale(0.015625)"/>
       <path id="DejaVuSans-6e" d="M 3513 2113 
L 3513 0 
L 2938 0 
L 2938 2094 
Q 2938 2591 2744 2837 
Q 2550 3084 2163 3084 
Q 1697 3084 1428 2787 
Q 1159 2491 1159 1978 
L 1159 0 
L 581 0 
L 581 3500 
L 1159 3500 
L 1159 2956 
Q 1366 3272 1645 3428 
Q 1925 3584 2291 3584 
Q 2894 3584 3203 3211 
Q 3513 2838 3513 2113 
z
" transform="scale(0.015625)"/>
       <path id="DejaVuSans-66" d="M 2375 4863 
L 2375 4384 
L 1825 4384 
Q 1516 4384 1395 4259 
Q 1275 4134 1275 3809 
L 1275 3500 
L 2222 3500 
L 2222 3053 
L 1275 3053 
L 1275 0 
L 697 0 
L 697 3053 
L 147 3053 
L 147 3500 
L 697 3500 
L 697 3744 
Q 697 4328 969 4595 
Q 1241 4863 1831 4863 
L 2375 4863 
z
" transform="scale(0.015625)"/>
       <path id="DejaVuSans-6c" d="M 603 4863 
L 1178 4863 
L 1178 0 
L 603 0 
L 603 4863 
z
" transform="scale(0.015625)"/>
       <path id="DejaVuSans-75" d="M 544 1381 
L 544 3500 
L 1119 3500 
L 1119 1403 
Q 1119 906 1312 657 
Q 1506 409 1894 409 
Q 2359 409 2629 706 
Q 2900 1003 2900 1516 
L 2900 3500 
L 3475 3500 
L 3475 0 
L 2900 0 
L 2900 538 
Q 2691 219 2414 64 
Q 2138 -91 1772 -91 
Q 1169 -91 856 284 
Q 544 659 544 1381 
z
M 1991 3584 
L 1991 3584 
z
" transform="scale(0.015625)"/>
       <path id="DejaVuSans-65" d="M 3597 1894 
L 3597 1613 
L 953 1613 
Q 991 1019 1311 708 
Q 1631 397 2203 397 
Q 2534 397 2845 478 
Q 3156 559 3463 722 
L 3463 178 
Q 3153 47 2828 -22 
Q 2503 -91 2169 -91 
Q 1331 -91 842 396 
Q 353 884 353 1716 
Q 353 2575 817 3079 
Q 1281 3584 2069 3584 
Q 2775 3584 3186 3129 
Q 3597 2675 3597 1894 
z
M 3022 2063 
Q 3016 2534 2758 2815 
Q 2500 3097 2075 3097 
Q 1594 3097 1305 2825 
Q 1016 2553 972 2059 
L 3022 2063 
z
" transform="scale(0.015625)"/>
       <path id="DejaVuSans-63" d="M 3122 3366 
L 3122 2828 
Q 2878 2963 2633 3030 
Q 2388 3097 2138 3097 
Q 1578 3097 1268 2742 
Q 959 2388 959 1747 
Q 959 1106 1268 751 
Q 1578 397 2138 397 
Q 2388 397 2633 464 
Q 2878 531 3122 666 
L 3122 134 
Q 2881 22 2623 -34 
Q 2366 -91 2075 -91 
Q 1284 -91 818 406 
Q 353 903 353 1747 
Q 353 2603 823 3093 
Q 1294 3584 2113 3584 
Q 2378 3584 2631 3529 
Q 2884 3475 3122 3366 
z
" transform="scale(0.015625)"/>
       <path id="DejaVuSans-20" transform="scale(0.015625)"/>
       <path id="DejaVuSans-6f" d="M 1959 3097 
Q 1497 3097 1228 2736 
Q 959 2375 959 1747 
Q 959 1119 1226 758 
Q 1494 397 1959 397 
Q 2419 397 2687 759 
Q 2956 1122 2956 1747 
Q 2956 2369 2687 2733 
Q 2419 3097 1959 3097 
z
M 1959 3584 
Q 2709 3584 3137 3096 
Q 3566 2609 3566 1747 
Q 3566 888 3137 398 
Q 2709 -91 1959 -91 
Q 1206 -91 779 398 
Q 353 888 353 1747 
Q 353 2609 779 3096 
Q 1206 3584 1959 3584 
z
" transform="scale(0.015625)"/>
       <path id="DejaVuSans-73" d="M 2834 3397 
L 2834 2853 
Q 2591 2978 2328 3040 
Q 2066 3103 1784 3103 
Q 1356 3103 1142 2972 
Q 928 2841 928 2578 
Q 928 2378 1081 2264 
Q 1234 2150 1697 2047 
L 1894 2003 
Q 2506 1872 2764 1633 
Q 3022 1394 3022 966 
Q 3022 478 2636 193 
Q 2250 -91 1575 -91 
Q 1294 -91 989 -36 
Q 684 19 347 128 
L 347 722 
Q 666 556 975 473 
Q 1284 391 1588 391 
Q 1994 391 2212 530 
Q 2431 669 2431 922 
Q 2431 1156 2273 1281 
Q 2116 1406 1581 1522 
L 1381 1569 
Q 847 1681 609 1914 
Q 372 2147 372 2553 
Q 372 3047 722 3315 
Q 1072 3584 1716 3584 
Q 2034 3584 2315 3537 
Q 2597 3491 2834 3397 
z
" transform="scale(0.015625)"/>
       <path id="DejaVuSans-72" d="M 2631 2963 
Q 2534 3019 2420 3045 
Q 2306 3072 2169 3072 
Q 1681 3072 1420 2755 
Q 1159 2438 1159 1844 
L 1159 0 
L 581 0 
L 581 3500 
L 1159 3500 
L 1159 2956 
Q 1341 3275 1631 3429 
Q 1922 3584 2338 3584 
Q 2397 3584 2469 3576 
Q 2541 3569 2628 3553 
L 2631 2963 
z
" transform="scale(0.015625)"/>
       <path id="DejaVuSans-70" d="M 1159 525 
L 1159 -1331 
L 581 -1331 
L 581 3500 
L 1159 3500 
L 1159 2969 
Q 1341 3281 1617 3432 
Q 1894 3584 2278 3584 
Q 2916 3584 3314 3078 
Q 3713 2572 3713 1747 
Q 3713 922 3314 415 
Q 2916 -91 2278 -91 
Q 1894 -91 1617 61 
Q 1341 213 1159 525 
z
M 3116 1747 
Q 3116 2381 2855 2742 
Q 2594 3103 2138 3103 
Q 1681 3103 1420 2742 
Q 1159 2381 1159 1747 
Q 1159 1113 1420 752 
Q 1681 391 2138 391 
Q 2594 391 2855 752 
Q 3116 1113 3116 1747 
z
" transform="scale(0.015625)"/>
       <path id="DejaVuSans-69" d="M 603 3500 
L 1178 3500 
L 1178 0 
L 603 0 
L 603 3500 
z
M 603 4863 
L 1178 4863 
L 1178 4134 
L 603 4134 
L 603 4863 
z
" transform="scale(0.015625)"/>
       <path id="DejaVuSans-61" d="M 2194 1759 
Q 1497 1759 1228 1600 
Q 959 1441 959 1056 
Q 959 750 1161 570 
Q 1363 391 1709 391 
Q 2188 391 2477 730 
Q 2766 1069 2766 1631 
L 2766 1759 
L 2194 1759 
z
M 3341 1997 
L 3341 0 
L 2766 0 
L 2766 531 
Q 2569 213 2275 61 
Q 1981 -91 1556 -91 
Q 1019 -91 701 211 
Q 384 513 384 1019 
Q 384 1609 779 1909 
Q 1175 2209 1959 2209 
L 2766 2209 
L 2766 2266 
Q 2766 2663 2505 2880 
Q 2244 3097 1772 3097 
Q 1472 3097 1187 3025 
Q 903 2953 641 2809 
L 641 3341 
Q 956 3463 1253 3523 
Q 1550 3584 1831 3584 
Q 2591 3584 2966 3190 
Q 3341 2797 3341 1997 
z
" transform="scale(0.015625)"/>
       <path id="DejaVuSans-28" d="M 1984 4856 
Q 1566 4138 1362 3434 
Q 1159 2731 1159 2009 
Q 1159 1288 1364 580 
Q 1569 -128 1984 -844 
L 1484 -844 
Q 1016 -109 783 600 
Q 550 1309 550 2009 
Q 550 2706 781 3412 
Q 1013 4119 1484 4856 
L 1984 4856 
z
" transform="scale(0.015625)"/>
       <path id="DejaVuSans-6d" d="M 3328 2828 
Q 3544 3216 3844 3400 
Q 4144 3584 4550 3584 
Q 5097 3584 5394 3201 
Q 5691 2819 5691 2113 
L 5691 0 
L 5113 0 
L 5113 2094 
Q 5113 2597 4934 2840 
Q 4756 3084 4391 3084 
Q 3944 3084 3684 2787 
Q 3425 2491 3425 1978 
L 3425 0 
L 2847 0 
L 2847 2094 
Q 2847 2600 2669 2842 
Q 2491 3084 2119 3084 
Q 1678 3084 1418 2786 
Q 1159 2488 1159 1978 
L 1159 0 
L 581 0 
L 581 3500 
L 1159 3500 
L 1159 2956 
Q 1356 3278 1631 3431 
Q 1906 3584 2284 3584 
Q 2666 3584 2933 3390 
Q 3200 3197 3328 2828 
z
" transform="scale(0.015625)"/>
       <path id="DejaVuSans-74" d="M 1172 4494 
L 1172 3500 
L 2356 3500 
L 2356 3053 
L 1172 3053 
L 1172 1153 
Q 1172 725 1289 603 
Q 1406 481 1766 481 
L 2356 481 
L 2356 0 
L 1766 0 
Q 1100 0 847 248 
Q 594 497 594 1153 
L 594 3053 
L 172 3053 
L 172 3500 
L 594 3500 
L 594 4494 
L 1172 4494 
z
" transform="scale(0.015625)"/>
       <path id="DejaVuSans-29" d="M 513 4856 
L 1013 4856 
Q 1481 4119 1714 3412 
Q 1947 2706 1947 2009 
Q 1947 1309 1714 600 
Q 1481 -109 1013 -844 
L 513 -844 
Q 928 -128 1133 580 
Q 1338 1288 1338 2009 
Q 1338 2731 1133 3434 
Q 928 4138 513 4856 
z
" transform="scale(0.015625)"/>
      </defs>
      <use xlink:href="#DejaVuSans-49"/>
      <use xlink:href="#DejaVuSans-6e" x="29.492188"/>
      <use xlink:href="#DejaVuSans-66" x="92.871094"/>
      <use xlink:href="#DejaVuSans-6c" x="128.076172"/>
      <use xlink:href="#DejaVuSans-75" x="155.859375"/>
      <use xlink:href="#DejaVuSans-65" x="219.238281"/>
      <use xlink:href="#DejaVuSans-6e" x="280.761719"/>
      <use xlink:href="#DejaVuSans-63" x="344.140625"/>
      <use xlink:href="#DejaVuSans-65" x="399.121094"/>
      <use xlink:href="#DejaVuSans-20" x="460.644531"/>
      <use xlink:href="#DejaVuSans-6f" x="492.431641"/>
      <use xlink:href="#DejaVuSans-66" x="553.613281"/>
      <use xlink:href="#DejaVuSans-20" x="588.818359"/>
      <use xlink:href="#DejaVuSans-73" x="620.605469"/>
      <use xlink:href="#DejaVuSans-75" x="672.705078"/>
      <use xlink:href="#DejaVuSans-72" x="736.083984"/>
      <use xlink:href="#DejaVuSans-70" x="777.197266"/>
      <use xlink:href="#DejaVuSans-72" x="840.673828"/>
      <use xlink:href="#DejaVuSans-69" x="881.787109"/>
      <use xlink:href="#DejaVuSans-73" x="909.570312"/>
      <use xlink:href="#DejaVuSans-61" x="961.669922"/>
      <use xlink:href="#DejaVuSans-6c" x="1022.949219"/>
      <use xlink:href="#DejaVuSans-20" x="1050.732422"/>
      <use xlink:href="#DejaVuSans-28" x="1082.519531"/>
      <use xlink:href="#DejaVuSans-6d" x="1121.533203"/>
      <use xlink:href="#DejaVuSans-75" x="1218.945312"/>
      <use xlink:href="#DejaVuSans-6c" x="1282.324219"/>
      <use xlink:href="#DejaVuSans-74" x="1310.107422"/>
      <use xlink:href="#DejaVuSans-69" x="1349.316406"/>
      <use xlink:href="#DejaVuSans-70" x="1377.099609"/>
      <use xlink:href="#DejaVuSans-6c" x="1440.576172"/>
      <use xlink:href="#DejaVuSans-69" x="1468.359375"/>
      <use xlink:href="#DejaVuSans-63" x="1496.142578"/>
      <use xlink:href="#DejaVuSans-61" x="1551.123047"/>
      <use xlink:href="#DejaVuSans-74" x="1612.402344"/>
      <use xlink:href="#DejaVuSans-69" x="1651.611328"/>
      <use xlink:href="#DejaVuSans-6f" x="1679.394531"/>
      <use xlink:href="#DejaVuSans-6e" x="1740.576172"/>
      <use xlink:href="#DejaVuSans-29" x="1803.955078"/>
     </g>
    </g>
   </g>
   <g id="matplotlib.axis_2">
    <g id="ytick_1">
     <g id="line2d_6">
      <defs>
       <path id="m661ae88dea" d="M 0 0 
L -3.5 0 
" style="stroke: #000000; stroke-width: 0.8"/>
      </defs>
      <g>
       <use xlink:href="#m661ae88dea" x="47.72" y="145.209323" style="stroke: #000000; stroke-width: 0.8"/>
      </g>
     </g>
     <g id="text_7">
      <!-- 0.4 -->
      <g transform="translate(24.816875 149.008542)scale(0.1 -0.1)">
       <defs>
        <path id="DejaVuSans-34" d="M 2419 4116 
L 825 1625 
L 2419 1625 
L 2419 4116 
z
M 2253 4666 
L 3047 4666 
L 3047 1625 
L 3713 1625 
L 3713 1100 
L 3047 1100 
L 3047 0 
L 2419 0 
L 2419 1100 
L 313 1100 
L 313 1709 
L 2253 4666 
z
" transform="scale(0.015625)"/>
       </defs>
       <use xlink:href="#DejaVuSans-30"/>
       <use xlink:href="#DejaVuSans-2e" x="63.623047"/>
       <use xlink:href="#DejaVuSans-34" x="95.410156"/>
      </g>
     </g>
    </g>
    <g id="ytick_2">
     <g id="line2d_7">
      <g>
       <use xlink:href="#m661ae88dea" x="47.72" y="107.995911" style="stroke: #000000; stroke-width: 0.8"/>
      </g>
     </g>
     <g id="text_8">
      <!-- 0.6 -->
      <g transform="translate(24.816875 111.79513)scale(0.1 -0.1)">
       <defs>
        <path id="DejaVuSans-36" d="M 2113 2584 
Q 1688 2584 1439 2293 
Q 1191 2003 1191 1497 
Q 1191 994 1439 701 
Q 1688 409 2113 409 
Q 2538 409 2786 701 
Q 3034 994 3034 1497 
Q 3034 2003 2786 2293 
Q 2538 2584 2113 2584 
z
M 3366 4563 
L 3366 3988 
Q 3128 4100 2886 4159 
Q 2644 4219 2406 4219 
Q 1781 4219 1451 3797 
Q 1122 3375 1075 2522 
Q 1259 2794 1537 2939 
Q 1816 3084 2150 3084 
Q 2853 3084 3261 2657 
Q 3669 2231 3669 1497 
Q 3669 778 3244 343 
Q 2819 -91 2113 -91 
Q 1303 -91 875 529 
Q 447 1150 447 2328 
Q 447 3434 972 4092 
Q 1497 4750 2381 4750 
Q 2619 4750 2861 4703 
Q 3103 4656 3366 4563 
z
" transform="scale(0.015625)"/>
       </defs>
       <use xlink:href="#DejaVuSans-30"/>
       <use xlink:href="#DejaVuSans-2e" x="63.623047"/>
       <use xlink:href="#DejaVuSans-36" x="95.410156"/>
      </g>
     </g>
    </g>
    <g id="ytick_3">
     <g id="line2d_8">
      <g>
       <use xlink:href="#m661ae88dea" x="47.72" y="70.782499" style="stroke: #000000; stroke-width: 0.8"/>
      </g>
     </g>
     <g id="text_9">
      <!-- 0.8 -->
      <g transform="translate(24.816875 74.581718)scale(0.1 -0.1)">
       <defs>
        <path id="DejaVuSans-38" d="M 2034 2216 
Q 1584 2216 1326 1975 
Q 1069 1734 1069 1313 
Q 1069 891 1326 650 
Q 1584 409 2034 409 
Q 2484 409 2743 651 
Q 3003 894 3003 1313 
Q 3003 1734 2745 1975 
Q 2488 2216 2034 2216 
z
M 1403 2484 
Q 997 2584 770 2862 
Q 544 3141 544 3541 
Q 544 4100 942 4425 
Q 1341 4750 2034 4750 
Q 2731 4750 3128 4425 
Q 3525 4100 3525 3541 
Q 3525 3141 3298 2862 
Q 3072 2584 2669 2484 
Q 3125 2378 3379 2068 
Q 3634 1759 3634 1313 
Q 3634 634 3220 271 
Q 2806 -91 2034 -91 
Q 1263 -91 848 271 
Q 434 634 434 1313 
Q 434 1759 690 2068 
Q 947 2378 1403 2484 
z
M 1172 3481 
Q 1172 3119 1398 2916 
Q 1625 2713 2034 2713 
Q 2441 2713 2670 2916 
Q 2900 3119 2900 3481 
Q 2900 3844 2670 4047 
Q 2441 4250 2034 4250 
Q 1625 4250 1398 4047 
Q 1172 3844 1172 3481 
z
" transform="scale(0.015625)"/>
       </defs>
       <use xlink:href="#DejaVuSans-30"/>
       <use xlink:href="#DejaVuSans-2e" x="63.623047"/>
       <use xlink:href="#DejaVuSans-38" x="95.410156"/>
      </g>
     </g>
    </g>
    <g id="ytick_4">
     <g id="line2d_9">
      <g>
       <use xlink:href="#m661ae88dea" x="47.72" y="33.569088" style="stroke: #000000; stroke-width: 0.8"/>
      </g>
     </g>
     <g id="text_10">
      <!-- 1.0 -->
      <g transform="translate(24.816875 37.368306)scale(0.1 -0.1)">
       <use xlink:href="#DejaVuSans-31"/>
       <use xlink:href="#DejaVuSans-2e" x="63.623047"/>
       <use xlink:href="#DejaVuSans-30" x="95.410156"/>
      </g>
     </g>
    </g>
    <g id="text_11">
     <!-- R-value -->
     <g transform="translate(18.737188 119.064687)rotate(-90)scale(0.1 -0.1)">
      <defs>
       <path id="DejaVuSans-52" d="M 2841 2188 
Q 3044 2119 3236 1894 
Q 3428 1669 3622 1275 
L 4263 0 
L 3584 0 
L 2988 1197 
Q 2756 1666 2539 1819 
Q 2322 1972 1947 1972 
L 1259 1972 
L 1259 0 
L 628 0 
L 628 4666 
L 2053 4666 
Q 2853 4666 3247 4331 
Q 3641 3997 3641 3322 
Q 3641 2881 3436 2590 
Q 3231 2300 2841 2188 
z
M 1259 4147 
L 1259 2491 
L 2053 2491 
Q 2509 2491 2742 2702 
Q 2975 2913 2975 3322 
Q 2975 3731 2742 3939 
Q 2509 4147 2053 4147 
L 1259 4147 
z
" transform="scale(0.015625)"/>
       <path id="DejaVuSans-2d" d="M 313 2009 
L 1997 2009 
L 1997 1497 
L 313 1497 
L 313 2009 
z
" transform="scale(0.015625)"/>
       <path id="DejaVuSans-76" d="M 191 3500 
L 800 3500 
L 1894 563 
L 2988 3500 
L 3597 3500 
L 2284 0 
L 1503 0 
L 191 3500 
z
" transform="scale(0.015625)"/>
      </defs>
      <use xlink:href="#DejaVuSans-52"/>
      <use xlink:href="#DejaVuSans-2d" x="65.482422"/>
      <use xlink:href="#DejaVuSans-76" x="98.941406"/>
      <use xlink:href="#DejaVuSans-61" x="158.121094"/>
      <use xlink:href="#DejaVuSans-6c" x="219.400391"/>
      <use xlink:href="#DejaVuSans-75" x="247.183594"/>
      <use xlink:href="#DejaVuSans-65" x="310.5625"/>
     </g>
    </g>
   </g>
   <g id="line2d_10">
    <path d="M 47.72 33.569091 
L 59.167105 34.499711 
L 70.614211 37.048987 
L 82.061316 41.063731 
L 93.508421 45.867167 
L 104.955526 51.854447 
L 116.402632 58.193875 
L 127.849737 65.617609 
L 139.296842 72.412404 
L 150.743947 79.920137 
L 162.191053 86.770834 
L 173.638158 94.362947 
L 185.085263 101.443955 
L 196.532368 108.26787 
L 207.979474 114.552947 
L 219.426579 120.842425 
L 230.873684 126.687925 
L 242.320789 132.375617 
L 253.767895 137.467813 
L 265.215 142.900039 
" clip-path="url(#pcf9cf09418)" style="fill: none; stroke: #1f77b4; stroke-width: 1.5; stroke-linecap: square"/>
   </g>
   <g id="line2d_11">
    <path d="M 47.72 33.569269 
L 59.167105 34.184714 
L 70.614211 35.545219 
L 82.061316 37.883619 
L 93.508421 40.783045 
L 104.955526 44.585826 
L 116.402632 48.983858 
L 127.849737 54.468266 
L 139.296842 59.708436 
L 150.743947 65.780654 
L 162.191053 71.601695 
L 173.638158 78.299753 
L 185.085263 84.714331 
L 196.532368 91.08748 
L 207.979474 97.278674 
L 219.426579 103.533058 
L 230.873684 109.600114 
L 242.320789 115.669871 
L 253.767895 120.962795 
L 265.215 126.890127 
" clip-path="url(#pcf9cf09418)" style="fill: none; stroke: #ff7f0e; stroke-width: 1.5; stroke-linecap: square"/>
   </g>
   <g id="line2d_12">
    <path d="M 47.72 33.569103 
L 59.167105 34.292634 
L 70.614211 35.57892 
L 82.061316 37.265948 
L 93.508421 39.479325 
L 104.955526 42.209586 
L 116.402632 45.248746 
L 127.849737 48.574893 
L 139.296842 51.511824 
L 150.743947 55.210215 
L 162.191053 58.739598 
L 173.638158 62.291713 
L 185.085263 65.948234 
L 196.532368 69.555815 
L 207.979474 73.111123 
L 219.426579 76.968984 
L 230.873684 80.650454 
L 242.320789 84.277244 
L 253.767895 87.624434 
L 265.215 91.048369 
" clip-path="url(#pcf9cf09418)" style="fill: none; stroke: #2ca02c; stroke-width: 1.5; stroke-linecap: square"/>
   </g>
   <g id="line2d_13">
    <path d="M 47.72 33.570126 
L 59.167105 34.145629 
L 70.614211 35.075794 
L 82.061316 36.392023 
L 93.508421 38.114261 
L 104.955526 40.335871 
L 116.402632 42.971227 
L 127.849737 46.043559 
L 139.296842 48.86042 
L 150.743947 52.484685 
L 162.191053 56.012653 
L 173.638158 59.699769 
L 185.085263 63.437639 
L 196.532368 67.13334 
L 207.979474 70.768035 
L 219.426579 74.680257 
L 230.873684 78.391517 
L 242.320789 82.16222 
L 253.767895 85.609622 
L 265.215 89.104111 
" clip-path="url(#pcf9cf09418)" style="fill: none; stroke: #d62728; stroke-width: 1.5; stroke-linecap: square"/>
   </g>
   <g id="line2d_14">
    <path d="M 47.72 33.569103 
L 59.167105 34.502922 
L 70.614211 37.061005 
L 82.061316 41.10661 
L 93.508421 45.868631 
L 104.955526 51.922655 
L 116.402632 58.282349 
L 127.849737 65.569079 
L 139.296842 72.543362 
L 150.743947 79.850822 
L 162.191053 86.865635 
L 173.638158 94.479165 
L 185.085263 101.540677 
L 196.532368 108.578017 
L 207.979474 114.463609 
L 219.426579 120.905566 
L 230.873684 127.067214 
L 242.320789 132.920895 
L 253.767895 137.936636 
L 265.215 142.77475 
" clip-path="url(#pcf9cf09418)" style="fill: none; stroke: #9467bd; stroke-width: 1.5; stroke-linecap: square"/>
   </g>
   <g id="line2d_15">
    <path d="M 47.72 33.569812 
L 59.167105 34.184962 
L 70.614211 35.551119 
L 82.061316 37.896926 
L 93.508421 40.792378 
L 104.955526 44.620008 
L 116.402632 49.061078 
L 127.849737 54.471009 
L 139.296842 59.782001 
L 150.743947 65.7315 
L 162.191053 71.663593 
L 173.638158 78.371442 
L 185.085263 84.781216 
L 196.532368 91.294279 
L 207.979474 97.231375 
L 219.426579 103.554744 
L 230.873684 109.892179 
L 242.320789 116.139122 
L 253.767895 121.393607 
L 265.215 126.878726 
" clip-path="url(#pcf9cf09418)" style="fill: none; stroke: #8c564b; stroke-width: 1.5; stroke-linecap: square"/>
   </g>
   <g id="line2d_16">
    <path d="M 47.72 47.59994 
L 59.167105 48.789113 
L 70.614211 51.899745 
L 82.061316 56.691554 
L 93.508421 62.582067 
L 104.955526 69.56331 
L 116.402632 76.876376 
L 127.849737 85.136627 
L 139.296842 92.153621 
L 150.743947 100.009859 
L 162.191053 107.09144 
L 173.638158 114.504461 
L 185.085263 121.385792 
L 196.532368 127.8877 
L 207.979474 133.723596 
L 219.426579 139.533809 
L 230.873684 144.826923 
L 242.320789 149.466984 
L 253.767895 154.130731 
L 265.215 158.346516 
" clip-path="url(#pcf9cf09418)" style="fill: none; stroke: #e377c2; stroke-width: 1.5; stroke-linecap: square"/>
   </g>
   <g id="line2d_17">
    <path d="M 47.72 33.569454 
L 59.167105 33.848337 
L 70.614211 34.024766 
L 82.061316 34.503942 
L 93.508421 35.562938 
L 104.955526 37.429681 
L 116.402632 40.097093 
L 127.849737 43.895149 
L 139.296842 48.05284 
L 150.743947 52.99408 
L 162.191053 58.048032 
L 173.638158 63.980778 
L 185.085263 69.644837 
L 196.532368 75.707549 
L 207.979474 81.730143 
L 219.426579 88.157425 
L 230.873684 94.340751 
L 242.320789 100.776146 
L 253.767895 106.430018 
L 265.215 112.714917 
" clip-path="url(#pcf9cf09418)" style="fill: none; stroke: #7f7f7f; stroke-width: 1.5; stroke-linecap: square"/>
   </g>
   <g id="patch_3">
    <path d="M 47.72 174.04 
L 47.72 26.88 
" style="fill: none; stroke: #000000; stroke-width: 0.8; stroke-linejoin: miter; stroke-linecap: square"/>
   </g>
   <g id="patch_4">
    <path d="M 47.72 174.04 
L 265.215 174.04 
" style="fill: none; stroke: #000000; stroke-width: 0.8; stroke-linejoin: miter; stroke-linecap: square"/>
   </g>
   <g id="text_12">
    <!-- Node * surprisal -->
    <g transform="translate(108.18625 20.88)scale(0.12 -0.12)">
     <defs>
      <path id="DejaVuSans-4e" d="M 628 4666 
L 1478 4666 
L 3547 763 
L 3547 4666 
L 4159 4666 
L 4159 0 
L 3309 0 
L 1241 3903 
L 1241 0 
L 628 0 
L 628 4666 
z
" transform="scale(0.015625)"/>
      <path id="DejaVuSans-64" d="M 2906 2969 
L 2906 4863 
L 3481 4863 
L 3481 0 
L 2906 0 
L 2906 525 
Q 2725 213 2448 61 
Q 2172 -91 1784 -91 
Q 1150 -91 751 415 
Q 353 922 353 1747 
Q 353 2572 751 3078 
Q 1150 3584 1784 3584 
Q 2172 3584 2448 3432 
Q 2725 3281 2906 2969 
z
M 947 1747 
Q 947 1113 1208 752 
Q 1469 391 1925 391 
Q 2381 391 2643 752 
Q 2906 1113 2906 1747 
Q 2906 2381 2643 2742 
Q 2381 3103 1925 3103 
Q 1469 3103 1208 2742 
Q 947 2381 947 1747 
z
" transform="scale(0.015625)"/>
      <path id="DejaVuSans-2a" d="M 3009 3897 
L 1888 3291 
L 3009 2681 
L 2828 2375 
L 1778 3009 
L 1778 1831 
L 1422 1831 
L 1422 3009 
L 372 2375 
L 191 2681 
L 1313 3291 
L 191 3897 
L 372 4206 
L 1422 3572 
L 1422 4750 
L 1778 4750 
L 1778 3572 
L 2828 4206 
L 3009 3897 
z
" transform="scale(0.015625)"/>
     </defs>
     <use xlink:href="#DejaVuSans-4e"/>
     <use xlink:href="#DejaVuSans-6f" x="74.804688"/>
     <use xlink:href="#DejaVuSans-64" x="135.986328"/>
     <use xlink:href="#DejaVuSans-65" x="199.462891"/>
     <use xlink:href="#DejaVuSans-20" x="260.986328"/>
     <use xlink:href="#DejaVuSans-2a" x="292.773438"/>
     <use xlink:href="#DejaVuSans-20" x="342.773438"/>
     <use xlink:href="#DejaVuSans-73" x="374.560547"/>
     <use xlink:href="#DejaVuSans-75" x="426.660156"/>
     <use xlink:href="#DejaVuSans-72" x="490.039062"/>
     <use xlink:href="#DejaVuSans-70" x="531.152344"/>
     <use xlink:href="#DejaVuSans-72" x="594.628906"/>
     <use xlink:href="#DejaVuSans-69" x="635.742188"/>
     <use xlink:href="#DejaVuSans-73" x="663.525391"/>
     <use xlink:href="#DejaVuSans-61" x="715.625"/>
     <use xlink:href="#DejaVuSans-6c" x="776.904297"/>
    </g>
   </g>
  </g>
  <g id="axes_2">
   <g id="patch_5">
    <path d="M 298.065 174.04 
L 515.56 174.04 
L 515.56 26.88 
L 298.065 26.88 
z
" style="fill: #ffffff"/>
   </g>
   <g id="PolyCollection_9">
    <path d="M 298.065 33.569091 
L 298.065 33.569092 
L 309.512105 34.814709 
L 320.959211 38.225588 
L 332.406316 43.285486 
L 343.853421 49.438423 
L 355.300526 56.924654 
L 366.747632 64.345991 
L 378.194737 72.630803 
L 389.641842 80.55918 
L 401.088947 88.983684 
L 412.536053 97.143535 
L 423.983158 105.226402 
L 435.430263 112.073313 
L 446.877368 119.312991 
L 458.324474 126.388076 
L 469.771579 132.067043 
L 481.218684 138.305444 
L 492.665789 142.871633 
L 504.112895 147.781071 
L 515.56 152.420832 
L 515.56 140.611962 
L 515.56 140.611962 
L 504.112895 135.58551 
L 492.665789 130.266819 
L 481.218684 125.317009 
L 469.771579 119.464874 
L 458.324474 113.205249 
L 446.877368 107.052956 
L 435.430263 100.395018 
L 423.983158 93.245887 
L 412.536053 86.486279 
L 401.088947 79.372665 
L 389.641842 72.412551 
L 378.194737 65.088928 
L 366.747632 58.162092 
L 355.300526 51.291118 
L 343.853421 45.423035 
L 332.406316 40.678054 
L 320.959211 36.912581 
L 309.512105 34.406909 
L 298.065 33.569091 
z
" clip-path="url(#p84b5b0c7c5)" style="fill: #1f77b4; fill-opacity: 0.4"/>
   </g>
   <g id="PolyCollection_10">
    <path d="M 298.065 33.569252 
L 298.065 33.569286 
L 309.512105 34.815705 
L 320.959211 38.22291 
L 332.406316 43.286959 
L 343.853421 49.429182 
L 355.300526 56.906025 
L 366.747632 64.327227 
L 378.194737 72.603537 
L 389.641842 80.538867 
L 401.088947 88.957637 
L 412.536053 97.119489 
L 423.983158 105.217464 
L 435.430263 112.060566 
L 446.877368 119.26667 
L 458.324474 126.386522 
L 469.771579 132.046013 
L 481.218684 138.310644 
L 492.665789 142.892026 
L 504.112895 147.849047 
L 515.56 152.532283 
L 515.56 140.878985 
L 515.56 140.878985 
L 504.112895 135.888753 
L 492.665789 130.600276 
L 481.218684 125.594636 
L 469.771579 119.72292 
L 458.324474 113.444105 
L 446.877368 107.265911 
L 435.430263 100.571312 
L 423.983158 93.402708 
L 412.536053 86.623202 
L 401.088947 79.512081 
L 389.641842 72.529344 
L 378.194737 65.191699 
L 366.747632 58.247396 
L 355.300526 51.337138 
L 343.853421 45.46586 
L 332.406316 40.697981 
L 320.959211 36.923162 
L 309.512105 34.407652 
L 298.065 33.569252 
z
" clip-path="url(#p84b5b0c7c5)" style="fill: #ff7f0e; fill-opacity: 0.4"/>
   </g>
   <g id="PolyCollection_11">
    <path d="M 298.065 33.569101 
L 298.065 33.569104 
L 309.512105 34.825312 
L 320.959211 38.250888 
L 332.406316 43.342 
L 343.853421 49.513508 
L 355.300526 57.030797 
L 366.747632 64.463325 
L 378.194737 72.783714 
L 389.641842 80.715573 
L 401.088947 89.134921 
L 412.536053 97.345924 
L 423.983158 105.433878 
L 435.430263 112.263726 
L 446.877368 119.472271 
L 458.324474 126.639823 
L 469.771579 132.218931 
L 481.218684 138.379647 
L 492.665789 142.894804 
L 504.112895 147.746951 
L 515.56 152.42837 
L 515.56 141.792136 
L 515.56 141.792136 
L 504.112895 136.621469 
L 492.665789 131.197473 
L 481.218684 126.122185 
L 469.771579 120.075035 
L 458.324474 113.777321 
L 446.877368 107.473883 
L 435.430263 100.715504 
L 423.983158 93.503451 
L 412.536053 86.675554 
L 401.088947 79.537101 
L 389.641842 72.561334 
L 378.194737 65.183692 
L 366.747632 58.237698 
L 355.300526 51.318147 
L 343.853421 45.427696 
L 332.406316 40.686703 
L 320.959211 36.916636 
L 309.512105 34.407253 
L 298.065 33.569101 
z
" clip-path="url(#p84b5b0c7c5)" style="fill: #2ca02c; fill-opacity: 0.4"/>
   </g>
   <g id="PolyCollection_12">
    <path d="M 298.065 33.569977 
L 298.065 33.570275 
L 309.512105 34.825911 
L 320.959211 38.248084 
L 332.406316 43.334729 
L 343.853421 49.496553 
L 355.300526 57.010445 
L 366.747632 64.455124 
L 378.194737 72.779225 
L 389.641842 80.709294 
L 401.088947 89.170684 
L 412.536053 97.384565 
L 423.983158 105.517654 
L 435.430263 112.354591 
L 446.877368 119.591773 
L 458.324474 126.767377 
L 469.771579 132.36805 
L 481.218684 138.489108 
L 492.665789 143.026545 
L 504.112895 147.901674 
L 515.56 152.532424 
L 515.56 141.919036 
L 515.56 141.919036 
L 504.112895 136.725425 
L 492.665789 131.295074 
L 481.218684 126.213817 
L 469.771579 120.124716 
L 458.324474 113.85322 
L 446.877368 107.549702 
L 435.430263 100.833217 
L 423.983158 93.611096 
L 412.536053 86.772391 
L 401.088947 79.65159 
L 389.641842 72.661615 
L 378.194737 65.275979 
L 366.747632 58.310253 
L 355.300526 51.371119 
L 343.853421 45.466157 
L 332.406316 40.706598 
L 320.959211 36.927406 
L 309.512105 34.409055 
L 298.065 33.569977 
z
" clip-path="url(#p84b5b0c7c5)" style="fill: #d62728; fill-opacity: 0.4"/>
   </g>
   <g id="PolyCollection_13">
    <path d="M 298.065 33.569101 
L 298.065 33.569104 
L 309.512105 34.813953 
L 320.959211 38.22704 
L 332.406316 43.294031 
L 343.853421 49.512389 
L 355.300526 56.951245 
L 366.747632 64.565838 
L 378.194737 72.998354 
L 389.641842 80.660642 
L 401.088947 89.2451 
L 412.536053 97.170506 
L 423.983158 105.429044 
L 435.430263 112.504372 
L 446.877368 120.028605 
L 458.324474 126.469246 
L 469.771579 132.589071 
L 481.218684 137.77944 
L 492.665789 142.883879 
L 504.112895 148.22104 
L 515.56 152.649408 
L 515.56 140.080906 
L 515.56 140.080906 
L 504.112895 135.873551 
L 492.665789 130.936461 
L 481.218684 125.143949 
L 469.771579 119.974752 
L 458.324474 113.154724 
L 446.877368 107.561108 
L 435.430263 100.419188 
L 423.983158 93.390647 
L 412.536053 86.534175 
L 401.088947 79.424236 
L 389.641842 72.101581 
L 378.194737 65.321405 
L 366.747632 58.167523 
L 355.300526 51.29121 
L 343.853421 45.37703 
L 332.406316 40.670973 
L 320.959211 36.920678 
L 309.512105 34.408642 
L 298.065 33.569101 
z
" clip-path="url(#p84b5b0c7c5)" style="fill: #9467bd; fill-opacity: 0.4"/>
   </g>
   <g id="PolyCollection_14">
    <path d="M 298.065 33.569745 
L 298.065 33.569882 
L 309.512105 34.815584 
L 320.959211 38.225412 
L 332.406316 43.294641 
L 343.853421 49.50032 
L 355.300526 56.928528 
L 366.747632 64.541562 
L 378.194737 72.966843 
L 389.641842 80.646714 
L 401.088947 89.211094 
L 412.536053 97.14302 
L 423.983158 105.422781 
L 435.430263 112.48206 
L 446.877368 119.974722 
L 458.324474 126.457835 
L 469.771579 132.587854 
L 481.218684 137.804086 
L 492.665789 142.925461 
L 504.112895 148.248368 
L 515.56 152.742906 
L 515.56 140.32252 
L 515.56 140.32252 
L 504.112895 136.181352 
L 492.665789 131.228691 
L 481.218684 125.413752 
L 469.771579 120.238995 
L 458.324474 113.401966 
L 446.877368 107.754599 
L 435.430263 100.596219 
L 423.983158 93.553929 
L 412.536053 86.669731 
L 401.088947 79.567727 
L 389.641842 72.226135 
L 378.194737 65.429189 
L 366.747632 58.249612 
L 355.300526 51.337807 
L 343.853421 45.425054 
L 332.406316 40.689838 
L 320.959211 36.932486 
L 309.512105 34.41003 
L 298.065 33.569745 
z
" clip-path="url(#p84b5b0c7c5)" style="fill: #8c564b; fill-opacity: 0.4"/>
   </g>
   <g id="PolyCollection_15">
    <path d="M 298.065 45.080686 
L 298.065 50.119194 
L 309.512105 51.118858 
L 320.959211 54.019435 
L 332.406316 58.235517 
L 343.853421 63.805355 
L 355.300526 70.436325 
L 366.747632 77.431293 
L 378.194737 84.94125 
L 389.641842 92.538016 
L 401.088947 100.498078 
L 412.536053 108.467892 
L 423.983158 116.529997 
L 435.430263 123.139438 
L 446.877368 130.251724 
L 458.324474 136.757538 
L 469.771579 142.17863 
L 481.218684 148.028464 
L 492.665789 152.143001 
L 504.112895 156.455167 
L 515.56 160.215355 
L 515.56 145.20859 
L 515.56 145.20859 
L 504.112895 140.419889 
L 492.665789 135.33351 
L 481.218684 130.744082 
L 469.771579 125.563393 
L 458.324474 119.932152 
L 446.877368 114.376401 
L 435.430263 108.744464 
L 423.983158 102.460946 
L 412.536053 96.446385 
L 401.088947 89.874494 
L 389.641842 83.468542 
L 378.194737 76.350928 
L 366.747632 69.454164 
L 355.300526 62.886459 
L 343.853421 57.016606 
L 332.406316 52.457306 
L 320.959211 48.519146 
L 309.512105 45.978529 
L 298.065 45.080686 
z
" clip-path="url(#p84b5b0c7c5)" style="fill: #e377c2; fill-opacity: 0.4"/>
   </g>
   <g id="PolyCollection_16">
    <path d="M 298.065 33.569343 
L 298.065 33.569564 
L 309.512105 34.817071 
L 320.959211 38.220219 
L 332.406316 43.290904 
L 343.853421 49.446292 
L 355.300526 56.93442 
L 366.747632 64.382005 
L 378.194737 72.731442 
L 389.641842 80.736845 
L 401.088947 89.168529 
L 412.536053 97.413029 
L 423.983158 105.561946 
L 435.430263 112.429714 
L 446.877368 119.672319 
L 458.324474 126.839764 
L 469.771579 132.457066 
L 481.218684 138.653603 
L 492.665789 143.113366 
L 504.112895 148.070486 
L 515.56 152.646936 
L 515.56 140.875692 
L 515.56 140.875692 
L 504.112895 135.815585 
L 492.665789 130.472052 
L 481.218684 125.37134 
L 469.771579 119.421572 
L 458.324474 113.220809 
L 446.877368 107.019338 
L 435.430263 100.343101 
L 423.983158 93.223232 
L 412.536053 86.434247 
L 401.088947 79.400066 
L 389.641842 72.431038 
L 378.194737 65.135005 
L 366.747632 58.218182 
L 355.300526 51.332656 
L 343.853421 45.442672 
L 332.406316 40.692228 
L 320.959211 36.924183 
L 309.512105 34.410006 
L 298.065 33.569343 
z
" clip-path="url(#p84b5b0c7c5)" style="fill: #7f7f7f; fill-opacity: 0.4"/>
   </g>
   <g id="matplotlib.axis_3">
    <g id="xtick_6">
     <g id="line2d_18">
      <g>
       <use xlink:href="#macff0c3a2a" x="298.065" y="174.04" style="stroke: #000000; stroke-width: 0.8"/>
      </g>
     </g>
     <g id="text_13">
      <!-- 0.0 -->
      <g transform="translate(290.113437 188.638438)scale(0.1 -0.1)">
       <use xlink:href="#DejaVuSans-30"/>
       <use xlink:href="#DejaVuSans-2e" x="63.623047"/>
       <use xlink:href="#DejaVuSans-30" x="95.410156"/>
      </g>
     </g>
    </g>
    <g id="xtick_7">
     <g id="line2d_19">
      <g>
       <use xlink:href="#macff0c3a2a" x="352.43875" y="174.04" style="stroke: #000000; stroke-width: 0.8"/>
      </g>
     </g>
     <g id="text_14">
      <!-- 0.5 -->
      <g transform="translate(344.487187 188.638438)scale(0.1 -0.1)">
       <use xlink:href="#DejaVuSans-30"/>
       <use xlink:href="#DejaVuSans-2e" x="63.623047"/>
       <use xlink:href="#DejaVuSans-35" x="95.410156"/>
      </g>
     </g>
    </g>
    <g id="xtick_8">
     <g id="line2d_20">
      <g>
       <use xlink:href="#macff0c3a2a" x="406.8125" y="174.04" style="stroke: #000000; stroke-width: 0.8"/>
      </g>
     </g>
     <g id="text_15">
      <!-- 1.0 -->
      <g transform="translate(398.860937 188.638438)scale(0.1 -0.1)">
       <use xlink:href="#DejaVuSans-31"/>
       <use xlink:href="#DejaVuSans-2e" x="63.623047"/>
       <use xlink:href="#DejaVuSans-30" x="95.410156"/>
      </g>
     </g>
    </g>
    <g id="xtick_9">
     <g id="line2d_21">
      <g>
       <use xlink:href="#macff0c3a2a" x="461.18625" y="174.04" style="stroke: #000000; stroke-width: 0.8"/>
      </g>
     </g>
     <g id="text_16">
      <!-- 1.5 -->
      <g transform="translate(453.234687 188.638438)scale(0.1 -0.1)">
       <use xlink:href="#DejaVuSans-31"/>
       <use xlink:href="#DejaVuSans-2e" x="63.623047"/>
       <use xlink:href="#DejaVuSans-35" x="95.410156"/>
      </g>
     </g>
    </g>
    <g id="xtick_10">
     <g id="line2d_22">
      <g>
       <use xlink:href="#macff0c3a2a" x="515.56" y="174.04" style="stroke: #000000; stroke-width: 0.8"/>
      </g>
     </g>
     <g id="text_17">
      <!-- 2.0 -->
      <g transform="translate(507.608437 188.638438)scale(0.1 -0.1)">
       <use xlink:href="#DejaVuSans-32"/>
       <use xlink:href="#DejaVuSans-2e" x="63.623047"/>
       <use xlink:href="#DejaVuSans-30" x="95.410156"/>
      </g>
     </g>
    </g>
    <g id="text_18">
     <!-- Influence of surprisal (multiplication) -->
     <g transform="translate(314.665625 202.316563)scale(0.1 -0.1)">
      <use xlink:href="#DejaVuSans-49"/>
      <use xlink:href="#DejaVuSans-6e" x="29.492188"/>
      <use xlink:href="#DejaVuSans-66" x="92.871094"/>
      <use xlink:href="#DejaVuSans-6c" x="128.076172"/>
      <use xlink:href="#DejaVuSans-75" x="155.859375"/>
      <use xlink:href="#DejaVuSans-65" x="219.238281"/>
      <use xlink:href="#DejaVuSans-6e" x="280.761719"/>
      <use xlink:href="#DejaVuSans-63" x="344.140625"/>
      <use xlink:href="#DejaVuSans-65" x="399.121094"/>
      <use xlink:href="#DejaVuSans-20" x="460.644531"/>
      <use xlink:href="#DejaVuSans-6f" x="492.431641"/>
      <use xlink:href="#DejaVuSans-66" x="553.613281"/>
      <use xlink:href="#DejaVuSans-20" x="588.818359"/>
      <use xlink:href="#DejaVuSans-73" x="620.605469"/>
      <use xlink:href="#DejaVuSans-75" x="672.705078"/>
      <use xlink:href="#DejaVuSans-72" x="736.083984"/>
      <use xlink:href="#DejaVuSans-70" x="777.197266"/>
      <use xlink:href="#DejaVuSans-72" x="840.673828"/>
      <use xlink:href="#DejaVuSans-69" x="881.787109"/>
      <use xlink:href="#DejaVuSans-73" x="909.570312"/>
      <use xlink:href="#DejaVuSans-61" x="961.669922"/>
      <use xlink:href="#DejaVuSans-6c" x="1022.949219"/>
      <use xlink:href="#DejaVuSans-20" x="1050.732422"/>
      <use xlink:href="#DejaVuSans-28" x="1082.519531"/>
      <use xlink:href="#DejaVuSans-6d" x="1121.533203"/>
      <use xlink:href="#DejaVuSans-75" x="1218.945312"/>
      <use xlink:href="#DejaVuSans-6c" x="1282.324219"/>
      <use xlink:href="#DejaVuSans-74" x="1310.107422"/>
      <use xlink:href="#DejaVuSans-69" x="1349.316406"/>
      <use xlink:href="#DejaVuSans-70" x="1377.099609"/>
      <use xlink:href="#DejaVuSans-6c" x="1440.576172"/>
      <use xlink:href="#DejaVuSans-69" x="1468.359375"/>
      <use xlink:href="#DejaVuSans-63" x="1496.142578"/>
      <use xlink:href="#DejaVuSans-61" x="1551.123047"/>
      <use xlink:href="#DejaVuSans-74" x="1612.402344"/>
      <use xlink:href="#DejaVuSans-69" x="1651.611328"/>
      <use xlink:href="#DejaVuSans-6f" x="1679.394531"/>
      <use xlink:href="#DejaVuSans-6e" x="1740.576172"/>
      <use xlink:href="#DejaVuSans-29" x="1803.955078"/>
     </g>
    </g>
   </g>
   <g id="line2d_23">
    <path d="M 298.065 33.569091 
L 309.512105 34.610809 
L 320.959211 37.569085 
L 332.406316 41.98177 
L 343.853421 47.430729 
L 355.300526 54.107886 
L 366.747632 61.254041 
L 378.194737 68.859866 
L 389.641842 76.485865 
L 401.088947 84.178174 
L 412.536053 91.814907 
L 423.983158 99.236145 
L 435.430263 106.234166 
L 446.877368 113.182973 
L 458.324474 119.796662 
L 469.771579 125.765958 
L 481.218684 131.811226 
L 492.665789 136.569226 
L 504.112895 141.683291 
L 515.56 146.516397 
" clip-path="url(#p84b5b0c7c5)" style="fill: none; stroke: #1f77b4; stroke-width: 1.5; stroke-linecap: square"/>
   </g>
   <g id="line2d_24">
    <path d="M 298.065 33.569269 
L 309.512105 34.611679 
L 320.959211 37.573036 
L 332.406316 41.99247 
L 343.853421 47.447521 
L 355.300526 54.121581 
L 366.747632 61.287311 
L 378.194737 68.897618 
L 389.641842 76.534106 
L 401.088947 84.234859 
L 412.536053 91.871345 
L 423.983158 99.310086 
L 435.430263 106.315939 
L 446.877368 113.266291 
L 458.324474 119.915313 
L 469.771579 125.884466 
L 481.218684 131.95264 
L 492.665789 136.746151 
L 504.112895 141.8689 
L 515.56 146.705634 
" clip-path="url(#p84b5b0c7c5)" style="fill: none; stroke: #ff7f0e; stroke-width: 1.5; stroke-linecap: square"/>
   </g>
   <g id="line2d_25">
    <path d="M 298.065 33.569103 
L 309.512105 34.616283 
L 320.959211 37.583762 
L 332.406316 42.014352 
L 343.853421 47.470602 
L 355.300526 54.174472 
L 366.747632 61.350511 
L 378.194737 68.983703 
L 389.641842 76.638454 
L 401.088947 84.336011 
L 412.536053 92.010739 
L 423.983158 99.468664 
L 435.430263 106.489615 
L 446.877368 113.473077 
L 458.324474 120.208572 
L 469.771579 126.146983 
L 481.218684 132.250916 
L 492.665789 137.046138 
L 504.112895 142.18421 
L 515.56 147.110253 
" clip-path="url(#p84b5b0c7c5)" style="fill: none; stroke: #2ca02c; stroke-width: 1.5; stroke-linecap: square"/>
   </g>
   <g id="line2d_26">
    <path d="M 298.065 33.570126 
L 309.512105 34.617483 
L 320.959211 37.587745 
L 332.406316 42.020664 
L 343.853421 47.481355 
L 355.300526 54.190782 
L 366.747632 61.382688 
L 378.194737 69.027602 
L 389.641842 76.685454 
L 401.088947 84.411137 
L 412.536053 92.078478 
L 423.983158 99.564375 
L 435.430263 106.593904 
L 446.877368 113.570738 
L 458.324474 120.310298 
L 469.771579 126.246383 
L 481.218684 132.351462 
L 492.665789 137.160809 
L 504.112895 142.313549 
L 515.56 147.22573 
" clip-path="url(#p84b5b0c7c5)" style="fill: none; stroke: #d62728; stroke-width: 1.5; stroke-linecap: square"/>
   </g>
   <g id="line2d_27">
    <path d="M 298.065 33.569103 
L 309.512105 34.611297 
L 320.959211 37.573859 
L 332.406316 41.982502 
L 343.853421 47.44471 
L 355.300526 54.121228 
L 366.747632 61.36668 
L 378.194737 69.159879 
L 389.641842 76.381111 
L 401.088947 84.334668 
L 412.536053 91.852341 
L 423.983158 99.409846 
L 435.430263 106.46178 
L 446.877368 113.794856 
L 458.324474 119.811985 
L 469.771579 126.281911 
L 481.218684 131.461694 
L 492.665789 136.91017 
L 504.112895 142.047295 
L 515.56 146.365157 
" clip-path="url(#p84b5b0c7c5)" style="fill: none; stroke: #9467bd; stroke-width: 1.5; stroke-linecap: square"/>
   </g>
   <g id="line2d_28">
    <path d="M 298.065 33.569813 
L 309.512105 34.612807 
L 320.959211 37.578949 
L 332.406316 41.992239 
L 343.853421 47.462687 
L 355.300526 54.133168 
L 366.747632 61.395587 
L 378.194737 69.198016 
L 389.641842 76.436424 
L 401.088947 84.38941 
L 412.536053 91.906375 
L 423.983158 99.488355 
L 435.430263 106.539139 
L 446.877368 113.86466 
L 458.324474 119.9299 
L 469.771579 126.413425 
L 481.218684 131.608919 
L 492.665789 137.077076 
L 504.112895 142.21486 
L 515.56 146.532713 
" clip-path="url(#p84b5b0c7c5)" style="fill: none; stroke: #8c564b; stroke-width: 1.5; stroke-linecap: square"/>
   </g>
   <g id="line2d_29">
    <path d="M 298.065 47.59994 
L 309.512105 48.548693 
L 320.959211 51.26929 
L 332.406316 55.346411 
L 343.853421 60.410981 
L 355.300526 66.661392 
L 366.747632 73.442729 
L 378.194737 80.646089 
L 389.641842 88.003279 
L 401.088947 95.186286 
L 412.536053 102.457139 
L 423.983158 109.495472 
L 435.430263 115.941951 
L 446.877368 122.314063 
L 458.324474 128.344845 
L 469.771579 133.871011 
L 481.218684 139.386273 
L 492.665789 143.738256 
L 504.112895 148.437528 
L 515.56 152.711972 
" clip-path="url(#p84b5b0c7c5)" style="fill: none; stroke: #e377c2; stroke-width: 1.5; stroke-linecap: square"/>
   </g>
   <g id="line2d_30">
    <path d="M 298.065 33.569454 
L 309.512105 34.613538 
L 320.959211 37.572201 
L 332.406316 41.991566 
L 343.853421 47.444482 
L 355.300526 54.133538 
L 366.747632 61.300093 
L 378.194737 68.933223 
L 389.641842 76.583941 
L 401.088947 84.284297 
L 412.536053 91.923638 
L 423.983158 99.392589 
L 435.430263 106.386408 
L 446.877368 113.345829 
L 458.324474 120.030286 
L 469.771579 125.939319 
L 481.218684 132.012472 
L 492.665789 136.792709 
L 504.112895 141.943035 
L 515.56 146.761314 
" clip-path="url(#p84b5b0c7c5)" style="fill: none; stroke: #7f7f7f; stroke-width: 1.5; stroke-linecap: square"/>
   </g>
   <g id="patch_6">
    <path d="M 298.065 174.04 
L 298.065 26.88 
" style="fill: none; stroke: #000000; stroke-width: 0.8; stroke-linejoin: miter; stroke-linecap: square"/>
   </g>
   <g id="patch_7">
    <path d="M 298.065 174.04 
L 515.56 174.04 
" style="fill: none; stroke: #000000; stroke-width: 0.8; stroke-linejoin: miter; stroke-linecap: square"/>
   </g>
   <g id="text_19">
    <!-- Node * third variable -->
    <g transform="translate(344.2325 20.88)scale(0.12 -0.12)">
     <defs>
      <path id="DejaVuSans-68" d="M 3513 2113 
L 3513 0 
L 2938 0 
L 2938 2094 
Q 2938 2591 2744 2837 
Q 2550 3084 2163 3084 
Q 1697 3084 1428 2787 
Q 1159 2491 1159 1978 
L 1159 0 
L 581 0 
L 581 4863 
L 1159 4863 
L 1159 2956 
Q 1366 3272 1645 3428 
Q 1925 3584 2291 3584 
Q 2894 3584 3203 3211 
Q 3513 2838 3513 2113 
z
" transform="scale(0.015625)"/>
      <path id="DejaVuSans-62" d="M 3116 1747 
Q 3116 2381 2855 2742 
Q 2594 3103 2138 3103 
Q 1681 3103 1420 2742 
Q 1159 2381 1159 1747 
Q 1159 1113 1420 752 
Q 1681 391 2138 391 
Q 2594 391 2855 752 
Q 3116 1113 3116 1747 
z
M 1159 2969 
Q 1341 3281 1617 3432 
Q 1894 3584 2278 3584 
Q 2916 3584 3314 3078 
Q 3713 2572 3713 1747 
Q 3713 922 3314 415 
Q 2916 -91 2278 -91 
Q 1894 -91 1617 61 
Q 1341 213 1159 525 
L 1159 0 
L 581 0 
L 581 4863 
L 1159 4863 
L 1159 2969 
z
" transform="scale(0.015625)"/>
     </defs>
     <use xlink:href="#DejaVuSans-4e"/>
     <use xlink:href="#DejaVuSans-6f" x="74.804688"/>
     <use xlink:href="#DejaVuSans-64" x="135.986328"/>
     <use xlink:href="#DejaVuSans-65" x="199.462891"/>
     <use xlink:href="#DejaVuSans-20" x="260.986328"/>
     <use xlink:href="#DejaVuSans-2a" x="292.773438"/>
     <use xlink:href="#DejaVuSans-20" x="342.773438"/>
     <use xlink:href="#DejaVuSans-74" x="374.560547"/>
     <use xlink:href="#DejaVuSans-68" x="413.769531"/>
     <use xlink:href="#DejaVuSans-69" x="477.148438"/>
     <use xlink:href="#DejaVuSans-72" x="504.931641"/>
     <use xlink:href="#DejaVuSans-64" x="544.294922"/>
     <use xlink:href="#DejaVuSans-20" x="607.771484"/>
     <use xlink:href="#DejaVuSans-76" x="639.558594"/>
     <use xlink:href="#DejaVuSans-61" x="698.738281"/>
     <use xlink:href="#DejaVuSans-72" x="760.017578"/>
     <use xlink:href="#DejaVuSans-69" x="801.130859"/>
     <use xlink:href="#DejaVuSans-61" x="828.914062"/>
     <use xlink:href="#DejaVuSans-62" x="890.193359"/>
     <use xlink:href="#DejaVuSans-6c" x="953.669922"/>
     <use xlink:href="#DejaVuSans-65" x="981.453125"/>
    </g>
   </g>
   <g id="legend_1">
    <g id="line2d_31">
     <path d="M 524.56 39.978437 
L 534.56 39.978437 
L 544.56 39.978437 
" style="fill: none; stroke: #1f77b4; stroke-width: 1.5; stroke-linecap: square"/>
    </g>
    <g id="text_20">
     <!-- Node -->
     <g transform="translate(552.56 43.478437)scale(0.1 -0.1)">
      <use xlink:href="#DejaVuSans-4e"/>
      <use xlink:href="#DejaVuSans-6f" x="74.804688"/>
      <use xlink:href="#DejaVuSans-64" x="135.986328"/>
      <use xlink:href="#DejaVuSans-65" x="199.462891"/>
     </g>
    </g>
    <g id="line2d_32">
     <path d="M 524.56 54.656563 
L 534.56 54.656563 
L 544.56 54.656563 
" style="fill: none; stroke: #ff7f0e; stroke-width: 1.5; stroke-linecap: square"/>
    </g>
    <g id="text_21">
     <!-- Node + surprisal -->
     <g transform="translate(552.56 58.156563)scale(0.1 -0.1)">
      <defs>
       <path id="DejaVuSans-2b" d="M 2944 4013 
L 2944 2272 
L 4684 2272 
L 4684 1741 
L 2944 1741 
L 2944 0 
L 2419 0 
L 2419 1741 
L 678 1741 
L 678 2272 
L 2419 2272 
L 2419 4013 
L 2944 4013 
z
" transform="scale(0.015625)"/>
      </defs>
      <use xlink:href="#DejaVuSans-4e"/>
      <use xlink:href="#DejaVuSans-6f" x="74.804688"/>
      <use xlink:href="#DejaVuSans-64" x="135.986328"/>
      <use xlink:href="#DejaVuSans-65" x="199.462891"/>
      <use xlink:href="#DejaVuSans-20" x="260.986328"/>
      <use xlink:href="#DejaVuSans-2b" x="292.773438"/>
      <use xlink:href="#DejaVuSans-20" x="376.5625"/>
      <use xlink:href="#DejaVuSans-73" x="408.349609"/>
      <use xlink:href="#DejaVuSans-75" x="460.449219"/>
      <use xlink:href="#DejaVuSans-72" x="523.828125"/>
      <use xlink:href="#DejaVuSans-70" x="564.941406"/>
      <use xlink:href="#DejaVuSans-72" x="628.417969"/>
      <use xlink:href="#DejaVuSans-69" x="669.53125"/>
      <use xlink:href="#DejaVuSans-73" x="697.314453"/>
      <use xlink:href="#DejaVuSans-61" x="749.414062"/>
      <use xlink:href="#DejaVuSans-6c" x="810.693359"/>
     </g>
    </g>
    <g id="line2d_33">
     <path d="M 524.56 69.334687 
L 534.56 69.334687 
L 544.56 69.334687 
" style="fill: none; stroke: #2ca02c; stroke-width: 1.5; stroke-linecap: square"/>
    </g>
    <g id="text_22">
     <!-- Node split -->
     <g transform="translate(552.56 72.834687)scale(0.1 -0.1)">
      <use xlink:href="#DejaVuSans-4e"/>
      <use xlink:href="#DejaVuSans-6f" x="74.804688"/>
      <use xlink:href="#DejaVuSans-64" x="135.986328"/>
      <use xlink:href="#DejaVuSans-65" x="199.462891"/>
      <use xlink:href="#DejaVuSans-20" x="260.986328"/>
      <use xlink:href="#DejaVuSans-73" x="292.773438"/>
      <use xlink:href="#DejaVuSans-70" x="344.873047"/>
      <use xlink:href="#DejaVuSans-6c" x="408.349609"/>
      <use xlink:href="#DejaVuSans-69" x="436.132812"/>
      <use xlink:href="#DejaVuSans-74" x="463.916016"/>
     </g>
    </g>
    <g id="line2d_34">
     <path d="M 524.56 84.012812 
L 534.56 84.012812 
L 544.56 84.012812 
" style="fill: none; stroke: #d62728; stroke-width: 1.5; stroke-linecap: square"/>
    </g>
    <g id="text_23">
     <!-- Node split + surprisal -->
     <g transform="translate(552.56 87.512812)scale(0.1 -0.1)">
      <use xlink:href="#DejaVuSans-4e"/>
      <use xlink:href="#DejaVuSans-6f" x="74.804688"/>
      <use xlink:href="#DejaVuSans-64" x="135.986328"/>
      <use xlink:href="#DejaVuSans-65" x="199.462891"/>
      <use xlink:href="#DejaVuSans-20" x="260.986328"/>
      <use xlink:href="#DejaVuSans-73" x="292.773438"/>
      <use xlink:href="#DejaVuSans-70" x="344.873047"/>
      <use xlink:href="#DejaVuSans-6c" x="408.349609"/>
      <use xlink:href="#DejaVuSans-69" x="436.132812"/>
      <use xlink:href="#DejaVuSans-74" x="463.916016"/>
      <use xlink:href="#DejaVuSans-20" x="503.125"/>
      <use xlink:href="#DejaVuSans-2b" x="534.912109"/>
      <use xlink:href="#DejaVuSans-20" x="618.701172"/>
      <use xlink:href="#DejaVuSans-73" x="650.488281"/>
      <use xlink:href="#DejaVuSans-75" x="702.587891"/>
      <use xlink:href="#DejaVuSans-72" x="765.966797"/>
      <use xlink:href="#DejaVuSans-70" x="807.080078"/>
      <use xlink:href="#DejaVuSans-72" x="870.556641"/>
      <use xlink:href="#DejaVuSans-69" x="911.669922"/>
      <use xlink:href="#DejaVuSans-73" x="939.453125"/>
      <use xlink:href="#DejaVuSans-61" x="991.552734"/>
      <use xlink:href="#DejaVuSans-6c" x="1052.832031"/>
     </g>
    </g>
    <g id="line2d_35">
     <path d="M 524.56 98.690937 
L 534.56 98.690937 
L 544.56 98.690937 
" style="fill: none; stroke: #9467bd; stroke-width: 1.5; stroke-linecap: square"/>
    </g>
    <g id="text_24">
     <!-- Node random split -->
     <g transform="translate(552.56 102.190937)scale(0.1 -0.1)">
      <use xlink:href="#DejaVuSans-4e"/>
      <use xlink:href="#DejaVuSans-6f" x="74.804688"/>
      <use xlink:href="#DejaVuSans-64" x="135.986328"/>
      <use xlink:href="#DejaVuSans-65" x="199.462891"/>
      <use xlink:href="#DejaVuSans-20" x="260.986328"/>
      <use xlink:href="#DejaVuSans-72" x="292.773438"/>
      <use xlink:href="#DejaVuSans-61" x="333.886719"/>
      <use xlink:href="#DejaVuSans-6e" x="395.166016"/>
      <use xlink:href="#DejaVuSans-64" x="458.544922"/>
      <use xlink:href="#DejaVuSans-6f" x="522.021484"/>
      <use xlink:href="#DejaVuSans-6d" x="583.203125"/>
      <use xlink:href="#DejaVuSans-20" x="680.615234"/>
      <use xlink:href="#DejaVuSans-73" x="712.402344"/>
      <use xlink:href="#DejaVuSans-70" x="764.501953"/>
      <use xlink:href="#DejaVuSans-6c" x="827.978516"/>
      <use xlink:href="#DejaVuSans-69" x="855.761719"/>
      <use xlink:href="#DejaVuSans-74" x="883.544922"/>
     </g>
    </g>
    <g id="line2d_36">
     <path d="M 524.56 113.369062 
L 534.56 113.369062 
L 544.56 113.369062 
" style="fill: none; stroke: #8c564b; stroke-width: 1.5; stroke-linecap: square"/>
    </g>
    <g id="text_25">
     <!-- Node random split + surprisal -->
     <g transform="translate(552.56 116.869062)scale(0.1 -0.1)">
      <use xlink:href="#DejaVuSans-4e"/>
      <use xlink:href="#DejaVuSans-6f" x="74.804688"/>
      <use xlink:href="#DejaVuSans-64" x="135.986328"/>
      <use xlink:href="#DejaVuSans-65" x="199.462891"/>
      <use xlink:href="#DejaVuSans-20" x="260.986328"/>
      <use xlink:href="#DejaVuSans-72" x="292.773438"/>
      <use xlink:href="#DejaVuSans-61" x="333.886719"/>
      <use xlink:href="#DejaVuSans-6e" x="395.166016"/>
      <use xlink:href="#DejaVuSans-64" x="458.544922"/>
      <use xlink:href="#DejaVuSans-6f" x="522.021484"/>
      <use xlink:href="#DejaVuSans-6d" x="583.203125"/>
      <use xlink:href="#DejaVuSans-20" x="680.615234"/>
      <use xlink:href="#DejaVuSans-73" x="712.402344"/>
      <use xlink:href="#DejaVuSans-70" x="764.501953"/>
      <use xlink:href="#DejaVuSans-6c" x="827.978516"/>
      <use xlink:href="#DejaVuSans-69" x="855.761719"/>
      <use xlink:href="#DejaVuSans-74" x="883.544922"/>
      <use xlink:href="#DejaVuSans-20" x="922.753906"/>
      <use xlink:href="#DejaVuSans-2b" x="954.541016"/>
      <use xlink:href="#DejaVuSans-20" x="1038.330078"/>
      <use xlink:href="#DejaVuSans-73" x="1070.117188"/>
      <use xlink:href="#DejaVuSans-75" x="1122.216797"/>
      <use xlink:href="#DejaVuSans-72" x="1185.595703"/>
      <use xlink:href="#DejaVuSans-70" x="1226.708984"/>
      <use xlink:href="#DejaVuSans-72" x="1290.185547"/>
      <use xlink:href="#DejaVuSans-69" x="1331.298828"/>
      <use xlink:href="#DejaVuSans-73" x="1359.082031"/>
      <use xlink:href="#DejaVuSans-61" x="1411.181641"/>
      <use xlink:href="#DejaVuSans-6c" x="1472.460938"/>
     </g>
    </g>
    <g id="line2d_37">
     <path d="M 524.56 128.047187 
L 534.56 128.047187 
L 544.56 128.047187 
" style="fill: none; stroke: #e377c2; stroke-width: 1.5; stroke-linecap: square"/>
    </g>
    <g id="text_26">
     <!-- Interaction -->
     <g transform="translate(552.56 131.547187)scale(0.1 -0.1)">
      <use xlink:href="#DejaVuSans-49"/>
      <use xlink:href="#DejaVuSans-6e" x="29.492188"/>
      <use xlink:href="#DejaVuSans-74" x="92.871094"/>
      <use xlink:href="#DejaVuSans-65" x="132.080078"/>
      <use xlink:href="#DejaVuSans-72" x="193.603516"/>
      <use xlink:href="#DejaVuSans-61" x="234.716797"/>
      <use xlink:href="#DejaVuSans-63" x="295.996094"/>
      <use xlink:href="#DejaVuSans-74" x="350.976562"/>
      <use xlink:href="#DejaVuSans-69" x="390.185547"/>
      <use xlink:href="#DejaVuSans-6f" x="417.96875"/>
      <use xlink:href="#DejaVuSans-6e" x="479.150391"/>
     </g>
    </g>
    <g id="line2d_38">
     <path d="M 524.56 142.725312 
L 534.56 142.725312 
L 544.56 142.725312 
" style="fill: none; stroke: #7f7f7f; stroke-width: 1.5; stroke-linecap: square"/>
    </g>
    <g id="text_27">
     <!-- Node + surprisal + interaction -->
     <g transform="translate(552.56 146.225312)scale(0.1 -0.1)">
      <use xlink:href="#DejaVuSans-4e"/>
      <use xlink:href="#DejaVuSans-6f" x="74.804688"/>
      <use xlink:href="#DejaVuSans-64" x="135.986328"/>
      <use xlink:href="#DejaVuSans-65" x="199.462891"/>
      <use xlink:href="#DejaVuSans-20" x="260.986328"/>
      <use xlink:href="#DejaVuSans-2b" x="292.773438"/>
      <use xlink:href="#DejaVuSans-20" x="376.5625"/>
      <use xlink:href="#DejaVuSans-73" x="408.349609"/>
      <use xlink:href="#DejaVuSans-75" x="460.449219"/>
      <use xlink:href="#DejaVuSans-72" x="523.828125"/>
      <use xlink:href="#DejaVuSans-70" x="564.941406"/>
      <use xlink:href="#DejaVuSans-72" x="628.417969"/>
      <use xlink:href="#DejaVuSans-69" x="669.53125"/>
      <use xlink:href="#DejaVuSans-73" x="697.314453"/>
      <use xlink:href="#DejaVuSans-61" x="749.414062"/>
      <use xlink:href="#DejaVuSans-6c" x="810.693359"/>
      <use xlink:href="#DejaVuSans-20" x="838.476562"/>
      <use xlink:href="#DejaVuSans-2b" x="870.263672"/>
      <use xlink:href="#DejaVuSans-20" x="954.052734"/>
      <use xlink:href="#DejaVuSans-69" x="985.839844"/>
      <use xlink:href="#DejaVuSans-6e" x="1013.623047"/>
      <use xlink:href="#DejaVuSans-74" x="1077.001953"/>
      <use xlink:href="#DejaVuSans-65" x="1116.210938"/>
      <use xlink:href="#DejaVuSans-72" x="1177.734375"/>
      <use xlink:href="#DejaVuSans-61" x="1218.847656"/>
      <use xlink:href="#DejaVuSans-63" x="1280.126953"/>
      <use xlink:href="#DejaVuSans-74" x="1335.107422"/>
      <use xlink:href="#DejaVuSans-69" x="1374.316406"/>
      <use xlink:href="#DejaVuSans-6f" x="1402.099609"/>
      <use xlink:href="#DejaVuSans-6e" x="1463.28125"/>
     </g>
    </g>
   </g>
  </g>
 </g>
 <defs>
  <clipPath id="pcf9cf09418">
   <rect x="47.72" y="26.88" width="217.495" height="147.16"/>
  </clipPath>
  <clipPath id="p84b5b0c7c5">
   <rect x="298.065" y="26.88" width="217.495" height="147.16"/>
  </clipPath>
 </defs>
</svg>
