<?xml version="1.0" encoding="utf-8" standalone="no"?>
<!DOCTYPE svg PUBLIC "-//W3C//DTD SVG 1.1//EN"
  "http://www.w3.org/Graphics/SVG/1.1/DTD/svg11.dtd">
<svg xmlns:xlink="http://www.w3.org/1999/xlink" width="720pt" height="216pt" viewBox="0 0 720 216" xmlns="http://www.w3.org/2000/svg" version="1.1">
 <metadata>
  <rdf:RDF xmlns:dc="http://purl.org/dc/elements/1.1/" xmlns:cc="http://creativecommons.org/ns#" xmlns:rdf="http://www.w3.org/1999/02/22-rdf-syntax-ns#">
   <cc:Work>
    <dc:type rdf:resource="http://purl.org/dc/dcmitype/StillImage"/>
    <dc:date>2024-01-15T21:40:57.584335</dc:date>
    <dc:format>image/svg+xml</dc:format>
    <dc:creator>
     <cc:Agent>
      <dc:title>Matplotlib v3.5.1, https://matplotlib.org/</dc:title>
     </cc:Agent>
    </dc:creator>
   </cc:Work>
  </rdf:RDF>
 </metadata>
 <defs>
  <style type="text/css">*{stroke-linejoin: round; stroke-linecap: butt}</style>
 </defs>
 <g id="figure_1">
  <g id="patch_1">
   <path d="M 0 216 
L 720 216 
L 720 0 
L 0 0 
z
" style="fill: #ffffff"/>
  </g>
  <g id="axes_1">
   <g id="patch_2">
    <path d="M 47.72 174.04 
L 265.215 174.04 
L 265.215 26.88 
L 47.72 26.88 
z
" style="fill: #ffffff"/>
   </g>
   <g id="PolyCollection_1">
    <path d="M 47.72 33.569091 
L 47.72 33.569092 
L 59.167105 34.710616 
L 70.614211 38.099827 
L 82.061316 42.951117 
L 93.508421 48.961056 
L 104.955526 55.81091 
L 116.402632 62.889684 
L 127.849737 70.664439 
L 139.296842 78.267803 
L 150.743947 86.247075 
L 162.191053 93.521957 
L 173.638158 100.703365 
L 185.085263 107.864315 
L 196.532368 115.160021 
L 207.979474 121.387287 
L 219.426579 127.884074 
L 230.873684 133.64985 
L 242.320789 139.105157 
L 253.767895 143.59398 
L 265.215 148.820659 
L 265.215 136.01167 
L 265.215 136.01167 
L 253.767895 131.648501 
L 242.320789 126.620892 
L 230.873684 121.133499 
L 219.426579 115.54623 
L 207.979474 109.949442 
L 196.532368 103.730904 
L 185.085263 97.539272 
L 173.638158 91.467213 
L 162.191053 84.296048 
L 150.743947 77.230997 
L 139.296842 70.142557 
L 127.849737 63.150096 
L 116.402632 56.546019 
L 104.955526 50.263918 
L 93.508421 44.780102 
L 82.061316 40.216812 
L 70.614211 36.716825 
L 59.167105 34.382525 
L 47.72 33.569091 
z
" clip-path="url(#pfa14a571db)" style="fill: #1f77b4; fill-opacity: 0.4"/>
   </g>
   <g id="PolyCollection_2">
    <path d="M 47.72 33.569224 
L 47.72 33.569311 
L 59.167105 34.283425 
L 70.614211 36.143599 
L 82.061316 38.913939 
L 93.508421 42.475291 
L 104.955526 47.043897 
L 116.402632 52.16474 
L 127.849737 58.065725 
L 139.296842 64.104454 
L 150.743947 71.132653 
L 162.191053 77.556938 
L 173.638158 84.241565 
L 185.085263 90.71037 
L 196.532368 97.457914 
L 207.979474 103.706158 
L 219.426579 109.722183 
L 230.873684 115.249504 
L 242.320789 120.98967 
L 253.767895 125.705621 
L 265.215 131.385223 
L 265.215 122.070618 
L 265.215 122.070618 
L 253.767895 117.434569 
L 242.320789 111.928381 
L 230.873684 106.359575 
L 219.426579 100.542157 
L 207.979474 94.516938 
L 196.532368 88.39802 
L 185.085263 81.807389 
L 173.638158 75.689747 
L 162.191053 69.428158 
L 150.743947 63.453418 
L 139.296842 57.812142 
L 127.849737 52.477999 
L 116.402632 47.480574 
L 104.955526 43.234629 
L 93.508421 39.914633 
L 82.061316 37.302224 
L 70.614211 35.300691 
L 59.167105 34.116922 
L 47.72 33.569224 
z
" clip-path="url(#pfa14a571db)" style="fill: #ff7f0e; fill-opacity: 0.4"/>
   </g>
   <g id="PolyCollection_3">
    <path d="M 47.72 33.569101 
L 47.72 33.569105 
L 59.167105 34.444909 
L 70.614211 36.182482 
L 82.061316 38.733868 
L 93.508421 41.716924 
L 104.955526 45.078882 
L 116.402632 48.672327 
L 127.849737 52.927398 
L 139.296842 56.755141 
L 150.743947 60.916062 
L 162.191053 64.35378 
L 173.638158 68.200591 
L 185.085263 72.032606 
L 196.532368 75.385078 
L 207.979474 79.273813 
L 219.426579 82.990631 
L 230.873684 87.101402 
L 242.320789 90.72851 
L 253.767895 94.240007 
L 265.215 98.341089 
L 265.215 89.046515 
L 265.215 89.046515 
L 253.767895 85.622072 
L 242.320789 82.240881 
L 230.873684 78.609254 
L 219.426579 75.284323 
L 207.979474 71.517668 
L 196.532368 67.48745 
L 185.085263 63.637457 
L 173.638158 60.192958 
L 162.191053 56.537005 
L 150.743947 52.905066 
L 139.296842 49.716399 
L 127.849737 46.513158 
L 116.402632 43.71643 
L 104.955526 41.019731 
L 93.508421 38.518533 
L 82.061316 36.648037 
L 70.614211 35.250596 
L 59.167105 34.176515 
L 47.72 33.569101 
z
" clip-path="url(#pfa14a571db)" style="fill: #2ca02c; fill-opacity: 0.4"/>
   </g>
   <g id="PolyCollection_4">
    <path d="M 47.72 33.569811 
L 47.72 33.570327 
L 59.167105 34.238842 
L 70.614211 35.515375 
L 82.061316 37.409024 
L 93.508421 39.730637 
L 104.955526 42.4955 
L 116.402632 45.569773 
L 127.849737 49.417827 
L 139.296842 53.033811 
L 150.743947 57.316319 
L 162.191053 60.89223 
L 173.638158 64.930603 
L 185.085263 69.110565 
L 196.532368 72.753954 
L 207.979474 76.889552 
L 219.426579 80.90517 
L 230.873684 85.074683 
L 242.320789 88.806312 
L 253.767895 92.418054 
L 265.215 96.508656 
L 265.215 87.730778 
L 265.215 87.730778 
L 253.767895 84.290132 
L 242.320789 80.911397 
L 230.873684 77.167478 
L 219.426579 73.791706 
L 207.979474 70.016876 
L 196.532368 66.005415 
L 185.085263 61.986871 
L 173.638158 58.421853 
L 162.191053 54.753166 
L 150.743947 51.09977 
L 139.296842 47.864397 
L 127.849737 44.74059 
L 116.402632 41.939974 
L 104.955526 39.470983 
L 93.508421 37.412995 
L 82.061316 35.988173 
L 70.614211 34.850886 
L 59.167105 34.075072 
L 47.72 33.569811 
z
" clip-path="url(#pfa14a571db)" style="fill: #d62728; fill-opacity: 0.4"/>
   </g>
   <g id="PolyCollection_5">
    <path d="M 47.72 33.5691 
L 47.72 33.569105 
L 59.167105 34.712378 
L 70.614211 38.092124 
L 82.061316 43.023012 
L 93.508421 48.993889 
L 104.955526 55.861693 
L 116.402632 63.069895 
L 127.849737 70.727219 
L 139.296842 78.654704 
L 150.743947 86.791597 
L 162.191053 93.616602 
L 173.638158 100.91908 
L 185.085263 108.482698 
L 196.532368 115.495843 
L 207.979474 121.65309 
L 219.426579 128.303062 
L 230.873684 134.470107 
L 242.320789 139.892223 
L 253.767895 143.722016 
L 265.215 150.004009 
L 265.215 136.38648 
L 265.215 136.38648 
L 253.767895 131.807023 
L 242.320789 127.11849 
L 230.873684 121.449621 
L 219.426579 116.047643 
L 207.979474 109.836254 
L 196.532368 104.042221 
L 185.085263 97.626859 
L 173.638158 91.804367 
L 162.191053 84.526376 
L 150.743947 77.270391 
L 139.296842 70.016264 
L 127.849737 63.264217 
L 116.402632 56.667233 
L 104.955526 50.264992 
L 93.508421 44.778327 
L 82.061316 40.174747 
L 70.614211 36.720144 
L 59.167105 34.382119 
L 47.72 33.5691 
z
" clip-path="url(#pfa14a571db)" style="fill: #9467bd; fill-opacity: 0.4"/>
   </g>
   <g id="PolyCollection_6">
    <path d="M 47.72 33.569629 
L 47.72 33.569992 
L 59.167105 34.284477 
L 70.614211 36.152351 
L 82.061316 38.94125 
L 93.508421 42.504859 
L 104.955526 47.087315 
L 116.402632 52.397192 
L 127.849737 58.073891 
L 139.296842 64.280517 
L 150.743947 71.39385 
L 162.191053 77.779067 
L 173.638158 84.33421 
L 185.085263 90.901619 
L 196.532368 97.649613 
L 207.979474 103.769889 
L 219.426579 110.051879 
L 230.873684 115.770923 
L 242.320789 121.876845 
L 253.767895 125.595481 
L 265.215 132.277488 
L 265.215 122.273446 
L 265.215 122.273446 
L 253.767895 117.483669 
L 242.320789 111.806406 
L 230.873684 106.775948 
L 219.426579 100.887227 
L 207.979474 94.605784 
L 196.532368 88.405835 
L 185.085263 82.048716 
L 173.638158 75.824018 
L 162.191053 69.50589 
L 150.743947 63.496666 
L 139.296842 57.774342 
L 127.849737 52.495601 
L 116.402632 47.417327 
L 104.955526 43.257146 
L 93.508421 39.923118 
L 82.061316 37.288995 
L 70.614211 35.301385 
L 59.167105 34.117623 
L 47.72 33.569629 
z
" clip-path="url(#pfa14a571db)" style="fill: #8c564b; fill-opacity: 0.4"/>
   </g>
   <g id="PolyCollection_7">
    <path d="M 47.72 46.190585 
L 47.72 50.826658 
L 59.167105 52.367815 
L 70.614211 57.091598 
L 82.061316 63.598931 
L 93.508421 71.600269 
L 104.955526 79.830628 
L 116.402632 88.194939 
L 127.849737 96.989973 
L 139.296842 105.104246 
L 150.743947 113.178719 
L 162.191053 120.143532 
L 173.638158 127.022888 
L 185.085263 133.203292 
L 196.532368 139.322481 
L 207.979474 144.681291 
L 219.426579 150.249362 
L 230.873684 154.910062 
L 242.320789 159.235217 
L 253.767895 162.911325 
L 265.215 167.350909 
L 265.215 151.850366 
L 265.215 151.850366 
L 253.767895 148.064112 
L 242.320789 144.000031 
L 230.873684 139.393752 
L 219.426579 134.230253 
L 207.979474 128.974234 
L 196.532368 122.935682 
L 185.085263 116.500851 
L 173.638158 109.862416 
L 162.191053 102.218327 
L 150.743947 94.560973 
L 139.296842 87.022662 
L 127.849737 79.466352 
L 116.402632 72.193248 
L 104.955526 65.160583 
L 93.508421 58.875547 
L 82.061316 53.670368 
L 70.614211 49.667312 
L 59.167105 47.145575 
L 47.72 46.190585 
z
" clip-path="url(#pfa14a571db)" style="fill: #e377c2; fill-opacity: 0.4"/>
   </g>
   <g id="PolyCollection_8">
    <path d="M 47.72 33.569393 
L 47.72 33.56962 
L 59.167105 33.867126 
L 70.614211 34.223776 
L 82.061316 35.289763 
L 93.508421 37.755817 
L 104.955526 41.14976 
L 116.402632 45.647013 
L 127.849737 50.96533 
L 139.296842 56.484998 
L 150.743947 62.840552 
L 162.191053 68.982668 
L 173.638158 75.636713 
L 185.085263 81.984659 
L 196.532368 88.271232 
L 207.979474 94.484227 
L 219.426579 99.925574 
L 230.873684 105.334755 
L 242.320789 110.973804 
L 253.767895 115.661862 
L 265.215 121.779342 
L 265.215 108.996243 
L 265.215 108.996243 
L 253.767895 103.43615 
L 242.320789 97.064051 
L 230.873684 90.989242 
L 219.426579 84.444448 
L 207.979474 77.672886 
L 196.532368 71.399769 
L 185.085263 65.097103 
L 173.638158 59.284518 
L 162.191053 53.811574 
L 150.743947 48.669654 
L 139.296842 44.319955 
L 127.849737 40.238167 
L 116.402632 37.126492 
L 104.955526 35.295748 
L 93.508421 34.277755 
L 82.061316 34.040897 
L 70.614211 33.871917 
L 59.167105 33.820196 
L 47.72 33.569393 
z
" clip-path="url(#pfa14a571db)" style="fill: #7f7f7f; fill-opacity: 0.4"/>
   </g>
   <g id="matplotlib.axis_1">
    <g id="xtick_1">
     <g id="line2d_1">
      <defs>
       <path id="ma98e0c591f" d="M 0 0 
L 0 3.5 
" style="stroke: #000000; stroke-width: 0.8"/>
      </defs>
      <g>
       <use xlink:href="#ma98e0c591f" x="47.72" y="174.04" style="stroke: #000000; stroke-width: 0.8"/>
      </g>
     </g>
     <g id="text_1">
      <!-- 0.0 -->
      <g transform="translate(39.768438 188.638438)scale(0.1 -0.1)">
       <defs>
        <path id="DejaVuSans-30" d="M 2034 4250 
Q 1547 4250 1301 3770 
Q 1056 3291 1056 2328 
Q 1056 1369 1301 889 
Q 1547 409 2034 409 
Q 2525 409 2770 889 
Q 3016 1369 3016 2328 
Q 3016 3291 2770 3770 
Q 2525 4250 2034 4250 
z
M 2034 4750 
Q 2819 4750 3233 4129 
Q 3647 3509 3647 2328 
Q 3647 1150 3233 529 
Q 2819 -91 2034 -91 
Q 1250 -91 836 529 
Q 422 1150 422 2328 
Q 422 3509 836 4129 
Q 1250 4750 2034 4750 
z
" transform="scale(0.015625)"/>
        <path id="DejaVuSans-2e" d="M 684 794 
L 1344 794 
L 1344 0 
L 684 0 
L 684 794 
z
" transform="scale(0.015625)"/>
       </defs>
       <use xlink:href="#DejaVuSans-30"/>
       <use xlink:href="#DejaVuSans-2e" x="63.623047"/>
       <use xlink:href="#DejaVuSans-30" x="95.410156"/>
      </g>
     </g>
    </g>
    <g id="xtick_2">
     <g id="line2d_2">
      <g>
       <use xlink:href="#ma98e0c591f" x="102.09375" y="174.04" style="stroke: #000000; stroke-width: 0.8"/>
      </g>
     </g>
     <g id="text_2">
      <!-- 0.5 -->
      <g transform="translate(94.142188 188.638438)scale(0.1 -0.1)">
       <defs>
        <path id="DejaVuSans-35" d="M 691 4666 
L 3169 4666 
L 3169 4134 
L 1269 4134 
L 1269 2991 
Q 1406 3038 1543 3061 
Q 1681 3084 1819 3084 
Q 2600 3084 3056 2656 
Q 3513 2228 3513 1497 
Q 3513 744 3044 326 
Q 2575 -91 1722 -91 
Q 1428 -91 1123 -41 
Q 819 9 494 109 
L 494 744 
Q 775 591 1075 516 
Q 1375 441 1709 441 
Q 2250 441 2565 725 
Q 2881 1009 2881 1497 
Q 2881 1984 2565 2268 
Q 2250 2553 1709 2553 
Q 1456 2553 1204 2497 
Q 953 2441 691 2322 
L 691 4666 
z
" transform="scale(0.015625)"/>
       </defs>
       <use xlink:href="#DejaVuSans-30"/>
       <use xlink:href="#DejaVuSans-2e" x="63.623047"/>
       <use xlink:href="#DejaVuSans-35" x="95.410156"/>
      </g>
     </g>
    </g>
    <g id="xtick_3">
     <g id="line2d_3">
      <g>
       <use xlink:href="#ma98e0c591f" x="156.4675" y="174.04" style="stroke: #000000; stroke-width: 0.8"/>
      </g>
     </g>
     <g id="text_3">
      <!-- 1.0 -->
      <g transform="translate(148.515938 188.638438)scale(0.1 -0.1)">
       <defs>
        <path id="DejaVuSans-31" d="M 794 531 
L 1825 531 
L 1825 4091 
L 703 3866 
L 703 4441 
L 1819 4666 
L 2450 4666 
L 2450 531 
L 3481 531 
L 3481 0 
L 794 0 
L 794 531 
z
" transform="scale(0.015625)"/>
       </defs>
       <use xlink:href="#DejaVuSans-31"/>
       <use xlink:href="#DejaVuSans-2e" x="63.623047"/>
       <use xlink:href="#DejaVuSans-30" x="95.410156"/>
      </g>
     </g>
    </g>
    <g id="xtick_4">
     <g id="line2d_4">
      <g>
       <use xlink:href="#ma98e0c591f" x="210.84125" y="174.04" style="stroke: #000000; stroke-width: 0.8"/>
      </g>
     </g>
     <g id="text_4">
      <!-- 1.5 -->
      <g transform="translate(202.889687 188.638438)scale(0.1 -0.1)">
       <use xlink:href="#DejaVuSans-31"/>
       <use xlink:href="#DejaVuSans-2e" x="63.623047"/>
       <use xlink:href="#DejaVuSans-35" x="95.410156"/>
      </g>
     </g>
    </g>
    <g id="xtick_5">
     <g id="line2d_5">
      <g>
       <use xlink:href="#ma98e0c591f" x="265.215" y="174.04" style="stroke: #000000; stroke-width: 0.8"/>
      </g>
     </g>
     <g id="text_5">
      <!-- 2.0 -->
      <g transform="translate(257.263437 188.638438)scale(0.1 -0.1)">
       <defs>
        <path id="DejaVuSans-32" d="M 1228 531 
L 3431 531 
L 3431 0 
L 469 0 
L 469 531 
Q 828 903 1448 1529 
Q 2069 2156 2228 2338 
Q 2531 2678 2651 2914 
Q 2772 3150 2772 3378 
Q 2772 3750 2511 3984 
Q 2250 4219 1831 4219 
Q 1534 4219 1204 4116 
Q 875 4013 500 3803 
L 500 4441 
Q 881 4594 1212 4672 
Q 1544 4750 1819 4750 
Q 2544 4750 2975 4387 
Q 3406 4025 3406 3419 
Q 3406 3131 3298 2873 
Q 3191 2616 2906 2266 
Q 2828 2175 2409 1742 
Q 1991 1309 1228 531 
z
" transform="scale(0.015625)"/>
       </defs>
       <use xlink:href="#DejaVuSans-32"/>
       <use xlink:href="#DejaVuSans-2e" x="63.623047"/>
       <use xlink:href="#DejaVuSans-30" x="95.410156"/>
      </g>
     </g>
    </g>
    <g id="text_6">
     <!-- Influence of surprisal (multiplication) -->
     <g transform="translate(64.320625 202.316563)scale(0.1 -0.1)">
      <defs>
       <path id="DejaVuSans-49" d="M 628 4666 
L 1259 4666 
L 1259 0 
L 628 0 
L 628 4666 
z
" transform="scale(0.015625)"/>
       <path id="DejaVuSans-6e" d="M 3513 2113 
L 3513 0 
L 2938 0 
L 2938 2094 
Q 2938 2591 2744 2837 
Q 2550 3084 2163 3084 
Q 1697 3084 1428 2787 
Q 1159 2491 1159 1978 
L 1159 0 
L 581 0 
L 581 3500 
L 1159 3500 
L 1159 2956 
Q 1366 3272 1645 3428 
Q 1925 3584 2291 3584 
Q 2894 3584 3203 3211 
Q 3513 2838 3513 2113 
z
" transform="scale(0.015625)"/>
       <path id="DejaVuSans-66" d="M 2375 4863 
L 2375 4384 
L 1825 4384 
Q 1516 4384 1395 4259 
Q 1275 4134 1275 3809 
L 1275 3500 
L 2222 3500 
L 2222 3053 
L 1275 3053 
L 1275 0 
L 697 0 
L 697 3053 
L 147 3053 
L 147 3500 
L 697 3500 
L 697 3744 
Q 697 4328 969 4595 
Q 1241 4863 1831 4863 
L 2375 4863 
z
" transform="scale(0.015625)"/>
       <path id="DejaVuSans-6c" d="M 603 4863 
L 1178 4863 
L 1178 0 
L 603 0 
L 603 4863 
z
" transform="scale(0.015625)"/>
       <path id="DejaVuSans-75" d="M 544 1381 
L 544 3500 
L 1119 3500 
L 1119 1403 
Q 1119 906 1312 657 
Q 1506 409 1894 409 
Q 2359 409 2629 706 
Q 2900 1003 2900 1516 
L 2900 3500 
L 3475 3500 
L 3475 0 
L 2900 0 
L 2900 538 
Q 2691 219 2414 64 
Q 2138 -91 1772 -91 
Q 1169 -91 856 284 
Q 544 659 544 1381 
z
M 1991 3584 
L 1991 3584 
z
" transform="scale(0.015625)"/>
       <path id="DejaVuSans-65" d="M 3597 1894 
L 3597 1613 
L 953 1613 
Q 991 1019 1311 708 
Q 1631 397 2203 397 
Q 2534 397 2845 478 
Q 3156 559 3463 722 
L 3463 178 
Q 3153 47 2828 -22 
Q 2503 -91 2169 -91 
Q 1331 -91 842 396 
Q 353 884 353 1716 
Q 353 2575 817 3079 
Q 1281 3584 2069 3584 
Q 2775 3584 3186 3129 
Q 3597 2675 3597 1894 
z
M 3022 2063 
Q 3016 2534 2758 2815 
Q 2500 3097 2075 3097 
Q 1594 3097 1305 2825 
Q 1016 2553 972 2059 
L 3022 2063 
z
" transform="scale(0.015625)"/>
       <path id="DejaVuSans-63" d="M 3122 3366 
L 3122 2828 
Q 2878 2963 2633 3030 
Q 2388 3097 2138 3097 
Q 1578 3097 1268 2742 
Q 959 2388 959 1747 
Q 959 1106 1268 751 
Q 1578 397 2138 397 
Q 2388 397 2633 464 
Q 2878 531 3122 666 
L 3122 134 
Q 2881 22 2623 -34 
Q 2366 -91 2075 -91 
Q 1284 -91 818 406 
Q 353 903 353 1747 
Q 353 2603 823 3093 
Q 1294 3584 2113 3584 
Q 2378 3584 2631 3529 
Q 2884 3475 3122 3366 
z
" transform="scale(0.015625)"/>
       <path id="DejaVuSans-20" transform="scale(0.015625)"/>
       <path id="DejaVuSans-6f" d="M 1959 3097 
Q 1497 3097 1228 2736 
Q 959 2375 959 1747 
Q 959 1119 1226 758 
Q 1494 397 1959 397 
Q 2419 397 2687 759 
Q 2956 1122 2956 1747 
Q 2956 2369 2687 2733 
Q 2419 3097 1959 3097 
z
M 1959 3584 
Q 2709 3584 3137 3096 
Q 3566 2609 3566 1747 
Q 3566 888 3137 398 
Q 2709 -91 1959 -91 
Q 1206 -91 779 398 
Q 353 888 353 1747 
Q 353 2609 779 3096 
Q 1206 3584 1959 3584 
z
" transform="scale(0.015625)"/>
       <path id="DejaVuSans-73" d="M 2834 3397 
L 2834 2853 
Q 2591 2978 2328 3040 
Q 2066 3103 1784 3103 
Q 1356 3103 1142 2972 
Q 928 2841 928 2578 
Q 928 2378 1081 2264 
Q 1234 2150 1697 2047 
L 1894 2003 
Q 2506 1872 2764 1633 
Q 3022 1394 3022 966 
Q 3022 478 2636 193 
Q 2250 -91 1575 -91 
Q 1294 -91 989 -36 
Q 684 19 347 128 
L 347 722 
Q 666 556 975 473 
Q 1284 391 1588 391 
Q 1994 391 2212 530 
Q 2431 669 2431 922 
Q 2431 1156 2273 1281 
Q 2116 1406 1581 1522 
L 1381 1569 
Q 847 1681 609 1914 
Q 372 2147 372 2553 
Q 372 3047 722 3315 
Q 1072 3584 1716 3584 
Q 2034 3584 2315 3537 
Q 2597 3491 2834 3397 
z
" transform="scale(0.015625)"/>
       <path id="DejaVuSans-72" d="M 2631 2963 
Q 2534 3019 2420 3045 
Q 2306 3072 2169 3072 
Q 1681 3072 1420 2755 
Q 1159 2438 1159 1844 
L 1159 0 
L 581 0 
L 581 3500 
L 1159 3500 
L 1159 2956 
Q 1341 3275 1631 3429 
Q 1922 3584 2338 3584 
Q 2397 3584 2469 3576 
Q 2541 3569 2628 3553 
L 2631 2963 
z
" transform="scale(0.015625)"/>
       <path id="DejaVuSans-70" d="M 1159 525 
L 1159 -1331 
L 581 -1331 
L 581 3500 
L 1159 3500 
L 1159 2969 
Q 1341 3281 1617 3432 
Q 1894 3584 2278 3584 
Q 2916 3584 3314 3078 
Q 3713 2572 3713 1747 
Q 3713 922 3314 415 
Q 2916 -91 2278 -91 
Q 1894 -91 1617 61 
Q 1341 213 1159 525 
z
M 3116 1747 
Q 3116 2381 2855 2742 
Q 2594 3103 2138 3103 
Q 1681 3103 1420 2742 
Q 1159 2381 1159 1747 
Q 1159 1113 1420 752 
Q 1681 391 2138 391 
Q 2594 391 2855 752 
Q 3116 1113 3116 1747 
z
" transform="scale(0.015625)"/>
       <path id="DejaVuSans-69" d="M 603 3500 
L 1178 3500 
L 1178 0 
L 603 0 
L 603 3500 
z
M 603 4863 
L 1178 4863 
L 1178 4134 
L 603 4134 
L 603 4863 
z
" transform="scale(0.015625)"/>
       <path id="DejaVuSans-61" d="M 2194 1759 
Q 1497 1759 1228 1600 
Q 959 1441 959 1056 
Q 959 750 1161 570 
Q 1363 391 1709 391 
Q 2188 391 2477 730 
Q 2766 1069 2766 1631 
L 2766 1759 
L 2194 1759 
z
M 3341 1997 
L 3341 0 
L 2766 0 
L 2766 531 
Q 2569 213 2275 61 
Q 1981 -91 1556 -91 
Q 1019 -91 701 211 
Q 384 513 384 1019 
Q 384 1609 779 1909 
Q 1175 2209 1959 2209 
L 2766 2209 
L 2766 2266 
Q 2766 2663 2505 2880 
Q 2244 3097 1772 3097 
Q 1472 3097 1187 3025 
Q 903 2953 641 2809 
L 641 3341 
Q 956 3463 1253 3523 
Q 1550 3584 1831 3584 
Q 2591 3584 2966 3190 
Q 3341 2797 3341 1997 
z
" transform="scale(0.015625)"/>
       <path id="DejaVuSans-28" d="M 1984 4856 
Q 1566 4138 1362 3434 
Q 1159 2731 1159 2009 
Q 1159 1288 1364 580 
Q 1569 -128 1984 -844 
L 1484 -844 
Q 1016 -109 783 600 
Q 550 1309 550 2009 
Q 550 2706 781 3412 
Q 1013 4119 1484 4856 
L 1984 4856 
z
" transform="scale(0.015625)"/>
       <path id="DejaVuSans-6d" d="M 3328 2828 
Q 3544 3216 3844 3400 
Q 4144 3584 4550 3584 
Q 5097 3584 5394 3201 
Q 5691 2819 5691 2113 
L 5691 0 
L 5113 0 
L 5113 2094 
Q 5113 2597 4934 2840 
Q 4756 3084 4391 3084 
Q 3944 3084 3684 2787 
Q 3425 2491 3425 1978 
L 3425 0 
L 2847 0 
L 2847 2094 
Q 2847 2600 2669 2842 
Q 2491 3084 2119 3084 
Q 1678 3084 1418 2786 
Q 1159 2488 1159 1978 
L 1159 0 
L 581 0 
L 581 3500 
L 1159 3500 
L 1159 2956 
Q 1356 3278 1631 3431 
Q 1906 3584 2284 3584 
Q 2666 3584 2933 3390 
Q 3200 3197 3328 2828 
z
" transform="scale(0.015625)"/>
       <path id="DejaVuSans-74" d="M 1172 4494 
L 1172 3500 
L 2356 3500 
L 2356 3053 
L 1172 3053 
L 1172 1153 
Q 1172 725 1289 603 
Q 1406 481 1766 481 
L 2356 481 
L 2356 0 
L 1766 0 
Q 1100 0 847 248 
Q 594 497 594 1153 
L 594 3053 
L 172 3053 
L 172 3500 
L 594 3500 
L 594 4494 
L 1172 4494 
z
" transform="scale(0.015625)"/>
       <path id="DejaVuSans-29" d="M 513 4856 
L 1013 4856 
Q 1481 4119 1714 3412 
Q 1947 2706 1947 2009 
Q 1947 1309 1714 600 
Q 1481 -109 1013 -844 
L 513 -844 
Q 928 -128 1133 580 
Q 1338 1288 1338 2009 
Q 1338 2731 1133 3434 
Q 928 4138 513 4856 
z
" transform="scale(0.015625)"/>
      </defs>
      <use xlink:href="#DejaVuSans-49"/>
      <use xlink:href="#DejaVuSans-6e" x="29.492188"/>
      <use xlink:href="#DejaVuSans-66" x="92.871094"/>
      <use xlink:href="#DejaVuSans-6c" x="128.076172"/>
      <use xlink:href="#DejaVuSans-75" x="155.859375"/>
      <use xlink:href="#DejaVuSans-65" x="219.238281"/>
      <use xlink:href="#DejaVuSans-6e" x="280.761719"/>
      <use xlink:href="#DejaVuSans-63" x="344.140625"/>
      <use xlink:href="#DejaVuSans-65" x="399.121094"/>
      <use xlink:href="#DejaVuSans-20" x="460.644531"/>
      <use xlink:href="#DejaVuSans-6f" x="492.431641"/>
      <use xlink:href="#DejaVuSans-66" x="553.613281"/>
      <use xlink:href="#DejaVuSans-20" x="588.818359"/>
      <use xlink:href="#DejaVuSans-73" x="620.605469"/>
      <use xlink:href="#DejaVuSans-75" x="672.705078"/>
      <use xlink:href="#DejaVuSans-72" x="736.083984"/>
      <use xlink:href="#DejaVuSans-70" x="777.197266"/>
      <use xlink:href="#DejaVuSans-72" x="840.673828"/>
      <use xlink:href="#DejaVuSans-69" x="881.787109"/>
      <use xlink:href="#DejaVuSans-73" x="909.570312"/>
      <use xlink:href="#DejaVuSans-61" x="961.669922"/>
      <use xlink:href="#DejaVuSans-6c" x="1022.949219"/>
      <use xlink:href="#DejaVuSans-20" x="1050.732422"/>
      <use xlink:href="#DejaVuSans-28" x="1082.519531"/>
      <use xlink:href="#DejaVuSans-6d" x="1121.533203"/>
      <use xlink:href="#DejaVuSans-75" x="1218.945312"/>
      <use xlink:href="#DejaVuSans-6c" x="1282.324219"/>
      <use xlink:href="#DejaVuSans-74" x="1310.107422"/>
      <use xlink:href="#DejaVuSans-69" x="1349.316406"/>
      <use xlink:href="#DejaVuSans-70" x="1377.099609"/>
      <use xlink:href="#DejaVuSans-6c" x="1440.576172"/>
      <use xlink:href="#DejaVuSans-69" x="1468.359375"/>
      <use xlink:href="#DejaVuSans-63" x="1496.142578"/>
      <use xlink:href="#DejaVuSans-61" x="1551.123047"/>
      <use xlink:href="#DejaVuSans-74" x="1612.402344"/>
      <use xlink:href="#DejaVuSans-69" x="1651.611328"/>
      <use xlink:href="#DejaVuSans-6f" x="1679.394531"/>
      <use xlink:href="#DejaVuSans-6e" x="1740.576172"/>
      <use xlink:href="#DejaVuSans-29" x="1803.955078"/>
     </g>
    </g>
   </g>
   <g id="matplotlib.axis_2">
    <g id="ytick_1">
     <g id="line2d_6">
      <defs>
       <path id="m65af493db4" d="M 0 0 
L -3.5 0 
" style="stroke: #000000; stroke-width: 0.8"/>
      </defs>
      <g>
       <use xlink:href="#m65af493db4" x="47.72" y="142.864212" style="stroke: #000000; stroke-width: 0.8"/>
      </g>
     </g>
     <g id="text_7">
      <!-- 0.4 -->
      <g transform="translate(24.816875 146.663431)scale(0.1 -0.1)">
       <defs>
        <path id="DejaVuSans-34" d="M 2419 4116 
L 825 1625 
L 2419 1625 
L 2419 4116 
z
M 2253 4666 
L 3047 4666 
L 3047 1625 
L 3713 1625 
L 3713 1100 
L 3047 1100 
L 3047 0 
L 2419 0 
L 2419 1100 
L 313 1100 
L 313 1709 
L 2253 4666 
z
" transform="scale(0.015625)"/>
       </defs>
       <use xlink:href="#DejaVuSans-30"/>
       <use xlink:href="#DejaVuSans-2e" x="63.623047"/>
       <use xlink:href="#DejaVuSans-34" x="95.410156"/>
      </g>
     </g>
    </g>
    <g id="ytick_2">
     <g id="line2d_7">
      <g>
       <use xlink:href="#m65af493db4" x="47.72" y="106.432504" style="stroke: #000000; stroke-width: 0.8"/>
      </g>
     </g>
     <g id="text_8">
      <!-- 0.6 -->
      <g transform="translate(24.816875 110.231723)scale(0.1 -0.1)">
       <defs>
        <path id="DejaVuSans-36" d="M 2113 2584 
Q 1688 2584 1439 2293 
Q 1191 2003 1191 1497 
Q 1191 994 1439 701 
Q 1688 409 2113 409 
Q 2538 409 2786 701 
Q 3034 994 3034 1497 
Q 3034 2003 2786 2293 
Q 2538 2584 2113 2584 
z
M 3366 4563 
L 3366 3988 
Q 3128 4100 2886 4159 
Q 2644 4219 2406 4219 
Q 1781 4219 1451 3797 
Q 1122 3375 1075 2522 
Q 1259 2794 1537 2939 
Q 1816 3084 2150 3084 
Q 2853 3084 3261 2657 
Q 3669 2231 3669 1497 
Q 3669 778 3244 343 
Q 2819 -91 2113 -91 
Q 1303 -91 875 529 
Q 447 1150 447 2328 
Q 447 3434 972 4092 
Q 1497 4750 2381 4750 
Q 2619 4750 2861 4703 
Q 3103 4656 3366 4563 
z
" transform="scale(0.015625)"/>
       </defs>
       <use xlink:href="#DejaVuSans-30"/>
       <use xlink:href="#DejaVuSans-2e" x="63.623047"/>
       <use xlink:href="#DejaVuSans-36" x="95.410156"/>
      </g>
     </g>
    </g>
    <g id="ytick_3">
     <g id="line2d_8">
      <g>
       <use xlink:href="#m65af493db4" x="47.72" y="70.000796" style="stroke: #000000; stroke-width: 0.8"/>
      </g>
     </g>
     <g id="text_9">
      <!-- 0.8 -->
      <g transform="translate(24.816875 73.800015)scale(0.1 -0.1)">
       <defs>
        <path id="DejaVuSans-38" d="M 2034 2216 
Q 1584 2216 1326 1975 
Q 1069 1734 1069 1313 
Q 1069 891 1326 650 
Q 1584 409 2034 409 
Q 2484 409 2743 651 
Q 3003 894 3003 1313 
Q 3003 1734 2745 1975 
Q 2488 2216 2034 2216 
z
M 1403 2484 
Q 997 2584 770 2862 
Q 544 3141 544 3541 
Q 544 4100 942 4425 
Q 1341 4750 2034 4750 
Q 2731 4750 3128 4425 
Q 3525 4100 3525 3541 
Q 3525 3141 3298 2862 
Q 3072 2584 2669 2484 
Q 3125 2378 3379 2068 
Q 3634 1759 3634 1313 
Q 3634 634 3220 271 
Q 2806 -91 2034 -91 
Q 1263 -91 848 271 
Q 434 634 434 1313 
Q 434 1759 690 2068 
Q 947 2378 1403 2484 
z
M 1172 3481 
Q 1172 3119 1398 2916 
Q 1625 2713 2034 2713 
Q 2441 2713 2670 2916 
Q 2900 3119 2900 3481 
Q 2900 3844 2670 4047 
Q 2441 4250 2034 4250 
Q 1625 4250 1398 4047 
Q 1172 3844 1172 3481 
z
" transform="scale(0.015625)"/>
       </defs>
       <use xlink:href="#DejaVuSans-30"/>
       <use xlink:href="#DejaVuSans-2e" x="63.623047"/>
       <use xlink:href="#DejaVuSans-38" x="95.410156"/>
      </g>
     </g>
    </g>
    <g id="ytick_4">
     <g id="line2d_9">
      <g>
       <use xlink:href="#m65af493db4" x="47.72" y="33.569088" style="stroke: #000000; stroke-width: 0.8"/>
      </g>
     </g>
     <g id="text_10">
      <!-- 1.0 -->
      <g transform="translate(24.816875 37.368306)scale(0.1 -0.1)">
       <use xlink:href="#DejaVuSans-31"/>
       <use xlink:href="#DejaVuSans-2e" x="63.623047"/>
       <use xlink:href="#DejaVuSans-30" x="95.410156"/>
      </g>
     </g>
    </g>
    <g id="text_11">
     <!-- R-value -->
     <g transform="translate(18.737188 119.064687)rotate(-90)scale(0.1 -0.1)">
      <defs>
       <path id="DejaVuSans-52" d="M 2841 2188 
Q 3044 2119 3236 1894 
Q 3428 1669 3622 1275 
L 4263 0 
L 3584 0 
L 2988 1197 
Q 2756 1666 2539 1819 
Q 2322 1972 1947 1972 
L 1259 1972 
L 1259 0 
L 628 0 
L 628 4666 
L 2053 4666 
Q 2853 4666 3247 4331 
Q 3641 3997 3641 3322 
Q 3641 2881 3436 2590 
Q 3231 2300 2841 2188 
z
M 1259 4147 
L 1259 2491 
L 2053 2491 
Q 2509 2491 2742 2702 
Q 2975 2913 2975 3322 
Q 2975 3731 2742 3939 
Q 2509 4147 2053 4147 
L 1259 4147 
z
" transform="scale(0.015625)"/>
       <path id="DejaVuSans-2d" d="M 313 2009 
L 1997 2009 
L 1997 1497 
L 313 1497 
L 313 2009 
z
" transform="scale(0.015625)"/>
       <path id="DejaVuSans-76" d="M 191 3500 
L 800 3500 
L 1894 563 
L 2988 3500 
L 3597 3500 
L 2284 0 
L 1503 0 
L 191 3500 
z
" transform="scale(0.015625)"/>
      </defs>
      <use xlink:href="#DejaVuSans-52"/>
      <use xlink:href="#DejaVuSans-2d" x="65.482422"/>
      <use xlink:href="#DejaVuSans-76" x="98.941406"/>
      <use xlink:href="#DejaVuSans-61" x="158.121094"/>
      <use xlink:href="#DejaVuSans-6c" x="219.400391"/>
      <use xlink:href="#DejaVuSans-75" x="247.183594"/>
      <use xlink:href="#DejaVuSans-65" x="310.5625"/>
     </g>
    </g>
   </g>
   <g id="line2d_10">
    <path d="M 47.72 33.569091 
L 59.167105 34.54657 
L 70.614211 37.408326 
L 82.061316 41.583965 
L 93.508421 46.870579 
L 104.955526 53.037414 
L 116.402632 59.717851 
L 127.849737 66.907268 
L 139.296842 74.20518 
L 150.743947 81.739036 
L 162.191053 88.909002 
L 173.638158 96.085289 
L 185.085263 102.701794 
L 196.532368 109.445462 
L 207.979474 115.668365 
L 219.426579 121.715152 
L 230.873684 127.391674 
L 242.320789 132.863024 
L 253.767895 137.621241 
L 265.215 142.416165 
" clip-path="url(#pfa14a571db)" style="fill: none; stroke: #1f77b4; stroke-width: 1.5; stroke-linecap: square"/>
   </g>
   <g id="line2d_11">
    <path d="M 47.72 33.569267 
L 59.167105 34.200173 
L 70.614211 35.722145 
L 82.061316 38.108082 
L 93.508421 41.194962 
L 104.955526 45.139263 
L 116.402632 49.822657 
L 127.849737 55.271862 
L 139.296842 60.958298 
L 150.743947 67.293035 
L 162.191053 73.492548 
L 173.638158 79.965656 
L 185.085263 86.258879 
L 196.532368 92.927967 
L 207.979474 99.111548 
L 219.426579 105.13217 
L 230.873684 110.804539 
L 242.320789 116.459025 
L 253.767895 121.570095 
L 265.215 126.72792 
" clip-path="url(#pfa14a571db)" style="fill: none; stroke: #ff7f0e; stroke-width: 1.5; stroke-linecap: square"/>
   </g>
   <g id="line2d_12">
    <path d="M 47.72 33.569103 
L 59.167105 34.310712 
L 70.614211 35.716539 
L 82.061316 37.690953 
L 93.508421 40.117728 
L 104.955526 43.049306 
L 116.402632 46.194378 
L 127.849737 49.720278 
L 139.296842 53.23577 
L 150.743947 56.910564 
L 162.191053 60.445392 
L 173.638158 64.196774 
L 185.085263 67.835032 
L 196.532368 71.436264 
L 207.979474 75.395741 
L 219.426579 79.137477 
L 230.873684 82.855328 
L 242.320789 86.484695 
L 253.767895 89.931039 
L 265.215 93.693802 
" clip-path="url(#pfa14a571db)" style="fill: none; stroke: #2ca02c; stroke-width: 1.5; stroke-linecap: square"/>
   </g>
   <g id="line2d_13">
    <path d="M 47.72 33.570069 
L 59.167105 34.156957 
L 70.614211 35.183131 
L 82.061316 36.698599 
L 93.508421 38.571816 
L 104.955526 40.983241 
L 116.402632 43.754873 
L 127.849737 47.079208 
L 139.296842 50.449104 
L 150.743947 54.208044 
L 162.191053 57.822698 
L 173.638158 61.676228 
L 185.085263 65.548718 
L 196.532368 69.379684 
L 207.979474 73.453214 
L 219.426579 77.348438 
L 230.873684 81.12108 
L 242.320789 84.858855 
L 253.767895 88.354093 
L 265.215 92.119717 
" clip-path="url(#pfa14a571db)" style="fill: none; stroke: #d62728; stroke-width: 1.5; stroke-linecap: square"/>
   </g>
   <g id="line2d_14">
    <path d="M 47.72 33.569103 
L 59.167105 34.547248 
L 70.614211 37.406134 
L 82.061316 41.598879 
L 93.508421 46.886108 
L 104.955526 53.063343 
L 116.402632 59.868564 
L 127.849737 66.995718 
L 139.296842 74.335484 
L 150.743947 82.030994 
L 162.191053 89.071489 
L 173.638158 96.361724 
L 185.085263 103.054779 
L 196.532368 109.769032 
L 207.979474 115.744672 
L 219.426579 122.175353 
L 230.873684 127.959864 
L 242.320789 133.505356 
L 253.767895 137.764519 
L 265.215 143.195244 
" clip-path="url(#pfa14a571db)" style="fill: none; stroke: #9467bd; stroke-width: 1.5; stroke-linecap: square"/>
   </g>
   <g id="line2d_15">
    <path d="M 47.72 33.56981 
L 59.167105 34.20105 
L 70.614211 35.726868 
L 82.061316 38.115123 
L 93.508421 41.213988 
L 104.955526 45.17223 
L 116.402632 49.907259 
L 127.849737 55.284746 
L 139.296842 61.027429 
L 150.743947 67.445258 
L 162.191053 73.642478 
L 173.638158 80.079114 
L 185.085263 86.475167 
L 196.532368 93.027724 
L 207.979474 99.187837 
L 219.426579 105.469553 
L 230.873684 111.273435 
L 242.320789 116.841626 
L 253.767895 121.539575 
L 265.215 127.275467 
" clip-path="url(#pfa14a571db)" style="fill: none; stroke: #8c564b; stroke-width: 1.5; stroke-linecap: square"/>
   </g>
   <g id="line2d_16">
    <path d="M 47.72 48.508621 
L 59.167105 49.756695 
L 70.614211 53.379455 
L 82.061316 58.634649 
L 93.508421 65.237908 
L 104.955526 72.495606 
L 116.402632 80.194094 
L 127.849737 88.228162 
L 139.296842 96.063454 
L 150.743947 103.869846 
L 162.191053 111.180929 
L 173.638158 118.442652 
L 185.085263 124.852072 
L 196.532368 131.129081 
L 207.979474 136.827763 
L 219.426579 142.239808 
L 230.873684 147.151907 
L 242.320789 151.617624 
L 253.767895 155.487718 
L 265.215 159.600637 
" clip-path="url(#pfa14a571db)" style="fill: none; stroke: #e377c2; stroke-width: 1.5; stroke-linecap: square"/>
   </g>
   <g id="line2d_17">
    <path d="M 47.72 33.569507 
L 59.167105 33.843661 
L 70.614211 34.047847 
L 82.061316 34.66533 
L 93.508421 36.016786 
L 104.955526 38.222754 
L 116.402632 41.386753 
L 127.849737 45.601748 
L 139.296842 50.402477 
L 150.743947 55.755103 
L 162.191053 61.397121 
L 173.638158 67.460616 
L 185.085263 73.540881 
L 196.532368 79.8355 
L 207.979474 86.078556 
L 219.426579 92.185011 
L 230.873684 98.161998 
L 242.320789 104.018928 
L 253.767895 109.549006 
L 265.215 115.387792 
" clip-path="url(#pfa14a571db)" style="fill: none; stroke: #7f7f7f; stroke-width: 1.5; stroke-linecap: square"/>
   </g>
   <g id="patch_3">
    <path d="M 47.72 174.04 
L 47.72 26.88 
" style="fill: none; stroke: #000000; stroke-width: 0.8; stroke-linejoin: miter; stroke-linecap: square"/>
   </g>
   <g id="patch_4">
    <path d="M 47.72 174.04 
L 265.215 174.04 
" style="fill: none; stroke: #000000; stroke-width: 0.8; stroke-linejoin: miter; stroke-linecap: square"/>
   </g>
   <g id="text_12">
    <!-- Node * surprisal -->
    <g transform="translate(108.18625 20.88)scale(0.12 -0.12)">
     <defs>
      <path id="DejaVuSans-4e" d="M 628 4666 
L 1478 4666 
L 3547 763 
L 3547 4666 
L 4159 4666 
L 4159 0 
L 3309 0 
L 1241 3903 
L 1241 0 
L 628 0 
L 628 4666 
z
" transform="scale(0.015625)"/>
      <path id="DejaVuSans-64" d="M 2906 2969 
L 2906 4863 
L 3481 4863 
L 3481 0 
L 2906 0 
L 2906 525 
Q 2725 213 2448 61 
Q 2172 -91 1784 -91 
Q 1150 -91 751 415 
Q 353 922 353 1747 
Q 353 2572 751 3078 
Q 1150 3584 1784 3584 
Q 2172 3584 2448 3432 
Q 2725 3281 2906 2969 
z
M 947 1747 
Q 947 1113 1208 752 
Q 1469 391 1925 391 
Q 2381 391 2643 752 
Q 2906 1113 2906 1747 
Q 2906 2381 2643 2742 
Q 2381 3103 1925 3103 
Q 1469 3103 1208 2742 
Q 947 2381 947 1747 
z
" transform="scale(0.015625)"/>
      <path id="DejaVuSans-2a" d="M 3009 3897 
L 1888 3291 
L 3009 2681 
L 2828 2375 
L 1778 3009 
L 1778 1831 
L 1422 1831 
L 1422 3009 
L 372 2375 
L 191 2681 
L 1313 3291 
L 191 3897 
L 372 4206 
L 1422 3572 
L 1422 4750 
L 1778 4750 
L 1778 3572 
L 2828 4206 
L 3009 3897 
z
" transform="scale(0.015625)"/>
     </defs>
     <use xlink:href="#DejaVuSans-4e"/>
     <use xlink:href="#DejaVuSans-6f" x="74.804688"/>
     <use xlink:href="#DejaVuSans-64" x="135.986328"/>
     <use xlink:href="#DejaVuSans-65" x="199.462891"/>
     <use xlink:href="#DejaVuSans-20" x="260.986328"/>
     <use xlink:href="#DejaVuSans-2a" x="292.773438"/>
     <use xlink:href="#DejaVuSans-20" x="342.773438"/>
     <use xlink:href="#DejaVuSans-73" x="374.560547"/>
     <use xlink:href="#DejaVuSans-75" x="426.660156"/>
     <use xlink:href="#DejaVuSans-72" x="490.039062"/>
     <use xlink:href="#DejaVuSans-70" x="531.152344"/>
     <use xlink:href="#DejaVuSans-72" x="594.628906"/>
     <use xlink:href="#DejaVuSans-69" x="635.742188"/>
     <use xlink:href="#DejaVuSans-73" x="663.525391"/>
     <use xlink:href="#DejaVuSans-61" x="715.625"/>
     <use xlink:href="#DejaVuSans-6c" x="776.904297"/>
    </g>
   </g>
  </g>
  <g id="axes_2">
   <g id="patch_5">
    <path d="M 298.065 174.04 
L 515.56 174.04 
L 515.56 26.88 
L 298.065 26.88 
z
" style="fill: #ffffff"/>
   </g>
   <g id="PolyCollection_9">
    <path d="M 298.065 33.569091 
L 298.065 33.569092 
L 309.512105 34.711338 
L 320.959211 37.794343 
L 332.406316 42.163999 
L 343.853421 48.341404 
L 355.300526 55.342583 
L 366.747632 63.201262 
L 378.194737 71.246765 
L 389.641842 79.576184 
L 401.088947 87.60039 
L 412.536053 95.848063 
L 423.983158 104.060738 
L 435.430263 111.547084 
L 446.877368 119.1485 
L 458.324474 125.60845 
L 469.771579 131.8518 
L 481.218684 138.032337 
L 492.665789 143.736406 
L 504.112895 148.976975 
L 515.56 154.026231 
L 515.56 137.536364 
L 515.56 137.536364 
L 504.112895 132.756261 
L 492.665789 128.23178 
L 481.218684 122.83266 
L 469.771579 116.987552 
L 458.324474 111.143992 
L 446.877368 105.026311 
L 435.430263 98.512151 
L 423.983158 91.130771 
L 412.536053 84.036458 
L 401.088947 77.338661 
L 389.641842 69.514005 
L 378.194737 62.62477 
L 366.747632 55.941902 
L 355.300526 49.793874 
L 343.853421 44.424061 
L 332.406316 40.078456 
L 320.959211 36.5977 
L 309.512105 34.296084 
L 298.065 33.569091 
z
" clip-path="url(#p9f19070df0)" style="fill: #1f77b4; fill-opacity: 0.4"/>
   </g>
   <g id="PolyCollection_10">
    <path d="M 298.065 33.569224 
L 298.065 33.569311 
L 309.512105 34.711713 
L 320.959211 37.795904 
L 332.406316 42.162145 
L 343.853421 48.34246 
L 355.300526 55.352914 
L 366.747632 63.211578 
L 378.194737 71.278256 
L 389.641842 79.63963 
L 401.088947 87.698493 
L 412.536053 95.998185 
L 423.983158 104.251682 
L 435.430263 111.860444 
L 446.877368 119.559041 
L 458.324474 126.076798 
L 469.771579 132.412952 
L 481.218684 138.644436 
L 492.665789 144.442828 
L 504.112895 149.787204 
L 515.56 154.924342 
L 515.56 138.034235 
L 515.56 138.034235 
L 504.112895 133.239054 
L 492.665789 128.645986 
L 481.218684 123.187027 
L 469.771579 117.298581 
L 458.324474 111.421416 
L 446.877368 105.253566 
L 435.430263 98.692851 
L 423.983158 91.286222 
L 412.536053 84.138162 
L 401.088947 77.38364 
L 389.641842 69.567187 
L 378.194737 62.638961 
L 366.747632 55.942721 
L 355.300526 49.797813 
L 343.853421 44.418344 
L 332.406316 40.077309 
L 320.959211 36.594955 
L 309.512105 34.296615 
L 298.065 33.569224 
z
" clip-path="url(#p9f19070df0)" style="fill: #ff7f0e; fill-opacity: 0.4"/>
   </g>
   <g id="PolyCollection_11">
    <path d="M 298.065 33.569101 
L 298.065 33.569105 
L 309.512105 34.71434 
L 320.959211 37.82332 
L 332.406316 42.207459 
L 343.853421 48.418458 
L 355.300526 55.436365 
L 366.747632 63.332906 
L 378.194737 71.394029 
L 389.641842 79.728899 
L 401.088947 87.804612 
L 412.536053 96.057291 
L 423.983158 104.376303 
L 435.430263 111.963117 
L 446.877368 119.698931 
L 458.324474 126.273418 
L 469.771579 132.646762 
L 481.218684 138.782189 
L 492.665789 144.675584 
L 504.112895 149.868062 
L 515.56 154.913551 
L 515.56 137.932001 
L 515.56 137.932001 
L 504.112895 133.213508 
L 492.665789 128.58108 
L 481.218684 123.228484 
L 469.771579 117.376776 
L 458.324474 111.463882 
L 446.877368 105.385846 
L 435.430263 98.800773 
L 423.983158 91.336419 
L 412.536053 84.249507 
L 401.088947 77.483227 
L 389.641842 69.647763 
L 378.194737 62.711189 
L 366.747632 56.02024 
L 355.300526 49.860585 
L 343.853421 44.460224 
L 332.406316 40.106543 
L 320.959211 36.611471 
L 309.512105 34.300927 
L 298.065 33.569101 
z
" clip-path="url(#p9f19070df0)" style="fill: #2ca02c; fill-opacity: 0.4"/>
   </g>
   <g id="PolyCollection_12">
    <path d="M 298.065 33.569811 
L 298.065 33.570327 
L 309.512105 34.714981 
L 320.959211 37.826875 
L 332.406316 42.207383 
L 343.853421 48.427186 
L 355.300526 55.437352 
L 366.747632 63.325472 
L 378.194737 71.377097 
L 389.641842 79.717941 
L 401.088947 87.802523 
L 412.536053 96.060906 
L 423.983158 104.36249 
L 435.430263 111.97181 
L 446.877368 119.736979 
L 458.324474 126.264897 
L 469.771579 132.689006 
L 481.218684 138.771345 
L 492.665789 144.688379 
L 504.112895 149.871464 
L 515.56 154.90536 
L 515.56 138.74862 
L 515.56 138.74862 
L 504.112895 133.928847 
L 492.665789 129.17967 
L 481.218684 123.76323 
L 469.771579 117.79593 
L 458.324474 111.838583 
L 446.877368 105.719541 
L 435.430263 99.074525 
L 423.983158 91.558758 
L 412.536053 84.407665 
L 401.088947 77.58987 
L 389.641842 69.752864 
L 378.194737 62.765598 
L 366.747632 56.044126 
L 355.300526 49.88122 
L 343.853421 44.461375 
L 332.406316 40.10659 
L 320.959211 36.610128 
L 309.512105 34.301926 
L 298.065 33.569811 
z
" clip-path="url(#p9f19070df0)" style="fill: #d62728; fill-opacity: 0.4"/>
   </g>
   <g id="PolyCollection_13">
    <path d="M 298.065 33.569101 
L 298.065 33.569105 
L 309.512105 34.713607 
L 320.959211 37.793948 
L 332.406316 42.156181 
L 343.853421 48.366584 
L 355.300526 55.574697 
L 366.747632 63.126482 
L 378.194737 71.178436 
L 389.641842 79.650996 
L 401.088947 87.50173 
L 412.536053 95.874218 
L 423.983158 104.256038 
L 435.430263 111.623796 
L 446.877368 119.091739 
L 458.324474 125.580905 
L 469.771579 132.232676 
L 481.218684 137.993082 
L 492.665789 144.237415 
L 504.112895 148.938731 
L 515.56 155.487313 
L 515.56 137.748694 
L 515.56 137.748694 
L 504.112895 132.732719 
L 492.665789 128.678826 
L 481.218684 123.010421 
L 469.771579 116.790217 
L 458.324474 111.430663 
L 446.877368 104.980056 
L 435.430263 99.035838 
L 423.983158 91.435224 
L 412.536053 84.349404 
L 401.088947 77.377508 
L 389.641842 69.830817 
L 378.194737 62.844288 
L 366.747632 55.965342 
L 355.300526 49.937988 
L 343.853421 44.45549 
L 332.406316 40.061394 
L 320.959211 36.603521 
L 309.512105 34.294093 
L 298.065 33.569101 
z
" clip-path="url(#p9f19070df0)" style="fill: #9467bd; fill-opacity: 0.4"/>
   </g>
   <g id="PolyCollection_14">
    <path d="M 298.065 33.56963 
L 298.065 33.569981 
L 309.512105 34.714164 
L 320.959211 37.795944 
L 332.406316 42.153629 
L 343.853421 48.366914 
L 355.300526 55.582074 
L 366.747632 63.137532 
L 378.194737 71.200643 
L 389.641842 79.701925 
L 401.088947 87.610489 
L 412.536053 96.010323 
L 423.983158 104.445126 
L 435.430263 111.927111 
L 446.877368 119.490879 
L 458.324474 126.009933 
L 469.771579 132.783598 
L 481.218684 138.580225 
L 492.665789 144.961956 
L 504.112895 149.748118 
L 515.56 156.334782 
L 515.56 138.292038 
L 515.56 138.292038 
L 504.112895 133.243281 
L 492.665789 129.12355 
L 481.218684 123.34869 
L 469.771579 117.070837 
L 458.324474 111.744115 
L 446.877368 105.220795 
L 435.430263 99.236367 
L 423.983158 91.595995 
L 412.536053 84.457678 
L 401.088947 77.433814 
L 389.641842 69.891407 
L 378.194737 62.863969 
L 366.747632 55.968009 
L 355.300526 49.942796 
L 343.853421 44.450067 
L 332.406316 40.05966 
L 320.959211 36.60144 
L 309.512105 34.295292 
L 298.065 33.56963 
z
" clip-path="url(#p9f19070df0)" style="fill: #8c564b; fill-opacity: 0.4"/>
   </g>
   <g id="PolyCollection_15">
    <path d="M 298.065 46.190585 
L 298.065 50.826658 
L 309.512105 51.617899 
L 320.959211 53.905297 
L 332.406316 57.590521 
L 343.853421 62.627586 
L 355.300526 69.060854 
L 366.747632 75.864032 
L 378.194737 83.16391 
L 389.641842 90.719163 
L 401.088947 98.026021 
L 412.536053 105.08285 
L 423.983158 112.607473 
L 435.430263 119.078242 
L 446.877368 125.929354 
L 458.324474 131.718962 
L 469.771579 137.277156 
L 481.218684 142.701227 
L 492.665789 147.594439 
L 504.112895 152.501565 
L 515.56 156.95987 
L 515.56 142.140148 
L 515.56 142.140148 
L 504.112895 137.7615 
L 492.665789 133.372172 
L 481.218684 128.540884 
L 469.771579 123.264392 
L 458.324474 117.970261 
L 446.877368 112.244144 
L 435.430263 106.618292 
L 423.983158 100.23332 
L 412.536053 93.660403 
L 401.088947 87.437889 
L 389.641842 80.909143 
L 378.194737 74.632079 
L 366.747632 68.65346 
L 355.300526 62.970134 
L 343.853421 57.788269 
L 332.406316 53.165984 
L 320.959211 49.717314 
L 309.512105 47.086572 
L 298.065 46.190585 
z
" clip-path="url(#p9f19070df0)" style="fill: #e377c2; fill-opacity: 0.4"/>
   </g>
   <g id="PolyCollection_16">
    <path d="M 298.065 33.569393 
L 298.065 33.56962 
L 309.512105 34.719576 
L 320.959211 37.811708 
L 332.406316 42.195034 
L 343.853421 48.385541 
L 355.300526 55.42705 
L 366.747632 63.298669 
L 378.194737 71.3617 
L 389.641842 79.729481 
L 401.088947 87.764063 
L 412.536053 96.023844 
L 423.983158 104.271666 
L 435.430263 111.818262 
L 446.877368 119.499029 
L 458.324474 125.970629 
L 469.771579 132.307618 
L 481.218684 138.434685 
L 492.665789 144.283653 
L 504.112895 149.557893 
L 515.56 154.715679 
L 515.56 138.31742 
L 515.56 138.31742 
L 504.112895 133.556 
L 492.665789 128.790138 
L 481.218684 123.351589 
L 469.771579 117.456982 
L 458.324474 111.539704 
L 446.877368 105.418758 
L 435.430263 98.834782 
L 423.983158 91.397678 
L 412.536053 84.245228 
L 401.088947 77.444991 
L 389.641842 69.616223 
L 378.194737 62.687895 
L 366.747632 55.964321 
L 355.300526 49.813923 
L 343.853421 44.426226 
L 332.406316 40.083447 
L 320.959211 36.60597 
L 309.512105 34.299589 
L 298.065 33.569393 
z
" clip-path="url(#p9f19070df0)" style="fill: #7f7f7f; fill-opacity: 0.4"/>
   </g>
   <g id="matplotlib.axis_3">
    <g id="xtick_6">
     <g id="line2d_18">
      <g>
       <use xlink:href="#ma98e0c591f" x="298.065" y="174.04" style="stroke: #000000; stroke-width: 0.8"/>
      </g>
     </g>
     <g id="text_13">
      <!-- 0.0 -->
      <g transform="translate(290.113437 188.638438)scale(0.1 -0.1)">
       <use xlink:href="#DejaVuSans-30"/>
       <use xlink:href="#DejaVuSans-2e" x="63.623047"/>
       <use xlink:href="#DejaVuSans-30" x="95.410156"/>
      </g>
     </g>
    </g>
    <g id="xtick_7">
     <g id="line2d_19">
      <g>
       <use xlink:href="#ma98e0c591f" x="352.43875" y="174.04" style="stroke: #000000; stroke-width: 0.8"/>
      </g>
     </g>
     <g id="text_14">
      <!-- 0.5 -->
      <g transform="translate(344.487187 188.638438)scale(0.1 -0.1)">
       <use xlink:href="#DejaVuSans-30"/>
       <use xlink:href="#DejaVuSans-2e" x="63.623047"/>
       <use xlink:href="#DejaVuSans-35" x="95.410156"/>
      </g>
     </g>
    </g>
    <g id="xtick_8">
     <g id="line2d_20">
      <g>
       <use xlink:href="#ma98e0c591f" x="406.8125" y="174.04" style="stroke: #000000; stroke-width: 0.8"/>
      </g>
     </g>
     <g id="text_15">
      <!-- 1.0 -->
      <g transform="translate(398.860937 188.638438)scale(0.1 -0.1)">
       <use xlink:href="#DejaVuSans-31"/>
       <use xlink:href="#DejaVuSans-2e" x="63.623047"/>
       <use xlink:href="#DejaVuSans-30" x="95.410156"/>
      </g>
     </g>
    </g>
    <g id="xtick_9">
     <g id="line2d_21">
      <g>
       <use xlink:href="#ma98e0c591f" x="461.18625" y="174.04" style="stroke: #000000; stroke-width: 0.8"/>
      </g>
     </g>
     <g id="text_16">
      <!-- 1.5 -->
      <g transform="translate(453.234687 188.638438)scale(0.1 -0.1)">
       <use xlink:href="#DejaVuSans-31"/>
       <use xlink:href="#DejaVuSans-2e" x="63.623047"/>
       <use xlink:href="#DejaVuSans-35" x="95.410156"/>
      </g>
     </g>
    </g>
    <g id="xtick_10">
     <g id="line2d_22">
      <g>
       <use xlink:href="#ma98e0c591f" x="515.56" y="174.04" style="stroke: #000000; stroke-width: 0.8"/>
      </g>
     </g>
     <g id="text_17">
      <!-- 2.0 -->
      <g transform="translate(507.608437 188.638438)scale(0.1 -0.1)">
       <use xlink:href="#DejaVuSans-32"/>
       <use xlink:href="#DejaVuSans-2e" x="63.623047"/>
       <use xlink:href="#DejaVuSans-30" x="95.410156"/>
      </g>
     </g>
    </g>
    <g id="text_18">
     <!-- Influence of surprisal (multiplication) -->
     <g transform="translate(314.665625 202.316563)scale(0.1 -0.1)">
      <use xlink:href="#DejaVuSans-49"/>
      <use xlink:href="#DejaVuSans-6e" x="29.492188"/>
      <use xlink:href="#DejaVuSans-66" x="92.871094"/>
      <use xlink:href="#DejaVuSans-6c" x="128.076172"/>
      <use xlink:href="#DejaVuSans-75" x="155.859375"/>
      <use xlink:href="#DejaVuSans-65" x="219.238281"/>
      <use xlink:href="#DejaVuSans-6e" x="280.761719"/>
      <use xlink:href="#DejaVuSans-63" x="344.140625"/>
      <use xlink:href="#DejaVuSans-65" x="399.121094"/>
      <use xlink:href="#DejaVuSans-20" x="460.644531"/>
      <use xlink:href="#DejaVuSans-6f" x="492.431641"/>
      <use xlink:href="#DejaVuSans-66" x="553.613281"/>
      <use xlink:href="#DejaVuSans-20" x="588.818359"/>
      <use xlink:href="#DejaVuSans-73" x="620.605469"/>
      <use xlink:href="#DejaVuSans-75" x="672.705078"/>
      <use xlink:href="#DejaVuSans-72" x="736.083984"/>
      <use xlink:href="#DejaVuSans-70" x="777.197266"/>
      <use xlink:href="#DejaVuSans-72" x="840.673828"/>
      <use xlink:href="#DejaVuSans-69" x="881.787109"/>
      <use xlink:href="#DejaVuSans-73" x="909.570312"/>
      <use xlink:href="#DejaVuSans-61" x="961.669922"/>
      <use xlink:href="#DejaVuSans-6c" x="1022.949219"/>
      <use xlink:href="#DejaVuSans-20" x="1050.732422"/>
      <use xlink:href="#DejaVuSans-28" x="1082.519531"/>
      <use xlink:href="#DejaVuSans-6d" x="1121.533203"/>
      <use xlink:href="#DejaVuSans-75" x="1218.945312"/>
      <use xlink:href="#DejaVuSans-6c" x="1282.324219"/>
      <use xlink:href="#DejaVuSans-74" x="1310.107422"/>
      <use xlink:href="#DejaVuSans-69" x="1349.316406"/>
      <use xlink:href="#DejaVuSans-70" x="1377.099609"/>
      <use xlink:href="#DejaVuSans-6c" x="1440.576172"/>
      <use xlink:href="#DejaVuSans-69" x="1468.359375"/>
      <use xlink:href="#DejaVuSans-63" x="1496.142578"/>
      <use xlink:href="#DejaVuSans-61" x="1551.123047"/>
      <use xlink:href="#DejaVuSans-74" x="1612.402344"/>
      <use xlink:href="#DejaVuSans-69" x="1651.611328"/>
      <use xlink:href="#DejaVuSans-6f" x="1679.394531"/>
      <use xlink:href="#DejaVuSans-6e" x="1740.576172"/>
      <use xlink:href="#DejaVuSans-29" x="1803.955078"/>
     </g>
    </g>
   </g>
   <g id="line2d_23">
    <path d="M 298.065 33.569091 
L 309.512105 34.503711 
L 320.959211 37.196021 
L 332.406316 41.121228 
L 343.853421 46.382733 
L 355.300526 52.568229 
L 366.747632 59.571582 
L 378.194737 66.935768 
L 389.641842 74.545095 
L 401.088947 82.469526 
L 412.536053 89.942261 
L 423.983158 97.595754 
L 435.430263 105.029618 
L 446.877368 112.087405 
L 458.324474 118.376221 
L 469.771579 124.419676 
L 481.218684 130.432498 
L 492.665789 135.984093 
L 504.112895 140.866618 
L 515.56 145.781297 
" clip-path="url(#p9f19070df0)" style="fill: none; stroke: #1f77b4; stroke-width: 1.5; stroke-linecap: square"/>
   </g>
   <g id="line2d_24">
    <path d="M 298.065 33.569267 
L 309.512105 34.504164 
L 320.959211 37.195429 
L 332.406316 41.119727 
L 343.853421 46.380402 
L 355.300526 52.575363 
L 366.747632 59.577149 
L 378.194737 66.958608 
L 389.641842 74.603409 
L 401.088947 82.541066 
L 412.536053 90.068174 
L 423.983158 97.768952 
L 435.430263 105.276647 
L 446.877368 112.406304 
L 458.324474 118.749107 
L 469.771579 124.855766 
L 481.218684 130.915731 
L 492.665789 136.544407 
L 504.112895 141.513129 
L 515.56 146.479288 
" clip-path="url(#p9f19070df0)" style="fill: none; stroke: #ff7f0e; stroke-width: 1.5; stroke-linecap: square"/>
   </g>
   <g id="line2d_25">
    <path d="M 298.065 33.569103 
L 309.512105 34.507634 
L 320.959211 37.217395 
L 332.406316 41.157001 
L 343.853421 46.439341 
L 355.300526 52.648475 
L 366.747632 59.676573 
L 378.194737 67.052609 
L 389.641842 74.688331 
L 401.088947 82.64392 
L 412.536053 90.153399 
L 423.983158 97.856361 
L 435.430263 105.381945 
L 446.877368 112.542389 
L 458.324474 118.86865 
L 469.771579 125.011769 
L 481.218684 131.005336 
L 492.665789 136.628332 
L 504.112895 141.540785 
L 515.56 146.422776 
" clip-path="url(#p9f19070df0)" style="fill: none; stroke: #2ca02c; stroke-width: 1.5; stroke-linecap: square"/>
   </g>
   <g id="line2d_26">
    <path d="M 298.065 33.570069 
L 309.512105 34.508453 
L 320.959211 37.218502 
L 332.406316 41.156987 
L 343.853421 46.44428 
L 355.300526 52.659286 
L 366.747632 59.684799 
L 378.194737 67.071348 
L 389.641842 74.735403 
L 401.088947 82.696197 
L 412.536053 90.234286 
L 423.983158 97.960624 
L 435.430263 105.523168 
L 446.877368 112.72826 
L 458.324474 119.05174 
L 469.771579 125.242468 
L 481.218684 131.267287 
L 492.665789 136.934025 
L 504.112895 141.900156 
L 515.56 146.82699 
" clip-path="url(#p9f19070df0)" style="fill: none; stroke: #d62728; stroke-width: 1.5; stroke-linecap: square"/>
   </g>
   <g id="line2d_27">
    <path d="M 298.065 33.569103 
L 309.512105 34.50385 
L 320.959211 37.198734 
L 332.406316 41.108788 
L 343.853421 46.411037 
L 355.300526 52.756342 
L 366.747632 59.545912 
L 378.194737 67.011362 
L 389.641842 74.740907 
L 401.088947 82.439619 
L 412.536053 90.111811 
L 423.983158 97.845631 
L 435.430263 105.329817 
L 446.877368 112.035898 
L 458.324474 118.505784 
L 469.771579 124.511447 
L 481.218684 130.501752 
L 492.665789 136.458121 
L 504.112895 140.835725 
L 515.56 146.618003 
" clip-path="url(#p9f19070df0)" style="fill: none; stroke: #9467bd; stroke-width: 1.5; stroke-linecap: square"/>
   </g>
   <g id="line2d_28">
    <path d="M 298.065 33.569806 
L 309.512105 34.504728 
L 320.959211 37.198692 
L 332.406316 41.106645 
L 343.853421 46.40849 
L 355.300526 52.762435 
L 366.747632 59.55277 
L 378.194737 67.032306 
L 389.641842 74.796666 
L 401.088947 82.522151 
L 412.536053 90.234001 
L 423.983158 98.02056 
L 435.430263 105.581739 
L 446.877368 112.355837 
L 458.324474 118.877024 
L 469.771579 124.927218 
L 481.218684 130.964457 
L 492.665789 137.042753 
L 504.112895 141.4957 
L 515.56 147.31341 
" clip-path="url(#p9f19070df0)" style="fill: none; stroke: #8c564b; stroke-width: 1.5; stroke-linecap: square"/>
   </g>
   <g id="line2d_29">
    <path d="M 298.065 48.508621 
L 309.512105 49.352235 
L 320.959211 51.811305 
L 332.406316 55.378253 
L 343.853421 60.207927 
L 355.300526 66.015494 
L 366.747632 72.258746 
L 378.194737 78.897995 
L 389.641842 85.814153 
L 401.088947 92.731955 
L 412.536053 99.371626 
L 423.983158 106.420397 
L 435.430263 112.848267 
L 446.877368 119.086749 
L 458.324474 124.844611 
L 469.771579 130.270774 
L 481.218684 135.621055 
L 492.665789 140.483306 
L 504.112895 145.131532 
L 515.56 149.550009 
" clip-path="url(#p9f19070df0)" style="fill: none; stroke: #e377c2; stroke-width: 1.5; stroke-linecap: square"/>
   </g>
   <g id="line2d_30">
    <path d="M 298.065 33.569507 
L 309.512105 34.509583 
L 320.959211 37.208839 
L 332.406316 41.139241 
L 343.853421 46.405883 
L 355.300526 52.620487 
L 366.747632 59.631495 
L 378.194737 67.024798 
L 389.641842 74.672852 
L 401.088947 82.604527 
L 412.536053 90.134536 
L 423.983158 97.834672 
L 435.430263 105.326522 
L 446.877368 112.458893 
L 458.324474 118.755167 
L 469.771579 124.8823 
L 481.218684 130.893137 
L 492.665789 136.536895 
L 504.112895 141.556947 
L 515.56 146.51655 
" clip-path="url(#p9f19070df0)" style="fill: none; stroke: #7f7f7f; stroke-width: 1.5; stroke-linecap: square"/>
   </g>
   <g id="patch_6">
    <path d="M 298.065 174.04 
L 298.065 26.88 
" style="fill: none; stroke: #000000; stroke-width: 0.8; stroke-linejoin: miter; stroke-linecap: square"/>
   </g>
   <g id="patch_7">
    <path d="M 298.065 174.04 
L 515.56 174.04 
" style="fill: none; stroke: #000000; stroke-width: 0.8; stroke-linejoin: miter; stroke-linecap: square"/>
   </g>
   <g id="text_19">
    <!-- Node * third variable -->
    <g transform="translate(344.2325 20.88)scale(0.12 -0.12)">
     <defs>
      <path id="DejaVuSans-68" d="M 3513 2113 
L 3513 0 
L 2938 0 
L 2938 2094 
Q 2938 2591 2744 2837 
Q 2550 3084 2163 3084 
Q 1697 3084 1428 2787 
Q 1159 2491 1159 1978 
L 1159 0 
L 581 0 
L 581 4863 
L 1159 4863 
L 1159 2956 
Q 1366 3272 1645 3428 
Q 1925 3584 2291 3584 
Q 2894 3584 3203 3211 
Q 3513 2838 3513 2113 
z
" transform="scale(0.015625)"/>
      <path id="DejaVuSans-62" d="M 3116 1747 
Q 3116 2381 2855 2742 
Q 2594 3103 2138 3103 
Q 1681 3103 1420 2742 
Q 1159 2381 1159 1747 
Q 1159 1113 1420 752 
Q 1681 391 2138 391 
Q 2594 391 2855 752 
Q 3116 1113 3116 1747 
z
M 1159 2969 
Q 1341 3281 1617 3432 
Q 1894 3584 2278 3584 
Q 2916 3584 3314 3078 
Q 3713 2572 3713 1747 
Q 3713 922 3314 415 
Q 2916 -91 2278 -91 
Q 1894 -91 1617 61 
Q 1341 213 1159 525 
L 1159 0 
L 581 0 
L 581 4863 
L 1159 4863 
L 1159 2969 
z
" transform="scale(0.015625)"/>
     </defs>
     <use xlink:href="#DejaVuSans-4e"/>
     <use xlink:href="#DejaVuSans-6f" x="74.804688"/>
     <use xlink:href="#DejaVuSans-64" x="135.986328"/>
     <use xlink:href="#DejaVuSans-65" x="199.462891"/>
     <use xlink:href="#DejaVuSans-20" x="260.986328"/>
     <use xlink:href="#DejaVuSans-2a" x="292.773438"/>
     <use xlink:href="#DejaVuSans-20" x="342.773438"/>
     <use xlink:href="#DejaVuSans-74" x="374.560547"/>
     <use xlink:href="#DejaVuSans-68" x="413.769531"/>
     <use xlink:href="#DejaVuSans-69" x="477.148438"/>
     <use xlink:href="#DejaVuSans-72" x="504.931641"/>
     <use xlink:href="#DejaVuSans-64" x="544.294922"/>
     <use xlink:href="#DejaVuSans-20" x="607.771484"/>
     <use xlink:href="#DejaVuSans-76" x="639.558594"/>
     <use xlink:href="#DejaVuSans-61" x="698.738281"/>
     <use xlink:href="#DejaVuSans-72" x="760.017578"/>
     <use xlink:href="#DejaVuSans-69" x="801.130859"/>
     <use xlink:href="#DejaVuSans-61" x="828.914062"/>
     <use xlink:href="#DejaVuSans-62" x="890.193359"/>
     <use xlink:href="#DejaVuSans-6c" x="953.669922"/>
     <use xlink:href="#DejaVuSans-65" x="981.453125"/>
    </g>
   </g>
   <g id="legend_1">
    <g id="line2d_31">
     <path d="M 524.56 39.978437 
L 534.56 39.978437 
L 544.56 39.978437 
" style="fill: none; stroke: #1f77b4; stroke-width: 1.5; stroke-linecap: square"/>
    </g>
    <g id="text_20">
     <!-- Node -->
     <g transform="translate(552.56 43.478437)scale(0.1 -0.1)">
      <use xlink:href="#DejaVuSans-4e"/>
      <use xlink:href="#DejaVuSans-6f" x="74.804688"/>
      <use xlink:href="#DejaVuSans-64" x="135.986328"/>
      <use xlink:href="#DejaVuSans-65" x="199.462891"/>
     </g>
    </g>
    <g id="line2d_32">
     <path d="M 524.56 54.656563 
L 534.56 54.656563 
L 544.56 54.656563 
" style="fill: none; stroke: #ff7f0e; stroke-width: 1.5; stroke-linecap: square"/>
    </g>
    <g id="text_21">
     <!-- Node + surprisal -->
     <g transform="translate(552.56 58.156563)scale(0.1 -0.1)">
      <defs>
       <path id="DejaVuSans-2b" d="M 2944 4013 
L 2944 2272 
L 4684 2272 
L 4684 1741 
L 2944 1741 
L 2944 0 
L 2419 0 
L 2419 1741 
L 678 1741 
L 678 2272 
L 2419 2272 
L 2419 4013 
L 2944 4013 
z
" transform="scale(0.015625)"/>
      </defs>
      <use xlink:href="#DejaVuSans-4e"/>
      <use xlink:href="#DejaVuSans-6f" x="74.804688"/>
      <use xlink:href="#DejaVuSans-64" x="135.986328"/>
      <use xlink:href="#DejaVuSans-65" x="199.462891"/>
      <use xlink:href="#DejaVuSans-20" x="260.986328"/>
      <use xlink:href="#DejaVuSans-2b" x="292.773438"/>
      <use xlink:href="#DejaVuSans-20" x="376.5625"/>
      <use xlink:href="#DejaVuSans-73" x="408.349609"/>
      <use xlink:href="#DejaVuSans-75" x="460.449219"/>
      <use xlink:href="#DejaVuSans-72" x="523.828125"/>
      <use xlink:href="#DejaVuSans-70" x="564.941406"/>
      <use xlink:href="#DejaVuSans-72" x="628.417969"/>
      <use xlink:href="#DejaVuSans-69" x="669.53125"/>
      <use xlink:href="#DejaVuSans-73" x="697.314453"/>
      <use xlink:href="#DejaVuSans-61" x="749.414062"/>
      <use xlink:href="#DejaVuSans-6c" x="810.693359"/>
     </g>
    </g>
    <g id="line2d_33">
     <path d="M 524.56 69.334687 
L 534.56 69.334687 
L 544.56 69.334687 
" style="fill: none; stroke: #2ca02c; stroke-width: 1.5; stroke-linecap: square"/>
    </g>
    <g id="text_22">
     <!-- Node split -->
     <g transform="translate(552.56 72.834687)scale(0.1 -0.1)">
      <use xlink:href="#DejaVuSans-4e"/>
      <use xlink:href="#DejaVuSans-6f" x="74.804688"/>
      <use xlink:href="#DejaVuSans-64" x="135.986328"/>
      <use xlink:href="#DejaVuSans-65" x="199.462891"/>
      <use xlink:href="#DejaVuSans-20" x="260.986328"/>
      <use xlink:href="#DejaVuSans-73" x="292.773438"/>
      <use xlink:href="#DejaVuSans-70" x="344.873047"/>
      <use xlink:href="#DejaVuSans-6c" x="408.349609"/>
      <use xlink:href="#DejaVuSans-69" x="436.132812"/>
      <use xlink:href="#DejaVuSans-74" x="463.916016"/>
     </g>
    </g>
    <g id="line2d_34">
     <path d="M 524.56 84.012812 
L 534.56 84.012812 
L 544.56 84.012812 
" style="fill: none; stroke: #d62728; stroke-width: 1.5; stroke-linecap: square"/>
    </g>
    <g id="text_23">
     <!-- Node split + surprisal -->
     <g transform="translate(552.56 87.512812)scale(0.1 -0.1)">
      <use xlink:href="#DejaVuSans-4e"/>
      <use xlink:href="#DejaVuSans-6f" x="74.804688"/>
      <use xlink:href="#DejaVuSans-64" x="135.986328"/>
      <use xlink:href="#DejaVuSans-65" x="199.462891"/>
      <use xlink:href="#DejaVuSans-20" x="260.986328"/>
      <use xlink:href="#DejaVuSans-73" x="292.773438"/>
      <use xlink:href="#DejaVuSans-70" x="344.873047"/>
      <use xlink:href="#DejaVuSans-6c" x="408.349609"/>
      <use xlink:href="#DejaVuSans-69" x="436.132812"/>
      <use xlink:href="#DejaVuSans-74" x="463.916016"/>
      <use xlink:href="#DejaVuSans-20" x="503.125"/>
      <use xlink:href="#DejaVuSans-2b" x="534.912109"/>
      <use xlink:href="#DejaVuSans-20" x="618.701172"/>
      <use xlink:href="#DejaVuSans-73" x="650.488281"/>
      <use xlink:href="#DejaVuSans-75" x="702.587891"/>
      <use xlink:href="#DejaVuSans-72" x="765.966797"/>
      <use xlink:href="#DejaVuSans-70" x="807.080078"/>
      <use xlink:href="#DejaVuSans-72" x="870.556641"/>
      <use xlink:href="#DejaVuSans-69" x="911.669922"/>
      <use xlink:href="#DejaVuSans-73" x="939.453125"/>
      <use xlink:href="#DejaVuSans-61" x="991.552734"/>
      <use xlink:href="#DejaVuSans-6c" x="1052.832031"/>
     </g>
    </g>
    <g id="line2d_35">
     <path d="M 524.56 98.690937 
L 534.56 98.690937 
L 544.56 98.690937 
" style="fill: none; stroke: #9467bd; stroke-width: 1.5; stroke-linecap: square"/>
    </g>
    <g id="text_24">
     <!-- Node random split -->
     <g transform="translate(552.56 102.190937)scale(0.1 -0.1)">
      <use xlink:href="#DejaVuSans-4e"/>
      <use xlink:href="#DejaVuSans-6f" x="74.804688"/>
      <use xlink:href="#DejaVuSans-64" x="135.986328"/>
      <use xlink:href="#DejaVuSans-65" x="199.462891"/>
      <use xlink:href="#DejaVuSans-20" x="260.986328"/>
      <use xlink:href="#DejaVuSans-72" x="292.773438"/>
      <use xlink:href="#DejaVuSans-61" x="333.886719"/>
      <use xlink:href="#DejaVuSans-6e" x="395.166016"/>
      <use xlink:href="#DejaVuSans-64" x="458.544922"/>
      <use xlink:href="#DejaVuSans-6f" x="522.021484"/>
      <use xlink:href="#DejaVuSans-6d" x="583.203125"/>
      <use xlink:href="#DejaVuSans-20" x="680.615234"/>
      <use xlink:href="#DejaVuSans-73" x="712.402344"/>
      <use xlink:href="#DejaVuSans-70" x="764.501953"/>
      <use xlink:href="#DejaVuSans-6c" x="827.978516"/>
      <use xlink:href="#DejaVuSans-69" x="855.761719"/>
      <use xlink:href="#DejaVuSans-74" x="883.544922"/>
     </g>
    </g>
    <g id="line2d_36">
     <path d="M 524.56 113.369062 
L 534.56 113.369062 
L 544.56 113.369062 
" style="fill: none; stroke: #8c564b; stroke-width: 1.5; stroke-linecap: square"/>
    </g>
    <g id="text_25">
     <!-- Node random split + surprisal -->
     <g transform="translate(552.56 116.869062)scale(0.1 -0.1)">
      <use xlink:href="#DejaVuSans-4e"/>
      <use xlink:href="#DejaVuSans-6f" x="74.804688"/>
      <use xlink:href="#DejaVuSans-64" x="135.986328"/>
      <use xlink:href="#DejaVuSans-65" x="199.462891"/>
      <use xlink:href="#DejaVuSans-20" x="260.986328"/>
      <use xlink:href="#DejaVuSans-72" x="292.773438"/>
      <use xlink:href="#DejaVuSans-61" x="333.886719"/>
      <use xlink:href="#DejaVuSans-6e" x="395.166016"/>
      <use xlink:href="#DejaVuSans-64" x="458.544922"/>
      <use xlink:href="#DejaVuSans-6f" x="522.021484"/>
      <use xlink:href="#DejaVuSans-6d" x="583.203125"/>
      <use xlink:href="#DejaVuSans-20" x="680.615234"/>
      <use xlink:href="#DejaVuSans-73" x="712.402344"/>
      <use xlink:href="#DejaVuSans-70" x="764.501953"/>
      <use xlink:href="#DejaVuSans-6c" x="827.978516"/>
      <use xlink:href="#DejaVuSans-69" x="855.761719"/>
      <use xlink:href="#DejaVuSans-74" x="883.544922"/>
      <use xlink:href="#DejaVuSans-20" x="922.753906"/>
      <use xlink:href="#DejaVuSans-2b" x="954.541016"/>
      <use xlink:href="#DejaVuSans-20" x="1038.330078"/>
      <use xlink:href="#DejaVuSans-73" x="1070.117188"/>
      <use xlink:href="#DejaVuSans-75" x="1122.216797"/>
      <use xlink:href="#DejaVuSans-72" x="1185.595703"/>
      <use xlink:href="#DejaVuSans-70" x="1226.708984"/>
      <use xlink:href="#DejaVuSans-72" x="1290.185547"/>
      <use xlink:href="#DejaVuSans-69" x="1331.298828"/>
      <use xlink:href="#DejaVuSans-73" x="1359.082031"/>
      <use xlink:href="#DejaVuSans-61" x="1411.181641"/>
      <use xlink:href="#DejaVuSans-6c" x="1472.460938"/>
     </g>
    </g>
    <g id="line2d_37">
     <path d="M 524.56 128.047187 
L 534.56 128.047187 
L 544.56 128.047187 
" style="fill: none; stroke: #e377c2; stroke-width: 1.5; stroke-linecap: square"/>
    </g>
    <g id="text_26">
     <!-- Interaction -->
     <g transform="translate(552.56 131.547187)scale(0.1 -0.1)">
      <use xlink:href="#DejaVuSans-49"/>
      <use xlink:href="#DejaVuSans-6e" x="29.492188"/>
      <use xlink:href="#DejaVuSans-74" x="92.871094"/>
      <use xlink:href="#DejaVuSans-65" x="132.080078"/>
      <use xlink:href="#DejaVuSans-72" x="193.603516"/>
      <use xlink:href="#DejaVuSans-61" x="234.716797"/>
      <use xlink:href="#DejaVuSans-63" x="295.996094"/>
      <use xlink:href="#DejaVuSans-74" x="350.976562"/>
      <use xlink:href="#DejaVuSans-69" x="390.185547"/>
      <use xlink:href="#DejaVuSans-6f" x="417.96875"/>
      <use xlink:href="#DejaVuSans-6e" x="479.150391"/>
     </g>
    </g>
    <g id="line2d_38">
     <path d="M 524.56 142.725312 
L 534.56 142.725312 
L 544.56 142.725312 
" style="fill: none; stroke: #7f7f7f; stroke-width: 1.5; stroke-linecap: square"/>
    </g>
    <g id="text_27">
     <!-- Node + surprisal + interaction -->
     <g transform="translate(552.56 146.225312)scale(0.1 -0.1)">
      <use xlink:href="#DejaVuSans-4e"/>
      <use xlink:href="#DejaVuSans-6f" x="74.804688"/>
      <use xlink:href="#DejaVuSans-64" x="135.986328"/>
      <use xlink:href="#DejaVuSans-65" x="199.462891"/>
      <use xlink:href="#DejaVuSans-20" x="260.986328"/>
      <use xlink:href="#DejaVuSans-2b" x="292.773438"/>
      <use xlink:href="#DejaVuSans-20" x="376.5625"/>
      <use xlink:href="#DejaVuSans-73" x="408.349609"/>
      <use xlink:href="#DejaVuSans-75" x="460.449219"/>
      <use xlink:href="#DejaVuSans-72" x="523.828125"/>
      <use xlink:href="#DejaVuSans-70" x="564.941406"/>
      <use xlink:href="#DejaVuSans-72" x="628.417969"/>
      <use xlink:href="#DejaVuSans-69" x="669.53125"/>
      <use xlink:href="#DejaVuSans-73" x="697.314453"/>
      <use xlink:href="#DejaVuSans-61" x="749.414062"/>
      <use xlink:href="#DejaVuSans-6c" x="810.693359"/>
      <use xlink:href="#DejaVuSans-20" x="838.476562"/>
      <use xlink:href="#DejaVuSans-2b" x="870.263672"/>
      <use xlink:href="#DejaVuSans-20" x="954.052734"/>
      <use xlink:href="#DejaVuSans-69" x="985.839844"/>
      <use xlink:href="#DejaVuSans-6e" x="1013.623047"/>
      <use xlink:href="#DejaVuSans-74" x="1077.001953"/>
      <use xlink:href="#DejaVuSans-65" x="1116.210938"/>
      <use xlink:href="#DejaVuSans-72" x="1177.734375"/>
      <use xlink:href="#DejaVuSans-61" x="1218.847656"/>
      <use xlink:href="#DejaVuSans-63" x="1280.126953"/>
      <use xlink:href="#DejaVuSans-74" x="1335.107422"/>
      <use xlink:href="#DejaVuSans-69" x="1374.316406"/>
      <use xlink:href="#DejaVuSans-6f" x="1402.099609"/>
      <use xlink:href="#DejaVuSans-6e" x="1463.28125"/>
     </g>
    </g>
   </g>
  </g>
 </g>
 <defs>
  <clipPath id="pfa14a571db">
   <rect x="47.72" y="26.88" width="217.495" height="147.16"/>
  </clipPath>
  <clipPath id="p9f19070df0">
   <rect x="298.065" y="26.88" width="217.495" height="147.16"/>
  </clipPath>
 </defs>
</svg>
