<?xml version="1.0" encoding="utf-8" standalone="no"?>
<!DOCTYPE svg PUBLIC "-//W3C//DTD SVG 1.1//EN"
  "http://www.w3.org/Graphics/SVG/1.1/DTD/svg11.dtd">
<svg xmlns:xlink="http://www.w3.org/1999/xlink" width="720pt" height="216pt" viewBox="0 0 720 216" xmlns="http://www.w3.org/2000/svg" version="1.1">
 <metadata>
  <rdf:RDF xmlns:dc="http://purl.org/dc/elements/1.1/" xmlns:cc="http://creativecommons.org/ns#" xmlns:rdf="http://www.w3.org/1999/02/22-rdf-syntax-ns#">
   <cc:Work>
    <dc:type rdf:resource="http://purl.org/dc/dcmitype/StillImage"/>
    <dc:date>2024-01-15T21:05:33.803026</dc:date>
    <dc:format>image/svg+xml</dc:format>
    <dc:creator>
     <cc:Agent>
      <dc:title>Matplotlib v3.5.1, https://matplotlib.org/</dc:title>
     </cc:Agent>
    </dc:creator>
   </cc:Work>
  </rdf:RDF>
 </metadata>
 <defs>
  <style type="text/css">*{stroke-linejoin: round; stroke-linecap: butt}</style>
 </defs>
 <g id="figure_1">
  <g id="patch_1">
   <path d="M 0 216 
L 720 216 
L 720 0 
L 0 0 
z
" style="fill: #ffffff"/>
  </g>
  <g id="axes_1">
   <g id="patch_2">
    <path d="M 47.72 174.04 
L 265.215 174.04 
L 265.215 26.88 
L 47.72 26.88 
z
" style="fill: #ffffff"/>
   </g>
   <g id="PolyCollection_1">
    <path d="M 47.72 33.569091 
L 47.72 33.569092 
L 59.167105 34.858133 
L 70.614211 38.36685 
L 82.061316 43.239735 
L 93.508421 49.891155 
L 104.955526 57.112354 
L 116.402632 64.825483 
L 127.849737 72.933795 
L 139.296842 80.628 
L 150.743947 87.964016 
L 162.191053 95.333343 
L 173.638158 102.992622 
L 185.085263 109.521267 
L 196.532368 115.489648 
L 207.979474 121.901912 
L 219.426579 127.565709 
L 230.873684 133.938081 
L 242.320789 138.590185 
L 253.767895 144.126372 
L 265.215 148.657791 
L 265.215 136.262625 
L 265.215 136.262625 
L 253.767895 132.086674 
L 242.320789 127.468197 
L 230.873684 122.70832 
L 219.426579 116.894679 
L 207.979474 111.211554 
L 196.532368 105.321875 
L 185.085263 98.876367 
L 173.638158 91.898894 
L 162.191053 84.98837 
L 150.743947 78.073448 
L 139.296842 71.032474 
L 127.849737 63.914847 
L 116.402632 56.981391 
L 104.955526 51.002119 
L 93.508421 44.938842 
L 82.061316 40.308418 
L 70.614211 36.795685 
L 59.167105 34.340302 
L 47.72 33.569091 
z
" clip-path="url(#pd36d773013)" style="fill: #1f77b4; fill-opacity: 0.4"/>
   </g>
   <g id="PolyCollection_2">
    <path d="M 47.72 33.569253 
L 47.72 33.569298 
L 59.167105 34.391115 
L 70.614211 36.167545 
L 82.061316 38.821353 
L 93.508421 42.687677 
L 104.955526 47.43467 
L 116.402632 53.055139 
L 127.849737 59.455645 
L 139.296842 65.733995 
L 150.743947 72.74369 
L 162.191053 79.701797 
L 173.638158 86.514153 
L 185.085263 93.151443 
L 196.532368 98.593025 
L 207.979474 104.950654 
L 219.426579 110.391981 
L 230.873684 116.395677 
L 242.320789 121.151516 
L 253.767895 126.543071 
L 265.215 131.021159 
L 265.215 120.866168 
L 265.215 120.866168 
L 253.767895 116.249131 
L 242.320789 111.158458 
L 230.873684 106.013093 
L 219.426579 100.005855 
L 207.979474 94.203207 
L 196.532368 88.446239 
L 185.085263 81.592407 
L 173.638158 75.521956 
L 162.191053 69.014753 
L 150.743947 63.361021 
L 139.296842 57.854567 
L 127.849737 52.341724 
L 116.402632 47.587115 
L 104.955526 43.681954 
L 93.508421 39.99154 
L 82.061316 37.227032 
L 70.614211 35.371728 
L 59.167105 34.065742 
L 47.72 33.569253 
z
" clip-path="url(#pd36d773013)" style="fill: #ff7f0e; fill-opacity: 0.4"/>
   </g>
   <g id="PolyCollection_3">
    <path d="M 47.72 33.5691 
L 47.72 33.569104 
L 59.167105 34.549642 
L 70.614211 36.311897 
L 82.061316 38.599087 
L 93.508421 41.793511 
L 104.955526 45.317401 
L 116.402632 48.960011 
L 127.849737 52.700206 
L 139.296842 56.233248 
L 150.743947 60.149574 
L 162.191053 63.76337 
L 173.638158 67.38525 
L 185.085263 70.742407 
L 196.532368 74.040112 
L 207.979474 77.747194 
L 219.426579 81.183035 
L 230.873684 84.668485 
L 242.320789 87.891491 
L 253.767895 91.440623 
L 265.215 94.780396 
L 265.215 86.717622 
L 265.215 86.717622 
L 253.767895 83.933144 
L 242.320789 80.327841 
L 230.873684 77.211858 
L 219.426579 73.780196 
L 207.979474 70.555307 
L 196.532368 66.826834 
L 185.085263 63.49067 
L 173.638158 59.844641 
L 162.191053 56.343388 
L 150.743947 52.691447 
L 139.296842 49.490485 
L 127.849737 46.288017 
L 116.402632 43.296733 
L 104.955526 40.742127 
L 93.508421 38.354402 
L 82.061316 36.676386 
L 70.614211 35.228322 
L 59.167105 34.164622 
L 47.72 33.5691 
z
" clip-path="url(#pd36d773013)" style="fill: #2ca02c; fill-opacity: 0.4"/>
   </g>
   <g id="PolyCollection_4">
    <path d="M 47.72 33.569948 
L 47.72 33.57026 
L 59.167105 34.340001 
L 70.614211 35.58018 
L 82.061316 37.268893 
L 93.508421 39.733281 
L 104.955526 42.677202 
L 116.402632 46.011874 
L 127.849737 49.681104 
L 139.296842 53.211865 
L 150.743947 57.467287 
L 162.191053 61.525055 
L 173.638158 65.465014 
L 185.085263 69.07427 
L 196.532368 72.511983 
L 207.979474 76.569989 
L 219.426579 80.138207 
L 230.873684 83.834425 
L 242.320789 87.109187 
L 253.767895 90.781116 
L 265.215 94.104127 
L 265.215 85.291124 
L 265.215 85.291124 
L 253.767895 82.29574 
L 242.320789 78.671235 
L 230.873684 75.371685 
L 219.426579 71.891329 
L 207.979474 68.533452 
L 196.532368 64.805586 
L 185.085263 61.258613 
L 173.638158 57.45887 
L 162.191053 53.854377 
L 150.743947 50.341328 
L 139.296842 47.199511 
L 127.849737 44.070904 
L 116.402632 41.445203 
L 104.955526 39.256452 
L 93.508421 37.308603 
L 82.061316 35.916947 
L 70.614211 34.849376 
L 59.167105 34.042224 
L 47.72 33.569948 
z
" clip-path="url(#pd36d773013)" style="fill: #d62728; fill-opacity: 0.4"/>
   </g>
   <g id="PolyCollection_5">
    <path d="M 47.72 33.5691 
L 47.72 33.569105 
L 59.167105 34.855821 
L 70.614211 38.362948 
L 82.061316 43.296104 
L 93.508421 49.912886 
L 104.955526 57.228829 
L 116.402632 64.860548 
L 127.849737 73.034283 
L 139.296842 80.699717 
L 150.743947 88.360447 
L 162.191053 95.763547 
L 173.638158 102.986834 
L 185.085263 109.760114 
L 196.532368 115.742483 
L 207.979474 122.430674 
L 219.426579 127.91674 
L 230.873684 134.384544 
L 242.320789 139.041737 
L 253.767895 144.33067 
L 265.215 150.281243 
L 265.215 136.521013 
L 265.215 136.521013 
L 253.767895 132.470654 
L 242.320789 127.237495 
L 230.873684 123.27556 
L 219.426579 116.719952 
L 207.979474 111.470384 
L 196.532368 105.744136 
L 185.085263 99.346286 
L 173.638158 92.882304 
L 162.191053 84.959336 
L 150.743947 78.342551 
L 139.296842 71.103036 
L 127.849737 63.906226 
L 116.402632 57.097876 
L 104.955526 51.064662 
L 93.508421 44.97626 
L 82.061316 40.316448 
L 70.614211 36.80641 
L 59.167105 34.339486 
L 47.72 33.5691 
z
" clip-path="url(#pd36d773013)" style="fill: #9467bd; fill-opacity: 0.4"/>
   </g>
   <g id="PolyCollection_6">
    <path d="M 47.72 33.569747 
L 47.72 33.569934 
L 59.167105 34.390719 
L 70.614211 36.171746 
L 82.061316 38.842836 
L 93.508421 42.702276 
L 104.955526 47.490912 
L 116.402632 53.068743 
L 127.849737 59.559989 
L 139.296842 65.705452 
L 150.743947 72.801183 
L 162.191053 80.084419 
L 173.638158 86.584521 
L 185.085263 93.030308 
L 196.532368 98.901094 
L 207.979474 105.685725 
L 219.426579 110.824449 
L 230.873684 116.725831 
L 242.320789 121.494307 
L 253.767895 126.706337 
L 265.215 131.989885 
L 265.215 121.11143 
L 265.215 121.11143 
L 253.767895 116.664188 
L 242.320789 110.882243 
L 230.873684 106.274634 
L 219.426579 99.932955 
L 207.979474 94.107101 
L 196.532368 88.701487 
L 185.085263 81.919334 
L 173.638158 75.986899 
L 162.191053 68.91252 
L 150.743947 63.469725 
L 139.296842 57.950501 
L 127.849737 52.295878 
L 116.402632 47.631315 
L 104.955526 43.690566 
L 93.508421 39.994388 
L 82.061316 37.231961 
L 70.614211 35.370323 
L 59.167105 34.065824 
L 47.72 33.569747 
z
" clip-path="url(#pd36d773013)" style="fill: #8c564b; fill-opacity: 0.4"/>
   </g>
   <g id="PolyCollection_7">
    <path d="M 47.72 47.330986 
L 47.72 51.637705 
L 59.167105 53.477265 
L 70.614211 58.100001 
L 82.061316 64.561743 
L 93.508421 73.168154 
L 104.955526 82.59541 
L 116.402632 91.590851 
L 127.849737 100.871811 
L 139.296842 108.857775 
L 150.743947 116.734064 
L 162.191053 123.945564 
L 173.638158 130.826256 
L 185.085263 136.705598 
L 196.532368 141.766637 
L 207.979474 147.020188 
L 219.426579 151.774863 
L 230.873684 156.491986 
L 242.320789 159.770001 
L 253.767895 164.002065 
L 265.215 167.350909 
L 265.215 155.661776 
L 265.215 155.661776 
L 253.767895 152.085454 
L 242.320789 148.359658 
L 230.873684 144.190541 
L 219.426579 138.526812 
L 207.979474 133.140931 
L 196.532368 126.84311 
L 185.085263 120.209787 
L 173.638158 112.979238 
L 162.191053 105.551876 
L 150.743947 97.83269 
L 139.296842 90.236487 
L 127.849737 82.418265 
L 116.402632 74.331257 
L 104.955526 67.595227 
L 93.508421 60.6612 
L 82.061316 55.334709 
L 70.614211 51.016016 
L 59.167105 48.333733 
L 47.72 47.330986 
z
" clip-path="url(#pd36d773013)" style="fill: #e377c2; fill-opacity: 0.4"/>
   </g>
   <g id="PolyCollection_8">
    <path d="M 47.72 33.569399 
L 47.72 33.569567 
L 59.167105 33.874347 
L 70.614211 34.134016 
L 82.061316 34.887511 
L 93.508421 36.698288 
L 104.955526 39.86733 
L 116.402632 44.145854 
L 127.849737 49.588161 
L 139.296842 55.398222 
L 150.743947 61.986347 
L 162.191053 68.531003 
L 173.638158 75.148161 
L 185.085263 81.506874 
L 196.532368 86.90914 
L 207.979474 92.817905 
L 219.426579 98.522987 
L 230.873684 104.529252 
L 242.320789 109.691661 
L 253.767895 115.465228 
L 265.215 120.292449 
L 265.215 105.898358 
L 265.215 105.898358 
L 253.767895 100.795693 
L 242.320789 95.16734 
L 230.873684 89.347948 
L 219.426579 83.032747 
L 207.979474 76.958961 
L 196.532368 71.007608 
L 185.085263 64.483491 
L 173.638158 58.976701 
L 162.191053 53.229401 
L 150.743947 48.5252 
L 139.296842 44.541667 
L 127.849737 40.751276 
L 116.402632 37.994509 
L 104.955526 36.164408 
L 93.508421 34.918827 
L 82.061316 34.217692 
L 70.614211 33.940392 
L 59.167105 33.818441 
L 47.72 33.569399 
z
" clip-path="url(#pd36d773013)" style="fill: #7f7f7f; fill-opacity: 0.4"/>
   </g>
   <g id="matplotlib.axis_1">
    <g id="xtick_1">
     <g id="line2d_1">
      <defs>
       <path id="m3bcc84f6ad" d="M 0 0 
L 0 3.5 
" style="stroke: #000000; stroke-width: 0.8"/>
      </defs>
      <g>
       <use xlink:href="#m3bcc84f6ad" x="47.72" y="174.04" style="stroke: #000000; stroke-width: 0.8"/>
      </g>
     </g>
     <g id="text_1">
      <!-- 0.0 -->
      <g transform="translate(39.768438 188.638438)scale(0.1 -0.1)">
       <defs>
        <path id="DejaVuSans-30" d="M 2034 4250 
Q 1547 4250 1301 3770 
Q 1056 3291 1056 2328 
Q 1056 1369 1301 889 
Q 1547 409 2034 409 
Q 2525 409 2770 889 
Q 3016 1369 3016 2328 
Q 3016 3291 2770 3770 
Q 2525 4250 2034 4250 
z
M 2034 4750 
Q 2819 4750 3233 4129 
Q 3647 3509 3647 2328 
Q 3647 1150 3233 529 
Q 2819 -91 2034 -91 
Q 1250 -91 836 529 
Q 422 1150 422 2328 
Q 422 3509 836 4129 
Q 1250 4750 2034 4750 
z
" transform="scale(0.015625)"/>
        <path id="DejaVuSans-2e" d="M 684 794 
L 1344 794 
L 1344 0 
L 684 0 
L 684 794 
z
" transform="scale(0.015625)"/>
       </defs>
       <use xlink:href="#DejaVuSans-30"/>
       <use xlink:href="#DejaVuSans-2e" x="63.623047"/>
       <use xlink:href="#DejaVuSans-30" x="95.410156"/>
      </g>
     </g>
    </g>
    <g id="xtick_2">
     <g id="line2d_2">
      <g>
       <use xlink:href="#m3bcc84f6ad" x="102.09375" y="174.04" style="stroke: #000000; stroke-width: 0.8"/>
      </g>
     </g>
     <g id="text_2">
      <!-- 0.5 -->
      <g transform="translate(94.142188 188.638438)scale(0.1 -0.1)">
       <defs>
        <path id="DejaVuSans-35" d="M 691 4666 
L 3169 4666 
L 3169 4134 
L 1269 4134 
L 1269 2991 
Q 1406 3038 1543 3061 
Q 1681 3084 1819 3084 
Q 2600 3084 3056 2656 
Q 3513 2228 3513 1497 
Q 3513 744 3044 326 
Q 2575 -91 1722 -91 
Q 1428 -91 1123 -41 
Q 819 9 494 109 
L 494 744 
Q 775 591 1075 516 
Q 1375 441 1709 441 
Q 2250 441 2565 725 
Q 2881 1009 2881 1497 
Q 2881 1984 2565 2268 
Q 2250 2553 1709 2553 
Q 1456 2553 1204 2497 
Q 953 2441 691 2322 
L 691 4666 
z
" transform="scale(0.015625)"/>
       </defs>
       <use xlink:href="#DejaVuSans-30"/>
       <use xlink:href="#DejaVuSans-2e" x="63.623047"/>
       <use xlink:href="#DejaVuSans-35" x="95.410156"/>
      </g>
     </g>
    </g>
    <g id="xtick_3">
     <g id="line2d_3">
      <g>
       <use xlink:href="#m3bcc84f6ad" x="156.4675" y="174.04" style="stroke: #000000; stroke-width: 0.8"/>
      </g>
     </g>
     <g id="text_3">
      <!-- 1.0 -->
      <g transform="translate(148.515938 188.638438)scale(0.1 -0.1)">
       <defs>
        <path id="DejaVuSans-31" d="M 794 531 
L 1825 531 
L 1825 4091 
L 703 3866 
L 703 4441 
L 1819 4666 
L 2450 4666 
L 2450 531 
L 3481 531 
L 3481 0 
L 794 0 
L 794 531 
z
" transform="scale(0.015625)"/>
       </defs>
       <use xlink:href="#DejaVuSans-31"/>
       <use xlink:href="#DejaVuSans-2e" x="63.623047"/>
       <use xlink:href="#DejaVuSans-30" x="95.410156"/>
      </g>
     </g>
    </g>
    <g id="xtick_4">
     <g id="line2d_4">
      <g>
       <use xlink:href="#m3bcc84f6ad" x="210.84125" y="174.04" style="stroke: #000000; stroke-width: 0.8"/>
      </g>
     </g>
     <g id="text_4">
      <!-- 1.5 -->
      <g transform="translate(202.889687 188.638438)scale(0.1 -0.1)">
       <use xlink:href="#DejaVuSans-31"/>
       <use xlink:href="#DejaVuSans-2e" x="63.623047"/>
       <use xlink:href="#DejaVuSans-35" x="95.410156"/>
      </g>
     </g>
    </g>
    <g id="xtick_5">
     <g id="line2d_5">
      <g>
       <use xlink:href="#m3bcc84f6ad" x="265.215" y="174.04" style="stroke: #000000; stroke-width: 0.8"/>
      </g>
     </g>
     <g id="text_5">
      <!-- 2.0 -->
      <g transform="translate(257.263437 188.638438)scale(0.1 -0.1)">
       <defs>
        <path id="DejaVuSans-32" d="M 1228 531 
L 3431 531 
L 3431 0 
L 469 0 
L 469 531 
Q 828 903 1448 1529 
Q 2069 2156 2228 2338 
Q 2531 2678 2651 2914 
Q 2772 3150 2772 3378 
Q 2772 3750 2511 3984 
Q 2250 4219 1831 4219 
Q 1534 4219 1204 4116 
Q 875 4013 500 3803 
L 500 4441 
Q 881 4594 1212 4672 
Q 1544 4750 1819 4750 
Q 2544 4750 2975 4387 
Q 3406 4025 3406 3419 
Q 3406 3131 3298 2873 
Q 3191 2616 2906 2266 
Q 2828 2175 2409 1742 
Q 1991 1309 1228 531 
z
" transform="scale(0.015625)"/>
       </defs>
       <use xlink:href="#DejaVuSans-32"/>
       <use xlink:href="#DejaVuSans-2e" x="63.623047"/>
       <use xlink:href="#DejaVuSans-30" x="95.410156"/>
      </g>
     </g>
    </g>
    <g id="text_6">
     <!-- Influence of surprisal (multiplication) -->
     <g transform="translate(64.320625 202.316563)scale(0.1 -0.1)">
      <defs>
       <path id="DejaVuSans-49" d="M 628 4666 
L 1259 4666 
L 1259 0 
L 628 0 
L 628 4666 
z
" transform="scale(0.015625)"/>
       <path id="DejaVuSans-6e" d="M 3513 2113 
L 3513 0 
L 2938 0 
L 2938 2094 
Q 2938 2591 2744 2837 
Q 2550 3084 2163 3084 
Q 1697 3084 1428 2787 
Q 1159 2491 1159 1978 
L 1159 0 
L 581 0 
L 581 3500 
L 1159 3500 
L 1159 2956 
Q 1366 3272 1645 3428 
Q 1925 3584 2291 3584 
Q 2894 3584 3203 3211 
Q 3513 2838 3513 2113 
z
" transform="scale(0.015625)"/>
       <path id="DejaVuSans-66" d="M 2375 4863 
L 2375 4384 
L 1825 4384 
Q 1516 4384 1395 4259 
Q 1275 4134 1275 3809 
L 1275 3500 
L 2222 3500 
L 2222 3053 
L 1275 3053 
L 1275 0 
L 697 0 
L 697 3053 
L 147 3053 
L 147 3500 
L 697 3500 
L 697 3744 
Q 697 4328 969 4595 
Q 1241 4863 1831 4863 
L 2375 4863 
z
" transform="scale(0.015625)"/>
       <path id="DejaVuSans-6c" d="M 603 4863 
L 1178 4863 
L 1178 0 
L 603 0 
L 603 4863 
z
" transform="scale(0.015625)"/>
       <path id="DejaVuSans-75" d="M 544 1381 
L 544 3500 
L 1119 3500 
L 1119 1403 
Q 1119 906 1312 657 
Q 1506 409 1894 409 
Q 2359 409 2629 706 
Q 2900 1003 2900 1516 
L 2900 3500 
L 3475 3500 
L 3475 0 
L 2900 0 
L 2900 538 
Q 2691 219 2414 64 
Q 2138 -91 1772 -91 
Q 1169 -91 856 284 
Q 544 659 544 1381 
z
M 1991 3584 
L 1991 3584 
z
" transform="scale(0.015625)"/>
       <path id="DejaVuSans-65" d="M 3597 1894 
L 3597 1613 
L 953 1613 
Q 991 1019 1311 708 
Q 1631 397 2203 397 
Q 2534 397 2845 478 
Q 3156 559 3463 722 
L 3463 178 
Q 3153 47 2828 -22 
Q 2503 -91 2169 -91 
Q 1331 -91 842 396 
Q 353 884 353 1716 
Q 353 2575 817 3079 
Q 1281 3584 2069 3584 
Q 2775 3584 3186 3129 
Q 3597 2675 3597 1894 
z
M 3022 2063 
Q 3016 2534 2758 2815 
Q 2500 3097 2075 3097 
Q 1594 3097 1305 2825 
Q 1016 2553 972 2059 
L 3022 2063 
z
" transform="scale(0.015625)"/>
       <path id="DejaVuSans-63" d="M 3122 3366 
L 3122 2828 
Q 2878 2963 2633 3030 
Q 2388 3097 2138 3097 
Q 1578 3097 1268 2742 
Q 959 2388 959 1747 
Q 959 1106 1268 751 
Q 1578 397 2138 397 
Q 2388 397 2633 464 
Q 2878 531 3122 666 
L 3122 134 
Q 2881 22 2623 -34 
Q 2366 -91 2075 -91 
Q 1284 -91 818 406 
Q 353 903 353 1747 
Q 353 2603 823 3093 
Q 1294 3584 2113 3584 
Q 2378 3584 2631 3529 
Q 2884 3475 3122 3366 
z
" transform="scale(0.015625)"/>
       <path id="DejaVuSans-20" transform="scale(0.015625)"/>
       <path id="DejaVuSans-6f" d="M 1959 3097 
Q 1497 3097 1228 2736 
Q 959 2375 959 1747 
Q 959 1119 1226 758 
Q 1494 397 1959 397 
Q 2419 397 2687 759 
Q 2956 1122 2956 1747 
Q 2956 2369 2687 2733 
Q 2419 3097 1959 3097 
z
M 1959 3584 
Q 2709 3584 3137 3096 
Q 3566 2609 3566 1747 
Q 3566 888 3137 398 
Q 2709 -91 1959 -91 
Q 1206 -91 779 398 
Q 353 888 353 1747 
Q 353 2609 779 3096 
Q 1206 3584 1959 3584 
z
" transform="scale(0.015625)"/>
       <path id="DejaVuSans-73" d="M 2834 3397 
L 2834 2853 
Q 2591 2978 2328 3040 
Q 2066 3103 1784 3103 
Q 1356 3103 1142 2972 
Q 928 2841 928 2578 
Q 928 2378 1081 2264 
Q 1234 2150 1697 2047 
L 1894 2003 
Q 2506 1872 2764 1633 
Q 3022 1394 3022 966 
Q 3022 478 2636 193 
Q 2250 -91 1575 -91 
Q 1294 -91 989 -36 
Q 684 19 347 128 
L 347 722 
Q 666 556 975 473 
Q 1284 391 1588 391 
Q 1994 391 2212 530 
Q 2431 669 2431 922 
Q 2431 1156 2273 1281 
Q 2116 1406 1581 1522 
L 1381 1569 
Q 847 1681 609 1914 
Q 372 2147 372 2553 
Q 372 3047 722 3315 
Q 1072 3584 1716 3584 
Q 2034 3584 2315 3537 
Q 2597 3491 2834 3397 
z
" transform="scale(0.015625)"/>
       <path id="DejaVuSans-72" d="M 2631 2963 
Q 2534 3019 2420 3045 
Q 2306 3072 2169 3072 
Q 1681 3072 1420 2755 
Q 1159 2438 1159 1844 
L 1159 0 
L 581 0 
L 581 3500 
L 1159 3500 
L 1159 2956 
Q 1341 3275 1631 3429 
Q 1922 3584 2338 3584 
Q 2397 3584 2469 3576 
Q 2541 3569 2628 3553 
L 2631 2963 
z
" transform="scale(0.015625)"/>
       <path id="DejaVuSans-70" d="M 1159 525 
L 1159 -1331 
L 581 -1331 
L 581 3500 
L 1159 3500 
L 1159 2969 
Q 1341 3281 1617 3432 
Q 1894 3584 2278 3584 
Q 2916 3584 3314 3078 
Q 3713 2572 3713 1747 
Q 3713 922 3314 415 
Q 2916 -91 2278 -91 
Q 1894 -91 1617 61 
Q 1341 213 1159 525 
z
M 3116 1747 
Q 3116 2381 2855 2742 
Q 2594 3103 2138 3103 
Q 1681 3103 1420 2742 
Q 1159 2381 1159 1747 
Q 1159 1113 1420 752 
Q 1681 391 2138 391 
Q 2594 391 2855 752 
Q 3116 1113 3116 1747 
z
" transform="scale(0.015625)"/>
       <path id="DejaVuSans-69" d="M 603 3500 
L 1178 3500 
L 1178 0 
L 603 0 
L 603 3500 
z
M 603 4863 
L 1178 4863 
L 1178 4134 
L 603 4134 
L 603 4863 
z
" transform="scale(0.015625)"/>
       <path id="DejaVuSans-61" d="M 2194 1759 
Q 1497 1759 1228 1600 
Q 959 1441 959 1056 
Q 959 750 1161 570 
Q 1363 391 1709 391 
Q 2188 391 2477 730 
Q 2766 1069 2766 1631 
L 2766 1759 
L 2194 1759 
z
M 3341 1997 
L 3341 0 
L 2766 0 
L 2766 531 
Q 2569 213 2275 61 
Q 1981 -91 1556 -91 
Q 1019 -91 701 211 
Q 384 513 384 1019 
Q 384 1609 779 1909 
Q 1175 2209 1959 2209 
L 2766 2209 
L 2766 2266 
Q 2766 2663 2505 2880 
Q 2244 3097 1772 3097 
Q 1472 3097 1187 3025 
Q 903 2953 641 2809 
L 641 3341 
Q 956 3463 1253 3523 
Q 1550 3584 1831 3584 
Q 2591 3584 2966 3190 
Q 3341 2797 3341 1997 
z
" transform="scale(0.015625)"/>
       <path id="DejaVuSans-28" d="M 1984 4856 
Q 1566 4138 1362 3434 
Q 1159 2731 1159 2009 
Q 1159 1288 1364 580 
Q 1569 -128 1984 -844 
L 1484 -844 
Q 1016 -109 783 600 
Q 550 1309 550 2009 
Q 550 2706 781 3412 
Q 1013 4119 1484 4856 
L 1984 4856 
z
" transform="scale(0.015625)"/>
       <path id="DejaVuSans-6d" d="M 3328 2828 
Q 3544 3216 3844 3400 
Q 4144 3584 4550 3584 
Q 5097 3584 5394 3201 
Q 5691 2819 5691 2113 
L 5691 0 
L 5113 0 
L 5113 2094 
Q 5113 2597 4934 2840 
Q 4756 3084 4391 3084 
Q 3944 3084 3684 2787 
Q 3425 2491 3425 1978 
L 3425 0 
L 2847 0 
L 2847 2094 
Q 2847 2600 2669 2842 
Q 2491 3084 2119 3084 
Q 1678 3084 1418 2786 
Q 1159 2488 1159 1978 
L 1159 0 
L 581 0 
L 581 3500 
L 1159 3500 
L 1159 2956 
Q 1356 3278 1631 3431 
Q 1906 3584 2284 3584 
Q 2666 3584 2933 3390 
Q 3200 3197 3328 2828 
z
" transform="scale(0.015625)"/>
       <path id="DejaVuSans-74" d="M 1172 4494 
L 1172 3500 
L 2356 3500 
L 2356 3053 
L 1172 3053 
L 1172 1153 
Q 1172 725 1289 603 
Q 1406 481 1766 481 
L 2356 481 
L 2356 0 
L 1766 0 
Q 1100 0 847 248 
Q 594 497 594 1153 
L 594 3053 
L 172 3053 
L 172 3500 
L 594 3500 
L 594 4494 
L 1172 4494 
z
" transform="scale(0.015625)"/>
       <path id="DejaVuSans-29" d="M 513 4856 
L 1013 4856 
Q 1481 4119 1714 3412 
Q 1947 2706 1947 2009 
Q 1947 1309 1714 600 
Q 1481 -109 1013 -844 
L 513 -844 
Q 928 -128 1133 580 
Q 1338 1288 1338 2009 
Q 1338 2731 1133 3434 
Q 928 4138 513 4856 
z
" transform="scale(0.015625)"/>
      </defs>
      <use xlink:href="#DejaVuSans-49"/>
      <use xlink:href="#DejaVuSans-6e" x="29.492188"/>
      <use xlink:href="#DejaVuSans-66" x="92.871094"/>
      <use xlink:href="#DejaVuSans-6c" x="128.076172"/>
      <use xlink:href="#DejaVuSans-75" x="155.859375"/>
      <use xlink:href="#DejaVuSans-65" x="219.238281"/>
      <use xlink:href="#DejaVuSans-6e" x="280.761719"/>
      <use xlink:href="#DejaVuSans-63" x="344.140625"/>
      <use xlink:href="#DejaVuSans-65" x="399.121094"/>
      <use xlink:href="#DejaVuSans-20" x="460.644531"/>
      <use xlink:href="#DejaVuSans-6f" x="492.431641"/>
      <use xlink:href="#DejaVuSans-66" x="553.613281"/>
      <use xlink:href="#DejaVuSans-20" x="588.818359"/>
      <use xlink:href="#DejaVuSans-73" x="620.605469"/>
      <use xlink:href="#DejaVuSans-75" x="672.705078"/>
      <use xlink:href="#DejaVuSans-72" x="736.083984"/>
      <use xlink:href="#DejaVuSans-70" x="777.197266"/>
      <use xlink:href="#DejaVuSans-72" x="840.673828"/>
      <use xlink:href="#DejaVuSans-69" x="881.787109"/>
      <use xlink:href="#DejaVuSans-73" x="909.570312"/>
      <use xlink:href="#DejaVuSans-61" x="961.669922"/>
      <use xlink:href="#DejaVuSans-6c" x="1022.949219"/>
      <use xlink:href="#DejaVuSans-20" x="1050.732422"/>
      <use xlink:href="#DejaVuSans-28" x="1082.519531"/>
      <use xlink:href="#DejaVuSans-6d" x="1121.533203"/>
      <use xlink:href="#DejaVuSans-75" x="1218.945312"/>
      <use xlink:href="#DejaVuSans-6c" x="1282.324219"/>
      <use xlink:href="#DejaVuSans-74" x="1310.107422"/>
      <use xlink:href="#DejaVuSans-69" x="1349.316406"/>
      <use xlink:href="#DejaVuSans-70" x="1377.099609"/>
      <use xlink:href="#DejaVuSans-6c" x="1440.576172"/>
      <use xlink:href="#DejaVuSans-69" x="1468.359375"/>
      <use xlink:href="#DejaVuSans-63" x="1496.142578"/>
      <use xlink:href="#DejaVuSans-61" x="1551.123047"/>
      <use xlink:href="#DejaVuSans-74" x="1612.402344"/>
      <use xlink:href="#DejaVuSans-69" x="1651.611328"/>
      <use xlink:href="#DejaVuSans-6f" x="1679.394531"/>
      <use xlink:href="#DejaVuSans-6e" x="1740.576172"/>
      <use xlink:href="#DejaVuSans-29" x="1803.955078"/>
     </g>
    </g>
   </g>
   <g id="matplotlib.axis_2">
    <g id="ytick_1">
     <g id="line2d_6">
      <defs>
       <path id="m44b5c2c553" d="M 0 0 
L -3.5 0 
" style="stroke: #000000; stroke-width: 0.8"/>
      </defs>
      <g>
       <use xlink:href="#m44b5c2c553" x="47.72" y="143.133359" style="stroke: #000000; stroke-width: 0.8"/>
      </g>
     </g>
     <g id="text_7">
      <!-- 0.4 -->
      <g transform="translate(24.816875 146.932577)scale(0.1 -0.1)">
       <defs>
        <path id="DejaVuSans-34" d="M 2419 4116 
L 825 1625 
L 2419 1625 
L 2419 4116 
z
M 2253 4666 
L 3047 4666 
L 3047 1625 
L 3713 1625 
L 3713 1100 
L 3047 1100 
L 3047 0 
L 2419 0 
L 2419 1100 
L 313 1100 
L 313 1709 
L 2253 4666 
z
" transform="scale(0.015625)"/>
       </defs>
       <use xlink:href="#DejaVuSans-30"/>
       <use xlink:href="#DejaVuSans-2e" x="63.623047"/>
       <use xlink:href="#DejaVuSans-34" x="95.410156"/>
      </g>
     </g>
    </g>
    <g id="ytick_2">
     <g id="line2d_7">
      <g>
       <use xlink:href="#m44b5c2c553" x="47.72" y="106.611935" style="stroke: #000000; stroke-width: 0.8"/>
      </g>
     </g>
     <g id="text_8">
      <!-- 0.6 -->
      <g transform="translate(24.816875 110.411154)scale(0.1 -0.1)">
       <defs>
        <path id="DejaVuSans-36" d="M 2113 2584 
Q 1688 2584 1439 2293 
Q 1191 2003 1191 1497 
Q 1191 994 1439 701 
Q 1688 409 2113 409 
Q 2538 409 2786 701 
Q 3034 994 3034 1497 
Q 3034 2003 2786 2293 
Q 2538 2584 2113 2584 
z
M 3366 4563 
L 3366 3988 
Q 3128 4100 2886 4159 
Q 2644 4219 2406 4219 
Q 1781 4219 1451 3797 
Q 1122 3375 1075 2522 
Q 1259 2794 1537 2939 
Q 1816 3084 2150 3084 
Q 2853 3084 3261 2657 
Q 3669 2231 3669 1497 
Q 3669 778 3244 343 
Q 2819 -91 2113 -91 
Q 1303 -91 875 529 
Q 447 1150 447 2328 
Q 447 3434 972 4092 
Q 1497 4750 2381 4750 
Q 2619 4750 2861 4703 
Q 3103 4656 3366 4563 
z
" transform="scale(0.015625)"/>
       </defs>
       <use xlink:href="#DejaVuSans-30"/>
       <use xlink:href="#DejaVuSans-2e" x="63.623047"/>
       <use xlink:href="#DejaVuSans-36" x="95.410156"/>
      </g>
     </g>
    </g>
    <g id="ytick_3">
     <g id="line2d_8">
      <g>
       <use xlink:href="#m44b5c2c553" x="47.72" y="70.090512" style="stroke: #000000; stroke-width: 0.8"/>
      </g>
     </g>
     <g id="text_9">
      <!-- 0.8 -->
      <g transform="translate(24.816875 73.88973)scale(0.1 -0.1)">
       <defs>
        <path id="DejaVuSans-38" d="M 2034 2216 
Q 1584 2216 1326 1975 
Q 1069 1734 1069 1313 
Q 1069 891 1326 650 
Q 1584 409 2034 409 
Q 2484 409 2743 651 
Q 3003 894 3003 1313 
Q 3003 1734 2745 1975 
Q 2488 2216 2034 2216 
z
M 1403 2484 
Q 997 2584 770 2862 
Q 544 3141 544 3541 
Q 544 4100 942 4425 
Q 1341 4750 2034 4750 
Q 2731 4750 3128 4425 
Q 3525 4100 3525 3541 
Q 3525 3141 3298 2862 
Q 3072 2584 2669 2484 
Q 3125 2378 3379 2068 
Q 3634 1759 3634 1313 
Q 3634 634 3220 271 
Q 2806 -91 2034 -91 
Q 1263 -91 848 271 
Q 434 634 434 1313 
Q 434 1759 690 2068 
Q 947 2378 1403 2484 
z
M 1172 3481 
Q 1172 3119 1398 2916 
Q 1625 2713 2034 2713 
Q 2441 2713 2670 2916 
Q 2900 3119 2900 3481 
Q 2900 3844 2670 4047 
Q 2441 4250 2034 4250 
Q 1625 4250 1398 4047 
Q 1172 3844 1172 3481 
z
" transform="scale(0.015625)"/>
       </defs>
       <use xlink:href="#DejaVuSans-30"/>
       <use xlink:href="#DejaVuSans-2e" x="63.623047"/>
       <use xlink:href="#DejaVuSans-38" x="95.410156"/>
      </g>
     </g>
    </g>
    <g id="ytick_4">
     <g id="line2d_9">
      <g>
       <use xlink:href="#m44b5c2c553" x="47.72" y="33.569088" style="stroke: #000000; stroke-width: 0.8"/>
      </g>
     </g>
     <g id="text_10">
      <!-- 1.0 -->
      <g transform="translate(24.816875 37.368307)scale(0.1 -0.1)">
       <use xlink:href="#DejaVuSans-31"/>
       <use xlink:href="#DejaVuSans-2e" x="63.623047"/>
       <use xlink:href="#DejaVuSans-30" x="95.410156"/>
      </g>
     </g>
    </g>
    <g id="text_11">
     <!-- R-value -->
     <g transform="translate(18.737188 119.064687)rotate(-90)scale(0.1 -0.1)">
      <defs>
       <path id="DejaVuSans-52" d="M 2841 2188 
Q 3044 2119 3236 1894 
Q 3428 1669 3622 1275 
L 4263 0 
L 3584 0 
L 2988 1197 
Q 2756 1666 2539 1819 
Q 2322 1972 1947 1972 
L 1259 1972 
L 1259 0 
L 628 0 
L 628 4666 
L 2053 4666 
Q 2853 4666 3247 4331 
Q 3641 3997 3641 3322 
Q 3641 2881 3436 2590 
Q 3231 2300 2841 2188 
z
M 1259 4147 
L 1259 2491 
L 2053 2491 
Q 2509 2491 2742 2702 
Q 2975 2913 2975 3322 
Q 2975 3731 2742 3939 
Q 2509 4147 2053 4147 
L 1259 4147 
z
" transform="scale(0.015625)"/>
       <path id="DejaVuSans-2d" d="M 313 2009 
L 1997 2009 
L 1997 1497 
L 313 1497 
L 313 2009 
z
" transform="scale(0.015625)"/>
       <path id="DejaVuSans-76" d="M 191 3500 
L 800 3500 
L 1894 563 
L 2988 3500 
L 3597 3500 
L 2284 0 
L 1503 0 
L 191 3500 
z
" transform="scale(0.015625)"/>
      </defs>
      <use xlink:href="#DejaVuSans-52"/>
      <use xlink:href="#DejaVuSans-2d" x="65.482422"/>
      <use xlink:href="#DejaVuSans-76" x="98.941406"/>
      <use xlink:href="#DejaVuSans-61" x="158.121094"/>
      <use xlink:href="#DejaVuSans-6c" x="219.400391"/>
      <use xlink:href="#DejaVuSans-75" x="247.183594"/>
      <use xlink:href="#DejaVuSans-65" x="310.5625"/>
     </g>
    </g>
   </g>
   <g id="line2d_10">
    <path d="M 47.72 33.569091 
L 59.167105 34.599218 
L 70.614211 37.581267 
L 82.061316 41.774077 
L 93.508421 47.414999 
L 104.955526 54.057237 
L 116.402632 60.903437 
L 127.849737 68.424321 
L 139.296842 75.830237 
L 150.743947 83.018732 
L 162.191053 90.160856 
L 173.638158 97.445758 
L 185.085263 104.198817 
L 196.532368 110.405762 
L 207.979474 116.556733 
L 219.426579 122.230194 
L 230.873684 128.3232 
L 242.320789 133.029191 
L 253.767895 138.106523 
L 265.215 142.460208 
" clip-path="url(#pd36d773013)" style="fill: none; stroke: #1f77b4; stroke-width: 1.5; stroke-linecap: square"/>
   </g>
   <g id="line2d_11">
    <path d="M 47.72 33.569276 
L 59.167105 34.228429 
L 70.614211 35.769636 
L 82.061316 38.024193 
L 93.508421 41.339609 
L 104.955526 45.558312 
L 116.402632 50.321127 
L 127.849737 55.898684 
L 139.296842 61.794281 
L 150.743947 68.052355 
L 162.191053 74.358275 
L 173.638158 81.018055 
L 185.085263 87.371925 
L 196.532368 93.519632 
L 207.979474 99.57693 
L 219.426579 105.198918 
L 230.873684 111.204385 
L 242.320789 116.154987 
L 253.767895 121.396101 
L 265.215 125.943664 
" clip-path="url(#pd36d773013)" style="fill: none; stroke: #ff7f0e; stroke-width: 1.5; stroke-linecap: square"/>
   </g>
   <g id="line2d_12">
    <path d="M 47.72 33.569102 
L 59.167105 34.357132 
L 70.614211 35.77011 
L 82.061316 37.637737 
L 93.508421 40.073956 
L 104.955526 43.029764 
L 116.402632 46.128372 
L 127.849737 49.494111 
L 139.296842 52.861866 
L 150.743947 56.420511 
L 162.191053 60.053379 
L 173.638158 63.614945 
L 185.085263 67.116539 
L 196.532368 70.433473 
L 207.979474 74.15125 
L 219.426579 77.481615 
L 230.873684 80.940171 
L 242.320789 84.109666 
L 253.767895 87.686883 
L 265.215 90.749009 
" clip-path="url(#pd36d773013)" style="fill: none; stroke: #2ca02c; stroke-width: 1.5; stroke-linecap: square"/>
   </g>
   <g id="line2d_13">
    <path d="M 47.72 33.570104 
L 59.167105 34.191113 
L 70.614211 35.214778 
L 82.061316 36.59292 
L 93.508421 38.520942 
L 104.955526 40.966827 
L 116.402632 43.728539 
L 127.849737 46.876004 
L 139.296842 50.205688 
L 150.743947 53.904308 
L 162.191053 57.689716 
L 173.638158 61.461942 
L 185.085263 65.166442 
L 196.532368 68.658784 
L 207.979474 72.55172 
L 219.426579 76.014768 
L 230.873684 79.603055 
L 242.320789 82.890211 
L 253.767895 86.538428 
L 265.215 89.697625 
" clip-path="url(#pd36d773013)" style="fill: none; stroke: #d62728; stroke-width: 1.5; stroke-linecap: square"/>
   </g>
   <g id="line2d_14">
    <path d="M 47.72 33.569102 
L 59.167105 34.597653 
L 70.614211 37.584679 
L 82.061316 41.806276 
L 93.508421 47.444573 
L 104.955526 54.146746 
L 116.402632 60.979212 
L 127.849737 68.470254 
L 139.296842 75.901377 
L 150.743947 83.351499 
L 162.191053 90.361442 
L 173.638158 97.934569 
L 185.085263 104.5532 
L 196.532368 110.743309 
L 207.979474 116.950529 
L 219.426579 122.318346 
L 230.873684 128.830052 
L 242.320789 133.139616 
L 253.767895 138.400662 
L 265.215 143.401128 
" clip-path="url(#pd36d773013)" style="fill: none; stroke: #9467bd; stroke-width: 1.5; stroke-linecap: square"/>
   </g>
   <g id="line2d_15">
    <path d="M 47.72 33.56984 
L 59.167105 34.228272 
L 70.614211 35.771035 
L 82.061316 38.037399 
L 93.508421 41.348332 
L 104.955526 45.590739 
L 116.402632 50.350029 
L 127.849737 55.927934 
L 139.296842 61.827976 
L 150.743947 68.135454 
L 162.191053 74.49847 
L 173.638158 81.28571 
L 185.085263 87.474821 
L 196.532368 93.801291 
L 207.979474 99.896413 
L 219.426579 105.378702 
L 230.873684 111.500233 
L 242.320789 116.188275 
L 253.767895 121.685263 
L 265.215 126.550658 
" clip-path="url(#pd36d773013)" style="fill: none; stroke: #8c564b; stroke-width: 1.5; stroke-linecap: square"/>
   </g>
   <g id="line2d_16">
    <path d="M 47.72 49.484346 
L 59.167105 50.905499 
L 70.614211 54.558008 
L 82.061316 59.948226 
L 93.508421 66.914677 
L 104.955526 75.095319 
L 116.402632 82.961054 
L 127.849737 91.645038 
L 139.296842 99.547131 
L 150.743947 107.283377 
L 162.191053 114.74872 
L 173.638158 121.902747 
L 185.085263 128.457692 
L 196.532368 134.304874 
L 207.979474 140.080559 
L 219.426579 145.150837 
L 230.873684 150.341264 
L 242.320789 154.06483 
L 253.767895 158.043759 
L 265.215 161.506343 
" clip-path="url(#pd36d773013)" style="fill: none; stroke: #e377c2; stroke-width: 1.5; stroke-linecap: square"/>
   </g>
   <g id="line2d_17">
    <path d="M 47.72 33.569483 
L 59.167105 33.846394 
L 70.614211 34.037204 
L 82.061316 34.552601 
L 93.508421 35.808558 
L 104.955526 38.015869 
L 116.402632 41.070182 
L 127.849737 45.169719 
L 139.296842 49.969945 
L 150.743947 55.255773 
L 162.191053 60.880202 
L 173.638158 67.062431 
L 185.085263 72.995182 
L 196.532368 78.958374 
L 207.979474 84.888433 
L 219.426579 90.777867 
L 230.873684 96.9386 
L 242.320789 102.429501 
L 253.767895 108.13046 
L 265.215 113.095404 
" clip-path="url(#pd36d773013)" style="fill: none; stroke: #7f7f7f; stroke-width: 1.5; stroke-linecap: square"/>
   </g>
   <g id="patch_3">
    <path d="M 47.72 174.04 
L 47.72 26.88 
" style="fill: none; stroke: #000000; stroke-width: 0.8; stroke-linejoin: miter; stroke-linecap: square"/>
   </g>
   <g id="patch_4">
    <path d="M 47.72 174.04 
L 265.215 174.04 
" style="fill: none; stroke: #000000; stroke-width: 0.8; stroke-linejoin: miter; stroke-linecap: square"/>
   </g>
   <g id="text_12">
    <!-- Node * surprisal -->
    <g transform="translate(108.18625 20.88)scale(0.12 -0.12)">
     <defs>
      <path id="DejaVuSans-4e" d="M 628 4666 
L 1478 4666 
L 3547 763 
L 3547 4666 
L 4159 4666 
L 4159 0 
L 3309 0 
L 1241 3903 
L 1241 0 
L 628 0 
L 628 4666 
z
" transform="scale(0.015625)"/>
      <path id="DejaVuSans-64" d="M 2906 2969 
L 2906 4863 
L 3481 4863 
L 3481 0 
L 2906 0 
L 2906 525 
Q 2725 213 2448 61 
Q 2172 -91 1784 -91 
Q 1150 -91 751 415 
Q 353 922 353 1747 
Q 353 2572 751 3078 
Q 1150 3584 1784 3584 
Q 2172 3584 2448 3432 
Q 2725 3281 2906 2969 
z
M 947 1747 
Q 947 1113 1208 752 
Q 1469 391 1925 391 
Q 2381 391 2643 752 
Q 2906 1113 2906 1747 
Q 2906 2381 2643 2742 
Q 2381 3103 1925 3103 
Q 1469 3103 1208 2742 
Q 947 2381 947 1747 
z
" transform="scale(0.015625)"/>
      <path id="DejaVuSans-2a" d="M 3009 3897 
L 1888 3291 
L 3009 2681 
L 2828 2375 
L 1778 3009 
L 1778 1831 
L 1422 1831 
L 1422 3009 
L 372 2375 
L 191 2681 
L 1313 3291 
L 191 3897 
L 372 4206 
L 1422 3572 
L 1422 4750 
L 1778 4750 
L 1778 3572 
L 2828 4206 
L 3009 3897 
z
" transform="scale(0.015625)"/>
     </defs>
     <use xlink:href="#DejaVuSans-4e"/>
     <use xlink:href="#DejaVuSans-6f" x="74.804688"/>
     <use xlink:href="#DejaVuSans-64" x="135.986328"/>
     <use xlink:href="#DejaVuSans-65" x="199.462891"/>
     <use xlink:href="#DejaVuSans-20" x="260.986328"/>
     <use xlink:href="#DejaVuSans-2a" x="292.773438"/>
     <use xlink:href="#DejaVuSans-20" x="342.773438"/>
     <use xlink:href="#DejaVuSans-73" x="374.560547"/>
     <use xlink:href="#DejaVuSans-75" x="426.660156"/>
     <use xlink:href="#DejaVuSans-72" x="490.039062"/>
     <use xlink:href="#DejaVuSans-70" x="531.152344"/>
     <use xlink:href="#DejaVuSans-72" x="594.628906"/>
     <use xlink:href="#DejaVuSans-69" x="635.742188"/>
     <use xlink:href="#DejaVuSans-73" x="663.525391"/>
     <use xlink:href="#DejaVuSans-61" x="715.625"/>
     <use xlink:href="#DejaVuSans-6c" x="776.904297"/>
    </g>
   </g>
  </g>
  <g id="axes_2">
   <g id="patch_5">
    <path d="M 298.065 174.04 
L 515.56 174.04 
L 515.56 26.88 
L 298.065 26.88 
z
" style="fill: #ffffff"/>
   </g>
   <g id="PolyCollection_9">
    <path d="M 298.065 33.569091 
L 298.065 33.569092 
L 309.512105 34.703054 
L 320.959211 38.051396 
L 332.406316 42.805197 
L 343.853421 48.578319 
L 355.300526 55.497672 
L 366.747632 62.942088 
L 378.194737 70.053498 
L 389.641842 78.028824 
L 401.088947 85.009284 
L 412.536053 92.312713 
L 423.983158 99.236084 
L 435.430263 105.894834 
L 446.877368 112.727314 
L 458.324474 119.344893 
L 469.771579 125.143047 
L 481.218684 130.985503 
L 492.665789 136.449587 
L 504.112895 142.036438 
L 515.56 147.117135 
L 515.56 134.453734 
L 515.56 134.453734 
L 504.112895 129.1369 
L 492.665789 124.398986 
L 481.218684 118.031085 
L 469.771579 112.180078 
L 458.324474 106.870863 
L 446.877368 100.389869 
L 435.430263 94.191749 
L 423.983158 87.567004 
L 412.536053 81.039665 
L 401.088947 74.411082 
L 389.641842 68.357461 
L 378.194737 61.13364 
L 366.747632 55.182892 
L 355.300526 49.504802 
L 343.853421 44.319417 
L 332.406316 39.838305 
L 320.959211 36.630057 
L 309.512105 34.300077 
L 298.065 33.569091 
z
" clip-path="url(#pd58512b516)" style="fill: #1f77b4; fill-opacity: 0.4"/>
   </g>
   <g id="PolyCollection_10">
    <path d="M 298.065 33.569253 
L 298.065 33.569298 
L 309.512105 34.704039 
L 320.959211 38.05778 
L 332.406316 42.819478 
L 343.853421 48.602735 
L 355.300526 55.529102 
L 366.747632 63.011623 
L 378.194737 70.140702 
L 389.641842 78.134454 
L 401.088947 85.115168 
L 412.536053 92.419953 
L 423.983158 99.342507 
L 435.430263 106.017711 
L 446.877368 112.871097 
L 458.324474 119.42466 
L 469.771579 125.290574 
L 481.218684 131.136318 
L 492.665789 136.596269 
L 504.112895 142.251644 
L 515.56 147.332521 
L 515.56 135.725486 
L 515.56 135.725486 
L 504.112895 130.289513 
L 492.665789 125.448394 
L 481.218684 118.98398 
L 469.771579 113.042513 
L 458.324474 107.681395 
L 446.877368 100.988685 
L 435.430263 94.707854 
L 423.983158 88.00876 
L 412.536053 81.357254 
L 401.088947 74.691386 
L 389.641842 68.58084 
L 378.194737 61.297175 
L 366.747632 55.311267 
L 355.300526 49.609467 
L 343.853421 44.376441 
L 332.406316 39.873886 
L 320.959211 36.64623 
L 309.512105 34.302323 
L 298.065 33.569253 
z
" clip-path="url(#pd58512b516)" style="fill: #ff7f0e; fill-opacity: 0.4"/>
   </g>
   <g id="PolyCollection_11">
    <path d="M 298.065 33.5691 
L 298.065 33.569104 
L 309.512105 34.707521 
L 320.959211 38.060753 
L 332.406316 42.831845 
L 343.853421 48.628738 
L 355.300526 55.54917 
L 366.747632 63.058661 
L 378.194737 70.211275 
L 389.641842 78.210425 
L 401.088947 85.211829 
L 412.536053 92.568058 
L 423.983158 99.528147 
L 435.430263 106.203557 
L 446.877368 113.041464 
L 458.324474 119.701595 
L 469.771579 125.532958 
L 481.218684 131.445649 
L 492.665789 136.969347 
L 504.112895 142.666613 
L 515.56 147.83342 
L 515.56 134.299241 
L 515.56 134.299241 
L 504.112895 129.086976 
L 492.665789 124.418839 
L 481.218684 118.047692 
L 469.771579 112.225739 
L 458.324474 106.920046 
L 446.877368 100.521653 
L 435.430263 94.302775 
L 423.983158 87.669321 
L 412.536053 81.119323 
L 401.088947 74.490654 
L 389.641842 68.41894 
L 378.194737 61.199018 
L 366.747632 55.234665 
L 355.300526 49.563888 
L 343.853421 44.339024 
L 332.406316 39.853862 
L 320.959211 36.647952 
L 309.512105 34.300297 
L 298.065 33.5691 
z
" clip-path="url(#pd58512b516)" style="fill: #2ca02c; fill-opacity: 0.4"/>
   </g>
   <g id="PolyCollection_12">
    <path d="M 298.065 33.569948 
L 298.065 33.57026 
L 309.512105 34.708935 
L 320.959211 38.068809 
L 332.406316 42.841925 
L 343.853421 48.638996 
L 355.300526 55.566807 
L 366.747632 63.093372 
L 378.194737 70.238837 
L 389.641842 78.252567 
L 401.088947 85.251794 
L 412.536053 92.581654 
L 423.983158 99.531796 
L 435.430263 106.227236 
L 446.877368 113.120943 
L 458.324474 119.743711 
L 469.771579 125.63562 
L 481.218684 131.536828 
L 492.665789 137.07933 
L 504.112895 142.776166 
L 515.56 147.855234 
L 515.56 135.44438 
L 515.56 135.44438 
L 504.112895 130.074381 
L 492.665789 125.32783 
L 481.218684 118.892678 
L 469.771579 112.942711 
L 458.324474 107.56994 
L 446.877368 100.95056 
L 435.430263 94.673945 
L 423.983158 87.966608 
L 412.536053 81.319342 
L 401.088947 74.662179 
L 389.641842 68.551622 
L 378.194737 61.272667 
L 366.747632 55.293953 
L 355.300526 49.607048 
L 343.853421 44.370612 
L 332.406316 39.874086 
L 320.959211 36.65433 
L 309.512105 34.300963 
L 298.065 33.569948 
z
" clip-path="url(#pd58512b516)" style="fill: #d62728; fill-opacity: 0.4"/>
   </g>
   <g id="PolyCollection_13">
    <path d="M 298.065 33.5691 
L 298.065 33.569104 
L 309.512105 34.702891 
L 320.959211 38.05033 
L 332.406316 42.873999 
L 343.853421 48.600729 
L 355.300526 55.482091 
L 366.747632 62.844579 
L 378.194737 70.183419 
L 389.641842 78.351596 
L 401.088947 85.001264 
L 412.536053 92.439669 
L 423.983158 99.264393 
L 435.430263 106.318023 
L 446.877368 113.027953 
L 458.324474 119.524501 
L 469.771579 124.87311 
L 481.218684 131.340142 
L 492.665789 136.693439 
L 504.112895 142.707473 
L 515.56 146.932656 
L 515.56 134.418066 
L 515.56 134.418066 
L 504.112895 129.805326 
L 492.665789 124.729471 
L 481.218684 118.150138 
L 469.771579 112.644129 
L 458.324474 107.023194 
L 446.877368 100.700405 
L 435.430263 94.060879 
L 423.983158 87.599364 
L 412.536053 80.888146 
L 401.088947 74.866135 
L 389.641842 68.244649 
L 378.194737 61.124107 
L 366.747632 55.158952 
L 355.300526 49.508355 
L 343.853421 44.377213 
L 332.406316 39.85275 
L 320.959211 36.628919 
L 309.512105 34.301824 
L 298.065 33.5691 
z
" clip-path="url(#pd58512b516)" style="fill: #9467bd; fill-opacity: 0.4"/>
   </g>
   <g id="PolyCollection_14">
    <path d="M 298.065 33.569745 
L 298.065 33.569928 
L 309.512105 34.704307 
L 320.959211 38.056327 
L 332.406316 42.887064 
L 343.853421 48.627048 
L 355.300526 55.509498 
L 366.747632 62.90766 
L 378.194737 70.274314 
L 389.641842 78.450983 
L 401.088947 85.119738 
L 412.536053 92.56104 
L 423.983158 99.369268 
L 435.430263 106.429459 
L 446.877368 113.147564 
L 458.324474 119.615895 
L 469.771579 124.978685 
L 481.218684 131.493008 
L 492.665789 136.83926 
L 504.112895 142.914775 
L 515.56 147.123824 
L 515.56 135.698302 
L 515.56 135.698302 
L 504.112895 130.9655 
L 492.665789 125.753256 
L 481.218684 119.098582 
L 469.771579 113.517415 
L 458.324474 107.837255 
L 446.877368 101.338878 
L 435.430263 94.592588 
L 423.983158 88.045642 
L 412.536053 81.200577 
L 401.088947 75.155296 
L 389.641842 68.468972 
L 378.194737 61.282157 
L 366.747632 55.285507 
L 355.300526 49.62186 
L 343.853421 44.437554 
L 332.406316 39.891991 
L 320.959211 36.64565 
L 309.512105 34.304558 
L 298.065 33.569745 
z
" clip-path="url(#pd58512b516)" style="fill: #8c564b; fill-opacity: 0.4"/>
   </g>
   <g id="PolyCollection_15">
    <path d="M 298.065 47.330986 
L 298.065 51.637705 
L 309.512105 52.516605 
L 320.959211 55.334389 
L 332.406316 59.436721 
L 343.853421 64.611621 
L 355.300526 70.657096 
L 366.747632 77.359577 
L 378.194737 83.741134 
L 389.641842 90.769558 
L 401.088947 97.00753 
L 412.536053 103.159784 
L 423.983158 109.111889 
L 435.430263 114.75207 
L 446.877368 120.983864 
L 458.324474 127.218017 
L 469.771579 132.493299 
L 481.218684 137.96952 
L 492.665789 143.154961 
L 504.112895 148.171855 
L 515.56 153.105932 
L 515.56 142.686947 
L 515.56 142.686947 
L 504.112895 138.13274 
L 492.665789 133.63669 
L 481.218684 128.039126 
L 469.771579 122.455417 
L 458.324474 117.517415 
L 446.877368 111.690667 
L 435.430263 106.071649 
L 423.983158 99.633138 
L 412.536053 93.371609 
L 401.088947 87.026223 
L 389.641842 81.219706 
L 378.194737 74.514494 
L 366.747632 68.711367 
L 355.300526 63.330454 
L 343.853421 58.26549 
L 332.406316 53.840889 
L 320.959211 50.538224 
L 309.512105 48.148871 
L 298.065 47.330986 
z
" clip-path="url(#pd58512b516)" style="fill: #e377c2; fill-opacity: 0.4"/>
   </g>
   <g id="PolyCollection_16">
    <path d="M 298.065 33.569399 
L 298.065 33.569567 
L 309.512105 34.707635 
L 320.959211 38.070788 
L 332.406316 42.858815 
L 343.853421 48.648507 
L 355.300526 55.582153 
L 366.747632 63.091866 
L 378.194737 70.235164 
L 389.641842 78.244374 
L 401.088947 85.249725 
L 412.536053 92.563565 
L 423.983158 99.507997 
L 435.430263 106.220645 
L 446.877368 113.116295 
L 458.324474 119.786153 
L 469.771579 125.738245 
L 481.218684 131.689411 
L 492.665789 137.218479 
L 504.112895 143.001596 
L 515.56 148.226871 
L 515.56 136.496703 
L 515.56 136.496703 
L 504.112895 131.045718 
L 492.665789 126.182671 
L 481.218684 119.585493 
L 469.771579 113.623893 
L 458.324474 108.177796 
L 446.877368 101.504588 
L 435.430263 95.185549 
L 423.983158 88.377617 
L 412.536053 81.659511 
L 401.088947 74.955384 
L 389.641842 68.777734 
L 378.194737 61.452525 
L 366.747632 55.416075 
L 355.300526 49.692749 
L 343.853421 44.427239 
L 332.406316 39.89946 
L 320.959211 36.659896 
L 309.512105 34.306792 
L 298.065 33.569399 
z
" clip-path="url(#pd58512b516)" style="fill: #7f7f7f; fill-opacity: 0.4"/>
   </g>
   <g id="matplotlib.axis_3">
    <g id="xtick_6">
     <g id="line2d_18">
      <g>
       <use xlink:href="#m3bcc84f6ad" x="298.065" y="174.04" style="stroke: #000000; stroke-width: 0.8"/>
      </g>
     </g>
     <g id="text_13">
      <!-- 0.0 -->
      <g transform="translate(290.113437 188.638438)scale(0.1 -0.1)">
       <use xlink:href="#DejaVuSans-30"/>
       <use xlink:href="#DejaVuSans-2e" x="63.623047"/>
       <use xlink:href="#DejaVuSans-30" x="95.410156"/>
      </g>
     </g>
    </g>
    <g id="xtick_7">
     <g id="line2d_19">
      <g>
       <use xlink:href="#m3bcc84f6ad" x="352.43875" y="174.04" style="stroke: #000000; stroke-width: 0.8"/>
      </g>
     </g>
     <g id="text_14">
      <!-- 0.5 -->
      <g transform="translate(344.487187 188.638438)scale(0.1 -0.1)">
       <use xlink:href="#DejaVuSans-30"/>
       <use xlink:href="#DejaVuSans-2e" x="63.623047"/>
       <use xlink:href="#DejaVuSans-35" x="95.410156"/>
      </g>
     </g>
    </g>
    <g id="xtick_8">
     <g id="line2d_20">
      <g>
       <use xlink:href="#m3bcc84f6ad" x="406.8125" y="174.04" style="stroke: #000000; stroke-width: 0.8"/>
      </g>
     </g>
     <g id="text_15">
      <!-- 1.0 -->
      <g transform="translate(398.860937 188.638438)scale(0.1 -0.1)">
       <use xlink:href="#DejaVuSans-31"/>
       <use xlink:href="#DejaVuSans-2e" x="63.623047"/>
       <use xlink:href="#DejaVuSans-30" x="95.410156"/>
      </g>
     </g>
    </g>
    <g id="xtick_9">
     <g id="line2d_21">
      <g>
       <use xlink:href="#m3bcc84f6ad" x="461.18625" y="174.04" style="stroke: #000000; stroke-width: 0.8"/>
      </g>
     </g>
     <g id="text_16">
      <!-- 1.5 -->
      <g transform="translate(453.234687 188.638438)scale(0.1 -0.1)">
       <use xlink:href="#DejaVuSans-31"/>
       <use xlink:href="#DejaVuSans-2e" x="63.623047"/>
       <use xlink:href="#DejaVuSans-35" x="95.410156"/>
      </g>
     </g>
    </g>
    <g id="xtick_10">
     <g id="line2d_22">
      <g>
       <use xlink:href="#m3bcc84f6ad" x="515.56" y="174.04" style="stroke: #000000; stroke-width: 0.8"/>
      </g>
     </g>
     <g id="text_17">
      <!-- 2.0 -->
      <g transform="translate(507.608437 188.638438)scale(0.1 -0.1)">
       <use xlink:href="#DejaVuSans-32"/>
       <use xlink:href="#DejaVuSans-2e" x="63.623047"/>
       <use xlink:href="#DejaVuSans-30" x="95.410156"/>
      </g>
     </g>
    </g>
    <g id="text_18">
     <!-- Influence of surprisal (multiplication) -->
     <g transform="translate(314.665625 202.316563)scale(0.1 -0.1)">
      <use xlink:href="#DejaVuSans-49"/>
      <use xlink:href="#DejaVuSans-6e" x="29.492188"/>
      <use xlink:href="#DejaVuSans-66" x="92.871094"/>
      <use xlink:href="#DejaVuSans-6c" x="128.076172"/>
      <use xlink:href="#DejaVuSans-75" x="155.859375"/>
      <use xlink:href="#DejaVuSans-65" x="219.238281"/>
      <use xlink:href="#DejaVuSans-6e" x="280.761719"/>
      <use xlink:href="#DejaVuSans-63" x="344.140625"/>
      <use xlink:href="#DejaVuSans-65" x="399.121094"/>
      <use xlink:href="#DejaVuSans-20" x="460.644531"/>
      <use xlink:href="#DejaVuSans-6f" x="492.431641"/>
      <use xlink:href="#DejaVuSans-66" x="553.613281"/>
      <use xlink:href="#DejaVuSans-20" x="588.818359"/>
      <use xlink:href="#DejaVuSans-73" x="620.605469"/>
      <use xlink:href="#DejaVuSans-75" x="672.705078"/>
      <use xlink:href="#DejaVuSans-72" x="736.083984"/>
      <use xlink:href="#DejaVuSans-70" x="777.197266"/>
      <use xlink:href="#DejaVuSans-72" x="840.673828"/>
      <use xlink:href="#DejaVuSans-69" x="881.787109"/>
      <use xlink:href="#DejaVuSans-73" x="909.570312"/>
      <use xlink:href="#DejaVuSans-61" x="961.669922"/>
      <use xlink:href="#DejaVuSans-6c" x="1022.949219"/>
      <use xlink:href="#DejaVuSans-20" x="1050.732422"/>
      <use xlink:href="#DejaVuSans-28" x="1082.519531"/>
      <use xlink:href="#DejaVuSans-6d" x="1121.533203"/>
      <use xlink:href="#DejaVuSans-75" x="1218.945312"/>
      <use xlink:href="#DejaVuSans-6c" x="1282.324219"/>
      <use xlink:href="#DejaVuSans-74" x="1310.107422"/>
      <use xlink:href="#DejaVuSans-69" x="1349.316406"/>
      <use xlink:href="#DejaVuSans-70" x="1377.099609"/>
      <use xlink:href="#DejaVuSans-6c" x="1440.576172"/>
      <use xlink:href="#DejaVuSans-69" x="1468.359375"/>
      <use xlink:href="#DejaVuSans-63" x="1496.142578"/>
      <use xlink:href="#DejaVuSans-61" x="1551.123047"/>
      <use xlink:href="#DejaVuSans-74" x="1612.402344"/>
      <use xlink:href="#DejaVuSans-69" x="1651.611328"/>
      <use xlink:href="#DejaVuSans-6f" x="1679.394531"/>
      <use xlink:href="#DejaVuSans-6e" x="1740.576172"/>
      <use xlink:href="#DejaVuSans-29" x="1803.955078"/>
     </g>
    </g>
   </g>
   <g id="line2d_23">
    <path d="M 298.065 33.569091 
L 309.512105 34.501566 
L 320.959211 37.340727 
L 332.406316 41.321751 
L 343.853421 46.448868 
L 355.300526 52.501237 
L 366.747632 59.06249 
L 378.194737 65.593569 
L 389.641842 73.193142 
L 401.088947 79.710183 
L 412.536053 86.676189 
L 423.983158 93.401544 
L 435.430263 100.043291 
L 446.877368 106.558592 
L 458.324474 113.107878 
L 469.771579 118.661563 
L 481.218684 124.508294 
L 492.665789 130.424286 
L 504.112895 135.586669 
L 515.56 140.785435 
" clip-path="url(#pd58512b516)" style="fill: none; stroke: #1f77b4; stroke-width: 1.5; stroke-linecap: square"/>
   </g>
   <g id="line2d_24">
    <path d="M 298.065 33.569276 
L 309.512105 34.503181 
L 320.959211 37.352005 
L 332.406316 41.346682 
L 343.853421 46.489588 
L 355.300526 52.569285 
L 366.747632 59.161445 
L 378.194737 65.718939 
L 389.641842 73.357647 
L 401.088947 79.903277 
L 412.536053 86.888603 
L 423.983158 93.675634 
L 435.430263 100.362783 
L 446.877368 106.929891 
L 458.324474 113.553028 
L 469.771579 119.166544 
L 481.218684 125.060149 
L 492.665789 131.022331 
L 504.112895 136.270579 
L 515.56 141.529004 
" clip-path="url(#pd58512b516)" style="fill: none; stroke: #ff7f0e; stroke-width: 1.5; stroke-linecap: square"/>
   </g>
   <g id="line2d_25">
    <path d="M 298.065 33.569102 
L 309.512105 34.503909 
L 320.959211 37.354352 
L 332.406316 41.342853 
L 343.853421 46.483881 
L 355.300526 52.556529 
L 366.747632 59.146663 
L 378.194737 65.705147 
L 389.641842 73.314682 
L 401.088947 79.851242 
L 412.536053 86.84369 
L 423.983158 93.598734 
L 435.430263 100.253166 
L 446.877368 106.781558 
L 458.324474 113.31082 
L 469.771579 118.879348 
L 481.218684 124.74667 
L 492.665789 130.694093 
L 504.112895 135.876795 
L 515.56 141.066331 
" clip-path="url(#pd58512b516)" style="fill: none; stroke: #2ca02c; stroke-width: 1.5; stroke-linecap: square"/>
   </g>
   <g id="line2d_26">
    <path d="M 298.065 33.570104 
L 309.512105 34.504949 
L 320.959211 37.361569 
L 332.406316 41.358006 
L 343.853421 46.504804 
L 355.300526 52.586928 
L 366.747632 59.193662 
L 378.194737 65.755752 
L 389.641842 73.402094 
L 401.088947 79.956986 
L 412.536053 86.950498 
L 423.983158 93.749202 
L 435.430263 100.45059 
L 446.877368 107.035751 
L 458.324474 113.656826 
L 469.771579 119.289166 
L 481.218684 125.214753 
L 492.665789 131.20358 
L 504.112895 136.425274 
L 515.56 141.649807 
" clip-path="url(#pd58512b516)" style="fill: none; stroke: #d62728; stroke-width: 1.5; stroke-linecap: square"/>
   </g>
   <g id="line2d_27">
    <path d="M 298.065 33.569102 
L 309.512105 34.502357 
L 320.959211 37.339625 
L 332.406316 41.363375 
L 343.853421 46.488971 
L 355.300526 52.495223 
L 366.747632 59.001766 
L 378.194737 65.653763 
L 389.641842 73.298123 
L 401.088947 79.933699 
L 412.536053 86.663908 
L 423.983158 93.431878 
L 435.430263 100.189451 
L 446.877368 106.864179 
L 458.324474 113.273847 
L 469.771579 118.75862 
L 481.218684 124.74514 
L 492.665789 130.711455 
L 504.112895 136.256399 
L 515.56 140.675361 
" clip-path="url(#pd58512b516)" style="fill: none; stroke: #9467bd; stroke-width: 1.5; stroke-linecap: square"/>
   </g>
   <g id="line2d_28">
    <path d="M 298.065 33.569837 
L 309.512105 34.504432 
L 320.959211 37.350989 
L 332.406316 41.389528 
L 343.853421 46.532301 
L 355.300526 52.565679 
L 366.747632 59.096583 
L 378.194737 65.778236 
L 389.641842 73.459977 
L 401.088947 80.137517 
L 412.536053 86.880808 
L 423.983158 93.707455 
L 435.430263 100.511023 
L 446.877368 107.243221 
L 458.324474 113.726575 
L 469.771579 119.24805 
L 481.218684 125.295795 
L 492.665789 131.296258 
L 504.112895 136.940137 
L 515.56 141.411063 
" clip-path="url(#pd58512b516)" style="fill: none; stroke: #8c564b; stroke-width: 1.5; stroke-linecap: square"/>
   </g>
   <g id="line2d_29">
    <path d="M 298.065 49.484346 
L 309.512105 50.332738 
L 320.959211 52.936306 
L 332.406316 56.638805 
L 343.853421 61.438555 
L 355.300526 66.993775 
L 366.747632 73.035472 
L 378.194737 79.127814 
L 389.641842 85.994632 
L 401.088947 92.016876 
L 412.536053 98.265696 
L 423.983158 104.372513 
L 435.430263 110.41186 
L 446.877368 116.337266 
L 458.324474 122.367716 
L 469.771579 127.474358 
L 481.218684 133.004323 
L 492.665789 138.395826 
L 504.112895 143.152298 
L 515.56 147.89644 
" clip-path="url(#pd58512b516)" style="fill: none; stroke: #e377c2; stroke-width: 1.5; stroke-linecap: square"/>
   </g>
   <g id="line2d_30">
    <path d="M 298.065 33.569483 
L 309.512105 34.507213 
L 320.959211 37.365342 
L 332.406316 41.379138 
L 343.853421 46.537873 
L 355.300526 52.637451 
L 366.747632 59.25397 
L 378.194737 65.843845 
L 389.641842 73.511054 
L 401.088947 80.102555 
L 412.536053 87.111538 
L 423.983158 93.942807 
L 435.430263 100.703097 
L 446.877368 107.310442 
L 458.324474 113.981975 
L 469.771579 119.681069 
L 481.218684 125.637452 
L 492.665789 131.700575 
L 504.112895 137.023657 
L 515.56 142.361787 
" clip-path="url(#pd58512b516)" style="fill: none; stroke: #7f7f7f; stroke-width: 1.5; stroke-linecap: square"/>
   </g>
   <g id="patch_6">
    <path d="M 298.065 174.04 
L 298.065 26.88 
" style="fill: none; stroke: #000000; stroke-width: 0.8; stroke-linejoin: miter; stroke-linecap: square"/>
   </g>
   <g id="patch_7">
    <path d="M 298.065 174.04 
L 515.56 174.04 
" style="fill: none; stroke: #000000; stroke-width: 0.8; stroke-linejoin: miter; stroke-linecap: square"/>
   </g>
   <g id="text_19">
    <!-- Node * third variable -->
    <g transform="translate(344.2325 20.88)scale(0.12 -0.12)">
     <defs>
      <path id="DejaVuSans-68" d="M 3513 2113 
L 3513 0 
L 2938 0 
L 2938 2094 
Q 2938 2591 2744 2837 
Q 2550 3084 2163 3084 
Q 1697 3084 1428 2787 
Q 1159 2491 1159 1978 
L 1159 0 
L 581 0 
L 581 4863 
L 1159 4863 
L 1159 2956 
Q 1366 3272 1645 3428 
Q 1925 3584 2291 3584 
Q 2894 3584 3203 3211 
Q 3513 2838 3513 2113 
z
" transform="scale(0.015625)"/>
      <path id="DejaVuSans-62" d="M 3116 1747 
Q 3116 2381 2855 2742 
Q 2594 3103 2138 3103 
Q 1681 3103 1420 2742 
Q 1159 2381 1159 1747 
Q 1159 1113 1420 752 
Q 1681 391 2138 391 
Q 2594 391 2855 752 
Q 3116 1113 3116 1747 
z
M 1159 2969 
Q 1341 3281 1617 3432 
Q 1894 3584 2278 3584 
Q 2916 3584 3314 3078 
Q 3713 2572 3713 1747 
Q 3713 922 3314 415 
Q 2916 -91 2278 -91 
Q 1894 -91 1617 61 
Q 1341 213 1159 525 
L 1159 0 
L 581 0 
L 581 4863 
L 1159 4863 
L 1159 2969 
z
" transform="scale(0.015625)"/>
     </defs>
     <use xlink:href="#DejaVuSans-4e"/>
     <use xlink:href="#DejaVuSans-6f" x="74.804688"/>
     <use xlink:href="#DejaVuSans-64" x="135.986328"/>
     <use xlink:href="#DejaVuSans-65" x="199.462891"/>
     <use xlink:href="#DejaVuSans-20" x="260.986328"/>
     <use xlink:href="#DejaVuSans-2a" x="292.773438"/>
     <use xlink:href="#DejaVuSans-20" x="342.773438"/>
     <use xlink:href="#DejaVuSans-74" x="374.560547"/>
     <use xlink:href="#DejaVuSans-68" x="413.769531"/>
     <use xlink:href="#DejaVuSans-69" x="477.148438"/>
     <use xlink:href="#DejaVuSans-72" x="504.931641"/>
     <use xlink:href="#DejaVuSans-64" x="544.294922"/>
     <use xlink:href="#DejaVuSans-20" x="607.771484"/>
     <use xlink:href="#DejaVuSans-76" x="639.558594"/>
     <use xlink:href="#DejaVuSans-61" x="698.738281"/>
     <use xlink:href="#DejaVuSans-72" x="760.017578"/>
     <use xlink:href="#DejaVuSans-69" x="801.130859"/>
     <use xlink:href="#DejaVuSans-61" x="828.914062"/>
     <use xlink:href="#DejaVuSans-62" x="890.193359"/>
     <use xlink:href="#DejaVuSans-6c" x="953.669922"/>
     <use xlink:href="#DejaVuSans-65" x="981.453125"/>
    </g>
   </g>
   <g id="legend_1">
    <g id="line2d_31">
     <path d="M 524.56 39.978437 
L 534.56 39.978437 
L 544.56 39.978437 
" style="fill: none; stroke: #1f77b4; stroke-width: 1.5; stroke-linecap: square"/>
    </g>
    <g id="text_20">
     <!-- Node -->
     <g transform="translate(552.56 43.478437)scale(0.1 -0.1)">
      <use xlink:href="#DejaVuSans-4e"/>
      <use xlink:href="#DejaVuSans-6f" x="74.804688"/>
      <use xlink:href="#DejaVuSans-64" x="135.986328"/>
      <use xlink:href="#DejaVuSans-65" x="199.462891"/>
     </g>
    </g>
    <g id="line2d_32">
     <path d="M 524.56 54.656563 
L 534.56 54.656563 
L 544.56 54.656563 
" style="fill: none; stroke: #ff7f0e; stroke-width: 1.5; stroke-linecap: square"/>
    </g>
    <g id="text_21">
     <!-- Node + surprisal -->
     <g transform="translate(552.56 58.156563)scale(0.1 -0.1)">
      <defs>
       <path id="DejaVuSans-2b" d="M 2944 4013 
L 2944 2272 
L 4684 2272 
L 4684 1741 
L 2944 1741 
L 2944 0 
L 2419 0 
L 2419 1741 
L 678 1741 
L 678 2272 
L 2419 2272 
L 2419 4013 
L 2944 4013 
z
" transform="scale(0.015625)"/>
      </defs>
      <use xlink:href="#DejaVuSans-4e"/>
      <use xlink:href="#DejaVuSans-6f" x="74.804688"/>
      <use xlink:href="#DejaVuSans-64" x="135.986328"/>
      <use xlink:href="#DejaVuSans-65" x="199.462891"/>
      <use xlink:href="#DejaVuSans-20" x="260.986328"/>
      <use xlink:href="#DejaVuSans-2b" x="292.773438"/>
      <use xlink:href="#DejaVuSans-20" x="376.5625"/>
      <use xlink:href="#DejaVuSans-73" x="408.349609"/>
      <use xlink:href="#DejaVuSans-75" x="460.449219"/>
      <use xlink:href="#DejaVuSans-72" x="523.828125"/>
      <use xlink:href="#DejaVuSans-70" x="564.941406"/>
      <use xlink:href="#DejaVuSans-72" x="628.417969"/>
      <use xlink:href="#DejaVuSans-69" x="669.53125"/>
      <use xlink:href="#DejaVuSans-73" x="697.314453"/>
      <use xlink:href="#DejaVuSans-61" x="749.414062"/>
      <use xlink:href="#DejaVuSans-6c" x="810.693359"/>
     </g>
    </g>
    <g id="line2d_33">
     <path d="M 524.56 69.334687 
L 534.56 69.334687 
L 544.56 69.334687 
" style="fill: none; stroke: #2ca02c; stroke-width: 1.5; stroke-linecap: square"/>
    </g>
    <g id="text_22">
     <!-- Node split -->
     <g transform="translate(552.56 72.834687)scale(0.1 -0.1)">
      <use xlink:href="#DejaVuSans-4e"/>
      <use xlink:href="#DejaVuSans-6f" x="74.804688"/>
      <use xlink:href="#DejaVuSans-64" x="135.986328"/>
      <use xlink:href="#DejaVuSans-65" x="199.462891"/>
      <use xlink:href="#DejaVuSans-20" x="260.986328"/>
      <use xlink:href="#DejaVuSans-73" x="292.773438"/>
      <use xlink:href="#DejaVuSans-70" x="344.873047"/>
      <use xlink:href="#DejaVuSans-6c" x="408.349609"/>
      <use xlink:href="#DejaVuSans-69" x="436.132812"/>
      <use xlink:href="#DejaVuSans-74" x="463.916016"/>
     </g>
    </g>
    <g id="line2d_34">
     <path d="M 524.56 84.012812 
L 534.56 84.012812 
L 544.56 84.012812 
" style="fill: none; stroke: #d62728; stroke-width: 1.5; stroke-linecap: square"/>
    </g>
    <g id="text_23">
     <!-- Node split + surprisal -->
     <g transform="translate(552.56 87.512812)scale(0.1 -0.1)">
      <use xlink:href="#DejaVuSans-4e"/>
      <use xlink:href="#DejaVuSans-6f" x="74.804688"/>
      <use xlink:href="#DejaVuSans-64" x="135.986328"/>
      <use xlink:href="#DejaVuSans-65" x="199.462891"/>
      <use xlink:href="#DejaVuSans-20" x="260.986328"/>
      <use xlink:href="#DejaVuSans-73" x="292.773438"/>
      <use xlink:href="#DejaVuSans-70" x="344.873047"/>
      <use xlink:href="#DejaVuSans-6c" x="408.349609"/>
      <use xlink:href="#DejaVuSans-69" x="436.132812"/>
      <use xlink:href="#DejaVuSans-74" x="463.916016"/>
      <use xlink:href="#DejaVuSans-20" x="503.125"/>
      <use xlink:href="#DejaVuSans-2b" x="534.912109"/>
      <use xlink:href="#DejaVuSans-20" x="618.701172"/>
      <use xlink:href="#DejaVuSans-73" x="650.488281"/>
      <use xlink:href="#DejaVuSans-75" x="702.587891"/>
      <use xlink:href="#DejaVuSans-72" x="765.966797"/>
      <use xlink:href="#DejaVuSans-70" x="807.080078"/>
      <use xlink:href="#DejaVuSans-72" x="870.556641"/>
      <use xlink:href="#DejaVuSans-69" x="911.669922"/>
      <use xlink:href="#DejaVuSans-73" x="939.453125"/>
      <use xlink:href="#DejaVuSans-61" x="991.552734"/>
      <use xlink:href="#DejaVuSans-6c" x="1052.832031"/>
     </g>
    </g>
    <g id="line2d_35">
     <path d="M 524.56 98.690937 
L 534.56 98.690937 
L 544.56 98.690937 
" style="fill: none; stroke: #9467bd; stroke-width: 1.5; stroke-linecap: square"/>
    </g>
    <g id="text_24">
     <!-- Node random split -->
     <g transform="translate(552.56 102.190937)scale(0.1 -0.1)">
      <use xlink:href="#DejaVuSans-4e"/>
      <use xlink:href="#DejaVuSans-6f" x="74.804688"/>
      <use xlink:href="#DejaVuSans-64" x="135.986328"/>
      <use xlink:href="#DejaVuSans-65" x="199.462891"/>
      <use xlink:href="#DejaVuSans-20" x="260.986328"/>
      <use xlink:href="#DejaVuSans-72" x="292.773438"/>
      <use xlink:href="#DejaVuSans-61" x="333.886719"/>
      <use xlink:href="#DejaVuSans-6e" x="395.166016"/>
      <use xlink:href="#DejaVuSans-64" x="458.544922"/>
      <use xlink:href="#DejaVuSans-6f" x="522.021484"/>
      <use xlink:href="#DejaVuSans-6d" x="583.203125"/>
      <use xlink:href="#DejaVuSans-20" x="680.615234"/>
      <use xlink:href="#DejaVuSans-73" x="712.402344"/>
      <use xlink:href="#DejaVuSans-70" x="764.501953"/>
      <use xlink:href="#DejaVuSans-6c" x="827.978516"/>
      <use xlink:href="#DejaVuSans-69" x="855.761719"/>
      <use xlink:href="#DejaVuSans-74" x="883.544922"/>
     </g>
    </g>
    <g id="line2d_36">
     <path d="M 524.56 113.369062 
L 534.56 113.369062 
L 544.56 113.369062 
" style="fill: none; stroke: #8c564b; stroke-width: 1.5; stroke-linecap: square"/>
    </g>
    <g id="text_25">
     <!-- Node random split + surprisal -->
     <g transform="translate(552.56 116.869062)scale(0.1 -0.1)">
      <use xlink:href="#DejaVuSans-4e"/>
      <use xlink:href="#DejaVuSans-6f" x="74.804688"/>
      <use xlink:href="#DejaVuSans-64" x="135.986328"/>
      <use xlink:href="#DejaVuSans-65" x="199.462891"/>
      <use xlink:href="#DejaVuSans-20" x="260.986328"/>
      <use xlink:href="#DejaVuSans-72" x="292.773438"/>
      <use xlink:href="#DejaVuSans-61" x="333.886719"/>
      <use xlink:href="#DejaVuSans-6e" x="395.166016"/>
      <use xlink:href="#DejaVuSans-64" x="458.544922"/>
      <use xlink:href="#DejaVuSans-6f" x="522.021484"/>
      <use xlink:href="#DejaVuSans-6d" x="583.203125"/>
      <use xlink:href="#DejaVuSans-20" x="680.615234"/>
      <use xlink:href="#DejaVuSans-73" x="712.402344"/>
      <use xlink:href="#DejaVuSans-70" x="764.501953"/>
      <use xlink:href="#DejaVuSans-6c" x="827.978516"/>
      <use xlink:href="#DejaVuSans-69" x="855.761719"/>
      <use xlink:href="#DejaVuSans-74" x="883.544922"/>
      <use xlink:href="#DejaVuSans-20" x="922.753906"/>
      <use xlink:href="#DejaVuSans-2b" x="954.541016"/>
      <use xlink:href="#DejaVuSans-20" x="1038.330078"/>
      <use xlink:href="#DejaVuSans-73" x="1070.117188"/>
      <use xlink:href="#DejaVuSans-75" x="1122.216797"/>
      <use xlink:href="#DejaVuSans-72" x="1185.595703"/>
      <use xlink:href="#DejaVuSans-70" x="1226.708984"/>
      <use xlink:href="#DejaVuSans-72" x="1290.185547"/>
      <use xlink:href="#DejaVuSans-69" x="1331.298828"/>
      <use xlink:href="#DejaVuSans-73" x="1359.082031"/>
      <use xlink:href="#DejaVuSans-61" x="1411.181641"/>
      <use xlink:href="#DejaVuSans-6c" x="1472.460938"/>
     </g>
    </g>
    <g id="line2d_37">
     <path d="M 524.56 128.047187 
L 534.56 128.047187 
L 544.56 128.047187 
" style="fill: none; stroke: #e377c2; stroke-width: 1.5; stroke-linecap: square"/>
    </g>
    <g id="text_26">
     <!-- Interaction -->
     <g transform="translate(552.56 131.547187)scale(0.1 -0.1)">
      <use xlink:href="#DejaVuSans-49"/>
      <use xlink:href="#DejaVuSans-6e" x="29.492188"/>
      <use xlink:href="#DejaVuSans-74" x="92.871094"/>
      <use xlink:href="#DejaVuSans-65" x="132.080078"/>
      <use xlink:href="#DejaVuSans-72" x="193.603516"/>
      <use xlink:href="#DejaVuSans-61" x="234.716797"/>
      <use xlink:href="#DejaVuSans-63" x="295.996094"/>
      <use xlink:href="#DejaVuSans-74" x="350.976562"/>
      <use xlink:href="#DejaVuSans-69" x="390.185547"/>
      <use xlink:href="#DejaVuSans-6f" x="417.96875"/>
      <use xlink:href="#DejaVuSans-6e" x="479.150391"/>
     </g>
    </g>
    <g id="line2d_38">
     <path d="M 524.56 142.725312 
L 534.56 142.725312 
L 544.56 142.725312 
" style="fill: none; stroke: #7f7f7f; stroke-width: 1.5; stroke-linecap: square"/>
    </g>
    <g id="text_27">
     <!-- Node + surprisal + interaction -->
     <g transform="translate(552.56 146.225312)scale(0.1 -0.1)">
      <use xlink:href="#DejaVuSans-4e"/>
      <use xlink:href="#DejaVuSans-6f" x="74.804688"/>
      <use xlink:href="#DejaVuSans-64" x="135.986328"/>
      <use xlink:href="#DejaVuSans-65" x="199.462891"/>
      <use xlink:href="#DejaVuSans-20" x="260.986328"/>
      <use xlink:href="#DejaVuSans-2b" x="292.773438"/>
      <use xlink:href="#DejaVuSans-20" x="376.5625"/>
      <use xlink:href="#DejaVuSans-73" x="408.349609"/>
      <use xlink:href="#DejaVuSans-75" x="460.449219"/>
      <use xlink:href="#DejaVuSans-72" x="523.828125"/>
      <use xlink:href="#DejaVuSans-70" x="564.941406"/>
      <use xlink:href="#DejaVuSans-72" x="628.417969"/>
      <use xlink:href="#DejaVuSans-69" x="669.53125"/>
      <use xlink:href="#DejaVuSans-73" x="697.314453"/>
      <use xlink:href="#DejaVuSans-61" x="749.414062"/>
      <use xlink:href="#DejaVuSans-6c" x="810.693359"/>
      <use xlink:href="#DejaVuSans-20" x="838.476562"/>
      <use xlink:href="#DejaVuSans-2b" x="870.263672"/>
      <use xlink:href="#DejaVuSans-20" x="954.052734"/>
      <use xlink:href="#DejaVuSans-69" x="985.839844"/>
      <use xlink:href="#DejaVuSans-6e" x="1013.623047"/>
      <use xlink:href="#DejaVuSans-74" x="1077.001953"/>
      <use xlink:href="#DejaVuSans-65" x="1116.210938"/>
      <use xlink:href="#DejaVuSans-72" x="1177.734375"/>
      <use xlink:href="#DejaVuSans-61" x="1218.847656"/>
      <use xlink:href="#DejaVuSans-63" x="1280.126953"/>
      <use xlink:href="#DejaVuSans-74" x="1335.107422"/>
      <use xlink:href="#DejaVuSans-69" x="1374.316406"/>
      <use xlink:href="#DejaVuSans-6f" x="1402.099609"/>
      <use xlink:href="#DejaVuSans-6e" x="1463.28125"/>
     </g>
    </g>
   </g>
  </g>
 </g>
 <defs>
  <clipPath id="pd36d773013">
   <rect x="47.72" y="26.88" width="217.495" height="147.16"/>
  </clipPath>
  <clipPath id="pd58512b516">
   <rect x="298.065" y="26.88" width="217.495" height="147.16"/>
  </clipPath>
 </defs>
</svg>
