<?xml version="1.0" encoding="utf-8" standalone="no"?>
<!DOCTYPE svg PUBLIC "-//W3C//DTD SVG 1.1//EN"
  "http://www.w3.org/Graphics/SVG/1.1/DTD/svg11.dtd">
<svg xmlns:xlink="http://www.w3.org/1999/xlink" width="720pt" height="216pt" viewBox="0 0 720 216" xmlns="http://www.w3.org/2000/svg" version="1.1">
 <metadata>
  <rdf:RDF xmlns:dc="http://purl.org/dc/elements/1.1/" xmlns:cc="http://creativecommons.org/ns#" xmlns:rdf="http://www.w3.org/1999/02/22-rdf-syntax-ns#">
   <cc:Work>
    <dc:type rdf:resource="http://purl.org/dc/dcmitype/StillImage"/>
    <dc:date>2024-01-16T02:48:56.732206</dc:date>
    <dc:format>image/svg+xml</dc:format>
    <dc:creator>
     <cc:Agent>
      <dc:title>Matplotlib v3.5.1, https://matplotlib.org/</dc:title>
     </cc:Agent>
    </dc:creator>
   </cc:Work>
  </rdf:RDF>
 </metadata>
 <defs>
  <style type="text/css">*{stroke-linejoin: round; stroke-linecap: butt}</style>
 </defs>
 <g id="figure_1">
  <g id="patch_1">
   <path d="M 0 216 
L 720 216 
L 720 0 
L 0 0 
z
" style="fill: #ffffff"/>
  </g>
  <g id="axes_1">
   <g id="patch_2">
    <path d="M 47.72 174.04 
L 265.215 174.04 
L 265.215 26.88 
L 47.72 26.88 
z
" style="fill: #ffffff"/>
   </g>
   <g id="PolyCollection_1">
    <path d="M 47.72 33.569091 
L 47.72 33.569092 
L 59.167105 34.622049 
L 70.614211 37.525928 
L 82.061316 41.839311 
L 93.508421 47.20695 
L 104.955526 53.503045 
L 116.402632 60.540123 
L 127.849737 68.096794 
L 139.296842 76.43276 
L 150.743947 84.142069 
L 162.191053 91.935402 
L 173.638158 99.464289 
L 185.085263 106.838543 
L 196.532368 114.103196 
L 207.979474 121.531994 
L 219.426579 127.742042 
L 230.873684 133.190657 
L 242.320789 139.685591 
L 253.767895 144.151584 
L 265.215 149.558714 
L 265.215 131.732493 
L 265.215 131.732493 
L 253.767895 127.386998 
L 242.320789 121.6429 
L 230.873684 116.394963 
L 219.426579 111.405949 
L 207.979474 105.036543 
L 196.532368 99.555214 
L 185.085263 93.774027 
L 173.638158 86.974289 
L 162.191053 80.865799 
L 150.743947 74.939763 
L 139.296842 68.611969 
L 127.849737 61.697051 
L 116.402632 55.735807 
L 104.955526 49.855966 
L 93.508421 44.393505 
L 82.061316 40.142462 
L 70.614211 36.678024 
L 59.167105 34.364209 
L 47.72 33.569091 
z
" clip-path="url(#pff6f7f31f4)" style="fill: #1f77b4; fill-opacity: 0.4"/>
   </g>
   <g id="PolyCollection_2">
    <path d="M 47.72 33.569227 
L 47.72 33.569296 
L 59.167105 34.24472 
L 70.614211 35.801593 
L 82.061316 38.164722 
L 93.508421 41.292674 
L 104.955526 45.338649 
L 116.402632 50.171156 
L 127.849737 55.687788 
L 139.296842 61.930218 
L 150.743947 67.668414 
L 162.191053 73.840664 
L 173.638158 80.105494 
L 185.085263 86.36398 
L 196.532368 93.171301 
L 207.979474 100.003734 
L 219.426579 106.545115 
L 230.873684 111.831628 
L 242.320789 118.593056 
L 253.767895 123.80571 
L 265.215 129.733172 
L 265.215 114.316201 
L 265.215 114.316201 
L 253.767895 109.738143 
L 242.320789 104.405618 
L 230.873684 99.539304 
L 219.426579 94.497597 
L 207.979474 88.940015 
L 196.532368 83.731058 
L 185.085263 78.695565 
L 173.638158 72.399037 
L 162.191053 66.964105 
L 150.743947 61.819184 
L 139.296842 56.245772 
L 127.849737 51.120133 
L 116.402632 46.862368 
L 104.955526 43.113371 
L 93.508421 39.656436 
L 82.061316 37.231399 
L 70.614211 35.337128 
L 59.167105 34.080622 
L 47.72 33.569227 
z
" clip-path="url(#pff6f7f31f4)" style="fill: #ff7f0e; fill-opacity: 0.4"/>
   </g>
   <g id="PolyCollection_3">
    <path d="M 47.72 33.569099 
L 47.72 33.569104 
L 59.167105 34.36324 
L 70.614211 35.688965 
L 82.061316 37.674421 
L 93.508421 40.143886 
L 104.955526 42.846327 
L 116.402632 46.017426 
L 127.849737 49.343127 
L 139.296842 53.228457 
L 150.743947 56.802864 
L 162.191053 60.336993 
L 173.638158 64.460612 
L 185.085263 68.359035 
L 196.532368 71.982047 
L 207.979474 76.211287 
L 219.426579 80.264984 
L 230.873684 84.003329 
L 242.320789 88.534163 
L 253.767895 91.670728 
L 265.215 96.133919 
L 265.215 83.289327 
L 265.215 83.289327 
L 253.767895 80.324074 
L 242.320789 77.515304 
L 230.873684 74.232828 
L 219.426579 71.064808 
L 207.979474 68.289863 
L 196.532368 64.890354 
L 185.085263 61.806957 
L 173.638158 58.754488 
L 162.191053 55.698497 
L 150.743947 52.458888 
L 139.296842 49.362921 
L 127.849737 46.511049 
L 116.402632 43.713778 
L 104.955526 40.968727 
L 93.508421 38.695862 
L 82.061316 36.690151 
L 70.614211 35.32369 
L 59.167105 34.175023 
L 47.72 33.569099 
z
" clip-path="url(#pff6f7f31f4)" style="fill: #2ca02c; fill-opacity: 0.4"/>
   </g>
   <g id="PolyCollection_4">
    <path d="M 47.72 33.569781 
L 47.72 33.570232 
L 59.167105 34.200968 
L 70.614211 35.203273 
L 82.061316 36.689071 
L 93.508421 38.620939 
L 104.955526 40.93075 
L 116.402632 43.709527 
L 127.849737 46.855189 
L 139.296842 50.542004 
L 150.743947 54.031558 
L 162.191053 57.552991 
L 173.638158 61.679364 
L 185.085263 65.66492 
L 196.532368 69.338274 
L 207.979474 73.654947 
L 219.426579 77.726716 
L 230.873684 81.485929 
L 242.320789 86.106891 
L 253.767895 89.297691 
L 265.215 93.863131 
L 265.215 81.746046 
L 265.215 81.746046 
L 253.767895 78.710808 
L 242.320789 75.76719 
L 230.873684 72.364649 
L 219.426579 69.146439 
L 207.979474 66.238894 
L 196.532368 62.838097 
L 185.085263 59.730198 
L 173.638158 56.52215 
L 162.191053 53.34822 
L 150.743947 50.095534 
L 139.296842 46.93661 
L 127.849737 44.20493 
L 116.402632 41.667048 
L 104.955526 39.386552 
L 93.508421 37.481197 
L 82.061316 35.947835 
L 70.614211 34.916222 
L 59.167105 34.052166 
L 47.72 33.569781 
z
" clip-path="url(#pff6f7f31f4)" style="fill: #d62728; fill-opacity: 0.4"/>
   </g>
   <g id="PolyCollection_5">
    <path d="M 47.72 33.569099 
L 47.72 33.569104 
L 59.167105 34.622489 
L 70.614211 37.541364 
L 82.061316 41.789301 
L 93.508421 47.241209 
L 104.955526 53.569203 
L 116.402632 60.540424 
L 127.849737 68.113633 
L 139.296842 76.553717 
L 150.743947 84.20711 
L 162.191053 91.942579 
L 173.638158 99.573512 
L 185.085263 106.772358 
L 196.532368 114.347795 
L 207.979474 121.654054 
L 219.426579 128.093693 
L 230.873684 133.627298 
L 242.320789 139.847857 
L 253.767895 143.915741 
L 265.215 149.237269 
L 265.215 131.116706 
L 265.215 131.116706 
L 253.767895 128.431885 
L 242.320789 122.143398 
L 230.873684 116.437537 
L 219.426579 111.599119 
L 207.979474 104.89187 
L 196.532368 99.756461 
L 185.085263 93.702284 
L 173.638158 87.090455 
L 162.191053 80.789693 
L 150.743947 75.040638 
L 139.296842 68.936805 
L 127.849737 61.698858 
L 116.402632 55.757678 
L 104.955526 49.852874 
L 93.508421 44.382398 
L 82.061316 40.161906 
L 70.614211 36.685339 
L 59.167105 34.362056 
L 47.72 33.569099 
z
" clip-path="url(#pff6f7f31f4)" style="fill: #9467bd; fill-opacity: 0.4"/>
   </g>
   <g id="PolyCollection_6">
    <path d="M 47.72 33.569643 
L 47.72 33.56992 
L 59.167105 34.245149 
L 70.614211 35.803431 
L 82.061316 38.146311 
L 93.508421 41.30975 
L 104.955526 45.3552 
L 116.402632 50.222539 
L 127.849737 55.715359 
L 139.296842 61.905322 
L 150.743947 67.725007 
L 162.191053 73.891554 
L 173.638158 80.166532 
L 185.085263 86.251518 
L 196.532368 93.32741 
L 207.979474 100.33095 
L 219.426579 106.662345 
L 230.873684 111.949437 
L 242.320789 118.534756 
L 253.767895 123.719255 
L 265.215 129.445668 
L 265.215 114.103779 
L 265.215 114.103779 
L 253.767895 110.339794 
L 242.320789 104.791504 
L 230.873684 99.519912 
L 219.426579 94.717747 
L 207.979474 88.848165 
L 196.532368 83.791509 
L 185.085263 78.651746 
L 173.638158 72.619917 
L 162.191053 66.879662 
L 150.743947 61.861169 
L 139.296842 56.419573 
L 127.849737 51.172493 
L 116.402632 46.892788 
L 104.955526 43.114337 
L 93.508421 39.664549 
L 82.061316 37.22453 
L 70.614211 35.344682 
L 59.167105 34.080845 
L 47.72 33.569643 
z
" clip-path="url(#pff6f7f31f4)" style="fill: #8c564b; fill-opacity: 0.4"/>
   </g>
   <g id="PolyCollection_7">
    <path d="M 47.72 46.135813 
L 47.72 49.243651 
L 59.167105 50.552738 
L 70.614211 54.065993 
L 82.061316 59.672958 
L 93.508421 66.434433 
L 104.955526 73.678304 
L 116.402632 81.96151 
L 127.849737 89.858251 
L 139.296842 98.790196 
L 150.743947 106.520858 
L 162.191053 114.149055 
L 173.638158 121.520846 
L 185.085263 128.926456 
L 196.532368 135.769887 
L 207.979474 142.874445 
L 219.426579 148.669278 
L 230.873684 153.827552 
L 242.320789 159.303507 
L 253.767895 163.017077 
L 265.215 167.350909 
L 265.215 148.505169 
L 265.215 148.505169 
L 253.767895 144.798309 
L 242.320789 139.70826 
L 230.873684 134.830766 
L 219.426579 130.719079 
L 207.979474 125.263291 
L 196.532368 119.671266 
L 185.085263 113.775439 
L 173.638158 107.538862 
L 162.191053 101.051474 
L 150.743947 94.164827 
L 139.296842 87.429548 
L 127.849737 79.535578 
L 116.402632 72.476776 
L 104.955526 65.467296 
L 93.508421 59.237679 
L 82.061316 54.007543 
L 70.614211 49.940966 
L 59.167105 47.222534 
L 47.72 46.135813 
z
" clip-path="url(#pff6f7f31f4)" style="fill: #e377c2; fill-opacity: 0.4"/>
   </g>
   <g id="PolyCollection_8">
    <path d="M 47.72 33.569384 
L 47.72 33.569526 
L 59.167105 33.867653 
L 70.614211 34.036833 
L 82.061316 34.675679 
L 93.508421 36.070109 
L 104.955526 38.069819 
L 116.402632 41.472198 
L 127.849737 45.575558 
L 139.296842 50.539802 
L 150.743947 55.883905 
L 162.191053 61.23622 
L 173.638158 66.853691 
L 185.085263 72.949965 
L 196.532368 78.946347 
L 207.979474 85.346152 
L 219.426579 91.509744 
L 230.873684 97.41248 
L 242.320789 104.164671 
L 253.767895 109.717599 
L 265.215 116.137931 
L 265.215 102.546035 
L 265.215 102.546035 
L 253.767895 97.513672 
L 242.320789 92.170885 
L 230.873684 86.744983 
L 219.426579 81.354624 
L 207.979474 75.700484 
L 196.532368 70.165601 
L 185.085263 64.608737 
L 173.638158 58.754844 
L 162.191053 53.416907 
L 150.743947 48.566783 
L 139.296842 44.197051 
L 127.849737 40.5959 
L 116.402632 37.833779 
L 104.955526 36.050855 
L 93.508421 34.797927 
L 82.061316 34.201029 
L 70.614211 33.949174 
L 59.167105 33.814502 
L 47.72 33.569384 
z
" clip-path="url(#pff6f7f31f4)" style="fill: #7f7f7f; fill-opacity: 0.4"/>
   </g>
   <g id="matplotlib.axis_1">
    <g id="xtick_1">
     <g id="line2d_1">
      <defs>
       <path id="m21e16c0694" d="M 0 0 
L 0 3.5 
" style="stroke: #000000; stroke-width: 0.8"/>
      </defs>
      <g>
       <use xlink:href="#m21e16c0694" x="47.72" y="174.04" style="stroke: #000000; stroke-width: 0.8"/>
      </g>
     </g>
     <g id="text_1">
      <!-- 0.0 -->
      <g transform="translate(39.768438 188.638438)scale(0.1 -0.1)">
       <defs>
        <path id="DejaVuSans-30" d="M 2034 4250 
Q 1547 4250 1301 3770 
Q 1056 3291 1056 2328 
Q 1056 1369 1301 889 
Q 1547 409 2034 409 
Q 2525 409 2770 889 
Q 3016 1369 3016 2328 
Q 3016 3291 2770 3770 
Q 2525 4250 2034 4250 
z
M 2034 4750 
Q 2819 4750 3233 4129 
Q 3647 3509 3647 2328 
Q 3647 1150 3233 529 
Q 2819 -91 2034 -91 
Q 1250 -91 836 529 
Q 422 1150 422 2328 
Q 422 3509 836 4129 
Q 1250 4750 2034 4750 
z
" transform="scale(0.015625)"/>
        <path id="DejaVuSans-2e" d="M 684 794 
L 1344 794 
L 1344 0 
L 684 0 
L 684 794 
z
" transform="scale(0.015625)"/>
       </defs>
       <use xlink:href="#DejaVuSans-30"/>
       <use xlink:href="#DejaVuSans-2e" x="63.623047"/>
       <use xlink:href="#DejaVuSans-30" x="95.410156"/>
      </g>
     </g>
    </g>
    <g id="xtick_2">
     <g id="line2d_2">
      <g>
       <use xlink:href="#m21e16c0694" x="102.09375" y="174.04" style="stroke: #000000; stroke-width: 0.8"/>
      </g>
     </g>
     <g id="text_2">
      <!-- 0.5 -->
      <g transform="translate(94.142188 188.638438)scale(0.1 -0.1)">
       <defs>
        <path id="DejaVuSans-35" d="M 691 4666 
L 3169 4666 
L 3169 4134 
L 1269 4134 
L 1269 2991 
Q 1406 3038 1543 3061 
Q 1681 3084 1819 3084 
Q 2600 3084 3056 2656 
Q 3513 2228 3513 1497 
Q 3513 744 3044 326 
Q 2575 -91 1722 -91 
Q 1428 -91 1123 -41 
Q 819 9 494 109 
L 494 744 
Q 775 591 1075 516 
Q 1375 441 1709 441 
Q 2250 441 2565 725 
Q 2881 1009 2881 1497 
Q 2881 1984 2565 2268 
Q 2250 2553 1709 2553 
Q 1456 2553 1204 2497 
Q 953 2441 691 2322 
L 691 4666 
z
" transform="scale(0.015625)"/>
       </defs>
       <use xlink:href="#DejaVuSans-30"/>
       <use xlink:href="#DejaVuSans-2e" x="63.623047"/>
       <use xlink:href="#DejaVuSans-35" x="95.410156"/>
      </g>
     </g>
    </g>
    <g id="xtick_3">
     <g id="line2d_3">
      <g>
       <use xlink:href="#m21e16c0694" x="156.4675" y="174.04" style="stroke: #000000; stroke-width: 0.8"/>
      </g>
     </g>
     <g id="text_3">
      <!-- 1.0 -->
      <g transform="translate(148.515938 188.638438)scale(0.1 -0.1)">
       <defs>
        <path id="DejaVuSans-31" d="M 794 531 
L 1825 531 
L 1825 4091 
L 703 3866 
L 703 4441 
L 1819 4666 
L 2450 4666 
L 2450 531 
L 3481 531 
L 3481 0 
L 794 0 
L 794 531 
z
" transform="scale(0.015625)"/>
       </defs>
       <use xlink:href="#DejaVuSans-31"/>
       <use xlink:href="#DejaVuSans-2e" x="63.623047"/>
       <use xlink:href="#DejaVuSans-30" x="95.410156"/>
      </g>
     </g>
    </g>
    <g id="xtick_4">
     <g id="line2d_4">
      <g>
       <use xlink:href="#m21e16c0694" x="210.84125" y="174.04" style="stroke: #000000; stroke-width: 0.8"/>
      </g>
     </g>
     <g id="text_4">
      <!-- 1.5 -->
      <g transform="translate(202.889687 188.638438)scale(0.1 -0.1)">
       <use xlink:href="#DejaVuSans-31"/>
       <use xlink:href="#DejaVuSans-2e" x="63.623047"/>
       <use xlink:href="#DejaVuSans-35" x="95.410156"/>
      </g>
     </g>
    </g>
    <g id="xtick_5">
     <g id="line2d_5">
      <g>
       <use xlink:href="#m21e16c0694" x="265.215" y="174.04" style="stroke: #000000; stroke-width: 0.8"/>
      </g>
     </g>
     <g id="text_5">
      <!-- 2.0 -->
      <g transform="translate(257.263437 188.638438)scale(0.1 -0.1)">
       <defs>
        <path id="DejaVuSans-32" d="M 1228 531 
L 3431 531 
L 3431 0 
L 469 0 
L 469 531 
Q 828 903 1448 1529 
Q 2069 2156 2228 2338 
Q 2531 2678 2651 2914 
Q 2772 3150 2772 3378 
Q 2772 3750 2511 3984 
Q 2250 4219 1831 4219 
Q 1534 4219 1204 4116 
Q 875 4013 500 3803 
L 500 4441 
Q 881 4594 1212 4672 
Q 1544 4750 1819 4750 
Q 2544 4750 2975 4387 
Q 3406 4025 3406 3419 
Q 3406 3131 3298 2873 
Q 3191 2616 2906 2266 
Q 2828 2175 2409 1742 
Q 1991 1309 1228 531 
z
" transform="scale(0.015625)"/>
       </defs>
       <use xlink:href="#DejaVuSans-32"/>
       <use xlink:href="#DejaVuSans-2e" x="63.623047"/>
       <use xlink:href="#DejaVuSans-30" x="95.410156"/>
      </g>
     </g>
    </g>
    <g id="text_6">
     <!-- Influence of surprisal (multiplication) -->
     <g transform="translate(64.320625 202.316563)scale(0.1 -0.1)">
      <defs>
       <path id="DejaVuSans-49" d="M 628 4666 
L 1259 4666 
L 1259 0 
L 628 0 
L 628 4666 
z
" transform="scale(0.015625)"/>
       <path id="DejaVuSans-6e" d="M 3513 2113 
L 3513 0 
L 2938 0 
L 2938 2094 
Q 2938 2591 2744 2837 
Q 2550 3084 2163 3084 
Q 1697 3084 1428 2787 
Q 1159 2491 1159 1978 
L 1159 0 
L 581 0 
L 581 3500 
L 1159 3500 
L 1159 2956 
Q 1366 3272 1645 3428 
Q 1925 3584 2291 3584 
Q 2894 3584 3203 3211 
Q 3513 2838 3513 2113 
z
" transform="scale(0.015625)"/>
       <path id="DejaVuSans-66" d="M 2375 4863 
L 2375 4384 
L 1825 4384 
Q 1516 4384 1395 4259 
Q 1275 4134 1275 3809 
L 1275 3500 
L 2222 3500 
L 2222 3053 
L 1275 3053 
L 1275 0 
L 697 0 
L 697 3053 
L 147 3053 
L 147 3500 
L 697 3500 
L 697 3744 
Q 697 4328 969 4595 
Q 1241 4863 1831 4863 
L 2375 4863 
z
" transform="scale(0.015625)"/>
       <path id="DejaVuSans-6c" d="M 603 4863 
L 1178 4863 
L 1178 0 
L 603 0 
L 603 4863 
z
" transform="scale(0.015625)"/>
       <path id="DejaVuSans-75" d="M 544 1381 
L 544 3500 
L 1119 3500 
L 1119 1403 
Q 1119 906 1312 657 
Q 1506 409 1894 409 
Q 2359 409 2629 706 
Q 2900 1003 2900 1516 
L 2900 3500 
L 3475 3500 
L 3475 0 
L 2900 0 
L 2900 538 
Q 2691 219 2414 64 
Q 2138 -91 1772 -91 
Q 1169 -91 856 284 
Q 544 659 544 1381 
z
M 1991 3584 
L 1991 3584 
z
" transform="scale(0.015625)"/>
       <path id="DejaVuSans-65" d="M 3597 1894 
L 3597 1613 
L 953 1613 
Q 991 1019 1311 708 
Q 1631 397 2203 397 
Q 2534 397 2845 478 
Q 3156 559 3463 722 
L 3463 178 
Q 3153 47 2828 -22 
Q 2503 -91 2169 -91 
Q 1331 -91 842 396 
Q 353 884 353 1716 
Q 353 2575 817 3079 
Q 1281 3584 2069 3584 
Q 2775 3584 3186 3129 
Q 3597 2675 3597 1894 
z
M 3022 2063 
Q 3016 2534 2758 2815 
Q 2500 3097 2075 3097 
Q 1594 3097 1305 2825 
Q 1016 2553 972 2059 
L 3022 2063 
z
" transform="scale(0.015625)"/>
       <path id="DejaVuSans-63" d="M 3122 3366 
L 3122 2828 
Q 2878 2963 2633 3030 
Q 2388 3097 2138 3097 
Q 1578 3097 1268 2742 
Q 959 2388 959 1747 
Q 959 1106 1268 751 
Q 1578 397 2138 397 
Q 2388 397 2633 464 
Q 2878 531 3122 666 
L 3122 134 
Q 2881 22 2623 -34 
Q 2366 -91 2075 -91 
Q 1284 -91 818 406 
Q 353 903 353 1747 
Q 353 2603 823 3093 
Q 1294 3584 2113 3584 
Q 2378 3584 2631 3529 
Q 2884 3475 3122 3366 
z
" transform="scale(0.015625)"/>
       <path id="DejaVuSans-20" transform="scale(0.015625)"/>
       <path id="DejaVuSans-6f" d="M 1959 3097 
Q 1497 3097 1228 2736 
Q 959 2375 959 1747 
Q 959 1119 1226 758 
Q 1494 397 1959 397 
Q 2419 397 2687 759 
Q 2956 1122 2956 1747 
Q 2956 2369 2687 2733 
Q 2419 3097 1959 3097 
z
M 1959 3584 
Q 2709 3584 3137 3096 
Q 3566 2609 3566 1747 
Q 3566 888 3137 398 
Q 2709 -91 1959 -91 
Q 1206 -91 779 398 
Q 353 888 353 1747 
Q 353 2609 779 3096 
Q 1206 3584 1959 3584 
z
" transform="scale(0.015625)"/>
       <path id="DejaVuSans-73" d="M 2834 3397 
L 2834 2853 
Q 2591 2978 2328 3040 
Q 2066 3103 1784 3103 
Q 1356 3103 1142 2972 
Q 928 2841 928 2578 
Q 928 2378 1081 2264 
Q 1234 2150 1697 2047 
L 1894 2003 
Q 2506 1872 2764 1633 
Q 3022 1394 3022 966 
Q 3022 478 2636 193 
Q 2250 -91 1575 -91 
Q 1294 -91 989 -36 
Q 684 19 347 128 
L 347 722 
Q 666 556 975 473 
Q 1284 391 1588 391 
Q 1994 391 2212 530 
Q 2431 669 2431 922 
Q 2431 1156 2273 1281 
Q 2116 1406 1581 1522 
L 1381 1569 
Q 847 1681 609 1914 
Q 372 2147 372 2553 
Q 372 3047 722 3315 
Q 1072 3584 1716 3584 
Q 2034 3584 2315 3537 
Q 2597 3491 2834 3397 
z
" transform="scale(0.015625)"/>
       <path id="DejaVuSans-72" d="M 2631 2963 
Q 2534 3019 2420 3045 
Q 2306 3072 2169 3072 
Q 1681 3072 1420 2755 
Q 1159 2438 1159 1844 
L 1159 0 
L 581 0 
L 581 3500 
L 1159 3500 
L 1159 2956 
Q 1341 3275 1631 3429 
Q 1922 3584 2338 3584 
Q 2397 3584 2469 3576 
Q 2541 3569 2628 3553 
L 2631 2963 
z
" transform="scale(0.015625)"/>
       <path id="DejaVuSans-70" d="M 1159 525 
L 1159 -1331 
L 581 -1331 
L 581 3500 
L 1159 3500 
L 1159 2969 
Q 1341 3281 1617 3432 
Q 1894 3584 2278 3584 
Q 2916 3584 3314 3078 
Q 3713 2572 3713 1747 
Q 3713 922 3314 415 
Q 2916 -91 2278 -91 
Q 1894 -91 1617 61 
Q 1341 213 1159 525 
z
M 3116 1747 
Q 3116 2381 2855 2742 
Q 2594 3103 2138 3103 
Q 1681 3103 1420 2742 
Q 1159 2381 1159 1747 
Q 1159 1113 1420 752 
Q 1681 391 2138 391 
Q 2594 391 2855 752 
Q 3116 1113 3116 1747 
z
" transform="scale(0.015625)"/>
       <path id="DejaVuSans-69" d="M 603 3500 
L 1178 3500 
L 1178 0 
L 603 0 
L 603 3500 
z
M 603 4863 
L 1178 4863 
L 1178 4134 
L 603 4134 
L 603 4863 
z
" transform="scale(0.015625)"/>
       <path id="DejaVuSans-61" d="M 2194 1759 
Q 1497 1759 1228 1600 
Q 959 1441 959 1056 
Q 959 750 1161 570 
Q 1363 391 1709 391 
Q 2188 391 2477 730 
Q 2766 1069 2766 1631 
L 2766 1759 
L 2194 1759 
z
M 3341 1997 
L 3341 0 
L 2766 0 
L 2766 531 
Q 2569 213 2275 61 
Q 1981 -91 1556 -91 
Q 1019 -91 701 211 
Q 384 513 384 1019 
Q 384 1609 779 1909 
Q 1175 2209 1959 2209 
L 2766 2209 
L 2766 2266 
Q 2766 2663 2505 2880 
Q 2244 3097 1772 3097 
Q 1472 3097 1187 3025 
Q 903 2953 641 2809 
L 641 3341 
Q 956 3463 1253 3523 
Q 1550 3584 1831 3584 
Q 2591 3584 2966 3190 
Q 3341 2797 3341 1997 
z
" transform="scale(0.015625)"/>
       <path id="DejaVuSans-28" d="M 1984 4856 
Q 1566 4138 1362 3434 
Q 1159 2731 1159 2009 
Q 1159 1288 1364 580 
Q 1569 -128 1984 -844 
L 1484 -844 
Q 1016 -109 783 600 
Q 550 1309 550 2009 
Q 550 2706 781 3412 
Q 1013 4119 1484 4856 
L 1984 4856 
z
" transform="scale(0.015625)"/>
       <path id="DejaVuSans-6d" d="M 3328 2828 
Q 3544 3216 3844 3400 
Q 4144 3584 4550 3584 
Q 5097 3584 5394 3201 
Q 5691 2819 5691 2113 
L 5691 0 
L 5113 0 
L 5113 2094 
Q 5113 2597 4934 2840 
Q 4756 3084 4391 3084 
Q 3944 3084 3684 2787 
Q 3425 2491 3425 1978 
L 3425 0 
L 2847 0 
L 2847 2094 
Q 2847 2600 2669 2842 
Q 2491 3084 2119 3084 
Q 1678 3084 1418 2786 
Q 1159 2488 1159 1978 
L 1159 0 
L 581 0 
L 581 3500 
L 1159 3500 
L 1159 2956 
Q 1356 3278 1631 3431 
Q 1906 3584 2284 3584 
Q 2666 3584 2933 3390 
Q 3200 3197 3328 2828 
z
" transform="scale(0.015625)"/>
       <path id="DejaVuSans-74" d="M 1172 4494 
L 1172 3500 
L 2356 3500 
L 2356 3053 
L 1172 3053 
L 1172 1153 
Q 1172 725 1289 603 
Q 1406 481 1766 481 
L 2356 481 
L 2356 0 
L 1766 0 
Q 1100 0 847 248 
Q 594 497 594 1153 
L 594 3053 
L 172 3053 
L 172 3500 
L 594 3500 
L 594 4494 
L 1172 4494 
z
" transform="scale(0.015625)"/>
       <path id="DejaVuSans-29" d="M 513 4856 
L 1013 4856 
Q 1481 4119 1714 3412 
Q 1947 2706 1947 2009 
Q 1947 1309 1714 600 
Q 1481 -109 1013 -844 
L 513 -844 
Q 928 -128 1133 580 
Q 1338 1288 1338 2009 
Q 1338 2731 1133 3434 
Q 928 4138 513 4856 
z
" transform="scale(0.015625)"/>
      </defs>
      <use xlink:href="#DejaVuSans-49"/>
      <use xlink:href="#DejaVuSans-6e" x="29.492188"/>
      <use xlink:href="#DejaVuSans-66" x="92.871094"/>
      <use xlink:href="#DejaVuSans-6c" x="128.076172"/>
      <use xlink:href="#DejaVuSans-75" x="155.859375"/>
      <use xlink:href="#DejaVuSans-65" x="219.238281"/>
      <use xlink:href="#DejaVuSans-6e" x="280.761719"/>
      <use xlink:href="#DejaVuSans-63" x="344.140625"/>
      <use xlink:href="#DejaVuSans-65" x="399.121094"/>
      <use xlink:href="#DejaVuSans-20" x="460.644531"/>
      <use xlink:href="#DejaVuSans-6f" x="492.431641"/>
      <use xlink:href="#DejaVuSans-66" x="553.613281"/>
      <use xlink:href="#DejaVuSans-20" x="588.818359"/>
      <use xlink:href="#DejaVuSans-73" x="620.605469"/>
      <use xlink:href="#DejaVuSans-75" x="672.705078"/>
      <use xlink:href="#DejaVuSans-72" x="736.083984"/>
      <use xlink:href="#DejaVuSans-70" x="777.197266"/>
      <use xlink:href="#DejaVuSans-72" x="840.673828"/>
      <use xlink:href="#DejaVuSans-69" x="881.787109"/>
      <use xlink:href="#DejaVuSans-73" x="909.570312"/>
      <use xlink:href="#DejaVuSans-61" x="961.669922"/>
      <use xlink:href="#DejaVuSans-6c" x="1022.949219"/>
      <use xlink:href="#DejaVuSans-20" x="1050.732422"/>
      <use xlink:href="#DejaVuSans-28" x="1082.519531"/>
      <use xlink:href="#DejaVuSans-6d" x="1121.533203"/>
      <use xlink:href="#DejaVuSans-75" x="1218.945312"/>
      <use xlink:href="#DejaVuSans-6c" x="1282.324219"/>
      <use xlink:href="#DejaVuSans-74" x="1310.107422"/>
      <use xlink:href="#DejaVuSans-69" x="1349.316406"/>
      <use xlink:href="#DejaVuSans-70" x="1377.099609"/>
      <use xlink:href="#DejaVuSans-6c" x="1440.576172"/>
      <use xlink:href="#DejaVuSans-69" x="1468.359375"/>
      <use xlink:href="#DejaVuSans-63" x="1496.142578"/>
      <use xlink:href="#DejaVuSans-61" x="1551.123047"/>
      <use xlink:href="#DejaVuSans-74" x="1612.402344"/>
      <use xlink:href="#DejaVuSans-69" x="1651.611328"/>
      <use xlink:href="#DejaVuSans-6f" x="1679.394531"/>
      <use xlink:href="#DejaVuSans-6e" x="1740.576172"/>
      <use xlink:href="#DejaVuSans-29" x="1803.955078"/>
     </g>
    </g>
   </g>
   <g id="matplotlib.axis_2">
    <g id="ytick_1">
     <g id="line2d_6">
      <defs>
       <path id="mc4cee171d1" d="M 0 0 
L -3.5 0 
" style="stroke: #000000; stroke-width: 0.8"/>
      </defs>
      <g>
       <use xlink:href="#mc4cee171d1" x="47.72" y="143.047631" style="stroke: #000000; stroke-width: 0.8"/>
      </g>
     </g>
     <g id="text_7">
      <!-- 0.4 -->
      <g transform="translate(24.816875 146.84685)scale(0.1 -0.1)">
       <defs>
        <path id="DejaVuSans-34" d="M 2419 4116 
L 825 1625 
L 2419 1625 
L 2419 4116 
z
M 2253 4666 
L 3047 4666 
L 3047 1625 
L 3713 1625 
L 3713 1100 
L 3047 1100 
L 3047 0 
L 2419 0 
L 2419 1100 
L 313 1100 
L 313 1709 
L 2253 4666 
z
" transform="scale(0.015625)"/>
       </defs>
       <use xlink:href="#DejaVuSans-30"/>
       <use xlink:href="#DejaVuSans-2e" x="63.623047"/>
       <use xlink:href="#DejaVuSans-34" x="95.410156"/>
      </g>
     </g>
    </g>
    <g id="ytick_2">
     <g id="line2d_7">
      <g>
       <use xlink:href="#mc4cee171d1" x="47.72" y="106.554784" style="stroke: #000000; stroke-width: 0.8"/>
      </g>
     </g>
     <g id="text_8">
      <!-- 0.6 -->
      <g transform="translate(24.816875 110.354002)scale(0.1 -0.1)">
       <defs>
        <path id="DejaVuSans-36" d="M 2113 2584 
Q 1688 2584 1439 2293 
Q 1191 2003 1191 1497 
Q 1191 994 1439 701 
Q 1688 409 2113 409 
Q 2538 409 2786 701 
Q 3034 994 3034 1497 
Q 3034 2003 2786 2293 
Q 2538 2584 2113 2584 
z
M 3366 4563 
L 3366 3988 
Q 3128 4100 2886 4159 
Q 2644 4219 2406 4219 
Q 1781 4219 1451 3797 
Q 1122 3375 1075 2522 
Q 1259 2794 1537 2939 
Q 1816 3084 2150 3084 
Q 2853 3084 3261 2657 
Q 3669 2231 3669 1497 
Q 3669 778 3244 343 
Q 2819 -91 2113 -91 
Q 1303 -91 875 529 
Q 447 1150 447 2328 
Q 447 3434 972 4092 
Q 1497 4750 2381 4750 
Q 2619 4750 2861 4703 
Q 3103 4656 3366 4563 
z
" transform="scale(0.015625)"/>
       </defs>
       <use xlink:href="#DejaVuSans-30"/>
       <use xlink:href="#DejaVuSans-2e" x="63.623047"/>
       <use xlink:href="#DejaVuSans-36" x="95.410156"/>
      </g>
     </g>
    </g>
    <g id="ytick_3">
     <g id="line2d_8">
      <g>
       <use xlink:href="#mc4cee171d1" x="47.72" y="70.061936" style="stroke: #000000; stroke-width: 0.8"/>
      </g>
     </g>
     <g id="text_9">
      <!-- 0.8 -->
      <g transform="translate(24.816875 73.861155)scale(0.1 -0.1)">
       <defs>
        <path id="DejaVuSans-38" d="M 2034 2216 
Q 1584 2216 1326 1975 
Q 1069 1734 1069 1313 
Q 1069 891 1326 650 
Q 1584 409 2034 409 
Q 2484 409 2743 651 
Q 3003 894 3003 1313 
Q 3003 1734 2745 1975 
Q 2488 2216 2034 2216 
z
M 1403 2484 
Q 997 2584 770 2862 
Q 544 3141 544 3541 
Q 544 4100 942 4425 
Q 1341 4750 2034 4750 
Q 2731 4750 3128 4425 
Q 3525 4100 3525 3541 
Q 3525 3141 3298 2862 
Q 3072 2584 2669 2484 
Q 3125 2378 3379 2068 
Q 3634 1759 3634 1313 
Q 3634 634 3220 271 
Q 2806 -91 2034 -91 
Q 1263 -91 848 271 
Q 434 634 434 1313 
Q 434 1759 690 2068 
Q 947 2378 1403 2484 
z
M 1172 3481 
Q 1172 3119 1398 2916 
Q 1625 2713 2034 2713 
Q 2441 2713 2670 2916 
Q 2900 3119 2900 3481 
Q 2900 3844 2670 4047 
Q 2441 4250 2034 4250 
Q 1625 4250 1398 4047 
Q 1172 3844 1172 3481 
z
" transform="scale(0.015625)"/>
       </defs>
       <use xlink:href="#DejaVuSans-30"/>
       <use xlink:href="#DejaVuSans-2e" x="63.623047"/>
       <use xlink:href="#DejaVuSans-38" x="95.410156"/>
      </g>
     </g>
    </g>
    <g id="ytick_4">
     <g id="line2d_9">
      <g>
       <use xlink:href="#mc4cee171d1" x="47.72" y="33.569088" style="stroke: #000000; stroke-width: 0.8"/>
      </g>
     </g>
     <g id="text_10">
      <!-- 1.0 -->
      <g transform="translate(24.816875 37.368307)scale(0.1 -0.1)">
       <use xlink:href="#DejaVuSans-31"/>
       <use xlink:href="#DejaVuSans-2e" x="63.623047"/>
       <use xlink:href="#DejaVuSans-30" x="95.410156"/>
      </g>
     </g>
    </g>
    <g id="text_11">
     <!-- R-value -->
     <g transform="translate(18.737188 119.064687)rotate(-90)scale(0.1 -0.1)">
      <defs>
       <path id="DejaVuSans-52" d="M 2841 2188 
Q 3044 2119 3236 1894 
Q 3428 1669 3622 1275 
L 4263 0 
L 3584 0 
L 2988 1197 
Q 2756 1666 2539 1819 
Q 2322 1972 1947 1972 
L 1259 1972 
L 1259 0 
L 628 0 
L 628 4666 
L 2053 4666 
Q 2853 4666 3247 4331 
Q 3641 3997 3641 3322 
Q 3641 2881 3436 2590 
Q 3231 2300 2841 2188 
z
M 1259 4147 
L 1259 2491 
L 2053 2491 
Q 2509 2491 2742 2702 
Q 2975 2913 2975 3322 
Q 2975 3731 2742 3939 
Q 2509 4147 2053 4147 
L 1259 4147 
z
" transform="scale(0.015625)"/>
       <path id="DejaVuSans-2d" d="M 313 2009 
L 1997 2009 
L 1997 1497 
L 313 1497 
L 313 2009 
z
" transform="scale(0.015625)"/>
       <path id="DejaVuSans-76" d="M 191 3500 
L 800 3500 
L 1894 563 
L 2988 3500 
L 3597 3500 
L 2284 0 
L 1503 0 
L 191 3500 
z
" transform="scale(0.015625)"/>
      </defs>
      <use xlink:href="#DejaVuSans-52"/>
      <use xlink:href="#DejaVuSans-2d" x="65.482422"/>
      <use xlink:href="#DejaVuSans-76" x="98.941406"/>
      <use xlink:href="#DejaVuSans-61" x="158.121094"/>
      <use xlink:href="#DejaVuSans-6c" x="219.400391"/>
      <use xlink:href="#DejaVuSans-75" x="247.183594"/>
      <use xlink:href="#DejaVuSans-65" x="310.5625"/>
     </g>
    </g>
   </g>
   <g id="line2d_10">
    <path d="M 47.72 33.569091 
L 59.167105 34.493129 
L 70.614211 37.101976 
L 82.061316 40.990886 
L 93.508421 45.800228 
L 104.955526 51.679506 
L 116.402632 58.137965 
L 127.849737 64.896922 
L 139.296842 72.522364 
L 150.743947 79.540916 
L 162.191053 86.400601 
L 173.638158 93.219289 
L 185.085263 100.306285 
L 196.532368 106.829205 
L 207.979474 113.284269 
L 219.426579 119.573995 
L 230.873684 124.79281 
L 242.320789 130.664246 
L 253.767895 135.769291 
L 265.215 140.645603 
" clip-path="url(#pff6f7f31f4)" style="fill: none; stroke: #1f77b4; stroke-width: 1.5; stroke-linecap: square"/>
   </g>
   <g id="line2d_11">
    <path d="M 47.72 33.569261 
L 59.167105 34.162671 
L 70.614211 35.569361 
L 82.061316 37.69806 
L 93.508421 40.474555 
L 104.955526 44.22601 
L 116.402632 48.516762 
L 127.849737 53.40396 
L 139.296842 59.087995 
L 150.743947 64.743799 
L 162.191053 70.402385 
L 173.638158 76.252265 
L 185.085263 82.529772 
L 196.532368 88.451179 
L 207.979474 94.471875 
L 219.426579 100.521356 
L 230.873684 105.685466 
L 242.320789 111.499337 
L 253.767895 116.771926 
L 265.215 122.024687 
" clip-path="url(#pff6f7f31f4)" style="fill: none; stroke: #ff7f0e; stroke-width: 1.5; stroke-linecap: square"/>
   </g>
   <g id="line2d_12">
    <path d="M 47.72 33.569102 
L 59.167105 34.269131 
L 70.614211 35.506327 
L 82.061316 37.182286 
L 93.508421 39.419874 
L 104.955526 41.907527 
L 116.402632 44.865602 
L 127.849737 47.927088 
L 139.296842 51.295689 
L 150.743947 54.630876 
L 162.191053 58.017745 
L 173.638158 61.60755 
L 185.085263 65.082996 
L 196.532368 68.4362 
L 207.979474 72.250575 
L 219.426579 75.664896 
L 230.873684 79.118079 
L 242.320789 83.024733 
L 253.767895 85.997401 
L 265.215 89.711623 
" clip-path="url(#pff6f7f31f4)" style="fill: none; stroke: #2ca02c; stroke-width: 1.5; stroke-linecap: square"/>
   </g>
   <g id="line2d_13">
    <path d="M 47.72 33.570007 
L 59.167105 34.126567 
L 70.614211 35.059747 
L 82.061316 36.318453 
L 93.508421 38.051068 
L 104.955526 40.158651 
L 116.402632 42.688287 
L 127.849737 45.530059 
L 139.296842 48.739307 
L 150.743947 52.063546 
L 162.191053 55.450605 
L 173.638158 59.100757 
L 185.085263 62.697559 
L 196.532368 66.088186 
L 207.979474 69.946921 
L 219.426579 73.436578 
L 230.873684 76.925289 
L 242.320789 80.937041 
L 253.767895 84.004249 
L 265.215 87.804589 
" clip-path="url(#pff6f7f31f4)" style="fill: none; stroke: #d62728; stroke-width: 1.5; stroke-linecap: square"/>
   </g>
   <g id="line2d_14">
    <path d="M 47.72 33.569102 
L 59.167105 34.492272 
L 70.614211 37.113352 
L 82.061316 40.975604 
L 93.508421 45.811804 
L 104.955526 51.711038 
L 116.402632 58.149051 
L 127.849737 64.906246 
L 139.296842 72.745261 
L 150.743947 79.623874 
L 162.191053 86.366136 
L 173.638158 93.331983 
L 185.085263 100.237321 
L 196.532368 107.052128 
L 207.979474 113.272962 
L 219.426579 119.846406 
L 230.873684 125.032417 
L 242.320789 130.995628 
L 253.767895 136.173813 
L 265.215 140.176987 
" clip-path="url(#pff6f7f31f4)" style="fill: none; stroke: #9467bd; stroke-width: 1.5; stroke-linecap: square"/>
   </g>
   <g id="line2d_15">
    <path d="M 47.72 33.569781 
L 59.167105 34.162997 
L 70.614211 35.574057 
L 82.061316 37.685421 
L 93.508421 40.487149 
L 104.955526 44.234768 
L 116.402632 48.557664 
L 127.849737 53.443926 
L 139.296842 59.162447 
L 150.743947 64.793088 
L 162.191053 70.385608 
L 173.638158 76.393224 
L 185.085263 82.451632 
L 196.532368 88.559459 
L 207.979474 94.589558 
L 219.426579 100.690046 
L 230.873684 105.734675 
L 242.320789 111.66313 
L 253.767895 117.029525 
L 265.215 121.774723 
" clip-path="url(#pff6f7f31f4)" style="fill: none; stroke: #8c564b; stroke-width: 1.5; stroke-linecap: square"/>
   </g>
   <g id="line2d_16">
    <path d="M 47.72 47.689732 
L 59.167105 48.887636 
L 70.614211 52.003479 
L 82.061316 56.84025 
L 93.508421 62.836056 
L 104.955526 69.5728 
L 116.402632 77.219143 
L 127.849737 84.696914 
L 139.296842 93.109872 
L 150.743947 100.342842 
L 162.191053 107.600264 
L 173.638158 114.529854 
L 185.085263 121.350948 
L 196.532368 127.720576 
L 207.979474 134.068868 
L 219.426579 139.694178 
L 230.873684 144.329159 
L 242.320789 149.505884 
L 253.767895 153.907693 
L 265.215 157.928039 
" clip-path="url(#pff6f7f31f4)" style="fill: none; stroke: #e377c2; stroke-width: 1.5; stroke-linecap: square"/>
   </g>
   <g id="line2d_17">
    <path d="M 47.72 33.569455 
L 59.167105 33.841077 
L 70.614211 33.993003 
L 82.061316 34.438354 
L 93.508421 35.434018 
L 104.955526 37.060337 
L 116.402632 39.652989 
L 127.849737 43.085729 
L 139.296842 47.368426 
L 150.743947 52.225344 
L 162.191053 57.326563 
L 173.638158 62.804268 
L 185.085263 68.779351 
L 196.532368 74.555974 
L 207.979474 80.523318 
L 219.426579 86.432184 
L 230.873684 92.078731 
L 242.320789 98.167778 
L 253.767895 103.615635 
L 265.215 109.341983 
" clip-path="url(#pff6f7f31f4)" style="fill: none; stroke: #7f7f7f; stroke-width: 1.5; stroke-linecap: square"/>
   </g>
   <g id="patch_3">
    <path d="M 47.72 174.04 
L 47.72 26.88 
" style="fill: none; stroke: #000000; stroke-width: 0.8; stroke-linejoin: miter; stroke-linecap: square"/>
   </g>
   <g id="patch_4">
    <path d="M 47.72 174.04 
L 265.215 174.04 
" style="fill: none; stroke: #000000; stroke-width: 0.8; stroke-linejoin: miter; stroke-linecap: square"/>
   </g>
   <g id="text_12">
    <!-- Node * surprisal -->
    <g transform="translate(108.18625 20.88)scale(0.12 -0.12)">
     <defs>
      <path id="DejaVuSans-4e" d="M 628 4666 
L 1478 4666 
L 3547 763 
L 3547 4666 
L 4159 4666 
L 4159 0 
L 3309 0 
L 1241 3903 
L 1241 0 
L 628 0 
L 628 4666 
z
" transform="scale(0.015625)"/>
      <path id="DejaVuSans-64" d="M 2906 2969 
L 2906 4863 
L 3481 4863 
L 3481 0 
L 2906 0 
L 2906 525 
Q 2725 213 2448 61 
Q 2172 -91 1784 -91 
Q 1150 -91 751 415 
Q 353 922 353 1747 
Q 353 2572 751 3078 
Q 1150 3584 1784 3584 
Q 2172 3584 2448 3432 
Q 2725 3281 2906 2969 
z
M 947 1747 
Q 947 1113 1208 752 
Q 1469 391 1925 391 
Q 2381 391 2643 752 
Q 2906 1113 2906 1747 
Q 2906 2381 2643 2742 
Q 2381 3103 1925 3103 
Q 1469 3103 1208 2742 
Q 947 2381 947 1747 
z
" transform="scale(0.015625)"/>
      <path id="DejaVuSans-2a" d="M 3009 3897 
L 1888 3291 
L 3009 2681 
L 2828 2375 
L 1778 3009 
L 1778 1831 
L 1422 1831 
L 1422 3009 
L 372 2375 
L 191 2681 
L 1313 3291 
L 191 3897 
L 372 4206 
L 1422 3572 
L 1422 4750 
L 1778 4750 
L 1778 3572 
L 2828 4206 
L 3009 3897 
z
" transform="scale(0.015625)"/>
     </defs>
     <use xlink:href="#DejaVuSans-4e"/>
     <use xlink:href="#DejaVuSans-6f" x="74.804688"/>
     <use xlink:href="#DejaVuSans-64" x="135.986328"/>
     <use xlink:href="#DejaVuSans-65" x="199.462891"/>
     <use xlink:href="#DejaVuSans-20" x="260.986328"/>
     <use xlink:href="#DejaVuSans-2a" x="292.773438"/>
     <use xlink:href="#DejaVuSans-20" x="342.773438"/>
     <use xlink:href="#DejaVuSans-73" x="374.560547"/>
     <use xlink:href="#DejaVuSans-75" x="426.660156"/>
     <use xlink:href="#DejaVuSans-72" x="490.039062"/>
     <use xlink:href="#DejaVuSans-70" x="531.152344"/>
     <use xlink:href="#DejaVuSans-72" x="594.628906"/>
     <use xlink:href="#DejaVuSans-69" x="635.742188"/>
     <use xlink:href="#DejaVuSans-73" x="663.525391"/>
     <use xlink:href="#DejaVuSans-61" x="715.625"/>
     <use xlink:href="#DejaVuSans-6c" x="776.904297"/>
    </g>
   </g>
  </g>
  <g id="axes_2">
   <g id="patch_5">
    <path d="M 298.065 174.04 
L 515.56 174.04 
L 515.56 26.88 
L 298.065 26.88 
z
" style="fill: #ffffff"/>
   </g>
   <g id="PolyCollection_9">
    <path d="M 298.065 33.569091 
L 298.065 33.569092 
L 309.512105 34.746495 
L 320.959211 38.018129 
L 332.406316 42.762029 
L 343.853421 48.173804 
L 355.300526 54.98219 
L 366.747632 62.405861 
L 378.194737 70.098749 
L 389.641842 77.795715 
L 401.088947 85.898038 
L 412.536053 94.191699 
L 423.983158 102.461072 
L 435.430263 109.781581 
L 446.877368 117.990338 
L 458.324474 124.549146 
L 469.771579 131.104862 
L 481.218684 136.938279 
L 492.665789 142.671339 
L 504.112895 147.667052 
L 515.56 152.810469 
L 515.56 138.116094 
L 515.56 138.116094 
L 504.112895 133.409008 
L 492.665789 128.463354 
L 481.218684 121.782041 
L 469.771579 116.977105 
L 458.324474 110.608836 
L 446.877368 104.782077 
L 435.430263 97.90018 
L 423.983158 91.384387 
L 412.536053 84.596093 
L 401.088947 77.297036 
L 389.641842 70.331637 
L 378.194737 63.083458 
L 366.747632 56.437016 
L 355.300526 50.087936 
L 343.853421 44.652997 
L 332.406316 39.902125 
L 320.959211 36.566023 
L 309.512105 34.326243 
L 298.065 33.569091 
z
" clip-path="url(#p7fca490ef6)" style="fill: #1f77b4; fill-opacity: 0.4"/>
   </g>
   <g id="PolyCollection_10">
    <path d="M 298.065 33.569227 
L 298.065 33.569296 
L 309.512105 34.746753 
L 320.959211 38.023373 
L 332.406316 42.770974 
L 343.853421 48.198088 
L 355.300526 54.998769 
L 366.747632 62.405409 
L 378.194737 70.113481 
L 389.641842 77.797004 
L 401.088947 85.915685 
L 412.536053 94.246233 
L 423.983158 102.562115 
L 435.430263 109.929557 
L 446.877368 118.164142 
L 458.324474 124.783842 
L 469.771579 131.368712 
L 481.218684 137.266624 
L 492.665789 143.073034 
L 504.112895 148.126115 
L 515.56 153.288421 
L 515.56 138.470268 
L 515.56 138.470268 
L 504.112895 133.760287 
L 492.665789 128.812839 
L 481.218684 122.13484 
L 469.771579 117.276859 
L 458.324474 110.906096 
L 446.877368 105.070897 
L 435.430263 98.099161 
L 423.983158 91.52908 
L 412.536053 84.702522 
L 401.088947 77.368365 
L 389.641842 70.353582 
L 378.194737 63.067188 
L 366.747632 56.419915 
L 355.300526 50.052073 
L 343.853421 44.617763 
L 332.406316 39.873337 
L 320.959211 36.55115 
L 309.512105 34.32561 
L 298.065 33.569227 
z
" clip-path="url(#p7fca490ef6)" style="fill: #ff7f0e; fill-opacity: 0.4"/>
   </g>
   <g id="PolyCollection_11">
    <path d="M 298.065 33.569099 
L 298.065 33.569104 
L 309.512105 34.743641 
L 320.959211 38.021926 
L 332.406316 42.755959 
L 343.853421 48.181759 
L 355.300526 54.990159 
L 366.747632 62.363616 
L 378.194737 70.086549 
L 389.641842 77.758356 
L 401.088947 85.871285 
L 412.536053 94.199952 
L 423.983158 102.413624 
L 435.430263 109.744727 
L 446.877368 117.945351 
L 458.324474 124.486134 
L 469.771579 131.087346 
L 481.218684 136.94385 
L 492.665789 142.80364 
L 504.112895 147.829093 
L 515.56 152.939114 
L 515.56 137.943241 
L 515.56 137.943241 
L 504.112895 133.18329 
L 492.665789 128.299015 
L 481.218684 121.709587 
L 469.771579 116.946832 
L 458.324474 110.598123 
L 446.877368 104.845879 
L 435.430263 97.910848 
L 423.983158 91.411043 
L 412.536053 84.593431 
L 401.088947 77.286807 
L 389.641842 70.274792 
L 378.194737 63.047416 
L 366.747632 56.394738 
L 355.300526 50.023904 
L 343.853421 44.607148 
L 332.406316 39.867522 
L 320.959211 36.548076 
L 309.512105 34.325066 
L 298.065 33.569099 
z
" clip-path="url(#p7fca490ef6)" style="fill: #2ca02c; fill-opacity: 0.4"/>
   </g>
   <g id="PolyCollection_12">
    <path d="M 298.065 33.569781 
L 298.065 33.570232 
L 309.512105 34.744362 
L 320.959211 38.022543 
L 332.406316 42.754166 
L 343.853421 48.179343 
L 355.300526 54.987895 
L 366.747632 62.352417 
L 378.194737 70.091305 
L 389.641842 77.758256 
L 401.088947 85.87573 
L 412.536053 94.226619 
L 423.983158 102.449837 
L 435.430263 109.809558 
L 446.877368 118.028992 
L 458.324474 124.609098 
L 469.771579 131.224416 
L 481.218684 137.102629 
L 492.665789 143.037573 
L 504.112895 148.129568 
L 515.56 153.243856 
L 515.56 138.198486 
L 515.56 138.198486 
L 504.112895 133.391604 
L 492.665789 128.488142 
L 481.218684 121.834331 
L 469.771579 117.042385 
L 458.324474 110.706182 
L 446.877368 104.931917 
L 435.430263 97.970324 
L 423.983158 91.461523 
L 412.536053 84.635256 
L 401.088947 77.323596 
L 389.641842 70.296982 
L 378.194737 63.051774 
L 366.747632 56.409364 
L 355.300526 50.024265 
L 343.853421 44.602487 
L 332.406316 39.85989 
L 320.959211 36.546651 
L 309.512105 34.327008 
L 298.065 33.569781 
z
" clip-path="url(#p7fca490ef6)" style="fill: #d62728; fill-opacity: 0.4"/>
   </g>
   <g id="PolyCollection_13">
    <path d="M 298.065 33.569099 
L 298.065 33.569104 
L 309.512105 34.740102 
L 320.959211 38.037792 
L 332.406316 42.773958 
L 343.853421 48.194453 
L 355.300526 55.093126 
L 366.747632 62.676187 
L 378.194737 70.299848 
L 389.641842 77.852239 
L 401.088947 85.997053 
L 412.536053 94.989457 
L 423.983158 103.41767 
L 435.430263 109.788877 
L 446.877368 117.647365 
L 458.324474 124.845479 
L 469.771579 131.600451 
L 481.218684 136.717653 
L 492.665789 142.814878 
L 504.112895 147.96584 
L 515.56 153.10561 
L 515.56 138.223905 
L 515.56 138.223905 
L 504.112895 133.316765 
L 492.665789 129.04844 
L 481.218684 123.198364 
L 469.771579 117.861128 
L 458.324474 111.136129 
L 446.877368 105.060696 
L 435.430263 98.049888 
L 423.983158 91.752172 
L 412.536053 84.545172 
L 401.088947 77.207769 
L 389.641842 70.672024 
L 378.194737 63.018091 
L 366.747632 56.507049 
L 355.300526 50.081808 
L 343.853421 44.656636 
L 332.406316 39.921904 
L 320.959211 36.570767 
L 309.512105 34.321636 
L 298.065 33.569099 
z
" clip-path="url(#p7fca490ef6)" style="fill: #9467bd; fill-opacity: 0.4"/>
   </g>
   <g id="PolyCollection_14">
    <path d="M 298.065 33.56964 
L 298.065 33.569916 
L 309.512105 34.740768 
L 320.959211 38.042201 
L 332.406316 42.781809 
L 343.853421 48.218973 
L 355.300526 55.108003 
L 366.747632 62.679012 
L 378.194737 70.31883 
L 389.641842 77.85819 
L 401.088947 85.997313 
L 412.536053 95.006744 
L 423.983158 103.524351 
L 435.430263 109.937571 
L 446.877368 117.785251 
L 458.324474 125.098212 
L 469.771579 131.845707 
L 481.218684 137.01362 
L 492.665789 143.229737 
L 504.112895 148.410839 
L 515.56 153.579694 
L 515.56 138.566905 
L 515.56 138.566905 
L 504.112895 133.684022 
L 492.665789 129.411178 
L 481.218684 123.555212 
L 469.771579 118.152379 
L 458.324474 111.446446 
L 446.877368 105.348542 
L 435.430263 98.252158 
L 423.983158 91.904284 
L 412.536053 84.664472 
L 401.088947 77.280228 
L 389.641842 70.693384 
L 378.194737 63.007724 
L 366.747632 56.492847 
L 355.300526 50.040812 
L 343.853421 44.624219 
L 332.406316 39.894162 
L 320.959211 36.556795 
L 309.512105 34.321634 
L 298.065 33.56964 
z
" clip-path="url(#p7fca490ef6)" style="fill: #8c564b; fill-opacity: 0.4"/>
   </g>
   <g id="PolyCollection_15">
    <path d="M 298.065 46.135813 
L 298.065 49.243651 
L 309.512105 50.069927 
L 320.959211 52.507345 
L 332.406316 56.42711 
L 343.853421 61.162788 
L 355.300526 67.317524 
L 366.747632 73.828251 
L 378.194737 80.763622 
L 389.641842 88.068779 
L 401.088947 95.299196 
L 412.536053 102.722811 
L 423.983158 110.113994 
L 435.430263 116.788114 
L 446.877368 124.295046 
L 458.324474 130.4949 
L 469.771579 136.633785 
L 481.218684 142.165972 
L 492.665789 147.832207 
L 504.112895 152.851427 
L 515.56 157.473536 
L 515.56 143.565564 
L 515.56 143.565564 
L 504.112895 139.126418 
L 492.665789 134.862506 
L 481.218684 128.634627 
L 469.771579 124.546793 
L 458.324474 118.683061 
L 446.877368 113.477252 
L 435.430263 107.310632 
L 423.983158 101.414041 
L 412.536053 95.425251 
L 401.088947 88.485992 
L 389.641842 82.101546 
L 378.194737 75.563584 
L 366.747632 69.121726 
L 355.300526 62.811278 
L 343.853421 57.802306 
L 332.406316 53.169133 
L 320.959211 49.588705 
L 309.512105 47.072291 
L 298.065 46.135813 
z
" clip-path="url(#p7fca490ef6)" style="fill: #e377c2; fill-opacity: 0.4"/>
   </g>
   <g id="PolyCollection_16">
    <path d="M 298.065 33.569384 
L 298.065 33.569526 
L 309.512105 34.747186 
L 320.959211 38.02681 
L 332.406316 42.769909 
L 343.853421 48.219167 
L 355.300526 55.019699 
L 366.747632 62.373455 
L 378.194737 70.13443 
L 389.641842 77.822895 
L 401.088947 85.939567 
L 412.536053 94.355177 
L 423.983158 102.669086 
L 435.430263 110.132019 
L 446.877368 118.358378 
L 458.324474 125.000979 
L 469.771579 131.679292 
L 481.218684 137.680135 
L 492.665789 143.568998 
L 504.112895 148.70558 
L 515.56 153.824722 
L 515.56 138.204061 
L 515.56 138.204061 
L 504.112895 133.52329 
L 492.665789 128.687742 
L 481.218684 122.119352 
L 469.771579 117.298148 
L 458.324474 111.000532 
L 446.877368 105.160116 
L 435.430263 98.185954 
L 423.983158 91.6843 
L 412.536053 84.832949 
L 401.088947 77.496491 
L 389.641842 70.416033 
L 378.194737 63.125937 
L 366.747632 56.466859 
L 355.300526 50.043866 
L 343.853421 44.635245 
L 332.406316 39.86932 
L 320.959211 36.545984 
L 309.512105 34.324123 
L 298.065 33.569384 
z
" clip-path="url(#p7fca490ef6)" style="fill: #7f7f7f; fill-opacity: 0.4"/>
   </g>
   <g id="matplotlib.axis_3">
    <g id="xtick_6">
     <g id="line2d_18">
      <g>
       <use xlink:href="#m21e16c0694" x="298.065" y="174.04" style="stroke: #000000; stroke-width: 0.8"/>
      </g>
     </g>
     <g id="text_13">
      <!-- 0.0 -->
      <g transform="translate(290.113437 188.638438)scale(0.1 -0.1)">
       <use xlink:href="#DejaVuSans-30"/>
       <use xlink:href="#DejaVuSans-2e" x="63.623047"/>
       <use xlink:href="#DejaVuSans-30" x="95.410156"/>
      </g>
     </g>
    </g>
    <g id="xtick_7">
     <g id="line2d_19">
      <g>
       <use xlink:href="#m21e16c0694" x="352.43875" y="174.04" style="stroke: #000000; stroke-width: 0.8"/>
      </g>
     </g>
     <g id="text_14">
      <!-- 0.5 -->
      <g transform="translate(344.487187 188.638438)scale(0.1 -0.1)">
       <use xlink:href="#DejaVuSans-30"/>
       <use xlink:href="#DejaVuSans-2e" x="63.623047"/>
       <use xlink:href="#DejaVuSans-35" x="95.410156"/>
      </g>
     </g>
    </g>
    <g id="xtick_8">
     <g id="line2d_20">
      <g>
       <use xlink:href="#m21e16c0694" x="406.8125" y="174.04" style="stroke: #000000; stroke-width: 0.8"/>
      </g>
     </g>
     <g id="text_15">
      <!-- 1.0 -->
      <g transform="translate(398.860937 188.638438)scale(0.1 -0.1)">
       <use xlink:href="#DejaVuSans-31"/>
       <use xlink:href="#DejaVuSans-2e" x="63.623047"/>
       <use xlink:href="#DejaVuSans-30" x="95.410156"/>
      </g>
     </g>
    </g>
    <g id="xtick_9">
     <g id="line2d_21">
      <g>
       <use xlink:href="#m21e16c0694" x="461.18625" y="174.04" style="stroke: #000000; stroke-width: 0.8"/>
      </g>
     </g>
     <g id="text_16">
      <!-- 1.5 -->
      <g transform="translate(453.234687 188.638438)scale(0.1 -0.1)">
       <use xlink:href="#DejaVuSans-31"/>
       <use xlink:href="#DejaVuSans-2e" x="63.623047"/>
       <use xlink:href="#DejaVuSans-35" x="95.410156"/>
      </g>
     </g>
    </g>
    <g id="xtick_10">
     <g id="line2d_22">
      <g>
       <use xlink:href="#m21e16c0694" x="515.56" y="174.04" style="stroke: #000000; stroke-width: 0.8"/>
      </g>
     </g>
     <g id="text_17">
      <!-- 2.0 -->
      <g transform="translate(507.608437 188.638438)scale(0.1 -0.1)">
       <use xlink:href="#DejaVuSans-32"/>
       <use xlink:href="#DejaVuSans-2e" x="63.623047"/>
       <use xlink:href="#DejaVuSans-30" x="95.410156"/>
      </g>
     </g>
    </g>
    <g id="text_18">
     <!-- Influence of surprisal (multiplication) -->
     <g transform="translate(314.665625 202.316563)scale(0.1 -0.1)">
      <use xlink:href="#DejaVuSans-49"/>
      <use xlink:href="#DejaVuSans-6e" x="29.492188"/>
      <use xlink:href="#DejaVuSans-66" x="92.871094"/>
      <use xlink:href="#DejaVuSans-6c" x="128.076172"/>
      <use xlink:href="#DejaVuSans-75" x="155.859375"/>
      <use xlink:href="#DejaVuSans-65" x="219.238281"/>
      <use xlink:href="#DejaVuSans-6e" x="280.761719"/>
      <use xlink:href="#DejaVuSans-63" x="344.140625"/>
      <use xlink:href="#DejaVuSans-65" x="399.121094"/>
      <use xlink:href="#DejaVuSans-20" x="460.644531"/>
      <use xlink:href="#DejaVuSans-6f" x="492.431641"/>
      <use xlink:href="#DejaVuSans-66" x="553.613281"/>
      <use xlink:href="#DejaVuSans-20" x="588.818359"/>
      <use xlink:href="#DejaVuSans-73" x="620.605469"/>
      <use xlink:href="#DejaVuSans-75" x="672.705078"/>
      <use xlink:href="#DejaVuSans-72" x="736.083984"/>
      <use xlink:href="#DejaVuSans-70" x="777.197266"/>
      <use xlink:href="#DejaVuSans-72" x="840.673828"/>
      <use xlink:href="#DejaVuSans-69" x="881.787109"/>
      <use xlink:href="#DejaVuSans-73" x="909.570312"/>
      <use xlink:href="#DejaVuSans-61" x="961.669922"/>
      <use xlink:href="#DejaVuSans-6c" x="1022.949219"/>
      <use xlink:href="#DejaVuSans-20" x="1050.732422"/>
      <use xlink:href="#DejaVuSans-28" x="1082.519531"/>
      <use xlink:href="#DejaVuSans-6d" x="1121.533203"/>
      <use xlink:href="#DejaVuSans-75" x="1218.945312"/>
      <use xlink:href="#DejaVuSans-6c" x="1282.324219"/>
      <use xlink:href="#DejaVuSans-74" x="1310.107422"/>
      <use xlink:href="#DejaVuSans-69" x="1349.316406"/>
      <use xlink:href="#DejaVuSans-70" x="1377.099609"/>
      <use xlink:href="#DejaVuSans-6c" x="1440.576172"/>
      <use xlink:href="#DejaVuSans-69" x="1468.359375"/>
      <use xlink:href="#DejaVuSans-63" x="1496.142578"/>
      <use xlink:href="#DejaVuSans-61" x="1551.123047"/>
      <use xlink:href="#DejaVuSans-74" x="1612.402344"/>
      <use xlink:href="#DejaVuSans-69" x="1651.611328"/>
      <use xlink:href="#DejaVuSans-6f" x="1679.394531"/>
      <use xlink:href="#DejaVuSans-6e" x="1740.576172"/>
      <use xlink:href="#DejaVuSans-29" x="1803.955078"/>
     </g>
    </g>
   </g>
   <g id="line2d_23">
    <path d="M 298.065 33.569091 
L 309.512105 34.536369 
L 320.959211 37.292076 
L 332.406316 41.332077 
L 343.853421 46.413401 
L 355.300526 52.535063 
L 366.747632 59.421439 
L 378.194737 66.591104 
L 389.641842 74.063676 
L 401.088947 81.597537 
L 412.536053 89.393896 
L 423.983158 96.922729 
L 435.430263 103.840881 
L 446.877368 111.386208 
L 458.324474 117.578991 
L 469.771579 124.040983 
L 481.218684 129.36016 
L 492.665789 135.567346 
L 504.112895 140.53803 
L 515.56 145.463282 
" clip-path="url(#p7fca490ef6)" style="fill: none; stroke: #1f77b4; stroke-width: 1.5; stroke-linecap: square"/>
   </g>
   <g id="line2d_24">
    <path d="M 298.065 33.569261 
L 309.512105 34.536182 
L 320.959211 37.287261 
L 332.406316 41.322155 
L 343.853421 46.407925 
L 355.300526 52.525421 
L 366.747632 59.412662 
L 378.194737 66.590334 
L 389.641842 74.075293 
L 401.088947 81.642025 
L 412.536053 89.474378 
L 423.983158 97.045597 
L 435.430263 104.014359 
L 446.877368 111.617519 
L 458.324474 117.844969 
L 469.771579 124.322786 
L 481.218684 129.700732 
L 492.665789 135.942937 
L 504.112895 140.943201 
L 515.56 145.879344 
" clip-path="url(#p7fca490ef6)" style="fill: none; stroke: #ff7f0e; stroke-width: 1.5; stroke-linecap: square"/>
   </g>
   <g id="line2d_25">
    <path d="M 298.065 33.569102 
L 309.512105 34.534353 
L 320.959211 37.285001 
L 332.406316 41.311741 
L 343.853421 46.394453 
L 355.300526 52.507031 
L 366.747632 59.379177 
L 378.194737 66.566983 
L 389.641842 74.016574 
L 401.088947 81.579046 
L 412.536053 89.396691 
L 423.983158 96.912334 
L 435.430263 103.827787 
L 446.877368 111.395615 
L 458.324474 117.542128 
L 469.771579 124.017089 
L 481.218684 129.326718 
L 492.665789 135.551327 
L 504.112895 140.506191 
L 515.56 145.441178 
" clip-path="url(#p7fca490ef6)" style="fill: none; stroke: #2ca02c; stroke-width: 1.5; stroke-linecap: square"/>
   </g>
   <g id="line2d_26">
    <path d="M 298.065 33.570007 
L 309.512105 34.535685 
L 320.959211 37.284597 
L 332.406316 41.307028 
L 343.853421 46.390915 
L 355.300526 52.50608 
L 366.747632 59.38089 
L 378.194737 66.571539 
L 389.641842 74.027619 
L 401.088947 81.599663 
L 412.536053 89.430937 
L 423.983158 96.95568 
L 435.430263 103.889941 
L 446.877368 111.480455 
L 458.324474 117.65764 
L 469.771579 124.133401 
L 481.218684 129.46848 
L 492.665789 135.762858 
L 504.112895 140.760586 
L 515.56 145.721171 
" clip-path="url(#p7fca490ef6)" style="fill: none; stroke: #d62728; stroke-width: 1.5; stroke-linecap: square"/>
   </g>
   <g id="line2d_27">
    <path d="M 298.065 33.569102 
L 309.512105 34.530869 
L 320.959211 37.30428 
L 332.406316 41.347931 
L 343.853421 46.425545 
L 355.300526 52.587467 
L 366.747632 59.591618 
L 378.194737 66.65897 
L 389.641842 74.262132 
L 401.088947 81.602411 
L 412.536053 89.767314 
L 423.983158 97.584921 
L 435.430263 103.919382 
L 446.877368 111.35403 
L 458.324474 117.990804 
L 469.771579 124.73079 
L 481.218684 129.958009 
L 492.665789 135.931659 
L 504.112895 140.641302 
L 515.56 145.664758 
" clip-path="url(#p7fca490ef6)" style="fill: none; stroke: #9467bd; stroke-width: 1.5; stroke-linecap: square"/>
   </g>
   <g id="line2d_28">
    <path d="M 298.065 33.569778 
L 309.512105 34.531201 
L 320.959211 37.299498 
L 332.406316 41.337985 
L 343.853421 46.421596 
L 355.300526 52.574408 
L 366.747632 59.585929 
L 378.194737 66.663277 
L 389.641842 74.275787 
L 401.088947 81.638771 
L 412.536053 89.835608 
L 423.983158 97.714317 
L 435.430263 104.094865 
L 446.877368 111.566896 
L 458.324474 118.272329 
L 469.771579 124.999043 
L 481.218684 130.284416 
L 492.665789 136.320457 
L 504.112895 141.04743 
L 515.56 146.0733 
" clip-path="url(#p7fca490ef6)" style="fill: none; stroke: #8c564b; stroke-width: 1.5; stroke-linecap: square"/>
   </g>
   <g id="line2d_29">
    <path d="M 298.065 47.689732 
L 309.512105 48.571109 
L 320.959211 51.048025 
L 332.406316 54.798122 
L 343.853421 59.482547 
L 355.300526 65.064401 
L 366.747632 71.474988 
L 378.194737 78.163603 
L 389.641842 85.085163 
L 401.088947 91.892594 
L 412.536053 99.074031 
L 423.983158 105.764018 
L 435.430263 112.049373 
L 446.877368 118.886149 
L 458.324474 124.588981 
L 469.771579 130.590289 
L 481.218684 135.400299 
L 492.665789 141.347356 
L 504.112895 145.988923 
L 515.56 150.51955 
" clip-path="url(#p7fca490ef6)" style="fill: none; stroke: #e377c2; stroke-width: 1.5; stroke-linecap: square"/>
   </g>
   <g id="line2d_30">
    <path d="M 298.065 33.569455 
L 309.512105 34.535654 
L 320.959211 37.286397 
L 332.406316 41.319614 
L 343.853421 46.427206 
L 355.300526 52.531782 
L 366.747632 59.420157 
L 378.194737 66.630183 
L 389.641842 74.119464 
L 401.088947 81.718029 
L 412.536053 89.594063 
L 423.983158 97.176693 
L 435.430263 104.158987 
L 446.877368 111.759247 
L 458.324474 118.000756 
L 469.771579 124.48872 
L 481.218684 129.899744 
L 492.665789 136.12837 
L 504.112895 141.114435 
L 515.56 146.014392 
" clip-path="url(#p7fca490ef6)" style="fill: none; stroke: #7f7f7f; stroke-width: 1.5; stroke-linecap: square"/>
   </g>
   <g id="patch_6">
    <path d="M 298.065 174.04 
L 298.065 26.88 
" style="fill: none; stroke: #000000; stroke-width: 0.8; stroke-linejoin: miter; stroke-linecap: square"/>
   </g>
   <g id="patch_7">
    <path d="M 298.065 174.04 
L 515.56 174.04 
" style="fill: none; stroke: #000000; stroke-width: 0.8; stroke-linejoin: miter; stroke-linecap: square"/>
   </g>
   <g id="text_19">
    <!-- Node * third variable -->
    <g transform="translate(344.2325 20.88)scale(0.12 -0.12)">
     <defs>
      <path id="DejaVuSans-68" d="M 3513 2113 
L 3513 0 
L 2938 0 
L 2938 2094 
Q 2938 2591 2744 2837 
Q 2550 3084 2163 3084 
Q 1697 3084 1428 2787 
Q 1159 2491 1159 1978 
L 1159 0 
L 581 0 
L 581 4863 
L 1159 4863 
L 1159 2956 
Q 1366 3272 1645 3428 
Q 1925 3584 2291 3584 
Q 2894 3584 3203 3211 
Q 3513 2838 3513 2113 
z
" transform="scale(0.015625)"/>
      <path id="DejaVuSans-62" d="M 3116 1747 
Q 3116 2381 2855 2742 
Q 2594 3103 2138 3103 
Q 1681 3103 1420 2742 
Q 1159 2381 1159 1747 
Q 1159 1113 1420 752 
Q 1681 391 2138 391 
Q 2594 391 2855 752 
Q 3116 1113 3116 1747 
z
M 1159 2969 
Q 1341 3281 1617 3432 
Q 1894 3584 2278 3584 
Q 2916 3584 3314 3078 
Q 3713 2572 3713 1747 
Q 3713 922 3314 415 
Q 2916 -91 2278 -91 
Q 1894 -91 1617 61 
Q 1341 213 1159 525 
L 1159 0 
L 581 0 
L 581 4863 
L 1159 4863 
L 1159 2969 
z
" transform="scale(0.015625)"/>
     </defs>
     <use xlink:href="#DejaVuSans-4e"/>
     <use xlink:href="#DejaVuSans-6f" x="74.804688"/>
     <use xlink:href="#DejaVuSans-64" x="135.986328"/>
     <use xlink:href="#DejaVuSans-65" x="199.462891"/>
     <use xlink:href="#DejaVuSans-20" x="260.986328"/>
     <use xlink:href="#DejaVuSans-2a" x="292.773438"/>
     <use xlink:href="#DejaVuSans-20" x="342.773438"/>
     <use xlink:href="#DejaVuSans-74" x="374.560547"/>
     <use xlink:href="#DejaVuSans-68" x="413.769531"/>
     <use xlink:href="#DejaVuSans-69" x="477.148438"/>
     <use xlink:href="#DejaVuSans-72" x="504.931641"/>
     <use xlink:href="#DejaVuSans-64" x="544.294922"/>
     <use xlink:href="#DejaVuSans-20" x="607.771484"/>
     <use xlink:href="#DejaVuSans-76" x="639.558594"/>
     <use xlink:href="#DejaVuSans-61" x="698.738281"/>
     <use xlink:href="#DejaVuSans-72" x="760.017578"/>
     <use xlink:href="#DejaVuSans-69" x="801.130859"/>
     <use xlink:href="#DejaVuSans-61" x="828.914062"/>
     <use xlink:href="#DejaVuSans-62" x="890.193359"/>
     <use xlink:href="#DejaVuSans-6c" x="953.669922"/>
     <use xlink:href="#DejaVuSans-65" x="981.453125"/>
    </g>
   </g>
   <g id="legend_1">
    <g id="line2d_31">
     <path d="M 524.56 39.978437 
L 534.56 39.978437 
L 544.56 39.978437 
" style="fill: none; stroke: #1f77b4; stroke-width: 1.5; stroke-linecap: square"/>
    </g>
    <g id="text_20">
     <!-- Node -->
     <g transform="translate(552.56 43.478437)scale(0.1 -0.1)">
      <use xlink:href="#DejaVuSans-4e"/>
      <use xlink:href="#DejaVuSans-6f" x="74.804688"/>
      <use xlink:href="#DejaVuSans-64" x="135.986328"/>
      <use xlink:href="#DejaVuSans-65" x="199.462891"/>
     </g>
    </g>
    <g id="line2d_32">
     <path d="M 524.56 54.656563 
L 534.56 54.656563 
L 544.56 54.656563 
" style="fill: none; stroke: #ff7f0e; stroke-width: 1.5; stroke-linecap: square"/>
    </g>
    <g id="text_21">
     <!-- Node + surprisal -->
     <g transform="translate(552.56 58.156563)scale(0.1 -0.1)">
      <defs>
       <path id="DejaVuSans-2b" d="M 2944 4013 
L 2944 2272 
L 4684 2272 
L 4684 1741 
L 2944 1741 
L 2944 0 
L 2419 0 
L 2419 1741 
L 678 1741 
L 678 2272 
L 2419 2272 
L 2419 4013 
L 2944 4013 
z
" transform="scale(0.015625)"/>
      </defs>
      <use xlink:href="#DejaVuSans-4e"/>
      <use xlink:href="#DejaVuSans-6f" x="74.804688"/>
      <use xlink:href="#DejaVuSans-64" x="135.986328"/>
      <use xlink:href="#DejaVuSans-65" x="199.462891"/>
      <use xlink:href="#DejaVuSans-20" x="260.986328"/>
      <use xlink:href="#DejaVuSans-2b" x="292.773438"/>
      <use xlink:href="#DejaVuSans-20" x="376.5625"/>
      <use xlink:href="#DejaVuSans-73" x="408.349609"/>
      <use xlink:href="#DejaVuSans-75" x="460.449219"/>
      <use xlink:href="#DejaVuSans-72" x="523.828125"/>
      <use xlink:href="#DejaVuSans-70" x="564.941406"/>
      <use xlink:href="#DejaVuSans-72" x="628.417969"/>
      <use xlink:href="#DejaVuSans-69" x="669.53125"/>
      <use xlink:href="#DejaVuSans-73" x="697.314453"/>
      <use xlink:href="#DejaVuSans-61" x="749.414062"/>
      <use xlink:href="#DejaVuSans-6c" x="810.693359"/>
     </g>
    </g>
    <g id="line2d_33">
     <path d="M 524.56 69.334687 
L 534.56 69.334687 
L 544.56 69.334687 
" style="fill: none; stroke: #2ca02c; stroke-width: 1.5; stroke-linecap: square"/>
    </g>
    <g id="text_22">
     <!-- Node split -->
     <g transform="translate(552.56 72.834687)scale(0.1 -0.1)">
      <use xlink:href="#DejaVuSans-4e"/>
      <use xlink:href="#DejaVuSans-6f" x="74.804688"/>
      <use xlink:href="#DejaVuSans-64" x="135.986328"/>
      <use xlink:href="#DejaVuSans-65" x="199.462891"/>
      <use xlink:href="#DejaVuSans-20" x="260.986328"/>
      <use xlink:href="#DejaVuSans-73" x="292.773438"/>
      <use xlink:href="#DejaVuSans-70" x="344.873047"/>
      <use xlink:href="#DejaVuSans-6c" x="408.349609"/>
      <use xlink:href="#DejaVuSans-69" x="436.132812"/>
      <use xlink:href="#DejaVuSans-74" x="463.916016"/>
     </g>
    </g>
    <g id="line2d_34">
     <path d="M 524.56 84.012812 
L 534.56 84.012812 
L 544.56 84.012812 
" style="fill: none; stroke: #d62728; stroke-width: 1.5; stroke-linecap: square"/>
    </g>
    <g id="text_23">
     <!-- Node split + surprisal -->
     <g transform="translate(552.56 87.512812)scale(0.1 -0.1)">
      <use xlink:href="#DejaVuSans-4e"/>
      <use xlink:href="#DejaVuSans-6f" x="74.804688"/>
      <use xlink:href="#DejaVuSans-64" x="135.986328"/>
      <use xlink:href="#DejaVuSans-65" x="199.462891"/>
      <use xlink:href="#DejaVuSans-20" x="260.986328"/>
      <use xlink:href="#DejaVuSans-73" x="292.773438"/>
      <use xlink:href="#DejaVuSans-70" x="344.873047"/>
      <use xlink:href="#DejaVuSans-6c" x="408.349609"/>
      <use xlink:href="#DejaVuSans-69" x="436.132812"/>
      <use xlink:href="#DejaVuSans-74" x="463.916016"/>
      <use xlink:href="#DejaVuSans-20" x="503.125"/>
      <use xlink:href="#DejaVuSans-2b" x="534.912109"/>
      <use xlink:href="#DejaVuSans-20" x="618.701172"/>
      <use xlink:href="#DejaVuSans-73" x="650.488281"/>
      <use xlink:href="#DejaVuSans-75" x="702.587891"/>
      <use xlink:href="#DejaVuSans-72" x="765.966797"/>
      <use xlink:href="#DejaVuSans-70" x="807.080078"/>
      <use xlink:href="#DejaVuSans-72" x="870.556641"/>
      <use xlink:href="#DejaVuSans-69" x="911.669922"/>
      <use xlink:href="#DejaVuSans-73" x="939.453125"/>
      <use xlink:href="#DejaVuSans-61" x="991.552734"/>
      <use xlink:href="#DejaVuSans-6c" x="1052.832031"/>
     </g>
    </g>
    <g id="line2d_35">
     <path d="M 524.56 98.690937 
L 534.56 98.690937 
L 544.56 98.690937 
" style="fill: none; stroke: #9467bd; stroke-width: 1.5; stroke-linecap: square"/>
    </g>
    <g id="text_24">
     <!-- Node random split -->
     <g transform="translate(552.56 102.190937)scale(0.1 -0.1)">
      <use xlink:href="#DejaVuSans-4e"/>
      <use xlink:href="#DejaVuSans-6f" x="74.804688"/>
      <use xlink:href="#DejaVuSans-64" x="135.986328"/>
      <use xlink:href="#DejaVuSans-65" x="199.462891"/>
      <use xlink:href="#DejaVuSans-20" x="260.986328"/>
      <use xlink:href="#DejaVuSans-72" x="292.773438"/>
      <use xlink:href="#DejaVuSans-61" x="333.886719"/>
      <use xlink:href="#DejaVuSans-6e" x="395.166016"/>
      <use xlink:href="#DejaVuSans-64" x="458.544922"/>
      <use xlink:href="#DejaVuSans-6f" x="522.021484"/>
      <use xlink:href="#DejaVuSans-6d" x="583.203125"/>
      <use xlink:href="#DejaVuSans-20" x="680.615234"/>
      <use xlink:href="#DejaVuSans-73" x="712.402344"/>
      <use xlink:href="#DejaVuSans-70" x="764.501953"/>
      <use xlink:href="#DejaVuSans-6c" x="827.978516"/>
      <use xlink:href="#DejaVuSans-69" x="855.761719"/>
      <use xlink:href="#DejaVuSans-74" x="883.544922"/>
     </g>
    </g>
    <g id="line2d_36">
     <path d="M 524.56 113.369062 
L 534.56 113.369062 
L 544.56 113.369062 
" style="fill: none; stroke: #8c564b; stroke-width: 1.5; stroke-linecap: square"/>
    </g>
    <g id="text_25">
     <!-- Node random split + surprisal -->
     <g transform="translate(552.56 116.869062)scale(0.1 -0.1)">
      <use xlink:href="#DejaVuSans-4e"/>
      <use xlink:href="#DejaVuSans-6f" x="74.804688"/>
      <use xlink:href="#DejaVuSans-64" x="135.986328"/>
      <use xlink:href="#DejaVuSans-65" x="199.462891"/>
      <use xlink:href="#DejaVuSans-20" x="260.986328"/>
      <use xlink:href="#DejaVuSans-72" x="292.773438"/>
      <use xlink:href="#DejaVuSans-61" x="333.886719"/>
      <use xlink:href="#DejaVuSans-6e" x="395.166016"/>
      <use xlink:href="#DejaVuSans-64" x="458.544922"/>
      <use xlink:href="#DejaVuSans-6f" x="522.021484"/>
      <use xlink:href="#DejaVuSans-6d" x="583.203125"/>
      <use xlink:href="#DejaVuSans-20" x="680.615234"/>
      <use xlink:href="#DejaVuSans-73" x="712.402344"/>
      <use xlink:href="#DejaVuSans-70" x="764.501953"/>
      <use xlink:href="#DejaVuSans-6c" x="827.978516"/>
      <use xlink:href="#DejaVuSans-69" x="855.761719"/>
      <use xlink:href="#DejaVuSans-74" x="883.544922"/>
      <use xlink:href="#DejaVuSans-20" x="922.753906"/>
      <use xlink:href="#DejaVuSans-2b" x="954.541016"/>
      <use xlink:href="#DejaVuSans-20" x="1038.330078"/>
      <use xlink:href="#DejaVuSans-73" x="1070.117188"/>
      <use xlink:href="#DejaVuSans-75" x="1122.216797"/>
      <use xlink:href="#DejaVuSans-72" x="1185.595703"/>
      <use xlink:href="#DejaVuSans-70" x="1226.708984"/>
      <use xlink:href="#DejaVuSans-72" x="1290.185547"/>
      <use xlink:href="#DejaVuSans-69" x="1331.298828"/>
      <use xlink:href="#DejaVuSans-73" x="1359.082031"/>
      <use xlink:href="#DejaVuSans-61" x="1411.181641"/>
      <use xlink:href="#DejaVuSans-6c" x="1472.460938"/>
     </g>
    </g>
    <g id="line2d_37">
     <path d="M 524.56 128.047187 
L 534.56 128.047187 
L 544.56 128.047187 
" style="fill: none; stroke: #e377c2; stroke-width: 1.5; stroke-linecap: square"/>
    </g>
    <g id="text_26">
     <!-- Interaction -->
     <g transform="translate(552.56 131.547187)scale(0.1 -0.1)">
      <use xlink:href="#DejaVuSans-49"/>
      <use xlink:href="#DejaVuSans-6e" x="29.492188"/>
      <use xlink:href="#DejaVuSans-74" x="92.871094"/>
      <use xlink:href="#DejaVuSans-65" x="132.080078"/>
      <use xlink:href="#DejaVuSans-72" x="193.603516"/>
      <use xlink:href="#DejaVuSans-61" x="234.716797"/>
      <use xlink:href="#DejaVuSans-63" x="295.996094"/>
      <use xlink:href="#DejaVuSans-74" x="350.976562"/>
      <use xlink:href="#DejaVuSans-69" x="390.185547"/>
      <use xlink:href="#DejaVuSans-6f" x="417.96875"/>
      <use xlink:href="#DejaVuSans-6e" x="479.150391"/>
     </g>
    </g>
    <g id="line2d_38">
     <path d="M 524.56 142.725312 
L 534.56 142.725312 
L 544.56 142.725312 
" style="fill: none; stroke: #7f7f7f; stroke-width: 1.5; stroke-linecap: square"/>
    </g>
    <g id="text_27">
     <!-- Node + surprisal + interaction -->
     <g transform="translate(552.56 146.225312)scale(0.1 -0.1)">
      <use xlink:href="#DejaVuSans-4e"/>
      <use xlink:href="#DejaVuSans-6f" x="74.804688"/>
      <use xlink:href="#DejaVuSans-64" x="135.986328"/>
      <use xlink:href="#DejaVuSans-65" x="199.462891"/>
      <use xlink:href="#DejaVuSans-20" x="260.986328"/>
      <use xlink:href="#DejaVuSans-2b" x="292.773438"/>
      <use xlink:href="#DejaVuSans-20" x="376.5625"/>
      <use xlink:href="#DejaVuSans-73" x="408.349609"/>
      <use xlink:href="#DejaVuSans-75" x="460.449219"/>
      <use xlink:href="#DejaVuSans-72" x="523.828125"/>
      <use xlink:href="#DejaVuSans-70" x="564.941406"/>
      <use xlink:href="#DejaVuSans-72" x="628.417969"/>
      <use xlink:href="#DejaVuSans-69" x="669.53125"/>
      <use xlink:href="#DejaVuSans-73" x="697.314453"/>
      <use xlink:href="#DejaVuSans-61" x="749.414062"/>
      <use xlink:href="#DejaVuSans-6c" x="810.693359"/>
      <use xlink:href="#DejaVuSans-20" x="838.476562"/>
      <use xlink:href="#DejaVuSans-2b" x="870.263672"/>
      <use xlink:href="#DejaVuSans-20" x="954.052734"/>
      <use xlink:href="#DejaVuSans-69" x="985.839844"/>
      <use xlink:href="#DejaVuSans-6e" x="1013.623047"/>
      <use xlink:href="#DejaVuSans-74" x="1077.001953"/>
      <use xlink:href="#DejaVuSans-65" x="1116.210938"/>
      <use xlink:href="#DejaVuSans-72" x="1177.734375"/>
      <use xlink:href="#DejaVuSans-61" x="1218.847656"/>
      <use xlink:href="#DejaVuSans-63" x="1280.126953"/>
      <use xlink:href="#DejaVuSans-74" x="1335.107422"/>
      <use xlink:href="#DejaVuSans-69" x="1374.316406"/>
      <use xlink:href="#DejaVuSans-6f" x="1402.099609"/>
      <use xlink:href="#DejaVuSans-6e" x="1463.28125"/>
     </g>
    </g>
   </g>
  </g>
 </g>
 <defs>
  <clipPath id="pff6f7f31f4">
   <rect x="47.72" y="26.88" width="217.495" height="147.16"/>
  </clipPath>
  <clipPath id="p7fca490ef6">
   <rect x="298.065" y="26.88" width="217.495" height="147.16"/>
  </clipPath>
 </defs>
</svg>
