<?xml version="1.0" encoding="utf-8" standalone="no"?>
<!DOCTYPE svg PUBLIC "-//W3C//DTD SVG 1.1//EN"
  "http://www.w3.org/Graphics/SVG/1.1/DTD/svg11.dtd">
<svg xmlns:xlink="http://www.w3.org/1999/xlink" width="720pt" height="216pt" viewBox="0 0 720 216" xmlns="http://www.w3.org/2000/svg" version="1.1">
 <metadata>
  <rdf:RDF xmlns:dc="http://purl.org/dc/elements/1.1/" xmlns:cc="http://creativecommons.org/ns#" xmlns:rdf="http://www.w3.org/1999/02/22-rdf-syntax-ns#">
   <cc:Work>
    <dc:type rdf:resource="http://purl.org/dc/dcmitype/StillImage"/>
    <dc:date>2024-01-16T00:34:49.153598</dc:date>
    <dc:format>image/svg+xml</dc:format>
    <dc:creator>
     <cc:Agent>
      <dc:title>Matplotlib v3.5.1, https://matplotlib.org/</dc:title>
     </cc:Agent>
    </dc:creator>
   </cc:Work>
  </rdf:RDF>
 </metadata>
 <defs>
  <style type="text/css">*{stroke-linejoin: round; stroke-linecap: butt}</style>
 </defs>
 <g id="figure_1">
  <g id="patch_1">
   <path d="M 0 216 
L 720 216 
L 720 0 
L 0 0 
z
" style="fill: #ffffff"/>
  </g>
  <g id="axes_1">
   <g id="patch_2">
    <path d="M 47.72 174.04 
L 265.215 174.04 
L 265.215 26.88 
L 47.72 26.88 
z
" style="fill: #ffffff"/>
   </g>
   <g id="PolyCollection_1">
    <path d="M 47.72 33.569091 
L 47.72 33.569092 
L 59.167105 34.713971 
L 70.614211 37.747422 
L 82.061316 42.366593 
L 93.508421 48.18743 
L 104.955526 54.858476 
L 116.402632 62.039307 
L 127.849737 69.843501 
L 139.296842 77.722923 
L 150.743947 85.800106 
L 162.191053 93.481417 
L 173.638158 101.677887 
L 185.085263 108.939349 
L 196.532368 116.420144 
L 207.979474 122.602186 
L 219.426579 128.903404 
L 230.873684 135.114352 
L 242.320789 139.764688 
L 253.767895 144.934032 
L 265.215 149.551493 
L 265.215 137.092484 
L 265.215 137.092484 
L 253.767895 132.484811 
L 242.320789 128.026595 
L 230.873684 122.635744 
L 219.426579 117.080949 
L 207.979474 110.350017 
L 196.532368 104.48458 
L 185.085263 97.498832 
L 173.638158 90.578371 
L 162.191053 83.627699 
L 150.743947 76.48691 
L 139.296842 69.148308 
L 127.849737 62.48541 
L 116.402632 55.844331 
L 104.955526 49.554363 
L 93.508421 44.409886 
L 82.061316 39.983824 
L 70.614211 36.681164 
L 59.167105 34.297779 
L 47.72 33.569091 
z
" clip-path="url(#p0e78c2f559)" style="fill: #1f77b4; fill-opacity: 0.4"/>
   </g>
   <g id="PolyCollection_2">
    <path d="M 47.72 33.569236 
L 47.72 33.569311 
L 59.167105 34.282392 
L 70.614211 35.812733 
L 82.061316 38.339349 
L 93.508421 41.93748 
L 104.955526 46.458508 
L 116.402632 51.665671 
L 127.849737 57.414419 
L 139.296842 63.476672 
L 150.743947 70.029734 
L 162.191053 76.314086 
L 173.638158 83.089739 
L 185.085263 89.351474 
L 196.532368 96.659473 
L 207.979474 102.449912 
L 219.426579 108.730442 
L 230.873684 115.075604 
L 242.320789 119.948695 
L 253.767895 125.391614 
L 265.215 130.039143 
L 265.215 118.843391 
L 265.215 118.843391 
L 253.767895 113.575815 
L 242.320789 109.095573 
L 230.873684 103.797769 
L 219.426579 98.441477 
L 207.979474 92.065863 
L 196.532368 86.821868 
L 185.085263 80.452237 
L 173.638158 74.452295 
L 162.191053 68.335869 
L 150.743947 62.538994 
L 139.296842 56.805559 
L 127.849737 51.81392 
L 116.402632 47.235004 
L 104.955526 42.986599 
L 93.508421 39.77748 
L 82.061316 37.129888 
L 70.614211 35.332601 
L 59.167105 34.059585 
L 47.72 33.569236 
z
" clip-path="url(#p0e78c2f559)" style="fill: #ff7f0e; fill-opacity: 0.4"/>
   </g>
   <g id="PolyCollection_3">
    <path d="M 47.72 33.569099 
L 47.72 33.569104 
L 59.167105 34.408164 
L 70.614211 35.837439 
L 82.061316 37.864667 
L 93.508421 40.525078 
L 104.955526 43.4232 
L 116.402632 46.644324 
L 127.849737 50.045715 
L 139.296842 53.60027 
L 150.743947 57.500695 
L 162.191053 61.190586 
L 173.638158 65.233704 
L 185.085263 69.249174 
L 196.532368 73.524019 
L 207.979474 77.439644 
L 219.426579 81.443303 
L 230.873684 85.509764 
L 242.320789 88.952431 
L 253.767895 92.784748 
L 265.215 96.326821 
L 265.215 86.699073 
L 265.215 86.699073 
L 253.767895 82.766107 
L 242.320789 79.296106 
L 230.873684 75.480311 
L 219.426579 72.178481 
L 207.979474 68.410651 
L 196.532368 64.973899 
L 185.085263 61.206604 
L 173.638158 57.999854 
L 162.191053 54.555285 
L 150.743947 51.540285 
L 139.296842 48.503797 
L 127.849737 45.534638 
L 116.402632 42.8712 
L 104.955526 40.312635 
L 93.508421 38.282828 
L 82.061316 36.473826 
L 70.614211 35.175013 
L 59.167105 34.123863 
L 47.72 33.569099 
z
" clip-path="url(#p0e78c2f559)" style="fill: #2ca02c; fill-opacity: 0.4"/>
   </g>
   <g id="PolyCollection_4">
    <path d="M 47.72 33.569833 
L 47.72 33.570221 
L 59.167105 34.225719 
L 70.614211 35.234369 
L 82.061316 36.738094 
L 93.508421 38.931161 
L 104.955526 41.523876 
L 116.402632 44.535824 
L 127.849737 47.846382 
L 139.296842 51.316965 
L 150.743947 55.30101 
L 162.191053 59.090949 
L 173.638158 63.154068 
L 185.085263 67.20658 
L 196.532368 71.770685 
L 207.979474 75.668033 
L 219.426579 79.719049 
L 230.873684 84.021522 
L 242.320789 87.493037 
L 253.767895 91.532709 
L 265.215 95.272811 
L 265.215 85.595885 
L 265.215 85.595885 
L 253.767895 81.515646 
L 242.320789 78.090432 
L 230.873684 74.158357 
L 219.426579 70.90063 
L 207.979474 67.02353 
L 196.532368 63.532335 
L 185.085263 59.636989 
L 173.638158 56.286458 
L 162.191053 52.635548 
L 150.743947 49.542061 
L 139.296842 46.461652 
L 127.849737 43.565 
L 116.402632 41.153415 
L 104.955526 38.878308 
L 93.508421 37.208913 
L 82.061316 35.768723 
L 70.614211 34.804113 
L 59.167105 34.025099 
L 47.72 33.569833 
z
" clip-path="url(#p0e78c2f559)" style="fill: #d62728; fill-opacity: 0.4"/>
   </g>
   <g id="PolyCollection_5">
    <path d="M 47.72 33.569099 
L 47.72 33.569103 
L 59.167105 34.713003 
L 70.614211 37.757299 
L 82.061316 42.386687 
L 93.508421 48.185017 
L 104.955526 55.075438 
L 116.402632 61.983404 
L 127.849737 69.898348 
L 139.296842 77.675064 
L 150.743947 85.658802 
L 162.191053 93.442293 
L 173.638158 102.002927 
L 185.085263 108.951402 
L 196.532368 116.392075 
L 207.979474 123.082995 
L 219.426579 129.104605 
L 230.873684 135.176027 
L 242.320789 140.536555 
L 253.767895 145.390902 
L 265.215 150.084889 
L 265.215 137.458814 
L 265.215 137.458814 
L 253.767895 132.308519 
L 242.320789 127.874199 
L 230.873684 123.105652 
L 219.426579 117.463429 
L 207.979474 110.453793 
L 196.532368 104.631686 
L 185.085263 97.831616 
L 173.638158 90.504906 
L 162.191053 83.825901 
L 150.743947 76.46907 
L 139.296842 69.161324 
L 127.849737 62.44275 
L 116.402632 55.932754 
L 104.955526 49.673253 
L 93.508421 44.362809 
L 82.061316 40.000495 
L 70.614211 36.689354 
L 59.167105 34.29815 
L 47.72 33.569099 
z
" clip-path="url(#p0e78c2f559)" style="fill: #9467bd; fill-opacity: 0.4"/>
   </g>
   <g id="PolyCollection_6">
    <path d="M 47.72 33.569678 
L 47.72 33.56998 
L 59.167105 34.283915 
L 70.614211 35.814822 
L 82.061316 38.387907 
L 93.508421 41.927703 
L 104.955526 46.56086 
L 116.402632 51.59577 
L 127.849737 57.453041 
L 139.296842 63.402613 
L 150.743947 70.023014 
L 162.191053 76.29671 
L 173.638158 83.176326 
L 185.085263 89.247983 
L 196.532368 96.74332 
L 207.979474 102.709358 
L 219.426579 108.87442 
L 230.873684 115.060195 
L 242.320789 120.229675 
L 253.767895 125.832699 
L 265.215 130.347658 
L 265.215 119.039638 
L 265.215 119.039638 
L 253.767895 113.490953 
L 242.320789 109.172619 
L 230.873684 104.25273 
L 219.426579 98.84934 
L 207.979474 92.233567 
L 196.532368 87.117692 
L 185.085263 80.707828 
L 173.638158 74.557829 
L 162.191053 68.391974 
L 150.743947 62.584696 
L 139.296842 56.820681 
L 127.849737 51.779272 
L 116.402632 47.309872 
L 104.955526 43.016316 
L 93.508421 39.76621 
L 82.061316 37.12697 
L 70.614211 35.335284 
L 59.167105 34.060323 
L 47.72 33.569678 
z
" clip-path="url(#p0e78c2f559)" style="fill: #8c564b; fill-opacity: 0.4"/>
   </g>
   <g id="PolyCollection_7">
    <path d="M 47.72 45.999631 
L 47.72 49.83225 
L 59.167105 51.329318 
L 70.614211 55.201922 
L 82.061316 60.980356 
L 93.508421 68.429729 
L 104.955526 75.968504 
L 116.402632 84.036583 
L 127.849737 92.060042 
L 139.296842 100.369337 
L 150.743947 108.609863 
L 162.191053 116.328268 
L 173.638158 124.462409 
L 185.085263 131.84551 
L 196.532368 138.785109 
L 207.979474 145.079718 
L 219.426579 150.650966 
L 230.873684 155.80653 
L 242.320789 159.897895 
L 253.767895 163.904 
L 265.215 167.350909 
L 265.215 154.459575 
L 265.215 154.459575 
L 253.767895 149.929197 
L 242.320789 145.406468 
L 230.873684 140.156197 
L 219.426579 134.755 
L 207.979474 128.071849 
L 196.532368 122.006885 
L 185.085263 114.734563 
L 173.638158 107.727211 
L 162.191053 100.624406 
L 150.743947 93.310579 
L 139.296842 85.835117 
L 127.849737 78.396625 
L 116.402632 71.364587 
L 104.955526 64.34883 
L 93.508421 58.600631 
L 82.061316 53.480805 
L 70.614211 49.545024 
L 59.167105 46.932912 
L 47.72 45.999631 
z
" clip-path="url(#p0e78c2f559)" style="fill: #e377c2; fill-opacity: 0.4"/>
   </g>
   <g id="PolyCollection_8">
    <path d="M 47.72 33.569394 
L 47.72 33.569628 
L 59.167105 33.866798 
L 70.614211 34.111677 
L 82.061316 34.903667 
L 93.508421 36.660245 
L 104.955526 39.422667 
L 116.402632 42.953 
L 127.849737 47.391012 
L 139.296842 51.919242 
L 150.743947 56.992765 
L 162.191053 62.201689 
L 173.638158 67.617722 
L 185.085263 73.324033 
L 196.532368 80.043579 
L 207.979474 85.77017 
L 219.426579 92.43203 
L 230.873684 99.478911 
L 242.320789 105.015045 
L 253.767895 111.627485 
L 265.215 117.175978 
L 265.215 102.861852 
L 265.215 102.861852 
L 253.767895 96.3901 
L 242.320789 91.019474 
L 230.873684 84.902291 
L 219.426579 79.341685 
L 207.979474 73.123528 
L 196.532368 67.765114 
L 185.085263 61.987348 
L 173.638158 56.684161 
L 162.191053 51.611898 
L 150.743947 47.175391 
L 139.296842 43.264326 
L 127.849737 40.045563 
L 116.402632 37.653655 
L 104.955526 35.818357 
L 93.508421 34.829117 
L 82.061316 34.189096 
L 70.614211 33.930683 
L 59.167105 33.810272 
L 47.72 33.569394 
z
" clip-path="url(#p0e78c2f559)" style="fill: #7f7f7f; fill-opacity: 0.4"/>
   </g>
   <g id="matplotlib.axis_1">
    <g id="xtick_1">
     <g id="line2d_1">
      <defs>
       <path id="ma7c19c0918" d="M 0 0 
L 0 3.5 
" style="stroke: #000000; stroke-width: 0.8"/>
      </defs>
      <g>
       <use xlink:href="#ma7c19c0918" x="47.72" y="174.04" style="stroke: #000000; stroke-width: 0.8"/>
      </g>
     </g>
     <g id="text_1">
      <!-- 0.0 -->
      <g transform="translate(39.768438 188.638438)scale(0.1 -0.1)">
       <defs>
        <path id="DejaVuSans-30" d="M 2034 4250 
Q 1547 4250 1301 3770 
Q 1056 3291 1056 2328 
Q 1056 1369 1301 889 
Q 1547 409 2034 409 
Q 2525 409 2770 889 
Q 3016 1369 3016 2328 
Q 3016 3291 2770 3770 
Q 2525 4250 2034 4250 
z
M 2034 4750 
Q 2819 4750 3233 4129 
Q 3647 3509 3647 2328 
Q 3647 1150 3233 529 
Q 2819 -91 2034 -91 
Q 1250 -91 836 529 
Q 422 1150 422 2328 
Q 422 3509 836 4129 
Q 1250 4750 2034 4750 
z
" transform="scale(0.015625)"/>
        <path id="DejaVuSans-2e" d="M 684 794 
L 1344 794 
L 1344 0 
L 684 0 
L 684 794 
z
" transform="scale(0.015625)"/>
       </defs>
       <use xlink:href="#DejaVuSans-30"/>
       <use xlink:href="#DejaVuSans-2e" x="63.623047"/>
       <use xlink:href="#DejaVuSans-30" x="95.410156"/>
      </g>
     </g>
    </g>
    <g id="xtick_2">
     <g id="line2d_2">
      <g>
       <use xlink:href="#ma7c19c0918" x="102.09375" y="174.04" style="stroke: #000000; stroke-width: 0.8"/>
      </g>
     </g>
     <g id="text_2">
      <!-- 0.5 -->
      <g transform="translate(94.142188 188.638438)scale(0.1 -0.1)">
       <defs>
        <path id="DejaVuSans-35" d="M 691 4666 
L 3169 4666 
L 3169 4134 
L 1269 4134 
L 1269 2991 
Q 1406 3038 1543 3061 
Q 1681 3084 1819 3084 
Q 2600 3084 3056 2656 
Q 3513 2228 3513 1497 
Q 3513 744 3044 326 
Q 2575 -91 1722 -91 
Q 1428 -91 1123 -41 
Q 819 9 494 109 
L 494 744 
Q 775 591 1075 516 
Q 1375 441 1709 441 
Q 2250 441 2565 725 
Q 2881 1009 2881 1497 
Q 2881 1984 2565 2268 
Q 2250 2553 1709 2553 
Q 1456 2553 1204 2497 
Q 953 2441 691 2322 
L 691 4666 
z
" transform="scale(0.015625)"/>
       </defs>
       <use xlink:href="#DejaVuSans-30"/>
       <use xlink:href="#DejaVuSans-2e" x="63.623047"/>
       <use xlink:href="#DejaVuSans-35" x="95.410156"/>
      </g>
     </g>
    </g>
    <g id="xtick_3">
     <g id="line2d_3">
      <g>
       <use xlink:href="#ma7c19c0918" x="156.4675" y="174.04" style="stroke: #000000; stroke-width: 0.8"/>
      </g>
     </g>
     <g id="text_3">
      <!-- 1.0 -->
      <g transform="translate(148.515938 188.638438)scale(0.1 -0.1)">
       <defs>
        <path id="DejaVuSans-31" d="M 794 531 
L 1825 531 
L 1825 4091 
L 703 3866 
L 703 4441 
L 1819 4666 
L 2450 4666 
L 2450 531 
L 3481 531 
L 3481 0 
L 794 0 
L 794 531 
z
" transform="scale(0.015625)"/>
       </defs>
       <use xlink:href="#DejaVuSans-31"/>
       <use xlink:href="#DejaVuSans-2e" x="63.623047"/>
       <use xlink:href="#DejaVuSans-30" x="95.410156"/>
      </g>
     </g>
    </g>
    <g id="xtick_4">
     <g id="line2d_4">
      <g>
       <use xlink:href="#ma7c19c0918" x="210.84125" y="174.04" style="stroke: #000000; stroke-width: 0.8"/>
      </g>
     </g>
     <g id="text_4">
      <!-- 1.5 -->
      <g transform="translate(202.889687 188.638438)scale(0.1 -0.1)">
       <use xlink:href="#DejaVuSans-31"/>
       <use xlink:href="#DejaVuSans-2e" x="63.623047"/>
       <use xlink:href="#DejaVuSans-35" x="95.410156"/>
      </g>
     </g>
    </g>
    <g id="xtick_5">
     <g id="line2d_5">
      <g>
       <use xlink:href="#ma7c19c0918" x="265.215" y="174.04" style="stroke: #000000; stroke-width: 0.8"/>
      </g>
     </g>
     <g id="text_5">
      <!-- 2.0 -->
      <g transform="translate(257.263437 188.638438)scale(0.1 -0.1)">
       <defs>
        <path id="DejaVuSans-32" d="M 1228 531 
L 3431 531 
L 3431 0 
L 469 0 
L 469 531 
Q 828 903 1448 1529 
Q 2069 2156 2228 2338 
Q 2531 2678 2651 2914 
Q 2772 3150 2772 3378 
Q 2772 3750 2511 3984 
Q 2250 4219 1831 4219 
Q 1534 4219 1204 4116 
Q 875 4013 500 3803 
L 500 4441 
Q 881 4594 1212 4672 
Q 1544 4750 1819 4750 
Q 2544 4750 2975 4387 
Q 3406 4025 3406 3419 
Q 3406 3131 3298 2873 
Q 3191 2616 2906 2266 
Q 2828 2175 2409 1742 
Q 1991 1309 1228 531 
z
" transform="scale(0.015625)"/>
       </defs>
       <use xlink:href="#DejaVuSans-32"/>
       <use xlink:href="#DejaVuSans-2e" x="63.623047"/>
       <use xlink:href="#DejaVuSans-30" x="95.410156"/>
      </g>
     </g>
    </g>
    <g id="text_6">
     <!-- Influence of surprisal (multiplication) -->
     <g transform="translate(64.320625 202.316563)scale(0.1 -0.1)">
      <defs>
       <path id="DejaVuSans-49" d="M 628 4666 
L 1259 4666 
L 1259 0 
L 628 0 
L 628 4666 
z
" transform="scale(0.015625)"/>
       <path id="DejaVuSans-6e" d="M 3513 2113 
L 3513 0 
L 2938 0 
L 2938 2094 
Q 2938 2591 2744 2837 
Q 2550 3084 2163 3084 
Q 1697 3084 1428 2787 
Q 1159 2491 1159 1978 
L 1159 0 
L 581 0 
L 581 3500 
L 1159 3500 
L 1159 2956 
Q 1366 3272 1645 3428 
Q 1925 3584 2291 3584 
Q 2894 3584 3203 3211 
Q 3513 2838 3513 2113 
z
" transform="scale(0.015625)"/>
       <path id="DejaVuSans-66" d="M 2375 4863 
L 2375 4384 
L 1825 4384 
Q 1516 4384 1395 4259 
Q 1275 4134 1275 3809 
L 1275 3500 
L 2222 3500 
L 2222 3053 
L 1275 3053 
L 1275 0 
L 697 0 
L 697 3053 
L 147 3053 
L 147 3500 
L 697 3500 
L 697 3744 
Q 697 4328 969 4595 
Q 1241 4863 1831 4863 
L 2375 4863 
z
" transform="scale(0.015625)"/>
       <path id="DejaVuSans-6c" d="M 603 4863 
L 1178 4863 
L 1178 0 
L 603 0 
L 603 4863 
z
" transform="scale(0.015625)"/>
       <path id="DejaVuSans-75" d="M 544 1381 
L 544 3500 
L 1119 3500 
L 1119 1403 
Q 1119 906 1312 657 
Q 1506 409 1894 409 
Q 2359 409 2629 706 
Q 2900 1003 2900 1516 
L 2900 3500 
L 3475 3500 
L 3475 0 
L 2900 0 
L 2900 538 
Q 2691 219 2414 64 
Q 2138 -91 1772 -91 
Q 1169 -91 856 284 
Q 544 659 544 1381 
z
M 1991 3584 
L 1991 3584 
z
" transform="scale(0.015625)"/>
       <path id="DejaVuSans-65" d="M 3597 1894 
L 3597 1613 
L 953 1613 
Q 991 1019 1311 708 
Q 1631 397 2203 397 
Q 2534 397 2845 478 
Q 3156 559 3463 722 
L 3463 178 
Q 3153 47 2828 -22 
Q 2503 -91 2169 -91 
Q 1331 -91 842 396 
Q 353 884 353 1716 
Q 353 2575 817 3079 
Q 1281 3584 2069 3584 
Q 2775 3584 3186 3129 
Q 3597 2675 3597 1894 
z
M 3022 2063 
Q 3016 2534 2758 2815 
Q 2500 3097 2075 3097 
Q 1594 3097 1305 2825 
Q 1016 2553 972 2059 
L 3022 2063 
z
" transform="scale(0.015625)"/>
       <path id="DejaVuSans-63" d="M 3122 3366 
L 3122 2828 
Q 2878 2963 2633 3030 
Q 2388 3097 2138 3097 
Q 1578 3097 1268 2742 
Q 959 2388 959 1747 
Q 959 1106 1268 751 
Q 1578 397 2138 397 
Q 2388 397 2633 464 
Q 2878 531 3122 666 
L 3122 134 
Q 2881 22 2623 -34 
Q 2366 -91 2075 -91 
Q 1284 -91 818 406 
Q 353 903 353 1747 
Q 353 2603 823 3093 
Q 1294 3584 2113 3584 
Q 2378 3584 2631 3529 
Q 2884 3475 3122 3366 
z
" transform="scale(0.015625)"/>
       <path id="DejaVuSans-20" transform="scale(0.015625)"/>
       <path id="DejaVuSans-6f" d="M 1959 3097 
Q 1497 3097 1228 2736 
Q 959 2375 959 1747 
Q 959 1119 1226 758 
Q 1494 397 1959 397 
Q 2419 397 2687 759 
Q 2956 1122 2956 1747 
Q 2956 2369 2687 2733 
Q 2419 3097 1959 3097 
z
M 1959 3584 
Q 2709 3584 3137 3096 
Q 3566 2609 3566 1747 
Q 3566 888 3137 398 
Q 2709 -91 1959 -91 
Q 1206 -91 779 398 
Q 353 888 353 1747 
Q 353 2609 779 3096 
Q 1206 3584 1959 3584 
z
" transform="scale(0.015625)"/>
       <path id="DejaVuSans-73" d="M 2834 3397 
L 2834 2853 
Q 2591 2978 2328 3040 
Q 2066 3103 1784 3103 
Q 1356 3103 1142 2972 
Q 928 2841 928 2578 
Q 928 2378 1081 2264 
Q 1234 2150 1697 2047 
L 1894 2003 
Q 2506 1872 2764 1633 
Q 3022 1394 3022 966 
Q 3022 478 2636 193 
Q 2250 -91 1575 -91 
Q 1294 -91 989 -36 
Q 684 19 347 128 
L 347 722 
Q 666 556 975 473 
Q 1284 391 1588 391 
Q 1994 391 2212 530 
Q 2431 669 2431 922 
Q 2431 1156 2273 1281 
Q 2116 1406 1581 1522 
L 1381 1569 
Q 847 1681 609 1914 
Q 372 2147 372 2553 
Q 372 3047 722 3315 
Q 1072 3584 1716 3584 
Q 2034 3584 2315 3537 
Q 2597 3491 2834 3397 
z
" transform="scale(0.015625)"/>
       <path id="DejaVuSans-72" d="M 2631 2963 
Q 2534 3019 2420 3045 
Q 2306 3072 2169 3072 
Q 1681 3072 1420 2755 
Q 1159 2438 1159 1844 
L 1159 0 
L 581 0 
L 581 3500 
L 1159 3500 
L 1159 2956 
Q 1341 3275 1631 3429 
Q 1922 3584 2338 3584 
Q 2397 3584 2469 3576 
Q 2541 3569 2628 3553 
L 2631 2963 
z
" transform="scale(0.015625)"/>
       <path id="DejaVuSans-70" d="M 1159 525 
L 1159 -1331 
L 581 -1331 
L 581 3500 
L 1159 3500 
L 1159 2969 
Q 1341 3281 1617 3432 
Q 1894 3584 2278 3584 
Q 2916 3584 3314 3078 
Q 3713 2572 3713 1747 
Q 3713 922 3314 415 
Q 2916 -91 2278 -91 
Q 1894 -91 1617 61 
Q 1341 213 1159 525 
z
M 3116 1747 
Q 3116 2381 2855 2742 
Q 2594 3103 2138 3103 
Q 1681 3103 1420 2742 
Q 1159 2381 1159 1747 
Q 1159 1113 1420 752 
Q 1681 391 2138 391 
Q 2594 391 2855 752 
Q 3116 1113 3116 1747 
z
" transform="scale(0.015625)"/>
       <path id="DejaVuSans-69" d="M 603 3500 
L 1178 3500 
L 1178 0 
L 603 0 
L 603 3500 
z
M 603 4863 
L 1178 4863 
L 1178 4134 
L 603 4134 
L 603 4863 
z
" transform="scale(0.015625)"/>
       <path id="DejaVuSans-61" d="M 2194 1759 
Q 1497 1759 1228 1600 
Q 959 1441 959 1056 
Q 959 750 1161 570 
Q 1363 391 1709 391 
Q 2188 391 2477 730 
Q 2766 1069 2766 1631 
L 2766 1759 
L 2194 1759 
z
M 3341 1997 
L 3341 0 
L 2766 0 
L 2766 531 
Q 2569 213 2275 61 
Q 1981 -91 1556 -91 
Q 1019 -91 701 211 
Q 384 513 384 1019 
Q 384 1609 779 1909 
Q 1175 2209 1959 2209 
L 2766 2209 
L 2766 2266 
Q 2766 2663 2505 2880 
Q 2244 3097 1772 3097 
Q 1472 3097 1187 3025 
Q 903 2953 641 2809 
L 641 3341 
Q 956 3463 1253 3523 
Q 1550 3584 1831 3584 
Q 2591 3584 2966 3190 
Q 3341 2797 3341 1997 
z
" transform="scale(0.015625)"/>
       <path id="DejaVuSans-28" d="M 1984 4856 
Q 1566 4138 1362 3434 
Q 1159 2731 1159 2009 
Q 1159 1288 1364 580 
Q 1569 -128 1984 -844 
L 1484 -844 
Q 1016 -109 783 600 
Q 550 1309 550 2009 
Q 550 2706 781 3412 
Q 1013 4119 1484 4856 
L 1984 4856 
z
" transform="scale(0.015625)"/>
       <path id="DejaVuSans-6d" d="M 3328 2828 
Q 3544 3216 3844 3400 
Q 4144 3584 4550 3584 
Q 5097 3584 5394 3201 
Q 5691 2819 5691 2113 
L 5691 0 
L 5113 0 
L 5113 2094 
Q 5113 2597 4934 2840 
Q 4756 3084 4391 3084 
Q 3944 3084 3684 2787 
Q 3425 2491 3425 1978 
L 3425 0 
L 2847 0 
L 2847 2094 
Q 2847 2600 2669 2842 
Q 2491 3084 2119 3084 
Q 1678 3084 1418 2786 
Q 1159 2488 1159 1978 
L 1159 0 
L 581 0 
L 581 3500 
L 1159 3500 
L 1159 2956 
Q 1356 3278 1631 3431 
Q 1906 3584 2284 3584 
Q 2666 3584 2933 3390 
Q 3200 3197 3328 2828 
z
" transform="scale(0.015625)"/>
       <path id="DejaVuSans-74" d="M 1172 4494 
L 1172 3500 
L 2356 3500 
L 2356 3053 
L 1172 3053 
L 1172 1153 
Q 1172 725 1289 603 
Q 1406 481 1766 481 
L 2356 481 
L 2356 0 
L 1766 0 
Q 1100 0 847 248 
Q 594 497 594 1153 
L 594 3053 
L 172 3053 
L 172 3500 
L 594 3500 
L 594 4494 
L 1172 4494 
z
" transform="scale(0.015625)"/>
       <path id="DejaVuSans-29" d="M 513 4856 
L 1013 4856 
Q 1481 4119 1714 3412 
Q 1947 2706 1947 2009 
Q 1947 1309 1714 600 
Q 1481 -109 1013 -844 
L 513 -844 
Q 928 -128 1133 580 
Q 1338 1288 1338 2009 
Q 1338 2731 1133 3434 
Q 928 4138 513 4856 
z
" transform="scale(0.015625)"/>
      </defs>
      <use xlink:href="#DejaVuSans-49"/>
      <use xlink:href="#DejaVuSans-6e" x="29.492188"/>
      <use xlink:href="#DejaVuSans-66" x="92.871094"/>
      <use xlink:href="#DejaVuSans-6c" x="128.076172"/>
      <use xlink:href="#DejaVuSans-75" x="155.859375"/>
      <use xlink:href="#DejaVuSans-65" x="219.238281"/>
      <use xlink:href="#DejaVuSans-6e" x="280.761719"/>
      <use xlink:href="#DejaVuSans-63" x="344.140625"/>
      <use xlink:href="#DejaVuSans-65" x="399.121094"/>
      <use xlink:href="#DejaVuSans-20" x="460.644531"/>
      <use xlink:href="#DejaVuSans-6f" x="492.431641"/>
      <use xlink:href="#DejaVuSans-66" x="553.613281"/>
      <use xlink:href="#DejaVuSans-20" x="588.818359"/>
      <use xlink:href="#DejaVuSans-73" x="620.605469"/>
      <use xlink:href="#DejaVuSans-75" x="672.705078"/>
      <use xlink:href="#DejaVuSans-72" x="736.083984"/>
      <use xlink:href="#DejaVuSans-70" x="777.197266"/>
      <use xlink:href="#DejaVuSans-72" x="840.673828"/>
      <use xlink:href="#DejaVuSans-69" x="881.787109"/>
      <use xlink:href="#DejaVuSans-73" x="909.570312"/>
      <use xlink:href="#DejaVuSans-61" x="961.669922"/>
      <use xlink:href="#DejaVuSans-6c" x="1022.949219"/>
      <use xlink:href="#DejaVuSans-20" x="1050.732422"/>
      <use xlink:href="#DejaVuSans-28" x="1082.519531"/>
      <use xlink:href="#DejaVuSans-6d" x="1121.533203"/>
      <use xlink:href="#DejaVuSans-75" x="1218.945312"/>
      <use xlink:href="#DejaVuSans-6c" x="1282.324219"/>
      <use xlink:href="#DejaVuSans-74" x="1310.107422"/>
      <use xlink:href="#DejaVuSans-69" x="1349.316406"/>
      <use xlink:href="#DejaVuSans-70" x="1377.099609"/>
      <use xlink:href="#DejaVuSans-6c" x="1440.576172"/>
      <use xlink:href="#DejaVuSans-69" x="1468.359375"/>
      <use xlink:href="#DejaVuSans-63" x="1496.142578"/>
      <use xlink:href="#DejaVuSans-61" x="1551.123047"/>
      <use xlink:href="#DejaVuSans-74" x="1612.402344"/>
      <use xlink:href="#DejaVuSans-69" x="1651.611328"/>
      <use xlink:href="#DejaVuSans-6f" x="1679.394531"/>
      <use xlink:href="#DejaVuSans-6e" x="1740.576172"/>
      <use xlink:href="#DejaVuSans-29" x="1803.955078"/>
     </g>
    </g>
   </g>
   <g id="matplotlib.axis_2">
    <g id="ytick_1">
     <g id="line2d_6">
      <defs>
       <path id="me4e7d321ae" d="M 0 0 
L -3.5 0 
" style="stroke: #000000; stroke-width: 0.8"/>
      </defs>
      <g>
       <use xlink:href="#me4e7d321ae" x="47.72" y="141.479724" style="stroke: #000000; stroke-width: 0.8"/>
      </g>
     </g>
     <g id="text_7">
      <!-- 0.4 -->
      <g transform="translate(24.816875 145.278943)scale(0.1 -0.1)">
       <defs>
        <path id="DejaVuSans-34" d="M 2419 4116 
L 825 1625 
L 2419 1625 
L 2419 4116 
z
M 2253 4666 
L 3047 4666 
L 3047 1625 
L 3713 1625 
L 3713 1100 
L 3047 1100 
L 3047 0 
L 2419 0 
L 2419 1100 
L 313 1100 
L 313 1709 
L 2253 4666 
z
" transform="scale(0.015625)"/>
       </defs>
       <use xlink:href="#DejaVuSans-30"/>
       <use xlink:href="#DejaVuSans-2e" x="63.623047"/>
       <use xlink:href="#DejaVuSans-34" x="95.410156"/>
      </g>
     </g>
    </g>
    <g id="ytick_2">
     <g id="line2d_7">
      <g>
       <use xlink:href="#me4e7d321ae" x="47.72" y="105.509512" style="stroke: #000000; stroke-width: 0.8"/>
      </g>
     </g>
     <g id="text_8">
      <!-- 0.6 -->
      <g transform="translate(24.816875 109.308731)scale(0.1 -0.1)">
       <defs>
        <path id="DejaVuSans-36" d="M 2113 2584 
Q 1688 2584 1439 2293 
Q 1191 2003 1191 1497 
Q 1191 994 1439 701 
Q 1688 409 2113 409 
Q 2538 409 2786 701 
Q 3034 994 3034 1497 
Q 3034 2003 2786 2293 
Q 2538 2584 2113 2584 
z
M 3366 4563 
L 3366 3988 
Q 3128 4100 2886 4159 
Q 2644 4219 2406 4219 
Q 1781 4219 1451 3797 
Q 1122 3375 1075 2522 
Q 1259 2794 1537 2939 
Q 1816 3084 2150 3084 
Q 2853 3084 3261 2657 
Q 3669 2231 3669 1497 
Q 3669 778 3244 343 
Q 2819 -91 2113 -91 
Q 1303 -91 875 529 
Q 447 1150 447 2328 
Q 447 3434 972 4092 
Q 1497 4750 2381 4750 
Q 2619 4750 2861 4703 
Q 3103 4656 3366 4563 
z
" transform="scale(0.015625)"/>
       </defs>
       <use xlink:href="#DejaVuSans-30"/>
       <use xlink:href="#DejaVuSans-2e" x="63.623047"/>
       <use xlink:href="#DejaVuSans-36" x="95.410156"/>
      </g>
     </g>
    </g>
    <g id="ytick_3">
     <g id="line2d_8">
      <g>
       <use xlink:href="#me4e7d321ae" x="47.72" y="69.5393" style="stroke: #000000; stroke-width: 0.8"/>
      </g>
     </g>
     <g id="text_9">
      <!-- 0.8 -->
      <g transform="translate(24.816875 73.338519)scale(0.1 -0.1)">
       <defs>
        <path id="DejaVuSans-38" d="M 2034 2216 
Q 1584 2216 1326 1975 
Q 1069 1734 1069 1313 
Q 1069 891 1326 650 
Q 1584 409 2034 409 
Q 2484 409 2743 651 
Q 3003 894 3003 1313 
Q 3003 1734 2745 1975 
Q 2488 2216 2034 2216 
z
M 1403 2484 
Q 997 2584 770 2862 
Q 544 3141 544 3541 
Q 544 4100 942 4425 
Q 1341 4750 2034 4750 
Q 2731 4750 3128 4425 
Q 3525 4100 3525 3541 
Q 3525 3141 3298 2862 
Q 3072 2584 2669 2484 
Q 3125 2378 3379 2068 
Q 3634 1759 3634 1313 
Q 3634 634 3220 271 
Q 2806 -91 2034 -91 
Q 1263 -91 848 271 
Q 434 634 434 1313 
Q 434 1759 690 2068 
Q 947 2378 1403 2484 
z
M 1172 3481 
Q 1172 3119 1398 2916 
Q 1625 2713 2034 2713 
Q 2441 2713 2670 2916 
Q 2900 3119 2900 3481 
Q 2900 3844 2670 4047 
Q 2441 4250 2034 4250 
Q 1625 4250 1398 4047 
Q 1172 3844 1172 3481 
z
" transform="scale(0.015625)"/>
       </defs>
       <use xlink:href="#DejaVuSans-30"/>
       <use xlink:href="#DejaVuSans-2e" x="63.623047"/>
       <use xlink:href="#DejaVuSans-38" x="95.410156"/>
      </g>
     </g>
    </g>
    <g id="ytick_4">
     <g id="line2d_9">
      <g>
       <use xlink:href="#me4e7d321ae" x="47.72" y="33.569088" style="stroke: #000000; stroke-width: 0.8"/>
      </g>
     </g>
     <g id="text_10">
      <!-- 1.0 -->
      <g transform="translate(24.816875 37.368307)scale(0.1 -0.1)">
       <use xlink:href="#DejaVuSans-31"/>
       <use xlink:href="#DejaVuSans-2e" x="63.623047"/>
       <use xlink:href="#DejaVuSans-30" x="95.410156"/>
      </g>
     </g>
    </g>
    <g id="text_11">
     <!-- R-value -->
     <g transform="translate(18.737188 119.064687)rotate(-90)scale(0.1 -0.1)">
      <defs>
       <path id="DejaVuSans-52" d="M 2841 2188 
Q 3044 2119 3236 1894 
Q 3428 1669 3622 1275 
L 4263 0 
L 3584 0 
L 2988 1197 
Q 2756 1666 2539 1819 
Q 2322 1972 1947 1972 
L 1259 1972 
L 1259 0 
L 628 0 
L 628 4666 
L 2053 4666 
Q 2853 4666 3247 4331 
Q 3641 3997 3641 3322 
Q 3641 2881 3436 2590 
Q 3231 2300 2841 2188 
z
M 1259 4147 
L 1259 2491 
L 2053 2491 
Q 2509 2491 2742 2702 
Q 2975 2913 2975 3322 
Q 2975 3731 2742 3939 
Q 2509 4147 2053 4147 
L 1259 4147 
z
" transform="scale(0.015625)"/>
       <path id="DejaVuSans-2d" d="M 313 2009 
L 1997 2009 
L 1997 1497 
L 313 1497 
L 313 2009 
z
" transform="scale(0.015625)"/>
       <path id="DejaVuSans-76" d="M 191 3500 
L 800 3500 
L 1894 563 
L 2988 3500 
L 3597 3500 
L 2284 0 
L 1503 0 
L 191 3500 
z
" transform="scale(0.015625)"/>
      </defs>
      <use xlink:href="#DejaVuSans-52"/>
      <use xlink:href="#DejaVuSans-2d" x="65.482422"/>
      <use xlink:href="#DejaVuSans-76" x="98.941406"/>
      <use xlink:href="#DejaVuSans-61" x="158.121094"/>
      <use xlink:href="#DejaVuSans-6c" x="219.400391"/>
      <use xlink:href="#DejaVuSans-75" x="247.183594"/>
      <use xlink:href="#DejaVuSans-65" x="310.5625"/>
     </g>
    </g>
   </g>
   <g id="line2d_10">
    <path d="M 47.72 33.569091 
L 59.167105 34.505875 
L 70.614211 37.214293 
L 82.061316 41.175209 
L 93.508421 46.298658 
L 104.955526 52.206419 
L 116.402632 58.941819 
L 127.849737 66.164456 
L 139.296842 73.435615 
L 150.743947 81.143508 
L 162.191053 88.554558 
L 173.638158 96.128129 
L 185.085263 103.21909 
L 196.532368 110.452362 
L 207.979474 116.476101 
L 219.426579 122.992176 
L 230.873684 128.875048 
L 242.320789 133.895641 
L 253.767895 138.709421 
L 265.215 143.321989 
" clip-path="url(#p0e78c2f559)" style="fill: none; stroke: #1f77b4; stroke-width: 1.5; stroke-linecap: square"/>
   </g>
   <g id="line2d_11">
    <path d="M 47.72 33.569273 
L 59.167105 34.170989 
L 70.614211 35.572667 
L 82.061316 37.734618 
L 93.508421 40.85748 
L 104.955526 44.722554 
L 116.402632 49.450338 
L 127.849737 54.614169 
L 139.296842 60.141116 
L 150.743947 66.284364 
L 162.191053 72.324978 
L 173.638158 78.771017 
L 185.085263 84.901856 
L 196.532368 91.74067 
L 207.979474 97.257888 
L 219.426579 103.58596 
L 230.873684 109.436686 
L 242.320789 114.522134 
L 253.767895 119.483715 
L 265.215 124.441267 
" clip-path="url(#p0e78c2f559)" style="fill: none; stroke: #ff7f0e; stroke-width: 1.5; stroke-linecap: square"/>
   </g>
   <g id="line2d_12">
    <path d="M 47.72 33.569102 
L 59.167105 34.266013 
L 70.614211 35.506226 
L 82.061316 37.169246 
L 93.508421 39.403953 
L 104.955526 41.867918 
L 116.402632 44.757762 
L 127.849737 47.790176 
L 139.296842 51.052034 
L 150.743947 54.52049 
L 162.191053 57.872935 
L 173.638158 61.616779 
L 185.085263 65.227889 
L 196.532368 69.248959 
L 207.979474 72.925147 
L 219.426579 76.810892 
L 230.873684 80.495037 
L 242.320789 84.124269 
L 253.767895 87.775428 
L 265.215 91.512947 
" clip-path="url(#p0e78c2f559)" style="fill: none; stroke: #2ca02c; stroke-width: 1.5; stroke-linecap: square"/>
   </g>
   <g id="line2d_13">
    <path d="M 47.72 33.570027 
L 59.167105 34.125409 
L 70.614211 35.019241 
L 82.061316 36.253409 
L 93.508421 38.070037 
L 104.955526 40.201092 
L 116.402632 42.84462 
L 127.849737 45.705691 
L 139.296842 48.889308 
L 150.743947 52.421536 
L 162.191053 55.863248 
L 173.638158 59.720263 
L 185.085263 63.421784 
L 196.532368 67.65151 
L 207.979474 71.345781 
L 219.426579 75.309839 
L 230.873684 79.089939 
L 242.320789 82.791734 
L 253.767895 86.524177 
L 265.215 90.434348 
" clip-path="url(#p0e78c2f559)" style="fill: none; stroke: #d62728; stroke-width: 1.5; stroke-linecap: square"/>
   </g>
   <g id="line2d_14">
    <path d="M 47.72 33.569101 
L 59.167105 34.505577 
L 70.614211 37.223327 
L 82.061316 41.193591 
L 93.508421 46.273913 
L 104.955526 52.374346 
L 116.402632 58.958079 
L 127.849737 66.170549 
L 139.296842 73.418194 
L 150.743947 81.063936 
L 162.191053 88.634097 
L 173.638158 96.253917 
L 185.085263 103.391509 
L 196.532368 110.51188 
L 207.979474 116.768394 
L 219.426579 123.284017 
L 230.873684 129.14084 
L 242.320789 134.205377 
L 253.767895 138.849711 
L 265.215 143.771852 
" clip-path="url(#p0e78c2f559)" style="fill: none; stroke: #9467bd; stroke-width: 1.5; stroke-linecap: square"/>
   </g>
   <g id="line2d_15">
    <path d="M 47.72 33.569829 
L 59.167105 34.172119 
L 70.614211 35.575053 
L 82.061316 37.757439 
L 93.508421 40.846956 
L 104.955526 44.788588 
L 116.402632 49.452821 
L 127.849737 54.616156 
L 139.296842 60.111647 
L 150.743947 66.303855 
L 162.191053 72.344342 
L 173.638158 78.867078 
L 185.085263 84.977905 
L 196.532368 91.930506 
L 207.979474 97.471462 
L 219.426579 103.86188 
L 230.873684 109.656462 
L 242.320789 114.701147 
L 253.767895 119.661826 
L 265.215 124.693648 
" clip-path="url(#p0e78c2f559)" style="fill: none; stroke: #8c564b; stroke-width: 1.5; stroke-linecap: square"/>
   </g>
   <g id="line2d_16">
    <path d="M 47.72 47.915941 
L 59.167105 49.131115 
L 70.614211 52.373473 
L 82.061316 57.230581 
L 93.508421 63.51518 
L 104.955526 70.158667 
L 116.402632 77.700585 
L 127.849737 85.228333 
L 139.296842 93.102227 
L 150.743947 100.960221 
L 162.191053 108.476337 
L 173.638158 116.09481 
L 185.085263 123.290037 
L 196.532368 130.395997 
L 207.979474 136.575784 
L 219.426579 142.702983 
L 230.873684 147.981363 
L 242.320789 152.652181 
L 253.767895 156.916599 
L 265.215 160.905242 
" clip-path="url(#p0e78c2f559)" style="fill: none; stroke: #e377c2; stroke-width: 1.5; stroke-linecap: square"/>
   </g>
   <g id="line2d_17">
    <path d="M 47.72 33.569511 
L 59.167105 33.838535 
L 70.614211 34.02118 
L 82.061316 34.546381 
L 93.508421 35.744681 
L 104.955526 37.620512 
L 116.402632 40.303327 
L 127.849737 43.718287 
L 139.296842 47.591784 
L 150.743947 52.084078 
L 162.191053 56.906794 
L 173.638158 62.150942 
L 185.085263 67.655691 
L 196.532368 73.904347 
L 207.979474 79.446849 
L 219.426579 85.886857 
L 230.873684 92.190601 
L 242.320789 98.01726 
L 253.767895 104.008792 
L 265.215 110.018915 
" clip-path="url(#p0e78c2f559)" style="fill: none; stroke: #7f7f7f; stroke-width: 1.5; stroke-linecap: square"/>
   </g>
   <g id="patch_3">
    <path d="M 47.72 174.04 
L 47.72 26.88 
" style="fill: none; stroke: #000000; stroke-width: 0.8; stroke-linejoin: miter; stroke-linecap: square"/>
   </g>
   <g id="patch_4">
    <path d="M 47.72 174.04 
L 265.215 174.04 
" style="fill: none; stroke: #000000; stroke-width: 0.8; stroke-linejoin: miter; stroke-linecap: square"/>
   </g>
   <g id="text_12">
    <!-- Node * surprisal -->
    <g transform="translate(108.18625 20.88)scale(0.12 -0.12)">
     <defs>
      <path id="DejaVuSans-4e" d="M 628 4666 
L 1478 4666 
L 3547 763 
L 3547 4666 
L 4159 4666 
L 4159 0 
L 3309 0 
L 1241 3903 
L 1241 0 
L 628 0 
L 628 4666 
z
" transform="scale(0.015625)"/>
      <path id="DejaVuSans-64" d="M 2906 2969 
L 2906 4863 
L 3481 4863 
L 3481 0 
L 2906 0 
L 2906 525 
Q 2725 213 2448 61 
Q 2172 -91 1784 -91 
Q 1150 -91 751 415 
Q 353 922 353 1747 
Q 353 2572 751 3078 
Q 1150 3584 1784 3584 
Q 2172 3584 2448 3432 
Q 2725 3281 2906 2969 
z
M 947 1747 
Q 947 1113 1208 752 
Q 1469 391 1925 391 
Q 2381 391 2643 752 
Q 2906 1113 2906 1747 
Q 2906 2381 2643 2742 
Q 2381 3103 1925 3103 
Q 1469 3103 1208 2742 
Q 947 2381 947 1747 
z
" transform="scale(0.015625)"/>
      <path id="DejaVuSans-2a" d="M 3009 3897 
L 1888 3291 
L 3009 2681 
L 2828 2375 
L 1778 3009 
L 1778 1831 
L 1422 1831 
L 1422 3009 
L 372 2375 
L 191 2681 
L 1313 3291 
L 191 3897 
L 372 4206 
L 1422 3572 
L 1422 4750 
L 1778 4750 
L 1778 3572 
L 2828 4206 
L 3009 3897 
z
" transform="scale(0.015625)"/>
     </defs>
     <use xlink:href="#DejaVuSans-4e"/>
     <use xlink:href="#DejaVuSans-6f" x="74.804688"/>
     <use xlink:href="#DejaVuSans-64" x="135.986328"/>
     <use xlink:href="#DejaVuSans-65" x="199.462891"/>
     <use xlink:href="#DejaVuSans-20" x="260.986328"/>
     <use xlink:href="#DejaVuSans-2a" x="292.773438"/>
     <use xlink:href="#DejaVuSans-20" x="342.773438"/>
     <use xlink:href="#DejaVuSans-73" x="374.560547"/>
     <use xlink:href="#DejaVuSans-75" x="426.660156"/>
     <use xlink:href="#DejaVuSans-72" x="490.039062"/>
     <use xlink:href="#DejaVuSans-70" x="531.152344"/>
     <use xlink:href="#DejaVuSans-72" x="594.628906"/>
     <use xlink:href="#DejaVuSans-69" x="635.742188"/>
     <use xlink:href="#DejaVuSans-73" x="663.525391"/>
     <use xlink:href="#DejaVuSans-61" x="715.625"/>
     <use xlink:href="#DejaVuSans-6c" x="776.904297"/>
    </g>
   </g>
  </g>
  <g id="axes_2">
   <g id="patch_5">
    <path d="M 298.065 174.04 
L 515.56 174.04 
L 515.56 26.88 
L 298.065 26.88 
z
" style="fill: #ffffff"/>
   </g>
   <g id="PolyCollection_9">
    <path d="M 298.065 33.569091 
L 298.065 33.569092 
L 309.512105 34.694178 
L 320.959211 37.760545 
L 332.406316 42.380588 
L 343.853421 47.984349 
L 355.300526 54.583851 
L 366.747632 61.585679 
L 378.194737 69.204783 
L 389.641842 76.94096 
L 401.088947 84.232229 
L 412.536053 92.129274 
L 423.983158 99.584718 
L 435.430263 106.926418 
L 446.877368 114.086287 
L 458.324474 120.532592 
L 469.771579 126.84172 
L 481.218684 132.761874 
L 492.665789 138.319616 
L 504.112895 143.832828 
L 515.56 148.263859 
L 515.56 134.101322 
L 515.56 134.101322 
L 504.112895 129.068708 
L 492.665789 124.538686 
L 481.218684 118.418602 
L 469.771579 113.347743 
L 458.324474 107.668306 
L 446.877368 101.52026 
L 435.430263 95.175511 
L 423.983158 89.037003 
L 412.536053 82.355207 
L 401.088947 75.475419 
L 389.641842 69.157464 
L 378.194737 62.523887 
L 366.747632 56.046223 
L 355.300526 49.760496 
L 343.853421 44.526671 
L 332.406316 39.817106 
L 320.959211 36.569649 
L 309.512105 34.271535 
L 298.065 33.569091 
z
" clip-path="url(#p29a46b8cf6)" style="fill: #1f77b4; fill-opacity: 0.4"/>
   </g>
   <g id="PolyCollection_10">
    <path d="M 298.065 33.569236 
L 298.065 33.569311 
L 309.512105 34.695871 
L 320.959211 37.770257 
L 332.406316 42.390346 
L 343.853421 48.006603 
L 355.300526 54.623253 
L 366.747632 61.645854 
L 378.194737 69.292256 
L 389.641842 77.040945 
L 401.088947 84.375887 
L 412.536053 92.334034 
L 423.983158 99.844169 
L 435.430263 107.245966 
L 446.877368 114.456294 
L 458.324474 120.919487 
L 469.771579 127.280306 
L 481.218684 133.256295 
L 492.665789 138.753159 
L 504.112895 144.33279 
L 515.56 148.760293 
L 515.56 134.327559 
L 515.56 134.327559 
L 504.112895 129.319494 
L 492.665789 124.777281 
L 481.218684 118.59548 
L 469.771579 113.517077 
L 458.324474 107.858259 
L 446.877368 101.671302 
L 435.430263 95.324674 
L 423.983158 89.17638 
L 412.536053 82.486577 
L 401.088947 75.608896 
L 389.641842 69.297156 
L 378.194737 62.636172 
L 366.747632 56.124616 
L 355.300526 49.823941 
L 343.853421 44.581836 
L 332.406316 39.843393 
L 320.959211 36.577716 
L 309.512105 34.273901 
L 298.065 33.569236 
z
" clip-path="url(#p29a46b8cf6)" style="fill: #ff7f0e; fill-opacity: 0.4"/>
   </g>
   <g id="PolyCollection_11">
    <path d="M 298.065 33.569099 
L 298.065 33.569104 
L 309.512105 34.695039 
L 320.959211 37.757877 
L 332.406316 42.366071 
L 343.853421 47.967799 
L 355.300526 54.542952 
L 366.747632 61.521055 
L 378.194737 69.144824 
L 389.641842 76.825785 
L 401.088947 84.108713 
L 412.536053 91.94037 
L 423.983158 99.472126 
L 435.430263 106.805541 
L 446.877368 113.971355 
L 458.324474 120.428696 
L 469.771579 126.669473 
L 481.218684 132.692803 
L 492.665789 138.165728 
L 504.112895 143.81378 
L 515.56 148.244451 
L 515.56 134.730741 
L 515.56 134.730741 
L 504.112895 129.753902 
L 492.665789 125.217157 
L 481.218684 119.018578 
L 469.771579 113.909654 
L 458.324474 108.068144 
L 446.877368 101.9528 
L 435.430263 95.508254 
L 423.983158 89.284701 
L 412.536053 82.603776 
L 401.088947 75.687488 
L 389.641842 69.348038 
L 378.194737 62.651957 
L 366.747632 56.148612 
L 355.300526 49.831616 
L 343.853421 44.56583 
L 332.406316 39.848395 
L 320.959211 36.581881 
L 309.512105 34.272501 
L 298.065 33.569099 
z
" clip-path="url(#p29a46b8cf6)" style="fill: #2ca02c; fill-opacity: 0.4"/>
   </g>
   <g id="PolyCollection_12">
    <path d="M 298.065 33.569833 
L 298.065 33.570221 
L 309.512105 34.69777 
L 320.959211 37.767455 
L 332.406316 42.374323 
L 343.853421 47.987708 
L 355.300526 54.57385 
L 366.747632 61.570823 
L 378.194737 69.209467 
L 389.641842 76.896663 
L 401.088947 84.177783 
L 412.536053 92.068504 
L 423.983158 99.601203 
L 435.430263 106.979195 
L 446.877368 114.155626 
L 458.324474 120.583711 
L 469.771579 126.84114 
L 481.218684 132.931328 
L 492.665789 138.389964 
L 504.112895 144.120105 
L 515.56 148.564923 
L 515.56 134.957646 
L 515.56 134.957646 
L 504.112895 130.021653 
L 492.665789 125.453097 
L 481.218684 119.203849 
L 469.771579 114.108074 
L 458.324474 108.31817 
L 446.877368 102.105753 
L 435.430263 95.691524 
L 423.983158 89.454854 
L 412.536053 82.766012 
L 401.088947 75.856458 
L 389.641842 69.501989 
L 378.194737 62.75584 
L 366.747632 56.228834 
L 355.300526 49.891417 
L 343.853421 44.619302 
L 332.406316 39.880569 
L 320.959211 36.591105 
L 309.512105 34.275454 
L 298.065 33.569833 
z
" clip-path="url(#p29a46b8cf6)" style="fill: #d62728; fill-opacity: 0.4"/>
   </g>
   <g id="PolyCollection_13">
    <path d="M 298.065 33.5691 
L 298.065 33.569103 
L 309.512105 34.691177 
L 320.959211 37.757801 
L 332.406316 42.425691 
L 343.853421 47.968829 
L 355.300526 54.690974 
L 366.747632 61.627103 
L 378.194737 69.457289 
L 389.641842 77.103155 
L 401.088947 84.276139 
L 412.536053 92.513317 
L 423.983158 99.805447 
L 435.430263 106.756679 
L 446.877368 114.047026 
L 458.324474 120.851338 
L 469.771579 127.348184 
L 481.218684 132.774864 
L 492.665789 138.425465 
L 504.112895 144.37047 
L 515.56 148.617161 
L 515.56 135.267948 
L 515.56 135.267948 
L 504.112895 129.373512 
L 492.665789 124.99083 
L 481.218684 118.935934 
L 469.771579 113.580769 
L 458.324474 107.953334 
L 446.877368 101.917382 
L 435.430263 95.467031 
L 423.983158 89.474444 
L 412.536053 82.420624 
L 401.088947 75.443609 
L 389.641842 69.131328 
L 378.194737 62.4946 
L 366.747632 56.13634 
L 355.300526 49.810728 
L 343.853421 44.515504 
L 332.406316 39.841641 
L 320.959211 36.576121 
L 309.512105 34.270341 
L 298.065 33.5691 
z
" clip-path="url(#p29a46b8cf6)" style="fill: #9467bd; fill-opacity: 0.4"/>
   </g>
   <g id="PolyCollection_14">
    <path d="M 298.065 33.569675 
L 298.065 33.569985 
L 309.512105 34.693659 
L 320.959211 37.767374 
L 332.406316 42.4372 
L 343.853421 47.992773 
L 355.300526 54.728451 
L 366.747632 61.6889 
L 378.194737 69.550379 
L 389.641842 77.219556 
L 401.088947 84.432455 
L 412.536053 92.710586 
L 423.983158 100.079402 
L 435.430263 107.070421 
L 446.877368 114.418904 
L 458.324474 121.226142 
L 469.771579 127.787668 
L 481.218684 133.281395 
L 492.665789 138.846273 
L 504.112895 144.870555 
L 515.56 149.178421 
L 515.56 135.503497 
L 515.56 135.503497 
L 504.112895 129.641068 
L 492.665789 125.232086 
L 481.218684 119.137892 
L 469.771579 113.78217 
L 458.324474 108.139744 
L 446.877368 102.066742 
L 435.430263 95.6285 
L 423.983158 89.614725 
L 412.536053 82.546649 
L 401.088947 75.58482 
L 389.641842 69.29452 
L 378.194737 62.61195 
L 366.747632 56.212269 
L 355.300526 49.876632 
L 343.853421 44.573102 
L 332.406316 39.86807 
L 320.959211 36.584821 
L 309.512105 34.273381 
L 298.065 33.569675 
z
" clip-path="url(#p29a46b8cf6)" style="fill: #8c564b; fill-opacity: 0.4"/>
   </g>
   <g id="PolyCollection_15">
    <path d="M 298.065 45.999631 
L 298.065 49.83225 
L 309.512105 50.640589 
L 320.959211 52.937435 
L 332.406316 56.775762 
L 343.853421 61.88232 
L 355.300526 68.03935 
L 366.747632 74.45228 
L 378.194737 81.760982 
L 389.641842 88.944997 
L 401.088947 95.740047 
L 412.536053 103.165762 
L 423.983158 110.438895 
L 435.430263 117.288696 
L 446.877368 123.799303 
L 458.324474 129.81941 
L 469.771579 135.757532 
L 481.218684 141.179309 
L 492.665789 146.394677 
L 504.112895 151.430616 
L 515.56 155.605652 
L 515.56 140.370699 
L 515.56 140.370699 
L 504.112895 135.707972 
L 492.665789 131.315899 
L 481.218684 125.257035 
L 469.771579 120.778717 
L 458.324474 115.406065 
L 446.877368 109.810839 
L 435.430263 103.772059 
L 423.983158 97.938453 
L 412.536053 92.305471 
L 401.088947 85.898761 
L 389.641842 80.291675 
L 378.194737 73.940297 
L 366.747632 68.121259 
L 355.300526 62.272114 
L 343.853421 57.407369 
L 332.406316 53.014899 
L 320.959211 49.548886 
L 309.512105 46.87071 
L 298.065 45.999631 
z
" clip-path="url(#p29a46b8cf6)" style="fill: #e377c2; fill-opacity: 0.4"/>
   </g>
   <g id="PolyCollection_16">
    <path d="M 298.065 33.569394 
L 298.065 33.569628 
L 309.512105 34.69927 
L 320.959211 37.779982 
L 332.406316 42.405047 
L 343.853421 48.035049 
L 355.300526 54.652306 
L 366.747632 61.661107 
L 378.194737 69.332868 
L 389.641842 77.029724 
L 401.088947 84.335895 
L 412.536053 92.255326 
L 423.983158 99.782125 
L 435.430263 107.181114 
L 446.877368 114.358676 
L 458.324474 120.763285 
L 469.771579 127.05989 
L 481.218684 133.066876 
L 492.665789 138.49423 
L 504.112895 144.039662 
L 515.56 148.420361 
L 515.56 134.521601 
L 515.56 134.521601 
L 504.112895 129.554864 
L 492.665789 125.018172 
L 481.218684 118.75947 
L 469.771579 113.649085 
L 458.324474 107.975299 
L 446.877368 101.791889 
L 435.430263 95.435389 
L 423.983158 89.266483 
L 412.536053 82.568081 
L 401.088947 75.675342 
L 389.641842 69.351552 
L 378.194737 62.681892 
L 366.747632 56.141539 
L 355.300526 49.846308 
L 343.853421 44.594571 
L 332.406316 39.840088 
L 320.959211 36.576253 
L 309.512105 34.275038 
L 298.065 33.569394 
z
" clip-path="url(#p29a46b8cf6)" style="fill: #7f7f7f; fill-opacity: 0.4"/>
   </g>
   <g id="matplotlib.axis_3">
    <g id="xtick_6">
     <g id="line2d_18">
      <g>
       <use xlink:href="#ma7c19c0918" x="298.065" y="174.04" style="stroke: #000000; stroke-width: 0.8"/>
      </g>
     </g>
     <g id="text_13">
      <!-- 0.0 -->
      <g transform="translate(290.113437 188.638438)scale(0.1 -0.1)">
       <use xlink:href="#DejaVuSans-30"/>
       <use xlink:href="#DejaVuSans-2e" x="63.623047"/>
       <use xlink:href="#DejaVuSans-30" x="95.410156"/>
      </g>
     </g>
    </g>
    <g id="xtick_7">
     <g id="line2d_19">
      <g>
       <use xlink:href="#ma7c19c0918" x="352.43875" y="174.04" style="stroke: #000000; stroke-width: 0.8"/>
      </g>
     </g>
     <g id="text_14">
      <!-- 0.5 -->
      <g transform="translate(344.487187 188.638438)scale(0.1 -0.1)">
       <use xlink:href="#DejaVuSans-30"/>
       <use xlink:href="#DejaVuSans-2e" x="63.623047"/>
       <use xlink:href="#DejaVuSans-35" x="95.410156"/>
      </g>
     </g>
    </g>
    <g id="xtick_8">
     <g id="line2d_20">
      <g>
       <use xlink:href="#ma7c19c0918" x="406.8125" y="174.04" style="stroke: #000000; stroke-width: 0.8"/>
      </g>
     </g>
     <g id="text_15">
      <!-- 1.0 -->
      <g transform="translate(398.860937 188.638438)scale(0.1 -0.1)">
       <use xlink:href="#DejaVuSans-31"/>
       <use xlink:href="#DejaVuSans-2e" x="63.623047"/>
       <use xlink:href="#DejaVuSans-30" x="95.410156"/>
      </g>
     </g>
    </g>
    <g id="xtick_9">
     <g id="line2d_21">
      <g>
       <use xlink:href="#ma7c19c0918" x="461.18625" y="174.04" style="stroke: #000000; stroke-width: 0.8"/>
      </g>
     </g>
     <g id="text_16">
      <!-- 1.5 -->
      <g transform="translate(453.234687 188.638438)scale(0.1 -0.1)">
       <use xlink:href="#DejaVuSans-31"/>
       <use xlink:href="#DejaVuSans-2e" x="63.623047"/>
       <use xlink:href="#DejaVuSans-35" x="95.410156"/>
      </g>
     </g>
    </g>
    <g id="xtick_10">
     <g id="line2d_22">
      <g>
       <use xlink:href="#ma7c19c0918" x="515.56" y="174.04" style="stroke: #000000; stroke-width: 0.8"/>
      </g>
     </g>
     <g id="text_17">
      <!-- 2.0 -->
      <g transform="translate(507.608437 188.638438)scale(0.1 -0.1)">
       <use xlink:href="#DejaVuSans-32"/>
       <use xlink:href="#DejaVuSans-2e" x="63.623047"/>
       <use xlink:href="#DejaVuSans-30" x="95.410156"/>
      </g>
     </g>
    </g>
    <g id="text_18">
     <!-- Influence of surprisal (multiplication) -->
     <g transform="translate(314.665625 202.316563)scale(0.1 -0.1)">
      <use xlink:href="#DejaVuSans-49"/>
      <use xlink:href="#DejaVuSans-6e" x="29.492188"/>
      <use xlink:href="#DejaVuSans-66" x="92.871094"/>
      <use xlink:href="#DejaVuSans-6c" x="128.076172"/>
      <use xlink:href="#DejaVuSans-75" x="155.859375"/>
      <use xlink:href="#DejaVuSans-65" x="219.238281"/>
      <use xlink:href="#DejaVuSans-6e" x="280.761719"/>
      <use xlink:href="#DejaVuSans-63" x="344.140625"/>
      <use xlink:href="#DejaVuSans-65" x="399.121094"/>
      <use xlink:href="#DejaVuSans-20" x="460.644531"/>
      <use xlink:href="#DejaVuSans-6f" x="492.431641"/>
      <use xlink:href="#DejaVuSans-66" x="553.613281"/>
      <use xlink:href="#DejaVuSans-20" x="588.818359"/>
      <use xlink:href="#DejaVuSans-73" x="620.605469"/>
      <use xlink:href="#DejaVuSans-75" x="672.705078"/>
      <use xlink:href="#DejaVuSans-72" x="736.083984"/>
      <use xlink:href="#DejaVuSans-70" x="777.197266"/>
      <use xlink:href="#DejaVuSans-72" x="840.673828"/>
      <use xlink:href="#DejaVuSans-69" x="881.787109"/>
      <use xlink:href="#DejaVuSans-73" x="909.570312"/>
      <use xlink:href="#DejaVuSans-61" x="961.669922"/>
      <use xlink:href="#DejaVuSans-6c" x="1022.949219"/>
      <use xlink:href="#DejaVuSans-20" x="1050.732422"/>
      <use xlink:href="#DejaVuSans-28" x="1082.519531"/>
      <use xlink:href="#DejaVuSans-6d" x="1121.533203"/>
      <use xlink:href="#DejaVuSans-75" x="1218.945312"/>
      <use xlink:href="#DejaVuSans-6c" x="1282.324219"/>
      <use xlink:href="#DejaVuSans-74" x="1310.107422"/>
      <use xlink:href="#DejaVuSans-69" x="1349.316406"/>
      <use xlink:href="#DejaVuSans-70" x="1377.099609"/>
      <use xlink:href="#DejaVuSans-6c" x="1440.576172"/>
      <use xlink:href="#DejaVuSans-69" x="1468.359375"/>
      <use xlink:href="#DejaVuSans-63" x="1496.142578"/>
      <use xlink:href="#DejaVuSans-61" x="1551.123047"/>
      <use xlink:href="#DejaVuSans-74" x="1612.402344"/>
      <use xlink:href="#DejaVuSans-69" x="1651.611328"/>
      <use xlink:href="#DejaVuSans-6f" x="1679.394531"/>
      <use xlink:href="#DejaVuSans-6e" x="1740.576172"/>
      <use xlink:href="#DejaVuSans-29" x="1803.955078"/>
     </g>
    </g>
   </g>
   <g id="line2d_23">
    <path d="M 298.065 33.569091 
L 309.512105 34.482856 
L 320.959211 37.165097 
L 332.406316 41.098847 
L 343.853421 46.25551 
L 355.300526 52.172173 
L 366.747632 58.815951 
L 378.194737 65.864335 
L 389.641842 73.049212 
L 401.088947 79.853824 
L 412.536053 87.242241 
L 423.983158 94.310861 
L 435.430263 101.050964 
L 446.877368 107.803273 
L 458.324474 114.100449 
L 469.771579 120.094732 
L 481.218684 125.590238 
L 492.665789 131.429151 
L 504.112895 136.450768 
L 515.56 141.18259 
" clip-path="url(#p29a46b8cf6)" style="fill: none; stroke: #1f77b4; stroke-width: 1.5; stroke-linecap: square"/>
   </g>
   <g id="line2d_24">
    <path d="M 298.065 33.569273 
L 309.512105 34.484886 
L 320.959211 37.173986 
L 332.406316 41.11687 
L 343.853421 46.294219 
L 355.300526 52.223597 
L 366.747632 58.885235 
L 378.194737 65.964214 
L 389.641842 73.16905 
L 401.088947 79.992392 
L 412.536053 87.410306 
L 423.983158 94.510274 
L 435.430263 101.28532 
L 446.877368 108.063798 
L 458.324474 114.388873 
L 469.771579 120.398692 
L 481.218684 125.925888 
L 492.665789 131.76522 
L 504.112895 136.826142 
L 515.56 141.543926 
" clip-path="url(#p29a46b8cf6)" style="fill: none; stroke: #ff7f0e; stroke-width: 1.5; stroke-linecap: square"/>
   </g>
   <g id="line2d_25">
    <path d="M 298.065 33.569102 
L 309.512105 34.48377 
L 320.959211 37.169879 
L 332.406316 41.107233 
L 343.853421 46.266815 
L 355.300526 52.187284 
L 366.747632 58.834833 
L 378.194737 65.89839 
L 389.641842 73.086912 
L 401.088947 79.898101 
L 412.536053 87.272073 
L 423.983158 94.378413 
L 435.430263 101.156897 
L 446.877368 107.962078 
L 458.324474 114.24842 
L 469.771579 120.289564 
L 481.218684 125.85569 
L 492.665789 131.691443 
L 504.112895 136.783841 
L 515.56 141.487596 
" clip-path="url(#p29a46b8cf6)" style="fill: none; stroke: #2ca02c; stroke-width: 1.5; stroke-linecap: square"/>
   </g>
   <g id="line2d_26">
    <path d="M 298.065 33.570027 
L 309.512105 34.486612 
L 320.959211 37.17928 
L 332.406316 41.127446 
L 343.853421 46.303505 
L 355.300526 52.232633 
L 366.747632 58.899829 
L 378.194737 65.982654 
L 389.641842 73.199326 
L 401.088947 80.01712 
L 412.536053 87.417258 
L 423.983158 94.528028 
L 435.430263 101.335359 
L 446.877368 108.130689 
L 458.324474 114.450941 
L 469.771579 120.474607 
L 481.218684 126.067589 
L 492.665789 131.92153 
L 504.112895 137.070879 
L 515.56 141.761285 
" clip-path="url(#p29a46b8cf6)" style="fill: none; stroke: #d62728; stroke-width: 1.5; stroke-linecap: square"/>
   </g>
   <g id="line2d_27">
    <path d="M 298.065 33.569101 
L 309.512105 34.480759 
L 320.959211 37.166961 
L 332.406316 41.133666 
L 343.853421 46.242167 
L 355.300526 52.250851 
L 366.747632 58.881722 
L 378.194737 65.975945 
L 389.641842 73.117242 
L 401.088947 79.859874 
L 412.536053 87.46697 
L 423.983158 94.639945 
L 435.430263 101.111855 
L 446.877368 107.982204 
L 458.324474 114.402336 
L 469.771579 120.464476 
L 481.218684 125.855399 
L 492.665789 131.708147 
L 504.112895 136.871991 
L 515.56 141.942555 
" clip-path="url(#p29a46b8cf6)" style="fill: none; stroke: #9467bd; stroke-width: 1.5; stroke-linecap: square"/>
   </g>
   <g id="line2d_28">
    <path d="M 298.065 33.56983 
L 309.512105 34.48352 
L 320.959211 37.176098 
L 332.406316 41.152635 
L 343.853421 46.282937 
L 355.300526 52.302541 
L 366.747632 58.950584 
L 378.194737 66.081165 
L 389.641842 73.257038 
L 401.088947 80.008638 
L 412.536053 87.628618 
L 423.983158 94.847063 
L 435.430263 101.34946 
L 446.877368 108.242823 
L 458.324474 114.682943 
L 469.771579 120.784919 
L 481.218684 126.209643 
L 492.665789 132.039179 
L 504.112895 137.255812 
L 515.56 142.340959 
" clip-path="url(#p29a46b8cf6)" style="fill: none; stroke: #8c564b; stroke-width: 1.5; stroke-linecap: square"/>
   </g>
   <g id="line2d_29">
    <path d="M 298.065 47.915941 
L 309.512105 48.75565 
L 320.959211 51.243161 
L 332.406316 54.895331 
L 343.853421 59.644845 
L 355.300526 65.155732 
L 366.747632 71.286769 
L 378.194737 77.850639 
L 389.641842 84.618336 
L 401.088947 90.819404 
L 412.536053 97.735617 
L 423.983158 104.188674 
L 435.430263 110.530377 
L 446.877368 116.805071 
L 458.324474 122.612737 
L 469.771579 128.268125 
L 481.218684 133.218172 
L 492.665789 138.855288 
L 504.112895 143.569294 
L 515.56 147.988176 
" clip-path="url(#p29a46b8cf6)" style="fill: none; stroke: #e377c2; stroke-width: 1.5; stroke-linecap: square"/>
   </g>
   <g id="line2d_30">
    <path d="M 298.065 33.569511 
L 309.512105 34.487154 
L 320.959211 37.178118 
L 332.406316 41.122567 
L 343.853421 46.31481 
L 355.300526 52.249307 
L 366.747632 58.901323 
L 378.194737 66.00738 
L 389.641842 73.190638 
L 401.088947 80.005619 
L 412.536053 87.411703 
L 423.983158 94.524304 
L 435.430263 101.308252 
L 446.877368 108.075282 
L 458.324474 114.369292 
L 469.771579 120.354487 
L 481.218684 125.913173 
L 492.665789 131.756201 
L 504.112895 136.797263 
L 515.56 141.470981 
" clip-path="url(#p29a46b8cf6)" style="fill: none; stroke: #7f7f7f; stroke-width: 1.5; stroke-linecap: square"/>
   </g>
   <g id="patch_6">
    <path d="M 298.065 174.04 
L 298.065 26.88 
" style="fill: none; stroke: #000000; stroke-width: 0.8; stroke-linejoin: miter; stroke-linecap: square"/>
   </g>
   <g id="patch_7">
    <path d="M 298.065 174.04 
L 515.56 174.04 
" style="fill: none; stroke: #000000; stroke-width: 0.8; stroke-linejoin: miter; stroke-linecap: square"/>
   </g>
   <g id="text_19">
    <!-- Node * third variable -->
    <g transform="translate(344.2325 20.88)scale(0.12 -0.12)">
     <defs>
      <path id="DejaVuSans-68" d="M 3513 2113 
L 3513 0 
L 2938 0 
L 2938 2094 
Q 2938 2591 2744 2837 
Q 2550 3084 2163 3084 
Q 1697 3084 1428 2787 
Q 1159 2491 1159 1978 
L 1159 0 
L 581 0 
L 581 4863 
L 1159 4863 
L 1159 2956 
Q 1366 3272 1645 3428 
Q 1925 3584 2291 3584 
Q 2894 3584 3203 3211 
Q 3513 2838 3513 2113 
z
" transform="scale(0.015625)"/>
      <path id="DejaVuSans-62" d="M 3116 1747 
Q 3116 2381 2855 2742 
Q 2594 3103 2138 3103 
Q 1681 3103 1420 2742 
Q 1159 2381 1159 1747 
Q 1159 1113 1420 752 
Q 1681 391 2138 391 
Q 2594 391 2855 752 
Q 3116 1113 3116 1747 
z
M 1159 2969 
Q 1341 3281 1617 3432 
Q 1894 3584 2278 3584 
Q 2916 3584 3314 3078 
Q 3713 2572 3713 1747 
Q 3713 922 3314 415 
Q 2916 -91 2278 -91 
Q 1894 -91 1617 61 
Q 1341 213 1159 525 
L 1159 0 
L 581 0 
L 581 4863 
L 1159 4863 
L 1159 2969 
z
" transform="scale(0.015625)"/>
     </defs>
     <use xlink:href="#DejaVuSans-4e"/>
     <use xlink:href="#DejaVuSans-6f" x="74.804688"/>
     <use xlink:href="#DejaVuSans-64" x="135.986328"/>
     <use xlink:href="#DejaVuSans-65" x="199.462891"/>
     <use xlink:href="#DejaVuSans-20" x="260.986328"/>
     <use xlink:href="#DejaVuSans-2a" x="292.773438"/>
     <use xlink:href="#DejaVuSans-20" x="342.773438"/>
     <use xlink:href="#DejaVuSans-74" x="374.560547"/>
     <use xlink:href="#DejaVuSans-68" x="413.769531"/>
     <use xlink:href="#DejaVuSans-69" x="477.148438"/>
     <use xlink:href="#DejaVuSans-72" x="504.931641"/>
     <use xlink:href="#DejaVuSans-64" x="544.294922"/>
     <use xlink:href="#DejaVuSans-20" x="607.771484"/>
     <use xlink:href="#DejaVuSans-76" x="639.558594"/>
     <use xlink:href="#DejaVuSans-61" x="698.738281"/>
     <use xlink:href="#DejaVuSans-72" x="760.017578"/>
     <use xlink:href="#DejaVuSans-69" x="801.130859"/>
     <use xlink:href="#DejaVuSans-61" x="828.914062"/>
     <use xlink:href="#DejaVuSans-62" x="890.193359"/>
     <use xlink:href="#DejaVuSans-6c" x="953.669922"/>
     <use xlink:href="#DejaVuSans-65" x="981.453125"/>
    </g>
   </g>
   <g id="legend_1">
    <g id="line2d_31">
     <path d="M 524.56 39.978437 
L 534.56 39.978437 
L 544.56 39.978437 
" style="fill: none; stroke: #1f77b4; stroke-width: 1.5; stroke-linecap: square"/>
    </g>
    <g id="text_20">
     <!-- Node -->
     <g transform="translate(552.56 43.478437)scale(0.1 -0.1)">
      <use xlink:href="#DejaVuSans-4e"/>
      <use xlink:href="#DejaVuSans-6f" x="74.804688"/>
      <use xlink:href="#DejaVuSans-64" x="135.986328"/>
      <use xlink:href="#DejaVuSans-65" x="199.462891"/>
     </g>
    </g>
    <g id="line2d_32">
     <path d="M 524.56 54.656563 
L 534.56 54.656563 
L 544.56 54.656563 
" style="fill: none; stroke: #ff7f0e; stroke-width: 1.5; stroke-linecap: square"/>
    </g>
    <g id="text_21">
     <!-- Node + surprisal -->
     <g transform="translate(552.56 58.156563)scale(0.1 -0.1)">
      <defs>
       <path id="DejaVuSans-2b" d="M 2944 4013 
L 2944 2272 
L 4684 2272 
L 4684 1741 
L 2944 1741 
L 2944 0 
L 2419 0 
L 2419 1741 
L 678 1741 
L 678 2272 
L 2419 2272 
L 2419 4013 
L 2944 4013 
z
" transform="scale(0.015625)"/>
      </defs>
      <use xlink:href="#DejaVuSans-4e"/>
      <use xlink:href="#DejaVuSans-6f" x="74.804688"/>
      <use xlink:href="#DejaVuSans-64" x="135.986328"/>
      <use xlink:href="#DejaVuSans-65" x="199.462891"/>
      <use xlink:href="#DejaVuSans-20" x="260.986328"/>
      <use xlink:href="#DejaVuSans-2b" x="292.773438"/>
      <use xlink:href="#DejaVuSans-20" x="376.5625"/>
      <use xlink:href="#DejaVuSans-73" x="408.349609"/>
      <use xlink:href="#DejaVuSans-75" x="460.449219"/>
      <use xlink:href="#DejaVuSans-72" x="523.828125"/>
      <use xlink:href="#DejaVuSans-70" x="564.941406"/>
      <use xlink:href="#DejaVuSans-72" x="628.417969"/>
      <use xlink:href="#DejaVuSans-69" x="669.53125"/>
      <use xlink:href="#DejaVuSans-73" x="697.314453"/>
      <use xlink:href="#DejaVuSans-61" x="749.414062"/>
      <use xlink:href="#DejaVuSans-6c" x="810.693359"/>
     </g>
    </g>
    <g id="line2d_33">
     <path d="M 524.56 69.334687 
L 534.56 69.334687 
L 544.56 69.334687 
" style="fill: none; stroke: #2ca02c; stroke-width: 1.5; stroke-linecap: square"/>
    </g>
    <g id="text_22">
     <!-- Node split -->
     <g transform="translate(552.56 72.834687)scale(0.1 -0.1)">
      <use xlink:href="#DejaVuSans-4e"/>
      <use xlink:href="#DejaVuSans-6f" x="74.804688"/>
      <use xlink:href="#DejaVuSans-64" x="135.986328"/>
      <use xlink:href="#DejaVuSans-65" x="199.462891"/>
      <use xlink:href="#DejaVuSans-20" x="260.986328"/>
      <use xlink:href="#DejaVuSans-73" x="292.773438"/>
      <use xlink:href="#DejaVuSans-70" x="344.873047"/>
      <use xlink:href="#DejaVuSans-6c" x="408.349609"/>
      <use xlink:href="#DejaVuSans-69" x="436.132812"/>
      <use xlink:href="#DejaVuSans-74" x="463.916016"/>
     </g>
    </g>
    <g id="line2d_34">
     <path d="M 524.56 84.012812 
L 534.56 84.012812 
L 544.56 84.012812 
" style="fill: none; stroke: #d62728; stroke-width: 1.5; stroke-linecap: square"/>
    </g>
    <g id="text_23">
     <!-- Node split + surprisal -->
     <g transform="translate(552.56 87.512812)scale(0.1 -0.1)">
      <use xlink:href="#DejaVuSans-4e"/>
      <use xlink:href="#DejaVuSans-6f" x="74.804688"/>
      <use xlink:href="#DejaVuSans-64" x="135.986328"/>
      <use xlink:href="#DejaVuSans-65" x="199.462891"/>
      <use xlink:href="#DejaVuSans-20" x="260.986328"/>
      <use xlink:href="#DejaVuSans-73" x="292.773438"/>
      <use xlink:href="#DejaVuSans-70" x="344.873047"/>
      <use xlink:href="#DejaVuSans-6c" x="408.349609"/>
      <use xlink:href="#DejaVuSans-69" x="436.132812"/>
      <use xlink:href="#DejaVuSans-74" x="463.916016"/>
      <use xlink:href="#DejaVuSans-20" x="503.125"/>
      <use xlink:href="#DejaVuSans-2b" x="534.912109"/>
      <use xlink:href="#DejaVuSans-20" x="618.701172"/>
      <use xlink:href="#DejaVuSans-73" x="650.488281"/>
      <use xlink:href="#DejaVuSans-75" x="702.587891"/>
      <use xlink:href="#DejaVuSans-72" x="765.966797"/>
      <use xlink:href="#DejaVuSans-70" x="807.080078"/>
      <use xlink:href="#DejaVuSans-72" x="870.556641"/>
      <use xlink:href="#DejaVuSans-69" x="911.669922"/>
      <use xlink:href="#DejaVuSans-73" x="939.453125"/>
      <use xlink:href="#DejaVuSans-61" x="991.552734"/>
      <use xlink:href="#DejaVuSans-6c" x="1052.832031"/>
     </g>
    </g>
    <g id="line2d_35">
     <path d="M 524.56 98.690937 
L 534.56 98.690937 
L 544.56 98.690937 
" style="fill: none; stroke: #9467bd; stroke-width: 1.5; stroke-linecap: square"/>
    </g>
    <g id="text_24">
     <!-- Node random split -->
     <g transform="translate(552.56 102.190937)scale(0.1 -0.1)">
      <use xlink:href="#DejaVuSans-4e"/>
      <use xlink:href="#DejaVuSans-6f" x="74.804688"/>
      <use xlink:href="#DejaVuSans-64" x="135.986328"/>
      <use xlink:href="#DejaVuSans-65" x="199.462891"/>
      <use xlink:href="#DejaVuSans-20" x="260.986328"/>
      <use xlink:href="#DejaVuSans-72" x="292.773438"/>
      <use xlink:href="#DejaVuSans-61" x="333.886719"/>
      <use xlink:href="#DejaVuSans-6e" x="395.166016"/>
      <use xlink:href="#DejaVuSans-64" x="458.544922"/>
      <use xlink:href="#DejaVuSans-6f" x="522.021484"/>
      <use xlink:href="#DejaVuSans-6d" x="583.203125"/>
      <use xlink:href="#DejaVuSans-20" x="680.615234"/>
      <use xlink:href="#DejaVuSans-73" x="712.402344"/>
      <use xlink:href="#DejaVuSans-70" x="764.501953"/>
      <use xlink:href="#DejaVuSans-6c" x="827.978516"/>
      <use xlink:href="#DejaVuSans-69" x="855.761719"/>
      <use xlink:href="#DejaVuSans-74" x="883.544922"/>
     </g>
    </g>
    <g id="line2d_36">
     <path d="M 524.56 113.369062 
L 534.56 113.369062 
L 544.56 113.369062 
" style="fill: none; stroke: #8c564b; stroke-width: 1.5; stroke-linecap: square"/>
    </g>
    <g id="text_25">
     <!-- Node random split + surprisal -->
     <g transform="translate(552.56 116.869062)scale(0.1 -0.1)">
      <use xlink:href="#DejaVuSans-4e"/>
      <use xlink:href="#DejaVuSans-6f" x="74.804688"/>
      <use xlink:href="#DejaVuSans-64" x="135.986328"/>
      <use xlink:href="#DejaVuSans-65" x="199.462891"/>
      <use xlink:href="#DejaVuSans-20" x="260.986328"/>
      <use xlink:href="#DejaVuSans-72" x="292.773438"/>
      <use xlink:href="#DejaVuSans-61" x="333.886719"/>
      <use xlink:href="#DejaVuSans-6e" x="395.166016"/>
      <use xlink:href="#DejaVuSans-64" x="458.544922"/>
      <use xlink:href="#DejaVuSans-6f" x="522.021484"/>
      <use xlink:href="#DejaVuSans-6d" x="583.203125"/>
      <use xlink:href="#DejaVuSans-20" x="680.615234"/>
      <use xlink:href="#DejaVuSans-73" x="712.402344"/>
      <use xlink:href="#DejaVuSans-70" x="764.501953"/>
      <use xlink:href="#DejaVuSans-6c" x="827.978516"/>
      <use xlink:href="#DejaVuSans-69" x="855.761719"/>
      <use xlink:href="#DejaVuSans-74" x="883.544922"/>
      <use xlink:href="#DejaVuSans-20" x="922.753906"/>
      <use xlink:href="#DejaVuSans-2b" x="954.541016"/>
      <use xlink:href="#DejaVuSans-20" x="1038.330078"/>
      <use xlink:href="#DejaVuSans-73" x="1070.117188"/>
      <use xlink:href="#DejaVuSans-75" x="1122.216797"/>
      <use xlink:href="#DejaVuSans-72" x="1185.595703"/>
      <use xlink:href="#DejaVuSans-70" x="1226.708984"/>
      <use xlink:href="#DejaVuSans-72" x="1290.185547"/>
      <use xlink:href="#DejaVuSans-69" x="1331.298828"/>
      <use xlink:href="#DejaVuSans-73" x="1359.082031"/>
      <use xlink:href="#DejaVuSans-61" x="1411.181641"/>
      <use xlink:href="#DejaVuSans-6c" x="1472.460938"/>
     </g>
    </g>
    <g id="line2d_37">
     <path d="M 524.56 128.047187 
L 534.56 128.047187 
L 544.56 128.047187 
" style="fill: none; stroke: #e377c2; stroke-width: 1.5; stroke-linecap: square"/>
    </g>
    <g id="text_26">
     <!-- Interaction -->
     <g transform="translate(552.56 131.547187)scale(0.1 -0.1)">
      <use xlink:href="#DejaVuSans-49"/>
      <use xlink:href="#DejaVuSans-6e" x="29.492188"/>
      <use xlink:href="#DejaVuSans-74" x="92.871094"/>
      <use xlink:href="#DejaVuSans-65" x="132.080078"/>
      <use xlink:href="#DejaVuSans-72" x="193.603516"/>
      <use xlink:href="#DejaVuSans-61" x="234.716797"/>
      <use xlink:href="#DejaVuSans-63" x="295.996094"/>
      <use xlink:href="#DejaVuSans-74" x="350.976562"/>
      <use xlink:href="#DejaVuSans-69" x="390.185547"/>
      <use xlink:href="#DejaVuSans-6f" x="417.96875"/>
      <use xlink:href="#DejaVuSans-6e" x="479.150391"/>
     </g>
    </g>
    <g id="line2d_38">
     <path d="M 524.56 142.725312 
L 534.56 142.725312 
L 544.56 142.725312 
" style="fill: none; stroke: #7f7f7f; stroke-width: 1.5; stroke-linecap: square"/>
    </g>
    <g id="text_27">
     <!-- Node + surprisal + interaction -->
     <g transform="translate(552.56 146.225312)scale(0.1 -0.1)">
      <use xlink:href="#DejaVuSans-4e"/>
      <use xlink:href="#DejaVuSans-6f" x="74.804688"/>
      <use xlink:href="#DejaVuSans-64" x="135.986328"/>
      <use xlink:href="#DejaVuSans-65" x="199.462891"/>
      <use xlink:href="#DejaVuSans-20" x="260.986328"/>
      <use xlink:href="#DejaVuSans-2b" x="292.773438"/>
      <use xlink:href="#DejaVuSans-20" x="376.5625"/>
      <use xlink:href="#DejaVuSans-73" x="408.349609"/>
      <use xlink:href="#DejaVuSans-75" x="460.449219"/>
      <use xlink:href="#DejaVuSans-72" x="523.828125"/>
      <use xlink:href="#DejaVuSans-70" x="564.941406"/>
      <use xlink:href="#DejaVuSans-72" x="628.417969"/>
      <use xlink:href="#DejaVuSans-69" x="669.53125"/>
      <use xlink:href="#DejaVuSans-73" x="697.314453"/>
      <use xlink:href="#DejaVuSans-61" x="749.414062"/>
      <use xlink:href="#DejaVuSans-6c" x="810.693359"/>
      <use xlink:href="#DejaVuSans-20" x="838.476562"/>
      <use xlink:href="#DejaVuSans-2b" x="870.263672"/>
      <use xlink:href="#DejaVuSans-20" x="954.052734"/>
      <use xlink:href="#DejaVuSans-69" x="985.839844"/>
      <use xlink:href="#DejaVuSans-6e" x="1013.623047"/>
      <use xlink:href="#DejaVuSans-74" x="1077.001953"/>
      <use xlink:href="#DejaVuSans-65" x="1116.210938"/>
      <use xlink:href="#DejaVuSans-72" x="1177.734375"/>
      <use xlink:href="#DejaVuSans-61" x="1218.847656"/>
      <use xlink:href="#DejaVuSans-63" x="1280.126953"/>
      <use xlink:href="#DejaVuSans-74" x="1335.107422"/>
      <use xlink:href="#DejaVuSans-69" x="1374.316406"/>
      <use xlink:href="#DejaVuSans-6f" x="1402.099609"/>
      <use xlink:href="#DejaVuSans-6e" x="1463.28125"/>
     </g>
    </g>
   </g>
  </g>
 </g>
 <defs>
  <clipPath id="p0e78c2f559">
   <rect x="47.72" y="26.88" width="217.495" height="147.16"/>
  </clipPath>
  <clipPath id="p29a46b8cf6">
   <rect x="298.065" y="26.88" width="217.495" height="147.16"/>
  </clipPath>
 </defs>
</svg>
