<?xml version="1.0" encoding="utf-8" standalone="no"?>
<!DOCTYPE svg PUBLIC "-//W3C//DTD SVG 1.1//EN"
  "http://www.w3.org/Graphics/SVG/1.1/DTD/svg11.dtd">
<svg xmlns:xlink="http://www.w3.org/1999/xlink" width="720pt" height="216pt" viewBox="0 0 720 216" xmlns="http://www.w3.org/2000/svg" version="1.1">
 <metadata>
  <rdf:RDF xmlns:dc="http://purl.org/dc/elements/1.1/" xmlns:cc="http://creativecommons.org/ns#" xmlns:rdf="http://www.w3.org/1999/02/22-rdf-syntax-ns#">
   <cc:Work>
    <dc:type rdf:resource="http://purl.org/dc/dcmitype/StillImage"/>
    <dc:date>2024-01-15T20:48:15.024109</dc:date>
    <dc:format>image/svg+xml</dc:format>
    <dc:creator>
     <cc:Agent>
      <dc:title>Matplotlib v3.5.1, https://matplotlib.org/</dc:title>
     </cc:Agent>
    </dc:creator>
   </cc:Work>
  </rdf:RDF>
 </metadata>
 <defs>
  <style type="text/css">*{stroke-linejoin: round; stroke-linecap: butt}</style>
 </defs>
 <g id="figure_1">
  <g id="patch_1">
   <path d="M 0 216 
L 720 216 
L 720 0 
L 0 0 
z
" style="fill: #ffffff"/>
  </g>
  <g id="axes_1">
   <g id="patch_2">
    <path d="M 47.72 174.04 
L 265.215 174.04 
L 265.215 26.88 
L 47.72 26.88 
z
" style="fill: #ffffff"/>
   </g>
   <g id="PolyCollection_1">
    <path d="M 47.72 33.569091 
L 47.72 33.569092 
L 59.167105 34.614861 
L 70.614211 37.734213 
L 82.061316 42.017181 
L 93.508421 47.746214 
L 104.955526 54.688146 
L 116.402632 61.704909 
L 127.849737 69.501826 
L 139.296842 77.330527 
L 150.743947 85.206707 
L 162.191053 92.777083 
L 173.638158 100.669576 
L 185.085263 107.520777 
L 196.532368 114.972175 
L 207.979474 121.608271 
L 219.426579 127.132476 
L 230.873684 132.952172 
L 242.320789 138.323588 
L 253.767895 143.168221 
L 265.215 147.61338 
L 265.215 136.007422 
L 265.215 136.007422 
L 253.767895 130.823046 
L 242.320789 124.649179 
L 230.873684 119.375389 
L 219.426579 113.381575 
L 207.979474 107.21831 
L 196.532368 100.539476 
L 185.085263 94.71776 
L 173.638158 88.092747 
L 162.191053 81.155959 
L 150.743947 74.561672 
L 139.296842 67.822939 
L 127.849737 61.274348 
L 116.402632 55.046443 
L 104.955526 49.148614 
L 93.508421 43.954806 
L 82.061316 39.650545 
L 70.614211 36.576179 
L 59.167105 34.232413 
L 47.72 33.569091 
z
" clip-path="url(#p27b7fc4a93)" style="fill: #1f77b4; fill-opacity: 0.4"/>
   </g>
   <g id="PolyCollection_2">
    <path d="M 47.72 33.569242 
L 47.72 33.569298 
L 59.167105 34.268324 
L 70.614211 35.923059 
L 82.061316 38.379011 
L 93.508421 41.657201 
L 104.955526 45.830472 
L 116.402632 50.632135 
L 127.849737 56.274444 
L 139.296842 61.892091 
L 150.743947 68.306609 
L 162.191053 74.549327 
L 173.638158 81.404464 
L 185.085263 87.561356 
L 196.532368 94.468933 
L 207.979474 101.152906 
L 219.426579 107.074794 
L 230.873684 113.231582 
L 242.320789 119.435935 
L 253.767895 124.544829 
L 265.215 129.920321 
L 265.215 118.718194 
L 265.215 118.718194 
L 253.767895 113.989664 
L 242.320789 107.909713 
L 230.873684 103.304778 
L 219.426579 97.640121 
L 207.979474 91.959021 
L 196.532368 85.592586 
L 185.085263 79.883338 
L 173.638158 73.545994 
L 162.191053 67.406916 
L 150.743947 61.382007 
L 139.296842 56.09037 
L 127.849737 50.903001 
L 116.402632 46.468809 
L 104.955526 42.520518 
L 93.508421 39.444948 
L 82.061316 36.899935 
L 70.614211 35.287521 
L 59.167105 34.00046 
L 47.72 33.569242 
z
" clip-path="url(#p27b7fc4a93)" style="fill: #ff7f0e; fill-opacity: 0.4"/>
   </g>
   <g id="PolyCollection_3">
    <path d="M 47.72 33.5691 
L 47.72 33.569104 
L 59.167105 34.392407 
L 70.614211 35.989491 
L 82.061316 38.061988 
L 93.508421 40.793637 
L 104.955526 44.214711 
L 116.402632 47.59739 
L 127.849737 51.448961 
L 139.296842 55.066098 
L 150.743947 59.003213 
L 162.191053 62.88294 
L 173.638158 67.023454 
L 185.085263 70.864677 
L 196.532368 74.419909 
L 207.979474 78.344123 
L 219.426579 82.112032 
L 230.873684 85.607611 
L 242.320789 89.184301 
L 253.767895 92.119052 
L 265.215 95.274654 
L 265.215 83.988291 
L 265.215 83.988291 
L 253.767895 80.876101 
L 242.320789 77.306781 
L 230.873684 74.504024 
L 219.426579 71.15857 
L 207.979474 67.756699 
L 196.532368 64.560081 
L 185.085263 61.311297 
L 173.638158 57.847285 
L 162.191053 54.590008 
L 150.743947 51.652426 
L 139.296842 48.561751 
L 127.849737 45.296689 
L 116.402632 42.60871 
L 104.955526 40.40628 
L 93.508421 38.250389 
L 82.061316 36.436045 
L 70.614211 35.161349 
L 59.167105 34.115547 
L 47.72 33.5691 
z
" clip-path="url(#p27b7fc4a93)" style="fill: #2ca02c; fill-opacity: 0.4"/>
   </g>
   <g id="PolyCollection_4">
    <path d="M 47.72 33.569938 
L 47.72 33.570231 
L 59.167105 34.231011 
L 70.614211 35.395541 
L 82.061316 37.002038 
L 93.508421 39.077818 
L 104.955526 41.76321 
L 116.402632 44.668512 
L 127.849737 48.173334 
L 139.296842 51.520135 
L 150.743947 55.369361 
L 162.191053 59.237799 
L 173.638158 63.441567 
L 185.085263 67.311443 
L 196.532368 71.081883 
L 207.979474 75.103237 
L 219.426579 78.888859 
L 230.873684 82.502319 
L 242.320789 86.244214 
L 253.767895 89.312617 
L 265.215 92.792982 
L 265.215 82.638501 
L 265.215 82.638501 
L 253.767895 79.550982 
L 242.320789 75.870954 
L 230.873684 73.016099 
L 219.426579 69.52909 
L 207.979474 66.011011 
L 196.532368 62.54801 
L 185.085263 59.222007 
L 173.638158 55.558007 
L 162.191053 52.255228 
L 150.743947 49.095442 
L 139.296842 46.123197 
L 127.849737 43.124309 
L 116.402632 40.729707 
L 104.955526 38.812432 
L 93.508421 37.161233 
L 82.061316 35.706715 
L 70.614211 34.803712 
L 59.167105 33.996237 
L 47.72 33.569938 
z
" clip-path="url(#p27b7fc4a93)" style="fill: #d62728; fill-opacity: 0.4"/>
   </g>
   <g id="PolyCollection_5">
    <path d="M 47.72 33.5691 
L 47.72 33.569104 
L 59.167105 34.617032 
L 70.614211 37.748375 
L 82.061316 42.031258 
L 93.508421 47.738793 
L 104.955526 54.610518 
L 116.402632 61.816223 
L 127.849737 69.320395 
L 139.296842 77.282913 
L 150.743947 85.242053 
L 162.191053 92.907041 
L 173.638158 100.519418 
L 185.085263 107.717188 
L 196.532368 115.428928 
L 207.979474 122.022176 
L 219.426579 127.824353 
L 230.873684 133.155493 
L 242.320789 138.7971 
L 253.767895 143.73068 
L 265.215 148.097162 
L 265.215 136.187198 
L 265.215 136.187198 
L 253.767895 131.219161 
L 242.320789 125.326989 
L 230.873684 119.526497 
L 219.426579 112.843087 
L 207.979474 107.460601 
L 196.532368 100.896427 
L 185.085263 94.626822 
L 173.638158 88.237299 
L 162.191053 81.466426 
L 150.743947 74.581519 
L 139.296842 67.714855 
L 127.849737 61.3811 
L 116.402632 55.191445 
L 104.955526 49.16895 
L 93.508421 43.968463 
L 82.061316 39.667955 
L 70.614211 36.581486 
L 59.167105 34.241719 
L 47.72 33.5691 
z
" clip-path="url(#p27b7fc4a93)" style="fill: #9467bd; fill-opacity: 0.4"/>
   </g>
   <g id="PolyCollection_6">
    <path d="M 47.72 33.569709 
L 47.72 33.569928 
L 59.167105 34.270347 
L 70.614211 35.931128 
L 82.061316 38.40775 
L 93.508421 41.676356 
L 104.955526 45.838124 
L 116.402632 50.729737 
L 127.849737 56.169062 
L 139.296842 61.914642 
L 150.743947 68.365791 
L 162.191053 74.653705 
L 173.638158 81.337652 
L 185.085263 87.729429 
L 196.532368 94.839302 
L 207.979474 101.321631 
L 219.426579 107.433021 
L 230.873684 113.425014 
L 242.320789 119.648787 
L 253.767895 125.023571 
L 265.215 130.476117 
L 265.215 118.727491 
L 265.215 118.727491 
L 253.767895 114.352158 
L 242.320789 108.021656 
L 230.873684 103.417323 
L 219.426579 97.4848 
L 207.979474 92.095821 
L 196.532368 85.797274 
L 185.085263 79.784582 
L 173.638158 73.732984 
L 162.191053 67.54926 
L 150.743947 61.382833 
L 139.296842 56.003213 
L 127.849737 50.924179 
L 116.402632 46.547427 
L 104.955526 42.536881 
L 93.508421 39.451548 
L 82.061316 36.907846 
L 70.614211 35.287648 
L 59.167105 34.005634 
L 47.72 33.569709 
z
" clip-path="url(#p27b7fc4a93)" style="fill: #8c564b; fill-opacity: 0.4"/>
   </g>
   <g id="PolyCollection_7">
    <path d="M 47.72 46.11694 
L 47.72 49.07761 
L 59.167105 50.501042 
L 70.614211 54.211189 
L 82.061316 59.778837 
L 93.508421 66.765854 
L 104.955526 75.182899 
L 116.402632 83.618804 
L 127.849737 92.323394 
L 139.296842 100.959516 
L 150.743947 109.065746 
L 162.191053 117.177936 
L 173.638158 125.228183 
L 185.085263 131.991724 
L 196.532368 138.977953 
L 207.979474 145.282536 
L 219.426579 150.533969 
L 230.873684 155.506464 
L 242.320789 159.839957 
L 253.767895 163.999077 
L 265.215 167.350909 
L 265.215 151.871948 
L 265.215 151.871948 
L 253.767895 147.343136 
L 242.320789 142.349763 
L 230.873684 137.462493 
L 219.426579 131.971785 
L 207.979474 126.31246 
L 196.532368 120.216879 
L 185.085263 114.230368 
L 173.638158 107.469054 
L 162.191053 100.325296 
L 150.743947 93.369098 
L 139.296842 85.877632 
L 127.849737 78.444656 
L 116.402632 71.345917 
L 104.955526 64.612742 
L 93.508421 58.482908 
L 82.061316 53.312664 
L 70.614211 49.615076 
L 59.167105 47.015552 
L 47.72 46.11694 
z
" clip-path="url(#p27b7fc4a93)" style="fill: #e377c2; fill-opacity: 0.4"/>
   </g>
   <g id="PolyCollection_8">
    <path d="M 47.72 33.5694 
L 47.72 33.569528 
L 59.167105 33.857599 
L 70.614211 34.047124 
L 82.061316 34.608884 
L 93.508421 35.87515 
L 104.955526 38.076611 
L 116.402632 41.330447 
L 127.849737 45.683841 
L 139.296842 50.557102 
L 150.743947 56.034111 
L 162.191053 61.98722 
L 173.638158 68.285695 
L 185.085263 74.122855 
L 196.532368 80.583676 
L 207.979474 87.356618 
L 219.426579 93.640646 
L 230.873684 99.966054 
L 242.320789 106.365612 
L 253.767895 112.21232 
L 265.215 117.931787 
L 265.215 100.983419 
L 265.215 100.983419 
L 253.767895 95.534614 
L 242.320789 89.113059 
L 230.873684 84.16818 
L 219.426579 78.438403 
L 207.979474 72.744465 
L 196.532368 66.868624 
L 185.085263 61.630838 
L 173.638158 56.174797 
L 162.191053 51.075017 
L 150.743947 46.639137 
L 139.296842 42.742428 
L 127.849737 39.450287 
L 116.402632 37.284155 
L 104.955526 35.691466 
L 93.508421 34.631972 
L 82.061316 34.139717 
L 70.614211 33.952996 
L 59.167105 33.817485 
L 47.72 33.5694 
z
" clip-path="url(#p27b7fc4a93)" style="fill: #7f7f7f; fill-opacity: 0.4"/>
   </g>
   <g id="matplotlib.axis_1">
    <g id="xtick_1">
     <g id="line2d_1">
      <defs>
       <path id="ma676da094b" d="M 0 0 
L 0 3.5 
" style="stroke: #000000; stroke-width: 0.8"/>
      </defs>
      <g>
       <use xlink:href="#ma676da094b" x="47.72" y="174.04" style="stroke: #000000; stroke-width: 0.8"/>
      </g>
     </g>
     <g id="text_1">
      <!-- 0.0 -->
      <g transform="translate(39.768438 188.638438)scale(0.1 -0.1)">
       <defs>
        <path id="DejaVuSans-30" d="M 2034 4250 
Q 1547 4250 1301 3770 
Q 1056 3291 1056 2328 
Q 1056 1369 1301 889 
Q 1547 409 2034 409 
Q 2525 409 2770 889 
Q 3016 1369 3016 2328 
Q 3016 3291 2770 3770 
Q 2525 4250 2034 4250 
z
M 2034 4750 
Q 2819 4750 3233 4129 
Q 3647 3509 3647 2328 
Q 3647 1150 3233 529 
Q 2819 -91 2034 -91 
Q 1250 -91 836 529 
Q 422 1150 422 2328 
Q 422 3509 836 4129 
Q 1250 4750 2034 4750 
z
" transform="scale(0.015625)"/>
        <path id="DejaVuSans-2e" d="M 684 794 
L 1344 794 
L 1344 0 
L 684 0 
L 684 794 
z
" transform="scale(0.015625)"/>
       </defs>
       <use xlink:href="#DejaVuSans-30"/>
       <use xlink:href="#DejaVuSans-2e" x="63.623047"/>
       <use xlink:href="#DejaVuSans-30" x="95.410156"/>
      </g>
     </g>
    </g>
    <g id="xtick_2">
     <g id="line2d_2">
      <g>
       <use xlink:href="#ma676da094b" x="102.09375" y="174.04" style="stroke: #000000; stroke-width: 0.8"/>
      </g>
     </g>
     <g id="text_2">
      <!-- 0.5 -->
      <g transform="translate(94.142188 188.638438)scale(0.1 -0.1)">
       <defs>
        <path id="DejaVuSans-35" d="M 691 4666 
L 3169 4666 
L 3169 4134 
L 1269 4134 
L 1269 2991 
Q 1406 3038 1543 3061 
Q 1681 3084 1819 3084 
Q 2600 3084 3056 2656 
Q 3513 2228 3513 1497 
Q 3513 744 3044 326 
Q 2575 -91 1722 -91 
Q 1428 -91 1123 -41 
Q 819 9 494 109 
L 494 744 
Q 775 591 1075 516 
Q 1375 441 1709 441 
Q 2250 441 2565 725 
Q 2881 1009 2881 1497 
Q 2881 1984 2565 2268 
Q 2250 2553 1709 2553 
Q 1456 2553 1204 2497 
Q 953 2441 691 2322 
L 691 4666 
z
" transform="scale(0.015625)"/>
       </defs>
       <use xlink:href="#DejaVuSans-30"/>
       <use xlink:href="#DejaVuSans-2e" x="63.623047"/>
       <use xlink:href="#DejaVuSans-35" x="95.410156"/>
      </g>
     </g>
    </g>
    <g id="xtick_3">
     <g id="line2d_3">
      <g>
       <use xlink:href="#ma676da094b" x="156.4675" y="174.04" style="stroke: #000000; stroke-width: 0.8"/>
      </g>
     </g>
     <g id="text_3">
      <!-- 1.0 -->
      <g transform="translate(148.515938 188.638438)scale(0.1 -0.1)">
       <defs>
        <path id="DejaVuSans-31" d="M 794 531 
L 1825 531 
L 1825 4091 
L 703 3866 
L 703 4441 
L 1819 4666 
L 2450 4666 
L 2450 531 
L 3481 531 
L 3481 0 
L 794 0 
L 794 531 
z
" transform="scale(0.015625)"/>
       </defs>
       <use xlink:href="#DejaVuSans-31"/>
       <use xlink:href="#DejaVuSans-2e" x="63.623047"/>
       <use xlink:href="#DejaVuSans-30" x="95.410156"/>
      </g>
     </g>
    </g>
    <g id="xtick_4">
     <g id="line2d_4">
      <g>
       <use xlink:href="#ma676da094b" x="210.84125" y="174.04" style="stroke: #000000; stroke-width: 0.8"/>
      </g>
     </g>
     <g id="text_4">
      <!-- 1.5 -->
      <g transform="translate(202.889687 188.638438)scale(0.1 -0.1)">
       <use xlink:href="#DejaVuSans-31"/>
       <use xlink:href="#DejaVuSans-2e" x="63.623047"/>
       <use xlink:href="#DejaVuSans-35" x="95.410156"/>
      </g>
     </g>
    </g>
    <g id="xtick_5">
     <g id="line2d_5">
      <g>
       <use xlink:href="#ma676da094b" x="265.215" y="174.04" style="stroke: #000000; stroke-width: 0.8"/>
      </g>
     </g>
     <g id="text_5">
      <!-- 2.0 -->
      <g transform="translate(257.263437 188.638438)scale(0.1 -0.1)">
       <defs>
        <path id="DejaVuSans-32" d="M 1228 531 
L 3431 531 
L 3431 0 
L 469 0 
L 469 531 
Q 828 903 1448 1529 
Q 2069 2156 2228 2338 
Q 2531 2678 2651 2914 
Q 2772 3150 2772 3378 
Q 2772 3750 2511 3984 
Q 2250 4219 1831 4219 
Q 1534 4219 1204 4116 
Q 875 4013 500 3803 
L 500 4441 
Q 881 4594 1212 4672 
Q 1544 4750 1819 4750 
Q 2544 4750 2975 4387 
Q 3406 4025 3406 3419 
Q 3406 3131 3298 2873 
Q 3191 2616 2906 2266 
Q 2828 2175 2409 1742 
Q 1991 1309 1228 531 
z
" transform="scale(0.015625)"/>
       </defs>
       <use xlink:href="#DejaVuSans-32"/>
       <use xlink:href="#DejaVuSans-2e" x="63.623047"/>
       <use xlink:href="#DejaVuSans-30" x="95.410156"/>
      </g>
     </g>
    </g>
    <g id="text_6">
     <!-- Influence of surprisal (multiplication) -->
     <g transform="translate(64.320625 202.316563)scale(0.1 -0.1)">
      <defs>
       <path id="DejaVuSans-49" d="M 628 4666 
L 1259 4666 
L 1259 0 
L 628 0 
L 628 4666 
z
" transform="scale(0.015625)"/>
       <path id="DejaVuSans-6e" d="M 3513 2113 
L 3513 0 
L 2938 0 
L 2938 2094 
Q 2938 2591 2744 2837 
Q 2550 3084 2163 3084 
Q 1697 3084 1428 2787 
Q 1159 2491 1159 1978 
L 1159 0 
L 581 0 
L 581 3500 
L 1159 3500 
L 1159 2956 
Q 1366 3272 1645 3428 
Q 1925 3584 2291 3584 
Q 2894 3584 3203 3211 
Q 3513 2838 3513 2113 
z
" transform="scale(0.015625)"/>
       <path id="DejaVuSans-66" d="M 2375 4863 
L 2375 4384 
L 1825 4384 
Q 1516 4384 1395 4259 
Q 1275 4134 1275 3809 
L 1275 3500 
L 2222 3500 
L 2222 3053 
L 1275 3053 
L 1275 0 
L 697 0 
L 697 3053 
L 147 3053 
L 147 3500 
L 697 3500 
L 697 3744 
Q 697 4328 969 4595 
Q 1241 4863 1831 4863 
L 2375 4863 
z
" transform="scale(0.015625)"/>
       <path id="DejaVuSans-6c" d="M 603 4863 
L 1178 4863 
L 1178 0 
L 603 0 
L 603 4863 
z
" transform="scale(0.015625)"/>
       <path id="DejaVuSans-75" d="M 544 1381 
L 544 3500 
L 1119 3500 
L 1119 1403 
Q 1119 906 1312 657 
Q 1506 409 1894 409 
Q 2359 409 2629 706 
Q 2900 1003 2900 1516 
L 2900 3500 
L 3475 3500 
L 3475 0 
L 2900 0 
L 2900 538 
Q 2691 219 2414 64 
Q 2138 -91 1772 -91 
Q 1169 -91 856 284 
Q 544 659 544 1381 
z
M 1991 3584 
L 1991 3584 
z
" transform="scale(0.015625)"/>
       <path id="DejaVuSans-65" d="M 3597 1894 
L 3597 1613 
L 953 1613 
Q 991 1019 1311 708 
Q 1631 397 2203 397 
Q 2534 397 2845 478 
Q 3156 559 3463 722 
L 3463 178 
Q 3153 47 2828 -22 
Q 2503 -91 2169 -91 
Q 1331 -91 842 396 
Q 353 884 353 1716 
Q 353 2575 817 3079 
Q 1281 3584 2069 3584 
Q 2775 3584 3186 3129 
Q 3597 2675 3597 1894 
z
M 3022 2063 
Q 3016 2534 2758 2815 
Q 2500 3097 2075 3097 
Q 1594 3097 1305 2825 
Q 1016 2553 972 2059 
L 3022 2063 
z
" transform="scale(0.015625)"/>
       <path id="DejaVuSans-63" d="M 3122 3366 
L 3122 2828 
Q 2878 2963 2633 3030 
Q 2388 3097 2138 3097 
Q 1578 3097 1268 2742 
Q 959 2388 959 1747 
Q 959 1106 1268 751 
Q 1578 397 2138 397 
Q 2388 397 2633 464 
Q 2878 531 3122 666 
L 3122 134 
Q 2881 22 2623 -34 
Q 2366 -91 2075 -91 
Q 1284 -91 818 406 
Q 353 903 353 1747 
Q 353 2603 823 3093 
Q 1294 3584 2113 3584 
Q 2378 3584 2631 3529 
Q 2884 3475 3122 3366 
z
" transform="scale(0.015625)"/>
       <path id="DejaVuSans-20" transform="scale(0.015625)"/>
       <path id="DejaVuSans-6f" d="M 1959 3097 
Q 1497 3097 1228 2736 
Q 959 2375 959 1747 
Q 959 1119 1226 758 
Q 1494 397 1959 397 
Q 2419 397 2687 759 
Q 2956 1122 2956 1747 
Q 2956 2369 2687 2733 
Q 2419 3097 1959 3097 
z
M 1959 3584 
Q 2709 3584 3137 3096 
Q 3566 2609 3566 1747 
Q 3566 888 3137 398 
Q 2709 -91 1959 -91 
Q 1206 -91 779 398 
Q 353 888 353 1747 
Q 353 2609 779 3096 
Q 1206 3584 1959 3584 
z
" transform="scale(0.015625)"/>
       <path id="DejaVuSans-73" d="M 2834 3397 
L 2834 2853 
Q 2591 2978 2328 3040 
Q 2066 3103 1784 3103 
Q 1356 3103 1142 2972 
Q 928 2841 928 2578 
Q 928 2378 1081 2264 
Q 1234 2150 1697 2047 
L 1894 2003 
Q 2506 1872 2764 1633 
Q 3022 1394 3022 966 
Q 3022 478 2636 193 
Q 2250 -91 1575 -91 
Q 1294 -91 989 -36 
Q 684 19 347 128 
L 347 722 
Q 666 556 975 473 
Q 1284 391 1588 391 
Q 1994 391 2212 530 
Q 2431 669 2431 922 
Q 2431 1156 2273 1281 
Q 2116 1406 1581 1522 
L 1381 1569 
Q 847 1681 609 1914 
Q 372 2147 372 2553 
Q 372 3047 722 3315 
Q 1072 3584 1716 3584 
Q 2034 3584 2315 3537 
Q 2597 3491 2834 3397 
z
" transform="scale(0.015625)"/>
       <path id="DejaVuSans-72" d="M 2631 2963 
Q 2534 3019 2420 3045 
Q 2306 3072 2169 3072 
Q 1681 3072 1420 2755 
Q 1159 2438 1159 1844 
L 1159 0 
L 581 0 
L 581 3500 
L 1159 3500 
L 1159 2956 
Q 1341 3275 1631 3429 
Q 1922 3584 2338 3584 
Q 2397 3584 2469 3576 
Q 2541 3569 2628 3553 
L 2631 2963 
z
" transform="scale(0.015625)"/>
       <path id="DejaVuSans-70" d="M 1159 525 
L 1159 -1331 
L 581 -1331 
L 581 3500 
L 1159 3500 
L 1159 2969 
Q 1341 3281 1617 3432 
Q 1894 3584 2278 3584 
Q 2916 3584 3314 3078 
Q 3713 2572 3713 1747 
Q 3713 922 3314 415 
Q 2916 -91 2278 -91 
Q 1894 -91 1617 61 
Q 1341 213 1159 525 
z
M 3116 1747 
Q 3116 2381 2855 2742 
Q 2594 3103 2138 3103 
Q 1681 3103 1420 2742 
Q 1159 2381 1159 1747 
Q 1159 1113 1420 752 
Q 1681 391 2138 391 
Q 2594 391 2855 752 
Q 3116 1113 3116 1747 
z
" transform="scale(0.015625)"/>
       <path id="DejaVuSans-69" d="M 603 3500 
L 1178 3500 
L 1178 0 
L 603 0 
L 603 3500 
z
M 603 4863 
L 1178 4863 
L 1178 4134 
L 603 4134 
L 603 4863 
z
" transform="scale(0.015625)"/>
       <path id="DejaVuSans-61" d="M 2194 1759 
Q 1497 1759 1228 1600 
Q 959 1441 959 1056 
Q 959 750 1161 570 
Q 1363 391 1709 391 
Q 2188 391 2477 730 
Q 2766 1069 2766 1631 
L 2766 1759 
L 2194 1759 
z
M 3341 1997 
L 3341 0 
L 2766 0 
L 2766 531 
Q 2569 213 2275 61 
Q 1981 -91 1556 -91 
Q 1019 -91 701 211 
Q 384 513 384 1019 
Q 384 1609 779 1909 
Q 1175 2209 1959 2209 
L 2766 2209 
L 2766 2266 
Q 2766 2663 2505 2880 
Q 2244 3097 1772 3097 
Q 1472 3097 1187 3025 
Q 903 2953 641 2809 
L 641 3341 
Q 956 3463 1253 3523 
Q 1550 3584 1831 3584 
Q 2591 3584 2966 3190 
Q 3341 2797 3341 1997 
z
" transform="scale(0.015625)"/>
       <path id="DejaVuSans-28" d="M 1984 4856 
Q 1566 4138 1362 3434 
Q 1159 2731 1159 2009 
Q 1159 1288 1364 580 
Q 1569 -128 1984 -844 
L 1484 -844 
Q 1016 -109 783 600 
Q 550 1309 550 2009 
Q 550 2706 781 3412 
Q 1013 4119 1484 4856 
L 1984 4856 
z
" transform="scale(0.015625)"/>
       <path id="DejaVuSans-6d" d="M 3328 2828 
Q 3544 3216 3844 3400 
Q 4144 3584 4550 3584 
Q 5097 3584 5394 3201 
Q 5691 2819 5691 2113 
L 5691 0 
L 5113 0 
L 5113 2094 
Q 5113 2597 4934 2840 
Q 4756 3084 4391 3084 
Q 3944 3084 3684 2787 
Q 3425 2491 3425 1978 
L 3425 0 
L 2847 0 
L 2847 2094 
Q 2847 2600 2669 2842 
Q 2491 3084 2119 3084 
Q 1678 3084 1418 2786 
Q 1159 2488 1159 1978 
L 1159 0 
L 581 0 
L 581 3500 
L 1159 3500 
L 1159 2956 
Q 1356 3278 1631 3431 
Q 1906 3584 2284 3584 
Q 2666 3584 2933 3390 
Q 3200 3197 3328 2828 
z
" transform="scale(0.015625)"/>
       <path id="DejaVuSans-74" d="M 1172 4494 
L 1172 3500 
L 2356 3500 
L 2356 3053 
L 1172 3053 
L 1172 1153 
Q 1172 725 1289 603 
Q 1406 481 1766 481 
L 2356 481 
L 2356 0 
L 1766 0 
Q 1100 0 847 248 
Q 594 497 594 1153 
L 594 3053 
L 172 3053 
L 172 3500 
L 594 3500 
L 594 4494 
L 1172 4494 
z
" transform="scale(0.015625)"/>
       <path id="DejaVuSans-29" d="M 513 4856 
L 1013 4856 
Q 1481 4119 1714 3412 
Q 1947 2706 1947 2009 
Q 1947 1309 1714 600 
Q 1481 -109 1013 -844 
L 513 -844 
Q 928 -128 1133 580 
Q 1338 1288 1338 2009 
Q 1338 2731 1133 3434 
Q 928 4138 513 4856 
z
" transform="scale(0.015625)"/>
      </defs>
      <use xlink:href="#DejaVuSans-49"/>
      <use xlink:href="#DejaVuSans-6e" x="29.492188"/>
      <use xlink:href="#DejaVuSans-66" x="92.871094"/>
      <use xlink:href="#DejaVuSans-6c" x="128.076172"/>
      <use xlink:href="#DejaVuSans-75" x="155.859375"/>
      <use xlink:href="#DejaVuSans-65" x="219.238281"/>
      <use xlink:href="#DejaVuSans-6e" x="280.761719"/>
      <use xlink:href="#DejaVuSans-63" x="344.140625"/>
      <use xlink:href="#DejaVuSans-65" x="399.121094"/>
      <use xlink:href="#DejaVuSans-20" x="460.644531"/>
      <use xlink:href="#DejaVuSans-6f" x="492.431641"/>
      <use xlink:href="#DejaVuSans-66" x="553.613281"/>
      <use xlink:href="#DejaVuSans-20" x="588.818359"/>
      <use xlink:href="#DejaVuSans-73" x="620.605469"/>
      <use xlink:href="#DejaVuSans-75" x="672.705078"/>
      <use xlink:href="#DejaVuSans-72" x="736.083984"/>
      <use xlink:href="#DejaVuSans-70" x="777.197266"/>
      <use xlink:href="#DejaVuSans-72" x="840.673828"/>
      <use xlink:href="#DejaVuSans-69" x="881.787109"/>
      <use xlink:href="#DejaVuSans-73" x="909.570312"/>
      <use xlink:href="#DejaVuSans-61" x="961.669922"/>
      <use xlink:href="#DejaVuSans-6c" x="1022.949219"/>
      <use xlink:href="#DejaVuSans-20" x="1050.732422"/>
      <use xlink:href="#DejaVuSans-28" x="1082.519531"/>
      <use xlink:href="#DejaVuSans-6d" x="1121.533203"/>
      <use xlink:href="#DejaVuSans-75" x="1218.945312"/>
      <use xlink:href="#DejaVuSans-6c" x="1282.324219"/>
      <use xlink:href="#DejaVuSans-74" x="1310.107422"/>
      <use xlink:href="#DejaVuSans-69" x="1349.316406"/>
      <use xlink:href="#DejaVuSans-70" x="1377.099609"/>
      <use xlink:href="#DejaVuSans-6c" x="1440.576172"/>
      <use xlink:href="#DejaVuSans-69" x="1468.359375"/>
      <use xlink:href="#DejaVuSans-63" x="1496.142578"/>
      <use xlink:href="#DejaVuSans-61" x="1551.123047"/>
      <use xlink:href="#DejaVuSans-74" x="1612.402344"/>
      <use xlink:href="#DejaVuSans-69" x="1651.611328"/>
      <use xlink:href="#DejaVuSans-6f" x="1679.394531"/>
      <use xlink:href="#DejaVuSans-6e" x="1740.576172"/>
      <use xlink:href="#DejaVuSans-29" x="1803.955078"/>
     </g>
    </g>
   </g>
   <g id="matplotlib.axis_2">
    <g id="ytick_1">
     <g id="line2d_6">
      <defs>
       <path id="m84fc35a301" d="M 0 0 
L -3.5 0 
" style="stroke: #000000; stroke-width: 0.8"/>
      </defs>
      <g>
       <use xlink:href="#m84fc35a301" x="47.72" y="146.382911" style="stroke: #000000; stroke-width: 0.8"/>
      </g>
     </g>
     <g id="text_7">
      <!-- 0.4 -->
      <g transform="translate(24.816875 150.18213)scale(0.1 -0.1)">
       <defs>
        <path id="DejaVuSans-34" d="M 2419 4116 
L 825 1625 
L 2419 1625 
L 2419 4116 
z
M 2253 4666 
L 3047 4666 
L 3047 1625 
L 3713 1625 
L 3713 1100 
L 3047 1100 
L 3047 0 
L 2419 0 
L 2419 1100 
L 313 1100 
L 313 1709 
L 2253 4666 
z
" transform="scale(0.015625)"/>
       </defs>
       <use xlink:href="#DejaVuSans-30"/>
       <use xlink:href="#DejaVuSans-2e" x="63.623047"/>
       <use xlink:href="#DejaVuSans-34" x="95.410156"/>
      </g>
     </g>
    </g>
    <g id="ytick_2">
     <g id="line2d_7">
      <g>
       <use xlink:href="#m84fc35a301" x="47.72" y="108.778303" style="stroke: #000000; stroke-width: 0.8"/>
      </g>
     </g>
     <g id="text_8">
      <!-- 0.6 -->
      <g transform="translate(24.816875 112.577522)scale(0.1 -0.1)">
       <defs>
        <path id="DejaVuSans-36" d="M 2113 2584 
Q 1688 2584 1439 2293 
Q 1191 2003 1191 1497 
Q 1191 994 1439 701 
Q 1688 409 2113 409 
Q 2538 409 2786 701 
Q 3034 994 3034 1497 
Q 3034 2003 2786 2293 
Q 2538 2584 2113 2584 
z
M 3366 4563 
L 3366 3988 
Q 3128 4100 2886 4159 
Q 2644 4219 2406 4219 
Q 1781 4219 1451 3797 
Q 1122 3375 1075 2522 
Q 1259 2794 1537 2939 
Q 1816 3084 2150 3084 
Q 2853 3084 3261 2657 
Q 3669 2231 3669 1497 
Q 3669 778 3244 343 
Q 2819 -91 2113 -91 
Q 1303 -91 875 529 
Q 447 1150 447 2328 
Q 447 3434 972 4092 
Q 1497 4750 2381 4750 
Q 2619 4750 2861 4703 
Q 3103 4656 3366 4563 
z
" transform="scale(0.015625)"/>
       </defs>
       <use xlink:href="#DejaVuSans-30"/>
       <use xlink:href="#DejaVuSans-2e" x="63.623047"/>
       <use xlink:href="#DejaVuSans-36" x="95.410156"/>
      </g>
     </g>
    </g>
    <g id="ytick_3">
     <g id="line2d_8">
      <g>
       <use xlink:href="#m84fc35a301" x="47.72" y="71.173695" style="stroke: #000000; stroke-width: 0.8"/>
      </g>
     </g>
     <g id="text_9">
      <!-- 0.8 -->
      <g transform="translate(24.816875 74.972914)scale(0.1 -0.1)">
       <defs>
        <path id="DejaVuSans-38" d="M 2034 2216 
Q 1584 2216 1326 1975 
Q 1069 1734 1069 1313 
Q 1069 891 1326 650 
Q 1584 409 2034 409 
Q 2484 409 2743 651 
Q 3003 894 3003 1313 
Q 3003 1734 2745 1975 
Q 2488 2216 2034 2216 
z
M 1403 2484 
Q 997 2584 770 2862 
Q 544 3141 544 3541 
Q 544 4100 942 4425 
Q 1341 4750 2034 4750 
Q 2731 4750 3128 4425 
Q 3525 4100 3525 3541 
Q 3525 3141 3298 2862 
Q 3072 2584 2669 2484 
Q 3125 2378 3379 2068 
Q 3634 1759 3634 1313 
Q 3634 634 3220 271 
Q 2806 -91 2034 -91 
Q 1263 -91 848 271 
Q 434 634 434 1313 
Q 434 1759 690 2068 
Q 947 2378 1403 2484 
z
M 1172 3481 
Q 1172 3119 1398 2916 
Q 1625 2713 2034 2713 
Q 2441 2713 2670 2916 
Q 2900 3119 2900 3481 
Q 2900 3844 2670 4047 
Q 2441 4250 2034 4250 
Q 1625 4250 1398 4047 
Q 1172 3844 1172 3481 
z
" transform="scale(0.015625)"/>
       </defs>
       <use xlink:href="#DejaVuSans-30"/>
       <use xlink:href="#DejaVuSans-2e" x="63.623047"/>
       <use xlink:href="#DejaVuSans-38" x="95.410156"/>
      </g>
     </g>
    </g>
    <g id="ytick_4">
     <g id="line2d_9">
      <g>
       <use xlink:href="#m84fc35a301" x="47.72" y="33.569088" style="stroke: #000000; stroke-width: 0.8"/>
      </g>
     </g>
     <g id="text_10">
      <!-- 1.0 -->
      <g transform="translate(24.816875 37.368307)scale(0.1 -0.1)">
       <use xlink:href="#DejaVuSans-31"/>
       <use xlink:href="#DejaVuSans-2e" x="63.623047"/>
       <use xlink:href="#DejaVuSans-30" x="95.410156"/>
      </g>
     </g>
    </g>
    <g id="text_11">
     <!-- R-value -->
     <g transform="translate(18.737188 119.064687)rotate(-90)scale(0.1 -0.1)">
      <defs>
       <path id="DejaVuSans-52" d="M 2841 2188 
Q 3044 2119 3236 1894 
Q 3428 1669 3622 1275 
L 4263 0 
L 3584 0 
L 2988 1197 
Q 2756 1666 2539 1819 
Q 2322 1972 1947 1972 
L 1259 1972 
L 1259 0 
L 628 0 
L 628 4666 
L 2053 4666 
Q 2853 4666 3247 4331 
Q 3641 3997 3641 3322 
Q 3641 2881 3436 2590 
Q 3231 2300 2841 2188 
z
M 1259 4147 
L 1259 2491 
L 2053 2491 
Q 2509 2491 2742 2702 
Q 2975 2913 2975 3322 
Q 2975 3731 2742 3939 
Q 2509 4147 2053 4147 
L 1259 4147 
z
" transform="scale(0.015625)"/>
       <path id="DejaVuSans-2d" d="M 313 2009 
L 1997 2009 
L 1997 1497 
L 313 1497 
L 313 2009 
z
" transform="scale(0.015625)"/>
       <path id="DejaVuSans-76" d="M 191 3500 
L 800 3500 
L 1894 563 
L 2988 3500 
L 3597 3500 
L 2284 0 
L 1503 0 
L 191 3500 
z
" transform="scale(0.015625)"/>
      </defs>
      <use xlink:href="#DejaVuSans-52"/>
      <use xlink:href="#DejaVuSans-2d" x="65.482422"/>
      <use xlink:href="#DejaVuSans-76" x="98.941406"/>
      <use xlink:href="#DejaVuSans-61" x="158.121094"/>
      <use xlink:href="#DejaVuSans-6c" x="219.400391"/>
      <use xlink:href="#DejaVuSans-75" x="247.183594"/>
      <use xlink:href="#DejaVuSans-65" x="310.5625"/>
     </g>
    </g>
   </g>
   <g id="line2d_10">
    <path d="M 47.72 33.569091 
L 59.167105 34.423637 
L 70.614211 37.155196 
L 82.061316 40.833863 
L 93.508421 45.85051 
L 104.955526 51.91838 
L 116.402632 58.375676 
L 127.849737 65.388087 
L 139.296842 72.576733 
L 150.743947 79.884189 
L 162.191053 86.966521 
L 173.638158 94.381161 
L 185.085263 101.119268 
L 196.532368 107.755826 
L 207.979474 114.41329 
L 219.426579 120.257025 
L 230.873684 126.16378 
L 242.320789 131.486384 
L 253.767895 136.995634 
L 265.215 141.810401 
" clip-path="url(#p27b7fc4a93)" style="fill: none; stroke: #1f77b4; stroke-width: 1.5; stroke-linecap: square"/>
   </g>
   <g id="line2d_11">
    <path d="M 47.72 33.56927 
L 59.167105 34.134392 
L 70.614211 35.60529 
L 82.061316 37.639473 
L 93.508421 40.551075 
L 104.955526 44.175495 
L 116.402632 48.550472 
L 127.849737 53.588722 
L 139.296842 58.991231 
L 150.743947 64.844308 
L 162.191053 70.978122 
L 173.638158 77.475229 
L 185.085263 83.722347 
L 196.532368 90.03076 
L 207.979474 96.555963 
L 219.426579 102.357458 
L 230.873684 108.26818 
L 242.320789 113.672824 
L 253.767895 119.267247 
L 265.215 124.319257 
" clip-path="url(#p27b7fc4a93)" style="fill: none; stroke: #ff7f0e; stroke-width: 1.5; stroke-linecap: square"/>
   </g>
   <g id="line2d_12">
    <path d="M 47.72 33.569102 
L 59.167105 34.253977 
L 70.614211 35.57542 
L 82.061316 37.249017 
L 93.508421 39.522013 
L 104.955526 42.310496 
L 116.402632 45.10305 
L 127.849737 48.372825 
L 139.296842 51.813925 
L 150.743947 55.32782 
L 162.191053 58.736474 
L 173.638158 62.43537 
L 185.085263 66.087987 
L 196.532368 69.489995 
L 207.979474 73.050411 
L 219.426579 76.635301 
L 230.873684 80.055817 
L 242.320789 83.245541 
L 253.767895 86.497576 
L 265.215 89.631472 
" clip-path="url(#p27b7fc4a93)" style="fill: none; stroke: #2ca02c; stroke-width: 1.5; stroke-linecap: square"/>
   </g>
   <g id="line2d_13">
    <path d="M 47.72 33.570085 
L 59.167105 34.113624 
L 70.614211 35.099626 
L 82.061316 36.354376 
L 93.508421 38.119526 
L 104.955526 40.287821 
L 116.402632 42.699109 
L 127.849737 45.648822 
L 139.296842 48.821666 
L 150.743947 52.232401 
L 162.191053 55.746514 
L 173.638158 59.499787 
L 185.085263 63.266725 
L 196.532368 66.814946 
L 207.979474 70.557124 
L 219.426579 74.208974 
L 230.873684 77.759209 
L 242.320789 81.057584 
L 253.767895 84.431799 
L 265.215 87.715741 
" clip-path="url(#p27b7fc4a93)" style="fill: none; stroke: #d62728; stroke-width: 1.5; stroke-linecap: square"/>
   </g>
   <g id="line2d_14">
    <path d="M 47.72 33.569102 
L 59.167105 34.429375 
L 70.614211 37.164931 
L 82.061316 40.849606 
L 93.508421 45.853628 
L 104.955526 51.889734 
L 116.402632 58.503834 
L 127.849737 65.350747 
L 139.296842 72.498884 
L 150.743947 79.911786 
L 162.191053 87.186733 
L 173.638158 94.378359 
L 185.085263 101.172005 
L 196.532368 108.162678 
L 207.979474 114.741389 
L 219.426579 120.33372 
L 230.873684 126.340995 
L 242.320789 132.062045 
L 253.767895 137.474921 
L 265.215 142.14218 
" clip-path="url(#p27b7fc4a93)" style="fill: none; stroke: #9467bd; stroke-width: 1.5; stroke-linecap: square"/>
   </g>
   <g id="line2d_15">
    <path d="M 47.72 33.569819 
L 59.167105 34.137991 
L 70.614211 35.609388 
L 82.061316 37.657798 
L 93.508421 40.563952 
L 104.955526 44.187503 
L 116.402632 48.638582 
L 127.849737 53.54662 
L 139.296842 58.958927 
L 150.743947 64.874312 
L 162.191053 71.101483 
L 173.638158 77.535318 
L 185.085263 83.757005 
L 196.532368 90.318288 
L 207.979474 96.708726 
L 219.426579 102.45891 
L 230.873684 108.421168 
L 242.320789 113.835221 
L 253.767895 119.687864 
L 265.215 124.601804 
" clip-path="url(#p27b7fc4a93)" style="fill: none; stroke: #8c564b; stroke-width: 1.5; stroke-linecap: square"/>
   </g>
   <g id="line2d_16">
    <path d="M 47.72 47.597275 
L 59.167105 48.758297 
L 70.614211 51.913133 
L 82.061316 56.54575 
L 93.508421 62.624381 
L 104.955526 69.89782 
L 116.402632 77.48236 
L 127.849737 85.384025 
L 139.296842 93.418574 
L 150.743947 101.217422 
L 162.191053 108.751616 
L 173.638158 116.348619 
L 185.085263 123.111046 
L 196.532368 129.597416 
L 207.979474 135.797498 
L 219.426579 141.252877 
L 230.873684 146.484478 
L 242.320789 151.09486 
L 253.767895 155.671107 
L 265.215 159.611429 
" clip-path="url(#p27b7fc4a93)" style="fill: none; stroke: #e377c2; stroke-width: 1.5; stroke-linecap: square"/>
   </g>
   <g id="line2d_17">
    <path d="M 47.72 33.569464 
L 59.167105 33.837542 
L 70.614211 34.00006 
L 82.061316 34.3743 
L 93.508421 35.253561 
L 104.955526 36.884038 
L 116.402632 39.307301 
L 127.849737 42.567064 
L 139.296842 46.649765 
L 150.743947 51.336624 
L 162.191053 56.531118 
L 173.638158 62.230246 
L 185.085263 67.876847 
L 196.532368 73.72615 
L 207.979474 80.050542 
L 219.426579 86.039525 
L 230.873684 92.067117 
L 242.320789 97.739336 
L 253.767895 103.873467 
L 265.215 109.457603 
" clip-path="url(#p27b7fc4a93)" style="fill: none; stroke: #7f7f7f; stroke-width: 1.5; stroke-linecap: square"/>
   </g>
   <g id="patch_3">
    <path d="M 47.72 174.04 
L 47.72 26.88 
" style="fill: none; stroke: #000000; stroke-width: 0.8; stroke-linejoin: miter; stroke-linecap: square"/>
   </g>
   <g id="patch_4">
    <path d="M 47.72 174.04 
L 265.215 174.04 
" style="fill: none; stroke: #000000; stroke-width: 0.8; stroke-linejoin: miter; stroke-linecap: square"/>
   </g>
   <g id="text_12">
    <!-- Node * surprisal -->
    <g transform="translate(108.18625 20.88)scale(0.12 -0.12)">
     <defs>
      <path id="DejaVuSans-4e" d="M 628 4666 
L 1478 4666 
L 3547 763 
L 3547 4666 
L 4159 4666 
L 4159 0 
L 3309 0 
L 1241 3903 
L 1241 0 
L 628 0 
L 628 4666 
z
" transform="scale(0.015625)"/>
      <path id="DejaVuSans-64" d="M 2906 2969 
L 2906 4863 
L 3481 4863 
L 3481 0 
L 2906 0 
L 2906 525 
Q 2725 213 2448 61 
Q 2172 -91 1784 -91 
Q 1150 -91 751 415 
Q 353 922 353 1747 
Q 353 2572 751 3078 
Q 1150 3584 1784 3584 
Q 2172 3584 2448 3432 
Q 2725 3281 2906 2969 
z
M 947 1747 
Q 947 1113 1208 752 
Q 1469 391 1925 391 
Q 2381 391 2643 752 
Q 2906 1113 2906 1747 
Q 2906 2381 2643 2742 
Q 2381 3103 1925 3103 
Q 1469 3103 1208 2742 
Q 947 2381 947 1747 
z
" transform="scale(0.015625)"/>
      <path id="DejaVuSans-2a" d="M 3009 3897 
L 1888 3291 
L 3009 2681 
L 2828 2375 
L 1778 3009 
L 1778 1831 
L 1422 1831 
L 1422 3009 
L 372 2375 
L 191 2681 
L 1313 3291 
L 191 3897 
L 372 4206 
L 1422 3572 
L 1422 4750 
L 1778 4750 
L 1778 3572 
L 2828 4206 
L 3009 3897 
z
" transform="scale(0.015625)"/>
     </defs>
     <use xlink:href="#DejaVuSans-4e"/>
     <use xlink:href="#DejaVuSans-6f" x="74.804688"/>
     <use xlink:href="#DejaVuSans-64" x="135.986328"/>
     <use xlink:href="#DejaVuSans-65" x="199.462891"/>
     <use xlink:href="#DejaVuSans-20" x="260.986328"/>
     <use xlink:href="#DejaVuSans-2a" x="292.773438"/>
     <use xlink:href="#DejaVuSans-20" x="342.773438"/>
     <use xlink:href="#DejaVuSans-73" x="374.560547"/>
     <use xlink:href="#DejaVuSans-75" x="426.660156"/>
     <use xlink:href="#DejaVuSans-72" x="490.039062"/>
     <use xlink:href="#DejaVuSans-70" x="531.152344"/>
     <use xlink:href="#DejaVuSans-72" x="594.628906"/>
     <use xlink:href="#DejaVuSans-69" x="635.742188"/>
     <use xlink:href="#DejaVuSans-73" x="663.525391"/>
     <use xlink:href="#DejaVuSans-61" x="715.625"/>
     <use xlink:href="#DejaVuSans-6c" x="776.904297"/>
    </g>
   </g>
  </g>
  <g id="axes_2">
   <g id="patch_5">
    <path d="M 298.065 174.04 
L 515.56 174.04 
L 515.56 26.88 
L 298.065 26.88 
z
" style="fill: #ffffff"/>
   </g>
   <g id="PolyCollection_9">
    <path d="M 298.065 33.569091 
L 298.065 33.569092 
L 309.512105 34.79942 
L 320.959211 37.978976 
L 332.406316 42.799704 
L 343.853421 48.708142 
L 355.300526 56.078563 
L 366.747632 63.481172 
L 378.194737 71.870493 
L 389.641842 79.726077 
L 401.088947 87.897299 
L 412.536053 95.450639 
L 423.983158 103.779692 
L 435.430263 111.318972 
L 446.877368 118.68428 
L 458.324474 126.084556 
L 469.771579 132.933663 
L 481.218684 138.809129 
L 492.665789 144.542249 
L 504.112895 149.636378 
L 515.56 154.56708 
L 515.56 139.686391 
L 515.56 139.686391 
L 504.112895 135.028722 
L 492.665789 129.418035 
L 481.218684 124.215052 
L 469.771579 118.344966 
L 458.324474 112.414717 
L 446.877368 106.117152 
L 435.430263 99.68496 
L 423.983158 92.80378 
L 412.536053 85.682634 
L 401.088947 78.82744 
L 389.641842 71.556834 
L 378.194737 64.742026 
L 366.747632 57.320467 
L 355.300526 51.078887 
L 343.853421 45.02097 
L 332.406316 40.273193 
L 320.959211 36.881041 
L 309.512105 34.344116 
L 298.065 33.569091 
z
" clip-path="url(#pcf96c3cd9c)" style="fill: #1f77b4; fill-opacity: 0.4"/>
   </g>
   <g id="PolyCollection_10">
    <path d="M 298.065 33.569242 
L 298.065 33.569298 
L 309.512105 34.801968 
L 320.959211 37.980764 
L 332.406316 42.803049 
L 343.853421 48.713162 
L 355.300526 56.100252 
L 366.747632 63.490542 
L 378.194737 71.868041 
L 389.641842 79.721484 
L 401.088947 87.89597 
L 412.536053 95.452162 
L 423.983158 103.811231 
L 435.430263 111.372492 
L 446.877368 118.770495 
L 458.324474 126.174674 
L 469.771579 133.040599 
L 481.218684 138.928177 
L 492.665789 144.671897 
L 504.112895 149.776618 
L 515.56 154.760497 
L 515.56 139.59427 
L 515.56 139.59427 
L 504.112895 134.998986 
L 492.665789 129.356954 
L 481.218684 124.157926 
L 469.771579 118.309432 
L 458.324474 112.371225 
L 446.877368 106.085353 
L 435.430263 99.66487 
L 423.983158 92.773988 
L 412.536053 85.668907 
L 401.088947 78.809538 
L 389.641842 71.555527 
L 378.194737 64.737848 
L 366.747632 57.311345 
L 355.300526 51.074322 
L 343.853421 45.004829 
L 332.406316 40.268484 
L 320.959211 36.877833 
L 309.512105 34.34551 
L 298.065 33.569242 
z
" clip-path="url(#pcf96c3cd9c)" style="fill: #ff7f0e; fill-opacity: 0.4"/>
   </g>
   <g id="PolyCollection_11">
    <path d="M 298.065 33.5691 
L 298.065 33.569104 
L 309.512105 34.800157 
L 320.959211 37.977203 
L 332.406316 42.800631 
L 343.853421 48.704774 
L 355.300526 56.132121 
L 366.747632 63.469135 
L 378.194737 71.888255 
L 389.641842 79.682936 
L 401.088947 87.910993 
L 412.536053 95.426383 
L 423.983158 103.779155 
L 435.430263 111.428795 
L 446.877368 118.884976 
L 458.324474 126.359247 
L 469.771579 133.333187 
L 481.218684 139.29865 
L 492.665789 145.020517 
L 504.112895 150.072273 
L 515.56 155.117588 
L 515.56 139.740843 
L 515.56 139.740843 
L 504.112895 135.251001 
L 492.665789 129.639667 
L 481.218684 124.422946 
L 469.771579 118.623019 
L 458.324474 112.752958 
L 446.877368 106.527962 
L 435.430263 100.16677 
L 423.983158 93.258262 
L 412.536053 86.081639 
L 401.088947 79.176004 
L 389.641842 71.902431 
L 378.194737 65.009954 
L 366.747632 57.543679 
L 355.300526 51.223509 
L 343.853421 45.077893 
L 332.406316 40.324818 
L 320.959211 36.917133 
L 309.512105 34.349472 
L 298.065 33.5691 
z
" clip-path="url(#pcf96c3cd9c)" style="fill: #2ca02c; fill-opacity: 0.4"/>
   </g>
   <g id="PolyCollection_12">
    <path d="M 298.065 33.569938 
L 298.065 33.570231 
L 309.512105 34.802172 
L 320.959211 37.977443 
L 332.406316 42.809237 
L 343.853421 48.717741 
L 355.300526 56.142691 
L 366.747632 63.466748 
L 378.194737 71.864211 
L 389.641842 79.638195 
L 401.088947 87.86797 
L 412.536053 95.361554 
L 423.983158 103.776348 
L 435.430263 111.436133 
L 446.877368 118.966109 
L 458.324474 126.485536 
L 469.771579 133.504322 
L 481.218684 139.554823 
L 492.665789 145.300778 
L 504.112895 150.475011 
L 515.56 155.609947 
L 515.56 139.33399 
L 515.56 139.33399 
L 504.112895 134.939192 
L 492.665789 129.369875 
L 481.218684 124.190646 
L 469.771579 118.48293 
L 458.324474 112.620918 
L 446.877368 106.419896 
L 435.430263 100.115543 
L 423.983158 93.191864 
L 412.536053 86.069592 
L 401.088947 79.157805 
L 389.641842 71.894941 
L 378.194737 64.979061 
L 366.747632 57.510745 
L 355.300526 51.207777 
L 343.853421 45.052547 
L 332.406316 40.319062 
L 320.959211 36.911647 
L 309.512105 34.351913 
L 298.065 33.569938 
z
" clip-path="url(#pcf96c3cd9c)" style="fill: #d62728; fill-opacity: 0.4"/>
   </g>
   <g id="PolyCollection_13">
    <path d="M 298.065 33.5691 
L 298.065 33.569104 
L 309.512105 34.796422 
L 320.959211 38.00507 
L 332.406316 42.79966 
L 343.853421 48.72286 
L 355.300526 56.064781 
L 366.747632 63.631161 
L 378.194737 71.797877 
L 389.641842 79.833288 
L 401.088947 88.131046 
L 412.536053 95.918078 
L 423.983158 103.98479 
L 435.430263 111.553001 
L 446.877368 118.635338 
L 458.324474 126.576389 
L 469.771579 133.568301 
L 481.218684 139.117315 
L 492.665789 144.849277 
L 504.112895 149.514849 
L 515.56 155.256256 
L 515.56 140.15955 
L 515.56 140.15955 
L 504.112895 135.525766 
L 492.665789 129.795073 
L 481.218684 124.709275 
L 469.771579 118.624924 
L 458.324474 112.723098 
L 446.877368 106.597104 
L 435.430263 99.390827 
L 423.983158 93.014438 
L 412.536053 85.687523 
L 401.088947 78.85166 
L 389.641842 71.465501 
L 378.194737 64.8993 
L 366.747632 57.349337 
L 355.300526 51.059133 
L 343.853421 45.028022 
L 332.406316 40.269989 
L 320.959211 36.916786 
L 309.512105 34.345482 
L 298.065 33.5691 
z
" clip-path="url(#pcf96c3cd9c)" style="fill: #9467bd; fill-opacity: 0.4"/>
   </g>
   <g id="PolyCollection_14">
    <path d="M 298.065 33.569702 
L 298.065 33.569931 
L 309.512105 34.799029 
L 320.959211 38.005994 
L 332.406316 42.801872 
L 343.853421 48.724637 
L 355.300526 56.083417 
L 366.747632 63.639152 
L 378.194737 71.788345 
L 389.641842 79.824914 
L 401.088947 88.132515 
L 412.536053 95.924471 
L 423.983158 104.012279 
L 435.430263 111.606028 
L 446.877368 118.717062 
L 458.324474 126.664777 
L 469.771579 133.693648 
L 481.218684 139.250527 
L 492.665789 144.952782 
L 504.112895 149.662502 
L 515.56 155.479913 
L 515.56 140.018061 
L 515.56 140.018061 
L 504.112895 135.474583 
L 492.665789 129.755406 
L 481.218684 124.65727 
L 469.771579 118.590804 
L 458.324474 112.667719 
L 446.877368 106.562286 
L 435.430263 99.382493 
L 423.983158 92.98735 
L 412.536053 85.675337 
L 401.088947 78.823967 
L 389.641842 71.462266 
L 378.194737 64.89239 
L 366.747632 57.335006 
L 355.300526 51.04635 
L 343.853421 45.013401 
L 332.406316 40.265009 
L 320.959211 36.915232 
L 309.512105 34.34739 
L 298.065 33.569702 
z
" clip-path="url(#pcf96c3cd9c)" style="fill: #8c564b; fill-opacity: 0.4"/>
   </g>
   <g id="PolyCollection_15">
    <path d="M 298.065 46.11694 
L 298.065 49.07761 
L 309.512105 49.992859 
L 320.959211 52.657095 
L 332.406316 56.627042 
L 343.853421 61.754677 
L 355.300526 68.449071 
L 366.747632 74.985523 
L 378.194737 82.840239 
L 389.641842 90.475999 
L 401.088947 98.189834 
L 412.536053 105.347074 
L 423.983158 113.461935 
L 435.430263 120.572534 
L 446.877368 127.690914 
L 458.324474 134.765934 
L 469.771579 141.247379 
L 481.218684 146.35637 
L 492.665789 152.059921 
L 504.112895 156.546723 
L 515.56 160.827961 
L 515.56 144.936566 
L 515.56 144.936566 
L 504.112895 140.619384 
L 492.665789 135.160628 
L 481.218684 130.489366 
L 469.771579 124.908075 
L 458.324474 119.436845 
L 446.877368 113.605274 
L 435.430263 107.649948 
L 423.983158 101.290371 
L 412.536053 94.670473 
L 401.088947 88.416639 
L 389.641842 81.51359 
L 378.194737 75.224443 
L 366.747632 68.558895 
L 355.300526 62.490884 
L 343.853421 57.138537 
L 332.406316 52.604365 
L 320.959211 49.287466 
L 309.512105 46.939376 
L 298.065 46.11694 
z
" clip-path="url(#pcf96c3cd9c)" style="fill: #e377c2; fill-opacity: 0.4"/>
   </g>
   <g id="PolyCollection_16">
    <path d="M 298.065 33.5694 
L 298.065 33.569528 
L 309.512105 34.801993 
L 320.959211 37.982241 
L 332.406316 42.808545 
L 343.853421 48.744451 
L 355.300526 56.156523 
L 366.747632 63.55311 
L 378.194737 72.017835 
L 389.641842 79.899113 
L 401.088947 88.200702 
L 412.536053 95.874062 
L 423.983158 104.325216 
L 435.430263 112.075937 
L 446.877368 119.623058 
L 458.324474 127.188994 
L 469.771579 134.181223 
L 481.218684 140.194142 
L 492.665789 146.04581 
L 504.112895 151.150519 
L 515.56 156.051233 
L 515.56 139.775661 
L 515.56 139.775661 
L 504.112895 135.164624 
L 492.665789 129.525096 
L 481.218684 124.348984 
L 469.771579 118.52264 
L 458.324474 112.566612 
L 446.877368 106.287642 
L 435.430263 99.905162 
L 423.983158 93.032519 
L 412.536053 85.94393 
L 401.088947 79.025126 
L 389.641842 71.758939 
L 378.194737 64.907922 
L 366.747632 57.472338 
L 355.300526 51.169875 
L 343.853421 45.058176 
L 332.406316 40.30042 
L 320.959211 36.910089 
L 309.512105 34.348114 
L 298.065 33.5694 
z
" clip-path="url(#pcf96c3cd9c)" style="fill: #7f7f7f; fill-opacity: 0.4"/>
   </g>
   <g id="matplotlib.axis_3">
    <g id="xtick_6">
     <g id="line2d_18">
      <g>
       <use xlink:href="#ma676da094b" x="298.065" y="174.04" style="stroke: #000000; stroke-width: 0.8"/>
      </g>
     </g>
     <g id="text_13">
      <!-- 0.0 -->
      <g transform="translate(290.113437 188.638438)scale(0.1 -0.1)">
       <use xlink:href="#DejaVuSans-30"/>
       <use xlink:href="#DejaVuSans-2e" x="63.623047"/>
       <use xlink:href="#DejaVuSans-30" x="95.410156"/>
      </g>
     </g>
    </g>
    <g id="xtick_7">
     <g id="line2d_19">
      <g>
       <use xlink:href="#ma676da094b" x="352.43875" y="174.04" style="stroke: #000000; stroke-width: 0.8"/>
      </g>
     </g>
     <g id="text_14">
      <!-- 0.5 -->
      <g transform="translate(344.487187 188.638438)scale(0.1 -0.1)">
       <use xlink:href="#DejaVuSans-30"/>
       <use xlink:href="#DejaVuSans-2e" x="63.623047"/>
       <use xlink:href="#DejaVuSans-35" x="95.410156"/>
      </g>
     </g>
    </g>
    <g id="xtick_8">
     <g id="line2d_20">
      <g>
       <use xlink:href="#ma676da094b" x="406.8125" y="174.04" style="stroke: #000000; stroke-width: 0.8"/>
      </g>
     </g>
     <g id="text_15">
      <!-- 1.0 -->
      <g transform="translate(398.860937 188.638438)scale(0.1 -0.1)">
       <use xlink:href="#DejaVuSans-31"/>
       <use xlink:href="#DejaVuSans-2e" x="63.623047"/>
       <use xlink:href="#DejaVuSans-30" x="95.410156"/>
      </g>
     </g>
    </g>
    <g id="xtick_9">
     <g id="line2d_21">
      <g>
       <use xlink:href="#ma676da094b" x="461.18625" y="174.04" style="stroke: #000000; stroke-width: 0.8"/>
      </g>
     </g>
     <g id="text_16">
      <!-- 1.5 -->
      <g transform="translate(453.234687 188.638438)scale(0.1 -0.1)">
       <use xlink:href="#DejaVuSans-31"/>
       <use xlink:href="#DejaVuSans-2e" x="63.623047"/>
       <use xlink:href="#DejaVuSans-35" x="95.410156"/>
      </g>
     </g>
    </g>
    <g id="xtick_10">
     <g id="line2d_22">
      <g>
       <use xlink:href="#ma676da094b" x="515.56" y="174.04" style="stroke: #000000; stroke-width: 0.8"/>
      </g>
     </g>
     <g id="text_17">
      <!-- 2.0 -->
      <g transform="translate(507.608437 188.638438)scale(0.1 -0.1)">
       <use xlink:href="#DejaVuSans-32"/>
       <use xlink:href="#DejaVuSans-2e" x="63.623047"/>
       <use xlink:href="#DejaVuSans-30" x="95.410156"/>
      </g>
     </g>
    </g>
    <g id="text_18">
     <!-- Influence of surprisal (multiplication) -->
     <g transform="translate(314.665625 202.316563)scale(0.1 -0.1)">
      <use xlink:href="#DejaVuSans-49"/>
      <use xlink:href="#DejaVuSans-6e" x="29.492188"/>
      <use xlink:href="#DejaVuSans-66" x="92.871094"/>
      <use xlink:href="#DejaVuSans-6c" x="128.076172"/>
      <use xlink:href="#DejaVuSans-75" x="155.859375"/>
      <use xlink:href="#DejaVuSans-65" x="219.238281"/>
      <use xlink:href="#DejaVuSans-6e" x="280.761719"/>
      <use xlink:href="#DejaVuSans-63" x="344.140625"/>
      <use xlink:href="#DejaVuSans-65" x="399.121094"/>
      <use xlink:href="#DejaVuSans-20" x="460.644531"/>
      <use xlink:href="#DejaVuSans-6f" x="492.431641"/>
      <use xlink:href="#DejaVuSans-66" x="553.613281"/>
      <use xlink:href="#DejaVuSans-20" x="588.818359"/>
      <use xlink:href="#DejaVuSans-73" x="620.605469"/>
      <use xlink:href="#DejaVuSans-75" x="672.705078"/>
      <use xlink:href="#DejaVuSans-72" x="736.083984"/>
      <use xlink:href="#DejaVuSans-70" x="777.197266"/>
      <use xlink:href="#DejaVuSans-72" x="840.673828"/>
      <use xlink:href="#DejaVuSans-69" x="881.787109"/>
      <use xlink:href="#DejaVuSans-73" x="909.570312"/>
      <use xlink:href="#DejaVuSans-61" x="961.669922"/>
      <use xlink:href="#DejaVuSans-6c" x="1022.949219"/>
      <use xlink:href="#DejaVuSans-20" x="1050.732422"/>
      <use xlink:href="#DejaVuSans-28" x="1082.519531"/>
      <use xlink:href="#DejaVuSans-6d" x="1121.533203"/>
      <use xlink:href="#DejaVuSans-75" x="1218.945312"/>
      <use xlink:href="#DejaVuSans-6c" x="1282.324219"/>
      <use xlink:href="#DejaVuSans-74" x="1310.107422"/>
      <use xlink:href="#DejaVuSans-69" x="1349.316406"/>
      <use xlink:href="#DejaVuSans-70" x="1377.099609"/>
      <use xlink:href="#DejaVuSans-6c" x="1440.576172"/>
      <use xlink:href="#DejaVuSans-69" x="1468.359375"/>
      <use xlink:href="#DejaVuSans-63" x="1496.142578"/>
      <use xlink:href="#DejaVuSans-61" x="1551.123047"/>
      <use xlink:href="#DejaVuSans-74" x="1612.402344"/>
      <use xlink:href="#DejaVuSans-69" x="1651.611328"/>
      <use xlink:href="#DejaVuSans-6f" x="1679.394531"/>
      <use xlink:href="#DejaVuSans-6e" x="1740.576172"/>
      <use xlink:href="#DejaVuSans-29" x="1803.955078"/>
     </g>
    </g>
   </g>
   <g id="line2d_23">
    <path d="M 298.065 33.569091 
L 309.512105 34.571768 
L 320.959211 37.430009 
L 332.406316 41.536449 
L 343.853421 46.864556 
L 355.300526 53.578725 
L 366.747632 60.40082 
L 378.194737 68.30626 
L 389.641842 75.641455 
L 401.088947 83.36237 
L 412.536053 90.566636 
L 423.983158 98.291736 
L 435.430263 105.501966 
L 446.877368 112.400716 
L 458.324474 119.249637 
L 469.771579 125.639315 
L 481.218684 131.51209 
L 492.665789 136.980142 
L 504.112895 142.33255 
L 515.56 147.126736 
" clip-path="url(#pcf96c3cd9c)" style="fill: none; stroke: #1f77b4; stroke-width: 1.5; stroke-linecap: square"/>
   </g>
   <g id="line2d_24">
    <path d="M 298.065 33.56927 
L 309.512105 34.573739 
L 320.959211 37.429298 
L 332.406316 41.535766 
L 343.853421 46.858995 
L 355.300526 53.587287 
L 366.747632 60.400943 
L 378.194737 68.302945 
L 389.641842 75.638506 
L 401.088947 83.352754 
L 412.536053 90.560535 
L 423.983158 98.29261 
L 435.430263 105.518681 
L 446.877368 112.427924 
L 458.324474 119.272949 
L 469.771579 125.675015 
L 481.218684 131.543052 
L 492.665789 137.014425 
L 504.112895 142.387802 
L 515.56 147.177384 
" clip-path="url(#pcf96c3cd9c)" style="fill: none; stroke: #ff7f0e; stroke-width: 1.5; stroke-linecap: square"/>
   </g>
   <g id="line2d_25">
    <path d="M 298.065 33.569102 
L 309.512105 34.574815 
L 320.959211 37.447168 
L 332.406316 41.562725 
L 343.853421 46.891334 
L 355.300526 53.677815 
L 366.747632 60.506407 
L 378.194737 68.449104 
L 389.641842 75.792684 
L 401.088947 83.543498 
L 412.536053 90.754011 
L 423.983158 98.518708 
L 435.430263 105.797783 
L 446.877368 112.706469 
L 458.324474 119.556102 
L 469.771579 125.978103 
L 481.218684 131.860798 
L 492.665789 137.330092 
L 504.112895 142.661637 
L 515.56 147.429216 
" clip-path="url(#pcf96c3cd9c)" style="fill: none; stroke: #2ca02c; stroke-width: 1.5; stroke-linecap: square"/>
   </g>
   <g id="line2d_26">
    <path d="M 298.065 33.570085 
L 309.512105 34.577042 
L 320.959211 37.444545 
L 332.406316 41.56415 
L 343.853421 46.885144 
L 355.300526 53.675234 
L 366.747632 60.488746 
L 378.194737 68.421636 
L 389.641842 75.766568 
L 401.088947 83.512888 
L 412.536053 90.715573 
L 423.983158 98.484106 
L 435.430263 105.775838 
L 446.877368 112.693003 
L 458.324474 119.553227 
L 469.771579 125.993626 
L 481.218684 131.872735 
L 492.665789 137.335326 
L 504.112895 142.707101 
L 515.56 147.471969 
" clip-path="url(#pcf96c3cd9c)" style="fill: none; stroke: #d62728; stroke-width: 1.5; stroke-linecap: square"/>
   </g>
   <g id="line2d_27">
    <path d="M 298.065 33.569102 
L 309.512105 34.570952 
L 320.959211 37.460928 
L 332.406316 41.534824 
L 343.853421 46.875441 
L 355.300526 53.561957 
L 366.747632 60.490249 
L 378.194737 68.348588 
L 389.641842 75.649395 
L 401.088947 83.491353 
L 412.536053 90.8028 
L 423.983158 98.499614 
L 435.430263 105.471914 
L 446.877368 112.616221 
L 458.324474 119.649743 
L 469.771579 126.096612 
L 481.218684 131.913295 
L 492.665789 137.322175 
L 504.112895 142.520307 
L 515.56 147.707903 
" clip-path="url(#pcf96c3cd9c)" style="fill: none; stroke: #9467bd; stroke-width: 1.5; stroke-linecap: square"/>
   </g>
   <g id="line2d_28">
    <path d="M 298.065 33.569816 
L 309.512105 34.57321 
L 320.959211 37.460613 
L 332.406316 41.533441 
L 343.853421 46.869019 
L 355.300526 53.564883 
L 366.747632 60.487079 
L 378.194737 68.340368 
L 389.641842 75.64359 
L 401.088947 83.478241 
L 412.536053 90.799904 
L 423.983158 98.499814 
L 435.430263 105.494261 
L 446.877368 112.639674 
L 458.324474 119.666248 
L 469.771579 126.142226 
L 481.218684 131.953899 
L 492.665789 137.354094 
L 504.112895 142.568542 
L 515.56 147.748987 
" clip-path="url(#pcf96c3cd9c)" style="fill: none; stroke: #8c564b; stroke-width: 1.5; stroke-linecap: square"/>
   </g>
   <g id="line2d_29">
    <path d="M 298.065 47.597275 
L 309.512105 48.466117 
L 320.959211 50.972281 
L 332.406316 54.615703 
L 343.853421 59.446607 
L 355.300526 65.469977 
L 366.747632 71.772209 
L 378.194737 79.032341 
L 389.641842 85.994794 
L 401.088947 93.303236 
L 412.536053 100.008773 
L 423.983158 107.376153 
L 435.430263 114.111241 
L 446.877368 120.648094 
L 458.324474 127.10139 
L 469.771579 133.077727 
L 481.218684 138.422868 
L 492.665789 143.610275 
L 504.112895 148.583054 
L 515.56 152.882264 
" clip-path="url(#pcf96c3cd9c)" style="fill: none; stroke: #e377c2; stroke-width: 1.5; stroke-linecap: square"/>
   </g>
   <g id="line2d_30">
    <path d="M 298.065 33.569464 
L 309.512105 34.575053 
L 320.959211 37.446165 
L 332.406316 41.554482 
L 343.853421 46.901313 
L 355.300526 53.663199 
L 366.747632 60.512724 
L 378.194737 68.462879 
L 389.641842 75.829026 
L 401.088947 83.612914 
L 412.536053 90.908996 
L 423.983158 98.678868 
L 435.430263 105.990549 
L 446.877368 112.95535 
L 458.324474 119.877803 
L 469.771579 126.351931 
L 481.218684 132.271563 
L 492.665789 137.785453 
L 504.112895 143.157572 
L 515.56 147.913447 
" clip-path="url(#pcf96c3cd9c)" style="fill: none; stroke: #7f7f7f; stroke-width: 1.5; stroke-linecap: square"/>
   </g>
   <g id="patch_6">
    <path d="M 298.065 174.04 
L 298.065 26.88 
" style="fill: none; stroke: #000000; stroke-width: 0.8; stroke-linejoin: miter; stroke-linecap: square"/>
   </g>
   <g id="patch_7">
    <path d="M 298.065 174.04 
L 515.56 174.04 
" style="fill: none; stroke: #000000; stroke-width: 0.8; stroke-linejoin: miter; stroke-linecap: square"/>
   </g>
   <g id="text_19">
    <!-- Node * third variable -->
    <g transform="translate(344.2325 20.88)scale(0.12 -0.12)">
     <defs>
      <path id="DejaVuSans-68" d="M 3513 2113 
L 3513 0 
L 2938 0 
L 2938 2094 
Q 2938 2591 2744 2837 
Q 2550 3084 2163 3084 
Q 1697 3084 1428 2787 
Q 1159 2491 1159 1978 
L 1159 0 
L 581 0 
L 581 4863 
L 1159 4863 
L 1159 2956 
Q 1366 3272 1645 3428 
Q 1925 3584 2291 3584 
Q 2894 3584 3203 3211 
Q 3513 2838 3513 2113 
z
" transform="scale(0.015625)"/>
      <path id="DejaVuSans-62" d="M 3116 1747 
Q 3116 2381 2855 2742 
Q 2594 3103 2138 3103 
Q 1681 3103 1420 2742 
Q 1159 2381 1159 1747 
Q 1159 1113 1420 752 
Q 1681 391 2138 391 
Q 2594 391 2855 752 
Q 3116 1113 3116 1747 
z
M 1159 2969 
Q 1341 3281 1617 3432 
Q 1894 3584 2278 3584 
Q 2916 3584 3314 3078 
Q 3713 2572 3713 1747 
Q 3713 922 3314 415 
Q 2916 -91 2278 -91 
Q 1894 -91 1617 61 
Q 1341 213 1159 525 
L 1159 0 
L 581 0 
L 581 4863 
L 1159 4863 
L 1159 2969 
z
" transform="scale(0.015625)"/>
     </defs>
     <use xlink:href="#DejaVuSans-4e"/>
     <use xlink:href="#DejaVuSans-6f" x="74.804688"/>
     <use xlink:href="#DejaVuSans-64" x="135.986328"/>
     <use xlink:href="#DejaVuSans-65" x="199.462891"/>
     <use xlink:href="#DejaVuSans-20" x="260.986328"/>
     <use xlink:href="#DejaVuSans-2a" x="292.773438"/>
     <use xlink:href="#DejaVuSans-20" x="342.773438"/>
     <use xlink:href="#DejaVuSans-74" x="374.560547"/>
     <use xlink:href="#DejaVuSans-68" x="413.769531"/>
     <use xlink:href="#DejaVuSans-69" x="477.148438"/>
     <use xlink:href="#DejaVuSans-72" x="504.931641"/>
     <use xlink:href="#DejaVuSans-64" x="544.294922"/>
     <use xlink:href="#DejaVuSans-20" x="607.771484"/>
     <use xlink:href="#DejaVuSans-76" x="639.558594"/>
     <use xlink:href="#DejaVuSans-61" x="698.738281"/>
     <use xlink:href="#DejaVuSans-72" x="760.017578"/>
     <use xlink:href="#DejaVuSans-69" x="801.130859"/>
     <use xlink:href="#DejaVuSans-61" x="828.914062"/>
     <use xlink:href="#DejaVuSans-62" x="890.193359"/>
     <use xlink:href="#DejaVuSans-6c" x="953.669922"/>
     <use xlink:href="#DejaVuSans-65" x="981.453125"/>
    </g>
   </g>
   <g id="legend_1">
    <g id="line2d_31">
     <path d="M 524.56 39.978437 
L 534.56 39.978437 
L 544.56 39.978437 
" style="fill: none; stroke: #1f77b4; stroke-width: 1.5; stroke-linecap: square"/>
    </g>
    <g id="text_20">
     <!-- Node -->
     <g transform="translate(552.56 43.478437)scale(0.1 -0.1)">
      <use xlink:href="#DejaVuSans-4e"/>
      <use xlink:href="#DejaVuSans-6f" x="74.804688"/>
      <use xlink:href="#DejaVuSans-64" x="135.986328"/>
      <use xlink:href="#DejaVuSans-65" x="199.462891"/>
     </g>
    </g>
    <g id="line2d_32">
     <path d="M 524.56 54.656563 
L 534.56 54.656563 
L 544.56 54.656563 
" style="fill: none; stroke: #ff7f0e; stroke-width: 1.5; stroke-linecap: square"/>
    </g>
    <g id="text_21">
     <!-- Node + surprisal -->
     <g transform="translate(552.56 58.156563)scale(0.1 -0.1)">
      <defs>
       <path id="DejaVuSans-2b" d="M 2944 4013 
L 2944 2272 
L 4684 2272 
L 4684 1741 
L 2944 1741 
L 2944 0 
L 2419 0 
L 2419 1741 
L 678 1741 
L 678 2272 
L 2419 2272 
L 2419 4013 
L 2944 4013 
z
" transform="scale(0.015625)"/>
      </defs>
      <use xlink:href="#DejaVuSans-4e"/>
      <use xlink:href="#DejaVuSans-6f" x="74.804688"/>
      <use xlink:href="#DejaVuSans-64" x="135.986328"/>
      <use xlink:href="#DejaVuSans-65" x="199.462891"/>
      <use xlink:href="#DejaVuSans-20" x="260.986328"/>
      <use xlink:href="#DejaVuSans-2b" x="292.773438"/>
      <use xlink:href="#DejaVuSans-20" x="376.5625"/>
      <use xlink:href="#DejaVuSans-73" x="408.349609"/>
      <use xlink:href="#DejaVuSans-75" x="460.449219"/>
      <use xlink:href="#DejaVuSans-72" x="523.828125"/>
      <use xlink:href="#DejaVuSans-70" x="564.941406"/>
      <use xlink:href="#DejaVuSans-72" x="628.417969"/>
      <use xlink:href="#DejaVuSans-69" x="669.53125"/>
      <use xlink:href="#DejaVuSans-73" x="697.314453"/>
      <use xlink:href="#DejaVuSans-61" x="749.414062"/>
      <use xlink:href="#DejaVuSans-6c" x="810.693359"/>
     </g>
    </g>
    <g id="line2d_33">
     <path d="M 524.56 69.334687 
L 534.56 69.334687 
L 544.56 69.334687 
" style="fill: none; stroke: #2ca02c; stroke-width: 1.5; stroke-linecap: square"/>
    </g>
    <g id="text_22">
     <!-- Node split -->
     <g transform="translate(552.56 72.834687)scale(0.1 -0.1)">
      <use xlink:href="#DejaVuSans-4e"/>
      <use xlink:href="#DejaVuSans-6f" x="74.804688"/>
      <use xlink:href="#DejaVuSans-64" x="135.986328"/>
      <use xlink:href="#DejaVuSans-65" x="199.462891"/>
      <use xlink:href="#DejaVuSans-20" x="260.986328"/>
      <use xlink:href="#DejaVuSans-73" x="292.773438"/>
      <use xlink:href="#DejaVuSans-70" x="344.873047"/>
      <use xlink:href="#DejaVuSans-6c" x="408.349609"/>
      <use xlink:href="#DejaVuSans-69" x="436.132812"/>
      <use xlink:href="#DejaVuSans-74" x="463.916016"/>
     </g>
    </g>
    <g id="line2d_34">
     <path d="M 524.56 84.012812 
L 534.56 84.012812 
L 544.56 84.012812 
" style="fill: none; stroke: #d62728; stroke-width: 1.5; stroke-linecap: square"/>
    </g>
    <g id="text_23">
     <!-- Node split + surprisal -->
     <g transform="translate(552.56 87.512812)scale(0.1 -0.1)">
      <use xlink:href="#DejaVuSans-4e"/>
      <use xlink:href="#DejaVuSans-6f" x="74.804688"/>
      <use xlink:href="#DejaVuSans-64" x="135.986328"/>
      <use xlink:href="#DejaVuSans-65" x="199.462891"/>
      <use xlink:href="#DejaVuSans-20" x="260.986328"/>
      <use xlink:href="#DejaVuSans-73" x="292.773438"/>
      <use xlink:href="#DejaVuSans-70" x="344.873047"/>
      <use xlink:href="#DejaVuSans-6c" x="408.349609"/>
      <use xlink:href="#DejaVuSans-69" x="436.132812"/>
      <use xlink:href="#DejaVuSans-74" x="463.916016"/>
      <use xlink:href="#DejaVuSans-20" x="503.125"/>
      <use xlink:href="#DejaVuSans-2b" x="534.912109"/>
      <use xlink:href="#DejaVuSans-20" x="618.701172"/>
      <use xlink:href="#DejaVuSans-73" x="650.488281"/>
      <use xlink:href="#DejaVuSans-75" x="702.587891"/>
      <use xlink:href="#DejaVuSans-72" x="765.966797"/>
      <use xlink:href="#DejaVuSans-70" x="807.080078"/>
      <use xlink:href="#DejaVuSans-72" x="870.556641"/>
      <use xlink:href="#DejaVuSans-69" x="911.669922"/>
      <use xlink:href="#DejaVuSans-73" x="939.453125"/>
      <use xlink:href="#DejaVuSans-61" x="991.552734"/>
      <use xlink:href="#DejaVuSans-6c" x="1052.832031"/>
     </g>
    </g>
    <g id="line2d_35">
     <path d="M 524.56 98.690937 
L 534.56 98.690937 
L 544.56 98.690937 
" style="fill: none; stroke: #9467bd; stroke-width: 1.5; stroke-linecap: square"/>
    </g>
    <g id="text_24">
     <!-- Node random split -->
     <g transform="translate(552.56 102.190937)scale(0.1 -0.1)">
      <use xlink:href="#DejaVuSans-4e"/>
      <use xlink:href="#DejaVuSans-6f" x="74.804688"/>
      <use xlink:href="#DejaVuSans-64" x="135.986328"/>
      <use xlink:href="#DejaVuSans-65" x="199.462891"/>
      <use xlink:href="#DejaVuSans-20" x="260.986328"/>
      <use xlink:href="#DejaVuSans-72" x="292.773438"/>
      <use xlink:href="#DejaVuSans-61" x="333.886719"/>
      <use xlink:href="#DejaVuSans-6e" x="395.166016"/>
      <use xlink:href="#DejaVuSans-64" x="458.544922"/>
      <use xlink:href="#DejaVuSans-6f" x="522.021484"/>
      <use xlink:href="#DejaVuSans-6d" x="583.203125"/>
      <use xlink:href="#DejaVuSans-20" x="680.615234"/>
      <use xlink:href="#DejaVuSans-73" x="712.402344"/>
      <use xlink:href="#DejaVuSans-70" x="764.501953"/>
      <use xlink:href="#DejaVuSans-6c" x="827.978516"/>
      <use xlink:href="#DejaVuSans-69" x="855.761719"/>
      <use xlink:href="#DejaVuSans-74" x="883.544922"/>
     </g>
    </g>
    <g id="line2d_36">
     <path d="M 524.56 113.369062 
L 534.56 113.369062 
L 544.56 113.369062 
" style="fill: none; stroke: #8c564b; stroke-width: 1.5; stroke-linecap: square"/>
    </g>
    <g id="text_25">
     <!-- Node random split + surprisal -->
     <g transform="translate(552.56 116.869062)scale(0.1 -0.1)">
      <use xlink:href="#DejaVuSans-4e"/>
      <use xlink:href="#DejaVuSans-6f" x="74.804688"/>
      <use xlink:href="#DejaVuSans-64" x="135.986328"/>
      <use xlink:href="#DejaVuSans-65" x="199.462891"/>
      <use xlink:href="#DejaVuSans-20" x="260.986328"/>
      <use xlink:href="#DejaVuSans-72" x="292.773438"/>
      <use xlink:href="#DejaVuSans-61" x="333.886719"/>
      <use xlink:href="#DejaVuSans-6e" x="395.166016"/>
      <use xlink:href="#DejaVuSans-64" x="458.544922"/>
      <use xlink:href="#DejaVuSans-6f" x="522.021484"/>
      <use xlink:href="#DejaVuSans-6d" x="583.203125"/>
      <use xlink:href="#DejaVuSans-20" x="680.615234"/>
      <use xlink:href="#DejaVuSans-73" x="712.402344"/>
      <use xlink:href="#DejaVuSans-70" x="764.501953"/>
      <use xlink:href="#DejaVuSans-6c" x="827.978516"/>
      <use xlink:href="#DejaVuSans-69" x="855.761719"/>
      <use xlink:href="#DejaVuSans-74" x="883.544922"/>
      <use xlink:href="#DejaVuSans-20" x="922.753906"/>
      <use xlink:href="#DejaVuSans-2b" x="954.541016"/>
      <use xlink:href="#DejaVuSans-20" x="1038.330078"/>
      <use xlink:href="#DejaVuSans-73" x="1070.117188"/>
      <use xlink:href="#DejaVuSans-75" x="1122.216797"/>
      <use xlink:href="#DejaVuSans-72" x="1185.595703"/>
      <use xlink:href="#DejaVuSans-70" x="1226.708984"/>
      <use xlink:href="#DejaVuSans-72" x="1290.185547"/>
      <use xlink:href="#DejaVuSans-69" x="1331.298828"/>
      <use xlink:href="#DejaVuSans-73" x="1359.082031"/>
      <use xlink:href="#DejaVuSans-61" x="1411.181641"/>
      <use xlink:href="#DejaVuSans-6c" x="1472.460938"/>
     </g>
    </g>
    <g id="line2d_37">
     <path d="M 524.56 128.047187 
L 534.56 128.047187 
L 544.56 128.047187 
" style="fill: none; stroke: #e377c2; stroke-width: 1.5; stroke-linecap: square"/>
    </g>
    <g id="text_26">
     <!-- Interaction -->
     <g transform="translate(552.56 131.547187)scale(0.1 -0.1)">
      <use xlink:href="#DejaVuSans-49"/>
      <use xlink:href="#DejaVuSans-6e" x="29.492188"/>
      <use xlink:href="#DejaVuSans-74" x="92.871094"/>
      <use xlink:href="#DejaVuSans-65" x="132.080078"/>
      <use xlink:href="#DejaVuSans-72" x="193.603516"/>
      <use xlink:href="#DejaVuSans-61" x="234.716797"/>
      <use xlink:href="#DejaVuSans-63" x="295.996094"/>
      <use xlink:href="#DejaVuSans-74" x="350.976562"/>
      <use xlink:href="#DejaVuSans-69" x="390.185547"/>
      <use xlink:href="#DejaVuSans-6f" x="417.96875"/>
      <use xlink:href="#DejaVuSans-6e" x="479.150391"/>
     </g>
    </g>
    <g id="line2d_38">
     <path d="M 524.56 142.725312 
L 534.56 142.725312 
L 544.56 142.725312 
" style="fill: none; stroke: #7f7f7f; stroke-width: 1.5; stroke-linecap: square"/>
    </g>
    <g id="text_27">
     <!-- Node + surprisal + interaction -->
     <g transform="translate(552.56 146.225312)scale(0.1 -0.1)">
      <use xlink:href="#DejaVuSans-4e"/>
      <use xlink:href="#DejaVuSans-6f" x="74.804688"/>
      <use xlink:href="#DejaVuSans-64" x="135.986328"/>
      <use xlink:href="#DejaVuSans-65" x="199.462891"/>
      <use xlink:href="#DejaVuSans-20" x="260.986328"/>
      <use xlink:href="#DejaVuSans-2b" x="292.773438"/>
      <use xlink:href="#DejaVuSans-20" x="376.5625"/>
      <use xlink:href="#DejaVuSans-73" x="408.349609"/>
      <use xlink:href="#DejaVuSans-75" x="460.449219"/>
      <use xlink:href="#DejaVuSans-72" x="523.828125"/>
      <use xlink:href="#DejaVuSans-70" x="564.941406"/>
      <use xlink:href="#DejaVuSans-72" x="628.417969"/>
      <use xlink:href="#DejaVuSans-69" x="669.53125"/>
      <use xlink:href="#DejaVuSans-73" x="697.314453"/>
      <use xlink:href="#DejaVuSans-61" x="749.414062"/>
      <use xlink:href="#DejaVuSans-6c" x="810.693359"/>
      <use xlink:href="#DejaVuSans-20" x="838.476562"/>
      <use xlink:href="#DejaVuSans-2b" x="870.263672"/>
      <use xlink:href="#DejaVuSans-20" x="954.052734"/>
      <use xlink:href="#DejaVuSans-69" x="985.839844"/>
      <use xlink:href="#DejaVuSans-6e" x="1013.623047"/>
      <use xlink:href="#DejaVuSans-74" x="1077.001953"/>
      <use xlink:href="#DejaVuSans-65" x="1116.210938"/>
      <use xlink:href="#DejaVuSans-72" x="1177.734375"/>
      <use xlink:href="#DejaVuSans-61" x="1218.847656"/>
      <use xlink:href="#DejaVuSans-63" x="1280.126953"/>
      <use xlink:href="#DejaVuSans-74" x="1335.107422"/>
      <use xlink:href="#DejaVuSans-69" x="1374.316406"/>
      <use xlink:href="#DejaVuSans-6f" x="1402.099609"/>
      <use xlink:href="#DejaVuSans-6e" x="1463.28125"/>
     </g>
    </g>
   </g>
  </g>
 </g>
 <defs>
  <clipPath id="p27b7fc4a93">
   <rect x="47.72" y="26.88" width="217.495" height="147.16"/>
  </clipPath>
  <clipPath id="pcf96c3cd9c">
   <rect x="298.065" y="26.88" width="217.495" height="147.16"/>
  </clipPath>
 </defs>
</svg>
