<?xml version="1.0" encoding="utf-8" standalone="no"?>
<!DOCTYPE svg PUBLIC "-//W3C//DTD SVG 1.1//EN"
  "http://www.w3.org/Graphics/SVG/1.1/DTD/svg11.dtd">
<svg xmlns:xlink="http://www.w3.org/1999/xlink" width="720pt" height="216pt" viewBox="0 0 720 216" xmlns="http://www.w3.org/2000/svg" version="1.1">
 <metadata>
  <rdf:RDF xmlns:dc="http://purl.org/dc/elements/1.1/" xmlns:cc="http://creativecommons.org/ns#" xmlns:rdf="http://www.w3.org/1999/02/22-rdf-syntax-ns#">
   <cc:Work>
    <dc:type rdf:resource="http://purl.org/dc/dcmitype/StillImage"/>
    <dc:date>2024-01-15T21:07:53.086657</dc:date>
    <dc:format>image/svg+xml</dc:format>
    <dc:creator>
     <cc:Agent>
      <dc:title>Matplotlib v3.5.1, https://matplotlib.org/</dc:title>
     </cc:Agent>
    </dc:creator>
   </cc:Work>
  </rdf:RDF>
 </metadata>
 <defs>
  <style type="text/css">*{stroke-linejoin: round; stroke-linecap: butt}</style>
 </defs>
 <g id="figure_1">
  <g id="patch_1">
   <path d="M 0 216 
L 720 216 
L 720 0 
L 0 0 
z
" style="fill: #ffffff"/>
  </g>
  <g id="axes_1">
   <g id="patch_2">
    <path d="M 47.72 174.04 
L 265.215 174.04 
L 265.215 26.88 
L 47.72 26.88 
z
" style="fill: #ffffff"/>
   </g>
   <g id="PolyCollection_1">
    <path d="M 47.72 33.569091 
L 47.72 33.569092 
L 59.167105 34.651226 
L 70.614211 37.86382 
L 82.061316 42.474085 
L 93.508421 48.462588 
L 104.955526 55.213673 
L 116.402632 62.535749 
L 127.849737 70.516904 
L 139.296842 78.552217 
L 150.743947 85.932364 
L 162.191053 93.749645 
L 173.638158 101.803289 
L 185.085263 109.4188 
L 196.532368 116.102622 
L 207.979474 123.448744 
L 219.426579 129.431568 
L 230.873684 135.596314 
L 242.320789 141.871531 
L 253.767895 146.04222 
L 265.215 150.980332 
L 265.215 131.744127 
L 265.215 131.744127 
L 253.767895 127.392159 
L 242.320789 122.16229 
L 230.873684 117.394055 
L 219.426579 111.541306 
L 207.979474 106.064334 
L 196.532368 100.932505 
L 185.085263 94.524897 
L 173.638158 88.91767 
L 162.191053 82.526767 
L 150.743947 75.917963 
L 139.296842 69.582893 
L 127.849737 63.265823 
L 116.402632 56.379897 
L 104.955526 50.374941 
L 93.508421 44.793891 
L 82.061316 40.149042 
L 70.614211 36.846327 
L 59.167105 34.302142 
L 47.72 33.569091 
z
" clip-path="url(#p846094782f)" style="fill: #1f77b4; fill-opacity: 0.4"/>
   </g>
   <g id="PolyCollection_2">
    <path d="M 47.72 33.569255 
L 47.72 33.569306 
L 59.167105 34.24958 
L 70.614211 36.008564 
L 82.061316 38.590698 
L 93.508421 42.126235 
L 104.955526 46.430964 
L 116.402632 51.669857 
L 127.849737 57.705299 
L 139.296842 63.709251 
L 150.743947 69.764815 
L 162.191053 76.102407 
L 173.638158 82.918526 
L 185.085263 89.396479 
L 196.532368 95.723257 
L 207.979474 102.887821 
L 219.426579 108.567003 
L 230.873684 115.415345 
L 242.320789 121.065915 
L 253.767895 126.012204 
L 265.215 131.254347 
L 265.215 117.212725 
L 265.215 117.212725 
L 253.767895 112.603911 
L 242.320789 107.451417 
L 230.873684 102.323498 
L 219.426579 96.844308 
L 207.979474 91.479961 
L 196.532368 86.947017 
L 185.085263 81.058025 
L 173.638158 75.691244 
L 162.191053 69.858425 
L 150.743947 63.634332 
L 139.296842 58.14002 
L 127.849737 52.851956 
L 116.402632 47.805838 
L 104.955526 43.700202 
L 93.508421 40.064366 
L 82.061316 37.348445 
L 70.614211 35.439536 
L 59.167105 34.068724 
L 47.72 33.569255 
z
" clip-path="url(#p846094782f)" style="fill: #ff7f0e; fill-opacity: 0.4"/>
   </g>
   <g id="PolyCollection_3">
    <path d="M 47.72 33.5691 
L 47.72 33.569104 
L 59.167105 34.388361 
L 70.614211 36.017196 
L 82.061316 38.183275 
L 93.508421 41.042707 
L 104.955526 44.277765 
L 116.402632 48.01019 
L 127.849737 51.667133 
L 139.296842 55.195863 
L 150.743947 58.87689 
L 162.191053 62.428749 
L 173.638158 66.261484 
L 185.085263 70.048399 
L 196.532368 73.803467 
L 207.979474 77.147677 
L 219.426579 80.921575 
L 230.873684 84.31074 
L 242.320789 87.919348 
L 253.767895 91.402452 
L 265.215 95.102154 
L 265.215 85.680058 
L 265.215 85.680058 
L 253.767895 82.316869 
L 242.320789 79.062493 
L 230.873684 76.03481 
L 219.426579 72.273436 
L 207.979474 69.709809 
L 196.532368 65.981729 
L 185.085263 62.513113 
L 173.638158 59.412572 
L 162.191053 56.091967 
L 150.743947 53.010392 
L 139.296842 50.01955 
L 127.849737 46.60768 
L 116.402632 43.380268 
L 104.955526 41.063665 
L 93.508421 38.673279 
L 82.061316 36.727639 
L 70.614211 35.347421 
L 59.167105 34.147486 
L 47.72 33.5691 
z
" clip-path="url(#p846094782f)" style="fill: #2ca02c; fill-opacity: 0.4"/>
   </g>
   <g id="PolyCollection_4">
    <path d="M 47.72 33.569984 
L 47.72 33.570285 
L 59.167105 34.204714 
L 70.614211 35.42727 
L 82.061316 37.084502 
L 93.508421 39.344845 
L 104.955526 42.059573 
L 116.402632 45.40095 
L 127.849737 48.990926 
L 139.296842 52.534427 
L 150.743947 56.382581 
L 162.191053 60.058587 
L 173.638158 64.098309 
L 185.085263 67.92438 
L 196.532368 71.810395 
L 207.979474 75.200627 
L 219.426579 78.979187 
L 230.873684 82.629371 
L 242.320789 86.238612 
L 253.767895 89.846184 
L 265.215 93.644485 
L 265.215 84.139783 
L 265.215 84.139783 
L 253.767895 80.69543 
L 242.320789 77.444844 
L 230.873684 74.407946 
L 219.426579 70.660413 
L 207.979474 68.029116 
L 196.532368 64.134304 
L 185.085263 60.531263 
L 173.638158 57.369708 
L 162.191053 53.933353 
L 150.743947 50.633599 
L 139.296842 47.684004 
L 127.849737 44.425633 
L 116.402632 41.536698 
L 104.955526 39.461554 
L 93.508421 37.470538 
L 82.061316 35.99971 
L 70.614211 34.936431 
L 59.167105 34.041642 
L 47.72 33.569984 
z
" clip-path="url(#p846094782f)" style="fill: #d62728; fill-opacity: 0.4"/>
   </g>
   <g id="PolyCollection_5">
    <path d="M 47.72 33.5691 
L 47.72 33.569104 
L 59.167105 34.653644 
L 70.614211 37.835467 
L 82.061316 42.46889 
L 93.508421 48.492572 
L 104.955526 55.256501 
L 116.402632 62.574804 
L 127.849737 70.463197 
L 139.296842 78.875706 
L 150.743947 86.119045 
L 162.191053 94.009568 
L 173.638158 101.770069 
L 185.085263 109.77372 
L 196.532368 116.137656 
L 207.979474 123.549287 
L 219.426579 129.48069 
L 230.873684 135.797934 
L 242.320789 142.259333 
L 253.767895 146.52059 
L 265.215 151.186728 
L 265.215 133.062483 
L 265.215 133.062483 
L 253.767895 127.294176 
L 242.320789 122.080774 
L 230.873684 118.080711 
L 219.426579 111.530291 
L 207.979474 106.070848 
L 196.532368 101.49978 
L 185.085263 94.592633 
L 173.638158 89.55494 
L 162.191053 82.491401 
L 150.743947 76.180045 
L 139.296842 69.756927 
L 127.849737 63.62713 
L 116.402632 56.503905 
L 104.955526 50.412134 
L 93.508421 44.846878 
L 82.061316 40.171757 
L 70.614211 36.836912 
L 59.167105 34.304225 
L 47.72 33.5691 
z
" clip-path="url(#p846094782f)" style="fill: #9467bd; fill-opacity: 0.4"/>
   </g>
   <g id="PolyCollection_6">
    <path d="M 47.72 33.569759 
L 47.72 33.569958 
L 59.167105 34.253722 
L 70.614211 36.002936 
L 82.061316 38.607051 
L 93.508421 42.15055 
L 104.955526 46.431966 
L 116.402632 51.679412 
L 127.849737 57.751443 
L 139.296842 63.80266 
L 150.743947 69.759973 
L 162.191053 76.374697 
L 173.638158 83.07614 
L 185.085263 89.664762 
L 196.532368 95.802232 
L 207.979474 102.887324 
L 219.426579 108.562555 
L 230.873684 115.62649 
L 242.320789 121.344434 
L 253.767895 126.52532 
L 265.215 131.321358 
L 265.215 118.012575 
L 265.215 118.012575 
L 253.767895 112.613691 
L 242.320789 107.51172 
L 230.873684 102.687258 
L 219.426579 96.769437 
L 207.979474 91.510104 
L 196.532368 87.144614 
L 185.085263 81.034556 
L 173.638158 75.920006 
L 162.191053 69.812399 
L 150.743947 63.806531 
L 139.296842 58.188398 
L 127.849737 52.930846 
L 116.402632 47.857762 
L 104.955526 43.692262 
L 93.508421 40.094316 
L 82.061316 37.362151 
L 70.614211 35.429447 
L 59.167105 34.072765 
L 47.72 33.569759 
z
" clip-path="url(#p846094782f)" style="fill: #8c564b; fill-opacity: 0.4"/>
   </g>
   <g id="PolyCollection_7">
    <path d="M 47.72 46.518948 
L 47.72 50.831543 
L 59.167105 52.289932 
L 70.614211 56.561034 
L 82.061316 62.697869 
L 93.508421 70.654376 
L 104.955526 79.165069 
L 116.402632 88.061438 
L 127.849737 97.108099 
L 139.296842 104.874026 
L 150.743947 112.246299 
L 162.191053 119.424255 
L 173.638158 126.848391 
L 185.085263 133.527631 
L 196.532368 139.549102 
L 207.979474 145.330516 
L 219.426579 150.684924 
L 230.873684 155.356668 
L 242.320789 160.529981 
L 253.767895 163.608196 
L 265.215 167.350909 
L 265.215 150.71731 
L 265.215 150.71731 
L 253.767895 146.680163 
L 242.320789 142.318747 
L 230.873684 137.883868 
L 219.426579 132.518862 
L 207.979474 127.498235 
L 196.532368 121.809546 
L 185.085263 115.526292 
L 173.638158 109.238939 
L 162.191053 102.182193 
L 150.743947 95.031259 
L 139.296842 87.901824 
L 127.849737 80.261317 
L 116.402632 72.309891 
L 104.955526 65.981492 
L 93.508421 59.524549 
L 82.061316 54.19274 
L 70.614211 50.32061 
L 59.167105 47.431443 
L 47.72 46.518948 
z
" clip-path="url(#p846094782f)" style="fill: #e377c2; fill-opacity: 0.4"/>
   </g>
   <g id="PolyCollection_8">
    <path d="M 47.72 33.569425 
L 47.72 33.569604 
L 59.167105 33.865254 
L 70.614211 34.081489 
L 82.061316 34.728316 
L 93.508421 36.207512 
L 104.955526 38.865045 
L 116.402632 42.797739 
L 127.849737 47.824086 
L 139.296842 53.258415 
L 150.743947 59.479825 
L 162.191053 65.616348 
L 173.638158 71.983544 
L 185.085263 78.078559 
L 196.532368 84.263786 
L 207.979474 89.711835 
L 219.426579 95.79877 
L 230.873684 102.05345 
L 242.320789 107.829705 
L 253.767895 113.13249 
L 265.215 118.5887 
L 265.215 106.058874 
L 265.215 106.058874 
L 253.767895 100.602549 
L 242.320789 94.746301 
L 230.873684 89.264032 
L 219.426579 82.711503 
L 207.979474 77.436602 
L 196.532368 70.999253 
L 185.085263 65.014687 
L 173.638158 59.457779 
L 162.191053 53.813477 
L 150.743947 48.796314 
L 139.296842 44.772056 
L 127.849737 41.031911 
L 116.402632 38.192396 
L 104.955526 36.251783 
L 93.508421 35.002985 
L 82.061316 34.241731 
L 70.614211 33.977582 
L 59.167105 33.808897 
L 47.72 33.569425 
z
" clip-path="url(#p846094782f)" style="fill: #7f7f7f; fill-opacity: 0.4"/>
   </g>
   <g id="matplotlib.axis_1">
    <g id="xtick_1">
     <g id="line2d_1">
      <defs>
       <path id="md21a92c7a9" d="M 0 0 
L 0 3.5 
" style="stroke: #000000; stroke-width: 0.8"/>
      </defs>
      <g>
       <use xlink:href="#md21a92c7a9" x="47.72" y="174.04" style="stroke: #000000; stroke-width: 0.8"/>
      </g>
     </g>
     <g id="text_1">
      <!-- 0.0 -->
      <g transform="translate(39.768438 188.638438)scale(0.1 -0.1)">
       <defs>
        <path id="DejaVuSans-30" d="M 2034 4250 
Q 1547 4250 1301 3770 
Q 1056 3291 1056 2328 
Q 1056 1369 1301 889 
Q 1547 409 2034 409 
Q 2525 409 2770 889 
Q 3016 1369 3016 2328 
Q 3016 3291 2770 3770 
Q 2525 4250 2034 4250 
z
M 2034 4750 
Q 2819 4750 3233 4129 
Q 3647 3509 3647 2328 
Q 3647 1150 3233 529 
Q 2819 -91 2034 -91 
Q 1250 -91 836 529 
Q 422 1150 422 2328 
Q 422 3509 836 4129 
Q 1250 4750 2034 4750 
z
" transform="scale(0.015625)"/>
        <path id="DejaVuSans-2e" d="M 684 794 
L 1344 794 
L 1344 0 
L 684 0 
L 684 794 
z
" transform="scale(0.015625)"/>
       </defs>
       <use xlink:href="#DejaVuSans-30"/>
       <use xlink:href="#DejaVuSans-2e" x="63.623047"/>
       <use xlink:href="#DejaVuSans-30" x="95.410156"/>
      </g>
     </g>
    </g>
    <g id="xtick_2">
     <g id="line2d_2">
      <g>
       <use xlink:href="#md21a92c7a9" x="102.09375" y="174.04" style="stroke: #000000; stroke-width: 0.8"/>
      </g>
     </g>
     <g id="text_2">
      <!-- 0.5 -->
      <g transform="translate(94.142188 188.638438)scale(0.1 -0.1)">
       <defs>
        <path id="DejaVuSans-35" d="M 691 4666 
L 3169 4666 
L 3169 4134 
L 1269 4134 
L 1269 2991 
Q 1406 3038 1543 3061 
Q 1681 3084 1819 3084 
Q 2600 3084 3056 2656 
Q 3513 2228 3513 1497 
Q 3513 744 3044 326 
Q 2575 -91 1722 -91 
Q 1428 -91 1123 -41 
Q 819 9 494 109 
L 494 744 
Q 775 591 1075 516 
Q 1375 441 1709 441 
Q 2250 441 2565 725 
Q 2881 1009 2881 1497 
Q 2881 1984 2565 2268 
Q 2250 2553 1709 2553 
Q 1456 2553 1204 2497 
Q 953 2441 691 2322 
L 691 4666 
z
" transform="scale(0.015625)"/>
       </defs>
       <use xlink:href="#DejaVuSans-30"/>
       <use xlink:href="#DejaVuSans-2e" x="63.623047"/>
       <use xlink:href="#DejaVuSans-35" x="95.410156"/>
      </g>
     </g>
    </g>
    <g id="xtick_3">
     <g id="line2d_3">
      <g>
       <use xlink:href="#md21a92c7a9" x="156.4675" y="174.04" style="stroke: #000000; stroke-width: 0.8"/>
      </g>
     </g>
     <g id="text_3">
      <!-- 1.0 -->
      <g transform="translate(148.515938 188.638438)scale(0.1 -0.1)">
       <defs>
        <path id="DejaVuSans-31" d="M 794 531 
L 1825 531 
L 1825 4091 
L 703 3866 
L 703 4441 
L 1819 4666 
L 2450 4666 
L 2450 531 
L 3481 531 
L 3481 0 
L 794 0 
L 794 531 
z
" transform="scale(0.015625)"/>
       </defs>
       <use xlink:href="#DejaVuSans-31"/>
       <use xlink:href="#DejaVuSans-2e" x="63.623047"/>
       <use xlink:href="#DejaVuSans-30" x="95.410156"/>
      </g>
     </g>
    </g>
    <g id="xtick_4">
     <g id="line2d_4">
      <g>
       <use xlink:href="#md21a92c7a9" x="210.84125" y="174.04" style="stroke: #000000; stroke-width: 0.8"/>
      </g>
     </g>
     <g id="text_4">
      <!-- 1.5 -->
      <g transform="translate(202.889687 188.638438)scale(0.1 -0.1)">
       <use xlink:href="#DejaVuSans-31"/>
       <use xlink:href="#DejaVuSans-2e" x="63.623047"/>
       <use xlink:href="#DejaVuSans-35" x="95.410156"/>
      </g>
     </g>
    </g>
    <g id="xtick_5">
     <g id="line2d_5">
      <g>
       <use xlink:href="#md21a92c7a9" x="265.215" y="174.04" style="stroke: #000000; stroke-width: 0.8"/>
      </g>
     </g>
     <g id="text_5">
      <!-- 2.0 -->
      <g transform="translate(257.263437 188.638438)scale(0.1 -0.1)">
       <defs>
        <path id="DejaVuSans-32" d="M 1228 531 
L 3431 531 
L 3431 0 
L 469 0 
L 469 531 
Q 828 903 1448 1529 
Q 2069 2156 2228 2338 
Q 2531 2678 2651 2914 
Q 2772 3150 2772 3378 
Q 2772 3750 2511 3984 
Q 2250 4219 1831 4219 
Q 1534 4219 1204 4116 
Q 875 4013 500 3803 
L 500 4441 
Q 881 4594 1212 4672 
Q 1544 4750 1819 4750 
Q 2544 4750 2975 4387 
Q 3406 4025 3406 3419 
Q 3406 3131 3298 2873 
Q 3191 2616 2906 2266 
Q 2828 2175 2409 1742 
Q 1991 1309 1228 531 
z
" transform="scale(0.015625)"/>
       </defs>
       <use xlink:href="#DejaVuSans-32"/>
       <use xlink:href="#DejaVuSans-2e" x="63.623047"/>
       <use xlink:href="#DejaVuSans-30" x="95.410156"/>
      </g>
     </g>
    </g>
    <g id="text_6">
     <!-- Influence of surprisal (multiplication) -->
     <g transform="translate(64.320625 202.316563)scale(0.1 -0.1)">
      <defs>
       <path id="DejaVuSans-49" d="M 628 4666 
L 1259 4666 
L 1259 0 
L 628 0 
L 628 4666 
z
" transform="scale(0.015625)"/>
       <path id="DejaVuSans-6e" d="M 3513 2113 
L 3513 0 
L 2938 0 
L 2938 2094 
Q 2938 2591 2744 2837 
Q 2550 3084 2163 3084 
Q 1697 3084 1428 2787 
Q 1159 2491 1159 1978 
L 1159 0 
L 581 0 
L 581 3500 
L 1159 3500 
L 1159 2956 
Q 1366 3272 1645 3428 
Q 1925 3584 2291 3584 
Q 2894 3584 3203 3211 
Q 3513 2838 3513 2113 
z
" transform="scale(0.015625)"/>
       <path id="DejaVuSans-66" d="M 2375 4863 
L 2375 4384 
L 1825 4384 
Q 1516 4384 1395 4259 
Q 1275 4134 1275 3809 
L 1275 3500 
L 2222 3500 
L 2222 3053 
L 1275 3053 
L 1275 0 
L 697 0 
L 697 3053 
L 147 3053 
L 147 3500 
L 697 3500 
L 697 3744 
Q 697 4328 969 4595 
Q 1241 4863 1831 4863 
L 2375 4863 
z
" transform="scale(0.015625)"/>
       <path id="DejaVuSans-6c" d="M 603 4863 
L 1178 4863 
L 1178 0 
L 603 0 
L 603 4863 
z
" transform="scale(0.015625)"/>
       <path id="DejaVuSans-75" d="M 544 1381 
L 544 3500 
L 1119 3500 
L 1119 1403 
Q 1119 906 1312 657 
Q 1506 409 1894 409 
Q 2359 409 2629 706 
Q 2900 1003 2900 1516 
L 2900 3500 
L 3475 3500 
L 3475 0 
L 2900 0 
L 2900 538 
Q 2691 219 2414 64 
Q 2138 -91 1772 -91 
Q 1169 -91 856 284 
Q 544 659 544 1381 
z
M 1991 3584 
L 1991 3584 
z
" transform="scale(0.015625)"/>
       <path id="DejaVuSans-65" d="M 3597 1894 
L 3597 1613 
L 953 1613 
Q 991 1019 1311 708 
Q 1631 397 2203 397 
Q 2534 397 2845 478 
Q 3156 559 3463 722 
L 3463 178 
Q 3153 47 2828 -22 
Q 2503 -91 2169 -91 
Q 1331 -91 842 396 
Q 353 884 353 1716 
Q 353 2575 817 3079 
Q 1281 3584 2069 3584 
Q 2775 3584 3186 3129 
Q 3597 2675 3597 1894 
z
M 3022 2063 
Q 3016 2534 2758 2815 
Q 2500 3097 2075 3097 
Q 1594 3097 1305 2825 
Q 1016 2553 972 2059 
L 3022 2063 
z
" transform="scale(0.015625)"/>
       <path id="DejaVuSans-63" d="M 3122 3366 
L 3122 2828 
Q 2878 2963 2633 3030 
Q 2388 3097 2138 3097 
Q 1578 3097 1268 2742 
Q 959 2388 959 1747 
Q 959 1106 1268 751 
Q 1578 397 2138 397 
Q 2388 397 2633 464 
Q 2878 531 3122 666 
L 3122 134 
Q 2881 22 2623 -34 
Q 2366 -91 2075 -91 
Q 1284 -91 818 406 
Q 353 903 353 1747 
Q 353 2603 823 3093 
Q 1294 3584 2113 3584 
Q 2378 3584 2631 3529 
Q 2884 3475 3122 3366 
z
" transform="scale(0.015625)"/>
       <path id="DejaVuSans-20" transform="scale(0.015625)"/>
       <path id="DejaVuSans-6f" d="M 1959 3097 
Q 1497 3097 1228 2736 
Q 959 2375 959 1747 
Q 959 1119 1226 758 
Q 1494 397 1959 397 
Q 2419 397 2687 759 
Q 2956 1122 2956 1747 
Q 2956 2369 2687 2733 
Q 2419 3097 1959 3097 
z
M 1959 3584 
Q 2709 3584 3137 3096 
Q 3566 2609 3566 1747 
Q 3566 888 3137 398 
Q 2709 -91 1959 -91 
Q 1206 -91 779 398 
Q 353 888 353 1747 
Q 353 2609 779 3096 
Q 1206 3584 1959 3584 
z
" transform="scale(0.015625)"/>
       <path id="DejaVuSans-73" d="M 2834 3397 
L 2834 2853 
Q 2591 2978 2328 3040 
Q 2066 3103 1784 3103 
Q 1356 3103 1142 2972 
Q 928 2841 928 2578 
Q 928 2378 1081 2264 
Q 1234 2150 1697 2047 
L 1894 2003 
Q 2506 1872 2764 1633 
Q 3022 1394 3022 966 
Q 3022 478 2636 193 
Q 2250 -91 1575 -91 
Q 1294 -91 989 -36 
Q 684 19 347 128 
L 347 722 
Q 666 556 975 473 
Q 1284 391 1588 391 
Q 1994 391 2212 530 
Q 2431 669 2431 922 
Q 2431 1156 2273 1281 
Q 2116 1406 1581 1522 
L 1381 1569 
Q 847 1681 609 1914 
Q 372 2147 372 2553 
Q 372 3047 722 3315 
Q 1072 3584 1716 3584 
Q 2034 3584 2315 3537 
Q 2597 3491 2834 3397 
z
" transform="scale(0.015625)"/>
       <path id="DejaVuSans-72" d="M 2631 2963 
Q 2534 3019 2420 3045 
Q 2306 3072 2169 3072 
Q 1681 3072 1420 2755 
Q 1159 2438 1159 1844 
L 1159 0 
L 581 0 
L 581 3500 
L 1159 3500 
L 1159 2956 
Q 1341 3275 1631 3429 
Q 1922 3584 2338 3584 
Q 2397 3584 2469 3576 
Q 2541 3569 2628 3553 
L 2631 2963 
z
" transform="scale(0.015625)"/>
       <path id="DejaVuSans-70" d="M 1159 525 
L 1159 -1331 
L 581 -1331 
L 581 3500 
L 1159 3500 
L 1159 2969 
Q 1341 3281 1617 3432 
Q 1894 3584 2278 3584 
Q 2916 3584 3314 3078 
Q 3713 2572 3713 1747 
Q 3713 922 3314 415 
Q 2916 -91 2278 -91 
Q 1894 -91 1617 61 
Q 1341 213 1159 525 
z
M 3116 1747 
Q 3116 2381 2855 2742 
Q 2594 3103 2138 3103 
Q 1681 3103 1420 2742 
Q 1159 2381 1159 1747 
Q 1159 1113 1420 752 
Q 1681 391 2138 391 
Q 2594 391 2855 752 
Q 3116 1113 3116 1747 
z
" transform="scale(0.015625)"/>
       <path id="DejaVuSans-69" d="M 603 3500 
L 1178 3500 
L 1178 0 
L 603 0 
L 603 3500 
z
M 603 4863 
L 1178 4863 
L 1178 4134 
L 603 4134 
L 603 4863 
z
" transform="scale(0.015625)"/>
       <path id="DejaVuSans-61" d="M 2194 1759 
Q 1497 1759 1228 1600 
Q 959 1441 959 1056 
Q 959 750 1161 570 
Q 1363 391 1709 391 
Q 2188 391 2477 730 
Q 2766 1069 2766 1631 
L 2766 1759 
L 2194 1759 
z
M 3341 1997 
L 3341 0 
L 2766 0 
L 2766 531 
Q 2569 213 2275 61 
Q 1981 -91 1556 -91 
Q 1019 -91 701 211 
Q 384 513 384 1019 
Q 384 1609 779 1909 
Q 1175 2209 1959 2209 
L 2766 2209 
L 2766 2266 
Q 2766 2663 2505 2880 
Q 2244 3097 1772 3097 
Q 1472 3097 1187 3025 
Q 903 2953 641 2809 
L 641 3341 
Q 956 3463 1253 3523 
Q 1550 3584 1831 3584 
Q 2591 3584 2966 3190 
Q 3341 2797 3341 1997 
z
" transform="scale(0.015625)"/>
       <path id="DejaVuSans-28" d="M 1984 4856 
Q 1566 4138 1362 3434 
Q 1159 2731 1159 2009 
Q 1159 1288 1364 580 
Q 1569 -128 1984 -844 
L 1484 -844 
Q 1016 -109 783 600 
Q 550 1309 550 2009 
Q 550 2706 781 3412 
Q 1013 4119 1484 4856 
L 1984 4856 
z
" transform="scale(0.015625)"/>
       <path id="DejaVuSans-6d" d="M 3328 2828 
Q 3544 3216 3844 3400 
Q 4144 3584 4550 3584 
Q 5097 3584 5394 3201 
Q 5691 2819 5691 2113 
L 5691 0 
L 5113 0 
L 5113 2094 
Q 5113 2597 4934 2840 
Q 4756 3084 4391 3084 
Q 3944 3084 3684 2787 
Q 3425 2491 3425 1978 
L 3425 0 
L 2847 0 
L 2847 2094 
Q 2847 2600 2669 2842 
Q 2491 3084 2119 3084 
Q 1678 3084 1418 2786 
Q 1159 2488 1159 1978 
L 1159 0 
L 581 0 
L 581 3500 
L 1159 3500 
L 1159 2956 
Q 1356 3278 1631 3431 
Q 1906 3584 2284 3584 
Q 2666 3584 2933 3390 
Q 3200 3197 3328 2828 
z
" transform="scale(0.015625)"/>
       <path id="DejaVuSans-74" d="M 1172 4494 
L 1172 3500 
L 2356 3500 
L 2356 3053 
L 1172 3053 
L 1172 1153 
Q 1172 725 1289 603 
Q 1406 481 1766 481 
L 2356 481 
L 2356 0 
L 1766 0 
Q 1100 0 847 248 
Q 594 497 594 1153 
L 594 3053 
L 172 3053 
L 172 3500 
L 594 3500 
L 594 4494 
L 1172 4494 
z
" transform="scale(0.015625)"/>
       <path id="DejaVuSans-29" d="M 513 4856 
L 1013 4856 
Q 1481 4119 1714 3412 
Q 1947 2706 1947 2009 
Q 1947 1309 1714 600 
Q 1481 -109 1013 -844 
L 513 -844 
Q 928 -128 1133 580 
Q 1338 1288 1338 2009 
Q 1338 2731 1133 3434 
Q 928 4138 513 4856 
z
" transform="scale(0.015625)"/>
      </defs>
      <use xlink:href="#DejaVuSans-49"/>
      <use xlink:href="#DejaVuSans-6e" x="29.492188"/>
      <use xlink:href="#DejaVuSans-66" x="92.871094"/>
      <use xlink:href="#DejaVuSans-6c" x="128.076172"/>
      <use xlink:href="#DejaVuSans-75" x="155.859375"/>
      <use xlink:href="#DejaVuSans-65" x="219.238281"/>
      <use xlink:href="#DejaVuSans-6e" x="280.761719"/>
      <use xlink:href="#DejaVuSans-63" x="344.140625"/>
      <use xlink:href="#DejaVuSans-65" x="399.121094"/>
      <use xlink:href="#DejaVuSans-20" x="460.644531"/>
      <use xlink:href="#DejaVuSans-6f" x="492.431641"/>
      <use xlink:href="#DejaVuSans-66" x="553.613281"/>
      <use xlink:href="#DejaVuSans-20" x="588.818359"/>
      <use xlink:href="#DejaVuSans-73" x="620.605469"/>
      <use xlink:href="#DejaVuSans-75" x="672.705078"/>
      <use xlink:href="#DejaVuSans-72" x="736.083984"/>
      <use xlink:href="#DejaVuSans-70" x="777.197266"/>
      <use xlink:href="#DejaVuSans-72" x="840.673828"/>
      <use xlink:href="#DejaVuSans-69" x="881.787109"/>
      <use xlink:href="#DejaVuSans-73" x="909.570312"/>
      <use xlink:href="#DejaVuSans-61" x="961.669922"/>
      <use xlink:href="#DejaVuSans-6c" x="1022.949219"/>
      <use xlink:href="#DejaVuSans-20" x="1050.732422"/>
      <use xlink:href="#DejaVuSans-28" x="1082.519531"/>
      <use xlink:href="#DejaVuSans-6d" x="1121.533203"/>
      <use xlink:href="#DejaVuSans-75" x="1218.945312"/>
      <use xlink:href="#DejaVuSans-6c" x="1282.324219"/>
      <use xlink:href="#DejaVuSans-74" x="1310.107422"/>
      <use xlink:href="#DejaVuSans-69" x="1349.316406"/>
      <use xlink:href="#DejaVuSans-70" x="1377.099609"/>
      <use xlink:href="#DejaVuSans-6c" x="1440.576172"/>
      <use xlink:href="#DejaVuSans-69" x="1468.359375"/>
      <use xlink:href="#DejaVuSans-63" x="1496.142578"/>
      <use xlink:href="#DejaVuSans-61" x="1551.123047"/>
      <use xlink:href="#DejaVuSans-74" x="1612.402344"/>
      <use xlink:href="#DejaVuSans-69" x="1651.611328"/>
      <use xlink:href="#DejaVuSans-6f" x="1679.394531"/>
      <use xlink:href="#DejaVuSans-6e" x="1740.576172"/>
      <use xlink:href="#DejaVuSans-29" x="1803.955078"/>
     </g>
    </g>
   </g>
   <g id="matplotlib.axis_2">
    <g id="ytick_1">
     <g id="line2d_6">
      <defs>
       <path id="m6e9d4635fd" d="M 0 0 
L -3.5 0 
" style="stroke: #000000; stroke-width: 0.8"/>
      </defs>
      <g>
       <use xlink:href="#m6e9d4635fd" x="47.72" y="143.424801" style="stroke: #000000; stroke-width: 0.8"/>
      </g>
     </g>
     <g id="text_7">
      <!-- 0.4 -->
      <g transform="translate(24.816875 147.22402)scale(0.1 -0.1)">
       <defs>
        <path id="DejaVuSans-34" d="M 2419 4116 
L 825 1625 
L 2419 1625 
L 2419 4116 
z
M 2253 4666 
L 3047 4666 
L 3047 1625 
L 3713 1625 
L 3713 1100 
L 3047 1100 
L 3047 0 
L 2419 0 
L 2419 1100 
L 313 1100 
L 313 1709 
L 2253 4666 
z
" transform="scale(0.015625)"/>
       </defs>
       <use xlink:href="#DejaVuSans-30"/>
       <use xlink:href="#DejaVuSans-2e" x="63.623047"/>
       <use xlink:href="#DejaVuSans-34" x="95.410156"/>
      </g>
     </g>
    </g>
    <g id="ytick_2">
     <g id="line2d_7">
      <g>
       <use xlink:href="#m6e9d4635fd" x="47.72" y="106.80623" style="stroke: #000000; stroke-width: 0.8"/>
      </g>
     </g>
     <g id="text_8">
      <!-- 0.6 -->
      <g transform="translate(24.816875 110.605449)scale(0.1 -0.1)">
       <defs>
        <path id="DejaVuSans-36" d="M 2113 2584 
Q 1688 2584 1439 2293 
Q 1191 2003 1191 1497 
Q 1191 994 1439 701 
Q 1688 409 2113 409 
Q 2538 409 2786 701 
Q 3034 994 3034 1497 
Q 3034 2003 2786 2293 
Q 2538 2584 2113 2584 
z
M 3366 4563 
L 3366 3988 
Q 3128 4100 2886 4159 
Q 2644 4219 2406 4219 
Q 1781 4219 1451 3797 
Q 1122 3375 1075 2522 
Q 1259 2794 1537 2939 
Q 1816 3084 2150 3084 
Q 2853 3084 3261 2657 
Q 3669 2231 3669 1497 
Q 3669 778 3244 343 
Q 2819 -91 2113 -91 
Q 1303 -91 875 529 
Q 447 1150 447 2328 
Q 447 3434 972 4092 
Q 1497 4750 2381 4750 
Q 2619 4750 2861 4703 
Q 3103 4656 3366 4563 
z
" transform="scale(0.015625)"/>
       </defs>
       <use xlink:href="#DejaVuSans-30"/>
       <use xlink:href="#DejaVuSans-2e" x="63.623047"/>
       <use xlink:href="#DejaVuSans-36" x="95.410156"/>
      </g>
     </g>
    </g>
    <g id="ytick_3">
     <g id="line2d_8">
      <g>
       <use xlink:href="#m6e9d4635fd" x="47.72" y="70.187659" style="stroke: #000000; stroke-width: 0.8"/>
      </g>
     </g>
     <g id="text_9">
      <!-- 0.8 -->
      <g transform="translate(24.816875 73.986878)scale(0.1 -0.1)">
       <defs>
        <path id="DejaVuSans-38" d="M 2034 2216 
Q 1584 2216 1326 1975 
Q 1069 1734 1069 1313 
Q 1069 891 1326 650 
Q 1584 409 2034 409 
Q 2484 409 2743 651 
Q 3003 894 3003 1313 
Q 3003 1734 2745 1975 
Q 2488 2216 2034 2216 
z
M 1403 2484 
Q 997 2584 770 2862 
Q 544 3141 544 3541 
Q 544 4100 942 4425 
Q 1341 4750 2034 4750 
Q 2731 4750 3128 4425 
Q 3525 4100 3525 3541 
Q 3525 3141 3298 2862 
Q 3072 2584 2669 2484 
Q 3125 2378 3379 2068 
Q 3634 1759 3634 1313 
Q 3634 634 3220 271 
Q 2806 -91 2034 -91 
Q 1263 -91 848 271 
Q 434 634 434 1313 
Q 434 1759 690 2068 
Q 947 2378 1403 2484 
z
M 1172 3481 
Q 1172 3119 1398 2916 
Q 1625 2713 2034 2713 
Q 2441 2713 2670 2916 
Q 2900 3119 2900 3481 
Q 2900 3844 2670 4047 
Q 2441 4250 2034 4250 
Q 1625 4250 1398 4047 
Q 1172 3844 1172 3481 
z
" transform="scale(0.015625)"/>
       </defs>
       <use xlink:href="#DejaVuSans-30"/>
       <use xlink:href="#DejaVuSans-2e" x="63.623047"/>
       <use xlink:href="#DejaVuSans-38" x="95.410156"/>
      </g>
     </g>
    </g>
    <g id="ytick_4">
     <g id="line2d_9">
      <g>
       <use xlink:href="#m6e9d4635fd" x="47.72" y="33.569088" style="stroke: #000000; stroke-width: 0.8"/>
      </g>
     </g>
     <g id="text_10">
      <!-- 1.0 -->
      <g transform="translate(24.816875 37.368307)scale(0.1 -0.1)">
       <use xlink:href="#DejaVuSans-31"/>
       <use xlink:href="#DejaVuSans-2e" x="63.623047"/>
       <use xlink:href="#DejaVuSans-30" x="95.410156"/>
      </g>
     </g>
    </g>
    <g id="text_11">
     <!-- R-value -->
     <g transform="translate(18.737188 119.064687)rotate(-90)scale(0.1 -0.1)">
      <defs>
       <path id="DejaVuSans-52" d="M 2841 2188 
Q 3044 2119 3236 1894 
Q 3428 1669 3622 1275 
L 4263 0 
L 3584 0 
L 2988 1197 
Q 2756 1666 2539 1819 
Q 2322 1972 1947 1972 
L 1259 1972 
L 1259 0 
L 628 0 
L 628 4666 
L 2053 4666 
Q 2853 4666 3247 4331 
Q 3641 3997 3641 3322 
Q 3641 2881 3436 2590 
Q 3231 2300 2841 2188 
z
M 1259 4147 
L 1259 2491 
L 2053 2491 
Q 2509 2491 2742 2702 
Q 2975 2913 2975 3322 
Q 2975 3731 2742 3939 
Q 2509 4147 2053 4147 
L 1259 4147 
z
" transform="scale(0.015625)"/>
       <path id="DejaVuSans-2d" d="M 313 2009 
L 1997 2009 
L 1997 1497 
L 313 1497 
L 313 2009 
z
" transform="scale(0.015625)"/>
       <path id="DejaVuSans-76" d="M 191 3500 
L 800 3500 
L 1894 563 
L 2988 3500 
L 3597 3500 
L 2284 0 
L 1503 0 
L 191 3500 
z
" transform="scale(0.015625)"/>
      </defs>
      <use xlink:href="#DejaVuSans-52"/>
      <use xlink:href="#DejaVuSans-2d" x="65.482422"/>
      <use xlink:href="#DejaVuSans-76" x="98.941406"/>
      <use xlink:href="#DejaVuSans-61" x="158.121094"/>
      <use xlink:href="#DejaVuSans-6c" x="219.400391"/>
      <use xlink:href="#DejaVuSans-75" x="247.183594"/>
      <use xlink:href="#DejaVuSans-65" x="310.5625"/>
     </g>
    </g>
   </g>
   <g id="line2d_10">
    <path d="M 47.72 33.569091 
L 59.167105 34.476684 
L 70.614211 37.355073 
L 82.061316 41.311563 
L 93.508421 46.628239 
L 104.955526 52.794307 
L 116.402632 59.457823 
L 127.849737 66.891364 
L 139.296842 74.067555 
L 150.743947 80.925163 
L 162.191053 88.138206 
L 173.638158 95.360479 
L 185.085263 101.971849 
L 196.532368 108.517564 
L 207.979474 114.756539 
L 219.426579 120.486437 
L 230.873684 126.495185 
L 242.320789 132.01691 
L 253.767895 136.717189 
L 265.215 141.36223 
" clip-path="url(#p846094782f)" style="fill: none; stroke: #1f77b4; stroke-width: 1.5; stroke-linecap: square"/>
   </g>
   <g id="line2d_11">
    <path d="M 47.72 33.56928 
L 59.167105 34.159152 
L 70.614211 35.72405 
L 82.061316 37.969572 
L 93.508421 41.0953 
L 104.955526 45.065583 
L 116.402632 49.737848 
L 127.849737 55.278628 
L 139.296842 60.924635 
L 150.743947 66.699574 
L 162.191053 72.980416 
L 173.638158 79.304885 
L 185.085263 85.227252 
L 196.532368 91.335137 
L 207.979474 97.183891 
L 219.426579 102.705655 
L 230.873684 108.869422 
L 242.320789 114.258666 
L 253.767895 119.308058 
L 265.215 124.233536 
" clip-path="url(#p846094782f)" style="fill: none; stroke: #ff7f0e; stroke-width: 1.5; stroke-linecap: square"/>
   </g>
   <g id="line2d_12">
    <path d="M 47.72 33.569102 
L 59.167105 34.267923 
L 70.614211 35.682308 
L 82.061316 37.455457 
L 93.508421 39.857993 
L 104.955526 42.670715 
L 116.402632 45.695229 
L 127.849737 49.137407 
L 139.296842 52.607706 
L 150.743947 55.943641 
L 162.191053 59.260358 
L 173.638158 62.837028 
L 185.085263 66.280756 
L 196.532368 69.892598 
L 207.979474 73.428743 
L 219.426579 76.597506 
L 230.873684 80.172775 
L 242.320789 83.490921 
L 253.767895 86.85966 
L 265.215 90.391106 
" clip-path="url(#p846094782f)" style="fill: none; stroke: #2ca02c; stroke-width: 1.5; stroke-linecap: square"/>
   </g>
   <g id="line2d_13">
    <path d="M 47.72 33.570135 
L 59.167105 34.123178 
L 70.614211 35.18185 
L 82.061316 36.542106 
L 93.508421 38.407691 
L 104.955526 40.760564 
L 116.402632 43.468824 
L 127.849737 46.708279 
L 139.296842 50.109216 
L 150.743947 53.50809 
L 162.191053 56.99597 
L 173.638158 60.734008 
L 185.085263 64.227822 
L 196.532368 67.972349 
L 207.979474 71.614871 
L 219.426579 74.8198 
L 230.873684 78.518659 
L 242.320789 81.841728 
L 253.767895 85.270807 
L 265.215 88.892134 
" clip-path="url(#p846094782f)" style="fill: none; stroke: #d62728; stroke-width: 1.5; stroke-linecap: square"/>
   </g>
   <g id="line2d_14">
    <path d="M 47.72 33.569102 
L 59.167105 34.478934 
L 70.614211 37.33619 
L 82.061316 41.320324 
L 93.508421 46.669725 
L 104.955526 52.834317 
L 116.402632 59.539355 
L 127.849737 67.045164 
L 139.296842 74.316316 
L 150.743947 81.149545 
L 162.191053 88.250485 
L 173.638158 95.662504 
L 185.085263 102.183177 
L 196.532368 108.818718 
L 207.979474 114.810068 
L 219.426579 120.505491 
L 230.873684 126.939323 
L 242.320789 132.170054 
L 253.767895 136.907383 
L 265.215 142.124606 
" clip-path="url(#p846094782f)" style="fill: none; stroke: #9467bd; stroke-width: 1.5; stroke-linecap: square"/>
   </g>
   <g id="line2d_15">
    <path d="M 47.72 33.569858 
L 59.167105 34.163243 
L 70.614211 35.716192 
L 82.061316 37.984601 
L 93.508421 41.122433 
L 104.955526 45.062114 
L 116.402632 49.768587 
L 127.849737 55.341144 
L 139.296842 60.995529 
L 150.743947 66.783252 
L 162.191053 73.093548 
L 173.638158 79.498073 
L 185.085263 85.349659 
L 196.532368 91.473423 
L 207.979474 97.198714 
L 219.426579 102.665996 
L 230.873684 109.156874 
L 242.320789 114.428077 
L 253.767895 119.569505 
L 265.215 124.666966 
" clip-path="url(#p846094782f)" style="fill: none; stroke: #8c564b; stroke-width: 1.5; stroke-linecap: square"/>
   </g>
   <g id="line2d_16">
    <path d="M 47.72 48.675246 
L 59.167105 49.860688 
L 70.614211 53.440822 
L 82.061316 58.445305 
L 93.508421 65.089462 
L 104.955526 72.57328 
L 116.402632 80.185665 
L 127.849737 88.684708 
L 139.296842 96.387925 
L 150.743947 103.638779 
L 162.191053 110.803224 
L 173.638158 118.043665 
L 185.085263 124.526962 
L 196.532368 130.679324 
L 207.979474 136.414375 
L 219.426579 141.601893 
L 230.873684 146.620268 
L 242.320789 151.424364 
L 253.767895 155.14418 
L 265.215 159.034109 
" clip-path="url(#p846094782f)" style="fill: none; stroke: #e377c2; stroke-width: 1.5; stroke-linecap: square"/>
   </g>
   <g id="line2d_17">
    <path d="M 47.72 33.569514 
L 59.167105 33.837075 
L 70.614211 34.029535 
L 82.061316 34.485024 
L 93.508421 35.605248 
L 104.955526 37.558414 
L 116.402632 40.495067 
L 127.849737 44.427999 
L 139.296842 49.015236 
L 150.743947 54.138069 
L 162.191053 59.714913 
L 173.638158 65.720661 
L 185.085263 71.546623 
L 196.532368 77.63152 
L 207.979474 83.574219 
L 219.426579 89.255137 
L 230.873684 95.658741 
L 242.320789 101.288003 
L 253.767895 106.86752 
L 265.215 112.323787 
" clip-path="url(#p846094782f)" style="fill: none; stroke: #7f7f7f; stroke-width: 1.5; stroke-linecap: square"/>
   </g>
   <g id="patch_3">
    <path d="M 47.72 174.04 
L 47.72 26.88 
" style="fill: none; stroke: #000000; stroke-width: 0.8; stroke-linejoin: miter; stroke-linecap: square"/>
   </g>
   <g id="patch_4">
    <path d="M 47.72 174.04 
L 265.215 174.04 
" style="fill: none; stroke: #000000; stroke-width: 0.8; stroke-linejoin: miter; stroke-linecap: square"/>
   </g>
   <g id="text_12">
    <!-- Node * surprisal -->
    <g transform="translate(108.18625 20.88)scale(0.12 -0.12)">
     <defs>
      <path id="DejaVuSans-4e" d="M 628 4666 
L 1478 4666 
L 3547 763 
L 3547 4666 
L 4159 4666 
L 4159 0 
L 3309 0 
L 1241 3903 
L 1241 0 
L 628 0 
L 628 4666 
z
" transform="scale(0.015625)"/>
      <path id="DejaVuSans-64" d="M 2906 2969 
L 2906 4863 
L 3481 4863 
L 3481 0 
L 2906 0 
L 2906 525 
Q 2725 213 2448 61 
Q 2172 -91 1784 -91 
Q 1150 -91 751 415 
Q 353 922 353 1747 
Q 353 2572 751 3078 
Q 1150 3584 1784 3584 
Q 2172 3584 2448 3432 
Q 2725 3281 2906 2969 
z
M 947 1747 
Q 947 1113 1208 752 
Q 1469 391 1925 391 
Q 2381 391 2643 752 
Q 2906 1113 2906 1747 
Q 2906 2381 2643 2742 
Q 2381 3103 1925 3103 
Q 1469 3103 1208 2742 
Q 947 2381 947 1747 
z
" transform="scale(0.015625)"/>
      <path id="DejaVuSans-2a" d="M 3009 3897 
L 1888 3291 
L 3009 2681 
L 2828 2375 
L 1778 3009 
L 1778 1831 
L 1422 1831 
L 1422 3009 
L 372 2375 
L 191 2681 
L 1313 3291 
L 191 3897 
L 372 4206 
L 1422 3572 
L 1422 4750 
L 1778 4750 
L 1778 3572 
L 2828 4206 
L 3009 3897 
z
" transform="scale(0.015625)"/>
     </defs>
     <use xlink:href="#DejaVuSans-4e"/>
     <use xlink:href="#DejaVuSans-6f" x="74.804688"/>
     <use xlink:href="#DejaVuSans-64" x="135.986328"/>
     <use xlink:href="#DejaVuSans-65" x="199.462891"/>
     <use xlink:href="#DejaVuSans-20" x="260.986328"/>
     <use xlink:href="#DejaVuSans-2a" x="292.773438"/>
     <use xlink:href="#DejaVuSans-20" x="342.773438"/>
     <use xlink:href="#DejaVuSans-73" x="374.560547"/>
     <use xlink:href="#DejaVuSans-75" x="426.660156"/>
     <use xlink:href="#DejaVuSans-72" x="490.039062"/>
     <use xlink:href="#DejaVuSans-70" x="531.152344"/>
     <use xlink:href="#DejaVuSans-72" x="594.628906"/>
     <use xlink:href="#DejaVuSans-69" x="635.742188"/>
     <use xlink:href="#DejaVuSans-73" x="663.525391"/>
     <use xlink:href="#DejaVuSans-61" x="715.625"/>
     <use xlink:href="#DejaVuSans-6c" x="776.904297"/>
    </g>
   </g>
  </g>
  <g id="axes_2">
   <g id="patch_5">
    <path d="M 298.065 174.04 
L 515.56 174.04 
L 515.56 26.88 
L 298.065 26.88 
z
" style="fill: #ffffff"/>
   </g>
   <g id="PolyCollection_9">
    <path d="M 298.065 33.569091 
L 298.065 33.569092 
L 309.512105 34.606602 
L 320.959211 37.353701 
L 332.406316 41.457126 
L 343.853421 46.737611 
L 355.300526 53.722512 
L 366.747632 60.769067 
L 378.194737 68.956344 
L 389.641842 77.04816 
L 401.088947 85.682372 
L 412.536053 93.480681 
L 423.983158 102.006714 
L 435.430263 109.40252 
L 446.877368 116.546797 
L 458.324474 123.479297 
L 469.771579 130.280506 
L 481.218684 136.445023 
L 492.665789 141.822768 
L 504.112895 146.819835 
L 515.56 151.590437 
L 515.56 136.669202 
L 515.56 136.669202 
L 504.112895 131.834674 
L 492.665789 126.304692 
L 481.218684 120.724908 
L 469.771579 115.122127 
L 458.324474 108.004611 
L 446.877368 101.700528 
L 435.430263 94.926243 
L 423.983158 88.041554 
L 412.536053 81.213334 
L 401.088947 74.380984 
L 389.641842 67.126939 
L 378.194737 61.092417 
L 366.747632 54.851718 
L 355.300526 49.048368 
L 343.853421 43.860944 
L 332.406316 39.637655 
L 320.959211 36.698864 
L 309.512105 34.286902 
L 298.065 33.569091 
z
" clip-path="url(#pc20c6cd61c)" style="fill: #1f77b4; fill-opacity: 0.4"/>
   </g>
   <g id="PolyCollection_10">
    <path d="M 298.065 33.569255 
L 298.065 33.569306 
L 309.512105 34.609263 
L 320.959211 37.356384 
L 332.406316 41.48042 
L 343.853421 46.778105 
L 355.300526 53.768836 
L 366.747632 60.809322 
L 378.194737 69.016098 
L 389.641842 77.113107 
L 401.088947 85.781189 
L 412.536053 93.587744 
L 423.983158 102.135964 
L 435.430263 109.569547 
L 446.877368 116.777166 
L 458.324474 123.76805 
L 469.771579 130.610814 
L 481.218684 136.83245 
L 492.665789 142.184315 
L 504.112895 147.193359 
L 515.56 152.005457 
L 515.56 137.592614 
L 515.56 137.592614 
L 504.112895 132.694404 
L 492.665789 127.16308 
L 481.218684 121.498347 
L 469.771579 115.821129 
L 458.324474 108.66459 
L 446.877368 102.348179 
L 435.430263 95.540357 
L 423.983158 88.602863 
L 412.536053 81.750015 
L 401.088947 74.830303 
L 389.641842 67.505467 
L 378.194737 61.422373 
L 366.747632 55.087546 
L 355.300526 49.23211 
L 343.853421 43.984028 
L 332.406316 39.701174 
L 320.959211 36.732104 
L 309.512105 34.293568 
L 298.065 33.569255 
z
" clip-path="url(#pc20c6cd61c)" style="fill: #ff7f0e; fill-opacity: 0.4"/>
   </g>
   <g id="PolyCollection_11">
    <path d="M 298.065 33.5691 
L 298.065 33.569104 
L 309.512105 34.609118 
L 320.959211 37.364425 
L 332.406316 41.477882 
L 343.853421 46.762013 
L 355.300526 53.756572 
L 366.747632 60.804092 
L 378.194737 68.997053 
L 389.641842 77.094713 
L 401.088947 85.705269 
L 412.536053 93.508422 
L 423.983158 102.088891 
L 435.430263 109.508038 
L 446.877368 116.786134 
L 458.324474 123.755828 
L 469.771579 130.636543 
L 481.218684 136.92581 
L 492.665789 142.255877 
L 504.112895 147.329249 
L 515.56 152.194273 
L 515.56 137.3021 
L 515.56 137.3021 
L 504.112895 132.423938 
L 492.665789 126.838194 
L 481.218684 121.156771 
L 469.771579 115.457964 
L 458.324474 108.303678 
L 446.877368 101.974766 
L 435.430263 95.173084 
L 423.983158 88.267008 
L 412.536053 81.400348 
L 401.088947 74.527811 
L 389.641842 67.270123 
L 378.194737 61.215489 
L 366.747632 54.941841 
L 355.300526 49.112197 
L 343.853421 43.914404 
L 332.406316 39.661975 
L 320.959211 36.715893 
L 309.512105 34.288774 
L 298.065 33.5691 
z
" clip-path="url(#pc20c6cd61c)" style="fill: #2ca02c; fill-opacity: 0.4"/>
   </g>
   <g id="PolyCollection_12">
    <path d="M 298.065 33.569984 
L 298.065 33.570285 
L 309.512105 34.61304 
L 320.959211 37.370265 
L 332.406316 41.500944 
L 343.853421 46.796047 
L 355.300526 53.799972 
L 366.747632 60.842948 
L 378.194737 69.054699 
L 389.641842 77.150077 
L 401.088947 85.794113 
L 412.536053 93.598323 
L 423.983158 102.18449 
L 435.430263 109.61592 
L 446.877368 116.943518 
L 458.324474 123.977294 
L 469.771579 130.898288 
L 481.218684 137.202405 
L 492.665789 142.526805 
L 504.112895 147.623139 
L 515.56 152.468025 
L 515.56 138.123731 
L 515.56 138.123731 
L 504.112895 133.19363 
L 492.665789 127.576537 
L 481.218684 121.868552 
L 469.771579 116.144623 
L 458.324474 108.922798 
L 446.877368 102.550583 
L 435.430263 95.708154 
L 423.983158 88.76596 
L 412.536053 81.861578 
L 401.088947 74.943926 
L 389.641842 67.591536 
L 378.194737 61.492768 
L 366.747632 55.143555 
L 355.300526 49.280741 
L 343.853421 44.014878 
L 332.406316 39.728195 
L 320.959211 36.740912 
L 309.512105 34.296761 
L 298.065 33.569984 
z
" clip-path="url(#pc20c6cd61c)" style="fill: #d62728; fill-opacity: 0.4"/>
   </g>
   <g id="PolyCollection_13">
    <path d="M 298.065 33.5691 
L 298.065 33.569104 
L 309.512105 34.607377 
L 320.959211 37.356754 
L 332.406316 41.480789 
L 343.853421 46.726795 
L 355.300526 53.828118 
L 366.747632 60.873743 
L 378.194737 68.970732 
L 389.641842 77.2958 
L 401.088947 85.978278 
L 412.536053 93.810732 
L 423.983158 102.175361 
L 435.430263 109.819391 
L 446.877368 116.524563 
L 458.324474 123.707141 
L 469.771579 130.514572 
L 481.218684 136.018941 
L 492.665789 142.34491 
L 504.112895 147.182561 
L 515.56 152.206878 
L 515.56 137.762675 
L 515.56 137.762675 
L 504.112895 132.197684 
L 492.665789 126.394144 
L 481.218684 122.534356 
L 469.771579 115.735455 
L 458.324474 108.696323 
L 446.877368 101.800587 
L 435.430263 95.404108 
L 423.983158 88.088899 
L 412.536053 81.520615 
L 401.088947 74.527458 
L 389.641842 67.189657 
L 378.194737 60.997819 
L 366.747632 54.914236 
L 355.300526 48.994995 
L 343.853421 43.885072 
L 332.406316 39.669252 
L 320.959211 36.69519 
L 309.512105 34.287491 
L 298.065 33.5691 
z
" clip-path="url(#pc20c6cd61c)" style="fill: #9467bd; fill-opacity: 0.4"/>
   </g>
   <g id="PolyCollection_14">
    <path d="M 298.065 33.569757 
L 298.065 33.569957 
L 309.512105 34.610712 
L 320.959211 37.359843 
L 332.406316 41.505154 
L 343.853421 46.766963 
L 355.300526 53.875087 
L 366.747632 60.915495 
L 378.194737 69.033494 
L 389.641842 77.374433 
L 401.088947 86.074273 
L 412.536053 93.927366 
L 423.983158 102.33706 
L 435.430263 110.000052 
L 446.877368 116.788924 
L 458.324474 123.998682 
L 469.771579 130.865451 
L 481.218684 136.402592 
L 492.665789 142.698754 
L 504.112895 147.548713 
L 515.56 152.572364 
L 515.56 138.750699 
L 515.56 138.750699 
L 504.112895 133.03962 
L 492.665789 127.253379 
L 481.218684 123.270642 
L 469.771579 116.392913 
L 458.324474 109.393965 
L 446.877368 102.421663 
L 435.430263 96.010323 
L 423.983158 88.642296 
L 412.536053 82.053727 
L 401.088947 74.985311 
L 389.641842 67.560013 
L 378.194737 61.320621 
L 366.747632 55.161265 
L 355.300526 49.185086 
L 343.853421 44.013327 
L 332.406316 39.736978 
L 320.959211 36.729498 
L 309.512105 34.294369 
L 298.065 33.569757 
z
" clip-path="url(#pc20c6cd61c)" style="fill: #8c564b; fill-opacity: 0.4"/>
   </g>
   <g id="PolyCollection_15">
    <path d="M 298.065 46.518948 
L 298.065 50.831543 
L 309.512105 51.549659 
L 320.959211 53.83926 
L 332.406316 57.206966 
L 343.853421 61.511971 
L 355.300526 67.533742 
L 366.747632 73.674036 
L 378.194737 81.342253 
L 389.641842 88.979057 
L 401.088947 96.910981 
L 412.536053 104.280835 
L 423.983158 112.276586 
L 435.430263 119.306777 
L 446.877368 126.008953 
L 458.324474 132.316483 
L 469.771579 138.678589 
L 481.218684 144.437039 
L 492.665789 149.495328 
L 504.112895 153.849401 
L 515.56 158.566095 
L 515.56 141.889611 
L 515.56 141.889611 
L 504.112895 137.36808 
L 492.665789 132.223756 
L 481.218684 127.308615 
L 469.771579 122.315821 
L 458.324474 115.520723 
L 446.877368 110.045188 
L 435.430263 103.999585 
L 423.983158 97.83804 
L 412.536053 91.473288 
L 401.088947 85.64464 
L 389.641842 78.717607 
L 378.194737 73.355118 
L 366.747632 67.659849 
L 355.300526 62.189665 
L 343.853421 57.118437 
L 332.406316 52.82234 
L 320.959211 49.724954 
L 309.512105 47.342835 
L 298.065 46.518948 
z
" clip-path="url(#pc20c6cd61c)" style="fill: #e377c2; fill-opacity: 0.4"/>
   </g>
   <g id="PolyCollection_16">
    <path d="M 298.065 33.569425 
L 298.065 33.569604 
L 309.512105 34.611535 
L 320.959211 37.368145 
L 332.406316 41.521706 
L 343.853421 46.838404 
L 355.300526 53.832818 
L 366.747632 60.88682 
L 378.194737 69.102361 
L 389.641842 77.190656 
L 401.088947 85.882358 
L 412.536053 93.692303 
L 423.983158 102.251203 
L 435.430263 109.684363 
L 446.877368 116.905232 
L 458.324474 123.918731 
L 469.771579 130.776121 
L 481.218684 137.037653 
L 492.665789 142.405252 
L 504.112895 147.513492 
L 515.56 152.476243 
L 515.56 138.55488 
L 515.56 138.55488 
L 504.112895 133.628309 
L 492.665789 128.113356 
L 481.218684 122.308068 
L 469.771579 116.564749 
L 458.324474 109.318524 
L 446.877368 102.994233 
L 435.430263 96.087145 
L 423.983158 89.085668 
L 412.536053 82.181487 
L 401.088947 75.180686 
L 389.641842 67.815806 
L 378.194737 61.654789 
L 366.747632 55.284128 
L 355.300526 49.362769 
L 343.853421 44.090858 
L 332.406316 39.74107 
L 320.959211 36.758698 
L 309.512105 34.297261 
L 298.065 33.569425 
z
" clip-path="url(#pc20c6cd61c)" style="fill: #7f7f7f; fill-opacity: 0.4"/>
   </g>
   <g id="matplotlib.axis_3">
    <g id="xtick_6">
     <g id="line2d_18">
      <g>
       <use xlink:href="#md21a92c7a9" x="298.065" y="174.04" style="stroke: #000000; stroke-width: 0.8"/>
      </g>
     </g>
     <g id="text_13">
      <!-- 0.0 -->
      <g transform="translate(290.113437 188.638438)scale(0.1 -0.1)">
       <use xlink:href="#DejaVuSans-30"/>
       <use xlink:href="#DejaVuSans-2e" x="63.623047"/>
       <use xlink:href="#DejaVuSans-30" x="95.410156"/>
      </g>
     </g>
    </g>
    <g id="xtick_7">
     <g id="line2d_19">
      <g>
       <use xlink:href="#md21a92c7a9" x="352.43875" y="174.04" style="stroke: #000000; stroke-width: 0.8"/>
      </g>
     </g>
     <g id="text_14">
      <!-- 0.5 -->
      <g transform="translate(344.487187 188.638438)scale(0.1 -0.1)">
       <use xlink:href="#DejaVuSans-30"/>
       <use xlink:href="#DejaVuSans-2e" x="63.623047"/>
       <use xlink:href="#DejaVuSans-35" x="95.410156"/>
      </g>
     </g>
    </g>
    <g id="xtick_8">
     <g id="line2d_20">
      <g>
       <use xlink:href="#md21a92c7a9" x="406.8125" y="174.04" style="stroke: #000000; stroke-width: 0.8"/>
      </g>
     </g>
     <g id="text_15">
      <!-- 1.0 -->
      <g transform="translate(398.860937 188.638438)scale(0.1 -0.1)">
       <use xlink:href="#DejaVuSans-31"/>
       <use xlink:href="#DejaVuSans-2e" x="63.623047"/>
       <use xlink:href="#DejaVuSans-30" x="95.410156"/>
      </g>
     </g>
    </g>
    <g id="xtick_9">
     <g id="line2d_21">
      <g>
       <use xlink:href="#md21a92c7a9" x="461.18625" y="174.04" style="stroke: #000000; stroke-width: 0.8"/>
      </g>
     </g>
     <g id="text_16">
      <!-- 1.5 -->
      <g transform="translate(453.234687 188.638438)scale(0.1 -0.1)">
       <use xlink:href="#DejaVuSans-31"/>
       <use xlink:href="#DejaVuSans-2e" x="63.623047"/>
       <use xlink:href="#DejaVuSans-35" x="95.410156"/>
      </g>
     </g>
    </g>
    <g id="xtick_10">
     <g id="line2d_22">
      <g>
       <use xlink:href="#md21a92c7a9" x="515.56" y="174.04" style="stroke: #000000; stroke-width: 0.8"/>
      </g>
     </g>
     <g id="text_17">
      <!-- 2.0 -->
      <g transform="translate(507.608437 188.638438)scale(0.1 -0.1)">
       <use xlink:href="#DejaVuSans-32"/>
       <use xlink:href="#DejaVuSans-2e" x="63.623047"/>
       <use xlink:href="#DejaVuSans-30" x="95.410156"/>
      </g>
     </g>
    </g>
    <g id="text_18">
     <!-- Influence of surprisal (multiplication) -->
     <g transform="translate(314.665625 202.316563)scale(0.1 -0.1)">
      <use xlink:href="#DejaVuSans-49"/>
      <use xlink:href="#DejaVuSans-6e" x="29.492188"/>
      <use xlink:href="#DejaVuSans-66" x="92.871094"/>
      <use xlink:href="#DejaVuSans-6c" x="128.076172"/>
      <use xlink:href="#DejaVuSans-75" x="155.859375"/>
      <use xlink:href="#DejaVuSans-65" x="219.238281"/>
      <use xlink:href="#DejaVuSans-6e" x="280.761719"/>
      <use xlink:href="#DejaVuSans-63" x="344.140625"/>
      <use xlink:href="#DejaVuSans-65" x="399.121094"/>
      <use xlink:href="#DejaVuSans-20" x="460.644531"/>
      <use xlink:href="#DejaVuSans-6f" x="492.431641"/>
      <use xlink:href="#DejaVuSans-66" x="553.613281"/>
      <use xlink:href="#DejaVuSans-20" x="588.818359"/>
      <use xlink:href="#DejaVuSans-73" x="620.605469"/>
      <use xlink:href="#DejaVuSans-75" x="672.705078"/>
      <use xlink:href="#DejaVuSans-72" x="736.083984"/>
      <use xlink:href="#DejaVuSans-70" x="777.197266"/>
      <use xlink:href="#DejaVuSans-72" x="840.673828"/>
      <use xlink:href="#DejaVuSans-69" x="881.787109"/>
      <use xlink:href="#DejaVuSans-73" x="909.570312"/>
      <use xlink:href="#DejaVuSans-61" x="961.669922"/>
      <use xlink:href="#DejaVuSans-6c" x="1022.949219"/>
      <use xlink:href="#DejaVuSans-20" x="1050.732422"/>
      <use xlink:href="#DejaVuSans-28" x="1082.519531"/>
      <use xlink:href="#DejaVuSans-6d" x="1121.533203"/>
      <use xlink:href="#DejaVuSans-75" x="1218.945312"/>
      <use xlink:href="#DejaVuSans-6c" x="1282.324219"/>
      <use xlink:href="#DejaVuSans-74" x="1310.107422"/>
      <use xlink:href="#DejaVuSans-69" x="1349.316406"/>
      <use xlink:href="#DejaVuSans-70" x="1377.099609"/>
      <use xlink:href="#DejaVuSans-6c" x="1440.576172"/>
      <use xlink:href="#DejaVuSans-69" x="1468.359375"/>
      <use xlink:href="#DejaVuSans-63" x="1496.142578"/>
      <use xlink:href="#DejaVuSans-61" x="1551.123047"/>
      <use xlink:href="#DejaVuSans-74" x="1612.402344"/>
      <use xlink:href="#DejaVuSans-69" x="1651.611328"/>
      <use xlink:href="#DejaVuSans-6f" x="1679.394531"/>
      <use xlink:href="#DejaVuSans-6e" x="1740.576172"/>
      <use xlink:href="#DejaVuSans-29" x="1803.955078"/>
     </g>
    </g>
   </g>
   <g id="line2d_23">
    <path d="M 298.065 33.569091 
L 309.512105 34.446752 
L 320.959211 37.026282 
L 332.406316 40.54739 
L 343.853421 45.299278 
L 355.300526 51.38544 
L 366.747632 57.810393 
L 378.194737 65.024381 
L 389.641842 72.08755 
L 401.088947 80.031678 
L 412.536053 87.347008 
L 423.983158 95.024134 
L 435.430263 102.164382 
L 446.877368 109.123662 
L 458.324474 115.741954 
L 469.771579 122.701317 
L 481.218684 128.584965 
L 492.665789 134.06373 
L 504.112895 139.327255 
L 515.56 144.129819 
" clip-path="url(#pc20c6cd61c)" style="fill: none; stroke: #1f77b4; stroke-width: 1.5; stroke-linecap: square"/>
   </g>
   <g id="line2d_24">
    <path d="M 298.065 33.56928 
L 309.512105 34.451416 
L 320.959211 37.044244 
L 332.406316 40.590797 
L 343.853421 45.381066 
L 355.300526 51.500473 
L 366.747632 57.948434 
L 378.194737 65.219236 
L 389.641842 72.309287 
L 401.088947 80.305746 
L 412.536053 87.668879 
L 423.983158 95.369413 
L 435.430263 102.554952 
L 446.877368 109.562673 
L 458.324474 116.21632 
L 469.771579 123.215971 
L 481.218684 129.165399 
L 492.665789 134.673698 
L 504.112895 139.943881 
L 515.56 144.799035 
" clip-path="url(#pc20c6cd61c)" style="fill: none; stroke: #ff7f0e; stroke-width: 1.5; stroke-linecap: square"/>
   </g>
   <g id="line2d_25">
    <path d="M 298.065 33.569102 
L 309.512105 34.448946 
L 320.959211 37.040159 
L 332.406316 40.569928 
L 343.853421 45.338209 
L 355.300526 51.434384 
L 366.747632 57.872967 
L 378.194737 65.106271 
L 389.641842 72.182418 
L 401.088947 80.11654 
L 412.536053 87.454385 
L 423.983158 95.17795 
L 435.430263 102.340561 
L 446.877368 109.38045 
L 458.324474 116.029753 
L 469.771579 123.047254 
L 481.218684 129.041291 
L 492.665789 134.547036 
L 504.112895 139.876594 
L 515.56 144.748186 
" clip-path="url(#pc20c6cd61c)" style="fill: none; stroke: #2ca02c; stroke-width: 1.5; stroke-linecap: square"/>
   </g>
   <g id="line2d_26">
    <path d="M 298.065 33.570135 
L 309.512105 34.454901 
L 320.959211 37.055588 
L 332.406316 40.614569 
L 343.853421 45.405463 
L 355.300526 51.540357 
L 366.747632 57.993251 
L 378.194737 65.273734 
L 389.641842 72.370806 
L 401.088947 80.369019 
L 412.536053 87.729951 
L 423.983158 95.475225 
L 435.430263 102.662037 
L 446.877368 109.747051 
L 458.324474 116.450046 
L 469.771579 123.521455 
L 481.218684 129.535478 
L 492.665789 135.051671 
L 504.112895 140.408385 
L 515.56 145.295878 
" clip-path="url(#pc20c6cd61c)" style="fill: none; stroke: #d62728; stroke-width: 1.5; stroke-linecap: square"/>
   </g>
   <g id="line2d_27">
    <path d="M 298.065 33.569102 
L 309.512105 34.447434 
L 320.959211 37.025972 
L 332.406316 40.575021 
L 343.853421 45.305933 
L 355.300526 51.411557 
L 366.747632 57.893989 
L 378.194737 64.984276 
L 389.641842 72.242728 
L 401.088947 80.252868 
L 412.536053 87.665674 
L 423.983158 95.13213 
L 435.430263 102.611749 
L 446.877368 109.162575 
L 458.324474 116.201732 
L 469.771579 123.125013 
L 481.218684 129.276649 
L 492.665789 134.369527 
L 504.112895 139.690122 
L 515.56 144.984776 
" clip-path="url(#pc20c6cd61c)" style="fill: none; stroke: #9467bd; stroke-width: 1.5; stroke-linecap: square"/>
   </g>
   <g id="line2d_28">
    <path d="M 298.065 33.569857 
L 309.512105 34.452541 
L 320.959211 37.044671 
L 332.406316 40.621066 
L 343.853421 45.390145 
L 355.300526 51.530087 
L 366.747632 58.03838 
L 378.194737 65.177057 
L 389.641842 72.467223 
L 401.088947 80.529792 
L 412.536053 87.990547 
L 423.983158 95.489678 
L 435.430263 103.005188 
L 446.877368 109.605293 
L 458.324474 116.696324 
L 469.771579 123.629182 
L 481.218684 129.836617 
L 492.665789 134.976066 
L 504.112895 140.294166 
L 515.56 145.661531 
" clip-path="url(#pc20c6cd61c)" style="fill: none; stroke: #8c564b; stroke-width: 1.5; stroke-linecap: square"/>
   </g>
   <g id="line2d_29">
    <path d="M 298.065 48.675246 
L 309.512105 49.446247 
L 320.959211 51.782107 
L 332.406316 55.014653 
L 343.853421 59.315204 
L 355.300526 64.861703 
L 366.747632 70.666943 
L 378.194737 77.348685 
L 389.641842 83.848332 
L 401.088947 91.277811 
L 412.536053 97.877062 
L 423.983158 105.057313 
L 435.430263 111.653181 
L 446.877368 118.02707 
L 458.324474 123.918603 
L 469.771579 130.497205 
L 481.218684 135.872827 
L 492.665789 140.859542 
L 504.112895 145.608741 
L 515.56 150.227853 
" clip-path="url(#pc20c6cd61c)" style="fill: none; stroke: #e377c2; stroke-width: 1.5; stroke-linecap: square"/>
   </g>
   <g id="line2d_30">
    <path d="M 298.065 33.569514 
L 309.512105 34.454398 
L 320.959211 37.063422 
L 332.406316 40.631388 
L 343.853421 45.464631 
L 355.300526 51.597793 
L 366.747632 58.085474 
L 378.194737 65.378575 
L 389.641842 72.503231 
L 401.088947 80.531522 
L 412.536053 87.936895 
L 423.983158 95.668436 
L 435.430263 102.885754 
L 446.877368 109.949733 
L 458.324474 116.618628 
L 469.771579 123.670435 
L 481.218684 129.67286 
L 492.665789 135.259304 
L 504.112895 140.5709 
L 515.56 145.515562 
" clip-path="url(#pc20c6cd61c)" style="fill: none; stroke: #7f7f7f; stroke-width: 1.5; stroke-linecap: square"/>
   </g>
   <g id="patch_6">
    <path d="M 298.065 174.04 
L 298.065 26.88 
" style="fill: none; stroke: #000000; stroke-width: 0.8; stroke-linejoin: miter; stroke-linecap: square"/>
   </g>
   <g id="patch_7">
    <path d="M 298.065 174.04 
L 515.56 174.04 
" style="fill: none; stroke: #000000; stroke-width: 0.8; stroke-linejoin: miter; stroke-linecap: square"/>
   </g>
   <g id="text_19">
    <!-- Node * third variable -->
    <g transform="translate(344.2325 20.88)scale(0.12 -0.12)">
     <defs>
      <path id="DejaVuSans-68" d="M 3513 2113 
L 3513 0 
L 2938 0 
L 2938 2094 
Q 2938 2591 2744 2837 
Q 2550 3084 2163 3084 
Q 1697 3084 1428 2787 
Q 1159 2491 1159 1978 
L 1159 0 
L 581 0 
L 581 4863 
L 1159 4863 
L 1159 2956 
Q 1366 3272 1645 3428 
Q 1925 3584 2291 3584 
Q 2894 3584 3203 3211 
Q 3513 2838 3513 2113 
z
" transform="scale(0.015625)"/>
      <path id="DejaVuSans-62" d="M 3116 1747 
Q 3116 2381 2855 2742 
Q 2594 3103 2138 3103 
Q 1681 3103 1420 2742 
Q 1159 2381 1159 1747 
Q 1159 1113 1420 752 
Q 1681 391 2138 391 
Q 2594 391 2855 752 
Q 3116 1113 3116 1747 
z
M 1159 2969 
Q 1341 3281 1617 3432 
Q 1894 3584 2278 3584 
Q 2916 3584 3314 3078 
Q 3713 2572 3713 1747 
Q 3713 922 3314 415 
Q 2916 -91 2278 -91 
Q 1894 -91 1617 61 
Q 1341 213 1159 525 
L 1159 0 
L 581 0 
L 581 4863 
L 1159 4863 
L 1159 2969 
z
" transform="scale(0.015625)"/>
     </defs>
     <use xlink:href="#DejaVuSans-4e"/>
     <use xlink:href="#DejaVuSans-6f" x="74.804688"/>
     <use xlink:href="#DejaVuSans-64" x="135.986328"/>
     <use xlink:href="#DejaVuSans-65" x="199.462891"/>
     <use xlink:href="#DejaVuSans-20" x="260.986328"/>
     <use xlink:href="#DejaVuSans-2a" x="292.773438"/>
     <use xlink:href="#DejaVuSans-20" x="342.773438"/>
     <use xlink:href="#DejaVuSans-74" x="374.560547"/>
     <use xlink:href="#DejaVuSans-68" x="413.769531"/>
     <use xlink:href="#DejaVuSans-69" x="477.148438"/>
     <use xlink:href="#DejaVuSans-72" x="504.931641"/>
     <use xlink:href="#DejaVuSans-64" x="544.294922"/>
     <use xlink:href="#DejaVuSans-20" x="607.771484"/>
     <use xlink:href="#DejaVuSans-76" x="639.558594"/>
     <use xlink:href="#DejaVuSans-61" x="698.738281"/>
     <use xlink:href="#DejaVuSans-72" x="760.017578"/>
     <use xlink:href="#DejaVuSans-69" x="801.130859"/>
     <use xlink:href="#DejaVuSans-61" x="828.914062"/>
     <use xlink:href="#DejaVuSans-62" x="890.193359"/>
     <use xlink:href="#DejaVuSans-6c" x="953.669922"/>
     <use xlink:href="#DejaVuSans-65" x="981.453125"/>
    </g>
   </g>
   <g id="legend_1">
    <g id="line2d_31">
     <path d="M 524.56 39.978437 
L 534.56 39.978437 
L 544.56 39.978437 
" style="fill: none; stroke: #1f77b4; stroke-width: 1.5; stroke-linecap: square"/>
    </g>
    <g id="text_20">
     <!-- Node -->
     <g transform="translate(552.56 43.478437)scale(0.1 -0.1)">
      <use xlink:href="#DejaVuSans-4e"/>
      <use xlink:href="#DejaVuSans-6f" x="74.804688"/>
      <use xlink:href="#DejaVuSans-64" x="135.986328"/>
      <use xlink:href="#DejaVuSans-65" x="199.462891"/>
     </g>
    </g>
    <g id="line2d_32">
     <path d="M 524.56 54.656563 
L 534.56 54.656563 
L 544.56 54.656563 
" style="fill: none; stroke: #ff7f0e; stroke-width: 1.5; stroke-linecap: square"/>
    </g>
    <g id="text_21">
     <!-- Node + surprisal -->
     <g transform="translate(552.56 58.156563)scale(0.1 -0.1)">
      <defs>
       <path id="DejaVuSans-2b" d="M 2944 4013 
L 2944 2272 
L 4684 2272 
L 4684 1741 
L 2944 1741 
L 2944 0 
L 2419 0 
L 2419 1741 
L 678 1741 
L 678 2272 
L 2419 2272 
L 2419 4013 
L 2944 4013 
z
" transform="scale(0.015625)"/>
      </defs>
      <use xlink:href="#DejaVuSans-4e"/>
      <use xlink:href="#DejaVuSans-6f" x="74.804688"/>
      <use xlink:href="#DejaVuSans-64" x="135.986328"/>
      <use xlink:href="#DejaVuSans-65" x="199.462891"/>
      <use xlink:href="#DejaVuSans-20" x="260.986328"/>
      <use xlink:href="#DejaVuSans-2b" x="292.773438"/>
      <use xlink:href="#DejaVuSans-20" x="376.5625"/>
      <use xlink:href="#DejaVuSans-73" x="408.349609"/>
      <use xlink:href="#DejaVuSans-75" x="460.449219"/>
      <use xlink:href="#DejaVuSans-72" x="523.828125"/>
      <use xlink:href="#DejaVuSans-70" x="564.941406"/>
      <use xlink:href="#DejaVuSans-72" x="628.417969"/>
      <use xlink:href="#DejaVuSans-69" x="669.53125"/>
      <use xlink:href="#DejaVuSans-73" x="697.314453"/>
      <use xlink:href="#DejaVuSans-61" x="749.414062"/>
      <use xlink:href="#DejaVuSans-6c" x="810.693359"/>
     </g>
    </g>
    <g id="line2d_33">
     <path d="M 524.56 69.334687 
L 534.56 69.334687 
L 544.56 69.334687 
" style="fill: none; stroke: #2ca02c; stroke-width: 1.5; stroke-linecap: square"/>
    </g>
    <g id="text_22">
     <!-- Node split -->
     <g transform="translate(552.56 72.834687)scale(0.1 -0.1)">
      <use xlink:href="#DejaVuSans-4e"/>
      <use xlink:href="#DejaVuSans-6f" x="74.804688"/>
      <use xlink:href="#DejaVuSans-64" x="135.986328"/>
      <use xlink:href="#DejaVuSans-65" x="199.462891"/>
      <use xlink:href="#DejaVuSans-20" x="260.986328"/>
      <use xlink:href="#DejaVuSans-73" x="292.773438"/>
      <use xlink:href="#DejaVuSans-70" x="344.873047"/>
      <use xlink:href="#DejaVuSans-6c" x="408.349609"/>
      <use xlink:href="#DejaVuSans-69" x="436.132812"/>
      <use xlink:href="#DejaVuSans-74" x="463.916016"/>
     </g>
    </g>
    <g id="line2d_34">
     <path d="M 524.56 84.012812 
L 534.56 84.012812 
L 544.56 84.012812 
" style="fill: none; stroke: #d62728; stroke-width: 1.5; stroke-linecap: square"/>
    </g>
    <g id="text_23">
     <!-- Node split + surprisal -->
     <g transform="translate(552.56 87.512812)scale(0.1 -0.1)">
      <use xlink:href="#DejaVuSans-4e"/>
      <use xlink:href="#DejaVuSans-6f" x="74.804688"/>
      <use xlink:href="#DejaVuSans-64" x="135.986328"/>
      <use xlink:href="#DejaVuSans-65" x="199.462891"/>
      <use xlink:href="#DejaVuSans-20" x="260.986328"/>
      <use xlink:href="#DejaVuSans-73" x="292.773438"/>
      <use xlink:href="#DejaVuSans-70" x="344.873047"/>
      <use xlink:href="#DejaVuSans-6c" x="408.349609"/>
      <use xlink:href="#DejaVuSans-69" x="436.132812"/>
      <use xlink:href="#DejaVuSans-74" x="463.916016"/>
      <use xlink:href="#DejaVuSans-20" x="503.125"/>
      <use xlink:href="#DejaVuSans-2b" x="534.912109"/>
      <use xlink:href="#DejaVuSans-20" x="618.701172"/>
      <use xlink:href="#DejaVuSans-73" x="650.488281"/>
      <use xlink:href="#DejaVuSans-75" x="702.587891"/>
      <use xlink:href="#DejaVuSans-72" x="765.966797"/>
      <use xlink:href="#DejaVuSans-70" x="807.080078"/>
      <use xlink:href="#DejaVuSans-72" x="870.556641"/>
      <use xlink:href="#DejaVuSans-69" x="911.669922"/>
      <use xlink:href="#DejaVuSans-73" x="939.453125"/>
      <use xlink:href="#DejaVuSans-61" x="991.552734"/>
      <use xlink:href="#DejaVuSans-6c" x="1052.832031"/>
     </g>
    </g>
    <g id="line2d_35">
     <path d="M 524.56 98.690937 
L 534.56 98.690937 
L 544.56 98.690937 
" style="fill: none; stroke: #9467bd; stroke-width: 1.5; stroke-linecap: square"/>
    </g>
    <g id="text_24">
     <!-- Node random split -->
     <g transform="translate(552.56 102.190937)scale(0.1 -0.1)">
      <use xlink:href="#DejaVuSans-4e"/>
      <use xlink:href="#DejaVuSans-6f" x="74.804688"/>
      <use xlink:href="#DejaVuSans-64" x="135.986328"/>
      <use xlink:href="#DejaVuSans-65" x="199.462891"/>
      <use xlink:href="#DejaVuSans-20" x="260.986328"/>
      <use xlink:href="#DejaVuSans-72" x="292.773438"/>
      <use xlink:href="#DejaVuSans-61" x="333.886719"/>
      <use xlink:href="#DejaVuSans-6e" x="395.166016"/>
      <use xlink:href="#DejaVuSans-64" x="458.544922"/>
      <use xlink:href="#DejaVuSans-6f" x="522.021484"/>
      <use xlink:href="#DejaVuSans-6d" x="583.203125"/>
      <use xlink:href="#DejaVuSans-20" x="680.615234"/>
      <use xlink:href="#DejaVuSans-73" x="712.402344"/>
      <use xlink:href="#DejaVuSans-70" x="764.501953"/>
      <use xlink:href="#DejaVuSans-6c" x="827.978516"/>
      <use xlink:href="#DejaVuSans-69" x="855.761719"/>
      <use xlink:href="#DejaVuSans-74" x="883.544922"/>
     </g>
    </g>
    <g id="line2d_36">
     <path d="M 524.56 113.369062 
L 534.56 113.369062 
L 544.56 113.369062 
" style="fill: none; stroke: #8c564b; stroke-width: 1.5; stroke-linecap: square"/>
    </g>
    <g id="text_25">
     <!-- Node random split + surprisal -->
     <g transform="translate(552.56 116.869062)scale(0.1 -0.1)">
      <use xlink:href="#DejaVuSans-4e"/>
      <use xlink:href="#DejaVuSans-6f" x="74.804688"/>
      <use xlink:href="#DejaVuSans-64" x="135.986328"/>
      <use xlink:href="#DejaVuSans-65" x="199.462891"/>
      <use xlink:href="#DejaVuSans-20" x="260.986328"/>
      <use xlink:href="#DejaVuSans-72" x="292.773438"/>
      <use xlink:href="#DejaVuSans-61" x="333.886719"/>
      <use xlink:href="#DejaVuSans-6e" x="395.166016"/>
      <use xlink:href="#DejaVuSans-64" x="458.544922"/>
      <use xlink:href="#DejaVuSans-6f" x="522.021484"/>
      <use xlink:href="#DejaVuSans-6d" x="583.203125"/>
      <use xlink:href="#DejaVuSans-20" x="680.615234"/>
      <use xlink:href="#DejaVuSans-73" x="712.402344"/>
      <use xlink:href="#DejaVuSans-70" x="764.501953"/>
      <use xlink:href="#DejaVuSans-6c" x="827.978516"/>
      <use xlink:href="#DejaVuSans-69" x="855.761719"/>
      <use xlink:href="#DejaVuSans-74" x="883.544922"/>
      <use xlink:href="#DejaVuSans-20" x="922.753906"/>
      <use xlink:href="#DejaVuSans-2b" x="954.541016"/>
      <use xlink:href="#DejaVuSans-20" x="1038.330078"/>
      <use xlink:href="#DejaVuSans-73" x="1070.117188"/>
      <use xlink:href="#DejaVuSans-75" x="1122.216797"/>
      <use xlink:href="#DejaVuSans-72" x="1185.595703"/>
      <use xlink:href="#DejaVuSans-70" x="1226.708984"/>
      <use xlink:href="#DejaVuSans-72" x="1290.185547"/>
      <use xlink:href="#DejaVuSans-69" x="1331.298828"/>
      <use xlink:href="#DejaVuSans-73" x="1359.082031"/>
      <use xlink:href="#DejaVuSans-61" x="1411.181641"/>
      <use xlink:href="#DejaVuSans-6c" x="1472.460938"/>
     </g>
    </g>
    <g id="line2d_37">
     <path d="M 524.56 128.047187 
L 534.56 128.047187 
L 544.56 128.047187 
" style="fill: none; stroke: #e377c2; stroke-width: 1.5; stroke-linecap: square"/>
    </g>
    <g id="text_26">
     <!-- Interaction -->
     <g transform="translate(552.56 131.547187)scale(0.1 -0.1)">
      <use xlink:href="#DejaVuSans-49"/>
      <use xlink:href="#DejaVuSans-6e" x="29.492188"/>
      <use xlink:href="#DejaVuSans-74" x="92.871094"/>
      <use xlink:href="#DejaVuSans-65" x="132.080078"/>
      <use xlink:href="#DejaVuSans-72" x="193.603516"/>
      <use xlink:href="#DejaVuSans-61" x="234.716797"/>
      <use xlink:href="#DejaVuSans-63" x="295.996094"/>
      <use xlink:href="#DejaVuSans-74" x="350.976562"/>
      <use xlink:href="#DejaVuSans-69" x="390.185547"/>
      <use xlink:href="#DejaVuSans-6f" x="417.96875"/>
      <use xlink:href="#DejaVuSans-6e" x="479.150391"/>
     </g>
    </g>
    <g id="line2d_38">
     <path d="M 524.56 142.725312 
L 534.56 142.725312 
L 544.56 142.725312 
" style="fill: none; stroke: #7f7f7f; stroke-width: 1.5; stroke-linecap: square"/>
    </g>
    <g id="text_27">
     <!-- Node + surprisal + interaction -->
     <g transform="translate(552.56 146.225312)scale(0.1 -0.1)">
      <use xlink:href="#DejaVuSans-4e"/>
      <use xlink:href="#DejaVuSans-6f" x="74.804688"/>
      <use xlink:href="#DejaVuSans-64" x="135.986328"/>
      <use xlink:href="#DejaVuSans-65" x="199.462891"/>
      <use xlink:href="#DejaVuSans-20" x="260.986328"/>
      <use xlink:href="#DejaVuSans-2b" x="292.773438"/>
      <use xlink:href="#DejaVuSans-20" x="376.5625"/>
      <use xlink:href="#DejaVuSans-73" x="408.349609"/>
      <use xlink:href="#DejaVuSans-75" x="460.449219"/>
      <use xlink:href="#DejaVuSans-72" x="523.828125"/>
      <use xlink:href="#DejaVuSans-70" x="564.941406"/>
      <use xlink:href="#DejaVuSans-72" x="628.417969"/>
      <use xlink:href="#DejaVuSans-69" x="669.53125"/>
      <use xlink:href="#DejaVuSans-73" x="697.314453"/>
      <use xlink:href="#DejaVuSans-61" x="749.414062"/>
      <use xlink:href="#DejaVuSans-6c" x="810.693359"/>
      <use xlink:href="#DejaVuSans-20" x="838.476562"/>
      <use xlink:href="#DejaVuSans-2b" x="870.263672"/>
      <use xlink:href="#DejaVuSans-20" x="954.052734"/>
      <use xlink:href="#DejaVuSans-69" x="985.839844"/>
      <use xlink:href="#DejaVuSans-6e" x="1013.623047"/>
      <use xlink:href="#DejaVuSans-74" x="1077.001953"/>
      <use xlink:href="#DejaVuSans-65" x="1116.210938"/>
      <use xlink:href="#DejaVuSans-72" x="1177.734375"/>
      <use xlink:href="#DejaVuSans-61" x="1218.847656"/>
      <use xlink:href="#DejaVuSans-63" x="1280.126953"/>
      <use xlink:href="#DejaVuSans-74" x="1335.107422"/>
      <use xlink:href="#DejaVuSans-69" x="1374.316406"/>
      <use xlink:href="#DejaVuSans-6f" x="1402.099609"/>
      <use xlink:href="#DejaVuSans-6e" x="1463.28125"/>
     </g>
    </g>
   </g>
  </g>
 </g>
 <defs>
  <clipPath id="p846094782f">
   <rect x="47.72" y="26.88" width="217.495" height="147.16"/>
  </clipPath>
  <clipPath id="pc20c6cd61c">
   <rect x="298.065" y="26.88" width="217.495" height="147.16"/>
  </clipPath>
 </defs>
</svg>
