<?xml version="1.0" encoding="utf-8" standalone="no"?>
<!DOCTYPE svg PUBLIC "-//W3C//DTD SVG 1.1//EN"
  "http://www.w3.org/Graphics/SVG/1.1/DTD/svg11.dtd">
<svg xmlns:xlink="http://www.w3.org/1999/xlink" width="720pt" height="216pt" viewBox="0 0 720 216" xmlns="http://www.w3.org/2000/svg" version="1.1">
 <metadata>
  <rdf:RDF xmlns:dc="http://purl.org/dc/elements/1.1/" xmlns:cc="http://creativecommons.org/ns#" xmlns:rdf="http://www.w3.org/1999/02/22-rdf-syntax-ns#">
   <cc:Work>
    <dc:type rdf:resource="http://purl.org/dc/dcmitype/StillImage"/>
    <dc:date>2024-01-15T19:40:14.523727</dc:date>
    <dc:format>image/svg+xml</dc:format>
    <dc:creator>
     <cc:Agent>
      <dc:title>Matplotlib v3.5.1, https://matplotlib.org/</dc:title>
     </cc:Agent>
    </dc:creator>
   </cc:Work>
  </rdf:RDF>
 </metadata>
 <defs>
  <style type="text/css">*{stroke-linejoin: round; stroke-linecap: butt}</style>
 </defs>
 <g id="figure_1">
  <g id="patch_1">
   <path d="M 0 216 
L 720 216 
L 720 0 
L 0 0 
z
" style="fill: #ffffff"/>
  </g>
  <g id="axes_1">
   <g id="patch_2">
    <path d="M 47.72 174.04 
L 265.215 174.04 
L 265.215 26.88 
L 47.72 26.88 
z
" style="fill: #ffffff"/>
   </g>
   <g id="PolyCollection_1">
    <path d="M 47.72 33.569091 
L 47.72 33.569092 
L 59.167105 34.650775 
L 70.614211 37.9935 
L 82.061316 42.432289 
L 93.508421 48.669302 
L 104.955526 55.304235 
L 116.402632 62.92884 
L 127.849737 71.270969 
L 139.296842 78.750177 
L 150.743947 86.571697 
L 162.191053 94.744721 
L 173.638158 101.94985 
L 185.085263 109.776735 
L 196.532368 116.884511 
L 207.979474 122.861336 
L 219.426579 129.311037 
L 230.873684 135.581874 
L 242.320789 140.628015 
L 253.767895 146.363575 
L 265.215 150.89554 
L 265.215 136.714239 
L 265.215 136.714239 
L 253.767895 131.981927 
L 242.320789 127.823689 
L 230.873684 122.641108 
L 219.426579 117.031815 
L 207.979474 111.063192 
L 196.532368 104.733387 
L 185.085263 98.438276 
L 173.638158 91.413541 
L 162.191053 84.161422 
L 150.743947 77.046578 
L 139.296842 69.849218 
L 127.849737 63.042101 
L 116.402632 55.936894 
L 104.955526 49.735262 
L 93.508421 44.455513 
L 82.061316 39.772547 
L 70.614211 36.651381 
L 59.167105 34.267744 
L 47.72 33.569091 
z
" clip-path="url(#p8e849ff583)" style="fill: #1f77b4; fill-opacity: 0.4"/>
   </g>
   <g id="PolyCollection_2">
    <path d="M 47.72 33.569245 
L 47.72 33.569305 
L 59.167105 34.247924 
L 70.614211 35.993242 
L 82.061316 38.316117 
L 93.508421 42.016802 
L 104.955526 46.268524 
L 116.402632 51.477788 
L 127.849737 57.7043 
L 139.296842 63.785654 
L 150.743947 70.022208 
L 162.191053 77.241938 
L 173.638158 84.100201 
L 185.085263 91.409165 
L 196.532368 98.275074 
L 207.979474 104.754032 
L 219.426579 111.402516 
L 230.873684 118.226672 
L 242.320789 123.609006 
L 253.767895 129.705934 
L 265.215 134.694179 
L 265.215 120.214525 
L 265.215 120.214525 
L 253.767895 114.89869 
L 242.320789 110.120593 
L 230.873684 104.491935 
L 219.426579 98.841633 
L 207.979474 92.563535 
L 196.532368 86.513667 
L 185.085263 80.181677 
L 173.638158 73.488072 
L 162.191053 67.525365 
L 150.743947 61.615878 
L 139.296842 55.813819 
L 127.849737 51.218587 
L 116.402632 46.518012 
L 104.955526 42.768395 
L 93.508421 39.77535 
L 82.061316 37.117758 
L 70.614211 35.40927 
L 59.167105 34.038031 
L 47.72 33.569245 
z
" clip-path="url(#p8e849ff583)" style="fill: #ff7f0e; fill-opacity: 0.4"/>
   </g>
   <g id="PolyCollection_3">
    <path d="M 47.72 33.5691 
L 47.72 33.569104 
L 59.167105 34.385419 
L 70.614211 36.136552 
L 82.061316 38.083319 
L 93.508421 41.171119 
L 104.955526 44.406421 
L 116.402632 48.172751 
L 127.849737 51.644137 
L 139.296842 55.213009 
L 150.743947 58.96613 
L 162.191053 62.891772 
L 173.638158 66.646342 
L 185.085263 70.657749 
L 196.532368 74.295746 
L 207.979474 78.219537 
L 219.426579 81.689564 
L 230.873684 85.558889 
L 242.320789 88.763631 
L 253.767895 92.660816 
L 265.215 95.894593 
L 265.215 87.690607 
L 265.215 87.690607 
L 253.767895 84.260676 
L 242.320789 81.154221 
L 230.873684 77.479967 
L 219.426579 73.935745 
L 207.979474 70.286296 
L 196.532368 66.735598 
L 185.085263 63.239521 
L 173.638158 59.529132 
L 162.191053 56.010019 
L 150.743947 52.632065 
L 139.296842 49.036415 
L 127.849737 46.265469 
L 116.402632 43.09297 
L 104.955526 40.297465 
L 93.508421 38.173242 
L 82.061316 36.364642 
L 70.614211 35.162051 
L 59.167105 34.121914 
L 47.72 33.5691 
z
" clip-path="url(#p8e849ff583)" style="fill: #2ca02c; fill-opacity: 0.4"/>
   </g>
   <g id="PolyCollection_4">
    <path d="M 47.72 33.569938 
L 47.72 33.570365 
L 59.167105 34.200906 
L 70.614211 35.429181 
L 82.061316 36.785223 
L 93.508421 39.113741 
L 104.955526 41.653725 
L 116.402632 44.842903 
L 127.849737 48.030259 
L 139.296842 51.388944 
L 150.743947 54.977642 
L 162.191053 58.96136 
L 173.638158 62.68201 
L 185.085263 66.842625 
L 196.532368 70.588884 
L 207.979474 74.57883 
L 219.426579 78.131249 
L 230.873684 82.200206 
L 242.320789 85.614554 
L 253.767895 89.745935 
L 265.215 93.11599 
L 265.215 85.910936 
L 265.215 85.910936 
L 253.767895 82.170218 
L 242.320789 78.922416 
L 230.873684 75.103135 
L 219.426579 71.538667 
L 207.979474 67.723484 
L 196.532368 64.189649 
L 185.085263 60.552559 
L 173.638158 56.728254 
L 162.191053 53.203181 
L 150.743947 49.813991 
L 139.296842 46.347761 
L 127.849737 43.886849 
L 116.402632 41.152096 
L 104.955526 38.901185 
L 93.508421 37.2517 
L 82.061316 35.788058 
L 70.614211 34.88239 
L 59.167105 34.016569 
L 47.72 33.569938 
z
" clip-path="url(#p8e849ff583)" style="fill: #d62728; fill-opacity: 0.4"/>
   </g>
   <g id="PolyCollection_5">
    <path d="M 47.72 33.5691 
L 47.72 33.569105 
L 59.167105 34.656268 
L 70.614211 37.990556 
L 82.061316 42.435325 
L 93.508421 48.688757 
L 104.955526 55.357562 
L 116.402632 63.00197 
L 127.849737 71.34833 
L 139.296842 78.903038 
L 150.743947 86.756731 
L 162.191053 94.908419 
L 173.638158 101.907465 
L 185.085263 109.959953 
L 196.532368 116.804445 
L 207.979474 124.265873 
L 219.426579 129.152604 
L 230.873684 135.801584 
L 242.320789 140.910996 
L 253.767895 146.49684 
L 265.215 151.855629 
L 265.215 137.247311 
L 265.215 137.247311 
L 253.767895 131.767122 
L 242.320789 127.750588 
L 230.873684 123.150956 
L 219.426579 117.095905 
L 207.979474 111.37618 
L 196.532368 104.844191 
L 185.085263 98.542095 
L 173.638158 91.439692 
L 162.191053 84.417957 
L 150.743947 77.341573 
L 139.296842 69.954222 
L 127.849737 63.145009 
L 116.402632 56.064302 
L 104.955526 49.749246 
L 93.508421 44.435953 
L 82.061316 39.755357 
L 70.614211 36.66512 
L 59.167105 34.268491 
L 47.72 33.5691 
z
" clip-path="url(#p8e849ff583)" style="fill: #9467bd; fill-opacity: 0.4"/>
   </g>
   <g id="PolyCollection_6">
    <path d="M 47.72 33.569716 
L 47.72 33.569961 
L 59.167105 34.253268 
L 70.614211 35.99512 
L 82.061316 38.319624 
L 93.508421 42.054155 
L 104.955526 46.34726 
L 116.402632 51.511503 
L 127.849737 57.836557 
L 139.296842 63.827604 
L 150.743947 70.154851 
L 162.191053 77.426713 
L 173.638158 84.10954 
L 185.085263 91.500891 
L 196.532368 98.343756 
L 207.979474 105.952356 
L 219.426579 111.319155 
L 230.873684 118.30601 
L 242.320789 123.816258 
L 253.767895 129.760775 
L 265.215 135.252428 
L 265.215 120.611604 
L 265.215 120.611604 
L 253.767895 114.813611 
L 242.320789 110.168577 
L 230.873684 104.716095 
L 219.426579 98.924264 
L 207.979474 92.687619 
L 196.532368 86.461211 
L 185.085263 80.255328 
L 173.638158 73.58264 
L 162.191053 67.546662 
L 150.743947 61.705064 
L 139.296842 55.879858 
L 127.849737 51.224349 
L 116.402632 46.576981 
L 104.955526 42.740714 
L 93.508421 39.750413 
L 82.061316 37.114384 
L 70.614211 35.41403 
L 59.167105 34.039927 
L 47.72 33.569716 
z
" clip-path="url(#p8e849ff583)" style="fill: #8c564b; fill-opacity: 0.4"/>
   </g>
   <g id="PolyCollection_7">
    <path d="M 47.72 45.760449 
L 47.72 49.248327 
L 59.167105 50.711756 
L 70.614211 55.008719 
L 82.061316 60.63499 
L 93.508421 68.500904 
L 104.955526 76.749607 
L 116.402632 85.567979 
L 127.849737 94.486713 
L 139.296842 102.430195 
L 150.743947 110.097663 
L 162.191053 117.921692 
L 173.638158 125.39491 
L 185.085263 132.629828 
L 196.532368 139.291635 
L 207.979474 144.748919 
L 219.426579 150.195191 
L 230.873684 155.35305 
L 242.320789 159.496464 
L 253.767895 163.834294 
L 265.215 167.350909 
L 265.215 156.15483 
L 265.215 156.15483 
L 253.767895 152.170182 
L 242.320789 148.501577 
L 230.873684 143.53756 
L 219.426579 138.092592 
L 207.979474 132.145934 
L 196.532368 125.369841 
L 185.085263 118.724025 
L 173.638158 111.078206 
L 162.191053 103.190161 
L 150.743947 95.155986 
L 139.296842 86.4798 
L 127.849737 78.965355 
L 116.402632 70.578955 
L 104.955526 63.485578 
L 93.508421 57.482549 
L 82.061316 52.500156 
L 70.614211 48.962249 
L 59.167105 46.638152 
L 47.72 45.760449 
z
" clip-path="url(#p8e849ff583)" style="fill: #e377c2; fill-opacity: 0.4"/>
   </g>
   <g id="PolyCollection_8">
    <path d="M 47.72 33.56944 
L 47.72 33.569576 
L 59.167105 33.861229 
L 70.614211 34.110929 
L 82.061316 34.706724 
L 93.508421 36.343189 
L 104.955526 38.919861 
L 116.402632 42.641777 
L 127.849737 47.489197 
L 139.296842 52.767525 
L 150.743947 58.321708 
L 162.191053 64.512705 
L 173.638158 70.694262 
L 185.085263 77.267301 
L 196.532368 83.28018 
L 207.979474 89.855572 
L 219.426579 95.939566 
L 230.873684 102.853791 
L 242.320789 108.557973 
L 253.767895 115.00639 
L 265.215 120.551759 
L 265.215 103.283088 
L 265.215 103.283088 
L 253.767895 97.462572 
L 242.320789 91.915148 
L 230.873684 85.847785 
L 219.426579 79.858766 
L 207.979474 73.433505 
L 196.532368 67.484833 
L 185.085263 61.228584 
L 173.638158 55.358786 
L 162.191053 49.963551 
L 150.743947 45.260587 
L 139.296842 41.200867 
L 127.849737 38.556522 
L 116.402632 36.354811 
L 104.955526 34.996331 
L 93.508421 34.340693 
L 82.061316 34.037947 
L 70.614211 33.910458 
L 59.167105 33.801466 
L 47.72 33.56944 
z
" clip-path="url(#p8e849ff583)" style="fill: #7f7f7f; fill-opacity: 0.4"/>
   </g>
   <g id="matplotlib.axis_1">
    <g id="xtick_1">
     <g id="line2d_1">
      <defs>
       <path id="m8d761afc4d" d="M 0 0 
L 0 3.5 
" style="stroke: #000000; stroke-width: 0.8"/>
      </defs>
      <g>
       <use xlink:href="#m8d761afc4d" x="47.72" y="174.04" style="stroke: #000000; stroke-width: 0.8"/>
      </g>
     </g>
     <g id="text_1">
      <!-- 0.0 -->
      <g transform="translate(39.768438 188.638438)scale(0.1 -0.1)">
       <defs>
        <path id="DejaVuSans-30" d="M 2034 4250 
Q 1547 4250 1301 3770 
Q 1056 3291 1056 2328 
Q 1056 1369 1301 889 
Q 1547 409 2034 409 
Q 2525 409 2770 889 
Q 3016 1369 3016 2328 
Q 3016 3291 2770 3770 
Q 2525 4250 2034 4250 
z
M 2034 4750 
Q 2819 4750 3233 4129 
Q 3647 3509 3647 2328 
Q 3647 1150 3233 529 
Q 2819 -91 2034 -91 
Q 1250 -91 836 529 
Q 422 1150 422 2328 
Q 422 3509 836 4129 
Q 1250 4750 2034 4750 
z
" transform="scale(0.015625)"/>
        <path id="DejaVuSans-2e" d="M 684 794 
L 1344 794 
L 1344 0 
L 684 0 
L 684 794 
z
" transform="scale(0.015625)"/>
       </defs>
       <use xlink:href="#DejaVuSans-30"/>
       <use xlink:href="#DejaVuSans-2e" x="63.623047"/>
       <use xlink:href="#DejaVuSans-30" x="95.410156"/>
      </g>
     </g>
    </g>
    <g id="xtick_2">
     <g id="line2d_2">
      <g>
       <use xlink:href="#m8d761afc4d" x="102.09375" y="174.04" style="stroke: #000000; stroke-width: 0.8"/>
      </g>
     </g>
     <g id="text_2">
      <!-- 0.5 -->
      <g transform="translate(94.142188 188.638438)scale(0.1 -0.1)">
       <defs>
        <path id="DejaVuSans-35" d="M 691 4666 
L 3169 4666 
L 3169 4134 
L 1269 4134 
L 1269 2991 
Q 1406 3038 1543 3061 
Q 1681 3084 1819 3084 
Q 2600 3084 3056 2656 
Q 3513 2228 3513 1497 
Q 3513 744 3044 326 
Q 2575 -91 1722 -91 
Q 1428 -91 1123 -41 
Q 819 9 494 109 
L 494 744 
Q 775 591 1075 516 
Q 1375 441 1709 441 
Q 2250 441 2565 725 
Q 2881 1009 2881 1497 
Q 2881 1984 2565 2268 
Q 2250 2553 1709 2553 
Q 1456 2553 1204 2497 
Q 953 2441 691 2322 
L 691 4666 
z
" transform="scale(0.015625)"/>
       </defs>
       <use xlink:href="#DejaVuSans-30"/>
       <use xlink:href="#DejaVuSans-2e" x="63.623047"/>
       <use xlink:href="#DejaVuSans-35" x="95.410156"/>
      </g>
     </g>
    </g>
    <g id="xtick_3">
     <g id="line2d_3">
      <g>
       <use xlink:href="#m8d761afc4d" x="156.4675" y="174.04" style="stroke: #000000; stroke-width: 0.8"/>
      </g>
     </g>
     <g id="text_3">
      <!-- 1.0 -->
      <g transform="translate(148.515938 188.638438)scale(0.1 -0.1)">
       <defs>
        <path id="DejaVuSans-31" d="M 794 531 
L 1825 531 
L 1825 4091 
L 703 3866 
L 703 4441 
L 1819 4666 
L 2450 4666 
L 2450 531 
L 3481 531 
L 3481 0 
L 794 0 
L 794 531 
z
" transform="scale(0.015625)"/>
       </defs>
       <use xlink:href="#DejaVuSans-31"/>
       <use xlink:href="#DejaVuSans-2e" x="63.623047"/>
       <use xlink:href="#DejaVuSans-30" x="95.410156"/>
      </g>
     </g>
    </g>
    <g id="xtick_4">
     <g id="line2d_4">
      <g>
       <use xlink:href="#m8d761afc4d" x="210.84125" y="174.04" style="stroke: #000000; stroke-width: 0.8"/>
      </g>
     </g>
     <g id="text_4">
      <!-- 1.5 -->
      <g transform="translate(202.889687 188.638438)scale(0.1 -0.1)">
       <use xlink:href="#DejaVuSans-31"/>
       <use xlink:href="#DejaVuSans-2e" x="63.623047"/>
       <use xlink:href="#DejaVuSans-35" x="95.410156"/>
      </g>
     </g>
    </g>
    <g id="xtick_5">
     <g id="line2d_5">
      <g>
       <use xlink:href="#m8d761afc4d" x="265.215" y="174.04" style="stroke: #000000; stroke-width: 0.8"/>
      </g>
     </g>
     <g id="text_5">
      <!-- 2.0 -->
      <g transform="translate(257.263437 188.638438)scale(0.1 -0.1)">
       <defs>
        <path id="DejaVuSans-32" d="M 1228 531 
L 3431 531 
L 3431 0 
L 469 0 
L 469 531 
Q 828 903 1448 1529 
Q 2069 2156 2228 2338 
Q 2531 2678 2651 2914 
Q 2772 3150 2772 3378 
Q 2772 3750 2511 3984 
Q 2250 4219 1831 4219 
Q 1534 4219 1204 4116 
Q 875 4013 500 3803 
L 500 4441 
Q 881 4594 1212 4672 
Q 1544 4750 1819 4750 
Q 2544 4750 2975 4387 
Q 3406 4025 3406 3419 
Q 3406 3131 3298 2873 
Q 3191 2616 2906 2266 
Q 2828 2175 2409 1742 
Q 1991 1309 1228 531 
z
" transform="scale(0.015625)"/>
       </defs>
       <use xlink:href="#DejaVuSans-32"/>
       <use xlink:href="#DejaVuSans-2e" x="63.623047"/>
       <use xlink:href="#DejaVuSans-30" x="95.410156"/>
      </g>
     </g>
    </g>
    <g id="text_6">
     <!-- Influence of surprisal (multiplication) -->
     <g transform="translate(64.320625 202.316563)scale(0.1 -0.1)">
      <defs>
       <path id="DejaVuSans-49" d="M 628 4666 
L 1259 4666 
L 1259 0 
L 628 0 
L 628 4666 
z
" transform="scale(0.015625)"/>
       <path id="DejaVuSans-6e" d="M 3513 2113 
L 3513 0 
L 2938 0 
L 2938 2094 
Q 2938 2591 2744 2837 
Q 2550 3084 2163 3084 
Q 1697 3084 1428 2787 
Q 1159 2491 1159 1978 
L 1159 0 
L 581 0 
L 581 3500 
L 1159 3500 
L 1159 2956 
Q 1366 3272 1645 3428 
Q 1925 3584 2291 3584 
Q 2894 3584 3203 3211 
Q 3513 2838 3513 2113 
z
" transform="scale(0.015625)"/>
       <path id="DejaVuSans-66" d="M 2375 4863 
L 2375 4384 
L 1825 4384 
Q 1516 4384 1395 4259 
Q 1275 4134 1275 3809 
L 1275 3500 
L 2222 3500 
L 2222 3053 
L 1275 3053 
L 1275 0 
L 697 0 
L 697 3053 
L 147 3053 
L 147 3500 
L 697 3500 
L 697 3744 
Q 697 4328 969 4595 
Q 1241 4863 1831 4863 
L 2375 4863 
z
" transform="scale(0.015625)"/>
       <path id="DejaVuSans-6c" d="M 603 4863 
L 1178 4863 
L 1178 0 
L 603 0 
L 603 4863 
z
" transform="scale(0.015625)"/>
       <path id="DejaVuSans-75" d="M 544 1381 
L 544 3500 
L 1119 3500 
L 1119 1403 
Q 1119 906 1312 657 
Q 1506 409 1894 409 
Q 2359 409 2629 706 
Q 2900 1003 2900 1516 
L 2900 3500 
L 3475 3500 
L 3475 0 
L 2900 0 
L 2900 538 
Q 2691 219 2414 64 
Q 2138 -91 1772 -91 
Q 1169 -91 856 284 
Q 544 659 544 1381 
z
M 1991 3584 
L 1991 3584 
z
" transform="scale(0.015625)"/>
       <path id="DejaVuSans-65" d="M 3597 1894 
L 3597 1613 
L 953 1613 
Q 991 1019 1311 708 
Q 1631 397 2203 397 
Q 2534 397 2845 478 
Q 3156 559 3463 722 
L 3463 178 
Q 3153 47 2828 -22 
Q 2503 -91 2169 -91 
Q 1331 -91 842 396 
Q 353 884 353 1716 
Q 353 2575 817 3079 
Q 1281 3584 2069 3584 
Q 2775 3584 3186 3129 
Q 3597 2675 3597 1894 
z
M 3022 2063 
Q 3016 2534 2758 2815 
Q 2500 3097 2075 3097 
Q 1594 3097 1305 2825 
Q 1016 2553 972 2059 
L 3022 2063 
z
" transform="scale(0.015625)"/>
       <path id="DejaVuSans-63" d="M 3122 3366 
L 3122 2828 
Q 2878 2963 2633 3030 
Q 2388 3097 2138 3097 
Q 1578 3097 1268 2742 
Q 959 2388 959 1747 
Q 959 1106 1268 751 
Q 1578 397 2138 397 
Q 2388 397 2633 464 
Q 2878 531 3122 666 
L 3122 134 
Q 2881 22 2623 -34 
Q 2366 -91 2075 -91 
Q 1284 -91 818 406 
Q 353 903 353 1747 
Q 353 2603 823 3093 
Q 1294 3584 2113 3584 
Q 2378 3584 2631 3529 
Q 2884 3475 3122 3366 
z
" transform="scale(0.015625)"/>
       <path id="DejaVuSans-20" transform="scale(0.015625)"/>
       <path id="DejaVuSans-6f" d="M 1959 3097 
Q 1497 3097 1228 2736 
Q 959 2375 959 1747 
Q 959 1119 1226 758 
Q 1494 397 1959 397 
Q 2419 397 2687 759 
Q 2956 1122 2956 1747 
Q 2956 2369 2687 2733 
Q 2419 3097 1959 3097 
z
M 1959 3584 
Q 2709 3584 3137 3096 
Q 3566 2609 3566 1747 
Q 3566 888 3137 398 
Q 2709 -91 1959 -91 
Q 1206 -91 779 398 
Q 353 888 353 1747 
Q 353 2609 779 3096 
Q 1206 3584 1959 3584 
z
" transform="scale(0.015625)"/>
       <path id="DejaVuSans-73" d="M 2834 3397 
L 2834 2853 
Q 2591 2978 2328 3040 
Q 2066 3103 1784 3103 
Q 1356 3103 1142 2972 
Q 928 2841 928 2578 
Q 928 2378 1081 2264 
Q 1234 2150 1697 2047 
L 1894 2003 
Q 2506 1872 2764 1633 
Q 3022 1394 3022 966 
Q 3022 478 2636 193 
Q 2250 -91 1575 -91 
Q 1294 -91 989 -36 
Q 684 19 347 128 
L 347 722 
Q 666 556 975 473 
Q 1284 391 1588 391 
Q 1994 391 2212 530 
Q 2431 669 2431 922 
Q 2431 1156 2273 1281 
Q 2116 1406 1581 1522 
L 1381 1569 
Q 847 1681 609 1914 
Q 372 2147 372 2553 
Q 372 3047 722 3315 
Q 1072 3584 1716 3584 
Q 2034 3584 2315 3537 
Q 2597 3491 2834 3397 
z
" transform="scale(0.015625)"/>
       <path id="DejaVuSans-72" d="M 2631 2963 
Q 2534 3019 2420 3045 
Q 2306 3072 2169 3072 
Q 1681 3072 1420 2755 
Q 1159 2438 1159 1844 
L 1159 0 
L 581 0 
L 581 3500 
L 1159 3500 
L 1159 2956 
Q 1341 3275 1631 3429 
Q 1922 3584 2338 3584 
Q 2397 3584 2469 3576 
Q 2541 3569 2628 3553 
L 2631 2963 
z
" transform="scale(0.015625)"/>
       <path id="DejaVuSans-70" d="M 1159 525 
L 1159 -1331 
L 581 -1331 
L 581 3500 
L 1159 3500 
L 1159 2969 
Q 1341 3281 1617 3432 
Q 1894 3584 2278 3584 
Q 2916 3584 3314 3078 
Q 3713 2572 3713 1747 
Q 3713 922 3314 415 
Q 2916 -91 2278 -91 
Q 1894 -91 1617 61 
Q 1341 213 1159 525 
z
M 3116 1747 
Q 3116 2381 2855 2742 
Q 2594 3103 2138 3103 
Q 1681 3103 1420 2742 
Q 1159 2381 1159 1747 
Q 1159 1113 1420 752 
Q 1681 391 2138 391 
Q 2594 391 2855 752 
Q 3116 1113 3116 1747 
z
" transform="scale(0.015625)"/>
       <path id="DejaVuSans-69" d="M 603 3500 
L 1178 3500 
L 1178 0 
L 603 0 
L 603 3500 
z
M 603 4863 
L 1178 4863 
L 1178 4134 
L 603 4134 
L 603 4863 
z
" transform="scale(0.015625)"/>
       <path id="DejaVuSans-61" d="M 2194 1759 
Q 1497 1759 1228 1600 
Q 959 1441 959 1056 
Q 959 750 1161 570 
Q 1363 391 1709 391 
Q 2188 391 2477 730 
Q 2766 1069 2766 1631 
L 2766 1759 
L 2194 1759 
z
M 3341 1997 
L 3341 0 
L 2766 0 
L 2766 531 
Q 2569 213 2275 61 
Q 1981 -91 1556 -91 
Q 1019 -91 701 211 
Q 384 513 384 1019 
Q 384 1609 779 1909 
Q 1175 2209 1959 2209 
L 2766 2209 
L 2766 2266 
Q 2766 2663 2505 2880 
Q 2244 3097 1772 3097 
Q 1472 3097 1187 3025 
Q 903 2953 641 2809 
L 641 3341 
Q 956 3463 1253 3523 
Q 1550 3584 1831 3584 
Q 2591 3584 2966 3190 
Q 3341 2797 3341 1997 
z
" transform="scale(0.015625)"/>
       <path id="DejaVuSans-28" d="M 1984 4856 
Q 1566 4138 1362 3434 
Q 1159 2731 1159 2009 
Q 1159 1288 1364 580 
Q 1569 -128 1984 -844 
L 1484 -844 
Q 1016 -109 783 600 
Q 550 1309 550 2009 
Q 550 2706 781 3412 
Q 1013 4119 1484 4856 
L 1984 4856 
z
" transform="scale(0.015625)"/>
       <path id="DejaVuSans-6d" d="M 3328 2828 
Q 3544 3216 3844 3400 
Q 4144 3584 4550 3584 
Q 5097 3584 5394 3201 
Q 5691 2819 5691 2113 
L 5691 0 
L 5113 0 
L 5113 2094 
Q 5113 2597 4934 2840 
Q 4756 3084 4391 3084 
Q 3944 3084 3684 2787 
Q 3425 2491 3425 1978 
L 3425 0 
L 2847 0 
L 2847 2094 
Q 2847 2600 2669 2842 
Q 2491 3084 2119 3084 
Q 1678 3084 1418 2786 
Q 1159 2488 1159 1978 
L 1159 0 
L 581 0 
L 581 3500 
L 1159 3500 
L 1159 2956 
Q 1356 3278 1631 3431 
Q 1906 3584 2284 3584 
Q 2666 3584 2933 3390 
Q 3200 3197 3328 2828 
z
" transform="scale(0.015625)"/>
       <path id="DejaVuSans-74" d="M 1172 4494 
L 1172 3500 
L 2356 3500 
L 2356 3053 
L 1172 3053 
L 1172 1153 
Q 1172 725 1289 603 
Q 1406 481 1766 481 
L 2356 481 
L 2356 0 
L 1766 0 
Q 1100 0 847 248 
Q 594 497 594 1153 
L 594 3053 
L 172 3053 
L 172 3500 
L 594 3500 
L 594 4494 
L 1172 4494 
z
" transform="scale(0.015625)"/>
       <path id="DejaVuSans-29" d="M 513 4856 
L 1013 4856 
Q 1481 4119 1714 3412 
Q 1947 2706 1947 2009 
Q 1947 1309 1714 600 
Q 1481 -109 1013 -844 
L 513 -844 
Q 928 -128 1133 580 
Q 1338 1288 1338 2009 
Q 1338 2731 1133 3434 
Q 928 4138 513 4856 
z
" transform="scale(0.015625)"/>
      </defs>
      <use xlink:href="#DejaVuSans-49"/>
      <use xlink:href="#DejaVuSans-6e" x="29.492188"/>
      <use xlink:href="#DejaVuSans-66" x="92.871094"/>
      <use xlink:href="#DejaVuSans-6c" x="128.076172"/>
      <use xlink:href="#DejaVuSans-75" x="155.859375"/>
      <use xlink:href="#DejaVuSans-65" x="219.238281"/>
      <use xlink:href="#DejaVuSans-6e" x="280.761719"/>
      <use xlink:href="#DejaVuSans-63" x="344.140625"/>
      <use xlink:href="#DejaVuSans-65" x="399.121094"/>
      <use xlink:href="#DejaVuSans-20" x="460.644531"/>
      <use xlink:href="#DejaVuSans-6f" x="492.431641"/>
      <use xlink:href="#DejaVuSans-66" x="553.613281"/>
      <use xlink:href="#DejaVuSans-20" x="588.818359"/>
      <use xlink:href="#DejaVuSans-73" x="620.605469"/>
      <use xlink:href="#DejaVuSans-75" x="672.705078"/>
      <use xlink:href="#DejaVuSans-72" x="736.083984"/>
      <use xlink:href="#DejaVuSans-70" x="777.197266"/>
      <use xlink:href="#DejaVuSans-72" x="840.673828"/>
      <use xlink:href="#DejaVuSans-69" x="881.787109"/>
      <use xlink:href="#DejaVuSans-73" x="909.570312"/>
      <use xlink:href="#DejaVuSans-61" x="961.669922"/>
      <use xlink:href="#DejaVuSans-6c" x="1022.949219"/>
      <use xlink:href="#DejaVuSans-20" x="1050.732422"/>
      <use xlink:href="#DejaVuSans-28" x="1082.519531"/>
      <use xlink:href="#DejaVuSans-6d" x="1121.533203"/>
      <use xlink:href="#DejaVuSans-75" x="1218.945312"/>
      <use xlink:href="#DejaVuSans-6c" x="1282.324219"/>
      <use xlink:href="#DejaVuSans-74" x="1310.107422"/>
      <use xlink:href="#DejaVuSans-69" x="1349.316406"/>
      <use xlink:href="#DejaVuSans-70" x="1377.099609"/>
      <use xlink:href="#DejaVuSans-6c" x="1440.576172"/>
      <use xlink:href="#DejaVuSans-69" x="1468.359375"/>
      <use xlink:href="#DejaVuSans-63" x="1496.142578"/>
      <use xlink:href="#DejaVuSans-61" x="1551.123047"/>
      <use xlink:href="#DejaVuSans-74" x="1612.402344"/>
      <use xlink:href="#DejaVuSans-69" x="1651.611328"/>
      <use xlink:href="#DejaVuSans-6f" x="1679.394531"/>
      <use xlink:href="#DejaVuSans-6e" x="1740.576172"/>
      <use xlink:href="#DejaVuSans-29" x="1803.955078"/>
     </g>
    </g>
   </g>
   <g id="matplotlib.axis_2">
    <g id="ytick_1">
     <g id="line2d_6">
      <defs>
       <path id="m20ce6d04e9" d="M 0 0 
L -3.5 0 
" style="stroke: #000000; stroke-width: 0.8"/>
      </defs>
      <g>
       <use xlink:href="#m20ce6d04e9" x="47.72" y="144.859016" style="stroke: #000000; stroke-width: 0.8"/>
      </g>
     </g>
     <g id="text_7">
      <!-- 0.4 -->
      <g transform="translate(24.816875 148.658235)scale(0.1 -0.1)">
       <defs>
        <path id="DejaVuSans-34" d="M 2419 4116 
L 825 1625 
L 2419 1625 
L 2419 4116 
z
M 2253 4666 
L 3047 4666 
L 3047 1625 
L 3713 1625 
L 3713 1100 
L 3047 1100 
L 3047 0 
L 2419 0 
L 2419 1100 
L 313 1100 
L 313 1709 
L 2253 4666 
z
" transform="scale(0.015625)"/>
       </defs>
       <use xlink:href="#DejaVuSans-30"/>
       <use xlink:href="#DejaVuSans-2e" x="63.623047"/>
       <use xlink:href="#DejaVuSans-34" x="95.410156"/>
      </g>
     </g>
    </g>
    <g id="ytick_2">
     <g id="line2d_7">
      <g>
       <use xlink:href="#m20ce6d04e9" x="47.72" y="107.762373" style="stroke: #000000; stroke-width: 0.8"/>
      </g>
     </g>
     <g id="text_8">
      <!-- 0.6 -->
      <g transform="translate(24.816875 111.561592)scale(0.1 -0.1)">
       <defs>
        <path id="DejaVuSans-36" d="M 2113 2584 
Q 1688 2584 1439 2293 
Q 1191 2003 1191 1497 
Q 1191 994 1439 701 
Q 1688 409 2113 409 
Q 2538 409 2786 701 
Q 3034 994 3034 1497 
Q 3034 2003 2786 2293 
Q 2538 2584 2113 2584 
z
M 3366 4563 
L 3366 3988 
Q 3128 4100 2886 4159 
Q 2644 4219 2406 4219 
Q 1781 4219 1451 3797 
Q 1122 3375 1075 2522 
Q 1259 2794 1537 2939 
Q 1816 3084 2150 3084 
Q 2853 3084 3261 2657 
Q 3669 2231 3669 1497 
Q 3669 778 3244 343 
Q 2819 -91 2113 -91 
Q 1303 -91 875 529 
Q 447 1150 447 2328 
Q 447 3434 972 4092 
Q 1497 4750 2381 4750 
Q 2619 4750 2861 4703 
Q 3103 4656 3366 4563 
z
" transform="scale(0.015625)"/>
       </defs>
       <use xlink:href="#DejaVuSans-30"/>
       <use xlink:href="#DejaVuSans-2e" x="63.623047"/>
       <use xlink:href="#DejaVuSans-36" x="95.410156"/>
      </g>
     </g>
    </g>
    <g id="ytick_3">
     <g id="line2d_8">
      <g>
       <use xlink:href="#m20ce6d04e9" x="47.72" y="70.665731" style="stroke: #000000; stroke-width: 0.8"/>
      </g>
     </g>
     <g id="text_9">
      <!-- 0.8 -->
      <g transform="translate(24.816875 74.464949)scale(0.1 -0.1)">
       <defs>
        <path id="DejaVuSans-38" d="M 2034 2216 
Q 1584 2216 1326 1975 
Q 1069 1734 1069 1313 
Q 1069 891 1326 650 
Q 1584 409 2034 409 
Q 2484 409 2743 651 
Q 3003 894 3003 1313 
Q 3003 1734 2745 1975 
Q 2488 2216 2034 2216 
z
M 1403 2484 
Q 997 2584 770 2862 
Q 544 3141 544 3541 
Q 544 4100 942 4425 
Q 1341 4750 2034 4750 
Q 2731 4750 3128 4425 
Q 3525 4100 3525 3541 
Q 3525 3141 3298 2862 
Q 3072 2584 2669 2484 
Q 3125 2378 3379 2068 
Q 3634 1759 3634 1313 
Q 3634 634 3220 271 
Q 2806 -91 2034 -91 
Q 1263 -91 848 271 
Q 434 634 434 1313 
Q 434 1759 690 2068 
Q 947 2378 1403 2484 
z
M 1172 3481 
Q 1172 3119 1398 2916 
Q 1625 2713 2034 2713 
Q 2441 2713 2670 2916 
Q 2900 3119 2900 3481 
Q 2900 3844 2670 4047 
Q 2441 4250 2034 4250 
Q 1625 4250 1398 4047 
Q 1172 3844 1172 3481 
z
" transform="scale(0.015625)"/>
       </defs>
       <use xlink:href="#DejaVuSans-30"/>
       <use xlink:href="#DejaVuSans-2e" x="63.623047"/>
       <use xlink:href="#DejaVuSans-38" x="95.410156"/>
      </g>
     </g>
    </g>
    <g id="ytick_4">
     <g id="line2d_9">
      <g>
       <use xlink:href="#m20ce6d04e9" x="47.72" y="33.569088" style="stroke: #000000; stroke-width: 0.8"/>
      </g>
     </g>
     <g id="text_10">
      <!-- 1.0 -->
      <g transform="translate(24.816875 37.368307)scale(0.1 -0.1)">
       <use xlink:href="#DejaVuSans-31"/>
       <use xlink:href="#DejaVuSans-2e" x="63.623047"/>
       <use xlink:href="#DejaVuSans-30" x="95.410156"/>
      </g>
     </g>
    </g>
    <g id="text_11">
     <!-- R-value -->
     <g transform="translate(18.737188 119.064687)rotate(-90)scale(0.1 -0.1)">
      <defs>
       <path id="DejaVuSans-52" d="M 2841 2188 
Q 3044 2119 3236 1894 
Q 3428 1669 3622 1275 
L 4263 0 
L 3584 0 
L 2988 1197 
Q 2756 1666 2539 1819 
Q 2322 1972 1947 1972 
L 1259 1972 
L 1259 0 
L 628 0 
L 628 4666 
L 2053 4666 
Q 2853 4666 3247 4331 
Q 3641 3997 3641 3322 
Q 3641 2881 3436 2590 
Q 3231 2300 2841 2188 
z
M 1259 4147 
L 1259 2491 
L 2053 2491 
Q 2509 2491 2742 2702 
Q 2975 2913 2975 3322 
Q 2975 3731 2742 3939 
Q 2509 4147 2053 4147 
L 1259 4147 
z
" transform="scale(0.015625)"/>
       <path id="DejaVuSans-2d" d="M 313 2009 
L 1997 2009 
L 1997 1497 
L 313 1497 
L 313 2009 
z
" transform="scale(0.015625)"/>
       <path id="DejaVuSans-76" d="M 191 3500 
L 800 3500 
L 1894 563 
L 2988 3500 
L 3597 3500 
L 2284 0 
L 1503 0 
L 191 3500 
z
" transform="scale(0.015625)"/>
      </defs>
      <use xlink:href="#DejaVuSans-52"/>
      <use xlink:href="#DejaVuSans-2d" x="65.482422"/>
      <use xlink:href="#DejaVuSans-76" x="98.941406"/>
      <use xlink:href="#DejaVuSans-61" x="158.121094"/>
      <use xlink:href="#DejaVuSans-6c" x="219.400391"/>
      <use xlink:href="#DejaVuSans-75" x="247.183594"/>
      <use xlink:href="#DejaVuSans-65" x="310.5625"/>
     </g>
    </g>
   </g>
   <g id="line2d_10">
    <path d="M 47.72 33.569091 
L 59.167105 34.45926 
L 70.614211 37.322441 
L 82.061316 41.102418 
L 93.508421 46.562407 
L 104.955526 52.519748 
L 116.402632 59.432867 
L 127.849737 67.156535 
L 139.296842 74.299698 
L 150.743947 81.809137 
L 162.191053 89.453071 
L 173.638158 96.681696 
L 185.085263 104.107506 
L 196.532368 110.808949 
L 207.979474 116.962264 
L 219.426579 123.171426 
L 230.873684 129.111491 
L 242.320789 134.225852 
L 253.767895 139.172751 
L 265.215 143.804889 
" clip-path="url(#p8e849ff583)" style="fill: none; stroke: #1f77b4; stroke-width: 1.5; stroke-linecap: square"/>
   </g>
   <g id="line2d_11">
    <path d="M 47.72 33.569275 
L 59.167105 34.142978 
L 70.614211 35.701256 
L 82.061316 37.716937 
L 93.508421 40.896076 
L 104.955526 44.51846 
L 116.402632 48.9979 
L 127.849737 54.461443 
L 139.296842 59.799737 
L 150.743947 65.819043 
L 162.191053 72.383651 
L 173.638158 78.794137 
L 185.085263 85.795421 
L 196.532368 92.394371 
L 207.979474 98.658784 
L 219.426579 105.122074 
L 230.873684 111.359303 
L 242.320789 116.8648 
L 253.767895 122.302312 
L 265.215 127.454352 
" clip-path="url(#p8e849ff583)" style="fill: none; stroke: #ff7f0e; stroke-width: 1.5; stroke-linecap: square"/>
   </g>
   <g id="line2d_12">
    <path d="M 47.72 33.569102 
L 59.167105 34.253666 
L 70.614211 35.649302 
L 82.061316 37.22398 
L 93.508421 39.672181 
L 104.955526 42.351943 
L 116.402632 45.63286 
L 127.849737 48.954803 
L 139.296842 52.124712 
L 150.743947 55.799097 
L 162.191053 59.450895 
L 173.638158 63.087737 
L 185.085263 66.948635 
L 196.532368 70.515672 
L 207.979474 74.252917 
L 219.426579 77.812654 
L 230.873684 81.519428 
L 242.320789 84.958926 
L 253.767895 88.460746 
L 265.215 91.7926 
" clip-path="url(#p8e849ff583)" style="fill: none; stroke: #2ca02c; stroke-width: 1.5; stroke-linecap: square"/>
   </g>
   <g id="line2d_13">
    <path d="M 47.72 33.570151 
L 59.167105 34.108737 
L 70.614211 35.155786 
L 82.061316 36.286641 
L 93.508421 38.182721 
L 104.955526 40.277455 
L 116.402632 42.9975 
L 127.849737 45.958554 
L 139.296842 48.868352 
L 150.743947 52.395816 
L 162.191053 56.08227 
L 173.638158 59.705132 
L 185.085263 63.697592 
L 196.532368 67.389266 
L 207.979474 71.151157 
L 219.426579 74.834958 
L 230.873684 78.65167 
L 242.320789 82.268485 
L 253.767895 85.958077 
L 265.215 89.513463 
" clip-path="url(#p8e849ff583)" style="fill: none; stroke: #d62728; stroke-width: 1.5; stroke-linecap: square"/>
   </g>
   <g id="line2d_14">
    <path d="M 47.72 33.569103 
L 59.167105 34.46238 
L 70.614211 37.327838 
L 82.061316 41.095341 
L 93.508421 46.562355 
L 104.955526 52.553404 
L 116.402632 59.533136 
L 127.849737 67.246669 
L 139.296842 74.42863 
L 150.743947 82.049152 
L 162.191053 89.663188 
L 173.638158 96.673578 
L 185.085263 104.251024 
L 196.532368 110.824318 
L 207.979474 117.821026 
L 219.426579 123.124254 
L 230.873684 129.47627 
L 242.320789 134.330792 
L 253.767895 139.131981 
L 265.215 144.55147 
" clip-path="url(#p8e849ff583)" style="fill: none; stroke: #9467bd; stroke-width: 1.5; stroke-linecap: square"/>
   </g>
   <g id="line2d_15">
    <path d="M 47.72 33.569839 
L 59.167105 34.146597 
L 70.614211 35.704575 
L 82.061316 37.717004 
L 93.508421 40.902284 
L 104.955526 44.543987 
L 116.402632 49.044242 
L 127.849737 54.530453 
L 139.296842 59.853731 
L 150.743947 65.929958 
L 162.191053 72.486688 
L 173.638158 78.84609 
L 185.085263 85.878109 
L 196.532368 92.402483 
L 207.979474 99.319988 
L 219.426579 105.12171 
L 230.873684 111.511052 
L 242.320789 116.992417 
L 253.767895 122.287193 
L 265.215 127.932016 
" clip-path="url(#p8e849ff583)" style="fill: none; stroke: #8c564b; stroke-width: 1.5; stroke-linecap: square"/>
   </g>
   <g id="line2d_16">
    <path d="M 47.72 47.504388 
L 59.167105 48.674954 
L 70.614211 51.985484 
L 82.061316 56.567573 
L 93.508421 62.991726 
L 104.955526 70.117593 
L 116.402632 78.073467 
L 127.849737 86.726034 
L 139.296842 94.454998 
L 150.743947 102.626824 
L 162.191053 110.555926 
L 173.638158 118.236558 
L 185.085263 125.676926 
L 196.532368 132.330738 
L 207.979474 138.447427 
L 219.426579 144.143892 
L 230.873684 149.445305 
L 242.320789 153.999021 
L 253.767895 158.002238 
L 265.215 161.752869 
" clip-path="url(#p8e849ff583)" style="fill: none; stroke: #e377c2; stroke-width: 1.5; stroke-linecap: square"/>
   </g>
   <g id="line2d_17">
    <path d="M 47.72 33.569508 
L 59.167105 33.831347 
L 70.614211 34.010693 
L 82.061316 34.372335 
L 93.508421 35.341941 
L 104.955526 36.958096 
L 116.402632 39.498294 
L 127.849737 43.02286 
L 139.296842 46.984196 
L 150.743947 51.791148 
L 162.191053 57.238128 
L 173.638158 63.026524 
L 185.085263 69.247942 
L 196.532368 75.382506 
L 207.979474 81.644539 
L 219.426579 87.899166 
L 230.873684 94.350788 
L 242.320789 100.23656 
L 253.767895 106.234481 
L 265.215 111.917423 
" clip-path="url(#p8e849ff583)" style="fill: none; stroke: #7f7f7f; stroke-width: 1.5; stroke-linecap: square"/>
   </g>
   <g id="patch_3">
    <path d="M 47.72 174.04 
L 47.72 26.88 
" style="fill: none; stroke: #000000; stroke-width: 0.8; stroke-linejoin: miter; stroke-linecap: square"/>
   </g>
   <g id="patch_4">
    <path d="M 47.72 174.04 
L 265.215 174.04 
" style="fill: none; stroke: #000000; stroke-width: 0.8; stroke-linejoin: miter; stroke-linecap: square"/>
   </g>
   <g id="text_12">
    <!-- Node * surprisal -->
    <g transform="translate(108.18625 20.88)scale(0.12 -0.12)">
     <defs>
      <path id="DejaVuSans-4e" d="M 628 4666 
L 1478 4666 
L 3547 763 
L 3547 4666 
L 4159 4666 
L 4159 0 
L 3309 0 
L 1241 3903 
L 1241 0 
L 628 0 
L 628 4666 
z
" transform="scale(0.015625)"/>
      <path id="DejaVuSans-64" d="M 2906 2969 
L 2906 4863 
L 3481 4863 
L 3481 0 
L 2906 0 
L 2906 525 
Q 2725 213 2448 61 
Q 2172 -91 1784 -91 
Q 1150 -91 751 415 
Q 353 922 353 1747 
Q 353 2572 751 3078 
Q 1150 3584 1784 3584 
Q 2172 3584 2448 3432 
Q 2725 3281 2906 2969 
z
M 947 1747 
Q 947 1113 1208 752 
Q 1469 391 1925 391 
Q 2381 391 2643 752 
Q 2906 1113 2906 1747 
Q 2906 2381 2643 2742 
Q 2381 3103 1925 3103 
Q 1469 3103 1208 2742 
Q 947 2381 947 1747 
z
" transform="scale(0.015625)"/>
      <path id="DejaVuSans-2a" d="M 3009 3897 
L 1888 3291 
L 3009 2681 
L 2828 2375 
L 1778 3009 
L 1778 1831 
L 1422 1831 
L 1422 3009 
L 372 2375 
L 191 2681 
L 1313 3291 
L 191 3897 
L 372 4206 
L 1422 3572 
L 1422 4750 
L 1778 4750 
L 1778 3572 
L 2828 4206 
L 3009 3897 
z
" transform="scale(0.015625)"/>
     </defs>
     <use xlink:href="#DejaVuSans-4e"/>
     <use xlink:href="#DejaVuSans-6f" x="74.804688"/>
     <use xlink:href="#DejaVuSans-64" x="135.986328"/>
     <use xlink:href="#DejaVuSans-65" x="199.462891"/>
     <use xlink:href="#DejaVuSans-20" x="260.986328"/>
     <use xlink:href="#DejaVuSans-2a" x="292.773438"/>
     <use xlink:href="#DejaVuSans-20" x="342.773438"/>
     <use xlink:href="#DejaVuSans-73" x="374.560547"/>
     <use xlink:href="#DejaVuSans-75" x="426.660156"/>
     <use xlink:href="#DejaVuSans-72" x="490.039062"/>
     <use xlink:href="#DejaVuSans-70" x="531.152344"/>
     <use xlink:href="#DejaVuSans-72" x="594.628906"/>
     <use xlink:href="#DejaVuSans-69" x="635.742188"/>
     <use xlink:href="#DejaVuSans-73" x="663.525391"/>
     <use xlink:href="#DejaVuSans-61" x="715.625"/>
     <use xlink:href="#DejaVuSans-6c" x="776.904297"/>
    </g>
   </g>
  </g>
  <g id="axes_2">
   <g id="patch_5">
    <path d="M 298.065 174.04 
L 515.56 174.04 
L 515.56 26.88 
L 298.065 26.88 
z
" style="fill: #ffffff"/>
   </g>
   <g id="PolyCollection_9">
    <path d="M 298.065 33.569091 
L 298.065 33.569092 
L 309.512105 34.590634 
L 320.959211 37.618973 
L 332.406316 41.678853 
L 343.853421 47.457431 
L 355.300526 53.668623 
L 366.747632 61.223101 
L 378.194737 69.00799 
L 389.641842 77.541118 
L 401.088947 85.795806 
L 412.536053 94.592006 
L 423.983158 101.647735 
L 435.430263 110.213419 
L 446.877368 117.02868 
L 458.324474 123.531845 
L 469.771579 129.691019 
L 481.218684 136.426498 
L 492.665789 141.652404 
L 504.112895 146.639603 
L 515.56 152.080086 
L 515.56 138.126472 
L 515.56 138.126472 
L 504.112895 132.95544 
L 492.665789 127.229206 
L 481.218684 121.457297 
L 469.771579 114.981321 
L 458.324474 109.449297 
L 446.877368 102.029425 
L 435.430263 94.775805 
L 423.983158 88.159455 
L 412.536053 80.87604 
L 401.088947 73.6958 
L 389.641842 67.350895 
L 378.194737 60.826187 
L 366.747632 54.302875 
L 355.300526 49.141121 
L 343.853421 43.634752 
L 332.406316 39.80099 
L 320.959211 36.459159 
L 309.512105 34.316679 
L 298.065 33.569091 
z
" clip-path="url(#p5393aa8b44)" style="fill: #1f77b4; fill-opacity: 0.4"/>
   </g>
   <g id="PolyCollection_10">
    <path d="M 298.065 33.569245 
L 298.065 33.569305 
L 309.512105 34.592345 
L 320.959211 37.635049 
L 332.406316 41.697574 
L 343.853421 47.497695 
L 355.300526 53.717006 
L 366.747632 61.306128 
L 378.194737 69.077621 
L 389.641842 77.626096 
L 401.088947 85.891128 
L 412.536053 94.709104 
L 423.983158 101.741148 
L 435.430263 110.312839 
L 446.877368 117.138696 
L 458.324474 123.617325 
L 469.771579 129.791946 
L 481.218684 136.48596 
L 492.665789 141.74123 
L 504.112895 146.715561 
L 515.56 152.132076 
L 515.56 138.20638 
L 515.56 138.20638 
L 504.112895 133.008875 
L 492.665789 127.248929 
L 481.218684 121.463784 
L 469.771579 114.982717 
L 458.324474 109.426625 
L 446.877368 102.035166 
L 435.430263 94.791026 
L 423.983158 88.151088 
L 412.536053 80.854194 
L 401.088947 73.684105 
L 389.641842 67.335603 
L 378.194737 60.78973 
L 366.747632 54.280534 
L 355.300526 49.129002 
L 343.853421 43.627575 
L 332.406316 39.796894 
L 320.959211 36.455267 
L 309.512105 34.317504 
L 298.065 33.569245 
z
" clip-path="url(#p5393aa8b44)" style="fill: #ff7f0e; fill-opacity: 0.4"/>
   </g>
   <g id="PolyCollection_11">
    <path d="M 298.065 33.5691 
L 298.065 33.569104 
L 309.512105 34.594668 
L 320.959211 37.629325 
L 332.406316 41.704942 
L 343.853421 47.485151 
L 355.300526 53.716261 
L 366.747632 61.282414 
L 378.194737 69.047052 
L 389.641842 77.6105 
L 401.088947 85.828671 
L 412.536053 94.619353 
L 423.983158 101.663128 
L 435.430263 110.187743 
L 446.877368 117.062527 
L 458.324474 123.566352 
L 469.771579 129.742782 
L 481.218684 136.414669 
L 492.665789 141.708998 
L 504.112895 146.788768 
L 515.56 152.237326 
L 515.56 138.327927 
L 515.56 138.327927 
L 504.112895 133.125169 
L 492.665789 127.400602 
L 481.218684 121.697035 
L 469.771579 115.197647 
L 458.324474 109.628718 
L 446.877368 102.249827 
L 435.430263 95.066557 
L 423.983158 88.397375 
L 412.536053 81.052183 
L 401.088947 73.851428 
L 389.641842 67.50317 
L 378.194737 60.941269 
L 366.747632 54.381031 
L 355.300526 49.183651 
L 343.853421 43.668065 
L 332.406316 39.817752 
L 320.959211 36.46966 
L 309.512105 34.319724 
L 298.065 33.5691 
z
" clip-path="url(#p5393aa8b44)" style="fill: #2ca02c; fill-opacity: 0.4"/>
   </g>
   <g id="PolyCollection_12">
    <path d="M 298.065 33.569938 
L 298.065 33.570365 
L 309.512105 34.595432 
L 320.959211 37.64476 
L 332.406316 41.722533 
L 343.853421 47.531701 
L 355.300526 53.773127 
L 366.747632 61.385544 
L 378.194737 69.16451 
L 389.641842 77.728826 
L 401.088947 85.970041 
L 412.536053 94.777953 
L 423.983158 101.821758 
L 435.430263 110.343207 
L 446.877368 117.18951 
L 458.324474 123.661183 
L 469.771579 129.822422 
L 481.218684 136.470839 
L 492.665789 141.742787 
L 504.112895 146.813232 
L 515.56 152.176397 
L 515.56 138.77499 
L 515.56 138.77499 
L 504.112895 133.559194 
L 492.665789 127.738834 
L 481.218684 121.955077 
L 469.771579 115.391782 
L 458.324474 109.781493 
L 446.877368 102.374073 
L 435.430263 95.152078 
L 423.983158 88.440851 
L 412.536053 81.082089 
L 401.088947 73.851766 
L 389.641842 67.507357 
L 378.194737 60.924983 
L 366.747632 54.37492 
L 355.300526 49.169747 
L 343.853421 43.660616 
L 332.406316 39.806127 
L 320.959211 36.466832 
L 309.512105 34.319421 
L 298.065 33.569938 
z
" clip-path="url(#p5393aa8b44)" style="fill: #d62728; fill-opacity: 0.4"/>
   </g>
   <g id="PolyCollection_13">
    <path d="M 298.065 33.5691 
L 298.065 33.569105 
L 309.512105 34.591858 
L 320.959211 37.593039 
L 332.406316 41.679515 
L 343.853421 47.455525 
L 355.300526 53.719353 
L 366.747632 61.301701 
L 378.194737 69.167529 
L 389.641842 77.682194 
L 401.088947 85.696145 
L 412.536053 94.831919 
L 423.983158 101.934839 
L 435.430263 110.323585 
L 446.877368 116.931494 
L 458.324474 123.784522 
L 469.771579 129.958243 
L 481.218684 136.31906 
L 492.665789 142.192731 
L 504.112895 147.395528 
L 515.56 152.346729 
L 515.56 138.284672 
L 515.56 138.284672 
L 504.112895 134.116961 
L 492.665789 127.21438 
L 481.218684 121.369822 
L 469.771579 115.495837 
L 458.324474 109.532371 
L 446.877368 102.077687 
L 435.430263 94.896443 
L 423.983158 88.044327 
L 412.536053 81.027336 
L 401.088947 73.944612 
L 389.641842 67.381565 
L 378.194737 61.029878 
L 366.747632 54.306585 
L 355.300526 49.161246 
L 343.853421 43.692568 
L 332.406316 39.814726 
L 320.959211 36.472903 
L 309.512105 34.319713 
L 298.065 33.5691 
z
" clip-path="url(#p5393aa8b44)" style="fill: #9467bd; fill-opacity: 0.4"/>
   </g>
   <g id="PolyCollection_14">
    <path d="M 298.065 33.569718 
L 298.065 33.569959 
L 309.512105 34.593958 
L 320.959211 37.610177 
L 332.406316 41.697687 
L 343.853421 47.494722 
L 355.300526 53.775215 
L 366.747632 61.381448 
L 378.194737 69.236302 
L 389.641842 77.762836 
L 401.088947 85.798575 
L 412.536053 94.940822 
L 423.983158 102.026588 
L 435.430263 110.406801 
L 446.877368 117.039286 
L 458.324474 123.861549 
L 469.771579 130.037386 
L 481.218684 136.381051 
L 492.665789 142.285933 
L 504.112895 147.458897 
L 515.56 152.390281 
L 515.56 138.350589 
L 515.56 138.350589 
L 504.112895 134.202705 
L 492.665789 127.252594 
L 481.218684 121.391385 
L 469.771579 115.488299 
L 458.324474 109.522945 
L 446.877368 102.084325 
L 435.430263 94.917341 
L 423.983158 88.03203 
L 412.536053 81.014903 
L 401.088947 73.946348 
L 389.641842 67.375475 
L 378.194737 61.002846 
L 366.747632 54.289348 
L 355.300526 49.150447 
L 343.853421 43.689757 
L 332.406316 39.812903 
L 320.959211 36.470257 
L 309.512105 34.321262 
L 298.065 33.569718 
z
" clip-path="url(#p5393aa8b44)" style="fill: #8c564b; fill-opacity: 0.4"/>
   </g>
   <g id="PolyCollection_15">
    <path d="M 298.065 45.760449 
L 298.065 49.248327 
L 309.512105 50.102618 
L 320.959211 52.312654 
L 332.406316 55.94138 
L 343.853421 60.837418 
L 355.300526 66.392326 
L 366.747632 73.36927 
L 378.194737 80.525803 
L 389.641842 88.566834 
L 401.088947 96.278968 
L 412.536053 104.695281 
L 423.983158 111.542265 
L 435.430263 119.727274 
L 446.877368 126.196531 
L 458.324474 132.193609 
L 469.771579 138.134311 
L 481.218684 144.580228 
L 492.665789 149.345006 
L 504.112895 154.056464 
L 515.56 159.233858 
L 515.56 143.848155 
L 515.56 143.848155 
L 504.112895 139.084458 
L 492.665789 133.889142 
L 481.218684 128.586616 
L 469.771579 122.564119 
L 458.324474 117.491311 
L 446.877368 110.484622 
L 435.430263 103.91922 
L 423.983158 97.77205 
L 412.536053 91.25796 
L 401.088947 84.522807 
L 389.641842 78.65621 
L 378.194737 72.791127 
L 366.747632 66.708987 
L 355.300526 61.657418 
L 343.853421 56.499918 
L 332.406316 52.381937 
L 320.959211 49.09028 
L 309.512105 46.529776 
L 298.065 45.760449 
z
" clip-path="url(#p5393aa8b44)" style="fill: #e377c2; fill-opacity: 0.4"/>
   </g>
   <g id="PolyCollection_16">
    <path d="M 298.065 33.56944 
L 298.065 33.569576 
L 309.512105 34.595272 
L 320.959211 37.640132 
L 332.406316 41.717446 
L 343.853421 47.527447 
L 355.300526 53.766956 
L 366.747632 61.376427 
L 378.194737 69.194272 
L 389.641842 77.745047 
L 401.088947 86.040915 
L 412.536053 94.903963 
L 423.983158 101.928878 
L 435.430263 110.484451 
L 446.877368 117.343006 
L 458.324474 123.862143 
L 469.771579 130.04194 
L 481.218684 136.713429 
L 492.665789 141.940185 
L 504.112895 146.953794 
L 515.56 152.324648 
L 515.56 138.274997 
L 515.56 138.274997 
L 504.112895 133.093091 
L 492.665789 127.288314 
L 481.218684 121.525355 
L 469.771579 115.041482 
L 458.324474 109.458403 
L 446.877368 102.070095 
L 435.430263 94.811167 
L 423.983158 88.167142 
L 412.536053 80.859205 
L 401.088947 73.700179 
L 389.641842 67.328042 
L 378.194737 60.803239 
L 366.747632 54.296146 
L 355.300526 49.145655 
L 343.853421 43.646277 
L 332.406316 39.80329 
L 320.959211 36.459011 
L 309.512105 34.315941 
L 298.065 33.56944 
z
" clip-path="url(#p5393aa8b44)" style="fill: #7f7f7f; fill-opacity: 0.4"/>
   </g>
   <g id="matplotlib.axis_3">
    <g id="xtick_6">
     <g id="line2d_18">
      <g>
       <use xlink:href="#m8d761afc4d" x="298.065" y="174.04" style="stroke: #000000; stroke-width: 0.8"/>
      </g>
     </g>
     <g id="text_13">
      <!-- 0.0 -->
      <g transform="translate(290.113437 188.638438)scale(0.1 -0.1)">
       <use xlink:href="#DejaVuSans-30"/>
       <use xlink:href="#DejaVuSans-2e" x="63.623047"/>
       <use xlink:href="#DejaVuSans-30" x="95.410156"/>
      </g>
     </g>
    </g>
    <g id="xtick_7">
     <g id="line2d_19">
      <g>
       <use xlink:href="#m8d761afc4d" x="352.43875" y="174.04" style="stroke: #000000; stroke-width: 0.8"/>
      </g>
     </g>
     <g id="text_14">
      <!-- 0.5 -->
      <g transform="translate(344.487187 188.638438)scale(0.1 -0.1)">
       <use xlink:href="#DejaVuSans-30"/>
       <use xlink:href="#DejaVuSans-2e" x="63.623047"/>
       <use xlink:href="#DejaVuSans-35" x="95.410156"/>
      </g>
     </g>
    </g>
    <g id="xtick_8">
     <g id="line2d_20">
      <g>
       <use xlink:href="#m8d761afc4d" x="406.8125" y="174.04" style="stroke: #000000; stroke-width: 0.8"/>
      </g>
     </g>
     <g id="text_15">
      <!-- 1.0 -->
      <g transform="translate(398.860937 188.638438)scale(0.1 -0.1)">
       <use xlink:href="#DejaVuSans-31"/>
       <use xlink:href="#DejaVuSans-2e" x="63.623047"/>
       <use xlink:href="#DejaVuSans-30" x="95.410156"/>
      </g>
     </g>
    </g>
    <g id="xtick_9">
     <g id="line2d_21">
      <g>
       <use xlink:href="#m8d761afc4d" x="461.18625" y="174.04" style="stroke: #000000; stroke-width: 0.8"/>
      </g>
     </g>
     <g id="text_16">
      <!-- 1.5 -->
      <g transform="translate(453.234687 188.638438)scale(0.1 -0.1)">
       <use xlink:href="#DejaVuSans-31"/>
       <use xlink:href="#DejaVuSans-2e" x="63.623047"/>
       <use xlink:href="#DejaVuSans-35" x="95.410156"/>
      </g>
     </g>
    </g>
    <g id="xtick_10">
     <g id="line2d_22">
      <g>
       <use xlink:href="#m8d761afc4d" x="515.56" y="174.04" style="stroke: #000000; stroke-width: 0.8"/>
      </g>
     </g>
     <g id="text_17">
      <!-- 2.0 -->
      <g transform="translate(507.608437 188.638438)scale(0.1 -0.1)">
       <use xlink:href="#DejaVuSans-32"/>
       <use xlink:href="#DejaVuSans-2e" x="63.623047"/>
       <use xlink:href="#DejaVuSans-30" x="95.410156"/>
      </g>
     </g>
    </g>
    <g id="text_18">
     <!-- Influence of surprisal (multiplication) -->
     <g transform="translate(314.665625 202.316563)scale(0.1 -0.1)">
      <use xlink:href="#DejaVuSans-49"/>
      <use xlink:href="#DejaVuSans-6e" x="29.492188"/>
      <use xlink:href="#DejaVuSans-66" x="92.871094"/>
      <use xlink:href="#DejaVuSans-6c" x="128.076172"/>
      <use xlink:href="#DejaVuSans-75" x="155.859375"/>
      <use xlink:href="#DejaVuSans-65" x="219.238281"/>
      <use xlink:href="#DejaVuSans-6e" x="280.761719"/>
      <use xlink:href="#DejaVuSans-63" x="344.140625"/>
      <use xlink:href="#DejaVuSans-65" x="399.121094"/>
      <use xlink:href="#DejaVuSans-20" x="460.644531"/>
      <use xlink:href="#DejaVuSans-6f" x="492.431641"/>
      <use xlink:href="#DejaVuSans-66" x="553.613281"/>
      <use xlink:href="#DejaVuSans-20" x="588.818359"/>
      <use xlink:href="#DejaVuSans-73" x="620.605469"/>
      <use xlink:href="#DejaVuSans-75" x="672.705078"/>
      <use xlink:href="#DejaVuSans-72" x="736.083984"/>
      <use xlink:href="#DejaVuSans-70" x="777.197266"/>
      <use xlink:href="#DejaVuSans-72" x="840.673828"/>
      <use xlink:href="#DejaVuSans-69" x="881.787109"/>
      <use xlink:href="#DejaVuSans-73" x="909.570312"/>
      <use xlink:href="#DejaVuSans-61" x="961.669922"/>
      <use xlink:href="#DejaVuSans-6c" x="1022.949219"/>
      <use xlink:href="#DejaVuSans-20" x="1050.732422"/>
      <use xlink:href="#DejaVuSans-28" x="1082.519531"/>
      <use xlink:href="#DejaVuSans-6d" x="1121.533203"/>
      <use xlink:href="#DejaVuSans-75" x="1218.945312"/>
      <use xlink:href="#DejaVuSans-6c" x="1282.324219"/>
      <use xlink:href="#DejaVuSans-74" x="1310.107422"/>
      <use xlink:href="#DejaVuSans-69" x="1349.316406"/>
      <use xlink:href="#DejaVuSans-70" x="1377.099609"/>
      <use xlink:href="#DejaVuSans-6c" x="1440.576172"/>
      <use xlink:href="#DejaVuSans-69" x="1468.359375"/>
      <use xlink:href="#DejaVuSans-63" x="1496.142578"/>
      <use xlink:href="#DejaVuSans-61" x="1551.123047"/>
      <use xlink:href="#DejaVuSans-74" x="1612.402344"/>
      <use xlink:href="#DejaVuSans-69" x="1651.611328"/>
      <use xlink:href="#DejaVuSans-6f" x="1679.394531"/>
      <use xlink:href="#DejaVuSans-6e" x="1740.576172"/>
      <use xlink:href="#DejaVuSans-29" x="1803.955078"/>
     </g>
    </g>
   </g>
   <g id="line2d_23">
    <path d="M 298.065 33.569091 
L 309.512105 34.453656 
L 320.959211 37.039066 
L 332.406316 40.739921 
L 343.853421 45.546091 
L 355.300526 51.404872 
L 366.747632 57.762988 
L 378.194737 64.917088 
L 389.641842 72.446007 
L 401.088947 79.745803 
L 412.536053 87.734023 
L 423.983158 94.903595 
L 435.430263 102.494612 
L 446.877368 109.529052 
L 458.324474 116.490571 
L 469.771579 122.33617 
L 481.218684 128.941897 
L 492.665789 134.440805 
L 504.112895 139.797521 
L 515.56 145.103279 
" clip-path="url(#p5393aa8b44)" style="fill: none; stroke: #1f77b4; stroke-width: 1.5; stroke-linecap: square"/>
   </g>
   <g id="line2d_24">
    <path d="M 298.065 33.569275 
L 309.512105 34.454924 
L 320.959211 37.045158 
L 332.406316 40.747234 
L 343.853421 45.562635 
L 355.300526 51.423004 
L 366.747632 57.793331 
L 378.194737 64.933676 
L 389.641842 72.48085 
L 401.088947 79.787616 
L 412.536053 87.781649 
L 423.983158 94.946118 
L 435.430263 102.551932 
L 446.877368 109.586931 
L 458.324474 116.521975 
L 469.771579 122.387332 
L 481.218684 128.974872 
L 492.665789 134.49508 
L 504.112895 139.862218 
L 515.56 145.169228 
" clip-path="url(#p5393aa8b44)" style="fill: none; stroke: #ff7f0e; stroke-width: 1.5; stroke-linecap: square"/>
   </g>
   <g id="line2d_25">
    <path d="M 298.065 33.569102 
L 309.512105 34.457196 
L 320.959211 37.049492 
L 332.406316 40.761347 
L 343.853421 45.576608 
L 355.300526 51.449956 
L 366.747632 57.831722 
L 378.194737 64.99416 
L 389.641842 72.556835 
L 401.088947 79.84005 
L 412.536053 87.835768 
L 423.983158 95.030251 
L 435.430263 102.62715 
L 446.877368 109.656177 
L 458.324474 116.597535 
L 469.771579 122.470214 
L 481.218684 129.055852 
L 492.665789 134.5548 
L 504.112895 139.956968 
L 515.56 145.282626 
" clip-path="url(#p5393aa8b44)" style="fill: none; stroke: #2ca02c; stroke-width: 1.5; stroke-linecap: square"/>
   </g>
   <g id="line2d_26">
    <path d="M 298.065 33.570151 
L 309.512105 34.457427 
L 320.959211 37.055796 
L 332.406316 40.76433 
L 343.853421 45.596159 
L 355.300526 51.471437 
L 366.747632 57.880232 
L 378.194737 65.044746 
L 389.641842 72.618091 
L 401.088947 79.910904 
L 412.536053 87.930021 
L 423.983158 95.131304 
L 435.430263 102.747642 
L 446.877368 109.781792 
L 458.324474 116.721338 
L 469.771579 122.607102 
L 481.218684 129.212958 
L 492.665789 134.74081 
L 504.112895 140.186213 
L 515.56 145.475694 
" clip-path="url(#p5393aa8b44)" style="fill: none; stroke: #d62728; stroke-width: 1.5; stroke-linecap: square"/>
   </g>
   <g id="line2d_27">
    <path d="M 298.065 33.569102 
L 309.512105 34.455785 
L 320.959211 37.032971 
L 332.406316 40.747121 
L 343.853421 45.574046 
L 355.300526 51.4403 
L 366.747632 57.804143 
L 378.194737 65.098703 
L 389.641842 72.53188 
L 401.088947 79.820378 
L 412.536053 87.929627 
L 423.983158 94.989583 
L 435.430263 102.610014 
L 446.877368 109.50459 
L 458.324474 116.658447 
L 469.771579 122.72704 
L 481.218684 128.844441 
L 492.665789 134.703556 
L 504.112895 140.756244 
L 515.56 145.3157 
" clip-path="url(#p5393aa8b44)" style="fill: none; stroke: #9467bd; stroke-width: 1.5; stroke-linecap: square"/>
   </g>
   <g id="line2d_28">
    <path d="M 298.065 33.569839 
L 309.512105 34.45761 
L 320.959211 37.040217 
L 332.406316 40.755295 
L 343.853421 45.59224 
L 355.300526 51.462831 
L 366.747632 57.835398 
L 378.194737 65.119574 
L 389.641842 72.569155 
L 401.088947 79.872462 
L 412.536053 87.977862 
L 423.983158 95.029309 
L 435.430263 102.662071 
L 446.877368 109.561806 
L 458.324474 116.692247 
L 469.771579 122.762842 
L 481.218684 128.886218 
L 492.665789 134.769263 
L 504.112895 140.830801 
L 515.56 145.370435 
" clip-path="url(#p5393aa8b44)" style="fill: none; stroke: #8c564b; stroke-width: 1.5; stroke-linecap: square"/>
   </g>
   <g id="line2d_29">
    <path d="M 298.065 47.504388 
L 309.512105 48.316197 
L 320.959211 50.701467 
L 332.406316 54.161658 
L 343.853421 58.668668 
L 355.300526 64.024872 
L 366.747632 70.039128 
L 378.194737 76.658465 
L 389.641842 83.611522 
L 401.088947 90.400887 
L 412.536053 97.976621 
L 423.983158 104.657158 
L 435.430263 111.823247 
L 446.877368 118.340577 
L 458.324474 124.84246 
L 469.771579 130.349215 
L 481.218684 136.583422 
L 492.665789 141.617074 
L 504.112895 146.570461 
L 515.56 151.541006 
" clip-path="url(#p5393aa8b44)" style="fill: none; stroke: #e377c2; stroke-width: 1.5; stroke-linecap: square"/>
   </g>
   <g id="line2d_30">
    <path d="M 298.065 33.569508 
L 309.512105 34.455606 
L 320.959211 37.049572 
L 332.406316 40.760368 
L 343.853421 45.586862 
L 355.300526 51.456305 
L 366.747632 57.836287 
L 378.194737 64.998755 
L 389.641842 72.536545 
L 401.088947 79.870547 
L 412.536053 87.881584 
L 423.983158 95.04801 
L 435.430263 102.647809 
L 446.877368 109.706551 
L 458.324474 116.660273 
L 469.771579 122.541711 
L 481.218684 129.119392 
L 492.665789 134.614249 
L 504.112895 140.023442 
L 515.56 145.299823 
" clip-path="url(#p5393aa8b44)" style="fill: none; stroke: #7f7f7f; stroke-width: 1.5; stroke-linecap: square"/>
   </g>
   <g id="patch_6">
    <path d="M 298.065 174.04 
L 298.065 26.88 
" style="fill: none; stroke: #000000; stroke-width: 0.8; stroke-linejoin: miter; stroke-linecap: square"/>
   </g>
   <g id="patch_7">
    <path d="M 298.065 174.04 
L 515.56 174.04 
" style="fill: none; stroke: #000000; stroke-width: 0.8; stroke-linejoin: miter; stroke-linecap: square"/>
   </g>
   <g id="text_19">
    <!-- Node * third variable -->
    <g transform="translate(344.2325 20.88)scale(0.12 -0.12)">
     <defs>
      <path id="DejaVuSans-68" d="M 3513 2113 
L 3513 0 
L 2938 0 
L 2938 2094 
Q 2938 2591 2744 2837 
Q 2550 3084 2163 3084 
Q 1697 3084 1428 2787 
Q 1159 2491 1159 1978 
L 1159 0 
L 581 0 
L 581 4863 
L 1159 4863 
L 1159 2956 
Q 1366 3272 1645 3428 
Q 1925 3584 2291 3584 
Q 2894 3584 3203 3211 
Q 3513 2838 3513 2113 
z
" transform="scale(0.015625)"/>
      <path id="DejaVuSans-62" d="M 3116 1747 
Q 3116 2381 2855 2742 
Q 2594 3103 2138 3103 
Q 1681 3103 1420 2742 
Q 1159 2381 1159 1747 
Q 1159 1113 1420 752 
Q 1681 391 2138 391 
Q 2594 391 2855 752 
Q 3116 1113 3116 1747 
z
M 1159 2969 
Q 1341 3281 1617 3432 
Q 1894 3584 2278 3584 
Q 2916 3584 3314 3078 
Q 3713 2572 3713 1747 
Q 3713 922 3314 415 
Q 2916 -91 2278 -91 
Q 1894 -91 1617 61 
Q 1341 213 1159 525 
L 1159 0 
L 581 0 
L 581 4863 
L 1159 4863 
L 1159 2969 
z
" transform="scale(0.015625)"/>
     </defs>
     <use xlink:href="#DejaVuSans-4e"/>
     <use xlink:href="#DejaVuSans-6f" x="74.804688"/>
     <use xlink:href="#DejaVuSans-64" x="135.986328"/>
     <use xlink:href="#DejaVuSans-65" x="199.462891"/>
     <use xlink:href="#DejaVuSans-20" x="260.986328"/>
     <use xlink:href="#DejaVuSans-2a" x="292.773438"/>
     <use xlink:href="#DejaVuSans-20" x="342.773438"/>
     <use xlink:href="#DejaVuSans-74" x="374.560547"/>
     <use xlink:href="#DejaVuSans-68" x="413.769531"/>
     <use xlink:href="#DejaVuSans-69" x="477.148438"/>
     <use xlink:href="#DejaVuSans-72" x="504.931641"/>
     <use xlink:href="#DejaVuSans-64" x="544.294922"/>
     <use xlink:href="#DejaVuSans-20" x="607.771484"/>
     <use xlink:href="#DejaVuSans-76" x="639.558594"/>
     <use xlink:href="#DejaVuSans-61" x="698.738281"/>
     <use xlink:href="#DejaVuSans-72" x="760.017578"/>
     <use xlink:href="#DejaVuSans-69" x="801.130859"/>
     <use xlink:href="#DejaVuSans-61" x="828.914062"/>
     <use xlink:href="#DejaVuSans-62" x="890.193359"/>
     <use xlink:href="#DejaVuSans-6c" x="953.669922"/>
     <use xlink:href="#DejaVuSans-65" x="981.453125"/>
    </g>
   </g>
   <g id="legend_1">
    <g id="line2d_31">
     <path d="M 524.56 39.978437 
L 534.56 39.978437 
L 544.56 39.978437 
" style="fill: none; stroke: #1f77b4; stroke-width: 1.5; stroke-linecap: square"/>
    </g>
    <g id="text_20">
     <!-- Node -->
     <g transform="translate(552.56 43.478437)scale(0.1 -0.1)">
      <use xlink:href="#DejaVuSans-4e"/>
      <use xlink:href="#DejaVuSans-6f" x="74.804688"/>
      <use xlink:href="#DejaVuSans-64" x="135.986328"/>
      <use xlink:href="#DejaVuSans-65" x="199.462891"/>
     </g>
    </g>
    <g id="line2d_32">
     <path d="M 524.56 54.656563 
L 534.56 54.656563 
L 544.56 54.656563 
" style="fill: none; stroke: #ff7f0e; stroke-width: 1.5; stroke-linecap: square"/>
    </g>
    <g id="text_21">
     <!-- Node + surprisal -->
     <g transform="translate(552.56 58.156563)scale(0.1 -0.1)">
      <defs>
       <path id="DejaVuSans-2b" d="M 2944 4013 
L 2944 2272 
L 4684 2272 
L 4684 1741 
L 2944 1741 
L 2944 0 
L 2419 0 
L 2419 1741 
L 678 1741 
L 678 2272 
L 2419 2272 
L 2419 4013 
L 2944 4013 
z
" transform="scale(0.015625)"/>
      </defs>
      <use xlink:href="#DejaVuSans-4e"/>
      <use xlink:href="#DejaVuSans-6f" x="74.804688"/>
      <use xlink:href="#DejaVuSans-64" x="135.986328"/>
      <use xlink:href="#DejaVuSans-65" x="199.462891"/>
      <use xlink:href="#DejaVuSans-20" x="260.986328"/>
      <use xlink:href="#DejaVuSans-2b" x="292.773438"/>
      <use xlink:href="#DejaVuSans-20" x="376.5625"/>
      <use xlink:href="#DejaVuSans-73" x="408.349609"/>
      <use xlink:href="#DejaVuSans-75" x="460.449219"/>
      <use xlink:href="#DejaVuSans-72" x="523.828125"/>
      <use xlink:href="#DejaVuSans-70" x="564.941406"/>
      <use xlink:href="#DejaVuSans-72" x="628.417969"/>
      <use xlink:href="#DejaVuSans-69" x="669.53125"/>
      <use xlink:href="#DejaVuSans-73" x="697.314453"/>
      <use xlink:href="#DejaVuSans-61" x="749.414062"/>
      <use xlink:href="#DejaVuSans-6c" x="810.693359"/>
     </g>
    </g>
    <g id="line2d_33">
     <path d="M 524.56 69.334687 
L 534.56 69.334687 
L 544.56 69.334687 
" style="fill: none; stroke: #2ca02c; stroke-width: 1.5; stroke-linecap: square"/>
    </g>
    <g id="text_22">
     <!-- Node split -->
     <g transform="translate(552.56 72.834687)scale(0.1 -0.1)">
      <use xlink:href="#DejaVuSans-4e"/>
      <use xlink:href="#DejaVuSans-6f" x="74.804688"/>
      <use xlink:href="#DejaVuSans-64" x="135.986328"/>
      <use xlink:href="#DejaVuSans-65" x="199.462891"/>
      <use xlink:href="#DejaVuSans-20" x="260.986328"/>
      <use xlink:href="#DejaVuSans-73" x="292.773438"/>
      <use xlink:href="#DejaVuSans-70" x="344.873047"/>
      <use xlink:href="#DejaVuSans-6c" x="408.349609"/>
      <use xlink:href="#DejaVuSans-69" x="436.132812"/>
      <use xlink:href="#DejaVuSans-74" x="463.916016"/>
     </g>
    </g>
    <g id="line2d_34">
     <path d="M 524.56 84.012812 
L 534.56 84.012812 
L 544.56 84.012812 
" style="fill: none; stroke: #d62728; stroke-width: 1.5; stroke-linecap: square"/>
    </g>
    <g id="text_23">
     <!-- Node split + surprisal -->
     <g transform="translate(552.56 87.512812)scale(0.1 -0.1)">
      <use xlink:href="#DejaVuSans-4e"/>
      <use xlink:href="#DejaVuSans-6f" x="74.804688"/>
      <use xlink:href="#DejaVuSans-64" x="135.986328"/>
      <use xlink:href="#DejaVuSans-65" x="199.462891"/>
      <use xlink:href="#DejaVuSans-20" x="260.986328"/>
      <use xlink:href="#DejaVuSans-73" x="292.773438"/>
      <use xlink:href="#DejaVuSans-70" x="344.873047"/>
      <use xlink:href="#DejaVuSans-6c" x="408.349609"/>
      <use xlink:href="#DejaVuSans-69" x="436.132812"/>
      <use xlink:href="#DejaVuSans-74" x="463.916016"/>
      <use xlink:href="#DejaVuSans-20" x="503.125"/>
      <use xlink:href="#DejaVuSans-2b" x="534.912109"/>
      <use xlink:href="#DejaVuSans-20" x="618.701172"/>
      <use xlink:href="#DejaVuSans-73" x="650.488281"/>
      <use xlink:href="#DejaVuSans-75" x="702.587891"/>
      <use xlink:href="#DejaVuSans-72" x="765.966797"/>
      <use xlink:href="#DejaVuSans-70" x="807.080078"/>
      <use xlink:href="#DejaVuSans-72" x="870.556641"/>
      <use xlink:href="#DejaVuSans-69" x="911.669922"/>
      <use xlink:href="#DejaVuSans-73" x="939.453125"/>
      <use xlink:href="#DejaVuSans-61" x="991.552734"/>
      <use xlink:href="#DejaVuSans-6c" x="1052.832031"/>
     </g>
    </g>
    <g id="line2d_35">
     <path d="M 524.56 98.690937 
L 534.56 98.690937 
L 544.56 98.690937 
" style="fill: none; stroke: #9467bd; stroke-width: 1.5; stroke-linecap: square"/>
    </g>
    <g id="text_24">
     <!-- Node random split -->
     <g transform="translate(552.56 102.190937)scale(0.1 -0.1)">
      <use xlink:href="#DejaVuSans-4e"/>
      <use xlink:href="#DejaVuSans-6f" x="74.804688"/>
      <use xlink:href="#DejaVuSans-64" x="135.986328"/>
      <use xlink:href="#DejaVuSans-65" x="199.462891"/>
      <use xlink:href="#DejaVuSans-20" x="260.986328"/>
      <use xlink:href="#DejaVuSans-72" x="292.773438"/>
      <use xlink:href="#DejaVuSans-61" x="333.886719"/>
      <use xlink:href="#DejaVuSans-6e" x="395.166016"/>
      <use xlink:href="#DejaVuSans-64" x="458.544922"/>
      <use xlink:href="#DejaVuSans-6f" x="522.021484"/>
      <use xlink:href="#DejaVuSans-6d" x="583.203125"/>
      <use xlink:href="#DejaVuSans-20" x="680.615234"/>
      <use xlink:href="#DejaVuSans-73" x="712.402344"/>
      <use xlink:href="#DejaVuSans-70" x="764.501953"/>
      <use xlink:href="#DejaVuSans-6c" x="827.978516"/>
      <use xlink:href="#DejaVuSans-69" x="855.761719"/>
      <use xlink:href="#DejaVuSans-74" x="883.544922"/>
     </g>
    </g>
    <g id="line2d_36">
     <path d="M 524.56 113.369062 
L 534.56 113.369062 
L 544.56 113.369062 
" style="fill: none; stroke: #8c564b; stroke-width: 1.5; stroke-linecap: square"/>
    </g>
    <g id="text_25">
     <!-- Node random split + surprisal -->
     <g transform="translate(552.56 116.869062)scale(0.1 -0.1)">
      <use xlink:href="#DejaVuSans-4e"/>
      <use xlink:href="#DejaVuSans-6f" x="74.804688"/>
      <use xlink:href="#DejaVuSans-64" x="135.986328"/>
      <use xlink:href="#DejaVuSans-65" x="199.462891"/>
      <use xlink:href="#DejaVuSans-20" x="260.986328"/>
      <use xlink:href="#DejaVuSans-72" x="292.773438"/>
      <use xlink:href="#DejaVuSans-61" x="333.886719"/>
      <use xlink:href="#DejaVuSans-6e" x="395.166016"/>
      <use xlink:href="#DejaVuSans-64" x="458.544922"/>
      <use xlink:href="#DejaVuSans-6f" x="522.021484"/>
      <use xlink:href="#DejaVuSans-6d" x="583.203125"/>
      <use xlink:href="#DejaVuSans-20" x="680.615234"/>
      <use xlink:href="#DejaVuSans-73" x="712.402344"/>
      <use xlink:href="#DejaVuSans-70" x="764.501953"/>
      <use xlink:href="#DejaVuSans-6c" x="827.978516"/>
      <use xlink:href="#DejaVuSans-69" x="855.761719"/>
      <use xlink:href="#DejaVuSans-74" x="883.544922"/>
      <use xlink:href="#DejaVuSans-20" x="922.753906"/>
      <use xlink:href="#DejaVuSans-2b" x="954.541016"/>
      <use xlink:href="#DejaVuSans-20" x="1038.330078"/>
      <use xlink:href="#DejaVuSans-73" x="1070.117188"/>
      <use xlink:href="#DejaVuSans-75" x="1122.216797"/>
      <use xlink:href="#DejaVuSans-72" x="1185.595703"/>
      <use xlink:href="#DejaVuSans-70" x="1226.708984"/>
      <use xlink:href="#DejaVuSans-72" x="1290.185547"/>
      <use xlink:href="#DejaVuSans-69" x="1331.298828"/>
      <use xlink:href="#DejaVuSans-73" x="1359.082031"/>
      <use xlink:href="#DejaVuSans-61" x="1411.181641"/>
      <use xlink:href="#DejaVuSans-6c" x="1472.460938"/>
     </g>
    </g>
    <g id="line2d_37">
     <path d="M 524.56 128.047187 
L 534.56 128.047187 
L 544.56 128.047187 
" style="fill: none; stroke: #e377c2; stroke-width: 1.5; stroke-linecap: square"/>
    </g>
    <g id="text_26">
     <!-- Interaction -->
     <g transform="translate(552.56 131.547187)scale(0.1 -0.1)">
      <use xlink:href="#DejaVuSans-49"/>
      <use xlink:href="#DejaVuSans-6e" x="29.492188"/>
      <use xlink:href="#DejaVuSans-74" x="92.871094"/>
      <use xlink:href="#DejaVuSans-65" x="132.080078"/>
      <use xlink:href="#DejaVuSans-72" x="193.603516"/>
      <use xlink:href="#DejaVuSans-61" x="234.716797"/>
      <use xlink:href="#DejaVuSans-63" x="295.996094"/>
      <use xlink:href="#DejaVuSans-74" x="350.976562"/>
      <use xlink:href="#DejaVuSans-69" x="390.185547"/>
      <use xlink:href="#DejaVuSans-6f" x="417.96875"/>
      <use xlink:href="#DejaVuSans-6e" x="479.150391"/>
     </g>
    </g>
    <g id="line2d_38">
     <path d="M 524.56 142.725312 
L 534.56 142.725312 
L 544.56 142.725312 
" style="fill: none; stroke: #7f7f7f; stroke-width: 1.5; stroke-linecap: square"/>
    </g>
    <g id="text_27">
     <!-- Node + surprisal + interaction -->
     <g transform="translate(552.56 146.225312)scale(0.1 -0.1)">
      <use xlink:href="#DejaVuSans-4e"/>
      <use xlink:href="#DejaVuSans-6f" x="74.804688"/>
      <use xlink:href="#DejaVuSans-64" x="135.986328"/>
      <use xlink:href="#DejaVuSans-65" x="199.462891"/>
      <use xlink:href="#DejaVuSans-20" x="260.986328"/>
      <use xlink:href="#DejaVuSans-2b" x="292.773438"/>
      <use xlink:href="#DejaVuSans-20" x="376.5625"/>
      <use xlink:href="#DejaVuSans-73" x="408.349609"/>
      <use xlink:href="#DejaVuSans-75" x="460.449219"/>
      <use xlink:href="#DejaVuSans-72" x="523.828125"/>
      <use xlink:href="#DejaVuSans-70" x="564.941406"/>
      <use xlink:href="#DejaVuSans-72" x="628.417969"/>
      <use xlink:href="#DejaVuSans-69" x="669.53125"/>
      <use xlink:href="#DejaVuSans-73" x="697.314453"/>
      <use xlink:href="#DejaVuSans-61" x="749.414062"/>
      <use xlink:href="#DejaVuSans-6c" x="810.693359"/>
      <use xlink:href="#DejaVuSans-20" x="838.476562"/>
      <use xlink:href="#DejaVuSans-2b" x="870.263672"/>
      <use xlink:href="#DejaVuSans-20" x="954.052734"/>
      <use xlink:href="#DejaVuSans-69" x="985.839844"/>
      <use xlink:href="#DejaVuSans-6e" x="1013.623047"/>
      <use xlink:href="#DejaVuSans-74" x="1077.001953"/>
      <use xlink:href="#DejaVuSans-65" x="1116.210938"/>
      <use xlink:href="#DejaVuSans-72" x="1177.734375"/>
      <use xlink:href="#DejaVuSans-61" x="1218.847656"/>
      <use xlink:href="#DejaVuSans-63" x="1280.126953"/>
      <use xlink:href="#DejaVuSans-74" x="1335.107422"/>
      <use xlink:href="#DejaVuSans-69" x="1374.316406"/>
      <use xlink:href="#DejaVuSans-6f" x="1402.099609"/>
      <use xlink:href="#DejaVuSans-6e" x="1463.28125"/>
     </g>
    </g>
   </g>
  </g>
 </g>
 <defs>
  <clipPath id="p8e849ff583">
   <rect x="47.72" y="26.88" width="217.495" height="147.16"/>
  </clipPath>
  <clipPath id="p5393aa8b44">
   <rect x="298.065" y="26.88" width="217.495" height="147.16"/>
  </clipPath>
 </defs>
</svg>
