<?xml version="1.0" encoding="utf-8" standalone="no"?>
<!DOCTYPE svg PUBLIC "-//W3C//DTD SVG 1.1//EN"
  "http://www.w3.org/Graphics/SVG/1.1/DTD/svg11.dtd">
<svg xmlns:xlink="http://www.w3.org/1999/xlink" width="648pt" height="288pt" viewBox="0 0 648 288" xmlns="http://www.w3.org/2000/svg" version="1.1">
 <metadata>
  <rdf:RDF xmlns:dc="http://purl.org/dc/elements/1.1/" xmlns:cc="http://creativecommons.org/ns#" xmlns:rdf="http://www.w3.org/1999/02/22-rdf-syntax-ns#">
   <cc:Work>
    <dc:type rdf:resource="http://purl.org/dc/dcmitype/StillImage"/>
    <dc:date>2024-01-16T09:26:35.116790</dc:date>
    <dc:format>image/svg+xml</dc:format>
    <dc:creator>
     <cc:Agent>
      <dc:title>Matplotlib v3.5.1, https://matplotlib.org/</dc:title>
     </cc:Agent>
    </dc:creator>
   </cc:Work>
  </rdf:RDF>
 </metadata>
 <defs>
  <style type="text/css">*{stroke-linejoin: round; stroke-linecap: butt}</style>
 </defs>
 <g id="figure_1">
  <g id="patch_1">
   <path d="M 0 288 
L 648 288 
L 648 0 
L 0 0 
z
" style="fill: #ffffff"/>
  </g>
  <g id="axes_1">
   <g id="patch_2">
    <path d="M 47.675 246.2 
L 325.1625 246.2 
L 325.1625 26.8 
L 47.675 26.8 
z
" style="fill: #ffffff"/>
   </g>
   <g id="PolyCollection_1">
    <path d="M 47.675 36.772727 
L 47.675 36.772729 
L 62.279605 38.694835 
L 76.884211 44.230085 
L 91.488816 52.088552 
L 106.093421 62.194317 
L 120.698026 74.001166 
L 135.302632 86.749194 
L 149.907237 100.156562 
L 164.511842 113.680915 
L 179.116447 127.188741 
L 193.721053 140.391203 
L 208.325658 153.183472 
L 222.930263 165.343455 
L 237.534868 176.947554 
L 252.139474 187.965288 
L 266.744079 198.302779 
L 281.348684 207.989626 
L 295.953289 216.973445 
L 310.557895 225.481364 
L 325.1625 233.339831 
L 325.1625 207.400483 
L 325.1625 207.400483 
L 310.557895 199.562107 
L 295.953289 191.121192 
L 281.348684 182.260236 
L 266.744079 172.892728 
L 252.139474 163.017151 
L 237.534868 152.728805 
L 222.930263 142.030773 
L 208.325658 130.885232 
L 193.721053 119.499559 
L 179.116447 107.94311 
L 164.511842 96.30528 
L 149.907237 84.932269 
L 135.302632 73.9876 
L 120.698026 63.835058 
L 106.093421 54.860097 
L 91.488816 47.431345 
L 76.884211 41.929207 
L 62.279605 38.007599 
L 47.675 36.772727 
z
" clip-path="url(#p133b49918e)" style="fill: #1f77b4; fill-opacity: 0.2"/>
   </g>
   <g id="PolyCollection_2">
    <path d="M 47.675 36.772968 
L 47.675 36.773082 
L 62.279605 38.001754 
L 76.884211 40.944117 
L 91.488816 45.370026 
L 106.093421 51.431951 
L 120.698026 59.044313 
L 135.302632 67.826464 
L 149.907237 77.664671 
L 164.511842 88.145233 
L 179.116447 99.29102 
L 193.721053 110.639991 
L 208.325658 122.138184 
L 222.930263 133.465245 
L 237.534868 144.658166 
L 252.139474 155.560201 
L 266.744079 165.994328 
L 281.348684 175.945287 
L 295.953289 185.374608 
L 310.557895 194.416868 
L 325.1625 202.935189 
L 325.1625 179.416905 
L 325.1625 179.416905 
L 310.557895 171.211586 
L 295.953289 162.505628 
L 281.348684 153.53615 
L 266.744079 144.131141 
L 252.139474 134.364208 
L 237.534868 124.401099 
L 222.930263 114.213996 
L 208.325658 104.030221 
L 193.721053 93.984426 
L 179.116447 84.27154 
L 164.511842 75.112393 
L 149.907237 66.624651 
L 135.302632 59.005689 
L 120.698026 52.389294 
L 106.093421 46.888963 
L 91.488816 42.618308 
L 76.884211 39.660023 
L 62.279605 37.585541 
L 47.675 36.772968 
z
" clip-path="url(#p133b49918e)" style="fill: #ff7f0e; fill-opacity: 0.2"/>
   </g>
   <g id="PolyCollection_3">
    <path d="M 47.675 36.772742 
L 47.675 36.77275 
L 62.279605 38.232568 
L 76.884211 40.9932 
L 91.488816 44.711319 
L 106.093421 49.502217 
L 120.698026 55.054073 
L 135.302632 61.009268 
L 149.907237 67.345753 
L 164.511842 73.803462 
L 179.116447 80.441589 
L 193.721053 87.022733 
L 208.325658 93.636875 
L 222.930263 100.094257 
L 237.534868 106.500387 
L 252.139474 112.838417 
L 266.744079 119.128649 
L 281.348684 125.214517 
L 295.953289 131.176185 
L 310.557895 137.087227 
L 325.1625 142.841084 
L 325.1625 124.583733 
L 325.1625 124.583733 
L 310.557895 119.211922 
L 295.953289 113.522196 
L 281.348684 107.983848 
L 266.744079 102.278367 
L 252.139474 96.548712 
L 237.534868 90.716729 
L 222.930263 84.913941 
L 208.325658 79.195506 
L 193.721053 73.503276 
L 179.116447 67.907619 
L 164.511842 62.488367 
L 149.907237 57.36704 
L 135.302632 52.592892 
L 120.698026 48.304655 
L 106.093421 44.591723 
L 91.488816 41.611658 
L 76.884211 39.446247 
L 62.279605 37.73386 
L 47.675 36.772742 
z
" clip-path="url(#p133b49918e)" style="fill: #2ca02c; fill-opacity: 0.2"/>
   </g>
   <g id="PolyCollection_4">
    <path d="M 47.675 36.774024 
L 47.675 36.774735 
L 62.279605 37.91933 
L 76.884211 39.928037 
L 91.488816 42.734171 
L 106.093421 46.504119 
L 120.698026 51.114333 
L 135.302632 56.330504 
L 149.907237 62.169037 
L 164.511842 68.382765 
L 179.116447 75.029092 
L 193.721053 81.766763 
L 208.325658 88.592705 
L 222.930263 95.277146 
L 237.534868 101.94609 
L 252.139474 108.484825 
L 266.744079 115.018505 
L 281.348684 121.37061 
L 295.953289 127.619595 
L 310.557895 133.815442 
L 325.1625 139.811758 
L 325.1625 122.001914 
L 325.1625 122.001914 
L 310.557895 116.487153 
L 295.953289 110.658436 
L 281.348684 104.960232 
L 266.744079 99.104152 
L 252.139474 93.239796 
L 237.534868 87.205567 
L 222.930263 81.236248 
L 208.325658 75.318124 
L 193.721053 69.478399 
L 179.116447 63.842196 
L 164.511842 58.556943 
L 149.907237 53.733852 
L 135.302632 49.457998 
L 120.698026 45.800386 
L 106.093421 42.767781 
L 91.488816 40.436478 
L 76.884211 38.828461 
L 62.279605 37.545043 
L 47.675 36.774024 
z
" clip-path="url(#p133b49918e)" style="fill: #d62728; fill-opacity: 0.2"/>
   </g>
   <g id="PolyCollection_5">
    <path d="M 47.675 36.772742 
L 47.675 36.77275 
L 62.279605 38.697738 
L 76.884211 44.240092 
L 91.488816 52.116982 
L 106.093421 62.243524 
L 120.698026 74.074785 
L 135.302632 86.850205 
L 149.907237 100.268173 
L 164.511842 113.858839 
L 179.116447 127.422377 
L 193.721053 140.636705 
L 208.325658 153.420464 
L 222.930263 165.654989 
L 237.534868 177.405147 
L 252.139474 188.377021 
L 266.744079 198.786854 
L 281.348684 208.423398 
L 295.953289 217.59944 
L 310.557895 226.045925 
L 325.1625 234.099299 
L 325.1625 207.931618 
L 325.1625 207.931618 
L 310.557895 200.126804 
L 295.953289 191.709907 
L 281.348684 182.597364 
L 266.744079 173.294738 
L 252.139474 163.361234 
L 237.534868 153.055126 
L 222.930263 142.334947 
L 208.325658 131.22425 
L 193.721053 119.739185 
L 179.116447 108.167365 
L 164.511842 96.48221 
L 149.907237 85.010301 
L 135.302632 74.061499 
L 120.698026 63.891266 
L 106.093421 54.901353 
L 91.488816 47.449392 
L 76.884211 41.941296 
L 62.279605 38.010041 
L 47.675 36.772742 
z
" clip-path="url(#p133b49918e)" style="fill: #9467bd; fill-opacity: 0.2"/>
   </g>
   <g id="PolyCollection_6">
    <path d="M 47.675 36.773707 
L 47.675 36.774163 
L 62.279605 38.005021 
L 76.884211 40.953045 
L 91.488816 45.392365 
L 106.093421 51.466598 
L 120.698026 59.090412 
L 135.302632 67.891522 
L 149.907237 77.734835 
L 164.511842 88.249235 
L 179.116447 99.443952 
L 193.721053 110.816008 
L 208.325658 122.340781 
L 222.930263 133.650681 
L 237.534868 144.949052 
L 252.139474 155.917424 
L 266.744079 166.317479 
L 281.348684 176.286614 
L 295.953289 185.807449 
L 310.557895 194.817758 
L 325.1625 203.478104 
L 325.1625 179.829172 
L 325.1625 179.829172 
L 310.557895 171.656685 
L 295.953289 162.963144 
L 281.348684 153.78987 
L 266.744079 144.433061 
L 252.139474 134.570289 
L 237.534868 124.636718 
L 222.930263 114.429667 
L 208.325658 104.217834 
L 193.721053 94.11247 
L 179.116447 84.385684 
L 164.511842 75.206443 
L 149.907237 66.660593 
L 135.302632 59.04711 
L 120.698026 52.416783 
L 106.093421 46.902069 
L 91.488816 42.628303 
L 76.884211 39.664803 
L 62.279605 37.587505 
L 47.675 36.773707 
z
" clip-path="url(#p133b49918e)" style="fill: #8c564b; fill-opacity: 0.2"/>
   </g>
   <g id="PolyCollection_7">
    <path d="M 47.675 36.773209 
L 47.675 36.773557 
L 62.279605 37.281961 
L 76.884211 37.772927 
L 91.488816 39.187508 
L 106.093421 42.063647 
L 120.698026 46.683864 
L 135.302632 52.979354 
L 149.907237 60.766794 
L 164.511842 69.617766 
L 179.116447 79.471124 
L 193.721053 89.797728 
L 208.325658 100.511051 
L 222.930263 111.240739 
L 237.534868 122.077455 
L 252.139474 132.804637 
L 266.744079 143.407425 
L 281.348684 153.619566 
L 295.953289 163.549193 
L 310.557895 173.17946 
L 325.1625 182.346832 
L 325.1625 155.769793 
L 325.1625 155.769793 
L 310.557895 146.514176 
L 295.953289 136.759535 
L 281.348684 126.920825 
L 266.744079 116.75734 
L 252.139474 106.527173 
L 237.534868 96.320151 
L 222.930263 86.242256 
L 208.325658 76.676863 
L 193.721053 67.67373 
L 179.116447 59.602687 
L 164.511842 52.668966 
L 149.907237 46.988495 
L 135.302632 42.723314 
L 120.698026 39.85502 
L 106.093421 38.205166 
L 91.488816 37.48114 
L 76.884211 37.296357 
L 62.279605 37.180115 
L 47.675 36.773209 
z
" clip-path="url(#p133b49918e)" style="fill: #e377c2; fill-opacity: 0.2"/>
   </g>
   <g id="matplotlib.axis_1">
    <g id="xtick_1">
     <g id="line2d_1">
      <defs>
       <path id="m79524da9b6" d="M 0 0 
L 0 3.5 
" style="stroke: #000000; stroke-width: 0.8"/>
      </defs>
      <g>
       <use xlink:href="#m79524da9b6" x="47.675" y="246.2" style="stroke: #000000; stroke-width: 0.8"/>
      </g>
     </g>
     <g id="text_1">
      <!-- 0.00 -->
      <g transform="translate(36.542188 260.798437)scale(0.1 -0.1)">
       <defs>
        <path id="DejaVuSans-30" d="M 2034 4250 
Q 1547 4250 1301 3770 
Q 1056 3291 1056 2328 
Q 1056 1369 1301 889 
Q 1547 409 2034 409 
Q 2525 409 2770 889 
Q 3016 1369 3016 2328 
Q 3016 3291 2770 3770 
Q 2525 4250 2034 4250 
z
M 2034 4750 
Q 2819 4750 3233 4129 
Q 3647 3509 3647 2328 
Q 3647 1150 3233 529 
Q 2819 -91 2034 -91 
Q 1250 -91 836 529 
Q 422 1150 422 2328 
Q 422 3509 836 4129 
Q 1250 4750 2034 4750 
z
" transform="scale(0.015625)"/>
        <path id="DejaVuSans-2e" d="M 684 794 
L 1344 794 
L 1344 0 
L 684 0 
L 684 794 
z
" transform="scale(0.015625)"/>
       </defs>
       <use xlink:href="#DejaVuSans-30"/>
       <use xlink:href="#DejaVuSans-2e" x="63.623047"/>
       <use xlink:href="#DejaVuSans-30" x="95.410156"/>
       <use xlink:href="#DejaVuSans-30" x="159.033203"/>
      </g>
     </g>
    </g>
    <g id="xtick_2">
     <g id="line2d_2">
      <g>
       <use xlink:href="#m79524da9b6" x="82.360938" y="246.2" style="stroke: #000000; stroke-width: 0.8"/>
      </g>
     </g>
     <g id="text_2">
      <!-- 0.25 -->
      <g transform="translate(71.228125 260.798437)scale(0.1 -0.1)">
       <defs>
        <path id="DejaVuSans-32" d="M 1228 531 
L 3431 531 
L 3431 0 
L 469 0 
L 469 531 
Q 828 903 1448 1529 
Q 2069 2156 2228 2338 
Q 2531 2678 2651 2914 
Q 2772 3150 2772 3378 
Q 2772 3750 2511 3984 
Q 2250 4219 1831 4219 
Q 1534 4219 1204 4116 
Q 875 4013 500 3803 
L 500 4441 
Q 881 4594 1212 4672 
Q 1544 4750 1819 4750 
Q 2544 4750 2975 4387 
Q 3406 4025 3406 3419 
Q 3406 3131 3298 2873 
Q 3191 2616 2906 2266 
Q 2828 2175 2409 1742 
Q 1991 1309 1228 531 
z
" transform="scale(0.015625)"/>
        <path id="DejaVuSans-35" d="M 691 4666 
L 3169 4666 
L 3169 4134 
L 1269 4134 
L 1269 2991 
Q 1406 3038 1543 3061 
Q 1681 3084 1819 3084 
Q 2600 3084 3056 2656 
Q 3513 2228 3513 1497 
Q 3513 744 3044 326 
Q 2575 -91 1722 -91 
Q 1428 -91 1123 -41 
Q 819 9 494 109 
L 494 744 
Q 775 591 1075 516 
Q 1375 441 1709 441 
Q 2250 441 2565 725 
Q 2881 1009 2881 1497 
Q 2881 1984 2565 2268 
Q 2250 2553 1709 2553 
Q 1456 2553 1204 2497 
Q 953 2441 691 2322 
L 691 4666 
z
" transform="scale(0.015625)"/>
       </defs>
       <use xlink:href="#DejaVuSans-30"/>
       <use xlink:href="#DejaVuSans-2e" x="63.623047"/>
       <use xlink:href="#DejaVuSans-32" x="95.410156"/>
       <use xlink:href="#DejaVuSans-35" x="159.033203"/>
      </g>
     </g>
    </g>
    <g id="xtick_3">
     <g id="line2d_3">
      <g>
       <use xlink:href="#m79524da9b6" x="117.046875" y="246.2" style="stroke: #000000; stroke-width: 0.8"/>
      </g>
     </g>
     <g id="text_3">
      <!-- 0.50 -->
      <g transform="translate(105.914062 260.798437)scale(0.1 -0.1)">
       <use xlink:href="#DejaVuSans-30"/>
       <use xlink:href="#DejaVuSans-2e" x="63.623047"/>
       <use xlink:href="#DejaVuSans-35" x="95.410156"/>
       <use xlink:href="#DejaVuSans-30" x="159.033203"/>
      </g>
     </g>
    </g>
    <g id="xtick_4">
     <g id="line2d_4">
      <g>
       <use xlink:href="#m79524da9b6" x="151.732812" y="246.2" style="stroke: #000000; stroke-width: 0.8"/>
      </g>
     </g>
     <g id="text_4">
      <!-- 0.75 -->
      <g transform="translate(140.6 260.798437)scale(0.1 -0.1)">
       <defs>
        <path id="DejaVuSans-37" d="M 525 4666 
L 3525 4666 
L 3525 4397 
L 1831 0 
L 1172 0 
L 2766 4134 
L 525 4134 
L 525 4666 
z
" transform="scale(0.015625)"/>
       </defs>
       <use xlink:href="#DejaVuSans-30"/>
       <use xlink:href="#DejaVuSans-2e" x="63.623047"/>
       <use xlink:href="#DejaVuSans-37" x="95.410156"/>
       <use xlink:href="#DejaVuSans-35" x="159.033203"/>
      </g>
     </g>
    </g>
    <g id="xtick_5">
     <g id="line2d_5">
      <g>
       <use xlink:href="#m79524da9b6" x="186.41875" y="246.2" style="stroke: #000000; stroke-width: 0.8"/>
      </g>
     </g>
     <g id="text_5">
      <!-- 1.00 -->
      <g transform="translate(175.285937 260.798437)scale(0.1 -0.1)">
       <defs>
        <path id="DejaVuSans-31" d="M 794 531 
L 1825 531 
L 1825 4091 
L 703 3866 
L 703 4441 
L 1819 4666 
L 2450 4666 
L 2450 531 
L 3481 531 
L 3481 0 
L 794 0 
L 794 531 
z
" transform="scale(0.015625)"/>
       </defs>
       <use xlink:href="#DejaVuSans-31"/>
       <use xlink:href="#DejaVuSans-2e" x="63.623047"/>
       <use xlink:href="#DejaVuSans-30" x="95.410156"/>
       <use xlink:href="#DejaVuSans-30" x="159.033203"/>
      </g>
     </g>
    </g>
    <g id="xtick_6">
     <g id="line2d_6">
      <g>
       <use xlink:href="#m79524da9b6" x="221.104687" y="246.2" style="stroke: #000000; stroke-width: 0.8"/>
      </g>
     </g>
     <g id="text_6">
      <!-- 1.25 -->
      <g transform="translate(209.971875 260.798437)scale(0.1 -0.1)">
       <use xlink:href="#DejaVuSans-31"/>
       <use xlink:href="#DejaVuSans-2e" x="63.623047"/>
       <use xlink:href="#DejaVuSans-32" x="95.410156"/>
       <use xlink:href="#DejaVuSans-35" x="159.033203"/>
      </g>
     </g>
    </g>
    <g id="xtick_7">
     <g id="line2d_7">
      <g>
       <use xlink:href="#m79524da9b6" x="255.790625" y="246.2" style="stroke: #000000; stroke-width: 0.8"/>
      </g>
     </g>
     <g id="text_7">
      <!-- 1.50 -->
      <g transform="translate(244.657812 260.798437)scale(0.1 -0.1)">
       <use xlink:href="#DejaVuSans-31"/>
       <use xlink:href="#DejaVuSans-2e" x="63.623047"/>
       <use xlink:href="#DejaVuSans-35" x="95.410156"/>
       <use xlink:href="#DejaVuSans-30" x="159.033203"/>
      </g>
     </g>
    </g>
    <g id="xtick_8">
     <g id="line2d_8">
      <g>
       <use xlink:href="#m79524da9b6" x="290.476562" y="246.2" style="stroke: #000000; stroke-width: 0.8"/>
      </g>
     </g>
     <g id="text_8">
      <!-- 1.75 -->
      <g transform="translate(279.34375 260.798437)scale(0.1 -0.1)">
       <use xlink:href="#DejaVuSans-31"/>
       <use xlink:href="#DejaVuSans-2e" x="63.623047"/>
       <use xlink:href="#DejaVuSans-37" x="95.410156"/>
       <use xlink:href="#DejaVuSans-35" x="159.033203"/>
      </g>
     </g>
    </g>
    <g id="xtick_9">
     <g id="line2d_9">
      <g>
       <use xlink:href="#m79524da9b6" x="325.1625" y="246.2" style="stroke: #000000; stroke-width: 0.8"/>
      </g>
     </g>
     <g id="text_9">
      <!-- 2.00 -->
      <g transform="translate(314.029687 260.798437)scale(0.1 -0.1)">
       <use xlink:href="#DejaVuSans-32"/>
       <use xlink:href="#DejaVuSans-2e" x="63.623047"/>
       <use xlink:href="#DejaVuSans-30" x="95.410156"/>
       <use xlink:href="#DejaVuSans-30" x="159.033203"/>
      </g>
     </g>
    </g>
    <g id="text_10">
     <!-- Influence of surprisal (multiplication) -->
     <g transform="translate(94.271875 274.476562)scale(0.1 -0.1)">
      <defs>
       <path id="DejaVuSans-49" d="M 628 4666 
L 1259 4666 
L 1259 0 
L 628 0 
L 628 4666 
z
" transform="scale(0.015625)"/>
       <path id="DejaVuSans-6e" d="M 3513 2113 
L 3513 0 
L 2938 0 
L 2938 2094 
Q 2938 2591 2744 2837 
Q 2550 3084 2163 3084 
Q 1697 3084 1428 2787 
Q 1159 2491 1159 1978 
L 1159 0 
L 581 0 
L 581 3500 
L 1159 3500 
L 1159 2956 
Q 1366 3272 1645 3428 
Q 1925 3584 2291 3584 
Q 2894 3584 3203 3211 
Q 3513 2838 3513 2113 
z
" transform="scale(0.015625)"/>
       <path id="DejaVuSans-66" d="M 2375 4863 
L 2375 4384 
L 1825 4384 
Q 1516 4384 1395 4259 
Q 1275 4134 1275 3809 
L 1275 3500 
L 2222 3500 
L 2222 3053 
L 1275 3053 
L 1275 0 
L 697 0 
L 697 3053 
L 147 3053 
L 147 3500 
L 697 3500 
L 697 3744 
Q 697 4328 969 4595 
Q 1241 4863 1831 4863 
L 2375 4863 
z
" transform="scale(0.015625)"/>
       <path id="DejaVuSans-6c" d="M 603 4863 
L 1178 4863 
L 1178 0 
L 603 0 
L 603 4863 
z
" transform="scale(0.015625)"/>
       <path id="DejaVuSans-75" d="M 544 1381 
L 544 3500 
L 1119 3500 
L 1119 1403 
Q 1119 906 1312 657 
Q 1506 409 1894 409 
Q 2359 409 2629 706 
Q 2900 1003 2900 1516 
L 2900 3500 
L 3475 3500 
L 3475 0 
L 2900 0 
L 2900 538 
Q 2691 219 2414 64 
Q 2138 -91 1772 -91 
Q 1169 -91 856 284 
Q 544 659 544 1381 
z
M 1991 3584 
L 1991 3584 
z
" transform="scale(0.015625)"/>
       <path id="DejaVuSans-65" d="M 3597 1894 
L 3597 1613 
L 953 1613 
Q 991 1019 1311 708 
Q 1631 397 2203 397 
Q 2534 397 2845 478 
Q 3156 559 3463 722 
L 3463 178 
Q 3153 47 2828 -22 
Q 2503 -91 2169 -91 
Q 1331 -91 842 396 
Q 353 884 353 1716 
Q 353 2575 817 3079 
Q 1281 3584 2069 3584 
Q 2775 3584 3186 3129 
Q 3597 2675 3597 1894 
z
M 3022 2063 
Q 3016 2534 2758 2815 
Q 2500 3097 2075 3097 
Q 1594 3097 1305 2825 
Q 1016 2553 972 2059 
L 3022 2063 
z
" transform="scale(0.015625)"/>
       <path id="DejaVuSans-63" d="M 3122 3366 
L 3122 2828 
Q 2878 2963 2633 3030 
Q 2388 3097 2138 3097 
Q 1578 3097 1268 2742 
Q 959 2388 959 1747 
Q 959 1106 1268 751 
Q 1578 397 2138 397 
Q 2388 397 2633 464 
Q 2878 531 3122 666 
L 3122 134 
Q 2881 22 2623 -34 
Q 2366 -91 2075 -91 
Q 1284 -91 818 406 
Q 353 903 353 1747 
Q 353 2603 823 3093 
Q 1294 3584 2113 3584 
Q 2378 3584 2631 3529 
Q 2884 3475 3122 3366 
z
" transform="scale(0.015625)"/>
       <path id="DejaVuSans-20" transform="scale(0.015625)"/>
       <path id="DejaVuSans-6f" d="M 1959 3097 
Q 1497 3097 1228 2736 
Q 959 2375 959 1747 
Q 959 1119 1226 758 
Q 1494 397 1959 397 
Q 2419 397 2687 759 
Q 2956 1122 2956 1747 
Q 2956 2369 2687 2733 
Q 2419 3097 1959 3097 
z
M 1959 3584 
Q 2709 3584 3137 3096 
Q 3566 2609 3566 1747 
Q 3566 888 3137 398 
Q 2709 -91 1959 -91 
Q 1206 -91 779 398 
Q 353 888 353 1747 
Q 353 2609 779 3096 
Q 1206 3584 1959 3584 
z
" transform="scale(0.015625)"/>
       <path id="DejaVuSans-73" d="M 2834 3397 
L 2834 2853 
Q 2591 2978 2328 3040 
Q 2066 3103 1784 3103 
Q 1356 3103 1142 2972 
Q 928 2841 928 2578 
Q 928 2378 1081 2264 
Q 1234 2150 1697 2047 
L 1894 2003 
Q 2506 1872 2764 1633 
Q 3022 1394 3022 966 
Q 3022 478 2636 193 
Q 2250 -91 1575 -91 
Q 1294 -91 989 -36 
Q 684 19 347 128 
L 347 722 
Q 666 556 975 473 
Q 1284 391 1588 391 
Q 1994 391 2212 530 
Q 2431 669 2431 922 
Q 2431 1156 2273 1281 
Q 2116 1406 1581 1522 
L 1381 1569 
Q 847 1681 609 1914 
Q 372 2147 372 2553 
Q 372 3047 722 3315 
Q 1072 3584 1716 3584 
Q 2034 3584 2315 3537 
Q 2597 3491 2834 3397 
z
" transform="scale(0.015625)"/>
       <path id="DejaVuSans-72" d="M 2631 2963 
Q 2534 3019 2420 3045 
Q 2306 3072 2169 3072 
Q 1681 3072 1420 2755 
Q 1159 2438 1159 1844 
L 1159 0 
L 581 0 
L 581 3500 
L 1159 3500 
L 1159 2956 
Q 1341 3275 1631 3429 
Q 1922 3584 2338 3584 
Q 2397 3584 2469 3576 
Q 2541 3569 2628 3553 
L 2631 2963 
z
" transform="scale(0.015625)"/>
       <path id="DejaVuSans-70" d="M 1159 525 
L 1159 -1331 
L 581 -1331 
L 581 3500 
L 1159 3500 
L 1159 2969 
Q 1341 3281 1617 3432 
Q 1894 3584 2278 3584 
Q 2916 3584 3314 3078 
Q 3713 2572 3713 1747 
Q 3713 922 3314 415 
Q 2916 -91 2278 -91 
Q 1894 -91 1617 61 
Q 1341 213 1159 525 
z
M 3116 1747 
Q 3116 2381 2855 2742 
Q 2594 3103 2138 3103 
Q 1681 3103 1420 2742 
Q 1159 2381 1159 1747 
Q 1159 1113 1420 752 
Q 1681 391 2138 391 
Q 2594 391 2855 752 
Q 3116 1113 3116 1747 
z
" transform="scale(0.015625)"/>
       <path id="DejaVuSans-69" d="M 603 3500 
L 1178 3500 
L 1178 0 
L 603 0 
L 603 3500 
z
M 603 4863 
L 1178 4863 
L 1178 4134 
L 603 4134 
L 603 4863 
z
" transform="scale(0.015625)"/>
       <path id="DejaVuSans-61" d="M 2194 1759 
Q 1497 1759 1228 1600 
Q 959 1441 959 1056 
Q 959 750 1161 570 
Q 1363 391 1709 391 
Q 2188 391 2477 730 
Q 2766 1069 2766 1631 
L 2766 1759 
L 2194 1759 
z
M 3341 1997 
L 3341 0 
L 2766 0 
L 2766 531 
Q 2569 213 2275 61 
Q 1981 -91 1556 -91 
Q 1019 -91 701 211 
Q 384 513 384 1019 
Q 384 1609 779 1909 
Q 1175 2209 1959 2209 
L 2766 2209 
L 2766 2266 
Q 2766 2663 2505 2880 
Q 2244 3097 1772 3097 
Q 1472 3097 1187 3025 
Q 903 2953 641 2809 
L 641 3341 
Q 956 3463 1253 3523 
Q 1550 3584 1831 3584 
Q 2591 3584 2966 3190 
Q 3341 2797 3341 1997 
z
" transform="scale(0.015625)"/>
       <path id="DejaVuSans-28" d="M 1984 4856 
Q 1566 4138 1362 3434 
Q 1159 2731 1159 2009 
Q 1159 1288 1364 580 
Q 1569 -128 1984 -844 
L 1484 -844 
Q 1016 -109 783 600 
Q 550 1309 550 2009 
Q 550 2706 781 3412 
Q 1013 4119 1484 4856 
L 1984 4856 
z
" transform="scale(0.015625)"/>
       <path id="DejaVuSans-6d" d="M 3328 2828 
Q 3544 3216 3844 3400 
Q 4144 3584 4550 3584 
Q 5097 3584 5394 3201 
Q 5691 2819 5691 2113 
L 5691 0 
L 5113 0 
L 5113 2094 
Q 5113 2597 4934 2840 
Q 4756 3084 4391 3084 
Q 3944 3084 3684 2787 
Q 3425 2491 3425 1978 
L 3425 0 
L 2847 0 
L 2847 2094 
Q 2847 2600 2669 2842 
Q 2491 3084 2119 3084 
Q 1678 3084 1418 2786 
Q 1159 2488 1159 1978 
L 1159 0 
L 581 0 
L 581 3500 
L 1159 3500 
L 1159 2956 
Q 1356 3278 1631 3431 
Q 1906 3584 2284 3584 
Q 2666 3584 2933 3390 
Q 3200 3197 3328 2828 
z
" transform="scale(0.015625)"/>
       <path id="DejaVuSans-74" d="M 1172 4494 
L 1172 3500 
L 2356 3500 
L 2356 3053 
L 1172 3053 
L 1172 1153 
Q 1172 725 1289 603 
Q 1406 481 1766 481 
L 2356 481 
L 2356 0 
L 1766 0 
Q 1100 0 847 248 
Q 594 497 594 1153 
L 594 3053 
L 172 3053 
L 172 3500 
L 594 3500 
L 594 4494 
L 1172 4494 
z
" transform="scale(0.015625)"/>
       <path id="DejaVuSans-29" d="M 513 4856 
L 1013 4856 
Q 1481 4119 1714 3412 
Q 1947 2706 1947 2009 
Q 1947 1309 1714 600 
Q 1481 -109 1013 -844 
L 513 -844 
Q 928 -128 1133 580 
Q 1338 1288 1338 2009 
Q 1338 2731 1133 3434 
Q 928 4138 513 4856 
z
" transform="scale(0.015625)"/>
      </defs>
      <use xlink:href="#DejaVuSans-49"/>
      <use xlink:href="#DejaVuSans-6e" x="29.492188"/>
      <use xlink:href="#DejaVuSans-66" x="92.871094"/>
      <use xlink:href="#DejaVuSans-6c" x="128.076172"/>
      <use xlink:href="#DejaVuSans-75" x="155.859375"/>
      <use xlink:href="#DejaVuSans-65" x="219.238281"/>
      <use xlink:href="#DejaVuSans-6e" x="280.761719"/>
      <use xlink:href="#DejaVuSans-63" x="344.140625"/>
      <use xlink:href="#DejaVuSans-65" x="399.121094"/>
      <use xlink:href="#DejaVuSans-20" x="460.644531"/>
      <use xlink:href="#DejaVuSans-6f" x="492.431641"/>
      <use xlink:href="#DejaVuSans-66" x="553.613281"/>
      <use xlink:href="#DejaVuSans-20" x="588.818359"/>
      <use xlink:href="#DejaVuSans-73" x="620.605469"/>
      <use xlink:href="#DejaVuSans-75" x="672.705078"/>
      <use xlink:href="#DejaVuSans-72" x="736.083984"/>
      <use xlink:href="#DejaVuSans-70" x="777.197266"/>
      <use xlink:href="#DejaVuSans-72" x="840.673828"/>
      <use xlink:href="#DejaVuSans-69" x="881.787109"/>
      <use xlink:href="#DejaVuSans-73" x="909.570312"/>
      <use xlink:href="#DejaVuSans-61" x="961.669922"/>
      <use xlink:href="#DejaVuSans-6c" x="1022.949219"/>
      <use xlink:href="#DejaVuSans-20" x="1050.732422"/>
      <use xlink:href="#DejaVuSans-28" x="1082.519531"/>
      <use xlink:href="#DejaVuSans-6d" x="1121.533203"/>
      <use xlink:href="#DejaVuSans-75" x="1218.945312"/>
      <use xlink:href="#DejaVuSans-6c" x="1282.324219"/>
      <use xlink:href="#DejaVuSans-74" x="1310.107422"/>
      <use xlink:href="#DejaVuSans-69" x="1349.316406"/>
      <use xlink:href="#DejaVuSans-70" x="1377.099609"/>
      <use xlink:href="#DejaVuSans-6c" x="1440.576172"/>
      <use xlink:href="#DejaVuSans-69" x="1468.359375"/>
      <use xlink:href="#DejaVuSans-63" x="1496.142578"/>
      <use xlink:href="#DejaVuSans-61" x="1551.123047"/>
      <use xlink:href="#DejaVuSans-74" x="1612.402344"/>
      <use xlink:href="#DejaVuSans-69" x="1651.611328"/>
      <use xlink:href="#DejaVuSans-6f" x="1679.394531"/>
      <use xlink:href="#DejaVuSans-6e" x="1740.576172"/>
      <use xlink:href="#DejaVuSans-29" x="1803.955078"/>
     </g>
    </g>
   </g>
   <g id="matplotlib.axis_2">
    <g id="ytick_1">
     <g id="line2d_10">
      <defs>
       <path id="mdbc4007fd7" d="M 0 0 
L -3.5 0 
" style="stroke: #000000; stroke-width: 0.8"/>
      </defs>
      <g>
       <use xlink:href="#mdbc4007fd7" x="47.675" y="220.91163" style="stroke: #000000; stroke-width: 0.8"/>
      </g>
     </g>
     <g id="text_11">
      <!-- 0.4 -->
      <g transform="translate(24.771875 224.710849)scale(0.1 -0.1)">
       <defs>
        <path id="DejaVuSans-34" d="M 2419 4116 
L 825 1625 
L 2419 1625 
L 2419 4116 
z
M 2253 4666 
L 3047 4666 
L 3047 1625 
L 3713 1625 
L 3713 1100 
L 3047 1100 
L 3047 0 
L 2419 0 
L 2419 1100 
L 313 1100 
L 313 1709 
L 2253 4666 
z
" transform="scale(0.015625)"/>
       </defs>
       <use xlink:href="#DejaVuSans-30"/>
       <use xlink:href="#DejaVuSans-2e" x="63.623047"/>
       <use xlink:href="#DejaVuSans-34" x="95.410156"/>
      </g>
     </g>
    </g>
    <g id="ytick_2">
     <g id="line2d_11">
      <g>
       <use xlink:href="#mdbc4007fd7" x="47.675" y="190.221812" style="stroke: #000000; stroke-width: 0.8"/>
      </g>
     </g>
     <g id="text_12">
      <!-- 0.5 -->
      <g transform="translate(24.771875 194.021031)scale(0.1 -0.1)">
       <use xlink:href="#DejaVuSans-30"/>
       <use xlink:href="#DejaVuSans-2e" x="63.623047"/>
       <use xlink:href="#DejaVuSans-35" x="95.410156"/>
      </g>
     </g>
    </g>
    <g id="ytick_3">
     <g id="line2d_12">
      <g>
       <use xlink:href="#mdbc4007fd7" x="47.675" y="159.531994" style="stroke: #000000; stroke-width: 0.8"/>
      </g>
     </g>
     <g id="text_13">
      <!-- 0.6 -->
      <g transform="translate(24.771875 163.331213)scale(0.1 -0.1)">
       <defs>
        <path id="DejaVuSans-36" d="M 2113 2584 
Q 1688 2584 1439 2293 
Q 1191 2003 1191 1497 
Q 1191 994 1439 701 
Q 1688 409 2113 409 
Q 2538 409 2786 701 
Q 3034 994 3034 1497 
Q 3034 2003 2786 2293 
Q 2538 2584 2113 2584 
z
M 3366 4563 
L 3366 3988 
Q 3128 4100 2886 4159 
Q 2644 4219 2406 4219 
Q 1781 4219 1451 3797 
Q 1122 3375 1075 2522 
Q 1259 2794 1537 2939 
Q 1816 3084 2150 3084 
Q 2853 3084 3261 2657 
Q 3669 2231 3669 1497 
Q 3669 778 3244 343 
Q 2819 -91 2113 -91 
Q 1303 -91 875 529 
Q 447 1150 447 2328 
Q 447 3434 972 4092 
Q 1497 4750 2381 4750 
Q 2619 4750 2861 4703 
Q 3103 4656 3366 4563 
z
" transform="scale(0.015625)"/>
       </defs>
       <use xlink:href="#DejaVuSans-30"/>
       <use xlink:href="#DejaVuSans-2e" x="63.623047"/>
       <use xlink:href="#DejaVuSans-36" x="95.410156"/>
      </g>
     </g>
    </g>
    <g id="ytick_4">
     <g id="line2d_13">
      <g>
       <use xlink:href="#mdbc4007fd7" x="47.675" y="128.842176" style="stroke: #000000; stroke-width: 0.8"/>
      </g>
     </g>
     <g id="text_14">
      <!-- 0.7 -->
      <g transform="translate(24.771875 132.641395)scale(0.1 -0.1)">
       <use xlink:href="#DejaVuSans-30"/>
       <use xlink:href="#DejaVuSans-2e" x="63.623047"/>
       <use xlink:href="#DejaVuSans-37" x="95.410156"/>
      </g>
     </g>
    </g>
    <g id="ytick_5">
     <g id="line2d_14">
      <g>
       <use xlink:href="#mdbc4007fd7" x="47.675" y="98.152358" style="stroke: #000000; stroke-width: 0.8"/>
      </g>
     </g>
     <g id="text_15">
      <!-- 0.8 -->
      <g transform="translate(24.771875 101.951577)scale(0.1 -0.1)">
       <defs>
        <path id="DejaVuSans-38" d="M 2034 2216 
Q 1584 2216 1326 1975 
Q 1069 1734 1069 1313 
Q 1069 891 1326 650 
Q 1584 409 2034 409 
Q 2484 409 2743 651 
Q 3003 894 3003 1313 
Q 3003 1734 2745 1975 
Q 2488 2216 2034 2216 
z
M 1403 2484 
Q 997 2584 770 2862 
Q 544 3141 544 3541 
Q 544 4100 942 4425 
Q 1341 4750 2034 4750 
Q 2731 4750 3128 4425 
Q 3525 4100 3525 3541 
Q 3525 3141 3298 2862 
Q 3072 2584 2669 2484 
Q 3125 2378 3379 2068 
Q 3634 1759 3634 1313 
Q 3634 634 3220 271 
Q 2806 -91 2034 -91 
Q 1263 -91 848 271 
Q 434 634 434 1313 
Q 434 1759 690 2068 
Q 947 2378 1403 2484 
z
M 1172 3481 
Q 1172 3119 1398 2916 
Q 1625 2713 2034 2713 
Q 2441 2713 2670 2916 
Q 2900 3119 2900 3481 
Q 2900 3844 2670 4047 
Q 2441 4250 2034 4250 
Q 1625 4250 1398 4047 
Q 1172 3844 1172 3481 
z
" transform="scale(0.015625)"/>
       </defs>
       <use xlink:href="#DejaVuSans-30"/>
       <use xlink:href="#DejaVuSans-2e" x="63.623047"/>
       <use xlink:href="#DejaVuSans-38" x="95.410156"/>
      </g>
     </g>
    </g>
    <g id="ytick_6">
     <g id="line2d_15">
      <g>
       <use xlink:href="#mdbc4007fd7" x="47.675" y="67.46254" style="stroke: #000000; stroke-width: 0.8"/>
      </g>
     </g>
     <g id="text_16">
      <!-- 0.9 -->
      <g transform="translate(24.771875 71.261759)scale(0.1 -0.1)">
       <defs>
        <path id="DejaVuSans-39" d="M 703 97 
L 703 672 
Q 941 559 1184 500 
Q 1428 441 1663 441 
Q 2288 441 2617 861 
Q 2947 1281 2994 2138 
Q 2813 1869 2534 1725 
Q 2256 1581 1919 1581 
Q 1219 1581 811 2004 
Q 403 2428 403 3163 
Q 403 3881 828 4315 
Q 1253 4750 1959 4750 
Q 2769 4750 3195 4129 
Q 3622 3509 3622 2328 
Q 3622 1225 3098 567 
Q 2575 -91 1691 -91 
Q 1453 -91 1209 -44 
Q 966 3 703 97 
z
M 1959 2075 
Q 2384 2075 2632 2365 
Q 2881 2656 2881 3163 
Q 2881 3666 2632 3958 
Q 2384 4250 1959 4250 
Q 1534 4250 1286 3958 
Q 1038 3666 1038 3163 
Q 1038 2656 1286 2365 
Q 1534 2075 1959 2075 
z
" transform="scale(0.015625)"/>
       </defs>
       <use xlink:href="#DejaVuSans-30"/>
       <use xlink:href="#DejaVuSans-2e" x="63.623047"/>
       <use xlink:href="#DejaVuSans-39" x="95.410156"/>
      </g>
     </g>
    </g>
    <g id="ytick_7">
     <g id="line2d_16">
      <g>
       <use xlink:href="#mdbc4007fd7" x="47.675" y="36.772722" style="stroke: #000000; stroke-width: 0.8"/>
      </g>
     </g>
     <g id="text_17">
      <!-- 1.0 -->
      <g transform="translate(24.771875 40.571941)scale(0.1 -0.1)">
       <use xlink:href="#DejaVuSans-31"/>
       <use xlink:href="#DejaVuSans-2e" x="63.623047"/>
       <use xlink:href="#DejaVuSans-30" x="95.410156"/>
      </g>
     </g>
    </g>
    <g id="text_18">
     <!-- R-value -->
     <g transform="translate(18.692188 155.104687)rotate(-90)scale(0.1 -0.1)">
      <defs>
       <path id="DejaVuSans-52" d="M 2841 2188 
Q 3044 2119 3236 1894 
Q 3428 1669 3622 1275 
L 4263 0 
L 3584 0 
L 2988 1197 
Q 2756 1666 2539 1819 
Q 2322 1972 1947 1972 
L 1259 1972 
L 1259 0 
L 628 0 
L 628 4666 
L 2053 4666 
Q 2853 4666 3247 4331 
Q 3641 3997 3641 3322 
Q 3641 2881 3436 2590 
Q 3231 2300 2841 2188 
z
M 1259 4147 
L 1259 2491 
L 2053 2491 
Q 2509 2491 2742 2702 
Q 2975 2913 2975 3322 
Q 2975 3731 2742 3939 
Q 2509 4147 2053 4147 
L 1259 4147 
z
" transform="scale(0.015625)"/>
       <path id="DejaVuSans-2d" d="M 313 2009 
L 1997 2009 
L 1997 1497 
L 313 1497 
L 313 2009 
z
" transform="scale(0.015625)"/>
       <path id="DejaVuSans-76" d="M 191 3500 
L 800 3500 
L 1894 563 
L 2988 3500 
L 3597 3500 
L 2284 0 
L 1503 0 
L 191 3500 
z
" transform="scale(0.015625)"/>
      </defs>
      <use xlink:href="#DejaVuSans-52"/>
      <use xlink:href="#DejaVuSans-2d" x="65.482422"/>
      <use xlink:href="#DejaVuSans-76" x="98.941406"/>
      <use xlink:href="#DejaVuSans-61" x="158.121094"/>
      <use xlink:href="#DejaVuSans-6c" x="219.400391"/>
      <use xlink:href="#DejaVuSans-75" x="247.183594"/>
      <use xlink:href="#DejaVuSans-65" x="310.5625"/>
     </g>
    </g>
   </g>
   <g id="line2d_17">
    <path d="M 47.675 36.772728 
L 62.279605 38.351217 
L 76.884211 43.079646 
L 91.488816 49.759949 
L 106.093421 58.527207 
L 120.698026 68.918112 
L 135.302632 80.368397 
L 149.907237 92.544416 
L 164.511842 104.993098 
L 179.116447 117.565926 
L 193.721053 129.945381 
L 208.325658 142.034352 
L 222.930263 153.687114 
L 237.534868 164.83818 
L 252.139474 175.49122 
L 266.744079 185.597753 
L 281.348684 195.124931 
L 295.953289 204.047318 
L 310.557895 212.521735 
L 325.1625 220.370157 
" clip-path="url(#p133b49918e)" style="fill: none; stroke: #1f77b4; stroke-width: 1.5; stroke-linecap: square"/>
   </g>
   <g id="line2d_18">
    <path d="M 47.675 36.773025 
L 62.279605 37.793647 
L 76.884211 40.30207 
L 91.488816 43.994167 
L 106.093421 49.160457 
L 120.698026 55.716804 
L 135.302632 63.416076 
L 149.907237 72.144661 
L 164.511842 81.628813 
L 179.116447 91.78128 
L 193.721053 102.312208 
L 208.325658 113.084202 
L 222.930263 123.839621 
L 237.534868 134.529632 
L 252.139474 144.962204 
L 266.744079 155.062734 
L 281.348684 164.740719 
L 295.953289 173.940118 
L 310.557895 182.814227 
L 325.1625 191.176047 
" clip-path="url(#p133b49918e)" style="fill: none; stroke: #ff7f0e; stroke-width: 1.5; stroke-linecap: square"/>
   </g>
   <g id="line2d_19">
    <path d="M 47.675 36.772746 
L 62.279605 37.983214 
L 76.884211 40.219723 
L 91.488816 43.161488 
L 106.093421 47.04697 
L 120.698026 51.679364 
L 135.302632 56.80108 
L 149.907237 62.356396 
L 164.511842 68.145914 
L 179.116447 74.174604 
L 193.721053 80.263004 
L 208.325658 86.416191 
L 222.930263 92.504099 
L 237.534868 98.608558 
L 252.139474 104.693565 
L 266.744079 110.703508 
L 281.348684 116.599183 
L 295.953289 122.34919 
L 310.557895 128.149575 
L 325.1625 133.712408 
" clip-path="url(#p133b49918e)" style="fill: none; stroke: #2ca02c; stroke-width: 1.5; stroke-linecap: square"/>
   </g>
   <g id="line2d_20">
    <path d="M 47.675 36.77438 
L 62.279605 37.732186 
L 76.884211 39.378249 
L 91.488816 41.585325 
L 106.093421 44.63595 
L 120.698026 48.457359 
L 135.302632 52.894251 
L 149.907237 57.951445 
L 164.511842 63.469854 
L 179.116447 69.435644 
L 193.721053 75.622581 
L 208.325658 81.955415 
L 222.930263 88.256697 
L 237.534868 94.575829 
L 252.139474 100.86231 
L 266.744079 107.061329 
L 281.348684 113.165421 
L 295.953289 119.139016 
L 310.557895 125.151298 
L 325.1625 130.906836 
" clip-path="url(#p133b49918e)" style="fill: none; stroke: #d62728; stroke-width: 1.5; stroke-linecap: square"/>
   </g>
   <g id="line2d_21">
    <path d="M 47.675 36.772746 
L 62.279605 38.35389 
L 76.884211 43.090694 
L 91.488816 49.783187 
L 106.093421 58.572438 
L 120.698026 68.983025 
L 135.302632 80.455852 
L 149.907237 92.639237 
L 164.511842 105.170525 
L 179.116447 117.794871 
L 193.721053 130.187945 
L 208.325658 142.322357 
L 222.930263 153.994968 
L 237.534868 165.230137 
L 252.139474 175.869127 
L 266.744079 186.040796 
L 281.348684 195.510381 
L 295.953289 204.654673 
L 310.557895 213.086365 
L 325.1625 221.015458 
" clip-path="url(#p133b49918e)" style="fill: none; stroke: #9467bd; stroke-width: 1.5; stroke-linecap: square"/>
   </g>
   <g id="line2d_22">
    <path d="M 47.675 36.773935 
L 62.279605 37.796263 
L 76.884211 40.308924 
L 91.488816 44.010334 
L 106.093421 49.184333 
L 120.698026 55.753598 
L 135.302632 63.469316 
L 149.907237 72.197714 
L 164.511842 81.727839 
L 179.116447 91.914818 
L 193.721053 102.464239 
L 208.325658 113.279308 
L 222.930263 124.040174 
L 237.534868 134.792885 
L 252.139474 145.243857 
L 266.744079 155.37527 
L 281.348684 165.038242 
L 295.953289 174.385296 
L 310.557895 183.237222 
L 325.1625 191.653638 
" clip-path="url(#p133b49918e)" style="fill: none; stroke: #8c564b; stroke-width: 1.5; stroke-linecap: square"/>
   </g>
   <g id="line2d_23">
    <path d="M 47.675 36.773383 
L 62.279605 37.231038 
L 76.884211 37.534642 
L 91.488816 38.334324 
L 106.093421 40.134406 
L 120.698026 43.269442 
L 135.302632 47.851334 
L 149.907237 53.877645 
L 164.511842 61.143366 
L 179.116447 69.536906 
L 193.721053 78.735729 
L 208.325658 88.593957 
L 222.930263 98.741498 
L 237.534868 109.198803 
L 252.139474 119.665905 
L 266.744079 130.082383 
L 281.348684 140.270196 
L 295.953289 150.154364 
L 310.557895 159.846818 
L 325.1625 169.058313 
" clip-path="url(#p133b49918e)" style="fill: none; stroke: #e377c2; stroke-width: 1.5; stroke-linecap: square"/>
   </g>
   <g id="patch_3">
    <path d="M 47.675 246.2 
L 47.675 26.8 
" style="fill: none; stroke: #000000; stroke-width: 0.8; stroke-linejoin: miter; stroke-linecap: square"/>
   </g>
   <g id="patch_4">
    <path d="M 47.675 246.2 
L 325.1625 246.2 
" style="fill: none; stroke: #000000; stroke-width: 0.8; stroke-linejoin: miter; stroke-linecap: square"/>
   </g>
   <g id="text_19">
    <!-- Node * surprisal -->
    <g transform="translate(138.1375 20.8)scale(0.12 -0.12)">
     <defs>
      <path id="DejaVuSans-4e" d="M 628 4666 
L 1478 4666 
L 3547 763 
L 3547 4666 
L 4159 4666 
L 4159 0 
L 3309 0 
L 1241 3903 
L 1241 0 
L 628 0 
L 628 4666 
z
" transform="scale(0.015625)"/>
      <path id="DejaVuSans-64" d="M 2906 2969 
L 2906 4863 
L 3481 4863 
L 3481 0 
L 2906 0 
L 2906 525 
Q 2725 213 2448 61 
Q 2172 -91 1784 -91 
Q 1150 -91 751 415 
Q 353 922 353 1747 
Q 353 2572 751 3078 
Q 1150 3584 1784 3584 
Q 2172 3584 2448 3432 
Q 2725 3281 2906 2969 
z
M 947 1747 
Q 947 1113 1208 752 
Q 1469 391 1925 391 
Q 2381 391 2643 752 
Q 2906 1113 2906 1747 
Q 2906 2381 2643 2742 
Q 2381 3103 1925 3103 
Q 1469 3103 1208 2742 
Q 947 2381 947 1747 
z
" transform="scale(0.015625)"/>
      <path id="DejaVuSans-2a" d="M 3009 3897 
L 1888 3291 
L 3009 2681 
L 2828 2375 
L 1778 3009 
L 1778 1831 
L 1422 1831 
L 1422 3009 
L 372 2375 
L 191 2681 
L 1313 3291 
L 191 3897 
L 372 4206 
L 1422 3572 
L 1422 4750 
L 1778 4750 
L 1778 3572 
L 2828 4206 
L 3009 3897 
z
" transform="scale(0.015625)"/>
     </defs>
     <use xlink:href="#DejaVuSans-4e"/>
     <use xlink:href="#DejaVuSans-6f" x="74.804688"/>
     <use xlink:href="#DejaVuSans-64" x="135.986328"/>
     <use xlink:href="#DejaVuSans-65" x="199.462891"/>
     <use xlink:href="#DejaVuSans-20" x="260.986328"/>
     <use xlink:href="#DejaVuSans-2a" x="292.773438"/>
     <use xlink:href="#DejaVuSans-20" x="342.773438"/>
     <use xlink:href="#DejaVuSans-73" x="374.560547"/>
     <use xlink:href="#DejaVuSans-75" x="426.660156"/>
     <use xlink:href="#DejaVuSans-72" x="490.039062"/>
     <use xlink:href="#DejaVuSans-70" x="531.152344"/>
     <use xlink:href="#DejaVuSans-72" x="594.628906"/>
     <use xlink:href="#DejaVuSans-69" x="635.742188"/>
     <use xlink:href="#DejaVuSans-73" x="663.525391"/>
     <use xlink:href="#DejaVuSans-61" x="715.625"/>
     <use xlink:href="#DejaVuSans-6c" x="776.904297"/>
    </g>
   </g>
   <g id="legend_1">
    <g id="line2d_24">
     <path d="M 56.675 143.551562 
L 66.675 143.551562 
L 76.675 143.551562 
" style="fill: none; stroke: #1f77b4; stroke-width: 1.5; stroke-linecap: square"/>
    </g>
    <g id="text_20">
     <!-- Node -->
     <g transform="translate(84.675 147.051562)scale(0.1 -0.1)">
      <use xlink:href="#DejaVuSans-4e"/>
      <use xlink:href="#DejaVuSans-6f" x="74.804688"/>
      <use xlink:href="#DejaVuSans-64" x="135.986328"/>
      <use xlink:href="#DejaVuSans-65" x="199.462891"/>
     </g>
    </g>
    <g id="line2d_25">
     <path d="M 56.675 158.229688 
L 66.675 158.229688 
L 76.675 158.229688 
" style="fill: none; stroke: #ff7f0e; stroke-width: 1.5; stroke-linecap: square"/>
    </g>
    <g id="text_21">
     <!-- Node + surprisal -->
     <g transform="translate(84.675 161.729688)scale(0.1 -0.1)">
      <defs>
       <path id="DejaVuSans-2b" d="M 2944 4013 
L 2944 2272 
L 4684 2272 
L 4684 1741 
L 2944 1741 
L 2944 0 
L 2419 0 
L 2419 1741 
L 678 1741 
L 678 2272 
L 2419 2272 
L 2419 4013 
L 2944 4013 
z
" transform="scale(0.015625)"/>
      </defs>
      <use xlink:href="#DejaVuSans-4e"/>
      <use xlink:href="#DejaVuSans-6f" x="74.804688"/>
      <use xlink:href="#DejaVuSans-64" x="135.986328"/>
      <use xlink:href="#DejaVuSans-65" x="199.462891"/>
      <use xlink:href="#DejaVuSans-20" x="260.986328"/>
      <use xlink:href="#DejaVuSans-2b" x="292.773438"/>
      <use xlink:href="#DejaVuSans-20" x="376.5625"/>
      <use xlink:href="#DejaVuSans-73" x="408.349609"/>
      <use xlink:href="#DejaVuSans-75" x="460.449219"/>
      <use xlink:href="#DejaVuSans-72" x="523.828125"/>
      <use xlink:href="#DejaVuSans-70" x="564.941406"/>
      <use xlink:href="#DejaVuSans-72" x="628.417969"/>
      <use xlink:href="#DejaVuSans-69" x="669.53125"/>
      <use xlink:href="#DejaVuSans-73" x="697.314453"/>
      <use xlink:href="#DejaVuSans-61" x="749.414062"/>
      <use xlink:href="#DejaVuSans-6c" x="810.693359"/>
     </g>
    </g>
    <g id="line2d_26">
     <path d="M 56.675 172.907812 
L 66.675 172.907812 
L 76.675 172.907812 
" style="fill: none; stroke: #2ca02c; stroke-width: 1.5; stroke-linecap: square"/>
    </g>
    <g id="text_22">
     <!-- Node split -->
     <g transform="translate(84.675 176.407812)scale(0.1 -0.1)">
      <use xlink:href="#DejaVuSans-4e"/>
      <use xlink:href="#DejaVuSans-6f" x="74.804688"/>
      <use xlink:href="#DejaVuSans-64" x="135.986328"/>
      <use xlink:href="#DejaVuSans-65" x="199.462891"/>
      <use xlink:href="#DejaVuSans-20" x="260.986328"/>
      <use xlink:href="#DejaVuSans-73" x="292.773438"/>
      <use xlink:href="#DejaVuSans-70" x="344.873047"/>
      <use xlink:href="#DejaVuSans-6c" x="408.349609"/>
      <use xlink:href="#DejaVuSans-69" x="436.132812"/>
      <use xlink:href="#DejaVuSans-74" x="463.916016"/>
     </g>
    </g>
    <g id="line2d_27">
     <path d="M 56.675 187.585938 
L 66.675 187.585938 
L 76.675 187.585938 
" style="fill: none; stroke: #d62728; stroke-width: 1.5; stroke-linecap: square"/>
    </g>
    <g id="text_23">
     <!-- Node split + surprisal -->
     <g transform="translate(84.675 191.085938)scale(0.1 -0.1)">
      <use xlink:href="#DejaVuSans-4e"/>
      <use xlink:href="#DejaVuSans-6f" x="74.804688"/>
      <use xlink:href="#DejaVuSans-64" x="135.986328"/>
      <use xlink:href="#DejaVuSans-65" x="199.462891"/>
      <use xlink:href="#DejaVuSans-20" x="260.986328"/>
      <use xlink:href="#DejaVuSans-73" x="292.773438"/>
      <use xlink:href="#DejaVuSans-70" x="344.873047"/>
      <use xlink:href="#DejaVuSans-6c" x="408.349609"/>
      <use xlink:href="#DejaVuSans-69" x="436.132812"/>
      <use xlink:href="#DejaVuSans-74" x="463.916016"/>
      <use xlink:href="#DejaVuSans-20" x="503.125"/>
      <use xlink:href="#DejaVuSans-2b" x="534.912109"/>
      <use xlink:href="#DejaVuSans-20" x="618.701172"/>
      <use xlink:href="#DejaVuSans-73" x="650.488281"/>
      <use xlink:href="#DejaVuSans-75" x="702.587891"/>
      <use xlink:href="#DejaVuSans-72" x="765.966797"/>
      <use xlink:href="#DejaVuSans-70" x="807.080078"/>
      <use xlink:href="#DejaVuSans-72" x="870.556641"/>
      <use xlink:href="#DejaVuSans-69" x="911.669922"/>
      <use xlink:href="#DejaVuSans-73" x="939.453125"/>
      <use xlink:href="#DejaVuSans-61" x="991.552734"/>
      <use xlink:href="#DejaVuSans-6c" x="1052.832031"/>
     </g>
    </g>
    <g id="line2d_28">
     <path d="M 56.675 202.264062 
L 66.675 202.264062 
L 76.675 202.264062 
" style="fill: none; stroke: #9467bd; stroke-width: 1.5; stroke-linecap: square"/>
    </g>
    <g id="text_24">
     <!-- Node random split -->
     <g transform="translate(84.675 205.764062)scale(0.1 -0.1)">
      <use xlink:href="#DejaVuSans-4e"/>
      <use xlink:href="#DejaVuSans-6f" x="74.804688"/>
      <use xlink:href="#DejaVuSans-64" x="135.986328"/>
      <use xlink:href="#DejaVuSans-65" x="199.462891"/>
      <use xlink:href="#DejaVuSans-20" x="260.986328"/>
      <use xlink:href="#DejaVuSans-72" x="292.773438"/>
      <use xlink:href="#DejaVuSans-61" x="333.886719"/>
      <use xlink:href="#DejaVuSans-6e" x="395.166016"/>
      <use xlink:href="#DejaVuSans-64" x="458.544922"/>
      <use xlink:href="#DejaVuSans-6f" x="522.021484"/>
      <use xlink:href="#DejaVuSans-6d" x="583.203125"/>
      <use xlink:href="#DejaVuSans-20" x="680.615234"/>
      <use xlink:href="#DejaVuSans-73" x="712.402344"/>
      <use xlink:href="#DejaVuSans-70" x="764.501953"/>
      <use xlink:href="#DejaVuSans-6c" x="827.978516"/>
      <use xlink:href="#DejaVuSans-69" x="855.761719"/>
      <use xlink:href="#DejaVuSans-74" x="883.544922"/>
     </g>
    </g>
    <g id="line2d_29">
     <path d="M 56.675 216.942187 
L 66.675 216.942187 
L 76.675 216.942187 
" style="fill: none; stroke: #8c564b; stroke-width: 1.5; stroke-linecap: square"/>
    </g>
    <g id="text_25">
     <!-- Node random split + surprisal -->
     <g transform="translate(84.675 220.442187)scale(0.1 -0.1)">
      <use xlink:href="#DejaVuSans-4e"/>
      <use xlink:href="#DejaVuSans-6f" x="74.804688"/>
      <use xlink:href="#DejaVuSans-64" x="135.986328"/>
      <use xlink:href="#DejaVuSans-65" x="199.462891"/>
      <use xlink:href="#DejaVuSans-20" x="260.986328"/>
      <use xlink:href="#DejaVuSans-72" x="292.773438"/>
      <use xlink:href="#DejaVuSans-61" x="333.886719"/>
      <use xlink:href="#DejaVuSans-6e" x="395.166016"/>
      <use xlink:href="#DejaVuSans-64" x="458.544922"/>
      <use xlink:href="#DejaVuSans-6f" x="522.021484"/>
      <use xlink:href="#DejaVuSans-6d" x="583.203125"/>
      <use xlink:href="#DejaVuSans-20" x="680.615234"/>
      <use xlink:href="#DejaVuSans-73" x="712.402344"/>
      <use xlink:href="#DejaVuSans-70" x="764.501953"/>
      <use xlink:href="#DejaVuSans-6c" x="827.978516"/>
      <use xlink:href="#DejaVuSans-69" x="855.761719"/>
      <use xlink:href="#DejaVuSans-74" x="883.544922"/>
      <use xlink:href="#DejaVuSans-20" x="922.753906"/>
      <use xlink:href="#DejaVuSans-2b" x="954.541016"/>
      <use xlink:href="#DejaVuSans-20" x="1038.330078"/>
      <use xlink:href="#DejaVuSans-73" x="1070.117188"/>
      <use xlink:href="#DejaVuSans-75" x="1122.216797"/>
      <use xlink:href="#DejaVuSans-72" x="1185.595703"/>
      <use xlink:href="#DejaVuSans-70" x="1226.708984"/>
      <use xlink:href="#DejaVuSans-72" x="1290.185547"/>
      <use xlink:href="#DejaVuSans-69" x="1331.298828"/>
      <use xlink:href="#DejaVuSans-73" x="1359.082031"/>
      <use xlink:href="#DejaVuSans-61" x="1411.181641"/>
      <use xlink:href="#DejaVuSans-6c" x="1472.460938"/>
     </g>
    </g>
    <g id="line2d_30">
     <path d="M 56.675 231.620312 
L 66.675 231.620312 
L 76.675 231.620312 
" style="fill: none; stroke: #e377c2; stroke-width: 1.5; stroke-linecap: square"/>
    </g>
    <g id="text_26">
     <!-- Node + surprisal + interaction -->
     <g transform="translate(84.675 235.120312)scale(0.1 -0.1)">
      <use xlink:href="#DejaVuSans-4e"/>
      <use xlink:href="#DejaVuSans-6f" x="74.804688"/>
      <use xlink:href="#DejaVuSans-64" x="135.986328"/>
      <use xlink:href="#DejaVuSans-65" x="199.462891"/>
      <use xlink:href="#DejaVuSans-20" x="260.986328"/>
      <use xlink:href="#DejaVuSans-2b" x="292.773438"/>
      <use xlink:href="#DejaVuSans-20" x="376.5625"/>
      <use xlink:href="#DejaVuSans-73" x="408.349609"/>
      <use xlink:href="#DejaVuSans-75" x="460.449219"/>
      <use xlink:href="#DejaVuSans-72" x="523.828125"/>
      <use xlink:href="#DejaVuSans-70" x="564.941406"/>
      <use xlink:href="#DejaVuSans-72" x="628.417969"/>
      <use xlink:href="#DejaVuSans-69" x="669.53125"/>
      <use xlink:href="#DejaVuSans-73" x="697.314453"/>
      <use xlink:href="#DejaVuSans-61" x="749.414062"/>
      <use xlink:href="#DejaVuSans-6c" x="810.693359"/>
      <use xlink:href="#DejaVuSans-20" x="838.476562"/>
      <use xlink:href="#DejaVuSans-2b" x="870.263672"/>
      <use xlink:href="#DejaVuSans-20" x="954.052734"/>
      <use xlink:href="#DejaVuSans-69" x="985.839844"/>
      <use xlink:href="#DejaVuSans-6e" x="1013.623047"/>
      <use xlink:href="#DejaVuSans-74" x="1077.001953"/>
      <use xlink:href="#DejaVuSans-65" x="1116.210938"/>
      <use xlink:href="#DejaVuSans-72" x="1177.734375"/>
      <use xlink:href="#DejaVuSans-61" x="1218.847656"/>
      <use xlink:href="#DejaVuSans-63" x="1280.126953"/>
      <use xlink:href="#DejaVuSans-74" x="1335.107422"/>
      <use xlink:href="#DejaVuSans-69" x="1374.316406"/>
      <use xlink:href="#DejaVuSans-6f" x="1402.099609"/>
      <use xlink:href="#DejaVuSans-6e" x="1463.28125"/>
     </g>
    </g>
   </g>
  </g>
  <g id="axes_2">
   <g id="patch_5">
    <path d="M 351.775 246.2 
L 629.2625 246.2 
L 629.2625 26.8 
L 351.775 26.8 
z
" style="fill: #ffffff"/>
   </g>
   <g id="PolyCollection_8">
    <path d="M 351.775 36.772727 
L 351.775 36.772729 
L 366.379605 38.689451 
L 380.984211 44.230174 
L 395.588816 52.005281 
L 410.193421 61.916625 
L 424.798026 73.600778 
L 439.402632 86.226564 
L 454.007237 99.528704 
L 468.611842 113.079458 
L 483.216447 126.699871 
L 497.821053 140.036632 
L 512.425658 153.061953 
L 527.030263 165.512398 
L 541.634868 177.517034 
L 556.239474 188.722331 
L 570.844079 199.311389 
L 585.448684 209.217102 
L 600.053289 218.401334 
L 614.657895 227.032583 
L 629.2625 234.950021 
L 629.2625 207.99394 
L 629.2625 207.99394 
L 614.657895 200.044666 
L 600.053289 191.493792 
L 585.448684 182.460384 
L 570.844079 173.075508 
L 556.239474 163.226544 
L 541.634868 152.745507 
L 527.030263 141.946557 
L 512.425658 130.819152 
L 497.821053 119.381354 
L 483.216447 107.722967 
L 468.611842 96.212986 
L 454.007237 84.793837 
L 439.402632 73.901044 
L 424.798026 63.811346 
L 410.193421 54.818262 
L 395.588816 47.37597 
L 380.984211 41.896503 
L 366.379605 38.02103 
L 351.775 36.772727 
z
" clip-path="url(#p1a4b68fc4b)" style="fill: #1f77b4; fill-opacity: 0.2"/>
   </g>
   <g id="PolyCollection_9">
    <path d="M 351.775 36.772968 
L 351.775 36.773082 
L 366.379605 38.69152 
L 380.984211 44.236742 
L 395.588816 52.017182 
L 410.193421 61.936882 
L 424.798026 73.633385 
L 439.402632 86.269149 
L 454.007237 99.589617 
L 468.611842 113.159118 
L 483.216447 126.796429 
L 497.821053 140.165336 
L 512.425658 153.218307 
L 527.030263 165.709943 
L 541.634868 177.753533 
L 556.239474 188.999673 
L 570.844079 199.626146 
L 585.448684 209.577018 
L 600.053289 218.802811 
L 614.657895 227.490993 
L 629.2625 235.44876 
L 629.2625 208.42561 
L 629.2625 208.42561 
L 614.657895 200.432732 
L 600.053289 191.841984 
L 585.448684 182.781014 
L 570.844079 173.359037 
L 556.239474 163.483739 
L 541.634868 152.975839 
L 527.030263 142.143495 
L 512.425658 130.988712 
L 497.821053 119.521394 
L 483.216447 107.844989 
L 468.611842 96.308119 
L 454.007237 84.867203 
L 439.402632 73.958144 
L 424.798026 63.851231 
L 410.193421 54.845261 
L 395.588816 47.390463 
L 380.984211 41.902368 
L 366.379605 38.022877 
L 351.775 36.772968 
z
" clip-path="url(#p1a4b68fc4b)" style="fill: #ff7f0e; fill-opacity: 0.2"/>
   </g>
   <g id="PolyCollection_10">
    <path d="M 351.775 36.772742 
L 351.775 36.77275 
L 366.379605 38.692822 
L 380.984211 44.244373 
L 395.588816 52.028749 
L 410.193421 61.962549 
L 424.798026 73.665778 
L 439.402632 86.312628 
L 454.007237 99.640591 
L 468.611842 113.217362 
L 483.216447 126.861104 
L 497.821053 140.23932 
L 512.425658 153.302167 
L 527.030263 165.804219 
L 541.634868 177.85319 
L 556.239474 189.115187 
L 570.844079 199.751203 
L 585.448684 209.718198 
L 600.053289 218.969274 
L 614.657895 227.657113 
L 629.2625 235.655217 
L 629.2625 208.759861 
L 629.2625 208.759861 
L 614.657895 200.755782 
L 600.053289 192.133898 
L 585.448684 183.049451 
L 570.844079 173.59488 
L 556.239474 163.689149 
L 541.634868 153.161948 
L 527.030263 142.299899 
L 512.425658 131.119269 
L 497.821053 119.636109 
L 483.216447 107.923124 
L 468.611842 96.376964 
L 454.007237 84.922875 
L 439.402632 73.998216 
L 424.798026 63.87644 
L 410.193421 54.860291 
L 395.588816 47.399906 
L 380.984211 41.907749 
L 366.379605 38.023537 
L 351.775 36.772742 
z
" clip-path="url(#p1a4b68fc4b)" style="fill: #2ca02c; fill-opacity: 0.2"/>
   </g>
   <g id="PolyCollection_11">
    <path d="M 351.775 36.774024 
L 351.775 36.774735 
L 366.379605 38.696752 
L 380.984211 44.255122 
L 395.588816 52.047591 
L 410.193421 61.993098 
L 424.798026 73.714464 
L 439.402632 86.379464 
L 454.007237 99.728542 
L 468.611842 113.329544 
L 483.216447 126.996241 
L 497.821053 140.405551 
L 512.425658 153.495659 
L 527.030263 166.031812 
L 541.634868 178.114177 
L 556.239474 189.407239 
L 570.844079 200.082022 
L 585.448684 210.086151 
L 600.053289 219.374174 
L 614.657895 228.118197 
L 629.2625 236.150829 
L 629.2625 209.149594 
L 629.2625 209.149594 
L 614.657895 201.11648 
L 600.053289 192.456425 
L 585.448684 183.34824 
L 570.844079 173.862807 
L 556.239474 163.934484 
L 541.634868 153.378172 
L 527.030263 142.485516 
L 512.425658 131.276202 
L 497.821053 119.768155 
L 483.216447 108.039703 
L 468.611842 96.468007 
L 454.007237 84.994394 
L 439.402632 74.052576 
L 424.798026 63.91568 
L 410.193421 54.886782 
L 395.588816 47.415594 
L 380.984211 41.915277 
L 366.379605 38.026862 
L 351.775 36.774024 
z
" clip-path="url(#p1a4b68fc4b)" style="fill: #d62728; fill-opacity: 0.2"/>
   </g>
   <g id="PolyCollection_12">
    <path d="M 351.775 36.772742 
L 351.775 36.77275 
L 366.379605 38.691863 
L 380.984211 44.239258 
L 395.588816 52.027575 
L 410.193421 61.96409 
L 424.798026 73.706027 
L 439.402632 86.325363 
L 454.007237 99.673172 
L 468.611842 113.226719 
L 483.216447 126.895668 
L 497.821053 140.241426 
L 512.425658 153.352234 
L 527.030263 165.822004 
L 541.634868 177.768662 
L 556.239474 189.23958 
L 570.844079 199.751942 
L 585.448684 209.643468 
L 600.053289 219.015571 
L 614.657895 227.773558 
L 629.2625 235.744136 
L 629.2625 208.576713 
L 629.2625 208.576713 
L 614.657895 200.622811 
L 600.053289 192.071506 
L 585.448684 182.980489 
L 570.844079 173.559651 
L 556.239474 163.584322 
L 541.634868 153.079121 
L 527.030263 142.21752 
L 512.425658 131.063733 
L 497.821053 119.63291 
L 483.216447 107.953539 
L 468.611842 96.380253 
L 454.007237 84.931187 
L 439.402632 74.000893 
L 424.798026 63.876037 
L 410.193421 54.845385 
L 395.588816 47.395482 
L 380.984211 41.904931 
L 366.379605 38.023048 
L 351.775 36.772742 
z
" clip-path="url(#p1a4b68fc4b)" style="fill: #9467bd; fill-opacity: 0.2"/>
   </g>
   <g id="PolyCollection_13">
    <path d="M 351.775 36.773706 
L 351.775 36.774163 
L 366.379605 38.694733 
L 380.984211 44.246338 
L 395.588816 52.039713 
L 410.193421 61.984391 
L 424.798026 73.737939 
L 439.402632 86.366841 
L 454.007237 99.73379 
L 468.611842 113.304424 
L 483.216447 126.986725 
L 497.821053 140.364675 
L 512.425658 153.507237 
L 527.030263 166.016643 
L 541.634868 177.995136 
L 556.239474 189.510882 
L 570.844079 200.059395 
L 585.448684 209.999429 
L 600.053289 219.407446 
L 614.657895 228.224122 
L 629.2625 236.227273 
L 629.2625 209.008003 
L 629.2625 209.008003 
L 614.657895 201.010029 
L 600.053289 192.421426 
L 585.448684 183.298386 
L 570.844079 173.841002 
L 556.239474 163.840522 
L 541.634868 153.313508 
L 527.030263 142.416054 
L 512.425658 131.235254 
L 497.821053 119.776838 
L 483.216447 108.079468 
L 468.611842 96.478207 
L 454.007237 85.006588 
L 439.402632 74.059614 
L 424.798026 63.917563 
L 410.193421 54.874271 
L 395.588816 47.411613 
L 380.984211 41.912147 
L 366.379605 38.025857 
L 351.775 36.773706 
z
" clip-path="url(#p1a4b68fc4b)" style="fill: #8c564b; fill-opacity: 0.2"/>
   </g>
   <g id="PolyCollection_14">
    <path d="M 351.775 36.773209 
L 351.775 36.773557 
L 366.379605 38.69486 
L 380.984211 44.251166 
L 395.588816 52.042641 
L 410.193421 61.977161 
L 424.798026 73.69577 
L 439.402632 86.353808 
L 454.007237 99.697134 
L 468.611842 113.299172 
L 483.216447 126.96458 
L 497.821053 140.366648 
L 512.425658 153.44995 
L 527.030263 165.986231 
L 541.634868 178.063425 
L 556.239474 189.368102 
L 570.844079 200.037968 
L 585.448684 210.046489 
L 600.053289 219.324941 
L 614.657895 228.087936 
L 629.2625 236.104507 
L 629.2625 209.091451 
L 629.2625 209.091451 
L 614.657895 201.044448 
L 600.053289 192.394947 
L 585.448684 183.28802 
L 570.844079 173.796267 
L 556.239474 163.870529 
L 541.634868 153.321465 
L 527.030263 142.431807 
L 512.425658 131.234638 
L 497.821053 119.726804 
L 483.216447 108.011144 
L 468.611842 96.438757 
L 454.007237 84.969523 
L 439.402632 74.035646 
L 424.798026 63.905579 
L 410.193421 54.885603 
L 395.588816 47.412987 
L 380.984211 41.911434 
L 366.379605 38.025624 
L 351.775 36.773209 
z
" clip-path="url(#p1a4b68fc4b)" style="fill: #e377c2; fill-opacity: 0.2"/>
   </g>
   <g id="matplotlib.axis_3">
    <g id="xtick_10">
     <g id="line2d_31">
      <g>
       <use xlink:href="#m79524da9b6" x="351.775" y="246.2" style="stroke: #000000; stroke-width: 0.8"/>
      </g>
     </g>
     <g id="text_27">
      <!-- 0.00 -->
      <g transform="translate(340.642187 260.798437)scale(0.1 -0.1)">
       <use xlink:href="#DejaVuSans-30"/>
       <use xlink:href="#DejaVuSans-2e" x="63.623047"/>
       <use xlink:href="#DejaVuSans-30" x="95.410156"/>
       <use xlink:href="#DejaVuSans-30" x="159.033203"/>
      </g>
     </g>
    </g>
    <g id="xtick_11">
     <g id="line2d_32">
      <g>
       <use xlink:href="#m79524da9b6" x="386.460937" y="246.2" style="stroke: #000000; stroke-width: 0.8"/>
      </g>
     </g>
     <g id="text_28">
      <!-- 0.25 -->
      <g transform="translate(375.328125 260.798437)scale(0.1 -0.1)">
       <use xlink:href="#DejaVuSans-30"/>
       <use xlink:href="#DejaVuSans-2e" x="63.623047"/>
       <use xlink:href="#DejaVuSans-32" x="95.410156"/>
       <use xlink:href="#DejaVuSans-35" x="159.033203"/>
      </g>
     </g>
    </g>
    <g id="xtick_12">
     <g id="line2d_33">
      <g>
       <use xlink:href="#m79524da9b6" x="421.146875" y="246.2" style="stroke: #000000; stroke-width: 0.8"/>
      </g>
     </g>
     <g id="text_29">
      <!-- 0.50 -->
      <g transform="translate(410.014062 260.798437)scale(0.1 -0.1)">
       <use xlink:href="#DejaVuSans-30"/>
       <use xlink:href="#DejaVuSans-2e" x="63.623047"/>
       <use xlink:href="#DejaVuSans-35" x="95.410156"/>
       <use xlink:href="#DejaVuSans-30" x="159.033203"/>
      </g>
     </g>
    </g>
    <g id="xtick_13">
     <g id="line2d_34">
      <g>
       <use xlink:href="#m79524da9b6" x="455.832812" y="246.2" style="stroke: #000000; stroke-width: 0.8"/>
      </g>
     </g>
     <g id="text_30">
      <!-- 0.75 -->
      <g transform="translate(444.7 260.798437)scale(0.1 -0.1)">
       <use xlink:href="#DejaVuSans-30"/>
       <use xlink:href="#DejaVuSans-2e" x="63.623047"/>
       <use xlink:href="#DejaVuSans-37" x="95.410156"/>
       <use xlink:href="#DejaVuSans-35" x="159.033203"/>
      </g>
     </g>
    </g>
    <g id="xtick_14">
     <g id="line2d_35">
      <g>
       <use xlink:href="#m79524da9b6" x="490.51875" y="246.2" style="stroke: #000000; stroke-width: 0.8"/>
      </g>
     </g>
     <g id="text_31">
      <!-- 1.00 -->
      <g transform="translate(479.385937 260.798437)scale(0.1 -0.1)">
       <use xlink:href="#DejaVuSans-31"/>
       <use xlink:href="#DejaVuSans-2e" x="63.623047"/>
       <use xlink:href="#DejaVuSans-30" x="95.410156"/>
       <use xlink:href="#DejaVuSans-30" x="159.033203"/>
      </g>
     </g>
    </g>
    <g id="xtick_15">
     <g id="line2d_36">
      <g>
       <use xlink:href="#m79524da9b6" x="525.204687" y="246.2" style="stroke: #000000; stroke-width: 0.8"/>
      </g>
     </g>
     <g id="text_32">
      <!-- 1.25 -->
      <g transform="translate(514.071875 260.798437)scale(0.1 -0.1)">
       <use xlink:href="#DejaVuSans-31"/>
       <use xlink:href="#DejaVuSans-2e" x="63.623047"/>
       <use xlink:href="#DejaVuSans-32" x="95.410156"/>
       <use xlink:href="#DejaVuSans-35" x="159.033203"/>
      </g>
     </g>
    </g>
    <g id="xtick_16">
     <g id="line2d_37">
      <g>
       <use xlink:href="#m79524da9b6" x="559.890625" y="246.2" style="stroke: #000000; stroke-width: 0.8"/>
      </g>
     </g>
     <g id="text_33">
      <!-- 1.50 -->
      <g transform="translate(548.757812 260.798437)scale(0.1 -0.1)">
       <use xlink:href="#DejaVuSans-31"/>
       <use xlink:href="#DejaVuSans-2e" x="63.623047"/>
       <use xlink:href="#DejaVuSans-35" x="95.410156"/>
       <use xlink:href="#DejaVuSans-30" x="159.033203"/>
      </g>
     </g>
    </g>
    <g id="xtick_17">
     <g id="line2d_38">
      <g>
       <use xlink:href="#m79524da9b6" x="594.576562" y="246.2" style="stroke: #000000; stroke-width: 0.8"/>
      </g>
     </g>
     <g id="text_34">
      <!-- 1.75 -->
      <g transform="translate(583.44375 260.798437)scale(0.1 -0.1)">
       <use xlink:href="#DejaVuSans-31"/>
       <use xlink:href="#DejaVuSans-2e" x="63.623047"/>
       <use xlink:href="#DejaVuSans-37" x="95.410156"/>
       <use xlink:href="#DejaVuSans-35" x="159.033203"/>
      </g>
     </g>
    </g>
    <g id="xtick_18">
     <g id="line2d_39">
      <g>
       <use xlink:href="#m79524da9b6" x="629.2625" y="246.2" style="stroke: #000000; stroke-width: 0.8"/>
      </g>
     </g>
     <g id="text_35">
      <!-- 2.00 -->
      <g transform="translate(618.129687 260.798437)scale(0.1 -0.1)">
       <use xlink:href="#DejaVuSans-32"/>
       <use xlink:href="#DejaVuSans-2e" x="63.623047"/>
       <use xlink:href="#DejaVuSans-30" x="95.410156"/>
       <use xlink:href="#DejaVuSans-30" x="159.033203"/>
      </g>
     </g>
    </g>
    <g id="text_36">
     <!-- Influence of surprisal (multiplication) -->
     <g transform="translate(398.371875 274.476562)scale(0.1 -0.1)">
      <use xlink:href="#DejaVuSans-49"/>
      <use xlink:href="#DejaVuSans-6e" x="29.492188"/>
      <use xlink:href="#DejaVuSans-66" x="92.871094"/>
      <use xlink:href="#DejaVuSans-6c" x="128.076172"/>
      <use xlink:href="#DejaVuSans-75" x="155.859375"/>
      <use xlink:href="#DejaVuSans-65" x="219.238281"/>
      <use xlink:href="#DejaVuSans-6e" x="280.761719"/>
      <use xlink:href="#DejaVuSans-63" x="344.140625"/>
      <use xlink:href="#DejaVuSans-65" x="399.121094"/>
      <use xlink:href="#DejaVuSans-20" x="460.644531"/>
      <use xlink:href="#DejaVuSans-6f" x="492.431641"/>
      <use xlink:href="#DejaVuSans-66" x="553.613281"/>
      <use xlink:href="#DejaVuSans-20" x="588.818359"/>
      <use xlink:href="#DejaVuSans-73" x="620.605469"/>
      <use xlink:href="#DejaVuSans-75" x="672.705078"/>
      <use xlink:href="#DejaVuSans-72" x="736.083984"/>
      <use xlink:href="#DejaVuSans-70" x="777.197266"/>
      <use xlink:href="#DejaVuSans-72" x="840.673828"/>
      <use xlink:href="#DejaVuSans-69" x="881.787109"/>
      <use xlink:href="#DejaVuSans-73" x="909.570312"/>
      <use xlink:href="#DejaVuSans-61" x="961.669922"/>
      <use xlink:href="#DejaVuSans-6c" x="1022.949219"/>
      <use xlink:href="#DejaVuSans-20" x="1050.732422"/>
      <use xlink:href="#DejaVuSans-28" x="1082.519531"/>
      <use xlink:href="#DejaVuSans-6d" x="1121.533203"/>
      <use xlink:href="#DejaVuSans-75" x="1218.945312"/>
      <use xlink:href="#DejaVuSans-6c" x="1282.324219"/>
      <use xlink:href="#DejaVuSans-74" x="1310.107422"/>
      <use xlink:href="#DejaVuSans-69" x="1349.316406"/>
      <use xlink:href="#DejaVuSans-70" x="1377.099609"/>
      <use xlink:href="#DejaVuSans-6c" x="1440.576172"/>
      <use xlink:href="#DejaVuSans-69" x="1468.359375"/>
      <use xlink:href="#DejaVuSans-63" x="1496.142578"/>
      <use xlink:href="#DejaVuSans-61" x="1551.123047"/>
      <use xlink:href="#DejaVuSans-74" x="1612.402344"/>
      <use xlink:href="#DejaVuSans-69" x="1651.611328"/>
      <use xlink:href="#DejaVuSans-6f" x="1679.394531"/>
      <use xlink:href="#DejaVuSans-6e" x="1740.576172"/>
      <use xlink:href="#DejaVuSans-29" x="1803.955078"/>
     </g>
    </g>
   </g>
   <g id="line2d_40">
    <path d="M 351.775 36.772728 
L 366.379605 38.355241 
L 380.984211 43.063338 
L 395.588816 49.690626 
L 410.193421 58.367443 
L 424.798026 68.706062 
L 439.402632 80.063804 
L 454.007237 92.16127 
L 468.611842 104.646222 
L 483.216447 117.211419 
L 497.821053 129.708993 
L 512.425658 141.940552 
L 527.030263 153.729478 
L 541.634868 165.13127 
L 556.239474 175.974438 
L 570.844079 186.193448 
L 585.448684 195.838743 
L 600.053289 204.947563 
L 614.657895 213.538624 
L 629.2625 221.471981 
" clip-path="url(#p1a4b68fc4b)" style="fill: none; stroke: #1f77b4; stroke-width: 1.5; stroke-linecap: square"/>
   </g>
   <g id="line2d_41">
    <path d="M 351.775 36.773025 
L 366.379605 38.357198 
L 380.984211 43.069555 
L 395.588816 49.703823 
L 410.193421 58.391072 
L 424.798026 68.742308 
L 439.402632 80.113647 
L 454.007237 92.22841 
L 468.611842 104.733619 
L 483.216447 117.320709 
L 497.821053 129.843365 
L 512.425658 142.103509 
L 527.030263 153.926719 
L 541.634868 165.364686 
L 556.239474 176.241706 
L 570.844079 186.492591 
L 585.448684 196.179016 
L 600.053289 205.322398 
L 614.657895 213.961863 
L 629.2625 221.937185 
" clip-path="url(#p1a4b68fc4b)" style="fill: none; stroke: #ff7f0e; stroke-width: 1.5; stroke-linecap: square"/>
   </g>
   <g id="line2d_42">
    <path d="M 351.775 36.772746 
L 366.379605 38.35818 
L 380.984211 43.076061 
L 395.588816 49.714327 
L 410.193421 58.41142 
L 424.798026 68.771109 
L 439.402632 80.155422 
L 454.007237 92.281733 
L 468.611842 104.797163 
L 483.216447 117.392114 
L 497.821053 129.937715 
L 512.425658 142.210718 
L 527.030263 154.052059 
L 541.634868 165.507569 
L 556.239474 176.402168 
L 570.844079 186.673041 
L 585.448684 196.383824 
L 600.053289 205.551586 
L 614.657895 214.206448 
L 629.2625 222.207539 
" clip-path="url(#p1a4b68fc4b)" style="fill: none; stroke: #2ca02c; stroke-width: 1.5; stroke-linecap: square"/>
   </g>
   <g id="line2d_43">
    <path d="M 351.775 36.77438 
L 366.379605 38.361807 
L 380.984211 43.0852 
L 395.588816 49.731593 
L 410.193421 58.43994 
L 424.798026 68.815072 
L 439.402632 80.21602 
L 454.007237 92.361468 
L 468.611842 104.898776 
L 483.216447 117.517972 
L 497.821053 130.086853 
L 512.425658 142.38593 
L 527.030263 154.258664 
L 541.634868 165.746174 
L 556.239474 176.670861 
L 570.844079 186.972415 
L 585.448684 196.717196 
L 600.053289 205.9153 
L 614.657895 214.617338 
L 629.2625 222.650211 
" clip-path="url(#p1a4b68fc4b)" style="fill: none; stroke: #d62728; stroke-width: 1.5; stroke-linecap: square"/>
   </g>
   <g id="line2d_44">
    <path d="M 351.775 36.772746 
L 366.379605 38.357455 
L 380.984211 43.072094 
L 395.588816 49.711529 
L 410.193421 58.404738 
L 424.798026 68.791032 
L 439.402632 80.163128 
L 454.007237 92.302179 
L 468.611842 104.803486 
L 483.216447 117.424603 
L 497.821053 129.937168 
L 512.425658 142.207983 
L 527.030263 154.019762 
L 541.634868 165.423892 
L 556.239474 176.411951 
L 570.844079 186.655796 
L 585.448684 196.311978 
L 600.053289 205.543539 
L 614.657895 214.198185 
L 629.2625 222.160424 
" clip-path="url(#p1a4b68fc4b)" style="fill: none; stroke: #9467bd; stroke-width: 1.5; stroke-linecap: square"/>
   </g>
   <g id="line2d_45">
    <path d="M 351.775 36.773934 
L 366.379605 38.360295 
L 380.984211 43.079242 
L 395.588816 49.725663 
L 410.193421 58.429331 
L 424.798026 68.827751 
L 439.402632 80.213228 
L 454.007237 92.370189 
L 468.611842 104.891316 
L 483.216447 117.533096 
L 497.821053 130.070756 
L 512.425658 142.371246 
L 527.030263 154.216348 
L 541.634868 165.654322 
L 556.239474 176.675702 
L 570.844079 186.950198 
L 585.448684 196.648907 
L 600.053289 205.914436 
L 614.657895 214.617076 
L 629.2625 222.617638 
" clip-path="url(#p1a4b68fc4b)" style="fill: none; stroke: #8c564b; stroke-width: 1.5; stroke-linecap: square"/>
   </g>
   <g id="line2d_46">
    <path d="M 351.775 36.773383 
L 366.379605 38.360242 
L 380.984211 43.0813 
L 395.588816 49.727814 
L 410.193421 58.431382 
L 424.798026 68.800674 
L 439.402632 80.194727 
L 454.007237 92.333328 
L 468.611842 104.868965 
L 483.216447 117.487862 
L 497.821053 130.046726 
L 512.425658 142.342294 
L 527.030263 154.209019 
L 541.634868 165.692445 
L 556.239474 176.619315 
L 570.844079 186.917118 
L 585.448684 196.667254 
L 600.053289 205.859944 
L 614.657895 214.566192 
L 629.2625 222.597979 
" clip-path="url(#p1a4b68fc4b)" style="fill: none; stroke: #e377c2; stroke-width: 1.5; stroke-linecap: square"/>
   </g>
   <g id="patch_6">
    <path d="M 351.775 246.2 
L 351.775 26.8 
" style="fill: none; stroke: #000000; stroke-width: 0.8; stroke-linejoin: miter; stroke-linecap: square"/>
   </g>
   <g id="patch_7">
    <path d="M 351.775 246.2 
L 629.2625 246.2 
" style="fill: none; stroke: #000000; stroke-width: 0.8; stroke-linejoin: miter; stroke-linecap: square"/>
   </g>
   <g id="text_37">
    <!-- Node * third variable -->
    <g transform="translate(427.93875 20.8)scale(0.12 -0.12)">
     <defs>
      <path id="DejaVuSans-68" d="M 3513 2113 
L 3513 0 
L 2938 0 
L 2938 2094 
Q 2938 2591 2744 2837 
Q 2550 3084 2163 3084 
Q 1697 3084 1428 2787 
Q 1159 2491 1159 1978 
L 1159 0 
L 581 0 
L 581 4863 
L 1159 4863 
L 1159 2956 
Q 1366 3272 1645 3428 
Q 1925 3584 2291 3584 
Q 2894 3584 3203 3211 
Q 3513 2838 3513 2113 
z
" transform="scale(0.015625)"/>
      <path id="DejaVuSans-62" d="M 3116 1747 
Q 3116 2381 2855 2742 
Q 2594 3103 2138 3103 
Q 1681 3103 1420 2742 
Q 1159 2381 1159 1747 
Q 1159 1113 1420 752 
Q 1681 391 2138 391 
Q 2594 391 2855 752 
Q 3116 1113 3116 1747 
z
M 1159 2969 
Q 1341 3281 1617 3432 
Q 1894 3584 2278 3584 
Q 2916 3584 3314 3078 
Q 3713 2572 3713 1747 
Q 3713 922 3314 415 
Q 2916 -91 2278 -91 
Q 1894 -91 1617 61 
Q 1341 213 1159 525 
L 1159 0 
L 581 0 
L 581 4863 
L 1159 4863 
L 1159 2969 
z
" transform="scale(0.015625)"/>
     </defs>
     <use xlink:href="#DejaVuSans-4e"/>
     <use xlink:href="#DejaVuSans-6f" x="74.804688"/>
     <use xlink:href="#DejaVuSans-64" x="135.986328"/>
     <use xlink:href="#DejaVuSans-65" x="199.462891"/>
     <use xlink:href="#DejaVuSans-20" x="260.986328"/>
     <use xlink:href="#DejaVuSans-2a" x="292.773438"/>
     <use xlink:href="#DejaVuSans-20" x="342.773438"/>
     <use xlink:href="#DejaVuSans-74" x="374.560547"/>
     <use xlink:href="#DejaVuSans-68" x="413.769531"/>
     <use xlink:href="#DejaVuSans-69" x="477.148438"/>
     <use xlink:href="#DejaVuSans-72" x="504.931641"/>
     <use xlink:href="#DejaVuSans-64" x="544.294922"/>
     <use xlink:href="#DejaVuSans-20" x="607.771484"/>
     <use xlink:href="#DejaVuSans-76" x="639.558594"/>
     <use xlink:href="#DejaVuSans-61" x="698.738281"/>
     <use xlink:href="#DejaVuSans-72" x="760.017578"/>
     <use xlink:href="#DejaVuSans-69" x="801.130859"/>
     <use xlink:href="#DejaVuSans-61" x="828.914062"/>
     <use xlink:href="#DejaVuSans-62" x="890.193359"/>
     <use xlink:href="#DejaVuSans-6c" x="953.669922"/>
     <use xlink:href="#DejaVuSans-65" x="981.453125"/>
    </g>
   </g>
  </g>
 </g>
 <defs>
  <clipPath id="p133b49918e">
   <rect x="47.675" y="26.8" width="277.4875" height="219.4"/>
  </clipPath>
  <clipPath id="p1a4b68fc4b">
   <rect x="351.775" y="26.8" width="277.4875" height="219.4"/>
  </clipPath>
 </defs>
</svg>
