<?xml version="1.0" encoding="utf-8" standalone="no"?>
<!DOCTYPE svg PUBLIC "-//W3C//DTD SVG 1.1//EN"
  "http://www.w3.org/Graphics/SVG/1.1/DTD/svg11.dtd">
<svg xmlns:xlink="http://www.w3.org/1999/xlink" width="648pt" height="216pt" viewBox="0 0 648 216" xmlns="http://www.w3.org/2000/svg" version="1.1">
 <metadata>
  <rdf:RDF xmlns:dc="http://purl.org/dc/elements/1.1/" xmlns:cc="http://creativecommons.org/ns#" xmlns:rdf="http://www.w3.org/1999/02/22-rdf-syntax-ns#">
   <cc:Work>
    <dc:type rdf:resource="http://purl.org/dc/dcmitype/StillImage"/>
    <dc:date>2024-01-27T15:38:54.044984</dc:date>
    <dc:format>image/svg+xml</dc:format>
    <dc:creator>
     <cc:Agent>
      <dc:title>Matplotlib v3.5.1, https://matplotlib.org/</dc:title>
     </cc:Agent>
    </dc:creator>
   </cc:Work>
  </rdf:RDF>
 </metadata>
 <defs>
  <style type="text/css">*{stroke-linejoin: round; stroke-linecap: butt}</style>
 </defs>
 <g id="figure_1">
  <g id="patch_1">
   <path d="M 0 216 
L 648 216 
L 648 0 
L 0 0 
z
" style="fill: #ffffff"/>
  </g>
  <g id="axes_1">
   <g id="patch_2">
    <path d="M 59.05 174.2 
L 186.456373 174.2 
L 186.456373 56.8 
L 59.05 56.8 
z
" style="fill: #ffffff"/>
   </g>
   <g id="matplotlib.axis_1">
    <g id="xtick_1">
     <g id="line2d_1">
      <defs>
       <path id="maf51498940" d="M 0 0 
L 0 3.5 
" style="stroke: #000000; stroke-width: 0.8"/>
      </defs>
      <g>
       <use xlink:href="#maf51498940" x="59.05" y="174.2" style="stroke: #000000; stroke-width: 0.8"/>
      </g>
     </g>
     <g id="text_1">
      <!-- 0.0 -->
      <g transform="translate(51.098437 188.798438)scale(0.1 -0.1)">
       <defs>
        <path id="DejaVuSans-30" d="M 2034 4250 
Q 1547 4250 1301 3770 
Q 1056 3291 1056 2328 
Q 1056 1369 1301 889 
Q 1547 409 2034 409 
Q 2525 409 2770 889 
Q 3016 1369 3016 2328 
Q 3016 3291 2770 3770 
Q 2525 4250 2034 4250 
z
M 2034 4750 
Q 2819 4750 3233 4129 
Q 3647 3509 3647 2328 
Q 3647 1150 3233 529 
Q 2819 -91 2034 -91 
Q 1250 -91 836 529 
Q 422 1150 422 2328 
Q 422 3509 836 4129 
Q 1250 4750 2034 4750 
z
" transform="scale(0.015625)"/>
        <path id="DejaVuSans-2e" d="M 684 794 
L 1344 794 
L 1344 0 
L 684 0 
L 684 794 
z
" transform="scale(0.015625)"/>
       </defs>
       <use xlink:href="#DejaVuSans-30"/>
       <use xlink:href="#DejaVuSans-2e" x="63.623047"/>
       <use xlink:href="#DejaVuSans-30" x="95.410156"/>
      </g>
     </g>
    </g>
    <g id="xtick_2">
     <g id="line2d_2">
      <g>
       <use xlink:href="#maf51498940" x="90.901593" y="174.2" style="stroke: #000000; stroke-width: 0.8"/>
      </g>
     </g>
     <g id="text_2">
      <!-- 0.5 -->
      <g transform="translate(82.950031 188.798438)scale(0.1 -0.1)">
       <defs>
        <path id="DejaVuSans-35" d="M 691 4666 
L 3169 4666 
L 3169 4134 
L 1269 4134 
L 1269 2991 
Q 1406 3038 1543 3061 
Q 1681 3084 1819 3084 
Q 2600 3084 3056 2656 
Q 3513 2228 3513 1497 
Q 3513 744 3044 326 
Q 2575 -91 1722 -91 
Q 1428 -91 1123 -41 
Q 819 9 494 109 
L 494 744 
Q 775 591 1075 516 
Q 1375 441 1709 441 
Q 2250 441 2565 725 
Q 2881 1009 2881 1497 
Q 2881 1984 2565 2268 
Q 2250 2553 1709 2553 
Q 1456 2553 1204 2497 
Q 953 2441 691 2322 
L 691 4666 
z
" transform="scale(0.015625)"/>
       </defs>
       <use xlink:href="#DejaVuSans-30"/>
       <use xlink:href="#DejaVuSans-2e" x="63.623047"/>
       <use xlink:href="#DejaVuSans-35" x="95.410156"/>
      </g>
     </g>
    </g>
    <g id="xtick_3">
     <g id="line2d_3">
      <g>
       <use xlink:href="#maf51498940" x="122.753186" y="174.2" style="stroke: #000000; stroke-width: 0.8"/>
      </g>
     </g>
     <g id="text_3">
      <!-- 1.0 -->
      <g transform="translate(114.801624 188.798438)scale(0.1 -0.1)">
       <defs>
        <path id="DejaVuSans-31" d="M 794 531 
L 1825 531 
L 1825 4091 
L 703 3866 
L 703 4441 
L 1819 4666 
L 2450 4666 
L 2450 531 
L 3481 531 
L 3481 0 
L 794 0 
L 794 531 
z
" transform="scale(0.015625)"/>
       </defs>
       <use xlink:href="#DejaVuSans-31"/>
       <use xlink:href="#DejaVuSans-2e" x="63.623047"/>
       <use xlink:href="#DejaVuSans-30" x="95.410156"/>
      </g>
     </g>
    </g>
    <g id="xtick_4">
     <g id="line2d_4">
      <g>
       <use xlink:href="#maf51498940" x="154.604779" y="174.2" style="stroke: #000000; stroke-width: 0.8"/>
      </g>
     </g>
     <g id="text_4">
      <!-- 1.5 -->
      <g transform="translate(146.653217 188.798438)scale(0.1 -0.1)">
       <use xlink:href="#DejaVuSans-31"/>
       <use xlink:href="#DejaVuSans-2e" x="63.623047"/>
       <use xlink:href="#DejaVuSans-35" x="95.410156"/>
      </g>
     </g>
    </g>
    <g id="xtick_5">
     <g id="line2d_5">
      <g>
       <use xlink:href="#maf51498940" x="186.456373" y="174.2" style="stroke: #000000; stroke-width: 0.8"/>
      </g>
     </g>
     <g id="text_5">
      <!-- 2.0 -->
      <g transform="translate(178.50481 188.798438)scale(0.1 -0.1)">
       <defs>
        <path id="DejaVuSans-32" d="M 1228 531 
L 3431 531 
L 3431 0 
L 469 0 
L 469 531 
Q 828 903 1448 1529 
Q 2069 2156 2228 2338 
Q 2531 2678 2651 2914 
Q 2772 3150 2772 3378 
Q 2772 3750 2511 3984 
Q 2250 4219 1831 4219 
Q 1534 4219 1204 4116 
Q 875 4013 500 3803 
L 500 4441 
Q 881 4594 1212 4672 
Q 1544 4750 1819 4750 
Q 2544 4750 2975 4387 
Q 3406 4025 3406 3419 
Q 3406 3131 3298 2873 
Q 3191 2616 2906 2266 
Q 2828 2175 2409 1742 
Q 1991 1309 1228 531 
z
" transform="scale(0.015625)"/>
       </defs>
       <use xlink:href="#DejaVuSans-32"/>
       <use xlink:href="#DejaVuSans-2e" x="63.623047"/>
       <use xlink:href="#DejaVuSans-30" x="95.410156"/>
      </g>
     </g>
    </g>
    <g id="text_6">
     <!-- Multiplication of surprisal -->
     <g transform="translate(59.685999 202.476562)scale(0.1 -0.1)">
      <defs>
       <path id="DejaVuSans-4d" d="M 628 4666 
L 1569 4666 
L 2759 1491 
L 3956 4666 
L 4897 4666 
L 4897 0 
L 4281 0 
L 4281 4097 
L 3078 897 
L 2444 897 
L 1241 4097 
L 1241 0 
L 628 0 
L 628 4666 
z
" transform="scale(0.015625)"/>
       <path id="DejaVuSans-75" d="M 544 1381 
L 544 3500 
L 1119 3500 
L 1119 1403 
Q 1119 906 1312 657 
Q 1506 409 1894 409 
Q 2359 409 2629 706 
Q 2900 1003 2900 1516 
L 2900 3500 
L 3475 3500 
L 3475 0 
L 2900 0 
L 2900 538 
Q 2691 219 2414 64 
Q 2138 -91 1772 -91 
Q 1169 -91 856 284 
Q 544 659 544 1381 
z
M 1991 3584 
L 1991 3584 
z
" transform="scale(0.015625)"/>
       <path id="DejaVuSans-6c" d="M 603 4863 
L 1178 4863 
L 1178 0 
L 603 0 
L 603 4863 
z
" transform="scale(0.015625)"/>
       <path id="DejaVuSans-74" d="M 1172 4494 
L 1172 3500 
L 2356 3500 
L 2356 3053 
L 1172 3053 
L 1172 1153 
Q 1172 725 1289 603 
Q 1406 481 1766 481 
L 2356 481 
L 2356 0 
L 1766 0 
Q 1100 0 847 248 
Q 594 497 594 1153 
L 594 3053 
L 172 3053 
L 172 3500 
L 594 3500 
L 594 4494 
L 1172 4494 
z
" transform="scale(0.015625)"/>
       <path id="DejaVuSans-69" d="M 603 3500 
L 1178 3500 
L 1178 0 
L 603 0 
L 603 3500 
z
M 603 4863 
L 1178 4863 
L 1178 4134 
L 603 4134 
L 603 4863 
z
" transform="scale(0.015625)"/>
       <path id="DejaVuSans-70" d="M 1159 525 
L 1159 -1331 
L 581 -1331 
L 581 3500 
L 1159 3500 
L 1159 2969 
Q 1341 3281 1617 3432 
Q 1894 3584 2278 3584 
Q 2916 3584 3314 3078 
Q 3713 2572 3713 1747 
Q 3713 922 3314 415 
Q 2916 -91 2278 -91 
Q 1894 -91 1617 61 
Q 1341 213 1159 525 
z
M 3116 1747 
Q 3116 2381 2855 2742 
Q 2594 3103 2138 3103 
Q 1681 3103 1420 2742 
Q 1159 2381 1159 1747 
Q 1159 1113 1420 752 
Q 1681 391 2138 391 
Q 2594 391 2855 752 
Q 3116 1113 3116 1747 
z
" transform="scale(0.015625)"/>
       <path id="DejaVuSans-63" d="M 3122 3366 
L 3122 2828 
Q 2878 2963 2633 3030 
Q 2388 3097 2138 3097 
Q 1578 3097 1268 2742 
Q 959 2388 959 1747 
Q 959 1106 1268 751 
Q 1578 397 2138 397 
Q 2388 397 2633 464 
Q 2878 531 3122 666 
L 3122 134 
Q 2881 22 2623 -34 
Q 2366 -91 2075 -91 
Q 1284 -91 818 406 
Q 353 903 353 1747 
Q 353 2603 823 3093 
Q 1294 3584 2113 3584 
Q 2378 3584 2631 3529 
Q 2884 3475 3122 3366 
z
" transform="scale(0.015625)"/>
       <path id="DejaVuSans-61" d="M 2194 1759 
Q 1497 1759 1228 1600 
Q 959 1441 959 1056 
Q 959 750 1161 570 
Q 1363 391 1709 391 
Q 2188 391 2477 730 
Q 2766 1069 2766 1631 
L 2766 1759 
L 2194 1759 
z
M 3341 1997 
L 3341 0 
L 2766 0 
L 2766 531 
Q 2569 213 2275 61 
Q 1981 -91 1556 -91 
Q 1019 -91 701 211 
Q 384 513 384 1019 
Q 384 1609 779 1909 
Q 1175 2209 1959 2209 
L 2766 2209 
L 2766 2266 
Q 2766 2663 2505 2880 
Q 2244 3097 1772 3097 
Q 1472 3097 1187 3025 
Q 903 2953 641 2809 
L 641 3341 
Q 956 3463 1253 3523 
Q 1550 3584 1831 3584 
Q 2591 3584 2966 3190 
Q 3341 2797 3341 1997 
z
" transform="scale(0.015625)"/>
       <path id="DejaVuSans-6f" d="M 1959 3097 
Q 1497 3097 1228 2736 
Q 959 2375 959 1747 
Q 959 1119 1226 758 
Q 1494 397 1959 397 
Q 2419 397 2687 759 
Q 2956 1122 2956 1747 
Q 2956 2369 2687 2733 
Q 2419 3097 1959 3097 
z
M 1959 3584 
Q 2709 3584 3137 3096 
Q 3566 2609 3566 1747 
Q 3566 888 3137 398 
Q 2709 -91 1959 -91 
Q 1206 -91 779 398 
Q 353 888 353 1747 
Q 353 2609 779 3096 
Q 1206 3584 1959 3584 
z
" transform="scale(0.015625)"/>
       <path id="DejaVuSans-6e" d="M 3513 2113 
L 3513 0 
L 2938 0 
L 2938 2094 
Q 2938 2591 2744 2837 
Q 2550 3084 2163 3084 
Q 1697 3084 1428 2787 
Q 1159 2491 1159 1978 
L 1159 0 
L 581 0 
L 581 3500 
L 1159 3500 
L 1159 2956 
Q 1366 3272 1645 3428 
Q 1925 3584 2291 3584 
Q 2894 3584 3203 3211 
Q 3513 2838 3513 2113 
z
" transform="scale(0.015625)"/>
       <path id="DejaVuSans-20" transform="scale(0.015625)"/>
       <path id="DejaVuSans-66" d="M 2375 4863 
L 2375 4384 
L 1825 4384 
Q 1516 4384 1395 4259 
Q 1275 4134 1275 3809 
L 1275 3500 
L 2222 3500 
L 2222 3053 
L 1275 3053 
L 1275 0 
L 697 0 
L 697 3053 
L 147 3053 
L 147 3500 
L 697 3500 
L 697 3744 
Q 697 4328 969 4595 
Q 1241 4863 1831 4863 
L 2375 4863 
z
" transform="scale(0.015625)"/>
       <path id="DejaVuSans-73" d="M 2834 3397 
L 2834 2853 
Q 2591 2978 2328 3040 
Q 2066 3103 1784 3103 
Q 1356 3103 1142 2972 
Q 928 2841 928 2578 
Q 928 2378 1081 2264 
Q 1234 2150 1697 2047 
L 1894 2003 
Q 2506 1872 2764 1633 
Q 3022 1394 3022 966 
Q 3022 478 2636 193 
Q 2250 -91 1575 -91 
Q 1294 -91 989 -36 
Q 684 19 347 128 
L 347 722 
Q 666 556 975 473 
Q 1284 391 1588 391 
Q 1994 391 2212 530 
Q 2431 669 2431 922 
Q 2431 1156 2273 1281 
Q 2116 1406 1581 1522 
L 1381 1569 
Q 847 1681 609 1914 
Q 372 2147 372 2553 
Q 372 3047 722 3315 
Q 1072 3584 1716 3584 
Q 2034 3584 2315 3537 
Q 2597 3491 2834 3397 
z
" transform="scale(0.015625)"/>
       <path id="DejaVuSans-72" d="M 2631 2963 
Q 2534 3019 2420 3045 
Q 2306 3072 2169 3072 
Q 1681 3072 1420 2755 
Q 1159 2438 1159 1844 
L 1159 0 
L 581 0 
L 581 3500 
L 1159 3500 
L 1159 2956 
Q 1341 3275 1631 3429 
Q 1922 3584 2338 3584 
Q 2397 3584 2469 3576 
Q 2541 3569 2628 3553 
L 2631 2963 
z
" transform="scale(0.015625)"/>
      </defs>
      <use xlink:href="#DejaVuSans-4d"/>
      <use xlink:href="#DejaVuSans-75" x="86.279297"/>
      <use xlink:href="#DejaVuSans-6c" x="149.658203"/>
      <use xlink:href="#DejaVuSans-74" x="177.441406"/>
      <use xlink:href="#DejaVuSans-69" x="216.650391"/>
      <use xlink:href="#DejaVuSans-70" x="244.433594"/>
      <use xlink:href="#DejaVuSans-6c" x="307.910156"/>
      <use xlink:href="#DejaVuSans-69" x="335.693359"/>
      <use xlink:href="#DejaVuSans-63" x="363.476562"/>
      <use xlink:href="#DejaVuSans-61" x="418.457031"/>
      <use xlink:href="#DejaVuSans-74" x="479.736328"/>
      <use xlink:href="#DejaVuSans-69" x="518.945312"/>
      <use xlink:href="#DejaVuSans-6f" x="546.728516"/>
      <use xlink:href="#DejaVuSans-6e" x="607.910156"/>
      <use xlink:href="#DejaVuSans-20" x="671.289062"/>
      <use xlink:href="#DejaVuSans-6f" x="703.076172"/>
      <use xlink:href="#DejaVuSans-66" x="764.257812"/>
      <use xlink:href="#DejaVuSans-20" x="799.462891"/>
      <use xlink:href="#DejaVuSans-73" x="831.25"/>
      <use xlink:href="#DejaVuSans-75" x="883.349609"/>
      <use xlink:href="#DejaVuSans-72" x="946.728516"/>
      <use xlink:href="#DejaVuSans-70" x="987.841797"/>
      <use xlink:href="#DejaVuSans-72" x="1051.318359"/>
      <use xlink:href="#DejaVuSans-69" x="1092.431641"/>
      <use xlink:href="#DejaVuSans-73" x="1120.214844"/>
      <use xlink:href="#DejaVuSans-61" x="1172.314453"/>
      <use xlink:href="#DejaVuSans-6c" x="1233.59375"/>
     </g>
    </g>
   </g>
   <g id="matplotlib.axis_2">
    <g id="ytick_1">
     <g id="line2d_6">
      <defs>
       <path id="m74c81c23ff" d="M 0 0 
L -3.5 0 
" style="stroke: #000000; stroke-width: 0.8"/>
      </defs>
      <g>
       <use xlink:href="#m74c81c23ff" x="59.05" y="172.001468" style="stroke: #000000; stroke-width: 0.8"/>
      </g>
     </g>
     <g id="text_7">
      <!-- −200 -->
      <g transform="translate(24.582812 175.800686)scale(0.1 -0.1)">
       <defs>
        <path id="DejaVuSans-2212" d="M 678 2272 
L 4684 2272 
L 4684 1741 
L 678 1741 
L 678 2272 
z
" transform="scale(0.015625)"/>
       </defs>
       <use xlink:href="#DejaVuSans-2212"/>
       <use xlink:href="#DejaVuSans-32" x="83.789062"/>
       <use xlink:href="#DejaVuSans-30" x="147.412109"/>
       <use xlink:href="#DejaVuSans-30" x="211.035156"/>
      </g>
     </g>
    </g>
    <g id="ytick_2">
     <g id="line2d_7">
      <g>
       <use xlink:href="#m74c81c23ff" x="59.05" y="125.641976" style="stroke: #000000; stroke-width: 0.8"/>
      </g>
     </g>
     <g id="text_8">
      <!-- 0 -->
      <g transform="translate(45.6875 129.441195)scale(0.1 -0.1)">
       <use xlink:href="#DejaVuSans-30"/>
      </g>
     </g>
    </g>
    <g id="ytick_3">
     <g id="line2d_8">
      <g>
       <use xlink:href="#m74c81c23ff" x="59.05" y="79.282485" style="stroke: #000000; stroke-width: 0.8"/>
      </g>
     </g>
     <g id="text_9">
      <!-- 200 -->
      <g transform="translate(32.9625 83.081704)scale(0.1 -0.1)">
       <use xlink:href="#DejaVuSans-32"/>
       <use xlink:href="#DejaVuSans-30" x="63.623047"/>
       <use xlink:href="#DejaVuSans-30" x="127.246094"/>
      </g>
     </g>
    </g>
    <g id="text_10">
     <!-- T-value -->
     <g transform="translate(18.503125 133.428125)rotate(-90)scale(0.1 -0.1)">
      <defs>
       <path id="DejaVuSans-54" d="M -19 4666 
L 3928 4666 
L 3928 4134 
L 2272 4134 
L 2272 0 
L 1638 0 
L 1638 4134 
L -19 4134 
L -19 4666 
z
" transform="scale(0.015625)"/>
       <path id="DejaVuSans-2d" d="M 313 2009 
L 1997 2009 
L 1997 1497 
L 313 1497 
L 313 2009 
z
" transform="scale(0.015625)"/>
       <path id="DejaVuSans-76" d="M 191 3500 
L 800 3500 
L 1894 563 
L 2988 3500 
L 3597 3500 
L 2284 0 
L 1503 0 
L 191 3500 
z
" transform="scale(0.015625)"/>
       <path id="DejaVuSans-65" d="M 3597 1894 
L 3597 1613 
L 953 1613 
Q 991 1019 1311 708 
Q 1631 397 2203 397 
Q 2534 397 2845 478 
Q 3156 559 3463 722 
L 3463 178 
Q 3153 47 2828 -22 
Q 2503 -91 2169 -91 
Q 1331 -91 842 396 
Q 353 884 353 1716 
Q 353 2575 817 3079 
Q 1281 3584 2069 3584 
Q 2775 3584 3186 3129 
Q 3597 2675 3597 1894 
z
M 3022 2063 
Q 3016 2534 2758 2815 
Q 2500 3097 2075 3097 
Q 1594 3097 1305 2825 
Q 1016 2553 972 2059 
L 3022 2063 
z
" transform="scale(0.015625)"/>
      </defs>
      <use xlink:href="#DejaVuSans-54"/>
      <use xlink:href="#DejaVuSans-2d" x="51.958984"/>
      <use xlink:href="#DejaVuSans-76" x="85.417969"/>
      <use xlink:href="#DejaVuSans-61" x="144.597656"/>
      <use xlink:href="#DejaVuSans-6c" x="205.876953"/>
      <use xlink:href="#DejaVuSans-75" x="233.660156"/>
      <use xlink:href="#DejaVuSans-65" x="297.039062"/>
     </g>
    </g>
   </g>
   <g id="line2d_9">
    <path d="M 59.05 168.863636 
L 65.755599 103.707383 
L 72.461197 88.60417 
L 79.166796 82.626459 
L 85.872394 79.529781 
L 92.577993 77.314104 
L 99.283591 75.232729 
L 105.98919 73.323358 
L 112.694788 72.005016 
L 119.400387 70.540857 
L 126.105986 70.290024 
L 132.811584 68.900778 
L 139.517183 67.961874 
L 146.222781 67.063828 
L 152.92838 66.104066 
L 159.633978 65.169624 
L 166.339577 64.35223 
L 173.045175 63.3242 
L 179.750774 62.959627 
L 186.456373 62.136364 
" clip-path="url(#p3ad4ae037c)" style="fill: none; stroke: #1f77b4; stroke-width: 1.5; stroke-linecap: square"/>
   </g>
   <g id="line2d_10">
    <path d="M 59.05 168.863636 
L 65.755599 127.242591 
L 72.461197 127.377404 
L 79.166796 127.29882 
L 85.872394 127.49619 
L 92.577993 127.55636 
L 99.283591 127.659014 
L 105.98919 127.746953 
L 112.694788 127.829591 
L 119.400387 127.869527 
L 126.105986 128.026795 
L 132.811584 128.114885 
L 139.517183 128.247631 
L 146.222781 128.356713 
L 152.92838 128.430446 
L 159.633978 128.500942 
L 166.339577 128.612909 
L 173.045175 128.679018 
L 179.750774 128.753933 
L 186.456373 128.793234 
" clip-path="url(#p3ad4ae037c)" style="fill: none; stroke: #ff7f0e; stroke-width: 1.5; stroke-linecap: square"/>
   </g>
   <g id="line2d_11">
    <path d="M 59.05 125.187653 
L 186.456373 125.187653 
" clip-path="url(#p3ad4ae037c)" style="fill: none; stroke-dasharray: 2.96,1.28; stroke-dashoffset: 0; stroke: #ff0000; stroke-opacity: 0.5; stroke-width: 0.8"/>
   </g>
   <g id="line2d_12">
    <path d="M 59.05 126.096299 
L 186.456373 126.096299 
" clip-path="url(#p3ad4ae037c)" style="fill: none; stroke-dasharray: 2.96,1.28; stroke-dashoffset: 0; stroke: #ff0000; stroke-opacity: 0.5; stroke-width: 0.8"/>
   </g>
   <g id="patch_3">
    <path d="M 59.05 174.2 
L 59.05 56.8 
" style="fill: none; stroke: #000000; stroke-width: 0.8; stroke-linejoin: miter; stroke-linecap: square"/>
   </g>
   <g id="patch_4">
    <path d="M 59.05 174.2 
L 186.456373 174.2 
" style="fill: none; stroke: #000000; stroke-width: 0.8; stroke-linejoin: miter; stroke-linecap: square"/>
   </g>
   <g id="text_11">
    <!-- node split -->
    <g transform="translate(93.250999 23.92525)scale(0.12 -0.12)">
     <defs>
      <path id="DejaVuSans-64" d="M 2906 2969 
L 2906 4863 
L 3481 4863 
L 3481 0 
L 2906 0 
L 2906 525 
Q 2725 213 2448 61 
Q 2172 -91 1784 -91 
Q 1150 -91 751 415 
Q 353 922 353 1747 
Q 353 2572 751 3078 
Q 1150 3584 1784 3584 
Q 2172 3584 2448 3432 
Q 2725 3281 2906 2969 
z
M 947 1747 
Q 947 1113 1208 752 
Q 1469 391 1925 391 
Q 2381 391 2643 752 
Q 2906 1113 2906 1747 
Q 2906 2381 2643 2742 
Q 2381 3103 1925 3103 
Q 1469 3103 1208 2742 
Q 947 2381 947 1747 
z
" transform="scale(0.015625)"/>
     </defs>
     <use xlink:href="#DejaVuSans-6e"/>
     <use xlink:href="#DejaVuSans-6f" x="63.378906"/>
     <use xlink:href="#DejaVuSans-64" x="124.560547"/>
     <use xlink:href="#DejaVuSans-65" x="188.037109"/>
     <use xlink:href="#DejaVuSans-20" x="249.560547"/>
     <use xlink:href="#DejaVuSans-73" x="281.347656"/>
     <use xlink:href="#DejaVuSans-70" x="333.447266"/>
     <use xlink:href="#DejaVuSans-6c" x="396.923828"/>
     <use xlink:href="#DejaVuSans-69" x="424.707031"/>
     <use xlink:href="#DejaVuSans-74" x="452.490234"/>
    </g>
    <!-- vs -->
    <g transform="translate(116.076311 37.362625)scale(0.12 -0.12)">
     <use xlink:href="#DejaVuSans-76"/>
     <use xlink:href="#DejaVuSans-73" x="59.179688"/>
    </g>
    <!-- node -->
    <g transform="translate(107.778499 50.8)scale(0.12 -0.12)">
     <use xlink:href="#DejaVuSans-6e"/>
     <use xlink:href="#DejaVuSans-6f" x="63.378906"/>
     <use xlink:href="#DejaVuSans-64" x="124.560547"/>
     <use xlink:href="#DejaVuSans-65" x="188.037109"/>
    </g>
   </g>
  </g>
  <g id="axes_2">
   <g id="patch_5">
    <path d="M 213.068873 174.2 
L 340.475245 174.2 
L 340.475245 56.8 
L 213.068873 56.8 
z
" style="fill: #ffffff"/>
   </g>
   <g id="matplotlib.axis_3">
    <g id="xtick_6">
     <g id="line2d_13">
      <g>
       <use xlink:href="#maf51498940" x="213.068873" y="174.2" style="stroke: #000000; stroke-width: 0.8"/>
      </g>
     </g>
     <g id="text_12">
      <!-- 0.0 -->
      <g transform="translate(205.11731 188.798438)scale(0.1 -0.1)">
       <use xlink:href="#DejaVuSans-30"/>
       <use xlink:href="#DejaVuSans-2e" x="63.623047"/>
       <use xlink:href="#DejaVuSans-30" x="95.410156"/>
      </g>
     </g>
    </g>
    <g id="xtick_7">
     <g id="line2d_14">
      <g>
       <use xlink:href="#maf51498940" x="244.920466" y="174.2" style="stroke: #000000; stroke-width: 0.8"/>
      </g>
     </g>
     <g id="text_13">
      <!-- 0.5 -->
      <g transform="translate(236.968903 188.798438)scale(0.1 -0.1)">
       <use xlink:href="#DejaVuSans-30"/>
       <use xlink:href="#DejaVuSans-2e" x="63.623047"/>
       <use xlink:href="#DejaVuSans-35" x="95.410156"/>
      </g>
     </g>
    </g>
    <g id="xtick_8">
     <g id="line2d_15">
      <g>
       <use xlink:href="#maf51498940" x="276.772059" y="174.2" style="stroke: #000000; stroke-width: 0.8"/>
      </g>
     </g>
     <g id="text_14">
      <!-- 1.0 -->
      <g transform="translate(268.820496 188.798438)scale(0.1 -0.1)">
       <use xlink:href="#DejaVuSans-31"/>
       <use xlink:href="#DejaVuSans-2e" x="63.623047"/>
       <use xlink:href="#DejaVuSans-30" x="95.410156"/>
      </g>
     </g>
    </g>
    <g id="xtick_9">
     <g id="line2d_16">
      <g>
       <use xlink:href="#maf51498940" x="308.623652" y="174.2" style="stroke: #000000; stroke-width: 0.8"/>
      </g>
     </g>
     <g id="text_15">
      <!-- 1.5 -->
      <g transform="translate(300.672089 188.798438)scale(0.1 -0.1)">
       <use xlink:href="#DejaVuSans-31"/>
       <use xlink:href="#DejaVuSans-2e" x="63.623047"/>
       <use xlink:href="#DejaVuSans-35" x="95.410156"/>
      </g>
     </g>
    </g>
    <g id="xtick_10">
     <g id="line2d_17">
      <g>
       <use xlink:href="#maf51498940" x="340.475245" y="174.2" style="stroke: #000000; stroke-width: 0.8"/>
      </g>
     </g>
     <g id="text_16">
      <!-- 2.0 -->
      <g transform="translate(332.523683 188.798438)scale(0.1 -0.1)">
       <use xlink:href="#DejaVuSans-32"/>
       <use xlink:href="#DejaVuSans-2e" x="63.623047"/>
       <use xlink:href="#DejaVuSans-30" x="95.410156"/>
      </g>
     </g>
    </g>
    <g id="text_17">
     <!-- Multiplication of surprisal -->
     <g transform="translate(213.704871 202.476562)scale(0.1 -0.1)">
      <use xlink:href="#DejaVuSans-4d"/>
      <use xlink:href="#DejaVuSans-75" x="86.279297"/>
      <use xlink:href="#DejaVuSans-6c" x="149.658203"/>
      <use xlink:href="#DejaVuSans-74" x="177.441406"/>
      <use xlink:href="#DejaVuSans-69" x="216.650391"/>
      <use xlink:href="#DejaVuSans-70" x="244.433594"/>
      <use xlink:href="#DejaVuSans-6c" x="307.910156"/>
      <use xlink:href="#DejaVuSans-69" x="335.693359"/>
      <use xlink:href="#DejaVuSans-63" x="363.476562"/>
      <use xlink:href="#DejaVuSans-61" x="418.457031"/>
      <use xlink:href="#DejaVuSans-74" x="479.736328"/>
      <use xlink:href="#DejaVuSans-69" x="518.945312"/>
      <use xlink:href="#DejaVuSans-6f" x="546.728516"/>
      <use xlink:href="#DejaVuSans-6e" x="607.910156"/>
      <use xlink:href="#DejaVuSans-20" x="671.289062"/>
      <use xlink:href="#DejaVuSans-6f" x="703.076172"/>
      <use xlink:href="#DejaVuSans-66" x="764.257812"/>
      <use xlink:href="#DejaVuSans-20" x="799.462891"/>
      <use xlink:href="#DejaVuSans-73" x="831.25"/>
      <use xlink:href="#DejaVuSans-75" x="883.349609"/>
      <use xlink:href="#DejaVuSans-72" x="946.728516"/>
      <use xlink:href="#DejaVuSans-70" x="987.841797"/>
      <use xlink:href="#DejaVuSans-72" x="1051.318359"/>
      <use xlink:href="#DejaVuSans-69" x="1092.431641"/>
      <use xlink:href="#DejaVuSans-73" x="1120.214844"/>
      <use xlink:href="#DejaVuSans-61" x="1172.314453"/>
      <use xlink:href="#DejaVuSans-6c" x="1233.59375"/>
     </g>
    </g>
   </g>
   <g id="line2d_18">
    <path d="M 213.068873 125.587092 
L 219.774471 103.671068 
L 226.48007 88.460486 
L 233.185668 82.675119 
L 239.891267 79.50972 
L 246.596865 77.444226 
L 253.302464 75.476631 
L 260.008062 73.377651 
L 266.713661 71.878514 
L 273.41926 70.296957 
L 280.124858 70.286004 
L 286.830457 68.456388 
L 293.536055 67.971587 
L 300.241654 67.291527 
L 306.947252 66.2537 
L 313.652851 65.269245 
L 320.358449 64.682965 
L 327.064048 63.081914 
L 333.769647 62.906576 
L 340.475245 62.402403 
" clip-path="url(#p3471ad42f2)" style="fill: none; stroke: #1f77b4; stroke-width: 1.5; stroke-linecap: square"/>
   </g>
   <g id="line2d_19">
    <path d="M 213.068873 125.591358 
L 219.774471 125.93642 
L 226.48007 126.046899 
L 233.185668 125.784945 
L 239.891267 125.846608 
L 246.596865 125.239784 
L 253.302464 125.514082 
L 260.008062 125.363429 
L 266.713661 125.576355 
L 273.41926 125.363232 
L 280.124858 125.645946 
L 286.830457 125.65968 
L 293.536055 125.826883 
L 300.241654 126.073363 
L 306.947252 125.597139 
L 313.652851 125.71542 
L 320.358449 125.917165 
L 327.064048 125.671111 
L 333.769647 125.668576 
L 340.475245 125.777389 
" clip-path="url(#p3471ad42f2)" style="fill: none; stroke: #ff7f0e; stroke-width: 1.5; stroke-linecap: square"/>
   </g>
   <g id="line2d_20">
    <path d="M 213.068873 125.187653 
L 340.475245 125.187653 
" clip-path="url(#p3471ad42f2)" style="fill: none; stroke-dasharray: 2.96,1.28; stroke-dashoffset: 0; stroke: #ff0000; stroke-opacity: 0.5; stroke-width: 0.8"/>
   </g>
   <g id="line2d_21">
    <path d="M 213.068873 126.096299 
L 340.475245 126.096299 
" clip-path="url(#p3471ad42f2)" style="fill: none; stroke-dasharray: 2.96,1.28; stroke-dashoffset: 0; stroke: #ff0000; stroke-opacity: 0.5; stroke-width: 0.8"/>
   </g>
   <g id="patch_6">
    <path d="M 213.068873 174.2 
L 213.068873 56.8 
" style="fill: none; stroke: #000000; stroke-width: 0.8; stroke-linejoin: miter; stroke-linecap: square"/>
   </g>
   <g id="patch_7">
    <path d="M 213.068873 174.2 
L 340.475245 174.2 
" style="fill: none; stroke: #000000; stroke-width: 0.8; stroke-linejoin: miter; stroke-linecap: square"/>
   </g>
   <g id="text_18">
    <!-- node split -->
    <g transform="translate(247.269871 23.92525)scale(0.12 -0.12)">
     <use xlink:href="#DejaVuSans-6e"/>
     <use xlink:href="#DejaVuSans-6f" x="63.378906"/>
     <use xlink:href="#DejaVuSans-64" x="124.560547"/>
     <use xlink:href="#DejaVuSans-65" x="188.037109"/>
     <use xlink:href="#DejaVuSans-20" x="249.560547"/>
     <use xlink:href="#DejaVuSans-73" x="281.347656"/>
     <use xlink:href="#DejaVuSans-70" x="333.447266"/>
     <use xlink:href="#DejaVuSans-6c" x="396.923828"/>
     <use xlink:href="#DejaVuSans-69" x="424.707031"/>
     <use xlink:href="#DejaVuSans-74" x="452.490234"/>
    </g>
    <!-- vs -->
    <g transform="translate(270.095184 37.362625)scale(0.12 -0.12)">
     <use xlink:href="#DejaVuSans-76"/>
     <use xlink:href="#DejaVuSans-73" x="59.179688"/>
    </g>
    <!-- node random split -->
    <g transform="translate(222.092371 50.8)scale(0.12 -0.12)">
     <defs>
      <path id="DejaVuSans-6d" d="M 3328 2828 
Q 3544 3216 3844 3400 
Q 4144 3584 4550 3584 
Q 5097 3584 5394 3201 
Q 5691 2819 5691 2113 
L 5691 0 
L 5113 0 
L 5113 2094 
Q 5113 2597 4934 2840 
Q 4756 3084 4391 3084 
Q 3944 3084 3684 2787 
Q 3425 2491 3425 1978 
L 3425 0 
L 2847 0 
L 2847 2094 
Q 2847 2600 2669 2842 
Q 2491 3084 2119 3084 
Q 1678 3084 1418 2786 
Q 1159 2488 1159 1978 
L 1159 0 
L 581 0 
L 581 3500 
L 1159 3500 
L 1159 2956 
Q 1356 3278 1631 3431 
Q 1906 3584 2284 3584 
Q 2666 3584 2933 3390 
Q 3200 3197 3328 2828 
z
" transform="scale(0.015625)"/>
     </defs>
     <use xlink:href="#DejaVuSans-6e"/>
     <use xlink:href="#DejaVuSans-6f" x="63.378906"/>
     <use xlink:href="#DejaVuSans-64" x="124.560547"/>
     <use xlink:href="#DejaVuSans-65" x="188.037109"/>
     <use xlink:href="#DejaVuSans-20" x="249.560547"/>
     <use xlink:href="#DejaVuSans-72" x="281.347656"/>
     <use xlink:href="#DejaVuSans-61" x="322.460938"/>
     <use xlink:href="#DejaVuSans-6e" x="383.740234"/>
     <use xlink:href="#DejaVuSans-64" x="447.119141"/>
     <use xlink:href="#DejaVuSans-6f" x="510.595703"/>
     <use xlink:href="#DejaVuSans-6d" x="571.777344"/>
     <use xlink:href="#DejaVuSans-20" x="669.189453"/>
     <use xlink:href="#DejaVuSans-73" x="700.976562"/>
     <use xlink:href="#DejaVuSans-70" x="753.076172"/>
     <use xlink:href="#DejaVuSans-6c" x="816.552734"/>
     <use xlink:href="#DejaVuSans-69" x="844.335938"/>
     <use xlink:href="#DejaVuSans-74" x="872.119141"/>
    </g>
   </g>
  </g>
  <g id="axes_3">
   <g id="patch_8">
    <path d="M 367.087745 174.2 
L 494.494118 174.2 
L 494.494118 56.8 
L 367.087745 56.8 
z
" style="fill: #ffffff"/>
   </g>
   <g id="matplotlib.axis_4">
    <g id="xtick_11">
     <g id="line2d_22">
      <g>
       <use xlink:href="#maf51498940" x="367.087745" y="174.2" style="stroke: #000000; stroke-width: 0.8"/>
      </g>
     </g>
     <g id="text_19">
      <!-- 0.0 -->
      <g transform="translate(359.136183 188.798438)scale(0.1 -0.1)">
       <use xlink:href="#DejaVuSans-30"/>
       <use xlink:href="#DejaVuSans-2e" x="63.623047"/>
       <use xlink:href="#DejaVuSans-30" x="95.410156"/>
      </g>
     </g>
    </g>
    <g id="xtick_12">
     <g id="line2d_23">
      <g>
       <use xlink:href="#maf51498940" x="398.939338" y="174.2" style="stroke: #000000; stroke-width: 0.8"/>
      </g>
     </g>
     <g id="text_20">
      <!-- 0.5 -->
      <g transform="translate(390.987776 188.798438)scale(0.1 -0.1)">
       <use xlink:href="#DejaVuSans-30"/>
       <use xlink:href="#DejaVuSans-2e" x="63.623047"/>
       <use xlink:href="#DejaVuSans-35" x="95.410156"/>
      </g>
     </g>
    </g>
    <g id="xtick_13">
     <g id="line2d_24">
      <g>
       <use xlink:href="#maf51498940" x="430.790931" y="174.2" style="stroke: #000000; stroke-width: 0.8"/>
      </g>
     </g>
     <g id="text_21">
      <!-- 1.0 -->
      <g transform="translate(422.839369 188.798438)scale(0.1 -0.1)">
       <use xlink:href="#DejaVuSans-31"/>
       <use xlink:href="#DejaVuSans-2e" x="63.623047"/>
       <use xlink:href="#DejaVuSans-30" x="95.410156"/>
      </g>
     </g>
    </g>
    <g id="xtick_14">
     <g id="line2d_25">
      <g>
       <use xlink:href="#maf51498940" x="462.642525" y="174.2" style="stroke: #000000; stroke-width: 0.8"/>
      </g>
     </g>
     <g id="text_22">
      <!-- 1.5 -->
      <g transform="translate(454.690962 188.798438)scale(0.1 -0.1)">
       <use xlink:href="#DejaVuSans-31"/>
       <use xlink:href="#DejaVuSans-2e" x="63.623047"/>
       <use xlink:href="#DejaVuSans-35" x="95.410156"/>
      </g>
     </g>
    </g>
    <g id="xtick_15">
     <g id="line2d_26">
      <g>
       <use xlink:href="#maf51498940" x="494.494118" y="174.2" style="stroke: #000000; stroke-width: 0.8"/>
      </g>
     </g>
     <g id="text_23">
      <!-- 2.0 -->
      <g transform="translate(486.542555 188.798438)scale(0.1 -0.1)">
       <use xlink:href="#DejaVuSans-32"/>
       <use xlink:href="#DejaVuSans-2e" x="63.623047"/>
       <use xlink:href="#DejaVuSans-30" x="95.410156"/>
      </g>
     </g>
    </g>
    <g id="text_24">
     <!-- Multiplication of surprisal -->
     <g transform="translate(367.723744 202.476562)scale(0.1 -0.1)">
      <use xlink:href="#DejaVuSans-4d"/>
      <use xlink:href="#DejaVuSans-75" x="86.279297"/>
      <use xlink:href="#DejaVuSans-6c" x="149.658203"/>
      <use xlink:href="#DejaVuSans-74" x="177.441406"/>
      <use xlink:href="#DejaVuSans-69" x="216.650391"/>
      <use xlink:href="#DejaVuSans-70" x="244.433594"/>
      <use xlink:href="#DejaVuSans-6c" x="307.910156"/>
      <use xlink:href="#DejaVuSans-69" x="335.693359"/>
      <use xlink:href="#DejaVuSans-63" x="363.476562"/>
      <use xlink:href="#DejaVuSans-61" x="418.457031"/>
      <use xlink:href="#DejaVuSans-74" x="479.736328"/>
      <use xlink:href="#DejaVuSans-69" x="518.945312"/>
      <use xlink:href="#DejaVuSans-6f" x="546.728516"/>
      <use xlink:href="#DejaVuSans-6e" x="607.910156"/>
      <use xlink:href="#DejaVuSans-20" x="671.289062"/>
      <use xlink:href="#DejaVuSans-6f" x="703.076172"/>
      <use xlink:href="#DejaVuSans-66" x="764.257812"/>
      <use xlink:href="#DejaVuSans-20" x="799.462891"/>
      <use xlink:href="#DejaVuSans-73" x="831.25"/>
      <use xlink:href="#DejaVuSans-75" x="883.349609"/>
      <use xlink:href="#DejaVuSans-72" x="946.728516"/>
      <use xlink:href="#DejaVuSans-70" x="987.841797"/>
      <use xlink:href="#DejaVuSans-72" x="1051.318359"/>
      <use xlink:href="#DejaVuSans-69" x="1092.431641"/>
      <use xlink:href="#DejaVuSans-73" x="1120.214844"/>
      <use xlink:href="#DejaVuSans-61" x="1172.314453"/>
      <use xlink:href="#DejaVuSans-6c" x="1233.59375"/>
     </g>
    </g>
   </g>
   <g id="line2d_27">
    <path d="M 367.087745 98.906007 
L 373.793344 150.606957 
L 380.498942 156.654195 
L 387.204541 156.801142 
L 393.910139 154.327021 
L 400.615738 149.241992 
L 407.321336 143.710255 
L 414.026935 138.637801 
L 420.732534 134.326341 
L 427.438132 130.537912 
L 434.143731 127.092333 
L 440.849329 123.702112 
L 447.554928 120.304177 
L 454.260526 116.734284 
L 460.966125 113.088687 
L 467.671723 109.316469 
L 474.377322 105.4047 
L 481.082921 101.50984 
L 487.788519 97.602689 
L 494.494118 93.622956 
" clip-path="url(#p512aefe3d1)" style="fill: none; stroke: #1f77b4; stroke-width: 1.5; stroke-linecap: square"/>
   </g>
   <g id="line2d_28">
    <path d="M 367.087745 98.906007 
L 373.793344 124.521739 
L 380.498942 124.933653 
L 387.204541 124.710951 
L 393.910139 124.783762 
L 400.615738 124.771584 
L 407.321336 124.775437 
L 414.026935 124.754236 
L 420.732534 124.651281 
L 427.438132 124.537275 
L 434.143731 124.578402 
L 440.849329 124.527227 
L 447.554928 124.483022 
L 454.260526 124.431785 
L 460.966125 124.37007 
L 467.671723 124.347904 
L 474.377322 124.266752 
L 481.082921 124.264704 
L 487.788519 124.164501 
L 494.494118 124.164979 
" clip-path="url(#p512aefe3d1)" style="fill: none; stroke: #ff7f0e; stroke-width: 1.5; stroke-linecap: square"/>
   </g>
   <g id="line2d_29">
    <path d="M 367.087745 125.187653 
L 494.494118 125.187653 
" clip-path="url(#p512aefe3d1)" style="fill: none; stroke-dasharray: 2.96,1.28; stroke-dashoffset: 0; stroke: #ff0000; stroke-opacity: 0.5; stroke-width: 0.8"/>
   </g>
   <g id="line2d_30">
    <path d="M 367.087745 126.096299 
L 494.494118 126.096299 
" clip-path="url(#p512aefe3d1)" style="fill: none; stroke-dasharray: 2.96,1.28; stroke-dashoffset: 0; stroke: #ff0000; stroke-opacity: 0.5; stroke-width: 0.8"/>
   </g>
   <g id="patch_9">
    <path d="M 367.087745 174.2 
L 367.087745 56.8 
" style="fill: none; stroke: #000000; stroke-width: 0.8; stroke-linejoin: miter; stroke-linecap: square"/>
   </g>
   <g id="patch_10">
    <path d="M 367.087745 174.2 
L 494.494118 174.2 
" style="fill: none; stroke: #000000; stroke-width: 0.8; stroke-linejoin: miter; stroke-linecap: square"/>
   </g>
   <g id="text_25">
    <!-- node split -->
    <g transform="translate(401.288744 23.92525)scale(0.12 -0.12)">
     <use xlink:href="#DejaVuSans-6e"/>
     <use xlink:href="#DejaVuSans-6f" x="63.378906"/>
     <use xlink:href="#DejaVuSans-64" x="124.560547"/>
     <use xlink:href="#DejaVuSans-65" x="188.037109"/>
     <use xlink:href="#DejaVuSans-20" x="249.560547"/>
     <use xlink:href="#DejaVuSans-73" x="281.347656"/>
     <use xlink:href="#DejaVuSans-70" x="333.447266"/>
     <use xlink:href="#DejaVuSans-6c" x="396.923828"/>
     <use xlink:href="#DejaVuSans-69" x="424.707031"/>
     <use xlink:href="#DejaVuSans-74" x="452.490234"/>
    </g>
    <!-- vs -->
    <g transform="translate(424.114056 37.362625)scale(0.12 -0.12)">
     <use xlink:href="#DejaVuSans-76"/>
     <use xlink:href="#DejaVuSans-73" x="59.179688"/>
    </g>
    <!-- node + surprisal + interaction -->
    <g transform="translate(339.877806 50.8)scale(0.12 -0.12)">
     <defs>
      <path id="DejaVuSans-2b" d="M 2944 4013 
L 2944 2272 
L 4684 2272 
L 4684 1741 
L 2944 1741 
L 2944 0 
L 2419 0 
L 2419 1741 
L 678 1741 
L 678 2272 
L 2419 2272 
L 2419 4013 
L 2944 4013 
z
" transform="scale(0.015625)"/>
     </defs>
     <use xlink:href="#DejaVuSans-6e"/>
     <use xlink:href="#DejaVuSans-6f" x="63.378906"/>
     <use xlink:href="#DejaVuSans-64" x="124.560547"/>
     <use xlink:href="#DejaVuSans-65" x="188.037109"/>
     <use xlink:href="#DejaVuSans-20" x="249.560547"/>
     <use xlink:href="#DejaVuSans-2b" x="281.347656"/>
     <use xlink:href="#DejaVuSans-20" x="365.136719"/>
     <use xlink:href="#DejaVuSans-73" x="396.923828"/>
     <use xlink:href="#DejaVuSans-75" x="449.023438"/>
     <use xlink:href="#DejaVuSans-72" x="512.402344"/>
     <use xlink:href="#DejaVuSans-70" x="553.515625"/>
     <use xlink:href="#DejaVuSans-72" x="616.992188"/>
     <use xlink:href="#DejaVuSans-69" x="658.105469"/>
     <use xlink:href="#DejaVuSans-73" x="685.888672"/>
     <use xlink:href="#DejaVuSans-61" x="737.988281"/>
     <use xlink:href="#DejaVuSans-6c" x="799.267578"/>
     <use xlink:href="#DejaVuSans-20" x="827.050781"/>
     <use xlink:href="#DejaVuSans-2b" x="858.837891"/>
     <use xlink:href="#DejaVuSans-20" x="942.626953"/>
     <use xlink:href="#DejaVuSans-69" x="974.414062"/>
     <use xlink:href="#DejaVuSans-6e" x="1002.197266"/>
     <use xlink:href="#DejaVuSans-74" x="1065.576172"/>
     <use xlink:href="#DejaVuSans-65" x="1104.785156"/>
     <use xlink:href="#DejaVuSans-72" x="1166.308594"/>
     <use xlink:href="#DejaVuSans-61" x="1207.421875"/>
     <use xlink:href="#DejaVuSans-63" x="1268.701172"/>
     <use xlink:href="#DejaVuSans-74" x="1323.681641"/>
     <use xlink:href="#DejaVuSans-69" x="1362.890625"/>
     <use xlink:href="#DejaVuSans-6f" x="1390.673828"/>
     <use xlink:href="#DejaVuSans-6e" x="1451.855469"/>
    </g>
   </g>
   <g id="legend_1">
    <g id="line2d_31">
     <path d="M 515.870803 69.898438 
L 525.870803 69.898438 
L 535.870803 69.898438 
" style="fill: none; stroke: #1f77b4; stroke-width: 1.5; stroke-linecap: square"/>
    </g>
    <g id="text_26">
     <!-- Surprisal -->
     <g transform="translate(543.870803 73.398438)scale(0.1 -0.1)">
      <defs>
       <path id="DejaVuSans-53" d="M 3425 4513 
L 3425 3897 
Q 3066 4069 2747 4153 
Q 2428 4238 2131 4238 
Q 1616 4238 1336 4038 
Q 1056 3838 1056 3469 
Q 1056 3159 1242 3001 
Q 1428 2844 1947 2747 
L 2328 2669 
Q 3034 2534 3370 2195 
Q 3706 1856 3706 1288 
Q 3706 609 3251 259 
Q 2797 -91 1919 -91 
Q 1588 -91 1214 -16 
Q 841 59 441 206 
L 441 856 
Q 825 641 1194 531 
Q 1563 422 1919 422 
Q 2459 422 2753 634 
Q 3047 847 3047 1241 
Q 3047 1584 2836 1778 
Q 2625 1972 2144 2069 
L 1759 2144 
Q 1053 2284 737 2584 
Q 422 2884 422 3419 
Q 422 4038 858 4394 
Q 1294 4750 2059 4750 
Q 2388 4750 2728 4690 
Q 3069 4631 3425 4513 
z
" transform="scale(0.015625)"/>
      </defs>
      <use xlink:href="#DejaVuSans-53"/>
      <use xlink:href="#DejaVuSans-75" x="63.476562"/>
      <use xlink:href="#DejaVuSans-72" x="126.855469"/>
      <use xlink:href="#DejaVuSans-70" x="167.96875"/>
      <use xlink:href="#DejaVuSans-72" x="231.445312"/>
      <use xlink:href="#DejaVuSans-69" x="272.558594"/>
      <use xlink:href="#DejaVuSans-73" x="300.341797"/>
      <use xlink:href="#DejaVuSans-61" x="352.441406"/>
      <use xlink:href="#DejaVuSans-6c" x="413.720703"/>
     </g>
    </g>
    <g id="line2d_32">
     <path d="M 515.870803 84.576562 
L 525.870803 84.576562 
L 535.870803 84.576562 
" style="fill: none; stroke: #ff7f0e; stroke-width: 1.5; stroke-linecap: square"/>
    </g>
    <g id="text_27">
     <!-- Third variable -->
     <g transform="translate(543.870803 88.076562)scale(0.1 -0.1)">
      <defs>
       <path id="DejaVuSans-68" d="M 3513 2113 
L 3513 0 
L 2938 0 
L 2938 2094 
Q 2938 2591 2744 2837 
Q 2550 3084 2163 3084 
Q 1697 3084 1428 2787 
Q 1159 2491 1159 1978 
L 1159 0 
L 581 0 
L 581 4863 
L 1159 4863 
L 1159 2956 
Q 1366 3272 1645 3428 
Q 1925 3584 2291 3584 
Q 2894 3584 3203 3211 
Q 3513 2838 3513 2113 
z
" transform="scale(0.015625)"/>
       <path id="DejaVuSans-62" d="M 3116 1747 
Q 3116 2381 2855 2742 
Q 2594 3103 2138 3103 
Q 1681 3103 1420 2742 
Q 1159 2381 1159 1747 
Q 1159 1113 1420 752 
Q 1681 391 2138 391 
Q 2594 391 2855 752 
Q 3116 1113 3116 1747 
z
M 1159 2969 
Q 1341 3281 1617 3432 
Q 1894 3584 2278 3584 
Q 2916 3584 3314 3078 
Q 3713 2572 3713 1747 
Q 3713 922 3314 415 
Q 2916 -91 2278 -91 
Q 1894 -91 1617 61 
Q 1341 213 1159 525 
L 1159 0 
L 581 0 
L 581 4863 
L 1159 4863 
L 1159 2969 
z
" transform="scale(0.015625)"/>
      </defs>
      <use xlink:href="#DejaVuSans-54"/>
      <use xlink:href="#DejaVuSans-68" x="61.083984"/>
      <use xlink:href="#DejaVuSans-69" x="124.462891"/>
      <use xlink:href="#DejaVuSans-72" x="152.246094"/>
      <use xlink:href="#DejaVuSans-64" x="191.609375"/>
      <use xlink:href="#DejaVuSans-20" x="255.085938"/>
      <use xlink:href="#DejaVuSans-76" x="286.873047"/>
      <use xlink:href="#DejaVuSans-61" x="346.052734"/>
      <use xlink:href="#DejaVuSans-72" x="407.332031"/>
      <use xlink:href="#DejaVuSans-69" x="448.445312"/>
      <use xlink:href="#DejaVuSans-61" x="476.228516"/>
      <use xlink:href="#DejaVuSans-62" x="537.507812"/>
      <use xlink:href="#DejaVuSans-6c" x="600.984375"/>
      <use xlink:href="#DejaVuSans-65" x="628.767578"/>
     </g>
    </g>
   </g>
  </g>
 </g>
 <defs>
  <clipPath id="p3ad4ae037c">
   <rect x="59.05" y="56.8" width="127.406373" height="117.4"/>
  </clipPath>
  <clipPath id="p3471ad42f2">
   <rect x="213.068873" y="56.8" width="127.406373" height="117.4"/>
  </clipPath>
  <clipPath id="p512aefe3d1">
   <rect x="367.087745" y="56.8" width="127.406373" height="117.4"/>
  </clipPath>
 </defs>
</svg>
