<?xml version="1.0" encoding="utf-8" standalone="no"?>
<!DOCTYPE svg PUBLIC "-//W3C//DTD SVG 1.1//EN"
  "http://www.w3.org/Graphics/SVG/1.1/DTD/svg11.dtd">
<svg xmlns:xlink="http://www.w3.org/1999/xlink" width="720pt" height="216pt" viewBox="0 0 720 216" xmlns="http://www.w3.org/2000/svg" version="1.1">
 <metadata>
  <rdf:RDF xmlns:dc="http://purl.org/dc/elements/1.1/" xmlns:cc="http://creativecommons.org/ns#" xmlns:rdf="http://www.w3.org/1999/02/22-rdf-syntax-ns#">
   <cc:Work>
    <dc:type rdf:resource="http://purl.org/dc/dcmitype/StillImage"/>
    <dc:date>2024-01-15T21:33:46.535463</dc:date>
    <dc:format>image/svg+xml</dc:format>
    <dc:creator>
     <cc:Agent>
      <dc:title>Matplotlib v3.5.1, https://matplotlib.org/</dc:title>
     </cc:Agent>
    </dc:creator>
   </cc:Work>
  </rdf:RDF>
 </metadata>
 <defs>
  <style type="text/css">*{stroke-linejoin: round; stroke-linecap: butt}</style>
 </defs>
 <g id="figure_1">
  <g id="patch_1">
   <path d="M 0 216 
L 720 216 
L 720 0 
L 0 0 
z
" style="fill: #ffffff"/>
  </g>
  <g id="axes_1">
   <g id="patch_2">
    <path d="M 47.72 174.04 
L 265.215 174.04 
L 265.215 26.88 
L 47.72 26.88 
z
" style="fill: #ffffff"/>
   </g>
   <g id="PolyCollection_1">
    <path d="M 47.72 33.569091 
L 47.72 33.569091 
L 59.167105 35.942748 
L 70.614211 42.243544 
L 82.061316 50.41735 
L 93.508421 59.911075 
L 104.955526 70.212034 
L 116.402632 79.916882 
L 127.849737 89.272886 
L 139.296842 98.899625 
L 150.743947 106.676155 
L 162.191053 115.429054 
L 173.638158 123.836427 
L 185.085263 130.846138 
L 196.532368 137.224128 
L 207.979474 143.065358 
L 219.426579 147.159397 
L 230.873684 151.258564 
L 242.320789 154.556949 
L 253.767895 157.375194 
L 265.215 159.08201 
L 265.215 146.010276 
L 265.215 146.010276 
L 253.767895 142.963509 
L 242.320789 138.872499 
L 230.873684 135.891441 
L 219.426579 131.301603 
L 207.979474 126.996954 
L 196.532368 121.813971 
L 185.085263 116.517018 
L 173.638158 109.944054 
L 162.191053 103.316538 
L 150.743947 95.931406 
L 139.296842 87.632932 
L 127.849737 79.102186 
L 116.402632 70.600647 
L 104.955526 61.379746 
L 93.508421 53.553999 
L 82.061316 45.668306 
L 70.614211 39.726488 
L 59.167105 35.005316 
L 47.72 33.569091 
z
" clip-path="url(#pfdb793129a)" style="fill: #1f77b4; fill-opacity: 0.4"/>
   </g>
   <g id="PolyCollection_2">
    <path d="M 47.72 33.569209 
L 47.72 33.569244 
L 59.167105 35.097406 
L 70.614211 38.32241 
L 82.061316 43.306692 
L 93.508421 50.026705 
L 104.955526 58.023362 
L 116.402632 66.119987 
L 127.849737 74.364775 
L 139.296842 83.248527 
L 150.743947 90.670765 
L 162.191053 98.951922 
L 173.638158 107.43631 
L 185.085263 114.424467 
L 196.532368 121.416784 
L 207.979474 127.626823 
L 219.426579 132.608753 
L 230.873684 137.770607 
L 242.320789 141.860396 
L 253.767895 146.021772 
L 265.215 148.786292 
L 265.215 136.298358 
L 265.215 136.298358 
L 253.767895 132.776416 
L 242.320789 127.773331 
L 230.873684 124.319316 
L 219.426579 119.109295 
L 207.979474 114.407337 
L 196.532368 108.461376 
L 185.085263 102.88002 
L 173.638158 95.830032 
L 162.191053 89.144785 
L 150.743947 81.895842 
L 139.296842 74.555187 
L 127.849737 66.782205 
L 116.402632 59.644673 
L 104.955526 52.200913 
L 93.508421 46.127383 
L 82.061316 40.797329 
L 70.614211 37.110257 
L 59.167105 34.536723 
L 47.72 33.569209 
z
" clip-path="url(#pfdb793129a)" style="fill: #ff7f0e; fill-opacity: 0.4"/>
   </g>
   <g id="PolyCollection_3">
    <path d="M 47.72 33.569091 
L 47.72 33.569091 
L 59.167105 35.343623 
L 70.614211 38.473738 
L 82.061316 42.134486 
L 93.508421 46.680803 
L 104.955526 51.09483 
L 116.402632 55.762836 
L 127.849737 59.838821 
L 139.296842 64.880956 
L 150.743947 68.999225 
L 162.191053 73.922489 
L 173.638158 78.301816 
L 185.085263 82.507335 
L 196.532368 87.041248 
L 207.979474 91.697337 
L 219.426579 95.872458 
L 230.873684 101.547505 
L 242.320789 105.66493 
L 253.767895 110.856565 
L 265.215 115.017093 
L 265.215 105.311482 
L 265.215 105.311482 
L 253.767895 101.512914 
L 242.320789 97.579214 
L 230.873684 93.973489 
L 219.426579 89.703377 
L 207.979474 85.395573 
L 196.532368 80.797919 
L 185.085263 76.66143 
L 173.638158 71.778943 
L 162.191053 67.299065 
L 150.743947 62.725432 
L 139.296842 58.496564 
L 127.849737 54.298855 
L 116.402632 50.53717 
L 104.955526 46.094832 
L 93.508421 42.766569 
L 82.061316 39.53878 
L 70.614211 36.892963 
L 59.167105 34.698475 
L 47.72 33.569091 
z
" clip-path="url(#pfdb793129a)" style="fill: #2ca02c; fill-opacity: 0.4"/>
   </g>
   <g id="PolyCollection_4">
    <path d="M 47.72 33.569729 
L 47.72 33.569896 
L 59.167105 34.996091 
L 70.614211 37.19228 
L 82.061316 40.227536 
L 93.508421 44.339291 
L 104.955526 48.587501 
L 116.402632 53.338618 
L 127.849737 57.650203 
L 139.296842 62.985849 
L 150.743947 67.393818 
L 162.191053 72.583 
L 173.638158 77.207479 
L 185.085263 81.499615 
L 196.532368 86.079499 
L 207.979474 90.645055 
L 219.426579 94.736189 
L 230.873684 100.227071 
L 242.320789 104.030095 
L 253.767895 108.92139 
L 265.215 112.860031 
L 265.215 103.36976 
L 265.215 103.36976 
L 253.767895 99.850321 
L 242.320789 96.269969 
L 230.873684 92.76525 
L 219.426579 88.609306 
L 207.979474 84.419956 
L 196.532368 79.863123 
L 185.085263 75.79332 
L 173.638158 70.991799 
L 162.191053 66.376514 
L 150.743947 61.83822 
L 139.296842 57.459174 
L 127.849737 53.086032 
L 116.402632 49.132932 
L 104.955526 44.653839 
L 93.508421 41.341765 
L 82.061316 38.44266 
L 70.614211 36.237451 
L 59.167105 34.493025 
L 47.72 33.569729 
z
" clip-path="url(#pfdb793129a)" style="fill: #d62728; fill-opacity: 0.4"/>
   </g>
   <g id="PolyCollection_5">
    <path d="M 47.72 33.569091 
L 47.72 33.569091 
L 59.167105 35.97423 
L 70.614211 42.232322 
L 82.061316 50.464503 
L 93.508421 59.976396 
L 104.955526 70.260904 
L 116.402632 79.942396 
L 127.849737 89.279059 
L 139.296842 98.792805 
L 150.743947 106.762763 
L 162.191053 115.327909 
L 173.638158 124.097462 
L 185.085263 131.266345 
L 196.532368 137.761012 
L 207.979474 142.616769 
L 219.426579 147.007492 
L 230.873684 151.516151 
L 242.320789 154.36125 
L 253.767895 157.509367 
L 265.215 158.864503 
L 265.215 145.352096 
L 265.215 145.352096 
L 253.767895 144.176169 
L 242.320789 138.656408 
L 230.873684 136.497053 
L 219.426579 131.85903 
L 207.979474 127.829372 
L 196.532368 122.455152 
L 185.085263 117.249411 
L 173.638158 110.579734 
L 162.191053 103.644418 
L 150.743947 95.975333 
L 139.296842 87.550799 
L 127.849737 79.049751 
L 116.402632 70.781186 
L 104.955526 61.483037 
L 93.508421 53.55957 
L 82.061316 45.663716 
L 70.614211 39.720203 
L 59.167105 35.024434 
L 47.72 33.569091 
z
" clip-path="url(#pfdb793129a)" style="fill: #9467bd; fill-opacity: 0.4"/>
   </g>
   <g id="PolyCollection_6">
    <path d="M 47.72 33.569561 
L 47.72 33.569705 
L 59.167105 35.105011 
L 70.614211 38.329756 
L 82.061316 43.341035 
L 93.508421 50.082156 
L 104.955526 58.054572 
L 116.402632 66.136102 
L 127.849737 74.491159 
L 139.296842 83.224932 
L 150.743947 90.850268 
L 162.191053 98.933016 
L 173.638158 107.557364 
L 185.085263 114.730911 
L 196.532368 121.582651 
L 207.979474 127.531875 
L 219.426579 132.518916 
L 230.873684 137.71889 
L 242.320789 141.806648 
L 253.767895 146.079649 
L 265.215 148.576057 
L 265.215 136.033807 
L 265.215 136.033807 
L 253.767895 133.650412 
L 242.320789 127.725975 
L 230.873684 124.80519 
L 219.426579 119.482748 
L 207.979474 115.017704 
L 196.532368 109.185033 
L 185.085263 103.307963 
L 173.638158 96.359558 
L 162.191053 89.510901 
L 150.743947 81.991497 
L 139.296842 74.541531 
L 127.849737 66.710709 
L 116.402632 59.728027 
L 104.955526 52.247962 
L 93.508421 46.128974 
L 82.061316 40.814395 
L 70.614211 37.10139 
L 59.167105 34.536208 
L 47.72 33.569561 
z
" clip-path="url(#pfdb793129a)" style="fill: #8c564b; fill-opacity: 0.4"/>
   </g>
   <g id="PolyCollection_7">
    <path d="M 47.72 44.02442 
L 47.72 47.236425 
L 59.167105 50.353352 
L 70.614211 58.430247 
L 82.061316 68.735927 
L 93.508421 80.236598 
L 104.955526 90.994581 
L 116.402632 100.500348 
L 127.849737 109.364263 
L 139.296842 117.574459 
L 150.743947 124.463704 
L 162.191053 131.358886 
L 173.638158 138.129734 
L 185.085263 143.561477 
L 196.532368 148.735439 
L 207.979474 153.266596 
L 219.426579 157.34677 
L 230.873684 160.575348 
L 242.320789 163.46355 
L 253.767895 165.805456 
L 265.215 167.350909 
L 265.215 156.931131 
L 265.215 156.931131 
L 253.767895 154.632194 
L 242.320789 151.365071 
L 230.873684 148.762969 
L 219.426579 144.589987 
L 207.979474 141.296339 
L 196.532368 136.054582 
L 185.085263 130.825475 
L 173.638158 124.740051 
L 162.191053 117.983246 
L 150.743947 110.591708 
L 139.296842 102.622167 
L 127.849737 94.166946 
L 116.402632 86.006988 
L 104.955526 76.274831 
L 93.508421 67.375471 
L 82.061316 58.697689 
L 70.614211 51.344109 
L 59.167105 46.024921 
L 47.72 44.02442 
z
" clip-path="url(#pfdb793129a)" style="fill: #e377c2; fill-opacity: 0.4"/>
   </g>
   <g id="PolyCollection_8">
    <path d="M 47.72 33.569269 
L 47.72 33.569436 
L 59.167105 34.27242 
L 70.614211 35.319107 
L 82.061316 37.922602 
L 93.508421 43.079704 
L 104.955526 49.788495 
L 116.402632 57.638321 
L 127.849737 65.457473 
L 139.296842 73.945676 
L 150.743947 81.152102 
L 162.191053 89.585077 
L 173.638158 97.363407 
L 185.085263 104.449 
L 196.532368 111.540737 
L 207.979474 118.065453 
L 219.426579 123.496917 
L 230.873684 129.44986 
L 242.320789 134.076349 
L 253.767895 139.071619 
L 265.215 142.541748 
L 265.215 130.222447 
L 265.215 130.222447 
L 253.767895 126.137874 
L 242.320789 120.708939 
L 230.873684 116.597489 
L 219.426579 110.565671 
L 207.979474 105.338392 
L 196.532368 98.561595 
L 185.085263 92.383591 
L 173.638158 84.64803 
L 162.191053 77.644053 
L 150.743947 70.22494 
L 139.296842 63.383798 
L 127.849737 55.728543 
L 116.402632 49.412515 
L 104.955526 43.330463 
L 93.508421 38.919562 
L 82.061316 35.975153 
L 70.614211 34.532085 
L 59.167105 34.080551 
L 47.72 33.569269 
z
" clip-path="url(#pfdb793129a)" style="fill: #7f7f7f; fill-opacity: 0.4"/>
   </g>
   <g id="matplotlib.axis_1">
    <g id="xtick_1">
     <g id="line2d_1">
      <defs>
       <path id="ma301e763ba" d="M 0 0 
L 0 3.5 
" style="stroke: #000000; stroke-width: 0.8"/>
      </defs>
      <g>
       <use xlink:href="#ma301e763ba" x="47.72" y="174.04" style="stroke: #000000; stroke-width: 0.8"/>
      </g>
     </g>
     <g id="text_1">
      <!-- 0.0 -->
      <g transform="translate(39.768438 188.638438)scale(0.1 -0.1)">
       <defs>
        <path id="DejaVuSans-30" d="M 2034 4250 
Q 1547 4250 1301 3770 
Q 1056 3291 1056 2328 
Q 1056 1369 1301 889 
Q 1547 409 2034 409 
Q 2525 409 2770 889 
Q 3016 1369 3016 2328 
Q 3016 3291 2770 3770 
Q 2525 4250 2034 4250 
z
M 2034 4750 
Q 2819 4750 3233 4129 
Q 3647 3509 3647 2328 
Q 3647 1150 3233 529 
Q 2819 -91 2034 -91 
Q 1250 -91 836 529 
Q 422 1150 422 2328 
Q 422 3509 836 4129 
Q 1250 4750 2034 4750 
z
" transform="scale(0.015625)"/>
        <path id="DejaVuSans-2e" d="M 684 794 
L 1344 794 
L 1344 0 
L 684 0 
L 684 794 
z
" transform="scale(0.015625)"/>
       </defs>
       <use xlink:href="#DejaVuSans-30"/>
       <use xlink:href="#DejaVuSans-2e" x="63.623047"/>
       <use xlink:href="#DejaVuSans-30" x="95.410156"/>
      </g>
     </g>
    </g>
    <g id="xtick_2">
     <g id="line2d_2">
      <g>
       <use xlink:href="#ma301e763ba" x="102.09375" y="174.04" style="stroke: #000000; stroke-width: 0.8"/>
      </g>
     </g>
     <g id="text_2">
      <!-- 0.5 -->
      <g transform="translate(94.142188 188.638438)scale(0.1 -0.1)">
       <defs>
        <path id="DejaVuSans-35" d="M 691 4666 
L 3169 4666 
L 3169 4134 
L 1269 4134 
L 1269 2991 
Q 1406 3038 1543 3061 
Q 1681 3084 1819 3084 
Q 2600 3084 3056 2656 
Q 3513 2228 3513 1497 
Q 3513 744 3044 326 
Q 2575 -91 1722 -91 
Q 1428 -91 1123 -41 
Q 819 9 494 109 
L 494 744 
Q 775 591 1075 516 
Q 1375 441 1709 441 
Q 2250 441 2565 725 
Q 2881 1009 2881 1497 
Q 2881 1984 2565 2268 
Q 2250 2553 1709 2553 
Q 1456 2553 1204 2497 
Q 953 2441 691 2322 
L 691 4666 
z
" transform="scale(0.015625)"/>
       </defs>
       <use xlink:href="#DejaVuSans-30"/>
       <use xlink:href="#DejaVuSans-2e" x="63.623047"/>
       <use xlink:href="#DejaVuSans-35" x="95.410156"/>
      </g>
     </g>
    </g>
    <g id="xtick_3">
     <g id="line2d_3">
      <g>
       <use xlink:href="#ma301e763ba" x="156.4675" y="174.04" style="stroke: #000000; stroke-width: 0.8"/>
      </g>
     </g>
     <g id="text_3">
      <!-- 1.0 -->
      <g transform="translate(148.515938 188.638438)scale(0.1 -0.1)">
       <defs>
        <path id="DejaVuSans-31" d="M 794 531 
L 1825 531 
L 1825 4091 
L 703 3866 
L 703 4441 
L 1819 4666 
L 2450 4666 
L 2450 531 
L 3481 531 
L 3481 0 
L 794 0 
L 794 531 
z
" transform="scale(0.015625)"/>
       </defs>
       <use xlink:href="#DejaVuSans-31"/>
       <use xlink:href="#DejaVuSans-2e" x="63.623047"/>
       <use xlink:href="#DejaVuSans-30" x="95.410156"/>
      </g>
     </g>
    </g>
    <g id="xtick_4">
     <g id="line2d_4">
      <g>
       <use xlink:href="#ma301e763ba" x="210.84125" y="174.04" style="stroke: #000000; stroke-width: 0.8"/>
      </g>
     </g>
     <g id="text_4">
      <!-- 1.5 -->
      <g transform="translate(202.889687 188.638438)scale(0.1 -0.1)">
       <use xlink:href="#DejaVuSans-31"/>
       <use xlink:href="#DejaVuSans-2e" x="63.623047"/>
       <use xlink:href="#DejaVuSans-35" x="95.410156"/>
      </g>
     </g>
    </g>
    <g id="xtick_5">
     <g id="line2d_5">
      <g>
       <use xlink:href="#ma301e763ba" x="265.215" y="174.04" style="stroke: #000000; stroke-width: 0.8"/>
      </g>
     </g>
     <g id="text_5">
      <!-- 2.0 -->
      <g transform="translate(257.263437 188.638438)scale(0.1 -0.1)">
       <defs>
        <path id="DejaVuSans-32" d="M 1228 531 
L 3431 531 
L 3431 0 
L 469 0 
L 469 531 
Q 828 903 1448 1529 
Q 2069 2156 2228 2338 
Q 2531 2678 2651 2914 
Q 2772 3150 2772 3378 
Q 2772 3750 2511 3984 
Q 2250 4219 1831 4219 
Q 1534 4219 1204 4116 
Q 875 4013 500 3803 
L 500 4441 
Q 881 4594 1212 4672 
Q 1544 4750 1819 4750 
Q 2544 4750 2975 4387 
Q 3406 4025 3406 3419 
Q 3406 3131 3298 2873 
Q 3191 2616 2906 2266 
Q 2828 2175 2409 1742 
Q 1991 1309 1228 531 
z
" transform="scale(0.015625)"/>
       </defs>
       <use xlink:href="#DejaVuSans-32"/>
       <use xlink:href="#DejaVuSans-2e" x="63.623047"/>
       <use xlink:href="#DejaVuSans-30" x="95.410156"/>
      </g>
     </g>
    </g>
    <g id="text_6">
     <!-- Influence of surprisal (multiplication) -->
     <g transform="translate(64.320625 202.316563)scale(0.1 -0.1)">
      <defs>
       <path id="DejaVuSans-49" d="M 628 4666 
L 1259 4666 
L 1259 0 
L 628 0 
L 628 4666 
z
" transform="scale(0.015625)"/>
       <path id="DejaVuSans-6e" d="M 3513 2113 
L 3513 0 
L 2938 0 
L 2938 2094 
Q 2938 2591 2744 2837 
Q 2550 3084 2163 3084 
Q 1697 3084 1428 2787 
Q 1159 2491 1159 1978 
L 1159 0 
L 581 0 
L 581 3500 
L 1159 3500 
L 1159 2956 
Q 1366 3272 1645 3428 
Q 1925 3584 2291 3584 
Q 2894 3584 3203 3211 
Q 3513 2838 3513 2113 
z
" transform="scale(0.015625)"/>
       <path id="DejaVuSans-66" d="M 2375 4863 
L 2375 4384 
L 1825 4384 
Q 1516 4384 1395 4259 
Q 1275 4134 1275 3809 
L 1275 3500 
L 2222 3500 
L 2222 3053 
L 1275 3053 
L 1275 0 
L 697 0 
L 697 3053 
L 147 3053 
L 147 3500 
L 697 3500 
L 697 3744 
Q 697 4328 969 4595 
Q 1241 4863 1831 4863 
L 2375 4863 
z
" transform="scale(0.015625)"/>
       <path id="DejaVuSans-6c" d="M 603 4863 
L 1178 4863 
L 1178 0 
L 603 0 
L 603 4863 
z
" transform="scale(0.015625)"/>
       <path id="DejaVuSans-75" d="M 544 1381 
L 544 3500 
L 1119 3500 
L 1119 1403 
Q 1119 906 1312 657 
Q 1506 409 1894 409 
Q 2359 409 2629 706 
Q 2900 1003 2900 1516 
L 2900 3500 
L 3475 3500 
L 3475 0 
L 2900 0 
L 2900 538 
Q 2691 219 2414 64 
Q 2138 -91 1772 -91 
Q 1169 -91 856 284 
Q 544 659 544 1381 
z
M 1991 3584 
L 1991 3584 
z
" transform="scale(0.015625)"/>
       <path id="DejaVuSans-65" d="M 3597 1894 
L 3597 1613 
L 953 1613 
Q 991 1019 1311 708 
Q 1631 397 2203 397 
Q 2534 397 2845 478 
Q 3156 559 3463 722 
L 3463 178 
Q 3153 47 2828 -22 
Q 2503 -91 2169 -91 
Q 1331 -91 842 396 
Q 353 884 353 1716 
Q 353 2575 817 3079 
Q 1281 3584 2069 3584 
Q 2775 3584 3186 3129 
Q 3597 2675 3597 1894 
z
M 3022 2063 
Q 3016 2534 2758 2815 
Q 2500 3097 2075 3097 
Q 1594 3097 1305 2825 
Q 1016 2553 972 2059 
L 3022 2063 
z
" transform="scale(0.015625)"/>
       <path id="DejaVuSans-63" d="M 3122 3366 
L 3122 2828 
Q 2878 2963 2633 3030 
Q 2388 3097 2138 3097 
Q 1578 3097 1268 2742 
Q 959 2388 959 1747 
Q 959 1106 1268 751 
Q 1578 397 2138 397 
Q 2388 397 2633 464 
Q 2878 531 3122 666 
L 3122 134 
Q 2881 22 2623 -34 
Q 2366 -91 2075 -91 
Q 1284 -91 818 406 
Q 353 903 353 1747 
Q 353 2603 823 3093 
Q 1294 3584 2113 3584 
Q 2378 3584 2631 3529 
Q 2884 3475 3122 3366 
z
" transform="scale(0.015625)"/>
       <path id="DejaVuSans-20" transform="scale(0.015625)"/>
       <path id="DejaVuSans-6f" d="M 1959 3097 
Q 1497 3097 1228 2736 
Q 959 2375 959 1747 
Q 959 1119 1226 758 
Q 1494 397 1959 397 
Q 2419 397 2687 759 
Q 2956 1122 2956 1747 
Q 2956 2369 2687 2733 
Q 2419 3097 1959 3097 
z
M 1959 3584 
Q 2709 3584 3137 3096 
Q 3566 2609 3566 1747 
Q 3566 888 3137 398 
Q 2709 -91 1959 -91 
Q 1206 -91 779 398 
Q 353 888 353 1747 
Q 353 2609 779 3096 
Q 1206 3584 1959 3584 
z
" transform="scale(0.015625)"/>
       <path id="DejaVuSans-73" d="M 2834 3397 
L 2834 2853 
Q 2591 2978 2328 3040 
Q 2066 3103 1784 3103 
Q 1356 3103 1142 2972 
Q 928 2841 928 2578 
Q 928 2378 1081 2264 
Q 1234 2150 1697 2047 
L 1894 2003 
Q 2506 1872 2764 1633 
Q 3022 1394 3022 966 
Q 3022 478 2636 193 
Q 2250 -91 1575 -91 
Q 1294 -91 989 -36 
Q 684 19 347 128 
L 347 722 
Q 666 556 975 473 
Q 1284 391 1588 391 
Q 1994 391 2212 530 
Q 2431 669 2431 922 
Q 2431 1156 2273 1281 
Q 2116 1406 1581 1522 
L 1381 1569 
Q 847 1681 609 1914 
Q 372 2147 372 2553 
Q 372 3047 722 3315 
Q 1072 3584 1716 3584 
Q 2034 3584 2315 3537 
Q 2597 3491 2834 3397 
z
" transform="scale(0.015625)"/>
       <path id="DejaVuSans-72" d="M 2631 2963 
Q 2534 3019 2420 3045 
Q 2306 3072 2169 3072 
Q 1681 3072 1420 2755 
Q 1159 2438 1159 1844 
L 1159 0 
L 581 0 
L 581 3500 
L 1159 3500 
L 1159 2956 
Q 1341 3275 1631 3429 
Q 1922 3584 2338 3584 
Q 2397 3584 2469 3576 
Q 2541 3569 2628 3553 
L 2631 2963 
z
" transform="scale(0.015625)"/>
       <path id="DejaVuSans-70" d="M 1159 525 
L 1159 -1331 
L 581 -1331 
L 581 3500 
L 1159 3500 
L 1159 2969 
Q 1341 3281 1617 3432 
Q 1894 3584 2278 3584 
Q 2916 3584 3314 3078 
Q 3713 2572 3713 1747 
Q 3713 922 3314 415 
Q 2916 -91 2278 -91 
Q 1894 -91 1617 61 
Q 1341 213 1159 525 
z
M 3116 1747 
Q 3116 2381 2855 2742 
Q 2594 3103 2138 3103 
Q 1681 3103 1420 2742 
Q 1159 2381 1159 1747 
Q 1159 1113 1420 752 
Q 1681 391 2138 391 
Q 2594 391 2855 752 
Q 3116 1113 3116 1747 
z
" transform="scale(0.015625)"/>
       <path id="DejaVuSans-69" d="M 603 3500 
L 1178 3500 
L 1178 0 
L 603 0 
L 603 3500 
z
M 603 4863 
L 1178 4863 
L 1178 4134 
L 603 4134 
L 603 4863 
z
" transform="scale(0.015625)"/>
       <path id="DejaVuSans-61" d="M 2194 1759 
Q 1497 1759 1228 1600 
Q 959 1441 959 1056 
Q 959 750 1161 570 
Q 1363 391 1709 391 
Q 2188 391 2477 730 
Q 2766 1069 2766 1631 
L 2766 1759 
L 2194 1759 
z
M 3341 1997 
L 3341 0 
L 2766 0 
L 2766 531 
Q 2569 213 2275 61 
Q 1981 -91 1556 -91 
Q 1019 -91 701 211 
Q 384 513 384 1019 
Q 384 1609 779 1909 
Q 1175 2209 1959 2209 
L 2766 2209 
L 2766 2266 
Q 2766 2663 2505 2880 
Q 2244 3097 1772 3097 
Q 1472 3097 1187 3025 
Q 903 2953 641 2809 
L 641 3341 
Q 956 3463 1253 3523 
Q 1550 3584 1831 3584 
Q 2591 3584 2966 3190 
Q 3341 2797 3341 1997 
z
" transform="scale(0.015625)"/>
       <path id="DejaVuSans-28" d="M 1984 4856 
Q 1566 4138 1362 3434 
Q 1159 2731 1159 2009 
Q 1159 1288 1364 580 
Q 1569 -128 1984 -844 
L 1484 -844 
Q 1016 -109 783 600 
Q 550 1309 550 2009 
Q 550 2706 781 3412 
Q 1013 4119 1484 4856 
L 1984 4856 
z
" transform="scale(0.015625)"/>
       <path id="DejaVuSans-6d" d="M 3328 2828 
Q 3544 3216 3844 3400 
Q 4144 3584 4550 3584 
Q 5097 3584 5394 3201 
Q 5691 2819 5691 2113 
L 5691 0 
L 5113 0 
L 5113 2094 
Q 5113 2597 4934 2840 
Q 4756 3084 4391 3084 
Q 3944 3084 3684 2787 
Q 3425 2491 3425 1978 
L 3425 0 
L 2847 0 
L 2847 2094 
Q 2847 2600 2669 2842 
Q 2491 3084 2119 3084 
Q 1678 3084 1418 2786 
Q 1159 2488 1159 1978 
L 1159 0 
L 581 0 
L 581 3500 
L 1159 3500 
L 1159 2956 
Q 1356 3278 1631 3431 
Q 1906 3584 2284 3584 
Q 2666 3584 2933 3390 
Q 3200 3197 3328 2828 
z
" transform="scale(0.015625)"/>
       <path id="DejaVuSans-74" d="M 1172 4494 
L 1172 3500 
L 2356 3500 
L 2356 3053 
L 1172 3053 
L 1172 1153 
Q 1172 725 1289 603 
Q 1406 481 1766 481 
L 2356 481 
L 2356 0 
L 1766 0 
Q 1100 0 847 248 
Q 594 497 594 1153 
L 594 3053 
L 172 3053 
L 172 3500 
L 594 3500 
L 594 4494 
L 1172 4494 
z
" transform="scale(0.015625)"/>
       <path id="DejaVuSans-29" d="M 513 4856 
L 1013 4856 
Q 1481 4119 1714 3412 
Q 1947 2706 1947 2009 
Q 1947 1309 1714 600 
Q 1481 -109 1013 -844 
L 513 -844 
Q 928 -128 1133 580 
Q 1338 1288 1338 2009 
Q 1338 2731 1133 3434 
Q 928 4138 513 4856 
z
" transform="scale(0.015625)"/>
      </defs>
      <use xlink:href="#DejaVuSans-49"/>
      <use xlink:href="#DejaVuSans-6e" x="29.492188"/>
      <use xlink:href="#DejaVuSans-66" x="92.871094"/>
      <use xlink:href="#DejaVuSans-6c" x="128.076172"/>
      <use xlink:href="#DejaVuSans-75" x="155.859375"/>
      <use xlink:href="#DejaVuSans-65" x="219.238281"/>
      <use xlink:href="#DejaVuSans-6e" x="280.761719"/>
      <use xlink:href="#DejaVuSans-63" x="344.140625"/>
      <use xlink:href="#DejaVuSans-65" x="399.121094"/>
      <use xlink:href="#DejaVuSans-20" x="460.644531"/>
      <use xlink:href="#DejaVuSans-6f" x="492.431641"/>
      <use xlink:href="#DejaVuSans-66" x="553.613281"/>
      <use xlink:href="#DejaVuSans-20" x="588.818359"/>
      <use xlink:href="#DejaVuSans-73" x="620.605469"/>
      <use xlink:href="#DejaVuSans-75" x="672.705078"/>
      <use xlink:href="#DejaVuSans-72" x="736.083984"/>
      <use xlink:href="#DejaVuSans-70" x="777.197266"/>
      <use xlink:href="#DejaVuSans-72" x="840.673828"/>
      <use xlink:href="#DejaVuSans-69" x="881.787109"/>
      <use xlink:href="#DejaVuSans-73" x="909.570312"/>
      <use xlink:href="#DejaVuSans-61" x="961.669922"/>
      <use xlink:href="#DejaVuSans-6c" x="1022.949219"/>
      <use xlink:href="#DejaVuSans-20" x="1050.732422"/>
      <use xlink:href="#DejaVuSans-28" x="1082.519531"/>
      <use xlink:href="#DejaVuSans-6d" x="1121.533203"/>
      <use xlink:href="#DejaVuSans-75" x="1218.945312"/>
      <use xlink:href="#DejaVuSans-6c" x="1282.324219"/>
      <use xlink:href="#DejaVuSans-74" x="1310.107422"/>
      <use xlink:href="#DejaVuSans-69" x="1349.316406"/>
      <use xlink:href="#DejaVuSans-70" x="1377.099609"/>
      <use xlink:href="#DejaVuSans-6c" x="1440.576172"/>
      <use xlink:href="#DejaVuSans-69" x="1468.359375"/>
      <use xlink:href="#DejaVuSans-63" x="1496.142578"/>
      <use xlink:href="#DejaVuSans-61" x="1551.123047"/>
      <use xlink:href="#DejaVuSans-74" x="1612.402344"/>
      <use xlink:href="#DejaVuSans-69" x="1651.611328"/>
      <use xlink:href="#DejaVuSans-6f" x="1679.394531"/>
      <use xlink:href="#DejaVuSans-6e" x="1740.576172"/>
      <use xlink:href="#DejaVuSans-29" x="1803.955078"/>
     </g>
    </g>
   </g>
   <g id="matplotlib.axis_2">
    <g id="ytick_1">
     <g id="line2d_6">
      <defs>
       <path id="m9b572b9423" d="M 0 0 
L -3.5 0 
" style="stroke: #000000; stroke-width: 0.8"/>
      </defs>
      <g>
       <use xlink:href="#m9b572b9423" x="47.72" y="153.450162" style="stroke: #000000; stroke-width: 0.8"/>
      </g>
     </g>
     <g id="text_7">
      <!-- 0.2 -->
      <g transform="translate(24.816875 157.249381)scale(0.1 -0.1)">
       <use xlink:href="#DejaVuSans-30"/>
       <use xlink:href="#DejaVuSans-2e" x="63.623047"/>
       <use xlink:href="#DejaVuSans-32" x="95.410156"/>
      </g>
     </g>
    </g>
    <g id="ytick_2">
     <g id="line2d_7">
      <g>
       <use xlink:href="#m9b572b9423" x="47.72" y="123.479894" style="stroke: #000000; stroke-width: 0.8"/>
      </g>
     </g>
     <g id="text_8">
      <!-- 0.4 -->
      <g transform="translate(24.816875 127.279113)scale(0.1 -0.1)">
       <defs>
        <path id="DejaVuSans-34" d="M 2419 4116 
L 825 1625 
L 2419 1625 
L 2419 4116 
z
M 2253 4666 
L 3047 4666 
L 3047 1625 
L 3713 1625 
L 3713 1100 
L 3047 1100 
L 3047 0 
L 2419 0 
L 2419 1100 
L 313 1100 
L 313 1709 
L 2253 4666 
z
" transform="scale(0.015625)"/>
       </defs>
       <use xlink:href="#DejaVuSans-30"/>
       <use xlink:href="#DejaVuSans-2e" x="63.623047"/>
       <use xlink:href="#DejaVuSans-34" x="95.410156"/>
      </g>
     </g>
    </g>
    <g id="ytick_3">
     <g id="line2d_8">
      <g>
       <use xlink:href="#m9b572b9423" x="47.72" y="93.509626" style="stroke: #000000; stroke-width: 0.8"/>
      </g>
     </g>
     <g id="text_9">
      <!-- 0.6 -->
      <g transform="translate(24.816875 97.308845)scale(0.1 -0.1)">
       <defs>
        <path id="DejaVuSans-36" d="M 2113 2584 
Q 1688 2584 1439 2293 
Q 1191 2003 1191 1497 
Q 1191 994 1439 701 
Q 1688 409 2113 409 
Q 2538 409 2786 701 
Q 3034 994 3034 1497 
Q 3034 2003 2786 2293 
Q 2538 2584 2113 2584 
z
M 3366 4563 
L 3366 3988 
Q 3128 4100 2886 4159 
Q 2644 4219 2406 4219 
Q 1781 4219 1451 3797 
Q 1122 3375 1075 2522 
Q 1259 2794 1537 2939 
Q 1816 3084 2150 3084 
Q 2853 3084 3261 2657 
Q 3669 2231 3669 1497 
Q 3669 778 3244 343 
Q 2819 -91 2113 -91 
Q 1303 -91 875 529 
Q 447 1150 447 2328 
Q 447 3434 972 4092 
Q 1497 4750 2381 4750 
Q 2619 4750 2861 4703 
Q 3103 4656 3366 4563 
z
" transform="scale(0.015625)"/>
       </defs>
       <use xlink:href="#DejaVuSans-30"/>
       <use xlink:href="#DejaVuSans-2e" x="63.623047"/>
       <use xlink:href="#DejaVuSans-36" x="95.410156"/>
      </g>
     </g>
    </g>
    <g id="ytick_4">
     <g id="line2d_9">
      <g>
       <use xlink:href="#m9b572b9423" x="47.72" y="63.539359" style="stroke: #000000; stroke-width: 0.8"/>
      </g>
     </g>
     <g id="text_10">
      <!-- 0.8 -->
      <g transform="translate(24.816875 67.338577)scale(0.1 -0.1)">
       <defs>
        <path id="DejaVuSans-38" d="M 2034 2216 
Q 1584 2216 1326 1975 
Q 1069 1734 1069 1313 
Q 1069 891 1326 650 
Q 1584 409 2034 409 
Q 2484 409 2743 651 
Q 3003 894 3003 1313 
Q 3003 1734 2745 1975 
Q 2488 2216 2034 2216 
z
M 1403 2484 
Q 997 2584 770 2862 
Q 544 3141 544 3541 
Q 544 4100 942 4425 
Q 1341 4750 2034 4750 
Q 2731 4750 3128 4425 
Q 3525 4100 3525 3541 
Q 3525 3141 3298 2862 
Q 3072 2584 2669 2484 
Q 3125 2378 3379 2068 
Q 3634 1759 3634 1313 
Q 3634 634 3220 271 
Q 2806 -91 2034 -91 
Q 1263 -91 848 271 
Q 434 634 434 1313 
Q 434 1759 690 2068 
Q 947 2378 1403 2484 
z
M 1172 3481 
Q 1172 3119 1398 2916 
Q 1625 2713 2034 2713 
Q 2441 2713 2670 2916 
Q 2900 3119 2900 3481 
Q 2900 3844 2670 4047 
Q 2441 4250 2034 4250 
Q 1625 4250 1398 4047 
Q 1172 3844 1172 3481 
z
" transform="scale(0.015625)"/>
       </defs>
       <use xlink:href="#DejaVuSans-30"/>
       <use xlink:href="#DejaVuSans-2e" x="63.623047"/>
       <use xlink:href="#DejaVuSans-38" x="95.410156"/>
      </g>
     </g>
    </g>
    <g id="ytick_5">
     <g id="line2d_10">
      <g>
       <use xlink:href="#m9b572b9423" x="47.72" y="33.569091" style="stroke: #000000; stroke-width: 0.8"/>
      </g>
     </g>
     <g id="text_11">
      <!-- 1.0 -->
      <g transform="translate(24.816875 37.36831)scale(0.1 -0.1)">
       <use xlink:href="#DejaVuSans-31"/>
       <use xlink:href="#DejaVuSans-2e" x="63.623047"/>
       <use xlink:href="#DejaVuSans-30" x="95.410156"/>
      </g>
     </g>
    </g>
    <g id="text_12">
     <!-- R-value -->
     <g transform="translate(18.737188 119.064687)rotate(-90)scale(0.1 -0.1)">
      <defs>
       <path id="DejaVuSans-52" d="M 2841 2188 
Q 3044 2119 3236 1894 
Q 3428 1669 3622 1275 
L 4263 0 
L 3584 0 
L 2988 1197 
Q 2756 1666 2539 1819 
Q 2322 1972 1947 1972 
L 1259 1972 
L 1259 0 
L 628 0 
L 628 4666 
L 2053 4666 
Q 2853 4666 3247 4331 
Q 3641 3997 3641 3322 
Q 3641 2881 3436 2590 
Q 3231 2300 2841 2188 
z
M 1259 4147 
L 1259 2491 
L 2053 2491 
Q 2509 2491 2742 2702 
Q 2975 2913 2975 3322 
Q 2975 3731 2742 3939 
Q 2509 4147 2053 4147 
L 1259 4147 
z
" transform="scale(0.015625)"/>
       <path id="DejaVuSans-2d" d="M 313 2009 
L 1997 2009 
L 1997 1497 
L 313 1497 
L 313 2009 
z
" transform="scale(0.015625)"/>
       <path id="DejaVuSans-76" d="M 191 3500 
L 800 3500 
L 1894 563 
L 2988 3500 
L 3597 3500 
L 2284 0 
L 1503 0 
L 191 3500 
z
" transform="scale(0.015625)"/>
      </defs>
      <use xlink:href="#DejaVuSans-52"/>
      <use xlink:href="#DejaVuSans-2d" x="65.482422"/>
      <use xlink:href="#DejaVuSans-76" x="98.941406"/>
      <use xlink:href="#DejaVuSans-61" x="158.121094"/>
      <use xlink:href="#DejaVuSans-6c" x="219.400391"/>
      <use xlink:href="#DejaVuSans-75" x="247.183594"/>
      <use xlink:href="#DejaVuSans-65" x="310.5625"/>
     </g>
    </g>
   </g>
   <g id="line2d_11">
    <path d="M 47.72 33.569091 
L 59.167105 35.474032 
L 70.614211 40.985016 
L 82.061316 48.042828 
L 93.508421 56.732537 
L 104.955526 65.79589 
L 116.402632 75.258765 
L 127.849737 84.187536 
L 139.296842 93.266278 
L 150.743947 101.303781 
L 162.191053 109.372796 
L 173.638158 116.89024 
L 185.085263 123.681578 
L 196.532368 129.519049 
L 207.979474 135.031156 
L 219.426579 139.2305 
L 230.873684 143.575003 
L 242.320789 146.714724 
L 253.767895 150.169351 
L 265.215 152.546143 
" clip-path="url(#pfdb793129a)" style="fill: none; stroke: #1f77b4; stroke-width: 1.5; stroke-linecap: square"/>
   </g>
   <g id="line2d_12">
    <path d="M 47.72 33.569227 
L 59.167105 34.817064 
L 70.614211 37.716333 
L 82.061316 42.05201 
L 93.508421 48.077044 
L 104.955526 55.112137 
L 116.402632 62.88233 
L 127.849737 70.57349 
L 139.296842 78.901857 
L 150.743947 86.283303 
L 162.191053 94.048353 
L 173.638158 101.633171 
L 185.085263 108.652243 
L 196.532368 114.93908 
L 207.979474 121.01708 
L 219.426579 125.859024 
L 230.873684 131.044962 
L 242.320789 134.816863 
L 253.767895 139.399094 
L 265.215 142.542325 
" clip-path="url(#pfdb793129a)" style="fill: none; stroke: #ff7f0e; stroke-width: 1.5; stroke-linecap: square"/>
   </g>
   <g id="line2d_13">
    <path d="M 47.72 33.569091 
L 59.167105 35.021049 
L 70.614211 37.68335 
L 82.061316 40.836633 
L 93.508421 44.723686 
L 104.955526 48.594831 
L 116.402632 53.150003 
L 127.849737 57.068838 
L 139.296842 61.68876 
L 150.743947 65.862328 
L 162.191053 70.610777 
L 173.638158 75.04038 
L 185.085263 79.584383 
L 196.532368 83.919583 
L 207.979474 88.546455 
L 219.426579 92.787917 
L 230.873684 97.760497 
L 242.320789 101.622072 
L 253.767895 106.18474 
L 265.215 110.164288 
" clip-path="url(#pfdb793129a)" style="fill: none; stroke: #2ca02c; stroke-width: 1.5; stroke-linecap: square"/>
   </g>
   <g id="line2d_14">
    <path d="M 47.72 33.569812 
L 59.167105 34.744558 
L 70.614211 36.714866 
L 82.061316 39.335098 
L 93.508421 42.840528 
L 104.955526 46.62067 
L 116.402632 51.235775 
L 127.849737 55.368118 
L 139.296842 60.222512 
L 150.743947 64.616019 
L 162.191053 69.479757 
L 173.638158 74.099639 
L 185.085263 78.646468 
L 196.532368 82.971311 
L 207.979474 87.532506 
L 219.426579 91.672747 
L 230.873684 96.496161 
L 242.320789 100.150032 
L 253.767895 104.385855 
L 265.215 108.114895 
" clip-path="url(#pfdb793129a)" style="fill: none; stroke: #d62728; stroke-width: 1.5; stroke-linecap: square"/>
   </g>
   <g id="line2d_15">
    <path d="M 47.72 33.569091 
L 59.167105 35.499332 
L 70.614211 40.976262 
L 82.061316 48.064109 
L 93.508421 56.767983 
L 104.955526 65.871971 
L 116.402632 75.361791 
L 127.849737 84.164405 
L 139.296842 93.171802 
L 150.743947 101.369048 
L 162.191053 109.486164 
L 173.638158 117.338598 
L 185.085263 124.257878 
L 196.532368 130.108082 
L 207.979474 135.22307 
L 219.426579 139.433261 
L 230.873684 144.006602 
L 242.320789 146.508829 
L 253.767895 150.842768 
L 265.215 152.1083 
" clip-path="url(#pfdb793129a)" style="fill: none; stroke: #9467bd; stroke-width: 1.5; stroke-linecap: square"/>
   </g>
   <g id="line2d_16">
    <path d="M 47.72 33.569633 
L 59.167105 34.820609 
L 70.614211 37.715573 
L 82.061316 42.077715 
L 93.508421 48.105565 
L 104.955526 55.151267 
L 116.402632 62.932065 
L 127.849737 70.600934 
L 139.296842 78.883231 
L 150.743947 86.420882 
L 162.191053 94.221959 
L 173.638158 101.958461 
L 185.085263 109.019437 
L 196.532368 115.383842 
L 207.979474 121.274789 
L 219.426579 126.000832 
L 230.873684 131.26204 
L 242.320789 134.766312 
L 253.767895 139.865031 
L 265.215 142.304932 
" clip-path="url(#pfdb793129a)" style="fill: none; stroke: #8c564b; stroke-width: 1.5; stroke-linecap: square"/>
   </g>
   <g id="line2d_17">
    <path d="M 47.72 45.630423 
L 59.167105 48.189137 
L 70.614211 54.887178 
L 82.061316 63.716808 
L 93.508421 73.806034 
L 104.955526 83.634706 
L 116.402632 93.253668 
L 127.849737 101.765605 
L 139.296842 110.098313 
L 150.743947 117.527706 
L 162.191053 124.671066 
L 173.638158 131.434892 
L 185.085263 137.193476 
L 196.532368 142.395011 
L 207.979474 147.281467 
L 219.426579 150.968379 
L 230.873684 154.669159 
L 242.320789 157.414311 
L 253.767895 160.218825 
L 265.215 162.14102 
" clip-path="url(#pfdb793129a)" style="fill: none; stroke: #e377c2; stroke-width: 1.5; stroke-linecap: square"/>
   </g>
   <g id="line2d_18">
    <path d="M 47.72 33.569352 
L 59.167105 34.176485 
L 70.614211 34.925596 
L 82.061316 36.948877 
L 93.508421 40.999633 
L 104.955526 46.559479 
L 116.402632 53.525418 
L 127.849737 60.593008 
L 139.296842 68.664737 
L 150.743947 75.688521 
L 162.191053 83.614565 
L 173.638158 91.005718 
L 185.085263 98.416296 
L 196.532368 105.051166 
L 207.979474 111.701922 
L 219.426579 117.031294 
L 230.873684 123.023675 
L 242.320789 127.392644 
L 253.767895 132.604747 
L 265.215 136.382098 
" clip-path="url(#pfdb793129a)" style="fill: none; stroke: #7f7f7f; stroke-width: 1.5; stroke-linecap: square"/>
   </g>
   <g id="patch_3">
    <path d="M 47.72 174.04 
L 47.72 26.88 
" style="fill: none; stroke: #000000; stroke-width: 0.8; stroke-linejoin: miter; stroke-linecap: square"/>
   </g>
   <g id="patch_4">
    <path d="M 47.72 174.04 
L 265.215 174.04 
" style="fill: none; stroke: #000000; stroke-width: 0.8; stroke-linejoin: miter; stroke-linecap: square"/>
   </g>
   <g id="text_13">
    <!-- Node * surprisal -->
    <g transform="translate(108.18625 20.88)scale(0.12 -0.12)">
     <defs>
      <path id="DejaVuSans-4e" d="M 628 4666 
L 1478 4666 
L 3547 763 
L 3547 4666 
L 4159 4666 
L 4159 0 
L 3309 0 
L 1241 3903 
L 1241 0 
L 628 0 
L 628 4666 
z
" transform="scale(0.015625)"/>
      <path id="DejaVuSans-64" d="M 2906 2969 
L 2906 4863 
L 3481 4863 
L 3481 0 
L 2906 0 
L 2906 525 
Q 2725 213 2448 61 
Q 2172 -91 1784 -91 
Q 1150 -91 751 415 
Q 353 922 353 1747 
Q 353 2572 751 3078 
Q 1150 3584 1784 3584 
Q 2172 3584 2448 3432 
Q 2725 3281 2906 2969 
z
M 947 1747 
Q 947 1113 1208 752 
Q 1469 391 1925 391 
Q 2381 391 2643 752 
Q 2906 1113 2906 1747 
Q 2906 2381 2643 2742 
Q 2381 3103 1925 3103 
Q 1469 3103 1208 2742 
Q 947 2381 947 1747 
z
" transform="scale(0.015625)"/>
      <path id="DejaVuSans-2a" d="M 3009 3897 
L 1888 3291 
L 3009 2681 
L 2828 2375 
L 1778 3009 
L 1778 1831 
L 1422 1831 
L 1422 3009 
L 372 2375 
L 191 2681 
L 1313 3291 
L 191 3897 
L 372 4206 
L 1422 3572 
L 1422 4750 
L 1778 4750 
L 1778 3572 
L 2828 4206 
L 3009 3897 
z
" transform="scale(0.015625)"/>
     </defs>
     <use xlink:href="#DejaVuSans-4e"/>
     <use xlink:href="#DejaVuSans-6f" x="74.804688"/>
     <use xlink:href="#DejaVuSans-64" x="135.986328"/>
     <use xlink:href="#DejaVuSans-65" x="199.462891"/>
     <use xlink:href="#DejaVuSans-20" x="260.986328"/>
     <use xlink:href="#DejaVuSans-2a" x="292.773438"/>
     <use xlink:href="#DejaVuSans-20" x="342.773438"/>
     <use xlink:href="#DejaVuSans-73" x="374.560547"/>
     <use xlink:href="#DejaVuSans-75" x="426.660156"/>
     <use xlink:href="#DejaVuSans-72" x="490.039062"/>
     <use xlink:href="#DejaVuSans-70" x="531.152344"/>
     <use xlink:href="#DejaVuSans-72" x="594.628906"/>
     <use xlink:href="#DejaVuSans-69" x="635.742188"/>
     <use xlink:href="#DejaVuSans-73" x="663.525391"/>
     <use xlink:href="#DejaVuSans-61" x="715.625"/>
     <use xlink:href="#DejaVuSans-6c" x="776.904297"/>
    </g>
   </g>
  </g>
  <g id="axes_2">
   <g id="patch_5">
    <path d="M 298.065 174.04 
L 515.56 174.04 
L 515.56 26.88 
L 298.065 26.88 
z
" style="fill: #ffffff"/>
   </g>
   <g id="PolyCollection_9">
    <path d="M 298.065 33.569091 
L 298.065 33.569091 
L 309.512105 35.72632 
L 320.959211 42.042543 
L 332.406316 49.969254 
L 343.853421 59.573266 
L 355.300526 69.85921 
L 366.747632 80.769566 
L 378.194737 90.40192 
L 389.641842 100.070548 
L 401.088947 108.316247 
L 412.536053 116.509508 
L 423.983158 122.3172 
L 435.430263 129.275925 
L 446.877368 134.177437 
L 458.324474 139.966668 
L 469.771579 144.212273 
L 481.218684 148.3185 
L 492.665789 151.76132 
L 504.112895 155.190232 
L 515.56 158.54406 
L 515.56 148.044772 
L 515.56 148.044772 
L 504.112895 145.558045 
L 492.665789 142.028102 
L 481.218684 138.400551 
L 469.771579 134.200563 
L 458.324474 129.621369 
L 446.877368 124.468512 
L 435.430263 117.993653 
L 423.983158 112.516445 
L 412.536053 105.206803 
L 401.088947 97.865649 
L 389.641842 90.251274 
L 378.194737 80.690948 
L 366.747632 72.813506 
L 355.300526 63.846072 
L 343.853421 54.015922 
L 332.406316 46.369614 
L 320.959211 40.110029 
L 309.512105 35.148046 
L 298.065 33.569091 
z
" clip-path="url(#p23b8ce3315)" style="fill: #1f77b4; fill-opacity: 0.4"/>
   </g>
   <g id="PolyCollection_10">
    <path d="M 298.065 33.569209 
L 298.065 33.569244 
L 309.512105 35.730513 
L 320.959211 42.048801 
L 332.406316 49.986183 
L 343.853421 59.563337 
L 355.300526 69.865217 
L 366.747632 80.728793 
L 378.194737 90.404717 
L 389.641842 100.055683 
L 401.088947 108.285426 
L 412.536053 116.512774 
L 423.983158 122.349499 
L 435.430263 129.296491 
L 446.877368 134.216128 
L 458.324474 140.051456 
L 469.771579 144.224813 
L 481.218684 148.317403 
L 492.665789 151.6973 
L 504.112895 155.112347 
L 515.56 158.454803 
L 515.56 148.282248 
L 515.56 148.282248 
L 504.112895 145.819706 
L 492.665789 142.229573 
L 481.218684 138.607204 
L 469.771579 134.352324 
L 458.324474 129.790145 
L 446.877368 124.640569 
L 435.430263 118.05467 
L 423.983158 112.577695 
L 412.536053 105.23966 
L 401.088947 97.915413 
L 389.641842 90.231309 
L 378.194737 80.697509 
L 366.747632 72.857991 
L 355.300526 63.85839 
L 343.853421 54.048208 
L 332.406316 46.373312 
L 320.959211 40.112801 
L 309.512105 35.146299 
L 298.065 33.569209 
z
" clip-path="url(#p23b8ce3315)" style="fill: #ff7f0e; fill-opacity: 0.4"/>
   </g>
   <g id="PolyCollection_11">
    <path d="M 298.065 33.569091 
L 298.065 33.569091 
L 309.512105 35.729162 
L 320.959211 42.045601 
L 332.406316 50.019872 
L 343.853421 59.635838 
L 355.300526 69.921907 
L 366.747632 80.859374 
L 378.194737 90.461105 
L 389.641842 100.10444 
L 401.088947 108.332365 
L 412.536053 116.459016 
L 423.983158 122.185597 
L 435.430263 129.23332 
L 446.877368 134.156241 
L 458.324474 139.876834 
L 469.771579 144.199201 
L 481.218684 148.262501 
L 492.665789 151.501546 
L 504.112895 154.915595 
L 515.56 158.268008 
L 515.56 148.6277 
L 515.56 148.6277 
L 504.112895 146.169187 
L 492.665789 142.820168 
L 481.218684 139.105216 
L 469.771579 135.022911 
L 458.324474 130.667592 
L 446.877368 125.536863 
L 435.430263 118.891118 
L 423.983158 113.477329 
L 412.536053 106.06562 
L 401.088947 98.535784 
L 389.641842 90.724921 
L 378.194737 81.128074 
L 366.747632 73.123263 
L 355.300526 64.042566 
L 343.853421 54.135883 
L 332.406316 46.437878 
L 320.959211 40.160001 
L 309.512105 35.148738 
L 298.065 33.569091 
z
" clip-path="url(#p23b8ce3315)" style="fill: #2ca02c; fill-opacity: 0.4"/>
   </g>
   <g id="PolyCollection_12">
    <path d="M 298.065 33.569729 
L 298.065 33.569896 
L 309.512105 35.732354 
L 320.959211 42.045833 
L 332.406316 50.013703 
L 343.853421 59.592994 
L 355.300526 69.895144 
L 366.747632 80.791501 
L 378.194737 90.398602 
L 389.641842 100.039225 
L 401.088947 108.252379 
L 412.536053 116.377798 
L 423.983158 122.175 
L 435.430263 129.202588 
L 446.877368 134.192099 
L 458.324474 139.930173 
L 469.771579 144.237955 
L 481.218684 148.367042 
L 492.665789 151.57875 
L 504.112895 155.05352 
L 515.56 158.39684 
L 515.56 148.865897 
L 515.56 148.865897 
L 504.112895 146.432808 
L 492.665789 143.053707 
L 481.218684 139.361388 
L 469.771579 135.28062 
L 458.324474 130.991893 
L 446.877368 125.808726 
L 435.430263 119.113846 
L 423.983158 113.592644 
L 412.536053 106.13332 
L 401.088947 98.598265 
L 389.641842 90.724047 
L 378.194737 81.117504 
L 366.747632 73.101615 
L 355.300526 64.011621 
L 343.853421 54.121357 
L 332.406316 46.426506 
L 320.959211 40.15516 
L 309.512105 35.145092 
L 298.065 33.569729 
z
" clip-path="url(#p23b8ce3315)" style="fill: #d62728; fill-opacity: 0.4"/>
   </g>
   <g id="PolyCollection_13">
    <path d="M 298.065 33.569091 
L 298.065 33.569091 
L 309.512105 35.723534 
L 320.959211 42.033484 
L 332.406316 49.992543 
L 343.853421 59.576913 
L 355.300526 69.866971 
L 366.747632 80.759916 
L 378.194737 90.528544 
L 389.641842 100.43416 
L 401.088947 108.393011 
L 412.536053 117.179182 
L 423.983158 121.998034 
L 435.430263 129.442926 
L 446.877368 134.490963 
L 458.324474 139.841507 
L 469.771579 144.473619 
L 481.218684 148.457874 
L 492.665789 152.148603 
L 504.112895 155.506149 
L 515.56 160.030194 
L 515.56 148.945439 
L 515.56 148.945439 
L 504.112895 145.838444 
L 492.665789 142.829098 
L 481.218684 139.236116 
L 469.771579 134.683837 
L 458.324474 130.313739 
L 446.877368 125.606515 
L 435.430263 117.716443 
L 423.983158 113.625531 
L 412.536053 105.288079 
L 401.088947 98.161906 
L 389.641842 90.326361 
L 378.194737 81.018331 
L 366.747632 72.950223 
L 355.300526 63.898371 
L 343.853421 53.988943 
L 332.406316 46.365386 
L 320.959211 40.147324 
L 309.512105 35.149344 
L 298.065 33.569091 
z
" clip-path="url(#p23b8ce3315)" style="fill: #9467bd; fill-opacity: 0.4"/>
   </g>
   <g id="PolyCollection_14">
    <path d="M 298.065 33.569561 
L 298.065 33.569704 
L 309.512105 35.728486 
L 320.959211 42.040493 
L 332.406316 50.010708 
L 343.853421 59.558034 
L 355.300526 69.86672 
L 366.747632 80.710968 
L 378.194737 90.522324 
L 389.641842 100.422728 
L 401.088947 108.367463 
L 412.536053 117.230967 
L 423.983158 122.089495 
L 435.430263 129.442062 
L 446.877368 134.508621 
L 458.324474 139.923857 
L 469.771579 144.477971 
L 481.218684 148.438746 
L 492.665789 152.121423 
L 504.112895 155.428585 
L 515.56 159.891279 
L 515.56 149.164182 
L 515.56 149.164182 
L 504.112895 146.093759 
L 492.665789 142.982477 
L 481.218684 139.470428 
L 469.771579 134.890247 
L 458.324474 130.461609 
L 446.877368 125.775376 
L 435.430263 117.75836 
L 423.983158 113.594799 
L 412.536053 105.287793 
L 401.088947 98.201786 
L 389.641842 90.3008 
L 378.194737 81.02552 
L 366.747632 72.98633 
L 355.300526 63.918812 
L 343.853421 54.020896 
L 332.406316 46.367844 
L 320.959211 40.151587 
L 309.512105 35.147603 
L 298.065 33.569561 
z
" clip-path="url(#p23b8ce3315)" style="fill: #8c564b; fill-opacity: 0.4"/>
   </g>
   <g id="PolyCollection_15">
    <path d="M 298.065 44.02442 
L 298.065 47.236425 
L 309.512105 48.903465 
L 320.959211 54.193785 
L 332.406316 61.163331 
L 343.853421 69.892156 
L 355.300526 79.649214 
L 366.747632 89.730928 
L 378.194737 98.602575 
L 389.641842 107.810952 
L 401.088947 115.759685 
L 412.536053 123.391431 
L 423.983158 129.392859 
L 435.430263 135.925932 
L 446.877368 140.520846 
L 458.324474 145.980683 
L 469.771579 149.983497 
L 481.218684 153.897245 
L 492.665789 156.529546 
L 504.112895 159.965753 
L 515.56 162.488335 
L 515.56 151.512841 
L 515.56 151.512841 
L 504.112895 148.807886 
L 492.665789 145.406522 
L 481.218684 141.747292 
L 469.771579 137.786403 
L 458.324474 133.287362 
L 446.877368 128.738759 
L 435.430263 122.75132 
L 423.983158 117.433895 
L 412.536053 110.817544 
L 401.088947 103.872682 
L 389.641842 96.81667 
L 378.194737 88.253879 
L 366.747632 80.836483 
L 355.300526 72.681438 
L 343.853421 63.84397 
L 332.406316 56.784126 
L 320.959211 50.733695 
L 309.512105 45.862692 
L 298.065 44.02442 
z
" clip-path="url(#p23b8ce3315)" style="fill: #e377c2; fill-opacity: 0.4"/>
   </g>
   <g id="PolyCollection_16">
    <path d="M 298.065 33.569269 
L 298.065 33.569436 
L 309.512105 35.730645 
L 320.959211 42.04073 
L 332.406316 49.98268 
L 343.853421 59.566113 
L 355.300526 69.82677 
L 366.747632 80.716472 
L 378.194737 90.325946 
L 389.641842 99.944201 
L 401.088947 108.095755 
L 412.536053 116.386405 
L 423.983158 122.226239 
L 435.430263 129.167478 
L 446.877368 134.124517 
L 458.324474 139.856962 
L 469.771579 144.259764 
L 481.218684 148.257605 
L 492.665789 151.468111 
L 504.112895 155.045012 
L 515.56 158.397643 
L 515.56 149.038509 
L 515.56 149.038509 
L 504.112895 146.252525 
L 492.665789 142.695046 
L 481.218684 138.809394 
L 469.771579 134.482101 
L 458.324474 130.053958 
L 446.877368 124.978192 
L 435.430263 118.356232 
L 423.983158 112.862816 
L 412.536053 105.629527 
L 401.088947 98.220477 
L 389.641842 90.436797 
L 378.194737 80.912669 
L 366.747632 72.990681 
L 355.300526 63.960377 
L 343.853421 54.111267 
L 332.406316 46.406698 
L 320.959211 40.142787 
L 309.512105 35.150453 
L 298.065 33.569269 
z
" clip-path="url(#p23b8ce3315)" style="fill: #7f7f7f; fill-opacity: 0.4"/>
   </g>
   <g id="matplotlib.axis_3">
    <g id="xtick_6">
     <g id="line2d_19">
      <g>
       <use xlink:href="#ma301e763ba" x="298.065" y="174.04" style="stroke: #000000; stroke-width: 0.8"/>
      </g>
     </g>
     <g id="text_14">
      <!-- 0.0 -->
      <g transform="translate(290.113437 188.638438)scale(0.1 -0.1)">
       <use xlink:href="#DejaVuSans-30"/>
       <use xlink:href="#DejaVuSans-2e" x="63.623047"/>
       <use xlink:href="#DejaVuSans-30" x="95.410156"/>
      </g>
     </g>
    </g>
    <g id="xtick_7">
     <g id="line2d_20">
      <g>
       <use xlink:href="#ma301e763ba" x="352.43875" y="174.04" style="stroke: #000000; stroke-width: 0.8"/>
      </g>
     </g>
     <g id="text_15">
      <!-- 0.5 -->
      <g transform="translate(344.487187 188.638438)scale(0.1 -0.1)">
       <use xlink:href="#DejaVuSans-30"/>
       <use xlink:href="#DejaVuSans-2e" x="63.623047"/>
       <use xlink:href="#DejaVuSans-35" x="95.410156"/>
      </g>
     </g>
    </g>
    <g id="xtick_8">
     <g id="line2d_21">
      <g>
       <use xlink:href="#ma301e763ba" x="406.8125" y="174.04" style="stroke: #000000; stroke-width: 0.8"/>
      </g>
     </g>
     <g id="text_16">
      <!-- 1.0 -->
      <g transform="translate(398.860937 188.638438)scale(0.1 -0.1)">
       <use xlink:href="#DejaVuSans-31"/>
       <use xlink:href="#DejaVuSans-2e" x="63.623047"/>
       <use xlink:href="#DejaVuSans-30" x="95.410156"/>
      </g>
     </g>
    </g>
    <g id="xtick_9">
     <g id="line2d_22">
      <g>
       <use xlink:href="#ma301e763ba" x="461.18625" y="174.04" style="stroke: #000000; stroke-width: 0.8"/>
      </g>
     </g>
     <g id="text_17">
      <!-- 1.5 -->
      <g transform="translate(453.234687 188.638438)scale(0.1 -0.1)">
       <use xlink:href="#DejaVuSans-31"/>
       <use xlink:href="#DejaVuSans-2e" x="63.623047"/>
       <use xlink:href="#DejaVuSans-35" x="95.410156"/>
      </g>
     </g>
    </g>
    <g id="xtick_10">
     <g id="line2d_23">
      <g>
       <use xlink:href="#ma301e763ba" x="515.56" y="174.04" style="stroke: #000000; stroke-width: 0.8"/>
      </g>
     </g>
     <g id="text_18">
      <!-- 2.0 -->
      <g transform="translate(507.608437 188.638438)scale(0.1 -0.1)">
       <use xlink:href="#DejaVuSans-32"/>
       <use xlink:href="#DejaVuSans-2e" x="63.623047"/>
       <use xlink:href="#DejaVuSans-30" x="95.410156"/>
      </g>
     </g>
    </g>
    <g id="text_19">
     <!-- Influence of surprisal (multiplication) -->
     <g transform="translate(314.665625 202.316563)scale(0.1 -0.1)">
      <use xlink:href="#DejaVuSans-49"/>
      <use xlink:href="#DejaVuSans-6e" x="29.492188"/>
      <use xlink:href="#DejaVuSans-66" x="92.871094"/>
      <use xlink:href="#DejaVuSans-6c" x="128.076172"/>
      <use xlink:href="#DejaVuSans-75" x="155.859375"/>
      <use xlink:href="#DejaVuSans-65" x="219.238281"/>
      <use xlink:href="#DejaVuSans-6e" x="280.761719"/>
      <use xlink:href="#DejaVuSans-63" x="344.140625"/>
      <use xlink:href="#DejaVuSans-65" x="399.121094"/>
      <use xlink:href="#DejaVuSans-20" x="460.644531"/>
      <use xlink:href="#DejaVuSans-6f" x="492.431641"/>
      <use xlink:href="#DejaVuSans-66" x="553.613281"/>
      <use xlink:href="#DejaVuSans-20" x="588.818359"/>
      <use xlink:href="#DejaVuSans-73" x="620.605469"/>
      <use xlink:href="#DejaVuSans-75" x="672.705078"/>
      <use xlink:href="#DejaVuSans-72" x="736.083984"/>
      <use xlink:href="#DejaVuSans-70" x="777.197266"/>
      <use xlink:href="#DejaVuSans-72" x="840.673828"/>
      <use xlink:href="#DejaVuSans-69" x="881.787109"/>
      <use xlink:href="#DejaVuSans-73" x="909.570312"/>
      <use xlink:href="#DejaVuSans-61" x="961.669922"/>
      <use xlink:href="#DejaVuSans-6c" x="1022.949219"/>
      <use xlink:href="#DejaVuSans-20" x="1050.732422"/>
      <use xlink:href="#DejaVuSans-28" x="1082.519531"/>
      <use xlink:href="#DejaVuSans-6d" x="1121.533203"/>
      <use xlink:href="#DejaVuSans-75" x="1218.945312"/>
      <use xlink:href="#DejaVuSans-6c" x="1282.324219"/>
      <use xlink:href="#DejaVuSans-74" x="1310.107422"/>
      <use xlink:href="#DejaVuSans-69" x="1349.316406"/>
      <use xlink:href="#DejaVuSans-70" x="1377.099609"/>
      <use xlink:href="#DejaVuSans-6c" x="1440.576172"/>
      <use xlink:href="#DejaVuSans-69" x="1468.359375"/>
      <use xlink:href="#DejaVuSans-63" x="1496.142578"/>
      <use xlink:href="#DejaVuSans-61" x="1551.123047"/>
      <use xlink:href="#DejaVuSans-74" x="1612.402344"/>
      <use xlink:href="#DejaVuSans-69" x="1651.611328"/>
      <use xlink:href="#DejaVuSans-6f" x="1679.394531"/>
      <use xlink:href="#DejaVuSans-6e" x="1740.576172"/>
      <use xlink:href="#DejaVuSans-29" x="1803.955078"/>
     </g>
    </g>
   </g>
   <g id="line2d_24">
    <path d="M 298.065 33.569091 
L 309.512105 35.437183 
L 320.959211 41.076286 
L 332.406316 48.169434 
L 343.853421 56.794594 
L 355.300526 66.852641 
L 366.747632 76.791536 
L 378.194737 85.546434 
L 389.641842 95.160911 
L 401.088947 103.090948 
L 412.536053 110.858155 
L 423.983158 117.416823 
L 435.430263 123.634789 
L 446.877368 129.322974 
L 458.324474 134.794018 
L 469.771579 139.206418 
L 481.218684 143.359526 
L 492.665789 146.894711 
L 504.112895 150.374138 
L 515.56 153.294416 
" clip-path="url(#p23b8ce3315)" style="fill: none; stroke: #1f77b4; stroke-width: 1.5; stroke-linecap: square"/>
   </g>
   <g id="line2d_25">
    <path d="M 298.065 33.569227 
L 309.512105 35.438406 
L 320.959211 41.080801 
L 332.406316 48.179747 
L 343.853421 56.805773 
L 355.300526 66.861804 
L 366.747632 76.793392 
L 378.194737 85.551113 
L 389.641842 95.143496 
L 401.088947 103.10042 
L 412.536053 110.876217 
L 423.983158 117.463597 
L 435.430263 123.67558 
L 446.877368 129.428348 
L 458.324474 134.9208 
L 469.771579 139.288568 
L 481.218684 143.462304 
L 492.665789 146.963436 
L 504.112895 150.466027 
L 515.56 153.368526 
" clip-path="url(#p23b8ce3315)" style="fill: none; stroke: #ff7f0e; stroke-width: 1.5; stroke-linecap: square"/>
   </g>
   <g id="line2d_26">
    <path d="M 298.065 33.569091 
L 309.512105 35.43895 
L 320.959211 41.102801 
L 332.406316 48.228875 
L 343.853421 56.88586 
L 355.300526 66.982237 
L 366.747632 76.991318 
L 378.194737 85.79459 
L 389.641842 95.414681 
L 401.088947 103.434074 
L 412.536053 111.262318 
L 423.983158 117.831463 
L 435.430263 124.062219 
L 446.877368 129.846552 
L 458.324474 135.272213 
L 469.771579 139.611056 
L 481.218684 143.683859 
L 492.665789 147.160857 
L 504.112895 150.542391 
L 515.56 153.447854 
" clip-path="url(#p23b8ce3315)" style="fill: none; stroke: #2ca02c; stroke-width: 1.5; stroke-linecap: square"/>
   </g>
   <g id="line2d_27">
    <path d="M 298.065 33.569812 
L 309.512105 35.438723 
L 320.959211 41.100497 
L 332.406316 48.220105 
L 343.853421 56.857175 
L 355.300526 66.953383 
L 366.747632 76.946558 
L 378.194737 85.758053 
L 389.641842 95.381636 
L 401.088947 103.425322 
L 412.536053 111.255559 
L 423.983158 117.883822 
L 435.430263 124.158217 
L 446.877368 130.000413 
L 458.324474 135.461033 
L 469.771579 139.759287 
L 481.218684 143.864215 
L 492.665789 147.316228 
L 504.112895 150.743164 
L 515.56 153.631368 
" clip-path="url(#p23b8ce3315)" style="fill: none; stroke: #d62728; stroke-width: 1.5; stroke-linecap: square"/>
   </g>
   <g id="line2d_28">
    <path d="M 298.065 33.569091 
L 309.512105 35.436439 
L 320.959211 41.090404 
L 332.406316 48.178965 
L 343.853421 56.782928 
L 355.300526 66.882671 
L 366.747632 76.85507 
L 378.194737 85.773437 
L 389.641842 95.380261 
L 401.088947 103.277459 
L 412.536053 111.23363 
L 423.983158 117.811782 
L 435.430263 123.579685 
L 446.877368 130.048739 
L 458.324474 135.077623 
L 469.771579 139.578728 
L 481.218684 143.846995 
L 492.665789 147.488851 
L 504.112895 150.672296 
L 515.56 154.487816 
" clip-path="url(#p23b8ce3315)" style="fill: none; stroke: #9467bd; stroke-width: 1.5; stroke-linecap: square"/>
   </g>
   <g id="line2d_29">
    <path d="M 298.065 33.569632 
L 309.512105 35.438044 
L 320.959211 41.09604 
L 332.406316 48.189276 
L 343.853421 56.789465 
L 355.300526 66.892766 
L 366.747632 76.848649 
L 378.194737 85.773922 
L 389.641842 95.361764 
L 401.088947 103.284624 
L 412.536053 111.25938 
L 423.983158 117.842147 
L 435.430263 123.600211 
L 446.877368 130.141998 
L 458.324474 135.192733 
L 469.771579 139.684109 
L 481.218684 143.954587 
L 492.665789 147.55195 
L 504.112895 150.761172 
L 515.56 154.527731 
" clip-path="url(#p23b8ce3315)" style="fill: none; stroke: #8c564b; stroke-width: 1.5; stroke-linecap: square"/>
   </g>
   <g id="line2d_30">
    <path d="M 298.065 45.630423 
L 309.512105 47.383079 
L 320.959211 52.46374 
L 332.406316 58.973728 
L 343.853421 66.868063 
L 355.300526 76.165326 
L 366.747632 85.283706 
L 378.194737 93.428227 
L 389.641842 102.313811 
L 401.088947 109.816184 
L 412.536053 117.104488 
L 423.983158 123.413377 
L 435.430263 129.338626 
L 446.877368 134.629803 
L 458.324474 139.634023 
L 469.771579 143.88495 
L 481.218684 147.822268 
L 492.665789 150.968034 
L 504.112895 154.38682 
L 515.56 157.000588 
" clip-path="url(#p23b8ce3315)" style="fill: none; stroke: #e377c2; stroke-width: 1.5; stroke-linecap: square"/>
   </g>
   <g id="line2d_31">
    <path d="M 298.065 33.569352 
L 309.512105 35.440549 
L 320.959211 41.091758 
L 332.406316 48.194689 
L 343.853421 56.83869 
L 355.300526 66.893573 
L 366.747632 76.853576 
L 378.194737 85.619308 
L 389.641842 95.190499 
L 401.088947 103.158116 
L 412.536053 111.007966 
L 423.983158 117.544528 
L 435.430263 123.761855 
L 446.877368 129.551354 
L 458.324474 134.95546 
L 469.771579 139.370932 
L 481.218684 143.5335 
L 492.665789 147.081578 
L 504.112895 150.648769 
L 515.56 153.718076 
" clip-path="url(#p23b8ce3315)" style="fill: none; stroke: #7f7f7f; stroke-width: 1.5; stroke-linecap: square"/>
   </g>
   <g id="patch_6">
    <path d="M 298.065 174.04 
L 298.065 26.88 
" style="fill: none; stroke: #000000; stroke-width: 0.8; stroke-linejoin: miter; stroke-linecap: square"/>
   </g>
   <g id="patch_7">
    <path d="M 298.065 174.04 
L 515.56 174.04 
" style="fill: none; stroke: #000000; stroke-width: 0.8; stroke-linejoin: miter; stroke-linecap: square"/>
   </g>
   <g id="text_20">
    <!-- Node * third variable -->
    <g transform="translate(344.2325 20.88)scale(0.12 -0.12)">
     <defs>
      <path id="DejaVuSans-68" d="M 3513 2113 
L 3513 0 
L 2938 0 
L 2938 2094 
Q 2938 2591 2744 2837 
Q 2550 3084 2163 3084 
Q 1697 3084 1428 2787 
Q 1159 2491 1159 1978 
L 1159 0 
L 581 0 
L 581 4863 
L 1159 4863 
L 1159 2956 
Q 1366 3272 1645 3428 
Q 1925 3584 2291 3584 
Q 2894 3584 3203 3211 
Q 3513 2838 3513 2113 
z
" transform="scale(0.015625)"/>
      <path id="DejaVuSans-62" d="M 3116 1747 
Q 3116 2381 2855 2742 
Q 2594 3103 2138 3103 
Q 1681 3103 1420 2742 
Q 1159 2381 1159 1747 
Q 1159 1113 1420 752 
Q 1681 391 2138 391 
Q 2594 391 2855 752 
Q 3116 1113 3116 1747 
z
M 1159 2969 
Q 1341 3281 1617 3432 
Q 1894 3584 2278 3584 
Q 2916 3584 3314 3078 
Q 3713 2572 3713 1747 
Q 3713 922 3314 415 
Q 2916 -91 2278 -91 
Q 1894 -91 1617 61 
Q 1341 213 1159 525 
L 1159 0 
L 581 0 
L 581 4863 
L 1159 4863 
L 1159 2969 
z
" transform="scale(0.015625)"/>
     </defs>
     <use xlink:href="#DejaVuSans-4e"/>
     <use xlink:href="#DejaVuSans-6f" x="74.804688"/>
     <use xlink:href="#DejaVuSans-64" x="135.986328"/>
     <use xlink:href="#DejaVuSans-65" x="199.462891"/>
     <use xlink:href="#DejaVuSans-20" x="260.986328"/>
     <use xlink:href="#DejaVuSans-2a" x="292.773438"/>
     <use xlink:href="#DejaVuSans-20" x="342.773438"/>
     <use xlink:href="#DejaVuSans-74" x="374.560547"/>
     <use xlink:href="#DejaVuSans-68" x="413.769531"/>
     <use xlink:href="#DejaVuSans-69" x="477.148438"/>
     <use xlink:href="#DejaVuSans-72" x="504.931641"/>
     <use xlink:href="#DejaVuSans-64" x="544.294922"/>
     <use xlink:href="#DejaVuSans-20" x="607.771484"/>
     <use xlink:href="#DejaVuSans-76" x="639.558594"/>
     <use xlink:href="#DejaVuSans-61" x="698.738281"/>
     <use xlink:href="#DejaVuSans-72" x="760.017578"/>
     <use xlink:href="#DejaVuSans-69" x="801.130859"/>
     <use xlink:href="#DejaVuSans-61" x="828.914062"/>
     <use xlink:href="#DejaVuSans-62" x="890.193359"/>
     <use xlink:href="#DejaVuSans-6c" x="953.669922"/>
     <use xlink:href="#DejaVuSans-65" x="981.453125"/>
    </g>
   </g>
   <g id="legend_1">
    <g id="line2d_32">
     <path d="M 524.56 39.978437 
L 534.56 39.978437 
L 544.56 39.978437 
" style="fill: none; stroke: #1f77b4; stroke-width: 1.5; stroke-linecap: square"/>
    </g>
    <g id="text_21">
     <!-- Node -->
     <g transform="translate(552.56 43.478437)scale(0.1 -0.1)">
      <use xlink:href="#DejaVuSans-4e"/>
      <use xlink:href="#DejaVuSans-6f" x="74.804688"/>
      <use xlink:href="#DejaVuSans-64" x="135.986328"/>
      <use xlink:href="#DejaVuSans-65" x="199.462891"/>
     </g>
    </g>
    <g id="line2d_33">
     <path d="M 524.56 54.656563 
L 534.56 54.656563 
L 544.56 54.656563 
" style="fill: none; stroke: #ff7f0e; stroke-width: 1.5; stroke-linecap: square"/>
    </g>
    <g id="text_22">
     <!-- Node + surprisal -->
     <g transform="translate(552.56 58.156563)scale(0.1 -0.1)">
      <defs>
       <path id="DejaVuSans-2b" d="M 2944 4013 
L 2944 2272 
L 4684 2272 
L 4684 1741 
L 2944 1741 
L 2944 0 
L 2419 0 
L 2419 1741 
L 678 1741 
L 678 2272 
L 2419 2272 
L 2419 4013 
L 2944 4013 
z
" transform="scale(0.015625)"/>
      </defs>
      <use xlink:href="#DejaVuSans-4e"/>
      <use xlink:href="#DejaVuSans-6f" x="74.804688"/>
      <use xlink:href="#DejaVuSans-64" x="135.986328"/>
      <use xlink:href="#DejaVuSans-65" x="199.462891"/>
      <use xlink:href="#DejaVuSans-20" x="260.986328"/>
      <use xlink:href="#DejaVuSans-2b" x="292.773438"/>
      <use xlink:href="#DejaVuSans-20" x="376.5625"/>
      <use xlink:href="#DejaVuSans-73" x="408.349609"/>
      <use xlink:href="#DejaVuSans-75" x="460.449219"/>
      <use xlink:href="#DejaVuSans-72" x="523.828125"/>
      <use xlink:href="#DejaVuSans-70" x="564.941406"/>
      <use xlink:href="#DejaVuSans-72" x="628.417969"/>
      <use xlink:href="#DejaVuSans-69" x="669.53125"/>
      <use xlink:href="#DejaVuSans-73" x="697.314453"/>
      <use xlink:href="#DejaVuSans-61" x="749.414062"/>
      <use xlink:href="#DejaVuSans-6c" x="810.693359"/>
     </g>
    </g>
    <g id="line2d_34">
     <path d="M 524.56 69.334687 
L 534.56 69.334687 
L 544.56 69.334687 
" style="fill: none; stroke: #2ca02c; stroke-width: 1.5; stroke-linecap: square"/>
    </g>
    <g id="text_23">
     <!-- Node split -->
     <g transform="translate(552.56 72.834687)scale(0.1 -0.1)">
      <use xlink:href="#DejaVuSans-4e"/>
      <use xlink:href="#DejaVuSans-6f" x="74.804688"/>
      <use xlink:href="#DejaVuSans-64" x="135.986328"/>
      <use xlink:href="#DejaVuSans-65" x="199.462891"/>
      <use xlink:href="#DejaVuSans-20" x="260.986328"/>
      <use xlink:href="#DejaVuSans-73" x="292.773438"/>
      <use xlink:href="#DejaVuSans-70" x="344.873047"/>
      <use xlink:href="#DejaVuSans-6c" x="408.349609"/>
      <use xlink:href="#DejaVuSans-69" x="436.132812"/>
      <use xlink:href="#DejaVuSans-74" x="463.916016"/>
     </g>
    </g>
    <g id="line2d_35">
     <path d="M 524.56 84.012812 
L 534.56 84.012812 
L 544.56 84.012812 
" style="fill: none; stroke: #d62728; stroke-width: 1.5; stroke-linecap: square"/>
    </g>
    <g id="text_24">
     <!-- Node split + surprisal -->
     <g transform="translate(552.56 87.512812)scale(0.1 -0.1)">
      <use xlink:href="#DejaVuSans-4e"/>
      <use xlink:href="#DejaVuSans-6f" x="74.804688"/>
      <use xlink:href="#DejaVuSans-64" x="135.986328"/>
      <use xlink:href="#DejaVuSans-65" x="199.462891"/>
      <use xlink:href="#DejaVuSans-20" x="260.986328"/>
      <use xlink:href="#DejaVuSans-73" x="292.773438"/>
      <use xlink:href="#DejaVuSans-70" x="344.873047"/>
      <use xlink:href="#DejaVuSans-6c" x="408.349609"/>
      <use xlink:href="#DejaVuSans-69" x="436.132812"/>
      <use xlink:href="#DejaVuSans-74" x="463.916016"/>
      <use xlink:href="#DejaVuSans-20" x="503.125"/>
      <use xlink:href="#DejaVuSans-2b" x="534.912109"/>
      <use xlink:href="#DejaVuSans-20" x="618.701172"/>
      <use xlink:href="#DejaVuSans-73" x="650.488281"/>
      <use xlink:href="#DejaVuSans-75" x="702.587891"/>
      <use xlink:href="#DejaVuSans-72" x="765.966797"/>
      <use xlink:href="#DejaVuSans-70" x="807.080078"/>
      <use xlink:href="#DejaVuSans-72" x="870.556641"/>
      <use xlink:href="#DejaVuSans-69" x="911.669922"/>
      <use xlink:href="#DejaVuSans-73" x="939.453125"/>
      <use xlink:href="#DejaVuSans-61" x="991.552734"/>
      <use xlink:href="#DejaVuSans-6c" x="1052.832031"/>
     </g>
    </g>
    <g id="line2d_36">
     <path d="M 524.56 98.690937 
L 534.56 98.690937 
L 544.56 98.690937 
" style="fill: none; stroke: #9467bd; stroke-width: 1.5; stroke-linecap: square"/>
    </g>
    <g id="text_25">
     <!-- Node random split -->
     <g transform="translate(552.56 102.190937)scale(0.1 -0.1)">
      <use xlink:href="#DejaVuSans-4e"/>
      <use xlink:href="#DejaVuSans-6f" x="74.804688"/>
      <use xlink:href="#DejaVuSans-64" x="135.986328"/>
      <use xlink:href="#DejaVuSans-65" x="199.462891"/>
      <use xlink:href="#DejaVuSans-20" x="260.986328"/>
      <use xlink:href="#DejaVuSans-72" x="292.773438"/>
      <use xlink:href="#DejaVuSans-61" x="333.886719"/>
      <use xlink:href="#DejaVuSans-6e" x="395.166016"/>
      <use xlink:href="#DejaVuSans-64" x="458.544922"/>
      <use xlink:href="#DejaVuSans-6f" x="522.021484"/>
      <use xlink:href="#DejaVuSans-6d" x="583.203125"/>
      <use xlink:href="#DejaVuSans-20" x="680.615234"/>
      <use xlink:href="#DejaVuSans-73" x="712.402344"/>
      <use xlink:href="#DejaVuSans-70" x="764.501953"/>
      <use xlink:href="#DejaVuSans-6c" x="827.978516"/>
      <use xlink:href="#DejaVuSans-69" x="855.761719"/>
      <use xlink:href="#DejaVuSans-74" x="883.544922"/>
     </g>
    </g>
    <g id="line2d_37">
     <path d="M 524.56 113.369062 
L 534.56 113.369062 
L 544.56 113.369062 
" style="fill: none; stroke: #8c564b; stroke-width: 1.5; stroke-linecap: square"/>
    </g>
    <g id="text_26">
     <!-- Node random split + surprisal -->
     <g transform="translate(552.56 116.869062)scale(0.1 -0.1)">
      <use xlink:href="#DejaVuSans-4e"/>
      <use xlink:href="#DejaVuSans-6f" x="74.804688"/>
      <use xlink:href="#DejaVuSans-64" x="135.986328"/>
      <use xlink:href="#DejaVuSans-65" x="199.462891"/>
      <use xlink:href="#DejaVuSans-20" x="260.986328"/>
      <use xlink:href="#DejaVuSans-72" x="292.773438"/>
      <use xlink:href="#DejaVuSans-61" x="333.886719"/>
      <use xlink:href="#DejaVuSans-6e" x="395.166016"/>
      <use xlink:href="#DejaVuSans-64" x="458.544922"/>
      <use xlink:href="#DejaVuSans-6f" x="522.021484"/>
      <use xlink:href="#DejaVuSans-6d" x="583.203125"/>
      <use xlink:href="#DejaVuSans-20" x="680.615234"/>
      <use xlink:href="#DejaVuSans-73" x="712.402344"/>
      <use xlink:href="#DejaVuSans-70" x="764.501953"/>
      <use xlink:href="#DejaVuSans-6c" x="827.978516"/>
      <use xlink:href="#DejaVuSans-69" x="855.761719"/>
      <use xlink:href="#DejaVuSans-74" x="883.544922"/>
      <use xlink:href="#DejaVuSans-20" x="922.753906"/>
      <use xlink:href="#DejaVuSans-2b" x="954.541016"/>
      <use xlink:href="#DejaVuSans-20" x="1038.330078"/>
      <use xlink:href="#DejaVuSans-73" x="1070.117188"/>
      <use xlink:href="#DejaVuSans-75" x="1122.216797"/>
      <use xlink:href="#DejaVuSans-72" x="1185.595703"/>
      <use xlink:href="#DejaVuSans-70" x="1226.708984"/>
      <use xlink:href="#DejaVuSans-72" x="1290.185547"/>
      <use xlink:href="#DejaVuSans-69" x="1331.298828"/>
      <use xlink:href="#DejaVuSans-73" x="1359.082031"/>
      <use xlink:href="#DejaVuSans-61" x="1411.181641"/>
      <use xlink:href="#DejaVuSans-6c" x="1472.460938"/>
     </g>
    </g>
    <g id="line2d_38">
     <path d="M 524.56 128.047187 
L 534.56 128.047187 
L 544.56 128.047187 
" style="fill: none; stroke: #e377c2; stroke-width: 1.5; stroke-linecap: square"/>
    </g>
    <g id="text_27">
     <!-- Interaction -->
     <g transform="translate(552.56 131.547187)scale(0.1 -0.1)">
      <use xlink:href="#DejaVuSans-49"/>
      <use xlink:href="#DejaVuSans-6e" x="29.492188"/>
      <use xlink:href="#DejaVuSans-74" x="92.871094"/>
      <use xlink:href="#DejaVuSans-65" x="132.080078"/>
      <use xlink:href="#DejaVuSans-72" x="193.603516"/>
      <use xlink:href="#DejaVuSans-61" x="234.716797"/>
      <use xlink:href="#DejaVuSans-63" x="295.996094"/>
      <use xlink:href="#DejaVuSans-74" x="350.976562"/>
      <use xlink:href="#DejaVuSans-69" x="390.185547"/>
      <use xlink:href="#DejaVuSans-6f" x="417.96875"/>
      <use xlink:href="#DejaVuSans-6e" x="479.150391"/>
     </g>
    </g>
    <g id="line2d_39">
     <path d="M 524.56 142.725312 
L 534.56 142.725312 
L 544.56 142.725312 
" style="fill: none; stroke: #7f7f7f; stroke-width: 1.5; stroke-linecap: square"/>
    </g>
    <g id="text_28">
     <!-- Node + surprisal + interaction -->
     <g transform="translate(552.56 146.225312)scale(0.1 -0.1)">
      <use xlink:href="#DejaVuSans-4e"/>
      <use xlink:href="#DejaVuSans-6f" x="74.804688"/>
      <use xlink:href="#DejaVuSans-64" x="135.986328"/>
      <use xlink:href="#DejaVuSans-65" x="199.462891"/>
      <use xlink:href="#DejaVuSans-20" x="260.986328"/>
      <use xlink:href="#DejaVuSans-2b" x="292.773438"/>
      <use xlink:href="#DejaVuSans-20" x="376.5625"/>
      <use xlink:href="#DejaVuSans-73" x="408.349609"/>
      <use xlink:href="#DejaVuSans-75" x="460.449219"/>
      <use xlink:href="#DejaVuSans-72" x="523.828125"/>
      <use xlink:href="#DejaVuSans-70" x="564.941406"/>
      <use xlink:href="#DejaVuSans-72" x="628.417969"/>
      <use xlink:href="#DejaVuSans-69" x="669.53125"/>
      <use xlink:href="#DejaVuSans-73" x="697.314453"/>
      <use xlink:href="#DejaVuSans-61" x="749.414062"/>
      <use xlink:href="#DejaVuSans-6c" x="810.693359"/>
      <use xlink:href="#DejaVuSans-20" x="838.476562"/>
      <use xlink:href="#DejaVuSans-2b" x="870.263672"/>
      <use xlink:href="#DejaVuSans-20" x="954.052734"/>
      <use xlink:href="#DejaVuSans-69" x="985.839844"/>
      <use xlink:href="#DejaVuSans-6e" x="1013.623047"/>
      <use xlink:href="#DejaVuSans-74" x="1077.001953"/>
      <use xlink:href="#DejaVuSans-65" x="1116.210938"/>
      <use xlink:href="#DejaVuSans-72" x="1177.734375"/>
      <use xlink:href="#DejaVuSans-61" x="1218.847656"/>
      <use xlink:href="#DejaVuSans-63" x="1280.126953"/>
      <use xlink:href="#DejaVuSans-74" x="1335.107422"/>
      <use xlink:href="#DejaVuSans-69" x="1374.316406"/>
      <use xlink:href="#DejaVuSans-6f" x="1402.099609"/>
      <use xlink:href="#DejaVuSans-6e" x="1463.28125"/>
     </g>
    </g>
   </g>
  </g>
 </g>
 <defs>
  <clipPath id="pfdb793129a">
   <rect x="47.72" y="26.88" width="217.495" height="147.16"/>
  </clipPath>
  <clipPath id="p23b8ce3315">
   <rect x="298.065" y="26.88" width="217.495" height="147.16"/>
  </clipPath>
 </defs>
</svg>
