<?xml version="1.0" encoding="utf-8" standalone="no"?>
<!DOCTYPE svg PUBLIC "-//W3C//DTD SVG 1.1//EN"
  "http://www.w3.org/Graphics/SVG/1.1/DTD/svg11.dtd">
<svg xmlns:xlink="http://www.w3.org/1999/xlink" width="720pt" height="216pt" viewBox="0 0 720 216" xmlns="http://www.w3.org/2000/svg" version="1.1">
 <metadata>
  <rdf:RDF xmlns:dc="http://purl.org/dc/elements/1.1/" xmlns:cc="http://creativecommons.org/ns#" xmlns:rdf="http://www.w3.org/1999/02/22-rdf-syntax-ns#">
   <cc:Work>
    <dc:type rdf:resource="http://purl.org/dc/dcmitype/StillImage"/>
    <dc:date>2024-01-15T19:32:33.287315</dc:date>
    <dc:format>image/svg+xml</dc:format>
    <dc:creator>
     <cc:Agent>
      <dc:title>Matplotlib v3.5.1, https://matplotlib.org/</dc:title>
     </cc:Agent>
    </dc:creator>
   </cc:Work>
  </rdf:RDF>
 </metadata>
 <defs>
  <style type="text/css">*{stroke-linejoin: round; stroke-linecap: butt}</style>
 </defs>
 <g id="figure_1">
  <g id="patch_1">
   <path d="M 0 216 
L 720 216 
L 720 0 
L 0 0 
z
" style="fill: #ffffff"/>
  </g>
  <g id="axes_1">
   <g id="patch_2">
    <path d="M 47.72 174.04 
L 265.215 174.04 
L 265.215 26.88 
L 47.72 26.88 
z
" style="fill: #ffffff"/>
   </g>
   <g id="PolyCollection_1">
    <path d="M 47.72 33.569091 
L 47.72 33.569091 
L 59.167105 35.837749 
L 70.614211 42.373683 
L 82.061316 49.886081 
L 93.508421 58.75906 
L 104.955526 68.663593 
L 116.402632 78.864935 
L 127.849737 88.722453 
L 139.296842 96.957823 
L 150.743947 106.035678 
L 162.191053 114.016321 
L 173.638158 121.024187 
L 185.085263 127.839741 
L 196.532368 133.980565 
L 207.979474 139.256104 
L 219.426579 143.7047 
L 230.873684 148.157202 
L 242.320789 152.318523 
L 253.767895 155.361576 
L 265.215 158.386203 
L 265.215 149.153645 
L 265.215 149.153645 
L 253.767895 145.68713 
L 242.320789 142.053683 
L 230.873684 138.398742 
L 219.426579 134.338521 
L 207.979474 129.571113 
L 196.532368 123.502823 
L 185.085263 118.379719 
L 173.638158 111.75786 
L 162.191053 105.509568 
L 150.743947 97.821676 
L 139.296842 90.454132 
L 127.849737 82.122421 
L 116.402632 72.45328 
L 104.955526 63.63435 
L 93.508421 54.32448 
L 82.061316 46.686664 
L 70.614211 40.1056 
L 59.167105 35.116273 
L 47.72 33.569091 
z
" clip-path="url(#p244d34d46f)" style="fill: #1f77b4; fill-opacity: 0.4"/>
   </g>
   <g id="PolyCollection_2">
    <path d="M 47.72 33.569223 
L 47.72 33.569285 
L 59.167105 34.978315 
L 70.614211 38.901972 
L 82.061316 43.977458 
L 93.508421 50.236669 
L 104.955526 58.054707 
L 116.402632 66.32352 
L 127.849737 74.907295 
L 139.296842 82.765195 
L 150.743947 91.623389 
L 162.191053 98.825364 
L 173.638158 106.500939 
L 185.085263 113.341571 
L 196.532368 119.720378 
L 207.979474 125.691171 
L 219.426579 131.1709 
L 230.873684 136.130652 
L 242.320789 141.057764 
L 253.767895 144.708172 
L 265.215 148.470978 
L 265.215 138.700547 
L 265.215 138.700547 
L 253.767895 134.614254 
L 242.320789 130.513905 
L 230.873684 126.493904 
L 219.426579 121.683232 
L 207.979474 117.023562 
L 196.532368 110.630693 
L 185.085263 105.318839 
L 173.638158 98.180688 
L 162.191053 92.191906 
L 150.743947 83.603355 
L 139.296842 76.244654 
L 127.849737 68.615807 
L 116.402632 60.165773 
L 104.955526 53.116438 
L 93.508421 46.644032 
L 82.061316 41.653848 
L 70.614211 37.599362 
L 59.167105 34.67903 
L 47.72 33.569223 
z
" clip-path="url(#p244d34d46f)" style="fill: #ff7f0e; fill-opacity: 0.4"/>
   </g>
   <g id="PolyCollection_3">
    <path d="M 47.72 33.569091 
L 47.72 33.569092 
L 59.167105 35.407302 
L 70.614211 38.684961 
L 82.061316 42.05969 
L 93.508421 45.868517 
L 104.955526 50.35538 
L 116.402632 55.101832 
L 127.849737 60.03898 
L 139.296842 64.726175 
L 150.743947 69.59653 
L 162.191053 75.090119 
L 173.638158 79.393683 
L 185.085263 83.927585 
L 196.532368 87.320656 
L 207.979474 91.949425 
L 219.426579 95.201324 
L 230.873684 99.326702 
L 242.320789 102.567693 
L 253.767895 106.37407 
L 265.215 110.066474 
L 265.215 101.59136 
L 265.215 101.59136 
L 253.767895 97.289338 
L 242.320789 93.688275 
L 230.873684 89.425977 
L 219.426579 85.761848 
L 207.979474 82.07007 
L 196.532368 77.782891 
L 185.085263 74.754215 
L 173.638158 70.907034 
L 162.191053 67.631611 
L 150.743947 63.911528 
L 139.296842 59.478778 
L 127.849737 55.583216 
L 116.402632 50.902428 
L 104.955526 46.946428 
L 93.508421 43.282156 
L 82.061316 39.944572 
L 70.614211 37.067321 
L 59.167105 34.784116 
L 47.72 33.569091 
z
" clip-path="url(#p244d34d46f)" style="fill: #2ca02c; fill-opacity: 0.4"/>
   </g>
   <g id="PolyCollection_4">
    <path d="M 47.72 33.569823 
L 47.72 33.570178 
L 59.167105 34.922508 
L 70.614211 37.518559 
L 82.061316 40.457268 
L 93.508421 43.81757 
L 104.955526 47.951925 
L 116.402632 52.652691 
L 127.849737 57.74737 
L 139.296842 62.554714 
L 150.743947 67.774629 
L 162.191053 73.395881 
L 173.638158 78.058602 
L 185.085263 82.79789 
L 196.532368 86.21904 
L 207.979474 90.928479 
L 219.426579 94.102158 
L 230.873684 98.075398 
L 242.320789 101.251048 
L 253.767895 104.885515 
L 265.215 108.389069 
L 265.215 100.02594 
L 265.215 100.02594 
L 253.767895 95.887499 
L 242.320789 92.324156 
L 230.873684 88.198019 
L 219.426579 84.546055 
L 207.979474 80.815071 
L 196.532368 76.524791 
L 185.085263 73.45103 
L 173.638158 69.463856 
L 162.191053 66.117372 
L 150.743947 62.120563 
L 139.296842 57.462367 
L 127.849737 53.509261 
L 116.402632 48.821393 
L 104.955526 45.141437 
L 93.508421 41.666454 
L 82.061316 38.795828 
L 70.614211 36.456509 
L 59.167105 34.625239 
L 47.72 33.569823 
z
" clip-path="url(#p244d34d46f)" style="fill: #d62728; fill-opacity: 0.4"/>
   </g>
   <g id="PolyCollection_5">
    <path d="M 47.72 33.569091 
L 47.72 33.569092 
L 59.167105 35.839348 
L 70.614211 42.362953 
L 82.061316 49.89602 
L 93.508421 58.69703 
L 104.955526 68.599328 
L 116.402632 79.292322 
L 127.849737 88.712319 
L 139.296842 97.139573 
L 150.743947 106.163107 
L 162.191053 114.58658 
L 173.638158 121.641187 
L 185.085263 128.618125 
L 196.532368 134.73902 
L 207.979474 139.726931 
L 219.426579 143.229317 
L 230.873684 149.094729 
L 242.320789 151.91412 
L 253.767895 155.69413 
L 265.215 159.888453 
L 265.215 148.970869 
L 265.215 148.970869 
L 253.767895 146.048479 
L 242.320789 141.332261 
L 230.873684 139.001077 
L 219.426579 134.7965 
L 207.979474 130.165475 
L 196.532368 124.085516 
L 185.085263 118.776964 
L 173.638158 112.151385 
L 162.191053 105.785508 
L 150.743947 97.972909 
L 139.296842 90.423343 
L 127.849737 82.184458 
L 116.402632 72.540464 
L 104.955526 63.993124 
L 93.508421 54.415789 
L 82.061316 46.707274 
L 70.614211 40.122613 
L 59.167105 35.119027 
L 47.72 33.569091 
z
" clip-path="url(#p244d34d46f)" style="fill: #9467bd; fill-opacity: 0.4"/>
   </g>
   <g id="PolyCollection_6">
    <path d="M 47.72 33.569619 
L 47.72 33.569866 
L 59.167105 34.981302 
L 70.614211 38.902244 
L 82.061316 44.004389 
L 93.508421 50.22305 
L 104.955526 58.000012 
L 116.402632 66.468015 
L 127.849737 75.021312 
L 139.296842 82.966326 
L 150.743947 91.816515 
L 162.191053 99.076207 
L 173.638158 106.904549 
L 185.085263 113.92457 
L 196.532368 120.059986 
L 207.979474 126.060508 
L 219.426579 130.830447 
L 230.873684 136.51226 
L 242.320789 140.698058 
L 253.767895 145.054593 
L 265.215 149.853141 
L 265.215 138.653501 
L 265.215 138.653501 
L 253.767895 134.766211 
L 242.320789 130.040824 
L 230.873684 126.90291 
L 219.426579 122.007949 
L 207.979474 117.679075 
L 196.532368 111.013347 
L 185.085263 105.576434 
L 173.638158 98.601807 
L 162.191053 92.582883 
L 150.743947 83.771219 
L 139.296842 76.217209 
L 127.849737 68.575612 
L 116.402632 60.236757 
L 104.955526 53.223923 
L 93.508421 46.643655 
L 82.061316 41.661383 
L 70.614211 37.60077 
L 59.167105 34.679837 
L 47.72 33.569619 
z
" clip-path="url(#p244d34d46f)" style="fill: #8c564b; fill-opacity: 0.4"/>
   </g>
   <g id="PolyCollection_7">
    <path d="M 47.72 43.382353 
L 47.72 48.986966 
L 59.167105 52.961199 
L 70.614211 62.263936 
L 82.061316 71.519477 
L 93.508421 80.482258 
L 104.955526 91.022706 
L 116.402632 101.877053 
L 127.849737 111.196882 
L 139.296842 119.174815 
L 150.743947 126.14112 
L 162.191053 132.405281 
L 173.638158 137.958479 
L 185.085263 143.044288 
L 196.532368 147.40782 
L 207.979474 151.680668 
L 219.426579 155.093001 
L 230.873684 158.774635 
L 242.320789 161.945146 
L 253.767895 164.689687 
L 265.215 167.350909 
L 265.215 158.994811 
L 265.215 158.994811 
L 253.767895 156.290841 
L 242.320789 153.591156 
L 230.873684 150.384861 
L 219.426579 147.360222 
L 207.979474 143.408327 
L 196.532368 138.541605 
L 185.085263 134.066316 
L 173.638158 128.855227 
L 162.191053 123.538092 
L 150.743947 116.056882 
L 139.296842 107.531036 
L 127.849737 98.55552 
L 116.402632 87.829961 
L 104.955526 77.578867 
L 93.508421 67.195498 
L 82.061316 57.814155 
L 70.614211 49.959374 
L 59.167105 45.053442 
L 47.72 43.382353 
z
" clip-path="url(#p244d34d46f)" style="fill: #e377c2; fill-opacity: 0.4"/>
   </g>
   <g id="PolyCollection_8">
    <path d="M 47.72 33.569336 
L 47.72 33.569518 
L 59.167105 34.30006 
L 70.614211 36.571045 
L 82.061316 40.824231 
L 93.508421 45.617702 
L 104.955526 50.897594 
L 116.402632 57.641323 
L 127.849737 65.856804 
L 139.296842 74.090104 
L 150.743947 82.514717 
L 162.191053 89.50086 
L 173.638158 96.455829 
L 185.085263 102.904519 
L 196.532368 108.728804 
L 207.979474 114.700471 
L 219.426579 120.164297 
L 230.873684 125.635811 
L 242.320789 130.51732 
L 253.767895 135.064879 
L 265.215 139.103692 
L 265.215 131.575147 
L 265.215 131.575147 
L 253.767895 126.779143 
L 242.320789 122.897375 
L 230.873684 118.322539 
L 219.426579 113.630866 
L 207.979474 108.522768 
L 196.532368 101.734473 
L 185.085263 95.468801 
L 173.638158 86.862546 
L 162.191053 79.569147 
L 150.743947 69.800233 
L 139.296842 61.447666 
L 127.849737 53.877643 
L 116.402632 46.576365 
L 104.955526 40.894581 
L 93.508421 36.566944 
L 82.061316 34.483747 
L 70.614211 34.072779 
L 59.167105 34.090595 
L 47.72 33.569336 
z
" clip-path="url(#p244d34d46f)" style="fill: #7f7f7f; fill-opacity: 0.4"/>
   </g>
   <g id="matplotlib.axis_1">
    <g id="xtick_1">
     <g id="line2d_1">
      <defs>
       <path id="m87220b180e" d="M 0 0 
L 0 3.5 
" style="stroke: #000000; stroke-width: 0.8"/>
      </defs>
      <g>
       <use xlink:href="#m87220b180e" x="47.72" y="174.04" style="stroke: #000000; stroke-width: 0.8"/>
      </g>
     </g>
     <g id="text_1">
      <!-- 0.0 -->
      <g transform="translate(39.768438 188.638438)scale(0.1 -0.1)">
       <defs>
        <path id="DejaVuSans-30" d="M 2034 4250 
Q 1547 4250 1301 3770 
Q 1056 3291 1056 2328 
Q 1056 1369 1301 889 
Q 1547 409 2034 409 
Q 2525 409 2770 889 
Q 3016 1369 3016 2328 
Q 3016 3291 2770 3770 
Q 2525 4250 2034 4250 
z
M 2034 4750 
Q 2819 4750 3233 4129 
Q 3647 3509 3647 2328 
Q 3647 1150 3233 529 
Q 2819 -91 2034 -91 
Q 1250 -91 836 529 
Q 422 1150 422 2328 
Q 422 3509 836 4129 
Q 1250 4750 2034 4750 
z
" transform="scale(0.015625)"/>
        <path id="DejaVuSans-2e" d="M 684 794 
L 1344 794 
L 1344 0 
L 684 0 
L 684 794 
z
" transform="scale(0.015625)"/>
       </defs>
       <use xlink:href="#DejaVuSans-30"/>
       <use xlink:href="#DejaVuSans-2e" x="63.623047"/>
       <use xlink:href="#DejaVuSans-30" x="95.410156"/>
      </g>
     </g>
    </g>
    <g id="xtick_2">
     <g id="line2d_2">
      <g>
       <use xlink:href="#m87220b180e" x="102.09375" y="174.04" style="stroke: #000000; stroke-width: 0.8"/>
      </g>
     </g>
     <g id="text_2">
      <!-- 0.5 -->
      <g transform="translate(94.142188 188.638438)scale(0.1 -0.1)">
       <defs>
        <path id="DejaVuSans-35" d="M 691 4666 
L 3169 4666 
L 3169 4134 
L 1269 4134 
L 1269 2991 
Q 1406 3038 1543 3061 
Q 1681 3084 1819 3084 
Q 2600 3084 3056 2656 
Q 3513 2228 3513 1497 
Q 3513 744 3044 326 
Q 2575 -91 1722 -91 
Q 1428 -91 1123 -41 
Q 819 9 494 109 
L 494 744 
Q 775 591 1075 516 
Q 1375 441 1709 441 
Q 2250 441 2565 725 
Q 2881 1009 2881 1497 
Q 2881 1984 2565 2268 
Q 2250 2553 1709 2553 
Q 1456 2553 1204 2497 
Q 953 2441 691 2322 
L 691 4666 
z
" transform="scale(0.015625)"/>
       </defs>
       <use xlink:href="#DejaVuSans-30"/>
       <use xlink:href="#DejaVuSans-2e" x="63.623047"/>
       <use xlink:href="#DejaVuSans-35" x="95.410156"/>
      </g>
     </g>
    </g>
    <g id="xtick_3">
     <g id="line2d_3">
      <g>
       <use xlink:href="#m87220b180e" x="156.4675" y="174.04" style="stroke: #000000; stroke-width: 0.8"/>
      </g>
     </g>
     <g id="text_3">
      <!-- 1.0 -->
      <g transform="translate(148.515938 188.638438)scale(0.1 -0.1)">
       <defs>
        <path id="DejaVuSans-31" d="M 794 531 
L 1825 531 
L 1825 4091 
L 703 3866 
L 703 4441 
L 1819 4666 
L 2450 4666 
L 2450 531 
L 3481 531 
L 3481 0 
L 794 0 
L 794 531 
z
" transform="scale(0.015625)"/>
       </defs>
       <use xlink:href="#DejaVuSans-31"/>
       <use xlink:href="#DejaVuSans-2e" x="63.623047"/>
       <use xlink:href="#DejaVuSans-30" x="95.410156"/>
      </g>
     </g>
    </g>
    <g id="xtick_4">
     <g id="line2d_4">
      <g>
       <use xlink:href="#m87220b180e" x="210.84125" y="174.04" style="stroke: #000000; stroke-width: 0.8"/>
      </g>
     </g>
     <g id="text_4">
      <!-- 1.5 -->
      <g transform="translate(202.889687 188.638438)scale(0.1 -0.1)">
       <use xlink:href="#DejaVuSans-31"/>
       <use xlink:href="#DejaVuSans-2e" x="63.623047"/>
       <use xlink:href="#DejaVuSans-35" x="95.410156"/>
      </g>
     </g>
    </g>
    <g id="xtick_5">
     <g id="line2d_5">
      <g>
       <use xlink:href="#m87220b180e" x="265.215" y="174.04" style="stroke: #000000; stroke-width: 0.8"/>
      </g>
     </g>
     <g id="text_5">
      <!-- 2.0 -->
      <g transform="translate(257.263437 188.638438)scale(0.1 -0.1)">
       <defs>
        <path id="DejaVuSans-32" d="M 1228 531 
L 3431 531 
L 3431 0 
L 469 0 
L 469 531 
Q 828 903 1448 1529 
Q 2069 2156 2228 2338 
Q 2531 2678 2651 2914 
Q 2772 3150 2772 3378 
Q 2772 3750 2511 3984 
Q 2250 4219 1831 4219 
Q 1534 4219 1204 4116 
Q 875 4013 500 3803 
L 500 4441 
Q 881 4594 1212 4672 
Q 1544 4750 1819 4750 
Q 2544 4750 2975 4387 
Q 3406 4025 3406 3419 
Q 3406 3131 3298 2873 
Q 3191 2616 2906 2266 
Q 2828 2175 2409 1742 
Q 1991 1309 1228 531 
z
" transform="scale(0.015625)"/>
       </defs>
       <use xlink:href="#DejaVuSans-32"/>
       <use xlink:href="#DejaVuSans-2e" x="63.623047"/>
       <use xlink:href="#DejaVuSans-30" x="95.410156"/>
      </g>
     </g>
    </g>
    <g id="text_6">
     <!-- Influence of surprisal (multiplication) -->
     <g transform="translate(64.320625 202.316563)scale(0.1 -0.1)">
      <defs>
       <path id="DejaVuSans-49" d="M 628 4666 
L 1259 4666 
L 1259 0 
L 628 0 
L 628 4666 
z
" transform="scale(0.015625)"/>
       <path id="DejaVuSans-6e" d="M 3513 2113 
L 3513 0 
L 2938 0 
L 2938 2094 
Q 2938 2591 2744 2837 
Q 2550 3084 2163 3084 
Q 1697 3084 1428 2787 
Q 1159 2491 1159 1978 
L 1159 0 
L 581 0 
L 581 3500 
L 1159 3500 
L 1159 2956 
Q 1366 3272 1645 3428 
Q 1925 3584 2291 3584 
Q 2894 3584 3203 3211 
Q 3513 2838 3513 2113 
z
" transform="scale(0.015625)"/>
       <path id="DejaVuSans-66" d="M 2375 4863 
L 2375 4384 
L 1825 4384 
Q 1516 4384 1395 4259 
Q 1275 4134 1275 3809 
L 1275 3500 
L 2222 3500 
L 2222 3053 
L 1275 3053 
L 1275 0 
L 697 0 
L 697 3053 
L 147 3053 
L 147 3500 
L 697 3500 
L 697 3744 
Q 697 4328 969 4595 
Q 1241 4863 1831 4863 
L 2375 4863 
z
" transform="scale(0.015625)"/>
       <path id="DejaVuSans-6c" d="M 603 4863 
L 1178 4863 
L 1178 0 
L 603 0 
L 603 4863 
z
" transform="scale(0.015625)"/>
       <path id="DejaVuSans-75" d="M 544 1381 
L 544 3500 
L 1119 3500 
L 1119 1403 
Q 1119 906 1312 657 
Q 1506 409 1894 409 
Q 2359 409 2629 706 
Q 2900 1003 2900 1516 
L 2900 3500 
L 3475 3500 
L 3475 0 
L 2900 0 
L 2900 538 
Q 2691 219 2414 64 
Q 2138 -91 1772 -91 
Q 1169 -91 856 284 
Q 544 659 544 1381 
z
M 1991 3584 
L 1991 3584 
z
" transform="scale(0.015625)"/>
       <path id="DejaVuSans-65" d="M 3597 1894 
L 3597 1613 
L 953 1613 
Q 991 1019 1311 708 
Q 1631 397 2203 397 
Q 2534 397 2845 478 
Q 3156 559 3463 722 
L 3463 178 
Q 3153 47 2828 -22 
Q 2503 -91 2169 -91 
Q 1331 -91 842 396 
Q 353 884 353 1716 
Q 353 2575 817 3079 
Q 1281 3584 2069 3584 
Q 2775 3584 3186 3129 
Q 3597 2675 3597 1894 
z
M 3022 2063 
Q 3016 2534 2758 2815 
Q 2500 3097 2075 3097 
Q 1594 3097 1305 2825 
Q 1016 2553 972 2059 
L 3022 2063 
z
" transform="scale(0.015625)"/>
       <path id="DejaVuSans-63" d="M 3122 3366 
L 3122 2828 
Q 2878 2963 2633 3030 
Q 2388 3097 2138 3097 
Q 1578 3097 1268 2742 
Q 959 2388 959 1747 
Q 959 1106 1268 751 
Q 1578 397 2138 397 
Q 2388 397 2633 464 
Q 2878 531 3122 666 
L 3122 134 
Q 2881 22 2623 -34 
Q 2366 -91 2075 -91 
Q 1284 -91 818 406 
Q 353 903 353 1747 
Q 353 2603 823 3093 
Q 1294 3584 2113 3584 
Q 2378 3584 2631 3529 
Q 2884 3475 3122 3366 
z
" transform="scale(0.015625)"/>
       <path id="DejaVuSans-20" transform="scale(0.015625)"/>
       <path id="DejaVuSans-6f" d="M 1959 3097 
Q 1497 3097 1228 2736 
Q 959 2375 959 1747 
Q 959 1119 1226 758 
Q 1494 397 1959 397 
Q 2419 397 2687 759 
Q 2956 1122 2956 1747 
Q 2956 2369 2687 2733 
Q 2419 3097 1959 3097 
z
M 1959 3584 
Q 2709 3584 3137 3096 
Q 3566 2609 3566 1747 
Q 3566 888 3137 398 
Q 2709 -91 1959 -91 
Q 1206 -91 779 398 
Q 353 888 353 1747 
Q 353 2609 779 3096 
Q 1206 3584 1959 3584 
z
" transform="scale(0.015625)"/>
       <path id="DejaVuSans-73" d="M 2834 3397 
L 2834 2853 
Q 2591 2978 2328 3040 
Q 2066 3103 1784 3103 
Q 1356 3103 1142 2972 
Q 928 2841 928 2578 
Q 928 2378 1081 2264 
Q 1234 2150 1697 2047 
L 1894 2003 
Q 2506 1872 2764 1633 
Q 3022 1394 3022 966 
Q 3022 478 2636 193 
Q 2250 -91 1575 -91 
Q 1294 -91 989 -36 
Q 684 19 347 128 
L 347 722 
Q 666 556 975 473 
Q 1284 391 1588 391 
Q 1994 391 2212 530 
Q 2431 669 2431 922 
Q 2431 1156 2273 1281 
Q 2116 1406 1581 1522 
L 1381 1569 
Q 847 1681 609 1914 
Q 372 2147 372 2553 
Q 372 3047 722 3315 
Q 1072 3584 1716 3584 
Q 2034 3584 2315 3537 
Q 2597 3491 2834 3397 
z
" transform="scale(0.015625)"/>
       <path id="DejaVuSans-72" d="M 2631 2963 
Q 2534 3019 2420 3045 
Q 2306 3072 2169 3072 
Q 1681 3072 1420 2755 
Q 1159 2438 1159 1844 
L 1159 0 
L 581 0 
L 581 3500 
L 1159 3500 
L 1159 2956 
Q 1341 3275 1631 3429 
Q 1922 3584 2338 3584 
Q 2397 3584 2469 3576 
Q 2541 3569 2628 3553 
L 2631 2963 
z
" transform="scale(0.015625)"/>
       <path id="DejaVuSans-70" d="M 1159 525 
L 1159 -1331 
L 581 -1331 
L 581 3500 
L 1159 3500 
L 1159 2969 
Q 1341 3281 1617 3432 
Q 1894 3584 2278 3584 
Q 2916 3584 3314 3078 
Q 3713 2572 3713 1747 
Q 3713 922 3314 415 
Q 2916 -91 2278 -91 
Q 1894 -91 1617 61 
Q 1341 213 1159 525 
z
M 3116 1747 
Q 3116 2381 2855 2742 
Q 2594 3103 2138 3103 
Q 1681 3103 1420 2742 
Q 1159 2381 1159 1747 
Q 1159 1113 1420 752 
Q 1681 391 2138 391 
Q 2594 391 2855 752 
Q 3116 1113 3116 1747 
z
" transform="scale(0.015625)"/>
       <path id="DejaVuSans-69" d="M 603 3500 
L 1178 3500 
L 1178 0 
L 603 0 
L 603 3500 
z
M 603 4863 
L 1178 4863 
L 1178 4134 
L 603 4134 
L 603 4863 
z
" transform="scale(0.015625)"/>
       <path id="DejaVuSans-61" d="M 2194 1759 
Q 1497 1759 1228 1600 
Q 959 1441 959 1056 
Q 959 750 1161 570 
Q 1363 391 1709 391 
Q 2188 391 2477 730 
Q 2766 1069 2766 1631 
L 2766 1759 
L 2194 1759 
z
M 3341 1997 
L 3341 0 
L 2766 0 
L 2766 531 
Q 2569 213 2275 61 
Q 1981 -91 1556 -91 
Q 1019 -91 701 211 
Q 384 513 384 1019 
Q 384 1609 779 1909 
Q 1175 2209 1959 2209 
L 2766 2209 
L 2766 2266 
Q 2766 2663 2505 2880 
Q 2244 3097 1772 3097 
Q 1472 3097 1187 3025 
Q 903 2953 641 2809 
L 641 3341 
Q 956 3463 1253 3523 
Q 1550 3584 1831 3584 
Q 2591 3584 2966 3190 
Q 3341 2797 3341 1997 
z
" transform="scale(0.015625)"/>
       <path id="DejaVuSans-28" d="M 1984 4856 
Q 1566 4138 1362 3434 
Q 1159 2731 1159 2009 
Q 1159 1288 1364 580 
Q 1569 -128 1984 -844 
L 1484 -844 
Q 1016 -109 783 600 
Q 550 1309 550 2009 
Q 550 2706 781 3412 
Q 1013 4119 1484 4856 
L 1984 4856 
z
" transform="scale(0.015625)"/>
       <path id="DejaVuSans-6d" d="M 3328 2828 
Q 3544 3216 3844 3400 
Q 4144 3584 4550 3584 
Q 5097 3584 5394 3201 
Q 5691 2819 5691 2113 
L 5691 0 
L 5113 0 
L 5113 2094 
Q 5113 2597 4934 2840 
Q 4756 3084 4391 3084 
Q 3944 3084 3684 2787 
Q 3425 2491 3425 1978 
L 3425 0 
L 2847 0 
L 2847 2094 
Q 2847 2600 2669 2842 
Q 2491 3084 2119 3084 
Q 1678 3084 1418 2786 
Q 1159 2488 1159 1978 
L 1159 0 
L 581 0 
L 581 3500 
L 1159 3500 
L 1159 2956 
Q 1356 3278 1631 3431 
Q 1906 3584 2284 3584 
Q 2666 3584 2933 3390 
Q 3200 3197 3328 2828 
z
" transform="scale(0.015625)"/>
       <path id="DejaVuSans-74" d="M 1172 4494 
L 1172 3500 
L 2356 3500 
L 2356 3053 
L 1172 3053 
L 1172 1153 
Q 1172 725 1289 603 
Q 1406 481 1766 481 
L 2356 481 
L 2356 0 
L 1766 0 
Q 1100 0 847 248 
Q 594 497 594 1153 
L 594 3053 
L 172 3053 
L 172 3500 
L 594 3500 
L 594 4494 
L 1172 4494 
z
" transform="scale(0.015625)"/>
       <path id="DejaVuSans-29" d="M 513 4856 
L 1013 4856 
Q 1481 4119 1714 3412 
Q 1947 2706 1947 2009 
Q 1947 1309 1714 600 
Q 1481 -109 1013 -844 
L 513 -844 
Q 928 -128 1133 580 
Q 1338 1288 1338 2009 
Q 1338 2731 1133 3434 
Q 928 4138 513 4856 
z
" transform="scale(0.015625)"/>
      </defs>
      <use xlink:href="#DejaVuSans-49"/>
      <use xlink:href="#DejaVuSans-6e" x="29.492188"/>
      <use xlink:href="#DejaVuSans-66" x="92.871094"/>
      <use xlink:href="#DejaVuSans-6c" x="128.076172"/>
      <use xlink:href="#DejaVuSans-75" x="155.859375"/>
      <use xlink:href="#DejaVuSans-65" x="219.238281"/>
      <use xlink:href="#DejaVuSans-6e" x="280.761719"/>
      <use xlink:href="#DejaVuSans-63" x="344.140625"/>
      <use xlink:href="#DejaVuSans-65" x="399.121094"/>
      <use xlink:href="#DejaVuSans-20" x="460.644531"/>
      <use xlink:href="#DejaVuSans-6f" x="492.431641"/>
      <use xlink:href="#DejaVuSans-66" x="553.613281"/>
      <use xlink:href="#DejaVuSans-20" x="588.818359"/>
      <use xlink:href="#DejaVuSans-73" x="620.605469"/>
      <use xlink:href="#DejaVuSans-75" x="672.705078"/>
      <use xlink:href="#DejaVuSans-72" x="736.083984"/>
      <use xlink:href="#DejaVuSans-70" x="777.197266"/>
      <use xlink:href="#DejaVuSans-72" x="840.673828"/>
      <use xlink:href="#DejaVuSans-69" x="881.787109"/>
      <use xlink:href="#DejaVuSans-73" x="909.570312"/>
      <use xlink:href="#DejaVuSans-61" x="961.669922"/>
      <use xlink:href="#DejaVuSans-6c" x="1022.949219"/>
      <use xlink:href="#DejaVuSans-20" x="1050.732422"/>
      <use xlink:href="#DejaVuSans-28" x="1082.519531"/>
      <use xlink:href="#DejaVuSans-6d" x="1121.533203"/>
      <use xlink:href="#DejaVuSans-75" x="1218.945312"/>
      <use xlink:href="#DejaVuSans-6c" x="1282.324219"/>
      <use xlink:href="#DejaVuSans-74" x="1310.107422"/>
      <use xlink:href="#DejaVuSans-69" x="1349.316406"/>
      <use xlink:href="#DejaVuSans-70" x="1377.099609"/>
      <use xlink:href="#DejaVuSans-6c" x="1440.576172"/>
      <use xlink:href="#DejaVuSans-69" x="1468.359375"/>
      <use xlink:href="#DejaVuSans-63" x="1496.142578"/>
      <use xlink:href="#DejaVuSans-61" x="1551.123047"/>
      <use xlink:href="#DejaVuSans-74" x="1612.402344"/>
      <use xlink:href="#DejaVuSans-69" x="1651.611328"/>
      <use xlink:href="#DejaVuSans-6f" x="1679.394531"/>
      <use xlink:href="#DejaVuSans-6e" x="1740.576172"/>
      <use xlink:href="#DejaVuSans-29" x="1803.955078"/>
     </g>
    </g>
   </g>
   <g id="matplotlib.axis_2">
    <g id="ytick_1">
     <g id="line2d_6">
      <defs>
       <path id="ma8bf15cc11" d="M 0 0 
L -3.5 0 
" style="stroke: #000000; stroke-width: 0.8"/>
      </defs>
      <g>
       <use xlink:href="#ma8bf15cc11" x="47.72" y="156.292014" style="stroke: #000000; stroke-width: 0.8"/>
      </g>
     </g>
     <g id="text_7">
      <!-- 0.2 -->
      <g transform="translate(24.816875 160.091232)scale(0.1 -0.1)">
       <use xlink:href="#DejaVuSans-30"/>
       <use xlink:href="#DejaVuSans-2e" x="63.623047"/>
       <use xlink:href="#DejaVuSans-32" x="95.410156"/>
      </g>
     </g>
    </g>
    <g id="ytick_2">
     <g id="line2d_7">
      <g>
       <use xlink:href="#ma8bf15cc11" x="47.72" y="125.611283" style="stroke: #000000; stroke-width: 0.8"/>
      </g>
     </g>
     <g id="text_8">
      <!-- 0.4 -->
      <g transform="translate(24.816875 129.410502)scale(0.1 -0.1)">
       <defs>
        <path id="DejaVuSans-34" d="M 2419 4116 
L 825 1625 
L 2419 1625 
L 2419 4116 
z
M 2253 4666 
L 3047 4666 
L 3047 1625 
L 3713 1625 
L 3713 1100 
L 3047 1100 
L 3047 0 
L 2419 0 
L 2419 1100 
L 313 1100 
L 313 1709 
L 2253 4666 
z
" transform="scale(0.015625)"/>
       </defs>
       <use xlink:href="#DejaVuSans-30"/>
       <use xlink:href="#DejaVuSans-2e" x="63.623047"/>
       <use xlink:href="#DejaVuSans-34" x="95.410156"/>
      </g>
     </g>
    </g>
    <g id="ytick_3">
     <g id="line2d_8">
      <g>
       <use xlink:href="#ma8bf15cc11" x="47.72" y="94.930552" style="stroke: #000000; stroke-width: 0.8"/>
      </g>
     </g>
     <g id="text_9">
      <!-- 0.6 -->
      <g transform="translate(24.816875 98.729771)scale(0.1 -0.1)">
       <defs>
        <path id="DejaVuSans-36" d="M 2113 2584 
Q 1688 2584 1439 2293 
Q 1191 2003 1191 1497 
Q 1191 994 1439 701 
Q 1688 409 2113 409 
Q 2538 409 2786 701 
Q 3034 994 3034 1497 
Q 3034 2003 2786 2293 
Q 2538 2584 2113 2584 
z
M 3366 4563 
L 3366 3988 
Q 3128 4100 2886 4159 
Q 2644 4219 2406 4219 
Q 1781 4219 1451 3797 
Q 1122 3375 1075 2522 
Q 1259 2794 1537 2939 
Q 1816 3084 2150 3084 
Q 2853 3084 3261 2657 
Q 3669 2231 3669 1497 
Q 3669 778 3244 343 
Q 2819 -91 2113 -91 
Q 1303 -91 875 529 
Q 447 1150 447 2328 
Q 447 3434 972 4092 
Q 1497 4750 2381 4750 
Q 2619 4750 2861 4703 
Q 3103 4656 3366 4563 
z
" transform="scale(0.015625)"/>
       </defs>
       <use xlink:href="#DejaVuSans-30"/>
       <use xlink:href="#DejaVuSans-2e" x="63.623047"/>
       <use xlink:href="#DejaVuSans-36" x="95.410156"/>
      </g>
     </g>
    </g>
    <g id="ytick_4">
     <g id="line2d_9">
      <g>
       <use xlink:href="#ma8bf15cc11" x="47.72" y="64.249822" style="stroke: #000000; stroke-width: 0.8"/>
      </g>
     </g>
     <g id="text_10">
      <!-- 0.8 -->
      <g transform="translate(24.816875 68.04904)scale(0.1 -0.1)">
       <defs>
        <path id="DejaVuSans-38" d="M 2034 2216 
Q 1584 2216 1326 1975 
Q 1069 1734 1069 1313 
Q 1069 891 1326 650 
Q 1584 409 2034 409 
Q 2484 409 2743 651 
Q 3003 894 3003 1313 
Q 3003 1734 2745 1975 
Q 2488 2216 2034 2216 
z
M 1403 2484 
Q 997 2584 770 2862 
Q 544 3141 544 3541 
Q 544 4100 942 4425 
Q 1341 4750 2034 4750 
Q 2731 4750 3128 4425 
Q 3525 4100 3525 3541 
Q 3525 3141 3298 2862 
Q 3072 2584 2669 2484 
Q 3125 2378 3379 2068 
Q 3634 1759 3634 1313 
Q 3634 634 3220 271 
Q 2806 -91 2034 -91 
Q 1263 -91 848 271 
Q 434 634 434 1313 
Q 434 1759 690 2068 
Q 947 2378 1403 2484 
z
M 1172 3481 
Q 1172 3119 1398 2916 
Q 1625 2713 2034 2713 
Q 2441 2713 2670 2916 
Q 2900 3119 2900 3481 
Q 2900 3844 2670 4047 
Q 2441 4250 2034 4250 
Q 1625 4250 1398 4047 
Q 1172 3844 1172 3481 
z
" transform="scale(0.015625)"/>
       </defs>
       <use xlink:href="#DejaVuSans-30"/>
       <use xlink:href="#DejaVuSans-2e" x="63.623047"/>
       <use xlink:href="#DejaVuSans-38" x="95.410156"/>
      </g>
     </g>
    </g>
    <g id="ytick_5">
     <g id="line2d_10">
      <g>
       <use xlink:href="#ma8bf15cc11" x="47.72" y="33.569091" style="stroke: #000000; stroke-width: 0.8"/>
      </g>
     </g>
     <g id="text_11">
      <!-- 1.0 -->
      <g transform="translate(24.816875 37.36831)scale(0.1 -0.1)">
       <use xlink:href="#DejaVuSans-31"/>
       <use xlink:href="#DejaVuSans-2e" x="63.623047"/>
       <use xlink:href="#DejaVuSans-30" x="95.410156"/>
      </g>
     </g>
    </g>
    <g id="text_12">
     <!-- R-value -->
     <g transform="translate(18.737188 119.064687)rotate(-90)scale(0.1 -0.1)">
      <defs>
       <path id="DejaVuSans-52" d="M 2841 2188 
Q 3044 2119 3236 1894 
Q 3428 1669 3622 1275 
L 4263 0 
L 3584 0 
L 2988 1197 
Q 2756 1666 2539 1819 
Q 2322 1972 1947 1972 
L 1259 1972 
L 1259 0 
L 628 0 
L 628 4666 
L 2053 4666 
Q 2853 4666 3247 4331 
Q 3641 3997 3641 3322 
Q 3641 2881 3436 2590 
Q 3231 2300 2841 2188 
z
M 1259 4147 
L 1259 2491 
L 2053 2491 
Q 2509 2491 2742 2702 
Q 2975 2913 2975 3322 
Q 2975 3731 2742 3939 
Q 2509 4147 2053 4147 
L 1259 4147 
z
" transform="scale(0.015625)"/>
       <path id="DejaVuSans-2d" d="M 313 2009 
L 1997 2009 
L 1997 1497 
L 313 1497 
L 313 2009 
z
" transform="scale(0.015625)"/>
       <path id="DejaVuSans-76" d="M 191 3500 
L 800 3500 
L 1894 563 
L 2988 3500 
L 3597 3500 
L 2284 0 
L 1503 0 
L 191 3500 
z
" transform="scale(0.015625)"/>
      </defs>
      <use xlink:href="#DejaVuSans-52"/>
      <use xlink:href="#DejaVuSans-2d" x="65.482422"/>
      <use xlink:href="#DejaVuSans-76" x="98.941406"/>
      <use xlink:href="#DejaVuSans-61" x="158.121094"/>
      <use xlink:href="#DejaVuSans-6c" x="219.400391"/>
      <use xlink:href="#DejaVuSans-75" x="247.183594"/>
      <use xlink:href="#DejaVuSans-65" x="310.5625"/>
     </g>
    </g>
   </g>
   <g id="line2d_11">
    <path d="M 47.72 33.569091 
L 59.167105 35.477011 
L 70.614211 41.239641 
L 82.061316 48.286372 
L 93.508421 56.54177 
L 104.955526 66.148972 
L 116.402632 75.659107 
L 127.849737 85.422437 
L 139.296842 93.705978 
L 150.743947 101.928677 
L 162.191053 109.762944 
L 173.638158 116.391024 
L 185.085263 123.10973 
L 196.532368 128.741694 
L 207.979474 134.413609 
L 219.426579 139.021611 
L 230.873684 143.277972 
L 242.320789 147.186103 
L 253.767895 150.524353 
L 265.215 153.769924 
" clip-path="url(#p244d34d46f)" style="fill: none; stroke: #1f77b4; stroke-width: 1.5; stroke-linecap: square"/>
   </g>
   <g id="line2d_12">
    <path d="M 47.72 33.569254 
L 59.167105 34.828673 
L 70.614211 38.250667 
L 82.061316 42.815653 
L 93.508421 48.44035 
L 104.955526 55.585573 
L 116.402632 63.244647 
L 127.849737 71.761551 
L 139.296842 79.504925 
L 150.743947 87.613372 
L 162.191053 95.508635 
L 173.638158 102.340813 
L 185.085263 109.330205 
L 196.532368 115.175536 
L 207.979474 121.357366 
L 219.426579 126.427066 
L 230.873684 131.312278 
L 242.320789 135.785834 
L 253.767895 139.661213 
L 265.215 143.585762 
" clip-path="url(#p244d34d46f)" style="fill: none; stroke: #ff7f0e; stroke-width: 1.5; stroke-linecap: square"/>
   </g>
   <g id="line2d_13">
    <path d="M 47.72 33.569091 
L 59.167105 35.095709 
L 70.614211 37.876141 
L 82.061316 41.002131 
L 93.508421 44.575337 
L 104.955526 48.650904 
L 116.402632 53.00213 
L 127.849737 57.811098 
L 139.296842 62.102476 
L 150.743947 66.754029 
L 162.191053 71.360865 
L 173.638158 75.150359 
L 185.085263 79.3409 
L 196.532368 82.551773 
L 207.979474 87.009748 
L 219.426579 90.481586 
L 230.873684 94.376339 
L 242.320789 98.127984 
L 253.767895 101.831704 
L 265.215 105.828917 
" clip-path="url(#p244d34d46f)" style="fill: none; stroke: #2ca02c; stroke-width: 1.5; stroke-linecap: square"/>
   </g>
   <g id="line2d_14">
    <path d="M 47.72 33.57 
L 59.167105 34.773873 
L 70.614211 36.987534 
L 82.061316 39.626548 
L 93.508421 42.742012 
L 104.955526 46.546681 
L 116.402632 50.737042 
L 127.849737 55.628315 
L 139.296842 60.008541 
L 150.743947 64.947596 
L 162.191053 69.756626 
L 173.638158 73.761229 
L 185.085263 78.12446 
L 196.532368 81.371916 
L 207.979474 85.871775 
L 219.426579 89.324107 
L 230.873684 93.136708 
L 242.320789 96.787602 
L 253.767895 100.386507 
L 265.215 104.207505 
" clip-path="url(#p244d34d46f)" style="fill: none; stroke: #d62728; stroke-width: 1.5; stroke-linecap: square"/>
   </g>
   <g id="line2d_15">
    <path d="M 47.72 33.569091 
L 59.167105 35.479188 
L 70.614211 41.242783 
L 82.061316 48.301647 
L 93.508421 56.556409 
L 104.955526 66.296226 
L 116.402632 75.916393 
L 127.849737 85.448389 
L 139.296842 93.781458 
L 150.743947 102.068008 
L 162.191053 110.186044 
L 173.638158 116.896286 
L 185.085263 123.697544 
L 196.532368 129.412268 
L 207.979474 134.946203 
L 219.426579 139.012908 
L 230.873684 144.047903 
L 242.320789 146.62319 
L 253.767895 150.871305 
L 265.215 154.429661 
" clip-path="url(#p244d34d46f)" style="fill: none; stroke: #9467bd; stroke-width: 1.5; stroke-linecap: square"/>
   </g>
   <g id="line2d_16">
    <path d="M 47.72 33.569743 
L 59.167105 34.830569 
L 70.614211 38.251507 
L 82.061316 42.832886 
L 93.508421 48.433353 
L 104.955526 55.611967 
L 116.402632 63.352386 
L 127.849737 71.798462 
L 139.296842 79.591767 
L 150.743947 87.793867 
L 162.191053 95.829545 
L 173.638158 102.753178 
L 185.085263 109.750502 
L 196.532368 115.536666 
L 207.979474 121.869791 
L 219.426579 126.419198 
L 230.873684 131.707585 
L 242.320789 135.369441 
L 253.767895 139.910402 
L 265.215 144.253321 
" clip-path="url(#p244d34d46f)" style="fill: none; stroke: #8c564b; stroke-width: 1.5; stroke-linecap: square"/>
   </g>
   <g id="line2d_17">
    <path d="M 47.72 46.184659 
L 59.167105 49.00732 
L 70.614211 56.111655 
L 82.061316 64.666816 
L 93.508421 73.838878 
L 104.955526 84.300786 
L 116.402632 94.853507 
L 127.849737 104.876201 
L 139.296842 113.352926 
L 150.743947 121.099001 
L 162.191053 127.971687 
L 173.638158 133.406853 
L 185.085263 138.555302 
L 196.532368 142.974712 
L 207.979474 147.544497 
L 219.426579 151.226611 
L 230.873684 154.579748 
L 242.320789 157.768151 
L 253.767895 160.490264 
L 265.215 163.17286 
" clip-path="url(#p244d34d46f)" style="fill: none; stroke: #e377c2; stroke-width: 1.5; stroke-linecap: square"/>
   </g>
   <g id="line2d_18">
    <path d="M 47.72 33.569427 
L 59.167105 34.195327 
L 70.614211 35.321912 
L 82.061316 37.653989 
L 93.508421 41.092323 
L 104.955526 45.896087 
L 116.402632 52.108844 
L 127.849737 59.867224 
L 139.296842 67.768885 
L 150.743947 76.157475 
L 162.191053 84.535004 
L 173.638158 91.659188 
L 185.085263 99.18666 
L 196.532368 105.231638 
L 207.979474 111.61162 
L 219.426579 116.897582 
L 230.873684 121.979175 
L 242.320789 126.707347 
L 253.767895 130.922011 
L 265.215 135.339419 
" clip-path="url(#p244d34d46f)" style="fill: none; stroke: #7f7f7f; stroke-width: 1.5; stroke-linecap: square"/>
   </g>
   <g id="patch_3">
    <path d="M 47.72 174.04 
L 47.72 26.88 
" style="fill: none; stroke: #000000; stroke-width: 0.8; stroke-linejoin: miter; stroke-linecap: square"/>
   </g>
   <g id="patch_4">
    <path d="M 47.72 174.04 
L 265.215 174.04 
" style="fill: none; stroke: #000000; stroke-width: 0.8; stroke-linejoin: miter; stroke-linecap: square"/>
   </g>
   <g id="text_13">
    <!-- Node * surprisal -->
    <g transform="translate(108.18625 20.88)scale(0.12 -0.12)">
     <defs>
      <path id="DejaVuSans-4e" d="M 628 4666 
L 1478 4666 
L 3547 763 
L 3547 4666 
L 4159 4666 
L 4159 0 
L 3309 0 
L 1241 3903 
L 1241 0 
L 628 0 
L 628 4666 
z
" transform="scale(0.015625)"/>
      <path id="DejaVuSans-64" d="M 2906 2969 
L 2906 4863 
L 3481 4863 
L 3481 0 
L 2906 0 
L 2906 525 
Q 2725 213 2448 61 
Q 2172 -91 1784 -91 
Q 1150 -91 751 415 
Q 353 922 353 1747 
Q 353 2572 751 3078 
Q 1150 3584 1784 3584 
Q 2172 3584 2448 3432 
Q 2725 3281 2906 2969 
z
M 947 1747 
Q 947 1113 1208 752 
Q 1469 391 1925 391 
Q 2381 391 2643 752 
Q 2906 1113 2906 1747 
Q 2906 2381 2643 2742 
Q 2381 3103 1925 3103 
Q 1469 3103 1208 2742 
Q 947 2381 947 1747 
z
" transform="scale(0.015625)"/>
      <path id="DejaVuSans-2a" d="M 3009 3897 
L 1888 3291 
L 3009 2681 
L 2828 2375 
L 1778 3009 
L 1778 1831 
L 1422 1831 
L 1422 3009 
L 372 2375 
L 191 2681 
L 1313 3291 
L 191 3897 
L 372 4206 
L 1422 3572 
L 1422 4750 
L 1778 4750 
L 1778 3572 
L 2828 4206 
L 3009 3897 
z
" transform="scale(0.015625)"/>
     </defs>
     <use xlink:href="#DejaVuSans-4e"/>
     <use xlink:href="#DejaVuSans-6f" x="74.804688"/>
     <use xlink:href="#DejaVuSans-64" x="135.986328"/>
     <use xlink:href="#DejaVuSans-65" x="199.462891"/>
     <use xlink:href="#DejaVuSans-20" x="260.986328"/>
     <use xlink:href="#DejaVuSans-2a" x="292.773438"/>
     <use xlink:href="#DejaVuSans-20" x="342.773438"/>
     <use xlink:href="#DejaVuSans-73" x="374.560547"/>
     <use xlink:href="#DejaVuSans-75" x="426.660156"/>
     <use xlink:href="#DejaVuSans-72" x="490.039062"/>
     <use xlink:href="#DejaVuSans-70" x="531.152344"/>
     <use xlink:href="#DejaVuSans-72" x="594.628906"/>
     <use xlink:href="#DejaVuSans-69" x="635.742188"/>
     <use xlink:href="#DejaVuSans-73" x="663.525391"/>
     <use xlink:href="#DejaVuSans-61" x="715.625"/>
     <use xlink:href="#DejaVuSans-6c" x="776.904297"/>
    </g>
   </g>
  </g>
  <g id="axes_2">
   <g id="patch_5">
    <path d="M 298.065 174.04 
L 515.56 174.04 
L 515.56 26.88 
L 298.065 26.88 
z
" style="fill: #ffffff"/>
   </g>
   <g id="PolyCollection_9">
    <path d="M 298.065 33.569091 
L 298.065 33.569091 
L 309.512105 36.095035 
L 320.959211 43.314424 
L 332.406316 52.637502 
L 343.853421 63.637097 
L 355.300526 75.187447 
L 366.747632 86.226844 
L 378.194737 97.040939 
L 389.641842 106.143687 
L 401.088947 114.704624 
L 412.536053 121.753044 
L 423.983158 129.198262 
L 435.430263 134.949067 
L 446.877368 140.385949 
L 458.324474 146.240452 
L 469.771579 150.510524 
L 481.218684 154.680996 
L 492.665789 158.327714 
L 504.112895 161.910436 
L 515.56 164.318634 
L 515.56 151.782957 
L 515.56 151.782957 
L 504.112895 149.681743 
L 492.665789 146.347873 
L 481.218684 142.618612 
L 469.771579 138.986096 
L 458.324474 134.827899 
L 446.877368 129.124769 
L 435.430263 123.611715 
L 423.983158 118.225825 
L 412.536053 110.497108 
L 401.088947 102.4623 
L 389.641842 94.41795 
L 378.194737 84.922442 
L 366.747632 76.275059 
L 355.300526 65.499463 
L 343.853421 56.731077 
L 332.406316 48.125332 
L 320.959211 41.030488 
L 309.512105 35.316351 
L 298.065 33.569091 
z
" clip-path="url(#p8891c8931c)" style="fill: #1f77b4; fill-opacity: 0.4"/>
   </g>
   <g id="PolyCollection_10">
    <path d="M 298.065 33.569223 
L 298.065 33.569285 
L 309.512105 36.106162 
L 320.959211 43.312468 
L 332.406316 52.626466 
L 343.853421 63.609523 
L 355.300526 75.152753 
L 366.747632 86.218395 
L 378.194737 97.01006 
L 389.641842 106.139179 
L 401.088947 114.754511 
L 412.536053 121.92923 
L 423.983158 129.532481 
L 435.430263 135.454001 
L 446.877368 140.979706 
L 458.324474 146.924201 
L 469.771579 151.309378 
L 481.218684 155.513275 
L 492.665789 159.24896 
L 504.112895 162.841495 
L 515.56 165.379747 
L 515.56 153.463421 
L 515.56 153.463421 
L 504.112895 151.10074 
L 492.665789 147.537079 
L 481.218684 143.604953 
L 469.771579 139.626891 
L 458.324474 135.370561 
L 446.877368 129.415875 
L 435.430263 123.85639 
L 423.983158 118.453898 
L 412.536053 110.743584 
L 401.088947 102.650225 
L 389.641842 94.575833 
L 378.194737 85.011608 
L 366.747632 76.326262 
L 355.300526 65.542103 
L 343.853421 56.733452 
L 332.406316 48.14483 
L 320.959211 41.034789 
L 309.512105 35.319033 
L 298.065 33.569223 
z
" clip-path="url(#p8891c8931c)" style="fill: #ff7f0e; fill-opacity: 0.4"/>
   </g>
   <g id="PolyCollection_11">
    <path d="M 298.065 33.569091 
L 298.065 33.569092 
L 309.512105 36.094832 
L 320.959211 43.331436 
L 332.406316 52.661928 
L 343.853421 63.672163 
L 355.300526 75.192961 
L 366.747632 86.305352 
L 378.194737 97.146196 
L 389.641842 106.312169 
L 401.088947 115.033268 
L 412.536053 122.260896 
L 423.983158 129.903151 
L 435.430263 136.071618 
L 446.877368 141.687783 
L 458.324474 147.744239 
L 469.771579 151.976236 
L 481.218684 156.106778 
L 492.665789 159.699344 
L 504.112895 163.062837 
L 515.56 165.317378 
L 515.56 153.398662 
L 515.56 153.398662 
L 504.112895 151.084658 
L 492.665789 147.680741 
L 481.218684 143.589209 
L 469.771579 139.929244 
L 458.324474 135.839256 
L 446.877368 129.772929 
L 435.430263 124.372714 
L 423.983158 118.947244 
L 412.536053 110.984647 
L 401.088947 102.929018 
L 389.641842 94.662946 
L 378.194737 85.067916 
L 366.747632 76.319346 
L 355.300526 65.538067 
L 343.853421 56.718263 
L 332.406316 48.157597 
L 320.959211 41.034512 
L 309.512105 35.32104 
L 298.065 33.569091 
z
" clip-path="url(#p8891c8931c)" style="fill: #2ca02c; fill-opacity: 0.4"/>
   </g>
   <g id="PolyCollection_12">
    <path d="M 298.065 33.569823 
L 298.065 33.570178 
L 309.512105 36.104101 
L 320.959211 43.32763 
L 332.406316 52.665918 
L 343.853421 63.663412 
L 355.300526 75.182008 
L 366.747632 86.317748 
L 378.194737 97.158173 
L 389.641842 106.29578 
L 401.088947 115.06779 
L 412.536053 122.357743 
L 423.983158 130.085016 
L 435.430263 136.271068 
L 446.877368 141.928061 
L 458.324474 147.892214 
L 469.771579 152.19847 
L 481.218684 156.244629 
L 492.665789 159.777355 
L 504.112895 163.095912 
L 515.56 165.385284 
L 515.56 154.227002 
L 515.56 154.227002 
L 504.112895 151.921466 
L 492.665789 148.444488 
L 481.218684 144.391261 
L 469.771579 140.538469 
L 458.324474 136.455898 
L 446.877368 130.21232 
L 435.430263 124.737412 
L 423.983158 119.291851 
L 412.536053 111.355384 
L 401.088947 103.218148 
L 389.641842 94.834551 
L 378.194737 85.163145 
L 366.747632 76.371762 
L 355.300526 65.550067 
L 343.853421 56.708342 
L 332.406316 48.148681 
L 320.959211 41.028466 
L 309.512105 35.320528 
L 298.065 33.569823 
z
" clip-path="url(#p8891c8931c)" style="fill: #d62728; fill-opacity: 0.4"/>
   </g>
   <g id="PolyCollection_13">
    <path d="M 298.065 33.569091 
L 298.065 33.569091 
L 309.512105 36.11571 
L 320.959211 43.322276 
L 332.406316 52.721187 
L 343.853421 63.765363 
L 355.300526 75.271276 
L 366.747632 86.393578 
L 378.194737 97.175039 
L 389.641842 106.420998 
L 401.088947 114.857307 
L 412.536053 121.70117 
L 423.983158 129.719614 
L 435.430263 134.433969 
L 446.877368 140.408266 
L 458.324474 146.740265 
L 469.771579 151.316585 
L 481.218684 155.394706 
L 492.665789 158.74975 
L 504.112895 162.011302 
L 515.56 164.854246 
L 515.56 152.628547 
L 515.56 152.628547 
L 504.112895 149.404057 
L 492.665789 146.797709 
L 481.218684 143.207708 
L 469.771579 139.275619 
L 458.324474 134.949032 
L 446.877368 128.9442 
L 435.430263 123.707494 
L 423.983158 118.431406 
L 412.536053 110.084352 
L 401.088947 102.674171 
L 389.641842 94.581737 
L 378.194737 85.218682 
L 366.747632 76.224553 
L 355.300526 65.52902 
L 343.853421 56.772349 
L 332.406316 48.093741 
L 320.959211 41.039 
L 309.512105 35.313333 
L 298.065 33.569091 
z
" clip-path="url(#p8891c8931c)" style="fill: #9467bd; fill-opacity: 0.4"/>
   </g>
   <g id="PolyCollection_14">
    <path d="M 298.065 33.569622 
L 298.065 33.569876 
L 309.512105 36.127196 
L 320.959211 43.319851 
L 332.406316 52.706436 
L 343.853421 63.734594 
L 355.300526 75.234458 
L 366.747632 86.373781 
L 378.194737 97.139558 
L 389.641842 106.406052 
L 401.088947 114.887962 
L 412.536053 121.878254 
L 423.983158 130.097 
L 435.430263 134.91054 
L 446.877368 140.940822 
L 458.324474 147.43989 
L 469.771579 152.014688 
L 481.218684 156.176473 
L 492.665789 159.668807 
L 504.112895 162.914004 
L 515.56 165.941183 
L 515.56 154.262114 
L 515.56 154.262114 
L 504.112895 150.762354 
L 492.665789 147.965955 
L 481.218684 144.167769 
L 469.771579 139.984768 
L 458.324474 135.487284 
L 446.877368 129.246884 
L 435.430263 123.965494 
L 423.983158 118.613433 
L 412.536053 110.310017 
L 401.088947 102.863112 
L 389.641842 94.741446 
L 378.194737 85.288235 
L 366.747632 76.274721 
L 355.300526 65.567917 
L 343.853421 56.772615 
L 332.406316 48.109247 
L 320.959211 41.04328 
L 309.512105 35.316566 
L 298.065 33.569622 
z
" clip-path="url(#p8891c8931c)" style="fill: #8c564b; fill-opacity: 0.4"/>
   </g>
   <g id="PolyCollection_15">
    <path d="M 298.065 43.382353 
L 298.065 48.986966 
L 309.512105 50.955816 
L 320.959211 57.096787 
L 332.406316 65.049842 
L 343.853421 74.798962 
L 355.300526 85.31417 
L 366.747632 95.886374 
L 378.194737 105.725965 
L 389.641842 114.42689 
L 401.088947 121.777208 
L 412.536053 128.797828 
L 423.983158 135.345873 
L 435.430263 140.336215 
L 446.877368 145.215332 
L 458.324474 150.222892 
L 469.771579 154.148518 
L 481.218684 157.765044 
L 492.665789 161.111756 
L 504.112895 164.151464 
L 515.56 166.329737 
L 515.56 155.49593 
L 515.56 155.49593 
L 504.112895 153.904037 
L 492.665789 150.380907 
L 481.218684 146.914395 
L 469.771579 143.119129 
L 458.324474 139.432344 
L 446.877368 133.800505 
L 435.430263 128.470194 
L 423.983158 122.838537 
L 412.536053 115.316048 
L 401.088947 107.539608 
L 389.641842 99.903585 
L 378.194737 91.077563 
L 366.747632 83.152059 
L 355.300526 73.131584 
L 343.853421 65.142332 
L 332.406316 56.933678 
L 320.959211 50.525411 
L 309.512105 45.120561 
L 298.065 43.382353 
z
" clip-path="url(#p8891c8931c)" style="fill: #e377c2; fill-opacity: 0.4"/>
   </g>
   <g id="PolyCollection_16">
    <path d="M 298.065 33.569336 
L 298.065 33.569518 
L 309.512105 36.100635 
L 320.959211 43.295132 
L 332.406316 52.599316 
L 343.853421 63.54638 
L 355.300526 75.036566 
L 366.747632 86.069055 
L 378.194737 96.783552 
L 389.641842 105.943524 
L 401.088947 114.607496 
L 412.536053 121.840429 
L 423.983158 129.505985 
L 435.430263 135.764177 
L 446.877368 141.430255 
L 458.324474 147.438277 
L 469.771579 152.082476 
L 481.218684 156.269169 
L 492.665789 160.045055 
L 504.112895 163.565362 
L 515.56 166.314499 
L 515.56 153.87656 
L 515.56 153.87656 
L 504.112895 151.501981 
L 492.665789 148.041531 
L 481.218684 143.950125 
L 469.771579 139.903315 
L 458.324474 135.738926 
L 446.877368 129.650249 
L 435.430263 124.020204 
L 423.983158 118.617151 
L 412.536053 110.683138 
L 401.088947 102.673852 
L 389.641842 94.475813 
L 378.194737 84.975072 
L 366.747632 76.243118 
L 355.300526 65.510501 
L 343.853421 56.691255 
L 332.406316 48.103175 
L 320.959211 41.0295 
L 309.512105 35.316058 
L 298.065 33.569336 
z
" clip-path="url(#p8891c8931c)" style="fill: #7f7f7f; fill-opacity: 0.4"/>
   </g>
   <g id="matplotlib.axis_3">
    <g id="xtick_6">
     <g id="line2d_19">
      <g>
       <use xlink:href="#m87220b180e" x="298.065" y="174.04" style="stroke: #000000; stroke-width: 0.8"/>
      </g>
     </g>
     <g id="text_14">
      <!-- 0.0 -->
      <g transform="translate(290.113437 188.638438)scale(0.1 -0.1)">
       <use xlink:href="#DejaVuSans-30"/>
       <use xlink:href="#DejaVuSans-2e" x="63.623047"/>
       <use xlink:href="#DejaVuSans-30" x="95.410156"/>
      </g>
     </g>
    </g>
    <g id="xtick_7">
     <g id="line2d_20">
      <g>
       <use xlink:href="#m87220b180e" x="352.43875" y="174.04" style="stroke: #000000; stroke-width: 0.8"/>
      </g>
     </g>
     <g id="text_15">
      <!-- 0.5 -->
      <g transform="translate(344.487187 188.638438)scale(0.1 -0.1)">
       <use xlink:href="#DejaVuSans-30"/>
       <use xlink:href="#DejaVuSans-2e" x="63.623047"/>
       <use xlink:href="#DejaVuSans-35" x="95.410156"/>
      </g>
     </g>
    </g>
    <g id="xtick_8">
     <g id="line2d_21">
      <g>
       <use xlink:href="#m87220b180e" x="406.8125" y="174.04" style="stroke: #000000; stroke-width: 0.8"/>
      </g>
     </g>
     <g id="text_16">
      <!-- 1.0 -->
      <g transform="translate(398.860937 188.638438)scale(0.1 -0.1)">
       <use xlink:href="#DejaVuSans-31"/>
       <use xlink:href="#DejaVuSans-2e" x="63.623047"/>
       <use xlink:href="#DejaVuSans-30" x="95.410156"/>
      </g>
     </g>
    </g>
    <g id="xtick_9">
     <g id="line2d_22">
      <g>
       <use xlink:href="#m87220b180e" x="461.18625" y="174.04" style="stroke: #000000; stroke-width: 0.8"/>
      </g>
     </g>
     <g id="text_17">
      <!-- 1.5 -->
      <g transform="translate(453.234687 188.638438)scale(0.1 -0.1)">
       <use xlink:href="#DejaVuSans-31"/>
       <use xlink:href="#DejaVuSans-2e" x="63.623047"/>
       <use xlink:href="#DejaVuSans-35" x="95.410156"/>
      </g>
     </g>
    </g>
    <g id="xtick_10">
     <g id="line2d_23">
      <g>
       <use xlink:href="#m87220b180e" x="515.56" y="174.04" style="stroke: #000000; stroke-width: 0.8"/>
      </g>
     </g>
     <g id="text_18">
      <!-- 2.0 -->
      <g transform="translate(507.608437 188.638438)scale(0.1 -0.1)">
       <use xlink:href="#DejaVuSans-32"/>
       <use xlink:href="#DejaVuSans-2e" x="63.623047"/>
       <use xlink:href="#DejaVuSans-30" x="95.410156"/>
      </g>
     </g>
    </g>
    <g id="text_19">
     <!-- Influence of surprisal (multiplication) -->
     <g transform="translate(314.665625 202.316563)scale(0.1 -0.1)">
      <use xlink:href="#DejaVuSans-49"/>
      <use xlink:href="#DejaVuSans-6e" x="29.492188"/>
      <use xlink:href="#DejaVuSans-66" x="92.871094"/>
      <use xlink:href="#DejaVuSans-6c" x="128.076172"/>
      <use xlink:href="#DejaVuSans-75" x="155.859375"/>
      <use xlink:href="#DejaVuSans-65" x="219.238281"/>
      <use xlink:href="#DejaVuSans-6e" x="280.761719"/>
      <use xlink:href="#DejaVuSans-63" x="344.140625"/>
      <use xlink:href="#DejaVuSans-65" x="399.121094"/>
      <use xlink:href="#DejaVuSans-20" x="460.644531"/>
      <use xlink:href="#DejaVuSans-6f" x="492.431641"/>
      <use xlink:href="#DejaVuSans-66" x="553.613281"/>
      <use xlink:href="#DejaVuSans-20" x="588.818359"/>
      <use xlink:href="#DejaVuSans-73" x="620.605469"/>
      <use xlink:href="#DejaVuSans-75" x="672.705078"/>
      <use xlink:href="#DejaVuSans-72" x="736.083984"/>
      <use xlink:href="#DejaVuSans-70" x="777.197266"/>
      <use xlink:href="#DejaVuSans-72" x="840.673828"/>
      <use xlink:href="#DejaVuSans-69" x="881.787109"/>
      <use xlink:href="#DejaVuSans-73" x="909.570312"/>
      <use xlink:href="#DejaVuSans-61" x="961.669922"/>
      <use xlink:href="#DejaVuSans-6c" x="1022.949219"/>
      <use xlink:href="#DejaVuSans-20" x="1050.732422"/>
      <use xlink:href="#DejaVuSans-28" x="1082.519531"/>
      <use xlink:href="#DejaVuSans-6d" x="1121.533203"/>
      <use xlink:href="#DejaVuSans-75" x="1218.945312"/>
      <use xlink:href="#DejaVuSans-6c" x="1282.324219"/>
      <use xlink:href="#DejaVuSans-74" x="1310.107422"/>
      <use xlink:href="#DejaVuSans-69" x="1349.316406"/>
      <use xlink:href="#DejaVuSans-70" x="1377.099609"/>
      <use xlink:href="#DejaVuSans-6c" x="1440.576172"/>
      <use xlink:href="#DejaVuSans-69" x="1468.359375"/>
      <use xlink:href="#DejaVuSans-63" x="1496.142578"/>
      <use xlink:href="#DejaVuSans-61" x="1551.123047"/>
      <use xlink:href="#DejaVuSans-74" x="1612.402344"/>
      <use xlink:href="#DejaVuSans-69" x="1651.611328"/>
      <use xlink:href="#DejaVuSans-6f" x="1679.394531"/>
      <use xlink:href="#DejaVuSans-6e" x="1740.576172"/>
      <use xlink:href="#DejaVuSans-29" x="1803.955078"/>
     </g>
    </g>
   </g>
   <g id="line2d_24">
    <path d="M 298.065 33.569091 
L 309.512105 35.705693 
L 320.959211 42.172456 
L 332.406316 50.381417 
L 343.853421 60.184087 
L 355.300526 70.343455 
L 366.747632 81.250952 
L 378.194737 90.981691 
L 389.641842 100.280818 
L 401.088947 108.583462 
L 412.536053 116.125076 
L 423.983158 123.712044 
L 435.430263 129.280391 
L 446.877368 134.755359 
L 458.324474 140.534176 
L 469.771579 144.74831 
L 481.218684 148.649804 
L 492.665789 152.337793 
L 504.112895 155.79609 
L 515.56 158.050796 
" clip-path="url(#p8891c8931c)" style="fill: none; stroke: #1f77b4; stroke-width: 1.5; stroke-linecap: square"/>
   </g>
   <g id="line2d_25">
    <path d="M 298.065 33.569254 
L 309.512105 35.712598 
L 320.959211 42.173628 
L 332.406316 50.385648 
L 343.853421 60.171488 
L 355.300526 70.347428 
L 366.747632 81.272328 
L 378.194737 91.010834 
L 389.641842 100.357506 
L 401.088947 108.702368 
L 412.536053 116.336407 
L 423.983158 123.993189 
L 435.430263 129.655196 
L 446.877368 135.197791 
L 458.324474 141.147381 
L 469.771579 145.468135 
L 481.218684 149.559114 
L 492.665789 153.393019 
L 504.112895 156.971118 
L 515.56 159.421584 
" clip-path="url(#p8891c8931c)" style="fill: none; stroke: #ff7f0e; stroke-width: 1.5; stroke-linecap: square"/>
   </g>
   <g id="line2d_26">
    <path d="M 298.065 33.569091 
L 309.512105 35.707936 
L 320.959211 42.182974 
L 332.406316 50.409763 
L 343.853421 60.195213 
L 355.300526 70.365514 
L 366.747632 81.312349 
L 378.194737 91.107056 
L 389.641842 100.487557 
L 401.088947 108.981143 
L 412.536053 116.622772 
L 423.983158 124.425197 
L 435.430263 130.222166 
L 446.877368 135.730356 
L 458.324474 141.791748 
L 469.771579 145.95274 
L 481.218684 149.847994 
L 492.665789 153.690042 
L 504.112895 157.073747 
L 515.56 159.35802 
" clip-path="url(#p8891c8931c)" style="fill: none; stroke: #2ca02c; stroke-width: 1.5; stroke-linecap: square"/>
   </g>
   <g id="line2d_27">
    <path d="M 298.065 33.57 
L 309.512105 35.712314 
L 320.959211 42.178048 
L 332.406316 50.407299 
L 343.853421 60.185877 
L 355.300526 70.366038 
L 366.747632 81.344755 
L 378.194737 91.160659 
L 389.641842 100.565166 
L 401.088947 109.142969 
L 412.536053 116.856564 
L 423.983158 124.688434 
L 435.430263 130.50424 
L 446.877368 136.07019 
L 458.324474 142.174056 
L 469.771579 146.36847 
L 481.218684 150.317945 
L 492.665789 154.110921 
L 504.112895 157.508689 
L 515.56 159.806143 
" clip-path="url(#p8891c8931c)" style="fill: none; stroke: #d62728; stroke-width: 1.5; stroke-linecap: square"/>
   </g>
   <g id="line2d_28">
    <path d="M 298.065 33.569091 
L 309.512105 35.714521 
L 320.959211 42.180638 
L 332.406316 50.407464 
L 343.853421 60.268856 
L 355.300526 70.400148 
L 366.747632 81.309065 
L 378.194737 91.196861 
L 389.641842 100.501367 
L 401.088947 108.765739 
L 412.536053 115.892761 
L 423.983158 124.07551 
L 435.430263 129.070732 
L 446.877368 134.676233 
L 458.324474 140.844649 
L 469.771579 145.296102 
L 481.218684 149.301207 
L 492.665789 152.773729 
L 504.112895 155.707679 
L 515.56 158.741396 
" clip-path="url(#p8891c8931c)" style="fill: none; stroke: #9467bd; stroke-width: 1.5; stroke-linecap: square"/>
   </g>
   <g id="line2d_29">
    <path d="M 298.065 33.569749 
L 309.512105 35.721881 
L 320.959211 42.181565 
L 332.406316 50.407842 
L 343.853421 60.253605 
L 355.300526 70.401188 
L 366.747632 81.324251 
L 378.194737 91.213896 
L 389.641842 100.573749 
L 401.088947 108.875537 
L 412.536053 116.094136 
L 423.983158 124.355216 
L 435.430263 129.438017 
L 446.877368 135.093853 
L 458.324474 141.463587 
L 469.771579 145.999728 
L 481.218684 150.172121 
L 492.665789 153.817381 
L 504.112895 156.838179 
L 515.56 160.101649 
" clip-path="url(#p8891c8931c)" style="fill: none; stroke: #8c564b; stroke-width: 1.5; stroke-linecap: square"/>
   </g>
   <g id="line2d_30">
    <path d="M 298.065 46.184659 
L 309.512105 48.038189 
L 320.959211 53.811099 
L 332.406316 60.99176 
L 343.853421 69.970647 
L 355.300526 79.222877 
L 366.747632 89.519217 
L 378.194737 98.401764 
L 389.641842 107.165237 
L 401.088947 114.658408 
L 412.536053 122.056938 
L 423.983158 129.092205 
L 435.430263 134.403205 
L 446.877368 139.507918 
L 458.324474 144.827618 
L 469.771579 148.633823 
L 481.218684 152.339719 
L 492.665789 155.746332 
L 504.112895 159.027751 
L 515.56 160.912834 
" clip-path="url(#p8891c8931c)" style="fill: none; stroke: #e377c2; stroke-width: 1.5; stroke-linecap: square"/>
   </g>
   <g id="line2d_31">
    <path d="M 298.065 33.569427 
L 309.512105 35.708346 
L 320.959211 42.162316 
L 332.406316 50.351245 
L 343.853421 60.118817 
L 355.300526 70.273534 
L 366.747632 81.156087 
L 378.194737 90.879312 
L 389.641842 100.209668 
L 401.088947 108.640674 
L 412.536053 116.261783 
L 423.983158 124.061568 
L 435.430263 129.89219 
L 446.877368 135.540252 
L 458.324474 141.588602 
L 469.771579 145.992896 
L 481.218684 150.109647 
L 492.665789 154.043293 
L 504.112895 157.533671 
L 515.56 160.095529 
" clip-path="url(#p8891c8931c)" style="fill: none; stroke: #7f7f7f; stroke-width: 1.5; stroke-linecap: square"/>
   </g>
   <g id="patch_6">
    <path d="M 298.065 174.04 
L 298.065 26.88 
" style="fill: none; stroke: #000000; stroke-width: 0.8; stroke-linejoin: miter; stroke-linecap: square"/>
   </g>
   <g id="patch_7">
    <path d="M 298.065 174.04 
L 515.56 174.04 
" style="fill: none; stroke: #000000; stroke-width: 0.8; stroke-linejoin: miter; stroke-linecap: square"/>
   </g>
   <g id="text_20">
    <!-- Node * third variable -->
    <g transform="translate(344.2325 20.88)scale(0.12 -0.12)">
     <defs>
      <path id="DejaVuSans-68" d="M 3513 2113 
L 3513 0 
L 2938 0 
L 2938 2094 
Q 2938 2591 2744 2837 
Q 2550 3084 2163 3084 
Q 1697 3084 1428 2787 
Q 1159 2491 1159 1978 
L 1159 0 
L 581 0 
L 581 4863 
L 1159 4863 
L 1159 2956 
Q 1366 3272 1645 3428 
Q 1925 3584 2291 3584 
Q 2894 3584 3203 3211 
Q 3513 2838 3513 2113 
z
" transform="scale(0.015625)"/>
      <path id="DejaVuSans-62" d="M 3116 1747 
Q 3116 2381 2855 2742 
Q 2594 3103 2138 3103 
Q 1681 3103 1420 2742 
Q 1159 2381 1159 1747 
Q 1159 1113 1420 752 
Q 1681 391 2138 391 
Q 2594 391 2855 752 
Q 3116 1113 3116 1747 
z
M 1159 2969 
Q 1341 3281 1617 3432 
Q 1894 3584 2278 3584 
Q 2916 3584 3314 3078 
Q 3713 2572 3713 1747 
Q 3713 922 3314 415 
Q 2916 -91 2278 -91 
Q 1894 -91 1617 61 
Q 1341 213 1159 525 
L 1159 0 
L 581 0 
L 581 4863 
L 1159 4863 
L 1159 2969 
z
" transform="scale(0.015625)"/>
     </defs>
     <use xlink:href="#DejaVuSans-4e"/>
     <use xlink:href="#DejaVuSans-6f" x="74.804688"/>
     <use xlink:href="#DejaVuSans-64" x="135.986328"/>
     <use xlink:href="#DejaVuSans-65" x="199.462891"/>
     <use xlink:href="#DejaVuSans-20" x="260.986328"/>
     <use xlink:href="#DejaVuSans-2a" x="292.773438"/>
     <use xlink:href="#DejaVuSans-20" x="342.773438"/>
     <use xlink:href="#DejaVuSans-74" x="374.560547"/>
     <use xlink:href="#DejaVuSans-68" x="413.769531"/>
     <use xlink:href="#DejaVuSans-69" x="477.148438"/>
     <use xlink:href="#DejaVuSans-72" x="504.931641"/>
     <use xlink:href="#DejaVuSans-64" x="544.294922"/>
     <use xlink:href="#DejaVuSans-20" x="607.771484"/>
     <use xlink:href="#DejaVuSans-76" x="639.558594"/>
     <use xlink:href="#DejaVuSans-61" x="698.738281"/>
     <use xlink:href="#DejaVuSans-72" x="760.017578"/>
     <use xlink:href="#DejaVuSans-69" x="801.130859"/>
     <use xlink:href="#DejaVuSans-61" x="828.914062"/>
     <use xlink:href="#DejaVuSans-62" x="890.193359"/>
     <use xlink:href="#DejaVuSans-6c" x="953.669922"/>
     <use xlink:href="#DejaVuSans-65" x="981.453125"/>
    </g>
   </g>
   <g id="legend_1">
    <g id="line2d_32">
     <path d="M 524.56 39.978437 
L 534.56 39.978437 
L 544.56 39.978437 
" style="fill: none; stroke: #1f77b4; stroke-width: 1.5; stroke-linecap: square"/>
    </g>
    <g id="text_21">
     <!-- Node -->
     <g transform="translate(552.56 43.478437)scale(0.1 -0.1)">
      <use xlink:href="#DejaVuSans-4e"/>
      <use xlink:href="#DejaVuSans-6f" x="74.804688"/>
      <use xlink:href="#DejaVuSans-64" x="135.986328"/>
      <use xlink:href="#DejaVuSans-65" x="199.462891"/>
     </g>
    </g>
    <g id="line2d_33">
     <path d="M 524.56 54.656563 
L 534.56 54.656563 
L 544.56 54.656563 
" style="fill: none; stroke: #ff7f0e; stroke-width: 1.5; stroke-linecap: square"/>
    </g>
    <g id="text_22">
     <!-- Node + surprisal -->
     <g transform="translate(552.56 58.156563)scale(0.1 -0.1)">
      <defs>
       <path id="DejaVuSans-2b" d="M 2944 4013 
L 2944 2272 
L 4684 2272 
L 4684 1741 
L 2944 1741 
L 2944 0 
L 2419 0 
L 2419 1741 
L 678 1741 
L 678 2272 
L 2419 2272 
L 2419 4013 
L 2944 4013 
z
" transform="scale(0.015625)"/>
      </defs>
      <use xlink:href="#DejaVuSans-4e"/>
      <use xlink:href="#DejaVuSans-6f" x="74.804688"/>
      <use xlink:href="#DejaVuSans-64" x="135.986328"/>
      <use xlink:href="#DejaVuSans-65" x="199.462891"/>
      <use xlink:href="#DejaVuSans-20" x="260.986328"/>
      <use xlink:href="#DejaVuSans-2b" x="292.773438"/>
      <use xlink:href="#DejaVuSans-20" x="376.5625"/>
      <use xlink:href="#DejaVuSans-73" x="408.349609"/>
      <use xlink:href="#DejaVuSans-75" x="460.449219"/>
      <use xlink:href="#DejaVuSans-72" x="523.828125"/>
      <use xlink:href="#DejaVuSans-70" x="564.941406"/>
      <use xlink:href="#DejaVuSans-72" x="628.417969"/>
      <use xlink:href="#DejaVuSans-69" x="669.53125"/>
      <use xlink:href="#DejaVuSans-73" x="697.314453"/>
      <use xlink:href="#DejaVuSans-61" x="749.414062"/>
      <use xlink:href="#DejaVuSans-6c" x="810.693359"/>
     </g>
    </g>
    <g id="line2d_34">
     <path d="M 524.56 69.334687 
L 534.56 69.334687 
L 544.56 69.334687 
" style="fill: none; stroke: #2ca02c; stroke-width: 1.5; stroke-linecap: square"/>
    </g>
    <g id="text_23">
     <!-- Node split -->
     <g transform="translate(552.56 72.834687)scale(0.1 -0.1)">
      <use xlink:href="#DejaVuSans-4e"/>
      <use xlink:href="#DejaVuSans-6f" x="74.804688"/>
      <use xlink:href="#DejaVuSans-64" x="135.986328"/>
      <use xlink:href="#DejaVuSans-65" x="199.462891"/>
      <use xlink:href="#DejaVuSans-20" x="260.986328"/>
      <use xlink:href="#DejaVuSans-73" x="292.773438"/>
      <use xlink:href="#DejaVuSans-70" x="344.873047"/>
      <use xlink:href="#DejaVuSans-6c" x="408.349609"/>
      <use xlink:href="#DejaVuSans-69" x="436.132812"/>
      <use xlink:href="#DejaVuSans-74" x="463.916016"/>
     </g>
    </g>
    <g id="line2d_35">
     <path d="M 524.56 84.012812 
L 534.56 84.012812 
L 544.56 84.012812 
" style="fill: none; stroke: #d62728; stroke-width: 1.5; stroke-linecap: square"/>
    </g>
    <g id="text_24">
     <!-- Node split + surprisal -->
     <g transform="translate(552.56 87.512812)scale(0.1 -0.1)">
      <use xlink:href="#DejaVuSans-4e"/>
      <use xlink:href="#DejaVuSans-6f" x="74.804688"/>
      <use xlink:href="#DejaVuSans-64" x="135.986328"/>
      <use xlink:href="#DejaVuSans-65" x="199.462891"/>
      <use xlink:href="#DejaVuSans-20" x="260.986328"/>
      <use xlink:href="#DejaVuSans-73" x="292.773438"/>
      <use xlink:href="#DejaVuSans-70" x="344.873047"/>
      <use xlink:href="#DejaVuSans-6c" x="408.349609"/>
      <use xlink:href="#DejaVuSans-69" x="436.132812"/>
      <use xlink:href="#DejaVuSans-74" x="463.916016"/>
      <use xlink:href="#DejaVuSans-20" x="503.125"/>
      <use xlink:href="#DejaVuSans-2b" x="534.912109"/>
      <use xlink:href="#DejaVuSans-20" x="618.701172"/>
      <use xlink:href="#DejaVuSans-73" x="650.488281"/>
      <use xlink:href="#DejaVuSans-75" x="702.587891"/>
      <use xlink:href="#DejaVuSans-72" x="765.966797"/>
      <use xlink:href="#DejaVuSans-70" x="807.080078"/>
      <use xlink:href="#DejaVuSans-72" x="870.556641"/>
      <use xlink:href="#DejaVuSans-69" x="911.669922"/>
      <use xlink:href="#DejaVuSans-73" x="939.453125"/>
      <use xlink:href="#DejaVuSans-61" x="991.552734"/>
      <use xlink:href="#DejaVuSans-6c" x="1052.832031"/>
     </g>
    </g>
    <g id="line2d_36">
     <path d="M 524.56 98.690937 
L 534.56 98.690937 
L 544.56 98.690937 
" style="fill: none; stroke: #9467bd; stroke-width: 1.5; stroke-linecap: square"/>
    </g>
    <g id="text_25">
     <!-- Node random split -->
     <g transform="translate(552.56 102.190937)scale(0.1 -0.1)">
      <use xlink:href="#DejaVuSans-4e"/>
      <use xlink:href="#DejaVuSans-6f" x="74.804688"/>
      <use xlink:href="#DejaVuSans-64" x="135.986328"/>
      <use xlink:href="#DejaVuSans-65" x="199.462891"/>
      <use xlink:href="#DejaVuSans-20" x="260.986328"/>
      <use xlink:href="#DejaVuSans-72" x="292.773438"/>
      <use xlink:href="#DejaVuSans-61" x="333.886719"/>
      <use xlink:href="#DejaVuSans-6e" x="395.166016"/>
      <use xlink:href="#DejaVuSans-64" x="458.544922"/>
      <use xlink:href="#DejaVuSans-6f" x="522.021484"/>
      <use xlink:href="#DejaVuSans-6d" x="583.203125"/>
      <use xlink:href="#DejaVuSans-20" x="680.615234"/>
      <use xlink:href="#DejaVuSans-73" x="712.402344"/>
      <use xlink:href="#DejaVuSans-70" x="764.501953"/>
      <use xlink:href="#DejaVuSans-6c" x="827.978516"/>
      <use xlink:href="#DejaVuSans-69" x="855.761719"/>
      <use xlink:href="#DejaVuSans-74" x="883.544922"/>
     </g>
    </g>
    <g id="line2d_37">
     <path d="M 524.56 113.369062 
L 534.56 113.369062 
L 544.56 113.369062 
" style="fill: none; stroke: #8c564b; stroke-width: 1.5; stroke-linecap: square"/>
    </g>
    <g id="text_26">
     <!-- Node random split + surprisal -->
     <g transform="translate(552.56 116.869062)scale(0.1 -0.1)">
      <use xlink:href="#DejaVuSans-4e"/>
      <use xlink:href="#DejaVuSans-6f" x="74.804688"/>
      <use xlink:href="#DejaVuSans-64" x="135.986328"/>
      <use xlink:href="#DejaVuSans-65" x="199.462891"/>
      <use xlink:href="#DejaVuSans-20" x="260.986328"/>
      <use xlink:href="#DejaVuSans-72" x="292.773438"/>
      <use xlink:href="#DejaVuSans-61" x="333.886719"/>
      <use xlink:href="#DejaVuSans-6e" x="395.166016"/>
      <use xlink:href="#DejaVuSans-64" x="458.544922"/>
      <use xlink:href="#DejaVuSans-6f" x="522.021484"/>
      <use xlink:href="#DejaVuSans-6d" x="583.203125"/>
      <use xlink:href="#DejaVuSans-20" x="680.615234"/>
      <use xlink:href="#DejaVuSans-73" x="712.402344"/>
      <use xlink:href="#DejaVuSans-70" x="764.501953"/>
      <use xlink:href="#DejaVuSans-6c" x="827.978516"/>
      <use xlink:href="#DejaVuSans-69" x="855.761719"/>
      <use xlink:href="#DejaVuSans-74" x="883.544922"/>
      <use xlink:href="#DejaVuSans-20" x="922.753906"/>
      <use xlink:href="#DejaVuSans-2b" x="954.541016"/>
      <use xlink:href="#DejaVuSans-20" x="1038.330078"/>
      <use xlink:href="#DejaVuSans-73" x="1070.117188"/>
      <use xlink:href="#DejaVuSans-75" x="1122.216797"/>
      <use xlink:href="#DejaVuSans-72" x="1185.595703"/>
      <use xlink:href="#DejaVuSans-70" x="1226.708984"/>
      <use xlink:href="#DejaVuSans-72" x="1290.185547"/>
      <use xlink:href="#DejaVuSans-69" x="1331.298828"/>
      <use xlink:href="#DejaVuSans-73" x="1359.082031"/>
      <use xlink:href="#DejaVuSans-61" x="1411.181641"/>
      <use xlink:href="#DejaVuSans-6c" x="1472.460938"/>
     </g>
    </g>
    <g id="line2d_38">
     <path d="M 524.56 128.047187 
L 534.56 128.047187 
L 544.56 128.047187 
" style="fill: none; stroke: #e377c2; stroke-width: 1.5; stroke-linecap: square"/>
    </g>
    <g id="text_27">
     <!-- Interaction -->
     <g transform="translate(552.56 131.547187)scale(0.1 -0.1)">
      <use xlink:href="#DejaVuSans-49"/>
      <use xlink:href="#DejaVuSans-6e" x="29.492188"/>
      <use xlink:href="#DejaVuSans-74" x="92.871094"/>
      <use xlink:href="#DejaVuSans-65" x="132.080078"/>
      <use xlink:href="#DejaVuSans-72" x="193.603516"/>
      <use xlink:href="#DejaVuSans-61" x="234.716797"/>
      <use xlink:href="#DejaVuSans-63" x="295.996094"/>
      <use xlink:href="#DejaVuSans-74" x="350.976562"/>
      <use xlink:href="#DejaVuSans-69" x="390.185547"/>
      <use xlink:href="#DejaVuSans-6f" x="417.96875"/>
      <use xlink:href="#DejaVuSans-6e" x="479.150391"/>
     </g>
    </g>
    <g id="line2d_39">
     <path d="M 524.56 142.725312 
L 534.56 142.725312 
L 544.56 142.725312 
" style="fill: none; stroke: #7f7f7f; stroke-width: 1.5; stroke-linecap: square"/>
    </g>
    <g id="text_28">
     <!-- Node + surprisal + interaction -->
     <g transform="translate(552.56 146.225312)scale(0.1 -0.1)">
      <use xlink:href="#DejaVuSans-4e"/>
      <use xlink:href="#DejaVuSans-6f" x="74.804688"/>
      <use xlink:href="#DejaVuSans-64" x="135.986328"/>
      <use xlink:href="#DejaVuSans-65" x="199.462891"/>
      <use xlink:href="#DejaVuSans-20" x="260.986328"/>
      <use xlink:href="#DejaVuSans-2b" x="292.773438"/>
      <use xlink:href="#DejaVuSans-20" x="376.5625"/>
      <use xlink:href="#DejaVuSans-73" x="408.349609"/>
      <use xlink:href="#DejaVuSans-75" x="460.449219"/>
      <use xlink:href="#DejaVuSans-72" x="523.828125"/>
      <use xlink:href="#DejaVuSans-70" x="564.941406"/>
      <use xlink:href="#DejaVuSans-72" x="628.417969"/>
      <use xlink:href="#DejaVuSans-69" x="669.53125"/>
      <use xlink:href="#DejaVuSans-73" x="697.314453"/>
      <use xlink:href="#DejaVuSans-61" x="749.414062"/>
      <use xlink:href="#DejaVuSans-6c" x="810.693359"/>
      <use xlink:href="#DejaVuSans-20" x="838.476562"/>
      <use xlink:href="#DejaVuSans-2b" x="870.263672"/>
      <use xlink:href="#DejaVuSans-20" x="954.052734"/>
      <use xlink:href="#DejaVuSans-69" x="985.839844"/>
      <use xlink:href="#DejaVuSans-6e" x="1013.623047"/>
      <use xlink:href="#DejaVuSans-74" x="1077.001953"/>
      <use xlink:href="#DejaVuSans-65" x="1116.210938"/>
      <use xlink:href="#DejaVuSans-72" x="1177.734375"/>
      <use xlink:href="#DejaVuSans-61" x="1218.847656"/>
      <use xlink:href="#DejaVuSans-63" x="1280.126953"/>
      <use xlink:href="#DejaVuSans-74" x="1335.107422"/>
      <use xlink:href="#DejaVuSans-69" x="1374.316406"/>
      <use xlink:href="#DejaVuSans-6f" x="1402.099609"/>
      <use xlink:href="#DejaVuSans-6e" x="1463.28125"/>
     </g>
    </g>
   </g>
  </g>
 </g>
 <defs>
  <clipPath id="p244d34d46f">
   <rect x="47.72" y="26.88" width="217.495" height="147.16"/>
  </clipPath>
  <clipPath id="p8891c8931c">
   <rect x="298.065" y="26.88" width="217.495" height="147.16"/>
  </clipPath>
 </defs>
</svg>
