<?xml version="1.0" encoding="utf-8" standalone="no"?>
<!DOCTYPE svg PUBLIC "-//W3C//DTD SVG 1.1//EN"
  "http://www.w3.org/Graphics/SVG/1.1/DTD/svg11.dtd">
<svg xmlns:xlink="http://www.w3.org/1999/xlink" width="720pt" height="216pt" viewBox="0 0 720 216" xmlns="http://www.w3.org/2000/svg" version="1.1">
 <metadata>
  <rdf:RDF xmlns:dc="http://purl.org/dc/elements/1.1/" xmlns:cc="http://creativecommons.org/ns#" xmlns:rdf="http://www.w3.org/1999/02/22-rdf-syntax-ns#">
   <cc:Work>
    <dc:type rdf:resource="http://purl.org/dc/dcmitype/StillImage"/>
    <dc:date>2024-01-15T20:06:21.076346</dc:date>
    <dc:format>image/svg+xml</dc:format>
    <dc:creator>
     <cc:Agent>
      <dc:title>Matplotlib v3.5.1, https://matplotlib.org/</dc:title>
     </cc:Agent>
    </dc:creator>
   </cc:Work>
  </rdf:RDF>
 </metadata>
 <defs>
  <style type="text/css">*{stroke-linejoin: round; stroke-linecap: butt}</style>
 </defs>
 <g id="figure_1">
  <g id="patch_1">
   <path d="M 0 216 
L 720 216 
L 720 0 
L 0 0 
z
" style="fill: #ffffff"/>
  </g>
  <g id="axes_1">
   <g id="patch_2">
    <path d="M 47.72 174.04 
L 265.215 174.04 
L 265.215 26.88 
L 47.72 26.88 
z
" style="fill: #ffffff"/>
   </g>
   <g id="PolyCollection_1">
    <path d="M 47.72 33.569091 
L 47.72 33.569091 
L 59.167105 36.040272 
L 70.614211 42.471965 
L 82.061316 50.814557 
L 93.508421 61.499034 
L 104.955526 72.607307 
L 116.402632 84.026182 
L 127.849737 95.309122 
L 139.296842 105.298691 
L 150.743947 114.019424 
L 162.191053 122.063008 
L 173.638158 128.317548 
L 185.085263 134.050664 
L 196.532368 138.279301 
L 207.979474 142.795489 
L 219.426579 146.290018 
L 230.873684 149.802294 
L 242.320789 152.108322 
L 253.767895 155.452285 
L 265.215 157.586427 
L 265.215 150.054961 
L 265.215 150.054961 
L 253.767895 146.81972 
L 242.320789 143.447011 
L 230.873684 139.471865 
L 219.426579 135.524617 
L 207.979474 130.489254 
L 196.532368 125.352122 
L 185.085263 119.662563 
L 173.638158 112.632841 
L 162.191053 105.749376 
L 150.743947 97.957399 
L 139.296842 89.666482 
L 127.849737 80.495568 
L 116.402632 70.974457 
L 104.955526 62.19898 
L 93.508421 54.140612 
L 82.061316 46.289775 
L 70.614211 40.301573 
L 59.167105 35.033447 
L 47.72 33.569091 
z
" clip-path="url(#pb83680fd88)" style="fill: #1f77b4; fill-opacity: 0.4"/>
   </g>
   <g id="PolyCollection_2">
    <path d="M 47.72 33.569197 
L 47.72 33.569283 
L 59.167105 35.136792 
L 70.614211 39.106323 
L 82.061316 44.277626 
L 93.508421 51.243139 
L 104.955526 59.010659 
L 116.402632 68.169947 
L 127.849737 77.854549 
L 139.296842 87.104482 
L 150.743947 95.715719 
L 162.191053 103.876634 
L 173.638158 111.416865 
L 185.085263 117.700098 
L 196.532368 123.355217 
L 207.979474 129.000951 
L 219.426579 133.254745 
L 230.873684 138.176587 
L 242.320789 141.889571 
L 253.767895 145.998236 
L 265.215 149.008515 
L 265.215 140.73264 
L 265.215 140.73264 
L 253.767895 137.04146 
L 242.320789 133.019903 
L 230.873684 128.656088 
L 219.426579 124.315592 
L 207.979474 118.71107 
L 196.532368 112.936838 
L 185.085263 106.960128 
L 173.638158 99.46008 
L 162.191053 92.824071 
L 150.743947 84.888356 
L 139.296842 76.844889 
L 127.849737 68.656676 
L 116.402632 60.76439 
L 104.955526 53.671963 
L 93.508421 47.101413 
L 82.061316 41.467223 
L 70.614211 37.408188 
L 59.167105 34.59231 
L 47.72 33.569197 
z
" clip-path="url(#pb83680fd88)" style="fill: #ff7f0e; fill-opacity: 0.4"/>
   </g>
   <g id="PolyCollection_3">
    <path d="M 47.72 33.569091 
L 47.72 33.569091 
L 59.167105 35.511171 
L 70.614211 38.64429 
L 82.061316 42.037118 
L 93.508421 46.697528 
L 104.955526 51.772794 
L 116.402632 57.280646 
L 127.849737 62.461042 
L 139.296842 68.029947 
L 150.743947 73.018958 
L 162.191053 78.121425 
L 173.638158 83.015252 
L 185.085263 87.660213 
L 196.532368 92.578504 
L 207.979474 97.22766 
L 219.426579 101.558425 
L 230.873684 105.794186 
L 242.320789 109.534317 
L 253.767895 113.676746 
L 265.215 116.902695 
L 265.215 106.239614 
L 265.215 106.239614 
L 253.767895 102.387243 
L 242.320789 98.515225 
L 230.873684 94.495289 
L 219.426579 90.798051 
L 207.979474 86.430717 
L 196.532368 81.96406 
L 185.085263 77.930017 
L 173.638158 72.344722 
L 162.191053 68.397888 
L 150.743947 63.673677 
L 139.296842 58.830605 
L 127.849737 54.245292 
L 116.402632 50.32526 
L 104.955526 46.546014 
L 93.508421 42.783433 
L 82.061316 39.387154 
L 70.614211 37.070242 
L 59.167105 34.662068 
L 47.72 33.569091 
z
" clip-path="url(#pb83680fd88)" style="fill: #2ca02c; fill-opacity: 0.4"/>
   </g>
   <g id="PolyCollection_4">
    <path d="M 47.72 33.569624 
L 47.72 33.570149 
L 59.167105 35.068448 
L 70.614211 37.687195 
L 82.061316 40.565705 
L 93.508421 44.562372 
L 104.955526 49.180435 
L 116.402632 54.581725 
L 127.849737 59.938822 
L 139.296842 65.705182 
L 150.743947 71.034128 
L 162.191053 76.416184 
L 173.638158 81.404948 
L 185.085263 86.288501 
L 196.532368 91.190756 
L 207.979474 95.791511 
L 219.426579 100.075414 
L 230.873684 104.232475 
L 242.320789 107.684802 
L 253.767895 111.409403 
L 265.215 114.367523 
L 265.215 104.770571 
L 265.215 104.770571 
L 253.767895 101.058525 
L 242.320789 97.207795 
L 230.873684 93.318306 
L 219.426579 89.724557 
L 207.979474 85.41496 
L 196.532368 80.995713 
L 185.085263 76.94552 
L 173.638158 71.328782 
L 162.191053 67.303933 
L 150.743947 62.443951 
L 139.296842 57.545213 
L 127.849737 52.957209 
L 116.402632 48.999251 
L 104.955526 45.149491 
L 93.508421 41.494561 
L 82.061316 38.358115 
L 70.614211 36.26624 
L 59.167105 34.508006 
L 47.72 33.569624 
z
" clip-path="url(#pb83680fd88)" style="fill: #d62728; fill-opacity: 0.4"/>
   </g>
   <g id="PolyCollection_5">
    <path d="M 47.72 33.569091 
L 47.72 33.569091 
L 59.167105 36.045051 
L 70.614211 42.45873 
L 82.061316 50.834272 
L 93.508421 61.727991 
L 104.955526 72.622948 
L 116.402632 84.127934 
L 127.849737 95.156239 
L 139.296842 105.321768 
L 150.743947 114.37084 
L 162.191053 122.065082 
L 173.638158 129.5288 
L 185.085263 134.263124 
L 196.532368 138.930239 
L 207.979474 143.227206 
L 219.426579 146.865235 
L 230.873684 150.071311 
L 242.320789 152.566117 
L 253.767895 155.240344 
L 265.215 158.08688 
L 265.215 149.914121 
L 265.215 149.914121 
L 253.767895 147.319717 
L 242.320789 143.924016 
L 230.873684 139.456746 
L 219.426579 135.541098 
L 207.979474 130.991223 
L 196.532368 125.610266 
L 185.085263 119.933206 
L 173.638158 112.835852 
L 162.191053 105.843732 
L 150.743947 99.120343 
L 139.296842 90.076225 
L 127.849737 80.751415 
L 116.402632 71.129304 
L 104.955526 62.273095 
L 93.508421 54.12869 
L 82.061316 46.285024 
L 70.614211 40.292534 
L 59.167105 35.027356 
L 47.72 33.569091 
z
" clip-path="url(#pb83680fd88)" style="fill: #9467bd; fill-opacity: 0.4"/>
   </g>
   <g id="PolyCollection_6">
    <path d="M 47.72 33.569512 
L 47.72 33.569855 
L 59.167105 35.141758 
L 70.614211 39.106621 
L 82.061316 44.286561 
L 93.508421 51.34793 
L 104.955526 59.052283 
L 116.402632 68.239861 
L 127.849737 77.65757 
L 139.296842 87.196478 
L 150.743947 96.301012 
L 162.191053 103.876264 
L 173.638158 112.564681 
L 185.085263 117.786967 
L 196.532368 124.161904 
L 207.979474 129.591377 
L 219.426579 133.839358 
L 230.873684 138.283748 
L 242.320789 142.593795 
L 253.767895 146.009557 
L 265.215 149.529668 
L 265.215 140.538454 
L 265.215 140.538454 
L 253.767895 137.438615 
L 242.320789 133.095448 
L 230.873684 128.655316 
L 219.426579 124.256559 
L 207.979474 118.977761 
L 196.532368 112.83209 
L 185.085263 107.154199 
L 173.638158 99.409272 
L 162.191053 92.943686 
L 150.743947 85.381879 
L 139.296842 77.216618 
L 127.849737 68.781287 
L 116.402632 60.731285 
L 104.955526 53.715467 
L 93.508421 47.101308 
L 82.061316 41.469429 
L 70.614211 37.397102 
L 59.167105 34.58806 
L 47.72 33.569512 
z
" clip-path="url(#pb83680fd88)" style="fill: #8c564b; fill-opacity: 0.4"/>
   </g>
   <g id="PolyCollection_7">
    <path d="M 47.72 43.932914 
L 47.72 48.33185 
L 59.167105 53.025632 
L 70.614211 60.976332 
L 82.061316 69.003378 
L 93.508421 80.160559 
L 104.955526 91.673599 
L 116.402632 103.213497 
L 127.849737 114.671079 
L 139.296842 124.845434 
L 150.743947 133.402717 
L 162.191053 140.933428 
L 173.638158 146.2952 
L 185.085263 151.588007 
L 196.532368 154.65298 
L 207.979474 157.745888 
L 219.426579 160.224788 
L 230.873684 162.40168 
L 242.320789 163.682963 
L 253.767895 165.577993 
L 265.215 167.350909 
L 265.215 159.413622 
L 265.215 159.413622 
L 253.767895 157.128576 
L 242.320789 154.409853 
L 230.873684 151.201851 
L 219.426579 147.718667 
L 207.979474 143.323187 
L 196.532368 139.283106 
L 185.085263 133.855709 
L 173.638158 127.427717 
L 162.191053 120.965988 
L 150.743947 113.535634 
L 139.296842 105.518075 
L 127.849737 96.363734 
L 116.402632 87.021743 
L 104.955526 78.015603 
L 93.508421 68.500693 
L 82.061316 59.565657 
L 70.614211 51.307827 
L 59.167105 45.256095 
L 47.72 43.932914 
z
" clip-path="url(#pb83680fd88)" style="fill: #e377c2; fill-opacity: 0.4"/>
   </g>
   <g id="PolyCollection_8">
    <path d="M 47.72 33.569328 
L 47.72 33.569494 
L 59.167105 34.492473 
L 70.614211 37.623447 
L 82.061316 41.72288 
L 93.508421 45.713644 
L 104.955526 52.027312 
L 116.402632 59.582547 
L 127.849737 67.467393 
L 139.296842 75.924676 
L 150.743947 84.46118 
L 162.191053 92.984361 
L 173.638158 101.131135 
L 185.085263 108.565617 
L 196.532368 115.481598 
L 207.979474 121.695732 
L 219.426579 127.0435 
L 230.873684 132.232203 
L 242.320789 136.144363 
L 253.767895 140.403709 
L 265.215 143.685143 
L 265.215 133.104096 
L 265.215 133.104096 
L 253.767895 128.796333 
L 242.320789 124.244716 
L 230.873684 118.852313 
L 219.426579 113.349407 
L 207.979474 107.2008 
L 196.532368 100.533131 
L 185.085263 93.991982 
L 173.638158 86.046657 
L 162.191053 78.343536 
L 150.743947 70.482269 
L 139.296842 62.729504 
L 127.849737 54.865999 
L 116.402632 47.763317 
L 104.955526 41.857014 
L 93.508421 37.52474 
L 82.061316 34.293632 
L 70.614211 33.585645 
L 59.167105 33.969939 
L 47.72 33.569328 
z
" clip-path="url(#pb83680fd88)" style="fill: #7f7f7f; fill-opacity: 0.4"/>
   </g>
   <g id="matplotlib.axis_1">
    <g id="xtick_1">
     <g id="line2d_1">
      <defs>
       <path id="m57c25cfb2b" d="M 0 0 
L 0 3.5 
" style="stroke: #000000; stroke-width: 0.8"/>
      </defs>
      <g>
       <use xlink:href="#m57c25cfb2b" x="47.72" y="174.04" style="stroke: #000000; stroke-width: 0.8"/>
      </g>
     </g>
     <g id="text_1">
      <!-- 0.0 -->
      <g transform="translate(39.768438 188.638438)scale(0.1 -0.1)">
       <defs>
        <path id="DejaVuSans-30" d="M 2034 4250 
Q 1547 4250 1301 3770 
Q 1056 3291 1056 2328 
Q 1056 1369 1301 889 
Q 1547 409 2034 409 
Q 2525 409 2770 889 
Q 3016 1369 3016 2328 
Q 3016 3291 2770 3770 
Q 2525 4250 2034 4250 
z
M 2034 4750 
Q 2819 4750 3233 4129 
Q 3647 3509 3647 2328 
Q 3647 1150 3233 529 
Q 2819 -91 2034 -91 
Q 1250 -91 836 529 
Q 422 1150 422 2328 
Q 422 3509 836 4129 
Q 1250 4750 2034 4750 
z
" transform="scale(0.015625)"/>
        <path id="DejaVuSans-2e" d="M 684 794 
L 1344 794 
L 1344 0 
L 684 0 
L 684 794 
z
" transform="scale(0.015625)"/>
       </defs>
       <use xlink:href="#DejaVuSans-30"/>
       <use xlink:href="#DejaVuSans-2e" x="63.623047"/>
       <use xlink:href="#DejaVuSans-30" x="95.410156"/>
      </g>
     </g>
    </g>
    <g id="xtick_2">
     <g id="line2d_2">
      <g>
       <use xlink:href="#m57c25cfb2b" x="102.09375" y="174.04" style="stroke: #000000; stroke-width: 0.8"/>
      </g>
     </g>
     <g id="text_2">
      <!-- 0.5 -->
      <g transform="translate(94.142188 188.638438)scale(0.1 -0.1)">
       <defs>
        <path id="DejaVuSans-35" d="M 691 4666 
L 3169 4666 
L 3169 4134 
L 1269 4134 
L 1269 2991 
Q 1406 3038 1543 3061 
Q 1681 3084 1819 3084 
Q 2600 3084 3056 2656 
Q 3513 2228 3513 1497 
Q 3513 744 3044 326 
Q 2575 -91 1722 -91 
Q 1428 -91 1123 -41 
Q 819 9 494 109 
L 494 744 
Q 775 591 1075 516 
Q 1375 441 1709 441 
Q 2250 441 2565 725 
Q 2881 1009 2881 1497 
Q 2881 1984 2565 2268 
Q 2250 2553 1709 2553 
Q 1456 2553 1204 2497 
Q 953 2441 691 2322 
L 691 4666 
z
" transform="scale(0.015625)"/>
       </defs>
       <use xlink:href="#DejaVuSans-30"/>
       <use xlink:href="#DejaVuSans-2e" x="63.623047"/>
       <use xlink:href="#DejaVuSans-35" x="95.410156"/>
      </g>
     </g>
    </g>
    <g id="xtick_3">
     <g id="line2d_3">
      <g>
       <use xlink:href="#m57c25cfb2b" x="156.4675" y="174.04" style="stroke: #000000; stroke-width: 0.8"/>
      </g>
     </g>
     <g id="text_3">
      <!-- 1.0 -->
      <g transform="translate(148.515938 188.638438)scale(0.1 -0.1)">
       <defs>
        <path id="DejaVuSans-31" d="M 794 531 
L 1825 531 
L 1825 4091 
L 703 3866 
L 703 4441 
L 1819 4666 
L 2450 4666 
L 2450 531 
L 3481 531 
L 3481 0 
L 794 0 
L 794 531 
z
" transform="scale(0.015625)"/>
       </defs>
       <use xlink:href="#DejaVuSans-31"/>
       <use xlink:href="#DejaVuSans-2e" x="63.623047"/>
       <use xlink:href="#DejaVuSans-30" x="95.410156"/>
      </g>
     </g>
    </g>
    <g id="xtick_4">
     <g id="line2d_4">
      <g>
       <use xlink:href="#m57c25cfb2b" x="210.84125" y="174.04" style="stroke: #000000; stroke-width: 0.8"/>
      </g>
     </g>
     <g id="text_4">
      <!-- 1.5 -->
      <g transform="translate(202.889687 188.638438)scale(0.1 -0.1)">
       <use xlink:href="#DejaVuSans-31"/>
       <use xlink:href="#DejaVuSans-2e" x="63.623047"/>
       <use xlink:href="#DejaVuSans-35" x="95.410156"/>
      </g>
     </g>
    </g>
    <g id="xtick_5">
     <g id="line2d_5">
      <g>
       <use xlink:href="#m57c25cfb2b" x="265.215" y="174.04" style="stroke: #000000; stroke-width: 0.8"/>
      </g>
     </g>
     <g id="text_5">
      <!-- 2.0 -->
      <g transform="translate(257.263437 188.638438)scale(0.1 -0.1)">
       <defs>
        <path id="DejaVuSans-32" d="M 1228 531 
L 3431 531 
L 3431 0 
L 469 0 
L 469 531 
Q 828 903 1448 1529 
Q 2069 2156 2228 2338 
Q 2531 2678 2651 2914 
Q 2772 3150 2772 3378 
Q 2772 3750 2511 3984 
Q 2250 4219 1831 4219 
Q 1534 4219 1204 4116 
Q 875 4013 500 3803 
L 500 4441 
Q 881 4594 1212 4672 
Q 1544 4750 1819 4750 
Q 2544 4750 2975 4387 
Q 3406 4025 3406 3419 
Q 3406 3131 3298 2873 
Q 3191 2616 2906 2266 
Q 2828 2175 2409 1742 
Q 1991 1309 1228 531 
z
" transform="scale(0.015625)"/>
       </defs>
       <use xlink:href="#DejaVuSans-32"/>
       <use xlink:href="#DejaVuSans-2e" x="63.623047"/>
       <use xlink:href="#DejaVuSans-30" x="95.410156"/>
      </g>
     </g>
    </g>
    <g id="text_6">
     <!-- Influence of surprisal (multiplication) -->
     <g transform="translate(64.320625 202.316563)scale(0.1 -0.1)">
      <defs>
       <path id="DejaVuSans-49" d="M 628 4666 
L 1259 4666 
L 1259 0 
L 628 0 
L 628 4666 
z
" transform="scale(0.015625)"/>
       <path id="DejaVuSans-6e" d="M 3513 2113 
L 3513 0 
L 2938 0 
L 2938 2094 
Q 2938 2591 2744 2837 
Q 2550 3084 2163 3084 
Q 1697 3084 1428 2787 
Q 1159 2491 1159 1978 
L 1159 0 
L 581 0 
L 581 3500 
L 1159 3500 
L 1159 2956 
Q 1366 3272 1645 3428 
Q 1925 3584 2291 3584 
Q 2894 3584 3203 3211 
Q 3513 2838 3513 2113 
z
" transform="scale(0.015625)"/>
       <path id="DejaVuSans-66" d="M 2375 4863 
L 2375 4384 
L 1825 4384 
Q 1516 4384 1395 4259 
Q 1275 4134 1275 3809 
L 1275 3500 
L 2222 3500 
L 2222 3053 
L 1275 3053 
L 1275 0 
L 697 0 
L 697 3053 
L 147 3053 
L 147 3500 
L 697 3500 
L 697 3744 
Q 697 4328 969 4595 
Q 1241 4863 1831 4863 
L 2375 4863 
z
" transform="scale(0.015625)"/>
       <path id="DejaVuSans-6c" d="M 603 4863 
L 1178 4863 
L 1178 0 
L 603 0 
L 603 4863 
z
" transform="scale(0.015625)"/>
       <path id="DejaVuSans-75" d="M 544 1381 
L 544 3500 
L 1119 3500 
L 1119 1403 
Q 1119 906 1312 657 
Q 1506 409 1894 409 
Q 2359 409 2629 706 
Q 2900 1003 2900 1516 
L 2900 3500 
L 3475 3500 
L 3475 0 
L 2900 0 
L 2900 538 
Q 2691 219 2414 64 
Q 2138 -91 1772 -91 
Q 1169 -91 856 284 
Q 544 659 544 1381 
z
M 1991 3584 
L 1991 3584 
z
" transform="scale(0.015625)"/>
       <path id="DejaVuSans-65" d="M 3597 1894 
L 3597 1613 
L 953 1613 
Q 991 1019 1311 708 
Q 1631 397 2203 397 
Q 2534 397 2845 478 
Q 3156 559 3463 722 
L 3463 178 
Q 3153 47 2828 -22 
Q 2503 -91 2169 -91 
Q 1331 -91 842 396 
Q 353 884 353 1716 
Q 353 2575 817 3079 
Q 1281 3584 2069 3584 
Q 2775 3584 3186 3129 
Q 3597 2675 3597 1894 
z
M 3022 2063 
Q 3016 2534 2758 2815 
Q 2500 3097 2075 3097 
Q 1594 3097 1305 2825 
Q 1016 2553 972 2059 
L 3022 2063 
z
" transform="scale(0.015625)"/>
       <path id="DejaVuSans-63" d="M 3122 3366 
L 3122 2828 
Q 2878 2963 2633 3030 
Q 2388 3097 2138 3097 
Q 1578 3097 1268 2742 
Q 959 2388 959 1747 
Q 959 1106 1268 751 
Q 1578 397 2138 397 
Q 2388 397 2633 464 
Q 2878 531 3122 666 
L 3122 134 
Q 2881 22 2623 -34 
Q 2366 -91 2075 -91 
Q 1284 -91 818 406 
Q 353 903 353 1747 
Q 353 2603 823 3093 
Q 1294 3584 2113 3584 
Q 2378 3584 2631 3529 
Q 2884 3475 3122 3366 
z
" transform="scale(0.015625)"/>
       <path id="DejaVuSans-20" transform="scale(0.015625)"/>
       <path id="DejaVuSans-6f" d="M 1959 3097 
Q 1497 3097 1228 2736 
Q 959 2375 959 1747 
Q 959 1119 1226 758 
Q 1494 397 1959 397 
Q 2419 397 2687 759 
Q 2956 1122 2956 1747 
Q 2956 2369 2687 2733 
Q 2419 3097 1959 3097 
z
M 1959 3584 
Q 2709 3584 3137 3096 
Q 3566 2609 3566 1747 
Q 3566 888 3137 398 
Q 2709 -91 1959 -91 
Q 1206 -91 779 398 
Q 353 888 353 1747 
Q 353 2609 779 3096 
Q 1206 3584 1959 3584 
z
" transform="scale(0.015625)"/>
       <path id="DejaVuSans-73" d="M 2834 3397 
L 2834 2853 
Q 2591 2978 2328 3040 
Q 2066 3103 1784 3103 
Q 1356 3103 1142 2972 
Q 928 2841 928 2578 
Q 928 2378 1081 2264 
Q 1234 2150 1697 2047 
L 1894 2003 
Q 2506 1872 2764 1633 
Q 3022 1394 3022 966 
Q 3022 478 2636 193 
Q 2250 -91 1575 -91 
Q 1294 -91 989 -36 
Q 684 19 347 128 
L 347 722 
Q 666 556 975 473 
Q 1284 391 1588 391 
Q 1994 391 2212 530 
Q 2431 669 2431 922 
Q 2431 1156 2273 1281 
Q 2116 1406 1581 1522 
L 1381 1569 
Q 847 1681 609 1914 
Q 372 2147 372 2553 
Q 372 3047 722 3315 
Q 1072 3584 1716 3584 
Q 2034 3584 2315 3537 
Q 2597 3491 2834 3397 
z
" transform="scale(0.015625)"/>
       <path id="DejaVuSans-72" d="M 2631 2963 
Q 2534 3019 2420 3045 
Q 2306 3072 2169 3072 
Q 1681 3072 1420 2755 
Q 1159 2438 1159 1844 
L 1159 0 
L 581 0 
L 581 3500 
L 1159 3500 
L 1159 2956 
Q 1341 3275 1631 3429 
Q 1922 3584 2338 3584 
Q 2397 3584 2469 3576 
Q 2541 3569 2628 3553 
L 2631 2963 
z
" transform="scale(0.015625)"/>
       <path id="DejaVuSans-70" d="M 1159 525 
L 1159 -1331 
L 581 -1331 
L 581 3500 
L 1159 3500 
L 1159 2969 
Q 1341 3281 1617 3432 
Q 1894 3584 2278 3584 
Q 2916 3584 3314 3078 
Q 3713 2572 3713 1747 
Q 3713 922 3314 415 
Q 2916 -91 2278 -91 
Q 1894 -91 1617 61 
Q 1341 213 1159 525 
z
M 3116 1747 
Q 3116 2381 2855 2742 
Q 2594 3103 2138 3103 
Q 1681 3103 1420 2742 
Q 1159 2381 1159 1747 
Q 1159 1113 1420 752 
Q 1681 391 2138 391 
Q 2594 391 2855 752 
Q 3116 1113 3116 1747 
z
" transform="scale(0.015625)"/>
       <path id="DejaVuSans-69" d="M 603 3500 
L 1178 3500 
L 1178 0 
L 603 0 
L 603 3500 
z
M 603 4863 
L 1178 4863 
L 1178 4134 
L 603 4134 
L 603 4863 
z
" transform="scale(0.015625)"/>
       <path id="DejaVuSans-61" d="M 2194 1759 
Q 1497 1759 1228 1600 
Q 959 1441 959 1056 
Q 959 750 1161 570 
Q 1363 391 1709 391 
Q 2188 391 2477 730 
Q 2766 1069 2766 1631 
L 2766 1759 
L 2194 1759 
z
M 3341 1997 
L 3341 0 
L 2766 0 
L 2766 531 
Q 2569 213 2275 61 
Q 1981 -91 1556 -91 
Q 1019 -91 701 211 
Q 384 513 384 1019 
Q 384 1609 779 1909 
Q 1175 2209 1959 2209 
L 2766 2209 
L 2766 2266 
Q 2766 2663 2505 2880 
Q 2244 3097 1772 3097 
Q 1472 3097 1187 3025 
Q 903 2953 641 2809 
L 641 3341 
Q 956 3463 1253 3523 
Q 1550 3584 1831 3584 
Q 2591 3584 2966 3190 
Q 3341 2797 3341 1997 
z
" transform="scale(0.015625)"/>
       <path id="DejaVuSans-28" d="M 1984 4856 
Q 1566 4138 1362 3434 
Q 1159 2731 1159 2009 
Q 1159 1288 1364 580 
Q 1569 -128 1984 -844 
L 1484 -844 
Q 1016 -109 783 600 
Q 550 1309 550 2009 
Q 550 2706 781 3412 
Q 1013 4119 1484 4856 
L 1984 4856 
z
" transform="scale(0.015625)"/>
       <path id="DejaVuSans-6d" d="M 3328 2828 
Q 3544 3216 3844 3400 
Q 4144 3584 4550 3584 
Q 5097 3584 5394 3201 
Q 5691 2819 5691 2113 
L 5691 0 
L 5113 0 
L 5113 2094 
Q 5113 2597 4934 2840 
Q 4756 3084 4391 3084 
Q 3944 3084 3684 2787 
Q 3425 2491 3425 1978 
L 3425 0 
L 2847 0 
L 2847 2094 
Q 2847 2600 2669 2842 
Q 2491 3084 2119 3084 
Q 1678 3084 1418 2786 
Q 1159 2488 1159 1978 
L 1159 0 
L 581 0 
L 581 3500 
L 1159 3500 
L 1159 2956 
Q 1356 3278 1631 3431 
Q 1906 3584 2284 3584 
Q 2666 3584 2933 3390 
Q 3200 3197 3328 2828 
z
" transform="scale(0.015625)"/>
       <path id="DejaVuSans-74" d="M 1172 4494 
L 1172 3500 
L 2356 3500 
L 2356 3053 
L 1172 3053 
L 1172 1153 
Q 1172 725 1289 603 
Q 1406 481 1766 481 
L 2356 481 
L 2356 0 
L 1766 0 
Q 1100 0 847 248 
Q 594 497 594 1153 
L 594 3053 
L 172 3053 
L 172 3500 
L 594 3500 
L 594 4494 
L 1172 4494 
z
" transform="scale(0.015625)"/>
       <path id="DejaVuSans-29" d="M 513 4856 
L 1013 4856 
Q 1481 4119 1714 3412 
Q 1947 2706 1947 2009 
Q 1947 1309 1714 600 
Q 1481 -109 1013 -844 
L 513 -844 
Q 928 -128 1133 580 
Q 1338 1288 1338 2009 
Q 1338 2731 1133 3434 
Q 928 4138 513 4856 
z
" transform="scale(0.015625)"/>
      </defs>
      <use xlink:href="#DejaVuSans-49"/>
      <use xlink:href="#DejaVuSans-6e" x="29.492188"/>
      <use xlink:href="#DejaVuSans-66" x="92.871094"/>
      <use xlink:href="#DejaVuSans-6c" x="128.076172"/>
      <use xlink:href="#DejaVuSans-75" x="155.859375"/>
      <use xlink:href="#DejaVuSans-65" x="219.238281"/>
      <use xlink:href="#DejaVuSans-6e" x="280.761719"/>
      <use xlink:href="#DejaVuSans-63" x="344.140625"/>
      <use xlink:href="#DejaVuSans-65" x="399.121094"/>
      <use xlink:href="#DejaVuSans-20" x="460.644531"/>
      <use xlink:href="#DejaVuSans-6f" x="492.431641"/>
      <use xlink:href="#DejaVuSans-66" x="553.613281"/>
      <use xlink:href="#DejaVuSans-20" x="588.818359"/>
      <use xlink:href="#DejaVuSans-73" x="620.605469"/>
      <use xlink:href="#DejaVuSans-75" x="672.705078"/>
      <use xlink:href="#DejaVuSans-72" x="736.083984"/>
      <use xlink:href="#DejaVuSans-70" x="777.197266"/>
      <use xlink:href="#DejaVuSans-72" x="840.673828"/>
      <use xlink:href="#DejaVuSans-69" x="881.787109"/>
      <use xlink:href="#DejaVuSans-73" x="909.570312"/>
      <use xlink:href="#DejaVuSans-61" x="961.669922"/>
      <use xlink:href="#DejaVuSans-6c" x="1022.949219"/>
      <use xlink:href="#DejaVuSans-20" x="1050.732422"/>
      <use xlink:href="#DejaVuSans-28" x="1082.519531"/>
      <use xlink:href="#DejaVuSans-6d" x="1121.533203"/>
      <use xlink:href="#DejaVuSans-75" x="1218.945312"/>
      <use xlink:href="#DejaVuSans-6c" x="1282.324219"/>
      <use xlink:href="#DejaVuSans-74" x="1310.107422"/>
      <use xlink:href="#DejaVuSans-69" x="1349.316406"/>
      <use xlink:href="#DejaVuSans-70" x="1377.099609"/>
      <use xlink:href="#DejaVuSans-6c" x="1440.576172"/>
      <use xlink:href="#DejaVuSans-69" x="1468.359375"/>
      <use xlink:href="#DejaVuSans-63" x="1496.142578"/>
      <use xlink:href="#DejaVuSans-61" x="1551.123047"/>
      <use xlink:href="#DejaVuSans-74" x="1612.402344"/>
      <use xlink:href="#DejaVuSans-69" x="1651.611328"/>
      <use xlink:href="#DejaVuSans-6f" x="1679.394531"/>
      <use xlink:href="#DejaVuSans-6e" x="1740.576172"/>
      <use xlink:href="#DejaVuSans-29" x="1803.955078"/>
     </g>
    </g>
   </g>
   <g id="matplotlib.axis_2">
    <g id="ytick_1">
     <g id="line2d_6">
      <defs>
       <path id="m602d51b02b" d="M 0 0 
L -3.5 0 
" style="stroke: #000000; stroke-width: 0.8"/>
      </defs>
      <g>
       <use xlink:href="#m602d51b02b" x="47.72" y="154.228901" style="stroke: #000000; stroke-width: 0.8"/>
      </g>
     </g>
     <g id="text_7">
      <!-- 0.2 -->
      <g transform="translate(24.816875 158.02812)scale(0.1 -0.1)">
       <use xlink:href="#DejaVuSans-30"/>
       <use xlink:href="#DejaVuSans-2e" x="63.623047"/>
       <use xlink:href="#DejaVuSans-32" x="95.410156"/>
      </g>
     </g>
    </g>
    <g id="ytick_2">
     <g id="line2d_7">
      <g>
       <use xlink:href="#m602d51b02b" x="47.72" y="124.063949" style="stroke: #000000; stroke-width: 0.8"/>
      </g>
     </g>
     <g id="text_8">
      <!-- 0.4 -->
      <g transform="translate(24.816875 127.863167)scale(0.1 -0.1)">
       <defs>
        <path id="DejaVuSans-34" d="M 2419 4116 
L 825 1625 
L 2419 1625 
L 2419 4116 
z
M 2253 4666 
L 3047 4666 
L 3047 1625 
L 3713 1625 
L 3713 1100 
L 3047 1100 
L 3047 0 
L 2419 0 
L 2419 1100 
L 313 1100 
L 313 1709 
L 2253 4666 
z
" transform="scale(0.015625)"/>
       </defs>
       <use xlink:href="#DejaVuSans-30"/>
       <use xlink:href="#DejaVuSans-2e" x="63.623047"/>
       <use xlink:href="#DejaVuSans-34" x="95.410156"/>
      </g>
     </g>
    </g>
    <g id="ytick_3">
     <g id="line2d_8">
      <g>
       <use xlink:href="#m602d51b02b" x="47.72" y="93.898996" style="stroke: #000000; stroke-width: 0.8"/>
      </g>
     </g>
     <g id="text_9">
      <!-- 0.6 -->
      <g transform="translate(24.816875 97.698215)scale(0.1 -0.1)">
       <defs>
        <path id="DejaVuSans-36" d="M 2113 2584 
Q 1688 2584 1439 2293 
Q 1191 2003 1191 1497 
Q 1191 994 1439 701 
Q 1688 409 2113 409 
Q 2538 409 2786 701 
Q 3034 994 3034 1497 
Q 3034 2003 2786 2293 
Q 2538 2584 2113 2584 
z
M 3366 4563 
L 3366 3988 
Q 3128 4100 2886 4159 
Q 2644 4219 2406 4219 
Q 1781 4219 1451 3797 
Q 1122 3375 1075 2522 
Q 1259 2794 1537 2939 
Q 1816 3084 2150 3084 
Q 2853 3084 3261 2657 
Q 3669 2231 3669 1497 
Q 3669 778 3244 343 
Q 2819 -91 2113 -91 
Q 1303 -91 875 529 
Q 447 1150 447 2328 
Q 447 3434 972 4092 
Q 1497 4750 2381 4750 
Q 2619 4750 2861 4703 
Q 3103 4656 3366 4563 
z
" transform="scale(0.015625)"/>
       </defs>
       <use xlink:href="#DejaVuSans-30"/>
       <use xlink:href="#DejaVuSans-2e" x="63.623047"/>
       <use xlink:href="#DejaVuSans-36" x="95.410156"/>
      </g>
     </g>
    </g>
    <g id="ytick_4">
     <g id="line2d_9">
      <g>
       <use xlink:href="#m602d51b02b" x="47.72" y="63.734044" style="stroke: #000000; stroke-width: 0.8"/>
      </g>
     </g>
     <g id="text_10">
      <!-- 0.8 -->
      <g transform="translate(24.816875 67.533262)scale(0.1 -0.1)">
       <defs>
        <path id="DejaVuSans-38" d="M 2034 2216 
Q 1584 2216 1326 1975 
Q 1069 1734 1069 1313 
Q 1069 891 1326 650 
Q 1584 409 2034 409 
Q 2484 409 2743 651 
Q 3003 894 3003 1313 
Q 3003 1734 2745 1975 
Q 2488 2216 2034 2216 
z
M 1403 2484 
Q 997 2584 770 2862 
Q 544 3141 544 3541 
Q 544 4100 942 4425 
Q 1341 4750 2034 4750 
Q 2731 4750 3128 4425 
Q 3525 4100 3525 3541 
Q 3525 3141 3298 2862 
Q 3072 2584 2669 2484 
Q 3125 2378 3379 2068 
Q 3634 1759 3634 1313 
Q 3634 634 3220 271 
Q 2806 -91 2034 -91 
Q 1263 -91 848 271 
Q 434 634 434 1313 
Q 434 1759 690 2068 
Q 947 2378 1403 2484 
z
M 1172 3481 
Q 1172 3119 1398 2916 
Q 1625 2713 2034 2713 
Q 2441 2713 2670 2916 
Q 2900 3119 2900 3481 
Q 2900 3844 2670 4047 
Q 2441 4250 2034 4250 
Q 1625 4250 1398 4047 
Q 1172 3844 1172 3481 
z
" transform="scale(0.015625)"/>
       </defs>
       <use xlink:href="#DejaVuSans-30"/>
       <use xlink:href="#DejaVuSans-2e" x="63.623047"/>
       <use xlink:href="#DejaVuSans-38" x="95.410156"/>
      </g>
     </g>
    </g>
    <g id="ytick_5">
     <g id="line2d_10">
      <g>
       <use xlink:href="#m602d51b02b" x="47.72" y="33.569091" style="stroke: #000000; stroke-width: 0.8"/>
      </g>
     </g>
     <g id="text_11">
      <!-- 1.0 -->
      <g transform="translate(24.816875 37.36831)scale(0.1 -0.1)">
       <use xlink:href="#DejaVuSans-31"/>
       <use xlink:href="#DejaVuSans-2e" x="63.623047"/>
       <use xlink:href="#DejaVuSans-30" x="95.410156"/>
      </g>
     </g>
    </g>
    <g id="text_12">
     <!-- R-value -->
     <g transform="translate(18.737188 119.064687)rotate(-90)scale(0.1 -0.1)">
      <defs>
       <path id="DejaVuSans-52" d="M 2841 2188 
Q 3044 2119 3236 1894 
Q 3428 1669 3622 1275 
L 4263 0 
L 3584 0 
L 2988 1197 
Q 2756 1666 2539 1819 
Q 2322 1972 1947 1972 
L 1259 1972 
L 1259 0 
L 628 0 
L 628 4666 
L 2053 4666 
Q 2853 4666 3247 4331 
Q 3641 3997 3641 3322 
Q 3641 2881 3436 2590 
Q 3231 2300 2841 2188 
z
M 1259 4147 
L 1259 2491 
L 2053 2491 
Q 2509 2491 2742 2702 
Q 2975 2913 2975 3322 
Q 2975 3731 2742 3939 
Q 2509 4147 2053 4147 
L 1259 4147 
z
" transform="scale(0.015625)"/>
       <path id="DejaVuSans-2d" d="M 313 2009 
L 1997 2009 
L 1997 1497 
L 313 1497 
L 313 2009 
z
" transform="scale(0.015625)"/>
       <path id="DejaVuSans-76" d="M 191 3500 
L 800 3500 
L 1894 563 
L 2988 3500 
L 3597 3500 
L 2284 0 
L 1503 0 
L 191 3500 
z
" transform="scale(0.015625)"/>
      </defs>
      <use xlink:href="#DejaVuSans-52"/>
      <use xlink:href="#DejaVuSans-2d" x="65.482422"/>
      <use xlink:href="#DejaVuSans-76" x="98.941406"/>
      <use xlink:href="#DejaVuSans-61" x="158.121094"/>
      <use xlink:href="#DejaVuSans-6c" x="219.400391"/>
      <use xlink:href="#DejaVuSans-75" x="247.183594"/>
      <use xlink:href="#DejaVuSans-65" x="310.5625"/>
     </g>
    </g>
   </g>
   <g id="line2d_11">
    <path d="M 47.72 33.569091 
L 59.167105 35.536859 
L 70.614211 41.386769 
L 82.061316 48.552166 
L 93.508421 57.819823 
L 104.955526 67.403143 
L 116.402632 77.50032 
L 127.849737 87.902345 
L 139.296842 97.482586 
L 150.743947 105.988412 
L 162.191053 113.906192 
L 173.638158 120.475194 
L 185.085263 126.856614 
L 196.532368 131.815712 
L 207.979474 136.642371 
L 219.426579 140.907318 
L 230.873684 144.63708 
L 242.320789 147.777667 
L 253.767895 151.136003 
L 265.215 153.820694 
" clip-path="url(#pb83680fd88)" style="fill: none; stroke: #1f77b4; stroke-width: 1.5; stroke-linecap: square"/>
   </g>
   <g id="line2d_12">
    <path d="M 47.72 33.56924 
L 59.167105 34.864551 
L 70.614211 38.257255 
L 82.061316 42.872425 
L 93.508421 49.172276 
L 104.955526 56.341311 
L 116.402632 64.467168 
L 127.849737 73.255612 
L 139.296842 81.974686 
L 150.743947 90.302037 
L 162.191053 98.350353 
L 173.638158 105.438472 
L 185.085263 112.330113 
L 196.532368 118.146027 
L 207.979474 123.856011 
L 219.426579 128.785169 
L 230.873684 133.416338 
L 242.320789 137.454737 
L 253.767895 141.519848 
L 265.215 144.870577 
" clip-path="url(#pb83680fd88)" style="fill: none; stroke: #ff7f0e; stroke-width: 1.5; stroke-linecap: square"/>
   </g>
   <g id="line2d_13">
    <path d="M 47.72 33.569091 
L 59.167105 35.08662 
L 70.614211 37.857266 
L 82.061316 40.712136 
L 93.508421 44.74048 
L 104.955526 49.159404 
L 116.402632 53.802953 
L 127.849737 58.353167 
L 139.296842 63.430276 
L 150.743947 68.346317 
L 162.191053 73.259656 
L 173.638158 77.679987 
L 185.085263 82.795115 
L 196.532368 87.271282 
L 207.979474 91.829188 
L 219.426579 96.178238 
L 230.873684 100.144738 
L 242.320789 104.024771 
L 253.767895 108.031995 
L 265.215 111.571154 
" clip-path="url(#pb83680fd88)" style="fill: none; stroke: #2ca02c; stroke-width: 1.5; stroke-linecap: square"/>
   </g>
   <g id="line2d_14">
    <path d="M 47.72 33.569887 
L 59.167105 34.788227 
L 70.614211 36.976718 
L 82.061316 39.46191 
L 93.508421 43.028467 
L 104.955526 47.164963 
L 116.402632 51.790488 
L 127.849737 56.448016 
L 139.296842 61.625197 
L 150.743947 66.73904 
L 162.191053 71.860059 
L 173.638158 76.366865 
L 185.085263 81.61701 
L 196.532368 86.093234 
L 207.979474 90.603236 
L 219.426579 94.899986 
L 230.873684 98.775391 
L 242.320789 102.446298 
L 253.767895 106.233964 
L 265.215 109.569047 
" clip-path="url(#pb83680fd88)" style="fill: none; stroke: #d62728; stroke-width: 1.5; stroke-linecap: square"/>
   </g>
   <g id="line2d_15">
    <path d="M 47.72 33.569091 
L 59.167105 35.536203 
L 70.614211 41.375632 
L 82.061316 48.559648 
L 93.508421 57.92834 
L 104.955526 67.448021 
L 116.402632 77.628619 
L 127.849737 87.953827 
L 139.296842 97.698996 
L 150.743947 106.745591 
L 162.191053 113.954407 
L 173.638158 121.182326 
L 185.085263 127.098165 
L 196.532368 132.270253 
L 207.979474 137.109215 
L 219.426579 141.203166 
L 230.873684 144.764029 
L 242.320789 148.245066 
L 253.767895 151.28003 
L 265.215 154.000501 
" clip-path="url(#pb83680fd88)" style="fill: none; stroke: #9467bd; stroke-width: 1.5; stroke-linecap: square"/>
   </g>
   <g id="line2d_16">
    <path d="M 47.72 33.569684 
L 59.167105 34.864909 
L 70.614211 38.251861 
L 82.061316 42.877995 
L 93.508421 49.224619 
L 104.955526 56.383875 
L 116.402632 64.485573 
L 127.849737 73.219428 
L 139.296842 82.206548 
L 150.743947 90.841446 
L 162.191053 98.409975 
L 173.638158 105.986976 
L 185.085263 112.470583 
L 196.532368 118.496997 
L 207.979474 124.284569 
L 219.426579 129.047959 
L 230.873684 133.469532 
L 242.320789 137.844621 
L 253.767895 141.724086 
L 265.215 145.034061 
" clip-path="url(#pb83680fd88)" style="fill: none; stroke: #8c564b; stroke-width: 1.5; stroke-linecap: square"/>
   </g>
   <g id="line2d_17">
    <path d="M 47.72 46.132382 
L 59.167105 49.140864 
L 70.614211 56.14208 
L 82.061316 64.284518 
L 93.508421 74.330626 
L 104.955526 84.844601 
L 116.402632 95.11762 
L 127.849737 105.517407 
L 139.296842 115.181754 
L 150.743947 123.469176 
L 162.191053 130.949708 
L 173.638158 136.861459 
L 185.085263 142.721858 
L 196.532368 146.968043 
L 207.979474 150.534538 
L 219.426579 153.971728 
L 230.873684 156.801765 
L 242.320789 159.046408 
L 253.767895 161.353285 
L 265.215 163.382265 
" clip-path="url(#pb83680fd88)" style="fill: none; stroke: #e377c2; stroke-width: 1.5; stroke-linecap: square"/>
   </g>
   <g id="line2d_18">
    <path d="M 47.72 33.569411 
L 59.167105 34.231206 
L 70.614211 35.604546 
L 82.061316 38.008256 
L 93.508421 41.619192 
L 104.955526 46.942163 
L 116.402632 53.672932 
L 127.849737 61.166696 
L 139.296842 69.32709 
L 150.743947 77.471724 
L 162.191053 85.663948 
L 173.638158 93.588896 
L 185.085263 101.278799 
L 196.532368 108.007364 
L 207.979474 114.448266 
L 219.426579 120.196453 
L 230.873684 125.542258 
L 242.320789 130.19454 
L 253.767895 134.600021 
L 265.215 138.394619 
" clip-path="url(#pb83680fd88)" style="fill: none; stroke: #7f7f7f; stroke-width: 1.5; stroke-linecap: square"/>
   </g>
   <g id="patch_3">
    <path d="M 47.72 174.04 
L 47.72 26.88 
" style="fill: none; stroke: #000000; stroke-width: 0.8; stroke-linejoin: miter; stroke-linecap: square"/>
   </g>
   <g id="patch_4">
    <path d="M 47.72 174.04 
L 265.215 174.04 
" style="fill: none; stroke: #000000; stroke-width: 0.8; stroke-linejoin: miter; stroke-linecap: square"/>
   </g>
   <g id="text_13">
    <!-- Node * surprisal -->
    <g transform="translate(108.18625 20.88)scale(0.12 -0.12)">
     <defs>
      <path id="DejaVuSans-4e" d="M 628 4666 
L 1478 4666 
L 3547 763 
L 3547 4666 
L 4159 4666 
L 4159 0 
L 3309 0 
L 1241 3903 
L 1241 0 
L 628 0 
L 628 4666 
z
" transform="scale(0.015625)"/>
      <path id="DejaVuSans-64" d="M 2906 2969 
L 2906 4863 
L 3481 4863 
L 3481 0 
L 2906 0 
L 2906 525 
Q 2725 213 2448 61 
Q 2172 -91 1784 -91 
Q 1150 -91 751 415 
Q 353 922 353 1747 
Q 353 2572 751 3078 
Q 1150 3584 1784 3584 
Q 2172 3584 2448 3432 
Q 2725 3281 2906 2969 
z
M 947 1747 
Q 947 1113 1208 752 
Q 1469 391 1925 391 
Q 2381 391 2643 752 
Q 2906 1113 2906 1747 
Q 2906 2381 2643 2742 
Q 2381 3103 1925 3103 
Q 1469 3103 1208 2742 
Q 947 2381 947 1747 
z
" transform="scale(0.015625)"/>
      <path id="DejaVuSans-2a" d="M 3009 3897 
L 1888 3291 
L 3009 2681 
L 2828 2375 
L 1778 3009 
L 1778 1831 
L 1422 1831 
L 1422 3009 
L 372 2375 
L 191 2681 
L 1313 3291 
L 191 3897 
L 372 4206 
L 1422 3572 
L 1422 4750 
L 1778 4750 
L 1778 3572 
L 2828 4206 
L 3009 3897 
z
" transform="scale(0.015625)"/>
     </defs>
     <use xlink:href="#DejaVuSans-4e"/>
     <use xlink:href="#DejaVuSans-6f" x="74.804688"/>
     <use xlink:href="#DejaVuSans-64" x="135.986328"/>
     <use xlink:href="#DejaVuSans-65" x="199.462891"/>
     <use xlink:href="#DejaVuSans-20" x="260.986328"/>
     <use xlink:href="#DejaVuSans-2a" x="292.773438"/>
     <use xlink:href="#DejaVuSans-20" x="342.773438"/>
     <use xlink:href="#DejaVuSans-73" x="374.560547"/>
     <use xlink:href="#DejaVuSans-75" x="426.660156"/>
     <use xlink:href="#DejaVuSans-72" x="490.039062"/>
     <use xlink:href="#DejaVuSans-70" x="531.152344"/>
     <use xlink:href="#DejaVuSans-72" x="594.628906"/>
     <use xlink:href="#DejaVuSans-69" x="635.742188"/>
     <use xlink:href="#DejaVuSans-73" x="663.525391"/>
     <use xlink:href="#DejaVuSans-61" x="715.625"/>
     <use xlink:href="#DejaVuSans-6c" x="776.904297"/>
    </g>
   </g>
  </g>
  <g id="axes_2">
   <g id="patch_5">
    <path d="M 298.065 174.04 
L 515.56 174.04 
L 515.56 26.88 
L 298.065 26.88 
z
" style="fill: #ffffff"/>
   </g>
   <g id="PolyCollection_9">
    <path d="M 298.065 33.569091 
L 298.065 33.569091 
L 309.512105 35.914854 
L 320.959211 42.561505 
L 332.406316 50.900179 
L 343.853421 61.165476 
L 355.300526 72.352424 
L 366.747632 82.35726 
L 378.194737 92.431257 
L 389.641842 102.585434 
L 401.088947 110.196891 
L 412.536053 117.956157 
L 423.983158 124.993265 
L 435.430263 131.675541 
L 446.877368 136.964212 
L 458.324474 141.613996 
L 469.771579 145.802443 
L 481.218684 150.192339 
L 492.665789 152.614317 
L 504.112895 155.58115 
L 515.56 158.421318 
L 515.56 148.642009 
L 515.56 148.642009 
L 504.112895 146.11145 
L 492.665789 143.207507 
L 481.218684 139.917447 
L 469.771579 136.582522 
L 458.324474 133.086039 
L 446.877368 128.531547 
L 435.430263 124.250523 
L 423.983158 118.676337 
L 412.536053 112.052699 
L 401.088947 104.072078 
L 389.641842 94.920625 
L 378.194737 85.622042 
L 366.747632 75.559822 
L 355.300526 65.160312 
L 343.853421 55.953438 
L 332.406316 47.413447 
L 320.959211 40.696916 
L 309.512105 35.222989 
L 298.065 33.569091 
z
" clip-path="url(#pffa06b6869)" style="fill: #1f77b4; fill-opacity: 0.4"/>
   </g>
   <g id="PolyCollection_10">
    <path d="M 298.065 33.569197 
L 298.065 33.569283 
L 309.512105 35.913142 
L 320.959211 42.56773 
L 332.406316 50.898158 
L 343.853421 61.16896 
L 355.300526 72.372977 
L 366.747632 82.400929 
L 378.194737 92.485272 
L 389.641842 102.642428 
L 401.088947 110.269093 
L 412.536053 118.060748 
L 423.983158 125.100264 
L 435.430263 131.922046 
L 446.877368 137.290783 
L 458.324474 142.128766 
L 469.771579 146.338304 
L 481.218684 150.847233 
L 492.665789 153.365478 
L 504.112895 156.336439 
L 515.56 159.270578 
L 515.56 148.897027 
L 515.56 148.897027 
L 504.112895 146.29462 
L 492.665789 143.424814 
L 481.218684 140.31073 
L 469.771579 136.96157 
L 458.324474 133.401304 
L 446.877368 128.957845 
L 435.430263 124.655441 
L 423.983158 119.034277 
L 412.536053 112.365663 
L 401.088947 104.338252 
L 389.641842 95.092077 
L 378.194737 85.776401 
L 366.747632 75.709602 
L 355.300526 65.258978 
L 343.853421 56.024459 
L 332.406316 47.457768 
L 320.959211 40.710514 
L 309.512105 35.228108 
L 298.065 33.569197 
z
" clip-path="url(#pffa06b6869)" style="fill: #ff7f0e; fill-opacity: 0.4"/>
   </g>
   <g id="PolyCollection_11">
    <path d="M 298.065 33.569091 
L 298.065 33.569091 
L 309.512105 35.920491 
L 320.959211 42.590614 
L 332.406316 50.947958 
L 343.853421 61.277645 
L 355.300526 72.410422 
L 366.747632 82.464257 
L 378.194737 92.526611 
L 389.641842 102.678636 
L 401.088947 110.350232 
L 412.536053 118.169536 
L 423.983158 125.182275 
L 435.430263 132.253726 
L 446.877368 137.649254 
L 458.324474 142.646488 
L 469.771579 146.704908 
L 481.218684 151.494295 
L 492.665789 154.108086 
L 504.112895 157.365392 
L 515.56 160.637029 
L 515.56 149.44383 
L 515.56 149.44383 
L 504.112895 147.11245 
L 492.665789 144.044451 
L 481.218684 140.919063 
L 469.771579 137.583798 
L 458.324474 133.8126 
L 446.877368 129.284628 
L 435.430263 124.717736 
L 423.983158 119.144948 
L 412.536053 112.299166 
L 401.088947 104.219706 
L 389.641842 95.036268 
L 378.194737 85.663326 
L 366.747632 75.622411 
L 355.300526 65.17699 
L 343.853421 55.937367 
L 332.406316 47.394151 
L 320.959211 40.69735 
L 309.512105 35.220289 
L 298.065 33.569091 
z
" clip-path="url(#pffa06b6869)" style="fill: #2ca02c; fill-opacity: 0.4"/>
   </g>
   <g id="PolyCollection_12">
    <path d="M 298.065 33.569624 
L 298.065 33.570149 
L 309.512105 35.91891 
L 320.959211 42.592823 
L 332.406316 50.938175 
L 343.853421 61.260065 
L 355.300526 72.420635 
L 366.747632 82.49256 
L 378.194737 92.556248 
L 389.641842 102.700346 
L 401.088947 110.357953 
L 412.536053 118.166254 
L 423.983158 125.24643 
L 435.430263 132.32901 
L 446.877368 137.783625 
L 458.324474 142.882756 
L 469.771579 146.993152 
L 481.218684 151.768611 
L 492.665789 154.366839 
L 504.112895 157.518713 
L 515.56 160.811393 
L 515.56 149.815453 
L 515.56 149.815453 
L 504.112895 147.358641 
L 492.665789 144.285209 
L 481.218684 141.263056 
L 469.771579 137.781212 
L 458.324474 134.001211 
L 446.877368 129.463067 
L 435.430263 124.944077 
L 423.983158 119.30195 
L 412.536053 112.446134 
L 401.088947 104.348546 
L 389.641842 95.110851 
L 378.194737 85.747857 
L 366.747632 75.691735 
L 355.300526 65.224011 
L 343.853421 55.978479 
L 332.406316 47.419177 
L 320.959211 40.70842 
L 309.512105 35.224155 
L 298.065 33.569624 
z
" clip-path="url(#pffa06b6869)" style="fill: #d62728; fill-opacity: 0.4"/>
   </g>
   <g id="PolyCollection_13">
    <path d="M 298.065 33.569091 
L 298.065 33.569092 
L 309.512105 35.912009 
L 320.959211 42.567723 
L 332.406316 50.961286 
L 343.853421 61.10622 
L 355.300526 72.386067 
L 366.747632 82.417239 
L 378.194737 92.351232 
L 389.641842 102.897293 
L 401.088947 110.217198 
L 412.536053 118.361359 
L 423.983158 125.692273 
L 435.430263 132.997256 
L 446.877368 137.324745 
L 458.324474 142.863322 
L 469.771579 146.619921 
L 481.218684 150.85437 
L 492.665789 152.635174 
L 504.112895 156.263634 
L 515.56 160.544622 
L 515.56 146.9707 
L 515.56 146.9707 
L 504.112895 146.269879 
L 492.665789 143.624931 
L 481.218684 139.832777 
L 469.771579 137.219585 
L 458.324474 132.526826 
L 446.877368 128.346719 
L 435.430263 124.137008 
L 423.983158 119.128385 
L 412.536053 112.0785 
L 401.088947 104.014036 
L 389.641842 95.201362 
L 378.194737 85.713416 
L 366.747632 75.744054 
L 355.300526 65.266993 
L 343.853421 55.982188 
L 332.406316 47.410419 
L 320.959211 40.750962 
L 309.512105 35.226194 
L 298.065 33.569091 
z
" clip-path="url(#pffa06b6869)" style="fill: #9467bd; fill-opacity: 0.4"/>
   </g>
   <g id="PolyCollection_14">
    <path d="M 298.065 33.569512 
L 298.065 33.569856 
L 309.512105 35.910456 
L 320.959211 42.574087 
L 332.406316 50.958623 
L 343.853421 61.109272 
L 355.300526 72.407298 
L 366.747632 82.465919 
L 378.194737 92.399654 
L 389.641842 102.962381 
L 401.088947 110.29694 
L 412.536053 118.462543 
L 423.983158 125.782776 
L 435.430263 133.231126 
L 446.877368 137.653735 
L 458.324474 143.400927 
L 469.771579 147.084466 
L 481.218684 151.508356 
L 492.665789 153.346975 
L 504.112895 156.972465 
L 515.56 161.251056 
L 515.56 147.289882 
L 515.56 147.289882 
L 504.112895 146.457349 
L 492.665789 143.807084 
L 481.218684 140.223255 
L 469.771579 137.602002 
L 458.324474 132.821446 
L 446.877368 128.765657 
L 435.430263 124.516065 
L 423.983158 119.488925 
L 412.536053 112.38119 
L 401.088947 104.29016 
L 389.641842 95.370976 
L 378.194737 85.865581 
L 366.747632 75.891605 
L 355.300526 65.365345 
L 343.853421 56.055865 
L 332.406316 47.45463 
L 320.959211 40.761883 
L 309.512105 35.231349 
L 298.065 33.569512 
z
" clip-path="url(#pffa06b6869)" style="fill: #8c564b; fill-opacity: 0.4"/>
   </g>
   <g id="PolyCollection_15">
    <path d="M 298.065 43.932914 
L 298.065 48.33185 
L 309.512105 49.883103 
L 320.959211 55.237949 
L 332.406316 62.155383 
L 343.853421 71.170898 
L 355.300526 81.590623 
L 366.747632 91.068162 
L 378.194737 100.475377 
L 389.641842 110.582416 
L 401.088947 118.121575 
L 412.536053 125.199951 
L 423.983158 131.602575 
L 435.430263 137.392898 
L 446.877368 142.081355 
L 458.324474 145.846843 
L 469.771579 149.530911 
L 481.218684 153.245462 
L 492.665789 155.640397 
L 504.112895 158.175947 
L 515.56 160.898141 
L 515.56 150.626199 
L 515.56 150.626199 
L 504.112895 148.172474 
L 492.665789 145.308753 
L 481.218684 142.236034 
L 469.771579 139.272158 
L 458.324474 135.792189 
L 446.877368 131.443431 
L 435.430263 126.946579 
L 423.983158 121.610715 
L 412.536053 115.306104 
L 401.088947 108.150612 
L 389.641842 100.453808 
L 378.194737 91.710006 
L 366.747632 83.154867 
L 355.300526 74.004338 
L 343.853421 65.805089 
L 332.406316 57.808232 
L 320.959211 51.408219 
L 309.512105 45.828297 
L 298.065 43.932914 
z
" clip-path="url(#pffa06b6869)" style="fill: #e377c2; fill-opacity: 0.4"/>
   </g>
   <g id="PolyCollection_16">
    <path d="M 298.065 33.569328 
L 298.065 33.569494 
L 309.512105 35.924163 
L 320.959211 42.587208 
L 332.406316 50.93073 
L 343.853421 61.179638 
L 355.300526 72.370468 
L 366.747632 82.340607 
L 378.194737 92.310014 
L 389.641842 102.473328 
L 401.088947 109.996839 
L 412.536053 117.860509 
L 423.983158 125.013067 
L 435.430263 131.949418 
L 446.877368 137.5434 
L 458.324474 142.680163 
L 469.771579 146.757945 
L 481.218684 151.42677 
L 492.665789 153.97907 
L 504.112895 157.055701 
L 515.56 160.361673 
L 515.56 149.189109 
L 515.56 149.189109 
L 504.112895 146.583398 
L 492.665789 143.47016 
L 481.218684 140.287227 
L 469.771579 136.954001 
L 458.324474 133.240354 
L 446.877368 128.87109 
L 435.430263 124.547306 
L 423.983158 118.956535 
L 412.536053 112.239142 
L 401.088947 104.349781 
L 389.641842 95.07294 
L 378.194737 85.819223 
L 366.747632 75.725985 
L 355.300526 65.295259 
L 343.853421 56.046194 
L 332.406316 47.476854 
L 320.959211 40.718747 
L 309.512105 35.234641 
L 298.065 33.569328 
z
" clip-path="url(#pffa06b6869)" style="fill: #7f7f7f; fill-opacity: 0.4"/>
   </g>
   <g id="matplotlib.axis_3">
    <g id="xtick_6">
     <g id="line2d_19">
      <g>
       <use xlink:href="#m57c25cfb2b" x="298.065" y="174.04" style="stroke: #000000; stroke-width: 0.8"/>
      </g>
     </g>
     <g id="text_14">
      <!-- 0.0 -->
      <g transform="translate(290.113437 188.638438)scale(0.1 -0.1)">
       <use xlink:href="#DejaVuSans-30"/>
       <use xlink:href="#DejaVuSans-2e" x="63.623047"/>
       <use xlink:href="#DejaVuSans-30" x="95.410156"/>
      </g>
     </g>
    </g>
    <g id="xtick_7">
     <g id="line2d_20">
      <g>
       <use xlink:href="#m57c25cfb2b" x="352.43875" y="174.04" style="stroke: #000000; stroke-width: 0.8"/>
      </g>
     </g>
     <g id="text_15">
      <!-- 0.5 -->
      <g transform="translate(344.487187 188.638438)scale(0.1 -0.1)">
       <use xlink:href="#DejaVuSans-30"/>
       <use xlink:href="#DejaVuSans-2e" x="63.623047"/>
       <use xlink:href="#DejaVuSans-35" x="95.410156"/>
      </g>
     </g>
    </g>
    <g id="xtick_8">
     <g id="line2d_21">
      <g>
       <use xlink:href="#m57c25cfb2b" x="406.8125" y="174.04" style="stroke: #000000; stroke-width: 0.8"/>
      </g>
     </g>
     <g id="text_16">
      <!-- 1.0 -->
      <g transform="translate(398.860937 188.638438)scale(0.1 -0.1)">
       <use xlink:href="#DejaVuSans-31"/>
       <use xlink:href="#DejaVuSans-2e" x="63.623047"/>
       <use xlink:href="#DejaVuSans-30" x="95.410156"/>
      </g>
     </g>
    </g>
    <g id="xtick_9">
     <g id="line2d_22">
      <g>
       <use xlink:href="#m57c25cfb2b" x="461.18625" y="174.04" style="stroke: #000000; stroke-width: 0.8"/>
      </g>
     </g>
     <g id="text_17">
      <!-- 1.5 -->
      <g transform="translate(453.234687 188.638438)scale(0.1 -0.1)">
       <use xlink:href="#DejaVuSans-31"/>
       <use xlink:href="#DejaVuSans-2e" x="63.623047"/>
       <use xlink:href="#DejaVuSans-35" x="95.410156"/>
      </g>
     </g>
    </g>
    <g id="xtick_10">
     <g id="line2d_23">
      <g>
       <use xlink:href="#m57c25cfb2b" x="515.56" y="174.04" style="stroke: #000000; stroke-width: 0.8"/>
      </g>
     </g>
     <g id="text_18">
      <!-- 2.0 -->
      <g transform="translate(507.608437 188.638438)scale(0.1 -0.1)">
       <use xlink:href="#DejaVuSans-32"/>
       <use xlink:href="#DejaVuSans-2e" x="63.623047"/>
       <use xlink:href="#DejaVuSans-30" x="95.410156"/>
      </g>
     </g>
    </g>
    <g id="text_19">
     <!-- Influence of surprisal (multiplication) -->
     <g transform="translate(314.665625 202.316563)scale(0.1 -0.1)">
      <use xlink:href="#DejaVuSans-49"/>
      <use xlink:href="#DejaVuSans-6e" x="29.492188"/>
      <use xlink:href="#DejaVuSans-66" x="92.871094"/>
      <use xlink:href="#DejaVuSans-6c" x="128.076172"/>
      <use xlink:href="#DejaVuSans-75" x="155.859375"/>
      <use xlink:href="#DejaVuSans-65" x="219.238281"/>
      <use xlink:href="#DejaVuSans-6e" x="280.761719"/>
      <use xlink:href="#DejaVuSans-63" x="344.140625"/>
      <use xlink:href="#DejaVuSans-65" x="399.121094"/>
      <use xlink:href="#DejaVuSans-20" x="460.644531"/>
      <use xlink:href="#DejaVuSans-6f" x="492.431641"/>
      <use xlink:href="#DejaVuSans-66" x="553.613281"/>
      <use xlink:href="#DejaVuSans-20" x="588.818359"/>
      <use xlink:href="#DejaVuSans-73" x="620.605469"/>
      <use xlink:href="#DejaVuSans-75" x="672.705078"/>
      <use xlink:href="#DejaVuSans-72" x="736.083984"/>
      <use xlink:href="#DejaVuSans-70" x="777.197266"/>
      <use xlink:href="#DejaVuSans-72" x="840.673828"/>
      <use xlink:href="#DejaVuSans-69" x="881.787109"/>
      <use xlink:href="#DejaVuSans-73" x="909.570312"/>
      <use xlink:href="#DejaVuSans-61" x="961.669922"/>
      <use xlink:href="#DejaVuSans-6c" x="1022.949219"/>
      <use xlink:href="#DejaVuSans-20" x="1050.732422"/>
      <use xlink:href="#DejaVuSans-28" x="1082.519531"/>
      <use xlink:href="#DejaVuSans-6d" x="1121.533203"/>
      <use xlink:href="#DejaVuSans-75" x="1218.945312"/>
      <use xlink:href="#DejaVuSans-6c" x="1282.324219"/>
      <use xlink:href="#DejaVuSans-74" x="1310.107422"/>
      <use xlink:href="#DejaVuSans-69" x="1349.316406"/>
      <use xlink:href="#DejaVuSans-70" x="1377.099609"/>
      <use xlink:href="#DejaVuSans-6c" x="1440.576172"/>
      <use xlink:href="#DejaVuSans-69" x="1468.359375"/>
      <use xlink:href="#DejaVuSans-63" x="1496.142578"/>
      <use xlink:href="#DejaVuSans-61" x="1551.123047"/>
      <use xlink:href="#DejaVuSans-74" x="1612.402344"/>
      <use xlink:href="#DejaVuSans-69" x="1651.611328"/>
      <use xlink:href="#DejaVuSans-6f" x="1679.394531"/>
      <use xlink:href="#DejaVuSans-6e" x="1740.576172"/>
      <use xlink:href="#DejaVuSans-29" x="1803.955078"/>
     </g>
    </g>
   </g>
   <g id="line2d_24">
    <path d="M 298.065 33.569091 
L 309.512105 35.568922 
L 320.959211 41.62921 
L 332.406316 49.156813 
L 343.853421 58.559457 
L 355.300526 68.756368 
L 366.747632 78.958541 
L 378.194737 89.026649 
L 389.641842 98.75303 
L 401.088947 107.134484 
L 412.536053 115.004428 
L 423.983158 121.834801 
L 435.430263 127.963032 
L 446.877368 132.74788 
L 458.324474 137.350018 
L 469.771579 141.192482 
L 481.218684 145.054893 
L 492.665789 147.910912 
L 504.112895 150.8463 
L 515.56 153.531664 
" clip-path="url(#pffa06b6869)" style="fill: none; stroke: #1f77b4; stroke-width: 1.5; stroke-linecap: square"/>
   </g>
   <g id="line2d_25">
    <path d="M 298.065 33.56924 
L 309.512105 35.570625 
L 320.959211 41.639122 
L 332.406316 49.177963 
L 343.853421 58.596709 
L 355.300526 68.815978 
L 366.747632 79.055266 
L 378.194737 89.130836 
L 389.641842 98.867253 
L 401.088947 107.303673 
L 412.536053 115.213205 
L 423.983158 122.06727 
L 435.430263 128.288743 
L 446.877368 133.124314 
L 458.324474 137.765035 
L 469.771579 141.649937 
L 481.218684 145.578982 
L 492.665789 148.395146 
L 504.112895 151.315529 
L 515.56 154.083802 
" clip-path="url(#pffa06b6869)" style="fill: none; stroke: #ff7f0e; stroke-width: 1.5; stroke-linecap: square"/>
   </g>
   <g id="line2d_26">
    <path d="M 298.065 33.569091 
L 309.512105 35.57039 
L 320.959211 41.643982 
L 332.406316 49.171055 
L 343.853421 58.607506 
L 355.300526 68.793706 
L 366.747632 79.043334 
L 378.194737 89.094969 
L 389.641842 98.857452 
L 401.088947 107.284969 
L 412.536053 115.234351 
L 423.983158 122.163611 
L 435.430263 128.485731 
L 446.877368 133.466941 
L 458.324474 138.229544 
L 469.771579 142.144353 
L 481.218684 146.206679 
L 492.665789 149.076268 
L 504.112895 152.238921 
L 515.56 155.040429 
" clip-path="url(#pffa06b6869)" style="fill: none; stroke: #2ca02c; stroke-width: 1.5; stroke-linecap: square"/>
   </g>
   <g id="line2d_27">
    <path d="M 298.065 33.569887 
L 309.512105 35.571532 
L 320.959211 41.650621 
L 332.406316 49.178676 
L 343.853421 58.619272 
L 355.300526 68.822323 
L 366.747632 79.092148 
L 378.194737 89.152052 
L 389.641842 98.905598 
L 401.088947 107.353249 
L 412.536053 115.306194 
L 423.983158 122.27419 
L 435.430263 128.636543 
L 446.877368 133.623346 
L 458.324474 138.441983 
L 469.771579 142.387182 
L 481.218684 146.515834 
L 492.665789 149.326024 
L 504.112895 152.438677 
L 515.56 155.313423 
" clip-path="url(#pffa06b6869)" style="fill: none; stroke: #d62728; stroke-width: 1.5; stroke-linecap: square"/>
   </g>
   <g id="line2d_28">
    <path d="M 298.065 33.569091 
L 309.512105 35.569102 
L 320.959211 41.659342 
L 332.406316 49.185852 
L 343.853421 58.544204 
L 355.300526 68.82653 
L 366.747632 79.080646 
L 378.194737 89.032324 
L 389.641842 99.049327 
L 401.088947 107.115617 
L 412.536053 115.219929 
L 423.983158 122.410329 
L 435.430263 128.567132 
L 446.877368 132.835732 
L 458.324474 137.695074 
L 469.771579 141.919753 
L 481.218684 145.343573 
L 492.665789 148.130053 
L 504.112895 151.266757 
L 515.56 153.757661 
" clip-path="url(#pffa06b6869)" style="fill: none; stroke: #9467bd; stroke-width: 1.5; stroke-linecap: square"/>
   </g>
   <g id="line2d_29">
    <path d="M 298.065 33.569684 
L 309.512105 35.570902 
L 320.959211 41.667985 
L 332.406316 49.206626 
L 343.853421 58.582568 
L 355.300526 68.886321 
L 366.747632 79.178762 
L 378.194737 89.132618 
L 389.641842 99.166679 
L 401.088947 107.29355 
L 412.536053 115.421867 
L 423.983158 122.635851 
L 435.430263 128.873595 
L 446.877368 133.209696 
L 458.324474 138.111186 
L 469.771579 142.343234 
L 481.218684 145.865805 
L 492.665789 148.57703 
L 504.112895 151.714907 
L 515.56 154.270469 
" clip-path="url(#pffa06b6869)" style="fill: none; stroke: #8c564b; stroke-width: 1.5; stroke-linecap: square"/>
   </g>
   <g id="line2d_30">
    <path d="M 298.065 46.132382 
L 309.512105 47.8557 
L 320.959211 53.323084 
L 332.406316 59.981808 
L 343.853421 68.487993 
L 355.300526 77.79748 
L 366.747632 87.111515 
L 378.194737 96.092691 
L 389.641842 105.518112 
L 401.088947 113.136093 
L 412.536053 120.253028 
L 423.983158 126.606645 
L 435.430263 132.169739 
L 446.877368 136.762393 
L 458.324474 140.819516 
L 469.771579 144.401534 
L 481.218684 147.740748 
L 492.665789 150.474575 
L 504.112895 153.17421 
L 515.56 155.76217 
" clip-path="url(#pffa06b6869)" style="fill: none; stroke: #e377c2; stroke-width: 1.5; stroke-linecap: square"/>
   </g>
   <g id="line2d_31">
    <path d="M 298.065 33.569411 
L 309.512105 35.579402 
L 320.959211 41.652978 
L 332.406316 49.203792 
L 343.853421 58.612916 
L 355.300526 68.832863 
L 366.747632 79.033296 
L 378.194737 89.064618 
L 389.641842 98.773134 
L 401.088947 107.17331 
L 412.536053 115.049825 
L 423.983158 121.984801 
L 435.430263 128.248362 
L 446.877368 133.207245 
L 458.324474 137.960258 
L 469.771579 141.855973 
L 481.218684 145.856998 
L 492.665789 148.724615 
L 504.112895 151.81955 
L 515.56 154.775391 
" clip-path="url(#pffa06b6869)" style="fill: none; stroke: #7f7f7f; stroke-width: 1.5; stroke-linecap: square"/>
   </g>
   <g id="patch_6">
    <path d="M 298.065 174.04 
L 298.065 26.88 
" style="fill: none; stroke: #000000; stroke-width: 0.8; stroke-linejoin: miter; stroke-linecap: square"/>
   </g>
   <g id="patch_7">
    <path d="M 298.065 174.04 
L 515.56 174.04 
" style="fill: none; stroke: #000000; stroke-width: 0.8; stroke-linejoin: miter; stroke-linecap: square"/>
   </g>
   <g id="text_20">
    <!-- Node * third variable -->
    <g transform="translate(344.2325 20.88)scale(0.12 -0.12)">
     <defs>
      <path id="DejaVuSans-68" d="M 3513 2113 
L 3513 0 
L 2938 0 
L 2938 2094 
Q 2938 2591 2744 2837 
Q 2550 3084 2163 3084 
Q 1697 3084 1428 2787 
Q 1159 2491 1159 1978 
L 1159 0 
L 581 0 
L 581 4863 
L 1159 4863 
L 1159 2956 
Q 1366 3272 1645 3428 
Q 1925 3584 2291 3584 
Q 2894 3584 3203 3211 
Q 3513 2838 3513 2113 
z
" transform="scale(0.015625)"/>
      <path id="DejaVuSans-62" d="M 3116 1747 
Q 3116 2381 2855 2742 
Q 2594 3103 2138 3103 
Q 1681 3103 1420 2742 
Q 1159 2381 1159 1747 
Q 1159 1113 1420 752 
Q 1681 391 2138 391 
Q 2594 391 2855 752 
Q 3116 1113 3116 1747 
z
M 1159 2969 
Q 1341 3281 1617 3432 
Q 1894 3584 2278 3584 
Q 2916 3584 3314 3078 
Q 3713 2572 3713 1747 
Q 3713 922 3314 415 
Q 2916 -91 2278 -91 
Q 1894 -91 1617 61 
Q 1341 213 1159 525 
L 1159 0 
L 581 0 
L 581 4863 
L 1159 4863 
L 1159 2969 
z
" transform="scale(0.015625)"/>
     </defs>
     <use xlink:href="#DejaVuSans-4e"/>
     <use xlink:href="#DejaVuSans-6f" x="74.804688"/>
     <use xlink:href="#DejaVuSans-64" x="135.986328"/>
     <use xlink:href="#DejaVuSans-65" x="199.462891"/>
     <use xlink:href="#DejaVuSans-20" x="260.986328"/>
     <use xlink:href="#DejaVuSans-2a" x="292.773438"/>
     <use xlink:href="#DejaVuSans-20" x="342.773438"/>
     <use xlink:href="#DejaVuSans-74" x="374.560547"/>
     <use xlink:href="#DejaVuSans-68" x="413.769531"/>
     <use xlink:href="#DejaVuSans-69" x="477.148438"/>
     <use xlink:href="#DejaVuSans-72" x="504.931641"/>
     <use xlink:href="#DejaVuSans-64" x="544.294922"/>
     <use xlink:href="#DejaVuSans-20" x="607.771484"/>
     <use xlink:href="#DejaVuSans-76" x="639.558594"/>
     <use xlink:href="#DejaVuSans-61" x="698.738281"/>
     <use xlink:href="#DejaVuSans-72" x="760.017578"/>
     <use xlink:href="#DejaVuSans-69" x="801.130859"/>
     <use xlink:href="#DejaVuSans-61" x="828.914062"/>
     <use xlink:href="#DejaVuSans-62" x="890.193359"/>
     <use xlink:href="#DejaVuSans-6c" x="953.669922"/>
     <use xlink:href="#DejaVuSans-65" x="981.453125"/>
    </g>
   </g>
   <g id="legend_1">
    <g id="line2d_32">
     <path d="M 524.56 39.978437 
L 534.56 39.978437 
L 544.56 39.978437 
" style="fill: none; stroke: #1f77b4; stroke-width: 1.5; stroke-linecap: square"/>
    </g>
    <g id="text_21">
     <!-- Node -->
     <g transform="translate(552.56 43.478437)scale(0.1 -0.1)">
      <use xlink:href="#DejaVuSans-4e"/>
      <use xlink:href="#DejaVuSans-6f" x="74.804688"/>
      <use xlink:href="#DejaVuSans-64" x="135.986328"/>
      <use xlink:href="#DejaVuSans-65" x="199.462891"/>
     </g>
    </g>
    <g id="line2d_33">
     <path d="M 524.56 54.656563 
L 534.56 54.656563 
L 544.56 54.656563 
" style="fill: none; stroke: #ff7f0e; stroke-width: 1.5; stroke-linecap: square"/>
    </g>
    <g id="text_22">
     <!-- Node + surprisal -->
     <g transform="translate(552.56 58.156563)scale(0.1 -0.1)">
      <defs>
       <path id="DejaVuSans-2b" d="M 2944 4013 
L 2944 2272 
L 4684 2272 
L 4684 1741 
L 2944 1741 
L 2944 0 
L 2419 0 
L 2419 1741 
L 678 1741 
L 678 2272 
L 2419 2272 
L 2419 4013 
L 2944 4013 
z
" transform="scale(0.015625)"/>
      </defs>
      <use xlink:href="#DejaVuSans-4e"/>
      <use xlink:href="#DejaVuSans-6f" x="74.804688"/>
      <use xlink:href="#DejaVuSans-64" x="135.986328"/>
      <use xlink:href="#DejaVuSans-65" x="199.462891"/>
      <use xlink:href="#DejaVuSans-20" x="260.986328"/>
      <use xlink:href="#DejaVuSans-2b" x="292.773438"/>
      <use xlink:href="#DejaVuSans-20" x="376.5625"/>
      <use xlink:href="#DejaVuSans-73" x="408.349609"/>
      <use xlink:href="#DejaVuSans-75" x="460.449219"/>
      <use xlink:href="#DejaVuSans-72" x="523.828125"/>
      <use xlink:href="#DejaVuSans-70" x="564.941406"/>
      <use xlink:href="#DejaVuSans-72" x="628.417969"/>
      <use xlink:href="#DejaVuSans-69" x="669.53125"/>
      <use xlink:href="#DejaVuSans-73" x="697.314453"/>
      <use xlink:href="#DejaVuSans-61" x="749.414062"/>
      <use xlink:href="#DejaVuSans-6c" x="810.693359"/>
     </g>
    </g>
    <g id="line2d_34">
     <path d="M 524.56 69.334687 
L 534.56 69.334687 
L 544.56 69.334687 
" style="fill: none; stroke: #2ca02c; stroke-width: 1.5; stroke-linecap: square"/>
    </g>
    <g id="text_23">
     <!-- Node split -->
     <g transform="translate(552.56 72.834687)scale(0.1 -0.1)">
      <use xlink:href="#DejaVuSans-4e"/>
      <use xlink:href="#DejaVuSans-6f" x="74.804688"/>
      <use xlink:href="#DejaVuSans-64" x="135.986328"/>
      <use xlink:href="#DejaVuSans-65" x="199.462891"/>
      <use xlink:href="#DejaVuSans-20" x="260.986328"/>
      <use xlink:href="#DejaVuSans-73" x="292.773438"/>
      <use xlink:href="#DejaVuSans-70" x="344.873047"/>
      <use xlink:href="#DejaVuSans-6c" x="408.349609"/>
      <use xlink:href="#DejaVuSans-69" x="436.132812"/>
      <use xlink:href="#DejaVuSans-74" x="463.916016"/>
     </g>
    </g>
    <g id="line2d_35">
     <path d="M 524.56 84.012812 
L 534.56 84.012812 
L 544.56 84.012812 
" style="fill: none; stroke: #d62728; stroke-width: 1.5; stroke-linecap: square"/>
    </g>
    <g id="text_24">
     <!-- Node split + surprisal -->
     <g transform="translate(552.56 87.512812)scale(0.1 -0.1)">
      <use xlink:href="#DejaVuSans-4e"/>
      <use xlink:href="#DejaVuSans-6f" x="74.804688"/>
      <use xlink:href="#DejaVuSans-64" x="135.986328"/>
      <use xlink:href="#DejaVuSans-65" x="199.462891"/>
      <use xlink:href="#DejaVuSans-20" x="260.986328"/>
      <use xlink:href="#DejaVuSans-73" x="292.773438"/>
      <use xlink:href="#DejaVuSans-70" x="344.873047"/>
      <use xlink:href="#DejaVuSans-6c" x="408.349609"/>
      <use xlink:href="#DejaVuSans-69" x="436.132812"/>
      <use xlink:href="#DejaVuSans-74" x="463.916016"/>
      <use xlink:href="#DejaVuSans-20" x="503.125"/>
      <use xlink:href="#DejaVuSans-2b" x="534.912109"/>
      <use xlink:href="#DejaVuSans-20" x="618.701172"/>
      <use xlink:href="#DejaVuSans-73" x="650.488281"/>
      <use xlink:href="#DejaVuSans-75" x="702.587891"/>
      <use xlink:href="#DejaVuSans-72" x="765.966797"/>
      <use xlink:href="#DejaVuSans-70" x="807.080078"/>
      <use xlink:href="#DejaVuSans-72" x="870.556641"/>
      <use xlink:href="#DejaVuSans-69" x="911.669922"/>
      <use xlink:href="#DejaVuSans-73" x="939.453125"/>
      <use xlink:href="#DejaVuSans-61" x="991.552734"/>
      <use xlink:href="#DejaVuSans-6c" x="1052.832031"/>
     </g>
    </g>
    <g id="line2d_36">
     <path d="M 524.56 98.690937 
L 534.56 98.690937 
L 544.56 98.690937 
" style="fill: none; stroke: #9467bd; stroke-width: 1.5; stroke-linecap: square"/>
    </g>
    <g id="text_25">
     <!-- Node random split -->
     <g transform="translate(552.56 102.190937)scale(0.1 -0.1)">
      <use xlink:href="#DejaVuSans-4e"/>
      <use xlink:href="#DejaVuSans-6f" x="74.804688"/>
      <use xlink:href="#DejaVuSans-64" x="135.986328"/>
      <use xlink:href="#DejaVuSans-65" x="199.462891"/>
      <use xlink:href="#DejaVuSans-20" x="260.986328"/>
      <use xlink:href="#DejaVuSans-72" x="292.773438"/>
      <use xlink:href="#DejaVuSans-61" x="333.886719"/>
      <use xlink:href="#DejaVuSans-6e" x="395.166016"/>
      <use xlink:href="#DejaVuSans-64" x="458.544922"/>
      <use xlink:href="#DejaVuSans-6f" x="522.021484"/>
      <use xlink:href="#DejaVuSans-6d" x="583.203125"/>
      <use xlink:href="#DejaVuSans-20" x="680.615234"/>
      <use xlink:href="#DejaVuSans-73" x="712.402344"/>
      <use xlink:href="#DejaVuSans-70" x="764.501953"/>
      <use xlink:href="#DejaVuSans-6c" x="827.978516"/>
      <use xlink:href="#DejaVuSans-69" x="855.761719"/>
      <use xlink:href="#DejaVuSans-74" x="883.544922"/>
     </g>
    </g>
    <g id="line2d_37">
     <path d="M 524.56 113.369062 
L 534.56 113.369062 
L 544.56 113.369062 
" style="fill: none; stroke: #8c564b; stroke-width: 1.5; stroke-linecap: square"/>
    </g>
    <g id="text_26">
     <!-- Node random split + surprisal -->
     <g transform="translate(552.56 116.869062)scale(0.1 -0.1)">
      <use xlink:href="#DejaVuSans-4e"/>
      <use xlink:href="#DejaVuSans-6f" x="74.804688"/>
      <use xlink:href="#DejaVuSans-64" x="135.986328"/>
      <use xlink:href="#DejaVuSans-65" x="199.462891"/>
      <use xlink:href="#DejaVuSans-20" x="260.986328"/>
      <use xlink:href="#DejaVuSans-72" x="292.773438"/>
      <use xlink:href="#DejaVuSans-61" x="333.886719"/>
      <use xlink:href="#DejaVuSans-6e" x="395.166016"/>
      <use xlink:href="#DejaVuSans-64" x="458.544922"/>
      <use xlink:href="#DejaVuSans-6f" x="522.021484"/>
      <use xlink:href="#DejaVuSans-6d" x="583.203125"/>
      <use xlink:href="#DejaVuSans-20" x="680.615234"/>
      <use xlink:href="#DejaVuSans-73" x="712.402344"/>
      <use xlink:href="#DejaVuSans-70" x="764.501953"/>
      <use xlink:href="#DejaVuSans-6c" x="827.978516"/>
      <use xlink:href="#DejaVuSans-69" x="855.761719"/>
      <use xlink:href="#DejaVuSans-74" x="883.544922"/>
      <use xlink:href="#DejaVuSans-20" x="922.753906"/>
      <use xlink:href="#DejaVuSans-2b" x="954.541016"/>
      <use xlink:href="#DejaVuSans-20" x="1038.330078"/>
      <use xlink:href="#DejaVuSans-73" x="1070.117188"/>
      <use xlink:href="#DejaVuSans-75" x="1122.216797"/>
      <use xlink:href="#DejaVuSans-72" x="1185.595703"/>
      <use xlink:href="#DejaVuSans-70" x="1226.708984"/>
      <use xlink:href="#DejaVuSans-72" x="1290.185547"/>
      <use xlink:href="#DejaVuSans-69" x="1331.298828"/>
      <use xlink:href="#DejaVuSans-73" x="1359.082031"/>
      <use xlink:href="#DejaVuSans-61" x="1411.181641"/>
      <use xlink:href="#DejaVuSans-6c" x="1472.460938"/>
     </g>
    </g>
    <g id="line2d_38">
     <path d="M 524.56 128.047187 
L 534.56 128.047187 
L 544.56 128.047187 
" style="fill: none; stroke: #e377c2; stroke-width: 1.5; stroke-linecap: square"/>
    </g>
    <g id="text_27">
     <!-- Interaction -->
     <g transform="translate(552.56 131.547187)scale(0.1 -0.1)">
      <use xlink:href="#DejaVuSans-49"/>
      <use xlink:href="#DejaVuSans-6e" x="29.492188"/>
      <use xlink:href="#DejaVuSans-74" x="92.871094"/>
      <use xlink:href="#DejaVuSans-65" x="132.080078"/>
      <use xlink:href="#DejaVuSans-72" x="193.603516"/>
      <use xlink:href="#DejaVuSans-61" x="234.716797"/>
      <use xlink:href="#DejaVuSans-63" x="295.996094"/>
      <use xlink:href="#DejaVuSans-74" x="350.976562"/>
      <use xlink:href="#DejaVuSans-69" x="390.185547"/>
      <use xlink:href="#DejaVuSans-6f" x="417.96875"/>
      <use xlink:href="#DejaVuSans-6e" x="479.150391"/>
     </g>
    </g>
    <g id="line2d_39">
     <path d="M 524.56 142.725312 
L 534.56 142.725312 
L 544.56 142.725312 
" style="fill: none; stroke: #7f7f7f; stroke-width: 1.5; stroke-linecap: square"/>
    </g>
    <g id="text_28">
     <!-- Node + surprisal + interaction -->
     <g transform="translate(552.56 146.225312)scale(0.1 -0.1)">
      <use xlink:href="#DejaVuSans-4e"/>
      <use xlink:href="#DejaVuSans-6f" x="74.804688"/>
      <use xlink:href="#DejaVuSans-64" x="135.986328"/>
      <use xlink:href="#DejaVuSans-65" x="199.462891"/>
      <use xlink:href="#DejaVuSans-20" x="260.986328"/>
      <use xlink:href="#DejaVuSans-2b" x="292.773438"/>
      <use xlink:href="#DejaVuSans-20" x="376.5625"/>
      <use xlink:href="#DejaVuSans-73" x="408.349609"/>
      <use xlink:href="#DejaVuSans-75" x="460.449219"/>
      <use xlink:href="#DejaVuSans-72" x="523.828125"/>
      <use xlink:href="#DejaVuSans-70" x="564.941406"/>
      <use xlink:href="#DejaVuSans-72" x="628.417969"/>
      <use xlink:href="#DejaVuSans-69" x="669.53125"/>
      <use xlink:href="#DejaVuSans-73" x="697.314453"/>
      <use xlink:href="#DejaVuSans-61" x="749.414062"/>
      <use xlink:href="#DejaVuSans-6c" x="810.693359"/>
      <use xlink:href="#DejaVuSans-20" x="838.476562"/>
      <use xlink:href="#DejaVuSans-2b" x="870.263672"/>
      <use xlink:href="#DejaVuSans-20" x="954.052734"/>
      <use xlink:href="#DejaVuSans-69" x="985.839844"/>
      <use xlink:href="#DejaVuSans-6e" x="1013.623047"/>
      <use xlink:href="#DejaVuSans-74" x="1077.001953"/>
      <use xlink:href="#DejaVuSans-65" x="1116.210938"/>
      <use xlink:href="#DejaVuSans-72" x="1177.734375"/>
      <use xlink:href="#DejaVuSans-61" x="1218.847656"/>
      <use xlink:href="#DejaVuSans-63" x="1280.126953"/>
      <use xlink:href="#DejaVuSans-74" x="1335.107422"/>
      <use xlink:href="#DejaVuSans-69" x="1374.316406"/>
      <use xlink:href="#DejaVuSans-6f" x="1402.099609"/>
      <use xlink:href="#DejaVuSans-6e" x="1463.28125"/>
     </g>
    </g>
   </g>
  </g>
 </g>
 <defs>
  <clipPath id="pb83680fd88">
   <rect x="47.72" y="26.88" width="217.495" height="147.16"/>
  </clipPath>
  <clipPath id="pffa06b6869">
   <rect x="298.065" y="26.88" width="217.495" height="147.16"/>
  </clipPath>
 </defs>
</svg>
