<?xml version="1.0" encoding="utf-8" standalone="no"?>
<!DOCTYPE svg PUBLIC "-//W3C//DTD SVG 1.1//EN"
  "http://www.w3.org/Graphics/SVG/1.1/DTD/svg11.dtd">
<svg xmlns:xlink="http://www.w3.org/1999/xlink" width="720pt" height="216pt" viewBox="0 0 720 216" xmlns="http://www.w3.org/2000/svg" version="1.1">
 <metadata>
  <rdf:RDF xmlns:dc="http://purl.org/dc/elements/1.1/" xmlns:cc="http://creativecommons.org/ns#" xmlns:rdf="http://www.w3.org/1999/02/22-rdf-syntax-ns#">
   <cc:Work>
    <dc:type rdf:resource="http://purl.org/dc/dcmitype/StillImage"/>
    <dc:date>2024-01-15T19:37:09.721091</dc:date>
    <dc:format>image/svg+xml</dc:format>
    <dc:creator>
     <cc:Agent>
      <dc:title>Matplotlib v3.5.1, https://matplotlib.org/</dc:title>
     </cc:Agent>
    </dc:creator>
   </cc:Work>
  </rdf:RDF>
 </metadata>
 <defs>
  <style type="text/css">*{stroke-linejoin: round; stroke-linecap: butt}</style>
 </defs>
 <g id="figure_1">
  <g id="patch_1">
   <path d="M 0 216 
L 720 216 
L 720 0 
L 0 0 
z
" style="fill: #ffffff"/>
  </g>
  <g id="axes_1">
   <g id="patch_2">
    <path d="M 47.72 174.04 
L 265.215 174.04 
L 265.215 26.88 
L 47.72 26.88 
z
" style="fill: #ffffff"/>
   </g>
   <g id="PolyCollection_1">
    <path d="M 47.72 33.569091 
L 47.72 33.569091 
L 59.167105 36.342558 
L 70.614211 43.889194 
L 82.061316 52.681272 
L 93.508421 60.804885 
L 104.955526 71.152715 
L 116.402632 80.28437 
L 127.849737 90.220874 
L 139.296842 99.786201 
L 150.743947 108.281046 
L 162.191053 116.307266 
L 173.638158 123.414325 
L 185.085263 129.415743 
L 196.532368 135.465552 
L 207.979474 140.166876 
L 219.426579 144.660069 
L 230.873684 148.21018 
L 242.320789 151.818516 
L 253.767895 154.390948 
L 265.215 157.113636 
L 265.215 144.076454 
L 265.215 144.076454 
L 253.767895 141.07986 
L 242.320789 137.035383 
L 230.873684 133.689854 
L 219.426579 129.651369 
L 207.979474 125.597517 
L 196.532368 121.0645 
L 185.085263 116.107639 
L 173.638158 109.779679 
L 162.191053 103.586202 
L 150.743947 95.748807 
L 139.296842 88.679169 
L 127.849737 80.210134 
L 116.402632 71.632252 
L 104.955526 62.507359 
L 93.508421 53.821307 
L 82.061316 45.577265 
L 70.614211 39.477663 
L 59.167105 35.028024 
L 47.72 33.569091 
z
" clip-path="url(#p7aa3ec7349)" style="fill: #1f77b4; fill-opacity: 0.4"/>
   </g>
   <g id="PolyCollection_2">
    <path d="M 47.72 33.569207 
L 47.72 33.569273 
L 59.167105 35.17699 
L 70.614211 39.266437 
L 82.061316 45.331151 
L 93.508421 52.120892 
L 104.955526 60.274708 
L 116.402632 67.380812 
L 127.849737 75.52292 
L 139.296842 83.884285 
L 150.743947 91.881313 
L 162.191053 100.229414 
L 173.638158 107.959949 
L 185.085263 114.701587 
L 196.532368 121.55678 
L 207.979474 127.053229 
L 219.426579 132.828206 
L 230.873684 136.877325 
L 242.320789 141.830073 
L 253.767895 145.035703 
L 265.215 148.727271 
L 265.215 135.755715 
L 265.215 135.755715 
L 253.767895 132.365917 
L 242.320789 127.455995 
L 230.873684 123.886598 
L 219.426579 119.11091 
L 207.979474 114.632356 
L 196.532368 109.52501 
L 185.085263 103.806835 
L 173.638158 97.073333 
L 162.191053 90.562653 
L 150.743947 82.836435 
L 139.296842 76.018571 
L 127.849737 68.276094 
L 116.402632 60.960488 
L 104.955526 53.067135 
L 93.508421 46.517338 
L 82.061316 41.017497 
L 70.614211 37.347604 
L 59.167105 34.633494 
L 47.72 33.569207 
z
" clip-path="url(#p7aa3ec7349)" style="fill: #ff7f0e; fill-opacity: 0.4"/>
   </g>
   <g id="PolyCollection_3">
    <path d="M 47.72 33.569091 
L 47.72 33.569091 
L 59.167105 35.72012 
L 70.614211 39.703724 
L 82.061316 44.342549 
L 93.508421 48.305345 
L 104.955526 52.865581 
L 116.402632 56.854872 
L 127.849737 61.441277 
L 139.296842 66.133851 
L 150.743947 70.989468 
L 162.191053 75.734704 
L 173.638158 80.566422 
L 185.085263 85.529427 
L 196.532368 90.186984 
L 207.979474 94.34361 
L 219.426579 99.237511 
L 230.873684 102.694463 
L 242.320789 107.903945 
L 253.767895 111.309377 
L 265.215 115.740351 
L 265.215 103.262554 
L 265.215 103.262554 
L 253.767895 99.69765 
L 242.320789 95.215094 
L 230.873684 92.126668 
L 219.426579 87.972073 
L 207.979474 83.882108 
L 196.532368 80.051556 
L 185.085263 75.803263 
L 173.638158 71.385862 
L 162.191053 67.474527 
L 150.743947 62.932435 
L 139.296842 58.828679 
L 127.849737 54.724398 
L 116.402632 50.548036 
L 104.955526 46.247703 
L 93.508421 42.445884 
L 82.061316 39.080782 
L 70.614211 36.641514 
L 59.167105 34.670019 
L 47.72 33.569091 
z
" clip-path="url(#p7aa3ec7349)" style="fill: #2ca02c; fill-opacity: 0.4"/>
   </g>
   <g id="PolyCollection_4">
    <path d="M 47.72 33.569677 
L 47.72 33.570099 
L 59.167105 35.118379 
L 70.614211 38.091155 
L 82.061316 42.084615 
L 93.508421 46.110083 
L 104.955526 50.692685 
L 116.402632 54.889633 
L 127.849737 59.465462 
L 139.296842 64.053005 
L 150.743947 69.018766 
L 162.191053 73.995625 
L 173.638158 78.913465 
L 185.085263 84.014985 
L 196.532368 88.786335 
L 207.979474 93.004168 
L 219.426579 97.827465 
L 230.873684 101.241401 
L 242.320789 106.282268 
L 253.767895 109.463323 
L 265.215 113.750477 
L 265.215 101.666882 
L 265.215 101.666882 
L 253.767895 98.302587 
L 242.320789 94.052315 
L 230.873684 91.122933 
L 219.426579 87.164797 
L 207.979474 83.196505 
L 196.532368 79.439641 
L 185.085263 75.357348 
L 173.638158 70.866705 
L 162.191053 66.807948 
L 150.743947 62.008519 
L 139.296842 57.832733 
L 127.849737 53.414654 
L 116.402632 49.067471 
L 104.955526 44.787227 
L 93.508421 41.206301 
L 82.061316 38.228826 
L 70.614211 36.205964 
L 59.167105 34.54658 
L 47.72 33.569677 
z
" clip-path="url(#p7aa3ec7349)" style="fill: #d62728; fill-opacity: 0.4"/>
   </g>
   <g id="PolyCollection_5">
    <path d="M 47.72 33.569091 
L 47.72 33.569092 
L 59.167105 36.335025 
L 70.614211 43.875026 
L 82.061316 52.689484 
L 93.508421 60.807079 
L 104.955526 71.234009 
L 116.402632 80.353231 
L 127.849737 90.109182 
L 139.296842 99.817615 
L 150.743947 108.203835 
L 162.191053 116.237108 
L 173.638158 123.669178 
L 185.085263 129.744696 
L 196.532368 136.112866 
L 207.979474 140.652668 
L 219.426579 145.412892 
L 230.873684 148.37572 
L 242.320789 151.679087 
L 253.767895 155.046034 
L 265.215 158.446964 
L 265.215 143.720141 
L 265.215 143.720141 
L 253.767895 140.997584 
L 242.320789 137.212931 
L 230.873684 133.696071 
L 219.426579 129.620122 
L 207.979474 126.037516 
L 196.532368 121.522843 
L 185.085263 115.867723 
L 173.638158 110.25575 
L 162.191053 103.702762 
L 150.743947 95.857366 
L 139.296842 88.308231 
L 127.849737 80.129648 
L 116.402632 71.616719 
L 104.955526 62.66378 
L 93.508421 53.873219 
L 82.061316 45.565673 
L 70.614211 39.478711 
L 59.167105 35.028357 
L 47.72 33.569091 
z
" clip-path="url(#p7aa3ec7349)" style="fill: #9467bd; fill-opacity: 0.4"/>
   </g>
   <g id="PolyCollection_6">
    <path d="M 47.72 33.569552 
L 47.72 33.569818 
L 59.167105 35.173703 
L 70.614211 39.276688 
L 82.061316 45.367595 
L 93.508421 52.095072 
L 104.955526 60.281823 
L 116.402632 67.496908 
L 127.849737 75.444044 
L 139.296842 83.927623 
L 150.743947 91.895889 
L 162.191053 100.206501 
L 173.638158 108.184011 
L 185.085263 115.095568 
L 196.532368 122.057114 
L 207.979474 127.571099 
L 219.426579 133.397341 
L 230.873684 136.987037 
L 242.320789 141.934303 
L 253.767895 145.35286 
L 265.215 149.719787 
L 265.215 135.745053 
L 265.215 135.745053 
L 253.767895 132.64224 
L 242.320789 127.494991 
L 230.873684 123.931238 
L 219.426579 119.156446 
L 207.979474 114.935078 
L 196.532368 109.851016 
L 185.085263 103.450487 
L 173.638158 97.358909 
L 162.191053 90.592449 
L 150.743947 82.94048 
L 139.296842 75.815102 
L 127.849737 68.263336 
L 116.402632 60.883971 
L 104.955526 53.054824 
L 93.508421 46.537079 
L 82.061316 41.02247 
L 70.614211 37.346217 
L 59.167105 34.633609 
L 47.72 33.569552 
z
" clip-path="url(#p7aa3ec7349)" style="fill: #8c564b; fill-opacity: 0.4"/>
   </g>
   <g id="PolyCollection_7">
    <path d="M 47.72 43.641155 
L 47.72 49.352355 
L 59.167105 53.685226 
L 70.614211 64.409233 
L 82.061316 77.020973 
L 93.508421 86.556997 
L 104.955526 95.650763 
L 116.402632 103.487418 
L 127.849737 111.953806 
L 139.296842 121.06954 
L 150.743947 128.926434 
L 162.191053 135.635024 
L 173.638158 141.284655 
L 185.085263 146.03761 
L 196.532368 150.557431 
L 207.979474 154.44202 
L 219.426579 157.794314 
L 230.873684 160.989363 
L 242.320789 163.656161 
L 253.767895 165.47261 
L 265.215 167.350909 
L 265.215 156.967434 
L 265.215 156.967434 
L 253.767895 154.65466 
L 242.320789 151.625441 
L 230.873684 148.751621 
L 219.426579 145.543936 
L 207.979474 142.069014 
L 196.532368 137.932571 
L 185.085263 133.005219 
L 173.638158 127.124968 
L 162.191053 120.760132 
L 150.743947 112.804078 
L 139.296842 105.938203 
L 127.849737 96.747175 
L 116.402632 87.446601 
L 104.955526 76.67968 
L 93.508421 66.361408 
L 82.061316 56.815186 
L 70.614211 50.04745 
L 59.167105 45.358083 
L 47.72 43.641155 
z
" clip-path="url(#p7aa3ec7349)" style="fill: #e377c2; fill-opacity: 0.4"/>
   </g>
   <g id="PolyCollection_8">
    <path d="M 47.72 33.569344 
L 47.72 33.569497 
L 59.167105 34.267863 
L 70.614211 35.942431 
L 82.061316 40.922403 
L 93.508421 47.888378 
L 104.955526 55.768077 
L 116.402632 61.965012 
L 127.849737 68.307391 
L 139.296842 75.259542 
L 150.743947 82.863799 
L 162.191053 91.245159 
L 173.638158 98.926204 
L 185.085263 106.274769 
L 196.532368 113.160743 
L 207.979474 118.796814 
L 219.426579 125.072649 
L 230.873684 128.909628 
L 242.320789 135.0482 
L 253.767895 138.666635 
L 265.215 142.986452 
L 265.215 129.592482 
L 265.215 129.592482 
L 253.767895 125.749507 
L 242.320789 120.118493 
L 230.873684 116.317557 
L 219.426579 110.161301 
L 207.979474 104.920434 
L 196.532368 98.630522 
L 185.085263 91.720438 
L 173.638158 84.561867 
L 162.191053 77.332191 
L 150.743947 69.322588 
L 139.296842 62.173279 
L 127.849737 54.603534 
L 116.402632 47.62749 
L 104.955526 41.463675 
L 93.508421 37.374539 
L 82.061316 35.180835 
L 70.614211 34.454961 
L 59.167105 34.074392 
L 47.72 33.569344 
z
" clip-path="url(#p7aa3ec7349)" style="fill: #7f7f7f; fill-opacity: 0.4"/>
   </g>
   <g id="matplotlib.axis_1">
    <g id="xtick_1">
     <g id="line2d_1">
      <defs>
       <path id="mcab418c9de" d="M 0 0 
L 0 3.5 
" style="stroke: #000000; stroke-width: 0.8"/>
      </defs>
      <g>
       <use xlink:href="#mcab418c9de" x="47.72" y="174.04" style="stroke: #000000; stroke-width: 0.8"/>
      </g>
     </g>
     <g id="text_1">
      <!-- 0.0 -->
      <g transform="translate(39.768438 188.638438)scale(0.1 -0.1)">
       <defs>
        <path id="DejaVuSans-30" d="M 2034 4250 
Q 1547 4250 1301 3770 
Q 1056 3291 1056 2328 
Q 1056 1369 1301 889 
Q 1547 409 2034 409 
Q 2525 409 2770 889 
Q 3016 1369 3016 2328 
Q 3016 3291 2770 3770 
Q 2525 4250 2034 4250 
z
M 2034 4750 
Q 2819 4750 3233 4129 
Q 3647 3509 3647 2328 
Q 3647 1150 3233 529 
Q 2819 -91 2034 -91 
Q 1250 -91 836 529 
Q 422 1150 422 2328 
Q 422 3509 836 4129 
Q 1250 4750 2034 4750 
z
" transform="scale(0.015625)"/>
        <path id="DejaVuSans-2e" d="M 684 794 
L 1344 794 
L 1344 0 
L 684 0 
L 684 794 
z
" transform="scale(0.015625)"/>
       </defs>
       <use xlink:href="#DejaVuSans-30"/>
       <use xlink:href="#DejaVuSans-2e" x="63.623047"/>
       <use xlink:href="#DejaVuSans-30" x="95.410156"/>
      </g>
     </g>
    </g>
    <g id="xtick_2">
     <g id="line2d_2">
      <g>
       <use xlink:href="#mcab418c9de" x="102.09375" y="174.04" style="stroke: #000000; stroke-width: 0.8"/>
      </g>
     </g>
     <g id="text_2">
      <!-- 0.5 -->
      <g transform="translate(94.142188 188.638438)scale(0.1 -0.1)">
       <defs>
        <path id="DejaVuSans-35" d="M 691 4666 
L 3169 4666 
L 3169 4134 
L 1269 4134 
L 1269 2991 
Q 1406 3038 1543 3061 
Q 1681 3084 1819 3084 
Q 2600 3084 3056 2656 
Q 3513 2228 3513 1497 
Q 3513 744 3044 326 
Q 2575 -91 1722 -91 
Q 1428 -91 1123 -41 
Q 819 9 494 109 
L 494 744 
Q 775 591 1075 516 
Q 1375 441 1709 441 
Q 2250 441 2565 725 
Q 2881 1009 2881 1497 
Q 2881 1984 2565 2268 
Q 2250 2553 1709 2553 
Q 1456 2553 1204 2497 
Q 953 2441 691 2322 
L 691 4666 
z
" transform="scale(0.015625)"/>
       </defs>
       <use xlink:href="#DejaVuSans-30"/>
       <use xlink:href="#DejaVuSans-2e" x="63.623047"/>
       <use xlink:href="#DejaVuSans-35" x="95.410156"/>
      </g>
     </g>
    </g>
    <g id="xtick_3">
     <g id="line2d_3">
      <g>
       <use xlink:href="#mcab418c9de" x="156.4675" y="174.04" style="stroke: #000000; stroke-width: 0.8"/>
      </g>
     </g>
     <g id="text_3">
      <!-- 1.0 -->
      <g transform="translate(148.515938 188.638438)scale(0.1 -0.1)">
       <defs>
        <path id="DejaVuSans-31" d="M 794 531 
L 1825 531 
L 1825 4091 
L 703 3866 
L 703 4441 
L 1819 4666 
L 2450 4666 
L 2450 531 
L 3481 531 
L 3481 0 
L 794 0 
L 794 531 
z
" transform="scale(0.015625)"/>
       </defs>
       <use xlink:href="#DejaVuSans-31"/>
       <use xlink:href="#DejaVuSans-2e" x="63.623047"/>
       <use xlink:href="#DejaVuSans-30" x="95.410156"/>
      </g>
     </g>
    </g>
    <g id="xtick_4">
     <g id="line2d_4">
      <g>
       <use xlink:href="#mcab418c9de" x="210.84125" y="174.04" style="stroke: #000000; stroke-width: 0.8"/>
      </g>
     </g>
     <g id="text_4">
      <!-- 1.5 -->
      <g transform="translate(202.889687 188.638438)scale(0.1 -0.1)">
       <use xlink:href="#DejaVuSans-31"/>
       <use xlink:href="#DejaVuSans-2e" x="63.623047"/>
       <use xlink:href="#DejaVuSans-35" x="95.410156"/>
      </g>
     </g>
    </g>
    <g id="xtick_5">
     <g id="line2d_5">
      <g>
       <use xlink:href="#mcab418c9de" x="265.215" y="174.04" style="stroke: #000000; stroke-width: 0.8"/>
      </g>
     </g>
     <g id="text_5">
      <!-- 2.0 -->
      <g transform="translate(257.263437 188.638438)scale(0.1 -0.1)">
       <defs>
        <path id="DejaVuSans-32" d="M 1228 531 
L 3431 531 
L 3431 0 
L 469 0 
L 469 531 
Q 828 903 1448 1529 
Q 2069 2156 2228 2338 
Q 2531 2678 2651 2914 
Q 2772 3150 2772 3378 
Q 2772 3750 2511 3984 
Q 2250 4219 1831 4219 
Q 1534 4219 1204 4116 
Q 875 4013 500 3803 
L 500 4441 
Q 881 4594 1212 4672 
Q 1544 4750 1819 4750 
Q 2544 4750 2975 4387 
Q 3406 4025 3406 3419 
Q 3406 3131 3298 2873 
Q 3191 2616 2906 2266 
Q 2828 2175 2409 1742 
Q 1991 1309 1228 531 
z
" transform="scale(0.015625)"/>
       </defs>
       <use xlink:href="#DejaVuSans-32"/>
       <use xlink:href="#DejaVuSans-2e" x="63.623047"/>
       <use xlink:href="#DejaVuSans-30" x="95.410156"/>
      </g>
     </g>
    </g>
    <g id="text_6">
     <!-- Influence of surprisal (multiplication) -->
     <g transform="translate(64.320625 202.316563)scale(0.1 -0.1)">
      <defs>
       <path id="DejaVuSans-49" d="M 628 4666 
L 1259 4666 
L 1259 0 
L 628 0 
L 628 4666 
z
" transform="scale(0.015625)"/>
       <path id="DejaVuSans-6e" d="M 3513 2113 
L 3513 0 
L 2938 0 
L 2938 2094 
Q 2938 2591 2744 2837 
Q 2550 3084 2163 3084 
Q 1697 3084 1428 2787 
Q 1159 2491 1159 1978 
L 1159 0 
L 581 0 
L 581 3500 
L 1159 3500 
L 1159 2956 
Q 1366 3272 1645 3428 
Q 1925 3584 2291 3584 
Q 2894 3584 3203 3211 
Q 3513 2838 3513 2113 
z
" transform="scale(0.015625)"/>
       <path id="DejaVuSans-66" d="M 2375 4863 
L 2375 4384 
L 1825 4384 
Q 1516 4384 1395 4259 
Q 1275 4134 1275 3809 
L 1275 3500 
L 2222 3500 
L 2222 3053 
L 1275 3053 
L 1275 0 
L 697 0 
L 697 3053 
L 147 3053 
L 147 3500 
L 697 3500 
L 697 3744 
Q 697 4328 969 4595 
Q 1241 4863 1831 4863 
L 2375 4863 
z
" transform="scale(0.015625)"/>
       <path id="DejaVuSans-6c" d="M 603 4863 
L 1178 4863 
L 1178 0 
L 603 0 
L 603 4863 
z
" transform="scale(0.015625)"/>
       <path id="DejaVuSans-75" d="M 544 1381 
L 544 3500 
L 1119 3500 
L 1119 1403 
Q 1119 906 1312 657 
Q 1506 409 1894 409 
Q 2359 409 2629 706 
Q 2900 1003 2900 1516 
L 2900 3500 
L 3475 3500 
L 3475 0 
L 2900 0 
L 2900 538 
Q 2691 219 2414 64 
Q 2138 -91 1772 -91 
Q 1169 -91 856 284 
Q 544 659 544 1381 
z
M 1991 3584 
L 1991 3584 
z
" transform="scale(0.015625)"/>
       <path id="DejaVuSans-65" d="M 3597 1894 
L 3597 1613 
L 953 1613 
Q 991 1019 1311 708 
Q 1631 397 2203 397 
Q 2534 397 2845 478 
Q 3156 559 3463 722 
L 3463 178 
Q 3153 47 2828 -22 
Q 2503 -91 2169 -91 
Q 1331 -91 842 396 
Q 353 884 353 1716 
Q 353 2575 817 3079 
Q 1281 3584 2069 3584 
Q 2775 3584 3186 3129 
Q 3597 2675 3597 1894 
z
M 3022 2063 
Q 3016 2534 2758 2815 
Q 2500 3097 2075 3097 
Q 1594 3097 1305 2825 
Q 1016 2553 972 2059 
L 3022 2063 
z
" transform="scale(0.015625)"/>
       <path id="DejaVuSans-63" d="M 3122 3366 
L 3122 2828 
Q 2878 2963 2633 3030 
Q 2388 3097 2138 3097 
Q 1578 3097 1268 2742 
Q 959 2388 959 1747 
Q 959 1106 1268 751 
Q 1578 397 2138 397 
Q 2388 397 2633 464 
Q 2878 531 3122 666 
L 3122 134 
Q 2881 22 2623 -34 
Q 2366 -91 2075 -91 
Q 1284 -91 818 406 
Q 353 903 353 1747 
Q 353 2603 823 3093 
Q 1294 3584 2113 3584 
Q 2378 3584 2631 3529 
Q 2884 3475 3122 3366 
z
" transform="scale(0.015625)"/>
       <path id="DejaVuSans-20" transform="scale(0.015625)"/>
       <path id="DejaVuSans-6f" d="M 1959 3097 
Q 1497 3097 1228 2736 
Q 959 2375 959 1747 
Q 959 1119 1226 758 
Q 1494 397 1959 397 
Q 2419 397 2687 759 
Q 2956 1122 2956 1747 
Q 2956 2369 2687 2733 
Q 2419 3097 1959 3097 
z
M 1959 3584 
Q 2709 3584 3137 3096 
Q 3566 2609 3566 1747 
Q 3566 888 3137 398 
Q 2709 -91 1959 -91 
Q 1206 -91 779 398 
Q 353 888 353 1747 
Q 353 2609 779 3096 
Q 1206 3584 1959 3584 
z
" transform="scale(0.015625)"/>
       <path id="DejaVuSans-73" d="M 2834 3397 
L 2834 2853 
Q 2591 2978 2328 3040 
Q 2066 3103 1784 3103 
Q 1356 3103 1142 2972 
Q 928 2841 928 2578 
Q 928 2378 1081 2264 
Q 1234 2150 1697 2047 
L 1894 2003 
Q 2506 1872 2764 1633 
Q 3022 1394 3022 966 
Q 3022 478 2636 193 
Q 2250 -91 1575 -91 
Q 1294 -91 989 -36 
Q 684 19 347 128 
L 347 722 
Q 666 556 975 473 
Q 1284 391 1588 391 
Q 1994 391 2212 530 
Q 2431 669 2431 922 
Q 2431 1156 2273 1281 
Q 2116 1406 1581 1522 
L 1381 1569 
Q 847 1681 609 1914 
Q 372 2147 372 2553 
Q 372 3047 722 3315 
Q 1072 3584 1716 3584 
Q 2034 3584 2315 3537 
Q 2597 3491 2834 3397 
z
" transform="scale(0.015625)"/>
       <path id="DejaVuSans-72" d="M 2631 2963 
Q 2534 3019 2420 3045 
Q 2306 3072 2169 3072 
Q 1681 3072 1420 2755 
Q 1159 2438 1159 1844 
L 1159 0 
L 581 0 
L 581 3500 
L 1159 3500 
L 1159 2956 
Q 1341 3275 1631 3429 
Q 1922 3584 2338 3584 
Q 2397 3584 2469 3576 
Q 2541 3569 2628 3553 
L 2631 2963 
z
" transform="scale(0.015625)"/>
       <path id="DejaVuSans-70" d="M 1159 525 
L 1159 -1331 
L 581 -1331 
L 581 3500 
L 1159 3500 
L 1159 2969 
Q 1341 3281 1617 3432 
Q 1894 3584 2278 3584 
Q 2916 3584 3314 3078 
Q 3713 2572 3713 1747 
Q 3713 922 3314 415 
Q 2916 -91 2278 -91 
Q 1894 -91 1617 61 
Q 1341 213 1159 525 
z
M 3116 1747 
Q 3116 2381 2855 2742 
Q 2594 3103 2138 3103 
Q 1681 3103 1420 2742 
Q 1159 2381 1159 1747 
Q 1159 1113 1420 752 
Q 1681 391 2138 391 
Q 2594 391 2855 752 
Q 3116 1113 3116 1747 
z
" transform="scale(0.015625)"/>
       <path id="DejaVuSans-69" d="M 603 3500 
L 1178 3500 
L 1178 0 
L 603 0 
L 603 3500 
z
M 603 4863 
L 1178 4863 
L 1178 4134 
L 603 4134 
L 603 4863 
z
" transform="scale(0.015625)"/>
       <path id="DejaVuSans-61" d="M 2194 1759 
Q 1497 1759 1228 1600 
Q 959 1441 959 1056 
Q 959 750 1161 570 
Q 1363 391 1709 391 
Q 2188 391 2477 730 
Q 2766 1069 2766 1631 
L 2766 1759 
L 2194 1759 
z
M 3341 1997 
L 3341 0 
L 2766 0 
L 2766 531 
Q 2569 213 2275 61 
Q 1981 -91 1556 -91 
Q 1019 -91 701 211 
Q 384 513 384 1019 
Q 384 1609 779 1909 
Q 1175 2209 1959 2209 
L 2766 2209 
L 2766 2266 
Q 2766 2663 2505 2880 
Q 2244 3097 1772 3097 
Q 1472 3097 1187 3025 
Q 903 2953 641 2809 
L 641 3341 
Q 956 3463 1253 3523 
Q 1550 3584 1831 3584 
Q 2591 3584 2966 3190 
Q 3341 2797 3341 1997 
z
" transform="scale(0.015625)"/>
       <path id="DejaVuSans-28" d="M 1984 4856 
Q 1566 4138 1362 3434 
Q 1159 2731 1159 2009 
Q 1159 1288 1364 580 
Q 1569 -128 1984 -844 
L 1484 -844 
Q 1016 -109 783 600 
Q 550 1309 550 2009 
Q 550 2706 781 3412 
Q 1013 4119 1484 4856 
L 1984 4856 
z
" transform="scale(0.015625)"/>
       <path id="DejaVuSans-6d" d="M 3328 2828 
Q 3544 3216 3844 3400 
Q 4144 3584 4550 3584 
Q 5097 3584 5394 3201 
Q 5691 2819 5691 2113 
L 5691 0 
L 5113 0 
L 5113 2094 
Q 5113 2597 4934 2840 
Q 4756 3084 4391 3084 
Q 3944 3084 3684 2787 
Q 3425 2491 3425 1978 
L 3425 0 
L 2847 0 
L 2847 2094 
Q 2847 2600 2669 2842 
Q 2491 3084 2119 3084 
Q 1678 3084 1418 2786 
Q 1159 2488 1159 1978 
L 1159 0 
L 581 0 
L 581 3500 
L 1159 3500 
L 1159 2956 
Q 1356 3278 1631 3431 
Q 1906 3584 2284 3584 
Q 2666 3584 2933 3390 
Q 3200 3197 3328 2828 
z
" transform="scale(0.015625)"/>
       <path id="DejaVuSans-74" d="M 1172 4494 
L 1172 3500 
L 2356 3500 
L 2356 3053 
L 1172 3053 
L 1172 1153 
Q 1172 725 1289 603 
Q 1406 481 1766 481 
L 2356 481 
L 2356 0 
L 1766 0 
Q 1100 0 847 248 
Q 594 497 594 1153 
L 594 3053 
L 172 3053 
L 172 3500 
L 594 3500 
L 594 4494 
L 1172 4494 
z
" transform="scale(0.015625)"/>
       <path id="DejaVuSans-29" d="M 513 4856 
L 1013 4856 
Q 1481 4119 1714 3412 
Q 1947 2706 1947 2009 
Q 1947 1309 1714 600 
Q 1481 -109 1013 -844 
L 513 -844 
Q 928 -128 1133 580 
Q 1338 1288 1338 2009 
Q 1338 2731 1133 3434 
Q 928 4138 513 4856 
z
" transform="scale(0.015625)"/>
      </defs>
      <use xlink:href="#DejaVuSans-49"/>
      <use xlink:href="#DejaVuSans-6e" x="29.492188"/>
      <use xlink:href="#DejaVuSans-66" x="92.871094"/>
      <use xlink:href="#DejaVuSans-6c" x="128.076172"/>
      <use xlink:href="#DejaVuSans-75" x="155.859375"/>
      <use xlink:href="#DejaVuSans-65" x="219.238281"/>
      <use xlink:href="#DejaVuSans-6e" x="280.761719"/>
      <use xlink:href="#DejaVuSans-63" x="344.140625"/>
      <use xlink:href="#DejaVuSans-65" x="399.121094"/>
      <use xlink:href="#DejaVuSans-20" x="460.644531"/>
      <use xlink:href="#DejaVuSans-6f" x="492.431641"/>
      <use xlink:href="#DejaVuSans-66" x="553.613281"/>
      <use xlink:href="#DejaVuSans-20" x="588.818359"/>
      <use xlink:href="#DejaVuSans-73" x="620.605469"/>
      <use xlink:href="#DejaVuSans-75" x="672.705078"/>
      <use xlink:href="#DejaVuSans-72" x="736.083984"/>
      <use xlink:href="#DejaVuSans-70" x="777.197266"/>
      <use xlink:href="#DejaVuSans-72" x="840.673828"/>
      <use xlink:href="#DejaVuSans-69" x="881.787109"/>
      <use xlink:href="#DejaVuSans-73" x="909.570312"/>
      <use xlink:href="#DejaVuSans-61" x="961.669922"/>
      <use xlink:href="#DejaVuSans-6c" x="1022.949219"/>
      <use xlink:href="#DejaVuSans-20" x="1050.732422"/>
      <use xlink:href="#DejaVuSans-28" x="1082.519531"/>
      <use xlink:href="#DejaVuSans-6d" x="1121.533203"/>
      <use xlink:href="#DejaVuSans-75" x="1218.945312"/>
      <use xlink:href="#DejaVuSans-6c" x="1282.324219"/>
      <use xlink:href="#DejaVuSans-74" x="1310.107422"/>
      <use xlink:href="#DejaVuSans-69" x="1349.316406"/>
      <use xlink:href="#DejaVuSans-70" x="1377.099609"/>
      <use xlink:href="#DejaVuSans-6c" x="1440.576172"/>
      <use xlink:href="#DejaVuSans-69" x="1468.359375"/>
      <use xlink:href="#DejaVuSans-63" x="1496.142578"/>
      <use xlink:href="#DejaVuSans-61" x="1551.123047"/>
      <use xlink:href="#DejaVuSans-74" x="1612.402344"/>
      <use xlink:href="#DejaVuSans-69" x="1651.611328"/>
      <use xlink:href="#DejaVuSans-6f" x="1679.394531"/>
      <use xlink:href="#DejaVuSans-6e" x="1740.576172"/>
      <use xlink:href="#DejaVuSans-29" x="1803.955078"/>
     </g>
    </g>
   </g>
   <g id="matplotlib.axis_2">
    <g id="ytick_1">
     <g id="line2d_6">
      <defs>
       <path id="mc5a7c2bb00" d="M 0 0 
L -3.5 0 
" style="stroke: #000000; stroke-width: 0.8"/>
      </defs>
      <g>
       <use xlink:href="#mc5a7c2bb00" x="47.72" y="153.336257" style="stroke: #000000; stroke-width: 0.8"/>
      </g>
     </g>
     <g id="text_7">
      <!-- 0.2 -->
      <g transform="translate(24.816875 157.135476)scale(0.1 -0.1)">
       <use xlink:href="#DejaVuSans-30"/>
       <use xlink:href="#DejaVuSans-2e" x="63.623047"/>
       <use xlink:href="#DejaVuSans-32" x="95.410156"/>
      </g>
     </g>
    </g>
    <g id="ytick_2">
     <g id="line2d_7">
      <g>
       <use xlink:href="#mc5a7c2bb00" x="47.72" y="123.394465" style="stroke: #000000; stroke-width: 0.8"/>
      </g>
     </g>
     <g id="text_8">
      <!-- 0.4 -->
      <g transform="translate(24.816875 127.193684)scale(0.1 -0.1)">
       <defs>
        <path id="DejaVuSans-34" d="M 2419 4116 
L 825 1625 
L 2419 1625 
L 2419 4116 
z
M 2253 4666 
L 3047 4666 
L 3047 1625 
L 3713 1625 
L 3713 1100 
L 3047 1100 
L 3047 0 
L 2419 0 
L 2419 1100 
L 313 1100 
L 313 1709 
L 2253 4666 
z
" transform="scale(0.015625)"/>
       </defs>
       <use xlink:href="#DejaVuSans-30"/>
       <use xlink:href="#DejaVuSans-2e" x="63.623047"/>
       <use xlink:href="#DejaVuSans-34" x="95.410156"/>
      </g>
     </g>
    </g>
    <g id="ytick_3">
     <g id="line2d_8">
      <g>
       <use xlink:href="#mc5a7c2bb00" x="47.72" y="93.452674" style="stroke: #000000; stroke-width: 0.8"/>
      </g>
     </g>
     <g id="text_9">
      <!-- 0.6 -->
      <g transform="translate(24.816875 97.251893)scale(0.1 -0.1)">
       <defs>
        <path id="DejaVuSans-36" d="M 2113 2584 
Q 1688 2584 1439 2293 
Q 1191 2003 1191 1497 
Q 1191 994 1439 701 
Q 1688 409 2113 409 
Q 2538 409 2786 701 
Q 3034 994 3034 1497 
Q 3034 2003 2786 2293 
Q 2538 2584 2113 2584 
z
M 3366 4563 
L 3366 3988 
Q 3128 4100 2886 4159 
Q 2644 4219 2406 4219 
Q 1781 4219 1451 3797 
Q 1122 3375 1075 2522 
Q 1259 2794 1537 2939 
Q 1816 3084 2150 3084 
Q 2853 3084 3261 2657 
Q 3669 2231 3669 1497 
Q 3669 778 3244 343 
Q 2819 -91 2113 -91 
Q 1303 -91 875 529 
Q 447 1150 447 2328 
Q 447 3434 972 4092 
Q 1497 4750 2381 4750 
Q 2619 4750 2861 4703 
Q 3103 4656 3366 4563 
z
" transform="scale(0.015625)"/>
       </defs>
       <use xlink:href="#DejaVuSans-30"/>
       <use xlink:href="#DejaVuSans-2e" x="63.623047"/>
       <use xlink:href="#DejaVuSans-36" x="95.410156"/>
      </g>
     </g>
    </g>
    <g id="ytick_4">
     <g id="line2d_9">
      <g>
       <use xlink:href="#mc5a7c2bb00" x="47.72" y="63.510882" style="stroke: #000000; stroke-width: 0.8"/>
      </g>
     </g>
     <g id="text_10">
      <!-- 0.8 -->
      <g transform="translate(24.816875 67.310101)scale(0.1 -0.1)">
       <defs>
        <path id="DejaVuSans-38" d="M 2034 2216 
Q 1584 2216 1326 1975 
Q 1069 1734 1069 1313 
Q 1069 891 1326 650 
Q 1584 409 2034 409 
Q 2484 409 2743 651 
Q 3003 894 3003 1313 
Q 3003 1734 2745 1975 
Q 2488 2216 2034 2216 
z
M 1403 2484 
Q 997 2584 770 2862 
Q 544 3141 544 3541 
Q 544 4100 942 4425 
Q 1341 4750 2034 4750 
Q 2731 4750 3128 4425 
Q 3525 4100 3525 3541 
Q 3525 3141 3298 2862 
Q 3072 2584 2669 2484 
Q 3125 2378 3379 2068 
Q 3634 1759 3634 1313 
Q 3634 634 3220 271 
Q 2806 -91 2034 -91 
Q 1263 -91 848 271 
Q 434 634 434 1313 
Q 434 1759 690 2068 
Q 947 2378 1403 2484 
z
M 1172 3481 
Q 1172 3119 1398 2916 
Q 1625 2713 2034 2713 
Q 2441 2713 2670 2916 
Q 2900 3119 2900 3481 
Q 2900 3844 2670 4047 
Q 2441 4250 2034 4250 
Q 1625 4250 1398 4047 
Q 1172 3844 1172 3481 
z
" transform="scale(0.015625)"/>
       </defs>
       <use xlink:href="#DejaVuSans-30"/>
       <use xlink:href="#DejaVuSans-2e" x="63.623047"/>
       <use xlink:href="#DejaVuSans-38" x="95.410156"/>
      </g>
     </g>
    </g>
    <g id="ytick_5">
     <g id="line2d_10">
      <g>
       <use xlink:href="#mc5a7c2bb00" x="47.72" y="33.569091" style="stroke: #000000; stroke-width: 0.8"/>
      </g>
     </g>
     <g id="text_11">
      <!-- 1.0 -->
      <g transform="translate(24.816875 37.36831)scale(0.1 -0.1)">
       <use xlink:href="#DejaVuSans-31"/>
       <use xlink:href="#DejaVuSans-2e" x="63.623047"/>
       <use xlink:href="#DejaVuSans-30" x="95.410156"/>
      </g>
     </g>
    </g>
    <g id="text_12">
     <!-- R-value -->
     <g transform="translate(18.737188 119.064687)rotate(-90)scale(0.1 -0.1)">
      <defs>
       <path id="DejaVuSans-52" d="M 2841 2188 
Q 3044 2119 3236 1894 
Q 3428 1669 3622 1275 
L 4263 0 
L 3584 0 
L 2988 1197 
Q 2756 1666 2539 1819 
Q 2322 1972 1947 1972 
L 1259 1972 
L 1259 0 
L 628 0 
L 628 4666 
L 2053 4666 
Q 2853 4666 3247 4331 
Q 3641 3997 3641 3322 
Q 3641 2881 3436 2590 
Q 3231 2300 2841 2188 
z
M 1259 4147 
L 1259 2491 
L 2053 2491 
Q 2509 2491 2742 2702 
Q 2975 2913 2975 3322 
Q 2975 3731 2742 3939 
Q 2509 4147 2053 4147 
L 1259 4147 
z
" transform="scale(0.015625)"/>
       <path id="DejaVuSans-2d" d="M 313 2009 
L 1997 2009 
L 1997 1497 
L 313 1497 
L 313 2009 
z
" transform="scale(0.015625)"/>
       <path id="DejaVuSans-76" d="M 191 3500 
L 800 3500 
L 1894 563 
L 2988 3500 
L 3597 3500 
L 2284 0 
L 1503 0 
L 191 3500 
z
" transform="scale(0.015625)"/>
      </defs>
      <use xlink:href="#DejaVuSans-52"/>
      <use xlink:href="#DejaVuSans-2d" x="65.482422"/>
      <use xlink:href="#DejaVuSans-76" x="98.941406"/>
      <use xlink:href="#DejaVuSans-61" x="158.121094"/>
      <use xlink:href="#DejaVuSans-6c" x="219.400391"/>
      <use xlink:href="#DejaVuSans-75" x="247.183594"/>
      <use xlink:href="#DejaVuSans-65" x="310.5625"/>
     </g>
    </g>
   </g>
   <g id="line2d_11">
    <path d="M 47.72 33.569091 
L 59.167105 35.685291 
L 70.614211 41.683429 
L 82.061316 49.129268 
L 93.508421 57.313096 
L 104.955526 66.830037 
L 116.402632 75.958311 
L 127.849737 85.215504 
L 139.296842 94.232685 
L 150.743947 102.014926 
L 162.191053 109.946734 
L 173.638158 116.597002 
L 185.085263 122.761691 
L 196.532368 128.265026 
L 207.979474 132.882196 
L 219.426579 137.155719 
L 230.873684 140.950017 
L 242.320789 144.426949 
L 253.767895 147.735404 
L 265.215 150.595045 
" clip-path="url(#p7aa3ec7349)" style="fill: none; stroke: #1f77b4; stroke-width: 1.5; stroke-linecap: square"/>
   </g>
   <g id="line2d_12">
    <path d="M 47.72 33.56924 
L 59.167105 34.905242 
L 70.614211 38.307021 
L 82.061316 43.174324 
L 93.508421 49.319115 
L 104.955526 56.670921 
L 116.402632 64.17065 
L 127.849737 71.899507 
L 139.296842 79.951428 
L 150.743947 87.358874 
L 162.191053 95.396034 
L 173.638158 102.516641 
L 185.085263 109.254211 
L 196.532368 115.540895 
L 207.979474 120.842792 
L 219.426579 125.969558 
L 230.873684 130.381962 
L 242.320789 134.643034 
L 253.767895 138.70081 
L 265.215 142.241493 
" clip-path="url(#p7aa3ec7349)" style="fill: none; stroke: #ff7f0e; stroke-width: 1.5; stroke-linecap: square"/>
   </g>
   <g id="line2d_13">
    <path d="M 47.72 33.569091 
L 59.167105 35.195069 
L 70.614211 38.172619 
L 82.061316 41.711665 
L 93.508421 45.375615 
L 104.955526 49.556642 
L 116.402632 53.701454 
L 127.849737 58.082838 
L 139.296842 62.481265 
L 150.743947 66.960951 
L 162.191053 71.604616 
L 173.638158 75.976142 
L 185.085263 80.666345 
L 196.532368 85.11927 
L 207.979474 89.112859 
L 219.426579 93.604792 
L 230.873684 97.410565 
L 242.320789 101.55952 
L 253.767895 105.503514 
L 265.215 109.501453 
" clip-path="url(#p7aa3ec7349)" style="fill: none; stroke: #2ca02c; stroke-width: 1.5; stroke-linecap: square"/>
   </g>
   <g id="line2d_14">
    <path d="M 47.72 33.569888 
L 59.167105 34.832479 
L 70.614211 37.14856 
L 82.061316 40.15672 
L 93.508421 43.658192 
L 104.955526 47.739956 
L 116.402632 51.978552 
L 127.849737 56.440058 
L 139.296842 60.942869 
L 150.743947 65.513643 
L 162.191053 70.401787 
L 173.638158 74.890085 
L 185.085263 79.686167 
L 196.532368 84.112988 
L 207.979474 88.100337 
L 219.426579 92.496131 
L 230.873684 96.182167 
L 242.320789 100.167292 
L 253.767895 103.882955 
L 265.215 107.708679 
" clip-path="url(#p7aa3ec7349)" style="fill: none; stroke: #d62728; stroke-width: 1.5; stroke-linecap: square"/>
   </g>
   <g id="line2d_15">
    <path d="M 47.72 33.569091 
L 59.167105 35.681691 
L 70.614211 41.676868 
L 82.061316 49.127578 
L 93.508421 57.340149 
L 104.955526 66.948894 
L 116.402632 75.984975 
L 127.849737 85.119415 
L 139.296842 94.062923 
L 150.743947 102.030601 
L 162.191053 109.969935 
L 173.638158 116.962464 
L 185.085263 122.806209 
L 196.532368 128.817855 
L 207.979474 133.345092 
L 219.426579 137.516507 
L 230.873684 141.035896 
L 242.320789 144.446009 
L 253.767895 148.021809 
L 265.215 151.083553 
" clip-path="url(#p7aa3ec7349)" style="fill: none; stroke: #9467bd; stroke-width: 1.5; stroke-linecap: square"/>
   </g>
   <g id="line2d_16">
    <path d="M 47.72 33.569685 
L 59.167105 34.903656 
L 70.614211 38.311452 
L 82.061316 43.195032 
L 93.508421 49.316076 
L 104.955526 56.668324 
L 116.402632 64.19044 
L 127.849737 71.85369 
L 139.296842 79.871362 
L 150.743947 87.418184 
L 162.191053 95.399475 
L 173.638158 102.77146 
L 185.085263 109.273027 
L 196.532368 115.954065 
L 207.979474 121.253088 
L 219.426579 126.276894 
L 230.873684 130.459137 
L 242.320789 134.714647 
L 253.767895 138.99755 
L 265.215 142.73242 
" clip-path="url(#p7aa3ec7349)" style="fill: none; stroke: #8c564b; stroke-width: 1.5; stroke-linecap: square"/>
   </g>
   <g id="line2d_17">
    <path d="M 47.72 46.496755 
L 59.167105 49.521655 
L 70.614211 57.228341 
L 82.061316 66.918079 
L 93.508421 76.459203 
L 104.955526 86.165221 
L 116.402632 95.46701 
L 127.849737 104.35049 
L 139.296842 113.503872 
L 150.743947 120.865256 
L 162.191053 128.197578 
L 173.638158 134.204812 
L 185.085263 139.521414 
L 196.532368 144.245001 
L 207.979474 148.255517 
L 219.426579 151.669125 
L 230.873684 154.870492 
L 242.320789 157.640801 
L 253.767895 160.063635 
L 265.215 162.159171 
" clip-path="url(#p7aa3ec7349)" style="fill: none; stroke: #e377c2; stroke-width: 1.5; stroke-linecap: square"/>
   </g>
   <g id="line2d_18">
    <path d="M 47.72 33.569421 
L 59.167105 34.171128 
L 70.614211 35.198696 
L 82.061316 38.051619 
L 93.508421 42.631459 
L 104.955526 48.615876 
L 116.402632 54.796251 
L 127.849737 61.455463 
L 139.296842 68.71641 
L 150.743947 76.093194 
L 162.191053 84.288675 
L 173.638158 91.744036 
L 185.085263 98.997603 
L 196.532368 105.895633 
L 207.979474 111.858624 
L 219.426579 117.616975 
L 230.873684 122.613593 
L 242.320789 127.583346 
L 253.767895 132.208071 
L 265.215 136.289467 
" clip-path="url(#p7aa3ec7349)" style="fill: none; stroke: #7f7f7f; stroke-width: 1.5; stroke-linecap: square"/>
   </g>
   <g id="patch_3">
    <path d="M 47.72 174.04 
L 47.72 26.88 
" style="fill: none; stroke: #000000; stroke-width: 0.8; stroke-linejoin: miter; stroke-linecap: square"/>
   </g>
   <g id="patch_4">
    <path d="M 47.72 174.04 
L 265.215 174.04 
" style="fill: none; stroke: #000000; stroke-width: 0.8; stroke-linejoin: miter; stroke-linecap: square"/>
   </g>
   <g id="text_13">
    <!-- Node * surprisal -->
    <g transform="translate(108.18625 20.88)scale(0.12 -0.12)">
     <defs>
      <path id="DejaVuSans-4e" d="M 628 4666 
L 1478 4666 
L 3547 763 
L 3547 4666 
L 4159 4666 
L 4159 0 
L 3309 0 
L 1241 3903 
L 1241 0 
L 628 0 
L 628 4666 
z
" transform="scale(0.015625)"/>
      <path id="DejaVuSans-64" d="M 2906 2969 
L 2906 4863 
L 3481 4863 
L 3481 0 
L 2906 0 
L 2906 525 
Q 2725 213 2448 61 
Q 2172 -91 1784 -91 
Q 1150 -91 751 415 
Q 353 922 353 1747 
Q 353 2572 751 3078 
Q 1150 3584 1784 3584 
Q 2172 3584 2448 3432 
Q 2725 3281 2906 2969 
z
M 947 1747 
Q 947 1113 1208 752 
Q 1469 391 1925 391 
Q 2381 391 2643 752 
Q 2906 1113 2906 1747 
Q 2906 2381 2643 2742 
Q 2381 3103 1925 3103 
Q 1469 3103 1208 2742 
Q 947 2381 947 1747 
z
" transform="scale(0.015625)"/>
      <path id="DejaVuSans-2a" d="M 3009 3897 
L 1888 3291 
L 3009 2681 
L 2828 2375 
L 1778 3009 
L 1778 1831 
L 1422 1831 
L 1422 3009 
L 372 2375 
L 191 2681 
L 1313 3291 
L 191 3897 
L 372 4206 
L 1422 3572 
L 1422 4750 
L 1778 4750 
L 1778 3572 
L 2828 4206 
L 3009 3897 
z
" transform="scale(0.015625)"/>
     </defs>
     <use xlink:href="#DejaVuSans-4e"/>
     <use xlink:href="#DejaVuSans-6f" x="74.804688"/>
     <use xlink:href="#DejaVuSans-64" x="135.986328"/>
     <use xlink:href="#DejaVuSans-65" x="199.462891"/>
     <use xlink:href="#DejaVuSans-20" x="260.986328"/>
     <use xlink:href="#DejaVuSans-2a" x="292.773438"/>
     <use xlink:href="#DejaVuSans-20" x="342.773438"/>
     <use xlink:href="#DejaVuSans-73" x="374.560547"/>
     <use xlink:href="#DejaVuSans-75" x="426.660156"/>
     <use xlink:href="#DejaVuSans-72" x="490.039062"/>
     <use xlink:href="#DejaVuSans-70" x="531.152344"/>
     <use xlink:href="#DejaVuSans-72" x="594.628906"/>
     <use xlink:href="#DejaVuSans-69" x="635.742188"/>
     <use xlink:href="#DejaVuSans-73" x="663.525391"/>
     <use xlink:href="#DejaVuSans-61" x="715.625"/>
     <use xlink:href="#DejaVuSans-6c" x="776.904297"/>
    </g>
   </g>
  </g>
  <g id="axes_2">
   <g id="patch_5">
    <path d="M 298.065 174.04 
L 515.56 174.04 
L 515.56 26.88 
L 298.065 26.88 
z
" style="fill: #ffffff"/>
   </g>
   <g id="PolyCollection_9">
    <path d="M 298.065 33.569091 
L 298.065 33.569091 
L 309.512105 35.837314 
L 320.959211 42.094351 
L 332.406316 50.635443 
L 343.853421 61.641789 
L 355.300526 72.037018 
L 366.747632 83.112577 
L 378.194737 93.648161 
L 389.641842 102.962909 
L 401.088947 111.343749 
L 412.536053 118.285626 
L 423.983158 125.550694 
L 435.430263 131.291933 
L 446.877368 136.856304 
L 458.324474 140.982066 
L 469.771579 145.110586 
L 481.218684 149.255517 
L 492.665789 152.393695 
L 504.112895 155.042222 
L 515.56 158.189801 
L 515.56 147.911228 
L 515.56 147.911228 
L 504.112895 145.597789 
L 492.665789 142.808251 
L 481.218684 139.739865 
L 469.771579 135.737769 
L 458.324474 131.301896 
L 446.877368 126.128737 
L 435.430263 121.37206 
L 423.983158 115.521625 
L 412.536053 108.84952 
L 401.088947 101.639138 
L 389.641842 93.689124 
L 378.194737 85.352351 
L 366.747632 76.11258 
L 355.300526 66.125425 
L 343.853421 57.321475 
L 332.406316 48.21466 
L 320.959211 40.834353 
L 309.512105 35.461865 
L 298.065 33.569091 
z
" clip-path="url(#pf447b94bde)" style="fill: #1f77b4; fill-opacity: 0.4"/>
   </g>
   <g id="PolyCollection_10">
    <path d="M 298.065 33.569207 
L 298.065 33.569273 
L 309.512105 35.842535 
L 320.959211 42.127807 
L 332.406316 50.708732 
L 343.853421 61.73317 
L 355.300526 72.140101 
L 366.747632 83.233986 
L 378.194737 93.780195 
L 389.641842 103.158951 
L 401.088947 111.570984 
L 412.536053 118.481655 
L 423.983158 125.8002 
L 435.430263 131.614194 
L 446.877368 137.196054 
L 458.324474 141.251888 
L 469.771579 145.325659 
L 481.218684 149.468095 
L 492.665789 152.584255 
L 504.112895 155.16594 
L 515.56 158.482993 
L 515.56 148.446143 
L 515.56 148.446143 
L 504.112895 146.137678 
L 492.665789 143.319903 
L 481.218684 140.250861 
L 469.771579 136.163831 
L 458.324474 131.710457 
L 446.877368 126.501395 
L 435.430263 121.640102 
L 423.983158 115.767152 
L 412.536053 109.032705 
L 401.088947 101.729112 
L 389.641842 93.70218 
L 378.194737 85.352545 
L 366.747632 76.119547 
L 355.300526 66.120087 
L 343.853421 57.313862 
L 332.406316 48.198219 
L 320.959211 40.828438 
L 309.512105 35.462094 
L 298.065 33.569207 
z
" clip-path="url(#pf447b94bde)" style="fill: #ff7f0e; fill-opacity: 0.4"/>
   </g>
   <g id="PolyCollection_11">
    <path d="M 298.065 33.569091 
L 298.065 33.569091 
L 309.512105 35.837263 
L 320.959211 42.098178 
L 332.406316 50.657693 
L 343.853421 61.640868 
L 355.300526 72.042241 
L 366.747632 83.114253 
L 378.194737 93.692123 
L 389.641842 103.152725 
L 401.088947 111.595583 
L 412.536053 118.519732 
L 423.983158 125.914612 
L 435.430263 131.750185 
L 446.877368 137.386588 
L 458.324474 141.639068 
L 469.771579 145.649789 
L 481.218684 149.824274 
L 492.665789 152.736853 
L 504.112895 155.095852 
L 515.56 158.395563 
L 515.56 148.936616 
L 515.56 148.936616 
L 504.112895 146.340935 
L 492.665789 143.5095 
L 481.218684 140.108782 
L 469.771579 136.032109 
L 458.324474 131.466096 
L 446.877368 126.328935 
L 435.430263 121.491637 
L 423.983158 115.663095 
L 412.536053 108.924336 
L 401.088947 101.681772 
L 389.641842 93.660281 
L 378.194737 85.327697 
L 366.747632 76.072461 
L 355.300526 66.075916 
L 343.853421 57.273652 
L 332.406316 48.189777 
L 320.959211 40.813892 
L 309.512105 35.463997 
L 298.065 33.569091 
z
" clip-path="url(#pf447b94bde)" style="fill: #2ca02c; fill-opacity: 0.4"/>
   </g>
   <g id="PolyCollection_12">
    <path d="M 298.065 33.569677 
L 298.065 33.570099 
L 309.512105 35.842131 
L 320.959211 42.130369 
L 332.406316 50.696392 
L 343.853421 61.678162 
L 355.300526 72.083787 
L 366.747632 83.159997 
L 378.194737 93.727844 
L 389.641842 103.204176 
L 401.088947 111.658284 
L 412.536053 118.554132 
L 423.983158 125.952587 
L 435.430263 131.776924 
L 446.877368 137.397286 
L 458.324474 141.598801 
L 469.771579 145.613476 
L 481.218684 149.750173 
L 492.665789 152.772629 
L 504.112895 155.195495 
L 515.56 158.552417 
L 515.56 148.95712 
L 515.56 148.95712 
L 504.112895 146.492843 
L 492.665789 143.625945 
L 481.218684 140.282471 
L 469.771579 136.152688 
L 458.324474 131.615152 
L 446.877368 126.432166 
L 435.430263 121.576582 
L 423.983158 115.725865 
L 412.536053 108.982955 
L 401.088947 101.700975 
L 389.641842 93.658229 
L 378.194737 85.33708 
L 366.747632 76.087213 
L 355.300526 66.097446 
L 343.853421 57.278339 
L 332.406316 48.189352 
L 320.959211 40.805263 
L 309.512105 35.464758 
L 298.065 33.569677 
z
" clip-path="url(#pf447b94bde)" style="fill: #d62728; fill-opacity: 0.4"/>
   </g>
   <g id="PolyCollection_13">
    <path d="M 298.065 33.569091 
L 298.065 33.569092 
L 309.512105 35.840252 
L 320.959211 42.139576 
L 332.406316 50.679896 
L 343.853421 61.653535 
L 355.300526 72.218535 
L 366.747632 82.971235 
L 378.194737 93.615412 
L 389.641842 102.913726 
L 401.088947 111.254908 
L 412.536053 118.522114 
L 423.983158 125.304261 
L 435.430263 131.703538 
L 446.877368 137.046685 
L 458.324474 141.837209 
L 469.771579 145.476183 
L 481.218684 149.17548 
L 492.665789 152.609106 
L 504.112895 155.558262 
L 515.56 158.774653 
L 515.56 148.324231 
L 515.56 148.324231 
L 504.112895 146.444894 
L 492.665789 143.96215 
L 481.218684 140.616081 
L 469.771579 135.198202 
L 458.324474 131.725552 
L 446.877368 125.864708 
L 435.430263 121.772802 
L 423.983158 115.216457 
L 412.536053 108.853756 
L 401.088947 101.955812 
L 389.641842 93.775851 
L 378.194737 85.265353 
L 366.747632 76.069822 
L 355.300526 66.119742 
L 343.853421 57.36285 
L 332.406316 48.234717 
L 320.959211 40.858914 
L 309.512105 35.472748 
L 298.065 33.569091 
z
" clip-path="url(#pf447b94bde)" style="fill: #9467bd; fill-opacity: 0.4"/>
   </g>
   <g id="PolyCollection_14">
    <path d="M 298.065 33.569554 
L 298.065 33.569821 
L 309.512105 35.845702 
L 320.959211 42.171796 
L 332.406316 50.750783 
L 343.853421 61.732797 
L 355.300526 72.3074 
L 366.747632 83.094553 
L 378.194737 93.743932 
L 389.641842 103.098682 
L 401.088947 111.47973 
L 412.536053 118.723621 
L 423.983158 125.557077 
L 435.430263 131.986841 
L 446.877368 137.343673 
L 458.324474 142.051044 
L 469.771579 145.651202 
L 481.218684 149.399345 
L 492.665789 152.852589 
L 504.112895 155.778573 
L 515.56 159.013068 
L 515.56 148.845347 
L 515.56 148.845347 
L 504.112895 146.842583 
L 492.665789 144.381563 
L 481.218684 141.154053 
L 469.771579 135.621741 
L 458.324474 132.16834 
L 446.877368 126.223317 
L 435.430263 122.03437 
L 423.983158 115.453354 
L 412.536053 109.024416 
L 401.088947 102.029056 
L 389.641842 93.786111 
L 378.194737 85.263956 
L 366.747632 76.083163 
L 355.300526 66.114145 
L 343.853421 57.355136 
L 332.406316 48.217925 
L 320.959211 40.854767 
L 309.512105 35.473055 
L 298.065 33.569554 
z
" clip-path="url(#pf447b94bde)" style="fill: #8c564b; fill-opacity: 0.4"/>
   </g>
   <g id="PolyCollection_15">
    <path d="M 298.065 43.641155 
L 298.065 49.352355 
L 309.512105 51.324455 
L 320.959211 57.069261 
L 332.406316 65.014442 
L 343.853421 75.210252 
L 355.300526 84.347245 
L 366.747632 93.937519 
L 378.194737 102.973656 
L 389.641842 110.54875 
L 401.088947 117.463503 
L 412.536053 123.586476 
L 423.983158 130.168483 
L 435.430263 135.536029 
L 446.877368 140.743817 
L 458.324474 144.809625 
L 469.771579 148.867401 
L 481.218684 152.806222 
L 492.665789 155.976683 
L 504.112895 158.483135 
L 515.56 161.233017 
L 515.56 150.161222 
L 515.56 150.161222 
L 504.112895 147.427969 
L 492.665789 144.870727 
L 481.218684 141.841551 
L 469.771579 138.445559 
L 458.324474 134.507341 
L 446.877368 130.218038 
L 435.430263 126.253842 
L 423.983158 121.361327 
L 412.536053 115.889269 
L 401.088947 109.319939 
L 389.641842 102.007227 
L 378.194737 93.931642 
L 366.747632 85.164329 
L 355.300526 75.248322 
L 343.853421 66.893455 
L 332.406316 57.872415 
L 320.959211 50.744214 
L 309.512105 45.524875 
L 298.065 43.641155 
z
" clip-path="url(#pf447b94bde)" style="fill: #e377c2; fill-opacity: 0.4"/>
   </g>
   <g id="PolyCollection_16">
    <path d="M 298.065 33.569344 
L 298.065 33.569497 
L 309.512105 35.844118 
L 320.959211 42.125407 
L 332.406316 50.636803 
L 343.853421 61.71335 
L 355.300526 72.177791 
L 366.747632 83.299446 
L 378.194737 93.936994 
L 389.641842 103.424538 
L 401.088947 111.870081 
L 412.536053 118.72287 
L 423.983158 126.175706 
L 435.430263 131.940543 
L 446.877368 137.54817 
L 458.324474 141.400686 
L 469.771579 145.425107 
L 481.218684 149.511038 
L 492.665789 152.641057 
L 504.112895 155.292356 
L 515.56 158.557379 
L 515.56 149.297333 
L 515.56 149.297333 
L 504.112895 146.931627 
L 492.665789 144.18898 
L 481.218684 141.132433 
L 469.771579 137.045894 
L 458.324474 132.461595 
L 446.877368 127.102172 
L 435.430263 122.094989 
L 423.983158 116.21087 
L 412.536053 109.489547 
L 401.088947 102.031784 
L 389.641842 93.950293 
L 378.194737 85.473491 
L 366.747632 76.231108 
L 355.300526 66.15295 
L 343.853421 57.328441 
L 332.406316 48.232461 
L 320.959211 40.831339 
L 309.512105 35.461236 
L 298.065 33.569344 
z
" clip-path="url(#pf447b94bde)" style="fill: #7f7f7f; fill-opacity: 0.4"/>
   </g>
   <g id="matplotlib.axis_3">
    <g id="xtick_6">
     <g id="line2d_19">
      <g>
       <use xlink:href="#mcab418c9de" x="298.065" y="174.04" style="stroke: #000000; stroke-width: 0.8"/>
      </g>
     </g>
     <g id="text_14">
      <!-- 0.0 -->
      <g transform="translate(290.113437 188.638438)scale(0.1 -0.1)">
       <use xlink:href="#DejaVuSans-30"/>
       <use xlink:href="#DejaVuSans-2e" x="63.623047"/>
       <use xlink:href="#DejaVuSans-30" x="95.410156"/>
      </g>
     </g>
    </g>
    <g id="xtick_7">
     <g id="line2d_20">
      <g>
       <use xlink:href="#mcab418c9de" x="352.43875" y="174.04" style="stroke: #000000; stroke-width: 0.8"/>
      </g>
     </g>
     <g id="text_15">
      <!-- 0.5 -->
      <g transform="translate(344.487187 188.638438)scale(0.1 -0.1)">
       <use xlink:href="#DejaVuSans-30"/>
       <use xlink:href="#DejaVuSans-2e" x="63.623047"/>
       <use xlink:href="#DejaVuSans-35" x="95.410156"/>
      </g>
     </g>
    </g>
    <g id="xtick_8">
     <g id="line2d_21">
      <g>
       <use xlink:href="#mcab418c9de" x="406.8125" y="174.04" style="stroke: #000000; stroke-width: 0.8"/>
      </g>
     </g>
     <g id="text_16">
      <!-- 1.0 -->
      <g transform="translate(398.860937 188.638438)scale(0.1 -0.1)">
       <use xlink:href="#DejaVuSans-31"/>
       <use xlink:href="#DejaVuSans-2e" x="63.623047"/>
       <use xlink:href="#DejaVuSans-30" x="95.410156"/>
      </g>
     </g>
    </g>
    <g id="xtick_9">
     <g id="line2d_22">
      <g>
       <use xlink:href="#mcab418c9de" x="461.18625" y="174.04" style="stroke: #000000; stroke-width: 0.8"/>
      </g>
     </g>
     <g id="text_17">
      <!-- 1.5 -->
      <g transform="translate(453.234687 188.638438)scale(0.1 -0.1)">
       <use xlink:href="#DejaVuSans-31"/>
       <use xlink:href="#DejaVuSans-2e" x="63.623047"/>
       <use xlink:href="#DejaVuSans-35" x="95.410156"/>
      </g>
     </g>
    </g>
    <g id="xtick_10">
     <g id="line2d_23">
      <g>
       <use xlink:href="#mcab418c9de" x="515.56" y="174.04" style="stroke: #000000; stroke-width: 0.8"/>
      </g>
     </g>
     <g id="text_18">
      <!-- 2.0 -->
      <g transform="translate(507.608437 188.638438)scale(0.1 -0.1)">
       <use xlink:href="#DejaVuSans-32"/>
       <use xlink:href="#DejaVuSans-2e" x="63.623047"/>
       <use xlink:href="#DejaVuSans-30" x="95.410156"/>
      </g>
     </g>
    </g>
    <g id="text_19">
     <!-- Influence of surprisal (multiplication) -->
     <g transform="translate(314.665625 202.316563)scale(0.1 -0.1)">
      <use xlink:href="#DejaVuSans-49"/>
      <use xlink:href="#DejaVuSans-6e" x="29.492188"/>
      <use xlink:href="#DejaVuSans-66" x="92.871094"/>
      <use xlink:href="#DejaVuSans-6c" x="128.076172"/>
      <use xlink:href="#DejaVuSans-75" x="155.859375"/>
      <use xlink:href="#DejaVuSans-65" x="219.238281"/>
      <use xlink:href="#DejaVuSans-6e" x="280.761719"/>
      <use xlink:href="#DejaVuSans-63" x="344.140625"/>
      <use xlink:href="#DejaVuSans-65" x="399.121094"/>
      <use xlink:href="#DejaVuSans-20" x="460.644531"/>
      <use xlink:href="#DejaVuSans-6f" x="492.431641"/>
      <use xlink:href="#DejaVuSans-66" x="553.613281"/>
      <use xlink:href="#DejaVuSans-20" x="588.818359"/>
      <use xlink:href="#DejaVuSans-73" x="620.605469"/>
      <use xlink:href="#DejaVuSans-75" x="672.705078"/>
      <use xlink:href="#DejaVuSans-72" x="736.083984"/>
      <use xlink:href="#DejaVuSans-70" x="777.197266"/>
      <use xlink:href="#DejaVuSans-72" x="840.673828"/>
      <use xlink:href="#DejaVuSans-69" x="881.787109"/>
      <use xlink:href="#DejaVuSans-73" x="909.570312"/>
      <use xlink:href="#DejaVuSans-61" x="961.669922"/>
      <use xlink:href="#DejaVuSans-6c" x="1022.949219"/>
      <use xlink:href="#DejaVuSans-20" x="1050.732422"/>
      <use xlink:href="#DejaVuSans-28" x="1082.519531"/>
      <use xlink:href="#DejaVuSans-6d" x="1121.533203"/>
      <use xlink:href="#DejaVuSans-75" x="1218.945312"/>
      <use xlink:href="#DejaVuSans-6c" x="1282.324219"/>
      <use xlink:href="#DejaVuSans-74" x="1310.107422"/>
      <use xlink:href="#DejaVuSans-69" x="1349.316406"/>
      <use xlink:href="#DejaVuSans-70" x="1377.099609"/>
      <use xlink:href="#DejaVuSans-6c" x="1440.576172"/>
      <use xlink:href="#DejaVuSans-69" x="1468.359375"/>
      <use xlink:href="#DejaVuSans-63" x="1496.142578"/>
      <use xlink:href="#DejaVuSans-61" x="1551.123047"/>
      <use xlink:href="#DejaVuSans-74" x="1612.402344"/>
      <use xlink:href="#DejaVuSans-69" x="1651.611328"/>
      <use xlink:href="#DejaVuSans-6f" x="1679.394531"/>
      <use xlink:href="#DejaVuSans-6e" x="1740.576172"/>
      <use xlink:href="#DejaVuSans-29" x="1803.955078"/>
     </g>
    </g>
   </g>
   <g id="line2d_24">
    <path d="M 298.065 33.569091 
L 309.512105 35.64959 
L 320.959211 41.464352 
L 332.406316 49.425051 
L 343.853421 59.481632 
L 355.300526 69.081221 
L 366.747632 79.612579 
L 378.194737 89.500256 
L 389.641842 98.326016 
L 401.088947 106.491443 
L 412.536053 113.567573 
L 423.983158 120.536159 
L 435.430263 126.331996 
L 446.877368 131.492521 
L 458.324474 136.141981 
L 469.771579 140.424178 
L 481.218684 144.497691 
L 492.665789 147.600973 
L 504.112895 150.320006 
L 515.56 153.050515 
" clip-path="url(#pf447b94bde)" style="fill: none; stroke: #1f77b4; stroke-width: 1.5; stroke-linecap: square"/>
   </g>
   <g id="line2d_25">
    <path d="M 298.065 33.56924 
L 309.512105 35.652315 
L 320.959211 41.478122 
L 332.406316 49.453475 
L 343.853421 59.523516 
L 355.300526 69.130094 
L 366.747632 79.676767 
L 378.194737 89.56637 
L 389.641842 98.430566 
L 401.088947 106.650048 
L 412.536053 113.75718 
L 423.983158 120.783676 
L 435.430263 126.627148 
L 446.877368 131.848725 
L 458.324474 136.481173 
L 469.771579 140.744745 
L 481.218684 144.859478 
L 492.665789 147.952079 
L 504.112895 150.651809 
L 515.56 153.464568 
" clip-path="url(#pf447b94bde)" style="fill: none; stroke: #ff7f0e; stroke-width: 1.5; stroke-linecap: square"/>
   </g>
   <g id="line2d_26">
    <path d="M 298.065 33.569091 
L 309.512105 35.65063 
L 320.959211 41.456035 
L 332.406316 49.423735 
L 343.853421 59.45726 
L 355.300526 69.059078 
L 366.747632 79.593357 
L 378.194737 89.50991 
L 389.641842 98.406503 
L 401.088947 106.638677 
L 412.536053 113.722034 
L 423.983158 120.788853 
L 435.430263 126.620911 
L 446.877368 131.857762 
L 458.324474 136.552582 
L 469.771579 140.840949 
L 481.218684 144.966528 
L 492.665789 148.123176 
L 504.112895 150.718393 
L 515.56 153.666089 
" clip-path="url(#pf447b94bde)" style="fill: none; stroke: #2ca02c; stroke-width: 1.5; stroke-linecap: square"/>
   </g>
   <g id="line2d_27">
    <path d="M 298.065 33.569888 
L 309.512105 35.653444 
L 320.959211 41.467816 
L 332.406316 49.442872 
L 343.853421 59.478251 
L 355.300526 69.090616 
L 366.747632 79.623605 
L 378.194737 89.532462 
L 389.641842 98.431203 
L 401.088947 106.679629 
L 412.536053 113.768544 
L 423.983158 120.839226 
L 435.430263 126.676753 
L 446.877368 131.914726 
L 458.324474 136.606977 
L 469.771579 140.883082 
L 481.218684 145.016322 
L 492.665789 148.199287 
L 504.112895 150.844169 
L 515.56 153.754768 
" clip-path="url(#pf447b94bde)" style="fill: none; stroke: #d62728; stroke-width: 1.5; stroke-linecap: square"/>
   </g>
   <g id="line2d_28">
    <path d="M 298.065 33.569091 
L 309.512105 35.6565 
L 320.959211 41.499245 
L 332.406316 49.457307 
L 343.853421 59.508193 
L 355.300526 69.169138 
L 366.747632 79.520528 
L 378.194737 89.440383 
L 389.641842 98.344789 
L 401.088947 106.60536 
L 412.536053 113.687935 
L 423.983158 120.260359 
L 435.430263 126.73817 
L 446.877368 131.455696 
L 458.324474 136.78138 
L 469.771579 140.337192 
L 481.218684 144.89578 
L 492.665789 148.285628 
L 504.112895 151.001578 
L 515.56 153.549442 
" clip-path="url(#pf447b94bde)" style="fill: none; stroke: #9467bd; stroke-width: 1.5; stroke-linecap: square"/>
   </g>
   <g id="line2d_29">
    <path d="M 298.065 33.569688 
L 309.512105 35.659379 
L 320.959211 41.513281 
L 332.406316 49.484354 
L 343.853421 59.543967 
L 355.300526 69.210773 
L 366.747632 79.588858 
L 378.194737 89.503944 
L 389.641842 98.442396 
L 401.088947 106.754393 
L 412.536053 113.874019 
L 423.983158 120.505215 
L 435.430263 127.010605 
L 446.877368 131.783495 
L 458.324474 137.109692 
L 469.771579 140.636472 
L 481.218684 145.276699 
L 492.665789 148.617076 
L 504.112895 151.310578 
L 515.56 153.929207 
" clip-path="url(#pf447b94bde)" style="fill: none; stroke: #8c564b; stroke-width: 1.5; stroke-linecap: square"/>
   </g>
   <g id="line2d_30">
    <path d="M 298.065 46.496755 
L 309.512105 48.424665 
L 320.959211 53.906737 
L 332.406316 61.443429 
L 343.853421 71.051854 
L 355.300526 79.797783 
L 366.747632 89.550924 
L 378.194737 98.452649 
L 389.641842 106.277988 
L 401.088947 113.391721 
L 412.536053 119.737873 
L 423.983158 125.764905 
L 435.430263 130.894936 
L 446.877368 135.480927 
L 458.324474 139.658483 
L 469.771579 143.65648 
L 481.218684 147.323886 
L 492.665789 150.423705 
L 504.112895 152.955552 
L 515.56 155.697119 
" clip-path="url(#pf447b94bde)" style="fill: none; stroke: #e377c2; stroke-width: 1.5; stroke-linecap: square"/>
   </g>
   <g id="line2d_31">
    <path d="M 298.065 33.569421 
L 309.512105 35.652677 
L 320.959211 41.478373 
L 332.406316 49.434632 
L 343.853421 59.520896 
L 355.300526 69.165371 
L 366.747632 79.765277 
L 378.194737 89.705242 
L 389.641842 98.687416 
L 401.088947 106.950933 
L 412.536053 114.106209 
L 423.983158 121.193288 
L 435.430263 127.017766 
L 446.877368 132.325171 
L 458.324474 136.931141 
L 469.771579 141.2355 
L 481.218684 145.321735 
L 492.665789 148.415019 
L 504.112895 151.111992 
L 515.56 153.927356 
" clip-path="url(#pf447b94bde)" style="fill: none; stroke: #7f7f7f; stroke-width: 1.5; stroke-linecap: square"/>
   </g>
   <g id="patch_6">
    <path d="M 298.065 174.04 
L 298.065 26.88 
" style="fill: none; stroke: #000000; stroke-width: 0.8; stroke-linejoin: miter; stroke-linecap: square"/>
   </g>
   <g id="patch_7">
    <path d="M 298.065 174.04 
L 515.56 174.04 
" style="fill: none; stroke: #000000; stroke-width: 0.8; stroke-linejoin: miter; stroke-linecap: square"/>
   </g>
   <g id="text_20">
    <!-- Node * third variable -->
    <g transform="translate(344.2325 20.88)scale(0.12 -0.12)">
     <defs>
      <path id="DejaVuSans-68" d="M 3513 2113 
L 3513 0 
L 2938 0 
L 2938 2094 
Q 2938 2591 2744 2837 
Q 2550 3084 2163 3084 
Q 1697 3084 1428 2787 
Q 1159 2491 1159 1978 
L 1159 0 
L 581 0 
L 581 4863 
L 1159 4863 
L 1159 2956 
Q 1366 3272 1645 3428 
Q 1925 3584 2291 3584 
Q 2894 3584 3203 3211 
Q 3513 2838 3513 2113 
z
" transform="scale(0.015625)"/>
      <path id="DejaVuSans-62" d="M 3116 1747 
Q 3116 2381 2855 2742 
Q 2594 3103 2138 3103 
Q 1681 3103 1420 2742 
Q 1159 2381 1159 1747 
Q 1159 1113 1420 752 
Q 1681 391 2138 391 
Q 2594 391 2855 752 
Q 3116 1113 3116 1747 
z
M 1159 2969 
Q 1341 3281 1617 3432 
Q 1894 3584 2278 3584 
Q 2916 3584 3314 3078 
Q 3713 2572 3713 1747 
Q 3713 922 3314 415 
Q 2916 -91 2278 -91 
Q 1894 -91 1617 61 
Q 1341 213 1159 525 
L 1159 0 
L 581 0 
L 581 4863 
L 1159 4863 
L 1159 2969 
z
" transform="scale(0.015625)"/>
     </defs>
     <use xlink:href="#DejaVuSans-4e"/>
     <use xlink:href="#DejaVuSans-6f" x="74.804688"/>
     <use xlink:href="#DejaVuSans-64" x="135.986328"/>
     <use xlink:href="#DejaVuSans-65" x="199.462891"/>
     <use xlink:href="#DejaVuSans-20" x="260.986328"/>
     <use xlink:href="#DejaVuSans-2a" x="292.773438"/>
     <use xlink:href="#DejaVuSans-20" x="342.773438"/>
     <use xlink:href="#DejaVuSans-74" x="374.560547"/>
     <use xlink:href="#DejaVuSans-68" x="413.769531"/>
     <use xlink:href="#DejaVuSans-69" x="477.148438"/>
     <use xlink:href="#DejaVuSans-72" x="504.931641"/>
     <use xlink:href="#DejaVuSans-64" x="544.294922"/>
     <use xlink:href="#DejaVuSans-20" x="607.771484"/>
     <use xlink:href="#DejaVuSans-76" x="639.558594"/>
     <use xlink:href="#DejaVuSans-61" x="698.738281"/>
     <use xlink:href="#DejaVuSans-72" x="760.017578"/>
     <use xlink:href="#DejaVuSans-69" x="801.130859"/>
     <use xlink:href="#DejaVuSans-61" x="828.914062"/>
     <use xlink:href="#DejaVuSans-62" x="890.193359"/>
     <use xlink:href="#DejaVuSans-6c" x="953.669922"/>
     <use xlink:href="#DejaVuSans-65" x="981.453125"/>
    </g>
   </g>
   <g id="legend_1">
    <g id="line2d_32">
     <path d="M 524.56 39.978437 
L 534.56 39.978437 
L 544.56 39.978437 
" style="fill: none; stroke: #1f77b4; stroke-width: 1.5; stroke-linecap: square"/>
    </g>
    <g id="text_21">
     <!-- Node -->
     <g transform="translate(552.56 43.478437)scale(0.1 -0.1)">
      <use xlink:href="#DejaVuSans-4e"/>
      <use xlink:href="#DejaVuSans-6f" x="74.804688"/>
      <use xlink:href="#DejaVuSans-64" x="135.986328"/>
      <use xlink:href="#DejaVuSans-65" x="199.462891"/>
     </g>
    </g>
    <g id="line2d_33">
     <path d="M 524.56 54.656563 
L 534.56 54.656563 
L 544.56 54.656563 
" style="fill: none; stroke: #ff7f0e; stroke-width: 1.5; stroke-linecap: square"/>
    </g>
    <g id="text_22">
     <!-- Node + surprisal -->
     <g transform="translate(552.56 58.156563)scale(0.1 -0.1)">
      <defs>
       <path id="DejaVuSans-2b" d="M 2944 4013 
L 2944 2272 
L 4684 2272 
L 4684 1741 
L 2944 1741 
L 2944 0 
L 2419 0 
L 2419 1741 
L 678 1741 
L 678 2272 
L 2419 2272 
L 2419 4013 
L 2944 4013 
z
" transform="scale(0.015625)"/>
      </defs>
      <use xlink:href="#DejaVuSans-4e"/>
      <use xlink:href="#DejaVuSans-6f" x="74.804688"/>
      <use xlink:href="#DejaVuSans-64" x="135.986328"/>
      <use xlink:href="#DejaVuSans-65" x="199.462891"/>
      <use xlink:href="#DejaVuSans-20" x="260.986328"/>
      <use xlink:href="#DejaVuSans-2b" x="292.773438"/>
      <use xlink:href="#DejaVuSans-20" x="376.5625"/>
      <use xlink:href="#DejaVuSans-73" x="408.349609"/>
      <use xlink:href="#DejaVuSans-75" x="460.449219"/>
      <use xlink:href="#DejaVuSans-72" x="523.828125"/>
      <use xlink:href="#DejaVuSans-70" x="564.941406"/>
      <use xlink:href="#DejaVuSans-72" x="628.417969"/>
      <use xlink:href="#DejaVuSans-69" x="669.53125"/>
      <use xlink:href="#DejaVuSans-73" x="697.314453"/>
      <use xlink:href="#DejaVuSans-61" x="749.414062"/>
      <use xlink:href="#DejaVuSans-6c" x="810.693359"/>
     </g>
    </g>
    <g id="line2d_34">
     <path d="M 524.56 69.334687 
L 534.56 69.334687 
L 544.56 69.334687 
" style="fill: none; stroke: #2ca02c; stroke-width: 1.5; stroke-linecap: square"/>
    </g>
    <g id="text_23">
     <!-- Node split -->
     <g transform="translate(552.56 72.834687)scale(0.1 -0.1)">
      <use xlink:href="#DejaVuSans-4e"/>
      <use xlink:href="#DejaVuSans-6f" x="74.804688"/>
      <use xlink:href="#DejaVuSans-64" x="135.986328"/>
      <use xlink:href="#DejaVuSans-65" x="199.462891"/>
      <use xlink:href="#DejaVuSans-20" x="260.986328"/>
      <use xlink:href="#DejaVuSans-73" x="292.773438"/>
      <use xlink:href="#DejaVuSans-70" x="344.873047"/>
      <use xlink:href="#DejaVuSans-6c" x="408.349609"/>
      <use xlink:href="#DejaVuSans-69" x="436.132812"/>
      <use xlink:href="#DejaVuSans-74" x="463.916016"/>
     </g>
    </g>
    <g id="line2d_35">
     <path d="M 524.56 84.012812 
L 534.56 84.012812 
L 544.56 84.012812 
" style="fill: none; stroke: #d62728; stroke-width: 1.5; stroke-linecap: square"/>
    </g>
    <g id="text_24">
     <!-- Node split + surprisal -->
     <g transform="translate(552.56 87.512812)scale(0.1 -0.1)">
      <use xlink:href="#DejaVuSans-4e"/>
      <use xlink:href="#DejaVuSans-6f" x="74.804688"/>
      <use xlink:href="#DejaVuSans-64" x="135.986328"/>
      <use xlink:href="#DejaVuSans-65" x="199.462891"/>
      <use xlink:href="#DejaVuSans-20" x="260.986328"/>
      <use xlink:href="#DejaVuSans-73" x="292.773438"/>
      <use xlink:href="#DejaVuSans-70" x="344.873047"/>
      <use xlink:href="#DejaVuSans-6c" x="408.349609"/>
      <use xlink:href="#DejaVuSans-69" x="436.132812"/>
      <use xlink:href="#DejaVuSans-74" x="463.916016"/>
      <use xlink:href="#DejaVuSans-20" x="503.125"/>
      <use xlink:href="#DejaVuSans-2b" x="534.912109"/>
      <use xlink:href="#DejaVuSans-20" x="618.701172"/>
      <use xlink:href="#DejaVuSans-73" x="650.488281"/>
      <use xlink:href="#DejaVuSans-75" x="702.587891"/>
      <use xlink:href="#DejaVuSans-72" x="765.966797"/>
      <use xlink:href="#DejaVuSans-70" x="807.080078"/>
      <use xlink:href="#DejaVuSans-72" x="870.556641"/>
      <use xlink:href="#DejaVuSans-69" x="911.669922"/>
      <use xlink:href="#DejaVuSans-73" x="939.453125"/>
      <use xlink:href="#DejaVuSans-61" x="991.552734"/>
      <use xlink:href="#DejaVuSans-6c" x="1052.832031"/>
     </g>
    </g>
    <g id="line2d_36">
     <path d="M 524.56 98.690937 
L 534.56 98.690937 
L 544.56 98.690937 
" style="fill: none; stroke: #9467bd; stroke-width: 1.5; stroke-linecap: square"/>
    </g>
    <g id="text_25">
     <!-- Node random split -->
     <g transform="translate(552.56 102.190937)scale(0.1 -0.1)">
      <use xlink:href="#DejaVuSans-4e"/>
      <use xlink:href="#DejaVuSans-6f" x="74.804688"/>
      <use xlink:href="#DejaVuSans-64" x="135.986328"/>
      <use xlink:href="#DejaVuSans-65" x="199.462891"/>
      <use xlink:href="#DejaVuSans-20" x="260.986328"/>
      <use xlink:href="#DejaVuSans-72" x="292.773438"/>
      <use xlink:href="#DejaVuSans-61" x="333.886719"/>
      <use xlink:href="#DejaVuSans-6e" x="395.166016"/>
      <use xlink:href="#DejaVuSans-64" x="458.544922"/>
      <use xlink:href="#DejaVuSans-6f" x="522.021484"/>
      <use xlink:href="#DejaVuSans-6d" x="583.203125"/>
      <use xlink:href="#DejaVuSans-20" x="680.615234"/>
      <use xlink:href="#DejaVuSans-73" x="712.402344"/>
      <use xlink:href="#DejaVuSans-70" x="764.501953"/>
      <use xlink:href="#DejaVuSans-6c" x="827.978516"/>
      <use xlink:href="#DejaVuSans-69" x="855.761719"/>
      <use xlink:href="#DejaVuSans-74" x="883.544922"/>
     </g>
    </g>
    <g id="line2d_37">
     <path d="M 524.56 113.369062 
L 534.56 113.369062 
L 544.56 113.369062 
" style="fill: none; stroke: #8c564b; stroke-width: 1.5; stroke-linecap: square"/>
    </g>
    <g id="text_26">
     <!-- Node random split + surprisal -->
     <g transform="translate(552.56 116.869062)scale(0.1 -0.1)">
      <use xlink:href="#DejaVuSans-4e"/>
      <use xlink:href="#DejaVuSans-6f" x="74.804688"/>
      <use xlink:href="#DejaVuSans-64" x="135.986328"/>
      <use xlink:href="#DejaVuSans-65" x="199.462891"/>
      <use xlink:href="#DejaVuSans-20" x="260.986328"/>
      <use xlink:href="#DejaVuSans-72" x="292.773438"/>
      <use xlink:href="#DejaVuSans-61" x="333.886719"/>
      <use xlink:href="#DejaVuSans-6e" x="395.166016"/>
      <use xlink:href="#DejaVuSans-64" x="458.544922"/>
      <use xlink:href="#DejaVuSans-6f" x="522.021484"/>
      <use xlink:href="#DejaVuSans-6d" x="583.203125"/>
      <use xlink:href="#DejaVuSans-20" x="680.615234"/>
      <use xlink:href="#DejaVuSans-73" x="712.402344"/>
      <use xlink:href="#DejaVuSans-70" x="764.501953"/>
      <use xlink:href="#DejaVuSans-6c" x="827.978516"/>
      <use xlink:href="#DejaVuSans-69" x="855.761719"/>
      <use xlink:href="#DejaVuSans-74" x="883.544922"/>
      <use xlink:href="#DejaVuSans-20" x="922.753906"/>
      <use xlink:href="#DejaVuSans-2b" x="954.541016"/>
      <use xlink:href="#DejaVuSans-20" x="1038.330078"/>
      <use xlink:href="#DejaVuSans-73" x="1070.117188"/>
      <use xlink:href="#DejaVuSans-75" x="1122.216797"/>
      <use xlink:href="#DejaVuSans-72" x="1185.595703"/>
      <use xlink:href="#DejaVuSans-70" x="1226.708984"/>
      <use xlink:href="#DejaVuSans-72" x="1290.185547"/>
      <use xlink:href="#DejaVuSans-69" x="1331.298828"/>
      <use xlink:href="#DejaVuSans-73" x="1359.082031"/>
      <use xlink:href="#DejaVuSans-61" x="1411.181641"/>
      <use xlink:href="#DejaVuSans-6c" x="1472.460938"/>
     </g>
    </g>
    <g id="line2d_38">
     <path d="M 524.56 128.047187 
L 534.56 128.047187 
L 544.56 128.047187 
" style="fill: none; stroke: #e377c2; stroke-width: 1.5; stroke-linecap: square"/>
    </g>
    <g id="text_27">
     <!-- Interaction -->
     <g transform="translate(552.56 131.547187)scale(0.1 -0.1)">
      <use xlink:href="#DejaVuSans-49"/>
      <use xlink:href="#DejaVuSans-6e" x="29.492188"/>
      <use xlink:href="#DejaVuSans-74" x="92.871094"/>
      <use xlink:href="#DejaVuSans-65" x="132.080078"/>
      <use xlink:href="#DejaVuSans-72" x="193.603516"/>
      <use xlink:href="#DejaVuSans-61" x="234.716797"/>
      <use xlink:href="#DejaVuSans-63" x="295.996094"/>
      <use xlink:href="#DejaVuSans-74" x="350.976562"/>
      <use xlink:href="#DejaVuSans-69" x="390.185547"/>
      <use xlink:href="#DejaVuSans-6f" x="417.96875"/>
      <use xlink:href="#DejaVuSans-6e" x="479.150391"/>
     </g>
    </g>
    <g id="line2d_39">
     <path d="M 524.56 142.725312 
L 534.56 142.725312 
L 544.56 142.725312 
" style="fill: none; stroke: #7f7f7f; stroke-width: 1.5; stroke-linecap: square"/>
    </g>
    <g id="text_28">
     <!-- Node + surprisal + interaction -->
     <g transform="translate(552.56 146.225312)scale(0.1 -0.1)">
      <use xlink:href="#DejaVuSans-4e"/>
      <use xlink:href="#DejaVuSans-6f" x="74.804688"/>
      <use xlink:href="#DejaVuSans-64" x="135.986328"/>
      <use xlink:href="#DejaVuSans-65" x="199.462891"/>
      <use xlink:href="#DejaVuSans-20" x="260.986328"/>
      <use xlink:href="#DejaVuSans-2b" x="292.773438"/>
      <use xlink:href="#DejaVuSans-20" x="376.5625"/>
      <use xlink:href="#DejaVuSans-73" x="408.349609"/>
      <use xlink:href="#DejaVuSans-75" x="460.449219"/>
      <use xlink:href="#DejaVuSans-72" x="523.828125"/>
      <use xlink:href="#DejaVuSans-70" x="564.941406"/>
      <use xlink:href="#DejaVuSans-72" x="628.417969"/>
      <use xlink:href="#DejaVuSans-69" x="669.53125"/>
      <use xlink:href="#DejaVuSans-73" x="697.314453"/>
      <use xlink:href="#DejaVuSans-61" x="749.414062"/>
      <use xlink:href="#DejaVuSans-6c" x="810.693359"/>
      <use xlink:href="#DejaVuSans-20" x="838.476562"/>
      <use xlink:href="#DejaVuSans-2b" x="870.263672"/>
      <use xlink:href="#DejaVuSans-20" x="954.052734"/>
      <use xlink:href="#DejaVuSans-69" x="985.839844"/>
      <use xlink:href="#DejaVuSans-6e" x="1013.623047"/>
      <use xlink:href="#DejaVuSans-74" x="1077.001953"/>
      <use xlink:href="#DejaVuSans-65" x="1116.210938"/>
      <use xlink:href="#DejaVuSans-72" x="1177.734375"/>
      <use xlink:href="#DejaVuSans-61" x="1218.847656"/>
      <use xlink:href="#DejaVuSans-63" x="1280.126953"/>
      <use xlink:href="#DejaVuSans-74" x="1335.107422"/>
      <use xlink:href="#DejaVuSans-69" x="1374.316406"/>
      <use xlink:href="#DejaVuSans-6f" x="1402.099609"/>
      <use xlink:href="#DejaVuSans-6e" x="1463.28125"/>
     </g>
    </g>
   </g>
  </g>
 </g>
 <defs>
  <clipPath id="p7aa3ec7349">
   <rect x="47.72" y="26.88" width="217.495" height="147.16"/>
  </clipPath>
  <clipPath id="pf447b94bde">
   <rect x="298.065" y="26.88" width="217.495" height="147.16"/>
  </clipPath>
 </defs>
</svg>
