<?xml version="1.0" encoding="utf-8" standalone="no"?>
<!DOCTYPE svg PUBLIC "-//W3C//DTD SVG 1.1//EN"
  "http://www.w3.org/Graphics/SVG/1.1/DTD/svg11.dtd">
<svg xmlns:xlink="http://www.w3.org/1999/xlink" width="720pt" height="216pt" viewBox="0 0 720 216" xmlns="http://www.w3.org/2000/svg" version="1.1">
 <metadata>
  <rdf:RDF xmlns:dc="http://purl.org/dc/elements/1.1/" xmlns:cc="http://creativecommons.org/ns#" xmlns:rdf="http://www.w3.org/1999/02/22-rdf-syntax-ns#">
   <cc:Work>
    <dc:type rdf:resource="http://purl.org/dc/dcmitype/StillImage"/>
    <dc:date>2024-01-15T19:45:53.331483</dc:date>
    <dc:format>image/svg+xml</dc:format>
    <dc:creator>
     <cc:Agent>
      <dc:title>Matplotlib v3.5.1, https://matplotlib.org/</dc:title>
     </cc:Agent>
    </dc:creator>
   </cc:Work>
  </rdf:RDF>
 </metadata>
 <defs>
  <style type="text/css">*{stroke-linejoin: round; stroke-linecap: butt}</style>
 </defs>
 <g id="figure_1">
  <g id="patch_1">
   <path d="M 0 216 
L 720 216 
L 720 0 
L 0 0 
z
" style="fill: #ffffff"/>
  </g>
  <g id="axes_1">
   <g id="patch_2">
    <path d="M 47.72 174.04 
L 265.215 174.04 
L 265.215 26.88 
L 47.72 26.88 
z
" style="fill: #ffffff"/>
   </g>
   <g id="PolyCollection_1">
    <path d="M 47.72 33.810244 
L 47.72 33.810244 
L 59.167105 36.341182 
L 70.614211 43.081082 
L 82.061316 49.903045 
L 93.508421 59.156583 
L 104.955526 68.491101 
L 116.402632 78.620064 
L 127.849737 88.46016 
L 139.296842 97.125724 
L 150.743947 105.94627 
L 162.191053 114.145995 
L 173.638158 120.974614 
L 185.085263 128.018834 
L 196.532368 132.352852 
L 207.979474 137.705254 
L 219.426579 140.965297 
L 230.873684 145.07647 
L 242.320789 147.959779 
L 253.767895 151.07029 
L 265.215 154.118496 
L 265.215 149.930069 
L 265.215 149.930069 
L 253.767895 147.179185 
L 242.320789 144.173471 
L 230.873684 140.457866 
L 219.426579 136.245787 
L 207.979474 132.134288 
L 196.532368 125.722822 
L 185.085263 120.449687 
L 173.638158 113.877404 
L 162.191053 106.901836 
L 150.743947 98.425263 
L 139.296842 90.865184 
L 127.849737 81.477673 
L 116.402632 72.658747 
L 104.955526 62.79005 
L 93.508421 55.042488 
L 82.061316 46.080797 
L 70.614211 39.934088 
L 59.167105 35.186897 
L 47.72 33.810244 
z
" clip-path="url(#p98e8d838a3)" style="fill: #1f77b4; fill-opacity: 0.4"/>
   </g>
   <g id="PolyCollection_2">
    <path d="M 47.72 33.810359 
L 47.72 33.810427 
L 59.167105 35.432309 
L 70.614211 39.42588 
L 82.061316 43.916851 
L 93.508421 50.227381 
L 104.955526 57.022865 
L 116.402632 65.123886 
L 127.849737 73.264591 
L 139.296842 81.504625 
L 150.743947 89.188251 
L 162.191053 97.149925 
L 173.638158 104.103802 
L 185.085263 111.123846 
L 196.532368 116.620174 
L 207.979474 122.625364 
L 219.426579 127.206309 
L 230.873684 131.882804 
L 242.320789 136.098926 
L 253.767895 140.412768 
L 265.215 144.129764 
L 265.215 138.610613 
L 265.215 138.610613 
L 253.767895 134.928287 
L 242.320789 130.965848 
L 230.873684 126.951153 
L 219.426579 121.414989 
L 207.979474 116.90784 
L 196.532368 109.889881 
L 185.085263 104.871412 
L 173.638158 97.535563 
L 162.191053 90.699429 
L 150.743947 82.814421 
L 139.296842 75.159844 
L 127.849737 67.125532 
L 116.402632 59.501097 
L 104.955526 51.890067 
L 93.508421 46.357491 
L 82.061316 40.634126 
L 70.614211 37.155684 
L 59.167105 34.76867 
L 47.72 33.810359 
z
" clip-path="url(#p98e8d838a3)" style="fill: #ff7f0e; fill-opacity: 0.4"/>
   </g>
   <g id="PolyCollection_3">
    <path d="M 47.72 33.810244 
L 47.72 33.810244 
L 59.167105 35.892792 
L 70.614211 39.473224 
L 82.061316 42.941004 
L 93.508421 46.640117 
L 104.955526 51.194755 
L 116.402632 55.849966 
L 127.849737 60.677861 
L 139.296842 65.137928 
L 150.743947 69.58981 
L 162.191053 73.994096 
L 173.638158 78.582458 
L 185.085263 83.852248 
L 196.532368 88.376313 
L 207.979474 93.943632 
L 219.426579 97.900735 
L 230.873684 102.509337 
L 242.320789 106.517944 
L 253.767895 111.003156 
L 265.215 114.790128 
L 265.215 104.412554 
L 265.215 104.412554 
L 253.767895 100.335897 
L 242.320789 96.056133 
L 230.873684 92.468556 
L 219.426579 87.967391 
L 207.979474 84.166686 
L 196.532368 79.149502 
L 185.085263 75.834152 
L 173.638158 71.122244 
L 162.191053 67.485406 
L 150.743947 63.779414 
L 139.296842 58.960557 
L 127.849737 54.639711 
L 116.402632 50.615727 
L 104.955526 46.410553 
L 93.508421 43.038798 
L 82.061316 39.426508 
L 70.614211 36.853204 
L 59.167105 34.844756 
L 47.72 33.810244 
z
" clip-path="url(#p98e8d838a3)" style="fill: #2ca02c; fill-opacity: 0.4"/>
   </g>
   <g id="PolyCollection_4">
    <path d="M 47.72 33.810836 
L 47.72 33.811231 
L 59.167105 35.427008 
L 70.614211 38.282799 
L 82.061316 41.202914 
L 93.508421 44.481266 
L 104.955526 48.524478 
L 116.402632 53.077614 
L 127.849737 58.106921 
L 139.296842 62.907665 
L 150.743947 67.743802 
L 162.191053 72.620682 
L 173.638158 77.546764 
L 185.085263 83.123612 
L 196.532368 87.700231 
L 207.979474 93.367441 
L 219.426579 97.248306 
L 230.873684 101.769231 
L 242.320789 105.509419 
L 253.767895 109.656687 
L 265.215 113.210969 
L 265.215 103.165675 
L 265.215 103.165675 
L 253.767895 99.362696 
L 242.320789 95.176245 
L 230.873684 91.719206 
L 219.426579 87.314646 
L 207.979474 83.437891 
L 196.532368 78.33202 
L 185.085263 74.834507 
L 173.638158 69.931973 
L 162.191053 66.122469 
L 150.743947 62.390247 
L 139.296842 57.475044 
L 127.849737 53.000565 
L 116.402632 48.887524 
L 104.955526 44.720631 
L 93.508421 41.511712 
L 82.061316 38.256257 
L 70.614211 36.171358 
L 59.167105 34.694832 
L 47.72 33.810836 
z
" clip-path="url(#p98e8d838a3)" style="fill: #d62728; fill-opacity: 0.4"/>
   </g>
   <g id="PolyCollection_5">
    <path d="M 47.72 33.810244 
L 47.72 33.810244 
L 59.167105 36.337165 
L 70.614211 43.082141 
L 82.061316 49.996329 
L 93.508421 59.088602 
L 104.955526 68.59139 
L 116.402632 79.159919 
L 127.849737 88.689976 
L 139.296842 97.156903 
L 150.743947 106.484711 
L 162.191053 114.68027 
L 173.638158 121.724965 
L 185.085263 128.08741 
L 196.532368 133.546884 
L 207.979474 138.017231 
L 219.426579 141.403517 
L 230.873684 146.905224 
L 242.320789 149.397106 
L 253.767895 152.122325 
L 265.215 156.19742 
L 265.215 149.559706 
L 265.215 149.559706 
L 253.767895 147.366238 
L 242.320789 143.983582 
L 230.873684 140.687533 
L 219.426579 136.348731 
L 207.979474 132.01657 
L 196.532368 126.415344 
L 185.085263 120.805719 
L 173.638158 114.653744 
L 162.191053 108.260044 
L 150.743947 98.170593 
L 139.296842 90.644522 
L 127.849737 81.375065 
L 116.402632 72.945938 
L 104.955526 62.828546 
L 93.508421 55.151303 
L 82.061316 46.10046 
L 70.614211 39.935114 
L 59.167105 35.192874 
L 47.72 33.810244 
z
" clip-path="url(#p98e8d838a3)" style="fill: #9467bd; fill-opacity: 0.4"/>
   </g>
   <g id="PolyCollection_6">
    <path d="M 47.72 33.810702 
L 47.72 33.810978 
L 59.167105 35.436239 
L 70.614211 39.464031 
L 82.061316 43.984789 
L 93.508421 50.272613 
L 104.955526 57.115073 
L 116.402632 65.282532 
L 127.849737 73.314255 
L 139.296842 81.607798 
L 150.743947 89.459484 
L 162.191053 97.42642 
L 173.638158 104.244699 
L 185.085263 111.413942 
L 196.532368 117.356327 
L 207.979474 122.445625 
L 219.426579 127.510501 
L 230.873684 133.1429 
L 242.320789 137.138215 
L 253.767895 140.954861 
L 265.215 145.308946 
L 265.215 139.114494 
L 265.215 139.114494 
L 253.767895 135.401955 
L 242.320789 130.986309 
L 230.873684 127.696124 
L 219.426579 121.661369 
L 207.979474 117.275185 
L 196.532368 110.318907 
L 185.085263 105.250942 
L 173.638158 98.530496 
L 162.191053 91.462286 
L 150.743947 82.610618 
L 139.296842 75.033445 
L 127.849737 67.071386 
L 116.402632 59.774245 
L 104.955526 51.922763 
L 93.508421 46.449598 
L 82.061316 40.61526 
L 70.614211 37.152509 
L 59.167105 34.769315 
L 47.72 33.810702 
z
" clip-path="url(#p98e8d838a3)" style="fill: #8c564b; fill-opacity: 0.4"/>
   </g>
   <g id="PolyCollection_7">
    <path d="M 47.72 43.493456 
L 47.72 49.844539 
L 59.167105 54.905539 
L 70.614211 64.303054 
L 82.061316 72.699998 
L 93.508421 81.797258 
L 104.955526 92.105378 
L 116.402632 102.879877 
L 127.849737 112.22977 
L 139.296842 119.819983 
L 150.743947 126.987297 
L 162.191053 134.496204 
L 173.638158 140.336655 
L 185.085263 146.734859 
L 196.532368 150.883513 
L 207.979474 155.765526 
L 219.426579 158.353859 
L 230.873684 161.463422 
L 242.320789 163.504039 
L 253.767895 165.299559 
L 265.215 167.350909 
L 265.215 162.345732 
L 265.215 162.345732 
L 253.767895 160.216722 
L 242.320789 157.541407 
L 230.873684 154.275454 
L 219.426579 150.698327 
L 207.979474 146.779691 
L 196.532368 141.574645 
L 185.085263 136.694315 
L 173.638158 130.550204 
L 162.191053 123.967981 
L 150.743947 115.592125 
L 139.296842 106.89443 
L 127.849737 97.272447 
L 116.402632 87.328054 
L 104.955526 77.038676 
L 93.508421 68.063972 
L 82.061316 57.488507 
L 70.614211 49.456224 
L 59.167105 44.679489 
L 47.72 43.493456 
z
" clip-path="url(#p98e8d838a3)" style="fill: #e377c2; fill-opacity: 0.4"/>
   </g>
   <g id="PolyCollection_8">
    <path d="M 47.72 33.810443 
L 47.72 33.810731 
L 59.167105 34.686106 
L 70.614211 37.679158 
L 82.061316 42.891527 
L 93.508421 47.584102 
L 104.955526 53.056972 
L 116.402632 60.571437 
L 127.849737 68.820924 
L 139.296842 76.385381 
L 150.743947 83.855285 
L 162.191053 90.744928 
L 173.638158 97.367951 
L 185.085263 104.259796 
L 196.532368 109.864016 
L 207.979474 116.536705 
L 219.426579 121.721611 
L 230.873684 127.377108 
L 242.320789 132.111801 
L 253.767895 136.747704 
L 265.215 140.429233 
L 265.215 129.999252 
L 265.215 129.999252 
L 253.767895 125.073142 
L 242.320789 120.133504 
L 230.873684 115.145069 
L 219.426579 108.802291 
L 207.979474 103.237875 
L 196.532368 95.375317 
L 185.085263 89.613445 
L 173.638158 81.325714 
L 162.191053 73.700515 
L 150.743947 65.960536 
L 139.296842 58.464236 
L 127.849737 51.433783 
L 116.402632 45.470877 
L 104.955526 40.244315 
L 93.508421 36.45796 
L 82.061316 33.569091 
L 70.614211 33.785818 
L 59.167105 34.223422 
L 47.72 33.810443 
z
" clip-path="url(#p98e8d838a3)" style="fill: #7f7f7f; fill-opacity: 0.4"/>
   </g>
   <g id="matplotlib.axis_1">
    <g id="xtick_1">
     <g id="line2d_1">
      <defs>
       <path id="m0d0c97550d" d="M 0 0 
L 0 3.5 
" style="stroke: #000000; stroke-width: 0.8"/>
      </defs>
      <g>
       <use xlink:href="#m0d0c97550d" x="47.72" y="174.04" style="stroke: #000000; stroke-width: 0.8"/>
      </g>
     </g>
     <g id="text_1">
      <!-- 0.0 -->
      <g transform="translate(39.768438 188.638438)scale(0.1 -0.1)">
       <defs>
        <path id="DejaVuSans-30" d="M 2034 4250 
Q 1547 4250 1301 3770 
Q 1056 3291 1056 2328 
Q 1056 1369 1301 889 
Q 1547 409 2034 409 
Q 2525 409 2770 889 
Q 3016 1369 3016 2328 
Q 3016 3291 2770 3770 
Q 2525 4250 2034 4250 
z
M 2034 4750 
Q 2819 4750 3233 4129 
Q 3647 3509 3647 2328 
Q 3647 1150 3233 529 
Q 2819 -91 2034 -91 
Q 1250 -91 836 529 
Q 422 1150 422 2328 
Q 422 3509 836 4129 
Q 1250 4750 2034 4750 
z
" transform="scale(0.015625)"/>
        <path id="DejaVuSans-2e" d="M 684 794 
L 1344 794 
L 1344 0 
L 684 0 
L 684 794 
z
" transform="scale(0.015625)"/>
       </defs>
       <use xlink:href="#DejaVuSans-30"/>
       <use xlink:href="#DejaVuSans-2e" x="63.623047"/>
       <use xlink:href="#DejaVuSans-30" x="95.410156"/>
      </g>
     </g>
    </g>
    <g id="xtick_2">
     <g id="line2d_2">
      <g>
       <use xlink:href="#m0d0c97550d" x="102.09375" y="174.04" style="stroke: #000000; stroke-width: 0.8"/>
      </g>
     </g>
     <g id="text_2">
      <!-- 0.5 -->
      <g transform="translate(94.142188 188.638438)scale(0.1 -0.1)">
       <defs>
        <path id="DejaVuSans-35" d="M 691 4666 
L 3169 4666 
L 3169 4134 
L 1269 4134 
L 1269 2991 
Q 1406 3038 1543 3061 
Q 1681 3084 1819 3084 
Q 2600 3084 3056 2656 
Q 3513 2228 3513 1497 
Q 3513 744 3044 326 
Q 2575 -91 1722 -91 
Q 1428 -91 1123 -41 
Q 819 9 494 109 
L 494 744 
Q 775 591 1075 516 
Q 1375 441 1709 441 
Q 2250 441 2565 725 
Q 2881 1009 2881 1497 
Q 2881 1984 2565 2268 
Q 2250 2553 1709 2553 
Q 1456 2553 1204 2497 
Q 953 2441 691 2322 
L 691 4666 
z
" transform="scale(0.015625)"/>
       </defs>
       <use xlink:href="#DejaVuSans-30"/>
       <use xlink:href="#DejaVuSans-2e" x="63.623047"/>
       <use xlink:href="#DejaVuSans-35" x="95.410156"/>
      </g>
     </g>
    </g>
    <g id="xtick_3">
     <g id="line2d_3">
      <g>
       <use xlink:href="#m0d0c97550d" x="156.4675" y="174.04" style="stroke: #000000; stroke-width: 0.8"/>
      </g>
     </g>
     <g id="text_3">
      <!-- 1.0 -->
      <g transform="translate(148.515938 188.638438)scale(0.1 -0.1)">
       <defs>
        <path id="DejaVuSans-31" d="M 794 531 
L 1825 531 
L 1825 4091 
L 703 3866 
L 703 4441 
L 1819 4666 
L 2450 4666 
L 2450 531 
L 3481 531 
L 3481 0 
L 794 0 
L 794 531 
z
" transform="scale(0.015625)"/>
       </defs>
       <use xlink:href="#DejaVuSans-31"/>
       <use xlink:href="#DejaVuSans-2e" x="63.623047"/>
       <use xlink:href="#DejaVuSans-30" x="95.410156"/>
      </g>
     </g>
    </g>
    <g id="xtick_4">
     <g id="line2d_4">
      <g>
       <use xlink:href="#m0d0c97550d" x="210.84125" y="174.04" style="stroke: #000000; stroke-width: 0.8"/>
      </g>
     </g>
     <g id="text_4">
      <!-- 1.5 -->
      <g transform="translate(202.889687 188.638438)scale(0.1 -0.1)">
       <use xlink:href="#DejaVuSans-31"/>
       <use xlink:href="#DejaVuSans-2e" x="63.623047"/>
       <use xlink:href="#DejaVuSans-35" x="95.410156"/>
      </g>
     </g>
    </g>
    <g id="xtick_5">
     <g id="line2d_5">
      <g>
       <use xlink:href="#m0d0c97550d" x="265.215" y="174.04" style="stroke: #000000; stroke-width: 0.8"/>
      </g>
     </g>
     <g id="text_5">
      <!-- 2.0 -->
      <g transform="translate(257.263437 188.638438)scale(0.1 -0.1)">
       <defs>
        <path id="DejaVuSans-32" d="M 1228 531 
L 3431 531 
L 3431 0 
L 469 0 
L 469 531 
Q 828 903 1448 1529 
Q 2069 2156 2228 2338 
Q 2531 2678 2651 2914 
Q 2772 3150 2772 3378 
Q 2772 3750 2511 3984 
Q 2250 4219 1831 4219 
Q 1534 4219 1204 4116 
Q 875 4013 500 3803 
L 500 4441 
Q 881 4594 1212 4672 
Q 1544 4750 1819 4750 
Q 2544 4750 2975 4387 
Q 3406 4025 3406 3419 
Q 3406 3131 3298 2873 
Q 3191 2616 2906 2266 
Q 2828 2175 2409 1742 
Q 1991 1309 1228 531 
z
" transform="scale(0.015625)"/>
       </defs>
       <use xlink:href="#DejaVuSans-32"/>
       <use xlink:href="#DejaVuSans-2e" x="63.623047"/>
       <use xlink:href="#DejaVuSans-30" x="95.410156"/>
      </g>
     </g>
    </g>
    <g id="text_6">
     <!-- Influence of surprisal (multiplication) -->
     <g transform="translate(64.320625 202.316563)scale(0.1 -0.1)">
      <defs>
       <path id="DejaVuSans-49" d="M 628 4666 
L 1259 4666 
L 1259 0 
L 628 0 
L 628 4666 
z
" transform="scale(0.015625)"/>
       <path id="DejaVuSans-6e" d="M 3513 2113 
L 3513 0 
L 2938 0 
L 2938 2094 
Q 2938 2591 2744 2837 
Q 2550 3084 2163 3084 
Q 1697 3084 1428 2787 
Q 1159 2491 1159 1978 
L 1159 0 
L 581 0 
L 581 3500 
L 1159 3500 
L 1159 2956 
Q 1366 3272 1645 3428 
Q 1925 3584 2291 3584 
Q 2894 3584 3203 3211 
Q 3513 2838 3513 2113 
z
" transform="scale(0.015625)"/>
       <path id="DejaVuSans-66" d="M 2375 4863 
L 2375 4384 
L 1825 4384 
Q 1516 4384 1395 4259 
Q 1275 4134 1275 3809 
L 1275 3500 
L 2222 3500 
L 2222 3053 
L 1275 3053 
L 1275 0 
L 697 0 
L 697 3053 
L 147 3053 
L 147 3500 
L 697 3500 
L 697 3744 
Q 697 4328 969 4595 
Q 1241 4863 1831 4863 
L 2375 4863 
z
" transform="scale(0.015625)"/>
       <path id="DejaVuSans-6c" d="M 603 4863 
L 1178 4863 
L 1178 0 
L 603 0 
L 603 4863 
z
" transform="scale(0.015625)"/>
       <path id="DejaVuSans-75" d="M 544 1381 
L 544 3500 
L 1119 3500 
L 1119 1403 
Q 1119 906 1312 657 
Q 1506 409 1894 409 
Q 2359 409 2629 706 
Q 2900 1003 2900 1516 
L 2900 3500 
L 3475 3500 
L 3475 0 
L 2900 0 
L 2900 538 
Q 2691 219 2414 64 
Q 2138 -91 1772 -91 
Q 1169 -91 856 284 
Q 544 659 544 1381 
z
M 1991 3584 
L 1991 3584 
z
" transform="scale(0.015625)"/>
       <path id="DejaVuSans-65" d="M 3597 1894 
L 3597 1613 
L 953 1613 
Q 991 1019 1311 708 
Q 1631 397 2203 397 
Q 2534 397 2845 478 
Q 3156 559 3463 722 
L 3463 178 
Q 3153 47 2828 -22 
Q 2503 -91 2169 -91 
Q 1331 -91 842 396 
Q 353 884 353 1716 
Q 353 2575 817 3079 
Q 1281 3584 2069 3584 
Q 2775 3584 3186 3129 
Q 3597 2675 3597 1894 
z
M 3022 2063 
Q 3016 2534 2758 2815 
Q 2500 3097 2075 3097 
Q 1594 3097 1305 2825 
Q 1016 2553 972 2059 
L 3022 2063 
z
" transform="scale(0.015625)"/>
       <path id="DejaVuSans-63" d="M 3122 3366 
L 3122 2828 
Q 2878 2963 2633 3030 
Q 2388 3097 2138 3097 
Q 1578 3097 1268 2742 
Q 959 2388 959 1747 
Q 959 1106 1268 751 
Q 1578 397 2138 397 
Q 2388 397 2633 464 
Q 2878 531 3122 666 
L 3122 134 
Q 2881 22 2623 -34 
Q 2366 -91 2075 -91 
Q 1284 -91 818 406 
Q 353 903 353 1747 
Q 353 2603 823 3093 
Q 1294 3584 2113 3584 
Q 2378 3584 2631 3529 
Q 2884 3475 3122 3366 
z
" transform="scale(0.015625)"/>
       <path id="DejaVuSans-20" transform="scale(0.015625)"/>
       <path id="DejaVuSans-6f" d="M 1959 3097 
Q 1497 3097 1228 2736 
Q 959 2375 959 1747 
Q 959 1119 1226 758 
Q 1494 397 1959 397 
Q 2419 397 2687 759 
Q 2956 1122 2956 1747 
Q 2956 2369 2687 2733 
Q 2419 3097 1959 3097 
z
M 1959 3584 
Q 2709 3584 3137 3096 
Q 3566 2609 3566 1747 
Q 3566 888 3137 398 
Q 2709 -91 1959 -91 
Q 1206 -91 779 398 
Q 353 888 353 1747 
Q 353 2609 779 3096 
Q 1206 3584 1959 3584 
z
" transform="scale(0.015625)"/>
       <path id="DejaVuSans-73" d="M 2834 3397 
L 2834 2853 
Q 2591 2978 2328 3040 
Q 2066 3103 1784 3103 
Q 1356 3103 1142 2972 
Q 928 2841 928 2578 
Q 928 2378 1081 2264 
Q 1234 2150 1697 2047 
L 1894 2003 
Q 2506 1872 2764 1633 
Q 3022 1394 3022 966 
Q 3022 478 2636 193 
Q 2250 -91 1575 -91 
Q 1294 -91 989 -36 
Q 684 19 347 128 
L 347 722 
Q 666 556 975 473 
Q 1284 391 1588 391 
Q 1994 391 2212 530 
Q 2431 669 2431 922 
Q 2431 1156 2273 1281 
Q 2116 1406 1581 1522 
L 1381 1569 
Q 847 1681 609 1914 
Q 372 2147 372 2553 
Q 372 3047 722 3315 
Q 1072 3584 1716 3584 
Q 2034 3584 2315 3537 
Q 2597 3491 2834 3397 
z
" transform="scale(0.015625)"/>
       <path id="DejaVuSans-72" d="M 2631 2963 
Q 2534 3019 2420 3045 
Q 2306 3072 2169 3072 
Q 1681 3072 1420 2755 
Q 1159 2438 1159 1844 
L 1159 0 
L 581 0 
L 581 3500 
L 1159 3500 
L 1159 2956 
Q 1341 3275 1631 3429 
Q 1922 3584 2338 3584 
Q 2397 3584 2469 3576 
Q 2541 3569 2628 3553 
L 2631 2963 
z
" transform="scale(0.015625)"/>
       <path id="DejaVuSans-70" d="M 1159 525 
L 1159 -1331 
L 581 -1331 
L 581 3500 
L 1159 3500 
L 1159 2969 
Q 1341 3281 1617 3432 
Q 1894 3584 2278 3584 
Q 2916 3584 3314 3078 
Q 3713 2572 3713 1747 
Q 3713 922 3314 415 
Q 2916 -91 2278 -91 
Q 1894 -91 1617 61 
Q 1341 213 1159 525 
z
M 3116 1747 
Q 3116 2381 2855 2742 
Q 2594 3103 2138 3103 
Q 1681 3103 1420 2742 
Q 1159 2381 1159 1747 
Q 1159 1113 1420 752 
Q 1681 391 2138 391 
Q 2594 391 2855 752 
Q 3116 1113 3116 1747 
z
" transform="scale(0.015625)"/>
       <path id="DejaVuSans-69" d="M 603 3500 
L 1178 3500 
L 1178 0 
L 603 0 
L 603 3500 
z
M 603 4863 
L 1178 4863 
L 1178 4134 
L 603 4134 
L 603 4863 
z
" transform="scale(0.015625)"/>
       <path id="DejaVuSans-61" d="M 2194 1759 
Q 1497 1759 1228 1600 
Q 959 1441 959 1056 
Q 959 750 1161 570 
Q 1363 391 1709 391 
Q 2188 391 2477 730 
Q 2766 1069 2766 1631 
L 2766 1759 
L 2194 1759 
z
M 3341 1997 
L 3341 0 
L 2766 0 
L 2766 531 
Q 2569 213 2275 61 
Q 1981 -91 1556 -91 
Q 1019 -91 701 211 
Q 384 513 384 1019 
Q 384 1609 779 1909 
Q 1175 2209 1959 2209 
L 2766 2209 
L 2766 2266 
Q 2766 2663 2505 2880 
Q 2244 3097 1772 3097 
Q 1472 3097 1187 3025 
Q 903 2953 641 2809 
L 641 3341 
Q 956 3463 1253 3523 
Q 1550 3584 1831 3584 
Q 2591 3584 2966 3190 
Q 3341 2797 3341 1997 
z
" transform="scale(0.015625)"/>
       <path id="DejaVuSans-28" d="M 1984 4856 
Q 1566 4138 1362 3434 
Q 1159 2731 1159 2009 
Q 1159 1288 1364 580 
Q 1569 -128 1984 -844 
L 1484 -844 
Q 1016 -109 783 600 
Q 550 1309 550 2009 
Q 550 2706 781 3412 
Q 1013 4119 1484 4856 
L 1984 4856 
z
" transform="scale(0.015625)"/>
       <path id="DejaVuSans-6d" d="M 3328 2828 
Q 3544 3216 3844 3400 
Q 4144 3584 4550 3584 
Q 5097 3584 5394 3201 
Q 5691 2819 5691 2113 
L 5691 0 
L 5113 0 
L 5113 2094 
Q 5113 2597 4934 2840 
Q 4756 3084 4391 3084 
Q 3944 3084 3684 2787 
Q 3425 2491 3425 1978 
L 3425 0 
L 2847 0 
L 2847 2094 
Q 2847 2600 2669 2842 
Q 2491 3084 2119 3084 
Q 1678 3084 1418 2786 
Q 1159 2488 1159 1978 
L 1159 0 
L 581 0 
L 581 3500 
L 1159 3500 
L 1159 2956 
Q 1356 3278 1631 3431 
Q 1906 3584 2284 3584 
Q 2666 3584 2933 3390 
Q 3200 3197 3328 2828 
z
" transform="scale(0.015625)"/>
       <path id="DejaVuSans-74" d="M 1172 4494 
L 1172 3500 
L 2356 3500 
L 2356 3053 
L 1172 3053 
L 1172 1153 
Q 1172 725 1289 603 
Q 1406 481 1766 481 
L 2356 481 
L 2356 0 
L 1766 0 
Q 1100 0 847 248 
Q 594 497 594 1153 
L 594 3053 
L 172 3053 
L 172 3500 
L 594 3500 
L 594 4494 
L 1172 4494 
z
" transform="scale(0.015625)"/>
       <path id="DejaVuSans-29" d="M 513 4856 
L 1013 4856 
Q 1481 4119 1714 3412 
Q 1947 2706 1947 2009 
Q 1947 1309 1714 600 
Q 1481 -109 1013 -844 
L 513 -844 
Q 928 -128 1133 580 
Q 1338 1288 1338 2009 
Q 1338 2731 1133 3434 
Q 928 4138 513 4856 
z
" transform="scale(0.015625)"/>
      </defs>
      <use xlink:href="#DejaVuSans-49"/>
      <use xlink:href="#DejaVuSans-6e" x="29.492188"/>
      <use xlink:href="#DejaVuSans-66" x="92.871094"/>
      <use xlink:href="#DejaVuSans-6c" x="128.076172"/>
      <use xlink:href="#DejaVuSans-75" x="155.859375"/>
      <use xlink:href="#DejaVuSans-65" x="219.238281"/>
      <use xlink:href="#DejaVuSans-6e" x="280.761719"/>
      <use xlink:href="#DejaVuSans-63" x="344.140625"/>
      <use xlink:href="#DejaVuSans-65" x="399.121094"/>
      <use xlink:href="#DejaVuSans-20" x="460.644531"/>
      <use xlink:href="#DejaVuSans-6f" x="492.431641"/>
      <use xlink:href="#DejaVuSans-66" x="553.613281"/>
      <use xlink:href="#DejaVuSans-20" x="588.818359"/>
      <use xlink:href="#DejaVuSans-73" x="620.605469"/>
      <use xlink:href="#DejaVuSans-75" x="672.705078"/>
      <use xlink:href="#DejaVuSans-72" x="736.083984"/>
      <use xlink:href="#DejaVuSans-70" x="777.197266"/>
      <use xlink:href="#DejaVuSans-72" x="840.673828"/>
      <use xlink:href="#DejaVuSans-69" x="881.787109"/>
      <use xlink:href="#DejaVuSans-73" x="909.570312"/>
      <use xlink:href="#DejaVuSans-61" x="961.669922"/>
      <use xlink:href="#DejaVuSans-6c" x="1022.949219"/>
      <use xlink:href="#DejaVuSans-20" x="1050.732422"/>
      <use xlink:href="#DejaVuSans-28" x="1082.519531"/>
      <use xlink:href="#DejaVuSans-6d" x="1121.533203"/>
      <use xlink:href="#DejaVuSans-75" x="1218.945312"/>
      <use xlink:href="#DejaVuSans-6c" x="1282.324219"/>
      <use xlink:href="#DejaVuSans-74" x="1310.107422"/>
      <use xlink:href="#DejaVuSans-69" x="1349.316406"/>
      <use xlink:href="#DejaVuSans-70" x="1377.099609"/>
      <use xlink:href="#DejaVuSans-6c" x="1440.576172"/>
      <use xlink:href="#DejaVuSans-69" x="1468.359375"/>
      <use xlink:href="#DejaVuSans-63" x="1496.142578"/>
      <use xlink:href="#DejaVuSans-61" x="1551.123047"/>
      <use xlink:href="#DejaVuSans-74" x="1612.402344"/>
      <use xlink:href="#DejaVuSans-69" x="1651.611328"/>
      <use xlink:href="#DejaVuSans-6f" x="1679.394531"/>
      <use xlink:href="#DejaVuSans-6e" x="1740.576172"/>
      <use xlink:href="#DejaVuSans-29" x="1803.955078"/>
     </g>
    </g>
   </g>
   <g id="matplotlib.axis_2">
    <g id="ytick_1">
     <g id="line2d_6">
      <defs>
       <path id="me6f209ac7c" d="M 0 0 
L -3.5 0 
" style="stroke: #000000; stroke-width: 0.8"/>
      </defs>
      <g>
       <use xlink:href="#me6f209ac7c" x="47.72" y="157.991745" style="stroke: #000000; stroke-width: 0.8"/>
      </g>
     </g>
     <g id="text_7">
      <!-- 0.2 -->
      <g transform="translate(24.816875 161.790964)scale(0.1 -0.1)">
       <use xlink:href="#DejaVuSans-30"/>
       <use xlink:href="#DejaVuSans-2e" x="63.623047"/>
       <use xlink:href="#DejaVuSans-32" x="95.410156"/>
      </g>
     </g>
    </g>
    <g id="ytick_2">
     <g id="line2d_7">
      <g>
       <use xlink:href="#me6f209ac7c" x="47.72" y="126.94637" style="stroke: #000000; stroke-width: 0.8"/>
      </g>
     </g>
     <g id="text_8">
      <!-- 0.4 -->
      <g transform="translate(24.816875 130.745589)scale(0.1 -0.1)">
       <defs>
        <path id="DejaVuSans-34" d="M 2419 4116 
L 825 1625 
L 2419 1625 
L 2419 4116 
z
M 2253 4666 
L 3047 4666 
L 3047 1625 
L 3713 1625 
L 3713 1100 
L 3047 1100 
L 3047 0 
L 2419 0 
L 2419 1100 
L 313 1100 
L 313 1709 
L 2253 4666 
z
" transform="scale(0.015625)"/>
       </defs>
       <use xlink:href="#DejaVuSans-30"/>
       <use xlink:href="#DejaVuSans-2e" x="63.623047"/>
       <use xlink:href="#DejaVuSans-34" x="95.410156"/>
      </g>
     </g>
    </g>
    <g id="ytick_3">
     <g id="line2d_8">
      <g>
       <use xlink:href="#me6f209ac7c" x="47.72" y="95.900995" style="stroke: #000000; stroke-width: 0.8"/>
      </g>
     </g>
     <g id="text_9">
      <!-- 0.6 -->
      <g transform="translate(24.816875 99.700213)scale(0.1 -0.1)">
       <defs>
        <path id="DejaVuSans-36" d="M 2113 2584 
Q 1688 2584 1439 2293 
Q 1191 2003 1191 1497 
Q 1191 994 1439 701 
Q 1688 409 2113 409 
Q 2538 409 2786 701 
Q 3034 994 3034 1497 
Q 3034 2003 2786 2293 
Q 2538 2584 2113 2584 
z
M 3366 4563 
L 3366 3988 
Q 3128 4100 2886 4159 
Q 2644 4219 2406 4219 
Q 1781 4219 1451 3797 
Q 1122 3375 1075 2522 
Q 1259 2794 1537 2939 
Q 1816 3084 2150 3084 
Q 2853 3084 3261 2657 
Q 3669 2231 3669 1497 
Q 3669 778 3244 343 
Q 2819 -91 2113 -91 
Q 1303 -91 875 529 
Q 447 1150 447 2328 
Q 447 3434 972 4092 
Q 1497 4750 2381 4750 
Q 2619 4750 2861 4703 
Q 3103 4656 3366 4563 
z
" transform="scale(0.015625)"/>
       </defs>
       <use xlink:href="#DejaVuSans-30"/>
       <use xlink:href="#DejaVuSans-2e" x="63.623047"/>
       <use xlink:href="#DejaVuSans-36" x="95.410156"/>
      </g>
     </g>
    </g>
    <g id="ytick_4">
     <g id="line2d_9">
      <g>
       <use xlink:href="#me6f209ac7c" x="47.72" y="64.855619" style="stroke: #000000; stroke-width: 0.8"/>
      </g>
     </g>
     <g id="text_10">
      <!-- 0.8 -->
      <g transform="translate(24.816875 68.654838)scale(0.1 -0.1)">
       <defs>
        <path id="DejaVuSans-38" d="M 2034 2216 
Q 1584 2216 1326 1975 
Q 1069 1734 1069 1313 
Q 1069 891 1326 650 
Q 1584 409 2034 409 
Q 2484 409 2743 651 
Q 3003 894 3003 1313 
Q 3003 1734 2745 1975 
Q 2488 2216 2034 2216 
z
M 1403 2484 
Q 997 2584 770 2862 
Q 544 3141 544 3541 
Q 544 4100 942 4425 
Q 1341 4750 2034 4750 
Q 2731 4750 3128 4425 
Q 3525 4100 3525 3541 
Q 3525 3141 3298 2862 
Q 3072 2584 2669 2484 
Q 3125 2378 3379 2068 
Q 3634 1759 3634 1313 
Q 3634 634 3220 271 
Q 2806 -91 2034 -91 
Q 1263 -91 848 271 
Q 434 634 434 1313 
Q 434 1759 690 2068 
Q 947 2378 1403 2484 
z
M 1172 3481 
Q 1172 3119 1398 2916 
Q 1625 2713 2034 2713 
Q 2441 2713 2670 2916 
Q 2900 3119 2900 3481 
Q 2900 3844 2670 4047 
Q 2441 4250 2034 4250 
Q 1625 4250 1398 4047 
Q 1172 3844 1172 3481 
z
" transform="scale(0.015625)"/>
       </defs>
       <use xlink:href="#DejaVuSans-30"/>
       <use xlink:href="#DejaVuSans-2e" x="63.623047"/>
       <use xlink:href="#DejaVuSans-38" x="95.410156"/>
      </g>
     </g>
    </g>
    <g id="ytick_5">
     <g id="line2d_10">
      <g>
       <use xlink:href="#me6f209ac7c" x="47.72" y="33.810244" style="stroke: #000000; stroke-width: 0.8"/>
      </g>
     </g>
     <g id="text_11">
      <!-- 1.0 -->
      <g transform="translate(24.816875 37.609463)scale(0.1 -0.1)">
       <use xlink:href="#DejaVuSans-31"/>
       <use xlink:href="#DejaVuSans-2e" x="63.623047"/>
       <use xlink:href="#DejaVuSans-30" x="95.410156"/>
      </g>
     </g>
    </g>
    <g id="text_12">
     <!-- R-value -->
     <g transform="translate(18.737188 119.064687)rotate(-90)scale(0.1 -0.1)">
      <defs>
       <path id="DejaVuSans-52" d="M 2841 2188 
Q 3044 2119 3236 1894 
Q 3428 1669 3622 1275 
L 4263 0 
L 3584 0 
L 2988 1197 
Q 2756 1666 2539 1819 
Q 2322 1972 1947 1972 
L 1259 1972 
L 1259 0 
L 628 0 
L 628 4666 
L 2053 4666 
Q 2853 4666 3247 4331 
Q 3641 3997 3641 3322 
Q 3641 2881 3436 2590 
Q 3231 2300 2841 2188 
z
M 1259 4147 
L 1259 2491 
L 2053 2491 
Q 2509 2491 2742 2702 
Q 2975 2913 2975 3322 
Q 2975 3731 2742 3939 
Q 2509 4147 2053 4147 
L 1259 4147 
z
" transform="scale(0.015625)"/>
       <path id="DejaVuSans-2d" d="M 313 2009 
L 1997 2009 
L 1997 1497 
L 313 1497 
L 313 2009 
z
" transform="scale(0.015625)"/>
       <path id="DejaVuSans-76" d="M 191 3500 
L 800 3500 
L 1894 563 
L 2988 3500 
L 3597 3500 
L 2284 0 
L 1503 0 
L 191 3500 
z
" transform="scale(0.015625)"/>
      </defs>
      <use xlink:href="#DejaVuSans-52"/>
      <use xlink:href="#DejaVuSans-2d" x="65.482422"/>
      <use xlink:href="#DejaVuSans-76" x="98.941406"/>
      <use xlink:href="#DejaVuSans-61" x="158.121094"/>
      <use xlink:href="#DejaVuSans-6c" x="219.400391"/>
      <use xlink:href="#DejaVuSans-75" x="247.183594"/>
      <use xlink:href="#DejaVuSans-65" x="310.5625"/>
     </g>
    </g>
   </g>
   <g id="line2d_11">
    <path d="M 47.72 33.810244 
L 59.167105 35.764039 
L 70.614211 41.507585 
L 82.061316 47.991921 
L 93.508421 57.099536 
L 104.955526 65.640575 
L 116.402632 75.639405 
L 127.849737 84.968916 
L 139.296842 93.995454 
L 150.743947 102.185766 
L 162.191053 110.523915 
L 173.638158 117.426009 
L 185.085263 124.23426 
L 196.532368 129.037837 
L 207.979474 134.919771 
L 219.426579 138.605542 
L 230.873684 142.767168 
L 242.320789 146.066625 
L 253.767895 149.124737 
L 265.215 152.024282 
" clip-path="url(#p98e8d838a3)" style="fill: none; stroke: #1f77b4; stroke-width: 1.5; stroke-linecap: square"/>
   </g>
   <g id="line2d_12">
    <path d="M 47.72 33.810393 
L 59.167105 35.100489 
L 70.614211 38.290782 
L 82.061316 42.275488 
L 93.508421 48.292436 
L 104.955526 54.456466 
L 116.402632 62.312492 
L 127.849737 70.195061 
L 139.296842 78.332234 
L 150.743947 86.001336 
L 162.191053 93.924677 
L 173.638158 100.819683 
L 185.085263 107.997629 
L 196.532368 113.255028 
L 207.979474 119.766602 
L 219.426579 124.310649 
L 230.873684 129.416979 
L 242.320789 133.532387 
L 253.767895 137.670527 
L 265.215 141.370189 
" clip-path="url(#p98e8d838a3)" style="fill: none; stroke: #ff7f0e; stroke-width: 1.5; stroke-linecap: square"/>
   </g>
   <g id="line2d_13">
    <path d="M 47.72 33.810244 
L 59.167105 35.368774 
L 70.614211 38.163214 
L 82.061316 41.183756 
L 93.508421 44.839457 
L 104.955526 48.802654 
L 116.402632 53.232846 
L 127.849737 57.658786 
L 139.296842 62.049243 
L 150.743947 66.684612 
L 162.191053 70.739751 
L 173.638158 74.852351 
L 185.085263 79.8432 
L 196.532368 83.762908 
L 207.979474 89.055159 
L 219.426579 92.934063 
L 230.873684 97.488947 
L 242.320789 101.287038 
L 253.767895 105.669526 
L 265.215 109.601341 
" clip-path="url(#p98e8d838a3)" style="fill: none; stroke: #2ca02c; stroke-width: 1.5; stroke-linecap: square"/>
   </g>
   <g id="line2d_14">
    <path d="M 47.72 33.811034 
L 59.167105 35.06092 
L 70.614211 37.227078 
L 82.061316 39.729586 
L 93.508421 42.996489 
L 104.955526 46.622554 
L 116.402632 50.982569 
L 127.849737 55.553743 
L 139.296842 60.191354 
L 150.743947 65.067025 
L 162.191053 69.371576 
L 173.638158 73.739369 
L 185.085263 78.979059 
L 196.532368 83.016126 
L 207.979474 88.402666 
L 219.426579 92.281476 
L 230.873684 96.744218 
L 242.320789 100.342832 
L 253.767895 104.509692 
L 265.215 108.188322 
" clip-path="url(#p98e8d838a3)" style="fill: none; stroke: #d62728; stroke-width: 1.5; stroke-linecap: square"/>
   </g>
   <g id="line2d_15">
    <path d="M 47.72 33.810244 
L 59.167105 35.76502 
L 70.614211 41.508628 
L 82.061316 48.048395 
L 93.508421 57.119953 
L 104.955526 65.709968 
L 116.402632 76.052929 
L 127.849737 85.03252 
L 139.296842 93.900713 
L 150.743947 102.327652 
L 162.191053 111.470157 
L 173.638158 118.189354 
L 185.085263 124.446565 
L 196.532368 129.981114 
L 207.979474 135.016901 
L 219.426579 138.876124 
L 230.873684 143.796378 
L 242.320789 146.690344 
L 253.767895 149.744281 
L 265.215 152.878563 
" clip-path="url(#p98e8d838a3)" style="fill: none; stroke: #9467bd; stroke-width: 1.5; stroke-linecap: square"/>
   </g>
   <g id="line2d_16">
    <path d="M 47.72 33.81084 
L 59.167105 35.102777 
L 70.614211 38.30827 
L 82.061316 42.300024 
L 93.508421 48.361106 
L 104.955526 54.518918 
L 116.402632 62.528389 
L 127.849737 70.192821 
L 139.296842 78.320622 
L 150.743947 86.035051 
L 162.191053 94.444353 
L 173.638158 101.387598 
L 185.085263 108.332442 
L 196.532368 113.837617 
L 207.979474 119.860405 
L 219.426579 124.585935 
L 230.873684 130.419512 
L 242.320789 134.062262 
L 253.767895 138.178408 
L 265.215 142.21172 
" clip-path="url(#p98e8d838a3)" style="fill: none; stroke: #8c564b; stroke-width: 1.5; stroke-linecap: square"/>
   </g>
   <g id="line2d_17">
    <path d="M 47.72 46.668997 
L 59.167105 49.792514 
L 70.614211 56.879639 
L 82.061316 65.094252 
L 93.508421 74.930615 
L 104.955526 84.572027 
L 116.402632 95.103966 
L 127.849737 104.751108 
L 139.296842 113.357206 
L 150.743947 121.289711 
L 162.191053 129.232093 
L 173.638158 135.443429 
L 185.085263 141.714587 
L 196.532368 146.229079 
L 207.979474 151.272608 
L 219.426579 154.526093 
L 230.873684 157.869438 
L 242.320789 160.522723 
L 253.767895 162.75814 
L 265.215 164.84832 
" clip-path="url(#p98e8d838a3)" style="fill: none; stroke: #e377c2; stroke-width: 1.5; stroke-linecap: square"/>
   </g>
   <g id="line2d_18">
    <path d="M 47.72 33.810587 
L 59.167105 34.454764 
L 70.614211 35.732488 
L 82.061316 38.230309 
L 93.508421 42.021031 
L 104.955526 46.650644 
L 116.402632 53.021157 
L 127.849737 60.127353 
L 139.296842 67.424808 
L 150.743947 74.90791 
L 162.191053 82.222721 
L 173.638158 89.346832 
L 185.085263 96.936621 
L 196.532368 102.619666 
L 207.979474 109.88729 
L 219.426579 115.261951 
L 230.873684 121.261089 
L 242.320789 126.122653 
L 253.767895 130.910423 
L 265.215 135.214242 
" clip-path="url(#p98e8d838a3)" style="fill: none; stroke: #7f7f7f; stroke-width: 1.5; stroke-linecap: square"/>
   </g>
   <g id="patch_3">
    <path d="M 47.72 174.04 
L 47.72 26.88 
" style="fill: none; stroke: #000000; stroke-width: 0.8; stroke-linejoin: miter; stroke-linecap: square"/>
   </g>
   <g id="patch_4">
    <path d="M 47.72 174.04 
L 265.215 174.04 
" style="fill: none; stroke: #000000; stroke-width: 0.8; stroke-linejoin: miter; stroke-linecap: square"/>
   </g>
   <g id="text_13">
    <!-- Node * surprisal -->
    <g transform="translate(108.18625 20.88)scale(0.12 -0.12)">
     <defs>
      <path id="DejaVuSans-4e" d="M 628 4666 
L 1478 4666 
L 3547 763 
L 3547 4666 
L 4159 4666 
L 4159 0 
L 3309 0 
L 1241 3903 
L 1241 0 
L 628 0 
L 628 4666 
z
" transform="scale(0.015625)"/>
      <path id="DejaVuSans-64" d="M 2906 2969 
L 2906 4863 
L 3481 4863 
L 3481 0 
L 2906 0 
L 2906 525 
Q 2725 213 2448 61 
Q 2172 -91 1784 -91 
Q 1150 -91 751 415 
Q 353 922 353 1747 
Q 353 2572 751 3078 
Q 1150 3584 1784 3584 
Q 2172 3584 2448 3432 
Q 2725 3281 2906 2969 
z
M 947 1747 
Q 947 1113 1208 752 
Q 1469 391 1925 391 
Q 2381 391 2643 752 
Q 2906 1113 2906 1747 
Q 2906 2381 2643 2742 
Q 2381 3103 1925 3103 
Q 1469 3103 1208 2742 
Q 947 2381 947 1747 
z
" transform="scale(0.015625)"/>
      <path id="DejaVuSans-2a" d="M 3009 3897 
L 1888 3291 
L 3009 2681 
L 2828 2375 
L 1778 3009 
L 1778 1831 
L 1422 1831 
L 1422 3009 
L 372 2375 
L 191 2681 
L 1313 3291 
L 191 3897 
L 372 4206 
L 1422 3572 
L 1422 4750 
L 1778 4750 
L 1778 3572 
L 2828 4206 
L 3009 3897 
z
" transform="scale(0.015625)"/>
     </defs>
     <use xlink:href="#DejaVuSans-4e"/>
     <use xlink:href="#DejaVuSans-6f" x="74.804688"/>
     <use xlink:href="#DejaVuSans-64" x="135.986328"/>
     <use xlink:href="#DejaVuSans-65" x="199.462891"/>
     <use xlink:href="#DejaVuSans-20" x="260.986328"/>
     <use xlink:href="#DejaVuSans-2a" x="292.773438"/>
     <use xlink:href="#DejaVuSans-20" x="342.773438"/>
     <use xlink:href="#DejaVuSans-73" x="374.560547"/>
     <use xlink:href="#DejaVuSans-75" x="426.660156"/>
     <use xlink:href="#DejaVuSans-72" x="490.039062"/>
     <use xlink:href="#DejaVuSans-70" x="531.152344"/>
     <use xlink:href="#DejaVuSans-72" x="594.628906"/>
     <use xlink:href="#DejaVuSans-69" x="635.742188"/>
     <use xlink:href="#DejaVuSans-73" x="663.525391"/>
     <use xlink:href="#DejaVuSans-61" x="715.625"/>
     <use xlink:href="#DejaVuSans-6c" x="776.904297"/>
    </g>
   </g>
  </g>
  <g id="axes_2">
   <g id="patch_5">
    <path d="M 298.065 174.04 
L 515.56 174.04 
L 515.56 26.88 
L 298.065 26.88 
z
" style="fill: #ffffff"/>
   </g>
   <g id="PolyCollection_9">
    <path d="M 298.065 33.810244 
L 298.065 33.810244 
L 309.512105 36.272208 
L 320.959211 42.854824 
L 332.406316 51.32517 
L 343.853421 60.632018 
L 355.300526 70.116453 
L 366.747632 80.367664 
L 378.194737 90.504726 
L 389.641842 100.161232 
L 401.088947 109.786371 
L 412.536053 118.263297 
L 423.983158 125.720244 
L 435.430263 132.663529 
L 446.877368 138.352247 
L 458.324474 143.272976 
L 469.771579 147.521887 
L 481.218684 151.617976 
L 492.665789 155.154377 
L 504.112895 158.87106 
L 515.56 161.132299 
L 515.56 148.427273 
L 515.56 148.427273 
L 504.112895 145.001703 
L 492.665789 141.740065 
L 481.218684 137.148636 
L 469.771579 132.892916 
L 458.324474 128.432563 
L 446.877368 123.099596 
L 435.430263 118.580319 
L 423.983158 112.331264 
L 412.536053 105.632037 
L 401.088947 98.458454 
L 389.641842 91.068802 
L 378.194737 81.78346 
L 366.747632 72.67309 
L 355.300526 63.824326 
L 343.853421 54.457307 
L 332.406316 46.478546 
L 320.959211 39.865091 
L 309.512105 35.371934 
L 298.065 33.810244 
z
" clip-path="url(#p4e277bf7a9)" style="fill: #1f77b4; fill-opacity: 0.4"/>
   </g>
   <g id="PolyCollection_10">
    <path d="M 298.065 33.810359 
L 298.065 33.810427 
L 309.512105 36.273332 
L 320.959211 42.853756 
L 332.406316 51.333211 
L 343.853421 60.637653 
L 355.300526 70.149096 
L 366.747632 80.416944 
L 378.194737 90.594999 
L 389.641842 100.251709 
L 401.088947 109.920046 
L 412.536053 118.39867 
L 423.983158 125.964919 
L 435.430263 132.966469 
L 446.877368 138.816443 
L 458.324474 143.79088 
L 469.771579 148.118232 
L 481.218684 152.230525 
L 492.665789 155.766842 
L 504.112895 159.514314 
L 515.56 161.807735 
L 515.56 147.902709 
L 515.56 147.902709 
L 504.112895 144.516576 
L 492.665789 141.086399 
L 481.218684 136.62903 
L 469.771579 132.529122 
L 458.324474 128.027914 
L 446.877368 122.804399 
L 435.430263 118.471789 
L 423.983158 112.208186 
L 412.536053 105.634488 
L 401.088947 98.503959 
L 389.641842 91.100415 
L 378.194737 81.825152 
L 366.747632 72.69847 
L 355.300526 63.852089 
L 343.853421 54.47501 
L 332.406316 46.485343 
L 320.959211 39.870924 
L 309.512105 35.374208 
L 298.065 33.810359 
z
" clip-path="url(#p4e277bf7a9)" style="fill: #ff7f0e; fill-opacity: 0.4"/>
   </g>
   <g id="PolyCollection_11">
    <path d="M 298.065 33.810244 
L 298.065 33.810244 
L 309.512105 36.277685 
L 320.959211 42.85552 
L 332.406316 51.339211 
L 343.853421 60.678752 
L 355.300526 70.183758 
L 366.747632 80.432502 
L 378.194737 90.459096 
L 389.641842 100.069118 
L 401.088947 109.760936 
L 412.536053 118.218272 
L 423.983158 125.790013 
L 435.430263 132.835725 
L 446.877368 138.709847 
L 458.324474 143.775148 
L 469.771579 148.31117 
L 481.218684 152.210123 
L 492.665789 155.98451 
L 504.112895 159.711159 
L 515.56 162.053617 
L 515.56 149.209673 
L 515.56 149.209673 
L 504.112895 145.706415 
L 492.665789 141.982641 
L 481.218684 137.479702 
L 469.771579 133.189115 
L 458.324474 128.527592 
L 446.877368 123.295672 
L 435.430263 118.847168 
L 423.983158 112.528696 
L 412.536053 105.795969 
L 401.088947 98.535681 
L 389.641842 91.186023 
L 378.194737 81.88309 
L 366.747632 72.72579 
L 355.300526 63.827866 
L 343.853421 54.46812 
L 332.406316 46.493417 
L 320.959211 39.874626 
L 309.512105 35.374477 
L 298.065 33.810244 
z
" clip-path="url(#p4e277bf7a9)" style="fill: #2ca02c; fill-opacity: 0.4"/>
   </g>
   <g id="PolyCollection_12">
    <path d="M 298.065 33.810836 
L 298.065 33.811231 
L 309.512105 36.277646 
L 320.959211 42.846842 
L 332.406316 51.324738 
L 343.853421 60.652822 
L 355.300526 70.179807 
L 366.747632 80.429797 
L 378.194737 90.502959 
L 389.641842 100.099889 
L 401.088947 109.817136 
L 412.536053 118.333738 
L 423.983158 125.979933 
L 435.430263 133.085265 
L 446.877368 139.125675 
L 458.324474 144.229359 
L 469.771579 148.84943 
L 481.218684 152.807941 
L 492.665789 156.50873 
L 504.112895 160.22083 
L 515.56 162.496439 
L 515.56 149.160569 
L 515.56 149.160569 
L 504.112895 145.621776 
L 492.665789 141.779494 
L 481.218684 137.198629 
L 469.771579 133.012477 
L 458.324474 128.39427 
L 446.877368 123.150501 
L 435.430263 118.798853 
L 423.983158 112.467182 
L 412.536053 105.835026 
L 401.088947 98.599519 
L 389.641842 91.253991 
L 378.194737 81.963506 
L 366.747632 72.818011 
L 355.300526 63.900706 
L 343.853421 54.531418 
L 332.406316 46.528085 
L 320.959211 39.892079 
L 309.512105 35.380212 
L 298.065 33.810836 
z
" clip-path="url(#p4e277bf7a9)" style="fill: #d62728; fill-opacity: 0.4"/>
   </g>
   <g id="PolyCollection_13">
    <path d="M 298.065 33.810244 
L 298.065 33.810244 
L 309.512105 36.268509 
L 320.959211 42.872427 
L 332.406316 51.327215 
L 343.853421 60.730225 
L 355.300526 69.960707 
L 366.747632 80.547206 
L 378.194737 90.612123 
L 389.641842 100.601858 
L 401.088947 109.888768 
L 412.536053 118.186848 
L 423.983158 126.089836 
L 435.430263 132.455408 
L 446.877368 138.904912 
L 458.324474 143.801335 
L 469.771579 148.081566 
L 481.218684 152.362848 
L 492.665789 155.792562 
L 504.112895 160.234245 
L 515.56 161.366704 
L 515.56 147.967502 
L 515.56 147.967502 
L 504.112895 145.513264 
L 492.665789 142.25022 
L 481.218684 138.871775 
L 469.771579 133.852728 
L 458.324474 129.20767 
L 446.877368 122.957645 
L 435.430263 119.237132 
L 423.983158 111.958621 
L 412.536053 106.343266 
L 401.088947 98.417959 
L 389.641842 91.155012 
L 378.194737 81.979493 
L 366.747632 72.772431 
L 355.300526 63.850922 
L 343.853421 54.468704 
L 332.406316 46.472009 
L 320.959211 39.897721 
L 309.512105 35.376127 
L 298.065 33.810244 
z
" clip-path="url(#p4e277bf7a9)" style="fill: #9467bd; fill-opacity: 0.4"/>
   </g>
   <g id="PolyCollection_14">
    <path d="M 298.065 33.810703 
L 298.065 33.810979 
L 309.512105 36.269848 
L 320.959211 42.871133 
L 332.406316 51.33417 
L 343.853421 60.732564 
L 355.300526 69.993958 
L 366.747632 80.599827 
L 378.194737 90.713067 
L 389.641842 100.696385 
L 401.088947 110.011771 
L 412.536053 118.329307 
L 423.983158 126.287549 
L 435.430263 132.769545 
L 446.877368 139.369553 
L 458.324474 144.335348 
L 469.771579 148.676865 
L 481.218684 152.946461 
L 492.665789 156.355962 
L 504.112895 160.831602 
L 515.56 162.030824 
L 515.56 147.497256 
L 515.56 147.497256 
L 504.112895 145.054038 
L 492.665789 141.599599 
L 481.218684 138.354472 
L 469.771579 133.477188 
L 458.324474 128.784769 
L 446.877368 122.661663 
L 435.430263 119.121532 
L 423.983158 111.863974 
L 412.536053 106.336199 
L 401.088947 98.465731 
L 389.641842 91.199843 
L 378.194737 82.026914 
L 366.747632 72.807141 
L 355.300526 63.886227 
L 343.853421 54.493159 
L 332.406316 46.484895 
L 320.959211 39.907117 
L 309.512105 35.379512 
L 298.065 33.810703 
z
" clip-path="url(#p4e277bf7a9)" style="fill: #8c564b; fill-opacity: 0.4"/>
   </g>
   <g id="PolyCollection_15">
    <path d="M 298.065 43.493456 
L 298.065 49.844539 
L 309.512105 51.656685 
L 320.959211 56.451482 
L 332.406316 63.578056 
L 343.853421 72.013797 
L 355.300526 81.291432 
L 366.747632 90.3041 
L 378.194737 100.253681 
L 389.641842 108.971512 
L 401.088947 118.268231 
L 412.536053 125.546528 
L 423.983158 132.302391 
L 435.430263 138.798388 
L 446.877368 143.693985 
L 458.324474 147.994803 
L 469.771579 151.738074 
L 481.218684 155.218481 
L 492.665789 158.401949 
L 504.112895 161.756334 
L 515.56 163.771341 
L 515.56 152.939158 
L 515.56 152.939158 
L 504.112895 149.982079 
L 492.665789 147.04683 
L 481.218684 142.719974 
L 469.771579 138.37488 
L 458.324474 134.357121 
L 446.877368 129.156716 
L 435.430263 124.096442 
L 423.983158 118.754661 
L 412.536053 112.634472 
L 401.088947 105.418774 
L 389.641842 98.513213 
L 378.194737 89.939858 
L 366.747632 81.912509 
L 355.300526 73.330237 
L 343.853421 64.879743 
L 332.406316 57.485371 
L 320.959211 50.815801 
L 309.512105 45.338127 
L 298.065 43.493456 
z
" clip-path="url(#p4e277bf7a9)" style="fill: #e377c2; fill-opacity: 0.4"/>
   </g>
   <g id="PolyCollection_16">
    <path d="M 298.065 33.810443 
L 298.065 33.810731 
L 309.512105 36.277537 
L 320.959211 42.828771 
L 332.406316 51.338722 
L 343.853421 60.7205 
L 355.300526 70.21267 
L 366.747632 80.489011 
L 378.194737 90.624317 
L 389.641842 100.188845 
L 401.088947 109.848291 
L 412.536053 118.143716 
L 423.983158 125.711023 
L 435.430263 132.645645 
L 446.877368 138.438836 
L 458.324474 143.499708 
L 469.771579 147.732948 
L 481.218684 151.850257 
L 492.665789 155.306457 
L 504.112895 159.023237 
L 515.56 161.372293 
L 515.56 149.013151 
L 515.56 149.013151 
L 504.112895 145.411595 
L 492.665789 141.984393 
L 481.218684 137.37627 
L 469.771579 133.411395 
L 458.324474 128.650134 
L 446.877368 123.588509 
L 435.430263 119.14847 
L 423.983158 112.751545 
L 412.536053 106.121339 
L 401.088947 98.726636 
L 389.641842 91.236883 
L 378.194737 81.875491 
L 366.747632 72.758399 
L 355.300526 63.838879 
L 343.853421 54.511136 
L 332.406316 46.50381 
L 320.959211 39.884086 
L 309.512105 35.382205 
L 298.065 33.810443 
z
" clip-path="url(#p4e277bf7a9)" style="fill: #7f7f7f; fill-opacity: 0.4"/>
   </g>
   <g id="matplotlib.axis_3">
    <g id="xtick_6">
     <g id="line2d_19">
      <g>
       <use xlink:href="#m0d0c97550d" x="298.065" y="174.04" style="stroke: #000000; stroke-width: 0.8"/>
      </g>
     </g>
     <g id="text_14">
      <!-- 0.0 -->
      <g transform="translate(290.113437 188.638438)scale(0.1 -0.1)">
       <use xlink:href="#DejaVuSans-30"/>
       <use xlink:href="#DejaVuSans-2e" x="63.623047"/>
       <use xlink:href="#DejaVuSans-30" x="95.410156"/>
      </g>
     </g>
    </g>
    <g id="xtick_7">
     <g id="line2d_20">
      <g>
       <use xlink:href="#m0d0c97550d" x="352.43875" y="174.04" style="stroke: #000000; stroke-width: 0.8"/>
      </g>
     </g>
     <g id="text_15">
      <!-- 0.5 -->
      <g transform="translate(344.487187 188.638438)scale(0.1 -0.1)">
       <use xlink:href="#DejaVuSans-30"/>
       <use xlink:href="#DejaVuSans-2e" x="63.623047"/>
       <use xlink:href="#DejaVuSans-35" x="95.410156"/>
      </g>
     </g>
    </g>
    <g id="xtick_8">
     <g id="line2d_21">
      <g>
       <use xlink:href="#m0d0c97550d" x="406.8125" y="174.04" style="stroke: #000000; stroke-width: 0.8"/>
      </g>
     </g>
     <g id="text_16">
      <!-- 1.0 -->
      <g transform="translate(398.860937 188.638438)scale(0.1 -0.1)">
       <use xlink:href="#DejaVuSans-31"/>
       <use xlink:href="#DejaVuSans-2e" x="63.623047"/>
       <use xlink:href="#DejaVuSans-30" x="95.410156"/>
      </g>
     </g>
    </g>
    <g id="xtick_9">
     <g id="line2d_22">
      <g>
       <use xlink:href="#m0d0c97550d" x="461.18625" y="174.04" style="stroke: #000000; stroke-width: 0.8"/>
      </g>
     </g>
     <g id="text_17">
      <!-- 1.5 -->
      <g transform="translate(453.234687 188.638438)scale(0.1 -0.1)">
       <use xlink:href="#DejaVuSans-31"/>
       <use xlink:href="#DejaVuSans-2e" x="63.623047"/>
       <use xlink:href="#DejaVuSans-35" x="95.410156"/>
      </g>
     </g>
    </g>
    <g id="xtick_10">
     <g id="line2d_23">
      <g>
       <use xlink:href="#m0d0c97550d" x="515.56" y="174.04" style="stroke: #000000; stroke-width: 0.8"/>
      </g>
     </g>
     <g id="text_18">
      <!-- 2.0 -->
      <g transform="translate(507.608437 188.638438)scale(0.1 -0.1)">
       <use xlink:href="#DejaVuSans-32"/>
       <use xlink:href="#DejaVuSans-2e" x="63.623047"/>
       <use xlink:href="#DejaVuSans-30" x="95.410156"/>
      </g>
     </g>
    </g>
    <g id="text_19">
     <!-- Influence of surprisal (multiplication) -->
     <g transform="translate(314.665625 202.316563)scale(0.1 -0.1)">
      <use xlink:href="#DejaVuSans-49"/>
      <use xlink:href="#DejaVuSans-6e" x="29.492188"/>
      <use xlink:href="#DejaVuSans-66" x="92.871094"/>
      <use xlink:href="#DejaVuSans-6c" x="128.076172"/>
      <use xlink:href="#DejaVuSans-75" x="155.859375"/>
      <use xlink:href="#DejaVuSans-65" x="219.238281"/>
      <use xlink:href="#DejaVuSans-6e" x="280.761719"/>
      <use xlink:href="#DejaVuSans-63" x="344.140625"/>
      <use xlink:href="#DejaVuSans-65" x="399.121094"/>
      <use xlink:href="#DejaVuSans-20" x="460.644531"/>
      <use xlink:href="#DejaVuSans-6f" x="492.431641"/>
      <use xlink:href="#DejaVuSans-66" x="553.613281"/>
      <use xlink:href="#DejaVuSans-20" x="588.818359"/>
      <use xlink:href="#DejaVuSans-73" x="620.605469"/>
      <use xlink:href="#DejaVuSans-75" x="672.705078"/>
      <use xlink:href="#DejaVuSans-72" x="736.083984"/>
      <use xlink:href="#DejaVuSans-70" x="777.197266"/>
      <use xlink:href="#DejaVuSans-72" x="840.673828"/>
      <use xlink:href="#DejaVuSans-69" x="881.787109"/>
      <use xlink:href="#DejaVuSans-73" x="909.570312"/>
      <use xlink:href="#DejaVuSans-61" x="961.669922"/>
      <use xlink:href="#DejaVuSans-6c" x="1022.949219"/>
      <use xlink:href="#DejaVuSans-20" x="1050.732422"/>
      <use xlink:href="#DejaVuSans-28" x="1082.519531"/>
      <use xlink:href="#DejaVuSans-6d" x="1121.533203"/>
      <use xlink:href="#DejaVuSans-75" x="1218.945312"/>
      <use xlink:href="#DejaVuSans-6c" x="1282.324219"/>
      <use xlink:href="#DejaVuSans-74" x="1310.107422"/>
      <use xlink:href="#DejaVuSans-69" x="1349.316406"/>
      <use xlink:href="#DejaVuSans-70" x="1377.099609"/>
      <use xlink:href="#DejaVuSans-6c" x="1440.576172"/>
      <use xlink:href="#DejaVuSans-69" x="1468.359375"/>
      <use xlink:href="#DejaVuSans-63" x="1496.142578"/>
      <use xlink:href="#DejaVuSans-61" x="1551.123047"/>
      <use xlink:href="#DejaVuSans-74" x="1612.402344"/>
      <use xlink:href="#DejaVuSans-69" x="1651.611328"/>
      <use xlink:href="#DejaVuSans-6f" x="1679.394531"/>
      <use xlink:href="#DejaVuSans-6e" x="1740.576172"/>
      <use xlink:href="#DejaVuSans-29" x="1803.955078"/>
     </g>
    </g>
   </g>
   <g id="line2d_24">
    <path d="M 298.065 33.810244 
L 309.512105 35.822071 
L 320.959211 41.359957 
L 332.406316 48.901858 
L 343.853421 57.544663 
L 355.300526 66.97039 
L 366.747632 76.520377 
L 378.194737 86.144093 
L 389.641842 95.615017 
L 401.088947 104.122412 
L 412.536053 111.947667 
L 423.983158 119.025754 
L 435.430263 125.621924 
L 446.877368 130.725921 
L 458.324474 135.852769 
L 469.771579 140.207402 
L 481.218684 144.383306 
L 492.665789 148.447221 
L 504.112895 151.936382 
L 515.56 154.779786 
" clip-path="url(#p4e277bf7a9)" style="fill: none; stroke: #1f77b4; stroke-width: 1.5; stroke-linecap: square"/>
   </g>
   <g id="line2d_25">
    <path d="M 298.065 33.810393 
L 309.512105 35.82377 
L 320.959211 41.36234 
L 332.406316 48.909277 
L 343.853421 57.556332 
L 355.300526 67.000593 
L 366.747632 76.557707 
L 378.194737 86.210076 
L 389.641842 95.676062 
L 401.088947 104.212003 
L 412.536053 112.016579 
L 423.983158 119.086553 
L 435.430263 125.719129 
L 446.877368 130.810421 
L 458.324474 135.909397 
L 469.771579 140.323677 
L 481.218684 144.429778 
L 492.665789 148.426621 
L 504.112895 152.015445 
L 515.56 154.855222 
" clip-path="url(#p4e277bf7a9)" style="fill: none; stroke: #ff7f0e; stroke-width: 1.5; stroke-linecap: square"/>
   </g>
   <g id="line2d_26">
    <path d="M 298.065 33.810244 
L 309.512105 35.826081 
L 320.959211 41.365073 
L 332.406316 48.916314 
L 343.853421 57.573436 
L 355.300526 67.005812 
L 366.747632 76.579146 
L 378.194737 86.171093 
L 389.641842 95.62757 
L 401.088947 104.148309 
L 412.536053 112.00712 
L 423.983158 119.159354 
L 435.430263 125.841447 
L 446.877368 131.002759 
L 458.324474 136.15137 
L 469.771579 140.750143 
L 481.218684 144.844913 
L 492.665789 148.983576 
L 504.112895 152.708787 
L 515.56 155.631645 
" clip-path="url(#p4e277bf7a9)" style="fill: none; stroke: #2ca02c; stroke-width: 1.5; stroke-linecap: square"/>
   </g>
   <g id="line2d_27">
    <path d="M 298.065 33.811034 
L 309.512105 35.828929 
L 320.959211 41.36946 
L 332.406316 48.926412 
L 343.853421 57.59212 
L 355.300526 67.040257 
L 366.747632 76.623904 
L 378.194737 86.233233 
L 389.641842 95.67694 
L 401.088947 104.208327 
L 412.536053 112.084382 
L 423.983158 119.223557 
L 435.430263 125.942059 
L 446.877368 131.138088 
L 458.324474 136.311814 
L 469.771579 140.930954 
L 481.218684 145.003285 
L 492.665789 149.144112 
L 504.112895 152.921303 
L 515.56 155.828504 
" clip-path="url(#p4e277bf7a9)" style="fill: none; stroke: #d62728; stroke-width: 1.5; stroke-linecap: square"/>
   </g>
   <g id="line2d_28">
    <path d="M 298.065 33.810244 
L 309.512105 35.822318 
L 320.959211 41.385074 
L 332.406316 48.899612 
L 343.853421 57.599464 
L 355.300526 66.905815 
L 366.747632 76.659818 
L 378.194737 86.295808 
L 389.641842 95.878435 
L 401.088947 104.153364 
L 412.536053 112.265057 
L 423.983158 119.024228 
L 435.430263 125.84627 
L 446.877368 130.931279 
L 458.324474 136.504502 
L 469.771579 140.967147 
L 481.218684 145.617312 
L 492.665789 149.021391 
L 504.112895 152.873755 
L 515.56 154.667103 
" clip-path="url(#p4e277bf7a9)" style="fill: none; stroke: #9467bd; stroke-width: 1.5; stroke-linecap: square"/>
   </g>
   <g id="line2d_29">
    <path d="M 298.065 33.810841 
L 309.512105 35.82468 
L 320.959211 41.389125 
L 332.406316 48.909532 
L 343.853421 57.612861 
L 355.300526 66.940093 
L 366.747632 76.703484 
L 378.194737 86.369991 
L 389.641842 95.948114 
L 401.088947 104.238751 
L 412.536053 112.332753 
L 423.983158 119.075761 
L 435.430263 125.945538 
L 446.877368 131.015608 
L 458.324474 136.560058 
L 469.771579 141.077026 
L 481.218684 145.650466 
L 492.665789 148.977781 
L 504.112895 152.94282 
L 515.56 154.76404 
" clip-path="url(#p4e277bf7a9)" style="fill: none; stroke: #8c564b; stroke-width: 1.5; stroke-linecap: square"/>
   </g>
   <g id="line2d_30">
    <path d="M 298.065 46.668997 
L 309.512105 48.497406 
L 320.959211 53.633642 
L 332.406316 60.531714 
L 343.853421 68.44677 
L 355.300526 77.310835 
L 366.747632 86.108305 
L 378.194737 95.09677 
L 389.641842 103.742363 
L 401.088947 111.843503 
L 412.536053 119.0905 
L 423.983158 125.528526 
L 435.430263 131.447415 
L 446.877368 136.42535 
L 458.324474 141.175962 
L 469.771579 145.056477 
L 481.218684 148.969227 
L 492.665789 152.724389 
L 504.112895 155.869207 
L 515.56 158.35525 
" clip-path="url(#p4e277bf7a9)" style="fill: none; stroke: #e377c2; stroke-width: 1.5; stroke-linecap: square"/>
   </g>
   <g id="line2d_31">
    <path d="M 298.065 33.810587 
L 309.512105 35.829871 
L 320.959211 41.356429 
L 332.406316 48.921266 
L 343.853421 57.615818 
L 355.300526 67.025775 
L 366.747632 76.623705 
L 378.194737 86.249904 
L 389.641842 95.712864 
L 401.088947 104.287463 
L 412.536053 112.132528 
L 423.983158 119.231284 
L 435.430263 125.897057 
L 446.877368 131.013673 
L 458.324474 136.074921 
L 469.771579 140.572171 
L 481.218684 144.613264 
L 492.665789 148.645425 
L 504.112895 152.217416 
L 515.56 155.192722 
" clip-path="url(#p4e277bf7a9)" style="fill: none; stroke: #7f7f7f; stroke-width: 1.5; stroke-linecap: square"/>
   </g>
   <g id="patch_6">
    <path d="M 298.065 174.04 
L 298.065 26.88 
" style="fill: none; stroke: #000000; stroke-width: 0.8; stroke-linejoin: miter; stroke-linecap: square"/>
   </g>
   <g id="patch_7">
    <path d="M 298.065 174.04 
L 515.56 174.04 
" style="fill: none; stroke: #000000; stroke-width: 0.8; stroke-linejoin: miter; stroke-linecap: square"/>
   </g>
   <g id="text_20">
    <!-- Node * third variable -->
    <g transform="translate(344.2325 20.88)scale(0.12 -0.12)">
     <defs>
      <path id="DejaVuSans-68" d="M 3513 2113 
L 3513 0 
L 2938 0 
L 2938 2094 
Q 2938 2591 2744 2837 
Q 2550 3084 2163 3084 
Q 1697 3084 1428 2787 
Q 1159 2491 1159 1978 
L 1159 0 
L 581 0 
L 581 4863 
L 1159 4863 
L 1159 2956 
Q 1366 3272 1645 3428 
Q 1925 3584 2291 3584 
Q 2894 3584 3203 3211 
Q 3513 2838 3513 2113 
z
" transform="scale(0.015625)"/>
      <path id="DejaVuSans-62" d="M 3116 1747 
Q 3116 2381 2855 2742 
Q 2594 3103 2138 3103 
Q 1681 3103 1420 2742 
Q 1159 2381 1159 1747 
Q 1159 1113 1420 752 
Q 1681 391 2138 391 
Q 2594 391 2855 752 
Q 3116 1113 3116 1747 
z
M 1159 2969 
Q 1341 3281 1617 3432 
Q 1894 3584 2278 3584 
Q 2916 3584 3314 3078 
Q 3713 2572 3713 1747 
Q 3713 922 3314 415 
Q 2916 -91 2278 -91 
Q 1894 -91 1617 61 
Q 1341 213 1159 525 
L 1159 0 
L 581 0 
L 581 4863 
L 1159 4863 
L 1159 2969 
z
" transform="scale(0.015625)"/>
     </defs>
     <use xlink:href="#DejaVuSans-4e"/>
     <use xlink:href="#DejaVuSans-6f" x="74.804688"/>
     <use xlink:href="#DejaVuSans-64" x="135.986328"/>
     <use xlink:href="#DejaVuSans-65" x="199.462891"/>
     <use xlink:href="#DejaVuSans-20" x="260.986328"/>
     <use xlink:href="#DejaVuSans-2a" x="292.773438"/>
     <use xlink:href="#DejaVuSans-20" x="342.773438"/>
     <use xlink:href="#DejaVuSans-74" x="374.560547"/>
     <use xlink:href="#DejaVuSans-68" x="413.769531"/>
     <use xlink:href="#DejaVuSans-69" x="477.148438"/>
     <use xlink:href="#DejaVuSans-72" x="504.931641"/>
     <use xlink:href="#DejaVuSans-64" x="544.294922"/>
     <use xlink:href="#DejaVuSans-20" x="607.771484"/>
     <use xlink:href="#DejaVuSans-76" x="639.558594"/>
     <use xlink:href="#DejaVuSans-61" x="698.738281"/>
     <use xlink:href="#DejaVuSans-72" x="760.017578"/>
     <use xlink:href="#DejaVuSans-69" x="801.130859"/>
     <use xlink:href="#DejaVuSans-61" x="828.914062"/>
     <use xlink:href="#DejaVuSans-62" x="890.193359"/>
     <use xlink:href="#DejaVuSans-6c" x="953.669922"/>
     <use xlink:href="#DejaVuSans-65" x="981.453125"/>
    </g>
   </g>
   <g id="legend_1">
    <g id="line2d_32">
     <path d="M 524.56 39.978437 
L 534.56 39.978437 
L 544.56 39.978437 
" style="fill: none; stroke: #1f77b4; stroke-width: 1.5; stroke-linecap: square"/>
    </g>
    <g id="text_21">
     <!-- Node -->
     <g transform="translate(552.56 43.478437)scale(0.1 -0.1)">
      <use xlink:href="#DejaVuSans-4e"/>
      <use xlink:href="#DejaVuSans-6f" x="74.804688"/>
      <use xlink:href="#DejaVuSans-64" x="135.986328"/>
      <use xlink:href="#DejaVuSans-65" x="199.462891"/>
     </g>
    </g>
    <g id="line2d_33">
     <path d="M 524.56 54.656563 
L 534.56 54.656563 
L 544.56 54.656563 
" style="fill: none; stroke: #ff7f0e; stroke-width: 1.5; stroke-linecap: square"/>
    </g>
    <g id="text_22">
     <!-- Node + surprisal -->
     <g transform="translate(552.56 58.156563)scale(0.1 -0.1)">
      <defs>
       <path id="DejaVuSans-2b" d="M 2944 4013 
L 2944 2272 
L 4684 2272 
L 4684 1741 
L 2944 1741 
L 2944 0 
L 2419 0 
L 2419 1741 
L 678 1741 
L 678 2272 
L 2419 2272 
L 2419 4013 
L 2944 4013 
z
" transform="scale(0.015625)"/>
      </defs>
      <use xlink:href="#DejaVuSans-4e"/>
      <use xlink:href="#DejaVuSans-6f" x="74.804688"/>
      <use xlink:href="#DejaVuSans-64" x="135.986328"/>
      <use xlink:href="#DejaVuSans-65" x="199.462891"/>
      <use xlink:href="#DejaVuSans-20" x="260.986328"/>
      <use xlink:href="#DejaVuSans-2b" x="292.773438"/>
      <use xlink:href="#DejaVuSans-20" x="376.5625"/>
      <use xlink:href="#DejaVuSans-73" x="408.349609"/>
      <use xlink:href="#DejaVuSans-75" x="460.449219"/>
      <use xlink:href="#DejaVuSans-72" x="523.828125"/>
      <use xlink:href="#DejaVuSans-70" x="564.941406"/>
      <use xlink:href="#DejaVuSans-72" x="628.417969"/>
      <use xlink:href="#DejaVuSans-69" x="669.53125"/>
      <use xlink:href="#DejaVuSans-73" x="697.314453"/>
      <use xlink:href="#DejaVuSans-61" x="749.414062"/>
      <use xlink:href="#DejaVuSans-6c" x="810.693359"/>
     </g>
    </g>
    <g id="line2d_34">
     <path d="M 524.56 69.334687 
L 534.56 69.334687 
L 544.56 69.334687 
" style="fill: none; stroke: #2ca02c; stroke-width: 1.5; stroke-linecap: square"/>
    </g>
    <g id="text_23">
     <!-- Node split -->
     <g transform="translate(552.56 72.834687)scale(0.1 -0.1)">
      <use xlink:href="#DejaVuSans-4e"/>
      <use xlink:href="#DejaVuSans-6f" x="74.804688"/>
      <use xlink:href="#DejaVuSans-64" x="135.986328"/>
      <use xlink:href="#DejaVuSans-65" x="199.462891"/>
      <use xlink:href="#DejaVuSans-20" x="260.986328"/>
      <use xlink:href="#DejaVuSans-73" x="292.773438"/>
      <use xlink:href="#DejaVuSans-70" x="344.873047"/>
      <use xlink:href="#DejaVuSans-6c" x="408.349609"/>
      <use xlink:href="#DejaVuSans-69" x="436.132812"/>
      <use xlink:href="#DejaVuSans-74" x="463.916016"/>
     </g>
    </g>
    <g id="line2d_35">
     <path d="M 524.56 84.012812 
L 534.56 84.012812 
L 544.56 84.012812 
" style="fill: none; stroke: #d62728; stroke-width: 1.5; stroke-linecap: square"/>
    </g>
    <g id="text_24">
     <!-- Node split + surprisal -->
     <g transform="translate(552.56 87.512812)scale(0.1 -0.1)">
      <use xlink:href="#DejaVuSans-4e"/>
      <use xlink:href="#DejaVuSans-6f" x="74.804688"/>
      <use xlink:href="#DejaVuSans-64" x="135.986328"/>
      <use xlink:href="#DejaVuSans-65" x="199.462891"/>
      <use xlink:href="#DejaVuSans-20" x="260.986328"/>
      <use xlink:href="#DejaVuSans-73" x="292.773438"/>
      <use xlink:href="#DejaVuSans-70" x="344.873047"/>
      <use xlink:href="#DejaVuSans-6c" x="408.349609"/>
      <use xlink:href="#DejaVuSans-69" x="436.132812"/>
      <use xlink:href="#DejaVuSans-74" x="463.916016"/>
      <use xlink:href="#DejaVuSans-20" x="503.125"/>
      <use xlink:href="#DejaVuSans-2b" x="534.912109"/>
      <use xlink:href="#DejaVuSans-20" x="618.701172"/>
      <use xlink:href="#DejaVuSans-73" x="650.488281"/>
      <use xlink:href="#DejaVuSans-75" x="702.587891"/>
      <use xlink:href="#DejaVuSans-72" x="765.966797"/>
      <use xlink:href="#DejaVuSans-70" x="807.080078"/>
      <use xlink:href="#DejaVuSans-72" x="870.556641"/>
      <use xlink:href="#DejaVuSans-69" x="911.669922"/>
      <use xlink:href="#DejaVuSans-73" x="939.453125"/>
      <use xlink:href="#DejaVuSans-61" x="991.552734"/>
      <use xlink:href="#DejaVuSans-6c" x="1052.832031"/>
     </g>
    </g>
    <g id="line2d_36">
     <path d="M 524.56 98.690937 
L 534.56 98.690937 
L 544.56 98.690937 
" style="fill: none; stroke: #9467bd; stroke-width: 1.5; stroke-linecap: square"/>
    </g>
    <g id="text_25">
     <!-- Node random split -->
     <g transform="translate(552.56 102.190937)scale(0.1 -0.1)">
      <use xlink:href="#DejaVuSans-4e"/>
      <use xlink:href="#DejaVuSans-6f" x="74.804688"/>
      <use xlink:href="#DejaVuSans-64" x="135.986328"/>
      <use xlink:href="#DejaVuSans-65" x="199.462891"/>
      <use xlink:href="#DejaVuSans-20" x="260.986328"/>
      <use xlink:href="#DejaVuSans-72" x="292.773438"/>
      <use xlink:href="#DejaVuSans-61" x="333.886719"/>
      <use xlink:href="#DejaVuSans-6e" x="395.166016"/>
      <use xlink:href="#DejaVuSans-64" x="458.544922"/>
      <use xlink:href="#DejaVuSans-6f" x="522.021484"/>
      <use xlink:href="#DejaVuSans-6d" x="583.203125"/>
      <use xlink:href="#DejaVuSans-20" x="680.615234"/>
      <use xlink:href="#DejaVuSans-73" x="712.402344"/>
      <use xlink:href="#DejaVuSans-70" x="764.501953"/>
      <use xlink:href="#DejaVuSans-6c" x="827.978516"/>
      <use xlink:href="#DejaVuSans-69" x="855.761719"/>
      <use xlink:href="#DejaVuSans-74" x="883.544922"/>
     </g>
    </g>
    <g id="line2d_37">
     <path d="M 524.56 113.369062 
L 534.56 113.369062 
L 544.56 113.369062 
" style="fill: none; stroke: #8c564b; stroke-width: 1.5; stroke-linecap: square"/>
    </g>
    <g id="text_26">
     <!-- Node random split + surprisal -->
     <g transform="translate(552.56 116.869062)scale(0.1 -0.1)">
      <use xlink:href="#DejaVuSans-4e"/>
      <use xlink:href="#DejaVuSans-6f" x="74.804688"/>
      <use xlink:href="#DejaVuSans-64" x="135.986328"/>
      <use xlink:href="#DejaVuSans-65" x="199.462891"/>
      <use xlink:href="#DejaVuSans-20" x="260.986328"/>
      <use xlink:href="#DejaVuSans-72" x="292.773438"/>
      <use xlink:href="#DejaVuSans-61" x="333.886719"/>
      <use xlink:href="#DejaVuSans-6e" x="395.166016"/>
      <use xlink:href="#DejaVuSans-64" x="458.544922"/>
      <use xlink:href="#DejaVuSans-6f" x="522.021484"/>
      <use xlink:href="#DejaVuSans-6d" x="583.203125"/>
      <use xlink:href="#DejaVuSans-20" x="680.615234"/>
      <use xlink:href="#DejaVuSans-73" x="712.402344"/>
      <use xlink:href="#DejaVuSans-70" x="764.501953"/>
      <use xlink:href="#DejaVuSans-6c" x="827.978516"/>
      <use xlink:href="#DejaVuSans-69" x="855.761719"/>
      <use xlink:href="#DejaVuSans-74" x="883.544922"/>
      <use xlink:href="#DejaVuSans-20" x="922.753906"/>
      <use xlink:href="#DejaVuSans-2b" x="954.541016"/>
      <use xlink:href="#DejaVuSans-20" x="1038.330078"/>
      <use xlink:href="#DejaVuSans-73" x="1070.117188"/>
      <use xlink:href="#DejaVuSans-75" x="1122.216797"/>
      <use xlink:href="#DejaVuSans-72" x="1185.595703"/>
      <use xlink:href="#DejaVuSans-70" x="1226.708984"/>
      <use xlink:href="#DejaVuSans-72" x="1290.185547"/>
      <use xlink:href="#DejaVuSans-69" x="1331.298828"/>
      <use xlink:href="#DejaVuSans-73" x="1359.082031"/>
      <use xlink:href="#DejaVuSans-61" x="1411.181641"/>
      <use xlink:href="#DejaVuSans-6c" x="1472.460938"/>
     </g>
    </g>
    <g id="line2d_38">
     <path d="M 524.56 128.047187 
L 534.56 128.047187 
L 544.56 128.047187 
" style="fill: none; stroke: #e377c2; stroke-width: 1.5; stroke-linecap: square"/>
    </g>
    <g id="text_27">
     <!-- Interaction -->
     <g transform="translate(552.56 131.547187)scale(0.1 -0.1)">
      <use xlink:href="#DejaVuSans-49"/>
      <use xlink:href="#DejaVuSans-6e" x="29.492188"/>
      <use xlink:href="#DejaVuSans-74" x="92.871094"/>
      <use xlink:href="#DejaVuSans-65" x="132.080078"/>
      <use xlink:href="#DejaVuSans-72" x="193.603516"/>
      <use xlink:href="#DejaVuSans-61" x="234.716797"/>
      <use xlink:href="#DejaVuSans-63" x="295.996094"/>
      <use xlink:href="#DejaVuSans-74" x="350.976562"/>
      <use xlink:href="#DejaVuSans-69" x="390.185547"/>
      <use xlink:href="#DejaVuSans-6f" x="417.96875"/>
      <use xlink:href="#DejaVuSans-6e" x="479.150391"/>
     </g>
    </g>
    <g id="line2d_39">
     <path d="M 524.56 142.725312 
L 534.56 142.725312 
L 544.56 142.725312 
" style="fill: none; stroke: #7f7f7f; stroke-width: 1.5; stroke-linecap: square"/>
    </g>
    <g id="text_28">
     <!-- Node + surprisal + interaction -->
     <g transform="translate(552.56 146.225312)scale(0.1 -0.1)">
      <use xlink:href="#DejaVuSans-4e"/>
      <use xlink:href="#DejaVuSans-6f" x="74.804688"/>
      <use xlink:href="#DejaVuSans-64" x="135.986328"/>
      <use xlink:href="#DejaVuSans-65" x="199.462891"/>
      <use xlink:href="#DejaVuSans-20" x="260.986328"/>
      <use xlink:href="#DejaVuSans-2b" x="292.773438"/>
      <use xlink:href="#DejaVuSans-20" x="376.5625"/>
      <use xlink:href="#DejaVuSans-73" x="408.349609"/>
      <use xlink:href="#DejaVuSans-75" x="460.449219"/>
      <use xlink:href="#DejaVuSans-72" x="523.828125"/>
      <use xlink:href="#DejaVuSans-70" x="564.941406"/>
      <use xlink:href="#DejaVuSans-72" x="628.417969"/>
      <use xlink:href="#DejaVuSans-69" x="669.53125"/>
      <use xlink:href="#DejaVuSans-73" x="697.314453"/>
      <use xlink:href="#DejaVuSans-61" x="749.414062"/>
      <use xlink:href="#DejaVuSans-6c" x="810.693359"/>
      <use xlink:href="#DejaVuSans-20" x="838.476562"/>
      <use xlink:href="#DejaVuSans-2b" x="870.263672"/>
      <use xlink:href="#DejaVuSans-20" x="954.052734"/>
      <use xlink:href="#DejaVuSans-69" x="985.839844"/>
      <use xlink:href="#DejaVuSans-6e" x="1013.623047"/>
      <use xlink:href="#DejaVuSans-74" x="1077.001953"/>
      <use xlink:href="#DejaVuSans-65" x="1116.210938"/>
      <use xlink:href="#DejaVuSans-72" x="1177.734375"/>
      <use xlink:href="#DejaVuSans-61" x="1218.847656"/>
      <use xlink:href="#DejaVuSans-63" x="1280.126953"/>
      <use xlink:href="#DejaVuSans-74" x="1335.107422"/>
      <use xlink:href="#DejaVuSans-69" x="1374.316406"/>
      <use xlink:href="#DejaVuSans-6f" x="1402.099609"/>
      <use xlink:href="#DejaVuSans-6e" x="1463.28125"/>
     </g>
    </g>
   </g>
  </g>
 </g>
 <defs>
  <clipPath id="p98e8d838a3">
   <rect x="47.72" y="26.88" width="217.495" height="147.16"/>
  </clipPath>
  <clipPath id="p4e277bf7a9">
   <rect x="298.065" y="26.88" width="217.495" height="147.16"/>
  </clipPath>
 </defs>
</svg>
