<?xml version="1.0" encoding="utf-8" standalone="no"?>
<!DOCTYPE svg PUBLIC "-//W3C//DTD SVG 1.1//EN"
  "http://www.w3.org/Graphics/SVG/1.1/DTD/svg11.dtd">
<svg xmlns:xlink="http://www.w3.org/1999/xlink" width="720pt" height="216pt" viewBox="0 0 720 216" xmlns="http://www.w3.org/2000/svg" version="1.1">
 <metadata>
  <rdf:RDF xmlns:dc="http://purl.org/dc/elements/1.1/" xmlns:cc="http://creativecommons.org/ns#" xmlns:rdf="http://www.w3.org/1999/02/22-rdf-syntax-ns#">
   <cc:Work>
    <dc:type rdf:resource="http://purl.org/dc/dcmitype/StillImage"/>
    <dc:date>2024-01-15T19:31:42.249978</dc:date>
    <dc:format>image/svg+xml</dc:format>
    <dc:creator>
     <cc:Agent>
      <dc:title>Matplotlib v3.5.1, https://matplotlib.org/</dc:title>
     </cc:Agent>
    </dc:creator>
   </cc:Work>
  </rdf:RDF>
 </metadata>
 <defs>
  <style type="text/css">*{stroke-linejoin: round; stroke-linecap: butt}</style>
 </defs>
 <g id="figure_1">
  <g id="patch_1">
   <path d="M 0 216 
L 720 216 
L 720 0 
L 0 0 
z
" style="fill: #ffffff"/>
  </g>
  <g id="axes_1">
   <g id="patch_2">
    <path d="M 47.72 174.04 
L 265.215 174.04 
L 265.215 26.88 
L 47.72 26.88 
z
" style="fill: #ffffff"/>
   </g>
   <g id="PolyCollection_1">
    <path d="M 47.72 33.569091 
L 47.72 33.569091 
L 59.167105 35.828785 
L 70.614211 41.991839 
L 82.061316 50.020456 
L 93.508421 59.880026 
L 104.955526 69.299414 
L 116.402632 80.06722 
L 127.849737 90.461248 
L 139.296842 100.84989 
L 150.743947 110.110609 
L 162.191053 119.85267 
L 173.638158 127.232728 
L 185.085263 134.201581 
L 196.532368 140.910321 
L 207.979474 145.975833 
L 219.426579 150.451563 
L 230.873684 153.430383 
L 242.320789 156.971027 
L 253.767895 159.191711 
L 265.215 160.750615 
L 265.215 143.460467 
L 265.215 143.460467 
L 253.767895 140.217038 
L 242.320789 137.108398 
L 230.873684 133.451147 
L 219.426579 129.329779 
L 207.979474 125.027091 
L 196.532368 120.430694 
L 185.085263 115.739439 
L 173.638158 109.092901 
L 162.191053 103.098021 
L 150.743947 95.971168 
L 139.296842 87.335612 
L 127.849737 78.929512 
L 116.402632 70.02577 
L 104.955526 60.825742 
L 93.508421 53.029462 
L 82.061316 44.906779 
L 70.614211 39.368011 
L 59.167105 34.945645 
L 47.72 33.569091 
z
" clip-path="url(#pf6466573f0)" style="fill: #1f77b4; fill-opacity: 0.4"/>
   </g>
   <g id="PolyCollection_2">
    <path d="M 47.72 33.56921 
L 47.72 33.569264 
L 59.167105 35.016832 
L 70.614211 38.378782 
L 82.061316 43.171195 
L 93.508421 50.181889 
L 104.955526 57.704709 
L 116.402632 67.209398 
L 127.849737 76.741162 
L 139.296842 86.280508 
L 150.743947 94.927433 
L 162.191053 104.457677 
L 173.638158 111.842943 
L 185.085263 119.084179 
L 196.532368 126.187717 
L 207.979474 131.930918 
L 219.426579 137.288975 
L 230.873684 141.237321 
L 242.320789 145.4286 
L 253.767895 148.749564 
L 265.215 151.202323 
L 265.215 135.027927 
L 265.215 135.027927 
L 253.767895 131.204396 
L 242.320789 127.537916 
L 230.873684 122.860813 
L 219.426579 117.748989 
L 207.979474 112.519632 
L 196.532368 106.792386 
L 185.085263 100.948066 
L 173.638158 94.152574 
L 162.191053 87.52139 
L 150.743947 80.877668 
L 139.296842 73.072587 
L 127.849737 65.664927 
L 116.402632 58.335719 
L 104.955526 51.374607 
L 93.508421 45.766851 
L 82.061316 40.472803 
L 70.614211 37.120261 
L 59.167105 34.512837 
L 47.72 33.56921 
z
" clip-path="url(#pf6466573f0)" style="fill: #ff7f0e; fill-opacity: 0.4"/>
   </g>
   <g id="PolyCollection_3">
    <path d="M 47.72 33.569091 
L 47.72 33.569091 
L 59.167105 35.290602 
L 70.614211 38.309487 
L 82.061316 41.945962 
L 93.508421 46.361968 
L 104.955526 50.857924 
L 116.402632 55.404054 
L 127.849737 59.881519 
L 139.296842 65.325776 
L 150.743947 69.499447 
L 162.191053 74.821896 
L 173.638158 79.981134 
L 185.085263 84.930664 
L 196.532368 90.061242 
L 207.979474 94.591485 
L 219.426579 100.102475 
L 230.873684 104.235257 
L 242.320789 108.514952 
L 253.767895 112.602462 
L 265.215 116.800561 
L 265.215 103.541752 
L 265.215 103.541752 
L 253.767895 99.739981 
L 242.320789 96.109324 
L 230.873684 92.016561 
L 219.426579 87.574773 
L 207.979474 83.878178 
L 196.532368 79.125799 
L 185.085263 74.933375 
L 173.638158 70.542199 
L 162.191053 66.559724 
L 150.743947 62.388386 
L 139.296842 57.988847 
L 127.849737 53.767634 
L 116.402632 49.667428 
L 104.955526 45.747176 
L 93.508421 42.090943 
L 82.061316 38.481154 
L 70.614211 36.461994 
L 59.167105 34.645351 
L 47.72 33.569091 
z
" clip-path="url(#pf6466573f0)" style="fill: #2ca02c; fill-opacity: 0.4"/>
   </g>
   <g id="PolyCollection_4">
    <path d="M 47.72 33.569752 
L 47.72 33.570049 
L 59.167105 34.91064 
L 70.614211 37.159949 
L 82.061316 39.940803 
L 93.508421 43.778451 
L 104.955526 48.128265 
L 116.402632 52.835865 
L 127.849737 57.626847 
L 139.296842 63.393517 
L 150.743947 67.791444 
L 162.191053 73.383672 
L 173.638158 78.727797 
L 185.085263 83.749648 
L 196.532368 88.854196 
L 207.979474 93.348726 
L 219.426579 98.743634 
L 230.873684 102.785826 
L 242.320789 106.824284 
L 253.767895 110.743199 
L 265.215 114.783756 
L 265.215 101.602792 
L 265.215 101.602792 
L 253.767895 98.01712 
L 242.320789 94.716197 
L 230.873684 90.892592 
L 219.426579 86.592088 
L 207.979474 83.026935 
L 196.532368 78.292353 
L 185.085263 74.100974 
L 173.638158 69.623614 
L 162.191053 65.623653 
L 150.743947 61.223548 
L 139.296842 56.523627 
L 127.849737 52.248364 
L 116.402632 47.971236 
L 104.955526 44.054516 
L 93.508421 40.819188 
L 82.061316 37.624984 
L 70.614211 35.947234 
L 59.167105 34.466413 
L 47.72 33.569752 
z
" clip-path="url(#pf6466573f0)" style="fill: #d62728; fill-opacity: 0.4"/>
   </g>
   <g id="PolyCollection_5">
    <path d="M 47.72 33.569091 
L 47.72 33.569091 
L 59.167105 35.829096 
L 70.614211 41.97897 
L 82.061316 50.074052 
L 93.508421 59.874584 
L 104.955526 69.436189 
L 116.402632 80.09238 
L 127.849737 90.677353 
L 139.296842 100.945336 
L 150.743947 110.021364 
L 162.191053 119.63545 
L 173.638158 127.530486 
L 185.085263 134.572312 
L 196.532368 140.555447 
L 207.979474 146.426312 
L 219.426579 150.627619 
L 230.873684 153.919257 
L 242.320789 158.478243 
L 253.767895 160.034953 
L 265.215 161.481192 
L 265.215 145.335131 
L 265.215 145.335131 
L 253.767895 141.318649 
L 242.320789 138.558527 
L 230.873684 134.033158 
L 219.426579 129.740267 
L 207.979474 126.136265 
L 196.532368 120.758083 
L 185.085263 116.050676 
L 173.638158 109.096382 
L 162.191053 103.291287 
L 150.743947 96.517456 
L 139.296842 87.427295 
L 127.849737 79.261816 
L 116.402632 70.313654 
L 104.955526 60.925606 
L 93.508421 53.043745 
L 82.061316 44.933947 
L 70.614211 39.379941 
L 59.167105 34.951508 
L 47.72 33.569091 
z
" clip-path="url(#pf6466573f0)" style="fill: #9467bd; fill-opacity: 0.4"/>
   </g>
   <g id="PolyCollection_6">
    <path d="M 47.72 33.569568 
L 47.72 33.569782 
L 59.167105 35.018164 
L 70.614211 38.369209 
L 82.061316 43.187282 
L 93.508421 50.198091 
L 104.955526 57.82758 
L 116.402632 67.294978 
L 127.849737 76.844523 
L 139.296842 86.404579 
L 150.743947 94.866753 
L 162.191053 104.28904 
L 173.638158 112.133131 
L 185.085263 119.309148 
L 196.532368 125.959272 
L 207.979474 132.231508 
L 219.426579 137.428842 
L 230.873684 141.749208 
L 242.320789 146.575969 
L 253.767895 149.367798 
L 265.215 151.928878 
L 265.215 136.581631 
L 265.215 136.581631 
L 253.767895 132.227351 
L 242.320789 128.819907 
L 230.873684 123.308975 
L 219.426579 118.020825 
L 207.979474 113.227466 
L 196.532368 106.982575 
L 185.085263 101.174619 
L 173.638158 94.154103 
L 162.191053 87.712927 
L 150.743947 81.097652 
L 139.296842 73.038459 
L 127.849737 65.864958 
L 116.402632 58.524215 
L 104.955526 51.41973 
L 93.508421 45.755998 
L 82.061316 40.479541 
L 70.614211 37.119279 
L 59.167105 34.516331 
L 47.72 33.569568 
z
" clip-path="url(#pf6466573f0)" style="fill: #8c564b; fill-opacity: 0.4"/>
   </g>
   <g id="PolyCollection_7">
    <path d="M 47.72 42.986333 
L 47.72 46.247335 
L 59.167105 49.277383 
L 70.614211 56.88849 
L 82.061316 66.844245 
L 93.508421 77.761985 
L 104.955526 87.521908 
L 116.402632 97.417346 
L 127.849737 106.434541 
L 139.296842 115.562413 
L 150.743947 123.398316 
L 162.191053 131.814226 
L 173.638158 138.774645 
L 185.085263 144.710061 
L 196.532368 150.21689 
L 207.979474 154.633162 
L 219.426579 158.327071 
L 230.873684 160.993351 
L 242.320789 164.042576 
L 253.767895 166.022898 
L 265.215 167.350909 
L 265.215 154.808554 
L 265.215 154.808554 
L 253.767895 152.627714 
L 242.320789 150.50942 
L 230.873684 148.113227 
L 219.426579 144.61563 
L 207.979474 141.642377 
L 196.532368 137.224325 
L 185.085263 132.265095 
L 173.638158 125.316342 
L 162.191053 119.588723 
L 150.743947 111.760027 
L 139.296842 102.434381 
L 127.849737 93.601872 
L 116.402632 83.644893 
L 104.955526 73.79104 
L 93.508421 64.438582 
L 82.061316 55.378762 
L 70.614211 49.024159 
L 59.167105 44.810815 
L 47.72 42.986333 
z
" clip-path="url(#pf6466573f0)" style="fill: #e377c2; fill-opacity: 0.4"/>
   </g>
   <g id="PolyCollection_8">
    <path d="M 47.72 33.569274 
L 47.72 33.569463 
L 59.167105 34.2345 
L 70.614211 35.18545 
L 82.061316 37.636179 
L 93.508421 42.458425 
L 104.955526 48.860923 
L 116.402632 56.929121 
L 127.849737 64.632616 
L 139.296842 73.231031 
L 150.743947 80.235326 
L 162.191053 89.117033 
L 173.638158 96.378446 
L 185.085263 104.59942 
L 196.532368 112.386899 
L 207.979474 119.036069 
L 219.426579 125.683259 
L 230.873684 131.000332 
L 242.320789 136.259958 
L 253.767895 140.708638 
L 265.215 144.624109 
L 265.215 127.176787 
L 265.215 127.176787 
L 253.767895 122.994236 
L 242.320789 118.635658 
L 230.873684 113.206812 
L 219.426579 107.080896 
L 207.979474 101.264221 
L 196.532368 94.38915 
L 185.085263 87.158733 
L 173.638158 79.949207 
L 162.191053 72.346153 
L 150.743947 65.683506 
L 139.296842 57.767875 
L 127.849737 51.365175 
L 116.402632 45.443815 
L 104.955526 40.635105 
L 93.508421 37.556645 
L 82.061316 35.31085 
L 70.614211 34.484331 
L 59.167105 34.055175 
L 47.72 33.569274 
z
" clip-path="url(#pf6466573f0)" style="fill: #7f7f7f; fill-opacity: 0.4"/>
   </g>
   <g id="matplotlib.axis_1">
    <g id="xtick_1">
     <g id="line2d_1">
      <defs>
       <path id="me5209b0d9f" d="M 0 0 
L 0 3.5 
" style="stroke: #000000; stroke-width: 0.8"/>
      </defs>
      <g>
       <use xlink:href="#me5209b0d9f" x="47.72" y="174.04" style="stroke: #000000; stroke-width: 0.8"/>
      </g>
     </g>
     <g id="text_1">
      <!-- 0.0 -->
      <g transform="translate(39.768438 188.638438)scale(0.1 -0.1)">
       <defs>
        <path id="DejaVuSans-30" d="M 2034 4250 
Q 1547 4250 1301 3770 
Q 1056 3291 1056 2328 
Q 1056 1369 1301 889 
Q 1547 409 2034 409 
Q 2525 409 2770 889 
Q 3016 1369 3016 2328 
Q 3016 3291 2770 3770 
Q 2525 4250 2034 4250 
z
M 2034 4750 
Q 2819 4750 3233 4129 
Q 3647 3509 3647 2328 
Q 3647 1150 3233 529 
Q 2819 -91 2034 -91 
Q 1250 -91 836 529 
Q 422 1150 422 2328 
Q 422 3509 836 4129 
Q 1250 4750 2034 4750 
z
" transform="scale(0.015625)"/>
        <path id="DejaVuSans-2e" d="M 684 794 
L 1344 794 
L 1344 0 
L 684 0 
L 684 794 
z
" transform="scale(0.015625)"/>
       </defs>
       <use xlink:href="#DejaVuSans-30"/>
       <use xlink:href="#DejaVuSans-2e" x="63.623047"/>
       <use xlink:href="#DejaVuSans-30" x="95.410156"/>
      </g>
     </g>
    </g>
    <g id="xtick_2">
     <g id="line2d_2">
      <g>
       <use xlink:href="#me5209b0d9f" x="102.09375" y="174.04" style="stroke: #000000; stroke-width: 0.8"/>
      </g>
     </g>
     <g id="text_2">
      <!-- 0.5 -->
      <g transform="translate(94.142188 188.638438)scale(0.1 -0.1)">
       <defs>
        <path id="DejaVuSans-35" d="M 691 4666 
L 3169 4666 
L 3169 4134 
L 1269 4134 
L 1269 2991 
Q 1406 3038 1543 3061 
Q 1681 3084 1819 3084 
Q 2600 3084 3056 2656 
Q 3513 2228 3513 1497 
Q 3513 744 3044 326 
Q 2575 -91 1722 -91 
Q 1428 -91 1123 -41 
Q 819 9 494 109 
L 494 744 
Q 775 591 1075 516 
Q 1375 441 1709 441 
Q 2250 441 2565 725 
Q 2881 1009 2881 1497 
Q 2881 1984 2565 2268 
Q 2250 2553 1709 2553 
Q 1456 2553 1204 2497 
Q 953 2441 691 2322 
L 691 4666 
z
" transform="scale(0.015625)"/>
       </defs>
       <use xlink:href="#DejaVuSans-30"/>
       <use xlink:href="#DejaVuSans-2e" x="63.623047"/>
       <use xlink:href="#DejaVuSans-35" x="95.410156"/>
      </g>
     </g>
    </g>
    <g id="xtick_3">
     <g id="line2d_3">
      <g>
       <use xlink:href="#me5209b0d9f" x="156.4675" y="174.04" style="stroke: #000000; stroke-width: 0.8"/>
      </g>
     </g>
     <g id="text_3">
      <!-- 1.0 -->
      <g transform="translate(148.515938 188.638438)scale(0.1 -0.1)">
       <defs>
        <path id="DejaVuSans-31" d="M 794 531 
L 1825 531 
L 1825 4091 
L 703 3866 
L 703 4441 
L 1819 4666 
L 2450 4666 
L 2450 531 
L 3481 531 
L 3481 0 
L 794 0 
L 794 531 
z
" transform="scale(0.015625)"/>
       </defs>
       <use xlink:href="#DejaVuSans-31"/>
       <use xlink:href="#DejaVuSans-2e" x="63.623047"/>
       <use xlink:href="#DejaVuSans-30" x="95.410156"/>
      </g>
     </g>
    </g>
    <g id="xtick_4">
     <g id="line2d_4">
      <g>
       <use xlink:href="#me5209b0d9f" x="210.84125" y="174.04" style="stroke: #000000; stroke-width: 0.8"/>
      </g>
     </g>
     <g id="text_4">
      <!-- 1.5 -->
      <g transform="translate(202.889687 188.638438)scale(0.1 -0.1)">
       <use xlink:href="#DejaVuSans-31"/>
       <use xlink:href="#DejaVuSans-2e" x="63.623047"/>
       <use xlink:href="#DejaVuSans-35" x="95.410156"/>
      </g>
     </g>
    </g>
    <g id="xtick_5">
     <g id="line2d_5">
      <g>
       <use xlink:href="#me5209b0d9f" x="265.215" y="174.04" style="stroke: #000000; stroke-width: 0.8"/>
      </g>
     </g>
     <g id="text_5">
      <!-- 2.0 -->
      <g transform="translate(257.263437 188.638438)scale(0.1 -0.1)">
       <defs>
        <path id="DejaVuSans-32" d="M 1228 531 
L 3431 531 
L 3431 0 
L 469 0 
L 469 531 
Q 828 903 1448 1529 
Q 2069 2156 2228 2338 
Q 2531 2678 2651 2914 
Q 2772 3150 2772 3378 
Q 2772 3750 2511 3984 
Q 2250 4219 1831 4219 
Q 1534 4219 1204 4116 
Q 875 4013 500 3803 
L 500 4441 
Q 881 4594 1212 4672 
Q 1544 4750 1819 4750 
Q 2544 4750 2975 4387 
Q 3406 4025 3406 3419 
Q 3406 3131 3298 2873 
Q 3191 2616 2906 2266 
Q 2828 2175 2409 1742 
Q 1991 1309 1228 531 
z
" transform="scale(0.015625)"/>
       </defs>
       <use xlink:href="#DejaVuSans-32"/>
       <use xlink:href="#DejaVuSans-2e" x="63.623047"/>
       <use xlink:href="#DejaVuSans-30" x="95.410156"/>
      </g>
     </g>
    </g>
    <g id="text_6">
     <!-- Influence of surprisal (multiplication) -->
     <g transform="translate(64.320625 202.316563)scale(0.1 -0.1)">
      <defs>
       <path id="DejaVuSans-49" d="M 628 4666 
L 1259 4666 
L 1259 0 
L 628 0 
L 628 4666 
z
" transform="scale(0.015625)"/>
       <path id="DejaVuSans-6e" d="M 3513 2113 
L 3513 0 
L 2938 0 
L 2938 2094 
Q 2938 2591 2744 2837 
Q 2550 3084 2163 3084 
Q 1697 3084 1428 2787 
Q 1159 2491 1159 1978 
L 1159 0 
L 581 0 
L 581 3500 
L 1159 3500 
L 1159 2956 
Q 1366 3272 1645 3428 
Q 1925 3584 2291 3584 
Q 2894 3584 3203 3211 
Q 3513 2838 3513 2113 
z
" transform="scale(0.015625)"/>
       <path id="DejaVuSans-66" d="M 2375 4863 
L 2375 4384 
L 1825 4384 
Q 1516 4384 1395 4259 
Q 1275 4134 1275 3809 
L 1275 3500 
L 2222 3500 
L 2222 3053 
L 1275 3053 
L 1275 0 
L 697 0 
L 697 3053 
L 147 3053 
L 147 3500 
L 697 3500 
L 697 3744 
Q 697 4328 969 4595 
Q 1241 4863 1831 4863 
L 2375 4863 
z
" transform="scale(0.015625)"/>
       <path id="DejaVuSans-6c" d="M 603 4863 
L 1178 4863 
L 1178 0 
L 603 0 
L 603 4863 
z
" transform="scale(0.015625)"/>
       <path id="DejaVuSans-75" d="M 544 1381 
L 544 3500 
L 1119 3500 
L 1119 1403 
Q 1119 906 1312 657 
Q 1506 409 1894 409 
Q 2359 409 2629 706 
Q 2900 1003 2900 1516 
L 2900 3500 
L 3475 3500 
L 3475 0 
L 2900 0 
L 2900 538 
Q 2691 219 2414 64 
Q 2138 -91 1772 -91 
Q 1169 -91 856 284 
Q 544 659 544 1381 
z
M 1991 3584 
L 1991 3584 
z
" transform="scale(0.015625)"/>
       <path id="DejaVuSans-65" d="M 3597 1894 
L 3597 1613 
L 953 1613 
Q 991 1019 1311 708 
Q 1631 397 2203 397 
Q 2534 397 2845 478 
Q 3156 559 3463 722 
L 3463 178 
Q 3153 47 2828 -22 
Q 2503 -91 2169 -91 
Q 1331 -91 842 396 
Q 353 884 353 1716 
Q 353 2575 817 3079 
Q 1281 3584 2069 3584 
Q 2775 3584 3186 3129 
Q 3597 2675 3597 1894 
z
M 3022 2063 
Q 3016 2534 2758 2815 
Q 2500 3097 2075 3097 
Q 1594 3097 1305 2825 
Q 1016 2553 972 2059 
L 3022 2063 
z
" transform="scale(0.015625)"/>
       <path id="DejaVuSans-63" d="M 3122 3366 
L 3122 2828 
Q 2878 2963 2633 3030 
Q 2388 3097 2138 3097 
Q 1578 3097 1268 2742 
Q 959 2388 959 1747 
Q 959 1106 1268 751 
Q 1578 397 2138 397 
Q 2388 397 2633 464 
Q 2878 531 3122 666 
L 3122 134 
Q 2881 22 2623 -34 
Q 2366 -91 2075 -91 
Q 1284 -91 818 406 
Q 353 903 353 1747 
Q 353 2603 823 3093 
Q 1294 3584 2113 3584 
Q 2378 3584 2631 3529 
Q 2884 3475 3122 3366 
z
" transform="scale(0.015625)"/>
       <path id="DejaVuSans-20" transform="scale(0.015625)"/>
       <path id="DejaVuSans-6f" d="M 1959 3097 
Q 1497 3097 1228 2736 
Q 959 2375 959 1747 
Q 959 1119 1226 758 
Q 1494 397 1959 397 
Q 2419 397 2687 759 
Q 2956 1122 2956 1747 
Q 2956 2369 2687 2733 
Q 2419 3097 1959 3097 
z
M 1959 3584 
Q 2709 3584 3137 3096 
Q 3566 2609 3566 1747 
Q 3566 888 3137 398 
Q 2709 -91 1959 -91 
Q 1206 -91 779 398 
Q 353 888 353 1747 
Q 353 2609 779 3096 
Q 1206 3584 1959 3584 
z
" transform="scale(0.015625)"/>
       <path id="DejaVuSans-73" d="M 2834 3397 
L 2834 2853 
Q 2591 2978 2328 3040 
Q 2066 3103 1784 3103 
Q 1356 3103 1142 2972 
Q 928 2841 928 2578 
Q 928 2378 1081 2264 
Q 1234 2150 1697 2047 
L 1894 2003 
Q 2506 1872 2764 1633 
Q 3022 1394 3022 966 
Q 3022 478 2636 193 
Q 2250 -91 1575 -91 
Q 1294 -91 989 -36 
Q 684 19 347 128 
L 347 722 
Q 666 556 975 473 
Q 1284 391 1588 391 
Q 1994 391 2212 530 
Q 2431 669 2431 922 
Q 2431 1156 2273 1281 
Q 2116 1406 1581 1522 
L 1381 1569 
Q 847 1681 609 1914 
Q 372 2147 372 2553 
Q 372 3047 722 3315 
Q 1072 3584 1716 3584 
Q 2034 3584 2315 3537 
Q 2597 3491 2834 3397 
z
" transform="scale(0.015625)"/>
       <path id="DejaVuSans-72" d="M 2631 2963 
Q 2534 3019 2420 3045 
Q 2306 3072 2169 3072 
Q 1681 3072 1420 2755 
Q 1159 2438 1159 1844 
L 1159 0 
L 581 0 
L 581 3500 
L 1159 3500 
L 1159 2956 
Q 1341 3275 1631 3429 
Q 1922 3584 2338 3584 
Q 2397 3584 2469 3576 
Q 2541 3569 2628 3553 
L 2631 2963 
z
" transform="scale(0.015625)"/>
       <path id="DejaVuSans-70" d="M 1159 525 
L 1159 -1331 
L 581 -1331 
L 581 3500 
L 1159 3500 
L 1159 2969 
Q 1341 3281 1617 3432 
Q 1894 3584 2278 3584 
Q 2916 3584 3314 3078 
Q 3713 2572 3713 1747 
Q 3713 922 3314 415 
Q 2916 -91 2278 -91 
Q 1894 -91 1617 61 
Q 1341 213 1159 525 
z
M 3116 1747 
Q 3116 2381 2855 2742 
Q 2594 3103 2138 3103 
Q 1681 3103 1420 2742 
Q 1159 2381 1159 1747 
Q 1159 1113 1420 752 
Q 1681 391 2138 391 
Q 2594 391 2855 752 
Q 3116 1113 3116 1747 
z
" transform="scale(0.015625)"/>
       <path id="DejaVuSans-69" d="M 603 3500 
L 1178 3500 
L 1178 0 
L 603 0 
L 603 3500 
z
M 603 4863 
L 1178 4863 
L 1178 4134 
L 603 4134 
L 603 4863 
z
" transform="scale(0.015625)"/>
       <path id="DejaVuSans-61" d="M 2194 1759 
Q 1497 1759 1228 1600 
Q 959 1441 959 1056 
Q 959 750 1161 570 
Q 1363 391 1709 391 
Q 2188 391 2477 730 
Q 2766 1069 2766 1631 
L 2766 1759 
L 2194 1759 
z
M 3341 1997 
L 3341 0 
L 2766 0 
L 2766 531 
Q 2569 213 2275 61 
Q 1981 -91 1556 -91 
Q 1019 -91 701 211 
Q 384 513 384 1019 
Q 384 1609 779 1909 
Q 1175 2209 1959 2209 
L 2766 2209 
L 2766 2266 
Q 2766 2663 2505 2880 
Q 2244 3097 1772 3097 
Q 1472 3097 1187 3025 
Q 903 2953 641 2809 
L 641 3341 
Q 956 3463 1253 3523 
Q 1550 3584 1831 3584 
Q 2591 3584 2966 3190 
Q 3341 2797 3341 1997 
z
" transform="scale(0.015625)"/>
       <path id="DejaVuSans-28" d="M 1984 4856 
Q 1566 4138 1362 3434 
Q 1159 2731 1159 2009 
Q 1159 1288 1364 580 
Q 1569 -128 1984 -844 
L 1484 -844 
Q 1016 -109 783 600 
Q 550 1309 550 2009 
Q 550 2706 781 3412 
Q 1013 4119 1484 4856 
L 1984 4856 
z
" transform="scale(0.015625)"/>
       <path id="DejaVuSans-6d" d="M 3328 2828 
Q 3544 3216 3844 3400 
Q 4144 3584 4550 3584 
Q 5097 3584 5394 3201 
Q 5691 2819 5691 2113 
L 5691 0 
L 5113 0 
L 5113 2094 
Q 5113 2597 4934 2840 
Q 4756 3084 4391 3084 
Q 3944 3084 3684 2787 
Q 3425 2491 3425 1978 
L 3425 0 
L 2847 0 
L 2847 2094 
Q 2847 2600 2669 2842 
Q 2491 3084 2119 3084 
Q 1678 3084 1418 2786 
Q 1159 2488 1159 1978 
L 1159 0 
L 581 0 
L 581 3500 
L 1159 3500 
L 1159 2956 
Q 1356 3278 1631 3431 
Q 1906 3584 2284 3584 
Q 2666 3584 2933 3390 
Q 3200 3197 3328 2828 
z
" transform="scale(0.015625)"/>
       <path id="DejaVuSans-74" d="M 1172 4494 
L 1172 3500 
L 2356 3500 
L 2356 3053 
L 1172 3053 
L 1172 1153 
Q 1172 725 1289 603 
Q 1406 481 1766 481 
L 2356 481 
L 2356 0 
L 1766 0 
Q 1100 0 847 248 
Q 594 497 594 1153 
L 594 3053 
L 172 3053 
L 172 3500 
L 594 3500 
L 594 4494 
L 1172 4494 
z
" transform="scale(0.015625)"/>
       <path id="DejaVuSans-29" d="M 513 4856 
L 1013 4856 
Q 1481 4119 1714 3412 
Q 1947 2706 1947 2009 
Q 1947 1309 1714 600 
Q 1481 -109 1013 -844 
L 513 -844 
Q 928 -128 1133 580 
Q 1338 1288 1338 2009 
Q 1338 2731 1133 3434 
Q 928 4138 513 4856 
z
" transform="scale(0.015625)"/>
      </defs>
      <use xlink:href="#DejaVuSans-49"/>
      <use xlink:href="#DejaVuSans-6e" x="29.492188"/>
      <use xlink:href="#DejaVuSans-66" x="92.871094"/>
      <use xlink:href="#DejaVuSans-6c" x="128.076172"/>
      <use xlink:href="#DejaVuSans-75" x="155.859375"/>
      <use xlink:href="#DejaVuSans-65" x="219.238281"/>
      <use xlink:href="#DejaVuSans-6e" x="280.761719"/>
      <use xlink:href="#DejaVuSans-63" x="344.140625"/>
      <use xlink:href="#DejaVuSans-65" x="399.121094"/>
      <use xlink:href="#DejaVuSans-20" x="460.644531"/>
      <use xlink:href="#DejaVuSans-6f" x="492.431641"/>
      <use xlink:href="#DejaVuSans-66" x="553.613281"/>
      <use xlink:href="#DejaVuSans-20" x="588.818359"/>
      <use xlink:href="#DejaVuSans-73" x="620.605469"/>
      <use xlink:href="#DejaVuSans-75" x="672.705078"/>
      <use xlink:href="#DejaVuSans-72" x="736.083984"/>
      <use xlink:href="#DejaVuSans-70" x="777.197266"/>
      <use xlink:href="#DejaVuSans-72" x="840.673828"/>
      <use xlink:href="#DejaVuSans-69" x="881.787109"/>
      <use xlink:href="#DejaVuSans-73" x="909.570312"/>
      <use xlink:href="#DejaVuSans-61" x="961.669922"/>
      <use xlink:href="#DejaVuSans-6c" x="1022.949219"/>
      <use xlink:href="#DejaVuSans-20" x="1050.732422"/>
      <use xlink:href="#DejaVuSans-28" x="1082.519531"/>
      <use xlink:href="#DejaVuSans-6d" x="1121.533203"/>
      <use xlink:href="#DejaVuSans-75" x="1218.945312"/>
      <use xlink:href="#DejaVuSans-6c" x="1282.324219"/>
      <use xlink:href="#DejaVuSans-74" x="1310.107422"/>
      <use xlink:href="#DejaVuSans-69" x="1349.316406"/>
      <use xlink:href="#DejaVuSans-70" x="1377.099609"/>
      <use xlink:href="#DejaVuSans-6c" x="1440.576172"/>
      <use xlink:href="#DejaVuSans-69" x="1468.359375"/>
      <use xlink:href="#DejaVuSans-63" x="1496.142578"/>
      <use xlink:href="#DejaVuSans-61" x="1551.123047"/>
      <use xlink:href="#DejaVuSans-74" x="1612.402344"/>
      <use xlink:href="#DejaVuSans-69" x="1651.611328"/>
      <use xlink:href="#DejaVuSans-6f" x="1679.394531"/>
      <use xlink:href="#DejaVuSans-6e" x="1740.576172"/>
      <use xlink:href="#DejaVuSans-29" x="1803.955078"/>
     </g>
    </g>
   </g>
   <g id="matplotlib.axis_2">
    <g id="ytick_1">
     <g id="line2d_6">
      <defs>
       <path id="m1c00983a9d" d="M 0 0 
L -3.5 0 
" style="stroke: #000000; stroke-width: 0.8"/>
      </defs>
      <g>
       <use xlink:href="#m1c00983a9d" x="47.72" y="153.302195" style="stroke: #000000; stroke-width: 0.8"/>
      </g>
     </g>
     <g id="text_7">
      <!-- 0.2 -->
      <g transform="translate(24.816875 157.101414)scale(0.1 -0.1)">
       <use xlink:href="#DejaVuSans-30"/>
       <use xlink:href="#DejaVuSans-2e" x="63.623047"/>
       <use xlink:href="#DejaVuSans-32" x="95.410156"/>
      </g>
     </g>
    </g>
    <g id="ytick_2">
     <g id="line2d_7">
      <g>
       <use xlink:href="#m1c00983a9d" x="47.72" y="123.368919" style="stroke: #000000; stroke-width: 0.8"/>
      </g>
     </g>
     <g id="text_8">
      <!-- 0.4 -->
      <g transform="translate(24.816875 127.168138)scale(0.1 -0.1)">
       <defs>
        <path id="DejaVuSans-34" d="M 2419 4116 
L 825 1625 
L 2419 1625 
L 2419 4116 
z
M 2253 4666 
L 3047 4666 
L 3047 1625 
L 3713 1625 
L 3713 1100 
L 3047 1100 
L 3047 0 
L 2419 0 
L 2419 1100 
L 313 1100 
L 313 1709 
L 2253 4666 
z
" transform="scale(0.015625)"/>
       </defs>
       <use xlink:href="#DejaVuSans-30"/>
       <use xlink:href="#DejaVuSans-2e" x="63.623047"/>
       <use xlink:href="#DejaVuSans-34" x="95.410156"/>
      </g>
     </g>
    </g>
    <g id="ytick_3">
     <g id="line2d_8">
      <g>
       <use xlink:href="#m1c00983a9d" x="47.72" y="93.435643" style="stroke: #000000; stroke-width: 0.8"/>
      </g>
     </g>
     <g id="text_9">
      <!-- 0.6 -->
      <g transform="translate(24.816875 97.234862)scale(0.1 -0.1)">
       <defs>
        <path id="DejaVuSans-36" d="M 2113 2584 
Q 1688 2584 1439 2293 
Q 1191 2003 1191 1497 
Q 1191 994 1439 701 
Q 1688 409 2113 409 
Q 2538 409 2786 701 
Q 3034 994 3034 1497 
Q 3034 2003 2786 2293 
Q 2538 2584 2113 2584 
z
M 3366 4563 
L 3366 3988 
Q 3128 4100 2886 4159 
Q 2644 4219 2406 4219 
Q 1781 4219 1451 3797 
Q 1122 3375 1075 2522 
Q 1259 2794 1537 2939 
Q 1816 3084 2150 3084 
Q 2853 3084 3261 2657 
Q 3669 2231 3669 1497 
Q 3669 778 3244 343 
Q 2819 -91 2113 -91 
Q 1303 -91 875 529 
Q 447 1150 447 2328 
Q 447 3434 972 4092 
Q 1497 4750 2381 4750 
Q 2619 4750 2861 4703 
Q 3103 4656 3366 4563 
z
" transform="scale(0.015625)"/>
       </defs>
       <use xlink:href="#DejaVuSans-30"/>
       <use xlink:href="#DejaVuSans-2e" x="63.623047"/>
       <use xlink:href="#DejaVuSans-36" x="95.410156"/>
      </g>
     </g>
    </g>
    <g id="ytick_4">
     <g id="line2d_9">
      <g>
       <use xlink:href="#m1c00983a9d" x="47.72" y="63.502367" style="stroke: #000000; stroke-width: 0.8"/>
      </g>
     </g>
     <g id="text_10">
      <!-- 0.8 -->
      <g transform="translate(24.816875 67.301586)scale(0.1 -0.1)">
       <defs>
        <path id="DejaVuSans-38" d="M 2034 2216 
Q 1584 2216 1326 1975 
Q 1069 1734 1069 1313 
Q 1069 891 1326 650 
Q 1584 409 2034 409 
Q 2484 409 2743 651 
Q 3003 894 3003 1313 
Q 3003 1734 2745 1975 
Q 2488 2216 2034 2216 
z
M 1403 2484 
Q 997 2584 770 2862 
Q 544 3141 544 3541 
Q 544 4100 942 4425 
Q 1341 4750 2034 4750 
Q 2731 4750 3128 4425 
Q 3525 4100 3525 3541 
Q 3525 3141 3298 2862 
Q 3072 2584 2669 2484 
Q 3125 2378 3379 2068 
Q 3634 1759 3634 1313 
Q 3634 634 3220 271 
Q 2806 -91 2034 -91 
Q 1263 -91 848 271 
Q 434 634 434 1313 
Q 434 1759 690 2068 
Q 947 2378 1403 2484 
z
M 1172 3481 
Q 1172 3119 1398 2916 
Q 1625 2713 2034 2713 
Q 2441 2713 2670 2916 
Q 2900 3119 2900 3481 
Q 2900 3844 2670 4047 
Q 2441 4250 2034 4250 
Q 1625 4250 1398 4047 
Q 1172 3844 1172 3481 
z
" transform="scale(0.015625)"/>
       </defs>
       <use xlink:href="#DejaVuSans-30"/>
       <use xlink:href="#DejaVuSans-2e" x="63.623047"/>
       <use xlink:href="#DejaVuSans-38" x="95.410156"/>
      </g>
     </g>
    </g>
    <g id="ytick_5">
     <g id="line2d_10">
      <g>
       <use xlink:href="#m1c00983a9d" x="47.72" y="33.569091" style="stroke: #000000; stroke-width: 0.8"/>
      </g>
     </g>
     <g id="text_11">
      <!-- 1.0 -->
      <g transform="translate(24.816875 37.36831)scale(0.1 -0.1)">
       <use xlink:href="#DejaVuSans-31"/>
       <use xlink:href="#DejaVuSans-2e" x="63.623047"/>
       <use xlink:href="#DejaVuSans-30" x="95.410156"/>
      </g>
     </g>
    </g>
    <g id="text_12">
     <!-- R-value -->
     <g transform="translate(18.737188 119.064687)rotate(-90)scale(0.1 -0.1)">
      <defs>
       <path id="DejaVuSans-52" d="M 2841 2188 
Q 3044 2119 3236 1894 
Q 3428 1669 3622 1275 
L 4263 0 
L 3584 0 
L 2988 1197 
Q 2756 1666 2539 1819 
Q 2322 1972 1947 1972 
L 1259 1972 
L 1259 0 
L 628 0 
L 628 4666 
L 2053 4666 
Q 2853 4666 3247 4331 
Q 3641 3997 3641 3322 
Q 3641 2881 3436 2590 
Q 3231 2300 2841 2188 
z
M 1259 4147 
L 1259 2491 
L 2053 2491 
Q 2509 2491 2742 2702 
Q 2975 2913 2975 3322 
Q 2975 3731 2742 3939 
Q 2509 4147 2053 4147 
L 1259 4147 
z
" transform="scale(0.015625)"/>
       <path id="DejaVuSans-2d" d="M 313 2009 
L 1997 2009 
L 1997 1497 
L 313 1497 
L 313 2009 
z
" transform="scale(0.015625)"/>
       <path id="DejaVuSans-76" d="M 191 3500 
L 800 3500 
L 1894 563 
L 2988 3500 
L 3597 3500 
L 2284 0 
L 1503 0 
L 191 3500 
z
" transform="scale(0.015625)"/>
      </defs>
      <use xlink:href="#DejaVuSans-52"/>
      <use xlink:href="#DejaVuSans-2d" x="65.482422"/>
      <use xlink:href="#DejaVuSans-76" x="98.941406"/>
      <use xlink:href="#DejaVuSans-61" x="158.121094"/>
      <use xlink:href="#DejaVuSans-6c" x="219.400391"/>
      <use xlink:href="#DejaVuSans-75" x="247.183594"/>
      <use xlink:href="#DejaVuSans-65" x="310.5625"/>
     </g>
    </g>
   </g>
   <g id="line2d_11">
    <path d="M 47.72 33.569091 
L 59.167105 35.387215 
L 70.614211 40.679925 
L 82.061316 47.463618 
L 93.508421 56.454744 
L 104.955526 65.062578 
L 116.402632 75.046495 
L 127.849737 84.69538 
L 139.296842 94.092751 
L 150.743947 103.040888 
L 162.191053 111.475346 
L 173.638158 118.162814 
L 185.085263 124.97051 
L 196.532368 130.670507 
L 207.979474 135.501462 
L 219.426579 139.890671 
L 230.873684 143.440765 
L 242.320789 147.039713 
L 253.767895 149.704375 
L 265.215 152.105541 
" clip-path="url(#pf6466573f0)" style="fill: none; stroke: #1f77b4; stroke-width: 1.5; stroke-linecap: square"/>
   </g>
   <g id="line2d_12">
    <path d="M 47.72 33.569237 
L 59.167105 34.764834 
L 70.614211 37.749522 
L 82.061316 41.821999 
L 93.508421 47.97437 
L 104.955526 54.539658 
L 116.402632 62.772559 
L 127.849737 71.203045 
L 139.296842 79.676547 
L 150.743947 87.90255 
L 162.191053 95.989533 
L 173.638158 102.997758 
L 185.085263 110.016122 
L 196.532368 116.490052 
L 207.979474 122.225275 
L 219.426579 127.518982 
L 230.873684 132.049067 
L 242.320789 136.483258 
L 253.767895 139.97698 
L 265.215 143.115125 
" clip-path="url(#pf6466573f0)" style="fill: none; stroke: #ff7f0e; stroke-width: 1.5; stroke-linecap: square"/>
   </g>
   <g id="line2d_13">
    <path d="M 47.72 33.569091 
L 59.167105 34.967977 
L 70.614211 37.385741 
L 82.061316 40.213558 
L 93.508421 44.226455 
L 104.955526 48.30255 
L 116.402632 52.535741 
L 127.849737 56.824576 
L 139.296842 61.657312 
L 150.743947 65.943917 
L 162.191053 70.69081 
L 173.638158 75.261666 
L 185.085263 79.93202 
L 196.532368 84.59352 
L 207.979474 89.234832 
L 219.426579 93.838624 
L 230.873684 98.125909 
L 242.320789 102.312138 
L 253.767895 106.171221 
L 265.215 110.171157 
" clip-path="url(#pf6466573f0)" style="fill: none; stroke: #2ca02c; stroke-width: 1.5; stroke-linecap: square"/>
   </g>
   <g id="line2d_14">
    <path d="M 47.72 33.569901 
L 59.167105 34.688526 
L 70.614211 36.553591 
L 82.061316 38.782894 
L 93.508421 42.29882 
L 104.955526 46.091391 
L 116.402632 50.403551 
L 127.849737 54.937606 
L 139.296842 59.958572 
L 150.743947 64.507496 
L 162.191053 69.503663 
L 173.638158 74.175705 
L 185.085263 78.925311 
L 196.532368 83.573274 
L 207.979474 88.18783 
L 219.426579 92.667861 
L 230.873684 96.839209 
L 242.320789 100.77024 
L 253.767895 104.38016 
L 265.215 108.193274 
" clip-path="url(#pf6466573f0)" style="fill: none; stroke: #d62728; stroke-width: 1.5; stroke-linecap: square"/>
   </g>
   <g id="line2d_15">
    <path d="M 47.72 33.569091 
L 59.167105 35.390302 
L 70.614211 40.679456 
L 82.061316 47.504 
L 93.508421 56.459164 
L 104.955526 65.180897 
L 116.402632 75.203017 
L 127.849737 84.969584 
L 139.296842 94.186315 
L 150.743947 103.26941 
L 162.191053 111.463369 
L 173.638158 118.313434 
L 185.085263 125.311494 
L 196.532368 130.656765 
L 207.979474 136.281289 
L 219.426579 140.183943 
L 230.873684 143.976208 
L 242.320789 148.518385 
L 253.767895 150.676801 
L 265.215 153.408161 
" clip-path="url(#pf6466573f0)" style="fill: none; stroke: #9467bd; stroke-width: 1.5; stroke-linecap: square"/>
   </g>
   <g id="line2d_16">
    <path d="M 47.72 33.569675 
L 59.167105 34.767248 
L 70.614211 37.744244 
L 82.061316 41.833412 
L 93.508421 47.977044 
L 104.955526 54.623655 
L 116.402632 62.909597 
L 127.849737 71.354741 
L 139.296842 79.721519 
L 150.743947 87.982202 
L 162.191053 96.000983 
L 173.638158 103.143617 
L 185.085263 110.241884 
L 196.532368 116.470924 
L 207.979474 122.729487 
L 219.426579 127.724833 
L 230.873684 132.529092 
L 242.320789 137.697938 
L 253.767895 140.797575 
L 265.215 144.255254 
" clip-path="url(#pf6466573f0)" style="fill: none; stroke: #8c564b; stroke-width: 1.5; stroke-linecap: square"/>
   </g>
   <g id="line2d_17">
    <path d="M 47.72 44.616834 
L 59.167105 47.044099 
L 70.614211 52.956324 
L 82.061316 61.111503 
L 93.508421 71.100284 
L 104.955526 80.656474 
L 116.402632 90.531119 
L 127.849737 100.018206 
L 139.296842 108.998397 
L 150.743947 117.579171 
L 162.191053 125.701475 
L 173.638158 132.045493 
L 185.085263 138.487578 
L 196.532368 143.720608 
L 207.979474 148.13777 
L 219.426579 151.47135 
L 230.873684 154.553289 
L 242.320789 157.275998 
L 253.767895 159.325306 
L 265.215 161.079731 
" clip-path="url(#pf6466573f0)" style="fill: none; stroke: #e377c2; stroke-width: 1.5; stroke-linecap: square"/>
   </g>
   <g id="line2d_18">
    <path d="M 47.72 33.569369 
L 59.167105 34.144837 
L 70.614211 34.834891 
L 82.061316 36.473514 
L 93.508421 40.007535 
L 104.955526 44.748014 
L 116.402632 51.186468 
L 127.849737 57.998896 
L 139.296842 65.499453 
L 150.743947 72.959416 
L 162.191053 80.731593 
L 173.638158 88.163827 
L 185.085263 95.879076 
L 196.532368 103.388025 
L 207.979474 110.150145 
L 219.426579 116.382078 
L 230.873684 122.103572 
L 242.320789 127.447808 
L 253.767895 131.851437 
L 265.215 135.900448 
" clip-path="url(#pf6466573f0)" style="fill: none; stroke: #7f7f7f; stroke-width: 1.5; stroke-linecap: square"/>
   </g>
   <g id="patch_3">
    <path d="M 47.72 174.04 
L 47.72 26.88 
" style="fill: none; stroke: #000000; stroke-width: 0.8; stroke-linejoin: miter; stroke-linecap: square"/>
   </g>
   <g id="patch_4">
    <path d="M 47.72 174.04 
L 265.215 174.04 
" style="fill: none; stroke: #000000; stroke-width: 0.8; stroke-linejoin: miter; stroke-linecap: square"/>
   </g>
   <g id="text_13">
    <!-- Node * surprisal -->
    <g transform="translate(108.18625 20.88)scale(0.12 -0.12)">
     <defs>
      <path id="DejaVuSans-4e" d="M 628 4666 
L 1478 4666 
L 3547 763 
L 3547 4666 
L 4159 4666 
L 4159 0 
L 3309 0 
L 1241 3903 
L 1241 0 
L 628 0 
L 628 4666 
z
" transform="scale(0.015625)"/>
      <path id="DejaVuSans-64" d="M 2906 2969 
L 2906 4863 
L 3481 4863 
L 3481 0 
L 2906 0 
L 2906 525 
Q 2725 213 2448 61 
Q 2172 -91 1784 -91 
Q 1150 -91 751 415 
Q 353 922 353 1747 
Q 353 2572 751 3078 
Q 1150 3584 1784 3584 
Q 2172 3584 2448 3432 
Q 2725 3281 2906 2969 
z
M 947 1747 
Q 947 1113 1208 752 
Q 1469 391 1925 391 
Q 2381 391 2643 752 
Q 2906 1113 2906 1747 
Q 2906 2381 2643 2742 
Q 2381 3103 1925 3103 
Q 1469 3103 1208 2742 
Q 947 2381 947 1747 
z
" transform="scale(0.015625)"/>
      <path id="DejaVuSans-2a" d="M 3009 3897 
L 1888 3291 
L 3009 2681 
L 2828 2375 
L 1778 3009 
L 1778 1831 
L 1422 1831 
L 1422 3009 
L 372 2375 
L 191 2681 
L 1313 3291 
L 191 3897 
L 372 4206 
L 1422 3572 
L 1422 4750 
L 1778 4750 
L 1778 3572 
L 2828 4206 
L 3009 3897 
z
" transform="scale(0.015625)"/>
     </defs>
     <use xlink:href="#DejaVuSans-4e"/>
     <use xlink:href="#DejaVuSans-6f" x="74.804688"/>
     <use xlink:href="#DejaVuSans-64" x="135.986328"/>
     <use xlink:href="#DejaVuSans-65" x="199.462891"/>
     <use xlink:href="#DejaVuSans-20" x="260.986328"/>
     <use xlink:href="#DejaVuSans-2a" x="292.773438"/>
     <use xlink:href="#DejaVuSans-20" x="342.773438"/>
     <use xlink:href="#DejaVuSans-73" x="374.560547"/>
     <use xlink:href="#DejaVuSans-75" x="426.660156"/>
     <use xlink:href="#DejaVuSans-72" x="490.039062"/>
     <use xlink:href="#DejaVuSans-70" x="531.152344"/>
     <use xlink:href="#DejaVuSans-72" x="594.628906"/>
     <use xlink:href="#DejaVuSans-69" x="635.742188"/>
     <use xlink:href="#DejaVuSans-73" x="663.525391"/>
     <use xlink:href="#DejaVuSans-61" x="715.625"/>
     <use xlink:href="#DejaVuSans-6c" x="776.904297"/>
    </g>
   </g>
  </g>
  <g id="axes_2">
   <g id="patch_5">
    <path d="M 298.065 174.04 
L 515.56 174.04 
L 515.56 26.88 
L 298.065 26.88 
z
" style="fill: #ffffff"/>
   </g>
   <g id="PolyCollection_9">
    <path d="M 298.065 33.569091 
L 298.065 33.569091 
L 309.512105 35.707514 
L 320.959211 41.721322 
L 332.406316 50.480834 
L 343.853421 60.200265 
L 355.300526 70.959239 
L 366.747632 82.498778 
L 378.194737 92.978035 
L 389.641842 102.788091 
L 401.088947 111.976278 
L 412.536053 119.537932 
L 423.983158 125.955183 
L 435.430263 131.28428 
L 446.877368 136.460187 
L 458.324474 140.886017 
L 469.771579 144.395741 
L 481.218684 147.484995 
L 492.665789 150.385695 
L 504.112895 153.250101 
L 515.56 155.859684 
L 515.56 146.598184 
L 515.56 146.598184 
L 504.112895 143.114725 
L 492.665789 139.963308 
L 481.218684 135.775545 
L 469.771579 132.113833 
L 458.324474 126.535144 
L 446.877368 121.725573 
L 435.430263 115.728517 
L 423.983158 109.495167 
L 412.536053 102.823641 
L 401.088947 94.893654 
L 389.641842 86.872797 
L 378.194737 78.767438 
L 366.747632 69.951876 
L 355.300526 60.993834 
L 343.853421 52.941353 
L 332.406316 45.589899 
L 320.959211 39.46214 
L 309.512105 34.976293 
L 298.065 33.569091 
z
" clip-path="url(#pdc09825c93)" style="fill: #1f77b4; fill-opacity: 0.4"/>
   </g>
   <g id="PolyCollection_10">
    <path d="M 298.065 33.56921 
L 298.065 33.569264 
L 309.512105 35.702791 
L 320.959211 41.725985 
L 332.406316 50.48518 
L 343.853421 60.215366 
L 355.300526 71.005717 
L 366.747632 82.560851 
L 378.194737 93.071434 
L 389.641842 102.752877 
L 401.088947 111.975576 
L 412.536053 119.466415 
L 423.983158 125.892149 
L 435.430263 131.222586 
L 446.877368 136.422291 
L 458.324474 140.915753 
L 469.771579 144.481955 
L 481.218684 147.540007 
L 492.665789 150.549157 
L 504.112895 153.414328 
L 515.56 156.177668 
L 515.56 146.906804 
L 515.56 146.906804 
L 504.112895 143.477573 
L 492.665789 140.294788 
L 481.218684 135.975928 
L 469.771579 132.381297 
L 458.324474 126.719815 
L 446.877368 121.921806 
L 435.430263 115.903451 
L 423.983158 109.706951 
L 412.536053 102.963637 
L 401.088947 95.034474 
L 389.641842 87.004411 
L 378.194737 78.853403 
L 366.747632 70.050188 
L 355.300526 61.065455 
L 343.853421 52.984691 
L 332.406316 45.600493 
L 320.959211 39.478732 
L 309.512105 34.977814 
L 298.065 33.56921 
z
" clip-path="url(#pdc09825c93)" style="fill: #ff7f0e; fill-opacity: 0.4"/>
   </g>
   <g id="PolyCollection_11">
    <path d="M 298.065 33.569091 
L 298.065 33.569091 
L 309.512105 35.703703 
L 320.959211 41.727658 
L 332.406316 50.495564 
L 343.853421 60.18628 
L 355.300526 70.965319 
L 366.747632 82.557421 
L 378.194737 93.091765 
L 389.641842 102.959331 
L 401.088947 112.206106 
L 412.536053 119.885567 
L 423.983158 126.458127 
L 435.430263 131.945001 
L 446.877368 137.323629 
L 458.324474 142.08448 
L 469.771579 145.939033 
L 481.218684 149.037076 
L 492.665789 152.567575 
L 504.112895 155.749421 
L 515.56 158.452928 
L 515.56 147.838363 
L 515.56 147.838363 
L 504.112895 144.368678 
L 492.665789 141.190697 
L 481.218684 136.829599 
L 469.771579 133.053187 
L 458.324474 127.518759 
L 446.877368 122.705355 
L 435.430263 116.621723 
L 423.983158 110.23029 
L 412.536053 103.449153 
L 401.088947 95.435343 
L 389.641842 87.32857 
L 378.194737 79.14703 
L 366.747632 70.245164 
L 355.300526 61.240933 
L 343.853421 53.180651 
L 332.406316 45.656173 
L 320.959211 39.496469 
L 309.512105 34.982684 
L 298.065 33.569091 
z
" clip-path="url(#pdc09825c93)" style="fill: #2ca02c; fill-opacity: 0.4"/>
   </g>
   <g id="PolyCollection_12">
    <path d="M 298.065 33.569752 
L 298.065 33.570049 
L 309.512105 35.700304 
L 320.959211 41.732046 
L 332.406316 50.482137 
L 343.853421 60.182844 
L 355.300526 70.990357 
L 366.747632 82.562686 
L 378.194737 93.064546 
L 389.641842 102.77995 
L 401.088947 112.034159 
L 412.536053 119.681712 
L 423.983158 126.238349 
L 435.430263 131.711396 
L 446.877368 137.107968 
L 458.324474 141.939321 
L 469.771579 145.714692 
L 481.218684 148.896569 
L 492.665789 152.462625 
L 504.112895 155.747398 
L 515.56 158.457652 
L 515.56 148.123177 
L 515.56 148.123177 
L 504.112895 144.588278 
L 492.665789 141.329509 
L 481.218684 136.8657 
L 469.771579 133.173189 
L 458.324474 127.449583 
L 446.877368 122.612718 
L 435.430263 116.506714 
L 423.983158 110.149331 
L 412.536053 103.367016 
L 401.088947 95.362331 
L 389.641842 87.289006 
L 378.194737 79.089085 
L 366.747632 70.224618 
L 355.300526 61.221033 
L 343.853421 53.167257 
L 332.406316 45.647106 
L 320.959211 39.500722 
L 309.512105 34.9826 
L 298.065 33.569752 
z
" clip-path="url(#pdc09825c93)" style="fill: #d62728; fill-opacity: 0.4"/>
   </g>
   <g id="PolyCollection_13">
    <path d="M 298.065 33.569091 
L 298.065 33.569091 
L 309.512105 35.717107 
L 320.959211 41.770419 
L 332.406316 50.520252 
L 343.853421 60.215026 
L 355.300526 71.104066 
L 366.747632 82.645515 
L 378.194737 93.036042 
L 389.641842 102.637103 
L 401.088947 112.498719 
L 412.536053 121.028465 
L 423.983158 126.023584 
L 435.430263 131.700522 
L 446.877368 136.605672 
L 458.324474 140.43046 
L 469.771579 145.258475 
L 481.218684 147.579627 
L 492.665789 151.014928 
L 504.112895 154.390762 
L 515.56 156.093415 
L 515.56 147.819153 
L 515.56 147.819153 
L 504.112895 144.517472 
L 492.665789 139.635485 
L 481.218684 136.779855 
L 469.771579 132.548355 
L 458.324474 127.550394 
L 446.877368 122.063338 
L 435.430263 116.948914 
L 423.983158 109.882443 
L 412.536053 103.046903 
L 401.088947 95.200262 
L 389.641842 87.269729 
L 378.194737 78.815529 
L 366.747632 70.112463 
L 355.300526 61.140935 
L 343.853421 53.184132 
L 332.406316 45.642196 
L 320.959211 39.463604 
L 309.512105 34.997699 
L 298.065 33.569091 
z
" clip-path="url(#pdc09825c93)" style="fill: #9467bd; fill-opacity: 0.4"/>
   </g>
   <g id="PolyCollection_14">
    <path d="M 298.065 33.569565 
L 298.065 33.569784 
L 309.512105 35.712769 
L 320.959211 41.777323 
L 332.406316 50.523293 
L 343.853421 60.239722 
L 355.300526 71.148901 
L 366.747632 82.697917 
L 378.194737 93.121276 
L 389.641842 102.604723 
L 401.088947 112.489684 
L 412.536053 120.958436 
L 423.983158 125.934814 
L 435.430263 131.610729 
L 446.877368 136.608281 
L 458.324474 140.4273 
L 469.771579 145.272905 
L 481.218684 147.64473 
L 492.665789 151.100521 
L 504.112895 154.562652 
L 515.56 156.367724 
L 515.56 148.20875 
L 515.56 148.20875 
L 504.112895 144.842152 
L 492.665789 140.032477 
L 481.218684 136.970193 
L 469.771579 132.901199 
L 458.324474 127.770158 
L 446.877368 122.251467 
L 435.430263 117.168542 
L 423.983158 110.082953 
L 412.536053 103.207197 
L 401.088947 95.339117 
L 389.641842 87.400709 
L 378.194737 78.907966 
L 366.747632 70.205345 
L 355.300526 61.219117 
L 343.853421 53.242767 
L 332.406316 45.654149 
L 320.959211 39.480887 
L 309.512105 34.999916 
L 298.065 33.569565 
z
" clip-path="url(#pdc09825c93)" style="fill: #8c564b; fill-opacity: 0.4"/>
   </g>
   <g id="PolyCollection_15">
    <path d="M 298.065 42.986333 
L 298.065 46.247335 
L 309.512105 47.963474 
L 320.959211 53.483532 
L 332.406316 61.560266 
L 343.853421 70.339918 
L 355.300526 80.476935 
L 366.747632 91.023389 
L 378.194737 100.850034 
L 389.641842 109.860552 
L 401.088947 117.944566 
L 412.536053 124.716314 
L 423.983158 130.579905 
L 435.430263 135.139835 
L 446.877368 139.923424 
L 458.324474 144.232253 
L 469.771579 147.332137 
L 481.218684 150.316728 
L 492.665789 153.138427 
L 504.112895 155.929484 
L 515.56 158.064777 
L 515.56 148.702043 
L 515.56 148.702043 
L 504.112895 145.590963 
L 492.665789 142.950022 
L 481.218684 138.95026 
L 469.771579 135.739296 
L 458.324474 130.752813 
L 446.877368 126.364832 
L 435.430263 121.008112 
L 423.983158 115.047896 
L 412.536053 109.029078 
L 401.088947 101.93765 
L 389.641842 94.079114 
L 378.194737 86.571095 
L 366.747632 77.901977 
L 355.300526 69.575151 
L 343.853421 61.887913 
L 332.406316 54.919898 
L 320.959211 48.916691 
L 309.512105 44.551814 
L 298.065 42.986333 
z
" clip-path="url(#pdc09825c93)" style="fill: #e377c2; fill-opacity: 0.4"/>
   </g>
   <g id="PolyCollection_16">
    <path d="M 298.065 33.569274 
L 298.065 33.569463 
L 309.512105 35.703516 
L 320.959211 41.72217 
L 332.406316 50.500639 
L 343.853421 60.25026 
L 355.300526 71.081271 
L 366.747632 82.690649 
L 378.194737 93.338129 
L 389.641842 103.1371 
L 401.088947 112.474909 
L 412.536053 120.072111 
L 423.983158 126.635539 
L 435.430263 132.12357 
L 446.877368 137.491404 
L 458.324474 142.193193 
L 469.771579 146.172345 
L 481.218684 149.279966 
L 492.665789 152.784228 
L 504.112895 155.724736 
L 515.56 158.897492 
L 515.56 147.208709 
L 515.56 147.208709 
L 504.112895 144.114631 
L 492.665789 140.821682 
L 481.218684 136.641341 
L 469.771579 132.888784 
L 458.324474 127.408717 
L 446.877368 122.536237 
L 435.430263 116.489294 
L 423.983158 110.182598 
L 412.536053 103.385614 
L 401.088947 95.415708 
L 389.641842 87.259206 
L 378.194737 79.082351 
L 366.747632 70.157657 
L 355.300526 61.159963 
L 343.853421 53.057621 
L 332.406316 45.633627 
L 320.959211 39.48713 
L 309.512105 34.977016 
L 298.065 33.569274 
z
" clip-path="url(#pdc09825c93)" style="fill: #7f7f7f; fill-opacity: 0.4"/>
   </g>
   <g id="matplotlib.axis_3">
    <g id="xtick_6">
     <g id="line2d_19">
      <g>
       <use xlink:href="#me5209b0d9f" x="298.065" y="174.04" style="stroke: #000000; stroke-width: 0.8"/>
      </g>
     </g>
     <g id="text_14">
      <!-- 0.0 -->
      <g transform="translate(290.113437 188.638438)scale(0.1 -0.1)">
       <use xlink:href="#DejaVuSans-30"/>
       <use xlink:href="#DejaVuSans-2e" x="63.623047"/>
       <use xlink:href="#DejaVuSans-30" x="95.410156"/>
      </g>
     </g>
    </g>
    <g id="xtick_7">
     <g id="line2d_20">
      <g>
       <use xlink:href="#me5209b0d9f" x="352.43875" y="174.04" style="stroke: #000000; stroke-width: 0.8"/>
      </g>
     </g>
     <g id="text_15">
      <!-- 0.5 -->
      <g transform="translate(344.487187 188.638438)scale(0.1 -0.1)">
       <use xlink:href="#DejaVuSans-30"/>
       <use xlink:href="#DejaVuSans-2e" x="63.623047"/>
       <use xlink:href="#DejaVuSans-35" x="95.410156"/>
      </g>
     </g>
    </g>
    <g id="xtick_8">
     <g id="line2d_21">
      <g>
       <use xlink:href="#me5209b0d9f" x="406.8125" y="174.04" style="stroke: #000000; stroke-width: 0.8"/>
      </g>
     </g>
     <g id="text_16">
      <!-- 1.0 -->
      <g transform="translate(398.860937 188.638438)scale(0.1 -0.1)">
       <use xlink:href="#DejaVuSans-31"/>
       <use xlink:href="#DejaVuSans-2e" x="63.623047"/>
       <use xlink:href="#DejaVuSans-30" x="95.410156"/>
      </g>
     </g>
    </g>
    <g id="xtick_9">
     <g id="line2d_22">
      <g>
       <use xlink:href="#me5209b0d9f" x="461.18625" y="174.04" style="stroke: #000000; stroke-width: 0.8"/>
      </g>
     </g>
     <g id="text_17">
      <!-- 1.5 -->
      <g transform="translate(453.234687 188.638438)scale(0.1 -0.1)">
       <use xlink:href="#DejaVuSans-31"/>
       <use xlink:href="#DejaVuSans-2e" x="63.623047"/>
       <use xlink:href="#DejaVuSans-35" x="95.410156"/>
      </g>
     </g>
    </g>
    <g id="xtick_10">
     <g id="line2d_23">
      <g>
       <use xlink:href="#me5209b0d9f" x="515.56" y="174.04" style="stroke: #000000; stroke-width: 0.8"/>
      </g>
     </g>
     <g id="text_18">
      <!-- 2.0 -->
      <g transform="translate(507.608437 188.638438)scale(0.1 -0.1)">
       <use xlink:href="#DejaVuSans-32"/>
       <use xlink:href="#DejaVuSans-2e" x="63.623047"/>
       <use xlink:href="#DejaVuSans-30" x="95.410156"/>
      </g>
     </g>
    </g>
    <g id="text_19">
     <!-- Influence of surprisal (multiplication) -->
     <g transform="translate(314.665625 202.316563)scale(0.1 -0.1)">
      <use xlink:href="#DejaVuSans-49"/>
      <use xlink:href="#DejaVuSans-6e" x="29.492188"/>
      <use xlink:href="#DejaVuSans-66" x="92.871094"/>
      <use xlink:href="#DejaVuSans-6c" x="128.076172"/>
      <use xlink:href="#DejaVuSans-75" x="155.859375"/>
      <use xlink:href="#DejaVuSans-65" x="219.238281"/>
      <use xlink:href="#DejaVuSans-6e" x="280.761719"/>
      <use xlink:href="#DejaVuSans-63" x="344.140625"/>
      <use xlink:href="#DejaVuSans-65" x="399.121094"/>
      <use xlink:href="#DejaVuSans-20" x="460.644531"/>
      <use xlink:href="#DejaVuSans-6f" x="492.431641"/>
      <use xlink:href="#DejaVuSans-66" x="553.613281"/>
      <use xlink:href="#DejaVuSans-20" x="588.818359"/>
      <use xlink:href="#DejaVuSans-73" x="620.605469"/>
      <use xlink:href="#DejaVuSans-75" x="672.705078"/>
      <use xlink:href="#DejaVuSans-72" x="736.083984"/>
      <use xlink:href="#DejaVuSans-70" x="777.197266"/>
      <use xlink:href="#DejaVuSans-72" x="840.673828"/>
      <use xlink:href="#DejaVuSans-69" x="881.787109"/>
      <use xlink:href="#DejaVuSans-73" x="909.570312"/>
      <use xlink:href="#DejaVuSans-61" x="961.669922"/>
      <use xlink:href="#DejaVuSans-6c" x="1022.949219"/>
      <use xlink:href="#DejaVuSans-20" x="1050.732422"/>
      <use xlink:href="#DejaVuSans-28" x="1082.519531"/>
      <use xlink:href="#DejaVuSans-6d" x="1121.533203"/>
      <use xlink:href="#DejaVuSans-75" x="1218.945312"/>
      <use xlink:href="#DejaVuSans-6c" x="1282.324219"/>
      <use xlink:href="#DejaVuSans-74" x="1310.107422"/>
      <use xlink:href="#DejaVuSans-69" x="1349.316406"/>
      <use xlink:href="#DejaVuSans-70" x="1377.099609"/>
      <use xlink:href="#DejaVuSans-6c" x="1440.576172"/>
      <use xlink:href="#DejaVuSans-69" x="1468.359375"/>
      <use xlink:href="#DejaVuSans-63" x="1496.142578"/>
      <use xlink:href="#DejaVuSans-61" x="1551.123047"/>
      <use xlink:href="#DejaVuSans-74" x="1612.402344"/>
      <use xlink:href="#DejaVuSans-69" x="1651.611328"/>
      <use xlink:href="#DejaVuSans-6f" x="1679.394531"/>
      <use xlink:href="#DejaVuSans-6e" x="1740.576172"/>
      <use xlink:href="#DejaVuSans-29" x="1803.955078"/>
     </g>
    </g>
   </g>
   <g id="line2d_24">
    <path d="M 298.065 33.569091 
L 309.512105 35.341903 
L 320.959211 40.591731 
L 332.406316 48.035366 
L 343.853421 56.570809 
L 355.300526 65.976537 
L 366.747632 76.225327 
L 378.194737 85.872737 
L 389.641842 94.830444 
L 401.088947 103.434966 
L 412.536053 111.180786 
L 423.983158 117.725175 
L 435.430263 123.506399 
L 446.877368 129.09288 
L 458.324474 133.710581 
L 469.771579 138.254787 
L 481.218684 141.63027 
L 492.665789 145.174502 
L 504.112895 148.182413 
L 515.56 151.228934 
" clip-path="url(#pdc09825c93)" style="fill: none; stroke: #1f77b4; stroke-width: 1.5; stroke-linecap: square"/>
   </g>
   <g id="line2d_25">
    <path d="M 298.065 33.569237 
L 309.512105 35.340302 
L 320.959211 40.602359 
L 332.406316 48.042836 
L 343.853421 56.600028 
L 355.300526 66.035586 
L 366.747632 76.30552 
L 378.194737 85.962419 
L 389.641842 94.878644 
L 401.088947 103.505025 
L 412.536053 111.215026 
L 423.983158 117.79955 
L 435.430263 123.563019 
L 446.877368 129.172049 
L 458.324474 133.817784 
L 469.771579 138.431626 
L 481.218684 141.757968 
L 492.665789 145.421973 
L 504.112895 148.44595 
L 515.56 151.542236 
" clip-path="url(#pdc09825c93)" style="fill: none; stroke: #ff7f0e; stroke-width: 1.5; stroke-linecap: square"/>
   </g>
   <g id="line2d_26">
    <path d="M 298.065 33.569091 
L 309.512105 35.343194 
L 320.959211 40.612063 
L 332.406316 48.075868 
L 343.853421 56.683465 
L 355.300526 66.103126 
L 366.747632 76.401293 
L 378.194737 86.119397 
L 389.641842 95.143951 
L 401.088947 103.820725 
L 412.536053 111.66736 
L 423.983158 118.344209 
L 435.430263 124.283362 
L 446.877368 130.014492 
L 458.324474 134.80162 
L 469.771579 139.49611 
L 481.218684 142.933337 
L 492.665789 146.879136 
L 504.112895 150.059049 
L 515.56 153.145645 
" clip-path="url(#pdc09825c93)" style="fill: none; stroke: #2ca02c; stroke-width: 1.5; stroke-linecap: square"/>
   </g>
   <g id="line2d_27">
    <path d="M 298.065 33.569901 
L 309.512105 35.341452 
L 320.959211 40.616384 
L 332.406316 48.064621 
L 343.853421 56.675051 
L 355.300526 66.105695 
L 366.747632 76.393652 
L 378.194737 86.076815 
L 389.641842 95.034478 
L 401.088947 103.698245 
L 412.536053 111.524364 
L 423.983158 118.19384 
L 435.430263 124.109055 
L 446.877368 129.860343 
L 458.324474 134.694452 
L 469.771579 139.443941 
L 481.218684 142.881134 
L 492.665789 146.896067 
L 504.112895 150.167838 
L 515.56 153.290414 
" clip-path="url(#pdc09825c93)" style="fill: none; stroke: #d62728; stroke-width: 1.5; stroke-linecap: square"/>
   </g>
   <g id="line2d_28">
    <path d="M 298.065 33.569091 
L 309.512105 35.357403 
L 320.959211 40.617011 
L 332.406316 48.081224 
L 343.853421 56.699579 
L 355.300526 66.122501 
L 366.747632 76.378989 
L 378.194737 85.925786 
L 389.641842 94.953416 
L 401.088947 103.84949 
L 412.536053 112.037684 
L 423.983158 117.953014 
L 435.430263 124.324718 
L 446.877368 129.334505 
L 458.324474 133.990427 
L 469.771579 138.903415 
L 481.218684 142.179741 
L 492.665789 145.325207 
L 504.112895 149.454117 
L 515.56 151.956284 
" clip-path="url(#pdc09825c93)" style="fill: none; stroke: #9467bd; stroke-width: 1.5; stroke-linecap: square"/>
   </g>
   <g id="line2d_29">
    <path d="M 298.065 33.569674 
L 309.512105 35.356343 
L 320.959211 40.629105 
L 332.406316 48.088721 
L 343.853421 56.741244 
L 355.300526 66.184009 
L 366.747632 76.451631 
L 378.194737 86.014621 
L 389.641842 95.002716 
L 401.088947 103.914401 
L 412.536053 112.082816 
L 423.983158 118.008883 
L 435.430263 124.389636 
L 446.877368 129.429874 
L 458.324474 134.098729 
L 469.771579 139.087052 
L 481.218684 142.307461 
L 492.665789 145.566499 
L 504.112895 149.702402 
L 515.56 152.288237 
" clip-path="url(#pdc09825c93)" style="fill: none; stroke: #8c564b; stroke-width: 1.5; stroke-linecap: square"/>
   </g>
   <g id="line2d_30">
    <path d="M 298.065 44.616834 
L 309.512105 46.257644 
L 320.959211 51.200111 
L 332.406316 58.240082 
L 343.853421 66.113915 
L 355.300526 75.026043 
L 366.747632 84.462683 
L 378.194737 93.710564 
L 389.641842 101.969833 
L 401.088947 109.941108 
L 412.536053 116.872696 
L 423.983158 122.8139 
L 435.430263 128.073973 
L 446.877368 133.144128 
L 458.324474 137.492533 
L 469.771579 141.535716 
L 481.218684 144.633494 
L 492.665789 148.044225 
L 504.112895 150.760224 
L 515.56 153.38341 
" clip-path="url(#pdc09825c93)" style="fill: none; stroke: #e377c2; stroke-width: 1.5; stroke-linecap: square"/>
   </g>
   <g id="line2d_31">
    <path d="M 298.065 33.569369 
L 309.512105 35.340266 
L 320.959211 40.60465 
L 332.406316 48.067133 
L 343.853421 56.65394 
L 355.300526 66.120617 
L 366.747632 76.424153 
L 378.194737 86.21024 
L 389.641842 95.198153 
L 401.088947 103.945308 
L 412.536053 111.728862 
L 423.983158 118.409068 
L 435.430263 124.306432 
L 446.877368 130.013821 
L 458.324474 134.800955 
L 469.771579 139.530564 
L 481.218684 142.960654 
L 492.665789 146.802955 
L 504.112895 149.919683 
L 515.56 153.053101 
" clip-path="url(#pdc09825c93)" style="fill: none; stroke: #7f7f7f; stroke-width: 1.5; stroke-linecap: square"/>
   </g>
   <g id="patch_6">
    <path d="M 298.065 174.04 
L 298.065 26.88 
" style="fill: none; stroke: #000000; stroke-width: 0.8; stroke-linejoin: miter; stroke-linecap: square"/>
   </g>
   <g id="patch_7">
    <path d="M 298.065 174.04 
L 515.56 174.04 
" style="fill: none; stroke: #000000; stroke-width: 0.8; stroke-linejoin: miter; stroke-linecap: square"/>
   </g>
   <g id="text_20">
    <!-- Node * third variable -->
    <g transform="translate(344.2325 20.88)scale(0.12 -0.12)">
     <defs>
      <path id="DejaVuSans-68" d="M 3513 2113 
L 3513 0 
L 2938 0 
L 2938 2094 
Q 2938 2591 2744 2837 
Q 2550 3084 2163 3084 
Q 1697 3084 1428 2787 
Q 1159 2491 1159 1978 
L 1159 0 
L 581 0 
L 581 4863 
L 1159 4863 
L 1159 2956 
Q 1366 3272 1645 3428 
Q 1925 3584 2291 3584 
Q 2894 3584 3203 3211 
Q 3513 2838 3513 2113 
z
" transform="scale(0.015625)"/>
      <path id="DejaVuSans-62" d="M 3116 1747 
Q 3116 2381 2855 2742 
Q 2594 3103 2138 3103 
Q 1681 3103 1420 2742 
Q 1159 2381 1159 1747 
Q 1159 1113 1420 752 
Q 1681 391 2138 391 
Q 2594 391 2855 752 
Q 3116 1113 3116 1747 
z
M 1159 2969 
Q 1341 3281 1617 3432 
Q 1894 3584 2278 3584 
Q 2916 3584 3314 3078 
Q 3713 2572 3713 1747 
Q 3713 922 3314 415 
Q 2916 -91 2278 -91 
Q 1894 -91 1617 61 
Q 1341 213 1159 525 
L 1159 0 
L 581 0 
L 581 4863 
L 1159 4863 
L 1159 2969 
z
" transform="scale(0.015625)"/>
     </defs>
     <use xlink:href="#DejaVuSans-4e"/>
     <use xlink:href="#DejaVuSans-6f" x="74.804688"/>
     <use xlink:href="#DejaVuSans-64" x="135.986328"/>
     <use xlink:href="#DejaVuSans-65" x="199.462891"/>
     <use xlink:href="#DejaVuSans-20" x="260.986328"/>
     <use xlink:href="#DejaVuSans-2a" x="292.773438"/>
     <use xlink:href="#DejaVuSans-20" x="342.773438"/>
     <use xlink:href="#DejaVuSans-74" x="374.560547"/>
     <use xlink:href="#DejaVuSans-68" x="413.769531"/>
     <use xlink:href="#DejaVuSans-69" x="477.148438"/>
     <use xlink:href="#DejaVuSans-72" x="504.931641"/>
     <use xlink:href="#DejaVuSans-64" x="544.294922"/>
     <use xlink:href="#DejaVuSans-20" x="607.771484"/>
     <use xlink:href="#DejaVuSans-76" x="639.558594"/>
     <use xlink:href="#DejaVuSans-61" x="698.738281"/>
     <use xlink:href="#DejaVuSans-72" x="760.017578"/>
     <use xlink:href="#DejaVuSans-69" x="801.130859"/>
     <use xlink:href="#DejaVuSans-61" x="828.914062"/>
     <use xlink:href="#DejaVuSans-62" x="890.193359"/>
     <use xlink:href="#DejaVuSans-6c" x="953.669922"/>
     <use xlink:href="#DejaVuSans-65" x="981.453125"/>
    </g>
   </g>
   <g id="legend_1">
    <g id="line2d_32">
     <path d="M 524.56 39.978437 
L 534.56 39.978437 
L 544.56 39.978437 
" style="fill: none; stroke: #1f77b4; stroke-width: 1.5; stroke-linecap: square"/>
    </g>
    <g id="text_21">
     <!-- Node -->
     <g transform="translate(552.56 43.478437)scale(0.1 -0.1)">
      <use xlink:href="#DejaVuSans-4e"/>
      <use xlink:href="#DejaVuSans-6f" x="74.804688"/>
      <use xlink:href="#DejaVuSans-64" x="135.986328"/>
      <use xlink:href="#DejaVuSans-65" x="199.462891"/>
     </g>
    </g>
    <g id="line2d_33">
     <path d="M 524.56 54.656563 
L 534.56 54.656563 
L 544.56 54.656563 
" style="fill: none; stroke: #ff7f0e; stroke-width: 1.5; stroke-linecap: square"/>
    </g>
    <g id="text_22">
     <!-- Node + surprisal -->
     <g transform="translate(552.56 58.156563)scale(0.1 -0.1)">
      <defs>
       <path id="DejaVuSans-2b" d="M 2944 4013 
L 2944 2272 
L 4684 2272 
L 4684 1741 
L 2944 1741 
L 2944 0 
L 2419 0 
L 2419 1741 
L 678 1741 
L 678 2272 
L 2419 2272 
L 2419 4013 
L 2944 4013 
z
" transform="scale(0.015625)"/>
      </defs>
      <use xlink:href="#DejaVuSans-4e"/>
      <use xlink:href="#DejaVuSans-6f" x="74.804688"/>
      <use xlink:href="#DejaVuSans-64" x="135.986328"/>
      <use xlink:href="#DejaVuSans-65" x="199.462891"/>
      <use xlink:href="#DejaVuSans-20" x="260.986328"/>
      <use xlink:href="#DejaVuSans-2b" x="292.773438"/>
      <use xlink:href="#DejaVuSans-20" x="376.5625"/>
      <use xlink:href="#DejaVuSans-73" x="408.349609"/>
      <use xlink:href="#DejaVuSans-75" x="460.449219"/>
      <use xlink:href="#DejaVuSans-72" x="523.828125"/>
      <use xlink:href="#DejaVuSans-70" x="564.941406"/>
      <use xlink:href="#DejaVuSans-72" x="628.417969"/>
      <use xlink:href="#DejaVuSans-69" x="669.53125"/>
      <use xlink:href="#DejaVuSans-73" x="697.314453"/>
      <use xlink:href="#DejaVuSans-61" x="749.414062"/>
      <use xlink:href="#DejaVuSans-6c" x="810.693359"/>
     </g>
    </g>
    <g id="line2d_34">
     <path d="M 524.56 69.334687 
L 534.56 69.334687 
L 544.56 69.334687 
" style="fill: none; stroke: #2ca02c; stroke-width: 1.5; stroke-linecap: square"/>
    </g>
    <g id="text_23">
     <!-- Node split -->
     <g transform="translate(552.56 72.834687)scale(0.1 -0.1)">
      <use xlink:href="#DejaVuSans-4e"/>
      <use xlink:href="#DejaVuSans-6f" x="74.804688"/>
      <use xlink:href="#DejaVuSans-64" x="135.986328"/>
      <use xlink:href="#DejaVuSans-65" x="199.462891"/>
      <use xlink:href="#DejaVuSans-20" x="260.986328"/>
      <use xlink:href="#DejaVuSans-73" x="292.773438"/>
      <use xlink:href="#DejaVuSans-70" x="344.873047"/>
      <use xlink:href="#DejaVuSans-6c" x="408.349609"/>
      <use xlink:href="#DejaVuSans-69" x="436.132812"/>
      <use xlink:href="#DejaVuSans-74" x="463.916016"/>
     </g>
    </g>
    <g id="line2d_35">
     <path d="M 524.56 84.012812 
L 534.56 84.012812 
L 544.56 84.012812 
" style="fill: none; stroke: #d62728; stroke-width: 1.5; stroke-linecap: square"/>
    </g>
    <g id="text_24">
     <!-- Node split + surprisal -->
     <g transform="translate(552.56 87.512812)scale(0.1 -0.1)">
      <use xlink:href="#DejaVuSans-4e"/>
      <use xlink:href="#DejaVuSans-6f" x="74.804688"/>
      <use xlink:href="#DejaVuSans-64" x="135.986328"/>
      <use xlink:href="#DejaVuSans-65" x="199.462891"/>
      <use xlink:href="#DejaVuSans-20" x="260.986328"/>
      <use xlink:href="#DejaVuSans-73" x="292.773438"/>
      <use xlink:href="#DejaVuSans-70" x="344.873047"/>
      <use xlink:href="#DejaVuSans-6c" x="408.349609"/>
      <use xlink:href="#DejaVuSans-69" x="436.132812"/>
      <use xlink:href="#DejaVuSans-74" x="463.916016"/>
      <use xlink:href="#DejaVuSans-20" x="503.125"/>
      <use xlink:href="#DejaVuSans-2b" x="534.912109"/>
      <use xlink:href="#DejaVuSans-20" x="618.701172"/>
      <use xlink:href="#DejaVuSans-73" x="650.488281"/>
      <use xlink:href="#DejaVuSans-75" x="702.587891"/>
      <use xlink:href="#DejaVuSans-72" x="765.966797"/>
      <use xlink:href="#DejaVuSans-70" x="807.080078"/>
      <use xlink:href="#DejaVuSans-72" x="870.556641"/>
      <use xlink:href="#DejaVuSans-69" x="911.669922"/>
      <use xlink:href="#DejaVuSans-73" x="939.453125"/>
      <use xlink:href="#DejaVuSans-61" x="991.552734"/>
      <use xlink:href="#DejaVuSans-6c" x="1052.832031"/>
     </g>
    </g>
    <g id="line2d_36">
     <path d="M 524.56 98.690937 
L 534.56 98.690937 
L 544.56 98.690937 
" style="fill: none; stroke: #9467bd; stroke-width: 1.5; stroke-linecap: square"/>
    </g>
    <g id="text_25">
     <!-- Node random split -->
     <g transform="translate(552.56 102.190937)scale(0.1 -0.1)">
      <use xlink:href="#DejaVuSans-4e"/>
      <use xlink:href="#DejaVuSans-6f" x="74.804688"/>
      <use xlink:href="#DejaVuSans-64" x="135.986328"/>
      <use xlink:href="#DejaVuSans-65" x="199.462891"/>
      <use xlink:href="#DejaVuSans-20" x="260.986328"/>
      <use xlink:href="#DejaVuSans-72" x="292.773438"/>
      <use xlink:href="#DejaVuSans-61" x="333.886719"/>
      <use xlink:href="#DejaVuSans-6e" x="395.166016"/>
      <use xlink:href="#DejaVuSans-64" x="458.544922"/>
      <use xlink:href="#DejaVuSans-6f" x="522.021484"/>
      <use xlink:href="#DejaVuSans-6d" x="583.203125"/>
      <use xlink:href="#DejaVuSans-20" x="680.615234"/>
      <use xlink:href="#DejaVuSans-73" x="712.402344"/>
      <use xlink:href="#DejaVuSans-70" x="764.501953"/>
      <use xlink:href="#DejaVuSans-6c" x="827.978516"/>
      <use xlink:href="#DejaVuSans-69" x="855.761719"/>
      <use xlink:href="#DejaVuSans-74" x="883.544922"/>
     </g>
    </g>
    <g id="line2d_37">
     <path d="M 524.56 113.369062 
L 534.56 113.369062 
L 544.56 113.369062 
" style="fill: none; stroke: #8c564b; stroke-width: 1.5; stroke-linecap: square"/>
    </g>
    <g id="text_26">
     <!-- Node random split + surprisal -->
     <g transform="translate(552.56 116.869062)scale(0.1 -0.1)">
      <use xlink:href="#DejaVuSans-4e"/>
      <use xlink:href="#DejaVuSans-6f" x="74.804688"/>
      <use xlink:href="#DejaVuSans-64" x="135.986328"/>
      <use xlink:href="#DejaVuSans-65" x="199.462891"/>
      <use xlink:href="#DejaVuSans-20" x="260.986328"/>
      <use xlink:href="#DejaVuSans-72" x="292.773438"/>
      <use xlink:href="#DejaVuSans-61" x="333.886719"/>
      <use xlink:href="#DejaVuSans-6e" x="395.166016"/>
      <use xlink:href="#DejaVuSans-64" x="458.544922"/>
      <use xlink:href="#DejaVuSans-6f" x="522.021484"/>
      <use xlink:href="#DejaVuSans-6d" x="583.203125"/>
      <use xlink:href="#DejaVuSans-20" x="680.615234"/>
      <use xlink:href="#DejaVuSans-73" x="712.402344"/>
      <use xlink:href="#DejaVuSans-70" x="764.501953"/>
      <use xlink:href="#DejaVuSans-6c" x="827.978516"/>
      <use xlink:href="#DejaVuSans-69" x="855.761719"/>
      <use xlink:href="#DejaVuSans-74" x="883.544922"/>
      <use xlink:href="#DejaVuSans-20" x="922.753906"/>
      <use xlink:href="#DejaVuSans-2b" x="954.541016"/>
      <use xlink:href="#DejaVuSans-20" x="1038.330078"/>
      <use xlink:href="#DejaVuSans-73" x="1070.117188"/>
      <use xlink:href="#DejaVuSans-75" x="1122.216797"/>
      <use xlink:href="#DejaVuSans-72" x="1185.595703"/>
      <use xlink:href="#DejaVuSans-70" x="1226.708984"/>
      <use xlink:href="#DejaVuSans-72" x="1290.185547"/>
      <use xlink:href="#DejaVuSans-69" x="1331.298828"/>
      <use xlink:href="#DejaVuSans-73" x="1359.082031"/>
      <use xlink:href="#DejaVuSans-61" x="1411.181641"/>
      <use xlink:href="#DejaVuSans-6c" x="1472.460938"/>
     </g>
    </g>
    <g id="line2d_38">
     <path d="M 524.56 128.047187 
L 534.56 128.047187 
L 544.56 128.047187 
" style="fill: none; stroke: #e377c2; stroke-width: 1.5; stroke-linecap: square"/>
    </g>
    <g id="text_27">
     <!-- Interaction -->
     <g transform="translate(552.56 131.547187)scale(0.1 -0.1)">
      <use xlink:href="#DejaVuSans-49"/>
      <use xlink:href="#DejaVuSans-6e" x="29.492188"/>
      <use xlink:href="#DejaVuSans-74" x="92.871094"/>
      <use xlink:href="#DejaVuSans-65" x="132.080078"/>
      <use xlink:href="#DejaVuSans-72" x="193.603516"/>
      <use xlink:href="#DejaVuSans-61" x="234.716797"/>
      <use xlink:href="#DejaVuSans-63" x="295.996094"/>
      <use xlink:href="#DejaVuSans-74" x="350.976562"/>
      <use xlink:href="#DejaVuSans-69" x="390.185547"/>
      <use xlink:href="#DejaVuSans-6f" x="417.96875"/>
      <use xlink:href="#DejaVuSans-6e" x="479.150391"/>
     </g>
    </g>
    <g id="line2d_39">
     <path d="M 524.56 142.725312 
L 534.56 142.725312 
L 544.56 142.725312 
" style="fill: none; stroke: #7f7f7f; stroke-width: 1.5; stroke-linecap: square"/>
    </g>
    <g id="text_28">
     <!-- Node + surprisal + interaction -->
     <g transform="translate(552.56 146.225312)scale(0.1 -0.1)">
      <use xlink:href="#DejaVuSans-4e"/>
      <use xlink:href="#DejaVuSans-6f" x="74.804688"/>
      <use xlink:href="#DejaVuSans-64" x="135.986328"/>
      <use xlink:href="#DejaVuSans-65" x="199.462891"/>
      <use xlink:href="#DejaVuSans-20" x="260.986328"/>
      <use xlink:href="#DejaVuSans-2b" x="292.773438"/>
      <use xlink:href="#DejaVuSans-20" x="376.5625"/>
      <use xlink:href="#DejaVuSans-73" x="408.349609"/>
      <use xlink:href="#DejaVuSans-75" x="460.449219"/>
      <use xlink:href="#DejaVuSans-72" x="523.828125"/>
      <use xlink:href="#DejaVuSans-70" x="564.941406"/>
      <use xlink:href="#DejaVuSans-72" x="628.417969"/>
      <use xlink:href="#DejaVuSans-69" x="669.53125"/>
      <use xlink:href="#DejaVuSans-73" x="697.314453"/>
      <use xlink:href="#DejaVuSans-61" x="749.414062"/>
      <use xlink:href="#DejaVuSans-6c" x="810.693359"/>
      <use xlink:href="#DejaVuSans-20" x="838.476562"/>
      <use xlink:href="#DejaVuSans-2b" x="870.263672"/>
      <use xlink:href="#DejaVuSans-20" x="954.052734"/>
      <use xlink:href="#DejaVuSans-69" x="985.839844"/>
      <use xlink:href="#DejaVuSans-6e" x="1013.623047"/>
      <use xlink:href="#DejaVuSans-74" x="1077.001953"/>
      <use xlink:href="#DejaVuSans-65" x="1116.210938"/>
      <use xlink:href="#DejaVuSans-72" x="1177.734375"/>
      <use xlink:href="#DejaVuSans-61" x="1218.847656"/>
      <use xlink:href="#DejaVuSans-63" x="1280.126953"/>
      <use xlink:href="#DejaVuSans-74" x="1335.107422"/>
      <use xlink:href="#DejaVuSans-69" x="1374.316406"/>
      <use xlink:href="#DejaVuSans-6f" x="1402.099609"/>
      <use xlink:href="#DejaVuSans-6e" x="1463.28125"/>
     </g>
    </g>
   </g>
  </g>
 </g>
 <defs>
  <clipPath id="pf6466573f0">
   <rect x="47.72" y="26.88" width="217.495" height="147.16"/>
  </clipPath>
  <clipPath id="pdc09825c93">
   <rect x="298.065" y="26.88" width="217.495" height="147.16"/>
  </clipPath>
 </defs>
</svg>
