<?xml version="1.0" encoding="utf-8" standalone="no"?>
<!DOCTYPE svg PUBLIC "-//W3C//DTD SVG 1.1//EN"
  "http://www.w3.org/Graphics/SVG/1.1/DTD/svg11.dtd">
<svg xmlns:xlink="http://www.w3.org/1999/xlink" width="720pt" height="216pt" viewBox="0 0 720 216" xmlns="http://www.w3.org/2000/svg" version="1.1">
 <metadata>
  <rdf:RDF xmlns:dc="http://purl.org/dc/elements/1.1/" xmlns:cc="http://creativecommons.org/ns#" xmlns:rdf="http://www.w3.org/1999/02/22-rdf-syntax-ns#">
   <cc:Work>
    <dc:type rdf:resource="http://purl.org/dc/dcmitype/StillImage"/>
    <dc:date>2024-01-15T19:32:27.853591</dc:date>
    <dc:format>image/svg+xml</dc:format>
    <dc:creator>
     <cc:Agent>
      <dc:title>Matplotlib v3.5.1, https://matplotlib.org/</dc:title>
     </cc:Agent>
    </dc:creator>
   </cc:Work>
  </rdf:RDF>
 </metadata>
 <defs>
  <style type="text/css">*{stroke-linejoin: round; stroke-linecap: butt}</style>
 </defs>
 <g id="figure_1">
  <g id="patch_1">
   <path d="M 0 216 
L 720 216 
L 720 0 
L 0 0 
z
" style="fill: #ffffff"/>
  </g>
  <g id="axes_1">
   <g id="patch_2">
    <path d="M 47.72 174.04 
L 265.215 174.04 
L 265.215 26.88 
L 47.72 26.88 
z
" style="fill: #ffffff"/>
   </g>
   <g id="PolyCollection_1">
    <path d="M 47.72 33.569091 
L 47.72 33.569091 
L 59.167105 36.005071 
L 70.614211 43.338733 
L 82.061316 52.077479 
L 93.508421 62.029191 
L 104.955526 72.867633 
L 116.402632 82.615938 
L 127.849737 92.905124 
L 139.296842 101.71609 
L 150.743947 109.305315 
L 162.191053 116.598213 
L 173.638158 123.177498 
L 185.085263 128.716883 
L 196.532368 135.373923 
L 207.979474 139.747128 
L 219.426579 144.32277 
L 230.873684 148.681493 
L 242.320789 152.210179 
L 253.767895 154.674832 
L 265.215 158.276166 
L 265.215 147.19889 
L 265.215 147.19889 
L 253.767895 145.133583 
L 242.320789 142.229872 
L 230.873684 138.835354 
L 219.426579 135.192285 
L 207.979474 131.376539 
L 196.532368 126.448015 
L 185.085263 120.851508 
L 173.638158 114.09024 
L 162.191053 106.266521 
L 150.743947 98.448535 
L 139.296842 90.059035 
L 127.849737 80.678264 
L 116.402632 71.800788 
L 104.955526 62.868204 
L 93.508421 54.69055 
L 82.061316 46.727497 
L 70.614211 39.991938 
L 59.167105 35.2453 
L 47.72 33.569091 
z
" clip-path="url(#p7a6e4e9224)" style="fill: #1f77b4; fill-opacity: 0.4"/>
   </g>
   <g id="PolyCollection_2">
    <path d="M 47.72 33.569216 
L 47.72 33.569273 
L 59.167105 35.167382 
L 70.614211 39.382507 
L 82.061316 44.936928 
L 93.508421 52.045786 
L 104.955526 60.140561 
L 116.402632 68.758636 
L 127.849737 77.776792 
L 139.296842 86.057585 
L 150.743947 93.839235 
L 162.191053 101.195385 
L 173.638158 108.165615 
L 185.085263 114.194274 
L 196.532368 121.488017 
L 207.979474 126.428591 
L 219.426579 131.624058 
L 230.873684 136.852749 
L 242.320789 141.23432 
L 253.767895 144.96485 
L 265.215 149.16473 
L 265.215 137.695722 
L 265.215 137.695722 
L 253.767895 134.963819 
L 242.320789 131.9955 
L 230.873684 128.222722 
L 219.426579 124.02473 
L 207.979474 119.209461 
L 196.532368 113.486545 
L 185.085263 107.479913 
L 173.638158 100.812032 
L 162.191053 93.073303 
L 150.743947 85.706598 
L 139.296842 78.217813 
L 127.849737 69.919646 
L 116.402632 61.833919 
L 104.955526 54.25235 
L 93.508421 47.436768 
L 82.061316 41.488663 
L 70.614211 37.228363 
L 59.167105 34.669601 
L 47.72 33.569216 
z
" clip-path="url(#p7a6e4e9224)" style="fill: #ff7f0e; fill-opacity: 0.4"/>
   </g>
   <g id="PolyCollection_3">
    <path d="M 47.72 33.569091 
L 47.72 33.569091 
L 59.167105 35.446174 
L 70.614211 39.147913 
L 82.061316 43.479015 
L 93.508421 48.218746 
L 104.955526 53.473967 
L 116.402632 58.328236 
L 127.849737 63.640795 
L 139.296842 67.979059 
L 150.743947 72.147769 
L 162.191053 76.537391 
L 173.638158 80.607909 
L 185.085263 84.776581 
L 196.532368 89.326135 
L 207.979474 93.606076 
L 219.426579 97.828033 
L 230.873684 102.094696 
L 242.320789 106.199034 
L 253.767895 110.388568 
L 265.215 114.31424 
L 265.215 104.476826 
L 265.215 104.476826 
L 253.767895 100.178199 
L 242.320789 97.335135 
L 230.873684 93.226007 
L 219.426579 88.570076 
L 207.979474 83.925233 
L 196.532368 79.231642 
L 185.085263 74.974354 
L 173.638158 70.794538 
L 162.191053 66.469368 
L 150.743947 62.480521 
L 139.296842 58.136455 
L 127.849737 54.534425 
L 116.402632 50.626018 
L 104.955526 47.058363 
L 93.508421 43.371532 
L 82.061316 40.024865 
L 70.614211 37.085887 
L 59.167105 34.881615 
L 47.72 33.569091 
z
" clip-path="url(#p7a6e4e9224)" style="fill: #2ca02c; fill-opacity: 0.4"/>
   </g>
   <g id="PolyCollection_4">
    <path d="M 47.72 33.569761 
L 47.72 33.570142 
L 59.167105 35.075537 
L 70.614211 37.988608 
L 82.061316 41.580011 
L 93.508421 45.930844 
L 104.955526 50.825328 
L 116.402632 55.605517 
L 127.849737 61.063498 
L 139.296842 65.594287 
L 150.743947 70.050632 
L 162.191053 74.766926 
L 173.638158 78.991032 
L 185.085263 83.280125 
L 196.532368 87.871806 
L 207.979474 92.177434 
L 219.426579 96.243554 
L 230.873684 100.407286 
L 242.320789 104.368312 
L 253.767895 108.203293 
L 265.215 111.772154 
L 265.215 103.106256 
L 265.215 103.106256 
L 253.767895 98.936251 
L 242.320789 96.229062 
L 230.873684 92.290036 
L 219.426579 87.968737 
L 207.979474 83.409647 
L 196.532368 78.892656 
L 185.085263 74.70853 
L 173.638158 70.504566 
L 162.191053 65.996913 
L 150.743947 61.878786 
L 139.296842 57.339603 
L 127.849737 53.478379 
L 116.402632 49.290536 
L 104.955526 45.330723 
L 93.508421 41.647069 
L 82.061316 38.614258 
L 70.614211 36.202326 
L 59.167105 34.605231 
L 47.72 33.569761 
z
" clip-path="url(#p7a6e4e9224)" style="fill: #d62728; fill-opacity: 0.4"/>
   </g>
   <g id="PolyCollection_5">
    <path d="M 47.72 33.569091 
L 47.72 33.569092 
L 59.167105 36.005967 
L 70.614211 43.43178 
L 82.061316 52.10061 
L 93.508421 62.12077 
L 104.955526 73.075806 
L 116.402632 82.577317 
L 127.849737 93.089395 
L 139.296842 102.086013 
L 150.743947 109.393335 
L 162.191053 116.557923 
L 173.638158 123.49964 
L 185.085263 128.759312 
L 196.532368 135.999886 
L 207.979474 140.844614 
L 219.426579 144.970368 
L 230.873684 148.826558 
L 242.320789 152.226283 
L 253.767895 155.33168 
L 265.215 160.141123 
L 265.215 147.784788 
L 265.215 147.784788 
L 253.767895 145.31368 
L 242.320789 142.452756 
L 230.873684 139.335404 
L 219.426579 135.513966 
L 207.979474 131.018663 
L 196.532368 127.28207 
L 185.085263 120.864612 
L 173.638158 114.372549 
L 162.191053 106.216132 
L 150.743947 98.044157 
L 139.296842 90.433046 
L 127.849737 80.862311 
L 116.402632 71.772277 
L 104.955526 62.859786 
L 93.508421 54.754215 
L 82.061316 46.721042 
L 70.614211 39.990298 
L 59.167105 35.247705 
L 47.72 33.569091 
z
" clip-path="url(#p7a6e4e9224)" style="fill: #9467bd; fill-opacity: 0.4"/>
   </g>
   <g id="PolyCollection_6">
    <path d="M 47.72 33.569591 
L 47.72 33.569818 
L 59.167105 35.171339 
L 70.614211 39.404438 
L 82.061316 44.984152 
L 93.508421 52.074202 
L 104.955526 60.214415 
L 116.402632 68.702849 
L 127.849737 77.784329 
L 139.296842 86.278035 
L 150.743947 93.969162 
L 162.191053 101.188719 
L 173.638158 108.345428 
L 185.085263 114.362892 
L 196.532368 122.073277 
L 207.979474 126.755895 
L 219.426579 131.888095 
L 230.873684 137.074292 
L 242.320789 140.884395 
L 253.767895 145.598429 
L 265.215 150.63076 
L 265.215 138.13197 
L 265.215 138.13197 
L 253.767895 134.954263 
L 242.320789 132.404209 
L 230.873684 128.513132 
L 219.426579 124.430099 
L 207.979474 119.513018 
L 196.532368 113.870519 
L 185.085263 107.346465 
L 173.638158 101.003516 
L 162.191053 93.135288 
L 150.743947 85.307077 
L 139.296842 78.5015 
L 127.849737 70.082094 
L 116.402632 61.916188 
L 104.955526 54.336359 
L 93.508421 47.433489 
L 82.061316 41.502243 
L 70.614211 37.250108 
L 59.167105 34.671549 
L 47.72 33.569591 
z
" clip-path="url(#p7a6e4e9224)" style="fill: #8c564b; fill-opacity: 0.4"/>
   </g>
   <g id="PolyCollection_7">
    <path d="M 47.72 44.237595 
L 47.72 48.686708 
L 59.167105 52.333173 
L 70.614211 62.084789 
L 82.061316 73.695519 
L 93.508421 85.282709 
L 104.955526 96.211563 
L 116.402632 106.491998 
L 127.849737 116.393266 
L 139.296842 124.326984 
L 150.743947 130.849238 
L 162.191053 136.636487 
L 173.638158 141.570091 
L 185.085263 146.326474 
L 196.532368 151.007876 
L 207.979474 154.795357 
L 219.426579 158.010459 
L 230.873684 160.67177 
L 242.320789 163.224237 
L 253.767895 165.213264 
L 265.215 167.350909 
L 265.215 160.192977 
L 265.215 160.192977 
L 253.767895 157.925317 
L 242.320789 155.550509 
L 230.873684 152.561837 
L 219.426579 149.337905 
L 207.979474 145.358793 
L 196.532368 140.644383 
L 185.085263 135.052195 
L 173.638158 128.428753 
L 162.191053 121.121683 
L 150.743947 113.388992 
L 139.296842 105.977368 
L 127.849737 96.783758 
L 116.402632 87.961566 
L 104.955526 79.185575 
L 93.508421 69.49735 
L 82.061316 59.905075 
L 70.614211 51.698315 
L 59.167105 46.337041 
L 47.72 44.237595 
z
" clip-path="url(#p7a6e4e9224)" style="fill: #e377c2; fill-opacity: 0.4"/>
   </g>
   <g id="PolyCollection_8">
    <path d="M 47.72 33.569342 
L 47.72 33.569508 
L 59.167105 34.228911 
L 70.614211 35.811591 
L 82.061316 39.551519 
L 93.508421 45.988697 
L 104.955526 52.918395 
L 116.402632 60.062254 
L 127.849737 68.486939 
L 139.296842 76.158478 
L 150.743947 84.454747 
L 162.191053 91.774461 
L 173.638158 99.155913 
L 185.085263 105.006619 
L 196.532368 112.247235 
L 207.979474 117.808432 
L 219.426579 123.463768 
L 230.873684 128.785966 
L 242.320789 133.309796 
L 253.767895 137.352175 
L 265.215 141.630476 
L 265.215 131.153529 
L 265.215 131.153529 
L 253.767895 127.033286 
L 242.320789 123.034441 
L 230.873684 117.798523 
L 219.426579 112.003285 
L 207.979474 105.940362 
L 196.532368 99.16253 
L 185.085263 92.559952 
L 173.638158 85.515272 
L 162.191053 78.262777 
L 150.743947 71.317907 
L 139.296842 64.694765 
L 127.849737 57.266785 
L 116.402632 49.868197 
L 104.955526 43.352811 
L 93.508421 38.42089 
L 82.061316 35.585378 
L 70.614211 34.440475 
L 59.167105 34.124702 
L 47.72 33.569342 
z
" clip-path="url(#p7a6e4e9224)" style="fill: #7f7f7f; fill-opacity: 0.4"/>
   </g>
   <g id="matplotlib.axis_1">
    <g id="xtick_1">
     <g id="line2d_1">
      <defs>
       <path id="m3e9a499619" d="M 0 0 
L 0 3.5 
" style="stroke: #000000; stroke-width: 0.8"/>
      </defs>
      <g>
       <use xlink:href="#m3e9a499619" x="47.72" y="174.04" style="stroke: #000000; stroke-width: 0.8"/>
      </g>
     </g>
     <g id="text_1">
      <!-- 0.0 -->
      <g transform="translate(39.768438 188.638438)scale(0.1 -0.1)">
       <defs>
        <path id="DejaVuSans-30" d="M 2034 4250 
Q 1547 4250 1301 3770 
Q 1056 3291 1056 2328 
Q 1056 1369 1301 889 
Q 1547 409 2034 409 
Q 2525 409 2770 889 
Q 3016 1369 3016 2328 
Q 3016 3291 2770 3770 
Q 2525 4250 2034 4250 
z
M 2034 4750 
Q 2819 4750 3233 4129 
Q 3647 3509 3647 2328 
Q 3647 1150 3233 529 
Q 2819 -91 2034 -91 
Q 1250 -91 836 529 
Q 422 1150 422 2328 
Q 422 3509 836 4129 
Q 1250 4750 2034 4750 
z
" transform="scale(0.015625)"/>
        <path id="DejaVuSans-2e" d="M 684 794 
L 1344 794 
L 1344 0 
L 684 0 
L 684 794 
z
" transform="scale(0.015625)"/>
       </defs>
       <use xlink:href="#DejaVuSans-30"/>
       <use xlink:href="#DejaVuSans-2e" x="63.623047"/>
       <use xlink:href="#DejaVuSans-30" x="95.410156"/>
      </g>
     </g>
    </g>
    <g id="xtick_2">
     <g id="line2d_2">
      <g>
       <use xlink:href="#m3e9a499619" x="102.09375" y="174.04" style="stroke: #000000; stroke-width: 0.8"/>
      </g>
     </g>
     <g id="text_2">
      <!-- 0.5 -->
      <g transform="translate(94.142188 188.638438)scale(0.1 -0.1)">
       <defs>
        <path id="DejaVuSans-35" d="M 691 4666 
L 3169 4666 
L 3169 4134 
L 1269 4134 
L 1269 2991 
Q 1406 3038 1543 3061 
Q 1681 3084 1819 3084 
Q 2600 3084 3056 2656 
Q 3513 2228 3513 1497 
Q 3513 744 3044 326 
Q 2575 -91 1722 -91 
Q 1428 -91 1123 -41 
Q 819 9 494 109 
L 494 744 
Q 775 591 1075 516 
Q 1375 441 1709 441 
Q 2250 441 2565 725 
Q 2881 1009 2881 1497 
Q 2881 1984 2565 2268 
Q 2250 2553 1709 2553 
Q 1456 2553 1204 2497 
Q 953 2441 691 2322 
L 691 4666 
z
" transform="scale(0.015625)"/>
       </defs>
       <use xlink:href="#DejaVuSans-30"/>
       <use xlink:href="#DejaVuSans-2e" x="63.623047"/>
       <use xlink:href="#DejaVuSans-35" x="95.410156"/>
      </g>
     </g>
    </g>
    <g id="xtick_3">
     <g id="line2d_3">
      <g>
       <use xlink:href="#m3e9a499619" x="156.4675" y="174.04" style="stroke: #000000; stroke-width: 0.8"/>
      </g>
     </g>
     <g id="text_3">
      <!-- 1.0 -->
      <g transform="translate(148.515938 188.638438)scale(0.1 -0.1)">
       <defs>
        <path id="DejaVuSans-31" d="M 794 531 
L 1825 531 
L 1825 4091 
L 703 3866 
L 703 4441 
L 1819 4666 
L 2450 4666 
L 2450 531 
L 3481 531 
L 3481 0 
L 794 0 
L 794 531 
z
" transform="scale(0.015625)"/>
       </defs>
       <use xlink:href="#DejaVuSans-31"/>
       <use xlink:href="#DejaVuSans-2e" x="63.623047"/>
       <use xlink:href="#DejaVuSans-30" x="95.410156"/>
      </g>
     </g>
    </g>
    <g id="xtick_4">
     <g id="line2d_4">
      <g>
       <use xlink:href="#m3e9a499619" x="210.84125" y="174.04" style="stroke: #000000; stroke-width: 0.8"/>
      </g>
     </g>
     <g id="text_4">
      <!-- 1.5 -->
      <g transform="translate(202.889687 188.638438)scale(0.1 -0.1)">
       <use xlink:href="#DejaVuSans-31"/>
       <use xlink:href="#DejaVuSans-2e" x="63.623047"/>
       <use xlink:href="#DejaVuSans-35" x="95.410156"/>
      </g>
     </g>
    </g>
    <g id="xtick_5">
     <g id="line2d_5">
      <g>
       <use xlink:href="#m3e9a499619" x="265.215" y="174.04" style="stroke: #000000; stroke-width: 0.8"/>
      </g>
     </g>
     <g id="text_5">
      <!-- 2.0 -->
      <g transform="translate(257.263437 188.638438)scale(0.1 -0.1)">
       <defs>
        <path id="DejaVuSans-32" d="M 1228 531 
L 3431 531 
L 3431 0 
L 469 0 
L 469 531 
Q 828 903 1448 1529 
Q 2069 2156 2228 2338 
Q 2531 2678 2651 2914 
Q 2772 3150 2772 3378 
Q 2772 3750 2511 3984 
Q 2250 4219 1831 4219 
Q 1534 4219 1204 4116 
Q 875 4013 500 3803 
L 500 4441 
Q 881 4594 1212 4672 
Q 1544 4750 1819 4750 
Q 2544 4750 2975 4387 
Q 3406 4025 3406 3419 
Q 3406 3131 3298 2873 
Q 3191 2616 2906 2266 
Q 2828 2175 2409 1742 
Q 1991 1309 1228 531 
z
" transform="scale(0.015625)"/>
       </defs>
       <use xlink:href="#DejaVuSans-32"/>
       <use xlink:href="#DejaVuSans-2e" x="63.623047"/>
       <use xlink:href="#DejaVuSans-30" x="95.410156"/>
      </g>
     </g>
    </g>
    <g id="text_6">
     <!-- Influence of surprisal (multiplication) -->
     <g transform="translate(64.320625 202.316563)scale(0.1 -0.1)">
      <defs>
       <path id="DejaVuSans-49" d="M 628 4666 
L 1259 4666 
L 1259 0 
L 628 0 
L 628 4666 
z
" transform="scale(0.015625)"/>
       <path id="DejaVuSans-6e" d="M 3513 2113 
L 3513 0 
L 2938 0 
L 2938 2094 
Q 2938 2591 2744 2837 
Q 2550 3084 2163 3084 
Q 1697 3084 1428 2787 
Q 1159 2491 1159 1978 
L 1159 0 
L 581 0 
L 581 3500 
L 1159 3500 
L 1159 2956 
Q 1366 3272 1645 3428 
Q 1925 3584 2291 3584 
Q 2894 3584 3203 3211 
Q 3513 2838 3513 2113 
z
" transform="scale(0.015625)"/>
       <path id="DejaVuSans-66" d="M 2375 4863 
L 2375 4384 
L 1825 4384 
Q 1516 4384 1395 4259 
Q 1275 4134 1275 3809 
L 1275 3500 
L 2222 3500 
L 2222 3053 
L 1275 3053 
L 1275 0 
L 697 0 
L 697 3053 
L 147 3053 
L 147 3500 
L 697 3500 
L 697 3744 
Q 697 4328 969 4595 
Q 1241 4863 1831 4863 
L 2375 4863 
z
" transform="scale(0.015625)"/>
       <path id="DejaVuSans-6c" d="M 603 4863 
L 1178 4863 
L 1178 0 
L 603 0 
L 603 4863 
z
" transform="scale(0.015625)"/>
       <path id="DejaVuSans-75" d="M 544 1381 
L 544 3500 
L 1119 3500 
L 1119 1403 
Q 1119 906 1312 657 
Q 1506 409 1894 409 
Q 2359 409 2629 706 
Q 2900 1003 2900 1516 
L 2900 3500 
L 3475 3500 
L 3475 0 
L 2900 0 
L 2900 538 
Q 2691 219 2414 64 
Q 2138 -91 1772 -91 
Q 1169 -91 856 284 
Q 544 659 544 1381 
z
M 1991 3584 
L 1991 3584 
z
" transform="scale(0.015625)"/>
       <path id="DejaVuSans-65" d="M 3597 1894 
L 3597 1613 
L 953 1613 
Q 991 1019 1311 708 
Q 1631 397 2203 397 
Q 2534 397 2845 478 
Q 3156 559 3463 722 
L 3463 178 
Q 3153 47 2828 -22 
Q 2503 -91 2169 -91 
Q 1331 -91 842 396 
Q 353 884 353 1716 
Q 353 2575 817 3079 
Q 1281 3584 2069 3584 
Q 2775 3584 3186 3129 
Q 3597 2675 3597 1894 
z
M 3022 2063 
Q 3016 2534 2758 2815 
Q 2500 3097 2075 3097 
Q 1594 3097 1305 2825 
Q 1016 2553 972 2059 
L 3022 2063 
z
" transform="scale(0.015625)"/>
       <path id="DejaVuSans-63" d="M 3122 3366 
L 3122 2828 
Q 2878 2963 2633 3030 
Q 2388 3097 2138 3097 
Q 1578 3097 1268 2742 
Q 959 2388 959 1747 
Q 959 1106 1268 751 
Q 1578 397 2138 397 
Q 2388 397 2633 464 
Q 2878 531 3122 666 
L 3122 134 
Q 2881 22 2623 -34 
Q 2366 -91 2075 -91 
Q 1284 -91 818 406 
Q 353 903 353 1747 
Q 353 2603 823 3093 
Q 1294 3584 2113 3584 
Q 2378 3584 2631 3529 
Q 2884 3475 3122 3366 
z
" transform="scale(0.015625)"/>
       <path id="DejaVuSans-20" transform="scale(0.015625)"/>
       <path id="DejaVuSans-6f" d="M 1959 3097 
Q 1497 3097 1228 2736 
Q 959 2375 959 1747 
Q 959 1119 1226 758 
Q 1494 397 1959 397 
Q 2419 397 2687 759 
Q 2956 1122 2956 1747 
Q 2956 2369 2687 2733 
Q 2419 3097 1959 3097 
z
M 1959 3584 
Q 2709 3584 3137 3096 
Q 3566 2609 3566 1747 
Q 3566 888 3137 398 
Q 2709 -91 1959 -91 
Q 1206 -91 779 398 
Q 353 888 353 1747 
Q 353 2609 779 3096 
Q 1206 3584 1959 3584 
z
" transform="scale(0.015625)"/>
       <path id="DejaVuSans-73" d="M 2834 3397 
L 2834 2853 
Q 2591 2978 2328 3040 
Q 2066 3103 1784 3103 
Q 1356 3103 1142 2972 
Q 928 2841 928 2578 
Q 928 2378 1081 2264 
Q 1234 2150 1697 2047 
L 1894 2003 
Q 2506 1872 2764 1633 
Q 3022 1394 3022 966 
Q 3022 478 2636 193 
Q 2250 -91 1575 -91 
Q 1294 -91 989 -36 
Q 684 19 347 128 
L 347 722 
Q 666 556 975 473 
Q 1284 391 1588 391 
Q 1994 391 2212 530 
Q 2431 669 2431 922 
Q 2431 1156 2273 1281 
Q 2116 1406 1581 1522 
L 1381 1569 
Q 847 1681 609 1914 
Q 372 2147 372 2553 
Q 372 3047 722 3315 
Q 1072 3584 1716 3584 
Q 2034 3584 2315 3537 
Q 2597 3491 2834 3397 
z
" transform="scale(0.015625)"/>
       <path id="DejaVuSans-72" d="M 2631 2963 
Q 2534 3019 2420 3045 
Q 2306 3072 2169 3072 
Q 1681 3072 1420 2755 
Q 1159 2438 1159 1844 
L 1159 0 
L 581 0 
L 581 3500 
L 1159 3500 
L 1159 2956 
Q 1341 3275 1631 3429 
Q 1922 3584 2338 3584 
Q 2397 3584 2469 3576 
Q 2541 3569 2628 3553 
L 2631 2963 
z
" transform="scale(0.015625)"/>
       <path id="DejaVuSans-70" d="M 1159 525 
L 1159 -1331 
L 581 -1331 
L 581 3500 
L 1159 3500 
L 1159 2969 
Q 1341 3281 1617 3432 
Q 1894 3584 2278 3584 
Q 2916 3584 3314 3078 
Q 3713 2572 3713 1747 
Q 3713 922 3314 415 
Q 2916 -91 2278 -91 
Q 1894 -91 1617 61 
Q 1341 213 1159 525 
z
M 3116 1747 
Q 3116 2381 2855 2742 
Q 2594 3103 2138 3103 
Q 1681 3103 1420 2742 
Q 1159 2381 1159 1747 
Q 1159 1113 1420 752 
Q 1681 391 2138 391 
Q 2594 391 2855 752 
Q 3116 1113 3116 1747 
z
" transform="scale(0.015625)"/>
       <path id="DejaVuSans-69" d="M 603 3500 
L 1178 3500 
L 1178 0 
L 603 0 
L 603 3500 
z
M 603 4863 
L 1178 4863 
L 1178 4134 
L 603 4134 
L 603 4863 
z
" transform="scale(0.015625)"/>
       <path id="DejaVuSans-61" d="M 2194 1759 
Q 1497 1759 1228 1600 
Q 959 1441 959 1056 
Q 959 750 1161 570 
Q 1363 391 1709 391 
Q 2188 391 2477 730 
Q 2766 1069 2766 1631 
L 2766 1759 
L 2194 1759 
z
M 3341 1997 
L 3341 0 
L 2766 0 
L 2766 531 
Q 2569 213 2275 61 
Q 1981 -91 1556 -91 
Q 1019 -91 701 211 
Q 384 513 384 1019 
Q 384 1609 779 1909 
Q 1175 2209 1959 2209 
L 2766 2209 
L 2766 2266 
Q 2766 2663 2505 2880 
Q 2244 3097 1772 3097 
Q 1472 3097 1187 3025 
Q 903 2953 641 2809 
L 641 3341 
Q 956 3463 1253 3523 
Q 1550 3584 1831 3584 
Q 2591 3584 2966 3190 
Q 3341 2797 3341 1997 
z
" transform="scale(0.015625)"/>
       <path id="DejaVuSans-28" d="M 1984 4856 
Q 1566 4138 1362 3434 
Q 1159 2731 1159 2009 
Q 1159 1288 1364 580 
Q 1569 -128 1984 -844 
L 1484 -844 
Q 1016 -109 783 600 
Q 550 1309 550 2009 
Q 550 2706 781 3412 
Q 1013 4119 1484 4856 
L 1984 4856 
z
" transform="scale(0.015625)"/>
       <path id="DejaVuSans-6d" d="M 3328 2828 
Q 3544 3216 3844 3400 
Q 4144 3584 4550 3584 
Q 5097 3584 5394 3201 
Q 5691 2819 5691 2113 
L 5691 0 
L 5113 0 
L 5113 2094 
Q 5113 2597 4934 2840 
Q 4756 3084 4391 3084 
Q 3944 3084 3684 2787 
Q 3425 2491 3425 1978 
L 3425 0 
L 2847 0 
L 2847 2094 
Q 2847 2600 2669 2842 
Q 2491 3084 2119 3084 
Q 1678 3084 1418 2786 
Q 1159 2488 1159 1978 
L 1159 0 
L 581 0 
L 581 3500 
L 1159 3500 
L 1159 2956 
Q 1356 3278 1631 3431 
Q 1906 3584 2284 3584 
Q 2666 3584 2933 3390 
Q 3200 3197 3328 2828 
z
" transform="scale(0.015625)"/>
       <path id="DejaVuSans-74" d="M 1172 4494 
L 1172 3500 
L 2356 3500 
L 2356 3053 
L 1172 3053 
L 1172 1153 
Q 1172 725 1289 603 
Q 1406 481 1766 481 
L 2356 481 
L 2356 0 
L 1766 0 
Q 1100 0 847 248 
Q 594 497 594 1153 
L 594 3053 
L 172 3053 
L 172 3500 
L 594 3500 
L 594 4494 
L 1172 4494 
z
" transform="scale(0.015625)"/>
       <path id="DejaVuSans-29" d="M 513 4856 
L 1013 4856 
Q 1481 4119 1714 3412 
Q 1947 2706 1947 2009 
Q 1947 1309 1714 600 
Q 1481 -109 1013 -844 
L 513 -844 
Q 928 -128 1133 580 
Q 1338 1288 1338 2009 
Q 1338 2731 1133 3434 
Q 928 4138 513 4856 
z
" transform="scale(0.015625)"/>
      </defs>
      <use xlink:href="#DejaVuSans-49"/>
      <use xlink:href="#DejaVuSans-6e" x="29.492188"/>
      <use xlink:href="#DejaVuSans-66" x="92.871094"/>
      <use xlink:href="#DejaVuSans-6c" x="128.076172"/>
      <use xlink:href="#DejaVuSans-75" x="155.859375"/>
      <use xlink:href="#DejaVuSans-65" x="219.238281"/>
      <use xlink:href="#DejaVuSans-6e" x="280.761719"/>
      <use xlink:href="#DejaVuSans-63" x="344.140625"/>
      <use xlink:href="#DejaVuSans-65" x="399.121094"/>
      <use xlink:href="#DejaVuSans-20" x="460.644531"/>
      <use xlink:href="#DejaVuSans-6f" x="492.431641"/>
      <use xlink:href="#DejaVuSans-66" x="553.613281"/>
      <use xlink:href="#DejaVuSans-20" x="588.818359"/>
      <use xlink:href="#DejaVuSans-73" x="620.605469"/>
      <use xlink:href="#DejaVuSans-75" x="672.705078"/>
      <use xlink:href="#DejaVuSans-72" x="736.083984"/>
      <use xlink:href="#DejaVuSans-70" x="777.197266"/>
      <use xlink:href="#DejaVuSans-72" x="840.673828"/>
      <use xlink:href="#DejaVuSans-69" x="881.787109"/>
      <use xlink:href="#DejaVuSans-73" x="909.570312"/>
      <use xlink:href="#DejaVuSans-61" x="961.669922"/>
      <use xlink:href="#DejaVuSans-6c" x="1022.949219"/>
      <use xlink:href="#DejaVuSans-20" x="1050.732422"/>
      <use xlink:href="#DejaVuSans-28" x="1082.519531"/>
      <use xlink:href="#DejaVuSans-6d" x="1121.533203"/>
      <use xlink:href="#DejaVuSans-75" x="1218.945312"/>
      <use xlink:href="#DejaVuSans-6c" x="1282.324219"/>
      <use xlink:href="#DejaVuSans-74" x="1310.107422"/>
      <use xlink:href="#DejaVuSans-69" x="1349.316406"/>
      <use xlink:href="#DejaVuSans-70" x="1377.099609"/>
      <use xlink:href="#DejaVuSans-6c" x="1440.576172"/>
      <use xlink:href="#DejaVuSans-69" x="1468.359375"/>
      <use xlink:href="#DejaVuSans-63" x="1496.142578"/>
      <use xlink:href="#DejaVuSans-61" x="1551.123047"/>
      <use xlink:href="#DejaVuSans-74" x="1612.402344"/>
      <use xlink:href="#DejaVuSans-69" x="1651.611328"/>
      <use xlink:href="#DejaVuSans-6f" x="1679.394531"/>
      <use xlink:href="#DejaVuSans-6e" x="1740.576172"/>
      <use xlink:href="#DejaVuSans-29" x="1803.955078"/>
     </g>
    </g>
   </g>
   <g id="matplotlib.axis_2">
    <g id="ytick_1">
     <g id="line2d_6">
      <defs>
       <path id="me3d5408529" d="M 0 0 
L -3.5 0 
" style="stroke: #000000; stroke-width: 0.8"/>
      </defs>
      <g>
       <use xlink:href="#me3d5408529" x="47.72" y="154.795467" style="stroke: #000000; stroke-width: 0.8"/>
      </g>
     </g>
     <g id="text_7">
      <!-- 0.2 -->
      <g transform="translate(24.816875 158.594686)scale(0.1 -0.1)">
       <use xlink:href="#DejaVuSans-30"/>
       <use xlink:href="#DejaVuSans-2e" x="63.623047"/>
       <use xlink:href="#DejaVuSans-32" x="95.410156"/>
      </g>
     </g>
    </g>
    <g id="ytick_2">
     <g id="line2d_7">
      <g>
       <use xlink:href="#me3d5408529" x="47.72" y="124.488873" style="stroke: #000000; stroke-width: 0.8"/>
      </g>
     </g>
     <g id="text_8">
      <!-- 0.4 -->
      <g transform="translate(24.816875 128.288092)scale(0.1 -0.1)">
       <defs>
        <path id="DejaVuSans-34" d="M 2419 4116 
L 825 1625 
L 2419 1625 
L 2419 4116 
z
M 2253 4666 
L 3047 4666 
L 3047 1625 
L 3713 1625 
L 3713 1100 
L 3047 1100 
L 3047 0 
L 2419 0 
L 2419 1100 
L 313 1100 
L 313 1709 
L 2253 4666 
z
" transform="scale(0.015625)"/>
       </defs>
       <use xlink:href="#DejaVuSans-30"/>
       <use xlink:href="#DejaVuSans-2e" x="63.623047"/>
       <use xlink:href="#DejaVuSans-34" x="95.410156"/>
      </g>
     </g>
    </g>
    <g id="ytick_3">
     <g id="line2d_8">
      <g>
       <use xlink:href="#me3d5408529" x="47.72" y="94.182279" style="stroke: #000000; stroke-width: 0.8"/>
      </g>
     </g>
     <g id="text_9">
      <!-- 0.6 -->
      <g transform="translate(24.816875 97.981498)scale(0.1 -0.1)">
       <defs>
        <path id="DejaVuSans-36" d="M 2113 2584 
Q 1688 2584 1439 2293 
Q 1191 2003 1191 1497 
Q 1191 994 1439 701 
Q 1688 409 2113 409 
Q 2538 409 2786 701 
Q 3034 994 3034 1497 
Q 3034 2003 2786 2293 
Q 2538 2584 2113 2584 
z
M 3366 4563 
L 3366 3988 
Q 3128 4100 2886 4159 
Q 2644 4219 2406 4219 
Q 1781 4219 1451 3797 
Q 1122 3375 1075 2522 
Q 1259 2794 1537 2939 
Q 1816 3084 2150 3084 
Q 2853 3084 3261 2657 
Q 3669 2231 3669 1497 
Q 3669 778 3244 343 
Q 2819 -91 2113 -91 
Q 1303 -91 875 529 
Q 447 1150 447 2328 
Q 447 3434 972 4092 
Q 1497 4750 2381 4750 
Q 2619 4750 2861 4703 
Q 3103 4656 3366 4563 
z
" transform="scale(0.015625)"/>
       </defs>
       <use xlink:href="#DejaVuSans-30"/>
       <use xlink:href="#DejaVuSans-2e" x="63.623047"/>
       <use xlink:href="#DejaVuSans-36" x="95.410156"/>
      </g>
     </g>
    </g>
    <g id="ytick_4">
     <g id="line2d_9">
      <g>
       <use xlink:href="#me3d5408529" x="47.72" y="63.875685" style="stroke: #000000; stroke-width: 0.8"/>
      </g>
     </g>
     <g id="text_10">
      <!-- 0.8 -->
      <g transform="translate(24.816875 67.674904)scale(0.1 -0.1)">
       <defs>
        <path id="DejaVuSans-38" d="M 2034 2216 
Q 1584 2216 1326 1975 
Q 1069 1734 1069 1313 
Q 1069 891 1326 650 
Q 1584 409 2034 409 
Q 2484 409 2743 651 
Q 3003 894 3003 1313 
Q 3003 1734 2745 1975 
Q 2488 2216 2034 2216 
z
M 1403 2484 
Q 997 2584 770 2862 
Q 544 3141 544 3541 
Q 544 4100 942 4425 
Q 1341 4750 2034 4750 
Q 2731 4750 3128 4425 
Q 3525 4100 3525 3541 
Q 3525 3141 3298 2862 
Q 3072 2584 2669 2484 
Q 3125 2378 3379 2068 
Q 3634 1759 3634 1313 
Q 3634 634 3220 271 
Q 2806 -91 2034 -91 
Q 1263 -91 848 271 
Q 434 634 434 1313 
Q 434 1759 690 2068 
Q 947 2378 1403 2484 
z
M 1172 3481 
Q 1172 3119 1398 2916 
Q 1625 2713 2034 2713 
Q 2441 2713 2670 2916 
Q 2900 3119 2900 3481 
Q 2900 3844 2670 4047 
Q 2441 4250 2034 4250 
Q 1625 4250 1398 4047 
Q 1172 3844 1172 3481 
z
" transform="scale(0.015625)"/>
       </defs>
       <use xlink:href="#DejaVuSans-30"/>
       <use xlink:href="#DejaVuSans-2e" x="63.623047"/>
       <use xlink:href="#DejaVuSans-38" x="95.410156"/>
      </g>
     </g>
    </g>
    <g id="ytick_5">
     <g id="line2d_10">
      <g>
       <use xlink:href="#me3d5408529" x="47.72" y="33.569091" style="stroke: #000000; stroke-width: 0.8"/>
      </g>
     </g>
     <g id="text_11">
      <!-- 1.0 -->
      <g transform="translate(24.816875 37.36831)scale(0.1 -0.1)">
       <use xlink:href="#DejaVuSans-31"/>
       <use xlink:href="#DejaVuSans-2e" x="63.623047"/>
       <use xlink:href="#DejaVuSans-30" x="95.410156"/>
      </g>
     </g>
    </g>
    <g id="text_12">
     <!-- R-value -->
     <g transform="translate(18.737188 119.064687)rotate(-90)scale(0.1 -0.1)">
      <defs>
       <path id="DejaVuSans-52" d="M 2841 2188 
Q 3044 2119 3236 1894 
Q 3428 1669 3622 1275 
L 4263 0 
L 3584 0 
L 2988 1197 
Q 2756 1666 2539 1819 
Q 2322 1972 1947 1972 
L 1259 1972 
L 1259 0 
L 628 0 
L 628 4666 
L 2053 4666 
Q 2853 4666 3247 4331 
Q 3641 3997 3641 3322 
Q 3641 2881 3436 2590 
Q 3231 2300 2841 2188 
z
M 1259 4147 
L 1259 2491 
L 2053 2491 
Q 2509 2491 2742 2702 
Q 2975 2913 2975 3322 
Q 2975 3731 2742 3939 
Q 2509 4147 2053 4147 
L 1259 4147 
z
" transform="scale(0.015625)"/>
       <path id="DejaVuSans-2d" d="M 313 2009 
L 1997 2009 
L 1997 1497 
L 313 1497 
L 313 2009 
z
" transform="scale(0.015625)"/>
       <path id="DejaVuSans-76" d="M 191 3500 
L 800 3500 
L 1894 563 
L 2988 3500 
L 3597 3500 
L 2284 0 
L 1503 0 
L 191 3500 
z
" transform="scale(0.015625)"/>
      </defs>
      <use xlink:href="#DejaVuSans-52"/>
      <use xlink:href="#DejaVuSans-2d" x="65.482422"/>
      <use xlink:href="#DejaVuSans-76" x="98.941406"/>
      <use xlink:href="#DejaVuSans-61" x="158.121094"/>
      <use xlink:href="#DejaVuSans-6c" x="219.400391"/>
      <use xlink:href="#DejaVuSans-75" x="247.183594"/>
      <use xlink:href="#DejaVuSans-65" x="310.5625"/>
     </g>
    </g>
   </g>
   <g id="line2d_11">
    <path d="M 47.72 33.569091 
L 59.167105 35.625186 
L 70.614211 41.665336 
L 82.061316 49.402488 
L 93.508421 58.35987 
L 104.955526 67.867919 
L 116.402632 77.208363 
L 127.849737 86.791694 
L 139.296842 95.887562 
L 150.743947 103.876925 
L 162.191053 111.432367 
L 173.638158 118.633869 
L 185.085263 124.784195 
L 196.532368 130.910969 
L 207.979474 135.561834 
L 219.426579 139.757528 
L 230.873684 143.758423 
L 242.320789 147.220026 
L 253.767895 149.904208 
L 265.215 152.737528 
" clip-path="url(#p7a6e4e9224)" style="fill: none; stroke: #1f77b4; stroke-width: 1.5; stroke-linecap: square"/>
   </g>
   <g id="line2d_12">
    <path d="M 47.72 33.569245 
L 59.167105 34.918491 
L 70.614211 38.305435 
L 82.061316 43.212796 
L 93.508421 49.741277 
L 104.955526 57.196455 
L 116.402632 65.296277 
L 127.849737 73.848219 
L 139.296842 82.137699 
L 150.743947 89.772916 
L 162.191053 97.134344 
L 173.638158 104.488824 
L 185.085263 110.837094 
L 196.532368 117.487281 
L 207.979474 122.819026 
L 219.426579 127.824394 
L 230.873684 132.537735 
L 242.320789 136.61491 
L 253.767895 139.964335 
L 265.215 143.430226 
" clip-path="url(#p7a6e4e9224)" style="fill: none; stroke: #ff7f0e; stroke-width: 1.5; stroke-linecap: square"/>
   </g>
   <g id="line2d_13">
    <path d="M 47.72 33.569091 
L 59.167105 35.163894 
L 70.614211 38.1169 
L 82.061316 41.75194 
L 93.508421 45.795139 
L 104.955526 50.266165 
L 116.402632 54.477127 
L 127.849737 59.08761 
L 139.296842 63.057757 
L 150.743947 67.314145 
L 162.191053 71.503379 
L 173.638158 75.701224 
L 185.085263 79.875467 
L 196.532368 84.278889 
L 207.979474 88.765655 
L 219.426579 93.199055 
L 230.873684 97.660351 
L 242.320789 101.767085 
L 253.767895 105.283384 
L 265.215 109.395533 
" clip-path="url(#p7a6e4e9224)" style="fill: none; stroke: #2ca02c; stroke-width: 1.5; stroke-linecap: square"/>
   </g>
   <g id="line2d_14">
    <path d="M 47.72 33.569952 
L 59.167105 34.840384 
L 70.614211 37.095467 
L 82.061316 40.097134 
L 93.508421 43.788957 
L 104.955526 48.078026 
L 116.402632 52.448027 
L 127.849737 57.270939 
L 139.296842 61.466945 
L 150.743947 65.964709 
L 162.191053 70.381919 
L 173.638158 74.747799 
L 185.085263 78.994327 
L 196.532368 83.382231 
L 207.979474 87.79354 
L 219.426579 92.106145 
L 230.873684 96.348661 
L 242.320789 100.298687 
L 253.767895 103.569772 
L 265.215 107.439205 
" clip-path="url(#p7a6e4e9224)" style="fill: none; stroke: #d62728; stroke-width: 1.5; stroke-linecap: square"/>
   </g>
   <g id="line2d_15">
    <path d="M 47.72 33.569091 
L 59.167105 35.626836 
L 70.614211 41.711039 
L 82.061316 49.410826 
L 93.508421 58.437493 
L 104.955526 67.967796 
L 116.402632 77.174797 
L 127.849737 86.975853 
L 139.296842 96.259529 
L 150.743947 103.718746 
L 162.191053 111.387028 
L 173.638158 118.936095 
L 185.085263 124.811962 
L 196.532368 131.640978 
L 207.979474 135.931638 
L 219.426579 140.242167 
L 230.873684 144.080981 
L 242.320789 147.33952 
L 253.767895 150.32268 
L 265.215 153.962956 
" clip-path="url(#p7a6e4e9224)" style="fill: none; stroke: #9467bd; stroke-width: 1.5; stroke-linecap: square"/>
   </g>
   <g id="line2d_16">
    <path d="M 47.72 33.569704 
L 59.167105 34.921444 
L 70.614211 38.327273 
L 82.061316 43.243198 
L 93.508421 49.753845 
L 104.955526 57.275387 
L 116.402632 65.309518 
L 127.849737 73.933212 
L 139.296842 82.389768 
L 150.743947 89.63812 
L 162.191053 97.162003 
L 173.638158 104.674472 
L 185.085263 110.854679 
L 196.532368 117.971898 
L 207.979474 123.134456 
L 219.426579 128.159097 
L 230.873684 132.793712 
L 242.320789 136.644302 
L 253.767895 140.276346 
L 265.215 144.381365 
" clip-path="url(#p7a6e4e9224)" style="fill: none; stroke: #8c564b; stroke-width: 1.5; stroke-linecap: square"/>
   </g>
   <g id="line2d_17">
    <path d="M 47.72 46.462152 
L 59.167105 49.335107 
L 70.614211 56.891552 
L 82.061316 66.800297 
L 93.508421 77.39003 
L 104.955526 87.698569 
L 116.402632 97.226782 
L 127.849737 106.588512 
L 139.296842 115.152176 
L 150.743947 122.119115 
L 162.191053 128.879085 
L 173.638158 134.999422 
L 185.085263 140.689334 
L 196.532368 145.82613 
L 207.979474 150.077075 
L 219.426579 153.674182 
L 230.873684 156.616804 
L 242.320789 159.387373 
L 253.767895 161.56929 
L 265.215 163.771943 
" clip-path="url(#p7a6e4e9224)" style="fill: none; stroke: #e377c2; stroke-width: 1.5; stroke-linecap: square"/>
   </g>
   <g id="line2d_18">
    <path d="M 47.72 33.569425 
L 59.167105 34.176807 
L 70.614211 35.126033 
L 82.061316 37.568449 
L 93.508421 42.204794 
L 104.955526 48.135603 
L 116.402632 54.965226 
L 127.849737 62.876862 
L 139.296842 70.426622 
L 150.743947 77.886327 
L 162.191053 85.018619 
L 173.638158 92.335593 
L 185.085263 98.783286 
L 196.532368 105.704882 
L 207.979474 111.874397 
L 219.426579 117.733527 
L 230.873684 123.292245 
L 242.320789 128.172119 
L 253.767895 132.192731 
L 265.215 136.392002 
" clip-path="url(#p7a6e4e9224)" style="fill: none; stroke: #7f7f7f; stroke-width: 1.5; stroke-linecap: square"/>
   </g>
   <g id="patch_3">
    <path d="M 47.72 174.04 
L 47.72 26.88 
" style="fill: none; stroke: #000000; stroke-width: 0.8; stroke-linejoin: miter; stroke-linecap: square"/>
   </g>
   <g id="patch_4">
    <path d="M 47.72 174.04 
L 265.215 174.04 
" style="fill: none; stroke: #000000; stroke-width: 0.8; stroke-linejoin: miter; stroke-linecap: square"/>
   </g>
   <g id="text_13">
    <!-- Node * surprisal -->
    <g transform="translate(108.18625 20.88)scale(0.12 -0.12)">
     <defs>
      <path id="DejaVuSans-4e" d="M 628 4666 
L 1478 4666 
L 3547 763 
L 3547 4666 
L 4159 4666 
L 4159 0 
L 3309 0 
L 1241 3903 
L 1241 0 
L 628 0 
L 628 4666 
z
" transform="scale(0.015625)"/>
      <path id="DejaVuSans-64" d="M 2906 2969 
L 2906 4863 
L 3481 4863 
L 3481 0 
L 2906 0 
L 2906 525 
Q 2725 213 2448 61 
Q 2172 -91 1784 -91 
Q 1150 -91 751 415 
Q 353 922 353 1747 
Q 353 2572 751 3078 
Q 1150 3584 1784 3584 
Q 2172 3584 2448 3432 
Q 2725 3281 2906 2969 
z
M 947 1747 
Q 947 1113 1208 752 
Q 1469 391 1925 391 
Q 2381 391 2643 752 
Q 2906 1113 2906 1747 
Q 2906 2381 2643 2742 
Q 2381 3103 1925 3103 
Q 1469 3103 1208 2742 
Q 947 2381 947 1747 
z
" transform="scale(0.015625)"/>
      <path id="DejaVuSans-2a" d="M 3009 3897 
L 1888 3291 
L 3009 2681 
L 2828 2375 
L 1778 3009 
L 1778 1831 
L 1422 1831 
L 1422 3009 
L 372 2375 
L 191 2681 
L 1313 3291 
L 191 3897 
L 372 4206 
L 1422 3572 
L 1422 4750 
L 1778 4750 
L 1778 3572 
L 2828 4206 
L 3009 3897 
z
" transform="scale(0.015625)"/>
     </defs>
     <use xlink:href="#DejaVuSans-4e"/>
     <use xlink:href="#DejaVuSans-6f" x="74.804688"/>
     <use xlink:href="#DejaVuSans-64" x="135.986328"/>
     <use xlink:href="#DejaVuSans-65" x="199.462891"/>
     <use xlink:href="#DejaVuSans-20" x="260.986328"/>
     <use xlink:href="#DejaVuSans-2a" x="292.773438"/>
     <use xlink:href="#DejaVuSans-20" x="342.773438"/>
     <use xlink:href="#DejaVuSans-73" x="374.560547"/>
     <use xlink:href="#DejaVuSans-75" x="426.660156"/>
     <use xlink:href="#DejaVuSans-72" x="490.039062"/>
     <use xlink:href="#DejaVuSans-70" x="531.152344"/>
     <use xlink:href="#DejaVuSans-72" x="594.628906"/>
     <use xlink:href="#DejaVuSans-69" x="635.742188"/>
     <use xlink:href="#DejaVuSans-73" x="663.525391"/>
     <use xlink:href="#DejaVuSans-61" x="715.625"/>
     <use xlink:href="#DejaVuSans-6c" x="776.904297"/>
    </g>
   </g>
  </g>
  <g id="axes_2">
   <g id="patch_5">
    <path d="M 298.065 174.04 
L 515.56 174.04 
L 515.56 26.88 
L 298.065 26.88 
z
" style="fill: #ffffff"/>
   </g>
   <g id="PolyCollection_9">
    <path d="M 298.065 33.569091 
L 298.065 33.569091 
L 309.512105 36.355018 
L 320.959211 43.570004 
L 332.406316 51.780369 
L 343.853421 60.684868 
L 355.300526 70.725923 
L 366.747632 80.591155 
L 378.194737 90.995332 
L 389.641842 101.023525 
L 401.088947 109.488623 
L 412.536053 117.260056 
L 423.983158 126.290412 
L 435.430263 132.916715 
L 446.877368 137.828892 
L 458.324474 143.70896 
L 469.771579 147.847743 
L 481.218684 152.298624 
L 492.665789 155.470878 
L 504.112895 158.838771 
L 515.56 161.183265 
L 515.56 152.855222 
L 515.56 152.855222 
L 504.112895 149.87699 
L 492.665789 146.520486 
L 481.218684 142.46861 
L 469.771579 138.340064 
L 458.324474 132.876909 
L 446.877368 127.487968 
L 435.430263 121.204278 
L 423.983158 114.806635 
L 412.536053 107.792294 
L 401.088947 100.972835 
L 389.641842 91.764 
L 378.194737 83.674177 
L 366.747632 73.559559 
L 355.300526 64.762006 
L 343.853421 54.9903 
L 332.406316 46.67775 
L 320.959211 39.909023 
L 309.512105 35.152917 
L 298.065 33.569091 
z
" clip-path="url(#pab0feded17)" style="fill: #1f77b4; fill-opacity: 0.4"/>
   </g>
   <g id="PolyCollection_10">
    <path d="M 298.065 33.569216 
L 298.065 33.569273 
L 309.512105 36.358792 
L 320.959211 43.592689 
L 332.406316 51.815079 
L 343.853421 60.738541 
L 355.300526 70.808572 
L 366.747632 80.704606 
L 378.194737 91.180182 
L 389.641842 101.234173 
L 401.088947 109.753256 
L 412.536053 117.467728 
L 423.983158 126.502142 
L 435.430263 133.152879 
L 446.877368 137.973439 
L 458.324474 143.874957 
L 469.771579 148.017835 
L 481.218684 152.463198 
L 492.665789 155.584779 
L 504.112895 158.844518 
L 515.56 161.211909 
L 515.56 153.283956 
L 515.56 153.283956 
L 504.112895 150.216769 
L 492.665789 146.866371 
L 481.218684 142.876226 
L 469.771579 138.651927 
L 458.324474 133.078556 
L 446.877368 127.681585 
L 435.430263 121.371558 
L 423.983158 114.94806 
L 412.536053 107.872 
L 401.088947 101.018355 
L 389.641842 91.764967 
L 378.194737 83.695697 
L 366.747632 73.574631 
L 355.300526 64.783621 
L 343.853421 55.005333 
L 332.406316 46.704969 
L 320.959211 39.917329 
L 309.512105 35.153314 
L 298.065 33.569216 
z
" clip-path="url(#pab0feded17)" style="fill: #ff7f0e; fill-opacity: 0.4"/>
   </g>
   <g id="PolyCollection_11">
    <path d="M 298.065 33.569091 
L 298.065 33.569091 
L 309.512105 36.364382 
L 320.959211 43.628652 
L 332.406316 51.863517 
L 343.853421 60.786935 
L 355.300526 70.813203 
L 366.747632 80.696453 
L 378.194737 91.077941 
L 389.641842 101.084141 
L 401.088947 109.607409 
L 412.536053 117.299902 
L 423.983158 126.474923 
L 435.430263 133.233229 
L 446.877368 138.11003 
L 458.324474 144.256313 
L 469.771579 148.600274 
L 481.218684 153.147942 
L 492.665789 156.714237 
L 504.112895 160.134885 
L 515.56 162.795555 
L 515.56 152.906862 
L 515.56 152.906862 
L 504.112895 149.933656 
L 492.665789 146.661959 
L 481.218684 142.713357 
L 469.771579 138.670137 
L 458.324474 133.158982 
L 446.877368 127.818988 
L 435.430263 121.47218 
L 423.983158 115.071083 
L 412.536053 107.913671 
L 401.088947 101.024146 
L 389.641842 91.789144 
L 378.194737 83.644523 
L 366.747632 73.545004 
L 355.300526 64.74051 
L 343.853421 54.953607 
L 332.406316 46.663127 
L 320.959211 39.916033 
L 309.512105 35.154721 
L 298.065 33.569091 
z
" clip-path="url(#pab0feded17)" style="fill: #2ca02c; fill-opacity: 0.4"/>
   </g>
   <g id="PolyCollection_12">
    <path d="M 298.065 33.569761 
L 298.065 33.570142 
L 309.512105 36.364803 
L 320.959211 43.624563 
L 332.406316 51.861746 
L 343.853421 60.809843 
L 355.300526 70.850034 
L 366.747632 80.791652 
L 378.194737 91.27426 
L 389.641842 101.302082 
L 401.088947 109.900527 
L 412.536053 117.579556 
L 423.983158 126.764371 
L 435.430263 133.585243 
L 446.877368 138.384834 
L 458.324474 144.541956 
L 469.771579 148.88559 
L 481.218684 153.487128 
L 492.665789 156.983096 
L 504.112895 160.378342 
L 515.56 163.012498 
L 515.56 153.362078 
L 515.56 153.362078 
L 504.112895 150.350025 
L 492.665789 146.987733 
L 481.218684 143.11293 
L 469.771579 138.882061 
L 458.324474 133.409828 
L 446.877368 127.994064 
L 435.430263 121.591765 
L 423.983158 115.197954 
L 412.536053 107.996966 
L 401.088947 101.130969 
L 389.641842 91.821959 
L 378.194737 83.724975 
L 366.747632 73.609535 
L 355.300526 64.808785 
L 343.853421 54.998439 
L 332.406316 46.715246 
L 320.959211 39.932711 
L 309.512105 35.16089 
L 298.065 33.569761 
z
" clip-path="url(#pab0feded17)" style="fill: #d62728; fill-opacity: 0.4"/>
   </g>
   <g id="PolyCollection_13">
    <path d="M 298.065 33.569091 
L 298.065 33.569091 
L 309.512105 36.354405 
L 320.959211 43.559829 
L 332.406316 51.775317 
L 343.853421 60.661504 
L 355.300526 70.981128 
L 366.747632 80.696928 
L 378.194737 90.857851 
L 389.641842 101.138799 
L 401.088947 109.574458 
L 412.536053 117.681103 
L 423.983158 126.817961 
L 435.430263 132.993282 
L 446.877368 138.003598 
L 458.324474 143.872621 
L 469.771579 148.145903 
L 481.218684 152.418959 
L 492.665789 155.856313 
L 504.112895 160.191252 
L 515.56 161.443749 
L 515.56 153.898337 
L 515.56 153.898337 
L 504.112895 150.175038 
L 492.665789 147.776676 
L 481.218684 143.380383 
L 469.771579 138.747341 
L 458.324474 133.341142 
L 446.877368 127.741558 
L 435.430263 122.038368 
L 423.983158 114.724265 
L 412.536053 108.131385 
L 401.088947 100.995062 
L 389.641842 92.27572 
L 378.194737 83.875409 
L 366.747632 73.714444 
L 355.300526 64.776207 
L 343.853421 55.110056 
L 332.406316 46.652489 
L 320.959211 39.914417 
L 309.512105 35.167283 
L 298.065 33.569091 
z
" clip-path="url(#pab0feded17)" style="fill: #9467bd; fill-opacity: 0.4"/>
   </g>
   <g id="PolyCollection_14">
    <path d="M 298.065 33.569592 
L 298.065 33.569818 
L 309.512105 36.357978 
L 320.959211 43.580174 
L 332.406316 51.810737 
L 343.853421 60.709901 
L 355.300526 71.047172 
L 366.747632 80.804367 
L 378.194737 91.036779 
L 389.641842 101.341444 
L 401.088947 109.83679 
L 412.536053 117.869657 
L 423.983158 127.017018 
L 435.430263 133.222848 
L 446.877368 138.152885 
L 458.324474 144.056246 
L 469.771579 148.311033 
L 481.218684 152.557946 
L 492.665789 156.087547 
L 504.112895 160.166688 
L 515.56 161.486418 
L 515.56 154.230514 
L 515.56 154.230514 
L 504.112895 150.479619 
L 492.665789 148.004344 
L 481.218684 143.774192 
L 469.771579 139.041422 
L 458.324474 133.49337 
L 446.877368 127.904582 
L 435.430263 122.194105 
L 423.983158 114.860479 
L 412.536053 108.199056 
L 401.088947 101.029989 
L 389.641842 92.264889 
L 378.194737 83.897661 
L 366.747632 73.724842 
L 355.300526 64.801635 
L 343.853421 55.123202 
L 332.406316 46.678705 
L 320.959211 39.922301 
L 309.512105 35.167965 
L 298.065 33.569592 
z
" clip-path="url(#pab0feded17)" style="fill: #8c564b; fill-opacity: 0.4"/>
   </g>
   <g id="PolyCollection_15">
    <path d="M 298.065 44.237595 
L 298.065 48.686708 
L 309.512105 50.799873 
L 320.959211 56.529617 
L 332.406316 64.006264 
L 343.853421 71.489365 
L 355.300526 80.779651 
L 366.747632 89.968355 
L 378.194737 99.418397 
L 389.641842 108.409154 
L 401.088947 115.884036 
L 412.536053 123.498596 
L 423.983158 131.673163 
L 435.430263 137.367723 
L 446.877368 142.155047 
L 458.324474 147.538792 
L 469.771579 151.581135 
L 481.218684 155.251052 
L 492.665789 158.346822 
L 504.112895 161.47642 
L 515.56 163.628892 
L 515.56 155.203924 
L 515.56 155.203924 
L 504.112895 152.088538 
L 492.665789 149.117556 
L 481.218684 145.198661 
L 469.771579 141.26584 
L 458.324474 136.039492 
L 446.877368 130.977936 
L 435.430263 125.144597 
L 423.983158 119.146131 
L 412.536053 112.585318 
L 401.088947 107.005805 
L 389.641842 98.691657 
L 378.194737 91.288933 
L 366.747632 82.167478 
L 355.300526 73.978454 
L 343.853421 65.161514 
L 332.406316 57.075946 
L 320.959211 51.000534 
L 309.512105 46.056471 
L 298.065 44.237595 
z
" clip-path="url(#pab0feded17)" style="fill: #e377c2; fill-opacity: 0.4"/>
   </g>
   <g id="PolyCollection_16">
    <path d="M 298.065 33.569342 
L 298.065 33.569508 
L 309.512105 36.362706 
L 320.959211 43.620024 
L 332.406316 51.869606 
L 343.853421 60.776051 
L 355.300526 70.902114 
L 366.747632 80.830616 
L 378.194737 91.382346 
L 389.641842 101.52691 
L 401.088947 110.08766 
L 412.536053 117.825069 
L 423.983158 127.132597 
L 435.430263 134.006062 
L 446.877368 138.945921 
L 458.324474 145.28391 
L 469.771579 149.402478 
L 481.218684 154.086322 
L 492.665789 157.369091 
L 504.112895 160.827263 
L 515.56 163.41208 
L 515.56 153.247119 
L 515.56 153.247119 
L 504.112895 150.492923 
L 492.665789 147.282797 
L 481.218684 143.423638 
L 469.771579 139.367097 
L 458.324474 133.726331 
L 446.877368 128.456517 
L 435.430263 122.126343 
L 423.983158 115.501638 
L 412.536053 108.35196 
L 401.088947 101.315239 
L 389.641842 91.966191 
L 378.194737 83.848622 
L 366.747632 73.713446 
L 355.300526 64.869715 
L 343.853421 55.082765 
L 332.406316 46.749949 
L 320.959211 39.948736 
L 309.512105 35.161647 
L 298.065 33.569342 
z
" clip-path="url(#pab0feded17)" style="fill: #7f7f7f; fill-opacity: 0.4"/>
   </g>
   <g id="matplotlib.axis_3">
    <g id="xtick_6">
     <g id="line2d_19">
      <g>
       <use xlink:href="#m3e9a499619" x="298.065" y="174.04" style="stroke: #000000; stroke-width: 0.8"/>
      </g>
     </g>
     <g id="text_14">
      <!-- 0.0 -->
      <g transform="translate(290.113437 188.638438)scale(0.1 -0.1)">
       <use xlink:href="#DejaVuSans-30"/>
       <use xlink:href="#DejaVuSans-2e" x="63.623047"/>
       <use xlink:href="#DejaVuSans-30" x="95.410156"/>
      </g>
     </g>
    </g>
    <g id="xtick_7">
     <g id="line2d_20">
      <g>
       <use xlink:href="#m3e9a499619" x="352.43875" y="174.04" style="stroke: #000000; stroke-width: 0.8"/>
      </g>
     </g>
     <g id="text_15">
      <!-- 0.5 -->
      <g transform="translate(344.487187 188.638438)scale(0.1 -0.1)">
       <use xlink:href="#DejaVuSans-30"/>
       <use xlink:href="#DejaVuSans-2e" x="63.623047"/>
       <use xlink:href="#DejaVuSans-35" x="95.410156"/>
      </g>
     </g>
    </g>
    <g id="xtick_8">
     <g id="line2d_21">
      <g>
       <use xlink:href="#m3e9a499619" x="406.8125" y="174.04" style="stroke: #000000; stroke-width: 0.8"/>
      </g>
     </g>
     <g id="text_16">
      <!-- 1.0 -->
      <g transform="translate(398.860937 188.638438)scale(0.1 -0.1)">
       <use xlink:href="#DejaVuSans-31"/>
       <use xlink:href="#DejaVuSans-2e" x="63.623047"/>
       <use xlink:href="#DejaVuSans-30" x="95.410156"/>
      </g>
     </g>
    </g>
    <g id="xtick_9">
     <g id="line2d_22">
      <g>
       <use xlink:href="#m3e9a499619" x="461.18625" y="174.04" style="stroke: #000000; stroke-width: 0.8"/>
      </g>
     </g>
     <g id="text_17">
      <!-- 1.5 -->
      <g transform="translate(453.234687 188.638438)scale(0.1 -0.1)">
       <use xlink:href="#DejaVuSans-31"/>
       <use xlink:href="#DejaVuSans-2e" x="63.623047"/>
       <use xlink:href="#DejaVuSans-35" x="95.410156"/>
      </g>
     </g>
    </g>
    <g id="xtick_10">
     <g id="line2d_23">
      <g>
       <use xlink:href="#m3e9a499619" x="515.56" y="174.04" style="stroke: #000000; stroke-width: 0.8"/>
      </g>
     </g>
     <g id="text_18">
      <!-- 2.0 -->
      <g transform="translate(507.608437 188.638438)scale(0.1 -0.1)">
       <use xlink:href="#DejaVuSans-32"/>
       <use xlink:href="#DejaVuSans-2e" x="63.623047"/>
       <use xlink:href="#DejaVuSans-30" x="95.410156"/>
      </g>
     </g>
    </g>
    <g id="text_19">
     <!-- Influence of surprisal (multiplication) -->
     <g transform="translate(314.665625 202.316563)scale(0.1 -0.1)">
      <use xlink:href="#DejaVuSans-49"/>
      <use xlink:href="#DejaVuSans-6e" x="29.492188"/>
      <use xlink:href="#DejaVuSans-66" x="92.871094"/>
      <use xlink:href="#DejaVuSans-6c" x="128.076172"/>
      <use xlink:href="#DejaVuSans-75" x="155.859375"/>
      <use xlink:href="#DejaVuSans-65" x="219.238281"/>
      <use xlink:href="#DejaVuSans-6e" x="280.761719"/>
      <use xlink:href="#DejaVuSans-63" x="344.140625"/>
      <use xlink:href="#DejaVuSans-65" x="399.121094"/>
      <use xlink:href="#DejaVuSans-20" x="460.644531"/>
      <use xlink:href="#DejaVuSans-6f" x="492.431641"/>
      <use xlink:href="#DejaVuSans-66" x="553.613281"/>
      <use xlink:href="#DejaVuSans-20" x="588.818359"/>
      <use xlink:href="#DejaVuSans-73" x="620.605469"/>
      <use xlink:href="#DejaVuSans-75" x="672.705078"/>
      <use xlink:href="#DejaVuSans-72" x="736.083984"/>
      <use xlink:href="#DejaVuSans-70" x="777.197266"/>
      <use xlink:href="#DejaVuSans-72" x="840.673828"/>
      <use xlink:href="#DejaVuSans-69" x="881.787109"/>
      <use xlink:href="#DejaVuSans-73" x="909.570312"/>
      <use xlink:href="#DejaVuSans-61" x="961.669922"/>
      <use xlink:href="#DejaVuSans-6c" x="1022.949219"/>
      <use xlink:href="#DejaVuSans-20" x="1050.732422"/>
      <use xlink:href="#DejaVuSans-28" x="1082.519531"/>
      <use xlink:href="#DejaVuSans-6d" x="1121.533203"/>
      <use xlink:href="#DejaVuSans-75" x="1218.945312"/>
      <use xlink:href="#DejaVuSans-6c" x="1282.324219"/>
      <use xlink:href="#DejaVuSans-74" x="1310.107422"/>
      <use xlink:href="#DejaVuSans-69" x="1349.316406"/>
      <use xlink:href="#DejaVuSans-70" x="1377.099609"/>
      <use xlink:href="#DejaVuSans-6c" x="1440.576172"/>
      <use xlink:href="#DejaVuSans-69" x="1468.359375"/>
      <use xlink:href="#DejaVuSans-63" x="1496.142578"/>
      <use xlink:href="#DejaVuSans-61" x="1551.123047"/>
      <use xlink:href="#DejaVuSans-74" x="1612.402344"/>
      <use xlink:href="#DejaVuSans-69" x="1651.611328"/>
      <use xlink:href="#DejaVuSans-6f" x="1679.394531"/>
      <use xlink:href="#DejaVuSans-6e" x="1740.576172"/>
      <use xlink:href="#DejaVuSans-29" x="1803.955078"/>
     </g>
    </g>
   </g>
   <g id="line2d_24">
    <path d="M 298.065 33.569091 
L 309.512105 35.753967 
L 320.959211 41.739513 
L 332.406316 49.22906 
L 343.853421 57.837584 
L 355.300526 67.743964 
L 366.747632 77.075357 
L 378.194737 87.334755 
L 389.641842 96.393762 
L 401.088947 105.230729 
L 412.536053 112.526175 
L 423.983158 120.548523 
L 435.430263 127.060497 
L 446.877368 132.65843 
L 458.324474 138.292934 
L 469.771579 143.093904 
L 481.218684 147.383617 
L 492.665789 150.995682 
L 504.112895 154.35788 
L 515.56 157.019243 
" clip-path="url(#pab0feded17)" style="fill: none; stroke: #1f77b4; stroke-width: 1.5; stroke-linecap: square"/>
   </g>
   <g id="line2d_25">
    <path d="M 298.065 33.569245 
L 309.512105 35.756053 
L 320.959211 41.755009 
L 332.406316 49.260024 
L 343.853421 57.871937 
L 355.300526 67.796097 
L 366.747632 77.139619 
L 378.194737 87.437939 
L 389.641842 96.49957 
L 401.088947 105.385805 
L 412.536053 112.669864 
L 423.983158 120.725101 
L 435.430263 127.262218 
L 446.877368 132.827512 
L 458.324474 138.476756 
L 469.771579 143.334881 
L 481.218684 147.669712 
L 492.665789 151.225575 
L 504.112895 154.530644 
L 515.56 157.247933 
" clip-path="url(#pab0feded17)" style="fill: none; stroke: #ff7f0e; stroke-width: 1.5; stroke-linecap: square"/>
   </g>
   <g id="line2d_26">
    <path d="M 298.065 33.569091 
L 309.512105 35.759552 
L 320.959211 41.772342 
L 332.406316 49.263322 
L 343.853421 57.870271 
L 355.300526 67.776857 
L 366.747632 77.120728 
L 378.194737 87.361232 
L 389.641842 96.436642 
L 401.088947 105.315777 
L 412.536053 112.606786 
L 423.983158 120.773003 
L 435.430263 127.352705 
L 446.877368 132.964509 
L 458.324474 138.707647 
L 469.771579 143.635205 
L 481.218684 147.930649 
L 492.665789 151.688098 
L 504.112895 155.03427 
L 515.56 157.851209 
" clip-path="url(#pab0feded17)" style="fill: none; stroke: #2ca02c; stroke-width: 1.5; stroke-linecap: square"/>
   </g>
   <g id="line2d_27">
    <path d="M 298.065 33.569952 
L 309.512105 35.762846 
L 320.959211 41.778637 
L 332.406316 49.288496 
L 343.853421 57.904141 
L 355.300526 67.829409 
L 366.747632 77.200594 
L 378.194737 87.499618 
L 389.641842 96.56202 
L 401.088947 105.515748 
L 412.536053 112.788261 
L 423.983158 120.981162 
L 435.430263 127.588504 
L 446.877368 133.189449 
L 458.324474 138.975892 
L 469.771579 143.883826 
L 481.218684 148.300029 
L 492.665789 151.985415 
L 504.112895 155.364183 
L 515.56 158.187288 
" clip-path="url(#pab0feded17)" style="fill: none; stroke: #d62728; stroke-width: 1.5; stroke-linecap: square"/>
   </g>
   <g id="line2d_28">
    <path d="M 298.065 33.569091 
L 309.512105 35.760844 
L 320.959211 41.737123 
L 332.406316 49.213903 
L 343.853421 57.88578 
L 355.300526 67.878668 
L 366.747632 77.205686 
L 378.194737 87.36663 
L 389.641842 96.70726 
L 401.088947 105.28476 
L 412.536053 112.906244 
L 423.983158 120.771113 
L 435.430263 127.515825 
L 446.877368 132.872578 
L 458.324474 138.606882 
L 469.771579 143.446622 
L 481.218684 147.899671 
L 492.665789 151.816494 
L 504.112895 155.183145 
L 515.56 157.671043 
" clip-path="url(#pab0feded17)" style="fill: none; stroke: #9467bd; stroke-width: 1.5; stroke-linecap: square"/>
   </g>
   <g id="line2d_29">
    <path d="M 298.065 33.569705 
L 309.512105 35.762971 
L 320.959211 41.751238 
L 332.406316 49.244721 
L 343.853421 57.916552 
L 355.300526 67.924403 
L 366.747632 77.264604 
L 378.194737 87.46722 
L 389.641842 96.803167 
L 401.088947 105.43339 
L 412.536053 113.034356 
L 423.983158 120.938748 
L 435.430263 127.708477 
L 446.877368 133.028734 
L 458.324474 138.774808 
L 469.771579 143.676228 
L 481.218684 148.166069 
L 492.665789 152.045945 
L 504.112895 155.323153 
L 515.56 157.858466 
" clip-path="url(#pab0feded17)" style="fill: none; stroke: #8c564b; stroke-width: 1.5; stroke-linecap: square"/>
   </g>
   <g id="line2d_30">
    <path d="M 298.065 46.462152 
L 309.512105 48.428172 
L 320.959211 53.765076 
L 332.406316 60.541105 
L 343.853421 68.325439 
L 355.300526 77.379052 
L 366.747632 86.067917 
L 378.194737 95.353665 
L 389.641842 103.550405 
L 401.088947 111.444921 
L 412.536053 118.041957 
L 423.983158 125.409647 
L 435.430263 131.25616 
L 446.877368 136.566491 
L 458.324474 141.789142 
L 469.771579 146.423488 
L 481.218684 150.224856 
L 492.665789 153.732189 
L 504.112895 156.782479 
L 515.56 159.416408 
" clip-path="url(#pab0feded17)" style="fill: none; stroke: #e377c2; stroke-width: 1.5; stroke-linecap: square"/>
   </g>
   <g id="line2d_31">
    <path d="M 298.065 33.569425 
L 309.512105 35.762176 
L 320.959211 41.78438 
L 332.406316 49.309777 
L 343.853421 57.929408 
L 355.300526 67.885915 
L 366.747632 77.272031 
L 378.194737 87.615484 
L 389.641842 96.746551 
L 401.088947 105.70145 
L 412.536053 113.088515 
L 423.983158 121.317117 
L 435.430263 128.066202 
L 446.877368 133.701219 
L 458.324474 139.50512 
L 469.771579 144.384788 
L 481.218684 148.75498 
L 492.665789 152.325944 
L 504.112895 155.660093 
L 515.56 158.329599 
" clip-path="url(#pab0feded17)" style="fill: none; stroke: #7f7f7f; stroke-width: 1.5; stroke-linecap: square"/>
   </g>
   <g id="patch_6">
    <path d="M 298.065 174.04 
L 298.065 26.88 
" style="fill: none; stroke: #000000; stroke-width: 0.8; stroke-linejoin: miter; stroke-linecap: square"/>
   </g>
   <g id="patch_7">
    <path d="M 298.065 174.04 
L 515.56 174.04 
" style="fill: none; stroke: #000000; stroke-width: 0.8; stroke-linejoin: miter; stroke-linecap: square"/>
   </g>
   <g id="text_20">
    <!-- Node * third variable -->
    <g transform="translate(344.2325 20.88)scale(0.12 -0.12)">
     <defs>
      <path id="DejaVuSans-68" d="M 3513 2113 
L 3513 0 
L 2938 0 
L 2938 2094 
Q 2938 2591 2744 2837 
Q 2550 3084 2163 3084 
Q 1697 3084 1428 2787 
Q 1159 2491 1159 1978 
L 1159 0 
L 581 0 
L 581 4863 
L 1159 4863 
L 1159 2956 
Q 1366 3272 1645 3428 
Q 1925 3584 2291 3584 
Q 2894 3584 3203 3211 
Q 3513 2838 3513 2113 
z
" transform="scale(0.015625)"/>
      <path id="DejaVuSans-62" d="M 3116 1747 
Q 3116 2381 2855 2742 
Q 2594 3103 2138 3103 
Q 1681 3103 1420 2742 
Q 1159 2381 1159 1747 
Q 1159 1113 1420 752 
Q 1681 391 2138 391 
Q 2594 391 2855 752 
Q 3116 1113 3116 1747 
z
M 1159 2969 
Q 1341 3281 1617 3432 
Q 1894 3584 2278 3584 
Q 2916 3584 3314 3078 
Q 3713 2572 3713 1747 
Q 3713 922 3314 415 
Q 2916 -91 2278 -91 
Q 1894 -91 1617 61 
Q 1341 213 1159 525 
L 1159 0 
L 581 0 
L 581 4863 
L 1159 4863 
L 1159 2969 
z
" transform="scale(0.015625)"/>
     </defs>
     <use xlink:href="#DejaVuSans-4e"/>
     <use xlink:href="#DejaVuSans-6f" x="74.804688"/>
     <use xlink:href="#DejaVuSans-64" x="135.986328"/>
     <use xlink:href="#DejaVuSans-65" x="199.462891"/>
     <use xlink:href="#DejaVuSans-20" x="260.986328"/>
     <use xlink:href="#DejaVuSans-2a" x="292.773438"/>
     <use xlink:href="#DejaVuSans-20" x="342.773438"/>
     <use xlink:href="#DejaVuSans-74" x="374.560547"/>
     <use xlink:href="#DejaVuSans-68" x="413.769531"/>
     <use xlink:href="#DejaVuSans-69" x="477.148438"/>
     <use xlink:href="#DejaVuSans-72" x="504.931641"/>
     <use xlink:href="#DejaVuSans-64" x="544.294922"/>
     <use xlink:href="#DejaVuSans-20" x="607.771484"/>
     <use xlink:href="#DejaVuSans-76" x="639.558594"/>
     <use xlink:href="#DejaVuSans-61" x="698.738281"/>
     <use xlink:href="#DejaVuSans-72" x="760.017578"/>
     <use xlink:href="#DejaVuSans-69" x="801.130859"/>
     <use xlink:href="#DejaVuSans-61" x="828.914062"/>
     <use xlink:href="#DejaVuSans-62" x="890.193359"/>
     <use xlink:href="#DejaVuSans-6c" x="953.669922"/>
     <use xlink:href="#DejaVuSans-65" x="981.453125"/>
    </g>
   </g>
   <g id="legend_1">
    <g id="line2d_32">
     <path d="M 524.56 39.978437 
L 534.56 39.978437 
L 544.56 39.978437 
" style="fill: none; stroke: #1f77b4; stroke-width: 1.5; stroke-linecap: square"/>
    </g>
    <g id="text_21">
     <!-- Node -->
     <g transform="translate(552.56 43.478437)scale(0.1 -0.1)">
      <use xlink:href="#DejaVuSans-4e"/>
      <use xlink:href="#DejaVuSans-6f" x="74.804688"/>
      <use xlink:href="#DejaVuSans-64" x="135.986328"/>
      <use xlink:href="#DejaVuSans-65" x="199.462891"/>
     </g>
    </g>
    <g id="line2d_33">
     <path d="M 524.56 54.656563 
L 534.56 54.656563 
L 544.56 54.656563 
" style="fill: none; stroke: #ff7f0e; stroke-width: 1.5; stroke-linecap: square"/>
    </g>
    <g id="text_22">
     <!-- Node + surprisal -->
     <g transform="translate(552.56 58.156563)scale(0.1 -0.1)">
      <defs>
       <path id="DejaVuSans-2b" d="M 2944 4013 
L 2944 2272 
L 4684 2272 
L 4684 1741 
L 2944 1741 
L 2944 0 
L 2419 0 
L 2419 1741 
L 678 1741 
L 678 2272 
L 2419 2272 
L 2419 4013 
L 2944 4013 
z
" transform="scale(0.015625)"/>
      </defs>
      <use xlink:href="#DejaVuSans-4e"/>
      <use xlink:href="#DejaVuSans-6f" x="74.804688"/>
      <use xlink:href="#DejaVuSans-64" x="135.986328"/>
      <use xlink:href="#DejaVuSans-65" x="199.462891"/>
      <use xlink:href="#DejaVuSans-20" x="260.986328"/>
      <use xlink:href="#DejaVuSans-2b" x="292.773438"/>
      <use xlink:href="#DejaVuSans-20" x="376.5625"/>
      <use xlink:href="#DejaVuSans-73" x="408.349609"/>
      <use xlink:href="#DejaVuSans-75" x="460.449219"/>
      <use xlink:href="#DejaVuSans-72" x="523.828125"/>
      <use xlink:href="#DejaVuSans-70" x="564.941406"/>
      <use xlink:href="#DejaVuSans-72" x="628.417969"/>
      <use xlink:href="#DejaVuSans-69" x="669.53125"/>
      <use xlink:href="#DejaVuSans-73" x="697.314453"/>
      <use xlink:href="#DejaVuSans-61" x="749.414062"/>
      <use xlink:href="#DejaVuSans-6c" x="810.693359"/>
     </g>
    </g>
    <g id="line2d_34">
     <path d="M 524.56 69.334687 
L 534.56 69.334687 
L 544.56 69.334687 
" style="fill: none; stroke: #2ca02c; stroke-width: 1.5; stroke-linecap: square"/>
    </g>
    <g id="text_23">
     <!-- Node split -->
     <g transform="translate(552.56 72.834687)scale(0.1 -0.1)">
      <use xlink:href="#DejaVuSans-4e"/>
      <use xlink:href="#DejaVuSans-6f" x="74.804688"/>
      <use xlink:href="#DejaVuSans-64" x="135.986328"/>
      <use xlink:href="#DejaVuSans-65" x="199.462891"/>
      <use xlink:href="#DejaVuSans-20" x="260.986328"/>
      <use xlink:href="#DejaVuSans-73" x="292.773438"/>
      <use xlink:href="#DejaVuSans-70" x="344.873047"/>
      <use xlink:href="#DejaVuSans-6c" x="408.349609"/>
      <use xlink:href="#DejaVuSans-69" x="436.132812"/>
      <use xlink:href="#DejaVuSans-74" x="463.916016"/>
     </g>
    </g>
    <g id="line2d_35">
     <path d="M 524.56 84.012812 
L 534.56 84.012812 
L 544.56 84.012812 
" style="fill: none; stroke: #d62728; stroke-width: 1.5; stroke-linecap: square"/>
    </g>
    <g id="text_24">
     <!-- Node split + surprisal -->
     <g transform="translate(552.56 87.512812)scale(0.1 -0.1)">
      <use xlink:href="#DejaVuSans-4e"/>
      <use xlink:href="#DejaVuSans-6f" x="74.804688"/>
      <use xlink:href="#DejaVuSans-64" x="135.986328"/>
      <use xlink:href="#DejaVuSans-65" x="199.462891"/>
      <use xlink:href="#DejaVuSans-20" x="260.986328"/>
      <use xlink:href="#DejaVuSans-73" x="292.773438"/>
      <use xlink:href="#DejaVuSans-70" x="344.873047"/>
      <use xlink:href="#DejaVuSans-6c" x="408.349609"/>
      <use xlink:href="#DejaVuSans-69" x="436.132812"/>
      <use xlink:href="#DejaVuSans-74" x="463.916016"/>
      <use xlink:href="#DejaVuSans-20" x="503.125"/>
      <use xlink:href="#DejaVuSans-2b" x="534.912109"/>
      <use xlink:href="#DejaVuSans-20" x="618.701172"/>
      <use xlink:href="#DejaVuSans-73" x="650.488281"/>
      <use xlink:href="#DejaVuSans-75" x="702.587891"/>
      <use xlink:href="#DejaVuSans-72" x="765.966797"/>
      <use xlink:href="#DejaVuSans-70" x="807.080078"/>
      <use xlink:href="#DejaVuSans-72" x="870.556641"/>
      <use xlink:href="#DejaVuSans-69" x="911.669922"/>
      <use xlink:href="#DejaVuSans-73" x="939.453125"/>
      <use xlink:href="#DejaVuSans-61" x="991.552734"/>
      <use xlink:href="#DejaVuSans-6c" x="1052.832031"/>
     </g>
    </g>
    <g id="line2d_36">
     <path d="M 524.56 98.690937 
L 534.56 98.690937 
L 544.56 98.690937 
" style="fill: none; stroke: #9467bd; stroke-width: 1.5; stroke-linecap: square"/>
    </g>
    <g id="text_25">
     <!-- Node random split -->
     <g transform="translate(552.56 102.190937)scale(0.1 -0.1)">
      <use xlink:href="#DejaVuSans-4e"/>
      <use xlink:href="#DejaVuSans-6f" x="74.804688"/>
      <use xlink:href="#DejaVuSans-64" x="135.986328"/>
      <use xlink:href="#DejaVuSans-65" x="199.462891"/>
      <use xlink:href="#DejaVuSans-20" x="260.986328"/>
      <use xlink:href="#DejaVuSans-72" x="292.773438"/>
      <use xlink:href="#DejaVuSans-61" x="333.886719"/>
      <use xlink:href="#DejaVuSans-6e" x="395.166016"/>
      <use xlink:href="#DejaVuSans-64" x="458.544922"/>
      <use xlink:href="#DejaVuSans-6f" x="522.021484"/>
      <use xlink:href="#DejaVuSans-6d" x="583.203125"/>
      <use xlink:href="#DejaVuSans-20" x="680.615234"/>
      <use xlink:href="#DejaVuSans-73" x="712.402344"/>
      <use xlink:href="#DejaVuSans-70" x="764.501953"/>
      <use xlink:href="#DejaVuSans-6c" x="827.978516"/>
      <use xlink:href="#DejaVuSans-69" x="855.761719"/>
      <use xlink:href="#DejaVuSans-74" x="883.544922"/>
     </g>
    </g>
    <g id="line2d_37">
     <path d="M 524.56 113.369062 
L 534.56 113.369062 
L 544.56 113.369062 
" style="fill: none; stroke: #8c564b; stroke-width: 1.5; stroke-linecap: square"/>
    </g>
    <g id="text_26">
     <!-- Node random split + surprisal -->
     <g transform="translate(552.56 116.869062)scale(0.1 -0.1)">
      <use xlink:href="#DejaVuSans-4e"/>
      <use xlink:href="#DejaVuSans-6f" x="74.804688"/>
      <use xlink:href="#DejaVuSans-64" x="135.986328"/>
      <use xlink:href="#DejaVuSans-65" x="199.462891"/>
      <use xlink:href="#DejaVuSans-20" x="260.986328"/>
      <use xlink:href="#DejaVuSans-72" x="292.773438"/>
      <use xlink:href="#DejaVuSans-61" x="333.886719"/>
      <use xlink:href="#DejaVuSans-6e" x="395.166016"/>
      <use xlink:href="#DejaVuSans-64" x="458.544922"/>
      <use xlink:href="#DejaVuSans-6f" x="522.021484"/>
      <use xlink:href="#DejaVuSans-6d" x="583.203125"/>
      <use xlink:href="#DejaVuSans-20" x="680.615234"/>
      <use xlink:href="#DejaVuSans-73" x="712.402344"/>
      <use xlink:href="#DejaVuSans-70" x="764.501953"/>
      <use xlink:href="#DejaVuSans-6c" x="827.978516"/>
      <use xlink:href="#DejaVuSans-69" x="855.761719"/>
      <use xlink:href="#DejaVuSans-74" x="883.544922"/>
      <use xlink:href="#DejaVuSans-20" x="922.753906"/>
      <use xlink:href="#DejaVuSans-2b" x="954.541016"/>
      <use xlink:href="#DejaVuSans-20" x="1038.330078"/>
      <use xlink:href="#DejaVuSans-73" x="1070.117188"/>
      <use xlink:href="#DejaVuSans-75" x="1122.216797"/>
      <use xlink:href="#DejaVuSans-72" x="1185.595703"/>
      <use xlink:href="#DejaVuSans-70" x="1226.708984"/>
      <use xlink:href="#DejaVuSans-72" x="1290.185547"/>
      <use xlink:href="#DejaVuSans-69" x="1331.298828"/>
      <use xlink:href="#DejaVuSans-73" x="1359.082031"/>
      <use xlink:href="#DejaVuSans-61" x="1411.181641"/>
      <use xlink:href="#DejaVuSans-6c" x="1472.460938"/>
     </g>
    </g>
    <g id="line2d_38">
     <path d="M 524.56 128.047187 
L 534.56 128.047187 
L 544.56 128.047187 
" style="fill: none; stroke: #e377c2; stroke-width: 1.5; stroke-linecap: square"/>
    </g>
    <g id="text_27">
     <!-- Interaction -->
     <g transform="translate(552.56 131.547187)scale(0.1 -0.1)">
      <use xlink:href="#DejaVuSans-49"/>
      <use xlink:href="#DejaVuSans-6e" x="29.492188"/>
      <use xlink:href="#DejaVuSans-74" x="92.871094"/>
      <use xlink:href="#DejaVuSans-65" x="132.080078"/>
      <use xlink:href="#DejaVuSans-72" x="193.603516"/>
      <use xlink:href="#DejaVuSans-61" x="234.716797"/>
      <use xlink:href="#DejaVuSans-63" x="295.996094"/>
      <use xlink:href="#DejaVuSans-74" x="350.976562"/>
      <use xlink:href="#DejaVuSans-69" x="390.185547"/>
      <use xlink:href="#DejaVuSans-6f" x="417.96875"/>
      <use xlink:href="#DejaVuSans-6e" x="479.150391"/>
     </g>
    </g>
    <g id="line2d_39">
     <path d="M 524.56 142.725312 
L 534.56 142.725312 
L 544.56 142.725312 
" style="fill: none; stroke: #7f7f7f; stroke-width: 1.5; stroke-linecap: square"/>
    </g>
    <g id="text_28">
     <!-- Node + surprisal + interaction -->
     <g transform="translate(552.56 146.225312)scale(0.1 -0.1)">
      <use xlink:href="#DejaVuSans-4e"/>
      <use xlink:href="#DejaVuSans-6f" x="74.804688"/>
      <use xlink:href="#DejaVuSans-64" x="135.986328"/>
      <use xlink:href="#DejaVuSans-65" x="199.462891"/>
      <use xlink:href="#DejaVuSans-20" x="260.986328"/>
      <use xlink:href="#DejaVuSans-2b" x="292.773438"/>
      <use xlink:href="#DejaVuSans-20" x="376.5625"/>
      <use xlink:href="#DejaVuSans-73" x="408.349609"/>
      <use xlink:href="#DejaVuSans-75" x="460.449219"/>
      <use xlink:href="#DejaVuSans-72" x="523.828125"/>
      <use xlink:href="#DejaVuSans-70" x="564.941406"/>
      <use xlink:href="#DejaVuSans-72" x="628.417969"/>
      <use xlink:href="#DejaVuSans-69" x="669.53125"/>
      <use xlink:href="#DejaVuSans-73" x="697.314453"/>
      <use xlink:href="#DejaVuSans-61" x="749.414062"/>
      <use xlink:href="#DejaVuSans-6c" x="810.693359"/>
      <use xlink:href="#DejaVuSans-20" x="838.476562"/>
      <use xlink:href="#DejaVuSans-2b" x="870.263672"/>
      <use xlink:href="#DejaVuSans-20" x="954.052734"/>
      <use xlink:href="#DejaVuSans-69" x="985.839844"/>
      <use xlink:href="#DejaVuSans-6e" x="1013.623047"/>
      <use xlink:href="#DejaVuSans-74" x="1077.001953"/>
      <use xlink:href="#DejaVuSans-65" x="1116.210938"/>
      <use xlink:href="#DejaVuSans-72" x="1177.734375"/>
      <use xlink:href="#DejaVuSans-61" x="1218.847656"/>
      <use xlink:href="#DejaVuSans-63" x="1280.126953"/>
      <use xlink:href="#DejaVuSans-74" x="1335.107422"/>
      <use xlink:href="#DejaVuSans-69" x="1374.316406"/>
      <use xlink:href="#DejaVuSans-6f" x="1402.099609"/>
      <use xlink:href="#DejaVuSans-6e" x="1463.28125"/>
     </g>
    </g>
   </g>
  </g>
 </g>
 <defs>
  <clipPath id="p7a6e4e9224">
   <rect x="47.72" y="26.88" width="217.495" height="147.16"/>
  </clipPath>
  <clipPath id="pab0feded17">
   <rect x="298.065" y="26.88" width="217.495" height="147.16"/>
  </clipPath>
 </defs>
</svg>
