<?xml version="1.0" encoding="utf-8" standalone="no"?>
<!DOCTYPE svg PUBLIC "-//W3C//DTD SVG 1.1//EN"
  "http://www.w3.org/Graphics/SVG/1.1/DTD/svg11.dtd">
<svg xmlns:xlink="http://www.w3.org/1999/xlink" width="720pt" height="216pt" viewBox="0 0 720 216" xmlns="http://www.w3.org/2000/svg" version="1.1">
 <metadata>
  <rdf:RDF xmlns:dc="http://purl.org/dc/elements/1.1/" xmlns:cc="http://creativecommons.org/ns#" xmlns:rdf="http://www.w3.org/1999/02/22-rdf-syntax-ns#">
   <cc:Work>
    <dc:type rdf:resource="http://purl.org/dc/dcmitype/StillImage"/>
    <dc:date>2024-01-16T01:34:01.555319</dc:date>
    <dc:format>image/svg+xml</dc:format>
    <dc:creator>
     <cc:Agent>
      <dc:title>Matplotlib v3.5.1, https://matplotlib.org/</dc:title>
     </cc:Agent>
    </dc:creator>
   </cc:Work>
  </rdf:RDF>
 </metadata>
 <defs>
  <style type="text/css">*{stroke-linejoin: round; stroke-linecap: butt}</style>
 </defs>
 <g id="figure_1">
  <g id="patch_1">
   <path d="M 0 216 
L 720 216 
L 720 0 
L 0 0 
z
" style="fill: #ffffff"/>
  </g>
  <g id="axes_1">
   <g id="patch_2">
    <path d="M 47.72 174.04 
L 265.215 174.04 
L 265.215 26.88 
L 47.72 26.88 
z
" style="fill: #ffffff"/>
   </g>
   <g id="PolyCollection_1">
    <path d="M 47.72 33.569091 
L 47.72 33.569091 
L 59.167105 36.038156 
L 70.614211 42.235672 
L 82.061316 51.066986 
L 93.508421 62.181911 
L 104.955526 72.624738 
L 116.402632 83.896717 
L 127.849737 93.446529 
L 139.296842 102.983993 
L 150.743947 111.59074 
L 162.191053 119.681394 
L 173.638158 125.824851 
L 185.085263 132.103918 
L 196.532368 137.210337 
L 207.979474 141.602982 
L 219.426579 145.220576 
L 230.873684 148.292357 
L 242.320789 150.611293 
L 253.767895 153.18684 
L 265.215 155.631665 
L 265.215 147.689284 
L 265.215 147.689284 
L 253.767895 144.899796 
L 242.320789 141.428784 
L 230.873684 138.087987 
L 219.426579 132.935456 
L 207.979474 128.794882 
L 196.532368 123.778789 
L 185.085263 118.292816 
L 173.638158 112.503233 
L 162.191053 106.95628 
L 150.743947 99.33022 
L 139.296842 91.536668 
L 127.849737 83.339661 
L 116.402632 74.427243 
L 104.955526 65.057624 
L 93.508421 55.391697 
L 82.061316 47.597235 
L 70.614211 40.426597 
L 59.167105 35.337895 
L 47.72 33.569091 
z
" clip-path="url(#p51792872f1)" style="fill: #1f77b4; fill-opacity: 0.4"/>
   </g>
   <g id="PolyCollection_2">
    <path d="M 47.72 33.569219 
L 47.72 33.569281 
L 59.167105 35.289201 
L 70.614211 38.623565 
L 82.061316 44.225676 
L 93.508421 51.945024 
L 104.955526 60.081374 
L 116.402632 69.784539 
L 127.849737 78.438739 
L 139.296842 87.642279 
L 150.743947 96.130872 
L 162.191053 104.488147 
L 173.638158 110.673259 
L 185.085263 117.566842 
L 196.532368 123.206254 
L 207.979474 128.685934 
L 219.426579 133.282213 
L 230.873684 137.097746 
L 242.320789 141.081278 
L 253.767895 144.73102 
L 265.215 148.345593 
L 265.215 138.941959 
L 265.215 138.941959 
L 253.767895 135.804821 
L 242.320789 131.835713 
L 230.873684 128.427685 
L 219.426579 122.883874 
L 207.979474 118.364252 
L 196.532368 113.46895 
L 185.085263 107.692327 
L 173.638158 101.097035 
L 162.191053 94.991728 
L 150.743947 86.983778 
L 139.296842 79.18034 
L 127.849737 71.238903 
L 116.402632 62.836731 
L 104.955526 54.842126 
L 93.508421 47.452242 
L 82.061316 42.139008 
L 70.614211 37.663178 
L 59.167105 34.719577 
L 47.72 33.569219 
z
" clip-path="url(#p51792872f1)" style="fill: #ff7f0e; fill-opacity: 0.4"/>
   </g>
   <g id="PolyCollection_3">
    <path d="M 47.72 33.569091 
L 47.72 33.569091 
L 59.167105 35.408112 
L 70.614211 38.43517 
L 82.061316 42.583442 
L 93.508421 47.6707 
L 104.955526 52.681765 
L 116.402632 58.276397 
L 127.849737 63.625523 
L 139.296842 68.54447 
L 150.743947 73.229654 
L 162.191053 78.057997 
L 173.638158 81.868478 
L 185.085263 86.447157 
L 196.532368 90.193356 
L 207.979474 94.988653 
L 219.426579 99.845972 
L 230.873684 103.397298 
L 242.320789 107.722899 
L 253.767895 112.28499 
L 265.215 117.039926 
L 265.215 105.211207 
L 265.215 105.211207 
L 253.767895 101.858998 
L 242.320789 97.703471 
L 230.873684 94.755743 
L 219.426579 90.352632 
L 207.979474 86.501463 
L 196.532368 82.81923 
L 185.085263 78.566273 
L 173.638158 74.63226 
L 162.191053 70.491268 
L 150.743947 65.850062 
L 139.296842 61.045042 
L 127.849737 56.204732 
L 116.402632 52.253111 
L 104.955526 48.076982 
L 93.508421 43.652356 
L 82.061316 40.28752 
L 70.614211 37.311833 
L 59.167105 34.912952 
L 47.72 33.569091 
z
" clip-path="url(#p51792872f1)" style="fill: #2ca02c; fill-opacity: 0.4"/>
   </g>
   <g id="PolyCollection_4">
    <path d="M 47.72 33.569825 
L 47.72 33.570189 
L 59.167105 35.124448 
L 70.614211 37.271951 
L 82.061316 40.716432 
L 93.508421 45.225888 
L 104.955526 50.021359 
L 116.402632 55.861218 
L 127.849737 61.416955 
L 139.296842 66.742388 
L 150.743947 71.776584 
L 162.191053 76.976417 
L 173.638158 80.96121 
L 185.085263 85.641411 
L 196.532368 89.45536 
L 207.979474 94.163313 
L 219.426579 98.930352 
L 230.873684 102.42559 
L 242.320789 106.510971 
L 253.767895 110.921706 
L 265.215 115.376824 
L 265.215 103.75842 
L 265.215 103.75842 
L 253.767895 100.586114 
L 242.320789 96.877164 
L 230.873684 94.076251 
L 219.426579 89.901598 
L 207.979474 86.056427 
L 196.532368 82.204091 
L 185.085263 77.76195 
L 173.638158 73.581618 
L 162.191053 69.199271 
L 150.743947 64.157869 
L 139.296842 59.181958 
L 127.849737 54.221547 
L 116.402632 50.051384 
L 104.955526 45.953296 
L 93.508421 41.839118 
L 82.061316 38.960558 
L 70.614211 36.517021 
L 59.167105 34.638919 
L 47.72 33.569825 
z
" clip-path="url(#p51792872f1)" style="fill: #d62728; fill-opacity: 0.4"/>
   </g>
   <g id="PolyCollection_5">
    <path d="M 47.72 33.569091 
L 47.72 33.569091 
L 59.167105 36.02345 
L 70.614211 42.252468 
L 82.061316 51.072837 
L 93.508421 62.223267 
L 104.955526 72.66751 
L 116.402632 83.989082 
L 127.849737 93.338888 
L 139.296842 103.229403 
L 150.743947 111.720833 
L 162.191053 119.992438 
L 173.638158 125.977162 
L 185.085263 132.507727 
L 196.532368 137.419725 
L 207.979474 141.837375 
L 219.426579 145.853818 
L 230.873684 148.927882 
L 242.320789 150.966003 
L 253.767895 154.957555 
L 265.215 156.168823 
L 265.215 147.502981 
L 265.215 147.502981 
L 253.767895 144.463461 
L 242.320789 141.701243 
L 230.873684 138.11315 
L 219.426579 133.868648 
L 207.979474 129.65245 
L 196.532368 124.471536 
L 185.085263 118.593786 
L 173.638158 112.744664 
L 162.191053 107.168423 
L 150.743947 99.56551 
L 139.296842 91.837597 
L 127.849737 83.354224 
L 116.402632 74.455884 
L 104.955526 65.134984 
L 93.508421 55.538703 
L 82.061316 47.616774 
L 70.614211 40.431467 
L 59.167105 35.345565 
L 47.72 33.569091 
z
" clip-path="url(#p51792872f1)" style="fill: #9467bd; fill-opacity: 0.4"/>
   </g>
   <g id="PolyCollection_6">
    <path d="M 47.72 33.569602 
L 47.72 33.569848 
L 59.167105 35.283543 
L 70.614211 38.647897 
L 82.061316 44.238097 
L 93.508421 51.984204 
L 104.955526 60.12302 
L 116.402632 69.839611 
L 127.849737 78.504311 
L 139.296842 87.891183 
L 150.743947 96.213835 
L 162.191053 104.8941 
L 173.638158 110.715986 
L 185.085263 117.923841 
L 196.532368 123.400111 
L 207.979474 128.710096 
L 219.426579 133.874827 
L 230.873684 137.816574 
L 242.320789 141.427215 
L 253.767895 146.057461 
L 265.215 148.818831 
L 265.215 138.736339 
L 265.215 138.736339 
L 253.767895 135.51223 
L 242.320789 132.088497 
L 230.873684 128.152344 
L 219.426579 123.571699 
L 207.979474 119.058566 
L 196.532368 113.9096 
L 185.085263 108.088465 
L 173.638158 101.266216 
L 162.191053 94.961574 
L 150.743947 87.089293 
L 139.296842 79.291157 
L 127.849737 71.294422 
L 116.402632 62.849571 
L 104.955526 54.885683 
L 93.508421 47.551833 
L 82.061316 42.156725 
L 70.614211 37.673504 
L 59.167105 34.724254 
L 47.72 33.569602 
z
" clip-path="url(#p51792872f1)" style="fill: #8c564b; fill-opacity: 0.4"/>
   </g>
   <g id="PolyCollection_7">
    <path d="M 47.72 44.13012 
L 47.72 47.057032 
L 59.167105 50.303539 
L 70.614211 57.356027 
L 82.061316 68.716673 
L 93.508421 81.473115 
L 104.955526 94.034557 
L 116.402632 106.171205 
L 127.849737 115.913411 
L 139.296842 124.274429 
L 150.743947 131.66644 
L 162.191053 137.293411 
L 173.638158 142.264267 
L 185.085263 146.781295 
L 196.532368 151.214454 
L 207.979474 155.137957 
L 219.426579 158.289338 
L 230.873684 161.21066 
L 242.320789 162.895284 
L 253.767895 165.353586 
L 265.215 167.350909 
L 265.215 157.18046 
L 265.215 157.18046 
L 253.767895 155.200157 
L 242.320789 153.034554 
L 230.873684 150.139614 
L 219.426579 146.438509 
L 207.979474 143.080805 
L 196.532368 138.842557 
L 185.085263 134.918941 
L 173.638158 129.794176 
L 162.191053 124.435574 
L 150.743947 117.140717 
L 139.296842 108.294118 
L 127.849737 99.300126 
L 116.402632 89.99464 
L 104.955526 79.569679 
L 93.508421 69.166616 
L 82.061316 59.868278 
L 70.614211 52.051034 
L 59.167105 46.291736 
L 47.72 44.13012 
z
" clip-path="url(#p51792872f1)" style="fill: #e377c2; fill-opacity: 0.4"/>
   </g>
   <g id="PolyCollection_8">
    <path d="M 47.72 33.569313 
L 47.72 33.56951 
L 59.167105 34.228478 
L 70.614211 34.914698 
L 82.061316 36.977396 
L 93.508421 41.552206 
L 104.955526 47.76986 
L 116.402632 56.58511 
L 127.849737 65.430641 
L 139.296842 75.377534 
L 150.743947 84.474688 
L 162.191053 93.50379 
L 173.638158 99.691023 
L 185.085263 106.808909 
L 196.532368 112.411398 
L 207.979474 118.350116 
L 219.426579 123.49711 
L 230.873684 128.238094 
L 242.320789 132.864666 
L 253.767895 137.291925 
L 265.215 141.795056 
L 265.215 132.00314 
L 265.215 132.00314 
L 253.767895 128.059557 
L 242.320789 123.079715 
L 230.873684 118.549391 
L 219.426579 112.426479 
L 207.979474 106.718736 
L 196.532368 100.709061 
L 185.085263 94.211745 
L 173.638158 87.389128 
L 162.191053 80.140227 
L 150.743947 71.869814 
L 139.296842 64.158031 
L 127.849737 56.645004 
L 116.402632 49.477856 
L 104.955526 43.391656 
L 93.508421 38.681121 
L 82.061316 36.022362 
L 70.614211 34.603237 
L 59.167105 34.098509 
L 47.72 33.569313 
z
" clip-path="url(#p51792872f1)" style="fill: #7f7f7f; fill-opacity: 0.4"/>
   </g>
   <g id="matplotlib.axis_1">
    <g id="xtick_1">
     <g id="line2d_1">
      <defs>
       <path id="m0dbc09b135" d="M 0 0 
L 0 3.5 
" style="stroke: #000000; stroke-width: 0.8"/>
      </defs>
      <g>
       <use xlink:href="#m0dbc09b135" x="47.72" y="174.04" style="stroke: #000000; stroke-width: 0.8"/>
      </g>
     </g>
     <g id="text_1">
      <!-- 0.0 -->
      <g transform="translate(39.768438 188.638438)scale(0.1 -0.1)">
       <defs>
        <path id="DejaVuSans-30" d="M 2034 4250 
Q 1547 4250 1301 3770 
Q 1056 3291 1056 2328 
Q 1056 1369 1301 889 
Q 1547 409 2034 409 
Q 2525 409 2770 889 
Q 3016 1369 3016 2328 
Q 3016 3291 2770 3770 
Q 2525 4250 2034 4250 
z
M 2034 4750 
Q 2819 4750 3233 4129 
Q 3647 3509 3647 2328 
Q 3647 1150 3233 529 
Q 2819 -91 2034 -91 
Q 1250 -91 836 529 
Q 422 1150 422 2328 
Q 422 3509 836 4129 
Q 1250 4750 2034 4750 
z
" transform="scale(0.015625)"/>
        <path id="DejaVuSans-2e" d="M 684 794 
L 1344 794 
L 1344 0 
L 684 0 
L 684 794 
z
" transform="scale(0.015625)"/>
       </defs>
       <use xlink:href="#DejaVuSans-30"/>
       <use xlink:href="#DejaVuSans-2e" x="63.623047"/>
       <use xlink:href="#DejaVuSans-30" x="95.410156"/>
      </g>
     </g>
    </g>
    <g id="xtick_2">
     <g id="line2d_2">
      <g>
       <use xlink:href="#m0dbc09b135" x="102.09375" y="174.04" style="stroke: #000000; stroke-width: 0.8"/>
      </g>
     </g>
     <g id="text_2">
      <!-- 0.5 -->
      <g transform="translate(94.142188 188.638438)scale(0.1 -0.1)">
       <defs>
        <path id="DejaVuSans-35" d="M 691 4666 
L 3169 4666 
L 3169 4134 
L 1269 4134 
L 1269 2991 
Q 1406 3038 1543 3061 
Q 1681 3084 1819 3084 
Q 2600 3084 3056 2656 
Q 3513 2228 3513 1497 
Q 3513 744 3044 326 
Q 2575 -91 1722 -91 
Q 1428 -91 1123 -41 
Q 819 9 494 109 
L 494 744 
Q 775 591 1075 516 
Q 1375 441 1709 441 
Q 2250 441 2565 725 
Q 2881 1009 2881 1497 
Q 2881 1984 2565 2268 
Q 2250 2553 1709 2553 
Q 1456 2553 1204 2497 
Q 953 2441 691 2322 
L 691 4666 
z
" transform="scale(0.015625)"/>
       </defs>
       <use xlink:href="#DejaVuSans-30"/>
       <use xlink:href="#DejaVuSans-2e" x="63.623047"/>
       <use xlink:href="#DejaVuSans-35" x="95.410156"/>
      </g>
     </g>
    </g>
    <g id="xtick_3">
     <g id="line2d_3">
      <g>
       <use xlink:href="#m0dbc09b135" x="156.4675" y="174.04" style="stroke: #000000; stroke-width: 0.8"/>
      </g>
     </g>
     <g id="text_3">
      <!-- 1.0 -->
      <g transform="translate(148.515938 188.638438)scale(0.1 -0.1)">
       <defs>
        <path id="DejaVuSans-31" d="M 794 531 
L 1825 531 
L 1825 4091 
L 703 3866 
L 703 4441 
L 1819 4666 
L 2450 4666 
L 2450 531 
L 3481 531 
L 3481 0 
L 794 0 
L 794 531 
z
" transform="scale(0.015625)"/>
       </defs>
       <use xlink:href="#DejaVuSans-31"/>
       <use xlink:href="#DejaVuSans-2e" x="63.623047"/>
       <use xlink:href="#DejaVuSans-30" x="95.410156"/>
      </g>
     </g>
    </g>
    <g id="xtick_4">
     <g id="line2d_4">
      <g>
       <use xlink:href="#m0dbc09b135" x="210.84125" y="174.04" style="stroke: #000000; stroke-width: 0.8"/>
      </g>
     </g>
     <g id="text_4">
      <!-- 1.5 -->
      <g transform="translate(202.889687 188.638438)scale(0.1 -0.1)">
       <use xlink:href="#DejaVuSans-31"/>
       <use xlink:href="#DejaVuSans-2e" x="63.623047"/>
       <use xlink:href="#DejaVuSans-35" x="95.410156"/>
      </g>
     </g>
    </g>
    <g id="xtick_5">
     <g id="line2d_5">
      <g>
       <use xlink:href="#m0dbc09b135" x="265.215" y="174.04" style="stroke: #000000; stroke-width: 0.8"/>
      </g>
     </g>
     <g id="text_5">
      <!-- 2.0 -->
      <g transform="translate(257.263437 188.638438)scale(0.1 -0.1)">
       <defs>
        <path id="DejaVuSans-32" d="M 1228 531 
L 3431 531 
L 3431 0 
L 469 0 
L 469 531 
Q 828 903 1448 1529 
Q 2069 2156 2228 2338 
Q 2531 2678 2651 2914 
Q 2772 3150 2772 3378 
Q 2772 3750 2511 3984 
Q 2250 4219 1831 4219 
Q 1534 4219 1204 4116 
Q 875 4013 500 3803 
L 500 4441 
Q 881 4594 1212 4672 
Q 1544 4750 1819 4750 
Q 2544 4750 2975 4387 
Q 3406 4025 3406 3419 
Q 3406 3131 3298 2873 
Q 3191 2616 2906 2266 
Q 2828 2175 2409 1742 
Q 1991 1309 1228 531 
z
" transform="scale(0.015625)"/>
       </defs>
       <use xlink:href="#DejaVuSans-32"/>
       <use xlink:href="#DejaVuSans-2e" x="63.623047"/>
       <use xlink:href="#DejaVuSans-30" x="95.410156"/>
      </g>
     </g>
    </g>
    <g id="text_6">
     <!-- Influence of surprisal (multiplication) -->
     <g transform="translate(64.320625 202.316563)scale(0.1 -0.1)">
      <defs>
       <path id="DejaVuSans-49" d="M 628 4666 
L 1259 4666 
L 1259 0 
L 628 0 
L 628 4666 
z
" transform="scale(0.015625)"/>
       <path id="DejaVuSans-6e" d="M 3513 2113 
L 3513 0 
L 2938 0 
L 2938 2094 
Q 2938 2591 2744 2837 
Q 2550 3084 2163 3084 
Q 1697 3084 1428 2787 
Q 1159 2491 1159 1978 
L 1159 0 
L 581 0 
L 581 3500 
L 1159 3500 
L 1159 2956 
Q 1366 3272 1645 3428 
Q 1925 3584 2291 3584 
Q 2894 3584 3203 3211 
Q 3513 2838 3513 2113 
z
" transform="scale(0.015625)"/>
       <path id="DejaVuSans-66" d="M 2375 4863 
L 2375 4384 
L 1825 4384 
Q 1516 4384 1395 4259 
Q 1275 4134 1275 3809 
L 1275 3500 
L 2222 3500 
L 2222 3053 
L 1275 3053 
L 1275 0 
L 697 0 
L 697 3053 
L 147 3053 
L 147 3500 
L 697 3500 
L 697 3744 
Q 697 4328 969 4595 
Q 1241 4863 1831 4863 
L 2375 4863 
z
" transform="scale(0.015625)"/>
       <path id="DejaVuSans-6c" d="M 603 4863 
L 1178 4863 
L 1178 0 
L 603 0 
L 603 4863 
z
" transform="scale(0.015625)"/>
       <path id="DejaVuSans-75" d="M 544 1381 
L 544 3500 
L 1119 3500 
L 1119 1403 
Q 1119 906 1312 657 
Q 1506 409 1894 409 
Q 2359 409 2629 706 
Q 2900 1003 2900 1516 
L 2900 3500 
L 3475 3500 
L 3475 0 
L 2900 0 
L 2900 538 
Q 2691 219 2414 64 
Q 2138 -91 1772 -91 
Q 1169 -91 856 284 
Q 544 659 544 1381 
z
M 1991 3584 
L 1991 3584 
z
" transform="scale(0.015625)"/>
       <path id="DejaVuSans-65" d="M 3597 1894 
L 3597 1613 
L 953 1613 
Q 991 1019 1311 708 
Q 1631 397 2203 397 
Q 2534 397 2845 478 
Q 3156 559 3463 722 
L 3463 178 
Q 3153 47 2828 -22 
Q 2503 -91 2169 -91 
Q 1331 -91 842 396 
Q 353 884 353 1716 
Q 353 2575 817 3079 
Q 1281 3584 2069 3584 
Q 2775 3584 3186 3129 
Q 3597 2675 3597 1894 
z
M 3022 2063 
Q 3016 2534 2758 2815 
Q 2500 3097 2075 3097 
Q 1594 3097 1305 2825 
Q 1016 2553 972 2059 
L 3022 2063 
z
" transform="scale(0.015625)"/>
       <path id="DejaVuSans-63" d="M 3122 3366 
L 3122 2828 
Q 2878 2963 2633 3030 
Q 2388 3097 2138 3097 
Q 1578 3097 1268 2742 
Q 959 2388 959 1747 
Q 959 1106 1268 751 
Q 1578 397 2138 397 
Q 2388 397 2633 464 
Q 2878 531 3122 666 
L 3122 134 
Q 2881 22 2623 -34 
Q 2366 -91 2075 -91 
Q 1284 -91 818 406 
Q 353 903 353 1747 
Q 353 2603 823 3093 
Q 1294 3584 2113 3584 
Q 2378 3584 2631 3529 
Q 2884 3475 3122 3366 
z
" transform="scale(0.015625)"/>
       <path id="DejaVuSans-20" transform="scale(0.015625)"/>
       <path id="DejaVuSans-6f" d="M 1959 3097 
Q 1497 3097 1228 2736 
Q 959 2375 959 1747 
Q 959 1119 1226 758 
Q 1494 397 1959 397 
Q 2419 397 2687 759 
Q 2956 1122 2956 1747 
Q 2956 2369 2687 2733 
Q 2419 3097 1959 3097 
z
M 1959 3584 
Q 2709 3584 3137 3096 
Q 3566 2609 3566 1747 
Q 3566 888 3137 398 
Q 2709 -91 1959 -91 
Q 1206 -91 779 398 
Q 353 888 353 1747 
Q 353 2609 779 3096 
Q 1206 3584 1959 3584 
z
" transform="scale(0.015625)"/>
       <path id="DejaVuSans-73" d="M 2834 3397 
L 2834 2853 
Q 2591 2978 2328 3040 
Q 2066 3103 1784 3103 
Q 1356 3103 1142 2972 
Q 928 2841 928 2578 
Q 928 2378 1081 2264 
Q 1234 2150 1697 2047 
L 1894 2003 
Q 2506 1872 2764 1633 
Q 3022 1394 3022 966 
Q 3022 478 2636 193 
Q 2250 -91 1575 -91 
Q 1294 -91 989 -36 
Q 684 19 347 128 
L 347 722 
Q 666 556 975 473 
Q 1284 391 1588 391 
Q 1994 391 2212 530 
Q 2431 669 2431 922 
Q 2431 1156 2273 1281 
Q 2116 1406 1581 1522 
L 1381 1569 
Q 847 1681 609 1914 
Q 372 2147 372 2553 
Q 372 3047 722 3315 
Q 1072 3584 1716 3584 
Q 2034 3584 2315 3537 
Q 2597 3491 2834 3397 
z
" transform="scale(0.015625)"/>
       <path id="DejaVuSans-72" d="M 2631 2963 
Q 2534 3019 2420 3045 
Q 2306 3072 2169 3072 
Q 1681 3072 1420 2755 
Q 1159 2438 1159 1844 
L 1159 0 
L 581 0 
L 581 3500 
L 1159 3500 
L 1159 2956 
Q 1341 3275 1631 3429 
Q 1922 3584 2338 3584 
Q 2397 3584 2469 3576 
Q 2541 3569 2628 3553 
L 2631 2963 
z
" transform="scale(0.015625)"/>
       <path id="DejaVuSans-70" d="M 1159 525 
L 1159 -1331 
L 581 -1331 
L 581 3500 
L 1159 3500 
L 1159 2969 
Q 1341 3281 1617 3432 
Q 1894 3584 2278 3584 
Q 2916 3584 3314 3078 
Q 3713 2572 3713 1747 
Q 3713 922 3314 415 
Q 2916 -91 2278 -91 
Q 1894 -91 1617 61 
Q 1341 213 1159 525 
z
M 3116 1747 
Q 3116 2381 2855 2742 
Q 2594 3103 2138 3103 
Q 1681 3103 1420 2742 
Q 1159 2381 1159 1747 
Q 1159 1113 1420 752 
Q 1681 391 2138 391 
Q 2594 391 2855 752 
Q 3116 1113 3116 1747 
z
" transform="scale(0.015625)"/>
       <path id="DejaVuSans-69" d="M 603 3500 
L 1178 3500 
L 1178 0 
L 603 0 
L 603 3500 
z
M 603 4863 
L 1178 4863 
L 1178 4134 
L 603 4134 
L 603 4863 
z
" transform="scale(0.015625)"/>
       <path id="DejaVuSans-61" d="M 2194 1759 
Q 1497 1759 1228 1600 
Q 959 1441 959 1056 
Q 959 750 1161 570 
Q 1363 391 1709 391 
Q 2188 391 2477 730 
Q 2766 1069 2766 1631 
L 2766 1759 
L 2194 1759 
z
M 3341 1997 
L 3341 0 
L 2766 0 
L 2766 531 
Q 2569 213 2275 61 
Q 1981 -91 1556 -91 
Q 1019 -91 701 211 
Q 384 513 384 1019 
Q 384 1609 779 1909 
Q 1175 2209 1959 2209 
L 2766 2209 
L 2766 2266 
Q 2766 2663 2505 2880 
Q 2244 3097 1772 3097 
Q 1472 3097 1187 3025 
Q 903 2953 641 2809 
L 641 3341 
Q 956 3463 1253 3523 
Q 1550 3584 1831 3584 
Q 2591 3584 2966 3190 
Q 3341 2797 3341 1997 
z
" transform="scale(0.015625)"/>
       <path id="DejaVuSans-28" d="M 1984 4856 
Q 1566 4138 1362 3434 
Q 1159 2731 1159 2009 
Q 1159 1288 1364 580 
Q 1569 -128 1984 -844 
L 1484 -844 
Q 1016 -109 783 600 
Q 550 1309 550 2009 
Q 550 2706 781 3412 
Q 1013 4119 1484 4856 
L 1984 4856 
z
" transform="scale(0.015625)"/>
       <path id="DejaVuSans-6d" d="M 3328 2828 
Q 3544 3216 3844 3400 
Q 4144 3584 4550 3584 
Q 5097 3584 5394 3201 
Q 5691 2819 5691 2113 
L 5691 0 
L 5113 0 
L 5113 2094 
Q 5113 2597 4934 2840 
Q 4756 3084 4391 3084 
Q 3944 3084 3684 2787 
Q 3425 2491 3425 1978 
L 3425 0 
L 2847 0 
L 2847 2094 
Q 2847 2600 2669 2842 
Q 2491 3084 2119 3084 
Q 1678 3084 1418 2786 
Q 1159 2488 1159 1978 
L 1159 0 
L 581 0 
L 581 3500 
L 1159 3500 
L 1159 2956 
Q 1356 3278 1631 3431 
Q 1906 3584 2284 3584 
Q 2666 3584 2933 3390 
Q 3200 3197 3328 2828 
z
" transform="scale(0.015625)"/>
       <path id="DejaVuSans-74" d="M 1172 4494 
L 1172 3500 
L 2356 3500 
L 2356 3053 
L 1172 3053 
L 1172 1153 
Q 1172 725 1289 603 
Q 1406 481 1766 481 
L 2356 481 
L 2356 0 
L 1766 0 
Q 1100 0 847 248 
Q 594 497 594 1153 
L 594 3053 
L 172 3053 
L 172 3500 
L 594 3500 
L 594 4494 
L 1172 4494 
z
" transform="scale(0.015625)"/>
       <path id="DejaVuSans-29" d="M 513 4856 
L 1013 4856 
Q 1481 4119 1714 3412 
Q 1947 2706 1947 2009 
Q 1947 1309 1714 600 
Q 1481 -109 1013 -844 
L 513 -844 
Q 928 -128 1133 580 
Q 1338 1288 1338 2009 
Q 1338 2731 1133 3434 
Q 928 4138 513 4856 
z
" transform="scale(0.015625)"/>
      </defs>
      <use xlink:href="#DejaVuSans-49"/>
      <use xlink:href="#DejaVuSans-6e" x="29.492188"/>
      <use xlink:href="#DejaVuSans-66" x="92.871094"/>
      <use xlink:href="#DejaVuSans-6c" x="128.076172"/>
      <use xlink:href="#DejaVuSans-75" x="155.859375"/>
      <use xlink:href="#DejaVuSans-65" x="219.238281"/>
      <use xlink:href="#DejaVuSans-6e" x="280.761719"/>
      <use xlink:href="#DejaVuSans-63" x="344.140625"/>
      <use xlink:href="#DejaVuSans-65" x="399.121094"/>
      <use xlink:href="#DejaVuSans-20" x="460.644531"/>
      <use xlink:href="#DejaVuSans-6f" x="492.431641"/>
      <use xlink:href="#DejaVuSans-66" x="553.613281"/>
      <use xlink:href="#DejaVuSans-20" x="588.818359"/>
      <use xlink:href="#DejaVuSans-73" x="620.605469"/>
      <use xlink:href="#DejaVuSans-75" x="672.705078"/>
      <use xlink:href="#DejaVuSans-72" x="736.083984"/>
      <use xlink:href="#DejaVuSans-70" x="777.197266"/>
      <use xlink:href="#DejaVuSans-72" x="840.673828"/>
      <use xlink:href="#DejaVuSans-69" x="881.787109"/>
      <use xlink:href="#DejaVuSans-73" x="909.570312"/>
      <use xlink:href="#DejaVuSans-61" x="961.669922"/>
      <use xlink:href="#DejaVuSans-6c" x="1022.949219"/>
      <use xlink:href="#DejaVuSans-20" x="1050.732422"/>
      <use xlink:href="#DejaVuSans-28" x="1082.519531"/>
      <use xlink:href="#DejaVuSans-6d" x="1121.533203"/>
      <use xlink:href="#DejaVuSans-75" x="1218.945312"/>
      <use xlink:href="#DejaVuSans-6c" x="1282.324219"/>
      <use xlink:href="#DejaVuSans-74" x="1310.107422"/>
      <use xlink:href="#DejaVuSans-69" x="1349.316406"/>
      <use xlink:href="#DejaVuSans-70" x="1377.099609"/>
      <use xlink:href="#DejaVuSans-6c" x="1440.576172"/>
      <use xlink:href="#DejaVuSans-69" x="1468.359375"/>
      <use xlink:href="#DejaVuSans-63" x="1496.142578"/>
      <use xlink:href="#DejaVuSans-61" x="1551.123047"/>
      <use xlink:href="#DejaVuSans-74" x="1612.402344"/>
      <use xlink:href="#DejaVuSans-69" x="1651.611328"/>
      <use xlink:href="#DejaVuSans-6f" x="1679.394531"/>
      <use xlink:href="#DejaVuSans-6e" x="1740.576172"/>
      <use xlink:href="#DejaVuSans-29" x="1803.955078"/>
     </g>
    </g>
   </g>
   <g id="matplotlib.axis_2">
    <g id="ytick_1">
     <g id="line2d_6">
      <defs>
       <path id="m156632a028" d="M 0 0 
L -3.5 0 
" style="stroke: #000000; stroke-width: 0.8"/>
      </defs>
      <g>
       <use xlink:href="#m156632a028" x="47.72" y="153.05139" style="stroke: #000000; stroke-width: 0.8"/>
      </g>
     </g>
     <g id="text_7">
      <!-- 0.2 -->
      <g transform="translate(24.816875 156.850609)scale(0.1 -0.1)">
       <use xlink:href="#DejaVuSans-30"/>
       <use xlink:href="#DejaVuSans-2e" x="63.623047"/>
       <use xlink:href="#DejaVuSans-32" x="95.410156"/>
      </g>
     </g>
    </g>
    <g id="ytick_2">
     <g id="line2d_7">
      <g>
       <use xlink:href="#m156632a028" x="47.72" y="123.180816" style="stroke: #000000; stroke-width: 0.8"/>
      </g>
     </g>
     <g id="text_8">
      <!-- 0.4 -->
      <g transform="translate(24.816875 126.980034)scale(0.1 -0.1)">
       <defs>
        <path id="DejaVuSans-34" d="M 2419 4116 
L 825 1625 
L 2419 1625 
L 2419 4116 
z
M 2253 4666 
L 3047 4666 
L 3047 1625 
L 3713 1625 
L 3713 1100 
L 3047 1100 
L 3047 0 
L 2419 0 
L 2419 1100 
L 313 1100 
L 313 1709 
L 2253 4666 
z
" transform="scale(0.015625)"/>
       </defs>
       <use xlink:href="#DejaVuSans-30"/>
       <use xlink:href="#DejaVuSans-2e" x="63.623047"/>
       <use xlink:href="#DejaVuSans-34" x="95.410156"/>
      </g>
     </g>
    </g>
    <g id="ytick_3">
     <g id="line2d_8">
      <g>
       <use xlink:href="#m156632a028" x="47.72" y="93.310241" style="stroke: #000000; stroke-width: 0.8"/>
      </g>
     </g>
     <g id="text_9">
      <!-- 0.6 -->
      <g transform="translate(24.816875 97.109459)scale(0.1 -0.1)">
       <defs>
        <path id="DejaVuSans-36" d="M 2113 2584 
Q 1688 2584 1439 2293 
Q 1191 2003 1191 1497 
Q 1191 994 1439 701 
Q 1688 409 2113 409 
Q 2538 409 2786 701 
Q 3034 994 3034 1497 
Q 3034 2003 2786 2293 
Q 2538 2584 2113 2584 
z
M 3366 4563 
L 3366 3988 
Q 3128 4100 2886 4159 
Q 2644 4219 2406 4219 
Q 1781 4219 1451 3797 
Q 1122 3375 1075 2522 
Q 1259 2794 1537 2939 
Q 1816 3084 2150 3084 
Q 2853 3084 3261 2657 
Q 3669 2231 3669 1497 
Q 3669 778 3244 343 
Q 2819 -91 2113 -91 
Q 1303 -91 875 529 
Q 447 1150 447 2328 
Q 447 3434 972 4092 
Q 1497 4750 2381 4750 
Q 2619 4750 2861 4703 
Q 3103 4656 3366 4563 
z
" transform="scale(0.015625)"/>
       </defs>
       <use xlink:href="#DejaVuSans-30"/>
       <use xlink:href="#DejaVuSans-2e" x="63.623047"/>
       <use xlink:href="#DejaVuSans-36" x="95.410156"/>
      </g>
     </g>
    </g>
    <g id="ytick_4">
     <g id="line2d_9">
      <g>
       <use xlink:href="#m156632a028" x="47.72" y="63.439666" style="stroke: #000000; stroke-width: 0.8"/>
      </g>
     </g>
     <g id="text_10">
      <!-- 0.8 -->
      <g transform="translate(24.816875 67.238885)scale(0.1 -0.1)">
       <defs>
        <path id="DejaVuSans-38" d="M 2034 2216 
Q 1584 2216 1326 1975 
Q 1069 1734 1069 1313 
Q 1069 891 1326 650 
Q 1584 409 2034 409 
Q 2484 409 2743 651 
Q 3003 894 3003 1313 
Q 3003 1734 2745 1975 
Q 2488 2216 2034 2216 
z
M 1403 2484 
Q 997 2584 770 2862 
Q 544 3141 544 3541 
Q 544 4100 942 4425 
Q 1341 4750 2034 4750 
Q 2731 4750 3128 4425 
Q 3525 4100 3525 3541 
Q 3525 3141 3298 2862 
Q 3072 2584 2669 2484 
Q 3125 2378 3379 2068 
Q 3634 1759 3634 1313 
Q 3634 634 3220 271 
Q 2806 -91 2034 -91 
Q 1263 -91 848 271 
Q 434 634 434 1313 
Q 434 1759 690 2068 
Q 947 2378 1403 2484 
z
M 1172 3481 
Q 1172 3119 1398 2916 
Q 1625 2713 2034 2713 
Q 2441 2713 2670 2916 
Q 2900 3119 2900 3481 
Q 2900 3844 2670 4047 
Q 2441 4250 2034 4250 
Q 1625 4250 1398 4047 
Q 1172 3844 1172 3481 
z
" transform="scale(0.015625)"/>
       </defs>
       <use xlink:href="#DejaVuSans-30"/>
       <use xlink:href="#DejaVuSans-2e" x="63.623047"/>
       <use xlink:href="#DejaVuSans-38" x="95.410156"/>
      </g>
     </g>
    </g>
    <g id="ytick_5">
     <g id="line2d_10">
      <g>
       <use xlink:href="#m156632a028" x="47.72" y="33.569091" style="stroke: #000000; stroke-width: 0.8"/>
      </g>
     </g>
     <g id="text_11">
      <!-- 1.0 -->
      <g transform="translate(24.816875 37.36831)scale(0.1 -0.1)">
       <use xlink:href="#DejaVuSans-31"/>
       <use xlink:href="#DejaVuSans-2e" x="63.623047"/>
       <use xlink:href="#DejaVuSans-30" x="95.410156"/>
      </g>
     </g>
    </g>
    <g id="text_12">
     <!-- R-value -->
     <g transform="translate(18.737188 119.064687)rotate(-90)scale(0.1 -0.1)">
      <defs>
       <path id="DejaVuSans-52" d="M 2841 2188 
Q 3044 2119 3236 1894 
Q 3428 1669 3622 1275 
L 4263 0 
L 3584 0 
L 2988 1197 
Q 2756 1666 2539 1819 
Q 2322 1972 1947 1972 
L 1259 1972 
L 1259 0 
L 628 0 
L 628 4666 
L 2053 4666 
Q 2853 4666 3247 4331 
Q 3641 3997 3641 3322 
Q 3641 2881 3436 2590 
Q 3231 2300 2841 2188 
z
M 1259 4147 
L 1259 2491 
L 2053 2491 
Q 2509 2491 2742 2702 
Q 2975 2913 2975 3322 
Q 2975 3731 2742 3939 
Q 2509 4147 2053 4147 
L 1259 4147 
z
" transform="scale(0.015625)"/>
       <path id="DejaVuSans-2d" d="M 313 2009 
L 1997 2009 
L 1997 1497 
L 313 1497 
L 313 2009 
z
" transform="scale(0.015625)"/>
       <path id="DejaVuSans-76" d="M 191 3500 
L 800 3500 
L 1894 563 
L 2988 3500 
L 3597 3500 
L 2284 0 
L 1503 0 
L 191 3500 
z
" transform="scale(0.015625)"/>
      </defs>
      <use xlink:href="#DejaVuSans-52"/>
      <use xlink:href="#DejaVuSans-2d" x="65.482422"/>
      <use xlink:href="#DejaVuSans-76" x="98.941406"/>
      <use xlink:href="#DejaVuSans-61" x="158.121094"/>
      <use xlink:href="#DejaVuSans-6c" x="219.400391"/>
      <use xlink:href="#DejaVuSans-75" x="247.183594"/>
      <use xlink:href="#DejaVuSans-65" x="310.5625"/>
     </g>
    </g>
   </g>
   <g id="line2d_11">
    <path d="M 47.72 33.569091 
L 59.167105 35.688026 
L 70.614211 41.331135 
L 82.061316 49.332111 
L 93.508421 58.786804 
L 104.955526 68.841181 
L 116.402632 79.16198 
L 127.849737 88.393095 
L 139.296842 97.26033 
L 150.743947 105.46048 
L 162.191053 113.318837 
L 173.638158 119.164042 
L 185.085263 125.198367 
L 196.532368 130.494563 
L 207.979474 135.198932 
L 219.426579 139.078016 
L 230.873684 143.190172 
L 242.320789 146.020038 
L 253.767895 149.043318 
L 265.215 151.660474 
" clip-path="url(#p51792872f1)" style="fill: none; stroke: #1f77b4; stroke-width: 1.5; stroke-linecap: square"/>
   </g>
   <g id="line2d_12">
    <path d="M 47.72 33.56925 
L 59.167105 35.004389 
L 70.614211 38.143372 
L 82.061316 43.182342 
L 93.508421 49.698633 
L 104.955526 57.46175 
L 116.402632 66.310635 
L 127.849737 74.838821 
L 139.296842 83.41131 
L 150.743947 91.557325 
L 162.191053 99.739937 
L 173.638158 105.885147 
L 185.085263 112.629584 
L 196.532368 118.337602 
L 207.979474 123.525093 
L 219.426579 128.083043 
L 230.873684 132.762716 
L 242.320789 136.458495 
L 253.767895 140.26792 
L 265.215 143.643776 
" clip-path="url(#p51792872f1)" style="fill: none; stroke: #ff7f0e; stroke-width: 1.5; stroke-linecap: square"/>
   </g>
   <g id="line2d_13">
    <path d="M 47.72 33.569091 
L 59.167105 35.160532 
L 70.614211 37.873501 
L 82.061316 41.435481 
L 93.508421 45.661528 
L 104.955526 50.379374 
L 116.402632 55.264754 
L 127.849737 59.915128 
L 139.296842 64.794756 
L 150.743947 69.539858 
L 162.191053 74.274632 
L 173.638158 78.250369 
L 185.085263 82.506715 
L 196.532368 86.506293 
L 207.979474 90.745058 
L 219.426579 95.099302 
L 230.873684 99.07652 
L 242.320789 102.713185 
L 253.767895 107.071994 
L 265.215 111.125566 
" clip-path="url(#p51792872f1)" style="fill: none; stroke: #2ca02c; stroke-width: 1.5; stroke-linecap: square"/>
   </g>
   <g id="line2d_14">
    <path d="M 47.72 33.570007 
L 59.167105 34.881683 
L 70.614211 36.894486 
L 82.061316 39.838495 
L 93.508421 43.532503 
L 104.955526 47.987327 
L 116.402632 52.956301 
L 127.849737 57.819251 
L 139.296842 62.962173 
L 150.743947 67.967226 
L 162.191053 73.087844 
L 173.638158 77.271414 
L 185.085263 81.70168 
L 196.532368 85.829725 
L 207.979474 90.10987 
L 219.426579 94.415975 
L 230.873684 98.25092 
L 242.320789 101.694068 
L 253.767895 105.75391 
L 265.215 109.567622 
" clip-path="url(#p51792872f1)" style="fill: none; stroke: #d62728; stroke-width: 1.5; stroke-linecap: square"/>
   </g>
   <g id="line2d_15">
    <path d="M 47.72 33.569091 
L 59.167105 35.684507 
L 70.614211 41.341967 
L 82.061316 49.344806 
L 93.508421 58.880985 
L 104.955526 68.901247 
L 116.402632 79.222483 
L 127.849737 88.346556 
L 139.296842 97.5335 
L 150.743947 105.643171 
L 162.191053 113.580431 
L 173.638158 119.360913 
L 185.085263 125.550757 
L 196.532368 130.945631 
L 207.979474 135.744912 
L 219.426579 139.861233 
L 230.873684 143.520516 
L 242.320789 146.333623 
L 253.767895 149.710508 
L 265.215 151.835902 
" clip-path="url(#p51792872f1)" style="fill: none; stroke: #9467bd; stroke-width: 1.5; stroke-linecap: square"/>
   </g>
   <g id="line2d_16">
    <path d="M 47.72 33.569725 
L 59.167105 35.003898 
L 70.614211 38.160701 
L 82.061316 43.197411 
L 93.508421 49.768019 
L 104.955526 57.504351 
L 116.402632 66.344591 
L 127.849737 74.899367 
L 139.296842 83.59117 
L 150.743947 91.651564 
L 162.191053 99.927837 
L 173.638158 105.991101 
L 185.085263 113.006153 
L 196.532368 118.654855 
L 207.979474 123.884331 
L 219.426579 128.723263 
L 230.873684 132.984459 
L 242.320789 136.757856 
L 253.767895 140.784846 
L 265.215 143.777585 
" clip-path="url(#p51792872f1)" style="fill: none; stroke: #8c564b; stroke-width: 1.5; stroke-linecap: square"/>
   </g>
   <g id="line2d_17">
    <path d="M 47.72 45.593576 
L 59.167105 48.297638 
L 70.614211 54.703531 
L 82.061316 64.292476 
L 93.508421 75.319865 
L 104.955526 86.802118 
L 116.402632 98.082922 
L 127.849737 107.606768 
L 139.296842 116.284273 
L 150.743947 124.403578 
L 162.191053 130.864493 
L 173.638158 136.029222 
L 185.085263 140.850118 
L 196.532368 145.028505 
L 207.979474 149.109381 
L 219.426579 152.363924 
L 230.873684 155.675137 
L 242.320789 157.964919 
L 253.767895 160.276872 
L 265.215 162.265685 
" clip-path="url(#p51792872f1)" style="fill: none; stroke: #e377c2; stroke-width: 1.5; stroke-linecap: square"/>
   </g>
   <g id="line2d_18">
    <path d="M 47.72 33.569411 
L 59.167105 34.163494 
L 70.614211 34.758968 
L 82.061316 36.499879 
L 93.508421 40.116664 
L 104.955526 45.580758 
L 116.402632 53.031483 
L 127.849737 61.037822 
L 139.296842 69.767783 
L 150.743947 78.172251 
L 162.191053 86.822008 
L 173.638158 93.540076 
L 185.085263 100.510327 
L 196.532368 106.56023 
L 207.979474 112.534426 
L 219.426579 117.961795 
L 230.873684 123.393742 
L 242.320789 127.97219 
L 253.767895 132.675741 
L 265.215 136.899098 
" clip-path="url(#p51792872f1)" style="fill: none; stroke: #7f7f7f; stroke-width: 1.5; stroke-linecap: square"/>
   </g>
   <g id="patch_3">
    <path d="M 47.72 174.04 
L 47.72 26.88 
" style="fill: none; stroke: #000000; stroke-width: 0.8; stroke-linejoin: miter; stroke-linecap: square"/>
   </g>
   <g id="patch_4">
    <path d="M 47.72 174.04 
L 265.215 174.04 
" style="fill: none; stroke: #000000; stroke-width: 0.8; stroke-linejoin: miter; stroke-linecap: square"/>
   </g>
   <g id="text_13">
    <!-- Node * surprisal -->
    <g transform="translate(108.18625 20.88)scale(0.12 -0.12)">
     <defs>
      <path id="DejaVuSans-4e" d="M 628 4666 
L 1478 4666 
L 3547 763 
L 3547 4666 
L 4159 4666 
L 4159 0 
L 3309 0 
L 1241 3903 
L 1241 0 
L 628 0 
L 628 4666 
z
" transform="scale(0.015625)"/>
      <path id="DejaVuSans-64" d="M 2906 2969 
L 2906 4863 
L 3481 4863 
L 3481 0 
L 2906 0 
L 2906 525 
Q 2725 213 2448 61 
Q 2172 -91 1784 -91 
Q 1150 -91 751 415 
Q 353 922 353 1747 
Q 353 2572 751 3078 
Q 1150 3584 1784 3584 
Q 2172 3584 2448 3432 
Q 2725 3281 2906 2969 
z
M 947 1747 
Q 947 1113 1208 752 
Q 1469 391 1925 391 
Q 2381 391 2643 752 
Q 2906 1113 2906 1747 
Q 2906 2381 2643 2742 
Q 2381 3103 1925 3103 
Q 1469 3103 1208 2742 
Q 947 2381 947 1747 
z
" transform="scale(0.015625)"/>
      <path id="DejaVuSans-2a" d="M 3009 3897 
L 1888 3291 
L 3009 2681 
L 2828 2375 
L 1778 3009 
L 1778 1831 
L 1422 1831 
L 1422 3009 
L 372 2375 
L 191 2681 
L 1313 3291 
L 191 3897 
L 372 4206 
L 1422 3572 
L 1422 4750 
L 1778 4750 
L 1778 3572 
L 2828 4206 
L 3009 3897 
z
" transform="scale(0.015625)"/>
     </defs>
     <use xlink:href="#DejaVuSans-4e"/>
     <use xlink:href="#DejaVuSans-6f" x="74.804688"/>
     <use xlink:href="#DejaVuSans-64" x="135.986328"/>
     <use xlink:href="#DejaVuSans-65" x="199.462891"/>
     <use xlink:href="#DejaVuSans-20" x="260.986328"/>
     <use xlink:href="#DejaVuSans-2a" x="292.773438"/>
     <use xlink:href="#DejaVuSans-20" x="342.773438"/>
     <use xlink:href="#DejaVuSans-73" x="374.560547"/>
     <use xlink:href="#DejaVuSans-75" x="426.660156"/>
     <use xlink:href="#DejaVuSans-72" x="490.039062"/>
     <use xlink:href="#DejaVuSans-70" x="531.152344"/>
     <use xlink:href="#DejaVuSans-72" x="594.628906"/>
     <use xlink:href="#DejaVuSans-69" x="635.742188"/>
     <use xlink:href="#DejaVuSans-73" x="663.525391"/>
     <use xlink:href="#DejaVuSans-61" x="715.625"/>
     <use xlink:href="#DejaVuSans-6c" x="776.904297"/>
    </g>
   </g>
  </g>
  <g id="axes_2">
   <g id="patch_5">
    <path d="M 298.065 174.04 
L 515.56 174.04 
L 515.56 26.88 
L 298.065 26.88 
z
" style="fill: #ffffff"/>
   </g>
   <g id="PolyCollection_9">
    <path d="M 298.065 33.569091 
L 298.065 33.569091 
L 309.512105 35.745395 
L 320.959211 41.821565 
L 332.406316 49.36998 
L 343.853421 58.730773 
L 355.300526 69.206568 
L 366.747632 79.767001 
L 378.194737 89.812757 
L 389.641842 98.850487 
L 401.088947 107.826512 
L 412.536053 116.227908 
L 423.983158 122.29711 
L 435.430263 128.691514 
L 446.877368 134.695219 
L 458.324474 139.655695 
L 469.771579 143.775526 
L 481.218684 146.987837 
L 492.665789 150.487752 
L 504.112895 153.492909 
L 515.56 156.035049 
L 515.56 146.903081 
L 515.56 146.903081 
L 504.112895 144.045354 
L 492.665789 140.3466 
L 481.218684 136.455036 
L 469.771579 132.605962 
L 458.324474 127.156059 
L 446.877368 122.481293 
L 435.430263 116.686397 
L 423.983158 109.6584 
L 412.536053 102.681783 
L 401.088947 95.97251 
L 389.641842 87.836287 
L 378.194737 78.469768 
L 366.747632 70.192173 
L 355.300526 62.033723 
L 343.853421 53.29848 
L 332.406316 45.635855 
L 320.959211 39.597694 
L 309.512105 35.065545 
L 298.065 33.569091 
z
" clip-path="url(#p1de1be693f)" style="fill: #1f77b4; fill-opacity: 0.4"/>
   </g>
   <g id="PolyCollection_10">
    <path d="M 298.065 33.569219 
L 298.065 33.569281 
L 309.512105 35.743759 
L 320.959211 41.818281 
L 332.406316 49.387248 
L 343.853421 58.734812 
L 355.300526 69.22274 
L 366.747632 79.760649 
L 378.194737 89.865865 
L 389.641842 98.905239 
L 401.088947 107.875458 
L 412.536053 116.377881 
L 423.983158 122.501527 
L 435.430263 128.979373 
L 446.877368 134.970953 
L 458.324474 139.917511 
L 469.771579 144.100084 
L 481.218684 147.332668 
L 492.665789 150.847514 
L 504.112895 153.6429 
L 515.56 156.153864 
L 515.56 147.485443 
L 515.56 147.485443 
L 504.112895 144.575629 
L 492.665789 140.910461 
L 481.218684 136.934043 
L 469.771579 133.089529 
L 458.324474 127.564286 
L 446.877368 122.826149 
L 435.430263 116.98492 
L 423.983158 109.935469 
L 412.536053 102.924322 
L 401.088947 96.179553 
L 389.641842 87.978999 
L 378.194737 78.610658 
L 366.747632 70.281837 
L 355.300526 62.077447 
L 343.853421 53.323819 
L 332.406316 45.650359 
L 320.959211 39.597388 
L 309.512105 35.066426 
L 298.065 33.569219 
z
" clip-path="url(#p1de1be693f)" style="fill: #ff7f0e; fill-opacity: 0.4"/>
   </g>
   <g id="PolyCollection_11">
    <path d="M 298.065 33.569091 
L 298.065 33.569091 
L 309.512105 35.752884 
L 320.959211 41.852336 
L 332.406316 49.416245 
L 343.853421 58.80638 
L 355.300526 69.27468 
L 366.747632 79.891267 
L 378.194737 90.000664 
L 389.641842 99.139328 
L 401.088947 108.163053 
L 412.536053 116.840253 
L 423.983158 123.247794 
L 435.430263 129.797953 
L 446.877368 136.035072 
L 458.324474 141.228687 
L 469.771579 145.619179 
L 481.218684 149.201739 
L 492.665789 152.938914 
L 504.112895 155.728203 
L 515.56 158.380092 
L 515.56 147.192027 
L 515.56 147.192027 
L 504.112895 144.514296 
L 492.665789 140.842174 
L 481.218684 137.239188 
L 469.771579 133.415341 
L 458.324474 128.192026 
L 446.877368 123.641814 
L 435.430263 117.670885 
L 423.983158 110.679377 
L 412.536053 103.585581 
L 401.088947 96.810111 
L 389.641842 88.475732 
L 378.194737 79.05896 
L 366.747632 70.630081 
L 355.300526 62.330019 
L 343.853421 53.448779 
L 332.406316 45.692495 
L 320.959211 39.64336 
L 309.512105 35.069412 
L 298.065 33.569091 
z
" clip-path="url(#p1de1be693f)" style="fill: #2ca02c; fill-opacity: 0.4"/>
   </g>
   <g id="PolyCollection_12">
    <path d="M 298.065 33.569825 
L 298.065 33.570189 
L 309.512105 35.754432 
L 320.959211 41.851416 
L 332.406316 49.422109 
L 343.853421 58.811795 
L 355.300526 69.303737 
L 366.747632 79.925395 
L 378.194737 90.059395 
L 389.641842 99.231435 
L 401.088947 108.224553 
L 412.536053 116.982431 
L 423.983158 123.400266 
L 435.430263 129.965546 
L 446.877368 136.167965 
L 458.324474 141.325429 
L 469.771579 145.717421 
L 481.218684 149.275612 
L 492.665789 152.90087 
L 504.112895 155.685923 
L 515.56 158.296607 
L 515.56 147.530679 
L 515.56 147.530679 
L 504.112895 144.811088 
L 492.665789 141.09216 
L 481.218684 137.39431 
L 469.771579 133.632602 
L 458.324474 128.387698 
L 446.877368 123.769504 
L 435.430263 117.797837 
L 423.983158 110.770144 
L 412.536053 103.643995 
L 401.088947 96.902711 
L 389.641842 88.489812 
L 378.194737 79.103794 
L 366.747632 70.672964 
L 355.300526 62.34913 
L 343.853421 53.465557 
L 332.406316 45.689699 
L 320.959211 39.636817 
L 309.512105 35.069768 
L 298.065 33.569825 
z
" clip-path="url(#p1de1be693f)" style="fill: #d62728; fill-opacity: 0.4"/>
   </g>
   <g id="PolyCollection_13">
    <path d="M 298.065 33.569091 
L 298.065 33.569091 
L 309.512105 35.780793 
L 320.959211 41.8467 
L 332.406316 49.349571 
L 343.853421 58.699468 
L 355.300526 69.284624 
L 366.747632 79.598096 
L 378.194737 89.859617 
L 389.641842 98.808307 
L 401.088947 108.291505 
L 412.536053 116.605301 
L 423.983158 122.056705 
L 435.430263 128.41528 
L 446.877368 134.996732 
L 458.324474 139.891017 
L 469.771579 144.361123 
L 481.218684 147.643592 
L 492.665789 150.854001 
L 504.112895 155.378313 
L 515.56 157.786001 
L 515.56 148.175621 
L 515.56 148.175621 
L 504.112895 144.29808 
L 492.665789 140.174901 
L 481.218684 137.648993 
L 469.771579 132.483968 
L 458.324474 128.204278 
L 446.877368 122.311359 
L 435.430263 116.471082 
L 423.983158 110.375828 
L 412.536053 103.142733 
L 401.088947 96.155296 
L 389.641842 87.812124 
L 378.194737 78.465472 
L 366.747632 70.299447 
L 355.300526 62.017796 
L 343.853421 53.26997 
L 332.406316 45.668629 
L 320.959211 39.635095 
L 309.512105 35.058005 
L 298.065 33.569091 
z
" clip-path="url(#p1de1be693f)" style="fill: #9467bd; fill-opacity: 0.4"/>
   </g>
   <g id="PolyCollection_14">
    <path d="M 298.065 33.569602 
L 298.065 33.569848 
L 309.512105 35.779179 
L 320.959211 41.84312 
L 332.406316 49.362379 
L 343.853421 58.705456 
L 355.300526 69.310711 
L 366.747632 79.585211 
L 378.194737 89.915274 
L 389.641842 98.85006 
L 401.088947 108.332264 
L 412.536053 116.751273 
L 423.983158 122.247113 
L 435.430263 128.748928 
L 446.877368 135.246139 
L 458.324474 140.144104 
L 469.771579 144.710506 
L 481.218684 147.927199 
L 492.665789 151.239602 
L 504.112895 155.53705 
L 515.56 157.864923 
L 515.56 148.753926 
L 515.56 148.753926 
L 504.112895 144.723125 
L 492.665789 140.662227 
L 481.218684 138.188788 
L 469.771579 133.032549 
L 458.324474 128.53351 
L 446.877368 122.612694 
L 435.430263 116.731486 
L 423.983158 110.660735 
L 412.536053 103.364448 
L 401.088947 96.361896 
L 389.641842 87.938331 
L 378.194737 78.601407 
L 366.747632 70.390722 
L 355.300526 62.059137 
L 343.853421 53.299101 
L 332.406316 45.683628 
L 320.959211 39.634689 
L 309.512105 35.059649 
L 298.065 33.569602 
z
" clip-path="url(#p1de1be693f)" style="fill: #8c564b; fill-opacity: 0.4"/>
   </g>
   <g id="PolyCollection_15">
    <path d="M 298.065 44.13012 
L 298.065 47.057032 
L 309.512105 48.666517 
L 320.959211 53.576906 
L 332.406316 59.741561 
L 343.853421 68.179451 
L 355.300526 77.372923 
L 366.747632 87.481289 
L 378.194737 96.710609 
L 389.641842 105.141903 
L 401.088947 113.492791 
L 412.536053 121.183635 
L 423.983158 126.924765 
L 435.430263 132.70168 
L 446.877368 138.395938 
L 458.324474 142.893478 
L 469.771579 146.796214 
L 481.218684 150.065548 
L 492.665789 153.123851 
L 504.112895 156.004134 
L 515.56 158.441797 
L 515.56 149.91808 
L 515.56 149.91808 
L 504.112895 147.182999 
L 492.665789 143.924329 
L 481.218684 140.471693 
L 469.771579 136.829892 
L 458.324474 131.842283 
L 446.877368 127.63104 
L 435.430263 122.363643 
L 423.983158 115.861918 
L 412.536053 109.455608 
L 401.088947 103.32093 
L 389.641842 95.855903 
L 378.194737 86.949397 
L 366.747632 79.330897 
L 355.300526 72.154336 
L 343.853421 63.774523 
L 332.406316 56.725251 
L 320.959211 50.555204 
L 309.512105 45.843935 
L 298.065 44.13012 
z
" clip-path="url(#p1de1be693f)" style="fill: #e377c2; fill-opacity: 0.4"/>
   </g>
   <g id="PolyCollection_16">
    <path d="M 298.065 33.569313 
L 298.065 33.56951 
L 309.512105 35.744746 
L 320.959211 41.83819 
L 332.406316 49.390858 
L 343.853421 58.736053 
L 355.300526 69.234904 
L 366.747632 79.835105 
L 378.194737 90.004745 
L 389.641842 99.114455 
L 401.088947 108.192779 
L 412.536053 116.756671 
L 423.983158 122.996595 
L 435.430263 129.506293 
L 446.877368 135.695427 
L 458.324474 140.815644 
L 469.771579 145.088574 
L 481.218684 148.561549 
L 492.665789 152.19907 
L 504.112895 155.069847 
L 515.56 157.534387 
L 515.56 147.256317 
L 515.56 147.256317 
L 504.112895 144.702941 
L 492.665789 141.094336 
L 481.218684 137.505777 
L 469.771579 133.748701 
L 458.324474 128.499028 
L 446.877368 123.848719 
L 435.430263 117.925026 
L 423.983158 110.789127 
L 412.536053 103.669444 
L 401.088947 96.846535 
L 389.641842 88.530581 
L 378.194737 79.081128 
L 366.747632 70.62771 
L 355.300526 62.397873 
L 343.853421 53.466326 
L 332.406316 45.717642 
L 320.959211 39.640672 
L 309.512105 35.078183 
L 298.065 33.569313 
z
" clip-path="url(#p1de1be693f)" style="fill: #7f7f7f; fill-opacity: 0.4"/>
   </g>
   <g id="matplotlib.axis_3">
    <g id="xtick_6">
     <g id="line2d_19">
      <g>
       <use xlink:href="#m0dbc09b135" x="298.065" y="174.04" style="stroke: #000000; stroke-width: 0.8"/>
      </g>
     </g>
     <g id="text_14">
      <!-- 0.0 -->
      <g transform="translate(290.113437 188.638438)scale(0.1 -0.1)">
       <use xlink:href="#DejaVuSans-30"/>
       <use xlink:href="#DejaVuSans-2e" x="63.623047"/>
       <use xlink:href="#DejaVuSans-30" x="95.410156"/>
      </g>
     </g>
    </g>
    <g id="xtick_7">
     <g id="line2d_20">
      <g>
       <use xlink:href="#m0dbc09b135" x="352.43875" y="174.04" style="stroke: #000000; stroke-width: 0.8"/>
      </g>
     </g>
     <g id="text_15">
      <!-- 0.5 -->
      <g transform="translate(344.487187 188.638438)scale(0.1 -0.1)">
       <use xlink:href="#DejaVuSans-30"/>
       <use xlink:href="#DejaVuSans-2e" x="63.623047"/>
       <use xlink:href="#DejaVuSans-35" x="95.410156"/>
      </g>
     </g>
    </g>
    <g id="xtick_8">
     <g id="line2d_21">
      <g>
       <use xlink:href="#m0dbc09b135" x="406.8125" y="174.04" style="stroke: #000000; stroke-width: 0.8"/>
      </g>
     </g>
     <g id="text_16">
      <!-- 1.0 -->
      <g transform="translate(398.860937 188.638438)scale(0.1 -0.1)">
       <use xlink:href="#DejaVuSans-31"/>
       <use xlink:href="#DejaVuSans-2e" x="63.623047"/>
       <use xlink:href="#DejaVuSans-30" x="95.410156"/>
      </g>
     </g>
    </g>
    <g id="xtick_9">
     <g id="line2d_22">
      <g>
       <use xlink:href="#m0dbc09b135" x="461.18625" y="174.04" style="stroke: #000000; stroke-width: 0.8"/>
      </g>
     </g>
     <g id="text_17">
      <!-- 1.5 -->
      <g transform="translate(453.234687 188.638438)scale(0.1 -0.1)">
       <use xlink:href="#DejaVuSans-31"/>
       <use xlink:href="#DejaVuSans-2e" x="63.623047"/>
       <use xlink:href="#DejaVuSans-35" x="95.410156"/>
      </g>
     </g>
    </g>
    <g id="xtick_10">
     <g id="line2d_23">
      <g>
       <use xlink:href="#m0dbc09b135" x="515.56" y="174.04" style="stroke: #000000; stroke-width: 0.8"/>
      </g>
     </g>
     <g id="text_18">
      <!-- 2.0 -->
      <g transform="translate(507.608437 188.638438)scale(0.1 -0.1)">
       <use xlink:href="#DejaVuSans-32"/>
       <use xlink:href="#DejaVuSans-2e" x="63.623047"/>
       <use xlink:href="#DejaVuSans-30" x="95.410156"/>
      </g>
     </g>
    </g>
    <g id="text_19">
     <!-- Influence of surprisal (multiplication) -->
     <g transform="translate(314.665625 202.316563)scale(0.1 -0.1)">
      <use xlink:href="#DejaVuSans-49"/>
      <use xlink:href="#DejaVuSans-6e" x="29.492188"/>
      <use xlink:href="#DejaVuSans-66" x="92.871094"/>
      <use xlink:href="#DejaVuSans-6c" x="128.076172"/>
      <use xlink:href="#DejaVuSans-75" x="155.859375"/>
      <use xlink:href="#DejaVuSans-65" x="219.238281"/>
      <use xlink:href="#DejaVuSans-6e" x="280.761719"/>
      <use xlink:href="#DejaVuSans-63" x="344.140625"/>
      <use xlink:href="#DejaVuSans-65" x="399.121094"/>
      <use xlink:href="#DejaVuSans-20" x="460.644531"/>
      <use xlink:href="#DejaVuSans-6f" x="492.431641"/>
      <use xlink:href="#DejaVuSans-66" x="553.613281"/>
      <use xlink:href="#DejaVuSans-20" x="588.818359"/>
      <use xlink:href="#DejaVuSans-73" x="620.605469"/>
      <use xlink:href="#DejaVuSans-75" x="672.705078"/>
      <use xlink:href="#DejaVuSans-72" x="736.083984"/>
      <use xlink:href="#DejaVuSans-70" x="777.197266"/>
      <use xlink:href="#DejaVuSans-72" x="840.673828"/>
      <use xlink:href="#DejaVuSans-69" x="881.787109"/>
      <use xlink:href="#DejaVuSans-73" x="909.570312"/>
      <use xlink:href="#DejaVuSans-61" x="961.669922"/>
      <use xlink:href="#DejaVuSans-6c" x="1022.949219"/>
      <use xlink:href="#DejaVuSans-20" x="1050.732422"/>
      <use xlink:href="#DejaVuSans-28" x="1082.519531"/>
      <use xlink:href="#DejaVuSans-6d" x="1121.533203"/>
      <use xlink:href="#DejaVuSans-75" x="1218.945312"/>
      <use xlink:href="#DejaVuSans-6c" x="1282.324219"/>
      <use xlink:href="#DejaVuSans-74" x="1310.107422"/>
      <use xlink:href="#DejaVuSans-69" x="1349.316406"/>
      <use xlink:href="#DejaVuSans-70" x="1377.099609"/>
      <use xlink:href="#DejaVuSans-6c" x="1440.576172"/>
      <use xlink:href="#DejaVuSans-69" x="1468.359375"/>
      <use xlink:href="#DejaVuSans-63" x="1496.142578"/>
      <use xlink:href="#DejaVuSans-61" x="1551.123047"/>
      <use xlink:href="#DejaVuSans-74" x="1612.402344"/>
      <use xlink:href="#DejaVuSans-69" x="1651.611328"/>
      <use xlink:href="#DejaVuSans-6f" x="1679.394531"/>
      <use xlink:href="#DejaVuSans-6e" x="1740.576172"/>
      <use xlink:href="#DejaVuSans-29" x="1803.955078"/>
     </g>
    </g>
   </g>
   <g id="line2d_24">
    <path d="M 298.065 33.569091 
L 309.512105 35.40547 
L 320.959211 40.709629 
L 332.406316 47.502918 
L 343.853421 56.014627 
L 355.300526 65.620146 
L 366.747632 74.979587 
L 378.194737 84.141262 
L 389.641842 93.343387 
L 401.088947 101.899511 
L 412.536053 109.454846 
L 423.983158 115.977755 
L 435.430263 122.688955 
L 446.877368 128.588256 
L 458.324474 133.405877 
L 469.771579 138.190744 
L 481.218684 141.721436 
L 492.665789 145.417176 
L 504.112895 148.769132 
L 515.56 151.469065 
" clip-path="url(#p1de1be693f)" style="fill: none; stroke: #1f77b4; stroke-width: 1.5; stroke-linecap: square"/>
   </g>
   <g id="line2d_25">
    <path d="M 298.065 33.56925 
L 309.512105 35.405093 
L 320.959211 40.707835 
L 332.406316 47.518804 
L 343.853421 56.029316 
L 355.300526 65.650093 
L 366.747632 75.021243 
L 378.194737 84.238262 
L 389.641842 93.442119 
L 401.088947 102.027506 
L 412.536053 109.651102 
L 423.983158 116.218498 
L 435.430263 122.982146 
L 446.877368 128.898551 
L 458.324474 133.740899 
L 469.771579 138.594806 
L 481.218684 142.133355 
L 492.665789 145.878988 
L 504.112895 149.109265 
L 515.56 151.819653 
" clip-path="url(#p1de1be693f)" style="fill: none; stroke: #ff7f0e; stroke-width: 1.5; stroke-linecap: square"/>
   </g>
   <g id="line2d_26">
    <path d="M 298.065 33.569091 
L 309.512105 35.411148 
L 320.959211 40.747848 
L 332.406316 47.55437 
L 343.853421 56.12758 
L 355.300526 65.802349 
L 366.747632 75.260674 
L 378.194737 84.529812 
L 389.641842 93.80753 
L 401.088947 102.486582 
L 412.536053 110.212917 
L 423.983158 116.963585 
L 435.430263 123.734419 
L 446.877368 129.838443 
L 458.324474 134.710357 
L 469.771579 139.51726 
L 481.218684 143.220464 
L 492.665789 146.890544 
L 504.112895 150.121249 
L 515.56 152.78606 
" clip-path="url(#p1de1be693f)" style="fill: none; stroke: #2ca02c; stroke-width: 1.5; stroke-linecap: square"/>
   </g>
   <g id="line2d_27">
    <path d="M 298.065 33.570007 
L 309.512105 35.4121 
L 320.959211 40.744117 
L 332.406316 47.555904 
L 343.853421 56.138676 
L 355.300526 65.826433 
L 366.747632 75.299179 
L 378.194737 84.581595 
L 389.641842 93.860623 
L 401.088947 102.563632 
L 412.536053 110.313213 
L 423.983158 117.085205 
L 435.430263 123.881691 
L 446.877368 129.968735 
L 458.324474 134.856564 
L 469.771579 139.675011 
L 481.218684 143.334961 
L 492.665789 146.996515 
L 504.112895 150.248505 
L 515.56 152.913643 
" clip-path="url(#p1de1be693f)" style="fill: none; stroke: #d62728; stroke-width: 1.5; stroke-linecap: square"/>
   </g>
   <g id="line2d_28">
    <path d="M 298.065 33.569091 
L 309.512105 35.419399 
L 320.959211 40.740897 
L 332.406316 47.5091 
L 343.853421 55.984719 
L 355.300526 65.65121 
L 366.747632 74.948772 
L 378.194737 84.162544 
L 389.641842 93.310215 
L 401.088947 102.2234 
L 412.536053 109.874017 
L 423.983158 116.216267 
L 435.430263 122.443181 
L 446.877368 128.654046 
L 458.324474 134.047648 
L 469.771579 138.422545 
L 481.218684 142.646293 
L 492.665789 145.514451 
L 504.112895 149.838196 
L 515.56 152.980811 
" clip-path="url(#p1de1be693f)" style="fill: none; stroke: #9467bd; stroke-width: 1.5; stroke-linecap: square"/>
   </g>
   <g id="line2d_29">
    <path d="M 298.065 33.569725 
L 309.512105 35.419414 
L 320.959211 40.738905 
L 332.406316 47.523003 
L 343.853421 56.002279 
L 355.300526 65.684924 
L 366.747632 74.987966 
L 378.194737 84.25834 
L 389.641842 93.394195 
L 401.088947 102.34708 
L 412.536053 110.057861 
L 423.983158 116.453924 
L 435.430263 122.740207 
L 446.877368 128.929416 
L 458.324474 134.338807 
L 469.771579 138.871527 
L 481.218684 143.057993 
L 492.665789 145.950914 
L 504.112895 150.130088 
L 515.56 153.309425 
" clip-path="url(#p1de1be693f)" style="fill: none; stroke: #8c564b; stroke-width: 1.5; stroke-linecap: square"/>
   </g>
   <g id="line2d_30">
    <path d="M 298.065 45.593576 
L 309.512105 47.255226 
L 320.959211 52.066055 
L 332.406316 58.233406 
L 343.853421 65.976987 
L 355.300526 74.763629 
L 366.747632 83.406093 
L 378.194737 91.830003 
L 389.641842 100.498903 
L 401.088947 108.40686 
L 412.536053 115.319621 
L 423.983158 121.393341 
L 435.430263 127.532661 
L 446.877368 133.013489 
L 458.324474 137.36788 
L 469.771579 141.813053 
L 481.218684 145.26862 
L 492.665789 148.52409 
L 504.112895 151.593567 
L 515.56 154.179938 
" clip-path="url(#p1de1be693f)" style="fill: none; stroke: #e377c2; stroke-width: 1.5; stroke-linecap: square"/>
   </g>
   <g id="line2d_31">
    <path d="M 298.065 33.569411 
L 309.512105 35.411465 
L 320.959211 40.739431 
L 332.406316 47.55425 
L 343.853421 56.101189 
L 355.300526 65.816389 
L 366.747632 75.231408 
L 378.194737 84.542936 
L 389.641842 93.822518 
L 401.088947 102.519657 
L 412.536053 110.213057 
L 423.983158 116.892861 
L 435.430263 123.71566 
L 446.877368 129.772073 
L 458.324474 134.657336 
L 469.771579 139.418637 
L 481.218684 143.033663 
L 492.665789 146.646703 
L 504.112895 149.886394 
L 515.56 152.395352 
" clip-path="url(#p1de1be693f)" style="fill: none; stroke: #7f7f7f; stroke-width: 1.5; stroke-linecap: square"/>
   </g>
   <g id="patch_6">
    <path d="M 298.065 174.04 
L 298.065 26.88 
" style="fill: none; stroke: #000000; stroke-width: 0.8; stroke-linejoin: miter; stroke-linecap: square"/>
   </g>
   <g id="patch_7">
    <path d="M 298.065 174.04 
L 515.56 174.04 
" style="fill: none; stroke: #000000; stroke-width: 0.8; stroke-linejoin: miter; stroke-linecap: square"/>
   </g>
   <g id="text_20">
    <!-- Node * third variable -->
    <g transform="translate(344.2325 20.88)scale(0.12 -0.12)">
     <defs>
      <path id="DejaVuSans-68" d="M 3513 2113 
L 3513 0 
L 2938 0 
L 2938 2094 
Q 2938 2591 2744 2837 
Q 2550 3084 2163 3084 
Q 1697 3084 1428 2787 
Q 1159 2491 1159 1978 
L 1159 0 
L 581 0 
L 581 4863 
L 1159 4863 
L 1159 2956 
Q 1366 3272 1645 3428 
Q 1925 3584 2291 3584 
Q 2894 3584 3203 3211 
Q 3513 2838 3513 2113 
z
" transform="scale(0.015625)"/>
      <path id="DejaVuSans-62" d="M 3116 1747 
Q 3116 2381 2855 2742 
Q 2594 3103 2138 3103 
Q 1681 3103 1420 2742 
Q 1159 2381 1159 1747 
Q 1159 1113 1420 752 
Q 1681 391 2138 391 
Q 2594 391 2855 752 
Q 3116 1113 3116 1747 
z
M 1159 2969 
Q 1341 3281 1617 3432 
Q 1894 3584 2278 3584 
Q 2916 3584 3314 3078 
Q 3713 2572 3713 1747 
Q 3713 922 3314 415 
Q 2916 -91 2278 -91 
Q 1894 -91 1617 61 
Q 1341 213 1159 525 
L 1159 0 
L 581 0 
L 581 4863 
L 1159 4863 
L 1159 2969 
z
" transform="scale(0.015625)"/>
     </defs>
     <use xlink:href="#DejaVuSans-4e"/>
     <use xlink:href="#DejaVuSans-6f" x="74.804688"/>
     <use xlink:href="#DejaVuSans-64" x="135.986328"/>
     <use xlink:href="#DejaVuSans-65" x="199.462891"/>
     <use xlink:href="#DejaVuSans-20" x="260.986328"/>
     <use xlink:href="#DejaVuSans-2a" x="292.773438"/>
     <use xlink:href="#DejaVuSans-20" x="342.773438"/>
     <use xlink:href="#DejaVuSans-74" x="374.560547"/>
     <use xlink:href="#DejaVuSans-68" x="413.769531"/>
     <use xlink:href="#DejaVuSans-69" x="477.148438"/>
     <use xlink:href="#DejaVuSans-72" x="504.931641"/>
     <use xlink:href="#DejaVuSans-64" x="544.294922"/>
     <use xlink:href="#DejaVuSans-20" x="607.771484"/>
     <use xlink:href="#DejaVuSans-76" x="639.558594"/>
     <use xlink:href="#DejaVuSans-61" x="698.738281"/>
     <use xlink:href="#DejaVuSans-72" x="760.017578"/>
     <use xlink:href="#DejaVuSans-69" x="801.130859"/>
     <use xlink:href="#DejaVuSans-61" x="828.914062"/>
     <use xlink:href="#DejaVuSans-62" x="890.193359"/>
     <use xlink:href="#DejaVuSans-6c" x="953.669922"/>
     <use xlink:href="#DejaVuSans-65" x="981.453125"/>
    </g>
   </g>
   <g id="legend_1">
    <g id="line2d_32">
     <path d="M 524.56 39.978437 
L 534.56 39.978437 
L 544.56 39.978437 
" style="fill: none; stroke: #1f77b4; stroke-width: 1.5; stroke-linecap: square"/>
    </g>
    <g id="text_21">
     <!-- Node -->
     <g transform="translate(552.56 43.478437)scale(0.1 -0.1)">
      <use xlink:href="#DejaVuSans-4e"/>
      <use xlink:href="#DejaVuSans-6f" x="74.804688"/>
      <use xlink:href="#DejaVuSans-64" x="135.986328"/>
      <use xlink:href="#DejaVuSans-65" x="199.462891"/>
     </g>
    </g>
    <g id="line2d_33">
     <path d="M 524.56 54.656563 
L 534.56 54.656563 
L 544.56 54.656563 
" style="fill: none; stroke: #ff7f0e; stroke-width: 1.5; stroke-linecap: square"/>
    </g>
    <g id="text_22">
     <!-- Node + surprisal -->
     <g transform="translate(552.56 58.156563)scale(0.1 -0.1)">
      <defs>
       <path id="DejaVuSans-2b" d="M 2944 4013 
L 2944 2272 
L 4684 2272 
L 4684 1741 
L 2944 1741 
L 2944 0 
L 2419 0 
L 2419 1741 
L 678 1741 
L 678 2272 
L 2419 2272 
L 2419 4013 
L 2944 4013 
z
" transform="scale(0.015625)"/>
      </defs>
      <use xlink:href="#DejaVuSans-4e"/>
      <use xlink:href="#DejaVuSans-6f" x="74.804688"/>
      <use xlink:href="#DejaVuSans-64" x="135.986328"/>
      <use xlink:href="#DejaVuSans-65" x="199.462891"/>
      <use xlink:href="#DejaVuSans-20" x="260.986328"/>
      <use xlink:href="#DejaVuSans-2b" x="292.773438"/>
      <use xlink:href="#DejaVuSans-20" x="376.5625"/>
      <use xlink:href="#DejaVuSans-73" x="408.349609"/>
      <use xlink:href="#DejaVuSans-75" x="460.449219"/>
      <use xlink:href="#DejaVuSans-72" x="523.828125"/>
      <use xlink:href="#DejaVuSans-70" x="564.941406"/>
      <use xlink:href="#DejaVuSans-72" x="628.417969"/>
      <use xlink:href="#DejaVuSans-69" x="669.53125"/>
      <use xlink:href="#DejaVuSans-73" x="697.314453"/>
      <use xlink:href="#DejaVuSans-61" x="749.414062"/>
      <use xlink:href="#DejaVuSans-6c" x="810.693359"/>
     </g>
    </g>
    <g id="line2d_34">
     <path d="M 524.56 69.334687 
L 534.56 69.334687 
L 544.56 69.334687 
" style="fill: none; stroke: #2ca02c; stroke-width: 1.5; stroke-linecap: square"/>
    </g>
    <g id="text_23">
     <!-- Node split -->
     <g transform="translate(552.56 72.834687)scale(0.1 -0.1)">
      <use xlink:href="#DejaVuSans-4e"/>
      <use xlink:href="#DejaVuSans-6f" x="74.804688"/>
      <use xlink:href="#DejaVuSans-64" x="135.986328"/>
      <use xlink:href="#DejaVuSans-65" x="199.462891"/>
      <use xlink:href="#DejaVuSans-20" x="260.986328"/>
      <use xlink:href="#DejaVuSans-73" x="292.773438"/>
      <use xlink:href="#DejaVuSans-70" x="344.873047"/>
      <use xlink:href="#DejaVuSans-6c" x="408.349609"/>
      <use xlink:href="#DejaVuSans-69" x="436.132812"/>
      <use xlink:href="#DejaVuSans-74" x="463.916016"/>
     </g>
    </g>
    <g id="line2d_35">
     <path d="M 524.56 84.012812 
L 534.56 84.012812 
L 544.56 84.012812 
" style="fill: none; stroke: #d62728; stroke-width: 1.5; stroke-linecap: square"/>
    </g>
    <g id="text_24">
     <!-- Node split + surprisal -->
     <g transform="translate(552.56 87.512812)scale(0.1 -0.1)">
      <use xlink:href="#DejaVuSans-4e"/>
      <use xlink:href="#DejaVuSans-6f" x="74.804688"/>
      <use xlink:href="#DejaVuSans-64" x="135.986328"/>
      <use xlink:href="#DejaVuSans-65" x="199.462891"/>
      <use xlink:href="#DejaVuSans-20" x="260.986328"/>
      <use xlink:href="#DejaVuSans-73" x="292.773438"/>
      <use xlink:href="#DejaVuSans-70" x="344.873047"/>
      <use xlink:href="#DejaVuSans-6c" x="408.349609"/>
      <use xlink:href="#DejaVuSans-69" x="436.132812"/>
      <use xlink:href="#DejaVuSans-74" x="463.916016"/>
      <use xlink:href="#DejaVuSans-20" x="503.125"/>
      <use xlink:href="#DejaVuSans-2b" x="534.912109"/>
      <use xlink:href="#DejaVuSans-20" x="618.701172"/>
      <use xlink:href="#DejaVuSans-73" x="650.488281"/>
      <use xlink:href="#DejaVuSans-75" x="702.587891"/>
      <use xlink:href="#DejaVuSans-72" x="765.966797"/>
      <use xlink:href="#DejaVuSans-70" x="807.080078"/>
      <use xlink:href="#DejaVuSans-72" x="870.556641"/>
      <use xlink:href="#DejaVuSans-69" x="911.669922"/>
      <use xlink:href="#DejaVuSans-73" x="939.453125"/>
      <use xlink:href="#DejaVuSans-61" x="991.552734"/>
      <use xlink:href="#DejaVuSans-6c" x="1052.832031"/>
     </g>
    </g>
    <g id="line2d_36">
     <path d="M 524.56 98.690937 
L 534.56 98.690937 
L 544.56 98.690937 
" style="fill: none; stroke: #9467bd; stroke-width: 1.5; stroke-linecap: square"/>
    </g>
    <g id="text_25">
     <!-- Node random split -->
     <g transform="translate(552.56 102.190937)scale(0.1 -0.1)">
      <use xlink:href="#DejaVuSans-4e"/>
      <use xlink:href="#DejaVuSans-6f" x="74.804688"/>
      <use xlink:href="#DejaVuSans-64" x="135.986328"/>
      <use xlink:href="#DejaVuSans-65" x="199.462891"/>
      <use xlink:href="#DejaVuSans-20" x="260.986328"/>
      <use xlink:href="#DejaVuSans-72" x="292.773438"/>
      <use xlink:href="#DejaVuSans-61" x="333.886719"/>
      <use xlink:href="#DejaVuSans-6e" x="395.166016"/>
      <use xlink:href="#DejaVuSans-64" x="458.544922"/>
      <use xlink:href="#DejaVuSans-6f" x="522.021484"/>
      <use xlink:href="#DejaVuSans-6d" x="583.203125"/>
      <use xlink:href="#DejaVuSans-20" x="680.615234"/>
      <use xlink:href="#DejaVuSans-73" x="712.402344"/>
      <use xlink:href="#DejaVuSans-70" x="764.501953"/>
      <use xlink:href="#DejaVuSans-6c" x="827.978516"/>
      <use xlink:href="#DejaVuSans-69" x="855.761719"/>
      <use xlink:href="#DejaVuSans-74" x="883.544922"/>
     </g>
    </g>
    <g id="line2d_37">
     <path d="M 524.56 113.369062 
L 534.56 113.369062 
L 544.56 113.369062 
" style="fill: none; stroke: #8c564b; stroke-width: 1.5; stroke-linecap: square"/>
    </g>
    <g id="text_26">
     <!-- Node random split + surprisal -->
     <g transform="translate(552.56 116.869062)scale(0.1 -0.1)">
      <use xlink:href="#DejaVuSans-4e"/>
      <use xlink:href="#DejaVuSans-6f" x="74.804688"/>
      <use xlink:href="#DejaVuSans-64" x="135.986328"/>
      <use xlink:href="#DejaVuSans-65" x="199.462891"/>
      <use xlink:href="#DejaVuSans-20" x="260.986328"/>
      <use xlink:href="#DejaVuSans-72" x="292.773438"/>
      <use xlink:href="#DejaVuSans-61" x="333.886719"/>
      <use xlink:href="#DejaVuSans-6e" x="395.166016"/>
      <use xlink:href="#DejaVuSans-64" x="458.544922"/>
      <use xlink:href="#DejaVuSans-6f" x="522.021484"/>
      <use xlink:href="#DejaVuSans-6d" x="583.203125"/>
      <use xlink:href="#DejaVuSans-20" x="680.615234"/>
      <use xlink:href="#DejaVuSans-73" x="712.402344"/>
      <use xlink:href="#DejaVuSans-70" x="764.501953"/>
      <use xlink:href="#DejaVuSans-6c" x="827.978516"/>
      <use xlink:href="#DejaVuSans-69" x="855.761719"/>
      <use xlink:href="#DejaVuSans-74" x="883.544922"/>
      <use xlink:href="#DejaVuSans-20" x="922.753906"/>
      <use xlink:href="#DejaVuSans-2b" x="954.541016"/>
      <use xlink:href="#DejaVuSans-20" x="1038.330078"/>
      <use xlink:href="#DejaVuSans-73" x="1070.117188"/>
      <use xlink:href="#DejaVuSans-75" x="1122.216797"/>
      <use xlink:href="#DejaVuSans-72" x="1185.595703"/>
      <use xlink:href="#DejaVuSans-70" x="1226.708984"/>
      <use xlink:href="#DejaVuSans-72" x="1290.185547"/>
      <use xlink:href="#DejaVuSans-69" x="1331.298828"/>
      <use xlink:href="#DejaVuSans-73" x="1359.082031"/>
      <use xlink:href="#DejaVuSans-61" x="1411.181641"/>
      <use xlink:href="#DejaVuSans-6c" x="1472.460938"/>
     </g>
    </g>
    <g id="line2d_38">
     <path d="M 524.56 128.047187 
L 534.56 128.047187 
L 544.56 128.047187 
" style="fill: none; stroke: #e377c2; stroke-width: 1.5; stroke-linecap: square"/>
    </g>
    <g id="text_27">
     <!-- Interaction -->
     <g transform="translate(552.56 131.547187)scale(0.1 -0.1)">
      <use xlink:href="#DejaVuSans-49"/>
      <use xlink:href="#DejaVuSans-6e" x="29.492188"/>
      <use xlink:href="#DejaVuSans-74" x="92.871094"/>
      <use xlink:href="#DejaVuSans-65" x="132.080078"/>
      <use xlink:href="#DejaVuSans-72" x="193.603516"/>
      <use xlink:href="#DejaVuSans-61" x="234.716797"/>
      <use xlink:href="#DejaVuSans-63" x="295.996094"/>
      <use xlink:href="#DejaVuSans-74" x="350.976562"/>
      <use xlink:href="#DejaVuSans-69" x="390.185547"/>
      <use xlink:href="#DejaVuSans-6f" x="417.96875"/>
      <use xlink:href="#DejaVuSans-6e" x="479.150391"/>
     </g>
    </g>
    <g id="line2d_39">
     <path d="M 524.56 142.725312 
L 534.56 142.725312 
L 544.56 142.725312 
" style="fill: none; stroke: #7f7f7f; stroke-width: 1.5; stroke-linecap: square"/>
    </g>
    <g id="text_28">
     <!-- Node + surprisal + interaction -->
     <g transform="translate(552.56 146.225312)scale(0.1 -0.1)">
      <use xlink:href="#DejaVuSans-4e"/>
      <use xlink:href="#DejaVuSans-6f" x="74.804688"/>
      <use xlink:href="#DejaVuSans-64" x="135.986328"/>
      <use xlink:href="#DejaVuSans-65" x="199.462891"/>
      <use xlink:href="#DejaVuSans-20" x="260.986328"/>
      <use xlink:href="#DejaVuSans-2b" x="292.773438"/>
      <use xlink:href="#DejaVuSans-20" x="376.5625"/>
      <use xlink:href="#DejaVuSans-73" x="408.349609"/>
      <use xlink:href="#DejaVuSans-75" x="460.449219"/>
      <use xlink:href="#DejaVuSans-72" x="523.828125"/>
      <use xlink:href="#DejaVuSans-70" x="564.941406"/>
      <use xlink:href="#DejaVuSans-72" x="628.417969"/>
      <use xlink:href="#DejaVuSans-69" x="669.53125"/>
      <use xlink:href="#DejaVuSans-73" x="697.314453"/>
      <use xlink:href="#DejaVuSans-61" x="749.414062"/>
      <use xlink:href="#DejaVuSans-6c" x="810.693359"/>
      <use xlink:href="#DejaVuSans-20" x="838.476562"/>
      <use xlink:href="#DejaVuSans-2b" x="870.263672"/>
      <use xlink:href="#DejaVuSans-20" x="954.052734"/>
      <use xlink:href="#DejaVuSans-69" x="985.839844"/>
      <use xlink:href="#DejaVuSans-6e" x="1013.623047"/>
      <use xlink:href="#DejaVuSans-74" x="1077.001953"/>
      <use xlink:href="#DejaVuSans-65" x="1116.210938"/>
      <use xlink:href="#DejaVuSans-72" x="1177.734375"/>
      <use xlink:href="#DejaVuSans-61" x="1218.847656"/>
      <use xlink:href="#DejaVuSans-63" x="1280.126953"/>
      <use xlink:href="#DejaVuSans-74" x="1335.107422"/>
      <use xlink:href="#DejaVuSans-69" x="1374.316406"/>
      <use xlink:href="#DejaVuSans-6f" x="1402.099609"/>
      <use xlink:href="#DejaVuSans-6e" x="1463.28125"/>
     </g>
    </g>
   </g>
  </g>
 </g>
 <defs>
  <clipPath id="p51792872f1">
   <rect x="47.72" y="26.88" width="217.495" height="147.16"/>
  </clipPath>
  <clipPath id="p1de1be693f">
   <rect x="298.065" y="26.88" width="217.495" height="147.16"/>
  </clipPath>
 </defs>
</svg>
