<?xml version="1.0" encoding="utf-8" standalone="no"?>
<!DOCTYPE svg PUBLIC "-//W3C//DTD SVG 1.1//EN"
  "http://www.w3.org/Graphics/SVG/1.1/DTD/svg11.dtd">
<svg xmlns:xlink="http://www.w3.org/1999/xlink" width="720pt" height="216pt" viewBox="0 0 720 216" xmlns="http://www.w3.org/2000/svg" version="1.1">
 <metadata>
  <rdf:RDF xmlns:dc="http://purl.org/dc/elements/1.1/" xmlns:cc="http://creativecommons.org/ns#" xmlns:rdf="http://www.w3.org/1999/02/22-rdf-syntax-ns#">
   <cc:Work>
    <dc:type rdf:resource="http://purl.org/dc/dcmitype/StillImage"/>
    <dc:date>2024-01-15T19:26:06.338978</dc:date>
    <dc:format>image/svg+xml</dc:format>
    <dc:creator>
     <cc:Agent>
      <dc:title>Matplotlib v3.5.1, https://matplotlib.org/</dc:title>
     </cc:Agent>
    </dc:creator>
   </cc:Work>
  </rdf:RDF>
 </metadata>
 <defs>
  <style type="text/css">*{stroke-linejoin: round; stroke-linecap: butt}</style>
 </defs>
 <g id="figure_1">
  <g id="patch_1">
   <path d="M 0 216 
L 720 216 
L 720 0 
L 0 0 
z
" style="fill: #ffffff"/>
  </g>
  <g id="axes_1">
   <g id="patch_2">
    <path d="M 47.72 174.04 
L 265.215 174.04 
L 265.215 26.88 
L 47.72 26.88 
z
" style="fill: #ffffff"/>
   </g>
   <g id="PolyCollection_1">
    <path d="M 47.72 33.569091 
L 47.72 33.569091 
L 59.167105 35.843362 
L 70.614211 42.353037 
L 82.061316 50.590094 
L 93.508421 60.711638 
L 104.955526 71.594403 
L 116.402632 80.895376 
L 127.849737 90.586248 
L 139.296842 99.880638 
L 150.743947 107.628254 
L 162.191053 114.890079 
L 173.638158 121.687891 
L 185.085263 128.189909 
L 196.532368 134.190653 
L 207.979474 139.691905 
L 219.426579 144.438426 
L 230.873684 148.928073 
L 242.320789 152.589035 
L 253.767895 156.11532 
L 265.215 159.265538 
L 265.215 151.77353 
L 265.215 151.77353 
L 253.767895 148.446764 
L 242.320789 144.578374 
L 230.873684 141.116288 
L 219.426579 136.639286 
L 207.979474 131.81297 
L 196.532368 125.734163 
L 185.085263 119.270229 
L 173.638158 112.590478 
L 162.191053 105.487421 
L 150.743947 96.625079 
L 139.296842 88.007115 
L 127.849737 79.203368 
L 116.402632 70.050366 
L 104.955526 61.565058 
L 93.508421 53.635278 
L 82.061316 45.929582 
L 70.614211 39.885892 
L 59.167105 35.108419 
L 47.72 33.569091 
z
" clip-path="url(#pdc86626816)" style="fill: #1f77b4; fill-opacity: 0.4"/>
   </g>
   <g id="PolyCollection_2">
    <path d="M 47.72 33.569214 
L 47.72 33.56927 
L 59.167105 34.969726 
L 70.614211 38.345767 
L 82.061316 43.239422 
L 93.508421 49.982708 
L 104.955526 57.877847 
L 116.402632 66.252781 
L 127.849737 75.541712 
L 139.296842 84.560641 
L 150.743947 93.245123 
L 162.191053 101.131166 
L 173.638158 108.604801 
L 185.085263 115.881268 
L 196.532368 122.620176 
L 207.979474 128.933903 
L 219.426579 134.523397 
L 230.873684 139.703967 
L 242.320789 144.16435 
L 253.767895 147.84601 
L 265.215 151.673961 
L 265.215 140.807402 
L 265.215 140.807402 
L 253.767895 136.791702 
L 242.320789 132.535797 
L 230.873684 128.344634 
L 219.426579 123.372887 
L 207.979474 117.835425 
L 196.532368 111.299923 
L 185.085263 104.77127 
L 173.638158 98.075034 
L 162.191053 91.24749 
L 150.743947 83.045038 
L 139.296842 75.643321 
L 127.849737 67.585034 
L 116.402632 59.760985 
L 104.955526 52.801303 
L 93.508421 46.203168 
L 82.061316 40.824721 
L 70.614211 37.280293 
L 59.167105 34.592696 
L 47.72 33.569214 
z
" clip-path="url(#pdc86626816)" style="fill: #ff7f0e; fill-opacity: 0.4"/>
   </g>
   <g id="PolyCollection_3">
    <path d="M 47.72 33.569091 
L 47.72 33.569091 
L 59.167105 35.361607 
L 70.614211 38.530324 
L 82.061316 42.382956 
L 93.508421 47.08276 
L 104.955526 52.235329 
L 116.402632 56.880026 
L 127.849737 62.027089 
L 139.296842 66.710998 
L 150.743947 70.724021 
L 162.191053 75.508376 
L 173.638158 79.571656 
L 185.085263 84.026747 
L 196.532368 88.185507 
L 207.979474 92.900901 
L 219.426579 97.272438 
L 230.873684 101.385516 
L 242.320789 105.747401 
L 253.767895 109.039743 
L 265.215 112.891815 
L 265.215 105.49321 
L 265.215 105.49321 
L 253.767895 101.595376 
L 242.320789 98.06957 
L 230.873684 93.565549 
L 219.426579 89.121833 
L 207.979474 84.688262 
L 196.532368 80.648169 
L 185.085263 75.516759 
L 173.638158 71.130328 
L 162.191053 67.953137 
L 150.743947 63.143539 
L 139.296842 59.142966 
L 127.849737 54.619443 
L 116.402632 50.295843 
L 104.955526 46.506554 
L 93.508421 42.687181 
L 82.061316 39.517944 
L 70.614211 37.159561 
L 59.167105 34.811139 
L 47.72 33.569091 
z
" clip-path="url(#pdc86626816)" style="fill: #2ca02c; fill-opacity: 0.4"/>
   </g>
   <g id="PolyCollection_4">
    <path d="M 47.72 33.569783 
L 47.72 33.570082 
L 59.167105 34.916315 
L 70.614211 37.218931 
L 82.061316 40.091889 
L 93.508421 44.031466 
L 104.955526 48.777945 
L 116.402632 53.386102 
L 127.849737 58.723797 
L 139.296842 63.706821 
L 150.743947 68.073446 
L 162.191053 73.181593 
L 173.638158 77.479841 
L 185.085263 82.22649 
L 196.532368 86.363398 
L 207.979474 91.08958 
L 219.426579 95.312994 
L 230.873684 99.24606 
L 242.320789 103.361105 
L 253.767895 106.443743 
L 265.215 109.973558 
L 265.215 103.661674 
L 265.215 103.661674 
L 253.767895 100.109741 
L 242.320789 96.795704 
L 230.873684 92.359761 
L 219.426579 88.078011 
L 207.979474 83.673292 
L 196.532368 79.72013 
L 185.085263 74.506754 
L 173.638158 70.027405 
L 162.191053 66.82448 
L 150.743947 61.810654 
L 139.296842 57.647309 
L 127.849737 52.971911 
L 116.402632 48.535865 
L 104.955526 44.676296 
L 93.508421 41.086112 
L 82.061316 38.252064 
L 70.614211 36.309927 
L 59.167105 34.557466 
L 47.72 33.569783 
z
" clip-path="url(#pdc86626816)" style="fill: #d62728; fill-opacity: 0.4"/>
   </g>
   <g id="PolyCollection_5">
    <path d="M 47.72 33.569091 
L 47.72 33.569091 
L 59.167105 35.846657 
L 70.614211 42.437357 
L 82.061316 50.630313 
L 93.508421 60.747764 
L 104.955526 71.873707 
L 116.402632 81.030486 
L 127.849737 90.652022 
L 139.296842 100.310809 
L 150.743947 107.661547 
L 162.191053 115.374395 
L 173.638158 121.652166 
L 185.085263 128.610802 
L 196.532368 134.808906 
L 207.979474 140.205566 
L 219.426579 144.867318 
L 230.873684 149.963962 
L 242.320789 153.974439 
L 253.767895 156.789665 
L 265.215 161.647084 
L 265.215 152.988499 
L 265.215 152.988499 
L 253.767895 148.437418 
L 242.320789 144.796636 
L 230.873684 140.996193 
L 219.426579 137.774841 
L 207.979474 132.19145 
L 196.532368 126.35752 
L 185.085263 118.560716 
L 173.638158 112.842713 
L 162.191053 105.677222 
L 150.743947 96.640782 
L 139.296842 88.251928 
L 127.849737 79.265553 
L 116.402632 69.997638 
L 104.955526 61.619467 
L 93.508421 53.749677 
L 82.061316 45.998225 
L 70.614211 39.978811 
L 59.167105 35.113599 
L 47.72 33.569091 
z
" clip-path="url(#pdc86626816)" style="fill: #9467bd; fill-opacity: 0.4"/>
   </g>
   <g id="PolyCollection_6">
    <path d="M 47.72 33.569586 
L 47.72 33.569805 
L 59.167105 34.97231 
L 70.614211 38.367545 
L 82.061316 43.269499 
L 93.508421 50.008417 
L 104.955526 57.943778 
L 116.402632 66.314799 
L 127.849737 75.557845 
L 139.296842 84.785781 
L 150.743947 93.227716 
L 162.191053 101.104656 
L 173.638158 108.658009 
L 185.085263 116.04353 
L 196.532368 123.122266 
L 207.979474 129.312789 
L 219.426579 134.755351 
L 230.873684 140.158181 
L 242.320789 144.893573 
L 253.767895 148.226789 
L 265.215 153.371813 
L 265.215 141.974635 
L 265.215 141.974635 
L 253.767895 136.974193 
L 242.320789 132.669473 
L 230.873684 128.336172 
L 219.426579 124.324845 
L 207.979474 118.355632 
L 196.532368 111.520379 
L 185.085263 104.38188 
L 173.638158 98.15124 
L 162.191053 91.445789 
L 150.743947 83.044009 
L 139.296842 75.801051 
L 127.849737 67.633556 
L 116.402632 59.802175 
L 104.955526 52.798464 
L 93.508421 46.264857 
L 82.061316 40.838656 
L 70.614211 37.310384 
L 59.167105 34.598566 
L 47.72 33.569586 
z
" clip-path="url(#pdc86626816)" style="fill: #8c564b; fill-opacity: 0.4"/>
   </g>
   <g id="PolyCollection_7">
    <path d="M 47.72 43.996534 
L 47.72 47.29435 
L 59.167105 50.415075 
L 70.614211 58.411172 
L 82.061316 68.835977 
L 93.508421 81.080071 
L 104.955526 93.253019 
L 116.402632 103.407598 
L 127.849737 112.919716 
L 139.296842 121.597893 
L 150.743947 128.440892 
L 162.191053 134.344516 
L 173.638158 139.299315 
L 185.085263 144.33093 
L 196.532368 148.472337 
L 207.979474 152.99238 
L 219.426579 156.306772 
L 230.873684 159.374009 
L 242.320789 162.293808 
L 253.767895 164.987626 
L 265.215 167.350909 
L 265.215 159.887344 
L 265.215 159.887344 
L 253.767895 157.245647 
L 242.320789 153.895412 
L 230.873684 151.148931 
L 219.426579 147.398421 
L 207.979474 142.585319 
L 196.532368 137.63765 
L 185.085263 131.290093 
L 173.638158 124.572693 
L 162.191053 117.763421 
L 150.743947 109.623877 
L 139.296842 101.590925 
L 127.849737 93.477184 
L 116.402632 84.462273 
L 104.955526 75.920021 
L 93.508421 67.27786 
L 82.061316 58.68551 
L 70.614211 51.530694 
L 59.167105 46.064486 
L 47.72 43.996534 
z
" clip-path="url(#pdc86626816)" style="fill: #e377c2; fill-opacity: 0.4"/>
   </g>
   <g id="PolyCollection_8">
    <path d="M 47.72 33.569302 
L 47.72 33.56947 
L 59.167105 34.195583 
L 70.614211 35.217495 
L 82.061316 37.531991 
L 93.508421 42.371137 
L 104.955526 49.342958 
L 116.402632 56.785014 
L 127.849737 65.357918 
L 139.296842 74.130937 
L 150.743947 82.194656 
L 162.191053 89.986954 
L 173.638158 97.437832 
L 185.085263 104.265714 
L 196.532368 110.986825 
L 207.979474 117.596055 
L 219.426579 123.693738 
L 230.873684 129.402114 
L 242.320789 134.707273 
L 253.767895 138.935178 
L 265.215 143.472752 
L 265.215 133.499116 
L 265.215 133.499116 
L 253.767895 129.06997 
L 242.320789 124.294221 
L 230.873684 119.072817 
L 219.426579 113.166105 
L 207.979474 106.937296 
L 196.532368 99.991031 
L 185.085263 92.610324 
L 173.638158 85.348533 
L 162.191053 78.262486 
L 150.743947 70.442594 
L 139.296842 63.150748 
L 127.849737 55.593251 
L 116.402632 48.767671 
L 104.955526 42.735502 
L 93.508421 38.312613 
L 82.061316 35.798947 
L 70.614211 34.604278 
L 59.167105 34.133019 
L 47.72 33.569302 
z
" clip-path="url(#pdc86626816)" style="fill: #7f7f7f; fill-opacity: 0.4"/>
   </g>
   <g id="matplotlib.axis_1">
    <g id="xtick_1">
     <g id="line2d_1">
      <defs>
       <path id="me41a647ea9" d="M 0 0 
L 0 3.5 
" style="stroke: #000000; stroke-width: 0.8"/>
      </defs>
      <g>
       <use xlink:href="#me41a647ea9" x="47.72" y="174.04" style="stroke: #000000; stroke-width: 0.8"/>
      </g>
     </g>
     <g id="text_1">
      <!-- 0.0 -->
      <g transform="translate(39.768438 188.638438)scale(0.1 -0.1)">
       <defs>
        <path id="DejaVuSans-30" d="M 2034 4250 
Q 1547 4250 1301 3770 
Q 1056 3291 1056 2328 
Q 1056 1369 1301 889 
Q 1547 409 2034 409 
Q 2525 409 2770 889 
Q 3016 1369 3016 2328 
Q 3016 3291 2770 3770 
Q 2525 4250 2034 4250 
z
M 2034 4750 
Q 2819 4750 3233 4129 
Q 3647 3509 3647 2328 
Q 3647 1150 3233 529 
Q 2819 -91 2034 -91 
Q 1250 -91 836 529 
Q 422 1150 422 2328 
Q 422 3509 836 4129 
Q 1250 4750 2034 4750 
z
" transform="scale(0.015625)"/>
        <path id="DejaVuSans-2e" d="M 684 794 
L 1344 794 
L 1344 0 
L 684 0 
L 684 794 
z
" transform="scale(0.015625)"/>
       </defs>
       <use xlink:href="#DejaVuSans-30"/>
       <use xlink:href="#DejaVuSans-2e" x="63.623047"/>
       <use xlink:href="#DejaVuSans-30" x="95.410156"/>
      </g>
     </g>
    </g>
    <g id="xtick_2">
     <g id="line2d_2">
      <g>
       <use xlink:href="#me41a647ea9" x="102.09375" y="174.04" style="stroke: #000000; stroke-width: 0.8"/>
      </g>
     </g>
     <g id="text_2">
      <!-- 0.5 -->
      <g transform="translate(94.142188 188.638438)scale(0.1 -0.1)">
       <defs>
        <path id="DejaVuSans-35" d="M 691 4666 
L 3169 4666 
L 3169 4134 
L 1269 4134 
L 1269 2991 
Q 1406 3038 1543 3061 
Q 1681 3084 1819 3084 
Q 2600 3084 3056 2656 
Q 3513 2228 3513 1497 
Q 3513 744 3044 326 
Q 2575 -91 1722 -91 
Q 1428 -91 1123 -41 
Q 819 9 494 109 
L 494 744 
Q 775 591 1075 516 
Q 1375 441 1709 441 
Q 2250 441 2565 725 
Q 2881 1009 2881 1497 
Q 2881 1984 2565 2268 
Q 2250 2553 1709 2553 
Q 1456 2553 1204 2497 
Q 953 2441 691 2322 
L 691 4666 
z
" transform="scale(0.015625)"/>
       </defs>
       <use xlink:href="#DejaVuSans-30"/>
       <use xlink:href="#DejaVuSans-2e" x="63.623047"/>
       <use xlink:href="#DejaVuSans-35" x="95.410156"/>
      </g>
     </g>
    </g>
    <g id="xtick_3">
     <g id="line2d_3">
      <g>
       <use xlink:href="#me41a647ea9" x="156.4675" y="174.04" style="stroke: #000000; stroke-width: 0.8"/>
      </g>
     </g>
     <g id="text_3">
      <!-- 1.0 -->
      <g transform="translate(148.515938 188.638438)scale(0.1 -0.1)">
       <defs>
        <path id="DejaVuSans-31" d="M 794 531 
L 1825 531 
L 1825 4091 
L 703 3866 
L 703 4441 
L 1819 4666 
L 2450 4666 
L 2450 531 
L 3481 531 
L 3481 0 
L 794 0 
L 794 531 
z
" transform="scale(0.015625)"/>
       </defs>
       <use xlink:href="#DejaVuSans-31"/>
       <use xlink:href="#DejaVuSans-2e" x="63.623047"/>
       <use xlink:href="#DejaVuSans-30" x="95.410156"/>
      </g>
     </g>
    </g>
    <g id="xtick_4">
     <g id="line2d_4">
      <g>
       <use xlink:href="#me41a647ea9" x="210.84125" y="174.04" style="stroke: #000000; stroke-width: 0.8"/>
      </g>
     </g>
     <g id="text_4">
      <!-- 1.5 -->
      <g transform="translate(202.889687 188.638438)scale(0.1 -0.1)">
       <use xlink:href="#DejaVuSans-31"/>
       <use xlink:href="#DejaVuSans-2e" x="63.623047"/>
       <use xlink:href="#DejaVuSans-35" x="95.410156"/>
      </g>
     </g>
    </g>
    <g id="xtick_5">
     <g id="line2d_5">
      <g>
       <use xlink:href="#me41a647ea9" x="265.215" y="174.04" style="stroke: #000000; stroke-width: 0.8"/>
      </g>
     </g>
     <g id="text_5">
      <!-- 2.0 -->
      <g transform="translate(257.263437 188.638438)scale(0.1 -0.1)">
       <defs>
        <path id="DejaVuSans-32" d="M 1228 531 
L 3431 531 
L 3431 0 
L 469 0 
L 469 531 
Q 828 903 1448 1529 
Q 2069 2156 2228 2338 
Q 2531 2678 2651 2914 
Q 2772 3150 2772 3378 
Q 2772 3750 2511 3984 
Q 2250 4219 1831 4219 
Q 1534 4219 1204 4116 
Q 875 4013 500 3803 
L 500 4441 
Q 881 4594 1212 4672 
Q 1544 4750 1819 4750 
Q 2544 4750 2975 4387 
Q 3406 4025 3406 3419 
Q 3406 3131 3298 2873 
Q 3191 2616 2906 2266 
Q 2828 2175 2409 1742 
Q 1991 1309 1228 531 
z
" transform="scale(0.015625)"/>
       </defs>
       <use xlink:href="#DejaVuSans-32"/>
       <use xlink:href="#DejaVuSans-2e" x="63.623047"/>
       <use xlink:href="#DejaVuSans-30" x="95.410156"/>
      </g>
     </g>
    </g>
    <g id="text_6">
     <!-- Influence of surprisal (multiplication) -->
     <g transform="translate(64.320625 202.316563)scale(0.1 -0.1)">
      <defs>
       <path id="DejaVuSans-49" d="M 628 4666 
L 1259 4666 
L 1259 0 
L 628 0 
L 628 4666 
z
" transform="scale(0.015625)"/>
       <path id="DejaVuSans-6e" d="M 3513 2113 
L 3513 0 
L 2938 0 
L 2938 2094 
Q 2938 2591 2744 2837 
Q 2550 3084 2163 3084 
Q 1697 3084 1428 2787 
Q 1159 2491 1159 1978 
L 1159 0 
L 581 0 
L 581 3500 
L 1159 3500 
L 1159 2956 
Q 1366 3272 1645 3428 
Q 1925 3584 2291 3584 
Q 2894 3584 3203 3211 
Q 3513 2838 3513 2113 
z
" transform="scale(0.015625)"/>
       <path id="DejaVuSans-66" d="M 2375 4863 
L 2375 4384 
L 1825 4384 
Q 1516 4384 1395 4259 
Q 1275 4134 1275 3809 
L 1275 3500 
L 2222 3500 
L 2222 3053 
L 1275 3053 
L 1275 0 
L 697 0 
L 697 3053 
L 147 3053 
L 147 3500 
L 697 3500 
L 697 3744 
Q 697 4328 969 4595 
Q 1241 4863 1831 4863 
L 2375 4863 
z
" transform="scale(0.015625)"/>
       <path id="DejaVuSans-6c" d="M 603 4863 
L 1178 4863 
L 1178 0 
L 603 0 
L 603 4863 
z
" transform="scale(0.015625)"/>
       <path id="DejaVuSans-75" d="M 544 1381 
L 544 3500 
L 1119 3500 
L 1119 1403 
Q 1119 906 1312 657 
Q 1506 409 1894 409 
Q 2359 409 2629 706 
Q 2900 1003 2900 1516 
L 2900 3500 
L 3475 3500 
L 3475 0 
L 2900 0 
L 2900 538 
Q 2691 219 2414 64 
Q 2138 -91 1772 -91 
Q 1169 -91 856 284 
Q 544 659 544 1381 
z
M 1991 3584 
L 1991 3584 
z
" transform="scale(0.015625)"/>
       <path id="DejaVuSans-65" d="M 3597 1894 
L 3597 1613 
L 953 1613 
Q 991 1019 1311 708 
Q 1631 397 2203 397 
Q 2534 397 2845 478 
Q 3156 559 3463 722 
L 3463 178 
Q 3153 47 2828 -22 
Q 2503 -91 2169 -91 
Q 1331 -91 842 396 
Q 353 884 353 1716 
Q 353 2575 817 3079 
Q 1281 3584 2069 3584 
Q 2775 3584 3186 3129 
Q 3597 2675 3597 1894 
z
M 3022 2063 
Q 3016 2534 2758 2815 
Q 2500 3097 2075 3097 
Q 1594 3097 1305 2825 
Q 1016 2553 972 2059 
L 3022 2063 
z
" transform="scale(0.015625)"/>
       <path id="DejaVuSans-63" d="M 3122 3366 
L 3122 2828 
Q 2878 2963 2633 3030 
Q 2388 3097 2138 3097 
Q 1578 3097 1268 2742 
Q 959 2388 959 1747 
Q 959 1106 1268 751 
Q 1578 397 2138 397 
Q 2388 397 2633 464 
Q 2878 531 3122 666 
L 3122 134 
Q 2881 22 2623 -34 
Q 2366 -91 2075 -91 
Q 1284 -91 818 406 
Q 353 903 353 1747 
Q 353 2603 823 3093 
Q 1294 3584 2113 3584 
Q 2378 3584 2631 3529 
Q 2884 3475 3122 3366 
z
" transform="scale(0.015625)"/>
       <path id="DejaVuSans-20" transform="scale(0.015625)"/>
       <path id="DejaVuSans-6f" d="M 1959 3097 
Q 1497 3097 1228 2736 
Q 959 2375 959 1747 
Q 959 1119 1226 758 
Q 1494 397 1959 397 
Q 2419 397 2687 759 
Q 2956 1122 2956 1747 
Q 2956 2369 2687 2733 
Q 2419 3097 1959 3097 
z
M 1959 3584 
Q 2709 3584 3137 3096 
Q 3566 2609 3566 1747 
Q 3566 888 3137 398 
Q 2709 -91 1959 -91 
Q 1206 -91 779 398 
Q 353 888 353 1747 
Q 353 2609 779 3096 
Q 1206 3584 1959 3584 
z
" transform="scale(0.015625)"/>
       <path id="DejaVuSans-73" d="M 2834 3397 
L 2834 2853 
Q 2591 2978 2328 3040 
Q 2066 3103 1784 3103 
Q 1356 3103 1142 2972 
Q 928 2841 928 2578 
Q 928 2378 1081 2264 
Q 1234 2150 1697 2047 
L 1894 2003 
Q 2506 1872 2764 1633 
Q 3022 1394 3022 966 
Q 3022 478 2636 193 
Q 2250 -91 1575 -91 
Q 1294 -91 989 -36 
Q 684 19 347 128 
L 347 722 
Q 666 556 975 473 
Q 1284 391 1588 391 
Q 1994 391 2212 530 
Q 2431 669 2431 922 
Q 2431 1156 2273 1281 
Q 2116 1406 1581 1522 
L 1381 1569 
Q 847 1681 609 1914 
Q 372 2147 372 2553 
Q 372 3047 722 3315 
Q 1072 3584 1716 3584 
Q 2034 3584 2315 3537 
Q 2597 3491 2834 3397 
z
" transform="scale(0.015625)"/>
       <path id="DejaVuSans-72" d="M 2631 2963 
Q 2534 3019 2420 3045 
Q 2306 3072 2169 3072 
Q 1681 3072 1420 2755 
Q 1159 2438 1159 1844 
L 1159 0 
L 581 0 
L 581 3500 
L 1159 3500 
L 1159 2956 
Q 1341 3275 1631 3429 
Q 1922 3584 2338 3584 
Q 2397 3584 2469 3576 
Q 2541 3569 2628 3553 
L 2631 2963 
z
" transform="scale(0.015625)"/>
       <path id="DejaVuSans-70" d="M 1159 525 
L 1159 -1331 
L 581 -1331 
L 581 3500 
L 1159 3500 
L 1159 2969 
Q 1341 3281 1617 3432 
Q 1894 3584 2278 3584 
Q 2916 3584 3314 3078 
Q 3713 2572 3713 1747 
Q 3713 922 3314 415 
Q 2916 -91 2278 -91 
Q 1894 -91 1617 61 
Q 1341 213 1159 525 
z
M 3116 1747 
Q 3116 2381 2855 2742 
Q 2594 3103 2138 3103 
Q 1681 3103 1420 2742 
Q 1159 2381 1159 1747 
Q 1159 1113 1420 752 
Q 1681 391 2138 391 
Q 2594 391 2855 752 
Q 3116 1113 3116 1747 
z
" transform="scale(0.015625)"/>
       <path id="DejaVuSans-69" d="M 603 3500 
L 1178 3500 
L 1178 0 
L 603 0 
L 603 3500 
z
M 603 4863 
L 1178 4863 
L 1178 4134 
L 603 4134 
L 603 4863 
z
" transform="scale(0.015625)"/>
       <path id="DejaVuSans-61" d="M 2194 1759 
Q 1497 1759 1228 1600 
Q 959 1441 959 1056 
Q 959 750 1161 570 
Q 1363 391 1709 391 
Q 2188 391 2477 730 
Q 2766 1069 2766 1631 
L 2766 1759 
L 2194 1759 
z
M 3341 1997 
L 3341 0 
L 2766 0 
L 2766 531 
Q 2569 213 2275 61 
Q 1981 -91 1556 -91 
Q 1019 -91 701 211 
Q 384 513 384 1019 
Q 384 1609 779 1909 
Q 1175 2209 1959 2209 
L 2766 2209 
L 2766 2266 
Q 2766 2663 2505 2880 
Q 2244 3097 1772 3097 
Q 1472 3097 1187 3025 
Q 903 2953 641 2809 
L 641 3341 
Q 956 3463 1253 3523 
Q 1550 3584 1831 3584 
Q 2591 3584 2966 3190 
Q 3341 2797 3341 1997 
z
" transform="scale(0.015625)"/>
       <path id="DejaVuSans-28" d="M 1984 4856 
Q 1566 4138 1362 3434 
Q 1159 2731 1159 2009 
Q 1159 1288 1364 580 
Q 1569 -128 1984 -844 
L 1484 -844 
Q 1016 -109 783 600 
Q 550 1309 550 2009 
Q 550 2706 781 3412 
Q 1013 4119 1484 4856 
L 1984 4856 
z
" transform="scale(0.015625)"/>
       <path id="DejaVuSans-6d" d="M 3328 2828 
Q 3544 3216 3844 3400 
Q 4144 3584 4550 3584 
Q 5097 3584 5394 3201 
Q 5691 2819 5691 2113 
L 5691 0 
L 5113 0 
L 5113 2094 
Q 5113 2597 4934 2840 
Q 4756 3084 4391 3084 
Q 3944 3084 3684 2787 
Q 3425 2491 3425 1978 
L 3425 0 
L 2847 0 
L 2847 2094 
Q 2847 2600 2669 2842 
Q 2491 3084 2119 3084 
Q 1678 3084 1418 2786 
Q 1159 2488 1159 1978 
L 1159 0 
L 581 0 
L 581 3500 
L 1159 3500 
L 1159 2956 
Q 1356 3278 1631 3431 
Q 1906 3584 2284 3584 
Q 2666 3584 2933 3390 
Q 3200 3197 3328 2828 
z
" transform="scale(0.015625)"/>
       <path id="DejaVuSans-74" d="M 1172 4494 
L 1172 3500 
L 2356 3500 
L 2356 3053 
L 1172 3053 
L 1172 1153 
Q 1172 725 1289 603 
Q 1406 481 1766 481 
L 2356 481 
L 2356 0 
L 1766 0 
Q 1100 0 847 248 
Q 594 497 594 1153 
L 594 3053 
L 172 3053 
L 172 3500 
L 594 3500 
L 594 4494 
L 1172 4494 
z
" transform="scale(0.015625)"/>
       <path id="DejaVuSans-29" d="M 513 4856 
L 1013 4856 
Q 1481 4119 1714 3412 
Q 1947 2706 1947 2009 
Q 1947 1309 1714 600 
Q 1481 -109 1013 -844 
L 513 -844 
Q 928 -128 1133 580 
Q 1338 1288 1338 2009 
Q 1338 2731 1133 3434 
Q 928 4138 513 4856 
z
" transform="scale(0.015625)"/>
      </defs>
      <use xlink:href="#DejaVuSans-49"/>
      <use xlink:href="#DejaVuSans-6e" x="29.492188"/>
      <use xlink:href="#DejaVuSans-66" x="92.871094"/>
      <use xlink:href="#DejaVuSans-6c" x="128.076172"/>
      <use xlink:href="#DejaVuSans-75" x="155.859375"/>
      <use xlink:href="#DejaVuSans-65" x="219.238281"/>
      <use xlink:href="#DejaVuSans-6e" x="280.761719"/>
      <use xlink:href="#DejaVuSans-63" x="344.140625"/>
      <use xlink:href="#DejaVuSans-65" x="399.121094"/>
      <use xlink:href="#DejaVuSans-20" x="460.644531"/>
      <use xlink:href="#DejaVuSans-6f" x="492.431641"/>
      <use xlink:href="#DejaVuSans-66" x="553.613281"/>
      <use xlink:href="#DejaVuSans-20" x="588.818359"/>
      <use xlink:href="#DejaVuSans-73" x="620.605469"/>
      <use xlink:href="#DejaVuSans-75" x="672.705078"/>
      <use xlink:href="#DejaVuSans-72" x="736.083984"/>
      <use xlink:href="#DejaVuSans-70" x="777.197266"/>
      <use xlink:href="#DejaVuSans-72" x="840.673828"/>
      <use xlink:href="#DejaVuSans-69" x="881.787109"/>
      <use xlink:href="#DejaVuSans-73" x="909.570312"/>
      <use xlink:href="#DejaVuSans-61" x="961.669922"/>
      <use xlink:href="#DejaVuSans-6c" x="1022.949219"/>
      <use xlink:href="#DejaVuSans-20" x="1050.732422"/>
      <use xlink:href="#DejaVuSans-28" x="1082.519531"/>
      <use xlink:href="#DejaVuSans-6d" x="1121.533203"/>
      <use xlink:href="#DejaVuSans-75" x="1218.945312"/>
      <use xlink:href="#DejaVuSans-6c" x="1282.324219"/>
      <use xlink:href="#DejaVuSans-74" x="1310.107422"/>
      <use xlink:href="#DejaVuSans-69" x="1349.316406"/>
      <use xlink:href="#DejaVuSans-70" x="1377.099609"/>
      <use xlink:href="#DejaVuSans-6c" x="1440.576172"/>
      <use xlink:href="#DejaVuSans-69" x="1468.359375"/>
      <use xlink:href="#DejaVuSans-63" x="1496.142578"/>
      <use xlink:href="#DejaVuSans-61" x="1551.123047"/>
      <use xlink:href="#DejaVuSans-74" x="1612.402344"/>
      <use xlink:href="#DejaVuSans-69" x="1651.611328"/>
      <use xlink:href="#DejaVuSans-6f" x="1679.394531"/>
      <use xlink:href="#DejaVuSans-6e" x="1740.576172"/>
      <use xlink:href="#DejaVuSans-29" x="1803.955078"/>
     </g>
    </g>
   </g>
   <g id="matplotlib.axis_2">
    <g id="ytick_1">
     <g id="line2d_6">
      <defs>
       <path id="mf26f57a4f8" d="M 0 0 
L -3.5 0 
" style="stroke: #000000; stroke-width: 0.8"/>
      </defs>
      <g>
       <use xlink:href="#mf26f57a4f8" x="47.72" y="155.900845" style="stroke: #000000; stroke-width: 0.8"/>
      </g>
     </g>
     <g id="text_7">
      <!-- 0.2 -->
      <g transform="translate(24.816875 159.700064)scale(0.1 -0.1)">
       <use xlink:href="#DejaVuSans-30"/>
       <use xlink:href="#DejaVuSans-2e" x="63.623047"/>
       <use xlink:href="#DejaVuSans-32" x="95.410156"/>
      </g>
     </g>
    </g>
    <g id="ytick_2">
     <g id="line2d_7">
      <g>
       <use xlink:href="#mf26f57a4f8" x="47.72" y="125.317906" style="stroke: #000000; stroke-width: 0.8"/>
      </g>
     </g>
     <g id="text_8">
      <!-- 0.4 -->
      <g transform="translate(24.816875 129.117125)scale(0.1 -0.1)">
       <defs>
        <path id="DejaVuSans-34" d="M 2419 4116 
L 825 1625 
L 2419 1625 
L 2419 4116 
z
M 2253 4666 
L 3047 4666 
L 3047 1625 
L 3713 1625 
L 3713 1100 
L 3047 1100 
L 3047 0 
L 2419 0 
L 2419 1100 
L 313 1100 
L 313 1709 
L 2253 4666 
z
" transform="scale(0.015625)"/>
       </defs>
       <use xlink:href="#DejaVuSans-30"/>
       <use xlink:href="#DejaVuSans-2e" x="63.623047"/>
       <use xlink:href="#DejaVuSans-34" x="95.410156"/>
      </g>
     </g>
    </g>
    <g id="ytick_3">
     <g id="line2d_8">
      <g>
       <use xlink:href="#mf26f57a4f8" x="47.72" y="94.734968" style="stroke: #000000; stroke-width: 0.8"/>
      </g>
     </g>
     <g id="text_9">
      <!-- 0.6 -->
      <g transform="translate(24.816875 98.534187)scale(0.1 -0.1)">
       <defs>
        <path id="DejaVuSans-36" d="M 2113 2584 
Q 1688 2584 1439 2293 
Q 1191 2003 1191 1497 
Q 1191 994 1439 701 
Q 1688 409 2113 409 
Q 2538 409 2786 701 
Q 3034 994 3034 1497 
Q 3034 2003 2786 2293 
Q 2538 2584 2113 2584 
z
M 3366 4563 
L 3366 3988 
Q 3128 4100 2886 4159 
Q 2644 4219 2406 4219 
Q 1781 4219 1451 3797 
Q 1122 3375 1075 2522 
Q 1259 2794 1537 2939 
Q 1816 3084 2150 3084 
Q 2853 3084 3261 2657 
Q 3669 2231 3669 1497 
Q 3669 778 3244 343 
Q 2819 -91 2113 -91 
Q 1303 -91 875 529 
Q 447 1150 447 2328 
Q 447 3434 972 4092 
Q 1497 4750 2381 4750 
Q 2619 4750 2861 4703 
Q 3103 4656 3366 4563 
z
" transform="scale(0.015625)"/>
       </defs>
       <use xlink:href="#DejaVuSans-30"/>
       <use xlink:href="#DejaVuSans-2e" x="63.623047"/>
       <use xlink:href="#DejaVuSans-36" x="95.410156"/>
      </g>
     </g>
    </g>
    <g id="ytick_4">
     <g id="line2d_9">
      <g>
       <use xlink:href="#mf26f57a4f8" x="47.72" y="64.152029" style="stroke: #000000; stroke-width: 0.8"/>
      </g>
     </g>
     <g id="text_10">
      <!-- 0.8 -->
      <g transform="translate(24.816875 67.951248)scale(0.1 -0.1)">
       <defs>
        <path id="DejaVuSans-38" d="M 2034 2216 
Q 1584 2216 1326 1975 
Q 1069 1734 1069 1313 
Q 1069 891 1326 650 
Q 1584 409 2034 409 
Q 2484 409 2743 651 
Q 3003 894 3003 1313 
Q 3003 1734 2745 1975 
Q 2488 2216 2034 2216 
z
M 1403 2484 
Q 997 2584 770 2862 
Q 544 3141 544 3541 
Q 544 4100 942 4425 
Q 1341 4750 2034 4750 
Q 2731 4750 3128 4425 
Q 3525 4100 3525 3541 
Q 3525 3141 3298 2862 
Q 3072 2584 2669 2484 
Q 3125 2378 3379 2068 
Q 3634 1759 3634 1313 
Q 3634 634 3220 271 
Q 2806 -91 2034 -91 
Q 1263 -91 848 271 
Q 434 634 434 1313 
Q 434 1759 690 2068 
Q 947 2378 1403 2484 
z
M 1172 3481 
Q 1172 3119 1398 2916 
Q 1625 2713 2034 2713 
Q 2441 2713 2670 2916 
Q 2900 3119 2900 3481 
Q 2900 3844 2670 4047 
Q 2441 4250 2034 4250 
Q 1625 4250 1398 4047 
Q 1172 3844 1172 3481 
z
" transform="scale(0.015625)"/>
       </defs>
       <use xlink:href="#DejaVuSans-30"/>
       <use xlink:href="#DejaVuSans-2e" x="63.623047"/>
       <use xlink:href="#DejaVuSans-38" x="95.410156"/>
      </g>
     </g>
    </g>
    <g id="ytick_5">
     <g id="line2d_10">
      <g>
       <use xlink:href="#mf26f57a4f8" x="47.72" y="33.569091" style="stroke: #000000; stroke-width: 0.8"/>
      </g>
     </g>
     <g id="text_11">
      <!-- 1.0 -->
      <g transform="translate(24.816875 37.36831)scale(0.1 -0.1)">
       <use xlink:href="#DejaVuSans-31"/>
       <use xlink:href="#DejaVuSans-2e" x="63.623047"/>
       <use xlink:href="#DejaVuSans-30" x="95.410156"/>
      </g>
     </g>
    </g>
    <g id="text_12">
     <!-- R-value -->
     <g transform="translate(18.737188 119.064687)rotate(-90)scale(0.1 -0.1)">
      <defs>
       <path id="DejaVuSans-52" d="M 2841 2188 
Q 3044 2119 3236 1894 
Q 3428 1669 3622 1275 
L 4263 0 
L 3584 0 
L 2988 1197 
Q 2756 1666 2539 1819 
Q 2322 1972 1947 1972 
L 1259 1972 
L 1259 0 
L 628 0 
L 628 4666 
L 2053 4666 
Q 2853 4666 3247 4331 
Q 3641 3997 3641 3322 
Q 3641 2881 3436 2590 
Q 3231 2300 2841 2188 
z
M 1259 4147 
L 1259 2491 
L 2053 2491 
Q 2509 2491 2742 2702 
Q 2975 2913 2975 3322 
Q 2975 3731 2742 3939 
Q 2509 4147 2053 4147 
L 1259 4147 
z
" transform="scale(0.015625)"/>
       <path id="DejaVuSans-2d" d="M 313 2009 
L 1997 2009 
L 1997 1497 
L 313 1497 
L 313 2009 
z
" transform="scale(0.015625)"/>
       <path id="DejaVuSans-76" d="M 191 3500 
L 800 3500 
L 1894 563 
L 2988 3500 
L 3597 3500 
L 2284 0 
L 1503 0 
L 191 3500 
z
" transform="scale(0.015625)"/>
      </defs>
      <use xlink:href="#DejaVuSans-52"/>
      <use xlink:href="#DejaVuSans-2d" x="65.482422"/>
      <use xlink:href="#DejaVuSans-76" x="98.941406"/>
      <use xlink:href="#DejaVuSans-61" x="158.121094"/>
      <use xlink:href="#DejaVuSans-6c" x="219.400391"/>
      <use xlink:href="#DejaVuSans-75" x="247.183594"/>
      <use xlink:href="#DejaVuSans-65" x="310.5625"/>
     </g>
    </g>
   </g>
   <g id="line2d_11">
    <path d="M 47.72 33.569091 
L 59.167105 35.475891 
L 70.614211 41.119465 
L 82.061316 48.259838 
L 93.508421 57.173458 
L 104.955526 66.57973 
L 116.402632 75.472871 
L 127.849737 84.894808 
L 139.296842 93.943876 
L 150.743947 102.126666 
L 162.191053 110.18875 
L 173.638158 117.139184 
L 185.085263 123.730069 
L 196.532368 129.962408 
L 207.979474 135.752438 
L 219.426579 140.538856 
L 230.873684 145.022181 
L 242.320789 148.583704 
L 253.767895 152.281042 
L 265.215 155.519534 
" clip-path="url(#pdc86626816)" style="fill: none; stroke: #1f77b4; stroke-width: 1.5; stroke-linecap: square"/>
   </g>
   <g id="line2d_12">
    <path d="M 47.72 33.569242 
L 59.167105 34.781211 
L 70.614211 37.81303 
L 82.061316 42.032071 
L 93.508421 48.092938 
L 104.955526 55.339575 
L 116.402632 63.006883 
L 127.849737 71.563373 
L 139.296842 80.101981 
L 150.743947 88.145081 
L 162.191053 96.189328 
L 173.638158 103.339918 
L 185.085263 110.326269 
L 196.532368 116.960049 
L 207.979474 123.384664 
L 219.426579 128.948142 
L 230.873684 134.0243 
L 242.320789 138.350073 
L 253.767895 142.318856 
L 265.215 146.240681 
" clip-path="url(#pdc86626816)" style="fill: none; stroke: #ff7f0e; stroke-width: 1.5; stroke-linecap: square"/>
   </g>
   <g id="line2d_13">
    <path d="M 47.72 33.569091 
L 59.167105 35.086373 
L 70.614211 37.844943 
L 82.061316 40.95045 
L 93.508421 44.88497 
L 104.955526 49.370942 
L 116.402632 53.587935 
L 127.849737 58.323266 
L 139.296842 62.926982 
L 150.743947 66.93378 
L 162.191053 71.730757 
L 173.638158 75.350992 
L 185.085263 79.771753 
L 196.532368 84.416838 
L 207.979474 88.794582 
L 219.426579 93.197135 
L 230.873684 97.475532 
L 242.320789 101.908486 
L 253.767895 105.31756 
L 265.215 109.192512 
" clip-path="url(#pdc86626816)" style="fill: none; stroke: #2ca02c; stroke-width: 1.5; stroke-linecap: square"/>
   </g>
   <g id="line2d_14">
    <path d="M 47.72 33.569932 
L 59.167105 34.73689 
L 70.614211 36.764429 
L 82.061316 39.171976 
L 93.508421 42.558789 
L 104.955526 46.727121 
L 116.402632 50.960984 
L 127.849737 55.847854 
L 139.296842 60.677065 
L 150.743947 64.94205 
L 162.191053 70.003037 
L 173.638158 73.753623 
L 185.085263 78.366622 
L 196.532368 83.041764 
L 207.979474 87.381436 
L 219.426579 91.695503 
L 230.873684 95.802911 
L 242.320789 100.078404 
L 253.767895 103.276742 
L 265.215 106.817616 
" clip-path="url(#pdc86626816)" style="fill: none; stroke: #d62728; stroke-width: 1.5; stroke-linecap: square"/>
   </g>
   <g id="line2d_15">
    <path d="M 47.72 33.569091 
L 59.167105 35.480128 
L 70.614211 41.208084 
L 82.061316 48.314269 
L 93.508421 57.248721 
L 104.955526 66.746587 
L 116.402632 75.514062 
L 127.849737 84.958787 
L 139.296842 94.281369 
L 150.743947 102.151165 
L 162.191053 110.525809 
L 173.638158 117.247439 
L 185.085263 123.585759 
L 196.532368 130.583213 
L 207.979474 136.198508 
L 219.426579 141.321079 
L 230.873684 145.480078 
L 242.320789 149.385538 
L 253.767895 152.613541 
L 265.215 157.317791 
" clip-path="url(#pdc86626816)" style="fill: none; stroke: #9467bd; stroke-width: 1.5; stroke-linecap: square"/>
   </g>
   <g id="line2d_16">
    <path d="M 47.72 33.569695 
L 59.167105 34.785438 
L 70.614211 37.838964 
L 82.061316 42.054078 
L 93.508421 48.136637 
L 104.955526 55.371121 
L 116.402632 63.058487 
L 127.849737 71.595701 
L 139.296842 80.293416 
L 150.743947 88.135863 
L 162.191053 96.275222 
L 173.638158 103.404625 
L 185.085263 110.212705 
L 196.532368 117.321322 
L 207.979474 123.834211 
L 219.426579 129.540098 
L 230.873684 134.247177 
L 242.320789 138.781523 
L 253.767895 142.600491 
L 265.215 147.673224 
" clip-path="url(#pdc86626816)" style="fill: none; stroke: #8c564b; stroke-width: 1.5; stroke-linecap: square"/>
   </g>
   <g id="line2d_17">
    <path d="M 47.72 45.645442 
L 59.167105 48.239781 
L 70.614211 54.970933 
L 82.061316 63.760744 
L 93.508421 74.178966 
L 104.955526 84.58652 
L 116.402632 93.934936 
L 127.849737 103.19845 
L 139.296842 111.594409 
L 150.743947 119.032385 
L 162.191053 126.053968 
L 173.638158 131.936004 
L 185.085263 137.810512 
L 196.532368 143.054993 
L 207.979474 147.78885 
L 219.426579 151.852597 
L 230.873684 155.26147 
L 242.320789 158.09461 
L 253.767895 161.116636 
L 265.215 163.619127 
" clip-path="url(#pdc86626816)" style="fill: none; stroke: #e377c2; stroke-width: 1.5; stroke-linecap: square"/>
   </g>
   <g id="line2d_18">
    <path d="M 47.72 33.569386 
L 59.167105 34.164301 
L 70.614211 34.910887 
L 82.061316 36.665469 
L 93.508421 40.341875 
L 104.955526 46.03923 
L 116.402632 52.776343 
L 127.849737 60.475584 
L 139.296842 68.640842 
L 150.743947 76.318625 
L 162.191053 84.12472 
L 173.638158 91.393183 
L 185.085263 98.438019 
L 196.532368 105.488928 
L 207.979474 112.266676 
L 219.426579 118.429921 
L 230.873684 124.237465 
L 242.320789 129.500747 
L 253.767895 134.002574 
L 265.215 138.485934 
" clip-path="url(#pdc86626816)" style="fill: none; stroke: #7f7f7f; stroke-width: 1.5; stroke-linecap: square"/>
   </g>
   <g id="patch_3">
    <path d="M 47.72 174.04 
L 47.72 26.88 
" style="fill: none; stroke: #000000; stroke-width: 0.8; stroke-linejoin: miter; stroke-linecap: square"/>
   </g>
   <g id="patch_4">
    <path d="M 47.72 174.04 
L 265.215 174.04 
" style="fill: none; stroke: #000000; stroke-width: 0.8; stroke-linejoin: miter; stroke-linecap: square"/>
   </g>
   <g id="text_13">
    <!-- Node * surprisal -->
    <g transform="translate(108.18625 20.88)scale(0.12 -0.12)">
     <defs>
      <path id="DejaVuSans-4e" d="M 628 4666 
L 1478 4666 
L 3547 763 
L 3547 4666 
L 4159 4666 
L 4159 0 
L 3309 0 
L 1241 3903 
L 1241 0 
L 628 0 
L 628 4666 
z
" transform="scale(0.015625)"/>
      <path id="DejaVuSans-64" d="M 2906 2969 
L 2906 4863 
L 3481 4863 
L 3481 0 
L 2906 0 
L 2906 525 
Q 2725 213 2448 61 
Q 2172 -91 1784 -91 
Q 1150 -91 751 415 
Q 353 922 353 1747 
Q 353 2572 751 3078 
Q 1150 3584 1784 3584 
Q 2172 3584 2448 3432 
Q 2725 3281 2906 2969 
z
M 947 1747 
Q 947 1113 1208 752 
Q 1469 391 1925 391 
Q 2381 391 2643 752 
Q 2906 1113 2906 1747 
Q 2906 2381 2643 2742 
Q 2381 3103 1925 3103 
Q 1469 3103 1208 2742 
Q 947 2381 947 1747 
z
" transform="scale(0.015625)"/>
      <path id="DejaVuSans-2a" d="M 3009 3897 
L 1888 3291 
L 3009 2681 
L 2828 2375 
L 1778 3009 
L 1778 1831 
L 1422 1831 
L 1422 3009 
L 372 2375 
L 191 2681 
L 1313 3291 
L 191 3897 
L 372 4206 
L 1422 3572 
L 1422 4750 
L 1778 4750 
L 1778 3572 
L 2828 4206 
L 3009 3897 
z
" transform="scale(0.015625)"/>
     </defs>
     <use xlink:href="#DejaVuSans-4e"/>
     <use xlink:href="#DejaVuSans-6f" x="74.804688"/>
     <use xlink:href="#DejaVuSans-64" x="135.986328"/>
     <use xlink:href="#DejaVuSans-65" x="199.462891"/>
     <use xlink:href="#DejaVuSans-20" x="260.986328"/>
     <use xlink:href="#DejaVuSans-2a" x="292.773438"/>
     <use xlink:href="#DejaVuSans-20" x="342.773438"/>
     <use xlink:href="#DejaVuSans-73" x="374.560547"/>
     <use xlink:href="#DejaVuSans-75" x="426.660156"/>
     <use xlink:href="#DejaVuSans-72" x="490.039062"/>
     <use xlink:href="#DejaVuSans-70" x="531.152344"/>
     <use xlink:href="#DejaVuSans-72" x="594.628906"/>
     <use xlink:href="#DejaVuSans-69" x="635.742188"/>
     <use xlink:href="#DejaVuSans-73" x="663.525391"/>
     <use xlink:href="#DejaVuSans-61" x="715.625"/>
     <use xlink:href="#DejaVuSans-6c" x="776.904297"/>
    </g>
   </g>
  </g>
  <g id="axes_2">
   <g id="patch_5">
    <path d="M 298.065 174.04 
L 515.56 174.04 
L 515.56 26.88 
L 298.065 26.88 
z
" style="fill: #ffffff"/>
   </g>
   <g id="PolyCollection_9">
    <path d="M 298.065 33.569091 
L 298.065 33.569091 
L 309.512105 35.650768 
L 320.959211 42.285396 
L 332.406316 50.024415 
L 343.853421 60.575219 
L 355.300526 70.691905 
L 366.747632 82.158206 
L 378.194737 91.774915 
L 389.641842 101.858184 
L 401.088947 110.172323 
L 412.536053 118.441331 
L 423.983158 125.587152 
L 435.430263 131.959878 
L 446.877368 137.91378 
L 458.324474 142.952711 
L 469.771579 147.334141 
L 481.218684 150.982362 
L 492.665789 153.829129 
L 504.112895 156.744809 
L 515.56 159.122881 
L 515.56 147.899157 
L 515.56 147.899157 
L 504.112895 145.107009 
L 492.665789 141.630875 
L 481.218684 137.966105 
L 469.771579 133.832217 
L 458.324474 129.144053 
L 446.877368 123.047705 
L 435.430263 117.65976 
L 423.983158 110.9984 
L 412.536053 103.789155 
L 401.088947 96.46838 
L 389.641842 87.759624 
L 378.194737 80.422623 
L 366.747632 71.616472 
L 355.300526 62.373169 
L 343.853421 54.108699 
L 332.406316 45.748529 
L 320.959211 39.649234 
L 309.512105 35.198594 
L 298.065 33.569091 
z
" clip-path="url(#p3ac05f2b24)" style="fill: #1f77b4; fill-opacity: 0.4"/>
   </g>
   <g id="PolyCollection_10">
    <path d="M 298.065 33.569214 
L 298.065 33.56927 
L 309.512105 35.658102 
L 320.959211 42.296894 
L 332.406316 50.049841 
L 343.853421 60.621504 
L 355.300526 70.767116 
L 366.747632 82.341676 
L 378.194737 92.060342 
L 389.641842 102.306406 
L 401.088947 110.744742 
L 412.536053 119.063229 
L 423.983158 126.430154 
L 435.430263 132.792379 
L 446.877368 138.860453 
L 458.324474 143.793446 
L 469.771579 148.22005 
L 481.218684 151.839165 
L 492.665789 154.459334 
L 504.112895 157.396285 
L 515.56 159.67755 
L 515.56 148.062402 
L 515.56 148.062402 
L 504.112895 145.376904 
L 492.665789 141.96103 
L 481.218684 138.304867 
L 469.771579 134.206177 
L 458.324474 129.560953 
L 446.877368 123.41743 
L 435.430263 118.034278 
L 423.983158 111.353745 
L 412.536053 104.092738 
L 401.088947 96.760599 
L 389.641842 87.951843 
L 378.194737 80.590792 
L 366.747632 71.731149 
L 355.300526 62.469246 
L 343.853421 54.204827 
L 332.406316 45.785333 
L 320.959211 39.659715 
L 309.512105 35.203061 
L 298.065 33.569214 
z
" clip-path="url(#p3ac05f2b24)" style="fill: #ff7f0e; fill-opacity: 0.4"/>
   </g>
   <g id="PolyCollection_11">
    <path d="M 298.065 33.569091 
L 298.065 33.569091 
L 309.512105 35.654653 
L 320.959211 42.323964 
L 332.406316 50.140242 
L 343.853421 60.752303 
L 355.300526 71.05638 
L 366.747632 82.646194 
L 378.194737 92.489472 
L 389.641842 102.700806 
L 401.088947 111.187332 
L 412.536053 119.620022 
L 423.983158 126.823168 
L 435.430263 133.242453 
L 446.877368 139.384835 
L 458.324474 144.505255 
L 469.771579 148.718024 
L 481.218684 152.172295 
L 492.665789 155.061582 
L 504.112895 157.842261 
L 515.56 160.214948 
L 515.56 149.319314 
L 515.56 149.319314 
L 504.112895 146.638292 
L 492.665789 143.317112 
L 481.218684 139.571446 
L 469.771579 135.334172 
L 458.324474 130.31561 
L 446.877368 124.054898 
L 435.430263 118.533185 
L 423.983158 111.71629 
L 412.536053 104.268197 
L 401.088947 96.769704 
L 389.641842 87.812397 
L 378.194737 80.370585 
L 366.747632 71.579132 
L 355.300526 62.265958 
L 343.853421 54.111315 
L 332.406316 45.779574 
L 320.959211 39.634956 
L 309.512105 35.208337 
L 298.065 33.569091 
z
" clip-path="url(#p3ac05f2b24)" style="fill: #2ca02c; fill-opacity: 0.4"/>
   </g>
   <g id="PolyCollection_12">
    <path d="M 298.065 33.569783 
L 298.065 33.570082 
L 309.512105 35.663558 
L 320.959211 42.343776 
L 332.406316 50.187853 
L 343.853421 60.83438 
L 355.300526 71.151666 
L 366.747632 82.834529 
L 378.194737 92.675858 
L 389.641842 102.970297 
L 401.088947 111.534305 
L 412.536053 119.941546 
L 423.983158 127.239033 
L 435.430263 133.652488 
L 446.877368 139.809754 
L 458.324474 144.892224 
L 469.771579 149.1481 
L 481.218684 152.532146 
L 492.665789 155.327634 
L 504.112895 158.156482 
L 515.56 160.440196 
L 515.56 149.210144 
L 515.56 149.210144 
L 504.112895 146.5655 
L 492.665789 143.339962 
L 481.218684 139.629036 
L 469.771579 135.595759 
L 458.324474 130.626618 
L 446.877368 124.249158 
L 435.430263 118.749265 
L 423.983158 111.932184 
L 412.536053 104.488498 
L 401.088947 97.007356 
L 389.641842 88.018193 
L 378.194737 80.543676 
L 366.747632 71.696874 
L 355.300526 62.366303 
L 343.853421 54.169235 
L 332.406316 45.805983 
L 320.959211 39.641112 
L 309.512105 35.212345 
L 298.065 33.569783 
z
" clip-path="url(#p3ac05f2b24)" style="fill: #d62728; fill-opacity: 0.4"/>
   </g>
   <g id="PolyCollection_13">
    <path d="M 298.065 33.569091 
L 298.065 33.569091 
L 309.512105 35.655084 
L 320.959211 42.275758 
L 332.406316 50.055639 
L 343.853421 60.665811 
L 355.300526 70.669724 
L 366.747632 82.233841 
L 378.194737 91.799313 
L 389.641842 102.333037 
L 401.088947 110.426484 
L 412.536053 118.648598 
L 423.983158 125.775594 
L 435.430263 132.042705 
L 446.877368 137.964571 
L 458.324474 142.941108 
L 469.771579 147.894245 
L 481.218684 151.657707 
L 492.665789 153.856379 
L 504.112895 156.669105 
L 515.56 159.857701 
L 515.56 148.129341 
L 515.56 148.129341 
L 504.112895 145.909146 
L 492.665789 141.771989 
L 481.218684 138.213307 
L 469.771579 134.351389 
L 458.324474 128.890293 
L 446.877368 124.205476 
L 435.430263 117.790678 
L 423.983158 111.298126 
L 412.536053 104.20336 
L 401.088947 96.498444 
L 389.641842 87.709476 
L 378.194737 80.488158 
L 366.747632 71.647005 
L 355.300526 62.358436 
L 343.853421 54.187187 
L 332.406316 45.843567 
L 320.959211 39.675433 
L 309.512105 35.20059 
L 298.065 33.569091 
z
" clip-path="url(#p3ac05f2b24)" style="fill: #9467bd; fill-opacity: 0.4"/>
   </g>
   <g id="PolyCollection_14">
    <path d="M 298.065 33.569587 
L 298.065 33.569804 
L 309.512105 35.662212 
L 320.959211 42.287195 
L 332.406316 50.082391 
L 343.853421 60.705063 
L 355.300526 70.743305 
L 366.747632 82.409583 
L 378.194737 92.075499 
L 389.641842 102.792636 
L 401.088947 111.01528 
L 412.536053 119.211788 
L 423.983158 126.616717 
L 435.430263 132.882232 
L 446.877368 138.881415 
L 458.324474 143.766869 
L 469.771579 148.776638 
L 481.218684 152.494054 
L 492.665789 154.438547 
L 504.112895 157.302205 
L 515.56 160.417177 
L 515.56 148.272925 
L 515.56 148.272925 
L 504.112895 146.199757 
L 492.665789 142.17586 
L 481.218684 138.565749 
L 469.771579 134.70379 
L 458.324474 129.274801 
L 446.877368 124.573922 
L 435.430263 118.158964 
L 423.983158 111.673873 
L 412.536053 104.531294 
L 401.088947 96.812086 
L 389.641842 87.898304 
L 378.194737 80.659586 
L 366.747632 71.773082 
L 355.300526 62.460663 
L 343.853421 54.288966 
L 332.406316 45.887186 
L 320.959211 39.683777 
L 309.512105 35.205184 
L 298.065 33.569587 
z
" clip-path="url(#p3ac05f2b24)" style="fill: #8c564b; fill-opacity: 0.4"/>
   </g>
   <g id="PolyCollection_15">
    <path d="M 298.065 43.996534 
L 298.065 47.29435 
L 309.512105 49.046064 
L 320.959211 54.513235 
L 332.406316 61.3515 
L 343.853421 70.676245 
L 355.300526 79.599486 
L 366.747632 90.058409 
L 378.194737 98.435671 
L 389.641842 107.791153 
L 401.088947 115.292606 
L 412.536053 123.164038 
L 423.983158 129.932927 
L 435.430263 136.104269 
L 446.877368 141.825727 
L 458.324474 146.806108 
L 469.771579 150.789934 
L 481.218684 154.435715 
L 492.665789 157.111615 
L 504.112895 159.696893 
L 515.56 162.073159 
L 515.56 152.062332 
L 515.56 152.062332 
L 504.112895 149.274579 
L 492.665789 146.281733 
L 481.218684 142.985191 
L 469.771579 139.014867 
L 458.324474 134.421404 
L 446.877368 129.148719 
L 435.430263 124.430814 
L 423.983158 117.942533 
L 412.536053 111.426839 
L 401.088947 104.595546 
L 389.641842 96.396834 
L 378.194737 89.500887 
L 366.747632 80.721548 
L 355.300526 72.000708 
L 343.853421 64.080264 
L 332.406316 56.300122 
L 320.959211 50.304013 
L 309.512105 45.704618 
L 298.065 43.996534 
z
" clip-path="url(#p3ac05f2b24)" style="fill: #e377c2; fill-opacity: 0.4"/>
   </g>
   <g id="PolyCollection_16">
    <path d="M 298.065 33.569302 
L 298.065 33.56947 
L 309.512105 35.662074 
L 320.959211 42.330398 
L 332.406316 50.139148 
L 343.853421 60.780562 
L 355.300526 71.021994 
L 366.747632 82.668473 
L 378.194737 92.557881 
L 389.641842 102.811697 
L 401.088947 111.375896 
L 412.536053 119.808871 
L 423.983158 127.315257 
L 435.430263 133.60934 
L 446.877368 139.829816 
L 458.324474 144.737884 
L 469.771579 149.006985 
L 481.218684 152.479162 
L 492.665789 155.159978 
L 504.112895 157.683249 
L 515.56 160.074693 
L 515.56 149.809941 
L 515.56 149.809941 
L 504.112895 147.066912 
L 492.665789 143.490524 
L 481.218684 139.702946 
L 469.771579 135.293464 
L 458.324474 130.294436 
L 446.877368 123.906547 
L 435.430263 118.357645 
L 423.983158 111.620709 
L 412.536053 104.186108 
L 401.088947 96.840082 
L 389.641842 87.903804 
L 378.194737 80.488954 
L 366.747632 71.645351 
L 355.300526 62.3637 
L 343.853421 54.152789 
L 332.406316 45.769866 
L 320.959211 39.638168 
L 309.512105 35.203551 
L 298.065 33.569302 
z
" clip-path="url(#p3ac05f2b24)" style="fill: #7f7f7f; fill-opacity: 0.4"/>
   </g>
   <g id="matplotlib.axis_3">
    <g id="xtick_6">
     <g id="line2d_19">
      <g>
       <use xlink:href="#me41a647ea9" x="298.065" y="174.04" style="stroke: #000000; stroke-width: 0.8"/>
      </g>
     </g>
     <g id="text_14">
      <!-- 0.0 -->
      <g transform="translate(290.113437 188.638438)scale(0.1 -0.1)">
       <use xlink:href="#DejaVuSans-30"/>
       <use xlink:href="#DejaVuSans-2e" x="63.623047"/>
       <use xlink:href="#DejaVuSans-30" x="95.410156"/>
      </g>
     </g>
    </g>
    <g id="xtick_7">
     <g id="line2d_20">
      <g>
       <use xlink:href="#me41a647ea9" x="352.43875" y="174.04" style="stroke: #000000; stroke-width: 0.8"/>
      </g>
     </g>
     <g id="text_15">
      <!-- 0.5 -->
      <g transform="translate(344.487187 188.638438)scale(0.1 -0.1)">
       <use xlink:href="#DejaVuSans-30"/>
       <use xlink:href="#DejaVuSans-2e" x="63.623047"/>
       <use xlink:href="#DejaVuSans-35" x="95.410156"/>
      </g>
     </g>
    </g>
    <g id="xtick_8">
     <g id="line2d_21">
      <g>
       <use xlink:href="#me41a647ea9" x="406.8125" y="174.04" style="stroke: #000000; stroke-width: 0.8"/>
      </g>
     </g>
     <g id="text_16">
      <!-- 1.0 -->
      <g transform="translate(398.860937 188.638438)scale(0.1 -0.1)">
       <use xlink:href="#DejaVuSans-31"/>
       <use xlink:href="#DejaVuSans-2e" x="63.623047"/>
       <use xlink:href="#DejaVuSans-30" x="95.410156"/>
      </g>
     </g>
    </g>
    <g id="xtick_9">
     <g id="line2d_22">
      <g>
       <use xlink:href="#me41a647ea9" x="461.18625" y="174.04" style="stroke: #000000; stroke-width: 0.8"/>
      </g>
     </g>
     <g id="text_17">
      <!-- 1.5 -->
      <g transform="translate(453.234687 188.638438)scale(0.1 -0.1)">
       <use xlink:href="#DejaVuSans-31"/>
       <use xlink:href="#DejaVuSans-2e" x="63.623047"/>
       <use xlink:href="#DejaVuSans-35" x="95.410156"/>
      </g>
     </g>
    </g>
    <g id="xtick_10">
     <g id="line2d_23">
      <g>
       <use xlink:href="#me41a647ea9" x="515.56" y="174.04" style="stroke: #000000; stroke-width: 0.8"/>
      </g>
     </g>
     <g id="text_18">
      <!-- 2.0 -->
      <g transform="translate(507.608437 188.638438)scale(0.1 -0.1)">
       <use xlink:href="#DejaVuSans-32"/>
       <use xlink:href="#DejaVuSans-2e" x="63.623047"/>
       <use xlink:href="#DejaVuSans-30" x="95.410156"/>
      </g>
     </g>
    </g>
    <g id="text_19">
     <!-- Influence of surprisal (multiplication) -->
     <g transform="translate(314.665625 202.316563)scale(0.1 -0.1)">
      <use xlink:href="#DejaVuSans-49"/>
      <use xlink:href="#DejaVuSans-6e" x="29.492188"/>
      <use xlink:href="#DejaVuSans-66" x="92.871094"/>
      <use xlink:href="#DejaVuSans-6c" x="128.076172"/>
      <use xlink:href="#DejaVuSans-75" x="155.859375"/>
      <use xlink:href="#DejaVuSans-65" x="219.238281"/>
      <use xlink:href="#DejaVuSans-6e" x="280.761719"/>
      <use xlink:href="#DejaVuSans-63" x="344.140625"/>
      <use xlink:href="#DejaVuSans-65" x="399.121094"/>
      <use xlink:href="#DejaVuSans-20" x="460.644531"/>
      <use xlink:href="#DejaVuSans-6f" x="492.431641"/>
      <use xlink:href="#DejaVuSans-66" x="553.613281"/>
      <use xlink:href="#DejaVuSans-20" x="588.818359"/>
      <use xlink:href="#DejaVuSans-73" x="620.605469"/>
      <use xlink:href="#DejaVuSans-75" x="672.705078"/>
      <use xlink:href="#DejaVuSans-72" x="736.083984"/>
      <use xlink:href="#DejaVuSans-70" x="777.197266"/>
      <use xlink:href="#DejaVuSans-72" x="840.673828"/>
      <use xlink:href="#DejaVuSans-69" x="881.787109"/>
      <use xlink:href="#DejaVuSans-73" x="909.570312"/>
      <use xlink:href="#DejaVuSans-61" x="961.669922"/>
      <use xlink:href="#DejaVuSans-6c" x="1022.949219"/>
      <use xlink:href="#DejaVuSans-20" x="1050.732422"/>
      <use xlink:href="#DejaVuSans-28" x="1082.519531"/>
      <use xlink:href="#DejaVuSans-6d" x="1121.533203"/>
      <use xlink:href="#DejaVuSans-75" x="1218.945312"/>
      <use xlink:href="#DejaVuSans-6c" x="1282.324219"/>
      <use xlink:href="#DejaVuSans-74" x="1310.107422"/>
      <use xlink:href="#DejaVuSans-69" x="1349.316406"/>
      <use xlink:href="#DejaVuSans-70" x="1377.099609"/>
      <use xlink:href="#DejaVuSans-6c" x="1440.576172"/>
      <use xlink:href="#DejaVuSans-69" x="1468.359375"/>
      <use xlink:href="#DejaVuSans-63" x="1496.142578"/>
      <use xlink:href="#DejaVuSans-61" x="1551.123047"/>
      <use xlink:href="#DejaVuSans-74" x="1612.402344"/>
      <use xlink:href="#DejaVuSans-69" x="1651.611328"/>
      <use xlink:href="#DejaVuSans-6f" x="1679.394531"/>
      <use xlink:href="#DejaVuSans-6e" x="1740.576172"/>
      <use xlink:href="#DejaVuSans-29" x="1803.955078"/>
     </g>
    </g>
   </g>
   <g id="line2d_24">
    <path d="M 298.065 33.569091 
L 309.512105 35.424681 
L 320.959211 40.967315 
L 332.406316 47.886472 
L 343.853421 57.341959 
L 355.300526 66.532537 
L 366.747632 76.887339 
L 378.194737 86.098769 
L 389.641842 94.808904 
L 401.088947 103.320351 
L 412.536053 111.115243 
L 423.983158 118.292776 
L 435.430263 124.809819 
L 446.877368 130.480743 
L 458.324474 136.048382 
L 469.771579 140.583179 
L 481.218684 144.474233 
L 492.665789 147.730002 
L 504.112895 150.925909 
L 515.56 153.511019 
" clip-path="url(#p3ac05f2b24)" style="fill: none; stroke: #1f77b4; stroke-width: 1.5; stroke-linecap: square"/>
   </g>
   <g id="line2d_25">
    <path d="M 298.065 33.569242 
L 309.512105 35.430582 
L 320.959211 40.978305 
L 332.406316 47.917587 
L 343.853421 57.413166 
L 355.300526 66.618181 
L 366.747632 77.036412 
L 378.194737 86.325567 
L 389.641842 95.129125 
L 401.088947 103.752671 
L 412.536053 111.577983 
L 423.983158 118.891949 
L 435.430263 125.413329 
L 446.877368 131.138941 
L 458.324474 136.6772 
L 469.771579 141.213114 
L 481.218684 145.072016 
L 492.665789 148.210182 
L 504.112895 151.386594 
L 515.56 153.869976 
" clip-path="url(#p3ac05f2b24)" style="fill: none; stroke: #ff7f0e; stroke-width: 1.5; stroke-linecap: square"/>
   </g>
   <g id="line2d_26">
    <path d="M 298.065 33.569091 
L 309.512105 35.431495 
L 320.959211 40.97946 
L 332.406316 47.959908 
L 343.853421 57.431809 
L 355.300526 66.661169 
L 366.747632 77.112663 
L 378.194737 86.430028 
L 389.641842 95.256602 
L 401.088947 103.978518 
L 412.536053 111.944109 
L 423.983158 119.269729 
L 435.430263 125.887819 
L 446.877368 131.719867 
L 458.324474 137.410433 
L 469.771579 142.026098 
L 481.218684 145.871871 
L 492.665789 149.189347 
L 504.112895 152.240276 
L 515.56 154.767131 
" clip-path="url(#p3ac05f2b24)" style="fill: none; stroke: #2ca02c; stroke-width: 1.5; stroke-linecap: square"/>
   </g>
   <g id="line2d_27">
    <path d="M 298.065 33.569932 
L 309.512105 35.437952 
L 320.959211 40.992444 
L 332.406316 47.996918 
L 343.853421 57.501808 
L 355.300526 66.758984 
L 366.747632 77.265701 
L 378.194737 86.609767 
L 389.641842 95.494245 
L 401.088947 104.270831 
L 412.536053 112.215022 
L 423.983158 119.585608 
L 435.430263 126.200877 
L 446.877368 132.029456 
L 458.324474 137.759421 
L 469.771579 142.371929 
L 481.218684 146.080591 
L 492.665789 149.333798 
L 504.112895 152.360991 
L 515.56 154.82517 
" clip-path="url(#p3ac05f2b24)" style="fill: none; stroke: #d62728; stroke-width: 1.5; stroke-linecap: square"/>
   </g>
   <g id="line2d_28">
    <path d="M 298.065 33.569091 
L 309.512105 35.427837 
L 320.959211 40.975596 
L 332.406316 47.949603 
L 343.853421 57.426499 
L 355.300526 66.51408 
L 366.747632 76.940423 
L 378.194737 86.143736 
L 389.641842 95.021256 
L 401.088947 103.462464 
L 412.536053 111.425979 
L 423.983158 118.53686 
L 435.430263 124.916691 
L 446.877368 131.085023 
L 458.324474 135.915701 
L 469.771579 141.122817 
L 481.218684 144.935507 
L 492.665789 147.814184 
L 504.112895 151.289125 
L 515.56 153.993521 
" clip-path="url(#p3ac05f2b24)" style="fill: none; stroke: #9467bd; stroke-width: 1.5; stroke-linecap: square"/>
   </g>
   <g id="line2d_29">
    <path d="M 298.065 33.569696 
L 309.512105 35.433698 
L 320.959211 40.985486 
L 332.406316 47.984789 
L 343.853421 57.497014 
L 355.300526 66.601984 
L 366.747632 77.091332 
L 378.194737 86.367542 
L 389.641842 95.34547 
L 401.088947 103.913683 
L 412.536053 111.871541 
L 423.983158 119.145295 
L 435.430263 125.520598 
L 446.877368 131.727668 
L 458.324474 136.520835 
L 469.771579 141.740214 
L 481.218684 145.529902 
L 492.665789 148.307204 
L 504.112895 151.750981 
L 515.56 154.345051 
" clip-path="url(#p3ac05f2b24)" style="fill: none; stroke: #8c564b; stroke-width: 1.5; stroke-linecap: square"/>
   </g>
   <g id="line2d_30">
    <path d="M 298.065 45.645442 
L 309.512105 47.375341 
L 320.959211 52.408624 
L 332.406316 58.825811 
L 343.853421 67.378255 
L 355.300526 75.800097 
L 366.747632 85.389979 
L 378.194737 93.968279 
L 389.641842 102.093993 
L 401.088947 109.944076 
L 412.536053 117.295438 
L 423.983158 123.93773 
L 435.430263 130.267541 
L 446.877368 135.487223 
L 458.324474 140.613756 
L 469.771579 144.902401 
L 481.218684 148.710453 
L 492.665789 151.696674 
L 504.112895 154.485736 
L 515.56 157.067745 
" clip-path="url(#p3ac05f2b24)" style="fill: none; stroke: #e377c2; stroke-width: 1.5; stroke-linecap: square"/>
   </g>
   <g id="line2d_31">
    <path d="M 298.065 33.569386 
L 309.512105 35.432812 
L 320.959211 40.984283 
L 332.406316 47.954507 
L 343.853421 57.466675 
L 355.300526 66.692847 
L 366.747632 77.156912 
L 378.194737 86.523417 
L 389.641842 95.357751 
L 401.088947 104.107989 
L 412.536053 111.997489 
L 423.983158 119.467983 
L 435.430263 125.983492 
L 446.877368 131.868182 
L 458.324474 137.51616 
L 469.771579 142.150224 
L 481.218684 146.091054 
L 492.665789 149.325251 
L 504.112895 152.37508 
L 515.56 154.942317 
" clip-path="url(#p3ac05f2b24)" style="fill: none; stroke: #7f7f7f; stroke-width: 1.5; stroke-linecap: square"/>
   </g>
   <g id="patch_6">
    <path d="M 298.065 174.04 
L 298.065 26.88 
" style="fill: none; stroke: #000000; stroke-width: 0.8; stroke-linejoin: miter; stroke-linecap: square"/>
   </g>
   <g id="patch_7">
    <path d="M 298.065 174.04 
L 515.56 174.04 
" style="fill: none; stroke: #000000; stroke-width: 0.8; stroke-linejoin: miter; stroke-linecap: square"/>
   </g>
   <g id="text_20">
    <!-- Node * third variable -->
    <g transform="translate(344.2325 20.88)scale(0.12 -0.12)">
     <defs>
      <path id="DejaVuSans-68" d="M 3513 2113 
L 3513 0 
L 2938 0 
L 2938 2094 
Q 2938 2591 2744 2837 
Q 2550 3084 2163 3084 
Q 1697 3084 1428 2787 
Q 1159 2491 1159 1978 
L 1159 0 
L 581 0 
L 581 4863 
L 1159 4863 
L 1159 2956 
Q 1366 3272 1645 3428 
Q 1925 3584 2291 3584 
Q 2894 3584 3203 3211 
Q 3513 2838 3513 2113 
z
" transform="scale(0.015625)"/>
      <path id="DejaVuSans-62" d="M 3116 1747 
Q 3116 2381 2855 2742 
Q 2594 3103 2138 3103 
Q 1681 3103 1420 2742 
Q 1159 2381 1159 1747 
Q 1159 1113 1420 752 
Q 1681 391 2138 391 
Q 2594 391 2855 752 
Q 3116 1113 3116 1747 
z
M 1159 2969 
Q 1341 3281 1617 3432 
Q 1894 3584 2278 3584 
Q 2916 3584 3314 3078 
Q 3713 2572 3713 1747 
Q 3713 922 3314 415 
Q 2916 -91 2278 -91 
Q 1894 -91 1617 61 
Q 1341 213 1159 525 
L 1159 0 
L 581 0 
L 581 4863 
L 1159 4863 
L 1159 2969 
z
" transform="scale(0.015625)"/>
     </defs>
     <use xlink:href="#DejaVuSans-4e"/>
     <use xlink:href="#DejaVuSans-6f" x="74.804688"/>
     <use xlink:href="#DejaVuSans-64" x="135.986328"/>
     <use xlink:href="#DejaVuSans-65" x="199.462891"/>
     <use xlink:href="#DejaVuSans-20" x="260.986328"/>
     <use xlink:href="#DejaVuSans-2a" x="292.773438"/>
     <use xlink:href="#DejaVuSans-20" x="342.773438"/>
     <use xlink:href="#DejaVuSans-74" x="374.560547"/>
     <use xlink:href="#DejaVuSans-68" x="413.769531"/>
     <use xlink:href="#DejaVuSans-69" x="477.148438"/>
     <use xlink:href="#DejaVuSans-72" x="504.931641"/>
     <use xlink:href="#DejaVuSans-64" x="544.294922"/>
     <use xlink:href="#DejaVuSans-20" x="607.771484"/>
     <use xlink:href="#DejaVuSans-76" x="639.558594"/>
     <use xlink:href="#DejaVuSans-61" x="698.738281"/>
     <use xlink:href="#DejaVuSans-72" x="760.017578"/>
     <use xlink:href="#DejaVuSans-69" x="801.130859"/>
     <use xlink:href="#DejaVuSans-61" x="828.914062"/>
     <use xlink:href="#DejaVuSans-62" x="890.193359"/>
     <use xlink:href="#DejaVuSans-6c" x="953.669922"/>
     <use xlink:href="#DejaVuSans-65" x="981.453125"/>
    </g>
   </g>
   <g id="legend_1">
    <g id="line2d_32">
     <path d="M 524.56 39.978437 
L 534.56 39.978437 
L 544.56 39.978437 
" style="fill: none; stroke: #1f77b4; stroke-width: 1.5; stroke-linecap: square"/>
    </g>
    <g id="text_21">
     <!-- Node -->
     <g transform="translate(552.56 43.478437)scale(0.1 -0.1)">
      <use xlink:href="#DejaVuSans-4e"/>
      <use xlink:href="#DejaVuSans-6f" x="74.804688"/>
      <use xlink:href="#DejaVuSans-64" x="135.986328"/>
      <use xlink:href="#DejaVuSans-65" x="199.462891"/>
     </g>
    </g>
    <g id="line2d_33">
     <path d="M 524.56 54.656563 
L 534.56 54.656563 
L 544.56 54.656563 
" style="fill: none; stroke: #ff7f0e; stroke-width: 1.5; stroke-linecap: square"/>
    </g>
    <g id="text_22">
     <!-- Node + surprisal -->
     <g transform="translate(552.56 58.156563)scale(0.1 -0.1)">
      <defs>
       <path id="DejaVuSans-2b" d="M 2944 4013 
L 2944 2272 
L 4684 2272 
L 4684 1741 
L 2944 1741 
L 2944 0 
L 2419 0 
L 2419 1741 
L 678 1741 
L 678 2272 
L 2419 2272 
L 2419 4013 
L 2944 4013 
z
" transform="scale(0.015625)"/>
      </defs>
      <use xlink:href="#DejaVuSans-4e"/>
      <use xlink:href="#DejaVuSans-6f" x="74.804688"/>
      <use xlink:href="#DejaVuSans-64" x="135.986328"/>
      <use xlink:href="#DejaVuSans-65" x="199.462891"/>
      <use xlink:href="#DejaVuSans-20" x="260.986328"/>
      <use xlink:href="#DejaVuSans-2b" x="292.773438"/>
      <use xlink:href="#DejaVuSans-20" x="376.5625"/>
      <use xlink:href="#DejaVuSans-73" x="408.349609"/>
      <use xlink:href="#DejaVuSans-75" x="460.449219"/>
      <use xlink:href="#DejaVuSans-72" x="523.828125"/>
      <use xlink:href="#DejaVuSans-70" x="564.941406"/>
      <use xlink:href="#DejaVuSans-72" x="628.417969"/>
      <use xlink:href="#DejaVuSans-69" x="669.53125"/>
      <use xlink:href="#DejaVuSans-73" x="697.314453"/>
      <use xlink:href="#DejaVuSans-61" x="749.414062"/>
      <use xlink:href="#DejaVuSans-6c" x="810.693359"/>
     </g>
    </g>
    <g id="line2d_34">
     <path d="M 524.56 69.334687 
L 534.56 69.334687 
L 544.56 69.334687 
" style="fill: none; stroke: #2ca02c; stroke-width: 1.5; stroke-linecap: square"/>
    </g>
    <g id="text_23">
     <!-- Node split -->
     <g transform="translate(552.56 72.834687)scale(0.1 -0.1)">
      <use xlink:href="#DejaVuSans-4e"/>
      <use xlink:href="#DejaVuSans-6f" x="74.804688"/>
      <use xlink:href="#DejaVuSans-64" x="135.986328"/>
      <use xlink:href="#DejaVuSans-65" x="199.462891"/>
      <use xlink:href="#DejaVuSans-20" x="260.986328"/>
      <use xlink:href="#DejaVuSans-73" x="292.773438"/>
      <use xlink:href="#DejaVuSans-70" x="344.873047"/>
      <use xlink:href="#DejaVuSans-6c" x="408.349609"/>
      <use xlink:href="#DejaVuSans-69" x="436.132812"/>
      <use xlink:href="#DejaVuSans-74" x="463.916016"/>
     </g>
    </g>
    <g id="line2d_35">
     <path d="M 524.56 84.012812 
L 534.56 84.012812 
L 544.56 84.012812 
" style="fill: none; stroke: #d62728; stroke-width: 1.5; stroke-linecap: square"/>
    </g>
    <g id="text_24">
     <!-- Node split + surprisal -->
     <g transform="translate(552.56 87.512812)scale(0.1 -0.1)">
      <use xlink:href="#DejaVuSans-4e"/>
      <use xlink:href="#DejaVuSans-6f" x="74.804688"/>
      <use xlink:href="#DejaVuSans-64" x="135.986328"/>
      <use xlink:href="#DejaVuSans-65" x="199.462891"/>
      <use xlink:href="#DejaVuSans-20" x="260.986328"/>
      <use xlink:href="#DejaVuSans-73" x="292.773438"/>
      <use xlink:href="#DejaVuSans-70" x="344.873047"/>
      <use xlink:href="#DejaVuSans-6c" x="408.349609"/>
      <use xlink:href="#DejaVuSans-69" x="436.132812"/>
      <use xlink:href="#DejaVuSans-74" x="463.916016"/>
      <use xlink:href="#DejaVuSans-20" x="503.125"/>
      <use xlink:href="#DejaVuSans-2b" x="534.912109"/>
      <use xlink:href="#DejaVuSans-20" x="618.701172"/>
      <use xlink:href="#DejaVuSans-73" x="650.488281"/>
      <use xlink:href="#DejaVuSans-75" x="702.587891"/>
      <use xlink:href="#DejaVuSans-72" x="765.966797"/>
      <use xlink:href="#DejaVuSans-70" x="807.080078"/>
      <use xlink:href="#DejaVuSans-72" x="870.556641"/>
      <use xlink:href="#DejaVuSans-69" x="911.669922"/>
      <use xlink:href="#DejaVuSans-73" x="939.453125"/>
      <use xlink:href="#DejaVuSans-61" x="991.552734"/>
      <use xlink:href="#DejaVuSans-6c" x="1052.832031"/>
     </g>
    </g>
    <g id="line2d_36">
     <path d="M 524.56 98.690937 
L 534.56 98.690937 
L 544.56 98.690937 
" style="fill: none; stroke: #9467bd; stroke-width: 1.5; stroke-linecap: square"/>
    </g>
    <g id="text_25">
     <!-- Node random split -->
     <g transform="translate(552.56 102.190937)scale(0.1 -0.1)">
      <use xlink:href="#DejaVuSans-4e"/>
      <use xlink:href="#DejaVuSans-6f" x="74.804688"/>
      <use xlink:href="#DejaVuSans-64" x="135.986328"/>
      <use xlink:href="#DejaVuSans-65" x="199.462891"/>
      <use xlink:href="#DejaVuSans-20" x="260.986328"/>
      <use xlink:href="#DejaVuSans-72" x="292.773438"/>
      <use xlink:href="#DejaVuSans-61" x="333.886719"/>
      <use xlink:href="#DejaVuSans-6e" x="395.166016"/>
      <use xlink:href="#DejaVuSans-64" x="458.544922"/>
      <use xlink:href="#DejaVuSans-6f" x="522.021484"/>
      <use xlink:href="#DejaVuSans-6d" x="583.203125"/>
      <use xlink:href="#DejaVuSans-20" x="680.615234"/>
      <use xlink:href="#DejaVuSans-73" x="712.402344"/>
      <use xlink:href="#DejaVuSans-70" x="764.501953"/>
      <use xlink:href="#DejaVuSans-6c" x="827.978516"/>
      <use xlink:href="#DejaVuSans-69" x="855.761719"/>
      <use xlink:href="#DejaVuSans-74" x="883.544922"/>
     </g>
    </g>
    <g id="line2d_37">
     <path d="M 524.56 113.369062 
L 534.56 113.369062 
L 544.56 113.369062 
" style="fill: none; stroke: #8c564b; stroke-width: 1.5; stroke-linecap: square"/>
    </g>
    <g id="text_26">
     <!-- Node random split + surprisal -->
     <g transform="translate(552.56 116.869062)scale(0.1 -0.1)">
      <use xlink:href="#DejaVuSans-4e"/>
      <use xlink:href="#DejaVuSans-6f" x="74.804688"/>
      <use xlink:href="#DejaVuSans-64" x="135.986328"/>
      <use xlink:href="#DejaVuSans-65" x="199.462891"/>
      <use xlink:href="#DejaVuSans-20" x="260.986328"/>
      <use xlink:href="#DejaVuSans-72" x="292.773438"/>
      <use xlink:href="#DejaVuSans-61" x="333.886719"/>
      <use xlink:href="#DejaVuSans-6e" x="395.166016"/>
      <use xlink:href="#DejaVuSans-64" x="458.544922"/>
      <use xlink:href="#DejaVuSans-6f" x="522.021484"/>
      <use xlink:href="#DejaVuSans-6d" x="583.203125"/>
      <use xlink:href="#DejaVuSans-20" x="680.615234"/>
      <use xlink:href="#DejaVuSans-73" x="712.402344"/>
      <use xlink:href="#DejaVuSans-70" x="764.501953"/>
      <use xlink:href="#DejaVuSans-6c" x="827.978516"/>
      <use xlink:href="#DejaVuSans-69" x="855.761719"/>
      <use xlink:href="#DejaVuSans-74" x="883.544922"/>
      <use xlink:href="#DejaVuSans-20" x="922.753906"/>
      <use xlink:href="#DejaVuSans-2b" x="954.541016"/>
      <use xlink:href="#DejaVuSans-20" x="1038.330078"/>
      <use xlink:href="#DejaVuSans-73" x="1070.117188"/>
      <use xlink:href="#DejaVuSans-75" x="1122.216797"/>
      <use xlink:href="#DejaVuSans-72" x="1185.595703"/>
      <use xlink:href="#DejaVuSans-70" x="1226.708984"/>
      <use xlink:href="#DejaVuSans-72" x="1290.185547"/>
      <use xlink:href="#DejaVuSans-69" x="1331.298828"/>
      <use xlink:href="#DejaVuSans-73" x="1359.082031"/>
      <use xlink:href="#DejaVuSans-61" x="1411.181641"/>
      <use xlink:href="#DejaVuSans-6c" x="1472.460938"/>
     </g>
    </g>
    <g id="line2d_38">
     <path d="M 524.56 128.047187 
L 534.56 128.047187 
L 544.56 128.047187 
" style="fill: none; stroke: #e377c2; stroke-width: 1.5; stroke-linecap: square"/>
    </g>
    <g id="text_27">
     <!-- Interaction -->
     <g transform="translate(552.56 131.547187)scale(0.1 -0.1)">
      <use xlink:href="#DejaVuSans-49"/>
      <use xlink:href="#DejaVuSans-6e" x="29.492188"/>
      <use xlink:href="#DejaVuSans-74" x="92.871094"/>
      <use xlink:href="#DejaVuSans-65" x="132.080078"/>
      <use xlink:href="#DejaVuSans-72" x="193.603516"/>
      <use xlink:href="#DejaVuSans-61" x="234.716797"/>
      <use xlink:href="#DejaVuSans-63" x="295.996094"/>
      <use xlink:href="#DejaVuSans-74" x="350.976562"/>
      <use xlink:href="#DejaVuSans-69" x="390.185547"/>
      <use xlink:href="#DejaVuSans-6f" x="417.96875"/>
      <use xlink:href="#DejaVuSans-6e" x="479.150391"/>
     </g>
    </g>
    <g id="line2d_39">
     <path d="M 524.56 142.725312 
L 534.56 142.725312 
L 544.56 142.725312 
" style="fill: none; stroke: #7f7f7f; stroke-width: 1.5; stroke-linecap: square"/>
    </g>
    <g id="text_28">
     <!-- Node + surprisal + interaction -->
     <g transform="translate(552.56 146.225312)scale(0.1 -0.1)">
      <use xlink:href="#DejaVuSans-4e"/>
      <use xlink:href="#DejaVuSans-6f" x="74.804688"/>
      <use xlink:href="#DejaVuSans-64" x="135.986328"/>
      <use xlink:href="#DejaVuSans-65" x="199.462891"/>
      <use xlink:href="#DejaVuSans-20" x="260.986328"/>
      <use xlink:href="#DejaVuSans-2b" x="292.773438"/>
      <use xlink:href="#DejaVuSans-20" x="376.5625"/>
      <use xlink:href="#DejaVuSans-73" x="408.349609"/>
      <use xlink:href="#DejaVuSans-75" x="460.449219"/>
      <use xlink:href="#DejaVuSans-72" x="523.828125"/>
      <use xlink:href="#DejaVuSans-70" x="564.941406"/>
      <use xlink:href="#DejaVuSans-72" x="628.417969"/>
      <use xlink:href="#DejaVuSans-69" x="669.53125"/>
      <use xlink:href="#DejaVuSans-73" x="697.314453"/>
      <use xlink:href="#DejaVuSans-61" x="749.414062"/>
      <use xlink:href="#DejaVuSans-6c" x="810.693359"/>
      <use xlink:href="#DejaVuSans-20" x="838.476562"/>
      <use xlink:href="#DejaVuSans-2b" x="870.263672"/>
      <use xlink:href="#DejaVuSans-20" x="954.052734"/>
      <use xlink:href="#DejaVuSans-69" x="985.839844"/>
      <use xlink:href="#DejaVuSans-6e" x="1013.623047"/>
      <use xlink:href="#DejaVuSans-74" x="1077.001953"/>
      <use xlink:href="#DejaVuSans-65" x="1116.210938"/>
      <use xlink:href="#DejaVuSans-72" x="1177.734375"/>
      <use xlink:href="#DejaVuSans-61" x="1218.847656"/>
      <use xlink:href="#DejaVuSans-63" x="1280.126953"/>
      <use xlink:href="#DejaVuSans-74" x="1335.107422"/>
      <use xlink:href="#DejaVuSans-69" x="1374.316406"/>
      <use xlink:href="#DejaVuSans-6f" x="1402.099609"/>
      <use xlink:href="#DejaVuSans-6e" x="1463.28125"/>
     </g>
    </g>
   </g>
  </g>
 </g>
 <defs>
  <clipPath id="pdc86626816">
   <rect x="47.72" y="26.88" width="217.495" height="147.16"/>
  </clipPath>
  <clipPath id="p3ac05f2b24">
   <rect x="298.065" y="26.88" width="217.495" height="147.16"/>
  </clipPath>
 </defs>
</svg>
