<?xml version="1.0" encoding="utf-8" standalone="no"?>
<!DOCTYPE svg PUBLIC "-//W3C//DTD SVG 1.1//EN"
  "http://www.w3.org/Graphics/SVG/1.1/DTD/svg11.dtd">
<svg xmlns:xlink="http://www.w3.org/1999/xlink" width="720pt" height="216pt" viewBox="0 0 720 216" xmlns="http://www.w3.org/2000/svg" version="1.1">
 <metadata>
  <rdf:RDF xmlns:dc="http://purl.org/dc/elements/1.1/" xmlns:cc="http://creativecommons.org/ns#" xmlns:rdf="http://www.w3.org/1999/02/22-rdf-syntax-ns#">
   <cc:Work>
    <dc:type rdf:resource="http://purl.org/dc/dcmitype/StillImage"/>
    <dc:date>2024-01-15T19:35:12.871541</dc:date>
    <dc:format>image/svg+xml</dc:format>
    <dc:creator>
     <cc:Agent>
      <dc:title>Matplotlib v3.5.1, https://matplotlib.org/</dc:title>
     </cc:Agent>
    </dc:creator>
   </cc:Work>
  </rdf:RDF>
 </metadata>
 <defs>
  <style type="text/css">*{stroke-linejoin: round; stroke-linecap: butt}</style>
 </defs>
 <g id="figure_1">
  <g id="patch_1">
   <path d="M 0 216 
L 720 216 
L 720 0 
L 0 0 
z
" style="fill: #ffffff"/>
  </g>
  <g id="axes_1">
   <g id="patch_2">
    <path d="M 47.72 174.04 
L 265.215 174.04 
L 265.215 26.88 
L 47.72 26.88 
z
" style="fill: #ffffff"/>
   </g>
   <g id="PolyCollection_1">
    <path d="M 47.72 33.569091 
L 47.72 33.569091 
L 59.167105 36.046611 
L 70.614211 42.500156 
L 82.061316 50.400311 
L 93.508421 59.865529 
L 104.955526 70.342539 
L 116.402632 80.456468 
L 127.849737 90.84359 
L 139.296842 100.276899 
L 150.743947 109.180329 
L 162.191053 116.969002 
L 173.638158 124.266697 
L 185.085263 130.416371 
L 196.532368 135.471654 
L 207.979474 142.289314 
L 219.426579 146.279244 
L 230.873684 150.109051 
L 242.320789 154.243584 
L 253.767895 157.395447 
L 265.215 160.101366 
L 265.215 147.551907 
L 265.215 147.551907 
L 253.767895 144.136766 
L 242.320789 140.328718 
L 230.873684 136.574469 
L 219.426579 131.358824 
L 207.979474 126.574183 
L 196.532368 121.669613 
L 185.085263 115.957601 
L 173.638158 108.447053 
L 162.191053 102.009307 
L 150.743947 93.799827 
L 139.296842 85.750505 
L 127.849737 77.472658 
L 116.402632 68.697532 
L 104.955526 59.953726 
L 93.508421 51.88157 
L 82.061316 45.069787 
L 70.614211 39.314655 
L 59.167105 34.836283 
L 47.72 33.569091 
z
" clip-path="url(#pce0f6793ed)" style="fill: #1f77b4; fill-opacity: 0.4"/>
   </g>
   <g id="PolyCollection_2">
    <path d="M 47.72 33.56921 
L 47.72 33.569248 
L 59.167105 35.25907 
L 70.614211 39.013594 
L 82.061316 44.293077 
L 93.508421 50.705967 
L 104.955526 58.895639 
L 116.402632 67.393592 
L 127.849737 76.463495 
L 139.296842 86.122862 
L 150.743947 94.95019 
L 162.191053 103.465609 
L 173.638158 111.293107 
L 185.085263 117.842957 
L 196.532368 123.610653 
L 207.979474 131.063426 
L 219.426579 135.717254 
L 230.873684 139.991013 
L 242.320789 144.56586 
L 253.767895 148.237023 
L 265.215 151.405036 
L 265.215 138.357537 
L 265.215 138.357537 
L 253.767895 134.241246 
L 242.320789 129.601327 
L 230.873684 125.39466 
L 219.426579 119.417304 
L 207.979474 114.120152 
L 196.532368 108.440974 
L 185.085263 102.31853 
L 173.638158 94.238443 
L 162.191053 88.020434 
L 150.743947 80.479606 
L 139.296842 73.010516 
L 127.849737 66.015013 
L 116.402632 58.685524 
L 104.955526 51.437781 
L 93.508421 45.223683 
L 82.061316 40.330192 
L 70.614211 36.963662 
L 59.167105 34.441463 
L 47.72 33.56921 
z
" clip-path="url(#pce0f6793ed)" style="fill: #ff7f0e; fill-opacity: 0.4"/>
   </g>
   <g id="PolyCollection_3">
    <path d="M 47.72 33.569091 
L 47.72 33.569092 
L 59.167105 35.481555 
L 70.614211 38.50644 
L 82.061316 42.054291 
L 93.508421 46.600783 
L 104.955526 51.243093 
L 116.402632 56.410411 
L 127.849737 61.804197 
L 139.296842 67.291725 
L 150.743947 71.903196 
L 162.191053 76.764414 
L 173.638158 81.931389 
L 185.085263 86.448172 
L 196.532368 90.4068 
L 207.979474 95.752884 
L 219.426579 99.780287 
L 230.873684 103.955299 
L 242.320789 108.60804 
L 253.767895 112.186461 
L 265.215 116.24694 
L 265.215 100.455801 
L 265.215 100.455801 
L 253.767895 96.810614 
L 242.320789 93.16051 
L 230.873684 89.98245 
L 219.426579 86.221213 
L 207.979474 82.41556 
L 196.532368 78.23228 
L 185.085263 73.995963 
L 173.638158 69.747037 
L 162.191053 65.617153 
L 150.743947 61.223347 
L 139.296842 57.513082 
L 127.849737 52.828684 
L 116.402632 48.884612 
L 104.955526 45.791024 
L 93.508421 42.179053 
L 82.061316 39.307133 
L 70.614211 36.762659 
L 59.167105 34.622835 
L 47.72 33.569091 
z
" clip-path="url(#pce0f6793ed)" style="fill: #2ca02c; fill-opacity: 0.4"/>
   </g>
   <g id="PolyCollection_4">
    <path d="M 47.72 33.569744 
L 47.72 33.569952 
L 59.167105 35.137363 
L 70.614211 37.505367 
L 82.061316 40.531203 
L 93.508421 44.483004 
L 104.955526 48.969097 
L 116.402632 54.15448 
L 127.849737 59.523069 
L 139.296842 65.391357 
L 150.743947 70.252586 
L 162.191053 75.348856 
L 173.638158 80.707895 
L 185.085263 85.312458 
L 196.532368 89.244134 
L 207.979474 94.477805 
L 219.426579 98.399996 
L 230.873684 102.34324 
L 242.320789 106.729284 
L 253.767895 109.996835 
L 265.215 113.756427 
L 265.215 99.176911 
L 265.215 99.176911 
L 253.767895 95.612799 
L 242.320789 92.071804 
L 230.873684 88.918565 
L 219.426579 85.150338 
L 207.979474 81.391884 
L 196.532368 77.264367 
L 185.085263 73.00644 
L 173.638158 68.745596 
L 162.191053 64.558624 
L 150.743947 59.964295 
L 139.296842 55.976384 
L 127.849737 51.232594 
L 116.402632 47.181021 
L 104.955526 44.014883 
L 93.508421 40.580659 
L 82.061316 38.021533 
L 70.614211 36.053945 
L 59.167105 34.421993 
L 47.72 33.569744 
z
" clip-path="url(#pce0f6793ed)" style="fill: #d62728; fill-opacity: 0.4"/>
   </g>
   <g id="PolyCollection_5">
    <path d="M 47.72 33.569091 
L 47.72 33.569091 
L 59.167105 36.060829 
L 70.614211 42.503436 
L 82.061316 50.373238 
L 93.508421 60.163863 
L 104.955526 70.40903 
L 116.402632 80.475779 
L 127.849737 90.821348 
L 139.296842 100.141884 
L 150.743947 109.640732 
L 162.191053 117.077848 
L 173.638158 124.334601 
L 185.085263 131.270726 
L 196.532368 136.708146 
L 207.979474 142.336473 
L 219.426579 146.17432 
L 230.873684 149.769474 
L 242.320789 156.609426 
L 253.767895 157.515563 
L 265.215 161.265134 
L 265.215 149.464094 
L 265.215 149.464094 
L 253.767895 144.391401 
L 242.320789 140.240385 
L 230.873684 137.044691 
L 219.426579 131.913751 
L 207.979474 126.329756 
L 196.532368 122.360371 
L 185.085263 116.558379 
L 173.638158 108.481233 
L 162.191053 102.47303 
L 150.743947 94.679633 
L 139.296842 85.794613 
L 127.849737 77.525964 
L 116.402632 68.650084 
L 104.955526 60.028987 
L 93.508421 51.850148 
L 82.061316 45.163255 
L 70.614211 39.393204 
L 59.167105 34.837199 
L 47.72 33.569091 
z
" clip-path="url(#pce0f6793ed)" style="fill: #9467bd; fill-opacity: 0.4"/>
   </g>
   <g id="PolyCollection_6">
    <path d="M 47.72 33.569564 
L 47.72 33.569718 
L 59.167105 35.266077 
L 70.614211 39.010203 
L 82.061316 44.297515 
L 93.508421 50.853233 
L 104.955526 58.93703 
L 116.402632 67.388491 
L 127.849737 76.523129 
L 139.296842 85.981425 
L 150.743947 95.151397 
L 162.191053 103.54908 
L 173.638158 111.315581 
L 185.085263 118.386621 
L 196.532368 124.432731 
L 207.979474 131.215324 
L 219.426579 135.618619 
L 230.873684 139.650193 
L 242.320789 146.476701 
L 253.767895 148.27557 
L 265.215 152.43519 
L 265.215 139.603943 
L 265.215 139.603943 
L 253.767895 134.345862 
L 242.320789 129.358493 
L 230.873684 125.845535 
L 219.426579 119.801148 
L 207.979474 113.841799 
L 196.532368 108.918314 
L 185.085263 102.557879 
L 173.638158 94.198283 
L 162.191053 88.357366 
L 150.743947 81.119517 
L 139.296842 73.078803 
L 127.849737 66.078334 
L 116.402632 58.786632 
L 104.955526 51.468749 
L 93.508421 45.220851 
L 82.061316 40.35348 
L 70.614211 37.009097 
L 59.167105 34.442022 
L 47.72 33.569564 
z
" clip-path="url(#pce0f6793ed)" style="fill: #8c564b; fill-opacity: 0.4"/>
   </g>
   <g id="PolyCollection_7">
    <path d="M 47.72 43.242304 
L 47.72 47.039959 
L 59.167105 50.688724 
L 70.614211 58.771739 
L 82.061316 68.363471 
L 93.508421 78.569923 
L 104.955526 89.319871 
L 116.402632 99.710392 
L 127.849737 110.06565 
L 139.296842 118.800686 
L 150.743947 126.92779 
L 162.191053 133.451144 
L 173.638158 139.898535 
L 185.085263 145.250005 
L 196.532368 149.316187 
L 207.979474 154.527483 
L 219.426579 157.426382 
L 230.873684 160.321204 
L 242.320789 163.119446 
L 253.767895 165.15891 
L 265.215 167.350909 
L 265.215 156.649167 
L 265.215 156.649167 
L 253.767895 154.210619 
L 242.320789 151.367783 
L 230.873684 147.995124 
L 219.426579 144.146407 
L 207.979474 139.6252 
L 196.532368 135.699046 
L 185.085263 130.400554 
L 173.638158 124.087381 
L 162.191053 117.291664 
L 150.743947 109.425355 
L 139.296842 101.682787 
L 127.849737 93.104061 
L 116.402632 83.721725 
L 104.955526 74.801598 
L 93.508421 65.309255 
L 82.061316 56.906207 
L 70.614211 49.753494 
L 59.167105 44.867331 
L 47.72 43.242304 
z
" clip-path="url(#pce0f6793ed)" style="fill: #e377c2; fill-opacity: 0.4"/>
   </g>
   <g id="PolyCollection_8">
    <path d="M 47.72 33.569289 
L 47.72 33.569483 
L 59.167105 34.316842 
L 70.614211 35.82917 
L 82.061316 39.866636 
L 93.508421 45.069455 
L 104.955526 50.904729 
L 116.402632 57.521343 
L 127.849737 65.646839 
L 139.296842 74.697029 
L 150.743947 83.645888 
L 162.191053 92.57464 
L 173.638158 100.700719 
L 185.085263 107.684512 
L 196.532368 113.836331 
L 207.979474 121.52007 
L 219.426579 126.780324 
L 230.873684 131.887408 
L 242.320789 136.892861 
L 253.767895 141.094486 
L 265.215 144.905216 
L 265.215 128.506748 
L 265.215 128.506748 
L 253.767895 123.916155 
L 242.320789 118.780002 
L 230.873684 113.971205 
L 219.426579 107.600733 
L 207.979474 101.552658 
L 196.532368 94.849288 
L 185.085263 88.127456 
L 173.638158 80.087569 
L 162.191053 73.298471 
L 150.743947 65.691417 
L 139.296842 58.879646 
L 127.849737 52.339035 
L 116.402632 46.366226 
L 104.955526 40.508719 
L 93.508421 36.309633 
L 82.061316 34.371598 
L 70.614211 34.174384 
L 59.167105 34.031029 
L 47.72 33.569289 
z
" clip-path="url(#pce0f6793ed)" style="fill: #7f7f7f; fill-opacity: 0.4"/>
   </g>
   <g id="matplotlib.axis_1">
    <g id="xtick_1">
     <g id="line2d_1">
      <defs>
       <path id="m0d4e62c3fa" d="M 0 0 
L 0 3.5 
" style="stroke: #000000; stroke-width: 0.8"/>
      </defs>
      <g>
       <use xlink:href="#m0d4e62c3fa" x="47.72" y="174.04" style="stroke: #000000; stroke-width: 0.8"/>
      </g>
     </g>
     <g id="text_1">
      <!-- 0.0 -->
      <g transform="translate(39.768438 188.638438)scale(0.1 -0.1)">
       <defs>
        <path id="DejaVuSans-30" d="M 2034 4250 
Q 1547 4250 1301 3770 
Q 1056 3291 1056 2328 
Q 1056 1369 1301 889 
Q 1547 409 2034 409 
Q 2525 409 2770 889 
Q 3016 1369 3016 2328 
Q 3016 3291 2770 3770 
Q 2525 4250 2034 4250 
z
M 2034 4750 
Q 2819 4750 3233 4129 
Q 3647 3509 3647 2328 
Q 3647 1150 3233 529 
Q 2819 -91 2034 -91 
Q 1250 -91 836 529 
Q 422 1150 422 2328 
Q 422 3509 836 4129 
Q 1250 4750 2034 4750 
z
" transform="scale(0.015625)"/>
        <path id="DejaVuSans-2e" d="M 684 794 
L 1344 794 
L 1344 0 
L 684 0 
L 684 794 
z
" transform="scale(0.015625)"/>
       </defs>
       <use xlink:href="#DejaVuSans-30"/>
       <use xlink:href="#DejaVuSans-2e" x="63.623047"/>
       <use xlink:href="#DejaVuSans-30" x="95.410156"/>
      </g>
     </g>
    </g>
    <g id="xtick_2">
     <g id="line2d_2">
      <g>
       <use xlink:href="#m0d4e62c3fa" x="102.09375" y="174.04" style="stroke: #000000; stroke-width: 0.8"/>
      </g>
     </g>
     <g id="text_2">
      <!-- 0.5 -->
      <g transform="translate(94.142188 188.638438)scale(0.1 -0.1)">
       <defs>
        <path id="DejaVuSans-35" d="M 691 4666 
L 3169 4666 
L 3169 4134 
L 1269 4134 
L 1269 2991 
Q 1406 3038 1543 3061 
Q 1681 3084 1819 3084 
Q 2600 3084 3056 2656 
Q 3513 2228 3513 1497 
Q 3513 744 3044 326 
Q 2575 -91 1722 -91 
Q 1428 -91 1123 -41 
Q 819 9 494 109 
L 494 744 
Q 775 591 1075 516 
Q 1375 441 1709 441 
Q 2250 441 2565 725 
Q 2881 1009 2881 1497 
Q 2881 1984 2565 2268 
Q 2250 2553 1709 2553 
Q 1456 2553 1204 2497 
Q 953 2441 691 2322 
L 691 4666 
z
" transform="scale(0.015625)"/>
       </defs>
       <use xlink:href="#DejaVuSans-30"/>
       <use xlink:href="#DejaVuSans-2e" x="63.623047"/>
       <use xlink:href="#DejaVuSans-35" x="95.410156"/>
      </g>
     </g>
    </g>
    <g id="xtick_3">
     <g id="line2d_3">
      <g>
       <use xlink:href="#m0d4e62c3fa" x="156.4675" y="174.04" style="stroke: #000000; stroke-width: 0.8"/>
      </g>
     </g>
     <g id="text_3">
      <!-- 1.0 -->
      <g transform="translate(148.515938 188.638438)scale(0.1 -0.1)">
       <defs>
        <path id="DejaVuSans-31" d="M 794 531 
L 1825 531 
L 1825 4091 
L 703 3866 
L 703 4441 
L 1819 4666 
L 2450 4666 
L 2450 531 
L 3481 531 
L 3481 0 
L 794 0 
L 794 531 
z
" transform="scale(0.015625)"/>
       </defs>
       <use xlink:href="#DejaVuSans-31"/>
       <use xlink:href="#DejaVuSans-2e" x="63.623047"/>
       <use xlink:href="#DejaVuSans-30" x="95.410156"/>
      </g>
     </g>
    </g>
    <g id="xtick_4">
     <g id="line2d_4">
      <g>
       <use xlink:href="#m0d4e62c3fa" x="210.84125" y="174.04" style="stroke: #000000; stroke-width: 0.8"/>
      </g>
     </g>
     <g id="text_4">
      <!-- 1.5 -->
      <g transform="translate(202.889687 188.638438)scale(0.1 -0.1)">
       <use xlink:href="#DejaVuSans-31"/>
       <use xlink:href="#DejaVuSans-2e" x="63.623047"/>
       <use xlink:href="#DejaVuSans-35" x="95.410156"/>
      </g>
     </g>
    </g>
    <g id="xtick_5">
     <g id="line2d_5">
      <g>
       <use xlink:href="#m0d4e62c3fa" x="265.215" y="174.04" style="stroke: #000000; stroke-width: 0.8"/>
      </g>
     </g>
     <g id="text_5">
      <!-- 2.0 -->
      <g transform="translate(257.263437 188.638438)scale(0.1 -0.1)">
       <defs>
        <path id="DejaVuSans-32" d="M 1228 531 
L 3431 531 
L 3431 0 
L 469 0 
L 469 531 
Q 828 903 1448 1529 
Q 2069 2156 2228 2338 
Q 2531 2678 2651 2914 
Q 2772 3150 2772 3378 
Q 2772 3750 2511 3984 
Q 2250 4219 1831 4219 
Q 1534 4219 1204 4116 
Q 875 4013 500 3803 
L 500 4441 
Q 881 4594 1212 4672 
Q 1544 4750 1819 4750 
Q 2544 4750 2975 4387 
Q 3406 4025 3406 3419 
Q 3406 3131 3298 2873 
Q 3191 2616 2906 2266 
Q 2828 2175 2409 1742 
Q 1991 1309 1228 531 
z
" transform="scale(0.015625)"/>
       </defs>
       <use xlink:href="#DejaVuSans-32"/>
       <use xlink:href="#DejaVuSans-2e" x="63.623047"/>
       <use xlink:href="#DejaVuSans-30" x="95.410156"/>
      </g>
     </g>
    </g>
    <g id="text_6">
     <!-- Influence of surprisal (multiplication) -->
     <g transform="translate(64.320625 202.316563)scale(0.1 -0.1)">
      <defs>
       <path id="DejaVuSans-49" d="M 628 4666 
L 1259 4666 
L 1259 0 
L 628 0 
L 628 4666 
z
" transform="scale(0.015625)"/>
       <path id="DejaVuSans-6e" d="M 3513 2113 
L 3513 0 
L 2938 0 
L 2938 2094 
Q 2938 2591 2744 2837 
Q 2550 3084 2163 3084 
Q 1697 3084 1428 2787 
Q 1159 2491 1159 1978 
L 1159 0 
L 581 0 
L 581 3500 
L 1159 3500 
L 1159 2956 
Q 1366 3272 1645 3428 
Q 1925 3584 2291 3584 
Q 2894 3584 3203 3211 
Q 3513 2838 3513 2113 
z
" transform="scale(0.015625)"/>
       <path id="DejaVuSans-66" d="M 2375 4863 
L 2375 4384 
L 1825 4384 
Q 1516 4384 1395 4259 
Q 1275 4134 1275 3809 
L 1275 3500 
L 2222 3500 
L 2222 3053 
L 1275 3053 
L 1275 0 
L 697 0 
L 697 3053 
L 147 3053 
L 147 3500 
L 697 3500 
L 697 3744 
Q 697 4328 969 4595 
Q 1241 4863 1831 4863 
L 2375 4863 
z
" transform="scale(0.015625)"/>
       <path id="DejaVuSans-6c" d="M 603 4863 
L 1178 4863 
L 1178 0 
L 603 0 
L 603 4863 
z
" transform="scale(0.015625)"/>
       <path id="DejaVuSans-75" d="M 544 1381 
L 544 3500 
L 1119 3500 
L 1119 1403 
Q 1119 906 1312 657 
Q 1506 409 1894 409 
Q 2359 409 2629 706 
Q 2900 1003 2900 1516 
L 2900 3500 
L 3475 3500 
L 3475 0 
L 2900 0 
L 2900 538 
Q 2691 219 2414 64 
Q 2138 -91 1772 -91 
Q 1169 -91 856 284 
Q 544 659 544 1381 
z
M 1991 3584 
L 1991 3584 
z
" transform="scale(0.015625)"/>
       <path id="DejaVuSans-65" d="M 3597 1894 
L 3597 1613 
L 953 1613 
Q 991 1019 1311 708 
Q 1631 397 2203 397 
Q 2534 397 2845 478 
Q 3156 559 3463 722 
L 3463 178 
Q 3153 47 2828 -22 
Q 2503 -91 2169 -91 
Q 1331 -91 842 396 
Q 353 884 353 1716 
Q 353 2575 817 3079 
Q 1281 3584 2069 3584 
Q 2775 3584 3186 3129 
Q 3597 2675 3597 1894 
z
M 3022 2063 
Q 3016 2534 2758 2815 
Q 2500 3097 2075 3097 
Q 1594 3097 1305 2825 
Q 1016 2553 972 2059 
L 3022 2063 
z
" transform="scale(0.015625)"/>
       <path id="DejaVuSans-63" d="M 3122 3366 
L 3122 2828 
Q 2878 2963 2633 3030 
Q 2388 3097 2138 3097 
Q 1578 3097 1268 2742 
Q 959 2388 959 1747 
Q 959 1106 1268 751 
Q 1578 397 2138 397 
Q 2388 397 2633 464 
Q 2878 531 3122 666 
L 3122 134 
Q 2881 22 2623 -34 
Q 2366 -91 2075 -91 
Q 1284 -91 818 406 
Q 353 903 353 1747 
Q 353 2603 823 3093 
Q 1294 3584 2113 3584 
Q 2378 3584 2631 3529 
Q 2884 3475 3122 3366 
z
" transform="scale(0.015625)"/>
       <path id="DejaVuSans-20" transform="scale(0.015625)"/>
       <path id="DejaVuSans-6f" d="M 1959 3097 
Q 1497 3097 1228 2736 
Q 959 2375 959 1747 
Q 959 1119 1226 758 
Q 1494 397 1959 397 
Q 2419 397 2687 759 
Q 2956 1122 2956 1747 
Q 2956 2369 2687 2733 
Q 2419 3097 1959 3097 
z
M 1959 3584 
Q 2709 3584 3137 3096 
Q 3566 2609 3566 1747 
Q 3566 888 3137 398 
Q 2709 -91 1959 -91 
Q 1206 -91 779 398 
Q 353 888 353 1747 
Q 353 2609 779 3096 
Q 1206 3584 1959 3584 
z
" transform="scale(0.015625)"/>
       <path id="DejaVuSans-73" d="M 2834 3397 
L 2834 2853 
Q 2591 2978 2328 3040 
Q 2066 3103 1784 3103 
Q 1356 3103 1142 2972 
Q 928 2841 928 2578 
Q 928 2378 1081 2264 
Q 1234 2150 1697 2047 
L 1894 2003 
Q 2506 1872 2764 1633 
Q 3022 1394 3022 966 
Q 3022 478 2636 193 
Q 2250 -91 1575 -91 
Q 1294 -91 989 -36 
Q 684 19 347 128 
L 347 722 
Q 666 556 975 473 
Q 1284 391 1588 391 
Q 1994 391 2212 530 
Q 2431 669 2431 922 
Q 2431 1156 2273 1281 
Q 2116 1406 1581 1522 
L 1381 1569 
Q 847 1681 609 1914 
Q 372 2147 372 2553 
Q 372 3047 722 3315 
Q 1072 3584 1716 3584 
Q 2034 3584 2315 3537 
Q 2597 3491 2834 3397 
z
" transform="scale(0.015625)"/>
       <path id="DejaVuSans-72" d="M 2631 2963 
Q 2534 3019 2420 3045 
Q 2306 3072 2169 3072 
Q 1681 3072 1420 2755 
Q 1159 2438 1159 1844 
L 1159 0 
L 581 0 
L 581 3500 
L 1159 3500 
L 1159 2956 
Q 1341 3275 1631 3429 
Q 1922 3584 2338 3584 
Q 2397 3584 2469 3576 
Q 2541 3569 2628 3553 
L 2631 2963 
z
" transform="scale(0.015625)"/>
       <path id="DejaVuSans-70" d="M 1159 525 
L 1159 -1331 
L 581 -1331 
L 581 3500 
L 1159 3500 
L 1159 2969 
Q 1341 3281 1617 3432 
Q 1894 3584 2278 3584 
Q 2916 3584 3314 3078 
Q 3713 2572 3713 1747 
Q 3713 922 3314 415 
Q 2916 -91 2278 -91 
Q 1894 -91 1617 61 
Q 1341 213 1159 525 
z
M 3116 1747 
Q 3116 2381 2855 2742 
Q 2594 3103 2138 3103 
Q 1681 3103 1420 2742 
Q 1159 2381 1159 1747 
Q 1159 1113 1420 752 
Q 1681 391 2138 391 
Q 2594 391 2855 752 
Q 3116 1113 3116 1747 
z
" transform="scale(0.015625)"/>
       <path id="DejaVuSans-69" d="M 603 3500 
L 1178 3500 
L 1178 0 
L 603 0 
L 603 3500 
z
M 603 4863 
L 1178 4863 
L 1178 4134 
L 603 4134 
L 603 4863 
z
" transform="scale(0.015625)"/>
       <path id="DejaVuSans-61" d="M 2194 1759 
Q 1497 1759 1228 1600 
Q 959 1441 959 1056 
Q 959 750 1161 570 
Q 1363 391 1709 391 
Q 2188 391 2477 730 
Q 2766 1069 2766 1631 
L 2766 1759 
L 2194 1759 
z
M 3341 1997 
L 3341 0 
L 2766 0 
L 2766 531 
Q 2569 213 2275 61 
Q 1981 -91 1556 -91 
Q 1019 -91 701 211 
Q 384 513 384 1019 
Q 384 1609 779 1909 
Q 1175 2209 1959 2209 
L 2766 2209 
L 2766 2266 
Q 2766 2663 2505 2880 
Q 2244 3097 1772 3097 
Q 1472 3097 1187 3025 
Q 903 2953 641 2809 
L 641 3341 
Q 956 3463 1253 3523 
Q 1550 3584 1831 3584 
Q 2591 3584 2966 3190 
Q 3341 2797 3341 1997 
z
" transform="scale(0.015625)"/>
       <path id="DejaVuSans-28" d="M 1984 4856 
Q 1566 4138 1362 3434 
Q 1159 2731 1159 2009 
Q 1159 1288 1364 580 
Q 1569 -128 1984 -844 
L 1484 -844 
Q 1016 -109 783 600 
Q 550 1309 550 2009 
Q 550 2706 781 3412 
Q 1013 4119 1484 4856 
L 1984 4856 
z
" transform="scale(0.015625)"/>
       <path id="DejaVuSans-6d" d="M 3328 2828 
Q 3544 3216 3844 3400 
Q 4144 3584 4550 3584 
Q 5097 3584 5394 3201 
Q 5691 2819 5691 2113 
L 5691 0 
L 5113 0 
L 5113 2094 
Q 5113 2597 4934 2840 
Q 4756 3084 4391 3084 
Q 3944 3084 3684 2787 
Q 3425 2491 3425 1978 
L 3425 0 
L 2847 0 
L 2847 2094 
Q 2847 2600 2669 2842 
Q 2491 3084 2119 3084 
Q 1678 3084 1418 2786 
Q 1159 2488 1159 1978 
L 1159 0 
L 581 0 
L 581 3500 
L 1159 3500 
L 1159 2956 
Q 1356 3278 1631 3431 
Q 1906 3584 2284 3584 
Q 2666 3584 2933 3390 
Q 3200 3197 3328 2828 
z
" transform="scale(0.015625)"/>
       <path id="DejaVuSans-74" d="M 1172 4494 
L 1172 3500 
L 2356 3500 
L 2356 3053 
L 1172 3053 
L 1172 1153 
Q 1172 725 1289 603 
Q 1406 481 1766 481 
L 2356 481 
L 2356 0 
L 1766 0 
Q 1100 0 847 248 
Q 594 497 594 1153 
L 594 3053 
L 172 3053 
L 172 3500 
L 594 3500 
L 594 4494 
L 1172 4494 
z
" transform="scale(0.015625)"/>
       <path id="DejaVuSans-29" d="M 513 4856 
L 1013 4856 
Q 1481 4119 1714 3412 
Q 1947 2706 1947 2009 
Q 1947 1309 1714 600 
Q 1481 -109 1013 -844 
L 513 -844 
Q 928 -128 1133 580 
Q 1338 1288 1338 2009 
Q 1338 2731 1133 3434 
Q 928 4138 513 4856 
z
" transform="scale(0.015625)"/>
      </defs>
      <use xlink:href="#DejaVuSans-49"/>
      <use xlink:href="#DejaVuSans-6e" x="29.492188"/>
      <use xlink:href="#DejaVuSans-66" x="92.871094"/>
      <use xlink:href="#DejaVuSans-6c" x="128.076172"/>
      <use xlink:href="#DejaVuSans-75" x="155.859375"/>
      <use xlink:href="#DejaVuSans-65" x="219.238281"/>
      <use xlink:href="#DejaVuSans-6e" x="280.761719"/>
      <use xlink:href="#DejaVuSans-63" x="344.140625"/>
      <use xlink:href="#DejaVuSans-65" x="399.121094"/>
      <use xlink:href="#DejaVuSans-20" x="460.644531"/>
      <use xlink:href="#DejaVuSans-6f" x="492.431641"/>
      <use xlink:href="#DejaVuSans-66" x="553.613281"/>
      <use xlink:href="#DejaVuSans-20" x="588.818359"/>
      <use xlink:href="#DejaVuSans-73" x="620.605469"/>
      <use xlink:href="#DejaVuSans-75" x="672.705078"/>
      <use xlink:href="#DejaVuSans-72" x="736.083984"/>
      <use xlink:href="#DejaVuSans-70" x="777.197266"/>
      <use xlink:href="#DejaVuSans-72" x="840.673828"/>
      <use xlink:href="#DejaVuSans-69" x="881.787109"/>
      <use xlink:href="#DejaVuSans-73" x="909.570312"/>
      <use xlink:href="#DejaVuSans-61" x="961.669922"/>
      <use xlink:href="#DejaVuSans-6c" x="1022.949219"/>
      <use xlink:href="#DejaVuSans-20" x="1050.732422"/>
      <use xlink:href="#DejaVuSans-28" x="1082.519531"/>
      <use xlink:href="#DejaVuSans-6d" x="1121.533203"/>
      <use xlink:href="#DejaVuSans-75" x="1218.945312"/>
      <use xlink:href="#DejaVuSans-6c" x="1282.324219"/>
      <use xlink:href="#DejaVuSans-74" x="1310.107422"/>
      <use xlink:href="#DejaVuSans-69" x="1349.316406"/>
      <use xlink:href="#DejaVuSans-70" x="1377.099609"/>
      <use xlink:href="#DejaVuSans-6c" x="1440.576172"/>
      <use xlink:href="#DejaVuSans-69" x="1468.359375"/>
      <use xlink:href="#DejaVuSans-63" x="1496.142578"/>
      <use xlink:href="#DejaVuSans-61" x="1551.123047"/>
      <use xlink:href="#DejaVuSans-74" x="1612.402344"/>
      <use xlink:href="#DejaVuSans-69" x="1651.611328"/>
      <use xlink:href="#DejaVuSans-6f" x="1679.394531"/>
      <use xlink:href="#DejaVuSans-6e" x="1740.576172"/>
      <use xlink:href="#DejaVuSans-29" x="1803.955078"/>
     </g>
    </g>
   </g>
   <g id="matplotlib.axis_2">
    <g id="ytick_1">
     <g id="line2d_6">
      <defs>
       <path id="mf5734c06f2" d="M 0 0 
L -3.5 0 
" style="stroke: #000000; stroke-width: 0.8"/>
      </defs>
      <g>
       <use xlink:href="#mf5734c06f2" x="47.72" y="156.150515" style="stroke: #000000; stroke-width: 0.8"/>
      </g>
     </g>
     <g id="text_7">
      <!-- 0.2 -->
      <g transform="translate(24.816875 159.949734)scale(0.1 -0.1)">
       <use xlink:href="#DejaVuSans-30"/>
       <use xlink:href="#DejaVuSans-2e" x="63.623047"/>
       <use xlink:href="#DejaVuSans-32" x="95.410156"/>
      </g>
     </g>
    </g>
    <g id="ytick_2">
     <g id="line2d_7">
      <g>
       <use xlink:href="#mf5734c06f2" x="47.72" y="125.505159" style="stroke: #000000; stroke-width: 0.8"/>
      </g>
     </g>
     <g id="text_8">
      <!-- 0.4 -->
      <g transform="translate(24.816875 129.304378)scale(0.1 -0.1)">
       <defs>
        <path id="DejaVuSans-34" d="M 2419 4116 
L 825 1625 
L 2419 1625 
L 2419 4116 
z
M 2253 4666 
L 3047 4666 
L 3047 1625 
L 3713 1625 
L 3713 1100 
L 3047 1100 
L 3047 0 
L 2419 0 
L 2419 1100 
L 313 1100 
L 313 1709 
L 2253 4666 
z
" transform="scale(0.015625)"/>
       </defs>
       <use xlink:href="#DejaVuSans-30"/>
       <use xlink:href="#DejaVuSans-2e" x="63.623047"/>
       <use xlink:href="#DejaVuSans-34" x="95.410156"/>
      </g>
     </g>
    </g>
    <g id="ytick_3">
     <g id="line2d_8">
      <g>
       <use xlink:href="#mf5734c06f2" x="47.72" y="94.859803" style="stroke: #000000; stroke-width: 0.8"/>
      </g>
     </g>
     <g id="text_9">
      <!-- 0.6 -->
      <g transform="translate(24.816875 98.659022)scale(0.1 -0.1)">
       <defs>
        <path id="DejaVuSans-36" d="M 2113 2584 
Q 1688 2584 1439 2293 
Q 1191 2003 1191 1497 
Q 1191 994 1439 701 
Q 1688 409 2113 409 
Q 2538 409 2786 701 
Q 3034 994 3034 1497 
Q 3034 2003 2786 2293 
Q 2538 2584 2113 2584 
z
M 3366 4563 
L 3366 3988 
Q 3128 4100 2886 4159 
Q 2644 4219 2406 4219 
Q 1781 4219 1451 3797 
Q 1122 3375 1075 2522 
Q 1259 2794 1537 2939 
Q 1816 3084 2150 3084 
Q 2853 3084 3261 2657 
Q 3669 2231 3669 1497 
Q 3669 778 3244 343 
Q 2819 -91 2113 -91 
Q 1303 -91 875 529 
Q 447 1150 447 2328 
Q 447 3434 972 4092 
Q 1497 4750 2381 4750 
Q 2619 4750 2861 4703 
Q 3103 4656 3366 4563 
z
" transform="scale(0.015625)"/>
       </defs>
       <use xlink:href="#DejaVuSans-30"/>
       <use xlink:href="#DejaVuSans-2e" x="63.623047"/>
       <use xlink:href="#DejaVuSans-36" x="95.410156"/>
      </g>
     </g>
    </g>
    <g id="ytick_4">
     <g id="line2d_9">
      <g>
       <use xlink:href="#mf5734c06f2" x="47.72" y="64.214447" style="stroke: #000000; stroke-width: 0.8"/>
      </g>
     </g>
     <g id="text_10">
      <!-- 0.8 -->
      <g transform="translate(24.816875 68.013666)scale(0.1 -0.1)">
       <defs>
        <path id="DejaVuSans-38" d="M 2034 2216 
Q 1584 2216 1326 1975 
Q 1069 1734 1069 1313 
Q 1069 891 1326 650 
Q 1584 409 2034 409 
Q 2484 409 2743 651 
Q 3003 894 3003 1313 
Q 3003 1734 2745 1975 
Q 2488 2216 2034 2216 
z
M 1403 2484 
Q 997 2584 770 2862 
Q 544 3141 544 3541 
Q 544 4100 942 4425 
Q 1341 4750 2034 4750 
Q 2731 4750 3128 4425 
Q 3525 4100 3525 3541 
Q 3525 3141 3298 2862 
Q 3072 2584 2669 2484 
Q 3125 2378 3379 2068 
Q 3634 1759 3634 1313 
Q 3634 634 3220 271 
Q 2806 -91 2034 -91 
Q 1263 -91 848 271 
Q 434 634 434 1313 
Q 434 1759 690 2068 
Q 947 2378 1403 2484 
z
M 1172 3481 
Q 1172 3119 1398 2916 
Q 1625 2713 2034 2713 
Q 2441 2713 2670 2916 
Q 2900 3119 2900 3481 
Q 2900 3844 2670 4047 
Q 2441 4250 2034 4250 
Q 1625 4250 1398 4047 
Q 1172 3844 1172 3481 
z
" transform="scale(0.015625)"/>
       </defs>
       <use xlink:href="#DejaVuSans-30"/>
       <use xlink:href="#DejaVuSans-2e" x="63.623047"/>
       <use xlink:href="#DejaVuSans-38" x="95.410156"/>
      </g>
     </g>
    </g>
    <g id="ytick_5">
     <g id="line2d_10">
      <g>
       <use xlink:href="#mf5734c06f2" x="47.72" y="33.569091" style="stroke: #000000; stroke-width: 0.8"/>
      </g>
     </g>
     <g id="text_11">
      <!-- 1.0 -->
      <g transform="translate(24.816875 37.36831)scale(0.1 -0.1)">
       <use xlink:href="#DejaVuSans-31"/>
       <use xlink:href="#DejaVuSans-2e" x="63.623047"/>
       <use xlink:href="#DejaVuSans-30" x="95.410156"/>
      </g>
     </g>
    </g>
    <g id="text_12">
     <!-- R-value -->
     <g transform="translate(18.737188 119.064687)rotate(-90)scale(0.1 -0.1)">
      <defs>
       <path id="DejaVuSans-52" d="M 2841 2188 
Q 3044 2119 3236 1894 
Q 3428 1669 3622 1275 
L 4263 0 
L 3584 0 
L 2988 1197 
Q 2756 1666 2539 1819 
Q 2322 1972 1947 1972 
L 1259 1972 
L 1259 0 
L 628 0 
L 628 4666 
L 2053 4666 
Q 2853 4666 3247 4331 
Q 3641 3997 3641 3322 
Q 3641 2881 3436 2590 
Q 3231 2300 2841 2188 
z
M 1259 4147 
L 1259 2491 
L 2053 2491 
Q 2509 2491 2742 2702 
Q 2975 2913 2975 3322 
Q 2975 3731 2742 3939 
Q 2509 4147 2053 4147 
L 1259 4147 
z
" transform="scale(0.015625)"/>
       <path id="DejaVuSans-2d" d="M 313 2009 
L 1997 2009 
L 1997 1497 
L 313 1497 
L 313 2009 
z
" transform="scale(0.015625)"/>
       <path id="DejaVuSans-76" d="M 191 3500 
L 800 3500 
L 1894 563 
L 2988 3500 
L 3597 3500 
L 2284 0 
L 1503 0 
L 191 3500 
z
" transform="scale(0.015625)"/>
      </defs>
      <use xlink:href="#DejaVuSans-52"/>
      <use xlink:href="#DejaVuSans-2d" x="65.482422"/>
      <use xlink:href="#DejaVuSans-76" x="98.941406"/>
      <use xlink:href="#DejaVuSans-61" x="158.121094"/>
      <use xlink:href="#DejaVuSans-6c" x="219.400391"/>
      <use xlink:href="#DejaVuSans-75" x="247.183594"/>
      <use xlink:href="#DejaVuSans-65" x="310.5625"/>
     </g>
    </g>
   </g>
   <g id="line2d_11">
    <path d="M 47.72 33.569091 
L 59.167105 35.441447 
L 70.614211 40.907406 
L 82.061316 47.735049 
L 93.508421 55.87355 
L 104.955526 65.148132 
L 116.402632 74.577 
L 127.849737 84.158124 
L 139.296842 93.013702 
L 150.743947 101.490078 
L 162.191053 109.489155 
L 173.638158 116.356875 
L 185.085263 123.186986 
L 196.532368 128.570633 
L 207.979474 134.431749 
L 219.426579 138.819034 
L 230.873684 143.34176 
L 242.320789 147.286151 
L 253.767895 150.766107 
L 265.215 153.826637 
" clip-path="url(#pce0f6793ed)" style="fill: none; stroke: #1f77b4; stroke-width: 1.5; stroke-linecap: square"/>
   </g>
   <g id="line2d_12">
    <path d="M 47.72 33.569229 
L 59.167105 34.850267 
L 70.614211 37.988628 
L 82.061316 42.311634 
L 93.508421 47.964825 
L 104.955526 55.16671 
L 116.402632 63.039558 
L 127.849737 71.239254 
L 139.296842 79.566689 
L 150.743947 87.714898 
L 162.191053 95.743021 
L 173.638158 102.765775 
L 185.085263 110.080744 
L 196.532368 116.025814 
L 207.979474 122.591789 
L 219.426579 127.567279 
L 230.873684 132.692837 
L 242.320789 137.083594 
L 253.767895 141.239134 
L 265.215 144.881286 
" clip-path="url(#pce0f6793ed)" style="fill: none; stroke: #ff7f0e; stroke-width: 1.5; stroke-linecap: square"/>
   </g>
   <g id="line2d_13">
    <path d="M 47.72 33.569091 
L 59.167105 35.052195 
L 70.614211 37.634549 
L 82.061316 40.680712 
L 93.508421 44.389918 
L 104.955526 48.517059 
L 116.402632 52.647511 
L 127.849737 57.31644 
L 139.296842 62.402404 
L 150.743947 66.563272 
L 162.191053 71.190784 
L 173.638158 75.839213 
L 185.085263 80.222067 
L 196.532368 84.31954 
L 207.979474 89.084222 
L 219.426579 93.00075 
L 230.873684 96.968874 
L 242.320789 100.884275 
L 253.767895 104.498538 
L 265.215 108.351371 
" clip-path="url(#pce0f6793ed)" style="fill: none; stroke: #2ca02c; stroke-width: 1.5; stroke-linecap: square"/>
   </g>
   <g id="line2d_14">
    <path d="M 47.72 33.569848 
L 59.167105 34.779678 
L 70.614211 36.779656 
L 82.061316 39.276368 
L 93.508421 42.531831 
L 104.955526 46.49199 
L 116.402632 50.66775 
L 127.849737 55.377832 
L 139.296842 60.683871 
L 150.743947 65.10844 
L 162.191053 69.95374 
L 173.638158 74.726746 
L 185.085263 79.159449 
L 196.532368 83.25425 
L 207.979474 87.934845 
L 219.426579 91.775167 
L 230.873684 95.630902 
L 242.320789 99.400544 
L 253.767895 102.804817 
L 265.215 106.466669 
" clip-path="url(#pce0f6793ed)" style="fill: none; stroke: #d62728; stroke-width: 1.5; stroke-linecap: square"/>
   </g>
   <g id="line2d_15">
    <path d="M 47.72 33.569091 
L 59.167105 35.449014 
L 70.614211 40.94832 
L 82.061316 47.768247 
L 93.508421 56.007006 
L 104.955526 65.219009 
L 116.402632 74.562932 
L 127.849737 84.173656 
L 139.296842 92.968249 
L 150.743947 102.160182 
L 162.191053 109.775439 
L 173.638158 116.407917 
L 185.085263 123.914553 
L 196.532368 129.534259 
L 207.979474 134.333114 
L 219.426579 139.044036 
L 230.873684 143.407082 
L 242.320789 148.424905 
L 253.767895 150.953482 
L 265.215 155.364614 
" clip-path="url(#pce0f6793ed)" style="fill: none; stroke: #9467bd; stroke-width: 1.5; stroke-linecap: square"/>
   </g>
   <g id="line2d_16">
    <path d="M 47.72 33.569641 
L 59.167105 34.854049 
L 70.614211 38.00965 
L 82.061316 42.325498 
L 93.508421 48.037042 
L 104.955526 55.20289 
L 116.402632 63.087562 
L 127.849737 71.300732 
L 139.296842 79.530114 
L 150.743947 88.135457 
L 162.191053 95.953223 
L 173.638158 102.756932 
L 185.085263 110.47225 
L 196.532368 116.675523 
L 207.979474 122.528561 
L 219.426579 127.709883 
L 230.873684 132.747864 
L 242.320789 137.917597 
L 253.767895 141.310716 
L 265.215 146.019567 
" clip-path="url(#pce0f6793ed)" style="fill: none; stroke: #8c564b; stroke-width: 1.5; stroke-linecap: square"/>
   </g>
   <g id="line2d_17">
    <path d="M 47.72 45.141132 
L 59.167105 47.778027 
L 70.614211 54.262617 
L 82.061316 62.634839 
L 93.508421 71.939589 
L 104.955526 82.060734 
L 116.402632 91.716059 
L 127.849737 101.584855 
L 139.296842 110.241737 
L 150.743947 118.176572 
L 162.191053 125.371404 
L 173.638158 131.992958 
L 185.085263 137.82528 
L 196.532368 142.507617 
L 207.979474 147.076342 
L 219.426579 150.786394 
L 230.873684 154.158164 
L 242.320789 157.243615 
L 253.767895 159.684764 
L 265.215 162.000038 
" clip-path="url(#pce0f6793ed)" style="fill: none; stroke: #e377c2; stroke-width: 1.5; stroke-linecap: square"/>
   </g>
   <g id="line2d_18">
    <path d="M 47.72 33.569386 
L 59.167105 34.173935 
L 70.614211 35.001777 
L 82.061316 37.119117 
L 93.508421 40.689544 
L 104.955526 45.706724 
L 116.402632 51.943785 
L 127.849737 58.992937 
L 139.296842 66.788338 
L 150.743947 74.668653 
L 162.191053 82.936556 
L 173.638158 90.394144 
L 185.085263 97.905984 
L 196.532368 104.342809 
L 207.979474 111.536364 
L 219.426579 117.190529 
L 230.873684 122.929307 
L 242.320789 127.836432 
L 253.767895 132.50532 
L 265.215 136.705982 
" clip-path="url(#pce0f6793ed)" style="fill: none; stroke: #7f7f7f; stroke-width: 1.5; stroke-linecap: square"/>
   </g>
   <g id="patch_3">
    <path d="M 47.72 174.04 
L 47.72 26.88 
" style="fill: none; stroke: #000000; stroke-width: 0.8; stroke-linejoin: miter; stroke-linecap: square"/>
   </g>
   <g id="patch_4">
    <path d="M 47.72 174.04 
L 265.215 174.04 
" style="fill: none; stroke: #000000; stroke-width: 0.8; stroke-linejoin: miter; stroke-linecap: square"/>
   </g>
   <g id="text_13">
    <!-- Node * surprisal -->
    <g transform="translate(108.18625 20.88)scale(0.12 -0.12)">
     <defs>
      <path id="DejaVuSans-4e" d="M 628 4666 
L 1478 4666 
L 3547 763 
L 3547 4666 
L 4159 4666 
L 4159 0 
L 3309 0 
L 1241 3903 
L 1241 0 
L 628 0 
L 628 4666 
z
" transform="scale(0.015625)"/>
      <path id="DejaVuSans-64" d="M 2906 2969 
L 2906 4863 
L 3481 4863 
L 3481 0 
L 2906 0 
L 2906 525 
Q 2725 213 2448 61 
Q 2172 -91 1784 -91 
Q 1150 -91 751 415 
Q 353 922 353 1747 
Q 353 2572 751 3078 
Q 1150 3584 1784 3584 
Q 2172 3584 2448 3432 
Q 2725 3281 2906 2969 
z
M 947 1747 
Q 947 1113 1208 752 
Q 1469 391 1925 391 
Q 2381 391 2643 752 
Q 2906 1113 2906 1747 
Q 2906 2381 2643 2742 
Q 2381 3103 1925 3103 
Q 1469 3103 1208 2742 
Q 947 2381 947 1747 
z
" transform="scale(0.015625)"/>
      <path id="DejaVuSans-2a" d="M 3009 3897 
L 1888 3291 
L 3009 2681 
L 2828 2375 
L 1778 3009 
L 1778 1831 
L 1422 1831 
L 1422 3009 
L 372 2375 
L 191 2681 
L 1313 3291 
L 191 3897 
L 372 4206 
L 1422 3572 
L 1422 4750 
L 1778 4750 
L 1778 3572 
L 2828 4206 
L 3009 3897 
z
" transform="scale(0.015625)"/>
     </defs>
     <use xlink:href="#DejaVuSans-4e"/>
     <use xlink:href="#DejaVuSans-6f" x="74.804688"/>
     <use xlink:href="#DejaVuSans-64" x="135.986328"/>
     <use xlink:href="#DejaVuSans-65" x="199.462891"/>
     <use xlink:href="#DejaVuSans-20" x="260.986328"/>
     <use xlink:href="#DejaVuSans-2a" x="292.773438"/>
     <use xlink:href="#DejaVuSans-20" x="342.773438"/>
     <use xlink:href="#DejaVuSans-73" x="374.560547"/>
     <use xlink:href="#DejaVuSans-75" x="426.660156"/>
     <use xlink:href="#DejaVuSans-72" x="490.039062"/>
     <use xlink:href="#DejaVuSans-70" x="531.152344"/>
     <use xlink:href="#DejaVuSans-72" x="594.628906"/>
     <use xlink:href="#DejaVuSans-69" x="635.742188"/>
     <use xlink:href="#DejaVuSans-73" x="663.525391"/>
     <use xlink:href="#DejaVuSans-61" x="715.625"/>
     <use xlink:href="#DejaVuSans-6c" x="776.904297"/>
    </g>
   </g>
  </g>
  <g id="axes_2">
   <g id="patch_5">
    <path d="M 298.065 174.04 
L 515.56 174.04 
L 515.56 26.88 
L 298.065 26.88 
z
" style="fill: #ffffff"/>
   </g>
   <g id="PolyCollection_9">
    <path d="M 298.065 33.569091 
L 298.065 33.569091 
L 309.512105 35.871638 
L 320.959211 42.394734 
L 332.406316 50.243442 
L 343.853421 59.234488 
L 355.300526 69.847292 
L 366.747632 80.325998 
L 378.194737 90.877195 
L 389.641842 100.6742 
L 401.088947 109.435414 
L 412.536053 117.049132 
L 423.983158 124.785047 
L 435.430263 131.179822 
L 446.877368 137.480579 
L 458.324474 142.377451 
L 469.771579 147.084729 
L 481.218684 150.740798 
L 492.665789 154.064137 
L 504.112895 157.147304 
L 515.56 159.411913 
L 515.56 147.392015 
L 515.56 147.392015 
L 504.112895 144.873463 
L 492.665789 141.272678 
L 481.218684 137.880218 
L 469.771579 133.828825 
L 458.324474 129.106543 
L 446.877368 125.082194 
L 435.430263 119.110258 
L 423.983158 112.757285 
L 412.536053 106.743993 
L 401.088947 98.586304 
L 389.641842 90.773317 
L 378.194737 82.754697 
L 366.747632 73.217888 
L 355.300526 64.493218 
L 343.853421 54.985001 
L 332.406316 46.618657 
L 320.959211 40.239282 
L 309.512105 35.257277 
L 298.065 33.569091 
z
" clip-path="url(#p695d544249)" style="fill: #1f77b4; fill-opacity: 0.4"/>
   </g>
   <g id="PolyCollection_10">
    <path d="M 298.065 33.56921 
L 298.065 33.569248 
L 309.512105 35.872319 
L 320.959211 42.394128 
L 332.406316 50.263236 
L 343.853421 59.277521 
L 355.300526 69.901321 
L 366.747632 80.382184 
L 378.194737 90.966438 
L 389.641842 100.7754 
L 401.088947 109.499384 
L 412.536053 117.148217 
L 423.983158 124.838905 
L 435.430263 131.239043 
L 446.877368 137.543231 
L 458.324474 142.483082 
L 469.771579 147.136586 
L 481.218684 150.746896 
L 492.665789 154.006207 
L 504.112895 157.008975 
L 515.56 159.391952 
L 515.56 148.043961 
L 515.56 148.043961 
L 504.112895 145.56908 
L 492.665789 141.853254 
L 481.218684 138.355704 
L 469.771579 134.284256 
L 458.324474 129.528119 
L 446.877368 125.419604 
L 435.430263 119.393832 
L 423.983158 113.056182 
L 412.536053 106.911269 
L 401.088947 98.745493 
L 389.641842 90.865324 
L 378.194737 82.784863 
L 366.747632 73.219796 
L 355.300526 64.484917 
L 343.853421 54.960514 
L 332.406316 46.60715 
L 320.959211 40.235994 
L 309.512105 35.260474 
L 298.065 33.56921 
z
" clip-path="url(#p695d544249)" style="fill: #ff7f0e; fill-opacity: 0.4"/>
   </g>
   <g id="PolyCollection_11">
    <path d="M 298.065 33.569091 
L 298.065 33.569092 
L 309.512105 35.88074 
L 320.959211 42.435908 
L 332.406316 50.283885 
L 343.853421 59.334085 
L 355.300526 69.8827 
L 366.747632 80.394082 
L 378.194737 90.90785 
L 389.641842 100.697438 
L 401.088947 109.440912 
L 412.536053 117.068759 
L 423.983158 124.852538 
L 435.430263 131.1911 
L 446.877368 137.465634 
L 458.324474 142.175921 
L 469.771579 146.939609 
L 481.218684 150.448894 
L 492.665789 153.636669 
L 504.112895 156.645235 
L 515.56 159.175731 
L 515.56 147.381332 
L 515.56 147.381332 
L 504.112895 144.849952 
L 492.665789 141.356275 
L 481.218684 137.93187 
L 469.771579 133.907042 
L 458.324474 129.126212 
L 446.877368 125.17096 
L 435.430263 119.190887 
L 423.983158 113.04295 
L 412.536053 106.902086 
L 401.088947 98.635947 
L 389.641842 90.822598 
L 378.194737 82.712375 
L 366.747632 73.145986 
L 355.300526 64.42363 
L 343.853421 54.868269 
L 332.406316 46.571435 
L 320.959211 40.199793 
L 309.512105 35.259755 
L 298.065 33.569091 
z
" clip-path="url(#p695d544249)" style="fill: #2ca02c; fill-opacity: 0.4"/>
   </g>
   <g id="PolyCollection_12">
    <path d="M 298.065 33.569744 
L 298.065 33.569952 
L 309.512105 35.880602 
L 320.959211 42.426451 
L 332.406316 50.28207 
L 343.853421 59.290438 
L 355.300526 69.793344 
L 366.747632 80.260984 
L 378.194737 90.727233 
L 389.641842 100.553103 
L 401.088947 109.29015 
L 412.536053 117.002501 
L 423.983158 124.750598 
L 435.430263 131.154853 
L 446.877368 137.446532 
L 458.324474 142.237662 
L 469.771579 147.105194 
L 481.218684 150.646479 
L 492.665789 153.933692 
L 504.112895 157.011916 
L 515.56 159.679767 
L 515.56 147.45644 
L 515.56 147.45644 
L 504.112895 144.933602 
L 492.665789 141.41576 
L 481.218684 137.978499 
L 469.771579 133.997072 
L 458.324474 129.250721 
L 446.877368 125.281965 
L 435.430263 119.23069 
L 423.983158 113.163698 
L 412.536053 106.985027 
L 401.088947 98.732259 
L 389.641842 90.855974 
L 378.194737 82.747088 
L 366.747632 73.150052 
L 355.300526 64.435558 
L 343.853421 54.856296 
L 332.406316 46.559916 
L 320.959211 40.187167 
L 309.512105 35.261557 
L 298.065 33.569744 
z
" clip-path="url(#p695d544249)" style="fill: #d62728; fill-opacity: 0.4"/>
   </g>
   <g id="PolyCollection_13">
    <path d="M 298.065 33.569091 
L 298.065 33.569092 
L 309.512105 35.87458 
L 320.959211 42.435215 
L 332.406316 50.275841 
L 343.853421 59.129228 
L 355.300526 69.95701 
L 366.747632 80.469745 
L 378.194737 91.200551 
L 389.641842 100.599823 
L 401.088947 109.560496 
L 412.536053 116.961803 
L 423.983158 125.842834 
L 435.430263 131.34823 
L 446.877368 138.05003 
L 458.324474 143.120574 
L 469.771579 148.274482 
L 481.218684 151.195506 
L 492.665789 154.776096 
L 504.112895 157.308974 
L 515.56 159.445775 
L 515.56 146.651355 
L 515.56 146.651355 
L 504.112895 145.472288 
L 492.665789 143.073571 
L 481.218684 138.964517 
L 469.771579 134.573961 
L 458.324474 129.09876 
L 446.877368 125.789255 
L 435.430263 120.581008 
L 423.983158 113.029176 
L 412.536053 106.632826 
L 401.088947 99.140244 
L 389.641842 90.966682 
L 378.194737 82.561028 
L 366.747632 73.536297 
L 355.300526 64.586651 
L 343.853421 55.033477 
L 332.406316 46.58552 
L 320.959211 40.260706 
L 309.512105 35.270351 
L 298.065 33.569091 
z
" clip-path="url(#p695d544249)" style="fill: #9467bd; fill-opacity: 0.4"/>
   </g>
   <g id="PolyCollection_14">
    <path d="M 298.065 33.569566 
L 298.065 33.569717 
L 309.512105 35.875458 
L 320.959211 42.43409 
L 332.406316 50.297571 
L 343.853421 59.167469 
L 355.300526 70.005892 
L 366.747632 80.515626 
L 378.194737 91.268914 
L 389.641842 100.70194 
L 401.088947 109.616015 
L 412.536053 117.071329 
L 423.983158 125.896167 
L 435.430263 131.425868 
L 446.877368 138.141004 
L 458.324474 143.225626 
L 469.771579 148.348242 
L 481.218684 151.147142 
L 492.665789 154.745264 
L 504.112895 157.20879 
L 515.56 159.473354 
L 515.56 147.249946 
L 515.56 147.249946 
L 504.112895 146.103709 
L 492.665789 143.653868 
L 481.218684 139.49268 
L 469.771579 135.03269 
L 458.324474 129.487174 
L 446.877368 126.10407 
L 435.430263 120.81046 
L 423.983158 113.289034 
L 412.536053 106.786286 
L 401.088947 99.306613 
L 389.641842 91.042986 
L 378.194737 82.592061 
L 366.747632 73.533097 
L 355.300526 64.583159 
L 343.853421 55.011183 
L 332.406316 46.578579 
L 320.959211 40.258393 
L 309.512105 35.273188 
L 298.065 33.569566 
z
" clip-path="url(#p695d544249)" style="fill: #8c564b; fill-opacity: 0.4"/>
   </g>
   <g id="PolyCollection_15">
    <path d="M 298.065 43.242304 
L 298.065 47.039959 
L 309.512105 48.671621 
L 320.959211 53.816951 
L 332.406316 60.088869 
L 343.853421 68.409442 
L 355.300526 78.182195 
L 366.747632 87.696532 
L 378.194737 97.770711 
L 389.641842 107.187673 
L 401.088947 115.371197 
L 412.536053 122.354516 
L 423.983158 129.792258 
L 435.430263 135.92916 
L 446.877368 141.892872 
L 458.324474 146.268885 
L 469.771579 150.561065 
L 481.218684 154.161712 
L 492.665789 157.21719 
L 504.112895 159.874478 
L 515.56 161.974788 
L 515.56 151.300309 
L 515.56 151.300309 
L 504.112895 148.770782 
L 492.665789 145.662116 
L 481.218684 142.332538 
L 469.771579 138.187168 
L 458.324474 133.710077 
L 446.877368 129.561656 
L 435.430263 123.621362 
L 423.983158 117.43552 
L 412.536053 111.882719 
L 401.088947 103.921632 
L 389.641842 96.771213 
L 378.194737 89.298921 
L 366.747632 81.209997 
L 355.300526 73.263751 
L 343.853421 64.685042 
L 332.406316 57.096869 
L 320.959211 50.524503 
L 309.512105 45.222035 
L 298.065 43.242304 
z
" clip-path="url(#p695d544249)" style="fill: #e377c2; fill-opacity: 0.4"/>
   </g>
   <g id="PolyCollection_16">
    <path d="M 298.065 33.569289 
L 298.065 33.569483 
L 309.512105 35.880312 
L 320.959211 42.404518 
L 332.406316 50.305198 
L 343.853421 59.370237 
L 355.300526 69.990254 
L 366.747632 80.506617 
L 378.194737 91.125393 
L 389.641842 100.886974 
L 401.088947 109.610291 
L 412.536053 117.197587 
L 423.983158 124.975126 
L 435.430263 131.382961 
L 446.877368 137.784179 
L 458.324474 142.729853 
L 469.771579 147.353169 
L 481.218684 151.059133 
L 492.665789 154.363842 
L 504.112895 157.404607 
L 515.56 159.790435 
L 515.56 148.778289 
L 515.56 148.778289 
L 504.112895 145.867125 
L 492.665789 142.143558 
L 481.218684 138.624383 
L 469.771579 134.571881 
L 458.324474 129.778875 
L 446.877368 125.635452 
L 435.430263 119.642543 
L 423.983158 113.339273 
L 412.536053 107.159153 
L 401.088947 98.906909 
L 389.641842 91.004704 
L 378.194737 82.884679 
L 366.747632 73.269543 
L 355.300526 64.562708 
L 343.853421 54.99379 
L 332.406316 46.650673 
L 320.959211 40.236584 
L 309.512105 35.27263 
L 298.065 33.569289 
z
" clip-path="url(#p695d544249)" style="fill: #7f7f7f; fill-opacity: 0.4"/>
   </g>
   <g id="matplotlib.axis_3">
    <g id="xtick_6">
     <g id="line2d_19">
      <g>
       <use xlink:href="#m0d4e62c3fa" x="298.065" y="174.04" style="stroke: #000000; stroke-width: 0.8"/>
      </g>
     </g>
     <g id="text_14">
      <!-- 0.0 -->
      <g transform="translate(290.113437 188.638438)scale(0.1 -0.1)">
       <use xlink:href="#DejaVuSans-30"/>
       <use xlink:href="#DejaVuSans-2e" x="63.623047"/>
       <use xlink:href="#DejaVuSans-30" x="95.410156"/>
      </g>
     </g>
    </g>
    <g id="xtick_7">
     <g id="line2d_20">
      <g>
       <use xlink:href="#m0d4e62c3fa" x="352.43875" y="174.04" style="stroke: #000000; stroke-width: 0.8"/>
      </g>
     </g>
     <g id="text_15">
      <!-- 0.5 -->
      <g transform="translate(344.487187 188.638438)scale(0.1 -0.1)">
       <use xlink:href="#DejaVuSans-30"/>
       <use xlink:href="#DejaVuSans-2e" x="63.623047"/>
       <use xlink:href="#DejaVuSans-35" x="95.410156"/>
      </g>
     </g>
    </g>
    <g id="xtick_8">
     <g id="line2d_21">
      <g>
       <use xlink:href="#m0d4e62c3fa" x="406.8125" y="174.04" style="stroke: #000000; stroke-width: 0.8"/>
      </g>
     </g>
     <g id="text_16">
      <!-- 1.0 -->
      <g transform="translate(398.860937 188.638438)scale(0.1 -0.1)">
       <use xlink:href="#DejaVuSans-31"/>
       <use xlink:href="#DejaVuSans-2e" x="63.623047"/>
       <use xlink:href="#DejaVuSans-30" x="95.410156"/>
      </g>
     </g>
    </g>
    <g id="xtick_9">
     <g id="line2d_22">
      <g>
       <use xlink:href="#m0d4e62c3fa" x="461.18625" y="174.04" style="stroke: #000000; stroke-width: 0.8"/>
      </g>
     </g>
     <g id="text_17">
      <!-- 1.5 -->
      <g transform="translate(453.234687 188.638438)scale(0.1 -0.1)">
       <use xlink:href="#DejaVuSans-31"/>
       <use xlink:href="#DejaVuSans-2e" x="63.623047"/>
       <use xlink:href="#DejaVuSans-35" x="95.410156"/>
      </g>
     </g>
    </g>
    <g id="xtick_10">
     <g id="line2d_23">
      <g>
       <use xlink:href="#m0d4e62c3fa" x="515.56" y="174.04" style="stroke: #000000; stroke-width: 0.8"/>
      </g>
     </g>
     <g id="text_18">
      <!-- 2.0 -->
      <g transform="translate(507.608437 188.638438)scale(0.1 -0.1)">
       <use xlink:href="#DejaVuSans-32"/>
       <use xlink:href="#DejaVuSans-2e" x="63.623047"/>
       <use xlink:href="#DejaVuSans-30" x="95.410156"/>
      </g>
     </g>
    </g>
    <g id="text_19">
     <!-- Influence of surprisal (multiplication) -->
     <g transform="translate(314.665625 202.316563)scale(0.1 -0.1)">
      <use xlink:href="#DejaVuSans-49"/>
      <use xlink:href="#DejaVuSans-6e" x="29.492188"/>
      <use xlink:href="#DejaVuSans-66" x="92.871094"/>
      <use xlink:href="#DejaVuSans-6c" x="128.076172"/>
      <use xlink:href="#DejaVuSans-75" x="155.859375"/>
      <use xlink:href="#DejaVuSans-65" x="219.238281"/>
      <use xlink:href="#DejaVuSans-6e" x="280.761719"/>
      <use xlink:href="#DejaVuSans-63" x="344.140625"/>
      <use xlink:href="#DejaVuSans-65" x="399.121094"/>
      <use xlink:href="#DejaVuSans-20" x="460.644531"/>
      <use xlink:href="#DejaVuSans-6f" x="492.431641"/>
      <use xlink:href="#DejaVuSans-66" x="553.613281"/>
      <use xlink:href="#DejaVuSans-20" x="588.818359"/>
      <use xlink:href="#DejaVuSans-73" x="620.605469"/>
      <use xlink:href="#DejaVuSans-75" x="672.705078"/>
      <use xlink:href="#DejaVuSans-72" x="736.083984"/>
      <use xlink:href="#DejaVuSans-70" x="777.197266"/>
      <use xlink:href="#DejaVuSans-72" x="840.673828"/>
      <use xlink:href="#DejaVuSans-69" x="881.787109"/>
      <use xlink:href="#DejaVuSans-73" x="909.570312"/>
      <use xlink:href="#DejaVuSans-61" x="961.669922"/>
      <use xlink:href="#DejaVuSans-6c" x="1022.949219"/>
      <use xlink:href="#DejaVuSans-20" x="1050.732422"/>
      <use xlink:href="#DejaVuSans-28" x="1082.519531"/>
      <use xlink:href="#DejaVuSans-6d" x="1121.533203"/>
      <use xlink:href="#DejaVuSans-75" x="1218.945312"/>
      <use xlink:href="#DejaVuSans-6c" x="1282.324219"/>
      <use xlink:href="#DejaVuSans-74" x="1310.107422"/>
      <use xlink:href="#DejaVuSans-69" x="1349.316406"/>
      <use xlink:href="#DejaVuSans-70" x="1377.099609"/>
      <use xlink:href="#DejaVuSans-6c" x="1440.576172"/>
      <use xlink:href="#DejaVuSans-69" x="1468.359375"/>
      <use xlink:href="#DejaVuSans-63" x="1496.142578"/>
      <use xlink:href="#DejaVuSans-61" x="1551.123047"/>
      <use xlink:href="#DejaVuSans-74" x="1612.402344"/>
      <use xlink:href="#DejaVuSans-69" x="1651.611328"/>
      <use xlink:href="#DejaVuSans-6f" x="1679.394531"/>
      <use xlink:href="#DejaVuSans-6e" x="1740.576172"/>
      <use xlink:href="#DejaVuSans-29" x="1803.955078"/>
     </g>
    </g>
   </g>
   <g id="line2d_24">
    <path d="M 298.065 33.569091 
L 309.512105 35.564457 
L 320.959211 41.317008 
L 332.406316 48.431049 
L 343.853421 57.109745 
L 355.300526 67.170255 
L 366.747632 76.771943 
L 378.194737 86.815946 
L 389.641842 95.723758 
L 401.088947 104.010859 
L 412.536053 111.896563 
L 423.983158 118.771166 
L 435.430263 125.14504 
L 446.877368 131.281386 
L 458.324474 135.741997 
L 469.771579 140.456777 
L 481.218684 144.310508 
L 492.665789 147.668408 
L 504.112895 151.010383 
L 515.56 153.401964 
" clip-path="url(#p695d544249)" style="fill: none; stroke: #1f77b4; stroke-width: 1.5; stroke-linecap: square"/>
   </g>
   <g id="line2d_25">
    <path d="M 298.065 33.569229 
L 309.512105 35.566397 
L 320.959211 41.315061 
L 332.406316 48.435193 
L 343.853421 57.119018 
L 355.300526 67.193119 
L 366.747632 76.80099 
L 378.194737 86.875651 
L 389.641842 95.820362 
L 401.088947 104.122438 
L 412.536053 112.029743 
L 423.983158 118.947544 
L 435.430263 125.316437 
L 446.877368 131.481418 
L 458.324474 136.005601 
L 469.771579 140.710421 
L 481.218684 144.5513 
L 492.665789 147.92973 
L 504.112895 151.289027 
L 515.56 153.717956 
" clip-path="url(#p695d544249)" style="fill: none; stroke: #ff7f0e; stroke-width: 1.5; stroke-linecap: square"/>
   </g>
   <g id="line2d_26">
    <path d="M 298.065 33.569091 
L 309.512105 35.570247 
L 320.959211 41.31785 
L 332.406316 48.42766 
L 343.853421 57.101177 
L 355.300526 67.153165 
L 366.747632 76.770034 
L 378.194737 86.810113 
L 389.641842 95.760018 
L 401.088947 104.03843 
L 412.536053 111.985422 
L 423.983158 118.947744 
L 435.430263 125.190993 
L 446.877368 131.318297 
L 458.324474 135.651066 
L 469.771579 140.423326 
L 481.218684 144.190382 
L 492.665789 147.496472 
L 504.112895 150.747594 
L 515.56 153.278532 
" clip-path="url(#p695d544249)" style="fill: none; stroke: #2ca02c; stroke-width: 1.5; stroke-linecap: square"/>
   </g>
   <g id="line2d_27">
    <path d="M 298.065 33.569848 
L 309.512105 35.571079 
L 320.959211 41.306809 
L 332.406316 48.420993 
L 343.853421 57.073367 
L 355.300526 67.114451 
L 366.747632 76.705518 
L 378.194737 86.737161 
L 389.641842 95.704538 
L 401.088947 104.011205 
L 412.536053 111.993764 
L 423.983158 118.957148 
L 435.430263 125.192771 
L 446.877368 131.364249 
L 458.324474 135.744191 
L 469.771579 140.551133 
L 481.218684 144.312489 
L 492.665789 147.674726 
L 504.112895 150.972759 
L 515.56 153.568103 
" clip-path="url(#p695d544249)" style="fill: none; stroke: #d62728; stroke-width: 1.5; stroke-linecap: square"/>
   </g>
   <g id="line2d_28">
    <path d="M 298.065 33.569091 
L 309.512105 35.572466 
L 320.959211 41.347961 
L 332.406316 48.43068 
L 343.853421 57.081353 
L 355.300526 67.27183 
L 366.747632 77.003021 
L 378.194737 86.880789 
L 389.641842 95.783252 
L 401.088947 104.35037 
L 412.536053 111.797314 
L 423.983158 119.436005 
L 435.430263 125.964619 
L 446.877368 131.919643 
L 458.324474 136.109667 
L 469.771579 141.424221 
L 481.218684 145.080012 
L 492.665789 148.924833 
L 504.112895 151.390631 
L 515.56 153.048565 
" clip-path="url(#p695d544249)" style="fill: none; stroke: #9467bd; stroke-width: 1.5; stroke-linecap: square"/>
   </g>
   <g id="line2d_29">
    <path d="M 298.065 33.569642 
L 309.512105 35.574323 
L 320.959211 41.346242 
L 332.406316 48.438075 
L 343.853421 57.089326 
L 355.300526 67.294526 
L 366.747632 77.024362 
L 378.194737 86.930487 
L 389.641842 95.872463 
L 401.088947 104.461314 
L 412.536053 111.928807 
L 423.983158 119.592601 
L 435.430263 126.118164 
L 446.877368 132.122537 
L 458.324474 136.3564 
L 469.771579 141.690466 
L 481.218684 145.319911 
L 492.665789 149.199566 
L 504.112895 151.656249 
L 515.56 153.36165 
" clip-path="url(#p695d544249)" style="fill: none; stroke: #8c564b; stroke-width: 1.5; stroke-linecap: square"/>
   </g>
   <g id="line2d_30">
    <path d="M 298.065 45.141132 
L 309.512105 46.946828 
L 320.959211 52.170727 
L 332.406316 58.592869 
L 343.853421 66.547242 
L 355.300526 75.722973 
L 366.747632 84.453264 
L 378.194737 93.534816 
L 389.641842 101.979443 
L 401.088947 109.646415 
L 412.536053 117.118617 
L 423.983158 123.613889 
L 435.430263 129.775261 
L 446.877368 135.727264 
L 458.324474 139.989481 
L 469.771579 144.374116 
L 481.218684 148.247125 
L 492.665789 151.439653 
L 504.112895 154.32263 
L 515.56 156.637549 
" clip-path="url(#p695d544249)" style="fill: none; stroke: #e377c2; stroke-width: 1.5; stroke-linecap: square"/>
   </g>
   <g id="line2d_31">
    <path d="M 298.065 33.569386 
L 309.512105 35.576471 
L 320.959211 41.320551 
L 332.406316 48.477936 
L 343.853421 57.182013 
L 355.300526 67.276481 
L 366.747632 76.88808 
L 378.194737 87.005036 
L 389.641842 95.945839 
L 401.088947 104.2586 
L 412.536053 112.17837 
L 423.983158 119.157199 
L 435.430263 125.512752 
L 446.877368 131.709816 
L 458.324474 136.254364 
L 469.771579 140.962525 
L 481.218684 144.841758 
L 492.665789 148.2537 
L 504.112895 151.635866 
L 515.56 154.284362 
" clip-path="url(#p695d544249)" style="fill: none; stroke: #7f7f7f; stroke-width: 1.5; stroke-linecap: square"/>
   </g>
   <g id="patch_6">
    <path d="M 298.065 174.04 
L 298.065 26.88 
" style="fill: none; stroke: #000000; stroke-width: 0.8; stroke-linejoin: miter; stroke-linecap: square"/>
   </g>
   <g id="patch_7">
    <path d="M 298.065 174.04 
L 515.56 174.04 
" style="fill: none; stroke: #000000; stroke-width: 0.8; stroke-linejoin: miter; stroke-linecap: square"/>
   </g>
   <g id="text_20">
    <!-- Node * third variable -->
    <g transform="translate(344.2325 20.88)scale(0.12 -0.12)">
     <defs>
      <path id="DejaVuSans-68" d="M 3513 2113 
L 3513 0 
L 2938 0 
L 2938 2094 
Q 2938 2591 2744 2837 
Q 2550 3084 2163 3084 
Q 1697 3084 1428 2787 
Q 1159 2491 1159 1978 
L 1159 0 
L 581 0 
L 581 4863 
L 1159 4863 
L 1159 2956 
Q 1366 3272 1645 3428 
Q 1925 3584 2291 3584 
Q 2894 3584 3203 3211 
Q 3513 2838 3513 2113 
z
" transform="scale(0.015625)"/>
      <path id="DejaVuSans-62" d="M 3116 1747 
Q 3116 2381 2855 2742 
Q 2594 3103 2138 3103 
Q 1681 3103 1420 2742 
Q 1159 2381 1159 1747 
Q 1159 1113 1420 752 
Q 1681 391 2138 391 
Q 2594 391 2855 752 
Q 3116 1113 3116 1747 
z
M 1159 2969 
Q 1341 3281 1617 3432 
Q 1894 3584 2278 3584 
Q 2916 3584 3314 3078 
Q 3713 2572 3713 1747 
Q 3713 922 3314 415 
Q 2916 -91 2278 -91 
Q 1894 -91 1617 61 
Q 1341 213 1159 525 
L 1159 0 
L 581 0 
L 581 4863 
L 1159 4863 
L 1159 2969 
z
" transform="scale(0.015625)"/>
     </defs>
     <use xlink:href="#DejaVuSans-4e"/>
     <use xlink:href="#DejaVuSans-6f" x="74.804688"/>
     <use xlink:href="#DejaVuSans-64" x="135.986328"/>
     <use xlink:href="#DejaVuSans-65" x="199.462891"/>
     <use xlink:href="#DejaVuSans-20" x="260.986328"/>
     <use xlink:href="#DejaVuSans-2a" x="292.773438"/>
     <use xlink:href="#DejaVuSans-20" x="342.773438"/>
     <use xlink:href="#DejaVuSans-74" x="374.560547"/>
     <use xlink:href="#DejaVuSans-68" x="413.769531"/>
     <use xlink:href="#DejaVuSans-69" x="477.148438"/>
     <use xlink:href="#DejaVuSans-72" x="504.931641"/>
     <use xlink:href="#DejaVuSans-64" x="544.294922"/>
     <use xlink:href="#DejaVuSans-20" x="607.771484"/>
     <use xlink:href="#DejaVuSans-76" x="639.558594"/>
     <use xlink:href="#DejaVuSans-61" x="698.738281"/>
     <use xlink:href="#DejaVuSans-72" x="760.017578"/>
     <use xlink:href="#DejaVuSans-69" x="801.130859"/>
     <use xlink:href="#DejaVuSans-61" x="828.914062"/>
     <use xlink:href="#DejaVuSans-62" x="890.193359"/>
     <use xlink:href="#DejaVuSans-6c" x="953.669922"/>
     <use xlink:href="#DejaVuSans-65" x="981.453125"/>
    </g>
   </g>
   <g id="legend_1">
    <g id="line2d_32">
     <path d="M 524.56 39.978437 
L 534.56 39.978437 
L 544.56 39.978437 
" style="fill: none; stroke: #1f77b4; stroke-width: 1.5; stroke-linecap: square"/>
    </g>
    <g id="text_21">
     <!-- Node -->
     <g transform="translate(552.56 43.478437)scale(0.1 -0.1)">
      <use xlink:href="#DejaVuSans-4e"/>
      <use xlink:href="#DejaVuSans-6f" x="74.804688"/>
      <use xlink:href="#DejaVuSans-64" x="135.986328"/>
      <use xlink:href="#DejaVuSans-65" x="199.462891"/>
     </g>
    </g>
    <g id="line2d_33">
     <path d="M 524.56 54.656563 
L 534.56 54.656563 
L 544.56 54.656563 
" style="fill: none; stroke: #ff7f0e; stroke-width: 1.5; stroke-linecap: square"/>
    </g>
    <g id="text_22">
     <!-- Node + surprisal -->
     <g transform="translate(552.56 58.156563)scale(0.1 -0.1)">
      <defs>
       <path id="DejaVuSans-2b" d="M 2944 4013 
L 2944 2272 
L 4684 2272 
L 4684 1741 
L 2944 1741 
L 2944 0 
L 2419 0 
L 2419 1741 
L 678 1741 
L 678 2272 
L 2419 2272 
L 2419 4013 
L 2944 4013 
z
" transform="scale(0.015625)"/>
      </defs>
      <use xlink:href="#DejaVuSans-4e"/>
      <use xlink:href="#DejaVuSans-6f" x="74.804688"/>
      <use xlink:href="#DejaVuSans-64" x="135.986328"/>
      <use xlink:href="#DejaVuSans-65" x="199.462891"/>
      <use xlink:href="#DejaVuSans-20" x="260.986328"/>
      <use xlink:href="#DejaVuSans-2b" x="292.773438"/>
      <use xlink:href="#DejaVuSans-20" x="376.5625"/>
      <use xlink:href="#DejaVuSans-73" x="408.349609"/>
      <use xlink:href="#DejaVuSans-75" x="460.449219"/>
      <use xlink:href="#DejaVuSans-72" x="523.828125"/>
      <use xlink:href="#DejaVuSans-70" x="564.941406"/>
      <use xlink:href="#DejaVuSans-72" x="628.417969"/>
      <use xlink:href="#DejaVuSans-69" x="669.53125"/>
      <use xlink:href="#DejaVuSans-73" x="697.314453"/>
      <use xlink:href="#DejaVuSans-61" x="749.414062"/>
      <use xlink:href="#DejaVuSans-6c" x="810.693359"/>
     </g>
    </g>
    <g id="line2d_34">
     <path d="M 524.56 69.334687 
L 534.56 69.334687 
L 544.56 69.334687 
" style="fill: none; stroke: #2ca02c; stroke-width: 1.5; stroke-linecap: square"/>
    </g>
    <g id="text_23">
     <!-- Node split -->
     <g transform="translate(552.56 72.834687)scale(0.1 -0.1)">
      <use xlink:href="#DejaVuSans-4e"/>
      <use xlink:href="#DejaVuSans-6f" x="74.804688"/>
      <use xlink:href="#DejaVuSans-64" x="135.986328"/>
      <use xlink:href="#DejaVuSans-65" x="199.462891"/>
      <use xlink:href="#DejaVuSans-20" x="260.986328"/>
      <use xlink:href="#DejaVuSans-73" x="292.773438"/>
      <use xlink:href="#DejaVuSans-70" x="344.873047"/>
      <use xlink:href="#DejaVuSans-6c" x="408.349609"/>
      <use xlink:href="#DejaVuSans-69" x="436.132812"/>
      <use xlink:href="#DejaVuSans-74" x="463.916016"/>
     </g>
    </g>
    <g id="line2d_35">
     <path d="M 524.56 84.012812 
L 534.56 84.012812 
L 544.56 84.012812 
" style="fill: none; stroke: #d62728; stroke-width: 1.5; stroke-linecap: square"/>
    </g>
    <g id="text_24">
     <!-- Node split + surprisal -->
     <g transform="translate(552.56 87.512812)scale(0.1 -0.1)">
      <use xlink:href="#DejaVuSans-4e"/>
      <use xlink:href="#DejaVuSans-6f" x="74.804688"/>
      <use xlink:href="#DejaVuSans-64" x="135.986328"/>
      <use xlink:href="#DejaVuSans-65" x="199.462891"/>
      <use xlink:href="#DejaVuSans-20" x="260.986328"/>
      <use xlink:href="#DejaVuSans-73" x="292.773438"/>
      <use xlink:href="#DejaVuSans-70" x="344.873047"/>
      <use xlink:href="#DejaVuSans-6c" x="408.349609"/>
      <use xlink:href="#DejaVuSans-69" x="436.132812"/>
      <use xlink:href="#DejaVuSans-74" x="463.916016"/>
      <use xlink:href="#DejaVuSans-20" x="503.125"/>
      <use xlink:href="#DejaVuSans-2b" x="534.912109"/>
      <use xlink:href="#DejaVuSans-20" x="618.701172"/>
      <use xlink:href="#DejaVuSans-73" x="650.488281"/>
      <use xlink:href="#DejaVuSans-75" x="702.587891"/>
      <use xlink:href="#DejaVuSans-72" x="765.966797"/>
      <use xlink:href="#DejaVuSans-70" x="807.080078"/>
      <use xlink:href="#DejaVuSans-72" x="870.556641"/>
      <use xlink:href="#DejaVuSans-69" x="911.669922"/>
      <use xlink:href="#DejaVuSans-73" x="939.453125"/>
      <use xlink:href="#DejaVuSans-61" x="991.552734"/>
      <use xlink:href="#DejaVuSans-6c" x="1052.832031"/>
     </g>
    </g>
    <g id="line2d_36">
     <path d="M 524.56 98.690937 
L 534.56 98.690937 
L 544.56 98.690937 
" style="fill: none; stroke: #9467bd; stroke-width: 1.5; stroke-linecap: square"/>
    </g>
    <g id="text_25">
     <!-- Node random split -->
     <g transform="translate(552.56 102.190937)scale(0.1 -0.1)">
      <use xlink:href="#DejaVuSans-4e"/>
      <use xlink:href="#DejaVuSans-6f" x="74.804688"/>
      <use xlink:href="#DejaVuSans-64" x="135.986328"/>
      <use xlink:href="#DejaVuSans-65" x="199.462891"/>
      <use xlink:href="#DejaVuSans-20" x="260.986328"/>
      <use xlink:href="#DejaVuSans-72" x="292.773438"/>
      <use xlink:href="#DejaVuSans-61" x="333.886719"/>
      <use xlink:href="#DejaVuSans-6e" x="395.166016"/>
      <use xlink:href="#DejaVuSans-64" x="458.544922"/>
      <use xlink:href="#DejaVuSans-6f" x="522.021484"/>
      <use xlink:href="#DejaVuSans-6d" x="583.203125"/>
      <use xlink:href="#DejaVuSans-20" x="680.615234"/>
      <use xlink:href="#DejaVuSans-73" x="712.402344"/>
      <use xlink:href="#DejaVuSans-70" x="764.501953"/>
      <use xlink:href="#DejaVuSans-6c" x="827.978516"/>
      <use xlink:href="#DejaVuSans-69" x="855.761719"/>
      <use xlink:href="#DejaVuSans-74" x="883.544922"/>
     </g>
    </g>
    <g id="line2d_37">
     <path d="M 524.56 113.369062 
L 534.56 113.369062 
L 544.56 113.369062 
" style="fill: none; stroke: #8c564b; stroke-width: 1.5; stroke-linecap: square"/>
    </g>
    <g id="text_26">
     <!-- Node random split + surprisal -->
     <g transform="translate(552.56 116.869062)scale(0.1 -0.1)">
      <use xlink:href="#DejaVuSans-4e"/>
      <use xlink:href="#DejaVuSans-6f" x="74.804688"/>
      <use xlink:href="#DejaVuSans-64" x="135.986328"/>
      <use xlink:href="#DejaVuSans-65" x="199.462891"/>
      <use xlink:href="#DejaVuSans-20" x="260.986328"/>
      <use xlink:href="#DejaVuSans-72" x="292.773438"/>
      <use xlink:href="#DejaVuSans-61" x="333.886719"/>
      <use xlink:href="#DejaVuSans-6e" x="395.166016"/>
      <use xlink:href="#DejaVuSans-64" x="458.544922"/>
      <use xlink:href="#DejaVuSans-6f" x="522.021484"/>
      <use xlink:href="#DejaVuSans-6d" x="583.203125"/>
      <use xlink:href="#DejaVuSans-20" x="680.615234"/>
      <use xlink:href="#DejaVuSans-73" x="712.402344"/>
      <use xlink:href="#DejaVuSans-70" x="764.501953"/>
      <use xlink:href="#DejaVuSans-6c" x="827.978516"/>
      <use xlink:href="#DejaVuSans-69" x="855.761719"/>
      <use xlink:href="#DejaVuSans-74" x="883.544922"/>
      <use xlink:href="#DejaVuSans-20" x="922.753906"/>
      <use xlink:href="#DejaVuSans-2b" x="954.541016"/>
      <use xlink:href="#DejaVuSans-20" x="1038.330078"/>
      <use xlink:href="#DejaVuSans-73" x="1070.117188"/>
      <use xlink:href="#DejaVuSans-75" x="1122.216797"/>
      <use xlink:href="#DejaVuSans-72" x="1185.595703"/>
      <use xlink:href="#DejaVuSans-70" x="1226.708984"/>
      <use xlink:href="#DejaVuSans-72" x="1290.185547"/>
      <use xlink:href="#DejaVuSans-69" x="1331.298828"/>
      <use xlink:href="#DejaVuSans-73" x="1359.082031"/>
      <use xlink:href="#DejaVuSans-61" x="1411.181641"/>
      <use xlink:href="#DejaVuSans-6c" x="1472.460938"/>
     </g>
    </g>
    <g id="line2d_38">
     <path d="M 524.56 128.047187 
L 534.56 128.047187 
L 544.56 128.047187 
" style="fill: none; stroke: #e377c2; stroke-width: 1.5; stroke-linecap: square"/>
    </g>
    <g id="text_27">
     <!-- Interaction -->
     <g transform="translate(552.56 131.547187)scale(0.1 -0.1)">
      <use xlink:href="#DejaVuSans-49"/>
      <use xlink:href="#DejaVuSans-6e" x="29.492188"/>
      <use xlink:href="#DejaVuSans-74" x="92.871094"/>
      <use xlink:href="#DejaVuSans-65" x="132.080078"/>
      <use xlink:href="#DejaVuSans-72" x="193.603516"/>
      <use xlink:href="#DejaVuSans-61" x="234.716797"/>
      <use xlink:href="#DejaVuSans-63" x="295.996094"/>
      <use xlink:href="#DejaVuSans-74" x="350.976562"/>
      <use xlink:href="#DejaVuSans-69" x="390.185547"/>
      <use xlink:href="#DejaVuSans-6f" x="417.96875"/>
      <use xlink:href="#DejaVuSans-6e" x="479.150391"/>
     </g>
    </g>
    <g id="line2d_39">
     <path d="M 524.56 142.725312 
L 534.56 142.725312 
L 544.56 142.725312 
" style="fill: none; stroke: #7f7f7f; stroke-width: 1.5; stroke-linecap: square"/>
    </g>
    <g id="text_28">
     <!-- Node + surprisal + interaction -->
     <g transform="translate(552.56 146.225312)scale(0.1 -0.1)">
      <use xlink:href="#DejaVuSans-4e"/>
      <use xlink:href="#DejaVuSans-6f" x="74.804688"/>
      <use xlink:href="#DejaVuSans-64" x="135.986328"/>
      <use xlink:href="#DejaVuSans-65" x="199.462891"/>
      <use xlink:href="#DejaVuSans-20" x="260.986328"/>
      <use xlink:href="#DejaVuSans-2b" x="292.773438"/>
      <use xlink:href="#DejaVuSans-20" x="376.5625"/>
      <use xlink:href="#DejaVuSans-73" x="408.349609"/>
      <use xlink:href="#DejaVuSans-75" x="460.449219"/>
      <use xlink:href="#DejaVuSans-72" x="523.828125"/>
      <use xlink:href="#DejaVuSans-70" x="564.941406"/>
      <use xlink:href="#DejaVuSans-72" x="628.417969"/>
      <use xlink:href="#DejaVuSans-69" x="669.53125"/>
      <use xlink:href="#DejaVuSans-73" x="697.314453"/>
      <use xlink:href="#DejaVuSans-61" x="749.414062"/>
      <use xlink:href="#DejaVuSans-6c" x="810.693359"/>
      <use xlink:href="#DejaVuSans-20" x="838.476562"/>
      <use xlink:href="#DejaVuSans-2b" x="870.263672"/>
      <use xlink:href="#DejaVuSans-20" x="954.052734"/>
      <use xlink:href="#DejaVuSans-69" x="985.839844"/>
      <use xlink:href="#DejaVuSans-6e" x="1013.623047"/>
      <use xlink:href="#DejaVuSans-74" x="1077.001953"/>
      <use xlink:href="#DejaVuSans-65" x="1116.210938"/>
      <use xlink:href="#DejaVuSans-72" x="1177.734375"/>
      <use xlink:href="#DejaVuSans-61" x="1218.847656"/>
      <use xlink:href="#DejaVuSans-63" x="1280.126953"/>
      <use xlink:href="#DejaVuSans-74" x="1335.107422"/>
      <use xlink:href="#DejaVuSans-69" x="1374.316406"/>
      <use xlink:href="#DejaVuSans-6f" x="1402.099609"/>
      <use xlink:href="#DejaVuSans-6e" x="1463.28125"/>
     </g>
    </g>
   </g>
  </g>
 </g>
 <defs>
  <clipPath id="pce0f6793ed">
   <rect x="47.72" y="26.88" width="217.495" height="147.16"/>
  </clipPath>
  <clipPath id="p695d544249">
   <rect x="298.065" y="26.88" width="217.495" height="147.16"/>
  </clipPath>
 </defs>
</svg>
