<?xml version="1.0" encoding="utf-8" standalone="no"?>
<!DOCTYPE svg PUBLIC "-//W3C//DTD SVG 1.1//EN"
  "http://www.w3.org/Graphics/SVG/1.1/DTD/svg11.dtd">
<svg xmlns:xlink="http://www.w3.org/1999/xlink" width="720pt" height="216pt" viewBox="0 0 720 216" xmlns="http://www.w3.org/2000/svg" version="1.1">
 <metadata>
  <rdf:RDF xmlns:dc="http://purl.org/dc/elements/1.1/" xmlns:cc="http://creativecommons.org/ns#" xmlns:rdf="http://www.w3.org/1999/02/22-rdf-syntax-ns#">
   <cc:Work>
    <dc:type rdf:resource="http://purl.org/dc/dcmitype/StillImage"/>
    <dc:date>2024-01-15T20:00:54.614923</dc:date>
    <dc:format>image/svg+xml</dc:format>
    <dc:creator>
     <cc:Agent>
      <dc:title>Matplotlib v3.5.1, https://matplotlib.org/</dc:title>
     </cc:Agent>
    </dc:creator>
   </cc:Work>
  </rdf:RDF>
 </metadata>
 <defs>
  <style type="text/css">*{stroke-linejoin: round; stroke-linecap: butt}</style>
 </defs>
 <g id="figure_1">
  <g id="patch_1">
   <path d="M 0 216 
L 720 216 
L 720 0 
L 0 0 
z
" style="fill: #ffffff"/>
  </g>
  <g id="axes_1">
   <g id="patch_2">
    <path d="M 47.72 174.04 
L 265.215 174.04 
L 265.215 26.88 
L 47.72 26.88 
z
" style="fill: #ffffff"/>
   </g>
   <g id="PolyCollection_1">
    <path d="M 47.72 33.569091 
L 47.72 33.569091 
L 59.167105 35.681426 
L 70.614211 42.285098 
L 82.061316 50.015587 
L 93.508421 61.238972 
L 104.955526 71.345818 
L 116.402632 83.442372 
L 127.849737 94.595862 
L 139.296842 104.416294 
L 150.743947 113.052075 
L 162.191053 120.901513 
L 173.638158 127.697082 
L 185.085263 133.984399 
L 196.532368 138.588513 
L 207.979474 143.161082 
L 219.426579 147.415597 
L 230.873684 150.972557 
L 242.320789 153.917585 
L 253.767895 156.969212 
L 265.215 158.456265 
L 265.215 145.307884 
L 265.215 145.307884 
L 253.767895 143.01931 
L 242.320789 140.067882 
L 230.873684 136.651778 
L 219.426579 132.655782 
L 207.979474 128.236997 
L 196.532368 123.646284 
L 185.085263 118.573065 
L 173.638158 112.973178 
L 162.191053 106.893547 
L 150.743947 100.261825 
L 139.296842 92.083743 
L 127.849737 83.427963 
L 116.402632 74.849701 
L 104.955526 65.323702 
L 93.508421 55.306371 
L 82.061316 47.022816 
L 70.614211 40.216992 
L 59.167105 35.173891 
L 47.72 33.569091 
z
" clip-path="url(#paddc26de13)" style="fill: #1f77b4; fill-opacity: 0.4"/>
   </g>
   <g id="PolyCollection_2">
    <path d="M 47.72 33.569217 
L 47.72 33.569267 
L 59.167105 34.930217 
L 70.614211 38.648116 
L 82.061316 43.573866 
L 93.508421 50.953002 
L 104.955526 58.928475 
L 116.402632 68.780257 
L 127.849737 77.980796 
L 139.296842 87.373063 
L 150.743947 96.441642 
L 162.191053 104.637606 
L 173.638158 112.348296 
L 185.085263 119.676618 
L 196.532368 125.58427 
L 207.979474 130.929889 
L 219.426579 136.55027 
L 230.873684 140.922218 
L 242.320789 144.716356 
L 253.767895 148.55949 
L 265.215 151.012588 
L 265.215 135.948945 
L 265.215 135.948945 
L 253.767895 133.25336 
L 242.320789 129.779702 
L 230.873684 125.328274 
L 219.426579 121.017019 
L 207.979474 116.137921 
L 196.532368 110.747486 
L 185.085263 105.047399 
L 173.638158 98.696572 
L 162.191053 92.720701 
L 150.743947 85.939577 
L 139.296842 78.086757 
L 127.849737 70.192599 
L 116.402632 62.241298 
L 104.955526 54.471076 
L 93.508421 47.372149 
L 82.061316 41.462843 
L 70.614211 37.56691 
L 59.167105 34.646913 
L 47.72 33.569217 
z
" clip-path="url(#paddc26de13)" style="fill: #ff7f0e; fill-opacity: 0.4"/>
   </g>
   <g id="PolyCollection_3">
    <path d="M 47.72 33.569091 
L 47.72 33.569091 
L 59.167105 35.172559 
L 70.614211 38.544525 
L 82.061316 41.913268 
L 93.508421 47.361972 
L 104.955526 51.794721 
L 116.402632 57.843662 
L 127.849737 63.488176 
L 139.296842 68.771208 
L 150.743947 73.731251 
L 162.191053 79.306609 
L 173.638158 84.214765 
L 185.085263 88.45504 
L 196.532368 92.812044 
L 207.979474 96.552182 
L 219.426579 101.543818 
L 230.873684 105.279294 
L 242.320789 109.195666 
L 253.767895 113.478241 
L 265.215 116.795797 
L 265.215 104.153129 
L 265.215 104.153129 
L 253.767895 101.23176 
L 242.320789 98.167653 
L 230.873684 93.729087 
L 219.426579 90.354893 
L 207.979474 86.684771 
L 196.532368 82.894649 
L 185.085263 78.041769 
L 173.638158 73.866236 
L 162.191053 69.396703 
L 150.743947 64.744655 
L 139.296842 60.035592 
L 127.849737 55.463163 
L 116.402632 50.889029 
L 104.955526 46.817001 
L 93.508421 42.919911 
L 82.061316 39.300861 
L 70.614211 36.774661 
L 59.167105 34.76115 
L 47.72 33.569091 
z
" clip-path="url(#paddc26de13)" style="fill: #2ca02c; fill-opacity: 0.4"/>
   </g>
   <g id="PolyCollection_4">
    <path d="M 47.72 33.569779 
L 47.72 33.570077 
L 59.167105 34.812628 
L 70.614211 37.319791 
L 82.061316 39.982675 
L 93.508421 44.710165 
L 104.955526 48.921869 
L 116.402632 54.908644 
L 127.849737 60.514183 
L 139.296842 66.102375 
L 150.743947 71.507341 
L 162.191053 77.431572 
L 173.638158 82.633784 
L 185.085263 87.206339 
L 196.532368 91.595332 
L 207.979474 95.335428 
L 219.426579 100.189373 
L 230.873684 103.758806 
L 242.320789 107.403877 
L 253.767895 111.307044 
L 265.215 114.504289 
L 265.215 102.84422 
L 265.215 102.84422 
L 253.767895 100.195196 
L 242.320789 97.240562 
L 230.873684 92.934829 
L 219.426579 89.671382 
L 207.979474 85.983797 
L 196.532368 82.284585 
L 185.085263 77.380255 
L 173.638158 73.136353 
L 162.191053 68.468046 
L 150.743947 63.721833 
L 139.296842 58.822842 
L 127.849737 54.064119 
L 116.402632 49.44212 
L 104.955526 45.351793 
L 93.508421 41.592278 
L 82.061316 38.325443 
L 70.614211 36.236802 
L 59.167105 34.577682 
L 47.72 33.569779 
z
" clip-path="url(#paddc26de13)" style="fill: #d62728; fill-opacity: 0.4"/>
   </g>
   <g id="PolyCollection_5">
    <path d="M 47.72 33.569091 
L 47.72 33.569091 
L 59.167105 35.687111 
L 70.614211 42.344764 
L 82.061316 50.063563 
L 93.508421 61.397475 
L 104.955526 71.322113 
L 116.402632 83.8203 
L 127.849737 94.659469 
L 139.296842 104.77916 
L 150.743947 113.26836 
L 162.191053 121.011005 
L 173.638158 127.398257 
L 185.085263 133.733553 
L 196.532368 138.967873 
L 207.979474 142.711458 
L 219.426579 146.780712 
L 230.873684 151.253044 
L 242.320789 154.21314 
L 253.767895 156.874559 
L 265.215 159.848564 
L 265.215 146.461075 
L 265.215 146.461075 
L 253.767895 144.311456 
L 242.320789 139.505048 
L 230.873684 136.044541 
L 219.426579 133.622187 
L 207.979474 128.627425 
L 196.532368 124.022638 
L 185.085263 118.113674 
L 173.638158 113.246649 
L 162.191053 107.46583 
L 150.743947 100.06109 
L 139.296842 92.008508 
L 127.849737 83.586812 
L 116.402632 75.218634 
L 104.955526 65.243957 
L 93.508421 55.390526 
L 82.061316 47.045375 
L 70.614211 40.215677 
L 59.167105 35.182563 
L 47.72 33.569091 
z
" clip-path="url(#paddc26de13)" style="fill: #9467bd; fill-opacity: 0.4"/>
   </g>
   <g id="PolyCollection_6">
    <path d="M 47.72 33.569597 
L 47.72 33.569795 
L 59.167105 34.936307 
L 70.614211 38.685133 
L 82.061316 43.595073 
L 93.508421 51.00644 
L 104.955526 58.892924 
L 116.402632 68.888612 
L 127.849737 78.066079 
L 139.296842 87.762929 
L 150.743947 96.508627 
L 162.191053 104.947267 
L 173.638158 112.09934 
L 185.085263 119.38265 
L 196.532368 125.912061 
L 207.979474 130.830761 
L 219.426579 136.087367 
L 230.873684 140.903052 
L 242.320789 145.072872 
L 253.767895 148.462084 
L 265.215 151.978614 
L 265.215 137.300879 
L 265.215 137.300879 
L 253.767895 134.229811 
L 242.320789 129.183706 
L 230.873684 124.94727 
L 219.426579 121.721665 
L 207.979474 116.188737 
L 196.532368 111.048029 
L 185.085263 104.800228 
L 173.638158 98.98491 
L 162.191053 92.968308 
L 150.743947 85.793185 
L 139.296842 78.040318 
L 127.849737 70.350848 
L 116.402632 62.497966 
L 104.955526 54.454849 
L 93.508421 47.426149 
L 82.061316 41.456414 
L 70.614211 37.558157 
L 59.167105 34.648621 
L 47.72 33.569597 
z
" clip-path="url(#paddc26de13)" style="fill: #8c564b; fill-opacity: 0.4"/>
   </g>
   <g id="PolyCollection_7">
    <path d="M 47.72 44.058746 
L 47.72 46.94137 
L 59.167105 49.591065 
L 70.614211 57.746705 
L 82.061316 66.572263 
L 93.508421 79.305502 
L 104.955526 90.047559 
L 116.402632 103.168623 
L 127.849737 114.640831 
L 139.296842 124.642893 
L 150.743947 133.00028 
L 162.191053 140.725106 
L 173.638158 146.409361 
L 185.085263 151.871231 
L 196.532368 155.148217 
L 207.979474 158.342771 
L 219.426579 161.075266 
L 230.873684 163.216142 
L 242.320789 164.793419 
L 253.767895 166.770636 
L 265.215 167.350909 
L 265.215 158.155351 
L 265.215 158.155351 
L 253.767895 156.269043 
L 242.320789 153.951674 
L 230.873684 151.363331 
L 219.426579 147.736544 
L 207.979474 144.329469 
L 196.532368 140.337241 
L 185.085263 135.583998 
L 173.638158 130.855437 
L 162.191053 124.801124 
L 150.743947 118.035467 
L 139.296842 109.576848 
L 127.849737 100.380554 
L 116.402632 90.522915 
L 104.955526 79.787224 
L 93.508421 68.819436 
L 82.061316 59.085867 
L 70.614211 51.111115 
L 59.167105 46.094238 
L 47.72 44.058746 
z
" clip-path="url(#paddc26de13)" style="fill: #e377c2; fill-opacity: 0.4"/>
   </g>
   <g id="PolyCollection_8">
    <path d="M 47.72 33.569313 
L 47.72 33.569461 
L 59.167105 34.221752 
L 70.614211 35.306919 
L 82.061316 37.52899 
L 93.508421 41.791177 
L 104.955526 47.312259 
L 116.402632 54.981675 
L 127.849737 63.715532 
L 139.296842 72.873704 
L 150.743947 82.620449 
L 162.191053 91.835167 
L 173.638158 100.516328 
L 185.085263 108.228885 
L 196.532368 114.980954 
L 207.979474 120.743498 
L 219.426579 126.922882 
L 230.873684 131.450523 
L 242.320789 135.810327 
L 253.767895 140.175303 
L 265.215 143.110281 
L 265.215 129.133282 
L 265.215 129.133282 
L 253.767895 125.926187 
L 242.320789 121.931192 
L 230.873684 116.907135 
L 219.426579 111.902909 
L 207.979474 106.399379 
L 196.532368 99.999032 
L 185.085263 93.034736 
L 173.638158 85.599678 
L 162.191053 78.677257 
L 150.743947 70.395712 
L 139.296842 62.383802 
L 127.849737 54.85045 
L 116.402632 47.79686 
L 104.955526 42.09486 
L 93.508421 37.832322 
L 82.061316 35.277438 
L 70.614211 34.364512 
L 59.167105 34.075251 
L 47.72 33.569313 
z
" clip-path="url(#paddc26de13)" style="fill: #7f7f7f; fill-opacity: 0.4"/>
   </g>
   <g id="matplotlib.axis_1">
    <g id="xtick_1">
     <g id="line2d_1">
      <defs>
       <path id="mf79e384adf" d="M 0 0 
L 0 3.5 
" style="stroke: #000000; stroke-width: 0.8"/>
      </defs>
      <g>
       <use xlink:href="#mf79e384adf" x="47.72" y="174.04" style="stroke: #000000; stroke-width: 0.8"/>
      </g>
     </g>
     <g id="text_1">
      <!-- 0.0 -->
      <g transform="translate(39.768438 188.638438)scale(0.1 -0.1)">
       <defs>
        <path id="DejaVuSans-30" d="M 2034 4250 
Q 1547 4250 1301 3770 
Q 1056 3291 1056 2328 
Q 1056 1369 1301 889 
Q 1547 409 2034 409 
Q 2525 409 2770 889 
Q 3016 1369 3016 2328 
Q 3016 3291 2770 3770 
Q 2525 4250 2034 4250 
z
M 2034 4750 
Q 2819 4750 3233 4129 
Q 3647 3509 3647 2328 
Q 3647 1150 3233 529 
Q 2819 -91 2034 -91 
Q 1250 -91 836 529 
Q 422 1150 422 2328 
Q 422 3509 836 4129 
Q 1250 4750 2034 4750 
z
" transform="scale(0.015625)"/>
        <path id="DejaVuSans-2e" d="M 684 794 
L 1344 794 
L 1344 0 
L 684 0 
L 684 794 
z
" transform="scale(0.015625)"/>
       </defs>
       <use xlink:href="#DejaVuSans-30"/>
       <use xlink:href="#DejaVuSans-2e" x="63.623047"/>
       <use xlink:href="#DejaVuSans-30" x="95.410156"/>
      </g>
     </g>
    </g>
    <g id="xtick_2">
     <g id="line2d_2">
      <g>
       <use xlink:href="#mf79e384adf" x="102.09375" y="174.04" style="stroke: #000000; stroke-width: 0.8"/>
      </g>
     </g>
     <g id="text_2">
      <!-- 0.5 -->
      <g transform="translate(94.142188 188.638438)scale(0.1 -0.1)">
       <defs>
        <path id="DejaVuSans-35" d="M 691 4666 
L 3169 4666 
L 3169 4134 
L 1269 4134 
L 1269 2991 
Q 1406 3038 1543 3061 
Q 1681 3084 1819 3084 
Q 2600 3084 3056 2656 
Q 3513 2228 3513 1497 
Q 3513 744 3044 326 
Q 2575 -91 1722 -91 
Q 1428 -91 1123 -41 
Q 819 9 494 109 
L 494 744 
Q 775 591 1075 516 
Q 1375 441 1709 441 
Q 2250 441 2565 725 
Q 2881 1009 2881 1497 
Q 2881 1984 2565 2268 
Q 2250 2553 1709 2553 
Q 1456 2553 1204 2497 
Q 953 2441 691 2322 
L 691 4666 
z
" transform="scale(0.015625)"/>
       </defs>
       <use xlink:href="#DejaVuSans-30"/>
       <use xlink:href="#DejaVuSans-2e" x="63.623047"/>
       <use xlink:href="#DejaVuSans-35" x="95.410156"/>
      </g>
     </g>
    </g>
    <g id="xtick_3">
     <g id="line2d_3">
      <g>
       <use xlink:href="#mf79e384adf" x="156.4675" y="174.04" style="stroke: #000000; stroke-width: 0.8"/>
      </g>
     </g>
     <g id="text_3">
      <!-- 1.0 -->
      <g transform="translate(148.515938 188.638438)scale(0.1 -0.1)">
       <defs>
        <path id="DejaVuSans-31" d="M 794 531 
L 1825 531 
L 1825 4091 
L 703 3866 
L 703 4441 
L 1819 4666 
L 2450 4666 
L 2450 531 
L 3481 531 
L 3481 0 
L 794 0 
L 794 531 
z
" transform="scale(0.015625)"/>
       </defs>
       <use xlink:href="#DejaVuSans-31"/>
       <use xlink:href="#DejaVuSans-2e" x="63.623047"/>
       <use xlink:href="#DejaVuSans-30" x="95.410156"/>
      </g>
     </g>
    </g>
    <g id="xtick_4">
     <g id="line2d_4">
      <g>
       <use xlink:href="#mf79e384adf" x="210.84125" y="174.04" style="stroke: #000000; stroke-width: 0.8"/>
      </g>
     </g>
     <g id="text_4">
      <!-- 1.5 -->
      <g transform="translate(202.889687 188.638438)scale(0.1 -0.1)">
       <use xlink:href="#DejaVuSans-31"/>
       <use xlink:href="#DejaVuSans-2e" x="63.623047"/>
       <use xlink:href="#DejaVuSans-35" x="95.410156"/>
      </g>
     </g>
    </g>
    <g id="xtick_5">
     <g id="line2d_5">
      <g>
       <use xlink:href="#mf79e384adf" x="265.215" y="174.04" style="stroke: #000000; stroke-width: 0.8"/>
      </g>
     </g>
     <g id="text_5">
      <!-- 2.0 -->
      <g transform="translate(257.263437 188.638438)scale(0.1 -0.1)">
       <defs>
        <path id="DejaVuSans-32" d="M 1228 531 
L 3431 531 
L 3431 0 
L 469 0 
L 469 531 
Q 828 903 1448 1529 
Q 2069 2156 2228 2338 
Q 2531 2678 2651 2914 
Q 2772 3150 2772 3378 
Q 2772 3750 2511 3984 
Q 2250 4219 1831 4219 
Q 1534 4219 1204 4116 
Q 875 4013 500 3803 
L 500 4441 
Q 881 4594 1212 4672 
Q 1544 4750 1819 4750 
Q 2544 4750 2975 4387 
Q 3406 4025 3406 3419 
Q 3406 3131 3298 2873 
Q 3191 2616 2906 2266 
Q 2828 2175 2409 1742 
Q 1991 1309 1228 531 
z
" transform="scale(0.015625)"/>
       </defs>
       <use xlink:href="#DejaVuSans-32"/>
       <use xlink:href="#DejaVuSans-2e" x="63.623047"/>
       <use xlink:href="#DejaVuSans-30" x="95.410156"/>
      </g>
     </g>
    </g>
    <g id="text_6">
     <!-- Influence of surprisal (multiplication) -->
     <g transform="translate(64.320625 202.316563)scale(0.1 -0.1)">
      <defs>
       <path id="DejaVuSans-49" d="M 628 4666 
L 1259 4666 
L 1259 0 
L 628 0 
L 628 4666 
z
" transform="scale(0.015625)"/>
       <path id="DejaVuSans-6e" d="M 3513 2113 
L 3513 0 
L 2938 0 
L 2938 2094 
Q 2938 2591 2744 2837 
Q 2550 3084 2163 3084 
Q 1697 3084 1428 2787 
Q 1159 2491 1159 1978 
L 1159 0 
L 581 0 
L 581 3500 
L 1159 3500 
L 1159 2956 
Q 1366 3272 1645 3428 
Q 1925 3584 2291 3584 
Q 2894 3584 3203 3211 
Q 3513 2838 3513 2113 
z
" transform="scale(0.015625)"/>
       <path id="DejaVuSans-66" d="M 2375 4863 
L 2375 4384 
L 1825 4384 
Q 1516 4384 1395 4259 
Q 1275 4134 1275 3809 
L 1275 3500 
L 2222 3500 
L 2222 3053 
L 1275 3053 
L 1275 0 
L 697 0 
L 697 3053 
L 147 3053 
L 147 3500 
L 697 3500 
L 697 3744 
Q 697 4328 969 4595 
Q 1241 4863 1831 4863 
L 2375 4863 
z
" transform="scale(0.015625)"/>
       <path id="DejaVuSans-6c" d="M 603 4863 
L 1178 4863 
L 1178 0 
L 603 0 
L 603 4863 
z
" transform="scale(0.015625)"/>
       <path id="DejaVuSans-75" d="M 544 1381 
L 544 3500 
L 1119 3500 
L 1119 1403 
Q 1119 906 1312 657 
Q 1506 409 1894 409 
Q 2359 409 2629 706 
Q 2900 1003 2900 1516 
L 2900 3500 
L 3475 3500 
L 3475 0 
L 2900 0 
L 2900 538 
Q 2691 219 2414 64 
Q 2138 -91 1772 -91 
Q 1169 -91 856 284 
Q 544 659 544 1381 
z
M 1991 3584 
L 1991 3584 
z
" transform="scale(0.015625)"/>
       <path id="DejaVuSans-65" d="M 3597 1894 
L 3597 1613 
L 953 1613 
Q 991 1019 1311 708 
Q 1631 397 2203 397 
Q 2534 397 2845 478 
Q 3156 559 3463 722 
L 3463 178 
Q 3153 47 2828 -22 
Q 2503 -91 2169 -91 
Q 1331 -91 842 396 
Q 353 884 353 1716 
Q 353 2575 817 3079 
Q 1281 3584 2069 3584 
Q 2775 3584 3186 3129 
Q 3597 2675 3597 1894 
z
M 3022 2063 
Q 3016 2534 2758 2815 
Q 2500 3097 2075 3097 
Q 1594 3097 1305 2825 
Q 1016 2553 972 2059 
L 3022 2063 
z
" transform="scale(0.015625)"/>
       <path id="DejaVuSans-63" d="M 3122 3366 
L 3122 2828 
Q 2878 2963 2633 3030 
Q 2388 3097 2138 3097 
Q 1578 3097 1268 2742 
Q 959 2388 959 1747 
Q 959 1106 1268 751 
Q 1578 397 2138 397 
Q 2388 397 2633 464 
Q 2878 531 3122 666 
L 3122 134 
Q 2881 22 2623 -34 
Q 2366 -91 2075 -91 
Q 1284 -91 818 406 
Q 353 903 353 1747 
Q 353 2603 823 3093 
Q 1294 3584 2113 3584 
Q 2378 3584 2631 3529 
Q 2884 3475 3122 3366 
z
" transform="scale(0.015625)"/>
       <path id="DejaVuSans-20" transform="scale(0.015625)"/>
       <path id="DejaVuSans-6f" d="M 1959 3097 
Q 1497 3097 1228 2736 
Q 959 2375 959 1747 
Q 959 1119 1226 758 
Q 1494 397 1959 397 
Q 2419 397 2687 759 
Q 2956 1122 2956 1747 
Q 2956 2369 2687 2733 
Q 2419 3097 1959 3097 
z
M 1959 3584 
Q 2709 3584 3137 3096 
Q 3566 2609 3566 1747 
Q 3566 888 3137 398 
Q 2709 -91 1959 -91 
Q 1206 -91 779 398 
Q 353 888 353 1747 
Q 353 2609 779 3096 
Q 1206 3584 1959 3584 
z
" transform="scale(0.015625)"/>
       <path id="DejaVuSans-73" d="M 2834 3397 
L 2834 2853 
Q 2591 2978 2328 3040 
Q 2066 3103 1784 3103 
Q 1356 3103 1142 2972 
Q 928 2841 928 2578 
Q 928 2378 1081 2264 
Q 1234 2150 1697 2047 
L 1894 2003 
Q 2506 1872 2764 1633 
Q 3022 1394 3022 966 
Q 3022 478 2636 193 
Q 2250 -91 1575 -91 
Q 1294 -91 989 -36 
Q 684 19 347 128 
L 347 722 
Q 666 556 975 473 
Q 1284 391 1588 391 
Q 1994 391 2212 530 
Q 2431 669 2431 922 
Q 2431 1156 2273 1281 
Q 2116 1406 1581 1522 
L 1381 1569 
Q 847 1681 609 1914 
Q 372 2147 372 2553 
Q 372 3047 722 3315 
Q 1072 3584 1716 3584 
Q 2034 3584 2315 3537 
Q 2597 3491 2834 3397 
z
" transform="scale(0.015625)"/>
       <path id="DejaVuSans-72" d="M 2631 2963 
Q 2534 3019 2420 3045 
Q 2306 3072 2169 3072 
Q 1681 3072 1420 2755 
Q 1159 2438 1159 1844 
L 1159 0 
L 581 0 
L 581 3500 
L 1159 3500 
L 1159 2956 
Q 1341 3275 1631 3429 
Q 1922 3584 2338 3584 
Q 2397 3584 2469 3576 
Q 2541 3569 2628 3553 
L 2631 2963 
z
" transform="scale(0.015625)"/>
       <path id="DejaVuSans-70" d="M 1159 525 
L 1159 -1331 
L 581 -1331 
L 581 3500 
L 1159 3500 
L 1159 2969 
Q 1341 3281 1617 3432 
Q 1894 3584 2278 3584 
Q 2916 3584 3314 3078 
Q 3713 2572 3713 1747 
Q 3713 922 3314 415 
Q 2916 -91 2278 -91 
Q 1894 -91 1617 61 
Q 1341 213 1159 525 
z
M 3116 1747 
Q 3116 2381 2855 2742 
Q 2594 3103 2138 3103 
Q 1681 3103 1420 2742 
Q 1159 2381 1159 1747 
Q 1159 1113 1420 752 
Q 1681 391 2138 391 
Q 2594 391 2855 752 
Q 3116 1113 3116 1747 
z
" transform="scale(0.015625)"/>
       <path id="DejaVuSans-69" d="M 603 3500 
L 1178 3500 
L 1178 0 
L 603 0 
L 603 3500 
z
M 603 4863 
L 1178 4863 
L 1178 4134 
L 603 4134 
L 603 4863 
z
" transform="scale(0.015625)"/>
       <path id="DejaVuSans-61" d="M 2194 1759 
Q 1497 1759 1228 1600 
Q 959 1441 959 1056 
Q 959 750 1161 570 
Q 1363 391 1709 391 
Q 2188 391 2477 730 
Q 2766 1069 2766 1631 
L 2766 1759 
L 2194 1759 
z
M 3341 1997 
L 3341 0 
L 2766 0 
L 2766 531 
Q 2569 213 2275 61 
Q 1981 -91 1556 -91 
Q 1019 -91 701 211 
Q 384 513 384 1019 
Q 384 1609 779 1909 
Q 1175 2209 1959 2209 
L 2766 2209 
L 2766 2266 
Q 2766 2663 2505 2880 
Q 2244 3097 1772 3097 
Q 1472 3097 1187 3025 
Q 903 2953 641 2809 
L 641 3341 
Q 956 3463 1253 3523 
Q 1550 3584 1831 3584 
Q 2591 3584 2966 3190 
Q 3341 2797 3341 1997 
z
" transform="scale(0.015625)"/>
       <path id="DejaVuSans-28" d="M 1984 4856 
Q 1566 4138 1362 3434 
Q 1159 2731 1159 2009 
Q 1159 1288 1364 580 
Q 1569 -128 1984 -844 
L 1484 -844 
Q 1016 -109 783 600 
Q 550 1309 550 2009 
Q 550 2706 781 3412 
Q 1013 4119 1484 4856 
L 1984 4856 
z
" transform="scale(0.015625)"/>
       <path id="DejaVuSans-6d" d="M 3328 2828 
Q 3544 3216 3844 3400 
Q 4144 3584 4550 3584 
Q 5097 3584 5394 3201 
Q 5691 2819 5691 2113 
L 5691 0 
L 5113 0 
L 5113 2094 
Q 5113 2597 4934 2840 
Q 4756 3084 4391 3084 
Q 3944 3084 3684 2787 
Q 3425 2491 3425 1978 
L 3425 0 
L 2847 0 
L 2847 2094 
Q 2847 2600 2669 2842 
Q 2491 3084 2119 3084 
Q 1678 3084 1418 2786 
Q 1159 2488 1159 1978 
L 1159 0 
L 581 0 
L 581 3500 
L 1159 3500 
L 1159 2956 
Q 1356 3278 1631 3431 
Q 1906 3584 2284 3584 
Q 2666 3584 2933 3390 
Q 3200 3197 3328 2828 
z
" transform="scale(0.015625)"/>
       <path id="DejaVuSans-74" d="M 1172 4494 
L 1172 3500 
L 2356 3500 
L 2356 3053 
L 1172 3053 
L 1172 1153 
Q 1172 725 1289 603 
Q 1406 481 1766 481 
L 2356 481 
L 2356 0 
L 1766 0 
Q 1100 0 847 248 
Q 594 497 594 1153 
L 594 3053 
L 172 3053 
L 172 3500 
L 594 3500 
L 594 4494 
L 1172 4494 
z
" transform="scale(0.015625)"/>
       <path id="DejaVuSans-29" d="M 513 4856 
L 1013 4856 
Q 1481 4119 1714 3412 
Q 1947 2706 1947 2009 
Q 1947 1309 1714 600 
Q 1481 -109 1013 -844 
L 513 -844 
Q 928 -128 1133 580 
Q 1338 1288 1338 2009 
Q 1338 2731 1133 3434 
Q 928 4138 513 4856 
z
" transform="scale(0.015625)"/>
      </defs>
      <use xlink:href="#DejaVuSans-49"/>
      <use xlink:href="#DejaVuSans-6e" x="29.492188"/>
      <use xlink:href="#DejaVuSans-66" x="92.871094"/>
      <use xlink:href="#DejaVuSans-6c" x="128.076172"/>
      <use xlink:href="#DejaVuSans-75" x="155.859375"/>
      <use xlink:href="#DejaVuSans-65" x="219.238281"/>
      <use xlink:href="#DejaVuSans-6e" x="280.761719"/>
      <use xlink:href="#DejaVuSans-63" x="344.140625"/>
      <use xlink:href="#DejaVuSans-65" x="399.121094"/>
      <use xlink:href="#DejaVuSans-20" x="460.644531"/>
      <use xlink:href="#DejaVuSans-6f" x="492.431641"/>
      <use xlink:href="#DejaVuSans-66" x="553.613281"/>
      <use xlink:href="#DejaVuSans-20" x="588.818359"/>
      <use xlink:href="#DejaVuSans-73" x="620.605469"/>
      <use xlink:href="#DejaVuSans-75" x="672.705078"/>
      <use xlink:href="#DejaVuSans-72" x="736.083984"/>
      <use xlink:href="#DejaVuSans-70" x="777.197266"/>
      <use xlink:href="#DejaVuSans-72" x="840.673828"/>
      <use xlink:href="#DejaVuSans-69" x="881.787109"/>
      <use xlink:href="#DejaVuSans-73" x="909.570312"/>
      <use xlink:href="#DejaVuSans-61" x="961.669922"/>
      <use xlink:href="#DejaVuSans-6c" x="1022.949219"/>
      <use xlink:href="#DejaVuSans-20" x="1050.732422"/>
      <use xlink:href="#DejaVuSans-28" x="1082.519531"/>
      <use xlink:href="#DejaVuSans-6d" x="1121.533203"/>
      <use xlink:href="#DejaVuSans-75" x="1218.945312"/>
      <use xlink:href="#DejaVuSans-6c" x="1282.324219"/>
      <use xlink:href="#DejaVuSans-74" x="1310.107422"/>
      <use xlink:href="#DejaVuSans-69" x="1349.316406"/>
      <use xlink:href="#DejaVuSans-70" x="1377.099609"/>
      <use xlink:href="#DejaVuSans-6c" x="1440.576172"/>
      <use xlink:href="#DejaVuSans-69" x="1468.359375"/>
      <use xlink:href="#DejaVuSans-63" x="1496.142578"/>
      <use xlink:href="#DejaVuSans-61" x="1551.123047"/>
      <use xlink:href="#DejaVuSans-74" x="1612.402344"/>
      <use xlink:href="#DejaVuSans-69" x="1651.611328"/>
      <use xlink:href="#DejaVuSans-6f" x="1679.394531"/>
      <use xlink:href="#DejaVuSans-6e" x="1740.576172"/>
      <use xlink:href="#DejaVuSans-29" x="1803.955078"/>
     </g>
    </g>
   </g>
   <g id="matplotlib.axis_2">
    <g id="ytick_1">
     <g id="line2d_6">
      <defs>
       <path id="m08da350a70" d="M 0 0 
L -3.5 0 
" style="stroke: #000000; stroke-width: 0.8"/>
      </defs>
      <g>
       <use xlink:href="#m08da350a70" x="47.72" y="153.447021" style="stroke: #000000; stroke-width: 0.8"/>
      </g>
     </g>
     <g id="text_7">
      <!-- 0.2 -->
      <g transform="translate(24.816875 157.24624)scale(0.1 -0.1)">
       <use xlink:href="#DejaVuSans-30"/>
       <use xlink:href="#DejaVuSans-2e" x="63.623047"/>
       <use xlink:href="#DejaVuSans-32" x="95.410156"/>
      </g>
     </g>
    </g>
    <g id="ytick_2">
     <g id="line2d_7">
      <g>
       <use xlink:href="#m08da350a70" x="47.72" y="123.477539" style="stroke: #000000; stroke-width: 0.8"/>
      </g>
     </g>
     <g id="text_8">
      <!-- 0.4 -->
      <g transform="translate(24.816875 127.276757)scale(0.1 -0.1)">
       <defs>
        <path id="DejaVuSans-34" d="M 2419 4116 
L 825 1625 
L 2419 1625 
L 2419 4116 
z
M 2253 4666 
L 3047 4666 
L 3047 1625 
L 3713 1625 
L 3713 1100 
L 3047 1100 
L 3047 0 
L 2419 0 
L 2419 1100 
L 313 1100 
L 313 1709 
L 2253 4666 
z
" transform="scale(0.015625)"/>
       </defs>
       <use xlink:href="#DejaVuSans-30"/>
       <use xlink:href="#DejaVuSans-2e" x="63.623047"/>
       <use xlink:href="#DejaVuSans-34" x="95.410156"/>
      </g>
     </g>
    </g>
    <g id="ytick_3">
     <g id="line2d_8">
      <g>
       <use xlink:href="#m08da350a70" x="47.72" y="93.508056" style="stroke: #000000; stroke-width: 0.8"/>
      </g>
     </g>
     <g id="text_9">
      <!-- 0.6 -->
      <g transform="translate(24.816875 97.307275)scale(0.1 -0.1)">
       <defs>
        <path id="DejaVuSans-36" d="M 2113 2584 
Q 1688 2584 1439 2293 
Q 1191 2003 1191 1497 
Q 1191 994 1439 701 
Q 1688 409 2113 409 
Q 2538 409 2786 701 
Q 3034 994 3034 1497 
Q 3034 2003 2786 2293 
Q 2538 2584 2113 2584 
z
M 3366 4563 
L 3366 3988 
Q 3128 4100 2886 4159 
Q 2644 4219 2406 4219 
Q 1781 4219 1451 3797 
Q 1122 3375 1075 2522 
Q 1259 2794 1537 2939 
Q 1816 3084 2150 3084 
Q 2853 3084 3261 2657 
Q 3669 2231 3669 1497 
Q 3669 778 3244 343 
Q 2819 -91 2113 -91 
Q 1303 -91 875 529 
Q 447 1150 447 2328 
Q 447 3434 972 4092 
Q 1497 4750 2381 4750 
Q 2619 4750 2861 4703 
Q 3103 4656 3366 4563 
z
" transform="scale(0.015625)"/>
       </defs>
       <use xlink:href="#DejaVuSans-30"/>
       <use xlink:href="#DejaVuSans-2e" x="63.623047"/>
       <use xlink:href="#DejaVuSans-36" x="95.410156"/>
      </g>
     </g>
    </g>
    <g id="ytick_4">
     <g id="line2d_9">
      <g>
       <use xlink:href="#m08da350a70" x="47.72" y="63.538574" style="stroke: #000000; stroke-width: 0.8"/>
      </g>
     </g>
     <g id="text_10">
      <!-- 0.8 -->
      <g transform="translate(24.816875 67.337792)scale(0.1 -0.1)">
       <defs>
        <path id="DejaVuSans-38" d="M 2034 2216 
Q 1584 2216 1326 1975 
Q 1069 1734 1069 1313 
Q 1069 891 1326 650 
Q 1584 409 2034 409 
Q 2484 409 2743 651 
Q 3003 894 3003 1313 
Q 3003 1734 2745 1975 
Q 2488 2216 2034 2216 
z
M 1403 2484 
Q 997 2584 770 2862 
Q 544 3141 544 3541 
Q 544 4100 942 4425 
Q 1341 4750 2034 4750 
Q 2731 4750 3128 4425 
Q 3525 4100 3525 3541 
Q 3525 3141 3298 2862 
Q 3072 2584 2669 2484 
Q 3125 2378 3379 2068 
Q 3634 1759 3634 1313 
Q 3634 634 3220 271 
Q 2806 -91 2034 -91 
Q 1263 -91 848 271 
Q 434 634 434 1313 
Q 434 1759 690 2068 
Q 947 2378 1403 2484 
z
M 1172 3481 
Q 1172 3119 1398 2916 
Q 1625 2713 2034 2713 
Q 2441 2713 2670 2916 
Q 2900 3119 2900 3481 
Q 2900 3844 2670 4047 
Q 2441 4250 2034 4250 
Q 1625 4250 1398 4047 
Q 1172 3844 1172 3481 
z
" transform="scale(0.015625)"/>
       </defs>
       <use xlink:href="#DejaVuSans-30"/>
       <use xlink:href="#DejaVuSans-2e" x="63.623047"/>
       <use xlink:href="#DejaVuSans-38" x="95.410156"/>
      </g>
     </g>
    </g>
    <g id="ytick_5">
     <g id="line2d_10">
      <g>
       <use xlink:href="#m08da350a70" x="47.72" y="33.569091" style="stroke: #000000; stroke-width: 0.8"/>
      </g>
     </g>
     <g id="text_11">
      <!-- 1.0 -->
      <g transform="translate(24.816875 37.36831)scale(0.1 -0.1)">
       <use xlink:href="#DejaVuSans-31"/>
       <use xlink:href="#DejaVuSans-2e" x="63.623047"/>
       <use xlink:href="#DejaVuSans-30" x="95.410156"/>
      </g>
     </g>
    </g>
    <g id="text_12">
     <!-- R-value -->
     <g transform="translate(18.737188 119.064687)rotate(-90)scale(0.1 -0.1)">
      <defs>
       <path id="DejaVuSans-52" d="M 2841 2188 
Q 3044 2119 3236 1894 
Q 3428 1669 3622 1275 
L 4263 0 
L 3584 0 
L 2988 1197 
Q 2756 1666 2539 1819 
Q 2322 1972 1947 1972 
L 1259 1972 
L 1259 0 
L 628 0 
L 628 4666 
L 2053 4666 
Q 2853 4666 3247 4331 
Q 3641 3997 3641 3322 
Q 3641 2881 3436 2590 
Q 3231 2300 2841 2188 
z
M 1259 4147 
L 1259 2491 
L 2053 2491 
Q 2509 2491 2742 2702 
Q 2975 2913 2975 3322 
Q 2975 3731 2742 3939 
Q 2509 4147 2053 4147 
L 1259 4147 
z
" transform="scale(0.015625)"/>
       <path id="DejaVuSans-2d" d="M 313 2009 
L 1997 2009 
L 1997 1497 
L 313 1497 
L 313 2009 
z
" transform="scale(0.015625)"/>
       <path id="DejaVuSans-76" d="M 191 3500 
L 800 3500 
L 1894 563 
L 2988 3500 
L 3597 3500 
L 2284 0 
L 1503 0 
L 191 3500 
z
" transform="scale(0.015625)"/>
      </defs>
      <use xlink:href="#DejaVuSans-52"/>
      <use xlink:href="#DejaVuSans-2d" x="65.482422"/>
      <use xlink:href="#DejaVuSans-76" x="98.941406"/>
      <use xlink:href="#DejaVuSans-61" x="158.121094"/>
      <use xlink:href="#DejaVuSans-6c" x="219.400391"/>
      <use xlink:href="#DejaVuSans-75" x="247.183594"/>
      <use xlink:href="#DejaVuSans-65" x="310.5625"/>
     </g>
    </g>
   </g>
   <g id="line2d_11">
    <path d="M 47.72 33.569091 
L 59.167105 35.427659 
L 70.614211 41.251045 
L 82.061316 48.519202 
L 93.508421 58.272671 
L 104.955526 68.33476 
L 116.402632 79.146036 
L 127.849737 89.011912 
L 139.296842 98.250018 
L 150.743947 106.65695 
L 162.191053 113.89753 
L 173.638158 120.33513 
L 185.085263 126.278732 
L 196.532368 131.117398 
L 207.979474 135.69904 
L 219.426579 140.035689 
L 230.873684 143.812167 
L 242.320789 146.992733 
L 253.767895 149.994261 
L 265.215 151.882074 
" clip-path="url(#paddc26de13)" style="fill: none; stroke: #1f77b4; stroke-width: 1.5; stroke-linecap: square"/>
   </g>
   <g id="line2d_12">
    <path d="M 47.72 33.569242 
L 59.167105 34.788565 
L 70.614211 38.107513 
L 82.061316 42.518354 
L 93.508421 49.162575 
L 104.955526 56.699776 
L 116.402632 65.510777 
L 127.849737 74.086698 
L 139.296842 82.72991 
L 150.743947 91.19061 
L 162.191053 98.679154 
L 173.638158 105.522434 
L 185.085263 112.362009 
L 196.532368 118.165878 
L 207.979474 123.533905 
L 219.426579 128.783644 
L 230.873684 133.125246 
L 242.320789 137.248029 
L 253.767895 140.906425 
L 265.215 143.480767 
" clip-path="url(#paddc26de13)" style="fill: none; stroke: #ff7f0e; stroke-width: 1.5; stroke-linecap: square"/>
   </g>
   <g id="line2d_13">
    <path d="M 47.72 33.569091 
L 59.167105 34.966855 
L 70.614211 37.659593 
L 82.061316 40.607064 
L 93.508421 45.140942 
L 104.955526 49.305861 
L 116.402632 54.366346 
L 127.849737 59.47567 
L 139.296842 64.4034 
L 150.743947 69.237953 
L 162.191053 74.351656 
L 173.638158 79.0405 
L 185.085263 83.248404 
L 196.532368 87.853347 
L 207.979474 91.618476 
L 219.426579 95.949355 
L 230.873684 99.504191 
L 242.320789 103.681659 
L 253.767895 107.355 
L 265.215 110.474463 
" clip-path="url(#paddc26de13)" style="fill: none; stroke: #2ca02c; stroke-width: 1.5; stroke-linecap: square"/>
   </g>
   <g id="line2d_14">
    <path d="M 47.72 33.569928 
L 59.167105 34.695155 
L 70.614211 36.778297 
L 82.061316 39.154059 
L 93.508421 43.151221 
L 104.955526 47.136831 
L 116.402632 52.175382 
L 127.849737 57.289151 
L 139.296842 62.462608 
L 150.743947 67.614587 
L 162.191053 72.949809 
L 173.638158 77.885068 
L 185.085263 82.293297 
L 196.532368 86.939958 
L 207.979474 90.659612 
L 219.426579 94.930377 
L 230.873684 98.346818 
L 242.320789 102.32222 
L 253.767895 105.75112 
L 265.215 108.674255 
" clip-path="url(#paddc26de13)" style="fill: none; stroke: #d62728; stroke-width: 1.5; stroke-linecap: square"/>
   </g>
   <g id="line2d_15">
    <path d="M 47.72 33.569091 
L 59.167105 35.434837 
L 70.614211 41.280221 
L 82.061316 48.554469 
L 93.508421 58.394 
L 104.955526 68.283035 
L 116.402632 79.519467 
L 127.849737 89.12314 
L 139.296842 98.393834 
L 150.743947 106.664725 
L 162.191053 114.238418 
L 173.638158 120.322453 
L 185.085263 125.923614 
L 196.532368 131.495255 
L 207.979474 135.669442 
L 219.426579 140.20145 
L 230.873684 143.648792 
L 242.320789 146.859094 
L 253.767895 150.593007 
L 265.215 153.154819 
" clip-path="url(#paddc26de13)" style="fill: none; stroke: #9467bd; stroke-width: 1.5; stroke-linecap: square"/>
   </g>
   <g id="line2d_16">
    <path d="M 47.72 33.569696 
L 59.167105 34.792464 
L 70.614211 38.121645 
L 82.061316 42.525743 
L 93.508421 49.216294 
L 104.955526 56.673886 
L 116.402632 65.693289 
L 127.849737 74.208463 
L 139.296842 82.901623 
L 150.743947 91.150906 
L 162.191053 98.957787 
L 173.638158 105.542125 
L 185.085263 112.091439 
L 196.532368 118.480045 
L 207.979474 123.509749 
L 219.426579 128.904516 
L 230.873684 132.925161 
L 242.320789 137.128289 
L 253.767895 141.345948 
L 265.215 144.639746 
" clip-path="url(#paddc26de13)" style="fill: none; stroke: #8c564b; stroke-width: 1.5; stroke-linecap: square"/>
   </g>
   <g id="line2d_17">
    <path d="M 47.72 45.500058 
L 59.167105 47.842651 
L 70.614211 54.42891 
L 82.061316 62.829065 
L 93.508421 74.062469 
L 104.955526 84.917392 
L 116.402632 96.845769 
L 127.849737 107.510693 
L 139.296842 117.10987 
L 150.743947 125.517874 
L 162.191053 132.763115 
L 173.638158 138.632399 
L 185.085263 143.727614 
L 196.532368 147.742729 
L 207.979474 151.33612 
L 219.426579 154.405905 
L 230.873684 157.289736 
L 242.320789 159.372547 
L 253.767895 161.519839 
L 265.215 162.75313 
" clip-path="url(#paddc26de13)" style="fill: none; stroke: #e377c2; stroke-width: 1.5; stroke-linecap: square"/>
   </g>
   <g id="line2d_18">
    <path d="M 47.72 33.569387 
L 59.167105 34.148501 
L 70.614211 34.835715 
L 82.061316 36.403214 
L 93.508421 39.811749 
L 104.955526 44.703559 
L 116.402632 51.389267 
L 127.849737 59.282991 
L 139.296842 67.628753 
L 150.743947 76.508081 
L 162.191053 85.256212 
L 173.638158 93.058003 
L 185.085263 100.631811 
L 196.532368 107.489993 
L 207.979474 113.571438 
L 219.426579 119.412896 
L 230.873684 124.178829 
L 242.320789 128.87076 
L 253.767895 133.050745 
L 265.215 136.121782 
" clip-path="url(#paddc26de13)" style="fill: none; stroke: #7f7f7f; stroke-width: 1.5; stroke-linecap: square"/>
   </g>
   <g id="patch_3">
    <path d="M 47.72 174.04 
L 47.72 26.88 
" style="fill: none; stroke: #000000; stroke-width: 0.8; stroke-linejoin: miter; stroke-linecap: square"/>
   </g>
   <g id="patch_4">
    <path d="M 47.72 174.04 
L 265.215 174.04 
" style="fill: none; stroke: #000000; stroke-width: 0.8; stroke-linejoin: miter; stroke-linecap: square"/>
   </g>
   <g id="text_13">
    <!-- Node * surprisal -->
    <g transform="translate(108.18625 20.88)scale(0.12 -0.12)">
     <defs>
      <path id="DejaVuSans-4e" d="M 628 4666 
L 1478 4666 
L 3547 763 
L 3547 4666 
L 4159 4666 
L 4159 0 
L 3309 0 
L 1241 3903 
L 1241 0 
L 628 0 
L 628 4666 
z
" transform="scale(0.015625)"/>
      <path id="DejaVuSans-64" d="M 2906 2969 
L 2906 4863 
L 3481 4863 
L 3481 0 
L 2906 0 
L 2906 525 
Q 2725 213 2448 61 
Q 2172 -91 1784 -91 
Q 1150 -91 751 415 
Q 353 922 353 1747 
Q 353 2572 751 3078 
Q 1150 3584 1784 3584 
Q 2172 3584 2448 3432 
Q 2725 3281 2906 2969 
z
M 947 1747 
Q 947 1113 1208 752 
Q 1469 391 1925 391 
Q 2381 391 2643 752 
Q 2906 1113 2906 1747 
Q 2906 2381 2643 2742 
Q 2381 3103 1925 3103 
Q 1469 3103 1208 2742 
Q 947 2381 947 1747 
z
" transform="scale(0.015625)"/>
      <path id="DejaVuSans-2a" d="M 3009 3897 
L 1888 3291 
L 3009 2681 
L 2828 2375 
L 1778 3009 
L 1778 1831 
L 1422 1831 
L 1422 3009 
L 372 2375 
L 191 2681 
L 1313 3291 
L 191 3897 
L 372 4206 
L 1422 3572 
L 1422 4750 
L 1778 4750 
L 1778 3572 
L 2828 4206 
L 3009 3897 
z
" transform="scale(0.015625)"/>
     </defs>
     <use xlink:href="#DejaVuSans-4e"/>
     <use xlink:href="#DejaVuSans-6f" x="74.804688"/>
     <use xlink:href="#DejaVuSans-64" x="135.986328"/>
     <use xlink:href="#DejaVuSans-65" x="199.462891"/>
     <use xlink:href="#DejaVuSans-20" x="260.986328"/>
     <use xlink:href="#DejaVuSans-2a" x="292.773438"/>
     <use xlink:href="#DejaVuSans-20" x="342.773438"/>
     <use xlink:href="#DejaVuSans-73" x="374.560547"/>
     <use xlink:href="#DejaVuSans-75" x="426.660156"/>
     <use xlink:href="#DejaVuSans-72" x="490.039062"/>
     <use xlink:href="#DejaVuSans-70" x="531.152344"/>
     <use xlink:href="#DejaVuSans-72" x="594.628906"/>
     <use xlink:href="#DejaVuSans-69" x="635.742188"/>
     <use xlink:href="#DejaVuSans-73" x="663.525391"/>
     <use xlink:href="#DejaVuSans-61" x="715.625"/>
     <use xlink:href="#DejaVuSans-6c" x="776.904297"/>
    </g>
   </g>
  </g>
  <g id="axes_2">
   <g id="patch_5">
    <path d="M 298.065 174.04 
L 515.56 174.04 
L 515.56 26.88 
L 298.065 26.88 
z
" style="fill: #ffffff"/>
   </g>
   <g id="PolyCollection_9">
    <path d="M 298.065 33.569091 
L 298.065 33.569091 
L 309.512105 36.064121 
L 320.959211 42.023816 
L 332.406316 51.1141 
L 343.853421 60.529241 
L 355.300526 70.486529 
L 366.747632 80.721018 
L 378.194737 90.934225 
L 389.641842 100.472037 
L 401.088947 109.296359 
L 412.536053 116.998948 
L 423.983158 124.168836 
L 435.430263 130.590848 
L 446.877368 137.000093 
L 458.324474 142.162366 
L 469.771579 146.519429 
L 481.218684 150.656395 
L 492.665789 153.803596 
L 504.112895 156.680057 
L 515.56 160.055433 
L 515.56 146.309488 
L 515.56 146.309488 
L 504.112895 143.222458 
L 492.665789 140.134627 
L 481.218684 136.553136 
L 469.771579 132.396757 
L 458.324474 128.18058 
L 446.877368 123.991301 
L 435.430263 117.884627 
L 423.983158 111.207517 
L 412.536053 104.654467 
L 401.088947 97.1624 
L 389.641842 88.699137 
L 378.194737 80.017056 
L 366.747632 70.672663 
L 355.300526 61.723469 
L 343.853421 52.427009 
L 332.406316 45.020498 
L 320.959211 39.464616 
L 309.512105 34.93657 
L 298.065 33.569091 
z
" clip-path="url(#pa8a245210f)" style="fill: #1f77b4; fill-opacity: 0.4"/>
   </g>
   <g id="PolyCollection_10">
    <path d="M 298.065 33.569217 
L 298.065 33.569267 
L 309.512105 36.068259 
L 320.959211 42.038852 
L 332.406316 51.127341 
L 343.853421 60.560961 
L 355.300526 70.536561 
L 366.747632 80.795111 
L 378.194737 91.076456 
L 389.641842 100.659012 
L 401.088947 109.63169 
L 412.536053 117.38332 
L 423.983158 124.613387 
L 435.430263 131.083309 
L 446.877368 137.489025 
L 458.324474 142.760871 
L 469.771579 147.024724 
L 481.218684 151.203868 
L 492.665789 154.396581 
L 504.112895 157.195329 
L 515.56 160.621848 
L 515.56 146.394738 
L 515.56 146.394738 
L 504.112895 143.226634 
L 492.665789 140.081191 
L 481.218684 136.511269 
L 469.771579 132.454488 
L 458.324474 128.263388 
L 446.877368 124.08651 
L 435.430263 117.972882 
L 423.983158 111.316855 
L 412.536053 104.75491 
L 401.088947 97.264145 
L 389.641842 88.856651 
L 378.194737 80.166357 
L 366.747632 70.796175 
L 355.300526 61.800067 
L 343.853421 52.475204 
L 332.406316 45.039081 
L 320.959211 39.478225 
L 309.512105 34.936011 
L 298.065 33.569217 
z
" clip-path="url(#pa8a245210f)" style="fill: #ff7f0e; fill-opacity: 0.4"/>
   </g>
   <g id="PolyCollection_11">
    <path d="M 298.065 33.569091 
L 298.065 33.569091 
L 309.512105 36.055028 
L 320.959211 42.005768 
L 332.406316 51.086704 
L 343.853421 60.539267 
L 355.300526 70.550087 
L 366.747632 80.82224 
L 378.194737 91.083318 
L 389.641842 100.716445 
L 401.088947 109.65131 
L 412.536053 117.428171 
L 423.983158 124.610983 
L 435.430263 130.929714 
L 446.877368 137.304375 
L 458.324474 142.574421 
L 469.771579 146.839071 
L 481.218684 151.03712 
L 492.665789 154.2291 
L 504.112895 157.108102 
L 515.56 160.455951 
L 515.56 146.687563 
L 515.56 146.687563 
L 504.112895 143.547954 
L 492.665789 140.549172 
L 481.218684 136.983236 
L 469.771579 132.846886 
L 458.324474 128.790124 
L 446.877368 124.381325 
L 435.430263 118.314975 
L 423.983158 111.617552 
L 412.536053 104.906506 
L 401.088947 97.352088 
L 389.641842 88.934879 
L 378.194737 80.193921 
L 366.747632 70.811865 
L 355.300526 61.816189 
L 343.853421 52.485247 
L 332.406316 45.024102 
L 320.959211 39.469684 
L 309.512105 34.933487 
L 298.065 33.569091 
z
" clip-path="url(#pa8a245210f)" style="fill: #2ca02c; fill-opacity: 0.4"/>
   </g>
   <g id="PolyCollection_12">
    <path d="M 298.065 33.569779 
L 298.065 33.570077 
L 309.512105 36.061054 
L 320.959211 42.031092 
L 332.406316 51.123646 
L 343.853421 60.602687 
L 355.300526 70.628345 
L 366.747632 80.891164 
L 378.194737 91.183659 
L 389.641842 100.801378 
L 401.088947 109.812613 
L 412.536053 117.57923 
L 423.983158 124.786818 
L 435.430263 131.156569 
L 446.877368 137.497171 
L 458.324474 142.808092 
L 469.771579 147.122534 
L 481.218684 151.329709 
L 492.665789 154.632307 
L 504.112895 157.614859 
L 515.56 161.177996 
L 515.56 147.042043 
L 515.56 147.042043 
L 504.112895 143.787039 
L 492.665789 140.922462 
L 481.218684 137.268045 
L 469.771579 133.173583 
L 458.324474 129.15091 
L 446.877368 124.716976 
L 435.430263 118.493697 
L 423.983158 111.751373 
L 412.536053 105.061618 
L 401.088947 97.475115 
L 389.641842 89.052398 
L 378.194737 80.331037 
L 366.747632 70.940905 
L 355.300526 61.927841 
L 343.853421 52.548234 
L 332.406316 45.043195 
L 320.959211 39.480903 
L 309.512105 34.935593 
L 298.065 33.569779 
z
" clip-path="url(#pa8a245210f)" style="fill: #d62728; fill-opacity: 0.4"/>
   </g>
   <g id="PolyCollection_13">
    <path d="M 298.065 33.569091 
L 298.065 33.569091 
L 309.512105 36.065442 
L 320.959211 42.006914 
L 332.406316 51.127422 
L 343.853421 60.521123 
L 355.300526 70.646875 
L 366.747632 80.780024 
L 378.194737 91.065216 
L 389.641842 100.39653 
L 401.088947 109.489555 
L 412.536053 117.256604 
L 423.983158 124.917725 
L 435.430263 130.647855 
L 446.877368 138.348423 
L 458.324474 142.490154 
L 469.771579 148.26956 
L 481.218684 151.773021 
L 492.665789 153.611319 
L 504.112895 157.287862 
L 515.56 161.496428 
L 515.56 147.01701 
L 515.56 147.01701 
L 504.112895 143.301797 
L 492.665789 140.467789 
L 481.218684 136.837961 
L 469.771579 133.272063 
L 458.324474 128.306543 
L 446.877368 124.703674 
L 435.430263 117.855147 
L 423.983158 110.865707 
L 412.536053 104.905722 
L 401.088947 97.20744 
L 389.641842 88.667008 
L 378.194737 80.504437 
L 366.747632 71.045094 
L 355.300526 61.776212 
L 343.853421 52.434842 
L 332.406316 44.996431 
L 320.959211 39.475663 
L 309.512105 34.942083 
L 298.065 33.569091 
z
" clip-path="url(#pa8a245210f)" style="fill: #9467bd; fill-opacity: 0.4"/>
   </g>
   <g id="PolyCollection_14">
    <path d="M 298.065 33.569597 
L 298.065 33.569801 
L 309.512105 36.070676 
L 320.959211 42.022959 
L 332.406316 51.140989 
L 343.853421 60.55361 
L 355.300526 70.689867 
L 366.747632 80.850033 
L 378.194737 91.203492 
L 389.641842 100.606358 
L 401.088947 109.816478 
L 412.536053 117.638975 
L 423.983158 125.329917 
L 435.430263 131.13026 
L 446.877368 138.790754 
L 458.324474 143.068886 
L 469.771579 148.733056 
L 481.218684 152.286172 
L 492.665789 154.149448 
L 504.112895 157.791367 
L 515.56 162.038001 
L 515.56 147.01541 
L 515.56 147.01541 
L 504.112895 143.299786 
L 492.665789 140.488273 
L 481.218684 136.825526 
L 469.771579 133.348317 
L 458.324474 128.383371 
L 446.877368 124.830545 
L 435.430263 117.927691 
L 423.983158 111.001419 
L 412.536053 105.001653 
L 401.088947 97.324002 
L 389.641842 88.807773 
L 378.194737 80.667568 
L 366.747632 71.170245 
L 355.300526 61.843387 
L 343.853421 52.48472 
L 332.406316 45.01571 
L 320.959211 39.487659 
L 309.512105 34.942301 
L 298.065 33.569597 
z
" clip-path="url(#pa8a245210f)" style="fill: #8c564b; fill-opacity: 0.4"/>
   </g>
   <g id="PolyCollection_15">
    <path d="M 298.065 44.058746 
L 298.065 46.94137 
L 309.512105 49.107202 
L 320.959211 54.39556 
L 332.406316 63.113818 
L 343.853421 71.66397 
L 355.300526 80.676095 
L 366.747632 89.938736 
L 378.194737 99.132853 
L 389.641842 107.505248 
L 401.088947 115.552778 
L 412.536053 122.780926 
L 423.983158 129.463157 
L 435.430263 135.219568 
L 446.877368 141.396516 
L 458.324474 146.117629 
L 469.771579 150.266696 
L 481.218684 154.447927 
L 492.665789 157.202853 
L 504.112895 159.940764 
L 515.56 162.901242 
L 515.56 148.486341 
L 515.56 148.486341 
L 504.112895 145.623411 
L 492.665789 142.808605 
L 481.218684 139.563592 
L 469.771579 135.645039 
L 458.324474 131.372956 
L 446.877368 127.452588 
L 435.430263 121.645407 
L 423.983158 115.334962 
L 412.536053 109.201605 
L 401.088947 102.454396 
L 389.641842 94.227661 
L 378.194737 86.38877 
L 366.747632 78.15839 
L 355.300526 69.99849 
L 343.853421 61.820605 
L 332.406316 55.058398 
L 320.959211 50.023874 
L 309.512105 45.594833 
L 298.065 44.058746 
z
" clip-path="url(#pa8a245210f)" style="fill: #e377c2; fill-opacity: 0.4"/>
   </g>
   <g id="PolyCollection_16">
    <path d="M 298.065 33.569313 
L 298.065 33.569461 
L 309.512105 36.06524 
L 320.959211 42.024319 
L 332.406316 51.10165 
L 343.853421 60.513624 
L 355.300526 70.499075 
L 366.747632 80.768637 
L 378.194737 91.051375 
L 389.641842 100.681492 
L 401.088947 109.629719 
L 412.536053 117.382357 
L 423.983158 124.666461 
L 435.430263 131.164942 
L 446.877368 137.534918 
L 458.324474 143.016941 
L 469.771579 147.286161 
L 481.218684 151.515659 
L 492.665789 154.831371 
L 504.112895 157.500551 
L 515.56 160.951849 
L 515.56 146.799098 
L 515.56 146.799098 
L 504.112895 143.570843 
L 492.665789 140.484379 
L 481.218684 136.895472 
L 469.771579 132.888638 
L 458.324474 128.665479 
L 446.877368 124.448082 
L 435.430263 118.239127 
L 423.983158 111.581875 
L 412.536053 104.918875 
L 401.088947 97.449481 
L 389.641842 89.025978 
L 378.194737 80.352899 
L 366.747632 70.922999 
L 355.300526 61.907468 
L 343.853421 52.547777 
L 332.406316 45.073851 
L 320.959211 39.492694 
L 309.512105 34.929366 
L 298.065 33.569313 
z
" clip-path="url(#pa8a245210f)" style="fill: #7f7f7f; fill-opacity: 0.4"/>
   </g>
   <g id="matplotlib.axis_3">
    <g id="xtick_6">
     <g id="line2d_19">
      <g>
       <use xlink:href="#mf79e384adf" x="298.065" y="174.04" style="stroke: #000000; stroke-width: 0.8"/>
      </g>
     </g>
     <g id="text_14">
      <!-- 0.0 -->
      <g transform="translate(290.113437 188.638438)scale(0.1 -0.1)">
       <use xlink:href="#DejaVuSans-30"/>
       <use xlink:href="#DejaVuSans-2e" x="63.623047"/>
       <use xlink:href="#DejaVuSans-30" x="95.410156"/>
      </g>
     </g>
    </g>
    <g id="xtick_7">
     <g id="line2d_20">
      <g>
       <use xlink:href="#mf79e384adf" x="352.43875" y="174.04" style="stroke: #000000; stroke-width: 0.8"/>
      </g>
     </g>
     <g id="text_15">
      <!-- 0.5 -->
      <g transform="translate(344.487187 188.638438)scale(0.1 -0.1)">
       <use xlink:href="#DejaVuSans-30"/>
       <use xlink:href="#DejaVuSans-2e" x="63.623047"/>
       <use xlink:href="#DejaVuSans-35" x="95.410156"/>
      </g>
     </g>
    </g>
    <g id="xtick_8">
     <g id="line2d_21">
      <g>
       <use xlink:href="#mf79e384adf" x="406.8125" y="174.04" style="stroke: #000000; stroke-width: 0.8"/>
      </g>
     </g>
     <g id="text_16">
      <!-- 1.0 -->
      <g transform="translate(398.860937 188.638438)scale(0.1 -0.1)">
       <use xlink:href="#DejaVuSans-31"/>
       <use xlink:href="#DejaVuSans-2e" x="63.623047"/>
       <use xlink:href="#DejaVuSans-30" x="95.410156"/>
      </g>
     </g>
    </g>
    <g id="xtick_9">
     <g id="line2d_22">
      <g>
       <use xlink:href="#mf79e384adf" x="461.18625" y="174.04" style="stroke: #000000; stroke-width: 0.8"/>
      </g>
     </g>
     <g id="text_17">
      <!-- 1.5 -->
      <g transform="translate(453.234687 188.638438)scale(0.1 -0.1)">
       <use xlink:href="#DejaVuSans-31"/>
       <use xlink:href="#DejaVuSans-2e" x="63.623047"/>
       <use xlink:href="#DejaVuSans-35" x="95.410156"/>
      </g>
     </g>
    </g>
    <g id="xtick_10">
     <g id="line2d_23">
      <g>
       <use xlink:href="#mf79e384adf" x="515.56" y="174.04" style="stroke: #000000; stroke-width: 0.8"/>
      </g>
     </g>
     <g id="text_18">
      <!-- 2.0 -->
      <g transform="translate(507.608437 188.638438)scale(0.1 -0.1)">
       <use xlink:href="#DejaVuSans-32"/>
       <use xlink:href="#DejaVuSans-2e" x="63.623047"/>
       <use xlink:href="#DejaVuSans-30" x="95.410156"/>
      </g>
     </g>
    </g>
    <g id="text_19">
     <!-- Influence of surprisal (multiplication) -->
     <g transform="translate(314.665625 202.316563)scale(0.1 -0.1)">
      <use xlink:href="#DejaVuSans-49"/>
      <use xlink:href="#DejaVuSans-6e" x="29.492188"/>
      <use xlink:href="#DejaVuSans-66" x="92.871094"/>
      <use xlink:href="#DejaVuSans-6c" x="128.076172"/>
      <use xlink:href="#DejaVuSans-75" x="155.859375"/>
      <use xlink:href="#DejaVuSans-65" x="219.238281"/>
      <use xlink:href="#DejaVuSans-6e" x="280.761719"/>
      <use xlink:href="#DejaVuSans-63" x="344.140625"/>
      <use xlink:href="#DejaVuSans-65" x="399.121094"/>
      <use xlink:href="#DejaVuSans-20" x="460.644531"/>
      <use xlink:href="#DejaVuSans-6f" x="492.431641"/>
      <use xlink:href="#DejaVuSans-66" x="553.613281"/>
      <use xlink:href="#DejaVuSans-20" x="588.818359"/>
      <use xlink:href="#DejaVuSans-73" x="620.605469"/>
      <use xlink:href="#DejaVuSans-75" x="672.705078"/>
      <use xlink:href="#DejaVuSans-72" x="736.083984"/>
      <use xlink:href="#DejaVuSans-70" x="777.197266"/>
      <use xlink:href="#DejaVuSans-72" x="840.673828"/>
      <use xlink:href="#DejaVuSans-69" x="881.787109"/>
      <use xlink:href="#DejaVuSans-73" x="909.570312"/>
      <use xlink:href="#DejaVuSans-61" x="961.669922"/>
      <use xlink:href="#DejaVuSans-6c" x="1022.949219"/>
      <use xlink:href="#DejaVuSans-20" x="1050.732422"/>
      <use xlink:href="#DejaVuSans-28" x="1082.519531"/>
      <use xlink:href="#DejaVuSans-6d" x="1121.533203"/>
      <use xlink:href="#DejaVuSans-75" x="1218.945312"/>
      <use xlink:href="#DejaVuSans-6c" x="1282.324219"/>
      <use xlink:href="#DejaVuSans-74" x="1310.107422"/>
      <use xlink:href="#DejaVuSans-69" x="1349.316406"/>
      <use xlink:href="#DejaVuSans-70" x="1377.099609"/>
      <use xlink:href="#DejaVuSans-6c" x="1440.576172"/>
      <use xlink:href="#DejaVuSans-69" x="1468.359375"/>
      <use xlink:href="#DejaVuSans-63" x="1496.142578"/>
      <use xlink:href="#DejaVuSans-61" x="1551.123047"/>
      <use xlink:href="#DejaVuSans-74" x="1612.402344"/>
      <use xlink:href="#DejaVuSans-69" x="1651.611328"/>
      <use xlink:href="#DejaVuSans-6f" x="1679.394531"/>
      <use xlink:href="#DejaVuSans-6e" x="1740.576172"/>
      <use xlink:href="#DejaVuSans-29" x="1803.955078"/>
     </g>
    </g>
   </g>
   <g id="line2d_24">
    <path d="M 298.065 33.569091 
L 309.512105 35.500346 
L 320.959211 40.744216 
L 332.406316 48.067299 
L 343.853421 56.478125 
L 355.300526 66.104999 
L 366.747632 75.696841 
L 378.194737 85.47564 
L 389.641842 94.585587 
L 401.088947 103.22938 
L 412.536053 110.826708 
L 423.983158 117.688176 
L 435.430263 124.237738 
L 446.877368 130.495697 
L 458.324474 135.171473 
L 469.771579 139.458093 
L 481.218684 143.604766 
L 492.665789 146.969112 
L 504.112895 149.951258 
L 515.56 153.182461 
" clip-path="url(#pa8a245210f)" style="fill: none; stroke: #1f77b4; stroke-width: 1.5; stroke-linecap: square"/>
   </g>
   <g id="line2d_25">
    <path d="M 298.065 33.569242 
L 309.512105 35.502135 
L 320.959211 40.758538 
L 332.406316 48.083211 
L 343.853421 56.518082 
L 355.300526 66.168314 
L 366.747632 75.795643 
L 378.194737 85.621406 
L 389.641842 94.757831 
L 401.088947 103.447917 
L 412.536053 111.069115 
L 423.983158 117.965121 
L 435.430263 124.528095 
L 446.877368 130.787767 
L 458.324474 135.512129 
L 469.771579 139.739606 
L 481.218684 143.857568 
L 492.665789 147.238886 
L 504.112895 150.210982 
L 515.56 153.508293 
" clip-path="url(#pa8a245210f)" style="fill: none; stroke: #ff7f0e; stroke-width: 1.5; stroke-linecap: square"/>
   </g>
   <g id="line2d_26">
    <path d="M 298.065 33.569091 
L 309.512105 35.494258 
L 320.959211 40.737726 
L 332.406316 48.055403 
L 343.853421 56.512257 
L 355.300526 66.183138 
L 366.747632 75.817052 
L 378.194737 85.63862 
L 389.641842 94.825662 
L 401.088947 103.501699 
L 412.536053 111.167339 
L 423.983158 118.114267 
L 435.430263 124.622345 
L 446.877368 130.84285 
L 458.324474 135.682272 
L 469.771579 139.842979 
L 481.218684 144.010178 
L 492.665789 147.389136 
L 504.112895 150.328028 
L 515.56 153.571757 
" clip-path="url(#pa8a245210f)" style="fill: none; stroke: #2ca02c; stroke-width: 1.5; stroke-linecap: square"/>
   </g>
   <g id="line2d_27">
    <path d="M 298.065 33.569928 
L 309.512105 35.498324 
L 320.959211 40.755997 
L 332.406316 48.083421 
L 343.853421 56.57546 
L 355.300526 66.278093 
L 366.747632 75.916034 
L 378.194737 85.757348 
L 389.641842 94.926888 
L 401.088947 103.643864 
L 412.536053 111.320424 
L 423.983158 118.269095 
L 435.430263 124.825133 
L 446.877368 131.107073 
L 458.324474 135.979501 
L 469.771579 140.148058 
L 481.218684 144.298877 
L 492.665789 147.777384 
L 504.112895 150.700949 
L 515.56 154.110019 
" clip-path="url(#pa8a245210f)" style="fill: none; stroke: #d62728; stroke-width: 1.5; stroke-linecap: square"/>
   </g>
   <g id="line2d_28">
    <path d="M 298.065 33.569091 
L 309.512105 35.503762 
L 320.959211 40.741289 
L 332.406316 48.061926 
L 343.853421 56.477982 
L 355.300526 66.211544 
L 366.747632 75.912559 
L 378.194737 85.784826 
L 389.641842 94.531769 
L 401.088947 103.348497 
L 412.536053 111.081163 
L 423.983158 117.891716 
L 435.430263 124.251501 
L 446.877368 131.526048 
L 458.324474 135.398349 
L 469.771579 140.770811 
L 481.218684 144.305491 
L 492.665789 147.039554 
L 504.112895 150.29483 
L 515.56 154.256719 
" clip-path="url(#pa8a245210f)" style="fill: none; stroke: #9467bd; stroke-width: 1.5; stroke-linecap: square"/>
   </g>
   <g id="line2d_29">
    <path d="M 298.065 33.569699 
L 309.512105 35.506488 
L 320.959211 40.755309 
L 332.406316 48.07835 
L 343.853421 56.519165 
L 355.300526 66.266627 
L 366.747632 76.010139 
L 378.194737 85.93553 
L 389.641842 94.707066 
L 401.088947 103.57024 
L 412.536053 111.320314 
L 423.983158 118.165668 
L 435.430263 124.528976 
L 446.877368 131.810649 
L 458.324474 135.726128 
L 469.771579 141.040686 
L 481.218684 144.555849 
L 492.665789 147.318861 
L 504.112895 150.545577 
L 515.56 154.526706 
" clip-path="url(#pa8a245210f)" style="fill: none; stroke: #8c564b; stroke-width: 1.5; stroke-linecap: square"/>
   </g>
   <g id="line2d_30">
    <path d="M 298.065 45.500058 
L 309.512105 47.351017 
L 320.959211 52.209717 
L 332.406316 59.086108 
L 343.853421 66.742287 
L 355.300526 75.337293 
L 366.747632 84.048563 
L 378.194737 92.760812 
L 389.641842 100.866454 
L 401.088947 109.003587 
L 412.536053 115.991265 
L 423.983158 122.39906 
L 435.430263 128.432488 
L 446.877368 134.424552 
L 458.324474 138.745293 
L 469.771579 142.955867 
L 481.218684 147.00576 
L 492.665789 150.005729 
L 504.112895 152.782088 
L 515.56 155.693792 
" clip-path="url(#pa8a245210f)" style="fill: none; stroke: #e377c2; stroke-width: 1.5; stroke-linecap: square"/>
   </g>
   <g id="line2d_31">
    <path d="M 298.065 33.569387 
L 309.512105 35.497303 
L 320.959211 40.758506 
L 332.406316 48.087751 
L 343.853421 56.5307 
L 355.300526 66.203272 
L 366.747632 75.845818 
L 378.194737 85.702137 
L 389.641842 94.853735 
L 401.088947 103.5396 
L 412.536053 111.150616 
L 423.983158 118.124168 
L 435.430263 124.702034 
L 446.877368 130.9915 
L 458.324474 135.84121 
L 469.771579 140.087399 
L 481.218684 144.205565 
L 492.665789 147.657875 
L 504.112895 150.535697 
L 515.56 153.875474 
" clip-path="url(#pa8a245210f)" style="fill: none; stroke: #7f7f7f; stroke-width: 1.5; stroke-linecap: square"/>
   </g>
   <g id="patch_6">
    <path d="M 298.065 174.04 
L 298.065 26.88 
" style="fill: none; stroke: #000000; stroke-width: 0.8; stroke-linejoin: miter; stroke-linecap: square"/>
   </g>
   <g id="patch_7">
    <path d="M 298.065 174.04 
L 515.56 174.04 
" style="fill: none; stroke: #000000; stroke-width: 0.8; stroke-linejoin: miter; stroke-linecap: square"/>
   </g>
   <g id="text_20">
    <!-- Node * third variable -->
    <g transform="translate(344.2325 20.88)scale(0.12 -0.12)">
     <defs>
      <path id="DejaVuSans-68" d="M 3513 2113 
L 3513 0 
L 2938 0 
L 2938 2094 
Q 2938 2591 2744 2837 
Q 2550 3084 2163 3084 
Q 1697 3084 1428 2787 
Q 1159 2491 1159 1978 
L 1159 0 
L 581 0 
L 581 4863 
L 1159 4863 
L 1159 2956 
Q 1366 3272 1645 3428 
Q 1925 3584 2291 3584 
Q 2894 3584 3203 3211 
Q 3513 2838 3513 2113 
z
" transform="scale(0.015625)"/>
      <path id="DejaVuSans-62" d="M 3116 1747 
Q 3116 2381 2855 2742 
Q 2594 3103 2138 3103 
Q 1681 3103 1420 2742 
Q 1159 2381 1159 1747 
Q 1159 1113 1420 752 
Q 1681 391 2138 391 
Q 2594 391 2855 752 
Q 3116 1113 3116 1747 
z
M 1159 2969 
Q 1341 3281 1617 3432 
Q 1894 3584 2278 3584 
Q 2916 3584 3314 3078 
Q 3713 2572 3713 1747 
Q 3713 922 3314 415 
Q 2916 -91 2278 -91 
Q 1894 -91 1617 61 
Q 1341 213 1159 525 
L 1159 0 
L 581 0 
L 581 4863 
L 1159 4863 
L 1159 2969 
z
" transform="scale(0.015625)"/>
     </defs>
     <use xlink:href="#DejaVuSans-4e"/>
     <use xlink:href="#DejaVuSans-6f" x="74.804688"/>
     <use xlink:href="#DejaVuSans-64" x="135.986328"/>
     <use xlink:href="#DejaVuSans-65" x="199.462891"/>
     <use xlink:href="#DejaVuSans-20" x="260.986328"/>
     <use xlink:href="#DejaVuSans-2a" x="292.773438"/>
     <use xlink:href="#DejaVuSans-20" x="342.773438"/>
     <use xlink:href="#DejaVuSans-74" x="374.560547"/>
     <use xlink:href="#DejaVuSans-68" x="413.769531"/>
     <use xlink:href="#DejaVuSans-69" x="477.148438"/>
     <use xlink:href="#DejaVuSans-72" x="504.931641"/>
     <use xlink:href="#DejaVuSans-64" x="544.294922"/>
     <use xlink:href="#DejaVuSans-20" x="607.771484"/>
     <use xlink:href="#DejaVuSans-76" x="639.558594"/>
     <use xlink:href="#DejaVuSans-61" x="698.738281"/>
     <use xlink:href="#DejaVuSans-72" x="760.017578"/>
     <use xlink:href="#DejaVuSans-69" x="801.130859"/>
     <use xlink:href="#DejaVuSans-61" x="828.914062"/>
     <use xlink:href="#DejaVuSans-62" x="890.193359"/>
     <use xlink:href="#DejaVuSans-6c" x="953.669922"/>
     <use xlink:href="#DejaVuSans-65" x="981.453125"/>
    </g>
   </g>
   <g id="legend_1">
    <g id="line2d_32">
     <path d="M 524.56 39.978437 
L 534.56 39.978437 
L 544.56 39.978437 
" style="fill: none; stroke: #1f77b4; stroke-width: 1.5; stroke-linecap: square"/>
    </g>
    <g id="text_21">
     <!-- Node -->
     <g transform="translate(552.56 43.478437)scale(0.1 -0.1)">
      <use xlink:href="#DejaVuSans-4e"/>
      <use xlink:href="#DejaVuSans-6f" x="74.804688"/>
      <use xlink:href="#DejaVuSans-64" x="135.986328"/>
      <use xlink:href="#DejaVuSans-65" x="199.462891"/>
     </g>
    </g>
    <g id="line2d_33">
     <path d="M 524.56 54.656563 
L 534.56 54.656563 
L 544.56 54.656563 
" style="fill: none; stroke: #ff7f0e; stroke-width: 1.5; stroke-linecap: square"/>
    </g>
    <g id="text_22">
     <!-- Node + surprisal -->
     <g transform="translate(552.56 58.156563)scale(0.1 -0.1)">
      <defs>
       <path id="DejaVuSans-2b" d="M 2944 4013 
L 2944 2272 
L 4684 2272 
L 4684 1741 
L 2944 1741 
L 2944 0 
L 2419 0 
L 2419 1741 
L 678 1741 
L 678 2272 
L 2419 2272 
L 2419 4013 
L 2944 4013 
z
" transform="scale(0.015625)"/>
      </defs>
      <use xlink:href="#DejaVuSans-4e"/>
      <use xlink:href="#DejaVuSans-6f" x="74.804688"/>
      <use xlink:href="#DejaVuSans-64" x="135.986328"/>
      <use xlink:href="#DejaVuSans-65" x="199.462891"/>
      <use xlink:href="#DejaVuSans-20" x="260.986328"/>
      <use xlink:href="#DejaVuSans-2b" x="292.773438"/>
      <use xlink:href="#DejaVuSans-20" x="376.5625"/>
      <use xlink:href="#DejaVuSans-73" x="408.349609"/>
      <use xlink:href="#DejaVuSans-75" x="460.449219"/>
      <use xlink:href="#DejaVuSans-72" x="523.828125"/>
      <use xlink:href="#DejaVuSans-70" x="564.941406"/>
      <use xlink:href="#DejaVuSans-72" x="628.417969"/>
      <use xlink:href="#DejaVuSans-69" x="669.53125"/>
      <use xlink:href="#DejaVuSans-73" x="697.314453"/>
      <use xlink:href="#DejaVuSans-61" x="749.414062"/>
      <use xlink:href="#DejaVuSans-6c" x="810.693359"/>
     </g>
    </g>
    <g id="line2d_34">
     <path d="M 524.56 69.334687 
L 534.56 69.334687 
L 544.56 69.334687 
" style="fill: none; stroke: #2ca02c; stroke-width: 1.5; stroke-linecap: square"/>
    </g>
    <g id="text_23">
     <!-- Node split -->
     <g transform="translate(552.56 72.834687)scale(0.1 -0.1)">
      <use xlink:href="#DejaVuSans-4e"/>
      <use xlink:href="#DejaVuSans-6f" x="74.804688"/>
      <use xlink:href="#DejaVuSans-64" x="135.986328"/>
      <use xlink:href="#DejaVuSans-65" x="199.462891"/>
      <use xlink:href="#DejaVuSans-20" x="260.986328"/>
      <use xlink:href="#DejaVuSans-73" x="292.773438"/>
      <use xlink:href="#DejaVuSans-70" x="344.873047"/>
      <use xlink:href="#DejaVuSans-6c" x="408.349609"/>
      <use xlink:href="#DejaVuSans-69" x="436.132812"/>
      <use xlink:href="#DejaVuSans-74" x="463.916016"/>
     </g>
    </g>
    <g id="line2d_35">
     <path d="M 524.56 84.012812 
L 534.56 84.012812 
L 544.56 84.012812 
" style="fill: none; stroke: #d62728; stroke-width: 1.5; stroke-linecap: square"/>
    </g>
    <g id="text_24">
     <!-- Node split + surprisal -->
     <g transform="translate(552.56 87.512812)scale(0.1 -0.1)">
      <use xlink:href="#DejaVuSans-4e"/>
      <use xlink:href="#DejaVuSans-6f" x="74.804688"/>
      <use xlink:href="#DejaVuSans-64" x="135.986328"/>
      <use xlink:href="#DejaVuSans-65" x="199.462891"/>
      <use xlink:href="#DejaVuSans-20" x="260.986328"/>
      <use xlink:href="#DejaVuSans-73" x="292.773438"/>
      <use xlink:href="#DejaVuSans-70" x="344.873047"/>
      <use xlink:href="#DejaVuSans-6c" x="408.349609"/>
      <use xlink:href="#DejaVuSans-69" x="436.132812"/>
      <use xlink:href="#DejaVuSans-74" x="463.916016"/>
      <use xlink:href="#DejaVuSans-20" x="503.125"/>
      <use xlink:href="#DejaVuSans-2b" x="534.912109"/>
      <use xlink:href="#DejaVuSans-20" x="618.701172"/>
      <use xlink:href="#DejaVuSans-73" x="650.488281"/>
      <use xlink:href="#DejaVuSans-75" x="702.587891"/>
      <use xlink:href="#DejaVuSans-72" x="765.966797"/>
      <use xlink:href="#DejaVuSans-70" x="807.080078"/>
      <use xlink:href="#DejaVuSans-72" x="870.556641"/>
      <use xlink:href="#DejaVuSans-69" x="911.669922"/>
      <use xlink:href="#DejaVuSans-73" x="939.453125"/>
      <use xlink:href="#DejaVuSans-61" x="991.552734"/>
      <use xlink:href="#DejaVuSans-6c" x="1052.832031"/>
     </g>
    </g>
    <g id="line2d_36">
     <path d="M 524.56 98.690937 
L 534.56 98.690937 
L 544.56 98.690937 
" style="fill: none; stroke: #9467bd; stroke-width: 1.5; stroke-linecap: square"/>
    </g>
    <g id="text_25">
     <!-- Node random split -->
     <g transform="translate(552.56 102.190937)scale(0.1 -0.1)">
      <use xlink:href="#DejaVuSans-4e"/>
      <use xlink:href="#DejaVuSans-6f" x="74.804688"/>
      <use xlink:href="#DejaVuSans-64" x="135.986328"/>
      <use xlink:href="#DejaVuSans-65" x="199.462891"/>
      <use xlink:href="#DejaVuSans-20" x="260.986328"/>
      <use xlink:href="#DejaVuSans-72" x="292.773438"/>
      <use xlink:href="#DejaVuSans-61" x="333.886719"/>
      <use xlink:href="#DejaVuSans-6e" x="395.166016"/>
      <use xlink:href="#DejaVuSans-64" x="458.544922"/>
      <use xlink:href="#DejaVuSans-6f" x="522.021484"/>
      <use xlink:href="#DejaVuSans-6d" x="583.203125"/>
      <use xlink:href="#DejaVuSans-20" x="680.615234"/>
      <use xlink:href="#DejaVuSans-73" x="712.402344"/>
      <use xlink:href="#DejaVuSans-70" x="764.501953"/>
      <use xlink:href="#DejaVuSans-6c" x="827.978516"/>
      <use xlink:href="#DejaVuSans-69" x="855.761719"/>
      <use xlink:href="#DejaVuSans-74" x="883.544922"/>
     </g>
    </g>
    <g id="line2d_37">
     <path d="M 524.56 113.369062 
L 534.56 113.369062 
L 544.56 113.369062 
" style="fill: none; stroke: #8c564b; stroke-width: 1.5; stroke-linecap: square"/>
    </g>
    <g id="text_26">
     <!-- Node random split + surprisal -->
     <g transform="translate(552.56 116.869062)scale(0.1 -0.1)">
      <use xlink:href="#DejaVuSans-4e"/>
      <use xlink:href="#DejaVuSans-6f" x="74.804688"/>
      <use xlink:href="#DejaVuSans-64" x="135.986328"/>
      <use xlink:href="#DejaVuSans-65" x="199.462891"/>
      <use xlink:href="#DejaVuSans-20" x="260.986328"/>
      <use xlink:href="#DejaVuSans-72" x="292.773438"/>
      <use xlink:href="#DejaVuSans-61" x="333.886719"/>
      <use xlink:href="#DejaVuSans-6e" x="395.166016"/>
      <use xlink:href="#DejaVuSans-64" x="458.544922"/>
      <use xlink:href="#DejaVuSans-6f" x="522.021484"/>
      <use xlink:href="#DejaVuSans-6d" x="583.203125"/>
      <use xlink:href="#DejaVuSans-20" x="680.615234"/>
      <use xlink:href="#DejaVuSans-73" x="712.402344"/>
      <use xlink:href="#DejaVuSans-70" x="764.501953"/>
      <use xlink:href="#DejaVuSans-6c" x="827.978516"/>
      <use xlink:href="#DejaVuSans-69" x="855.761719"/>
      <use xlink:href="#DejaVuSans-74" x="883.544922"/>
      <use xlink:href="#DejaVuSans-20" x="922.753906"/>
      <use xlink:href="#DejaVuSans-2b" x="954.541016"/>
      <use xlink:href="#DejaVuSans-20" x="1038.330078"/>
      <use xlink:href="#DejaVuSans-73" x="1070.117188"/>
      <use xlink:href="#DejaVuSans-75" x="1122.216797"/>
      <use xlink:href="#DejaVuSans-72" x="1185.595703"/>
      <use xlink:href="#DejaVuSans-70" x="1226.708984"/>
      <use xlink:href="#DejaVuSans-72" x="1290.185547"/>
      <use xlink:href="#DejaVuSans-69" x="1331.298828"/>
      <use xlink:href="#DejaVuSans-73" x="1359.082031"/>
      <use xlink:href="#DejaVuSans-61" x="1411.181641"/>
      <use xlink:href="#DejaVuSans-6c" x="1472.460938"/>
     </g>
    </g>
    <g id="line2d_38">
     <path d="M 524.56 128.047187 
L 534.56 128.047187 
L 544.56 128.047187 
" style="fill: none; stroke: #e377c2; stroke-width: 1.5; stroke-linecap: square"/>
    </g>
    <g id="text_27">
     <!-- Interaction -->
     <g transform="translate(552.56 131.547187)scale(0.1 -0.1)">
      <use xlink:href="#DejaVuSans-49"/>
      <use xlink:href="#DejaVuSans-6e" x="29.492188"/>
      <use xlink:href="#DejaVuSans-74" x="92.871094"/>
      <use xlink:href="#DejaVuSans-65" x="132.080078"/>
      <use xlink:href="#DejaVuSans-72" x="193.603516"/>
      <use xlink:href="#DejaVuSans-61" x="234.716797"/>
      <use xlink:href="#DejaVuSans-63" x="295.996094"/>
      <use xlink:href="#DejaVuSans-74" x="350.976562"/>
      <use xlink:href="#DejaVuSans-69" x="390.185547"/>
      <use xlink:href="#DejaVuSans-6f" x="417.96875"/>
      <use xlink:href="#DejaVuSans-6e" x="479.150391"/>
     </g>
    </g>
    <g id="line2d_39">
     <path d="M 524.56 142.725312 
L 534.56 142.725312 
L 544.56 142.725312 
" style="fill: none; stroke: #7f7f7f; stroke-width: 1.5; stroke-linecap: square"/>
    </g>
    <g id="text_28">
     <!-- Node + surprisal + interaction -->
     <g transform="translate(552.56 146.225312)scale(0.1 -0.1)">
      <use xlink:href="#DejaVuSans-4e"/>
      <use xlink:href="#DejaVuSans-6f" x="74.804688"/>
      <use xlink:href="#DejaVuSans-64" x="135.986328"/>
      <use xlink:href="#DejaVuSans-65" x="199.462891"/>
      <use xlink:href="#DejaVuSans-20" x="260.986328"/>
      <use xlink:href="#DejaVuSans-2b" x="292.773438"/>
      <use xlink:href="#DejaVuSans-20" x="376.5625"/>
      <use xlink:href="#DejaVuSans-73" x="408.349609"/>
      <use xlink:href="#DejaVuSans-75" x="460.449219"/>
      <use xlink:href="#DejaVuSans-72" x="523.828125"/>
      <use xlink:href="#DejaVuSans-70" x="564.941406"/>
      <use xlink:href="#DejaVuSans-72" x="628.417969"/>
      <use xlink:href="#DejaVuSans-69" x="669.53125"/>
      <use xlink:href="#DejaVuSans-73" x="697.314453"/>
      <use xlink:href="#DejaVuSans-61" x="749.414062"/>
      <use xlink:href="#DejaVuSans-6c" x="810.693359"/>
      <use xlink:href="#DejaVuSans-20" x="838.476562"/>
      <use xlink:href="#DejaVuSans-2b" x="870.263672"/>
      <use xlink:href="#DejaVuSans-20" x="954.052734"/>
      <use xlink:href="#DejaVuSans-69" x="985.839844"/>
      <use xlink:href="#DejaVuSans-6e" x="1013.623047"/>
      <use xlink:href="#DejaVuSans-74" x="1077.001953"/>
      <use xlink:href="#DejaVuSans-65" x="1116.210938"/>
      <use xlink:href="#DejaVuSans-72" x="1177.734375"/>
      <use xlink:href="#DejaVuSans-61" x="1218.847656"/>
      <use xlink:href="#DejaVuSans-63" x="1280.126953"/>
      <use xlink:href="#DejaVuSans-74" x="1335.107422"/>
      <use xlink:href="#DejaVuSans-69" x="1374.316406"/>
      <use xlink:href="#DejaVuSans-6f" x="1402.099609"/>
      <use xlink:href="#DejaVuSans-6e" x="1463.28125"/>
     </g>
    </g>
   </g>
  </g>
 </g>
 <defs>
  <clipPath id="paddc26de13">
   <rect x="47.72" y="26.88" width="217.495" height="147.16"/>
  </clipPath>
  <clipPath id="pa8a245210f">
   <rect x="298.065" y="26.88" width="217.495" height="147.16"/>
  </clipPath>
 </defs>
</svg>
