<?xml version="1.0" encoding="utf-8" standalone="no"?>
<!DOCTYPE svg PUBLIC "-//W3C//DTD SVG 1.1//EN"
  "http://www.w3.org/Graphics/SVG/1.1/DTD/svg11.dtd">
<svg xmlns:xlink="http://www.w3.org/1999/xlink" width="720pt" height="216pt" viewBox="0 0 720 216" xmlns="http://www.w3.org/2000/svg" version="1.1">
 <metadata>
  <rdf:RDF xmlns:dc="http://purl.org/dc/elements/1.1/" xmlns:cc="http://creativecommons.org/ns#" xmlns:rdf="http://www.w3.org/1999/02/22-rdf-syntax-ns#">
   <cc:Work>
    <dc:type rdf:resource="http://purl.org/dc/dcmitype/StillImage"/>
    <dc:date>2024-01-15T19:35:34.841928</dc:date>
    <dc:format>image/svg+xml</dc:format>
    <dc:creator>
     <cc:Agent>
      <dc:title>Matplotlib v3.5.1, https://matplotlib.org/</dc:title>
     </cc:Agent>
    </dc:creator>
   </cc:Work>
  </rdf:RDF>
 </metadata>
 <defs>
  <style type="text/css">*{stroke-linejoin: round; stroke-linecap: butt}</style>
 </defs>
 <g id="figure_1">
  <g id="patch_1">
   <path d="M 0 216 
L 720 216 
L 720 0 
L 0 0 
z
" style="fill: #ffffff"/>
  </g>
  <g id="axes_1">
   <g id="patch_2">
    <path d="M 47.72 174.04 
L 265.215 174.04 
L 265.215 26.88 
L 47.72 26.88 
z
" style="fill: #ffffff"/>
   </g>
   <g id="PolyCollection_1">
    <path d="M 47.72 33.569091 
L 47.72 33.569091 
L 59.167105 35.554363 
L 70.614211 41.354662 
L 82.061316 49.225579 
L 93.508421 58.918895 
L 104.955526 68.914959 
L 116.402632 79.43198 
L 127.849737 89.497929 
L 139.296842 99.666197 
L 150.743947 108.927651 
L 162.191053 117.898893 
L 173.638158 124.923369 
L 185.085263 132.487157 
L 196.532368 137.709691 
L 207.979474 142.853898 
L 219.426579 147.968162 
L 230.873684 151.566711 
L 242.320789 154.754109 
L 253.767895 157.812133 
L 265.215 160.34787 
L 265.215 151.289962 
L 265.215 151.289962 
L 253.767895 148.385194 
L 242.320789 145.013026 
L 230.873684 140.884183 
L 219.426579 136.764715 
L 207.979474 132.17819 
L 196.532368 126.685494 
L 185.085263 121.472176 
L 173.638158 114.461974 
L 162.191053 107.302598 
L 150.743947 99.271747 
L 139.296842 91.079849 
L 127.849737 82.059313 
L 116.402632 71.668224 
L 104.955526 61.989673 
L 93.508421 53.354422 
L 82.061316 45.483989 
L 70.614211 39.527841 
L 59.167105 35.028968 
L 47.72 33.569091 
z
" clip-path="url(#pc09bbeda60)" style="fill: #1f77b4; fill-opacity: 0.4"/>
   </g>
   <g id="PolyCollection_2">
    <path d="M 47.72 33.569212 
L 47.72 33.569269 
L 59.167105 34.938267 
L 70.614211 38.238119 
L 82.061316 42.948113 
L 93.508421 49.57511 
L 104.955526 56.973213 
L 116.402632 65.892923 
L 127.849737 74.855263 
L 139.296842 84.206237 
L 150.743947 93.193409 
L 162.191053 102.333192 
L 173.638158 109.944691 
L 185.085263 117.992484 
L 196.532368 124.056199 
L 207.979474 130.236387 
L 219.426579 136.288494 
L 230.873684 140.588217 
L 242.320789 144.881787 
L 253.767895 148.658801 
L 265.215 152.033945 
L 265.215 143.638669 
L 265.215 143.638669 
L 253.767895 139.886974 
L 242.320789 136.003121 
L 230.873684 131.151063 
L 219.426579 126.252489 
L 207.979474 120.738277 
L 196.532368 114.505859 
L 185.085263 108.586504 
L 173.638158 100.793865 
L 162.191053 92.608917 
L 150.743947 84.765061 
L 139.296842 76.663082 
L 127.849737 68.138728 
L 116.402632 59.35051 
L 104.955526 52.051702 
L 93.508421 45.892201 
L 82.061316 40.782202 
L 70.614211 37.127842 
L 59.167105 34.550976 
L 47.72 33.569212 
z
" clip-path="url(#pc09bbeda60)" style="fill: #ff7f0e; fill-opacity: 0.4"/>
   </g>
   <g id="PolyCollection_3">
    <path d="M 47.72 33.569091 
L 47.72 33.569091 
L 59.167105 35.084444 
L 70.614211 37.775293 
L 82.061316 41.063003 
L 93.508421 45.570878 
L 104.955526 50.164203 
L 116.402632 55.220467 
L 127.849737 60.18054 
L 139.296842 65.150639 
L 150.743947 70.640732 
L 162.191053 75.923239 
L 173.638158 81.053968 
L 185.085263 86.590615 
L 196.532368 90.562773 
L 207.979474 96.357429 
L 219.426579 100.915918 
L 230.873684 105.491826 
L 242.320789 109.946691 
L 253.767895 113.477794 
L 265.215 117.926684 
L 265.215 105.691236 
L 265.215 105.691236 
L 253.767895 102.302389 
L 242.320789 98.670087 
L 230.873684 94.678992 
L 219.426579 90.798909 
L 207.979474 86.042463 
L 196.532368 81.001053 
L 185.085263 76.990244 
L 173.638158 72.553073 
L 162.191053 68.833209 
L 150.743947 63.720711 
L 139.296842 59.156634 
L 127.849737 54.580828 
L 116.402632 50.006219 
L 104.955526 45.567051 
L 93.508421 41.882547 
L 82.061316 38.722423 
L 70.614211 36.564809 
L 59.167105 34.716507 
L 47.72 33.569091 
z
" clip-path="url(#pc09bbeda60)" style="fill: #2ca02c; fill-opacity: 0.4"/>
   </g>
   <g id="PolyCollection_4">
    <path d="M 47.72 33.569707 
L 47.72 33.570059 
L 59.167105 34.824272 
L 70.614211 36.792672 
L 82.061316 39.382186 
L 93.508421 43.302926 
L 104.955526 47.560713 
L 116.402632 52.55452 
L 127.849737 57.631621 
L 139.296842 62.899973 
L 150.743947 68.672613 
L 162.191053 74.250195 
L 173.638158 79.605486 
L 185.085263 85.252686 
L 196.532368 89.205931 
L 207.979474 94.940696 
L 219.426579 99.333581 
L 230.873684 103.738763 
L 242.320789 107.955594 
L 253.767895 111.292015 
L 265.215 115.221908 
L 265.215 103.761248 
L 265.215 103.761248 
L 253.767895 100.510149 
L 242.320789 97.143513 
L 230.873684 93.341251 
L 219.426579 89.472775 
L 207.979474 84.81496 
L 196.532368 79.697997 
L 185.085263 75.596027 
L 173.638158 71.116999 
L 162.191053 67.172901 
L 150.743947 61.986944 
L 139.296842 57.329105 
L 127.849737 52.799223 
L 116.402632 48.13668 
L 104.955526 43.937272 
L 93.508421 40.610134 
L 82.061316 37.920026 
L 70.614211 36.09012 
L 59.167105 34.506963 
L 47.72 33.569707 
z
" clip-path="url(#pc09bbeda60)" style="fill: #d62728; fill-opacity: 0.4"/>
   </g>
   <g id="PolyCollection_5">
    <path d="M 47.72 33.569091 
L 47.72 33.569091 
L 59.167105 35.543273 
L 70.614211 41.395617 
L 82.061316 49.296145 
L 93.508421 58.972436 
L 104.955526 69.058947 
L 116.402632 79.48036 
L 127.849737 89.510542 
L 139.296842 99.645437 
L 150.743947 108.924732 
L 162.191053 118.28273 
L 173.638158 124.784519 
L 185.085263 133.032465 
L 196.532368 138.543878 
L 207.979474 143.72674 
L 219.426579 148.62633 
L 230.873684 152.509439 
L 242.320789 155.293499 
L 253.767895 157.687048 
L 265.215 160.551307 
L 265.215 151.472254 
L 265.215 151.472254 
L 253.767895 150.058036 
L 242.320789 144.236744 
L 230.873684 141.1731 
L 219.426579 136.971384 
L 207.979474 132.545309 
L 196.532368 126.675316 
L 185.085263 121.594258 
L 173.638158 114.851165 
L 162.191053 107.218579 
L 150.743947 99.331752 
L 139.296842 91.109966 
L 127.849737 82.288361 
L 116.402632 71.698685 
L 104.955526 61.978805 
L 93.508421 53.476633 
L 82.061316 45.560694 
L 70.614211 39.533273 
L 59.167105 35.030634 
L 47.72 33.569091 
z
" clip-path="url(#pc09bbeda60)" style="fill: #9467bd; fill-opacity: 0.4"/>
   </g>
   <g id="PolyCollection_6">
    <path d="M 47.72 33.569573 
L 47.72 33.5698 
L 59.167105 34.934953 
L 70.614211 38.23686 
L 82.061316 42.968953 
L 93.508421 49.616683 
L 104.955526 57.04975 
L 116.402632 65.890072 
L 127.849737 74.947765 
L 139.296842 84.119455 
L 150.743947 93.287826 
L 162.191053 102.686288 
L 173.638158 109.973509 
L 185.085263 118.434635 
L 196.532368 124.726246 
L 207.979474 130.944105 
L 219.426579 136.885971 
L 230.873684 141.300026 
L 242.320789 145.357865 
L 253.767895 148.720451 
L 265.215 152.237756 
L 265.215 143.752961 
L 265.215 143.752961 
L 253.767895 140.878434 
L 242.320789 135.506769 
L 230.873684 131.151825 
L 219.426579 126.443951 
L 207.979474 120.875104 
L 196.532368 114.482023 
L 185.085263 108.815467 
L 173.638158 101.080482 
L 162.191053 92.547072 
L 150.743947 85.018331 
L 139.296842 76.72334 
L 127.849737 68.112515 
L 116.402632 59.4423 
L 104.955526 52.021721 
L 93.508421 45.971824 
L 82.061316 40.80417 
L 70.614211 37.145001 
L 59.167105 34.546576 
L 47.72 33.569573 
z
" clip-path="url(#pc09bbeda60)" style="fill: #8c564b; fill-opacity: 0.4"/>
   </g>
   <g id="PolyCollection_7">
    <path d="M 47.72 43.434289 
L 47.72 45.520738 
L 59.167105 47.836195 
L 70.614211 54.407457 
L 82.061316 63.914352 
L 93.508421 74.954553 
L 104.955526 86.0667 
L 116.402632 97.018513 
L 127.849737 107.264739 
L 139.296842 116.852308 
L 150.743947 125.559075 
L 162.191053 133.4283 
L 173.638158 139.215727 
L 185.085263 145.142106 
L 196.532368 149.711928 
L 207.979474 153.79797 
L 219.426579 157.554249 
L 230.873684 160.532339 
L 242.320789 163.101722 
L 253.767895 165.585287 
L 265.215 167.350909 
L 265.215 160.96914 
L 265.215 160.96914 
L 253.767895 158.837028 
L 242.320789 156.082215 
L 230.873684 152.986203 
L 219.426579 149.367469 
L 207.979474 145.387847 
L 196.532368 140.182163 
L 185.085263 135.379256 
L 173.638158 127.662321 
L 162.191053 120.495328 
L 150.743947 112.152152 
L 139.296842 103.156246 
L 127.849737 94.106679 
L 116.402632 83.541279 
L 104.955526 73.44546 
L 93.508421 64.117069 
L 82.061316 55.883755 
L 70.614211 49.627118 
L 59.167105 45.284614 
L 47.72 43.434289 
z
" clip-path="url(#pc09bbeda60)" style="fill: #e377c2; fill-opacity: 0.4"/>
   </g>
   <g id="PolyCollection_8">
    <path d="M 47.72 33.56932 
L 47.72 33.569416 
L 59.167105 34.212797 
L 70.614211 34.820835 
L 82.061316 36.661568 
L 93.508421 40.581222 
L 104.955526 45.725245 
L 116.402632 53.122716 
L 127.849737 61.096252 
L 139.296842 69.533008 
L 150.743947 78.20886 
L 162.191053 86.509869 
L 173.638158 94.765724 
L 185.085263 102.952271 
L 196.532368 110.050122 
L 207.979474 117.278555 
L 219.426579 124.078686 
L 230.873684 129.443379 
L 242.320789 135.102773 
L 253.767895 139.27843 
L 265.215 143.989177 
L 265.215 133.792534 
L 265.215 133.792534 
L 253.767895 129.807951 
L 242.320789 124.88765 
L 230.873684 119.677534 
L 219.426579 113.886259 
L 207.979474 107.311076 
L 196.532368 99.511922 
L 185.085263 93.084929 
L 173.638158 84.092064 
L 162.191053 75.764451 
L 150.743947 66.997874 
L 139.296842 59.531184 
L 127.849737 51.684718 
L 116.402632 45.513116 
L 104.955526 40.580204 
L 93.508421 37.309238 
L 82.061316 35.199787 
L 70.614211 34.461448 
L 59.167105 34.084127 
L 47.72 33.56932 
z
" clip-path="url(#pc09bbeda60)" style="fill: #7f7f7f; fill-opacity: 0.4"/>
   </g>
   <g id="matplotlib.axis_1">
    <g id="xtick_1">
     <g id="line2d_1">
      <defs>
       <path id="mabd7c40a1c" d="M 0 0 
L 0 3.5 
" style="stroke: #000000; stroke-width: 0.8"/>
      </defs>
      <g>
       <use xlink:href="#mabd7c40a1c" x="47.72" y="174.04" style="stroke: #000000; stroke-width: 0.8"/>
      </g>
     </g>
     <g id="text_1">
      <!-- 0.0 -->
      <g transform="translate(39.768438 188.638438)scale(0.1 -0.1)">
       <defs>
        <path id="DejaVuSans-30" d="M 2034 4250 
Q 1547 4250 1301 3770 
Q 1056 3291 1056 2328 
Q 1056 1369 1301 889 
Q 1547 409 2034 409 
Q 2525 409 2770 889 
Q 3016 1369 3016 2328 
Q 3016 3291 2770 3770 
Q 2525 4250 2034 4250 
z
M 2034 4750 
Q 2819 4750 3233 4129 
Q 3647 3509 3647 2328 
Q 3647 1150 3233 529 
Q 2819 -91 2034 -91 
Q 1250 -91 836 529 
Q 422 1150 422 2328 
Q 422 3509 836 4129 
Q 1250 4750 2034 4750 
z
" transform="scale(0.015625)"/>
        <path id="DejaVuSans-2e" d="M 684 794 
L 1344 794 
L 1344 0 
L 684 0 
L 684 794 
z
" transform="scale(0.015625)"/>
       </defs>
       <use xlink:href="#DejaVuSans-30"/>
       <use xlink:href="#DejaVuSans-2e" x="63.623047"/>
       <use xlink:href="#DejaVuSans-30" x="95.410156"/>
      </g>
     </g>
    </g>
    <g id="xtick_2">
     <g id="line2d_2">
      <g>
       <use xlink:href="#mabd7c40a1c" x="102.09375" y="174.04" style="stroke: #000000; stroke-width: 0.8"/>
      </g>
     </g>
     <g id="text_2">
      <!-- 0.5 -->
      <g transform="translate(94.142188 188.638438)scale(0.1 -0.1)">
       <defs>
        <path id="DejaVuSans-35" d="M 691 4666 
L 3169 4666 
L 3169 4134 
L 1269 4134 
L 1269 2991 
Q 1406 3038 1543 3061 
Q 1681 3084 1819 3084 
Q 2600 3084 3056 2656 
Q 3513 2228 3513 1497 
Q 3513 744 3044 326 
Q 2575 -91 1722 -91 
Q 1428 -91 1123 -41 
Q 819 9 494 109 
L 494 744 
Q 775 591 1075 516 
Q 1375 441 1709 441 
Q 2250 441 2565 725 
Q 2881 1009 2881 1497 
Q 2881 1984 2565 2268 
Q 2250 2553 1709 2553 
Q 1456 2553 1204 2497 
Q 953 2441 691 2322 
L 691 4666 
z
" transform="scale(0.015625)"/>
       </defs>
       <use xlink:href="#DejaVuSans-30"/>
       <use xlink:href="#DejaVuSans-2e" x="63.623047"/>
       <use xlink:href="#DejaVuSans-35" x="95.410156"/>
      </g>
     </g>
    </g>
    <g id="xtick_3">
     <g id="line2d_3">
      <g>
       <use xlink:href="#mabd7c40a1c" x="156.4675" y="174.04" style="stroke: #000000; stroke-width: 0.8"/>
      </g>
     </g>
     <g id="text_3">
      <!-- 1.0 -->
      <g transform="translate(148.515938 188.638438)scale(0.1 -0.1)">
       <defs>
        <path id="DejaVuSans-31" d="M 794 531 
L 1825 531 
L 1825 4091 
L 703 3866 
L 703 4441 
L 1819 4666 
L 2450 4666 
L 2450 531 
L 3481 531 
L 3481 0 
L 794 0 
L 794 531 
z
" transform="scale(0.015625)"/>
       </defs>
       <use xlink:href="#DejaVuSans-31"/>
       <use xlink:href="#DejaVuSans-2e" x="63.623047"/>
       <use xlink:href="#DejaVuSans-30" x="95.410156"/>
      </g>
     </g>
    </g>
    <g id="xtick_4">
     <g id="line2d_4">
      <g>
       <use xlink:href="#mabd7c40a1c" x="210.84125" y="174.04" style="stroke: #000000; stroke-width: 0.8"/>
      </g>
     </g>
     <g id="text_4">
      <!-- 1.5 -->
      <g transform="translate(202.889687 188.638438)scale(0.1 -0.1)">
       <use xlink:href="#DejaVuSans-31"/>
       <use xlink:href="#DejaVuSans-2e" x="63.623047"/>
       <use xlink:href="#DejaVuSans-35" x="95.410156"/>
      </g>
     </g>
    </g>
    <g id="xtick_5">
     <g id="line2d_5">
      <g>
       <use xlink:href="#mabd7c40a1c" x="265.215" y="174.04" style="stroke: #000000; stroke-width: 0.8"/>
      </g>
     </g>
     <g id="text_5">
      <!-- 2.0 -->
      <g transform="translate(257.263437 188.638438)scale(0.1 -0.1)">
       <defs>
        <path id="DejaVuSans-32" d="M 1228 531 
L 3431 531 
L 3431 0 
L 469 0 
L 469 531 
Q 828 903 1448 1529 
Q 2069 2156 2228 2338 
Q 2531 2678 2651 2914 
Q 2772 3150 2772 3378 
Q 2772 3750 2511 3984 
Q 2250 4219 1831 4219 
Q 1534 4219 1204 4116 
Q 875 4013 500 3803 
L 500 4441 
Q 881 4594 1212 4672 
Q 1544 4750 1819 4750 
Q 2544 4750 2975 4387 
Q 3406 4025 3406 3419 
Q 3406 3131 3298 2873 
Q 3191 2616 2906 2266 
Q 2828 2175 2409 1742 
Q 1991 1309 1228 531 
z
" transform="scale(0.015625)"/>
       </defs>
       <use xlink:href="#DejaVuSans-32"/>
       <use xlink:href="#DejaVuSans-2e" x="63.623047"/>
       <use xlink:href="#DejaVuSans-30" x="95.410156"/>
      </g>
     </g>
    </g>
    <g id="text_6">
     <!-- Influence of surprisal (multiplication) -->
     <g transform="translate(64.320625 202.316563)scale(0.1 -0.1)">
      <defs>
       <path id="DejaVuSans-49" d="M 628 4666 
L 1259 4666 
L 1259 0 
L 628 0 
L 628 4666 
z
" transform="scale(0.015625)"/>
       <path id="DejaVuSans-6e" d="M 3513 2113 
L 3513 0 
L 2938 0 
L 2938 2094 
Q 2938 2591 2744 2837 
Q 2550 3084 2163 3084 
Q 1697 3084 1428 2787 
Q 1159 2491 1159 1978 
L 1159 0 
L 581 0 
L 581 3500 
L 1159 3500 
L 1159 2956 
Q 1366 3272 1645 3428 
Q 1925 3584 2291 3584 
Q 2894 3584 3203 3211 
Q 3513 2838 3513 2113 
z
" transform="scale(0.015625)"/>
       <path id="DejaVuSans-66" d="M 2375 4863 
L 2375 4384 
L 1825 4384 
Q 1516 4384 1395 4259 
Q 1275 4134 1275 3809 
L 1275 3500 
L 2222 3500 
L 2222 3053 
L 1275 3053 
L 1275 0 
L 697 0 
L 697 3053 
L 147 3053 
L 147 3500 
L 697 3500 
L 697 3744 
Q 697 4328 969 4595 
Q 1241 4863 1831 4863 
L 2375 4863 
z
" transform="scale(0.015625)"/>
       <path id="DejaVuSans-6c" d="M 603 4863 
L 1178 4863 
L 1178 0 
L 603 0 
L 603 4863 
z
" transform="scale(0.015625)"/>
       <path id="DejaVuSans-75" d="M 544 1381 
L 544 3500 
L 1119 3500 
L 1119 1403 
Q 1119 906 1312 657 
Q 1506 409 1894 409 
Q 2359 409 2629 706 
Q 2900 1003 2900 1516 
L 2900 3500 
L 3475 3500 
L 3475 0 
L 2900 0 
L 2900 538 
Q 2691 219 2414 64 
Q 2138 -91 1772 -91 
Q 1169 -91 856 284 
Q 544 659 544 1381 
z
M 1991 3584 
L 1991 3584 
z
" transform="scale(0.015625)"/>
       <path id="DejaVuSans-65" d="M 3597 1894 
L 3597 1613 
L 953 1613 
Q 991 1019 1311 708 
Q 1631 397 2203 397 
Q 2534 397 2845 478 
Q 3156 559 3463 722 
L 3463 178 
Q 3153 47 2828 -22 
Q 2503 -91 2169 -91 
Q 1331 -91 842 396 
Q 353 884 353 1716 
Q 353 2575 817 3079 
Q 1281 3584 2069 3584 
Q 2775 3584 3186 3129 
Q 3597 2675 3597 1894 
z
M 3022 2063 
Q 3016 2534 2758 2815 
Q 2500 3097 2075 3097 
Q 1594 3097 1305 2825 
Q 1016 2553 972 2059 
L 3022 2063 
z
" transform="scale(0.015625)"/>
       <path id="DejaVuSans-63" d="M 3122 3366 
L 3122 2828 
Q 2878 2963 2633 3030 
Q 2388 3097 2138 3097 
Q 1578 3097 1268 2742 
Q 959 2388 959 1747 
Q 959 1106 1268 751 
Q 1578 397 2138 397 
Q 2388 397 2633 464 
Q 2878 531 3122 666 
L 3122 134 
Q 2881 22 2623 -34 
Q 2366 -91 2075 -91 
Q 1284 -91 818 406 
Q 353 903 353 1747 
Q 353 2603 823 3093 
Q 1294 3584 2113 3584 
Q 2378 3584 2631 3529 
Q 2884 3475 3122 3366 
z
" transform="scale(0.015625)"/>
       <path id="DejaVuSans-20" transform="scale(0.015625)"/>
       <path id="DejaVuSans-6f" d="M 1959 3097 
Q 1497 3097 1228 2736 
Q 959 2375 959 1747 
Q 959 1119 1226 758 
Q 1494 397 1959 397 
Q 2419 397 2687 759 
Q 2956 1122 2956 1747 
Q 2956 2369 2687 2733 
Q 2419 3097 1959 3097 
z
M 1959 3584 
Q 2709 3584 3137 3096 
Q 3566 2609 3566 1747 
Q 3566 888 3137 398 
Q 2709 -91 1959 -91 
Q 1206 -91 779 398 
Q 353 888 353 1747 
Q 353 2609 779 3096 
Q 1206 3584 1959 3584 
z
" transform="scale(0.015625)"/>
       <path id="DejaVuSans-73" d="M 2834 3397 
L 2834 2853 
Q 2591 2978 2328 3040 
Q 2066 3103 1784 3103 
Q 1356 3103 1142 2972 
Q 928 2841 928 2578 
Q 928 2378 1081 2264 
Q 1234 2150 1697 2047 
L 1894 2003 
Q 2506 1872 2764 1633 
Q 3022 1394 3022 966 
Q 3022 478 2636 193 
Q 2250 -91 1575 -91 
Q 1294 -91 989 -36 
Q 684 19 347 128 
L 347 722 
Q 666 556 975 473 
Q 1284 391 1588 391 
Q 1994 391 2212 530 
Q 2431 669 2431 922 
Q 2431 1156 2273 1281 
Q 2116 1406 1581 1522 
L 1381 1569 
Q 847 1681 609 1914 
Q 372 2147 372 2553 
Q 372 3047 722 3315 
Q 1072 3584 1716 3584 
Q 2034 3584 2315 3537 
Q 2597 3491 2834 3397 
z
" transform="scale(0.015625)"/>
       <path id="DejaVuSans-72" d="M 2631 2963 
Q 2534 3019 2420 3045 
Q 2306 3072 2169 3072 
Q 1681 3072 1420 2755 
Q 1159 2438 1159 1844 
L 1159 0 
L 581 0 
L 581 3500 
L 1159 3500 
L 1159 2956 
Q 1341 3275 1631 3429 
Q 1922 3584 2338 3584 
Q 2397 3584 2469 3576 
Q 2541 3569 2628 3553 
L 2631 2963 
z
" transform="scale(0.015625)"/>
       <path id="DejaVuSans-70" d="M 1159 525 
L 1159 -1331 
L 581 -1331 
L 581 3500 
L 1159 3500 
L 1159 2969 
Q 1341 3281 1617 3432 
Q 1894 3584 2278 3584 
Q 2916 3584 3314 3078 
Q 3713 2572 3713 1747 
Q 3713 922 3314 415 
Q 2916 -91 2278 -91 
Q 1894 -91 1617 61 
Q 1341 213 1159 525 
z
M 3116 1747 
Q 3116 2381 2855 2742 
Q 2594 3103 2138 3103 
Q 1681 3103 1420 2742 
Q 1159 2381 1159 1747 
Q 1159 1113 1420 752 
Q 1681 391 2138 391 
Q 2594 391 2855 752 
Q 3116 1113 3116 1747 
z
" transform="scale(0.015625)"/>
       <path id="DejaVuSans-69" d="M 603 3500 
L 1178 3500 
L 1178 0 
L 603 0 
L 603 3500 
z
M 603 4863 
L 1178 4863 
L 1178 4134 
L 603 4134 
L 603 4863 
z
" transform="scale(0.015625)"/>
       <path id="DejaVuSans-61" d="M 2194 1759 
Q 1497 1759 1228 1600 
Q 959 1441 959 1056 
Q 959 750 1161 570 
Q 1363 391 1709 391 
Q 2188 391 2477 730 
Q 2766 1069 2766 1631 
L 2766 1759 
L 2194 1759 
z
M 3341 1997 
L 3341 0 
L 2766 0 
L 2766 531 
Q 2569 213 2275 61 
Q 1981 -91 1556 -91 
Q 1019 -91 701 211 
Q 384 513 384 1019 
Q 384 1609 779 1909 
Q 1175 2209 1959 2209 
L 2766 2209 
L 2766 2266 
Q 2766 2663 2505 2880 
Q 2244 3097 1772 3097 
Q 1472 3097 1187 3025 
Q 903 2953 641 2809 
L 641 3341 
Q 956 3463 1253 3523 
Q 1550 3584 1831 3584 
Q 2591 3584 2966 3190 
Q 3341 2797 3341 1997 
z
" transform="scale(0.015625)"/>
       <path id="DejaVuSans-28" d="M 1984 4856 
Q 1566 4138 1362 3434 
Q 1159 2731 1159 2009 
Q 1159 1288 1364 580 
Q 1569 -128 1984 -844 
L 1484 -844 
Q 1016 -109 783 600 
Q 550 1309 550 2009 
Q 550 2706 781 3412 
Q 1013 4119 1484 4856 
L 1984 4856 
z
" transform="scale(0.015625)"/>
       <path id="DejaVuSans-6d" d="M 3328 2828 
Q 3544 3216 3844 3400 
Q 4144 3584 4550 3584 
Q 5097 3584 5394 3201 
Q 5691 2819 5691 2113 
L 5691 0 
L 5113 0 
L 5113 2094 
Q 5113 2597 4934 2840 
Q 4756 3084 4391 3084 
Q 3944 3084 3684 2787 
Q 3425 2491 3425 1978 
L 3425 0 
L 2847 0 
L 2847 2094 
Q 2847 2600 2669 2842 
Q 2491 3084 2119 3084 
Q 1678 3084 1418 2786 
Q 1159 2488 1159 1978 
L 1159 0 
L 581 0 
L 581 3500 
L 1159 3500 
L 1159 2956 
Q 1356 3278 1631 3431 
Q 1906 3584 2284 3584 
Q 2666 3584 2933 3390 
Q 3200 3197 3328 2828 
z
" transform="scale(0.015625)"/>
       <path id="DejaVuSans-74" d="M 1172 4494 
L 1172 3500 
L 2356 3500 
L 2356 3053 
L 1172 3053 
L 1172 1153 
Q 1172 725 1289 603 
Q 1406 481 1766 481 
L 2356 481 
L 2356 0 
L 1766 0 
Q 1100 0 847 248 
Q 594 497 594 1153 
L 594 3053 
L 172 3053 
L 172 3500 
L 594 3500 
L 594 4494 
L 1172 4494 
z
" transform="scale(0.015625)"/>
       <path id="DejaVuSans-29" d="M 513 4856 
L 1013 4856 
Q 1481 4119 1714 3412 
Q 1947 2706 1947 2009 
Q 1947 1309 1714 600 
Q 1481 -109 1013 -844 
L 513 -844 
Q 928 -128 1133 580 
Q 1338 1288 1338 2009 
Q 1338 2731 1133 3434 
Q 928 4138 513 4856 
z
" transform="scale(0.015625)"/>
      </defs>
      <use xlink:href="#DejaVuSans-49"/>
      <use xlink:href="#DejaVuSans-6e" x="29.492188"/>
      <use xlink:href="#DejaVuSans-66" x="92.871094"/>
      <use xlink:href="#DejaVuSans-6c" x="128.076172"/>
      <use xlink:href="#DejaVuSans-75" x="155.859375"/>
      <use xlink:href="#DejaVuSans-65" x="219.238281"/>
      <use xlink:href="#DejaVuSans-6e" x="280.761719"/>
      <use xlink:href="#DejaVuSans-63" x="344.140625"/>
      <use xlink:href="#DejaVuSans-65" x="399.121094"/>
      <use xlink:href="#DejaVuSans-20" x="460.644531"/>
      <use xlink:href="#DejaVuSans-6f" x="492.431641"/>
      <use xlink:href="#DejaVuSans-66" x="553.613281"/>
      <use xlink:href="#DejaVuSans-20" x="588.818359"/>
      <use xlink:href="#DejaVuSans-73" x="620.605469"/>
      <use xlink:href="#DejaVuSans-75" x="672.705078"/>
      <use xlink:href="#DejaVuSans-72" x="736.083984"/>
      <use xlink:href="#DejaVuSans-70" x="777.197266"/>
      <use xlink:href="#DejaVuSans-72" x="840.673828"/>
      <use xlink:href="#DejaVuSans-69" x="881.787109"/>
      <use xlink:href="#DejaVuSans-73" x="909.570312"/>
      <use xlink:href="#DejaVuSans-61" x="961.669922"/>
      <use xlink:href="#DejaVuSans-6c" x="1022.949219"/>
      <use xlink:href="#DejaVuSans-20" x="1050.732422"/>
      <use xlink:href="#DejaVuSans-28" x="1082.519531"/>
      <use xlink:href="#DejaVuSans-6d" x="1121.533203"/>
      <use xlink:href="#DejaVuSans-75" x="1218.945312"/>
      <use xlink:href="#DejaVuSans-6c" x="1282.324219"/>
      <use xlink:href="#DejaVuSans-74" x="1310.107422"/>
      <use xlink:href="#DejaVuSans-69" x="1349.316406"/>
      <use xlink:href="#DejaVuSans-70" x="1377.099609"/>
      <use xlink:href="#DejaVuSans-6c" x="1440.576172"/>
      <use xlink:href="#DejaVuSans-69" x="1468.359375"/>
      <use xlink:href="#DejaVuSans-63" x="1496.142578"/>
      <use xlink:href="#DejaVuSans-61" x="1551.123047"/>
      <use xlink:href="#DejaVuSans-74" x="1612.402344"/>
      <use xlink:href="#DejaVuSans-69" x="1651.611328"/>
      <use xlink:href="#DejaVuSans-6f" x="1679.394531"/>
      <use xlink:href="#DejaVuSans-6e" x="1740.576172"/>
      <use xlink:href="#DejaVuSans-29" x="1803.955078"/>
     </g>
    </g>
   </g>
   <g id="matplotlib.axis_2">
    <g id="ytick_1">
     <g id="line2d_6">
      <defs>
       <path id="mec7c4ea280" d="M 0 0 
L -3.5 0 
" style="stroke: #000000; stroke-width: 0.8"/>
      </defs>
      <g>
       <use xlink:href="#mec7c4ea280" x="47.72" y="155.408311" style="stroke: #000000; stroke-width: 0.8"/>
      </g>
     </g>
     <g id="text_7">
      <!-- 0.2 -->
      <g transform="translate(24.816875 159.20753)scale(0.1 -0.1)">
       <use xlink:href="#DejaVuSans-30"/>
       <use xlink:href="#DejaVuSans-2e" x="63.623047"/>
       <use xlink:href="#DejaVuSans-32" x="95.410156"/>
      </g>
     </g>
    </g>
    <g id="ytick_2">
     <g id="line2d_7">
      <g>
       <use xlink:href="#mec7c4ea280" x="47.72" y="124.948506" style="stroke: #000000; stroke-width: 0.8"/>
      </g>
     </g>
     <g id="text_8">
      <!-- 0.4 -->
      <g transform="translate(24.816875 128.747725)scale(0.1 -0.1)">
       <defs>
        <path id="DejaVuSans-34" d="M 2419 4116 
L 825 1625 
L 2419 1625 
L 2419 4116 
z
M 2253 4666 
L 3047 4666 
L 3047 1625 
L 3713 1625 
L 3713 1100 
L 3047 1100 
L 3047 0 
L 2419 0 
L 2419 1100 
L 313 1100 
L 313 1709 
L 2253 4666 
z
" transform="scale(0.015625)"/>
       </defs>
       <use xlink:href="#DejaVuSans-30"/>
       <use xlink:href="#DejaVuSans-2e" x="63.623047"/>
       <use xlink:href="#DejaVuSans-34" x="95.410156"/>
      </g>
     </g>
    </g>
    <g id="ytick_3">
     <g id="line2d_8">
      <g>
       <use xlink:href="#mec7c4ea280" x="47.72" y="94.488701" style="stroke: #000000; stroke-width: 0.8"/>
      </g>
     </g>
     <g id="text_9">
      <!-- 0.6 -->
      <g transform="translate(24.816875 98.28792)scale(0.1 -0.1)">
       <defs>
        <path id="DejaVuSans-36" d="M 2113 2584 
Q 1688 2584 1439 2293 
Q 1191 2003 1191 1497 
Q 1191 994 1439 701 
Q 1688 409 2113 409 
Q 2538 409 2786 701 
Q 3034 994 3034 1497 
Q 3034 2003 2786 2293 
Q 2538 2584 2113 2584 
z
M 3366 4563 
L 3366 3988 
Q 3128 4100 2886 4159 
Q 2644 4219 2406 4219 
Q 1781 4219 1451 3797 
Q 1122 3375 1075 2522 
Q 1259 2794 1537 2939 
Q 1816 3084 2150 3084 
Q 2853 3084 3261 2657 
Q 3669 2231 3669 1497 
Q 3669 778 3244 343 
Q 2819 -91 2113 -91 
Q 1303 -91 875 529 
Q 447 1150 447 2328 
Q 447 3434 972 4092 
Q 1497 4750 2381 4750 
Q 2619 4750 2861 4703 
Q 3103 4656 3366 4563 
z
" transform="scale(0.015625)"/>
       </defs>
       <use xlink:href="#DejaVuSans-30"/>
       <use xlink:href="#DejaVuSans-2e" x="63.623047"/>
       <use xlink:href="#DejaVuSans-36" x="95.410156"/>
      </g>
     </g>
    </g>
    <g id="ytick_4">
     <g id="line2d_9">
      <g>
       <use xlink:href="#mec7c4ea280" x="47.72" y="64.028896" style="stroke: #000000; stroke-width: 0.8"/>
      </g>
     </g>
     <g id="text_10">
      <!-- 0.8 -->
      <g transform="translate(24.816875 67.828115)scale(0.1 -0.1)">
       <defs>
        <path id="DejaVuSans-38" d="M 2034 2216 
Q 1584 2216 1326 1975 
Q 1069 1734 1069 1313 
Q 1069 891 1326 650 
Q 1584 409 2034 409 
Q 2484 409 2743 651 
Q 3003 894 3003 1313 
Q 3003 1734 2745 1975 
Q 2488 2216 2034 2216 
z
M 1403 2484 
Q 997 2584 770 2862 
Q 544 3141 544 3541 
Q 544 4100 942 4425 
Q 1341 4750 2034 4750 
Q 2731 4750 3128 4425 
Q 3525 4100 3525 3541 
Q 3525 3141 3298 2862 
Q 3072 2584 2669 2484 
Q 3125 2378 3379 2068 
Q 3634 1759 3634 1313 
Q 3634 634 3220 271 
Q 2806 -91 2034 -91 
Q 1263 -91 848 271 
Q 434 634 434 1313 
Q 434 1759 690 2068 
Q 947 2378 1403 2484 
z
M 1172 3481 
Q 1172 3119 1398 2916 
Q 1625 2713 2034 2713 
Q 2441 2713 2670 2916 
Q 2900 3119 2900 3481 
Q 2900 3844 2670 4047 
Q 2441 4250 2034 4250 
Q 1625 4250 1398 4047 
Q 1172 3844 1172 3481 
z
" transform="scale(0.015625)"/>
       </defs>
       <use xlink:href="#DejaVuSans-30"/>
       <use xlink:href="#DejaVuSans-2e" x="63.623047"/>
       <use xlink:href="#DejaVuSans-38" x="95.410156"/>
      </g>
     </g>
    </g>
    <g id="ytick_5">
     <g id="line2d_10">
      <g>
       <use xlink:href="#mec7c4ea280" x="47.72" y="33.569091" style="stroke: #000000; stroke-width: 0.8"/>
      </g>
     </g>
     <g id="text_11">
      <!-- 1.0 -->
      <g transform="translate(24.816875 37.36831)scale(0.1 -0.1)">
       <use xlink:href="#DejaVuSans-31"/>
       <use xlink:href="#DejaVuSans-2e" x="63.623047"/>
       <use xlink:href="#DejaVuSans-30" x="95.410156"/>
      </g>
     </g>
    </g>
    <g id="text_12">
     <!-- R-value -->
     <g transform="translate(18.737188 119.064687)rotate(-90)scale(0.1 -0.1)">
      <defs>
       <path id="DejaVuSans-52" d="M 2841 2188 
Q 3044 2119 3236 1894 
Q 3428 1669 3622 1275 
L 4263 0 
L 3584 0 
L 2988 1197 
Q 2756 1666 2539 1819 
Q 2322 1972 1947 1972 
L 1259 1972 
L 1259 0 
L 628 0 
L 628 4666 
L 2053 4666 
Q 2853 4666 3247 4331 
Q 3641 3997 3641 3322 
Q 3641 2881 3436 2590 
Q 3231 2300 2841 2188 
z
M 1259 4147 
L 1259 2491 
L 2053 2491 
Q 2509 2491 2742 2702 
Q 2975 2913 2975 3322 
Q 2975 3731 2742 3939 
Q 2509 4147 2053 4147 
L 1259 4147 
z
" transform="scale(0.015625)"/>
       <path id="DejaVuSans-2d" d="M 313 2009 
L 1997 2009 
L 1997 1497 
L 313 1497 
L 313 2009 
z
" transform="scale(0.015625)"/>
       <path id="DejaVuSans-76" d="M 191 3500 
L 800 3500 
L 1894 563 
L 2988 3500 
L 3597 3500 
L 2284 0 
L 1503 0 
L 191 3500 
z
" transform="scale(0.015625)"/>
      </defs>
      <use xlink:href="#DejaVuSans-52"/>
      <use xlink:href="#DejaVuSans-2d" x="65.482422"/>
      <use xlink:href="#DejaVuSans-76" x="98.941406"/>
      <use xlink:href="#DejaVuSans-61" x="158.121094"/>
      <use xlink:href="#DejaVuSans-6c" x="219.400391"/>
      <use xlink:href="#DejaVuSans-75" x="247.183594"/>
      <use xlink:href="#DejaVuSans-65" x="310.5625"/>
     </g>
    </g>
   </g>
   <g id="line2d_11">
    <path d="M 47.72 33.569091 
L 59.167105 35.291665 
L 70.614211 40.441251 
L 82.061316 47.354784 
L 93.508421 56.136658 
L 104.955526 65.452316 
L 116.402632 75.550102 
L 127.849737 85.778621 
L 139.296842 95.373023 
L 150.743947 104.099699 
L 162.191053 112.600745 
L 173.638158 119.692671 
L 185.085263 126.979667 
L 196.532368 132.197593 
L 207.979474 137.516044 
L 219.426579 142.366439 
L 230.873684 146.225447 
L 242.320789 149.883568 
L 253.767895 153.098663 
L 265.215 155.818916 
" clip-path="url(#pc09bbeda60)" style="fill: none; stroke: #1f77b4; stroke-width: 1.5; stroke-linecap: square"/>
   </g>
   <g id="line2d_12">
    <path d="M 47.72 33.56924 
L 59.167105 34.744621 
L 70.614211 37.682981 
L 82.061316 41.865158 
L 93.508421 47.733655 
L 104.955526 54.512458 
L 116.402632 62.621716 
L 127.849737 71.496996 
L 139.296842 80.43466 
L 150.743947 88.979235 
L 162.191053 97.471054 
L 173.638158 105.369278 
L 185.085263 113.289494 
L 196.532368 119.281029 
L 207.979474 125.487332 
L 219.426579 131.270492 
L 230.873684 135.86964 
L 242.320789 140.442454 
L 253.767895 144.272888 
L 265.215 147.836307 
" clip-path="url(#pc09bbeda60)" style="fill: none; stroke: #ff7f0e; stroke-width: 1.5; stroke-linecap: square"/>
   </g>
   <g id="line2d_13">
    <path d="M 47.72 33.569091 
L 59.167105 34.900475 
L 70.614211 37.170051 
L 82.061316 39.892713 
L 93.508421 43.726712 
L 104.955526 47.865627 
L 116.402632 52.613343 
L 127.849737 57.380684 
L 139.296842 62.153636 
L 150.743947 67.180721 
L 162.191053 72.378224 
L 173.638158 76.803521 
L 185.085263 81.79043 
L 196.532368 85.781913 
L 207.979474 91.199946 
L 219.426579 95.857414 
L 230.873684 100.085409 
L 242.320789 104.308389 
L 253.767895 107.890092 
L 265.215 111.80896 
" clip-path="url(#pc09bbeda60)" style="fill: none; stroke: #2ca02c; stroke-width: 1.5; stroke-linecap: square"/>
   </g>
   <g id="line2d_14">
    <path d="M 47.72 33.569883 
L 59.167105 34.665618 
L 70.614211 36.441396 
L 82.061316 38.651106 
L 93.508421 41.95653 
L 104.955526 45.748992 
L 116.402632 50.3456 
L 127.849737 55.215422 
L 139.296842 60.114539 
L 150.743947 65.329778 
L 162.191053 70.711548 
L 173.638158 75.361243 
L 185.085263 80.424357 
L 196.532368 84.451964 
L 207.979474 89.877828 
L 219.426579 94.403178 
L 230.873684 98.540007 
L 242.320789 102.549554 
L 253.767895 105.901082 
L 265.215 109.491578 
" clip-path="url(#pc09bbeda60)" style="fill: none; stroke: #d62728; stroke-width: 1.5; stroke-linecap: square"/>
   </g>
   <g id="line2d_15">
    <path d="M 47.72 33.569091 
L 59.167105 35.286954 
L 70.614211 40.464445 
L 82.061316 47.428419 
L 93.508421 56.224535 
L 104.955526 65.518876 
L 116.402632 75.589522 
L 127.849737 85.899451 
L 139.296842 95.377701 
L 150.743947 104.128242 
L 162.191053 112.750654 
L 173.638158 119.817842 
L 185.085263 127.313361 
L 196.532368 132.609597 
L 207.979474 138.136025 
L 219.426579 142.798857 
L 230.873684 146.84127 
L 242.320789 149.765121 
L 253.767895 153.872542 
L 265.215 156.01178 
" clip-path="url(#pc09bbeda60)" style="fill: none; stroke: #9467bd; stroke-width: 1.5; stroke-linecap: square"/>
   </g>
   <g id="line2d_16">
    <path d="M 47.72 33.569686 
L 59.167105 34.740765 
L 70.614211 37.69093 
L 82.061316 41.886562 
L 93.508421 47.794254 
L 104.955526 54.535735 
L 116.402632 62.666186 
L 127.849737 71.53014 
L 139.296842 80.421398 
L 150.743947 89.153079 
L 162.191053 97.61668 
L 173.638158 105.526995 
L 185.085263 113.625051 
L 196.532368 119.604134 
L 207.979474 125.909604 
L 219.426579 131.664961 
L 230.873684 136.225926 
L 242.320789 140.432317 
L 253.767895 144.799443 
L 265.215 147.995359 
" clip-path="url(#pc09bbeda60)" style="fill: none; stroke: #8c564b; stroke-width: 1.5; stroke-linecap: square"/>
   </g>
   <g id="line2d_17">
    <path d="M 47.72 44.477514 
L 59.167105 46.560404 
L 70.614211 52.017287 
L 82.061316 59.899053 
L 93.508421 69.535811 
L 104.955526 79.75608 
L 116.402632 90.279896 
L 127.849737 100.685709 
L 139.296842 110.004277 
L 150.743947 118.855613 
L 162.191053 126.961814 
L 173.638158 133.439024 
L 185.085263 140.260681 
L 196.532368 144.947045 
L 207.979474 149.592908 
L 219.426579 153.460859 
L 230.873684 156.759271 
L 242.320789 159.591969 
L 253.767895 162.211158 
L 265.215 164.160024 
" clip-path="url(#pc09bbeda60)" style="fill: none; stroke: #e377c2; stroke-width: 1.5; stroke-linecap: square"/>
   </g>
   <g id="line2d_18">
    <path d="M 47.72 33.569368 
L 59.167105 34.148462 
L 70.614211 34.641141 
L 82.061316 35.930678 
L 93.508421 38.94523 
L 104.955526 43.152725 
L 116.402632 49.317916 
L 127.849737 56.390485 
L 139.296842 64.532096 
L 150.743947 72.603367 
L 162.191053 81.13716 
L 173.638158 89.428894 
L 185.085263 98.0186 
L 196.532368 104.781022 
L 207.979474 112.294816 
L 219.426579 118.982473 
L 230.873684 124.560456 
L 242.320789 129.995211 
L 253.767895 134.543191 
L 265.215 138.890856 
" clip-path="url(#pc09bbeda60)" style="fill: none; stroke: #7f7f7f; stroke-width: 1.5; stroke-linecap: square"/>
   </g>
   <g id="patch_3">
    <path d="M 47.72 174.04 
L 47.72 26.88 
" style="fill: none; stroke: #000000; stroke-width: 0.8; stroke-linejoin: miter; stroke-linecap: square"/>
   </g>
   <g id="patch_4">
    <path d="M 47.72 174.04 
L 265.215 174.04 
" style="fill: none; stroke: #000000; stroke-width: 0.8; stroke-linejoin: miter; stroke-linecap: square"/>
   </g>
   <g id="text_13">
    <!-- Node * surprisal -->
    <g transform="translate(108.18625 20.88)scale(0.12 -0.12)">
     <defs>
      <path id="DejaVuSans-4e" d="M 628 4666 
L 1478 4666 
L 3547 763 
L 3547 4666 
L 4159 4666 
L 4159 0 
L 3309 0 
L 1241 3903 
L 1241 0 
L 628 0 
L 628 4666 
z
" transform="scale(0.015625)"/>
      <path id="DejaVuSans-64" d="M 2906 2969 
L 2906 4863 
L 3481 4863 
L 3481 0 
L 2906 0 
L 2906 525 
Q 2725 213 2448 61 
Q 2172 -91 1784 -91 
Q 1150 -91 751 415 
Q 353 922 353 1747 
Q 353 2572 751 3078 
Q 1150 3584 1784 3584 
Q 2172 3584 2448 3432 
Q 2725 3281 2906 2969 
z
M 947 1747 
Q 947 1113 1208 752 
Q 1469 391 1925 391 
Q 2381 391 2643 752 
Q 2906 1113 2906 1747 
Q 2906 2381 2643 2742 
Q 2381 3103 1925 3103 
Q 1469 3103 1208 2742 
Q 947 2381 947 1747 
z
" transform="scale(0.015625)"/>
      <path id="DejaVuSans-2a" d="M 3009 3897 
L 1888 3291 
L 3009 2681 
L 2828 2375 
L 1778 3009 
L 1778 1831 
L 1422 1831 
L 1422 3009 
L 372 2375 
L 191 2681 
L 1313 3291 
L 191 3897 
L 372 4206 
L 1422 3572 
L 1422 4750 
L 1778 4750 
L 1778 3572 
L 2828 4206 
L 3009 3897 
z
" transform="scale(0.015625)"/>
     </defs>
     <use xlink:href="#DejaVuSans-4e"/>
     <use xlink:href="#DejaVuSans-6f" x="74.804688"/>
     <use xlink:href="#DejaVuSans-64" x="135.986328"/>
     <use xlink:href="#DejaVuSans-65" x="199.462891"/>
     <use xlink:href="#DejaVuSans-20" x="260.986328"/>
     <use xlink:href="#DejaVuSans-2a" x="292.773438"/>
     <use xlink:href="#DejaVuSans-20" x="342.773438"/>
     <use xlink:href="#DejaVuSans-73" x="374.560547"/>
     <use xlink:href="#DejaVuSans-75" x="426.660156"/>
     <use xlink:href="#DejaVuSans-72" x="490.039062"/>
     <use xlink:href="#DejaVuSans-70" x="531.152344"/>
     <use xlink:href="#DejaVuSans-72" x="594.628906"/>
     <use xlink:href="#DejaVuSans-69" x="635.742188"/>
     <use xlink:href="#DejaVuSans-73" x="663.525391"/>
     <use xlink:href="#DejaVuSans-61" x="715.625"/>
     <use xlink:href="#DejaVuSans-6c" x="776.904297"/>
    </g>
   </g>
  </g>
  <g id="axes_2">
   <g id="patch_5">
    <path d="M 298.065 174.04 
L 515.56 174.04 
L 515.56 26.88 
L 298.065 26.88 
z
" style="fill: #ffffff"/>
   </g>
   <g id="PolyCollection_9">
    <path d="M 298.065 33.569091 
L 298.065 33.569091 
L 309.512105 35.939571 
L 320.959211 42.017814 
L 332.406316 50.33048 
L 343.853421 59.27351 
L 355.300526 70.447573 
L 366.747632 80.160667 
L 378.194737 90.632119 
L 389.641842 100.525364 
L 401.088947 109.725557 
L 412.536053 117.993869 
L 423.983158 125.355827 
L 435.430263 130.828611 
L 446.877368 137.715644 
L 458.324474 142.098366 
L 469.771579 146.169155 
L 481.218684 150.311991 
L 492.665789 153.49397 
L 504.112895 156.602338 
L 515.56 159.14788 
L 515.56 147.93279 
L 515.56 147.93279 
L 504.112895 144.135743 
L 492.665789 140.292117 
L 481.218684 136.611567 
L 469.771579 131.817732 
L 458.324474 127.468323 
L 446.877368 122.024627 
L 435.430263 116.328875 
L 423.983158 109.81875 
L 412.536053 103.059954 
L 401.088947 95.578395 
L 389.641842 88.099824 
L 378.194737 79.455854 
L 366.747632 70.784143 
L 355.300526 62.193538 
L 343.853421 53.727753 
L 332.406316 45.892374 
L 320.959211 39.639093 
L 309.512105 35.096513 
L 298.065 33.569091 
z
" clip-path="url(#p3ca5ffbbc6)" style="fill: #1f77b4; fill-opacity: 0.4"/>
   </g>
   <g id="PolyCollection_10">
    <path d="M 298.065 33.569212 
L 298.065 33.569269 
L 309.512105 35.940684 
L 320.959211 42.042324 
L 332.406316 50.391817 
L 343.853421 59.366254 
L 355.300526 70.576238 
L 366.747632 80.306256 
L 378.194737 90.777193 
L 389.641842 100.684752 
L 401.088947 109.934307 
L 412.536053 118.280323 
L 423.983158 125.595435 
L 435.430263 131.112755 
L 446.877368 138.072855 
L 458.324474 142.46498 
L 469.771579 146.595065 
L 481.218684 150.914851 
L 492.665789 153.932823 
L 504.112895 157.054137 
L 515.56 159.617108 
L 515.56 148.446969 
L 515.56 148.446969 
L 504.112895 144.630333 
L 492.665789 140.724262 
L 481.218684 136.981044 
L 469.771579 132.246468 
L 458.324474 127.782699 
L 446.877368 122.32561 
L 435.430263 116.584744 
L 423.983158 110.089555 
L 412.536053 103.329438 
L 401.088947 95.802056 
L 389.641842 88.262545 
L 378.194737 79.583595 
L 366.747632 70.874608 
L 355.300526 62.231414 
L 343.853421 53.745804 
L 332.406316 45.902387 
L 320.959211 39.656044 
L 309.512105 35.102031 
L 298.065 33.569212 
z
" clip-path="url(#p3ca5ffbbc6)" style="fill: #ff7f0e; fill-opacity: 0.4"/>
   </g>
   <g id="PolyCollection_11">
    <path d="M 298.065 33.569091 
L 298.065 33.569091 
L 309.512105 35.93814 
L 320.959211 42.025314 
L 332.406316 50.37355 
L 343.853421 59.367971 
L 355.300526 70.536445 
L 366.747632 80.237711 
L 378.194737 90.656991 
L 389.641842 100.521396 
L 401.088947 109.602354 
L 412.536053 117.758166 
L 423.983158 124.951239 
L 435.430263 130.338212 
L 446.877368 137.187969 
L 458.324474 141.454005 
L 469.771579 145.603633 
L 481.218684 149.79995 
L 492.665789 152.990419 
L 504.112895 156.26104 
L 515.56 159.231602 
L 515.56 146.579094 
L 515.56 146.579094 
L 504.112895 143.154293 
L 492.665789 139.223985 
L 481.218684 135.64248 
L 469.771579 130.939187 
L 458.324474 126.711374 
L 446.877368 121.398657 
L 435.430263 115.81532 
L 423.983158 109.400866 
L 412.536053 102.819123 
L 401.088947 95.377532 
L 389.641842 87.91534 
L 378.194737 79.275455 
L 366.747632 70.607582 
L 355.300526 62.02005 
L 343.853421 53.618055 
L 332.406316 45.815284 
L 320.959211 39.599821 
L 309.512105 35.092956 
L 298.065 33.569091 
z
" clip-path="url(#p3ca5ffbbc6)" style="fill: #2ca02c; fill-opacity: 0.4"/>
   </g>
   <g id="PolyCollection_12">
    <path d="M 298.065 33.569707 
L 298.065 33.570059 
L 309.512105 35.939533 
L 320.959211 42.064701 
L 332.406316 50.421466 
L 343.853421 59.414671 
L 355.300526 70.596117 
L 366.747632 80.287014 
L 378.194737 90.70723 
L 389.641842 100.569002 
L 401.088947 109.689273 
L 412.536053 117.904154 
L 423.983158 125.041826 
L 435.430263 130.474633 
L 446.877368 137.361154 
L 458.324474 141.629662 
L 469.771579 145.878866 
L 481.218684 150.125858 
L 492.665789 153.281404 
L 504.112895 156.520088 
L 515.56 159.47991 
L 515.56 147.689399 
L 515.56 147.689399 
L 504.112895 144.186529 
L 492.665789 140.011753 
L 481.218684 136.332915 
L 469.771579 131.505874 
L 458.324474 127.160154 
L 446.877368 121.734961 
L 435.430263 116.046628 
L 423.983158 109.578624 
L 412.536053 102.955015 
L 401.088947 95.491232 
L 389.641842 87.974984 
L 378.194737 79.331613 
L 366.747632 70.650936 
L 355.300526 62.052272 
L 343.853421 53.653243 
L 332.406316 45.832269 
L 320.959211 39.610308 
L 309.512105 35.098918 
L 298.065 33.569707 
z
" clip-path="url(#p3ca5ffbbc6)" style="fill: #d62728; fill-opacity: 0.4"/>
   </g>
   <g id="PolyCollection_13">
    <path d="M 298.065 33.569091 
L 298.065 33.569092 
L 309.512105 35.939535 
L 320.959211 42.041972 
L 332.406316 50.440945 
L 343.853421 59.307035 
L 355.300526 70.643499 
L 366.747632 80.201536 
L 378.194737 90.828252 
L 389.641842 100.577415 
L 401.088947 109.550206 
L 412.536053 118.049836 
L 423.983158 125.561466 
L 435.430263 131.519495 
L 446.877368 137.916884 
L 458.324474 141.924778 
L 469.771579 146.109188 
L 481.218684 149.51456 
L 492.665789 153.490021 
L 504.112895 157.012584 
L 515.56 159.412247 
L 515.56 148.621087 
L 515.56 148.621087 
L 504.112895 144.952185 
L 492.665789 141.634284 
L 481.218684 136.946907 
L 469.771579 131.347537 
L 458.324474 127.682951 
L 446.877368 121.928047 
L 435.430263 117.148322 
L 423.983158 110.172772 
L 412.536053 103.571267 
L 401.088947 95.421657 
L 389.641842 88.33427 
L 378.194737 79.535224 
L 366.747632 70.900869 
L 355.300526 62.210077 
L 343.853421 53.764564 
L 332.406316 45.928826 
L 320.959211 39.662881 
L 309.512105 35.102304 
L 298.065 33.569091 
z
" clip-path="url(#p3ca5ffbbc6)" style="fill: #9467bd; fill-opacity: 0.4"/>
   </g>
   <g id="PolyCollection_14">
    <path d="M 298.065 33.569584 
L 298.065 33.569804 
L 309.512105 35.941624 
L 320.959211 42.066633 
L 332.406316 50.498249 
L 343.853421 59.405637 
L 355.300526 70.770877 
L 366.747632 80.343493 
L 378.194737 90.949547 
L 389.641842 100.727319 
L 401.088947 109.748993 
L 412.536053 118.336739 
L 423.983158 125.797097 
L 435.430263 131.846441 
L 446.877368 138.243386 
L 458.324474 142.313721 
L 469.771579 146.569372 
L 481.218684 150.118195 
L 492.665789 154.025868 
L 504.112895 157.431462 
L 515.56 159.870622 
L 515.56 149.107864 
L 515.56 149.107864 
L 504.112895 145.438243 
L 492.665789 142.005714 
L 481.218684 137.299173 
L 469.771579 131.787085 
L 458.324474 128.028682 
L 446.877368 122.219659 
L 435.430263 117.363875 
L 423.983158 110.440845 
L 412.536053 103.822194 
L 401.088947 95.646416 
L 389.641842 88.503602 
L 378.194737 79.648262 
L 366.747632 70.99236 
L 355.300526 62.249514 
L 343.853421 53.788946 
L 332.406316 45.941006 
L 320.959211 39.680562 
L 309.512105 35.108309 
L 298.065 33.569584 
z
" clip-path="url(#p3ca5ffbbc6)" style="fill: #8c564b; fill-opacity: 0.4"/>
   </g>
   <g id="PolyCollection_15">
    <path d="M 298.065 43.434289 
L 298.065 45.520738 
L 309.512105 47.438398 
L 320.959211 52.857052 
L 332.406316 60.648352 
L 343.853421 68.888928 
L 355.300526 78.955113 
L 366.747632 87.633947 
L 378.194737 97.208273 
L 389.641842 106.010112 
L 401.088947 114.429446 
L 412.536053 121.665271 
L 423.983158 128.40153 
L 435.430263 133.31716 
L 446.877368 139.799423 
L 458.324474 143.830936 
L 469.771579 147.993541 
L 481.218684 151.917033 
L 492.665789 155.337634 
L 504.112895 158.585561 
L 515.56 161.396058 
L 515.56 149.417943 
L 515.56 149.417943 
L 504.112895 146.18992 
L 492.665789 142.647022 
L 481.218684 139.25583 
L 469.771579 135.169644 
L 458.324474 130.957056 
L 446.877368 126.255108 
L 435.430263 120.869665 
L 423.983158 114.66979 
L 412.536053 108.240203 
L 401.088947 101.397113 
L 389.641842 94.670451 
L 378.194737 86.564591 
L 366.747632 78.515556 
L 355.300526 70.699503 
L 343.853421 62.746237 
L 332.406316 55.515276 
L 320.959211 49.691706 
L 309.512105 45.079786 
L 298.065 43.434289 
z
" clip-path="url(#p3ca5ffbbc6)" style="fill: #e377c2; fill-opacity: 0.4"/>
   </g>
   <g id="PolyCollection_16">
    <path d="M 298.065 33.56932 
L 298.065 33.569416 
L 309.512105 35.939369 
L 320.959211 42.047612 
L 332.406316 50.416413 
L 343.853421 59.408481 
L 355.300526 70.608365 
L 366.747632 80.367447 
L 378.194737 90.858753 
L 389.641842 100.838528 
L 401.088947 110.088711 
L 412.536053 118.533362 
L 423.983158 125.79181 
L 435.430263 131.306177 
L 446.877368 138.32556 
L 458.324474 142.635371 
L 469.771579 146.814795 
L 481.218684 151.034979 
L 492.665789 154.054129 
L 504.112895 157.114243 
L 515.56 159.85421 
L 515.56 147.694965 
L 515.56 147.694965 
L 504.112895 144.111221 
L 492.665789 140.168814 
L 481.218684 136.548417 
L 469.771579 131.928878 
L 458.324474 127.565924 
L 446.877368 122.17923 
L 435.430263 116.51864 
L 423.983158 110.049414 
L 412.536053 103.314236 
L 401.088947 95.831336 
L 389.641842 88.302565 
L 378.194737 79.620659 
L 366.747632 70.906131 
L 355.300526 62.22453 
L 343.853421 53.722697 
L 332.406316 45.899845 
L 320.959211 39.647617 
L 309.512105 35.106316 
L 298.065 33.56932 
z
" clip-path="url(#p3ca5ffbbc6)" style="fill: #7f7f7f; fill-opacity: 0.4"/>
   </g>
   <g id="matplotlib.axis_3">
    <g id="xtick_6">
     <g id="line2d_19">
      <g>
       <use xlink:href="#mabd7c40a1c" x="298.065" y="174.04" style="stroke: #000000; stroke-width: 0.8"/>
      </g>
     </g>
     <g id="text_14">
      <!-- 0.0 -->
      <g transform="translate(290.113437 188.638438)scale(0.1 -0.1)">
       <use xlink:href="#DejaVuSans-30"/>
       <use xlink:href="#DejaVuSans-2e" x="63.623047"/>
       <use xlink:href="#DejaVuSans-30" x="95.410156"/>
      </g>
     </g>
    </g>
    <g id="xtick_7">
     <g id="line2d_20">
      <g>
       <use xlink:href="#mabd7c40a1c" x="352.43875" y="174.04" style="stroke: #000000; stroke-width: 0.8"/>
      </g>
     </g>
     <g id="text_15">
      <!-- 0.5 -->
      <g transform="translate(344.487187 188.638438)scale(0.1 -0.1)">
       <use xlink:href="#DejaVuSans-30"/>
       <use xlink:href="#DejaVuSans-2e" x="63.623047"/>
       <use xlink:href="#DejaVuSans-35" x="95.410156"/>
      </g>
     </g>
    </g>
    <g id="xtick_8">
     <g id="line2d_21">
      <g>
       <use xlink:href="#mabd7c40a1c" x="406.8125" y="174.04" style="stroke: #000000; stroke-width: 0.8"/>
      </g>
     </g>
     <g id="text_16">
      <!-- 1.0 -->
      <g transform="translate(398.860937 188.638438)scale(0.1 -0.1)">
       <use xlink:href="#DejaVuSans-31"/>
       <use xlink:href="#DejaVuSans-2e" x="63.623047"/>
       <use xlink:href="#DejaVuSans-30" x="95.410156"/>
      </g>
     </g>
    </g>
    <g id="xtick_9">
     <g id="line2d_22">
      <g>
       <use xlink:href="#mabd7c40a1c" x="461.18625" y="174.04" style="stroke: #000000; stroke-width: 0.8"/>
      </g>
     </g>
     <g id="text_17">
      <!-- 1.5 -->
      <g transform="translate(453.234687 188.638438)scale(0.1 -0.1)">
       <use xlink:href="#DejaVuSans-31"/>
       <use xlink:href="#DejaVuSans-2e" x="63.623047"/>
       <use xlink:href="#DejaVuSans-35" x="95.410156"/>
      </g>
     </g>
    </g>
    <g id="xtick_10">
     <g id="line2d_23">
      <g>
       <use xlink:href="#mabd7c40a1c" x="515.56" y="174.04" style="stroke: #000000; stroke-width: 0.8"/>
      </g>
     </g>
     <g id="text_18">
      <!-- 2.0 -->
      <g transform="translate(507.608437 188.638438)scale(0.1 -0.1)">
       <use xlink:href="#DejaVuSans-32"/>
       <use xlink:href="#DejaVuSans-2e" x="63.623047"/>
       <use xlink:href="#DejaVuSans-30" x="95.410156"/>
      </g>
     </g>
    </g>
    <g id="text_19">
     <!-- Influence of surprisal (multiplication) -->
     <g transform="translate(314.665625 202.316563)scale(0.1 -0.1)">
      <use xlink:href="#DejaVuSans-49"/>
      <use xlink:href="#DejaVuSans-6e" x="29.492188"/>
      <use xlink:href="#DejaVuSans-66" x="92.871094"/>
      <use xlink:href="#DejaVuSans-6c" x="128.076172"/>
      <use xlink:href="#DejaVuSans-75" x="155.859375"/>
      <use xlink:href="#DejaVuSans-65" x="219.238281"/>
      <use xlink:href="#DejaVuSans-6e" x="280.761719"/>
      <use xlink:href="#DejaVuSans-63" x="344.140625"/>
      <use xlink:href="#DejaVuSans-65" x="399.121094"/>
      <use xlink:href="#DejaVuSans-20" x="460.644531"/>
      <use xlink:href="#DejaVuSans-6f" x="492.431641"/>
      <use xlink:href="#DejaVuSans-66" x="553.613281"/>
      <use xlink:href="#DejaVuSans-20" x="588.818359"/>
      <use xlink:href="#DejaVuSans-73" x="620.605469"/>
      <use xlink:href="#DejaVuSans-75" x="672.705078"/>
      <use xlink:href="#DejaVuSans-72" x="736.083984"/>
      <use xlink:href="#DejaVuSans-70" x="777.197266"/>
      <use xlink:href="#DejaVuSans-72" x="840.673828"/>
      <use xlink:href="#DejaVuSans-69" x="881.787109"/>
      <use xlink:href="#DejaVuSans-73" x="909.570312"/>
      <use xlink:href="#DejaVuSans-61" x="961.669922"/>
      <use xlink:href="#DejaVuSans-6c" x="1022.949219"/>
      <use xlink:href="#DejaVuSans-20" x="1050.732422"/>
      <use xlink:href="#DejaVuSans-28" x="1082.519531"/>
      <use xlink:href="#DejaVuSans-6d" x="1121.533203"/>
      <use xlink:href="#DejaVuSans-75" x="1218.945312"/>
      <use xlink:href="#DejaVuSans-6c" x="1282.324219"/>
      <use xlink:href="#DejaVuSans-74" x="1310.107422"/>
      <use xlink:href="#DejaVuSans-69" x="1349.316406"/>
      <use xlink:href="#DejaVuSans-70" x="1377.099609"/>
      <use xlink:href="#DejaVuSans-6c" x="1440.576172"/>
      <use xlink:href="#DejaVuSans-69" x="1468.359375"/>
      <use xlink:href="#DejaVuSans-63" x="1496.142578"/>
      <use xlink:href="#DejaVuSans-61" x="1551.123047"/>
      <use xlink:href="#DejaVuSans-74" x="1612.402344"/>
      <use xlink:href="#DejaVuSans-69" x="1651.611328"/>
      <use xlink:href="#DejaVuSans-6f" x="1679.394531"/>
      <use xlink:href="#DejaVuSans-6e" x="1740.576172"/>
      <use xlink:href="#DejaVuSans-29" x="1803.955078"/>
     </g>
    </g>
   </g>
   <g id="line2d_24">
    <path d="M 298.065 33.569091 
L 309.512105 35.518042 
L 320.959211 40.828454 
L 332.406316 48.111427 
L 343.853421 56.500632 
L 355.300526 66.320555 
L 366.747632 75.472405 
L 378.194737 85.043987 
L 389.641842 94.312594 
L 401.088947 102.651976 
L 412.536053 110.526912 
L 423.983158 117.587289 
L 435.430263 123.578743 
L 446.877368 129.870135 
L 458.324474 134.783344 
L 469.771579 138.993444 
L 481.218684 143.461779 
L 492.665789 146.893043 
L 504.112895 150.369041 
L 515.56 153.540335 
" clip-path="url(#p3ca5ffbbc6)" style="fill: none; stroke: #1f77b4; stroke-width: 1.5; stroke-linecap: square"/>
   </g>
   <g id="line2d_25">
    <path d="M 298.065 33.56924 
L 309.512105 35.521357 
L 320.959211 40.849184 
L 332.406316 48.147102 
L 343.853421 56.556029 
L 355.300526 66.403826 
L 366.747632 75.590432 
L 378.194737 85.180394 
L 389.641842 94.473649 
L 401.088947 102.868181 
L 412.536053 110.80488 
L 423.983158 117.842495 
L 435.430263 123.848749 
L 446.877368 130.199233 
L 458.324474 135.12384 
L 469.771579 139.420766 
L 481.218684 143.947948 
L 492.665789 147.328543 
L 504.112895 150.842235 
L 515.56 154.032039 
" clip-path="url(#p3ca5ffbbc6)" style="fill: none; stroke: #ff7f0e; stroke-width: 1.5; stroke-linecap: square"/>
   </g>
   <g id="line2d_26">
    <path d="M 298.065 33.569091 
L 309.512105 35.515548 
L 320.959211 40.812567 
L 332.406316 48.094417 
L 343.853421 56.493013 
L 355.300526 66.278248 
L 366.747632 75.422647 
L 378.194737 84.966223 
L 389.641842 94.218368 
L 401.088947 102.489943 
L 412.536053 110.288644 
L 423.983158 117.176052 
L 435.430263 123.076766 
L 446.877368 129.293313 
L 458.324474 134.082689 
L 469.771579 138.27141 
L 481.218684 142.721215 
L 492.665789 146.107202 
L 504.112895 149.707667 
L 515.56 152.905348 
" clip-path="url(#p3ca5ffbbc6)" style="fill: none; stroke: #2ca02c; stroke-width: 1.5; stroke-linecap: square"/>
   </g>
   <g id="line2d_27">
    <path d="M 298.065 33.569883 
L 309.512105 35.519226 
L 320.959211 40.837504 
L 332.406316 48.126867 
L 343.853421 56.533957 
L 355.300526 66.324195 
L 366.747632 75.468975 
L 378.194737 85.019422 
L 389.641842 94.271993 
L 401.088947 102.590252 
L 412.536053 110.429585 
L 423.983158 117.310225 
L 435.430263 123.26063 
L 446.877368 129.548058 
L 458.324474 134.394908 
L 469.771579 138.69237 
L 481.218684 143.229386 
L 492.665789 146.646579 
L 504.112895 150.353309 
L 515.56 153.584655 
" clip-path="url(#p3ca5ffbbc6)" style="fill: none; stroke: #d62728; stroke-width: 1.5; stroke-linecap: square"/>
   </g>
   <g id="line2d_28">
    <path d="M 298.065 33.569091 
L 309.512105 35.520919 
L 320.959211 40.852426 
L 332.406316 48.184885 
L 343.853421 56.5358 
L 355.300526 66.426788 
L 366.747632 75.551202 
L 378.194737 85.181738 
L 389.641842 94.455842 
L 401.088947 102.485931 
L 412.536053 110.810551 
L 423.983158 117.867119 
L 435.430263 124.333909 
L 446.877368 129.922465 
L 458.324474 134.803864 
L 469.771579 138.728363 
L 481.218684 143.230733 
L 492.665789 147.562153 
L 504.112895 150.982385 
L 515.56 154.016667 
" clip-path="url(#p3ca5ffbbc6)" style="fill: none; stroke: #9467bd; stroke-width: 1.5; stroke-linecap: square"/>
   </g>
   <g id="line2d_29">
    <path d="M 298.065 33.569694 
L 309.512105 35.524966 
L 320.959211 40.873598 
L 332.406316 48.219628 
L 343.853421 56.597291 
L 355.300526 66.510195 
L 366.747632 75.667927 
L 378.194737 85.298904 
L 389.641842 94.615461 
L 401.088947 102.697705 
L 412.536053 111.079466 
L 423.983158 118.118971 
L 435.430263 124.605158 
L 446.877368 130.231522 
L 458.324474 135.171202 
L 469.771579 139.178228 
L 481.218684 143.708684 
L 492.665789 148.015791 
L 504.112895 151.434852 
L 515.56 154.489243 
" clip-path="url(#p3ca5ffbbc6)" style="fill: none; stroke: #8c564b; stroke-width: 1.5; stroke-linecap: square"/>
   </g>
   <g id="line2d_30">
    <path d="M 298.065 44.477514 
L 309.512105 46.259092 
L 320.959211 51.274379 
L 332.406316 58.081814 
L 343.853421 65.817582 
L 355.300526 74.827308 
L 366.747632 83.074752 
L 378.194737 91.886432 
L 389.641842 100.340282 
L 401.088947 107.913279 
L 412.536053 114.952737 
L 423.983158 121.53566 
L 435.430263 127.093412 
L 446.877368 133.027266 
L 458.324474 137.393996 
L 469.771579 141.581593 
L 481.218684 145.586431 
L 492.665789 148.992328 
L 504.112895 152.38774 
L 515.56 155.407001 
" clip-path="url(#p3ca5ffbbc6)" style="fill: none; stroke: #e377c2; stroke-width: 1.5; stroke-linecap: square"/>
   </g>
   <g id="line2d_31">
    <path d="M 298.065 33.569368 
L 309.512105 35.522843 
L 320.959211 40.847614 
L 332.406316 48.158129 
L 343.853421 56.565589 
L 355.300526 66.416447 
L 366.747632 75.636789 
L 378.194737 85.239706 
L 389.641842 94.570547 
L 401.088947 102.960024 
L 412.536053 110.923799 
L 423.983158 117.920612 
L 435.430263 123.912409 
L 446.877368 130.252395 
L 458.324474 135.100648 
L 469.771579 139.371836 
L 481.218684 143.791698 
L 492.665789 147.111471 
L 504.112895 150.612732 
L 515.56 153.774587 
" clip-path="url(#p3ca5ffbbc6)" style="fill: none; stroke: #7f7f7f; stroke-width: 1.5; stroke-linecap: square"/>
   </g>
   <g id="patch_6">
    <path d="M 298.065 174.04 
L 298.065 26.88 
" style="fill: none; stroke: #000000; stroke-width: 0.8; stroke-linejoin: miter; stroke-linecap: square"/>
   </g>
   <g id="patch_7">
    <path d="M 298.065 174.04 
L 515.56 174.04 
" style="fill: none; stroke: #000000; stroke-width: 0.8; stroke-linejoin: miter; stroke-linecap: square"/>
   </g>
   <g id="text_20">
    <!-- Node * third variable -->
    <g transform="translate(344.2325 20.88)scale(0.12 -0.12)">
     <defs>
      <path id="DejaVuSans-68" d="M 3513 2113 
L 3513 0 
L 2938 0 
L 2938 2094 
Q 2938 2591 2744 2837 
Q 2550 3084 2163 3084 
Q 1697 3084 1428 2787 
Q 1159 2491 1159 1978 
L 1159 0 
L 581 0 
L 581 4863 
L 1159 4863 
L 1159 2956 
Q 1366 3272 1645 3428 
Q 1925 3584 2291 3584 
Q 2894 3584 3203 3211 
Q 3513 2838 3513 2113 
z
" transform="scale(0.015625)"/>
      <path id="DejaVuSans-62" d="M 3116 1747 
Q 3116 2381 2855 2742 
Q 2594 3103 2138 3103 
Q 1681 3103 1420 2742 
Q 1159 2381 1159 1747 
Q 1159 1113 1420 752 
Q 1681 391 2138 391 
Q 2594 391 2855 752 
Q 3116 1113 3116 1747 
z
M 1159 2969 
Q 1341 3281 1617 3432 
Q 1894 3584 2278 3584 
Q 2916 3584 3314 3078 
Q 3713 2572 3713 1747 
Q 3713 922 3314 415 
Q 2916 -91 2278 -91 
Q 1894 -91 1617 61 
Q 1341 213 1159 525 
L 1159 0 
L 581 0 
L 581 4863 
L 1159 4863 
L 1159 2969 
z
" transform="scale(0.015625)"/>
     </defs>
     <use xlink:href="#DejaVuSans-4e"/>
     <use xlink:href="#DejaVuSans-6f" x="74.804688"/>
     <use xlink:href="#DejaVuSans-64" x="135.986328"/>
     <use xlink:href="#DejaVuSans-65" x="199.462891"/>
     <use xlink:href="#DejaVuSans-20" x="260.986328"/>
     <use xlink:href="#DejaVuSans-2a" x="292.773438"/>
     <use xlink:href="#DejaVuSans-20" x="342.773438"/>
     <use xlink:href="#DejaVuSans-74" x="374.560547"/>
     <use xlink:href="#DejaVuSans-68" x="413.769531"/>
     <use xlink:href="#DejaVuSans-69" x="477.148438"/>
     <use xlink:href="#DejaVuSans-72" x="504.931641"/>
     <use xlink:href="#DejaVuSans-64" x="544.294922"/>
     <use xlink:href="#DejaVuSans-20" x="607.771484"/>
     <use xlink:href="#DejaVuSans-76" x="639.558594"/>
     <use xlink:href="#DejaVuSans-61" x="698.738281"/>
     <use xlink:href="#DejaVuSans-72" x="760.017578"/>
     <use xlink:href="#DejaVuSans-69" x="801.130859"/>
     <use xlink:href="#DejaVuSans-61" x="828.914062"/>
     <use xlink:href="#DejaVuSans-62" x="890.193359"/>
     <use xlink:href="#DejaVuSans-6c" x="953.669922"/>
     <use xlink:href="#DejaVuSans-65" x="981.453125"/>
    </g>
   </g>
   <g id="legend_1">
    <g id="line2d_32">
     <path d="M 524.56 39.978437 
L 534.56 39.978437 
L 544.56 39.978437 
" style="fill: none; stroke: #1f77b4; stroke-width: 1.5; stroke-linecap: square"/>
    </g>
    <g id="text_21">
     <!-- Node -->
     <g transform="translate(552.56 43.478437)scale(0.1 -0.1)">
      <use xlink:href="#DejaVuSans-4e"/>
      <use xlink:href="#DejaVuSans-6f" x="74.804688"/>
      <use xlink:href="#DejaVuSans-64" x="135.986328"/>
      <use xlink:href="#DejaVuSans-65" x="199.462891"/>
     </g>
    </g>
    <g id="line2d_33">
     <path d="M 524.56 54.656563 
L 534.56 54.656563 
L 544.56 54.656563 
" style="fill: none; stroke: #ff7f0e; stroke-width: 1.5; stroke-linecap: square"/>
    </g>
    <g id="text_22">
     <!-- Node + surprisal -->
     <g transform="translate(552.56 58.156563)scale(0.1 -0.1)">
      <defs>
       <path id="DejaVuSans-2b" d="M 2944 4013 
L 2944 2272 
L 4684 2272 
L 4684 1741 
L 2944 1741 
L 2944 0 
L 2419 0 
L 2419 1741 
L 678 1741 
L 678 2272 
L 2419 2272 
L 2419 4013 
L 2944 4013 
z
" transform="scale(0.015625)"/>
      </defs>
      <use xlink:href="#DejaVuSans-4e"/>
      <use xlink:href="#DejaVuSans-6f" x="74.804688"/>
      <use xlink:href="#DejaVuSans-64" x="135.986328"/>
      <use xlink:href="#DejaVuSans-65" x="199.462891"/>
      <use xlink:href="#DejaVuSans-20" x="260.986328"/>
      <use xlink:href="#DejaVuSans-2b" x="292.773438"/>
      <use xlink:href="#DejaVuSans-20" x="376.5625"/>
      <use xlink:href="#DejaVuSans-73" x="408.349609"/>
      <use xlink:href="#DejaVuSans-75" x="460.449219"/>
      <use xlink:href="#DejaVuSans-72" x="523.828125"/>
      <use xlink:href="#DejaVuSans-70" x="564.941406"/>
      <use xlink:href="#DejaVuSans-72" x="628.417969"/>
      <use xlink:href="#DejaVuSans-69" x="669.53125"/>
      <use xlink:href="#DejaVuSans-73" x="697.314453"/>
      <use xlink:href="#DejaVuSans-61" x="749.414062"/>
      <use xlink:href="#DejaVuSans-6c" x="810.693359"/>
     </g>
    </g>
    <g id="line2d_34">
     <path d="M 524.56 69.334687 
L 534.56 69.334687 
L 544.56 69.334687 
" style="fill: none; stroke: #2ca02c; stroke-width: 1.5; stroke-linecap: square"/>
    </g>
    <g id="text_23">
     <!-- Node split -->
     <g transform="translate(552.56 72.834687)scale(0.1 -0.1)">
      <use xlink:href="#DejaVuSans-4e"/>
      <use xlink:href="#DejaVuSans-6f" x="74.804688"/>
      <use xlink:href="#DejaVuSans-64" x="135.986328"/>
      <use xlink:href="#DejaVuSans-65" x="199.462891"/>
      <use xlink:href="#DejaVuSans-20" x="260.986328"/>
      <use xlink:href="#DejaVuSans-73" x="292.773438"/>
      <use xlink:href="#DejaVuSans-70" x="344.873047"/>
      <use xlink:href="#DejaVuSans-6c" x="408.349609"/>
      <use xlink:href="#DejaVuSans-69" x="436.132812"/>
      <use xlink:href="#DejaVuSans-74" x="463.916016"/>
     </g>
    </g>
    <g id="line2d_35">
     <path d="M 524.56 84.012812 
L 534.56 84.012812 
L 544.56 84.012812 
" style="fill: none; stroke: #d62728; stroke-width: 1.5; stroke-linecap: square"/>
    </g>
    <g id="text_24">
     <!-- Node split + surprisal -->
     <g transform="translate(552.56 87.512812)scale(0.1 -0.1)">
      <use xlink:href="#DejaVuSans-4e"/>
      <use xlink:href="#DejaVuSans-6f" x="74.804688"/>
      <use xlink:href="#DejaVuSans-64" x="135.986328"/>
      <use xlink:href="#DejaVuSans-65" x="199.462891"/>
      <use xlink:href="#DejaVuSans-20" x="260.986328"/>
      <use xlink:href="#DejaVuSans-73" x="292.773438"/>
      <use xlink:href="#DejaVuSans-70" x="344.873047"/>
      <use xlink:href="#DejaVuSans-6c" x="408.349609"/>
      <use xlink:href="#DejaVuSans-69" x="436.132812"/>
      <use xlink:href="#DejaVuSans-74" x="463.916016"/>
      <use xlink:href="#DejaVuSans-20" x="503.125"/>
      <use xlink:href="#DejaVuSans-2b" x="534.912109"/>
      <use xlink:href="#DejaVuSans-20" x="618.701172"/>
      <use xlink:href="#DejaVuSans-73" x="650.488281"/>
      <use xlink:href="#DejaVuSans-75" x="702.587891"/>
      <use xlink:href="#DejaVuSans-72" x="765.966797"/>
      <use xlink:href="#DejaVuSans-70" x="807.080078"/>
      <use xlink:href="#DejaVuSans-72" x="870.556641"/>
      <use xlink:href="#DejaVuSans-69" x="911.669922"/>
      <use xlink:href="#DejaVuSans-73" x="939.453125"/>
      <use xlink:href="#DejaVuSans-61" x="991.552734"/>
      <use xlink:href="#DejaVuSans-6c" x="1052.832031"/>
     </g>
    </g>
    <g id="line2d_36">
     <path d="M 524.56 98.690937 
L 534.56 98.690937 
L 544.56 98.690937 
" style="fill: none; stroke: #9467bd; stroke-width: 1.5; stroke-linecap: square"/>
    </g>
    <g id="text_25">
     <!-- Node random split -->
     <g transform="translate(552.56 102.190937)scale(0.1 -0.1)">
      <use xlink:href="#DejaVuSans-4e"/>
      <use xlink:href="#DejaVuSans-6f" x="74.804688"/>
      <use xlink:href="#DejaVuSans-64" x="135.986328"/>
      <use xlink:href="#DejaVuSans-65" x="199.462891"/>
      <use xlink:href="#DejaVuSans-20" x="260.986328"/>
      <use xlink:href="#DejaVuSans-72" x="292.773438"/>
      <use xlink:href="#DejaVuSans-61" x="333.886719"/>
      <use xlink:href="#DejaVuSans-6e" x="395.166016"/>
      <use xlink:href="#DejaVuSans-64" x="458.544922"/>
      <use xlink:href="#DejaVuSans-6f" x="522.021484"/>
      <use xlink:href="#DejaVuSans-6d" x="583.203125"/>
      <use xlink:href="#DejaVuSans-20" x="680.615234"/>
      <use xlink:href="#DejaVuSans-73" x="712.402344"/>
      <use xlink:href="#DejaVuSans-70" x="764.501953"/>
      <use xlink:href="#DejaVuSans-6c" x="827.978516"/>
      <use xlink:href="#DejaVuSans-69" x="855.761719"/>
      <use xlink:href="#DejaVuSans-74" x="883.544922"/>
     </g>
    </g>
    <g id="line2d_37">
     <path d="M 524.56 113.369062 
L 534.56 113.369062 
L 544.56 113.369062 
" style="fill: none; stroke: #8c564b; stroke-width: 1.5; stroke-linecap: square"/>
    </g>
    <g id="text_26">
     <!-- Node random split + surprisal -->
     <g transform="translate(552.56 116.869062)scale(0.1 -0.1)">
      <use xlink:href="#DejaVuSans-4e"/>
      <use xlink:href="#DejaVuSans-6f" x="74.804688"/>
      <use xlink:href="#DejaVuSans-64" x="135.986328"/>
      <use xlink:href="#DejaVuSans-65" x="199.462891"/>
      <use xlink:href="#DejaVuSans-20" x="260.986328"/>
      <use xlink:href="#DejaVuSans-72" x="292.773438"/>
      <use xlink:href="#DejaVuSans-61" x="333.886719"/>
      <use xlink:href="#DejaVuSans-6e" x="395.166016"/>
      <use xlink:href="#DejaVuSans-64" x="458.544922"/>
      <use xlink:href="#DejaVuSans-6f" x="522.021484"/>
      <use xlink:href="#DejaVuSans-6d" x="583.203125"/>
      <use xlink:href="#DejaVuSans-20" x="680.615234"/>
      <use xlink:href="#DejaVuSans-73" x="712.402344"/>
      <use xlink:href="#DejaVuSans-70" x="764.501953"/>
      <use xlink:href="#DejaVuSans-6c" x="827.978516"/>
      <use xlink:href="#DejaVuSans-69" x="855.761719"/>
      <use xlink:href="#DejaVuSans-74" x="883.544922"/>
      <use xlink:href="#DejaVuSans-20" x="922.753906"/>
      <use xlink:href="#DejaVuSans-2b" x="954.541016"/>
      <use xlink:href="#DejaVuSans-20" x="1038.330078"/>
      <use xlink:href="#DejaVuSans-73" x="1070.117188"/>
      <use xlink:href="#DejaVuSans-75" x="1122.216797"/>
      <use xlink:href="#DejaVuSans-72" x="1185.595703"/>
      <use xlink:href="#DejaVuSans-70" x="1226.708984"/>
      <use xlink:href="#DejaVuSans-72" x="1290.185547"/>
      <use xlink:href="#DejaVuSans-69" x="1331.298828"/>
      <use xlink:href="#DejaVuSans-73" x="1359.082031"/>
      <use xlink:href="#DejaVuSans-61" x="1411.181641"/>
      <use xlink:href="#DejaVuSans-6c" x="1472.460938"/>
     </g>
    </g>
    <g id="line2d_38">
     <path d="M 524.56 128.047187 
L 534.56 128.047187 
L 544.56 128.047187 
" style="fill: none; stroke: #e377c2; stroke-width: 1.5; stroke-linecap: square"/>
    </g>
    <g id="text_27">
     <!-- Interaction -->
     <g transform="translate(552.56 131.547187)scale(0.1 -0.1)">
      <use xlink:href="#DejaVuSans-49"/>
      <use xlink:href="#DejaVuSans-6e" x="29.492188"/>
      <use xlink:href="#DejaVuSans-74" x="92.871094"/>
      <use xlink:href="#DejaVuSans-65" x="132.080078"/>
      <use xlink:href="#DejaVuSans-72" x="193.603516"/>
      <use xlink:href="#DejaVuSans-61" x="234.716797"/>
      <use xlink:href="#DejaVuSans-63" x="295.996094"/>
      <use xlink:href="#DejaVuSans-74" x="350.976562"/>
      <use xlink:href="#DejaVuSans-69" x="390.185547"/>
      <use xlink:href="#DejaVuSans-6f" x="417.96875"/>
      <use xlink:href="#DejaVuSans-6e" x="479.150391"/>
     </g>
    </g>
    <g id="line2d_39">
     <path d="M 524.56 142.725312 
L 534.56 142.725312 
L 544.56 142.725312 
" style="fill: none; stroke: #7f7f7f; stroke-width: 1.5; stroke-linecap: square"/>
    </g>
    <g id="text_28">
     <!-- Node + surprisal + interaction -->
     <g transform="translate(552.56 146.225312)scale(0.1 -0.1)">
      <use xlink:href="#DejaVuSans-4e"/>
      <use xlink:href="#DejaVuSans-6f" x="74.804688"/>
      <use xlink:href="#DejaVuSans-64" x="135.986328"/>
      <use xlink:href="#DejaVuSans-65" x="199.462891"/>
      <use xlink:href="#DejaVuSans-20" x="260.986328"/>
      <use xlink:href="#DejaVuSans-2b" x="292.773438"/>
      <use xlink:href="#DejaVuSans-20" x="376.5625"/>
      <use xlink:href="#DejaVuSans-73" x="408.349609"/>
      <use xlink:href="#DejaVuSans-75" x="460.449219"/>
      <use xlink:href="#DejaVuSans-72" x="523.828125"/>
      <use xlink:href="#DejaVuSans-70" x="564.941406"/>
      <use xlink:href="#DejaVuSans-72" x="628.417969"/>
      <use xlink:href="#DejaVuSans-69" x="669.53125"/>
      <use xlink:href="#DejaVuSans-73" x="697.314453"/>
      <use xlink:href="#DejaVuSans-61" x="749.414062"/>
      <use xlink:href="#DejaVuSans-6c" x="810.693359"/>
      <use xlink:href="#DejaVuSans-20" x="838.476562"/>
      <use xlink:href="#DejaVuSans-2b" x="870.263672"/>
      <use xlink:href="#DejaVuSans-20" x="954.052734"/>
      <use xlink:href="#DejaVuSans-69" x="985.839844"/>
      <use xlink:href="#DejaVuSans-6e" x="1013.623047"/>
      <use xlink:href="#DejaVuSans-74" x="1077.001953"/>
      <use xlink:href="#DejaVuSans-65" x="1116.210938"/>
      <use xlink:href="#DejaVuSans-72" x="1177.734375"/>
      <use xlink:href="#DejaVuSans-61" x="1218.847656"/>
      <use xlink:href="#DejaVuSans-63" x="1280.126953"/>
      <use xlink:href="#DejaVuSans-74" x="1335.107422"/>
      <use xlink:href="#DejaVuSans-69" x="1374.316406"/>
      <use xlink:href="#DejaVuSans-6f" x="1402.099609"/>
      <use xlink:href="#DejaVuSans-6e" x="1463.28125"/>
     </g>
    </g>
   </g>
  </g>
 </g>
 <defs>
  <clipPath id="pc09bbeda60">
   <rect x="47.72" y="26.88" width="217.495" height="147.16"/>
  </clipPath>
  <clipPath id="p3ca5ffbbc6">
   <rect x="298.065" y="26.88" width="217.495" height="147.16"/>
  </clipPath>
 </defs>
</svg>
