<?xml version="1.0" encoding="utf-8" standalone="no"?>
<!DOCTYPE svg PUBLIC "-//W3C//DTD SVG 1.1//EN"
  "http://www.w3.org/Graphics/SVG/1.1/DTD/svg11.dtd">
<svg xmlns:xlink="http://www.w3.org/1999/xlink" width="720pt" height="216pt" viewBox="0 0 720 216" xmlns="http://www.w3.org/2000/svg" version="1.1">
 <metadata>
  <rdf:RDF xmlns:dc="http://purl.org/dc/elements/1.1/" xmlns:cc="http://creativecommons.org/ns#" xmlns:rdf="http://www.w3.org/1999/02/22-rdf-syntax-ns#">
   <cc:Work>
    <dc:type rdf:resource="http://purl.org/dc/dcmitype/StillImage"/>
    <dc:date>2024-01-15T19:30:40.613420</dc:date>
    <dc:format>image/svg+xml</dc:format>
    <dc:creator>
     <cc:Agent>
      <dc:title>Matplotlib v3.5.1, https://matplotlib.org/</dc:title>
     </cc:Agent>
    </dc:creator>
   </cc:Work>
  </rdf:RDF>
 </metadata>
 <defs>
  <style type="text/css">*{stroke-linejoin: round; stroke-linecap: butt}</style>
 </defs>
 <g id="figure_1">
  <g id="patch_1">
   <path d="M 0 216 
L 720 216 
L 720 0 
L 0 0 
z
" style="fill: #ffffff"/>
  </g>
  <g id="axes_1">
   <g id="patch_2">
    <path d="M 47.72 174.04 
L 265.215 174.04 
L 265.215 26.88 
L 47.72 26.88 
z
" style="fill: #ffffff"/>
   </g>
   <g id="PolyCollection_1">
    <path d="M 47.72 33.569091 
L 47.72 33.569091 
L 59.167105 35.913853 
L 70.614211 41.971853 
L 82.061316 49.945684 
L 93.508421 59.745345 
L 104.955526 69.760401 
L 116.402632 79.399713 
L 127.849737 88.709206 
L 139.296842 98.664683 
L 150.743947 107.105041 
L 162.191053 115.391785 
L 173.638158 123.647311 
L 185.085263 129.778345 
L 196.532368 136.193773 
L 207.979474 141.732715 
L 219.426579 145.407688 
L 230.873684 149.112141 
L 242.320789 152.161175 
L 253.767895 154.548415 
L 265.215 156.361413 
L 265.215 143.645314 
L 265.215 143.645314 
L 253.767895 140.612899 
L 242.320789 136.958469 
L 230.873684 133.318404 
L 219.426579 129.379547 
L 207.979474 125.196794 
L 196.532368 120.798861 
L 185.085263 114.353661 
L 173.638158 108.519224 
L 162.191053 102.416063 
L 150.743947 94.958198 
L 139.296842 87.641088 
L 127.849737 79.66223 
L 116.402632 71.583135 
L 104.955526 62.593723 
L 93.508421 53.668563 
L 82.061316 46.035145 
L 70.614211 39.596636 
L 59.167105 35.128548 
L 47.72 33.569091 
z
" clip-path="url(#p8a4c76f353)" style="fill: #1f77b4; fill-opacity: 0.4"/>
   </g>
   <g id="PolyCollection_2">
    <path d="M 47.72 33.569204 
L 47.72 33.569248 
L 59.167105 35.120974 
L 70.614211 38.431165 
L 82.061316 43.650695 
L 93.508421 50.846226 
L 104.955526 58.91904 
L 116.402632 67.491725 
L 127.849737 75.922043 
L 139.296842 85.019217 
L 150.743947 93.143026 
L 162.191053 100.924909 
L 173.638158 109.053707 
L 185.085263 115.656726 
L 196.532368 121.961771 
L 207.979474 128.616115 
L 219.426579 133.1446 
L 230.873684 138.065745 
L 242.320789 141.611572 
L 253.767895 144.800376 
L 265.215 147.120471 
L 265.215 135.08228 
L 265.215 135.08228 
L 253.767895 131.267351 
L 242.320789 126.992152 
L 230.873684 122.421713 
L 219.426579 118.305308 
L 207.979474 113.038069 
L 196.532368 108.268141 
L 185.085263 101.406191 
L 173.638158 95.611862 
L 162.191053 89.285879 
L 150.743947 81.833887 
L 139.296842 74.780912 
L 127.849737 67.162714 
L 116.402632 59.959154 
L 104.955526 52.550488 
L 93.508421 46.018605 
L 82.061316 40.926016 
L 70.614211 37.17431 
L 59.167105 34.632072 
L 47.72 33.569204 
z
" clip-path="url(#p8a4c76f353)" style="fill: #ff7f0e; fill-opacity: 0.4"/>
   </g>
   <g id="PolyCollection_3">
    <path d="M 47.72 33.569091 
L 47.72 33.569091 
L 59.167105 35.345696 
L 70.614211 38.534607 
L 82.061316 42.371663 
L 93.508421 47.041669 
L 104.955526 51.881673 
L 116.402632 56.243484 
L 127.849737 60.853585 
L 139.296842 65.690612 
L 150.743947 70.094847 
L 162.191053 74.15405 
L 173.638158 78.785499 
L 185.085263 82.86031 
L 196.532368 87.007114 
L 207.979474 92.232606 
L 219.426579 96.717393 
L 230.873684 101.418793 
L 242.320789 105.39744 
L 253.767895 108.851852 
L 265.215 112.815282 
L 265.215 103.569552 
L 265.215 103.569552 
L 253.767895 100.210313 
L 242.320789 96.48885 
L 230.873684 92.283205 
L 219.426579 88.987188 
L 207.979474 84.111886 
L 196.532368 80.42817 
L 185.085263 76.291414 
L 173.638158 71.955076 
L 162.191053 68.260866 
L 150.743947 63.180627 
L 139.296842 59.356023 
L 127.849737 54.726914 
L 116.402632 50.535499 
L 104.955526 46.204691 
L 93.508421 42.499402 
L 82.061316 39.238973 
L 70.614211 36.689708 
L 59.167105 34.768098 
L 47.72 33.569091 
z
" clip-path="url(#p8a4c76f353)" style="fill: #2ca02c; fill-opacity: 0.4"/>
   </g>
   <g id="PolyCollection_4">
    <path d="M 47.72 33.569665 
L 47.72 33.570015 
L 59.167105 35.004649 
L 70.614211 37.327586 
L 82.061316 40.567878 
L 93.508421 44.790229 
L 104.955526 49.446234 
L 116.402632 53.938941 
L 127.849737 58.617081 
L 139.296842 63.628535 
L 150.743947 68.266953 
L 162.191053 72.444538 
L 173.638158 77.35037 
L 185.085263 81.413039 
L 196.532368 85.521876 
L 207.979474 90.701778 
L 219.426579 95.231783 
L 230.873684 99.640558 
L 242.320789 103.538183 
L 253.767895 106.833155 
L 265.215 110.784588 
L 265.215 102.063943 
L 265.215 102.063943 
L 253.767895 99.002151 
L 242.320789 95.580109 
L 230.873684 91.604457 
L 219.426579 88.482532 
L 207.979474 83.885969 
L 196.532368 80.291564 
L 185.085263 76.038061 
L 173.638158 71.599637 
L 162.191053 67.810242 
L 150.743947 62.56809 
L 139.296842 58.472297 
L 127.849737 53.494294 
L 116.402632 49.187725 
L 104.955526 44.754731 
L 93.508421 41.21737 
L 82.061316 38.261213 
L 70.614211 36.167247 
L 59.167105 34.57687 
L 47.72 33.569665 
z
" clip-path="url(#p8a4c76f353)" style="fill: #d62728; fill-opacity: 0.4"/>
   </g>
   <g id="PolyCollection_5">
    <path d="M 47.72 33.569091 
L 47.72 33.569091 
L 59.167105 35.907866 
L 70.614211 42.012266 
L 82.061316 50.01287 
L 93.508421 59.765309 
L 104.955526 69.831434 
L 116.402632 79.421115 
L 127.849737 88.870963 
L 139.296842 99.66173 
L 150.743947 107.180366 
L 162.191053 115.220279 
L 173.638158 123.858301 
L 185.085263 130.085496 
L 196.532368 136.790597 
L 207.979474 142.194452 
L 219.426579 145.843376 
L 230.873684 149.271557 
L 242.320789 152.46456 
L 253.767895 153.990434 
L 265.215 157.013678 
L 265.215 144.549021 
L 265.215 144.549021 
L 253.767895 141.434089 
L 242.320789 137.382669 
L 230.873684 133.582688 
L 219.426579 130.411518 
L 207.979474 124.972543 
L 196.532368 121.008498 
L 185.085263 114.172398 
L 173.638158 108.746518 
L 162.191053 102.825692 
L 150.743947 94.899771 
L 139.296842 87.799425 
L 127.849737 79.670348 
L 116.402632 71.730802 
L 104.955526 62.79954 
L 93.508421 53.766095 
L 82.061316 46.02503 
L 70.614211 39.611188 
L 59.167105 35.133702 
L 47.72 33.569091 
z
" clip-path="url(#p8a4c76f353)" style="fill: #9467bd; fill-opacity: 0.4"/>
   </g>
   <g id="PolyCollection_6">
    <path d="M 47.72 33.569543 
L 47.72 33.569719 
L 59.167105 35.116336 
L 70.614211 38.450829 
L 82.061316 43.693272 
L 93.508421 50.893192 
L 104.955526 59.020324 
L 116.402632 67.525213 
L 127.849737 75.932684 
L 139.296842 85.669737 
L 150.743947 93.201942 
L 162.191053 100.69122 
L 173.638158 109.285814 
L 185.085263 116.045535 
L 196.532368 122.349035 
L 207.979474 128.954121 
L 219.426579 133.774217 
L 230.873684 138.219221 
L 242.320789 141.900728 
L 253.767895 144.438899 
L 265.215 147.981831 
L 265.215 135.615872 
L 265.215 135.615872 
L 253.767895 131.892971 
L 242.320789 127.307033 
L 230.873684 122.726476 
L 219.426579 118.932058 
L 207.979474 112.796707 
L 196.532368 108.68068 
L 185.085263 101.224954 
L 173.638158 95.867075 
L 162.191053 89.461393 
L 150.743947 81.617289 
L 139.296842 74.967816 
L 127.849737 67.203828 
L 116.402632 59.993731 
L 104.955526 52.672055 
L 93.508421 46.024761 
L 82.061316 40.918618 
L 70.614211 37.175371 
L 59.167105 34.631729 
L 47.72 33.569543 
z
" clip-path="url(#p8a4c76f353)" style="fill: #8c564b; fill-opacity: 0.4"/>
   </g>
   <g id="PolyCollection_7">
    <path d="M 47.72 43.839452 
L 47.72 46.514132 
L 59.167105 49.665646 
L 70.614211 57.500953 
L 82.061316 67.378812 
L 93.508421 78.959893 
L 104.955526 89.871679 
L 116.402632 99.33002 
L 127.849737 107.914505 
L 139.296842 116.343312 
L 150.743947 123.942018 
L 162.191053 131.297118 
L 173.638158 138.378856 
L 185.085263 144.076556 
L 196.532368 149.818455 
L 207.979474 154.912618 
L 219.426579 158.184775 
L 230.873684 161.340311 
L 242.320789 163.898356 
L 253.767895 165.756748 
L 265.215 167.350909 
L 265.215 154.413416 
L 265.215 154.413416 
L 253.767895 152.241146 
L 242.320789 149.604987 
L 230.873684 146.899008 
L 219.426579 143.903184 
L 207.979474 140.699687 
L 196.532368 136.718897 
L 185.085263 131.193286 
L 173.638158 125.654882 
L 162.191053 119.815977 
L 150.743947 112.533243 
L 139.296842 105.094006 
L 127.849737 96.700914 
L 116.402632 87.575774 
L 104.955526 77.09102 
L 93.508421 67.180575 
L 82.061316 57.92166 
L 70.614211 50.428383 
L 59.167105 45.735546 
L 47.72 43.839452 
z
" clip-path="url(#p8a4c76f353)" style="fill: #e377c2; fill-opacity: 0.4"/>
   </g>
   <g id="PolyCollection_8">
    <path d="M 47.72 33.569324 
L 47.72 33.569416 
L 59.167105 34.212857 
L 70.614211 35.141308 
L 82.061316 37.524611 
L 93.508421 42.452005 
L 104.955526 49.431099 
L 116.402632 57.360473 
L 127.849737 65.485882 
L 139.296842 74.317765 
L 150.743947 81.912372 
L 162.191053 89.281275 
L 173.638158 96.571829 
L 185.085263 103.235418 
L 196.532368 109.694175 
L 207.979474 116.546924 
L 219.426579 122.326015 
L 230.873684 128.183436 
L 242.320789 132.539844 
L 253.767895 136.933895 
L 265.215 140.622223 
L 265.215 129.40331 
L 265.215 129.40331 
L 253.767895 125.216687 
L 242.320789 120.584169 
L 230.873684 114.976172 
L 219.426579 110.547176 
L 207.979474 104.236017 
L 196.532368 98.313845 
L 185.085263 90.878944 
L 173.638158 83.952024 
L 162.191053 76.745331 
L 150.743947 68.371507 
L 139.296842 61.115367 
L 127.849737 53.641377 
L 116.402632 47.433952 
L 104.955526 41.723373 
L 93.508421 37.680943 
L 82.061316 35.506844 
L 70.614211 34.473248 
L 59.167105 34.079252 
L 47.72 33.569324 
z
" clip-path="url(#p8a4c76f353)" style="fill: #7f7f7f; fill-opacity: 0.4"/>
   </g>
   <g id="matplotlib.axis_1">
    <g id="xtick_1">
     <g id="line2d_1">
      <defs>
       <path id="m3f5b778da6" d="M 0 0 
L 0 3.5 
" style="stroke: #000000; stroke-width: 0.8"/>
      </defs>
      <g>
       <use xlink:href="#m3f5b778da6" x="47.72" y="174.04" style="stroke: #000000; stroke-width: 0.8"/>
      </g>
     </g>
     <g id="text_1">
      <!-- 0.0 -->
      <g transform="translate(39.768438 188.638438)scale(0.1 -0.1)">
       <defs>
        <path id="DejaVuSans-30" d="M 2034 4250 
Q 1547 4250 1301 3770 
Q 1056 3291 1056 2328 
Q 1056 1369 1301 889 
Q 1547 409 2034 409 
Q 2525 409 2770 889 
Q 3016 1369 3016 2328 
Q 3016 3291 2770 3770 
Q 2525 4250 2034 4250 
z
M 2034 4750 
Q 2819 4750 3233 4129 
Q 3647 3509 3647 2328 
Q 3647 1150 3233 529 
Q 2819 -91 2034 -91 
Q 1250 -91 836 529 
Q 422 1150 422 2328 
Q 422 3509 836 4129 
Q 1250 4750 2034 4750 
z
" transform="scale(0.015625)"/>
        <path id="DejaVuSans-2e" d="M 684 794 
L 1344 794 
L 1344 0 
L 684 0 
L 684 794 
z
" transform="scale(0.015625)"/>
       </defs>
       <use xlink:href="#DejaVuSans-30"/>
       <use xlink:href="#DejaVuSans-2e" x="63.623047"/>
       <use xlink:href="#DejaVuSans-30" x="95.410156"/>
      </g>
     </g>
    </g>
    <g id="xtick_2">
     <g id="line2d_2">
      <g>
       <use xlink:href="#m3f5b778da6" x="102.09375" y="174.04" style="stroke: #000000; stroke-width: 0.8"/>
      </g>
     </g>
     <g id="text_2">
      <!-- 0.5 -->
      <g transform="translate(94.142188 188.638438)scale(0.1 -0.1)">
       <defs>
        <path id="DejaVuSans-35" d="M 691 4666 
L 3169 4666 
L 3169 4134 
L 1269 4134 
L 1269 2991 
Q 1406 3038 1543 3061 
Q 1681 3084 1819 3084 
Q 2600 3084 3056 2656 
Q 3513 2228 3513 1497 
Q 3513 744 3044 326 
Q 2575 -91 1722 -91 
Q 1428 -91 1123 -41 
Q 819 9 494 109 
L 494 744 
Q 775 591 1075 516 
Q 1375 441 1709 441 
Q 2250 441 2565 725 
Q 2881 1009 2881 1497 
Q 2881 1984 2565 2268 
Q 2250 2553 1709 2553 
Q 1456 2553 1204 2497 
Q 953 2441 691 2322 
L 691 4666 
z
" transform="scale(0.015625)"/>
       </defs>
       <use xlink:href="#DejaVuSans-30"/>
       <use xlink:href="#DejaVuSans-2e" x="63.623047"/>
       <use xlink:href="#DejaVuSans-35" x="95.410156"/>
      </g>
     </g>
    </g>
    <g id="xtick_3">
     <g id="line2d_3">
      <g>
       <use xlink:href="#m3f5b778da6" x="156.4675" y="174.04" style="stroke: #000000; stroke-width: 0.8"/>
      </g>
     </g>
     <g id="text_3">
      <!-- 1.0 -->
      <g transform="translate(148.515938 188.638438)scale(0.1 -0.1)">
       <defs>
        <path id="DejaVuSans-31" d="M 794 531 
L 1825 531 
L 1825 4091 
L 703 3866 
L 703 4441 
L 1819 4666 
L 2450 4666 
L 2450 531 
L 3481 531 
L 3481 0 
L 794 0 
L 794 531 
z
" transform="scale(0.015625)"/>
       </defs>
       <use xlink:href="#DejaVuSans-31"/>
       <use xlink:href="#DejaVuSans-2e" x="63.623047"/>
       <use xlink:href="#DejaVuSans-30" x="95.410156"/>
      </g>
     </g>
    </g>
    <g id="xtick_4">
     <g id="line2d_4">
      <g>
       <use xlink:href="#m3f5b778da6" x="210.84125" y="174.04" style="stroke: #000000; stroke-width: 0.8"/>
      </g>
     </g>
     <g id="text_4">
      <!-- 1.5 -->
      <g transform="translate(202.889687 188.638438)scale(0.1 -0.1)">
       <use xlink:href="#DejaVuSans-31"/>
       <use xlink:href="#DejaVuSans-2e" x="63.623047"/>
       <use xlink:href="#DejaVuSans-35" x="95.410156"/>
      </g>
     </g>
    </g>
    <g id="xtick_5">
     <g id="line2d_5">
      <g>
       <use xlink:href="#m3f5b778da6" x="265.215" y="174.04" style="stroke: #000000; stroke-width: 0.8"/>
      </g>
     </g>
     <g id="text_5">
      <!-- 2.0 -->
      <g transform="translate(257.263437 188.638438)scale(0.1 -0.1)">
       <defs>
        <path id="DejaVuSans-32" d="M 1228 531 
L 3431 531 
L 3431 0 
L 469 0 
L 469 531 
Q 828 903 1448 1529 
Q 2069 2156 2228 2338 
Q 2531 2678 2651 2914 
Q 2772 3150 2772 3378 
Q 2772 3750 2511 3984 
Q 2250 4219 1831 4219 
Q 1534 4219 1204 4116 
Q 875 4013 500 3803 
L 500 4441 
Q 881 4594 1212 4672 
Q 1544 4750 1819 4750 
Q 2544 4750 2975 4387 
Q 3406 4025 3406 3419 
Q 3406 3131 3298 2873 
Q 3191 2616 2906 2266 
Q 2828 2175 2409 1742 
Q 1991 1309 1228 531 
z
" transform="scale(0.015625)"/>
       </defs>
       <use xlink:href="#DejaVuSans-32"/>
       <use xlink:href="#DejaVuSans-2e" x="63.623047"/>
       <use xlink:href="#DejaVuSans-30" x="95.410156"/>
      </g>
     </g>
    </g>
    <g id="text_6">
     <!-- Influence of surprisal (multiplication) -->
     <g transform="translate(64.320625 202.316563)scale(0.1 -0.1)">
      <defs>
       <path id="DejaVuSans-49" d="M 628 4666 
L 1259 4666 
L 1259 0 
L 628 0 
L 628 4666 
z
" transform="scale(0.015625)"/>
       <path id="DejaVuSans-6e" d="M 3513 2113 
L 3513 0 
L 2938 0 
L 2938 2094 
Q 2938 2591 2744 2837 
Q 2550 3084 2163 3084 
Q 1697 3084 1428 2787 
Q 1159 2491 1159 1978 
L 1159 0 
L 581 0 
L 581 3500 
L 1159 3500 
L 1159 2956 
Q 1366 3272 1645 3428 
Q 1925 3584 2291 3584 
Q 2894 3584 3203 3211 
Q 3513 2838 3513 2113 
z
" transform="scale(0.015625)"/>
       <path id="DejaVuSans-66" d="M 2375 4863 
L 2375 4384 
L 1825 4384 
Q 1516 4384 1395 4259 
Q 1275 4134 1275 3809 
L 1275 3500 
L 2222 3500 
L 2222 3053 
L 1275 3053 
L 1275 0 
L 697 0 
L 697 3053 
L 147 3053 
L 147 3500 
L 697 3500 
L 697 3744 
Q 697 4328 969 4595 
Q 1241 4863 1831 4863 
L 2375 4863 
z
" transform="scale(0.015625)"/>
       <path id="DejaVuSans-6c" d="M 603 4863 
L 1178 4863 
L 1178 0 
L 603 0 
L 603 4863 
z
" transform="scale(0.015625)"/>
       <path id="DejaVuSans-75" d="M 544 1381 
L 544 3500 
L 1119 3500 
L 1119 1403 
Q 1119 906 1312 657 
Q 1506 409 1894 409 
Q 2359 409 2629 706 
Q 2900 1003 2900 1516 
L 2900 3500 
L 3475 3500 
L 3475 0 
L 2900 0 
L 2900 538 
Q 2691 219 2414 64 
Q 2138 -91 1772 -91 
Q 1169 -91 856 284 
Q 544 659 544 1381 
z
M 1991 3584 
L 1991 3584 
z
" transform="scale(0.015625)"/>
       <path id="DejaVuSans-65" d="M 3597 1894 
L 3597 1613 
L 953 1613 
Q 991 1019 1311 708 
Q 1631 397 2203 397 
Q 2534 397 2845 478 
Q 3156 559 3463 722 
L 3463 178 
Q 3153 47 2828 -22 
Q 2503 -91 2169 -91 
Q 1331 -91 842 396 
Q 353 884 353 1716 
Q 353 2575 817 3079 
Q 1281 3584 2069 3584 
Q 2775 3584 3186 3129 
Q 3597 2675 3597 1894 
z
M 3022 2063 
Q 3016 2534 2758 2815 
Q 2500 3097 2075 3097 
Q 1594 3097 1305 2825 
Q 1016 2553 972 2059 
L 3022 2063 
z
" transform="scale(0.015625)"/>
       <path id="DejaVuSans-63" d="M 3122 3366 
L 3122 2828 
Q 2878 2963 2633 3030 
Q 2388 3097 2138 3097 
Q 1578 3097 1268 2742 
Q 959 2388 959 1747 
Q 959 1106 1268 751 
Q 1578 397 2138 397 
Q 2388 397 2633 464 
Q 2878 531 3122 666 
L 3122 134 
Q 2881 22 2623 -34 
Q 2366 -91 2075 -91 
Q 1284 -91 818 406 
Q 353 903 353 1747 
Q 353 2603 823 3093 
Q 1294 3584 2113 3584 
Q 2378 3584 2631 3529 
Q 2884 3475 3122 3366 
z
" transform="scale(0.015625)"/>
       <path id="DejaVuSans-20" transform="scale(0.015625)"/>
       <path id="DejaVuSans-6f" d="M 1959 3097 
Q 1497 3097 1228 2736 
Q 959 2375 959 1747 
Q 959 1119 1226 758 
Q 1494 397 1959 397 
Q 2419 397 2687 759 
Q 2956 1122 2956 1747 
Q 2956 2369 2687 2733 
Q 2419 3097 1959 3097 
z
M 1959 3584 
Q 2709 3584 3137 3096 
Q 3566 2609 3566 1747 
Q 3566 888 3137 398 
Q 2709 -91 1959 -91 
Q 1206 -91 779 398 
Q 353 888 353 1747 
Q 353 2609 779 3096 
Q 1206 3584 1959 3584 
z
" transform="scale(0.015625)"/>
       <path id="DejaVuSans-73" d="M 2834 3397 
L 2834 2853 
Q 2591 2978 2328 3040 
Q 2066 3103 1784 3103 
Q 1356 3103 1142 2972 
Q 928 2841 928 2578 
Q 928 2378 1081 2264 
Q 1234 2150 1697 2047 
L 1894 2003 
Q 2506 1872 2764 1633 
Q 3022 1394 3022 966 
Q 3022 478 2636 193 
Q 2250 -91 1575 -91 
Q 1294 -91 989 -36 
Q 684 19 347 128 
L 347 722 
Q 666 556 975 473 
Q 1284 391 1588 391 
Q 1994 391 2212 530 
Q 2431 669 2431 922 
Q 2431 1156 2273 1281 
Q 2116 1406 1581 1522 
L 1381 1569 
Q 847 1681 609 1914 
Q 372 2147 372 2553 
Q 372 3047 722 3315 
Q 1072 3584 1716 3584 
Q 2034 3584 2315 3537 
Q 2597 3491 2834 3397 
z
" transform="scale(0.015625)"/>
       <path id="DejaVuSans-72" d="M 2631 2963 
Q 2534 3019 2420 3045 
Q 2306 3072 2169 3072 
Q 1681 3072 1420 2755 
Q 1159 2438 1159 1844 
L 1159 0 
L 581 0 
L 581 3500 
L 1159 3500 
L 1159 2956 
Q 1341 3275 1631 3429 
Q 1922 3584 2338 3584 
Q 2397 3584 2469 3576 
Q 2541 3569 2628 3553 
L 2631 2963 
z
" transform="scale(0.015625)"/>
       <path id="DejaVuSans-70" d="M 1159 525 
L 1159 -1331 
L 581 -1331 
L 581 3500 
L 1159 3500 
L 1159 2969 
Q 1341 3281 1617 3432 
Q 1894 3584 2278 3584 
Q 2916 3584 3314 3078 
Q 3713 2572 3713 1747 
Q 3713 922 3314 415 
Q 2916 -91 2278 -91 
Q 1894 -91 1617 61 
Q 1341 213 1159 525 
z
M 3116 1747 
Q 3116 2381 2855 2742 
Q 2594 3103 2138 3103 
Q 1681 3103 1420 2742 
Q 1159 2381 1159 1747 
Q 1159 1113 1420 752 
Q 1681 391 2138 391 
Q 2594 391 2855 752 
Q 3116 1113 3116 1747 
z
" transform="scale(0.015625)"/>
       <path id="DejaVuSans-69" d="M 603 3500 
L 1178 3500 
L 1178 0 
L 603 0 
L 603 3500 
z
M 603 4863 
L 1178 4863 
L 1178 4134 
L 603 4134 
L 603 4863 
z
" transform="scale(0.015625)"/>
       <path id="DejaVuSans-61" d="M 2194 1759 
Q 1497 1759 1228 1600 
Q 959 1441 959 1056 
Q 959 750 1161 570 
Q 1363 391 1709 391 
Q 2188 391 2477 730 
Q 2766 1069 2766 1631 
L 2766 1759 
L 2194 1759 
z
M 3341 1997 
L 3341 0 
L 2766 0 
L 2766 531 
Q 2569 213 2275 61 
Q 1981 -91 1556 -91 
Q 1019 -91 701 211 
Q 384 513 384 1019 
Q 384 1609 779 1909 
Q 1175 2209 1959 2209 
L 2766 2209 
L 2766 2266 
Q 2766 2663 2505 2880 
Q 2244 3097 1772 3097 
Q 1472 3097 1187 3025 
Q 903 2953 641 2809 
L 641 3341 
Q 956 3463 1253 3523 
Q 1550 3584 1831 3584 
Q 2591 3584 2966 3190 
Q 3341 2797 3341 1997 
z
" transform="scale(0.015625)"/>
       <path id="DejaVuSans-28" d="M 1984 4856 
Q 1566 4138 1362 3434 
Q 1159 2731 1159 2009 
Q 1159 1288 1364 580 
Q 1569 -128 1984 -844 
L 1484 -844 
Q 1016 -109 783 600 
Q 550 1309 550 2009 
Q 550 2706 781 3412 
Q 1013 4119 1484 4856 
L 1984 4856 
z
" transform="scale(0.015625)"/>
       <path id="DejaVuSans-6d" d="M 3328 2828 
Q 3544 3216 3844 3400 
Q 4144 3584 4550 3584 
Q 5097 3584 5394 3201 
Q 5691 2819 5691 2113 
L 5691 0 
L 5113 0 
L 5113 2094 
Q 5113 2597 4934 2840 
Q 4756 3084 4391 3084 
Q 3944 3084 3684 2787 
Q 3425 2491 3425 1978 
L 3425 0 
L 2847 0 
L 2847 2094 
Q 2847 2600 2669 2842 
Q 2491 3084 2119 3084 
Q 1678 3084 1418 2786 
Q 1159 2488 1159 1978 
L 1159 0 
L 581 0 
L 581 3500 
L 1159 3500 
L 1159 2956 
Q 1356 3278 1631 3431 
Q 1906 3584 2284 3584 
Q 2666 3584 2933 3390 
Q 3200 3197 3328 2828 
z
" transform="scale(0.015625)"/>
       <path id="DejaVuSans-74" d="M 1172 4494 
L 1172 3500 
L 2356 3500 
L 2356 3053 
L 1172 3053 
L 1172 1153 
Q 1172 725 1289 603 
Q 1406 481 1766 481 
L 2356 481 
L 2356 0 
L 1766 0 
Q 1100 0 847 248 
Q 594 497 594 1153 
L 594 3053 
L 172 3053 
L 172 3500 
L 594 3500 
L 594 4494 
L 1172 4494 
z
" transform="scale(0.015625)"/>
       <path id="DejaVuSans-29" d="M 513 4856 
L 1013 4856 
Q 1481 4119 1714 3412 
Q 1947 2706 1947 2009 
Q 1947 1309 1714 600 
Q 1481 -109 1013 -844 
L 513 -844 
Q 928 -128 1133 580 
Q 1338 1288 1338 2009 
Q 1338 2731 1133 3434 
Q 928 4138 513 4856 
z
" transform="scale(0.015625)"/>
      </defs>
      <use xlink:href="#DejaVuSans-49"/>
      <use xlink:href="#DejaVuSans-6e" x="29.492188"/>
      <use xlink:href="#DejaVuSans-66" x="92.871094"/>
      <use xlink:href="#DejaVuSans-6c" x="128.076172"/>
      <use xlink:href="#DejaVuSans-75" x="155.859375"/>
      <use xlink:href="#DejaVuSans-65" x="219.238281"/>
      <use xlink:href="#DejaVuSans-6e" x="280.761719"/>
      <use xlink:href="#DejaVuSans-63" x="344.140625"/>
      <use xlink:href="#DejaVuSans-65" x="399.121094"/>
      <use xlink:href="#DejaVuSans-20" x="460.644531"/>
      <use xlink:href="#DejaVuSans-6f" x="492.431641"/>
      <use xlink:href="#DejaVuSans-66" x="553.613281"/>
      <use xlink:href="#DejaVuSans-20" x="588.818359"/>
      <use xlink:href="#DejaVuSans-73" x="620.605469"/>
      <use xlink:href="#DejaVuSans-75" x="672.705078"/>
      <use xlink:href="#DejaVuSans-72" x="736.083984"/>
      <use xlink:href="#DejaVuSans-70" x="777.197266"/>
      <use xlink:href="#DejaVuSans-72" x="840.673828"/>
      <use xlink:href="#DejaVuSans-69" x="881.787109"/>
      <use xlink:href="#DejaVuSans-73" x="909.570312"/>
      <use xlink:href="#DejaVuSans-61" x="961.669922"/>
      <use xlink:href="#DejaVuSans-6c" x="1022.949219"/>
      <use xlink:href="#DejaVuSans-20" x="1050.732422"/>
      <use xlink:href="#DejaVuSans-28" x="1082.519531"/>
      <use xlink:href="#DejaVuSans-6d" x="1121.533203"/>
      <use xlink:href="#DejaVuSans-75" x="1218.945312"/>
      <use xlink:href="#DejaVuSans-6c" x="1282.324219"/>
      <use xlink:href="#DejaVuSans-74" x="1310.107422"/>
      <use xlink:href="#DejaVuSans-69" x="1349.316406"/>
      <use xlink:href="#DejaVuSans-70" x="1377.099609"/>
      <use xlink:href="#DejaVuSans-6c" x="1440.576172"/>
      <use xlink:href="#DejaVuSans-69" x="1468.359375"/>
      <use xlink:href="#DejaVuSans-63" x="1496.142578"/>
      <use xlink:href="#DejaVuSans-61" x="1551.123047"/>
      <use xlink:href="#DejaVuSans-74" x="1612.402344"/>
      <use xlink:href="#DejaVuSans-69" x="1651.611328"/>
      <use xlink:href="#DejaVuSans-6f" x="1679.394531"/>
      <use xlink:href="#DejaVuSans-6e" x="1740.576172"/>
      <use xlink:href="#DejaVuSans-29" x="1803.955078"/>
     </g>
    </g>
   </g>
   <g id="matplotlib.axis_2">
    <g id="ytick_1">
     <g id="line2d_6">
      <defs>
       <path id="m002b11721f" d="M 0 0 
L -3.5 0 
" style="stroke: #000000; stroke-width: 0.8"/>
      </defs>
      <g>
       <use xlink:href="#m002b11721f" x="47.72" y="152.13646" style="stroke: #000000; stroke-width: 0.8"/>
      </g>
     </g>
     <g id="text_7">
      <!-- 0.2 -->
      <g transform="translate(24.816875 155.935679)scale(0.1 -0.1)">
       <use xlink:href="#DejaVuSans-30"/>
       <use xlink:href="#DejaVuSans-2e" x="63.623047"/>
       <use xlink:href="#DejaVuSans-32" x="95.410156"/>
      </g>
     </g>
    </g>
    <g id="ytick_2">
     <g id="line2d_7">
      <g>
       <use xlink:href="#m002b11721f" x="47.72" y="122.494618" style="stroke: #000000; stroke-width: 0.8"/>
      </g>
     </g>
     <g id="text_8">
      <!-- 0.4 -->
      <g transform="translate(24.816875 126.293837)scale(0.1 -0.1)">
       <defs>
        <path id="DejaVuSans-34" d="M 2419 4116 
L 825 1625 
L 2419 1625 
L 2419 4116 
z
M 2253 4666 
L 3047 4666 
L 3047 1625 
L 3713 1625 
L 3713 1100 
L 3047 1100 
L 3047 0 
L 2419 0 
L 2419 1100 
L 313 1100 
L 313 1709 
L 2253 4666 
z
" transform="scale(0.015625)"/>
       </defs>
       <use xlink:href="#DejaVuSans-30"/>
       <use xlink:href="#DejaVuSans-2e" x="63.623047"/>
       <use xlink:href="#DejaVuSans-34" x="95.410156"/>
      </g>
     </g>
    </g>
    <g id="ytick_3">
     <g id="line2d_8">
      <g>
       <use xlink:href="#m002b11721f" x="47.72" y="92.852776" style="stroke: #000000; stroke-width: 0.8"/>
      </g>
     </g>
     <g id="text_9">
      <!-- 0.6 -->
      <g transform="translate(24.816875 96.651994)scale(0.1 -0.1)">
       <defs>
        <path id="DejaVuSans-36" d="M 2113 2584 
Q 1688 2584 1439 2293 
Q 1191 2003 1191 1497 
Q 1191 994 1439 701 
Q 1688 409 2113 409 
Q 2538 409 2786 701 
Q 3034 994 3034 1497 
Q 3034 2003 2786 2293 
Q 2538 2584 2113 2584 
z
M 3366 4563 
L 3366 3988 
Q 3128 4100 2886 4159 
Q 2644 4219 2406 4219 
Q 1781 4219 1451 3797 
Q 1122 3375 1075 2522 
Q 1259 2794 1537 2939 
Q 1816 3084 2150 3084 
Q 2853 3084 3261 2657 
Q 3669 2231 3669 1497 
Q 3669 778 3244 343 
Q 2819 -91 2113 -91 
Q 1303 -91 875 529 
Q 447 1150 447 2328 
Q 447 3434 972 4092 
Q 1497 4750 2381 4750 
Q 2619 4750 2861 4703 
Q 3103 4656 3366 4563 
z
" transform="scale(0.015625)"/>
       </defs>
       <use xlink:href="#DejaVuSans-30"/>
       <use xlink:href="#DejaVuSans-2e" x="63.623047"/>
       <use xlink:href="#DejaVuSans-36" x="95.410156"/>
      </g>
     </g>
    </g>
    <g id="ytick_4">
     <g id="line2d_9">
      <g>
       <use xlink:href="#m002b11721f" x="47.72" y="63.210933" style="stroke: #000000; stroke-width: 0.8"/>
      </g>
     </g>
     <g id="text_10">
      <!-- 0.8 -->
      <g transform="translate(24.816875 67.010152)scale(0.1 -0.1)">
       <defs>
        <path id="DejaVuSans-38" d="M 2034 2216 
Q 1584 2216 1326 1975 
Q 1069 1734 1069 1313 
Q 1069 891 1326 650 
Q 1584 409 2034 409 
Q 2484 409 2743 651 
Q 3003 894 3003 1313 
Q 3003 1734 2745 1975 
Q 2488 2216 2034 2216 
z
M 1403 2484 
Q 997 2584 770 2862 
Q 544 3141 544 3541 
Q 544 4100 942 4425 
Q 1341 4750 2034 4750 
Q 2731 4750 3128 4425 
Q 3525 4100 3525 3541 
Q 3525 3141 3298 2862 
Q 3072 2584 2669 2484 
Q 3125 2378 3379 2068 
Q 3634 1759 3634 1313 
Q 3634 634 3220 271 
Q 2806 -91 2034 -91 
Q 1263 -91 848 271 
Q 434 634 434 1313 
Q 434 1759 690 2068 
Q 947 2378 1403 2484 
z
M 1172 3481 
Q 1172 3119 1398 2916 
Q 1625 2713 2034 2713 
Q 2441 2713 2670 2916 
Q 2900 3119 2900 3481 
Q 2900 3844 2670 4047 
Q 2441 4250 2034 4250 
Q 1625 4250 1398 4047 
Q 1172 3844 1172 3481 
z
" transform="scale(0.015625)"/>
       </defs>
       <use xlink:href="#DejaVuSans-30"/>
       <use xlink:href="#DejaVuSans-2e" x="63.623047"/>
       <use xlink:href="#DejaVuSans-38" x="95.410156"/>
      </g>
     </g>
    </g>
    <g id="ytick_5">
     <g id="line2d_10">
      <g>
       <use xlink:href="#m002b11721f" x="47.72" y="33.569091" style="stroke: #000000; stroke-width: 0.8"/>
      </g>
     </g>
     <g id="text_11">
      <!-- 1.0 -->
      <g transform="translate(24.816875 37.36831)scale(0.1 -0.1)">
       <use xlink:href="#DejaVuSans-31"/>
       <use xlink:href="#DejaVuSans-2e" x="63.623047"/>
       <use xlink:href="#DejaVuSans-30" x="95.410156"/>
      </g>
     </g>
    </g>
    <g id="text_12">
     <!-- R-value -->
     <g transform="translate(18.737188 119.064687)rotate(-90)scale(0.1 -0.1)">
      <defs>
       <path id="DejaVuSans-52" d="M 2841 2188 
Q 3044 2119 3236 1894 
Q 3428 1669 3622 1275 
L 4263 0 
L 3584 0 
L 2988 1197 
Q 2756 1666 2539 1819 
Q 2322 1972 1947 1972 
L 1259 1972 
L 1259 0 
L 628 0 
L 628 4666 
L 2053 4666 
Q 2853 4666 3247 4331 
Q 3641 3997 3641 3322 
Q 3641 2881 3436 2590 
Q 3231 2300 2841 2188 
z
M 1259 4147 
L 1259 2491 
L 2053 2491 
Q 2509 2491 2742 2702 
Q 2975 2913 2975 3322 
Q 2975 3731 2742 3939 
Q 2509 4147 2053 4147 
L 1259 4147 
z
" transform="scale(0.015625)"/>
       <path id="DejaVuSans-2d" d="M 313 2009 
L 1997 2009 
L 1997 1497 
L 313 1497 
L 313 2009 
z
" transform="scale(0.015625)"/>
       <path id="DejaVuSans-76" d="M 191 3500 
L 800 3500 
L 1894 563 
L 2988 3500 
L 3597 3500 
L 2284 0 
L 1503 0 
L 191 3500 
z
" transform="scale(0.015625)"/>
      </defs>
      <use xlink:href="#DejaVuSans-52"/>
      <use xlink:href="#DejaVuSans-2d" x="65.482422"/>
      <use xlink:href="#DejaVuSans-76" x="98.941406"/>
      <use xlink:href="#DejaVuSans-61" x="158.121094"/>
      <use xlink:href="#DejaVuSans-6c" x="219.400391"/>
      <use xlink:href="#DejaVuSans-75" x="247.183594"/>
      <use xlink:href="#DejaVuSans-65" x="310.5625"/>
     </g>
    </g>
   </g>
   <g id="line2d_11">
    <path d="M 47.72 33.569091 
L 59.167105 35.521201 
L 70.614211 40.784245 
L 82.061316 47.990415 
L 93.508421 56.706954 
L 104.955526 66.177062 
L 116.402632 75.491424 
L 127.849737 84.185718 
L 139.296842 93.152886 
L 150.743947 101.03162 
L 162.191053 108.903924 
L 173.638158 116.083268 
L 185.085263 122.066003 
L 196.532368 128.496317 
L 207.979474 133.464754 
L 219.426579 137.393617 
L 230.873684 141.215272 
L 242.320789 144.559822 
L 253.767895 147.580657 
L 265.215 150.003363 
" clip-path="url(#p8a4c76f353)" style="fill: none; stroke: #1f77b4; stroke-width: 1.5; stroke-linecap: square"/>
   </g>
   <g id="line2d_12">
    <path d="M 47.72 33.569226 
L 59.167105 34.876523 
L 70.614211 37.802738 
L 82.061316 42.288355 
L 93.508421 48.432415 
L 104.955526 55.734764 
L 116.402632 63.72544 
L 127.849737 71.542378 
L 139.296842 79.900064 
L 150.743947 87.488456 
L 162.191053 95.105394 
L 173.638158 102.332785 
L 185.085263 108.531459 
L 196.532368 115.114956 
L 207.979474 120.827092 
L 219.426579 125.724954 
L 230.873684 130.243729 
L 242.320789 134.301862 
L 253.767895 138.033863 
L 265.215 141.101375 
" clip-path="url(#p8a4c76f353)" style="fill: none; stroke: #ff7f0e; stroke-width: 1.5; stroke-linecap: square"/>
   </g>
   <g id="line2d_13">
    <path d="M 47.72 33.569091 
L 59.167105 35.056897 
L 70.614211 37.612158 
L 82.061316 40.805318 
L 93.508421 44.770536 
L 104.955526 49.043182 
L 116.402632 53.389492 
L 127.849737 57.79025 
L 139.296842 62.523318 
L 150.743947 66.637737 
L 162.191053 71.207458 
L 173.638158 75.370287 
L 185.085263 79.575862 
L 196.532368 83.717642 
L 207.979474 88.172246 
L 219.426579 92.852291 
L 230.873684 96.850999 
L 242.320789 100.943145 
L 253.767895 104.531083 
L 265.215 108.192417 
" clip-path="url(#p8a4c76f353)" style="fill: none; stroke: #2ca02c; stroke-width: 1.5; stroke-linecap: square"/>
   </g>
   <g id="line2d_14">
    <path d="M 47.72 33.56984 
L 59.167105 34.79076 
L 70.614211 36.747417 
L 82.061316 39.414546 
L 93.508421 43.0038 
L 104.955526 47.100483 
L 116.402632 51.563333 
L 127.849737 56.055687 
L 139.296842 61.050416 
L 150.743947 65.417521 
L 162.191053 70.12739 
L 173.638158 74.475004 
L 185.085263 78.72555 
L 196.532368 82.90672 
L 207.979474 87.293874 
L 219.426579 91.857157 
L 230.873684 95.622508 
L 242.320789 99.559146 
L 253.767895 102.917653 
L 265.215 106.424265 
" clip-path="url(#p8a4c76f353)" style="fill: none; stroke: #d62728; stroke-width: 1.5; stroke-linecap: square"/>
   </g>
   <g id="line2d_15">
    <path d="M 47.72 33.569091 
L 59.167105 35.520784 
L 70.614211 40.811727 
L 82.061316 48.01895 
L 93.508421 56.765702 
L 104.955526 66.315487 
L 116.402632 75.575958 
L 127.849737 84.270656 
L 139.296842 93.730577 
L 150.743947 101.040069 
L 162.191053 109.022985 
L 173.638158 116.302409 
L 185.085263 122.128947 
L 196.532368 128.899548 
L 207.979474 133.583498 
L 219.426579 138.127447 
L 230.873684 141.427122 
L 242.320789 144.923614 
L 253.767895 147.712262 
L 265.215 150.781349 
" clip-path="url(#p8a4c76f353)" style="fill: none; stroke: #9467bd; stroke-width: 1.5; stroke-linecap: square"/>
   </g>
   <g id="line2d_16">
    <path d="M 47.72 33.569631 
L 59.167105 34.874033 
L 70.614211 37.8131 
L 82.061316 42.305945 
L 93.508421 48.458977 
L 104.955526 55.84619 
L 116.402632 63.759472 
L 127.849737 71.568256 
L 139.296842 80.318777 
L 150.743947 87.409616 
L 162.191053 95.076307 
L 173.638158 102.576445 
L 185.085263 108.635244 
L 196.532368 115.514858 
L 207.979474 120.875414 
L 219.426579 126.353138 
L 230.873684 130.472848 
L 242.320789 134.603881 
L 253.767895 138.165935 
L 265.215 141.798852 
" clip-path="url(#p8a4c76f353)" style="fill: none; stroke: #8c564b; stroke-width: 1.5; stroke-linecap: square"/>
   </g>
   <g id="line2d_17">
    <path d="M 47.72 45.176792 
L 59.167105 47.700596 
L 70.614211 53.964668 
L 82.061316 62.650236 
L 93.508421 73.070234 
L 104.955526 83.481349 
L 116.402632 93.452897 
L 127.849737 102.307709 
L 139.296842 110.718659 
L 150.743947 118.237631 
L 162.191053 125.556547 
L 173.638158 132.016869 
L 185.085263 137.634921 
L 196.532368 143.268676 
L 207.979474 147.806152 
L 219.426579 151.043979 
L 230.873684 154.119659 
L 242.320789 156.751671 
L 253.767895 158.998947 
L 265.215 160.882163 
" clip-path="url(#p8a4c76f353)" style="fill: none; stroke: #e377c2; stroke-width: 1.5; stroke-linecap: square"/>
   </g>
   <g id="line2d_18">
    <path d="M 47.72 33.56937 
L 59.167105 34.146055 
L 70.614211 34.807278 
L 82.061316 36.515727 
L 93.508421 40.066474 
L 104.955526 45.577236 
L 116.402632 52.397213 
L 127.849737 59.563629 
L 139.296842 67.716566 
L 150.743947 75.14194 
L 162.191053 83.013303 
L 173.638158 90.261926 
L 185.085263 97.057181 
L 196.532368 104.00401 
L 207.979474 110.391471 
L 219.426579 116.436595 
L 230.873684 121.579804 
L 242.320789 126.562006 
L 253.767895 131.075291 
L 265.215 135.012766 
" clip-path="url(#p8a4c76f353)" style="fill: none; stroke: #7f7f7f; stroke-width: 1.5; stroke-linecap: square"/>
   </g>
   <g id="patch_3">
    <path d="M 47.72 174.04 
L 47.72 26.88 
" style="fill: none; stroke: #000000; stroke-width: 0.8; stroke-linejoin: miter; stroke-linecap: square"/>
   </g>
   <g id="patch_4">
    <path d="M 47.72 174.04 
L 265.215 174.04 
" style="fill: none; stroke: #000000; stroke-width: 0.8; stroke-linejoin: miter; stroke-linecap: square"/>
   </g>
   <g id="text_13">
    <!-- Node * surprisal -->
    <g transform="translate(108.18625 20.88)scale(0.12 -0.12)">
     <defs>
      <path id="DejaVuSans-4e" d="M 628 4666 
L 1478 4666 
L 3547 763 
L 3547 4666 
L 4159 4666 
L 4159 0 
L 3309 0 
L 1241 3903 
L 1241 0 
L 628 0 
L 628 4666 
z
" transform="scale(0.015625)"/>
      <path id="DejaVuSans-64" d="M 2906 2969 
L 2906 4863 
L 3481 4863 
L 3481 0 
L 2906 0 
L 2906 525 
Q 2725 213 2448 61 
Q 2172 -91 1784 -91 
Q 1150 -91 751 415 
Q 353 922 353 1747 
Q 353 2572 751 3078 
Q 1150 3584 1784 3584 
Q 2172 3584 2448 3432 
Q 2725 3281 2906 2969 
z
M 947 1747 
Q 947 1113 1208 752 
Q 1469 391 1925 391 
Q 2381 391 2643 752 
Q 2906 1113 2906 1747 
Q 2906 2381 2643 2742 
Q 2381 3103 1925 3103 
Q 1469 3103 1208 2742 
Q 947 2381 947 1747 
z
" transform="scale(0.015625)"/>
      <path id="DejaVuSans-2a" d="M 3009 3897 
L 1888 3291 
L 3009 2681 
L 2828 2375 
L 1778 3009 
L 1778 1831 
L 1422 1831 
L 1422 3009 
L 372 2375 
L 191 2681 
L 1313 3291 
L 191 3897 
L 372 4206 
L 1422 3572 
L 1422 4750 
L 1778 4750 
L 1778 3572 
L 2828 4206 
L 3009 3897 
z
" transform="scale(0.015625)"/>
     </defs>
     <use xlink:href="#DejaVuSans-4e"/>
     <use xlink:href="#DejaVuSans-6f" x="74.804688"/>
     <use xlink:href="#DejaVuSans-64" x="135.986328"/>
     <use xlink:href="#DejaVuSans-65" x="199.462891"/>
     <use xlink:href="#DejaVuSans-20" x="260.986328"/>
     <use xlink:href="#DejaVuSans-2a" x="292.773438"/>
     <use xlink:href="#DejaVuSans-20" x="342.773438"/>
     <use xlink:href="#DejaVuSans-73" x="374.560547"/>
     <use xlink:href="#DejaVuSans-75" x="426.660156"/>
     <use xlink:href="#DejaVuSans-72" x="490.039062"/>
     <use xlink:href="#DejaVuSans-70" x="531.152344"/>
     <use xlink:href="#DejaVuSans-72" x="594.628906"/>
     <use xlink:href="#DejaVuSans-69" x="635.742188"/>
     <use xlink:href="#DejaVuSans-73" x="663.525391"/>
     <use xlink:href="#DejaVuSans-61" x="715.625"/>
     <use xlink:href="#DejaVuSans-6c" x="776.904297"/>
    </g>
   </g>
  </g>
  <g id="axes_2">
   <g id="patch_5">
    <path d="M 298.065 174.04 
L 515.56 174.04 
L 515.56 26.88 
L 298.065 26.88 
z
" style="fill: #ffffff"/>
   </g>
   <g id="PolyCollection_9">
    <path d="M 298.065 33.569091 
L 298.065 33.569091 
L 309.512105 35.963533 
L 320.959211 42.218283 
L 332.406316 50.795086 
L 343.853421 60.389889 
L 355.300526 70.515526 
L 366.747632 80.900915 
L 378.194737 91.135965 
L 389.641842 100.260933 
L 401.088947 108.085119 
L 412.536053 115.66288 
L 423.983158 123.361294 
L 435.430263 129.150079 
L 446.877368 133.749195 
L 458.324474 139.050482 
L 469.771579 142.873821 
L 481.218684 146.885514 
L 492.665789 149.933429 
L 504.112895 152.526879 
L 515.56 155.765751 
L 515.56 147.011755 
L 515.56 147.011755 
L 504.112895 143.769309 
L 492.665789 140.19625 
L 481.218684 136.651574 
L 469.771579 132.048241 
L 458.324474 127.23001 
L 446.877368 122.298699 
L 435.430263 116.178581 
L 423.983158 109.239482 
L 412.536053 101.719929 
L 401.088947 93.721502 
L 389.641842 86.098097 
L 378.194737 77.477726 
L 366.747632 69.088094 
L 355.300526 61.10504 
L 343.853421 53.003729 
L 332.406316 45.441061 
L 320.959211 39.539391 
L 309.512105 34.987629 
L 298.065 33.569091 
z
" clip-path="url(#p7841beddad)" style="fill: #1f77b4; fill-opacity: 0.4"/>
   </g>
   <g id="PolyCollection_10">
    <path d="M 298.065 33.569204 
L 298.065 33.569248 
L 309.512105 35.965508 
L 320.959211 42.219914 
L 332.406316 50.797254 
L 343.853421 60.396989 
L 355.300526 70.53073 
L 366.747632 80.920731 
L 378.194737 91.145236 
L 389.641842 100.259702 
L 401.088947 108.047394 
L 412.536053 115.594549 
L 423.983158 123.315874 
L 435.430263 129.190958 
L 446.877368 133.8224 
L 458.324474 139.076517 
L 469.771579 142.985939 
L 481.218684 146.836917 
L 492.665789 149.882524 
L 504.112895 152.397526 
L 515.56 155.628963 
L 515.56 147.318126 
L 515.56 147.318126 
L 504.112895 144.096293 
L 492.665789 140.525941 
L 481.218684 136.883329 
L 469.771579 132.294968 
L 458.324474 127.466675 
L 446.877368 122.497865 
L 435.430263 116.415191 
L 423.983158 109.490686 
L 412.536053 101.883945 
L 401.088947 93.891765 
L 389.641842 86.21857 
L 378.194737 77.582063 
L 366.747632 69.17084 
L 355.300526 61.163352 
L 343.853421 53.021024 
L 332.406316 45.44072 
L 320.959211 39.538318 
L 309.512105 34.986613 
L 298.065 33.569204 
z
" clip-path="url(#p7841beddad)" style="fill: #ff7f0e; fill-opacity: 0.4"/>
   </g>
   <g id="PolyCollection_11">
    <path d="M 298.065 33.569091 
L 298.065 33.569091 
L 309.512105 35.968781 
L 320.959211 42.238118 
L 332.406316 50.805984 
L 343.853421 60.433039 
L 355.300526 70.608814 
L 366.747632 81.003805 
L 378.194737 91.303681 
L 389.641842 100.468329 
L 401.088947 108.259095 
L 412.536053 115.92767 
L 423.983158 123.654446 
L 435.430263 129.589018 
L 446.877368 134.269839 
L 458.324474 139.586044 
L 469.771579 143.45294 
L 481.218684 147.644608 
L 492.665789 150.708266 
L 504.112895 153.201045 
L 515.56 156.558193 
L 515.56 146.636023 
L 515.56 146.636023 
L 504.112895 143.460642 
L 492.665789 139.992315 
L 481.218684 136.36874 
L 469.771579 131.830295 
L 458.324474 127.061457 
L 446.877368 122.259814 
L 435.430263 116.202869 
L 423.983158 109.369344 
L 412.536053 101.867869 
L 401.088947 93.854333 
L 389.641842 86.226474 
L 378.194737 77.622917 
L 366.747632 69.149785 
L 355.300526 61.15524 
L 343.853421 53.04109 
L 332.406316 45.466653 
L 320.959211 39.54543 
L 309.512105 34.992312 
L 298.065 33.569091 
z
" clip-path="url(#p7841beddad)" style="fill: #2ca02c; fill-opacity: 0.4"/>
   </g>
   <g id="PolyCollection_12">
    <path d="M 298.065 33.569665 
L 298.065 33.570015 
L 309.512105 35.969013 
L 320.959211 42.24936 
L 332.406316 50.824355 
L 343.853421 60.464467 
L 355.300526 70.649331 
L 366.747632 81.108119 
L 378.194737 91.450563 
L 389.641842 100.634164 
L 401.088947 108.475433 
L 412.536053 116.144603 
L 423.983158 123.9196 
L 435.430263 129.900023 
L 446.877368 134.583545 
L 458.324474 139.941718 
L 469.771579 143.881692 
L 481.218684 147.960951 
L 492.665789 150.969019 
L 504.112895 153.514237 
L 515.56 156.815318 
L 515.56 147.089899 
L 515.56 147.089899 
L 504.112895 143.906483 
L 492.665789 140.456835 
L 481.218684 136.77695 
L 469.771579 132.277329 
L 458.324474 127.510937 
L 446.877368 122.608571 
L 435.430263 116.528966 
L 423.983158 109.668998 
L 412.536053 102.080387 
L 401.088947 94.029983 
L 389.641842 86.355977 
L 378.194737 77.69524 
L 366.747632 69.21236 
L 355.300526 61.201698 
L 343.853421 53.053294 
L 332.406316 45.461831 
L 320.959211 39.547843 
L 309.512105 34.989919 
L 298.065 33.569665 
z
" clip-path="url(#p7841beddad)" style="fill: #d62728; fill-opacity: 0.4"/>
   </g>
   <g id="PolyCollection_13">
    <path d="M 298.065 33.569091 
L 298.065 33.569091 
L 309.512105 35.965699 
L 320.959211 42.20234 
L 332.406316 50.767728 
L 343.853421 60.428059 
L 355.300526 70.569691 
L 366.747632 80.88069 
L 378.194737 91.392122 
L 389.641842 100.534355 
L 401.088947 107.899696 
L 412.536053 115.936631 
L 423.983158 123.297615 
L 435.430263 129.108008 
L 446.877368 134.474613 
L 458.324474 139.29058 
L 469.771579 143.169296 
L 481.218684 148.024724 
L 492.665789 149.352825 
L 504.112895 152.2556 
L 515.56 156.018755 
L 515.56 147.881829 
L 515.56 147.881829 
L 504.112895 144.122276 
L 492.665789 140.060655 
L 481.218684 137.522865 
L 469.771579 132.216958 
L 458.324474 127.156162 
L 446.877368 122.67546 
L 435.430263 115.803944 
L 423.983158 109.60325 
L 412.536053 101.634156 
L 401.088947 94.196098 
L 389.641842 86.110663 
L 378.194737 77.675496 
L 366.747632 68.985665 
L 355.300526 60.959738 
L 343.853421 53.09815 
L 332.406316 45.4168 
L 320.959211 39.545217 
L 309.512105 34.990157 
L 298.065 33.569091 
z
" clip-path="url(#p7841beddad)" style="fill: #9467bd; fill-opacity: 0.4"/>
   </g>
   <g id="PolyCollection_14">
    <path d="M 298.065 33.569542 
L 298.065 33.56972 
L 309.512105 35.968256 
L 320.959211 42.204105 
L 332.406316 50.769424 
L 343.853421 60.43742 
L 355.300526 70.583913 
L 366.747632 80.899805 
L 378.194737 91.399407 
L 389.641842 100.518749 
L 401.088947 107.858847 
L 412.536053 115.866692 
L 423.983158 123.261352 
L 435.430263 129.118953 
L 446.877368 134.517009 
L 458.324474 139.324136 
L 469.771579 143.310823 
L 481.218684 147.847784 
L 492.665789 149.206754 
L 504.112895 152.169097 
L 515.56 155.841702 
L 515.56 148.174084 
L 515.56 148.174084 
L 504.112895 144.38285 
L 492.665789 140.492147 
L 481.218684 137.805513 
L 469.771579 132.479041 
L 458.324474 127.425282 
L 446.877368 122.912231 
L 435.430263 116.044453 
L 423.983158 109.869462 
L 412.536053 101.802102 
L 401.088947 94.329761 
L 389.641842 86.222796 
L 378.194737 77.791343 
L 366.747632 69.072327 
L 355.300526 61.019978 
L 343.853421 53.113793 
L 332.406316 45.418808 
L 320.959211 39.546703 
L 309.512105 34.990023 
L 298.065 33.569542 
z
" clip-path="url(#p7841beddad)" style="fill: #8c564b; fill-opacity: 0.4"/>
   </g>
   <g id="PolyCollection_15">
    <path d="M 298.065 43.839452 
L 298.065 46.514132 
L 309.512105 48.392602 
L 320.959211 53.704572 
L 332.406316 61.645842 
L 343.853421 70.640406 
L 355.300526 79.801334 
L 366.747632 89.261446 
L 378.194737 98.2671 
L 389.641842 107.064756 
L 401.088947 114.144986 
L 412.536053 121.68735 
L 423.983158 128.90376 
L 435.430263 134.433588 
L 446.877368 138.911821 
L 458.324474 144.118576 
L 469.771579 147.757196 
L 481.218684 151.64619 
L 492.665789 154.317246 
L 504.112895 156.623736 
L 515.56 159.73052 
L 515.56 151.014127 
L 515.56 151.014127 
L 504.112895 148.230534 
L 492.665789 144.609434 
L 481.218684 141.396941 
L 469.771579 136.844455 
L 458.324474 132.713444 
L 446.877368 127.632503 
L 435.430263 121.893684 
L 423.983158 115.683296 
L 412.536053 108.599409 
L 401.088947 101.254987 
L 389.641842 94.108535 
L 378.194737 86.363462 
L 366.747632 78.638603 
L 355.300526 70.989993 
L 343.853421 63.319326 
L 332.406316 56.213957 
L 320.959211 50.514916 
L 309.512105 45.601913 
L 298.065 43.839452 
z
" clip-path="url(#p7841beddad)" style="fill: #e377c2; fill-opacity: 0.4"/>
   </g>
   <g id="PolyCollection_16">
    <path d="M 298.065 33.569324 
L 298.065 33.569416 
L 309.512105 35.968446 
L 320.959211 42.213842 
L 332.406316 50.790391 
L 343.853421 60.381266 
L 355.300526 70.444837 
L 366.747632 80.768678 
L 378.194737 90.925047 
L 389.641842 100.086507 
L 401.088947 107.882042 
L 412.536053 115.414489 
L 423.983158 123.171001 
L 435.430263 129.130204 
L 446.877368 133.951189 
L 458.324474 139.387614 
L 469.771579 143.426203 
L 481.218684 147.445817 
L 492.665789 150.535207 
L 504.112895 153.053375 
L 515.56 156.460333 
L 515.56 146.699025 
L 515.56 146.699025 
L 504.112895 143.534134 
L 492.665789 139.994713 
L 481.218684 136.570175 
L 469.771579 132.057591 
L 458.324474 127.334078 
L 446.877368 122.505554 
L 435.430263 116.434081 
L 423.983158 109.547451 
L 412.536053 101.978256 
L 401.088947 93.957885 
L 389.641842 86.304202 
L 378.194737 77.717129 
L 366.747632 69.211876 
L 355.300526 61.1983 
L 343.853421 53.024414 
L 332.406316 45.459666 
L 320.959211 39.558827 
L 309.512105 34.99072 
L 298.065 33.569324 
z
" clip-path="url(#p7841beddad)" style="fill: #7f7f7f; fill-opacity: 0.4"/>
   </g>
   <g id="matplotlib.axis_3">
    <g id="xtick_6">
     <g id="line2d_19">
      <g>
       <use xlink:href="#m3f5b778da6" x="298.065" y="174.04" style="stroke: #000000; stroke-width: 0.8"/>
      </g>
     </g>
     <g id="text_14">
      <!-- 0.0 -->
      <g transform="translate(290.113437 188.638438)scale(0.1 -0.1)">
       <use xlink:href="#DejaVuSans-30"/>
       <use xlink:href="#DejaVuSans-2e" x="63.623047"/>
       <use xlink:href="#DejaVuSans-30" x="95.410156"/>
      </g>
     </g>
    </g>
    <g id="xtick_7">
     <g id="line2d_20">
      <g>
       <use xlink:href="#m3f5b778da6" x="352.43875" y="174.04" style="stroke: #000000; stroke-width: 0.8"/>
      </g>
     </g>
     <g id="text_15">
      <!-- 0.5 -->
      <g transform="translate(344.487187 188.638438)scale(0.1 -0.1)">
       <use xlink:href="#DejaVuSans-30"/>
       <use xlink:href="#DejaVuSans-2e" x="63.623047"/>
       <use xlink:href="#DejaVuSans-35" x="95.410156"/>
      </g>
     </g>
    </g>
    <g id="xtick_8">
     <g id="line2d_21">
      <g>
       <use xlink:href="#m3f5b778da6" x="406.8125" y="174.04" style="stroke: #000000; stroke-width: 0.8"/>
      </g>
     </g>
     <g id="text_16">
      <!-- 1.0 -->
      <g transform="translate(398.860937 188.638438)scale(0.1 -0.1)">
       <use xlink:href="#DejaVuSans-31"/>
       <use xlink:href="#DejaVuSans-2e" x="63.623047"/>
       <use xlink:href="#DejaVuSans-30" x="95.410156"/>
      </g>
     </g>
    </g>
    <g id="xtick_9">
     <g id="line2d_22">
      <g>
       <use xlink:href="#m3f5b778da6" x="461.18625" y="174.04" style="stroke: #000000; stroke-width: 0.8"/>
      </g>
     </g>
     <g id="text_17">
      <!-- 1.5 -->
      <g transform="translate(453.234687 188.638438)scale(0.1 -0.1)">
       <use xlink:href="#DejaVuSans-31"/>
       <use xlink:href="#DejaVuSans-2e" x="63.623047"/>
       <use xlink:href="#DejaVuSans-35" x="95.410156"/>
      </g>
     </g>
    </g>
    <g id="xtick_10">
     <g id="line2d_23">
      <g>
       <use xlink:href="#m3f5b778da6" x="515.56" y="174.04" style="stroke: #000000; stroke-width: 0.8"/>
      </g>
     </g>
     <g id="text_18">
      <!-- 2.0 -->
      <g transform="translate(507.608437 188.638438)scale(0.1 -0.1)">
       <use xlink:href="#DejaVuSans-32"/>
       <use xlink:href="#DejaVuSans-2e" x="63.623047"/>
       <use xlink:href="#DejaVuSans-30" x="95.410156"/>
      </g>
     </g>
    </g>
    <g id="text_19">
     <!-- Influence of surprisal (multiplication) -->
     <g transform="translate(314.665625 202.316563)scale(0.1 -0.1)">
      <use xlink:href="#DejaVuSans-49"/>
      <use xlink:href="#DejaVuSans-6e" x="29.492188"/>
      <use xlink:href="#DejaVuSans-66" x="92.871094"/>
      <use xlink:href="#DejaVuSans-6c" x="128.076172"/>
      <use xlink:href="#DejaVuSans-75" x="155.859375"/>
      <use xlink:href="#DejaVuSans-65" x="219.238281"/>
      <use xlink:href="#DejaVuSans-6e" x="280.761719"/>
      <use xlink:href="#DejaVuSans-63" x="344.140625"/>
      <use xlink:href="#DejaVuSans-65" x="399.121094"/>
      <use xlink:href="#DejaVuSans-20" x="460.644531"/>
      <use xlink:href="#DejaVuSans-6f" x="492.431641"/>
      <use xlink:href="#DejaVuSans-66" x="553.613281"/>
      <use xlink:href="#DejaVuSans-20" x="588.818359"/>
      <use xlink:href="#DejaVuSans-73" x="620.605469"/>
      <use xlink:href="#DejaVuSans-75" x="672.705078"/>
      <use xlink:href="#DejaVuSans-72" x="736.083984"/>
      <use xlink:href="#DejaVuSans-70" x="777.197266"/>
      <use xlink:href="#DejaVuSans-72" x="840.673828"/>
      <use xlink:href="#DejaVuSans-69" x="881.787109"/>
      <use xlink:href="#DejaVuSans-73" x="909.570312"/>
      <use xlink:href="#DejaVuSans-61" x="961.669922"/>
      <use xlink:href="#DejaVuSans-6c" x="1022.949219"/>
      <use xlink:href="#DejaVuSans-20" x="1050.732422"/>
      <use xlink:href="#DejaVuSans-28" x="1082.519531"/>
      <use xlink:href="#DejaVuSans-6d" x="1121.533203"/>
      <use xlink:href="#DejaVuSans-75" x="1218.945312"/>
      <use xlink:href="#DejaVuSans-6c" x="1282.324219"/>
      <use xlink:href="#DejaVuSans-74" x="1310.107422"/>
      <use xlink:href="#DejaVuSans-69" x="1349.316406"/>
      <use xlink:href="#DejaVuSans-70" x="1377.099609"/>
      <use xlink:href="#DejaVuSans-6c" x="1440.576172"/>
      <use xlink:href="#DejaVuSans-69" x="1468.359375"/>
      <use xlink:href="#DejaVuSans-63" x="1496.142578"/>
      <use xlink:href="#DejaVuSans-61" x="1551.123047"/>
      <use xlink:href="#DejaVuSans-74" x="1612.402344"/>
      <use xlink:href="#DejaVuSans-69" x="1651.611328"/>
      <use xlink:href="#DejaVuSans-6f" x="1679.394531"/>
      <use xlink:href="#DejaVuSans-6e" x="1740.576172"/>
      <use xlink:href="#DejaVuSans-29" x="1803.955078"/>
     </g>
    </g>
   </g>
   <g id="line2d_24">
    <path d="M 298.065 33.569091 
L 309.512105 35.475581 
L 320.959211 40.878837 
L 332.406316 48.118074 
L 343.853421 56.696809 
L 355.300526 65.810283 
L 366.747632 74.994504 
L 378.194737 84.306846 
L 389.641842 93.179515 
L 401.088947 100.903311 
L 412.536053 108.691405 
L 423.983158 116.300388 
L 435.430263 122.66433 
L 446.877368 128.023947 
L 458.324474 133.140246 
L 469.771579 137.461031 
L 481.218684 141.768544 
L 492.665789 145.06484 
L 504.112895 148.148094 
L 515.56 151.388753 
" clip-path="url(#p7841beddad)" style="fill: none; stroke: #1f77b4; stroke-width: 1.5; stroke-linecap: square"/>
   </g>
   <g id="line2d_25">
    <path d="M 298.065 33.569226 
L 309.512105 35.476061 
L 320.959211 40.879116 
L 332.406316 48.118987 
L 343.853421 56.709007 
L 355.300526 65.847041 
L 366.747632 75.045785 
L 378.194737 84.36365 
L 389.641842 93.239136 
L 401.088947 100.96958 
L 412.536053 108.739247 
L 423.983158 116.40328 
L 435.430263 122.803075 
L 446.877368 128.160133 
L 458.324474 133.271596 
L 469.771579 137.640454 
L 481.218684 141.860123 
L 492.665789 145.204233 
L 504.112895 148.246909 
L 515.56 151.473545 
" clip-path="url(#p7841beddad)" style="fill: none; stroke: #ff7f0e; stroke-width: 1.5; stroke-linecap: square"/>
   </g>
   <g id="line2d_26">
    <path d="M 298.065 33.569091 
L 309.512105 35.480546 
L 320.959211 40.891774 
L 332.406316 48.136319 
L 343.853421 56.737065 
L 355.300526 65.882027 
L 366.747632 75.076795 
L 378.194737 84.463299 
L 389.641842 93.347402 
L 401.088947 101.056714 
L 412.536053 108.897769 
L 423.983158 116.511895 
L 435.430263 122.895943 
L 446.877368 128.264826 
L 458.324474 133.32375 
L 469.771579 137.641618 
L 481.218684 142.006674 
L 492.665789 145.35029 
L 504.112895 148.330844 
L 515.56 151.597108 
" clip-path="url(#p7841beddad)" style="fill: none; stroke: #2ca02c; stroke-width: 1.5; stroke-linecap: square"/>
   </g>
   <g id="line2d_27">
    <path d="M 298.065 33.56984 
L 309.512105 35.479466 
L 320.959211 40.898601 
L 332.406316 48.143093 
L 343.853421 56.758881 
L 355.300526 65.925514 
L 366.747632 75.16024 
L 378.194737 84.572902 
L 389.641842 93.49507 
L 401.088947 101.252708 
L 412.536053 109.112495 
L 423.983158 116.794299 
L 435.430263 123.214494 
L 446.877368 128.596058 
L 458.324474 133.726328 
L 469.771579 138.07951 
L 481.218684 142.368951 
L 492.665789 145.712927 
L 504.112895 148.71036 
L 515.56 151.952609 
" clip-path="url(#p7841beddad)" style="fill: none; stroke: #d62728; stroke-width: 1.5; stroke-linecap: square"/>
   </g>
   <g id="line2d_28">
    <path d="M 298.065 33.569091 
L 309.512105 35.477928 
L 320.959211 40.873779 
L 332.406316 48.092264 
L 343.853421 56.763104 
L 355.300526 65.764714 
L 366.747632 74.933177 
L 378.194737 84.533809 
L 389.641842 93.322509 
L 401.088947 101.047897 
L 412.536053 108.785393 
L 423.983158 116.450432 
L 435.430263 122.455976 
L 446.877368 128.575036 
L 458.324474 133.223371 
L 469.771579 137.693127 
L 481.218684 142.773794 
L 492.665789 144.70674 
L 504.112895 148.188938 
L 515.56 151.950292 
" clip-path="url(#p7841beddad)" style="fill: none; stroke: #9467bd; stroke-width: 1.5; stroke-linecap: square"/>
   </g>
   <g id="line2d_29">
    <path d="M 298.065 33.569631 
L 309.512105 35.47914 
L 320.959211 40.875404 
L 332.406316 48.094116 
L 343.853421 56.775607 
L 355.300526 65.801946 
L 366.747632 74.986066 
L 378.194737 84.595375 
L 389.641842 93.370772 
L 401.088947 101.094304 
L 412.536053 108.834397 
L 423.983158 116.565407 
L 435.430263 122.581703 
L 446.877368 128.71462 
L 458.324474 133.374709 
L 469.771579 137.894932 
L 481.218684 142.826649 
L 492.665789 144.84945 
L 504.112895 148.275974 
L 515.56 152.007893 
" clip-path="url(#p7841beddad)" style="fill: none; stroke: #8c564b; stroke-width: 1.5; stroke-linecap: square"/>
   </g>
   <g id="line2d_30">
    <path d="M 298.065 45.176792 
L 309.512105 46.997257 
L 320.959211 52.109744 
L 332.406316 58.9299 
L 343.853421 66.979866 
L 355.300526 75.395664 
L 366.747632 83.950025 
L 378.194737 92.315281 
L 389.641842 100.586645 
L 401.088947 107.699987 
L 412.536053 115.14338 
L 423.983158 122.293528 
L 435.430263 128.163636 
L 446.877368 133.272162 
L 458.324474 138.41601 
L 469.771579 142.300825 
L 481.218684 146.521566 
L 492.665789 149.46334 
L 504.112895 152.427135 
L 515.56 155.372324 
" clip-path="url(#p7841beddad)" style="fill: none; stroke: #e377c2; stroke-width: 1.5; stroke-linecap: square"/>
   </g>
   <g id="line2d_31">
    <path d="M 298.065 33.56937 
L 309.512105 35.479583 
L 320.959211 40.886334 
L 332.406316 48.125028 
L 343.853421 56.70284 
L 355.300526 65.821569 
L 366.747632 74.990277 
L 378.194737 84.321088 
L 389.641842 93.195355 
L 401.088947 100.919963 
L 412.536053 108.696373 
L 423.983158 116.359226 
L 435.430263 122.782142 
L 446.877368 128.228371 
L 458.324474 133.360846 
L 469.771579 137.741897 
L 481.218684 142.007996 
L 492.665789 145.26496 
L 504.112895 148.293755 
L 515.56 151.579679 
" clip-path="url(#p7841beddad)" style="fill: none; stroke: #7f7f7f; stroke-width: 1.5; stroke-linecap: square"/>
   </g>
   <g id="patch_6">
    <path d="M 298.065 174.04 
L 298.065 26.88 
" style="fill: none; stroke: #000000; stroke-width: 0.8; stroke-linejoin: miter; stroke-linecap: square"/>
   </g>
   <g id="patch_7">
    <path d="M 298.065 174.04 
L 515.56 174.04 
" style="fill: none; stroke: #000000; stroke-width: 0.8; stroke-linejoin: miter; stroke-linecap: square"/>
   </g>
   <g id="text_20">
    <!-- Node * third variable -->
    <g transform="translate(344.2325 20.88)scale(0.12 -0.12)">
     <defs>
      <path id="DejaVuSans-68" d="M 3513 2113 
L 3513 0 
L 2938 0 
L 2938 2094 
Q 2938 2591 2744 2837 
Q 2550 3084 2163 3084 
Q 1697 3084 1428 2787 
Q 1159 2491 1159 1978 
L 1159 0 
L 581 0 
L 581 4863 
L 1159 4863 
L 1159 2956 
Q 1366 3272 1645 3428 
Q 1925 3584 2291 3584 
Q 2894 3584 3203 3211 
Q 3513 2838 3513 2113 
z
" transform="scale(0.015625)"/>
      <path id="DejaVuSans-62" d="M 3116 1747 
Q 3116 2381 2855 2742 
Q 2594 3103 2138 3103 
Q 1681 3103 1420 2742 
Q 1159 2381 1159 1747 
Q 1159 1113 1420 752 
Q 1681 391 2138 391 
Q 2594 391 2855 752 
Q 3116 1113 3116 1747 
z
M 1159 2969 
Q 1341 3281 1617 3432 
Q 1894 3584 2278 3584 
Q 2916 3584 3314 3078 
Q 3713 2572 3713 1747 
Q 3713 922 3314 415 
Q 2916 -91 2278 -91 
Q 1894 -91 1617 61 
Q 1341 213 1159 525 
L 1159 0 
L 581 0 
L 581 4863 
L 1159 4863 
L 1159 2969 
z
" transform="scale(0.015625)"/>
     </defs>
     <use xlink:href="#DejaVuSans-4e"/>
     <use xlink:href="#DejaVuSans-6f" x="74.804688"/>
     <use xlink:href="#DejaVuSans-64" x="135.986328"/>
     <use xlink:href="#DejaVuSans-65" x="199.462891"/>
     <use xlink:href="#DejaVuSans-20" x="260.986328"/>
     <use xlink:href="#DejaVuSans-2a" x="292.773438"/>
     <use xlink:href="#DejaVuSans-20" x="342.773438"/>
     <use xlink:href="#DejaVuSans-74" x="374.560547"/>
     <use xlink:href="#DejaVuSans-68" x="413.769531"/>
     <use xlink:href="#DejaVuSans-69" x="477.148438"/>
     <use xlink:href="#DejaVuSans-72" x="504.931641"/>
     <use xlink:href="#DejaVuSans-64" x="544.294922"/>
     <use xlink:href="#DejaVuSans-20" x="607.771484"/>
     <use xlink:href="#DejaVuSans-76" x="639.558594"/>
     <use xlink:href="#DejaVuSans-61" x="698.738281"/>
     <use xlink:href="#DejaVuSans-72" x="760.017578"/>
     <use xlink:href="#DejaVuSans-69" x="801.130859"/>
     <use xlink:href="#DejaVuSans-61" x="828.914062"/>
     <use xlink:href="#DejaVuSans-62" x="890.193359"/>
     <use xlink:href="#DejaVuSans-6c" x="953.669922"/>
     <use xlink:href="#DejaVuSans-65" x="981.453125"/>
    </g>
   </g>
   <g id="legend_1">
    <g id="line2d_32">
     <path d="M 524.56 39.978437 
L 534.56 39.978437 
L 544.56 39.978437 
" style="fill: none; stroke: #1f77b4; stroke-width: 1.5; stroke-linecap: square"/>
    </g>
    <g id="text_21">
     <!-- Node -->
     <g transform="translate(552.56 43.478437)scale(0.1 -0.1)">
      <use xlink:href="#DejaVuSans-4e"/>
      <use xlink:href="#DejaVuSans-6f" x="74.804688"/>
      <use xlink:href="#DejaVuSans-64" x="135.986328"/>
      <use xlink:href="#DejaVuSans-65" x="199.462891"/>
     </g>
    </g>
    <g id="line2d_33">
     <path d="M 524.56 54.656563 
L 534.56 54.656563 
L 544.56 54.656563 
" style="fill: none; stroke: #ff7f0e; stroke-width: 1.5; stroke-linecap: square"/>
    </g>
    <g id="text_22">
     <!-- Node + surprisal -->
     <g transform="translate(552.56 58.156563)scale(0.1 -0.1)">
      <defs>
       <path id="DejaVuSans-2b" d="M 2944 4013 
L 2944 2272 
L 4684 2272 
L 4684 1741 
L 2944 1741 
L 2944 0 
L 2419 0 
L 2419 1741 
L 678 1741 
L 678 2272 
L 2419 2272 
L 2419 4013 
L 2944 4013 
z
" transform="scale(0.015625)"/>
      </defs>
      <use xlink:href="#DejaVuSans-4e"/>
      <use xlink:href="#DejaVuSans-6f" x="74.804688"/>
      <use xlink:href="#DejaVuSans-64" x="135.986328"/>
      <use xlink:href="#DejaVuSans-65" x="199.462891"/>
      <use xlink:href="#DejaVuSans-20" x="260.986328"/>
      <use xlink:href="#DejaVuSans-2b" x="292.773438"/>
      <use xlink:href="#DejaVuSans-20" x="376.5625"/>
      <use xlink:href="#DejaVuSans-73" x="408.349609"/>
      <use xlink:href="#DejaVuSans-75" x="460.449219"/>
      <use xlink:href="#DejaVuSans-72" x="523.828125"/>
      <use xlink:href="#DejaVuSans-70" x="564.941406"/>
      <use xlink:href="#DejaVuSans-72" x="628.417969"/>
      <use xlink:href="#DejaVuSans-69" x="669.53125"/>
      <use xlink:href="#DejaVuSans-73" x="697.314453"/>
      <use xlink:href="#DejaVuSans-61" x="749.414062"/>
      <use xlink:href="#DejaVuSans-6c" x="810.693359"/>
     </g>
    </g>
    <g id="line2d_34">
     <path d="M 524.56 69.334687 
L 534.56 69.334687 
L 544.56 69.334687 
" style="fill: none; stroke: #2ca02c; stroke-width: 1.5; stroke-linecap: square"/>
    </g>
    <g id="text_23">
     <!-- Node split -->
     <g transform="translate(552.56 72.834687)scale(0.1 -0.1)">
      <use xlink:href="#DejaVuSans-4e"/>
      <use xlink:href="#DejaVuSans-6f" x="74.804688"/>
      <use xlink:href="#DejaVuSans-64" x="135.986328"/>
      <use xlink:href="#DejaVuSans-65" x="199.462891"/>
      <use xlink:href="#DejaVuSans-20" x="260.986328"/>
      <use xlink:href="#DejaVuSans-73" x="292.773438"/>
      <use xlink:href="#DejaVuSans-70" x="344.873047"/>
      <use xlink:href="#DejaVuSans-6c" x="408.349609"/>
      <use xlink:href="#DejaVuSans-69" x="436.132812"/>
      <use xlink:href="#DejaVuSans-74" x="463.916016"/>
     </g>
    </g>
    <g id="line2d_35">
     <path d="M 524.56 84.012812 
L 534.56 84.012812 
L 544.56 84.012812 
" style="fill: none; stroke: #d62728; stroke-width: 1.5; stroke-linecap: square"/>
    </g>
    <g id="text_24">
     <!-- Node split + surprisal -->
     <g transform="translate(552.56 87.512812)scale(0.1 -0.1)">
      <use xlink:href="#DejaVuSans-4e"/>
      <use xlink:href="#DejaVuSans-6f" x="74.804688"/>
      <use xlink:href="#DejaVuSans-64" x="135.986328"/>
      <use xlink:href="#DejaVuSans-65" x="199.462891"/>
      <use xlink:href="#DejaVuSans-20" x="260.986328"/>
      <use xlink:href="#DejaVuSans-73" x="292.773438"/>
      <use xlink:href="#DejaVuSans-70" x="344.873047"/>
      <use xlink:href="#DejaVuSans-6c" x="408.349609"/>
      <use xlink:href="#DejaVuSans-69" x="436.132812"/>
      <use xlink:href="#DejaVuSans-74" x="463.916016"/>
      <use xlink:href="#DejaVuSans-20" x="503.125"/>
      <use xlink:href="#DejaVuSans-2b" x="534.912109"/>
      <use xlink:href="#DejaVuSans-20" x="618.701172"/>
      <use xlink:href="#DejaVuSans-73" x="650.488281"/>
      <use xlink:href="#DejaVuSans-75" x="702.587891"/>
      <use xlink:href="#DejaVuSans-72" x="765.966797"/>
      <use xlink:href="#DejaVuSans-70" x="807.080078"/>
      <use xlink:href="#DejaVuSans-72" x="870.556641"/>
      <use xlink:href="#DejaVuSans-69" x="911.669922"/>
      <use xlink:href="#DejaVuSans-73" x="939.453125"/>
      <use xlink:href="#DejaVuSans-61" x="991.552734"/>
      <use xlink:href="#DejaVuSans-6c" x="1052.832031"/>
     </g>
    </g>
    <g id="line2d_36">
     <path d="M 524.56 98.690937 
L 534.56 98.690937 
L 544.56 98.690937 
" style="fill: none; stroke: #9467bd; stroke-width: 1.5; stroke-linecap: square"/>
    </g>
    <g id="text_25">
     <!-- Node random split -->
     <g transform="translate(552.56 102.190937)scale(0.1 -0.1)">
      <use xlink:href="#DejaVuSans-4e"/>
      <use xlink:href="#DejaVuSans-6f" x="74.804688"/>
      <use xlink:href="#DejaVuSans-64" x="135.986328"/>
      <use xlink:href="#DejaVuSans-65" x="199.462891"/>
      <use xlink:href="#DejaVuSans-20" x="260.986328"/>
      <use xlink:href="#DejaVuSans-72" x="292.773438"/>
      <use xlink:href="#DejaVuSans-61" x="333.886719"/>
      <use xlink:href="#DejaVuSans-6e" x="395.166016"/>
      <use xlink:href="#DejaVuSans-64" x="458.544922"/>
      <use xlink:href="#DejaVuSans-6f" x="522.021484"/>
      <use xlink:href="#DejaVuSans-6d" x="583.203125"/>
      <use xlink:href="#DejaVuSans-20" x="680.615234"/>
      <use xlink:href="#DejaVuSans-73" x="712.402344"/>
      <use xlink:href="#DejaVuSans-70" x="764.501953"/>
      <use xlink:href="#DejaVuSans-6c" x="827.978516"/>
      <use xlink:href="#DejaVuSans-69" x="855.761719"/>
      <use xlink:href="#DejaVuSans-74" x="883.544922"/>
     </g>
    </g>
    <g id="line2d_37">
     <path d="M 524.56 113.369062 
L 534.56 113.369062 
L 544.56 113.369062 
" style="fill: none; stroke: #8c564b; stroke-width: 1.5; stroke-linecap: square"/>
    </g>
    <g id="text_26">
     <!-- Node random split + surprisal -->
     <g transform="translate(552.56 116.869062)scale(0.1 -0.1)">
      <use xlink:href="#DejaVuSans-4e"/>
      <use xlink:href="#DejaVuSans-6f" x="74.804688"/>
      <use xlink:href="#DejaVuSans-64" x="135.986328"/>
      <use xlink:href="#DejaVuSans-65" x="199.462891"/>
      <use xlink:href="#DejaVuSans-20" x="260.986328"/>
      <use xlink:href="#DejaVuSans-72" x="292.773438"/>
      <use xlink:href="#DejaVuSans-61" x="333.886719"/>
      <use xlink:href="#DejaVuSans-6e" x="395.166016"/>
      <use xlink:href="#DejaVuSans-64" x="458.544922"/>
      <use xlink:href="#DejaVuSans-6f" x="522.021484"/>
      <use xlink:href="#DejaVuSans-6d" x="583.203125"/>
      <use xlink:href="#DejaVuSans-20" x="680.615234"/>
      <use xlink:href="#DejaVuSans-73" x="712.402344"/>
      <use xlink:href="#DejaVuSans-70" x="764.501953"/>
      <use xlink:href="#DejaVuSans-6c" x="827.978516"/>
      <use xlink:href="#DejaVuSans-69" x="855.761719"/>
      <use xlink:href="#DejaVuSans-74" x="883.544922"/>
      <use xlink:href="#DejaVuSans-20" x="922.753906"/>
      <use xlink:href="#DejaVuSans-2b" x="954.541016"/>
      <use xlink:href="#DejaVuSans-20" x="1038.330078"/>
      <use xlink:href="#DejaVuSans-73" x="1070.117188"/>
      <use xlink:href="#DejaVuSans-75" x="1122.216797"/>
      <use xlink:href="#DejaVuSans-72" x="1185.595703"/>
      <use xlink:href="#DejaVuSans-70" x="1226.708984"/>
      <use xlink:href="#DejaVuSans-72" x="1290.185547"/>
      <use xlink:href="#DejaVuSans-69" x="1331.298828"/>
      <use xlink:href="#DejaVuSans-73" x="1359.082031"/>
      <use xlink:href="#DejaVuSans-61" x="1411.181641"/>
      <use xlink:href="#DejaVuSans-6c" x="1472.460938"/>
     </g>
    </g>
    <g id="line2d_38">
     <path d="M 524.56 128.047187 
L 534.56 128.047187 
L 544.56 128.047187 
" style="fill: none; stroke: #e377c2; stroke-width: 1.5; stroke-linecap: square"/>
    </g>
    <g id="text_27">
     <!-- Interaction -->
     <g transform="translate(552.56 131.547187)scale(0.1 -0.1)">
      <use xlink:href="#DejaVuSans-49"/>
      <use xlink:href="#DejaVuSans-6e" x="29.492188"/>
      <use xlink:href="#DejaVuSans-74" x="92.871094"/>
      <use xlink:href="#DejaVuSans-65" x="132.080078"/>
      <use xlink:href="#DejaVuSans-72" x="193.603516"/>
      <use xlink:href="#DejaVuSans-61" x="234.716797"/>
      <use xlink:href="#DejaVuSans-63" x="295.996094"/>
      <use xlink:href="#DejaVuSans-74" x="350.976562"/>
      <use xlink:href="#DejaVuSans-69" x="390.185547"/>
      <use xlink:href="#DejaVuSans-6f" x="417.96875"/>
      <use xlink:href="#DejaVuSans-6e" x="479.150391"/>
     </g>
    </g>
    <g id="line2d_39">
     <path d="M 524.56 142.725312 
L 534.56 142.725312 
L 544.56 142.725312 
" style="fill: none; stroke: #7f7f7f; stroke-width: 1.5; stroke-linecap: square"/>
    </g>
    <g id="text_28">
     <!-- Node + surprisal + interaction -->
     <g transform="translate(552.56 146.225312)scale(0.1 -0.1)">
      <use xlink:href="#DejaVuSans-4e"/>
      <use xlink:href="#DejaVuSans-6f" x="74.804688"/>
      <use xlink:href="#DejaVuSans-64" x="135.986328"/>
      <use xlink:href="#DejaVuSans-65" x="199.462891"/>
      <use xlink:href="#DejaVuSans-20" x="260.986328"/>
      <use xlink:href="#DejaVuSans-2b" x="292.773438"/>
      <use xlink:href="#DejaVuSans-20" x="376.5625"/>
      <use xlink:href="#DejaVuSans-73" x="408.349609"/>
      <use xlink:href="#DejaVuSans-75" x="460.449219"/>
      <use xlink:href="#DejaVuSans-72" x="523.828125"/>
      <use xlink:href="#DejaVuSans-70" x="564.941406"/>
      <use xlink:href="#DejaVuSans-72" x="628.417969"/>
      <use xlink:href="#DejaVuSans-69" x="669.53125"/>
      <use xlink:href="#DejaVuSans-73" x="697.314453"/>
      <use xlink:href="#DejaVuSans-61" x="749.414062"/>
      <use xlink:href="#DejaVuSans-6c" x="810.693359"/>
      <use xlink:href="#DejaVuSans-20" x="838.476562"/>
      <use xlink:href="#DejaVuSans-2b" x="870.263672"/>
      <use xlink:href="#DejaVuSans-20" x="954.052734"/>
      <use xlink:href="#DejaVuSans-69" x="985.839844"/>
      <use xlink:href="#DejaVuSans-6e" x="1013.623047"/>
      <use xlink:href="#DejaVuSans-74" x="1077.001953"/>
      <use xlink:href="#DejaVuSans-65" x="1116.210938"/>
      <use xlink:href="#DejaVuSans-72" x="1177.734375"/>
      <use xlink:href="#DejaVuSans-61" x="1218.847656"/>
      <use xlink:href="#DejaVuSans-63" x="1280.126953"/>
      <use xlink:href="#DejaVuSans-74" x="1335.107422"/>
      <use xlink:href="#DejaVuSans-69" x="1374.316406"/>
      <use xlink:href="#DejaVuSans-6f" x="1402.099609"/>
      <use xlink:href="#DejaVuSans-6e" x="1463.28125"/>
     </g>
    </g>
   </g>
  </g>
 </g>
 <defs>
  <clipPath id="p8a4c76f353">
   <rect x="47.72" y="26.88" width="217.495" height="147.16"/>
  </clipPath>
  <clipPath id="p7841beddad">
   <rect x="298.065" y="26.88" width="217.495" height="147.16"/>
  </clipPath>
 </defs>
</svg>
