<?xml version="1.0" encoding="utf-8" standalone="no"?>
<!DOCTYPE svg PUBLIC "-//W3C//DTD SVG 1.1//EN"
  "http://www.w3.org/Graphics/SVG/1.1/DTD/svg11.dtd">
<svg xmlns:xlink="http://www.w3.org/1999/xlink" width="648pt" height="288pt" viewBox="0 0 648 288" xmlns="http://www.w3.org/2000/svg" version="1.1">
 <metadata>
  <rdf:RDF xmlns:dc="http://purl.org/dc/elements/1.1/" xmlns:cc="http://creativecommons.org/ns#" xmlns:rdf="http://www.w3.org/1999/02/22-rdf-syntax-ns#">
   <cc:Work>
    <dc:type rdf:resource="http://purl.org/dc/dcmitype/StillImage"/>
    <dc:date>2024-01-16T09:17:46.419796</dc:date>
    <dc:format>image/svg+xml</dc:format>
    <dc:creator>
     <cc:Agent>
      <dc:title>Matplotlib v3.5.1, https://matplotlib.org/</dc:title>
     </cc:Agent>
    </dc:creator>
   </cc:Work>
  </rdf:RDF>
 </metadata>
 <defs>
  <style type="text/css">*{stroke-linejoin: round; stroke-linecap: butt}</style>
 </defs>
 <g id="figure_1">
  <g id="patch_1">
   <path d="M 0 288 
L 648 288 
L 648 0 
L 0 0 
z
" style="fill: #ffffff"/>
  </g>
  <g id="axes_1">
   <g id="patch_2">
    <path d="M 47.675 246.2 
L 325.1625 246.2 
L 325.1625 26.8 
L 47.675 26.8 
z
" style="fill: #ffffff"/>
   </g>
   <g id="PolyCollection_1">
    <path d="M 47.675 36.772727 
L 47.675 36.772727 
L 62.279605 40.529234 
L 76.884211 50.865344 
L 91.488816 64.195351 
L 106.093421 80.021551 
L 120.698026 96.768277 
L 135.302632 113.406346 
L 149.907237 129.378155 
L 164.511842 144.233918 
L 179.116447 157.800506 
L 193.721053 170.312255 
L 208.325658 181.347008 
L 222.930263 191.224624 
L 237.534868 200.192602 
L 252.139474 207.881626 
L 266.744079 214.679663 
L 281.348684 220.707449 
L 295.953289 225.969704 
L 310.557895 230.553679 
L 325.1625 234.565334 
L 325.1625 217.445983 
L 325.1625 217.445983 
L 310.557895 212.684127 
L 295.953289 207.348975 
L 281.348684 201.561179 
L 266.744079 194.985542 
L 252.139474 187.713839 
L 237.534868 179.584438 
L 222.930263 170.674945 
L 208.325658 160.853945 
L 193.721053 150.100621 
L 179.116447 138.28235 
L 164.511842 125.378375 
L 149.907237 111.817312 
L 135.302632 97.538143 
L 120.698026 83.027737 
L 106.093421 69.19522 
L 91.488816 56.6574 
L 76.884211 46.727028 
L 62.279605 39.181293 
L 47.675 36.772727 
z
" clip-path="url(#p4f3cb299fd)" style="fill: #1f77b4; fill-opacity: 0.2"/>
   </g>
   <g id="PolyCollection_2">
    <path d="M 47.675 36.772916 
L 47.675 36.773011 
L 62.279605 39.197281 
L 76.884211 45.034215 
L 91.488816 53.484997 
L 106.093421 64.631879 
L 120.698026 77.525294 
L 135.302632 91.445988 
L 149.907237 105.662076 
L 164.511842 119.689935 
L 179.116447 133.165823 
L 193.721053 146.012394 
L 208.325658 157.933196 
L 222.930263 168.858204 
L 237.534868 179.036876 
L 252.139474 188.056284 
L 266.744079 196.261186 
L 281.348684 203.622107 
L 295.953289 210.21231 
L 310.557895 216.094815 
L 325.1625 221.291964 
L 325.1625 202.876168 
L 325.1625 202.876168 
L 310.557895 197.20357 
L 295.953289 190.926211 
L 281.348684 184.204598 
L 266.744079 176.656685 
L 252.139474 168.469802 
L 237.534868 159.480496 
L 222.930263 149.727671 
L 208.325658 139.230575 
L 193.721053 128.053153 
L 179.116447 116.152673 
L 164.511842 103.734949 
L 149.907237 91.249108 
L 135.302632 78.901843 
L 120.698026 67.174239 
L 106.093421 56.89591 
L 91.488816 48.554795 
L 76.884211 42.598059 
L 62.279605 38.383596 
L 47.675 36.772916 
z
" clip-path="url(#p4f3cb299fd)" style="fill: #ff7f0e; fill-opacity: 0.2"/>
   </g>
   <g id="PolyCollection_3">
    <path d="M 47.675 36.772727 
L 47.675 36.772728 
L 62.279605 39.6374 
L 76.884211 44.773069 
L 91.488816 50.960749 
L 106.093421 58.331592 
L 120.698026 66.175705 
L 135.302632 74.228526 
L 149.907237 82.130605 
L 164.511842 90.017703 
L 179.116447 97.630986 
L 193.721053 105.293629 
L 208.325658 112.739168 
L 222.930263 119.980001 
L 237.534868 127.100058 
L 252.139474 134.094972 
L 266.744079 140.9977 
L 281.348684 147.636464 
L 295.953289 154.151529 
L 310.557895 160.477646 
L 325.1625 166.543601 
L 325.1625 148.696092 
L 325.1625 148.696092 
L 310.557895 142.874842 
L 295.953289 137.002625 
L 281.348684 130.984864 
L 266.744079 124.679609 
L 252.139474 118.328503 
L 237.534868 111.824016 
L 222.930263 105.104925 
L 208.325658 98.301978 
L 193.721053 91.419031 
L 179.116447 84.441311 
L 164.511842 77.464481 
L 149.907237 70.546487 
L 135.302632 63.783872 
L 120.698026 57.237634 
L 106.093421 51.185719 
L 91.488816 45.931638 
L 76.884211 42.011694 
L 62.279605 38.653632 
L 47.675 36.772727 
z
" clip-path="url(#p4f3cb299fd)" style="fill: #2ca02c; fill-opacity: 0.2"/>
   </g>
   <g id="PolyCollection_4">
    <path d="M 47.675 36.773737 
L 47.675 36.774324 
L 62.279605 39.031795 
L 76.884211 42.947938 
L 91.488816 48.067787 
L 106.093421 54.651173 
L 120.698026 62.127641 
L 135.302632 70.172764 
L 149.907237 78.344342 
L 164.511842 86.614705 
L 179.116447 94.682621 
L 193.721053 102.75999 
L 208.325658 110.54998 
L 222.930263 118.013589 
L 237.534868 125.215446 
L 252.139474 132.179723 
L 266.744079 138.923895 
L 281.348684 145.324093 
L 295.953289 151.507231 
L 310.557895 157.434777 
L 325.1625 163.07188 
L 325.1625 145.808493 
L 325.1625 145.808493 
L 310.557895 140.31412 
L 295.953289 134.746744 
L 281.348684 128.979858 
L 266.744079 122.890648 
L 252.139474 116.657414 
L 237.534868 110.202679 
L 222.930263 103.436055 
L 208.325658 96.514189 
L 193.721053 89.425538 
L 179.116447 82.173233 
L 164.511842 74.911002 
L 149.907237 67.739954 
L 135.302632 60.8511 
L 120.698026 54.367659 
L 106.093421 48.686663 
L 91.488816 44.105292 
L 76.884211 40.918097 
L 62.279605 38.300826 
L 47.675 36.773737 
z
" clip-path="url(#p4f3cb299fd)" style="fill: #d62728; fill-opacity: 0.2"/>
   </g>
   <g id="PolyCollection_5">
    <path d="M 47.675 36.772727 
L 47.675 36.772728 
L 62.279605 40.533631 
L 76.884211 50.889279 
L 91.488816 64.245255 
L 106.093421 80.121606 
L 120.698026 96.90865 
L 135.302632 113.550099 
L 149.907237 129.484894 
L 164.511842 144.475599 
L 179.116447 158.095371 
L 193.721053 170.649207 
L 208.325658 181.81972 
L 222.930263 191.76266 
L 237.534868 200.892639 
L 252.139474 208.492035 
L 266.744079 215.486539 
L 281.348684 221.582589 
L 295.953289 226.825421 
L 310.557895 231.533959 
L 325.1625 235.808715 
L 325.1625 218.468125 
L 325.1625 218.468125 
L 310.557895 213.622453 
L 295.953289 208.126351 
L 281.348684 202.171637 
L 266.744079 195.650105 
L 252.139474 188.295139 
L 237.534868 180.103596 
L 222.930263 171.09191 
L 208.325658 161.293268 
L 193.721053 150.422086 
L 179.116447 138.56588 
L 164.511842 125.617901 
L 149.907237 111.987272 
L 135.302632 97.661069 
L 120.698026 83.158734 
L 106.093421 69.254134 
L 91.488816 56.693889 
L 76.884211 46.740148 
L 62.279605 39.187051 
L 47.675 36.772727 
z
" clip-path="url(#p4f3cb299fd)" style="fill: #9467bd; fill-opacity: 0.2"/>
   </g>
   <g id="PolyCollection_6">
    <path d="M 47.675 36.773484 
L 47.675 36.773859 
L 62.279605 39.201723 
L 76.884211 45.051973 
L 91.488816 53.522731 
L 106.093421 64.684555 
L 120.698026 77.61779 
L 135.302632 91.546653 
L 149.907237 105.770715 
L 164.511842 119.885882 
L 179.116447 133.377974 
L 193.721053 146.236551 
L 208.325658 158.247003 
L 222.930263 169.271696 
L 237.534868 179.530583 
L 252.139474 188.553035 
L 266.744079 196.849462 
L 281.348684 204.265595 
L 295.953289 210.843293 
L 310.557895 216.864624 
L 325.1625 222.215802 
L 325.1625 203.744064 
L 325.1625 203.744064 
L 310.557895 197.927462 
L 295.953289 191.546187 
L 281.348684 184.701951 
L 266.744079 177.180589 
L 252.139474 168.900119 
L 237.534868 159.865697 
L 222.930263 150.00504 
L 208.325658 139.557418 
L 193.721053 128.290131 
L 179.116447 116.346009 
L 164.511842 103.886413 
L 149.907237 91.354664 
L 135.302632 78.992426 
L 120.698026 67.23098 
L 106.093421 56.932631 
L 91.488816 48.565263 
L 76.884211 42.603467 
L 62.279605 38.386439 
L 47.675 36.773484 
z
" clip-path="url(#p4f3cb299fd)" style="fill: #8c564b; fill-opacity: 0.2"/>
   </g>
   <g id="PolyCollection_7">
    <path d="M 47.675 36.773068 
L 47.675 36.773341 
L 62.279605 37.853216 
L 76.884211 39.839587 
L 91.488816 44.588007 
L 106.093421 52.431458 
L 120.698026 62.825922 
L 135.302632 74.947408 
L 149.907237 87.936809 
L 164.511842 101.342126 
L 179.116447 114.653441 
L 193.721053 127.559156 
L 208.325658 139.804871 
L 222.930263 151.243645 
L 237.534868 162.025576 
L 252.139474 171.793353 
L 266.744079 180.9287 
L 281.348684 189.156005 
L 295.953289 196.715111 
L 310.557895 203.556553 
L 325.1625 209.740963 
L 325.1625 191.412988 
L 325.1625 191.412988 
L 310.557895 184.819398 
L 295.953289 177.540081 
L 281.348684 169.735665 
L 266.744079 160.958324 
L 252.139474 151.611709 
L 237.534868 141.342827 
L 222.930263 130.381858 
L 208.325658 118.678591 
L 193.721053 106.488492 
L 179.116447 93.891456 
L 164.511842 81.483817 
L 149.907237 69.490653 
L 135.302632 58.728142 
L 120.698026 49.545645 
L 106.093421 43.096114 
L 91.488816 39.296033 
L 76.884211 37.955246 
L 62.279605 37.588737 
L 47.675 36.773068 
z
" clip-path="url(#p4f3cb299fd)" style="fill: #e377c2; fill-opacity: 0.2"/>
   </g>
   <g id="matplotlib.axis_1">
    <g id="xtick_1">
     <g id="line2d_1">
      <defs>
       <path id="m67d0dd39f0" d="M 0 0 
L 0 3.5 
" style="stroke: #000000; stroke-width: 0.8"/>
      </defs>
      <g>
       <use xlink:href="#m67d0dd39f0" x="47.675" y="246.2" style="stroke: #000000; stroke-width: 0.8"/>
      </g>
     </g>
     <g id="text_1">
      <!-- 0.00 -->
      <g transform="translate(36.542188 260.798437)scale(0.1 -0.1)">
       <defs>
        <path id="DejaVuSans-30" d="M 2034 4250 
Q 1547 4250 1301 3770 
Q 1056 3291 1056 2328 
Q 1056 1369 1301 889 
Q 1547 409 2034 409 
Q 2525 409 2770 889 
Q 3016 1369 3016 2328 
Q 3016 3291 2770 3770 
Q 2525 4250 2034 4250 
z
M 2034 4750 
Q 2819 4750 3233 4129 
Q 3647 3509 3647 2328 
Q 3647 1150 3233 529 
Q 2819 -91 2034 -91 
Q 1250 -91 836 529 
Q 422 1150 422 2328 
Q 422 3509 836 4129 
Q 1250 4750 2034 4750 
z
" transform="scale(0.015625)"/>
        <path id="DejaVuSans-2e" d="M 684 794 
L 1344 794 
L 1344 0 
L 684 0 
L 684 794 
z
" transform="scale(0.015625)"/>
       </defs>
       <use xlink:href="#DejaVuSans-30"/>
       <use xlink:href="#DejaVuSans-2e" x="63.623047"/>
       <use xlink:href="#DejaVuSans-30" x="95.410156"/>
       <use xlink:href="#DejaVuSans-30" x="159.033203"/>
      </g>
     </g>
    </g>
    <g id="xtick_2">
     <g id="line2d_2">
      <g>
       <use xlink:href="#m67d0dd39f0" x="82.360938" y="246.2" style="stroke: #000000; stroke-width: 0.8"/>
      </g>
     </g>
     <g id="text_2">
      <!-- 0.25 -->
      <g transform="translate(71.228125 260.798437)scale(0.1 -0.1)">
       <defs>
        <path id="DejaVuSans-32" d="M 1228 531 
L 3431 531 
L 3431 0 
L 469 0 
L 469 531 
Q 828 903 1448 1529 
Q 2069 2156 2228 2338 
Q 2531 2678 2651 2914 
Q 2772 3150 2772 3378 
Q 2772 3750 2511 3984 
Q 2250 4219 1831 4219 
Q 1534 4219 1204 4116 
Q 875 4013 500 3803 
L 500 4441 
Q 881 4594 1212 4672 
Q 1544 4750 1819 4750 
Q 2544 4750 2975 4387 
Q 3406 4025 3406 3419 
Q 3406 3131 3298 2873 
Q 3191 2616 2906 2266 
Q 2828 2175 2409 1742 
Q 1991 1309 1228 531 
z
" transform="scale(0.015625)"/>
        <path id="DejaVuSans-35" d="M 691 4666 
L 3169 4666 
L 3169 4134 
L 1269 4134 
L 1269 2991 
Q 1406 3038 1543 3061 
Q 1681 3084 1819 3084 
Q 2600 3084 3056 2656 
Q 3513 2228 3513 1497 
Q 3513 744 3044 326 
Q 2575 -91 1722 -91 
Q 1428 -91 1123 -41 
Q 819 9 494 109 
L 494 744 
Q 775 591 1075 516 
Q 1375 441 1709 441 
Q 2250 441 2565 725 
Q 2881 1009 2881 1497 
Q 2881 1984 2565 2268 
Q 2250 2553 1709 2553 
Q 1456 2553 1204 2497 
Q 953 2441 691 2322 
L 691 4666 
z
" transform="scale(0.015625)"/>
       </defs>
       <use xlink:href="#DejaVuSans-30"/>
       <use xlink:href="#DejaVuSans-2e" x="63.623047"/>
       <use xlink:href="#DejaVuSans-32" x="95.410156"/>
       <use xlink:href="#DejaVuSans-35" x="159.033203"/>
      </g>
     </g>
    </g>
    <g id="xtick_3">
     <g id="line2d_3">
      <g>
       <use xlink:href="#m67d0dd39f0" x="117.046875" y="246.2" style="stroke: #000000; stroke-width: 0.8"/>
      </g>
     </g>
     <g id="text_3">
      <!-- 0.50 -->
      <g transform="translate(105.914062 260.798437)scale(0.1 -0.1)">
       <use xlink:href="#DejaVuSans-30"/>
       <use xlink:href="#DejaVuSans-2e" x="63.623047"/>
       <use xlink:href="#DejaVuSans-35" x="95.410156"/>
       <use xlink:href="#DejaVuSans-30" x="159.033203"/>
      </g>
     </g>
    </g>
    <g id="xtick_4">
     <g id="line2d_4">
      <g>
       <use xlink:href="#m67d0dd39f0" x="151.732812" y="246.2" style="stroke: #000000; stroke-width: 0.8"/>
      </g>
     </g>
     <g id="text_4">
      <!-- 0.75 -->
      <g transform="translate(140.6 260.798437)scale(0.1 -0.1)">
       <defs>
        <path id="DejaVuSans-37" d="M 525 4666 
L 3525 4666 
L 3525 4397 
L 1831 0 
L 1172 0 
L 2766 4134 
L 525 4134 
L 525 4666 
z
" transform="scale(0.015625)"/>
       </defs>
       <use xlink:href="#DejaVuSans-30"/>
       <use xlink:href="#DejaVuSans-2e" x="63.623047"/>
       <use xlink:href="#DejaVuSans-37" x="95.410156"/>
       <use xlink:href="#DejaVuSans-35" x="159.033203"/>
      </g>
     </g>
    </g>
    <g id="xtick_5">
     <g id="line2d_5">
      <g>
       <use xlink:href="#m67d0dd39f0" x="186.41875" y="246.2" style="stroke: #000000; stroke-width: 0.8"/>
      </g>
     </g>
     <g id="text_5">
      <!-- 1.00 -->
      <g transform="translate(175.285937 260.798437)scale(0.1 -0.1)">
       <defs>
        <path id="DejaVuSans-31" d="M 794 531 
L 1825 531 
L 1825 4091 
L 703 3866 
L 703 4441 
L 1819 4666 
L 2450 4666 
L 2450 531 
L 3481 531 
L 3481 0 
L 794 0 
L 794 531 
z
" transform="scale(0.015625)"/>
       </defs>
       <use xlink:href="#DejaVuSans-31"/>
       <use xlink:href="#DejaVuSans-2e" x="63.623047"/>
       <use xlink:href="#DejaVuSans-30" x="95.410156"/>
       <use xlink:href="#DejaVuSans-30" x="159.033203"/>
      </g>
     </g>
    </g>
    <g id="xtick_6">
     <g id="line2d_6">
      <g>
       <use xlink:href="#m67d0dd39f0" x="221.104687" y="246.2" style="stroke: #000000; stroke-width: 0.8"/>
      </g>
     </g>
     <g id="text_6">
      <!-- 1.25 -->
      <g transform="translate(209.971875 260.798437)scale(0.1 -0.1)">
       <use xlink:href="#DejaVuSans-31"/>
       <use xlink:href="#DejaVuSans-2e" x="63.623047"/>
       <use xlink:href="#DejaVuSans-32" x="95.410156"/>
       <use xlink:href="#DejaVuSans-35" x="159.033203"/>
      </g>
     </g>
    </g>
    <g id="xtick_7">
     <g id="line2d_7">
      <g>
       <use xlink:href="#m67d0dd39f0" x="255.790625" y="246.2" style="stroke: #000000; stroke-width: 0.8"/>
      </g>
     </g>
     <g id="text_7">
      <!-- 1.50 -->
      <g transform="translate(244.657812 260.798437)scale(0.1 -0.1)">
       <use xlink:href="#DejaVuSans-31"/>
       <use xlink:href="#DejaVuSans-2e" x="63.623047"/>
       <use xlink:href="#DejaVuSans-35" x="95.410156"/>
       <use xlink:href="#DejaVuSans-30" x="159.033203"/>
      </g>
     </g>
    </g>
    <g id="xtick_8">
     <g id="line2d_8">
      <g>
       <use xlink:href="#m67d0dd39f0" x="290.476562" y="246.2" style="stroke: #000000; stroke-width: 0.8"/>
      </g>
     </g>
     <g id="text_8">
      <!-- 1.75 -->
      <g transform="translate(279.34375 260.798437)scale(0.1 -0.1)">
       <use xlink:href="#DejaVuSans-31"/>
       <use xlink:href="#DejaVuSans-2e" x="63.623047"/>
       <use xlink:href="#DejaVuSans-37" x="95.410156"/>
       <use xlink:href="#DejaVuSans-35" x="159.033203"/>
      </g>
     </g>
    </g>
    <g id="xtick_9">
     <g id="line2d_9">
      <g>
       <use xlink:href="#m67d0dd39f0" x="325.1625" y="246.2" style="stroke: #000000; stroke-width: 0.8"/>
      </g>
     </g>
     <g id="text_9">
      <!-- 2.00 -->
      <g transform="translate(314.029687 260.798437)scale(0.1 -0.1)">
       <use xlink:href="#DejaVuSans-32"/>
       <use xlink:href="#DejaVuSans-2e" x="63.623047"/>
       <use xlink:href="#DejaVuSans-30" x="95.410156"/>
       <use xlink:href="#DejaVuSans-30" x="159.033203"/>
      </g>
     </g>
    </g>
    <g id="text_10">
     <!-- Influence of surprisal (multiplication) -->
     <g transform="translate(94.271875 274.476562)scale(0.1 -0.1)">
      <defs>
       <path id="DejaVuSans-49" d="M 628 4666 
L 1259 4666 
L 1259 0 
L 628 0 
L 628 4666 
z
" transform="scale(0.015625)"/>
       <path id="DejaVuSans-6e" d="M 3513 2113 
L 3513 0 
L 2938 0 
L 2938 2094 
Q 2938 2591 2744 2837 
Q 2550 3084 2163 3084 
Q 1697 3084 1428 2787 
Q 1159 2491 1159 1978 
L 1159 0 
L 581 0 
L 581 3500 
L 1159 3500 
L 1159 2956 
Q 1366 3272 1645 3428 
Q 1925 3584 2291 3584 
Q 2894 3584 3203 3211 
Q 3513 2838 3513 2113 
z
" transform="scale(0.015625)"/>
       <path id="DejaVuSans-66" d="M 2375 4863 
L 2375 4384 
L 1825 4384 
Q 1516 4384 1395 4259 
Q 1275 4134 1275 3809 
L 1275 3500 
L 2222 3500 
L 2222 3053 
L 1275 3053 
L 1275 0 
L 697 0 
L 697 3053 
L 147 3053 
L 147 3500 
L 697 3500 
L 697 3744 
Q 697 4328 969 4595 
Q 1241 4863 1831 4863 
L 2375 4863 
z
" transform="scale(0.015625)"/>
       <path id="DejaVuSans-6c" d="M 603 4863 
L 1178 4863 
L 1178 0 
L 603 0 
L 603 4863 
z
" transform="scale(0.015625)"/>
       <path id="DejaVuSans-75" d="M 544 1381 
L 544 3500 
L 1119 3500 
L 1119 1403 
Q 1119 906 1312 657 
Q 1506 409 1894 409 
Q 2359 409 2629 706 
Q 2900 1003 2900 1516 
L 2900 3500 
L 3475 3500 
L 3475 0 
L 2900 0 
L 2900 538 
Q 2691 219 2414 64 
Q 2138 -91 1772 -91 
Q 1169 -91 856 284 
Q 544 659 544 1381 
z
M 1991 3584 
L 1991 3584 
z
" transform="scale(0.015625)"/>
       <path id="DejaVuSans-65" d="M 3597 1894 
L 3597 1613 
L 953 1613 
Q 991 1019 1311 708 
Q 1631 397 2203 397 
Q 2534 397 2845 478 
Q 3156 559 3463 722 
L 3463 178 
Q 3153 47 2828 -22 
Q 2503 -91 2169 -91 
Q 1331 -91 842 396 
Q 353 884 353 1716 
Q 353 2575 817 3079 
Q 1281 3584 2069 3584 
Q 2775 3584 3186 3129 
Q 3597 2675 3597 1894 
z
M 3022 2063 
Q 3016 2534 2758 2815 
Q 2500 3097 2075 3097 
Q 1594 3097 1305 2825 
Q 1016 2553 972 2059 
L 3022 2063 
z
" transform="scale(0.015625)"/>
       <path id="DejaVuSans-63" d="M 3122 3366 
L 3122 2828 
Q 2878 2963 2633 3030 
Q 2388 3097 2138 3097 
Q 1578 3097 1268 2742 
Q 959 2388 959 1747 
Q 959 1106 1268 751 
Q 1578 397 2138 397 
Q 2388 397 2633 464 
Q 2878 531 3122 666 
L 3122 134 
Q 2881 22 2623 -34 
Q 2366 -91 2075 -91 
Q 1284 -91 818 406 
Q 353 903 353 1747 
Q 353 2603 823 3093 
Q 1294 3584 2113 3584 
Q 2378 3584 2631 3529 
Q 2884 3475 3122 3366 
z
" transform="scale(0.015625)"/>
       <path id="DejaVuSans-20" transform="scale(0.015625)"/>
       <path id="DejaVuSans-6f" d="M 1959 3097 
Q 1497 3097 1228 2736 
Q 959 2375 959 1747 
Q 959 1119 1226 758 
Q 1494 397 1959 397 
Q 2419 397 2687 759 
Q 2956 1122 2956 1747 
Q 2956 2369 2687 2733 
Q 2419 3097 1959 3097 
z
M 1959 3584 
Q 2709 3584 3137 3096 
Q 3566 2609 3566 1747 
Q 3566 888 3137 398 
Q 2709 -91 1959 -91 
Q 1206 -91 779 398 
Q 353 888 353 1747 
Q 353 2609 779 3096 
Q 1206 3584 1959 3584 
z
" transform="scale(0.015625)"/>
       <path id="DejaVuSans-73" d="M 2834 3397 
L 2834 2853 
Q 2591 2978 2328 3040 
Q 2066 3103 1784 3103 
Q 1356 3103 1142 2972 
Q 928 2841 928 2578 
Q 928 2378 1081 2264 
Q 1234 2150 1697 2047 
L 1894 2003 
Q 2506 1872 2764 1633 
Q 3022 1394 3022 966 
Q 3022 478 2636 193 
Q 2250 -91 1575 -91 
Q 1294 -91 989 -36 
Q 684 19 347 128 
L 347 722 
Q 666 556 975 473 
Q 1284 391 1588 391 
Q 1994 391 2212 530 
Q 2431 669 2431 922 
Q 2431 1156 2273 1281 
Q 2116 1406 1581 1522 
L 1381 1569 
Q 847 1681 609 1914 
Q 372 2147 372 2553 
Q 372 3047 722 3315 
Q 1072 3584 1716 3584 
Q 2034 3584 2315 3537 
Q 2597 3491 2834 3397 
z
" transform="scale(0.015625)"/>
       <path id="DejaVuSans-72" d="M 2631 2963 
Q 2534 3019 2420 3045 
Q 2306 3072 2169 3072 
Q 1681 3072 1420 2755 
Q 1159 2438 1159 1844 
L 1159 0 
L 581 0 
L 581 3500 
L 1159 3500 
L 1159 2956 
Q 1341 3275 1631 3429 
Q 1922 3584 2338 3584 
Q 2397 3584 2469 3576 
Q 2541 3569 2628 3553 
L 2631 2963 
z
" transform="scale(0.015625)"/>
       <path id="DejaVuSans-70" d="M 1159 525 
L 1159 -1331 
L 581 -1331 
L 581 3500 
L 1159 3500 
L 1159 2969 
Q 1341 3281 1617 3432 
Q 1894 3584 2278 3584 
Q 2916 3584 3314 3078 
Q 3713 2572 3713 1747 
Q 3713 922 3314 415 
Q 2916 -91 2278 -91 
Q 1894 -91 1617 61 
Q 1341 213 1159 525 
z
M 3116 1747 
Q 3116 2381 2855 2742 
Q 2594 3103 2138 3103 
Q 1681 3103 1420 2742 
Q 1159 2381 1159 1747 
Q 1159 1113 1420 752 
Q 1681 391 2138 391 
Q 2594 391 2855 752 
Q 3116 1113 3116 1747 
z
" transform="scale(0.015625)"/>
       <path id="DejaVuSans-69" d="M 603 3500 
L 1178 3500 
L 1178 0 
L 603 0 
L 603 3500 
z
M 603 4863 
L 1178 4863 
L 1178 4134 
L 603 4134 
L 603 4863 
z
" transform="scale(0.015625)"/>
       <path id="DejaVuSans-61" d="M 2194 1759 
Q 1497 1759 1228 1600 
Q 959 1441 959 1056 
Q 959 750 1161 570 
Q 1363 391 1709 391 
Q 2188 391 2477 730 
Q 2766 1069 2766 1631 
L 2766 1759 
L 2194 1759 
z
M 3341 1997 
L 3341 0 
L 2766 0 
L 2766 531 
Q 2569 213 2275 61 
Q 1981 -91 1556 -91 
Q 1019 -91 701 211 
Q 384 513 384 1019 
Q 384 1609 779 1909 
Q 1175 2209 1959 2209 
L 2766 2209 
L 2766 2266 
Q 2766 2663 2505 2880 
Q 2244 3097 1772 3097 
Q 1472 3097 1187 3025 
Q 903 2953 641 2809 
L 641 3341 
Q 956 3463 1253 3523 
Q 1550 3584 1831 3584 
Q 2591 3584 2966 3190 
Q 3341 2797 3341 1997 
z
" transform="scale(0.015625)"/>
       <path id="DejaVuSans-28" d="M 1984 4856 
Q 1566 4138 1362 3434 
Q 1159 2731 1159 2009 
Q 1159 1288 1364 580 
Q 1569 -128 1984 -844 
L 1484 -844 
Q 1016 -109 783 600 
Q 550 1309 550 2009 
Q 550 2706 781 3412 
Q 1013 4119 1484 4856 
L 1984 4856 
z
" transform="scale(0.015625)"/>
       <path id="DejaVuSans-6d" d="M 3328 2828 
Q 3544 3216 3844 3400 
Q 4144 3584 4550 3584 
Q 5097 3584 5394 3201 
Q 5691 2819 5691 2113 
L 5691 0 
L 5113 0 
L 5113 2094 
Q 5113 2597 4934 2840 
Q 4756 3084 4391 3084 
Q 3944 3084 3684 2787 
Q 3425 2491 3425 1978 
L 3425 0 
L 2847 0 
L 2847 2094 
Q 2847 2600 2669 2842 
Q 2491 3084 2119 3084 
Q 1678 3084 1418 2786 
Q 1159 2488 1159 1978 
L 1159 0 
L 581 0 
L 581 3500 
L 1159 3500 
L 1159 2956 
Q 1356 3278 1631 3431 
Q 1906 3584 2284 3584 
Q 2666 3584 2933 3390 
Q 3200 3197 3328 2828 
z
" transform="scale(0.015625)"/>
       <path id="DejaVuSans-74" d="M 1172 4494 
L 1172 3500 
L 2356 3500 
L 2356 3053 
L 1172 3053 
L 1172 1153 
Q 1172 725 1289 603 
Q 1406 481 1766 481 
L 2356 481 
L 2356 0 
L 1766 0 
Q 1100 0 847 248 
Q 594 497 594 1153 
L 594 3053 
L 172 3053 
L 172 3500 
L 594 3500 
L 594 4494 
L 1172 4494 
z
" transform="scale(0.015625)"/>
       <path id="DejaVuSans-29" d="M 513 4856 
L 1013 4856 
Q 1481 4119 1714 3412 
Q 1947 2706 1947 2009 
Q 1947 1309 1714 600 
Q 1481 -109 1013 -844 
L 513 -844 
Q 928 -128 1133 580 
Q 1338 1288 1338 2009 
Q 1338 2731 1133 3434 
Q 928 4138 513 4856 
z
" transform="scale(0.015625)"/>
      </defs>
      <use xlink:href="#DejaVuSans-49"/>
      <use xlink:href="#DejaVuSans-6e" x="29.492188"/>
      <use xlink:href="#DejaVuSans-66" x="92.871094"/>
      <use xlink:href="#DejaVuSans-6c" x="128.076172"/>
      <use xlink:href="#DejaVuSans-75" x="155.859375"/>
      <use xlink:href="#DejaVuSans-65" x="219.238281"/>
      <use xlink:href="#DejaVuSans-6e" x="280.761719"/>
      <use xlink:href="#DejaVuSans-63" x="344.140625"/>
      <use xlink:href="#DejaVuSans-65" x="399.121094"/>
      <use xlink:href="#DejaVuSans-20" x="460.644531"/>
      <use xlink:href="#DejaVuSans-6f" x="492.431641"/>
      <use xlink:href="#DejaVuSans-66" x="553.613281"/>
      <use xlink:href="#DejaVuSans-20" x="588.818359"/>
      <use xlink:href="#DejaVuSans-73" x="620.605469"/>
      <use xlink:href="#DejaVuSans-75" x="672.705078"/>
      <use xlink:href="#DejaVuSans-72" x="736.083984"/>
      <use xlink:href="#DejaVuSans-70" x="777.197266"/>
      <use xlink:href="#DejaVuSans-72" x="840.673828"/>
      <use xlink:href="#DejaVuSans-69" x="881.787109"/>
      <use xlink:href="#DejaVuSans-73" x="909.570312"/>
      <use xlink:href="#DejaVuSans-61" x="961.669922"/>
      <use xlink:href="#DejaVuSans-6c" x="1022.949219"/>
      <use xlink:href="#DejaVuSans-20" x="1050.732422"/>
      <use xlink:href="#DejaVuSans-28" x="1082.519531"/>
      <use xlink:href="#DejaVuSans-6d" x="1121.533203"/>
      <use xlink:href="#DejaVuSans-75" x="1218.945312"/>
      <use xlink:href="#DejaVuSans-6c" x="1282.324219"/>
      <use xlink:href="#DejaVuSans-74" x="1310.107422"/>
      <use xlink:href="#DejaVuSans-69" x="1349.316406"/>
      <use xlink:href="#DejaVuSans-70" x="1377.099609"/>
      <use xlink:href="#DejaVuSans-6c" x="1440.576172"/>
      <use xlink:href="#DejaVuSans-69" x="1468.359375"/>
      <use xlink:href="#DejaVuSans-63" x="1496.142578"/>
      <use xlink:href="#DejaVuSans-61" x="1551.123047"/>
      <use xlink:href="#DejaVuSans-74" x="1612.402344"/>
      <use xlink:href="#DejaVuSans-69" x="1651.611328"/>
      <use xlink:href="#DejaVuSans-6f" x="1679.394531"/>
      <use xlink:href="#DejaVuSans-6e" x="1740.576172"/>
      <use xlink:href="#DejaVuSans-29" x="1803.955078"/>
     </g>
    </g>
   </g>
   <g id="matplotlib.axis_2">
    <g id="ytick_1">
     <g id="line2d_10">
      <defs>
       <path id="me0442b0138" d="M 0 0 
L -3.5 0 
" style="stroke: #000000; stroke-width: 0.8"/>
      </defs>
      <g>
       <use xlink:href="#me0442b0138" x="47.675" y="228.247498" style="stroke: #000000; stroke-width: 0.8"/>
      </g>
     </g>
     <g id="text_11">
      <!-- 0.2 -->
      <g transform="translate(24.771875 232.046716)scale(0.1 -0.1)">
       <use xlink:href="#DejaVuSans-30"/>
       <use xlink:href="#DejaVuSans-2e" x="63.623047"/>
       <use xlink:href="#DejaVuSans-32" x="95.410156"/>
      </g>
     </g>
    </g>
    <g id="ytick_2">
     <g id="line2d_11">
      <g>
       <use xlink:href="#me0442b0138" x="47.675" y="180.378805" style="stroke: #000000; stroke-width: 0.8"/>
      </g>
     </g>
     <g id="text_12">
      <!-- 0.4 -->
      <g transform="translate(24.771875 184.178024)scale(0.1 -0.1)">
       <defs>
        <path id="DejaVuSans-34" d="M 2419 4116 
L 825 1625 
L 2419 1625 
L 2419 4116 
z
M 2253 4666 
L 3047 4666 
L 3047 1625 
L 3713 1625 
L 3713 1100 
L 3047 1100 
L 3047 0 
L 2419 0 
L 2419 1100 
L 313 1100 
L 313 1709 
L 2253 4666 
z
" transform="scale(0.015625)"/>
       </defs>
       <use xlink:href="#DejaVuSans-30"/>
       <use xlink:href="#DejaVuSans-2e" x="63.623047"/>
       <use xlink:href="#DejaVuSans-34" x="95.410156"/>
      </g>
     </g>
    </g>
    <g id="ytick_3">
     <g id="line2d_12">
      <g>
       <use xlink:href="#me0442b0138" x="47.675" y="132.510113" style="stroke: #000000; stroke-width: 0.8"/>
      </g>
     </g>
     <g id="text_13">
      <!-- 0.6 -->
      <g transform="translate(24.771875 136.309331)scale(0.1 -0.1)">
       <defs>
        <path id="DejaVuSans-36" d="M 2113 2584 
Q 1688 2584 1439 2293 
Q 1191 2003 1191 1497 
Q 1191 994 1439 701 
Q 1688 409 2113 409 
Q 2538 409 2786 701 
Q 3034 994 3034 1497 
Q 3034 2003 2786 2293 
Q 2538 2584 2113 2584 
z
M 3366 4563 
L 3366 3988 
Q 3128 4100 2886 4159 
Q 2644 4219 2406 4219 
Q 1781 4219 1451 3797 
Q 1122 3375 1075 2522 
Q 1259 2794 1537 2939 
Q 1816 3084 2150 3084 
Q 2853 3084 3261 2657 
Q 3669 2231 3669 1497 
Q 3669 778 3244 343 
Q 2819 -91 2113 -91 
Q 1303 -91 875 529 
Q 447 1150 447 2328 
Q 447 3434 972 4092 
Q 1497 4750 2381 4750 
Q 2619 4750 2861 4703 
Q 3103 4656 3366 4563 
z
" transform="scale(0.015625)"/>
       </defs>
       <use xlink:href="#DejaVuSans-30"/>
       <use xlink:href="#DejaVuSans-2e" x="63.623047"/>
       <use xlink:href="#DejaVuSans-36" x="95.410156"/>
      </g>
     </g>
    </g>
    <g id="ytick_4">
     <g id="line2d_13">
      <g>
       <use xlink:href="#me0442b0138" x="47.675" y="84.64142" style="stroke: #000000; stroke-width: 0.8"/>
      </g>
     </g>
     <g id="text_14">
      <!-- 0.8 -->
      <g transform="translate(24.771875 88.440639)scale(0.1 -0.1)">
       <defs>
        <path id="DejaVuSans-38" d="M 2034 2216 
Q 1584 2216 1326 1975 
Q 1069 1734 1069 1313 
Q 1069 891 1326 650 
Q 1584 409 2034 409 
Q 2484 409 2743 651 
Q 3003 894 3003 1313 
Q 3003 1734 2745 1975 
Q 2488 2216 2034 2216 
z
M 1403 2484 
Q 997 2584 770 2862 
Q 544 3141 544 3541 
Q 544 4100 942 4425 
Q 1341 4750 2034 4750 
Q 2731 4750 3128 4425 
Q 3525 4100 3525 3541 
Q 3525 3141 3298 2862 
Q 3072 2584 2669 2484 
Q 3125 2378 3379 2068 
Q 3634 1759 3634 1313 
Q 3634 634 3220 271 
Q 2806 -91 2034 -91 
Q 1263 -91 848 271 
Q 434 634 434 1313 
Q 434 1759 690 2068 
Q 947 2378 1403 2484 
z
M 1172 3481 
Q 1172 3119 1398 2916 
Q 1625 2713 2034 2713 
Q 2441 2713 2670 2916 
Q 2900 3119 2900 3481 
Q 2900 3844 2670 4047 
Q 2441 4250 2034 4250 
Q 1625 4250 1398 4047 
Q 1172 3844 1172 3481 
z
" transform="scale(0.015625)"/>
       </defs>
       <use xlink:href="#DejaVuSans-30"/>
       <use xlink:href="#DejaVuSans-2e" x="63.623047"/>
       <use xlink:href="#DejaVuSans-38" x="95.410156"/>
      </g>
     </g>
    </g>
    <g id="ytick_5">
     <g id="line2d_14">
      <g>
       <use xlink:href="#me0442b0138" x="47.675" y="36.772727" style="stroke: #000000; stroke-width: 0.8"/>
      </g>
     </g>
     <g id="text_15">
      <!-- 1.0 -->
      <g transform="translate(24.771875 40.571946)scale(0.1 -0.1)">
       <use xlink:href="#DejaVuSans-31"/>
       <use xlink:href="#DejaVuSans-2e" x="63.623047"/>
       <use xlink:href="#DejaVuSans-30" x="95.410156"/>
      </g>
     </g>
    </g>
    <g id="text_16">
     <!-- R-value -->
     <g transform="translate(18.692188 155.104687)rotate(-90)scale(0.1 -0.1)">
      <defs>
       <path id="DejaVuSans-52" d="M 2841 2188 
Q 3044 2119 3236 1894 
Q 3428 1669 3622 1275 
L 4263 0 
L 3584 0 
L 2988 1197 
Q 2756 1666 2539 1819 
Q 2322 1972 1947 1972 
L 1259 1972 
L 1259 0 
L 628 0 
L 628 4666 
L 2053 4666 
Q 2853 4666 3247 4331 
Q 3641 3997 3641 3322 
Q 3641 2881 3436 2590 
Q 3231 2300 2841 2188 
z
M 1259 4147 
L 1259 2491 
L 2053 2491 
Q 2509 2491 2742 2702 
Q 2975 2913 2975 3322 
Q 2975 3731 2742 3939 
Q 2509 4147 2053 4147 
L 1259 4147 
z
" transform="scale(0.015625)"/>
       <path id="DejaVuSans-2d" d="M 313 2009 
L 1997 2009 
L 1997 1497 
L 313 1497 
L 313 2009 
z
" transform="scale(0.015625)"/>
       <path id="DejaVuSans-76" d="M 191 3500 
L 800 3500 
L 1894 563 
L 2988 3500 
L 3597 3500 
L 2284 0 
L 1503 0 
L 191 3500 
z
" transform="scale(0.015625)"/>
      </defs>
      <use xlink:href="#DejaVuSans-52"/>
      <use xlink:href="#DejaVuSans-2d" x="65.482422"/>
      <use xlink:href="#DejaVuSans-76" x="98.941406"/>
      <use xlink:href="#DejaVuSans-61" x="158.121094"/>
      <use xlink:href="#DejaVuSans-6c" x="219.400391"/>
      <use xlink:href="#DejaVuSans-75" x="247.183594"/>
      <use xlink:href="#DejaVuSans-65" x="310.5625"/>
     </g>
    </g>
   </g>
   <g id="line2d_15">
    <path d="M 47.675 36.772727 
L 62.279605 39.855263 
L 76.884211 48.796186 
L 91.488816 60.426375 
L 106.093421 74.608386 
L 120.698026 89.898007 
L 135.302632 105.472244 
L 149.907237 120.597733 
L 164.511842 134.806146 
L 179.116447 148.041428 
L 193.721053 160.206438 
L 208.325658 171.100476 
L 222.930263 180.949785 
L 237.534868 189.88852 
L 252.139474 197.797733 
L 266.744079 204.832602 
L 281.348684 211.134314 
L 295.953289 216.659339 
L 310.557895 221.618903 
L 325.1625 226.005658 
" clip-path="url(#p4f3cb299fd)" style="fill: none; stroke: #1f77b4; stroke-width: 1.5; stroke-linecap: square"/>
   </g>
   <g id="line2d_16">
    <path d="M 47.675 36.772963 
L 62.279605 38.790438 
L 76.884211 43.816137 
L 91.488816 51.019896 
L 106.093421 60.763895 
L 120.698026 72.349766 
L 135.302632 85.173915 
L 149.907237 98.455592 
L 164.511842 111.712442 
L 179.116447 124.659248 
L 193.721053 137.032774 
L 208.325658 148.581885 
L 222.930263 159.292937 
L 237.534868 169.258686 
L 252.139474 178.263043 
L 266.744079 186.458936 
L 281.348684 193.913353 
L 295.953289 200.56926 
L 310.557895 206.649193 
L 325.1625 212.084066 
" clip-path="url(#p4f3cb299fd)" style="fill: none; stroke: #ff7f0e; stroke-width: 1.5; stroke-linecap: square"/>
   </g>
   <g id="line2d_17">
    <path d="M 47.675 36.772728 
L 62.279605 39.145516 
L 76.884211 43.392382 
L 91.488816 48.446193 
L 106.093421 54.758656 
L 120.698026 61.706669 
L 135.302632 69.006199 
L 149.907237 76.338546 
L 164.511842 83.741092 
L 179.116447 91.036148 
L 193.721053 98.35633 
L 208.325658 105.520573 
L 222.930263 112.542463 
L 237.534868 119.462037 
L 252.139474 126.211738 
L 266.744079 132.838654 
L 281.348684 139.310664 
L 295.953289 145.577077 
L 310.557895 151.676244 
L 325.1625 157.619847 
" clip-path="url(#p4f3cb299fd)" style="fill: none; stroke: #2ca02c; stroke-width: 1.5; stroke-linecap: square"/>
   </g>
   <g id="line2d_18">
    <path d="M 47.675 36.774031 
L 62.279605 38.666311 
L 76.884211 41.933018 
L 91.488816 46.08654 
L 106.093421 51.668918 
L 120.698026 58.24765 
L 135.302632 65.511932 
L 149.907237 73.042148 
L 164.511842 80.762854 
L 179.116447 88.427927 
L 193.721053 96.092764 
L 208.325658 103.532085 
L 222.930263 110.724822 
L 237.534868 117.709063 
L 252.139474 124.418569 
L 266.744079 130.907271 
L 281.348684 137.151975 
L 295.953289 143.126988 
L 310.557895 148.874449 
L 325.1625 154.440186 
" clip-path="url(#p4f3cb299fd)" style="fill: none; stroke: #d62728; stroke-width: 1.5; stroke-linecap: square"/>
   </g>
   <g id="line2d_19">
    <path d="M 47.675 36.772728 
L 62.279605 39.860341 
L 76.884211 48.814714 
L 91.488816 60.469572 
L 106.093421 74.68787 
L 120.698026 90.033692 
L 135.302632 105.605584 
L 149.907237 120.736083 
L 164.511842 135.04675 
L 179.116447 148.330626 
L 193.721053 160.535646 
L 208.325658 171.556494 
L 222.930263 181.427285 
L 237.534868 190.498117 
L 252.139474 198.393587 
L 266.744079 205.568322 
L 281.348684 211.877113 
L 295.953289 217.475886 
L 310.557895 222.578206 
L 325.1625 227.13842 
" clip-path="url(#p4f3cb299fd)" style="fill: none; stroke: #9467bd; stroke-width: 1.5; stroke-linecap: square"/>
   </g>
   <g id="line2d_20">
    <path d="M 47.675 36.773672 
L 62.279605 38.794081 
L 76.884211 43.82772 
L 91.488816 51.043997 
L 106.093421 60.808593 
L 120.698026 72.424385 
L 135.302632 85.26954 
L 149.907237 98.562689 
L 164.511842 111.886147 
L 179.116447 124.861991 
L 193.721053 137.263341 
L 208.325658 148.902211 
L 222.930263 159.638368 
L 237.534868 169.69814 
L 252.139474 178.726577 
L 266.744079 187.015025 
L 281.348684 194.483773 
L 295.953289 201.19474 
L 310.557895 207.396043 
L 325.1625 212.979933 
" clip-path="url(#p4f3cb299fd)" style="fill: none; stroke: #8c564b; stroke-width: 1.5; stroke-linecap: square"/>
   </g>
   <g id="line2d_21">
    <path d="M 47.675 36.773205 
L 62.279605 37.720977 
L 76.884211 38.897417 
L 91.488816 41.94202 
L 106.093421 47.763786 
L 120.698026 56.185783 
L 135.302632 66.837775 
L 149.907237 78.713731 
L 164.511842 91.412971 
L 179.116447 104.272449 
L 193.721053 117.023824 
L 208.325658 129.241731 
L 222.930263 140.812751 
L 237.534868 151.684201 
L 252.139474 161.702531 
L 266.744079 170.943512 
L 281.348684 179.445835 
L 295.953289 187.127596 
L 310.557895 194.187976 
L 325.1625 200.576976 
" clip-path="url(#p4f3cb299fd)" style="fill: none; stroke: #e377c2; stroke-width: 1.5; stroke-linecap: square"/>
   </g>
   <g id="patch_3">
    <path d="M 47.675 246.2 
L 47.675 26.8 
" style="fill: none; stroke: #000000; stroke-width: 0.8; stroke-linejoin: miter; stroke-linecap: square"/>
   </g>
   <g id="patch_4">
    <path d="M 47.675 246.2 
L 325.1625 246.2 
" style="fill: none; stroke: #000000; stroke-width: 0.8; stroke-linejoin: miter; stroke-linecap: square"/>
   </g>
   <g id="text_17">
    <!-- Node * surprisal -->
    <g transform="translate(138.1375 20.8)scale(0.12 -0.12)">
     <defs>
      <path id="DejaVuSans-4e" d="M 628 4666 
L 1478 4666 
L 3547 763 
L 3547 4666 
L 4159 4666 
L 4159 0 
L 3309 0 
L 1241 3903 
L 1241 0 
L 628 0 
L 628 4666 
z
" transform="scale(0.015625)"/>
      <path id="DejaVuSans-64" d="M 2906 2969 
L 2906 4863 
L 3481 4863 
L 3481 0 
L 2906 0 
L 2906 525 
Q 2725 213 2448 61 
Q 2172 -91 1784 -91 
Q 1150 -91 751 415 
Q 353 922 353 1747 
Q 353 2572 751 3078 
Q 1150 3584 1784 3584 
Q 2172 3584 2448 3432 
Q 2725 3281 2906 2969 
z
M 947 1747 
Q 947 1113 1208 752 
Q 1469 391 1925 391 
Q 2381 391 2643 752 
Q 2906 1113 2906 1747 
Q 2906 2381 2643 2742 
Q 2381 3103 1925 3103 
Q 1469 3103 1208 2742 
Q 947 2381 947 1747 
z
" transform="scale(0.015625)"/>
      <path id="DejaVuSans-2a" d="M 3009 3897 
L 1888 3291 
L 3009 2681 
L 2828 2375 
L 1778 3009 
L 1778 1831 
L 1422 1831 
L 1422 3009 
L 372 2375 
L 191 2681 
L 1313 3291 
L 191 3897 
L 372 4206 
L 1422 3572 
L 1422 4750 
L 1778 4750 
L 1778 3572 
L 2828 4206 
L 3009 3897 
z
" transform="scale(0.015625)"/>
     </defs>
     <use xlink:href="#DejaVuSans-4e"/>
     <use xlink:href="#DejaVuSans-6f" x="74.804688"/>
     <use xlink:href="#DejaVuSans-64" x="135.986328"/>
     <use xlink:href="#DejaVuSans-65" x="199.462891"/>
     <use xlink:href="#DejaVuSans-20" x="260.986328"/>
     <use xlink:href="#DejaVuSans-2a" x="292.773438"/>
     <use xlink:href="#DejaVuSans-20" x="342.773438"/>
     <use xlink:href="#DejaVuSans-73" x="374.560547"/>
     <use xlink:href="#DejaVuSans-75" x="426.660156"/>
     <use xlink:href="#DejaVuSans-72" x="490.039062"/>
     <use xlink:href="#DejaVuSans-70" x="531.152344"/>
     <use xlink:href="#DejaVuSans-72" x="594.628906"/>
     <use xlink:href="#DejaVuSans-69" x="635.742188"/>
     <use xlink:href="#DejaVuSans-73" x="663.525391"/>
     <use xlink:href="#DejaVuSans-61" x="715.625"/>
     <use xlink:href="#DejaVuSans-6c" x="776.904297"/>
    </g>
   </g>
   <g id="legend_1">
    <g id="line2d_22">
     <path d="M 56.675 143.551562 
L 66.675 143.551562 
L 76.675 143.551562 
" style="fill: none; stroke: #1f77b4; stroke-width: 1.5; stroke-linecap: square"/>
    </g>
    <g id="text_18">
     <!-- Node -->
     <g transform="translate(84.675 147.051562)scale(0.1 -0.1)">
      <use xlink:href="#DejaVuSans-4e"/>
      <use xlink:href="#DejaVuSans-6f" x="74.804688"/>
      <use xlink:href="#DejaVuSans-64" x="135.986328"/>
      <use xlink:href="#DejaVuSans-65" x="199.462891"/>
     </g>
    </g>
    <g id="line2d_23">
     <path d="M 56.675 158.229688 
L 66.675 158.229688 
L 76.675 158.229688 
" style="fill: none; stroke: #ff7f0e; stroke-width: 1.5; stroke-linecap: square"/>
    </g>
    <g id="text_19">
     <!-- Node + surprisal -->
     <g transform="translate(84.675 161.729688)scale(0.1 -0.1)">
      <defs>
       <path id="DejaVuSans-2b" d="M 2944 4013 
L 2944 2272 
L 4684 2272 
L 4684 1741 
L 2944 1741 
L 2944 0 
L 2419 0 
L 2419 1741 
L 678 1741 
L 678 2272 
L 2419 2272 
L 2419 4013 
L 2944 4013 
z
" transform="scale(0.015625)"/>
      </defs>
      <use xlink:href="#DejaVuSans-4e"/>
      <use xlink:href="#DejaVuSans-6f" x="74.804688"/>
      <use xlink:href="#DejaVuSans-64" x="135.986328"/>
      <use xlink:href="#DejaVuSans-65" x="199.462891"/>
      <use xlink:href="#DejaVuSans-20" x="260.986328"/>
      <use xlink:href="#DejaVuSans-2b" x="292.773438"/>
      <use xlink:href="#DejaVuSans-20" x="376.5625"/>
      <use xlink:href="#DejaVuSans-73" x="408.349609"/>
      <use xlink:href="#DejaVuSans-75" x="460.449219"/>
      <use xlink:href="#DejaVuSans-72" x="523.828125"/>
      <use xlink:href="#DejaVuSans-70" x="564.941406"/>
      <use xlink:href="#DejaVuSans-72" x="628.417969"/>
      <use xlink:href="#DejaVuSans-69" x="669.53125"/>
      <use xlink:href="#DejaVuSans-73" x="697.314453"/>
      <use xlink:href="#DejaVuSans-61" x="749.414062"/>
      <use xlink:href="#DejaVuSans-6c" x="810.693359"/>
     </g>
    </g>
    <g id="line2d_24">
     <path d="M 56.675 172.907812 
L 66.675 172.907812 
L 76.675 172.907812 
" style="fill: none; stroke: #2ca02c; stroke-width: 1.5; stroke-linecap: square"/>
    </g>
    <g id="text_20">
     <!-- Node split -->
     <g transform="translate(84.675 176.407812)scale(0.1 -0.1)">
      <use xlink:href="#DejaVuSans-4e"/>
      <use xlink:href="#DejaVuSans-6f" x="74.804688"/>
      <use xlink:href="#DejaVuSans-64" x="135.986328"/>
      <use xlink:href="#DejaVuSans-65" x="199.462891"/>
      <use xlink:href="#DejaVuSans-20" x="260.986328"/>
      <use xlink:href="#DejaVuSans-73" x="292.773438"/>
      <use xlink:href="#DejaVuSans-70" x="344.873047"/>
      <use xlink:href="#DejaVuSans-6c" x="408.349609"/>
      <use xlink:href="#DejaVuSans-69" x="436.132812"/>
      <use xlink:href="#DejaVuSans-74" x="463.916016"/>
     </g>
    </g>
    <g id="line2d_25">
     <path d="M 56.675 187.585938 
L 66.675 187.585938 
L 76.675 187.585938 
" style="fill: none; stroke: #d62728; stroke-width: 1.5; stroke-linecap: square"/>
    </g>
    <g id="text_21">
     <!-- Node split + surprisal -->
     <g transform="translate(84.675 191.085938)scale(0.1 -0.1)">
      <use xlink:href="#DejaVuSans-4e"/>
      <use xlink:href="#DejaVuSans-6f" x="74.804688"/>
      <use xlink:href="#DejaVuSans-64" x="135.986328"/>
      <use xlink:href="#DejaVuSans-65" x="199.462891"/>
      <use xlink:href="#DejaVuSans-20" x="260.986328"/>
      <use xlink:href="#DejaVuSans-73" x="292.773438"/>
      <use xlink:href="#DejaVuSans-70" x="344.873047"/>
      <use xlink:href="#DejaVuSans-6c" x="408.349609"/>
      <use xlink:href="#DejaVuSans-69" x="436.132812"/>
      <use xlink:href="#DejaVuSans-74" x="463.916016"/>
      <use xlink:href="#DejaVuSans-20" x="503.125"/>
      <use xlink:href="#DejaVuSans-2b" x="534.912109"/>
      <use xlink:href="#DejaVuSans-20" x="618.701172"/>
      <use xlink:href="#DejaVuSans-73" x="650.488281"/>
      <use xlink:href="#DejaVuSans-75" x="702.587891"/>
      <use xlink:href="#DejaVuSans-72" x="765.966797"/>
      <use xlink:href="#DejaVuSans-70" x="807.080078"/>
      <use xlink:href="#DejaVuSans-72" x="870.556641"/>
      <use xlink:href="#DejaVuSans-69" x="911.669922"/>
      <use xlink:href="#DejaVuSans-73" x="939.453125"/>
      <use xlink:href="#DejaVuSans-61" x="991.552734"/>
      <use xlink:href="#DejaVuSans-6c" x="1052.832031"/>
     </g>
    </g>
    <g id="line2d_26">
     <path d="M 56.675 202.264062 
L 66.675 202.264062 
L 76.675 202.264062 
" style="fill: none; stroke: #9467bd; stroke-width: 1.5; stroke-linecap: square"/>
    </g>
    <g id="text_22">
     <!-- Node random split -->
     <g transform="translate(84.675 205.764062)scale(0.1 -0.1)">
      <use xlink:href="#DejaVuSans-4e"/>
      <use xlink:href="#DejaVuSans-6f" x="74.804688"/>
      <use xlink:href="#DejaVuSans-64" x="135.986328"/>
      <use xlink:href="#DejaVuSans-65" x="199.462891"/>
      <use xlink:href="#DejaVuSans-20" x="260.986328"/>
      <use xlink:href="#DejaVuSans-72" x="292.773438"/>
      <use xlink:href="#DejaVuSans-61" x="333.886719"/>
      <use xlink:href="#DejaVuSans-6e" x="395.166016"/>
      <use xlink:href="#DejaVuSans-64" x="458.544922"/>
      <use xlink:href="#DejaVuSans-6f" x="522.021484"/>
      <use xlink:href="#DejaVuSans-6d" x="583.203125"/>
      <use xlink:href="#DejaVuSans-20" x="680.615234"/>
      <use xlink:href="#DejaVuSans-73" x="712.402344"/>
      <use xlink:href="#DejaVuSans-70" x="764.501953"/>
      <use xlink:href="#DejaVuSans-6c" x="827.978516"/>
      <use xlink:href="#DejaVuSans-69" x="855.761719"/>
      <use xlink:href="#DejaVuSans-74" x="883.544922"/>
     </g>
    </g>
    <g id="line2d_27">
     <path d="M 56.675 216.942187 
L 66.675 216.942187 
L 76.675 216.942187 
" style="fill: none; stroke: #8c564b; stroke-width: 1.5; stroke-linecap: square"/>
    </g>
    <g id="text_23">
     <!-- Node random split + surprisal -->
     <g transform="translate(84.675 220.442187)scale(0.1 -0.1)">
      <use xlink:href="#DejaVuSans-4e"/>
      <use xlink:href="#DejaVuSans-6f" x="74.804688"/>
      <use xlink:href="#DejaVuSans-64" x="135.986328"/>
      <use xlink:href="#DejaVuSans-65" x="199.462891"/>
      <use xlink:href="#DejaVuSans-20" x="260.986328"/>
      <use xlink:href="#DejaVuSans-72" x="292.773438"/>
      <use xlink:href="#DejaVuSans-61" x="333.886719"/>
      <use xlink:href="#DejaVuSans-6e" x="395.166016"/>
      <use xlink:href="#DejaVuSans-64" x="458.544922"/>
      <use xlink:href="#DejaVuSans-6f" x="522.021484"/>
      <use xlink:href="#DejaVuSans-6d" x="583.203125"/>
      <use xlink:href="#DejaVuSans-20" x="680.615234"/>
      <use xlink:href="#DejaVuSans-73" x="712.402344"/>
      <use xlink:href="#DejaVuSans-70" x="764.501953"/>
      <use xlink:href="#DejaVuSans-6c" x="827.978516"/>
      <use xlink:href="#DejaVuSans-69" x="855.761719"/>
      <use xlink:href="#DejaVuSans-74" x="883.544922"/>
      <use xlink:href="#DejaVuSans-20" x="922.753906"/>
      <use xlink:href="#DejaVuSans-2b" x="954.541016"/>
      <use xlink:href="#DejaVuSans-20" x="1038.330078"/>
      <use xlink:href="#DejaVuSans-73" x="1070.117188"/>
      <use xlink:href="#DejaVuSans-75" x="1122.216797"/>
      <use xlink:href="#DejaVuSans-72" x="1185.595703"/>
      <use xlink:href="#DejaVuSans-70" x="1226.708984"/>
      <use xlink:href="#DejaVuSans-72" x="1290.185547"/>
      <use xlink:href="#DejaVuSans-69" x="1331.298828"/>
      <use xlink:href="#DejaVuSans-73" x="1359.082031"/>
      <use xlink:href="#DejaVuSans-61" x="1411.181641"/>
      <use xlink:href="#DejaVuSans-6c" x="1472.460938"/>
     </g>
    </g>
    <g id="line2d_28">
     <path d="M 56.675 231.620312 
L 66.675 231.620312 
L 76.675 231.620312 
" style="fill: none; stroke: #e377c2; stroke-width: 1.5; stroke-linecap: square"/>
    </g>
    <g id="text_24">
     <!-- Node + surprisal + interaction -->
     <g transform="translate(84.675 235.120312)scale(0.1 -0.1)">
      <use xlink:href="#DejaVuSans-4e"/>
      <use xlink:href="#DejaVuSans-6f" x="74.804688"/>
      <use xlink:href="#DejaVuSans-64" x="135.986328"/>
      <use xlink:href="#DejaVuSans-65" x="199.462891"/>
      <use xlink:href="#DejaVuSans-20" x="260.986328"/>
      <use xlink:href="#DejaVuSans-2b" x="292.773438"/>
      <use xlink:href="#DejaVuSans-20" x="376.5625"/>
      <use xlink:href="#DejaVuSans-73" x="408.349609"/>
      <use xlink:href="#DejaVuSans-75" x="460.449219"/>
      <use xlink:href="#DejaVuSans-72" x="523.828125"/>
      <use xlink:href="#DejaVuSans-70" x="564.941406"/>
      <use xlink:href="#DejaVuSans-72" x="628.417969"/>
      <use xlink:href="#DejaVuSans-69" x="669.53125"/>
      <use xlink:href="#DejaVuSans-73" x="697.314453"/>
      <use xlink:href="#DejaVuSans-61" x="749.414062"/>
      <use xlink:href="#DejaVuSans-6c" x="810.693359"/>
      <use xlink:href="#DejaVuSans-20" x="838.476562"/>
      <use xlink:href="#DejaVuSans-2b" x="870.263672"/>
      <use xlink:href="#DejaVuSans-20" x="954.052734"/>
      <use xlink:href="#DejaVuSans-69" x="985.839844"/>
      <use xlink:href="#DejaVuSans-6e" x="1013.623047"/>
      <use xlink:href="#DejaVuSans-74" x="1077.001953"/>
      <use xlink:href="#DejaVuSans-65" x="1116.210938"/>
      <use xlink:href="#DejaVuSans-72" x="1177.734375"/>
      <use xlink:href="#DejaVuSans-61" x="1218.847656"/>
      <use xlink:href="#DejaVuSans-63" x="1280.126953"/>
      <use xlink:href="#DejaVuSans-74" x="1335.107422"/>
      <use xlink:href="#DejaVuSans-69" x="1374.316406"/>
      <use xlink:href="#DejaVuSans-6f" x="1402.099609"/>
      <use xlink:href="#DejaVuSans-6e" x="1463.28125"/>
     </g>
    </g>
   </g>
  </g>
  <g id="axes_2">
   <g id="patch_5">
    <path d="M 351.775 246.2 
L 629.2625 246.2 
L 629.2625 26.8 
L 351.775 26.8 
z
" style="fill: #ffffff"/>
   </g>
   <g id="PolyCollection_8">
    <path d="M 351.775 36.772727 
L 351.775 36.772727 
L 366.379605 40.526134 
L 380.984211 50.870737 
L 395.588816 64.182831 
L 410.193421 79.907301 
L 424.798026 96.538749 
L 439.402632 113.167512 
L 454.007237 128.980052 
L 468.611842 144.037803 
L 483.216447 157.595966 
L 497.821053 170.038136 
L 512.425658 181.08779 
L 527.030263 190.949018 
L 541.634868 199.76826 
L 556.239474 207.57215 
L 570.844079 214.371561 
L 585.448684 220.439605 
L 600.053289 225.788465 
L 614.657895 230.382191 
L 629.2625 234.477226 
L 629.2625 217.733386 
L 629.2625 217.733386 
L 614.657895 213.041134 
L 600.053289 207.801177 
L 585.448684 201.841606 
L 570.844079 195.39036 
L 556.239474 188.014179 
L 541.634868 180.012668 
L 527.030263 171.108612 
L 512.425658 161.344864 
L 497.821053 150.385774 
L 483.216447 138.553982 
L 468.611842 125.754552 
L 454.007237 112.059813 
L 439.402632 97.83248 
L 424.798026 83.441884 
L 410.193421 69.305766 
L 395.588816 56.712022 
L 380.984211 46.717208 
L 366.379605 39.196865 
L 351.775 36.772727 
z
" clip-path="url(#pd60d57c106)" style="fill: #1f77b4; fill-opacity: 0.2"/>
   </g>
   <g id="PolyCollection_9">
    <path d="M 351.775 36.772916 
L 351.775 36.773011 
L 366.379605 40.529241 
L 380.984211 50.884317 
L 395.588816 64.211674 
L 410.193421 79.949364 
L 424.798026 96.602294 
L 439.402632 113.247569 
L 454.007237 129.085523 
L 468.611842 144.18026 
L 483.216447 157.767484 
L 497.821053 170.248841 
L 512.425658 181.331591 
L 527.030263 191.24533 
L 541.634868 200.098251 
L 556.239474 207.95388 
L 570.844079 214.792341 
L 585.448684 220.925234 
L 600.053289 226.311612 
L 614.657895 230.936966 
L 629.2625 235.11038 
L 629.2625 218.289325 
L 629.2625 218.289325 
L 614.657895 213.55662 
L 600.053289 208.284146 
L 585.448684 202.278176 
L 570.844079 195.787281 
L 556.239474 188.364005 
L 541.634868 180.324472 
L 527.030263 171.385481 
L 512.425658 161.596589 
L 497.821053 150.598666 
L 483.216447 138.741246 
L 468.611842 125.90793 
L 454.007237 112.189938 
L 439.402632 97.928437 
L 424.798026 83.516545 
L 410.193421 69.354208 
L 395.588816 56.74208 
L 380.984211 46.73097 
L 366.379605 39.20097 
L 351.775 36.772916 
z
" clip-path="url(#pd60d57c106)" style="fill: #ff7f0e; fill-opacity: 0.2"/>
   </g>
   <g id="PolyCollection_10">
    <path d="M 351.775 36.772727 
L 351.775 36.772728 
L 366.379605 40.532228 
L 380.984211 50.893117 
L 395.588816 64.234816 
L 410.193421 79.986395 
L 424.798026 96.662363 
L 439.402632 113.326898 
L 454.007237 129.196996 
L 468.611842 144.331157 
L 483.216447 157.941137 
L 497.821053 170.448839 
L 512.425658 181.562721 
L 527.030263 191.521788 
L 541.634868 200.407966 
L 556.239474 208.307367 
L 570.844079 215.173536 
L 585.448684 221.334529 
L 600.053289 226.771195 
L 614.657895 231.429755 
L 629.2625 235.632229 
L 629.2625 218.577836 
L 629.2625 218.577836 
L 614.657895 213.85103 
L 600.053289 208.576221 
L 585.448684 202.555249 
L 570.844079 196.049526 
L 556.239474 188.609211 
L 541.634868 180.551749 
L 527.030263 171.582164 
L 512.425658 161.767382 
L 497.821053 150.747734 
L 483.216447 138.840011 
L 468.611842 125.980768 
L 454.007237 112.245964 
L 439.402632 97.983583 
L 424.798026 83.547631 
L 410.193421 69.376301 
L 395.588816 56.753688 
L 380.984211 46.735947 
L 366.379605 39.202261 
L 351.775 36.772727 
z
" clip-path="url(#pd60d57c106)" style="fill: #2ca02c; fill-opacity: 0.2"/>
   </g>
   <g id="PolyCollection_11">
    <path d="M 351.775 36.773737 
L 351.775 36.774324 
L 366.379605 40.53526 
L 380.984211 50.901974 
L 395.588816 64.252614 
L 410.193421 80.01339 
L 424.798026 96.70315 
L 439.402632 113.385365 
L 454.007237 129.271019 
L 468.611842 144.434806 
L 483.216447 158.075402 
L 497.821053 170.610971 
L 512.425658 181.761263 
L 527.030263 191.74123 
L 541.634868 200.658012 
L 556.239474 208.587435 
L 570.844079 215.474073 
L 585.448684 221.68143 
L 600.053289 227.145484 
L 614.657895 231.828567 
L 629.2625 236.088217 
L 629.2625 219.039543 
L 629.2625 219.039543 
L 614.657895 214.28605 
L 600.053289 208.970137 
L 585.448684 202.938736 
L 570.844079 196.41671 
L 556.239474 188.933698 
L 541.634868 180.843976 
L 527.030263 171.836585 
L 512.425658 161.986307 
L 497.821053 150.93232 
L 483.216447 139.005982 
L 468.611842 126.115402 
L 454.007237 112.357264 
L 439.402632 98.065413 
L 424.798026 83.61537 
L 410.193421 69.422624 
L 395.588816 56.781403 
L 380.984211 46.749145 
L 366.379605 39.2073 
L 351.775 36.773737 
z
" clip-path="url(#pd60d57c106)" style="fill: #d62728; fill-opacity: 0.2"/>
   </g>
   <g id="PolyCollection_12">
    <path d="M 351.775 36.772727 
L 351.775 36.772728 
L 366.379605 40.532585 
L 380.984211 50.900453 
L 395.588816 64.235806 
L 410.193421 80.002075 
L 424.798026 96.664783 
L 439.402632 113.290291 
L 454.007237 129.158809 
L 468.611842 144.330654 
L 483.216447 157.910368 
L 497.821053 170.415844 
L 512.425658 181.628715 
L 527.030263 191.386854 
L 541.634868 200.431489 
L 556.239474 208.24136 
L 570.844079 215.200812 
L 585.448684 221.364211 
L 600.053289 226.756049 
L 614.657895 231.388498 
L 629.2625 235.647657 
L 629.2625 218.377038 
L 629.2625 218.377038 
L 614.657895 213.860392 
L 600.053289 208.47803 
L 585.448684 202.528155 
L 570.844079 195.9721 
L 556.239474 188.650804 
L 541.634868 180.494488 
L 527.030263 171.5635 
L 512.425658 161.685309 
L 497.821053 150.677207 
L 483.216447 138.819955 
L 468.611842 126.020747 
L 454.007237 112.249037 
L 439.402632 98.021676 
L 424.798026 83.539333 
L 410.193421 69.39221 
L 395.588816 56.74897 
L 380.984211 46.742764 
L 366.379605 39.200517 
L 351.775 36.772727 
z
" clip-path="url(#pd60d57c106)" style="fill: #9467bd; fill-opacity: 0.2"/>
   </g>
   <g id="PolyCollection_13">
    <path d="M 351.775 36.773484 
L 351.775 36.773861 
L 366.379605 40.536148 
L 380.984211 50.914012 
L 395.588816 64.263764 
L 410.193421 80.043964 
L 424.798026 96.725919 
L 439.402632 113.366655 
L 454.007237 129.259019 
L 468.611842 144.473626 
L 483.216447 158.080796 
L 497.821053 170.622731 
L 512.425658 181.867598 
L 527.030263 191.680928 
L 541.634868 200.745164 
L 556.239474 208.606725 
L 570.844079 215.610682 
L 585.448684 221.826285 
L 600.053289 227.26601 
L 614.657895 231.89947 
L 629.2625 236.227273 
L 629.2625 218.906804 
L 629.2625 218.906804 
L 614.657895 214.358772 
L 600.053289 208.94728 
L 585.448684 202.974621 
L 570.844079 196.353167 
L 556.239474 189.002097 
L 541.634868 180.802434 
L 527.030263 171.83543 
L 512.425658 161.938467 
L 497.821053 150.89225 
L 483.216447 139.008241 
L 468.611842 126.172749 
L 454.007237 112.379957 
L 439.402632 98.120677 
L 424.798026 83.617043 
L 410.193421 69.442817 
L 395.588816 56.780747 
L 380.984211 46.75753 
L 366.379605 39.205565 
L 351.775 36.773484 
z
" clip-path="url(#pd60d57c106)" style="fill: #8c564b; fill-opacity: 0.2"/>
   </g>
   <g id="PolyCollection_14">
    <path d="M 351.775 36.773068 
L 351.775 36.773341 
L 366.379605 40.535251 
L 380.984211 50.909231 
L 395.588816 64.269925 
L 410.193421 80.041855 
L 424.798026 96.746493 
L 439.402632 113.426385 
L 454.007237 129.318274 
L 468.611842 144.488737 
L 483.216447 158.125124 
L 497.821053 170.666255 
L 512.425658 181.817148 
L 527.030263 191.78824 
L 541.634868 200.707893 
L 556.239474 208.645215 
L 570.844079 215.558624 
L 585.448684 221.786114 
L 600.053289 227.233149 
L 614.657895 231.930309 
L 629.2625 236.222811 
L 629.2625 219.039879 
L 629.2625 219.039879 
L 614.657895 214.269478 
L 600.053289 208.971993 
L 585.448684 202.933281 
L 570.844079 196.392516 
L 556.239474 188.936481 
L 541.634868 180.856812 
L 527.030263 171.826916 
L 512.425658 161.968352 
L 497.821053 150.916534 
L 483.216447 139.001261 
L 468.611842 126.109961 
L 454.007237 112.359002 
L 439.402632 98.052115 
L 424.798026 83.598489 
L 410.193421 69.411813 
L 395.588816 56.775245 
L 380.984211 46.74703 
L 366.379605 39.20685 
L 351.775 36.773068 
z
" clip-path="url(#pd60d57c106)" style="fill: #e377c2; fill-opacity: 0.2"/>
   </g>
   <g id="matplotlib.axis_3">
    <g id="xtick_10">
     <g id="line2d_29">
      <g>
       <use xlink:href="#m67d0dd39f0" x="351.775" y="246.2" style="stroke: #000000; stroke-width: 0.8"/>
      </g>
     </g>
     <g id="text_25">
      <!-- 0.00 -->
      <g transform="translate(340.642187 260.798437)scale(0.1 -0.1)">
       <use xlink:href="#DejaVuSans-30"/>
       <use xlink:href="#DejaVuSans-2e" x="63.623047"/>
       <use xlink:href="#DejaVuSans-30" x="95.410156"/>
       <use xlink:href="#DejaVuSans-30" x="159.033203"/>
      </g>
     </g>
    </g>
    <g id="xtick_11">
     <g id="line2d_30">
      <g>
       <use xlink:href="#m67d0dd39f0" x="386.460937" y="246.2" style="stroke: #000000; stroke-width: 0.8"/>
      </g>
     </g>
     <g id="text_26">
      <!-- 0.25 -->
      <g transform="translate(375.328125 260.798437)scale(0.1 -0.1)">
       <use xlink:href="#DejaVuSans-30"/>
       <use xlink:href="#DejaVuSans-2e" x="63.623047"/>
       <use xlink:href="#DejaVuSans-32" x="95.410156"/>
       <use xlink:href="#DejaVuSans-35" x="159.033203"/>
      </g>
     </g>
    </g>
    <g id="xtick_12">
     <g id="line2d_31">
      <g>
       <use xlink:href="#m67d0dd39f0" x="421.146875" y="246.2" style="stroke: #000000; stroke-width: 0.8"/>
      </g>
     </g>
     <g id="text_27">
      <!-- 0.50 -->
      <g transform="translate(410.014062 260.798437)scale(0.1 -0.1)">
       <use xlink:href="#DejaVuSans-30"/>
       <use xlink:href="#DejaVuSans-2e" x="63.623047"/>
       <use xlink:href="#DejaVuSans-35" x="95.410156"/>
       <use xlink:href="#DejaVuSans-30" x="159.033203"/>
      </g>
     </g>
    </g>
    <g id="xtick_13">
     <g id="line2d_32">
      <g>
       <use xlink:href="#m67d0dd39f0" x="455.832812" y="246.2" style="stroke: #000000; stroke-width: 0.8"/>
      </g>
     </g>
     <g id="text_28">
      <!-- 0.75 -->
      <g transform="translate(444.7 260.798437)scale(0.1 -0.1)">
       <use xlink:href="#DejaVuSans-30"/>
       <use xlink:href="#DejaVuSans-2e" x="63.623047"/>
       <use xlink:href="#DejaVuSans-37" x="95.410156"/>
       <use xlink:href="#DejaVuSans-35" x="159.033203"/>
      </g>
     </g>
    </g>
    <g id="xtick_14">
     <g id="line2d_33">
      <g>
       <use xlink:href="#m67d0dd39f0" x="490.51875" y="246.2" style="stroke: #000000; stroke-width: 0.8"/>
      </g>
     </g>
     <g id="text_29">
      <!-- 1.00 -->
      <g transform="translate(479.385937 260.798437)scale(0.1 -0.1)">
       <use xlink:href="#DejaVuSans-31"/>
       <use xlink:href="#DejaVuSans-2e" x="63.623047"/>
       <use xlink:href="#DejaVuSans-30" x="95.410156"/>
       <use xlink:href="#DejaVuSans-30" x="159.033203"/>
      </g>
     </g>
    </g>
    <g id="xtick_15">
     <g id="line2d_34">
      <g>
       <use xlink:href="#m67d0dd39f0" x="525.204687" y="246.2" style="stroke: #000000; stroke-width: 0.8"/>
      </g>
     </g>
     <g id="text_30">
      <!-- 1.25 -->
      <g transform="translate(514.071875 260.798437)scale(0.1 -0.1)">
       <use xlink:href="#DejaVuSans-31"/>
       <use xlink:href="#DejaVuSans-2e" x="63.623047"/>
       <use xlink:href="#DejaVuSans-32" x="95.410156"/>
       <use xlink:href="#DejaVuSans-35" x="159.033203"/>
      </g>
     </g>
    </g>
    <g id="xtick_16">
     <g id="line2d_35">
      <g>
       <use xlink:href="#m67d0dd39f0" x="559.890625" y="246.2" style="stroke: #000000; stroke-width: 0.8"/>
      </g>
     </g>
     <g id="text_31">
      <!-- 1.50 -->
      <g transform="translate(548.757812 260.798437)scale(0.1 -0.1)">
       <use xlink:href="#DejaVuSans-31"/>
       <use xlink:href="#DejaVuSans-2e" x="63.623047"/>
       <use xlink:href="#DejaVuSans-35" x="95.410156"/>
       <use xlink:href="#DejaVuSans-30" x="159.033203"/>
      </g>
     </g>
    </g>
    <g id="xtick_17">
     <g id="line2d_36">
      <g>
       <use xlink:href="#m67d0dd39f0" x="594.576562" y="246.2" style="stroke: #000000; stroke-width: 0.8"/>
      </g>
     </g>
     <g id="text_32">
      <!-- 1.75 -->
      <g transform="translate(583.44375 260.798437)scale(0.1 -0.1)">
       <use xlink:href="#DejaVuSans-31"/>
       <use xlink:href="#DejaVuSans-2e" x="63.623047"/>
       <use xlink:href="#DejaVuSans-37" x="95.410156"/>
       <use xlink:href="#DejaVuSans-35" x="159.033203"/>
      </g>
     </g>
    </g>
    <g id="xtick_18">
     <g id="line2d_37">
      <g>
       <use xlink:href="#m67d0dd39f0" x="629.2625" y="246.2" style="stroke: #000000; stroke-width: 0.8"/>
      </g>
     </g>
     <g id="text_33">
      <!-- 2.00 -->
      <g transform="translate(618.129687 260.798437)scale(0.1 -0.1)">
       <use xlink:href="#DejaVuSans-32"/>
       <use xlink:href="#DejaVuSans-2e" x="63.623047"/>
       <use xlink:href="#DejaVuSans-30" x="95.410156"/>
       <use xlink:href="#DejaVuSans-30" x="159.033203"/>
      </g>
     </g>
    </g>
    <g id="text_34">
     <!-- Influence of surprisal (multiplication) -->
     <g transform="translate(398.371875 274.476562)scale(0.1 -0.1)">
      <use xlink:href="#DejaVuSans-49"/>
      <use xlink:href="#DejaVuSans-6e" x="29.492188"/>
      <use xlink:href="#DejaVuSans-66" x="92.871094"/>
      <use xlink:href="#DejaVuSans-6c" x="128.076172"/>
      <use xlink:href="#DejaVuSans-75" x="155.859375"/>
      <use xlink:href="#DejaVuSans-65" x="219.238281"/>
      <use xlink:href="#DejaVuSans-6e" x="280.761719"/>
      <use xlink:href="#DejaVuSans-63" x="344.140625"/>
      <use xlink:href="#DejaVuSans-65" x="399.121094"/>
      <use xlink:href="#DejaVuSans-20" x="460.644531"/>
      <use xlink:href="#DejaVuSans-6f" x="492.431641"/>
      <use xlink:href="#DejaVuSans-66" x="553.613281"/>
      <use xlink:href="#DejaVuSans-20" x="588.818359"/>
      <use xlink:href="#DejaVuSans-73" x="620.605469"/>
      <use xlink:href="#DejaVuSans-75" x="672.705078"/>
      <use xlink:href="#DejaVuSans-72" x="736.083984"/>
      <use xlink:href="#DejaVuSans-70" x="777.197266"/>
      <use xlink:href="#DejaVuSans-72" x="840.673828"/>
      <use xlink:href="#DejaVuSans-69" x="881.787109"/>
      <use xlink:href="#DejaVuSans-73" x="909.570312"/>
      <use xlink:href="#DejaVuSans-61" x="961.669922"/>
      <use xlink:href="#DejaVuSans-6c" x="1022.949219"/>
      <use xlink:href="#DejaVuSans-20" x="1050.732422"/>
      <use xlink:href="#DejaVuSans-28" x="1082.519531"/>
      <use xlink:href="#DejaVuSans-6d" x="1121.533203"/>
      <use xlink:href="#DejaVuSans-75" x="1218.945312"/>
      <use xlink:href="#DejaVuSans-6c" x="1282.324219"/>
      <use xlink:href="#DejaVuSans-74" x="1310.107422"/>
      <use xlink:href="#DejaVuSans-69" x="1349.316406"/>
      <use xlink:href="#DejaVuSans-70" x="1377.099609"/>
      <use xlink:href="#DejaVuSans-6c" x="1440.576172"/>
      <use xlink:href="#DejaVuSans-69" x="1468.359375"/>
      <use xlink:href="#DejaVuSans-63" x="1496.142578"/>
      <use xlink:href="#DejaVuSans-61" x="1551.123047"/>
      <use xlink:href="#DejaVuSans-74" x="1612.402344"/>
      <use xlink:href="#DejaVuSans-69" x="1651.611328"/>
      <use xlink:href="#DejaVuSans-6f" x="1679.394531"/>
      <use xlink:href="#DejaVuSans-6e" x="1740.576172"/>
      <use xlink:href="#DejaVuSans-29" x="1803.955078"/>
     </g>
    </g>
   </g>
   <g id="line2d_38">
    <path d="M 351.775 36.772727 
L 366.379605 39.861499 
L 380.984211 48.793972 
L 395.588816 60.447426 
L 410.193421 74.606533 
L 424.798026 89.990316 
L 439.402632 105.499996 
L 454.007237 120.519932 
L 468.611842 134.896178 
L 483.216447 148.074974 
L 497.821053 160.211955 
L 512.425658 171.216327 
L 527.030263 181.028815 
L 541.634868 189.890464 
L 556.239474 197.793165 
L 570.844079 204.880961 
L 585.448684 211.140606 
L 600.053289 216.794821 
L 614.657895 221.711662 
L 629.2625 226.105306 
" clip-path="url(#pd60d57c106)" style="fill: none; stroke: #1f77b4; stroke-width: 1.5; stroke-linecap: square"/>
   </g>
   <g id="line2d_39">
    <path d="M 351.775 36.772963 
L 366.379605 39.865105 
L 380.984211 48.807643 
L 395.588816 60.476877 
L 410.193421 74.651786 
L 424.798026 90.05942 
L 439.402632 105.588003 
L 454.007237 120.63773 
L 468.611842 135.044095 
L 483.216447 148.254365 
L 497.821053 160.423753 
L 512.425658 171.46409 
L 527.030263 181.315406 
L 541.634868 190.211362 
L 556.239474 198.158942 
L 570.844079 205.289811 
L 585.448684 211.601705 
L 600.053289 217.297879 
L 614.657895 222.246793 
L 629.2625 226.699853 
" clip-path="url(#pd60d57c106)" style="fill: none; stroke: #ff7f0e; stroke-width: 1.5; stroke-linecap: square"/>
   </g>
   <g id="line2d_40">
    <path d="M 351.775 36.772728 
L 366.379605 39.867245 
L 380.984211 48.814532 
L 395.588816 60.494252 
L 410.193421 74.681348 
L 424.798026 90.104997 
L 439.402632 105.655241 
L 454.007237 120.72148 
L 468.611842 135.155963 
L 483.216447 148.390574 
L 497.821053 160.598287 
L 512.425658 171.665051 
L 527.030263 181.551976 
L 541.634868 190.479857 
L 556.239474 198.458289 
L 570.844079 205.611531 
L 585.448684 211.944889 
L 600.053289 217.673708 
L 614.657895 222.640393 
L 629.2625 227.105033 
" clip-path="url(#pd60d57c106)" style="fill: none; stroke: #2ca02c; stroke-width: 1.5; stroke-linecap: square"/>
   </g>
   <g id="line2d_41">
    <path d="M 351.775 36.774031 
L 366.379605 39.87128 
L 380.984211 48.82556 
L 395.588816 60.517009 
L 410.193421 74.718007 
L 424.798026 90.15926 
L 439.402632 105.725389 
L 454.007237 120.814141 
L 468.611842 135.275104 
L 483.216447 148.540692 
L 497.821053 160.771646 
L 512.425658 171.873785 
L 527.030263 181.788907 
L 541.634868 190.750994 
L 556.239474 198.760566 
L 570.844079 205.945392 
L 585.448684 212.310083 
L 600.053289 218.057811 
L 614.657895 223.057308 
L 629.2625 227.56388 
" clip-path="url(#pd60d57c106)" style="fill: none; stroke: #d62728; stroke-width: 1.5; stroke-linecap: square"/>
   </g>
   <g id="line2d_42">
    <path d="M 351.775 36.772728 
L 366.379605 39.866551 
L 380.984211 48.821609 
L 395.588816 60.492388 
L 410.193421 74.697143 
L 424.798026 90.102058 
L 439.402632 105.655984 
L 454.007237 120.703923 
L 468.611842 135.1757 
L 483.216447 148.365161 
L 497.821053 160.546525 
L 512.425658 171.657012 
L 527.030263 181.475177 
L 541.634868 190.462988 
L 556.239474 198.446082 
L 570.844079 205.586456 
L 585.448684 211.946183 
L 600.053289 217.61704 
L 614.657895 222.624445 
L 629.2625 227.012348 
" clip-path="url(#pd60d57c106)" style="fill: none; stroke: #9467bd; stroke-width: 1.5; stroke-linecap: square"/>
   </g>
   <g id="line2d_43">
    <path d="M 351.775 36.773672 
L 366.379605 39.870856 
L 380.984211 48.835771 
L 395.588816 60.522255 
L 410.193421 74.74339 
L 424.798026 90.171481 
L 439.402632 105.743666 
L 454.007237 120.819488 
L 468.611842 135.323188 
L 483.216447 148.544519 
L 497.821053 160.757491 
L 512.425658 171.903032 
L 527.030263 181.758179 
L 541.634868 190.773799 
L 556.239474 198.804411 
L 570.844079 205.981924 
L 585.448684 212.400453 
L 600.053289 218.106645 
L 614.657895 223.129121 
L 629.2625 227.567038 
" clip-path="url(#pd60d57c106)" style="fill: none; stroke: #8c564b; stroke-width: 1.5; stroke-linecap: square"/>
   </g>
   <g id="line2d_44">
    <path d="M 351.775 36.773205 
L 366.379605 39.87105 
L 380.984211 48.828131 
L 395.588816 60.522585 
L 410.193421 74.726834 
L 424.798026 90.172491 
L 439.402632 105.73925 
L 454.007237 120.838638 
L 468.611842 135.299349 
L 483.216447 148.563193 
L 497.821053 160.791395 
L 512.425658 171.89275 
L 527.030263 181.807578 
L 541.634868 190.782352 
L 556.239474 198.790848 
L 570.844079 205.97557 
L 585.448684 212.359698 
L 600.053289 218.102571 
L 614.657895 223.099894 
L 629.2625 227.631345 
" clip-path="url(#pd60d57c106)" style="fill: none; stroke: #e377c2; stroke-width: 1.5; stroke-linecap: square"/>
   </g>
   <g id="patch_6">
    <path d="M 351.775 246.2 
L 351.775 26.8 
" style="fill: none; stroke: #000000; stroke-width: 0.8; stroke-linejoin: miter; stroke-linecap: square"/>
   </g>
   <g id="patch_7">
    <path d="M 351.775 246.2 
L 629.2625 246.2 
" style="fill: none; stroke: #000000; stroke-width: 0.8; stroke-linejoin: miter; stroke-linecap: square"/>
   </g>
   <g id="text_35">
    <!-- Node * third variable -->
    <g transform="translate(427.93875 20.8)scale(0.12 -0.12)">
     <defs>
      <path id="DejaVuSans-68" d="M 3513 2113 
L 3513 0 
L 2938 0 
L 2938 2094 
Q 2938 2591 2744 2837 
Q 2550 3084 2163 3084 
Q 1697 3084 1428 2787 
Q 1159 2491 1159 1978 
L 1159 0 
L 581 0 
L 581 4863 
L 1159 4863 
L 1159 2956 
Q 1366 3272 1645 3428 
Q 1925 3584 2291 3584 
Q 2894 3584 3203 3211 
Q 3513 2838 3513 2113 
z
" transform="scale(0.015625)"/>
      <path id="DejaVuSans-62" d="M 3116 1747 
Q 3116 2381 2855 2742 
Q 2594 3103 2138 3103 
Q 1681 3103 1420 2742 
Q 1159 2381 1159 1747 
Q 1159 1113 1420 752 
Q 1681 391 2138 391 
Q 2594 391 2855 752 
Q 3116 1113 3116 1747 
z
M 1159 2969 
Q 1341 3281 1617 3432 
Q 1894 3584 2278 3584 
Q 2916 3584 3314 3078 
Q 3713 2572 3713 1747 
Q 3713 922 3314 415 
Q 2916 -91 2278 -91 
Q 1894 -91 1617 61 
Q 1341 213 1159 525 
L 1159 0 
L 581 0 
L 581 4863 
L 1159 4863 
L 1159 2969 
z
" transform="scale(0.015625)"/>
     </defs>
     <use xlink:href="#DejaVuSans-4e"/>
     <use xlink:href="#DejaVuSans-6f" x="74.804688"/>
     <use xlink:href="#DejaVuSans-64" x="135.986328"/>
     <use xlink:href="#DejaVuSans-65" x="199.462891"/>
     <use xlink:href="#DejaVuSans-20" x="260.986328"/>
     <use xlink:href="#DejaVuSans-2a" x="292.773438"/>
     <use xlink:href="#DejaVuSans-20" x="342.773438"/>
     <use xlink:href="#DejaVuSans-74" x="374.560547"/>
     <use xlink:href="#DejaVuSans-68" x="413.769531"/>
     <use xlink:href="#DejaVuSans-69" x="477.148438"/>
     <use xlink:href="#DejaVuSans-72" x="504.931641"/>
     <use xlink:href="#DejaVuSans-64" x="544.294922"/>
     <use xlink:href="#DejaVuSans-20" x="607.771484"/>
     <use xlink:href="#DejaVuSans-76" x="639.558594"/>
     <use xlink:href="#DejaVuSans-61" x="698.738281"/>
     <use xlink:href="#DejaVuSans-72" x="760.017578"/>
     <use xlink:href="#DejaVuSans-69" x="801.130859"/>
     <use xlink:href="#DejaVuSans-61" x="828.914062"/>
     <use xlink:href="#DejaVuSans-62" x="890.193359"/>
     <use xlink:href="#DejaVuSans-6c" x="953.669922"/>
     <use xlink:href="#DejaVuSans-65" x="981.453125"/>
    </g>
   </g>
  </g>
 </g>
 <defs>
  <clipPath id="p4f3cb299fd">
   <rect x="47.675" y="26.8" width="277.4875" height="219.4"/>
  </clipPath>
  <clipPath id="pd60d57c106">
   <rect x="351.775" y="26.8" width="277.4875" height="219.4"/>
  </clipPath>
 </defs>
</svg>
