<?xml version="1.0" encoding="utf-8" standalone="no"?>
<!DOCTYPE svg PUBLIC "-//W3C//DTD SVG 1.1//EN"
  "http://www.w3.org/Graphics/SVG/1.1/DTD/svg11.dtd">
<svg xmlns:xlink="http://www.w3.org/1999/xlink" width="648pt" height="288pt" viewBox="0 0 648 288" xmlns="http://www.w3.org/2000/svg" version="1.1">
 <metadata>
  <rdf:RDF xmlns:dc="http://purl.org/dc/elements/1.1/" xmlns:cc="http://creativecommons.org/ns#" xmlns:rdf="http://www.w3.org/1999/02/22-rdf-syntax-ns#">
   <cc:Work>
    <dc:type rdf:resource="http://purl.org/dc/dcmitype/StillImage"/>
    <dc:date>2024-01-27T18:08:05.373261</dc:date>
    <dc:format>image/svg+xml</dc:format>
    <dc:creator>
     <cc:Agent>
      <dc:title>Matplotlib v3.5.1, https://matplotlib.org/</dc:title>
     </cc:Agent>
    </dc:creator>
   </cc:Work>
  </rdf:RDF>
 </metadata>
 <defs>
  <style type="text/css">*{stroke-linejoin: round; stroke-linecap: butt}</style>
 </defs>
 <g id="figure_1">
  <g id="patch_1">
   <path d="M 0 288 
L 648 288 
L 648 0 
L 0 0 
z
" style="fill: #ffffff"/>
  </g>
  <g id="axes_1">
   <g id="patch_2">
    <path d="M 47.675 246.2 
L 325.1625 246.2 
L 325.1625 26.8 
L 47.675 26.8 
z
" style="fill: #ffffff"/>
   </g>
   <g id="PolyCollection_1">
    <path d="M 47.675 36.772727 
L 47.675 36.772727 
L 62.279605 40.317347 
L 76.884211 50.070446 
L 91.488816 62.64857 
L 106.093421 77.582089 
L 120.698026 93.384211 
L 135.302632 109.083805 
L 149.907237 124.15472 
L 164.511842 138.17254 
L 179.116447 150.9739 
L 193.721053 162.779921 
L 208.325658 173.192256 
L 222.930263 182.512722 
L 237.534868 190.974859 
L 252.139474 198.230181 
L 266.744079 204.644773 
L 281.348684 210.33256 
L 295.953289 215.297996 
L 310.557895 219.623411 
L 325.1625 223.408787 
L 325.1625 207.255058 
L 325.1625 207.255058 
L 310.557895 202.761796 
L 295.953289 197.727575 
L 281.348684 192.266241 
L 266.744079 186.061505 
L 252.139474 179.199964 
L 237.534868 171.529104 
L 222.930263 163.122153 
L 208.325658 153.855109 
L 193.721053 143.70833 
L 179.116447 132.556672 
L 164.511842 120.380549 
L 149.907237 107.584401 
L 135.302632 94.110652 
L 120.698026 80.41871 
L 106.093421 67.366421 
L 91.488816 55.535799 
L 76.884211 46.165553 
L 62.279605 39.045437 
L 47.675 36.772727 
z
" clip-path="url(#p080bb08260)" style="fill: #1f77b4; fill-opacity: 0.2"/>
   </g>
   <g id="PolyCollection_2">
    <path d="M 47.675 36.772906 
L 47.675 36.772995 
L 62.279605 39.060523 
L 76.884211 44.568223 
L 91.488816 52.542337 
L 106.093421 63.060476 
L 120.698026 75.226634 
L 135.302632 88.362127 
L 149.907237 101.776353 
L 164.511842 115.012967 
L 179.116447 127.728744 
L 193.721053 139.8507 
L 208.325658 151.099106 
L 222.930263 161.407886 
L 237.534868 171.012427 
L 252.139474 179.523093 
L 266.744079 187.265195 
L 281.348684 194.210922 
L 295.953289 200.429402 
L 310.557895 205.980103 
L 325.1625 210.884105 
L 325.1625 193.507057 
L 325.1625 193.507057 
L 310.557895 188.154424 
L 295.953289 182.231141 
L 281.348684 175.888662 
L 266.744079 168.766492 
L 252.139474 161.041392 
L 237.534868 152.559131 
L 222.930263 143.356416 
L 208.325658 133.451412 
L 193.721053 122.904456 
L 179.116447 111.675225 
L 164.511842 99.957926 
L 149.907237 88.176352 
L 135.302632 76.525538 
L 120.698026 65.459433 
L 106.093421 55.760856 
L 91.488816 47.890224 
L 76.884211 42.269479 
L 62.279605 38.292734 
L 47.675 36.772906 
z
" clip-path="url(#p080bb08260)" style="fill: #ff7f0e; fill-opacity: 0.2"/>
   </g>
   <g id="PolyCollection_3">
    <path d="M 47.675 36.772727 
L 47.675 36.772728 
L 62.279605 39.475817 
L 76.884211 44.321808 
L 91.488816 50.16047 
L 106.093421 57.115558 
L 120.698026 64.517222 
L 135.302632 72.115821 
L 149.907237 79.572182 
L 164.511842 87.014406 
L 179.116447 94.198259 
L 193.721053 101.428688 
L 208.325658 108.45426 
L 222.930263 115.286671 
L 237.534868 122.00512 
L 252.139474 128.605484 
L 266.744079 135.118861 
L 281.348684 141.383164 
L 295.953289 147.530745 
L 310.557895 153.500036 
L 325.1625 159.223839 
L 325.1625 142.383024 
L 325.1625 142.383024 
L 310.557895 136.890123 
L 295.953289 131.349129 
L 281.348684 125.670802 
L 266.744079 119.721197 
L 252.139474 113.728327 
L 237.534868 107.590727 
L 222.930263 101.250629 
L 208.325658 94.831403 
L 193.721053 88.336691 
L 179.116447 81.752551 
L 164.511842 75.169251 
L 149.907237 68.641469 
L 135.302632 62.260301 
L 120.698026 56.083305 
L 106.093421 50.37275 
L 91.488816 45.415027 
L 76.884211 41.716188 
L 62.279605 38.547539 
L 47.675 36.772727 
z
" clip-path="url(#p080bb08260)" style="fill: #2ca02c; fill-opacity: 0.2"/>
   </g>
   <g id="PolyCollection_4">
    <path d="M 47.675 36.77368 
L 47.675 36.774234 
L 62.279605 38.904372 
L 76.884211 42.599623 
L 91.488816 47.430686 
L 106.093421 53.642735 
L 120.698026 60.69749 
L 135.302632 68.288825 
L 149.907237 75.999483 
L 164.511842 83.803354 
L 179.116447 91.416197 
L 193.721053 99.03796 
L 208.325658 106.388554 
L 222.930263 113.431176 
L 237.534868 120.22681 
L 252.139474 126.798265 
L 266.744079 133.16203 
L 281.348684 139.201223 
L 295.953289 145.0356 
L 310.557895 150.628801 
L 325.1625 155.947941 
L 325.1625 139.6583 
L 325.1625 139.6583 
L 310.557895 134.473839 
L 295.953289 129.220492 
L 281.348684 123.778889 
L 266.744079 118.033143 
L 252.139474 112.151496 
L 237.534868 106.060842 
L 222.930263 99.675891 
L 208.325658 93.144455 
L 193.721053 86.455642 
L 179.116447 79.612405 
L 164.511842 72.759802 
L 149.907237 65.993239 
L 135.302632 59.492953 
L 120.698026 53.375212 
L 106.093421 48.014654 
L 91.488816 43.691696 
L 76.884211 40.684277 
L 62.279605 38.214633 
L 47.675 36.77368 
z
" clip-path="url(#p080bb08260)" style="fill: #d62728; fill-opacity: 0.2"/>
   </g>
   <g id="PolyCollection_5">
    <path d="M 47.675 36.772727 
L 47.675 36.772728 
L 62.279605 40.321496 
L 76.884211 50.093031 
L 91.488816 62.695659 
L 106.093421 77.676501 
L 120.698026 93.516667 
L 135.302632 109.21945 
L 149.907237 124.255438 
L 164.511842 138.400588 
L 179.116447 151.252134 
L 193.721053 163.097867 
L 208.325658 173.638304 
L 222.930263 183.02041 
L 237.534868 191.63541 
L 252.139474 198.80616 
L 266.744079 205.406137 
L 281.348684 211.158337 
L 295.953289 216.105446 
L 310.557895 220.548398 
L 325.1625 224.582035 
L 325.1625 208.219546 
L 325.1625 208.219546 
L 310.557895 203.647195 
L 295.953289 198.461102 
L 281.348684 192.842266 
L 266.744079 186.688583 
L 252.139474 179.748476 
L 237.534868 172.018978 
L 222.930263 163.515599 
L 208.325658 154.269653 
L 193.721053 144.011662 
L 179.116447 132.824209 
L 164.511842 120.606564 
L 149.907237 107.744775 
L 135.302632 94.226645 
L 120.698026 80.542319 
L 106.093421 67.422011 
L 91.488816 55.570231 
L 76.884211 46.177933 
L 62.279605 39.05087 
L 47.675 36.772727 
z
" clip-path="url(#p080bb08260)" style="fill: #9467bd; fill-opacity: 0.2"/>
   </g>
   <g id="PolyCollection_6">
    <path d="M 47.675 36.773441 
L 47.675 36.773795 
L 62.279605 39.064715 
L 76.884211 44.58498 
L 91.488816 52.577943 
L 106.093421 63.11018 
L 120.698026 75.313913 
L 135.302632 88.457115 
L 149.907237 101.878864 
L 164.511842 115.197861 
L 179.116447 127.928928 
L 193.721053 140.062214 
L 208.325658 151.395213 
L 222.930263 161.798055 
L 237.534868 171.478287 
L 252.139474 179.991824 
L 266.744079 187.820289 
L 281.348684 194.818114 
L 295.953289 201.024795 
L 310.557895 206.706491 
L 325.1625 211.755834 
L 325.1625 194.325999 
L 325.1625 194.325999 
L 310.557895 188.837484 
L 295.953289 182.816148 
L 281.348684 176.357962 
L 266.744079 169.260845 
L 252.139474 161.447437 
L 237.534868 152.922604 
L 222.930263 143.61814 
L 208.325658 133.759819 
L 193.721053 123.128067 
L 179.116447 111.857656 
L 164.511842 100.100847 
L 149.907237 88.275955 
L 135.302632 76.611012 
L 120.698026 65.512974 
L 106.093421 55.795506 
L 91.488816 47.900102 
L 76.884211 42.274583 
L 62.279605 38.295417 
L 47.675 36.773441 
z
" clip-path="url(#p080bb08260)" style="fill: #8c564b; fill-opacity: 0.2"/>
   </g>
   <g id="PolyCollection_7">
    <path d="M 47.675 51.977821 
L 47.675 57.414242 
L 62.279605 62.323193 
L 76.884211 74.58233 
L 91.488816 90.163579 
L 106.093421 107.315593 
L 120.698026 124.343415 
L 135.302632 140.43151 
L 149.907237 155.085507 
L 164.511842 168.081739 
L 179.116447 179.55732 
L 193.721053 189.596951 
L 208.325658 198.309764 
L 222.930263 205.783867 
L 237.534868 212.371155 
L 252.139474 217.914705 
L 266.744079 222.790675 
L 281.348684 226.943903 
L 295.953289 230.445431 
L 310.557895 233.577466 
L 325.1625 236.227273 
L 325.1625 223.090429 
L 325.1625 223.090429 
L 310.557895 219.575645 
L 295.953289 215.555959 
L 281.348684 211.029806 
L 266.744079 205.755358 
L 252.139474 199.927778 
L 237.534868 193.171344 
L 222.930263 185.575594 
L 208.325658 176.95855 
L 193.721053 167.389194 
L 179.116447 156.366414 
L 164.511842 144.201583 
L 149.907237 130.908346 
L 135.302632 116.631125 
L 120.698026 101.615673 
L 106.093421 86.858657 
L 91.488816 73.22704 
L 76.884211 62.332152 
L 62.279605 54.79173 
L 47.675 51.977821 
z
" clip-path="url(#p080bb08260)" style="fill: #e377c2; fill-opacity: 0.2"/>
   </g>
   <g id="PolyCollection_8">
    <path d="M 47.675 36.773049 
L 47.675 36.773307 
L 62.279605 37.792271 
L 76.884211 39.6666 
L 91.488816 44.147184 
L 106.093421 51.548223 
L 120.698026 61.356384 
L 135.302632 72.794155 
L 149.907237 85.050884 
L 164.511842 97.700071 
L 179.116447 110.260558 
L 193.721053 122.438323 
L 208.325658 133.993314 
L 222.930263 144.786881 
L 237.534868 154.960654 
L 252.139474 164.177477 
L 266.744079 172.797542 
L 281.348684 180.560784 
L 295.953289 187.693517 
L 310.557895 194.149065 
L 325.1625 199.984642 
L 325.1625 182.690462 
L 325.1625 182.690462 
L 310.557895 176.468785 
L 295.953289 169.60006 
L 281.348684 162.235854 
L 266.744079 153.953601 
L 252.139474 145.134185 
L 237.534868 135.444522 
L 222.930263 125.101809 
L 208.325658 114.058668 
L 193.721053 102.556155 
L 179.116447 90.669659 
L 164.511842 78.961875 
L 149.907237 67.645189 
L 135.302632 57.489741 
L 120.698026 48.825185 
L 106.093421 42.739442 
L 91.488816 39.153705 
L 76.884211 37.888546 
L 62.279605 37.54271 
L 47.675 36.773049 
z
" clip-path="url(#p080bb08260)" style="fill: #7f7f7f; fill-opacity: 0.2"/>
   </g>
   <g id="matplotlib.axis_1">
    <g id="xtick_1">
     <g id="line2d_1">
      <defs>
       <path id="m4f5e463c92" d="M 0 0 
L 0 3.5 
" style="stroke: #000000; stroke-width: 0.8"/>
      </defs>
      <g>
       <use xlink:href="#m4f5e463c92" x="47.675" y="246.2" style="stroke: #000000; stroke-width: 0.8"/>
      </g>
     </g>
     <g id="text_1">
      <!-- 0.00 -->
      <g transform="translate(36.542188 260.798437)scale(0.1 -0.1)">
       <defs>
        <path id="DejaVuSans-30" d="M 2034 4250 
Q 1547 4250 1301 3770 
Q 1056 3291 1056 2328 
Q 1056 1369 1301 889 
Q 1547 409 2034 409 
Q 2525 409 2770 889 
Q 3016 1369 3016 2328 
Q 3016 3291 2770 3770 
Q 2525 4250 2034 4250 
z
M 2034 4750 
Q 2819 4750 3233 4129 
Q 3647 3509 3647 2328 
Q 3647 1150 3233 529 
Q 2819 -91 2034 -91 
Q 1250 -91 836 529 
Q 422 1150 422 2328 
Q 422 3509 836 4129 
Q 1250 4750 2034 4750 
z
" transform="scale(0.015625)"/>
        <path id="DejaVuSans-2e" d="M 684 794 
L 1344 794 
L 1344 0 
L 684 0 
L 684 794 
z
" transform="scale(0.015625)"/>
       </defs>
       <use xlink:href="#DejaVuSans-30"/>
       <use xlink:href="#DejaVuSans-2e" x="63.623047"/>
       <use xlink:href="#DejaVuSans-30" x="95.410156"/>
       <use xlink:href="#DejaVuSans-30" x="159.033203"/>
      </g>
     </g>
    </g>
    <g id="xtick_2">
     <g id="line2d_2">
      <g>
       <use xlink:href="#m4f5e463c92" x="82.360938" y="246.2" style="stroke: #000000; stroke-width: 0.8"/>
      </g>
     </g>
     <g id="text_2">
      <!-- 0.25 -->
      <g transform="translate(71.228125 260.798437)scale(0.1 -0.1)">
       <defs>
        <path id="DejaVuSans-32" d="M 1228 531 
L 3431 531 
L 3431 0 
L 469 0 
L 469 531 
Q 828 903 1448 1529 
Q 2069 2156 2228 2338 
Q 2531 2678 2651 2914 
Q 2772 3150 2772 3378 
Q 2772 3750 2511 3984 
Q 2250 4219 1831 4219 
Q 1534 4219 1204 4116 
Q 875 4013 500 3803 
L 500 4441 
Q 881 4594 1212 4672 
Q 1544 4750 1819 4750 
Q 2544 4750 2975 4387 
Q 3406 4025 3406 3419 
Q 3406 3131 3298 2873 
Q 3191 2616 2906 2266 
Q 2828 2175 2409 1742 
Q 1991 1309 1228 531 
z
" transform="scale(0.015625)"/>
        <path id="DejaVuSans-35" d="M 691 4666 
L 3169 4666 
L 3169 4134 
L 1269 4134 
L 1269 2991 
Q 1406 3038 1543 3061 
Q 1681 3084 1819 3084 
Q 2600 3084 3056 2656 
Q 3513 2228 3513 1497 
Q 3513 744 3044 326 
Q 2575 -91 1722 -91 
Q 1428 -91 1123 -41 
Q 819 9 494 109 
L 494 744 
Q 775 591 1075 516 
Q 1375 441 1709 441 
Q 2250 441 2565 725 
Q 2881 1009 2881 1497 
Q 2881 1984 2565 2268 
Q 2250 2553 1709 2553 
Q 1456 2553 1204 2497 
Q 953 2441 691 2322 
L 691 4666 
z
" transform="scale(0.015625)"/>
       </defs>
       <use xlink:href="#DejaVuSans-30"/>
       <use xlink:href="#DejaVuSans-2e" x="63.623047"/>
       <use xlink:href="#DejaVuSans-32" x="95.410156"/>
       <use xlink:href="#DejaVuSans-35" x="159.033203"/>
      </g>
     </g>
    </g>
    <g id="xtick_3">
     <g id="line2d_3">
      <g>
       <use xlink:href="#m4f5e463c92" x="117.046875" y="246.2" style="stroke: #000000; stroke-width: 0.8"/>
      </g>
     </g>
     <g id="text_3">
      <!-- 0.50 -->
      <g transform="translate(105.914062 260.798437)scale(0.1 -0.1)">
       <use xlink:href="#DejaVuSans-30"/>
       <use xlink:href="#DejaVuSans-2e" x="63.623047"/>
       <use xlink:href="#DejaVuSans-35" x="95.410156"/>
       <use xlink:href="#DejaVuSans-30" x="159.033203"/>
      </g>
     </g>
    </g>
    <g id="xtick_4">
     <g id="line2d_4">
      <g>
       <use xlink:href="#m4f5e463c92" x="151.732812" y="246.2" style="stroke: #000000; stroke-width: 0.8"/>
      </g>
     </g>
     <g id="text_4">
      <!-- 0.75 -->
      <g transform="translate(140.6 260.798437)scale(0.1 -0.1)">
       <defs>
        <path id="DejaVuSans-37" d="M 525 4666 
L 3525 4666 
L 3525 4397 
L 1831 0 
L 1172 0 
L 2766 4134 
L 525 4134 
L 525 4666 
z
" transform="scale(0.015625)"/>
       </defs>
       <use xlink:href="#DejaVuSans-30"/>
       <use xlink:href="#DejaVuSans-2e" x="63.623047"/>
       <use xlink:href="#DejaVuSans-37" x="95.410156"/>
       <use xlink:href="#DejaVuSans-35" x="159.033203"/>
      </g>
     </g>
    </g>
    <g id="xtick_5">
     <g id="line2d_5">
      <g>
       <use xlink:href="#m4f5e463c92" x="186.41875" y="246.2" style="stroke: #000000; stroke-width: 0.8"/>
      </g>
     </g>
     <g id="text_5">
      <!-- 1.00 -->
      <g transform="translate(175.285937 260.798437)scale(0.1 -0.1)">
       <defs>
        <path id="DejaVuSans-31" d="M 794 531 
L 1825 531 
L 1825 4091 
L 703 3866 
L 703 4441 
L 1819 4666 
L 2450 4666 
L 2450 531 
L 3481 531 
L 3481 0 
L 794 0 
L 794 531 
z
" transform="scale(0.015625)"/>
       </defs>
       <use xlink:href="#DejaVuSans-31"/>
       <use xlink:href="#DejaVuSans-2e" x="63.623047"/>
       <use xlink:href="#DejaVuSans-30" x="95.410156"/>
       <use xlink:href="#DejaVuSans-30" x="159.033203"/>
      </g>
     </g>
    </g>
    <g id="xtick_6">
     <g id="line2d_6">
      <g>
       <use xlink:href="#m4f5e463c92" x="221.104687" y="246.2" style="stroke: #000000; stroke-width: 0.8"/>
      </g>
     </g>
     <g id="text_6">
      <!-- 1.25 -->
      <g transform="translate(209.971875 260.798437)scale(0.1 -0.1)">
       <use xlink:href="#DejaVuSans-31"/>
       <use xlink:href="#DejaVuSans-2e" x="63.623047"/>
       <use xlink:href="#DejaVuSans-32" x="95.410156"/>
       <use xlink:href="#DejaVuSans-35" x="159.033203"/>
      </g>
     </g>
    </g>
    <g id="xtick_7">
     <g id="line2d_7">
      <g>
       <use xlink:href="#m4f5e463c92" x="255.790625" y="246.2" style="stroke: #000000; stroke-width: 0.8"/>
      </g>
     </g>
     <g id="text_7">
      <!-- 1.50 -->
      <g transform="translate(244.657812 260.798437)scale(0.1 -0.1)">
       <use xlink:href="#DejaVuSans-31"/>
       <use xlink:href="#DejaVuSans-2e" x="63.623047"/>
       <use xlink:href="#DejaVuSans-35" x="95.410156"/>
       <use xlink:href="#DejaVuSans-30" x="159.033203"/>
      </g>
     </g>
    </g>
    <g id="xtick_8">
     <g id="line2d_8">
      <g>
       <use xlink:href="#m4f5e463c92" x="290.476562" y="246.2" style="stroke: #000000; stroke-width: 0.8"/>
      </g>
     </g>
     <g id="text_8">
      <!-- 1.75 -->
      <g transform="translate(279.34375 260.798437)scale(0.1 -0.1)">
       <use xlink:href="#DejaVuSans-31"/>
       <use xlink:href="#DejaVuSans-2e" x="63.623047"/>
       <use xlink:href="#DejaVuSans-37" x="95.410156"/>
       <use xlink:href="#DejaVuSans-35" x="159.033203"/>
      </g>
     </g>
    </g>
    <g id="xtick_9">
     <g id="line2d_9">
      <g>
       <use xlink:href="#m4f5e463c92" x="325.1625" y="246.2" style="stroke: #000000; stroke-width: 0.8"/>
      </g>
     </g>
     <g id="text_9">
      <!-- 2.00 -->
      <g transform="translate(314.029687 260.798437)scale(0.1 -0.1)">
       <use xlink:href="#DejaVuSans-32"/>
       <use xlink:href="#DejaVuSans-2e" x="63.623047"/>
       <use xlink:href="#DejaVuSans-30" x="95.410156"/>
       <use xlink:href="#DejaVuSans-30" x="159.033203"/>
      </g>
     </g>
    </g>
    <g id="text_10">
     <!-- Influence of surprisal (multiplication) -->
     <g transform="translate(94.271875 274.476562)scale(0.1 -0.1)">
      <defs>
       <path id="DejaVuSans-49" d="M 628 4666 
L 1259 4666 
L 1259 0 
L 628 0 
L 628 4666 
z
" transform="scale(0.015625)"/>
       <path id="DejaVuSans-6e" d="M 3513 2113 
L 3513 0 
L 2938 0 
L 2938 2094 
Q 2938 2591 2744 2837 
Q 2550 3084 2163 3084 
Q 1697 3084 1428 2787 
Q 1159 2491 1159 1978 
L 1159 0 
L 581 0 
L 581 3500 
L 1159 3500 
L 1159 2956 
Q 1366 3272 1645 3428 
Q 1925 3584 2291 3584 
Q 2894 3584 3203 3211 
Q 3513 2838 3513 2113 
z
" transform="scale(0.015625)"/>
       <path id="DejaVuSans-66" d="M 2375 4863 
L 2375 4384 
L 1825 4384 
Q 1516 4384 1395 4259 
Q 1275 4134 1275 3809 
L 1275 3500 
L 2222 3500 
L 2222 3053 
L 1275 3053 
L 1275 0 
L 697 0 
L 697 3053 
L 147 3053 
L 147 3500 
L 697 3500 
L 697 3744 
Q 697 4328 969 4595 
Q 1241 4863 1831 4863 
L 2375 4863 
z
" transform="scale(0.015625)"/>
       <path id="DejaVuSans-6c" d="M 603 4863 
L 1178 4863 
L 1178 0 
L 603 0 
L 603 4863 
z
" transform="scale(0.015625)"/>
       <path id="DejaVuSans-75" d="M 544 1381 
L 544 3500 
L 1119 3500 
L 1119 1403 
Q 1119 906 1312 657 
Q 1506 409 1894 409 
Q 2359 409 2629 706 
Q 2900 1003 2900 1516 
L 2900 3500 
L 3475 3500 
L 3475 0 
L 2900 0 
L 2900 538 
Q 2691 219 2414 64 
Q 2138 -91 1772 -91 
Q 1169 -91 856 284 
Q 544 659 544 1381 
z
M 1991 3584 
L 1991 3584 
z
" transform="scale(0.015625)"/>
       <path id="DejaVuSans-65" d="M 3597 1894 
L 3597 1613 
L 953 1613 
Q 991 1019 1311 708 
Q 1631 397 2203 397 
Q 2534 397 2845 478 
Q 3156 559 3463 722 
L 3463 178 
Q 3153 47 2828 -22 
Q 2503 -91 2169 -91 
Q 1331 -91 842 396 
Q 353 884 353 1716 
Q 353 2575 817 3079 
Q 1281 3584 2069 3584 
Q 2775 3584 3186 3129 
Q 3597 2675 3597 1894 
z
M 3022 2063 
Q 3016 2534 2758 2815 
Q 2500 3097 2075 3097 
Q 1594 3097 1305 2825 
Q 1016 2553 972 2059 
L 3022 2063 
z
" transform="scale(0.015625)"/>
       <path id="DejaVuSans-63" d="M 3122 3366 
L 3122 2828 
Q 2878 2963 2633 3030 
Q 2388 3097 2138 3097 
Q 1578 3097 1268 2742 
Q 959 2388 959 1747 
Q 959 1106 1268 751 
Q 1578 397 2138 397 
Q 2388 397 2633 464 
Q 2878 531 3122 666 
L 3122 134 
Q 2881 22 2623 -34 
Q 2366 -91 2075 -91 
Q 1284 -91 818 406 
Q 353 903 353 1747 
Q 353 2603 823 3093 
Q 1294 3584 2113 3584 
Q 2378 3584 2631 3529 
Q 2884 3475 3122 3366 
z
" transform="scale(0.015625)"/>
       <path id="DejaVuSans-20" transform="scale(0.015625)"/>
       <path id="DejaVuSans-6f" d="M 1959 3097 
Q 1497 3097 1228 2736 
Q 959 2375 959 1747 
Q 959 1119 1226 758 
Q 1494 397 1959 397 
Q 2419 397 2687 759 
Q 2956 1122 2956 1747 
Q 2956 2369 2687 2733 
Q 2419 3097 1959 3097 
z
M 1959 3584 
Q 2709 3584 3137 3096 
Q 3566 2609 3566 1747 
Q 3566 888 3137 398 
Q 2709 -91 1959 -91 
Q 1206 -91 779 398 
Q 353 888 353 1747 
Q 353 2609 779 3096 
Q 1206 3584 1959 3584 
z
" transform="scale(0.015625)"/>
       <path id="DejaVuSans-73" d="M 2834 3397 
L 2834 2853 
Q 2591 2978 2328 3040 
Q 2066 3103 1784 3103 
Q 1356 3103 1142 2972 
Q 928 2841 928 2578 
Q 928 2378 1081 2264 
Q 1234 2150 1697 2047 
L 1894 2003 
Q 2506 1872 2764 1633 
Q 3022 1394 3022 966 
Q 3022 478 2636 193 
Q 2250 -91 1575 -91 
Q 1294 -91 989 -36 
Q 684 19 347 128 
L 347 722 
Q 666 556 975 473 
Q 1284 391 1588 391 
Q 1994 391 2212 530 
Q 2431 669 2431 922 
Q 2431 1156 2273 1281 
Q 2116 1406 1581 1522 
L 1381 1569 
Q 847 1681 609 1914 
Q 372 2147 372 2553 
Q 372 3047 722 3315 
Q 1072 3584 1716 3584 
Q 2034 3584 2315 3537 
Q 2597 3491 2834 3397 
z
" transform="scale(0.015625)"/>
       <path id="DejaVuSans-72" d="M 2631 2963 
Q 2534 3019 2420 3045 
Q 2306 3072 2169 3072 
Q 1681 3072 1420 2755 
Q 1159 2438 1159 1844 
L 1159 0 
L 581 0 
L 581 3500 
L 1159 3500 
L 1159 2956 
Q 1341 3275 1631 3429 
Q 1922 3584 2338 3584 
Q 2397 3584 2469 3576 
Q 2541 3569 2628 3553 
L 2631 2963 
z
" transform="scale(0.015625)"/>
       <path id="DejaVuSans-70" d="M 1159 525 
L 1159 -1331 
L 581 -1331 
L 581 3500 
L 1159 3500 
L 1159 2969 
Q 1341 3281 1617 3432 
Q 1894 3584 2278 3584 
Q 2916 3584 3314 3078 
Q 3713 2572 3713 1747 
Q 3713 922 3314 415 
Q 2916 -91 2278 -91 
Q 1894 -91 1617 61 
Q 1341 213 1159 525 
z
M 3116 1747 
Q 3116 2381 2855 2742 
Q 2594 3103 2138 3103 
Q 1681 3103 1420 2742 
Q 1159 2381 1159 1747 
Q 1159 1113 1420 752 
Q 1681 391 2138 391 
Q 2594 391 2855 752 
Q 3116 1113 3116 1747 
z
" transform="scale(0.015625)"/>
       <path id="DejaVuSans-69" d="M 603 3500 
L 1178 3500 
L 1178 0 
L 603 0 
L 603 3500 
z
M 603 4863 
L 1178 4863 
L 1178 4134 
L 603 4134 
L 603 4863 
z
" transform="scale(0.015625)"/>
       <path id="DejaVuSans-61" d="M 2194 1759 
Q 1497 1759 1228 1600 
Q 959 1441 959 1056 
Q 959 750 1161 570 
Q 1363 391 1709 391 
Q 2188 391 2477 730 
Q 2766 1069 2766 1631 
L 2766 1759 
L 2194 1759 
z
M 3341 1997 
L 3341 0 
L 2766 0 
L 2766 531 
Q 2569 213 2275 61 
Q 1981 -91 1556 -91 
Q 1019 -91 701 211 
Q 384 513 384 1019 
Q 384 1609 779 1909 
Q 1175 2209 1959 2209 
L 2766 2209 
L 2766 2266 
Q 2766 2663 2505 2880 
Q 2244 3097 1772 3097 
Q 1472 3097 1187 3025 
Q 903 2953 641 2809 
L 641 3341 
Q 956 3463 1253 3523 
Q 1550 3584 1831 3584 
Q 2591 3584 2966 3190 
Q 3341 2797 3341 1997 
z
" transform="scale(0.015625)"/>
       <path id="DejaVuSans-28" d="M 1984 4856 
Q 1566 4138 1362 3434 
Q 1159 2731 1159 2009 
Q 1159 1288 1364 580 
Q 1569 -128 1984 -844 
L 1484 -844 
Q 1016 -109 783 600 
Q 550 1309 550 2009 
Q 550 2706 781 3412 
Q 1013 4119 1484 4856 
L 1984 4856 
z
" transform="scale(0.015625)"/>
       <path id="DejaVuSans-6d" d="M 3328 2828 
Q 3544 3216 3844 3400 
Q 4144 3584 4550 3584 
Q 5097 3584 5394 3201 
Q 5691 2819 5691 2113 
L 5691 0 
L 5113 0 
L 5113 2094 
Q 5113 2597 4934 2840 
Q 4756 3084 4391 3084 
Q 3944 3084 3684 2787 
Q 3425 2491 3425 1978 
L 3425 0 
L 2847 0 
L 2847 2094 
Q 2847 2600 2669 2842 
Q 2491 3084 2119 3084 
Q 1678 3084 1418 2786 
Q 1159 2488 1159 1978 
L 1159 0 
L 581 0 
L 581 3500 
L 1159 3500 
L 1159 2956 
Q 1356 3278 1631 3431 
Q 1906 3584 2284 3584 
Q 2666 3584 2933 3390 
Q 3200 3197 3328 2828 
z
" transform="scale(0.015625)"/>
       <path id="DejaVuSans-74" d="M 1172 4494 
L 1172 3500 
L 2356 3500 
L 2356 3053 
L 1172 3053 
L 1172 1153 
Q 1172 725 1289 603 
Q 1406 481 1766 481 
L 2356 481 
L 2356 0 
L 1766 0 
Q 1100 0 847 248 
Q 594 497 594 1153 
L 594 3053 
L 172 3053 
L 172 3500 
L 594 3500 
L 594 4494 
L 1172 4494 
z
" transform="scale(0.015625)"/>
       <path id="DejaVuSans-29" d="M 513 4856 
L 1013 4856 
Q 1481 4119 1714 3412 
Q 1947 2706 1947 2009 
Q 1947 1309 1714 600 
Q 1481 -109 1013 -844 
L 513 -844 
Q 928 -128 1133 580 
Q 1338 1288 1338 2009 
Q 1338 2731 1133 3434 
Q 928 4138 513 4856 
z
" transform="scale(0.015625)"/>
      </defs>
      <use xlink:href="#DejaVuSans-49"/>
      <use xlink:href="#DejaVuSans-6e" x="29.492188"/>
      <use xlink:href="#DejaVuSans-66" x="92.871094"/>
      <use xlink:href="#DejaVuSans-6c" x="128.076172"/>
      <use xlink:href="#DejaVuSans-75" x="155.859375"/>
      <use xlink:href="#DejaVuSans-65" x="219.238281"/>
      <use xlink:href="#DejaVuSans-6e" x="280.761719"/>
      <use xlink:href="#DejaVuSans-63" x="344.140625"/>
      <use xlink:href="#DejaVuSans-65" x="399.121094"/>
      <use xlink:href="#DejaVuSans-20" x="460.644531"/>
      <use xlink:href="#DejaVuSans-6f" x="492.431641"/>
      <use xlink:href="#DejaVuSans-66" x="553.613281"/>
      <use xlink:href="#DejaVuSans-20" x="588.818359"/>
      <use xlink:href="#DejaVuSans-73" x="620.605469"/>
      <use xlink:href="#DejaVuSans-75" x="672.705078"/>
      <use xlink:href="#DejaVuSans-72" x="736.083984"/>
      <use xlink:href="#DejaVuSans-70" x="777.197266"/>
      <use xlink:href="#DejaVuSans-72" x="840.673828"/>
      <use xlink:href="#DejaVuSans-69" x="881.787109"/>
      <use xlink:href="#DejaVuSans-73" x="909.570312"/>
      <use xlink:href="#DejaVuSans-61" x="961.669922"/>
      <use xlink:href="#DejaVuSans-6c" x="1022.949219"/>
      <use xlink:href="#DejaVuSans-20" x="1050.732422"/>
      <use xlink:href="#DejaVuSans-28" x="1082.519531"/>
      <use xlink:href="#DejaVuSans-6d" x="1121.533203"/>
      <use xlink:href="#DejaVuSans-75" x="1218.945312"/>
      <use xlink:href="#DejaVuSans-6c" x="1282.324219"/>
      <use xlink:href="#DejaVuSans-74" x="1310.107422"/>
      <use xlink:href="#DejaVuSans-69" x="1349.316406"/>
      <use xlink:href="#DejaVuSans-70" x="1377.099609"/>
      <use xlink:href="#DejaVuSans-6c" x="1440.576172"/>
      <use xlink:href="#DejaVuSans-69" x="1468.359375"/>
      <use xlink:href="#DejaVuSans-63" x="1496.142578"/>
      <use xlink:href="#DejaVuSans-61" x="1551.123047"/>
      <use xlink:href="#DejaVuSans-74" x="1612.402344"/>
      <use xlink:href="#DejaVuSans-69" x="1651.611328"/>
      <use xlink:href="#DejaVuSans-6f" x="1679.394531"/>
      <use xlink:href="#DejaVuSans-6e" x="1740.576172"/>
      <use xlink:href="#DejaVuSans-29" x="1803.955078"/>
     </g>
    </g>
   </g>
   <g id="matplotlib.axis_2">
    <g id="ytick_1">
     <g id="line2d_10">
      <defs>
       <path id="m1ead02dce5" d="M 0 0 
L -3.5 0 
" style="stroke: #000000; stroke-width: 0.8"/>
      </defs>
      <g>
       <use xlink:href="#m1ead02dce5" x="47.675" y="217.44731" style="stroke: #000000; stroke-width: 0.8"/>
      </g>
     </g>
     <g id="text_11">
      <!-- 0.2 -->
      <g transform="translate(24.771875 221.246529)scale(0.1 -0.1)">
       <use xlink:href="#DejaVuSans-30"/>
       <use xlink:href="#DejaVuSans-2e" x="63.623047"/>
       <use xlink:href="#DejaVuSans-32" x="95.410156"/>
      </g>
     </g>
    </g>
    <g id="ytick_2">
     <g id="line2d_11">
      <g>
       <use xlink:href="#m1ead02dce5" x="47.675" y="172.278665" style="stroke: #000000; stroke-width: 0.8"/>
      </g>
     </g>
     <g id="text_12">
      <!-- 0.4 -->
      <g transform="translate(24.771875 176.077883)scale(0.1 -0.1)">
       <defs>
        <path id="DejaVuSans-34" d="M 2419 4116 
L 825 1625 
L 2419 1625 
L 2419 4116 
z
M 2253 4666 
L 3047 4666 
L 3047 1625 
L 3713 1625 
L 3713 1100 
L 3047 1100 
L 3047 0 
L 2419 0 
L 2419 1100 
L 313 1100 
L 313 1709 
L 2253 4666 
z
" transform="scale(0.015625)"/>
       </defs>
       <use xlink:href="#DejaVuSans-30"/>
       <use xlink:href="#DejaVuSans-2e" x="63.623047"/>
       <use xlink:href="#DejaVuSans-34" x="95.410156"/>
      </g>
     </g>
    </g>
    <g id="ytick_3">
     <g id="line2d_12">
      <g>
       <use xlink:href="#m1ead02dce5" x="47.675" y="127.110019" style="stroke: #000000; stroke-width: 0.8"/>
      </g>
     </g>
     <g id="text_13">
      <!-- 0.6 -->
      <g transform="translate(24.771875 130.909238)scale(0.1 -0.1)">
       <defs>
        <path id="DejaVuSans-36" d="M 2113 2584 
Q 1688 2584 1439 2293 
Q 1191 2003 1191 1497 
Q 1191 994 1439 701 
Q 1688 409 2113 409 
Q 2538 409 2786 701 
Q 3034 994 3034 1497 
Q 3034 2003 2786 2293 
Q 2538 2584 2113 2584 
z
M 3366 4563 
L 3366 3988 
Q 3128 4100 2886 4159 
Q 2644 4219 2406 4219 
Q 1781 4219 1451 3797 
Q 1122 3375 1075 2522 
Q 1259 2794 1537 2939 
Q 1816 3084 2150 3084 
Q 2853 3084 3261 2657 
Q 3669 2231 3669 1497 
Q 3669 778 3244 343 
Q 2819 -91 2113 -91 
Q 1303 -91 875 529 
Q 447 1150 447 2328 
Q 447 3434 972 4092 
Q 1497 4750 2381 4750 
Q 2619 4750 2861 4703 
Q 3103 4656 3366 4563 
z
" transform="scale(0.015625)"/>
       </defs>
       <use xlink:href="#DejaVuSans-30"/>
       <use xlink:href="#DejaVuSans-2e" x="63.623047"/>
       <use xlink:href="#DejaVuSans-36" x="95.410156"/>
      </g>
     </g>
    </g>
    <g id="ytick_4">
     <g id="line2d_13">
      <g>
       <use xlink:href="#m1ead02dce5" x="47.675" y="81.941373" style="stroke: #000000; stroke-width: 0.8"/>
      </g>
     </g>
     <g id="text_14">
      <!-- 0.8 -->
      <g transform="translate(24.771875 85.740592)scale(0.1 -0.1)">
       <defs>
        <path id="DejaVuSans-38" d="M 2034 2216 
Q 1584 2216 1326 1975 
Q 1069 1734 1069 1313 
Q 1069 891 1326 650 
Q 1584 409 2034 409 
Q 2484 409 2743 651 
Q 3003 894 3003 1313 
Q 3003 1734 2745 1975 
Q 2488 2216 2034 2216 
z
M 1403 2484 
Q 997 2584 770 2862 
Q 544 3141 544 3541 
Q 544 4100 942 4425 
Q 1341 4750 2034 4750 
Q 2731 4750 3128 4425 
Q 3525 4100 3525 3541 
Q 3525 3141 3298 2862 
Q 3072 2584 2669 2484 
Q 3125 2378 3379 2068 
Q 3634 1759 3634 1313 
Q 3634 634 3220 271 
Q 2806 -91 2034 -91 
Q 1263 -91 848 271 
Q 434 634 434 1313 
Q 434 1759 690 2068 
Q 947 2378 1403 2484 
z
M 1172 3481 
Q 1172 3119 1398 2916 
Q 1625 2713 2034 2713 
Q 2441 2713 2670 2916 
Q 2900 3119 2900 3481 
Q 2900 3844 2670 4047 
Q 2441 4250 2034 4250 
Q 1625 4250 1398 4047 
Q 1172 3844 1172 3481 
z
" transform="scale(0.015625)"/>
       </defs>
       <use xlink:href="#DejaVuSans-30"/>
       <use xlink:href="#DejaVuSans-2e" x="63.623047"/>
       <use xlink:href="#DejaVuSans-38" x="95.410156"/>
      </g>
     </g>
    </g>
    <g id="ytick_5">
     <g id="line2d_14">
      <g>
       <use xlink:href="#m1ead02dce5" x="47.675" y="36.772727" style="stroke: #000000; stroke-width: 0.8"/>
      </g>
     </g>
     <g id="text_15">
      <!-- 1.0 -->
      <g transform="translate(24.771875 40.571946)scale(0.1 -0.1)">
       <use xlink:href="#DejaVuSans-31"/>
       <use xlink:href="#DejaVuSans-2e" x="63.623047"/>
       <use xlink:href="#DejaVuSans-30" x="95.410156"/>
      </g>
     </g>
    </g>
    <g id="text_16">
     <!-- R-value -->
     <g transform="translate(18.692188 155.104687)rotate(-90)scale(0.1 -0.1)">
      <defs>
       <path id="DejaVuSans-52" d="M 2841 2188 
Q 3044 2119 3236 1894 
Q 3428 1669 3622 1275 
L 4263 0 
L 3584 0 
L 2988 1197 
Q 2756 1666 2539 1819 
Q 2322 1972 1947 1972 
L 1259 1972 
L 1259 0 
L 628 0 
L 628 4666 
L 2053 4666 
Q 2853 4666 3247 4331 
Q 3641 3997 3641 3322 
Q 3641 2881 3436 2590 
Q 3231 2300 2841 2188 
z
M 1259 4147 
L 1259 2491 
L 2053 2491 
Q 2509 2491 2742 2702 
Q 2975 2913 2975 3322 
Q 2975 3731 2742 3939 
Q 2509 4147 2053 4147 
L 1259 4147 
z
" transform="scale(0.015625)"/>
       <path id="DejaVuSans-2d" d="M 313 2009 
L 1997 2009 
L 1997 1497 
L 313 1497 
L 313 2009 
z
" transform="scale(0.015625)"/>
       <path id="DejaVuSans-76" d="M 191 3500 
L 800 3500 
L 1894 563 
L 2988 3500 
L 3597 3500 
L 2284 0 
L 1503 0 
L 191 3500 
z
" transform="scale(0.015625)"/>
      </defs>
      <use xlink:href="#DejaVuSans-52"/>
      <use xlink:href="#DejaVuSans-2d" x="65.482422"/>
      <use xlink:href="#DejaVuSans-76" x="98.941406"/>
      <use xlink:href="#DejaVuSans-61" x="158.121094"/>
      <use xlink:href="#DejaVuSans-6c" x="219.400391"/>
      <use xlink:href="#DejaVuSans-75" x="247.183594"/>
      <use xlink:href="#DejaVuSans-65" x="310.5625"/>
     </g>
    </g>
   </g>
   <g id="line2d_15">
    <path d="M 47.675 36.772727 
L 62.279605 39.681392 
L 76.884211 48.118 
L 91.488816 59.092185 
L 106.093421 72.474255 
L 120.698026 86.901461 
L 135.302632 101.597229 
L 149.907237 115.86956 
L 164.511842 129.276544 
L 179.116447 141.765286 
L 193.721053 153.244125 
L 208.325658 163.523683 
L 222.930263 172.817438 
L 237.534868 181.251981 
L 252.139474 188.715073 
L 266.744079 195.353139 
L 281.348684 201.2994 
L 295.953289 206.512785 
L 310.557895 211.192604 
L 325.1625 215.331923 
" clip-path="url(#p080bb08260)" style="fill: none; stroke: #1f77b4; stroke-width: 1.5; stroke-linecap: square"/>
   </g>
   <g id="line2d_16">
    <path d="M 47.675 36.77295 
L 62.279605 38.676629 
L 76.884211 43.418851 
L 91.488816 50.216281 
L 106.093421 59.410666 
L 120.698026 70.343034 
L 135.302632 82.443833 
L 149.907237 94.976353 
L 164.511842 107.485447 
L 179.116447 119.701984 
L 193.721053 131.377578 
L 208.325658 142.275259 
L 222.930263 152.382151 
L 237.534868 161.785779 
L 252.139474 170.282243 
L 266.744079 178.015844 
L 281.348684 185.049792 
L 295.953289 191.330271 
L 310.557895 197.067264 
L 325.1625 202.195581 
" clip-path="url(#p080bb08260)" style="fill: none; stroke: #ff7f0e; stroke-width: 1.5; stroke-linecap: square"/>
   </g>
   <g id="line2d_17">
    <path d="M 47.675 36.772728 
L 62.279605 39.011678 
L 76.884211 43.018998 
L 91.488816 47.787748 
L 106.093421 53.744154 
L 120.698026 60.300264 
L 135.302632 67.188061 
L 149.907237 74.106825 
L 164.511842 81.091828 
L 179.116447 87.975405 
L 193.721053 94.88269 
L 208.325658 101.642831 
L 222.930263 108.26865 
L 237.534868 114.797924 
L 252.139474 121.166906 
L 266.744079 127.420029 
L 281.348684 133.526983 
L 295.953289 139.439937 
L 310.557895 145.19508 
L 325.1625 150.803431 
" clip-path="url(#p080bb08260)" style="fill: none; stroke: #2ca02c; stroke-width: 1.5; stroke-linecap: square"/>
   </g>
   <g id="line2d_18">
    <path d="M 47.675 36.773957 
L 62.279605 38.559503 
L 76.884211 41.64195 
L 91.488816 45.561191 
L 106.093421 50.828694 
L 120.698026 57.036351 
L 135.302632 63.890889 
L 149.907237 70.996361 
L 164.511842 78.281578 
L 179.116447 85.514301 
L 193.721053 92.746801 
L 208.325658 99.766505 
L 222.930263 106.553534 
L 237.534868 113.143826 
L 252.139474 119.474881 
L 266.744079 125.597586 
L 281.348684 131.490056 
L 295.953289 137.128046 
L 310.557895 142.55132 
L 325.1625 147.803121 
" clip-path="url(#p080bb08260)" style="fill: none; stroke: #d62728; stroke-width: 1.5; stroke-linecap: square"/>
   </g>
   <g id="line2d_19">
    <path d="M 47.675 36.772728 
L 62.279605 39.686183 
L 76.884211 48.135482 
L 91.488816 59.132945 
L 106.093421 72.549256 
L 120.698026 87.029493 
L 135.302632 101.723047 
L 149.907237 116.000106 
L 164.511842 129.503576 
L 179.116447 142.038172 
L 193.721053 153.554765 
L 208.325658 163.953978 
L 222.930263 173.268005 
L 237.534868 181.827194 
L 252.139474 189.277318 
L 266.744079 196.04736 
L 281.348684 202.000302 
L 295.953289 207.283274 
L 310.557895 212.097796 
L 325.1625 216.400791 
" clip-path="url(#p080bb08260)" style="fill: none; stroke: #9467bd; stroke-width: 1.5; stroke-linecap: square"/>
   </g>
   <g id="line2d_20">
    <path d="M 47.675 36.773618 
L 62.279605 38.680066 
L 76.884211 43.429781 
L 91.488816 50.239022 
L 106.093421 59.452843 
L 120.698026 70.413443 
L 135.302632 82.534063 
L 149.907237 95.077409 
L 164.511842 107.649354 
L 179.116447 119.893292 
L 193.721053 131.59514 
L 208.325658 142.577516 
L 222.930263 152.708098 
L 237.534868 162.200445 
L 252.139474 170.719631 
L 266.744079 178.540567 
L 281.348684 185.588038 
L 295.953289 191.920471 
L 310.557895 197.771987 
L 325.1625 203.040916 
" clip-path="url(#p080bb08260)" style="fill: none; stroke: #8c564b; stroke-width: 1.5; stroke-linecap: square"/>
   </g>
   <g id="line2d_21">
    <path d="M 47.675 54.696032 
L 62.279605 58.557462 
L 76.884211 68.457241 
L 91.488816 81.695309 
L 106.093421 97.087125 
L 120.698026 112.979544 
L 135.302632 128.531317 
L 149.907237 142.996926 
L 164.511842 156.141661 
L 179.116447 167.961867 
L 193.721053 178.493073 
L 208.325658 187.634157 
L 222.930263 195.679731 
L 237.534868 202.771249 
L 252.139474 208.921241 
L 266.744079 214.273017 
L 281.348684 218.986855 
L 295.953289 223.000695 
L 310.557895 226.576556 
L 325.1625 229.658851 
" clip-path="url(#p080bb08260)" style="fill: none; stroke: #e377c2; stroke-width: 1.5; stroke-linecap: square"/>
   </g>
   <g id="line2d_22">
    <path d="M 47.675 36.773178 
L 62.279605 37.66749 
L 76.884211 38.777573 
L 91.488816 41.650445 
L 106.093421 47.143832 
L 120.698026 55.090784 
L 135.302632 65.141948 
L 149.907237 76.348037 
L 164.511842 88.330973 
L 179.116447 100.465108 
L 193.721053 112.497239 
L 208.325658 124.025991 
L 222.930263 134.944345 
L 237.534868 145.202588 
L 252.139474 154.655831 
L 266.744079 163.375572 
L 281.348684 171.398319 
L 295.953289 178.646788 
L 310.557895 185.308925 
L 325.1625 191.337552 
" clip-path="url(#p080bb08260)" style="fill: none; stroke: #7f7f7f; stroke-width: 1.5; stroke-linecap: square"/>
   </g>
   <g id="patch_3">
    <path d="M 47.675 246.2 
L 47.675 26.8 
" style="fill: none; stroke: #000000; stroke-width: 0.8; stroke-linejoin: miter; stroke-linecap: square"/>
   </g>
   <g id="patch_4">
    <path d="M 47.675 246.2 
L 325.1625 246.2 
" style="fill: none; stroke: #000000; stroke-width: 0.8; stroke-linejoin: miter; stroke-linecap: square"/>
   </g>
   <g id="text_17">
    <!-- Node * surprisal -->
    <g transform="translate(138.1375 20.8)scale(0.12 -0.12)">
     <defs>
      <path id="DejaVuSans-4e" d="M 628 4666 
L 1478 4666 
L 3547 763 
L 3547 4666 
L 4159 4666 
L 4159 0 
L 3309 0 
L 1241 3903 
L 1241 0 
L 628 0 
L 628 4666 
z
" transform="scale(0.015625)"/>
      <path id="DejaVuSans-64" d="M 2906 2969 
L 2906 4863 
L 3481 4863 
L 3481 0 
L 2906 0 
L 2906 525 
Q 2725 213 2448 61 
Q 2172 -91 1784 -91 
Q 1150 -91 751 415 
Q 353 922 353 1747 
Q 353 2572 751 3078 
Q 1150 3584 1784 3584 
Q 2172 3584 2448 3432 
Q 2725 3281 2906 2969 
z
M 947 1747 
Q 947 1113 1208 752 
Q 1469 391 1925 391 
Q 2381 391 2643 752 
Q 2906 1113 2906 1747 
Q 2906 2381 2643 2742 
Q 2381 3103 1925 3103 
Q 1469 3103 1208 2742 
Q 947 2381 947 1747 
z
" transform="scale(0.015625)"/>
      <path id="DejaVuSans-2a" d="M 3009 3897 
L 1888 3291 
L 3009 2681 
L 2828 2375 
L 1778 3009 
L 1778 1831 
L 1422 1831 
L 1422 3009 
L 372 2375 
L 191 2681 
L 1313 3291 
L 191 3897 
L 372 4206 
L 1422 3572 
L 1422 4750 
L 1778 4750 
L 1778 3572 
L 2828 4206 
L 3009 3897 
z
" transform="scale(0.015625)"/>
     </defs>
     <use xlink:href="#DejaVuSans-4e"/>
     <use xlink:href="#DejaVuSans-6f" x="74.804688"/>
     <use xlink:href="#DejaVuSans-64" x="135.986328"/>
     <use xlink:href="#DejaVuSans-65" x="199.462891"/>
     <use xlink:href="#DejaVuSans-20" x="260.986328"/>
     <use xlink:href="#DejaVuSans-2a" x="292.773438"/>
     <use xlink:href="#DejaVuSans-20" x="342.773438"/>
     <use xlink:href="#DejaVuSans-73" x="374.560547"/>
     <use xlink:href="#DejaVuSans-75" x="426.660156"/>
     <use xlink:href="#DejaVuSans-72" x="490.039062"/>
     <use xlink:href="#DejaVuSans-70" x="531.152344"/>
     <use xlink:href="#DejaVuSans-72" x="594.628906"/>
     <use xlink:href="#DejaVuSans-69" x="635.742188"/>
     <use xlink:href="#DejaVuSans-73" x="663.525391"/>
     <use xlink:href="#DejaVuSans-61" x="715.625"/>
     <use xlink:href="#DejaVuSans-6c" x="776.904297"/>
    </g>
   </g>
   <g id="legend_1">
    <g id="line2d_23">
     <path d="M 56.675 128.873438 
L 66.675 128.873438 
L 76.675 128.873438 
" style="fill: none; stroke: #1f77b4; stroke-width: 1.5; stroke-linecap: square"/>
    </g>
    <g id="text_18">
     <!-- Node -->
     <g transform="translate(84.675 132.373438)scale(0.1 -0.1)">
      <use xlink:href="#DejaVuSans-4e"/>
      <use xlink:href="#DejaVuSans-6f" x="74.804688"/>
      <use xlink:href="#DejaVuSans-64" x="135.986328"/>
      <use xlink:href="#DejaVuSans-65" x="199.462891"/>
     </g>
    </g>
    <g id="line2d_24">
     <path d="M 56.675 143.551563 
L 66.675 143.551563 
L 76.675 143.551563 
" style="fill: none; stroke: #ff7f0e; stroke-width: 1.5; stroke-linecap: square"/>
    </g>
    <g id="text_19">
     <!-- Node + surprisal -->
     <g transform="translate(84.675 147.051563)scale(0.1 -0.1)">
      <defs>
       <path id="DejaVuSans-2b" d="M 2944 4013 
L 2944 2272 
L 4684 2272 
L 4684 1741 
L 2944 1741 
L 2944 0 
L 2419 0 
L 2419 1741 
L 678 1741 
L 678 2272 
L 2419 2272 
L 2419 4013 
L 2944 4013 
z
" transform="scale(0.015625)"/>
      </defs>
      <use xlink:href="#DejaVuSans-4e"/>
      <use xlink:href="#DejaVuSans-6f" x="74.804688"/>
      <use xlink:href="#DejaVuSans-64" x="135.986328"/>
      <use xlink:href="#DejaVuSans-65" x="199.462891"/>
      <use xlink:href="#DejaVuSans-20" x="260.986328"/>
      <use xlink:href="#DejaVuSans-2b" x="292.773438"/>
      <use xlink:href="#DejaVuSans-20" x="376.5625"/>
      <use xlink:href="#DejaVuSans-73" x="408.349609"/>
      <use xlink:href="#DejaVuSans-75" x="460.449219"/>
      <use xlink:href="#DejaVuSans-72" x="523.828125"/>
      <use xlink:href="#DejaVuSans-70" x="564.941406"/>
      <use xlink:href="#DejaVuSans-72" x="628.417969"/>
      <use xlink:href="#DejaVuSans-69" x="669.53125"/>
      <use xlink:href="#DejaVuSans-73" x="697.314453"/>
      <use xlink:href="#DejaVuSans-61" x="749.414062"/>
      <use xlink:href="#DejaVuSans-6c" x="810.693359"/>
     </g>
    </g>
    <g id="line2d_25">
     <path d="M 56.675 158.229688 
L 66.675 158.229688 
L 76.675 158.229688 
" style="fill: none; stroke: #2ca02c; stroke-width: 1.5; stroke-linecap: square"/>
    </g>
    <g id="text_20">
     <!-- Node split -->
     <g transform="translate(84.675 161.729688)scale(0.1 -0.1)">
      <use xlink:href="#DejaVuSans-4e"/>
      <use xlink:href="#DejaVuSans-6f" x="74.804688"/>
      <use xlink:href="#DejaVuSans-64" x="135.986328"/>
      <use xlink:href="#DejaVuSans-65" x="199.462891"/>
      <use xlink:href="#DejaVuSans-20" x="260.986328"/>
      <use xlink:href="#DejaVuSans-73" x="292.773438"/>
      <use xlink:href="#DejaVuSans-70" x="344.873047"/>
      <use xlink:href="#DejaVuSans-6c" x="408.349609"/>
      <use xlink:href="#DejaVuSans-69" x="436.132812"/>
      <use xlink:href="#DejaVuSans-74" x="463.916016"/>
     </g>
    </g>
    <g id="line2d_26">
     <path d="M 56.675 172.907813 
L 66.675 172.907813 
L 76.675 172.907813 
" style="fill: none; stroke: #d62728; stroke-width: 1.5; stroke-linecap: square"/>
    </g>
    <g id="text_21">
     <!-- Node split + surprisal -->
     <g transform="translate(84.675 176.407813)scale(0.1 -0.1)">
      <use xlink:href="#DejaVuSans-4e"/>
      <use xlink:href="#DejaVuSans-6f" x="74.804688"/>
      <use xlink:href="#DejaVuSans-64" x="135.986328"/>
      <use xlink:href="#DejaVuSans-65" x="199.462891"/>
      <use xlink:href="#DejaVuSans-20" x="260.986328"/>
      <use xlink:href="#DejaVuSans-73" x="292.773438"/>
      <use xlink:href="#DejaVuSans-70" x="344.873047"/>
      <use xlink:href="#DejaVuSans-6c" x="408.349609"/>
      <use xlink:href="#DejaVuSans-69" x="436.132812"/>
      <use xlink:href="#DejaVuSans-74" x="463.916016"/>
      <use xlink:href="#DejaVuSans-20" x="503.125"/>
      <use xlink:href="#DejaVuSans-2b" x="534.912109"/>
      <use xlink:href="#DejaVuSans-20" x="618.701172"/>
      <use xlink:href="#DejaVuSans-73" x="650.488281"/>
      <use xlink:href="#DejaVuSans-75" x="702.587891"/>
      <use xlink:href="#DejaVuSans-72" x="765.966797"/>
      <use xlink:href="#DejaVuSans-70" x="807.080078"/>
      <use xlink:href="#DejaVuSans-72" x="870.556641"/>
      <use xlink:href="#DejaVuSans-69" x="911.669922"/>
      <use xlink:href="#DejaVuSans-73" x="939.453125"/>
      <use xlink:href="#DejaVuSans-61" x="991.552734"/>
      <use xlink:href="#DejaVuSans-6c" x="1052.832031"/>
     </g>
    </g>
    <g id="line2d_27">
     <path d="M 56.675 187.585938 
L 66.675 187.585938 
L 76.675 187.585938 
" style="fill: none; stroke: #9467bd; stroke-width: 1.5; stroke-linecap: square"/>
    </g>
    <g id="text_22">
     <!-- Node random split -->
     <g transform="translate(84.675 191.085938)scale(0.1 -0.1)">
      <use xlink:href="#DejaVuSans-4e"/>
      <use xlink:href="#DejaVuSans-6f" x="74.804688"/>
      <use xlink:href="#DejaVuSans-64" x="135.986328"/>
      <use xlink:href="#DejaVuSans-65" x="199.462891"/>
      <use xlink:href="#DejaVuSans-20" x="260.986328"/>
      <use xlink:href="#DejaVuSans-72" x="292.773438"/>
      <use xlink:href="#DejaVuSans-61" x="333.886719"/>
      <use xlink:href="#DejaVuSans-6e" x="395.166016"/>
      <use xlink:href="#DejaVuSans-64" x="458.544922"/>
      <use xlink:href="#DejaVuSans-6f" x="522.021484"/>
      <use xlink:href="#DejaVuSans-6d" x="583.203125"/>
      <use xlink:href="#DejaVuSans-20" x="680.615234"/>
      <use xlink:href="#DejaVuSans-73" x="712.402344"/>
      <use xlink:href="#DejaVuSans-70" x="764.501953"/>
      <use xlink:href="#DejaVuSans-6c" x="827.978516"/>
      <use xlink:href="#DejaVuSans-69" x="855.761719"/>
      <use xlink:href="#DejaVuSans-74" x="883.544922"/>
     </g>
    </g>
    <g id="line2d_28">
     <path d="M 56.675 202.264063 
L 66.675 202.264063 
L 76.675 202.264063 
" style="fill: none; stroke: #8c564b; stroke-width: 1.5; stroke-linecap: square"/>
    </g>
    <g id="text_23">
     <!-- Node random split + surprisal -->
     <g transform="translate(84.675 205.764063)scale(0.1 -0.1)">
      <use xlink:href="#DejaVuSans-4e"/>
      <use xlink:href="#DejaVuSans-6f" x="74.804688"/>
      <use xlink:href="#DejaVuSans-64" x="135.986328"/>
      <use xlink:href="#DejaVuSans-65" x="199.462891"/>
      <use xlink:href="#DejaVuSans-20" x="260.986328"/>
      <use xlink:href="#DejaVuSans-72" x="292.773438"/>
      <use xlink:href="#DejaVuSans-61" x="333.886719"/>
      <use xlink:href="#DejaVuSans-6e" x="395.166016"/>
      <use xlink:href="#DejaVuSans-64" x="458.544922"/>
      <use xlink:href="#DejaVuSans-6f" x="522.021484"/>
      <use xlink:href="#DejaVuSans-6d" x="583.203125"/>
      <use xlink:href="#DejaVuSans-20" x="680.615234"/>
      <use xlink:href="#DejaVuSans-73" x="712.402344"/>
      <use xlink:href="#DejaVuSans-70" x="764.501953"/>
      <use xlink:href="#DejaVuSans-6c" x="827.978516"/>
      <use xlink:href="#DejaVuSans-69" x="855.761719"/>
      <use xlink:href="#DejaVuSans-74" x="883.544922"/>
      <use xlink:href="#DejaVuSans-20" x="922.753906"/>
      <use xlink:href="#DejaVuSans-2b" x="954.541016"/>
      <use xlink:href="#DejaVuSans-20" x="1038.330078"/>
      <use xlink:href="#DejaVuSans-73" x="1070.117188"/>
      <use xlink:href="#DejaVuSans-75" x="1122.216797"/>
      <use xlink:href="#DejaVuSans-72" x="1185.595703"/>
      <use xlink:href="#DejaVuSans-70" x="1226.708984"/>
      <use xlink:href="#DejaVuSans-72" x="1290.185547"/>
      <use xlink:href="#DejaVuSans-69" x="1331.298828"/>
      <use xlink:href="#DejaVuSans-73" x="1359.082031"/>
      <use xlink:href="#DejaVuSans-61" x="1411.181641"/>
      <use xlink:href="#DejaVuSans-6c" x="1472.460938"/>
     </g>
    </g>
    <g id="line2d_29">
     <path d="M 56.675 216.942188 
L 66.675 216.942188 
L 76.675 216.942188 
" style="fill: none; stroke: #e377c2; stroke-width: 1.5; stroke-linecap: square"/>
    </g>
    <g id="text_24">
     <!-- Interaction -->
     <g transform="translate(84.675 220.442188)scale(0.1 -0.1)">
      <use xlink:href="#DejaVuSans-49"/>
      <use xlink:href="#DejaVuSans-6e" x="29.492188"/>
      <use xlink:href="#DejaVuSans-74" x="92.871094"/>
      <use xlink:href="#DejaVuSans-65" x="132.080078"/>
      <use xlink:href="#DejaVuSans-72" x="193.603516"/>
      <use xlink:href="#DejaVuSans-61" x="234.716797"/>
      <use xlink:href="#DejaVuSans-63" x="295.996094"/>
      <use xlink:href="#DejaVuSans-74" x="350.976562"/>
      <use xlink:href="#DejaVuSans-69" x="390.185547"/>
      <use xlink:href="#DejaVuSans-6f" x="417.96875"/>
      <use xlink:href="#DejaVuSans-6e" x="479.150391"/>
     </g>
    </g>
    <g id="line2d_30">
     <path d="M 56.675 231.620313 
L 66.675 231.620313 
L 76.675 231.620313 
" style="fill: none; stroke: #7f7f7f; stroke-width: 1.5; stroke-linecap: square"/>
    </g>
    <g id="text_25">
     <!-- Node + surprisal + interaction -->
     <g transform="translate(84.675 235.120313)scale(0.1 -0.1)">
      <use xlink:href="#DejaVuSans-4e"/>
      <use xlink:href="#DejaVuSans-6f" x="74.804688"/>
      <use xlink:href="#DejaVuSans-64" x="135.986328"/>
      <use xlink:href="#DejaVuSans-65" x="199.462891"/>
      <use xlink:href="#DejaVuSans-20" x="260.986328"/>
      <use xlink:href="#DejaVuSans-2b" x="292.773438"/>
      <use xlink:href="#DejaVuSans-20" x="376.5625"/>
      <use xlink:href="#DejaVuSans-73" x="408.349609"/>
      <use xlink:href="#DejaVuSans-75" x="460.449219"/>
      <use xlink:href="#DejaVuSans-72" x="523.828125"/>
      <use xlink:href="#DejaVuSans-70" x="564.941406"/>
      <use xlink:href="#DejaVuSans-72" x="628.417969"/>
      <use xlink:href="#DejaVuSans-69" x="669.53125"/>
      <use xlink:href="#DejaVuSans-73" x="697.314453"/>
      <use xlink:href="#DejaVuSans-61" x="749.414062"/>
      <use xlink:href="#DejaVuSans-6c" x="810.693359"/>
      <use xlink:href="#DejaVuSans-20" x="838.476562"/>
      <use xlink:href="#DejaVuSans-2b" x="870.263672"/>
      <use xlink:href="#DejaVuSans-20" x="954.052734"/>
      <use xlink:href="#DejaVuSans-69" x="985.839844"/>
      <use xlink:href="#DejaVuSans-6e" x="1013.623047"/>
      <use xlink:href="#DejaVuSans-74" x="1077.001953"/>
      <use xlink:href="#DejaVuSans-65" x="1116.210938"/>
      <use xlink:href="#DejaVuSans-72" x="1177.734375"/>
      <use xlink:href="#DejaVuSans-61" x="1218.847656"/>
      <use xlink:href="#DejaVuSans-63" x="1280.126953"/>
      <use xlink:href="#DejaVuSans-74" x="1335.107422"/>
      <use xlink:href="#DejaVuSans-69" x="1374.316406"/>
      <use xlink:href="#DejaVuSans-6f" x="1402.099609"/>
      <use xlink:href="#DejaVuSans-6e" x="1463.28125"/>
     </g>
    </g>
   </g>
  </g>
  <g id="axes_2">
   <g id="patch_5">
    <path d="M 351.775 246.2 
L 629.2625 246.2 
L 629.2625 26.8 
L 351.775 26.8 
z
" style="fill: #ffffff"/>
   </g>
   <g id="PolyCollection_9">
    <path d="M 351.775 36.772727 
L 351.775 36.772727 
L 366.379605 40.314422 
L 380.984211 50.075535 
L 395.588816 62.636757 
L 410.193421 77.474283 
L 424.798026 93.16763 
L 439.402632 108.858443 
L 454.007237 123.779072 
L 468.611842 137.987487 
L 483.216447 150.780897 
L 497.821053 162.521263 
L 512.425658 172.947659 
L 527.030263 182.252661 
L 541.634868 190.574452 
L 556.239474 197.938161 
L 570.844079 204.35405 
L 585.448684 210.079824 
L 600.053289 215.12698 
L 614.657895 219.461595 
L 629.2625 223.325649 
L 629.2625 207.52625 
L 629.2625 207.52625 
L 614.657895 203.098666 
L 600.053289 198.15427 
L 585.448684 192.530851 
L 570.844079 186.443489 
L 556.239474 179.483363 
L 541.634868 171.933179 
L 527.030263 163.531359 
L 512.425658 154.318338 
L 497.821053 143.977398 
L 483.216447 132.812982 
L 468.611842 120.735508 
L 454.007237 107.813224 
L 439.402632 94.388388 
L 424.798026 80.809497 
L 410.193421 67.470731 
L 395.588816 55.58734 
L 380.984211 46.156287 
L 366.379605 39.060131 
L 351.775 36.772727 
z
" clip-path="url(#pe7c4ddb902)" style="fill: #1f77b4; fill-opacity: 0.2"/>
   </g>
   <g id="PolyCollection_10">
    <path d="M 351.775 36.772906 
L 351.775 36.772995 
L 366.379605 40.317354 
L 380.984211 50.088349 
L 395.588816 62.663973 
L 410.193421 77.513974 
L 424.798026 93.227591 
L 439.402632 108.933984 
L 454.007237 123.878594 
L 468.611842 138.121908 
L 483.216447 150.942741 
L 497.821053 162.720084 
L 512.425658 173.177708 
L 527.030263 182.53226 
L 541.634868 190.885829 
L 556.239474 198.298359 
L 570.844079 204.751095 
L 585.448684 210.538061 
L 600.053289 215.620618 
L 614.657895 219.985078 
L 629.2625 223.92309 
L 629.2625 208.050831 
L 629.2625 208.050831 
L 614.657895 203.585075 
L 600.053289 198.609997 
L 585.448684 192.942795 
L 570.844079 186.818021 
L 556.239474 179.813457 
L 541.634868 172.227396 
L 527.030263 163.792612 
L 512.425658 154.555864 
L 497.821053 144.178282 
L 483.216447 132.989684 
L 468.611842 120.880234 
L 454.007237 107.936009 
L 439.402632 94.478933 
L 424.798026 80.879947 
L 410.193421 67.516441 
L 395.588816 55.615703 
L 380.984211 46.169273 
L 366.379605 39.064004 
L 351.775 36.772906 
z
" clip-path="url(#pe7c4ddb902)" style="fill: #ff7f0e; fill-opacity: 0.2"/>
   </g>
   <g id="PolyCollection_11">
    <path d="M 351.775 36.772727 
L 351.775 36.772728 
L 366.379605 40.320173 
L 380.984211 50.096652 
L 395.588816 62.685809 
L 410.193421 77.548916 
L 424.798026 93.284271 
L 439.402632 109.008839 
L 454.007237 123.98378 
L 468.611842 138.264294 
L 483.216447 151.106599 
L 497.821053 162.908801 
L 512.425658 173.395801 
L 527.030263 182.793124 
L 541.634868 191.178075 
L 556.239474 198.631908 
L 570.844079 205.110789 
L 585.448684 210.924269 
L 600.053289 216.054279 
L 614.657895 220.450072 
L 629.2625 224.415504 
L 629.2625 208.323069 
L 629.2625 208.323069 
L 614.657895 203.862879 
L 600.053289 198.885598 
L 585.448684 193.20424 
L 570.844079 187.065474 
L 556.239474 180.044832 
L 541.634868 172.441854 
L 527.030263 163.978201 
L 512.425658 154.717024 
L 497.821053 144.318942 
L 483.216447 133.082878 
L 468.611842 120.948964 
L 454.007237 107.988876 
L 439.402632 94.530968 
L 424.798026 80.90928 
L 410.193421 67.537287 
L 395.588816 55.626657 
L 380.984211 46.173969 
L 366.379605 39.065223 
L 351.775 36.772727 
z
" clip-path="url(#pe7c4ddb902)" style="fill: #2ca02c; fill-opacity: 0.2"/>
   </g>
   <g id="PolyCollection_12">
    <path d="M 351.775 36.77368 
L 351.775 36.774234 
L 366.379605 40.323034 
L 380.984211 50.10501 
L 395.588816 62.702603 
L 410.193421 77.574389 
L 424.798026 93.322757 
L 439.402632 109.064008 
L 454.007237 124.053627 
L 468.611842 138.362096 
L 483.216447 151.233291 
L 497.821053 163.061788 
L 512.425658 173.583144 
L 527.030263 183.000188 
L 541.634868 191.414018 
L 556.239474 198.896178 
L 570.844079 205.394374 
L 585.448684 211.251604 
L 600.053289 216.407456 
L 614.657895 220.826388 
L 629.2625 224.845772 
L 629.2625 208.758733 
L 629.2625 208.758733 
L 614.657895 204.273362 
L 600.053289 199.257294 
L 585.448684 193.566096 
L 570.844079 187.411947 
L 556.239474 180.351017 
L 541.634868 172.717598 
L 527.030263 164.218271 
L 512.425658 154.9236 
L 497.821053 144.493117 
L 483.216447 133.239487 
L 468.611842 121.076004 
L 454.007237 108.093898 
L 439.402632 94.608182 
L 424.798026 80.973198 
L 410.193421 67.580998 
L 395.588816 55.652808 
L 380.984211 46.186422 
L 366.379605 39.069977 
L 351.775 36.77368 
z
" clip-path="url(#pe7c4ddb902)" style="fill: #d62728; fill-opacity: 0.2"/>
   </g>
   <g id="PolyCollection_13">
    <path d="M 351.775 36.772727 
L 351.775 36.772728 
L 366.379605 40.320509 
L 380.984211 50.103575 
L 395.588816 62.686743 
L 410.193421 77.563712 
L 424.798026 93.286555 
L 439.402632 108.974297 
L 454.007237 123.947746 
L 468.611842 138.263819 
L 483.216447 151.077566 
L 497.821053 162.877667 
L 512.425658 173.458073 
L 527.030263 182.665802 
L 541.634868 191.200272 
L 556.239474 198.569624 
L 570.844079 205.136526 
L 585.448684 210.952277 
L 600.053289 216.039987 
L 614.657895 220.411142 
L 629.2625 224.430062 
L 629.2625 208.133597 
L 629.2625 208.133597 
L 614.657895 203.871713 
L 600.053289 198.792945 
L 585.448684 193.178674 
L 570.844079 186.992415 
L 556.239474 180.084079 
L 541.634868 172.387822 
L 527.030263 163.960589 
L 512.425658 154.63958 
L 497.821053 144.252393 
L 483.216447 133.063953 
L 468.611842 120.986688 
L 454.007237 107.991775 
L 439.402632 94.566912 
L 424.798026 80.90145 
L 410.193421 67.552299 
L 395.588816 55.622205 
L 380.984211 46.180402 
L 366.379605 39.063577 
L 351.775 36.772727 
z
" clip-path="url(#pe7c4ddb902)" style="fill: #9467bd; fill-opacity: 0.2"/>
   </g>
   <g id="PolyCollection_14">
    <path d="M 351.775 36.773441 
L 351.775 36.773797 
L 366.379605 40.323871 
L 380.984211 50.116369 
L 395.588816 62.713124 
L 410.193421 77.603238 
L 424.798026 93.344242 
L 439.402632 109.046354 
L 454.007237 124.042304 
L 468.611842 138.398727 
L 483.216447 151.238381 
L 497.821053 163.072885 
L 512.425658 173.683481 
L 527.030263 182.943288 
L 541.634868 191.496253 
L 556.239474 198.914381 
L 570.844079 205.523278 
L 585.448684 211.388288 
L 600.053289 216.521184 
L 614.657895 220.893292 
L 629.2625 224.976984 
L 629.2625 208.633481 
L 629.2625 208.633481 
L 614.657895 204.341982 
L 600.053289 199.235727 
L 585.448684 193.599957 
L 570.844079 187.351988 
L 556.239474 180.415557 
L 541.634868 172.678398 
L 527.030263 164.217181 
L 512.425658 154.878459 
L 497.821053 144.455307 
L 483.216447 133.241619 
L 468.611842 121.130116 
L 454.007237 108.115311 
L 439.402632 94.660329 
L 424.798026 80.974776 
L 410.193421 67.600051 
L 395.588816 55.652189 
L 380.984211 46.194334 
L 366.379605 39.06834 
L 351.775 36.773441 
z
" clip-path="url(#pe7c4ddb902)" style="fill: #8c564b; fill-opacity: 0.2"/>
   </g>
   <g id="PolyCollection_15">
    <path d="M 351.775 51.977821 
L 351.775 57.414242 
L 366.379605 60.170419 
L 380.984211 68.424345 
L 395.588816 79.665616 
L 410.193421 93.228705 
L 424.798026 107.685305 
L 439.402632 122.135691 
L 454.007237 135.940458 
L 468.611842 149.068998 
L 483.216447 160.907549 
L 497.821053 171.689993 
L 512.425658 181.376045 
L 527.030263 189.924133 
L 541.634868 197.571065 
L 556.239474 204.372129 
L 570.844079 210.288785 
L 585.448684 215.570885 
L 600.053289 220.193945 
L 614.657895 224.174626 
L 629.2625 227.746944 
L 629.2625 211.818253 
L 629.2625 211.818253 
L 614.657895 207.718902 
L 600.053289 203.143611 
L 585.448684 197.923605 
L 570.844079 192.257897 
L 556.239474 185.831853 
L 541.634868 178.783953 
L 527.030263 170.979942 
L 512.425658 162.427825 
L 497.821053 152.837693 
L 483.216447 142.543979 
L 468.611842 131.315255 
L 454.007237 119.352463 
L 439.402632 106.969916 
L 424.798026 94.344356 
L 410.193421 81.986486 
L 395.588816 70.86266 
L 380.984211 61.835911 
L 366.379605 54.582516 
L 351.775 51.977821 
z
" clip-path="url(#pe7c4ddb902)" style="fill: #e377c2; fill-opacity: 0.2"/>
   </g>
   <g id="PolyCollection_16">
    <path d="M 351.775 36.773049 
L 351.775 36.773307 
L 366.379605 40.323025 
L 380.984211 50.111857 
L 395.588816 62.718938 
L 410.193421 77.601248 
L 424.798026 93.363656 
L 439.402632 109.102714 
L 454.007237 124.098216 
L 468.611842 138.412985 
L 483.216447 151.280208 
L 497.821053 163.113954 
L 512.425658 173.635878 
L 527.030263 183.044547 
L 541.634868 191.461084 
L 556.239474 198.9507 
L 570.844079 205.474156 
L 585.448684 211.350383 
L 600.053289 216.490176 
L 614.657895 220.922392 
L 629.2625 224.972773 
L 629.2625 208.75905 
L 629.2625 208.75905 
L 614.657895 204.257725 
L 600.053289 199.259046 
L 585.448684 193.560949 
L 570.844079 187.389117 
L 556.239474 180.353642 
L 541.634868 172.729709 
L 527.030263 164.209147 
L 512.425658 154.906658 
L 497.821053 144.478221 
L 483.216447 133.235033 
L 468.611842 121.070869 
L 454.007237 108.095537 
L 439.402632 94.595635 
L 424.798026 80.957269 
L 410.193421 67.570796 
L 395.588816 55.646997 
L 380.984211 46.184427 
L 366.379605 39.069552 
L 351.775 36.773049 
z
" clip-path="url(#pe7c4ddb902)" style="fill: #7f7f7f; fill-opacity: 0.2"/>
   </g>
   <g id="matplotlib.axis_3">
    <g id="xtick_10">
     <g id="line2d_31">
      <g>
       <use xlink:href="#m4f5e463c92" x="351.775" y="246.2" style="stroke: #000000; stroke-width: 0.8"/>
      </g>
     </g>
     <g id="text_26">
      <!-- 0.00 -->
      <g transform="translate(340.642187 260.798437)scale(0.1 -0.1)">
       <use xlink:href="#DejaVuSans-30"/>
       <use xlink:href="#DejaVuSans-2e" x="63.623047"/>
       <use xlink:href="#DejaVuSans-30" x="95.410156"/>
       <use xlink:href="#DejaVuSans-30" x="159.033203"/>
      </g>
     </g>
    </g>
    <g id="xtick_11">
     <g id="line2d_32">
      <g>
       <use xlink:href="#m4f5e463c92" x="386.460937" y="246.2" style="stroke: #000000; stroke-width: 0.8"/>
      </g>
     </g>
     <g id="text_27">
      <!-- 0.25 -->
      <g transform="translate(375.328125 260.798437)scale(0.1 -0.1)">
       <use xlink:href="#DejaVuSans-30"/>
       <use xlink:href="#DejaVuSans-2e" x="63.623047"/>
       <use xlink:href="#DejaVuSans-32" x="95.410156"/>
       <use xlink:href="#DejaVuSans-35" x="159.033203"/>
      </g>
     </g>
    </g>
    <g id="xtick_12">
     <g id="line2d_33">
      <g>
       <use xlink:href="#m4f5e463c92" x="421.146875" y="246.2" style="stroke: #000000; stroke-width: 0.8"/>
      </g>
     </g>
     <g id="text_28">
      <!-- 0.50 -->
      <g transform="translate(410.014062 260.798437)scale(0.1 -0.1)">
       <use xlink:href="#DejaVuSans-30"/>
       <use xlink:href="#DejaVuSans-2e" x="63.623047"/>
       <use xlink:href="#DejaVuSans-35" x="95.410156"/>
       <use xlink:href="#DejaVuSans-30" x="159.033203"/>
      </g>
     </g>
    </g>
    <g id="xtick_13">
     <g id="line2d_34">
      <g>
       <use xlink:href="#m4f5e463c92" x="455.832812" y="246.2" style="stroke: #000000; stroke-width: 0.8"/>
      </g>
     </g>
     <g id="text_29">
      <!-- 0.75 -->
      <g transform="translate(444.7 260.798437)scale(0.1 -0.1)">
       <use xlink:href="#DejaVuSans-30"/>
       <use xlink:href="#DejaVuSans-2e" x="63.623047"/>
       <use xlink:href="#DejaVuSans-37" x="95.410156"/>
       <use xlink:href="#DejaVuSans-35" x="159.033203"/>
      </g>
     </g>
    </g>
    <g id="xtick_14">
     <g id="line2d_35">
      <g>
       <use xlink:href="#m4f5e463c92" x="490.51875" y="246.2" style="stroke: #000000; stroke-width: 0.8"/>
      </g>
     </g>
     <g id="text_30">
      <!-- 1.00 -->
      <g transform="translate(479.385937 260.798437)scale(0.1 -0.1)">
       <use xlink:href="#DejaVuSans-31"/>
       <use xlink:href="#DejaVuSans-2e" x="63.623047"/>
       <use xlink:href="#DejaVuSans-30" x="95.410156"/>
       <use xlink:href="#DejaVuSans-30" x="159.033203"/>
      </g>
     </g>
    </g>
    <g id="xtick_15">
     <g id="line2d_36">
      <g>
       <use xlink:href="#m4f5e463c92" x="525.204687" y="246.2" style="stroke: #000000; stroke-width: 0.8"/>
      </g>
     </g>
     <g id="text_31">
      <!-- 1.25 -->
      <g transform="translate(514.071875 260.798437)scale(0.1 -0.1)">
       <use xlink:href="#DejaVuSans-31"/>
       <use xlink:href="#DejaVuSans-2e" x="63.623047"/>
       <use xlink:href="#DejaVuSans-32" x="95.410156"/>
       <use xlink:href="#DejaVuSans-35" x="159.033203"/>
      </g>
     </g>
    </g>
    <g id="xtick_16">
     <g id="line2d_37">
      <g>
       <use xlink:href="#m4f5e463c92" x="559.890625" y="246.2" style="stroke: #000000; stroke-width: 0.8"/>
      </g>
     </g>
     <g id="text_32">
      <!-- 1.50 -->
      <g transform="translate(548.757812 260.798437)scale(0.1 -0.1)">
       <use xlink:href="#DejaVuSans-31"/>
       <use xlink:href="#DejaVuSans-2e" x="63.623047"/>
       <use xlink:href="#DejaVuSans-35" x="95.410156"/>
       <use xlink:href="#DejaVuSans-30" x="159.033203"/>
      </g>
     </g>
    </g>
    <g id="xtick_17">
     <g id="line2d_38">
      <g>
       <use xlink:href="#m4f5e463c92" x="594.576562" y="246.2" style="stroke: #000000; stroke-width: 0.8"/>
      </g>
     </g>
     <g id="text_33">
      <!-- 1.75 -->
      <g transform="translate(583.44375 260.798437)scale(0.1 -0.1)">
       <use xlink:href="#DejaVuSans-31"/>
       <use xlink:href="#DejaVuSans-2e" x="63.623047"/>
       <use xlink:href="#DejaVuSans-37" x="95.410156"/>
       <use xlink:href="#DejaVuSans-35" x="159.033203"/>
      </g>
     </g>
    </g>
    <g id="xtick_18">
     <g id="line2d_39">
      <g>
       <use xlink:href="#m4f5e463c92" x="629.2625" y="246.2" style="stroke: #000000; stroke-width: 0.8"/>
      </g>
     </g>
     <g id="text_34">
      <!-- 2.00 -->
      <g transform="translate(618.129687 260.798437)scale(0.1 -0.1)">
       <use xlink:href="#DejaVuSans-32"/>
       <use xlink:href="#DejaVuSans-2e" x="63.623047"/>
       <use xlink:href="#DejaVuSans-30" x="95.410156"/>
       <use xlink:href="#DejaVuSans-30" x="159.033203"/>
      </g>
     </g>
    </g>
    <g id="text_35">
     <!-- Influence of surprisal (multiplication) -->
     <g transform="translate(398.371875 274.476562)scale(0.1 -0.1)">
      <use xlink:href="#DejaVuSans-49"/>
      <use xlink:href="#DejaVuSans-6e" x="29.492188"/>
      <use xlink:href="#DejaVuSans-66" x="92.871094"/>
      <use xlink:href="#DejaVuSans-6c" x="128.076172"/>
      <use xlink:href="#DejaVuSans-75" x="155.859375"/>
      <use xlink:href="#DejaVuSans-65" x="219.238281"/>
      <use xlink:href="#DejaVuSans-6e" x="280.761719"/>
      <use xlink:href="#DejaVuSans-63" x="344.140625"/>
      <use xlink:href="#DejaVuSans-65" x="399.121094"/>
      <use xlink:href="#DejaVuSans-20" x="460.644531"/>
      <use xlink:href="#DejaVuSans-6f" x="492.431641"/>
      <use xlink:href="#DejaVuSans-66" x="553.613281"/>
      <use xlink:href="#DejaVuSans-20" x="588.818359"/>
      <use xlink:href="#DejaVuSans-73" x="620.605469"/>
      <use xlink:href="#DejaVuSans-75" x="672.705078"/>
      <use xlink:href="#DejaVuSans-72" x="736.083984"/>
      <use xlink:href="#DejaVuSans-70" x="777.197266"/>
      <use xlink:href="#DejaVuSans-72" x="840.673828"/>
      <use xlink:href="#DejaVuSans-69" x="881.787109"/>
      <use xlink:href="#DejaVuSans-73" x="909.570312"/>
      <use xlink:href="#DejaVuSans-61" x="961.669922"/>
      <use xlink:href="#DejaVuSans-6c" x="1022.949219"/>
      <use xlink:href="#DejaVuSans-20" x="1050.732422"/>
      <use xlink:href="#DejaVuSans-28" x="1082.519531"/>
      <use xlink:href="#DejaVuSans-6d" x="1121.533203"/>
      <use xlink:href="#DejaVuSans-75" x="1218.945312"/>
      <use xlink:href="#DejaVuSans-6c" x="1282.324219"/>
      <use xlink:href="#DejaVuSans-74" x="1310.107422"/>
      <use xlink:href="#DejaVuSans-69" x="1349.316406"/>
      <use xlink:href="#DejaVuSans-70" x="1377.099609"/>
      <use xlink:href="#DejaVuSans-6c" x="1440.576172"/>
      <use xlink:href="#DejaVuSans-69" x="1468.359375"/>
      <use xlink:href="#DejaVuSans-63" x="1496.142578"/>
      <use xlink:href="#DejaVuSans-61" x="1551.123047"/>
      <use xlink:href="#DejaVuSans-74" x="1612.402344"/>
      <use xlink:href="#DejaVuSans-69" x="1651.611328"/>
      <use xlink:href="#DejaVuSans-6f" x="1679.394531"/>
      <use xlink:href="#DejaVuSans-6e" x="1740.576172"/>
      <use xlink:href="#DejaVuSans-29" x="1803.955078"/>
     </g>
    </g>
   </g>
   <g id="line2d_40">
    <path d="M 351.775 36.772727 
L 366.379605 39.687276 
L 380.984211 48.115911 
L 395.588816 59.112048 
L 410.193421 72.472507 
L 424.798026 86.988563 
L 439.402632 101.623415 
L 454.007237 115.796148 
L 468.611842 129.361497 
L 483.216447 141.79694 
L 497.821053 153.249331 
L 512.425658 163.632999 
L 527.030263 172.89201 
L 541.634868 181.253815 
L 556.239474 188.710762 
L 570.844079 195.398769 
L 585.448684 201.305337 
L 600.053289 206.640625 
L 614.657895 211.280131 
L 629.2625 215.425949 
" clip-path="url(#pe7c4ddb902)" style="fill: none; stroke: #1f77b4; stroke-width: 1.5; stroke-linecap: square"/>
   </g>
   <g id="line2d_41">
    <path d="M 351.775 36.77295 
L 366.379605 39.690679 
L 380.984211 48.128811 
L 395.588816 59.139838 
L 410.193421 72.515208 
L 424.798026 87.053769 
L 439.402632 101.706458 
L 454.007237 115.907301 
L 468.611842 129.501071 
L 483.216447 141.966212 
L 497.821053 153.449183 
L 512.425658 163.866786 
L 527.030263 173.162436 
L 541.634868 181.556613 
L 556.239474 189.055908 
L 570.844079 195.784558 
L 585.448684 201.740428 
L 600.053289 207.115307 
L 614.657895 211.785077 
L 629.2625 215.986961 
" clip-path="url(#pe7c4ddb902)" style="fill: none; stroke: #ff7f0e; stroke-width: 1.5; stroke-linecap: square"/>
   </g>
   <g id="line2d_42">
    <path d="M 351.775 36.772728 
L 366.379605 39.692698 
L 380.984211 48.135311 
L 395.588816 59.156233 
L 410.193421 72.543101 
L 424.798026 87.096776 
L 439.402632 101.769903 
L 454.007237 115.986328 
L 468.611842 129.606629 
L 483.216447 142.094738 
L 497.821053 153.613872 
L 512.425658 164.056413 
L 527.030263 173.385662 
L 541.634868 181.809964 
L 556.239474 189.33837 
L 570.844079 196.088132 
L 585.448684 202.064255 
L 600.053289 207.469938 
L 614.657895 212.156475 
L 629.2625 216.369286 
" clip-path="url(#pe7c4ddb902)" style="fill: none; stroke: #2ca02c; stroke-width: 1.5; stroke-linecap: square"/>
   </g>
   <g id="line2d_43">
    <path d="M 351.775 36.773957 
L 366.379605 39.696505 
L 380.984211 48.145716 
L 395.588816 59.177706 
L 410.193421 72.577693 
L 424.798026 87.147978 
L 439.402632 101.836095 
L 454.007237 116.073762 
L 468.611842 129.71905 
L 483.216447 142.236389 
L 497.821053 153.777452 
L 512.425658 164.253372 
L 527.030263 173.60923 
L 541.634868 182.065808 
L 556.239474 189.623597 
L 570.844079 196.403161 
L 585.448684 202.40885 
L 600.053289 207.832375 
L 614.657895 212.549875 
L 629.2625 216.802252 
" clip-path="url(#pe7c4ddb902)" style="fill: none; stroke: #d62728; stroke-width: 1.5; stroke-linecap: square"/>
   </g>
   <g id="line2d_44">
    <path d="M 351.775 36.772728 
L 366.379605 39.692043 
L 380.984211 48.141988 
L 395.588816 59.154474 
L 410.193421 72.558005 
L 424.798026 87.094002 
L 439.402632 101.770604 
L 454.007237 115.969761 
L 468.611842 129.625253 
L 483.216447 142.070759 
L 497.821053 153.56503 
L 512.425658 164.048826 
L 527.030263 173.313195 
L 541.634868 181.794047 
L 556.239474 189.326852 
L 570.844079 196.064471 
L 585.448684 202.065476 
L 600.053289 207.416466 
L 614.657895 212.141427 
L 629.2625 216.281829 
" clip-path="url(#pe7c4ddb902)" style="fill: none; stroke: #9467bd; stroke-width: 1.5; stroke-linecap: square"/>
   </g>
   <g id="line2d_45">
    <path d="M 351.775 36.773619 
L 366.379605 39.696105 
L 380.984211 48.155352 
L 395.588816 59.182657 
L 410.193421 72.601644 
L 424.798026 87.159509 
L 439.402632 101.853341 
L 454.007237 116.078807 
L 468.611842 129.764422 
L 483.216447 142.24 
L 497.821053 153.764096 
L 512.425658 164.28097 
L 527.030263 173.580235 
L 541.634868 182.087326 
L 556.239474 189.664969 
L 570.844079 196.437633 
L 585.448684 202.494122 
L 600.053289 207.878455 
L 614.657895 212.617637 
L 629.2625 216.805232 
" clip-path="url(#pe7c4ddb902)" style="fill: none; stroke: #8c564b; stroke-width: 1.5; stroke-linecap: square"/>
   </g>
   <g id="line2d_46">
    <path d="M 351.775 54.696032 
L 366.379605 57.376467 
L 380.984211 65.130128 
L 395.588816 75.264138 
L 410.193421 87.607595 
L 424.798026 101.014831 
L 439.402632 114.552804 
L 454.007237 127.646461 
L 468.611842 140.192127 
L 483.216447 151.725764 
L 497.821053 162.263843 
L 512.425658 171.901935 
L 527.030263 180.452037 
L 541.634868 188.177509 
L 556.239474 195.101991 
L 570.844079 201.273341 
L 585.448684 206.747245 
L 600.053289 211.668778 
L 614.657895 215.946764 
L 629.2625 219.782599 
" clip-path="url(#pe7c4ddb902)" style="fill: none; stroke: #e377c2; stroke-width: 1.5; stroke-linecap: square"/>
   </g>
   <g id="line2d_47">
    <path d="M 351.775 36.773178 
L 366.379605 39.696289 
L 380.984211 48.148142 
L 395.588816 59.182968 
L 410.193421 72.586022 
L 424.798026 87.160463 
L 439.402632 101.849174 
L 454.007237 116.096877 
L 468.611842 129.741927 
L 483.216447 142.257621 
L 497.821053 153.796087 
L 512.425658 164.271268 
L 527.030263 173.626847 
L 541.634868 182.095397 
L 556.239474 189.652171 
L 570.844079 196.431637 
L 585.448684 202.455666 
L 600.053289 207.874611 
L 614.657895 212.590058 
L 629.2625 216.865912 
" clip-path="url(#pe7c4ddb902)" style="fill: none; stroke: #7f7f7f; stroke-width: 1.5; stroke-linecap: square"/>
   </g>
   <g id="patch_6">
    <path d="M 351.775 246.2 
L 351.775 26.8 
" style="fill: none; stroke: #000000; stroke-width: 0.8; stroke-linejoin: miter; stroke-linecap: square"/>
   </g>
   <g id="patch_7">
    <path d="M 351.775 246.2 
L 629.2625 246.2 
" style="fill: none; stroke: #000000; stroke-width: 0.8; stroke-linejoin: miter; stroke-linecap: square"/>
   </g>
   <g id="text_36">
    <!-- Node * third variable -->
    <g transform="translate(427.93875 20.8)scale(0.12 -0.12)">
     <defs>
      <path id="DejaVuSans-68" d="M 3513 2113 
L 3513 0 
L 2938 0 
L 2938 2094 
Q 2938 2591 2744 2837 
Q 2550 3084 2163 3084 
Q 1697 3084 1428 2787 
Q 1159 2491 1159 1978 
L 1159 0 
L 581 0 
L 581 4863 
L 1159 4863 
L 1159 2956 
Q 1366 3272 1645 3428 
Q 1925 3584 2291 3584 
Q 2894 3584 3203 3211 
Q 3513 2838 3513 2113 
z
" transform="scale(0.015625)"/>
      <path id="DejaVuSans-62" d="M 3116 1747 
Q 3116 2381 2855 2742 
Q 2594 3103 2138 3103 
Q 1681 3103 1420 2742 
Q 1159 2381 1159 1747 
Q 1159 1113 1420 752 
Q 1681 391 2138 391 
Q 2594 391 2855 752 
Q 3116 1113 3116 1747 
z
M 1159 2969 
Q 1341 3281 1617 3432 
Q 1894 3584 2278 3584 
Q 2916 3584 3314 3078 
Q 3713 2572 3713 1747 
Q 3713 922 3314 415 
Q 2916 -91 2278 -91 
Q 1894 -91 1617 61 
Q 1341 213 1159 525 
L 1159 0 
L 581 0 
L 581 4863 
L 1159 4863 
L 1159 2969 
z
" transform="scale(0.015625)"/>
     </defs>
     <use xlink:href="#DejaVuSans-4e"/>
     <use xlink:href="#DejaVuSans-6f" x="74.804688"/>
     <use xlink:href="#DejaVuSans-64" x="135.986328"/>
     <use xlink:href="#DejaVuSans-65" x="199.462891"/>
     <use xlink:href="#DejaVuSans-20" x="260.986328"/>
     <use xlink:href="#DejaVuSans-2a" x="292.773438"/>
     <use xlink:href="#DejaVuSans-20" x="342.773438"/>
     <use xlink:href="#DejaVuSans-74" x="374.560547"/>
     <use xlink:href="#DejaVuSans-68" x="413.769531"/>
     <use xlink:href="#DejaVuSans-69" x="477.148438"/>
     <use xlink:href="#DejaVuSans-72" x="504.931641"/>
     <use xlink:href="#DejaVuSans-64" x="544.294922"/>
     <use xlink:href="#DejaVuSans-20" x="607.771484"/>
     <use xlink:href="#DejaVuSans-76" x="639.558594"/>
     <use xlink:href="#DejaVuSans-61" x="698.738281"/>
     <use xlink:href="#DejaVuSans-72" x="760.017578"/>
     <use xlink:href="#DejaVuSans-69" x="801.130859"/>
     <use xlink:href="#DejaVuSans-61" x="828.914062"/>
     <use xlink:href="#DejaVuSans-62" x="890.193359"/>
     <use xlink:href="#DejaVuSans-6c" x="953.669922"/>
     <use xlink:href="#DejaVuSans-65" x="981.453125"/>
    </g>
   </g>
  </g>
 </g>
 <defs>
  <clipPath id="p080bb08260">
   <rect x="47.675" y="26.8" width="277.4875" height="219.4"/>
  </clipPath>
  <clipPath id="pe7c4ddb902">
   <rect x="351.775" y="26.8" width="277.4875" height="219.4"/>
  </clipPath>
 </defs>
</svg>
