<?xml version="1.0" encoding="utf-8" standalone="no"?>
<!DOCTYPE svg PUBLIC "-//W3C//DTD SVG 1.1//EN"
  "http://www.w3.org/Graphics/SVG/1.1/DTD/svg11.dtd">
<svg xmlns:xlink="http://www.w3.org/1999/xlink" width="648pt" height="216pt" viewBox="0 0 648 216" xmlns="http://www.w3.org/2000/svg" version="1.1">
 <metadata>
  <rdf:RDF xmlns:dc="http://purl.org/dc/elements/1.1/" xmlns:cc="http://creativecommons.org/ns#" xmlns:rdf="http://www.w3.org/1999/02/22-rdf-syntax-ns#">
   <cc:Work>
    <dc:type rdf:resource="http://purl.org/dc/dcmitype/StillImage"/>
    <dc:date>2024-01-27T17:13:43.877451</dc:date>
    <dc:format>image/svg+xml</dc:format>
    <dc:creator>
     <cc:Agent>
      <dc:title>Matplotlib v3.5.1, https://matplotlib.org/</dc:title>
     </cc:Agent>
    </dc:creator>
   </cc:Work>
  </rdf:RDF>
 </metadata>
 <defs>
  <style type="text/css">*{stroke-linejoin: round; stroke-linecap: butt}</style>
 </defs>
 <g id="figure_1">
  <g id="patch_1">
   <path d="M 0 216 
L 648 216 
L 648 0 
L 0 0 
z
" style="fill: #ffffff"/>
  </g>
  <g id="axes_1">
   <g id="patch_2">
    <path d="M 47.675 174.2 
L 163.194853 174.2 
L 163.194853 41.8 
L 47.675 41.8 
z
" style="fill: #ffffff"/>
   </g>
   <g id="PolyCollection_1">
    <path d="M 47.675 47.818182 
L 47.675 47.818182 
L 53.754992 50.104146 
L 59.834985 56.394026 
L 65.914977 64.505796 
L 71.994969 74.136585 
L 78.074961 84.327547 
L 84.154954 94.452387 
L 90.234946 104.171785 
L 96.314938 113.21203 
L 102.39493 121.467767 
L 108.474923 129.081599 
L 114.554915 135.796628 
L 120.634907 141.807499 
L 126.714899 147.264823 
L 132.794892 151.94386 
L 138.874884 156.0807 
L 144.954876 159.748816 
L 151.034868 162.95108 
L 157.114861 165.740588 
L 163.194853 168.181818 
L 163.194853 157.764102 
L 163.194853 157.764102 
L 157.114861 154.866348 
L 151.034868 151.619723 
L 144.954876 148.097649 
L 138.874884 144.096147 
L 132.794892 139.671065 
L 126.714899 134.724043 
L 120.634907 129.302309 
L 114.554915 123.32589 
L 108.474923 116.782122 
L 102.39493 109.590295 
L 96.314938 101.73778 
L 90.234946 93.485405 
L 84.154954 84.796037 
L 78.074961 75.965954 
L 71.994969 67.548389 
L 65.914977 59.918692 
L 59.834985 53.875718 
L 53.754992 49.283877 
L 47.675 47.818182 
z
" clip-path="url(#pf03b852319)" style="fill: #1f77b4; fill-opacity: 0.2"/>
   </g>
   <g id="PolyCollection_2">
    <path d="M 47.675 47.818297 
L 47.675 47.818354 
L 53.754992 49.293606 
L 59.834985 52.845582 
L 65.914977 57.988176 
L 71.994969 64.771439 
L 78.074961 72.617527 
L 84.154954 81.08875 
L 90.234946 89.739731 
L 96.314938 98.276168 
L 102.39493 106.476712 
L 108.474923 114.294294 
L 114.554915 121.548514 
L 120.634907 128.196759 
L 126.714899 134.390833 
L 132.794892 139.879454 
L 138.874884 144.872421 
L 144.954876 149.351795 
L 151.034868 153.362162 
L 157.114861 156.941869 
L 163.194853 160.104514 
L 163.194853 148.897866 
L 163.194853 148.897866 
L 157.114861 145.445894 
L 151.034868 141.625904 
L 144.954876 137.53557 
L 138.874884 132.942404 
L 132.794892 127.960403 
L 126.714899 122.4901 
L 120.634907 116.555168 
L 114.554915 110.167323 
L 108.474923 103.365475 
L 102.39493 96.123622 
L 96.314938 88.567008 
L 90.234946 80.968942 
L 84.154954 73.455204 
L 78.074961 66.318552 
L 71.994969 60.063834 
L 65.914977 54.987977 
L 59.834985 51.363097 
L 53.754992 48.798451 
L 47.675 47.818297 
z
" clip-path="url(#pf03b852319)" style="fill: #ff7f0e; fill-opacity: 0.2"/>
   </g>
   <g id="matplotlib.axis_1">
    <g id="xtick_1">
     <g id="line2d_1">
      <defs>
       <path id="m14200980b2" d="M 0 0 
L 0 3.5 
" style="stroke: #000000; stroke-width: 0.8"/>
      </defs>
      <g>
       <use xlink:href="#m14200980b2" x="47.675" y="174.2" style="stroke: #000000; stroke-width: 0.8"/>
      </g>
     </g>
     <g id="text_1">
      <!-- 0 -->
      <g transform="translate(44.49375 188.798438)scale(0.1 -0.1)">
       <defs>
        <path id="DejaVuSans-30" d="M 2034 4250 
Q 1547 4250 1301 3770 
Q 1056 3291 1056 2328 
Q 1056 1369 1301 889 
Q 1547 409 2034 409 
Q 2525 409 2770 889 
Q 3016 1369 3016 2328 
Q 3016 3291 2770 3770 
Q 2525 4250 2034 4250 
z
M 2034 4750 
Q 2819 4750 3233 4129 
Q 3647 3509 3647 2328 
Q 3647 1150 3233 529 
Q 2819 -91 2034 -91 
Q 1250 -91 836 529 
Q 422 1150 422 2328 
Q 422 3509 836 4129 
Q 1250 4750 2034 4750 
z
" transform="scale(0.015625)"/>
       </defs>
       <use xlink:href="#DejaVuSans-30"/>
      </g>
     </g>
    </g>
    <g id="xtick_2">
     <g id="line2d_2">
      <g>
       <use xlink:href="#m14200980b2" x="105.434926" y="174.2" style="stroke: #000000; stroke-width: 0.8"/>
      </g>
     </g>
     <g id="text_2">
      <!-- 1 -->
      <g transform="translate(102.253676 188.798438)scale(0.1 -0.1)">
       <defs>
        <path id="DejaVuSans-31" d="M 794 531 
L 1825 531 
L 1825 4091 
L 703 3866 
L 703 4441 
L 1819 4666 
L 2450 4666 
L 2450 531 
L 3481 531 
L 3481 0 
L 794 0 
L 794 531 
z
" transform="scale(0.015625)"/>
       </defs>
       <use xlink:href="#DejaVuSans-31"/>
      </g>
     </g>
    </g>
    <g id="xtick_3">
     <g id="line2d_3">
      <g>
       <use xlink:href="#m14200980b2" x="163.194853" y="174.2" style="stroke: #000000; stroke-width: 0.8"/>
      </g>
     </g>
     <g id="text_3">
      <!-- 2 -->
      <g transform="translate(160.013603 188.798438)scale(0.1 -0.1)">
       <defs>
        <path id="DejaVuSans-32" d="M 1228 531 
L 3431 531 
L 3431 0 
L 469 0 
L 469 531 
Q 828 903 1448 1529 
Q 2069 2156 2228 2338 
Q 2531 2678 2651 2914 
Q 2772 3150 2772 3378 
Q 2772 3750 2511 3984 
Q 2250 4219 1831 4219 
Q 1534 4219 1204 4116 
Q 875 4013 500 3803 
L 500 4441 
Q 881 4594 1212 4672 
Q 1544 4750 1819 4750 
Q 2544 4750 2975 4387 
Q 3406 4025 3406 3419 
Q 3406 3131 3298 2873 
Q 3191 2616 2906 2266 
Q 2828 2175 2409 1742 
Q 1991 1309 1228 531 
z
" transform="scale(0.015625)"/>
       </defs>
       <use xlink:href="#DejaVuSans-32"/>
      </g>
     </g>
    </g>
    <g id="text_4">
     <!-- Influence of surprisal (multiplication) -->
     <g transform="translate(13.288051 202.476562)scale(0.1 -0.1)">
      <defs>
       <path id="DejaVuSans-49" d="M 628 4666 
L 1259 4666 
L 1259 0 
L 628 0 
L 628 4666 
z
" transform="scale(0.015625)"/>
       <path id="DejaVuSans-6e" d="M 3513 2113 
L 3513 0 
L 2938 0 
L 2938 2094 
Q 2938 2591 2744 2837 
Q 2550 3084 2163 3084 
Q 1697 3084 1428 2787 
Q 1159 2491 1159 1978 
L 1159 0 
L 581 0 
L 581 3500 
L 1159 3500 
L 1159 2956 
Q 1366 3272 1645 3428 
Q 1925 3584 2291 3584 
Q 2894 3584 3203 3211 
Q 3513 2838 3513 2113 
z
" transform="scale(0.015625)"/>
       <path id="DejaVuSans-66" d="M 2375 4863 
L 2375 4384 
L 1825 4384 
Q 1516 4384 1395 4259 
Q 1275 4134 1275 3809 
L 1275 3500 
L 2222 3500 
L 2222 3053 
L 1275 3053 
L 1275 0 
L 697 0 
L 697 3053 
L 147 3053 
L 147 3500 
L 697 3500 
L 697 3744 
Q 697 4328 969 4595 
Q 1241 4863 1831 4863 
L 2375 4863 
z
" transform="scale(0.015625)"/>
       <path id="DejaVuSans-6c" d="M 603 4863 
L 1178 4863 
L 1178 0 
L 603 0 
L 603 4863 
z
" transform="scale(0.015625)"/>
       <path id="DejaVuSans-75" d="M 544 1381 
L 544 3500 
L 1119 3500 
L 1119 1403 
Q 1119 906 1312 657 
Q 1506 409 1894 409 
Q 2359 409 2629 706 
Q 2900 1003 2900 1516 
L 2900 3500 
L 3475 3500 
L 3475 0 
L 2900 0 
L 2900 538 
Q 2691 219 2414 64 
Q 2138 -91 1772 -91 
Q 1169 -91 856 284 
Q 544 659 544 1381 
z
M 1991 3584 
L 1991 3584 
z
" transform="scale(0.015625)"/>
       <path id="DejaVuSans-65" d="M 3597 1894 
L 3597 1613 
L 953 1613 
Q 991 1019 1311 708 
Q 1631 397 2203 397 
Q 2534 397 2845 478 
Q 3156 559 3463 722 
L 3463 178 
Q 3153 47 2828 -22 
Q 2503 -91 2169 -91 
Q 1331 -91 842 396 
Q 353 884 353 1716 
Q 353 2575 817 3079 
Q 1281 3584 2069 3584 
Q 2775 3584 3186 3129 
Q 3597 2675 3597 1894 
z
M 3022 2063 
Q 3016 2534 2758 2815 
Q 2500 3097 2075 3097 
Q 1594 3097 1305 2825 
Q 1016 2553 972 2059 
L 3022 2063 
z
" transform="scale(0.015625)"/>
       <path id="DejaVuSans-63" d="M 3122 3366 
L 3122 2828 
Q 2878 2963 2633 3030 
Q 2388 3097 2138 3097 
Q 1578 3097 1268 2742 
Q 959 2388 959 1747 
Q 959 1106 1268 751 
Q 1578 397 2138 397 
Q 2388 397 2633 464 
Q 2878 531 3122 666 
L 3122 134 
Q 2881 22 2623 -34 
Q 2366 -91 2075 -91 
Q 1284 -91 818 406 
Q 353 903 353 1747 
Q 353 2603 823 3093 
Q 1294 3584 2113 3584 
Q 2378 3584 2631 3529 
Q 2884 3475 3122 3366 
z
" transform="scale(0.015625)"/>
       <path id="DejaVuSans-20" transform="scale(0.015625)"/>
       <path id="DejaVuSans-6f" d="M 1959 3097 
Q 1497 3097 1228 2736 
Q 959 2375 959 1747 
Q 959 1119 1226 758 
Q 1494 397 1959 397 
Q 2419 397 2687 759 
Q 2956 1122 2956 1747 
Q 2956 2369 2687 2733 
Q 2419 3097 1959 3097 
z
M 1959 3584 
Q 2709 3584 3137 3096 
Q 3566 2609 3566 1747 
Q 3566 888 3137 398 
Q 2709 -91 1959 -91 
Q 1206 -91 779 398 
Q 353 888 353 1747 
Q 353 2609 779 3096 
Q 1206 3584 1959 3584 
z
" transform="scale(0.015625)"/>
       <path id="DejaVuSans-73" d="M 2834 3397 
L 2834 2853 
Q 2591 2978 2328 3040 
Q 2066 3103 1784 3103 
Q 1356 3103 1142 2972 
Q 928 2841 928 2578 
Q 928 2378 1081 2264 
Q 1234 2150 1697 2047 
L 1894 2003 
Q 2506 1872 2764 1633 
Q 3022 1394 3022 966 
Q 3022 478 2636 193 
Q 2250 -91 1575 -91 
Q 1294 -91 989 -36 
Q 684 19 347 128 
L 347 722 
Q 666 556 975 473 
Q 1284 391 1588 391 
Q 1994 391 2212 530 
Q 2431 669 2431 922 
Q 2431 1156 2273 1281 
Q 2116 1406 1581 1522 
L 1381 1569 
Q 847 1681 609 1914 
Q 372 2147 372 2553 
Q 372 3047 722 3315 
Q 1072 3584 1716 3584 
Q 2034 3584 2315 3537 
Q 2597 3491 2834 3397 
z
" transform="scale(0.015625)"/>
       <path id="DejaVuSans-72" d="M 2631 2963 
Q 2534 3019 2420 3045 
Q 2306 3072 2169 3072 
Q 1681 3072 1420 2755 
Q 1159 2438 1159 1844 
L 1159 0 
L 581 0 
L 581 3500 
L 1159 3500 
L 1159 2956 
Q 1341 3275 1631 3429 
Q 1922 3584 2338 3584 
Q 2397 3584 2469 3576 
Q 2541 3569 2628 3553 
L 2631 2963 
z
" transform="scale(0.015625)"/>
       <path id="DejaVuSans-70" d="M 1159 525 
L 1159 -1331 
L 581 -1331 
L 581 3500 
L 1159 3500 
L 1159 2969 
Q 1341 3281 1617 3432 
Q 1894 3584 2278 3584 
Q 2916 3584 3314 3078 
Q 3713 2572 3713 1747 
Q 3713 922 3314 415 
Q 2916 -91 2278 -91 
Q 1894 -91 1617 61 
Q 1341 213 1159 525 
z
M 3116 1747 
Q 3116 2381 2855 2742 
Q 2594 3103 2138 3103 
Q 1681 3103 1420 2742 
Q 1159 2381 1159 1747 
Q 1159 1113 1420 752 
Q 1681 391 2138 391 
Q 2594 391 2855 752 
Q 3116 1113 3116 1747 
z
" transform="scale(0.015625)"/>
       <path id="DejaVuSans-69" d="M 603 3500 
L 1178 3500 
L 1178 0 
L 603 0 
L 603 3500 
z
M 603 4863 
L 1178 4863 
L 1178 4134 
L 603 4134 
L 603 4863 
z
" transform="scale(0.015625)"/>
       <path id="DejaVuSans-61" d="M 2194 1759 
Q 1497 1759 1228 1600 
Q 959 1441 959 1056 
Q 959 750 1161 570 
Q 1363 391 1709 391 
Q 2188 391 2477 730 
Q 2766 1069 2766 1631 
L 2766 1759 
L 2194 1759 
z
M 3341 1997 
L 3341 0 
L 2766 0 
L 2766 531 
Q 2569 213 2275 61 
Q 1981 -91 1556 -91 
Q 1019 -91 701 211 
Q 384 513 384 1019 
Q 384 1609 779 1909 
Q 1175 2209 1959 2209 
L 2766 2209 
L 2766 2266 
Q 2766 2663 2505 2880 
Q 2244 3097 1772 3097 
Q 1472 3097 1187 3025 
Q 903 2953 641 2809 
L 641 3341 
Q 956 3463 1253 3523 
Q 1550 3584 1831 3584 
Q 2591 3584 2966 3190 
Q 3341 2797 3341 1997 
z
" transform="scale(0.015625)"/>
       <path id="DejaVuSans-28" d="M 1984 4856 
Q 1566 4138 1362 3434 
Q 1159 2731 1159 2009 
Q 1159 1288 1364 580 
Q 1569 -128 1984 -844 
L 1484 -844 
Q 1016 -109 783 600 
Q 550 1309 550 2009 
Q 550 2706 781 3412 
Q 1013 4119 1484 4856 
L 1984 4856 
z
" transform="scale(0.015625)"/>
       <path id="DejaVuSans-6d" d="M 3328 2828 
Q 3544 3216 3844 3400 
Q 4144 3584 4550 3584 
Q 5097 3584 5394 3201 
Q 5691 2819 5691 2113 
L 5691 0 
L 5113 0 
L 5113 2094 
Q 5113 2597 4934 2840 
Q 4756 3084 4391 3084 
Q 3944 3084 3684 2787 
Q 3425 2491 3425 1978 
L 3425 0 
L 2847 0 
L 2847 2094 
Q 2847 2600 2669 2842 
Q 2491 3084 2119 3084 
Q 1678 3084 1418 2786 
Q 1159 2488 1159 1978 
L 1159 0 
L 581 0 
L 581 3500 
L 1159 3500 
L 1159 2956 
Q 1356 3278 1631 3431 
Q 1906 3584 2284 3584 
Q 2666 3584 2933 3390 
Q 3200 3197 3328 2828 
z
" transform="scale(0.015625)"/>
       <path id="DejaVuSans-74" d="M 1172 4494 
L 1172 3500 
L 2356 3500 
L 2356 3053 
L 1172 3053 
L 1172 1153 
Q 1172 725 1289 603 
Q 1406 481 1766 481 
L 2356 481 
L 2356 0 
L 1766 0 
Q 1100 0 847 248 
Q 594 497 594 1153 
L 594 3053 
L 172 3053 
L 172 3500 
L 594 3500 
L 594 4494 
L 1172 4494 
z
" transform="scale(0.015625)"/>
       <path id="DejaVuSans-29" d="M 513 4856 
L 1013 4856 
Q 1481 4119 1714 3412 
Q 1947 2706 1947 2009 
Q 1947 1309 1714 600 
Q 1481 -109 1013 -844 
L 513 -844 
Q 928 -128 1133 580 
Q 1338 1288 1338 2009 
Q 1338 2731 1133 3434 
Q 928 4138 513 4856 
z
" transform="scale(0.015625)"/>
      </defs>
      <use xlink:href="#DejaVuSans-49"/>
      <use xlink:href="#DejaVuSans-6e" x="29.492188"/>
      <use xlink:href="#DejaVuSans-66" x="92.871094"/>
      <use xlink:href="#DejaVuSans-6c" x="128.076172"/>
      <use xlink:href="#DejaVuSans-75" x="155.859375"/>
      <use xlink:href="#DejaVuSans-65" x="219.238281"/>
      <use xlink:href="#DejaVuSans-6e" x="280.761719"/>
      <use xlink:href="#DejaVuSans-63" x="344.140625"/>
      <use xlink:href="#DejaVuSans-65" x="399.121094"/>
      <use xlink:href="#DejaVuSans-20" x="460.644531"/>
      <use xlink:href="#DejaVuSans-6f" x="492.431641"/>
      <use xlink:href="#DejaVuSans-66" x="553.613281"/>
      <use xlink:href="#DejaVuSans-20" x="588.818359"/>
      <use xlink:href="#DejaVuSans-73" x="620.605469"/>
      <use xlink:href="#DejaVuSans-75" x="672.705078"/>
      <use xlink:href="#DejaVuSans-72" x="736.083984"/>
      <use xlink:href="#DejaVuSans-70" x="777.197266"/>
      <use xlink:href="#DejaVuSans-72" x="840.673828"/>
      <use xlink:href="#DejaVuSans-69" x="881.787109"/>
      <use xlink:href="#DejaVuSans-73" x="909.570312"/>
      <use xlink:href="#DejaVuSans-61" x="961.669922"/>
      <use xlink:href="#DejaVuSans-6c" x="1022.949219"/>
      <use xlink:href="#DejaVuSans-20" x="1050.732422"/>
      <use xlink:href="#DejaVuSans-28" x="1082.519531"/>
      <use xlink:href="#DejaVuSans-6d" x="1121.533203"/>
      <use xlink:href="#DejaVuSans-75" x="1218.945312"/>
      <use xlink:href="#DejaVuSans-6c" x="1282.324219"/>
      <use xlink:href="#DejaVuSans-74" x="1310.107422"/>
      <use xlink:href="#DejaVuSans-69" x="1349.316406"/>
      <use xlink:href="#DejaVuSans-70" x="1377.099609"/>
      <use xlink:href="#DejaVuSans-6c" x="1440.576172"/>
      <use xlink:href="#DejaVuSans-69" x="1468.359375"/>
      <use xlink:href="#DejaVuSans-63" x="1496.142578"/>
      <use xlink:href="#DejaVuSans-61" x="1551.123047"/>
      <use xlink:href="#DejaVuSans-74" x="1612.402344"/>
      <use xlink:href="#DejaVuSans-69" x="1651.611328"/>
      <use xlink:href="#DejaVuSans-6f" x="1679.394531"/>
      <use xlink:href="#DejaVuSans-6e" x="1740.576172"/>
      <use xlink:href="#DejaVuSans-29" x="1803.955078"/>
     </g>
    </g>
   </g>
   <g id="matplotlib.axis_2">
    <g id="ytick_1">
     <g id="line2d_4">
      <defs>
       <path id="m4b723f29dc" d="M 0 0 
L -3.5 0 
" style="stroke: #000000; stroke-width: 0.8"/>
      </defs>
      <g>
       <use xlink:href="#m4b723f29dc" x="47.675" y="164.337197" style="stroke: #000000; stroke-width: 0.8"/>
      </g>
     </g>
     <g id="text_5">
      <!-- 0.2 -->
      <g transform="translate(24.771875 168.136415)scale(0.1 -0.1)">
       <defs>
        <path id="DejaVuSans-2e" d="M 684 794 
L 1344 794 
L 1344 0 
L 684 0 
L 684 794 
z
" transform="scale(0.015625)"/>
       </defs>
       <use xlink:href="#DejaVuSans-30"/>
       <use xlink:href="#DejaVuSans-2e" x="63.623047"/>
       <use xlink:href="#DejaVuSans-32" x="95.410156"/>
      </g>
     </g>
    </g>
    <g id="ytick_2">
     <g id="line2d_5">
      <g>
       <use xlink:href="#m4b723f29dc" x="47.675" y="135.207443" style="stroke: #000000; stroke-width: 0.8"/>
      </g>
     </g>
     <g id="text_6">
      <!-- 0.4 -->
      <g transform="translate(24.771875 139.006662)scale(0.1 -0.1)">
       <defs>
        <path id="DejaVuSans-34" d="M 2419 4116 
L 825 1625 
L 2419 1625 
L 2419 4116 
z
M 2253 4666 
L 3047 4666 
L 3047 1625 
L 3713 1625 
L 3713 1100 
L 3047 1100 
L 3047 0 
L 2419 0 
L 2419 1100 
L 313 1100 
L 313 1709 
L 2253 4666 
z
" transform="scale(0.015625)"/>
       </defs>
       <use xlink:href="#DejaVuSans-30"/>
       <use xlink:href="#DejaVuSans-2e" x="63.623047"/>
       <use xlink:href="#DejaVuSans-34" x="95.410156"/>
      </g>
     </g>
    </g>
    <g id="ytick_3">
     <g id="line2d_6">
      <g>
       <use xlink:href="#m4b723f29dc" x="47.675" y="106.077689" style="stroke: #000000; stroke-width: 0.8"/>
      </g>
     </g>
     <g id="text_7">
      <!-- 0.6 -->
      <g transform="translate(24.771875 109.876908)scale(0.1 -0.1)">
       <defs>
        <path id="DejaVuSans-36" d="M 2113 2584 
Q 1688 2584 1439 2293 
Q 1191 2003 1191 1497 
Q 1191 994 1439 701 
Q 1688 409 2113 409 
Q 2538 409 2786 701 
Q 3034 994 3034 1497 
Q 3034 2003 2786 2293 
Q 2538 2584 2113 2584 
z
M 3366 4563 
L 3366 3988 
Q 3128 4100 2886 4159 
Q 2644 4219 2406 4219 
Q 1781 4219 1451 3797 
Q 1122 3375 1075 2522 
Q 1259 2794 1537 2939 
Q 1816 3084 2150 3084 
Q 2853 3084 3261 2657 
Q 3669 2231 3669 1497 
Q 3669 778 3244 343 
Q 2819 -91 2113 -91 
Q 1303 -91 875 529 
Q 447 1150 447 2328 
Q 447 3434 972 4092 
Q 1497 4750 2381 4750 
Q 2619 4750 2861 4703 
Q 3103 4656 3366 4563 
z
" transform="scale(0.015625)"/>
       </defs>
       <use xlink:href="#DejaVuSans-30"/>
       <use xlink:href="#DejaVuSans-2e" x="63.623047"/>
       <use xlink:href="#DejaVuSans-36" x="95.410156"/>
      </g>
     </g>
    </g>
    <g id="ytick_4">
     <g id="line2d_7">
      <g>
       <use xlink:href="#m4b723f29dc" x="47.675" y="76.947936" style="stroke: #000000; stroke-width: 0.8"/>
      </g>
     </g>
     <g id="text_8">
      <!-- 0.8 -->
      <g transform="translate(24.771875 80.747154)scale(0.1 -0.1)">
       <defs>
        <path id="DejaVuSans-38" d="M 2034 2216 
Q 1584 2216 1326 1975 
Q 1069 1734 1069 1313 
Q 1069 891 1326 650 
Q 1584 409 2034 409 
Q 2484 409 2743 651 
Q 3003 894 3003 1313 
Q 3003 1734 2745 1975 
Q 2488 2216 2034 2216 
z
M 1403 2484 
Q 997 2584 770 2862 
Q 544 3141 544 3541 
Q 544 4100 942 4425 
Q 1341 4750 2034 4750 
Q 2731 4750 3128 4425 
Q 3525 4100 3525 3541 
Q 3525 3141 3298 2862 
Q 3072 2584 2669 2484 
Q 3125 2378 3379 2068 
Q 3634 1759 3634 1313 
Q 3634 634 3220 271 
Q 2806 -91 2034 -91 
Q 1263 -91 848 271 
Q 434 634 434 1313 
Q 434 1759 690 2068 
Q 947 2378 1403 2484 
z
M 1172 3481 
Q 1172 3119 1398 2916 
Q 1625 2713 2034 2713 
Q 2441 2713 2670 2916 
Q 2900 3119 2900 3481 
Q 2900 3844 2670 4047 
Q 2441 4250 2034 4250 
Q 1625 4250 1398 4047 
Q 1172 3844 1172 3481 
z
" transform="scale(0.015625)"/>
       </defs>
       <use xlink:href="#DejaVuSans-30"/>
       <use xlink:href="#DejaVuSans-2e" x="63.623047"/>
       <use xlink:href="#DejaVuSans-38" x="95.410156"/>
      </g>
     </g>
    </g>
    <g id="ytick_5">
     <g id="line2d_8">
      <g>
       <use xlink:href="#m4b723f29dc" x="47.675" y="47.818182" style="stroke: #000000; stroke-width: 0.8"/>
      </g>
     </g>
     <g id="text_9">
      <!-- 1.0 -->
      <g transform="translate(24.771875 51.617401)scale(0.1 -0.1)">
       <use xlink:href="#DejaVuSans-31"/>
       <use xlink:href="#DejaVuSans-2e" x="63.623047"/>
       <use xlink:href="#DejaVuSans-30" x="95.410156"/>
      </g>
     </g>
    </g>
    <g id="text_10">
     <!-- R-value -->
     <g transform="translate(18.692188 126.604687)rotate(-90)scale(0.1 -0.1)">
      <defs>
       <path id="DejaVuSans-52" d="M 2841 2188 
Q 3044 2119 3236 1894 
Q 3428 1669 3622 1275 
L 4263 0 
L 3584 0 
L 2988 1197 
Q 2756 1666 2539 1819 
Q 2322 1972 1947 1972 
L 1259 1972 
L 1259 0 
L 628 0 
L 628 4666 
L 2053 4666 
Q 2853 4666 3247 4331 
Q 3641 3997 3641 3322 
Q 3641 2881 3436 2590 
Q 3231 2300 2841 2188 
z
M 1259 4147 
L 1259 2491 
L 2053 2491 
Q 2509 2491 2742 2702 
Q 2975 2913 2975 3322 
Q 2975 3731 2742 3939 
Q 2509 4147 2053 4147 
L 1259 4147 
z
" transform="scale(0.015625)"/>
       <path id="DejaVuSans-2d" d="M 313 2009 
L 1997 2009 
L 1997 1497 
L 313 1497 
L 313 2009 
z
" transform="scale(0.015625)"/>
       <path id="DejaVuSans-76" d="M 191 3500 
L 800 3500 
L 1894 563 
L 2988 3500 
L 3597 3500 
L 2284 0 
L 1503 0 
L 191 3500 
z
" transform="scale(0.015625)"/>
      </defs>
      <use xlink:href="#DejaVuSans-52"/>
      <use xlink:href="#DejaVuSans-2d" x="65.482422"/>
      <use xlink:href="#DejaVuSans-76" x="98.941406"/>
      <use xlink:href="#DejaVuSans-61" x="158.121094"/>
      <use xlink:href="#DejaVuSans-6c" x="219.400391"/>
      <use xlink:href="#DejaVuSans-75" x="247.183594"/>
      <use xlink:href="#DejaVuSans-65" x="310.5625"/>
     </g>
    </g>
   </g>
   <g id="line2d_9">
    <path d="M 47.675 47.818182 
L 53.754992 49.694011 
L 59.834985 55.134872 
L 65.914977 62.212244 
L 71.994969 70.842487 
L 78.074961 80.14675 
L 84.154954 89.624212 
L 90.234946 98.828595 
L 96.314938 107.474905 
L 102.39493 115.529031 
L 108.474923 122.93186 
L 114.554915 129.561259 
L 120.634907 135.554904 
L 126.714899 140.994433 
L 132.794892 145.807462 
L 138.874884 150.088424 
L 144.954876 153.923233 
L 151.034868 157.285402 
L 157.114861 160.303468 
L 163.194853 162.97296 
" clip-path="url(#pf03b852319)" style="fill: none; stroke: #1f77b4; stroke-width: 1.5; stroke-linecap: square"/>
   </g>
   <g id="line2d_10">
    <path d="M 47.675 47.818325 
L 53.754992 49.046029 
L 59.834985 52.10434 
L 65.914977 56.488076 
L 71.994969 62.417636 
L 78.074961 69.46804 
L 84.154954 77.271977 
L 90.234946 85.354337 
L 96.314938 93.421588 
L 102.39493 101.300167 
L 108.474923 108.829885 
L 114.554915 115.857918 
L 120.634907 122.375964 
L 126.714899 128.440466 
L 132.794892 133.919929 
L 138.874884 138.907412 
L 144.954876 143.443683 
L 151.034868 147.494033 
L 157.114861 151.193882 
L 163.194853 154.50119 
" clip-path="url(#pf03b852319)" style="fill: none; stroke: #ff7f0e; stroke-width: 1.5; stroke-linecap: square"/>
   </g>
   <g id="patch_3">
    <path d="M 47.675 174.2 
L 47.675 41.8 
" style="fill: none; stroke: #000000; stroke-width: 0.8; stroke-linejoin: miter; stroke-linecap: square"/>
   </g>
   <g id="patch_4">
    <path d="M 47.675 174.2 
L 163.194853 174.2 
" style="fill: none; stroke: #000000; stroke-width: 0.8; stroke-linejoin: miter; stroke-linecap: square"/>
   </g>
   <g id="text_11">
    <!-- Reconstruction accuracy -->
    <g transform="translate(31.554301 35.8)scale(0.12 -0.12)">
     <defs>
      <path id="DejaVuSans-79" d="M 2059 -325 
Q 1816 -950 1584 -1140 
Q 1353 -1331 966 -1331 
L 506 -1331 
L 506 -850 
L 844 -850 
Q 1081 -850 1212 -737 
Q 1344 -625 1503 -206 
L 1606 56 
L 191 3500 
L 800 3500 
L 1894 763 
L 2988 3500 
L 3597 3500 
L 2059 -325 
z
" transform="scale(0.015625)"/>
     </defs>
     <use xlink:href="#DejaVuSans-52"/>
     <use xlink:href="#DejaVuSans-65" x="64.982422"/>
     <use xlink:href="#DejaVuSans-63" x="126.505859"/>
     <use xlink:href="#DejaVuSans-6f" x="181.486328"/>
     <use xlink:href="#DejaVuSans-6e" x="242.667969"/>
     <use xlink:href="#DejaVuSans-73" x="306.046875"/>
     <use xlink:href="#DejaVuSans-74" x="358.146484"/>
     <use xlink:href="#DejaVuSans-72" x="397.355469"/>
     <use xlink:href="#DejaVuSans-75" x="438.46875"/>
     <use xlink:href="#DejaVuSans-63" x="501.847656"/>
     <use xlink:href="#DejaVuSans-74" x="556.828125"/>
     <use xlink:href="#DejaVuSans-69" x="596.037109"/>
     <use xlink:href="#DejaVuSans-6f" x="623.820312"/>
     <use xlink:href="#DejaVuSans-6e" x="685.001953"/>
     <use xlink:href="#DejaVuSans-20" x="748.380859"/>
     <use xlink:href="#DejaVuSans-61" x="780.167969"/>
     <use xlink:href="#DejaVuSans-63" x="841.447266"/>
     <use xlink:href="#DejaVuSans-63" x="896.427734"/>
     <use xlink:href="#DejaVuSans-75" x="951.408203"/>
     <use xlink:href="#DejaVuSans-72" x="1014.787109"/>
     <use xlink:href="#DejaVuSans-61" x="1055.900391"/>
     <use xlink:href="#DejaVuSans-63" x="1117.179688"/>
     <use xlink:href="#DejaVuSans-79" x="1172.160156"/>
    </g>
   </g>
   <g id="legend_1">
    <g id="line2d_11">
     <path d="M 49.510708 144.942187 
L 59.510708 144.942187 
L 69.510708 144.942187 
" style="fill: none; stroke: #1f77b4; stroke-width: 1.5; stroke-linecap: square"/>
    </g>
    <g id="text_12">
     <!-- Node -->
     <g transform="translate(77.510708 148.442187)scale(0.1 -0.1)">
      <defs>
       <path id="DejaVuSans-4e" d="M 628 4666 
L 1478 4666 
L 3547 763 
L 3547 4666 
L 4159 4666 
L 4159 0 
L 3309 0 
L 1241 3903 
L 1241 0 
L 628 0 
L 628 4666 
z
" transform="scale(0.015625)"/>
       <path id="DejaVuSans-64" d="M 2906 2969 
L 2906 4863 
L 3481 4863 
L 3481 0 
L 2906 0 
L 2906 525 
Q 2725 213 2448 61 
Q 2172 -91 1784 -91 
Q 1150 -91 751 415 
Q 353 922 353 1747 
Q 353 2572 751 3078 
Q 1150 3584 1784 3584 
Q 2172 3584 2448 3432 
Q 2725 3281 2906 2969 
z
M 947 1747 
Q 947 1113 1208 752 
Q 1469 391 1925 391 
Q 2381 391 2643 752 
Q 2906 1113 2906 1747 
Q 2906 2381 2643 2742 
Q 2381 3103 1925 3103 
Q 1469 3103 1208 2742 
Q 947 2381 947 1747 
z
" transform="scale(0.015625)"/>
      </defs>
      <use xlink:href="#DejaVuSans-4e"/>
      <use xlink:href="#DejaVuSans-6f" x="74.804688"/>
      <use xlink:href="#DejaVuSans-64" x="135.986328"/>
      <use xlink:href="#DejaVuSans-65" x="199.462891"/>
     </g>
    </g>
    <g id="line2d_12">
     <path d="M 49.510708 159.620312 
L 59.510708 159.620312 
L 69.510708 159.620312 
" style="fill: none; stroke: #ff7f0e; stroke-width: 1.5; stroke-linecap: square"/>
    </g>
    <g id="text_13">
     <!-- Node + surprisal -->
     <g transform="translate(77.510708 163.120312)scale(0.1 -0.1)">
      <defs>
       <path id="DejaVuSans-2b" d="M 2944 4013 
L 2944 2272 
L 4684 2272 
L 4684 1741 
L 2944 1741 
L 2944 0 
L 2419 0 
L 2419 1741 
L 678 1741 
L 678 2272 
L 2419 2272 
L 2419 4013 
L 2944 4013 
z
" transform="scale(0.015625)"/>
      </defs>
      <use xlink:href="#DejaVuSans-4e"/>
      <use xlink:href="#DejaVuSans-6f" x="74.804688"/>
      <use xlink:href="#DejaVuSans-64" x="135.986328"/>
      <use xlink:href="#DejaVuSans-65" x="199.462891"/>
      <use xlink:href="#DejaVuSans-20" x="260.986328"/>
      <use xlink:href="#DejaVuSans-2b" x="292.773438"/>
      <use xlink:href="#DejaVuSans-20" x="376.5625"/>
      <use xlink:href="#DejaVuSans-73" x="408.349609"/>
      <use xlink:href="#DejaVuSans-75" x="460.449219"/>
      <use xlink:href="#DejaVuSans-72" x="523.828125"/>
      <use xlink:href="#DejaVuSans-70" x="564.941406"/>
      <use xlink:href="#DejaVuSans-72" x="628.417969"/>
      <use xlink:href="#DejaVuSans-69" x="669.53125"/>
      <use xlink:href="#DejaVuSans-73" x="697.314453"/>
      <use xlink:href="#DejaVuSans-61" x="749.414062"/>
      <use xlink:href="#DejaVuSans-6c" x="810.693359"/>
     </g>
    </g>
   </g>
  </g>
  <g id="axes_2">
   <g id="patch_5">
    <path d="M 226.917647 174.2 
L 342.4375 174.2 
L 342.4375 41.8 
L 226.917647 41.8 
z
" style="fill: #ffffff"/>
   </g>
   <g id="matplotlib.axis_3">
    <g id="xtick_4">
     <g id="line2d_13">
      <g>
       <use xlink:href="#m14200980b2" x="226.917647" y="174.2" style="stroke: #000000; stroke-width: 0.8"/>
      </g>
     </g>
     <g id="text_14">
      <!-- 0 -->
      <g transform="translate(223.736397 188.798438)scale(0.1 -0.1)">
       <use xlink:href="#DejaVuSans-30"/>
      </g>
     </g>
    </g>
    <g id="xtick_5">
     <g id="line2d_14">
      <g>
       <use xlink:href="#m14200980b2" x="284.677574" y="174.2" style="stroke: #000000; stroke-width: 0.8"/>
      </g>
     </g>
     <g id="text_15">
      <!-- 1 -->
      <g transform="translate(281.496324 188.798438)scale(0.1 -0.1)">
       <use xlink:href="#DejaVuSans-31"/>
      </g>
     </g>
    </g>
    <g id="xtick_6">
     <g id="line2d_15">
      <g>
       <use xlink:href="#m14200980b2" x="342.4375" y="174.2" style="stroke: #000000; stroke-width: 0.8"/>
      </g>
     </g>
     <g id="text_16">
      <!-- 2 -->
      <g transform="translate(339.25625 188.798438)scale(0.1 -0.1)">
       <use xlink:href="#DejaVuSans-32"/>
      </g>
     </g>
    </g>
    <g id="text_17">
     <!-- Multiplication of surprisal -->
     <g transform="translate(221.610386 202.476562)scale(0.1 -0.1)">
      <defs>
       <path id="DejaVuSans-4d" d="M 628 4666 
L 1569 4666 
L 2759 1491 
L 3956 4666 
L 4897 4666 
L 4897 0 
L 4281 0 
L 4281 4097 
L 3078 897 
L 2444 897 
L 1241 4097 
L 1241 0 
L 628 0 
L 628 4666 
z
" transform="scale(0.015625)"/>
      </defs>
      <use xlink:href="#DejaVuSans-4d"/>
      <use xlink:href="#DejaVuSans-75" x="86.279297"/>
      <use xlink:href="#DejaVuSans-6c" x="149.658203"/>
      <use xlink:href="#DejaVuSans-74" x="177.441406"/>
      <use xlink:href="#DejaVuSans-69" x="216.650391"/>
      <use xlink:href="#DejaVuSans-70" x="244.433594"/>
      <use xlink:href="#DejaVuSans-6c" x="307.910156"/>
      <use xlink:href="#DejaVuSans-69" x="335.693359"/>
      <use xlink:href="#DejaVuSans-63" x="363.476562"/>
      <use xlink:href="#DejaVuSans-61" x="418.457031"/>
      <use xlink:href="#DejaVuSans-74" x="479.736328"/>
      <use xlink:href="#DejaVuSans-69" x="518.945312"/>
      <use xlink:href="#DejaVuSans-6f" x="546.728516"/>
      <use xlink:href="#DejaVuSans-6e" x="607.910156"/>
      <use xlink:href="#DejaVuSans-20" x="671.289062"/>
      <use xlink:href="#DejaVuSans-6f" x="703.076172"/>
      <use xlink:href="#DejaVuSans-66" x="764.257812"/>
      <use xlink:href="#DejaVuSans-20" x="799.462891"/>
      <use xlink:href="#DejaVuSans-73" x="831.25"/>
      <use xlink:href="#DejaVuSans-75" x="883.349609"/>
      <use xlink:href="#DejaVuSans-72" x="946.728516"/>
      <use xlink:href="#DejaVuSans-70" x="987.841797"/>
      <use xlink:href="#DejaVuSans-72" x="1051.318359"/>
      <use xlink:href="#DejaVuSans-69" x="1092.431641"/>
      <use xlink:href="#DejaVuSans-73" x="1120.214844"/>
      <use xlink:href="#DejaVuSans-61" x="1172.314453"/>
      <use xlink:href="#DejaVuSans-6c" x="1233.59375"/>
     </g>
    </g>
   </g>
   <g id="matplotlib.axis_4">
    <g id="ytick_6">
     <g id="line2d_16">
      <g>
       <use xlink:href="#m4b723f29dc" x="226.917647" y="145.900903" style="stroke: #000000; stroke-width: 0.8"/>
      </g>
     </g>
     <g id="text_18">
      <!-- −100 -->
      <g transform="translate(192.45046 149.700122)scale(0.1 -0.1)">
       <defs>
        <path id="DejaVuSans-2212" d="M 678 2272 
L 4684 2272 
L 4684 1741 
L 678 1741 
L 678 2272 
z
" transform="scale(0.015625)"/>
       </defs>
       <use xlink:href="#DejaVuSans-2212"/>
       <use xlink:href="#DejaVuSans-31" x="83.789062"/>
       <use xlink:href="#DejaVuSans-30" x="147.412109"/>
       <use xlink:href="#DejaVuSans-30" x="211.035156"/>
      </g>
     </g>
    </g>
    <g id="ytick_7">
     <g id="line2d_17">
      <g>
       <use xlink:href="#m4b723f29dc" x="226.917647" y="107.783725" style="stroke: #000000; stroke-width: 0.8"/>
      </g>
     </g>
     <g id="text_19">
      <!-- 0 -->
      <g transform="translate(213.555147 111.582944)scale(0.1 -0.1)">
       <use xlink:href="#DejaVuSans-30"/>
      </g>
     </g>
    </g>
    <g id="ytick_8">
     <g id="line2d_18">
      <g>
       <use xlink:href="#m4b723f29dc" x="226.917647" y="69.666547" style="stroke: #000000; stroke-width: 0.8"/>
      </g>
     </g>
     <g id="text_20">
      <!-- 100 -->
      <g transform="translate(200.830147 73.465766)scale(0.1 -0.1)">
       <use xlink:href="#DejaVuSans-31"/>
       <use xlink:href="#DejaVuSans-30" x="63.623047"/>
       <use xlink:href="#DejaVuSans-30" x="127.246094"/>
      </g>
     </g>
    </g>
    <g id="text_21">
     <!-- T-value -->
     <g transform="translate(186.370772 125.928125)rotate(-90)scale(0.1 -0.1)">
      <defs>
       <path id="DejaVuSans-54" d="M -19 4666 
L 3928 4666 
L 3928 4134 
L 2272 4134 
L 2272 0 
L 1638 0 
L 1638 4134 
L -19 4134 
L -19 4666 
z
" transform="scale(0.015625)"/>
      </defs>
      <use xlink:href="#DejaVuSans-54"/>
      <use xlink:href="#DejaVuSans-2d" x="51.958984"/>
      <use xlink:href="#DejaVuSans-76" x="85.417969"/>
      <use xlink:href="#DejaVuSans-61" x="144.597656"/>
      <use xlink:href="#DejaVuSans-6c" x="205.876953"/>
      <use xlink:href="#DejaVuSans-75" x="233.660156"/>
      <use xlink:href="#DejaVuSans-65" x="297.039062"/>
     </g>
    </g>
   </g>
   <g id="line2d_19">
    <path d="M 226.917647 168.181818 
L 232.997639 70.785416 
L 239.077632 56.467247 
L 245.157624 51.581074 
L 251.237616 48.955566 
L 257.317608 48.346879 
L 263.397601 47.818182 
L 269.477593 47.913818 
L 275.557585 48.389644 
L 281.637577 49.205028 
L 287.71757 50.13902 
L 293.797562 51.606626 
L 299.877554 52.834525 
L 305.957546 54.659294 
L 312.037539 55.593925 
L 318.117531 57.364121 
L 324.197523 58.559083 
L 330.277515 60.179391 
L 336.357508 61.895916 
L 342.4375 63.374565 
" clip-path="url(#p4466553a38)" style="fill: none; stroke: #1f77b4; stroke-width: 1.5; stroke-linecap: square"/>
   </g>
   <g id="line2d_20">
    <path d="M 226.917647 168.181818 
L 232.997639 110.72052 
L 239.077632 110.626902 
L 245.157624 111.091733 
L 251.237616 111.136605 
L 257.317608 111.474484 
L 263.397601 111.346071 
L 269.477593 111.588696 
L 275.557585 111.735743 
L 281.637577 111.855219 
L 287.71757 111.90083 
L 293.797562 112.013535 
L 299.877554 112.178096 
L 305.957546 112.188008 
L 312.037539 112.326308 
L 318.117531 112.459673 
L 324.197523 112.656722 
L 330.277515 112.674452 
L 336.357508 112.665495 
L 342.4375 112.866365 
" clip-path="url(#p4466553a38)" style="fill: none; stroke: #ff7f0e; stroke-width: 1.5; stroke-linecap: square"/>
   </g>
   <g id="line2d_21">
    <path d="M 226.917647 107.036628 
L 342.4375 107.036628 
" clip-path="url(#p4466553a38)" style="fill: none; stroke-dasharray: 2.96,1.28; stroke-dashoffset: 0; stroke: #ff0000; stroke-opacity: 0.5; stroke-width: 0.8"/>
   </g>
   <g id="line2d_22">
    <path d="M 226.917647 108.530822 
L 342.4375 108.530822 
" clip-path="url(#p4466553a38)" style="fill: none; stroke-dasharray: 2.96,1.28; stroke-dashoffset: 0; stroke: #ff0000; stroke-opacity: 0.5; stroke-width: 0.8"/>
   </g>
   <g id="patch_6">
    <path d="M 226.917647 174.2 
L 226.917647 41.8 
" style="fill: none; stroke: #000000; stroke-width: 0.8; stroke-linejoin: miter; stroke-linecap: square"/>
   </g>
   <g id="patch_7">
    <path d="M 226.917647 174.2 
L 342.4375 174.2 
" style="fill: none; stroke: #000000; stroke-width: 0.8; stroke-linejoin: miter; stroke-linecap: square"/>
   </g>
   <g id="text_22">
    <!-- Statistical comparison -->
    <g transform="translate(218.092574 35.8)scale(0.12 -0.12)">
     <defs>
      <path id="DejaVuSans-53" d="M 3425 4513 
L 3425 3897 
Q 3066 4069 2747 4153 
Q 2428 4238 2131 4238 
Q 1616 4238 1336 4038 
Q 1056 3838 1056 3469 
Q 1056 3159 1242 3001 
Q 1428 2844 1947 2747 
L 2328 2669 
Q 3034 2534 3370 2195 
Q 3706 1856 3706 1288 
Q 3706 609 3251 259 
Q 2797 -91 1919 -91 
Q 1588 -91 1214 -16 
Q 841 59 441 206 
L 441 856 
Q 825 641 1194 531 
Q 1563 422 1919 422 
Q 2459 422 2753 634 
Q 3047 847 3047 1241 
Q 3047 1584 2836 1778 
Q 2625 1972 2144 2069 
L 1759 2144 
Q 1053 2284 737 2584 
Q 422 2884 422 3419 
Q 422 4038 858 4394 
Q 1294 4750 2059 4750 
Q 2388 4750 2728 4690 
Q 3069 4631 3425 4513 
z
" transform="scale(0.015625)"/>
     </defs>
     <use xlink:href="#DejaVuSans-53"/>
     <use xlink:href="#DejaVuSans-74" x="63.476562"/>
     <use xlink:href="#DejaVuSans-61" x="102.685547"/>
     <use xlink:href="#DejaVuSans-74" x="163.964844"/>
     <use xlink:href="#DejaVuSans-69" x="203.173828"/>
     <use xlink:href="#DejaVuSans-73" x="230.957031"/>
     <use xlink:href="#DejaVuSans-74" x="283.056641"/>
     <use xlink:href="#DejaVuSans-69" x="322.265625"/>
     <use xlink:href="#DejaVuSans-63" x="350.048828"/>
     <use xlink:href="#DejaVuSans-61" x="405.029297"/>
     <use xlink:href="#DejaVuSans-6c" x="466.308594"/>
     <use xlink:href="#DejaVuSans-20" x="494.091797"/>
     <use xlink:href="#DejaVuSans-63" x="525.878906"/>
     <use xlink:href="#DejaVuSans-6f" x="580.859375"/>
     <use xlink:href="#DejaVuSans-6d" x="642.041016"/>
     <use xlink:href="#DejaVuSans-70" x="739.453125"/>
     <use xlink:href="#DejaVuSans-61" x="802.929688"/>
     <use xlink:href="#DejaVuSans-72" x="864.208984"/>
     <use xlink:href="#DejaVuSans-69" x="905.322266"/>
     <use xlink:href="#DejaVuSans-73" x="933.105469"/>
     <use xlink:href="#DejaVuSans-6f" x="985.205078"/>
     <use xlink:href="#DejaVuSans-6e" x="1046.386719"/>
    </g>
   </g>
   <g id="legend_2">
    <g id="line2d_23">
     <path d="M 235.917647 144.942187 
L 245.917647 144.942187 
L 255.917647 144.942187 
" style="fill: none; stroke: #1f77b4; stroke-width: 1.5; stroke-linecap: square"/>
    </g>
    <g id="text_23">
     <!-- Surprisal -->
     <g transform="translate(263.917647 148.442187)scale(0.1 -0.1)">
      <use xlink:href="#DejaVuSans-53"/>
      <use xlink:href="#DejaVuSans-75" x="63.476562"/>
      <use xlink:href="#DejaVuSans-72" x="126.855469"/>
      <use xlink:href="#DejaVuSans-70" x="167.96875"/>
      <use xlink:href="#DejaVuSans-72" x="231.445312"/>
      <use xlink:href="#DejaVuSans-69" x="272.558594"/>
      <use xlink:href="#DejaVuSans-73" x="300.341797"/>
      <use xlink:href="#DejaVuSans-61" x="352.441406"/>
      <use xlink:href="#DejaVuSans-6c" x="413.720703"/>
     </g>
    </g>
    <g id="line2d_24">
     <path d="M 235.917647 159.620312 
L 245.917647 159.620312 
L 255.917647 159.620312 
" style="fill: none; stroke: #ff7f0e; stroke-width: 1.5; stroke-linecap: square"/>
    </g>
    <g id="text_24">
     <!-- Third variable -->
     <g transform="translate(263.917647 163.120312)scale(0.1 -0.1)">
      <defs>
       <path id="DejaVuSans-68" d="M 3513 2113 
L 3513 0 
L 2938 0 
L 2938 2094 
Q 2938 2591 2744 2837 
Q 2550 3084 2163 3084 
Q 1697 3084 1428 2787 
Q 1159 2491 1159 1978 
L 1159 0 
L 581 0 
L 581 4863 
L 1159 4863 
L 1159 2956 
Q 1366 3272 1645 3428 
Q 1925 3584 2291 3584 
Q 2894 3584 3203 3211 
Q 3513 2838 3513 2113 
z
" transform="scale(0.015625)"/>
       <path id="DejaVuSans-62" d="M 3116 1747 
Q 3116 2381 2855 2742 
Q 2594 3103 2138 3103 
Q 1681 3103 1420 2742 
Q 1159 2381 1159 1747 
Q 1159 1113 1420 752 
Q 1681 391 2138 391 
Q 2594 391 2855 752 
Q 3116 1113 3116 1747 
z
M 1159 2969 
Q 1341 3281 1617 3432 
Q 1894 3584 2278 3584 
Q 2916 3584 3314 3078 
Q 3713 2572 3713 1747 
Q 3713 922 3314 415 
Q 2916 -91 2278 -91 
Q 1894 -91 1617 61 
Q 1341 213 1159 525 
L 1159 0 
L 581 0 
L 581 4863 
L 1159 4863 
L 1159 2969 
z
" transform="scale(0.015625)"/>
      </defs>
      <use xlink:href="#DejaVuSans-54"/>
      <use xlink:href="#DejaVuSans-68" x="61.083984"/>
      <use xlink:href="#DejaVuSans-69" x="124.462891"/>
      <use xlink:href="#DejaVuSans-72" x="152.246094"/>
      <use xlink:href="#DejaVuSans-64" x="191.609375"/>
      <use xlink:href="#DejaVuSans-20" x="255.085938"/>
      <use xlink:href="#DejaVuSans-76" x="286.873047"/>
      <use xlink:href="#DejaVuSans-61" x="346.052734"/>
      <use xlink:href="#DejaVuSans-72" x="407.332031"/>
      <use xlink:href="#DejaVuSans-69" x="448.445312"/>
      <use xlink:href="#DejaVuSans-61" x="476.228516"/>
      <use xlink:href="#DejaVuSans-62" x="537.507812"/>
      <use xlink:href="#DejaVuSans-6c" x="600.984375"/>
      <use xlink:href="#DejaVuSans-65" x="628.767578"/>
     </g>
    </g>
   </g>
  </g>
  <g id="axes_3">
   <g id="patch_8">
    <path d="M 406.160294 174.2 
L 637.2 174.2 
L 637.2 41.8 
L 406.160294 41.8 
z
" style="fill: #ffffff"/>
   </g>
   <g id="PolyCollection_3">
    <path d="M 406.160294 123.353611 
L 406.160294 128.719344 
L 407.775956 128.6515 
L 409.391619 128.542265 
L 411.007281 128.374246 
L 412.622943 128.159678 
L 414.238606 127.924015 
L 415.854268 127.673265 
L 417.46993 127.431965 
L 419.085592 127.204915 
L 420.701255 127.004663 
L 422.316917 126.826872 
L 423.932579 126.661624 
L 425.548241 126.513911 
L 427.163904 126.386326 
L 428.779566 126.27661 
L 430.395228 126.178497 
L 432.010891 126.083246 
L 433.626553 125.990352 
L 435.242215 125.897137 
L 436.857877 125.807714 
L 438.47354 125.724914 
L 440.089202 125.6447 
L 441.704864 125.560137 
L 443.320527 125.463265 
L 444.936189 124.635928 
L 446.551851 124.60842 
L 448.167513 124.583391 
L 449.783176 124.563055 
L 451.398838 124.546897 
L 453.0145 124.530912 
L 454.630162 124.514578 
L 456.245825 124.498366 
L 457.861487 124.484955 
L 459.477149 124.47408 
L 461.092812 124.467078 
L 462.708474 124.461607 
L 464.324136 124.45466 
L 465.939798 124.445509 
L 467.555461 124.434884 
L 469.171123 124.422641 
L 470.786785 124.410508 
L 472.402448 124.400283 
L 474.01811 124.392309 
L 475.633772 124.386068 
L 477.249434 124.381025 
L 478.865097 124.376973 
L 480.480759 124.373105 
L 482.096421 124.36905 
L 483.712084 124.363896 
L 485.327746 124.357875 
L 486.943408 124.351647 
L 488.55907 124.345078 
L 490.174733 124.339913 
L 491.790395 124.336976 
L 493.406057 124.334768 
L 495.021719 124.327688 
L 496.637382 124.308982 
L 498.253044 124.26714 
L 499.868706 124.180256 
L 501.484369 124.00565 
L 503.100031 123.684333 
L 504.715693 123.162279 
L 506.331355 122.415935 
L 507.947018 121.479217 
L 509.56268 120.471228 
L 511.178342 119.612946 
L 512.794005 119.218662 
L 514.409667 119.645144 
L 516.025329 121.217906 
L 517.640991 124.173627 
L 519.256654 128.608321 
L 520.872316 134.42881 
L 522.487978 141.316689 
L 524.10364 148.73877 
L 525.719303 155.969236 
L 527.334965 162.174702 
L 528.950627 166.501302 
L 530.56629 168.181818 
L 532.181952 166.612869 
L 533.797614 161.434961 
L 535.413276 152.653037 
L 537.028939 140.67577 
L 538.644601 126.343418 
L 540.260263 110.860503 
L 541.875926 95.630787 
L 543.491588 82.090775 
L 545.10725 71.453006 
L 546.722912 64.585692 
L 548.338575 61.973172 
L 549.954237 63.627258 
L 551.569899 69.098544 
L 553.185561 77.690844 
L 554.801224 88.449007 
L 556.416886 100.354149 
L 558.032548 112.301186 
L 559.648211 123.299904 
L 561.263873 132.629796 
L 562.879535 139.729035 
L 564.495197 144.328633 
L 566.11086 146.43329 
L 567.726522 146.276408 
L 569.342184 144.26374 
L 570.957847 140.931304 
L 572.573509 136.863841 
L 574.189171 132.588569 
L 575.804833 128.524941 
L 577.420496 125.025426 
L 579.036158 122.294594 
L 580.65182 120.390233 
L 582.267483 119.286202 
L 583.883145 118.888722 
L 585.498807 119.060186 
L 587.114469 119.6581 
L 588.730132 120.536839 
L 590.345794 121.576638 
L 591.961456 122.6549 
L 593.577118 123.681895 
L 595.192781 124.591464 
L 596.808443 125.360789 
L 598.424105 125.975995 
L 600.039768 125.151825 
L 601.65543 125.408457 
L 603.271092 125.616699 
L 604.886754 125.768443 
L 606.502417 125.856474 
L 608.118079 125.896325 
L 609.733741 125.903486 
L 611.349404 125.889668 
L 612.965066 125.862666 
L 614.580728 125.826595 
L 616.19639 125.790383 
L 617.812053 125.748273 
L 619.427715 125.689955 
L 621.043377 125.617634 
L 622.659039 125.531077 
L 624.274702 125.443884 
L 625.890364 125.358782 
L 627.506026 125.284667 
L 629.121689 125.219763 
L 630.737351 125.16553 
L 632.353013 125.123797 
L 633.968675 125.088092 
L 635.584338 125.056391 
L 637.2 125.027458 
L 637.2 123.87263 
L 637.2 123.87263 
L 635.584338 123.854275 
L 633.968675 123.836442 
L 632.353013 123.81563 
L 630.737351 123.795304 
L 629.121689 123.769886 
L 627.506026 123.735147 
L 625.890364 123.69826 
L 624.274702 123.661029 
L 622.659039 123.623202 
L 621.043377 123.586055 
L 619.427715 123.552589 
L 617.812053 123.513812 
L 616.19639 123.462711 
L 614.580728 123.387642 
L 612.965066 123.274404 
L 611.349404 123.11428 
L 609.733741 122.907463 
L 608.118079 122.65828 
L 606.502417 122.374073 
L 604.886754 122.058654 
L 603.271092 121.693594 
L 601.65543 121.267246 
L 600.039768 120.761272 
L 598.424105 122.047025 
L 596.808443 121.273824 
L 595.192781 120.373285 
L 593.577118 119.342438 
L 591.961456 118.209018 
L 590.345794 117.014062 
L 588.730132 115.814764 
L 587.114469 114.688667 
L 585.498807 113.763916 
L 583.883145 113.211365 
L 582.267483 113.205374 
L 580.65182 113.895782 
L 579.036158 115.406971 
L 577.420496 117.770507 
L 575.804833 120.903281 
L 574.189171 124.584806 
L 572.573509 128.446722 
L 570.957847 132.034389 
L 569.342184 134.801719 
L 567.726522 136.19752 
L 566.11086 135.702899 
L 564.495197 132.929639 
L 562.879535 127.692299 
L 561.263873 120.018712 
L 559.648211 110.176787 
L 558.032548 98.732832 
L 556.416886 86.470689 
L 554.801224 74.405143 
L 553.185561 63.546349 
L 551.569899 54.939343 
L 549.954237 49.477653 
L 548.338575 47.818182 
L 546.722912 50.368718 
L 545.10725 57.12651 
L 543.491588 67.740275 
L 541.875926 81.423752 
L 540.260263 97.04542 
L 538.644601 113.221062 
L 537.028939 128.530929 
L 535.413276 141.699853 
L 533.797614 151.745255 
L 532.181952 158.087835 
L 530.56629 160.588755 
L 528.950627 159.548943 
L 527.334965 155.640598 
L 525.719303 149.777708 
L 524.10364 142.937599 
L 522.487978 136.029183 
L 520.872316 129.78491 
L 519.256654 124.707535 
L 517.640991 121.045165 
L 516.025329 118.814018 
L 514.409667 117.844397 
L 512.794005 117.850203 
L 511.178342 118.50916 
L 509.56268 119.528044 
L 507.947018 120.665302 
L 506.331355 121.737442 
L 504.715693 122.628798 
L 503.100031 123.291772 
L 501.484369 123.73362 
L 499.868706 123.993288 
L 498.253044 124.12065 
L 496.637382 124.167757 
L 495.021719 124.179277 
L 493.406057 124.18019 
L 491.790395 124.179388 
L 490.174733 124.177505 
L 488.55907 124.17325 
L 486.943408 124.16776 
L 485.327746 124.162286 
L 483.712084 124.156981 
L 482.096421 124.152826 
L 480.480759 124.149133 
L 478.865097 124.144999 
L 477.249434 124.140511 
L 475.633772 124.135064 
L 474.01811 124.127731 
L 472.402448 124.118299 
L 470.786785 124.105125 
L 469.171123 124.088975 
L 467.555461 124.072065 
L 465.939798 124.055729 
L 464.324136 124.040607 
L 462.708474 124.026888 
L 461.092812 124.013573 
L 459.477149 123.998127 
L 457.861487 123.978913 
L 456.245825 123.9563 
L 454.630162 123.932967 
L 453.0145 123.907575 
L 451.398838 123.88315 
L 449.783176 123.860208 
L 448.167513 123.836352 
L 446.551851 123.810939 
L 444.936189 123.783315 
L 443.320527 123.761286 
L 441.704864 123.757333 
L 440.089202 123.753154 
L 438.47354 123.744144 
L 436.857877 123.733085 
L 435.242215 123.714767 
L 433.626553 123.692404 
L 432.010891 123.67356 
L 430.395228 123.658008 
L 428.779566 123.650384 
L 427.163904 123.646602 
L 425.548241 123.643736 
L 423.932579 123.653552 
L 422.316917 123.679215 
L 420.701255 123.711093 
L 419.085592 123.73357 
L 417.46993 123.74051 
L 415.854268 123.732803 
L 414.238606 123.712982 
L 412.622943 123.683384 
L 411.007281 123.634402 
L 409.391619 123.57147 
L 407.775956 123.48694 
L 406.160294 123.353611 
z
" clip-path="url(#pf6fb27464a)" style="fill: #1f77b4; fill-opacity: 0.6"/>
   </g>
   <g id="PolyCollection_4">
    <path d="M 406.160294 123.809442 
L 406.160294 126.082175 
L 407.775956 126.057967 
L 409.391619 126.013736 
L 411.007281 125.947501 
L 412.622943 125.872328 
L 414.238606 125.792129 
L 415.854268 125.704903 
L 417.46993 125.614732 
L 419.085592 125.528811 
L 420.701255 125.448652 
L 422.316917 125.371076 
L 423.932579 125.295582 
L 425.548241 125.220848 
L 427.163904 125.150125 
L 428.779566 125.082841 
L 430.395228 125.022073 
L 432.010891 124.971771 
L 433.626553 124.932466 
L 435.242215 124.900369 
L 436.857877 124.87122 
L 438.47354 124.840176 
L 440.089202 124.804297 
L 441.704864 124.766484 
L 443.320527 124.726063 
L 444.936189 124.42894 
L 446.551851 124.422559 
L 448.167513 124.416038 
L 449.783176 124.409611 
L 451.398838 124.403519 
L 453.0145 124.397001 
L 454.630162 124.389898 
L 456.245825 124.383118 
L 457.861487 124.375823 
L 459.477149 124.369155 
L 461.092812 124.363365 
L 462.708474 124.358133 
L 464.324136 124.352908 
L 465.939798 124.347574 
L 467.555461 124.342189 
L 469.171123 124.336422 
L 470.786785 124.330805 
L 472.402448 124.325845 
L 474.01811 124.321406 
L 475.633772 124.317542 
L 477.249434 124.315036 
L 478.865097 124.313692 
L 480.480759 124.313139 
L 482.096421 124.313033 
L 483.712084 124.312476 
L 485.327746 124.31072 
L 486.943408 124.307772 
L 488.55907 124.303826 
L 490.174733 124.299865 
L 491.790395 124.297333 
L 493.406057 124.296201 
L 495.021719 124.29664 
L 496.637382 124.301545 
L 498.253044 124.318671 
L 499.868706 124.362267 
L 501.484369 124.449984 
L 503.100031 124.597735 
L 504.715693 124.815417 
L 506.331355 125.100352 
L 507.947018 125.430168 
L 509.56268 125.759463 
L 511.178342 126.02188 
L 512.794005 126.136004 
L 514.409667 126.010588 
L 516.025329 125.552722 
L 517.640991 124.688984 
L 519.256654 123.391622 
L 520.872316 121.699522 
L 522.487978 119.729273 
L 524.10364 117.677768 
L 525.719303 115.807377 
L 527.334965 114.422845 
L 528.950627 113.830682 
L 530.56629 114.294462 
L 532.181952 115.975286 
L 533.797614 118.892542 
L 535.413276 122.908872 
L 537.028939 127.741332 
L 538.644601 132.984371 
L 540.260263 138.158347 
L 541.875926 142.767602 
L 543.491588 146.364409 
L 545.10725 148.625009 
L 546.722912 149.371892 
L 548.338575 148.590651 
L 549.954237 146.393617 
L 551.569899 143.038508 
L 553.185561 138.854007 
L 554.801224 134.224641 
L 556.416886 129.551699 
L 558.032548 125.192119 
L 559.648211 121.459478 
L 561.263873 118.568655 
L 562.879535 116.635819 
L 564.495197 115.674608 
L 566.11086 115.618784 
L 567.726522 116.325023 
L 569.342184 117.597036 
L 570.957847 119.214139 
L 572.573509 120.962613 
L 574.189171 122.655555 
L 575.804833 124.142558 
L 577.420496 125.329368 
L 579.036158 126.165902 
L 580.65182 126.656191 
L 582.267483 126.82586 
L 583.883145 126.745411 
L 585.498807 126.482647 
L 587.114469 126.110018 
L 588.730132 125.69892 
L 590.345794 125.294224 
L 591.961456 124.921176 
L 593.577118 124.601183 
L 595.192781 124.342078 
L 596.808443 124.138451 
L 598.424105 123.977278 
L 600.039768 123.73409 
L 601.65543 123.609127 
L 603.271092 123.53674 
L 604.886754 123.514818 
L 606.502417 123.550673 
L 608.118079 123.636891 
L 609.733741 123.757051 
L 611.349404 123.887522 
L 612.965066 124.009717 
L 614.580728 124.11636 
L 616.19639 124.196233 
L 617.812053 124.256693 
L 619.427715 124.311546 
L 621.043377 124.366414 
L 622.659039 124.432741 
L 624.274702 124.504629 
L 625.890364 124.571919 
L 627.506026 124.626632 
L 629.121689 124.660892 
L 630.737351 124.679063 
L 632.353013 124.681079 
L 633.968675 124.671071 
L 635.584338 124.665607 
L 637.2 124.66913 
L 637.2 122.936795 
L 637.2 122.936795 
L 635.584338 122.845231 
L 633.968675 122.749747 
L 632.353013 122.650128 
L 630.737351 122.552629 
L 629.121689 122.46061 
L 627.506026 122.374441 
L 625.890364 122.290038 
L 624.274702 122.19421 
L 622.659039 122.080897 
L 621.043377 121.940633 
L 619.427715 121.76829 
L 617.812053 121.569405 
L 616.19639 121.356011 
L 614.580728 121.148962 
L 612.965066 120.955906 
L 611.349404 120.776389 
L 609.733741 120.613303 
L 608.118079 120.462166 
L 606.502417 120.321807 
L 604.886754 120.183827 
L 603.271092 120.073286 
L 601.65543 120.01714 
L 600.039768 120.026991 
L 598.424105 121.248336 
L 596.808443 121.376449 
L 595.192781 121.578126 
L 593.577118 121.842829 
L 591.961456 122.160584 
L 590.345794 122.514699 
L 588.730132 122.879488 
L 587.114469 123.226821 
L 585.498807 123.522024 
L 583.883145 123.716672 
L 582.267483 123.74287 
L 580.65182 123.539274 
L 579.036158 123.037263 
L 577.420496 122.186166 
L 575.804833 120.975446 
L 574.189171 119.435248 
L 572.573509 117.665985 
L 570.957847 115.815838 
L 569.342184 114.070713 
L 567.726522 112.660215 
L 566.11086 111.809961 
L 564.495197 111.726545 
L 562.879535 112.561087 
L 561.263873 114.391247 
L 559.648211 117.201908 
L 558.032548 120.86466 
L 556.416886 125.168802 
L 554.801224 129.788799 
L 553.185561 134.34865 
L 551.569899 138.464623 
L 549.954237 141.751953 
L 548.338575 143.892272 
L 546.722912 144.629271 
L 545.10725 143.845572 
L 543.491588 141.587309 
L 541.875926 138.052586 
L 540.260263 133.587059 
L 538.644601 128.64987 
L 537.028939 123.730518 
L 535.413276 119.285955 
L 533.797614 115.675644 
L 532.181952 113.127548 
L 530.56629 111.735875 
L 528.950627 111.464395 
L 527.334965 112.178601 
L 525.719303 113.666858 
L 524.10364 115.664909 
L 522.487978 117.892567 
L 520.872316 120.087408 
L 519.256654 122.040383 
L 517.640991 123.608136 
L 516.025329 124.723333 
L 514.409667 125.387438 
L 512.794005 125.65772 
L 511.178342 125.630944 
L 509.56268 125.422178 
L 507.947018 125.137446 
L 506.331355 124.855012 
L 504.715693 124.620669 
L 503.100031 124.451546 
L 501.484369 124.344324 
L 499.868706 124.283987 
L 498.253044 124.253104 
L 496.637382 124.238619 
L 495.021719 124.232431 
L 493.406057 124.229667 
L 491.790395 124.227777 
L 490.174733 124.224594 
L 488.55907 124.220071 
L 486.943408 124.215407 
L 485.327746 124.211742 
L 483.712084 124.209204 
L 482.096421 124.207479 
L 480.480759 124.206268 
L 478.865097 124.20483 
L 477.249434 124.202735 
L 475.633772 124.199373 
L 474.01811 124.194968 
L 472.402448 124.19009 
L 470.786785 124.185103 
L 469.171123 124.179566 
L 467.555461 124.173971 
L 465.939798 124.168969 
L 464.324136 124.164137 
L 462.708474 124.159599 
L 461.092812 124.155097 
L 459.477149 124.149719 
L 457.861487 124.142668 
L 456.245825 124.134636 
L 454.630162 124.125379 
L 453.0145 124.115746 
L 451.398838 124.105536 
L 449.783176 124.093272 
L 448.167513 124.077361 
L 446.551851 124.058752 
L 444.936189 124.038734 
L 443.320527 124.041782 
L 441.704864 124.025408 
L 440.089202 124.010205 
L 438.47354 123.999466 
L 436.857877 123.997437 
L 435.242215 124.001539 
L 433.626553 124.008647 
L 432.010891 124.01579 
L 430.395228 124.019798 
L 428.779566 124.020406 
L 427.163904 124.017922 
L 425.548241 124.017558 
L 423.932579 124.018969 
L 422.316917 124.022704 
L 420.701255 124.028477 
L 419.085592 124.039526 
L 417.46993 124.050394 
L 415.854268 124.059036 
L 414.238606 124.058471 
L 412.622943 124.044559 
L 411.007281 124.014745 
L 409.391619 123.965673 
L 407.775956 123.9001 
L 406.160294 123.809442 
z
" clip-path="url(#pf6fb27464a)" style="fill: #ff7f0e; fill-opacity: 0.6"/>
   </g>
   <g id="matplotlib.axis_5">
    <g id="xtick_7">
     <g id="line2d_25">
      <g>
       <use xlink:href="#m14200980b2" x="406.160294" y="174.2" style="stroke: #000000; stroke-width: 0.8"/>
      </g>
     </g>
     <g id="text_25">
      <!-- −0.2 -->
      <g transform="translate(394.018888 188.798438)scale(0.1 -0.1)">
       <use xlink:href="#DejaVuSans-2212"/>
       <use xlink:href="#DejaVuSans-30" x="83.789062"/>
       <use xlink:href="#DejaVuSans-2e" x="147.412109"/>
       <use xlink:href="#DejaVuSans-32" x="179.199219"/>
      </g>
     </g>
    </g>
    <g id="xtick_8">
     <g id="line2d_26">
      <g>
       <use xlink:href="#m14200980b2" x="444.936189" y="174.2" style="stroke: #000000; stroke-width: 0.8"/>
      </g>
     </g>
     <g id="text_26">
      <!-- 0.0 -->
      <g transform="translate(436.984626 188.798438)scale(0.1 -0.1)">
       <use xlink:href="#DejaVuSans-30"/>
       <use xlink:href="#DejaVuSans-2e" x="63.623047"/>
       <use xlink:href="#DejaVuSans-30" x="95.410156"/>
      </g>
     </g>
    </g>
    <g id="xtick_9">
     <g id="line2d_27">
      <g>
       <use xlink:href="#m14200980b2" x="483.712084" y="174.2" style="stroke: #000000; stroke-width: 0.8"/>
      </g>
     </g>
     <g id="text_27">
      <!-- 0.2 -->
      <g transform="translate(475.760521 188.798438)scale(0.1 -0.1)">
       <use xlink:href="#DejaVuSans-30"/>
       <use xlink:href="#DejaVuSans-2e" x="63.623047"/>
       <use xlink:href="#DejaVuSans-32" x="95.410156"/>
      </g>
     </g>
    </g>
    <g id="xtick_10">
     <g id="line2d_28">
      <g>
       <use xlink:href="#m14200980b2" x="522.487978" y="174.2" style="stroke: #000000; stroke-width: 0.8"/>
      </g>
     </g>
     <g id="text_28">
      <!-- 0.4 -->
      <g transform="translate(514.536416 188.798438)scale(0.1 -0.1)">
       <use xlink:href="#DejaVuSans-30"/>
       <use xlink:href="#DejaVuSans-2e" x="63.623047"/>
       <use xlink:href="#DejaVuSans-34" x="95.410156"/>
      </g>
     </g>
    </g>
    <g id="xtick_11">
     <g id="line2d_29">
      <g>
       <use xlink:href="#m14200980b2" x="561.263873" y="174.2" style="stroke: #000000; stroke-width: 0.8"/>
      </g>
     </g>
     <g id="text_29">
      <!-- 0.6 -->
      <g transform="translate(553.31231 188.798438)scale(0.1 -0.1)">
       <use xlink:href="#DejaVuSans-30"/>
       <use xlink:href="#DejaVuSans-2e" x="63.623047"/>
       <use xlink:href="#DejaVuSans-36" x="95.410156"/>
      </g>
     </g>
    </g>
    <g id="xtick_12">
     <g id="line2d_30">
      <g>
       <use xlink:href="#m14200980b2" x="600.039768" y="174.2" style="stroke: #000000; stroke-width: 0.8"/>
      </g>
     </g>
     <g id="text_30">
      <!-- 0.8 -->
      <g transform="translate(592.088205 188.798438)scale(0.1 -0.1)">
       <use xlink:href="#DejaVuSans-30"/>
       <use xlink:href="#DejaVuSans-2e" x="63.623047"/>
       <use xlink:href="#DejaVuSans-38" x="95.410156"/>
      </g>
     </g>
    </g>
    <g id="text_31">
     <!-- Time (s) -->
     <g transform="translate(501.351241 202.476562)scale(0.1 -0.1)">
      <use xlink:href="#DejaVuSans-54"/>
      <use xlink:href="#DejaVuSans-69" x="57.958984"/>
      <use xlink:href="#DejaVuSans-6d" x="85.742188"/>
      <use xlink:href="#DejaVuSans-65" x="183.154297"/>
      <use xlink:href="#DejaVuSans-20" x="244.677734"/>
      <use xlink:href="#DejaVuSans-28" x="276.464844"/>
      <use xlink:href="#DejaVuSans-73" x="315.478516"/>
      <use xlink:href="#DejaVuSans-29" x="367.578125"/>
     </g>
    </g>
   </g>
   <g id="matplotlib.axis_6">
    <g id="ytick_9">
     <g id="line2d_31">
      <g>
       <use xlink:href="#m4b723f29dc" x="406.160294" y="158.766034" style="stroke: #000000; stroke-width: 0.8"/>
      </g>
     </g>
     <g id="text_32">
      <!-- −0.2 -->
      <g transform="translate(374.877482 162.565253)scale(0.1 -0.1)">
       <use xlink:href="#DejaVuSans-2212"/>
       <use xlink:href="#DejaVuSans-30" x="83.789062"/>
       <use xlink:href="#DejaVuSans-2e" x="147.412109"/>
       <use xlink:href="#DejaVuSans-32" x="179.199219"/>
      </g>
     </g>
    </g>
    <g id="ytick_10">
     <g id="line2d_32">
      <g>
       <use xlink:href="#m4b723f29dc" x="406.160294" y="124.262462" style="stroke: #000000; stroke-width: 0.8"/>
      </g>
     </g>
     <g id="text_33">
      <!-- 0.0 -->
      <g transform="translate(383.257169 128.06168)scale(0.1 -0.1)">
       <use xlink:href="#DejaVuSans-30"/>
       <use xlink:href="#DejaVuSans-2e" x="63.623047"/>
       <use xlink:href="#DejaVuSans-30" x="95.410156"/>
      </g>
     </g>
    </g>
    <g id="ytick_11">
     <g id="line2d_33">
      <g>
       <use xlink:href="#m4b723f29dc" x="406.160294" y="89.758889" style="stroke: #000000; stroke-width: 0.8"/>
      </g>
     </g>
     <g id="text_34">
      <!-- 0.2 -->
      <g transform="translate(383.257169 93.558108)scale(0.1 -0.1)">
       <use xlink:href="#DejaVuSans-30"/>
       <use xlink:href="#DejaVuSans-2e" x="63.623047"/>
       <use xlink:href="#DejaVuSans-32" x="95.410156"/>
      </g>
     </g>
    </g>
    <g id="ytick_12">
     <g id="line2d_34">
      <g>
       <use xlink:href="#m4b723f29dc" x="406.160294" y="55.255317" style="stroke: #000000; stroke-width: 0.8"/>
      </g>
     </g>
     <g id="text_35">
      <!-- 0.4 -->
      <g transform="translate(383.257169 59.054536)scale(0.1 -0.1)">
       <use xlink:href="#DejaVuSans-30"/>
       <use xlink:href="#DejaVuSans-2e" x="63.623047"/>
       <use xlink:href="#DejaVuSans-34" x="95.410156"/>
      </g>
     </g>
    </g>
    <g id="text_36">
     <!-- Coeff. (a.u.) -->
     <g transform="translate(368.797794 137.275781)rotate(-90)scale(0.1 -0.1)">
      <defs>
       <path id="DejaVuSans-43" d="M 4122 4306 
L 4122 3641 
Q 3803 3938 3442 4084 
Q 3081 4231 2675 4231 
Q 1875 4231 1450 3742 
Q 1025 3253 1025 2328 
Q 1025 1406 1450 917 
Q 1875 428 2675 428 
Q 3081 428 3442 575 
Q 3803 722 4122 1019 
L 4122 359 
Q 3791 134 3420 21 
Q 3050 -91 2638 -91 
Q 1578 -91 968 557 
Q 359 1206 359 2328 
Q 359 3453 968 4101 
Q 1578 4750 2638 4750 
Q 3056 4750 3426 4639 
Q 3797 4528 4122 4306 
z
" transform="scale(0.015625)"/>
      </defs>
      <use xlink:href="#DejaVuSans-43"/>
      <use xlink:href="#DejaVuSans-6f" x="69.824219"/>
      <use xlink:href="#DejaVuSans-65" x="131.005859"/>
      <use xlink:href="#DejaVuSans-66" x="192.529297"/>
      <use xlink:href="#DejaVuSans-66" x="227.734375"/>
      <use xlink:href="#DejaVuSans-2e" x="255.689453"/>
      <use xlink:href="#DejaVuSans-20" x="287.476562"/>
      <use xlink:href="#DejaVuSans-28" x="319.263672"/>
      <use xlink:href="#DejaVuSans-61" x="358.277344"/>
      <use xlink:href="#DejaVuSans-2e" x="419.556641"/>
      <use xlink:href="#DejaVuSans-75" x="451.34375"/>
      <use xlink:href="#DejaVuSans-2e" x="514.722656"/>
      <use xlink:href="#DejaVuSans-29" x="546.509766"/>
     </g>
    </g>
   </g>
   <g id="line2d_35">
    <path d="M 406.160294 126.036477 
L 409.391619 126.056868 
L 414.238606 125.818498 
L 425.548241 125.078824 
L 435.242215 124.805952 
L 443.320527 124.612275 
L 444.936189 124.209622 
L 498.253044 124.193895 
L 501.484369 123.869635 
L 503.100031 123.488052 
L 504.715693 122.895538 
L 506.331355 122.076688 
L 511.178342 119.061053 
L 512.794005 118.534433 
L 514.409667 118.74477 
L 516.025329 120.015962 
L 517.640991 122.609396 
L 519.256654 126.657928 
L 520.872316 132.10686 
L 522.487978 138.672936 
L 525.719303 152.873472 
L 527.334965 158.90765 
L 528.950627 163.025123 
L 530.56629 164.385287 
L 532.181952 162.350352 
L 533.797614 156.590108 
L 535.413276 147.176445 
L 537.028939 134.603349 
L 540.260263 103.952962 
L 541.875926 88.52727 
L 543.491588 74.915525 
L 545.10725 64.289758 
L 546.722912 57.477205 
L 548.338575 54.895677 
L 549.954237 56.552456 
L 551.569899 62.018943 
L 553.185561 70.618596 
L 554.801224 81.427075 
L 559.648211 116.738346 
L 561.263873 126.324254 
L 562.879535 133.710667 
L 564.495197 138.629136 
L 566.11086 141.068094 
L 567.726522 141.236964 
L 569.342184 139.532729 
L 570.957847 136.482846 
L 574.189171 128.586687 
L 575.804833 124.714111 
L 577.420496 121.397966 
L 579.036158 118.850782 
L 580.65182 117.143008 
L 582.267483 116.245788 
L 583.883145 116.050043 
L 585.498807 116.412051 
L 587.114469 117.173384 
L 590.345794 119.29535 
L 593.577118 121.512166 
L 595.192781 122.482374 
L 596.808443 123.317307 
L 598.424105 124.01151 
L 600.039768 122.956548 
L 603.271092 123.655147 
L 606.502417 124.115274 
L 611.349404 124.501974 
L 616.19639 124.626547 
L 624.274702 124.552456 
L 637.2 124.450044 
L 637.2 124.450044 
" clip-path="url(#pf6fb27464a)" style="fill: none; stroke: #1f77b4; stroke-width: 1.5; stroke-linecap: square"/>
   </g>
   <g id="line2d_36">
    <path d="M 406.160294 124.945809 
L 411.007281 124.981123 
L 420.701255 124.738564 
L 435.242215 124.450954 
L 443.320527 124.383922 
L 444.936189 124.233837 
L 475.633772 124.258458 
L 499.868706 124.323127 
L 503.100031 124.52464 
L 506.331355 124.977682 
L 511.178342 125.826412 
L 512.794005 125.896862 
L 514.409667 125.699013 
L 516.025329 125.138028 
L 517.640991 124.14856 
L 519.256654 122.716003 
L 520.872316 120.893465 
L 525.719303 114.737118 
L 527.334965 113.300723 
L 528.950627 112.647538 
L 530.56629 113.015168 
L 532.181952 114.551417 
L 533.797614 117.284093 
L 535.413276 121.097413 
L 537.028939 125.735925 
L 540.260263 135.872703 
L 541.875926 140.410094 
L 543.491588 143.975859 
L 545.10725 146.23529 
L 546.722912 147.000582 
L 548.338575 146.241462 
L 549.954237 144.072785 
L 551.569899 140.751566 
L 553.185561 136.601329 
L 558.032548 123.02839 
L 559.648211 119.330693 
L 561.263873 116.479951 
L 562.879535 114.598453 
L 564.495197 113.700576 
L 566.11086 113.714372 
L 567.726522 114.492619 
L 569.342184 115.833874 
L 572.573509 119.314299 
L 574.189171 121.045402 
L 575.804833 122.559002 
L 577.420496 123.757767 
L 579.036158 124.601583 
L 580.65182 125.097733 
L 582.267483 125.284365 
L 583.883145 125.231041 
L 587.114469 124.668419 
L 593.577118 123.222006 
L 596.808443 122.75745 
L 598.424105 122.612807 
L 600.039768 121.880541 
L 603.271092 121.805013 
L 606.502417 121.93624 
L 612.965066 122.482812 
L 621.043377 123.153523 
L 629.121689 123.560751 
L 637.2 123.802963 
L 637.2 123.802963 
" clip-path="url(#pf6fb27464a)" style="fill: none; stroke: #ff7f0e; stroke-width: 1.5; stroke-linecap: square"/>
   </g>
   <g id="patch_9">
    <path d="M 406.160294 174.2 
L 406.160294 41.8 
" style="fill: none; stroke: #000000; stroke-width: 0.8; stroke-linejoin: miter; stroke-linecap: square"/>
   </g>
   <g id="patch_10">
    <path d="M 406.160294 174.2 
L 637.2 174.2 
" style="fill: none; stroke: #000000; stroke-width: 0.8; stroke-linejoin: miter; stroke-linecap: square"/>
   </g>
   <g id="text_37">
    <!-- TRF waveforms -->
    <g transform="translate(475.54671 22.362625)scale(0.12 -0.12)">
     <defs>
      <path id="DejaVuSans-46" d="M 628 4666 
L 3309 4666 
L 3309 4134 
L 1259 4134 
L 1259 2759 
L 3109 2759 
L 3109 2228 
L 1259 2228 
L 1259 0 
L 628 0 
L 628 4666 
z
" transform="scale(0.015625)"/>
      <path id="DejaVuSans-77" d="M 269 3500 
L 844 3500 
L 1563 769 
L 2278 3500 
L 2956 3500 
L 3675 769 
L 4391 3500 
L 4966 3500 
L 4050 0 
L 3372 0 
L 2619 2869 
L 1863 0 
L 1184 0 
L 269 3500 
z
" transform="scale(0.015625)"/>
     </defs>
     <use xlink:href="#DejaVuSans-54"/>
     <use xlink:href="#DejaVuSans-52" x="61.083984"/>
     <use xlink:href="#DejaVuSans-46" x="130.566406"/>
     <use xlink:href="#DejaVuSans-20" x="188.085938"/>
     <use xlink:href="#DejaVuSans-77" x="219.873047"/>
     <use xlink:href="#DejaVuSans-61" x="301.660156"/>
     <use xlink:href="#DejaVuSans-76" x="362.939453"/>
     <use xlink:href="#DejaVuSans-65" x="422.119141"/>
     <use xlink:href="#DejaVuSans-66" x="483.642578"/>
     <use xlink:href="#DejaVuSans-6f" x="518.847656"/>
     <use xlink:href="#DejaVuSans-72" x="580.029297"/>
     <use xlink:href="#DejaVuSans-6d" x="619.392578"/>
     <use xlink:href="#DejaVuSans-73" x="716.804688"/>
    </g>
    <!-- Node + surprisal -->
    <g transform="translate(471.371085 35.8)scale(0.12 -0.12)">
     <use xlink:href="#DejaVuSans-4e"/>
     <use xlink:href="#DejaVuSans-6f" x="74.804688"/>
     <use xlink:href="#DejaVuSans-64" x="135.986328"/>
     <use xlink:href="#DejaVuSans-65" x="199.462891"/>
     <use xlink:href="#DejaVuSans-20" x="260.986328"/>
     <use xlink:href="#DejaVuSans-2b" x="292.773438"/>
     <use xlink:href="#DejaVuSans-20" x="376.5625"/>
     <use xlink:href="#DejaVuSans-73" x="408.349609"/>
     <use xlink:href="#DejaVuSans-75" x="460.449219"/>
     <use xlink:href="#DejaVuSans-72" x="523.828125"/>
     <use xlink:href="#DejaVuSans-70" x="564.941406"/>
     <use xlink:href="#DejaVuSans-72" x="628.417969"/>
     <use xlink:href="#DejaVuSans-69" x="669.53125"/>
     <use xlink:href="#DejaVuSans-73" x="697.314453"/>
     <use xlink:href="#DejaVuSans-61" x="749.414062"/>
     <use xlink:href="#DejaVuSans-6c" x="810.693359"/>
    </g>
   </g>
   <g id="legend_3">
    <g id="line2d_37">
     <path d="M 415.160294 54.898438 
L 425.160294 54.898438 
L 435.160294 54.898438 
" style="fill: none; stroke: #1f77b4; stroke-width: 1.5; stroke-linecap: square"/>
    </g>
    <g id="text_38">
     <!-- Node -->
     <g transform="translate(443.160294 58.398438)scale(0.1 -0.1)">
      <use xlink:href="#DejaVuSans-4e"/>
      <use xlink:href="#DejaVuSans-6f" x="74.804688"/>
      <use xlink:href="#DejaVuSans-64" x="135.986328"/>
      <use xlink:href="#DejaVuSans-65" x="199.462891"/>
     </g>
    </g>
    <g id="line2d_38">
     <path d="M 415.160294 69.576563 
L 425.160294 69.576563 
L 435.160294 69.576563 
" style="fill: none; stroke: #ff7f0e; stroke-width: 1.5; stroke-linecap: square"/>
    </g>
    <g id="text_39">
     <!-- Surprisal -->
     <g transform="translate(443.160294 73.076563)scale(0.1 -0.1)">
      <use xlink:href="#DejaVuSans-53"/>
      <use xlink:href="#DejaVuSans-75" x="63.476562"/>
      <use xlink:href="#DejaVuSans-72" x="126.855469"/>
      <use xlink:href="#DejaVuSans-70" x="167.96875"/>
      <use xlink:href="#DejaVuSans-72" x="231.445312"/>
      <use xlink:href="#DejaVuSans-69" x="272.558594"/>
      <use xlink:href="#DejaVuSans-73" x="300.341797"/>
      <use xlink:href="#DejaVuSans-61" x="352.441406"/>
      <use xlink:href="#DejaVuSans-6c" x="413.720703"/>
     </g>
    </g>
   </g>
  </g>
 </g>
 <defs>
  <clipPath id="pf03b852319">
   <rect x="47.675" y="41.8" width="115.519853" height="132.4"/>
  </clipPath>
  <clipPath id="p4466553a38">
   <rect x="226.917647" y="41.8" width="115.519853" height="132.4"/>
  </clipPath>
  <clipPath id="pf6fb27464a">
   <rect x="406.160294" y="41.8" width="231.039706" height="132.4"/>
  </clipPath>
 </defs>
</svg>
