<?xml version="1.0" encoding="utf-8" standalone="no"?>
<!DOCTYPE svg PUBLIC "-//W3C//DTD SVG 1.1//EN"
  "http://www.w3.org/Graphics/SVG/1.1/DTD/svg11.dtd">
<svg xmlns:xlink="http://www.w3.org/1999/xlink" width="360pt" height="216pt" viewBox="0 0 360 216" xmlns="http://www.w3.org/2000/svg" version="1.1">
 <metadata>
  <rdf:RDF xmlns:dc="http://purl.org/dc/elements/1.1/" xmlns:cc="http://creativecommons.org/ns#" xmlns:rdf="http://www.w3.org/1999/02/22-rdf-syntax-ns#">
   <cc:Work>
    <dc:type rdf:resource="http://purl.org/dc/dcmitype/StillImage"/>
    <dc:date>2024-01-26T17:43:44.062759</dc:date>
    <dc:format>image/svg+xml</dc:format>
    <dc:creator>
     <cc:Agent>
      <dc:title>Matplotlib v3.5.1, https://matplotlib.org/</dc:title>
     </cc:Agent>
    </dc:creator>
   </cc:Work>
  </rdf:RDF>
 </metadata>
 <defs>
  <style type="text/css">*{stroke-linejoin: round; stroke-linecap: butt}</style>
 </defs>
 <g id="figure_1">
  <g id="patch_1">
   <path d="M 0 216 
L 360 216 
L 360 0 
L 0 0 
z
" style="fill: #ffffff"/>
  </g>
  <g id="axes_1">
   <g id="patch_2">
    <path d="M 56.05 174.2 
L 349.2 174.2 
L 349.2 10.8 
L 56.05 10.8 
z
" style="fill: #ffffff"/>
   </g>
   <g id="PolyCollection_1">
    <path d="M 56.05 113.718924 
L 56.05 114.290391 
L 58.1 114.26186 
L 60.15 114.239855 
L 62.2 114.220494 
L 64.25 114.202526 
L 66.3 114.184385 
L 68.35 114.1655 
L 70.4 114.1464 
L 72.45 114.127389 
L 74.5 114.11017 
L 76.55 114.096415 
L 78.6 114.086133 
L 80.65 114.07824 
L 82.7 114.071969 
L 84.75 114.066894 
L 86.8 114.061915 
L 88.85 114.056256 
L 90.9 114.050082 
L 92.95 114.044034 
L 95 114.03904 
L 97.05 114.035425 
L 99.1 114.03287 
L 101.15 114.031263 
L 103.2 114.030297 
L 105.25 114.02408 
L 107.3 114.021965 
L 109.35 114.019903 
L 111.4 114.018286 
L 113.45 114.017276 
L 115.5 114.016699 
L 117.55 114.016399 
L 119.6 114.016082 
L 121.65 114.015516 
L 123.7 114.014624 
L 125.75 114.013482 
L 127.8 114.012276 
L 129.85 114.011263 
L 131.9 114.010654 
L 133.95 114.010452 
L 136 114.010439 
L 138.05 114.010361 
L 140.1 114.010075 
L 142.15 114.009561 
L 144.2 114.008882 
L 146.25 114.008145 
L 148.3 114.007478 
L 150.35 114.007013 
L 152.4 114.006846 
L 154.45 114.006855 
L 156.5 114.006841 
L 158.55 114.006753 
L 160.6 114.006611 
L 162.65 114.006458 
L 164.7 114.006326 
L 166.75 114.006233 
L 168.8 114.006185 
L 170.85 114.006164 
L 172.9 114.006155 
L 174.95 114.006152 
L 177 114.006762 
L 179.05 113.99468 
L 181.1 113.88429 
L 183.15 113.53394 
L 185.2 112.808869 
L 187.25 111.655619 
L 189.3 110.163818 
L 191.35 108.596836 
L 193.4 107.391208 
L 195.45 107.150774 
L 197.5 108.55101 
L 199.55 111.940766 
L 201.6 117.348426 
L 203.65 124.494572 
L 205.7 132.742928 
L 207.75 141.13058 
L 209.8 148.480532 
L 211.85 153.575584 
L 213.9 155.401169 
L 215.95 153.376903 
L 218 147.249717 
L 220.05 136.983302 
L 222.1 123.107471 
L 224.15 106.784495 
L 226.2 89.654031 
L 228.25 73.623907 
L 230.3 60.633831 
L 232.35 52.417879 
L 234.4 50.303427 
L 236.45 55.003983 
L 238.5 65.859582 
L 240.55 78.766379 
L 242.6 92.594623 
L 244.65 106.321699 
L 246.7 118.822694 
L 248.75 129.186759 
L 250.8 136.699502 
L 252.85 140.997666 
L 254.9 142.065326 
L 256.95 140.225251 
L 259 136.053593 
L 261.05 130.273704 
L 263.1 123.67268 
L 265.15 117.065455 
L 267.2 111.15256 
L 269.25 106.480431 
L 271.3 103.379552 
L 273.35 101.929597 
L 275.4 101.984622 
L 277.45 103.231802 
L 279.5 105.233784 
L 281.55 107.540296 
L 283.6 109.760138 
L 285.65 111.62572 
L 287.7 113.003544 
L 289.75 113.88256 
L 291.8 114.348737 
L 293.85 114.533496 
L 295.9 114.567422 
L 297.95 114.542964 
L 300 114.498763 
L 302.05 114.578766 
L 304.1 114.505228 
L 306.15 114.438229 
L 308.2 114.381216 
L 310.25 114.335758 
L 312.3 114.299575 
L 314.35 114.268485 
L 316.4 114.238882 
L 318.45 114.208855 
L 320.5 114.1813 
L 322.55 114.158512 
L 324.6 114.140182 
L 326.65 114.126405 
L 328.7 114.116258 
L 330.75 114.108617 
L 332.8 114.101128 
L 334.85 114.092938 
L 336.9 114.084525 
L 338.95 114.076529 
L 341 114.069855 
L 343.05 114.064465 
L 345.1 114.059751 
L 347.15 114.05568 
L 349.2 114.052576 
L 349.2 113.958411 
L 349.2 113.958411 
L 347.15 113.954613 
L 345.1 113.950321 
L 343.05 113.945912 
L 341 113.941204 
L 338.95 113.9356 
L 336.9 113.929268 
L 334.85 113.922809 
L 332.8 113.916804 
L 330.75 113.911482 
L 328.7 113.90535 
L 326.65 113.896941 
L 324.6 113.885512 
L 322.55 113.870979 
L 320.5 113.853087 
L 318.45 113.832841 
L 316.4 113.813671 
L 314.35 113.798211 
L 312.3 113.784776 
L 310.25 113.769193 
L 308.2 113.749144 
L 306.15 113.721351 
L 304.1 113.685612 
L 302.05 113.640271 
L 300 113.736613 
L 297.95 113.689006 
L 295.9 113.610475 
L 293.85 113.459332 
L 291.8 113.136716 
L 289.75 112.512667 
L 287.7 111.464138 
L 285.65 109.922227 
L 283.6 107.907833 
L 281.55 105.561514 
L 279.5 103.138748 
L 277.45 100.992617 
L 275.4 99.531043 
L 273.35 99.167616 
L 271.3 100.250652 
L 269.25 102.979565 
L 267.2 107.332907 
L 265.15 113.045948 
L 263.1 119.579295 
L 261.05 126.179256 
L 259 131.930495 
L 256.95 135.886154 
L 254.9 137.242398 
L 252.85 135.475174 
L 250.8 130.426065 
L 248.75 122.268762 
L 246.7 111.496699 
L 244.65 98.897739 
L 242.6 85.364773 
L 240.55 71.881354 
L 238.5 59.38293 
L 236.45 49.039715 
L 234.4 44.27115 
L 232.35 45.573621 
L 230.3 52.840433 
L 228.25 65.212485 
L 226.2 81.185867 
L 224.15 98.872203 
L 222.1 116.273631 
L 220.05 131.549428 
L 218 143.219319 
L 215.95 150.285919 
L 213.9 152.399963 
L 211.85 150.131196 
L 209.8 144.630906 
L 207.75 137.184196 
L 205.7 129.058166 
L 203.65 121.36842 
L 201.6 114.960993 
L 199.55 110.332332 
L 197.5 107.604355 
L 195.45 106.545415 
L 193.4 106.750284 
L 191.35 107.872057 
L 189.3 109.463021 
L 187.25 111.07896 
L 185.2 112.406234 
L 183.15 113.302248 
L 181.1 113.78175 
L 179.05 113.964526 
L 177 114.002958 
L 174.95 114.006152 
L 172.9 114.00615 
L 170.85 114.006142 
L 168.8 114.006123 
L 166.75 114.006079 
L 164.7 114.005997 
L 162.65 114.005878 
L 160.6 114.005742 
L 158.55 114.005616 
L 156.5 114.005536 
L 154.45 114.005521 
L 152.4 114.005514 
L 150.35 114.005315 
L 148.3 114.004802 
L 146.25 114.004071 
L 144.2 114.003256 
L 142.15 114.002486 
L 140.1 114.001874 
L 138.05 114.001494 
L 136 114.001336 
L 133.95 114.001273 
L 131.9 114.00107 
L 129.85 114.000519 
L 127.8 113.999636 
L 125.75 113.99863 
L 123.7 113.997744 
L 121.65 113.99715 
L 119.6 113.996893 
L 117.55 113.99686 
L 115.5 113.996783 
L 113.45 113.996317 
L 111.4 113.995301 
L 109.35 113.993392 
L 107.3 113.990913 
L 105.25 113.988173 
L 103.2 113.982004 
L 101.15 113.980764 
L 99.1 113.978761 
L 97.05 113.97557 
L 95 113.971167 
L 92.95 113.965356 
L 90.9 113.958443 
L 88.85 113.951709 
L 86.8 113.946006 
L 84.75 113.941692 
L 82.7 113.938158 
L 80.65 113.934141 
L 78.6 113.92892 
L 76.55 113.921374 
L 74.5 113.910569 
L 72.45 113.895643 
L 70.4 113.877997 
L 68.35 113.858887 
L 66.3 113.839721 
L 64.25 113.820119 
L 62.2 113.800079 
L 60.15 113.777925 
L 58.1 113.752414 
L 56.05 113.718924 
z
" clip-path="url(#pea23b98691)" style="fill: #1f77b4; fill-opacity: 0.6"/>
   </g>
   <g id="PolyCollection_2">
    <path d="M 56.05 113.712899 
L 56.05 114.299018 
L 58.1 114.2615 
L 60.15 114.230369 
L 62.2 114.205086 
L 64.25 114.186067 
L 66.3 114.170908 
L 68.35 114.157603 
L 70.4 114.143377 
L 72.45 114.127505 
L 74.5 114.11151 
L 76.55 114.09739 
L 78.6 114.086074 
L 80.65 114.077736 
L 82.7 114.072063 
L 84.75 114.068513 
L 86.8 114.065673 
L 88.85 114.062176 
L 90.9 114.057821 
L 92.95 114.052877 
L 95 114.047771 
L 97.05 114.043074 
L 99.1 114.039088 
L 101.15 114.035963 
L 103.2 114.03386 
L 105.25 114.01902 
L 107.3 114.017955 
L 109.35 114.016441 
L 111.4 114.014611 
L 113.45 114.012745 
L 115.5 114.011216 
L 117.55 114.010347 
L 119.6 114.01011 
L 121.65 114.010088 
L 123.7 114.009922 
L 125.75 114.009497 
L 127.8 114.008863 
L 129.85 114.00814 
L 131.9 114.007457 
L 133.95 114.006934 
L 136 114.006686 
L 138.05 114.006692 
L 140.1 114.006724 
L 142.15 114.006683 
L 144.2 114.006575 
L 146.25 114.006435 
L 148.3 114.006304 
L 150.35 114.00621 
L 152.4 114.006163 
L 154.45 114.006152 
L 156.5 114.006152 
L 158.55 114.006152 
L 160.6 114.006236 
L 162.65 114.006239 
L 164.7 114.001654 
L 166.75 113.970878 
L 168.8 113.857677 
L 170.85 113.562122 
L 172.9 112.955549 
L 174.95 111.92153 
L 177 110.416277 
L 179.05 108.548334 
L 181.1 106.685403 
L 183.15 105.469292 
L 185.2 105.756147 
L 187.25 108.322351 
L 189.3 113.568061 
L 191.35 121.476991 
L 193.4 131.526424 
L 195.45 142.664637 
L 197.5 153.396664 
L 199.55 161.985087 
L 201.6 166.772727 
L 203.65 166.639284 
L 205.7 160.83582 
L 207.75 148.799476 
L 209.8 130.958217 
L 211.85 108.735652 
L 213.9 84.351077 
L 215.95 60.56066 
L 218 40.301858 
L 220.05 26.337774 
L 222.1 21.043397 
L 224.15 26.011192 
L 226.2 40.274187 
L 228.25 61.180884 
L 230.3 85.429331 
L 232.35 109.637561 
L 234.4 130.681437 
L 236.45 146.216393 
L 238.5 155.289794 
L 240.55 160.048645 
L 242.6 160.392334 
L 244.65 156.704683 
L 246.7 149.327351 
L 248.75 139.189525 
L 250.8 127.605405 
L 252.85 115.985202 
L 254.9 105.623622 
L 256.95 97.536565 
L 259 92.356262 
L 261.05 90.328135 
L 263.1 91.373888 
L 265.15 94.740298 
L 267.2 99.415741 
L 269.25 104.505827 
L 271.3 109.251603 
L 273.35 113.10243 
L 275.4 115.764015 
L 277.45 117.200956 
L 279.5 117.603451 
L 281.55 117.320227 
L 283.6 116.627665 
L 285.65 115.786482 
L 287.7 115.029016 
L 289.75 114.483276 
L 291.8 114.171509 
L 293.85 114.041176 
L 295.9 114.009193 
L 297.95 114.006152 
L 300 114.006152 
L 302.05 114.226602 
L 304.1 114.202063 
L 306.15 114.182129 
L 308.2 114.164928 
L 310.25 114.150043 
L 312.3 114.136156 
L 314.35 114.122463 
L 316.4 114.108201 
L 318.45 114.094171 
L 320.5 114.081599 
L 322.55 114.071914 
L 324.6 114.064999 
L 326.65 114.060494 
L 328.7 114.057493 
L 330.75 114.055303 
L 332.8 114.052641 
L 334.85 114.048928 
L 336.9 114.044419 
L 338.95 114.039601 
L 341 114.035216 
L 343.05 114.031614 
L 345.1 114.02876 
L 347.15 114.026885 
L 349.2 114.025988 
L 349.2 113.986142 
L 349.2 113.986142 
L 347.15 113.985061 
L 345.1 113.98311 
L 343.05 113.980378 
L 341 113.97704 
L 338.95 113.973093 
L 336.9 113.968876 
L 334.85 113.964869 
L 332.8 113.961428 
L 330.75 113.958598 
L 328.7 113.955507 
L 326.65 113.951115 
L 324.6 113.945019 
L 322.55 113.936732 
L 320.5 113.925851 
L 318.45 113.912676 
L 316.4 113.898881 
L 314.35 113.885885 
L 312.3 113.873616 
L 310.25 113.861121 
L 308.2 113.847401 
L 306.15 113.830738 
L 304.1 113.810971 
L 302.05 113.786344 
L 300 114.006152 
L 297.95 114.006152 
L 295.9 114.005525 
L 293.85 114.019623 
L 291.8 114.10839 
L 289.75 114.356306 
L 287.7 114.831901 
L 285.65 115.539917 
L 283.6 116.380886 
L 281.55 117.127768 
L 279.5 117.400645 
L 277.45 116.777406 
L 275.4 115.022076 
L 273.35 112.032488 
L 271.3 107.917731 
L 269.25 103.040553 
L 267.2 98.002452 
L 265.15 93.573946 
L 263.1 90.560506 
L 261.05 89.552592 
L 259 91.015222 
L 256.95 95.44824 
L 254.9 102.8571 
L 252.85 112.751957 
L 250.8 124.21477 
L 248.75 135.999095 
L 246.7 146.679005 
L 244.65 154.820392 
L 242.6 159.081693 
L 240.55 158.356857 
L 238.5 152.645115 
L 236.45 142.175928 
L 234.4 124.930743 
L 232.35 102.726845 
L 230.3 78.242066 
L 228.25 54.631002 
L 226.2 35.14946 
L 224.15 22.55558 
L 222.1 18.227273 
L 220.05 22.368003 
L 218 34.780669 
L 215.95 53.914515 
L 213.9 77.264292 
L 211.85 101.933199 
L 209.8 125.077569 
L 207.75 144.272387 
L 205.7 157.788984 
L 203.65 164.6851 
L 201.6 164.811905 
L 199.55 159.372792 
L 197.5 150.278826 
L 195.45 139.41551 
L 193.4 128.51931 
L 191.35 118.991473 
L 189.3 111.744056 
L 187.25 107.14497 
L 185.2 105.040322 
L 183.15 104.89062 
L 181.1 106.068718 
L 179.05 107.938154 
L 177 109.893722 
L 174.95 111.529154 
L 172.9 112.693796 
L 170.85 113.408339 
L 168.8 113.780006 
L 166.75 113.938537 
L 164.7 113.991219 
L 162.65 114.003898 
L 160.6 114.005962 
L 158.55 114.006152 
L 156.5 114.006152 
L 154.45 114.006152 
L 152.4 114.006143 
L 150.35 114.0061 
L 148.3 114.006014 
L 146.25 114.005895 
L 144.2 114.005772 
L 142.15 114.005679 
L 140.1 114.005651 
L 138.05 114.005687 
L 136 114.005687 
L 133.95 114.005426 
L 131.9 114.004889 
L 129.85 114.004193 
L 127.8 114.003455 
L 125.75 114.002804 
L 123.7 114.002357 
L 121.65 114.00216 
L 119.6 114.002091 
L 117.55 114.001788 
L 115.5 114.00084 
L 113.45 113.999233 
L 111.4 113.997299 
L 109.35 113.995425 
L 107.3 113.99392 
L 105.25 113.992936 
L 103.2 113.978797 
L 101.15 113.977368 
L 99.1 113.974796 
L 97.05 113.971153 
L 95 113.966633 
L 92.95 113.961325 
L 90.9 113.955868 
L 88.85 113.950925 
L 86.8 113.946865 
L 84.75 113.943785 
L 82.7 113.940835 
L 80.65 113.936221 
L 78.6 113.929019 
L 76.55 113.918312 
L 74.5 113.904177 
L 72.45 113.887446 
L 70.4 113.869762 
L 68.35 113.852591 
L 66.3 113.836116 
L 64.25 113.818918 
L 62.2 113.798854 
L 60.15 113.77455 
L 58.1 113.745895 
L 56.05 113.712899 
z
" clip-path="url(#pea23b98691)" style="fill: #ff7f0e; fill-opacity: 0.6"/>
   </g>
   <g id="matplotlib.axis_1">
    <g id="xtick_1">
     <g id="line2d_1">
      <defs>
       <path id="m3d83b84d20" d="M 0 0 
L 0 3.5 
" style="stroke: #000000; stroke-width: 0.8"/>
      </defs>
      <g>
       <use xlink:href="#m3d83b84d20" x="56.05" y="174.2" style="stroke: #000000; stroke-width: 0.8"/>
      </g>
     </g>
     <g id="text_1">
      <!-- −0.2 -->
      <g transform="translate(43.908594 188.798438)scale(0.1 -0.1)">
       <defs>
        <path id="DejaVuSans-2212" d="M 678 2272 
L 4684 2272 
L 4684 1741 
L 678 1741 
L 678 2272 
z
" transform="scale(0.015625)"/>
        <path id="DejaVuSans-30" d="M 2034 4250 
Q 1547 4250 1301 3770 
Q 1056 3291 1056 2328 
Q 1056 1369 1301 889 
Q 1547 409 2034 409 
Q 2525 409 2770 889 
Q 3016 1369 3016 2328 
Q 3016 3291 2770 3770 
Q 2525 4250 2034 4250 
z
M 2034 4750 
Q 2819 4750 3233 4129 
Q 3647 3509 3647 2328 
Q 3647 1150 3233 529 
Q 2819 -91 2034 -91 
Q 1250 -91 836 529 
Q 422 1150 422 2328 
Q 422 3509 836 4129 
Q 1250 4750 2034 4750 
z
" transform="scale(0.015625)"/>
        <path id="DejaVuSans-2e" d="M 684 794 
L 1344 794 
L 1344 0 
L 684 0 
L 684 794 
z
" transform="scale(0.015625)"/>
        <path id="DejaVuSans-32" d="M 1228 531 
L 3431 531 
L 3431 0 
L 469 0 
L 469 531 
Q 828 903 1448 1529 
Q 2069 2156 2228 2338 
Q 2531 2678 2651 2914 
Q 2772 3150 2772 3378 
Q 2772 3750 2511 3984 
Q 2250 4219 1831 4219 
Q 1534 4219 1204 4116 
Q 875 4013 500 3803 
L 500 4441 
Q 881 4594 1212 4672 
Q 1544 4750 1819 4750 
Q 2544 4750 2975 4387 
Q 3406 4025 3406 3419 
Q 3406 3131 3298 2873 
Q 3191 2616 2906 2266 
Q 2828 2175 2409 1742 
Q 1991 1309 1228 531 
z
" transform="scale(0.015625)"/>
       </defs>
       <use xlink:href="#DejaVuSans-2212"/>
       <use xlink:href="#DejaVuSans-30" x="83.789062"/>
       <use xlink:href="#DejaVuSans-2e" x="147.412109"/>
       <use xlink:href="#DejaVuSans-32" x="179.199219"/>
      </g>
     </g>
    </g>
    <g id="xtick_2">
     <g id="line2d_2">
      <g>
       <use xlink:href="#m3d83b84d20" x="105.25" y="174.2" style="stroke: #000000; stroke-width: 0.8"/>
      </g>
     </g>
     <g id="text_2">
      <!-- 0.0 -->
      <g transform="translate(97.298438 188.798438)scale(0.1 -0.1)">
       <use xlink:href="#DejaVuSans-30"/>
       <use xlink:href="#DejaVuSans-2e" x="63.623047"/>
       <use xlink:href="#DejaVuSans-30" x="95.410156"/>
      </g>
     </g>
    </g>
    <g id="xtick_3">
     <g id="line2d_3">
      <g>
       <use xlink:href="#m3d83b84d20" x="154.45" y="174.2" style="stroke: #000000; stroke-width: 0.8"/>
      </g>
     </g>
     <g id="text_3">
      <!-- 0.2 -->
      <g transform="translate(146.498437 188.798438)scale(0.1 -0.1)">
       <use xlink:href="#DejaVuSans-30"/>
       <use xlink:href="#DejaVuSans-2e" x="63.623047"/>
       <use xlink:href="#DejaVuSans-32" x="95.410156"/>
      </g>
     </g>
    </g>
    <g id="xtick_4">
     <g id="line2d_4">
      <g>
       <use xlink:href="#m3d83b84d20" x="203.65" y="174.2" style="stroke: #000000; stroke-width: 0.8"/>
      </g>
     </g>
     <g id="text_4">
      <!-- 0.4 -->
      <g transform="translate(195.698438 188.798438)scale(0.1 -0.1)">
       <defs>
        <path id="DejaVuSans-34" d="M 2419 4116 
L 825 1625 
L 2419 1625 
L 2419 4116 
z
M 2253 4666 
L 3047 4666 
L 3047 1625 
L 3713 1625 
L 3713 1100 
L 3047 1100 
L 3047 0 
L 2419 0 
L 2419 1100 
L 313 1100 
L 313 1709 
L 2253 4666 
z
" transform="scale(0.015625)"/>
       </defs>
       <use xlink:href="#DejaVuSans-30"/>
       <use xlink:href="#DejaVuSans-2e" x="63.623047"/>
       <use xlink:href="#DejaVuSans-34" x="95.410156"/>
      </g>
     </g>
    </g>
    <g id="xtick_5">
     <g id="line2d_5">
      <g>
       <use xlink:href="#m3d83b84d20" x="252.85" y="174.2" style="stroke: #000000; stroke-width: 0.8"/>
      </g>
     </g>
     <g id="text_5">
      <!-- 0.6 -->
      <g transform="translate(244.898438 188.798438)scale(0.1 -0.1)">
       <defs>
        <path id="DejaVuSans-36" d="M 2113 2584 
Q 1688 2584 1439 2293 
Q 1191 2003 1191 1497 
Q 1191 994 1439 701 
Q 1688 409 2113 409 
Q 2538 409 2786 701 
Q 3034 994 3034 1497 
Q 3034 2003 2786 2293 
Q 2538 2584 2113 2584 
z
M 3366 4563 
L 3366 3988 
Q 3128 4100 2886 4159 
Q 2644 4219 2406 4219 
Q 1781 4219 1451 3797 
Q 1122 3375 1075 2522 
Q 1259 2794 1537 2939 
Q 1816 3084 2150 3084 
Q 2853 3084 3261 2657 
Q 3669 2231 3669 1497 
Q 3669 778 3244 343 
Q 2819 -91 2113 -91 
Q 1303 -91 875 529 
Q 447 1150 447 2328 
Q 447 3434 972 4092 
Q 1497 4750 2381 4750 
Q 2619 4750 2861 4703 
Q 3103 4656 3366 4563 
z
" transform="scale(0.015625)"/>
       </defs>
       <use xlink:href="#DejaVuSans-30"/>
       <use xlink:href="#DejaVuSans-2e" x="63.623047"/>
       <use xlink:href="#DejaVuSans-36" x="95.410156"/>
      </g>
     </g>
    </g>
    <g id="xtick_6">
     <g id="line2d_6">
      <g>
       <use xlink:href="#m3d83b84d20" x="302.05" y="174.2" style="stroke: #000000; stroke-width: 0.8"/>
      </g>
     </g>
     <g id="text_6">
      <!-- 0.8 -->
      <g transform="translate(294.098437 188.798438)scale(0.1 -0.1)">
       <defs>
        <path id="DejaVuSans-38" d="M 2034 2216 
Q 1584 2216 1326 1975 
Q 1069 1734 1069 1313 
Q 1069 891 1326 650 
Q 1584 409 2034 409 
Q 2484 409 2743 651 
Q 3003 894 3003 1313 
Q 3003 1734 2745 1975 
Q 2488 2216 2034 2216 
z
M 1403 2484 
Q 997 2584 770 2862 
Q 544 3141 544 3541 
Q 544 4100 942 4425 
Q 1341 4750 2034 4750 
Q 2731 4750 3128 4425 
Q 3525 4100 3525 3541 
Q 3525 3141 3298 2862 
Q 3072 2584 2669 2484 
Q 3125 2378 3379 2068 
Q 3634 1759 3634 1313 
Q 3634 634 3220 271 
Q 2806 -91 2034 -91 
Q 1263 -91 848 271 
Q 434 634 434 1313 
Q 434 1759 690 2068 
Q 947 2378 1403 2484 
z
M 1172 3481 
Q 1172 3119 1398 2916 
Q 1625 2713 2034 2713 
Q 2441 2713 2670 2916 
Q 2900 3119 2900 3481 
Q 2900 3844 2670 4047 
Q 2441 4250 2034 4250 
Q 1625 4250 1398 4047 
Q 1172 3844 1172 3481 
z
" transform="scale(0.015625)"/>
       </defs>
       <use xlink:href="#DejaVuSans-30"/>
       <use xlink:href="#DejaVuSans-2e" x="63.623047"/>
       <use xlink:href="#DejaVuSans-38" x="95.410156"/>
      </g>
     </g>
    </g>
    <g id="text_7">
     <!-- Time (s) -->
     <g transform="translate(182.296094 202.476562)scale(0.1 -0.1)">
      <defs>
       <path id="DejaVuSans-54" d="M -19 4666 
L 3928 4666 
L 3928 4134 
L 2272 4134 
L 2272 0 
L 1638 0 
L 1638 4134 
L -19 4134 
L -19 4666 
z
" transform="scale(0.015625)"/>
       <path id="DejaVuSans-69" d="M 603 3500 
L 1178 3500 
L 1178 0 
L 603 0 
L 603 3500 
z
M 603 4863 
L 1178 4863 
L 1178 4134 
L 603 4134 
L 603 4863 
z
" transform="scale(0.015625)"/>
       <path id="DejaVuSans-6d" d="M 3328 2828 
Q 3544 3216 3844 3400 
Q 4144 3584 4550 3584 
Q 5097 3584 5394 3201 
Q 5691 2819 5691 2113 
L 5691 0 
L 5113 0 
L 5113 2094 
Q 5113 2597 4934 2840 
Q 4756 3084 4391 3084 
Q 3944 3084 3684 2787 
Q 3425 2491 3425 1978 
L 3425 0 
L 2847 0 
L 2847 2094 
Q 2847 2600 2669 2842 
Q 2491 3084 2119 3084 
Q 1678 3084 1418 2786 
Q 1159 2488 1159 1978 
L 1159 0 
L 581 0 
L 581 3500 
L 1159 3500 
L 1159 2956 
Q 1356 3278 1631 3431 
Q 1906 3584 2284 3584 
Q 2666 3584 2933 3390 
Q 3200 3197 3328 2828 
z
" transform="scale(0.015625)"/>
       <path id="DejaVuSans-65" d="M 3597 1894 
L 3597 1613 
L 953 1613 
Q 991 1019 1311 708 
Q 1631 397 2203 397 
Q 2534 397 2845 478 
Q 3156 559 3463 722 
L 3463 178 
Q 3153 47 2828 -22 
Q 2503 -91 2169 -91 
Q 1331 -91 842 396 
Q 353 884 353 1716 
Q 353 2575 817 3079 
Q 1281 3584 2069 3584 
Q 2775 3584 3186 3129 
Q 3597 2675 3597 1894 
z
M 3022 2063 
Q 3016 2534 2758 2815 
Q 2500 3097 2075 3097 
Q 1594 3097 1305 2825 
Q 1016 2553 972 2059 
L 3022 2063 
z
" transform="scale(0.015625)"/>
       <path id="DejaVuSans-20" transform="scale(0.015625)"/>
       <path id="DejaVuSans-28" d="M 1984 4856 
Q 1566 4138 1362 3434 
Q 1159 2731 1159 2009 
Q 1159 1288 1364 580 
Q 1569 -128 1984 -844 
L 1484 -844 
Q 1016 -109 783 600 
Q 550 1309 550 2009 
Q 550 2706 781 3412 
Q 1013 4119 1484 4856 
L 1984 4856 
z
" transform="scale(0.015625)"/>
       <path id="DejaVuSans-73" d="M 2834 3397 
L 2834 2853 
Q 2591 2978 2328 3040 
Q 2066 3103 1784 3103 
Q 1356 3103 1142 2972 
Q 928 2841 928 2578 
Q 928 2378 1081 2264 
Q 1234 2150 1697 2047 
L 1894 2003 
Q 2506 1872 2764 1633 
Q 3022 1394 3022 966 
Q 3022 478 2636 193 
Q 2250 -91 1575 -91 
Q 1294 -91 989 -36 
Q 684 19 347 128 
L 347 722 
Q 666 556 975 473 
Q 1284 391 1588 391 
Q 1994 391 2212 530 
Q 2431 669 2431 922 
Q 2431 1156 2273 1281 
Q 2116 1406 1581 1522 
L 1381 1569 
Q 847 1681 609 1914 
Q 372 2147 372 2553 
Q 372 3047 722 3315 
Q 1072 3584 1716 3584 
Q 2034 3584 2315 3537 
Q 2597 3491 2834 3397 
z
" transform="scale(0.015625)"/>
       <path id="DejaVuSans-29" d="M 513 4856 
L 1013 4856 
Q 1481 4119 1714 3412 
Q 1947 2706 1947 2009 
Q 1947 1309 1714 600 
Q 1481 -109 1013 -844 
L 513 -844 
Q 928 -128 1133 580 
Q 1338 1288 1338 2009 
Q 1338 2731 1133 3434 
Q 928 4138 513 4856 
z
" transform="scale(0.015625)"/>
      </defs>
      <use xlink:href="#DejaVuSans-54"/>
      <use xlink:href="#DejaVuSans-69" x="57.958984"/>
      <use xlink:href="#DejaVuSans-6d" x="85.742188"/>
      <use xlink:href="#DejaVuSans-65" x="183.154297"/>
      <use xlink:href="#DejaVuSans-20" x="244.677734"/>
      <use xlink:href="#DejaVuSans-28" x="276.464844"/>
      <use xlink:href="#DejaVuSans-73" x="315.478516"/>
      <use xlink:href="#DejaVuSans-29" x="367.578125"/>
     </g>
    </g>
   </g>
   <g id="matplotlib.axis_2">
    <g id="ytick_1">
     <g id="line2d_7">
      <defs>
       <path id="m6491cf2180" d="M 0 0 
L -3.5 0 
" style="stroke: #000000; stroke-width: 0.8"/>
      </defs>
      <g>
       <use xlink:href="#m6491cf2180" x="56.05" y="161.006618" style="stroke: #000000; stroke-width: 0.8"/>
      </g>
     </g>
     <g id="text_8">
      <!-- −0.4 -->
      <g transform="translate(24.767187 164.805837)scale(0.1 -0.1)">
       <use xlink:href="#DejaVuSans-2212"/>
       <use xlink:href="#DejaVuSans-30" x="83.789062"/>
       <use xlink:href="#DejaVuSans-2e" x="147.412109"/>
       <use xlink:href="#DejaVuSans-34" x="179.199219"/>
      </g>
     </g>
    </g>
    <g id="ytick_2">
     <g id="line2d_8">
      <g>
       <use xlink:href="#m6491cf2180" x="56.05" y="137.506385" style="stroke: #000000; stroke-width: 0.8"/>
      </g>
     </g>
     <g id="text_9">
      <!-- −0.2 -->
      <g transform="translate(24.767187 141.305604)scale(0.1 -0.1)">
       <use xlink:href="#DejaVuSans-2212"/>
       <use xlink:href="#DejaVuSans-30" x="83.789062"/>
       <use xlink:href="#DejaVuSans-2e" x="147.412109"/>
       <use xlink:href="#DejaVuSans-32" x="179.199219"/>
      </g>
     </g>
    </g>
    <g id="ytick_3">
     <g id="line2d_9">
      <g>
       <use xlink:href="#m6491cf2180" x="56.05" y="114.006152" style="stroke: #000000; stroke-width: 0.8"/>
      </g>
     </g>
     <g id="text_10">
      <!-- 0.0 -->
      <g transform="translate(33.146875 117.805371)scale(0.1 -0.1)">
       <use xlink:href="#DejaVuSans-30"/>
       <use xlink:href="#DejaVuSans-2e" x="63.623047"/>
       <use xlink:href="#DejaVuSans-30" x="95.410156"/>
      </g>
     </g>
    </g>
    <g id="ytick_4">
     <g id="line2d_10">
      <g>
       <use xlink:href="#m6491cf2180" x="56.05" y="90.50592" style="stroke: #000000; stroke-width: 0.8"/>
      </g>
     </g>
     <g id="text_11">
      <!-- 0.2 -->
      <g transform="translate(33.146875 94.305139)scale(0.1 -0.1)">
       <use xlink:href="#DejaVuSans-30"/>
       <use xlink:href="#DejaVuSans-2e" x="63.623047"/>
       <use xlink:href="#DejaVuSans-32" x="95.410156"/>
      </g>
     </g>
    </g>
    <g id="ytick_5">
     <g id="line2d_11">
      <g>
       <use xlink:href="#m6491cf2180" x="56.05" y="67.005687" style="stroke: #000000; stroke-width: 0.8"/>
      </g>
     </g>
     <g id="text_12">
      <!-- 0.4 -->
      <g transform="translate(33.146875 70.804906)scale(0.1 -0.1)">
       <use xlink:href="#DejaVuSans-30"/>
       <use xlink:href="#DejaVuSans-2e" x="63.623047"/>
       <use xlink:href="#DejaVuSans-34" x="95.410156"/>
      </g>
     </g>
    </g>
    <g id="ytick_6">
     <g id="line2d_12">
      <g>
       <use xlink:href="#m6491cf2180" x="56.05" y="43.505454" style="stroke: #000000; stroke-width: 0.8"/>
      </g>
     </g>
     <g id="text_13">
      <!-- 0.6 -->
      <g transform="translate(33.146875 47.304673)scale(0.1 -0.1)">
       <use xlink:href="#DejaVuSans-30"/>
       <use xlink:href="#DejaVuSans-2e" x="63.623047"/>
       <use xlink:href="#DejaVuSans-36" x="95.410156"/>
      </g>
     </g>
    </g>
    <g id="ytick_7">
     <g id="line2d_13">
      <g>
       <use xlink:href="#m6491cf2180" x="56.05" y="20.005222" style="stroke: #000000; stroke-width: 0.8"/>
      </g>
     </g>
     <g id="text_14">
      <!-- 0.8 -->
      <g transform="translate(33.146875 23.804441)scale(0.1 -0.1)">
       <use xlink:href="#DejaVuSans-30"/>
       <use xlink:href="#DejaVuSans-2e" x="63.623047"/>
       <use xlink:href="#DejaVuSans-38" x="95.410156"/>
      </g>
     </g>
    </g>
    <g id="text_15">
     <!-- Coeff. (a.u.) -->
     <g transform="translate(18.6875 121.775781)rotate(-90)scale(0.1 -0.1)">
      <defs>
       <path id="DejaVuSans-43" d="M 4122 4306 
L 4122 3641 
Q 3803 3938 3442 4084 
Q 3081 4231 2675 4231 
Q 1875 4231 1450 3742 
Q 1025 3253 1025 2328 
Q 1025 1406 1450 917 
Q 1875 428 2675 428 
Q 3081 428 3442 575 
Q 3803 722 4122 1019 
L 4122 359 
Q 3791 134 3420 21 
Q 3050 -91 2638 -91 
Q 1578 -91 968 557 
Q 359 1206 359 2328 
Q 359 3453 968 4101 
Q 1578 4750 2638 4750 
Q 3056 4750 3426 4639 
Q 3797 4528 4122 4306 
z
" transform="scale(0.015625)"/>
       <path id="DejaVuSans-6f" d="M 1959 3097 
Q 1497 3097 1228 2736 
Q 959 2375 959 1747 
Q 959 1119 1226 758 
Q 1494 397 1959 397 
Q 2419 397 2687 759 
Q 2956 1122 2956 1747 
Q 2956 2369 2687 2733 
Q 2419 3097 1959 3097 
z
M 1959 3584 
Q 2709 3584 3137 3096 
Q 3566 2609 3566 1747 
Q 3566 888 3137 398 
Q 2709 -91 1959 -91 
Q 1206 -91 779 398 
Q 353 888 353 1747 
Q 353 2609 779 3096 
Q 1206 3584 1959 3584 
z
" transform="scale(0.015625)"/>
       <path id="DejaVuSans-66" d="M 2375 4863 
L 2375 4384 
L 1825 4384 
Q 1516 4384 1395 4259 
Q 1275 4134 1275 3809 
L 1275 3500 
L 2222 3500 
L 2222 3053 
L 1275 3053 
L 1275 0 
L 697 0 
L 697 3053 
L 147 3053 
L 147 3500 
L 697 3500 
L 697 3744 
Q 697 4328 969 4595 
Q 1241 4863 1831 4863 
L 2375 4863 
z
" transform="scale(0.015625)"/>
       <path id="DejaVuSans-61" d="M 2194 1759 
Q 1497 1759 1228 1600 
Q 959 1441 959 1056 
Q 959 750 1161 570 
Q 1363 391 1709 391 
Q 2188 391 2477 730 
Q 2766 1069 2766 1631 
L 2766 1759 
L 2194 1759 
z
M 3341 1997 
L 3341 0 
L 2766 0 
L 2766 531 
Q 2569 213 2275 61 
Q 1981 -91 1556 -91 
Q 1019 -91 701 211 
Q 384 513 384 1019 
Q 384 1609 779 1909 
Q 1175 2209 1959 2209 
L 2766 2209 
L 2766 2266 
Q 2766 2663 2505 2880 
Q 2244 3097 1772 3097 
Q 1472 3097 1187 3025 
Q 903 2953 641 2809 
L 641 3341 
Q 956 3463 1253 3523 
Q 1550 3584 1831 3584 
Q 2591 3584 2966 3190 
Q 3341 2797 3341 1997 
z
" transform="scale(0.015625)"/>
       <path id="DejaVuSans-75" d="M 544 1381 
L 544 3500 
L 1119 3500 
L 1119 1403 
Q 1119 906 1312 657 
Q 1506 409 1894 409 
Q 2359 409 2629 706 
Q 2900 1003 2900 1516 
L 2900 3500 
L 3475 3500 
L 3475 0 
L 2900 0 
L 2900 538 
Q 2691 219 2414 64 
Q 2138 -91 1772 -91 
Q 1169 -91 856 284 
Q 544 659 544 1381 
z
M 1991 3584 
L 1991 3584 
z
" transform="scale(0.015625)"/>
      </defs>
      <use xlink:href="#DejaVuSans-43"/>
      <use xlink:href="#DejaVuSans-6f" x="69.824219"/>
      <use xlink:href="#DejaVuSans-65" x="131.005859"/>
      <use xlink:href="#DejaVuSans-66" x="192.529297"/>
      <use xlink:href="#DejaVuSans-66" x="227.734375"/>
      <use xlink:href="#DejaVuSans-2e" x="255.689453"/>
      <use xlink:href="#DejaVuSans-20" x="287.476562"/>
      <use xlink:href="#DejaVuSans-28" x="319.263672"/>
      <use xlink:href="#DejaVuSans-61" x="358.277344"/>
      <use xlink:href="#DejaVuSans-2e" x="419.556641"/>
      <use xlink:href="#DejaVuSans-75" x="451.34375"/>
      <use xlink:href="#DejaVuSans-2e" x="514.722656"/>
      <use xlink:href="#DejaVuSans-29" x="546.509766"/>
     </g>
    </g>
   </g>
   <g id="line2d_14">
    <path d="M 56.05 114.004658 
L 148.3 114.00614 
L 179.05 113.979603 
L 181.1 113.83302 
L 183.15 113.418094 
L 185.2 112.607552 
L 187.25 111.36729 
L 191.35 108.234447 
L 193.4 107.070746 
L 195.45 106.848095 
L 197.5 108.077683 
L 199.55 111.136549 
L 201.6 116.154709 
L 203.65 122.931496 
L 209.8 146.555719 
L 211.85 151.85339 
L 213.9 153.900566 
L 215.95 151.831411 
L 218 145.234518 
L 220.05 134.266365 
L 222.1 119.690551 
L 228.25 69.418196 
L 230.3 56.737132 
L 232.35 48.99575 
L 234.4 47.287288 
L 236.45 52.021849 
L 238.5 62.621256 
L 240.55 75.323866 
L 244.65 102.609719 
L 246.7 115.159697 
L 248.75 125.727761 
L 250.8 133.562783 
L 252.85 138.23642 
L 254.9 139.653862 
L 256.95 138.055703 
L 259 133.992044 
L 261.05 128.22648 
L 265.15 115.055702 
L 267.2 109.242733 
L 269.25 104.729998 
L 271.3 101.815102 
L 273.35 100.548606 
L 275.4 100.757832 
L 277.45 102.112209 
L 279.5 104.186266 
L 283.6 108.833986 
L 285.65 110.773973 
L 287.7 112.233841 
L 289.75 113.197614 
L 291.8 113.742727 
L 293.85 113.996414 
L 297.95 114.115985 
L 316.4 114.026277 
L 349.2 114.005494 
L 349.2 114.005494 
" clip-path="url(#pea23b98691)" style="fill: none; stroke: #1f77b4; stroke-width: 1.5; stroke-linecap: square"/>
   </g>
   <g id="line2d_15">
    <path d="M 56.05 114.005959 
L 156.5 114.006152 
L 166.75 113.954708 
L 168.8 113.818841 
L 170.85 113.485231 
L 172.9 112.824672 
L 174.95 111.725342 
L 177 110.154999 
L 181.1 106.377061 
L 183.15 105.179956 
L 185.2 105.398235 
L 187.25 107.733661 
L 189.3 112.656059 
L 191.35 120.234232 
L 193.4 130.022867 
L 197.5 151.837745 
L 199.55 160.67894 
L 201.6 165.792316 
L 203.65 165.662192 
L 205.7 159.312402 
L 207.75 146.535931 
L 209.8 128.017893 
L 211.85 105.334426 
L 215.95 57.237588 
L 218 37.541264 
L 220.05 24.352889 
L 222.1 19.635335 
L 224.15 24.283386 
L 226.2 37.711824 
L 228.25 57.905943 
L 232.35 106.182203 
L 234.4 127.80609 
L 236.45 144.196161 
L 238.5 153.967455 
L 240.55 159.202751 
L 242.6 159.737013 
L 244.65 155.762538 
L 246.7 148.003178 
L 248.75 137.59431 
L 252.85 114.368579 
L 254.9 104.240361 
L 256.95 96.492402 
L 259 91.685742 
L 261.05 89.940364 
L 263.1 90.967197 
L 265.15 94.157122 
L 267.2 98.709096 
L 271.3 108.584667 
L 273.35 112.567459 
L 275.4 115.393045 
L 277.45 116.989181 
L 279.5 117.502048 
L 281.55 117.223997 
L 283.6 116.504275 
L 287.7 114.930459 
L 289.75 114.419791 
L 291.8 114.13995 
L 295.9 114.007359 
L 349.2 114.006065 
L 349.2 114.006065 
" clip-path="url(#pea23b98691)" style="fill: none; stroke: #ff7f0e; stroke-width: 1.5; stroke-linecap: square"/>
   </g>
   <g id="patch_3">
    <path d="M 56.05 174.2 
L 56.05 10.8 
" style="fill: none; stroke: #000000; stroke-width: 0.8; stroke-linejoin: miter; stroke-linecap: square"/>
   </g>
   <g id="patch_4">
    <path d="M 56.05 174.2 
L 349.2 174.2 
" style="fill: none; stroke: #000000; stroke-width: 0.8; stroke-linejoin: miter; stroke-linecap: square"/>
   </g>
   <g id="legend_1">
    <g id="line2d_16">
     <path d="M 65.05 23.898438 
L 75.05 23.898438 
L 85.05 23.898438 
" style="fill: none; stroke: #1f77b4; stroke-width: 1.5; stroke-linecap: square"/>
    </g>
    <g id="text_16">
     <!-- Node count/high surprisal -->
     <g transform="translate(93.05 27.398438)scale(0.1 -0.1)">
      <defs>
       <path id="DejaVuSans-4e" d="M 628 4666 
L 1478 4666 
L 3547 763 
L 3547 4666 
L 4159 4666 
L 4159 0 
L 3309 0 
L 1241 3903 
L 1241 0 
L 628 0 
L 628 4666 
z
" transform="scale(0.015625)"/>
       <path id="DejaVuSans-64" d="M 2906 2969 
L 2906 4863 
L 3481 4863 
L 3481 0 
L 2906 0 
L 2906 525 
Q 2725 213 2448 61 
Q 2172 -91 1784 -91 
Q 1150 -91 751 415 
Q 353 922 353 1747 
Q 353 2572 751 3078 
Q 1150 3584 1784 3584 
Q 2172 3584 2448 3432 
Q 2725 3281 2906 2969 
z
M 947 1747 
Q 947 1113 1208 752 
Q 1469 391 1925 391 
Q 2381 391 2643 752 
Q 2906 1113 2906 1747 
Q 2906 2381 2643 2742 
Q 2381 3103 1925 3103 
Q 1469 3103 1208 2742 
Q 947 2381 947 1747 
z
" transform="scale(0.015625)"/>
       <path id="DejaVuSans-63" d="M 3122 3366 
L 3122 2828 
Q 2878 2963 2633 3030 
Q 2388 3097 2138 3097 
Q 1578 3097 1268 2742 
Q 959 2388 959 1747 
Q 959 1106 1268 751 
Q 1578 397 2138 397 
Q 2388 397 2633 464 
Q 2878 531 3122 666 
L 3122 134 
Q 2881 22 2623 -34 
Q 2366 -91 2075 -91 
Q 1284 -91 818 406 
Q 353 903 353 1747 
Q 353 2603 823 3093 
Q 1294 3584 2113 3584 
Q 2378 3584 2631 3529 
Q 2884 3475 3122 3366 
z
" transform="scale(0.015625)"/>
       <path id="DejaVuSans-6e" d="M 3513 2113 
L 3513 0 
L 2938 0 
L 2938 2094 
Q 2938 2591 2744 2837 
Q 2550 3084 2163 3084 
Q 1697 3084 1428 2787 
Q 1159 2491 1159 1978 
L 1159 0 
L 581 0 
L 581 3500 
L 1159 3500 
L 1159 2956 
Q 1366 3272 1645 3428 
Q 1925 3584 2291 3584 
Q 2894 3584 3203 3211 
Q 3513 2838 3513 2113 
z
" transform="scale(0.015625)"/>
       <path id="DejaVuSans-74" d="M 1172 4494 
L 1172 3500 
L 2356 3500 
L 2356 3053 
L 1172 3053 
L 1172 1153 
Q 1172 725 1289 603 
Q 1406 481 1766 481 
L 2356 481 
L 2356 0 
L 1766 0 
Q 1100 0 847 248 
Q 594 497 594 1153 
L 594 3053 
L 172 3053 
L 172 3500 
L 594 3500 
L 594 4494 
L 1172 4494 
z
" transform="scale(0.015625)"/>
       <path id="DejaVuSans-2f" d="M 1625 4666 
L 2156 4666 
L 531 -594 
L 0 -594 
L 1625 4666 
z
" transform="scale(0.015625)"/>
       <path id="DejaVuSans-68" d="M 3513 2113 
L 3513 0 
L 2938 0 
L 2938 2094 
Q 2938 2591 2744 2837 
Q 2550 3084 2163 3084 
Q 1697 3084 1428 2787 
Q 1159 2491 1159 1978 
L 1159 0 
L 581 0 
L 581 4863 
L 1159 4863 
L 1159 2956 
Q 1366 3272 1645 3428 
Q 1925 3584 2291 3584 
Q 2894 3584 3203 3211 
Q 3513 2838 3513 2113 
z
" transform="scale(0.015625)"/>
       <path id="DejaVuSans-67" d="M 2906 1791 
Q 2906 2416 2648 2759 
Q 2391 3103 1925 3103 
Q 1463 3103 1205 2759 
Q 947 2416 947 1791 
Q 947 1169 1205 825 
Q 1463 481 1925 481 
Q 2391 481 2648 825 
Q 2906 1169 2906 1791 
z
M 3481 434 
Q 3481 -459 3084 -895 
Q 2688 -1331 1869 -1331 
Q 1566 -1331 1297 -1286 
Q 1028 -1241 775 -1147 
L 775 -588 
Q 1028 -725 1275 -790 
Q 1522 -856 1778 -856 
Q 2344 -856 2625 -561 
Q 2906 -266 2906 331 
L 2906 616 
Q 2728 306 2450 153 
Q 2172 0 1784 0 
Q 1141 0 747 490 
Q 353 981 353 1791 
Q 353 2603 747 3093 
Q 1141 3584 1784 3584 
Q 2172 3584 2450 3431 
Q 2728 3278 2906 2969 
L 2906 3500 
L 3481 3500 
L 3481 434 
z
" transform="scale(0.015625)"/>
       <path id="DejaVuSans-72" d="M 2631 2963 
Q 2534 3019 2420 3045 
Q 2306 3072 2169 3072 
Q 1681 3072 1420 2755 
Q 1159 2438 1159 1844 
L 1159 0 
L 581 0 
L 581 3500 
L 1159 3500 
L 1159 2956 
Q 1341 3275 1631 3429 
Q 1922 3584 2338 3584 
Q 2397 3584 2469 3576 
Q 2541 3569 2628 3553 
L 2631 2963 
z
" transform="scale(0.015625)"/>
       <path id="DejaVuSans-70" d="M 1159 525 
L 1159 -1331 
L 581 -1331 
L 581 3500 
L 1159 3500 
L 1159 2969 
Q 1341 3281 1617 3432 
Q 1894 3584 2278 3584 
Q 2916 3584 3314 3078 
Q 3713 2572 3713 1747 
Q 3713 922 3314 415 
Q 2916 -91 2278 -91 
Q 1894 -91 1617 61 
Q 1341 213 1159 525 
z
M 3116 1747 
Q 3116 2381 2855 2742 
Q 2594 3103 2138 3103 
Q 1681 3103 1420 2742 
Q 1159 2381 1159 1747 
Q 1159 1113 1420 752 
Q 1681 391 2138 391 
Q 2594 391 2855 752 
Q 3116 1113 3116 1747 
z
" transform="scale(0.015625)"/>
       <path id="DejaVuSans-6c" d="M 603 4863 
L 1178 4863 
L 1178 0 
L 603 0 
L 603 4863 
z
" transform="scale(0.015625)"/>
      </defs>
      <use xlink:href="#DejaVuSans-4e"/>
      <use xlink:href="#DejaVuSans-6f" x="74.804688"/>
      <use xlink:href="#DejaVuSans-64" x="135.986328"/>
      <use xlink:href="#DejaVuSans-65" x="199.462891"/>
      <use xlink:href="#DejaVuSans-20" x="260.986328"/>
      <use xlink:href="#DejaVuSans-63" x="292.773438"/>
      <use xlink:href="#DejaVuSans-6f" x="347.753906"/>
      <use xlink:href="#DejaVuSans-75" x="408.935547"/>
      <use xlink:href="#DejaVuSans-6e" x="472.314453"/>
      <use xlink:href="#DejaVuSans-74" x="535.693359"/>
      <use xlink:href="#DejaVuSans-2f" x="574.902344"/>
      <use xlink:href="#DejaVuSans-68" x="608.59375"/>
      <use xlink:href="#DejaVuSans-69" x="671.972656"/>
      <use xlink:href="#DejaVuSans-67" x="699.755859"/>
      <use xlink:href="#DejaVuSans-68" x="763.232422"/>
      <use xlink:href="#DejaVuSans-20" x="826.611328"/>
      <use xlink:href="#DejaVuSans-73" x="858.398438"/>
      <use xlink:href="#DejaVuSans-75" x="910.498047"/>
      <use xlink:href="#DejaVuSans-72" x="973.876953"/>
      <use xlink:href="#DejaVuSans-70" x="1014.990234"/>
      <use xlink:href="#DejaVuSans-72" x="1078.466797"/>
      <use xlink:href="#DejaVuSans-69" x="1119.580078"/>
      <use xlink:href="#DejaVuSans-73" x="1147.363281"/>
      <use xlink:href="#DejaVuSans-61" x="1199.462891"/>
      <use xlink:href="#DejaVuSans-6c" x="1260.742188"/>
     </g>
    </g>
    <g id="line2d_17">
     <path d="M 65.05 38.576563 
L 75.05 38.576563 
L 85.05 38.576563 
" style="fill: none; stroke: #ff7f0e; stroke-width: 1.5; stroke-linecap: square"/>
    </g>
    <g id="text_17">
     <!-- Node count/low surprisal -->
     <g transform="translate(93.05 42.076563)scale(0.1 -0.1)">
      <defs>
       <path id="DejaVuSans-77" d="M 269 3500 
L 844 3500 
L 1563 769 
L 2278 3500 
L 2956 3500 
L 3675 769 
L 4391 3500 
L 4966 3500 
L 4050 0 
L 3372 0 
L 2619 2869 
L 1863 0 
L 1184 0 
L 269 3500 
z
" transform="scale(0.015625)"/>
      </defs>
      <use xlink:href="#DejaVuSans-4e"/>
      <use xlink:href="#DejaVuSans-6f" x="74.804688"/>
      <use xlink:href="#DejaVuSans-64" x="135.986328"/>
      <use xlink:href="#DejaVuSans-65" x="199.462891"/>
      <use xlink:href="#DejaVuSans-20" x="260.986328"/>
      <use xlink:href="#DejaVuSans-63" x="292.773438"/>
      <use xlink:href="#DejaVuSans-6f" x="347.753906"/>
      <use xlink:href="#DejaVuSans-75" x="408.935547"/>
      <use xlink:href="#DejaVuSans-6e" x="472.314453"/>
      <use xlink:href="#DejaVuSans-74" x="535.693359"/>
      <use xlink:href="#DejaVuSans-2f" x="574.902344"/>
      <use xlink:href="#DejaVuSans-6c" x="608.59375"/>
      <use xlink:href="#DejaVuSans-6f" x="636.376953"/>
      <use xlink:href="#DejaVuSans-77" x="697.558594"/>
      <use xlink:href="#DejaVuSans-20" x="779.345703"/>
      <use xlink:href="#DejaVuSans-73" x="811.132812"/>
      <use xlink:href="#DejaVuSans-75" x="863.232422"/>
      <use xlink:href="#DejaVuSans-72" x="926.611328"/>
      <use xlink:href="#DejaVuSans-70" x="967.724609"/>
      <use xlink:href="#DejaVuSans-72" x="1031.201172"/>
      <use xlink:href="#DejaVuSans-69" x="1072.314453"/>
      <use xlink:href="#DejaVuSans-73" x="1100.097656"/>
      <use xlink:href="#DejaVuSans-61" x="1152.197266"/>
      <use xlink:href="#DejaVuSans-6c" x="1213.476562"/>
     </g>
    </g>
   </g>
  </g>
 </g>
 <defs>
  <clipPath id="pea23b98691">
   <rect x="56.05" y="10.8" width="293.15" height="163.4"/>
  </clipPath>
 </defs>
</svg>
