<?xml version="1.0" encoding="utf-8" standalone="no"?>
<!DOCTYPE svg PUBLIC "-//W3C//DTD SVG 1.1//EN"
  "http://www.w3.org/Graphics/SVG/1.1/DTD/svg11.dtd">
<svg xmlns:xlink="http://www.w3.org/1999/xlink" width="360pt" height="216pt" viewBox="0 0 360 216" xmlns="http://www.w3.org/2000/svg" version="1.1">
 <metadata>
  <rdf:RDF xmlns:dc="http://purl.org/dc/elements/1.1/" xmlns:cc="http://creativecommons.org/ns#" xmlns:rdf="http://www.w3.org/1999/02/22-rdf-syntax-ns#">
   <cc:Work>
    <dc:type rdf:resource="http://purl.org/dc/dcmitype/StillImage"/>
    <dc:date>2024-01-26T17:43:43.771305</dc:date>
    <dc:format>image/svg+xml</dc:format>
    <dc:creator>
     <cc:Agent>
      <dc:title>Matplotlib v3.5.1, https://matplotlib.org/</dc:title>
     </cc:Agent>
    </dc:creator>
   </cc:Work>
  </rdf:RDF>
 </metadata>
 <defs>
  <style type="text/css">*{stroke-linejoin: round; stroke-linecap: butt}</style>
 </defs>
 <g id="figure_1">
  <g id="patch_1">
   <path d="M 0 216 
L 360 216 
L 360 0 
L 0 0 
z
" style="fill: #ffffff"/>
  </g>
  <g id="axes_1">
   <g id="patch_2">
    <path d="M 56.05 174.2 
L 349.2 174.2 
L 349.2 10.8 
L 56.05 10.8 
z
" style="fill: #ffffff"/>
   </g>
   <g id="PolyCollection_1">
    <path d="M 56.05 113.116986 
L 56.05 113.279253 
L 58.1 113.265625 
L 60.15 113.25397 
L 62.2 113.243978 
L 64.25 113.236001 
L 66.3 113.230249 
L 68.35 113.226639 
L 70.4 113.22443 
L 72.45 113.222558 
L 74.5 113.22023 
L 76.55 113.217298 
L 78.6 113.214091 
L 80.65 113.211153 
L 82.7 113.209 
L 84.75 113.207769 
L 86.8 113.207089 
L 88.85 113.206443 
L 90.9 113.205541 
L 92.95 113.204364 
L 95 113.203049 
L 97.05 113.201802 
L 99.1 113.200823 
L 101.15 113.200222 
L 103.2 113.199918 
L 105.25 113.199794 
L 107.3 113.199301 
L 109.35 113.199066 
L 111.4 113.199033 
L 113.45 113.199011 
L 115.5 113.198915 
L 117.55 113.198756 
L 119.6 113.19858 
L 121.65 113.198432 
L 123.7 113.198336 
L 125.75 113.19829 
L 127.8 113.19827 
L 129.85 113.198262 
L 131.9 113.19826 
L 133.95 113.19826 
L 136 113.19826 
L 138.05 113.19826 
L 140.1 113.19826 
L 142.15 113.19826 
L 144.2 113.19826 
L 146.25 113.19826 
L 148.3 113.19826 
L 150.35 113.19826 
L 152.4 113.19826 
L 154.45 113.19826 
L 156.5 113.19826 
L 158.55 113.19826 
L 160.6 113.19826 
L 162.65 113.19826 
L 164.7 113.19826 
L 166.75 113.19826 
L 168.8 113.19826 
L 170.85 113.197191 
L 172.9 113.167252 
L 174.95 112.98226 
L 177 112.462285 
L 179.05 111.467479 
L 181.1 109.988357 
L 183.15 108.207899 
L 185.2 106.519952 
L 187.25 105.512058 
L 189.3 105.93939 
L 191.35 108.422306 
L 193.4 113.18658 
L 195.45 120.127873 
L 197.5 128.736513 
L 199.55 138.091098 
L 201.6 146.942218 
L 203.65 153.882754 
L 205.7 157.590671 
L 207.75 157.144354 
L 209.8 152.097249 
L 211.85 142.217159 
L 213.9 127.852844 
L 215.95 110.129206 
L 218 90.787868 
L 220.05 71.974341 
L 222.1 55.960568 
L 224.15 44.858023 
L 226.2 40.378704 
L 228.25 43.632366 
L 230.3 54.684524 
L 232.35 71.24503 
L 234.4 88.281178 
L 236.45 104.789011 
L 238.5 119.692576 
L 240.55 132.038427 
L 242.6 141.069157 
L 244.65 146.318777 
L 246.7 147.728738 
L 248.75 145.643277 
L 250.8 140.69626 
L 252.85 133.683756 
L 254.9 125.529085 
L 256.95 117.213538 
L 259 109.664539 
L 261.05 103.611594 
L 263.1 99.524185 
L 265.15 97.565938 
L 267.2 97.61359 
L 269.25 99.291265 
L 271.3 102.045041 
L 273.35 105.253452 
L 275.4 108.367935 
L 277.45 110.992445 
L 279.5 112.910369 
L 281.55 114.082861 
L 283.6 114.610426 
L 285.65 114.677063 
L 287.7 114.490305 
L 289.75 114.225281 
L 291.8 113.985787 
L 293.85 113.796363 
L 295.9 113.65168 
L 297.95 113.542863 
L 300 113.461227 
L 302.05 113.437894 
L 304.1 113.384963 
L 306.15 113.343901 
L 308.2 113.312851 
L 310.25 113.289898 
L 312.3 113.273494 
L 314.35 113.262317 
L 316.4 113.254277 
L 318.45 113.247596 
L 320.5 113.241294 
L 322.55 113.234972 
L 324.6 113.228773 
L 326.65 113.223159 
L 328.7 113.218673 
L 330.75 113.215673 
L 332.8 113.213974 
L 334.85 113.212942 
L 336.9 113.211979 
L 338.95 113.210777 
L 341 113.209297 
L 343.05 113.207643 
L 345.1 113.205949 
L 347.15 113.204328 
L 349.2 113.202865 
L 349.2 113.193677 
L 349.2 113.193677 
L 347.15 113.192012 
L 345.1 113.190157 
L 343.05 113.188226 
L 341 113.186375 
L 338.95 113.184787 
L 336.9 113.18361 
L 334.85 113.18284 
L 332.8 113.182209 
L 330.75 113.181146 
L 328.7 113.179064 
L 326.65 113.175844 
L 324.6 113.171932 
L 322.55 113.168053 
L 320.5 113.164902 
L 318.45 113.162959 
L 316.4 113.162232 
L 314.35 113.162196 
L 312.3 113.161489 
L 310.25 113.159577 
L 308.2 113.157571 
L 306.15 113.156653 
L 304.1 113.159179 
L 302.05 113.168141 
L 300 113.235715 
L 297.95 113.280566 
L 295.9 113.348375 
L 293.85 113.445248 
L 291.8 113.577344 
L 289.75 113.746758 
L 287.7 113.923543 
L 285.65 113.998805 
L 283.6 113.793517 
L 281.55 113.10422 
L 279.5 111.761805 
L 277.45 109.691171 
L 275.4 106.957482 
L 273.35 103.790124 
L 271.3 100.565879 
L 269.25 97.766635 
L 267.2 95.919633 
L 265.15 95.545211 
L 263.1 97.074979 
L 261.05 100.734271 
L 259 106.459559 
L 256.95 113.857634 
L 254.9 122.213188 
L 252.85 130.554847 
L 250.8 137.732699 
L 248.75 142.613042 
L 246.7 144.250294 
L 244.65 142.095257 
L 242.6 136.007288 
L 240.55 126.238831 
L 238.5 113.38917 
L 236.45 98.303466 
L 234.4 81.969311 
L 232.35 65.348208 
L 230.3 49.467884 
L 228.25 39.221205 
L 226.2 35.69264 
L 224.15 39.191265 
L 222.1 49.317522 
L 220.05 64.771782 
L 218 83.605785 
L 215.95 103.547581 
L 213.9 122.339755 
L 211.85 138.024106 
L 209.8 149.145599 
L 207.75 154.851231 
L 205.7 155.106965 
L 203.65 150.896126 
L 201.6 143.627524 
L 199.55 134.77819 
L 197.5 125.747061 
L 195.45 117.69978 
L 193.4 111.436737 
L 191.35 107.331072 
L 189.3 105.327289 
L 187.25 105.01265 
L 185.2 105.92517 
L 183.15 107.579013 
L 181.1 109.429993 
L 179.05 111.048599 
L 177 112.201281 
L 174.95 112.85484 
L 172.9 113.125353 
L 170.85 113.191566 
L 168.8 113.19826 
L 166.75 113.19826 
L 164.7 113.19826 
L 162.65 113.19826 
L 160.6 113.19826 
L 158.55 113.19826 
L 156.5 113.19826 
L 154.45 113.19826 
L 152.4 113.19826 
L 150.35 113.19826 
L 148.3 113.19826 
L 146.25 113.19826 
L 144.2 113.19826 
L 142.15 113.19826 
L 140.1 113.19826 
L 138.05 113.19826 
L 136 113.19826 
L 133.95 113.19826 
L 131.9 113.19826 
L 129.85 113.198258 
L 127.8 113.19825 
L 125.75 113.198232 
L 123.7 113.198192 
L 121.65 113.198107 
L 119.6 113.197975 
L 117.55 113.197819 
L 115.5 113.197681 
L 113.45 113.197604 
L 111.4 113.197597 
L 109.35 113.197565 
L 107.3 113.197305 
L 105.25 113.196755 
L 103.2 113.196533 
L 101.15 113.19622 
L 99.1 113.195616 
L 97.05 113.194647 
L 95 113.193431 
L 92.95 113.192176 
L 90.9 113.191094 
L 88.85 113.19033 
L 86.8 113.189856 
L 84.75 113.189364 
L 82.7 113.188311 
L 80.65 113.186293 
L 78.6 113.183396 
L 76.55 113.180031 
L 74.5 113.176676 
L 72.45 113.173635 
L 70.4 113.170777 
L 68.35 113.167523 
L 66.3 113.163051 
L 64.25 113.156713 
L 62.2 113.148624 
L 60.15 113.139223 
L 58.1 113.128709 
L 56.05 113.116986 
z
" clip-path="url(#pdd3bdda35f)" style="fill: #1f77b4; fill-opacity: 0.6"/>
   </g>
   <g id="PolyCollection_2">
    <path d="M 56.05 113.113246 
L 56.05 113.286252 
L 58.1 113.273654 
L 60.15 113.261425 
L 62.2 113.249913 
L 64.25 113.239937 
L 66.3 113.232117 
L 68.35 113.22729 
L 70.4 113.224943 
L 72.45 113.223511 
L 74.5 113.221833 
L 76.55 113.219388 
L 78.6 113.216274 
L 80.65 113.21295 
L 82.7 113.210028 
L 84.75 113.208067 
L 86.8 113.207212 
L 88.85 113.206989 
L 90.9 113.206772 
L 92.95 113.206234 
L 95 113.20534 
L 97.05 113.204209 
L 99.1 113.202999 
L 101.15 113.201848 
L 103.2 113.200848 
L 105.25 113.198794 
L 107.3 113.198669 
L 109.35 113.198526 
L 111.4 113.198401 
L 113.45 113.198313 
L 115.5 113.19827 
L 117.55 113.19826 
L 119.6 113.19826 
L 121.65 113.19826 
L 123.7 113.19826 
L 125.75 113.19826 
L 127.8 113.19826 
L 129.85 113.19826 
L 131.9 113.19826 
L 133.95 113.19826 
L 136 113.19826 
L 138.05 113.19826 
L 140.1 113.19826 
L 142.15 113.19826 
L 144.2 113.19826 
L 146.25 113.19826 
L 148.3 113.19826 
L 150.35 113.19826 
L 152.4 113.19826 
L 154.45 113.19826 
L 156.5 113.19826 
L 158.55 113.198312 
L 160.6 113.198138 
L 162.65 113.190677 
L 164.7 113.135027 
L 166.75 112.92169 
L 168.8 112.367049 
L 170.85 111.264244 
L 172.9 109.507107 
L 174.95 107.267126 
L 177 105.038828 
L 179.05 103.595815 
L 181.1 103.941274 
L 183.15 106.857389 
L 185.2 112.673604 
L 187.25 121.287929 
L 189.3 132.033546 
L 191.35 143.682872 
L 193.4 154.572204 
L 195.45 162.834467 
L 197.5 166.772727 
L 199.55 165.419932 
L 201.6 157.813861 
L 203.65 143.659544 
L 205.7 123.823714 
L 207.75 100.114833 
L 209.8 75.076696 
L 211.85 51.675398 
L 213.9 32.911468 
L 215.95 21.453298 
L 218 19.617721 
L 220.05 28.376438 
L 222.1 46.264192 
L 224.15 70.323944 
L 226.2 96.166129 
L 228.25 119.527979 
L 230.3 137.291515 
L 232.35 148.867812 
L 234.4 156.506326 
L 236.45 159.583693 
L 238.5 158.315322 
L 240.55 152.866998 
L 242.6 143.933159 
L 244.65 132.759891 
L 246.7 120.797 
L 248.75 109.474992 
L 250.8 100.012308 
L 252.85 93.270669 
L 254.9 89.68485 
L 256.95 89.362511 
L 259 91.823027 
L 261.05 96.078826 
L 263.1 101.208554 
L 265.15 106.351612 
L 267.2 110.81055 
L 269.25 114.133363 
L 271.3 116.1467 
L 273.35 116.94273 
L 275.4 116.846251 
L 277.45 116.166578 
L 279.5 115.231969 
L 281.55 114.353404 
L 283.6 113.716078 
L 285.65 113.361735 
L 287.7 113.225069 
L 289.75 113.198982 
L 291.8 113.19826 
L 293.85 113.19826 
L 295.9 113.19826 
L 297.95 113.19826 
L 300 113.19826 
L 302.05 113.262806 
L 304.1 113.253859 
L 306.15 113.245341 
L 308.2 113.237514 
L 310.25 113.230734 
L 312.3 113.225493 
L 314.35 113.222142 
L 316.4 113.220132 
L 318.45 113.21852 
L 320.5 113.216617 
L 322.55 113.214182 
L 324.6 113.211405 
L 326.65 113.208704 
L 328.7 113.206545 
L 330.75 113.205261 
L 332.8 113.204733 
L 334.85 113.204479 
L 336.9 113.204106 
L 338.95 113.20348 
L 341 113.202657 
L 343.05 113.20177 
L 345.1 113.200954 
L 347.15 113.200309 
L 349.2 113.199855 
L 349.2 113.196657 
L 349.2 113.196657 
L 347.15 113.196142 
L 345.1 113.195421 
L 343.05 113.194519 
L 341 113.193541 
L 338.95 113.192634 
L 336.9 113.191939 
L 334.85 113.191517 
L 332.8 113.191241 
L 330.75 113.190725 
L 328.7 113.189492 
L 326.65 113.187424 
L 324.6 113.184856 
L 322.55 113.182305 
L 320.5 113.18022 
L 318.45 113.178811 
L 316.4 113.177805 
L 314.35 113.17634 
L 312.3 113.173206 
L 310.25 113.167851 
L 308.2 113.160668 
L 306.15 113.152088 
L 304.1 113.142733 
L 302.05 113.132762 
L 300 113.19826 
L 297.95 113.19826 
L 295.9 113.19826 
L 293.85 113.19826 
L 291.8 113.19826 
L 289.75 113.19783 
L 287.7 113.215438 
L 285.65 113.323064 
L 283.6 113.627428 
L 281.55 114.208473 
L 279.5 115.049288 
L 277.45 115.989702 
L 275.4 116.727218 
L 273.35 116.823858 
L 271.3 115.845397 
L 269.25 113.594103 
L 267.2 110.040469 
L 265.15 105.41127 
L 263.1 100.207232 
L 261.05 95.160231 
L 259 91.136683 
L 256.95 88.980291 
L 254.9 89.206294 
L 252.85 92.28358 
L 250.8 98.485877 
L 248.75 107.506523 
L 246.7 118.568874 
L 244.65 130.51238 
L 242.6 141.929603 
L 240.55 151.34888 
L 238.5 157.42278 
L 236.45 158.966548 
L 234.4 155.28237 
L 232.35 146.902731 
L 230.3 134.649428 
L 228.25 115.48679 
L 226.2 91.22899 
L 224.15 65.349724 
L 222.1 42.154919 
L 220.05 25.673881 
L 218 18.227273 
L 215.95 19.748998 
L 213.9 29.925507 
L 211.85 47.617291 
L 209.8 70.420089 
L 207.75 95.399362 
L 205.7 119.558165 
L 203.65 140.249432 
L 201.6 155.496053 
L 199.55 164.181313 
L 197.5 165.928671 
L 195.45 161.413992 
L 193.4 152.606146 
L 191.35 141.467236 
L 189.3 129.878905 
L 187.25 119.448242 
L 185.2 111.30738 
L 183.15 106.008937 
L 181.1 103.523585 
L 179.05 103.299933 
L 177 104.625865 
L 174.95 106.805205 
L 172.9 109.097894 
L 170.85 110.968284 
L 168.8 112.191557 
L 166.75 112.836305 
L 164.7 113.102192 
L 162.65 113.181534 
L 160.6 113.196655 
L 158.55 113.198184 
L 156.5 113.19826 
L 154.45 113.19826 
L 152.4 113.19826 
L 150.35 113.19826 
L 148.3 113.19826 
L 146.25 113.19826 
L 144.2 113.19826 
L 142.15 113.19826 
L 140.1 113.19826 
L 138.05 113.19826 
L 136 113.19826 
L 133.95 113.19826 
L 131.9 113.19826 
L 129.85 113.19826 
L 127.8 113.19826 
L 125.75 113.19826 
L 123.7 113.19826 
L 121.65 113.19826 
L 119.6 113.19826 
L 117.55 113.19826 
L 115.5 113.198251 
L 113.45 113.198211 
L 111.4 113.198132 
L 109.35 113.19802 
L 107.3 113.197896 
L 105.25 113.197791 
L 103.2 113.195751 
L 101.15 113.194895 
L 99.1 113.193914 
L 97.05 113.192888 
L 95 113.191932 
L 92.95 113.191171 
L 90.9 113.190696 
L 88.85 113.190461 
L 86.8 113.190127 
L 84.75 113.189068 
L 82.7 113.186821 
L 80.65 113.183564 
L 78.6 113.179894 
L 76.55 113.176414 
L 74.5 113.173565 
L 72.45 113.171433 
L 70.4 113.169549 
L 68.35 113.166955 
L 66.3 113.162465 
L 64.25 113.155496 
L 62.2 113.146624 
L 60.15 113.13639 
L 58.1 113.125152 
L 56.05 113.113246 
z
" clip-path="url(#pdd3bdda35f)" style="fill: #ff7f0e; fill-opacity: 0.6"/>
   </g>
   <g id="matplotlib.axis_1">
    <g id="xtick_1">
     <g id="line2d_1">
      <defs>
       <path id="mb6b6a3ded5" d="M 0 0 
L 0 3.5 
" style="stroke: #000000; stroke-width: 0.8"/>
      </defs>
      <g>
       <use xlink:href="#mb6b6a3ded5" x="56.05" y="174.2" style="stroke: #000000; stroke-width: 0.8"/>
      </g>
     </g>
     <g id="text_1">
      <!-- −0.2 -->
      <g transform="translate(43.908594 188.798438)scale(0.1 -0.1)">
       <defs>
        <path id="DejaVuSans-2212" d="M 678 2272 
L 4684 2272 
L 4684 1741 
L 678 1741 
L 678 2272 
z
" transform="scale(0.015625)"/>
        <path id="DejaVuSans-30" d="M 2034 4250 
Q 1547 4250 1301 3770 
Q 1056 3291 1056 2328 
Q 1056 1369 1301 889 
Q 1547 409 2034 409 
Q 2525 409 2770 889 
Q 3016 1369 3016 2328 
Q 3016 3291 2770 3770 
Q 2525 4250 2034 4250 
z
M 2034 4750 
Q 2819 4750 3233 4129 
Q 3647 3509 3647 2328 
Q 3647 1150 3233 529 
Q 2819 -91 2034 -91 
Q 1250 -91 836 529 
Q 422 1150 422 2328 
Q 422 3509 836 4129 
Q 1250 4750 2034 4750 
z
" transform="scale(0.015625)"/>
        <path id="DejaVuSans-2e" d="M 684 794 
L 1344 794 
L 1344 0 
L 684 0 
L 684 794 
z
" transform="scale(0.015625)"/>
        <path id="DejaVuSans-32" d="M 1228 531 
L 3431 531 
L 3431 0 
L 469 0 
L 469 531 
Q 828 903 1448 1529 
Q 2069 2156 2228 2338 
Q 2531 2678 2651 2914 
Q 2772 3150 2772 3378 
Q 2772 3750 2511 3984 
Q 2250 4219 1831 4219 
Q 1534 4219 1204 4116 
Q 875 4013 500 3803 
L 500 4441 
Q 881 4594 1212 4672 
Q 1544 4750 1819 4750 
Q 2544 4750 2975 4387 
Q 3406 4025 3406 3419 
Q 3406 3131 3298 2873 
Q 3191 2616 2906 2266 
Q 2828 2175 2409 1742 
Q 1991 1309 1228 531 
z
" transform="scale(0.015625)"/>
       </defs>
       <use xlink:href="#DejaVuSans-2212"/>
       <use xlink:href="#DejaVuSans-30" x="83.789062"/>
       <use xlink:href="#DejaVuSans-2e" x="147.412109"/>
       <use xlink:href="#DejaVuSans-32" x="179.199219"/>
      </g>
     </g>
    </g>
    <g id="xtick_2">
     <g id="line2d_2">
      <g>
       <use xlink:href="#mb6b6a3ded5" x="105.25" y="174.2" style="stroke: #000000; stroke-width: 0.8"/>
      </g>
     </g>
     <g id="text_2">
      <!-- 0.0 -->
      <g transform="translate(97.298438 188.798438)scale(0.1 -0.1)">
       <use xlink:href="#DejaVuSans-30"/>
       <use xlink:href="#DejaVuSans-2e" x="63.623047"/>
       <use xlink:href="#DejaVuSans-30" x="95.410156"/>
      </g>
     </g>
    </g>
    <g id="xtick_3">
     <g id="line2d_3">
      <g>
       <use xlink:href="#mb6b6a3ded5" x="154.45" y="174.2" style="stroke: #000000; stroke-width: 0.8"/>
      </g>
     </g>
     <g id="text_3">
      <!-- 0.2 -->
      <g transform="translate(146.498437 188.798438)scale(0.1 -0.1)">
       <use xlink:href="#DejaVuSans-30"/>
       <use xlink:href="#DejaVuSans-2e" x="63.623047"/>
       <use xlink:href="#DejaVuSans-32" x="95.410156"/>
      </g>
     </g>
    </g>
    <g id="xtick_4">
     <g id="line2d_4">
      <g>
       <use xlink:href="#mb6b6a3ded5" x="203.65" y="174.2" style="stroke: #000000; stroke-width: 0.8"/>
      </g>
     </g>
     <g id="text_4">
      <!-- 0.4 -->
      <g transform="translate(195.698438 188.798438)scale(0.1 -0.1)">
       <defs>
        <path id="DejaVuSans-34" d="M 2419 4116 
L 825 1625 
L 2419 1625 
L 2419 4116 
z
M 2253 4666 
L 3047 4666 
L 3047 1625 
L 3713 1625 
L 3713 1100 
L 3047 1100 
L 3047 0 
L 2419 0 
L 2419 1100 
L 313 1100 
L 313 1709 
L 2253 4666 
z
" transform="scale(0.015625)"/>
       </defs>
       <use xlink:href="#DejaVuSans-30"/>
       <use xlink:href="#DejaVuSans-2e" x="63.623047"/>
       <use xlink:href="#DejaVuSans-34" x="95.410156"/>
      </g>
     </g>
    </g>
    <g id="xtick_5">
     <g id="line2d_5">
      <g>
       <use xlink:href="#mb6b6a3ded5" x="252.85" y="174.2" style="stroke: #000000; stroke-width: 0.8"/>
      </g>
     </g>
     <g id="text_5">
      <!-- 0.6 -->
      <g transform="translate(244.898438 188.798438)scale(0.1 -0.1)">
       <defs>
        <path id="DejaVuSans-36" d="M 2113 2584 
Q 1688 2584 1439 2293 
Q 1191 2003 1191 1497 
Q 1191 994 1439 701 
Q 1688 409 2113 409 
Q 2538 409 2786 701 
Q 3034 994 3034 1497 
Q 3034 2003 2786 2293 
Q 2538 2584 2113 2584 
z
M 3366 4563 
L 3366 3988 
Q 3128 4100 2886 4159 
Q 2644 4219 2406 4219 
Q 1781 4219 1451 3797 
Q 1122 3375 1075 2522 
Q 1259 2794 1537 2939 
Q 1816 3084 2150 3084 
Q 2853 3084 3261 2657 
Q 3669 2231 3669 1497 
Q 3669 778 3244 343 
Q 2819 -91 2113 -91 
Q 1303 -91 875 529 
Q 447 1150 447 2328 
Q 447 3434 972 4092 
Q 1497 4750 2381 4750 
Q 2619 4750 2861 4703 
Q 3103 4656 3366 4563 
z
" transform="scale(0.015625)"/>
       </defs>
       <use xlink:href="#DejaVuSans-30"/>
       <use xlink:href="#DejaVuSans-2e" x="63.623047"/>
       <use xlink:href="#DejaVuSans-36" x="95.410156"/>
      </g>
     </g>
    </g>
    <g id="xtick_6">
     <g id="line2d_6">
      <g>
       <use xlink:href="#mb6b6a3ded5" x="302.05" y="174.2" style="stroke: #000000; stroke-width: 0.8"/>
      </g>
     </g>
     <g id="text_6">
      <!-- 0.8 -->
      <g transform="translate(294.098437 188.798438)scale(0.1 -0.1)">
       <defs>
        <path id="DejaVuSans-38" d="M 2034 2216 
Q 1584 2216 1326 1975 
Q 1069 1734 1069 1313 
Q 1069 891 1326 650 
Q 1584 409 2034 409 
Q 2484 409 2743 651 
Q 3003 894 3003 1313 
Q 3003 1734 2745 1975 
Q 2488 2216 2034 2216 
z
M 1403 2484 
Q 997 2584 770 2862 
Q 544 3141 544 3541 
Q 544 4100 942 4425 
Q 1341 4750 2034 4750 
Q 2731 4750 3128 4425 
Q 3525 4100 3525 3541 
Q 3525 3141 3298 2862 
Q 3072 2584 2669 2484 
Q 3125 2378 3379 2068 
Q 3634 1759 3634 1313 
Q 3634 634 3220 271 
Q 2806 -91 2034 -91 
Q 1263 -91 848 271 
Q 434 634 434 1313 
Q 434 1759 690 2068 
Q 947 2378 1403 2484 
z
M 1172 3481 
Q 1172 3119 1398 2916 
Q 1625 2713 2034 2713 
Q 2441 2713 2670 2916 
Q 2900 3119 2900 3481 
Q 2900 3844 2670 4047 
Q 2441 4250 2034 4250 
Q 1625 4250 1398 4047 
Q 1172 3844 1172 3481 
z
" transform="scale(0.015625)"/>
       </defs>
       <use xlink:href="#DejaVuSans-30"/>
       <use xlink:href="#DejaVuSans-2e" x="63.623047"/>
       <use xlink:href="#DejaVuSans-38" x="95.410156"/>
      </g>
     </g>
    </g>
    <g id="text_7">
     <!-- Time (s) -->
     <g transform="translate(182.296094 202.476562)scale(0.1 -0.1)">
      <defs>
       <path id="DejaVuSans-54" d="M -19 4666 
L 3928 4666 
L 3928 4134 
L 2272 4134 
L 2272 0 
L 1638 0 
L 1638 4134 
L -19 4134 
L -19 4666 
z
" transform="scale(0.015625)"/>
       <path id="DejaVuSans-69" d="M 603 3500 
L 1178 3500 
L 1178 0 
L 603 0 
L 603 3500 
z
M 603 4863 
L 1178 4863 
L 1178 4134 
L 603 4134 
L 603 4863 
z
" transform="scale(0.015625)"/>
       <path id="DejaVuSans-6d" d="M 3328 2828 
Q 3544 3216 3844 3400 
Q 4144 3584 4550 3584 
Q 5097 3584 5394 3201 
Q 5691 2819 5691 2113 
L 5691 0 
L 5113 0 
L 5113 2094 
Q 5113 2597 4934 2840 
Q 4756 3084 4391 3084 
Q 3944 3084 3684 2787 
Q 3425 2491 3425 1978 
L 3425 0 
L 2847 0 
L 2847 2094 
Q 2847 2600 2669 2842 
Q 2491 3084 2119 3084 
Q 1678 3084 1418 2786 
Q 1159 2488 1159 1978 
L 1159 0 
L 581 0 
L 581 3500 
L 1159 3500 
L 1159 2956 
Q 1356 3278 1631 3431 
Q 1906 3584 2284 3584 
Q 2666 3584 2933 3390 
Q 3200 3197 3328 2828 
z
" transform="scale(0.015625)"/>
       <path id="DejaVuSans-65" d="M 3597 1894 
L 3597 1613 
L 953 1613 
Q 991 1019 1311 708 
Q 1631 397 2203 397 
Q 2534 397 2845 478 
Q 3156 559 3463 722 
L 3463 178 
Q 3153 47 2828 -22 
Q 2503 -91 2169 -91 
Q 1331 -91 842 396 
Q 353 884 353 1716 
Q 353 2575 817 3079 
Q 1281 3584 2069 3584 
Q 2775 3584 3186 3129 
Q 3597 2675 3597 1894 
z
M 3022 2063 
Q 3016 2534 2758 2815 
Q 2500 3097 2075 3097 
Q 1594 3097 1305 2825 
Q 1016 2553 972 2059 
L 3022 2063 
z
" transform="scale(0.015625)"/>
       <path id="DejaVuSans-20" transform="scale(0.015625)"/>
       <path id="DejaVuSans-28" d="M 1984 4856 
Q 1566 4138 1362 3434 
Q 1159 2731 1159 2009 
Q 1159 1288 1364 580 
Q 1569 -128 1984 -844 
L 1484 -844 
Q 1016 -109 783 600 
Q 550 1309 550 2009 
Q 550 2706 781 3412 
Q 1013 4119 1484 4856 
L 1984 4856 
z
" transform="scale(0.015625)"/>
       <path id="DejaVuSans-73" d="M 2834 3397 
L 2834 2853 
Q 2591 2978 2328 3040 
Q 2066 3103 1784 3103 
Q 1356 3103 1142 2972 
Q 928 2841 928 2578 
Q 928 2378 1081 2264 
Q 1234 2150 1697 2047 
L 1894 2003 
Q 2506 1872 2764 1633 
Q 3022 1394 3022 966 
Q 3022 478 2636 193 
Q 2250 -91 1575 -91 
Q 1294 -91 989 -36 
Q 684 19 347 128 
L 347 722 
Q 666 556 975 473 
Q 1284 391 1588 391 
Q 1994 391 2212 530 
Q 2431 669 2431 922 
Q 2431 1156 2273 1281 
Q 2116 1406 1581 1522 
L 1381 1569 
Q 847 1681 609 1914 
Q 372 2147 372 2553 
Q 372 3047 722 3315 
Q 1072 3584 1716 3584 
Q 2034 3584 2315 3537 
Q 2597 3491 2834 3397 
z
" transform="scale(0.015625)"/>
       <path id="DejaVuSans-29" d="M 513 4856 
L 1013 4856 
Q 1481 4119 1714 3412 
Q 1947 2706 1947 2009 
Q 1947 1309 1714 600 
Q 1481 -109 1013 -844 
L 513 -844 
Q 928 -128 1133 580 
Q 1338 1288 1338 2009 
Q 1338 2731 1133 3434 
Q 928 4138 513 4856 
z
" transform="scale(0.015625)"/>
      </defs>
      <use xlink:href="#DejaVuSans-54"/>
      <use xlink:href="#DejaVuSans-69" x="57.958984"/>
      <use xlink:href="#DejaVuSans-6d" x="85.742188"/>
      <use xlink:href="#DejaVuSans-65" x="183.154297"/>
      <use xlink:href="#DejaVuSans-20" x="244.677734"/>
      <use xlink:href="#DejaVuSans-28" x="276.464844"/>
      <use xlink:href="#DejaVuSans-73" x="315.478516"/>
      <use xlink:href="#DejaVuSans-29" x="367.578125"/>
     </g>
    </g>
   </g>
   <g id="matplotlib.axis_2">
    <g id="ytick_1">
     <g id="line2d_7">
      <defs>
       <path id="m6a2f4b0ed9" d="M 0 0 
L -3.5 0 
" style="stroke: #000000; stroke-width: 0.8"/>
      </defs>
      <g>
       <use xlink:href="#m6a2f4b0ed9" x="56.05" y="156.712464" style="stroke: #000000; stroke-width: 0.8"/>
      </g>
     </g>
     <g id="text_8">
      <!-- −0.4 -->
      <g transform="translate(24.767187 160.511683)scale(0.1 -0.1)">
       <use xlink:href="#DejaVuSans-2212"/>
       <use xlink:href="#DejaVuSans-30" x="83.789062"/>
       <use xlink:href="#DejaVuSans-2e" x="147.412109"/>
       <use xlink:href="#DejaVuSans-34" x="179.199219"/>
      </g>
     </g>
    </g>
    <g id="ytick_2">
     <g id="line2d_8">
      <g>
       <use xlink:href="#m6a2f4b0ed9" x="56.05" y="134.955362" style="stroke: #000000; stroke-width: 0.8"/>
      </g>
     </g>
     <g id="text_9">
      <!-- −0.2 -->
      <g transform="translate(24.767187 138.754581)scale(0.1 -0.1)">
       <use xlink:href="#DejaVuSans-2212"/>
       <use xlink:href="#DejaVuSans-30" x="83.789062"/>
       <use xlink:href="#DejaVuSans-2e" x="147.412109"/>
       <use xlink:href="#DejaVuSans-32" x="179.199219"/>
      </g>
     </g>
    </g>
    <g id="ytick_3">
     <g id="line2d_9">
      <g>
       <use xlink:href="#m6a2f4b0ed9" x="56.05" y="113.19826" style="stroke: #000000; stroke-width: 0.8"/>
      </g>
     </g>
     <g id="text_10">
      <!-- 0.0 -->
      <g transform="translate(33.146875 116.997479)scale(0.1 -0.1)">
       <use xlink:href="#DejaVuSans-30"/>
       <use xlink:href="#DejaVuSans-2e" x="63.623047"/>
       <use xlink:href="#DejaVuSans-30" x="95.410156"/>
      </g>
     </g>
    </g>
    <g id="ytick_4">
     <g id="line2d_10">
      <g>
       <use xlink:href="#m6a2f4b0ed9" x="56.05" y="91.441158" style="stroke: #000000; stroke-width: 0.8"/>
      </g>
     </g>
     <g id="text_11">
      <!-- 0.2 -->
      <g transform="translate(33.146875 95.240377)scale(0.1 -0.1)">
       <use xlink:href="#DejaVuSans-30"/>
       <use xlink:href="#DejaVuSans-2e" x="63.623047"/>
       <use xlink:href="#DejaVuSans-32" x="95.410156"/>
      </g>
     </g>
    </g>
    <g id="ytick_5">
     <g id="line2d_11">
      <g>
       <use xlink:href="#m6a2f4b0ed9" x="56.05" y="69.684056" style="stroke: #000000; stroke-width: 0.8"/>
      </g>
     </g>
     <g id="text_12">
      <!-- 0.4 -->
      <g transform="translate(33.146875 73.483275)scale(0.1 -0.1)">
       <use xlink:href="#DejaVuSans-30"/>
       <use xlink:href="#DejaVuSans-2e" x="63.623047"/>
       <use xlink:href="#DejaVuSans-34" x="95.410156"/>
      </g>
     </g>
    </g>
    <g id="ytick_6">
     <g id="line2d_12">
      <g>
       <use xlink:href="#m6a2f4b0ed9" x="56.05" y="47.926954" style="stroke: #000000; stroke-width: 0.8"/>
      </g>
     </g>
     <g id="text_13">
      <!-- 0.6 -->
      <g transform="translate(33.146875 51.726173)scale(0.1 -0.1)">
       <use xlink:href="#DejaVuSans-30"/>
       <use xlink:href="#DejaVuSans-2e" x="63.623047"/>
       <use xlink:href="#DejaVuSans-36" x="95.410156"/>
      </g>
     </g>
    </g>
    <g id="ytick_7">
     <g id="line2d_13">
      <g>
       <use xlink:href="#m6a2f4b0ed9" x="56.05" y="26.169852" style="stroke: #000000; stroke-width: 0.8"/>
      </g>
     </g>
     <g id="text_14">
      <!-- 0.8 -->
      <g transform="translate(33.146875 29.969071)scale(0.1 -0.1)">
       <use xlink:href="#DejaVuSans-30"/>
       <use xlink:href="#DejaVuSans-2e" x="63.623047"/>
       <use xlink:href="#DejaVuSans-38" x="95.410156"/>
      </g>
     </g>
    </g>
    <g id="text_15">
     <!-- Coeff. (a.u.) -->
     <g transform="translate(18.6875 121.775781)rotate(-90)scale(0.1 -0.1)">
      <defs>
       <path id="DejaVuSans-43" d="M 4122 4306 
L 4122 3641 
Q 3803 3938 3442 4084 
Q 3081 4231 2675 4231 
Q 1875 4231 1450 3742 
Q 1025 3253 1025 2328 
Q 1025 1406 1450 917 
Q 1875 428 2675 428 
Q 3081 428 3442 575 
Q 3803 722 4122 1019 
L 4122 359 
Q 3791 134 3420 21 
Q 3050 -91 2638 -91 
Q 1578 -91 968 557 
Q 359 1206 359 2328 
Q 359 3453 968 4101 
Q 1578 4750 2638 4750 
Q 3056 4750 3426 4639 
Q 3797 4528 4122 4306 
z
" transform="scale(0.015625)"/>
       <path id="DejaVuSans-6f" d="M 1959 3097 
Q 1497 3097 1228 2736 
Q 959 2375 959 1747 
Q 959 1119 1226 758 
Q 1494 397 1959 397 
Q 2419 397 2687 759 
Q 2956 1122 2956 1747 
Q 2956 2369 2687 2733 
Q 2419 3097 1959 3097 
z
M 1959 3584 
Q 2709 3584 3137 3096 
Q 3566 2609 3566 1747 
Q 3566 888 3137 398 
Q 2709 -91 1959 -91 
Q 1206 -91 779 398 
Q 353 888 353 1747 
Q 353 2609 779 3096 
Q 1206 3584 1959 3584 
z
" transform="scale(0.015625)"/>
       <path id="DejaVuSans-66" d="M 2375 4863 
L 2375 4384 
L 1825 4384 
Q 1516 4384 1395 4259 
Q 1275 4134 1275 3809 
L 1275 3500 
L 2222 3500 
L 2222 3053 
L 1275 3053 
L 1275 0 
L 697 0 
L 697 3053 
L 147 3053 
L 147 3500 
L 697 3500 
L 697 3744 
Q 697 4328 969 4595 
Q 1241 4863 1831 4863 
L 2375 4863 
z
" transform="scale(0.015625)"/>
       <path id="DejaVuSans-61" d="M 2194 1759 
Q 1497 1759 1228 1600 
Q 959 1441 959 1056 
Q 959 750 1161 570 
Q 1363 391 1709 391 
Q 2188 391 2477 730 
Q 2766 1069 2766 1631 
L 2766 1759 
L 2194 1759 
z
M 3341 1997 
L 3341 0 
L 2766 0 
L 2766 531 
Q 2569 213 2275 61 
Q 1981 -91 1556 -91 
Q 1019 -91 701 211 
Q 384 513 384 1019 
Q 384 1609 779 1909 
Q 1175 2209 1959 2209 
L 2766 2209 
L 2766 2266 
Q 2766 2663 2505 2880 
Q 2244 3097 1772 3097 
Q 1472 3097 1187 3025 
Q 903 2953 641 2809 
L 641 3341 
Q 956 3463 1253 3523 
Q 1550 3584 1831 3584 
Q 2591 3584 2966 3190 
Q 3341 2797 3341 1997 
z
" transform="scale(0.015625)"/>
       <path id="DejaVuSans-75" d="M 544 1381 
L 544 3500 
L 1119 3500 
L 1119 1403 
Q 1119 906 1312 657 
Q 1506 409 1894 409 
Q 2359 409 2629 706 
Q 2900 1003 2900 1516 
L 2900 3500 
L 3475 3500 
L 3475 0 
L 2900 0 
L 2900 538 
Q 2691 219 2414 64 
Q 2138 -91 1772 -91 
Q 1169 -91 856 284 
Q 544 659 544 1381 
z
M 1991 3584 
L 1991 3584 
z
" transform="scale(0.015625)"/>
      </defs>
      <use xlink:href="#DejaVuSans-43"/>
      <use xlink:href="#DejaVuSans-6f" x="69.824219"/>
      <use xlink:href="#DejaVuSans-65" x="131.005859"/>
      <use xlink:href="#DejaVuSans-66" x="192.529297"/>
      <use xlink:href="#DejaVuSans-66" x="227.734375"/>
      <use xlink:href="#DejaVuSans-2e" x="255.689453"/>
      <use xlink:href="#DejaVuSans-20" x="287.476562"/>
      <use xlink:href="#DejaVuSans-28" x="319.263672"/>
      <use xlink:href="#DejaVuSans-61" x="358.277344"/>
      <use xlink:href="#DejaVuSans-2e" x="419.556641"/>
      <use xlink:href="#DejaVuSans-75" x="451.34375"/>
      <use xlink:href="#DejaVuSans-2e" x="514.722656"/>
      <use xlink:href="#DejaVuSans-29" x="546.509766"/>
     </g>
    </g>
   </g>
   <g id="line2d_14">
    <path d="M 56.05 113.19812 
L 172.9 113.146302 
L 174.95 112.91855 
L 177 112.331783 
L 179.05 111.258039 
L 181.1 109.709175 
L 185.2 106.222561 
L 187.25 105.262354 
L 189.3 105.63334 
L 191.35 107.876689 
L 193.4 112.311658 
L 195.45 118.913827 
L 197.5 127.241787 
L 201.6 145.284871 
L 203.65 152.38944 
L 205.7 156.348818 
L 207.75 155.997793 
L 209.8 150.621424 
L 211.85 140.120632 
L 213.9 125.096299 
L 215.95 106.838393 
L 220.05 68.373062 
L 222.1 52.639045 
L 224.15 42.024644 
L 226.2 38.035672 
L 228.25 41.426785 
L 230.3 52.076204 
L 238.5 116.540873 
L 240.55 129.138629 
L 242.6 138.538222 
L 244.65 144.207017 
L 246.7 145.989516 
L 248.75 144.128159 
L 250.8 139.21448 
L 252.85 132.119302 
L 256.95 115.535586 
L 259 108.062049 
L 261.05 102.172932 
L 263.1 98.299582 
L 265.15 96.555575 
L 267.2 96.766612 
L 269.25 98.52895 
L 271.3 101.30546 
L 275.4 107.662708 
L 277.45 110.341808 
L 279.5 112.336087 
L 281.55 113.593541 
L 283.6 114.201971 
L 285.65 114.337934 
L 289.75 113.986019 
L 293.85 113.620806 
L 300 113.348471 
L 310.25 113.224738 
L 347.15 113.19817 
L 349.2 113.198271 
L 349.2 113.198271 
" clip-path="url(#pdd3bdda35f)" style="fill: none; stroke: #1f77b4; stroke-width: 1.5; stroke-linecap: square"/>
   </g>
   <g id="line2d_15">
    <path d="M 56.05 113.199749 
L 164.7 113.118609 
L 166.75 112.878997 
L 168.8 112.279303 
L 170.85 111.116264 
L 172.9 109.302501 
L 177 104.832347 
L 179.05 103.447874 
L 181.1 103.73243 
L 183.15 106.433163 
L 185.2 111.990492 
L 187.25 120.368086 
L 189.3 130.956225 
L 193.4 153.589175 
L 195.45 162.124229 
L 197.5 166.350699 
L 199.55 164.800622 
L 201.6 156.654957 
L 203.65 141.954488 
L 205.7 121.69094 
L 211.85 49.646345 
L 213.9 31.418488 
L 215.95 20.601148 
L 218 18.922497 
L 220.05 27.025159 
L 222.1 44.209555 
L 224.15 67.836834 
L 226.2 93.69756 
L 228.25 117.507384 
L 230.3 135.970471 
L 232.35 147.885271 
L 234.4 155.894348 
L 236.45 159.275121 
L 238.5 157.869051 
L 240.55 152.107939 
L 242.6 142.931381 
L 244.65 131.636135 
L 246.7 119.682937 
L 248.75 108.490758 
L 250.8 99.249092 
L 252.85 92.777124 
L 254.9 89.445572 
L 256.95 89.171401 
L 259 91.479855 
L 261.05 95.619528 
L 265.15 105.881441 
L 267.2 110.42551 
L 269.25 113.863733 
L 271.3 115.996048 
L 273.35 116.883294 
L 275.4 116.786734 
L 277.45 116.07814 
L 281.55 114.280938 
L 283.6 113.671753 
L 285.65 113.3424 
L 289.75 113.198406 
L 349.2 113.198256 
L 349.2 113.198256 
" clip-path="url(#pdd3bdda35f)" style="fill: none; stroke: #ff7f0e; stroke-width: 1.5; stroke-linecap: square"/>
   </g>
   <g id="patch_3">
    <path d="M 56.05 174.2 
L 56.05 10.8 
" style="fill: none; stroke: #000000; stroke-width: 0.8; stroke-linejoin: miter; stroke-linecap: square"/>
   </g>
   <g id="patch_4">
    <path d="M 56.05 174.2 
L 349.2 174.2 
" style="fill: none; stroke: #000000; stroke-width: 0.8; stroke-linejoin: miter; stroke-linecap: square"/>
   </g>
   <g id="legend_1">
    <g id="line2d_16">
     <path d="M 65.05 23.898438 
L 75.05 23.898438 
L 85.05 23.898438 
" style="fill: none; stroke: #1f77b4; stroke-width: 1.5; stroke-linecap: square"/>
    </g>
    <g id="text_16">
     <!-- Node count/high surprisal -->
     <g transform="translate(93.05 27.398438)scale(0.1 -0.1)">
      <defs>
       <path id="DejaVuSans-4e" d="M 628 4666 
L 1478 4666 
L 3547 763 
L 3547 4666 
L 4159 4666 
L 4159 0 
L 3309 0 
L 1241 3903 
L 1241 0 
L 628 0 
L 628 4666 
z
" transform="scale(0.015625)"/>
       <path id="DejaVuSans-64" d="M 2906 2969 
L 2906 4863 
L 3481 4863 
L 3481 0 
L 2906 0 
L 2906 525 
Q 2725 213 2448 61 
Q 2172 -91 1784 -91 
Q 1150 -91 751 415 
Q 353 922 353 1747 
Q 353 2572 751 3078 
Q 1150 3584 1784 3584 
Q 2172 3584 2448 3432 
Q 2725 3281 2906 2969 
z
M 947 1747 
Q 947 1113 1208 752 
Q 1469 391 1925 391 
Q 2381 391 2643 752 
Q 2906 1113 2906 1747 
Q 2906 2381 2643 2742 
Q 2381 3103 1925 3103 
Q 1469 3103 1208 2742 
Q 947 2381 947 1747 
z
" transform="scale(0.015625)"/>
       <path id="DejaVuSans-63" d="M 3122 3366 
L 3122 2828 
Q 2878 2963 2633 3030 
Q 2388 3097 2138 3097 
Q 1578 3097 1268 2742 
Q 959 2388 959 1747 
Q 959 1106 1268 751 
Q 1578 397 2138 397 
Q 2388 397 2633 464 
Q 2878 531 3122 666 
L 3122 134 
Q 2881 22 2623 -34 
Q 2366 -91 2075 -91 
Q 1284 -91 818 406 
Q 353 903 353 1747 
Q 353 2603 823 3093 
Q 1294 3584 2113 3584 
Q 2378 3584 2631 3529 
Q 2884 3475 3122 3366 
z
" transform="scale(0.015625)"/>
       <path id="DejaVuSans-6e" d="M 3513 2113 
L 3513 0 
L 2938 0 
L 2938 2094 
Q 2938 2591 2744 2837 
Q 2550 3084 2163 3084 
Q 1697 3084 1428 2787 
Q 1159 2491 1159 1978 
L 1159 0 
L 581 0 
L 581 3500 
L 1159 3500 
L 1159 2956 
Q 1366 3272 1645 3428 
Q 1925 3584 2291 3584 
Q 2894 3584 3203 3211 
Q 3513 2838 3513 2113 
z
" transform="scale(0.015625)"/>
       <path id="DejaVuSans-74" d="M 1172 4494 
L 1172 3500 
L 2356 3500 
L 2356 3053 
L 1172 3053 
L 1172 1153 
Q 1172 725 1289 603 
Q 1406 481 1766 481 
L 2356 481 
L 2356 0 
L 1766 0 
Q 1100 0 847 248 
Q 594 497 594 1153 
L 594 3053 
L 172 3053 
L 172 3500 
L 594 3500 
L 594 4494 
L 1172 4494 
z
" transform="scale(0.015625)"/>
       <path id="DejaVuSans-2f" d="M 1625 4666 
L 2156 4666 
L 531 -594 
L 0 -594 
L 1625 4666 
z
" transform="scale(0.015625)"/>
       <path id="DejaVuSans-68" d="M 3513 2113 
L 3513 0 
L 2938 0 
L 2938 2094 
Q 2938 2591 2744 2837 
Q 2550 3084 2163 3084 
Q 1697 3084 1428 2787 
Q 1159 2491 1159 1978 
L 1159 0 
L 581 0 
L 581 4863 
L 1159 4863 
L 1159 2956 
Q 1366 3272 1645 3428 
Q 1925 3584 2291 3584 
Q 2894 3584 3203 3211 
Q 3513 2838 3513 2113 
z
" transform="scale(0.015625)"/>
       <path id="DejaVuSans-67" d="M 2906 1791 
Q 2906 2416 2648 2759 
Q 2391 3103 1925 3103 
Q 1463 3103 1205 2759 
Q 947 2416 947 1791 
Q 947 1169 1205 825 
Q 1463 481 1925 481 
Q 2391 481 2648 825 
Q 2906 1169 2906 1791 
z
M 3481 434 
Q 3481 -459 3084 -895 
Q 2688 -1331 1869 -1331 
Q 1566 -1331 1297 -1286 
Q 1028 -1241 775 -1147 
L 775 -588 
Q 1028 -725 1275 -790 
Q 1522 -856 1778 -856 
Q 2344 -856 2625 -561 
Q 2906 -266 2906 331 
L 2906 616 
Q 2728 306 2450 153 
Q 2172 0 1784 0 
Q 1141 0 747 490 
Q 353 981 353 1791 
Q 353 2603 747 3093 
Q 1141 3584 1784 3584 
Q 2172 3584 2450 3431 
Q 2728 3278 2906 2969 
L 2906 3500 
L 3481 3500 
L 3481 434 
z
" transform="scale(0.015625)"/>
       <path id="DejaVuSans-72" d="M 2631 2963 
Q 2534 3019 2420 3045 
Q 2306 3072 2169 3072 
Q 1681 3072 1420 2755 
Q 1159 2438 1159 1844 
L 1159 0 
L 581 0 
L 581 3500 
L 1159 3500 
L 1159 2956 
Q 1341 3275 1631 3429 
Q 1922 3584 2338 3584 
Q 2397 3584 2469 3576 
Q 2541 3569 2628 3553 
L 2631 2963 
z
" transform="scale(0.015625)"/>
       <path id="DejaVuSans-70" d="M 1159 525 
L 1159 -1331 
L 581 -1331 
L 581 3500 
L 1159 3500 
L 1159 2969 
Q 1341 3281 1617 3432 
Q 1894 3584 2278 3584 
Q 2916 3584 3314 3078 
Q 3713 2572 3713 1747 
Q 3713 922 3314 415 
Q 2916 -91 2278 -91 
Q 1894 -91 1617 61 
Q 1341 213 1159 525 
z
M 3116 1747 
Q 3116 2381 2855 2742 
Q 2594 3103 2138 3103 
Q 1681 3103 1420 2742 
Q 1159 2381 1159 1747 
Q 1159 1113 1420 752 
Q 1681 391 2138 391 
Q 2594 391 2855 752 
Q 3116 1113 3116 1747 
z
" transform="scale(0.015625)"/>
       <path id="DejaVuSans-6c" d="M 603 4863 
L 1178 4863 
L 1178 0 
L 603 0 
L 603 4863 
z
" transform="scale(0.015625)"/>
      </defs>
      <use xlink:href="#DejaVuSans-4e"/>
      <use xlink:href="#DejaVuSans-6f" x="74.804688"/>
      <use xlink:href="#DejaVuSans-64" x="135.986328"/>
      <use xlink:href="#DejaVuSans-65" x="199.462891"/>
      <use xlink:href="#DejaVuSans-20" x="260.986328"/>
      <use xlink:href="#DejaVuSans-63" x="292.773438"/>
      <use xlink:href="#DejaVuSans-6f" x="347.753906"/>
      <use xlink:href="#DejaVuSans-75" x="408.935547"/>
      <use xlink:href="#DejaVuSans-6e" x="472.314453"/>
      <use xlink:href="#DejaVuSans-74" x="535.693359"/>
      <use xlink:href="#DejaVuSans-2f" x="574.902344"/>
      <use xlink:href="#DejaVuSans-68" x="608.59375"/>
      <use xlink:href="#DejaVuSans-69" x="671.972656"/>
      <use xlink:href="#DejaVuSans-67" x="699.755859"/>
      <use xlink:href="#DejaVuSans-68" x="763.232422"/>
      <use xlink:href="#DejaVuSans-20" x="826.611328"/>
      <use xlink:href="#DejaVuSans-73" x="858.398438"/>
      <use xlink:href="#DejaVuSans-75" x="910.498047"/>
      <use xlink:href="#DejaVuSans-72" x="973.876953"/>
      <use xlink:href="#DejaVuSans-70" x="1014.990234"/>
      <use xlink:href="#DejaVuSans-72" x="1078.466797"/>
      <use xlink:href="#DejaVuSans-69" x="1119.580078"/>
      <use xlink:href="#DejaVuSans-73" x="1147.363281"/>
      <use xlink:href="#DejaVuSans-61" x="1199.462891"/>
      <use xlink:href="#DejaVuSans-6c" x="1260.742188"/>
     </g>
    </g>
    <g id="line2d_17">
     <path d="M 65.05 38.576563 
L 75.05 38.576563 
L 85.05 38.576563 
" style="fill: none; stroke: #ff7f0e; stroke-width: 1.5; stroke-linecap: square"/>
    </g>
    <g id="text_17">
     <!-- Node count/low surprisal -->
     <g transform="translate(93.05 42.076563)scale(0.1 -0.1)">
      <defs>
       <path id="DejaVuSans-77" d="M 269 3500 
L 844 3500 
L 1563 769 
L 2278 3500 
L 2956 3500 
L 3675 769 
L 4391 3500 
L 4966 3500 
L 4050 0 
L 3372 0 
L 2619 2869 
L 1863 0 
L 1184 0 
L 269 3500 
z
" transform="scale(0.015625)"/>
      </defs>
      <use xlink:href="#DejaVuSans-4e"/>
      <use xlink:href="#DejaVuSans-6f" x="74.804688"/>
      <use xlink:href="#DejaVuSans-64" x="135.986328"/>
      <use xlink:href="#DejaVuSans-65" x="199.462891"/>
      <use xlink:href="#DejaVuSans-20" x="260.986328"/>
      <use xlink:href="#DejaVuSans-63" x="292.773438"/>
      <use xlink:href="#DejaVuSans-6f" x="347.753906"/>
      <use xlink:href="#DejaVuSans-75" x="408.935547"/>
      <use xlink:href="#DejaVuSans-6e" x="472.314453"/>
      <use xlink:href="#DejaVuSans-74" x="535.693359"/>
      <use xlink:href="#DejaVuSans-2f" x="574.902344"/>
      <use xlink:href="#DejaVuSans-6c" x="608.59375"/>
      <use xlink:href="#DejaVuSans-6f" x="636.376953"/>
      <use xlink:href="#DejaVuSans-77" x="697.558594"/>
      <use xlink:href="#DejaVuSans-20" x="779.345703"/>
      <use xlink:href="#DejaVuSans-73" x="811.132812"/>
      <use xlink:href="#DejaVuSans-75" x="863.232422"/>
      <use xlink:href="#DejaVuSans-72" x="926.611328"/>
      <use xlink:href="#DejaVuSans-70" x="967.724609"/>
      <use xlink:href="#DejaVuSans-72" x="1031.201172"/>
      <use xlink:href="#DejaVuSans-69" x="1072.314453"/>
      <use xlink:href="#DejaVuSans-73" x="1100.097656"/>
      <use xlink:href="#DejaVuSans-61" x="1152.197266"/>
      <use xlink:href="#DejaVuSans-6c" x="1213.476562"/>
     </g>
    </g>
   </g>
  </g>
 </g>
 <defs>
  <clipPath id="pdd3bdda35f">
   <rect x="56.05" y="10.8" width="293.15" height="163.4"/>
  </clipPath>
 </defs>
</svg>
