<?xml version="1.0" encoding="utf-8" standalone="no"?>
<!DOCTYPE svg PUBLIC "-//W3C//DTD SVG 1.1//EN"
  "http://www.w3.org/Graphics/SVG/1.1/DTD/svg11.dtd">
<svg xmlns:xlink="http://www.w3.org/1999/xlink" width="360pt" height="216pt" viewBox="0 0 360 216" xmlns="http://www.w3.org/2000/svg" version="1.1">
 <metadata>
  <rdf:RDF xmlns:dc="http://purl.org/dc/elements/1.1/" xmlns:cc="http://creativecommons.org/ns#" xmlns:rdf="http://www.w3.org/1999/02/22-rdf-syntax-ns#">
   <cc:Work>
    <dc:type rdf:resource="http://purl.org/dc/dcmitype/StillImage"/>
    <dc:date>2024-01-26T17:43:44.950256</dc:date>
    <dc:format>image/svg+xml</dc:format>
    <dc:creator>
     <cc:Agent>
      <dc:title>Matplotlib v3.5.1, https://matplotlib.org/</dc:title>
     </cc:Agent>
    </dc:creator>
   </cc:Work>
  </rdf:RDF>
 </metadata>
 <defs>
  <style type="text/css">*{stroke-linejoin: round; stroke-linecap: butt}</style>
 </defs>
 <g id="figure_1">
  <g id="patch_1">
   <path d="M 0 216 
L 360 216 
L 360 0 
L 0 0 
z
" style="fill: #ffffff"/>
  </g>
  <g id="axes_1">
   <g id="patch_2">
    <path d="M 56.05 174.2 
L 349.2 174.2 
L 349.2 10.8 
L 56.05 10.8 
z
" style="fill: #ffffff"/>
   </g>
   <g id="PolyCollection_1">
    <path d="M 56.05 114.312355 
L 56.05 118.042995 
L 58.1 117.939455 
L 60.15 117.813765 
L 62.2 117.669822 
L 64.25 117.524069 
L 66.3 117.391324 
L 68.35 117.287506 
L 70.4 117.210965 
L 72.45 117.155748 
L 74.5 117.112413 
L 76.55 117.068201 
L 78.6 117.016545 
L 80.65 116.960338 
L 82.7 116.904129 
L 84.75 116.849071 
L 86.8 116.801069 
L 88.85 116.763248 
L 90.9 116.730067 
L 92.95 116.696451 
L 95 116.657951 
L 97.05 116.617801 
L 99.1 116.574777 
L 101.15 116.53312 
L 103.2 116.494192 
L 105.25 116.297094 
L 107.3 116.288818 
L 109.35 116.27876 
L 111.4 116.268784 
L 113.45 116.260536 
L 115.5 116.254293 
L 117.55 116.249988 
L 119.6 116.245168 
L 121.65 116.238946 
L 123.7 116.230251 
L 125.75 116.220825 
L 127.8 116.21278 
L 129.85 116.20744 
L 131.9 116.203676 
L 133.95 116.20058 
L 136 116.197227 
L 138.05 116.192945 
L 140.1 116.187357 
L 142.15 116.181523 
L 144.2 116.176356 
L 146.25 116.171985 
L 148.3 116.168865 
L 150.35 116.167081 
L 152.4 116.165442 
L 154.45 116.163153 
L 156.5 116.160144 
L 158.55 116.157074 
L 160.6 116.154397 
L 162.65 116.152401 
L 164.7 116.151085 
L 166.75 116.150154 
L 168.8 116.149081 
L 170.85 116.147288 
L 172.9 116.145005 
L 174.95 116.143077 
L 177 116.142275 
L 179.05 116.142516 
L 181.1 116.143434 
L 183.15 116.144514 
L 185.2 116.145163 
L 187.25 116.14498 
L 189.3 116.1439 
L 191.35 116.141945 
L 193.4 116.138971 
L 195.45 116.1277 
L 197.5 116.077121 
L 199.55 115.903918 
L 201.6 115.478974 
L 203.65 114.701825 
L 205.7 113.557201 
L 207.75 112.158773 
L 209.8 110.773163 
L 211.85 109.837196 
L 213.9 110.017176 
L 215.95 111.918757 
L 218 115.687192 
L 220.05 121.244747 
L 222.1 128.24969 
L 224.15 136.05983 
L 226.2 143.782141 
L 228.25 150.382194 
L 230.3 154.861457 
L 232.35 156.487727 
L 234.4 154.908063 
L 236.45 149.854447 
L 238.5 141.180509 
L 240.55 129.258419 
L 242.6 115.021844 
L 244.65 99.838272 
L 246.7 85.337114 
L 248.75 73.220944 
L 250.8 65.072327 
L 252.85 62.164527 
L 254.9 65.10359 
L 256.95 71.784025 
L 259 80.643715 
L 261.05 90.832251 
L 263.1 101.455299 
L 265.15 111.599554 
L 267.2 120.452236 
L 269.25 127.336369 
L 271.3 131.921414 
L 273.35 134.152535 
L 275.4 134.126539 
L 277.45 132.146 
L 279.5 128.683855 
L 281.55 124.33487 
L 283.6 119.711258 
L 285.65 115.379017 
L 287.7 111.791048 
L 289.75 109.269792 
L 291.8 107.904464 
L 293.85 107.596404 
L 295.9 108.117613 
L 297.95 109.172998 
L 300 110.458658 
L 302.05 112.53847 
L 304.1 113.654453 
L 306.15 114.526006 
L 308.2 115.143948 
L 310.25 115.570352 
L 312.3 115.86438 
L 314.35 116.088797 
L 316.4 116.276664 
L 318.45 116.412164 
L 320.5 116.500705 
L 322.55 116.547066 
L 324.6 116.57352 
L 326.65 116.593052 
L 328.7 116.607059 
L 330.75 116.617083 
L 332.8 116.61648 
L 334.85 116.612245 
L 336.9 116.601467 
L 338.95 116.58519 
L 341 116.567637 
L 343.05 116.55594 
L 345.1 116.553891 
L 347.15 116.555297 
L 349.2 116.554724 
L 349.2 115.33941 
L 349.2 115.33941 
L 347.15 115.263953 
L 345.1 115.17826 
L 343.05 115.077017 
L 341 114.964013 
L 338.95 114.843504 
L 336.9 114.725166 
L 334.85 114.60532 
L 332.8 114.478669 
L 330.75 114.345034 
L 328.7 114.199017 
L 326.65 114.03005 
L 324.6 113.827131 
L 322.55 113.583896 
L 320.5 113.302149 
L 318.45 112.982651 
L 316.4 112.62115 
L 314.35 112.218996 
L 312.3 111.747866 
L 310.25 111.162186 
L 308.2 110.397911 
L 306.15 109.391217 
L 304.1 108.117055 
L 302.05 106.609736 
L 300 105.875953 
L 297.95 104.325632 
L 295.9 103.05623 
L 293.85 102.343779 
L 291.8 102.432523 
L 289.75 103.483244 
L 287.7 105.568421 
L 285.65 108.643239 
L 283.6 112.4905 
L 281.55 116.744561 
L 279.5 120.846716 
L 277.45 124.147757 
L 275.4 125.96587 
L 273.35 125.713005 
L 271.3 122.980275 
L 269.25 117.705854 
L 267.2 110.147313 
L 265.15 100.814642 
L 263.1 90.439719 
L 261.05 79.881814 
L 259 69.987561 
L 256.95 61.5286 
L 254.9 55.168096 
L 252.85 52.462285 
L 250.8 54.699035 
L 248.75 61.776743 
L 246.7 73.060743 
L 244.65 87.371489 
L 242.6 103.160176 
L 240.55 118.743515 
L 238.5 132.527677 
L 236.45 143.187998 
L 234.4 149.770579 
L 232.35 151.827373 
L 230.3 149.761443 
L 228.25 144.677856 
L 226.2 137.814299 
L 224.15 130.329882 
L 222.1 123.225588 
L 220.05 117.255489 
L 218 112.86989 
L 215.95 110.193275 
L 213.9 109.030431 
L 211.85 108.952476 
L 209.8 109.713583 
L 207.75 111.052261 
L 205.7 112.57977 
L 203.65 113.966051 
L 201.6 115.013112 
L 199.55 115.665853 
L 197.5 115.982446 
L 195.45 116.078522 
L 193.4 116.086385 
L 191.35 116.083215 
L 189.3 116.080715 
L 187.25 116.079267 
L 185.2 116.079079 
L 183.15 116.080089 
L 181.1 116.081841 
L 179.05 116.08363 
L 177 116.084803 
L 174.95 116.084632 
L 172.9 116.083043 
L 170.85 116.080889 
L 168.8 116.079022 
L 166.75 116.077492 
L 164.7 116.075871 
L 162.65 116.073731 
L 160.6 116.070714 
L 158.55 116.066857 
L 156.5 116.062298 
L 154.45 116.057887 
L 152.4 116.054332 
L 150.35 116.051561 
L 148.3 116.048427 
L 146.25 116.044178 
L 144.2 116.039118 
L 142.15 116.032422 
L 140.1 116.024836 
L 138.05 116.01788 
L 136 116.012414 
L 133.95 116.00744 
L 131.9 116.002308 
L 129.85 115.996095 
L 127.8 115.986671 
L 125.75 115.97319 
L 123.7 115.957844 
L 121.65 115.942894 
L 119.6 115.930396 
L 117.55 115.918405 
L 115.5 115.906283 
L 113.45 115.891052 
L 111.4 115.871999 
L 109.35 115.848368 
L 107.3 115.822335 
L 105.25 115.795859 
L 103.2 115.709202 
L 101.15 115.681323 
L 99.1 115.656461 
L 97.05 115.631648 
L 95 115.604386 
L 92.95 115.576428 
L 90.9 115.546566 
L 88.85 115.515038 
L 86.8 115.470874 
L 84.75 115.412391 
L 82.7 115.342108 
L 80.65 115.259111 
L 78.6 115.174228 
L 76.55 115.093485 
L 74.5 115.026485 
L 72.45 114.971067 
L 70.4 114.920694 
L 68.35 114.865801 
L 66.3 114.791878 
L 64.25 114.700397 
L 62.2 114.599711 
L 60.15 114.495166 
L 58.1 114.397723 
L 56.05 114.312355 
z
" clip-path="url(#p6c3635962c)" style="fill: #1f77b4; fill-opacity: 0.6"/>
   </g>
   <g id="PolyCollection_2">
    <path d="M 56.05 114.298082 
L 56.05 117.99661 
L 58.1 117.875626 
L 60.15 117.737318 
L 62.2 117.583665 
L 64.25 117.433835 
L 66.3 117.30826 
L 68.35 117.211439 
L 70.4 117.141691 
L 72.45 117.096848 
L 74.5 117.0643 
L 76.55 117.031698 
L 78.6 116.997912 
L 80.65 116.95865 
L 82.7 116.913683 
L 84.75 116.865741 
L 86.8 116.819564 
L 88.85 116.779335 
L 90.9 116.743984 
L 92.95 116.708668 
L 95 116.669806 
L 97.05 116.627056 
L 99.1 116.582235 
L 101.15 116.539276 
L 103.2 116.497356 
L 105.25 116.28546 
L 107.3 116.277971 
L 109.35 116.26989 
L 111.4 116.262365 
L 113.45 116.256088 
L 115.5 116.250771 
L 117.55 116.247163 
L 119.6 116.243565 
L 121.65 116.239694 
L 123.7 116.233933 
L 125.75 116.22774 
L 127.8 116.220969 
L 129.85 116.214185 
L 131.9 116.208281 
L 133.95 116.203321 
L 136 116.198667 
L 138.05 116.194166 
L 140.1 116.189322 
L 142.15 116.184258 
L 144.2 116.179335 
L 146.25 116.175697 
L 148.3 116.174103 
L 150.35 116.17418 
L 152.4 116.174517 
L 154.45 116.173893 
L 156.5 116.171332 
L 158.55 116.166437 
L 160.6 116.160008 
L 162.65 116.153674 
L 164.7 116.148592 
L 166.75 116.145279 
L 168.8 116.141862 
L 170.85 116.130829 
L 172.9 116.0977 
L 174.95 116.016105 
L 177 115.844217 
L 179.05 115.529499 
L 181.1 115.022056 
L 183.15 114.295853 
L 185.2 113.373394 
L 187.25 112.349431 
L 189.3 111.407341 
L 191.35 110.818684 
L 193.4 110.911533 
L 195.45 112.025398 
L 197.5 114.4905 
L 199.55 118.585092 
L 201.6 124.435421 
L 203.65 131.905226 
L 205.7 140.527914 
L 207.75 149.483362 
L 209.8 157.666562 
L 211.85 163.8261 
L 213.9 166.772727 
L 215.95 165.585739 
L 218 159.668439 
L 220.05 148.768255 
L 222.1 133.148489 
L 224.15 113.75459 
L 226.2 92.19521 
L 228.25 70.552941 
L 230.3 51.12657 
L 232.35 36.123007 
L 234.4 27.449564 
L 236.45 26.516329 
L 238.5 33.852965 
L 240.55 48.510505 
L 242.6 68.445445 
L 244.65 91.221071 
L 246.7 114.170966 
L 248.75 134.719806 
L 250.8 150.755216 
L 252.85 160.743161 
L 254.9 164.157802 
L 256.95 163.196009 
L 259 158.742539 
L 261.05 151.229921 
L 263.1 141.403784 
L 265.15 130.341694 
L 267.2 119.236959 
L 269.25 109.208135 
L 271.3 101.156546 
L 273.35 95.681588 
L 275.4 93.06997 
L 277.45 93.3323 
L 279.5 96.000044 
L 281.55 100.133102 
L 283.6 104.849352 
L 285.65 109.443064 
L 287.7 113.394536 
L 289.75 116.390688 
L 291.8 118.325071 
L 293.85 119.273051 
L 295.9 119.459231 
L 297.95 119.188199 
L 300 118.617245 
L 302.05 119.100966 
L 304.1 118.393889 
L 306.15 117.84283 
L 308.2 117.470628 
L 310.25 117.25551 
L 312.3 117.141258 
L 314.35 117.075663 
L 316.4 117.033695 
L 318.45 116.99671 
L 320.5 116.954525 
L 322.55 116.899836 
L 324.6 116.835778 
L 326.65 116.768432 
L 328.7 116.701566 
L 330.75 116.644136 
L 332.8 116.595028 
L 334.85 116.559261 
L 336.9 116.534302 
L 338.95 116.513927 
L 341 116.497242 
L 343.05 116.481415 
L 345.1 116.466684 
L 347.15 116.450617 
L 349.2 116.430566 
L 349.2 115.822983 
L 349.2 115.822983 
L 347.15 115.790824 
L 345.1 115.757522 
L 343.05 115.722985 
L 341 115.690595 
L 338.95 115.660812 
L 336.9 115.634755 
L 334.85 115.608632 
L 332.8 115.578293 
L 330.75 115.5416 
L 328.7 115.502831 
L 326.65 115.464957 
L 324.6 115.429953 
L 322.55 115.399618 
L 320.5 115.373051 
L 318.45 115.347472 
L 316.4 115.312057 
L 314.35 115.257537 
L 312.3 115.184838 
L 310.25 115.1232 
L 308.2 115.136908 
L 306.15 115.299847 
L 304.1 115.661208 
L 302.05 116.208259 
L 300 118.201779 
L 297.95 118.843346 
L 295.9 119.094511 
L 293.85 118.579492 
L 291.8 117.117838 
L 289.75 114.614813 
L 287.7 111.104343 
L 285.65 106.799693 
L 283.6 102.102093 
L 281.55 97.569402 
L 279.5 93.834324 
L 277.45 91.447523 
L 275.4 90.785618 
L 273.35 92.357147 
L 271.3 96.609504 
L 269.25 103.58383 
L 267.2 112.898919 
L 265.15 123.790515 
L 263.1 135.182743 
L 261.05 145.794653 
L 259 154.254337 
L 256.95 159.207402 
L 254.9 159.614448 
L 252.85 153.637744 
L 250.8 140.837346 
L 248.75 122.612243 
L 246.7 100.890421 
L 244.65 77.969576 
L 242.6 56.311297 
L 240.55 38.130146 
L 238.5 25.158384 
L 236.45 18.349978 
L 234.4 18.227273 
L 232.35 25.122881 
L 230.3 38.560863 
L 228.25 57.167402 
L 226.2 78.91725 
L 224.15 101.444529 
L 222.1 122.426948 
L 220.05 139.898452 
L 218 152.4584 
L 215.95 159.428739 
L 213.9 160.950783 
L 211.85 157.939188 
L 209.8 151.73326 
L 207.75 143.745094 
L 205.7 135.257463 
L 203.65 127.302402 
L 201.6 120.589108 
L 199.55 115.488923 
L 197.5 112.068576 
L 195.45 110.166634 
L 193.4 109.48851 
L 191.35 109.699546 
L 189.3 110.485273 
L 187.25 111.566492 
L 185.2 112.714521 
L 183.15 113.763054 
L 181.1 114.614573 
L 179.05 115.236159 
L 177 115.64423 
L 174.95 115.882808 
L 172.9 116.004636 
L 170.85 116.057164 
L 168.8 116.075658 
L 166.75 116.079702 
L 164.7 116.07697 
L 162.65 116.070784 
L 160.6 116.062728 
L 158.55 116.054591 
L 156.5 116.048511 
L 154.45 116.045075 
L 152.4 116.044071 
L 150.35 116.044142 
L 148.3 116.043854 
L 146.25 116.041634 
L 144.2 116.03701 
L 142.15 116.030871 
L 140.1 116.024426 
L 138.05 116.017979 
L 136 116.011729 
L 133.95 116.005326 
L 131.9 115.99811 
L 129.85 115.989176 
L 127.8 115.978276 
L 125.75 115.966679 
L 123.7 115.954721 
L 121.65 115.943149 
L 119.6 115.932079 
L 117.55 115.920041 
L 115.5 115.905765 
L 113.45 115.888219 
L 111.4 115.868386 
L 109.35 115.845529 
L 107.3 115.820339 
L 105.25 115.795541 
L 103.2 115.695733 
L 101.15 115.670581 
L 99.1 115.650513 
L 97.05 115.633394 
L 95 115.616482 
L 92.95 115.598119 
L 90.9 115.573188 
L 88.85 115.539795 
L 86.8 115.494239 
L 84.75 115.430551 
L 82.7 115.355258 
L 80.65 115.270471 
L 78.6 115.185034 
L 76.55 115.10202 
L 74.5 115.026657 
L 72.45 114.966818 
L 70.4 114.912344 
L 68.35 114.848831 
L 66.3 114.764917 
L 64.25 114.664748 
L 62.2 114.555817 
L 60.15 114.450211 
L 58.1 114.369166 
L 56.05 114.298082 
z
" clip-path="url(#p6c3635962c)" style="fill: #ff7f0e; fill-opacity: 0.6"/>
   </g>
   <g id="matplotlib.axis_1">
    <g id="xtick_1">
     <g id="line2d_1">
      <defs>
       <path id="m6337ecf6d4" d="M 0 0 
L 0 3.5 
" style="stroke: #000000; stroke-width: 0.8"/>
      </defs>
      <g>
       <use xlink:href="#m6337ecf6d4" x="56.05" y="174.2" style="stroke: #000000; stroke-width: 0.8"/>
      </g>
     </g>
     <g id="text_1">
      <!-- −0.2 -->
      <g transform="translate(43.908594 188.798438)scale(0.1 -0.1)">
       <defs>
        <path id="DejaVuSans-2212" d="M 678 2272 
L 4684 2272 
L 4684 1741 
L 678 1741 
L 678 2272 
z
" transform="scale(0.015625)"/>
        <path id="DejaVuSans-30" d="M 2034 4250 
Q 1547 4250 1301 3770 
Q 1056 3291 1056 2328 
Q 1056 1369 1301 889 
Q 1547 409 2034 409 
Q 2525 409 2770 889 
Q 3016 1369 3016 2328 
Q 3016 3291 2770 3770 
Q 2525 4250 2034 4250 
z
M 2034 4750 
Q 2819 4750 3233 4129 
Q 3647 3509 3647 2328 
Q 3647 1150 3233 529 
Q 2819 -91 2034 -91 
Q 1250 -91 836 529 
Q 422 1150 422 2328 
Q 422 3509 836 4129 
Q 1250 4750 2034 4750 
z
" transform="scale(0.015625)"/>
        <path id="DejaVuSans-2e" d="M 684 794 
L 1344 794 
L 1344 0 
L 684 0 
L 684 794 
z
" transform="scale(0.015625)"/>
        <path id="DejaVuSans-32" d="M 1228 531 
L 3431 531 
L 3431 0 
L 469 0 
L 469 531 
Q 828 903 1448 1529 
Q 2069 2156 2228 2338 
Q 2531 2678 2651 2914 
Q 2772 3150 2772 3378 
Q 2772 3750 2511 3984 
Q 2250 4219 1831 4219 
Q 1534 4219 1204 4116 
Q 875 4013 500 3803 
L 500 4441 
Q 881 4594 1212 4672 
Q 1544 4750 1819 4750 
Q 2544 4750 2975 4387 
Q 3406 4025 3406 3419 
Q 3406 3131 3298 2873 
Q 3191 2616 2906 2266 
Q 2828 2175 2409 1742 
Q 1991 1309 1228 531 
z
" transform="scale(0.015625)"/>
       </defs>
       <use xlink:href="#DejaVuSans-2212"/>
       <use xlink:href="#DejaVuSans-30" x="83.789062"/>
       <use xlink:href="#DejaVuSans-2e" x="147.412109"/>
       <use xlink:href="#DejaVuSans-32" x="179.199219"/>
      </g>
     </g>
    </g>
    <g id="xtick_2">
     <g id="line2d_2">
      <g>
       <use xlink:href="#m6337ecf6d4" x="105.25" y="174.2" style="stroke: #000000; stroke-width: 0.8"/>
      </g>
     </g>
     <g id="text_2">
      <!-- 0.0 -->
      <g transform="translate(97.298438 188.798438)scale(0.1 -0.1)">
       <use xlink:href="#DejaVuSans-30"/>
       <use xlink:href="#DejaVuSans-2e" x="63.623047"/>
       <use xlink:href="#DejaVuSans-30" x="95.410156"/>
      </g>
     </g>
    </g>
    <g id="xtick_3">
     <g id="line2d_3">
      <g>
       <use xlink:href="#m6337ecf6d4" x="154.45" y="174.2" style="stroke: #000000; stroke-width: 0.8"/>
      </g>
     </g>
     <g id="text_3">
      <!-- 0.2 -->
      <g transform="translate(146.498437 188.798438)scale(0.1 -0.1)">
       <use xlink:href="#DejaVuSans-30"/>
       <use xlink:href="#DejaVuSans-2e" x="63.623047"/>
       <use xlink:href="#DejaVuSans-32" x="95.410156"/>
      </g>
     </g>
    </g>
    <g id="xtick_4">
     <g id="line2d_4">
      <g>
       <use xlink:href="#m6337ecf6d4" x="203.65" y="174.2" style="stroke: #000000; stroke-width: 0.8"/>
      </g>
     </g>
     <g id="text_4">
      <!-- 0.4 -->
      <g transform="translate(195.698438 188.798438)scale(0.1 -0.1)">
       <defs>
        <path id="DejaVuSans-34" d="M 2419 4116 
L 825 1625 
L 2419 1625 
L 2419 4116 
z
M 2253 4666 
L 3047 4666 
L 3047 1625 
L 3713 1625 
L 3713 1100 
L 3047 1100 
L 3047 0 
L 2419 0 
L 2419 1100 
L 313 1100 
L 313 1709 
L 2253 4666 
z
" transform="scale(0.015625)"/>
       </defs>
       <use xlink:href="#DejaVuSans-30"/>
       <use xlink:href="#DejaVuSans-2e" x="63.623047"/>
       <use xlink:href="#DejaVuSans-34" x="95.410156"/>
      </g>
     </g>
    </g>
    <g id="xtick_5">
     <g id="line2d_5">
      <g>
       <use xlink:href="#m6337ecf6d4" x="252.85" y="174.2" style="stroke: #000000; stroke-width: 0.8"/>
      </g>
     </g>
     <g id="text_5">
      <!-- 0.6 -->
      <g transform="translate(244.898438 188.798438)scale(0.1 -0.1)">
       <defs>
        <path id="DejaVuSans-36" d="M 2113 2584 
Q 1688 2584 1439 2293 
Q 1191 2003 1191 1497 
Q 1191 994 1439 701 
Q 1688 409 2113 409 
Q 2538 409 2786 701 
Q 3034 994 3034 1497 
Q 3034 2003 2786 2293 
Q 2538 2584 2113 2584 
z
M 3366 4563 
L 3366 3988 
Q 3128 4100 2886 4159 
Q 2644 4219 2406 4219 
Q 1781 4219 1451 3797 
Q 1122 3375 1075 2522 
Q 1259 2794 1537 2939 
Q 1816 3084 2150 3084 
Q 2853 3084 3261 2657 
Q 3669 2231 3669 1497 
Q 3669 778 3244 343 
Q 2819 -91 2113 -91 
Q 1303 -91 875 529 
Q 447 1150 447 2328 
Q 447 3434 972 4092 
Q 1497 4750 2381 4750 
Q 2619 4750 2861 4703 
Q 3103 4656 3366 4563 
z
" transform="scale(0.015625)"/>
       </defs>
       <use xlink:href="#DejaVuSans-30"/>
       <use xlink:href="#DejaVuSans-2e" x="63.623047"/>
       <use xlink:href="#DejaVuSans-36" x="95.410156"/>
      </g>
     </g>
    </g>
    <g id="xtick_6">
     <g id="line2d_6">
      <g>
       <use xlink:href="#m6337ecf6d4" x="302.05" y="174.2" style="stroke: #000000; stroke-width: 0.8"/>
      </g>
     </g>
     <g id="text_6">
      <!-- 0.8 -->
      <g transform="translate(294.098437 188.798438)scale(0.1 -0.1)">
       <defs>
        <path id="DejaVuSans-38" d="M 2034 2216 
Q 1584 2216 1326 1975 
Q 1069 1734 1069 1313 
Q 1069 891 1326 650 
Q 1584 409 2034 409 
Q 2484 409 2743 651 
Q 3003 894 3003 1313 
Q 3003 1734 2745 1975 
Q 2488 2216 2034 2216 
z
M 1403 2484 
Q 997 2584 770 2862 
Q 544 3141 544 3541 
Q 544 4100 942 4425 
Q 1341 4750 2034 4750 
Q 2731 4750 3128 4425 
Q 3525 4100 3525 3541 
Q 3525 3141 3298 2862 
Q 3072 2584 2669 2484 
Q 3125 2378 3379 2068 
Q 3634 1759 3634 1313 
Q 3634 634 3220 271 
Q 2806 -91 2034 -91 
Q 1263 -91 848 271 
Q 434 634 434 1313 
Q 434 1759 690 2068 
Q 947 2378 1403 2484 
z
M 1172 3481 
Q 1172 3119 1398 2916 
Q 1625 2713 2034 2713 
Q 2441 2713 2670 2916 
Q 2900 3119 2900 3481 
Q 2900 3844 2670 4047 
Q 2441 4250 2034 4250 
Q 1625 4250 1398 4047 
Q 1172 3844 1172 3481 
z
" transform="scale(0.015625)"/>
       </defs>
       <use xlink:href="#DejaVuSans-30"/>
       <use xlink:href="#DejaVuSans-2e" x="63.623047"/>
       <use xlink:href="#DejaVuSans-38" x="95.410156"/>
      </g>
     </g>
    </g>
    <g id="text_7">
     <!-- Time (s) -->
     <g transform="translate(182.296094 202.476562)scale(0.1 -0.1)">
      <defs>
       <path id="DejaVuSans-54" d="M -19 4666 
L 3928 4666 
L 3928 4134 
L 2272 4134 
L 2272 0 
L 1638 0 
L 1638 4134 
L -19 4134 
L -19 4666 
z
" transform="scale(0.015625)"/>
       <path id="DejaVuSans-69" d="M 603 3500 
L 1178 3500 
L 1178 0 
L 603 0 
L 603 3500 
z
M 603 4863 
L 1178 4863 
L 1178 4134 
L 603 4134 
L 603 4863 
z
" transform="scale(0.015625)"/>
       <path id="DejaVuSans-6d" d="M 3328 2828 
Q 3544 3216 3844 3400 
Q 4144 3584 4550 3584 
Q 5097 3584 5394 3201 
Q 5691 2819 5691 2113 
L 5691 0 
L 5113 0 
L 5113 2094 
Q 5113 2597 4934 2840 
Q 4756 3084 4391 3084 
Q 3944 3084 3684 2787 
Q 3425 2491 3425 1978 
L 3425 0 
L 2847 0 
L 2847 2094 
Q 2847 2600 2669 2842 
Q 2491 3084 2119 3084 
Q 1678 3084 1418 2786 
Q 1159 2488 1159 1978 
L 1159 0 
L 581 0 
L 581 3500 
L 1159 3500 
L 1159 2956 
Q 1356 3278 1631 3431 
Q 1906 3584 2284 3584 
Q 2666 3584 2933 3390 
Q 3200 3197 3328 2828 
z
" transform="scale(0.015625)"/>
       <path id="DejaVuSans-65" d="M 3597 1894 
L 3597 1613 
L 953 1613 
Q 991 1019 1311 708 
Q 1631 397 2203 397 
Q 2534 397 2845 478 
Q 3156 559 3463 722 
L 3463 178 
Q 3153 47 2828 -22 
Q 2503 -91 2169 -91 
Q 1331 -91 842 396 
Q 353 884 353 1716 
Q 353 2575 817 3079 
Q 1281 3584 2069 3584 
Q 2775 3584 3186 3129 
Q 3597 2675 3597 1894 
z
M 3022 2063 
Q 3016 2534 2758 2815 
Q 2500 3097 2075 3097 
Q 1594 3097 1305 2825 
Q 1016 2553 972 2059 
L 3022 2063 
z
" transform="scale(0.015625)"/>
       <path id="DejaVuSans-20" transform="scale(0.015625)"/>
       <path id="DejaVuSans-28" d="M 1984 4856 
Q 1566 4138 1362 3434 
Q 1159 2731 1159 2009 
Q 1159 1288 1364 580 
Q 1569 -128 1984 -844 
L 1484 -844 
Q 1016 -109 783 600 
Q 550 1309 550 2009 
Q 550 2706 781 3412 
Q 1013 4119 1484 4856 
L 1984 4856 
z
" transform="scale(0.015625)"/>
       <path id="DejaVuSans-73" d="M 2834 3397 
L 2834 2853 
Q 2591 2978 2328 3040 
Q 2066 3103 1784 3103 
Q 1356 3103 1142 2972 
Q 928 2841 928 2578 
Q 928 2378 1081 2264 
Q 1234 2150 1697 2047 
L 1894 2003 
Q 2506 1872 2764 1633 
Q 3022 1394 3022 966 
Q 3022 478 2636 193 
Q 2250 -91 1575 -91 
Q 1294 -91 989 -36 
Q 684 19 347 128 
L 347 722 
Q 666 556 975 473 
Q 1284 391 1588 391 
Q 1994 391 2212 530 
Q 2431 669 2431 922 
Q 2431 1156 2273 1281 
Q 2116 1406 1581 1522 
L 1381 1569 
Q 847 1681 609 1914 
Q 372 2147 372 2553 
Q 372 3047 722 3315 
Q 1072 3584 1716 3584 
Q 2034 3584 2315 3537 
Q 2597 3491 2834 3397 
z
" transform="scale(0.015625)"/>
       <path id="DejaVuSans-29" d="M 513 4856 
L 1013 4856 
Q 1481 4119 1714 3412 
Q 1947 2706 1947 2009 
Q 1947 1309 1714 600 
Q 1481 -109 1013 -844 
L 513 -844 
Q 928 -128 1133 580 
Q 1338 1288 1338 2009 
Q 1338 2731 1133 3434 
Q 928 4138 513 4856 
z
" transform="scale(0.015625)"/>
      </defs>
      <use xlink:href="#DejaVuSans-54"/>
      <use xlink:href="#DejaVuSans-69" x="57.958984"/>
      <use xlink:href="#DejaVuSans-6d" x="85.742188"/>
      <use xlink:href="#DejaVuSans-65" x="183.154297"/>
      <use xlink:href="#DejaVuSans-20" x="244.677734"/>
      <use xlink:href="#DejaVuSans-28" x="276.464844"/>
      <use xlink:href="#DejaVuSans-73" x="315.478516"/>
      <use xlink:href="#DejaVuSans-29" x="367.578125"/>
     </g>
    </g>
   </g>
   <g id="matplotlib.axis_2">
    <g id="ytick_1">
     <g id="line2d_7">
      <defs>
       <path id="m62f13a279e" d="M 0 0 
L -3.5 0 
" style="stroke: #000000; stroke-width: 0.8"/>
      </defs>
      <g>
       <use xlink:href="#m62f13a279e" x="56.05" y="149.129798" style="stroke: #000000; stroke-width: 0.8"/>
      </g>
     </g>
     <g id="text_8">
      <!-- −0.2 -->
      <g transform="translate(24.767187 152.929017)scale(0.1 -0.1)">
       <use xlink:href="#DejaVuSans-2212"/>
       <use xlink:href="#DejaVuSans-30" x="83.789062"/>
       <use xlink:href="#DejaVuSans-2e" x="147.412109"/>
       <use xlink:href="#DejaVuSans-32" x="179.199219"/>
      </g>
     </g>
    </g>
    <g id="ytick_2">
     <g id="line2d_8">
      <g>
       <use xlink:href="#m62f13a279e" x="56.05" y="116.114121" style="stroke: #000000; stroke-width: 0.8"/>
      </g>
     </g>
     <g id="text_9">
      <!-- 0.0 -->
      <g transform="translate(33.146875 119.913339)scale(0.1 -0.1)">
       <use xlink:href="#DejaVuSans-30"/>
       <use xlink:href="#DejaVuSans-2e" x="63.623047"/>
       <use xlink:href="#DejaVuSans-30" x="95.410156"/>
      </g>
     </g>
    </g>
    <g id="ytick_3">
     <g id="line2d_9">
      <g>
       <use xlink:href="#m62f13a279e" x="56.05" y="83.098443" style="stroke: #000000; stroke-width: 0.8"/>
      </g>
     </g>
     <g id="text_10">
      <!-- 0.2 -->
      <g transform="translate(33.146875 86.897662)scale(0.1 -0.1)">
       <use xlink:href="#DejaVuSans-30"/>
       <use xlink:href="#DejaVuSans-2e" x="63.623047"/>
       <use xlink:href="#DejaVuSans-32" x="95.410156"/>
      </g>
     </g>
    </g>
    <g id="ytick_4">
     <g id="line2d_10">
      <g>
       <use xlink:href="#m62f13a279e" x="56.05" y="50.082765" style="stroke: #000000; stroke-width: 0.8"/>
      </g>
     </g>
     <g id="text_11">
      <!-- 0.4 -->
      <g transform="translate(33.146875 53.881984)scale(0.1 -0.1)">
       <use xlink:href="#DejaVuSans-30"/>
       <use xlink:href="#DejaVuSans-2e" x="63.623047"/>
       <use xlink:href="#DejaVuSans-34" x="95.410156"/>
      </g>
     </g>
    </g>
    <g id="ytick_5">
     <g id="line2d_11">
      <g>
       <use xlink:href="#m62f13a279e" x="56.05" y="17.067087" style="stroke: #000000; stroke-width: 0.8"/>
      </g>
     </g>
     <g id="text_12">
      <!-- 0.6 -->
      <g transform="translate(33.146875 20.866306)scale(0.1 -0.1)">
       <use xlink:href="#DejaVuSans-30"/>
       <use xlink:href="#DejaVuSans-2e" x="63.623047"/>
       <use xlink:href="#DejaVuSans-36" x="95.410156"/>
      </g>
     </g>
    </g>
    <g id="text_13">
     <!-- Coeff. (a.u.) -->
     <g transform="translate(18.6875 121.775781)rotate(-90)scale(0.1 -0.1)">
      <defs>
       <path id="DejaVuSans-43" d="M 4122 4306 
L 4122 3641 
Q 3803 3938 3442 4084 
Q 3081 4231 2675 4231 
Q 1875 4231 1450 3742 
Q 1025 3253 1025 2328 
Q 1025 1406 1450 917 
Q 1875 428 2675 428 
Q 3081 428 3442 575 
Q 3803 722 4122 1019 
L 4122 359 
Q 3791 134 3420 21 
Q 3050 -91 2638 -91 
Q 1578 -91 968 557 
Q 359 1206 359 2328 
Q 359 3453 968 4101 
Q 1578 4750 2638 4750 
Q 3056 4750 3426 4639 
Q 3797 4528 4122 4306 
z
" transform="scale(0.015625)"/>
       <path id="DejaVuSans-6f" d="M 1959 3097 
Q 1497 3097 1228 2736 
Q 959 2375 959 1747 
Q 959 1119 1226 758 
Q 1494 397 1959 397 
Q 2419 397 2687 759 
Q 2956 1122 2956 1747 
Q 2956 2369 2687 2733 
Q 2419 3097 1959 3097 
z
M 1959 3584 
Q 2709 3584 3137 3096 
Q 3566 2609 3566 1747 
Q 3566 888 3137 398 
Q 2709 -91 1959 -91 
Q 1206 -91 779 398 
Q 353 888 353 1747 
Q 353 2609 779 3096 
Q 1206 3584 1959 3584 
z
" transform="scale(0.015625)"/>
       <path id="DejaVuSans-66" d="M 2375 4863 
L 2375 4384 
L 1825 4384 
Q 1516 4384 1395 4259 
Q 1275 4134 1275 3809 
L 1275 3500 
L 2222 3500 
L 2222 3053 
L 1275 3053 
L 1275 0 
L 697 0 
L 697 3053 
L 147 3053 
L 147 3500 
L 697 3500 
L 697 3744 
Q 697 4328 969 4595 
Q 1241 4863 1831 4863 
L 2375 4863 
z
" transform="scale(0.015625)"/>
       <path id="DejaVuSans-61" d="M 2194 1759 
Q 1497 1759 1228 1600 
Q 959 1441 959 1056 
Q 959 750 1161 570 
Q 1363 391 1709 391 
Q 2188 391 2477 730 
Q 2766 1069 2766 1631 
L 2766 1759 
L 2194 1759 
z
M 3341 1997 
L 3341 0 
L 2766 0 
L 2766 531 
Q 2569 213 2275 61 
Q 1981 -91 1556 -91 
Q 1019 -91 701 211 
Q 384 513 384 1019 
Q 384 1609 779 1909 
Q 1175 2209 1959 2209 
L 2766 2209 
L 2766 2266 
Q 2766 2663 2505 2880 
Q 2244 3097 1772 3097 
Q 1472 3097 1187 3025 
Q 903 2953 641 2809 
L 641 3341 
Q 956 3463 1253 3523 
Q 1550 3584 1831 3584 
Q 2591 3584 2966 3190 
Q 3341 2797 3341 1997 
z
" transform="scale(0.015625)"/>
       <path id="DejaVuSans-75" d="M 544 1381 
L 544 3500 
L 1119 3500 
L 1119 1403 
Q 1119 906 1312 657 
Q 1506 409 1894 409 
Q 2359 409 2629 706 
Q 2900 1003 2900 1516 
L 2900 3500 
L 3475 3500 
L 3475 0 
L 2900 0 
L 2900 538 
Q 2691 219 2414 64 
Q 2138 -91 1772 -91 
Q 1169 -91 856 284 
Q 544 659 544 1381 
z
M 1991 3584 
L 1991 3584 
z
" transform="scale(0.015625)"/>
      </defs>
      <use xlink:href="#DejaVuSans-43"/>
      <use xlink:href="#DejaVuSans-6f" x="69.824219"/>
      <use xlink:href="#DejaVuSans-65" x="131.005859"/>
      <use xlink:href="#DejaVuSans-66" x="192.529297"/>
      <use xlink:href="#DejaVuSans-66" x="227.734375"/>
      <use xlink:href="#DejaVuSans-2e" x="255.689453"/>
      <use xlink:href="#DejaVuSans-20" x="287.476562"/>
      <use xlink:href="#DejaVuSans-28" x="319.263672"/>
      <use xlink:href="#DejaVuSans-61" x="358.277344"/>
      <use xlink:href="#DejaVuSans-2e" x="419.556641"/>
      <use xlink:href="#DejaVuSans-75" x="451.34375"/>
      <use xlink:href="#DejaVuSans-2e" x="514.722656"/>
      <use xlink:href="#DejaVuSans-29" x="546.509766"/>
     </g>
    </g>
   </g>
   <g id="line2d_12">
    <path d="M 56.05 116.177675 
L 88.85 116.139143 
L 197.5 116.029784 
L 199.55 115.784885 
L 201.6 115.246043 
L 203.65 114.333938 
L 205.7 113.068486 
L 209.8 110.243373 
L 211.85 109.394836 
L 213.9 109.523803 
L 215.95 111.056016 
L 218 114.278541 
L 220.05 119.250118 
L 222.1 125.737639 
L 226.2 140.79822 
L 228.25 147.530025 
L 230.3 152.31145 
L 232.35 154.15755 
L 234.4 152.339321 
L 236.45 146.521223 
L 238.5 136.854093 
L 240.55 124.000967 
L 246.7 79.198929 
L 248.75 67.498844 
L 250.8 59.885681 
L 252.85 57.313406 
L 254.9 60.135843 
L 256.95 66.656312 
L 259 75.315638 
L 263.1 95.947509 
L 265.15 106.207098 
L 267.2 115.299774 
L 269.25 122.521111 
L 271.3 127.450844 
L 273.35 129.93277 
L 275.4 130.046204 
L 277.45 128.146878 
L 279.5 124.765285 
L 285.65 112.011128 
L 287.7 108.679735 
L 289.75 106.376518 
L 291.8 105.168493 
L 293.85 104.970091 
L 295.9 105.586922 
L 297.95 106.749315 
L 304.1 110.885754 
L 306.15 111.958612 
L 308.2 112.770929 
L 310.25 113.366269 
L 314.35 114.153897 
L 318.45 114.697407 
L 324.6 115.200326 
L 332.8 115.547575 
L 349.2 115.947067 
L 349.2 115.947067 
" clip-path="url(#p6c3635962c)" style="fill: none; stroke: #1f77b4; stroke-width: 1.5; stroke-linecap: square"/>
   </g>
   <g id="line2d_13">
    <path d="M 56.05 116.147346 
L 72.45 116.031833 
L 99.1 116.116374 
L 121.65 116.091422 
L 170.85 116.093997 
L 174.95 115.949457 
L 177 115.744224 
L 179.05 115.382829 
L 181.1 114.818314 
L 183.15 114.029454 
L 187.25 111.957961 
L 189.3 110.946307 
L 191.35 110.259115 
L 193.4 110.200022 
L 195.45 111.096016 
L 197.5 113.279538 
L 199.55 117.037008 
L 201.6 122.512264 
L 203.65 129.603814 
L 209.8 154.699911 
L 211.85 160.882644 
L 213.9 163.861755 
L 215.95 162.507239 
L 218 156.06342 
L 220.05 144.333354 
L 222.1 127.787719 
L 224.15 107.599559 
L 228.25 63.860171 
L 230.3 44.843717 
L 232.35 30.622944 
L 234.4 22.838418 
L 236.45 22.433153 
L 238.5 29.505675 
L 240.55 43.320325 
L 242.6 62.378371 
L 248.75 128.666025 
L 250.8 145.796281 
L 252.85 157.190452 
L 254.9 161.886125 
L 256.95 161.201706 
L 259 156.498438 
L 261.05 148.512287 
L 263.1 138.293263 
L 267.2 116.067939 
L 269.25 106.395983 
L 271.3 98.883025 
L 273.35 94.019368 
L 275.4 91.927794 
L 277.45 92.389912 
L 279.5 94.917184 
L 281.55 98.851252 
L 285.65 108.121378 
L 287.7 112.249439 
L 289.75 115.50275 
L 291.8 117.721455 
L 293.85 118.926271 
L 295.9 119.276871 
L 297.95 119.015773 
L 300 118.409512 
L 302.05 117.654613 
L 304.1 117.027549 
L 306.15 116.571338 
L 308.2 116.303768 
L 312.3 116.163048 
L 330.75 116.092868 
L 349.2 116.126775 
L 349.2 116.126775 
" clip-path="url(#p6c3635962c)" style="fill: none; stroke: #ff7f0e; stroke-width: 1.5; stroke-linecap: square"/>
   </g>
   <g id="patch_3">
    <path d="M 56.05 174.2 
L 56.05 10.8 
" style="fill: none; stroke: #000000; stroke-width: 0.8; stroke-linejoin: miter; stroke-linecap: square"/>
   </g>
   <g id="patch_4">
    <path d="M 56.05 174.2 
L 349.2 174.2 
" style="fill: none; stroke: #000000; stroke-width: 0.8; stroke-linejoin: miter; stroke-linecap: square"/>
   </g>
   <g id="legend_1">
    <g id="line2d_14">
     <path d="M 65.05 23.898438 
L 75.05 23.898438 
L 85.05 23.898438 
" style="fill: none; stroke: #1f77b4; stroke-width: 1.5; stroke-linecap: square"/>
    </g>
    <g id="text_14">
     <!-- Node count/high surprisal -->
     <g transform="translate(93.05 27.398438)scale(0.1 -0.1)">
      <defs>
       <path id="DejaVuSans-4e" d="M 628 4666 
L 1478 4666 
L 3547 763 
L 3547 4666 
L 4159 4666 
L 4159 0 
L 3309 0 
L 1241 3903 
L 1241 0 
L 628 0 
L 628 4666 
z
" transform="scale(0.015625)"/>
       <path id="DejaVuSans-64" d="M 2906 2969 
L 2906 4863 
L 3481 4863 
L 3481 0 
L 2906 0 
L 2906 525 
Q 2725 213 2448 61 
Q 2172 -91 1784 -91 
Q 1150 -91 751 415 
Q 353 922 353 1747 
Q 353 2572 751 3078 
Q 1150 3584 1784 3584 
Q 2172 3584 2448 3432 
Q 2725 3281 2906 2969 
z
M 947 1747 
Q 947 1113 1208 752 
Q 1469 391 1925 391 
Q 2381 391 2643 752 
Q 2906 1113 2906 1747 
Q 2906 2381 2643 2742 
Q 2381 3103 1925 3103 
Q 1469 3103 1208 2742 
Q 947 2381 947 1747 
z
" transform="scale(0.015625)"/>
       <path id="DejaVuSans-63" d="M 3122 3366 
L 3122 2828 
Q 2878 2963 2633 3030 
Q 2388 3097 2138 3097 
Q 1578 3097 1268 2742 
Q 959 2388 959 1747 
Q 959 1106 1268 751 
Q 1578 397 2138 397 
Q 2388 397 2633 464 
Q 2878 531 3122 666 
L 3122 134 
Q 2881 22 2623 -34 
Q 2366 -91 2075 -91 
Q 1284 -91 818 406 
Q 353 903 353 1747 
Q 353 2603 823 3093 
Q 1294 3584 2113 3584 
Q 2378 3584 2631 3529 
Q 2884 3475 3122 3366 
z
" transform="scale(0.015625)"/>
       <path id="DejaVuSans-6e" d="M 3513 2113 
L 3513 0 
L 2938 0 
L 2938 2094 
Q 2938 2591 2744 2837 
Q 2550 3084 2163 3084 
Q 1697 3084 1428 2787 
Q 1159 2491 1159 1978 
L 1159 0 
L 581 0 
L 581 3500 
L 1159 3500 
L 1159 2956 
Q 1366 3272 1645 3428 
Q 1925 3584 2291 3584 
Q 2894 3584 3203 3211 
Q 3513 2838 3513 2113 
z
" transform="scale(0.015625)"/>
       <path id="DejaVuSans-74" d="M 1172 4494 
L 1172 3500 
L 2356 3500 
L 2356 3053 
L 1172 3053 
L 1172 1153 
Q 1172 725 1289 603 
Q 1406 481 1766 481 
L 2356 481 
L 2356 0 
L 1766 0 
Q 1100 0 847 248 
Q 594 497 594 1153 
L 594 3053 
L 172 3053 
L 172 3500 
L 594 3500 
L 594 4494 
L 1172 4494 
z
" transform="scale(0.015625)"/>
       <path id="DejaVuSans-2f" d="M 1625 4666 
L 2156 4666 
L 531 -594 
L 0 -594 
L 1625 4666 
z
" transform="scale(0.015625)"/>
       <path id="DejaVuSans-68" d="M 3513 2113 
L 3513 0 
L 2938 0 
L 2938 2094 
Q 2938 2591 2744 2837 
Q 2550 3084 2163 3084 
Q 1697 3084 1428 2787 
Q 1159 2491 1159 1978 
L 1159 0 
L 581 0 
L 581 4863 
L 1159 4863 
L 1159 2956 
Q 1366 3272 1645 3428 
Q 1925 3584 2291 3584 
Q 2894 3584 3203 3211 
Q 3513 2838 3513 2113 
z
" transform="scale(0.015625)"/>
       <path id="DejaVuSans-67" d="M 2906 1791 
Q 2906 2416 2648 2759 
Q 2391 3103 1925 3103 
Q 1463 3103 1205 2759 
Q 947 2416 947 1791 
Q 947 1169 1205 825 
Q 1463 481 1925 481 
Q 2391 481 2648 825 
Q 2906 1169 2906 1791 
z
M 3481 434 
Q 3481 -459 3084 -895 
Q 2688 -1331 1869 -1331 
Q 1566 -1331 1297 -1286 
Q 1028 -1241 775 -1147 
L 775 -588 
Q 1028 -725 1275 -790 
Q 1522 -856 1778 -856 
Q 2344 -856 2625 -561 
Q 2906 -266 2906 331 
L 2906 616 
Q 2728 306 2450 153 
Q 2172 0 1784 0 
Q 1141 0 747 490 
Q 353 981 353 1791 
Q 353 2603 747 3093 
Q 1141 3584 1784 3584 
Q 2172 3584 2450 3431 
Q 2728 3278 2906 2969 
L 2906 3500 
L 3481 3500 
L 3481 434 
z
" transform="scale(0.015625)"/>
       <path id="DejaVuSans-72" d="M 2631 2963 
Q 2534 3019 2420 3045 
Q 2306 3072 2169 3072 
Q 1681 3072 1420 2755 
Q 1159 2438 1159 1844 
L 1159 0 
L 581 0 
L 581 3500 
L 1159 3500 
L 1159 2956 
Q 1341 3275 1631 3429 
Q 1922 3584 2338 3584 
Q 2397 3584 2469 3576 
Q 2541 3569 2628 3553 
L 2631 2963 
z
" transform="scale(0.015625)"/>
       <path id="DejaVuSans-70" d="M 1159 525 
L 1159 -1331 
L 581 -1331 
L 581 3500 
L 1159 3500 
L 1159 2969 
Q 1341 3281 1617 3432 
Q 1894 3584 2278 3584 
Q 2916 3584 3314 3078 
Q 3713 2572 3713 1747 
Q 3713 922 3314 415 
Q 2916 -91 2278 -91 
Q 1894 -91 1617 61 
Q 1341 213 1159 525 
z
M 3116 1747 
Q 3116 2381 2855 2742 
Q 2594 3103 2138 3103 
Q 1681 3103 1420 2742 
Q 1159 2381 1159 1747 
Q 1159 1113 1420 752 
Q 1681 391 2138 391 
Q 2594 391 2855 752 
Q 3116 1113 3116 1747 
z
" transform="scale(0.015625)"/>
       <path id="DejaVuSans-6c" d="M 603 4863 
L 1178 4863 
L 1178 0 
L 603 0 
L 603 4863 
z
" transform="scale(0.015625)"/>
      </defs>
      <use xlink:href="#DejaVuSans-4e"/>
      <use xlink:href="#DejaVuSans-6f" x="74.804688"/>
      <use xlink:href="#DejaVuSans-64" x="135.986328"/>
      <use xlink:href="#DejaVuSans-65" x="199.462891"/>
      <use xlink:href="#DejaVuSans-20" x="260.986328"/>
      <use xlink:href="#DejaVuSans-63" x="292.773438"/>
      <use xlink:href="#DejaVuSans-6f" x="347.753906"/>
      <use xlink:href="#DejaVuSans-75" x="408.935547"/>
      <use xlink:href="#DejaVuSans-6e" x="472.314453"/>
      <use xlink:href="#DejaVuSans-74" x="535.693359"/>
      <use xlink:href="#DejaVuSans-2f" x="574.902344"/>
      <use xlink:href="#DejaVuSans-68" x="608.59375"/>
      <use xlink:href="#DejaVuSans-69" x="671.972656"/>
      <use xlink:href="#DejaVuSans-67" x="699.755859"/>
      <use xlink:href="#DejaVuSans-68" x="763.232422"/>
      <use xlink:href="#DejaVuSans-20" x="826.611328"/>
      <use xlink:href="#DejaVuSans-73" x="858.398438"/>
      <use xlink:href="#DejaVuSans-75" x="910.498047"/>
      <use xlink:href="#DejaVuSans-72" x="973.876953"/>
      <use xlink:href="#DejaVuSans-70" x="1014.990234"/>
      <use xlink:href="#DejaVuSans-72" x="1078.466797"/>
      <use xlink:href="#DejaVuSans-69" x="1119.580078"/>
      <use xlink:href="#DejaVuSans-73" x="1147.363281"/>
      <use xlink:href="#DejaVuSans-61" x="1199.462891"/>
      <use xlink:href="#DejaVuSans-6c" x="1260.742188"/>
     </g>
    </g>
    <g id="line2d_15">
     <path d="M 65.05 38.576563 
L 75.05 38.576563 
L 85.05 38.576563 
" style="fill: none; stroke: #ff7f0e; stroke-width: 1.5; stroke-linecap: square"/>
    </g>
    <g id="text_15">
     <!-- Node count/low surprisal -->
     <g transform="translate(93.05 42.076563)scale(0.1 -0.1)">
      <defs>
       <path id="DejaVuSans-77" d="M 269 3500 
L 844 3500 
L 1563 769 
L 2278 3500 
L 2956 3500 
L 3675 769 
L 4391 3500 
L 4966 3500 
L 4050 0 
L 3372 0 
L 2619 2869 
L 1863 0 
L 1184 0 
L 269 3500 
z
" transform="scale(0.015625)"/>
      </defs>
      <use xlink:href="#DejaVuSans-4e"/>
      <use xlink:href="#DejaVuSans-6f" x="74.804688"/>
      <use xlink:href="#DejaVuSans-64" x="135.986328"/>
      <use xlink:href="#DejaVuSans-65" x="199.462891"/>
      <use xlink:href="#DejaVuSans-20" x="260.986328"/>
      <use xlink:href="#DejaVuSans-63" x="292.773438"/>
      <use xlink:href="#DejaVuSans-6f" x="347.753906"/>
      <use xlink:href="#DejaVuSans-75" x="408.935547"/>
      <use xlink:href="#DejaVuSans-6e" x="472.314453"/>
      <use xlink:href="#DejaVuSans-74" x="535.693359"/>
      <use xlink:href="#DejaVuSans-2f" x="574.902344"/>
      <use xlink:href="#DejaVuSans-6c" x="608.59375"/>
      <use xlink:href="#DejaVuSans-6f" x="636.376953"/>
      <use xlink:href="#DejaVuSans-77" x="697.558594"/>
      <use xlink:href="#DejaVuSans-20" x="779.345703"/>
      <use xlink:href="#DejaVuSans-73" x="811.132812"/>
      <use xlink:href="#DejaVuSans-75" x="863.232422"/>
      <use xlink:href="#DejaVuSans-72" x="926.611328"/>
      <use xlink:href="#DejaVuSans-70" x="967.724609"/>
      <use xlink:href="#DejaVuSans-72" x="1031.201172"/>
      <use xlink:href="#DejaVuSans-69" x="1072.314453"/>
      <use xlink:href="#DejaVuSans-73" x="1100.097656"/>
      <use xlink:href="#DejaVuSans-61" x="1152.197266"/>
      <use xlink:href="#DejaVuSans-6c" x="1213.476562"/>
     </g>
    </g>
   </g>
  </g>
 </g>
 <defs>
  <clipPath id="p6c3635962c">
   <rect x="56.05" y="10.8" width="293.15" height="163.4"/>
  </clipPath>
 </defs>
</svg>
