<?xml version="1.0" encoding="utf-8" standalone="no"?>
<!DOCTYPE svg PUBLIC "-//W3C//DTD SVG 1.1//EN"
  "http://www.w3.org/Graphics/SVG/1.1/DTD/svg11.dtd">
<svg xmlns:xlink="http://www.w3.org/1999/xlink" width="360pt" height="216pt" viewBox="0 0 360 216" xmlns="http://www.w3.org/2000/svg" version="1.1">
 <metadata>
  <rdf:RDF xmlns:dc="http://purl.org/dc/elements/1.1/" xmlns:cc="http://creativecommons.org/ns#" xmlns:rdf="http://www.w3.org/1999/02/22-rdf-syntax-ns#">
   <cc:Work>
    <dc:type rdf:resource="http://purl.org/dc/dcmitype/StillImage"/>
    <dc:date>2024-01-26T17:43:43.958467</dc:date>
    <dc:format>image/svg+xml</dc:format>
    <dc:creator>
     <cc:Agent>
      <dc:title>Matplotlib v3.5.1, https://matplotlib.org/</dc:title>
     </cc:Agent>
    </dc:creator>
   </cc:Work>
  </rdf:RDF>
 </metadata>
 <defs>
  <style type="text/css">*{stroke-linejoin: round; stroke-linecap: butt}</style>
 </defs>
 <g id="figure_1">
  <g id="patch_1">
   <path d="M 0 216 
L 360 216 
L 360 0 
L 0 0 
z
" style="fill: #ffffff"/>
  </g>
  <g id="axes_1">
   <g id="patch_2">
    <path d="M 56.05 174.2 
L 349.2 174.2 
L 349.2 10.8 
L 56.05 10.8 
z
" style="fill: #ffffff"/>
   </g>
   <g id="PolyCollection_1">
    <path d="M 56.05 113.318877 
L 56.05 113.742075 
L 58.1 113.717752 
L 60.15 113.693404 
L 62.2 113.669831 
L 64.25 113.649005 
L 66.3 113.632496 
L 68.35 113.619226 
L 70.4 113.608967 
L 72.45 113.600644 
L 74.5 113.593053 
L 76.55 113.585254 
L 78.6 113.576857 
L 80.65 113.568501 
L 82.7 113.561342 
L 84.75 113.556018 
L 86.8 113.552507 
L 88.85 113.550801 
L 90.9 113.550086 
L 92.95 113.549229 
L 95 113.547714 
L 97.05 113.545499 
L 99.1 113.542836 
L 101.15 113.540079 
L 103.2 113.537591 
L 105.25 113.534838 
L 107.3 113.534291 
L 109.35 113.533541 
L 111.4 113.532545 
L 113.45 113.531409 
L 115.5 113.530353 
L 117.55 113.529605 
L 119.6 113.529253 
L 121.65 113.529153 
L 123.7 113.52906 
L 125.75 113.528801 
L 127.8 113.528325 
L 129.85 113.527677 
L 131.9 113.526959 
L 133.95 113.526299 
L 136 113.525835 
L 138.05 113.525665 
L 140.1 113.525671 
L 142.15 113.525658 
L 144.2 113.525572 
L 146.25 113.525435 
L 148.3 113.525286 
L 150.35 113.525158 
L 152.4 113.525068 
L 154.45 113.525021 
L 156.5 113.525001 
L 158.55 113.524992 
L 160.6 113.52499 
L 162.65 113.52499 
L 164.7 113.52499 
L 166.75 113.52499 
L 168.8 113.52499 
L 170.85 113.52499 
L 172.9 113.52499 
L 174.95 113.525367 
L 177 113.509747 
L 179.05 113.381419 
L 181.1 112.987477 
L 183.15 112.190423 
L 185.2 110.947669 
L 187.25 109.372781 
L 189.3 107.764676 
L 191.35 106.601627 
L 193.4 106.533353 
L 195.45 108.223494 
L 197.5 111.981288 
L 199.55 117.806151 
L 201.6 125.360521 
L 203.65 133.931596 
L 205.7 142.47839 
L 207.75 149.754661 
L 209.8 154.508606 
L 211.85 155.736926 
L 213.9 152.898933 
L 215.95 145.742352 
L 218 134.315765 
L 220.05 119.314895 
L 222.1 102.070523 
L 224.15 84.371918 
L 226.2 68.240668 
L 228.25 55.674468 
L 230.3 48.412267 
L 232.35 47.728457 
L 234.4 54.186721 
L 236.45 66.71971 
L 238.5 80.899522 
L 240.55 95.64402 
L 242.6 109.860838 
L 244.65 122.476047 
L 246.7 132.576102 
L 248.75 139.541173 
L 250.8 143.075618 
L 252.85 143.253015 
L 254.9 140.498599 
L 256.95 135.476447 
L 259 128.964252 
L 261.05 121.809977 
L 263.1 114.849944 
L 265.15 108.810721 
L 267.2 104.225401 
L 269.25 101.378209 
L 271.3 100.305296 
L 273.35 100.794847 
L 275.4 102.462377 
L 277.45 104.820046 
L 279.5 107.390388 
L 281.55 109.768558 
L 283.6 111.694413 
L 285.65 113.054839 
L 287.7 113.868439 
L 289.75 114.243025 
L 291.8 114.3309 
L 293.85 114.278728 
L 295.9 114.185988 
L 297.95 114.089151 
L 300 113.998935 
L 302.05 114.007315 
L 304.1 113.931719 
L 306.15 113.869058 
L 308.2 113.816523 
L 310.25 113.773664 
L 312.3 113.737751 
L 314.35 113.706548 
L 316.4 113.681102 
L 318.45 113.660957 
L 320.5 113.645119 
L 322.55 113.631628 
L 324.6 113.61935 
L 326.65 113.607878 
L 328.7 113.59797 
L 330.75 113.58939 
L 332.8 113.582233 
L 334.85 113.577095 
L 336.9 113.572816 
L 338.95 113.568532 
L 341 113.564315 
L 343.05 113.560719 
L 345.1 113.55743 
L 347.15 113.554207 
L 349.2 113.551256 
L 349.2 113.499973 
L 349.2 113.499973 
L 347.15 113.497351 
L 345.1 113.494396 
L 343.05 113.491316 
L 341 113.487582 
L 338.95 113.483389 
L 336.9 113.479335 
L 334.85 113.475796 
L 332.8 113.471632 
L 330.75 113.466227 
L 328.7 113.460151 
L 326.65 113.452957 
L 324.6 113.444986 
L 322.55 113.437066 
L 320.5 113.429577 
L 318.45 113.422007 
L 316.4 113.413654 
L 314.35 113.404776 
L 312.3 113.396218 
L 310.25 113.389357 
L 308.2 113.383266 
L 306.15 113.378583 
L 304.1 113.376081 
L 302.05 113.374099 
L 300 113.471962 
L 297.95 113.481923 
L 295.9 113.489634 
L 293.85 113.483611 
L 291.8 113.424055 
L 289.75 113.209135 
L 287.7 112.691789 
L 285.65 111.725951 
L 283.6 110.212435 
L 281.55 108.146123 
L 279.5 105.651509 
L 277.45 102.984495 
L 275.4 100.507373 
L 273.35 98.655344 
L 271.3 97.882291 
L 269.25 98.591738 
L 267.2 101.050478 
L 265.15 105.310573 
L 263.1 111.138459 
L 261.05 118.020859 
L 259 125.21095 
L 256.95 131.763941 
L 254.9 136.671517 
L 252.85 139.02361 
L 250.8 138.184967 
L 248.75 133.873195 
L 246.7 126.194227 
L 244.65 115.58389 
L 242.6 102.757758 
L 240.55 88.659217 
L 238.5 74.247804 
L 236.45 60.505967 
L 234.4 48.546423 
L 232.35 42.243366 
L 230.3 42.22208 
L 228.25 48.508411 
L 226.2 60.349777 
L 224.15 76.281612 
L 222.1 94.380354 
L 220.05 112.562991 
L 218 128.866786 
L 215.95 141.678565 
L 213.9 149.878468 
L 211.85 152.966472 
L 209.8 151.354592 
L 207.75 146.167889 
L 205.7 138.728856 
L 203.65 130.366133 
L 201.6 122.280259 
L 199.55 115.407838 
L 197.5 110.327566 
L 195.45 107.229921 
L 193.4 105.930739 
L 191.35 106.008418 
L 189.3 107.08288 
L 187.25 108.696437 
L 185.2 110.377827 
L 183.15 111.783029 
L 181.1 112.746258 
L 179.05 113.270598 
L 177 113.475687 
L 174.95 113.520966 
L 172.9 113.52499 
L 170.85 113.52499 
L 168.8 113.52499 
L 166.75 113.52499 
L 164.7 113.52499 
L 162.65 113.52499 
L 160.6 113.52499 
L 158.55 113.524988 
L 156.5 113.524979 
L 154.45 113.524961 
L 152.4 113.524919 
L 150.35 113.524839 
L 148.3 113.524724 
L 146.25 113.524591 
L 144.2 113.52447 
L 142.15 113.524392 
L 140.1 113.524378 
L 138.05 113.524371 
L 136 113.524175 
L 133.95 113.523671 
L 131.9 113.522955 
L 129.85 113.522162 
L 127.8 113.521422 
L 125.75 113.520842 
L 123.7 113.520482 
L 121.65 113.520307 
L 119.6 113.520165 
L 117.55 113.519826 
L 115.5 113.519163 
L 113.45 113.51827 
L 111.4 113.517372 
L 109.35 113.516671 
L 107.3 113.516247 
L 105.25 113.516025 
L 103.2 113.512978 
L 101.15 113.51053 
L 99.1 113.507694 
L 97.05 113.504873 
L 95 113.502471 
L 92.95 113.500656 
L 90.9 113.499269 
L 88.85 113.49787 
L 86.8 113.495532 
L 84.75 113.491355 
L 82.7 113.485369 
L 80.65 113.47784 
L 78.6 113.46947 
L 76.55 113.461694 
L 74.5 113.455176 
L 72.45 113.449701 
L 70.4 113.443794 
L 68.35 113.436157 
L 66.3 113.425 
L 64.25 113.410283 
L 62.2 113.391031 
L 60.15 113.368355 
L 58.1 113.343931 
L 56.05 113.318877 
z
" clip-path="url(#p489cb6bcc7)" style="fill: #1f77b4; fill-opacity: 0.6"/>
   </g>
   <g id="PolyCollection_2">
    <path d="M 56.05 113.315112 
L 56.05 113.728991 
L 58.1 113.704365 
L 60.15 113.682861 
L 62.2 113.663204 
L 64.25 113.645698 
L 66.3 113.630678 
L 68.35 113.618031 
L 70.4 113.608249 
L 72.45 113.601041 
L 74.5 113.595401 
L 76.55 113.590144 
L 78.6 113.584386 
L 80.65 113.577899 
L 82.7 113.57098 
L 84.75 113.564244 
L 86.8 113.558384 
L 88.85 113.554419 
L 90.9 113.552068 
L 92.95 113.550118 
L 95 113.548285 
L 97.05 113.546534 
L 99.1 113.544756 
L 101.15 113.542619 
L 103.2 113.540352 
L 105.25 113.530148 
L 107.3 113.529327 
L 109.35 113.528929 
L 111.4 113.528674 
L 113.45 113.528319 
L 115.5 113.527787 
L 117.55 113.527129 
L 119.6 113.526459 
L 121.65 113.525904 
L 123.7 113.525593 
L 125.75 113.525541 
L 127.8 113.525552 
L 129.85 113.525506 
L 131.9 113.5254 
L 133.95 113.525264 
L 136 113.525137 
L 138.05 113.525046 
L 140.1 113.525 
L 142.15 113.52499 
L 144.2 113.52499 
L 146.25 113.52499 
L 148.3 113.52499 
L 150.35 113.52499 
L 152.4 113.52499 
L 154.45 113.52499 
L 156.5 113.52499 
L 158.55 113.525007 
L 160.6 113.525113 
L 162.65 113.524456 
L 164.7 113.513313 
L 166.75 113.453854 
L 168.8 113.260513 
L 170.85 112.799282 
L 172.9 111.919999 
L 174.95 110.519372 
L 177 108.635336 
L 179.05 106.575587 
L 181.1 104.937975 
L 183.15 104.572957 
L 185.2 106.371225 
L 187.25 110.846252 
L 189.3 118.105405 
L 191.35 127.762828 
L 193.4 138.883976 
L 195.45 150.04634 
L 197.5 159.514114 
L 199.55 165.52703 
L 201.6 166.772727 
L 203.65 162.469613 
L 205.7 151.869246 
L 207.75 135.174168 
L 209.8 113.633066 
L 211.85 89.347539 
L 213.9 65.014904 
L 215.95 43.602543 
L 218 27.959223 
L 220.05 20.558801 
L 222.1 23.3832 
L 224.15 36.121258 
L 226.2 56.30376 
L 228.25 80.557626 
L 230.3 105.224694 
L 232.35 126.949076 
L 234.4 143.203531 
L 236.45 153.101362 
L 238.5 158.788407 
L 240.55 159.988311 
L 242.6 157.054856 
L 244.65 150.259269 
L 246.7 140.466835 
L 248.75 128.977282 
L 250.8 117.219617 
L 252.85 106.537139 
L 254.9 98.011674 
L 256.95 92.347315 
L 259 89.84516 
L 261.05 90.490924 
L 263.1 93.603895 
L 265.15 98.175826 
L 267.2 103.29879 
L 269.25 108.178644 
L 271.3 112.217784 
L 273.35 115.074053 
L 275.4 116.672429 
L 277.45 117.177907 
L 279.5 116.936203 
L 281.55 116.236726 
L 283.6 115.364339 
L 285.65 114.573735 
L 287.7 114.006085 
L 289.75 113.686109 
L 291.8 113.556402 
L 293.85 113.52715 
L 295.9 113.52499 
L 297.95 113.52499 
L 300 113.52499 
L 302.05 113.685152 
L 304.1 113.666266 
L 306.15 113.647756 
L 308.2 113.630365 
L 310.25 113.61524 
L 312.3 113.602915 
L 314.35 113.593177 
L 316.4 113.586557 
L 318.45 113.582041 
L 320.5 113.578401 
L 322.55 113.574302 
L 324.6 113.569275 
L 326.65 113.56343 
L 328.7 113.557575 
L 330.75 113.55234 
L 332.8 113.54838 
L 334.85 113.546325 
L 336.9 113.545396 
L 338.95 113.544573 
L 341 113.543479 
L 343.05 113.542063 
L 345.1 113.540264 
L 347.15 113.538219 
L 349.2 113.536189 
L 349.2 113.513908 
L 349.2 113.513908 
L 347.15 113.511949 
L 345.1 113.509991 
L 343.05 113.508261 
L 341 113.506782 
L 338.95 113.505635 
L 336.9 113.504822 
L 334.85 113.503996 
L 332.8 113.50197 
L 330.75 113.498153 
L 328.7 113.493143 
L 326.65 113.487375 
L 324.6 113.481454 
L 322.55 113.475994 
L 320.5 113.471178 
L 318.45 113.46647 
L 316.4 113.460917 
L 314.35 113.453539 
L 312.3 113.443763 
L 310.25 113.431784 
L 308.2 113.416868 
L 306.15 113.39978 
L 304.1 113.381641 
L 302.05 113.362598 
L 300 113.52499 
L 297.95 113.52499 
L 295.9 113.52499 
L 293.85 113.524313 
L 291.8 113.538943 
L 289.75 113.631829 
L 287.7 113.893017 
L 285.65 114.394967 
L 283.6 115.139212 
L 281.55 116.012472 
L 279.5 116.766876 
L 277.45 117.004009 
L 275.4 116.292419 
L 273.35 114.402448 
L 271.3 111.250439 
L 269.25 106.978802 
L 267.2 101.991797 
L 265.15 96.932518 
L 263.1 92.604716 
L 261.05 89.830601 
L 259 89.184747 
L 256.95 91.131537 
L 254.9 96.114252 
L 252.85 104.040701 
L 250.8 114.328957 
L 248.75 125.980343 
L 246.7 137.691256 
L 244.65 148.014106 
L 242.6 155.533187 
L 240.55 158.953983 
L 238.5 157.275643 
L 236.45 150.687133 
L 234.4 139.647071 
L 232.35 121.791289 
L 230.3 99.006774 
L 228.25 74.131995 
L 226.2 50.569222 
L 224.15 31.829982 
L 222.1 20.691966 
L 220.05 18.227273 
L 218 24.342314 
L 215.95 38.564856 
L 213.9 59.030761 
L 211.85 83.064858 
L 209.8 107.71607 
L 207.75 130.17867 
L 205.7 148.157774 
L 203.65 160.116128 
L 201.6 165.301661 
L 199.55 163.796235 
L 197.5 157.116891 
L 195.45 147.221576 
L 193.4 136.000941 
L 191.35 125.161495 
L 189.3 116.022908 
L 187.25 109.388426 
L 185.2 105.494782 
L 183.15 104.055265 
L 181.1 104.439612 
L 179.05 106.009665 
L 177 108.087837 
L 174.95 110.072444 
L 172.9 111.605996 
L 170.85 112.606989 
L 168.8 113.159539 
L 166.75 113.409925 
L 164.7 113.49825 
L 162.65 113.5208 
L 160.6 113.524609 
L 158.55 113.524971 
L 156.5 113.52499 
L 154.45 113.52499 
L 152.4 113.52499 
L 150.35 113.52499 
L 148.3 113.52499 
L 146.25 113.52499 
L 144.2 113.52499 
L 142.15 113.52499 
L 140.1 113.524981 
L 138.05 113.524939 
L 136 113.524855 
L 133.95 113.52474 
L 131.9 113.524621 
L 129.85 113.524531 
L 127.8 113.524501 
L 125.75 113.524525 
L 123.7 113.524482 
L 121.65 113.524179 
L 119.6 113.523629 
L 117.55 113.522954 
L 115.5 113.522279 
L 113.45 113.521716 
L 111.4 113.521314 
L 109.35 113.520994 
L 107.3 113.52052 
L 105.25 113.519632 
L 103.2 113.5088 
L 101.15 113.506326 
L 99.1 113.504061 
L 97.05 113.502269 
L 95 113.500826 
L 92.95 113.499389 
L 90.9 113.497907 
L 88.85 113.495965 
L 86.8 113.492529 
L 84.75 113.48698 
L 82.7 113.480383 
L 80.65 113.473655 
L 78.6 113.467416 
L 76.55 113.462123 
L 74.5 113.457359 
L 72.45 113.452233 
L 70.4 113.445172 
L 68.35 113.434692 
L 66.3 113.420179 
L 64.25 113.402665 
L 62.2 113.383083 
L 60.15 113.361682 
L 58.1 113.339087 
L 56.05 113.315112 
z
" clip-path="url(#p489cb6bcc7)" style="fill: #ff7f0e; fill-opacity: 0.6"/>
   </g>
   <g id="matplotlib.axis_1">
    <g id="xtick_1">
     <g id="line2d_1">
      <defs>
       <path id="m7e8a26641c" d="M 0 0 
L 0 3.5 
" style="stroke: #000000; stroke-width: 0.8"/>
      </defs>
      <g>
       <use xlink:href="#m7e8a26641c" x="56.05" y="174.2" style="stroke: #000000; stroke-width: 0.8"/>
      </g>
     </g>
     <g id="text_1">
      <!-- −0.2 -->
      <g transform="translate(43.908594 188.798438)scale(0.1 -0.1)">
       <defs>
        <path id="DejaVuSans-2212" d="M 678 2272 
L 4684 2272 
L 4684 1741 
L 678 1741 
L 678 2272 
z
" transform="scale(0.015625)"/>
        <path id="DejaVuSans-30" d="M 2034 4250 
Q 1547 4250 1301 3770 
Q 1056 3291 1056 2328 
Q 1056 1369 1301 889 
Q 1547 409 2034 409 
Q 2525 409 2770 889 
Q 3016 1369 3016 2328 
Q 3016 3291 2770 3770 
Q 2525 4250 2034 4250 
z
M 2034 4750 
Q 2819 4750 3233 4129 
Q 3647 3509 3647 2328 
Q 3647 1150 3233 529 
Q 2819 -91 2034 -91 
Q 1250 -91 836 529 
Q 422 1150 422 2328 
Q 422 3509 836 4129 
Q 1250 4750 2034 4750 
z
" transform="scale(0.015625)"/>
        <path id="DejaVuSans-2e" d="M 684 794 
L 1344 794 
L 1344 0 
L 684 0 
L 684 794 
z
" transform="scale(0.015625)"/>
        <path id="DejaVuSans-32" d="M 1228 531 
L 3431 531 
L 3431 0 
L 469 0 
L 469 531 
Q 828 903 1448 1529 
Q 2069 2156 2228 2338 
Q 2531 2678 2651 2914 
Q 2772 3150 2772 3378 
Q 2772 3750 2511 3984 
Q 2250 4219 1831 4219 
Q 1534 4219 1204 4116 
Q 875 4013 500 3803 
L 500 4441 
Q 881 4594 1212 4672 
Q 1544 4750 1819 4750 
Q 2544 4750 2975 4387 
Q 3406 4025 3406 3419 
Q 3406 3131 3298 2873 
Q 3191 2616 2906 2266 
Q 2828 2175 2409 1742 
Q 1991 1309 1228 531 
z
" transform="scale(0.015625)"/>
       </defs>
       <use xlink:href="#DejaVuSans-2212"/>
       <use xlink:href="#DejaVuSans-30" x="83.789062"/>
       <use xlink:href="#DejaVuSans-2e" x="147.412109"/>
       <use xlink:href="#DejaVuSans-32" x="179.199219"/>
      </g>
     </g>
    </g>
    <g id="xtick_2">
     <g id="line2d_2">
      <g>
       <use xlink:href="#m7e8a26641c" x="105.25" y="174.2" style="stroke: #000000; stroke-width: 0.8"/>
      </g>
     </g>
     <g id="text_2">
      <!-- 0.0 -->
      <g transform="translate(97.298438 188.798438)scale(0.1 -0.1)">
       <use xlink:href="#DejaVuSans-30"/>
       <use xlink:href="#DejaVuSans-2e" x="63.623047"/>
       <use xlink:href="#DejaVuSans-30" x="95.410156"/>
      </g>
     </g>
    </g>
    <g id="xtick_3">
     <g id="line2d_3">
      <g>
       <use xlink:href="#m7e8a26641c" x="154.45" y="174.2" style="stroke: #000000; stroke-width: 0.8"/>
      </g>
     </g>
     <g id="text_3">
      <!-- 0.2 -->
      <g transform="translate(146.498437 188.798438)scale(0.1 -0.1)">
       <use xlink:href="#DejaVuSans-30"/>
       <use xlink:href="#DejaVuSans-2e" x="63.623047"/>
       <use xlink:href="#DejaVuSans-32" x="95.410156"/>
      </g>
     </g>
    </g>
    <g id="xtick_4">
     <g id="line2d_4">
      <g>
       <use xlink:href="#m7e8a26641c" x="203.65" y="174.2" style="stroke: #000000; stroke-width: 0.8"/>
      </g>
     </g>
     <g id="text_4">
      <!-- 0.4 -->
      <g transform="translate(195.698438 188.798438)scale(0.1 -0.1)">
       <defs>
        <path id="DejaVuSans-34" d="M 2419 4116 
L 825 1625 
L 2419 1625 
L 2419 4116 
z
M 2253 4666 
L 3047 4666 
L 3047 1625 
L 3713 1625 
L 3713 1100 
L 3047 1100 
L 3047 0 
L 2419 0 
L 2419 1100 
L 313 1100 
L 313 1709 
L 2253 4666 
z
" transform="scale(0.015625)"/>
       </defs>
       <use xlink:href="#DejaVuSans-30"/>
       <use xlink:href="#DejaVuSans-2e" x="63.623047"/>
       <use xlink:href="#DejaVuSans-34" x="95.410156"/>
      </g>
     </g>
    </g>
    <g id="xtick_5">
     <g id="line2d_5">
      <g>
       <use xlink:href="#m7e8a26641c" x="252.85" y="174.2" style="stroke: #000000; stroke-width: 0.8"/>
      </g>
     </g>
     <g id="text_5">
      <!-- 0.6 -->
      <g transform="translate(244.898438 188.798438)scale(0.1 -0.1)">
       <defs>
        <path id="DejaVuSans-36" d="M 2113 2584 
Q 1688 2584 1439 2293 
Q 1191 2003 1191 1497 
Q 1191 994 1439 701 
Q 1688 409 2113 409 
Q 2538 409 2786 701 
Q 3034 994 3034 1497 
Q 3034 2003 2786 2293 
Q 2538 2584 2113 2584 
z
M 3366 4563 
L 3366 3988 
Q 3128 4100 2886 4159 
Q 2644 4219 2406 4219 
Q 1781 4219 1451 3797 
Q 1122 3375 1075 2522 
Q 1259 2794 1537 2939 
Q 1816 3084 2150 3084 
Q 2853 3084 3261 2657 
Q 3669 2231 3669 1497 
Q 3669 778 3244 343 
Q 2819 -91 2113 -91 
Q 1303 -91 875 529 
Q 447 1150 447 2328 
Q 447 3434 972 4092 
Q 1497 4750 2381 4750 
Q 2619 4750 2861 4703 
Q 3103 4656 3366 4563 
z
" transform="scale(0.015625)"/>
       </defs>
       <use xlink:href="#DejaVuSans-30"/>
       <use xlink:href="#DejaVuSans-2e" x="63.623047"/>
       <use xlink:href="#DejaVuSans-36" x="95.410156"/>
      </g>
     </g>
    </g>
    <g id="xtick_6">
     <g id="line2d_6">
      <g>
       <use xlink:href="#m7e8a26641c" x="302.05" y="174.2" style="stroke: #000000; stroke-width: 0.8"/>
      </g>
     </g>
     <g id="text_6">
      <!-- 0.8 -->
      <g transform="translate(294.098437 188.798438)scale(0.1 -0.1)">
       <defs>
        <path id="DejaVuSans-38" d="M 2034 2216 
Q 1584 2216 1326 1975 
Q 1069 1734 1069 1313 
Q 1069 891 1326 650 
Q 1584 409 2034 409 
Q 2484 409 2743 651 
Q 3003 894 3003 1313 
Q 3003 1734 2745 1975 
Q 2488 2216 2034 2216 
z
M 1403 2484 
Q 997 2584 770 2862 
Q 544 3141 544 3541 
Q 544 4100 942 4425 
Q 1341 4750 2034 4750 
Q 2731 4750 3128 4425 
Q 3525 4100 3525 3541 
Q 3525 3141 3298 2862 
Q 3072 2584 2669 2484 
Q 3125 2378 3379 2068 
Q 3634 1759 3634 1313 
Q 3634 634 3220 271 
Q 2806 -91 2034 -91 
Q 1263 -91 848 271 
Q 434 634 434 1313 
Q 434 1759 690 2068 
Q 947 2378 1403 2484 
z
M 1172 3481 
Q 1172 3119 1398 2916 
Q 1625 2713 2034 2713 
Q 2441 2713 2670 2916 
Q 2900 3119 2900 3481 
Q 2900 3844 2670 4047 
Q 2441 4250 2034 4250 
Q 1625 4250 1398 4047 
Q 1172 3844 1172 3481 
z
" transform="scale(0.015625)"/>
       </defs>
       <use xlink:href="#DejaVuSans-30"/>
       <use xlink:href="#DejaVuSans-2e" x="63.623047"/>
       <use xlink:href="#DejaVuSans-38" x="95.410156"/>
      </g>
     </g>
    </g>
    <g id="text_7">
     <!-- Time (s) -->
     <g transform="translate(182.296094 202.476562)scale(0.1 -0.1)">
      <defs>
       <path id="DejaVuSans-54" d="M -19 4666 
L 3928 4666 
L 3928 4134 
L 2272 4134 
L 2272 0 
L 1638 0 
L 1638 4134 
L -19 4134 
L -19 4666 
z
" transform="scale(0.015625)"/>
       <path id="DejaVuSans-69" d="M 603 3500 
L 1178 3500 
L 1178 0 
L 603 0 
L 603 3500 
z
M 603 4863 
L 1178 4863 
L 1178 4134 
L 603 4134 
L 603 4863 
z
" transform="scale(0.015625)"/>
       <path id="DejaVuSans-6d" d="M 3328 2828 
Q 3544 3216 3844 3400 
Q 4144 3584 4550 3584 
Q 5097 3584 5394 3201 
Q 5691 2819 5691 2113 
L 5691 0 
L 5113 0 
L 5113 2094 
Q 5113 2597 4934 2840 
Q 4756 3084 4391 3084 
Q 3944 3084 3684 2787 
Q 3425 2491 3425 1978 
L 3425 0 
L 2847 0 
L 2847 2094 
Q 2847 2600 2669 2842 
Q 2491 3084 2119 3084 
Q 1678 3084 1418 2786 
Q 1159 2488 1159 1978 
L 1159 0 
L 581 0 
L 581 3500 
L 1159 3500 
L 1159 2956 
Q 1356 3278 1631 3431 
Q 1906 3584 2284 3584 
Q 2666 3584 2933 3390 
Q 3200 3197 3328 2828 
z
" transform="scale(0.015625)"/>
       <path id="DejaVuSans-65" d="M 3597 1894 
L 3597 1613 
L 953 1613 
Q 991 1019 1311 708 
Q 1631 397 2203 397 
Q 2534 397 2845 478 
Q 3156 559 3463 722 
L 3463 178 
Q 3153 47 2828 -22 
Q 2503 -91 2169 -91 
Q 1331 -91 842 396 
Q 353 884 353 1716 
Q 353 2575 817 3079 
Q 1281 3584 2069 3584 
Q 2775 3584 3186 3129 
Q 3597 2675 3597 1894 
z
M 3022 2063 
Q 3016 2534 2758 2815 
Q 2500 3097 2075 3097 
Q 1594 3097 1305 2825 
Q 1016 2553 972 2059 
L 3022 2063 
z
" transform="scale(0.015625)"/>
       <path id="DejaVuSans-20" transform="scale(0.015625)"/>
       <path id="DejaVuSans-28" d="M 1984 4856 
Q 1566 4138 1362 3434 
Q 1159 2731 1159 2009 
Q 1159 1288 1364 580 
Q 1569 -128 1984 -844 
L 1484 -844 
Q 1016 -109 783 600 
Q 550 1309 550 2009 
Q 550 2706 781 3412 
Q 1013 4119 1484 4856 
L 1984 4856 
z
" transform="scale(0.015625)"/>
       <path id="DejaVuSans-73" d="M 2834 3397 
L 2834 2853 
Q 2591 2978 2328 3040 
Q 2066 3103 1784 3103 
Q 1356 3103 1142 2972 
Q 928 2841 928 2578 
Q 928 2378 1081 2264 
Q 1234 2150 1697 2047 
L 1894 2003 
Q 2506 1872 2764 1633 
Q 3022 1394 3022 966 
Q 3022 478 2636 193 
Q 2250 -91 1575 -91 
Q 1294 -91 989 -36 
Q 684 19 347 128 
L 347 722 
Q 666 556 975 473 
Q 1284 391 1588 391 
Q 1994 391 2212 530 
Q 2431 669 2431 922 
Q 2431 1156 2273 1281 
Q 2116 1406 1581 1522 
L 1381 1569 
Q 847 1681 609 1914 
Q 372 2147 372 2553 
Q 372 3047 722 3315 
Q 1072 3584 1716 3584 
Q 2034 3584 2315 3537 
Q 2597 3491 2834 3397 
z
" transform="scale(0.015625)"/>
       <path id="DejaVuSans-29" d="M 513 4856 
L 1013 4856 
Q 1481 4119 1714 3412 
Q 1947 2706 1947 2009 
Q 1947 1309 1714 600 
Q 1481 -109 1013 -844 
L 513 -844 
Q 928 -128 1133 580 
Q 1338 1288 1338 2009 
Q 1338 2731 1133 3434 
Q 928 4138 513 4856 
z
" transform="scale(0.015625)"/>
      </defs>
      <use xlink:href="#DejaVuSans-54"/>
      <use xlink:href="#DejaVuSans-69" x="57.958984"/>
      <use xlink:href="#DejaVuSans-6d" x="85.742188"/>
      <use xlink:href="#DejaVuSans-65" x="183.154297"/>
      <use xlink:href="#DejaVuSans-20" x="244.677734"/>
      <use xlink:href="#DejaVuSans-28" x="276.464844"/>
      <use xlink:href="#DejaVuSans-73" x="315.478516"/>
      <use xlink:href="#DejaVuSans-29" x="367.578125"/>
     </g>
    </g>
   </g>
   <g id="matplotlib.axis_2">
    <g id="ytick_1">
     <g id="line2d_7">
      <defs>
       <path id="md38de15b10" d="M 0 0 
L -3.5 0 
" style="stroke: #000000; stroke-width: 0.8"/>
      </defs>
      <g>
       <use xlink:href="#md38de15b10" x="56.05" y="159.118322" style="stroke: #000000; stroke-width: 0.8"/>
      </g>
     </g>
     <g id="text_8">
      <!-- −0.4 -->
      <g transform="translate(24.767187 162.917541)scale(0.1 -0.1)">
       <use xlink:href="#DejaVuSans-2212"/>
       <use xlink:href="#DejaVuSans-30" x="83.789062"/>
       <use xlink:href="#DejaVuSans-2e" x="147.412109"/>
       <use xlink:href="#DejaVuSans-34" x="179.199219"/>
      </g>
     </g>
    </g>
    <g id="ytick_2">
     <g id="line2d_8">
      <g>
       <use xlink:href="#md38de15b10" x="56.05" y="136.321656" style="stroke: #000000; stroke-width: 0.8"/>
      </g>
     </g>
     <g id="text_9">
      <!-- −0.2 -->
      <g transform="translate(24.767187 140.120875)scale(0.1 -0.1)">
       <use xlink:href="#DejaVuSans-2212"/>
       <use xlink:href="#DejaVuSans-30" x="83.789062"/>
       <use xlink:href="#DejaVuSans-2e" x="147.412109"/>
       <use xlink:href="#DejaVuSans-32" x="179.199219"/>
      </g>
     </g>
    </g>
    <g id="ytick_3">
     <g id="line2d_9">
      <g>
       <use xlink:href="#md38de15b10" x="56.05" y="113.52499" style="stroke: #000000; stroke-width: 0.8"/>
      </g>
     </g>
     <g id="text_10">
      <!-- 0.0 -->
      <g transform="translate(33.146875 117.324209)scale(0.1 -0.1)">
       <use xlink:href="#DejaVuSans-30"/>
       <use xlink:href="#DejaVuSans-2e" x="63.623047"/>
       <use xlink:href="#DejaVuSans-30" x="95.410156"/>
      </g>
     </g>
    </g>
    <g id="ytick_4">
     <g id="line2d_10">
      <g>
       <use xlink:href="#md38de15b10" x="56.05" y="90.728324" style="stroke: #000000; stroke-width: 0.8"/>
      </g>
     </g>
     <g id="text_11">
      <!-- 0.2 -->
      <g transform="translate(33.146875 94.527543)scale(0.1 -0.1)">
       <use xlink:href="#DejaVuSans-30"/>
       <use xlink:href="#DejaVuSans-2e" x="63.623047"/>
       <use xlink:href="#DejaVuSans-32" x="95.410156"/>
      </g>
     </g>
    </g>
    <g id="ytick_5">
     <g id="line2d_11">
      <g>
       <use xlink:href="#md38de15b10" x="56.05" y="67.931658" style="stroke: #000000; stroke-width: 0.8"/>
      </g>
     </g>
     <g id="text_12">
      <!-- 0.4 -->
      <g transform="translate(33.146875 71.730876)scale(0.1 -0.1)">
       <use xlink:href="#DejaVuSans-30"/>
       <use xlink:href="#DejaVuSans-2e" x="63.623047"/>
       <use xlink:href="#DejaVuSans-34" x="95.410156"/>
      </g>
     </g>
    </g>
    <g id="ytick_6">
     <g id="line2d_12">
      <g>
       <use xlink:href="#md38de15b10" x="56.05" y="45.134992" style="stroke: #000000; stroke-width: 0.8"/>
      </g>
     </g>
     <g id="text_13">
      <!-- 0.6 -->
      <g transform="translate(33.146875 48.93421)scale(0.1 -0.1)">
       <use xlink:href="#DejaVuSans-30"/>
       <use xlink:href="#DejaVuSans-2e" x="63.623047"/>
       <use xlink:href="#DejaVuSans-36" x="95.410156"/>
      </g>
     </g>
    </g>
    <g id="ytick_7">
     <g id="line2d_13">
      <g>
       <use xlink:href="#md38de15b10" x="56.05" y="22.338325" style="stroke: #000000; stroke-width: 0.8"/>
      </g>
     </g>
     <g id="text_14">
      <!-- 0.8 -->
      <g transform="translate(33.146875 26.137544)scale(0.1 -0.1)">
       <use xlink:href="#DejaVuSans-30"/>
       <use xlink:href="#DejaVuSans-2e" x="63.623047"/>
       <use xlink:href="#DejaVuSans-38" x="95.410156"/>
      </g>
     </g>
    </g>
    <g id="text_15">
     <!-- Coeff. (a.u.) -->
     <g transform="translate(18.6875 121.775781)rotate(-90)scale(0.1 -0.1)">
      <defs>
       <path id="DejaVuSans-43" d="M 4122 4306 
L 4122 3641 
Q 3803 3938 3442 4084 
Q 3081 4231 2675 4231 
Q 1875 4231 1450 3742 
Q 1025 3253 1025 2328 
Q 1025 1406 1450 917 
Q 1875 428 2675 428 
Q 3081 428 3442 575 
Q 3803 722 4122 1019 
L 4122 359 
Q 3791 134 3420 21 
Q 3050 -91 2638 -91 
Q 1578 -91 968 557 
Q 359 1206 359 2328 
Q 359 3453 968 4101 
Q 1578 4750 2638 4750 
Q 3056 4750 3426 4639 
Q 3797 4528 4122 4306 
z
" transform="scale(0.015625)"/>
       <path id="DejaVuSans-6f" d="M 1959 3097 
Q 1497 3097 1228 2736 
Q 959 2375 959 1747 
Q 959 1119 1226 758 
Q 1494 397 1959 397 
Q 2419 397 2687 759 
Q 2956 1122 2956 1747 
Q 2956 2369 2687 2733 
Q 2419 3097 1959 3097 
z
M 1959 3584 
Q 2709 3584 3137 3096 
Q 3566 2609 3566 1747 
Q 3566 888 3137 398 
Q 2709 -91 1959 -91 
Q 1206 -91 779 398 
Q 353 888 353 1747 
Q 353 2609 779 3096 
Q 1206 3584 1959 3584 
z
" transform="scale(0.015625)"/>
       <path id="DejaVuSans-66" d="M 2375 4863 
L 2375 4384 
L 1825 4384 
Q 1516 4384 1395 4259 
Q 1275 4134 1275 3809 
L 1275 3500 
L 2222 3500 
L 2222 3053 
L 1275 3053 
L 1275 0 
L 697 0 
L 697 3053 
L 147 3053 
L 147 3500 
L 697 3500 
L 697 3744 
Q 697 4328 969 4595 
Q 1241 4863 1831 4863 
L 2375 4863 
z
" transform="scale(0.015625)"/>
       <path id="DejaVuSans-61" d="M 2194 1759 
Q 1497 1759 1228 1600 
Q 959 1441 959 1056 
Q 959 750 1161 570 
Q 1363 391 1709 391 
Q 2188 391 2477 730 
Q 2766 1069 2766 1631 
L 2766 1759 
L 2194 1759 
z
M 3341 1997 
L 3341 0 
L 2766 0 
L 2766 531 
Q 2569 213 2275 61 
Q 1981 -91 1556 -91 
Q 1019 -91 701 211 
Q 384 513 384 1019 
Q 384 1609 779 1909 
Q 1175 2209 1959 2209 
L 2766 2209 
L 2766 2266 
Q 2766 2663 2505 2880 
Q 2244 3097 1772 3097 
Q 1472 3097 1187 3025 
Q 903 2953 641 2809 
L 641 3341 
Q 956 3463 1253 3523 
Q 1550 3584 1831 3584 
Q 2591 3584 2966 3190 
Q 3341 2797 3341 1997 
z
" transform="scale(0.015625)"/>
       <path id="DejaVuSans-75" d="M 544 1381 
L 544 3500 
L 1119 3500 
L 1119 1403 
Q 1119 906 1312 657 
Q 1506 409 1894 409 
Q 2359 409 2629 706 
Q 2900 1003 2900 1516 
L 2900 3500 
L 3475 3500 
L 3475 0 
L 2900 0 
L 2900 538 
Q 2691 219 2414 64 
Q 2138 -91 1772 -91 
Q 1169 -91 856 284 
Q 544 659 544 1381 
z
M 1991 3584 
L 1991 3584 
z
" transform="scale(0.015625)"/>
      </defs>
      <use xlink:href="#DejaVuSans-43"/>
      <use xlink:href="#DejaVuSans-6f" x="69.824219"/>
      <use xlink:href="#DejaVuSans-65" x="131.005859"/>
      <use xlink:href="#DejaVuSans-66" x="192.529297"/>
      <use xlink:href="#DejaVuSans-66" x="227.734375"/>
      <use xlink:href="#DejaVuSans-2e" x="255.689453"/>
      <use xlink:href="#DejaVuSans-20" x="287.476562"/>
      <use xlink:href="#DejaVuSans-28" x="319.263672"/>
      <use xlink:href="#DejaVuSans-61" x="358.277344"/>
      <use xlink:href="#DejaVuSans-2e" x="419.556641"/>
      <use xlink:href="#DejaVuSans-75" x="451.34375"/>
      <use xlink:href="#DejaVuSans-2e" x="514.722656"/>
      <use xlink:href="#DejaVuSans-29" x="546.509766"/>
     </g>
    </g>
   </g>
   <g id="line2d_14">
    <path d="M 56.05 113.530476 
L 177 113.492717 
L 179.05 113.326009 
L 181.1 112.866868 
L 183.15 111.986726 
L 185.2 110.662748 
L 189.3 107.423778 
L 191.35 106.305023 
L 193.4 106.232046 
L 195.45 107.726707 
L 197.5 111.154427 
L 199.55 116.606995 
L 201.6 123.82039 
L 205.7 140.603623 
L 207.75 147.961275 
L 209.8 152.931599 
L 211.85 154.351699 
L 213.9 151.388701 
L 215.95 143.710459 
L 218 131.591276 
L 220.05 115.938943 
L 224.15 80.326765 
L 226.2 64.295222 
L 228.25 52.09144 
L 230.3 45.317174 
L 232.35 44.985912 
L 234.4 51.366572 
L 236.45 63.612839 
L 240.55 92.151619 
L 242.6 106.309298 
L 244.65 119.029968 
L 246.7 129.385165 
L 248.75 136.707184 
L 250.8 140.630293 
L 252.85 141.138313 
L 254.9 138.585058 
L 256.95 133.620194 
L 259 127.087601 
L 263.1 112.994202 
L 265.15 107.060647 
L 267.2 102.637939 
L 269.25 99.984973 
L 271.3 99.093793 
L 273.35 99.725096 
L 275.4 101.484875 
L 277.45 103.90227 
L 279.5 106.520949 
L 281.55 108.95734 
L 283.6 110.953424 
L 285.65 112.390395 
L 287.7 113.280114 
L 289.75 113.72608 
L 291.8 113.877478 
L 297.95 113.785537 
L 310.25 113.58151 
L 332.8 113.526932 
L 349.2 113.525614 
L 349.2 113.525614 
" clip-path="url(#p489cb6bcc7)" style="fill: none; stroke: #1f77b4; stroke-width: 1.5; stroke-linecap: square"/>
   </g>
   <g id="line2d_15">
    <path d="M 56.05 113.522051 
L 166.75 113.431889 
L 168.8 113.210026 
L 170.85 112.703136 
L 172.9 111.762998 
L 174.95 110.295908 
L 179.05 106.292626 
L 181.1 104.688794 
L 183.15 104.314111 
L 185.2 105.933003 
L 187.25 110.117339 
L 189.3 117.064156 
L 191.35 126.462161 
L 195.45 148.633958 
L 197.5 158.315502 
L 199.55 164.661633 
L 201.6 166.037194 
L 203.65 161.29287 
L 205.7 150.01351 
L 207.75 132.676419 
L 209.8 110.674568 
L 213.9 62.022833 
L 215.95 41.0837 
L 218 26.150769 
L 220.05 19.393037 
L 222.1 22.037583 
L 224.15 33.97562 
L 226.2 53.436491 
L 232.35 124.370182 
L 234.4 141.425301 
L 236.45 151.894248 
L 238.5 158.032025 
L 240.55 159.471147 
L 242.6 156.294021 
L 244.65 149.136688 
L 246.7 139.079045 
L 250.8 115.774287 
L 252.85 105.28892 
L 254.9 97.062963 
L 256.95 91.739426 
L 259 89.514954 
L 261.05 90.160763 
L 263.1 93.104305 
L 265.15 97.554172 
L 269.25 107.578723 
L 271.3 111.734112 
L 273.35 114.738251 
L 275.4 116.482424 
L 277.45 117.090958 
L 279.5 116.851539 
L 281.55 116.124599 
L 285.65 114.484351 
L 287.7 113.949551 
L 289.75 113.658969 
L 293.85 113.525731 
L 349.2 113.525048 
L 349.2 113.525048 
" clip-path="url(#p489cb6bcc7)" style="fill: none; stroke: #ff7f0e; stroke-width: 1.5; stroke-linecap: square"/>
   </g>
   <g id="patch_3">
    <path d="M 56.05 174.2 
L 56.05 10.8 
" style="fill: none; stroke: #000000; stroke-width: 0.8; stroke-linejoin: miter; stroke-linecap: square"/>
   </g>
   <g id="patch_4">
    <path d="M 56.05 174.2 
L 349.2 174.2 
" style="fill: none; stroke: #000000; stroke-width: 0.8; stroke-linejoin: miter; stroke-linecap: square"/>
   </g>
   <g id="legend_1">
    <g id="line2d_16">
     <path d="M 65.05 23.898438 
L 75.05 23.898438 
L 85.05 23.898438 
" style="fill: none; stroke: #1f77b4; stroke-width: 1.5; stroke-linecap: square"/>
    </g>
    <g id="text_16">
     <!-- Node count/high surprisal -->
     <g transform="translate(93.05 27.398438)scale(0.1 -0.1)">
      <defs>
       <path id="DejaVuSans-4e" d="M 628 4666 
L 1478 4666 
L 3547 763 
L 3547 4666 
L 4159 4666 
L 4159 0 
L 3309 0 
L 1241 3903 
L 1241 0 
L 628 0 
L 628 4666 
z
" transform="scale(0.015625)"/>
       <path id="DejaVuSans-64" d="M 2906 2969 
L 2906 4863 
L 3481 4863 
L 3481 0 
L 2906 0 
L 2906 525 
Q 2725 213 2448 61 
Q 2172 -91 1784 -91 
Q 1150 -91 751 415 
Q 353 922 353 1747 
Q 353 2572 751 3078 
Q 1150 3584 1784 3584 
Q 2172 3584 2448 3432 
Q 2725 3281 2906 2969 
z
M 947 1747 
Q 947 1113 1208 752 
Q 1469 391 1925 391 
Q 2381 391 2643 752 
Q 2906 1113 2906 1747 
Q 2906 2381 2643 2742 
Q 2381 3103 1925 3103 
Q 1469 3103 1208 2742 
Q 947 2381 947 1747 
z
" transform="scale(0.015625)"/>
       <path id="DejaVuSans-63" d="M 3122 3366 
L 3122 2828 
Q 2878 2963 2633 3030 
Q 2388 3097 2138 3097 
Q 1578 3097 1268 2742 
Q 959 2388 959 1747 
Q 959 1106 1268 751 
Q 1578 397 2138 397 
Q 2388 397 2633 464 
Q 2878 531 3122 666 
L 3122 134 
Q 2881 22 2623 -34 
Q 2366 -91 2075 -91 
Q 1284 -91 818 406 
Q 353 903 353 1747 
Q 353 2603 823 3093 
Q 1294 3584 2113 3584 
Q 2378 3584 2631 3529 
Q 2884 3475 3122 3366 
z
" transform="scale(0.015625)"/>
       <path id="DejaVuSans-6e" d="M 3513 2113 
L 3513 0 
L 2938 0 
L 2938 2094 
Q 2938 2591 2744 2837 
Q 2550 3084 2163 3084 
Q 1697 3084 1428 2787 
Q 1159 2491 1159 1978 
L 1159 0 
L 581 0 
L 581 3500 
L 1159 3500 
L 1159 2956 
Q 1366 3272 1645 3428 
Q 1925 3584 2291 3584 
Q 2894 3584 3203 3211 
Q 3513 2838 3513 2113 
z
" transform="scale(0.015625)"/>
       <path id="DejaVuSans-74" d="M 1172 4494 
L 1172 3500 
L 2356 3500 
L 2356 3053 
L 1172 3053 
L 1172 1153 
Q 1172 725 1289 603 
Q 1406 481 1766 481 
L 2356 481 
L 2356 0 
L 1766 0 
Q 1100 0 847 248 
Q 594 497 594 1153 
L 594 3053 
L 172 3053 
L 172 3500 
L 594 3500 
L 594 4494 
L 1172 4494 
z
" transform="scale(0.015625)"/>
       <path id="DejaVuSans-2f" d="M 1625 4666 
L 2156 4666 
L 531 -594 
L 0 -594 
L 1625 4666 
z
" transform="scale(0.015625)"/>
       <path id="DejaVuSans-68" d="M 3513 2113 
L 3513 0 
L 2938 0 
L 2938 2094 
Q 2938 2591 2744 2837 
Q 2550 3084 2163 3084 
Q 1697 3084 1428 2787 
Q 1159 2491 1159 1978 
L 1159 0 
L 581 0 
L 581 4863 
L 1159 4863 
L 1159 2956 
Q 1366 3272 1645 3428 
Q 1925 3584 2291 3584 
Q 2894 3584 3203 3211 
Q 3513 2838 3513 2113 
z
" transform="scale(0.015625)"/>
       <path id="DejaVuSans-67" d="M 2906 1791 
Q 2906 2416 2648 2759 
Q 2391 3103 1925 3103 
Q 1463 3103 1205 2759 
Q 947 2416 947 1791 
Q 947 1169 1205 825 
Q 1463 481 1925 481 
Q 2391 481 2648 825 
Q 2906 1169 2906 1791 
z
M 3481 434 
Q 3481 -459 3084 -895 
Q 2688 -1331 1869 -1331 
Q 1566 -1331 1297 -1286 
Q 1028 -1241 775 -1147 
L 775 -588 
Q 1028 -725 1275 -790 
Q 1522 -856 1778 -856 
Q 2344 -856 2625 -561 
Q 2906 -266 2906 331 
L 2906 616 
Q 2728 306 2450 153 
Q 2172 0 1784 0 
Q 1141 0 747 490 
Q 353 981 353 1791 
Q 353 2603 747 3093 
Q 1141 3584 1784 3584 
Q 2172 3584 2450 3431 
Q 2728 3278 2906 2969 
L 2906 3500 
L 3481 3500 
L 3481 434 
z
" transform="scale(0.015625)"/>
       <path id="DejaVuSans-72" d="M 2631 2963 
Q 2534 3019 2420 3045 
Q 2306 3072 2169 3072 
Q 1681 3072 1420 2755 
Q 1159 2438 1159 1844 
L 1159 0 
L 581 0 
L 581 3500 
L 1159 3500 
L 1159 2956 
Q 1341 3275 1631 3429 
Q 1922 3584 2338 3584 
Q 2397 3584 2469 3576 
Q 2541 3569 2628 3553 
L 2631 2963 
z
" transform="scale(0.015625)"/>
       <path id="DejaVuSans-70" d="M 1159 525 
L 1159 -1331 
L 581 -1331 
L 581 3500 
L 1159 3500 
L 1159 2969 
Q 1341 3281 1617 3432 
Q 1894 3584 2278 3584 
Q 2916 3584 3314 3078 
Q 3713 2572 3713 1747 
Q 3713 922 3314 415 
Q 2916 -91 2278 -91 
Q 1894 -91 1617 61 
Q 1341 213 1159 525 
z
M 3116 1747 
Q 3116 2381 2855 2742 
Q 2594 3103 2138 3103 
Q 1681 3103 1420 2742 
Q 1159 2381 1159 1747 
Q 1159 1113 1420 752 
Q 1681 391 2138 391 
Q 2594 391 2855 752 
Q 3116 1113 3116 1747 
z
" transform="scale(0.015625)"/>
       <path id="DejaVuSans-6c" d="M 603 4863 
L 1178 4863 
L 1178 0 
L 603 0 
L 603 4863 
z
" transform="scale(0.015625)"/>
      </defs>
      <use xlink:href="#DejaVuSans-4e"/>
      <use xlink:href="#DejaVuSans-6f" x="74.804688"/>
      <use xlink:href="#DejaVuSans-64" x="135.986328"/>
      <use xlink:href="#DejaVuSans-65" x="199.462891"/>
      <use xlink:href="#DejaVuSans-20" x="260.986328"/>
      <use xlink:href="#DejaVuSans-63" x="292.773438"/>
      <use xlink:href="#DejaVuSans-6f" x="347.753906"/>
      <use xlink:href="#DejaVuSans-75" x="408.935547"/>
      <use xlink:href="#DejaVuSans-6e" x="472.314453"/>
      <use xlink:href="#DejaVuSans-74" x="535.693359"/>
      <use xlink:href="#DejaVuSans-2f" x="574.902344"/>
      <use xlink:href="#DejaVuSans-68" x="608.59375"/>
      <use xlink:href="#DejaVuSans-69" x="671.972656"/>
      <use xlink:href="#DejaVuSans-67" x="699.755859"/>
      <use xlink:href="#DejaVuSans-68" x="763.232422"/>
      <use xlink:href="#DejaVuSans-20" x="826.611328"/>
      <use xlink:href="#DejaVuSans-73" x="858.398438"/>
      <use xlink:href="#DejaVuSans-75" x="910.498047"/>
      <use xlink:href="#DejaVuSans-72" x="973.876953"/>
      <use xlink:href="#DejaVuSans-70" x="1014.990234"/>
      <use xlink:href="#DejaVuSans-72" x="1078.466797"/>
      <use xlink:href="#DejaVuSans-69" x="1119.580078"/>
      <use xlink:href="#DejaVuSans-73" x="1147.363281"/>
      <use xlink:href="#DejaVuSans-61" x="1199.462891"/>
      <use xlink:href="#DejaVuSans-6c" x="1260.742188"/>
     </g>
    </g>
    <g id="line2d_17">
     <path d="M 65.05 38.576563 
L 75.05 38.576563 
L 85.05 38.576563 
" style="fill: none; stroke: #ff7f0e; stroke-width: 1.5; stroke-linecap: square"/>
    </g>
    <g id="text_17">
     <!-- Node count/low surprisal -->
     <g transform="translate(93.05 42.076563)scale(0.1 -0.1)">
      <defs>
       <path id="DejaVuSans-77" d="M 269 3500 
L 844 3500 
L 1563 769 
L 2278 3500 
L 2956 3500 
L 3675 769 
L 4391 3500 
L 4966 3500 
L 4050 0 
L 3372 0 
L 2619 2869 
L 1863 0 
L 1184 0 
L 269 3500 
z
" transform="scale(0.015625)"/>
      </defs>
      <use xlink:href="#DejaVuSans-4e"/>
      <use xlink:href="#DejaVuSans-6f" x="74.804688"/>
      <use xlink:href="#DejaVuSans-64" x="135.986328"/>
      <use xlink:href="#DejaVuSans-65" x="199.462891"/>
      <use xlink:href="#DejaVuSans-20" x="260.986328"/>
      <use xlink:href="#DejaVuSans-63" x="292.773438"/>
      <use xlink:href="#DejaVuSans-6f" x="347.753906"/>
      <use xlink:href="#DejaVuSans-75" x="408.935547"/>
      <use xlink:href="#DejaVuSans-6e" x="472.314453"/>
      <use xlink:href="#DejaVuSans-74" x="535.693359"/>
      <use xlink:href="#DejaVuSans-2f" x="574.902344"/>
      <use xlink:href="#DejaVuSans-6c" x="608.59375"/>
      <use xlink:href="#DejaVuSans-6f" x="636.376953"/>
      <use xlink:href="#DejaVuSans-77" x="697.558594"/>
      <use xlink:href="#DejaVuSans-20" x="779.345703"/>
      <use xlink:href="#DejaVuSans-73" x="811.132812"/>
      <use xlink:href="#DejaVuSans-75" x="863.232422"/>
      <use xlink:href="#DejaVuSans-72" x="926.611328"/>
      <use xlink:href="#DejaVuSans-70" x="967.724609"/>
      <use xlink:href="#DejaVuSans-72" x="1031.201172"/>
      <use xlink:href="#DejaVuSans-69" x="1072.314453"/>
      <use xlink:href="#DejaVuSans-73" x="1100.097656"/>
      <use xlink:href="#DejaVuSans-61" x="1152.197266"/>
      <use xlink:href="#DejaVuSans-6c" x="1213.476562"/>
     </g>
    </g>
   </g>
  </g>
 </g>
 <defs>
  <clipPath id="p489cb6bcc7">
   <rect x="56.05" y="10.8" width="293.15" height="163.4"/>
  </clipPath>
 </defs>
</svg>
