<?xml version="1.0" encoding="utf-8" standalone="no"?>
<!DOCTYPE svg PUBLIC "-//W3C//DTD SVG 1.1//EN"
  "http://www.w3.org/Graphics/SVG/1.1/DTD/svg11.dtd">
<svg xmlns:xlink="http://www.w3.org/1999/xlink" width="360pt" height="216pt" viewBox="0 0 360 216" xmlns="http://www.w3.org/2000/svg" version="1.1">
 <metadata>
  <rdf:RDF xmlns:dc="http://purl.org/dc/elements/1.1/" xmlns:cc="http://creativecommons.org/ns#" xmlns:rdf="http://www.w3.org/1999/02/22-rdf-syntax-ns#">
   <cc:Work>
    <dc:type rdf:resource="http://purl.org/dc/dcmitype/StillImage"/>
    <dc:date>2024-01-26T17:43:43.863307</dc:date>
    <dc:format>image/svg+xml</dc:format>
    <dc:creator>
     <cc:Agent>
      <dc:title>Matplotlib v3.5.1, https://matplotlib.org/</dc:title>
     </cc:Agent>
    </dc:creator>
   </cc:Work>
  </rdf:RDF>
 </metadata>
 <defs>
  <style type="text/css">*{stroke-linejoin: round; stroke-linecap: butt}</style>
 </defs>
 <g id="figure_1">
  <g id="patch_1">
   <path d="M 0 216 
L 360 216 
L 360 0 
L 0 0 
z
" style="fill: #ffffff"/>
  </g>
  <g id="axes_1">
   <g id="patch_2">
    <path d="M 56.05 174.2 
L 349.2 174.2 
L 349.2 10.8 
L 56.05 10.8 
z
" style="fill: #ffffff"/>
   </g>
   <g id="PolyCollection_1">
    <path d="M 56.05 112.919501 
L 56.05 113.188459 
L 58.1 113.167393 
L 60.15 113.150496 
L 62.2 113.13741 
L 64.25 113.126702 
L 66.3 113.11673 
L 68.35 113.106988 
L 70.4 113.097724 
L 72.45 113.089438 
L 74.5 113.082739 
L 76.55 113.078438 
L 78.6 113.07632 
L 80.65 113.07508 
L 82.7 113.073762 
L 84.75 113.07186 
L 86.8 113.069303 
L 88.85 113.06635 
L 90.9 113.063447 
L 92.95 113.061057 
L 95 113.059469 
L 97.05 113.058595 
L 99.1 113.058056 
L 101.15 113.057483 
L 103.2 113.056689 
L 105.25 113.054478 
L 107.3 113.054131 
L 109.35 113.053784 
L 111.4 113.053356 
L 113.45 113.052814 
L 115.5 113.052178 
L 117.55 113.051513 
L 119.6 113.050913 
L 121.65 113.050486 
L 123.7 113.050298 
L 125.75 113.050258 
L 127.8 113.050214 
L 129.85 113.050112 
L 131.9 113.04997 
L 133.95 113.049823 
L 136 113.049697 
L 138.05 113.049609 
L 140.1 113.049563 
L 142.15 113.049544 
L 144.2 113.049535 
L 146.25 113.049533 
L 148.3 113.049533 
L 150.35 113.049533 
L 152.4 113.049533 
L 154.45 113.049533 
L 156.5 113.049533 
L 158.55 113.049533 
L 160.6 113.049533 
L 162.65 113.049533 
L 164.7 113.049533 
L 166.75 113.049533 
L 168.8 113.049533 
L 170.85 113.049533 
L 172.9 113.04938 
L 174.95 113.027969 
L 177 112.874968 
L 179.05 112.42423 
L 181.1 111.535941 
L 183.15 110.181613 
L 185.2 108.505824 
L 187.25 106.851034 
L 189.3 105.746948 
L 191.35 105.895116 
L 193.4 107.945607 
L 195.45 112.168935 
L 197.5 118.520676 
L 199.55 126.586799 
L 201.6 135.557033 
L 203.65 144.291898 
L 205.7 151.465622 
L 207.75 155.784349 
L 209.8 156.272137 
L 211.85 152.432886 
L 213.9 144.01352 
L 215.95 131.191351 
L 218 114.856841 
L 220.05 96.53946 
L 222.1 78.204974 
L 224.15 62.003349 
L 226.2 50.002025 
L 228.25 43.937159 
L 230.3 45.019756 
L 232.35 53.611176 
L 234.4 68.093297 
L 236.45 83.715399 
L 238.5 99.413357 
L 240.55 114.088292 
L 242.6 126.71119 
L 244.65 136.423592 
L 246.7 142.679216 
L 248.75 145.268486 
L 250.8 144.395923 
L 252.85 140.595452 
L 254.9 134.604974 
L 256.95 127.27362 
L 259 119.508805 
L 261.05 112.195172 
L 263.1 106.071971 
L 265.15 101.656404 
L 267.2 99.176401 
L 269.25 98.590237 
L 271.3 99.616523 
L 273.35 101.792331 
L 275.4 104.568774 
L 277.45 107.425854 
L 279.5 109.958696 
L 281.55 111.917963 
L 283.6 113.21992 
L 285.65 113.920182 
L 287.7 114.161787 
L 289.75 114.12395 
L 291.8 113.968087 
L 293.85 113.799425 
L 295.9 113.651897 
L 297.95 113.529786 
L 300 113.432813 
L 302.05 113.415829 
L 304.1 113.348783 
L 306.15 113.295107 
L 308.2 113.252198 
L 310.25 113.218282 
L 312.3 113.191426 
L 314.35 113.169504 
L 316.4 113.151378 
L 318.45 113.135363 
L 320.5 113.121174 
L 322.55 113.110038 
L 324.6 113.101947 
L 326.65 113.096284 
L 328.7 113.092691 
L 330.75 113.089649 
L 332.8 113.086226 
L 334.85 113.082302 
L 336.9 113.078034 
L 338.95 113.07381 
L 341 113.070035 
L 343.05 113.066991 
L 345.1 113.064797 
L 347.15 113.063356 
L 349.2 113.062407 
L 349.2 113.035651 
L 349.2 113.035651 
L 347.15 113.034911 
L 345.1 113.033808 
L 343.05 113.032076 
L 341 113.029601 
L 338.95 113.026466 
L 336.9 113.022953 
L 334.85 113.019481 
L 332.8 113.016455 
L 330.75 113.01417 
L 328.7 113.012648 
L 326.65 113.010799 
L 324.6 113.007722 
L 322.55 113.003203 
L 320.5 112.996678 
L 318.45 112.98893 
L 316.4 112.981796 
L 314.35 112.975641 
L 312.3 112.97095 
L 310.25 112.968182 
L 308.2 112.967607 
L 306.15 112.969862 
L 304.1 112.977 
L 302.05 112.991147 
L 300 113.086208 
L 297.95 113.129915 
L 295.9 113.186801 
L 293.85 113.25677 
L 291.8 113.334287 
L 289.75 113.383524 
L 287.7 113.297517 
L 285.65 112.912962 
L 283.6 112.056798 
L 281.55 110.599346 
L 279.5 108.504619 
L 277.45 105.870475 
L 275.4 102.942926 
L 273.35 100.092439 
L 271.3 97.783154 
L 269.25 96.511533 
L 267.2 96.738181 
L 265.15 98.810789 
L 263.1 102.859017 
L 261.05 108.722412 
L 259 115.941584 
L 256.95 123.757044 
L 254.9 131.206071 
L 252.85 137.211357 
L 250.8 140.746112 
L 248.75 141.03422 
L 246.7 137.66934 
L 244.65 130.638732 
L 242.6 120.306323 
L 240.55 107.330384 
L 238.5 92.640829 
L 236.45 77.20491 
L 234.4 62.027746 
L 232.35 48.188292 
L 230.3 40.056273 
L 228.25 38.443605 
L 226.2 43.516638 
L 224.15 54.672485 
L 222.1 70.503305 
L 220.05 89.058143 
L 218 108.156289 
L 215.95 125.687027 
L 213.9 139.87488 
L 211.85 149.445984 
L 209.8 153.729603 
L 207.75 152.938576 
L 205.7 148.15176 
L 203.65 140.736882 
L 201.6 132.099089 
L 199.55 123.538693 
L 197.5 116.098941 
L 195.45 110.462514 
L 193.4 106.901951 
L 191.35 105.288867 
L 189.3 105.197565 
L 187.25 106.208697 
L 185.2 107.850297 
L 183.15 109.615958 
L 181.1 111.122197 
L 179.05 112.172826 
L 177 112.75566 
L 174.95 112.989908 
L 172.9 113.044356 
L 170.85 113.049533 
L 168.8 113.049533 
L 166.75 113.049533 
L 164.7 113.049533 
L 162.65 113.049533 
L 160.6 113.049533 
L 158.55 113.049533 
L 156.5 113.049533 
L 154.45 113.049533 
L 152.4 113.049533 
L 150.35 113.049533 
L 148.3 113.049533 
L 146.25 113.049533 
L 144.2 113.049531 
L 142.15 113.049522 
L 140.1 113.049505 
L 138.05 113.049463 
L 136 113.049385 
L 133.95 113.049273 
L 131.9 113.049142 
L 129.85 113.049018 
L 127.8 113.048931 
L 125.75 113.048894 
L 123.7 113.048851 
L 121.65 113.048644 
L 119.6 113.048175 
L 117.55 113.047506 
L 115.5 113.046742 
L 113.45 113.045986 
L 111.4 113.045316 
L 109.35 113.044775 
L 107.3 113.044353 
L 105.25 113.043993 
L 103.2 113.042426 
L 101.15 113.041691 
L 99.1 113.041212 
L 97.05 113.040796 
L 95 113.040065 
L 92.95 113.03861 
L 90.9 113.036312 
L 88.85 113.033437 
L 86.8 113.03043 
L 84.75 113.027645 
L 82.7 113.025336 
L 80.65 113.023473 
L 78.6 113.02151 
L 76.55 113.018488 
L 74.5 113.013474 
L 72.45 113.006254 
L 70.4 112.997663 
L 68.35 112.988513 
L 66.3 112.97927 
L 64.25 112.970429 
L 62.2 112.96149 
L 60.15 112.950765 
L 58.1 112.936944 
L 56.05 112.919501 
z
" clip-path="url(#pf18ca611de)" style="fill: #1f77b4; fill-opacity: 0.6"/>
   </g>
   <g id="PolyCollection_2">
    <path d="M 56.05 112.917 
L 56.05 113.181491 
L 58.1 113.163998 
L 60.15 113.150408 
L 62.2 113.139944 
L 64.25 113.131714 
L 66.3 113.124081 
L 68.35 113.115777 
L 70.4 113.106626 
L 72.45 113.097089 
L 74.5 113.088021 
L 76.55 113.080954 
L 78.6 113.076617 
L 80.65 113.074391 
L 82.7 113.073501 
L 84.75 113.072822 
L 86.8 113.071345 
L 88.85 113.069047 
L 90.9 113.066222 
L 92.95 113.063296 
L 95 113.06072 
L 97.05 113.058859 
L 99.1 113.057853 
L 101.15 113.057507 
L 103.2 113.057421 
L 105.25 113.051828 
L 107.3 113.051098 
L 109.35 113.050496 
L 111.4 113.050182 
L 113.45 113.050148 
L 115.5 113.050148 
L 117.55 113.050079 
L 119.6 113.049951 
L 121.65 113.049806 
L 123.7 113.049677 
L 125.75 113.049587 
L 127.8 113.049543 
L 129.85 113.049533 
L 131.9 113.049533 
L 133.95 113.049533 
L 136 113.049533 
L 138.05 113.049533 
L 140.1 113.049533 
L 142.15 113.049533 
L 144.2 113.049533 
L 146.25 113.049533 
L 148.3 113.049533 
L 150.35 113.049533 
L 152.4 113.049533 
L 154.45 113.049533 
L 156.5 113.049533 
L 158.55 113.049565 
L 160.6 113.049632 
L 162.65 113.047107 
L 164.7 113.022059 
L 166.75 112.909475 
L 168.8 112.581331 
L 170.85 111.863876 
L 172.9 110.597846 
L 174.95 108.748202 
L 177 106.556966 
L 179.05 104.574107 
L 181.1 103.619902 
L 183.15 104.676811 
L 185.2 108.383793 
L 187.25 114.962711 
L 189.3 124.168485 
L 191.35 135.192461 
L 193.4 146.69706 
L 195.45 156.966244 
L 197.5 164.163857 
L 199.55 166.772727 
L 201.6 163.964655 
L 203.65 154.831657 
L 205.7 139.331011 
L 207.75 118.52782 
L 209.8 94.39078 
L 211.85 69.558494 
L 213.9 47.012027 
L 215.95 29.694563 
L 218 20.179609 
L 220.05 20.701332 
L 222.1 31.634515 
L 224.15 50.922233 
L 226.2 75.234005 
L 228.25 100.518083 
L 230.3 123.077809 
L 232.35 140.115606 
L 234.4 150.881091 
L 236.45 157.548164 
L 238.5 159.662918 
L 240.55 157.539847 
L 242.6 151.374473 
L 244.65 141.955588 
L 246.7 130.565134 
L 248.75 118.65107 
L 250.8 107.606738 
L 252.85 98.587105 
L 254.9 92.375558 
L 256.95 89.338142 
L 259 89.530347 
L 261.05 92.355608 
L 263.1 96.805821 
L 265.15 101.961415 
L 267.2 106.991748 
L 269.25 111.248018 
L 271.3 114.33423 
L 273.35 116.129122 
L 275.4 116.765838 
L 277.45 116.585483 
L 279.5 115.886954 
L 281.55 114.979172 
L 283.6 114.145037 
L 285.65 113.545203 
L 287.7 113.21034 
L 289.75 113.07829 
L 291.8 113.050936 
L 293.85 113.049533 
L 295.9 113.049533 
L 297.95 113.049533 
L 300 113.049533 
L 302.05 113.149558 
L 304.1 113.135618 
L 306.15 113.124913 
L 308.2 113.116886 
L 310.25 113.1106 
L 312.3 113.104649 
L 314.35 113.09821 
L 316.4 113.091345 
L 318.45 113.084302 
L 320.5 113.077905 
L 322.55 113.073387 
L 324.6 113.070886 
L 326.65 113.069698 
L 328.7 113.069005 
L 330.75 113.067973 
L 332.8 113.066305 
L 334.85 113.064118 
L 336.9 113.061676 
L 338.95 113.059368 
L 341 113.057541 
L 343.05 113.056371 
L 345.1 113.055766 
L 347.15 113.055445 
L 349.2 113.055142 
L 349.2 113.043556 
L 349.2 113.043556 
L 347.15 113.043275 
L 345.1 113.042998 
L 343.05 113.042453 
L 341 113.041355 
L 338.95 113.039611 
L 336.9 113.037397 
L 334.85 113.035057 
L 332.8 113.032964 
L 330.75 113.031432 
L 328.7 113.03058 
L 326.65 113.030017 
L 324.6 113.02904 
L 322.55 113.026795 
L 320.5 113.022308 
L 318.45 113.015797 
L 316.4 113.008481 
L 314.35 113.001128 
L 312.3 112.994211 
L 310.25 112.987783 
L 308.2 112.981067 
L 306.15 112.972569 
L 304.1 112.961154 
L 302.05 112.946271 
L 300 113.049533 
L 297.95 113.049533 
L 295.9 113.049533 
L 293.85 113.049533 
L 291.8 113.048908 
L 289.75 113.064659 
L 287.7 113.163782 
L 285.65 113.44397 
L 283.6 113.982049 
L 281.55 114.77316 
L 279.5 115.683853 
L 277.45 116.439993 
L 275.4 116.621613 
L 273.35 115.788523 
L 271.3 113.724874 
L 269.25 110.371423 
L 267.2 105.910706 
L 265.15 100.795191 
L 263.1 95.714519 
L 261.05 91.507959 
L 259 89.014549 
L 256.95 88.78143 
L 254.9 91.271166 
L 252.85 96.860222 
L 250.8 105.351456 
L 248.75 116.064885 
L 246.7 127.917051 
L 244.65 139.54666 
L 242.6 149.485223 
L 240.55 156.342381 
L 238.5 158.870971 
L 236.45 156.186351 
L 234.4 148.673321 
L 232.35 136.989747 
L 230.3 118.434717 
L 228.25 94.896722 
L 226.2 69.472435 
L 224.15 45.950775 
L 222.1 28.123081 
L 220.05 18.713762 
L 218 18.227273 
L 215.95 26.378974 
L 213.9 42.414546 
L 211.85 64.174347 
L 209.8 88.833894 
L 207.75 113.394533 
L 205.7 135.108032 
L 203.65 151.82491 
L 201.6 162.20424 
L 199.55 165.684509 
L 197.5 162.600276 
L 195.45 154.761288 
L 193.4 144.143971 
L 191.35 132.644922 
L 189.3 121.929022 
L 187.25 113.233448 
L 185.2 107.24002 
L 183.15 104.05173 
L 181.1 103.244808 
L 179.05 104.123178 
L 177 106.035584 
L 174.95 108.262362 
L 172.9 110.223158 
L 170.85 111.620614 
L 168.8 112.446987 
L 166.75 112.847912 
L 164.7 112.999957 
L 162.65 113.04152 
L 160.6 113.048796 
L 158.55 113.049494 
L 156.5 113.049533 
L 154.45 113.049533 
L 152.4 113.049533 
L 150.35 113.049533 
L 148.3 113.049533 
L 146.25 113.049533 
L 144.2 113.049533 
L 142.15 113.049533 
L 140.1 113.049533 
L 138.05 113.049533 
L 136 113.049533 
L 133.95 113.049533 
L 131.9 113.049533 
L 129.85 113.049533 
L 127.8 113.049524 
L 125.75 113.049483 
L 123.7 113.049401 
L 121.65 113.049287 
L 119.6 113.049159 
L 117.55 113.049052 
L 115.5 113.049 
L 113.45 113.049016 
L 111.4 113.049 
L 109.35 113.048704 
L 107.3 113.048117 
L 105.25 113.047397 
L 103.2 113.042418 
L 101.15 113.042228 
L 99.1 113.041696 
L 97.05 113.040439 
L 95 113.038281 
L 92.95 113.03539 
L 90.9 113.03216 
L 88.85 113.029073 
L 86.8 113.026603 
L 84.75 113.025026 
L 82.7 113.024315 
L 80.65 113.023632 
L 78.6 113.021607 
L 76.55 113.01754 
L 74.5 113.011088 
L 72.45 113.002804 
L 70.4 112.99425 
L 68.35 112.986215 
L 66.3 112.978675 
L 64.25 112.971199 
L 62.2 112.962394 
L 60.15 112.950837 
L 58.1 112.935923 
L 56.05 112.917 
z
" clip-path="url(#pf18ca611de)" style="fill: #ff7f0e; fill-opacity: 0.6"/>
   </g>
   <g id="matplotlib.axis_1">
    <g id="xtick_1">
     <g id="line2d_1">
      <defs>
       <path id="me4532c820f" d="M 0 0 
L 0 3.5 
" style="stroke: #000000; stroke-width: 0.8"/>
      </defs>
      <g>
       <use xlink:href="#me4532c820f" x="56.05" y="174.2" style="stroke: #000000; stroke-width: 0.8"/>
      </g>
     </g>
     <g id="text_1">
      <!-- −0.2 -->
      <g transform="translate(43.908594 188.798438)scale(0.1 -0.1)">
       <defs>
        <path id="DejaVuSans-2212" d="M 678 2272 
L 4684 2272 
L 4684 1741 
L 678 1741 
L 678 2272 
z
" transform="scale(0.015625)"/>
        <path id="DejaVuSans-30" d="M 2034 4250 
Q 1547 4250 1301 3770 
Q 1056 3291 1056 2328 
Q 1056 1369 1301 889 
Q 1547 409 2034 409 
Q 2525 409 2770 889 
Q 3016 1369 3016 2328 
Q 3016 3291 2770 3770 
Q 2525 4250 2034 4250 
z
M 2034 4750 
Q 2819 4750 3233 4129 
Q 3647 3509 3647 2328 
Q 3647 1150 3233 529 
Q 2819 -91 2034 -91 
Q 1250 -91 836 529 
Q 422 1150 422 2328 
Q 422 3509 836 4129 
Q 1250 4750 2034 4750 
z
" transform="scale(0.015625)"/>
        <path id="DejaVuSans-2e" d="M 684 794 
L 1344 794 
L 1344 0 
L 684 0 
L 684 794 
z
" transform="scale(0.015625)"/>
        <path id="DejaVuSans-32" d="M 1228 531 
L 3431 531 
L 3431 0 
L 469 0 
L 469 531 
Q 828 903 1448 1529 
Q 2069 2156 2228 2338 
Q 2531 2678 2651 2914 
Q 2772 3150 2772 3378 
Q 2772 3750 2511 3984 
Q 2250 4219 1831 4219 
Q 1534 4219 1204 4116 
Q 875 4013 500 3803 
L 500 4441 
Q 881 4594 1212 4672 
Q 1544 4750 1819 4750 
Q 2544 4750 2975 4387 
Q 3406 4025 3406 3419 
Q 3406 3131 3298 2873 
Q 3191 2616 2906 2266 
Q 2828 2175 2409 1742 
Q 1991 1309 1228 531 
z
" transform="scale(0.015625)"/>
       </defs>
       <use xlink:href="#DejaVuSans-2212"/>
       <use xlink:href="#DejaVuSans-30" x="83.789062"/>
       <use xlink:href="#DejaVuSans-2e" x="147.412109"/>
       <use xlink:href="#DejaVuSans-32" x="179.199219"/>
      </g>
     </g>
    </g>
    <g id="xtick_2">
     <g id="line2d_2">
      <g>
       <use xlink:href="#me4532c820f" x="105.25" y="174.2" style="stroke: #000000; stroke-width: 0.8"/>
      </g>
     </g>
     <g id="text_2">
      <!-- 0.0 -->
      <g transform="translate(97.298438 188.798438)scale(0.1 -0.1)">
       <use xlink:href="#DejaVuSans-30"/>
       <use xlink:href="#DejaVuSans-2e" x="63.623047"/>
       <use xlink:href="#DejaVuSans-30" x="95.410156"/>
      </g>
     </g>
    </g>
    <g id="xtick_3">
     <g id="line2d_3">
      <g>
       <use xlink:href="#me4532c820f" x="154.45" y="174.2" style="stroke: #000000; stroke-width: 0.8"/>
      </g>
     </g>
     <g id="text_3">
      <!-- 0.2 -->
      <g transform="translate(146.498437 188.798438)scale(0.1 -0.1)">
       <use xlink:href="#DejaVuSans-30"/>
       <use xlink:href="#DejaVuSans-2e" x="63.623047"/>
       <use xlink:href="#DejaVuSans-32" x="95.410156"/>
      </g>
     </g>
    </g>
    <g id="xtick_4">
     <g id="line2d_4">
      <g>
       <use xlink:href="#me4532c820f" x="203.65" y="174.2" style="stroke: #000000; stroke-width: 0.8"/>
      </g>
     </g>
     <g id="text_4">
      <!-- 0.4 -->
      <g transform="translate(195.698438 188.798438)scale(0.1 -0.1)">
       <defs>
        <path id="DejaVuSans-34" d="M 2419 4116 
L 825 1625 
L 2419 1625 
L 2419 4116 
z
M 2253 4666 
L 3047 4666 
L 3047 1625 
L 3713 1625 
L 3713 1100 
L 3047 1100 
L 3047 0 
L 2419 0 
L 2419 1100 
L 313 1100 
L 313 1709 
L 2253 4666 
z
" transform="scale(0.015625)"/>
       </defs>
       <use xlink:href="#DejaVuSans-30"/>
       <use xlink:href="#DejaVuSans-2e" x="63.623047"/>
       <use xlink:href="#DejaVuSans-34" x="95.410156"/>
      </g>
     </g>
    </g>
    <g id="xtick_5">
     <g id="line2d_5">
      <g>
       <use xlink:href="#me4532c820f" x="252.85" y="174.2" style="stroke: #000000; stroke-width: 0.8"/>
      </g>
     </g>
     <g id="text_5">
      <!-- 0.6 -->
      <g transform="translate(244.898438 188.798438)scale(0.1 -0.1)">
       <defs>
        <path id="DejaVuSans-36" d="M 2113 2584 
Q 1688 2584 1439 2293 
Q 1191 2003 1191 1497 
Q 1191 994 1439 701 
Q 1688 409 2113 409 
Q 2538 409 2786 701 
Q 3034 994 3034 1497 
Q 3034 2003 2786 2293 
Q 2538 2584 2113 2584 
z
M 3366 4563 
L 3366 3988 
Q 3128 4100 2886 4159 
Q 2644 4219 2406 4219 
Q 1781 4219 1451 3797 
Q 1122 3375 1075 2522 
Q 1259 2794 1537 2939 
Q 1816 3084 2150 3084 
Q 2853 3084 3261 2657 
Q 3669 2231 3669 1497 
Q 3669 778 3244 343 
Q 2819 -91 2113 -91 
Q 1303 -91 875 529 
Q 447 1150 447 2328 
Q 447 3434 972 4092 
Q 1497 4750 2381 4750 
Q 2619 4750 2861 4703 
Q 3103 4656 3366 4563 
z
" transform="scale(0.015625)"/>
       </defs>
       <use xlink:href="#DejaVuSans-30"/>
       <use xlink:href="#DejaVuSans-2e" x="63.623047"/>
       <use xlink:href="#DejaVuSans-36" x="95.410156"/>
      </g>
     </g>
    </g>
    <g id="xtick_6">
     <g id="line2d_6">
      <g>
       <use xlink:href="#me4532c820f" x="302.05" y="174.2" style="stroke: #000000; stroke-width: 0.8"/>
      </g>
     </g>
     <g id="text_6">
      <!-- 0.8 -->
      <g transform="translate(294.098437 188.798438)scale(0.1 -0.1)">
       <defs>
        <path id="DejaVuSans-38" d="M 2034 2216 
Q 1584 2216 1326 1975 
Q 1069 1734 1069 1313 
Q 1069 891 1326 650 
Q 1584 409 2034 409 
Q 2484 409 2743 651 
Q 3003 894 3003 1313 
Q 3003 1734 2745 1975 
Q 2488 2216 2034 2216 
z
M 1403 2484 
Q 997 2584 770 2862 
Q 544 3141 544 3541 
Q 544 4100 942 4425 
Q 1341 4750 2034 4750 
Q 2731 4750 3128 4425 
Q 3525 4100 3525 3541 
Q 3525 3141 3298 2862 
Q 3072 2584 2669 2484 
Q 3125 2378 3379 2068 
Q 3634 1759 3634 1313 
Q 3634 634 3220 271 
Q 2806 -91 2034 -91 
Q 1263 -91 848 271 
Q 434 634 434 1313 
Q 434 1759 690 2068 
Q 947 2378 1403 2484 
z
M 1172 3481 
Q 1172 3119 1398 2916 
Q 1625 2713 2034 2713 
Q 2441 2713 2670 2916 
Q 2900 3119 2900 3481 
Q 2900 3844 2670 4047 
Q 2441 4250 2034 4250 
Q 1625 4250 1398 4047 
Q 1172 3844 1172 3481 
z
" transform="scale(0.015625)"/>
       </defs>
       <use xlink:href="#DejaVuSans-30"/>
       <use xlink:href="#DejaVuSans-2e" x="63.623047"/>
       <use xlink:href="#DejaVuSans-38" x="95.410156"/>
      </g>
     </g>
    </g>
    <g id="text_7">
     <!-- Time (s) -->
     <g transform="translate(182.296094 202.476562)scale(0.1 -0.1)">
      <defs>
       <path id="DejaVuSans-54" d="M -19 4666 
L 3928 4666 
L 3928 4134 
L 2272 4134 
L 2272 0 
L 1638 0 
L 1638 4134 
L -19 4134 
L -19 4666 
z
" transform="scale(0.015625)"/>
       <path id="DejaVuSans-69" d="M 603 3500 
L 1178 3500 
L 1178 0 
L 603 0 
L 603 3500 
z
M 603 4863 
L 1178 4863 
L 1178 4134 
L 603 4134 
L 603 4863 
z
" transform="scale(0.015625)"/>
       <path id="DejaVuSans-6d" d="M 3328 2828 
Q 3544 3216 3844 3400 
Q 4144 3584 4550 3584 
Q 5097 3584 5394 3201 
Q 5691 2819 5691 2113 
L 5691 0 
L 5113 0 
L 5113 2094 
Q 5113 2597 4934 2840 
Q 4756 3084 4391 3084 
Q 3944 3084 3684 2787 
Q 3425 2491 3425 1978 
L 3425 0 
L 2847 0 
L 2847 2094 
Q 2847 2600 2669 2842 
Q 2491 3084 2119 3084 
Q 1678 3084 1418 2786 
Q 1159 2488 1159 1978 
L 1159 0 
L 581 0 
L 581 3500 
L 1159 3500 
L 1159 2956 
Q 1356 3278 1631 3431 
Q 1906 3584 2284 3584 
Q 2666 3584 2933 3390 
Q 3200 3197 3328 2828 
z
" transform="scale(0.015625)"/>
       <path id="DejaVuSans-65" d="M 3597 1894 
L 3597 1613 
L 953 1613 
Q 991 1019 1311 708 
Q 1631 397 2203 397 
Q 2534 397 2845 478 
Q 3156 559 3463 722 
L 3463 178 
Q 3153 47 2828 -22 
Q 2503 -91 2169 -91 
Q 1331 -91 842 396 
Q 353 884 353 1716 
Q 353 2575 817 3079 
Q 1281 3584 2069 3584 
Q 2775 3584 3186 3129 
Q 3597 2675 3597 1894 
z
M 3022 2063 
Q 3016 2534 2758 2815 
Q 2500 3097 2075 3097 
Q 1594 3097 1305 2825 
Q 1016 2553 972 2059 
L 3022 2063 
z
" transform="scale(0.015625)"/>
       <path id="DejaVuSans-20" transform="scale(0.015625)"/>
       <path id="DejaVuSans-28" d="M 1984 4856 
Q 1566 4138 1362 3434 
Q 1159 2731 1159 2009 
Q 1159 1288 1364 580 
Q 1569 -128 1984 -844 
L 1484 -844 
Q 1016 -109 783 600 
Q 550 1309 550 2009 
Q 550 2706 781 3412 
Q 1013 4119 1484 4856 
L 1984 4856 
z
" transform="scale(0.015625)"/>
       <path id="DejaVuSans-73" d="M 2834 3397 
L 2834 2853 
Q 2591 2978 2328 3040 
Q 2066 3103 1784 3103 
Q 1356 3103 1142 2972 
Q 928 2841 928 2578 
Q 928 2378 1081 2264 
Q 1234 2150 1697 2047 
L 1894 2003 
Q 2506 1872 2764 1633 
Q 3022 1394 3022 966 
Q 3022 478 2636 193 
Q 2250 -91 1575 -91 
Q 1294 -91 989 -36 
Q 684 19 347 128 
L 347 722 
Q 666 556 975 473 
Q 1284 391 1588 391 
Q 1994 391 2212 530 
Q 2431 669 2431 922 
Q 2431 1156 2273 1281 
Q 2116 1406 1581 1522 
L 1381 1569 
Q 847 1681 609 1914 
Q 372 2147 372 2553 
Q 372 3047 722 3315 
Q 1072 3584 1716 3584 
Q 2034 3584 2315 3537 
Q 2597 3491 2834 3397 
z
" transform="scale(0.015625)"/>
       <path id="DejaVuSans-29" d="M 513 4856 
L 1013 4856 
Q 1481 4119 1714 3412 
Q 1947 2706 1947 2009 
Q 1947 1309 1714 600 
Q 1481 -109 1013 -844 
L 513 -844 
Q 928 -128 1133 580 
Q 1338 1288 1338 2009 
Q 1338 2731 1133 3434 
Q 928 4138 513 4856 
z
" transform="scale(0.015625)"/>
      </defs>
      <use xlink:href="#DejaVuSans-54"/>
      <use xlink:href="#DejaVuSans-69" x="57.958984"/>
      <use xlink:href="#DejaVuSans-6d" x="85.742188"/>
      <use xlink:href="#DejaVuSans-65" x="183.154297"/>
      <use xlink:href="#DejaVuSans-20" x="244.677734"/>
      <use xlink:href="#DejaVuSans-28" x="276.464844"/>
      <use xlink:href="#DejaVuSans-73" x="315.478516"/>
      <use xlink:href="#DejaVuSans-29" x="367.578125"/>
     </g>
    </g>
   </g>
   <g id="matplotlib.axis_2">
    <g id="ytick_1">
     <g id="line2d_7">
      <defs>
       <path id="mc9104da971" d="M 0 0 
L -3.5 0 
" style="stroke: #000000; stroke-width: 0.8"/>
      </defs>
      <g>
       <use xlink:href="#mc9104da971" x="56.05" y="157.620739" style="stroke: #000000; stroke-width: 0.8"/>
      </g>
     </g>
     <g id="text_8">
      <!-- −0.4 -->
      <g transform="translate(24.767187 161.419957)scale(0.1 -0.1)">
       <use xlink:href="#DejaVuSans-2212"/>
       <use xlink:href="#DejaVuSans-30" x="83.789062"/>
       <use xlink:href="#DejaVuSans-2e" x="147.412109"/>
       <use xlink:href="#DejaVuSans-34" x="179.199219"/>
      </g>
     </g>
    </g>
    <g id="ytick_2">
     <g id="line2d_8">
      <g>
       <use xlink:href="#mc9104da971" x="56.05" y="135.335136" style="stroke: #000000; stroke-width: 0.8"/>
      </g>
     </g>
     <g id="text_9">
      <!-- −0.2 -->
      <g transform="translate(24.767187 139.134354)scale(0.1 -0.1)">
       <use xlink:href="#DejaVuSans-2212"/>
       <use xlink:href="#DejaVuSans-30" x="83.789062"/>
       <use xlink:href="#DejaVuSans-2e" x="147.412109"/>
       <use xlink:href="#DejaVuSans-32" x="179.199219"/>
      </g>
     </g>
    </g>
    <g id="ytick_3">
     <g id="line2d_9">
      <g>
       <use xlink:href="#mc9104da971" x="56.05" y="113.049533" style="stroke: #000000; stroke-width: 0.8"/>
      </g>
     </g>
     <g id="text_10">
      <!-- 0.0 -->
      <g transform="translate(33.146875 116.848751)scale(0.1 -0.1)">
       <use xlink:href="#DejaVuSans-30"/>
       <use xlink:href="#DejaVuSans-2e" x="63.623047"/>
       <use xlink:href="#DejaVuSans-30" x="95.410156"/>
      </g>
     </g>
    </g>
    <g id="ytick_4">
     <g id="line2d_10">
      <g>
       <use xlink:href="#mc9104da971" x="56.05" y="90.76393" style="stroke: #000000; stroke-width: 0.8"/>
      </g>
     </g>
     <g id="text_11">
      <!-- 0.2 -->
      <g transform="translate(33.146875 94.563148)scale(0.1 -0.1)">
       <use xlink:href="#DejaVuSans-30"/>
       <use xlink:href="#DejaVuSans-2e" x="63.623047"/>
       <use xlink:href="#DejaVuSans-32" x="95.410156"/>
      </g>
     </g>
    </g>
    <g id="ytick_5">
     <g id="line2d_11">
      <g>
       <use xlink:href="#mc9104da971" x="56.05" y="68.478327" style="stroke: #000000; stroke-width: 0.8"/>
      </g>
     </g>
     <g id="text_12">
      <!-- 0.4 -->
      <g transform="translate(33.146875 72.277545)scale(0.1 -0.1)">
       <use xlink:href="#DejaVuSans-30"/>
       <use xlink:href="#DejaVuSans-2e" x="63.623047"/>
       <use xlink:href="#DejaVuSans-34" x="95.410156"/>
      </g>
     </g>
    </g>
    <g id="ytick_6">
     <g id="line2d_12">
      <g>
       <use xlink:href="#mc9104da971" x="56.05" y="46.192724" style="stroke: #000000; stroke-width: 0.8"/>
      </g>
     </g>
     <g id="text_13">
      <!-- 0.6 -->
      <g transform="translate(33.146875 49.991942)scale(0.1 -0.1)">
       <use xlink:href="#DejaVuSans-30"/>
       <use xlink:href="#DejaVuSans-2e" x="63.623047"/>
       <use xlink:href="#DejaVuSans-36" x="95.410156"/>
      </g>
     </g>
    </g>
    <g id="ytick_7">
     <g id="line2d_13">
      <g>
       <use xlink:href="#mc9104da971" x="56.05" y="23.907121" style="stroke: #000000; stroke-width: 0.8"/>
      </g>
     </g>
     <g id="text_14">
      <!-- 0.8 -->
      <g transform="translate(33.146875 27.706339)scale(0.1 -0.1)">
       <use xlink:href="#DejaVuSans-30"/>
       <use xlink:href="#DejaVuSans-2e" x="63.623047"/>
       <use xlink:href="#DejaVuSans-38" x="95.410156"/>
      </g>
     </g>
    </g>
    <g id="text_15">
     <!-- Coeff. (a.u.) -->
     <g transform="translate(18.6875 121.775781)rotate(-90)scale(0.1 -0.1)">
      <defs>
       <path id="DejaVuSans-43" d="M 4122 4306 
L 4122 3641 
Q 3803 3938 3442 4084 
Q 3081 4231 2675 4231 
Q 1875 4231 1450 3742 
Q 1025 3253 1025 2328 
Q 1025 1406 1450 917 
Q 1875 428 2675 428 
Q 3081 428 3442 575 
Q 3803 722 4122 1019 
L 4122 359 
Q 3791 134 3420 21 
Q 3050 -91 2638 -91 
Q 1578 -91 968 557 
Q 359 1206 359 2328 
Q 359 3453 968 4101 
Q 1578 4750 2638 4750 
Q 3056 4750 3426 4639 
Q 3797 4528 4122 4306 
z
" transform="scale(0.015625)"/>
       <path id="DejaVuSans-6f" d="M 1959 3097 
Q 1497 3097 1228 2736 
Q 959 2375 959 1747 
Q 959 1119 1226 758 
Q 1494 397 1959 397 
Q 2419 397 2687 759 
Q 2956 1122 2956 1747 
Q 2956 2369 2687 2733 
Q 2419 3097 1959 3097 
z
M 1959 3584 
Q 2709 3584 3137 3096 
Q 3566 2609 3566 1747 
Q 3566 888 3137 398 
Q 2709 -91 1959 -91 
Q 1206 -91 779 398 
Q 353 888 353 1747 
Q 353 2609 779 3096 
Q 1206 3584 1959 3584 
z
" transform="scale(0.015625)"/>
       <path id="DejaVuSans-66" d="M 2375 4863 
L 2375 4384 
L 1825 4384 
Q 1516 4384 1395 4259 
Q 1275 4134 1275 3809 
L 1275 3500 
L 2222 3500 
L 2222 3053 
L 1275 3053 
L 1275 0 
L 697 0 
L 697 3053 
L 147 3053 
L 147 3500 
L 697 3500 
L 697 3744 
Q 697 4328 969 4595 
Q 1241 4863 1831 4863 
L 2375 4863 
z
" transform="scale(0.015625)"/>
       <path id="DejaVuSans-61" d="M 2194 1759 
Q 1497 1759 1228 1600 
Q 959 1441 959 1056 
Q 959 750 1161 570 
Q 1363 391 1709 391 
Q 2188 391 2477 730 
Q 2766 1069 2766 1631 
L 2766 1759 
L 2194 1759 
z
M 3341 1997 
L 3341 0 
L 2766 0 
L 2766 531 
Q 2569 213 2275 61 
Q 1981 -91 1556 -91 
Q 1019 -91 701 211 
Q 384 513 384 1019 
Q 384 1609 779 1909 
Q 1175 2209 1959 2209 
L 2766 2209 
L 2766 2266 
Q 2766 2663 2505 2880 
Q 2244 3097 1772 3097 
Q 1472 3097 1187 3025 
Q 903 2953 641 2809 
L 641 3341 
Q 956 3463 1253 3523 
Q 1550 3584 1831 3584 
Q 2591 3584 2966 3190 
Q 3341 2797 3341 1997 
z
" transform="scale(0.015625)"/>
       <path id="DejaVuSans-75" d="M 544 1381 
L 544 3500 
L 1119 3500 
L 1119 1403 
Q 1119 906 1312 657 
Q 1506 409 1894 409 
Q 2359 409 2629 706 
Q 2900 1003 2900 1516 
L 2900 3500 
L 3475 3500 
L 3475 0 
L 2900 0 
L 2900 538 
Q 2691 219 2414 64 
Q 2138 -91 1772 -91 
Q 1169 -91 856 284 
Q 544 659 544 1381 
z
M 1991 3584 
L 1991 3584 
z
" transform="scale(0.015625)"/>
      </defs>
      <use xlink:href="#DejaVuSans-43"/>
      <use xlink:href="#DejaVuSans-6f" x="69.824219"/>
      <use xlink:href="#DejaVuSans-65" x="131.005859"/>
      <use xlink:href="#DejaVuSans-66" x="192.529297"/>
      <use xlink:href="#DejaVuSans-66" x="227.734375"/>
      <use xlink:href="#DejaVuSans-2e" x="255.689453"/>
      <use xlink:href="#DejaVuSans-20" x="287.476562"/>
      <use xlink:href="#DejaVuSans-28" x="319.263672"/>
      <use xlink:href="#DejaVuSans-61" x="358.277344"/>
      <use xlink:href="#DejaVuSans-2e" x="419.556641"/>
      <use xlink:href="#DejaVuSans-75" x="451.34375"/>
      <use xlink:href="#DejaVuSans-2e" x="514.722656"/>
      <use xlink:href="#DejaVuSans-29" x="546.509766"/>
     </g>
    </g>
   </g>
   <g id="line2d_14">
    <path d="M 56.05 113.05398 
L 174.95 113.008939 
L 177 112.815314 
L 179.05 112.298528 
L 181.1 111.329069 
L 183.15 109.898785 
L 187.25 106.529866 
L 189.3 105.472256 
L 191.35 105.591991 
L 193.4 107.423779 
L 195.45 111.315725 
L 197.5 117.309808 
L 199.55 125.062746 
L 203.65 142.51439 
L 205.7 149.808691 
L 207.75 154.361463 
L 209.8 155.00087 
L 211.85 150.939435 
L 213.9 141.9442 
L 215.95 128.439189 
L 218 111.506565 
L 222.1 74.35414 
L 224.15 58.337917 
L 226.2 46.759331 
L 228.25 41.190382 
L 230.3 42.538014 
L 232.35 50.899734 
L 234.4 65.060522 
L 240.55 110.709338 
L 242.6 123.508756 
L 244.65 133.531162 
L 246.7 140.174278 
L 248.75 143.151353 
L 250.8 142.571018 
L 252.85 138.903404 
L 254.9 132.905522 
L 261.05 110.458792 
L 263.1 104.465494 
L 265.15 100.233596 
L 267.2 97.957291 
L 269.25 97.550885 
L 271.3 98.699839 
L 273.35 100.942385 
L 279.5 109.231658 
L 281.55 111.258655 
L 283.6 112.638359 
L 285.65 113.416572 
L 287.7 113.729652 
L 289.75 113.753737 
L 302.05 113.203488 
L 312.3 113.081188 
L 345.1 113.049303 
L 349.2 113.049029 
L 349.2 113.049029 
" clip-path="url(#pf18ca611de)" style="fill: none; stroke: #1f77b4; stroke-width: 1.5; stroke-linecap: square"/>
   </g>
   <g id="line2d_15">
    <path d="M 56.05 113.049246 
L 164.7 113.011008 
L 166.75 112.878693 
L 168.8 112.514159 
L 170.85 111.742245 
L 172.9 110.410502 
L 174.95 108.505282 
L 177 106.296275 
L 179.05 104.348643 
L 181.1 103.432355 
L 183.15 104.36427 
L 185.2 107.811907 
L 187.25 114.098079 
L 189.3 123.048754 
L 191.35 133.918691 
L 193.4 145.420516 
L 195.45 155.863766 
L 197.5 163.382067 
L 199.55 166.228618 
L 201.6 163.084447 
L 203.65 153.328283 
L 205.7 137.219521 
L 207.75 115.961177 
L 211.85 66.866421 
L 213.9 44.713287 
L 215.95 28.036769 
L 218 19.203441 
L 220.05 19.707547 
L 222.1 29.878798 
L 224.15 48.436504 
L 226.2 72.35322 
L 228.25 97.707402 
L 230.3 120.756263 
L 232.35 138.552677 
L 234.4 149.777206 
L 236.45 156.867257 
L 238.5 159.266944 
L 240.55 156.941114 
L 242.6 150.429848 
L 244.65 140.751124 
L 250.8 106.479097 
L 252.85 97.723663 
L 254.9 91.823362 
L 256.95 89.059786 
L 259 89.272448 
L 261.05 91.931784 
L 263.1 96.26017 
L 267.2 106.451227 
L 269.25 110.80972 
L 271.3 114.029552 
L 273.35 115.958822 
L 275.4 116.693726 
L 277.45 116.512738 
L 279.5 115.785404 
L 283.6 114.063543 
L 285.65 113.494586 
L 287.7 113.187061 
L 291.8 113.049922 
L 349.2 113.049349 
L 349.2 113.049349 
" clip-path="url(#pf18ca611de)" style="fill: none; stroke: #ff7f0e; stroke-width: 1.5; stroke-linecap: square"/>
   </g>
   <g id="patch_3">
    <path d="M 56.05 174.2 
L 56.05 10.8 
" style="fill: none; stroke: #000000; stroke-width: 0.8; stroke-linejoin: miter; stroke-linecap: square"/>
   </g>
   <g id="patch_4">
    <path d="M 56.05 174.2 
L 349.2 174.2 
" style="fill: none; stroke: #000000; stroke-width: 0.8; stroke-linejoin: miter; stroke-linecap: square"/>
   </g>
   <g id="legend_1">
    <g id="line2d_16">
     <path d="M 65.05 23.898438 
L 75.05 23.898438 
L 85.05 23.898438 
" style="fill: none; stroke: #1f77b4; stroke-width: 1.5; stroke-linecap: square"/>
    </g>
    <g id="text_16">
     <!-- Node count/high surprisal -->
     <g transform="translate(93.05 27.398438)scale(0.1 -0.1)">
      <defs>
       <path id="DejaVuSans-4e" d="M 628 4666 
L 1478 4666 
L 3547 763 
L 3547 4666 
L 4159 4666 
L 4159 0 
L 3309 0 
L 1241 3903 
L 1241 0 
L 628 0 
L 628 4666 
z
" transform="scale(0.015625)"/>
       <path id="DejaVuSans-64" d="M 2906 2969 
L 2906 4863 
L 3481 4863 
L 3481 0 
L 2906 0 
L 2906 525 
Q 2725 213 2448 61 
Q 2172 -91 1784 -91 
Q 1150 -91 751 415 
Q 353 922 353 1747 
Q 353 2572 751 3078 
Q 1150 3584 1784 3584 
Q 2172 3584 2448 3432 
Q 2725 3281 2906 2969 
z
M 947 1747 
Q 947 1113 1208 752 
Q 1469 391 1925 391 
Q 2381 391 2643 752 
Q 2906 1113 2906 1747 
Q 2906 2381 2643 2742 
Q 2381 3103 1925 3103 
Q 1469 3103 1208 2742 
Q 947 2381 947 1747 
z
" transform="scale(0.015625)"/>
       <path id="DejaVuSans-63" d="M 3122 3366 
L 3122 2828 
Q 2878 2963 2633 3030 
Q 2388 3097 2138 3097 
Q 1578 3097 1268 2742 
Q 959 2388 959 1747 
Q 959 1106 1268 751 
Q 1578 397 2138 397 
Q 2388 397 2633 464 
Q 2878 531 3122 666 
L 3122 134 
Q 2881 22 2623 -34 
Q 2366 -91 2075 -91 
Q 1284 -91 818 406 
Q 353 903 353 1747 
Q 353 2603 823 3093 
Q 1294 3584 2113 3584 
Q 2378 3584 2631 3529 
Q 2884 3475 3122 3366 
z
" transform="scale(0.015625)"/>
       <path id="DejaVuSans-6e" d="M 3513 2113 
L 3513 0 
L 2938 0 
L 2938 2094 
Q 2938 2591 2744 2837 
Q 2550 3084 2163 3084 
Q 1697 3084 1428 2787 
Q 1159 2491 1159 1978 
L 1159 0 
L 581 0 
L 581 3500 
L 1159 3500 
L 1159 2956 
Q 1366 3272 1645 3428 
Q 1925 3584 2291 3584 
Q 2894 3584 3203 3211 
Q 3513 2838 3513 2113 
z
" transform="scale(0.015625)"/>
       <path id="DejaVuSans-74" d="M 1172 4494 
L 1172 3500 
L 2356 3500 
L 2356 3053 
L 1172 3053 
L 1172 1153 
Q 1172 725 1289 603 
Q 1406 481 1766 481 
L 2356 481 
L 2356 0 
L 1766 0 
Q 1100 0 847 248 
Q 594 497 594 1153 
L 594 3053 
L 172 3053 
L 172 3500 
L 594 3500 
L 594 4494 
L 1172 4494 
z
" transform="scale(0.015625)"/>
       <path id="DejaVuSans-2f" d="M 1625 4666 
L 2156 4666 
L 531 -594 
L 0 -594 
L 1625 4666 
z
" transform="scale(0.015625)"/>
       <path id="DejaVuSans-68" d="M 3513 2113 
L 3513 0 
L 2938 0 
L 2938 2094 
Q 2938 2591 2744 2837 
Q 2550 3084 2163 3084 
Q 1697 3084 1428 2787 
Q 1159 2491 1159 1978 
L 1159 0 
L 581 0 
L 581 4863 
L 1159 4863 
L 1159 2956 
Q 1366 3272 1645 3428 
Q 1925 3584 2291 3584 
Q 2894 3584 3203 3211 
Q 3513 2838 3513 2113 
z
" transform="scale(0.015625)"/>
       <path id="DejaVuSans-67" d="M 2906 1791 
Q 2906 2416 2648 2759 
Q 2391 3103 1925 3103 
Q 1463 3103 1205 2759 
Q 947 2416 947 1791 
Q 947 1169 1205 825 
Q 1463 481 1925 481 
Q 2391 481 2648 825 
Q 2906 1169 2906 1791 
z
M 3481 434 
Q 3481 -459 3084 -895 
Q 2688 -1331 1869 -1331 
Q 1566 -1331 1297 -1286 
Q 1028 -1241 775 -1147 
L 775 -588 
Q 1028 -725 1275 -790 
Q 1522 -856 1778 -856 
Q 2344 -856 2625 -561 
Q 2906 -266 2906 331 
L 2906 616 
Q 2728 306 2450 153 
Q 2172 0 1784 0 
Q 1141 0 747 490 
Q 353 981 353 1791 
Q 353 2603 747 3093 
Q 1141 3584 1784 3584 
Q 2172 3584 2450 3431 
Q 2728 3278 2906 2969 
L 2906 3500 
L 3481 3500 
L 3481 434 
z
" transform="scale(0.015625)"/>
       <path id="DejaVuSans-72" d="M 2631 2963 
Q 2534 3019 2420 3045 
Q 2306 3072 2169 3072 
Q 1681 3072 1420 2755 
Q 1159 2438 1159 1844 
L 1159 0 
L 581 0 
L 581 3500 
L 1159 3500 
L 1159 2956 
Q 1341 3275 1631 3429 
Q 1922 3584 2338 3584 
Q 2397 3584 2469 3576 
Q 2541 3569 2628 3553 
L 2631 2963 
z
" transform="scale(0.015625)"/>
       <path id="DejaVuSans-70" d="M 1159 525 
L 1159 -1331 
L 581 -1331 
L 581 3500 
L 1159 3500 
L 1159 2969 
Q 1341 3281 1617 3432 
Q 1894 3584 2278 3584 
Q 2916 3584 3314 3078 
Q 3713 2572 3713 1747 
Q 3713 922 3314 415 
Q 2916 -91 2278 -91 
Q 1894 -91 1617 61 
Q 1341 213 1159 525 
z
M 3116 1747 
Q 3116 2381 2855 2742 
Q 2594 3103 2138 3103 
Q 1681 3103 1420 2742 
Q 1159 2381 1159 1747 
Q 1159 1113 1420 752 
Q 1681 391 2138 391 
Q 2594 391 2855 752 
Q 3116 1113 3116 1747 
z
" transform="scale(0.015625)"/>
       <path id="DejaVuSans-6c" d="M 603 4863 
L 1178 4863 
L 1178 0 
L 603 0 
L 603 4863 
z
" transform="scale(0.015625)"/>
      </defs>
      <use xlink:href="#DejaVuSans-4e"/>
      <use xlink:href="#DejaVuSans-6f" x="74.804688"/>
      <use xlink:href="#DejaVuSans-64" x="135.986328"/>
      <use xlink:href="#DejaVuSans-65" x="199.462891"/>
      <use xlink:href="#DejaVuSans-20" x="260.986328"/>
      <use xlink:href="#DejaVuSans-63" x="292.773438"/>
      <use xlink:href="#DejaVuSans-6f" x="347.753906"/>
      <use xlink:href="#DejaVuSans-75" x="408.935547"/>
      <use xlink:href="#DejaVuSans-6e" x="472.314453"/>
      <use xlink:href="#DejaVuSans-74" x="535.693359"/>
      <use xlink:href="#DejaVuSans-2f" x="574.902344"/>
      <use xlink:href="#DejaVuSans-68" x="608.59375"/>
      <use xlink:href="#DejaVuSans-69" x="671.972656"/>
      <use xlink:href="#DejaVuSans-67" x="699.755859"/>
      <use xlink:href="#DejaVuSans-68" x="763.232422"/>
      <use xlink:href="#DejaVuSans-20" x="826.611328"/>
      <use xlink:href="#DejaVuSans-73" x="858.398438"/>
      <use xlink:href="#DejaVuSans-75" x="910.498047"/>
      <use xlink:href="#DejaVuSans-72" x="973.876953"/>
      <use xlink:href="#DejaVuSans-70" x="1014.990234"/>
      <use xlink:href="#DejaVuSans-72" x="1078.466797"/>
      <use xlink:href="#DejaVuSans-69" x="1119.580078"/>
      <use xlink:href="#DejaVuSans-73" x="1147.363281"/>
      <use xlink:href="#DejaVuSans-61" x="1199.462891"/>
      <use xlink:href="#DejaVuSans-6c" x="1260.742188"/>
     </g>
    </g>
    <g id="line2d_17">
     <path d="M 65.05 38.576563 
L 75.05 38.576563 
L 85.05 38.576563 
" style="fill: none; stroke: #ff7f0e; stroke-width: 1.5; stroke-linecap: square"/>
    </g>
    <g id="text_17">
     <!-- Node count/low surprisal -->
     <g transform="translate(93.05 42.076563)scale(0.1 -0.1)">
      <defs>
       <path id="DejaVuSans-77" d="M 269 3500 
L 844 3500 
L 1563 769 
L 2278 3500 
L 2956 3500 
L 3675 769 
L 4391 3500 
L 4966 3500 
L 4050 0 
L 3372 0 
L 2619 2869 
L 1863 0 
L 1184 0 
L 269 3500 
z
" transform="scale(0.015625)"/>
      </defs>
      <use xlink:href="#DejaVuSans-4e"/>
      <use xlink:href="#DejaVuSans-6f" x="74.804688"/>
      <use xlink:href="#DejaVuSans-64" x="135.986328"/>
      <use xlink:href="#DejaVuSans-65" x="199.462891"/>
      <use xlink:href="#DejaVuSans-20" x="260.986328"/>
      <use xlink:href="#DejaVuSans-63" x="292.773438"/>
      <use xlink:href="#DejaVuSans-6f" x="347.753906"/>
      <use xlink:href="#DejaVuSans-75" x="408.935547"/>
      <use xlink:href="#DejaVuSans-6e" x="472.314453"/>
      <use xlink:href="#DejaVuSans-74" x="535.693359"/>
      <use xlink:href="#DejaVuSans-2f" x="574.902344"/>
      <use xlink:href="#DejaVuSans-6c" x="608.59375"/>
      <use xlink:href="#DejaVuSans-6f" x="636.376953"/>
      <use xlink:href="#DejaVuSans-77" x="697.558594"/>
      <use xlink:href="#DejaVuSans-20" x="779.345703"/>
      <use xlink:href="#DejaVuSans-73" x="811.132812"/>
      <use xlink:href="#DejaVuSans-75" x="863.232422"/>
      <use xlink:href="#DejaVuSans-72" x="926.611328"/>
      <use xlink:href="#DejaVuSans-70" x="967.724609"/>
      <use xlink:href="#DejaVuSans-72" x="1031.201172"/>
      <use xlink:href="#DejaVuSans-69" x="1072.314453"/>
      <use xlink:href="#DejaVuSans-73" x="1100.097656"/>
      <use xlink:href="#DejaVuSans-61" x="1152.197266"/>
      <use xlink:href="#DejaVuSans-6c" x="1213.476562"/>
     </g>
    </g>
   </g>
  </g>
 </g>
 <defs>
  <clipPath id="pf18ca611de">
   <rect x="56.05" y="10.8" width="293.15" height="163.4"/>
  </clipPath>
 </defs>
</svg>
