<?xml version="1.0" encoding="utf-8" standalone="no"?>
<!DOCTYPE svg PUBLIC "-//W3C//DTD SVG 1.1//EN"
  "http://www.w3.org/Graphics/SVG/1.1/DTD/svg11.dtd">
<svg xmlns:xlink="http://www.w3.org/1999/xlink" width="360pt" height="216pt" viewBox="0 0 360 216" xmlns="http://www.w3.org/2000/svg" version="1.1">
 <metadata>
  <rdf:RDF xmlns:dc="http://purl.org/dc/elements/1.1/" xmlns:cc="http://creativecommons.org/ns#" xmlns:rdf="http://www.w3.org/1999/02/22-rdf-syntax-ns#">
   <cc:Work>
    <dc:type rdf:resource="http://purl.org/dc/dcmitype/StillImage"/>
    <dc:date>2024-01-26T17:43:44.863715</dc:date>
    <dc:format>image/svg+xml</dc:format>
    <dc:creator>
     <cc:Agent>
      <dc:title>Matplotlib v3.5.1, https://matplotlib.org/</dc:title>
     </cc:Agent>
    </dc:creator>
   </cc:Work>
  </rdf:RDF>
 </metadata>
 <defs>
  <style type="text/css">*{stroke-linejoin: round; stroke-linecap: butt}</style>
 </defs>
 <g id="figure_1">
  <g id="patch_1">
   <path d="M 0 216 
L 360 216 
L 360 0 
L 0 0 
z
" style="fill: #ffffff"/>
  </g>
  <g id="axes_1">
   <g id="patch_2">
    <path d="M 56.05 174.2 
L 349.2 174.2 
L 349.2 10.8 
L 56.05 10.8 
z
" style="fill: #ffffff"/>
   </g>
   <g id="PolyCollection_1">
    <path d="M 56.05 114.390047 
L 56.05 117.525495 
L 58.1 117.387456 
L 60.15 117.260939 
L 62.2 117.154316 
L 64.25 117.069645 
L 66.3 117.002275 
L 68.35 116.946173 
L 70.4 116.891402 
L 72.45 116.836352 
L 74.5 116.77903 
L 76.55 116.722067 
L 78.6 116.665938 
L 80.65 116.616815 
L 82.7 116.57637 
L 84.75 116.538968 
L 86.8 116.503056 
L 88.85 116.463549 
L 90.9 116.421599 
L 92.95 116.379002 
L 95 116.338668 
L 97.05 116.301549 
L 99.1 116.269276 
L 101.15 116.241411 
L 103.2 116.217506 
L 105.25 116.083625 
L 107.3 116.0767 
L 109.35 116.070864 
L 111.4 116.06454 
L 113.45 116.05766 
L 115.5 116.049603 
L 117.55 116.041539 
L 119.6 116.034301 
L 121.65 116.028596 
L 123.7 116.023593 
L 125.75 116.019154 
L 127.8 116.014873 
L 129.85 116.010437 
L 131.9 116.005811 
L 133.95 116.001078 
L 136 115.996541 
L 138.05 115.992656 
L 140.1 115.989816 
L 142.15 115.987436 
L 144.2 115.985098 
L 146.25 115.982724 
L 148.3 115.980606 
L 150.35 115.97852 
L 152.4 115.97637 
L 154.45 115.974019 
L 156.5 115.971659 
L 158.55 115.969458 
L 160.6 115.967582 
L 162.65 115.966546 
L 164.7 115.966518 
L 166.75 115.966925 
L 168.8 115.967327 
L 170.85 115.967441 
L 172.9 115.967021 
L 174.95 115.965997 
L 177 115.964568 
L 179.05 115.962931 
L 181.1 115.961145 
L 183.15 115.95964 
L 185.2 115.959178 
L 187.25 115.959487 
L 189.3 115.960098 
L 191.35 115.960067 
L 193.4 115.950518 
L 195.45 115.894727 
L 197.5 115.705335 
L 199.55 115.255313 
L 201.6 114.450019 
L 203.65 113.283207 
L 205.7 111.880999 
L 207.75 110.52336 
L 209.8 109.65743 
L 211.85 109.943638 
L 213.9 111.952245 
L 215.95 115.821312 
L 218 121.461359 
L 220.05 128.510632 
L 222.1 136.308168 
L 224.15 143.942479 
L 226.2 150.370979 
L 228.25 154.595127 
L 230.3 155.892599 
L 232.35 153.920659 
L 234.4 148.434728 
L 236.45 139.348933 
L 238.5 127.105579 
L 240.55 112.693676 
L 242.6 97.519198 
L 244.65 83.228662 
L 246.7 71.514948 
L 248.75 63.926391 
L 250.8 61.67059 
L 252.85 65.259711 
L 254.9 72.406845 
L 256.95 81.649904 
L 259 92.107453 
L 261.05 102.894337 
L 263.1 113.084648 
L 265.15 121.854072 
L 267.2 128.573714 
L 269.25 132.950287 
L 271.3 134.897524 
L 273.35 134.526058 
L 275.4 132.207032 
L 277.45 128.467963 
L 279.5 123.910669 
L 281.55 119.160743 
L 283.6 114.780012 
L 285.65 111.247794 
L 287.7 108.817061 
L 289.75 107.549242 
L 291.8 107.329748 
L 293.85 107.926203 
L 295.9 109.041221 
L 297.95 110.386407 
L 300 111.723248 
L 302.05 113.611568 
L 304.1 114.504142 
L 306.15 115.135205 
L 308.2 115.553882 
L 310.25 115.835883 
L 312.3 116.031429 
L 314.35 116.169375 
L 316.4 116.260709 
L 318.45 116.315087 
L 320.5 116.353831 
L 322.55 116.383936 
L 324.6 116.407757 
L 326.65 116.417639 
L 328.7 116.419822 
L 330.75 116.408922 
L 332.8 116.38684 
L 334.85 116.363101 
L 336.9 116.351647 
L 338.95 116.353824 
L 341 116.359588 
L 343.05 116.36356 
L 345.1 116.357238 
L 347.15 116.343222 
L 349.2 116.324545 
L 349.2 115.365344 
L 349.2 115.365344 
L 347.15 115.307182 
L 345.1 115.244938 
L 343.05 115.181029 
L 341 115.10931 
L 338.95 115.028427 
L 336.9 114.932091 
L 334.85 114.817179 
L 332.8 114.687188 
L 330.75 114.553896 
L 328.7 114.420465 
L 326.65 114.27935 
L 324.6 114.128918 
L 322.55 113.959208 
L 320.5 113.759347 
L 318.45 113.51872 
L 316.4 113.23705 
L 314.35 112.913658 
L 312.3 112.544462 
L 310.25 112.116651 
L 308.2 111.592412 
L 306.15 110.890922 
L 304.1 109.937608 
L 302.05 108.686516 
L 300 107.923257 
L 297.95 106.284019 
L 295.9 104.65104 
L 293.85 103.277886 
L 291.8 102.444461 
L 289.75 102.421228 
L 287.7 103.419396 
L 285.65 105.504469 
L 283.6 108.622805 
L 281.55 112.567995 
L 279.5 116.950335 
L 277.45 121.230966 
L 275.4 124.752624 
L 273.35 126.836709 
L 271.3 126.897667 
L 269.25 124.501484 
L 267.2 119.520073 
L 265.15 112.170488 
L 263.1 102.941195 
L 261.05 92.528659 
L 259 81.781207 
L 256.95 71.567573 
L 254.9 62.705302 
L 252.85 55.844079 
L 250.8 52.489421 
L 248.75 54.126925 
L 246.7 60.695867 
L 244.65 71.598476 
L 242.6 85.679479 
L 240.55 101.399198 
L 238.5 117.066078 
L 236.45 131.066219 
L 234.4 142.041557 
L 232.35 149.004867 
L 230.3 151.470334 
L 228.25 149.777026 
L 226.2 144.978658 
L 224.15 138.287946 
L 222.1 130.863763 
L 220.05 123.720452 
L 218 117.640079 
L 215.95 113.104636 
L 213.9 110.271408 
L 211.85 108.977599 
L 209.8 108.817383 
L 207.75 109.525985 
L 205.7 110.834936 
L 203.65 112.353523 
L 201.6 113.745632 
L 199.55 114.805883 
L 197.5 115.472309 
L 195.45 115.798641 
L 193.4 115.901242 
L 191.35 115.913469 
L 189.3 115.9137 
L 187.25 115.913844 
L 185.2 115.913671 
L 183.15 115.912505 
L 181.1 115.910362 
L 179.05 115.908045 
L 177 115.905962 
L 174.95 115.904275 
L 172.9 115.903325 
L 170.85 115.903278 
L 168.8 115.903983 
L 166.75 115.905092 
L 164.7 115.906217 
L 162.65 115.906619 
L 160.6 115.905783 
L 158.55 115.903991 
L 156.5 115.901587 
L 154.45 115.898758 
L 152.4 115.895846 
L 150.35 115.892805 
L 148.3 115.88966 
L 146.25 115.886023 
L 144.2 115.882148 
L 142.15 115.878371 
L 140.1 115.874635 
L 138.05 115.870256 
L 136 115.86498 
L 133.95 115.859168 
L 131.9 115.852936 
L 129.85 115.846507 
L 127.8 115.840356 
L 125.75 115.833928 
L 123.7 115.826973 
L 121.65 115.818971 
L 119.6 115.809145 
L 117.55 115.796642 
L 115.5 115.78285 
L 113.45 115.768925 
L 111.4 115.756487 
L 109.35 115.743538 
L 107.3 115.729583 
L 105.25 115.712164 
L 103.2 115.63147 
L 101.15 115.606518 
L 99.1 115.579199 
L 97.05 115.549296 
L 95 115.520104 
L 92.95 115.491483 
L 90.9 115.46609 
L 88.85 115.437936 
L 86.8 115.407855 
L 84.75 115.376547 
L 82.7 115.343334 
L 80.65 115.299708 
L 78.6 115.240048 
L 76.55 115.169747 
L 74.5 115.086258 
L 72.45 115.000316 
L 70.4 114.917166 
L 68.35 114.84705 
L 66.3 114.786768 
L 64.25 114.726946 
L 62.2 114.661434 
L 60.15 114.584421 
L 58.1 114.492274 
L 56.05 114.390047 
z
" clip-path="url(#p61631b5251)" style="fill: #1f77b4; fill-opacity: 0.6"/>
   </g>
   <g id="PolyCollection_2">
    <path d="M 56.05 114.345483 
L 56.05 117.441418 
L 58.1 117.296563 
L 60.15 117.168866 
L 62.2 117.065625 
L 64.25 116.986859 
L 66.3 116.92761 
L 68.35 116.885841 
L 70.4 116.847313 
L 72.45 116.811169 
L 74.5 116.76979 
L 76.55 116.723438 
L 78.6 116.674877 
L 80.65 116.628896 
L 82.7 116.587865 
L 84.75 116.550805 
L 86.8 116.513323 
L 88.85 116.473043 
L 90.9 116.429779 
L 92.95 116.387224 
L 95 116.344728 
L 97.05 116.306899 
L 99.1 116.273736 
L 101.15 116.243732 
L 103.2 116.217427 
L 105.25 116.076217 
L 107.3 116.071357 
L 109.35 116.067689 
L 111.4 116.063467 
L 113.45 116.058973 
L 115.5 116.052749 
L 117.55 116.046375 
L 119.6 116.039673 
L 121.65 116.033591 
L 123.7 116.028022 
L 125.75 116.022822 
L 127.8 116.01741 
L 129.85 116.011799 
L 131.9 116.006501 
L 133.95 116.002202 
L 136 115.998804 
L 138.05 115.997085 
L 140.1 115.996588 
L 142.15 115.996241 
L 144.2 115.995021 
L 146.25 115.992271 
L 148.3 115.98773 
L 150.35 115.982166 
L 152.4 115.976627 
L 154.45 115.972121 
L 156.5 115.969506 
L 158.55 115.968958 
L 160.6 115.969136 
L 162.65 115.968864 
L 164.7 115.967536 
L 166.75 115.964361 
L 168.8 115.956801 
L 170.85 115.937956 
L 172.9 115.891457 
L 174.95 115.782138 
L 177 115.557536 
L 179.05 115.158352 
L 181.1 114.535988 
L 183.15 113.67797 
L 185.2 112.634909 
L 187.25 111.544483 
L 189.3 110.642592 
L 191.35 110.249916 
L 193.4 110.737612 
L 195.45 112.505591 
L 197.5 115.926259 
L 199.55 121.231447 
L 201.6 128.389639 
L 203.65 137.014576 
L 205.7 146.339345 
L 207.75 155.257666 
L 209.8 162.461269 
L 211.85 166.64917 
L 213.9 166.772727 
L 215.95 162.137705 
L 218 152.359407 
L 220.05 137.543924 
L 222.1 118.51143 
L 224.15 96.801058 
L 226.2 74.522335 
L 228.25 54.076661 
L 230.3 37.830574 
L 232.35 27.83039 
L 234.4 25.61643 
L 236.45 31.938865 
L 238.5 45.916016 
L 240.55 65.522421 
L 242.6 88.283759 
L 244.65 111.485587 
L 246.7 132.491589 
L 248.75 149.102757 
L 250.8 159.686194 
L 252.85 163.636334 
L 254.9 163.184038 
L 256.95 159.122381 
L 259 151.877048 
L 261.05 142.174531 
L 263.1 131.103885 
L 265.15 119.888083 
L 267.2 109.683282 
L 269.25 101.429996 
L 271.3 95.758946 
L 273.35 92.973631 
L 275.4 93.096116 
L 277.45 95.683534 
L 279.5 99.793216 
L 281.55 104.525796 
L 283.6 109.157241 
L 285.65 113.150866 
L 287.7 116.181485 
L 289.75 118.136945 
L 291.8 119.092379 
L 293.85 119.274517 
L 295.9 118.990771 
L 297.95 118.408341 
L 300 117.691197 
L 302.05 118.072356 
L 304.1 117.517408 
L 306.15 117.159318 
L 308.2 116.966442 
L 310.25 116.873843 
L 312.3 116.822144 
L 314.35 116.7756 
L 316.4 116.719552 
L 318.45 116.654138 
L 320.5 116.586841 
L 322.55 116.520845 
L 324.6 116.465522 
L 326.65 116.416967 
L 328.7 116.38157 
L 330.75 116.354643 
L 332.8 116.331565 
L 334.85 116.310818 
L 336.9 116.293091 
L 338.95 116.277728 
L 341 116.259333 
L 343.05 116.239898 
L 345.1 116.21854 
L 347.15 116.197671 
L 349.2 116.177301 
L 349.2 115.724067 
L 349.2 115.724067 
L 347.15 115.704264 
L 345.1 115.68148 
L 343.05 115.655857 
L 341 115.626742 
L 338.95 115.594663 
L 336.9 115.561659 
L 334.85 115.527864 
L 332.8 115.496228 
L 330.75 115.467766 
L 328.7 115.439138 
L 326.65 115.407951 
L 324.6 115.371619 
L 322.55 115.332728 
L 320.5 115.294209 
L 318.45 115.257846 
L 316.4 115.225037 
L 314.35 115.191752 
L 312.3 115.157393 
L 310.25 115.116182 
L 308.2 115.092331 
L 306.15 115.136722 
L 304.1 115.311848 
L 302.05 115.659893 
L 300 117.302207 
L 297.95 118.016603 
L 295.9 118.665805 
L 293.85 118.931003 
L 291.8 118.437561 
L 289.75 116.996315 
L 287.7 114.504614 
L 285.65 110.992261 
L 283.6 106.673704 
L 281.55 101.958078 
L 279.5 97.417467 
L 277.45 93.702394 
L 275.4 91.378182 
L 273.35 90.836841 
L 271.3 92.608185 
L 269.25 97.119609 
L 267.2 104.371977 
L 265.15 113.936992 
L 263.1 125.000638 
L 261.05 136.441923 
L 259 146.945209 
L 256.95 155.120184 
L 254.9 159.608548 
L 252.85 159.434459 
L 250.8 152.994918 
L 248.75 139.735424 
L 246.7 121.087512 
L 244.65 99.034841 
L 242.6 75.952761 
L 240.55 54.354217 
L 238.5 36.512312 
L 236.45 24.163287 
L 234.4 18.227273 
L 232.35 19.220211 
L 230.3 27.424022 
L 228.25 42.203658 
L 226.2 61.965138 
L 224.15 84.483757 
L 222.1 107.262089 
L 220.05 127.944506 
L 218 144.600817 
L 215.95 155.939599 
L 213.9 161.422297 
L 211.85 161.398946 
L 209.8 157.003739 
L 207.75 149.715239 
L 205.7 141.01224 
L 203.65 132.196253 
L 201.6 124.27241 
L 199.55 117.884392 
L 197.5 113.30712 
L 195.45 110.502243 
L 193.4 109.211314 
L 191.35 109.063698 
L 189.3 109.679292 
L 187.25 110.729893 
L 185.2 111.941659 
L 183.15 113.10591 
L 181.1 114.089099 
L 179.05 114.832015 
L 177 115.336132 
L 174.95 115.641608 
L 172.9 115.804259 
L 170.85 115.876753 
L 168.8 115.901041 
L 166.75 115.905971 
L 164.7 115.905617 
L 162.65 115.904789 
L 160.6 115.90448 
L 158.55 115.904451 
L 156.5 115.903238 
L 154.45 115.899663 
L 152.4 115.893992 
L 150.35 115.887063 
L 148.3 115.879828 
L 146.25 115.873982 
L 144.2 115.870091 
L 142.15 115.868099 
L 140.1 115.866834 
L 138.05 115.865401 
L 136 115.862416 
L 133.95 115.857788 
L 131.9 115.851942 
L 129.85 115.845037 
L 127.8 115.838062 
L 125.75 115.831307 
L 123.7 115.824377 
L 121.65 115.816205 
L 119.6 115.805875 
L 117.55 115.794195 
L 115.5 115.781381 
L 113.45 115.768697 
L 111.4 115.755978 
L 109.35 115.742146 
L 107.3 115.726282 
L 105.25 115.707451 
L 103.2 115.618248 
L 101.15 115.591303 
L 99.1 115.564851 
L 97.05 115.538893 
L 95 115.515408 
L 92.95 115.492874 
L 90.9 115.474103 
L 88.85 115.45468 
L 86.8 115.430929 
L 84.75 115.40238 
L 82.7 115.366091 
L 80.65 115.319311 
L 78.6 115.256064 
L 76.55 115.183882 
L 74.5 115.10067 
L 72.45 115.016199 
L 70.4 114.932441 
L 68.35 114.856112 
L 66.3 114.789571 
L 64.25 114.721756 
L 62.2 114.639852 
L 60.15 114.547793 
L 58.1 114.446068 
L 56.05 114.345483 
z
" clip-path="url(#p61631b5251)" style="fill: #ff7f0e; fill-opacity: 0.6"/>
   </g>
   <g id="matplotlib.axis_1">
    <g id="xtick_1">
     <g id="line2d_1">
      <defs>
       <path id="m1ef99e5345" d="M 0 0 
L 0 3.5 
" style="stroke: #000000; stroke-width: 0.8"/>
      </defs>
      <g>
       <use xlink:href="#m1ef99e5345" x="56.05" y="174.2" style="stroke: #000000; stroke-width: 0.8"/>
      </g>
     </g>
     <g id="text_1">
      <!-- −0.2 -->
      <g transform="translate(43.908594 188.798438)scale(0.1 -0.1)">
       <defs>
        <path id="DejaVuSans-2212" d="M 678 2272 
L 4684 2272 
L 4684 1741 
L 678 1741 
L 678 2272 
z
" transform="scale(0.015625)"/>
        <path id="DejaVuSans-30" d="M 2034 4250 
Q 1547 4250 1301 3770 
Q 1056 3291 1056 2328 
Q 1056 1369 1301 889 
Q 1547 409 2034 409 
Q 2525 409 2770 889 
Q 3016 1369 3016 2328 
Q 3016 3291 2770 3770 
Q 2525 4250 2034 4250 
z
M 2034 4750 
Q 2819 4750 3233 4129 
Q 3647 3509 3647 2328 
Q 3647 1150 3233 529 
Q 2819 -91 2034 -91 
Q 1250 -91 836 529 
Q 422 1150 422 2328 
Q 422 3509 836 4129 
Q 1250 4750 2034 4750 
z
" transform="scale(0.015625)"/>
        <path id="DejaVuSans-2e" d="M 684 794 
L 1344 794 
L 1344 0 
L 684 0 
L 684 794 
z
" transform="scale(0.015625)"/>
        <path id="DejaVuSans-32" d="M 1228 531 
L 3431 531 
L 3431 0 
L 469 0 
L 469 531 
Q 828 903 1448 1529 
Q 2069 2156 2228 2338 
Q 2531 2678 2651 2914 
Q 2772 3150 2772 3378 
Q 2772 3750 2511 3984 
Q 2250 4219 1831 4219 
Q 1534 4219 1204 4116 
Q 875 4013 500 3803 
L 500 4441 
Q 881 4594 1212 4672 
Q 1544 4750 1819 4750 
Q 2544 4750 2975 4387 
Q 3406 4025 3406 3419 
Q 3406 3131 3298 2873 
Q 3191 2616 2906 2266 
Q 2828 2175 2409 1742 
Q 1991 1309 1228 531 
z
" transform="scale(0.015625)"/>
       </defs>
       <use xlink:href="#DejaVuSans-2212"/>
       <use xlink:href="#DejaVuSans-30" x="83.789062"/>
       <use xlink:href="#DejaVuSans-2e" x="147.412109"/>
       <use xlink:href="#DejaVuSans-32" x="179.199219"/>
      </g>
     </g>
    </g>
    <g id="xtick_2">
     <g id="line2d_2">
      <g>
       <use xlink:href="#m1ef99e5345" x="105.25" y="174.2" style="stroke: #000000; stroke-width: 0.8"/>
      </g>
     </g>
     <g id="text_2">
      <!-- 0.0 -->
      <g transform="translate(97.298438 188.798438)scale(0.1 -0.1)">
       <use xlink:href="#DejaVuSans-30"/>
       <use xlink:href="#DejaVuSans-2e" x="63.623047"/>
       <use xlink:href="#DejaVuSans-30" x="95.410156"/>
      </g>
     </g>
    </g>
    <g id="xtick_3">
     <g id="line2d_3">
      <g>
       <use xlink:href="#m1ef99e5345" x="154.45" y="174.2" style="stroke: #000000; stroke-width: 0.8"/>
      </g>
     </g>
     <g id="text_3">
      <!-- 0.2 -->
      <g transform="translate(146.498437 188.798438)scale(0.1 -0.1)">
       <use xlink:href="#DejaVuSans-30"/>
       <use xlink:href="#DejaVuSans-2e" x="63.623047"/>
       <use xlink:href="#DejaVuSans-32" x="95.410156"/>
      </g>
     </g>
    </g>
    <g id="xtick_4">
     <g id="line2d_4">
      <g>
       <use xlink:href="#m1ef99e5345" x="203.65" y="174.2" style="stroke: #000000; stroke-width: 0.8"/>
      </g>
     </g>
     <g id="text_4">
      <!-- 0.4 -->
      <g transform="translate(195.698438 188.798438)scale(0.1 -0.1)">
       <defs>
        <path id="DejaVuSans-34" d="M 2419 4116 
L 825 1625 
L 2419 1625 
L 2419 4116 
z
M 2253 4666 
L 3047 4666 
L 3047 1625 
L 3713 1625 
L 3713 1100 
L 3047 1100 
L 3047 0 
L 2419 0 
L 2419 1100 
L 313 1100 
L 313 1709 
L 2253 4666 
z
" transform="scale(0.015625)"/>
       </defs>
       <use xlink:href="#DejaVuSans-30"/>
       <use xlink:href="#DejaVuSans-2e" x="63.623047"/>
       <use xlink:href="#DejaVuSans-34" x="95.410156"/>
      </g>
     </g>
    </g>
    <g id="xtick_5">
     <g id="line2d_5">
      <g>
       <use xlink:href="#m1ef99e5345" x="252.85" y="174.2" style="stroke: #000000; stroke-width: 0.8"/>
      </g>
     </g>
     <g id="text_5">
      <!-- 0.6 -->
      <g transform="translate(244.898438 188.798438)scale(0.1 -0.1)">
       <defs>
        <path id="DejaVuSans-36" d="M 2113 2584 
Q 1688 2584 1439 2293 
Q 1191 2003 1191 1497 
Q 1191 994 1439 701 
Q 1688 409 2113 409 
Q 2538 409 2786 701 
Q 3034 994 3034 1497 
Q 3034 2003 2786 2293 
Q 2538 2584 2113 2584 
z
M 3366 4563 
L 3366 3988 
Q 3128 4100 2886 4159 
Q 2644 4219 2406 4219 
Q 1781 4219 1451 3797 
Q 1122 3375 1075 2522 
Q 1259 2794 1537 2939 
Q 1816 3084 2150 3084 
Q 2853 3084 3261 2657 
Q 3669 2231 3669 1497 
Q 3669 778 3244 343 
Q 2819 -91 2113 -91 
Q 1303 -91 875 529 
Q 447 1150 447 2328 
Q 447 3434 972 4092 
Q 1497 4750 2381 4750 
Q 2619 4750 2861 4703 
Q 3103 4656 3366 4563 
z
" transform="scale(0.015625)"/>
       </defs>
       <use xlink:href="#DejaVuSans-30"/>
       <use xlink:href="#DejaVuSans-2e" x="63.623047"/>
       <use xlink:href="#DejaVuSans-36" x="95.410156"/>
      </g>
     </g>
    </g>
    <g id="xtick_6">
     <g id="line2d_6">
      <g>
       <use xlink:href="#m1ef99e5345" x="302.05" y="174.2" style="stroke: #000000; stroke-width: 0.8"/>
      </g>
     </g>
     <g id="text_6">
      <!-- 0.8 -->
      <g transform="translate(294.098437 188.798438)scale(0.1 -0.1)">
       <defs>
        <path id="DejaVuSans-38" d="M 2034 2216 
Q 1584 2216 1326 1975 
Q 1069 1734 1069 1313 
Q 1069 891 1326 650 
Q 1584 409 2034 409 
Q 2484 409 2743 651 
Q 3003 894 3003 1313 
Q 3003 1734 2745 1975 
Q 2488 2216 2034 2216 
z
M 1403 2484 
Q 997 2584 770 2862 
Q 544 3141 544 3541 
Q 544 4100 942 4425 
Q 1341 4750 2034 4750 
Q 2731 4750 3128 4425 
Q 3525 4100 3525 3541 
Q 3525 3141 3298 2862 
Q 3072 2584 2669 2484 
Q 3125 2378 3379 2068 
Q 3634 1759 3634 1313 
Q 3634 634 3220 271 
Q 2806 -91 2034 -91 
Q 1263 -91 848 271 
Q 434 634 434 1313 
Q 434 1759 690 2068 
Q 947 2378 1403 2484 
z
M 1172 3481 
Q 1172 3119 1398 2916 
Q 1625 2713 2034 2713 
Q 2441 2713 2670 2916 
Q 2900 3119 2900 3481 
Q 2900 3844 2670 4047 
Q 2441 4250 2034 4250 
Q 1625 4250 1398 4047 
Q 1172 3844 1172 3481 
z
" transform="scale(0.015625)"/>
       </defs>
       <use xlink:href="#DejaVuSans-30"/>
       <use xlink:href="#DejaVuSans-2e" x="63.623047"/>
       <use xlink:href="#DejaVuSans-38" x="95.410156"/>
      </g>
     </g>
    </g>
    <g id="text_7">
     <!-- Time (s) -->
     <g transform="translate(182.296094 202.476562)scale(0.1 -0.1)">
      <defs>
       <path id="DejaVuSans-54" d="M -19 4666 
L 3928 4666 
L 3928 4134 
L 2272 4134 
L 2272 0 
L 1638 0 
L 1638 4134 
L -19 4134 
L -19 4666 
z
" transform="scale(0.015625)"/>
       <path id="DejaVuSans-69" d="M 603 3500 
L 1178 3500 
L 1178 0 
L 603 0 
L 603 3500 
z
M 603 4863 
L 1178 4863 
L 1178 4134 
L 603 4134 
L 603 4863 
z
" transform="scale(0.015625)"/>
       <path id="DejaVuSans-6d" d="M 3328 2828 
Q 3544 3216 3844 3400 
Q 4144 3584 4550 3584 
Q 5097 3584 5394 3201 
Q 5691 2819 5691 2113 
L 5691 0 
L 5113 0 
L 5113 2094 
Q 5113 2597 4934 2840 
Q 4756 3084 4391 3084 
Q 3944 3084 3684 2787 
Q 3425 2491 3425 1978 
L 3425 0 
L 2847 0 
L 2847 2094 
Q 2847 2600 2669 2842 
Q 2491 3084 2119 3084 
Q 1678 3084 1418 2786 
Q 1159 2488 1159 1978 
L 1159 0 
L 581 0 
L 581 3500 
L 1159 3500 
L 1159 2956 
Q 1356 3278 1631 3431 
Q 1906 3584 2284 3584 
Q 2666 3584 2933 3390 
Q 3200 3197 3328 2828 
z
" transform="scale(0.015625)"/>
       <path id="DejaVuSans-65" d="M 3597 1894 
L 3597 1613 
L 953 1613 
Q 991 1019 1311 708 
Q 1631 397 2203 397 
Q 2534 397 2845 478 
Q 3156 559 3463 722 
L 3463 178 
Q 3153 47 2828 -22 
Q 2503 -91 2169 -91 
Q 1331 -91 842 396 
Q 353 884 353 1716 
Q 353 2575 817 3079 
Q 1281 3584 2069 3584 
Q 2775 3584 3186 3129 
Q 3597 2675 3597 1894 
z
M 3022 2063 
Q 3016 2534 2758 2815 
Q 2500 3097 2075 3097 
Q 1594 3097 1305 2825 
Q 1016 2553 972 2059 
L 3022 2063 
z
" transform="scale(0.015625)"/>
       <path id="DejaVuSans-20" transform="scale(0.015625)"/>
       <path id="DejaVuSans-28" d="M 1984 4856 
Q 1566 4138 1362 3434 
Q 1159 2731 1159 2009 
Q 1159 1288 1364 580 
Q 1569 -128 1984 -844 
L 1484 -844 
Q 1016 -109 783 600 
Q 550 1309 550 2009 
Q 550 2706 781 3412 
Q 1013 4119 1484 4856 
L 1984 4856 
z
" transform="scale(0.015625)"/>
       <path id="DejaVuSans-73" d="M 2834 3397 
L 2834 2853 
Q 2591 2978 2328 3040 
Q 2066 3103 1784 3103 
Q 1356 3103 1142 2972 
Q 928 2841 928 2578 
Q 928 2378 1081 2264 
Q 1234 2150 1697 2047 
L 1894 2003 
Q 2506 1872 2764 1633 
Q 3022 1394 3022 966 
Q 3022 478 2636 193 
Q 2250 -91 1575 -91 
Q 1294 -91 989 -36 
Q 684 19 347 128 
L 347 722 
Q 666 556 975 473 
Q 1284 391 1588 391 
Q 1994 391 2212 530 
Q 2431 669 2431 922 
Q 2431 1156 2273 1281 
Q 2116 1406 1581 1522 
L 1381 1569 
Q 847 1681 609 1914 
Q 372 2147 372 2553 
Q 372 3047 722 3315 
Q 1072 3584 1716 3584 
Q 2034 3584 2315 3537 
Q 2597 3491 2834 3397 
z
" transform="scale(0.015625)"/>
       <path id="DejaVuSans-29" d="M 513 4856 
L 1013 4856 
Q 1481 4119 1714 3412 
Q 1947 2706 1947 2009 
Q 1947 1309 1714 600 
Q 1481 -109 1013 -844 
L 513 -844 
Q 928 -128 1133 580 
Q 1338 1288 1338 2009 
Q 1338 2731 1133 3434 
Q 928 4138 513 4856 
z
" transform="scale(0.015625)"/>
      </defs>
      <use xlink:href="#DejaVuSans-54"/>
      <use xlink:href="#DejaVuSans-69" x="57.958984"/>
      <use xlink:href="#DejaVuSans-6d" x="85.742188"/>
      <use xlink:href="#DejaVuSans-65" x="183.154297"/>
      <use xlink:href="#DejaVuSans-20" x="244.677734"/>
      <use xlink:href="#DejaVuSans-28" x="276.464844"/>
      <use xlink:href="#DejaVuSans-73" x="315.478516"/>
      <use xlink:href="#DejaVuSans-29" x="367.578125"/>
     </g>
    </g>
   </g>
   <g id="matplotlib.axis_2">
    <g id="ytick_1">
     <g id="line2d_7">
      <defs>
       <path id="m88061aa655" d="M 0 0 
L -3.5 0 
" style="stroke: #000000; stroke-width: 0.8"/>
      </defs>
      <g>
       <use xlink:href="#m88061aa655" x="56.05" y="147.327861" style="stroke: #000000; stroke-width: 0.8"/>
      </g>
     </g>
     <g id="text_8">
      <!-- −0.2 -->
      <g transform="translate(24.767187 151.12708)scale(0.1 -0.1)">
       <use xlink:href="#DejaVuSans-2212"/>
       <use xlink:href="#DejaVuSans-30" x="83.789062"/>
       <use xlink:href="#DejaVuSans-2e" x="147.412109"/>
       <use xlink:href="#DejaVuSans-32" x="179.199219"/>
      </g>
     </g>
    </g>
    <g id="ytick_2">
     <g id="line2d_8">
      <g>
       <use xlink:href="#m88061aa655" x="56.05" y="115.937062" style="stroke: #000000; stroke-width: 0.8"/>
      </g>
     </g>
     <g id="text_9">
      <!-- 0.0 -->
      <g transform="translate(33.146875 119.736281)scale(0.1 -0.1)">
       <use xlink:href="#DejaVuSans-30"/>
       <use xlink:href="#DejaVuSans-2e" x="63.623047"/>
       <use xlink:href="#DejaVuSans-30" x="95.410156"/>
      </g>
     </g>
    </g>
    <g id="ytick_3">
     <g id="line2d_9">
      <g>
       <use xlink:href="#m88061aa655" x="56.05" y="84.546264" style="stroke: #000000; stroke-width: 0.8"/>
      </g>
     </g>
     <g id="text_10">
      <!-- 0.2 -->
      <g transform="translate(33.146875 88.345483)scale(0.1 -0.1)">
       <use xlink:href="#DejaVuSans-30"/>
       <use xlink:href="#DejaVuSans-2e" x="63.623047"/>
       <use xlink:href="#DejaVuSans-32" x="95.410156"/>
      </g>
     </g>
    </g>
    <g id="ytick_4">
     <g id="line2d_10">
      <g>
       <use xlink:href="#m88061aa655" x="56.05" y="53.155466" style="stroke: #000000; stroke-width: 0.8"/>
      </g>
     </g>
     <g id="text_11">
      <!-- 0.4 -->
      <g transform="translate(33.146875 56.954685)scale(0.1 -0.1)">
       <use xlink:href="#DejaVuSans-30"/>
       <use xlink:href="#DejaVuSans-2e" x="63.623047"/>
       <use xlink:href="#DejaVuSans-34" x="95.410156"/>
      </g>
     </g>
    </g>
    <g id="ytick_5">
     <g id="line2d_11">
      <g>
       <use xlink:href="#m88061aa655" x="56.05" y="21.764667" style="stroke: #000000; stroke-width: 0.8"/>
      </g>
     </g>
     <g id="text_12">
      <!-- 0.6 -->
      <g transform="translate(33.146875 25.563886)scale(0.1 -0.1)">
       <use xlink:href="#DejaVuSans-30"/>
       <use xlink:href="#DejaVuSans-2e" x="63.623047"/>
       <use xlink:href="#DejaVuSans-36" x="95.410156"/>
      </g>
     </g>
    </g>
    <g id="text_13">
     <!-- Coeff. (a.u.) -->
     <g transform="translate(18.6875 121.775781)rotate(-90)scale(0.1 -0.1)">
      <defs>
       <path id="DejaVuSans-43" d="M 4122 4306 
L 4122 3641 
Q 3803 3938 3442 4084 
Q 3081 4231 2675 4231 
Q 1875 4231 1450 3742 
Q 1025 3253 1025 2328 
Q 1025 1406 1450 917 
Q 1875 428 2675 428 
Q 3081 428 3442 575 
Q 3803 722 4122 1019 
L 4122 359 
Q 3791 134 3420 21 
Q 3050 -91 2638 -91 
Q 1578 -91 968 557 
Q 359 1206 359 2328 
Q 359 3453 968 4101 
Q 1578 4750 2638 4750 
Q 3056 4750 3426 4639 
Q 3797 4528 4122 4306 
z
" transform="scale(0.015625)"/>
       <path id="DejaVuSans-6f" d="M 1959 3097 
Q 1497 3097 1228 2736 
Q 959 2375 959 1747 
Q 959 1119 1226 758 
Q 1494 397 1959 397 
Q 2419 397 2687 759 
Q 2956 1122 2956 1747 
Q 2956 2369 2687 2733 
Q 2419 3097 1959 3097 
z
M 1959 3584 
Q 2709 3584 3137 3096 
Q 3566 2609 3566 1747 
Q 3566 888 3137 398 
Q 2709 -91 1959 -91 
Q 1206 -91 779 398 
Q 353 888 353 1747 
Q 353 2609 779 3096 
Q 1206 3584 1959 3584 
z
" transform="scale(0.015625)"/>
       <path id="DejaVuSans-66" d="M 2375 4863 
L 2375 4384 
L 1825 4384 
Q 1516 4384 1395 4259 
Q 1275 4134 1275 3809 
L 1275 3500 
L 2222 3500 
L 2222 3053 
L 1275 3053 
L 1275 0 
L 697 0 
L 697 3053 
L 147 3053 
L 147 3500 
L 697 3500 
L 697 3744 
Q 697 4328 969 4595 
Q 1241 4863 1831 4863 
L 2375 4863 
z
" transform="scale(0.015625)"/>
       <path id="DejaVuSans-61" d="M 2194 1759 
Q 1497 1759 1228 1600 
Q 959 1441 959 1056 
Q 959 750 1161 570 
Q 1363 391 1709 391 
Q 2188 391 2477 730 
Q 2766 1069 2766 1631 
L 2766 1759 
L 2194 1759 
z
M 3341 1997 
L 3341 0 
L 2766 0 
L 2766 531 
Q 2569 213 2275 61 
Q 1981 -91 1556 -91 
Q 1019 -91 701 211 
Q 384 513 384 1019 
Q 384 1609 779 1909 
Q 1175 2209 1959 2209 
L 2766 2209 
L 2766 2266 
Q 2766 2663 2505 2880 
Q 2244 3097 1772 3097 
Q 1472 3097 1187 3025 
Q 903 2953 641 2809 
L 641 3341 
Q 956 3463 1253 3523 
Q 1550 3584 1831 3584 
Q 2591 3584 2966 3190 
Q 3341 2797 3341 1997 
z
" transform="scale(0.015625)"/>
       <path id="DejaVuSans-75" d="M 544 1381 
L 544 3500 
L 1119 3500 
L 1119 1403 
Q 1119 906 1312 657 
Q 1506 409 1894 409 
Q 2359 409 2629 706 
Q 2900 1003 2900 1516 
L 2900 3500 
L 3475 3500 
L 3475 0 
L 2900 0 
L 2900 538 
Q 2691 219 2414 64 
Q 2138 -91 1772 -91 
Q 1169 -91 856 284 
Q 544 659 544 1381 
z
M 1991 3584 
L 1991 3584 
z
" transform="scale(0.015625)"/>
      </defs>
      <use xlink:href="#DejaVuSans-43"/>
      <use xlink:href="#DejaVuSans-6f" x="69.824219"/>
      <use xlink:href="#DejaVuSans-65" x="131.005859"/>
      <use xlink:href="#DejaVuSans-66" x="192.529297"/>
      <use xlink:href="#DejaVuSans-66" x="227.734375"/>
      <use xlink:href="#DejaVuSans-2e" x="255.689453"/>
      <use xlink:href="#DejaVuSans-20" x="287.476562"/>
      <use xlink:href="#DejaVuSans-28" x="319.263672"/>
      <use xlink:href="#DejaVuSans-61" x="358.277344"/>
      <use xlink:href="#DejaVuSans-2e" x="419.556641"/>
      <use xlink:href="#DejaVuSans-75" x="451.34375"/>
      <use xlink:href="#DejaVuSans-2e" x="514.722656"/>
      <use xlink:href="#DejaVuSans-29" x="546.509766"/>
     </g>
    </g>
   </g>
   <g id="line2d_12">
    <path d="M 56.05 115.957771 
L 72.45 115.918334 
L 90.9 115.943845 
L 121.65 115.923784 
L 193.4 115.92588 
L 195.45 115.846684 
L 197.5 115.588822 
L 199.55 115.030598 
L 201.6 114.097826 
L 203.65 112.818365 
L 207.75 110.024673 
L 209.8 109.237407 
L 211.85 109.460618 
L 213.9 111.111827 
L 215.95 114.462974 
L 218 119.550719 
L 220.05 126.115542 
L 224.15 141.115213 
L 226.2 147.674818 
L 228.25 152.186077 
L 230.3 153.681466 
L 232.35 151.462763 
L 234.4 145.238143 
L 236.45 135.207576 
L 238.5 122.085829 
L 244.65 77.413569 
L 246.7 66.105407 
L 248.75 59.026658 
L 250.8 57.080005 
L 252.85 60.551895 
L 254.9 67.556074 
L 256.95 76.608739 
L 263.1 108.012921 
L 265.15 117.01228 
L 267.2 124.046894 
L 269.25 128.725886 
L 271.3 130.897595 
L 273.35 130.681384 
L 275.4 128.479828 
L 277.45 124.849465 
L 283.6 111.701409 
L 285.65 108.376131 
L 287.7 106.118228 
L 289.75 104.985235 
L 291.8 104.887105 
L 293.85 105.602045 
L 295.9 106.84613 
L 300 109.823253 
L 302.05 111.149042 
L 304.1 112.220875 
L 306.15 113.013064 
L 308.2 113.573147 
L 312.3 114.287946 
L 316.4 114.748879 
L 322.55 115.171572 
L 330.75 115.481409 
L 347.15 115.825202 
L 349.2 115.844944 
L 349.2 115.844944 
" clip-path="url(#p61631b5251)" style="fill: none; stroke: #1f77b4; stroke-width: 1.5; stroke-linecap: square"/>
   </g>
   <g id="line2d_13">
    <path d="M 56.05 115.893451 
L 68.35 115.870977 
L 88.85 115.963861 
L 115.5 115.917065 
L 170.85 115.907354 
L 174.95 115.711873 
L 177 115.446834 
L 179.05 114.995184 
L 181.1 114.312544 
L 183.15 113.39194 
L 189.3 110.160942 
L 191.35 109.656807 
L 193.4 109.974463 
L 195.45 111.503917 
L 197.5 114.61669 
L 199.55 119.557919 
L 201.6 126.331024 
L 203.65 134.605414 
L 207.75 152.486453 
L 209.8 159.732504 
L 211.85 164.024058 
L 213.9 164.097512 
L 215.95 159.038652 
L 218 148.480112 
L 220.05 132.744215 
L 222.1 112.88676 
L 226.2 68.243736 
L 228.25 48.14016 
L 230.3 32.627298 
L 232.35 23.5253 
L 234.4 21.921851 
L 236.45 28.051076 
L 238.5 41.214164 
L 240.55 59.938319 
L 246.7 126.78955 
L 248.75 144.419091 
L 250.8 156.340556 
L 252.85 161.535396 
L 254.9 161.396293 
L 256.95 157.121282 
L 259 149.411128 
L 261.05 139.308227 
L 265.15 116.912537 
L 267.2 107.027629 
L 269.25 99.274802 
L 271.3 94.183565 
L 273.35 91.905236 
L 275.4 92.237149 
L 277.45 94.692964 
L 279.5 98.605341 
L 283.6 107.915472 
L 285.65 112.071564 
L 287.7 115.343049 
L 289.75 117.56663 
L 291.8 118.76497 
L 293.85 119.10276 
L 295.9 118.828288 
L 304.1 116.414628 
L 306.15 116.14802 
L 310.25 115.995013 
L 349.2 115.950684 
L 349.2 115.950684 
" clip-path="url(#p61631b5251)" style="fill: none; stroke: #ff7f0e; stroke-width: 1.5; stroke-linecap: square"/>
   </g>
   <g id="patch_3">
    <path d="M 56.05 174.2 
L 56.05 10.8 
" style="fill: none; stroke: #000000; stroke-width: 0.8; stroke-linejoin: miter; stroke-linecap: square"/>
   </g>
   <g id="patch_4">
    <path d="M 56.05 174.2 
L 349.2 174.2 
" style="fill: none; stroke: #000000; stroke-width: 0.8; stroke-linejoin: miter; stroke-linecap: square"/>
   </g>
   <g id="legend_1">
    <g id="line2d_14">
     <path d="M 65.05 23.898438 
L 75.05 23.898438 
L 85.05 23.898438 
" style="fill: none; stroke: #1f77b4; stroke-width: 1.5; stroke-linecap: square"/>
    </g>
    <g id="text_14">
     <!-- Node count/high surprisal -->
     <g transform="translate(93.05 27.398438)scale(0.1 -0.1)">
      <defs>
       <path id="DejaVuSans-4e" d="M 628 4666 
L 1478 4666 
L 3547 763 
L 3547 4666 
L 4159 4666 
L 4159 0 
L 3309 0 
L 1241 3903 
L 1241 0 
L 628 0 
L 628 4666 
z
" transform="scale(0.015625)"/>
       <path id="DejaVuSans-64" d="M 2906 2969 
L 2906 4863 
L 3481 4863 
L 3481 0 
L 2906 0 
L 2906 525 
Q 2725 213 2448 61 
Q 2172 -91 1784 -91 
Q 1150 -91 751 415 
Q 353 922 353 1747 
Q 353 2572 751 3078 
Q 1150 3584 1784 3584 
Q 2172 3584 2448 3432 
Q 2725 3281 2906 2969 
z
M 947 1747 
Q 947 1113 1208 752 
Q 1469 391 1925 391 
Q 2381 391 2643 752 
Q 2906 1113 2906 1747 
Q 2906 2381 2643 2742 
Q 2381 3103 1925 3103 
Q 1469 3103 1208 2742 
Q 947 2381 947 1747 
z
" transform="scale(0.015625)"/>
       <path id="DejaVuSans-63" d="M 3122 3366 
L 3122 2828 
Q 2878 2963 2633 3030 
Q 2388 3097 2138 3097 
Q 1578 3097 1268 2742 
Q 959 2388 959 1747 
Q 959 1106 1268 751 
Q 1578 397 2138 397 
Q 2388 397 2633 464 
Q 2878 531 3122 666 
L 3122 134 
Q 2881 22 2623 -34 
Q 2366 -91 2075 -91 
Q 1284 -91 818 406 
Q 353 903 353 1747 
Q 353 2603 823 3093 
Q 1294 3584 2113 3584 
Q 2378 3584 2631 3529 
Q 2884 3475 3122 3366 
z
" transform="scale(0.015625)"/>
       <path id="DejaVuSans-6e" d="M 3513 2113 
L 3513 0 
L 2938 0 
L 2938 2094 
Q 2938 2591 2744 2837 
Q 2550 3084 2163 3084 
Q 1697 3084 1428 2787 
Q 1159 2491 1159 1978 
L 1159 0 
L 581 0 
L 581 3500 
L 1159 3500 
L 1159 2956 
Q 1366 3272 1645 3428 
Q 1925 3584 2291 3584 
Q 2894 3584 3203 3211 
Q 3513 2838 3513 2113 
z
" transform="scale(0.015625)"/>
       <path id="DejaVuSans-74" d="M 1172 4494 
L 1172 3500 
L 2356 3500 
L 2356 3053 
L 1172 3053 
L 1172 1153 
Q 1172 725 1289 603 
Q 1406 481 1766 481 
L 2356 481 
L 2356 0 
L 1766 0 
Q 1100 0 847 248 
Q 594 497 594 1153 
L 594 3053 
L 172 3053 
L 172 3500 
L 594 3500 
L 594 4494 
L 1172 4494 
z
" transform="scale(0.015625)"/>
       <path id="DejaVuSans-2f" d="M 1625 4666 
L 2156 4666 
L 531 -594 
L 0 -594 
L 1625 4666 
z
" transform="scale(0.015625)"/>
       <path id="DejaVuSans-68" d="M 3513 2113 
L 3513 0 
L 2938 0 
L 2938 2094 
Q 2938 2591 2744 2837 
Q 2550 3084 2163 3084 
Q 1697 3084 1428 2787 
Q 1159 2491 1159 1978 
L 1159 0 
L 581 0 
L 581 4863 
L 1159 4863 
L 1159 2956 
Q 1366 3272 1645 3428 
Q 1925 3584 2291 3584 
Q 2894 3584 3203 3211 
Q 3513 2838 3513 2113 
z
" transform="scale(0.015625)"/>
       <path id="DejaVuSans-67" d="M 2906 1791 
Q 2906 2416 2648 2759 
Q 2391 3103 1925 3103 
Q 1463 3103 1205 2759 
Q 947 2416 947 1791 
Q 947 1169 1205 825 
Q 1463 481 1925 481 
Q 2391 481 2648 825 
Q 2906 1169 2906 1791 
z
M 3481 434 
Q 3481 -459 3084 -895 
Q 2688 -1331 1869 -1331 
Q 1566 -1331 1297 -1286 
Q 1028 -1241 775 -1147 
L 775 -588 
Q 1028 -725 1275 -790 
Q 1522 -856 1778 -856 
Q 2344 -856 2625 -561 
Q 2906 -266 2906 331 
L 2906 616 
Q 2728 306 2450 153 
Q 2172 0 1784 0 
Q 1141 0 747 490 
Q 353 981 353 1791 
Q 353 2603 747 3093 
Q 1141 3584 1784 3584 
Q 2172 3584 2450 3431 
Q 2728 3278 2906 2969 
L 2906 3500 
L 3481 3500 
L 3481 434 
z
" transform="scale(0.015625)"/>
       <path id="DejaVuSans-72" d="M 2631 2963 
Q 2534 3019 2420 3045 
Q 2306 3072 2169 3072 
Q 1681 3072 1420 2755 
Q 1159 2438 1159 1844 
L 1159 0 
L 581 0 
L 581 3500 
L 1159 3500 
L 1159 2956 
Q 1341 3275 1631 3429 
Q 1922 3584 2338 3584 
Q 2397 3584 2469 3576 
Q 2541 3569 2628 3553 
L 2631 2963 
z
" transform="scale(0.015625)"/>
       <path id="DejaVuSans-70" d="M 1159 525 
L 1159 -1331 
L 581 -1331 
L 581 3500 
L 1159 3500 
L 1159 2969 
Q 1341 3281 1617 3432 
Q 1894 3584 2278 3584 
Q 2916 3584 3314 3078 
Q 3713 2572 3713 1747 
Q 3713 922 3314 415 
Q 2916 -91 2278 -91 
Q 1894 -91 1617 61 
Q 1341 213 1159 525 
z
M 3116 1747 
Q 3116 2381 2855 2742 
Q 2594 3103 2138 3103 
Q 1681 3103 1420 2742 
Q 1159 2381 1159 1747 
Q 1159 1113 1420 752 
Q 1681 391 2138 391 
Q 2594 391 2855 752 
Q 3116 1113 3116 1747 
z
" transform="scale(0.015625)"/>
       <path id="DejaVuSans-6c" d="M 603 4863 
L 1178 4863 
L 1178 0 
L 603 0 
L 603 4863 
z
" transform="scale(0.015625)"/>
      </defs>
      <use xlink:href="#DejaVuSans-4e"/>
      <use xlink:href="#DejaVuSans-6f" x="74.804688"/>
      <use xlink:href="#DejaVuSans-64" x="135.986328"/>
      <use xlink:href="#DejaVuSans-65" x="199.462891"/>
      <use xlink:href="#DejaVuSans-20" x="260.986328"/>
      <use xlink:href="#DejaVuSans-63" x="292.773438"/>
      <use xlink:href="#DejaVuSans-6f" x="347.753906"/>
      <use xlink:href="#DejaVuSans-75" x="408.935547"/>
      <use xlink:href="#DejaVuSans-6e" x="472.314453"/>
      <use xlink:href="#DejaVuSans-74" x="535.693359"/>
      <use xlink:href="#DejaVuSans-2f" x="574.902344"/>
      <use xlink:href="#DejaVuSans-68" x="608.59375"/>
      <use xlink:href="#DejaVuSans-69" x="671.972656"/>
      <use xlink:href="#DejaVuSans-67" x="699.755859"/>
      <use xlink:href="#DejaVuSans-68" x="763.232422"/>
      <use xlink:href="#DejaVuSans-20" x="826.611328"/>
      <use xlink:href="#DejaVuSans-73" x="858.398438"/>
      <use xlink:href="#DejaVuSans-75" x="910.498047"/>
      <use xlink:href="#DejaVuSans-72" x="973.876953"/>
      <use xlink:href="#DejaVuSans-70" x="1014.990234"/>
      <use xlink:href="#DejaVuSans-72" x="1078.466797"/>
      <use xlink:href="#DejaVuSans-69" x="1119.580078"/>
      <use xlink:href="#DejaVuSans-73" x="1147.363281"/>
      <use xlink:href="#DejaVuSans-61" x="1199.462891"/>
      <use xlink:href="#DejaVuSans-6c" x="1260.742188"/>
     </g>
    </g>
    <g id="line2d_15">
     <path d="M 65.05 38.576563 
L 75.05 38.576563 
L 85.05 38.576563 
" style="fill: none; stroke: #ff7f0e; stroke-width: 1.5; stroke-linecap: square"/>
    </g>
    <g id="text_15">
     <!-- Node count/low surprisal -->
     <g transform="translate(93.05 42.076563)scale(0.1 -0.1)">
      <defs>
       <path id="DejaVuSans-77" d="M 269 3500 
L 844 3500 
L 1563 769 
L 2278 3500 
L 2956 3500 
L 3675 769 
L 4391 3500 
L 4966 3500 
L 4050 0 
L 3372 0 
L 2619 2869 
L 1863 0 
L 1184 0 
L 269 3500 
z
" transform="scale(0.015625)"/>
      </defs>
      <use xlink:href="#DejaVuSans-4e"/>
      <use xlink:href="#DejaVuSans-6f" x="74.804688"/>
      <use xlink:href="#DejaVuSans-64" x="135.986328"/>
      <use xlink:href="#DejaVuSans-65" x="199.462891"/>
      <use xlink:href="#DejaVuSans-20" x="260.986328"/>
      <use xlink:href="#DejaVuSans-63" x="292.773438"/>
      <use xlink:href="#DejaVuSans-6f" x="347.753906"/>
      <use xlink:href="#DejaVuSans-75" x="408.935547"/>
      <use xlink:href="#DejaVuSans-6e" x="472.314453"/>
      <use xlink:href="#DejaVuSans-74" x="535.693359"/>
      <use xlink:href="#DejaVuSans-2f" x="574.902344"/>
      <use xlink:href="#DejaVuSans-6c" x="608.59375"/>
      <use xlink:href="#DejaVuSans-6f" x="636.376953"/>
      <use xlink:href="#DejaVuSans-77" x="697.558594"/>
      <use xlink:href="#DejaVuSans-20" x="779.345703"/>
      <use xlink:href="#DejaVuSans-73" x="811.132812"/>
      <use xlink:href="#DejaVuSans-75" x="863.232422"/>
      <use xlink:href="#DejaVuSans-72" x="926.611328"/>
      <use xlink:href="#DejaVuSans-70" x="967.724609"/>
      <use xlink:href="#DejaVuSans-72" x="1031.201172"/>
      <use xlink:href="#DejaVuSans-69" x="1072.314453"/>
      <use xlink:href="#DejaVuSans-73" x="1100.097656"/>
      <use xlink:href="#DejaVuSans-61" x="1152.197266"/>
      <use xlink:href="#DejaVuSans-6c" x="1213.476562"/>
     </g>
    </g>
   </g>
  </g>
 </g>
 <defs>
  <clipPath id="p61631b5251">
   <rect x="56.05" y="10.8" width="293.15" height="163.4"/>
  </clipPath>
 </defs>
</svg>
