<?xml version="1.0" encoding="utf-8" standalone="no"?>
<!DOCTYPE svg PUBLIC "-//W3C//DTD SVG 1.1//EN"
  "http://www.w3.org/Graphics/SVG/1.1/DTD/svg11.dtd">
<svg xmlns:xlink="http://www.w3.org/1999/xlink" width="720pt" height="216pt" viewBox="0 0 720 216" xmlns="http://www.w3.org/2000/svg" version="1.1">
 <metadata>
  <rdf:RDF xmlns:dc="http://purl.org/dc/elements/1.1/" xmlns:cc="http://creativecommons.org/ns#" xmlns:rdf="http://www.w3.org/1999/02/22-rdf-syntax-ns#">
   <cc:Work>
    <dc:type rdf:resource="http://purl.org/dc/dcmitype/StillImage"/>
    <dc:date>2024-01-15T22:36:00.885721</dc:date>
    <dc:format>image/svg+xml</dc:format>
    <dc:creator>
     <cc:Agent>
      <dc:title>Matplotlib v3.5.1, https://matplotlib.org/</dc:title>
     </cc:Agent>
    </dc:creator>
   </cc:Work>
  </rdf:RDF>
 </metadata>
 <defs>
  <style type="text/css">*{stroke-linejoin: round; stroke-linecap: butt}</style>
 </defs>
 <g id="figure_1">
  <g id="patch_1">
   <path d="M 0 216 
L 720 216 
L 720 0 
L 0 0 
z
" style="fill: #ffffff"/>
  </g>
  <g id="axes_1">
   <g id="patch_2">
    <path d="M 47.72 174.04 
L 265.215 174.04 
L 265.215 26.88 
L 47.72 26.88 
z
" style="fill: #ffffff"/>
   </g>
   <g id="PolyCollection_1">
    <path d="M 47.72 33.569091 
L 47.72 34.376812 
L 59.167105 36.320616 
L 70.614211 42.773569 
L 82.061316 51.181154 
L 93.508421 61.772635 
L 104.955526 72.155714 
L 116.402632 82.158686 
L 127.849737 92.710024 
L 139.296842 102.822881 
L 150.743947 110.529368 
L 162.191053 117.8302 
L 173.638158 124.320594 
L 185.085263 129.919722 
L 196.532368 135.485407 
L 207.979474 140.265985 
L 219.426579 143.991901 
L 230.873684 148.070583 
L 242.320789 150.613009 
L 253.767895 153.845939 
L 265.215 156.567862 
L 265.215 150.162727 
L 265.215 150.162727 
L 253.767895 147.872984 
L 242.320789 144.748771 
L 230.873684 141.631787 
L 219.426579 138.259837 
L 207.979474 133.938361 
L 196.532368 128.564909 
L 185.085263 123.037548 
L 173.638158 115.685681 
L 162.191053 109.252148 
L 150.743947 101.178141 
L 139.296842 92.1203 
L 127.849737 83.138727 
L 116.402632 74.855614 
L 104.955526 65.040196 
L 93.508421 55.149858 
L 82.061316 46.72637 
L 70.614211 40.487151 
L 59.167105 35.47743 
L 47.72 33.569091 
z
" clip-path="url(#p8bafdead2c)" style="fill: #1f77b4; fill-opacity: 0.4"/>
   </g>
   <g id="PolyCollection_2">
    <path d="M 47.72 33.581175 
L 47.72 34.387308 
L 59.167105 35.713427 
L 70.614211 39.398033 
L 82.061316 44.229555 
L 93.508421 51.813706 
L 104.955526 59.517619 
L 116.402632 67.947738 
L 127.849737 77.268468 
L 139.296842 86.795522 
L 150.743947 94.698094 
L 162.191053 102.502111 
L 173.638158 110.162005 
L 185.085263 116.631798 
L 196.532368 123.022333 
L 207.979474 128.181814 
L 219.426579 133.294011 
L 230.873684 137.97321 
L 242.320789 141.17292 
L 253.767895 144.886584 
L 265.215 148.44845 
L 265.215 141.040451 
L 265.215 141.040451 
L 253.767895 138.542379 
L 242.320789 134.162778 
L 230.873684 130.803378 
L 219.426579 126.316389 
L 207.979474 122.110098 
L 196.532368 115.346852 
L 185.085263 109.184918 
L 173.638158 101.687822 
L 162.191053 94.700127 
L 150.743947 86.880989 
L 139.296842 77.905919 
L 127.849737 69.466168 
L 116.402632 62.408434 
L 104.955526 54.512637 
L 93.508421 47.110381 
L 82.061316 41.765698 
L 70.614211 37.623918 
L 59.167105 34.892387 
L 47.72 33.581175 
z
" clip-path="url(#p8bafdead2c)" style="fill: #ff7f0e; fill-opacity: 0.4"/>
   </g>
   <g id="PolyCollection_3">
    <path d="M 47.72 33.581052 
L 47.72 34.388913 
L 59.167105 35.879694 
L 70.614211 39.092213 
L 82.061316 43.231454 
L 93.508421 47.933595 
L 104.955526 53.09418 
L 116.402632 57.355175 
L 127.849737 62.326299 
L 139.296842 67.924546 
L 150.743947 72.522833 
L 162.191053 77.46552 
L 173.638158 82.663382 
L 185.085263 86.879827 
L 196.532368 91.208431 
L 207.979474 95.911302 
L 219.426579 99.584713 
L 230.873684 103.143774 
L 242.320789 107.514082 
L 253.767895 111.231066 
L 265.215 115.504752 
L 265.215 102.481901 
L 265.215 102.481901 
L 253.767895 99.682471 
L 242.320789 95.035676 
L 230.873684 92.706037 
L 219.426579 88.652413 
L 207.979474 84.573846 
L 196.532368 80.462603 
L 185.085263 76.474666 
L 173.638158 72.795606 
L 162.191053 68.664646 
L 150.743947 64.458666 
L 139.296842 60.28407 
L 127.849737 56.071195 
L 116.402632 51.792266 
L 104.955526 47.326548 
L 93.508421 43.248578 
L 82.061316 39.741563 
L 70.614211 37.582747 
L 59.167105 35.146488 
L 47.72 33.581052 
z
" clip-path="url(#p8bafdead2c)" style="fill: #2ca02c; fill-opacity: 0.4"/>
   </g>
   <g id="PolyCollection_4">
    <path d="M 47.72 33.589902 
L 47.72 34.399338 
L 59.167105 35.643375 
L 70.614211 38.043711 
L 82.061316 41.163633 
L 93.508421 45.410113 
L 104.955526 50.18085 
L 116.402632 54.55261 
L 127.849737 59.841728 
L 139.296842 65.688562 
L 150.743947 70.670768 
L 162.191053 75.971477 
L 173.638158 81.234955 
L 185.085263 85.597613 
L 196.532368 90.081326 
L 207.979474 94.560327 
L 219.426579 98.097579 
L 230.873684 101.407161 
L 242.320789 105.590882 
L 253.767895 109.068456 
L 265.215 113.242373 
L 265.215 100.707433 
L 265.215 100.707433 
L 253.767895 97.981497 
L 242.320789 93.510456 
L 230.873684 91.152104 
L 219.426579 87.147163 
L 207.979474 83.065915 
L 196.532368 78.898862 
L 185.085263 74.909775 
L 173.638158 71.246493 
L 162.191053 66.864767 
L 150.743947 62.512951 
L 139.296842 58.015356 
L 127.849737 53.613325 
L 116.402632 49.524849 
L 104.955526 45.205083 
L 93.508421 41.469532 
L 82.061316 38.594512 
L 70.614211 36.694817 
L 59.167105 34.844369 
L 47.72 33.589902 
z
" clip-path="url(#p8bafdead2c)" style="fill: #d62728; fill-opacity: 0.4"/>
   </g>
   <g id="PolyCollection_5">
    <path d="M 47.72 33.579355 
L 47.72 34.391461 
L 59.167105 36.325378 
L 70.614211 42.82069 
L 82.061316 51.263095 
L 93.508421 61.738609 
L 104.955526 72.281288 
L 116.402632 82.634209 
L 127.849737 92.914699 
L 139.296842 102.774359 
L 150.743947 110.992944 
L 162.191053 117.898271 
L 173.638158 124.658788 
L 185.085263 130.131023 
L 196.532368 135.816811 
L 207.979474 140.846159 
L 219.426579 144.806534 
L 230.873684 149.42729 
L 242.320789 152.147355 
L 253.767895 154.722412 
L 265.215 157.971691 
L 265.215 151.157904 
L 265.215 151.157904 
L 253.767895 147.978473 
L 242.320789 145.696931 
L 230.873684 141.25519 
L 219.426579 137.867139 
L 207.979474 134.086074 
L 196.532368 128.645681 
L 185.085263 123.719855 
L 173.638158 115.783941 
L 162.191053 109.445899 
L 150.743947 101.535729 
L 139.296842 92.354538 
L 127.849737 83.151705 
L 116.402632 74.866415 
L 104.955526 64.994991 
L 93.508421 55.113452 
L 82.061316 46.727799 
L 70.614211 40.487305 
L 59.167105 35.484412 
L 47.72 33.579355 
z
" clip-path="url(#p8bafdead2c)" style="fill: #9467bd; fill-opacity: 0.4"/>
   </g>
   <g id="PolyCollection_6">
    <path d="M 47.72 33.591423 
L 47.72 34.403296 
L 59.167105 35.720189 
L 70.614211 39.397218 
L 82.061316 44.296692 
L 93.508421 51.816565 
L 104.955526 59.59852 
L 116.402632 68.294379 
L 127.849737 77.338298 
L 139.296842 86.80263 
L 150.743947 94.997584 
L 162.191053 102.535607 
L 173.638158 110.376336 
L 185.085263 116.745542 
L 196.532368 123.328375 
L 207.979474 128.300069 
L 219.426579 134.012701 
L 230.873684 138.373003 
L 242.320789 142.213787 
L 253.767895 145.621526 
L 265.215 149.178366 
L 265.215 142.125642 
L 265.215 142.125642 
L 253.767895 138.599633 
L 242.320789 135.086201 
L 230.873684 131.149953 
L 219.426579 126.093472 
L 207.979474 122.446216 
L 196.532368 115.365123 
L 185.085263 109.856344 
L 173.638158 101.809771 
L 162.191053 94.748898 
L 150.743947 87.045218 
L 139.296842 78.144953 
L 127.849737 69.531712 
L 116.402632 62.362286 
L 104.955526 54.531622 
L 93.508421 47.105568 
L 82.061316 41.763697 
L 70.614211 37.654186 
L 59.167105 34.892333 
L 47.72 33.591423 
z
" clip-path="url(#p8bafdead2c)" style="fill: #8c564b; fill-opacity: 0.4"/>
   </g>
   <g id="PolyCollection_7">
    <path d="M 47.72 43.958584 
L 47.72 47.95979 
L 59.167105 50.608932 
L 70.614211 59.082791 
L 82.061316 69.69274 
L 93.508421 81.345958 
L 104.955526 93.151307 
L 116.402632 102.816756 
L 127.849737 113.207086 
L 139.296842 123.131229 
L 150.743947 130.632584 
L 162.191053 137.836486 
L 173.638158 143.623471 
L 185.085263 148.38002 
L 196.532368 152.937783 
L 207.979474 156.318578 
L 219.426579 158.921939 
L 230.873684 161.421878 
L 242.320789 163.060702 
L 253.767895 165.164296 
L 265.215 167.350909 
L 265.215 161.478079 
L 265.215 161.478079 
L 253.767895 160.236353 
L 242.320789 157.937124 
L 230.873684 154.754836 
L 219.426579 151.479137 
L 207.979474 147.729918 
L 196.532368 142.210307 
L 185.085263 137.071094 
L 173.638158 130.638658 
L 162.191053 124.023891 
L 150.743947 116.738459 
L 139.296842 108.534838 
L 127.849737 99.103869 
L 116.402632 90.137004 
L 104.955526 79.10521 
L 93.508421 68.297844 
L 82.061316 58.496421 
L 70.614211 51.388182 
L 59.167105 46.147028 
L 47.72 43.958584 
z
" clip-path="url(#p8bafdead2c)" style="fill: #e377c2; fill-opacity: 0.4"/>
   </g>
   <g id="PolyCollection_8">
    <path d="M 47.72 33.59124 
L 47.72 34.413211 
L 59.167105 35.064171 
L 70.614211 35.821005 
L 82.061316 38.729175 
L 93.508421 43.729386 
L 104.955526 50.889426 
L 116.402632 58.381255 
L 127.849737 66.094473 
L 139.296842 75.267538 
L 150.743947 83.809189 
L 162.191053 92.296085 
L 173.638158 99.705039 
L 185.085263 107.074026 
L 196.532368 113.689562 
L 207.979474 120.09343 
L 219.426579 124.958776 
L 230.873684 129.888143 
L 242.320789 134.400338 
L 253.767895 138.357759 
L 265.215 142.729081 
L 265.215 131.202695 
L 265.215 131.202695 
L 253.767895 127.874095 
L 242.320789 122.368396 
L 230.873684 118.294062 
L 219.426579 112.784104 
L 207.979474 106.659609 
L 196.532368 99.321292 
L 185.085263 92.048308 
L 173.638158 85.060117 
L 162.191053 76.926253 
L 150.743947 69.654423 
L 139.296842 61.380607 
L 127.849737 53.963908 
L 116.402632 47.387361 
L 104.955526 41.687163 
L 93.508421 37.812402 
L 82.061316 35.581918 
L 70.614211 34.950578 
L 59.167105 34.236106 
L 47.72 33.59124 
z
" clip-path="url(#p8bafdead2c)" style="fill: #7f7f7f; fill-opacity: 0.4"/>
   </g>
   <g id="matplotlib.axis_1">
    <g id="xtick_1">
     <g id="line2d_1">
      <defs>
       <path id="m827acbe0da" d="M 0 0 
L 0 3.5 
" style="stroke: #000000; stroke-width: 0.8"/>
      </defs>
      <g>
       <use xlink:href="#m827acbe0da" x="47.72" y="174.04" style="stroke: #000000; stroke-width: 0.8"/>
      </g>
     </g>
     <g id="text_1">
      <!-- 0.0 -->
      <g transform="translate(39.768438 188.638438)scale(0.1 -0.1)">
       <defs>
        <path id="DejaVuSans-30" d="M 2034 4250 
Q 1547 4250 1301 3770 
Q 1056 3291 1056 2328 
Q 1056 1369 1301 889 
Q 1547 409 2034 409 
Q 2525 409 2770 889 
Q 3016 1369 3016 2328 
Q 3016 3291 2770 3770 
Q 2525 4250 2034 4250 
z
M 2034 4750 
Q 2819 4750 3233 4129 
Q 3647 3509 3647 2328 
Q 3647 1150 3233 529 
Q 2819 -91 2034 -91 
Q 1250 -91 836 529 
Q 422 1150 422 2328 
Q 422 3509 836 4129 
Q 1250 4750 2034 4750 
z
" transform="scale(0.015625)"/>
        <path id="DejaVuSans-2e" d="M 684 794 
L 1344 794 
L 1344 0 
L 684 0 
L 684 794 
z
" transform="scale(0.015625)"/>
       </defs>
       <use xlink:href="#DejaVuSans-30"/>
       <use xlink:href="#DejaVuSans-2e" x="63.623047"/>
       <use xlink:href="#DejaVuSans-30" x="95.410156"/>
      </g>
     </g>
    </g>
    <g id="xtick_2">
     <g id="line2d_2">
      <g>
       <use xlink:href="#m827acbe0da" x="102.09375" y="174.04" style="stroke: #000000; stroke-width: 0.8"/>
      </g>
     </g>
     <g id="text_2">
      <!-- 0.5 -->
      <g transform="translate(94.142188 188.638438)scale(0.1 -0.1)">
       <defs>
        <path id="DejaVuSans-35" d="M 691 4666 
L 3169 4666 
L 3169 4134 
L 1269 4134 
L 1269 2991 
Q 1406 3038 1543 3061 
Q 1681 3084 1819 3084 
Q 2600 3084 3056 2656 
Q 3513 2228 3513 1497 
Q 3513 744 3044 326 
Q 2575 -91 1722 -91 
Q 1428 -91 1123 -41 
Q 819 9 494 109 
L 494 744 
Q 775 591 1075 516 
Q 1375 441 1709 441 
Q 2250 441 2565 725 
Q 2881 1009 2881 1497 
Q 2881 1984 2565 2268 
Q 2250 2553 1709 2553 
Q 1456 2553 1204 2497 
Q 953 2441 691 2322 
L 691 4666 
z
" transform="scale(0.015625)"/>
       </defs>
       <use xlink:href="#DejaVuSans-30"/>
       <use xlink:href="#DejaVuSans-2e" x="63.623047"/>
       <use xlink:href="#DejaVuSans-35" x="95.410156"/>
      </g>
     </g>
    </g>
    <g id="xtick_3">
     <g id="line2d_3">
      <g>
       <use xlink:href="#m827acbe0da" x="156.4675" y="174.04" style="stroke: #000000; stroke-width: 0.8"/>
      </g>
     </g>
     <g id="text_3">
      <!-- 1.0 -->
      <g transform="translate(148.515938 188.638438)scale(0.1 -0.1)">
       <defs>
        <path id="DejaVuSans-31" d="M 794 531 
L 1825 531 
L 1825 4091 
L 703 3866 
L 703 4441 
L 1819 4666 
L 2450 4666 
L 2450 531 
L 3481 531 
L 3481 0 
L 794 0 
L 794 531 
z
" transform="scale(0.015625)"/>
       </defs>
       <use xlink:href="#DejaVuSans-31"/>
       <use xlink:href="#DejaVuSans-2e" x="63.623047"/>
       <use xlink:href="#DejaVuSans-30" x="95.410156"/>
      </g>
     </g>
    </g>
    <g id="xtick_4">
     <g id="line2d_4">
      <g>
       <use xlink:href="#m827acbe0da" x="210.84125" y="174.04" style="stroke: #000000; stroke-width: 0.8"/>
      </g>
     </g>
     <g id="text_4">
      <!-- 1.5 -->
      <g transform="translate(202.889687 188.638438)scale(0.1 -0.1)">
       <use xlink:href="#DejaVuSans-31"/>
       <use xlink:href="#DejaVuSans-2e" x="63.623047"/>
       <use xlink:href="#DejaVuSans-35" x="95.410156"/>
      </g>
     </g>
    </g>
    <g id="xtick_5">
     <g id="line2d_5">
      <g>
       <use xlink:href="#m827acbe0da" x="265.215" y="174.04" style="stroke: #000000; stroke-width: 0.8"/>
      </g>
     </g>
     <g id="text_5">
      <!-- 2.0 -->
      <g transform="translate(257.263437 188.638438)scale(0.1 -0.1)">
       <defs>
        <path id="DejaVuSans-32" d="M 1228 531 
L 3431 531 
L 3431 0 
L 469 0 
L 469 531 
Q 828 903 1448 1529 
Q 2069 2156 2228 2338 
Q 2531 2678 2651 2914 
Q 2772 3150 2772 3378 
Q 2772 3750 2511 3984 
Q 2250 4219 1831 4219 
Q 1534 4219 1204 4116 
Q 875 4013 500 3803 
L 500 4441 
Q 881 4594 1212 4672 
Q 1544 4750 1819 4750 
Q 2544 4750 2975 4387 
Q 3406 4025 3406 3419 
Q 3406 3131 3298 2873 
Q 3191 2616 2906 2266 
Q 2828 2175 2409 1742 
Q 1991 1309 1228 531 
z
" transform="scale(0.015625)"/>
       </defs>
       <use xlink:href="#DejaVuSans-32"/>
       <use xlink:href="#DejaVuSans-2e" x="63.623047"/>
       <use xlink:href="#DejaVuSans-30" x="95.410156"/>
      </g>
     </g>
    </g>
    <g id="text_6">
     <!-- Influence of surprisal (multiplication) -->
     <g transform="translate(64.320625 202.316563)scale(0.1 -0.1)">
      <defs>
       <path id="DejaVuSans-49" d="M 628 4666 
L 1259 4666 
L 1259 0 
L 628 0 
L 628 4666 
z
" transform="scale(0.015625)"/>
       <path id="DejaVuSans-6e" d="M 3513 2113 
L 3513 0 
L 2938 0 
L 2938 2094 
Q 2938 2591 2744 2837 
Q 2550 3084 2163 3084 
Q 1697 3084 1428 2787 
Q 1159 2491 1159 1978 
L 1159 0 
L 581 0 
L 581 3500 
L 1159 3500 
L 1159 2956 
Q 1366 3272 1645 3428 
Q 1925 3584 2291 3584 
Q 2894 3584 3203 3211 
Q 3513 2838 3513 2113 
z
" transform="scale(0.015625)"/>
       <path id="DejaVuSans-66" d="M 2375 4863 
L 2375 4384 
L 1825 4384 
Q 1516 4384 1395 4259 
Q 1275 4134 1275 3809 
L 1275 3500 
L 2222 3500 
L 2222 3053 
L 1275 3053 
L 1275 0 
L 697 0 
L 697 3053 
L 147 3053 
L 147 3500 
L 697 3500 
L 697 3744 
Q 697 4328 969 4595 
Q 1241 4863 1831 4863 
L 2375 4863 
z
" transform="scale(0.015625)"/>
       <path id="DejaVuSans-6c" d="M 603 4863 
L 1178 4863 
L 1178 0 
L 603 0 
L 603 4863 
z
" transform="scale(0.015625)"/>
       <path id="DejaVuSans-75" d="M 544 1381 
L 544 3500 
L 1119 3500 
L 1119 1403 
Q 1119 906 1312 657 
Q 1506 409 1894 409 
Q 2359 409 2629 706 
Q 2900 1003 2900 1516 
L 2900 3500 
L 3475 3500 
L 3475 0 
L 2900 0 
L 2900 538 
Q 2691 219 2414 64 
Q 2138 -91 1772 -91 
Q 1169 -91 856 284 
Q 544 659 544 1381 
z
M 1991 3584 
L 1991 3584 
z
" transform="scale(0.015625)"/>
       <path id="DejaVuSans-65" d="M 3597 1894 
L 3597 1613 
L 953 1613 
Q 991 1019 1311 708 
Q 1631 397 2203 397 
Q 2534 397 2845 478 
Q 3156 559 3463 722 
L 3463 178 
Q 3153 47 2828 -22 
Q 2503 -91 2169 -91 
Q 1331 -91 842 396 
Q 353 884 353 1716 
Q 353 2575 817 3079 
Q 1281 3584 2069 3584 
Q 2775 3584 3186 3129 
Q 3597 2675 3597 1894 
z
M 3022 2063 
Q 3016 2534 2758 2815 
Q 2500 3097 2075 3097 
Q 1594 3097 1305 2825 
Q 1016 2553 972 2059 
L 3022 2063 
z
" transform="scale(0.015625)"/>
       <path id="DejaVuSans-63" d="M 3122 3366 
L 3122 2828 
Q 2878 2963 2633 3030 
Q 2388 3097 2138 3097 
Q 1578 3097 1268 2742 
Q 959 2388 959 1747 
Q 959 1106 1268 751 
Q 1578 397 2138 397 
Q 2388 397 2633 464 
Q 2878 531 3122 666 
L 3122 134 
Q 2881 22 2623 -34 
Q 2366 -91 2075 -91 
Q 1284 -91 818 406 
Q 353 903 353 1747 
Q 353 2603 823 3093 
Q 1294 3584 2113 3584 
Q 2378 3584 2631 3529 
Q 2884 3475 3122 3366 
z
" transform="scale(0.015625)"/>
       <path id="DejaVuSans-20" transform="scale(0.015625)"/>
       <path id="DejaVuSans-6f" d="M 1959 3097 
Q 1497 3097 1228 2736 
Q 959 2375 959 1747 
Q 959 1119 1226 758 
Q 1494 397 1959 397 
Q 2419 397 2687 759 
Q 2956 1122 2956 1747 
Q 2956 2369 2687 2733 
Q 2419 3097 1959 3097 
z
M 1959 3584 
Q 2709 3584 3137 3096 
Q 3566 2609 3566 1747 
Q 3566 888 3137 398 
Q 2709 -91 1959 -91 
Q 1206 -91 779 398 
Q 353 888 353 1747 
Q 353 2609 779 3096 
Q 1206 3584 1959 3584 
z
" transform="scale(0.015625)"/>
       <path id="DejaVuSans-73" d="M 2834 3397 
L 2834 2853 
Q 2591 2978 2328 3040 
Q 2066 3103 1784 3103 
Q 1356 3103 1142 2972 
Q 928 2841 928 2578 
Q 928 2378 1081 2264 
Q 1234 2150 1697 2047 
L 1894 2003 
Q 2506 1872 2764 1633 
Q 3022 1394 3022 966 
Q 3022 478 2636 193 
Q 2250 -91 1575 -91 
Q 1294 -91 989 -36 
Q 684 19 347 128 
L 347 722 
Q 666 556 975 473 
Q 1284 391 1588 391 
Q 1994 391 2212 530 
Q 2431 669 2431 922 
Q 2431 1156 2273 1281 
Q 2116 1406 1581 1522 
L 1381 1569 
Q 847 1681 609 1914 
Q 372 2147 372 2553 
Q 372 3047 722 3315 
Q 1072 3584 1716 3584 
Q 2034 3584 2315 3537 
Q 2597 3491 2834 3397 
z
" transform="scale(0.015625)"/>
       <path id="DejaVuSans-72" d="M 2631 2963 
Q 2534 3019 2420 3045 
Q 2306 3072 2169 3072 
Q 1681 3072 1420 2755 
Q 1159 2438 1159 1844 
L 1159 0 
L 581 0 
L 581 3500 
L 1159 3500 
L 1159 2956 
Q 1341 3275 1631 3429 
Q 1922 3584 2338 3584 
Q 2397 3584 2469 3576 
Q 2541 3569 2628 3553 
L 2631 2963 
z
" transform="scale(0.015625)"/>
       <path id="DejaVuSans-70" d="M 1159 525 
L 1159 -1331 
L 581 -1331 
L 581 3500 
L 1159 3500 
L 1159 2969 
Q 1341 3281 1617 3432 
Q 1894 3584 2278 3584 
Q 2916 3584 3314 3078 
Q 3713 2572 3713 1747 
Q 3713 922 3314 415 
Q 2916 -91 2278 -91 
Q 1894 -91 1617 61 
Q 1341 213 1159 525 
z
M 3116 1747 
Q 3116 2381 2855 2742 
Q 2594 3103 2138 3103 
Q 1681 3103 1420 2742 
Q 1159 2381 1159 1747 
Q 1159 1113 1420 752 
Q 1681 391 2138 391 
Q 2594 391 2855 752 
Q 3116 1113 3116 1747 
z
" transform="scale(0.015625)"/>
       <path id="DejaVuSans-69" d="M 603 3500 
L 1178 3500 
L 1178 0 
L 603 0 
L 603 3500 
z
M 603 4863 
L 1178 4863 
L 1178 4134 
L 603 4134 
L 603 4863 
z
" transform="scale(0.015625)"/>
       <path id="DejaVuSans-61" d="M 2194 1759 
Q 1497 1759 1228 1600 
Q 959 1441 959 1056 
Q 959 750 1161 570 
Q 1363 391 1709 391 
Q 2188 391 2477 730 
Q 2766 1069 2766 1631 
L 2766 1759 
L 2194 1759 
z
M 3341 1997 
L 3341 0 
L 2766 0 
L 2766 531 
Q 2569 213 2275 61 
Q 1981 -91 1556 -91 
Q 1019 -91 701 211 
Q 384 513 384 1019 
Q 384 1609 779 1909 
Q 1175 2209 1959 2209 
L 2766 2209 
L 2766 2266 
Q 2766 2663 2505 2880 
Q 2244 3097 1772 3097 
Q 1472 3097 1187 3025 
Q 903 2953 641 2809 
L 641 3341 
Q 956 3463 1253 3523 
Q 1550 3584 1831 3584 
Q 2591 3584 2966 3190 
Q 3341 2797 3341 1997 
z
" transform="scale(0.015625)"/>
       <path id="DejaVuSans-28" d="M 1984 4856 
Q 1566 4138 1362 3434 
Q 1159 2731 1159 2009 
Q 1159 1288 1364 580 
Q 1569 -128 1984 -844 
L 1484 -844 
Q 1016 -109 783 600 
Q 550 1309 550 2009 
Q 550 2706 781 3412 
Q 1013 4119 1484 4856 
L 1984 4856 
z
" transform="scale(0.015625)"/>
       <path id="DejaVuSans-6d" d="M 3328 2828 
Q 3544 3216 3844 3400 
Q 4144 3584 4550 3584 
Q 5097 3584 5394 3201 
Q 5691 2819 5691 2113 
L 5691 0 
L 5113 0 
L 5113 2094 
Q 5113 2597 4934 2840 
Q 4756 3084 4391 3084 
Q 3944 3084 3684 2787 
Q 3425 2491 3425 1978 
L 3425 0 
L 2847 0 
L 2847 2094 
Q 2847 2600 2669 2842 
Q 2491 3084 2119 3084 
Q 1678 3084 1418 2786 
Q 1159 2488 1159 1978 
L 1159 0 
L 581 0 
L 581 3500 
L 1159 3500 
L 1159 2956 
Q 1356 3278 1631 3431 
Q 1906 3584 2284 3584 
Q 2666 3584 2933 3390 
Q 3200 3197 3328 2828 
z
" transform="scale(0.015625)"/>
       <path id="DejaVuSans-74" d="M 1172 4494 
L 1172 3500 
L 2356 3500 
L 2356 3053 
L 1172 3053 
L 1172 1153 
Q 1172 725 1289 603 
Q 1406 481 1766 481 
L 2356 481 
L 2356 0 
L 1766 0 
Q 1100 0 847 248 
Q 594 497 594 1153 
L 594 3053 
L 172 3053 
L 172 3500 
L 594 3500 
L 594 4494 
L 1172 4494 
z
" transform="scale(0.015625)"/>
       <path id="DejaVuSans-29" d="M 513 4856 
L 1013 4856 
Q 1481 4119 1714 3412 
Q 1947 2706 1947 2009 
Q 1947 1309 1714 600 
Q 1481 -109 1013 -844 
L 513 -844 
Q 928 -128 1133 580 
Q 1338 1288 1338 2009 
Q 1338 2731 1133 3434 
Q 928 4138 513 4856 
z
" transform="scale(0.015625)"/>
      </defs>
      <use xlink:href="#DejaVuSans-49"/>
      <use xlink:href="#DejaVuSans-6e" x="29.492188"/>
      <use xlink:href="#DejaVuSans-66" x="92.871094"/>
      <use xlink:href="#DejaVuSans-6c" x="128.076172"/>
      <use xlink:href="#DejaVuSans-75" x="155.859375"/>
      <use xlink:href="#DejaVuSans-65" x="219.238281"/>
      <use xlink:href="#DejaVuSans-6e" x="280.761719"/>
      <use xlink:href="#DejaVuSans-63" x="344.140625"/>
      <use xlink:href="#DejaVuSans-65" x="399.121094"/>
      <use xlink:href="#DejaVuSans-20" x="460.644531"/>
      <use xlink:href="#DejaVuSans-6f" x="492.431641"/>
      <use xlink:href="#DejaVuSans-66" x="553.613281"/>
      <use xlink:href="#DejaVuSans-20" x="588.818359"/>
      <use xlink:href="#DejaVuSans-73" x="620.605469"/>
      <use xlink:href="#DejaVuSans-75" x="672.705078"/>
      <use xlink:href="#DejaVuSans-72" x="736.083984"/>
      <use xlink:href="#DejaVuSans-70" x="777.197266"/>
      <use xlink:href="#DejaVuSans-72" x="840.673828"/>
      <use xlink:href="#DejaVuSans-69" x="881.787109"/>
      <use xlink:href="#DejaVuSans-73" x="909.570312"/>
      <use xlink:href="#DejaVuSans-61" x="961.669922"/>
      <use xlink:href="#DejaVuSans-6c" x="1022.949219"/>
      <use xlink:href="#DejaVuSans-20" x="1050.732422"/>
      <use xlink:href="#DejaVuSans-28" x="1082.519531"/>
      <use xlink:href="#DejaVuSans-6d" x="1121.533203"/>
      <use xlink:href="#DejaVuSans-75" x="1218.945312"/>
      <use xlink:href="#DejaVuSans-6c" x="1282.324219"/>
      <use xlink:href="#DejaVuSans-74" x="1310.107422"/>
      <use xlink:href="#DejaVuSans-69" x="1349.316406"/>
      <use xlink:href="#DejaVuSans-70" x="1377.099609"/>
      <use xlink:href="#DejaVuSans-6c" x="1440.576172"/>
      <use xlink:href="#DejaVuSans-69" x="1468.359375"/>
      <use xlink:href="#DejaVuSans-63" x="1496.142578"/>
      <use xlink:href="#DejaVuSans-61" x="1551.123047"/>
      <use xlink:href="#DejaVuSans-74" x="1612.402344"/>
      <use xlink:href="#DejaVuSans-69" x="1651.611328"/>
      <use xlink:href="#DejaVuSans-6f" x="1679.394531"/>
      <use xlink:href="#DejaVuSans-6e" x="1740.576172"/>
      <use xlink:href="#DejaVuSans-29" x="1803.955078"/>
     </g>
    </g>
   </g>
   <g id="matplotlib.axis_2">
    <g id="ytick_1">
     <g id="line2d_6">
      <defs>
       <path id="m697538c315" d="M 0 0 
L -3.5 0 
" style="stroke: #000000; stroke-width: 0.8"/>
      </defs>
      <g>
       <use xlink:href="#m697538c315" x="47.72" y="153.487377" style="stroke: #000000; stroke-width: 0.8"/>
      </g>
     </g>
     <g id="text_7">
      <!-- 0.2 -->
      <g transform="translate(24.816875 157.286596)scale(0.1 -0.1)">
       <use xlink:href="#DejaVuSans-30"/>
       <use xlink:href="#DejaVuSans-2e" x="63.623047"/>
       <use xlink:href="#DejaVuSans-32" x="95.410156"/>
      </g>
     </g>
    </g>
    <g id="ytick_2">
     <g id="line2d_7">
      <g>
       <use xlink:href="#m697538c315" x="47.72" y="121.388372" style="stroke: #000000; stroke-width: 0.8"/>
      </g>
     </g>
     <g id="text_8">
      <!-- 0.4 -->
      <g transform="translate(24.816875 125.187591)scale(0.1 -0.1)">
       <defs>
        <path id="DejaVuSans-34" d="M 2419 4116 
L 825 1625 
L 2419 1625 
L 2419 4116 
z
M 2253 4666 
L 3047 4666 
L 3047 1625 
L 3713 1625 
L 3713 1100 
L 3047 1100 
L 3047 0 
L 2419 0 
L 2419 1100 
L 313 1100 
L 313 1709 
L 2253 4666 
z
" transform="scale(0.015625)"/>
       </defs>
       <use xlink:href="#DejaVuSans-30"/>
       <use xlink:href="#DejaVuSans-2e" x="63.623047"/>
       <use xlink:href="#DejaVuSans-34" x="95.410156"/>
      </g>
     </g>
    </g>
    <g id="ytick_3">
     <g id="line2d_8">
      <g>
       <use xlink:href="#m697538c315" x="47.72" y="89.289367" style="stroke: #000000; stroke-width: 0.8"/>
      </g>
     </g>
     <g id="text_9">
      <!-- 0.6 -->
      <g transform="translate(24.816875 93.088586)scale(0.1 -0.1)">
       <defs>
        <path id="DejaVuSans-36" d="M 2113 2584 
Q 1688 2584 1439 2293 
Q 1191 2003 1191 1497 
Q 1191 994 1439 701 
Q 1688 409 2113 409 
Q 2538 409 2786 701 
Q 3034 994 3034 1497 
Q 3034 2003 2786 2293 
Q 2538 2584 2113 2584 
z
M 3366 4563 
L 3366 3988 
Q 3128 4100 2886 4159 
Q 2644 4219 2406 4219 
Q 1781 4219 1451 3797 
Q 1122 3375 1075 2522 
Q 1259 2794 1537 2939 
Q 1816 3084 2150 3084 
Q 2853 3084 3261 2657 
Q 3669 2231 3669 1497 
Q 3669 778 3244 343 
Q 2819 -91 2113 -91 
Q 1303 -91 875 529 
Q 447 1150 447 2328 
Q 447 3434 972 4092 
Q 1497 4750 2381 4750 
Q 2619 4750 2861 4703 
Q 3103 4656 3366 4563 
z
" transform="scale(0.015625)"/>
       </defs>
       <use xlink:href="#DejaVuSans-30"/>
       <use xlink:href="#DejaVuSans-2e" x="63.623047"/>
       <use xlink:href="#DejaVuSans-36" x="95.410156"/>
      </g>
     </g>
    </g>
    <g id="ytick_4">
     <g id="line2d_9">
      <g>
       <use xlink:href="#m697538c315" x="47.72" y="57.190363" style="stroke: #000000; stroke-width: 0.8"/>
      </g>
     </g>
     <g id="text_10">
      <!-- 0.8 -->
      <g transform="translate(24.816875 60.989581)scale(0.1 -0.1)">
       <defs>
        <path id="DejaVuSans-38" d="M 2034 2216 
Q 1584 2216 1326 1975 
Q 1069 1734 1069 1313 
Q 1069 891 1326 650 
Q 1584 409 2034 409 
Q 2484 409 2743 651 
Q 3003 894 3003 1313 
Q 3003 1734 2745 1975 
Q 2488 2216 2034 2216 
z
M 1403 2484 
Q 997 2584 770 2862 
Q 544 3141 544 3541 
Q 544 4100 942 4425 
Q 1341 4750 2034 4750 
Q 2731 4750 3128 4425 
Q 3525 4100 3525 3541 
Q 3525 3141 3298 2862 
Q 3072 2584 2669 2484 
Q 3125 2378 3379 2068 
Q 3634 1759 3634 1313 
Q 3634 634 3220 271 
Q 2806 -91 2034 -91 
Q 1263 -91 848 271 
Q 434 634 434 1313 
Q 434 1759 690 2068 
Q 947 2378 1403 2484 
z
M 1172 3481 
Q 1172 3119 1398 2916 
Q 1625 2713 2034 2713 
Q 2441 2713 2670 2916 
Q 2900 3119 2900 3481 
Q 2900 3844 2670 4047 
Q 2441 4250 2034 4250 
Q 1625 4250 1398 4047 
Q 1172 3844 1172 3481 
z
" transform="scale(0.015625)"/>
       </defs>
       <use xlink:href="#DejaVuSans-30"/>
       <use xlink:href="#DejaVuSans-2e" x="63.623047"/>
       <use xlink:href="#DejaVuSans-38" x="95.410156"/>
      </g>
     </g>
    </g>
    <g id="text_11">
     <!-- R-value -->
     <g transform="translate(18.737188 119.064687)rotate(-90)scale(0.1 -0.1)">
      <defs>
       <path id="DejaVuSans-52" d="M 2841 2188 
Q 3044 2119 3236 1894 
Q 3428 1669 3622 1275 
L 4263 0 
L 3584 0 
L 2988 1197 
Q 2756 1666 2539 1819 
Q 2322 1972 1947 1972 
L 1259 1972 
L 1259 0 
L 628 0 
L 628 4666 
L 2053 4666 
Q 2853 4666 3247 4331 
Q 3641 3997 3641 3322 
Q 3641 2881 3436 2590 
Q 3231 2300 2841 2188 
z
M 1259 4147 
L 1259 2491 
L 2053 2491 
Q 2509 2491 2742 2702 
Q 2975 2913 2975 3322 
Q 2975 3731 2742 3939 
Q 2509 4147 2053 4147 
L 1259 4147 
z
" transform="scale(0.015625)"/>
       <path id="DejaVuSans-2d" d="M 313 2009 
L 1997 2009 
L 1997 1497 
L 313 1497 
L 313 2009 
z
" transform="scale(0.015625)"/>
       <path id="DejaVuSans-76" d="M 191 3500 
L 800 3500 
L 1894 563 
L 2988 3500 
L 3597 3500 
L 2284 0 
L 1503 0 
L 191 3500 
z
" transform="scale(0.015625)"/>
      </defs>
      <use xlink:href="#DejaVuSans-52"/>
      <use xlink:href="#DejaVuSans-2d" x="65.482422"/>
      <use xlink:href="#DejaVuSans-76" x="98.941406"/>
      <use xlink:href="#DejaVuSans-61" x="158.121094"/>
      <use xlink:href="#DejaVuSans-6c" x="219.400391"/>
      <use xlink:href="#DejaVuSans-75" x="247.183594"/>
      <use xlink:href="#DejaVuSans-65" x="310.5625"/>
     </g>
    </g>
   </g>
   <g id="line2d_10">
    <path d="M 47.72 33.972951 
L 59.167105 35.899023 
L 70.614211 41.63036 
L 82.061316 48.953762 
L 93.508421 58.461246 
L 104.955526 68.597955 
L 116.402632 78.50715 
L 127.849737 87.924375 
L 139.296842 97.47159 
L 150.743947 105.853755 
L 162.191053 113.541174 
L 173.638158 120.003137 
L 185.085263 126.478635 
L 196.532368 132.025158 
L 207.979474 137.102173 
L 219.426579 141.125869 
L 230.873684 144.851185 
L 242.320789 147.68089 
L 253.767895 150.859461 
L 265.215 153.365295 
" clip-path="url(#p8bafdead2c)" style="fill: none; stroke: #1f77b4; stroke-width: 1.5; stroke-linecap: square"/>
   </g>
   <g id="line2d_11">
    <path d="M 47.72 33.984242 
L 59.167105 35.302907 
L 70.614211 38.510975 
L 82.061316 42.997627 
L 93.508421 49.462044 
L 104.955526 57.015128 
L 116.402632 65.178086 
L 127.849737 73.367318 
L 139.296842 82.350721 
L 150.743947 90.789542 
L 162.191053 98.601119 
L 173.638158 105.924914 
L 185.085263 112.908358 
L 196.532368 119.184593 
L 207.979474 125.145956 
L 219.426579 129.8052 
L 230.873684 134.388294 
L 242.320789 137.667849 
L 253.767895 141.714482 
L 265.215 144.74445 
" clip-path="url(#p8bafdead2c)" style="fill: none; stroke: #ff7f0e; stroke-width: 1.5; stroke-linecap: square"/>
   </g>
   <g id="line2d_12">
    <path d="M 47.72 33.984982 
L 59.167105 35.513091 
L 70.614211 38.33748 
L 82.061316 41.486508 
L 93.508421 45.591087 
L 104.955526 50.210364 
L 116.402632 54.573721 
L 127.849737 59.198747 
L 139.296842 64.104308 
L 150.743947 68.49075 
L 162.191053 73.065083 
L 173.638158 77.729494 
L 185.085263 81.677247 
L 196.532368 85.835517 
L 207.979474 90.242574 
L 219.426579 94.118563 
L 230.873684 97.924906 
L 242.320789 101.274879 
L 253.767895 105.456768 
L 265.215 108.993327 
" clip-path="url(#p8bafdead2c)" style="fill: none; stroke: #2ca02c; stroke-width: 1.5; stroke-linecap: square"/>
   </g>
   <g id="line2d_13">
    <path d="M 47.72 33.99462 
L 59.167105 35.243872 
L 70.614211 37.369264 
L 82.061316 39.879073 
L 93.508421 43.439823 
L 104.955526 47.692967 
L 116.402632 52.038729 
L 127.849737 56.727526 
L 139.296842 61.851959 
L 150.743947 66.59186 
L 162.191053 71.418122 
L 173.638158 76.240724 
L 185.085263 80.253694 
L 196.532368 84.490094 
L 207.979474 88.813121 
L 219.426579 92.622371 
L 230.873684 96.279632 
L 242.320789 99.550669 
L 253.767895 103.524977 
L 265.215 106.974903 
" clip-path="url(#p8bafdead2c)" style="fill: none; stroke: #d62728; stroke-width: 1.5; stroke-linecap: square"/>
   </g>
   <g id="line2d_14">
    <path d="M 47.72 33.985408 
L 59.167105 35.904895 
L 70.614211 41.653997 
L 82.061316 48.995447 
L 93.508421 58.426031 
L 104.955526 68.63814 
L 116.402632 78.750312 
L 127.849737 88.033202 
L 139.296842 97.564449 
L 150.743947 106.264337 
L 162.191053 113.672085 
L 173.638158 120.221365 
L 185.085263 126.925439 
L 196.532368 132.231246 
L 207.979474 137.466117 
L 219.426579 141.336837 
L 230.873684 145.34124 
L 242.320789 148.922143 
L 253.767895 151.350442 
L 265.215 154.564797 
" clip-path="url(#p8bafdead2c)" style="fill: none; stroke: #9467bd; stroke-width: 1.5; stroke-linecap: square"/>
   </g>
   <g id="line2d_15">
    <path d="M 47.72 33.99736 
L 59.167105 35.306261 
L 70.614211 38.525702 
L 82.061316 43.030194 
L 93.508421 49.461067 
L 104.955526 57.065071 
L 116.402632 65.328332 
L 127.849737 73.435005 
L 139.296842 82.473792 
L 150.743947 91.021401 
L 162.191053 98.642252 
L 173.638158 106.093053 
L 185.085263 113.300943 
L 196.532368 119.346749 
L 207.979474 125.373142 
L 219.426579 130.053086 
L 230.873684 134.761478 
L 242.320789 138.649994 
L 253.767895 142.11058 
L 265.215 145.652004 
" clip-path="url(#p8bafdead2c)" style="fill: none; stroke: #8c564b; stroke-width: 1.5; stroke-linecap: square"/>
   </g>
   <g id="line2d_16">
    <path d="M 47.72 45.959187 
L 59.167105 48.37798 
L 70.614211 55.235486 
L 82.061316 64.09458 
L 93.508421 74.821901 
L 104.955526 86.128258 
L 116.402632 96.47688 
L 127.849737 106.155477 
L 139.296842 115.833033 
L 150.743947 123.685521 
L 162.191053 130.930188 
L 173.638158 137.131064 
L 185.085263 142.725557 
L 196.532368 147.574045 
L 207.979474 152.024248 
L 219.426579 155.200538 
L 230.873684 158.088357 
L 242.320789 160.498913 
L 253.767895 162.700324 
L 265.215 164.414494 
" clip-path="url(#p8bafdead2c)" style="fill: none; stroke: #e377c2; stroke-width: 1.5; stroke-linecap: square"/>
   </g>
   <g id="line2d_17">
    <path d="M 47.72 34.002226 
L 59.167105 34.650138 
L 70.614211 35.385792 
L 82.061316 37.155546 
L 93.508421 40.770894 
L 104.955526 46.288295 
L 116.402632 52.884308 
L 127.849737 60.029191 
L 139.296842 68.324073 
L 150.743947 76.731806 
L 162.191053 84.611169 
L 173.638158 92.382578 
L 185.085263 99.561167 
L 196.532368 106.505427 
L 207.979474 113.376519 
L 219.426579 118.87144 
L 230.873684 124.091103 
L 242.320789 128.384367 
L 253.767895 133.115927 
L 265.215 136.965888 
" clip-path="url(#p8bafdead2c)" style="fill: none; stroke: #7f7f7f; stroke-width: 1.5; stroke-linecap: square"/>
   </g>
   <g id="patch_3">
    <path d="M 47.72 174.04 
L 47.72 26.88 
" style="fill: none; stroke: #000000; stroke-width: 0.8; stroke-linejoin: miter; stroke-linecap: square"/>
   </g>
   <g id="patch_4">
    <path d="M 47.72 174.04 
L 265.215 174.04 
" style="fill: none; stroke: #000000; stroke-width: 0.8; stroke-linejoin: miter; stroke-linecap: square"/>
   </g>
   <g id="text_12">
    <!-- Node * surprisal -->
    <g transform="translate(108.18625 20.88)scale(0.12 -0.12)">
     <defs>
      <path id="DejaVuSans-4e" d="M 628 4666 
L 1478 4666 
L 3547 763 
L 3547 4666 
L 4159 4666 
L 4159 0 
L 3309 0 
L 1241 3903 
L 1241 0 
L 628 0 
L 628 4666 
z
" transform="scale(0.015625)"/>
      <path id="DejaVuSans-64" d="M 2906 2969 
L 2906 4863 
L 3481 4863 
L 3481 0 
L 2906 0 
L 2906 525 
Q 2725 213 2448 61 
Q 2172 -91 1784 -91 
Q 1150 -91 751 415 
Q 353 922 353 1747 
Q 353 2572 751 3078 
Q 1150 3584 1784 3584 
Q 2172 3584 2448 3432 
Q 2725 3281 2906 2969 
z
M 947 1747 
Q 947 1113 1208 752 
Q 1469 391 1925 391 
Q 2381 391 2643 752 
Q 2906 1113 2906 1747 
Q 2906 2381 2643 2742 
Q 2381 3103 1925 3103 
Q 1469 3103 1208 2742 
Q 947 2381 947 1747 
z
" transform="scale(0.015625)"/>
      <path id="DejaVuSans-2a" d="M 3009 3897 
L 1888 3291 
L 3009 2681 
L 2828 2375 
L 1778 3009 
L 1778 1831 
L 1422 1831 
L 1422 3009 
L 372 2375 
L 191 2681 
L 1313 3291 
L 191 3897 
L 372 4206 
L 1422 3572 
L 1422 4750 
L 1778 4750 
L 1778 3572 
L 2828 4206 
L 3009 3897 
z
" transform="scale(0.015625)"/>
     </defs>
     <use xlink:href="#DejaVuSans-4e"/>
     <use xlink:href="#DejaVuSans-6f" x="74.804688"/>
     <use xlink:href="#DejaVuSans-64" x="135.986328"/>
     <use xlink:href="#DejaVuSans-65" x="199.462891"/>
     <use xlink:href="#DejaVuSans-20" x="260.986328"/>
     <use xlink:href="#DejaVuSans-2a" x="292.773438"/>
     <use xlink:href="#DejaVuSans-20" x="342.773438"/>
     <use xlink:href="#DejaVuSans-73" x="374.560547"/>
     <use xlink:href="#DejaVuSans-75" x="426.660156"/>
     <use xlink:href="#DejaVuSans-72" x="490.039062"/>
     <use xlink:href="#DejaVuSans-70" x="531.152344"/>
     <use xlink:href="#DejaVuSans-72" x="594.628906"/>
     <use xlink:href="#DejaVuSans-69" x="635.742188"/>
     <use xlink:href="#DejaVuSans-73" x="663.525391"/>
     <use xlink:href="#DejaVuSans-61" x="715.625"/>
     <use xlink:href="#DejaVuSans-6c" x="776.904297"/>
    </g>
   </g>
  </g>
  <g id="axes_2">
   <g id="patch_5">
    <path d="M 298.065 174.04 
L 515.56 174.04 
L 515.56 26.88 
L 298.065 26.88 
z
" style="fill: #ffffff"/>
   </g>
   <g id="PolyCollection_9">
    <path d="M 298.065 33.72842 
L 298.065 34.50199 
L 309.512105 36.513787 
L 320.959211 43.004739 
L 332.406316 50.727516 
L 343.853421 60.978294 
L 355.300526 70.694299 
L 366.747632 81.826213 
L 378.194737 93.090688 
L 389.641842 103.436753 
L 401.088947 111.650257 
L 412.536053 119.32392 
L 423.983158 127.29591 
L 435.430263 133.305523 
L 446.877368 138.17024 
L 458.324474 143.524902 
L 469.771579 146.832608 
L 481.218684 150.437716 
L 492.665789 153.256691 
L 504.112895 155.47361 
L 515.56 158.486443 
L 515.56 149.525346 
L 515.56 149.525346 
L 504.112895 146.587919 
L 492.665789 143.583865 
L 481.218684 139.654898 
L 469.771579 135.590661 
L 458.324474 131.014993 
L 446.877368 125.792091 
L 435.430263 119.926583 
L 423.983158 113.462042 
L 412.536053 106.826236 
L 401.088947 99.028868 
L 389.641842 90.521904 
L 378.194737 81.509036 
L 366.747632 71.726261 
L 355.300526 62.336399 
L 343.853421 54.888474 
L 332.406316 47.074793 
L 320.959211 40.625395 
L 309.512105 35.690576 
L 298.065 33.72842 
z
" clip-path="url(#pf7969d848b)" style="fill: #1f77b4; fill-opacity: 0.4"/>
   </g>
   <g id="PolyCollection_10">
    <path d="M 298.065 33.727609 
L 298.065 34.51723 
L 309.512105 36.510389 
L 320.959211 43.029109 
L 332.406316 50.79719 
L 343.853421 61.096551 
L 355.300526 70.871063 
L 366.747632 82.148989 
L 378.194737 93.527358 
L 389.641842 103.864349 
L 401.088947 112.303206 
L 412.536053 119.9785 
L 423.983158 127.98348 
L 435.430263 134.008721 
L 446.877368 138.931633 
L 458.324474 144.294643 
L 469.771579 147.555801 
L 481.218684 151.30975 
L 492.665789 154.072727 
L 504.112895 156.240592 
L 515.56 159.177799 
L 515.56 150.286315 
L 515.56 150.286315 
L 504.112895 147.413887 
L 492.665789 144.653153 
L 481.218684 140.617899 
L 469.771579 136.567637 
L 458.324474 132.104928 
L 446.877368 126.69988 
L 435.430263 120.916937 
L 423.983158 114.260776 
L 412.536053 107.607968 
L 401.088947 99.497942 
L 389.641842 90.994485 
L 378.194737 81.776288 
L 366.747632 71.900477 
L 355.300526 62.495348 
L 343.853421 55.046347 
L 332.406316 47.131578 
L 320.959211 40.679937 
L 309.512105 35.710527 
L 298.065 33.727609 
z
" clip-path="url(#pf7969d848b)" style="fill: #ff7f0e; fill-opacity: 0.4"/>
   </g>
   <g id="PolyCollection_11">
    <path d="M 298.065 33.731397 
L 298.065 34.512353 
L 309.512105 36.527687 
L 320.959211 43.012871 
L 332.406316 50.744086 
L 343.853421 60.888089 
L 355.300526 70.543711 
L 366.747632 81.701924 
L 378.194737 93.013797 
L 389.641842 103.322385 
L 401.088947 111.745504 
L 412.536053 119.59189 
L 423.983158 127.701151 
L 435.430263 133.898621 
L 446.877368 139.238496 
L 458.324474 144.78857 
L 469.771579 148.337717 
L 481.218684 152.168538 
L 492.665789 155.545894 
L 504.112895 157.566585 
L 515.56 160.90098 
L 515.56 149.466797 
L 515.56 149.466797 
L 504.112895 146.756801 
L 492.665789 143.899079 
L 481.218684 139.890166 
L 469.771579 135.86823 
L 458.324474 131.474172 
L 446.877368 125.962367 
L 435.430263 120.275907 
L 423.983158 113.67322 
L 412.536053 107.095352 
L 401.088947 99.150305 
L 389.641842 90.648108 
L 378.194737 81.571342 
L 366.747632 71.726832 
L 355.300526 62.287165 
L 343.853421 54.940266 
L 332.406316 47.008571 
L 320.959211 40.619327 
L 309.512105 35.678543 
L 298.065 33.731397 
z
" clip-path="url(#pf7969d848b)" style="fill: #2ca02c; fill-opacity: 0.4"/>
   </g>
   <g id="PolyCollection_12">
    <path d="M 298.065 33.728996 
L 298.065 34.53216 
L 309.512105 36.52416 
L 320.959211 43.033274 
L 332.406316 50.758127 
L 343.853421 60.923005 
L 355.300526 70.637496 
L 366.747632 81.867233 
L 378.194737 93.274767 
L 389.641842 103.574996 
L 401.088947 112.17732 
L 412.536053 119.941853 
L 423.983158 128.167844 
L 435.430263 134.334831 
L 446.877368 139.697624 
L 458.324474 145.198712 
L 469.771579 148.630332 
L 481.218684 152.439423 
L 492.665789 155.833694 
L 504.112895 157.890615 
L 515.56 161.186757 
L 515.56 150.42719 
L 515.56 150.42719 
L 504.112895 147.601263 
L 492.665789 144.812508 
L 481.218684 140.72758 
L 469.771579 136.591391 
L 458.324474 132.175021 
L 446.877368 126.527507 
L 435.430263 120.776684 
L 423.983158 114.109701 
L 412.536053 107.547909 
L 401.088947 99.417421 
L 389.641842 90.976599 
L 378.194737 81.785948 
L 366.747632 71.881307 
L 355.300526 62.416727 
L 343.853421 55.046911 
L 332.406316 47.070265 
L 320.959211 40.677156 
L 309.512105 35.703051 
L 298.065 33.728996 
z
" clip-path="url(#pf7969d848b)" style="fill: #d62728; fill-opacity: 0.4"/>
   </g>
   <g id="PolyCollection_13">
    <path d="M 298.065 33.73909 
L 298.065 34.515879 
L 309.512105 36.532228 
L 320.959211 43.050758 
L 332.406316 50.733557 
L 343.853421 60.936047 
L 355.300526 70.910487 
L 366.747632 81.867343 
L 378.194737 93.491394 
L 389.641842 104.034432 
L 401.088947 112.081274 
L 412.536053 119.722001 
L 423.983158 128.332148 
L 435.430263 133.419425 
L 446.877368 138.722793 
L 458.324474 144.163485 
L 469.771579 147.106453 
L 481.218684 150.01791 
L 492.665789 153.112289 
L 504.112895 158.221274 
L 515.56 159.854542 
L 515.56 149.455704 
L 515.56 149.455704 
L 504.112895 146.941877 
L 492.665789 144.253147 
L 481.218684 139.952981 
L 469.771579 136.285533 
L 458.324474 132.217801 
L 446.877368 125.396031 
L 435.430263 120.409102 
L 423.983158 113.75119 
L 412.536053 106.605461 
L 401.088947 98.915508 
L 389.641842 90.70378 
L 378.194737 81.660289 
L 366.747632 71.795446 
L 355.300526 62.408749 
L 343.853421 54.930258 
L 332.406316 47.083335 
L 320.959211 40.690563 
L 309.512105 35.718296 
L 298.065 33.73909 
z
" clip-path="url(#pf7969d848b)" style="fill: #9467bd; fill-opacity: 0.4"/>
   </g>
   <g id="PolyCollection_14">
    <path d="M 298.065 33.73823 
L 298.065 34.531614 
L 309.512105 36.528614 
L 320.959211 43.072533 
L 332.406316 50.800383 
L 343.853421 61.049957 
L 355.300526 71.07442 
L 366.747632 82.1924 
L 378.194737 93.917599 
L 389.641842 104.451633 
L 401.088947 112.682331 
L 412.536053 120.376849 
L 423.983158 129.006073 
L 435.430263 134.110399 
L 446.877368 139.453368 
L 458.324474 144.946628 
L 469.771579 147.766048 
L 481.218684 150.946317 
L 492.665789 153.939062 
L 504.112895 159.061237 
L 515.56 160.477703 
L 515.56 150.190525 
L 515.56 150.190525 
L 504.112895 147.543153 
L 492.665789 145.231134 
L 481.218684 140.827541 
L 469.771579 137.254405 
L 458.324474 133.227285 
L 446.877368 126.310018 
L 435.430263 121.378817 
L 423.983158 114.487782 
L 412.536053 107.376676 
L 401.088947 99.394504 
L 389.641842 91.205485 
L 378.194737 81.927843 
L 366.747632 71.97442 
L 355.300526 62.559976 
L 343.853421 55.08235 
L 332.406316 47.139051 
L 320.959211 40.744141 
L 309.512105 35.73938 
L 298.065 33.73823 
z
" clip-path="url(#pf7969d848b)" style="fill: #8c564b; fill-opacity: 0.4"/>
   </g>
   <g id="PolyCollection_15">
    <path d="M 298.065 44.12168 
L 298.065 47.792743 
L 309.512105 49.619627 
L 320.959211 54.823195 
L 332.406316 61.535092 
L 343.853421 70.299471 
L 355.300526 78.966074 
L 366.747632 88.462451 
L 378.194737 99.101377 
L 389.641842 108.428963 
L 401.088947 116.347782 
L 412.536053 123.777571 
L 423.983158 131.416963 
L 435.430263 137.27259 
L 446.877368 141.42059 
L 458.324474 146.43241 
L 469.771579 149.339426 
L 481.218684 152.954341 
L 492.665789 155.716069 
L 504.112895 157.33959 
L 515.56 160.227942 
L 515.56 152.4877 
L 515.56 152.4877 
L 504.112895 149.639021 
L 492.665789 146.862037 
L 481.218684 142.923204 
L 469.771579 139.105674 
L 458.324474 134.557632 
L 446.877368 129.832471 
L 435.430263 124.304418 
L 423.983158 117.951962 
L 412.536053 111.931454 
L 401.088947 104.896121 
L 389.641842 96.95518 
L 378.194737 88.994992 
L 366.747632 80.101392 
L 355.300526 71.343429 
L 343.853421 64.386165 
L 332.406316 57.132239 
L 320.959211 51.019469 
L 309.512105 46.213758 
L 298.065 44.12168 
z
" clip-path="url(#pf7969d848b)" style="fill: #e377c2; fill-opacity: 0.4"/>
   </g>
   <g id="PolyCollection_16">
    <path d="M 298.065 33.732273 
L 298.065 34.531127 
L 309.512105 36.544049 
L 320.959211 43.008647 
L 332.406316 50.818614 
L 343.853421 61.04272 
L 355.300526 70.76524 
L 366.747632 82.023799 
L 378.194737 93.403483 
L 389.641842 103.711628 
L 401.088947 112.212754 
L 412.536053 119.989862 
L 423.983158 128.129134 
L 435.430263 134.248958 
L 446.877368 139.344004 
L 458.324474 144.642283 
L 469.771579 148.176563 
L 481.218684 151.770741 
L 492.665789 154.691653 
L 504.112895 157.063947 
L 515.56 160.013397 
L 515.56 151.10131 
L 515.56 151.10131 
L 504.112895 148.282658 
L 492.665789 145.466973 
L 481.218684 141.108531 
L 469.771579 137.089228 
L 458.324474 132.532216 
L 446.877368 126.889783 
L 435.430263 121.164924 
L 423.983158 114.363092 
L 412.536053 107.6886 
L 401.088947 99.552575 
L 389.641842 91.01215 
L 378.194737 81.87844 
L 366.747632 71.97449 
L 355.300526 62.555385 
L 343.853421 55.157141 
L 332.406316 47.136913 
L 320.959211 40.705806 
L 309.512105 35.730674 
L 298.065 33.732273 
z
" clip-path="url(#pf7969d848b)" style="fill: #7f7f7f; fill-opacity: 0.4"/>
   </g>
   <g id="matplotlib.axis_3">
    <g id="xtick_6">
     <g id="line2d_18">
      <g>
       <use xlink:href="#m827acbe0da" x="298.065" y="174.04" style="stroke: #000000; stroke-width: 0.8"/>
      </g>
     </g>
     <g id="text_13">
      <!-- 0.0 -->
      <g transform="translate(290.113437 188.638438)scale(0.1 -0.1)">
       <use xlink:href="#DejaVuSans-30"/>
       <use xlink:href="#DejaVuSans-2e" x="63.623047"/>
       <use xlink:href="#DejaVuSans-30" x="95.410156"/>
      </g>
     </g>
    </g>
    <g id="xtick_7">
     <g id="line2d_19">
      <g>
       <use xlink:href="#m827acbe0da" x="352.43875" y="174.04" style="stroke: #000000; stroke-width: 0.8"/>
      </g>
     </g>
     <g id="text_14">
      <!-- 0.5 -->
      <g transform="translate(344.487187 188.638438)scale(0.1 -0.1)">
       <use xlink:href="#DejaVuSans-30"/>
       <use xlink:href="#DejaVuSans-2e" x="63.623047"/>
       <use xlink:href="#DejaVuSans-35" x="95.410156"/>
      </g>
     </g>
    </g>
    <g id="xtick_8">
     <g id="line2d_20">
      <g>
       <use xlink:href="#m827acbe0da" x="406.8125" y="174.04" style="stroke: #000000; stroke-width: 0.8"/>
      </g>
     </g>
     <g id="text_15">
      <!-- 1.0 -->
      <g transform="translate(398.860937 188.638438)scale(0.1 -0.1)">
       <use xlink:href="#DejaVuSans-31"/>
       <use xlink:href="#DejaVuSans-2e" x="63.623047"/>
       <use xlink:href="#DejaVuSans-30" x="95.410156"/>
      </g>
     </g>
    </g>
    <g id="xtick_9">
     <g id="line2d_21">
      <g>
       <use xlink:href="#m827acbe0da" x="461.18625" y="174.04" style="stroke: #000000; stroke-width: 0.8"/>
      </g>
     </g>
     <g id="text_16">
      <!-- 1.5 -->
      <g transform="translate(453.234687 188.638438)scale(0.1 -0.1)">
       <use xlink:href="#DejaVuSans-31"/>
       <use xlink:href="#DejaVuSans-2e" x="63.623047"/>
       <use xlink:href="#DejaVuSans-35" x="95.410156"/>
      </g>
     </g>
    </g>
    <g id="xtick_10">
     <g id="line2d_22">
      <g>
       <use xlink:href="#m827acbe0da" x="515.56" y="174.04" style="stroke: #000000; stroke-width: 0.8"/>
      </g>
     </g>
     <g id="text_17">
      <!-- 2.0 -->
      <g transform="translate(507.608437 188.638438)scale(0.1 -0.1)">
       <use xlink:href="#DejaVuSans-32"/>
       <use xlink:href="#DejaVuSans-2e" x="63.623047"/>
       <use xlink:href="#DejaVuSans-30" x="95.410156"/>
      </g>
     </g>
    </g>
    <g id="text_18">
     <!-- Influence of surprisal (multiplication) -->
     <g transform="translate(314.665625 202.316563)scale(0.1 -0.1)">
      <use xlink:href="#DejaVuSans-49"/>
      <use xlink:href="#DejaVuSans-6e" x="29.492188"/>
      <use xlink:href="#DejaVuSans-66" x="92.871094"/>
      <use xlink:href="#DejaVuSans-6c" x="128.076172"/>
      <use xlink:href="#DejaVuSans-75" x="155.859375"/>
      <use xlink:href="#DejaVuSans-65" x="219.238281"/>
      <use xlink:href="#DejaVuSans-6e" x="280.761719"/>
      <use xlink:href="#DejaVuSans-63" x="344.140625"/>
      <use xlink:href="#DejaVuSans-65" x="399.121094"/>
      <use xlink:href="#DejaVuSans-20" x="460.644531"/>
      <use xlink:href="#DejaVuSans-6f" x="492.431641"/>
      <use xlink:href="#DejaVuSans-66" x="553.613281"/>
      <use xlink:href="#DejaVuSans-20" x="588.818359"/>
      <use xlink:href="#DejaVuSans-73" x="620.605469"/>
      <use xlink:href="#DejaVuSans-75" x="672.705078"/>
      <use xlink:href="#DejaVuSans-72" x="736.083984"/>
      <use xlink:href="#DejaVuSans-70" x="777.197266"/>
      <use xlink:href="#DejaVuSans-72" x="840.673828"/>
      <use xlink:href="#DejaVuSans-69" x="881.787109"/>
      <use xlink:href="#DejaVuSans-73" x="909.570312"/>
      <use xlink:href="#DejaVuSans-61" x="961.669922"/>
      <use xlink:href="#DejaVuSans-6c" x="1022.949219"/>
      <use xlink:href="#DejaVuSans-20" x="1050.732422"/>
      <use xlink:href="#DejaVuSans-28" x="1082.519531"/>
      <use xlink:href="#DejaVuSans-6d" x="1121.533203"/>
      <use xlink:href="#DejaVuSans-75" x="1218.945312"/>
      <use xlink:href="#DejaVuSans-6c" x="1282.324219"/>
      <use xlink:href="#DejaVuSans-74" x="1310.107422"/>
      <use xlink:href="#DejaVuSans-69" x="1349.316406"/>
      <use xlink:href="#DejaVuSans-70" x="1377.099609"/>
      <use xlink:href="#DejaVuSans-6c" x="1440.576172"/>
      <use xlink:href="#DejaVuSans-69" x="1468.359375"/>
      <use xlink:href="#DejaVuSans-63" x="1496.142578"/>
      <use xlink:href="#DejaVuSans-61" x="1551.123047"/>
      <use xlink:href="#DejaVuSans-74" x="1612.402344"/>
      <use xlink:href="#DejaVuSans-69" x="1651.611328"/>
      <use xlink:href="#DejaVuSans-6f" x="1679.394531"/>
      <use xlink:href="#DejaVuSans-6e" x="1740.576172"/>
      <use xlink:href="#DejaVuSans-29" x="1803.955078"/>
     </g>
    </g>
   </g>
   <g id="line2d_23">
    <path d="M 298.065 34.115205 
L 309.512105 36.102181 
L 320.959211 41.815067 
L 332.406316 48.901154 
L 343.853421 57.933384 
L 355.300526 66.515349 
L 366.747632 76.776237 
L 378.194737 87.299862 
L 389.641842 96.979329 
L 401.088947 105.339562 
L 412.536053 113.075078 
L 423.983158 120.378976 
L 435.430263 126.616053 
L 446.877368 131.981165 
L 458.324474 137.269948 
L 469.771579 141.211635 
L 481.218684 145.046307 
L 492.665789 148.420278 
L 504.112895 151.030765 
L 515.56 154.005895 
" clip-path="url(#pf7969d848b)" style="fill: none; stroke: #1f77b4; stroke-width: 1.5; stroke-linecap: square"/>
   </g>
   <g id="line2d_24">
    <path d="M 298.065 34.122419 
L 309.512105 36.110458 
L 320.959211 41.854523 
L 332.406316 48.964384 
L 343.853421 58.071449 
L 355.300526 66.683205 
L 366.747632 77.024733 
L 378.194737 87.651823 
L 389.641842 97.429417 
L 401.088947 105.900574 
L 412.536053 113.793234 
L 423.983158 121.122128 
L 435.430263 127.462829 
L 446.877368 132.815757 
L 458.324474 138.199785 
L 469.771579 142.061719 
L 481.218684 145.963825 
L 492.665789 149.36294 
L 504.112895 151.82724 
L 515.56 154.732057 
" clip-path="url(#pf7969d848b)" style="fill: none; stroke: #ff7f0e; stroke-width: 1.5; stroke-linecap: square"/>
   </g>
   <g id="line2d_25">
    <path d="M 298.065 34.121875 
L 309.512105 36.103115 
L 320.959211 41.816099 
L 332.406316 48.876329 
L 343.853421 57.914177 
L 355.300526 66.415438 
L 366.747632 76.714378 
L 378.194737 87.292569 
L 389.641842 96.985246 
L 401.088947 105.447904 
L 412.536053 113.343621 
L 423.983158 120.687186 
L 435.430263 127.087264 
L 446.877368 132.600432 
L 458.324474 138.131371 
L 469.771579 142.102974 
L 481.218684 146.029352 
L 492.665789 149.722487 
L 504.112895 152.161693 
L 515.56 155.183888 
" clip-path="url(#pf7969d848b)" style="fill: none; stroke: #2ca02c; stroke-width: 1.5; stroke-linecap: square"/>
   </g>
   <g id="line2d_26">
    <path d="M 298.065 34.130578 
L 309.512105 36.113606 
L 320.959211 41.855215 
L 332.406316 48.914196 
L 343.853421 57.984958 
L 355.300526 66.527111 
L 366.747632 76.87427 
L 378.194737 87.530357 
L 389.641842 97.275797 
L 401.088947 105.797371 
L 412.536053 113.744881 
L 423.983158 121.138772 
L 435.430263 127.555758 
L 446.877368 133.112565 
L 458.324474 138.686866 
L 469.771579 142.610861 
L 481.218684 146.583502 
L 492.665789 150.323101 
L 504.112895 152.745939 
L 515.56 155.806973 
" clip-path="url(#pf7969d848b)" style="fill: none; stroke: #d62728; stroke-width: 1.5; stroke-linecap: square"/>
   </g>
   <g id="line2d_27">
    <path d="M 298.065 34.127484 
L 309.512105 36.125262 
L 320.959211 41.870661 
L 332.406316 48.908446 
L 343.853421 57.933152 
L 355.300526 66.659618 
L 366.747632 76.831395 
L 378.194737 87.575842 
L 389.641842 97.369106 
L 401.088947 105.498391 
L 412.536053 113.163731 
L 423.983158 121.041669 
L 435.430263 126.914264 
L 446.877368 132.059412 
L 458.324474 138.190643 
L 469.771579 141.695993 
L 481.218684 144.985445 
L 492.665789 148.682718 
L 504.112895 152.581575 
L 515.56 154.655123 
" clip-path="url(#pf7969d848b)" style="fill: none; stroke: #9467bd; stroke-width: 1.5; stroke-linecap: square"/>
   </g>
   <g id="line2d_28">
    <path d="M 298.065 34.134922 
L 309.512105 36.133997 
L 320.959211 41.908337 
L 332.406316 48.969717 
L 343.853421 58.066153 
L 355.300526 66.817198 
L 366.747632 77.08341 
L 378.194737 87.922721 
L 389.641842 97.828559 
L 401.088947 106.038418 
L 412.536053 113.876762 
L 423.983158 121.746928 
L 435.430263 127.744608 
L 446.877368 132.881693 
L 458.324474 139.086957 
L 469.771579 142.510226 
L 481.218684 145.886929 
L 492.665789 149.585098 
L 504.112895 153.302195 
L 515.56 155.334114 
" clip-path="url(#pf7969d848b)" style="fill: none; stroke: #8c564b; stroke-width: 1.5; stroke-linecap: square"/>
   </g>
   <g id="line2d_29">
    <path d="M 298.065 45.957211 
L 309.512105 47.916692 
L 320.959211 52.921332 
L 332.406316 59.333666 
L 343.853421 67.342818 
L 355.300526 75.154751 
L 366.747632 84.281921 
L 378.194737 94.048184 
L 389.641842 102.692072 
L 401.088947 110.621952 
L 412.536053 117.854512 
L 423.983158 124.684463 
L 435.430263 130.788504 
L 446.877368 135.62653 
L 458.324474 140.495021 
L 469.771579 144.22255 
L 481.218684 147.938772 
L 492.665789 151.289053 
L 504.112895 153.489306 
L 515.56 156.357821 
" clip-path="url(#pf7969d848b)" style="fill: none; stroke: #e377c2; stroke-width: 1.5; stroke-linecap: square"/>
   </g>
   <g id="line2d_30">
    <path d="M 298.065 34.1317 
L 309.512105 36.137362 
L 320.959211 41.857227 
L 332.406316 48.977764 
L 343.853421 58.09993 
L 355.300526 66.660313 
L 366.747632 76.999145 
L 378.194737 87.640962 
L 389.641842 97.361889 
L 401.088947 105.882664 
L 412.536053 113.839231 
L 423.983158 121.246113 
L 435.430263 127.706941 
L 446.877368 133.116894 
L 458.324474 138.587249 
L 469.771579 142.632896 
L 481.218684 146.439636 
L 492.665789 150.079313 
L 504.112895 152.673302 
L 515.56 155.557354 
" clip-path="url(#pf7969d848b)" style="fill: none; stroke: #7f7f7f; stroke-width: 1.5; stroke-linecap: square"/>
   </g>
   <g id="patch_6">
    <path d="M 298.065 174.04 
L 298.065 26.88 
" style="fill: none; stroke: #000000; stroke-width: 0.8; stroke-linejoin: miter; stroke-linecap: square"/>
   </g>
   <g id="patch_7">
    <path d="M 298.065 174.04 
L 515.56 174.04 
" style="fill: none; stroke: #000000; stroke-width: 0.8; stroke-linejoin: miter; stroke-linecap: square"/>
   </g>
   <g id="text_19">
    <!-- Node * third variable -->
    <g transform="translate(344.2325 20.88)scale(0.12 -0.12)">
     <defs>
      <path id="DejaVuSans-68" d="M 3513 2113 
L 3513 0 
L 2938 0 
L 2938 2094 
Q 2938 2591 2744 2837 
Q 2550 3084 2163 3084 
Q 1697 3084 1428 2787 
Q 1159 2491 1159 1978 
L 1159 0 
L 581 0 
L 581 4863 
L 1159 4863 
L 1159 2956 
Q 1366 3272 1645 3428 
Q 1925 3584 2291 3584 
Q 2894 3584 3203 3211 
Q 3513 2838 3513 2113 
z
" transform="scale(0.015625)"/>
      <path id="DejaVuSans-62" d="M 3116 1747 
Q 3116 2381 2855 2742 
Q 2594 3103 2138 3103 
Q 1681 3103 1420 2742 
Q 1159 2381 1159 1747 
Q 1159 1113 1420 752 
Q 1681 391 2138 391 
Q 2594 391 2855 752 
Q 3116 1113 3116 1747 
z
M 1159 2969 
Q 1341 3281 1617 3432 
Q 1894 3584 2278 3584 
Q 2916 3584 3314 3078 
Q 3713 2572 3713 1747 
Q 3713 922 3314 415 
Q 2916 -91 2278 -91 
Q 1894 -91 1617 61 
Q 1341 213 1159 525 
L 1159 0 
L 581 0 
L 581 4863 
L 1159 4863 
L 1159 2969 
z
" transform="scale(0.015625)"/>
     </defs>
     <use xlink:href="#DejaVuSans-4e"/>
     <use xlink:href="#DejaVuSans-6f" x="74.804688"/>
     <use xlink:href="#DejaVuSans-64" x="135.986328"/>
     <use xlink:href="#DejaVuSans-65" x="199.462891"/>
     <use xlink:href="#DejaVuSans-20" x="260.986328"/>
     <use xlink:href="#DejaVuSans-2a" x="292.773438"/>
     <use xlink:href="#DejaVuSans-20" x="342.773438"/>
     <use xlink:href="#DejaVuSans-74" x="374.560547"/>
     <use xlink:href="#DejaVuSans-68" x="413.769531"/>
     <use xlink:href="#DejaVuSans-69" x="477.148438"/>
     <use xlink:href="#DejaVuSans-72" x="504.931641"/>
     <use xlink:href="#DejaVuSans-64" x="544.294922"/>
     <use xlink:href="#DejaVuSans-20" x="607.771484"/>
     <use xlink:href="#DejaVuSans-76" x="639.558594"/>
     <use xlink:href="#DejaVuSans-61" x="698.738281"/>
     <use xlink:href="#DejaVuSans-72" x="760.017578"/>
     <use xlink:href="#DejaVuSans-69" x="801.130859"/>
     <use xlink:href="#DejaVuSans-61" x="828.914062"/>
     <use xlink:href="#DejaVuSans-62" x="890.193359"/>
     <use xlink:href="#DejaVuSans-6c" x="953.669922"/>
     <use xlink:href="#DejaVuSans-65" x="981.453125"/>
    </g>
   </g>
   <g id="legend_1">
    <g id="line2d_31">
     <path d="M 524.56 39.978437 
L 534.56 39.978437 
L 544.56 39.978437 
" style="fill: none; stroke: #1f77b4; stroke-width: 1.5; stroke-linecap: square"/>
    </g>
    <g id="text_20">
     <!-- Node -->
     <g transform="translate(552.56 43.478437)scale(0.1 -0.1)">
      <use xlink:href="#DejaVuSans-4e"/>
      <use xlink:href="#DejaVuSans-6f" x="74.804688"/>
      <use xlink:href="#DejaVuSans-64" x="135.986328"/>
      <use xlink:href="#DejaVuSans-65" x="199.462891"/>
     </g>
    </g>
    <g id="line2d_32">
     <path d="M 524.56 54.656563 
L 534.56 54.656563 
L 544.56 54.656563 
" style="fill: none; stroke: #ff7f0e; stroke-width: 1.5; stroke-linecap: square"/>
    </g>
    <g id="text_21">
     <!-- Node + surprisal -->
     <g transform="translate(552.56 58.156563)scale(0.1 -0.1)">
      <defs>
       <path id="DejaVuSans-2b" d="M 2944 4013 
L 2944 2272 
L 4684 2272 
L 4684 1741 
L 2944 1741 
L 2944 0 
L 2419 0 
L 2419 1741 
L 678 1741 
L 678 2272 
L 2419 2272 
L 2419 4013 
L 2944 4013 
z
" transform="scale(0.015625)"/>
      </defs>
      <use xlink:href="#DejaVuSans-4e"/>
      <use xlink:href="#DejaVuSans-6f" x="74.804688"/>
      <use xlink:href="#DejaVuSans-64" x="135.986328"/>
      <use xlink:href="#DejaVuSans-65" x="199.462891"/>
      <use xlink:href="#DejaVuSans-20" x="260.986328"/>
      <use xlink:href="#DejaVuSans-2b" x="292.773438"/>
      <use xlink:href="#DejaVuSans-20" x="376.5625"/>
      <use xlink:href="#DejaVuSans-73" x="408.349609"/>
      <use xlink:href="#DejaVuSans-75" x="460.449219"/>
      <use xlink:href="#DejaVuSans-72" x="523.828125"/>
      <use xlink:href="#DejaVuSans-70" x="564.941406"/>
      <use xlink:href="#DejaVuSans-72" x="628.417969"/>
      <use xlink:href="#DejaVuSans-69" x="669.53125"/>
      <use xlink:href="#DejaVuSans-73" x="697.314453"/>
      <use xlink:href="#DejaVuSans-61" x="749.414062"/>
      <use xlink:href="#DejaVuSans-6c" x="810.693359"/>
     </g>
    </g>
    <g id="line2d_33">
     <path d="M 524.56 69.334687 
L 534.56 69.334687 
L 544.56 69.334687 
" style="fill: none; stroke: #2ca02c; stroke-width: 1.5; stroke-linecap: square"/>
    </g>
    <g id="text_22">
     <!-- Node split -->
     <g transform="translate(552.56 72.834687)scale(0.1 -0.1)">
      <use xlink:href="#DejaVuSans-4e"/>
      <use xlink:href="#DejaVuSans-6f" x="74.804688"/>
      <use xlink:href="#DejaVuSans-64" x="135.986328"/>
      <use xlink:href="#DejaVuSans-65" x="199.462891"/>
      <use xlink:href="#DejaVuSans-20" x="260.986328"/>
      <use xlink:href="#DejaVuSans-73" x="292.773438"/>
      <use xlink:href="#DejaVuSans-70" x="344.873047"/>
      <use xlink:href="#DejaVuSans-6c" x="408.349609"/>
      <use xlink:href="#DejaVuSans-69" x="436.132812"/>
      <use xlink:href="#DejaVuSans-74" x="463.916016"/>
     </g>
    </g>
    <g id="line2d_34">
     <path d="M 524.56 84.012812 
L 534.56 84.012812 
L 544.56 84.012812 
" style="fill: none; stroke: #d62728; stroke-width: 1.5; stroke-linecap: square"/>
    </g>
    <g id="text_23">
     <!-- Node split + surprisal -->
     <g transform="translate(552.56 87.512812)scale(0.1 -0.1)">
      <use xlink:href="#DejaVuSans-4e"/>
      <use xlink:href="#DejaVuSans-6f" x="74.804688"/>
      <use xlink:href="#DejaVuSans-64" x="135.986328"/>
      <use xlink:href="#DejaVuSans-65" x="199.462891"/>
      <use xlink:href="#DejaVuSans-20" x="260.986328"/>
      <use xlink:href="#DejaVuSans-73" x="292.773438"/>
      <use xlink:href="#DejaVuSans-70" x="344.873047"/>
      <use xlink:href="#DejaVuSans-6c" x="408.349609"/>
      <use xlink:href="#DejaVuSans-69" x="436.132812"/>
      <use xlink:href="#DejaVuSans-74" x="463.916016"/>
      <use xlink:href="#DejaVuSans-20" x="503.125"/>
      <use xlink:href="#DejaVuSans-2b" x="534.912109"/>
      <use xlink:href="#DejaVuSans-20" x="618.701172"/>
      <use xlink:href="#DejaVuSans-73" x="650.488281"/>
      <use xlink:href="#DejaVuSans-75" x="702.587891"/>
      <use xlink:href="#DejaVuSans-72" x="765.966797"/>
      <use xlink:href="#DejaVuSans-70" x="807.080078"/>
      <use xlink:href="#DejaVuSans-72" x="870.556641"/>
      <use xlink:href="#DejaVuSans-69" x="911.669922"/>
      <use xlink:href="#DejaVuSans-73" x="939.453125"/>
      <use xlink:href="#DejaVuSans-61" x="991.552734"/>
      <use xlink:href="#DejaVuSans-6c" x="1052.832031"/>
     </g>
    </g>
    <g id="line2d_35">
     <path d="M 524.56 98.690937 
L 534.56 98.690937 
L 544.56 98.690937 
" style="fill: none; stroke: #9467bd; stroke-width: 1.5; stroke-linecap: square"/>
    </g>
    <g id="text_24">
     <!-- Node random split -->
     <g transform="translate(552.56 102.190937)scale(0.1 -0.1)">
      <use xlink:href="#DejaVuSans-4e"/>
      <use xlink:href="#DejaVuSans-6f" x="74.804688"/>
      <use xlink:href="#DejaVuSans-64" x="135.986328"/>
      <use xlink:href="#DejaVuSans-65" x="199.462891"/>
      <use xlink:href="#DejaVuSans-20" x="260.986328"/>
      <use xlink:href="#DejaVuSans-72" x="292.773438"/>
      <use xlink:href="#DejaVuSans-61" x="333.886719"/>
      <use xlink:href="#DejaVuSans-6e" x="395.166016"/>
      <use xlink:href="#DejaVuSans-64" x="458.544922"/>
      <use xlink:href="#DejaVuSans-6f" x="522.021484"/>
      <use xlink:href="#DejaVuSans-6d" x="583.203125"/>
      <use xlink:href="#DejaVuSans-20" x="680.615234"/>
      <use xlink:href="#DejaVuSans-73" x="712.402344"/>
      <use xlink:href="#DejaVuSans-70" x="764.501953"/>
      <use xlink:href="#DejaVuSans-6c" x="827.978516"/>
      <use xlink:href="#DejaVuSans-69" x="855.761719"/>
      <use xlink:href="#DejaVuSans-74" x="883.544922"/>
     </g>
    </g>
    <g id="line2d_36">
     <path d="M 524.56 113.369062 
L 534.56 113.369062 
L 544.56 113.369062 
" style="fill: none; stroke: #8c564b; stroke-width: 1.5; stroke-linecap: square"/>
    </g>
    <g id="text_25">
     <!-- Node random split + surprisal -->
     <g transform="translate(552.56 116.869062)scale(0.1 -0.1)">
      <use xlink:href="#DejaVuSans-4e"/>
      <use xlink:href="#DejaVuSans-6f" x="74.804688"/>
      <use xlink:href="#DejaVuSans-64" x="135.986328"/>
      <use xlink:href="#DejaVuSans-65" x="199.462891"/>
      <use xlink:href="#DejaVuSans-20" x="260.986328"/>
      <use xlink:href="#DejaVuSans-72" x="292.773438"/>
      <use xlink:href="#DejaVuSans-61" x="333.886719"/>
      <use xlink:href="#DejaVuSans-6e" x="395.166016"/>
      <use xlink:href="#DejaVuSans-64" x="458.544922"/>
      <use xlink:href="#DejaVuSans-6f" x="522.021484"/>
      <use xlink:href="#DejaVuSans-6d" x="583.203125"/>
      <use xlink:href="#DejaVuSans-20" x="680.615234"/>
      <use xlink:href="#DejaVuSans-73" x="712.402344"/>
      <use xlink:href="#DejaVuSans-70" x="764.501953"/>
      <use xlink:href="#DejaVuSans-6c" x="827.978516"/>
      <use xlink:href="#DejaVuSans-69" x="855.761719"/>
      <use xlink:href="#DejaVuSans-74" x="883.544922"/>
      <use xlink:href="#DejaVuSans-20" x="922.753906"/>
      <use xlink:href="#DejaVuSans-2b" x="954.541016"/>
      <use xlink:href="#DejaVuSans-20" x="1038.330078"/>
      <use xlink:href="#DejaVuSans-73" x="1070.117188"/>
      <use xlink:href="#DejaVuSans-75" x="1122.216797"/>
      <use xlink:href="#DejaVuSans-72" x="1185.595703"/>
      <use xlink:href="#DejaVuSans-70" x="1226.708984"/>
      <use xlink:href="#DejaVuSans-72" x="1290.185547"/>
      <use xlink:href="#DejaVuSans-69" x="1331.298828"/>
      <use xlink:href="#DejaVuSans-73" x="1359.082031"/>
      <use xlink:href="#DejaVuSans-61" x="1411.181641"/>
      <use xlink:href="#DejaVuSans-6c" x="1472.460938"/>
     </g>
    </g>
    <g id="line2d_37">
     <path d="M 524.56 128.047187 
L 534.56 128.047187 
L 544.56 128.047187 
" style="fill: none; stroke: #e377c2; stroke-width: 1.5; stroke-linecap: square"/>
    </g>
    <g id="text_26">
     <!-- Interaction -->
     <g transform="translate(552.56 131.547187)scale(0.1 -0.1)">
      <use xlink:href="#DejaVuSans-49"/>
      <use xlink:href="#DejaVuSans-6e" x="29.492188"/>
      <use xlink:href="#DejaVuSans-74" x="92.871094"/>
      <use xlink:href="#DejaVuSans-65" x="132.080078"/>
      <use xlink:href="#DejaVuSans-72" x="193.603516"/>
      <use xlink:href="#DejaVuSans-61" x="234.716797"/>
      <use xlink:href="#DejaVuSans-63" x="295.996094"/>
      <use xlink:href="#DejaVuSans-74" x="350.976562"/>
      <use xlink:href="#DejaVuSans-69" x="390.185547"/>
      <use xlink:href="#DejaVuSans-6f" x="417.96875"/>
      <use xlink:href="#DejaVuSans-6e" x="479.150391"/>
     </g>
    </g>
    <g id="line2d_38">
     <path d="M 524.56 142.725312 
L 534.56 142.725312 
L 544.56 142.725312 
" style="fill: none; stroke: #7f7f7f; stroke-width: 1.5; stroke-linecap: square"/>
    </g>
    <g id="text_27">
     <!-- Node + surprisal + interaction -->
     <g transform="translate(552.56 146.225312)scale(0.1 -0.1)">
      <use xlink:href="#DejaVuSans-4e"/>
      <use xlink:href="#DejaVuSans-6f" x="74.804688"/>
      <use xlink:href="#DejaVuSans-64" x="135.986328"/>
      <use xlink:href="#DejaVuSans-65" x="199.462891"/>
      <use xlink:href="#DejaVuSans-20" x="260.986328"/>
      <use xlink:href="#DejaVuSans-2b" x="292.773438"/>
      <use xlink:href="#DejaVuSans-20" x="376.5625"/>
      <use xlink:href="#DejaVuSans-73" x="408.349609"/>
      <use xlink:href="#DejaVuSans-75" x="460.449219"/>
      <use xlink:href="#DejaVuSans-72" x="523.828125"/>
      <use xlink:href="#DejaVuSans-70" x="564.941406"/>
      <use xlink:href="#DejaVuSans-72" x="628.417969"/>
      <use xlink:href="#DejaVuSans-69" x="669.53125"/>
      <use xlink:href="#DejaVuSans-73" x="697.314453"/>
      <use xlink:href="#DejaVuSans-61" x="749.414062"/>
      <use xlink:href="#DejaVuSans-6c" x="810.693359"/>
      <use xlink:href="#DejaVuSans-20" x="838.476562"/>
      <use xlink:href="#DejaVuSans-2b" x="870.263672"/>
      <use xlink:href="#DejaVuSans-20" x="954.052734"/>
      <use xlink:href="#DejaVuSans-69" x="985.839844"/>
      <use xlink:href="#DejaVuSans-6e" x="1013.623047"/>
      <use xlink:href="#DejaVuSans-74" x="1077.001953"/>
      <use xlink:href="#DejaVuSans-65" x="1116.210938"/>
      <use xlink:href="#DejaVuSans-72" x="1177.734375"/>
      <use xlink:href="#DejaVuSans-61" x="1218.847656"/>
      <use xlink:href="#DejaVuSans-63" x="1280.126953"/>
      <use xlink:href="#DejaVuSans-74" x="1335.107422"/>
      <use xlink:href="#DejaVuSans-69" x="1374.316406"/>
      <use xlink:href="#DejaVuSans-6f" x="1402.099609"/>
      <use xlink:href="#DejaVuSans-6e" x="1463.28125"/>
     </g>
    </g>
   </g>
  </g>
 </g>
 <defs>
  <clipPath id="p8bafdead2c">
   <rect x="47.72" y="26.88" width="217.495" height="147.16"/>
  </clipPath>
  <clipPath id="pf7969d848b">
   <rect x="298.065" y="26.88" width="217.495" height="147.16"/>
  </clipPath>
 </defs>
</svg>
