<?xml version="1.0" encoding="utf-8" standalone="no"?>
<!DOCTYPE svg PUBLIC "-//W3C//DTD SVG 1.1//EN"
  "http://www.w3.org/Graphics/SVG/1.1/DTD/svg11.dtd">
<svg xmlns:xlink="http://www.w3.org/1999/xlink" width="720pt" height="216pt" viewBox="0 0 720 216" xmlns="http://www.w3.org/2000/svg" version="1.1">
 <metadata>
  <rdf:RDF xmlns:dc="http://purl.org/dc/elements/1.1/" xmlns:cc="http://creativecommons.org/ns#" xmlns:rdf="http://www.w3.org/1999/02/22-rdf-syntax-ns#">
   <cc:Work>
    <dc:type rdf:resource="http://purl.org/dc/dcmitype/StillImage"/>
    <dc:date>2024-01-15T22:29:12.410592</dc:date>
    <dc:format>image/svg+xml</dc:format>
    <dc:creator>
     <cc:Agent>
      <dc:title>Matplotlib v3.5.1, https://matplotlib.org/</dc:title>
     </cc:Agent>
    </dc:creator>
   </cc:Work>
  </rdf:RDF>
 </metadata>
 <defs>
  <style type="text/css">*{stroke-linejoin: round; stroke-linecap: butt}</style>
 </defs>
 <g id="figure_1">
  <g id="patch_1">
   <path d="M 0 216 
L 720 216 
L 720 0 
L 0 0 
z
" style="fill: #ffffff"/>
  </g>
  <g id="axes_1">
   <g id="patch_2">
    <path d="M 47.72 174.04 
L 265.215 174.04 
L 265.215 26.88 
L 47.72 26.88 
z
" style="fill: #ffffff"/>
   </g>
   <g id="PolyCollection_1">
    <path d="M 47.72 33.647367 
L 47.72 34.368171 
L 59.167105 36.468015 
L 70.614211 42.071722 
L 82.061316 49.530636 
L 93.508421 59.648853 
L 104.955526 70.02299 
L 116.402632 80.813808 
L 127.849737 91.836062 
L 139.296842 101.754014 
L 150.743947 111.938235 
L 162.191053 120.322291 
L 173.638158 127.664345 
L 185.085263 134.447695 
L 196.532368 139.081573 
L 207.979474 144.792655 
L 219.426579 148.666231 
L 230.873684 153.029829 
L 242.320789 156.219253 
L 253.767895 158.740581 
L 265.215 161.322586 
L 265.215 148.761941 
L 265.215 148.761941 
L 253.767895 145.357325 
L 242.320789 141.717292 
L 230.873684 137.590889 
L 219.426579 134.336221 
L 207.979474 129.799696 
L 196.532368 124.39902 
L 185.085263 118.933106 
L 173.638158 113.391739 
L 162.191053 106.492587 
L 150.743947 99.380323 
L 139.296842 91.187375 
L 127.849737 81.958689 
L 116.402632 73.362192 
L 104.955526 64.118261 
L 93.508421 54.558458 
L 82.061316 46.177723 
L 70.614211 40.286466 
L 59.167105 35.164915 
L 47.72 33.647367 
z
" clip-path="url(#p850ca6bbd2)" style="fill: #1f77b4; fill-opacity: 0.4"/>
   </g>
   <g id="PolyCollection_2">
    <path d="M 47.72 33.655976 
L 47.72 34.384345 
L 59.167105 35.75103 
L 70.614211 38.994616 
L 82.061316 43.426132 
L 93.508421 50.535089 
L 104.955526 58.504734 
L 116.402632 67.618939 
L 127.849737 76.833836 
L 139.296842 85.407597 
L 150.743947 95.028581 
L 162.191053 103.783367 
L 173.638158 111.955529 
L 185.085263 119.830539 
L 196.532368 125.466689 
L 207.979474 132.856651 
L 219.426579 138.089331 
L 230.873684 143.044489 
L 242.320789 147.825276 
L 253.767895 151.068738 
L 265.215 154.118889 
L 265.215 141.324495 
L 265.215 141.324495 
L 253.767895 137.52098 
L 242.320789 133.337972 
L 230.873684 128.48327 
L 219.426579 124.40658 
L 207.979474 119.440179 
L 196.532368 113.748106 
L 185.085263 108.114835 
L 173.638158 101.761272 
L 162.191053 94.498139 
L 150.743947 87.128148 
L 139.296842 78.586966 
L 127.849737 69.974943 
L 116.402632 61.991296 
L 104.955526 54.274967 
L 93.508421 47.279724 
L 82.061316 41.127782 
L 70.614211 37.735684 
L 59.167105 34.691506 
L 47.72 33.655976 
z
" clip-path="url(#p850ca6bbd2)" style="fill: #ff7f0e; fill-opacity: 0.4"/>
   </g>
   <g id="PolyCollection_3">
    <path d="M 47.72 33.663192 
L 47.72 34.381825 
L 59.167105 35.982087 
L 70.614211 38.325092 
L 82.061316 41.255133 
L 93.508421 45.649541 
L 104.955526 49.74188 
L 116.402632 54.528728 
L 127.849737 59.987374 
L 139.296842 64.994876 
L 150.743947 70.837696 
L 162.191053 75.762308 
L 173.638158 81.9155 
L 185.085263 87.508976 
L 196.532368 91.749 
L 207.979474 97.352052 
L 219.426579 101.406972 
L 230.873684 106.411412 
L 242.320789 110.916285 
L 253.767895 114.409945 
L 265.215 118.139584 
L 265.215 104.605169 
L 265.215 104.605169 
L 253.767895 100.507919 
L 242.320789 98.118171 
L 230.873684 93.254631 
L 219.426579 89.753904 
L 207.979474 86.14579 
L 196.532368 82.936391 
L 185.085263 78.207827 
L 173.638158 74.069614 
L 162.191053 69.698875 
L 150.743947 64.672161 
L 139.296842 60.434114 
L 127.849737 55.535522 
L 116.402632 51.259021 
L 104.955526 47.007966 
L 93.508421 42.983526 
L 82.061316 39.503922 
L 70.614211 37.277583 
L 59.167105 34.868319 
L 47.72 33.663192 
z
" clip-path="url(#p850ca6bbd2)" style="fill: #2ca02c; fill-opacity: 0.4"/>
   </g>
   <g id="PolyCollection_4">
    <path d="M 47.72 33.67759 
L 47.72 34.396563 
L 59.167105 35.678591 
L 70.614211 37.479124 
L 82.061316 39.831465 
L 93.508421 43.796325 
L 104.955526 47.781621 
L 116.402632 52.591711 
L 127.849737 58.234549 
L 139.296842 63.525061 
L 150.743947 69.575484 
L 162.191053 74.724978 
L 173.638158 80.995321 
L 185.085263 86.430031 
L 196.532368 90.721074 
L 207.979474 96.136352 
L 219.426579 99.909763 
L 230.873684 104.596395 
L 242.320789 108.539607 
L 253.767895 111.582745 
L 265.215 115.01746 
L 265.215 102.520255 
L 265.215 102.520255 
L 253.767895 98.625057 
L 242.320789 96.655877 
L 230.873684 91.981998 
L 219.426579 88.562449 
L 207.979474 85.054742 
L 196.532368 81.653138 
L 185.085263 76.843289 
L 173.638158 72.553835 
L 162.191053 68.017932 
L 150.743947 63.008192 
L 139.296842 58.507724 
L 127.849737 53.616965 
L 116.402632 49.408416 
L 104.955526 45.090423 
L 93.508421 41.438343 
L 82.061316 38.167009 
L 70.614211 36.591768 
L 59.167105 34.641909 
L 47.72 33.67759 
z
" clip-path="url(#p850ca6bbd2)" style="fill: #d62728; fill-opacity: 0.4"/>
   </g>
   <g id="PolyCollection_5">
    <path d="M 47.72 33.665084 
L 47.72 34.383796 
L 59.167105 36.496815 
L 70.614211 42.121512 
L 82.061316 49.512717 
L 93.508421 59.681385 
L 104.955526 70.04726 
L 116.402632 81.16539 
L 127.849737 91.836502 
L 139.296842 102.043092 
L 150.743947 112.410861 
L 162.191053 120.400791 
L 173.638158 127.869481 
L 185.085263 134.78062 
L 196.532368 139.094778 
L 207.979474 144.500294 
L 219.426579 149.743022 
L 230.873684 154.138985 
L 242.320789 156.929293 
L 253.767895 159.268245 
L 265.215 162.183904 
L 265.215 149.571764 
L 265.215 149.571764 
L 253.767895 146.190708 
L 242.320789 141.007365 
L 230.873684 138.239013 
L 219.426579 134.59269 
L 207.979474 130.146192 
L 196.532368 125.099477 
L 185.085263 119.371998 
L 173.638158 113.506669 
L 162.191053 106.697668 
L 150.743947 99.809259 
L 139.296842 91.355967 
L 127.849737 82.234596 
L 116.402632 73.488204 
L 104.955526 63.926903 
L 93.508421 54.639325 
L 82.061316 46.2032 
L 70.614211 40.285998 
L 59.167105 35.189504 
L 47.72 33.665084 
z
" clip-path="url(#p850ca6bbd2)" style="fill: #9467bd; fill-opacity: 0.4"/>
   </g>
   <g id="PolyCollection_6">
    <path d="M 47.72 33.674291 
L 47.72 34.400117 
L 59.167105 35.770841 
L 70.614211 39.013249 
L 82.061316 43.433805 
L 93.508421 50.573962 
L 104.955526 58.518086 
L 116.402632 67.765545 
L 127.849737 76.838041 
L 139.296842 85.565769 
L 150.743947 95.388455 
L 162.191053 103.794609 
L 173.638158 112.002705 
L 185.085263 120.229373 
L 196.532368 125.622893 
L 207.979474 132.733859 
L 219.426579 138.739157 
L 230.873684 143.68758 
L 242.320789 148.200519 
L 253.767895 151.393612 
L 265.215 154.701219 
L 265.215 141.702071 
L 265.215 141.702071 
L 253.767895 138.052208 
L 242.320789 132.739818 
L 230.873684 129.085548 
L 219.426579 124.716078 
L 207.979474 119.626446 
L 196.532368 114.115627 
L 185.085263 108.413071 
L 173.638158 101.694171 
L 162.191053 94.593351 
L 150.743947 87.209604 
L 139.296842 78.611567 
L 127.849737 70.145401 
L 116.402632 62.075069 
L 104.955526 54.187388 
L 93.508421 47.286763 
L 82.061316 41.153218 
L 70.614211 37.750877 
L 59.167105 34.707052 
L 47.72 33.674291 
z
" clip-path="url(#p850ca6bbd2)" style="fill: #8c564b; fill-opacity: 0.4"/>
   </g>
   <g id="PolyCollection_7">
    <path d="M 47.72 43.988935 
L 47.72 46.900601 
L 59.167105 49.437496 
L 70.614211 55.979625 
L 82.061316 64.651334 
L 93.508421 75.327447 
L 104.955526 86.359455 
L 116.402632 97.32527 
L 127.849737 107.590577 
L 139.296842 117.237582 
L 150.743947 126.805383 
L 162.191053 135.087588 
L 173.638158 141.436622 
L 185.085263 147.475247 
L 196.532368 151.69791 
L 207.979474 156.116678 
L 219.426579 158.545613 
L 230.873684 161.99709 
L 242.320789 164.05019 
L 253.767895 165.880794 
L 265.215 167.350909 
L 265.215 158.778444 
L 265.215 158.778444 
L 253.767895 155.976455 
L 242.320789 152.955807 
L 230.873684 150.025209 
L 219.426579 147.595964 
L 207.979474 143.496444 
L 196.532368 138.879289 
L 185.085263 134.28455 
L 173.638158 129.147033 
L 162.191053 122.688257 
L 150.743947 115.755151 
L 139.296842 106.989905 
L 127.849737 97.310399 
L 116.402632 87.889375 
L 104.955526 77.431259 
L 93.508421 66.667559 
L 82.061316 57.878309 
L 70.614211 51.133165 
L 59.167105 45.643222 
L 47.72 43.988935 
z
" clip-path="url(#p850ca6bbd2)" style="fill: #e377c2; fill-opacity: 0.4"/>
   </g>
   <g id="PolyCollection_8">
    <path d="M 47.72 33.669259 
L 47.72 34.390455 
L 59.167105 35.145442 
L 70.614211 35.642201 
L 82.061316 37.242933 
L 93.508421 41.219014 
L 104.955526 46.745497 
L 116.402632 53.546786 
L 127.849737 61.581833 
L 139.296842 69.54316 
L 150.743947 78.797306 
L 162.191053 87.333348 
L 173.638158 96.66994 
L 185.085263 105.586249 
L 196.532368 112.308252 
L 207.979474 120.663429 
L 219.426579 126.569174 
L 230.873684 132.110349 
L 242.320789 137.233483 
L 253.767895 141.121208 
L 265.215 144.650783 
L 265.215 132.113167 
L 265.215 132.113167 
L 253.767895 127.039634 
L 242.320789 123.163001 
L 230.873684 117.481225 
L 219.426579 112.668012 
L 207.979474 106.660958 
L 196.532368 100.494036 
L 185.085263 93.603796 
L 173.638158 86.224323 
L 162.191053 78.10048 
L 150.743947 70.037901 
L 139.296842 61.897258 
L 127.849737 54.358163 
L 116.402632 48.042008 
L 104.955526 42.435565 
L 93.508421 38.472917 
L 82.061316 35.861367 
L 70.614211 34.676032 
L 59.167105 34.188473 
L 47.72 33.669259 
z
" clip-path="url(#p850ca6bbd2)" style="fill: #7f7f7f; fill-opacity: 0.4"/>
   </g>
   <g id="matplotlib.axis_1">
    <g id="xtick_1">
     <g id="line2d_1">
      <defs>
       <path id="m552e18c43b" d="M 0 0 
L 0 3.5 
" style="stroke: #000000; stroke-width: 0.8"/>
      </defs>
      <g>
       <use xlink:href="#m552e18c43b" x="47.72" y="174.04" style="stroke: #000000; stroke-width: 0.8"/>
      </g>
     </g>
     <g id="text_1">
      <!-- 0.0 -->
      <g transform="translate(39.768438 188.638438)scale(0.1 -0.1)">
       <defs>
        <path id="DejaVuSans-30" d="M 2034 4250 
Q 1547 4250 1301 3770 
Q 1056 3291 1056 2328 
Q 1056 1369 1301 889 
Q 1547 409 2034 409 
Q 2525 409 2770 889 
Q 3016 1369 3016 2328 
Q 3016 3291 2770 3770 
Q 2525 4250 2034 4250 
z
M 2034 4750 
Q 2819 4750 3233 4129 
Q 3647 3509 3647 2328 
Q 3647 1150 3233 529 
Q 2819 -91 2034 -91 
Q 1250 -91 836 529 
Q 422 1150 422 2328 
Q 422 3509 836 4129 
Q 1250 4750 2034 4750 
z
" transform="scale(0.015625)"/>
        <path id="DejaVuSans-2e" d="M 684 794 
L 1344 794 
L 1344 0 
L 684 0 
L 684 794 
z
" transform="scale(0.015625)"/>
       </defs>
       <use xlink:href="#DejaVuSans-30"/>
       <use xlink:href="#DejaVuSans-2e" x="63.623047"/>
       <use xlink:href="#DejaVuSans-30" x="95.410156"/>
      </g>
     </g>
    </g>
    <g id="xtick_2">
     <g id="line2d_2">
      <g>
       <use xlink:href="#m552e18c43b" x="102.09375" y="174.04" style="stroke: #000000; stroke-width: 0.8"/>
      </g>
     </g>
     <g id="text_2">
      <!-- 0.5 -->
      <g transform="translate(94.142188 188.638438)scale(0.1 -0.1)">
       <defs>
        <path id="DejaVuSans-35" d="M 691 4666 
L 3169 4666 
L 3169 4134 
L 1269 4134 
L 1269 2991 
Q 1406 3038 1543 3061 
Q 1681 3084 1819 3084 
Q 2600 3084 3056 2656 
Q 3513 2228 3513 1497 
Q 3513 744 3044 326 
Q 2575 -91 1722 -91 
Q 1428 -91 1123 -41 
Q 819 9 494 109 
L 494 744 
Q 775 591 1075 516 
Q 1375 441 1709 441 
Q 2250 441 2565 725 
Q 2881 1009 2881 1497 
Q 2881 1984 2565 2268 
Q 2250 2553 1709 2553 
Q 1456 2553 1204 2497 
Q 953 2441 691 2322 
L 691 4666 
z
" transform="scale(0.015625)"/>
       </defs>
       <use xlink:href="#DejaVuSans-30"/>
       <use xlink:href="#DejaVuSans-2e" x="63.623047"/>
       <use xlink:href="#DejaVuSans-35" x="95.410156"/>
      </g>
     </g>
    </g>
    <g id="xtick_3">
     <g id="line2d_3">
      <g>
       <use xlink:href="#m552e18c43b" x="156.4675" y="174.04" style="stroke: #000000; stroke-width: 0.8"/>
      </g>
     </g>
     <g id="text_3">
      <!-- 1.0 -->
      <g transform="translate(148.515938 188.638438)scale(0.1 -0.1)">
       <defs>
        <path id="DejaVuSans-31" d="M 794 531 
L 1825 531 
L 1825 4091 
L 703 3866 
L 703 4441 
L 1819 4666 
L 2450 4666 
L 2450 531 
L 3481 531 
L 3481 0 
L 794 0 
L 794 531 
z
" transform="scale(0.015625)"/>
       </defs>
       <use xlink:href="#DejaVuSans-31"/>
       <use xlink:href="#DejaVuSans-2e" x="63.623047"/>
       <use xlink:href="#DejaVuSans-30" x="95.410156"/>
      </g>
     </g>
    </g>
    <g id="xtick_4">
     <g id="line2d_4">
      <g>
       <use xlink:href="#m552e18c43b" x="210.84125" y="174.04" style="stroke: #000000; stroke-width: 0.8"/>
      </g>
     </g>
     <g id="text_4">
      <!-- 1.5 -->
      <g transform="translate(202.889687 188.638438)scale(0.1 -0.1)">
       <use xlink:href="#DejaVuSans-31"/>
       <use xlink:href="#DejaVuSans-2e" x="63.623047"/>
       <use xlink:href="#DejaVuSans-35" x="95.410156"/>
      </g>
     </g>
    </g>
    <g id="xtick_5">
     <g id="line2d_5">
      <g>
       <use xlink:href="#m552e18c43b" x="265.215" y="174.04" style="stroke: #000000; stroke-width: 0.8"/>
      </g>
     </g>
     <g id="text_5">
      <!-- 2.0 -->
      <g transform="translate(257.263437 188.638438)scale(0.1 -0.1)">
       <defs>
        <path id="DejaVuSans-32" d="M 1228 531 
L 3431 531 
L 3431 0 
L 469 0 
L 469 531 
Q 828 903 1448 1529 
Q 2069 2156 2228 2338 
Q 2531 2678 2651 2914 
Q 2772 3150 2772 3378 
Q 2772 3750 2511 3984 
Q 2250 4219 1831 4219 
Q 1534 4219 1204 4116 
Q 875 4013 500 3803 
L 500 4441 
Q 881 4594 1212 4672 
Q 1544 4750 1819 4750 
Q 2544 4750 2975 4387 
Q 3406 4025 3406 3419 
Q 3406 3131 3298 2873 
Q 3191 2616 2906 2266 
Q 2828 2175 2409 1742 
Q 1991 1309 1228 531 
z
" transform="scale(0.015625)"/>
       </defs>
       <use xlink:href="#DejaVuSans-32"/>
       <use xlink:href="#DejaVuSans-2e" x="63.623047"/>
       <use xlink:href="#DejaVuSans-30" x="95.410156"/>
      </g>
     </g>
    </g>
    <g id="text_6">
     <!-- Influence of surprisal (multiplication) -->
     <g transform="translate(64.320625 202.316563)scale(0.1 -0.1)">
      <defs>
       <path id="DejaVuSans-49" d="M 628 4666 
L 1259 4666 
L 1259 0 
L 628 0 
L 628 4666 
z
" transform="scale(0.015625)"/>
       <path id="DejaVuSans-6e" d="M 3513 2113 
L 3513 0 
L 2938 0 
L 2938 2094 
Q 2938 2591 2744 2837 
Q 2550 3084 2163 3084 
Q 1697 3084 1428 2787 
Q 1159 2491 1159 1978 
L 1159 0 
L 581 0 
L 581 3500 
L 1159 3500 
L 1159 2956 
Q 1366 3272 1645 3428 
Q 1925 3584 2291 3584 
Q 2894 3584 3203 3211 
Q 3513 2838 3513 2113 
z
" transform="scale(0.015625)"/>
       <path id="DejaVuSans-66" d="M 2375 4863 
L 2375 4384 
L 1825 4384 
Q 1516 4384 1395 4259 
Q 1275 4134 1275 3809 
L 1275 3500 
L 2222 3500 
L 2222 3053 
L 1275 3053 
L 1275 0 
L 697 0 
L 697 3053 
L 147 3053 
L 147 3500 
L 697 3500 
L 697 3744 
Q 697 4328 969 4595 
Q 1241 4863 1831 4863 
L 2375 4863 
z
" transform="scale(0.015625)"/>
       <path id="DejaVuSans-6c" d="M 603 4863 
L 1178 4863 
L 1178 0 
L 603 0 
L 603 4863 
z
" transform="scale(0.015625)"/>
       <path id="DejaVuSans-75" d="M 544 1381 
L 544 3500 
L 1119 3500 
L 1119 1403 
Q 1119 906 1312 657 
Q 1506 409 1894 409 
Q 2359 409 2629 706 
Q 2900 1003 2900 1516 
L 2900 3500 
L 3475 3500 
L 3475 0 
L 2900 0 
L 2900 538 
Q 2691 219 2414 64 
Q 2138 -91 1772 -91 
Q 1169 -91 856 284 
Q 544 659 544 1381 
z
M 1991 3584 
L 1991 3584 
z
" transform="scale(0.015625)"/>
       <path id="DejaVuSans-65" d="M 3597 1894 
L 3597 1613 
L 953 1613 
Q 991 1019 1311 708 
Q 1631 397 2203 397 
Q 2534 397 2845 478 
Q 3156 559 3463 722 
L 3463 178 
Q 3153 47 2828 -22 
Q 2503 -91 2169 -91 
Q 1331 -91 842 396 
Q 353 884 353 1716 
Q 353 2575 817 3079 
Q 1281 3584 2069 3584 
Q 2775 3584 3186 3129 
Q 3597 2675 3597 1894 
z
M 3022 2063 
Q 3016 2534 2758 2815 
Q 2500 3097 2075 3097 
Q 1594 3097 1305 2825 
Q 1016 2553 972 2059 
L 3022 2063 
z
" transform="scale(0.015625)"/>
       <path id="DejaVuSans-63" d="M 3122 3366 
L 3122 2828 
Q 2878 2963 2633 3030 
Q 2388 3097 2138 3097 
Q 1578 3097 1268 2742 
Q 959 2388 959 1747 
Q 959 1106 1268 751 
Q 1578 397 2138 397 
Q 2388 397 2633 464 
Q 2878 531 3122 666 
L 3122 134 
Q 2881 22 2623 -34 
Q 2366 -91 2075 -91 
Q 1284 -91 818 406 
Q 353 903 353 1747 
Q 353 2603 823 3093 
Q 1294 3584 2113 3584 
Q 2378 3584 2631 3529 
Q 2884 3475 3122 3366 
z
" transform="scale(0.015625)"/>
       <path id="DejaVuSans-20" transform="scale(0.015625)"/>
       <path id="DejaVuSans-6f" d="M 1959 3097 
Q 1497 3097 1228 2736 
Q 959 2375 959 1747 
Q 959 1119 1226 758 
Q 1494 397 1959 397 
Q 2419 397 2687 759 
Q 2956 1122 2956 1747 
Q 2956 2369 2687 2733 
Q 2419 3097 1959 3097 
z
M 1959 3584 
Q 2709 3584 3137 3096 
Q 3566 2609 3566 1747 
Q 3566 888 3137 398 
Q 2709 -91 1959 -91 
Q 1206 -91 779 398 
Q 353 888 353 1747 
Q 353 2609 779 3096 
Q 1206 3584 1959 3584 
z
" transform="scale(0.015625)"/>
       <path id="DejaVuSans-73" d="M 2834 3397 
L 2834 2853 
Q 2591 2978 2328 3040 
Q 2066 3103 1784 3103 
Q 1356 3103 1142 2972 
Q 928 2841 928 2578 
Q 928 2378 1081 2264 
Q 1234 2150 1697 2047 
L 1894 2003 
Q 2506 1872 2764 1633 
Q 3022 1394 3022 966 
Q 3022 478 2636 193 
Q 2250 -91 1575 -91 
Q 1294 -91 989 -36 
Q 684 19 347 128 
L 347 722 
Q 666 556 975 473 
Q 1284 391 1588 391 
Q 1994 391 2212 530 
Q 2431 669 2431 922 
Q 2431 1156 2273 1281 
Q 2116 1406 1581 1522 
L 1381 1569 
Q 847 1681 609 1914 
Q 372 2147 372 2553 
Q 372 3047 722 3315 
Q 1072 3584 1716 3584 
Q 2034 3584 2315 3537 
Q 2597 3491 2834 3397 
z
" transform="scale(0.015625)"/>
       <path id="DejaVuSans-72" d="M 2631 2963 
Q 2534 3019 2420 3045 
Q 2306 3072 2169 3072 
Q 1681 3072 1420 2755 
Q 1159 2438 1159 1844 
L 1159 0 
L 581 0 
L 581 3500 
L 1159 3500 
L 1159 2956 
Q 1341 3275 1631 3429 
Q 1922 3584 2338 3584 
Q 2397 3584 2469 3576 
Q 2541 3569 2628 3553 
L 2631 2963 
z
" transform="scale(0.015625)"/>
       <path id="DejaVuSans-70" d="M 1159 525 
L 1159 -1331 
L 581 -1331 
L 581 3500 
L 1159 3500 
L 1159 2969 
Q 1341 3281 1617 3432 
Q 1894 3584 2278 3584 
Q 2916 3584 3314 3078 
Q 3713 2572 3713 1747 
Q 3713 922 3314 415 
Q 2916 -91 2278 -91 
Q 1894 -91 1617 61 
Q 1341 213 1159 525 
z
M 3116 1747 
Q 3116 2381 2855 2742 
Q 2594 3103 2138 3103 
Q 1681 3103 1420 2742 
Q 1159 2381 1159 1747 
Q 1159 1113 1420 752 
Q 1681 391 2138 391 
Q 2594 391 2855 752 
Q 3116 1113 3116 1747 
z
" transform="scale(0.015625)"/>
       <path id="DejaVuSans-69" d="M 603 3500 
L 1178 3500 
L 1178 0 
L 603 0 
L 603 3500 
z
M 603 4863 
L 1178 4863 
L 1178 4134 
L 603 4134 
L 603 4863 
z
" transform="scale(0.015625)"/>
       <path id="DejaVuSans-61" d="M 2194 1759 
Q 1497 1759 1228 1600 
Q 959 1441 959 1056 
Q 959 750 1161 570 
Q 1363 391 1709 391 
Q 2188 391 2477 730 
Q 2766 1069 2766 1631 
L 2766 1759 
L 2194 1759 
z
M 3341 1997 
L 3341 0 
L 2766 0 
L 2766 531 
Q 2569 213 2275 61 
Q 1981 -91 1556 -91 
Q 1019 -91 701 211 
Q 384 513 384 1019 
Q 384 1609 779 1909 
Q 1175 2209 1959 2209 
L 2766 2209 
L 2766 2266 
Q 2766 2663 2505 2880 
Q 2244 3097 1772 3097 
Q 1472 3097 1187 3025 
Q 903 2953 641 2809 
L 641 3341 
Q 956 3463 1253 3523 
Q 1550 3584 1831 3584 
Q 2591 3584 2966 3190 
Q 3341 2797 3341 1997 
z
" transform="scale(0.015625)"/>
       <path id="DejaVuSans-28" d="M 1984 4856 
Q 1566 4138 1362 3434 
Q 1159 2731 1159 2009 
Q 1159 1288 1364 580 
Q 1569 -128 1984 -844 
L 1484 -844 
Q 1016 -109 783 600 
Q 550 1309 550 2009 
Q 550 2706 781 3412 
Q 1013 4119 1484 4856 
L 1984 4856 
z
" transform="scale(0.015625)"/>
       <path id="DejaVuSans-6d" d="M 3328 2828 
Q 3544 3216 3844 3400 
Q 4144 3584 4550 3584 
Q 5097 3584 5394 3201 
Q 5691 2819 5691 2113 
L 5691 0 
L 5113 0 
L 5113 2094 
Q 5113 2597 4934 2840 
Q 4756 3084 4391 3084 
Q 3944 3084 3684 2787 
Q 3425 2491 3425 1978 
L 3425 0 
L 2847 0 
L 2847 2094 
Q 2847 2600 2669 2842 
Q 2491 3084 2119 3084 
Q 1678 3084 1418 2786 
Q 1159 2488 1159 1978 
L 1159 0 
L 581 0 
L 581 3500 
L 1159 3500 
L 1159 2956 
Q 1356 3278 1631 3431 
Q 1906 3584 2284 3584 
Q 2666 3584 2933 3390 
Q 3200 3197 3328 2828 
z
" transform="scale(0.015625)"/>
       <path id="DejaVuSans-74" d="M 1172 4494 
L 1172 3500 
L 2356 3500 
L 2356 3053 
L 1172 3053 
L 1172 1153 
Q 1172 725 1289 603 
Q 1406 481 1766 481 
L 2356 481 
L 2356 0 
L 1766 0 
Q 1100 0 847 248 
Q 594 497 594 1153 
L 594 3053 
L 172 3053 
L 172 3500 
L 594 3500 
L 594 4494 
L 1172 4494 
z
" transform="scale(0.015625)"/>
       <path id="DejaVuSans-29" d="M 513 4856 
L 1013 4856 
Q 1481 4119 1714 3412 
Q 1947 2706 1947 2009 
Q 1947 1309 1714 600 
Q 1481 -109 1013 -844 
L 513 -844 
Q 928 -128 1133 580 
Q 1338 1288 1338 2009 
Q 1338 2731 1133 3434 
Q 928 4138 513 4856 
z
" transform="scale(0.015625)"/>
      </defs>
      <use xlink:href="#DejaVuSans-49"/>
      <use xlink:href="#DejaVuSans-6e" x="29.492188"/>
      <use xlink:href="#DejaVuSans-66" x="92.871094"/>
      <use xlink:href="#DejaVuSans-6c" x="128.076172"/>
      <use xlink:href="#DejaVuSans-75" x="155.859375"/>
      <use xlink:href="#DejaVuSans-65" x="219.238281"/>
      <use xlink:href="#DejaVuSans-6e" x="280.761719"/>
      <use xlink:href="#DejaVuSans-63" x="344.140625"/>
      <use xlink:href="#DejaVuSans-65" x="399.121094"/>
      <use xlink:href="#DejaVuSans-20" x="460.644531"/>
      <use xlink:href="#DejaVuSans-6f" x="492.431641"/>
      <use xlink:href="#DejaVuSans-66" x="553.613281"/>
      <use xlink:href="#DejaVuSans-20" x="588.818359"/>
      <use xlink:href="#DejaVuSans-73" x="620.605469"/>
      <use xlink:href="#DejaVuSans-75" x="672.705078"/>
      <use xlink:href="#DejaVuSans-72" x="736.083984"/>
      <use xlink:href="#DejaVuSans-70" x="777.197266"/>
      <use xlink:href="#DejaVuSans-72" x="840.673828"/>
      <use xlink:href="#DejaVuSans-69" x="881.787109"/>
      <use xlink:href="#DejaVuSans-73" x="909.570312"/>
      <use xlink:href="#DejaVuSans-61" x="961.669922"/>
      <use xlink:href="#DejaVuSans-6c" x="1022.949219"/>
      <use xlink:href="#DejaVuSans-20" x="1050.732422"/>
      <use xlink:href="#DejaVuSans-28" x="1082.519531"/>
      <use xlink:href="#DejaVuSans-6d" x="1121.533203"/>
      <use xlink:href="#DejaVuSans-75" x="1218.945312"/>
      <use xlink:href="#DejaVuSans-6c" x="1282.324219"/>
      <use xlink:href="#DejaVuSans-74" x="1310.107422"/>
      <use xlink:href="#DejaVuSans-69" x="1349.316406"/>
      <use xlink:href="#DejaVuSans-70" x="1377.099609"/>
      <use xlink:href="#DejaVuSans-6c" x="1440.576172"/>
      <use xlink:href="#DejaVuSans-69" x="1468.359375"/>
      <use xlink:href="#DejaVuSans-63" x="1496.142578"/>
      <use xlink:href="#DejaVuSans-61" x="1551.123047"/>
      <use xlink:href="#DejaVuSans-74" x="1612.402344"/>
      <use xlink:href="#DejaVuSans-69" x="1651.611328"/>
      <use xlink:href="#DejaVuSans-6f" x="1679.394531"/>
      <use xlink:href="#DejaVuSans-6e" x="1740.576172"/>
      <use xlink:href="#DejaVuSans-29" x="1803.955078"/>
     </g>
    </g>
   </g>
   <g id="matplotlib.axis_2">
    <g id="ytick_1">
     <g id="line2d_6">
      <defs>
       <path id="m25835c6c30" d="M 0 0 
L -3.5 0 
" style="stroke: #000000; stroke-width: 0.8"/>
      </defs>
      <g>
       <use xlink:href="#m25835c6c30" x="47.72" y="152.948099" style="stroke: #000000; stroke-width: 0.8"/>
      </g>
     </g>
     <g id="text_7">
      <!-- 0.2 -->
      <g transform="translate(24.816875 156.747318)scale(0.1 -0.1)">
       <use xlink:href="#DejaVuSans-30"/>
       <use xlink:href="#DejaVuSans-2e" x="63.623047"/>
       <use xlink:href="#DejaVuSans-32" x="95.410156"/>
      </g>
     </g>
    </g>
    <g id="ytick_2">
     <g id="line2d_7">
      <g>
       <use xlink:href="#m25835c6c30" x="47.72" y="121.046993" style="stroke: #000000; stroke-width: 0.8"/>
      </g>
     </g>
     <g id="text_8">
      <!-- 0.4 -->
      <g transform="translate(24.816875 124.846211)scale(0.1 -0.1)">
       <defs>
        <path id="DejaVuSans-34" d="M 2419 4116 
L 825 1625 
L 2419 1625 
L 2419 4116 
z
M 2253 4666 
L 3047 4666 
L 3047 1625 
L 3713 1625 
L 3713 1100 
L 3047 1100 
L 3047 0 
L 2419 0 
L 2419 1100 
L 313 1100 
L 313 1709 
L 2253 4666 
z
" transform="scale(0.015625)"/>
       </defs>
       <use xlink:href="#DejaVuSans-30"/>
       <use xlink:href="#DejaVuSans-2e" x="63.623047"/>
       <use xlink:href="#DejaVuSans-34" x="95.410156"/>
      </g>
     </g>
    </g>
    <g id="ytick_3">
     <g id="line2d_8">
      <g>
       <use xlink:href="#m25835c6c30" x="47.72" y="89.145886" style="stroke: #000000; stroke-width: 0.8"/>
      </g>
     </g>
     <g id="text_9">
      <!-- 0.6 -->
      <g transform="translate(24.816875 92.945105)scale(0.1 -0.1)">
       <defs>
        <path id="DejaVuSans-36" d="M 2113 2584 
Q 1688 2584 1439 2293 
Q 1191 2003 1191 1497 
Q 1191 994 1439 701 
Q 1688 409 2113 409 
Q 2538 409 2786 701 
Q 3034 994 3034 1497 
Q 3034 2003 2786 2293 
Q 2538 2584 2113 2584 
z
M 3366 4563 
L 3366 3988 
Q 3128 4100 2886 4159 
Q 2644 4219 2406 4219 
Q 1781 4219 1451 3797 
Q 1122 3375 1075 2522 
Q 1259 2794 1537 2939 
Q 1816 3084 2150 3084 
Q 2853 3084 3261 2657 
Q 3669 2231 3669 1497 
Q 3669 778 3244 343 
Q 2819 -91 2113 -91 
Q 1303 -91 875 529 
Q 447 1150 447 2328 
Q 447 3434 972 4092 
Q 1497 4750 2381 4750 
Q 2619 4750 2861 4703 
Q 3103 4656 3366 4563 
z
" transform="scale(0.015625)"/>
       </defs>
       <use xlink:href="#DejaVuSans-30"/>
       <use xlink:href="#DejaVuSans-2e" x="63.623047"/>
       <use xlink:href="#DejaVuSans-36" x="95.410156"/>
      </g>
     </g>
    </g>
    <g id="ytick_4">
     <g id="line2d_9">
      <g>
       <use xlink:href="#m25835c6c30" x="47.72" y="57.24478" style="stroke: #000000; stroke-width: 0.8"/>
      </g>
     </g>
     <g id="text_10">
      <!-- 0.8 -->
      <g transform="translate(24.816875 61.043999)scale(0.1 -0.1)">
       <defs>
        <path id="DejaVuSans-38" d="M 2034 2216 
Q 1584 2216 1326 1975 
Q 1069 1734 1069 1313 
Q 1069 891 1326 650 
Q 1584 409 2034 409 
Q 2484 409 2743 651 
Q 3003 894 3003 1313 
Q 3003 1734 2745 1975 
Q 2488 2216 2034 2216 
z
M 1403 2484 
Q 997 2584 770 2862 
Q 544 3141 544 3541 
Q 544 4100 942 4425 
Q 1341 4750 2034 4750 
Q 2731 4750 3128 4425 
Q 3525 4100 3525 3541 
Q 3525 3141 3298 2862 
Q 3072 2584 2669 2484 
Q 3125 2378 3379 2068 
Q 3634 1759 3634 1313 
Q 3634 634 3220 271 
Q 2806 -91 2034 -91 
Q 1263 -91 848 271 
Q 434 634 434 1313 
Q 434 1759 690 2068 
Q 947 2378 1403 2484 
z
M 1172 3481 
Q 1172 3119 1398 2916 
Q 1625 2713 2034 2713 
Q 2441 2713 2670 2916 
Q 2900 3119 2900 3481 
Q 2900 3844 2670 4047 
Q 2441 4250 2034 4250 
Q 1625 4250 1398 4047 
Q 1172 3844 1172 3481 
z
" transform="scale(0.015625)"/>
       </defs>
       <use xlink:href="#DejaVuSans-30"/>
       <use xlink:href="#DejaVuSans-2e" x="63.623047"/>
       <use xlink:href="#DejaVuSans-38" x="95.410156"/>
      </g>
     </g>
    </g>
    <g id="text_11">
     <!-- R-value -->
     <g transform="translate(18.737188 119.064687)rotate(-90)scale(0.1 -0.1)">
      <defs>
       <path id="DejaVuSans-52" d="M 2841 2188 
Q 3044 2119 3236 1894 
Q 3428 1669 3622 1275 
L 4263 0 
L 3584 0 
L 2988 1197 
Q 2756 1666 2539 1819 
Q 2322 1972 1947 1972 
L 1259 1972 
L 1259 0 
L 628 0 
L 628 4666 
L 2053 4666 
Q 2853 4666 3247 4331 
Q 3641 3997 3641 3322 
Q 3641 2881 3436 2590 
Q 3231 2300 2841 2188 
z
M 1259 4147 
L 1259 2491 
L 2053 2491 
Q 2509 2491 2742 2702 
Q 2975 2913 2975 3322 
Q 2975 3731 2742 3939 
Q 2509 4147 2053 4147 
L 1259 4147 
z
" transform="scale(0.015625)"/>
       <path id="DejaVuSans-2d" d="M 313 2009 
L 1997 2009 
L 1997 1497 
L 313 1497 
L 313 2009 
z
" transform="scale(0.015625)"/>
       <path id="DejaVuSans-76" d="M 191 3500 
L 800 3500 
L 1894 563 
L 2988 3500 
L 3597 3500 
L 2284 0 
L 1503 0 
L 191 3500 
z
" transform="scale(0.015625)"/>
      </defs>
      <use xlink:href="#DejaVuSans-52"/>
      <use xlink:href="#DejaVuSans-2d" x="65.482422"/>
      <use xlink:href="#DejaVuSans-76" x="98.941406"/>
      <use xlink:href="#DejaVuSans-61" x="158.121094"/>
      <use xlink:href="#DejaVuSans-6c" x="219.400391"/>
      <use xlink:href="#DejaVuSans-75" x="247.183594"/>
      <use xlink:href="#DejaVuSans-65" x="310.5625"/>
     </g>
    </g>
   </g>
   <g id="line2d_10">
    <path d="M 47.72 34.007769 
L 59.167105 35.816465 
L 70.614211 41.179094 
L 82.061316 47.854179 
L 93.508421 57.103656 
L 104.955526 67.070625 
L 116.402632 77.088 
L 127.849737 86.897375 
L 139.296842 96.470694 
L 150.743947 105.659279 
L 162.191053 113.407439 
L 173.638158 120.528042 
L 185.085263 126.690401 
L 196.532368 131.740296 
L 207.979474 137.296175 
L 219.426579 141.501226 
L 230.873684 145.310359 
L 242.320789 148.968273 
L 253.767895 152.048953 
L 265.215 155.042263 
" clip-path="url(#p850ca6bbd2)" style="fill: none; stroke: #1f77b4; stroke-width: 1.5; stroke-linecap: square"/>
   </g>
   <g id="line2d_11">
    <path d="M 47.72 34.020161 
L 59.167105 35.221268 
L 70.614211 38.36515 
L 82.061316 42.276957 
L 93.508421 48.907407 
L 104.955526 56.38985 
L 116.402632 64.805117 
L 127.849737 73.40439 
L 139.296842 81.997282 
L 150.743947 91.078364 
L 162.191053 99.140753 
L 173.638158 106.858401 
L 185.085263 113.972687 
L 196.532368 119.607398 
L 207.979474 126.148415 
L 219.426579 131.247956 
L 230.873684 135.76388 
L 242.320789 140.581624 
L 253.767895 144.294859 
L 265.215 147.721692 
" clip-path="url(#p850ca6bbd2)" style="fill: none; stroke: #ff7f0e; stroke-width: 1.5; stroke-linecap: square"/>
   </g>
   <g id="line2d_12">
    <path d="M 47.72 34.022508 
L 59.167105 35.425203 
L 70.614211 37.801338 
L 82.061316 40.379528 
L 93.508421 44.316534 
L 104.955526 48.374923 
L 116.402632 52.893875 
L 127.849737 57.761448 
L 139.296842 62.714495 
L 150.743947 67.754929 
L 162.191053 72.730592 
L 173.638158 77.992557 
L 185.085263 82.858401 
L 196.532368 87.342695 
L 207.979474 91.748921 
L 219.426579 95.580438 
L 230.873684 99.833021 
L 242.320789 104.517228 
L 253.767895 107.458932 
L 265.215 111.372376 
" clip-path="url(#p850ca6bbd2)" style="fill: none; stroke: #2ca02c; stroke-width: 1.5; stroke-linecap: square"/>
   </g>
   <g id="line2d_13">
    <path d="M 47.72 34.037076 
L 59.167105 35.16025 
L 70.614211 37.035446 
L 82.061316 38.999237 
L 93.508421 42.617334 
L 104.955526 46.436022 
L 116.402632 51.000064 
L 127.849737 55.925757 
L 139.296842 61.016392 
L 150.743947 66.291838 
L 162.191053 71.371455 
L 173.638158 76.774578 
L 185.085263 81.63666 
L 196.532368 86.187106 
L 207.979474 90.595547 
L 219.426579 94.236106 
L 230.873684 98.289197 
L 242.320789 102.597742 
L 253.767895 105.103901 
L 265.215 108.768857 
" clip-path="url(#p850ca6bbd2)" style="fill: none; stroke: #d62728; stroke-width: 1.5; stroke-linecap: square"/>
   </g>
   <g id="line2d_14">
    <path d="M 47.72 34.02444 
L 59.167105 35.84316 
L 70.614211 41.203755 
L 82.061316 47.857958 
L 93.508421 57.160355 
L 104.955526 66.987081 
L 116.402632 77.326797 
L 127.849737 87.035549 
L 139.296842 96.699529 
L 150.743947 106.11006 
L 162.191053 113.549229 
L 173.638158 120.688075 
L 185.085263 127.076309 
L 196.532368 132.097128 
L 207.979474 137.323243 
L 219.426579 142.167856 
L 230.873684 146.188999 
L 242.320789 148.968329 
L 253.767895 152.729477 
L 265.215 155.877834 
" clip-path="url(#p850ca6bbd2)" style="fill: none; stroke: #9467bd; stroke-width: 1.5; stroke-linecap: square"/>
   </g>
   <g id="line2d_15">
    <path d="M 47.72 34.037204 
L 59.167105 35.238946 
L 70.614211 38.382063 
L 82.061316 42.293512 
L 93.508421 48.930363 
L 104.955526 56.352737 
L 116.402632 64.920307 
L 127.849737 73.491721 
L 139.296842 82.088668 
L 150.743947 91.29903 
L 162.191053 99.19398 
L 173.638158 106.848438 
L 185.085263 114.321222 
L 196.532368 119.86926 
L 207.979474 126.180152 
L 219.426579 131.727617 
L 230.873684 136.386564 
L 242.320789 140.470169 
L 253.767895 144.72291 
L 265.215 148.201645 
" clip-path="url(#p850ca6bbd2)" style="fill: none; stroke: #8c564b; stroke-width: 1.5; stroke-linecap: square"/>
   </g>
   <g id="line2d_16">
    <path d="M 47.72 45.444768 
L 59.167105 47.540359 
L 70.614211 53.556395 
L 82.061316 61.264821 
L 93.508421 70.997503 
L 104.955526 81.895357 
L 116.402632 92.607322 
L 127.849737 102.450488 
L 139.296842 112.113743 
L 150.743947 121.280267 
L 162.191053 128.887923 
L 173.638158 135.291828 
L 185.085263 140.879898 
L 196.532368 145.288599 
L 207.979474 149.806561 
L 219.426579 153.070788 
L 230.873684 156.011149 
L 242.320789 158.502999 
L 253.767895 160.928625 
L 265.215 163.064676 
" clip-path="url(#p850ca6bbd2)" style="fill: none; stroke: #e377c2; stroke-width: 1.5; stroke-linecap: square"/>
   </g>
   <g id="line2d_17">
    <path d="M 47.72 34.029857 
L 59.167105 34.666957 
L 70.614211 35.159117 
L 82.061316 36.55215 
L 93.508421 39.845965 
L 104.955526 44.590531 
L 116.402632 50.794397 
L 127.849737 57.969998 
L 139.296842 65.720209 
L 150.743947 74.417604 
L 162.191053 82.716914 
L 173.638158 91.447131 
L 185.085263 99.595023 
L 196.532368 106.401144 
L 207.979474 113.662194 
L 219.426579 119.618593 
L 230.873684 124.795787 
L 242.320789 130.198242 
L 253.767895 134.080421 
L 265.215 138.381975 
" clip-path="url(#p850ca6bbd2)" style="fill: none; stroke: #7f7f7f; stroke-width: 1.5; stroke-linecap: square"/>
   </g>
   <g id="patch_3">
    <path d="M 47.72 174.04 
L 47.72 26.88 
" style="fill: none; stroke: #000000; stroke-width: 0.8; stroke-linejoin: miter; stroke-linecap: square"/>
   </g>
   <g id="patch_4">
    <path d="M 47.72 174.04 
L 265.215 174.04 
" style="fill: none; stroke: #000000; stroke-width: 0.8; stroke-linejoin: miter; stroke-linecap: square"/>
   </g>
   <g id="text_12">
    <!-- Node * surprisal -->
    <g transform="translate(108.18625 20.88)scale(0.12 -0.12)">
     <defs>
      <path id="DejaVuSans-4e" d="M 628 4666 
L 1478 4666 
L 3547 763 
L 3547 4666 
L 4159 4666 
L 4159 0 
L 3309 0 
L 1241 3903 
L 1241 0 
L 628 0 
L 628 4666 
z
" transform="scale(0.015625)"/>
      <path id="DejaVuSans-64" d="M 2906 2969 
L 2906 4863 
L 3481 4863 
L 3481 0 
L 2906 0 
L 2906 525 
Q 2725 213 2448 61 
Q 2172 -91 1784 -91 
Q 1150 -91 751 415 
Q 353 922 353 1747 
Q 353 2572 751 3078 
Q 1150 3584 1784 3584 
Q 2172 3584 2448 3432 
Q 2725 3281 2906 2969 
z
M 947 1747 
Q 947 1113 1208 752 
Q 1469 391 1925 391 
Q 2381 391 2643 752 
Q 2906 1113 2906 1747 
Q 2906 2381 2643 2742 
Q 2381 3103 1925 3103 
Q 1469 3103 1208 2742 
Q 947 2381 947 1747 
z
" transform="scale(0.015625)"/>
      <path id="DejaVuSans-2a" d="M 3009 3897 
L 1888 3291 
L 3009 2681 
L 2828 2375 
L 1778 3009 
L 1778 1831 
L 1422 1831 
L 1422 3009 
L 372 2375 
L 191 2681 
L 1313 3291 
L 191 3897 
L 372 4206 
L 1422 3572 
L 1422 4750 
L 1778 4750 
L 1778 3572 
L 2828 4206 
L 3009 3897 
z
" transform="scale(0.015625)"/>
     </defs>
     <use xlink:href="#DejaVuSans-4e"/>
     <use xlink:href="#DejaVuSans-6f" x="74.804688"/>
     <use xlink:href="#DejaVuSans-64" x="135.986328"/>
     <use xlink:href="#DejaVuSans-65" x="199.462891"/>
     <use xlink:href="#DejaVuSans-20" x="260.986328"/>
     <use xlink:href="#DejaVuSans-2a" x="292.773438"/>
     <use xlink:href="#DejaVuSans-20" x="342.773438"/>
     <use xlink:href="#DejaVuSans-73" x="374.560547"/>
     <use xlink:href="#DejaVuSans-75" x="426.660156"/>
     <use xlink:href="#DejaVuSans-72" x="490.039062"/>
     <use xlink:href="#DejaVuSans-70" x="531.152344"/>
     <use xlink:href="#DejaVuSans-72" x="594.628906"/>
     <use xlink:href="#DejaVuSans-69" x="635.742188"/>
     <use xlink:href="#DejaVuSans-73" x="663.525391"/>
     <use xlink:href="#DejaVuSans-61" x="715.625"/>
     <use xlink:href="#DejaVuSans-6c" x="776.904297"/>
    </g>
   </g>
  </g>
  <g id="axes_2">
   <g id="patch_5">
    <path d="M 298.065 174.04 
L 515.56 174.04 
L 515.56 26.88 
L 298.065 26.88 
z
" style="fill: #ffffff"/>
   </g>
   <g id="PolyCollection_9">
    <path d="M 298.065 33.569091 
L 298.065 34.231609 
L 309.512105 36.508828 
L 320.959211 42.711155 
L 332.406316 51.123488 
L 343.853421 60.500361 
L 355.300526 71.28248 
L 366.747632 80.947894 
L 378.194737 91.378839 
L 389.641842 101.010135 
L 401.088947 109.803858 
L 412.536053 118.174282 
L 423.983158 124.376736 
L 435.430263 130.59298 
L 446.877368 135.708703 
L 458.324474 140.450716 
L 469.771579 143.694849 
L 481.218684 147.499249 
L 492.665789 150.764128 
L 504.112895 153.401413 
L 515.56 156.592215 
L 515.56 148.581504 
L 515.56 148.581504 
L 504.112895 145.188644 
L 492.665789 142.444716 
L 481.218684 139.052178 
L 469.771579 135.232754 
L 458.324474 130.613682 
L 446.877368 126.347973 
L 435.430263 121.115832 
L 423.983158 114.811749 
L 412.536053 107.591466 
L 401.088947 99.414915 
L 389.641842 91.280892 
L 378.194737 82.22015 
L 366.747632 73.53419 
L 355.300526 63.900978 
L 343.853421 55.472419 
L 332.406316 46.815147 
L 320.959211 40.062686 
L 309.512105 35.567055 
L 298.065 33.569091 
z
" clip-path="url(#p402dd7da7d)" style="fill: #1f77b4; fill-opacity: 0.4"/>
   </g>
   <g id="PolyCollection_10">
    <path d="M 298.065 33.586691 
L 298.065 34.246084 
L 309.512105 36.530637 
L 320.959211 42.726568 
L 332.406316 51.137647 
L 343.853421 60.550236 
L 355.300526 71.339573 
L 366.747632 81.050433 
L 378.194737 91.478583 
L 389.641842 101.180518 
L 401.088947 110.011354 
L 412.536053 118.310917 
L 423.983158 124.482088 
L 435.430263 130.676667 
L 446.877368 135.930109 
L 458.324474 140.621817 
L 469.771579 143.908664 
L 481.218684 147.793688 
L 492.665789 150.993494 
L 504.112895 153.702847 
L 515.56 156.846125 
L 515.56 149.375094 
L 515.56 149.375094 
L 504.112895 145.840089 
L 492.665789 143.051849 
L 481.218684 139.425131 
L 469.771579 135.647163 
L 458.324474 131.086926 
L 446.877368 126.783827 
L 435.430263 121.43631 
L 423.983158 115.096349 
L 412.536053 107.875086 
L 401.088947 99.605212 
L 389.641842 91.362609 
L 378.194737 82.318276 
L 366.747632 73.654395 
L 355.300526 63.976227 
L 343.853421 55.570012 
L 332.406316 46.849262 
L 320.959211 40.097583 
L 309.512105 35.573665 
L 298.065 33.586691 
z
" clip-path="url(#p402dd7da7d)" style="fill: #ff7f0e; fill-opacity: 0.4"/>
   </g>
   <g id="PolyCollection_11">
    <path d="M 298.065 33.578846 
L 298.065 34.244888 
L 309.512105 36.536322 
L 320.959211 42.746332 
L 332.406316 51.181294 
L 343.853421 60.645775 
L 355.300526 71.449777 
L 366.747632 81.231861 
L 378.194737 91.682038 
L 389.641842 101.480004 
L 401.088947 110.346643 
L 412.536053 118.831085 
L 423.983158 125.254284 
L 435.430263 131.553703 
L 446.877368 136.693423 
L 458.324474 141.603833 
L 469.771579 144.896276 
L 481.218684 149.050205 
L 492.665789 152.35565 
L 504.112895 154.875029 
L 515.56 158.180752 
L 515.56 149.870353 
L 515.56 149.870353 
L 504.112895 146.372834 
L 492.665789 143.583162 
L 481.218684 139.896067 
L 469.771579 136.272898 
L 458.324474 131.294438 
L 446.877368 126.935524 
L 435.430263 121.339715 
L 423.983158 115.122498 
L 412.536053 107.855812 
L 401.088947 99.549008 
L 389.641842 91.387501 
L 378.194737 82.320874 
L 366.747632 73.641931 
L 355.300526 63.994888 
L 343.853421 55.553712 
L 332.406316 46.892163 
L 320.959211 40.126139 
L 309.512105 35.597581 
L 298.065 33.578846 
z
" clip-path="url(#p402dd7da7d)" style="fill: #2ca02c; fill-opacity: 0.4"/>
   </g>
   <g id="PolyCollection_12">
    <path d="M 298.065 33.601241 
L 298.065 34.25287 
L 309.512105 36.557029 
L 320.959211 42.747166 
L 332.406316 51.189492 
L 343.853421 60.668201 
L 355.300526 71.472629 
L 366.747632 81.265397 
L 378.194737 91.746913 
L 389.641842 101.51183 
L 401.088947 110.402025 
L 412.536053 118.833829 
L 423.983158 125.21146 
L 435.430263 131.476587 
L 446.877368 136.696162 
L 458.324474 141.64768 
L 469.771579 144.922818 
L 481.218684 149.108518 
L 492.665789 152.538326 
L 504.112895 155.130729 
L 515.56 158.603047 
L 515.56 150.649005 
L 515.56 150.649005 
L 504.112895 147.082902 
L 492.665789 144.173946 
L 481.218684 140.311664 
L 469.771579 136.650139 
L 458.324474 131.678268 
L 446.877368 127.317079 
L 435.430263 121.582011 
L 423.983158 115.26126 
L 412.536053 107.965108 
L 401.088947 99.581517 
L 389.641842 91.359955 
L 378.194737 82.294182 
L 366.747632 73.658173 
L 355.300526 63.97019 
L 343.853421 55.58817 
L 332.406316 46.889638 
L 320.959211 40.141285 
L 309.512105 35.597745 
L 298.065 33.601241 
z
" clip-path="url(#p402dd7da7d)" style="fill: #d62728; fill-opacity: 0.4"/>
   </g>
   <g id="PolyCollection_13">
    <path d="M 298.065 33.582959 
L 298.065 34.250851 
L 309.512105 36.517316 
L 320.959211 42.736543 
L 332.406316 51.134542 
L 343.853421 60.390376 
L 355.300526 71.244815 
L 366.747632 80.929016 
L 378.194737 91.492869 
L 389.641842 101.0208 
L 401.088947 110.386938 
L 412.536053 118.889364 
L 423.983158 124.200363 
L 435.430263 131.104115 
L 446.877368 136.08653 
L 458.324474 140.260571 
L 469.771579 144.238075 
L 481.218684 147.668311 
L 492.665789 151.921738 
L 504.112895 154.248335 
L 515.56 158.321454 
L 515.56 148.480467 
L 515.56 148.480467 
L 504.112895 144.958773 
L 492.665789 143.10498 
L 481.218684 139.246808 
L 469.771579 134.742976 
L 458.324474 130.59043 
L 446.877368 126.16133 
L 435.430263 121.341294 
L 423.983158 115.363955 
L 412.536053 107.995886 
L 401.088947 99.497855 
L 389.641842 91.382403 
L 378.194737 82.207069 
L 366.747632 73.615581 
L 355.300526 64.022619 
L 343.853421 55.548004 
L 332.406316 46.830051 
L 320.959211 40.065717 
L 309.512105 35.593698 
L 298.065 33.582959 
z
" clip-path="url(#p402dd7da7d)" style="fill: #9467bd; fill-opacity: 0.4"/>
   </g>
   <g id="PolyCollection_14">
    <path d="M 298.065 33.60152 
L 298.065 34.265615 
L 309.512105 36.539767 
L 320.959211 42.751071 
L 332.406316 51.150524 
L 343.853421 60.440849 
L 355.300526 71.304531 
L 366.747632 81.032958 
L 378.194737 91.595903 
L 389.641842 101.188834 
L 401.088947 110.600623 
L 412.536053 119.016484 
L 423.983158 124.304104 
L 435.430263 131.217894 
L 446.877368 136.29307 
L 458.324474 140.452334 
L 469.771579 144.492306 
L 481.218684 147.939334 
L 492.665789 152.195658 
L 504.112895 154.494286 
L 515.56 158.592889 
L 515.56 149.222774 
L 515.56 149.222774 
L 504.112895 145.623176 
L 492.665789 143.699078 
L 481.218684 139.615361 
L 469.771579 135.108867 
L 458.324474 131.03491 
L 446.877368 126.619802 
L 435.430263 121.663276 
L 423.983158 115.646796 
L 412.536053 108.282944 
L 401.088947 99.700176 
L 389.641842 91.457989 
L 378.194737 82.30548 
L 366.747632 73.738481 
L 355.300526 64.101604 
L 343.853421 55.637385 
L 332.406316 46.86761 
L 320.959211 40.10359 
L 309.512105 35.603048 
L 298.065 33.60152 
z
" clip-path="url(#p402dd7da7d)" style="fill: #8c564b; fill-opacity: 0.4"/>
   </g>
   <g id="PolyCollection_15">
    <path d="M 298.065 43.904933 
L 298.065 46.815465 
L 309.512105 48.982198 
L 320.959211 54.332667 
L 332.406316 62.14075 
L 343.853421 71.025394 
L 355.300526 80.882317 
L 366.747632 89.866274 
L 378.194737 99.89817 
L 389.641842 109.075857 
L 401.088947 117.493079 
L 412.536053 125.369814 
L 423.983158 131.467197 
L 435.430263 137.322491 
L 446.877368 141.899305 
L 458.324474 146.501366 
L 469.771579 149.716047 
L 481.218684 153.083232 
L 492.665789 155.745696 
L 504.112895 158.389598 
L 515.56 160.947844 
L 515.56 150.660982 
L 515.56 150.660982 
L 504.112895 147.367876 
L 492.665789 145.004067 
L 481.218684 141.998614 
L 469.771579 138.51999 
L 458.324474 134.198552 
L 446.877368 130.63463 
L 435.430263 125.20765 
L 423.983158 119.747028 
L 412.536053 112.943304 
L 401.088947 105.555893 
L 389.641842 97.976906 
L 378.194737 89.6042 
L 366.747632 81.716773 
L 355.300526 72.994462 
L 343.853421 64.183889 
L 332.406316 56.385406 
L 320.959211 50.181819 
L 309.512105 45.728484 
L 298.065 43.904933 
z
" clip-path="url(#p402dd7da7d)" style="fill: #e377c2; fill-opacity: 0.4"/>
   </g>
   <g id="PolyCollection_16">
    <path d="M 298.065 33.596163 
L 298.065 34.251005 
L 309.512105 36.56 
L 320.959211 42.808897 
L 332.406316 51.248251 
L 343.853421 60.78581 
L 355.300526 71.706301 
L 366.747632 81.704064 
L 378.194737 92.284474 
L 389.641842 102.31836 
L 401.088947 111.29197 
L 412.536053 119.812868 
L 423.983158 126.079321 
L 435.430263 132.527657 
L 446.877368 137.566572 
L 458.324474 142.447899 
L 469.771579 145.587771 
L 481.218684 149.3801 
L 492.665789 152.282663 
L 504.112895 154.777981 
L 515.56 157.908391 
L 515.56 149.63708 
L 515.56 149.63708 
L 504.112895 146.004405 
L 492.665789 143.139017 
L 481.218684 139.366541 
L 469.771579 135.571309 
L 458.324474 130.805783 
L 446.877368 126.556665 
L 435.430263 121.037102 
L 423.983158 114.807392 
L 412.536053 107.621957 
L 401.088947 99.319137 
L 389.641842 91.075182 
L 378.194737 82.190302 
L 366.747632 73.619243 
L 355.300526 63.985326 
L 343.853421 55.672285 
L 332.406316 46.912888 
L 320.959211 40.123419 
L 309.512105 35.591056 
L 298.065 33.596163 
z
" clip-path="url(#p402dd7da7d)" style="fill: #7f7f7f; fill-opacity: 0.4"/>
   </g>
   <g id="matplotlib.axis_3">
    <g id="xtick_6">
     <g id="line2d_18">
      <g>
       <use xlink:href="#m552e18c43b" x="298.065" y="174.04" style="stroke: #000000; stroke-width: 0.8"/>
      </g>
     </g>
     <g id="text_13">
      <!-- 0.0 -->
      <g transform="translate(290.113437 188.638438)scale(0.1 -0.1)">
       <use xlink:href="#DejaVuSans-30"/>
       <use xlink:href="#DejaVuSans-2e" x="63.623047"/>
       <use xlink:href="#DejaVuSans-30" x="95.410156"/>
      </g>
     </g>
    </g>
    <g id="xtick_7">
     <g id="line2d_19">
      <g>
       <use xlink:href="#m552e18c43b" x="352.43875" y="174.04" style="stroke: #000000; stroke-width: 0.8"/>
      </g>
     </g>
     <g id="text_14">
      <!-- 0.5 -->
      <g transform="translate(344.487187 188.638438)scale(0.1 -0.1)">
       <use xlink:href="#DejaVuSans-30"/>
       <use xlink:href="#DejaVuSans-2e" x="63.623047"/>
       <use xlink:href="#DejaVuSans-35" x="95.410156"/>
      </g>
     </g>
    </g>
    <g id="xtick_8">
     <g id="line2d_20">
      <g>
       <use xlink:href="#m552e18c43b" x="406.8125" y="174.04" style="stroke: #000000; stroke-width: 0.8"/>
      </g>
     </g>
     <g id="text_15">
      <!-- 1.0 -->
      <g transform="translate(398.860937 188.638438)scale(0.1 -0.1)">
       <use xlink:href="#DejaVuSans-31"/>
       <use xlink:href="#DejaVuSans-2e" x="63.623047"/>
       <use xlink:href="#DejaVuSans-30" x="95.410156"/>
      </g>
     </g>
    </g>
    <g id="xtick_9">
     <g id="line2d_21">
      <g>
       <use xlink:href="#m552e18c43b" x="461.18625" y="174.04" style="stroke: #000000; stroke-width: 0.8"/>
      </g>
     </g>
     <g id="text_16">
      <!-- 1.5 -->
      <g transform="translate(453.234687 188.638438)scale(0.1 -0.1)">
       <use xlink:href="#DejaVuSans-31"/>
       <use xlink:href="#DejaVuSans-2e" x="63.623047"/>
       <use xlink:href="#DejaVuSans-35" x="95.410156"/>
      </g>
     </g>
    </g>
    <g id="xtick_10">
     <g id="line2d_22">
      <g>
       <use xlink:href="#m552e18c43b" x="515.56" y="174.04" style="stroke: #000000; stroke-width: 0.8"/>
      </g>
     </g>
     <g id="text_17">
      <!-- 2.0 -->
      <g transform="translate(507.608437 188.638438)scale(0.1 -0.1)">
       <use xlink:href="#DejaVuSans-32"/>
       <use xlink:href="#DejaVuSans-2e" x="63.623047"/>
       <use xlink:href="#DejaVuSans-30" x="95.410156"/>
      </g>
     </g>
    </g>
    <g id="text_18">
     <!-- Influence of surprisal (multiplication) -->
     <g transform="translate(314.665625 202.316563)scale(0.1 -0.1)">
      <use xlink:href="#DejaVuSans-49"/>
      <use xlink:href="#DejaVuSans-6e" x="29.492188"/>
      <use xlink:href="#DejaVuSans-66" x="92.871094"/>
      <use xlink:href="#DejaVuSans-6c" x="128.076172"/>
      <use xlink:href="#DejaVuSans-75" x="155.859375"/>
      <use xlink:href="#DejaVuSans-65" x="219.238281"/>
      <use xlink:href="#DejaVuSans-6e" x="280.761719"/>
      <use xlink:href="#DejaVuSans-63" x="344.140625"/>
      <use xlink:href="#DejaVuSans-65" x="399.121094"/>
      <use xlink:href="#DejaVuSans-20" x="460.644531"/>
      <use xlink:href="#DejaVuSans-6f" x="492.431641"/>
      <use xlink:href="#DejaVuSans-66" x="553.613281"/>
      <use xlink:href="#DejaVuSans-20" x="588.818359"/>
      <use xlink:href="#DejaVuSans-73" x="620.605469"/>
      <use xlink:href="#DejaVuSans-75" x="672.705078"/>
      <use xlink:href="#DejaVuSans-72" x="736.083984"/>
      <use xlink:href="#DejaVuSans-70" x="777.197266"/>
      <use xlink:href="#DejaVuSans-72" x="840.673828"/>
      <use xlink:href="#DejaVuSans-69" x="881.787109"/>
      <use xlink:href="#DejaVuSans-73" x="909.570312"/>
      <use xlink:href="#DejaVuSans-61" x="961.669922"/>
      <use xlink:href="#DejaVuSans-6c" x="1022.949219"/>
      <use xlink:href="#DejaVuSans-20" x="1050.732422"/>
      <use xlink:href="#DejaVuSans-28" x="1082.519531"/>
      <use xlink:href="#DejaVuSans-6d" x="1121.533203"/>
      <use xlink:href="#DejaVuSans-75" x="1218.945312"/>
      <use xlink:href="#DejaVuSans-6c" x="1282.324219"/>
      <use xlink:href="#DejaVuSans-74" x="1310.107422"/>
      <use xlink:href="#DejaVuSans-69" x="1349.316406"/>
      <use xlink:href="#DejaVuSans-70" x="1377.099609"/>
      <use xlink:href="#DejaVuSans-6c" x="1440.576172"/>
      <use xlink:href="#DejaVuSans-69" x="1468.359375"/>
      <use xlink:href="#DejaVuSans-63" x="1496.142578"/>
      <use xlink:href="#DejaVuSans-61" x="1551.123047"/>
      <use xlink:href="#DejaVuSans-74" x="1612.402344"/>
      <use xlink:href="#DejaVuSans-69" x="1651.611328"/>
      <use xlink:href="#DejaVuSans-6f" x="1679.394531"/>
      <use xlink:href="#DejaVuSans-6e" x="1740.576172"/>
      <use xlink:href="#DejaVuSans-29" x="1803.955078"/>
     </g>
    </g>
   </g>
   <g id="line2d_23">
    <path d="M 298.065 33.90035 
L 309.512105 36.037941 
L 320.959211 41.38692 
L 332.406316 48.969318 
L 343.853421 57.98639 
L 355.300526 67.591729 
L 366.747632 77.241042 
L 378.194737 86.799494 
L 389.641842 96.145514 
L 401.088947 104.609386 
L 412.536053 112.882874 
L 423.983158 119.594242 
L 435.430263 125.854406 
L 446.877368 131.028338 
L 458.324474 135.532199 
L 469.771579 139.463801 
L 481.218684 143.275714 
L 492.665789 146.604422 
L 504.112895 149.295029 
L 515.56 152.586859 
" clip-path="url(#p402dd7da7d)" style="fill: none; stroke: #1f77b4; stroke-width: 1.5; stroke-linecap: square"/>
   </g>
   <g id="line2d_24">
    <path d="M 298.065 33.916387 
L 309.512105 36.052151 
L 320.959211 41.412076 
L 332.406316 48.993455 
L 343.853421 58.060124 
L 355.300526 67.6579 
L 366.747632 77.352414 
L 378.194737 86.898429 
L 389.641842 96.271564 
L 401.088947 104.808283 
L 412.536053 113.093001 
L 423.983158 119.789218 
L 435.430263 126.056488 
L 446.877368 131.356968 
L 458.324474 135.854371 
L 469.771579 139.777914 
L 481.218684 143.60941 
L 492.665789 147.022672 
L 504.112895 149.771468 
L 515.56 153.11061 
" clip-path="url(#p402dd7da7d)" style="fill: none; stroke: #ff7f0e; stroke-width: 1.5; stroke-linecap: square"/>
   </g>
   <g id="line2d_25">
    <path d="M 298.065 33.911867 
L 309.512105 36.066951 
L 320.959211 41.436235 
L 332.406316 49.036729 
L 343.853421 58.099744 
L 355.300526 67.722333 
L 366.747632 77.436896 
L 378.194737 87.001456 
L 389.641842 96.433753 
L 401.088947 104.947825 
L 412.536053 113.343449 
L 423.983158 120.188391 
L 435.430263 126.446709 
L 446.877368 131.814473 
L 458.324474 136.449136 
L 469.771579 140.584587 
L 481.218684 144.473136 
L 492.665789 147.969406 
L 504.112895 150.623932 
L 515.56 154.025552 
" clip-path="url(#p402dd7da7d)" style="fill: none; stroke: #2ca02c; stroke-width: 1.5; stroke-linecap: square"/>
   </g>
   <g id="line2d_26">
    <path d="M 298.065 33.927055 
L 309.512105 36.077387 
L 320.959211 41.444226 
L 332.406316 49.039565 
L 343.853421 58.128186 
L 355.300526 67.721409 
L 366.747632 77.461785 
L 378.194737 87.020548 
L 389.641842 96.435892 
L 401.088947 104.991771 
L 412.536053 113.399469 
L 423.983158 120.23636 
L 435.430263 126.529299 
L 446.877368 132.006621 
L 458.324474 136.662974 
L 469.771579 140.786478 
L 481.218684 144.710091 
L 492.665789 148.356136 
L 504.112895 151.106816 
L 515.56 154.626026 
" clip-path="url(#p402dd7da7d)" style="fill: none; stroke: #d62728; stroke-width: 1.5; stroke-linecap: square"/>
   </g>
   <g id="line2d_27">
    <path d="M 298.065 33.916905 
L 309.512105 36.055507 
L 320.959211 41.40113 
L 332.406316 48.982296 
L 343.853421 57.96919 
L 355.300526 67.633717 
L 366.747632 77.272299 
L 378.194737 86.849969 
L 389.641842 96.201602 
L 401.088947 104.942397 
L 412.536053 113.442625 
L 423.983158 119.782159 
L 435.430263 126.222704 
L 446.877368 131.12393 
L 458.324474 135.4255 
L 469.771579 139.490525 
L 481.218684 143.457559 
L 492.665789 147.513359 
L 504.112895 149.603554 
L 515.56 153.40096 
" clip-path="url(#p402dd7da7d)" style="fill: none; stroke: #9467bd; stroke-width: 1.5; stroke-linecap: square"/>
   </g>
   <g id="line2d_28">
    <path d="M 298.065 33.933567 
L 309.512105 36.071407 
L 320.959211 41.42733 
L 332.406316 49.009067 
L 343.853421 58.039117 
L 355.300526 67.703067 
L 366.747632 77.385719 
L 378.194737 86.950692 
L 389.641842 96.323411 
L 401.088947 105.150399 
L 412.536053 113.649714 
L 423.983158 119.97545 
L 435.430263 126.440585 
L 446.877368 131.456436 
L 458.324474 135.743622 
L 469.771579 139.800587 
L 481.218684 143.777348 
L 492.665789 147.947368 
L 504.112895 150.058731 
L 515.56 153.907832 
" clip-path="url(#p402dd7da7d)" style="fill: none; stroke: #8c564b; stroke-width: 1.5; stroke-linecap: square"/>
   </g>
   <g id="line2d_29">
    <path d="M 298.065 45.360199 
L 309.512105 47.355341 
L 320.959211 52.257243 
L 332.406316 59.263078 
L 343.853421 67.604642 
L 355.300526 76.938389 
L 366.747632 85.791523 
L 378.194737 94.751185 
L 389.641842 103.526381 
L 401.088947 111.524486 
L 412.536053 119.156559 
L 423.983158 125.607112 
L 435.430263 131.265071 
L 446.877368 136.266967 
L 458.324474 140.349959 
L 469.771579 144.118018 
L 481.218684 147.540923 
L 492.665789 150.374881 
L 504.112895 152.878737 
L 515.56 155.804413 
" clip-path="url(#p402dd7da7d)" style="fill: none; stroke: #e377c2; stroke-width: 1.5; stroke-linecap: square"/>
   </g>
   <g id="line2d_30">
    <path d="M 298.065 33.923584 
L 309.512105 36.075528 
L 320.959211 41.466158 
L 332.406316 49.080569 
L 343.853421 58.229047 
L 355.300526 67.845813 
L 366.747632 77.661654 
L 378.194737 87.237388 
L 389.641842 96.696771 
L 401.088947 105.305554 
L 412.536053 113.717413 
L 423.983158 120.443357 
L 435.430263 126.78238 
L 446.877368 132.061618 
L 458.324474 136.626841 
L 469.771579 140.57954 
L 481.218684 144.37332 
L 492.665789 147.71084 
L 504.112895 150.391193 
L 515.56 153.772735 
" clip-path="url(#p402dd7da7d)" style="fill: none; stroke: #7f7f7f; stroke-width: 1.5; stroke-linecap: square"/>
   </g>
   <g id="patch_6">
    <path d="M 298.065 174.04 
L 298.065 26.88 
" style="fill: none; stroke: #000000; stroke-width: 0.8; stroke-linejoin: miter; stroke-linecap: square"/>
   </g>
   <g id="patch_7">
    <path d="M 298.065 174.04 
L 515.56 174.04 
" style="fill: none; stroke: #000000; stroke-width: 0.8; stroke-linejoin: miter; stroke-linecap: square"/>
   </g>
   <g id="text_19">
    <!-- Node * third variable -->
    <g transform="translate(344.2325 20.88)scale(0.12 -0.12)">
     <defs>
      <path id="DejaVuSans-68" d="M 3513 2113 
L 3513 0 
L 2938 0 
L 2938 2094 
Q 2938 2591 2744 2837 
Q 2550 3084 2163 3084 
Q 1697 3084 1428 2787 
Q 1159 2491 1159 1978 
L 1159 0 
L 581 0 
L 581 4863 
L 1159 4863 
L 1159 2956 
Q 1366 3272 1645 3428 
Q 1925 3584 2291 3584 
Q 2894 3584 3203 3211 
Q 3513 2838 3513 2113 
z
" transform="scale(0.015625)"/>
      <path id="DejaVuSans-62" d="M 3116 1747 
Q 3116 2381 2855 2742 
Q 2594 3103 2138 3103 
Q 1681 3103 1420 2742 
Q 1159 2381 1159 1747 
Q 1159 1113 1420 752 
Q 1681 391 2138 391 
Q 2594 391 2855 752 
Q 3116 1113 3116 1747 
z
M 1159 2969 
Q 1341 3281 1617 3432 
Q 1894 3584 2278 3584 
Q 2916 3584 3314 3078 
Q 3713 2572 3713 1747 
Q 3713 922 3314 415 
Q 2916 -91 2278 -91 
Q 1894 -91 1617 61 
Q 1341 213 1159 525 
L 1159 0 
L 581 0 
L 581 4863 
L 1159 4863 
L 1159 2969 
z
" transform="scale(0.015625)"/>
     </defs>
     <use xlink:href="#DejaVuSans-4e"/>
     <use xlink:href="#DejaVuSans-6f" x="74.804688"/>
     <use xlink:href="#DejaVuSans-64" x="135.986328"/>
     <use xlink:href="#DejaVuSans-65" x="199.462891"/>
     <use xlink:href="#DejaVuSans-20" x="260.986328"/>
     <use xlink:href="#DejaVuSans-2a" x="292.773438"/>
     <use xlink:href="#DejaVuSans-20" x="342.773438"/>
     <use xlink:href="#DejaVuSans-74" x="374.560547"/>
     <use xlink:href="#DejaVuSans-68" x="413.769531"/>
     <use xlink:href="#DejaVuSans-69" x="477.148438"/>
     <use xlink:href="#DejaVuSans-72" x="504.931641"/>
     <use xlink:href="#DejaVuSans-64" x="544.294922"/>
     <use xlink:href="#DejaVuSans-20" x="607.771484"/>
     <use xlink:href="#DejaVuSans-76" x="639.558594"/>
     <use xlink:href="#DejaVuSans-61" x="698.738281"/>
     <use xlink:href="#DejaVuSans-72" x="760.017578"/>
     <use xlink:href="#DejaVuSans-69" x="801.130859"/>
     <use xlink:href="#DejaVuSans-61" x="828.914062"/>
     <use xlink:href="#DejaVuSans-62" x="890.193359"/>
     <use xlink:href="#DejaVuSans-6c" x="953.669922"/>
     <use xlink:href="#DejaVuSans-65" x="981.453125"/>
    </g>
   </g>
   <g id="legend_1">
    <g id="line2d_31">
     <path d="M 524.56 39.978437 
L 534.56 39.978437 
L 544.56 39.978437 
" style="fill: none; stroke: #1f77b4; stroke-width: 1.5; stroke-linecap: square"/>
    </g>
    <g id="text_20">
     <!-- Node -->
     <g transform="translate(552.56 43.478437)scale(0.1 -0.1)">
      <use xlink:href="#DejaVuSans-4e"/>
      <use xlink:href="#DejaVuSans-6f" x="74.804688"/>
      <use xlink:href="#DejaVuSans-64" x="135.986328"/>
      <use xlink:href="#DejaVuSans-65" x="199.462891"/>
     </g>
    </g>
    <g id="line2d_32">
     <path d="M 524.56 54.656563 
L 534.56 54.656563 
L 544.56 54.656563 
" style="fill: none; stroke: #ff7f0e; stroke-width: 1.5; stroke-linecap: square"/>
    </g>
    <g id="text_21">
     <!-- Node + surprisal -->
     <g transform="translate(552.56 58.156563)scale(0.1 -0.1)">
      <defs>
       <path id="DejaVuSans-2b" d="M 2944 4013 
L 2944 2272 
L 4684 2272 
L 4684 1741 
L 2944 1741 
L 2944 0 
L 2419 0 
L 2419 1741 
L 678 1741 
L 678 2272 
L 2419 2272 
L 2419 4013 
L 2944 4013 
z
" transform="scale(0.015625)"/>
      </defs>
      <use xlink:href="#DejaVuSans-4e"/>
      <use xlink:href="#DejaVuSans-6f" x="74.804688"/>
      <use xlink:href="#DejaVuSans-64" x="135.986328"/>
      <use xlink:href="#DejaVuSans-65" x="199.462891"/>
      <use xlink:href="#DejaVuSans-20" x="260.986328"/>
      <use xlink:href="#DejaVuSans-2b" x="292.773438"/>
      <use xlink:href="#DejaVuSans-20" x="376.5625"/>
      <use xlink:href="#DejaVuSans-73" x="408.349609"/>
      <use xlink:href="#DejaVuSans-75" x="460.449219"/>
      <use xlink:href="#DejaVuSans-72" x="523.828125"/>
      <use xlink:href="#DejaVuSans-70" x="564.941406"/>
      <use xlink:href="#DejaVuSans-72" x="628.417969"/>
      <use xlink:href="#DejaVuSans-69" x="669.53125"/>
      <use xlink:href="#DejaVuSans-73" x="697.314453"/>
      <use xlink:href="#DejaVuSans-61" x="749.414062"/>
      <use xlink:href="#DejaVuSans-6c" x="810.693359"/>
     </g>
    </g>
    <g id="line2d_33">
     <path d="M 524.56 69.334687 
L 534.56 69.334687 
L 544.56 69.334687 
" style="fill: none; stroke: #2ca02c; stroke-width: 1.5; stroke-linecap: square"/>
    </g>
    <g id="text_22">
     <!-- Node split -->
     <g transform="translate(552.56 72.834687)scale(0.1 -0.1)">
      <use xlink:href="#DejaVuSans-4e"/>
      <use xlink:href="#DejaVuSans-6f" x="74.804688"/>
      <use xlink:href="#DejaVuSans-64" x="135.986328"/>
      <use xlink:href="#DejaVuSans-65" x="199.462891"/>
      <use xlink:href="#DejaVuSans-20" x="260.986328"/>
      <use xlink:href="#DejaVuSans-73" x="292.773438"/>
      <use xlink:href="#DejaVuSans-70" x="344.873047"/>
      <use xlink:href="#DejaVuSans-6c" x="408.349609"/>
      <use xlink:href="#DejaVuSans-69" x="436.132812"/>
      <use xlink:href="#DejaVuSans-74" x="463.916016"/>
     </g>
    </g>
    <g id="line2d_34">
     <path d="M 524.56 84.012812 
L 534.56 84.012812 
L 544.56 84.012812 
" style="fill: none; stroke: #d62728; stroke-width: 1.5; stroke-linecap: square"/>
    </g>
    <g id="text_23">
     <!-- Node split + surprisal -->
     <g transform="translate(552.56 87.512812)scale(0.1 -0.1)">
      <use xlink:href="#DejaVuSans-4e"/>
      <use xlink:href="#DejaVuSans-6f" x="74.804688"/>
      <use xlink:href="#DejaVuSans-64" x="135.986328"/>
      <use xlink:href="#DejaVuSans-65" x="199.462891"/>
      <use xlink:href="#DejaVuSans-20" x="260.986328"/>
      <use xlink:href="#DejaVuSans-73" x="292.773438"/>
      <use xlink:href="#DejaVuSans-70" x="344.873047"/>
      <use xlink:href="#DejaVuSans-6c" x="408.349609"/>
      <use xlink:href="#DejaVuSans-69" x="436.132812"/>
      <use xlink:href="#DejaVuSans-74" x="463.916016"/>
      <use xlink:href="#DejaVuSans-20" x="503.125"/>
      <use xlink:href="#DejaVuSans-2b" x="534.912109"/>
      <use xlink:href="#DejaVuSans-20" x="618.701172"/>
      <use xlink:href="#DejaVuSans-73" x="650.488281"/>
      <use xlink:href="#DejaVuSans-75" x="702.587891"/>
      <use xlink:href="#DejaVuSans-72" x="765.966797"/>
      <use xlink:href="#DejaVuSans-70" x="807.080078"/>
      <use xlink:href="#DejaVuSans-72" x="870.556641"/>
      <use xlink:href="#DejaVuSans-69" x="911.669922"/>
      <use xlink:href="#DejaVuSans-73" x="939.453125"/>
      <use xlink:href="#DejaVuSans-61" x="991.552734"/>
      <use xlink:href="#DejaVuSans-6c" x="1052.832031"/>
     </g>
    </g>
    <g id="line2d_35">
     <path d="M 524.56 98.690937 
L 534.56 98.690937 
L 544.56 98.690937 
" style="fill: none; stroke: #9467bd; stroke-width: 1.5; stroke-linecap: square"/>
    </g>
    <g id="text_24">
     <!-- Node random split -->
     <g transform="translate(552.56 102.190937)scale(0.1 -0.1)">
      <use xlink:href="#DejaVuSans-4e"/>
      <use xlink:href="#DejaVuSans-6f" x="74.804688"/>
      <use xlink:href="#DejaVuSans-64" x="135.986328"/>
      <use xlink:href="#DejaVuSans-65" x="199.462891"/>
      <use xlink:href="#DejaVuSans-20" x="260.986328"/>
      <use xlink:href="#DejaVuSans-72" x="292.773438"/>
      <use xlink:href="#DejaVuSans-61" x="333.886719"/>
      <use xlink:href="#DejaVuSans-6e" x="395.166016"/>
      <use xlink:href="#DejaVuSans-64" x="458.544922"/>
      <use xlink:href="#DejaVuSans-6f" x="522.021484"/>
      <use xlink:href="#DejaVuSans-6d" x="583.203125"/>
      <use xlink:href="#DejaVuSans-20" x="680.615234"/>
      <use xlink:href="#DejaVuSans-73" x="712.402344"/>
      <use xlink:href="#DejaVuSans-70" x="764.501953"/>
      <use xlink:href="#DejaVuSans-6c" x="827.978516"/>
      <use xlink:href="#DejaVuSans-69" x="855.761719"/>
      <use xlink:href="#DejaVuSans-74" x="883.544922"/>
     </g>
    </g>
    <g id="line2d_36">
     <path d="M 524.56 113.369062 
L 534.56 113.369062 
L 544.56 113.369062 
" style="fill: none; stroke: #8c564b; stroke-width: 1.5; stroke-linecap: square"/>
    </g>
    <g id="text_25">
     <!-- Node random split + surprisal -->
     <g transform="translate(552.56 116.869062)scale(0.1 -0.1)">
      <use xlink:href="#DejaVuSans-4e"/>
      <use xlink:href="#DejaVuSans-6f" x="74.804688"/>
      <use xlink:href="#DejaVuSans-64" x="135.986328"/>
      <use xlink:href="#DejaVuSans-65" x="199.462891"/>
      <use xlink:href="#DejaVuSans-20" x="260.986328"/>
      <use xlink:href="#DejaVuSans-72" x="292.773438"/>
      <use xlink:href="#DejaVuSans-61" x="333.886719"/>
      <use xlink:href="#DejaVuSans-6e" x="395.166016"/>
      <use xlink:href="#DejaVuSans-64" x="458.544922"/>
      <use xlink:href="#DejaVuSans-6f" x="522.021484"/>
      <use xlink:href="#DejaVuSans-6d" x="583.203125"/>
      <use xlink:href="#DejaVuSans-20" x="680.615234"/>
      <use xlink:href="#DejaVuSans-73" x="712.402344"/>
      <use xlink:href="#DejaVuSans-70" x="764.501953"/>
      <use xlink:href="#DejaVuSans-6c" x="827.978516"/>
      <use xlink:href="#DejaVuSans-69" x="855.761719"/>
      <use xlink:href="#DejaVuSans-74" x="883.544922"/>
      <use xlink:href="#DejaVuSans-20" x="922.753906"/>
      <use xlink:href="#DejaVuSans-2b" x="954.541016"/>
      <use xlink:href="#DejaVuSans-20" x="1038.330078"/>
      <use xlink:href="#DejaVuSans-73" x="1070.117188"/>
      <use xlink:href="#DejaVuSans-75" x="1122.216797"/>
      <use xlink:href="#DejaVuSans-72" x="1185.595703"/>
      <use xlink:href="#DejaVuSans-70" x="1226.708984"/>
      <use xlink:href="#DejaVuSans-72" x="1290.185547"/>
      <use xlink:href="#DejaVuSans-69" x="1331.298828"/>
      <use xlink:href="#DejaVuSans-73" x="1359.082031"/>
      <use xlink:href="#DejaVuSans-61" x="1411.181641"/>
      <use xlink:href="#DejaVuSans-6c" x="1472.460938"/>
     </g>
    </g>
    <g id="line2d_37">
     <path d="M 524.56 128.047187 
L 534.56 128.047187 
L 544.56 128.047187 
" style="fill: none; stroke: #e377c2; stroke-width: 1.5; stroke-linecap: square"/>
    </g>
    <g id="text_26">
     <!-- Interaction -->
     <g transform="translate(552.56 131.547187)scale(0.1 -0.1)">
      <use xlink:href="#DejaVuSans-49"/>
      <use xlink:href="#DejaVuSans-6e" x="29.492188"/>
      <use xlink:href="#DejaVuSans-74" x="92.871094"/>
      <use xlink:href="#DejaVuSans-65" x="132.080078"/>
      <use xlink:href="#DejaVuSans-72" x="193.603516"/>
      <use xlink:href="#DejaVuSans-61" x="234.716797"/>
      <use xlink:href="#DejaVuSans-63" x="295.996094"/>
      <use xlink:href="#DejaVuSans-74" x="350.976562"/>
      <use xlink:href="#DejaVuSans-69" x="390.185547"/>
      <use xlink:href="#DejaVuSans-6f" x="417.96875"/>
      <use xlink:href="#DejaVuSans-6e" x="479.150391"/>
     </g>
    </g>
    <g id="line2d_38">
     <path d="M 524.56 142.725312 
L 534.56 142.725312 
L 544.56 142.725312 
" style="fill: none; stroke: #7f7f7f; stroke-width: 1.5; stroke-linecap: square"/>
    </g>
    <g id="text_27">
     <!-- Node + surprisal + interaction -->
     <g transform="translate(552.56 146.225312)scale(0.1 -0.1)">
      <use xlink:href="#DejaVuSans-4e"/>
      <use xlink:href="#DejaVuSans-6f" x="74.804688"/>
      <use xlink:href="#DejaVuSans-64" x="135.986328"/>
      <use xlink:href="#DejaVuSans-65" x="199.462891"/>
      <use xlink:href="#DejaVuSans-20" x="260.986328"/>
      <use xlink:href="#DejaVuSans-2b" x="292.773438"/>
      <use xlink:href="#DejaVuSans-20" x="376.5625"/>
      <use xlink:href="#DejaVuSans-73" x="408.349609"/>
      <use xlink:href="#DejaVuSans-75" x="460.449219"/>
      <use xlink:href="#DejaVuSans-72" x="523.828125"/>
      <use xlink:href="#DejaVuSans-70" x="564.941406"/>
      <use xlink:href="#DejaVuSans-72" x="628.417969"/>
      <use xlink:href="#DejaVuSans-69" x="669.53125"/>
      <use xlink:href="#DejaVuSans-73" x="697.314453"/>
      <use xlink:href="#DejaVuSans-61" x="749.414062"/>
      <use xlink:href="#DejaVuSans-6c" x="810.693359"/>
      <use xlink:href="#DejaVuSans-20" x="838.476562"/>
      <use xlink:href="#DejaVuSans-2b" x="870.263672"/>
      <use xlink:href="#DejaVuSans-20" x="954.052734"/>
      <use xlink:href="#DejaVuSans-69" x="985.839844"/>
      <use xlink:href="#DejaVuSans-6e" x="1013.623047"/>
      <use xlink:href="#DejaVuSans-74" x="1077.001953"/>
      <use xlink:href="#DejaVuSans-65" x="1116.210938"/>
      <use xlink:href="#DejaVuSans-72" x="1177.734375"/>
      <use xlink:href="#DejaVuSans-61" x="1218.847656"/>
      <use xlink:href="#DejaVuSans-63" x="1280.126953"/>
      <use xlink:href="#DejaVuSans-74" x="1335.107422"/>
      <use xlink:href="#DejaVuSans-69" x="1374.316406"/>
      <use xlink:href="#DejaVuSans-6f" x="1402.099609"/>
      <use xlink:href="#DejaVuSans-6e" x="1463.28125"/>
     </g>
    </g>
   </g>
  </g>
 </g>
 <defs>
  <clipPath id="p850ca6bbd2">
   <rect x="47.72" y="26.88" width="217.495" height="147.16"/>
  </clipPath>
  <clipPath id="p402dd7da7d">
   <rect x="298.065" y="26.88" width="217.495" height="147.16"/>
  </clipPath>
 </defs>
</svg>
