<?xml version="1.0" encoding="utf-8" standalone="no"?>
<!DOCTYPE svg PUBLIC "-//W3C//DTD SVG 1.1//EN"
  "http://www.w3.org/Graphics/SVG/1.1/DTD/svg11.dtd">
<svg xmlns:xlink="http://www.w3.org/1999/xlink" width="720pt" height="216pt" viewBox="0 0 720 216" xmlns="http://www.w3.org/2000/svg" version="1.1">
 <metadata>
  <rdf:RDF xmlns:dc="http://purl.org/dc/elements/1.1/" xmlns:cc="http://creativecommons.org/ns#" xmlns:rdf="http://www.w3.org/1999/02/22-rdf-syntax-ns#">
   <cc:Work>
    <dc:type rdf:resource="http://purl.org/dc/dcmitype/StillImage"/>
    <dc:date>2024-01-15T23:50:21.645780</dc:date>
    <dc:format>image/svg+xml</dc:format>
    <dc:creator>
     <cc:Agent>
      <dc:title>Matplotlib v3.5.1, https://matplotlib.org/</dc:title>
     </cc:Agent>
    </dc:creator>
   </cc:Work>
  </rdf:RDF>
 </metadata>
 <defs>
  <style type="text/css">*{stroke-linejoin: round; stroke-linecap: butt}</style>
 </defs>
 <g id="figure_1">
  <g id="patch_1">
   <path d="M 0 216 
L 720 216 
L 720 0 
L 0 0 
z
" style="fill: #ffffff"/>
  </g>
  <g id="axes_1">
   <g id="patch_2">
    <path d="M 47.72 174.04 
L 265.215 174.04 
L 265.215 26.88 
L 47.72 26.88 
z
" style="fill: #ffffff"/>
   </g>
   <g id="PolyCollection_1">
    <path d="M 47.72 33.569091 
L 47.72 34.412069 
L 59.167105 36.681634 
L 70.614211 42.868453 
L 82.061316 50.791927 
L 93.508421 60.763215 
L 104.955526 70.718575 
L 116.402632 81.104479 
L 127.849737 91.243375 
L 139.296842 100.164273 
L 150.743947 109.328481 
L 162.191053 116.322614 
L 173.638158 123.363262 
L 185.085263 129.15479 
L 196.532368 134.526152 
L 207.979474 139.766972 
L 219.426579 144.303703 
L 230.873684 147.260405 
L 242.320789 151.289996 
L 253.767895 155.248504 
L 265.215 158.189141 
L 265.215 149.468697 
L 265.215 149.468697 
L 253.767895 146.707288 
L 242.320789 143.58721 
L 230.873684 139.655004 
L 219.426579 135.896018 
L 207.979474 131.381508 
L 196.532368 126.773537 
L 185.085263 121.206328 
L 173.638158 114.072017 
L 162.191053 108.155316 
L 150.743947 100.813447 
L 139.296842 92.674162 
L 127.849737 82.991683 
L 116.402632 73.324688 
L 104.955526 64.132874 
L 93.508421 55.477036 
L 82.061316 46.466307 
L 70.614211 40.12048 
L 59.167105 35.271041 
L 47.72 33.569091 
z
" clip-path="url(#p3e22377747)" style="fill: #1f77b4; fill-opacity: 0.4"/>
   </g>
   <g id="PolyCollection_2">
    <path d="M 47.72 33.572815 
L 47.72 34.432073 
L 59.167105 35.961523 
L 70.614211 39.510349 
L 82.061316 44.704707 
L 93.508421 52.102464 
L 104.955526 60.008202 
L 116.402632 68.517514 
L 127.849737 77.893222 
L 139.296842 86.226578 
L 150.743947 95.226377 
L 162.191053 102.232229 
L 173.638158 109.43964 
L 185.085263 115.807717 
L 196.532368 121.753471 
L 207.979474 128.293823 
L 219.426579 133.648724 
L 230.873684 137.499736 
L 242.320789 142.310958 
L 253.767895 146.620121 
L 265.215 150.547866 
L 265.215 142.226602 
L 265.215 142.226602 
L 253.767895 138.602897 
L 242.320789 134.71175 
L 230.873684 130.475453 
L 219.426579 125.912263 
L 207.979474 120.879337 
L 196.532368 115.362541 
L 185.085263 108.499554 
L 173.638158 101.24137 
L 162.191053 94.69722 
L 150.743947 85.45052 
L 139.296842 77.615127 
L 127.849737 68.711006 
L 116.402632 60.176108 
L 104.955526 52.44998 
L 93.508421 46.280006 
L 82.061316 40.604684 
L 70.614211 37.347071 
L 59.167105 34.701859 
L 47.72 33.572815 
z
" clip-path="url(#p3e22377747)" style="fill: #ff7f0e; fill-opacity: 0.4"/>
   </g>
   <g id="PolyCollection_3">
    <path d="M 47.72 33.578938 
L 47.72 34.421944 
L 59.167105 36.211034 
L 70.614211 39.126157 
L 82.061316 42.881797 
L 93.508421 47.477468 
L 104.955526 52.146618 
L 116.402632 57.325581 
L 127.849737 62.540785 
L 139.296842 67.453589 
L 150.743947 71.788097 
L 162.191053 77.151227 
L 173.638158 81.805709 
L 185.085263 86.334796 
L 196.532368 90.527566 
L 207.979474 94.878516 
L 219.426579 99.759336 
L 230.873684 102.709915 
L 242.320789 107.343135 
L 253.767895 110.355367 
L 265.215 114.525318 
L 265.215 108.830589 
L 265.215 108.830589 
L 253.767895 105.038425 
L 242.320789 101.307762 
L 230.873684 97.293226 
L 219.426579 93.326936 
L 207.979474 89.655199 
L 196.532368 85.165303 
L 185.085263 80.824981 
L 173.638158 75.604844 
L 162.191053 71.290933 
L 150.743947 66.489184 
L 139.296842 61.772884 
L 127.849737 56.759194 
L 116.402632 52.172512 
L 104.955526 47.843648 
L 93.508421 43.83863 
L 82.061316 39.896907 
L 70.614211 37.402112 
L 59.167105 34.951333 
L 47.72 33.578938 
z
" clip-path="url(#p3e22377747)" style="fill: #2ca02c; fill-opacity: 0.4"/>
   </g>
   <g id="PolyCollection_4">
    <path d="M 47.72 33.593951 
L 47.72 34.440592 
L 59.167105 35.878311 
L 70.614211 38.107562 
L 82.061316 41.162726 
L 93.508421 45.501431 
L 104.955526 49.995725 
L 116.402632 54.592064 
L 127.849737 60.198814 
L 139.296842 65.192759 
L 150.743947 70.092568 
L 162.191053 75.463404 
L 173.638158 80.392809 
L 185.085263 85.060806 
L 196.532368 89.403167 
L 207.979474 93.568798 
L 219.426579 98.235518 
L 230.873684 101.301715 
L 242.320789 105.829828 
L 253.767895 108.732926 
L 265.215 112.624963 
L 265.215 106.433646 
L 265.215 106.433646 
L 253.767895 103.054571 
L 242.320789 99.514732 
L 230.873684 95.563982 
L 219.426579 92.014688 
L 207.979474 88.305126 
L 196.532368 83.745932 
L 185.085263 79.472548 
L 173.638158 73.993437 
L 162.191053 69.6387 
L 150.743947 64.394052 
L 139.296842 59.506773 
L 127.849737 54.322881 
L 116.402632 49.668928 
L 104.955526 45.075932 
L 93.508421 41.488614 
L 82.061316 38.254677 
L 70.614211 36.482906 
L 59.167105 34.671066 
L 47.72 33.593951 
z
" clip-path="url(#p3e22377747)" style="fill: #d62728; fill-opacity: 0.4"/>
   </g>
   <g id="PolyCollection_5">
    <path d="M 47.72 33.586694 
L 47.72 34.426857 
L 59.167105 36.694942 
L 70.614211 42.867135 
L 82.061316 50.805762 
L 93.508421 60.783107 
L 104.955526 70.848001 
L 116.402632 81.317219 
L 127.849737 91.184175 
L 139.296842 100.528605 
L 150.743947 109.740474 
L 162.191053 117.202841 
L 173.638158 123.645943 
L 185.085263 129.461053 
L 196.532368 134.808674 
L 207.979474 140.179515 
L 219.426579 144.085847 
L 230.873684 148.302371 
L 242.320789 152.380349 
L 253.767895 155.625373 
L 265.215 159.180479 
L 265.215 149.368031 
L 265.215 149.368031 
L 253.767895 147.392718 
L 242.320789 143.670963 
L 230.873684 140.022425 
L 219.426579 135.949201 
L 207.979474 131.013184 
L 196.532368 127.12777 
L 185.085263 121.753708 
L 173.638158 114.394211 
L 162.191053 108.455592 
L 150.743947 101.467266 
L 139.296842 92.708587 
L 127.849737 83.282648 
L 116.402632 73.573098 
L 104.955526 64.106856 
L 93.508421 55.558526 
L 82.061316 46.521422 
L 70.614211 40.10309 
L 59.167105 35.288125 
L 47.72 33.586694 
z
" clip-path="url(#p3e22377747)" style="fill: #9467bd; fill-opacity: 0.4"/>
   </g>
   <g id="PolyCollection_6">
    <path d="M 47.72 33.590208 
L 47.72 34.448437 
L 59.167105 35.973332 
L 70.614211 39.513294 
L 82.061316 44.732523 
L 93.508421 52.120687 
L 104.955526 60.035456 
L 116.402632 68.627005 
L 127.849737 77.886795 
L 139.296842 86.280453 
L 150.743947 95.428993 
L 162.191053 102.872217 
L 173.638158 109.717019 
L 185.085263 116.063304 
L 196.532368 122.008527 
L 207.979474 128.572602 
L 219.426579 133.545104 
L 230.873684 138.390276 
L 242.320789 142.945088 
L 253.767895 147.122794 
L 265.215 151.0954 
L 265.215 142.278936 
L 265.215 142.278936 
L 253.767895 138.938798 
L 242.320789 135.016233 
L 230.873684 130.780121 
L 219.426579 125.796689 
L 207.979474 120.850128 
L 196.532368 115.388138 
L 185.085263 108.823134 
L 173.638158 101.508475 
L 162.191053 94.806986 
L 150.743947 85.749709 
L 139.296842 77.810348 
L 127.849737 68.88586 
L 116.402632 60.38182 
L 104.955526 52.472605 
L 93.508421 46.354241 
L 82.061316 40.654154 
L 70.614211 37.353226 
L 59.167105 34.710469 
L 47.72 33.590208 
z
" clip-path="url(#p3e22377747)" style="fill: #8c564b; fill-opacity: 0.4"/>
   </g>
   <g id="PolyCollection_7">
    <path d="M 47.72 44.187112 
L 47.72 47.668899 
L 59.167105 50.473091 
L 70.614211 58.200401 
L 82.061316 68.539838 
L 93.508421 80.602485 
L 104.955526 91.598379 
L 116.402632 103.35653 
L 127.849737 113.837061 
L 139.296842 122.585579 
L 150.743947 130.530905 
L 162.191053 136.807713 
L 173.638158 142.397613 
L 185.085263 147.594968 
L 196.532368 151.280803 
L 207.979474 155.004255 
L 219.426579 158.266682 
L 230.873684 160.691443 
L 242.320789 163.078435 
L 253.767895 165.59773 
L 265.215 167.350909 
L 265.215 160.280879 
L 265.215 160.280879 
L 253.767895 158.527542 
L 242.320789 155.611257 
L 230.873684 152.873115 
L 219.426579 150.431032 
L 207.979474 146.666398 
L 196.532368 142.239333 
L 185.085263 137.310738 
L 173.638158 130.659751 
L 162.191053 124.215619 
L 150.743947 116.825477 
L 139.296842 107.856133 
L 127.849737 98.260078 
L 116.402632 87.695253 
L 104.955526 77.460436 
L 93.508421 67.801355 
L 82.061316 57.91388 
L 70.614211 51.044172 
L 59.167105 46.051563 
L 47.72 44.187112 
z
" clip-path="url(#p3e22377747)" style="fill: #e377c2; fill-opacity: 0.4"/>
   </g>
   <g id="PolyCollection_8">
    <path d="M 47.72 33.587342 
L 47.72 34.444034 
L 59.167105 35.266316 
L 70.614211 35.865364 
L 82.061316 38.147865 
L 93.508421 42.438267 
L 104.955526 48.185891 
L 116.402632 55.58968 
L 127.849737 64.317206 
L 139.296842 72.746044 
L 150.743947 81.225724 
L 162.191053 89.49309 
L 173.638158 97.054079 
L 185.085263 104.221269 
L 196.532368 111.223771 
L 207.979474 118.004395 
L 219.426579 124.136959 
L 230.873684 128.444918 
L 242.320789 134.201416 
L 253.767895 138.577133 
L 265.215 143.160915 
L 265.215 134.906572 
L 265.215 134.906572 
L 253.767895 130.853526 
L 242.320789 126.012615 
L 230.873684 120.766436 
L 219.426579 115.29641 
L 207.979474 109.39655 
L 196.532368 102.769159 
L 185.085263 95.329192 
L 173.638158 87.669634 
L 162.191053 80.086364 
L 150.743947 70.947693 
L 139.296842 62.619601 
L 127.849737 54.461561 
L 116.402632 47.863229 
L 104.955526 42.018161 
L 93.508421 38.092188 
L 82.061316 35.63797 
L 70.614211 34.65923 
L 59.167105 34.139629 
L 47.72 33.587342 
z
" clip-path="url(#p3e22377747)" style="fill: #7f7f7f; fill-opacity: 0.4"/>
   </g>
   <g id="matplotlib.axis_1">
    <g id="xtick_1">
     <g id="line2d_1">
      <defs>
       <path id="m17f48248d2" d="M 0 0 
L 0 3.5 
" style="stroke: #000000; stroke-width: 0.8"/>
      </defs>
      <g>
       <use xlink:href="#m17f48248d2" x="47.72" y="174.04" style="stroke: #000000; stroke-width: 0.8"/>
      </g>
     </g>
     <g id="text_1">
      <!-- 0.0 -->
      <g transform="translate(39.768438 188.638438)scale(0.1 -0.1)">
       <defs>
        <path id="DejaVuSans-30" d="M 2034 4250 
Q 1547 4250 1301 3770 
Q 1056 3291 1056 2328 
Q 1056 1369 1301 889 
Q 1547 409 2034 409 
Q 2525 409 2770 889 
Q 3016 1369 3016 2328 
Q 3016 3291 2770 3770 
Q 2525 4250 2034 4250 
z
M 2034 4750 
Q 2819 4750 3233 4129 
Q 3647 3509 3647 2328 
Q 3647 1150 3233 529 
Q 2819 -91 2034 -91 
Q 1250 -91 836 529 
Q 422 1150 422 2328 
Q 422 3509 836 4129 
Q 1250 4750 2034 4750 
z
" transform="scale(0.015625)"/>
        <path id="DejaVuSans-2e" d="M 684 794 
L 1344 794 
L 1344 0 
L 684 0 
L 684 794 
z
" transform="scale(0.015625)"/>
       </defs>
       <use xlink:href="#DejaVuSans-30"/>
       <use xlink:href="#DejaVuSans-2e" x="63.623047"/>
       <use xlink:href="#DejaVuSans-30" x="95.410156"/>
      </g>
     </g>
    </g>
    <g id="xtick_2">
     <g id="line2d_2">
      <g>
       <use xlink:href="#m17f48248d2" x="102.09375" y="174.04" style="stroke: #000000; stroke-width: 0.8"/>
      </g>
     </g>
     <g id="text_2">
      <!-- 0.5 -->
      <g transform="translate(94.142188 188.638438)scale(0.1 -0.1)">
       <defs>
        <path id="DejaVuSans-35" d="M 691 4666 
L 3169 4666 
L 3169 4134 
L 1269 4134 
L 1269 2991 
Q 1406 3038 1543 3061 
Q 1681 3084 1819 3084 
Q 2600 3084 3056 2656 
Q 3513 2228 3513 1497 
Q 3513 744 3044 326 
Q 2575 -91 1722 -91 
Q 1428 -91 1123 -41 
Q 819 9 494 109 
L 494 744 
Q 775 591 1075 516 
Q 1375 441 1709 441 
Q 2250 441 2565 725 
Q 2881 1009 2881 1497 
Q 2881 1984 2565 2268 
Q 2250 2553 1709 2553 
Q 1456 2553 1204 2497 
Q 953 2441 691 2322 
L 691 4666 
z
" transform="scale(0.015625)"/>
       </defs>
       <use xlink:href="#DejaVuSans-30"/>
       <use xlink:href="#DejaVuSans-2e" x="63.623047"/>
       <use xlink:href="#DejaVuSans-35" x="95.410156"/>
      </g>
     </g>
    </g>
    <g id="xtick_3">
     <g id="line2d_3">
      <g>
       <use xlink:href="#m17f48248d2" x="156.4675" y="174.04" style="stroke: #000000; stroke-width: 0.8"/>
      </g>
     </g>
     <g id="text_3">
      <!-- 1.0 -->
      <g transform="translate(148.515938 188.638438)scale(0.1 -0.1)">
       <defs>
        <path id="DejaVuSans-31" d="M 794 531 
L 1825 531 
L 1825 4091 
L 703 3866 
L 703 4441 
L 1819 4666 
L 2450 4666 
L 2450 531 
L 3481 531 
L 3481 0 
L 794 0 
L 794 531 
z
" transform="scale(0.015625)"/>
       </defs>
       <use xlink:href="#DejaVuSans-31"/>
       <use xlink:href="#DejaVuSans-2e" x="63.623047"/>
       <use xlink:href="#DejaVuSans-30" x="95.410156"/>
      </g>
     </g>
    </g>
    <g id="xtick_4">
     <g id="line2d_4">
      <g>
       <use xlink:href="#m17f48248d2" x="210.84125" y="174.04" style="stroke: #000000; stroke-width: 0.8"/>
      </g>
     </g>
     <g id="text_4">
      <!-- 1.5 -->
      <g transform="translate(202.889687 188.638438)scale(0.1 -0.1)">
       <use xlink:href="#DejaVuSans-31"/>
       <use xlink:href="#DejaVuSans-2e" x="63.623047"/>
       <use xlink:href="#DejaVuSans-35" x="95.410156"/>
      </g>
     </g>
    </g>
    <g id="xtick_5">
     <g id="line2d_5">
      <g>
       <use xlink:href="#m17f48248d2" x="265.215" y="174.04" style="stroke: #000000; stroke-width: 0.8"/>
      </g>
     </g>
     <g id="text_5">
      <!-- 2.0 -->
      <g transform="translate(257.263437 188.638438)scale(0.1 -0.1)">
       <defs>
        <path id="DejaVuSans-32" d="M 1228 531 
L 3431 531 
L 3431 0 
L 469 0 
L 469 531 
Q 828 903 1448 1529 
Q 2069 2156 2228 2338 
Q 2531 2678 2651 2914 
Q 2772 3150 2772 3378 
Q 2772 3750 2511 3984 
Q 2250 4219 1831 4219 
Q 1534 4219 1204 4116 
Q 875 4013 500 3803 
L 500 4441 
Q 881 4594 1212 4672 
Q 1544 4750 1819 4750 
Q 2544 4750 2975 4387 
Q 3406 4025 3406 3419 
Q 3406 3131 3298 2873 
Q 3191 2616 2906 2266 
Q 2828 2175 2409 1742 
Q 1991 1309 1228 531 
z
" transform="scale(0.015625)"/>
       </defs>
       <use xlink:href="#DejaVuSans-32"/>
       <use xlink:href="#DejaVuSans-2e" x="63.623047"/>
       <use xlink:href="#DejaVuSans-30" x="95.410156"/>
      </g>
     </g>
    </g>
    <g id="text_6">
     <!-- Influence of surprisal (multiplication) -->
     <g transform="translate(64.320625 202.316563)scale(0.1 -0.1)">
      <defs>
       <path id="DejaVuSans-49" d="M 628 4666 
L 1259 4666 
L 1259 0 
L 628 0 
L 628 4666 
z
" transform="scale(0.015625)"/>
       <path id="DejaVuSans-6e" d="M 3513 2113 
L 3513 0 
L 2938 0 
L 2938 2094 
Q 2938 2591 2744 2837 
Q 2550 3084 2163 3084 
Q 1697 3084 1428 2787 
Q 1159 2491 1159 1978 
L 1159 0 
L 581 0 
L 581 3500 
L 1159 3500 
L 1159 2956 
Q 1366 3272 1645 3428 
Q 1925 3584 2291 3584 
Q 2894 3584 3203 3211 
Q 3513 2838 3513 2113 
z
" transform="scale(0.015625)"/>
       <path id="DejaVuSans-66" d="M 2375 4863 
L 2375 4384 
L 1825 4384 
Q 1516 4384 1395 4259 
Q 1275 4134 1275 3809 
L 1275 3500 
L 2222 3500 
L 2222 3053 
L 1275 3053 
L 1275 0 
L 697 0 
L 697 3053 
L 147 3053 
L 147 3500 
L 697 3500 
L 697 3744 
Q 697 4328 969 4595 
Q 1241 4863 1831 4863 
L 2375 4863 
z
" transform="scale(0.015625)"/>
       <path id="DejaVuSans-6c" d="M 603 4863 
L 1178 4863 
L 1178 0 
L 603 0 
L 603 4863 
z
" transform="scale(0.015625)"/>
       <path id="DejaVuSans-75" d="M 544 1381 
L 544 3500 
L 1119 3500 
L 1119 1403 
Q 1119 906 1312 657 
Q 1506 409 1894 409 
Q 2359 409 2629 706 
Q 2900 1003 2900 1516 
L 2900 3500 
L 3475 3500 
L 3475 0 
L 2900 0 
L 2900 538 
Q 2691 219 2414 64 
Q 2138 -91 1772 -91 
Q 1169 -91 856 284 
Q 544 659 544 1381 
z
M 1991 3584 
L 1991 3584 
z
" transform="scale(0.015625)"/>
       <path id="DejaVuSans-65" d="M 3597 1894 
L 3597 1613 
L 953 1613 
Q 991 1019 1311 708 
Q 1631 397 2203 397 
Q 2534 397 2845 478 
Q 3156 559 3463 722 
L 3463 178 
Q 3153 47 2828 -22 
Q 2503 -91 2169 -91 
Q 1331 -91 842 396 
Q 353 884 353 1716 
Q 353 2575 817 3079 
Q 1281 3584 2069 3584 
Q 2775 3584 3186 3129 
Q 3597 2675 3597 1894 
z
M 3022 2063 
Q 3016 2534 2758 2815 
Q 2500 3097 2075 3097 
Q 1594 3097 1305 2825 
Q 1016 2553 972 2059 
L 3022 2063 
z
" transform="scale(0.015625)"/>
       <path id="DejaVuSans-63" d="M 3122 3366 
L 3122 2828 
Q 2878 2963 2633 3030 
Q 2388 3097 2138 3097 
Q 1578 3097 1268 2742 
Q 959 2388 959 1747 
Q 959 1106 1268 751 
Q 1578 397 2138 397 
Q 2388 397 2633 464 
Q 2878 531 3122 666 
L 3122 134 
Q 2881 22 2623 -34 
Q 2366 -91 2075 -91 
Q 1284 -91 818 406 
Q 353 903 353 1747 
Q 353 2603 823 3093 
Q 1294 3584 2113 3584 
Q 2378 3584 2631 3529 
Q 2884 3475 3122 3366 
z
" transform="scale(0.015625)"/>
       <path id="DejaVuSans-20" transform="scale(0.015625)"/>
       <path id="DejaVuSans-6f" d="M 1959 3097 
Q 1497 3097 1228 2736 
Q 959 2375 959 1747 
Q 959 1119 1226 758 
Q 1494 397 1959 397 
Q 2419 397 2687 759 
Q 2956 1122 2956 1747 
Q 2956 2369 2687 2733 
Q 2419 3097 1959 3097 
z
M 1959 3584 
Q 2709 3584 3137 3096 
Q 3566 2609 3566 1747 
Q 3566 888 3137 398 
Q 2709 -91 1959 -91 
Q 1206 -91 779 398 
Q 353 888 353 1747 
Q 353 2609 779 3096 
Q 1206 3584 1959 3584 
z
" transform="scale(0.015625)"/>
       <path id="DejaVuSans-73" d="M 2834 3397 
L 2834 2853 
Q 2591 2978 2328 3040 
Q 2066 3103 1784 3103 
Q 1356 3103 1142 2972 
Q 928 2841 928 2578 
Q 928 2378 1081 2264 
Q 1234 2150 1697 2047 
L 1894 2003 
Q 2506 1872 2764 1633 
Q 3022 1394 3022 966 
Q 3022 478 2636 193 
Q 2250 -91 1575 -91 
Q 1294 -91 989 -36 
Q 684 19 347 128 
L 347 722 
Q 666 556 975 473 
Q 1284 391 1588 391 
Q 1994 391 2212 530 
Q 2431 669 2431 922 
Q 2431 1156 2273 1281 
Q 2116 1406 1581 1522 
L 1381 1569 
Q 847 1681 609 1914 
Q 372 2147 372 2553 
Q 372 3047 722 3315 
Q 1072 3584 1716 3584 
Q 2034 3584 2315 3537 
Q 2597 3491 2834 3397 
z
" transform="scale(0.015625)"/>
       <path id="DejaVuSans-72" d="M 2631 2963 
Q 2534 3019 2420 3045 
Q 2306 3072 2169 3072 
Q 1681 3072 1420 2755 
Q 1159 2438 1159 1844 
L 1159 0 
L 581 0 
L 581 3500 
L 1159 3500 
L 1159 2956 
Q 1341 3275 1631 3429 
Q 1922 3584 2338 3584 
Q 2397 3584 2469 3576 
Q 2541 3569 2628 3553 
L 2631 2963 
z
" transform="scale(0.015625)"/>
       <path id="DejaVuSans-70" d="M 1159 525 
L 1159 -1331 
L 581 -1331 
L 581 3500 
L 1159 3500 
L 1159 2969 
Q 1341 3281 1617 3432 
Q 1894 3584 2278 3584 
Q 2916 3584 3314 3078 
Q 3713 2572 3713 1747 
Q 3713 922 3314 415 
Q 2916 -91 2278 -91 
Q 1894 -91 1617 61 
Q 1341 213 1159 525 
z
M 3116 1747 
Q 3116 2381 2855 2742 
Q 2594 3103 2138 3103 
Q 1681 3103 1420 2742 
Q 1159 2381 1159 1747 
Q 1159 1113 1420 752 
Q 1681 391 2138 391 
Q 2594 391 2855 752 
Q 3116 1113 3116 1747 
z
" transform="scale(0.015625)"/>
       <path id="DejaVuSans-69" d="M 603 3500 
L 1178 3500 
L 1178 0 
L 603 0 
L 603 3500 
z
M 603 4863 
L 1178 4863 
L 1178 4134 
L 603 4134 
L 603 4863 
z
" transform="scale(0.015625)"/>
       <path id="DejaVuSans-61" d="M 2194 1759 
Q 1497 1759 1228 1600 
Q 959 1441 959 1056 
Q 959 750 1161 570 
Q 1363 391 1709 391 
Q 2188 391 2477 730 
Q 2766 1069 2766 1631 
L 2766 1759 
L 2194 1759 
z
M 3341 1997 
L 3341 0 
L 2766 0 
L 2766 531 
Q 2569 213 2275 61 
Q 1981 -91 1556 -91 
Q 1019 -91 701 211 
Q 384 513 384 1019 
Q 384 1609 779 1909 
Q 1175 2209 1959 2209 
L 2766 2209 
L 2766 2266 
Q 2766 2663 2505 2880 
Q 2244 3097 1772 3097 
Q 1472 3097 1187 3025 
Q 903 2953 641 2809 
L 641 3341 
Q 956 3463 1253 3523 
Q 1550 3584 1831 3584 
Q 2591 3584 2966 3190 
Q 3341 2797 3341 1997 
z
" transform="scale(0.015625)"/>
       <path id="DejaVuSans-28" d="M 1984 4856 
Q 1566 4138 1362 3434 
Q 1159 2731 1159 2009 
Q 1159 1288 1364 580 
Q 1569 -128 1984 -844 
L 1484 -844 
Q 1016 -109 783 600 
Q 550 1309 550 2009 
Q 550 2706 781 3412 
Q 1013 4119 1484 4856 
L 1984 4856 
z
" transform="scale(0.015625)"/>
       <path id="DejaVuSans-6d" d="M 3328 2828 
Q 3544 3216 3844 3400 
Q 4144 3584 4550 3584 
Q 5097 3584 5394 3201 
Q 5691 2819 5691 2113 
L 5691 0 
L 5113 0 
L 5113 2094 
Q 5113 2597 4934 2840 
Q 4756 3084 4391 3084 
Q 3944 3084 3684 2787 
Q 3425 2491 3425 1978 
L 3425 0 
L 2847 0 
L 2847 2094 
Q 2847 2600 2669 2842 
Q 2491 3084 2119 3084 
Q 1678 3084 1418 2786 
Q 1159 2488 1159 1978 
L 1159 0 
L 581 0 
L 581 3500 
L 1159 3500 
L 1159 2956 
Q 1356 3278 1631 3431 
Q 1906 3584 2284 3584 
Q 2666 3584 2933 3390 
Q 3200 3197 3328 2828 
z
" transform="scale(0.015625)"/>
       <path id="DejaVuSans-74" d="M 1172 4494 
L 1172 3500 
L 2356 3500 
L 2356 3053 
L 1172 3053 
L 1172 1153 
Q 1172 725 1289 603 
Q 1406 481 1766 481 
L 2356 481 
L 2356 0 
L 1766 0 
Q 1100 0 847 248 
Q 594 497 594 1153 
L 594 3053 
L 172 3053 
L 172 3500 
L 594 3500 
L 594 4494 
L 1172 4494 
z
" transform="scale(0.015625)"/>
       <path id="DejaVuSans-29" d="M 513 4856 
L 1013 4856 
Q 1481 4119 1714 3412 
Q 1947 2706 1947 2009 
Q 1947 1309 1714 600 
Q 1481 -109 1013 -844 
L 513 -844 
Q 928 -128 1133 580 
Q 1338 1288 1338 2009 
Q 1338 2731 1133 3434 
Q 928 4138 513 4856 
z
" transform="scale(0.015625)"/>
      </defs>
      <use xlink:href="#DejaVuSans-49"/>
      <use xlink:href="#DejaVuSans-6e" x="29.492188"/>
      <use xlink:href="#DejaVuSans-66" x="92.871094"/>
      <use xlink:href="#DejaVuSans-6c" x="128.076172"/>
      <use xlink:href="#DejaVuSans-75" x="155.859375"/>
      <use xlink:href="#DejaVuSans-65" x="219.238281"/>
      <use xlink:href="#DejaVuSans-6e" x="280.761719"/>
      <use xlink:href="#DejaVuSans-63" x="344.140625"/>
      <use xlink:href="#DejaVuSans-65" x="399.121094"/>
      <use xlink:href="#DejaVuSans-20" x="460.644531"/>
      <use xlink:href="#DejaVuSans-6f" x="492.431641"/>
      <use xlink:href="#DejaVuSans-66" x="553.613281"/>
      <use xlink:href="#DejaVuSans-20" x="588.818359"/>
      <use xlink:href="#DejaVuSans-73" x="620.605469"/>
      <use xlink:href="#DejaVuSans-75" x="672.705078"/>
      <use xlink:href="#DejaVuSans-72" x="736.083984"/>
      <use xlink:href="#DejaVuSans-70" x="777.197266"/>
      <use xlink:href="#DejaVuSans-72" x="840.673828"/>
      <use xlink:href="#DejaVuSans-69" x="881.787109"/>
      <use xlink:href="#DejaVuSans-73" x="909.570312"/>
      <use xlink:href="#DejaVuSans-61" x="961.669922"/>
      <use xlink:href="#DejaVuSans-6c" x="1022.949219"/>
      <use xlink:href="#DejaVuSans-20" x="1050.732422"/>
      <use xlink:href="#DejaVuSans-28" x="1082.519531"/>
      <use xlink:href="#DejaVuSans-6d" x="1121.533203"/>
      <use xlink:href="#DejaVuSans-75" x="1218.945312"/>
      <use xlink:href="#DejaVuSans-6c" x="1282.324219"/>
      <use xlink:href="#DejaVuSans-74" x="1310.107422"/>
      <use xlink:href="#DejaVuSans-69" x="1349.316406"/>
      <use xlink:href="#DejaVuSans-70" x="1377.099609"/>
      <use xlink:href="#DejaVuSans-6c" x="1440.576172"/>
      <use xlink:href="#DejaVuSans-69" x="1468.359375"/>
      <use xlink:href="#DejaVuSans-63" x="1496.142578"/>
      <use xlink:href="#DejaVuSans-61" x="1551.123047"/>
      <use xlink:href="#DejaVuSans-74" x="1612.402344"/>
      <use xlink:href="#DejaVuSans-69" x="1651.611328"/>
      <use xlink:href="#DejaVuSans-6f" x="1679.394531"/>
      <use xlink:href="#DejaVuSans-6e" x="1740.576172"/>
      <use xlink:href="#DejaVuSans-29" x="1803.955078"/>
     </g>
    </g>
   </g>
   <g id="matplotlib.axis_2">
    <g id="ytick_1">
     <g id="line2d_6">
      <defs>
       <path id="m1be17de35b" d="M 0 0 
L -3.5 0 
" style="stroke: #000000; stroke-width: 0.8"/>
      </defs>
      <g>
       <use xlink:href="#m1be17de35b" x="47.72" y="156.546448" style="stroke: #000000; stroke-width: 0.8"/>
      </g>
     </g>
     <g id="text_7">
      <!-- 0.2 -->
      <g transform="translate(24.816875 160.345667)scale(0.1 -0.1)">
       <use xlink:href="#DejaVuSans-30"/>
       <use xlink:href="#DejaVuSans-2e" x="63.623047"/>
       <use xlink:href="#DejaVuSans-32" x="95.410156"/>
      </g>
     </g>
    </g>
    <g id="ytick_2">
     <g id="line2d_7">
      <g>
       <use xlink:href="#m1be17de35b" x="47.72" y="123.669317" style="stroke: #000000; stroke-width: 0.8"/>
      </g>
     </g>
     <g id="text_8">
      <!-- 0.4 -->
      <g transform="translate(24.816875 127.468536)scale(0.1 -0.1)">
       <defs>
        <path id="DejaVuSans-34" d="M 2419 4116 
L 825 1625 
L 2419 1625 
L 2419 4116 
z
M 2253 4666 
L 3047 4666 
L 3047 1625 
L 3713 1625 
L 3713 1100 
L 3047 1100 
L 3047 0 
L 2419 0 
L 2419 1100 
L 313 1100 
L 313 1709 
L 2253 4666 
z
" transform="scale(0.015625)"/>
       </defs>
       <use xlink:href="#DejaVuSans-30"/>
       <use xlink:href="#DejaVuSans-2e" x="63.623047"/>
       <use xlink:href="#DejaVuSans-34" x="95.410156"/>
      </g>
     </g>
    </g>
    <g id="ytick_3">
     <g id="line2d_8">
      <g>
       <use xlink:href="#m1be17de35b" x="47.72" y="90.792186" style="stroke: #000000; stroke-width: 0.8"/>
      </g>
     </g>
     <g id="text_9">
      <!-- 0.6 -->
      <g transform="translate(24.816875 94.591405)scale(0.1 -0.1)">
       <defs>
        <path id="DejaVuSans-36" d="M 2113 2584 
Q 1688 2584 1439 2293 
Q 1191 2003 1191 1497 
Q 1191 994 1439 701 
Q 1688 409 2113 409 
Q 2538 409 2786 701 
Q 3034 994 3034 1497 
Q 3034 2003 2786 2293 
Q 2538 2584 2113 2584 
z
M 3366 4563 
L 3366 3988 
Q 3128 4100 2886 4159 
Q 2644 4219 2406 4219 
Q 1781 4219 1451 3797 
Q 1122 3375 1075 2522 
Q 1259 2794 1537 2939 
Q 1816 3084 2150 3084 
Q 2853 3084 3261 2657 
Q 3669 2231 3669 1497 
Q 3669 778 3244 343 
Q 2819 -91 2113 -91 
Q 1303 -91 875 529 
Q 447 1150 447 2328 
Q 447 3434 972 4092 
Q 1497 4750 2381 4750 
Q 2619 4750 2861 4703 
Q 3103 4656 3366 4563 
z
" transform="scale(0.015625)"/>
       </defs>
       <use xlink:href="#DejaVuSans-30"/>
       <use xlink:href="#DejaVuSans-2e" x="63.623047"/>
       <use xlink:href="#DejaVuSans-36" x="95.410156"/>
      </g>
     </g>
    </g>
    <g id="ytick_4">
     <g id="line2d_9">
      <g>
       <use xlink:href="#m1be17de35b" x="47.72" y="57.915056" style="stroke: #000000; stroke-width: 0.8"/>
      </g>
     </g>
     <g id="text_10">
      <!-- 0.8 -->
      <g transform="translate(24.816875 61.714274)scale(0.1 -0.1)">
       <defs>
        <path id="DejaVuSans-38" d="M 2034 2216 
Q 1584 2216 1326 1975 
Q 1069 1734 1069 1313 
Q 1069 891 1326 650 
Q 1584 409 2034 409 
Q 2484 409 2743 651 
Q 3003 894 3003 1313 
Q 3003 1734 2745 1975 
Q 2488 2216 2034 2216 
z
M 1403 2484 
Q 997 2584 770 2862 
Q 544 3141 544 3541 
Q 544 4100 942 4425 
Q 1341 4750 2034 4750 
Q 2731 4750 3128 4425 
Q 3525 4100 3525 3541 
Q 3525 3141 3298 2862 
Q 3072 2584 2669 2484 
Q 3125 2378 3379 2068 
Q 3634 1759 3634 1313 
Q 3634 634 3220 271 
Q 2806 -91 2034 -91 
Q 1263 -91 848 271 
Q 434 634 434 1313 
Q 434 1759 690 2068 
Q 947 2378 1403 2484 
z
M 1172 3481 
Q 1172 3119 1398 2916 
Q 1625 2713 2034 2713 
Q 2441 2713 2670 2916 
Q 2900 3119 2900 3481 
Q 2900 3844 2670 4047 
Q 2441 4250 2034 4250 
Q 1625 4250 1398 4047 
Q 1172 3844 1172 3481 
z
" transform="scale(0.015625)"/>
       </defs>
       <use xlink:href="#DejaVuSans-30"/>
       <use xlink:href="#DejaVuSans-2e" x="63.623047"/>
       <use xlink:href="#DejaVuSans-38" x="95.410156"/>
      </g>
     </g>
    </g>
    <g id="text_11">
     <!-- R-value -->
     <g transform="translate(18.737188 119.064687)rotate(-90)scale(0.1 -0.1)">
      <defs>
       <path id="DejaVuSans-52" d="M 2841 2188 
Q 3044 2119 3236 1894 
Q 3428 1669 3622 1275 
L 4263 0 
L 3584 0 
L 2988 1197 
Q 2756 1666 2539 1819 
Q 2322 1972 1947 1972 
L 1259 1972 
L 1259 0 
L 628 0 
L 628 4666 
L 2053 4666 
Q 2853 4666 3247 4331 
Q 3641 3997 3641 3322 
Q 3641 2881 3436 2590 
Q 3231 2300 2841 2188 
z
M 1259 4147 
L 1259 2491 
L 2053 2491 
Q 2509 2491 2742 2702 
Q 2975 2913 2975 3322 
Q 2975 3731 2742 3939 
Q 2509 4147 2053 4147 
L 1259 4147 
z
" transform="scale(0.015625)"/>
       <path id="DejaVuSans-2d" d="M 313 2009 
L 1997 2009 
L 1997 1497 
L 313 1497 
L 313 2009 
z
" transform="scale(0.015625)"/>
       <path id="DejaVuSans-76" d="M 191 3500 
L 800 3500 
L 1894 563 
L 2988 3500 
L 3597 3500 
L 2284 0 
L 1503 0 
L 191 3500 
z
" transform="scale(0.015625)"/>
      </defs>
      <use xlink:href="#DejaVuSans-52"/>
      <use xlink:href="#DejaVuSans-2d" x="65.482422"/>
      <use xlink:href="#DejaVuSans-76" x="98.941406"/>
      <use xlink:href="#DejaVuSans-61" x="158.121094"/>
      <use xlink:href="#DejaVuSans-6c" x="219.400391"/>
      <use xlink:href="#DejaVuSans-75" x="247.183594"/>
      <use xlink:href="#DejaVuSans-65" x="310.5625"/>
     </g>
    </g>
   </g>
   <g id="line2d_10">
    <path d="M 47.72 33.99058 
L 59.167105 35.976338 
L 70.614211 41.494467 
L 82.061316 48.629117 
L 93.508421 58.120125 
L 104.955526 67.425725 
L 116.402632 77.214583 
L 127.849737 87.117529 
L 139.296842 96.419218 
L 150.743947 105.070964 
L 162.191053 112.238965 
L 173.638158 118.71764 
L 185.085263 125.180559 
L 196.532368 130.649845 
L 207.979474 135.57424 
L 219.426579 140.09986 
L 230.873684 143.457704 
L 242.320789 147.438603 
L 253.767895 150.977896 
L 265.215 153.828919 
" clip-path="url(#p3e22377747)" style="fill: none; stroke: #1f77b4; stroke-width: 1.5; stroke-linecap: square"/>
   </g>
   <g id="line2d_11">
    <path d="M 47.72 34.002444 
L 59.167105 35.331691 
L 70.614211 38.42871 
L 82.061316 42.654696 
L 93.508421 49.191235 
L 104.955526 56.229091 
L 116.402632 64.346811 
L 127.849737 73.302114 
L 139.296842 81.920852 
L 150.743947 90.338449 
L 162.191053 98.464724 
L 173.638158 105.340505 
L 185.085263 112.153635 
L 196.532368 118.558006 
L 207.979474 124.58658 
L 219.426579 129.780494 
L 230.873684 133.987594 
L 242.320789 138.511354 
L 253.767895 142.611509 
L 265.215 146.387234 
" clip-path="url(#p3e22377747)" style="fill: none; stroke: #ff7f0e; stroke-width: 1.5; stroke-linecap: square"/>
   </g>
   <g id="line2d_12">
    <path d="M 47.72 34.000441 
L 59.167105 35.581183 
L 70.614211 38.264135 
L 82.061316 41.389352 
L 93.508421 45.658049 
L 104.955526 49.995133 
L 116.402632 54.749046 
L 127.849737 59.649989 
L 139.296842 64.613237 
L 150.743947 69.13864 
L 162.191053 74.22108 
L 173.638158 78.705276 
L 185.085263 83.579888 
L 196.532368 87.846434 
L 207.979474 92.266857 
L 219.426579 96.543136 
L 230.873684 100.001571 
L 242.320789 104.325449 
L 253.767895 107.696896 
L 265.215 111.677954 
" clip-path="url(#p3e22377747)" style="fill: none; stroke: #2ca02c; stroke-width: 1.5; stroke-linecap: square"/>
   </g>
   <g id="line2d_13">
    <path d="M 47.72 34.017272 
L 59.167105 35.274689 
L 70.614211 37.295234 
L 82.061316 39.708701 
L 93.508421 43.495023 
L 104.955526 47.535828 
L 116.402632 52.130496 
L 127.849737 57.260848 
L 139.296842 62.349766 
L 150.743947 67.24331 
L 162.191053 72.551052 
L 173.638158 77.193123 
L 185.085263 82.266677 
L 196.532368 86.574549 
L 207.979474 90.936962 
L 219.426579 95.125103 
L 230.873684 98.432848 
L 242.320789 102.67228 
L 253.767895 105.893748 
L 265.215 109.529305 
" clip-path="url(#p3e22377747)" style="fill: none; stroke: #d62728; stroke-width: 1.5; stroke-linecap: square"/>
   </g>
   <g id="line2d_14">
    <path d="M 47.72 34.006776 
L 59.167105 35.991533 
L 70.614211 41.485112 
L 82.061316 48.663592 
L 93.508421 58.170816 
L 104.955526 67.477428 
L 116.402632 77.445158 
L 127.849737 87.233411 
L 139.296842 96.618596 
L 150.743947 105.60387 
L 162.191053 112.829216 
L 173.638158 119.020077 
L 185.085263 125.607381 
L 196.532368 130.968222 
L 207.979474 135.596349 
L 219.426579 140.017524 
L 230.873684 144.162398 
L 242.320789 148.025656 
L 253.767895 151.509045 
L 265.215 154.274255 
" clip-path="url(#p3e22377747)" style="fill: none; stroke: #9467bd; stroke-width: 1.5; stroke-linecap: square"/>
   </g>
   <g id="line2d_15">
    <path d="M 47.72 34.019322 
L 59.167105 35.3419 
L 70.614211 38.43326 
L 82.061316 42.693338 
L 93.508421 49.237464 
L 104.955526 56.25403 
L 116.402632 64.504412 
L 127.849737 73.386327 
L 139.296842 82.0454 
L 150.743947 90.589351 
L 162.191053 98.839602 
L 173.638158 105.612747 
L 185.085263 112.443219 
L 196.532368 118.698333 
L 207.979474 124.711365 
L 219.426579 129.670897 
L 230.873684 134.585199 
L 242.320789 138.980661 
L 253.767895 143.030796 
L 265.215 146.687168 
" clip-path="url(#p3e22377747)" style="fill: none; stroke: #8c564b; stroke-width: 1.5; stroke-linecap: square"/>
   </g>
   <g id="line2d_16">
    <path d="M 47.72 45.928006 
L 59.167105 48.262327 
L 70.614211 54.622286 
L 82.061316 63.226859 
L 93.508421 74.20192 
L 104.955526 84.529408 
L 116.402632 95.525891 
L 127.849737 106.04857 
L 139.296842 115.220856 
L 150.743947 123.678191 
L 162.191053 130.511666 
L 173.638158 136.528682 
L 185.085263 142.452853 
L 196.532368 146.760068 
L 207.979474 150.835327 
L 219.426579 154.348857 
L 230.873684 156.782279 
L 242.320789 159.344846 
L 253.767895 162.062636 
L 265.215 163.815894 
" clip-path="url(#p3e22377747)" style="fill: none; stroke: #e377c2; stroke-width: 1.5; stroke-linecap: square"/>
   </g>
   <g id="line2d_17">
    <path d="M 47.72 34.015688 
L 59.167105 34.702973 
L 70.614211 35.262297 
L 82.061316 36.892917 
L 93.508421 40.265228 
L 104.955526 45.102026 
L 116.402632 51.726454 
L 127.849737 59.389384 
L 139.296842 67.682822 
L 150.743947 76.086709 
L 162.191053 84.789727 
L 173.638158 92.361856 
L 185.085263 99.775231 
L 196.532368 106.996465 
L 207.979474 113.700473 
L 219.426579 119.716684 
L 230.873684 124.605677 
L 242.320789 130.107016 
L 253.767895 134.715329 
L 265.215 139.033743 
" clip-path="url(#p3e22377747)" style="fill: none; stroke: #7f7f7f; stroke-width: 1.5; stroke-linecap: square"/>
   </g>
   <g id="patch_3">
    <path d="M 47.72 174.04 
L 47.72 26.88 
" style="fill: none; stroke: #000000; stroke-width: 0.8; stroke-linejoin: miter; stroke-linecap: square"/>
   </g>
   <g id="patch_4">
    <path d="M 47.72 174.04 
L 265.215 174.04 
" style="fill: none; stroke: #000000; stroke-width: 0.8; stroke-linejoin: miter; stroke-linecap: square"/>
   </g>
   <g id="text_12">
    <!-- Node * surprisal -->
    <g transform="translate(108.18625 20.88)scale(0.12 -0.12)">
     <defs>
      <path id="DejaVuSans-4e" d="M 628 4666 
L 1478 4666 
L 3547 763 
L 3547 4666 
L 4159 4666 
L 4159 0 
L 3309 0 
L 1241 3903 
L 1241 0 
L 628 0 
L 628 4666 
z
" transform="scale(0.015625)"/>
      <path id="DejaVuSans-64" d="M 2906 2969 
L 2906 4863 
L 3481 4863 
L 3481 0 
L 2906 0 
L 2906 525 
Q 2725 213 2448 61 
Q 2172 -91 1784 -91 
Q 1150 -91 751 415 
Q 353 922 353 1747 
Q 353 2572 751 3078 
Q 1150 3584 1784 3584 
Q 2172 3584 2448 3432 
Q 2725 3281 2906 2969 
z
M 947 1747 
Q 947 1113 1208 752 
Q 1469 391 1925 391 
Q 2381 391 2643 752 
Q 2906 1113 2906 1747 
Q 2906 2381 2643 2742 
Q 2381 3103 1925 3103 
Q 1469 3103 1208 2742 
Q 947 2381 947 1747 
z
" transform="scale(0.015625)"/>
      <path id="DejaVuSans-2a" d="M 3009 3897 
L 1888 3291 
L 3009 2681 
L 2828 2375 
L 1778 3009 
L 1778 1831 
L 1422 1831 
L 1422 3009 
L 372 2375 
L 191 2681 
L 1313 3291 
L 191 3897 
L 372 4206 
L 1422 3572 
L 1422 4750 
L 1778 4750 
L 1778 3572 
L 2828 4206 
L 3009 3897 
z
" transform="scale(0.015625)"/>
     </defs>
     <use xlink:href="#DejaVuSans-4e"/>
     <use xlink:href="#DejaVuSans-6f" x="74.804688"/>
     <use xlink:href="#DejaVuSans-64" x="135.986328"/>
     <use xlink:href="#DejaVuSans-65" x="199.462891"/>
     <use xlink:href="#DejaVuSans-20" x="260.986328"/>
     <use xlink:href="#DejaVuSans-2a" x="292.773438"/>
     <use xlink:href="#DejaVuSans-20" x="342.773438"/>
     <use xlink:href="#DejaVuSans-73" x="374.560547"/>
     <use xlink:href="#DejaVuSans-75" x="426.660156"/>
     <use xlink:href="#DejaVuSans-72" x="490.039062"/>
     <use xlink:href="#DejaVuSans-70" x="531.152344"/>
     <use xlink:href="#DejaVuSans-72" x="594.628906"/>
     <use xlink:href="#DejaVuSans-69" x="635.742188"/>
     <use xlink:href="#DejaVuSans-73" x="663.525391"/>
     <use xlink:href="#DejaVuSans-61" x="715.625"/>
     <use xlink:href="#DejaVuSans-6c" x="776.904297"/>
    </g>
   </g>
  </g>
  <g id="axes_2">
   <g id="patch_5">
    <path d="M 298.065 174.04 
L 515.56 174.04 
L 515.56 26.88 
L 298.065 26.88 
z
" style="fill: #ffffff"/>
   </g>
   <g id="PolyCollection_9">
    <path d="M 298.065 33.769674 
L 298.065 34.677241 
L 309.512105 36.859255 
L 320.959211 43.978087 
L 332.406316 52.153051 
L 343.853421 61.222088 
L 355.300526 70.368112 
L 366.747632 79.84674 
L 378.194737 88.382588 
L 389.641842 97.483504 
L 401.088947 105.223139 
L 412.536053 112.029241 
L 423.983158 119.106676 
L 435.430263 125.418274 
L 446.877368 130.364687 
L 458.324474 136.358925 
L 469.771579 140.879015 
L 481.218684 145.393029 
L 492.665789 148.729156 
L 504.112895 153.014537 
L 515.56 156.39406 
L 515.56 148.61221 
L 515.56 148.61221 
L 504.112895 145.670925 
L 492.665789 142.003037 
L 481.218684 137.331007 
L 469.771579 133.472144 
L 458.324474 129.837453 
L 446.877368 123.825679 
L 435.430263 117.959833 
L 423.983158 112.438765 
L 412.536053 105.179703 
L 401.088947 98.247115 
L 389.641842 89.258611 
L 378.194737 81.31686 
L 366.747632 72.362044 
L 355.300526 63.909804 
L 343.853421 54.212571 
L 332.406316 46.010706 
L 320.959211 39.996077 
L 309.512105 35.602485 
L 298.065 33.769674 
z
" clip-path="url(#p3ab6f44360)" style="fill: #1f77b4; fill-opacity: 0.4"/>
   </g>
   <g id="PolyCollection_10">
    <path d="M 298.065 33.774818 
L 298.065 34.695422 
L 309.512105 36.881709 
L 320.959211 43.996125 
L 332.406316 52.231372 
L 343.853421 61.277543 
L 355.300526 70.478405 
L 366.747632 79.917239 
L 378.194737 88.399591 
L 389.641842 97.488564 
L 401.088947 105.284632 
L 412.536053 112.008826 
L 423.983158 118.97025 
L 435.430263 125.32425 
L 446.877368 130.297131 
L 458.324474 136.331698 
L 469.771579 140.706827 
L 481.218684 145.333279 
L 492.665789 148.58706 
L 504.112895 153.025897 
L 515.56 156.237066 
L 515.56 148.799284 
L 515.56 148.799284 
L 504.112895 145.763939 
L 492.665789 142.171269 
L 481.218684 137.637765 
L 469.771579 133.697765 
L 458.324474 130.040284 
L 446.877368 123.999794 
L 435.430263 118.130836 
L 423.983158 112.513284 
L 412.536053 105.264055 
L 401.088947 98.333712 
L 389.641842 89.279397 
L 378.194737 81.365266 
L 366.747632 72.375657 
L 355.300526 63.916496 
L 343.853421 54.250676 
L 332.406316 46.029235 
L 320.959211 40.011761 
L 309.512105 35.595394 
L 298.065 33.774818 
z
" clip-path="url(#p3ab6f44360)" style="fill: #ff7f0e; fill-opacity: 0.4"/>
   </g>
   <g id="PolyCollection_11">
    <path d="M 298.065 33.783328 
L 298.065 34.690889 
L 309.512105 36.900206 
L 320.959211 44.041318 
L 332.406316 52.297698 
L 343.853421 61.376942 
L 355.300526 70.542761 
L 366.747632 79.980446 
L 378.194737 88.47312 
L 389.641842 97.682902 
L 401.088947 105.40181 
L 412.536053 112.183131 
L 423.983158 119.298359 
L 435.430263 125.906273 
L 446.877368 130.830212 
L 458.324474 136.857172 
L 469.771579 141.328973 
L 481.218684 146.129495 
L 492.665789 149.125581 
L 504.112895 153.570964 
L 515.56 157.218952 
L 515.56 148.547976 
L 515.56 148.547976 
L 504.112895 145.594066 
L 492.665789 142.02738 
L 481.218684 137.36036 
L 469.771579 133.541246 
L 458.324474 129.838079 
L 446.877368 123.939265 
L 435.430263 118.057047 
L 423.983158 112.639937 
L 412.536053 105.340296 
L 401.088947 98.426677 
L 389.641842 89.364807 
L 378.194737 81.418306 
L 366.747632 72.47994 
L 355.300526 63.972929 
L 343.853421 54.275914 
L 332.406316 46.012312 
L 320.959211 40.007336 
L 309.512105 35.598754 
L 298.065 33.783328 
z
" clip-path="url(#p3ab6f44360)" style="fill: #2ca02c; fill-opacity: 0.4"/>
   </g>
   <g id="PolyCollection_12">
    <path d="M 298.065 33.787288 
L 298.065 34.714178 
L 309.512105 36.9127 
L 320.959211 44.059155 
L 332.406316 52.339781 
L 343.853421 61.403139 
L 355.300526 70.607277 
L 366.747632 80.100991 
L 378.194737 88.566683 
L 389.641842 97.799231 
L 401.088947 105.583914 
L 412.536053 112.353957 
L 423.983158 119.405274 
L 435.430263 126.05791 
L 446.877368 130.899741 
L 458.324474 137.011722 
L 469.771579 141.41668 
L 481.218684 146.214815 
L 492.665789 149.125759 
L 504.112895 153.742988 
L 515.56 157.339774 
L 515.56 148.887435 
L 515.56 148.887435 
L 504.112895 145.893568 
L 492.665789 142.232728 
L 481.218684 137.714204 
L 469.771579 133.791676 
L 458.324474 130.078086 
L 446.877368 124.106257 
L 435.430263 118.176747 
L 423.983158 112.720765 
L 412.536053 105.454431 
L 401.088947 98.513826 
L 389.641842 89.42009 
L 378.194737 81.493173 
L 366.747632 72.494139 
L 355.300526 64.025098 
L 343.853421 54.315223 
L 332.406316 46.054902 
L 320.959211 40.02315 
L 309.512105 35.607735 
L 298.065 33.787288 
z
" clip-path="url(#p3ab6f44360)" style="fill: #d62728; fill-opacity: 0.4"/>
   </g>
   <g id="PolyCollection_13">
    <path d="M 298.065 33.779276 
L 298.065 34.693097 
L 309.512105 36.874016 
L 320.959211 44.047695 
L 332.406316 52.251901 
L 343.853421 61.299835 
L 355.300526 70.508082 
L 366.747632 79.760244 
L 378.194737 88.531293 
L 389.641842 97.78886 
L 401.088947 105.408532 
L 412.536053 112.871561 
L 423.983158 119.894709 
L 435.430263 126.198482 
L 446.877368 130.433967 
L 458.324474 137.471287 
L 469.771579 140.876724 
L 481.218684 146.16972 
L 492.665789 149.068653 
L 504.112895 153.343532 
L 515.56 157.099351 
L 515.56 150.479016 
L 515.56 150.479016 
L 504.112895 148.371307 
L 492.665789 142.800463 
L 481.218684 138.747676 
L 469.771579 134.125273 
L 458.324474 129.978262 
L 446.877368 123.564026 
L 435.430263 118.69264 
L 423.983158 112.829277 
L 412.536053 105.267298 
L 401.088947 98.213747 
L 389.641842 89.375109 
L 378.194737 81.294901 
L 366.747632 72.583229 
L 355.300526 63.919337 
L 343.853421 54.347167 
L 332.406316 46.022716 
L 320.959211 40.004787 
L 309.512105 35.61939 
L 298.065 33.779276 
z
" clip-path="url(#p3ab6f44360)" style="fill: #9467bd; fill-opacity: 0.4"/>
   </g>
   <g id="PolyCollection_14">
    <path d="M 298.065 33.784581 
L 298.065 34.710879 
L 309.512105 36.897539 
L 320.959211 44.062201 
L 332.406316 52.323858 
L 343.853421 61.352893 
L 355.300526 70.616805 
L 366.747632 79.831792 
L 378.194737 88.553316 
L 389.641842 97.796945 
L 401.088947 105.47581 
L 412.536053 112.844198 
L 423.983158 119.786119 
L 435.430263 126.164285 
L 446.877368 130.338341 
L 458.324474 137.43393 
L 469.771579 140.625895 
L 481.218684 146.104478 
L 492.665789 148.93801 
L 504.112895 153.432288 
L 515.56 156.974028 
L 515.56 150.592757 
L 515.56 150.592757 
L 504.112895 148.353408 
L 492.665789 142.939863 
L 481.218684 139.040603 
L 469.771579 134.424441 
L 458.324474 130.183072 
L 446.877368 123.776871 
L 435.430263 118.855943 
L 423.983158 112.876638 
L 412.536053 105.329254 
L 401.088947 98.302563 
L 389.641842 89.405659 
L 378.194737 81.339299 
L 366.747632 72.601209 
L 355.300526 63.924658 
L 343.853421 54.385516 
L 332.406316 46.041638 
L 320.959211 40.021762 
L 309.512105 35.611964 
L 298.065 33.784581 
z
" clip-path="url(#p3ab6f44360)" style="fill: #8c564b; fill-opacity: 0.4"/>
   </g>
   <g id="PolyCollection_15">
    <path d="M 298.065 44.291273 
L 298.065 47.583517 
L 309.512105 49.957785 
L 320.959211 56.145555 
L 332.406316 63.544406 
L 343.853421 72.695435 
L 355.300526 81.884954 
L 366.747632 90.483501 
L 378.194737 98.516755 
L 389.641842 106.065353 
L 401.088947 113.662492 
L 412.536053 120.491813 
L 423.983158 127.168827 
L 435.430263 133.163092 
L 446.877368 138.162586 
L 458.324474 143.795073 
L 469.771579 147.984586 
L 481.218684 152.035283 
L 492.665789 155.128899 
L 504.112895 158.869702 
L 515.56 161.424713 
L 515.56 152.234205 
L 515.56 152.234205 
L 504.112895 149.347856 
L 492.665789 146.188801 
L 481.218684 142.008698 
L 469.771579 138.619169 
L 458.324474 135.437158 
L 446.877368 129.828987 
L 435.430263 124.94119 
L 423.983158 119.654817 
L 412.536053 112.908994 
L 401.088947 106.589603 
L 389.641842 98.181517 
L 378.194737 90.176863 
L 366.747632 81.425998 
L 355.300526 73.032598 
L 343.853421 64.006604 
L 332.406316 56.379104 
L 320.959211 50.366177 
L 309.512105 45.939359 
L 298.065 44.291273 
z
" clip-path="url(#p3ab6f44360)" style="fill: #e377c2; fill-opacity: 0.4"/>
   </g>
   <g id="PolyCollection_16">
    <path d="M 298.065 33.787259 
L 298.065 34.703544 
L 309.512105 36.907714 
L 320.959211 44.01853 
L 332.406316 52.304929 
L 343.853421 61.397117 
L 355.300526 70.610123 
L 366.747632 80.167937 
L 378.194737 88.798231 
L 389.641842 97.973222 
L 401.088947 105.722196 
L 412.536053 112.494162 
L 423.983158 119.503194 
L 435.430263 125.97213 
L 446.877368 130.972154 
L 458.324474 137.080603 
L 469.771579 141.454351 
L 481.218684 146.295385 
L 492.665789 149.331666 
L 504.112895 153.98354 
L 515.56 157.087949 
L 515.56 148.800526 
L 515.56 148.800526 
L 504.112895 145.626713 
L 492.665789 142.162347 
L 481.218684 137.749101 
L 469.771579 133.751941 
L 458.324474 130.187859 
L 446.877368 124.035004 
L 435.430263 118.217167 
L 423.983158 112.698606 
L 412.536053 105.451375 
L 401.088947 98.530904 
L 389.641842 89.407714 
L 378.194737 81.576394 
L 366.747632 72.532574 
L 355.300526 64.068028 
L 343.853421 54.350909 
L 332.406316 46.067863 
L 320.959211 40.044263 
L 309.512105 35.599123 
L 298.065 33.787259 
z
" clip-path="url(#p3ab6f44360)" style="fill: #7f7f7f; fill-opacity: 0.4"/>
   </g>
   <g id="matplotlib.axis_3">
    <g id="xtick_6">
     <g id="line2d_18">
      <g>
       <use xlink:href="#m17f48248d2" x="298.065" y="174.04" style="stroke: #000000; stroke-width: 0.8"/>
      </g>
     </g>
     <g id="text_13">
      <!-- 0.0 -->
      <g transform="translate(290.113437 188.638438)scale(0.1 -0.1)">
       <use xlink:href="#DejaVuSans-30"/>
       <use xlink:href="#DejaVuSans-2e" x="63.623047"/>
       <use xlink:href="#DejaVuSans-30" x="95.410156"/>
      </g>
     </g>
    </g>
    <g id="xtick_7">
     <g id="line2d_19">
      <g>
       <use xlink:href="#m17f48248d2" x="352.43875" y="174.04" style="stroke: #000000; stroke-width: 0.8"/>
      </g>
     </g>
     <g id="text_14">
      <!-- 0.5 -->
      <g transform="translate(344.487187 188.638438)scale(0.1 -0.1)">
       <use xlink:href="#DejaVuSans-30"/>
       <use xlink:href="#DejaVuSans-2e" x="63.623047"/>
       <use xlink:href="#DejaVuSans-35" x="95.410156"/>
      </g>
     </g>
    </g>
    <g id="xtick_8">
     <g id="line2d_20">
      <g>
       <use xlink:href="#m17f48248d2" x="406.8125" y="174.04" style="stroke: #000000; stroke-width: 0.8"/>
      </g>
     </g>
     <g id="text_15">
      <!-- 1.0 -->
      <g transform="translate(398.860937 188.638438)scale(0.1 -0.1)">
       <use xlink:href="#DejaVuSans-31"/>
       <use xlink:href="#DejaVuSans-2e" x="63.623047"/>
       <use xlink:href="#DejaVuSans-30" x="95.410156"/>
      </g>
     </g>
    </g>
    <g id="xtick_9">
     <g id="line2d_21">
      <g>
       <use xlink:href="#m17f48248d2" x="461.18625" y="174.04" style="stroke: #000000; stroke-width: 0.8"/>
      </g>
     </g>
     <g id="text_16">
      <!-- 1.5 -->
      <g transform="translate(453.234687 188.638438)scale(0.1 -0.1)">
       <use xlink:href="#DejaVuSans-31"/>
       <use xlink:href="#DejaVuSans-2e" x="63.623047"/>
       <use xlink:href="#DejaVuSans-35" x="95.410156"/>
      </g>
     </g>
    </g>
    <g id="xtick_10">
     <g id="line2d_22">
      <g>
       <use xlink:href="#m17f48248d2" x="515.56" y="174.04" style="stroke: #000000; stroke-width: 0.8"/>
      </g>
     </g>
     <g id="text_17">
      <!-- 2.0 -->
      <g transform="translate(507.608437 188.638438)scale(0.1 -0.1)">
       <use xlink:href="#DejaVuSans-32"/>
       <use xlink:href="#DejaVuSans-2e" x="63.623047"/>
       <use xlink:href="#DejaVuSans-30" x="95.410156"/>
      </g>
     </g>
    </g>
    <g id="text_18">
     <!-- Influence of surprisal (multiplication) -->
     <g transform="translate(314.665625 202.316563)scale(0.1 -0.1)">
      <use xlink:href="#DejaVuSans-49"/>
      <use xlink:href="#DejaVuSans-6e" x="29.492188"/>
      <use xlink:href="#DejaVuSans-66" x="92.871094"/>
      <use xlink:href="#DejaVuSans-6c" x="128.076172"/>
      <use xlink:href="#DejaVuSans-75" x="155.859375"/>
      <use xlink:href="#DejaVuSans-65" x="219.238281"/>
      <use xlink:href="#DejaVuSans-6e" x="280.761719"/>
      <use xlink:href="#DejaVuSans-63" x="344.140625"/>
      <use xlink:href="#DejaVuSans-65" x="399.121094"/>
      <use xlink:href="#DejaVuSans-20" x="460.644531"/>
      <use xlink:href="#DejaVuSans-6f" x="492.431641"/>
      <use xlink:href="#DejaVuSans-66" x="553.613281"/>
      <use xlink:href="#DejaVuSans-20" x="588.818359"/>
      <use xlink:href="#DejaVuSans-73" x="620.605469"/>
      <use xlink:href="#DejaVuSans-75" x="672.705078"/>
      <use xlink:href="#DejaVuSans-72" x="736.083984"/>
      <use xlink:href="#DejaVuSans-70" x="777.197266"/>
      <use xlink:href="#DejaVuSans-72" x="840.673828"/>
      <use xlink:href="#DejaVuSans-69" x="881.787109"/>
      <use xlink:href="#DejaVuSans-73" x="909.570312"/>
      <use xlink:href="#DejaVuSans-61" x="961.669922"/>
      <use xlink:href="#DejaVuSans-6c" x="1022.949219"/>
      <use xlink:href="#DejaVuSans-20" x="1050.732422"/>
      <use xlink:href="#DejaVuSans-28" x="1082.519531"/>
      <use xlink:href="#DejaVuSans-6d" x="1121.533203"/>
      <use xlink:href="#DejaVuSans-75" x="1218.945312"/>
      <use xlink:href="#DejaVuSans-6c" x="1282.324219"/>
      <use xlink:href="#DejaVuSans-74" x="1310.107422"/>
      <use xlink:href="#DejaVuSans-69" x="1349.316406"/>
      <use xlink:href="#DejaVuSans-70" x="1377.099609"/>
      <use xlink:href="#DejaVuSans-6c" x="1440.576172"/>
      <use xlink:href="#DejaVuSans-69" x="1468.359375"/>
      <use xlink:href="#DejaVuSans-63" x="1496.142578"/>
      <use xlink:href="#DejaVuSans-61" x="1551.123047"/>
      <use xlink:href="#DejaVuSans-74" x="1612.402344"/>
      <use xlink:href="#DejaVuSans-69" x="1651.611328"/>
      <use xlink:href="#DejaVuSans-6f" x="1679.394531"/>
      <use xlink:href="#DejaVuSans-6e" x="1740.576172"/>
      <use xlink:href="#DejaVuSans-29" x="1803.955078"/>
     </g>
    </g>
   </g>
   <g id="line2d_23">
    <path d="M 298.065 34.223457 
L 309.512105 36.23087 
L 320.959211 41.987082 
L 332.406316 49.081878 
L 343.853421 57.71733 
L 355.300526 67.138958 
L 366.747632 76.104392 
L 378.194737 84.849724 
L 389.641842 93.371058 
L 401.088947 101.735127 
L 412.536053 108.604472 
L 423.983158 115.772721 
L 435.430263 121.689053 
L 446.877368 127.095183 
L 458.324474 133.098189 
L 469.771579 137.17558 
L 481.218684 141.362018 
L 492.665789 145.366097 
L 504.112895 149.342731 
L 515.56 152.503135 
" clip-path="url(#p3ab6f44360)" style="fill: none; stroke: #1f77b4; stroke-width: 1.5; stroke-linecap: square"/>
   </g>
   <g id="line2d_24">
    <path d="M 298.065 34.23512 
L 309.512105 36.238552 
L 320.959211 42.003943 
L 332.406316 49.130303 
L 343.853421 57.76411 
L 355.300526 67.197451 
L 366.747632 76.146448 
L 378.194737 84.882428 
L 389.641842 93.38398 
L 401.088947 101.809172 
L 412.536053 108.636441 
L 423.983158 115.741767 
L 435.430263 121.727543 
L 446.877368 127.148463 
L 458.324474 133.185991 
L 469.771579 137.202296 
L 481.218684 141.485522 
L 492.665789 145.379164 
L 504.112895 149.394918 
L 515.56 152.518175 
" clip-path="url(#p3ab6f44360)" style="fill: none; stroke: #ff7f0e; stroke-width: 1.5; stroke-linecap: square"/>
   </g>
   <g id="line2d_25">
    <path d="M 298.065 34.237108 
L 309.512105 36.24948 
L 320.959211 42.024327 
L 332.406316 49.155005 
L 343.853421 57.826428 
L 355.300526 67.257845 
L 366.747632 76.230193 
L 378.194737 84.945713 
L 389.641842 93.523855 
L 401.088947 101.914244 
L 412.536053 108.761713 
L 423.983158 115.969148 
L 435.430263 121.98166 
L 446.877368 127.384738 
L 458.324474 133.347626 
L 469.771579 137.43511 
L 481.218684 141.744927 
L 492.665789 145.57648 
L 504.112895 149.582515 
L 515.56 152.883464 
" clip-path="url(#p3ab6f44360)" style="fill: none; stroke: #2ca02c; stroke-width: 1.5; stroke-linecap: square"/>
   </g>
   <g id="line2d_26">
    <path d="M 298.065 34.250733 
L 309.512105 36.260217 
L 320.959211 42.041153 
L 332.406316 49.197341 
L 343.853421 57.859181 
L 355.300526 67.316188 
L 366.747632 76.297565 
L 378.194737 85.029928 
L 389.641842 93.609661 
L 401.088947 102.04887 
L 412.536053 108.904194 
L 423.983158 116.06302 
L 435.430263 122.117329 
L 446.877368 127.502999 
L 458.324474 133.544904 
L 469.771579 137.604178 
L 481.218684 141.96451 
L 492.665789 145.679244 
L 504.112895 149.818278 
L 515.56 153.113605 
" clip-path="url(#p3ab6f44360)" style="fill: none; stroke: #d62728; stroke-width: 1.5; stroke-linecap: square"/>
   </g>
   <g id="line2d_27">
    <path d="M 298.065 34.236186 
L 309.512105 36.246703 
L 320.959211 42.026241 
L 332.406316 49.137309 
L 343.853421 57.823501 
L 355.300526 67.21371 
L 366.747632 76.171737 
L 378.194737 84.913097 
L 389.641842 93.581984 
L 401.088947 101.81114 
L 412.536053 109.06943 
L 423.983158 116.361993 
L 435.430263 122.445561 
L 446.877368 126.998997 
L 458.324474 133.724774 
L 469.771579 137.500998 
L 481.218684 142.458698 
L 492.665789 145.934558 
L 504.112895 150.857419 
L 515.56 153.789184 
" clip-path="url(#p3ab6f44360)" style="fill: none; stroke: #9467bd; stroke-width: 1.5; stroke-linecap: square"/>
   </g>
   <g id="line2d_28">
    <path d="M 298.065 34.24773 
L 309.512105 36.254751 
L 320.959211 42.041981 
L 332.406316 49.182748 
L 343.853421 57.869205 
L 355.300526 67.270732 
L 366.747632 76.216501 
L 378.194737 84.946308 
L 389.641842 93.601302 
L 401.088947 101.889186 
L 412.536053 109.086726 
L 423.983158 116.331379 
L 435.430263 122.510114 
L 446.877368 127.057606 
L 458.324474 133.808501 
L 469.771579 137.525168 
L 481.218684 142.572541 
L 492.665789 145.938936 
L 504.112895 150.892848 
L 515.56 153.783393 
" clip-path="url(#p3ab6f44360)" style="fill: none; stroke: #8c564b; stroke-width: 1.5; stroke-linecap: square"/>
   </g>
   <g id="line2d_29">
    <path d="M 298.065 45.937395 
L 309.512105 47.948572 
L 320.959211 53.255866 
L 332.406316 59.961755 
L 343.853421 68.35102 
L 355.300526 77.458776 
L 366.747632 85.95475 
L 378.194737 94.346809 
L 389.641842 102.123435 
L 401.088947 110.126047 
L 412.536053 116.700403 
L 423.983158 123.411822 
L 435.430263 129.052141 
L 446.877368 133.995787 
L 458.324474 139.616115 
L 469.771579 143.301878 
L 481.218684 147.02199 
L 492.665789 150.65885 
L 504.112895 154.108779 
L 515.56 156.829459 
" clip-path="url(#p3ab6f44360)" style="fill: none; stroke: #e377c2; stroke-width: 1.5; stroke-linecap: square"/>
   </g>
   <g id="line2d_30">
    <path d="M 298.065 34.245401 
L 309.512105 36.253418 
L 320.959211 42.031397 
L 332.406316 49.186396 
L 343.853421 57.874013 
L 355.300526 67.339076 
L 366.747632 76.350255 
L 378.194737 85.187312 
L 389.641842 93.690468 
L 401.088947 102.12655 
L 412.536053 108.972768 
L 423.983158 116.1009 
L 435.430263 122.094649 
L 446.877368 127.503579 
L 458.324474 133.634231 
L 469.771579 137.603146 
L 481.218684 142.022243 
L 492.665789 145.747006 
L 504.112895 149.805126 
L 515.56 152.944238 
" clip-path="url(#p3ab6f44360)" style="fill: none; stroke: #7f7f7f; stroke-width: 1.5; stroke-linecap: square"/>
   </g>
   <g id="patch_6">
    <path d="M 298.065 174.04 
L 298.065 26.88 
" style="fill: none; stroke: #000000; stroke-width: 0.8; stroke-linejoin: miter; stroke-linecap: square"/>
   </g>
   <g id="patch_7">
    <path d="M 298.065 174.04 
L 515.56 174.04 
" style="fill: none; stroke: #000000; stroke-width: 0.8; stroke-linejoin: miter; stroke-linecap: square"/>
   </g>
   <g id="text_19">
    <!-- Node * third variable -->
    <g transform="translate(344.2325 20.88)scale(0.12 -0.12)">
     <defs>
      <path id="DejaVuSans-68" d="M 3513 2113 
L 3513 0 
L 2938 0 
L 2938 2094 
Q 2938 2591 2744 2837 
Q 2550 3084 2163 3084 
Q 1697 3084 1428 2787 
Q 1159 2491 1159 1978 
L 1159 0 
L 581 0 
L 581 4863 
L 1159 4863 
L 1159 2956 
Q 1366 3272 1645 3428 
Q 1925 3584 2291 3584 
Q 2894 3584 3203 3211 
Q 3513 2838 3513 2113 
z
" transform="scale(0.015625)"/>
      <path id="DejaVuSans-62" d="M 3116 1747 
Q 3116 2381 2855 2742 
Q 2594 3103 2138 3103 
Q 1681 3103 1420 2742 
Q 1159 2381 1159 1747 
Q 1159 1113 1420 752 
Q 1681 391 2138 391 
Q 2594 391 2855 752 
Q 3116 1113 3116 1747 
z
M 1159 2969 
Q 1341 3281 1617 3432 
Q 1894 3584 2278 3584 
Q 2916 3584 3314 3078 
Q 3713 2572 3713 1747 
Q 3713 922 3314 415 
Q 2916 -91 2278 -91 
Q 1894 -91 1617 61 
Q 1341 213 1159 525 
L 1159 0 
L 581 0 
L 581 4863 
L 1159 4863 
L 1159 2969 
z
" transform="scale(0.015625)"/>
     </defs>
     <use xlink:href="#DejaVuSans-4e"/>
     <use xlink:href="#DejaVuSans-6f" x="74.804688"/>
     <use xlink:href="#DejaVuSans-64" x="135.986328"/>
     <use xlink:href="#DejaVuSans-65" x="199.462891"/>
     <use xlink:href="#DejaVuSans-20" x="260.986328"/>
     <use xlink:href="#DejaVuSans-2a" x="292.773438"/>
     <use xlink:href="#DejaVuSans-20" x="342.773438"/>
     <use xlink:href="#DejaVuSans-74" x="374.560547"/>
     <use xlink:href="#DejaVuSans-68" x="413.769531"/>
     <use xlink:href="#DejaVuSans-69" x="477.148438"/>
     <use xlink:href="#DejaVuSans-72" x="504.931641"/>
     <use xlink:href="#DejaVuSans-64" x="544.294922"/>
     <use xlink:href="#DejaVuSans-20" x="607.771484"/>
     <use xlink:href="#DejaVuSans-76" x="639.558594"/>
     <use xlink:href="#DejaVuSans-61" x="698.738281"/>
     <use xlink:href="#DejaVuSans-72" x="760.017578"/>
     <use xlink:href="#DejaVuSans-69" x="801.130859"/>
     <use xlink:href="#DejaVuSans-61" x="828.914062"/>
     <use xlink:href="#DejaVuSans-62" x="890.193359"/>
     <use xlink:href="#DejaVuSans-6c" x="953.669922"/>
     <use xlink:href="#DejaVuSans-65" x="981.453125"/>
    </g>
   </g>
   <g id="legend_1">
    <g id="line2d_31">
     <path d="M 524.56 39.978437 
L 534.56 39.978437 
L 544.56 39.978437 
" style="fill: none; stroke: #1f77b4; stroke-width: 1.5; stroke-linecap: square"/>
    </g>
    <g id="text_20">
     <!-- Node -->
     <g transform="translate(552.56 43.478437)scale(0.1 -0.1)">
      <use xlink:href="#DejaVuSans-4e"/>
      <use xlink:href="#DejaVuSans-6f" x="74.804688"/>
      <use xlink:href="#DejaVuSans-64" x="135.986328"/>
      <use xlink:href="#DejaVuSans-65" x="199.462891"/>
     </g>
    </g>
    <g id="line2d_32">
     <path d="M 524.56 54.656563 
L 534.56 54.656563 
L 544.56 54.656563 
" style="fill: none; stroke: #ff7f0e; stroke-width: 1.5; stroke-linecap: square"/>
    </g>
    <g id="text_21">
     <!-- Node + surprisal -->
     <g transform="translate(552.56 58.156563)scale(0.1 -0.1)">
      <defs>
       <path id="DejaVuSans-2b" d="M 2944 4013 
L 2944 2272 
L 4684 2272 
L 4684 1741 
L 2944 1741 
L 2944 0 
L 2419 0 
L 2419 1741 
L 678 1741 
L 678 2272 
L 2419 2272 
L 2419 4013 
L 2944 4013 
z
" transform="scale(0.015625)"/>
      </defs>
      <use xlink:href="#DejaVuSans-4e"/>
      <use xlink:href="#DejaVuSans-6f" x="74.804688"/>
      <use xlink:href="#DejaVuSans-64" x="135.986328"/>
      <use xlink:href="#DejaVuSans-65" x="199.462891"/>
      <use xlink:href="#DejaVuSans-20" x="260.986328"/>
      <use xlink:href="#DejaVuSans-2b" x="292.773438"/>
      <use xlink:href="#DejaVuSans-20" x="376.5625"/>
      <use xlink:href="#DejaVuSans-73" x="408.349609"/>
      <use xlink:href="#DejaVuSans-75" x="460.449219"/>
      <use xlink:href="#DejaVuSans-72" x="523.828125"/>
      <use xlink:href="#DejaVuSans-70" x="564.941406"/>
      <use xlink:href="#DejaVuSans-72" x="628.417969"/>
      <use xlink:href="#DejaVuSans-69" x="669.53125"/>
      <use xlink:href="#DejaVuSans-73" x="697.314453"/>
      <use xlink:href="#DejaVuSans-61" x="749.414062"/>
      <use xlink:href="#DejaVuSans-6c" x="810.693359"/>
     </g>
    </g>
    <g id="line2d_33">
     <path d="M 524.56 69.334687 
L 534.56 69.334687 
L 544.56 69.334687 
" style="fill: none; stroke: #2ca02c; stroke-width: 1.5; stroke-linecap: square"/>
    </g>
    <g id="text_22">
     <!-- Node split -->
     <g transform="translate(552.56 72.834687)scale(0.1 -0.1)">
      <use xlink:href="#DejaVuSans-4e"/>
      <use xlink:href="#DejaVuSans-6f" x="74.804688"/>
      <use xlink:href="#DejaVuSans-64" x="135.986328"/>
      <use xlink:href="#DejaVuSans-65" x="199.462891"/>
      <use xlink:href="#DejaVuSans-20" x="260.986328"/>
      <use xlink:href="#DejaVuSans-73" x="292.773438"/>
      <use xlink:href="#DejaVuSans-70" x="344.873047"/>
      <use xlink:href="#DejaVuSans-6c" x="408.349609"/>
      <use xlink:href="#DejaVuSans-69" x="436.132812"/>
      <use xlink:href="#DejaVuSans-74" x="463.916016"/>
     </g>
    </g>
    <g id="line2d_34">
     <path d="M 524.56 84.012812 
L 534.56 84.012812 
L 544.56 84.012812 
" style="fill: none; stroke: #d62728; stroke-width: 1.5; stroke-linecap: square"/>
    </g>
    <g id="text_23">
     <!-- Node split + surprisal -->
     <g transform="translate(552.56 87.512812)scale(0.1 -0.1)">
      <use xlink:href="#DejaVuSans-4e"/>
      <use xlink:href="#DejaVuSans-6f" x="74.804688"/>
      <use xlink:href="#DejaVuSans-64" x="135.986328"/>
      <use xlink:href="#DejaVuSans-65" x="199.462891"/>
      <use xlink:href="#DejaVuSans-20" x="260.986328"/>
      <use xlink:href="#DejaVuSans-73" x="292.773438"/>
      <use xlink:href="#DejaVuSans-70" x="344.873047"/>
      <use xlink:href="#DejaVuSans-6c" x="408.349609"/>
      <use xlink:href="#DejaVuSans-69" x="436.132812"/>
      <use xlink:href="#DejaVuSans-74" x="463.916016"/>
      <use xlink:href="#DejaVuSans-20" x="503.125"/>
      <use xlink:href="#DejaVuSans-2b" x="534.912109"/>
      <use xlink:href="#DejaVuSans-20" x="618.701172"/>
      <use xlink:href="#DejaVuSans-73" x="650.488281"/>
      <use xlink:href="#DejaVuSans-75" x="702.587891"/>
      <use xlink:href="#DejaVuSans-72" x="765.966797"/>
      <use xlink:href="#DejaVuSans-70" x="807.080078"/>
      <use xlink:href="#DejaVuSans-72" x="870.556641"/>
      <use xlink:href="#DejaVuSans-69" x="911.669922"/>
      <use xlink:href="#DejaVuSans-73" x="939.453125"/>
      <use xlink:href="#DejaVuSans-61" x="991.552734"/>
      <use xlink:href="#DejaVuSans-6c" x="1052.832031"/>
     </g>
    </g>
    <g id="line2d_35">
     <path d="M 524.56 98.690937 
L 534.56 98.690937 
L 544.56 98.690937 
" style="fill: none; stroke: #9467bd; stroke-width: 1.5; stroke-linecap: square"/>
    </g>
    <g id="text_24">
     <!-- Node random split -->
     <g transform="translate(552.56 102.190937)scale(0.1 -0.1)">
      <use xlink:href="#DejaVuSans-4e"/>
      <use xlink:href="#DejaVuSans-6f" x="74.804688"/>
      <use xlink:href="#DejaVuSans-64" x="135.986328"/>
      <use xlink:href="#DejaVuSans-65" x="199.462891"/>
      <use xlink:href="#DejaVuSans-20" x="260.986328"/>
      <use xlink:href="#DejaVuSans-72" x="292.773438"/>
      <use xlink:href="#DejaVuSans-61" x="333.886719"/>
      <use xlink:href="#DejaVuSans-6e" x="395.166016"/>
      <use xlink:href="#DejaVuSans-64" x="458.544922"/>
      <use xlink:href="#DejaVuSans-6f" x="522.021484"/>
      <use xlink:href="#DejaVuSans-6d" x="583.203125"/>
      <use xlink:href="#DejaVuSans-20" x="680.615234"/>
      <use xlink:href="#DejaVuSans-73" x="712.402344"/>
      <use xlink:href="#DejaVuSans-70" x="764.501953"/>
      <use xlink:href="#DejaVuSans-6c" x="827.978516"/>
      <use xlink:href="#DejaVuSans-69" x="855.761719"/>
      <use xlink:href="#DejaVuSans-74" x="883.544922"/>
     </g>
    </g>
    <g id="line2d_36">
     <path d="M 524.56 113.369062 
L 534.56 113.369062 
L 544.56 113.369062 
" style="fill: none; stroke: #8c564b; stroke-width: 1.5; stroke-linecap: square"/>
    </g>
    <g id="text_25">
     <!-- Node random split + surprisal -->
     <g transform="translate(552.56 116.869062)scale(0.1 -0.1)">
      <use xlink:href="#DejaVuSans-4e"/>
      <use xlink:href="#DejaVuSans-6f" x="74.804688"/>
      <use xlink:href="#DejaVuSans-64" x="135.986328"/>
      <use xlink:href="#DejaVuSans-65" x="199.462891"/>
      <use xlink:href="#DejaVuSans-20" x="260.986328"/>
      <use xlink:href="#DejaVuSans-72" x="292.773438"/>
      <use xlink:href="#DejaVuSans-61" x="333.886719"/>
      <use xlink:href="#DejaVuSans-6e" x="395.166016"/>
      <use xlink:href="#DejaVuSans-64" x="458.544922"/>
      <use xlink:href="#DejaVuSans-6f" x="522.021484"/>
      <use xlink:href="#DejaVuSans-6d" x="583.203125"/>
      <use xlink:href="#DejaVuSans-20" x="680.615234"/>
      <use xlink:href="#DejaVuSans-73" x="712.402344"/>
      <use xlink:href="#DejaVuSans-70" x="764.501953"/>
      <use xlink:href="#DejaVuSans-6c" x="827.978516"/>
      <use xlink:href="#DejaVuSans-69" x="855.761719"/>
      <use xlink:href="#DejaVuSans-74" x="883.544922"/>
      <use xlink:href="#DejaVuSans-20" x="922.753906"/>
      <use xlink:href="#DejaVuSans-2b" x="954.541016"/>
      <use xlink:href="#DejaVuSans-20" x="1038.330078"/>
      <use xlink:href="#DejaVuSans-73" x="1070.117188"/>
      <use xlink:href="#DejaVuSans-75" x="1122.216797"/>
      <use xlink:href="#DejaVuSans-72" x="1185.595703"/>
      <use xlink:href="#DejaVuSans-70" x="1226.708984"/>
      <use xlink:href="#DejaVuSans-72" x="1290.185547"/>
      <use xlink:href="#DejaVuSans-69" x="1331.298828"/>
      <use xlink:href="#DejaVuSans-73" x="1359.082031"/>
      <use xlink:href="#DejaVuSans-61" x="1411.181641"/>
      <use xlink:href="#DejaVuSans-6c" x="1472.460938"/>
     </g>
    </g>
    <g id="line2d_37">
     <path d="M 524.56 128.047187 
L 534.56 128.047187 
L 544.56 128.047187 
" style="fill: none; stroke: #e377c2; stroke-width: 1.5; stroke-linecap: square"/>
    </g>
    <g id="text_26">
     <!-- Interaction -->
     <g transform="translate(552.56 131.547187)scale(0.1 -0.1)">
      <use xlink:href="#DejaVuSans-49"/>
      <use xlink:href="#DejaVuSans-6e" x="29.492188"/>
      <use xlink:href="#DejaVuSans-74" x="92.871094"/>
      <use xlink:href="#DejaVuSans-65" x="132.080078"/>
      <use xlink:href="#DejaVuSans-72" x="193.603516"/>
      <use xlink:href="#DejaVuSans-61" x="234.716797"/>
      <use xlink:href="#DejaVuSans-63" x="295.996094"/>
      <use xlink:href="#DejaVuSans-74" x="350.976562"/>
      <use xlink:href="#DejaVuSans-69" x="390.185547"/>
      <use xlink:href="#DejaVuSans-6f" x="417.96875"/>
      <use xlink:href="#DejaVuSans-6e" x="479.150391"/>
     </g>
    </g>
    <g id="line2d_38">
     <path d="M 524.56 142.725312 
L 534.56 142.725312 
L 544.56 142.725312 
" style="fill: none; stroke: #7f7f7f; stroke-width: 1.5; stroke-linecap: square"/>
    </g>
    <g id="text_27">
     <!-- Node + surprisal + interaction -->
     <g transform="translate(552.56 146.225312)scale(0.1 -0.1)">
      <use xlink:href="#DejaVuSans-4e"/>
      <use xlink:href="#DejaVuSans-6f" x="74.804688"/>
      <use xlink:href="#DejaVuSans-64" x="135.986328"/>
      <use xlink:href="#DejaVuSans-65" x="199.462891"/>
      <use xlink:href="#DejaVuSans-20" x="260.986328"/>
      <use xlink:href="#DejaVuSans-2b" x="292.773438"/>
      <use xlink:href="#DejaVuSans-20" x="376.5625"/>
      <use xlink:href="#DejaVuSans-73" x="408.349609"/>
      <use xlink:href="#DejaVuSans-75" x="460.449219"/>
      <use xlink:href="#DejaVuSans-72" x="523.828125"/>
      <use xlink:href="#DejaVuSans-70" x="564.941406"/>
      <use xlink:href="#DejaVuSans-72" x="628.417969"/>
      <use xlink:href="#DejaVuSans-69" x="669.53125"/>
      <use xlink:href="#DejaVuSans-73" x="697.314453"/>
      <use xlink:href="#DejaVuSans-61" x="749.414062"/>
      <use xlink:href="#DejaVuSans-6c" x="810.693359"/>
      <use xlink:href="#DejaVuSans-20" x="838.476562"/>
      <use xlink:href="#DejaVuSans-2b" x="870.263672"/>
      <use xlink:href="#DejaVuSans-20" x="954.052734"/>
      <use xlink:href="#DejaVuSans-69" x="985.839844"/>
      <use xlink:href="#DejaVuSans-6e" x="1013.623047"/>
      <use xlink:href="#DejaVuSans-74" x="1077.001953"/>
      <use xlink:href="#DejaVuSans-65" x="1116.210938"/>
      <use xlink:href="#DejaVuSans-72" x="1177.734375"/>
      <use xlink:href="#DejaVuSans-61" x="1218.847656"/>
      <use xlink:href="#DejaVuSans-63" x="1280.126953"/>
      <use xlink:href="#DejaVuSans-74" x="1335.107422"/>
      <use xlink:href="#DejaVuSans-69" x="1374.316406"/>
      <use xlink:href="#DejaVuSans-6f" x="1402.099609"/>
      <use xlink:href="#DejaVuSans-6e" x="1463.28125"/>
     </g>
    </g>
   </g>
  </g>
 </g>
 <defs>
  <clipPath id="p3e22377747">
   <rect x="47.72" y="26.88" width="217.495" height="147.16"/>
  </clipPath>
  <clipPath id="p3ab6f44360">
   <rect x="298.065" y="26.88" width="217.495" height="147.16"/>
  </clipPath>
 </defs>
</svg>
