<?xml version="1.0" encoding="utf-8" standalone="no"?>
<!DOCTYPE svg PUBLIC "-//W3C//DTD SVG 1.1//EN"
  "http://www.w3.org/Graphics/SVG/1.1/DTD/svg11.dtd">
<svg xmlns:xlink="http://www.w3.org/1999/xlink" width="720pt" height="216pt" viewBox="0 0 720 216" xmlns="http://www.w3.org/2000/svg" version="1.1">
 <metadata>
  <rdf:RDF xmlns:dc="http://purl.org/dc/elements/1.1/" xmlns:cc="http://creativecommons.org/ns#" xmlns:rdf="http://www.w3.org/1999/02/22-rdf-syntax-ns#">
   <cc:Work>
    <dc:type rdf:resource="http://purl.org/dc/dcmitype/StillImage"/>
    <dc:date>2024-01-16T04:21:03.729714</dc:date>
    <dc:format>image/svg+xml</dc:format>
    <dc:creator>
     <cc:Agent>
      <dc:title>Matplotlib v3.5.1, https://matplotlib.org/</dc:title>
     </cc:Agent>
    </dc:creator>
   </cc:Work>
  </rdf:RDF>
 </metadata>
 <defs>
  <style type="text/css">*{stroke-linejoin: round; stroke-linecap: butt}</style>
 </defs>
 <g id="figure_1">
  <g id="patch_1">
   <path d="M 0 216 
L 720 216 
L 720 0 
L 0 0 
z
" style="fill: #ffffff"/>
  </g>
  <g id="axes_1">
   <g id="patch_2">
    <path d="M 47.72 174.04 
L 265.215 174.04 
L 265.215 26.88 
L 47.72 26.88 
z
" style="fill: #ffffff"/>
   </g>
   <g id="PolyCollection_1">
    <path d="M 47.72 33.569091 
L 47.72 34.228616 
L 59.167105 36.387855 
L 70.614211 42.383061 
L 82.061316 50.505063 
L 93.508421 60.239033 
L 104.955526 70.408293 
L 116.402632 81.631601 
L 127.849737 92.675704 
L 139.296842 101.949723 
L 150.743947 110.981861 
L 162.191053 118.847585 
L 173.638158 125.784316 
L 185.085263 133.006862 
L 196.532368 137.901561 
L 207.979474 142.492073 
L 219.426579 148.159141 
L 230.873684 151.917501 
L 242.320789 155.114746 
L 253.767895 157.755514 
L 265.215 160.18497 
L 265.215 148.274954 
L 265.215 148.274954 
L 253.767895 145.055401 
L 242.320789 142.248277 
L 230.873684 138.595381 
L 219.426579 135.37479 
L 207.979474 130.279551 
L 196.532368 125.9072 
L 185.085263 120.564297 
L 173.638158 115.132027 
L 162.191053 107.651861 
L 150.743947 100.124138 
L 139.296842 91.779799 
L 127.849737 82.629066 
L 116.402632 73.117994 
L 104.955526 63.968571 
L 93.508421 55.558074 
L 82.061316 47.182573 
L 70.614211 40.53025 
L 59.167105 35.517746 
L 47.72 33.569091 
z
" clip-path="url(#p457a789c7a)" style="fill: #1f77b4; fill-opacity: 0.4"/>
   </g>
   <g id="PolyCollection_2">
    <path d="M 47.72 33.580901 
L 47.72 34.235267 
L 59.167105 35.696951 
L 70.614211 39.157837 
L 82.061316 44.00637 
L 93.508421 50.794681 
L 104.955526 58.616498 
L 116.402632 67.5936 
L 127.849737 77.095168 
L 139.296842 85.558536 
L 150.743947 94.446043 
L 162.191053 102.647401 
L 173.638158 109.158866 
L 185.085263 117.18417 
L 196.532368 122.976041 
L 207.979474 129.265444 
L 219.426579 135.564412 
L 230.873684 140.188396 
L 242.320789 145.175163 
L 253.767895 148.83019 
L 265.215 151.881749 
L 265.215 138.327618 
L 265.215 138.327618 
L 253.767895 134.637737 
L 242.320789 131.190429 
L 230.873684 126.852329 
L 219.426579 122.832559 
L 207.979474 116.613639 
L 196.532368 111.430342 
L 185.085263 104.87499 
L 173.638158 99.665997 
L 162.191053 90.931919 
L 150.743947 83.139493 
L 139.296842 75.655632 
L 127.849737 67.820017 
L 116.402632 60.112384 
L 104.955526 52.827507 
L 93.508421 46.677623 
L 82.061316 41.340295 
L 70.614211 37.449285 
L 59.167105 34.910448 
L 47.72 33.580901 
z
" clip-path="url(#p457a789c7a)" style="fill: #ff7f0e; fill-opacity: 0.4"/>
   </g>
   <g id="PolyCollection_3">
    <path d="M 47.72 33.581772 
L 47.72 34.235736 
L 59.167105 35.924459 
L 70.614211 38.691368 
L 82.061316 42.507072 
L 93.508421 46.692803 
L 104.955526 51.490576 
L 116.402632 56.257917 
L 127.849737 61.591552 
L 139.296842 66.351807 
L 150.743947 71.702294 
L 162.191053 76.476912 
L 173.638158 80.975158 
L 185.085263 86.655662 
L 196.532368 91.294796 
L 207.979474 95.812721 
L 219.426579 101.558927 
L 230.873684 105.377809 
L 242.320789 110.403769 
L 253.767895 113.902212 
L 265.215 117.400839 
L 265.215 106.67276 
L 265.215 106.67276 
L 253.767895 103.26187 
L 242.320789 99.206776 
L 230.873684 96.188308 
L 219.426579 92.071777 
L 207.979474 87.562236 
L 196.532368 82.869448 
L 185.085263 77.934933 
L 173.638158 74.242532 
L 162.191053 69.534221 
L 150.743947 64.129911 
L 139.296842 59.87568 
L 127.849737 54.944715 
L 116.402632 50.766685 
L 104.955526 46.553889 
L 93.508421 43.242479 
L 82.061316 39.680262 
L 70.614211 37.487059 
L 59.167105 35.169776 
L 47.72 33.581772 
z
" clip-path="url(#p457a789c7a)" style="fill: #2ca02c; fill-opacity: 0.4"/>
   </g>
   <g id="PolyCollection_4">
    <path d="M 47.72 33.593138 
L 47.72 34.248712 
L 59.167105 35.617101 
L 70.614211 37.821092 
L 82.061316 40.740388 
L 93.508421 44.568291 
L 104.955526 49.096235 
L 116.402632 53.964663 
L 127.849737 59.531655 
L 139.296842 64.382864 
L 150.743947 70.024031 
L 162.191053 74.973114 
L 173.638158 79.693772 
L 185.085263 85.458414 
L 196.532368 90.240011 
L 207.979474 94.647474 
L 219.426579 100.318059 
L 230.873684 103.857643 
L 242.320789 108.433733 
L 253.767895 111.584157 
L 265.215 114.677906 
L 265.215 104.941965 
L 265.215 104.941965 
L 253.767895 101.433957 
L 242.320789 97.494788 
L 230.873684 94.591923 
L 219.426579 90.701319 
L 207.979474 86.413656 
L 196.532368 81.597436 
L 185.085263 76.634505 
L 173.638158 72.87076 
L 162.191053 68.001015 
L 150.743947 62.582151 
L 139.296842 58.192358 
L 127.849737 53.126663 
L 116.402632 48.961618 
L 104.955526 44.811317 
L 93.508421 41.644615 
L 82.061316 38.540066 
L 70.614211 36.595162 
L 59.167105 34.902098 
L 47.72 33.593138 
z
" clip-path="url(#p457a789c7a)" style="fill: #d62728; fill-opacity: 0.4"/>
   </g>
   <g id="PolyCollection_5">
    <path d="M 47.72 33.574612 
L 47.72 34.245543 
L 59.167105 36.40106 
L 70.614211 42.366293 
L 82.061316 50.574634 
L 93.508421 60.396477 
L 104.955526 70.585865 
L 116.402632 81.66211 
L 127.849737 92.604765 
L 139.296842 102.353476 
L 150.743947 111.208148 
L 162.191053 119.048684 
L 173.638158 125.628486 
L 185.085263 133.418818 
L 196.532368 137.58514 
L 207.979474 143.733485 
L 219.426579 148.529618 
L 230.873684 152.372667 
L 242.320789 156.094048 
L 253.767895 158.874768 
L 265.215 159.184402 
L 265.215 149.027519 
L 265.215 149.027519 
L 253.767895 145.231279 
L 242.320789 141.887424 
L 230.873684 138.275263 
L 219.426579 136.454138 
L 207.979474 130.248971 
L 196.532368 125.512163 
L 185.085263 121.085196 
L 173.638158 115.186806 
L 162.191053 108.099354 
L 150.743947 100.200583 
L 139.296842 91.693571 
L 127.849737 82.68792 
L 116.402632 73.07683 
L 104.955526 64.140463 
L 93.508421 55.588085 
L 82.061316 47.255751 
L 70.614211 40.548659 
L 59.167105 35.529801 
L 47.72 33.574612 
z
" clip-path="url(#p457a789c7a)" style="fill: #9467bd; fill-opacity: 0.4"/>
   </g>
   <g id="PolyCollection_6">
    <path d="M 47.72 33.586649 
L 47.72 34.253062 
L 59.167105 35.698848 
L 70.614211 39.169337 
L 82.061316 44.054676 
L 93.508421 50.889688 
L 104.955526 58.729403 
L 116.402632 67.746718 
L 127.849737 77.082276 
L 139.296842 85.889407 
L 150.743947 94.720191 
L 162.191053 102.878155 
L 173.638158 109.228235 
L 185.085263 117.502287 
L 196.532368 122.999998 
L 207.979474 130.388078 
L 219.426579 135.907256 
L 230.873684 140.520423 
L 242.320789 145.875796 
L 253.767895 149.788708 
L 265.215 151.139358 
L 265.215 138.969026 
L 265.215 138.969026 
L 253.767895 134.714675 
L 242.320789 130.918928 
L 230.873684 126.558539 
L 219.426579 123.474026 
L 207.979474 116.505278 
L 196.532368 111.298267 
L 185.085263 105.25833 
L 173.638158 99.677569 
L 162.191053 91.263887 
L 150.743947 83.155688 
L 139.296842 75.744245 
L 127.849737 67.921794 
L 116.402632 60.164201 
L 104.955526 52.896831 
L 93.508421 46.693978 
L 82.061316 41.386446 
L 70.614211 37.465776 
L 59.167105 34.924242 
L 47.72 33.586649 
z
" clip-path="url(#p457a789c7a)" style="fill: #8c564b; fill-opacity: 0.4"/>
   </g>
   <g id="PolyCollection_7">
    <path d="M 47.72 44.861831 
L 47.72 47.139145 
L 59.167105 50.011066 
L 70.614211 57.208922 
L 82.061316 66.841382 
L 93.508421 77.68994 
L 104.955526 88.681654 
L 116.402632 100.56731 
L 127.849737 110.970019 
L 139.296842 120.256513 
L 150.743947 128.796558 
L 162.191053 136.371696 
L 173.638158 142.629791 
L 185.085263 148.484091 
L 196.532368 152.300254 
L 207.979474 155.469773 
L 219.426579 159.336406 
L 230.873684 161.703239 
L 242.320789 163.91198 
L 253.767895 165.758726 
L 265.215 167.350909 
L 265.215 160.336355 
L 265.215 160.336355 
L 253.767895 158.009036 
L 242.320789 155.456791 
L 230.873684 152.89623 
L 219.426579 149.464368 
L 207.979474 144.788965 
L 196.532368 140.518221 
L 185.085263 135.747755 
L 173.638158 129.647397 
L 162.191053 122.769495 
L 150.743947 115.435975 
L 139.296842 106.859525 
L 127.849737 97.628864 
L 116.402632 88.430644 
L 104.955526 79.018999 
L 93.508421 69.74167 
L 82.061316 60.301707 
L 70.614211 52.490674 
L 59.167105 47.14869 
L 47.72 44.861831 
z
" clip-path="url(#p457a789c7a)" style="fill: #e377c2; fill-opacity: 0.4"/>
   </g>
   <g id="PolyCollection_8">
    <path d="M 47.72 33.591912 
L 47.72 34.245356 
L 59.167105 34.976806 
L 70.614211 35.738599 
L 82.061316 38.046716 
L 93.508421 42.90665 
L 104.955526 48.414061 
L 116.402632 54.644652 
L 127.849737 63.03488 
L 139.296842 70.581848 
L 150.743947 80.36336 
L 162.191053 88.678577 
L 173.638158 96.209289 
L 185.085263 105.166843 
L 196.532368 111.75999 
L 207.979474 119.028195 
L 219.426579 125.820958 
L 230.873684 131.21472 
L 242.320789 136.773492 
L 253.767895 140.885303 
L 265.215 144.376771 
L 265.215 133.140826 
L 265.215 133.140826 
L 253.767895 128.797807 
L 242.320789 124.475511 
L 230.873684 119.438553 
L 219.426579 114.631032 
L 207.979474 107.272556 
L 196.532368 101.282372 
L 185.085263 93.839711 
L 173.638158 87.732452 
L 162.191053 78.897602 
L 150.743947 71.100222 
L 139.296842 64.467372 
L 127.849737 56.9452 
L 116.402632 49.901752 
L 104.955526 43.391211 
L 93.508421 39.10485 
L 82.061316 36.284919 
L 70.614211 34.989387 
L 59.167105 34.418155 
L 47.72 33.591912 
z
" clip-path="url(#p457a789c7a)" style="fill: #7f7f7f; fill-opacity: 0.4"/>
   </g>
   <g id="matplotlib.axis_1">
    <g id="xtick_1">
     <g id="line2d_1">
      <defs>
       <path id="m8a8239a100" d="M 0 0 
L 0 3.5 
" style="stroke: #000000; stroke-width: 0.8"/>
      </defs>
      <g>
       <use xlink:href="#m8a8239a100" x="47.72" y="174.04" style="stroke: #000000; stroke-width: 0.8"/>
      </g>
     </g>
     <g id="text_1">
      <!-- 0.0 -->
      <g transform="translate(39.768438 188.638438)scale(0.1 -0.1)">
       <defs>
        <path id="DejaVuSans-30" d="M 2034 4250 
Q 1547 4250 1301 3770 
Q 1056 3291 1056 2328 
Q 1056 1369 1301 889 
Q 1547 409 2034 409 
Q 2525 409 2770 889 
Q 3016 1369 3016 2328 
Q 3016 3291 2770 3770 
Q 2525 4250 2034 4250 
z
M 2034 4750 
Q 2819 4750 3233 4129 
Q 3647 3509 3647 2328 
Q 3647 1150 3233 529 
Q 2819 -91 2034 -91 
Q 1250 -91 836 529 
Q 422 1150 422 2328 
Q 422 3509 836 4129 
Q 1250 4750 2034 4750 
z
" transform="scale(0.015625)"/>
        <path id="DejaVuSans-2e" d="M 684 794 
L 1344 794 
L 1344 0 
L 684 0 
L 684 794 
z
" transform="scale(0.015625)"/>
       </defs>
       <use xlink:href="#DejaVuSans-30"/>
       <use xlink:href="#DejaVuSans-2e" x="63.623047"/>
       <use xlink:href="#DejaVuSans-30" x="95.410156"/>
      </g>
     </g>
    </g>
    <g id="xtick_2">
     <g id="line2d_2">
      <g>
       <use xlink:href="#m8a8239a100" x="102.09375" y="174.04" style="stroke: #000000; stroke-width: 0.8"/>
      </g>
     </g>
     <g id="text_2">
      <!-- 0.5 -->
      <g transform="translate(94.142188 188.638438)scale(0.1 -0.1)">
       <defs>
        <path id="DejaVuSans-35" d="M 691 4666 
L 3169 4666 
L 3169 4134 
L 1269 4134 
L 1269 2991 
Q 1406 3038 1543 3061 
Q 1681 3084 1819 3084 
Q 2600 3084 3056 2656 
Q 3513 2228 3513 1497 
Q 3513 744 3044 326 
Q 2575 -91 1722 -91 
Q 1428 -91 1123 -41 
Q 819 9 494 109 
L 494 744 
Q 775 591 1075 516 
Q 1375 441 1709 441 
Q 2250 441 2565 725 
Q 2881 1009 2881 1497 
Q 2881 1984 2565 2268 
Q 2250 2553 1709 2553 
Q 1456 2553 1204 2497 
Q 953 2441 691 2322 
L 691 4666 
z
" transform="scale(0.015625)"/>
       </defs>
       <use xlink:href="#DejaVuSans-30"/>
       <use xlink:href="#DejaVuSans-2e" x="63.623047"/>
       <use xlink:href="#DejaVuSans-35" x="95.410156"/>
      </g>
     </g>
    </g>
    <g id="xtick_3">
     <g id="line2d_3">
      <g>
       <use xlink:href="#m8a8239a100" x="156.4675" y="174.04" style="stroke: #000000; stroke-width: 0.8"/>
      </g>
     </g>
     <g id="text_3">
      <!-- 1.0 -->
      <g transform="translate(148.515938 188.638438)scale(0.1 -0.1)">
       <defs>
        <path id="DejaVuSans-31" d="M 794 531 
L 1825 531 
L 1825 4091 
L 703 3866 
L 703 4441 
L 1819 4666 
L 2450 4666 
L 2450 531 
L 3481 531 
L 3481 0 
L 794 0 
L 794 531 
z
" transform="scale(0.015625)"/>
       </defs>
       <use xlink:href="#DejaVuSans-31"/>
       <use xlink:href="#DejaVuSans-2e" x="63.623047"/>
       <use xlink:href="#DejaVuSans-30" x="95.410156"/>
      </g>
     </g>
    </g>
    <g id="xtick_4">
     <g id="line2d_4">
      <g>
       <use xlink:href="#m8a8239a100" x="210.84125" y="174.04" style="stroke: #000000; stroke-width: 0.8"/>
      </g>
     </g>
     <g id="text_4">
      <!-- 1.5 -->
      <g transform="translate(202.889687 188.638438)scale(0.1 -0.1)">
       <use xlink:href="#DejaVuSans-31"/>
       <use xlink:href="#DejaVuSans-2e" x="63.623047"/>
       <use xlink:href="#DejaVuSans-35" x="95.410156"/>
      </g>
     </g>
    </g>
    <g id="xtick_5">
     <g id="line2d_5">
      <g>
       <use xlink:href="#m8a8239a100" x="265.215" y="174.04" style="stroke: #000000; stroke-width: 0.8"/>
      </g>
     </g>
     <g id="text_5">
      <!-- 2.0 -->
      <g transform="translate(257.263437 188.638438)scale(0.1 -0.1)">
       <defs>
        <path id="DejaVuSans-32" d="M 1228 531 
L 3431 531 
L 3431 0 
L 469 0 
L 469 531 
Q 828 903 1448 1529 
Q 2069 2156 2228 2338 
Q 2531 2678 2651 2914 
Q 2772 3150 2772 3378 
Q 2772 3750 2511 3984 
Q 2250 4219 1831 4219 
Q 1534 4219 1204 4116 
Q 875 4013 500 3803 
L 500 4441 
Q 881 4594 1212 4672 
Q 1544 4750 1819 4750 
Q 2544 4750 2975 4387 
Q 3406 4025 3406 3419 
Q 3406 3131 3298 2873 
Q 3191 2616 2906 2266 
Q 2828 2175 2409 1742 
Q 1991 1309 1228 531 
z
" transform="scale(0.015625)"/>
       </defs>
       <use xlink:href="#DejaVuSans-32"/>
       <use xlink:href="#DejaVuSans-2e" x="63.623047"/>
       <use xlink:href="#DejaVuSans-30" x="95.410156"/>
      </g>
     </g>
    </g>
    <g id="text_6">
     <!-- Influence of surprisal (multiplication) -->
     <g transform="translate(64.320625 202.316563)scale(0.1 -0.1)">
      <defs>
       <path id="DejaVuSans-49" d="M 628 4666 
L 1259 4666 
L 1259 0 
L 628 0 
L 628 4666 
z
" transform="scale(0.015625)"/>
       <path id="DejaVuSans-6e" d="M 3513 2113 
L 3513 0 
L 2938 0 
L 2938 2094 
Q 2938 2591 2744 2837 
Q 2550 3084 2163 3084 
Q 1697 3084 1428 2787 
Q 1159 2491 1159 1978 
L 1159 0 
L 581 0 
L 581 3500 
L 1159 3500 
L 1159 2956 
Q 1366 3272 1645 3428 
Q 1925 3584 2291 3584 
Q 2894 3584 3203 3211 
Q 3513 2838 3513 2113 
z
" transform="scale(0.015625)"/>
       <path id="DejaVuSans-66" d="M 2375 4863 
L 2375 4384 
L 1825 4384 
Q 1516 4384 1395 4259 
Q 1275 4134 1275 3809 
L 1275 3500 
L 2222 3500 
L 2222 3053 
L 1275 3053 
L 1275 0 
L 697 0 
L 697 3053 
L 147 3053 
L 147 3500 
L 697 3500 
L 697 3744 
Q 697 4328 969 4595 
Q 1241 4863 1831 4863 
L 2375 4863 
z
" transform="scale(0.015625)"/>
       <path id="DejaVuSans-6c" d="M 603 4863 
L 1178 4863 
L 1178 0 
L 603 0 
L 603 4863 
z
" transform="scale(0.015625)"/>
       <path id="DejaVuSans-75" d="M 544 1381 
L 544 3500 
L 1119 3500 
L 1119 1403 
Q 1119 906 1312 657 
Q 1506 409 1894 409 
Q 2359 409 2629 706 
Q 2900 1003 2900 1516 
L 2900 3500 
L 3475 3500 
L 3475 0 
L 2900 0 
L 2900 538 
Q 2691 219 2414 64 
Q 2138 -91 1772 -91 
Q 1169 -91 856 284 
Q 544 659 544 1381 
z
M 1991 3584 
L 1991 3584 
z
" transform="scale(0.015625)"/>
       <path id="DejaVuSans-65" d="M 3597 1894 
L 3597 1613 
L 953 1613 
Q 991 1019 1311 708 
Q 1631 397 2203 397 
Q 2534 397 2845 478 
Q 3156 559 3463 722 
L 3463 178 
Q 3153 47 2828 -22 
Q 2503 -91 2169 -91 
Q 1331 -91 842 396 
Q 353 884 353 1716 
Q 353 2575 817 3079 
Q 1281 3584 2069 3584 
Q 2775 3584 3186 3129 
Q 3597 2675 3597 1894 
z
M 3022 2063 
Q 3016 2534 2758 2815 
Q 2500 3097 2075 3097 
Q 1594 3097 1305 2825 
Q 1016 2553 972 2059 
L 3022 2063 
z
" transform="scale(0.015625)"/>
       <path id="DejaVuSans-63" d="M 3122 3366 
L 3122 2828 
Q 2878 2963 2633 3030 
Q 2388 3097 2138 3097 
Q 1578 3097 1268 2742 
Q 959 2388 959 1747 
Q 959 1106 1268 751 
Q 1578 397 2138 397 
Q 2388 397 2633 464 
Q 2878 531 3122 666 
L 3122 134 
Q 2881 22 2623 -34 
Q 2366 -91 2075 -91 
Q 1284 -91 818 406 
Q 353 903 353 1747 
Q 353 2603 823 3093 
Q 1294 3584 2113 3584 
Q 2378 3584 2631 3529 
Q 2884 3475 3122 3366 
z
" transform="scale(0.015625)"/>
       <path id="DejaVuSans-20" transform="scale(0.015625)"/>
       <path id="DejaVuSans-6f" d="M 1959 3097 
Q 1497 3097 1228 2736 
Q 959 2375 959 1747 
Q 959 1119 1226 758 
Q 1494 397 1959 397 
Q 2419 397 2687 759 
Q 2956 1122 2956 1747 
Q 2956 2369 2687 2733 
Q 2419 3097 1959 3097 
z
M 1959 3584 
Q 2709 3584 3137 3096 
Q 3566 2609 3566 1747 
Q 3566 888 3137 398 
Q 2709 -91 1959 -91 
Q 1206 -91 779 398 
Q 353 888 353 1747 
Q 353 2609 779 3096 
Q 1206 3584 1959 3584 
z
" transform="scale(0.015625)"/>
       <path id="DejaVuSans-73" d="M 2834 3397 
L 2834 2853 
Q 2591 2978 2328 3040 
Q 2066 3103 1784 3103 
Q 1356 3103 1142 2972 
Q 928 2841 928 2578 
Q 928 2378 1081 2264 
Q 1234 2150 1697 2047 
L 1894 2003 
Q 2506 1872 2764 1633 
Q 3022 1394 3022 966 
Q 3022 478 2636 193 
Q 2250 -91 1575 -91 
Q 1294 -91 989 -36 
Q 684 19 347 128 
L 347 722 
Q 666 556 975 473 
Q 1284 391 1588 391 
Q 1994 391 2212 530 
Q 2431 669 2431 922 
Q 2431 1156 2273 1281 
Q 2116 1406 1581 1522 
L 1381 1569 
Q 847 1681 609 1914 
Q 372 2147 372 2553 
Q 372 3047 722 3315 
Q 1072 3584 1716 3584 
Q 2034 3584 2315 3537 
Q 2597 3491 2834 3397 
z
" transform="scale(0.015625)"/>
       <path id="DejaVuSans-72" d="M 2631 2963 
Q 2534 3019 2420 3045 
Q 2306 3072 2169 3072 
Q 1681 3072 1420 2755 
Q 1159 2438 1159 1844 
L 1159 0 
L 581 0 
L 581 3500 
L 1159 3500 
L 1159 2956 
Q 1341 3275 1631 3429 
Q 1922 3584 2338 3584 
Q 2397 3584 2469 3576 
Q 2541 3569 2628 3553 
L 2631 2963 
z
" transform="scale(0.015625)"/>
       <path id="DejaVuSans-70" d="M 1159 525 
L 1159 -1331 
L 581 -1331 
L 581 3500 
L 1159 3500 
L 1159 2969 
Q 1341 3281 1617 3432 
Q 1894 3584 2278 3584 
Q 2916 3584 3314 3078 
Q 3713 2572 3713 1747 
Q 3713 922 3314 415 
Q 2916 -91 2278 -91 
Q 1894 -91 1617 61 
Q 1341 213 1159 525 
z
M 3116 1747 
Q 3116 2381 2855 2742 
Q 2594 3103 2138 3103 
Q 1681 3103 1420 2742 
Q 1159 2381 1159 1747 
Q 1159 1113 1420 752 
Q 1681 391 2138 391 
Q 2594 391 2855 752 
Q 3116 1113 3116 1747 
z
" transform="scale(0.015625)"/>
       <path id="DejaVuSans-69" d="M 603 3500 
L 1178 3500 
L 1178 0 
L 603 0 
L 603 3500 
z
M 603 4863 
L 1178 4863 
L 1178 4134 
L 603 4134 
L 603 4863 
z
" transform="scale(0.015625)"/>
       <path id="DejaVuSans-61" d="M 2194 1759 
Q 1497 1759 1228 1600 
Q 959 1441 959 1056 
Q 959 750 1161 570 
Q 1363 391 1709 391 
Q 2188 391 2477 730 
Q 2766 1069 2766 1631 
L 2766 1759 
L 2194 1759 
z
M 3341 1997 
L 3341 0 
L 2766 0 
L 2766 531 
Q 2569 213 2275 61 
Q 1981 -91 1556 -91 
Q 1019 -91 701 211 
Q 384 513 384 1019 
Q 384 1609 779 1909 
Q 1175 2209 1959 2209 
L 2766 2209 
L 2766 2266 
Q 2766 2663 2505 2880 
Q 2244 3097 1772 3097 
Q 1472 3097 1187 3025 
Q 903 2953 641 2809 
L 641 3341 
Q 956 3463 1253 3523 
Q 1550 3584 1831 3584 
Q 2591 3584 2966 3190 
Q 3341 2797 3341 1997 
z
" transform="scale(0.015625)"/>
       <path id="DejaVuSans-28" d="M 1984 4856 
Q 1566 4138 1362 3434 
Q 1159 2731 1159 2009 
Q 1159 1288 1364 580 
Q 1569 -128 1984 -844 
L 1484 -844 
Q 1016 -109 783 600 
Q 550 1309 550 2009 
Q 550 2706 781 3412 
Q 1013 4119 1484 4856 
L 1984 4856 
z
" transform="scale(0.015625)"/>
       <path id="DejaVuSans-6d" d="M 3328 2828 
Q 3544 3216 3844 3400 
Q 4144 3584 4550 3584 
Q 5097 3584 5394 3201 
Q 5691 2819 5691 2113 
L 5691 0 
L 5113 0 
L 5113 2094 
Q 5113 2597 4934 2840 
Q 4756 3084 4391 3084 
Q 3944 3084 3684 2787 
Q 3425 2491 3425 1978 
L 3425 0 
L 2847 0 
L 2847 2094 
Q 2847 2600 2669 2842 
Q 2491 3084 2119 3084 
Q 1678 3084 1418 2786 
Q 1159 2488 1159 1978 
L 1159 0 
L 581 0 
L 581 3500 
L 1159 3500 
L 1159 2956 
Q 1356 3278 1631 3431 
Q 1906 3584 2284 3584 
Q 2666 3584 2933 3390 
Q 3200 3197 3328 2828 
z
" transform="scale(0.015625)"/>
       <path id="DejaVuSans-74" d="M 1172 4494 
L 1172 3500 
L 2356 3500 
L 2356 3053 
L 1172 3053 
L 1172 1153 
Q 1172 725 1289 603 
Q 1406 481 1766 481 
L 2356 481 
L 2356 0 
L 1766 0 
Q 1100 0 847 248 
Q 594 497 594 1153 
L 594 3053 
L 172 3053 
L 172 3500 
L 594 3500 
L 594 4494 
L 1172 4494 
z
" transform="scale(0.015625)"/>
       <path id="DejaVuSans-29" d="M 513 4856 
L 1013 4856 
Q 1481 4119 1714 3412 
Q 1947 2706 1947 2009 
Q 1947 1309 1714 600 
Q 1481 -109 1013 -844 
L 513 -844 
Q 928 -128 1133 580 
Q 1338 1288 1338 2009 
Q 1338 2731 1133 3434 
Q 928 4138 513 4856 
z
" transform="scale(0.015625)"/>
      </defs>
      <use xlink:href="#DejaVuSans-49"/>
      <use xlink:href="#DejaVuSans-6e" x="29.492188"/>
      <use xlink:href="#DejaVuSans-66" x="92.871094"/>
      <use xlink:href="#DejaVuSans-6c" x="128.076172"/>
      <use xlink:href="#DejaVuSans-75" x="155.859375"/>
      <use xlink:href="#DejaVuSans-65" x="219.238281"/>
      <use xlink:href="#DejaVuSans-6e" x="280.761719"/>
      <use xlink:href="#DejaVuSans-63" x="344.140625"/>
      <use xlink:href="#DejaVuSans-65" x="399.121094"/>
      <use xlink:href="#DejaVuSans-20" x="460.644531"/>
      <use xlink:href="#DejaVuSans-6f" x="492.431641"/>
      <use xlink:href="#DejaVuSans-66" x="553.613281"/>
      <use xlink:href="#DejaVuSans-20" x="588.818359"/>
      <use xlink:href="#DejaVuSans-73" x="620.605469"/>
      <use xlink:href="#DejaVuSans-75" x="672.705078"/>
      <use xlink:href="#DejaVuSans-72" x="736.083984"/>
      <use xlink:href="#DejaVuSans-70" x="777.197266"/>
      <use xlink:href="#DejaVuSans-72" x="840.673828"/>
      <use xlink:href="#DejaVuSans-69" x="881.787109"/>
      <use xlink:href="#DejaVuSans-73" x="909.570312"/>
      <use xlink:href="#DejaVuSans-61" x="961.669922"/>
      <use xlink:href="#DejaVuSans-6c" x="1022.949219"/>
      <use xlink:href="#DejaVuSans-20" x="1050.732422"/>
      <use xlink:href="#DejaVuSans-28" x="1082.519531"/>
      <use xlink:href="#DejaVuSans-6d" x="1121.533203"/>
      <use xlink:href="#DejaVuSans-75" x="1218.945312"/>
      <use xlink:href="#DejaVuSans-6c" x="1282.324219"/>
      <use xlink:href="#DejaVuSans-74" x="1310.107422"/>
      <use xlink:href="#DejaVuSans-69" x="1349.316406"/>
      <use xlink:href="#DejaVuSans-70" x="1377.099609"/>
      <use xlink:href="#DejaVuSans-6c" x="1440.576172"/>
      <use xlink:href="#DejaVuSans-69" x="1468.359375"/>
      <use xlink:href="#DejaVuSans-63" x="1496.142578"/>
      <use xlink:href="#DejaVuSans-61" x="1551.123047"/>
      <use xlink:href="#DejaVuSans-74" x="1612.402344"/>
      <use xlink:href="#DejaVuSans-69" x="1651.611328"/>
      <use xlink:href="#DejaVuSans-6f" x="1679.394531"/>
      <use xlink:href="#DejaVuSans-6e" x="1740.576172"/>
      <use xlink:href="#DejaVuSans-29" x="1803.955078"/>
     </g>
    </g>
   </g>
   <g id="matplotlib.axis_2">
    <g id="ytick_1">
     <g id="line2d_6">
      <defs>
       <path id="m145086b3ef" d="M 0 0 
L -3.5 0 
" style="stroke: #000000; stroke-width: 0.8"/>
      </defs>
      <g>
       <use xlink:href="#m145086b3ef" x="47.72" y="153.633908" style="stroke: #000000; stroke-width: 0.8"/>
      </g>
     </g>
     <g id="text_7">
      <!-- 0.2 -->
      <g transform="translate(24.816875 157.433127)scale(0.1 -0.1)">
       <use xlink:href="#DejaVuSans-30"/>
       <use xlink:href="#DejaVuSans-2e" x="63.623047"/>
       <use xlink:href="#DejaVuSans-32" x="95.410156"/>
      </g>
     </g>
    </g>
    <g id="ytick_2">
     <g id="line2d_7">
      <g>
       <use xlink:href="#m145086b3ef" x="47.72" y="121.506071" style="stroke: #000000; stroke-width: 0.8"/>
      </g>
     </g>
     <g id="text_8">
      <!-- 0.4 -->
      <g transform="translate(24.816875 125.30529)scale(0.1 -0.1)">
       <defs>
        <path id="DejaVuSans-34" d="M 2419 4116 
L 825 1625 
L 2419 1625 
L 2419 4116 
z
M 2253 4666 
L 3047 4666 
L 3047 1625 
L 3713 1625 
L 3713 1100 
L 3047 1100 
L 3047 0 
L 2419 0 
L 2419 1100 
L 313 1100 
L 313 1709 
L 2253 4666 
z
" transform="scale(0.015625)"/>
       </defs>
       <use xlink:href="#DejaVuSans-30"/>
       <use xlink:href="#DejaVuSans-2e" x="63.623047"/>
       <use xlink:href="#DejaVuSans-34" x="95.410156"/>
      </g>
     </g>
    </g>
    <g id="ytick_3">
     <g id="line2d_8">
      <g>
       <use xlink:href="#m145086b3ef" x="47.72" y="89.378234" style="stroke: #000000; stroke-width: 0.8"/>
      </g>
     </g>
     <g id="text_9">
      <!-- 0.6 -->
      <g transform="translate(24.816875 93.177453)scale(0.1 -0.1)">
       <defs>
        <path id="DejaVuSans-36" d="M 2113 2584 
Q 1688 2584 1439 2293 
Q 1191 2003 1191 1497 
Q 1191 994 1439 701 
Q 1688 409 2113 409 
Q 2538 409 2786 701 
Q 3034 994 3034 1497 
Q 3034 2003 2786 2293 
Q 2538 2584 2113 2584 
z
M 3366 4563 
L 3366 3988 
Q 3128 4100 2886 4159 
Q 2644 4219 2406 4219 
Q 1781 4219 1451 3797 
Q 1122 3375 1075 2522 
Q 1259 2794 1537 2939 
Q 1816 3084 2150 3084 
Q 2853 3084 3261 2657 
Q 3669 2231 3669 1497 
Q 3669 778 3244 343 
Q 2819 -91 2113 -91 
Q 1303 -91 875 529 
Q 447 1150 447 2328 
Q 447 3434 972 4092 
Q 1497 4750 2381 4750 
Q 2619 4750 2861 4703 
Q 3103 4656 3366 4563 
z
" transform="scale(0.015625)"/>
       </defs>
       <use xlink:href="#DejaVuSans-30"/>
       <use xlink:href="#DejaVuSans-2e" x="63.623047"/>
       <use xlink:href="#DejaVuSans-36" x="95.410156"/>
      </g>
     </g>
    </g>
    <g id="ytick_4">
     <g id="line2d_9">
      <g>
       <use xlink:href="#m145086b3ef" x="47.72" y="57.250397" style="stroke: #000000; stroke-width: 0.8"/>
      </g>
     </g>
     <g id="text_10">
      <!-- 0.8 -->
      <g transform="translate(24.816875 61.049616)scale(0.1 -0.1)">
       <defs>
        <path id="DejaVuSans-38" d="M 2034 2216 
Q 1584 2216 1326 1975 
Q 1069 1734 1069 1313 
Q 1069 891 1326 650 
Q 1584 409 2034 409 
Q 2484 409 2743 651 
Q 3003 894 3003 1313 
Q 3003 1734 2745 1975 
Q 2488 2216 2034 2216 
z
M 1403 2484 
Q 997 2584 770 2862 
Q 544 3141 544 3541 
Q 544 4100 942 4425 
Q 1341 4750 2034 4750 
Q 2731 4750 3128 4425 
Q 3525 4100 3525 3541 
Q 3525 3141 3298 2862 
Q 3072 2584 2669 2484 
Q 3125 2378 3379 2068 
Q 3634 1759 3634 1313 
Q 3634 634 3220 271 
Q 2806 -91 2034 -91 
Q 1263 -91 848 271 
Q 434 634 434 1313 
Q 434 1759 690 2068 
Q 947 2378 1403 2484 
z
M 1172 3481 
Q 1172 3119 1398 2916 
Q 1625 2713 2034 2713 
Q 2441 2713 2670 2916 
Q 2900 3119 2900 3481 
Q 2900 3844 2670 4047 
Q 2441 4250 2034 4250 
Q 1625 4250 1398 4047 
Q 1172 3844 1172 3481 
z
" transform="scale(0.015625)"/>
       </defs>
       <use xlink:href="#DejaVuSans-30"/>
       <use xlink:href="#DejaVuSans-2e" x="63.623047"/>
       <use xlink:href="#DejaVuSans-38" x="95.410156"/>
      </g>
     </g>
    </g>
    <g id="text_11">
     <!-- R-value -->
     <g transform="translate(18.737188 119.064687)rotate(-90)scale(0.1 -0.1)">
      <defs>
       <path id="DejaVuSans-52" d="M 2841 2188 
Q 3044 2119 3236 1894 
Q 3428 1669 3622 1275 
L 4263 0 
L 3584 0 
L 2988 1197 
Q 2756 1666 2539 1819 
Q 2322 1972 1947 1972 
L 1259 1972 
L 1259 0 
L 628 0 
L 628 4666 
L 2053 4666 
Q 2853 4666 3247 4331 
Q 3641 3997 3641 3322 
Q 3641 2881 3436 2590 
Q 3231 2300 2841 2188 
z
M 1259 4147 
L 1259 2491 
L 2053 2491 
Q 2509 2491 2742 2702 
Q 2975 2913 2975 3322 
Q 2975 3731 2742 3939 
Q 2509 4147 2053 4147 
L 1259 4147 
z
" transform="scale(0.015625)"/>
       <path id="DejaVuSans-2d" d="M 313 2009 
L 1997 2009 
L 1997 1497 
L 313 1497 
L 313 2009 
z
" transform="scale(0.015625)"/>
       <path id="DejaVuSans-76" d="M 191 3500 
L 800 3500 
L 1894 563 
L 2988 3500 
L 3597 3500 
L 2284 0 
L 1503 0 
L 191 3500 
z
" transform="scale(0.015625)"/>
      </defs>
      <use xlink:href="#DejaVuSans-52"/>
      <use xlink:href="#DejaVuSans-2d" x="65.482422"/>
      <use xlink:href="#DejaVuSans-76" x="98.941406"/>
      <use xlink:href="#DejaVuSans-61" x="158.121094"/>
      <use xlink:href="#DejaVuSans-6c" x="219.400391"/>
      <use xlink:href="#DejaVuSans-75" x="247.183594"/>
      <use xlink:href="#DejaVuSans-65" x="310.5625"/>
     </g>
    </g>
   </g>
   <g id="line2d_10">
    <path d="M 47.72 33.898853 
L 59.167105 35.9528 
L 70.614211 41.456655 
L 82.061316 48.843818 
L 93.508421 57.898553 
L 104.955526 67.188432 
L 116.402632 77.374797 
L 127.849737 87.652385 
L 139.296842 96.864761 
L 150.743947 105.553 
L 162.191053 113.249723 
L 173.638158 120.458171 
L 185.085263 126.785579 
L 196.532368 131.904381 
L 207.979474 136.385812 
L 219.426579 141.766965 
L 230.873684 145.256441 
L 242.320789 148.681512 
L 253.767895 151.405458 
L 265.215 154.229962 
" clip-path="url(#p457a789c7a)" style="fill: none; stroke: #1f77b4; stroke-width: 1.5; stroke-linecap: square"/>
   </g>
   <g id="line2d_11">
    <path d="M 47.72 33.908084 
L 59.167105 35.303699 
L 70.614211 38.303561 
L 82.061316 42.673332 
L 93.508421 48.736152 
L 104.955526 55.722002 
L 116.402632 63.852992 
L 127.849737 72.457593 
L 139.296842 80.607084 
L 150.743947 88.792768 
L 162.191053 96.78966 
L 173.638158 104.412431 
L 185.085263 111.02958 
L 196.532368 117.203192 
L 207.979474 122.939542 
L 219.426579 129.198485 
L 230.873684 133.520362 
L 242.320789 138.182796 
L 253.767895 141.733963 
L 265.215 145.104683 
" clip-path="url(#p457a789c7a)" style="fill: none; stroke: #ff7f0e; stroke-width: 1.5; stroke-linecap: square"/>
   </g>
   <g id="line2d_12">
    <path d="M 47.72 33.908754 
L 59.167105 35.547117 
L 70.614211 38.089213 
L 82.061316 41.093667 
L 93.508421 44.967641 
L 104.955526 49.022232 
L 116.402632 53.512301 
L 127.849737 58.268134 
L 139.296842 63.113744 
L 150.743947 67.916103 
L 162.191053 73.005567 
L 173.638158 77.608845 
L 185.085263 82.295298 
L 196.532368 87.082122 
L 207.979474 91.687478 
L 219.426579 96.815352 
L 230.873684 100.783058 
L 242.320789 104.805272 
L 253.767895 108.582041 
L 265.215 112.036799 
" clip-path="url(#p457a789c7a)" style="fill: none; stroke: #2ca02c; stroke-width: 1.5; stroke-linecap: square"/>
   </g>
   <g id="line2d_13">
    <path d="M 47.72 33.920925 
L 59.167105 35.259599 
L 70.614211 37.208127 
L 82.061316 39.640227 
L 93.508421 43.106453 
L 104.955526 46.953776 
L 116.402632 51.46314 
L 127.849737 56.329159 
L 139.296842 61.287611 
L 150.743947 66.303091 
L 162.191053 71.487065 
L 173.638158 76.282266 
L 185.085263 81.046459 
L 196.532368 85.918724 
L 207.979474 90.530565 
L 219.426579 95.509689 
L 230.873684 99.224783 
L 242.320789 102.96426 
L 253.767895 106.509057 
L 265.215 109.809935 
" clip-path="url(#p457a789c7a)" style="fill: none; stroke: #d62728; stroke-width: 1.5; stroke-linecap: square"/>
   </g>
   <g id="line2d_14">
    <path d="M 47.72 33.910078 
L 59.167105 35.965431 
L 70.614211 41.457476 
L 82.061316 48.915193 
L 93.508421 57.992281 
L 104.955526 67.363164 
L 116.402632 77.36947 
L 127.849737 87.646342 
L 139.296842 97.023523 
L 150.743947 105.704366 
L 162.191053 113.574019 
L 173.638158 120.407646 
L 185.085263 127.252007 
L 196.532368 131.548651 
L 207.979474 136.991228 
L 219.426579 142.491878 
L 230.873684 145.323965 
L 242.320789 148.990736 
L 253.767895 152.053024 
L 265.215 154.105961 
" clip-path="url(#p457a789c7a)" style="fill: none; stroke: #9467bd; stroke-width: 1.5; stroke-linecap: square"/>
   </g>
   <g id="line2d_15">
    <path d="M 47.72 33.919855 
L 59.167105 35.311545 
L 70.614211 38.317556 
L 82.061316 42.720561 
L 93.508421 48.791833 
L 104.955526 55.813117 
L 116.402632 63.95546 
L 127.849737 72.502035 
L 139.296842 80.816826 
L 150.743947 88.937939 
L 162.191053 97.071021 
L 173.638158 104.452902 
L 185.085263 111.380309 
L 196.532368 117.149133 
L 207.979474 123.446678 
L 219.426579 129.690641 
L 230.873684 133.539481 
L 242.320789 138.397362 
L 253.767895 142.251691 
L 265.215 145.054192 
" clip-path="url(#p457a789c7a)" style="fill: none; stroke: #8c564b; stroke-width: 1.5; stroke-linecap: square"/>
   </g>
   <g id="line2d_16">
    <path d="M 47.72 46.000488 
L 59.167105 48.579878 
L 70.614211 54.849798 
L 82.061316 63.571544 
L 93.508421 73.715805 
L 104.955526 83.850326 
L 116.402632 94.498977 
L 127.849737 104.299442 
L 139.296842 113.558019 
L 150.743947 122.116267 
L 162.191053 129.570596 
L 173.638158 136.138594 
L 185.085263 142.115923 
L 196.532368 146.409237 
L 207.979474 150.129369 
L 219.426579 154.400387 
L 230.873684 157.299734 
L 242.320789 159.684385 
L 253.767895 161.883881 
L 265.215 163.843632 
" clip-path="url(#p457a789c7a)" style="fill: none; stroke: #e377c2; stroke-width: 1.5; stroke-linecap: square"/>
   </g>
   <g id="line2d_17">
    <path d="M 47.72 33.918634 
L 59.167105 34.697481 
L 70.614211 35.363993 
L 82.061316 37.165818 
L 93.508421 41.00575 
L 104.955526 45.902636 
L 116.402632 52.273202 
L 127.849737 59.99004 
L 139.296842 67.52461 
L 150.743947 75.731791 
L 162.191053 83.788089 
L 173.638158 91.970871 
L 185.085263 99.503277 
L 196.532368 106.521181 
L 207.979474 113.150376 
L 219.426579 120.225995 
L 230.873684 125.326636 
L 242.320789 130.624501 
L 253.767895 134.841555 
L 265.215 138.758799 
" clip-path="url(#p457a789c7a)" style="fill: none; stroke: #7f7f7f; stroke-width: 1.5; stroke-linecap: square"/>
   </g>
   <g id="patch_3">
    <path d="M 47.72 174.04 
L 47.72 26.88 
" style="fill: none; stroke: #000000; stroke-width: 0.8; stroke-linejoin: miter; stroke-linecap: square"/>
   </g>
   <g id="patch_4">
    <path d="M 47.72 174.04 
L 265.215 174.04 
" style="fill: none; stroke: #000000; stroke-width: 0.8; stroke-linejoin: miter; stroke-linecap: square"/>
   </g>
   <g id="text_12">
    <!-- Node * surprisal -->
    <g transform="translate(108.18625 20.88)scale(0.12 -0.12)">
     <defs>
      <path id="DejaVuSans-4e" d="M 628 4666 
L 1478 4666 
L 3547 763 
L 3547 4666 
L 4159 4666 
L 4159 0 
L 3309 0 
L 1241 3903 
L 1241 0 
L 628 0 
L 628 4666 
z
" transform="scale(0.015625)"/>
      <path id="DejaVuSans-64" d="M 2906 2969 
L 2906 4863 
L 3481 4863 
L 3481 0 
L 2906 0 
L 2906 525 
Q 2725 213 2448 61 
Q 2172 -91 1784 -91 
Q 1150 -91 751 415 
Q 353 922 353 1747 
Q 353 2572 751 3078 
Q 1150 3584 1784 3584 
Q 2172 3584 2448 3432 
Q 2725 3281 2906 2969 
z
M 947 1747 
Q 947 1113 1208 752 
Q 1469 391 1925 391 
Q 2381 391 2643 752 
Q 2906 1113 2906 1747 
Q 2906 2381 2643 2742 
Q 2381 3103 1925 3103 
Q 1469 3103 1208 2742 
Q 947 2381 947 1747 
z
" transform="scale(0.015625)"/>
      <path id="DejaVuSans-2a" d="M 3009 3897 
L 1888 3291 
L 3009 2681 
L 2828 2375 
L 1778 3009 
L 1778 1831 
L 1422 1831 
L 1422 3009 
L 372 2375 
L 191 2681 
L 1313 3291 
L 191 3897 
L 372 4206 
L 1422 3572 
L 1422 4750 
L 1778 4750 
L 1778 3572 
L 2828 4206 
L 3009 3897 
z
" transform="scale(0.015625)"/>
     </defs>
     <use xlink:href="#DejaVuSans-4e"/>
     <use xlink:href="#DejaVuSans-6f" x="74.804688"/>
     <use xlink:href="#DejaVuSans-64" x="135.986328"/>
     <use xlink:href="#DejaVuSans-65" x="199.462891"/>
     <use xlink:href="#DejaVuSans-20" x="260.986328"/>
     <use xlink:href="#DejaVuSans-2a" x="292.773438"/>
     <use xlink:href="#DejaVuSans-20" x="342.773438"/>
     <use xlink:href="#DejaVuSans-73" x="374.560547"/>
     <use xlink:href="#DejaVuSans-75" x="426.660156"/>
     <use xlink:href="#DejaVuSans-72" x="490.039062"/>
     <use xlink:href="#DejaVuSans-70" x="531.152344"/>
     <use xlink:href="#DejaVuSans-72" x="594.628906"/>
     <use xlink:href="#DejaVuSans-69" x="635.742188"/>
     <use xlink:href="#DejaVuSans-73" x="663.525391"/>
     <use xlink:href="#DejaVuSans-61" x="715.625"/>
     <use xlink:href="#DejaVuSans-6c" x="776.904297"/>
    </g>
   </g>
  </g>
  <g id="axes_2">
   <g id="patch_5">
    <path d="M 298.065 174.04 
L 515.56 174.04 
L 515.56 26.88 
L 298.065 26.88 
z
" style="fill: #ffffff"/>
   </g>
   <g id="PolyCollection_9">
    <path d="M 298.065 33.746524 
L 298.065 34.488466 
L 309.512105 35.89112 
L 320.959211 42.823851 
L 332.406316 50.952431 
L 343.853421 61.276405 
L 355.300526 71.667311 
L 366.747632 82.026331 
L 378.194737 92.356692 
L 389.641842 101.954612 
L 401.088947 110.822409 
L 412.536053 117.761807 
L 423.983158 125.171234 
L 435.430263 130.717857 
L 446.877368 135.637694 
L 458.324474 139.299371 
L 469.771579 143.983731 
L 481.218684 147.660511 
L 492.665789 150.889182 
L 504.112895 153.650551 
L 515.56 155.77685 
L 515.56 148.108706 
L 515.56 148.108706 
L 504.112895 145.062656 
L 492.665789 141.757257 
L 481.218684 137.94514 
L 469.771579 133.226536 
L 458.324474 128.225683 
L 446.877368 122.719083 
L 435.430263 116.760086 
L 423.983158 110.460248 
L 412.536053 103.084488 
L 401.088947 95.543047 
L 389.641842 87.037472 
L 378.194737 79.239194 
L 366.747632 70.729167 
L 355.300526 61.530599 
L 343.853421 53.004115 
L 332.406316 45.812631 
L 320.959211 40.249422 
L 309.512105 35.446471 
L 298.065 33.746524 
z
" clip-path="url(#pe2b61368cf)" style="fill: #1f77b4; fill-opacity: 0.4"/>
   </g>
   <g id="PolyCollection_10">
    <path d="M 298.065 33.758548 
L 298.065 34.500817 
L 309.512105 35.895597 
L 320.959211 42.815487 
L 332.406316 50.951266 
L 343.853421 61.237956 
L 355.300526 71.632345 
L 366.747632 81.953431 
L 378.194737 92.227505 
L 389.641842 101.824542 
L 401.088947 110.656572 
L 412.536053 117.456737 
L 423.983158 124.855145 
L 435.430263 130.40418 
L 446.877368 135.346597 
L 458.324474 138.90785 
L 469.771579 143.590638 
L 481.218684 147.311797 
L 492.665789 150.37341 
L 504.112895 153.158038 
L 515.56 155.58406 
L 515.56 149.470362 
L 515.56 149.470362 
L 504.112895 146.000565 
L 492.665789 142.707494 
L 481.218684 138.619488 
L 469.771579 133.976647 
L 458.324474 128.782862 
L 446.877368 123.381862 
L 435.430263 117.322103 
L 423.983158 111.088145 
L 412.536053 103.597219 
L 401.088947 95.929573 
L 389.641842 87.416446 
L 378.194737 79.480808 
L 366.747632 70.891018 
L 355.300526 61.631134 
L 343.853421 53.051954 
L 332.406316 45.82966 
L 320.959211 40.260857 
L 309.512105 35.457077 
L 298.065 33.758548 
z
" clip-path="url(#pe2b61368cf)" style="fill: #ff7f0e; fill-opacity: 0.4"/>
   </g>
   <g id="PolyCollection_11">
    <path d="M 298.065 33.756896 
L 298.065 34.506425 
L 309.512105 35.896234 
L 320.959211 42.856889 
L 332.406316 50.983382 
L 343.853421 61.337975 
L 355.300526 71.755783 
L 366.747632 82.058437 
L 378.194737 92.452344 
L 389.641842 102.055327 
L 401.088947 110.969467 
L 412.536053 117.972654 
L 423.983158 125.4805 
L 435.430263 131.094094 
L 446.877368 136.171655 
L 458.324474 139.999631 
L 469.771579 144.837106 
L 481.218684 148.306179 
L 492.665789 151.625909 
L 504.112895 154.378052 
L 515.56 157.013118 
L 515.56 148.744651 
L 515.56 148.744651 
L 504.112895 145.433895 
L 492.665789 141.934795 
L 481.218684 137.992236 
L 469.771579 133.116166 
L 458.324474 128.268728 
L 446.877368 122.654341 
L 435.430263 116.758399 
L 423.983158 110.521748 
L 412.536053 103.191031 
L 401.088947 95.519017 
L 389.641842 87.083091 
L 378.194737 79.17461 
L 366.747632 70.703473 
L 355.300526 61.495621 
L 343.853421 52.997531 
L 332.406316 45.815355 
L 320.959211 40.243576 
L 309.512105 35.458267 
L 298.065 33.756896 
z
" clip-path="url(#pe2b61368cf)" style="fill: #2ca02c; fill-opacity: 0.4"/>
   </g>
   <g id="PolyCollection_12">
    <path d="M 298.065 33.769185 
L 298.065 34.527432 
L 309.512105 35.898458 
L 320.959211 42.837421 
L 332.406316 50.956214 
L 343.853421 61.256602 
L 355.300526 71.67083 
L 366.747632 81.962979 
L 378.194737 92.360448 
L 389.641842 102.057195 
L 401.088947 110.968599 
L 412.536053 117.828119 
L 423.983158 125.473795 
L 435.430263 131.313986 
L 446.877368 136.310134 
L 458.324474 140.097546 
L 469.771579 144.900089 
L 481.218684 148.637644 
L 492.665789 151.854342 
L 504.112895 154.523473 
L 515.56 157.133019 
L 515.56 149.145075 
L 515.56 149.145075 
L 504.112895 145.600811 
L 492.665789 142.262013 
L 481.218684 138.203242 
L 469.771579 133.414595 
L 458.324474 128.510716 
L 446.877368 122.944506 
L 435.430263 117.048164 
L 423.983158 110.863058 
L 412.536053 103.461638 
L 401.088947 95.738763 
L 389.641842 87.267294 
L 378.194737 79.336192 
L 366.747632 70.787244 
L 355.300526 61.553366 
L 343.853421 53.030396 
L 332.406316 45.830651 
L 320.959211 40.256603 
L 309.512105 35.481157 
L 298.065 33.769185 
z
" clip-path="url(#pe2b61368cf)" style="fill: #d62728; fill-opacity: 0.4"/>
   </g>
   <g id="PolyCollection_13">
    <path d="M 298.065 33.751437 
L 298.065 34.510247 
L 309.512105 35.912772 
L 320.959211 42.838039 
L 332.406316 51.004942 
L 343.853421 61.299533 
L 355.300526 71.659214 
L 366.747632 82.209737 
L 378.194737 92.800116 
L 389.641842 102.137986 
L 401.088947 110.841559 
L 412.536053 117.890865 
L 423.983158 125.44385 
L 435.430263 130.96223 
L 446.877368 136.205948 
L 458.324474 139.983255 
L 469.771579 144.845937 
L 481.218684 148.177551 
L 492.665789 151.621955 
L 504.112895 155.399631 
L 515.56 156.486029 
L 515.56 147.584584 
L 515.56 147.584584 
L 504.112895 145.489634 
L 492.665789 141.498836 
L 481.218684 138.01899 
L 469.771579 133.667989 
L 458.324474 128.996351 
L 446.877368 123.354074 
L 435.430263 116.910078 
L 423.983158 110.856377 
L 412.536053 103.597903 
L 401.088947 95.697023 
L 389.641842 87.515191 
L 378.194737 79.312479 
L 366.747632 70.675074 
L 355.300526 61.655734 
L 343.853421 52.935615 
L 332.406316 45.84865 
L 320.959211 40.289172 
L 309.512105 35.465811 
L 298.065 33.751437 
z
" clip-path="url(#pe2b61368cf)" style="fill: #9467bd; fill-opacity: 0.4"/>
   </g>
   <g id="PolyCollection_14">
    <path d="M 298.065 33.764134 
L 298.065 34.523219 
L 309.512105 35.918586 
L 320.959211 42.831832 
L 332.406316 51.004348 
L 343.853421 61.255662 
L 355.300526 71.624226 
L 366.747632 82.149059 
L 378.194737 92.658332 
L 389.641842 102.000575 
L 401.088947 110.666424 
L 412.536053 117.592987 
L 423.983158 125.139582 
L 435.430263 130.642284 
L 446.877368 135.877526 
L 458.324474 139.616825 
L 469.771579 144.382715 
L 481.218684 147.795374 
L 492.665789 151.041621 
L 504.112895 154.784919 
L 515.56 156.140511 
L 515.56 149.087444 
L 515.56 149.087444 
L 504.112895 146.517771 
L 492.665789 142.446289 
L 481.218684 138.614447 
L 469.771579 134.443904 
L 458.324474 129.495986 
L 446.877368 123.996767 
L 435.430263 117.476429 
L 423.983158 111.437077 
L 412.536053 104.111177 
L 401.088947 96.071666 
L 389.641842 87.830557 
L 378.194737 79.555594 
L 366.747632 70.843008 
L 355.300526 61.762956 
L 343.853421 52.978236 
L 332.406316 45.864967 
L 320.959211 40.302989 
L 309.512105 35.477304 
L 298.065 33.764134 
z
" clip-path="url(#pe2b61368cf)" style="fill: #8c564b; fill-opacity: 0.4"/>
   </g>
   <g id="PolyCollection_15">
    <path d="M 298.065 44.832624 
L 298.065 47.408938 
L 309.512105 48.853143 
L 320.959211 54.707576 
L 332.406316 61.599322 
L 343.853421 71.076984 
L 355.300526 80.687662 
L 366.747632 89.931379 
L 378.194737 99.23701 
L 389.641842 107.698036 
L 401.088947 116.30205 
L 412.536053 122.817017 
L 423.983158 129.510658 
L 435.430263 134.47001 
L 446.877368 139.293075 
L 458.324474 142.781651 
L 469.771579 147.176722 
L 481.218684 150.534154 
L 492.665789 153.973974 
L 504.112895 156.58398 
L 515.56 158.918445 
L 515.56 150.759491 
L 515.56 150.759491 
L 504.112895 147.868263 
L 492.665789 144.858411 
L 481.218684 140.837058 
L 469.771579 136.359817 
L 458.324474 131.215038 
L 446.877368 126.023669 
L 435.430263 120.623469 
L 423.983158 114.852984 
L 412.536053 107.691808 
L 401.088947 101.094394 
L 389.641842 93.648062 
L 378.194737 86.421457 
L 366.747632 79.017364 
L 355.300526 70.645039 
L 343.853421 62.573704 
L 332.406316 56.235909 
L 320.959211 50.960563 
L 309.512105 46.381253 
L 298.065 44.832624 
z
" clip-path="url(#pe2b61368cf)" style="fill: #e377c2; fill-opacity: 0.4"/>
   </g>
   <g id="PolyCollection_16">
    <path d="M 298.065 33.769325 
L 298.065 34.51572 
L 309.512105 35.902114 
L 320.959211 42.841803 
L 332.406316 50.979096 
L 343.853421 61.287415 
L 355.300526 71.764642 
L 366.747632 82.086603 
L 378.194737 92.448682 
L 389.641842 102.184806 
L 401.088947 111.037941 
L 412.536053 117.779154 
L 423.983158 125.292805 
L 435.430263 130.662709 
L 446.877368 135.695672 
L 458.324474 139.191817 
L 469.771579 143.816546 
L 481.218684 147.465741 
L 492.665789 150.568923 
L 504.112895 153.389702 
L 515.56 155.914869 
L 515.56 150.26016 
L 515.56 150.26016 
L 504.112895 146.65912 
L 492.665789 143.358307 
L 481.218684 138.936917 
L 469.771579 134.393414 
L 458.324474 129.097576 
L 446.877368 123.473839 
L 435.430263 117.448101 
L 423.983158 111.266707 
L 412.536053 103.766191 
L 401.088947 95.966844 
L 389.641842 87.493434 
L 378.194737 79.55765 
L 366.747632 70.948368 
L 355.300526 61.668269 
L 343.853421 53.072975 
L 332.406316 45.852327 
L 320.959211 40.264217 
L 309.512105 35.472615 
L 298.065 33.769325 
z
" clip-path="url(#pe2b61368cf)" style="fill: #7f7f7f; fill-opacity: 0.4"/>
   </g>
   <g id="matplotlib.axis_3">
    <g id="xtick_6">
     <g id="line2d_18">
      <g>
       <use xlink:href="#m8a8239a100" x="298.065" y="174.04" style="stroke: #000000; stroke-width: 0.8"/>
      </g>
     </g>
     <g id="text_13">
      <!-- 0.0 -->
      <g transform="translate(290.113437 188.638438)scale(0.1 -0.1)">
       <use xlink:href="#DejaVuSans-30"/>
       <use xlink:href="#DejaVuSans-2e" x="63.623047"/>
       <use xlink:href="#DejaVuSans-30" x="95.410156"/>
      </g>
     </g>
    </g>
    <g id="xtick_7">
     <g id="line2d_19">
      <g>
       <use xlink:href="#m8a8239a100" x="352.43875" y="174.04" style="stroke: #000000; stroke-width: 0.8"/>
      </g>
     </g>
     <g id="text_14">
      <!-- 0.5 -->
      <g transform="translate(344.487187 188.638438)scale(0.1 -0.1)">
       <use xlink:href="#DejaVuSans-30"/>
       <use xlink:href="#DejaVuSans-2e" x="63.623047"/>
       <use xlink:href="#DejaVuSans-35" x="95.410156"/>
      </g>
     </g>
    </g>
    <g id="xtick_8">
     <g id="line2d_20">
      <g>
       <use xlink:href="#m8a8239a100" x="406.8125" y="174.04" style="stroke: #000000; stroke-width: 0.8"/>
      </g>
     </g>
     <g id="text_15">
      <!-- 1.0 -->
      <g transform="translate(398.860937 188.638438)scale(0.1 -0.1)">
       <use xlink:href="#DejaVuSans-31"/>
       <use xlink:href="#DejaVuSans-2e" x="63.623047"/>
       <use xlink:href="#DejaVuSans-30" x="95.410156"/>
      </g>
     </g>
    </g>
    <g id="xtick_9">
     <g id="line2d_21">
      <g>
       <use xlink:href="#m8a8239a100" x="461.18625" y="174.04" style="stroke: #000000; stroke-width: 0.8"/>
      </g>
     </g>
     <g id="text_16">
      <!-- 1.5 -->
      <g transform="translate(453.234687 188.638438)scale(0.1 -0.1)">
       <use xlink:href="#DejaVuSans-31"/>
       <use xlink:href="#DejaVuSans-2e" x="63.623047"/>
       <use xlink:href="#DejaVuSans-35" x="95.410156"/>
      </g>
     </g>
    </g>
    <g id="xtick_10">
     <g id="line2d_22">
      <g>
       <use xlink:href="#m8a8239a100" x="515.56" y="174.04" style="stroke: #000000; stroke-width: 0.8"/>
      </g>
     </g>
     <g id="text_17">
      <!-- 2.0 -->
      <g transform="translate(507.608437 188.638438)scale(0.1 -0.1)">
       <use xlink:href="#DejaVuSans-32"/>
       <use xlink:href="#DejaVuSans-2e" x="63.623047"/>
       <use xlink:href="#DejaVuSans-30" x="95.410156"/>
      </g>
     </g>
    </g>
    <g id="text_18">
     <!-- Influence of surprisal (multiplication) -->
     <g transform="translate(314.665625 202.316563)scale(0.1 -0.1)">
      <use xlink:href="#DejaVuSans-49"/>
      <use xlink:href="#DejaVuSans-6e" x="29.492188"/>
      <use xlink:href="#DejaVuSans-66" x="92.871094"/>
      <use xlink:href="#DejaVuSans-6c" x="128.076172"/>
      <use xlink:href="#DejaVuSans-75" x="155.859375"/>
      <use xlink:href="#DejaVuSans-65" x="219.238281"/>
      <use xlink:href="#DejaVuSans-6e" x="280.761719"/>
      <use xlink:href="#DejaVuSans-63" x="344.140625"/>
      <use xlink:href="#DejaVuSans-65" x="399.121094"/>
      <use xlink:href="#DejaVuSans-20" x="460.644531"/>
      <use xlink:href="#DejaVuSans-6f" x="492.431641"/>
      <use xlink:href="#DejaVuSans-66" x="553.613281"/>
      <use xlink:href="#DejaVuSans-20" x="588.818359"/>
      <use xlink:href="#DejaVuSans-73" x="620.605469"/>
      <use xlink:href="#DejaVuSans-75" x="672.705078"/>
      <use xlink:href="#DejaVuSans-72" x="736.083984"/>
      <use xlink:href="#DejaVuSans-70" x="777.197266"/>
      <use xlink:href="#DejaVuSans-72" x="840.673828"/>
      <use xlink:href="#DejaVuSans-69" x="881.787109"/>
      <use xlink:href="#DejaVuSans-73" x="909.570312"/>
      <use xlink:href="#DejaVuSans-61" x="961.669922"/>
      <use xlink:href="#DejaVuSans-6c" x="1022.949219"/>
      <use xlink:href="#DejaVuSans-20" x="1050.732422"/>
      <use xlink:href="#DejaVuSans-28" x="1082.519531"/>
      <use xlink:href="#DejaVuSans-6d" x="1121.533203"/>
      <use xlink:href="#DejaVuSans-75" x="1218.945312"/>
      <use xlink:href="#DejaVuSans-6c" x="1282.324219"/>
      <use xlink:href="#DejaVuSans-74" x="1310.107422"/>
      <use xlink:href="#DejaVuSans-69" x="1349.316406"/>
      <use xlink:href="#DejaVuSans-70" x="1377.099609"/>
      <use xlink:href="#DejaVuSans-6c" x="1440.576172"/>
      <use xlink:href="#DejaVuSans-69" x="1468.359375"/>
      <use xlink:href="#DejaVuSans-63" x="1496.142578"/>
      <use xlink:href="#DejaVuSans-61" x="1551.123047"/>
      <use xlink:href="#DejaVuSans-74" x="1612.402344"/>
      <use xlink:href="#DejaVuSans-69" x="1651.611328"/>
      <use xlink:href="#DejaVuSans-6f" x="1679.394531"/>
      <use xlink:href="#DejaVuSans-6e" x="1740.576172"/>
      <use xlink:href="#DejaVuSans-29" x="1803.955078"/>
     </g>
    </g>
   </g>
   <g id="line2d_23">
    <path d="M 298.065 34.117495 
L 309.512105 35.668796 
L 320.959211 41.536637 
L 332.406316 48.382531 
L 343.853421 57.14026 
L 355.300526 66.598955 
L 366.747632 76.377749 
L 378.194737 85.797943 
L 389.641842 94.496042 
L 401.088947 103.182728 
L 412.536053 110.423147 
L 423.983158 117.815741 
L 435.430263 123.738972 
L 446.877368 129.178388 
L 458.324474 133.762527 
L 469.771579 138.605134 
L 481.218684 142.802826 
L 492.665789 146.323219 
L 504.112895 149.356603 
L 515.56 151.942778 
" clip-path="url(#pe2b61368cf)" style="fill: none; stroke: #1f77b4; stroke-width: 1.5; stroke-linecap: square"/>
   </g>
   <g id="line2d_24">
    <path d="M 298.065 34.129683 
L 309.512105 35.676337 
L 320.959211 41.538172 
L 332.406316 48.390463 
L 343.853421 57.144955 
L 355.300526 66.631739 
L 366.747632 76.422224 
L 378.194737 85.854156 
L 389.641842 94.620494 
L 401.088947 103.293073 
L 412.536053 110.526978 
L 423.983158 117.971645 
L 435.430263 123.863141 
L 446.877368 129.36423 
L 458.324474 133.845356 
L 469.771579 138.783642 
L 481.218684 142.965642 
L 492.665789 146.540452 
L 504.112895 149.579302 
L 515.56 152.527211 
" clip-path="url(#pe2b61368cf)" style="fill: none; stroke: #ff7f0e; stroke-width: 1.5; stroke-linecap: square"/>
   </g>
   <g id="line2d_25">
    <path d="M 298.065 34.13166 
L 309.512105 35.67725 
L 320.959211 41.550232 
L 332.406316 48.399369 
L 343.853421 57.167753 
L 355.300526 66.625702 
L 366.747632 76.380955 
L 378.194737 85.813477 
L 389.641842 94.569209 
L 401.088947 103.244242 
L 412.536053 110.581842 
L 423.983158 118.001124 
L 435.430263 123.926247 
L 446.877368 129.412998 
L 458.324474 134.134179 
L 469.771579 138.976636 
L 481.218684 143.149207 
L 492.665789 146.780352 
L 504.112895 149.905973 
L 515.56 152.878884 
" clip-path="url(#pe2b61368cf)" style="fill: none; stroke: #2ca02c; stroke-width: 1.5; stroke-linecap: square"/>
   </g>
   <g id="line2d_26">
    <path d="M 298.065 34.148308 
L 309.512105 35.689807 
L 320.959211 41.547012 
L 332.406316 48.393433 
L 343.853421 57.143499 
L 355.300526 66.612098 
L 366.747632 76.375112 
L 378.194737 85.84832 
L 389.641842 94.662244 
L 401.088947 103.353681 
L 412.536053 110.644879 
L 423.983158 118.168427 
L 435.430263 124.181075 
L 446.877368 129.62732 
L 458.324474 134.304131 
L 469.771579 139.157342 
L 481.218684 143.420443 
L 492.665789 147.058178 
L 504.112895 150.062142 
L 515.56 153.139047 
" clip-path="url(#pe2b61368cf)" style="fill: none; stroke: #d62728; stroke-width: 1.5; stroke-linecap: square"/>
   </g>
   <g id="line2d_27">
    <path d="M 298.065 34.130842 
L 309.512105 35.689291 
L 320.959211 41.563605 
L 332.406316 48.426796 
L 343.853421 57.117574 
L 355.300526 66.657474 
L 366.747632 76.442405 
L 378.194737 86.056297 
L 389.641842 94.826589 
L 401.088947 103.269291 
L 412.536053 110.744384 
L 423.983158 118.150114 
L 435.430263 123.936154 
L 446.877368 129.780011 
L 458.324474 134.489803 
L 469.771579 139.256963 
L 481.218684 143.098271 
L 492.665789 146.560395 
L 504.112895 150.444632 
L 515.56 152.035307 
" clip-path="url(#pe2b61368cf)" style="fill: none; stroke: #9467bd; stroke-width: 1.5; stroke-linecap: square"/>
   </g>
   <g id="line2d_28">
    <path d="M 298.065 34.143677 
L 309.512105 35.697945 
L 320.959211 41.56741 
L 332.406316 48.434657 
L 343.853421 57.116949 
L 355.300526 66.693591 
L 366.747632 76.496034 
L 378.194737 86.106963 
L 389.641842 94.915566 
L 401.088947 103.369045 
L 412.536053 110.852082 
L 423.983158 118.28833 
L 435.430263 124.059356 
L 446.877368 129.937146 
L 458.324474 134.556406 
L 469.771579 139.413309 
L 481.218684 143.20491 
L 492.665789 146.743955 
L 504.112895 150.651345 
L 515.56 152.613977 
" clip-path="url(#pe2b61368cf)" style="fill: none; stroke: #8c564b; stroke-width: 1.5; stroke-linecap: square"/>
   </g>
   <g id="line2d_29">
    <path d="M 298.065 46.120781 
L 309.512105 47.617198 
L 320.959211 52.834069 
L 332.406316 58.917616 
L 343.853421 66.825344 
L 355.300526 75.666351 
L 366.747632 84.474372 
L 378.194737 92.829234 
L 389.641842 100.673049 
L 401.088947 108.698222 
L 412.536053 115.254412 
L 423.983158 122.181821 
L 435.430263 127.546739 
L 446.877368 132.658372 
L 458.324474 136.998345 
L 469.771579 141.76827 
L 481.218684 145.685606 
L 492.665789 149.416193 
L 504.112895 152.226122 
L 515.56 154.838968 
" clip-path="url(#pe2b61368cf)" style="fill: none; stroke: #e377c2; stroke-width: 1.5; stroke-linecap: square"/>
   </g>
   <g id="line2d_30">
    <path d="M 298.065 34.142522 
L 309.512105 35.687364 
L 320.959211 41.55301 
L 332.406316 48.415712 
L 343.853421 57.180195 
L 355.300526 66.716455 
L 366.747632 76.517486 
L 378.194737 86.003166 
L 389.641842 94.83912 
L 401.088947 103.502392 
L 412.536053 110.772672 
L 423.983158 118.279756 
L 435.430263 124.055405 
L 446.877368 129.584755 
L 458.324474 134.144697 
L 469.771579 139.10498 
L 481.218684 143.201329 
L 492.665789 146.963615 
L 504.112895 150.024411 
L 515.56 153.087514 
" clip-path="url(#pe2b61368cf)" style="fill: none; stroke: #7f7f7f; stroke-width: 1.5; stroke-linecap: square"/>
   </g>
   <g id="patch_6">
    <path d="M 298.065 174.04 
L 298.065 26.88 
" style="fill: none; stroke: #000000; stroke-width: 0.8; stroke-linejoin: miter; stroke-linecap: square"/>
   </g>
   <g id="patch_7">
    <path d="M 298.065 174.04 
L 515.56 174.04 
" style="fill: none; stroke: #000000; stroke-width: 0.8; stroke-linejoin: miter; stroke-linecap: square"/>
   </g>
   <g id="text_19">
    <!-- Node * third variable -->
    <g transform="translate(344.2325 20.88)scale(0.12 -0.12)">
     <defs>
      <path id="DejaVuSans-68" d="M 3513 2113 
L 3513 0 
L 2938 0 
L 2938 2094 
Q 2938 2591 2744 2837 
Q 2550 3084 2163 3084 
Q 1697 3084 1428 2787 
Q 1159 2491 1159 1978 
L 1159 0 
L 581 0 
L 581 4863 
L 1159 4863 
L 1159 2956 
Q 1366 3272 1645 3428 
Q 1925 3584 2291 3584 
Q 2894 3584 3203 3211 
Q 3513 2838 3513 2113 
z
" transform="scale(0.015625)"/>
      <path id="DejaVuSans-62" d="M 3116 1747 
Q 3116 2381 2855 2742 
Q 2594 3103 2138 3103 
Q 1681 3103 1420 2742 
Q 1159 2381 1159 1747 
Q 1159 1113 1420 752 
Q 1681 391 2138 391 
Q 2594 391 2855 752 
Q 3116 1113 3116 1747 
z
M 1159 2969 
Q 1341 3281 1617 3432 
Q 1894 3584 2278 3584 
Q 2916 3584 3314 3078 
Q 3713 2572 3713 1747 
Q 3713 922 3314 415 
Q 2916 -91 2278 -91 
Q 1894 -91 1617 61 
Q 1341 213 1159 525 
L 1159 0 
L 581 0 
L 581 4863 
L 1159 4863 
L 1159 2969 
z
" transform="scale(0.015625)"/>
     </defs>
     <use xlink:href="#DejaVuSans-4e"/>
     <use xlink:href="#DejaVuSans-6f" x="74.804688"/>
     <use xlink:href="#DejaVuSans-64" x="135.986328"/>
     <use xlink:href="#DejaVuSans-65" x="199.462891"/>
     <use xlink:href="#DejaVuSans-20" x="260.986328"/>
     <use xlink:href="#DejaVuSans-2a" x="292.773438"/>
     <use xlink:href="#DejaVuSans-20" x="342.773438"/>
     <use xlink:href="#DejaVuSans-74" x="374.560547"/>
     <use xlink:href="#DejaVuSans-68" x="413.769531"/>
     <use xlink:href="#DejaVuSans-69" x="477.148438"/>
     <use xlink:href="#DejaVuSans-72" x="504.931641"/>
     <use xlink:href="#DejaVuSans-64" x="544.294922"/>
     <use xlink:href="#DejaVuSans-20" x="607.771484"/>
     <use xlink:href="#DejaVuSans-76" x="639.558594"/>
     <use xlink:href="#DejaVuSans-61" x="698.738281"/>
     <use xlink:href="#DejaVuSans-72" x="760.017578"/>
     <use xlink:href="#DejaVuSans-69" x="801.130859"/>
     <use xlink:href="#DejaVuSans-61" x="828.914062"/>
     <use xlink:href="#DejaVuSans-62" x="890.193359"/>
     <use xlink:href="#DejaVuSans-6c" x="953.669922"/>
     <use xlink:href="#DejaVuSans-65" x="981.453125"/>
    </g>
   </g>
   <g id="legend_1">
    <g id="line2d_31">
     <path d="M 524.56 39.978437 
L 534.56 39.978437 
L 544.56 39.978437 
" style="fill: none; stroke: #1f77b4; stroke-width: 1.5; stroke-linecap: square"/>
    </g>
    <g id="text_20">
     <!-- Node -->
     <g transform="translate(552.56 43.478437)scale(0.1 -0.1)">
      <use xlink:href="#DejaVuSans-4e"/>
      <use xlink:href="#DejaVuSans-6f" x="74.804688"/>
      <use xlink:href="#DejaVuSans-64" x="135.986328"/>
      <use xlink:href="#DejaVuSans-65" x="199.462891"/>
     </g>
    </g>
    <g id="line2d_32">
     <path d="M 524.56 54.656563 
L 534.56 54.656563 
L 544.56 54.656563 
" style="fill: none; stroke: #ff7f0e; stroke-width: 1.5; stroke-linecap: square"/>
    </g>
    <g id="text_21">
     <!-- Node + surprisal -->
     <g transform="translate(552.56 58.156563)scale(0.1 -0.1)">
      <defs>
       <path id="DejaVuSans-2b" d="M 2944 4013 
L 2944 2272 
L 4684 2272 
L 4684 1741 
L 2944 1741 
L 2944 0 
L 2419 0 
L 2419 1741 
L 678 1741 
L 678 2272 
L 2419 2272 
L 2419 4013 
L 2944 4013 
z
" transform="scale(0.015625)"/>
      </defs>
      <use xlink:href="#DejaVuSans-4e"/>
      <use xlink:href="#DejaVuSans-6f" x="74.804688"/>
      <use xlink:href="#DejaVuSans-64" x="135.986328"/>
      <use xlink:href="#DejaVuSans-65" x="199.462891"/>
      <use xlink:href="#DejaVuSans-20" x="260.986328"/>
      <use xlink:href="#DejaVuSans-2b" x="292.773438"/>
      <use xlink:href="#DejaVuSans-20" x="376.5625"/>
      <use xlink:href="#DejaVuSans-73" x="408.349609"/>
      <use xlink:href="#DejaVuSans-75" x="460.449219"/>
      <use xlink:href="#DejaVuSans-72" x="523.828125"/>
      <use xlink:href="#DejaVuSans-70" x="564.941406"/>
      <use xlink:href="#DejaVuSans-72" x="628.417969"/>
      <use xlink:href="#DejaVuSans-69" x="669.53125"/>
      <use xlink:href="#DejaVuSans-73" x="697.314453"/>
      <use xlink:href="#DejaVuSans-61" x="749.414062"/>
      <use xlink:href="#DejaVuSans-6c" x="810.693359"/>
     </g>
    </g>
    <g id="line2d_33">
     <path d="M 524.56 69.334687 
L 534.56 69.334687 
L 544.56 69.334687 
" style="fill: none; stroke: #2ca02c; stroke-width: 1.5; stroke-linecap: square"/>
    </g>
    <g id="text_22">
     <!-- Node split -->
     <g transform="translate(552.56 72.834687)scale(0.1 -0.1)">
      <use xlink:href="#DejaVuSans-4e"/>
      <use xlink:href="#DejaVuSans-6f" x="74.804688"/>
      <use xlink:href="#DejaVuSans-64" x="135.986328"/>
      <use xlink:href="#DejaVuSans-65" x="199.462891"/>
      <use xlink:href="#DejaVuSans-20" x="260.986328"/>
      <use xlink:href="#DejaVuSans-73" x="292.773438"/>
      <use xlink:href="#DejaVuSans-70" x="344.873047"/>
      <use xlink:href="#DejaVuSans-6c" x="408.349609"/>
      <use xlink:href="#DejaVuSans-69" x="436.132812"/>
      <use xlink:href="#DejaVuSans-74" x="463.916016"/>
     </g>
    </g>
    <g id="line2d_34">
     <path d="M 524.56 84.012812 
L 534.56 84.012812 
L 544.56 84.012812 
" style="fill: none; stroke: #d62728; stroke-width: 1.5; stroke-linecap: square"/>
    </g>
    <g id="text_23">
     <!-- Node split + surprisal -->
     <g transform="translate(552.56 87.512812)scale(0.1 -0.1)">
      <use xlink:href="#DejaVuSans-4e"/>
      <use xlink:href="#DejaVuSans-6f" x="74.804688"/>
      <use xlink:href="#DejaVuSans-64" x="135.986328"/>
      <use xlink:href="#DejaVuSans-65" x="199.462891"/>
      <use xlink:href="#DejaVuSans-20" x="260.986328"/>
      <use xlink:href="#DejaVuSans-73" x="292.773438"/>
      <use xlink:href="#DejaVuSans-70" x="344.873047"/>
      <use xlink:href="#DejaVuSans-6c" x="408.349609"/>
      <use xlink:href="#DejaVuSans-69" x="436.132812"/>
      <use xlink:href="#DejaVuSans-74" x="463.916016"/>
      <use xlink:href="#DejaVuSans-20" x="503.125"/>
      <use xlink:href="#DejaVuSans-2b" x="534.912109"/>
      <use xlink:href="#DejaVuSans-20" x="618.701172"/>
      <use xlink:href="#DejaVuSans-73" x="650.488281"/>
      <use xlink:href="#DejaVuSans-75" x="702.587891"/>
      <use xlink:href="#DejaVuSans-72" x="765.966797"/>
      <use xlink:href="#DejaVuSans-70" x="807.080078"/>
      <use xlink:href="#DejaVuSans-72" x="870.556641"/>
      <use xlink:href="#DejaVuSans-69" x="911.669922"/>
      <use xlink:href="#DejaVuSans-73" x="939.453125"/>
      <use xlink:href="#DejaVuSans-61" x="991.552734"/>
      <use xlink:href="#DejaVuSans-6c" x="1052.832031"/>
     </g>
    </g>
    <g id="line2d_35">
     <path d="M 524.56 98.690937 
L 534.56 98.690937 
L 544.56 98.690937 
" style="fill: none; stroke: #9467bd; stroke-width: 1.5; stroke-linecap: square"/>
    </g>
    <g id="text_24">
     <!-- Node random split -->
     <g transform="translate(552.56 102.190937)scale(0.1 -0.1)">
      <use xlink:href="#DejaVuSans-4e"/>
      <use xlink:href="#DejaVuSans-6f" x="74.804688"/>
      <use xlink:href="#DejaVuSans-64" x="135.986328"/>
      <use xlink:href="#DejaVuSans-65" x="199.462891"/>
      <use xlink:href="#DejaVuSans-20" x="260.986328"/>
      <use xlink:href="#DejaVuSans-72" x="292.773438"/>
      <use xlink:href="#DejaVuSans-61" x="333.886719"/>
      <use xlink:href="#DejaVuSans-6e" x="395.166016"/>
      <use xlink:href="#DejaVuSans-64" x="458.544922"/>
      <use xlink:href="#DejaVuSans-6f" x="522.021484"/>
      <use xlink:href="#DejaVuSans-6d" x="583.203125"/>
      <use xlink:href="#DejaVuSans-20" x="680.615234"/>
      <use xlink:href="#DejaVuSans-73" x="712.402344"/>
      <use xlink:href="#DejaVuSans-70" x="764.501953"/>
      <use xlink:href="#DejaVuSans-6c" x="827.978516"/>
      <use xlink:href="#DejaVuSans-69" x="855.761719"/>
      <use xlink:href="#DejaVuSans-74" x="883.544922"/>
     </g>
    </g>
    <g id="line2d_36">
     <path d="M 524.56 113.369062 
L 534.56 113.369062 
L 544.56 113.369062 
" style="fill: none; stroke: #8c564b; stroke-width: 1.5; stroke-linecap: square"/>
    </g>
    <g id="text_25">
     <!-- Node random split + surprisal -->
     <g transform="translate(552.56 116.869062)scale(0.1 -0.1)">
      <use xlink:href="#DejaVuSans-4e"/>
      <use xlink:href="#DejaVuSans-6f" x="74.804688"/>
      <use xlink:href="#DejaVuSans-64" x="135.986328"/>
      <use xlink:href="#DejaVuSans-65" x="199.462891"/>
      <use xlink:href="#DejaVuSans-20" x="260.986328"/>
      <use xlink:href="#DejaVuSans-72" x="292.773438"/>
      <use xlink:href="#DejaVuSans-61" x="333.886719"/>
      <use xlink:href="#DejaVuSans-6e" x="395.166016"/>
      <use xlink:href="#DejaVuSans-64" x="458.544922"/>
      <use xlink:href="#DejaVuSans-6f" x="522.021484"/>
      <use xlink:href="#DejaVuSans-6d" x="583.203125"/>
      <use xlink:href="#DejaVuSans-20" x="680.615234"/>
      <use xlink:href="#DejaVuSans-73" x="712.402344"/>
      <use xlink:href="#DejaVuSans-70" x="764.501953"/>
      <use xlink:href="#DejaVuSans-6c" x="827.978516"/>
      <use xlink:href="#DejaVuSans-69" x="855.761719"/>
      <use xlink:href="#DejaVuSans-74" x="883.544922"/>
      <use xlink:href="#DejaVuSans-20" x="922.753906"/>
      <use xlink:href="#DejaVuSans-2b" x="954.541016"/>
      <use xlink:href="#DejaVuSans-20" x="1038.330078"/>
      <use xlink:href="#DejaVuSans-73" x="1070.117188"/>
      <use xlink:href="#DejaVuSans-75" x="1122.216797"/>
      <use xlink:href="#DejaVuSans-72" x="1185.595703"/>
      <use xlink:href="#DejaVuSans-70" x="1226.708984"/>
      <use xlink:href="#DejaVuSans-72" x="1290.185547"/>
      <use xlink:href="#DejaVuSans-69" x="1331.298828"/>
      <use xlink:href="#DejaVuSans-73" x="1359.082031"/>
      <use xlink:href="#DejaVuSans-61" x="1411.181641"/>
      <use xlink:href="#DejaVuSans-6c" x="1472.460938"/>
     </g>
    </g>
    <g id="line2d_37">
     <path d="M 524.56 128.047187 
L 534.56 128.047187 
L 544.56 128.047187 
" style="fill: none; stroke: #e377c2; stroke-width: 1.5; stroke-linecap: square"/>
    </g>
    <g id="text_26">
     <!-- Interaction -->
     <g transform="translate(552.56 131.547187)scale(0.1 -0.1)">
      <use xlink:href="#DejaVuSans-49"/>
      <use xlink:href="#DejaVuSans-6e" x="29.492188"/>
      <use xlink:href="#DejaVuSans-74" x="92.871094"/>
      <use xlink:href="#DejaVuSans-65" x="132.080078"/>
      <use xlink:href="#DejaVuSans-72" x="193.603516"/>
      <use xlink:href="#DejaVuSans-61" x="234.716797"/>
      <use xlink:href="#DejaVuSans-63" x="295.996094"/>
      <use xlink:href="#DejaVuSans-74" x="350.976562"/>
      <use xlink:href="#DejaVuSans-69" x="390.185547"/>
      <use xlink:href="#DejaVuSans-6f" x="417.96875"/>
      <use xlink:href="#DejaVuSans-6e" x="479.150391"/>
     </g>
    </g>
    <g id="line2d_38">
     <path d="M 524.56 142.725312 
L 534.56 142.725312 
L 544.56 142.725312 
" style="fill: none; stroke: #7f7f7f; stroke-width: 1.5; stroke-linecap: square"/>
    </g>
    <g id="text_27">
     <!-- Node + surprisal + interaction -->
     <g transform="translate(552.56 146.225312)scale(0.1 -0.1)">
      <use xlink:href="#DejaVuSans-4e"/>
      <use xlink:href="#DejaVuSans-6f" x="74.804688"/>
      <use xlink:href="#DejaVuSans-64" x="135.986328"/>
      <use xlink:href="#DejaVuSans-65" x="199.462891"/>
      <use xlink:href="#DejaVuSans-20" x="260.986328"/>
      <use xlink:href="#DejaVuSans-2b" x="292.773438"/>
      <use xlink:href="#DejaVuSans-20" x="376.5625"/>
      <use xlink:href="#DejaVuSans-73" x="408.349609"/>
      <use xlink:href="#DejaVuSans-75" x="460.449219"/>
      <use xlink:href="#DejaVuSans-72" x="523.828125"/>
      <use xlink:href="#DejaVuSans-70" x="564.941406"/>
      <use xlink:href="#DejaVuSans-72" x="628.417969"/>
      <use xlink:href="#DejaVuSans-69" x="669.53125"/>
      <use xlink:href="#DejaVuSans-73" x="697.314453"/>
      <use xlink:href="#DejaVuSans-61" x="749.414062"/>
      <use xlink:href="#DejaVuSans-6c" x="810.693359"/>
      <use xlink:href="#DejaVuSans-20" x="838.476562"/>
      <use xlink:href="#DejaVuSans-2b" x="870.263672"/>
      <use xlink:href="#DejaVuSans-20" x="954.052734"/>
      <use xlink:href="#DejaVuSans-69" x="985.839844"/>
      <use xlink:href="#DejaVuSans-6e" x="1013.623047"/>
      <use xlink:href="#DejaVuSans-74" x="1077.001953"/>
      <use xlink:href="#DejaVuSans-65" x="1116.210938"/>
      <use xlink:href="#DejaVuSans-72" x="1177.734375"/>
      <use xlink:href="#DejaVuSans-61" x="1218.847656"/>
      <use xlink:href="#DejaVuSans-63" x="1280.126953"/>
      <use xlink:href="#DejaVuSans-74" x="1335.107422"/>
      <use xlink:href="#DejaVuSans-69" x="1374.316406"/>
      <use xlink:href="#DejaVuSans-6f" x="1402.099609"/>
      <use xlink:href="#DejaVuSans-6e" x="1463.28125"/>
     </g>
    </g>
   </g>
  </g>
 </g>
 <defs>
  <clipPath id="p457a789c7a">
   <rect x="47.72" y="26.88" width="217.495" height="147.16"/>
  </clipPath>
  <clipPath id="pe2b61368cf">
   <rect x="298.065" y="26.88" width="217.495" height="147.16"/>
  </clipPath>
 </defs>
</svg>
