<?xml version="1.0" encoding="utf-8" standalone="no"?>
<!DOCTYPE svg PUBLIC "-//W3C//DTD SVG 1.1//EN"
  "http://www.w3.org/Graphics/SVG/1.1/DTD/svg11.dtd">
<svg xmlns:xlink="http://www.w3.org/1999/xlink" width="720pt" height="216pt" viewBox="0 0 720 216" xmlns="http://www.w3.org/2000/svg" version="1.1">
 <metadata>
  <rdf:RDF xmlns:dc="http://purl.org/dc/elements/1.1/" xmlns:cc="http://creativecommons.org/ns#" xmlns:rdf="http://www.w3.org/1999/02/22-rdf-syntax-ns#">
   <cc:Work>
    <dc:type rdf:resource="http://purl.org/dc/dcmitype/StillImage"/>
    <dc:date>2024-01-15T22:23:21.582822</dc:date>
    <dc:format>image/svg+xml</dc:format>
    <dc:creator>
     <cc:Agent>
      <dc:title>Matplotlib v3.5.1, https://matplotlib.org/</dc:title>
     </cc:Agent>
    </dc:creator>
   </cc:Work>
  </rdf:RDF>
 </metadata>
 <defs>
  <style type="text/css">*{stroke-linejoin: round; stroke-linecap: butt}</style>
 </defs>
 <g id="figure_1">
  <g id="patch_1">
   <path d="M 0 216 
L 720 216 
L 720 0 
L 0 0 
z
" style="fill: #ffffff"/>
  </g>
  <g id="axes_1">
   <g id="patch_2">
    <path d="M 47.72 174.04 
L 265.215 174.04 
L 265.215 26.88 
L 47.72 26.88 
z
" style="fill: #ffffff"/>
   </g>
   <g id="PolyCollection_1">
    <path d="M 47.72 33.649628 
L 47.72 34.627759 
L 59.167105 36.559031 
L 70.614211 42.036957 
L 82.061316 50.580113 
L 93.508421 60.026556 
L 104.955526 69.984056 
L 116.402632 79.561785 
L 127.849737 89.599335 
L 139.296842 99.627279 
L 150.743947 108.482767 
L 162.191053 115.876136 
L 173.638158 123.763687 
L 185.085263 129.723244 
L 196.532368 134.70022 
L 207.979474 141.37819 
L 219.426579 145.873647 
L 230.873684 149.748046 
L 242.320789 153.54414 
L 253.767895 157.222673 
L 265.215 159.624591 
L 265.215 147.328298 
L 265.215 147.328298 
L 253.767895 144.74157 
L 242.320789 141.642723 
L 230.873684 138.950314 
L 219.426579 135.621694 
L 207.979474 130.479875 
L 196.532368 126.115997 
L 185.085263 120.9097 
L 173.638158 114.600275 
L 162.191053 106.583217 
L 150.743947 99.923407 
L 139.296842 91.27031 
L 127.849737 82.576364 
L 116.402632 73.837117 
L 104.955526 65.223059 
L 93.508421 55.556198 
L 82.061316 48.129351 
L 70.614211 40.757734 
L 59.167105 35.624664 
L 47.72 33.649628 
z
" clip-path="url(#p7a27fb013c)" style="fill: #1f77b4; fill-opacity: 0.4"/>
   </g>
   <g id="PolyCollection_2">
    <path d="M 47.72 33.663648 
L 47.72 34.644501 
L 59.167105 35.932322 
L 70.614211 39.117317 
L 82.061316 44.455326 
L 93.508421 51.112109 
L 104.955526 58.825338 
L 116.402632 67.284608 
L 127.849737 76.309715 
L 139.296842 85.265419 
L 150.743947 93.643547 
L 162.191053 101.331939 
L 173.638158 109.152351 
L 185.085263 116.360051 
L 196.532368 122.04288 
L 207.979474 128.635484 
L 219.426579 133.874116 
L 230.873684 138.379731 
L 242.320789 142.860898 
L 253.767895 147.410104 
L 265.215 150.445713 
L 265.215 138.221745 
L 265.215 138.221745 
L 253.767895 134.578665 
L 242.320789 130.999958 
L 230.873684 127.345411 
L 219.426579 123.146178 
L 207.979474 117.281267 
L 196.532368 112.192344 
L 185.085263 106.509082 
L 173.638158 100.01281 
L 162.191053 92.460449 
L 150.743947 85.655918 
L 139.296842 78.242188 
L 127.849737 69.598891 
L 116.402632 61.994406 
L 104.955526 55.166987 
L 93.508421 47.5802 
L 82.061316 42.452375 
L 70.614211 37.89882 
L 59.167105 34.992233 
L 47.72 33.663648 
z
" clip-path="url(#p7a27fb013c)" style="fill: #ff7f0e; fill-opacity: 0.4"/>
   </g>
   <g id="PolyCollection_3">
    <path d="M 47.72 33.658703 
L 47.72 34.635199 
L 59.167105 36.000639 
L 70.614211 38.818576 
L 82.061316 42.712149 
L 93.508421 47.070706 
L 104.955526 51.808006 
L 116.402632 56.056795 
L 127.849737 61.158822 
L 139.296842 66.148806 
L 150.743947 70.14877 
L 162.191053 75.287682 
L 173.638158 80.991821 
L 185.085263 85.666569 
L 196.532368 90.329034 
L 207.979474 94.381273 
L 219.426579 98.965363 
L 230.873684 103.05791 
L 242.320789 108.069216 
L 253.767895 111.952026 
L 265.215 115.735225 
L 265.215 104.723703 
L 265.215 104.723703 
L 253.767895 101.499267 
L 242.320789 97.795871 
L 230.873684 94.161929 
L 219.426579 90.405071 
L 207.979474 85.825262 
L 196.532368 81.675078 
L 185.085263 77.682656 
L 173.638158 73.440173 
L 162.191053 69.237645 
L 150.743947 65.853332 
L 139.296842 61.045291 
L 127.849737 56.983793 
L 116.402632 52.452945 
L 104.955526 48.267936 
L 93.508421 44.053373 
L 82.061316 40.849325 
L 70.614211 37.626596 
L 59.167105 35.232739 
L 47.72 33.658703 
z
" clip-path="url(#p7a27fb013c)" style="fill: #2ca02c; fill-opacity: 0.4"/>
   </g>
   <g id="PolyCollection_4">
    <path d="M 47.72 33.671004 
L 47.72 34.647024 
L 59.167105 35.811212 
L 70.614211 38.003805 
L 82.061316 41.244581 
L 93.508421 45.249569 
L 104.955526 49.826368 
L 116.402632 54.109668 
L 127.849737 59.52143 
L 139.296842 64.559824 
L 150.743947 69.150651 
L 162.191053 74.288615 
L 173.638158 80.12036 
L 185.085263 84.935873 
L 196.532368 89.648109 
L 207.979474 93.69653 
L 219.426579 98.236486 
L 230.873684 102.116195 
L 242.320789 107.024919 
L 253.767895 110.610068 
L 265.215 114.540671 
L 265.215 103.359264 
L 265.215 103.359264 
L 253.767895 100.349367 
L 242.320789 96.67993 
L 230.873684 93.137826 
L 219.426579 89.484626 
L 207.979474 84.985224 
L 196.532368 80.817153 
L 185.085263 76.978833 
L 173.638158 72.629463 
L 162.191053 68.204336 
L 150.743947 64.464997 
L 139.296842 59.71204 
L 127.849737 55.211841 
L 116.402632 50.649155 
L 104.955526 46.523182 
L 93.508421 42.360929 
L 82.061316 39.504117 
L 70.614211 36.82959 
L 59.167105 34.943391 
L 47.72 33.671004 
z
" clip-path="url(#p7a27fb013c)" style="fill: #d62728; fill-opacity: 0.4"/>
   </g>
   <g id="PolyCollection_5">
    <path d="M 47.72 33.655923 
L 47.72 34.648572 
L 59.167105 36.560189 
L 70.614211 42.108387 
L 82.061316 50.59432 
L 93.508421 60.070695 
L 104.955526 69.91188 
L 116.402632 79.360666 
L 127.849737 89.689598 
L 139.296842 99.662329 
L 150.743947 108.746623 
L 162.191053 116.319786 
L 173.638158 124.182782 
L 185.085263 130.060067 
L 196.532368 134.956187 
L 207.979474 142.147231 
L 219.426579 146.731435 
L 230.873684 149.228398 
L 242.320789 154.548115 
L 253.767895 157.843843 
L 265.215 160.119314 
L 265.215 147.558145 
L 265.215 147.558145 
L 253.767895 146.254954 
L 242.320789 142.709219 
L 230.873684 139.070197 
L 219.426579 135.680873 
L 207.979474 130.762366 
L 196.532368 126.454223 
L 185.085263 120.770861 
L 173.638158 114.802277 
L 162.191053 106.750701 
L 150.743947 99.589413 
L 139.296842 91.73967 
L 127.849737 82.833267 
L 116.402632 73.842848 
L 104.955526 65.27417 
L 93.508421 55.653034 
L 82.061316 48.162632 
L 70.614211 40.769957 
L 59.167105 35.621006 
L 47.72 33.655923 
z
" clip-path="url(#p7a27fb013c)" style="fill: #9467bd; fill-opacity: 0.4"/>
   </g>
   <g id="PolyCollection_6">
    <path d="M 47.72 33.670261 
L 47.72 34.665896 
L 59.167105 35.936175 
L 70.614211 39.150461 
L 82.061316 44.488922 
L 93.508421 51.178521 
L 104.955526 58.96988 
L 116.402632 67.232898 
L 127.849737 76.429081 
L 139.296842 85.184338 
L 150.743947 93.767875 
L 162.191053 101.791298 
L 173.638158 109.26882 
L 185.085263 116.552786 
L 196.532368 122.172625 
L 207.979474 129.519028 
L 219.426579 134.555654 
L 230.873684 138.184894 
L 242.320789 143.522618 
L 253.767895 147.953351 
L 265.215 150.847099 
L 265.215 138.428857 
L 265.215 138.428857 
L 253.767895 135.679039 
L 242.320789 131.688484 
L 230.873684 127.310165 
L 219.426579 123.153397 
L 207.979474 117.539117 
L 196.532368 112.323615 
L 185.085263 106.539294 
L 173.638158 100.186737 
L 162.191053 92.629529 
L 150.743947 85.561629 
L 139.296842 78.66409 
L 127.849737 69.699191 
L 116.402632 61.922241 
L 104.955526 55.119543 
L 93.508421 47.620247 
L 82.061316 42.480946 
L 70.614211 37.93752 
L 59.167105 34.989905 
L 47.72 33.670261 
z
" clip-path="url(#p7a27fb013c)" style="fill: #8c564b; fill-opacity: 0.4"/>
   </g>
   <g id="PolyCollection_7">
    <path d="M 47.72 44.66451 
L 47.72 47.294128 
L 59.167105 50.250587 
L 70.614211 57.004956 
L 82.061316 68.565669 
L 93.508421 79.758742 
L 104.955526 90.975176 
L 116.402632 100.041928 
L 127.849737 109.286629 
L 139.296842 117.900406 
L 150.743947 126.510196 
L 162.191053 132.696713 
L 173.638158 139.579255 
L 185.085263 144.213854 
L 196.532368 147.767868 
L 207.979474 152.530949 
L 219.426579 156.008169 
L 230.873684 158.954273 
L 242.320789 162.279727 
L 253.767895 165.229694 
L 265.215 167.350909 
L 265.215 160.309656 
L 265.215 160.309656 
L 253.767895 158.611926 
L 242.320789 155.987448 
L 230.873684 154.070638 
L 219.426579 150.711696 
L 207.979474 146.097751 
L 196.532368 141.249941 
L 185.085263 135.779598 
L 173.638158 129.433871 
L 162.191053 122.218367 
L 150.743947 115.003085 
L 139.296842 108.134157 
L 127.849737 98.644057 
L 116.402632 89.205698 
L 104.955526 78.795054 
L 93.508421 68.576122 
L 82.061316 59.681934 
L 70.614211 51.836406 
L 59.167105 46.725799 
L 47.72 44.66451 
z
" clip-path="url(#p7a27fb013c)" style="fill: #e377c2; fill-opacity: 0.4"/>
   </g>
   <g id="PolyCollection_8">
    <path d="M 47.72 33.674657 
L 47.72 34.646535 
L 59.167105 35.086669 
L 70.614211 35.749058 
L 82.061316 38.490194 
L 93.508421 43.386989 
L 104.955526 49.70833 
L 116.402632 57.020652 
L 127.849737 65.439373 
L 139.296842 72.202678 
L 150.743947 79.80848 
L 162.191053 87.578023 
L 173.638158 95.280049 
L 185.085263 103.305921 
L 196.532368 109.253886 
L 207.979474 116.740965 
L 219.426579 122.518855 
L 230.873684 128.162646 
L 242.320789 133.596963 
L 253.767895 138.987549 
L 265.215 142.774061 
L 265.215 133.983309 
L 265.215 133.983309 
L 253.767895 130.116822 
L 242.320789 125.674715 
L 230.873684 120.735855 
L 219.426579 115.995556 
L 207.979474 109.094881 
L 196.532368 102.786488 
L 185.085263 95.396024 
L 173.638158 88.711656 
L 162.191053 80.800731 
L 150.743947 73.666893 
L 139.296842 65.852741 
L 127.849737 56.936988 
L 116.402632 49.447416 
L 104.955526 43.501367 
L 93.508421 38.637819 
L 82.061316 36.155612 
L 70.614211 35.044475 
L 59.167105 34.288642 
L 47.72 33.674657 
z
" clip-path="url(#p7a27fb013c)" style="fill: #7f7f7f; fill-opacity: 0.4"/>
   </g>
   <g id="matplotlib.axis_1">
    <g id="xtick_1">
     <g id="line2d_1">
      <defs>
       <path id="m5d717af960" d="M 0 0 
L 0 3.5 
" style="stroke: #000000; stroke-width: 0.8"/>
      </defs>
      <g>
       <use xlink:href="#m5d717af960" x="47.72" y="174.04" style="stroke: #000000; stroke-width: 0.8"/>
      </g>
     </g>
     <g id="text_1">
      <!-- 0.0 -->
      <g transform="translate(39.768438 188.638438)scale(0.1 -0.1)">
       <defs>
        <path id="DejaVuSans-30" d="M 2034 4250 
Q 1547 4250 1301 3770 
Q 1056 3291 1056 2328 
Q 1056 1369 1301 889 
Q 1547 409 2034 409 
Q 2525 409 2770 889 
Q 3016 1369 3016 2328 
Q 3016 3291 2770 3770 
Q 2525 4250 2034 4250 
z
M 2034 4750 
Q 2819 4750 3233 4129 
Q 3647 3509 3647 2328 
Q 3647 1150 3233 529 
Q 2819 -91 2034 -91 
Q 1250 -91 836 529 
Q 422 1150 422 2328 
Q 422 3509 836 4129 
Q 1250 4750 2034 4750 
z
" transform="scale(0.015625)"/>
        <path id="DejaVuSans-2e" d="M 684 794 
L 1344 794 
L 1344 0 
L 684 0 
L 684 794 
z
" transform="scale(0.015625)"/>
       </defs>
       <use xlink:href="#DejaVuSans-30"/>
       <use xlink:href="#DejaVuSans-2e" x="63.623047"/>
       <use xlink:href="#DejaVuSans-30" x="95.410156"/>
      </g>
     </g>
    </g>
    <g id="xtick_2">
     <g id="line2d_2">
      <g>
       <use xlink:href="#m5d717af960" x="102.09375" y="174.04" style="stroke: #000000; stroke-width: 0.8"/>
      </g>
     </g>
     <g id="text_2">
      <!-- 0.5 -->
      <g transform="translate(94.142188 188.638438)scale(0.1 -0.1)">
       <defs>
        <path id="DejaVuSans-35" d="M 691 4666 
L 3169 4666 
L 3169 4134 
L 1269 4134 
L 1269 2991 
Q 1406 3038 1543 3061 
Q 1681 3084 1819 3084 
Q 2600 3084 3056 2656 
Q 3513 2228 3513 1497 
Q 3513 744 3044 326 
Q 2575 -91 1722 -91 
Q 1428 -91 1123 -41 
Q 819 9 494 109 
L 494 744 
Q 775 591 1075 516 
Q 1375 441 1709 441 
Q 2250 441 2565 725 
Q 2881 1009 2881 1497 
Q 2881 1984 2565 2268 
Q 2250 2553 1709 2553 
Q 1456 2553 1204 2497 
Q 953 2441 691 2322 
L 691 4666 
z
" transform="scale(0.015625)"/>
       </defs>
       <use xlink:href="#DejaVuSans-30"/>
       <use xlink:href="#DejaVuSans-2e" x="63.623047"/>
       <use xlink:href="#DejaVuSans-35" x="95.410156"/>
      </g>
     </g>
    </g>
    <g id="xtick_3">
     <g id="line2d_3">
      <g>
       <use xlink:href="#m5d717af960" x="156.4675" y="174.04" style="stroke: #000000; stroke-width: 0.8"/>
      </g>
     </g>
     <g id="text_3">
      <!-- 1.0 -->
      <g transform="translate(148.515938 188.638438)scale(0.1 -0.1)">
       <defs>
        <path id="DejaVuSans-31" d="M 794 531 
L 1825 531 
L 1825 4091 
L 703 3866 
L 703 4441 
L 1819 4666 
L 2450 4666 
L 2450 531 
L 3481 531 
L 3481 0 
L 794 0 
L 794 531 
z
" transform="scale(0.015625)"/>
       </defs>
       <use xlink:href="#DejaVuSans-31"/>
       <use xlink:href="#DejaVuSans-2e" x="63.623047"/>
       <use xlink:href="#DejaVuSans-30" x="95.410156"/>
      </g>
     </g>
    </g>
    <g id="xtick_4">
     <g id="line2d_4">
      <g>
       <use xlink:href="#m5d717af960" x="210.84125" y="174.04" style="stroke: #000000; stroke-width: 0.8"/>
      </g>
     </g>
     <g id="text_4">
      <!-- 1.5 -->
      <g transform="translate(202.889687 188.638438)scale(0.1 -0.1)">
       <use xlink:href="#DejaVuSans-31"/>
       <use xlink:href="#DejaVuSans-2e" x="63.623047"/>
       <use xlink:href="#DejaVuSans-35" x="95.410156"/>
      </g>
     </g>
    </g>
    <g id="xtick_5">
     <g id="line2d_5">
      <g>
       <use xlink:href="#m5d717af960" x="265.215" y="174.04" style="stroke: #000000; stroke-width: 0.8"/>
      </g>
     </g>
     <g id="text_5">
      <!-- 2.0 -->
      <g transform="translate(257.263437 188.638438)scale(0.1 -0.1)">
       <defs>
        <path id="DejaVuSans-32" d="M 1228 531 
L 3431 531 
L 3431 0 
L 469 0 
L 469 531 
Q 828 903 1448 1529 
Q 2069 2156 2228 2338 
Q 2531 2678 2651 2914 
Q 2772 3150 2772 3378 
Q 2772 3750 2511 3984 
Q 2250 4219 1831 4219 
Q 1534 4219 1204 4116 
Q 875 4013 500 3803 
L 500 4441 
Q 881 4594 1212 4672 
Q 1544 4750 1819 4750 
Q 2544 4750 2975 4387 
Q 3406 4025 3406 3419 
Q 3406 3131 3298 2873 
Q 3191 2616 2906 2266 
Q 2828 2175 2409 1742 
Q 1991 1309 1228 531 
z
" transform="scale(0.015625)"/>
       </defs>
       <use xlink:href="#DejaVuSans-32"/>
       <use xlink:href="#DejaVuSans-2e" x="63.623047"/>
       <use xlink:href="#DejaVuSans-30" x="95.410156"/>
      </g>
     </g>
    </g>
    <g id="text_6">
     <!-- Influence of surprisal (multiplication) -->
     <g transform="translate(64.320625 202.316563)scale(0.1 -0.1)">
      <defs>
       <path id="DejaVuSans-49" d="M 628 4666 
L 1259 4666 
L 1259 0 
L 628 0 
L 628 4666 
z
" transform="scale(0.015625)"/>
       <path id="DejaVuSans-6e" d="M 3513 2113 
L 3513 0 
L 2938 0 
L 2938 2094 
Q 2938 2591 2744 2837 
Q 2550 3084 2163 3084 
Q 1697 3084 1428 2787 
Q 1159 2491 1159 1978 
L 1159 0 
L 581 0 
L 581 3500 
L 1159 3500 
L 1159 2956 
Q 1366 3272 1645 3428 
Q 1925 3584 2291 3584 
Q 2894 3584 3203 3211 
Q 3513 2838 3513 2113 
z
" transform="scale(0.015625)"/>
       <path id="DejaVuSans-66" d="M 2375 4863 
L 2375 4384 
L 1825 4384 
Q 1516 4384 1395 4259 
Q 1275 4134 1275 3809 
L 1275 3500 
L 2222 3500 
L 2222 3053 
L 1275 3053 
L 1275 0 
L 697 0 
L 697 3053 
L 147 3053 
L 147 3500 
L 697 3500 
L 697 3744 
Q 697 4328 969 4595 
Q 1241 4863 1831 4863 
L 2375 4863 
z
" transform="scale(0.015625)"/>
       <path id="DejaVuSans-6c" d="M 603 4863 
L 1178 4863 
L 1178 0 
L 603 0 
L 603 4863 
z
" transform="scale(0.015625)"/>
       <path id="DejaVuSans-75" d="M 544 1381 
L 544 3500 
L 1119 3500 
L 1119 1403 
Q 1119 906 1312 657 
Q 1506 409 1894 409 
Q 2359 409 2629 706 
Q 2900 1003 2900 1516 
L 2900 3500 
L 3475 3500 
L 3475 0 
L 2900 0 
L 2900 538 
Q 2691 219 2414 64 
Q 2138 -91 1772 -91 
Q 1169 -91 856 284 
Q 544 659 544 1381 
z
M 1991 3584 
L 1991 3584 
z
" transform="scale(0.015625)"/>
       <path id="DejaVuSans-65" d="M 3597 1894 
L 3597 1613 
L 953 1613 
Q 991 1019 1311 708 
Q 1631 397 2203 397 
Q 2534 397 2845 478 
Q 3156 559 3463 722 
L 3463 178 
Q 3153 47 2828 -22 
Q 2503 -91 2169 -91 
Q 1331 -91 842 396 
Q 353 884 353 1716 
Q 353 2575 817 3079 
Q 1281 3584 2069 3584 
Q 2775 3584 3186 3129 
Q 3597 2675 3597 1894 
z
M 3022 2063 
Q 3016 2534 2758 2815 
Q 2500 3097 2075 3097 
Q 1594 3097 1305 2825 
Q 1016 2553 972 2059 
L 3022 2063 
z
" transform="scale(0.015625)"/>
       <path id="DejaVuSans-63" d="M 3122 3366 
L 3122 2828 
Q 2878 2963 2633 3030 
Q 2388 3097 2138 3097 
Q 1578 3097 1268 2742 
Q 959 2388 959 1747 
Q 959 1106 1268 751 
Q 1578 397 2138 397 
Q 2388 397 2633 464 
Q 2878 531 3122 666 
L 3122 134 
Q 2881 22 2623 -34 
Q 2366 -91 2075 -91 
Q 1284 -91 818 406 
Q 353 903 353 1747 
Q 353 2603 823 3093 
Q 1294 3584 2113 3584 
Q 2378 3584 2631 3529 
Q 2884 3475 3122 3366 
z
" transform="scale(0.015625)"/>
       <path id="DejaVuSans-20" transform="scale(0.015625)"/>
       <path id="DejaVuSans-6f" d="M 1959 3097 
Q 1497 3097 1228 2736 
Q 959 2375 959 1747 
Q 959 1119 1226 758 
Q 1494 397 1959 397 
Q 2419 397 2687 759 
Q 2956 1122 2956 1747 
Q 2956 2369 2687 2733 
Q 2419 3097 1959 3097 
z
M 1959 3584 
Q 2709 3584 3137 3096 
Q 3566 2609 3566 1747 
Q 3566 888 3137 398 
Q 2709 -91 1959 -91 
Q 1206 -91 779 398 
Q 353 888 353 1747 
Q 353 2609 779 3096 
Q 1206 3584 1959 3584 
z
" transform="scale(0.015625)"/>
       <path id="DejaVuSans-73" d="M 2834 3397 
L 2834 2853 
Q 2591 2978 2328 3040 
Q 2066 3103 1784 3103 
Q 1356 3103 1142 2972 
Q 928 2841 928 2578 
Q 928 2378 1081 2264 
Q 1234 2150 1697 2047 
L 1894 2003 
Q 2506 1872 2764 1633 
Q 3022 1394 3022 966 
Q 3022 478 2636 193 
Q 2250 -91 1575 -91 
Q 1294 -91 989 -36 
Q 684 19 347 128 
L 347 722 
Q 666 556 975 473 
Q 1284 391 1588 391 
Q 1994 391 2212 530 
Q 2431 669 2431 922 
Q 2431 1156 2273 1281 
Q 2116 1406 1581 1522 
L 1381 1569 
Q 847 1681 609 1914 
Q 372 2147 372 2553 
Q 372 3047 722 3315 
Q 1072 3584 1716 3584 
Q 2034 3584 2315 3537 
Q 2597 3491 2834 3397 
z
" transform="scale(0.015625)"/>
       <path id="DejaVuSans-72" d="M 2631 2963 
Q 2534 3019 2420 3045 
Q 2306 3072 2169 3072 
Q 1681 3072 1420 2755 
Q 1159 2438 1159 1844 
L 1159 0 
L 581 0 
L 581 3500 
L 1159 3500 
L 1159 2956 
Q 1341 3275 1631 3429 
Q 1922 3584 2338 3584 
Q 2397 3584 2469 3576 
Q 2541 3569 2628 3553 
L 2631 2963 
z
" transform="scale(0.015625)"/>
       <path id="DejaVuSans-70" d="M 1159 525 
L 1159 -1331 
L 581 -1331 
L 581 3500 
L 1159 3500 
L 1159 2969 
Q 1341 3281 1617 3432 
Q 1894 3584 2278 3584 
Q 2916 3584 3314 3078 
Q 3713 2572 3713 1747 
Q 3713 922 3314 415 
Q 2916 -91 2278 -91 
Q 1894 -91 1617 61 
Q 1341 213 1159 525 
z
M 3116 1747 
Q 3116 2381 2855 2742 
Q 2594 3103 2138 3103 
Q 1681 3103 1420 2742 
Q 1159 2381 1159 1747 
Q 1159 1113 1420 752 
Q 1681 391 2138 391 
Q 2594 391 2855 752 
Q 3116 1113 3116 1747 
z
" transform="scale(0.015625)"/>
       <path id="DejaVuSans-69" d="M 603 3500 
L 1178 3500 
L 1178 0 
L 603 0 
L 603 3500 
z
M 603 4863 
L 1178 4863 
L 1178 4134 
L 603 4134 
L 603 4863 
z
" transform="scale(0.015625)"/>
       <path id="DejaVuSans-61" d="M 2194 1759 
Q 1497 1759 1228 1600 
Q 959 1441 959 1056 
Q 959 750 1161 570 
Q 1363 391 1709 391 
Q 2188 391 2477 730 
Q 2766 1069 2766 1631 
L 2766 1759 
L 2194 1759 
z
M 3341 1997 
L 3341 0 
L 2766 0 
L 2766 531 
Q 2569 213 2275 61 
Q 1981 -91 1556 -91 
Q 1019 -91 701 211 
Q 384 513 384 1019 
Q 384 1609 779 1909 
Q 1175 2209 1959 2209 
L 2766 2209 
L 2766 2266 
Q 2766 2663 2505 2880 
Q 2244 3097 1772 3097 
Q 1472 3097 1187 3025 
Q 903 2953 641 2809 
L 641 3341 
Q 956 3463 1253 3523 
Q 1550 3584 1831 3584 
Q 2591 3584 2966 3190 
Q 3341 2797 3341 1997 
z
" transform="scale(0.015625)"/>
       <path id="DejaVuSans-28" d="M 1984 4856 
Q 1566 4138 1362 3434 
Q 1159 2731 1159 2009 
Q 1159 1288 1364 580 
Q 1569 -128 1984 -844 
L 1484 -844 
Q 1016 -109 783 600 
Q 550 1309 550 2009 
Q 550 2706 781 3412 
Q 1013 4119 1484 4856 
L 1984 4856 
z
" transform="scale(0.015625)"/>
       <path id="DejaVuSans-6d" d="M 3328 2828 
Q 3544 3216 3844 3400 
Q 4144 3584 4550 3584 
Q 5097 3584 5394 3201 
Q 5691 2819 5691 2113 
L 5691 0 
L 5113 0 
L 5113 2094 
Q 5113 2597 4934 2840 
Q 4756 3084 4391 3084 
Q 3944 3084 3684 2787 
Q 3425 2491 3425 1978 
L 3425 0 
L 2847 0 
L 2847 2094 
Q 2847 2600 2669 2842 
Q 2491 3084 2119 3084 
Q 1678 3084 1418 2786 
Q 1159 2488 1159 1978 
L 1159 0 
L 581 0 
L 581 3500 
L 1159 3500 
L 1159 2956 
Q 1356 3278 1631 3431 
Q 1906 3584 2284 3584 
Q 2666 3584 2933 3390 
Q 3200 3197 3328 2828 
z
" transform="scale(0.015625)"/>
       <path id="DejaVuSans-74" d="M 1172 4494 
L 1172 3500 
L 2356 3500 
L 2356 3053 
L 1172 3053 
L 1172 1153 
Q 1172 725 1289 603 
Q 1406 481 1766 481 
L 2356 481 
L 2356 0 
L 1766 0 
Q 1100 0 847 248 
Q 594 497 594 1153 
L 594 3053 
L 172 3053 
L 172 3500 
L 594 3500 
L 594 4494 
L 1172 4494 
z
" transform="scale(0.015625)"/>
       <path id="DejaVuSans-29" d="M 513 4856 
L 1013 4856 
Q 1481 4119 1714 3412 
Q 1947 2706 1947 2009 
Q 1947 1309 1714 600 
Q 1481 -109 1013 -844 
L 513 -844 
Q 928 -128 1133 580 
Q 1338 1288 1338 2009 
Q 1338 2731 1133 3434 
Q 928 4138 513 4856 
z
" transform="scale(0.015625)"/>
      </defs>
      <use xlink:href="#DejaVuSans-49"/>
      <use xlink:href="#DejaVuSans-6e" x="29.492188"/>
      <use xlink:href="#DejaVuSans-66" x="92.871094"/>
      <use xlink:href="#DejaVuSans-6c" x="128.076172"/>
      <use xlink:href="#DejaVuSans-75" x="155.859375"/>
      <use xlink:href="#DejaVuSans-65" x="219.238281"/>
      <use xlink:href="#DejaVuSans-6e" x="280.761719"/>
      <use xlink:href="#DejaVuSans-63" x="344.140625"/>
      <use xlink:href="#DejaVuSans-65" x="399.121094"/>
      <use xlink:href="#DejaVuSans-20" x="460.644531"/>
      <use xlink:href="#DejaVuSans-6f" x="492.431641"/>
      <use xlink:href="#DejaVuSans-66" x="553.613281"/>
      <use xlink:href="#DejaVuSans-20" x="588.818359"/>
      <use xlink:href="#DejaVuSans-73" x="620.605469"/>
      <use xlink:href="#DejaVuSans-75" x="672.705078"/>
      <use xlink:href="#DejaVuSans-72" x="736.083984"/>
      <use xlink:href="#DejaVuSans-70" x="777.197266"/>
      <use xlink:href="#DejaVuSans-72" x="840.673828"/>
      <use xlink:href="#DejaVuSans-69" x="881.787109"/>
      <use xlink:href="#DejaVuSans-73" x="909.570312"/>
      <use xlink:href="#DejaVuSans-61" x="961.669922"/>
      <use xlink:href="#DejaVuSans-6c" x="1022.949219"/>
      <use xlink:href="#DejaVuSans-20" x="1050.732422"/>
      <use xlink:href="#DejaVuSans-28" x="1082.519531"/>
      <use xlink:href="#DejaVuSans-6d" x="1121.533203"/>
      <use xlink:href="#DejaVuSans-75" x="1218.945312"/>
      <use xlink:href="#DejaVuSans-6c" x="1282.324219"/>
      <use xlink:href="#DejaVuSans-74" x="1310.107422"/>
      <use xlink:href="#DejaVuSans-69" x="1349.316406"/>
      <use xlink:href="#DejaVuSans-70" x="1377.099609"/>
      <use xlink:href="#DejaVuSans-6c" x="1440.576172"/>
      <use xlink:href="#DejaVuSans-69" x="1468.359375"/>
      <use xlink:href="#DejaVuSans-63" x="1496.142578"/>
      <use xlink:href="#DejaVuSans-61" x="1551.123047"/>
      <use xlink:href="#DejaVuSans-74" x="1612.402344"/>
      <use xlink:href="#DejaVuSans-69" x="1651.611328"/>
      <use xlink:href="#DejaVuSans-6f" x="1679.394531"/>
      <use xlink:href="#DejaVuSans-6e" x="1740.576172"/>
      <use xlink:href="#DejaVuSans-29" x="1803.955078"/>
     </g>
    </g>
   </g>
   <g id="matplotlib.axis_2">
    <g id="ytick_1">
     <g id="line2d_6">
      <defs>
       <path id="m51934c0dcc" d="M 0 0 
L -3.5 0 
" style="stroke: #000000; stroke-width: 0.8"/>
      </defs>
      <g>
       <use xlink:href="#m51934c0dcc" x="47.72" y="153.675845" style="stroke: #000000; stroke-width: 0.8"/>
      </g>
     </g>
     <g id="text_7">
      <!-- 0.2 -->
      <g transform="translate(24.816875 157.475064)scale(0.1 -0.1)">
       <use xlink:href="#DejaVuSans-30"/>
       <use xlink:href="#DejaVuSans-2e" x="63.623047"/>
       <use xlink:href="#DejaVuSans-32" x="95.410156"/>
      </g>
     </g>
    </g>
    <g id="ytick_2">
     <g id="line2d_7">
      <g>
       <use xlink:href="#m51934c0dcc" x="47.72" y="121.617369" style="stroke: #000000; stroke-width: 0.8"/>
      </g>
     </g>
     <g id="text_8">
      <!-- 0.4 -->
      <g transform="translate(24.816875 125.416588)scale(0.1 -0.1)">
       <defs>
        <path id="DejaVuSans-34" d="M 2419 4116 
L 825 1625 
L 2419 1625 
L 2419 4116 
z
M 2253 4666 
L 3047 4666 
L 3047 1625 
L 3713 1625 
L 3713 1100 
L 3047 1100 
L 3047 0 
L 2419 0 
L 2419 1100 
L 313 1100 
L 313 1709 
L 2253 4666 
z
" transform="scale(0.015625)"/>
       </defs>
       <use xlink:href="#DejaVuSans-30"/>
       <use xlink:href="#DejaVuSans-2e" x="63.623047"/>
       <use xlink:href="#DejaVuSans-34" x="95.410156"/>
      </g>
     </g>
    </g>
    <g id="ytick_3">
     <g id="line2d_8">
      <g>
       <use xlink:href="#m51934c0dcc" x="47.72" y="89.558893" style="stroke: #000000; stroke-width: 0.8"/>
      </g>
     </g>
     <g id="text_9">
      <!-- 0.6 -->
      <g transform="translate(24.816875 93.358111)scale(0.1 -0.1)">
       <defs>
        <path id="DejaVuSans-36" d="M 2113 2584 
Q 1688 2584 1439 2293 
Q 1191 2003 1191 1497 
Q 1191 994 1439 701 
Q 1688 409 2113 409 
Q 2538 409 2786 701 
Q 3034 994 3034 1497 
Q 3034 2003 2786 2293 
Q 2538 2584 2113 2584 
z
M 3366 4563 
L 3366 3988 
Q 3128 4100 2886 4159 
Q 2644 4219 2406 4219 
Q 1781 4219 1451 3797 
Q 1122 3375 1075 2522 
Q 1259 2794 1537 2939 
Q 1816 3084 2150 3084 
Q 2853 3084 3261 2657 
Q 3669 2231 3669 1497 
Q 3669 778 3244 343 
Q 2819 -91 2113 -91 
Q 1303 -91 875 529 
Q 447 1150 447 2328 
Q 447 3434 972 4092 
Q 1497 4750 2381 4750 
Q 2619 4750 2861 4703 
Q 3103 4656 3366 4563 
z
" transform="scale(0.015625)"/>
       </defs>
       <use xlink:href="#DejaVuSans-30"/>
       <use xlink:href="#DejaVuSans-2e" x="63.623047"/>
       <use xlink:href="#DejaVuSans-36" x="95.410156"/>
      </g>
     </g>
    </g>
    <g id="ytick_4">
     <g id="line2d_9">
      <g>
       <use xlink:href="#m51934c0dcc" x="47.72" y="57.500416" style="stroke: #000000; stroke-width: 0.8"/>
      </g>
     </g>
     <g id="text_10">
      <!-- 0.8 -->
      <g transform="translate(24.816875 61.299635)scale(0.1 -0.1)">
       <defs>
        <path id="DejaVuSans-38" d="M 2034 2216 
Q 1584 2216 1326 1975 
Q 1069 1734 1069 1313 
Q 1069 891 1326 650 
Q 1584 409 2034 409 
Q 2484 409 2743 651 
Q 3003 894 3003 1313 
Q 3003 1734 2745 1975 
Q 2488 2216 2034 2216 
z
M 1403 2484 
Q 997 2584 770 2862 
Q 544 3141 544 3541 
Q 544 4100 942 4425 
Q 1341 4750 2034 4750 
Q 2731 4750 3128 4425 
Q 3525 4100 3525 3541 
Q 3525 3141 3298 2862 
Q 3072 2584 2669 2484 
Q 3125 2378 3379 2068 
Q 3634 1759 3634 1313 
Q 3634 634 3220 271 
Q 2806 -91 2034 -91 
Q 1263 -91 848 271 
Q 434 634 434 1313 
Q 434 1759 690 2068 
Q 947 2378 1403 2484 
z
M 1172 3481 
Q 1172 3119 1398 2916 
Q 1625 2713 2034 2713 
Q 2441 2713 2670 2916 
Q 2900 3119 2900 3481 
Q 2900 3844 2670 4047 
Q 2441 4250 2034 4250 
Q 1625 4250 1398 4047 
Q 1172 3844 1172 3481 
z
" transform="scale(0.015625)"/>
       </defs>
       <use xlink:href="#DejaVuSans-30"/>
       <use xlink:href="#DejaVuSans-2e" x="63.623047"/>
       <use xlink:href="#DejaVuSans-38" x="95.410156"/>
      </g>
     </g>
    </g>
    <g id="text_11">
     <!-- R-value -->
     <g transform="translate(18.737188 119.064687)rotate(-90)scale(0.1 -0.1)">
      <defs>
       <path id="DejaVuSans-52" d="M 2841 2188 
Q 3044 2119 3236 1894 
Q 3428 1669 3622 1275 
L 4263 0 
L 3584 0 
L 2988 1197 
Q 2756 1666 2539 1819 
Q 2322 1972 1947 1972 
L 1259 1972 
L 1259 0 
L 628 0 
L 628 4666 
L 2053 4666 
Q 2853 4666 3247 4331 
Q 3641 3997 3641 3322 
Q 3641 2881 3436 2590 
Q 3231 2300 2841 2188 
z
M 1259 4147 
L 1259 2491 
L 2053 2491 
Q 2509 2491 2742 2702 
Q 2975 2913 2975 3322 
Q 2975 3731 2742 3939 
Q 2509 4147 2053 4147 
L 1259 4147 
z
" transform="scale(0.015625)"/>
       <path id="DejaVuSans-2d" d="M 313 2009 
L 1997 2009 
L 1997 1497 
L 313 1497 
L 313 2009 
z
" transform="scale(0.015625)"/>
       <path id="DejaVuSans-76" d="M 191 3500 
L 800 3500 
L 1894 563 
L 2988 3500 
L 3597 3500 
L 2284 0 
L 1503 0 
L 191 3500 
z
" transform="scale(0.015625)"/>
      </defs>
      <use xlink:href="#DejaVuSans-52"/>
      <use xlink:href="#DejaVuSans-2d" x="65.482422"/>
      <use xlink:href="#DejaVuSans-76" x="98.941406"/>
      <use xlink:href="#DejaVuSans-61" x="158.121094"/>
      <use xlink:href="#DejaVuSans-6c" x="219.400391"/>
      <use xlink:href="#DejaVuSans-75" x="247.183594"/>
      <use xlink:href="#DejaVuSans-65" x="310.5625"/>
     </g>
    </g>
   </g>
   <g id="line2d_10">
    <path d="M 47.72 34.138693 
L 59.167105 36.091847 
L 70.614211 41.397346 
L 82.061316 49.354732 
L 93.508421 57.791377 
L 104.955526 67.603557 
L 116.402632 76.699451 
L 127.849737 86.087849 
L 139.296842 95.448794 
L 150.743947 104.203087 
L 162.191053 111.229676 
L 173.638158 119.181981 
L 185.085263 125.316472 
L 196.532368 130.408108 
L 207.979474 135.929032 
L 219.426579 140.74767 
L 230.873684 144.34918 
L 242.320789 147.593432 
L 253.767895 150.982122 
L 265.215 153.476445 
" clip-path="url(#p7a27fb013c)" style="fill: none; stroke: #1f77b4; stroke-width: 1.5; stroke-linecap: square"/>
   </g>
   <g id="line2d_11">
    <path d="M 47.72 34.154075 
L 59.167105 35.462277 
L 70.614211 38.508068 
L 82.061316 43.45385 
L 93.508421 49.346154 
L 104.955526 56.996162 
L 116.402632 64.639507 
L 127.849737 72.954303 
L 139.296842 81.753803 
L 150.743947 89.649732 
L 162.191053 96.896194 
L 173.638158 104.58258 
L 185.085263 111.434566 
L 196.532368 117.117612 
L 207.979474 122.958376 
L 219.426579 128.510147 
L 230.873684 132.862571 
L 242.320789 136.930428 
L 253.767895 140.994385 
L 265.215 144.333729 
" clip-path="url(#p7a27fb013c)" style="fill: none; stroke: #ff7f0e; stroke-width: 1.5; stroke-linecap: square"/>
   </g>
   <g id="line2d_12">
    <path d="M 47.72 34.146951 
L 59.167105 35.616689 
L 70.614211 38.222586 
L 82.061316 41.780737 
L 93.508421 45.562039 
L 104.955526 50.037971 
L 116.402632 54.25487 
L 127.849737 59.071308 
L 139.296842 63.597049 
L 150.743947 68.001051 
L 162.191053 72.262664 
L 173.638158 77.215997 
L 185.085263 81.674612 
L 196.532368 86.002056 
L 207.979474 90.103267 
L 219.426579 94.685217 
L 230.873684 98.609919 
L 242.320789 102.932544 
L 253.767895 106.725646 
L 265.215 110.229464 
" clip-path="url(#p7a27fb013c)" style="fill: none; stroke: #2ca02c; stroke-width: 1.5; stroke-linecap: square"/>
   </g>
   <g id="line2d_13">
    <path d="M 47.72 34.159014 
L 59.167105 35.377302 
L 70.614211 37.416697 
L 82.061316 40.374349 
L 93.508421 43.805249 
L 104.955526 48.174775 
L 116.402632 52.379411 
L 127.849737 57.366635 
L 139.296842 62.135932 
L 150.743947 66.807824 
L 162.191053 71.246475 
L 173.638158 76.374911 
L 185.085263 80.957353 
L 196.532368 85.232631 
L 207.979474 89.340877 
L 219.426579 93.860556 
L 230.873684 97.62701 
L 242.320789 101.852425 
L 253.767895 105.479718 
L 265.215 108.949967 
" clip-path="url(#p7a27fb013c)" style="fill: none; stroke: #d62728; stroke-width: 1.5; stroke-linecap: square"/>
   </g>
   <g id="line2d_14">
    <path d="M 47.72 34.152248 
L 59.167105 36.090598 
L 70.614211 41.439172 
L 82.061316 49.378476 
L 93.508421 57.861865 
L 104.955526 67.593025 
L 116.402632 76.601757 
L 127.849737 86.261432 
L 139.296842 95.700999 
L 150.743947 104.168018 
L 162.191053 111.535244 
L 173.638158 119.492529 
L 185.085263 125.415464 
L 196.532368 130.705205 
L 207.979474 136.454799 
L 219.426579 141.206154 
L 230.873684 144.149298 
L 242.320789 148.628667 
L 253.767895 152.049398 
L 265.215 153.838729 
" clip-path="url(#p7a27fb013c)" style="fill: none; stroke: #9467bd; stroke-width: 1.5; stroke-linecap: square"/>
   </g>
   <g id="line2d_15">
    <path d="M 47.72 34.168079 
L 59.167105 35.46304 
L 70.614211 38.543991 
L 82.061316 43.484934 
L 93.508421 49.399384 
L 104.955526 57.044711 
L 116.402632 64.577569 
L 127.849737 73.064136 
L 139.296842 81.924214 
L 150.743947 89.664752 
L 162.191053 97.210413 
L 173.638158 104.727779 
L 185.085263 111.54604 
L 196.532368 117.24812 
L 207.979474 123.529072 
L 219.426579 128.854525 
L 230.873684 132.74753 
L 242.320789 137.605551 
L 253.767895 141.816195 
L 265.215 144.637978 
" clip-path="url(#p7a27fb013c)" style="fill: none; stroke: #8c564b; stroke-width: 1.5; stroke-linecap: square"/>
   </g>
   <g id="line2d_16">
    <path d="M 47.72 45.979319 
L 59.167105 48.488193 
L 70.614211 54.420681 
L 82.061316 64.123801 
L 93.508421 74.167432 
L 104.955526 84.885115 
L 116.402632 94.623813 
L 127.849737 103.965343 
L 139.296842 113.017281 
L 150.743947 120.756641 
L 162.191053 127.45754 
L 173.638158 134.506563 
L 185.085263 139.996726 
L 196.532368 144.508905 
L 207.979474 149.31435 
L 219.426579 153.359933 
L 230.873684 156.512455 
L 242.320789 159.133587 
L 253.767895 161.92081 
L 265.215 163.830283 
" clip-path="url(#p7a27fb013c)" style="fill: none; stroke: #e377c2; stroke-width: 1.5; stroke-linecap: square"/>
   </g>
   <g id="line2d_17">
    <path d="M 47.72 34.160596 
L 59.167105 34.687656 
L 70.614211 35.396766 
L 82.061316 37.322903 
L 93.508421 41.012404 
L 104.955526 46.604848 
L 116.402632 53.234034 
L 127.849737 61.188181 
L 139.296842 69.027709 
L 150.743947 76.737687 
L 162.191053 84.189377 
L 173.638158 91.995853 
L 185.085263 99.350972 
L 196.532368 106.020187 
L 207.979474 112.917923 
L 219.426579 119.257206 
L 230.873684 124.44925 
L 242.320789 129.635839 
L 253.767895 134.552185 
L 265.215 138.378685 
" clip-path="url(#p7a27fb013c)" style="fill: none; stroke: #7f7f7f; stroke-width: 1.5; stroke-linecap: square"/>
   </g>
   <g id="patch_3">
    <path d="M 47.72 174.04 
L 47.72 26.88 
" style="fill: none; stroke: #000000; stroke-width: 0.8; stroke-linejoin: miter; stroke-linecap: square"/>
   </g>
   <g id="patch_4">
    <path d="M 47.72 174.04 
L 265.215 174.04 
" style="fill: none; stroke: #000000; stroke-width: 0.8; stroke-linejoin: miter; stroke-linecap: square"/>
   </g>
   <g id="text_12">
    <!-- Node * surprisal -->
    <g transform="translate(108.18625 20.88)scale(0.12 -0.12)">
     <defs>
      <path id="DejaVuSans-4e" d="M 628 4666 
L 1478 4666 
L 3547 763 
L 3547 4666 
L 4159 4666 
L 4159 0 
L 3309 0 
L 1241 3903 
L 1241 0 
L 628 0 
L 628 4666 
z
" transform="scale(0.015625)"/>
      <path id="DejaVuSans-64" d="M 2906 2969 
L 2906 4863 
L 3481 4863 
L 3481 0 
L 2906 0 
L 2906 525 
Q 2725 213 2448 61 
Q 2172 -91 1784 -91 
Q 1150 -91 751 415 
Q 353 922 353 1747 
Q 353 2572 751 3078 
Q 1150 3584 1784 3584 
Q 2172 3584 2448 3432 
Q 2725 3281 2906 2969 
z
M 947 1747 
Q 947 1113 1208 752 
Q 1469 391 1925 391 
Q 2381 391 2643 752 
Q 2906 1113 2906 1747 
Q 2906 2381 2643 2742 
Q 2381 3103 1925 3103 
Q 1469 3103 1208 2742 
Q 947 2381 947 1747 
z
" transform="scale(0.015625)"/>
      <path id="DejaVuSans-2a" d="M 3009 3897 
L 1888 3291 
L 3009 2681 
L 2828 2375 
L 1778 3009 
L 1778 1831 
L 1422 1831 
L 1422 3009 
L 372 2375 
L 191 2681 
L 1313 3291 
L 191 3897 
L 372 4206 
L 1422 3572 
L 1422 4750 
L 1778 4750 
L 1778 3572 
L 2828 4206 
L 3009 3897 
z
" transform="scale(0.015625)"/>
     </defs>
     <use xlink:href="#DejaVuSans-4e"/>
     <use xlink:href="#DejaVuSans-6f" x="74.804688"/>
     <use xlink:href="#DejaVuSans-64" x="135.986328"/>
     <use xlink:href="#DejaVuSans-65" x="199.462891"/>
     <use xlink:href="#DejaVuSans-20" x="260.986328"/>
     <use xlink:href="#DejaVuSans-2a" x="292.773438"/>
     <use xlink:href="#DejaVuSans-20" x="342.773438"/>
     <use xlink:href="#DejaVuSans-73" x="374.560547"/>
     <use xlink:href="#DejaVuSans-75" x="426.660156"/>
     <use xlink:href="#DejaVuSans-72" x="490.039062"/>
     <use xlink:href="#DejaVuSans-70" x="531.152344"/>
     <use xlink:href="#DejaVuSans-72" x="594.628906"/>
     <use xlink:href="#DejaVuSans-69" x="635.742188"/>
     <use xlink:href="#DejaVuSans-73" x="663.525391"/>
     <use xlink:href="#DejaVuSans-61" x="715.625"/>
     <use xlink:href="#DejaVuSans-6c" x="776.904297"/>
    </g>
   </g>
  </g>
  <g id="axes_2">
   <g id="patch_5">
    <path d="M 298.065 174.04 
L 515.56 174.04 
L 515.56 26.88 
L 298.065 26.88 
z
" style="fill: #ffffff"/>
   </g>
   <g id="PolyCollection_9">
    <path d="M 298.065 33.569091 
L 298.065 34.473264 
L 309.512105 36.90734 
L 320.959211 44.047205 
L 332.406316 52.818748 
L 343.853421 62.178934 
L 355.300526 71.706042 
L 366.747632 81.865509 
L 378.194737 91.952835 
L 389.641842 100.643998 
L 401.088947 110.616446 
L 412.536053 118.376181 
L 423.983158 126.299265 
L 435.430263 133.153633 
L 446.877368 139.649342 
L 458.324474 144.076187 
L 469.771579 148.77636 
L 481.218684 152.383484 
L 492.665789 156.002826 
L 504.112895 158.617074 
L 515.56 161.252914 
L 515.56 149.839834 
L 515.56 149.839834 
L 504.112895 146.640608 
L 492.665789 144.950765 
L 481.218684 141.153359 
L 469.771579 137.021189 
L 458.324474 133.322373 
L 446.877368 127.775928 
L 435.430263 122.333257 
L 423.983158 116.154312 
L 412.536053 109.484148 
L 401.088947 102.185395 
L 389.641842 94.740923 
L 378.194737 85.235003 
L 366.747632 77.52256 
L 355.300526 68.364554 
L 343.853421 58.004108 
L 332.406316 48.253448 
L 320.959211 41.675252 
L 309.512105 35.856505 
L 298.065 33.569091 
z
" clip-path="url(#pb60751ae4b)" style="fill: #1f77b4; fill-opacity: 0.4"/>
   </g>
   <g id="PolyCollection_10">
    <path d="M 298.065 33.577279 
L 298.065 34.482577 
L 309.512105 36.922442 
L 320.959211 44.06698 
L 332.406316 52.834037 
L 343.853421 62.243038 
L 355.300526 71.809637 
L 366.747632 81.958733 
L 378.194737 92.058278 
L 389.641842 100.816124 
L 401.088947 110.867336 
L 412.536053 118.664097 
L 423.983158 126.592958 
L 435.430263 133.523292 
L 446.877368 140.142339 
L 458.324474 144.550348 
L 469.771579 149.403345 
L 481.218684 153.046217 
L 492.665789 156.601766 
L 504.112895 159.474293 
L 515.56 162.282199 
L 515.56 149.815118 
L 515.56 149.815118 
L 504.112895 146.787927 
L 492.665789 144.913007 
L 481.218684 141.232927 
L 469.771579 137.246301 
L 458.324474 133.444285 
L 446.877368 127.86642 
L 435.430263 122.378494 
L 423.983158 116.209817 
L 412.536053 109.535562 
L 401.088947 102.314005 
L 389.641842 94.910711 
L 378.194737 85.285642 
L 366.747632 77.574887 
L 355.300526 68.323123 
L 343.853421 57.994962 
L 332.406316 48.254278 
L 320.959211 41.683521 
L 309.512105 35.851855 
L 298.065 33.577279 
z
" clip-path="url(#pb60751ae4b)" style="fill: #ff7f0e; fill-opacity: 0.4"/>
   </g>
   <g id="PolyCollection_11">
    <path d="M 298.065 33.58027 
L 298.065 34.482029 
L 309.512105 36.918368 
L 320.959211 44.055806 
L 332.406316 52.859796 
L 343.853421 62.139011 
L 355.300526 71.774121 
L 366.747632 82.006596 
L 378.194737 92.210284 
L 389.641842 100.956351 
L 401.088947 111.087407 
L 412.536053 119.072921 
L 423.983158 127.034143 
L 435.430263 134.186182 
L 446.877368 140.850251 
L 458.324474 145.334601 
L 469.771579 150.092952 
L 481.218684 153.900682 
L 492.665789 157.470881 
L 504.112895 160.270878 
L 515.56 163.3537 
L 515.56 149.480397 
L 515.56 149.480397 
L 504.112895 146.143426 
L 492.665789 144.472562 
L 481.218684 140.624012 
L 469.771579 136.349961 
L 458.324474 132.767637 
L 446.877368 127.376262 
L 435.430263 121.959485 
L 423.983158 115.827603 
L 412.536053 109.231576 
L 401.088947 102.132781 
L 389.641842 94.645967 
L 378.194737 85.142552 
L 366.747632 77.446454 
L 355.300526 68.309079 
L 343.853421 58.051017 
L 332.406316 48.19938 
L 320.959211 41.696234 
L 309.512105 35.857133 
L 298.065 33.58027 
z
" clip-path="url(#pb60751ae4b)" style="fill: #2ca02c; fill-opacity: 0.4"/>
   </g>
   <g id="PolyCollection_12">
    <path d="M 298.065 33.591394 
L 298.065 34.498133 
L 309.512105 36.942025 
L 320.959211 44.075279 
L 332.406316 52.87343 
L 343.853421 62.199006 
L 355.300526 71.858778 
L 366.747632 82.076425 
L 378.194737 92.316733 
L 389.641842 101.061705 
L 401.088947 111.288213 
L 412.536053 119.326658 
L 423.983158 127.388578 
L 435.430263 134.570052 
L 446.877368 141.174822 
L 458.324474 145.788714 
L 469.771579 150.493378 
L 481.218684 154.360974 
L 492.665789 158.047562 
L 504.112895 160.820406 
L 515.56 163.907134 
L 515.56 149.301018 
L 515.56 149.301018 
L 504.112895 146.034957 
L 492.665789 144.266251 
L 481.218684 140.598658 
L 469.771579 136.40546 
L 458.324474 132.75081 
L 446.877368 127.353176 
L 435.430263 121.87428 
L 423.983158 115.78616 
L 412.536053 109.293021 
L 401.088947 102.274542 
L 389.641842 94.856549 
L 378.194737 85.255366 
L 366.747632 77.587996 
L 355.300526 68.339271 
L 343.853421 58.067805 
L 332.406316 48.215703 
L 320.959211 41.720118 
L 309.512105 35.853251 
L 298.065 33.591394 
z
" clip-path="url(#pb60751ae4b)" style="fill: #d62728; fill-opacity: 0.4"/>
   </g>
   <g id="PolyCollection_13">
    <path d="M 298.065 33.578321 
L 298.065 34.479283 
L 309.512105 36.920354 
L 320.959211 44.085795 
L 332.406316 52.954352 
L 343.853421 62.223432 
L 355.300526 71.75907 
L 366.747632 82.102083 
L 378.194737 92.134018 
L 389.641842 100.882104 
L 401.088947 111.317805 
L 412.536053 117.942899 
L 423.983158 126.180274 
L 435.430263 133.859599 
L 446.877368 139.626486 
L 458.324474 145.947511 
L 469.771579 150.159514 
L 481.218684 152.963303 
L 492.665789 156.959031 
L 504.112895 159.172957 
L 515.56 160.936015 
L 515.56 151.250954 
L 515.56 151.250954 
L 504.112895 147.502349 
L 492.665789 145.786879 
L 481.218684 142.121922 
L 469.771579 137.341954 
L 458.324474 134.280433 
L 446.877368 128.256727 
L 435.430263 122.839136 
L 423.983158 116.49216 
L 412.536053 109.490939 
L 401.088947 102.033665 
L 389.641842 95.058652 
L 378.194737 85.275158 
L 366.747632 77.684004 
L 355.300526 68.508101 
L 343.853421 58.102086 
L 332.406316 48.256638 
L 320.959211 41.709569 
L 309.512105 35.868435 
L 298.065 33.578321 
z
" clip-path="url(#pb60751ae4b)" style="fill: #9467bd; fill-opacity: 0.4"/>
   </g>
   <g id="PolyCollection_14">
    <path d="M 298.065 33.587488 
L 298.065 34.487778 
L 309.512105 36.936638 
L 320.959211 44.106692 
L 332.406316 52.970256 
L 343.853421 62.279343 
L 355.300526 71.855956 
L 366.747632 82.208345 
L 378.194737 92.262375 
L 389.641842 101.057616 
L 401.088947 111.569045 
L 412.536053 118.224181 
L 423.983158 126.492971 
L 435.430263 134.204782 
L 446.877368 140.142303 
L 458.324474 146.485456 
L 469.771579 150.706455 
L 481.218684 153.466732 
L 492.665789 157.583851 
L 504.112895 160.020559 
L 515.56 161.980829 
L 515.56 151.160161 
L 515.56 151.160161 
L 504.112895 147.608398 
L 492.665789 145.678383 
L 481.218684 142.297503 
L 469.771579 137.578477 
L 458.324474 134.322102 
L 446.877368 128.327775 
L 435.430263 122.912609 
L 423.983158 116.537853 
L 412.536053 109.52687 
L 401.088947 102.154794 
L 389.641842 95.214859 
L 378.194737 85.325035 
L 366.747632 77.721396 
L 355.300526 68.476483 
L 343.853421 58.096868 
L 332.406316 48.257715 
L 320.959211 41.719706 
L 309.512105 35.864546 
L 298.065 33.587488 
z
" clip-path="url(#pb60751ae4b)" style="fill: #8c564b; fill-opacity: 0.4"/>
   </g>
   <g id="PolyCollection_15">
    <path d="M 298.065 44.384776 
L 298.065 47.101258 
L 309.512105 49.391959 
L 320.959211 55.801027 
L 332.406316 63.780184 
L 343.853421 72.380396 
L 355.300526 80.945281 
L 366.747632 90.353825 
L 378.194737 99.951009 
L 389.641842 108.132254 
L 401.088947 117.535922 
L 412.536053 125.31944 
L 423.983158 133.212227 
L 435.430263 139.346204 
L 446.877368 145.078926 
L 458.324474 149.305907 
L 469.771579 153.354821 
L 481.218684 156.249766 
L 492.665789 159.294493 
L 504.112895 161.772817 
L 515.56 163.933771 
L 515.56 151.91955 
L 515.56 151.91955 
L 504.112895 148.926692 
L 492.665789 147.224497 
L 481.218684 143.407279 
L 469.771579 139.776397 
L 458.324474 136.14025 
L 446.877368 131.142225 
L 435.430263 125.927809 
L 423.983158 120.763291 
L 412.536053 114.659868 
L 401.088947 108.553331 
L 389.641842 101.420461 
L 378.194737 92.645544 
L 366.747632 85.719024 
L 355.300526 76.847896 
L 343.853421 67.09584 
L 332.406316 58.249079 
L 320.959211 52.445081 
L 309.512105 46.568527 
L 298.065 44.384776 
z
" clip-path="url(#pb60751ae4b)" style="fill: #e377c2; fill-opacity: 0.4"/>
   </g>
   <g id="PolyCollection_16">
    <path d="M 298.065 33.58413 
L 298.065 34.492428 
L 309.512105 36.93432 
L 320.959211 44.039105 
L 332.406316 52.808674 
L 343.853421 62.131126 
L 355.300526 71.793463 
L 366.747632 81.977317 
L 378.194737 92.177058 
L 389.641842 100.955648 
L 401.088947 111.18308 
L 412.536053 119.380909 
L 423.983158 127.409235 
L 435.430263 134.618192 
L 446.877368 141.384975 
L 458.324474 146.026636 
L 469.771579 150.75865 
L 481.218684 154.53742 
L 492.665789 158.099153 
L 504.112895 160.782857 
L 515.56 163.86054 
L 515.56 149.937121 
L 515.56 149.937121 
L 504.112895 146.906089 
L 492.665789 144.958455 
L 481.218684 141.071397 
L 469.771579 137.247834 
L 458.324474 133.32296 
L 446.877368 127.879722 
L 435.430263 122.225432 
L 423.983158 116.081135 
L 412.536053 109.498301 
L 401.088947 102.397347 
L 389.641842 94.920483 
L 378.194737 85.324388 
L 366.747632 77.627918 
L 355.300526 68.357116 
L 343.853421 58.093655 
L 332.406316 48.248359 
L 320.959211 41.737072 
L 309.512105 35.867601 
L 298.065 33.58413 
z
" clip-path="url(#pb60751ae4b)" style="fill: #7f7f7f; fill-opacity: 0.4"/>
   </g>
   <g id="matplotlib.axis_3">
    <g id="xtick_6">
     <g id="line2d_18">
      <g>
       <use xlink:href="#m5d717af960" x="298.065" y="174.04" style="stroke: #000000; stroke-width: 0.8"/>
      </g>
     </g>
     <g id="text_13">
      <!-- 0.0 -->
      <g transform="translate(290.113437 188.638438)scale(0.1 -0.1)">
       <use xlink:href="#DejaVuSans-30"/>
       <use xlink:href="#DejaVuSans-2e" x="63.623047"/>
       <use xlink:href="#DejaVuSans-30" x="95.410156"/>
      </g>
     </g>
    </g>
    <g id="xtick_7">
     <g id="line2d_19">
      <g>
       <use xlink:href="#m5d717af960" x="352.43875" y="174.04" style="stroke: #000000; stroke-width: 0.8"/>
      </g>
     </g>
     <g id="text_14">
      <!-- 0.5 -->
      <g transform="translate(344.487187 188.638438)scale(0.1 -0.1)">
       <use xlink:href="#DejaVuSans-30"/>
       <use xlink:href="#DejaVuSans-2e" x="63.623047"/>
       <use xlink:href="#DejaVuSans-35" x="95.410156"/>
      </g>
     </g>
    </g>
    <g id="xtick_8">
     <g id="line2d_20">
      <g>
       <use xlink:href="#m5d717af960" x="406.8125" y="174.04" style="stroke: #000000; stroke-width: 0.8"/>
      </g>
     </g>
     <g id="text_15">
      <!-- 1.0 -->
      <g transform="translate(398.860937 188.638438)scale(0.1 -0.1)">
       <use xlink:href="#DejaVuSans-31"/>
       <use xlink:href="#DejaVuSans-2e" x="63.623047"/>
       <use xlink:href="#DejaVuSans-30" x="95.410156"/>
      </g>
     </g>
    </g>
    <g id="xtick_9">
     <g id="line2d_21">
      <g>
       <use xlink:href="#m5d717af960" x="461.18625" y="174.04" style="stroke: #000000; stroke-width: 0.8"/>
      </g>
     </g>
     <g id="text_16">
      <!-- 1.5 -->
      <g transform="translate(453.234687 188.638438)scale(0.1 -0.1)">
       <use xlink:href="#DejaVuSans-31"/>
       <use xlink:href="#DejaVuSans-2e" x="63.623047"/>
       <use xlink:href="#DejaVuSans-35" x="95.410156"/>
      </g>
     </g>
    </g>
    <g id="xtick_10">
     <g id="line2d_22">
      <g>
       <use xlink:href="#m5d717af960" x="515.56" y="174.04" style="stroke: #000000; stroke-width: 0.8"/>
      </g>
     </g>
     <g id="text_17">
      <!-- 2.0 -->
      <g transform="translate(507.608437 188.638438)scale(0.1 -0.1)">
       <use xlink:href="#DejaVuSans-32"/>
       <use xlink:href="#DejaVuSans-2e" x="63.623047"/>
       <use xlink:href="#DejaVuSans-30" x="95.410156"/>
      </g>
     </g>
    </g>
    <g id="text_18">
     <!-- Influence of surprisal (multiplication) -->
     <g transform="translate(314.665625 202.316563)scale(0.1 -0.1)">
      <use xlink:href="#DejaVuSans-49"/>
      <use xlink:href="#DejaVuSans-6e" x="29.492188"/>
      <use xlink:href="#DejaVuSans-66" x="92.871094"/>
      <use xlink:href="#DejaVuSans-6c" x="128.076172"/>
      <use xlink:href="#DejaVuSans-75" x="155.859375"/>
      <use xlink:href="#DejaVuSans-65" x="219.238281"/>
      <use xlink:href="#DejaVuSans-6e" x="280.761719"/>
      <use xlink:href="#DejaVuSans-63" x="344.140625"/>
      <use xlink:href="#DejaVuSans-65" x="399.121094"/>
      <use xlink:href="#DejaVuSans-20" x="460.644531"/>
      <use xlink:href="#DejaVuSans-6f" x="492.431641"/>
      <use xlink:href="#DejaVuSans-66" x="553.613281"/>
      <use xlink:href="#DejaVuSans-20" x="588.818359"/>
      <use xlink:href="#DejaVuSans-73" x="620.605469"/>
      <use xlink:href="#DejaVuSans-75" x="672.705078"/>
      <use xlink:href="#DejaVuSans-72" x="736.083984"/>
      <use xlink:href="#DejaVuSans-70" x="777.197266"/>
      <use xlink:href="#DejaVuSans-72" x="840.673828"/>
      <use xlink:href="#DejaVuSans-69" x="881.787109"/>
      <use xlink:href="#DejaVuSans-73" x="909.570312"/>
      <use xlink:href="#DejaVuSans-61" x="961.669922"/>
      <use xlink:href="#DejaVuSans-6c" x="1022.949219"/>
      <use xlink:href="#DejaVuSans-20" x="1050.732422"/>
      <use xlink:href="#DejaVuSans-28" x="1082.519531"/>
      <use xlink:href="#DejaVuSans-6d" x="1121.533203"/>
      <use xlink:href="#DejaVuSans-75" x="1218.945312"/>
      <use xlink:href="#DejaVuSans-6c" x="1282.324219"/>
      <use xlink:href="#DejaVuSans-74" x="1310.107422"/>
      <use xlink:href="#DejaVuSans-69" x="1349.316406"/>
      <use xlink:href="#DejaVuSans-70" x="1377.099609"/>
      <use xlink:href="#DejaVuSans-6c" x="1440.576172"/>
      <use xlink:href="#DejaVuSans-69" x="1468.359375"/>
      <use xlink:href="#DejaVuSans-63" x="1496.142578"/>
      <use xlink:href="#DejaVuSans-61" x="1551.123047"/>
      <use xlink:href="#DejaVuSans-74" x="1612.402344"/>
      <use xlink:href="#DejaVuSans-69" x="1651.611328"/>
      <use xlink:href="#DejaVuSans-6f" x="1679.394531"/>
      <use xlink:href="#DejaVuSans-6e" x="1740.576172"/>
      <use xlink:href="#DejaVuSans-29" x="1803.955078"/>
     </g>
    </g>
   </g>
   <g id="line2d_23">
    <path d="M 298.065 34.021177 
L 309.512105 36.381922 
L 320.959211 42.861228 
L 332.406316 50.536098 
L 343.853421 60.091521 
L 355.300526 70.035298 
L 366.747632 79.694034 
L 378.194737 88.593919 
L 389.641842 97.692461 
L 401.088947 106.400921 
L 412.536053 113.930165 
L 423.983158 121.226789 
L 435.430263 127.743445 
L 446.877368 133.712635 
L 458.324474 138.69928 
L 469.771579 142.898774 
L 481.218684 146.768421 
L 492.665789 150.476796 
L 504.112895 152.628841 
L 515.56 155.546374 
" clip-path="url(#pb60751ae4b)" style="fill: none; stroke: #1f77b4; stroke-width: 1.5; stroke-linecap: square"/>
   </g>
   <g id="line2d_24">
    <path d="M 298.065 34.029928 
L 309.512105 36.387148 
L 320.959211 42.87525 
L 332.406316 50.544157 
L 343.853421 60.119 
L 355.300526 70.06638 
L 366.747632 79.76681 
L 378.194737 88.67196 
L 389.641842 97.863417 
L 401.088947 106.59067 
L 412.536053 114.09983 
L 423.983158 121.401387 
L 435.430263 127.950893 
L 446.877368 134.004379 
L 458.324474 138.997316 
L 469.771579 143.324823 
L 481.218684 147.139572 
L 492.665789 150.757386 
L 504.112895 153.13111 
L 515.56 156.048659 
" clip-path="url(#pb60751ae4b)" style="fill: none; stroke: #ff7f0e; stroke-width: 1.5; stroke-linecap: square"/>
   </g>
   <g id="line2d_25">
    <path d="M 298.065 34.03115 
L 309.512105 36.387751 
L 320.959211 42.87602 
L 332.406316 50.529588 
L 343.853421 60.095014 
L 355.300526 70.0416 
L 366.747632 79.726525 
L 378.194737 88.676418 
L 389.641842 97.801159 
L 401.088947 106.610094 
L 412.536053 114.152249 
L 423.983158 121.430873 
L 435.430263 128.072833 
L 446.877368 134.113257 
L 458.324474 139.051119 
L 469.771579 143.221457 
L 481.218684 147.262347 
L 492.665789 150.971722 
L 504.112895 153.207152 
L 515.56 156.417048 
" clip-path="url(#pb60751ae4b)" style="fill: none; stroke: #2ca02c; stroke-width: 1.5; stroke-linecap: square"/>
   </g>
   <g id="line2d_26">
    <path d="M 298.065 34.044764 
L 309.512105 36.397638 
L 320.959211 42.897699 
L 332.406316 50.544566 
L 343.853421 60.133405 
L 355.300526 70.099024 
L 366.747632 79.83221 
L 378.194737 88.786049 
L 389.641842 97.959127 
L 401.088947 106.781377 
L 412.536053 114.30984 
L 423.983158 121.587369 
L 435.430263 128.222166 
L 446.877368 134.263999 
L 458.324474 139.269762 
L 469.771579 143.449419 
L 481.218684 147.479816 
L 492.665789 151.156907 
L 504.112895 153.427682 
L 515.56 156.604076 
" clip-path="url(#pb60751ae4b)" style="fill: none; stroke: #d62728; stroke-width: 1.5; stroke-linecap: square"/>
   </g>
   <g id="line2d_27">
    <path d="M 298.065 34.028802 
L 309.512105 36.394394 
L 320.959211 42.897682 
L 332.406316 50.605495 
L 343.853421 60.162759 
L 355.300526 70.133586 
L 366.747632 79.893043 
L 378.194737 88.704588 
L 389.641842 97.970378 
L 401.088947 106.675735 
L 412.536053 113.716919 
L 423.983158 121.336217 
L 435.430263 128.349367 
L 446.877368 133.941606 
L 458.324474 140.113972 
L 469.771579 143.750734 
L 481.218684 147.542613 
L 492.665789 151.372955 
L 504.112895 153.337653 
L 515.56 156.093484 
" clip-path="url(#pb60751ae4b)" style="fill: none; stroke: #9467bd; stroke-width: 1.5; stroke-linecap: square"/>
   </g>
   <g id="line2d_28">
    <path d="M 298.065 34.037633 
L 309.512105 36.400592 
L 320.959211 42.913199 
L 332.406316 50.613986 
L 343.853421 60.188106 
L 355.300526 70.16622 
L 366.747632 79.964871 
L 378.194737 88.793705 
L 389.641842 98.136237 
L 401.088947 106.861919 
L 412.536053 113.875525 
L 423.983158 121.515412 
L 435.430263 128.558695 
L 446.877368 134.235039 
L 458.324474 140.403779 
L 469.771579 144.142466 
L 481.218684 147.882118 
L 492.665789 151.631117 
L 504.112895 153.814478 
L 515.56 156.570495 
" clip-path="url(#pb60751ae4b)" style="fill: none; stroke: #8c564b; stroke-width: 1.5; stroke-linecap: square"/>
   </g>
   <g id="line2d_29">
    <path d="M 298.065 45.743017 
L 309.512105 47.980243 
L 320.959211 54.123054 
L 332.406316 61.014632 
L 343.853421 69.738118 
L 355.300526 78.896589 
L 366.747632 88.036424 
L 378.194737 96.298276 
L 389.641842 104.776357 
L 401.088947 113.044626 
L 412.536053 119.989654 
L 423.983158 126.987759 
L 435.430263 132.637007 
L 446.877368 138.110576 
L 458.324474 142.723078 
L 469.771579 146.565609 
L 481.218684 149.828523 
L 492.665789 153.259495 
L 504.112895 155.349755 
L 515.56 157.926661 
" clip-path="url(#pb60751ae4b)" style="fill: none; stroke: #e377c2; stroke-width: 1.5; stroke-linecap: square"/>
   </g>
   <g id="line2d_30">
    <path d="M 298.065 34.038279 
L 309.512105 36.40096 
L 320.959211 42.888089 
L 332.406316 50.528516 
L 343.853421 60.112391 
L 355.300526 70.075289 
L 366.747632 79.802617 
L 378.194737 88.750723 
L 389.641842 97.938066 
L 401.088947 106.790213 
L 412.536053 114.439605 
L 423.983158 121.745185 
L 435.430263 128.421812 
L 446.877368 134.632349 
L 458.324474 139.674798 
L 469.771579 144.003242 
L 481.218684 147.804409 
L 492.665789 151.528804 
L 504.112895 153.844473 
L 515.56 156.898831 
" clip-path="url(#pb60751ae4b)" style="fill: none; stroke: #7f7f7f; stroke-width: 1.5; stroke-linecap: square"/>
   </g>
   <g id="patch_6">
    <path d="M 298.065 174.04 
L 298.065 26.88 
" style="fill: none; stroke: #000000; stroke-width: 0.8; stroke-linejoin: miter; stroke-linecap: square"/>
   </g>
   <g id="patch_7">
    <path d="M 298.065 174.04 
L 515.56 174.04 
" style="fill: none; stroke: #000000; stroke-width: 0.8; stroke-linejoin: miter; stroke-linecap: square"/>
   </g>
   <g id="text_19">
    <!-- Node * third variable -->
    <g transform="translate(344.2325 20.88)scale(0.12 -0.12)">
     <defs>
      <path id="DejaVuSans-68" d="M 3513 2113 
L 3513 0 
L 2938 0 
L 2938 2094 
Q 2938 2591 2744 2837 
Q 2550 3084 2163 3084 
Q 1697 3084 1428 2787 
Q 1159 2491 1159 1978 
L 1159 0 
L 581 0 
L 581 4863 
L 1159 4863 
L 1159 2956 
Q 1366 3272 1645 3428 
Q 1925 3584 2291 3584 
Q 2894 3584 3203 3211 
Q 3513 2838 3513 2113 
z
" transform="scale(0.015625)"/>
      <path id="DejaVuSans-62" d="M 3116 1747 
Q 3116 2381 2855 2742 
Q 2594 3103 2138 3103 
Q 1681 3103 1420 2742 
Q 1159 2381 1159 1747 
Q 1159 1113 1420 752 
Q 1681 391 2138 391 
Q 2594 391 2855 752 
Q 3116 1113 3116 1747 
z
M 1159 2969 
Q 1341 3281 1617 3432 
Q 1894 3584 2278 3584 
Q 2916 3584 3314 3078 
Q 3713 2572 3713 1747 
Q 3713 922 3314 415 
Q 2916 -91 2278 -91 
Q 1894 -91 1617 61 
Q 1341 213 1159 525 
L 1159 0 
L 581 0 
L 581 4863 
L 1159 4863 
L 1159 2969 
z
" transform="scale(0.015625)"/>
     </defs>
     <use xlink:href="#DejaVuSans-4e"/>
     <use xlink:href="#DejaVuSans-6f" x="74.804688"/>
     <use xlink:href="#DejaVuSans-64" x="135.986328"/>
     <use xlink:href="#DejaVuSans-65" x="199.462891"/>
     <use xlink:href="#DejaVuSans-20" x="260.986328"/>
     <use xlink:href="#DejaVuSans-2a" x="292.773438"/>
     <use xlink:href="#DejaVuSans-20" x="342.773438"/>
     <use xlink:href="#DejaVuSans-74" x="374.560547"/>
     <use xlink:href="#DejaVuSans-68" x="413.769531"/>
     <use xlink:href="#DejaVuSans-69" x="477.148438"/>
     <use xlink:href="#DejaVuSans-72" x="504.931641"/>
     <use xlink:href="#DejaVuSans-64" x="544.294922"/>
     <use xlink:href="#DejaVuSans-20" x="607.771484"/>
     <use xlink:href="#DejaVuSans-76" x="639.558594"/>
     <use xlink:href="#DejaVuSans-61" x="698.738281"/>
     <use xlink:href="#DejaVuSans-72" x="760.017578"/>
     <use xlink:href="#DejaVuSans-69" x="801.130859"/>
     <use xlink:href="#DejaVuSans-61" x="828.914062"/>
     <use xlink:href="#DejaVuSans-62" x="890.193359"/>
     <use xlink:href="#DejaVuSans-6c" x="953.669922"/>
     <use xlink:href="#DejaVuSans-65" x="981.453125"/>
    </g>
   </g>
   <g id="legend_1">
    <g id="line2d_31">
     <path d="M 524.56 39.978437 
L 534.56 39.978437 
L 544.56 39.978437 
" style="fill: none; stroke: #1f77b4; stroke-width: 1.5; stroke-linecap: square"/>
    </g>
    <g id="text_20">
     <!-- Node -->
     <g transform="translate(552.56 43.478437)scale(0.1 -0.1)">
      <use xlink:href="#DejaVuSans-4e"/>
      <use xlink:href="#DejaVuSans-6f" x="74.804688"/>
      <use xlink:href="#DejaVuSans-64" x="135.986328"/>
      <use xlink:href="#DejaVuSans-65" x="199.462891"/>
     </g>
    </g>
    <g id="line2d_32">
     <path d="M 524.56 54.656563 
L 534.56 54.656563 
L 544.56 54.656563 
" style="fill: none; stroke: #ff7f0e; stroke-width: 1.5; stroke-linecap: square"/>
    </g>
    <g id="text_21">
     <!-- Node + surprisal -->
     <g transform="translate(552.56 58.156563)scale(0.1 -0.1)">
      <defs>
       <path id="DejaVuSans-2b" d="M 2944 4013 
L 2944 2272 
L 4684 2272 
L 4684 1741 
L 2944 1741 
L 2944 0 
L 2419 0 
L 2419 1741 
L 678 1741 
L 678 2272 
L 2419 2272 
L 2419 4013 
L 2944 4013 
z
" transform="scale(0.015625)"/>
      </defs>
      <use xlink:href="#DejaVuSans-4e"/>
      <use xlink:href="#DejaVuSans-6f" x="74.804688"/>
      <use xlink:href="#DejaVuSans-64" x="135.986328"/>
      <use xlink:href="#DejaVuSans-65" x="199.462891"/>
      <use xlink:href="#DejaVuSans-20" x="260.986328"/>
      <use xlink:href="#DejaVuSans-2b" x="292.773438"/>
      <use xlink:href="#DejaVuSans-20" x="376.5625"/>
      <use xlink:href="#DejaVuSans-73" x="408.349609"/>
      <use xlink:href="#DejaVuSans-75" x="460.449219"/>
      <use xlink:href="#DejaVuSans-72" x="523.828125"/>
      <use xlink:href="#DejaVuSans-70" x="564.941406"/>
      <use xlink:href="#DejaVuSans-72" x="628.417969"/>
      <use xlink:href="#DejaVuSans-69" x="669.53125"/>
      <use xlink:href="#DejaVuSans-73" x="697.314453"/>
      <use xlink:href="#DejaVuSans-61" x="749.414062"/>
      <use xlink:href="#DejaVuSans-6c" x="810.693359"/>
     </g>
    </g>
    <g id="line2d_33">
     <path d="M 524.56 69.334687 
L 534.56 69.334687 
L 544.56 69.334687 
" style="fill: none; stroke: #2ca02c; stroke-width: 1.5; stroke-linecap: square"/>
    </g>
    <g id="text_22">
     <!-- Node split -->
     <g transform="translate(552.56 72.834687)scale(0.1 -0.1)">
      <use xlink:href="#DejaVuSans-4e"/>
      <use xlink:href="#DejaVuSans-6f" x="74.804688"/>
      <use xlink:href="#DejaVuSans-64" x="135.986328"/>
      <use xlink:href="#DejaVuSans-65" x="199.462891"/>
      <use xlink:href="#DejaVuSans-20" x="260.986328"/>
      <use xlink:href="#DejaVuSans-73" x="292.773438"/>
      <use xlink:href="#DejaVuSans-70" x="344.873047"/>
      <use xlink:href="#DejaVuSans-6c" x="408.349609"/>
      <use xlink:href="#DejaVuSans-69" x="436.132812"/>
      <use xlink:href="#DejaVuSans-74" x="463.916016"/>
     </g>
    </g>
    <g id="line2d_34">
     <path d="M 524.56 84.012812 
L 534.56 84.012812 
L 544.56 84.012812 
" style="fill: none; stroke: #d62728; stroke-width: 1.5; stroke-linecap: square"/>
    </g>
    <g id="text_23">
     <!-- Node split + surprisal -->
     <g transform="translate(552.56 87.512812)scale(0.1 -0.1)">
      <use xlink:href="#DejaVuSans-4e"/>
      <use xlink:href="#DejaVuSans-6f" x="74.804688"/>
      <use xlink:href="#DejaVuSans-64" x="135.986328"/>
      <use xlink:href="#DejaVuSans-65" x="199.462891"/>
      <use xlink:href="#DejaVuSans-20" x="260.986328"/>
      <use xlink:href="#DejaVuSans-73" x="292.773438"/>
      <use xlink:href="#DejaVuSans-70" x="344.873047"/>
      <use xlink:href="#DejaVuSans-6c" x="408.349609"/>
      <use xlink:href="#DejaVuSans-69" x="436.132812"/>
      <use xlink:href="#DejaVuSans-74" x="463.916016"/>
      <use xlink:href="#DejaVuSans-20" x="503.125"/>
      <use xlink:href="#DejaVuSans-2b" x="534.912109"/>
      <use xlink:href="#DejaVuSans-20" x="618.701172"/>
      <use xlink:href="#DejaVuSans-73" x="650.488281"/>
      <use xlink:href="#DejaVuSans-75" x="702.587891"/>
      <use xlink:href="#DejaVuSans-72" x="765.966797"/>
      <use xlink:href="#DejaVuSans-70" x="807.080078"/>
      <use xlink:href="#DejaVuSans-72" x="870.556641"/>
      <use xlink:href="#DejaVuSans-69" x="911.669922"/>
      <use xlink:href="#DejaVuSans-73" x="939.453125"/>
      <use xlink:href="#DejaVuSans-61" x="991.552734"/>
      <use xlink:href="#DejaVuSans-6c" x="1052.832031"/>
     </g>
    </g>
    <g id="line2d_35">
     <path d="M 524.56 98.690937 
L 534.56 98.690937 
L 544.56 98.690937 
" style="fill: none; stroke: #9467bd; stroke-width: 1.5; stroke-linecap: square"/>
    </g>
    <g id="text_24">
     <!-- Node random split -->
     <g transform="translate(552.56 102.190937)scale(0.1 -0.1)">
      <use xlink:href="#DejaVuSans-4e"/>
      <use xlink:href="#DejaVuSans-6f" x="74.804688"/>
      <use xlink:href="#DejaVuSans-64" x="135.986328"/>
      <use xlink:href="#DejaVuSans-65" x="199.462891"/>
      <use xlink:href="#DejaVuSans-20" x="260.986328"/>
      <use xlink:href="#DejaVuSans-72" x="292.773438"/>
      <use xlink:href="#DejaVuSans-61" x="333.886719"/>
      <use xlink:href="#DejaVuSans-6e" x="395.166016"/>
      <use xlink:href="#DejaVuSans-64" x="458.544922"/>
      <use xlink:href="#DejaVuSans-6f" x="522.021484"/>
      <use xlink:href="#DejaVuSans-6d" x="583.203125"/>
      <use xlink:href="#DejaVuSans-20" x="680.615234"/>
      <use xlink:href="#DejaVuSans-73" x="712.402344"/>
      <use xlink:href="#DejaVuSans-70" x="764.501953"/>
      <use xlink:href="#DejaVuSans-6c" x="827.978516"/>
      <use xlink:href="#DejaVuSans-69" x="855.761719"/>
      <use xlink:href="#DejaVuSans-74" x="883.544922"/>
     </g>
    </g>
    <g id="line2d_36">
     <path d="M 524.56 113.369062 
L 534.56 113.369062 
L 544.56 113.369062 
" style="fill: none; stroke: #8c564b; stroke-width: 1.5; stroke-linecap: square"/>
    </g>
    <g id="text_25">
     <!-- Node random split + surprisal -->
     <g transform="translate(552.56 116.869062)scale(0.1 -0.1)">
      <use xlink:href="#DejaVuSans-4e"/>
      <use xlink:href="#DejaVuSans-6f" x="74.804688"/>
      <use xlink:href="#DejaVuSans-64" x="135.986328"/>
      <use xlink:href="#DejaVuSans-65" x="199.462891"/>
      <use xlink:href="#DejaVuSans-20" x="260.986328"/>
      <use xlink:href="#DejaVuSans-72" x="292.773438"/>
      <use xlink:href="#DejaVuSans-61" x="333.886719"/>
      <use xlink:href="#DejaVuSans-6e" x="395.166016"/>
      <use xlink:href="#DejaVuSans-64" x="458.544922"/>
      <use xlink:href="#DejaVuSans-6f" x="522.021484"/>
      <use xlink:href="#DejaVuSans-6d" x="583.203125"/>
      <use xlink:href="#DejaVuSans-20" x="680.615234"/>
      <use xlink:href="#DejaVuSans-73" x="712.402344"/>
      <use xlink:href="#DejaVuSans-70" x="764.501953"/>
      <use xlink:href="#DejaVuSans-6c" x="827.978516"/>
      <use xlink:href="#DejaVuSans-69" x="855.761719"/>
      <use xlink:href="#DejaVuSans-74" x="883.544922"/>
      <use xlink:href="#DejaVuSans-20" x="922.753906"/>
      <use xlink:href="#DejaVuSans-2b" x="954.541016"/>
      <use xlink:href="#DejaVuSans-20" x="1038.330078"/>
      <use xlink:href="#DejaVuSans-73" x="1070.117188"/>
      <use xlink:href="#DejaVuSans-75" x="1122.216797"/>
      <use xlink:href="#DejaVuSans-72" x="1185.595703"/>
      <use xlink:href="#DejaVuSans-70" x="1226.708984"/>
      <use xlink:href="#DejaVuSans-72" x="1290.185547"/>
      <use xlink:href="#DejaVuSans-69" x="1331.298828"/>
      <use xlink:href="#DejaVuSans-73" x="1359.082031"/>
      <use xlink:href="#DejaVuSans-61" x="1411.181641"/>
      <use xlink:href="#DejaVuSans-6c" x="1472.460938"/>
     </g>
    </g>
    <g id="line2d_37">
     <path d="M 524.56 128.047187 
L 534.56 128.047187 
L 544.56 128.047187 
" style="fill: none; stroke: #e377c2; stroke-width: 1.5; stroke-linecap: square"/>
    </g>
    <g id="text_26">
     <!-- Interaction -->
     <g transform="translate(552.56 131.547187)scale(0.1 -0.1)">
      <use xlink:href="#DejaVuSans-49"/>
      <use xlink:href="#DejaVuSans-6e" x="29.492188"/>
      <use xlink:href="#DejaVuSans-74" x="92.871094"/>
      <use xlink:href="#DejaVuSans-65" x="132.080078"/>
      <use xlink:href="#DejaVuSans-72" x="193.603516"/>
      <use xlink:href="#DejaVuSans-61" x="234.716797"/>
      <use xlink:href="#DejaVuSans-63" x="295.996094"/>
      <use xlink:href="#DejaVuSans-74" x="350.976562"/>
      <use xlink:href="#DejaVuSans-69" x="390.185547"/>
      <use xlink:href="#DejaVuSans-6f" x="417.96875"/>
      <use xlink:href="#DejaVuSans-6e" x="479.150391"/>
     </g>
    </g>
    <g id="line2d_38">
     <path d="M 524.56 142.725312 
L 534.56 142.725312 
L 544.56 142.725312 
" style="fill: none; stroke: #7f7f7f; stroke-width: 1.5; stroke-linecap: square"/>
    </g>
    <g id="text_27">
     <!-- Node + surprisal + interaction -->
     <g transform="translate(552.56 146.225312)scale(0.1 -0.1)">
      <use xlink:href="#DejaVuSans-4e"/>
      <use xlink:href="#DejaVuSans-6f" x="74.804688"/>
      <use xlink:href="#DejaVuSans-64" x="135.986328"/>
      <use xlink:href="#DejaVuSans-65" x="199.462891"/>
      <use xlink:href="#DejaVuSans-20" x="260.986328"/>
      <use xlink:href="#DejaVuSans-2b" x="292.773438"/>
      <use xlink:href="#DejaVuSans-20" x="376.5625"/>
      <use xlink:href="#DejaVuSans-73" x="408.349609"/>
      <use xlink:href="#DejaVuSans-75" x="460.449219"/>
      <use xlink:href="#DejaVuSans-72" x="523.828125"/>
      <use xlink:href="#DejaVuSans-70" x="564.941406"/>
      <use xlink:href="#DejaVuSans-72" x="628.417969"/>
      <use xlink:href="#DejaVuSans-69" x="669.53125"/>
      <use xlink:href="#DejaVuSans-73" x="697.314453"/>
      <use xlink:href="#DejaVuSans-61" x="749.414062"/>
      <use xlink:href="#DejaVuSans-6c" x="810.693359"/>
      <use xlink:href="#DejaVuSans-20" x="838.476562"/>
      <use xlink:href="#DejaVuSans-2b" x="870.263672"/>
      <use xlink:href="#DejaVuSans-20" x="954.052734"/>
      <use xlink:href="#DejaVuSans-69" x="985.839844"/>
      <use xlink:href="#DejaVuSans-6e" x="1013.623047"/>
      <use xlink:href="#DejaVuSans-74" x="1077.001953"/>
      <use xlink:href="#DejaVuSans-65" x="1116.210938"/>
      <use xlink:href="#DejaVuSans-72" x="1177.734375"/>
      <use xlink:href="#DejaVuSans-61" x="1218.847656"/>
      <use xlink:href="#DejaVuSans-63" x="1280.126953"/>
      <use xlink:href="#DejaVuSans-74" x="1335.107422"/>
      <use xlink:href="#DejaVuSans-69" x="1374.316406"/>
      <use xlink:href="#DejaVuSans-6f" x="1402.099609"/>
      <use xlink:href="#DejaVuSans-6e" x="1463.28125"/>
     </g>
    </g>
   </g>
  </g>
 </g>
 <defs>
  <clipPath id="p7a27fb013c">
   <rect x="47.72" y="26.88" width="217.495" height="147.16"/>
  </clipPath>
  <clipPath id="pb60751ae4b">
   <rect x="298.065" y="26.88" width="217.495" height="147.16"/>
  </clipPath>
 </defs>
</svg>
