<?xml version="1.0" encoding="utf-8" standalone="no"?>
<!DOCTYPE svg PUBLIC "-//W3C//DTD SVG 1.1//EN"
  "http://www.w3.org/Graphics/SVG/1.1/DTD/svg11.dtd">
<svg xmlns:xlink="http://www.w3.org/1999/xlink" width="720pt" height="216pt" viewBox="0 0 720 216" xmlns="http://www.w3.org/2000/svg" version="1.1">
 <metadata>
  <rdf:RDF xmlns:dc="http://purl.org/dc/elements/1.1/" xmlns:cc="http://creativecommons.org/ns#" xmlns:rdf="http://www.w3.org/1999/02/22-rdf-syntax-ns#">
   <cc:Work>
    <dc:type rdf:resource="http://purl.org/dc/dcmitype/StillImage"/>
    <dc:date>2024-01-16T04:07:31.242083</dc:date>
    <dc:format>image/svg+xml</dc:format>
    <dc:creator>
     <cc:Agent>
      <dc:title>Matplotlib v3.5.1, https://matplotlib.org/</dc:title>
     </cc:Agent>
    </dc:creator>
   </cc:Work>
  </rdf:RDF>
 </metadata>
 <defs>
  <style type="text/css">*{stroke-linejoin: round; stroke-linecap: butt}</style>
 </defs>
 <g id="figure_1">
  <g id="patch_1">
   <path d="M 0 216 
L 720 216 
L 720 0 
L 0 0 
z
" style="fill: #ffffff"/>
  </g>
  <g id="axes_1">
   <g id="patch_2">
    <path d="M 47.72 174.04 
L 265.215 174.04 
L 265.215 26.88 
L 47.72 26.88 
z
" style="fill: #ffffff"/>
   </g>
   <g id="PolyCollection_1">
    <path d="M 47.72 33.569091 
L 47.72 34.284799 
L 59.167105 36.432783 
L 70.614211 42.668258 
L 82.061316 50.738574 
L 93.508421 60.237058 
L 104.955526 70.940004 
L 116.402632 80.154832 
L 127.849737 90.44983 
L 139.296842 100.627366 
L 150.743947 108.824336 
L 162.191053 118.021954 
L 173.638158 124.874024 
L 185.085263 131.664023 
L 196.532368 136.651493 
L 207.979474 141.168546 
L 219.426579 145.470364 
L 230.873684 149.33207 
L 242.320789 152.985263 
L 253.767895 154.979869 
L 265.215 157.513963 
L 265.215 149.762164 
L 265.215 149.762164 
L 253.767895 146.733783 
L 242.320789 142.913852 
L 230.873684 138.418185 
L 219.426579 133.694913 
L 207.979474 127.806478 
L 196.532368 121.688494 
L 185.085263 116.14486 
L 173.638158 109.305992 
L 162.191053 101.630089 
L 150.743947 94.2494 
L 139.296842 86.684223 
L 127.849737 78.342277 
L 116.402632 69.263724 
L 104.955526 60.328656 
L 93.508421 52.048846 
L 82.061316 44.980532 
L 70.614211 39.023538 
L 59.167105 35.26625 
L 47.72 33.569091 
z
" clip-path="url(#p4c79ced82f)" style="fill: #1f77b4; fill-opacity: 0.4"/>
   </g>
   <g id="PolyCollection_2">
    <path d="M 47.72 33.583765 
L 47.72 34.30286 
L 59.167105 35.729642 
L 70.614211 39.164375 
L 82.061316 44.129656 
L 93.508421 50.746273 
L 104.955526 58.987644 
L 116.402632 66.970119 
L 127.849737 75.951702 
L 139.296842 84.923957 
L 150.743947 92.45849 
L 162.191053 100.746494 
L 173.638158 107.66481 
L 185.085263 114.205482 
L 196.532368 120.054889 
L 207.979474 125.05892 
L 219.426579 130.383549 
L 230.873684 135.115793 
L 242.320789 139.834305 
L 253.767895 143.209644 
L 265.215 147.223455 
L 265.215 142.015472 
L 265.215 142.015472 
L 253.767895 138.650733 
L 242.320789 134.305864 
L 230.873684 129.306938 
L 219.426579 123.734599 
L 207.979474 117.247797 
L 196.532368 110.347969 
L 185.085263 104.081087 
L 173.638158 96.622912 
L 162.191053 88.653548 
L 150.743947 80.836286 
L 139.296842 73.095559 
L 127.849737 65.549543 
L 116.402632 57.67983 
L 104.955526 50.810786 
L 93.508421 45.417695 
L 82.061316 40.55324 
L 70.614211 36.922189 
L 59.167105 34.751439 
L 47.72 33.583765 
z
" clip-path="url(#p4c79ced82f)" style="fill: #ff7f0e; fill-opacity: 0.4"/>
   </g>
   <g id="PolyCollection_3">
    <path d="M 47.72 33.586012 
L 47.72 34.295035 
L 59.167105 35.888956 
L 70.614211 39.193767 
L 82.061316 43.651228 
L 93.508421 47.805626 
L 104.955526 53.104064 
L 116.402632 57.578311 
L 127.849737 62.691346 
L 139.296842 67.981668 
L 150.743947 71.729603 
L 162.191053 76.762936 
L 173.638158 81.026668 
L 185.085263 85.113677 
L 196.532368 89.896506 
L 207.979474 94.176671 
L 219.426579 99.227346 
L 230.873684 103.297219 
L 242.320789 107.840648 
L 253.767895 111.537048 
L 265.215 116.256194 
L 265.215 107.1405 
L 265.215 107.1405 
L 253.767895 103.47217 
L 242.320789 99.432422 
L 230.873684 96.011708 
L 219.426579 91.772078 
L 207.979474 87.676302 
L 196.532368 82.692516 
L 185.085263 78.343947 
L 173.638158 73.549271 
L 162.191053 68.498013 
L 150.743947 64.094411 
L 139.296842 59.174131 
L 127.849737 54.403945 
L 116.402632 49.40283 
L 104.955526 45.41303 
L 93.508421 41.733607 
L 82.061316 39.097507 
L 70.614211 36.677412 
L 59.167105 34.96696 
L 47.72 33.586012 
z
" clip-path="url(#p4c79ced82f)" style="fill: #2ca02c; fill-opacity: 0.4"/>
   </g>
   <g id="PolyCollection_4">
    <path d="M 47.72 33.60024 
L 47.72 34.313536 
L 59.167105 35.619268 
L 70.614211 38.069276 
L 82.061316 41.481506 
L 93.508421 45.22572 
L 104.955526 50.288034 
L 116.402632 54.81635 
L 127.849737 60.063275 
L 139.296842 65.671701 
L 150.743947 69.649875 
L 162.191053 75.188414 
L 173.638158 79.875237 
L 185.085263 84.146782 
L 196.532368 89.508626 
L 207.979474 93.917822 
L 219.426579 99.032876 
L 230.873684 102.883741 
L 242.320789 107.305333 
L 253.767895 110.814005 
L 265.215 115.345371 
L 265.215 105.891029 
L 265.215 105.891029 
L 253.767895 102.319956 
L 242.320789 98.239637 
L 230.873684 94.711197 
L 219.426579 90.447644 
L 207.979474 86.579844 
L 196.532368 81.458564 
L 185.085263 77.178752 
L 173.638158 72.354197 
L 162.191053 67.320217 
L 150.743947 62.876983 
L 139.296842 57.734613 
L 127.849737 52.840717 
L 116.402632 47.936986 
L 104.955526 43.911503 
L 93.508421 40.725414 
L 82.061316 38.265495 
L 70.614211 36.123051 
L 59.167105 34.713479 
L 47.72 33.60024 
z
" clip-path="url(#p4c79ced82f)" style="fill: #d62728; fill-opacity: 0.4"/>
   </g>
   <g id="PolyCollection_5">
    <path d="M 47.72 33.579434 
L 47.72 34.292607 
L 59.167105 36.473308 
L 70.614211 42.733133 
L 82.061316 51.02533 
L 93.508421 60.375555 
L 104.955526 70.935849 
L 116.402632 80.167321 
L 127.849737 90.269576 
L 139.296842 100.634352 
L 150.743947 108.703497 
L 162.191053 118.40502 
L 173.638158 124.640985 
L 185.085263 131.63441 
L 196.532368 136.624655 
L 207.979474 141.570022 
L 219.426579 146.151391 
L 230.873684 150.033307 
L 242.320789 153.166577 
L 253.767895 156.84574 
L 265.215 158.066693 
L 265.215 150.810265 
L 265.215 150.810265 
L 253.767895 148.4306 
L 242.320789 143.496196 
L 230.873684 138.573019 
L 219.426579 134.297032 
L 207.979474 127.202932 
L 196.532368 122.220015 
L 185.085263 116.069285 
L 173.638158 109.626016 
L 162.191053 102.04794 
L 150.743947 94.663391 
L 139.296842 86.923279 
L 127.849737 78.519651 
L 116.402632 69.328214 
L 104.955526 60.380117 
L 93.508421 52.132009 
L 82.061316 44.950761 
L 70.614211 39.055694 
L 59.167105 35.271179 
L 47.72 33.579434 
z
" clip-path="url(#p4c79ced82f)" style="fill: #9467bd; fill-opacity: 0.4"/>
   </g>
   <g id="PolyCollection_6">
    <path d="M 47.72 33.59494 
L 47.72 34.310901 
L 59.167105 35.758897 
L 70.614211 39.197785 
L 82.061316 44.235759 
L 93.508421 50.819235 
L 104.955526 59.012093 
L 116.402632 66.981843 
L 127.849737 75.922388 
L 139.296842 84.923929 
L 150.743947 92.303598 
L 162.191053 101.132373 
L 173.638158 107.583514 
L 185.085263 114.091771 
L 196.532368 120.188179 
L 207.979474 125.627361 
L 219.426579 130.689984 
L 230.873684 135.883478 
L 242.320789 140.017451 
L 253.767895 144.735944 
L 265.215 148.596396 
L 265.215 141.944098 
L 265.215 141.944098 
L 253.767895 140.045328 
L 242.320789 134.772866 
L 230.873684 129.485497 
L 219.426579 124.229133 
L 207.979474 116.316769 
L 196.532368 110.672599 
L 185.085263 103.973383 
L 173.638158 96.753253 
L 162.191053 88.979036 
L 150.743947 80.97542 
L 139.296842 73.32104 
L 127.849737 65.692283 
L 116.402632 57.708351 
L 104.955526 50.84189 
L 93.508421 45.44566 
L 82.061316 40.55731 
L 70.614211 36.913855 
L 59.167105 34.764034 
L 47.72 33.59494 
z
" clip-path="url(#p4c79ced82f)" style="fill: #8c564b; fill-opacity: 0.4"/>
   </g>
   <g id="PolyCollection_7">
    <path d="M 47.72 42.722616 
L 47.72 47.326427 
L 59.167105 50.336819 
L 70.614211 58.253 
L 82.061316 68.596336 
L 93.508421 80.040927 
L 104.955526 91.39122 
L 116.402632 100.551316 
L 127.849737 110.400375 
L 139.296842 119.390175 
L 150.743947 126.48869 
L 162.191053 134.67605 
L 173.638158 140.717289 
L 185.085263 146.55948 
L 196.532368 151.12319 
L 207.979474 155.316674 
L 219.426579 158.170697 
L 230.873684 161.222568 
L 242.320789 163.877949 
L 253.767895 165.513453 
L 265.215 167.350909 
L 265.215 157.328109 
L 265.215 157.328109 
L 253.767895 155.150814 
L 242.320789 151.830538 
L 230.873684 147.998078 
L 219.426579 144.228085 
L 207.979474 139.181455 
L 196.532368 133.842903 
L 185.085263 128.750628 
L 173.638158 122.33459 
L 162.191053 115.314909 
L 150.743947 107.966193 
L 139.296842 100.490192 
L 127.849737 91.191439 
L 116.402632 81.591863 
L 104.955526 71.341459 
L 93.508421 61.944389 
L 82.061316 54.60114 
L 70.614211 48.532938 
L 59.167105 44.664841 
L 47.72 42.722616 
z
" clip-path="url(#p4c79ced82f)" style="fill: #e377c2; fill-opacity: 0.4"/>
   </g>
   <g id="PolyCollection_8">
    <path d="M 47.72 33.593632 
L 47.72 34.325158 
L 59.167105 34.914433 
L 70.614211 35.582428 
L 82.061316 38.571216 
L 93.508421 43.107944 
L 104.955526 50.235738 
L 116.402632 57.562733 
L 127.849737 66.058702 
L 139.296842 74.349879 
L 150.743947 81.163239 
L 162.191053 88.937708 
L 173.638158 96.394275 
L 185.085263 102.893139 
L 196.532368 110.058018 
L 207.979474 116.217437 
L 219.426579 122.202322 
L 230.873684 128.300313 
L 242.320789 133.508501 
L 253.767895 137.863632 
L 265.215 142.245812 
L 265.215 133.654233 
L 265.215 133.654233 
L 253.767895 129.443726 
L 242.320789 124.343058 
L 230.873684 118.244367 
L 219.426579 112.367508 
L 207.979474 105.597746 
L 196.532368 97.880847 
L 185.085263 91.515366 
L 173.638158 83.224552 
L 162.191053 75.183893 
L 150.743947 66.561114 
L 139.296842 58.174569 
L 127.849737 51.238615 
L 116.402632 44.412146 
L 104.955526 39.822823 
L 93.508421 37.005588 
L 82.061316 35.589077 
L 70.614211 34.558438 
L 59.167105 34.199384 
L 47.72 33.593632 
z
" clip-path="url(#p4c79ced82f)" style="fill: #7f7f7f; fill-opacity: 0.4"/>
   </g>
   <g id="matplotlib.axis_1">
    <g id="xtick_1">
     <g id="line2d_1">
      <defs>
       <path id="m5b067bfe03" d="M 0 0 
L 0 3.5 
" style="stroke: #000000; stroke-width: 0.8"/>
      </defs>
      <g>
       <use xlink:href="#m5b067bfe03" x="47.72" y="174.04" style="stroke: #000000; stroke-width: 0.8"/>
      </g>
     </g>
     <g id="text_1">
      <!-- 0.0 -->
      <g transform="translate(39.768438 188.638438)scale(0.1 -0.1)">
       <defs>
        <path id="DejaVuSans-30" d="M 2034 4250 
Q 1547 4250 1301 3770 
Q 1056 3291 1056 2328 
Q 1056 1369 1301 889 
Q 1547 409 2034 409 
Q 2525 409 2770 889 
Q 3016 1369 3016 2328 
Q 3016 3291 2770 3770 
Q 2525 4250 2034 4250 
z
M 2034 4750 
Q 2819 4750 3233 4129 
Q 3647 3509 3647 2328 
Q 3647 1150 3233 529 
Q 2819 -91 2034 -91 
Q 1250 -91 836 529 
Q 422 1150 422 2328 
Q 422 3509 836 4129 
Q 1250 4750 2034 4750 
z
" transform="scale(0.015625)"/>
        <path id="DejaVuSans-2e" d="M 684 794 
L 1344 794 
L 1344 0 
L 684 0 
L 684 794 
z
" transform="scale(0.015625)"/>
       </defs>
       <use xlink:href="#DejaVuSans-30"/>
       <use xlink:href="#DejaVuSans-2e" x="63.623047"/>
       <use xlink:href="#DejaVuSans-30" x="95.410156"/>
      </g>
     </g>
    </g>
    <g id="xtick_2">
     <g id="line2d_2">
      <g>
       <use xlink:href="#m5b067bfe03" x="102.09375" y="174.04" style="stroke: #000000; stroke-width: 0.8"/>
      </g>
     </g>
     <g id="text_2">
      <!-- 0.5 -->
      <g transform="translate(94.142188 188.638438)scale(0.1 -0.1)">
       <defs>
        <path id="DejaVuSans-35" d="M 691 4666 
L 3169 4666 
L 3169 4134 
L 1269 4134 
L 1269 2991 
Q 1406 3038 1543 3061 
Q 1681 3084 1819 3084 
Q 2600 3084 3056 2656 
Q 3513 2228 3513 1497 
Q 3513 744 3044 326 
Q 2575 -91 1722 -91 
Q 1428 -91 1123 -41 
Q 819 9 494 109 
L 494 744 
Q 775 591 1075 516 
Q 1375 441 1709 441 
Q 2250 441 2565 725 
Q 2881 1009 2881 1497 
Q 2881 1984 2565 2268 
Q 2250 2553 1709 2553 
Q 1456 2553 1204 2497 
Q 953 2441 691 2322 
L 691 4666 
z
" transform="scale(0.015625)"/>
       </defs>
       <use xlink:href="#DejaVuSans-30"/>
       <use xlink:href="#DejaVuSans-2e" x="63.623047"/>
       <use xlink:href="#DejaVuSans-35" x="95.410156"/>
      </g>
     </g>
    </g>
    <g id="xtick_3">
     <g id="line2d_3">
      <g>
       <use xlink:href="#m5b067bfe03" x="156.4675" y="174.04" style="stroke: #000000; stroke-width: 0.8"/>
      </g>
     </g>
     <g id="text_3">
      <!-- 1.0 -->
      <g transform="translate(148.515938 188.638438)scale(0.1 -0.1)">
       <defs>
        <path id="DejaVuSans-31" d="M 794 531 
L 1825 531 
L 1825 4091 
L 703 3866 
L 703 4441 
L 1819 4666 
L 2450 4666 
L 2450 531 
L 3481 531 
L 3481 0 
L 794 0 
L 794 531 
z
" transform="scale(0.015625)"/>
       </defs>
       <use xlink:href="#DejaVuSans-31"/>
       <use xlink:href="#DejaVuSans-2e" x="63.623047"/>
       <use xlink:href="#DejaVuSans-30" x="95.410156"/>
      </g>
     </g>
    </g>
    <g id="xtick_4">
     <g id="line2d_4">
      <g>
       <use xlink:href="#m5b067bfe03" x="210.84125" y="174.04" style="stroke: #000000; stroke-width: 0.8"/>
      </g>
     </g>
     <g id="text_4">
      <!-- 1.5 -->
      <g transform="translate(202.889687 188.638438)scale(0.1 -0.1)">
       <use xlink:href="#DejaVuSans-31"/>
       <use xlink:href="#DejaVuSans-2e" x="63.623047"/>
       <use xlink:href="#DejaVuSans-35" x="95.410156"/>
      </g>
     </g>
    </g>
    <g id="xtick_5">
     <g id="line2d_5">
      <g>
       <use xlink:href="#m5b067bfe03" x="265.215" y="174.04" style="stroke: #000000; stroke-width: 0.8"/>
      </g>
     </g>
     <g id="text_5">
      <!-- 2.0 -->
      <g transform="translate(257.263437 188.638438)scale(0.1 -0.1)">
       <defs>
        <path id="DejaVuSans-32" d="M 1228 531 
L 3431 531 
L 3431 0 
L 469 0 
L 469 531 
Q 828 903 1448 1529 
Q 2069 2156 2228 2338 
Q 2531 2678 2651 2914 
Q 2772 3150 2772 3378 
Q 2772 3750 2511 3984 
Q 2250 4219 1831 4219 
Q 1534 4219 1204 4116 
Q 875 4013 500 3803 
L 500 4441 
Q 881 4594 1212 4672 
Q 1544 4750 1819 4750 
Q 2544 4750 2975 4387 
Q 3406 4025 3406 3419 
Q 3406 3131 3298 2873 
Q 3191 2616 2906 2266 
Q 2828 2175 2409 1742 
Q 1991 1309 1228 531 
z
" transform="scale(0.015625)"/>
       </defs>
       <use xlink:href="#DejaVuSans-32"/>
       <use xlink:href="#DejaVuSans-2e" x="63.623047"/>
       <use xlink:href="#DejaVuSans-30" x="95.410156"/>
      </g>
     </g>
    </g>
    <g id="text_6">
     <!-- Influence of surprisal (multiplication) -->
     <g transform="translate(64.320625 202.316563)scale(0.1 -0.1)">
      <defs>
       <path id="DejaVuSans-49" d="M 628 4666 
L 1259 4666 
L 1259 0 
L 628 0 
L 628 4666 
z
" transform="scale(0.015625)"/>
       <path id="DejaVuSans-6e" d="M 3513 2113 
L 3513 0 
L 2938 0 
L 2938 2094 
Q 2938 2591 2744 2837 
Q 2550 3084 2163 3084 
Q 1697 3084 1428 2787 
Q 1159 2491 1159 1978 
L 1159 0 
L 581 0 
L 581 3500 
L 1159 3500 
L 1159 2956 
Q 1366 3272 1645 3428 
Q 1925 3584 2291 3584 
Q 2894 3584 3203 3211 
Q 3513 2838 3513 2113 
z
" transform="scale(0.015625)"/>
       <path id="DejaVuSans-66" d="M 2375 4863 
L 2375 4384 
L 1825 4384 
Q 1516 4384 1395 4259 
Q 1275 4134 1275 3809 
L 1275 3500 
L 2222 3500 
L 2222 3053 
L 1275 3053 
L 1275 0 
L 697 0 
L 697 3053 
L 147 3053 
L 147 3500 
L 697 3500 
L 697 3744 
Q 697 4328 969 4595 
Q 1241 4863 1831 4863 
L 2375 4863 
z
" transform="scale(0.015625)"/>
       <path id="DejaVuSans-6c" d="M 603 4863 
L 1178 4863 
L 1178 0 
L 603 0 
L 603 4863 
z
" transform="scale(0.015625)"/>
       <path id="DejaVuSans-75" d="M 544 1381 
L 544 3500 
L 1119 3500 
L 1119 1403 
Q 1119 906 1312 657 
Q 1506 409 1894 409 
Q 2359 409 2629 706 
Q 2900 1003 2900 1516 
L 2900 3500 
L 3475 3500 
L 3475 0 
L 2900 0 
L 2900 538 
Q 2691 219 2414 64 
Q 2138 -91 1772 -91 
Q 1169 -91 856 284 
Q 544 659 544 1381 
z
M 1991 3584 
L 1991 3584 
z
" transform="scale(0.015625)"/>
       <path id="DejaVuSans-65" d="M 3597 1894 
L 3597 1613 
L 953 1613 
Q 991 1019 1311 708 
Q 1631 397 2203 397 
Q 2534 397 2845 478 
Q 3156 559 3463 722 
L 3463 178 
Q 3153 47 2828 -22 
Q 2503 -91 2169 -91 
Q 1331 -91 842 396 
Q 353 884 353 1716 
Q 353 2575 817 3079 
Q 1281 3584 2069 3584 
Q 2775 3584 3186 3129 
Q 3597 2675 3597 1894 
z
M 3022 2063 
Q 3016 2534 2758 2815 
Q 2500 3097 2075 3097 
Q 1594 3097 1305 2825 
Q 1016 2553 972 2059 
L 3022 2063 
z
" transform="scale(0.015625)"/>
       <path id="DejaVuSans-63" d="M 3122 3366 
L 3122 2828 
Q 2878 2963 2633 3030 
Q 2388 3097 2138 3097 
Q 1578 3097 1268 2742 
Q 959 2388 959 1747 
Q 959 1106 1268 751 
Q 1578 397 2138 397 
Q 2388 397 2633 464 
Q 2878 531 3122 666 
L 3122 134 
Q 2881 22 2623 -34 
Q 2366 -91 2075 -91 
Q 1284 -91 818 406 
Q 353 903 353 1747 
Q 353 2603 823 3093 
Q 1294 3584 2113 3584 
Q 2378 3584 2631 3529 
Q 2884 3475 3122 3366 
z
" transform="scale(0.015625)"/>
       <path id="DejaVuSans-20" transform="scale(0.015625)"/>
       <path id="DejaVuSans-6f" d="M 1959 3097 
Q 1497 3097 1228 2736 
Q 959 2375 959 1747 
Q 959 1119 1226 758 
Q 1494 397 1959 397 
Q 2419 397 2687 759 
Q 2956 1122 2956 1747 
Q 2956 2369 2687 2733 
Q 2419 3097 1959 3097 
z
M 1959 3584 
Q 2709 3584 3137 3096 
Q 3566 2609 3566 1747 
Q 3566 888 3137 398 
Q 2709 -91 1959 -91 
Q 1206 -91 779 398 
Q 353 888 353 1747 
Q 353 2609 779 3096 
Q 1206 3584 1959 3584 
z
" transform="scale(0.015625)"/>
       <path id="DejaVuSans-73" d="M 2834 3397 
L 2834 2853 
Q 2591 2978 2328 3040 
Q 2066 3103 1784 3103 
Q 1356 3103 1142 2972 
Q 928 2841 928 2578 
Q 928 2378 1081 2264 
Q 1234 2150 1697 2047 
L 1894 2003 
Q 2506 1872 2764 1633 
Q 3022 1394 3022 966 
Q 3022 478 2636 193 
Q 2250 -91 1575 -91 
Q 1294 -91 989 -36 
Q 684 19 347 128 
L 347 722 
Q 666 556 975 473 
Q 1284 391 1588 391 
Q 1994 391 2212 530 
Q 2431 669 2431 922 
Q 2431 1156 2273 1281 
Q 2116 1406 1581 1522 
L 1381 1569 
Q 847 1681 609 1914 
Q 372 2147 372 2553 
Q 372 3047 722 3315 
Q 1072 3584 1716 3584 
Q 2034 3584 2315 3537 
Q 2597 3491 2834 3397 
z
" transform="scale(0.015625)"/>
       <path id="DejaVuSans-72" d="M 2631 2963 
Q 2534 3019 2420 3045 
Q 2306 3072 2169 3072 
Q 1681 3072 1420 2755 
Q 1159 2438 1159 1844 
L 1159 0 
L 581 0 
L 581 3500 
L 1159 3500 
L 1159 2956 
Q 1341 3275 1631 3429 
Q 1922 3584 2338 3584 
Q 2397 3584 2469 3576 
Q 2541 3569 2628 3553 
L 2631 2963 
z
" transform="scale(0.015625)"/>
       <path id="DejaVuSans-70" d="M 1159 525 
L 1159 -1331 
L 581 -1331 
L 581 3500 
L 1159 3500 
L 1159 2969 
Q 1341 3281 1617 3432 
Q 1894 3584 2278 3584 
Q 2916 3584 3314 3078 
Q 3713 2572 3713 1747 
Q 3713 922 3314 415 
Q 2916 -91 2278 -91 
Q 1894 -91 1617 61 
Q 1341 213 1159 525 
z
M 3116 1747 
Q 3116 2381 2855 2742 
Q 2594 3103 2138 3103 
Q 1681 3103 1420 2742 
Q 1159 2381 1159 1747 
Q 1159 1113 1420 752 
Q 1681 391 2138 391 
Q 2594 391 2855 752 
Q 3116 1113 3116 1747 
z
" transform="scale(0.015625)"/>
       <path id="DejaVuSans-69" d="M 603 3500 
L 1178 3500 
L 1178 0 
L 603 0 
L 603 3500 
z
M 603 4863 
L 1178 4863 
L 1178 4134 
L 603 4134 
L 603 4863 
z
" transform="scale(0.015625)"/>
       <path id="DejaVuSans-61" d="M 2194 1759 
Q 1497 1759 1228 1600 
Q 959 1441 959 1056 
Q 959 750 1161 570 
Q 1363 391 1709 391 
Q 2188 391 2477 730 
Q 2766 1069 2766 1631 
L 2766 1759 
L 2194 1759 
z
M 3341 1997 
L 3341 0 
L 2766 0 
L 2766 531 
Q 2569 213 2275 61 
Q 1981 -91 1556 -91 
Q 1019 -91 701 211 
Q 384 513 384 1019 
Q 384 1609 779 1909 
Q 1175 2209 1959 2209 
L 2766 2209 
L 2766 2266 
Q 2766 2663 2505 2880 
Q 2244 3097 1772 3097 
Q 1472 3097 1187 3025 
Q 903 2953 641 2809 
L 641 3341 
Q 956 3463 1253 3523 
Q 1550 3584 1831 3584 
Q 2591 3584 2966 3190 
Q 3341 2797 3341 1997 
z
" transform="scale(0.015625)"/>
       <path id="DejaVuSans-28" d="M 1984 4856 
Q 1566 4138 1362 3434 
Q 1159 2731 1159 2009 
Q 1159 1288 1364 580 
Q 1569 -128 1984 -844 
L 1484 -844 
Q 1016 -109 783 600 
Q 550 1309 550 2009 
Q 550 2706 781 3412 
Q 1013 4119 1484 4856 
L 1984 4856 
z
" transform="scale(0.015625)"/>
       <path id="DejaVuSans-6d" d="M 3328 2828 
Q 3544 3216 3844 3400 
Q 4144 3584 4550 3584 
Q 5097 3584 5394 3201 
Q 5691 2819 5691 2113 
L 5691 0 
L 5113 0 
L 5113 2094 
Q 5113 2597 4934 2840 
Q 4756 3084 4391 3084 
Q 3944 3084 3684 2787 
Q 3425 2491 3425 1978 
L 3425 0 
L 2847 0 
L 2847 2094 
Q 2847 2600 2669 2842 
Q 2491 3084 2119 3084 
Q 1678 3084 1418 2786 
Q 1159 2488 1159 1978 
L 1159 0 
L 581 0 
L 581 3500 
L 1159 3500 
L 1159 2956 
Q 1356 3278 1631 3431 
Q 1906 3584 2284 3584 
Q 2666 3584 2933 3390 
Q 3200 3197 3328 2828 
z
" transform="scale(0.015625)"/>
       <path id="DejaVuSans-74" d="M 1172 4494 
L 1172 3500 
L 2356 3500 
L 2356 3053 
L 1172 3053 
L 1172 1153 
Q 1172 725 1289 603 
Q 1406 481 1766 481 
L 2356 481 
L 2356 0 
L 1766 0 
Q 1100 0 847 248 
Q 594 497 594 1153 
L 594 3053 
L 172 3053 
L 172 3500 
L 594 3500 
L 594 4494 
L 1172 4494 
z
" transform="scale(0.015625)"/>
       <path id="DejaVuSans-29" d="M 513 4856 
L 1013 4856 
Q 1481 4119 1714 3412 
Q 1947 2706 1947 2009 
Q 1947 1309 1714 600 
Q 1481 -109 1013 -844 
L 513 -844 
Q 928 -128 1133 580 
Q 1338 1288 1338 2009 
Q 1338 2731 1133 3434 
Q 928 4138 513 4856 
z
" transform="scale(0.015625)"/>
      </defs>
      <use xlink:href="#DejaVuSans-49"/>
      <use xlink:href="#DejaVuSans-6e" x="29.492188"/>
      <use xlink:href="#DejaVuSans-66" x="92.871094"/>
      <use xlink:href="#DejaVuSans-6c" x="128.076172"/>
      <use xlink:href="#DejaVuSans-75" x="155.859375"/>
      <use xlink:href="#DejaVuSans-65" x="219.238281"/>
      <use xlink:href="#DejaVuSans-6e" x="280.761719"/>
      <use xlink:href="#DejaVuSans-63" x="344.140625"/>
      <use xlink:href="#DejaVuSans-65" x="399.121094"/>
      <use xlink:href="#DejaVuSans-20" x="460.644531"/>
      <use xlink:href="#DejaVuSans-6f" x="492.431641"/>
      <use xlink:href="#DejaVuSans-66" x="553.613281"/>
      <use xlink:href="#DejaVuSans-20" x="588.818359"/>
      <use xlink:href="#DejaVuSans-73" x="620.605469"/>
      <use xlink:href="#DejaVuSans-75" x="672.705078"/>
      <use xlink:href="#DejaVuSans-72" x="736.083984"/>
      <use xlink:href="#DejaVuSans-70" x="777.197266"/>
      <use xlink:href="#DejaVuSans-72" x="840.673828"/>
      <use xlink:href="#DejaVuSans-69" x="881.787109"/>
      <use xlink:href="#DejaVuSans-73" x="909.570312"/>
      <use xlink:href="#DejaVuSans-61" x="961.669922"/>
      <use xlink:href="#DejaVuSans-6c" x="1022.949219"/>
      <use xlink:href="#DejaVuSans-20" x="1050.732422"/>
      <use xlink:href="#DejaVuSans-28" x="1082.519531"/>
      <use xlink:href="#DejaVuSans-6d" x="1121.533203"/>
      <use xlink:href="#DejaVuSans-75" x="1218.945312"/>
      <use xlink:href="#DejaVuSans-6c" x="1282.324219"/>
      <use xlink:href="#DejaVuSans-74" x="1310.107422"/>
      <use xlink:href="#DejaVuSans-69" x="1349.316406"/>
      <use xlink:href="#DejaVuSans-70" x="1377.099609"/>
      <use xlink:href="#DejaVuSans-6c" x="1440.576172"/>
      <use xlink:href="#DejaVuSans-69" x="1468.359375"/>
      <use xlink:href="#DejaVuSans-63" x="1496.142578"/>
      <use xlink:href="#DejaVuSans-61" x="1551.123047"/>
      <use xlink:href="#DejaVuSans-74" x="1612.402344"/>
      <use xlink:href="#DejaVuSans-69" x="1651.611328"/>
      <use xlink:href="#DejaVuSans-6f" x="1679.394531"/>
      <use xlink:href="#DejaVuSans-6e" x="1740.576172"/>
      <use xlink:href="#DejaVuSans-29" x="1803.955078"/>
     </g>
    </g>
   </g>
   <g id="matplotlib.axis_2">
    <g id="ytick_1">
     <g id="line2d_6">
      <defs>
       <path id="m998db410e7" d="M 0 0 
L -3.5 0 
" style="stroke: #000000; stroke-width: 0.8"/>
      </defs>
      <g>
       <use xlink:href="#m998db410e7" x="47.72" y="154.71188" style="stroke: #000000; stroke-width: 0.8"/>
      </g>
     </g>
     <g id="text_7">
      <!-- 0.2 -->
      <g transform="translate(24.816875 158.511099)scale(0.1 -0.1)">
       <use xlink:href="#DejaVuSans-30"/>
       <use xlink:href="#DejaVuSans-2e" x="63.623047"/>
       <use xlink:href="#DejaVuSans-32" x="95.410156"/>
      </g>
     </g>
    </g>
    <g id="ytick_2">
     <g id="line2d_7">
      <g>
       <use xlink:href="#m998db410e7" x="47.72" y="122.293552" style="stroke: #000000; stroke-width: 0.8"/>
      </g>
     </g>
     <g id="text_8">
      <!-- 0.4 -->
      <g transform="translate(24.816875 126.09277)scale(0.1 -0.1)">
       <defs>
        <path id="DejaVuSans-34" d="M 2419 4116 
L 825 1625 
L 2419 1625 
L 2419 4116 
z
M 2253 4666 
L 3047 4666 
L 3047 1625 
L 3713 1625 
L 3713 1100 
L 3047 1100 
L 3047 0 
L 2419 0 
L 2419 1100 
L 313 1100 
L 313 1709 
L 2253 4666 
z
" transform="scale(0.015625)"/>
       </defs>
       <use xlink:href="#DejaVuSans-30"/>
       <use xlink:href="#DejaVuSans-2e" x="63.623047"/>
       <use xlink:href="#DejaVuSans-34" x="95.410156"/>
      </g>
     </g>
    </g>
    <g id="ytick_3">
     <g id="line2d_8">
      <g>
       <use xlink:href="#m998db410e7" x="47.72" y="89.875223" style="stroke: #000000; stroke-width: 0.8"/>
      </g>
     </g>
     <g id="text_9">
      <!-- 0.6 -->
      <g transform="translate(24.816875 93.674442)scale(0.1 -0.1)">
       <defs>
        <path id="DejaVuSans-36" d="M 2113 2584 
Q 1688 2584 1439 2293 
Q 1191 2003 1191 1497 
Q 1191 994 1439 701 
Q 1688 409 2113 409 
Q 2538 409 2786 701 
Q 3034 994 3034 1497 
Q 3034 2003 2786 2293 
Q 2538 2584 2113 2584 
z
M 3366 4563 
L 3366 3988 
Q 3128 4100 2886 4159 
Q 2644 4219 2406 4219 
Q 1781 4219 1451 3797 
Q 1122 3375 1075 2522 
Q 1259 2794 1537 2939 
Q 1816 3084 2150 3084 
Q 2853 3084 3261 2657 
Q 3669 2231 3669 1497 
Q 3669 778 3244 343 
Q 2819 -91 2113 -91 
Q 1303 -91 875 529 
Q 447 1150 447 2328 
Q 447 3434 972 4092 
Q 1497 4750 2381 4750 
Q 2619 4750 2861 4703 
Q 3103 4656 3366 4563 
z
" transform="scale(0.015625)"/>
       </defs>
       <use xlink:href="#DejaVuSans-30"/>
       <use xlink:href="#DejaVuSans-2e" x="63.623047"/>
       <use xlink:href="#DejaVuSans-36" x="95.410156"/>
      </g>
     </g>
    </g>
    <g id="ytick_4">
     <g id="line2d_9">
      <g>
       <use xlink:href="#m998db410e7" x="47.72" y="57.456894" style="stroke: #000000; stroke-width: 0.8"/>
      </g>
     </g>
     <g id="text_10">
      <!-- 0.8 -->
      <g transform="translate(24.816875 61.256113)scale(0.1 -0.1)">
       <defs>
        <path id="DejaVuSans-38" d="M 2034 2216 
Q 1584 2216 1326 1975 
Q 1069 1734 1069 1313 
Q 1069 891 1326 650 
Q 1584 409 2034 409 
Q 2484 409 2743 651 
Q 3003 894 3003 1313 
Q 3003 1734 2745 1975 
Q 2488 2216 2034 2216 
z
M 1403 2484 
Q 997 2584 770 2862 
Q 544 3141 544 3541 
Q 544 4100 942 4425 
Q 1341 4750 2034 4750 
Q 2731 4750 3128 4425 
Q 3525 4100 3525 3541 
Q 3525 3141 3298 2862 
Q 3072 2584 2669 2484 
Q 3125 2378 3379 2068 
Q 3634 1759 3634 1313 
Q 3634 634 3220 271 
Q 2806 -91 2034 -91 
Q 1263 -91 848 271 
Q 434 634 434 1313 
Q 434 1759 690 2068 
Q 947 2378 1403 2484 
z
M 1172 3481 
Q 1172 3119 1398 2916 
Q 1625 2713 2034 2713 
Q 2441 2713 2670 2916 
Q 2900 3119 2900 3481 
Q 2900 3844 2670 4047 
Q 2441 4250 2034 4250 
Q 1625 4250 1398 4047 
Q 1172 3844 1172 3481 
z
" transform="scale(0.015625)"/>
       </defs>
       <use xlink:href="#DejaVuSans-30"/>
       <use xlink:href="#DejaVuSans-2e" x="63.623047"/>
       <use xlink:href="#DejaVuSans-38" x="95.410156"/>
      </g>
     </g>
    </g>
    <g id="text_11">
     <!-- R-value -->
     <g transform="translate(18.737188 119.064687)rotate(-90)scale(0.1 -0.1)">
      <defs>
       <path id="DejaVuSans-52" d="M 2841 2188 
Q 3044 2119 3236 1894 
Q 3428 1669 3622 1275 
L 4263 0 
L 3584 0 
L 2988 1197 
Q 2756 1666 2539 1819 
Q 2322 1972 1947 1972 
L 1259 1972 
L 1259 0 
L 628 0 
L 628 4666 
L 2053 4666 
Q 2853 4666 3247 4331 
Q 3641 3997 3641 3322 
Q 3641 2881 3436 2590 
Q 3231 2300 2841 2188 
z
M 1259 4147 
L 1259 2491 
L 2053 2491 
Q 2509 2491 2742 2702 
Q 2975 2913 2975 3322 
Q 2975 3731 2742 3939 
Q 2509 4147 2053 4147 
L 1259 4147 
z
" transform="scale(0.015625)"/>
       <path id="DejaVuSans-2d" d="M 313 2009 
L 1997 2009 
L 1997 1497 
L 313 1497 
L 313 2009 
z
" transform="scale(0.015625)"/>
       <path id="DejaVuSans-76" d="M 191 3500 
L 800 3500 
L 1894 563 
L 2988 3500 
L 3597 3500 
L 2284 0 
L 1503 0 
L 191 3500 
z
" transform="scale(0.015625)"/>
      </defs>
      <use xlink:href="#DejaVuSans-52"/>
      <use xlink:href="#DejaVuSans-2d" x="65.482422"/>
      <use xlink:href="#DejaVuSans-76" x="98.941406"/>
      <use xlink:href="#DejaVuSans-61" x="158.121094"/>
      <use xlink:href="#DejaVuSans-6c" x="219.400391"/>
      <use xlink:href="#DejaVuSans-75" x="247.183594"/>
      <use xlink:href="#DejaVuSans-65" x="310.5625"/>
     </g>
    </g>
   </g>
   <g id="line2d_10">
    <path d="M 47.72 33.926945 
L 59.167105 35.849516 
L 70.614211 40.845898 
L 82.061316 47.859553 
L 93.508421 56.142952 
L 104.955526 65.63433 
L 116.402632 74.709278 
L 127.849737 84.396053 
L 139.296842 93.655794 
L 150.743947 101.536868 
L 162.191053 109.826022 
L 173.638158 117.090008 
L 185.085263 123.904441 
L 196.532368 129.169994 
L 207.979474 134.487512 
L 219.426579 139.582638 
L 230.873684 143.875128 
L 242.320789 147.949558 
L 253.767895 150.856826 
L 265.215 153.638064 
" clip-path="url(#p4c79ced82f)" style="fill: none; stroke: #1f77b4; stroke-width: 1.5; stroke-linecap: square"/>
   </g>
   <g id="line2d_11">
    <path d="M 47.72 33.943313 
L 59.167105 35.240541 
L 70.614211 38.043282 
L 82.061316 42.341448 
L 93.508421 48.081984 
L 104.955526 54.899215 
L 116.402632 62.324975 
L 127.849737 70.750622 
L 139.296842 79.009758 
L 150.743947 86.647388 
L 162.191053 94.700021 
L 173.638158 102.143861 
L 185.085263 109.143284 
L 196.532368 115.201429 
L 207.979474 121.153359 
L 219.426579 127.059074 
L 230.873684 132.211366 
L 242.320789 137.070085 
L 253.767895 140.930188 
L 265.215 144.619464 
" clip-path="url(#p4c79ced82f)" style="fill: none; stroke: #ff7f0e; stroke-width: 1.5; stroke-linecap: square"/>
   </g>
   <g id="line2d_12">
    <path d="M 47.72 33.940523 
L 59.167105 35.427958 
L 70.614211 37.935589 
L 82.061316 41.374368 
L 93.508421 44.769617 
L 104.955526 49.258547 
L 116.402632 53.490571 
L 127.849737 58.547645 
L 139.296842 63.5779 
L 150.743947 67.912007 
L 162.191053 72.630475 
L 173.638158 77.287969 
L 185.085263 81.728812 
L 196.532368 86.294511 
L 207.979474 90.926486 
L 219.426579 95.499712 
L 230.873684 99.654464 
L 242.320789 103.636535 
L 253.767895 107.504609 
L 265.215 111.698347 
" clip-path="url(#p4c79ced82f)" style="fill: none; stroke: #2ca02c; stroke-width: 1.5; stroke-linecap: square"/>
   </g>
   <g id="line2d_13">
    <path d="M 47.72 33.956888 
L 59.167105 35.166374 
L 70.614211 37.096164 
L 82.061316 39.873501 
L 93.508421 42.975567 
L 104.955526 47.099768 
L 116.402632 51.376668 
L 127.849737 56.451996 
L 139.296842 61.703157 
L 150.743947 66.263429 
L 162.191053 71.254316 
L 173.638158 76.114717 
L 185.085263 80.662767 
L 196.532368 85.483595 
L 207.979474 90.248833 
L 219.426579 94.74026 
L 230.873684 98.797469 
L 242.320789 102.772485 
L 253.767895 106.56698 
L 265.215 110.6182 
" clip-path="url(#p4c79ced82f)" style="fill: none; stroke: #d62728; stroke-width: 1.5; stroke-linecap: square"/>
   </g>
   <g id="line2d_14">
    <path d="M 47.72 33.936021 
L 59.167105 35.872244 
L 70.614211 40.894414 
L 82.061316 47.988045 
L 93.508421 56.253782 
L 104.955526 65.657983 
L 116.402632 74.747767 
L 127.849737 84.394614 
L 139.296842 93.778815 
L 150.743947 101.683444 
L 162.191053 110.22648 
L 173.638158 117.1335 
L 185.085263 123.851847 
L 196.532368 129.422335 
L 207.979474 134.386477 
L 219.426579 140.224212 
L 230.873684 144.303163 
L 242.320789 148.331387 
L 253.767895 152.63817 
L 265.215 154.438479 
" clip-path="url(#p4c79ced82f)" style="fill: none; stroke: #9467bd; stroke-width: 1.5; stroke-linecap: square"/>
   </g>
   <g id="line2d_15">
    <path d="M 47.72 33.95292 
L 59.167105 35.261465 
L 70.614211 38.05582 
L 82.061316 42.396534 
L 93.508421 48.132448 
L 104.955526 54.926991 
L 116.402632 62.345097 
L 127.849737 70.807336 
L 139.296842 79.122485 
L 150.743947 86.639509 
L 162.191053 95.055705 
L 173.638158 102.168383 
L 185.085263 109.032577 
L 196.532368 115.430389 
L 207.979474 120.972065 
L 219.426579 127.459558 
L 230.873684 132.684488 
L 242.320789 137.395159 
L 253.767895 142.390636 
L 265.215 145.270247 
" clip-path="url(#p4c79ced82f)" style="fill: none; stroke: #8c564b; stroke-width: 1.5; stroke-linecap: square"/>
   </g>
   <g id="line2d_16">
    <path d="M 47.72 45.024521 
L 59.167105 47.50083 
L 70.614211 53.392969 
L 82.061316 61.598738 
L 93.508421 70.992658 
L 104.955526 81.36634 
L 116.402632 91.071589 
L 127.849737 100.795907 
L 139.296842 109.940184 
L 150.743947 117.227441 
L 162.191053 124.995479 
L 173.638158 131.525939 
L 185.085263 137.655054 
L 196.532368 142.483047 
L 207.979474 147.249064 
L 219.426579 151.199391 
L 230.873684 154.610323 
L 242.320789 157.854243 
L 253.767895 160.332134 
L 265.215 162.339509 
" clip-path="url(#p4c79ced82f)" style="fill: none; stroke: #e377c2; stroke-width: 1.5; stroke-linecap: square"/>
   </g>
   <g id="line2d_17">
    <path d="M 47.72 33.959395 
L 59.167105 34.556909 
L 70.614211 35.070433 
L 82.061316 37.080146 
L 93.508421 40.056766 
L 104.955526 45.02928 
L 116.402632 50.98744 
L 127.849737 58.648659 
L 139.296842 66.262224 
L 150.743947 73.862177 
L 162.191053 82.0608 
L 173.638158 89.809413 
L 185.085263 97.204252 
L 196.532368 103.969432 
L 207.979474 110.907592 
L 219.426579 117.284915 
L 230.873684 123.27234 
L 242.320789 128.925779 
L 253.767895 133.653679 
L 265.215 137.950022 
" clip-path="url(#p4c79ced82f)" style="fill: none; stroke: #7f7f7f; stroke-width: 1.5; stroke-linecap: square"/>
   </g>
   <g id="patch_3">
    <path d="M 47.72 174.04 
L 47.72 26.88 
" style="fill: none; stroke: #000000; stroke-width: 0.8; stroke-linejoin: miter; stroke-linecap: square"/>
   </g>
   <g id="patch_4">
    <path d="M 47.72 174.04 
L 265.215 174.04 
" style="fill: none; stroke: #000000; stroke-width: 0.8; stroke-linejoin: miter; stroke-linecap: square"/>
   </g>
   <g id="text_12">
    <!-- Node * surprisal -->
    <g transform="translate(108.18625 20.88)scale(0.12 -0.12)">
     <defs>
      <path id="DejaVuSans-4e" d="M 628 4666 
L 1478 4666 
L 3547 763 
L 3547 4666 
L 4159 4666 
L 4159 0 
L 3309 0 
L 1241 3903 
L 1241 0 
L 628 0 
L 628 4666 
z
" transform="scale(0.015625)"/>
      <path id="DejaVuSans-64" d="M 2906 2969 
L 2906 4863 
L 3481 4863 
L 3481 0 
L 2906 0 
L 2906 525 
Q 2725 213 2448 61 
Q 2172 -91 1784 -91 
Q 1150 -91 751 415 
Q 353 922 353 1747 
Q 353 2572 751 3078 
Q 1150 3584 1784 3584 
Q 2172 3584 2448 3432 
Q 2725 3281 2906 2969 
z
M 947 1747 
Q 947 1113 1208 752 
Q 1469 391 1925 391 
Q 2381 391 2643 752 
Q 2906 1113 2906 1747 
Q 2906 2381 2643 2742 
Q 2381 3103 1925 3103 
Q 1469 3103 1208 2742 
Q 947 2381 947 1747 
z
" transform="scale(0.015625)"/>
      <path id="DejaVuSans-2a" d="M 3009 3897 
L 1888 3291 
L 3009 2681 
L 2828 2375 
L 1778 3009 
L 1778 1831 
L 1422 1831 
L 1422 3009 
L 372 2375 
L 191 2681 
L 1313 3291 
L 191 3897 
L 372 4206 
L 1422 3572 
L 1422 4750 
L 1778 4750 
L 1778 3572 
L 2828 4206 
L 3009 3897 
z
" transform="scale(0.015625)"/>
     </defs>
     <use xlink:href="#DejaVuSans-4e"/>
     <use xlink:href="#DejaVuSans-6f" x="74.804688"/>
     <use xlink:href="#DejaVuSans-64" x="135.986328"/>
     <use xlink:href="#DejaVuSans-65" x="199.462891"/>
     <use xlink:href="#DejaVuSans-20" x="260.986328"/>
     <use xlink:href="#DejaVuSans-2a" x="292.773438"/>
     <use xlink:href="#DejaVuSans-20" x="342.773438"/>
     <use xlink:href="#DejaVuSans-73" x="374.560547"/>
     <use xlink:href="#DejaVuSans-75" x="426.660156"/>
     <use xlink:href="#DejaVuSans-72" x="490.039062"/>
     <use xlink:href="#DejaVuSans-70" x="531.152344"/>
     <use xlink:href="#DejaVuSans-72" x="594.628906"/>
     <use xlink:href="#DejaVuSans-69" x="635.742188"/>
     <use xlink:href="#DejaVuSans-73" x="663.525391"/>
     <use xlink:href="#DejaVuSans-61" x="715.625"/>
     <use xlink:href="#DejaVuSans-6c" x="776.904297"/>
    </g>
   </g>
  </g>
  <g id="axes_2">
   <g id="patch_5">
    <path d="M 298.065 174.04 
L 515.56 174.04 
L 515.56 26.88 
L 298.065 26.88 
z
" style="fill: #ffffff"/>
   </g>
   <g id="PolyCollection_9">
    <path d="M 298.065 33.706901 
L 298.065 34.197731 
L 309.512105 36.4268 
L 320.959211 43.510118 
L 332.406316 51.11075 
L 343.853421 60.687921 
L 355.300526 70.755801 
L 366.747632 82.075636 
L 378.194737 92.001414 
L 389.641842 102.326216 
L 401.088947 111.128755 
L 412.536053 118.629655 
L 423.983158 125.366576 
L 435.430263 132.483829 
L 446.877368 138.08517 
L 458.324474 142.850611 
L 469.771579 147.031798 
L 481.218684 150.980237 
L 492.665789 154.781499 
L 504.112895 157.624092 
L 515.56 160.429443 
L 515.56 148.146269 
L 515.56 148.146269 
L 504.112895 145.552526 
L 492.665789 142.136665 
L 481.218684 139.131176 
L 469.771579 135.749138 
L 458.324474 130.506736 
L 446.877368 125.685432 
L 435.430263 119.177882 
L 423.983158 113.487085 
L 412.536053 106.354912 
L 401.088947 99.056441 
L 389.641842 91.109398 
L 378.194737 82.352124 
L 366.747632 73.564948 
L 355.300526 64.689787 
L 343.853421 56.341431 
L 332.406316 47.650657 
L 320.959211 40.747128 
L 309.512105 35.529293 
L 298.065 33.706901 
z
" clip-path="url(#p646c232ef4)" style="fill: #1f77b4; fill-opacity: 0.4"/>
   </g>
   <g id="PolyCollection_10">
    <path d="M 298.065 33.715711 
L 298.065 34.210269 
L 309.512105 36.4267 
L 320.959211 43.507743 
L 332.406316 51.094013 
L 343.853421 60.689596 
L 355.300526 70.744162 
L 366.747632 82.090704 
L 378.194737 92.076987 
L 389.641842 102.342372 
L 401.088947 111.235417 
L 412.536053 118.819333 
L 423.983158 125.550993 
L 435.430263 132.686538 
L 446.877368 138.346309 
L 458.324474 143.169863 
L 469.771579 147.313351 
L 481.218684 151.306808 
L 492.665789 154.987245 
L 504.112895 157.850455 
L 515.56 160.582845 
L 515.56 148.734136 
L 515.56 148.734136 
L 504.112895 145.811229 
L 492.665789 142.396136 
L 481.218684 139.278162 
L 469.771579 135.787424 
L 458.324474 130.54698 
L 446.877368 125.574949 
L 435.430263 119.028748 
L 423.983158 113.294272 
L 412.536053 106.095072 
L 401.088947 98.837012 
L 389.641842 90.992377 
L 378.194737 82.18614 
L 366.747632 73.483847 
L 355.300526 64.649878 
L 343.853421 56.290489 
L 332.406316 47.626194 
L 320.959211 40.753813 
L 309.512105 35.53348 
L 298.065 33.715711 
z
" clip-path="url(#p646c232ef4)" style="fill: #ff7f0e; fill-opacity: 0.4"/>
   </g>
   <g id="PolyCollection_11">
    <path d="M 298.065 33.715573 
L 298.065 34.201723 
L 309.512105 36.438353 
L 320.959211 43.529276 
L 332.406316 51.121182 
L 343.853421 60.777352 
L 355.300526 70.927405 
L 366.747632 82.405393 
L 378.194737 92.296406 
L 389.641842 102.685441 
L 401.088947 111.441524 
L 412.536053 118.925496 
L 423.983158 125.819256 
L 435.430263 132.87207 
L 446.877368 138.57871 
L 458.324474 143.741992 
L 469.771579 147.863096 
L 481.218684 151.9197 
L 492.665789 155.668774 
L 504.112895 158.460953 
L 515.56 161.188378 
L 515.56 148.885835 
L 515.56 148.885835 
L 504.112895 145.914854 
L 492.665789 142.601791 
L 481.218684 139.165067 
L 469.771579 135.855006 
L 458.324474 130.400138 
L 446.877368 125.82045 
L 435.430263 119.156415 
L 423.983158 113.378178 
L 412.536053 106.16976 
L 401.088947 98.93677 
L 389.641842 90.962244 
L 378.194737 82.233047 
L 366.747632 73.448677 
L 355.300526 64.590564 
L 343.853421 56.296376 
L 332.406316 47.652021 
L 320.959211 40.747725 
L 309.512105 35.547327 
L 298.065 33.715573 
z
" clip-path="url(#p646c232ef4)" style="fill: #2ca02c; fill-opacity: 0.4"/>
   </g>
   <g id="PolyCollection_12">
    <path d="M 298.065 33.729094 
L 298.065 34.213636 
L 309.512105 36.433472 
L 320.959211 43.523804 
L 332.406316 51.092112 
L 343.853421 60.769598 
L 355.300526 70.898687 
L 366.747632 82.472885 
L 378.194737 92.404786 
L 389.641842 102.725747 
L 401.088947 111.559375 
L 412.536053 119.06161 
L 423.983158 125.980085 
L 435.430263 132.970648 
L 446.877368 138.643137 
L 458.324474 143.795806 
L 469.771579 147.962772 
L 481.218684 151.970458 
L 492.665789 155.644192 
L 504.112895 158.324421 
L 515.56 161.173801 
L 515.56 149.034077 
L 515.56 149.034077 
L 504.112895 146.027315 
L 492.665789 142.661459 
L 481.218684 139.283606 
L 469.771579 135.921177 
L 458.324474 130.531538 
L 446.877368 125.835384 
L 435.430263 119.182172 
L 423.983158 113.393333 
L 412.536053 106.17552 
L 401.088947 99.016194 
L 389.641842 91.021563 
L 378.194737 82.19401 
L 366.747632 73.514894 
L 355.300526 64.646239 
L 343.853421 56.342237 
L 332.406316 47.679384 
L 320.959211 40.774884 
L 309.512105 35.567293 
L 298.065 33.729094 
z
" clip-path="url(#p646c232ef4)" style="fill: #d62728; fill-opacity: 0.4"/>
   </g>
   <g id="PolyCollection_13">
    <path d="M 298.065 33.711735 
L 298.065 34.205703 
L 309.512105 36.437565 
L 320.959211 43.568667 
L 332.406316 51.215169 
L 343.853421 60.763558 
L 355.300526 70.824459 
L 366.747632 82.394598 
L 378.194737 92.192012 
L 389.641842 102.44309 
L 401.088947 111.544422 
L 412.536053 118.884386 
L 423.983158 126.367544 
L 435.430263 132.997299 
L 446.877368 138.419846 
L 458.324474 143.480658 
L 469.771579 146.940713 
L 481.218684 151.62666 
L 492.665789 154.917281 
L 504.112895 158.115774 
L 515.56 160.011757 
L 515.56 148.900522 
L 515.56 148.900522 
L 504.112895 145.626714 
L 492.665789 142.539308 
L 481.218684 139.506267 
L 469.771579 135.478491 
L 458.324474 130.491406 
L 446.877368 126.11483 
L 435.430263 119.656631 
L 423.983158 113.370296 
L 412.536053 106.389512 
L 401.088947 99.514657 
L 389.641842 91.56751 
L 378.194737 82.408574 
L 366.747632 73.915917 
L 355.300526 64.684599 
L 343.853421 56.34312 
L 332.406316 47.667327 
L 320.959211 40.83777 
L 309.512105 35.544616 
L 298.065 33.711735 
z
" clip-path="url(#p646c232ef4)" style="fill: #9467bd; fill-opacity: 0.4"/>
   </g>
   <g id="PolyCollection_14">
    <path d="M 298.065 33.720843 
L 298.065 34.219079 
L 309.512105 36.438333 
L 320.959211 43.569326 
L 332.406316 51.198313 
L 343.853421 60.762814 
L 355.300526 70.810629 
L 366.747632 82.417683 
L 378.194737 92.26679 
L 389.641842 102.460969 
L 401.088947 111.660244 
L 412.536053 119.05051 
L 423.983158 126.533822 
L 435.430263 133.202105 
L 446.877368 138.716294 
L 458.324474 143.803543 
L 469.771579 147.22273 
L 481.218684 151.96293 
L 492.665789 155.075095 
L 504.112895 158.335433 
L 515.56 160.213096 
L 515.56 149.382594 
L 515.56 149.382594 
L 504.112895 145.886649 
L 492.665789 142.773257 
L 481.218684 139.637348 
L 469.771579 135.471484 
L 458.324474 130.558609 
L 446.877368 126.028116 
L 435.430263 119.488048 
L 423.983158 113.183471 
L 412.536053 106.151085 
L 401.088947 99.284425 
L 389.641842 91.442749 
L 378.194737 82.260343 
L 366.747632 73.823817 
L 355.300526 64.660792 
L 343.853421 56.302484 
L 332.406316 47.646239 
L 320.959211 40.842774 
L 309.512105 35.549157 
L 298.065 33.720843 
z
" clip-path="url(#p646c232ef4)" style="fill: #8c564b; fill-opacity: 0.4"/>
   </g>
   <g id="PolyCollection_15">
    <path d="M 298.065 43.072826 
L 298.065 47.237914 
L 309.512105 49.24899 
L 320.959211 54.780663 
L 332.406316 62.389013 
L 343.853421 70.909899 
L 355.300526 80.363857 
L 366.747632 90.476028 
L 378.194737 100.087676 
L 389.641842 108.887136 
L 401.088947 117.490923 
L 412.536053 124.608932 
L 423.983158 130.617034 
L 435.430263 137.371914 
L 446.877368 142.857129 
L 458.324474 147.250958 
L 469.771579 151.726607 
L 481.218684 155.577222 
L 492.665789 159.171882 
L 504.112895 161.834563 
L 515.56 164.594032 
L 515.56 151.502171 
L 515.56 151.502171 
L 504.112895 149.311414 
L 492.665789 146.16011 
L 481.218684 143.593681 
L 469.771579 140.211157 
L 458.324474 135.712714 
L 446.877368 131.296065 
L 435.430263 125.200698 
L 423.983158 119.759799 
L 412.536053 113.132016 
L 401.088947 106.637672 
L 389.641842 99.040279 
L 378.194737 91.034459 
L 366.747632 83.1036 
L 355.300526 74.261488 
L 343.853421 66.489492 
L 332.406316 57.507787 
L 320.959211 50.7203 
L 309.512105 44.841046 
L 298.065 43.072826 
z
" clip-path="url(#p646c232ef4)" style="fill: #e377c2; fill-opacity: 0.4"/>
   </g>
   <g id="PolyCollection_16">
    <path d="M 298.065 33.725257 
L 298.065 34.216371 
L 309.512105 36.460162 
L 320.959211 43.565202 
L 332.406316 51.206798 
L 343.853421 60.81887 
L 355.300526 71.006673 
L 366.747632 82.399768 
L 378.194737 92.387096 
L 389.641842 102.664627 
L 401.088947 111.554988 
L 412.536053 119.050798 
L 423.983158 125.857318 
L 435.430263 133.068019 
L 446.877368 138.880537 
L 458.324474 143.780066 
L 469.771579 148.073532 
L 481.218684 152.384087 
L 492.665789 156.070691 
L 504.112895 159.134428 
L 515.56 161.690231 
L 515.56 149.0731 
L 515.56 149.0731 
L 504.112895 146.348889 
L 492.665789 142.957413 
L 481.218684 139.768587 
L 469.771579 136.250477 
L 458.324474 131.233269 
L 446.877368 126.287572 
L 435.430263 119.595789 
L 423.983158 113.799173 
L 412.536053 106.671533 
L 401.088947 99.353013 
L 389.641842 91.339881 
L 378.194737 82.400368 
L 366.747632 73.673988 
L 355.300526 64.74301 
L 343.853421 56.413528 
L 332.406316 47.690016 
L 320.959211 40.78382 
L 309.512105 35.558489 
L 298.065 33.725257 
z
" clip-path="url(#p646c232ef4)" style="fill: #7f7f7f; fill-opacity: 0.4"/>
   </g>
   <g id="matplotlib.axis_3">
    <g id="xtick_6">
     <g id="line2d_18">
      <g>
       <use xlink:href="#m5b067bfe03" x="298.065" y="174.04" style="stroke: #000000; stroke-width: 0.8"/>
      </g>
     </g>
     <g id="text_13">
      <!-- 0.0 -->
      <g transform="translate(290.113437 188.638438)scale(0.1 -0.1)">
       <use xlink:href="#DejaVuSans-30"/>
       <use xlink:href="#DejaVuSans-2e" x="63.623047"/>
       <use xlink:href="#DejaVuSans-30" x="95.410156"/>
      </g>
     </g>
    </g>
    <g id="xtick_7">
     <g id="line2d_19">
      <g>
       <use xlink:href="#m5b067bfe03" x="352.43875" y="174.04" style="stroke: #000000; stroke-width: 0.8"/>
      </g>
     </g>
     <g id="text_14">
      <!-- 0.5 -->
      <g transform="translate(344.487187 188.638438)scale(0.1 -0.1)">
       <use xlink:href="#DejaVuSans-30"/>
       <use xlink:href="#DejaVuSans-2e" x="63.623047"/>
       <use xlink:href="#DejaVuSans-35" x="95.410156"/>
      </g>
     </g>
    </g>
    <g id="xtick_8">
     <g id="line2d_20">
      <g>
       <use xlink:href="#m5b067bfe03" x="406.8125" y="174.04" style="stroke: #000000; stroke-width: 0.8"/>
      </g>
     </g>
     <g id="text_15">
      <!-- 1.0 -->
      <g transform="translate(398.860937 188.638438)scale(0.1 -0.1)">
       <use xlink:href="#DejaVuSans-31"/>
       <use xlink:href="#DejaVuSans-2e" x="63.623047"/>
       <use xlink:href="#DejaVuSans-30" x="95.410156"/>
      </g>
     </g>
    </g>
    <g id="xtick_9">
     <g id="line2d_21">
      <g>
       <use xlink:href="#m5b067bfe03" x="461.18625" y="174.04" style="stroke: #000000; stroke-width: 0.8"/>
      </g>
     </g>
     <g id="text_16">
      <!-- 1.5 -->
      <g transform="translate(453.234687 188.638438)scale(0.1 -0.1)">
       <use xlink:href="#DejaVuSans-31"/>
       <use xlink:href="#DejaVuSans-2e" x="63.623047"/>
       <use xlink:href="#DejaVuSans-35" x="95.410156"/>
      </g>
     </g>
    </g>
    <g id="xtick_10">
     <g id="line2d_22">
      <g>
       <use xlink:href="#m5b067bfe03" x="515.56" y="174.04" style="stroke: #000000; stroke-width: 0.8"/>
      </g>
     </g>
     <g id="text_17">
      <!-- 2.0 -->
      <g transform="translate(507.608437 188.638438)scale(0.1 -0.1)">
       <use xlink:href="#DejaVuSans-32"/>
       <use xlink:href="#DejaVuSans-2e" x="63.623047"/>
       <use xlink:href="#DejaVuSans-30" x="95.410156"/>
      </g>
     </g>
    </g>
    <g id="text_18">
     <!-- Influence of surprisal (multiplication) -->
     <g transform="translate(314.665625 202.316563)scale(0.1 -0.1)">
      <use xlink:href="#DejaVuSans-49"/>
      <use xlink:href="#DejaVuSans-6e" x="29.492188"/>
      <use xlink:href="#DejaVuSans-66" x="92.871094"/>
      <use xlink:href="#DejaVuSans-6c" x="128.076172"/>
      <use xlink:href="#DejaVuSans-75" x="155.859375"/>
      <use xlink:href="#DejaVuSans-65" x="219.238281"/>
      <use xlink:href="#DejaVuSans-6e" x="280.761719"/>
      <use xlink:href="#DejaVuSans-63" x="344.140625"/>
      <use xlink:href="#DejaVuSans-65" x="399.121094"/>
      <use xlink:href="#DejaVuSans-20" x="460.644531"/>
      <use xlink:href="#DejaVuSans-6f" x="492.431641"/>
      <use xlink:href="#DejaVuSans-66" x="553.613281"/>
      <use xlink:href="#DejaVuSans-20" x="588.818359"/>
      <use xlink:href="#DejaVuSans-73" x="620.605469"/>
      <use xlink:href="#DejaVuSans-75" x="672.705078"/>
      <use xlink:href="#DejaVuSans-72" x="736.083984"/>
      <use xlink:href="#DejaVuSans-70" x="777.197266"/>
      <use xlink:href="#DejaVuSans-72" x="840.673828"/>
      <use xlink:href="#DejaVuSans-69" x="881.787109"/>
      <use xlink:href="#DejaVuSans-73" x="909.570312"/>
      <use xlink:href="#DejaVuSans-61" x="961.669922"/>
      <use xlink:href="#DejaVuSans-6c" x="1022.949219"/>
      <use xlink:href="#DejaVuSans-20" x="1050.732422"/>
      <use xlink:href="#DejaVuSans-28" x="1082.519531"/>
      <use xlink:href="#DejaVuSans-6d" x="1121.533203"/>
      <use xlink:href="#DejaVuSans-75" x="1218.945312"/>
      <use xlink:href="#DejaVuSans-6c" x="1282.324219"/>
      <use xlink:href="#DejaVuSans-74" x="1310.107422"/>
      <use xlink:href="#DejaVuSans-69" x="1349.316406"/>
      <use xlink:href="#DejaVuSans-70" x="1377.099609"/>
      <use xlink:href="#DejaVuSans-6c" x="1440.576172"/>
      <use xlink:href="#DejaVuSans-69" x="1468.359375"/>
      <use xlink:href="#DejaVuSans-63" x="1496.142578"/>
      <use xlink:href="#DejaVuSans-61" x="1551.123047"/>
      <use xlink:href="#DejaVuSans-74" x="1612.402344"/>
      <use xlink:href="#DejaVuSans-69" x="1651.611328"/>
      <use xlink:href="#DejaVuSans-6f" x="1679.394531"/>
      <use xlink:href="#DejaVuSans-6e" x="1740.576172"/>
      <use xlink:href="#DejaVuSans-29" x="1803.955078"/>
     </g>
    </g>
   </g>
   <g id="line2d_23">
    <path d="M 298.065 33.952316 
L 309.512105 35.978047 
L 320.959211 42.128623 
L 332.406316 49.380703 
L 343.853421 58.514676 
L 355.300526 67.722794 
L 366.747632 77.820292 
L 378.194737 87.176769 
L 389.641842 96.717807 
L 401.088947 105.092598 
L 412.536053 112.492284 
L 423.983158 119.42683 
L 435.430263 125.830856 
L 446.877368 131.885301 
L 458.324474 136.678673 
L 469.771579 141.390468 
L 481.218684 145.055706 
L 492.665789 148.459082 
L 504.112895 151.588309 
L 515.56 154.287856 
" clip-path="url(#p646c232ef4)" style="fill: none; stroke: #1f77b4; stroke-width: 1.5; stroke-linecap: square"/>
   </g>
   <g id="line2d_24">
    <path d="M 298.065 33.96299 
L 309.512105 35.98009 
L 320.959211 42.130778 
L 332.406316 49.360103 
L 343.853421 58.490042 
L 355.300526 67.69702 
L 366.747632 77.787275 
L 378.194737 87.131563 
L 389.641842 96.667375 
L 401.088947 105.036215 
L 412.536053 112.457203 
L 423.983158 119.422632 
L 435.430263 125.857643 
L 446.877368 131.960629 
L 458.324474 136.858422 
L 469.771579 141.550387 
L 481.218684 145.292485 
L 492.665789 148.69169 
L 504.112895 151.830842 
L 515.56 154.658491 
" clip-path="url(#p646c232ef4)" style="fill: none; stroke: #ff7f0e; stroke-width: 1.5; stroke-linecap: square"/>
   </g>
   <g id="line2d_25">
    <path d="M 298.065 33.958648 
L 309.512105 35.99284 
L 320.959211 42.138501 
L 332.406316 49.386601 
L 343.853421 58.536864 
L 355.300526 67.758984 
L 366.747632 77.927035 
L 378.194737 87.264727 
L 389.641842 96.823843 
L 401.088947 105.189147 
L 412.536053 112.547628 
L 423.983158 119.598717 
L 435.430263 126.014242 
L 446.877368 132.19958 
L 458.324474 137.071065 
L 469.771579 141.859051 
L 481.218684 145.542384 
L 492.665789 149.135283 
L 504.112895 152.187904 
L 515.56 155.037107 
" clip-path="url(#p646c232ef4)" style="fill: none; stroke: #2ca02c; stroke-width: 1.5; stroke-linecap: square"/>
   </g>
   <g id="line2d_26">
    <path d="M 298.065 33.971365 
L 309.512105 36.000383 
L 320.959211 42.149344 
L 332.406316 49.385748 
L 343.853421 58.555917 
L 355.300526 67.772463 
L 366.747632 77.993889 
L 378.194737 87.299398 
L 389.641842 96.873655 
L 401.088947 105.287785 
L 412.536053 112.618565 
L 423.983158 119.686709 
L 435.430263 126.07641 
L 446.877368 132.239261 
L 458.324474 137.163672 
L 469.771579 141.941975 
L 481.218684 145.627032 
L 492.665789 149.152826 
L 504.112895 152.175868 
L 515.56 155.103939 
" clip-path="url(#p646c232ef4)" style="fill: none; stroke: #d62728; stroke-width: 1.5; stroke-linecap: square"/>
   </g>
   <g id="line2d_27">
    <path d="M 298.065 33.958719 
L 309.512105 35.991091 
L 320.959211 42.203218 
L 332.406316 49.441248 
L 343.853421 58.553339 
L 355.300526 67.754529 
L 366.747632 78.155258 
L 378.194737 87.300293 
L 389.641842 97.0053 
L 401.088947 105.529539 
L 412.536053 112.636949 
L 423.983158 119.86892 
L 435.430263 126.326965 
L 446.877368 132.267338 
L 458.324474 136.986032 
L 469.771579 141.209602 
L 481.218684 145.566463 
L 492.665789 148.728294 
L 504.112895 151.871244 
L 515.56 154.45614 
" clip-path="url(#p646c232ef4)" style="fill: none; stroke: #9467bd; stroke-width: 1.5; stroke-linecap: square"/>
   </g>
   <g id="line2d_28">
    <path d="M 298.065 33.969961 
L 309.512105 35.993745 
L 320.959211 42.20605 
L 332.406316 49.422276 
L 343.853421 58.532649 
L 355.300526 67.73571 
L 366.747632 78.12075 
L 378.194737 87.263567 
L 389.641842 96.951859 
L 401.088947 105.472335 
L 412.536053 112.600797 
L 423.983158 119.858646 
L 435.430263 126.345077 
L 446.877368 132.372205 
L 458.324474 137.181076 
L 469.771579 141.347107 
L 481.218684 145.800139 
L 492.665789 148.924176 
L 504.112895 152.111041 
L 515.56 154.797845 
" clip-path="url(#p646c232ef4)" style="fill: none; stroke: #8c564b; stroke-width: 1.5; stroke-linecap: square"/>
   </g>
   <g id="line2d_29">
    <path d="M 298.065 45.15537 
L 309.512105 47.045018 
L 320.959211 52.750482 
L 332.406316 59.9484 
L 343.853421 68.699695 
L 355.300526 77.312672 
L 366.747632 86.789814 
L 378.194737 95.561067 
L 389.641842 103.963707 
L 401.088947 112.064297 
L 412.536053 118.870474 
L 423.983158 125.188417 
L 435.430263 131.286306 
L 446.877368 137.076597 
L 458.324474 141.481836 
L 469.771579 145.968882 
L 481.218684 149.585451 
L 492.665789 152.665996 
L 504.112895 155.572989 
L 515.56 158.048101 
" clip-path="url(#p646c232ef4)" style="fill: none; stroke: #e377c2; stroke-width: 1.5; stroke-linecap: square"/>
   </g>
   <g id="line2d_30">
    <path d="M 298.065 33.970814 
L 309.512105 36.009325 
L 320.959211 42.174511 
L 332.406316 49.448407 
L 343.853421 58.616199 
L 355.300526 67.874841 
L 366.747632 78.036878 
L 378.194737 87.393732 
L 389.641842 97.002254 
L 401.088947 105.454 
L 412.536053 112.861165 
L 423.983158 119.828246 
L 435.430263 126.331904 
L 446.877368 132.584055 
L 458.324474 137.506667 
L 469.771579 142.162005 
L 481.218684 146.076337 
L 492.665789 149.514052 
L 504.112895 152.741659 
L 515.56 155.381666 
" clip-path="url(#p646c232ef4)" style="fill: none; stroke: #7f7f7f; stroke-width: 1.5; stroke-linecap: square"/>
   </g>
   <g id="patch_6">
    <path d="M 298.065 174.04 
L 298.065 26.88 
" style="fill: none; stroke: #000000; stroke-width: 0.8; stroke-linejoin: miter; stroke-linecap: square"/>
   </g>
   <g id="patch_7">
    <path d="M 298.065 174.04 
L 515.56 174.04 
" style="fill: none; stroke: #000000; stroke-width: 0.8; stroke-linejoin: miter; stroke-linecap: square"/>
   </g>
   <g id="text_19">
    <!-- Node * third variable -->
    <g transform="translate(344.2325 20.88)scale(0.12 -0.12)">
     <defs>
      <path id="DejaVuSans-68" d="M 3513 2113 
L 3513 0 
L 2938 0 
L 2938 2094 
Q 2938 2591 2744 2837 
Q 2550 3084 2163 3084 
Q 1697 3084 1428 2787 
Q 1159 2491 1159 1978 
L 1159 0 
L 581 0 
L 581 4863 
L 1159 4863 
L 1159 2956 
Q 1366 3272 1645 3428 
Q 1925 3584 2291 3584 
Q 2894 3584 3203 3211 
Q 3513 2838 3513 2113 
z
" transform="scale(0.015625)"/>
      <path id="DejaVuSans-62" d="M 3116 1747 
Q 3116 2381 2855 2742 
Q 2594 3103 2138 3103 
Q 1681 3103 1420 2742 
Q 1159 2381 1159 1747 
Q 1159 1113 1420 752 
Q 1681 391 2138 391 
Q 2594 391 2855 752 
Q 3116 1113 3116 1747 
z
M 1159 2969 
Q 1341 3281 1617 3432 
Q 1894 3584 2278 3584 
Q 2916 3584 3314 3078 
Q 3713 2572 3713 1747 
Q 3713 922 3314 415 
Q 2916 -91 2278 -91 
Q 1894 -91 1617 61 
Q 1341 213 1159 525 
L 1159 0 
L 581 0 
L 581 4863 
L 1159 4863 
L 1159 2969 
z
" transform="scale(0.015625)"/>
     </defs>
     <use xlink:href="#DejaVuSans-4e"/>
     <use xlink:href="#DejaVuSans-6f" x="74.804688"/>
     <use xlink:href="#DejaVuSans-64" x="135.986328"/>
     <use xlink:href="#DejaVuSans-65" x="199.462891"/>
     <use xlink:href="#DejaVuSans-20" x="260.986328"/>
     <use xlink:href="#DejaVuSans-2a" x="292.773438"/>
     <use xlink:href="#DejaVuSans-20" x="342.773438"/>
     <use xlink:href="#DejaVuSans-74" x="374.560547"/>
     <use xlink:href="#DejaVuSans-68" x="413.769531"/>
     <use xlink:href="#DejaVuSans-69" x="477.148438"/>
     <use xlink:href="#DejaVuSans-72" x="504.931641"/>
     <use xlink:href="#DejaVuSans-64" x="544.294922"/>
     <use xlink:href="#DejaVuSans-20" x="607.771484"/>
     <use xlink:href="#DejaVuSans-76" x="639.558594"/>
     <use xlink:href="#DejaVuSans-61" x="698.738281"/>
     <use xlink:href="#DejaVuSans-72" x="760.017578"/>
     <use xlink:href="#DejaVuSans-69" x="801.130859"/>
     <use xlink:href="#DejaVuSans-61" x="828.914062"/>
     <use xlink:href="#DejaVuSans-62" x="890.193359"/>
     <use xlink:href="#DejaVuSans-6c" x="953.669922"/>
     <use xlink:href="#DejaVuSans-65" x="981.453125"/>
    </g>
   </g>
   <g id="legend_1">
    <g id="line2d_31">
     <path d="M 524.56 39.978437 
L 534.56 39.978437 
L 544.56 39.978437 
" style="fill: none; stroke: #1f77b4; stroke-width: 1.5; stroke-linecap: square"/>
    </g>
    <g id="text_20">
     <!-- Node -->
     <g transform="translate(552.56 43.478437)scale(0.1 -0.1)">
      <use xlink:href="#DejaVuSans-4e"/>
      <use xlink:href="#DejaVuSans-6f" x="74.804688"/>
      <use xlink:href="#DejaVuSans-64" x="135.986328"/>
      <use xlink:href="#DejaVuSans-65" x="199.462891"/>
     </g>
    </g>
    <g id="line2d_32">
     <path d="M 524.56 54.656563 
L 534.56 54.656563 
L 544.56 54.656563 
" style="fill: none; stroke: #ff7f0e; stroke-width: 1.5; stroke-linecap: square"/>
    </g>
    <g id="text_21">
     <!-- Node + surprisal -->
     <g transform="translate(552.56 58.156563)scale(0.1 -0.1)">
      <defs>
       <path id="DejaVuSans-2b" d="M 2944 4013 
L 2944 2272 
L 4684 2272 
L 4684 1741 
L 2944 1741 
L 2944 0 
L 2419 0 
L 2419 1741 
L 678 1741 
L 678 2272 
L 2419 2272 
L 2419 4013 
L 2944 4013 
z
" transform="scale(0.015625)"/>
      </defs>
      <use xlink:href="#DejaVuSans-4e"/>
      <use xlink:href="#DejaVuSans-6f" x="74.804688"/>
      <use xlink:href="#DejaVuSans-64" x="135.986328"/>
      <use xlink:href="#DejaVuSans-65" x="199.462891"/>
      <use xlink:href="#DejaVuSans-20" x="260.986328"/>
      <use xlink:href="#DejaVuSans-2b" x="292.773438"/>
      <use xlink:href="#DejaVuSans-20" x="376.5625"/>
      <use xlink:href="#DejaVuSans-73" x="408.349609"/>
      <use xlink:href="#DejaVuSans-75" x="460.449219"/>
      <use xlink:href="#DejaVuSans-72" x="523.828125"/>
      <use xlink:href="#DejaVuSans-70" x="564.941406"/>
      <use xlink:href="#DejaVuSans-72" x="628.417969"/>
      <use xlink:href="#DejaVuSans-69" x="669.53125"/>
      <use xlink:href="#DejaVuSans-73" x="697.314453"/>
      <use xlink:href="#DejaVuSans-61" x="749.414062"/>
      <use xlink:href="#DejaVuSans-6c" x="810.693359"/>
     </g>
    </g>
    <g id="line2d_33">
     <path d="M 524.56 69.334687 
L 534.56 69.334687 
L 544.56 69.334687 
" style="fill: none; stroke: #2ca02c; stroke-width: 1.5; stroke-linecap: square"/>
    </g>
    <g id="text_22">
     <!-- Node split -->
     <g transform="translate(552.56 72.834687)scale(0.1 -0.1)">
      <use xlink:href="#DejaVuSans-4e"/>
      <use xlink:href="#DejaVuSans-6f" x="74.804688"/>
      <use xlink:href="#DejaVuSans-64" x="135.986328"/>
      <use xlink:href="#DejaVuSans-65" x="199.462891"/>
      <use xlink:href="#DejaVuSans-20" x="260.986328"/>
      <use xlink:href="#DejaVuSans-73" x="292.773438"/>
      <use xlink:href="#DejaVuSans-70" x="344.873047"/>
      <use xlink:href="#DejaVuSans-6c" x="408.349609"/>
      <use xlink:href="#DejaVuSans-69" x="436.132812"/>
      <use xlink:href="#DejaVuSans-74" x="463.916016"/>
     </g>
    </g>
    <g id="line2d_34">
     <path d="M 524.56 84.012812 
L 534.56 84.012812 
L 544.56 84.012812 
" style="fill: none; stroke: #d62728; stroke-width: 1.5; stroke-linecap: square"/>
    </g>
    <g id="text_23">
     <!-- Node split + surprisal -->
     <g transform="translate(552.56 87.512812)scale(0.1 -0.1)">
      <use xlink:href="#DejaVuSans-4e"/>
      <use xlink:href="#DejaVuSans-6f" x="74.804688"/>
      <use xlink:href="#DejaVuSans-64" x="135.986328"/>
      <use xlink:href="#DejaVuSans-65" x="199.462891"/>
      <use xlink:href="#DejaVuSans-20" x="260.986328"/>
      <use xlink:href="#DejaVuSans-73" x="292.773438"/>
      <use xlink:href="#DejaVuSans-70" x="344.873047"/>
      <use xlink:href="#DejaVuSans-6c" x="408.349609"/>
      <use xlink:href="#DejaVuSans-69" x="436.132812"/>
      <use xlink:href="#DejaVuSans-74" x="463.916016"/>
      <use xlink:href="#DejaVuSans-20" x="503.125"/>
      <use xlink:href="#DejaVuSans-2b" x="534.912109"/>
      <use xlink:href="#DejaVuSans-20" x="618.701172"/>
      <use xlink:href="#DejaVuSans-73" x="650.488281"/>
      <use xlink:href="#DejaVuSans-75" x="702.587891"/>
      <use xlink:href="#DejaVuSans-72" x="765.966797"/>
      <use xlink:href="#DejaVuSans-70" x="807.080078"/>
      <use xlink:href="#DejaVuSans-72" x="870.556641"/>
      <use xlink:href="#DejaVuSans-69" x="911.669922"/>
      <use xlink:href="#DejaVuSans-73" x="939.453125"/>
      <use xlink:href="#DejaVuSans-61" x="991.552734"/>
      <use xlink:href="#DejaVuSans-6c" x="1052.832031"/>
     </g>
    </g>
    <g id="line2d_35">
     <path d="M 524.56 98.690937 
L 534.56 98.690937 
L 544.56 98.690937 
" style="fill: none; stroke: #9467bd; stroke-width: 1.5; stroke-linecap: square"/>
    </g>
    <g id="text_24">
     <!-- Node random split -->
     <g transform="translate(552.56 102.190937)scale(0.1 -0.1)">
      <use xlink:href="#DejaVuSans-4e"/>
      <use xlink:href="#DejaVuSans-6f" x="74.804688"/>
      <use xlink:href="#DejaVuSans-64" x="135.986328"/>
      <use xlink:href="#DejaVuSans-65" x="199.462891"/>
      <use xlink:href="#DejaVuSans-20" x="260.986328"/>
      <use xlink:href="#DejaVuSans-72" x="292.773438"/>
      <use xlink:href="#DejaVuSans-61" x="333.886719"/>
      <use xlink:href="#DejaVuSans-6e" x="395.166016"/>
      <use xlink:href="#DejaVuSans-64" x="458.544922"/>
      <use xlink:href="#DejaVuSans-6f" x="522.021484"/>
      <use xlink:href="#DejaVuSans-6d" x="583.203125"/>
      <use xlink:href="#DejaVuSans-20" x="680.615234"/>
      <use xlink:href="#DejaVuSans-73" x="712.402344"/>
      <use xlink:href="#DejaVuSans-70" x="764.501953"/>
      <use xlink:href="#DejaVuSans-6c" x="827.978516"/>
      <use xlink:href="#DejaVuSans-69" x="855.761719"/>
      <use xlink:href="#DejaVuSans-74" x="883.544922"/>
     </g>
    </g>
    <g id="line2d_36">
     <path d="M 524.56 113.369062 
L 534.56 113.369062 
L 544.56 113.369062 
" style="fill: none; stroke: #8c564b; stroke-width: 1.5; stroke-linecap: square"/>
    </g>
    <g id="text_25">
     <!-- Node random split + surprisal -->
     <g transform="translate(552.56 116.869062)scale(0.1 -0.1)">
      <use xlink:href="#DejaVuSans-4e"/>
      <use xlink:href="#DejaVuSans-6f" x="74.804688"/>
      <use xlink:href="#DejaVuSans-64" x="135.986328"/>
      <use xlink:href="#DejaVuSans-65" x="199.462891"/>
      <use xlink:href="#DejaVuSans-20" x="260.986328"/>
      <use xlink:href="#DejaVuSans-72" x="292.773438"/>
      <use xlink:href="#DejaVuSans-61" x="333.886719"/>
      <use xlink:href="#DejaVuSans-6e" x="395.166016"/>
      <use xlink:href="#DejaVuSans-64" x="458.544922"/>
      <use xlink:href="#DejaVuSans-6f" x="522.021484"/>
      <use xlink:href="#DejaVuSans-6d" x="583.203125"/>
      <use xlink:href="#DejaVuSans-20" x="680.615234"/>
      <use xlink:href="#DejaVuSans-73" x="712.402344"/>
      <use xlink:href="#DejaVuSans-70" x="764.501953"/>
      <use xlink:href="#DejaVuSans-6c" x="827.978516"/>
      <use xlink:href="#DejaVuSans-69" x="855.761719"/>
      <use xlink:href="#DejaVuSans-74" x="883.544922"/>
      <use xlink:href="#DejaVuSans-20" x="922.753906"/>
      <use xlink:href="#DejaVuSans-2b" x="954.541016"/>
      <use xlink:href="#DejaVuSans-20" x="1038.330078"/>
      <use xlink:href="#DejaVuSans-73" x="1070.117188"/>
      <use xlink:href="#DejaVuSans-75" x="1122.216797"/>
      <use xlink:href="#DejaVuSans-72" x="1185.595703"/>
      <use xlink:href="#DejaVuSans-70" x="1226.708984"/>
      <use xlink:href="#DejaVuSans-72" x="1290.185547"/>
      <use xlink:href="#DejaVuSans-69" x="1331.298828"/>
      <use xlink:href="#DejaVuSans-73" x="1359.082031"/>
      <use xlink:href="#DejaVuSans-61" x="1411.181641"/>
      <use xlink:href="#DejaVuSans-6c" x="1472.460938"/>
     </g>
    </g>
    <g id="line2d_37">
     <path d="M 524.56 128.047187 
L 534.56 128.047187 
L 544.56 128.047187 
" style="fill: none; stroke: #e377c2; stroke-width: 1.5; stroke-linecap: square"/>
    </g>
    <g id="text_26">
     <!-- Interaction -->
     <g transform="translate(552.56 131.547187)scale(0.1 -0.1)">
      <use xlink:href="#DejaVuSans-49"/>
      <use xlink:href="#DejaVuSans-6e" x="29.492188"/>
      <use xlink:href="#DejaVuSans-74" x="92.871094"/>
      <use xlink:href="#DejaVuSans-65" x="132.080078"/>
      <use xlink:href="#DejaVuSans-72" x="193.603516"/>
      <use xlink:href="#DejaVuSans-61" x="234.716797"/>
      <use xlink:href="#DejaVuSans-63" x="295.996094"/>
      <use xlink:href="#DejaVuSans-74" x="350.976562"/>
      <use xlink:href="#DejaVuSans-69" x="390.185547"/>
      <use xlink:href="#DejaVuSans-6f" x="417.96875"/>
      <use xlink:href="#DejaVuSans-6e" x="479.150391"/>
     </g>
    </g>
    <g id="line2d_38">
     <path d="M 524.56 142.725312 
L 534.56 142.725312 
L 544.56 142.725312 
" style="fill: none; stroke: #7f7f7f; stroke-width: 1.5; stroke-linecap: square"/>
    </g>
    <g id="text_27">
     <!-- Node + surprisal + interaction -->
     <g transform="translate(552.56 146.225312)scale(0.1 -0.1)">
      <use xlink:href="#DejaVuSans-4e"/>
      <use xlink:href="#DejaVuSans-6f" x="74.804688"/>
      <use xlink:href="#DejaVuSans-64" x="135.986328"/>
      <use xlink:href="#DejaVuSans-65" x="199.462891"/>
      <use xlink:href="#DejaVuSans-20" x="260.986328"/>
      <use xlink:href="#DejaVuSans-2b" x="292.773438"/>
      <use xlink:href="#DejaVuSans-20" x="376.5625"/>
      <use xlink:href="#DejaVuSans-73" x="408.349609"/>
      <use xlink:href="#DejaVuSans-75" x="460.449219"/>
      <use xlink:href="#DejaVuSans-72" x="523.828125"/>
      <use xlink:href="#DejaVuSans-70" x="564.941406"/>
      <use xlink:href="#DejaVuSans-72" x="628.417969"/>
      <use xlink:href="#DejaVuSans-69" x="669.53125"/>
      <use xlink:href="#DejaVuSans-73" x="697.314453"/>
      <use xlink:href="#DejaVuSans-61" x="749.414062"/>
      <use xlink:href="#DejaVuSans-6c" x="810.693359"/>
      <use xlink:href="#DejaVuSans-20" x="838.476562"/>
      <use xlink:href="#DejaVuSans-2b" x="870.263672"/>
      <use xlink:href="#DejaVuSans-20" x="954.052734"/>
      <use xlink:href="#DejaVuSans-69" x="985.839844"/>
      <use xlink:href="#DejaVuSans-6e" x="1013.623047"/>
      <use xlink:href="#DejaVuSans-74" x="1077.001953"/>
      <use xlink:href="#DejaVuSans-65" x="1116.210938"/>
      <use xlink:href="#DejaVuSans-72" x="1177.734375"/>
      <use xlink:href="#DejaVuSans-61" x="1218.847656"/>
      <use xlink:href="#DejaVuSans-63" x="1280.126953"/>
      <use xlink:href="#DejaVuSans-74" x="1335.107422"/>
      <use xlink:href="#DejaVuSans-69" x="1374.316406"/>
      <use xlink:href="#DejaVuSans-6f" x="1402.099609"/>
      <use xlink:href="#DejaVuSans-6e" x="1463.28125"/>
     </g>
    </g>
   </g>
  </g>
 </g>
 <defs>
  <clipPath id="p4c79ced82f">
   <rect x="47.72" y="26.88" width="217.495" height="147.16"/>
  </clipPath>
  <clipPath id="p646c232ef4">
   <rect x="298.065" y="26.88" width="217.495" height="147.16"/>
  </clipPath>
 </defs>
</svg>
