<?xml version="1.0" encoding="utf-8" standalone="no"?>
<!DOCTYPE svg PUBLIC "-//W3C//DTD SVG 1.1//EN"
  "http://www.w3.org/Graphics/SVG/1.1/DTD/svg11.dtd">
<svg xmlns:xlink="http://www.w3.org/1999/xlink" width="720pt" height="216pt" viewBox="0 0 720 216" xmlns="http://www.w3.org/2000/svg" version="1.1">
 <metadata>
  <rdf:RDF xmlns:dc="http://purl.org/dc/elements/1.1/" xmlns:cc="http://creativecommons.org/ns#" xmlns:rdf="http://www.w3.org/1999/02/22-rdf-syntax-ns#">
   <cc:Work>
    <dc:type rdf:resource="http://purl.org/dc/dcmitype/StillImage"/>
    <dc:date>2024-01-15T22:30:18.902914</dc:date>
    <dc:format>image/svg+xml</dc:format>
    <dc:creator>
     <cc:Agent>
      <dc:title>Matplotlib v3.5.1, https://matplotlib.org/</dc:title>
     </cc:Agent>
    </dc:creator>
   </cc:Work>
  </rdf:RDF>
 </metadata>
 <defs>
  <style type="text/css">*{stroke-linejoin: round; stroke-linecap: butt}</style>
 </defs>
 <g id="figure_1">
  <g id="patch_1">
   <path d="M 0 216 
L 720 216 
L 720 0 
L 0 0 
z
" style="fill: #ffffff"/>
  </g>
  <g id="axes_1">
   <g id="patch_2">
    <path d="M 47.72 174.04 
L 265.215 174.04 
L 265.215 26.88 
L 47.72 26.88 
z
" style="fill: #ffffff"/>
   </g>
   <g id="PolyCollection_1">
    <path d="M 47.72 33.569091 
L 47.72 34.266293 
L 59.167105 36.828784 
L 70.614211 43.249648 
L 82.061316 52.31186 
L 93.508421 63.424148 
L 104.955526 73.753015 
L 116.402632 84.590789 
L 127.849737 95.087741 
L 139.296842 105.03419 
L 150.743947 113.943193 
L 162.191053 121.205774 
L 173.638158 127.499104 
L 185.085263 133.624044 
L 196.532368 138.365923 
L 207.979474 143.195523 
L 219.426579 147.180887 
L 230.873684 150.687555 
L 242.320789 154.356697 
L 253.767895 156.750616 
L 265.215 159.25533 
L 265.215 143.510851 
L 265.215 143.510851 
L 253.767895 141.550228 
L 242.320789 137.473723 
L 230.873684 134.822468 
L 219.426579 130.700761 
L 207.979474 127.156831 
L 196.532368 122.790827 
L 185.085263 117.687438 
L 173.638158 112.440115 
L 162.191053 106.118683 
L 150.743947 98.731286 
L 139.296842 91.291247 
L 127.849737 82.00735 
L 116.402632 73.638087 
L 104.955526 64.141342 
L 93.508421 54.611986 
L 82.061316 47.025307 
L 70.614211 40.282779 
L 59.167105 35.499742 
L 47.72 33.569091 
z
" clip-path="url(#p2d09dd4213)" style="fill: #1f77b4; fill-opacity: 0.4"/>
   </g>
   <g id="PolyCollection_2">
    <path d="M 47.72 33.583192 
L 47.72 34.277435 
L 59.167105 35.847649 
L 70.614211 39.157135 
L 82.061316 44.468639 
L 93.508421 52.505529 
L 104.955526 60.661292 
L 116.402632 70.030601 
L 127.849737 78.896951 
L 139.296842 88.600513 
L 150.743947 97.430905 
L 162.191053 105.457087 
L 173.638158 113.095113 
L 185.085263 120.150339 
L 196.532368 125.635571 
L 207.979474 131.564627 
L 219.426579 136.676526 
L 230.873684 141.012619 
L 242.320789 145.535769 
L 253.767895 148.656231 
L 265.215 152.301417 
L 265.215 133.192426 
L 265.215 133.192426 
L 253.767895 130.633037 
L 242.320789 125.911742 
L 230.873684 122.446905 
L 219.426579 117.333038 
L 207.979474 113.036377 
L 196.532368 108.020943 
L 185.085263 102.271857 
L 173.638158 96.611236 
L 162.191053 89.71884 
L 150.743947 82.419723 
L 139.296842 75.343241 
L 127.849737 67.386158 
L 116.402632 60.392928 
L 104.955526 52.913919 
L 93.508421 46.377376 
L 82.061316 41.157142 
L 70.614211 37.378819 
L 59.167105 34.818709 
L 47.72 33.583192 
z
" clip-path="url(#p2d09dd4213)" style="fill: #ff7f0e; fill-opacity: 0.4"/>
   </g>
   <g id="PolyCollection_3">
    <path d="M 47.72 33.582015 
L 47.72 34.278811 
L 59.167105 36.250834 
L 70.614211 39.268076 
L 82.061316 43.558377 
L 93.508421 48.758342 
L 104.955526 53.888998 
L 116.402632 59.335062 
L 127.849737 64.206513 
L 139.296842 69.984027 
L 150.743947 75.120655 
L 162.191053 79.819951 
L 173.638158 84.76581 
L 185.085263 89.547614 
L 196.532368 94.06887 
L 207.979474 99.360506 
L 219.426579 102.847778 
L 230.873684 107.215981 
L 242.320789 111.314438 
L 253.767895 114.809992 
L 265.215 118.799266 
L 265.215 103.874276 
L 265.215 103.874276 
L 253.767895 101.164692 
L 242.320789 96.646386 
L 230.873684 93.947048 
L 219.426579 89.959632 
L 207.979474 86.273648 
L 196.532368 81.87933 
L 185.085263 77.964836 
L 173.638158 74.065111 
L 162.191053 69.226844 
L 150.743947 64.72827 
L 139.296842 60.468524 
L 127.849737 56.147592 
L 116.402632 51.81673 
L 104.955526 47.563942 
L 93.508421 43.339253 
L 82.061316 40.029292 
L 70.614211 37.188257 
L 59.167105 35.095446 
L 47.72 33.582015 
z
" clip-path="url(#p2d09dd4213)" style="fill: #2ca02c; fill-opacity: 0.4"/>
   </g>
   <g id="PolyCollection_4">
    <path d="M 47.72 33.592904 
L 47.72 34.288609 
L 59.167105 35.77758 
L 70.614211 37.936593 
L 82.061316 41.183535 
L 93.508421 45.874007 
L 104.955526 50.750018 
L 116.402632 56.347243 
L 127.849737 61.398591 
L 139.296842 67.409305 
L 150.743947 72.778567 
L 162.191053 77.754901 
L 173.638158 83.005352 
L 185.085263 87.967608 
L 196.532368 92.661354 
L 207.979474 97.886339 
L 219.426579 101.278341 
L 230.873684 105.342715 
L 242.320789 109.177812 
L 253.767895 112.277707 
L 265.215 115.999538 
L 265.215 102.556639 
L 265.215 102.556639 
L 253.767895 99.881342 
L 242.320789 95.460019 
L 230.873684 92.946582 
L 219.426579 89.049456 
L 207.979474 85.266211 
L 196.532368 80.975008 
L 185.085263 76.92279 
L 173.638158 72.967075 
L 162.191053 68.042127 
L 150.743947 63.36834 
L 139.296842 58.907336 
L 127.849737 54.490654 
L 116.402632 50.097538 
L 104.955526 45.805209 
L 93.508421 41.882604 
L 82.061316 38.770244 
L 70.614211 36.47164 
L 59.167105 34.787397 
L 47.72 33.592904 
z
" clip-path="url(#p2d09dd4213)" style="fill: #d62728; fill-opacity: 0.4"/>
   </g>
   <g id="PolyCollection_5">
    <path d="M 47.72 33.582107 
L 47.72 34.285894 
L 59.167105 36.855002 
L 70.614211 43.291558 
L 82.061316 52.319698 
L 93.508421 63.47857 
L 104.955526 73.714712 
L 116.402632 84.715863 
L 127.849737 95.180051 
L 139.296842 105.191493 
L 150.743947 114.149245 
L 162.191053 120.991244 
L 173.638158 127.898169 
L 185.085263 133.391982 
L 196.532368 139.050218 
L 207.979474 142.892905 
L 219.426579 148.338605 
L 230.873684 151.473767 
L 242.320789 156.013992 
L 253.767895 157.145735 
L 265.215 160.695053 
L 265.215 144.214077 
L 265.215 144.214077 
L 253.767895 143.159403 
L 242.320789 137.34948 
L 230.873684 135.07138 
L 219.426579 131.14858 
L 207.979474 127.788815 
L 196.532368 123.35014 
L 185.085263 118.235295 
L 173.638158 112.789198 
L 162.191053 106.622888 
L 150.743947 99.366778 
L 139.296842 91.423244 
L 127.849737 82.424751 
L 116.402632 73.839258 
L 104.955526 64.166158 
L 93.508421 54.649552 
L 82.061316 47.029411 
L 70.614211 40.331363 
L 59.167105 35.508611 
L 47.72 33.582107 
z
" clip-path="url(#p2d09dd4213)" style="fill: #9467bd; fill-opacity: 0.4"/>
   </g>
   <g id="PolyCollection_6">
    <path d="M 47.72 33.596151 
L 47.72 34.297317 
L 59.167105 35.868646 
L 70.614211 39.17608 
L 82.061316 44.489549 
L 93.508421 52.604965 
L 104.955526 60.69639 
L 116.402632 70.059874 
L 127.849737 79.049266 
L 139.296842 88.798042 
L 150.743947 97.681224 
L 162.191053 105.323098 
L 173.638158 113.383629 
L 185.085263 119.765966 
L 196.532368 126.216581 
L 207.979474 131.382112 
L 219.426579 137.439955 
L 230.873684 141.794669 
L 242.320789 146.91643 
L 253.767895 148.914333 
L 265.215 153.554238 
L 265.215 133.767039 
L 265.215 133.767039 
L 253.767895 132.059996 
L 242.320789 125.883996 
L 230.873684 122.604693 
L 219.426579 117.464292 
L 207.979474 113.38243 
L 196.532368 108.25612 
L 185.085263 102.88458 
L 173.638158 96.986997 
L 162.191053 90.090226 
L 150.743947 82.802076 
L 139.296842 75.505058 
L 127.849737 67.579848 
L 116.402632 60.531357 
L 104.955526 52.965598 
L 93.508421 46.414701 
L 82.061316 41.170615 
L 70.614211 37.420416 
L 59.167105 34.831373 
L 47.72 33.596151 
z
" clip-path="url(#p2d09dd4213)" style="fill: #8c564b; fill-opacity: 0.4"/>
   </g>
   <g id="PolyCollection_7">
    <path d="M 47.72 44.812798 
L 47.72 47.77213 
L 59.167105 51.425894 
L 70.614211 59.524766 
L 82.061316 70.850311 
L 93.508421 84.445065 
L 104.955526 95.745545 
L 116.402632 106.813136 
L 127.849737 117.223877 
L 139.296842 127.204486 
L 150.743947 135.243599 
L 162.191053 142.026658 
L 173.638158 146.852198 
L 185.085263 151.335903 
L 196.532368 154.382282 
L 207.979474 157.711416 
L 219.426579 159.841432 
L 230.873684 161.852737 
L 242.320789 164.2615 
L 253.767895 165.852605 
L 265.215 167.350909 
L 265.215 157.836695 
L 265.215 157.836695 
L 253.767895 156.188085 
L 242.320789 153.720026 
L 230.873684 151.819557 
L 219.426579 147.985389 
L 207.979474 145.108174 
L 196.532368 140.971228 
L 185.085263 135.942972 
L 173.638158 130.420088 
L 162.191053 123.816609 
L 150.743947 116.854198 
L 139.296842 108.133369 
L 127.849737 98.967709 
L 116.402632 89.311396 
L 104.955526 78.986026 
L 93.508421 68.331114 
L 82.061316 59.968535 
L 70.614211 52.052808 
L 59.167105 46.900106 
L 47.72 44.812798 
z
" clip-path="url(#p2d09dd4213)" style="fill: #e377c2; fill-opacity: 0.4"/>
   </g>
   <g id="PolyCollection_8">
    <path d="M 47.72 33.592294 
L 47.72 34.292033 
L 59.167105 35.060011 
L 70.614211 35.811139 
L 82.061316 38.703686 
L 93.508421 44.228688 
L 104.955526 50.789413 
L 116.402632 58.726219 
L 127.849737 66.795122 
L 139.296842 76.032582 
L 150.743947 85.37784 
L 162.191053 94.039117 
L 173.638158 102.132757 
L 185.085263 109.426848 
L 196.532368 115.820136 
L 207.979474 122.773701 
L 219.426579 128.081489 
L 230.873684 133.074045 
L 242.320789 138.248137 
L 253.767895 141.905434 
L 265.215 146.308351 
L 265.215 127.327812 
L 265.215 127.327812 
L 253.767895 124.264678 
L 242.320789 119.066463 
L 230.873684 115.233682 
L 219.426579 109.378275 
L 207.979474 104.135279 
L 196.532368 98.375358 
L 185.085263 91.650568 
L 173.638158 85.133948 
L 162.191053 77.021418 
L 150.743947 69.842529 
L 139.296842 62.564209 
L 127.849737 55.069921 
L 116.402632 48.855771 
L 104.955526 43.298872 
L 93.508421 38.804702 
L 82.061316 36.20025 
L 70.614211 34.900429 
L 59.167105 34.314723 
L 47.72 33.592294 
z
" clip-path="url(#p2d09dd4213)" style="fill: #7f7f7f; fill-opacity: 0.4"/>
   </g>
   <g id="matplotlib.axis_1">
    <g id="xtick_1">
     <g id="line2d_1">
      <defs>
       <path id="ma8a1b1111a" d="M 0 0 
L 0 3.5 
" style="stroke: #000000; stroke-width: 0.8"/>
      </defs>
      <g>
       <use xlink:href="#ma8a1b1111a" x="47.72" y="174.04" style="stroke: #000000; stroke-width: 0.8"/>
      </g>
     </g>
     <g id="text_1">
      <!-- 0.0 -->
      <g transform="translate(39.768438 188.638438)scale(0.1 -0.1)">
       <defs>
        <path id="DejaVuSans-30" d="M 2034 4250 
Q 1547 4250 1301 3770 
Q 1056 3291 1056 2328 
Q 1056 1369 1301 889 
Q 1547 409 2034 409 
Q 2525 409 2770 889 
Q 3016 1369 3016 2328 
Q 3016 3291 2770 3770 
Q 2525 4250 2034 4250 
z
M 2034 4750 
Q 2819 4750 3233 4129 
Q 3647 3509 3647 2328 
Q 3647 1150 3233 529 
Q 2819 -91 2034 -91 
Q 1250 -91 836 529 
Q 422 1150 422 2328 
Q 422 3509 836 4129 
Q 1250 4750 2034 4750 
z
" transform="scale(0.015625)"/>
        <path id="DejaVuSans-2e" d="M 684 794 
L 1344 794 
L 1344 0 
L 684 0 
L 684 794 
z
" transform="scale(0.015625)"/>
       </defs>
       <use xlink:href="#DejaVuSans-30"/>
       <use xlink:href="#DejaVuSans-2e" x="63.623047"/>
       <use xlink:href="#DejaVuSans-30" x="95.410156"/>
      </g>
     </g>
    </g>
    <g id="xtick_2">
     <g id="line2d_2">
      <g>
       <use xlink:href="#ma8a1b1111a" x="102.09375" y="174.04" style="stroke: #000000; stroke-width: 0.8"/>
      </g>
     </g>
     <g id="text_2">
      <!-- 0.5 -->
      <g transform="translate(94.142188 188.638438)scale(0.1 -0.1)">
       <defs>
        <path id="DejaVuSans-35" d="M 691 4666 
L 3169 4666 
L 3169 4134 
L 1269 4134 
L 1269 2991 
Q 1406 3038 1543 3061 
Q 1681 3084 1819 3084 
Q 2600 3084 3056 2656 
Q 3513 2228 3513 1497 
Q 3513 744 3044 326 
Q 2575 -91 1722 -91 
Q 1428 -91 1123 -41 
Q 819 9 494 109 
L 494 744 
Q 775 591 1075 516 
Q 1375 441 1709 441 
Q 2250 441 2565 725 
Q 2881 1009 2881 1497 
Q 2881 1984 2565 2268 
Q 2250 2553 1709 2553 
Q 1456 2553 1204 2497 
Q 953 2441 691 2322 
L 691 4666 
z
" transform="scale(0.015625)"/>
       </defs>
       <use xlink:href="#DejaVuSans-30"/>
       <use xlink:href="#DejaVuSans-2e" x="63.623047"/>
       <use xlink:href="#DejaVuSans-35" x="95.410156"/>
      </g>
     </g>
    </g>
    <g id="xtick_3">
     <g id="line2d_3">
      <g>
       <use xlink:href="#ma8a1b1111a" x="156.4675" y="174.04" style="stroke: #000000; stroke-width: 0.8"/>
      </g>
     </g>
     <g id="text_3">
      <!-- 1.0 -->
      <g transform="translate(148.515938 188.638438)scale(0.1 -0.1)">
       <defs>
        <path id="DejaVuSans-31" d="M 794 531 
L 1825 531 
L 1825 4091 
L 703 3866 
L 703 4441 
L 1819 4666 
L 2450 4666 
L 2450 531 
L 3481 531 
L 3481 0 
L 794 0 
L 794 531 
z
" transform="scale(0.015625)"/>
       </defs>
       <use xlink:href="#DejaVuSans-31"/>
       <use xlink:href="#DejaVuSans-2e" x="63.623047"/>
       <use xlink:href="#DejaVuSans-30" x="95.410156"/>
      </g>
     </g>
    </g>
    <g id="xtick_4">
     <g id="line2d_4">
      <g>
       <use xlink:href="#ma8a1b1111a" x="210.84125" y="174.04" style="stroke: #000000; stroke-width: 0.8"/>
      </g>
     </g>
     <g id="text_4">
      <!-- 1.5 -->
      <g transform="translate(202.889687 188.638438)scale(0.1 -0.1)">
       <use xlink:href="#DejaVuSans-31"/>
       <use xlink:href="#DejaVuSans-2e" x="63.623047"/>
       <use xlink:href="#DejaVuSans-35" x="95.410156"/>
      </g>
     </g>
    </g>
    <g id="xtick_5">
     <g id="line2d_5">
      <g>
       <use xlink:href="#ma8a1b1111a" x="265.215" y="174.04" style="stroke: #000000; stroke-width: 0.8"/>
      </g>
     </g>
     <g id="text_5">
      <!-- 2.0 -->
      <g transform="translate(257.263437 188.638438)scale(0.1 -0.1)">
       <defs>
        <path id="DejaVuSans-32" d="M 1228 531 
L 3431 531 
L 3431 0 
L 469 0 
L 469 531 
Q 828 903 1448 1529 
Q 2069 2156 2228 2338 
Q 2531 2678 2651 2914 
Q 2772 3150 2772 3378 
Q 2772 3750 2511 3984 
Q 2250 4219 1831 4219 
Q 1534 4219 1204 4116 
Q 875 4013 500 3803 
L 500 4441 
Q 881 4594 1212 4672 
Q 1544 4750 1819 4750 
Q 2544 4750 2975 4387 
Q 3406 4025 3406 3419 
Q 3406 3131 3298 2873 
Q 3191 2616 2906 2266 
Q 2828 2175 2409 1742 
Q 1991 1309 1228 531 
z
" transform="scale(0.015625)"/>
       </defs>
       <use xlink:href="#DejaVuSans-32"/>
       <use xlink:href="#DejaVuSans-2e" x="63.623047"/>
       <use xlink:href="#DejaVuSans-30" x="95.410156"/>
      </g>
     </g>
    </g>
    <g id="text_6">
     <!-- Influence of surprisal (multiplication) -->
     <g transform="translate(64.320625 202.316563)scale(0.1 -0.1)">
      <defs>
       <path id="DejaVuSans-49" d="M 628 4666 
L 1259 4666 
L 1259 0 
L 628 0 
L 628 4666 
z
" transform="scale(0.015625)"/>
       <path id="DejaVuSans-6e" d="M 3513 2113 
L 3513 0 
L 2938 0 
L 2938 2094 
Q 2938 2591 2744 2837 
Q 2550 3084 2163 3084 
Q 1697 3084 1428 2787 
Q 1159 2491 1159 1978 
L 1159 0 
L 581 0 
L 581 3500 
L 1159 3500 
L 1159 2956 
Q 1366 3272 1645 3428 
Q 1925 3584 2291 3584 
Q 2894 3584 3203 3211 
Q 3513 2838 3513 2113 
z
" transform="scale(0.015625)"/>
       <path id="DejaVuSans-66" d="M 2375 4863 
L 2375 4384 
L 1825 4384 
Q 1516 4384 1395 4259 
Q 1275 4134 1275 3809 
L 1275 3500 
L 2222 3500 
L 2222 3053 
L 1275 3053 
L 1275 0 
L 697 0 
L 697 3053 
L 147 3053 
L 147 3500 
L 697 3500 
L 697 3744 
Q 697 4328 969 4595 
Q 1241 4863 1831 4863 
L 2375 4863 
z
" transform="scale(0.015625)"/>
       <path id="DejaVuSans-6c" d="M 603 4863 
L 1178 4863 
L 1178 0 
L 603 0 
L 603 4863 
z
" transform="scale(0.015625)"/>
       <path id="DejaVuSans-75" d="M 544 1381 
L 544 3500 
L 1119 3500 
L 1119 1403 
Q 1119 906 1312 657 
Q 1506 409 1894 409 
Q 2359 409 2629 706 
Q 2900 1003 2900 1516 
L 2900 3500 
L 3475 3500 
L 3475 0 
L 2900 0 
L 2900 538 
Q 2691 219 2414 64 
Q 2138 -91 1772 -91 
Q 1169 -91 856 284 
Q 544 659 544 1381 
z
M 1991 3584 
L 1991 3584 
z
" transform="scale(0.015625)"/>
       <path id="DejaVuSans-65" d="M 3597 1894 
L 3597 1613 
L 953 1613 
Q 991 1019 1311 708 
Q 1631 397 2203 397 
Q 2534 397 2845 478 
Q 3156 559 3463 722 
L 3463 178 
Q 3153 47 2828 -22 
Q 2503 -91 2169 -91 
Q 1331 -91 842 396 
Q 353 884 353 1716 
Q 353 2575 817 3079 
Q 1281 3584 2069 3584 
Q 2775 3584 3186 3129 
Q 3597 2675 3597 1894 
z
M 3022 2063 
Q 3016 2534 2758 2815 
Q 2500 3097 2075 3097 
Q 1594 3097 1305 2825 
Q 1016 2553 972 2059 
L 3022 2063 
z
" transform="scale(0.015625)"/>
       <path id="DejaVuSans-63" d="M 3122 3366 
L 3122 2828 
Q 2878 2963 2633 3030 
Q 2388 3097 2138 3097 
Q 1578 3097 1268 2742 
Q 959 2388 959 1747 
Q 959 1106 1268 751 
Q 1578 397 2138 397 
Q 2388 397 2633 464 
Q 2878 531 3122 666 
L 3122 134 
Q 2881 22 2623 -34 
Q 2366 -91 2075 -91 
Q 1284 -91 818 406 
Q 353 903 353 1747 
Q 353 2603 823 3093 
Q 1294 3584 2113 3584 
Q 2378 3584 2631 3529 
Q 2884 3475 3122 3366 
z
" transform="scale(0.015625)"/>
       <path id="DejaVuSans-20" transform="scale(0.015625)"/>
       <path id="DejaVuSans-6f" d="M 1959 3097 
Q 1497 3097 1228 2736 
Q 959 2375 959 1747 
Q 959 1119 1226 758 
Q 1494 397 1959 397 
Q 2419 397 2687 759 
Q 2956 1122 2956 1747 
Q 2956 2369 2687 2733 
Q 2419 3097 1959 3097 
z
M 1959 3584 
Q 2709 3584 3137 3096 
Q 3566 2609 3566 1747 
Q 3566 888 3137 398 
Q 2709 -91 1959 -91 
Q 1206 -91 779 398 
Q 353 888 353 1747 
Q 353 2609 779 3096 
Q 1206 3584 1959 3584 
z
" transform="scale(0.015625)"/>
       <path id="DejaVuSans-73" d="M 2834 3397 
L 2834 2853 
Q 2591 2978 2328 3040 
Q 2066 3103 1784 3103 
Q 1356 3103 1142 2972 
Q 928 2841 928 2578 
Q 928 2378 1081 2264 
Q 1234 2150 1697 2047 
L 1894 2003 
Q 2506 1872 2764 1633 
Q 3022 1394 3022 966 
Q 3022 478 2636 193 
Q 2250 -91 1575 -91 
Q 1294 -91 989 -36 
Q 684 19 347 128 
L 347 722 
Q 666 556 975 473 
Q 1284 391 1588 391 
Q 1994 391 2212 530 
Q 2431 669 2431 922 
Q 2431 1156 2273 1281 
Q 2116 1406 1581 1522 
L 1381 1569 
Q 847 1681 609 1914 
Q 372 2147 372 2553 
Q 372 3047 722 3315 
Q 1072 3584 1716 3584 
Q 2034 3584 2315 3537 
Q 2597 3491 2834 3397 
z
" transform="scale(0.015625)"/>
       <path id="DejaVuSans-72" d="M 2631 2963 
Q 2534 3019 2420 3045 
Q 2306 3072 2169 3072 
Q 1681 3072 1420 2755 
Q 1159 2438 1159 1844 
L 1159 0 
L 581 0 
L 581 3500 
L 1159 3500 
L 1159 2956 
Q 1341 3275 1631 3429 
Q 1922 3584 2338 3584 
Q 2397 3584 2469 3576 
Q 2541 3569 2628 3553 
L 2631 2963 
z
" transform="scale(0.015625)"/>
       <path id="DejaVuSans-70" d="M 1159 525 
L 1159 -1331 
L 581 -1331 
L 581 3500 
L 1159 3500 
L 1159 2969 
Q 1341 3281 1617 3432 
Q 1894 3584 2278 3584 
Q 2916 3584 3314 3078 
Q 3713 2572 3713 1747 
Q 3713 922 3314 415 
Q 2916 -91 2278 -91 
Q 1894 -91 1617 61 
Q 1341 213 1159 525 
z
M 3116 1747 
Q 3116 2381 2855 2742 
Q 2594 3103 2138 3103 
Q 1681 3103 1420 2742 
Q 1159 2381 1159 1747 
Q 1159 1113 1420 752 
Q 1681 391 2138 391 
Q 2594 391 2855 752 
Q 3116 1113 3116 1747 
z
" transform="scale(0.015625)"/>
       <path id="DejaVuSans-69" d="M 603 3500 
L 1178 3500 
L 1178 0 
L 603 0 
L 603 3500 
z
M 603 4863 
L 1178 4863 
L 1178 4134 
L 603 4134 
L 603 4863 
z
" transform="scale(0.015625)"/>
       <path id="DejaVuSans-61" d="M 2194 1759 
Q 1497 1759 1228 1600 
Q 959 1441 959 1056 
Q 959 750 1161 570 
Q 1363 391 1709 391 
Q 2188 391 2477 730 
Q 2766 1069 2766 1631 
L 2766 1759 
L 2194 1759 
z
M 3341 1997 
L 3341 0 
L 2766 0 
L 2766 531 
Q 2569 213 2275 61 
Q 1981 -91 1556 -91 
Q 1019 -91 701 211 
Q 384 513 384 1019 
Q 384 1609 779 1909 
Q 1175 2209 1959 2209 
L 2766 2209 
L 2766 2266 
Q 2766 2663 2505 2880 
Q 2244 3097 1772 3097 
Q 1472 3097 1187 3025 
Q 903 2953 641 2809 
L 641 3341 
Q 956 3463 1253 3523 
Q 1550 3584 1831 3584 
Q 2591 3584 2966 3190 
Q 3341 2797 3341 1997 
z
" transform="scale(0.015625)"/>
       <path id="DejaVuSans-28" d="M 1984 4856 
Q 1566 4138 1362 3434 
Q 1159 2731 1159 2009 
Q 1159 1288 1364 580 
Q 1569 -128 1984 -844 
L 1484 -844 
Q 1016 -109 783 600 
Q 550 1309 550 2009 
Q 550 2706 781 3412 
Q 1013 4119 1484 4856 
L 1984 4856 
z
" transform="scale(0.015625)"/>
       <path id="DejaVuSans-6d" d="M 3328 2828 
Q 3544 3216 3844 3400 
Q 4144 3584 4550 3584 
Q 5097 3584 5394 3201 
Q 5691 2819 5691 2113 
L 5691 0 
L 5113 0 
L 5113 2094 
Q 5113 2597 4934 2840 
Q 4756 3084 4391 3084 
Q 3944 3084 3684 2787 
Q 3425 2491 3425 1978 
L 3425 0 
L 2847 0 
L 2847 2094 
Q 2847 2600 2669 2842 
Q 2491 3084 2119 3084 
Q 1678 3084 1418 2786 
Q 1159 2488 1159 1978 
L 1159 0 
L 581 0 
L 581 3500 
L 1159 3500 
L 1159 2956 
Q 1356 3278 1631 3431 
Q 1906 3584 2284 3584 
Q 2666 3584 2933 3390 
Q 3200 3197 3328 2828 
z
" transform="scale(0.015625)"/>
       <path id="DejaVuSans-74" d="M 1172 4494 
L 1172 3500 
L 2356 3500 
L 2356 3053 
L 1172 3053 
L 1172 1153 
Q 1172 725 1289 603 
Q 1406 481 1766 481 
L 2356 481 
L 2356 0 
L 1766 0 
Q 1100 0 847 248 
Q 594 497 594 1153 
L 594 3053 
L 172 3053 
L 172 3500 
L 594 3500 
L 594 4494 
L 1172 4494 
z
" transform="scale(0.015625)"/>
       <path id="DejaVuSans-29" d="M 513 4856 
L 1013 4856 
Q 1481 4119 1714 3412 
Q 1947 2706 1947 2009 
Q 1947 1309 1714 600 
Q 1481 -109 1013 -844 
L 513 -844 
Q 928 -128 1133 580 
Q 1338 1288 1338 2009 
Q 1338 2731 1133 3434 
Q 928 4138 513 4856 
z
" transform="scale(0.015625)"/>
      </defs>
      <use xlink:href="#DejaVuSans-49"/>
      <use xlink:href="#DejaVuSans-6e" x="29.492188"/>
      <use xlink:href="#DejaVuSans-66" x="92.871094"/>
      <use xlink:href="#DejaVuSans-6c" x="128.076172"/>
      <use xlink:href="#DejaVuSans-75" x="155.859375"/>
      <use xlink:href="#DejaVuSans-65" x="219.238281"/>
      <use xlink:href="#DejaVuSans-6e" x="280.761719"/>
      <use xlink:href="#DejaVuSans-63" x="344.140625"/>
      <use xlink:href="#DejaVuSans-65" x="399.121094"/>
      <use xlink:href="#DejaVuSans-20" x="460.644531"/>
      <use xlink:href="#DejaVuSans-6f" x="492.431641"/>
      <use xlink:href="#DejaVuSans-66" x="553.613281"/>
      <use xlink:href="#DejaVuSans-20" x="588.818359"/>
      <use xlink:href="#DejaVuSans-73" x="620.605469"/>
      <use xlink:href="#DejaVuSans-75" x="672.705078"/>
      <use xlink:href="#DejaVuSans-72" x="736.083984"/>
      <use xlink:href="#DejaVuSans-70" x="777.197266"/>
      <use xlink:href="#DejaVuSans-72" x="840.673828"/>
      <use xlink:href="#DejaVuSans-69" x="881.787109"/>
      <use xlink:href="#DejaVuSans-73" x="909.570312"/>
      <use xlink:href="#DejaVuSans-61" x="961.669922"/>
      <use xlink:href="#DejaVuSans-6c" x="1022.949219"/>
      <use xlink:href="#DejaVuSans-20" x="1050.732422"/>
      <use xlink:href="#DejaVuSans-28" x="1082.519531"/>
      <use xlink:href="#DejaVuSans-6d" x="1121.533203"/>
      <use xlink:href="#DejaVuSans-75" x="1218.945312"/>
      <use xlink:href="#DejaVuSans-6c" x="1282.324219"/>
      <use xlink:href="#DejaVuSans-74" x="1310.107422"/>
      <use xlink:href="#DejaVuSans-69" x="1349.316406"/>
      <use xlink:href="#DejaVuSans-70" x="1377.099609"/>
      <use xlink:href="#DejaVuSans-6c" x="1440.576172"/>
      <use xlink:href="#DejaVuSans-69" x="1468.359375"/>
      <use xlink:href="#DejaVuSans-63" x="1496.142578"/>
      <use xlink:href="#DejaVuSans-61" x="1551.123047"/>
      <use xlink:href="#DejaVuSans-74" x="1612.402344"/>
      <use xlink:href="#DejaVuSans-69" x="1651.611328"/>
      <use xlink:href="#DejaVuSans-6f" x="1679.394531"/>
      <use xlink:href="#DejaVuSans-6e" x="1740.576172"/>
      <use xlink:href="#DejaVuSans-29" x="1803.955078"/>
     </g>
    </g>
   </g>
   <g id="matplotlib.axis_2">
    <g id="ytick_1">
     <g id="line2d_6">
      <defs>
       <path id="mef11f000c8" d="M 0 0 
L -3.5 0 
" style="stroke: #000000; stroke-width: 0.8"/>
      </defs>
      <g>
       <use xlink:href="#mef11f000c8" x="47.72" y="154.86049" style="stroke: #000000; stroke-width: 0.8"/>
      </g>
     </g>
     <g id="text_7">
      <!-- 0.2 -->
      <g transform="translate(24.816875 158.659709)scale(0.1 -0.1)">
       <use xlink:href="#DejaVuSans-30"/>
       <use xlink:href="#DejaVuSans-2e" x="63.623047"/>
       <use xlink:href="#DejaVuSans-32" x="95.410156"/>
      </g>
     </g>
    </g>
    <g id="ytick_2">
     <g id="line2d_7">
      <g>
       <use xlink:href="#mef11f000c8" x="47.72" y="122.497261" style="stroke: #000000; stroke-width: 0.8"/>
      </g>
     </g>
     <g id="text_8">
      <!-- 0.4 -->
      <g transform="translate(24.816875 126.29648)scale(0.1 -0.1)">
       <defs>
        <path id="DejaVuSans-34" d="M 2419 4116 
L 825 1625 
L 2419 1625 
L 2419 4116 
z
M 2253 4666 
L 3047 4666 
L 3047 1625 
L 3713 1625 
L 3713 1100 
L 3047 1100 
L 3047 0 
L 2419 0 
L 2419 1100 
L 313 1100 
L 313 1709 
L 2253 4666 
z
" transform="scale(0.015625)"/>
       </defs>
       <use xlink:href="#DejaVuSans-30"/>
       <use xlink:href="#DejaVuSans-2e" x="63.623047"/>
       <use xlink:href="#DejaVuSans-34" x="95.410156"/>
      </g>
     </g>
    </g>
    <g id="ytick_3">
     <g id="line2d_8">
      <g>
       <use xlink:href="#mef11f000c8" x="47.72" y="90.134033" style="stroke: #000000; stroke-width: 0.8"/>
      </g>
     </g>
     <g id="text_9">
      <!-- 0.6 -->
      <g transform="translate(24.816875 93.933252)scale(0.1 -0.1)">
       <defs>
        <path id="DejaVuSans-36" d="M 2113 2584 
Q 1688 2584 1439 2293 
Q 1191 2003 1191 1497 
Q 1191 994 1439 701 
Q 1688 409 2113 409 
Q 2538 409 2786 701 
Q 3034 994 3034 1497 
Q 3034 2003 2786 2293 
Q 2538 2584 2113 2584 
z
M 3366 4563 
L 3366 3988 
Q 3128 4100 2886 4159 
Q 2644 4219 2406 4219 
Q 1781 4219 1451 3797 
Q 1122 3375 1075 2522 
Q 1259 2794 1537 2939 
Q 1816 3084 2150 3084 
Q 2853 3084 3261 2657 
Q 3669 2231 3669 1497 
Q 3669 778 3244 343 
Q 2819 -91 2113 -91 
Q 1303 -91 875 529 
Q 447 1150 447 2328 
Q 447 3434 972 4092 
Q 1497 4750 2381 4750 
Q 2619 4750 2861 4703 
Q 3103 4656 3366 4563 
z
" transform="scale(0.015625)"/>
       </defs>
       <use xlink:href="#DejaVuSans-30"/>
       <use xlink:href="#DejaVuSans-2e" x="63.623047"/>
       <use xlink:href="#DejaVuSans-36" x="95.410156"/>
      </g>
     </g>
    </g>
    <g id="ytick_4">
     <g id="line2d_9">
      <g>
       <use xlink:href="#mef11f000c8" x="47.72" y="57.770805" style="stroke: #000000; stroke-width: 0.8"/>
      </g>
     </g>
     <g id="text_10">
      <!-- 0.8 -->
      <g transform="translate(24.816875 61.570023)scale(0.1 -0.1)">
       <defs>
        <path id="DejaVuSans-38" d="M 2034 2216 
Q 1584 2216 1326 1975 
Q 1069 1734 1069 1313 
Q 1069 891 1326 650 
Q 1584 409 2034 409 
Q 2484 409 2743 651 
Q 3003 894 3003 1313 
Q 3003 1734 2745 1975 
Q 2488 2216 2034 2216 
z
M 1403 2484 
Q 997 2584 770 2862 
Q 544 3141 544 3541 
Q 544 4100 942 4425 
Q 1341 4750 2034 4750 
Q 2731 4750 3128 4425 
Q 3525 4100 3525 3541 
Q 3525 3141 3298 2862 
Q 3072 2584 2669 2484 
Q 3125 2378 3379 2068 
Q 3634 1759 3634 1313 
Q 3634 634 3220 271 
Q 2806 -91 2034 -91 
Q 1263 -91 848 271 
Q 434 634 434 1313 
Q 434 1759 690 2068 
Q 947 2378 1403 2484 
z
M 1172 3481 
Q 1172 3119 1398 2916 
Q 1625 2713 2034 2713 
Q 2441 2713 2670 2916 
Q 2900 3119 2900 3481 
Q 2900 3844 2670 4047 
Q 2441 4250 2034 4250 
Q 1625 4250 1398 4047 
Q 1172 3844 1172 3481 
z
" transform="scale(0.015625)"/>
       </defs>
       <use xlink:href="#DejaVuSans-30"/>
       <use xlink:href="#DejaVuSans-2e" x="63.623047"/>
       <use xlink:href="#DejaVuSans-38" x="95.410156"/>
      </g>
     </g>
    </g>
    <g id="text_11">
     <!-- R-value -->
     <g transform="translate(18.737188 119.064687)rotate(-90)scale(0.1 -0.1)">
      <defs>
       <path id="DejaVuSans-52" d="M 2841 2188 
Q 3044 2119 3236 1894 
Q 3428 1669 3622 1275 
L 4263 0 
L 3584 0 
L 2988 1197 
Q 2756 1666 2539 1819 
Q 2322 1972 1947 1972 
L 1259 1972 
L 1259 0 
L 628 0 
L 628 4666 
L 2053 4666 
Q 2853 4666 3247 4331 
Q 3641 3997 3641 3322 
Q 3641 2881 3436 2590 
Q 3231 2300 2841 2188 
z
M 1259 4147 
L 1259 2491 
L 2053 2491 
Q 2509 2491 2742 2702 
Q 2975 2913 2975 3322 
Q 2975 3731 2742 3939 
Q 2509 4147 2053 4147 
L 1259 4147 
z
" transform="scale(0.015625)"/>
       <path id="DejaVuSans-2d" d="M 313 2009 
L 1997 2009 
L 1997 1497 
L 313 1497 
L 313 2009 
z
" transform="scale(0.015625)"/>
       <path id="DejaVuSans-76" d="M 191 3500 
L 800 3500 
L 1894 563 
L 2988 3500 
L 3597 3500 
L 2284 0 
L 1503 0 
L 191 3500 
z
" transform="scale(0.015625)"/>
      </defs>
      <use xlink:href="#DejaVuSans-52"/>
      <use xlink:href="#DejaVuSans-2d" x="65.482422"/>
      <use xlink:href="#DejaVuSans-76" x="98.941406"/>
      <use xlink:href="#DejaVuSans-61" x="158.121094"/>
      <use xlink:href="#DejaVuSans-6c" x="219.400391"/>
      <use xlink:href="#DejaVuSans-75" x="247.183594"/>
      <use xlink:href="#DejaVuSans-65" x="310.5625"/>
     </g>
    </g>
   </g>
   <g id="line2d_10">
    <path d="M 47.72 33.917692 
L 59.167105 36.164263 
L 70.614211 41.766213 
L 82.061316 49.668583 
L 93.508421 59.018067 
L 104.955526 68.947178 
L 116.402632 79.114438 
L 127.849737 88.547546 
L 139.296842 98.162718 
L 150.743947 106.337239 
L 162.191053 113.662228 
L 173.638158 119.969609 
L 185.085263 125.655741 
L 196.532368 130.578375 
L 207.979474 135.176177 
L 219.426579 138.940824 
L 230.873684 142.755012 
L 242.320789 145.91521 
L 253.767895 149.150422 
L 265.215 151.383091 
" clip-path="url(#p2d09dd4213)" style="fill: none; stroke: #1f77b4; stroke-width: 1.5; stroke-linecap: square"/>
   </g>
   <g id="line2d_11">
    <path d="M 47.72 33.930314 
L 59.167105 35.333179 
L 70.614211 38.267977 
L 82.061316 42.812891 
L 93.508421 49.441453 
L 104.955526 56.787606 
L 116.402632 65.211764 
L 127.849737 73.141555 
L 139.296842 81.971877 
L 150.743947 89.925314 
L 162.191053 97.587963 
L 173.638158 104.853174 
L 185.085263 111.211098 
L 196.532368 116.828257 
L 207.979474 122.300502 
L 219.426579 127.004782 
L 230.873684 131.729762 
L 242.320789 135.723756 
L 253.767895 139.644634 
L 265.215 142.746922 
" clip-path="url(#p2d09dd4213)" style="fill: none; stroke: #ff7f0e; stroke-width: 1.5; stroke-linecap: square"/>
   </g>
   <g id="line2d_12">
    <path d="M 47.72 33.930413 
L 59.167105 35.67314 
L 70.614211 38.228167 
L 82.061316 41.793834 
L 93.508421 46.048797 
L 104.955526 50.72647 
L 116.402632 55.575896 
L 127.849737 60.177053 
L 139.296842 65.226276 
L 150.743947 69.924463 
L 162.191053 74.523398 
L 173.638158 79.415461 
L 185.085263 83.756225 
L 196.532368 87.9741 
L 207.979474 92.817077 
L 219.426579 96.403705 
L 230.873684 100.581515 
L 242.320789 103.980412 
L 253.767895 107.987342 
L 265.215 111.336771 
" clip-path="url(#p2d09dd4213)" style="fill: none; stroke: #2ca02c; stroke-width: 1.5; stroke-linecap: square"/>
   </g>
   <g id="line2d_13">
    <path d="M 47.72 33.940757 
L 59.167105 35.282488 
L 70.614211 37.204117 
L 82.061316 39.97689 
L 93.508421 43.878306 
L 104.955526 48.277614 
L 116.402632 53.22239 
L 127.849737 57.944622 
L 139.296842 63.158321 
L 150.743947 68.073453 
L 162.191053 72.898514 
L 173.638158 77.986213 
L 185.085263 82.445199 
L 196.532368 86.818181 
L 207.979474 91.576275 
L 219.426579 95.163899 
L 230.873684 99.144649 
L 242.320789 102.318916 
L 253.767895 106.079525 
L 265.215 109.278088 
" clip-path="url(#p2d09dd4213)" style="fill: none; stroke: #d62728; stroke-width: 1.5; stroke-linecap: square"/>
   </g>
   <g id="line2d_14">
    <path d="M 47.72 33.934001 
L 59.167105 36.181807 
L 70.614211 41.81146 
L 82.061316 49.674554 
L 93.508421 59.064061 
L 104.955526 68.940435 
L 116.402632 79.277561 
L 127.849737 88.802401 
L 139.296842 98.307368 
L 150.743947 106.758012 
L 162.191053 113.807066 
L 173.638158 120.343684 
L 185.085263 125.813639 
L 196.532368 131.200179 
L 207.979474 135.34086 
L 219.426579 139.743592 
L 230.873684 143.272574 
L 242.320789 146.681736 
L 253.767895 150.152569 
L 265.215 152.454565 
" clip-path="url(#p2d09dd4213)" style="fill: none; stroke: #9467bd; stroke-width: 1.5; stroke-linecap: square"/>
   </g>
   <g id="line2d_15">
    <path d="M 47.72 33.946734 
L 59.167105 35.35001 
L 70.614211 38.298248 
L 82.061316 42.830082 
L 93.508421 49.509833 
L 104.955526 56.830994 
L 116.402632 65.295616 
L 127.849737 73.314557 
L 139.296842 82.15155 
L 150.743947 90.24165 
L 162.191053 97.706662 
L 173.638158 105.185313 
L 185.085263 111.325273 
L 196.532368 117.23635 
L 207.979474 122.382271 
L 219.426579 127.452123 
L 230.873684 132.199681 
L 242.320789 136.400213 
L 253.767895 140.487165 
L 265.215 143.660639 
" clip-path="url(#p2d09dd4213)" style="fill: none; stroke: #8c564b; stroke-width: 1.5; stroke-linecap: square"/>
   </g>
   <g id="line2d_16">
    <path d="M 47.72 46.292464 
L 59.167105 49.163 
L 70.614211 55.788787 
L 82.061316 65.409423 
L 93.508421 76.388089 
L 104.955526 87.365786 
L 116.402632 98.062266 
L 127.849737 108.095793 
L 139.296842 117.668927 
L 150.743947 126.048899 
L 162.191053 132.921633 
L 173.638158 138.636143 
L 185.085263 143.639438 
L 196.532368 147.676755 
L 207.979474 151.409795 
L 219.426579 153.913411 
L 230.873684 156.836147 
L 242.320789 158.990763 
L 253.767895 161.020345 
L 265.215 162.593802 
" clip-path="url(#p2d09dd4213)" style="fill: none; stroke: #e377c2; stroke-width: 1.5; stroke-linecap: square"/>
   </g>
   <g id="line2d_17">
    <path d="M 47.72 33.942164 
L 59.167105 34.687367 
L 70.614211 35.355784 
L 82.061316 37.451968 
L 93.508421 41.516695 
L 104.955526 47.044142 
L 116.402632 53.790995 
L 127.849737 60.932522 
L 139.296842 69.298395 
L 150.743947 77.610185 
L 162.191053 85.530268 
L 173.638158 93.633353 
L 185.085263 100.538708 
L 196.532368 107.097747 
L 207.979474 113.45449 
L 219.426579 118.729882 
L 230.873684 124.153863 
L 242.320789 128.6573 
L 253.767895 133.085056 
L 265.215 136.818081 
" clip-path="url(#p2d09dd4213)" style="fill: none; stroke: #7f7f7f; stroke-width: 1.5; stroke-linecap: square"/>
   </g>
   <g id="patch_3">
    <path d="M 47.72 174.04 
L 47.72 26.88 
" style="fill: none; stroke: #000000; stroke-width: 0.8; stroke-linejoin: miter; stroke-linecap: square"/>
   </g>
   <g id="patch_4">
    <path d="M 47.72 174.04 
L 265.215 174.04 
" style="fill: none; stroke: #000000; stroke-width: 0.8; stroke-linejoin: miter; stroke-linecap: square"/>
   </g>
   <g id="text_12">
    <!-- Node * surprisal -->
    <g transform="translate(108.18625 20.88)scale(0.12 -0.12)">
     <defs>
      <path id="DejaVuSans-4e" d="M 628 4666 
L 1478 4666 
L 3547 763 
L 3547 4666 
L 4159 4666 
L 4159 0 
L 3309 0 
L 1241 3903 
L 1241 0 
L 628 0 
L 628 4666 
z
" transform="scale(0.015625)"/>
      <path id="DejaVuSans-64" d="M 2906 2969 
L 2906 4863 
L 3481 4863 
L 3481 0 
L 2906 0 
L 2906 525 
Q 2725 213 2448 61 
Q 2172 -91 1784 -91 
Q 1150 -91 751 415 
Q 353 922 353 1747 
Q 353 2572 751 3078 
Q 1150 3584 1784 3584 
Q 2172 3584 2448 3432 
Q 2725 3281 2906 2969 
z
M 947 1747 
Q 947 1113 1208 752 
Q 1469 391 1925 391 
Q 2381 391 2643 752 
Q 2906 1113 2906 1747 
Q 2906 2381 2643 2742 
Q 2381 3103 1925 3103 
Q 1469 3103 1208 2742 
Q 947 2381 947 1747 
z
" transform="scale(0.015625)"/>
      <path id="DejaVuSans-2a" d="M 3009 3897 
L 1888 3291 
L 3009 2681 
L 2828 2375 
L 1778 3009 
L 1778 1831 
L 1422 1831 
L 1422 3009 
L 372 2375 
L 191 2681 
L 1313 3291 
L 191 3897 
L 372 4206 
L 1422 3572 
L 1422 4750 
L 1778 4750 
L 1778 3572 
L 2828 4206 
L 3009 3897 
z
" transform="scale(0.015625)"/>
     </defs>
     <use xlink:href="#DejaVuSans-4e"/>
     <use xlink:href="#DejaVuSans-6f" x="74.804688"/>
     <use xlink:href="#DejaVuSans-64" x="135.986328"/>
     <use xlink:href="#DejaVuSans-65" x="199.462891"/>
     <use xlink:href="#DejaVuSans-20" x="260.986328"/>
     <use xlink:href="#DejaVuSans-2a" x="292.773438"/>
     <use xlink:href="#DejaVuSans-20" x="342.773438"/>
     <use xlink:href="#DejaVuSans-73" x="374.560547"/>
     <use xlink:href="#DejaVuSans-75" x="426.660156"/>
     <use xlink:href="#DejaVuSans-72" x="490.039062"/>
     <use xlink:href="#DejaVuSans-70" x="531.152344"/>
     <use xlink:href="#DejaVuSans-72" x="594.628906"/>
     <use xlink:href="#DejaVuSans-69" x="635.742188"/>
     <use xlink:href="#DejaVuSans-73" x="663.525391"/>
     <use xlink:href="#DejaVuSans-61" x="715.625"/>
     <use xlink:href="#DejaVuSans-6c" x="776.904297"/>
    </g>
   </g>
  </g>
  <g id="axes_2">
   <g id="patch_5">
    <path d="M 298.065 174.04 
L 515.56 174.04 
L 515.56 26.88 
L 298.065 26.88 
z
" style="fill: #ffffff"/>
   </g>
   <g id="PolyCollection_9">
    <path d="M 298.065 33.797328 
L 298.065 34.336144 
L 309.512105 36.646647 
L 320.959211 42.667523 
L 332.406316 51.94148 
L 343.853421 62.402267 
L 355.300526 73.153239 
L 366.747632 83.696599 
L 378.194737 93.000945 
L 389.641842 102.611842 
L 401.088947 111.343173 
L 412.536053 118.835067 
L 423.983158 125.535604 
L 435.430263 132.725755 
L 446.877368 138.354882 
L 458.324474 143.86267 
L 469.771579 149.071998 
L 481.218684 152.535519 
L 492.665789 156.186542 
L 504.112895 158.984669 
L 515.56 161.435254 
L 515.56 147.561797 
L 515.56 147.561797 
L 504.112895 145.168893 
L 492.665789 141.38516 
L 481.218684 138.061371 
L 469.771579 134.371791 
L 458.324474 128.827582 
L 446.877368 123.909169 
L 435.430263 118.613043 
L 423.983158 112.804202 
L 412.536053 105.876064 
L 401.088947 98.897549 
L 389.641842 91.461672 
L 378.194737 83.239369 
L 366.747632 74.133264 
L 355.300526 64.591357 
L 343.853421 55.352319 
L 332.406316 47.499119 
L 320.959211 40.566997 
L 309.512105 35.402247 
L 298.065 33.797328 
z
" clip-path="url(#p4c94de667b)" style="fill: #1f77b4; fill-opacity: 0.4"/>
   </g>
   <g id="PolyCollection_10">
    <path d="M 298.065 33.801975 
L 298.065 34.338514 
L 309.512105 36.657056 
L 320.959211 42.700757 
L 332.406316 51.968118 
L 343.853421 62.475682 
L 355.300526 73.228384 
L 366.747632 83.817127 
L 378.194737 93.215615 
L 389.641842 102.896515 
L 401.088947 111.64451 
L 412.536053 119.174275 
L 423.983158 126.104143 
L 435.430263 133.235422 
L 446.877368 138.860601 
L 458.324474 144.433649 
L 469.771579 149.619285 
L 481.218684 153.151838 
L 492.665789 156.786972 
L 504.112895 159.623876 
L 515.56 162.027204 
L 515.56 147.834372 
L 515.56 147.834372 
L 504.112895 145.395708 
L 492.665789 141.454655 
L 481.218684 138.151802 
L 469.771579 134.43705 
L 458.324474 128.931503 
L 446.877368 123.93168 
L 435.430263 118.59708 
L 423.983158 112.741928 
L 412.536053 105.791583 
L 401.088947 98.871398 
L 389.641842 91.453867 
L 378.194737 83.263889 
L 366.747632 74.187156 
L 355.300526 64.629693 
L 343.853421 55.398919 
L 332.406316 47.563751 
L 320.959211 40.588216 
L 309.512105 35.418468 
L 298.065 33.801975 
z
" clip-path="url(#p4c94de667b)" style="fill: #ff7f0e; fill-opacity: 0.4"/>
   </g>
   <g id="PolyCollection_11">
    <path d="M 298.065 33.807062 
L 298.065 34.348048 
L 309.512105 36.647696 
L 320.959211 42.669594 
L 332.406316 51.905672 
L 343.853421 62.403978 
L 355.300526 73.185775 
L 366.747632 83.809666 
L 378.194737 93.247666 
L 389.641842 102.979187 
L 401.088947 111.865406 
L 412.536053 119.402764 
L 423.983158 126.271273 
L 435.430263 133.510222 
L 446.877368 139.037138 
L 458.324474 144.543044 
L 469.771579 149.824656 
L 481.218684 153.034443 
L 492.665789 156.784827 
L 504.112895 159.867572 
L 515.56 162.157493 
L 515.56 147.917342 
L 515.56 147.917342 
L 504.112895 145.492954 
L 492.665789 141.650378 
L 481.218684 138.429255 
L 469.771579 134.690981 
L 458.324474 129.14388 
L 446.877368 124.079642 
L 435.430263 118.791319 
L 423.983158 112.948956 
L 412.536053 106.091668 
L 401.088947 99.016832 
L 389.641842 91.611327 
L 378.194737 83.38997 
L 366.747632 74.253874 
L 355.300526 64.71666 
L 343.853421 55.45251 
L 332.406316 47.564631 
L 320.959211 40.57611 
L 309.512105 35.413591 
L 298.065 33.807062 
z
" clip-path="url(#p4c94de667b)" style="fill: #2ca02c; fill-opacity: 0.4"/>
   </g>
   <g id="PolyCollection_12">
    <path d="M 298.065 33.814277 
L 298.065 34.348994 
L 309.512105 36.663351 
L 320.959211 42.706677 
L 332.406316 51.973133 
L 343.853421 62.479406 
L 355.300526 73.250621 
L 366.747632 83.910927 
L 378.194737 93.367082 
L 389.641842 103.111806 
L 401.088947 111.898763 
L 412.536053 119.528021 
L 423.983158 126.529848 
L 435.430263 133.63332 
L 446.877368 139.152712 
L 458.324474 144.715932 
L 469.771579 150.044565 
L 481.218684 153.326481 
L 492.665789 157.005207 
L 504.112895 160.029682 
L 515.56 162.33491 
L 515.56 148.020271 
L 515.56 148.020271 
L 504.112895 145.644709 
L 492.665789 141.643552 
L 481.218684 138.410537 
L 469.771579 134.701185 
L 458.324474 129.201741 
L 446.877368 124.136232 
L 435.430263 118.833807 
L 423.983158 112.909398 
L 412.536053 106.078193 
L 401.088947 99.068119 
L 389.641842 91.621124 
L 378.194737 83.404691 
L 366.747632 74.264206 
L 355.300526 64.744714 
L 343.853421 55.483484 
L 332.406316 47.612514 
L 320.959211 40.596973 
L 309.512105 35.438074 
L 298.065 33.814277 
z
" clip-path="url(#p4c94de667b)" style="fill: #d62728; fill-opacity: 0.4"/>
   </g>
   <g id="PolyCollection_13">
    <path d="M 298.065 33.80533 
L 298.065 34.349017 
L 309.512105 36.648892 
L 320.959211 42.672647 
L 332.406316 52.011194 
L 343.853421 62.447686 
L 355.300526 73.269286 
L 366.747632 83.722213 
L 378.194737 92.765168 
L 389.641842 102.528228 
L 401.088947 111.597885 
L 412.536053 119.214305 
L 423.983158 125.75581 
L 435.430263 132.948225 
L 446.877368 138.042672 
L 458.324474 144.38097 
L 469.771579 149.421286 
L 481.218684 153.311876 
L 492.665789 155.918693 
L 504.112895 159.035271 
L 515.56 161.638074 
L 515.56 148.543799 
L 515.56 148.543799 
L 504.112895 145.591088 
L 492.665789 141.505245 
L 481.218684 138.377899 
L 469.771579 134.847803 
L 458.324474 128.753203 
L 446.877368 124.28793 
L 435.430263 119.586865 
L 423.983158 112.774635 
L 412.536053 105.895596 
L 401.088947 99.18654 
L 389.641842 91.715681 
L 378.194737 83.307582 
L 366.747632 74.391242 
L 355.300526 64.712379 
L 343.853421 55.455284 
L 332.406316 47.488291 
L 320.959211 40.573394 
L 309.512105 35.408089 
L 298.065 33.80533 
z
" clip-path="url(#p4c94de667b)" style="fill: #9467bd; fill-opacity: 0.4"/>
   </g>
   <g id="PolyCollection_14">
    <path d="M 298.065 33.810746 
L 298.065 34.351528 
L 309.512105 36.66011 
L 320.959211 42.704657 
L 332.406316 52.03755 
L 343.853421 62.5164 
L 355.300526 73.345617 
L 366.747632 83.836687 
L 378.194737 92.984512 
L 389.641842 102.807507 
L 401.088947 111.876093 
L 412.536053 119.546705 
L 423.983158 126.301142 
L 435.430263 133.432092 
L 446.877368 138.493306 
L 458.324474 144.971319 
L 469.771579 149.968778 
L 481.218684 153.948636 
L 492.665789 156.527565 
L 504.112895 159.648559 
L 515.56 162.189907 
L 515.56 148.795878 
L 515.56 148.795878 
L 504.112895 145.842889 
L 492.665789 141.494128 
L 481.218684 138.516339 
L 469.771579 134.897286 
L 458.324474 128.849686 
L 446.877368 124.308351 
L 435.430263 119.612001 
L 423.983158 112.721605 
L 412.536053 105.817423 
L 401.088947 99.164984 
L 389.641842 91.720971 
L 378.194737 83.332956 
L 366.747632 74.436718 
L 355.300526 64.75599 
L 343.853421 55.500252 
L 332.406316 47.554414 
L 320.959211 40.594159 
L 309.512105 35.425283 
L 298.065 33.810746 
z
" clip-path="url(#p4c94de667b)" style="fill: #8c564b; fill-opacity: 0.4"/>
   </g>
   <g id="PolyCollection_15">
    <path d="M 298.065 44.789307 
L 298.065 48.141669 
L 309.512105 49.88629 
L 320.959211 55.144931 
L 332.406316 63.066284 
L 343.853421 72.553492 
L 355.300526 82.625479 
L 366.747632 92.564786 
L 378.194737 101.624145 
L 389.641842 110.78024 
L 401.088947 118.845497 
L 412.536053 125.588732 
L 423.983158 131.813475 
L 435.430263 138.565349 
L 446.877368 143.981974 
L 458.324474 148.939144 
L 469.771579 153.538567 
L 481.218684 156.560908 
L 492.665789 159.85025 
L 504.112895 162.13689 
L 515.56 164.680288 
L 515.56 149.981997 
L 515.56 149.981997 
L 504.112895 148.057596 
L 492.665789 144.088145 
L 481.218684 141.226175 
L 469.771579 137.62073 
L 458.324474 132.619889 
L 446.877368 128.462414 
L 435.430263 123.508223 
L 423.983158 118.344535 
L 412.536053 111.878093 
L 401.088947 106.091017 
L 389.641842 99.214749 
L 378.194737 91.993522 
L 366.747632 83.726651 
L 355.300526 74.831833 
L 343.853421 66.174784 
L 332.406316 58.63387 
L 320.959211 51.915518 
L 309.512105 46.439876 
L 298.065 44.789307 
z
" clip-path="url(#p4c94de667b)" style="fill: #e377c2; fill-opacity: 0.4"/>
   </g>
   <g id="PolyCollection_16">
    <path d="M 298.065 33.821293 
L 298.065 34.351432 
L 309.512105 36.674797 
L 320.959211 42.725397 
L 332.406316 51.966656 
L 343.853421 62.536196 
L 355.300526 73.257165 
L 366.747632 83.934925 
L 378.194737 93.411555 
L 389.641842 103.250752 
L 401.088947 112.041949 
L 412.536053 119.717761 
L 423.983158 126.650295 
L 435.430263 133.95631 
L 446.877368 139.684639 
L 458.324474 145.192386 
L 469.771579 150.674328 
L 481.218684 154.270871 
L 492.665789 158.074856 
L 504.112895 161.120391 
L 515.56 163.777165 
L 515.56 148.643027 
L 515.56 148.643027 
L 504.112895 146.079405 
L 492.665789 142.476321 
L 481.218684 138.866578 
L 469.771579 135.240242 
L 458.324474 129.802491 
L 446.877368 124.694768 
L 435.430263 119.109337 
L 423.983158 113.396445 
L 412.536053 106.444383 
L 401.088947 99.495724 
L 389.641842 91.986459 
L 378.194737 83.69955 
L 366.747632 74.536524 
L 355.300526 64.98736 
L 343.853421 55.633231 
L 332.406316 47.67073 
L 320.959211 40.659807 
L 309.512105 35.431119 
L 298.065 33.821293 
z
" clip-path="url(#p4c94de667b)" style="fill: #7f7f7f; fill-opacity: 0.4"/>
   </g>
   <g id="matplotlib.axis_3">
    <g id="xtick_6">
     <g id="line2d_18">
      <g>
       <use xlink:href="#ma8a1b1111a" x="298.065" y="174.04" style="stroke: #000000; stroke-width: 0.8"/>
      </g>
     </g>
     <g id="text_13">
      <!-- 0.0 -->
      <g transform="translate(290.113437 188.638438)scale(0.1 -0.1)">
       <use xlink:href="#DejaVuSans-30"/>
       <use xlink:href="#DejaVuSans-2e" x="63.623047"/>
       <use xlink:href="#DejaVuSans-30" x="95.410156"/>
      </g>
     </g>
    </g>
    <g id="xtick_7">
     <g id="line2d_19">
      <g>
       <use xlink:href="#ma8a1b1111a" x="352.43875" y="174.04" style="stroke: #000000; stroke-width: 0.8"/>
      </g>
     </g>
     <g id="text_14">
      <!-- 0.5 -->
      <g transform="translate(344.487187 188.638438)scale(0.1 -0.1)">
       <use xlink:href="#DejaVuSans-30"/>
       <use xlink:href="#DejaVuSans-2e" x="63.623047"/>
       <use xlink:href="#DejaVuSans-35" x="95.410156"/>
      </g>
     </g>
    </g>
    <g id="xtick_8">
     <g id="line2d_20">
      <g>
       <use xlink:href="#ma8a1b1111a" x="406.8125" y="174.04" style="stroke: #000000; stroke-width: 0.8"/>
      </g>
     </g>
     <g id="text_15">
      <!-- 1.0 -->
      <g transform="translate(398.860937 188.638438)scale(0.1 -0.1)">
       <use xlink:href="#DejaVuSans-31"/>
       <use xlink:href="#DejaVuSans-2e" x="63.623047"/>
       <use xlink:href="#DejaVuSans-30" x="95.410156"/>
      </g>
     </g>
    </g>
    <g id="xtick_9">
     <g id="line2d_21">
      <g>
       <use xlink:href="#ma8a1b1111a" x="461.18625" y="174.04" style="stroke: #000000; stroke-width: 0.8"/>
      </g>
     </g>
     <g id="text_16">
      <!-- 1.5 -->
      <g transform="translate(453.234687 188.638438)scale(0.1 -0.1)">
       <use xlink:href="#DejaVuSans-31"/>
       <use xlink:href="#DejaVuSans-2e" x="63.623047"/>
       <use xlink:href="#DejaVuSans-35" x="95.410156"/>
      </g>
     </g>
    </g>
    <g id="xtick_10">
     <g id="line2d_22">
      <g>
       <use xlink:href="#ma8a1b1111a" x="515.56" y="174.04" style="stroke: #000000; stroke-width: 0.8"/>
      </g>
     </g>
     <g id="text_17">
      <!-- 2.0 -->
      <g transform="translate(507.608437 188.638438)scale(0.1 -0.1)">
       <use xlink:href="#DejaVuSans-32"/>
       <use xlink:href="#DejaVuSans-2e" x="63.623047"/>
       <use xlink:href="#DejaVuSans-30" x="95.410156"/>
      </g>
     </g>
    </g>
    <g id="text_18">
     <!-- Influence of surprisal (multiplication) -->
     <g transform="translate(314.665625 202.316563)scale(0.1 -0.1)">
      <use xlink:href="#DejaVuSans-49"/>
      <use xlink:href="#DejaVuSans-6e" x="29.492188"/>
      <use xlink:href="#DejaVuSans-66" x="92.871094"/>
      <use xlink:href="#DejaVuSans-6c" x="128.076172"/>
      <use xlink:href="#DejaVuSans-75" x="155.859375"/>
      <use xlink:href="#DejaVuSans-65" x="219.238281"/>
      <use xlink:href="#DejaVuSans-6e" x="280.761719"/>
      <use xlink:href="#DejaVuSans-63" x="344.140625"/>
      <use xlink:href="#DejaVuSans-65" x="399.121094"/>
      <use xlink:href="#DejaVuSans-20" x="460.644531"/>
      <use xlink:href="#DejaVuSans-6f" x="492.431641"/>
      <use xlink:href="#DejaVuSans-66" x="553.613281"/>
      <use xlink:href="#DejaVuSans-20" x="588.818359"/>
      <use xlink:href="#DejaVuSans-73" x="620.605469"/>
      <use xlink:href="#DejaVuSans-75" x="672.705078"/>
      <use xlink:href="#DejaVuSans-72" x="736.083984"/>
      <use xlink:href="#DejaVuSans-70" x="777.197266"/>
      <use xlink:href="#DejaVuSans-72" x="840.673828"/>
      <use xlink:href="#DejaVuSans-69" x="881.787109"/>
      <use xlink:href="#DejaVuSans-73" x="909.570312"/>
      <use xlink:href="#DejaVuSans-61" x="961.669922"/>
      <use xlink:href="#DejaVuSans-6c" x="1022.949219"/>
      <use xlink:href="#DejaVuSans-20" x="1050.732422"/>
      <use xlink:href="#DejaVuSans-28" x="1082.519531"/>
      <use xlink:href="#DejaVuSans-6d" x="1121.533203"/>
      <use xlink:href="#DejaVuSans-75" x="1218.945312"/>
      <use xlink:href="#DejaVuSans-6c" x="1282.324219"/>
      <use xlink:href="#DejaVuSans-74" x="1310.107422"/>
      <use xlink:href="#DejaVuSans-69" x="1349.316406"/>
      <use xlink:href="#DejaVuSans-70" x="1377.099609"/>
      <use xlink:href="#DejaVuSans-6c" x="1440.576172"/>
      <use xlink:href="#DejaVuSans-69" x="1468.359375"/>
      <use xlink:href="#DejaVuSans-63" x="1496.142578"/>
      <use xlink:href="#DejaVuSans-61" x="1551.123047"/>
      <use xlink:href="#DejaVuSans-74" x="1612.402344"/>
      <use xlink:href="#DejaVuSans-69" x="1651.611328"/>
      <use xlink:href="#DejaVuSans-6f" x="1679.394531"/>
      <use xlink:href="#DejaVuSans-6e" x="1740.576172"/>
      <use xlink:href="#DejaVuSans-29" x="1803.955078"/>
     </g>
    </g>
   </g>
   <g id="line2d_23">
    <path d="M 298.065 34.066736 
L 309.512105 36.024447 
L 320.959211 41.61726 
L 332.406316 49.7203 
L 343.853421 58.877293 
L 355.300526 68.872298 
L 366.747632 78.914931 
L 378.194737 88.120157 
L 389.641842 97.036757 
L 401.088947 105.120361 
L 412.536053 112.355565 
L 423.983158 119.169903 
L 435.430263 125.669399 
L 446.877368 131.132025 
L 458.324474 136.345126 
L 469.771579 141.721895 
L 481.218684 145.298445 
L 492.665789 148.785851 
L 504.112895 152.076781 
L 515.56 154.498526 
" clip-path="url(#p4c94de667b)" style="fill: none; stroke: #1f77b4; stroke-width: 1.5; stroke-linecap: square"/>
   </g>
   <g id="line2d_24">
    <path d="M 298.065 34.070245 
L 309.512105 36.037762 
L 320.959211 41.644487 
L 332.406316 49.765935 
L 343.853421 58.9373 
L 355.300526 68.929039 
L 366.747632 79.002141 
L 378.194737 88.239752 
L 389.641842 97.175191 
L 401.088947 105.257954 
L 412.536053 112.482929 
L 423.983158 119.423035 
L 435.430263 125.916251 
L 446.877368 131.396141 
L 458.324474 136.682576 
L 469.771579 142.028167 
L 481.218684 145.65182 
L 492.665789 149.120814 
L 504.112895 152.509792 
L 515.56 154.930788 
" clip-path="url(#p4c94de667b)" style="fill: none; stroke: #ff7f0e; stroke-width: 1.5; stroke-linecap: square"/>
   </g>
   <g id="line2d_25">
    <path d="M 298.065 34.077555 
L 309.512105 36.030643 
L 320.959211 41.622852 
L 332.406316 49.735151 
L 343.853421 58.928244 
L 355.300526 68.951217 
L 366.747632 79.03177 
L 378.194737 88.318818 
L 389.641842 97.295257 
L 401.088947 105.441119 
L 412.536053 112.747216 
L 423.983158 119.610115 
L 435.430263 126.150771 
L 446.877368 131.55839 
L 458.324474 136.843462 
L 469.771579 142.257819 
L 481.218684 145.731849 
L 492.665789 149.217602 
L 504.112895 152.680263 
L 515.56 155.037417 
" clip-path="url(#p4c94de667b)" style="fill: none; stroke: #2ca02c; stroke-width: 1.5; stroke-linecap: square"/>
   </g>
   <g id="line2d_26">
    <path d="M 298.065 34.081636 
L 309.512105 36.050713 
L 320.959211 41.651825 
L 332.406316 49.792823 
L 343.853421 58.981445 
L 355.300526 68.997668 
L 366.747632 79.087567 
L 378.194737 88.385886 
L 389.641842 97.366465 
L 401.088947 105.483441 
L 412.536053 112.803107 
L 423.983158 119.719623 
L 435.430263 126.233564 
L 446.877368 131.644472 
L 458.324474 136.958836 
L 469.771579 142.372875 
L 481.218684 145.868509 
L 492.665789 149.32438 
L 504.112895 152.837195 
L 515.56 155.177591 
" clip-path="url(#p4c94de667b)" style="fill: none; stroke: #d62728; stroke-width: 1.5; stroke-linecap: square"/>
   </g>
   <g id="line2d_27">
    <path d="M 298.065 34.077174 
L 309.512105 36.02849 
L 320.959211 41.62302 
L 332.406316 49.749743 
L 343.853421 58.951485 
L 355.300526 68.990833 
L 366.747632 79.056728 
L 378.194737 88.036375 
L 389.641842 97.121954 
L 401.088947 105.392212 
L 412.536053 112.554951 
L 423.983158 119.265223 
L 435.430263 126.267545 
L 446.877368 131.165301 
L 458.324474 136.567087 
L 469.771579 142.134544 
L 481.218684 145.844887 
L 492.665789 148.711969 
L 504.112895 152.31318 
L 515.56 155.090937 
" clip-path="url(#p4c94de667b)" style="fill: none; stroke: #9467bd; stroke-width: 1.5; stroke-linecap: square"/>
   </g>
   <g id="line2d_28">
    <path d="M 298.065 34.081137 
L 309.512105 36.042696 
L 320.959211 41.649408 
L 332.406316 49.795982 
L 343.853421 59.008326 
L 355.300526 69.050803 
L 366.747632 79.136703 
L 378.194737 88.158734 
L 389.641842 97.264239 
L 401.088947 105.520539 
L 412.536053 112.682064 
L 423.983158 119.511374 
L 435.430263 126.522047 
L 446.877368 131.400829 
L 458.324474 136.910502 
L 469.771579 142.433032 
L 481.218684 146.232487 
L 492.665789 149.010846 
L 504.112895 152.745724 
L 515.56 155.492892 
" clip-path="url(#p4c94de667b)" style="fill: none; stroke: #8c564b; stroke-width: 1.5; stroke-linecap: square"/>
   </g>
   <g id="line2d_29">
    <path d="M 298.065 46.465488 
L 309.512105 48.163083 
L 320.959211 53.530224 
L 332.406316 60.850077 
L 343.853421 69.364138 
L 355.300526 78.728656 
L 366.747632 88.145718 
L 378.194737 96.808834 
L 389.641842 104.997494 
L 401.088947 112.468257 
L 412.536053 118.733412 
L 423.983158 125.079005 
L 435.430263 131.036786 
L 446.877368 136.222194 
L 458.324474 140.779516 
L 469.771579 145.579649 
L 481.218684 148.893542 
L 492.665789 151.969198 
L 504.112895 155.097243 
L 515.56 157.331143 
" clip-path="url(#p4c94de667b)" style="fill: none; stroke: #e377c2; stroke-width: 1.5; stroke-linecap: square"/>
   </g>
   <g id="line2d_30">
    <path d="M 298.065 34.086363 
L 309.512105 36.052958 
L 320.959211 41.692602 
L 332.406316 49.818693 
L 343.853421 59.084714 
L 355.300526 69.122263 
L 366.747632 79.235724 
L 378.194737 88.555553 
L 389.641842 97.618605 
L 401.088947 105.768836 
L 412.536053 113.081072 
L 423.983158 120.02337 
L 435.430263 126.532823 
L 446.877368 132.189704 
L 458.324474 137.497439 
L 469.771579 142.957285 
L 481.218684 146.568724 
L 492.665789 150.275588 
L 504.112895 153.599898 
L 515.56 156.210096 
" clip-path="url(#p4c94de667b)" style="fill: none; stroke: #7f7f7f; stroke-width: 1.5; stroke-linecap: square"/>
   </g>
   <g id="patch_6">
    <path d="M 298.065 174.04 
L 298.065 26.88 
" style="fill: none; stroke: #000000; stroke-width: 0.8; stroke-linejoin: miter; stroke-linecap: square"/>
   </g>
   <g id="patch_7">
    <path d="M 298.065 174.04 
L 515.56 174.04 
" style="fill: none; stroke: #000000; stroke-width: 0.8; stroke-linejoin: miter; stroke-linecap: square"/>
   </g>
   <g id="text_19">
    <!-- Node * third variable -->
    <g transform="translate(344.2325 20.88)scale(0.12 -0.12)">
     <defs>
      <path id="DejaVuSans-68" d="M 3513 2113 
L 3513 0 
L 2938 0 
L 2938 2094 
Q 2938 2591 2744 2837 
Q 2550 3084 2163 3084 
Q 1697 3084 1428 2787 
Q 1159 2491 1159 1978 
L 1159 0 
L 581 0 
L 581 4863 
L 1159 4863 
L 1159 2956 
Q 1366 3272 1645 3428 
Q 1925 3584 2291 3584 
Q 2894 3584 3203 3211 
Q 3513 2838 3513 2113 
z
" transform="scale(0.015625)"/>
      <path id="DejaVuSans-62" d="M 3116 1747 
Q 3116 2381 2855 2742 
Q 2594 3103 2138 3103 
Q 1681 3103 1420 2742 
Q 1159 2381 1159 1747 
Q 1159 1113 1420 752 
Q 1681 391 2138 391 
Q 2594 391 2855 752 
Q 3116 1113 3116 1747 
z
M 1159 2969 
Q 1341 3281 1617 3432 
Q 1894 3584 2278 3584 
Q 2916 3584 3314 3078 
Q 3713 2572 3713 1747 
Q 3713 922 3314 415 
Q 2916 -91 2278 -91 
Q 1894 -91 1617 61 
Q 1341 213 1159 525 
L 1159 0 
L 581 0 
L 581 4863 
L 1159 4863 
L 1159 2969 
z
" transform="scale(0.015625)"/>
     </defs>
     <use xlink:href="#DejaVuSans-4e"/>
     <use xlink:href="#DejaVuSans-6f" x="74.804688"/>
     <use xlink:href="#DejaVuSans-64" x="135.986328"/>
     <use xlink:href="#DejaVuSans-65" x="199.462891"/>
     <use xlink:href="#DejaVuSans-20" x="260.986328"/>
     <use xlink:href="#DejaVuSans-2a" x="292.773438"/>
     <use xlink:href="#DejaVuSans-20" x="342.773438"/>
     <use xlink:href="#DejaVuSans-74" x="374.560547"/>
     <use xlink:href="#DejaVuSans-68" x="413.769531"/>
     <use xlink:href="#DejaVuSans-69" x="477.148438"/>
     <use xlink:href="#DejaVuSans-72" x="504.931641"/>
     <use xlink:href="#DejaVuSans-64" x="544.294922"/>
     <use xlink:href="#DejaVuSans-20" x="607.771484"/>
     <use xlink:href="#DejaVuSans-76" x="639.558594"/>
     <use xlink:href="#DejaVuSans-61" x="698.738281"/>
     <use xlink:href="#DejaVuSans-72" x="760.017578"/>
     <use xlink:href="#DejaVuSans-69" x="801.130859"/>
     <use xlink:href="#DejaVuSans-61" x="828.914062"/>
     <use xlink:href="#DejaVuSans-62" x="890.193359"/>
     <use xlink:href="#DejaVuSans-6c" x="953.669922"/>
     <use xlink:href="#DejaVuSans-65" x="981.453125"/>
    </g>
   </g>
   <g id="legend_1">
    <g id="line2d_31">
     <path d="M 524.56 39.978437 
L 534.56 39.978437 
L 544.56 39.978437 
" style="fill: none; stroke: #1f77b4; stroke-width: 1.5; stroke-linecap: square"/>
    </g>
    <g id="text_20">
     <!-- Node -->
     <g transform="translate(552.56 43.478437)scale(0.1 -0.1)">
      <use xlink:href="#DejaVuSans-4e"/>
      <use xlink:href="#DejaVuSans-6f" x="74.804688"/>
      <use xlink:href="#DejaVuSans-64" x="135.986328"/>
      <use xlink:href="#DejaVuSans-65" x="199.462891"/>
     </g>
    </g>
    <g id="line2d_32">
     <path d="M 524.56 54.656563 
L 534.56 54.656563 
L 544.56 54.656563 
" style="fill: none; stroke: #ff7f0e; stroke-width: 1.5; stroke-linecap: square"/>
    </g>
    <g id="text_21">
     <!-- Node + surprisal -->
     <g transform="translate(552.56 58.156563)scale(0.1 -0.1)">
      <defs>
       <path id="DejaVuSans-2b" d="M 2944 4013 
L 2944 2272 
L 4684 2272 
L 4684 1741 
L 2944 1741 
L 2944 0 
L 2419 0 
L 2419 1741 
L 678 1741 
L 678 2272 
L 2419 2272 
L 2419 4013 
L 2944 4013 
z
" transform="scale(0.015625)"/>
      </defs>
      <use xlink:href="#DejaVuSans-4e"/>
      <use xlink:href="#DejaVuSans-6f" x="74.804688"/>
      <use xlink:href="#DejaVuSans-64" x="135.986328"/>
      <use xlink:href="#DejaVuSans-65" x="199.462891"/>
      <use xlink:href="#DejaVuSans-20" x="260.986328"/>
      <use xlink:href="#DejaVuSans-2b" x="292.773438"/>
      <use xlink:href="#DejaVuSans-20" x="376.5625"/>
      <use xlink:href="#DejaVuSans-73" x="408.349609"/>
      <use xlink:href="#DejaVuSans-75" x="460.449219"/>
      <use xlink:href="#DejaVuSans-72" x="523.828125"/>
      <use xlink:href="#DejaVuSans-70" x="564.941406"/>
      <use xlink:href="#DejaVuSans-72" x="628.417969"/>
      <use xlink:href="#DejaVuSans-69" x="669.53125"/>
      <use xlink:href="#DejaVuSans-73" x="697.314453"/>
      <use xlink:href="#DejaVuSans-61" x="749.414062"/>
      <use xlink:href="#DejaVuSans-6c" x="810.693359"/>
     </g>
    </g>
    <g id="line2d_33">
     <path d="M 524.56 69.334687 
L 534.56 69.334687 
L 544.56 69.334687 
" style="fill: none; stroke: #2ca02c; stroke-width: 1.5; stroke-linecap: square"/>
    </g>
    <g id="text_22">
     <!-- Node split -->
     <g transform="translate(552.56 72.834687)scale(0.1 -0.1)">
      <use xlink:href="#DejaVuSans-4e"/>
      <use xlink:href="#DejaVuSans-6f" x="74.804688"/>
      <use xlink:href="#DejaVuSans-64" x="135.986328"/>
      <use xlink:href="#DejaVuSans-65" x="199.462891"/>
      <use xlink:href="#DejaVuSans-20" x="260.986328"/>
      <use xlink:href="#DejaVuSans-73" x="292.773438"/>
      <use xlink:href="#DejaVuSans-70" x="344.873047"/>
      <use xlink:href="#DejaVuSans-6c" x="408.349609"/>
      <use xlink:href="#DejaVuSans-69" x="436.132812"/>
      <use xlink:href="#DejaVuSans-74" x="463.916016"/>
     </g>
    </g>
    <g id="line2d_34">
     <path d="M 524.56 84.012812 
L 534.56 84.012812 
L 544.56 84.012812 
" style="fill: none; stroke: #d62728; stroke-width: 1.5; stroke-linecap: square"/>
    </g>
    <g id="text_23">
     <!-- Node split + surprisal -->
     <g transform="translate(552.56 87.512812)scale(0.1 -0.1)">
      <use xlink:href="#DejaVuSans-4e"/>
      <use xlink:href="#DejaVuSans-6f" x="74.804688"/>
      <use xlink:href="#DejaVuSans-64" x="135.986328"/>
      <use xlink:href="#DejaVuSans-65" x="199.462891"/>
      <use xlink:href="#DejaVuSans-20" x="260.986328"/>
      <use xlink:href="#DejaVuSans-73" x="292.773438"/>
      <use xlink:href="#DejaVuSans-70" x="344.873047"/>
      <use xlink:href="#DejaVuSans-6c" x="408.349609"/>
      <use xlink:href="#DejaVuSans-69" x="436.132812"/>
      <use xlink:href="#DejaVuSans-74" x="463.916016"/>
      <use xlink:href="#DejaVuSans-20" x="503.125"/>
      <use xlink:href="#DejaVuSans-2b" x="534.912109"/>
      <use xlink:href="#DejaVuSans-20" x="618.701172"/>
      <use xlink:href="#DejaVuSans-73" x="650.488281"/>
      <use xlink:href="#DejaVuSans-75" x="702.587891"/>
      <use xlink:href="#DejaVuSans-72" x="765.966797"/>
      <use xlink:href="#DejaVuSans-70" x="807.080078"/>
      <use xlink:href="#DejaVuSans-72" x="870.556641"/>
      <use xlink:href="#DejaVuSans-69" x="911.669922"/>
      <use xlink:href="#DejaVuSans-73" x="939.453125"/>
      <use xlink:href="#DejaVuSans-61" x="991.552734"/>
      <use xlink:href="#DejaVuSans-6c" x="1052.832031"/>
     </g>
    </g>
    <g id="line2d_35">
     <path d="M 524.56 98.690937 
L 534.56 98.690937 
L 544.56 98.690937 
" style="fill: none; stroke: #9467bd; stroke-width: 1.5; stroke-linecap: square"/>
    </g>
    <g id="text_24">
     <!-- Node random split -->
     <g transform="translate(552.56 102.190937)scale(0.1 -0.1)">
      <use xlink:href="#DejaVuSans-4e"/>
      <use xlink:href="#DejaVuSans-6f" x="74.804688"/>
      <use xlink:href="#DejaVuSans-64" x="135.986328"/>
      <use xlink:href="#DejaVuSans-65" x="199.462891"/>
      <use xlink:href="#DejaVuSans-20" x="260.986328"/>
      <use xlink:href="#DejaVuSans-72" x="292.773438"/>
      <use xlink:href="#DejaVuSans-61" x="333.886719"/>
      <use xlink:href="#DejaVuSans-6e" x="395.166016"/>
      <use xlink:href="#DejaVuSans-64" x="458.544922"/>
      <use xlink:href="#DejaVuSans-6f" x="522.021484"/>
      <use xlink:href="#DejaVuSans-6d" x="583.203125"/>
      <use xlink:href="#DejaVuSans-20" x="680.615234"/>
      <use xlink:href="#DejaVuSans-73" x="712.402344"/>
      <use xlink:href="#DejaVuSans-70" x="764.501953"/>
      <use xlink:href="#DejaVuSans-6c" x="827.978516"/>
      <use xlink:href="#DejaVuSans-69" x="855.761719"/>
      <use xlink:href="#DejaVuSans-74" x="883.544922"/>
     </g>
    </g>
    <g id="line2d_36">
     <path d="M 524.56 113.369062 
L 534.56 113.369062 
L 544.56 113.369062 
" style="fill: none; stroke: #8c564b; stroke-width: 1.5; stroke-linecap: square"/>
    </g>
    <g id="text_25">
     <!-- Node random split + surprisal -->
     <g transform="translate(552.56 116.869062)scale(0.1 -0.1)">
      <use xlink:href="#DejaVuSans-4e"/>
      <use xlink:href="#DejaVuSans-6f" x="74.804688"/>
      <use xlink:href="#DejaVuSans-64" x="135.986328"/>
      <use xlink:href="#DejaVuSans-65" x="199.462891"/>
      <use xlink:href="#DejaVuSans-20" x="260.986328"/>
      <use xlink:href="#DejaVuSans-72" x="292.773438"/>
      <use xlink:href="#DejaVuSans-61" x="333.886719"/>
      <use xlink:href="#DejaVuSans-6e" x="395.166016"/>
      <use xlink:href="#DejaVuSans-64" x="458.544922"/>
      <use xlink:href="#DejaVuSans-6f" x="522.021484"/>
      <use xlink:href="#DejaVuSans-6d" x="583.203125"/>
      <use xlink:href="#DejaVuSans-20" x="680.615234"/>
      <use xlink:href="#DejaVuSans-73" x="712.402344"/>
      <use xlink:href="#DejaVuSans-70" x="764.501953"/>
      <use xlink:href="#DejaVuSans-6c" x="827.978516"/>
      <use xlink:href="#DejaVuSans-69" x="855.761719"/>
      <use xlink:href="#DejaVuSans-74" x="883.544922"/>
      <use xlink:href="#DejaVuSans-20" x="922.753906"/>
      <use xlink:href="#DejaVuSans-2b" x="954.541016"/>
      <use xlink:href="#DejaVuSans-20" x="1038.330078"/>
      <use xlink:href="#DejaVuSans-73" x="1070.117188"/>
      <use xlink:href="#DejaVuSans-75" x="1122.216797"/>
      <use xlink:href="#DejaVuSans-72" x="1185.595703"/>
      <use xlink:href="#DejaVuSans-70" x="1226.708984"/>
      <use xlink:href="#DejaVuSans-72" x="1290.185547"/>
      <use xlink:href="#DejaVuSans-69" x="1331.298828"/>
      <use xlink:href="#DejaVuSans-73" x="1359.082031"/>
      <use xlink:href="#DejaVuSans-61" x="1411.181641"/>
      <use xlink:href="#DejaVuSans-6c" x="1472.460938"/>
     </g>
    </g>
    <g id="line2d_37">
     <path d="M 524.56 128.047187 
L 534.56 128.047187 
L 544.56 128.047187 
" style="fill: none; stroke: #e377c2; stroke-width: 1.5; stroke-linecap: square"/>
    </g>
    <g id="text_26">
     <!-- Interaction -->
     <g transform="translate(552.56 131.547187)scale(0.1 -0.1)">
      <use xlink:href="#DejaVuSans-49"/>
      <use xlink:href="#DejaVuSans-6e" x="29.492188"/>
      <use xlink:href="#DejaVuSans-74" x="92.871094"/>
      <use xlink:href="#DejaVuSans-65" x="132.080078"/>
      <use xlink:href="#DejaVuSans-72" x="193.603516"/>
      <use xlink:href="#DejaVuSans-61" x="234.716797"/>
      <use xlink:href="#DejaVuSans-63" x="295.996094"/>
      <use xlink:href="#DejaVuSans-74" x="350.976562"/>
      <use xlink:href="#DejaVuSans-69" x="390.185547"/>
      <use xlink:href="#DejaVuSans-6f" x="417.96875"/>
      <use xlink:href="#DejaVuSans-6e" x="479.150391"/>
     </g>
    </g>
    <g id="line2d_38">
     <path d="M 524.56 142.725312 
L 534.56 142.725312 
L 544.56 142.725312 
" style="fill: none; stroke: #7f7f7f; stroke-width: 1.5; stroke-linecap: square"/>
    </g>
    <g id="text_27">
     <!-- Node + surprisal + interaction -->
     <g transform="translate(552.56 146.225312)scale(0.1 -0.1)">
      <use xlink:href="#DejaVuSans-4e"/>
      <use xlink:href="#DejaVuSans-6f" x="74.804688"/>
      <use xlink:href="#DejaVuSans-64" x="135.986328"/>
      <use xlink:href="#DejaVuSans-65" x="199.462891"/>
      <use xlink:href="#DejaVuSans-20" x="260.986328"/>
      <use xlink:href="#DejaVuSans-2b" x="292.773438"/>
      <use xlink:href="#DejaVuSans-20" x="376.5625"/>
      <use xlink:href="#DejaVuSans-73" x="408.349609"/>
      <use xlink:href="#DejaVuSans-75" x="460.449219"/>
      <use xlink:href="#DejaVuSans-72" x="523.828125"/>
      <use xlink:href="#DejaVuSans-70" x="564.941406"/>
      <use xlink:href="#DejaVuSans-72" x="628.417969"/>
      <use xlink:href="#DejaVuSans-69" x="669.53125"/>
      <use xlink:href="#DejaVuSans-73" x="697.314453"/>
      <use xlink:href="#DejaVuSans-61" x="749.414062"/>
      <use xlink:href="#DejaVuSans-6c" x="810.693359"/>
      <use xlink:href="#DejaVuSans-20" x="838.476562"/>
      <use xlink:href="#DejaVuSans-2b" x="870.263672"/>
      <use xlink:href="#DejaVuSans-20" x="954.052734"/>
      <use xlink:href="#DejaVuSans-69" x="985.839844"/>
      <use xlink:href="#DejaVuSans-6e" x="1013.623047"/>
      <use xlink:href="#DejaVuSans-74" x="1077.001953"/>
      <use xlink:href="#DejaVuSans-65" x="1116.210938"/>
      <use xlink:href="#DejaVuSans-72" x="1177.734375"/>
      <use xlink:href="#DejaVuSans-61" x="1218.847656"/>
      <use xlink:href="#DejaVuSans-63" x="1280.126953"/>
      <use xlink:href="#DejaVuSans-74" x="1335.107422"/>
      <use xlink:href="#DejaVuSans-69" x="1374.316406"/>
      <use xlink:href="#DejaVuSans-6f" x="1402.099609"/>
      <use xlink:href="#DejaVuSans-6e" x="1463.28125"/>
     </g>
    </g>
   </g>
  </g>
 </g>
 <defs>
  <clipPath id="p2d09dd4213">
   <rect x="47.72" y="26.88" width="217.495" height="147.16"/>
  </clipPath>
  <clipPath id="p4c94de667b">
   <rect x="298.065" y="26.88" width="217.495" height="147.16"/>
  </clipPath>
 </defs>
</svg>
