<?xml version="1.0" encoding="utf-8" standalone="no"?>
<!DOCTYPE svg PUBLIC "-//W3C//DTD SVG 1.1//EN"
  "http://www.w3.org/Graphics/SVG/1.1/DTD/svg11.dtd">
<svg xmlns:xlink="http://www.w3.org/1999/xlink" width="720pt" height="216pt" viewBox="0 0 720 216" xmlns="http://www.w3.org/2000/svg" version="1.1">
 <metadata>
  <rdf:RDF xmlns:dc="http://purl.org/dc/elements/1.1/" xmlns:cc="http://creativecommons.org/ns#" xmlns:rdf="http://www.w3.org/1999/02/22-rdf-syntax-ns#">
   <cc:Work>
    <dc:type rdf:resource="http://purl.org/dc/dcmitype/StillImage"/>
    <dc:date>2024-01-15T22:57:43.247287</dc:date>
    <dc:format>image/svg+xml</dc:format>
    <dc:creator>
     <cc:Agent>
      <dc:title>Matplotlib v3.5.1, https://matplotlib.org/</dc:title>
     </cc:Agent>
    </dc:creator>
   </cc:Work>
  </rdf:RDF>
 </metadata>
 <defs>
  <style type="text/css">*{stroke-linejoin: round; stroke-linecap: butt}</style>
 </defs>
 <g id="figure_1">
  <g id="patch_1">
   <path d="M 0 216 
L 720 216 
L 720 0 
L 0 0 
z
" style="fill: #ffffff"/>
  </g>
  <g id="axes_1">
   <g id="patch_2">
    <path d="M 47.72 174.04 
L 265.215 174.04 
L 265.215 26.88 
L 47.72 26.88 
z
" style="fill: #ffffff"/>
   </g>
   <g id="PolyCollection_1">
    <path d="M 47.72 33.569091 
L 47.72 34.259656 
L 59.167105 36.349634 
L 70.614211 43.041257 
L 82.061316 51.295023 
L 93.508421 60.84235 
L 104.955526 70.774635 
L 116.402632 82.218036 
L 127.849737 91.553592 
L 139.296842 101.827322 
L 150.743947 110.891059 
L 162.191053 120.266364 
L 173.638158 126.808913 
L 185.085263 133.910202 
L 196.532368 139.329577 
L 207.979474 143.888267 
L 219.426579 147.131626 
L 230.873684 150.906141 
L 242.320789 154.352303 
L 253.767895 157.03285 
L 265.215 158.84096 
L 265.215 144.949876 
L 265.215 144.949876 
L 253.767895 142.253773 
L 242.320789 138.1031 
L 230.873684 134.656297 
L 219.426579 130.396078 
L 207.979474 126.538584 
L 196.532368 121.873588 
L 185.085263 116.326607 
L 173.638158 111.99236 
L 162.191053 106.373205 
L 150.743947 99.609625 
L 139.296842 92.10343 
L 127.849737 83.785508 
L 116.402632 74.446982 
L 104.955526 64.353095 
L 93.508421 54.734204 
L 82.061316 46.286929 
L 70.614211 40.164098 
L 59.167105 35.401972 
L 47.72 33.569091 
z
" clip-path="url(#pf434b88db1)" style="fill: #1f77b4; fill-opacity: 0.4"/>
   </g>
   <g id="PolyCollection_2">
    <path d="M 47.72 33.575423 
L 47.72 34.269278 
L 59.167105 35.68586 
L 70.614211 39.477425 
L 82.061316 45.027558 
L 93.508421 52.232042 
L 104.955526 60.233596 
L 116.402632 69.658317 
L 127.849737 77.804327 
L 139.296842 87.15263 
L 150.743947 95.330618 
L 162.191053 105.284694 
L 173.638158 112.589901 
L 185.085263 120.416162 
L 196.532368 126.61757 
L 207.979474 132.150321 
L 219.426579 136.524754 
L 230.873684 141.05356 
L 242.320789 145.376167 
L 253.767895 148.767391 
L 265.215 151.198874 
L 265.215 135.972509 
L 265.215 135.972509 
L 253.767895 132.966164 
L 242.320789 128.500042 
L 230.873684 124.497308 
L 219.426579 120.310433 
L 207.979474 115.71302 
L 196.532368 110.502157 
L 185.085263 104.226623 
L 173.638158 99.054289 
L 162.191053 92.450738 
L 150.743947 85.268168 
L 139.296842 77.014315 
L 127.849737 69.035888 
L 116.402632 61.166062 
L 104.955526 53.57068 
L 93.508421 46.997192 
L 82.061316 41.322527 
L 70.614211 37.788754 
L 59.167105 34.840039 
L 47.72 33.575423 
z
" clip-path="url(#pf434b88db1)" style="fill: #ff7f0e; fill-opacity: 0.4"/>
   </g>
   <g id="PolyCollection_3">
    <path d="M 47.72 33.577264 
L 47.72 34.278233 
L 59.167105 35.847495 
L 70.614211 39.23418 
L 82.061316 43.223339 
L 93.508421 47.587347 
L 104.955526 52.325617 
L 116.402632 57.785614 
L 127.849737 62.256744 
L 139.296842 67.444366 
L 150.743947 72.521176 
L 162.191053 76.989877 
L 173.638158 82.829636 
L 185.085263 87.340846 
L 196.532368 91.879269 
L 207.979474 96.467571 
L 219.426579 101.08526 
L 230.873684 105.288525 
L 242.320789 108.767481 
L 253.767895 113.291945 
L 265.215 116.575104 
L 265.215 102.396181 
L 265.215 102.396181 
L 253.767895 98.877653 
L 242.320789 96.266129 
L 230.873684 92.361124 
L 219.426579 89.522231 
L 207.979474 86.068432 
L 196.532368 83.370617 
L 185.085263 78.725761 
L 173.638158 75.278224 
L 162.191053 70.696527 
L 150.743947 66.249981 
L 139.296842 61.106096 
L 127.849737 55.850773 
L 116.402632 51.238085 
L 104.955526 47.044498 
L 93.508421 42.68023 
L 82.061316 39.033609 
L 70.614211 37.131208 
L 59.167105 35.044794 
L 47.72 33.577264 
z
" clip-path="url(#pf434b88db1)" style="fill: #2ca02c; fill-opacity: 0.4"/>
   </g>
   <g id="PolyCollection_4">
    <path d="M 47.72 33.579576 
L 47.72 34.284728 
L 59.167105 35.584537 
L 70.614211 38.123144 
L 82.061316 41.469132 
L 93.508421 45.497623 
L 104.955526 50.089245 
L 116.402632 55.562293 
L 127.849737 60.066589 
L 139.296842 65.249137 
L 150.743947 70.478096 
L 162.191053 75.470964 
L 173.638158 81.503417 
L 185.085263 86.147532 
L 196.532368 90.7623 
L 207.979474 95.336644 
L 219.426579 99.721577 
L 230.873684 103.787937 
L 242.320789 106.886304 
L 253.767895 111.167304 
L 265.215 114.04122 
L 265.215 100.443118 
L 265.215 100.443118 
L 253.767895 96.965729 
L 242.320789 94.724221 
L 230.873684 90.895015 
L 219.426579 88.079365 
L 207.979474 84.585432 
L 196.532368 81.853796 
L 185.085263 77.131083 
L 173.638158 73.801418 
L 162.191053 69.01482 
L 150.743947 64.717547 
L 139.296842 59.535238 
L 127.849737 54.185421 
L 116.402632 49.524047 
L 104.955526 45.483623 
L 93.508421 41.410487 
L 82.061316 38.218592 
L 70.614211 36.614413 
L 59.167105 34.779997 
L 47.72 33.579576 
z
" clip-path="url(#pf434b88db1)" style="fill: #d62728; fill-opacity: 0.4"/>
   </g>
   <g id="PolyCollection_5">
    <path d="M 47.72 33.577745 
L 47.72 34.276028 
L 59.167105 36.365207 
L 70.614211 43.066161 
L 82.061316 51.392786 
L 93.508421 60.899879 
L 104.955526 70.916913 
L 116.402632 82.254285 
L 127.849737 91.765632 
L 139.296842 102.151245 
L 150.743947 111.165559 
L 162.191053 120.365067 
L 173.638158 126.644822 
L 185.085263 134.458393 
L 196.532368 139.68614 
L 207.979474 144.519581 
L 219.426579 147.500258 
L 230.873684 151.693882 
L 242.320789 154.462305 
L 253.767895 157.675551 
L 265.215 158.874846 
L 265.215 145.682188 
L 265.215 145.682188 
L 253.767895 142.856912 
L 242.320789 138.354998 
L 230.873684 135.528657 
L 219.426579 130.307326 
L 207.979474 127.004867 
L 196.532368 122.183045 
L 185.085263 116.614785 
L 173.638158 111.674344 
L 162.191053 106.130608 
L 150.743947 99.872085 
L 139.296842 92.225623 
L 127.849737 83.986936 
L 116.402632 74.494055 
L 104.955526 64.399724 
L 93.508421 54.702582 
L 82.061316 46.326846 
L 70.614211 40.213721 
L 59.167105 35.419776 
L 47.72 33.577745 
z
" clip-path="url(#pf434b88db1)" style="fill: #9467bd; fill-opacity: 0.4"/>
   </g>
   <g id="PolyCollection_6">
    <path d="M 47.72 33.584649 
L 47.72 34.285344 
L 59.167105 35.699965 
L 70.614211 39.49543 
L 82.061316 45.103055 
L 93.508421 52.260684 
L 104.955526 60.328689 
L 116.402632 69.663535 
L 127.849737 77.818096 
L 139.296842 87.334042 
L 150.743947 95.72239 
L 162.191053 105.34642 
L 173.638158 112.459901 
L 185.085263 120.769987 
L 196.532368 126.791305 
L 207.979474 132.64963 
L 219.426579 136.826383 
L 230.873684 141.53406 
L 242.320789 145.534549 
L 253.767895 149.272807 
L 265.215 151.256744 
L 265.215 136.545846 
L 265.215 136.545846 
L 253.767895 133.579025 
L 242.320789 128.6633 
L 230.873684 125.234804 
L 219.426579 120.201198 
L 207.979474 116.009513 
L 196.532368 110.60437 
L 185.085263 104.452224 
L 173.638158 98.81656 
L 162.191053 92.455423 
L 150.743947 85.330028 
L 139.296842 77.243031 
L 127.849737 69.222959 
L 116.402632 61.235407 
L 104.955526 53.679735 
L 93.508421 46.992043 
L 82.061316 41.330918 
L 70.614211 37.811251 
L 59.167105 34.857621 
L 47.72 33.584649 
z
" clip-path="url(#pf434b88db1)" style="fill: #8c564b; fill-opacity: 0.4"/>
   </g>
   <g id="PolyCollection_7">
    <path d="M 47.72 43.75379 
L 47.72 47.447197 
L 59.167105 50.777443 
L 70.614211 59.532267 
L 82.061316 69.870239 
L 93.508421 80.652391 
L 104.955526 91.102651 
L 116.402632 101.875923 
L 127.849737 110.88527 
L 139.296842 119.652599 
L 150.743947 127.85283 
L 162.191053 135.734729 
L 173.638158 141.738291 
L 185.085263 147.397363 
L 196.532368 151.660528 
L 207.979474 156.033238 
L 219.426579 158.070463 
L 230.873684 161.028296 
L 242.320789 163.414869 
L 253.767895 165.901247 
L 265.215 167.350909 
L 265.215 153.022794 
L 265.215 153.022794 
L 253.767895 150.95665 
L 242.320789 148.20299 
L 230.873684 145.820515 
L 219.426579 142.75541 
L 207.979474 140.527091 
L 196.532368 137.153763 
L 185.085263 133.296038 
L 173.638158 129.996874 
L 162.191053 124.502377 
L 150.743947 117.842985 
L 139.296842 108.720483 
L 127.849737 98.777121 
L 116.402632 88.100697 
L 104.955526 76.333544 
L 93.508421 65.851997 
L 82.061316 56.014031 
L 70.614211 49.688396 
L 59.167105 45.433615 
L 47.72 43.75379 
z
" clip-path="url(#pf434b88db1)" style="fill: #e377c2; fill-opacity: 0.4"/>
   </g>
   <g id="PolyCollection_8">
    <path d="M 47.72 33.585237 
L 47.72 34.286032 
L 59.167105 34.998334 
L 70.614211 35.937544 
L 82.061316 39.597697 
L 93.508421 45.671931 
L 104.955526 52.504348 
L 116.402632 60.335089 
L 127.849737 66.674779 
L 139.296842 74.873514 
L 150.743947 83.258355 
L 162.191053 92.135462 
L 173.638158 100.374997 
L 185.085263 107.790252 
L 196.532368 115.220551 
L 207.979474 121.209708 
L 219.426579 126.807534 
L 230.873684 131.921084 
L 242.320789 136.551183 
L 253.767895 141.113883 
L 265.215 144.318745 
L 265.215 129.192597 
L 265.215 129.192597 
L 253.767895 125.594601 
L 242.320789 121.551182 
L 230.873684 116.994883 
L 219.426579 112.151363 
L 207.979474 107.264563 
L 196.532368 101.526615 
L 185.085263 93.955903 
L 173.638158 86.832121 
L 162.191053 78.605449 
L 150.743947 69.931807 
L 139.296842 61.170068 
L 127.849737 52.428484 
L 116.402632 45.261903 
L 104.955526 39.788675 
L 93.508421 36.61706 
L 82.061316 34.959826 
L 70.614211 34.73602 
L 59.167105 34.169922 
L 47.72 33.585237 
z
" clip-path="url(#pf434b88db1)" style="fill: #7f7f7f; fill-opacity: 0.4"/>
   </g>
   <g id="matplotlib.axis_1">
    <g id="xtick_1">
     <g id="line2d_1">
      <defs>
       <path id="m734d484ff4" d="M 0 0 
L 0 3.5 
" style="stroke: #000000; stroke-width: 0.8"/>
      </defs>
      <g>
       <use xlink:href="#m734d484ff4" x="47.72" y="174.04" style="stroke: #000000; stroke-width: 0.8"/>
      </g>
     </g>
     <g id="text_1">
      <!-- 0.0 -->
      <g transform="translate(39.768438 188.638438)scale(0.1 -0.1)">
       <defs>
        <path id="DejaVuSans-30" d="M 2034 4250 
Q 1547 4250 1301 3770 
Q 1056 3291 1056 2328 
Q 1056 1369 1301 889 
Q 1547 409 2034 409 
Q 2525 409 2770 889 
Q 3016 1369 3016 2328 
Q 3016 3291 2770 3770 
Q 2525 4250 2034 4250 
z
M 2034 4750 
Q 2819 4750 3233 4129 
Q 3647 3509 3647 2328 
Q 3647 1150 3233 529 
Q 2819 -91 2034 -91 
Q 1250 -91 836 529 
Q 422 1150 422 2328 
Q 422 3509 836 4129 
Q 1250 4750 2034 4750 
z
" transform="scale(0.015625)"/>
        <path id="DejaVuSans-2e" d="M 684 794 
L 1344 794 
L 1344 0 
L 684 0 
L 684 794 
z
" transform="scale(0.015625)"/>
       </defs>
       <use xlink:href="#DejaVuSans-30"/>
       <use xlink:href="#DejaVuSans-2e" x="63.623047"/>
       <use xlink:href="#DejaVuSans-30" x="95.410156"/>
      </g>
     </g>
    </g>
    <g id="xtick_2">
     <g id="line2d_2">
      <g>
       <use xlink:href="#m734d484ff4" x="102.09375" y="174.04" style="stroke: #000000; stroke-width: 0.8"/>
      </g>
     </g>
     <g id="text_2">
      <!-- 0.5 -->
      <g transform="translate(94.142188 188.638438)scale(0.1 -0.1)">
       <defs>
        <path id="DejaVuSans-35" d="M 691 4666 
L 3169 4666 
L 3169 4134 
L 1269 4134 
L 1269 2991 
Q 1406 3038 1543 3061 
Q 1681 3084 1819 3084 
Q 2600 3084 3056 2656 
Q 3513 2228 3513 1497 
Q 3513 744 3044 326 
Q 2575 -91 1722 -91 
Q 1428 -91 1123 -41 
Q 819 9 494 109 
L 494 744 
Q 775 591 1075 516 
Q 1375 441 1709 441 
Q 2250 441 2565 725 
Q 2881 1009 2881 1497 
Q 2881 1984 2565 2268 
Q 2250 2553 1709 2553 
Q 1456 2553 1204 2497 
Q 953 2441 691 2322 
L 691 4666 
z
" transform="scale(0.015625)"/>
       </defs>
       <use xlink:href="#DejaVuSans-30"/>
       <use xlink:href="#DejaVuSans-2e" x="63.623047"/>
       <use xlink:href="#DejaVuSans-35" x="95.410156"/>
      </g>
     </g>
    </g>
    <g id="xtick_3">
     <g id="line2d_3">
      <g>
       <use xlink:href="#m734d484ff4" x="156.4675" y="174.04" style="stroke: #000000; stroke-width: 0.8"/>
      </g>
     </g>
     <g id="text_3">
      <!-- 1.0 -->
      <g transform="translate(148.515938 188.638438)scale(0.1 -0.1)">
       <defs>
        <path id="DejaVuSans-31" d="M 794 531 
L 1825 531 
L 1825 4091 
L 703 3866 
L 703 4441 
L 1819 4666 
L 2450 4666 
L 2450 531 
L 3481 531 
L 3481 0 
L 794 0 
L 794 531 
z
" transform="scale(0.015625)"/>
       </defs>
       <use xlink:href="#DejaVuSans-31"/>
       <use xlink:href="#DejaVuSans-2e" x="63.623047"/>
       <use xlink:href="#DejaVuSans-30" x="95.410156"/>
      </g>
     </g>
    </g>
    <g id="xtick_4">
     <g id="line2d_4">
      <g>
       <use xlink:href="#m734d484ff4" x="210.84125" y="174.04" style="stroke: #000000; stroke-width: 0.8"/>
      </g>
     </g>
     <g id="text_4">
      <!-- 1.5 -->
      <g transform="translate(202.889687 188.638438)scale(0.1 -0.1)">
       <use xlink:href="#DejaVuSans-31"/>
       <use xlink:href="#DejaVuSans-2e" x="63.623047"/>
       <use xlink:href="#DejaVuSans-35" x="95.410156"/>
      </g>
     </g>
    </g>
    <g id="xtick_5">
     <g id="line2d_5">
      <g>
       <use xlink:href="#m734d484ff4" x="265.215" y="174.04" style="stroke: #000000; stroke-width: 0.8"/>
      </g>
     </g>
     <g id="text_5">
      <!-- 2.0 -->
      <g transform="translate(257.263437 188.638438)scale(0.1 -0.1)">
       <defs>
        <path id="DejaVuSans-32" d="M 1228 531 
L 3431 531 
L 3431 0 
L 469 0 
L 469 531 
Q 828 903 1448 1529 
Q 2069 2156 2228 2338 
Q 2531 2678 2651 2914 
Q 2772 3150 2772 3378 
Q 2772 3750 2511 3984 
Q 2250 4219 1831 4219 
Q 1534 4219 1204 4116 
Q 875 4013 500 3803 
L 500 4441 
Q 881 4594 1212 4672 
Q 1544 4750 1819 4750 
Q 2544 4750 2975 4387 
Q 3406 4025 3406 3419 
Q 3406 3131 3298 2873 
Q 3191 2616 2906 2266 
Q 2828 2175 2409 1742 
Q 1991 1309 1228 531 
z
" transform="scale(0.015625)"/>
       </defs>
       <use xlink:href="#DejaVuSans-32"/>
       <use xlink:href="#DejaVuSans-2e" x="63.623047"/>
       <use xlink:href="#DejaVuSans-30" x="95.410156"/>
      </g>
     </g>
    </g>
    <g id="text_6">
     <!-- Influence of surprisal (multiplication) -->
     <g transform="translate(64.320625 202.316563)scale(0.1 -0.1)">
      <defs>
       <path id="DejaVuSans-49" d="M 628 4666 
L 1259 4666 
L 1259 0 
L 628 0 
L 628 4666 
z
" transform="scale(0.015625)"/>
       <path id="DejaVuSans-6e" d="M 3513 2113 
L 3513 0 
L 2938 0 
L 2938 2094 
Q 2938 2591 2744 2837 
Q 2550 3084 2163 3084 
Q 1697 3084 1428 2787 
Q 1159 2491 1159 1978 
L 1159 0 
L 581 0 
L 581 3500 
L 1159 3500 
L 1159 2956 
Q 1366 3272 1645 3428 
Q 1925 3584 2291 3584 
Q 2894 3584 3203 3211 
Q 3513 2838 3513 2113 
z
" transform="scale(0.015625)"/>
       <path id="DejaVuSans-66" d="M 2375 4863 
L 2375 4384 
L 1825 4384 
Q 1516 4384 1395 4259 
Q 1275 4134 1275 3809 
L 1275 3500 
L 2222 3500 
L 2222 3053 
L 1275 3053 
L 1275 0 
L 697 0 
L 697 3053 
L 147 3053 
L 147 3500 
L 697 3500 
L 697 3744 
Q 697 4328 969 4595 
Q 1241 4863 1831 4863 
L 2375 4863 
z
" transform="scale(0.015625)"/>
       <path id="DejaVuSans-6c" d="M 603 4863 
L 1178 4863 
L 1178 0 
L 603 0 
L 603 4863 
z
" transform="scale(0.015625)"/>
       <path id="DejaVuSans-75" d="M 544 1381 
L 544 3500 
L 1119 3500 
L 1119 1403 
Q 1119 906 1312 657 
Q 1506 409 1894 409 
Q 2359 409 2629 706 
Q 2900 1003 2900 1516 
L 2900 3500 
L 3475 3500 
L 3475 0 
L 2900 0 
L 2900 538 
Q 2691 219 2414 64 
Q 2138 -91 1772 -91 
Q 1169 -91 856 284 
Q 544 659 544 1381 
z
M 1991 3584 
L 1991 3584 
z
" transform="scale(0.015625)"/>
       <path id="DejaVuSans-65" d="M 3597 1894 
L 3597 1613 
L 953 1613 
Q 991 1019 1311 708 
Q 1631 397 2203 397 
Q 2534 397 2845 478 
Q 3156 559 3463 722 
L 3463 178 
Q 3153 47 2828 -22 
Q 2503 -91 2169 -91 
Q 1331 -91 842 396 
Q 353 884 353 1716 
Q 353 2575 817 3079 
Q 1281 3584 2069 3584 
Q 2775 3584 3186 3129 
Q 3597 2675 3597 1894 
z
M 3022 2063 
Q 3016 2534 2758 2815 
Q 2500 3097 2075 3097 
Q 1594 3097 1305 2825 
Q 1016 2553 972 2059 
L 3022 2063 
z
" transform="scale(0.015625)"/>
       <path id="DejaVuSans-63" d="M 3122 3366 
L 3122 2828 
Q 2878 2963 2633 3030 
Q 2388 3097 2138 3097 
Q 1578 3097 1268 2742 
Q 959 2388 959 1747 
Q 959 1106 1268 751 
Q 1578 397 2138 397 
Q 2388 397 2633 464 
Q 2878 531 3122 666 
L 3122 134 
Q 2881 22 2623 -34 
Q 2366 -91 2075 -91 
Q 1284 -91 818 406 
Q 353 903 353 1747 
Q 353 2603 823 3093 
Q 1294 3584 2113 3584 
Q 2378 3584 2631 3529 
Q 2884 3475 3122 3366 
z
" transform="scale(0.015625)"/>
       <path id="DejaVuSans-20" transform="scale(0.015625)"/>
       <path id="DejaVuSans-6f" d="M 1959 3097 
Q 1497 3097 1228 2736 
Q 959 2375 959 1747 
Q 959 1119 1226 758 
Q 1494 397 1959 397 
Q 2419 397 2687 759 
Q 2956 1122 2956 1747 
Q 2956 2369 2687 2733 
Q 2419 3097 1959 3097 
z
M 1959 3584 
Q 2709 3584 3137 3096 
Q 3566 2609 3566 1747 
Q 3566 888 3137 398 
Q 2709 -91 1959 -91 
Q 1206 -91 779 398 
Q 353 888 353 1747 
Q 353 2609 779 3096 
Q 1206 3584 1959 3584 
z
" transform="scale(0.015625)"/>
       <path id="DejaVuSans-73" d="M 2834 3397 
L 2834 2853 
Q 2591 2978 2328 3040 
Q 2066 3103 1784 3103 
Q 1356 3103 1142 2972 
Q 928 2841 928 2578 
Q 928 2378 1081 2264 
Q 1234 2150 1697 2047 
L 1894 2003 
Q 2506 1872 2764 1633 
Q 3022 1394 3022 966 
Q 3022 478 2636 193 
Q 2250 -91 1575 -91 
Q 1294 -91 989 -36 
Q 684 19 347 128 
L 347 722 
Q 666 556 975 473 
Q 1284 391 1588 391 
Q 1994 391 2212 530 
Q 2431 669 2431 922 
Q 2431 1156 2273 1281 
Q 2116 1406 1581 1522 
L 1381 1569 
Q 847 1681 609 1914 
Q 372 2147 372 2553 
Q 372 3047 722 3315 
Q 1072 3584 1716 3584 
Q 2034 3584 2315 3537 
Q 2597 3491 2834 3397 
z
" transform="scale(0.015625)"/>
       <path id="DejaVuSans-72" d="M 2631 2963 
Q 2534 3019 2420 3045 
Q 2306 3072 2169 3072 
Q 1681 3072 1420 2755 
Q 1159 2438 1159 1844 
L 1159 0 
L 581 0 
L 581 3500 
L 1159 3500 
L 1159 2956 
Q 1341 3275 1631 3429 
Q 1922 3584 2338 3584 
Q 2397 3584 2469 3576 
Q 2541 3569 2628 3553 
L 2631 2963 
z
" transform="scale(0.015625)"/>
       <path id="DejaVuSans-70" d="M 1159 525 
L 1159 -1331 
L 581 -1331 
L 581 3500 
L 1159 3500 
L 1159 2969 
Q 1341 3281 1617 3432 
Q 1894 3584 2278 3584 
Q 2916 3584 3314 3078 
Q 3713 2572 3713 1747 
Q 3713 922 3314 415 
Q 2916 -91 2278 -91 
Q 1894 -91 1617 61 
Q 1341 213 1159 525 
z
M 3116 1747 
Q 3116 2381 2855 2742 
Q 2594 3103 2138 3103 
Q 1681 3103 1420 2742 
Q 1159 2381 1159 1747 
Q 1159 1113 1420 752 
Q 1681 391 2138 391 
Q 2594 391 2855 752 
Q 3116 1113 3116 1747 
z
" transform="scale(0.015625)"/>
       <path id="DejaVuSans-69" d="M 603 3500 
L 1178 3500 
L 1178 0 
L 603 0 
L 603 3500 
z
M 603 4863 
L 1178 4863 
L 1178 4134 
L 603 4134 
L 603 4863 
z
" transform="scale(0.015625)"/>
       <path id="DejaVuSans-61" d="M 2194 1759 
Q 1497 1759 1228 1600 
Q 959 1441 959 1056 
Q 959 750 1161 570 
Q 1363 391 1709 391 
Q 2188 391 2477 730 
Q 2766 1069 2766 1631 
L 2766 1759 
L 2194 1759 
z
M 3341 1997 
L 3341 0 
L 2766 0 
L 2766 531 
Q 2569 213 2275 61 
Q 1981 -91 1556 -91 
Q 1019 -91 701 211 
Q 384 513 384 1019 
Q 384 1609 779 1909 
Q 1175 2209 1959 2209 
L 2766 2209 
L 2766 2266 
Q 2766 2663 2505 2880 
Q 2244 3097 1772 3097 
Q 1472 3097 1187 3025 
Q 903 2953 641 2809 
L 641 3341 
Q 956 3463 1253 3523 
Q 1550 3584 1831 3584 
Q 2591 3584 2966 3190 
Q 3341 2797 3341 1997 
z
" transform="scale(0.015625)"/>
       <path id="DejaVuSans-28" d="M 1984 4856 
Q 1566 4138 1362 3434 
Q 1159 2731 1159 2009 
Q 1159 1288 1364 580 
Q 1569 -128 1984 -844 
L 1484 -844 
Q 1016 -109 783 600 
Q 550 1309 550 2009 
Q 550 2706 781 3412 
Q 1013 4119 1484 4856 
L 1984 4856 
z
" transform="scale(0.015625)"/>
       <path id="DejaVuSans-6d" d="M 3328 2828 
Q 3544 3216 3844 3400 
Q 4144 3584 4550 3584 
Q 5097 3584 5394 3201 
Q 5691 2819 5691 2113 
L 5691 0 
L 5113 0 
L 5113 2094 
Q 5113 2597 4934 2840 
Q 4756 3084 4391 3084 
Q 3944 3084 3684 2787 
Q 3425 2491 3425 1978 
L 3425 0 
L 2847 0 
L 2847 2094 
Q 2847 2600 2669 2842 
Q 2491 3084 2119 3084 
Q 1678 3084 1418 2786 
Q 1159 2488 1159 1978 
L 1159 0 
L 581 0 
L 581 3500 
L 1159 3500 
L 1159 2956 
Q 1356 3278 1631 3431 
Q 1906 3584 2284 3584 
Q 2666 3584 2933 3390 
Q 3200 3197 3328 2828 
z
" transform="scale(0.015625)"/>
       <path id="DejaVuSans-74" d="M 1172 4494 
L 1172 3500 
L 2356 3500 
L 2356 3053 
L 1172 3053 
L 1172 1153 
Q 1172 725 1289 603 
Q 1406 481 1766 481 
L 2356 481 
L 2356 0 
L 1766 0 
Q 1100 0 847 248 
Q 594 497 594 1153 
L 594 3053 
L 172 3053 
L 172 3500 
L 594 3500 
L 594 4494 
L 1172 4494 
z
" transform="scale(0.015625)"/>
       <path id="DejaVuSans-29" d="M 513 4856 
L 1013 4856 
Q 1481 4119 1714 3412 
Q 1947 2706 1947 2009 
Q 1947 1309 1714 600 
Q 1481 -109 1013 -844 
L 513 -844 
Q 928 -128 1133 580 
Q 1338 1288 1338 2009 
Q 1338 2731 1133 3434 
Q 928 4138 513 4856 
z
" transform="scale(0.015625)"/>
      </defs>
      <use xlink:href="#DejaVuSans-49"/>
      <use xlink:href="#DejaVuSans-6e" x="29.492188"/>
      <use xlink:href="#DejaVuSans-66" x="92.871094"/>
      <use xlink:href="#DejaVuSans-6c" x="128.076172"/>
      <use xlink:href="#DejaVuSans-75" x="155.859375"/>
      <use xlink:href="#DejaVuSans-65" x="219.238281"/>
      <use xlink:href="#DejaVuSans-6e" x="280.761719"/>
      <use xlink:href="#DejaVuSans-63" x="344.140625"/>
      <use xlink:href="#DejaVuSans-65" x="399.121094"/>
      <use xlink:href="#DejaVuSans-20" x="460.644531"/>
      <use xlink:href="#DejaVuSans-6f" x="492.431641"/>
      <use xlink:href="#DejaVuSans-66" x="553.613281"/>
      <use xlink:href="#DejaVuSans-20" x="588.818359"/>
      <use xlink:href="#DejaVuSans-73" x="620.605469"/>
      <use xlink:href="#DejaVuSans-75" x="672.705078"/>
      <use xlink:href="#DejaVuSans-72" x="736.083984"/>
      <use xlink:href="#DejaVuSans-70" x="777.197266"/>
      <use xlink:href="#DejaVuSans-72" x="840.673828"/>
      <use xlink:href="#DejaVuSans-69" x="881.787109"/>
      <use xlink:href="#DejaVuSans-73" x="909.570312"/>
      <use xlink:href="#DejaVuSans-61" x="961.669922"/>
      <use xlink:href="#DejaVuSans-6c" x="1022.949219"/>
      <use xlink:href="#DejaVuSans-20" x="1050.732422"/>
      <use xlink:href="#DejaVuSans-28" x="1082.519531"/>
      <use xlink:href="#DejaVuSans-6d" x="1121.533203"/>
      <use xlink:href="#DejaVuSans-75" x="1218.945312"/>
      <use xlink:href="#DejaVuSans-6c" x="1282.324219"/>
      <use xlink:href="#DejaVuSans-74" x="1310.107422"/>
      <use xlink:href="#DejaVuSans-69" x="1349.316406"/>
      <use xlink:href="#DejaVuSans-70" x="1377.099609"/>
      <use xlink:href="#DejaVuSans-6c" x="1440.576172"/>
      <use xlink:href="#DejaVuSans-69" x="1468.359375"/>
      <use xlink:href="#DejaVuSans-63" x="1496.142578"/>
      <use xlink:href="#DejaVuSans-61" x="1551.123047"/>
      <use xlink:href="#DejaVuSans-74" x="1612.402344"/>
      <use xlink:href="#DejaVuSans-69" x="1651.611328"/>
      <use xlink:href="#DejaVuSans-6f" x="1679.394531"/>
      <use xlink:href="#DejaVuSans-6e" x="1740.576172"/>
      <use xlink:href="#DejaVuSans-29" x="1803.955078"/>
     </g>
    </g>
   </g>
   <g id="matplotlib.axis_2">
    <g id="ytick_1">
     <g id="line2d_6">
      <defs>
       <path id="m39368e88f2" d="M 0 0 
L -3.5 0 
" style="stroke: #000000; stroke-width: 0.8"/>
      </defs>
      <g>
       <use xlink:href="#m39368e88f2" x="47.72" y="151.686748" style="stroke: #000000; stroke-width: 0.8"/>
      </g>
     </g>
     <g id="text_7">
      <!-- 0.2 -->
      <g transform="translate(24.816875 155.485967)scale(0.1 -0.1)">
       <use xlink:href="#DejaVuSans-30"/>
       <use xlink:href="#DejaVuSans-2e" x="63.623047"/>
       <use xlink:href="#DejaVuSans-32" x="95.410156"/>
      </g>
     </g>
    </g>
    <g id="ytick_2">
     <g id="line2d_7">
      <g>
       <use xlink:href="#m39368e88f2" x="47.72" y="120.039849" style="stroke: #000000; stroke-width: 0.8"/>
      </g>
     </g>
     <g id="text_8">
      <!-- 0.4 -->
      <g transform="translate(24.816875 123.839068)scale(0.1 -0.1)">
       <defs>
        <path id="DejaVuSans-34" d="M 2419 4116 
L 825 1625 
L 2419 1625 
L 2419 4116 
z
M 2253 4666 
L 3047 4666 
L 3047 1625 
L 3713 1625 
L 3713 1100 
L 3047 1100 
L 3047 0 
L 2419 0 
L 2419 1100 
L 313 1100 
L 313 1709 
L 2253 4666 
z
" transform="scale(0.015625)"/>
       </defs>
       <use xlink:href="#DejaVuSans-30"/>
       <use xlink:href="#DejaVuSans-2e" x="63.623047"/>
       <use xlink:href="#DejaVuSans-34" x="95.410156"/>
      </g>
     </g>
    </g>
    <g id="ytick_3">
     <g id="line2d_8">
      <g>
       <use xlink:href="#m39368e88f2" x="47.72" y="88.39295" style="stroke: #000000; stroke-width: 0.8"/>
      </g>
     </g>
     <g id="text_9">
      <!-- 0.6 -->
      <g transform="translate(24.816875 92.192169)scale(0.1 -0.1)">
       <defs>
        <path id="DejaVuSans-36" d="M 2113 2584 
Q 1688 2584 1439 2293 
Q 1191 2003 1191 1497 
Q 1191 994 1439 701 
Q 1688 409 2113 409 
Q 2538 409 2786 701 
Q 3034 994 3034 1497 
Q 3034 2003 2786 2293 
Q 2538 2584 2113 2584 
z
M 3366 4563 
L 3366 3988 
Q 3128 4100 2886 4159 
Q 2644 4219 2406 4219 
Q 1781 4219 1451 3797 
Q 1122 3375 1075 2522 
Q 1259 2794 1537 2939 
Q 1816 3084 2150 3084 
Q 2853 3084 3261 2657 
Q 3669 2231 3669 1497 
Q 3669 778 3244 343 
Q 2819 -91 2113 -91 
Q 1303 -91 875 529 
Q 447 1150 447 2328 
Q 447 3434 972 4092 
Q 1497 4750 2381 4750 
Q 2619 4750 2861 4703 
Q 3103 4656 3366 4563 
z
" transform="scale(0.015625)"/>
       </defs>
       <use xlink:href="#DejaVuSans-30"/>
       <use xlink:href="#DejaVuSans-2e" x="63.623047"/>
       <use xlink:href="#DejaVuSans-36" x="95.410156"/>
      </g>
     </g>
    </g>
    <g id="ytick_4">
     <g id="line2d_9">
      <g>
       <use xlink:href="#m39368e88f2" x="47.72" y="56.746051" style="stroke: #000000; stroke-width: 0.8"/>
      </g>
     </g>
     <g id="text_10">
      <!-- 0.8 -->
      <g transform="translate(24.816875 60.545269)scale(0.1 -0.1)">
       <defs>
        <path id="DejaVuSans-38" d="M 2034 2216 
Q 1584 2216 1326 1975 
Q 1069 1734 1069 1313 
Q 1069 891 1326 650 
Q 1584 409 2034 409 
Q 2484 409 2743 651 
Q 3003 894 3003 1313 
Q 3003 1734 2745 1975 
Q 2488 2216 2034 2216 
z
M 1403 2484 
Q 997 2584 770 2862 
Q 544 3141 544 3541 
Q 544 4100 942 4425 
Q 1341 4750 2034 4750 
Q 2731 4750 3128 4425 
Q 3525 4100 3525 3541 
Q 3525 3141 3298 2862 
Q 3072 2584 2669 2484 
Q 3125 2378 3379 2068 
Q 3634 1759 3634 1313 
Q 3634 634 3220 271 
Q 2806 -91 2034 -91 
Q 1263 -91 848 271 
Q 434 634 434 1313 
Q 434 1759 690 2068 
Q 947 2378 1403 2484 
z
M 1172 3481 
Q 1172 3119 1398 2916 
Q 1625 2713 2034 2713 
Q 2441 2713 2670 2916 
Q 2900 3119 2900 3481 
Q 2900 3844 2670 4047 
Q 2441 4250 2034 4250 
Q 1625 4250 1398 4047 
Q 1172 3844 1172 3481 
z
" transform="scale(0.015625)"/>
       </defs>
       <use xlink:href="#DejaVuSans-30"/>
       <use xlink:href="#DejaVuSans-2e" x="63.623047"/>
       <use xlink:href="#DejaVuSans-38" x="95.410156"/>
      </g>
     </g>
    </g>
    <g id="text_11">
     <!-- R-value -->
     <g transform="translate(18.737188 119.064687)rotate(-90)scale(0.1 -0.1)">
      <defs>
       <path id="DejaVuSans-52" d="M 2841 2188 
Q 3044 2119 3236 1894 
Q 3428 1669 3622 1275 
L 4263 0 
L 3584 0 
L 2988 1197 
Q 2756 1666 2539 1819 
Q 2322 1972 1947 1972 
L 1259 1972 
L 1259 0 
L 628 0 
L 628 4666 
L 2053 4666 
Q 2853 4666 3247 4331 
Q 3641 3997 3641 3322 
Q 3641 2881 3436 2590 
Q 3231 2300 2841 2188 
z
M 1259 4147 
L 1259 2491 
L 2053 2491 
Q 2509 2491 2742 2702 
Q 2975 2913 2975 3322 
Q 2975 3731 2742 3939 
Q 2509 4147 2053 4147 
L 1259 4147 
z
" transform="scale(0.015625)"/>
       <path id="DejaVuSans-2d" d="M 313 2009 
L 1997 2009 
L 1997 1497 
L 313 1497 
L 313 2009 
z
" transform="scale(0.015625)"/>
       <path id="DejaVuSans-76" d="M 191 3500 
L 800 3500 
L 1894 563 
L 2988 3500 
L 3597 3500 
L 2284 0 
L 1503 0 
L 191 3500 
z
" transform="scale(0.015625)"/>
      </defs>
      <use xlink:href="#DejaVuSans-52"/>
      <use xlink:href="#DejaVuSans-2d" x="65.482422"/>
      <use xlink:href="#DejaVuSans-76" x="98.941406"/>
      <use xlink:href="#DejaVuSans-61" x="158.121094"/>
      <use xlink:href="#DejaVuSans-6c" x="219.400391"/>
      <use xlink:href="#DejaVuSans-75" x="247.183594"/>
      <use xlink:href="#DejaVuSans-65" x="310.5625"/>
     </g>
    </g>
   </g>
   <g id="line2d_10">
    <path d="M 47.72 33.914374 
L 59.167105 35.875803 
L 70.614211 41.602678 
L 82.061316 48.790976 
L 93.508421 57.788277 
L 104.955526 67.563865 
L 116.402632 78.332509 
L 127.849737 87.66955 
L 139.296842 96.965376 
L 150.743947 105.250342 
L 162.191053 113.319785 
L 173.638158 119.400637 
L 185.085263 125.118404 
L 196.532368 130.601583 
L 207.979474 135.213426 
L 219.426579 138.763852 
L 230.873684 142.781219 
L 242.320789 146.227701 
L 253.767895 149.643312 
L 265.215 151.895418 
" clip-path="url(#pf434b88db1)" style="fill: none; stroke: #1f77b4; stroke-width: 1.5; stroke-linecap: square"/>
   </g>
   <g id="line2d_11">
    <path d="M 47.72 33.922351 
L 59.167105 35.26295 
L 70.614211 38.63309 
L 82.061316 43.175043 
L 93.508421 49.614617 
L 104.955526 56.902138 
L 116.402632 65.41219 
L 127.849737 73.420108 
L 139.296842 82.083473 
L 150.743947 90.299393 
L 162.191053 98.867716 
L 173.638158 105.822095 
L 185.085263 112.321393 
L 196.532368 118.559863 
L 207.979474 123.93167 
L 219.426579 128.417594 
L 230.873684 132.775434 
L 242.320789 136.938104 
L 253.767895 140.866777 
L 265.215 143.585692 
" clip-path="url(#pf434b88db1)" style="fill: none; stroke: #ff7f0e; stroke-width: 1.5; stroke-linecap: square"/>
   </g>
   <g id="line2d_12">
    <path d="M 47.72 33.927749 
L 59.167105 35.446145 
L 70.614211 38.182694 
L 82.061316 41.128474 
L 93.508421 45.133789 
L 104.955526 49.685057 
L 116.402632 54.511849 
L 127.849737 59.053759 
L 139.296842 64.275231 
L 150.743947 69.385578 
L 162.191053 73.843202 
L 173.638158 79.05393 
L 185.085263 83.033303 
L 196.532368 87.624943 
L 207.979474 91.268002 
L 219.426579 95.303746 
L 230.873684 98.824824 
L 242.320789 102.516805 
L 253.767895 106.084799 
L 265.215 109.485643 
" clip-path="url(#pf434b88db1)" style="fill: none; stroke: #2ca02c; stroke-width: 1.5; stroke-linecap: square"/>
   </g>
   <g id="line2d_13">
    <path d="M 47.72 33.932152 
L 59.167105 35.182267 
L 70.614211 37.368779 
L 82.061316 39.843862 
L 93.508421 43.454055 
L 104.955526 47.786434 
L 116.402632 52.54317 
L 127.849737 57.126005 
L 139.296842 62.392187 
L 150.743947 67.597821 
L 162.191053 72.242892 
L 173.638158 77.652418 
L 185.085263 81.639308 
L 196.532368 86.308048 
L 207.979474 89.961038 
L 219.426579 93.900471 
L 230.873684 97.341476 
L 242.320789 100.805263 
L 253.767895 104.066516 
L 265.215 107.242169 
" clip-path="url(#pf434b88db1)" style="fill: none; stroke: #d62728; stroke-width: 1.5; stroke-linecap: square"/>
   </g>
   <g id="line2d_14">
    <path d="M 47.72 33.926886 
L 59.167105 35.892491 
L 70.614211 41.639941 
L 82.061316 48.859816 
L 93.508421 57.80123 
L 104.955526 67.658318 
L 116.402632 78.37417 
L 127.849737 87.876284 
L 139.296842 97.188434 
L 150.743947 105.518822 
L 162.191053 113.247838 
L 173.638158 119.159583 
L 185.085263 125.536589 
L 196.532368 130.934592 
L 207.979474 135.762224 
L 219.426579 138.903792 
L 230.873684 143.61127 
L 242.320789 146.408652 
L 253.767895 150.266232 
L 265.215 152.278517 
" clip-path="url(#pf434b88db1)" style="fill: none; stroke: #9467bd; stroke-width: 1.5; stroke-linecap: square"/>
   </g>
   <g id="line2d_15">
    <path d="M 47.72 33.934996 
L 59.167105 35.278793 
L 70.614211 38.653341 
L 82.061316 43.216987 
L 93.508421 49.626363 
L 104.955526 57.004212 
L 116.402632 65.449471 
L 127.849737 73.520528 
L 139.296842 82.288536 
L 150.743947 90.526209 
L 162.191053 98.900921 
L 173.638158 105.63823 
L 185.085263 112.611105 
L 196.532368 118.697837 
L 207.979474 124.329572 
L 219.426579 128.513791 
L 230.873684 133.384432 
L 242.320789 137.098925 
L 253.767895 141.425916 
L 265.215 143.901295 
" clip-path="url(#pf434b88db1)" style="fill: none; stroke: #8c564b; stroke-width: 1.5; stroke-linecap: square"/>
   </g>
   <g id="line2d_16">
    <path d="M 47.72 45.600493 
L 59.167105 48.105529 
L 70.614211 54.610331 
L 82.061316 62.942135 
L 93.508421 73.252194 
L 104.955526 83.718098 
L 116.402632 94.98831 
L 127.849737 104.831195 
L 139.296842 114.186541 
L 150.743947 122.847908 
L 162.191053 130.118553 
L 173.638158 135.867583 
L 185.085263 140.346701 
L 196.532368 144.407146 
L 207.979474 148.280165 
L 219.426579 150.412936 
L 230.873684 153.424405 
L 242.320789 155.80893 
L 253.767895 158.428948 
L 265.215 160.186851 
" clip-path="url(#pf434b88db1)" style="fill: none; stroke: #e377c2; stroke-width: 1.5; stroke-linecap: square"/>
   </g>
   <g id="line2d_17">
    <path d="M 47.72 33.935634 
L 59.167105 34.584128 
L 70.614211 35.336782 
L 82.061316 37.278762 
L 93.508421 41.144496 
L 104.955526 46.146512 
L 116.402632 52.798496 
L 127.849737 59.551632 
L 139.296842 68.021791 
L 150.743947 76.595081 
L 162.191053 85.370456 
L 173.638158 93.603559 
L 185.085263 100.873077 
L 196.532368 108.373583 
L 207.979474 114.237136 
L 219.426579 119.479448 
L 230.873684 124.457984 
L 242.320789 129.051183 
L 253.767895 133.354242 
L 265.215 136.755671 
" clip-path="url(#pf434b88db1)" style="fill: none; stroke: #7f7f7f; stroke-width: 1.5; stroke-linecap: square"/>
   </g>
   <g id="patch_3">
    <path d="M 47.72 174.04 
L 47.72 26.88 
" style="fill: none; stroke: #000000; stroke-width: 0.8; stroke-linejoin: miter; stroke-linecap: square"/>
   </g>
   <g id="patch_4">
    <path d="M 47.72 174.04 
L 265.215 174.04 
" style="fill: none; stroke: #000000; stroke-width: 0.8; stroke-linejoin: miter; stroke-linecap: square"/>
   </g>
   <g id="text_12">
    <!-- Node * surprisal -->
    <g transform="translate(108.18625 20.88)scale(0.12 -0.12)">
     <defs>
      <path id="DejaVuSans-4e" d="M 628 4666 
L 1478 4666 
L 3547 763 
L 3547 4666 
L 4159 4666 
L 4159 0 
L 3309 0 
L 1241 3903 
L 1241 0 
L 628 0 
L 628 4666 
z
" transform="scale(0.015625)"/>
      <path id="DejaVuSans-64" d="M 2906 2969 
L 2906 4863 
L 3481 4863 
L 3481 0 
L 2906 0 
L 2906 525 
Q 2725 213 2448 61 
Q 2172 -91 1784 -91 
Q 1150 -91 751 415 
Q 353 922 353 1747 
Q 353 2572 751 3078 
Q 1150 3584 1784 3584 
Q 2172 3584 2448 3432 
Q 2725 3281 2906 2969 
z
M 947 1747 
Q 947 1113 1208 752 
Q 1469 391 1925 391 
Q 2381 391 2643 752 
Q 2906 1113 2906 1747 
Q 2906 2381 2643 2742 
Q 2381 3103 1925 3103 
Q 1469 3103 1208 2742 
Q 947 2381 947 1747 
z
" transform="scale(0.015625)"/>
      <path id="DejaVuSans-2a" d="M 3009 3897 
L 1888 3291 
L 3009 2681 
L 2828 2375 
L 1778 3009 
L 1778 1831 
L 1422 1831 
L 1422 3009 
L 372 2375 
L 191 2681 
L 1313 3291 
L 191 3897 
L 372 4206 
L 1422 3572 
L 1422 4750 
L 1778 4750 
L 1778 3572 
L 2828 4206 
L 3009 3897 
z
" transform="scale(0.015625)"/>
     </defs>
     <use xlink:href="#DejaVuSans-4e"/>
     <use xlink:href="#DejaVuSans-6f" x="74.804688"/>
     <use xlink:href="#DejaVuSans-64" x="135.986328"/>
     <use xlink:href="#DejaVuSans-65" x="199.462891"/>
     <use xlink:href="#DejaVuSans-20" x="260.986328"/>
     <use xlink:href="#DejaVuSans-2a" x="292.773438"/>
     <use xlink:href="#DejaVuSans-20" x="342.773438"/>
     <use xlink:href="#DejaVuSans-73" x="374.560547"/>
     <use xlink:href="#DejaVuSans-75" x="426.660156"/>
     <use xlink:href="#DejaVuSans-72" x="490.039062"/>
     <use xlink:href="#DejaVuSans-70" x="531.152344"/>
     <use xlink:href="#DejaVuSans-72" x="594.628906"/>
     <use xlink:href="#DejaVuSans-69" x="635.742188"/>
     <use xlink:href="#DejaVuSans-73" x="663.525391"/>
     <use xlink:href="#DejaVuSans-61" x="715.625"/>
     <use xlink:href="#DejaVuSans-6c" x="776.904297"/>
    </g>
   </g>
  </g>
  <g id="axes_2">
   <g id="patch_5">
    <path d="M 298.065 174.04 
L 515.56 174.04 
L 515.56 26.88 
L 298.065 26.88 
z
" style="fill: #ffffff"/>
   </g>
   <g id="PolyCollection_9">
    <path d="M 298.065 33.630989 
L 298.065 34.04286 
L 309.512105 36.254981 
L 320.959211 42.143329 
L 332.406316 50.526381 
L 343.853421 59.884766 
L 355.300526 70.753114 
L 366.747632 80.398109 
L 378.194737 89.969358 
L 389.641842 99.372074 
L 401.088947 107.638253 
L 412.536053 115.915614 
L 423.983158 123.060002 
L 435.430263 129.964077 
L 446.877368 135.594937 
L 458.324474 141.313646 
L 469.771579 145.932308 
L 481.218684 149.503292 
L 492.665789 152.733344 
L 504.112895 156.906809 
L 515.56 158.804477 
L 515.56 147.065614 
L 515.56 147.065614 
L 504.112895 143.599241 
L 492.665789 140.233431 
L 481.218684 137.187172 
L 469.771579 132.970084 
L 458.324474 127.654998 
L 446.877368 124.334018 
L 435.430263 118.133512 
L 423.983158 111.733679 
L 412.536053 106.182259 
L 401.088947 98.291888 
L 389.641842 90.559782 
L 378.194737 81.963807 
L 366.747632 72.103623 
L 355.300526 63.488022 
L 343.853421 54.045577 
L 332.406316 46.095492 
L 320.959211 40.10465 
L 309.512105 35.308985 
L 298.065 33.630989 
z
" clip-path="url(#p3f3ea1a530)" style="fill: #1f77b4; fill-opacity: 0.4"/>
   </g>
   <g id="PolyCollection_10">
    <path d="M 298.065 33.641615 
L 298.065 34.059319 
L 309.512105 36.270007 
L 320.959211 42.178379 
L 332.406316 50.605737 
L 343.853421 59.970022 
L 355.300526 70.886905 
L 366.747632 80.554715 
L 378.194737 90.123154 
L 389.641842 99.604002 
L 401.088947 107.916785 
L 412.536053 116.073009 
L 423.983158 123.081611 
L 435.430263 129.9635 
L 446.877368 135.460943 
L 458.324474 141.159496 
L 469.771579 145.726682 
L 481.218684 149.249166 
L 492.665789 152.383677 
L 504.112895 156.705062 
L 515.56 158.497541 
L 515.56 148.417151 
L 515.56 148.417151 
L 504.112895 144.926591 
L 492.665789 141.299799 
L 481.218684 138.294101 
L 469.771579 133.775454 
L 458.324474 128.490243 
L 446.877368 125.033084 
L 435.430263 118.510967 
L 423.983158 112.08396 
L 412.536053 106.517906 
L 401.088947 98.419106 
L 389.641842 90.596336 
L 378.194737 82.068388 
L 366.747632 72.210059 
L 355.300526 63.574545 
L 343.853421 54.126513 
L 332.406316 46.125984 
L 320.959211 40.113134 
L 309.512105 35.329148 
L 298.065 33.641615 
z
" clip-path="url(#p3f3ea1a530)" style="fill: #ff7f0e; fill-opacity: 0.4"/>
   </g>
   <g id="PolyCollection_11">
    <path d="M 298.065 33.63691 
L 298.065 34.050292 
L 309.512105 36.269382 
L 320.959211 42.162975 
L 332.406316 50.517141 
L 343.853421 59.887412 
L 355.300526 70.797659 
L 366.747632 80.369034 
L 378.194737 89.93202 
L 389.641842 99.387384 
L 401.088947 107.708497 
L 412.536053 115.898131 
L 423.983158 123.176297 
L 435.430263 130.149855 
L 446.877368 135.819289 
L 458.324474 141.396025 
L 469.771579 146.099673 
L 481.218684 149.65763 
L 492.665789 152.899763 
L 504.112895 156.916006 
L 515.56 158.756412 
L 515.56 147.455852 
L 515.56 147.455852 
L 504.112895 143.92416 
L 492.665789 140.906913 
L 481.218684 137.822734 
L 469.771579 133.43876 
L 458.324474 128.113032 
L 446.877368 124.930351 
L 435.430263 118.526727 
L 423.983158 112.048787 
L 412.536053 106.571187 
L 401.088947 98.534853 
L 389.641842 90.729239 
L 378.194737 82.1412 
L 366.747632 72.277924 
L 355.300526 63.540799 
L 343.853421 54.123989 
L 332.406316 46.102086 
L 320.959211 40.128437 
L 309.512105 35.327594 
L 298.065 33.63691 
z
" clip-path="url(#p3f3ea1a530)" style="fill: #2ca02c; fill-opacity: 0.4"/>
   </g>
   <g id="PolyCollection_12">
    <path d="M 298.065 33.643522 
L 298.065 34.063828 
L 309.512105 36.28612 
L 320.959211 42.17524 
L 332.406316 50.581701 
L 343.853421 59.920557 
L 355.300526 70.863021 
L 366.747632 80.438085 
L 378.194737 89.922601 
L 389.641842 99.436475 
L 401.088947 107.776687 
L 412.536053 115.848035 
L 423.983158 123.048636 
L 435.430263 129.918993 
L 446.877368 135.55582 
L 458.324474 141.165281 
L 469.771579 145.81059 
L 481.218684 149.429214 
L 492.665789 152.661088 
L 504.112895 156.778063 
L 515.56 158.593438 
L 515.56 148.516428 
L 515.56 148.516428 
L 504.112895 145.113501 
L 492.665789 141.720562 
L 481.218684 138.652268 
L 469.771579 134.082182 
L 458.324474 128.669306 
L 446.877368 125.384154 
L 435.430263 118.883963 
L 423.983158 112.337637 
L 412.536053 106.764007 
L 401.088947 98.642397 
L 389.641842 90.770838 
L 378.194737 82.219355 
L 366.747632 72.306952 
L 355.300526 63.573739 
L 343.853421 54.163208 
L 332.406316 46.126743 
L 320.959211 40.141249 
L 309.512105 35.341069 
L 298.065 33.643522 
z
" clip-path="url(#p3f3ea1a530)" style="fill: #d62728; fill-opacity: 0.4"/>
   </g>
   <g id="PolyCollection_13">
    <path d="M 298.065 33.637018 
L 298.065 34.062339 
L 309.512105 36.281759 
L 320.959211 42.140952 
L 332.406316 50.538528 
L 343.853421 59.872631 
L 355.300526 70.797386 
L 366.747632 80.578262 
L 378.194737 90.080469 
L 389.641842 99.418626 
L 401.088947 107.701254 
L 412.536053 116.113893 
L 423.983158 123.062184 
L 435.430263 129.897716 
L 446.877368 135.895208 
L 458.324474 141.077362 
L 469.771579 146.206374 
L 481.218684 149.805419 
L 492.665789 152.53109 
L 504.112895 157.236848 
L 515.56 159.544956 
L 515.56 147.565889 
L 515.56 147.565889 
L 504.112895 143.877176 
L 492.665789 142.461725 
L 481.218684 137.986878 
L 469.771579 132.972691 
L 458.324474 127.870657 
L 446.877368 125.097077 
L 435.430263 118.879406 
L 423.983158 111.903636 
L 412.536053 106.54861 
L 401.088947 98.187481 
L 389.641842 90.761844 
L 378.194737 82.002723 
L 366.747632 72.223947 
L 355.300526 63.599926 
L 343.853421 54.210139 
L 332.406316 46.14623 
L 320.959211 40.130914 
L 309.512105 35.326747 
L 298.065 33.637018 
z
" clip-path="url(#p3f3ea1a530)" style="fill: #9467bd; fill-opacity: 0.4"/>
   </g>
   <g id="PolyCollection_14">
    <path d="M 298.065 33.647814 
L 298.065 34.080588 
L 309.512105 36.29684 
L 320.959211 42.175524 
L 332.406316 50.617308 
L 343.853421 59.962902 
L 355.300526 70.922279 
L 366.747632 80.719166 
L 378.194737 90.234213 
L 389.641842 99.643207 
L 401.088947 107.987845 
L 412.536053 116.279138 
L 423.983158 123.07932 
L 435.430263 129.907131 
L 446.877368 135.765228 
L 458.324474 140.907228 
L 469.771579 146.029494 
L 481.218684 149.554152 
L 492.665789 152.330685 
L 504.112895 157.152615 
L 515.56 159.290824 
L 515.56 148.748344 
L 515.56 148.748344 
L 504.112895 145.157486 
L 492.665789 143.258893 
L 481.218684 139.045579 
L 469.771579 133.720147 
L 458.324474 128.732802 
L 446.877368 125.735758 
L 435.430263 119.271249 
L 423.983158 112.253812 
L 412.536053 106.858005 
L 401.088947 98.306708 
L 389.641842 90.804784 
L 378.194737 82.114527 
L 366.747632 72.326882 
L 355.300526 63.695396 
L 343.853421 54.302833 
L 332.406316 46.177955 
L 320.959211 40.13881 
L 309.512105 35.347874 
L 298.065 33.647814 
z
" clip-path="url(#p3f3ea1a530)" style="fill: #8c564b; fill-opacity: 0.4"/>
   </g>
   <g id="PolyCollection_15">
    <path d="M 298.065 43.53054 
L 298.065 47.430865 
L 309.512105 49.355964 
L 320.959211 54.313078 
L 332.406316 61.245131 
L 343.853421 69.51644 
L 355.300526 79.400463 
L 366.747632 88.110499 
L 378.194737 97.14033 
L 389.641842 106.04054 
L 401.088947 114.008384 
L 412.536053 122.11496 
L 423.983158 129.182108 
L 435.430263 136.334096 
L 446.877368 141.9176 
L 458.324474 147.226822 
L 469.771579 151.608761 
L 481.218684 154.80462 
L 492.665789 157.886197 
L 504.112895 161.737107 
L 515.56 163.254857 
L 515.56 149.104646 
L 515.56 149.104646 
L 504.112895 145.967152 
L 492.665789 142.867645 
L 481.218684 139.84924 
L 469.771579 135.798016 
L 458.324474 131.202926 
L 446.877368 127.889758 
L 435.430263 122.350995 
L 423.983158 116.571822 
L 412.536053 112.156207 
L 401.088947 104.425001 
L 389.641842 97.791248 
L 378.194737 89.577448 
L 366.747632 80.31915 
L 355.300526 72.376853 
L 343.853421 63.347129 
L 332.406316 55.863705 
L 320.959211 49.93056 
L 309.512105 45.261328 
L 298.065 43.53054 
z
" clip-path="url(#p3f3ea1a530)" style="fill: #e377c2; fill-opacity: 0.4"/>
   </g>
   <g id="PolyCollection_16">
    <path d="M 298.065 33.654 
L 298.065 34.05933 
L 309.512105 36.270902 
L 320.959211 42.175315 
L 332.406316 50.606259 
L 343.853421 59.919866 
L 355.300526 70.886195 
L 366.747632 80.476586 
L 378.194737 90.03689 
L 389.641842 99.485642 
L 401.088947 107.832347 
L 412.536053 115.907675 
L 423.983158 122.933062 
L 435.430263 129.707045 
L 446.877368 135.287694 
L 458.324474 141.03511 
L 469.771579 145.562187 
L 481.218684 149.194775 
L 492.665789 152.174513 
L 504.112895 156.521289 
L 515.56 158.203313 
L 515.56 149.406159 
L 515.56 149.406159 
L 504.112895 145.760352 
L 492.665789 142.714256 
L 481.218684 139.421189 
L 469.771579 134.65078 
L 458.324474 129.391542 
L 446.877368 125.743587 
L 435.430263 119.211614 
L 423.983158 112.632667 
L 412.536053 107.050256 
L 401.088947 98.727139 
L 389.641842 90.856342 
L 378.194737 82.160877 
L 366.747632 72.311742 
L 355.300526 63.543472 
L 343.853421 54.118732 
L 332.406316 46.119593 
L 320.959211 40.117113 
L 309.512105 35.347952 
L 298.065 33.654 
z
" clip-path="url(#p3f3ea1a530)" style="fill: #7f7f7f; fill-opacity: 0.4"/>
   </g>
   <g id="matplotlib.axis_3">
    <g id="xtick_6">
     <g id="line2d_18">
      <g>
       <use xlink:href="#m734d484ff4" x="298.065" y="174.04" style="stroke: #000000; stroke-width: 0.8"/>
      </g>
     </g>
     <g id="text_13">
      <!-- 0.0 -->
      <g transform="translate(290.113437 188.638438)scale(0.1 -0.1)">
       <use xlink:href="#DejaVuSans-30"/>
       <use xlink:href="#DejaVuSans-2e" x="63.623047"/>
       <use xlink:href="#DejaVuSans-30" x="95.410156"/>
      </g>
     </g>
    </g>
    <g id="xtick_7">
     <g id="line2d_19">
      <g>
       <use xlink:href="#m734d484ff4" x="352.43875" y="174.04" style="stroke: #000000; stroke-width: 0.8"/>
      </g>
     </g>
     <g id="text_14">
      <!-- 0.5 -->
      <g transform="translate(344.487187 188.638438)scale(0.1 -0.1)">
       <use xlink:href="#DejaVuSans-30"/>
       <use xlink:href="#DejaVuSans-2e" x="63.623047"/>
       <use xlink:href="#DejaVuSans-35" x="95.410156"/>
      </g>
     </g>
    </g>
    <g id="xtick_8">
     <g id="line2d_20">
      <g>
       <use xlink:href="#m734d484ff4" x="406.8125" y="174.04" style="stroke: #000000; stroke-width: 0.8"/>
      </g>
     </g>
     <g id="text_15">
      <!-- 1.0 -->
      <g transform="translate(398.860937 188.638438)scale(0.1 -0.1)">
       <use xlink:href="#DejaVuSans-31"/>
       <use xlink:href="#DejaVuSans-2e" x="63.623047"/>
       <use xlink:href="#DejaVuSans-30" x="95.410156"/>
      </g>
     </g>
    </g>
    <g id="xtick_9">
     <g id="line2d_21">
      <g>
       <use xlink:href="#m734d484ff4" x="461.18625" y="174.04" style="stroke: #000000; stroke-width: 0.8"/>
      </g>
     </g>
     <g id="text_16">
      <!-- 1.5 -->
      <g transform="translate(453.234687 188.638438)scale(0.1 -0.1)">
       <use xlink:href="#DejaVuSans-31"/>
       <use xlink:href="#DejaVuSans-2e" x="63.623047"/>
       <use xlink:href="#DejaVuSans-35" x="95.410156"/>
      </g>
     </g>
    </g>
    <g id="xtick_10">
     <g id="line2d_22">
      <g>
       <use xlink:href="#m734d484ff4" x="515.56" y="174.04" style="stroke: #000000; stroke-width: 0.8"/>
      </g>
     </g>
     <g id="text_17">
      <!-- 2.0 -->
      <g transform="translate(507.608437 188.638438)scale(0.1 -0.1)">
       <use xlink:href="#DejaVuSans-32"/>
       <use xlink:href="#DejaVuSans-2e" x="63.623047"/>
       <use xlink:href="#DejaVuSans-30" x="95.410156"/>
      </g>
     </g>
    </g>
    <g id="text_18">
     <!-- Influence of surprisal (multiplication) -->
     <g transform="translate(314.665625 202.316563)scale(0.1 -0.1)">
      <use xlink:href="#DejaVuSans-49"/>
      <use xlink:href="#DejaVuSans-6e" x="29.492188"/>
      <use xlink:href="#DejaVuSans-66" x="92.871094"/>
      <use xlink:href="#DejaVuSans-6c" x="128.076172"/>
      <use xlink:href="#DejaVuSans-75" x="155.859375"/>
      <use xlink:href="#DejaVuSans-65" x="219.238281"/>
      <use xlink:href="#DejaVuSans-6e" x="280.761719"/>
      <use xlink:href="#DejaVuSans-63" x="344.140625"/>
      <use xlink:href="#DejaVuSans-65" x="399.121094"/>
      <use xlink:href="#DejaVuSans-20" x="460.644531"/>
      <use xlink:href="#DejaVuSans-6f" x="492.431641"/>
      <use xlink:href="#DejaVuSans-66" x="553.613281"/>
      <use xlink:href="#DejaVuSans-20" x="588.818359"/>
      <use xlink:href="#DejaVuSans-73" x="620.605469"/>
      <use xlink:href="#DejaVuSans-75" x="672.705078"/>
      <use xlink:href="#DejaVuSans-72" x="736.083984"/>
      <use xlink:href="#DejaVuSans-70" x="777.197266"/>
      <use xlink:href="#DejaVuSans-72" x="840.673828"/>
      <use xlink:href="#DejaVuSans-69" x="881.787109"/>
      <use xlink:href="#DejaVuSans-73" x="909.570312"/>
      <use xlink:href="#DejaVuSans-61" x="961.669922"/>
      <use xlink:href="#DejaVuSans-6c" x="1022.949219"/>
      <use xlink:href="#DejaVuSans-20" x="1050.732422"/>
      <use xlink:href="#DejaVuSans-28" x="1082.519531"/>
      <use xlink:href="#DejaVuSans-6d" x="1121.533203"/>
      <use xlink:href="#DejaVuSans-75" x="1218.945312"/>
      <use xlink:href="#DejaVuSans-6c" x="1282.324219"/>
      <use xlink:href="#DejaVuSans-74" x="1310.107422"/>
      <use xlink:href="#DejaVuSans-69" x="1349.316406"/>
      <use xlink:href="#DejaVuSans-70" x="1377.099609"/>
      <use xlink:href="#DejaVuSans-6c" x="1440.576172"/>
      <use xlink:href="#DejaVuSans-69" x="1468.359375"/>
      <use xlink:href="#DejaVuSans-63" x="1496.142578"/>
      <use xlink:href="#DejaVuSans-61" x="1551.123047"/>
      <use xlink:href="#DejaVuSans-74" x="1612.402344"/>
      <use xlink:href="#DejaVuSans-69" x="1651.611328"/>
      <use xlink:href="#DejaVuSans-6f" x="1679.394531"/>
      <use xlink:href="#DejaVuSans-6e" x="1740.576172"/>
      <use xlink:href="#DejaVuSans-29" x="1803.955078"/>
     </g>
    </g>
   </g>
   <g id="line2d_23">
    <path d="M 298.065 33.836925 
L 309.512105 35.781983 
L 320.959211 41.12399 
L 332.406316 48.310936 
L 343.853421 56.965171 
L 355.300526 67.120568 
L 366.747632 76.250866 
L 378.194737 85.966582 
L 389.641842 94.965928 
L 401.088947 102.96507 
L 412.536053 111.048937 
L 423.983158 117.396841 
L 435.430263 124.048795 
L 446.877368 129.964477 
L 458.324474 134.484322 
L 469.771579 139.451196 
L 481.218684 143.345232 
L 492.665789 146.483387 
L 504.112895 150.253025 
L 515.56 152.935045 
" clip-path="url(#p3f3ea1a530)" style="fill: none; stroke: #1f77b4; stroke-width: 1.5; stroke-linecap: square"/>
   </g>
   <g id="line2d_24">
    <path d="M 298.065 33.850467 
L 309.512105 35.799577 
L 320.959211 41.145756 
L 332.406316 48.365861 
L 343.853421 57.048268 
L 355.300526 67.230725 
L 366.747632 76.382387 
L 378.194737 86.095771 
L 389.641842 95.100169 
L 401.088947 103.167945 
L 412.536053 111.295458 
L 423.983158 117.582785 
L 435.430263 124.237234 
L 446.877368 130.247014 
L 458.324474 134.82487 
L 469.771579 139.751068 
L 481.218684 143.771633 
L 492.665789 146.841738 
L 504.112895 150.815827 
L 515.56 153.457346 
" clip-path="url(#p3f3ea1a530)" style="fill: none; stroke: #ff7f0e; stroke-width: 1.5; stroke-linecap: square"/>
   </g>
   <g id="line2d_25">
    <path d="M 298.065 33.843601 
L 309.512105 35.798488 
L 320.959211 41.145706 
L 332.406316 48.309614 
L 343.853421 57.0057 
L 355.300526 67.169229 
L 366.747632 76.323479 
L 378.194737 86.03661 
L 389.641842 95.058311 
L 401.088947 103.121675 
L 412.536053 111.234659 
L 423.983158 117.612542 
L 435.430263 124.338291 
L 446.877368 130.37482 
L 458.324474 134.754528 
L 469.771579 139.769217 
L 481.218684 143.740182 
L 492.665789 146.903338 
L 504.112895 150.420083 
L 515.56 153.106132 
" clip-path="url(#p3f3ea1a530)" style="fill: none; stroke: #2ca02c; stroke-width: 1.5; stroke-linecap: square"/>
   </g>
   <g id="line2d_26">
    <path d="M 298.065 33.853675 
L 309.512105 35.813595 
L 320.959211 41.158244 
L 332.406316 48.354222 
L 343.853421 57.041882 
L 355.300526 67.21838 
L 366.747632 76.372519 
L 378.194737 86.070978 
L 389.641842 95.103657 
L 401.088947 103.209542 
L 412.536053 111.306021 
L 423.983158 117.693136 
L 435.430263 124.401478 
L 446.877368 130.469987 
L 458.324474 134.917293 
L 469.771579 139.946386 
L 481.218684 144.040741 
L 492.665789 147.190825 
L 504.112895 150.945782 
L 515.56 153.554933 
" clip-path="url(#p3f3ea1a530)" style="fill: none; stroke: #d62728; stroke-width: 1.5; stroke-linecap: square"/>
   </g>
   <g id="line2d_27">
    <path d="M 298.065 33.849678 
L 309.512105 35.804253 
L 320.959211 41.135933 
L 332.406316 48.342379 
L 343.853421 57.041385 
L 355.300526 67.198656 
L 366.747632 76.401105 
L 378.194737 86.041596 
L 389.641842 95.090235 
L 401.088947 102.944367 
L 412.536053 111.331252 
L 423.983158 117.48291 
L 435.430263 124.388561 
L 446.877368 130.496143 
L 458.324474 134.474009 
L 469.771579 139.589533 
L 481.218684 143.896148 
L 492.665789 147.496408 
L 504.112895 150.557012 
L 515.56 153.555423 
" clip-path="url(#p3f3ea1a530)" style="fill: none; stroke: #9467bd; stroke-width: 1.5; stroke-linecap: square"/>
   </g>
   <g id="line2d_28">
    <path d="M 298.065 33.864201 
L 309.512105 35.822357 
L 320.959211 41.157167 
L 332.406316 48.397632 
L 343.853421 57.132868 
L 355.300526 67.308838 
L 366.747632 76.523024 
L 378.194737 86.17437 
L 389.641842 95.223995 
L 401.088947 103.147277 
L 412.536053 111.568572 
L 423.983158 117.666566 
L 435.430263 124.58919 
L 446.877368 130.750493 
L 458.324474 134.820015 
L 469.771579 139.87482 
L 481.218684 144.299866 
L 492.665789 147.794789 
L 504.112895 151.155051 
L 515.56 154.019584 
" clip-path="url(#p3f3ea1a530)" style="fill: none; stroke: #8c564b; stroke-width: 1.5; stroke-linecap: square"/>
   </g>
   <g id="line2d_29">
    <path d="M 298.065 45.480703 
L 309.512105 47.308646 
L 320.959211 52.121819 
L 332.406316 58.554418 
L 343.853421 66.431784 
L 355.300526 75.888658 
L 366.747632 84.214825 
L 378.194737 93.358889 
L 389.641842 101.915894 
L 401.088947 109.216692 
L 412.536053 117.135583 
L 423.983158 122.876965 
L 435.430263 129.342545 
L 446.877368 134.903679 
L 458.324474 139.214874 
L 469.771579 143.703389 
L 481.218684 147.32693 
L 492.665789 150.376921 
L 504.112895 153.852129 
L 515.56 156.179751 
" clip-path="url(#p3f3ea1a530)" style="fill: none; stroke: #e377c2; stroke-width: 1.5; stroke-linecap: square"/>
   </g>
   <g id="line2d_30">
    <path d="M 298.065 33.856665 
L 309.512105 35.809427 
L 320.959211 41.146214 
L 332.406316 48.362926 
L 343.853421 57.019299 
L 355.300526 67.214834 
L 366.747632 76.394164 
L 378.194737 86.098883 
L 389.641842 95.170992 
L 401.088947 103.279743 
L 412.536053 111.478966 
L 423.983158 117.782865 
L 435.430263 124.459329 
L 446.877368 130.51564 
L 458.324474 135.213326 
L 469.771579 140.106483 
L 481.218684 144.307982 
L 492.665789 147.444384 
L 504.112895 151.140821 
L 515.56 153.804736 
" clip-path="url(#p3f3ea1a530)" style="fill: none; stroke: #7f7f7f; stroke-width: 1.5; stroke-linecap: square"/>
   </g>
   <g id="patch_6">
    <path d="M 298.065 174.04 
L 298.065 26.88 
" style="fill: none; stroke: #000000; stroke-width: 0.8; stroke-linejoin: miter; stroke-linecap: square"/>
   </g>
   <g id="patch_7">
    <path d="M 298.065 174.04 
L 515.56 174.04 
" style="fill: none; stroke: #000000; stroke-width: 0.8; stroke-linejoin: miter; stroke-linecap: square"/>
   </g>
   <g id="text_19">
    <!-- Node * third variable -->
    <g transform="translate(344.2325 20.88)scale(0.12 -0.12)">
     <defs>
      <path id="DejaVuSans-68" d="M 3513 2113 
L 3513 0 
L 2938 0 
L 2938 2094 
Q 2938 2591 2744 2837 
Q 2550 3084 2163 3084 
Q 1697 3084 1428 2787 
Q 1159 2491 1159 1978 
L 1159 0 
L 581 0 
L 581 4863 
L 1159 4863 
L 1159 2956 
Q 1366 3272 1645 3428 
Q 1925 3584 2291 3584 
Q 2894 3584 3203 3211 
Q 3513 2838 3513 2113 
z
" transform="scale(0.015625)"/>
      <path id="DejaVuSans-62" d="M 3116 1747 
Q 3116 2381 2855 2742 
Q 2594 3103 2138 3103 
Q 1681 3103 1420 2742 
Q 1159 2381 1159 1747 
Q 1159 1113 1420 752 
Q 1681 391 2138 391 
Q 2594 391 2855 752 
Q 3116 1113 3116 1747 
z
M 1159 2969 
Q 1341 3281 1617 3432 
Q 1894 3584 2278 3584 
Q 2916 3584 3314 3078 
Q 3713 2572 3713 1747 
Q 3713 922 3314 415 
Q 2916 -91 2278 -91 
Q 1894 -91 1617 61 
Q 1341 213 1159 525 
L 1159 0 
L 581 0 
L 581 4863 
L 1159 4863 
L 1159 2969 
z
" transform="scale(0.015625)"/>
     </defs>
     <use xlink:href="#DejaVuSans-4e"/>
     <use xlink:href="#DejaVuSans-6f" x="74.804688"/>
     <use xlink:href="#DejaVuSans-64" x="135.986328"/>
     <use xlink:href="#DejaVuSans-65" x="199.462891"/>
     <use xlink:href="#DejaVuSans-20" x="260.986328"/>
     <use xlink:href="#DejaVuSans-2a" x="292.773438"/>
     <use xlink:href="#DejaVuSans-20" x="342.773438"/>
     <use xlink:href="#DejaVuSans-74" x="374.560547"/>
     <use xlink:href="#DejaVuSans-68" x="413.769531"/>
     <use xlink:href="#DejaVuSans-69" x="477.148438"/>
     <use xlink:href="#DejaVuSans-72" x="504.931641"/>
     <use xlink:href="#DejaVuSans-64" x="544.294922"/>
     <use xlink:href="#DejaVuSans-20" x="607.771484"/>
     <use xlink:href="#DejaVuSans-76" x="639.558594"/>
     <use xlink:href="#DejaVuSans-61" x="698.738281"/>
     <use xlink:href="#DejaVuSans-72" x="760.017578"/>
     <use xlink:href="#DejaVuSans-69" x="801.130859"/>
     <use xlink:href="#DejaVuSans-61" x="828.914062"/>
     <use xlink:href="#DejaVuSans-62" x="890.193359"/>
     <use xlink:href="#DejaVuSans-6c" x="953.669922"/>
     <use xlink:href="#DejaVuSans-65" x="981.453125"/>
    </g>
   </g>
   <g id="legend_1">
    <g id="line2d_31">
     <path d="M 524.56 39.978437 
L 534.56 39.978437 
L 544.56 39.978437 
" style="fill: none; stroke: #1f77b4; stroke-width: 1.5; stroke-linecap: square"/>
    </g>
    <g id="text_20">
     <!-- Node -->
     <g transform="translate(552.56 43.478437)scale(0.1 -0.1)">
      <use xlink:href="#DejaVuSans-4e"/>
      <use xlink:href="#DejaVuSans-6f" x="74.804688"/>
      <use xlink:href="#DejaVuSans-64" x="135.986328"/>
      <use xlink:href="#DejaVuSans-65" x="199.462891"/>
     </g>
    </g>
    <g id="line2d_32">
     <path d="M 524.56 54.656563 
L 534.56 54.656563 
L 544.56 54.656563 
" style="fill: none; stroke: #ff7f0e; stroke-width: 1.5; stroke-linecap: square"/>
    </g>
    <g id="text_21">
     <!-- Node + surprisal -->
     <g transform="translate(552.56 58.156563)scale(0.1 -0.1)">
      <defs>
       <path id="DejaVuSans-2b" d="M 2944 4013 
L 2944 2272 
L 4684 2272 
L 4684 1741 
L 2944 1741 
L 2944 0 
L 2419 0 
L 2419 1741 
L 678 1741 
L 678 2272 
L 2419 2272 
L 2419 4013 
L 2944 4013 
z
" transform="scale(0.015625)"/>
      </defs>
      <use xlink:href="#DejaVuSans-4e"/>
      <use xlink:href="#DejaVuSans-6f" x="74.804688"/>
      <use xlink:href="#DejaVuSans-64" x="135.986328"/>
      <use xlink:href="#DejaVuSans-65" x="199.462891"/>
      <use xlink:href="#DejaVuSans-20" x="260.986328"/>
      <use xlink:href="#DejaVuSans-2b" x="292.773438"/>
      <use xlink:href="#DejaVuSans-20" x="376.5625"/>
      <use xlink:href="#DejaVuSans-73" x="408.349609"/>
      <use xlink:href="#DejaVuSans-75" x="460.449219"/>
      <use xlink:href="#DejaVuSans-72" x="523.828125"/>
      <use xlink:href="#DejaVuSans-70" x="564.941406"/>
      <use xlink:href="#DejaVuSans-72" x="628.417969"/>
      <use xlink:href="#DejaVuSans-69" x="669.53125"/>
      <use xlink:href="#DejaVuSans-73" x="697.314453"/>
      <use xlink:href="#DejaVuSans-61" x="749.414062"/>
      <use xlink:href="#DejaVuSans-6c" x="810.693359"/>
     </g>
    </g>
    <g id="line2d_33">
     <path d="M 524.56 69.334687 
L 534.56 69.334687 
L 544.56 69.334687 
" style="fill: none; stroke: #2ca02c; stroke-width: 1.5; stroke-linecap: square"/>
    </g>
    <g id="text_22">
     <!-- Node split -->
     <g transform="translate(552.56 72.834687)scale(0.1 -0.1)">
      <use xlink:href="#DejaVuSans-4e"/>
      <use xlink:href="#DejaVuSans-6f" x="74.804688"/>
      <use xlink:href="#DejaVuSans-64" x="135.986328"/>
      <use xlink:href="#DejaVuSans-65" x="199.462891"/>
      <use xlink:href="#DejaVuSans-20" x="260.986328"/>
      <use xlink:href="#DejaVuSans-73" x="292.773438"/>
      <use xlink:href="#DejaVuSans-70" x="344.873047"/>
      <use xlink:href="#DejaVuSans-6c" x="408.349609"/>
      <use xlink:href="#DejaVuSans-69" x="436.132812"/>
      <use xlink:href="#DejaVuSans-74" x="463.916016"/>
     </g>
    </g>
    <g id="line2d_34">
     <path d="M 524.56 84.012812 
L 534.56 84.012812 
L 544.56 84.012812 
" style="fill: none; stroke: #d62728; stroke-width: 1.5; stroke-linecap: square"/>
    </g>
    <g id="text_23">
     <!-- Node split + surprisal -->
     <g transform="translate(552.56 87.512812)scale(0.1 -0.1)">
      <use xlink:href="#DejaVuSans-4e"/>
      <use xlink:href="#DejaVuSans-6f" x="74.804688"/>
      <use xlink:href="#DejaVuSans-64" x="135.986328"/>
      <use xlink:href="#DejaVuSans-65" x="199.462891"/>
      <use xlink:href="#DejaVuSans-20" x="260.986328"/>
      <use xlink:href="#DejaVuSans-73" x="292.773438"/>
      <use xlink:href="#DejaVuSans-70" x="344.873047"/>
      <use xlink:href="#DejaVuSans-6c" x="408.349609"/>
      <use xlink:href="#DejaVuSans-69" x="436.132812"/>
      <use xlink:href="#DejaVuSans-74" x="463.916016"/>
      <use xlink:href="#DejaVuSans-20" x="503.125"/>
      <use xlink:href="#DejaVuSans-2b" x="534.912109"/>
      <use xlink:href="#DejaVuSans-20" x="618.701172"/>
      <use xlink:href="#DejaVuSans-73" x="650.488281"/>
      <use xlink:href="#DejaVuSans-75" x="702.587891"/>
      <use xlink:href="#DejaVuSans-72" x="765.966797"/>
      <use xlink:href="#DejaVuSans-70" x="807.080078"/>
      <use xlink:href="#DejaVuSans-72" x="870.556641"/>
      <use xlink:href="#DejaVuSans-69" x="911.669922"/>
      <use xlink:href="#DejaVuSans-73" x="939.453125"/>
      <use xlink:href="#DejaVuSans-61" x="991.552734"/>
      <use xlink:href="#DejaVuSans-6c" x="1052.832031"/>
     </g>
    </g>
    <g id="line2d_35">
     <path d="M 524.56 98.690937 
L 534.56 98.690937 
L 544.56 98.690937 
" style="fill: none; stroke: #9467bd; stroke-width: 1.5; stroke-linecap: square"/>
    </g>
    <g id="text_24">
     <!-- Node random split -->
     <g transform="translate(552.56 102.190937)scale(0.1 -0.1)">
      <use xlink:href="#DejaVuSans-4e"/>
      <use xlink:href="#DejaVuSans-6f" x="74.804688"/>
      <use xlink:href="#DejaVuSans-64" x="135.986328"/>
      <use xlink:href="#DejaVuSans-65" x="199.462891"/>
      <use xlink:href="#DejaVuSans-20" x="260.986328"/>
      <use xlink:href="#DejaVuSans-72" x="292.773438"/>
      <use xlink:href="#DejaVuSans-61" x="333.886719"/>
      <use xlink:href="#DejaVuSans-6e" x="395.166016"/>
      <use xlink:href="#DejaVuSans-64" x="458.544922"/>
      <use xlink:href="#DejaVuSans-6f" x="522.021484"/>
      <use xlink:href="#DejaVuSans-6d" x="583.203125"/>
      <use xlink:href="#DejaVuSans-20" x="680.615234"/>
      <use xlink:href="#DejaVuSans-73" x="712.402344"/>
      <use xlink:href="#DejaVuSans-70" x="764.501953"/>
      <use xlink:href="#DejaVuSans-6c" x="827.978516"/>
      <use xlink:href="#DejaVuSans-69" x="855.761719"/>
      <use xlink:href="#DejaVuSans-74" x="883.544922"/>
     </g>
    </g>
    <g id="line2d_36">
     <path d="M 524.56 113.369062 
L 534.56 113.369062 
L 544.56 113.369062 
" style="fill: none; stroke: #8c564b; stroke-width: 1.5; stroke-linecap: square"/>
    </g>
    <g id="text_25">
     <!-- Node random split + surprisal -->
     <g transform="translate(552.56 116.869062)scale(0.1 -0.1)">
      <use xlink:href="#DejaVuSans-4e"/>
      <use xlink:href="#DejaVuSans-6f" x="74.804688"/>
      <use xlink:href="#DejaVuSans-64" x="135.986328"/>
      <use xlink:href="#DejaVuSans-65" x="199.462891"/>
      <use xlink:href="#DejaVuSans-20" x="260.986328"/>
      <use xlink:href="#DejaVuSans-72" x="292.773438"/>
      <use xlink:href="#DejaVuSans-61" x="333.886719"/>
      <use xlink:href="#DejaVuSans-6e" x="395.166016"/>
      <use xlink:href="#DejaVuSans-64" x="458.544922"/>
      <use xlink:href="#DejaVuSans-6f" x="522.021484"/>
      <use xlink:href="#DejaVuSans-6d" x="583.203125"/>
      <use xlink:href="#DejaVuSans-20" x="680.615234"/>
      <use xlink:href="#DejaVuSans-73" x="712.402344"/>
      <use xlink:href="#DejaVuSans-70" x="764.501953"/>
      <use xlink:href="#DejaVuSans-6c" x="827.978516"/>
      <use xlink:href="#DejaVuSans-69" x="855.761719"/>
      <use xlink:href="#DejaVuSans-74" x="883.544922"/>
      <use xlink:href="#DejaVuSans-20" x="922.753906"/>
      <use xlink:href="#DejaVuSans-2b" x="954.541016"/>
      <use xlink:href="#DejaVuSans-20" x="1038.330078"/>
      <use xlink:href="#DejaVuSans-73" x="1070.117188"/>
      <use xlink:href="#DejaVuSans-75" x="1122.216797"/>
      <use xlink:href="#DejaVuSans-72" x="1185.595703"/>
      <use xlink:href="#DejaVuSans-70" x="1226.708984"/>
      <use xlink:href="#DejaVuSans-72" x="1290.185547"/>
      <use xlink:href="#DejaVuSans-69" x="1331.298828"/>
      <use xlink:href="#DejaVuSans-73" x="1359.082031"/>
      <use xlink:href="#DejaVuSans-61" x="1411.181641"/>
      <use xlink:href="#DejaVuSans-6c" x="1472.460938"/>
     </g>
    </g>
    <g id="line2d_37">
     <path d="M 524.56 128.047187 
L 534.56 128.047187 
L 544.56 128.047187 
" style="fill: none; stroke: #e377c2; stroke-width: 1.5; stroke-linecap: square"/>
    </g>
    <g id="text_26">
     <!-- Interaction -->
     <g transform="translate(552.56 131.547187)scale(0.1 -0.1)">
      <use xlink:href="#DejaVuSans-49"/>
      <use xlink:href="#DejaVuSans-6e" x="29.492188"/>
      <use xlink:href="#DejaVuSans-74" x="92.871094"/>
      <use xlink:href="#DejaVuSans-65" x="132.080078"/>
      <use xlink:href="#DejaVuSans-72" x="193.603516"/>
      <use xlink:href="#DejaVuSans-61" x="234.716797"/>
      <use xlink:href="#DejaVuSans-63" x="295.996094"/>
      <use xlink:href="#DejaVuSans-74" x="350.976562"/>
      <use xlink:href="#DejaVuSans-69" x="390.185547"/>
      <use xlink:href="#DejaVuSans-6f" x="417.96875"/>
      <use xlink:href="#DejaVuSans-6e" x="479.150391"/>
     </g>
    </g>
    <g id="line2d_38">
     <path d="M 524.56 142.725312 
L 534.56 142.725312 
L 544.56 142.725312 
" style="fill: none; stroke: #7f7f7f; stroke-width: 1.5; stroke-linecap: square"/>
    </g>
    <g id="text_27">
     <!-- Node + surprisal + interaction -->
     <g transform="translate(552.56 146.225312)scale(0.1 -0.1)">
      <use xlink:href="#DejaVuSans-4e"/>
      <use xlink:href="#DejaVuSans-6f" x="74.804688"/>
      <use xlink:href="#DejaVuSans-64" x="135.986328"/>
      <use xlink:href="#DejaVuSans-65" x="199.462891"/>
      <use xlink:href="#DejaVuSans-20" x="260.986328"/>
      <use xlink:href="#DejaVuSans-2b" x="292.773438"/>
      <use xlink:href="#DejaVuSans-20" x="376.5625"/>
      <use xlink:href="#DejaVuSans-73" x="408.349609"/>
      <use xlink:href="#DejaVuSans-75" x="460.449219"/>
      <use xlink:href="#DejaVuSans-72" x="523.828125"/>
      <use xlink:href="#DejaVuSans-70" x="564.941406"/>
      <use xlink:href="#DejaVuSans-72" x="628.417969"/>
      <use xlink:href="#DejaVuSans-69" x="669.53125"/>
      <use xlink:href="#DejaVuSans-73" x="697.314453"/>
      <use xlink:href="#DejaVuSans-61" x="749.414062"/>
      <use xlink:href="#DejaVuSans-6c" x="810.693359"/>
      <use xlink:href="#DejaVuSans-20" x="838.476562"/>
      <use xlink:href="#DejaVuSans-2b" x="870.263672"/>
      <use xlink:href="#DejaVuSans-20" x="954.052734"/>
      <use xlink:href="#DejaVuSans-69" x="985.839844"/>
      <use xlink:href="#DejaVuSans-6e" x="1013.623047"/>
      <use xlink:href="#DejaVuSans-74" x="1077.001953"/>
      <use xlink:href="#DejaVuSans-65" x="1116.210938"/>
      <use xlink:href="#DejaVuSans-72" x="1177.734375"/>
      <use xlink:href="#DejaVuSans-61" x="1218.847656"/>
      <use xlink:href="#DejaVuSans-63" x="1280.126953"/>
      <use xlink:href="#DejaVuSans-74" x="1335.107422"/>
      <use xlink:href="#DejaVuSans-69" x="1374.316406"/>
      <use xlink:href="#DejaVuSans-6f" x="1402.099609"/>
      <use xlink:href="#DejaVuSans-6e" x="1463.28125"/>
     </g>
    </g>
   </g>
  </g>
 </g>
 <defs>
  <clipPath id="pf434b88db1">
   <rect x="47.72" y="26.88" width="217.495" height="147.16"/>
  </clipPath>
  <clipPath id="p3f3ea1a530">
   <rect x="298.065" y="26.88" width="217.495" height="147.16"/>
  </clipPath>
 </defs>
</svg>
