<?xml version="1.0" encoding="utf-8" standalone="no"?>
<!DOCTYPE svg PUBLIC "-//W3C//DTD SVG 1.1//EN"
  "http://www.w3.org/Graphics/SVG/1.1/DTD/svg11.dtd">
<svg xmlns:xlink="http://www.w3.org/1999/xlink" width="720pt" height="216pt" viewBox="0 0 720 216" xmlns="http://www.w3.org/2000/svg" version="1.1">
 <metadata>
  <rdf:RDF xmlns:dc="http://purl.org/dc/elements/1.1/" xmlns:cc="http://creativecommons.org/ns#" xmlns:rdf="http://www.w3.org/1999/02/22-rdf-syntax-ns#">
   <cc:Work>
    <dc:type rdf:resource="http://purl.org/dc/dcmitype/StillImage"/>
    <dc:date>2024-01-16T04:05:21.004239</dc:date>
    <dc:format>image/svg+xml</dc:format>
    <dc:creator>
     <cc:Agent>
      <dc:title>Matplotlib v3.5.1, https://matplotlib.org/</dc:title>
     </cc:Agent>
    </dc:creator>
   </cc:Work>
  </rdf:RDF>
 </metadata>
 <defs>
  <style type="text/css">*{stroke-linejoin: round; stroke-linecap: butt}</style>
 </defs>
 <g id="figure_1">
  <g id="patch_1">
   <path d="M 0 216 
L 720 216 
L 720 0 
L 0 0 
z
" style="fill: #ffffff"/>
  </g>
  <g id="axes_1">
   <g id="patch_2">
    <path d="M 47.72 174.04 
L 265.215 174.04 
L 265.215 26.88 
L 47.72 26.88 
z
" style="fill: #ffffff"/>
   </g>
   <g id="PolyCollection_1">
    <path d="M 47.72 33.669395 
L 47.72 34.476596 
L 59.167105 36.426775 
L 70.614211 42.397995 
L 82.061316 50.792762 
L 93.508421 60.85002 
L 104.955526 71.408107 
L 116.402632 82.0981 
L 127.849737 92.727485 
L 139.296842 101.549797 
L 150.743947 110.747617 
L 162.191053 118.976561 
L 173.638158 126.391071 
L 185.085263 132.61634 
L 196.532368 138.365892 
L 207.979474 142.780978 
L 219.426579 147.064633 
L 230.873684 150.573732 
L 242.320789 153.166825 
L 253.767895 156.384984 
L 265.215 158.098718 
L 265.215 144.714174 
L 265.215 144.714174 
L 253.767895 142.395227 
L 242.320789 138.866267 
L 230.873684 135.604176 
L 219.426579 131.895456 
L 207.979474 128.000078 
L 196.532368 123.733689 
L 185.085263 119.014774 
L 173.638158 113.000489 
L 162.191053 107.4602 
L 150.743947 100.544256 
L 139.296842 92.204558 
L 127.849737 84.271835 
L 116.402632 74.567078 
L 104.955526 65.012146 
L 93.508421 56.020243 
L 82.061316 47.332001 
L 70.614211 40.560734 
L 59.167105 35.681366 
L 47.72 33.669395 
z
" clip-path="url(#pec8944e391)" style="fill: #1f77b4; fill-opacity: 0.4"/>
   </g>
   <g id="PolyCollection_2">
    <path d="M 47.72 33.680783 
L 47.72 34.489377 
L 59.167105 35.653983 
L 70.614211 38.82511 
L 82.061316 43.745946 
L 93.508421 50.710372 
L 104.955526 58.754758 
L 116.402632 67.023666 
L 127.849737 76.548073 
L 139.296842 84.259069 
L 150.743947 93.676215 
L 162.191053 102.339694 
L 173.638158 110.32006 
L 185.085263 116.874135 
L 196.532368 123.684831 
L 207.979474 129.046949 
L 219.426579 134.306978 
L 230.873684 138.837224 
L 242.320789 141.988286 
L 253.767895 146.222205 
L 265.215 148.871205 
L 265.215 135.580828 
L 265.215 135.580828 
L 253.767895 132.28058 
L 242.320789 128.14618 
L 230.873684 123.701164 
L 219.426579 119.071989 
L 207.979474 114.239513 
L 196.532368 108.853575 
L 185.085263 103.37041 
L 173.638158 96.544388 
L 162.191053 90.030701 
L 150.743947 83.08277 
L 139.296842 75.359537 
L 127.849737 68.052456 
L 116.402632 60.251968 
L 104.955526 52.521541 
L 93.508421 46.643104 
L 82.061316 41.271895 
L 70.614211 37.661647 
L 59.167105 34.983985 
L 47.72 33.680783 
z
" clip-path="url(#pec8944e391)" style="fill: #ff7f0e; fill-opacity: 0.4"/>
   </g>
   <g id="PolyCollection_3">
    <path d="M 47.72 33.678496 
L 47.72 34.489166 
L 59.167105 35.919303 
L 70.614211 38.757986 
L 82.061316 42.470311 
L 93.508421 46.970246 
L 104.955526 51.551465 
L 116.402632 56.450744 
L 127.849737 62.008331 
L 139.296842 66.219404 
L 150.743947 71.853748 
L 162.191053 76.560599 
L 173.638158 81.431537 
L 185.085263 86.035559 
L 196.532368 89.96473 
L 207.979474 94.939129 
L 219.426579 98.826917 
L 230.873684 102.942921 
L 242.320789 105.92281 
L 253.767895 110.647099 
L 265.215 114.08181 
L 265.215 104.851532 
L 265.215 104.851532 
L 253.767895 101.637349 
L 242.320789 98.169211 
L 230.873684 94.016176 
L 219.426579 90.852212 
L 207.979474 86.482916 
L 196.532368 82.865702 
L 185.085263 78.764775 
L 173.638158 74.099679 
L 162.191053 69.646565 
L 150.743947 65.640226 
L 139.296842 60.729969 
L 127.849737 55.945259 
L 116.402632 51.473208 
L 104.955526 47.03011 
L 93.508421 43.301333 
L 82.061316 39.684059 
L 70.614211 37.313364 
L 59.167105 35.188232 
L 47.72 33.678496 
z
" clip-path="url(#pec8944e391)" style="fill: #2ca02c; fill-opacity: 0.4"/>
   </g>
   <g id="PolyCollection_4">
    <path d="M 47.72 33.690873 
L 47.72 34.494934 
L 59.167105 35.593114 
L 70.614211 37.633266 
L 82.061316 40.600723 
L 93.508421 44.508124 
L 104.955526 48.944773 
L 116.402632 53.69475 
L 127.849737 59.298971 
L 139.296842 63.575459 
L 150.743947 69.709626 
L 162.191053 74.486757 
L 173.638158 79.603665 
L 185.085263 84.358327 
L 196.532368 88.295509 
L 207.979474 93.335092 
L 219.426579 97.05769 
L 230.873684 100.987751 
L 242.320789 103.809188 
L 253.767895 108.263897 
L 265.215 111.316338 
L 265.215 102.842426 
L 265.215 102.842426 
L 253.767895 99.869565 
L 242.320789 96.555426 
L 230.873684 92.587376 
L 219.426579 89.692523 
L 207.979474 85.309812 
L 196.532368 81.780647 
L 185.085263 77.627785 
L 173.638158 72.904724 
L 162.191053 68.416581 
L 150.743947 64.24258 
L 139.296842 59.046597 
L 127.849737 54.226008 
L 116.402632 49.475897 
L 104.955526 45.067386 
L 93.508421 41.805232 
L 82.061316 38.506423 
L 70.614211 36.691945 
L 59.167105 34.908844 
L 47.72 33.690873 
z
" clip-path="url(#pec8944e391)" style="fill: #d62728; fill-opacity: 0.4"/>
   </g>
   <g id="PolyCollection_5">
    <path d="M 47.72 33.676274 
L 47.72 34.489647 
L 59.167105 36.439449 
L 70.614211 42.421672 
L 82.061316 50.80327 
L 93.508421 60.937962 
L 104.955526 71.507628 
L 116.402632 82.166202 
L 127.849737 92.985568 
L 139.296842 101.716997 
L 150.743947 110.942764 
L 162.191053 119.378629 
L 173.638158 127.028214 
L 185.085263 132.818213 
L 196.532368 138.598239 
L 207.979474 143.596546 
L 219.426579 147.963993 
L 230.873684 150.475311 
L 242.320789 153.495105 
L 253.767895 156.239396 
L 265.215 158.545095 
L 265.215 144.974651 
L 265.215 144.974651 
L 253.767895 141.875801 
L 242.320789 139.776289 
L 230.873684 135.529271 
L 219.426579 132.060008 
L 207.979474 127.990199 
L 196.532368 124.281832 
L 185.085263 119.168527 
L 173.638158 113.164836 
L 162.191053 107.563054 
L 150.743947 100.90956 
L 139.296842 92.406286 
L 127.849737 84.339661 
L 116.402632 74.631146 
L 104.955526 65.021621 
L 93.508421 56.031565 
L 82.061316 47.35443 
L 70.614211 40.581219 
L 59.167105 35.693409 
L 47.72 33.676274 
z
" clip-path="url(#pec8944e391)" style="fill: #9467bd; fill-opacity: 0.4"/>
   </g>
   <g id="PolyCollection_6">
    <path d="M 47.72 33.688764 
L 47.72 34.502363 
L 59.167105 35.66292 
L 70.614211 38.844688 
L 82.061316 43.760021 
L 93.508421 50.775258 
L 104.955526 58.798228 
L 116.402632 67.149571 
L 127.849737 76.690675 
L 139.296842 84.532803 
L 150.743947 93.8445 
L 162.191053 102.431772 
L 173.638158 110.768512 
L 185.085263 117.216731 
L 196.532368 123.865197 
L 207.979474 129.538394 
L 219.426579 134.954037 
L 230.873684 138.871267 
L 242.320789 142.16747 
L 253.767895 145.954714 
L 265.215 149.1767 
L 265.215 135.654964 
L 265.215 135.654964 
L 253.767895 132.013593 
L 242.320789 128.815847 
L 230.873684 123.636297 
L 219.426579 119.181683 
L 207.979474 114.211612 
L 196.532368 109.261346 
L 185.085263 103.443089 
L 173.638158 96.675571 
L 162.191053 90.205632 
L 150.743947 83.286512 
L 139.296842 75.450019 
L 127.849737 68.172641 
L 116.402632 60.213978 
L 104.955526 52.574684 
L 93.508421 46.6799 
L 82.061316 41.28132 
L 70.614211 37.683533 
L 59.167105 34.994576 
L 47.72 33.688764 
z
" clip-path="url(#pec8944e391)" style="fill: #8c564b; fill-opacity: 0.4"/>
   </g>
   <g id="PolyCollection_7">
    <path d="M 47.72 44.380697 
L 47.72 47.673172 
L 59.167105 50.717029 
L 70.614211 58.465437 
L 82.061316 69.094414 
L 93.508421 81.611195 
L 104.955526 93.705644 
L 116.402632 104.647968 
L 127.849737 115.143411 
L 139.296842 123.347103 
L 150.743947 131.479239 
L 162.191053 137.964973 
L 173.638158 143.945799 
L 185.085263 147.928392 
L 196.532368 152.897264 
L 207.979474 155.72309 
L 219.426579 159.257845 
L 230.873684 161.794992 
L 242.320789 163.591829 
L 253.767895 166.204121 
L 265.215 167.350909 
L 265.215 159.342196 
L 265.215 159.342196 
L 253.767895 158.078032 
L 242.320789 155.627093 
L 230.873684 153.296123 
L 219.426579 150.307074 
L 207.979474 147.031182 
L 196.532368 143.466801 
L 185.085263 139.354347 
L 173.638158 132.583988 
L 162.191053 126.704296 
L 150.743947 118.551035 
L 139.296842 109.186828 
L 127.849737 100.007882 
L 116.402632 88.771498 
L 104.955526 77.851393 
L 93.508421 67.764211 
L 82.061316 58.215227 
L 70.614211 51.061381 
L 59.167105 46.317316 
L 47.72 44.380697 
z
" clip-path="url(#pec8944e391)" style="fill: #e377c2; fill-opacity: 0.4"/>
   </g>
   <g id="PolyCollection_8">
    <path d="M 47.72 33.694991 
L 47.72 34.501325 
L 59.167105 35.050366 
L 70.614211 35.716777 
L 82.061316 37.776003 
L 93.508421 42.051125 
L 104.955526 48.323497 
L 116.402632 55.320012 
L 127.849737 63.400025 
L 139.296842 70.887844 
L 150.743947 79.97908 
L 162.191053 88.379003 
L 173.638158 96.794797 
L 185.085263 103.794505 
L 196.532368 110.908038 
L 207.979474 117.789276 
L 219.426579 123.631696 
L 230.873684 128.792206 
L 242.320789 132.738922 
L 253.767895 137.866841 
L 265.215 141.300143 
L 265.215 130.019443 
L 265.215 130.019443 
L 253.767895 126.481587 
L 242.320789 122.199464 
L 230.873684 117.306609 
L 219.426579 112.47705 
L 207.979474 106.620408 
L 196.532368 101.118015 
L 185.085263 94.818442 
L 173.638158 86.835382 
L 162.191053 78.913224 
L 150.743947 71.088126 
L 139.296842 62.610341 
L 127.849737 54.977664 
L 116.402632 47.576633 
L 104.955526 41.575053 
L 93.508421 38.119938 
L 82.061316 35.770325 
L 70.614211 34.82031 
L 59.167105 34.326306 
L 47.72 33.694991 
z
" clip-path="url(#pec8944e391)" style="fill: #7f7f7f; fill-opacity: 0.4"/>
   </g>
   <g id="matplotlib.axis_1">
    <g id="xtick_1">
     <g id="line2d_1">
      <defs>
       <path id="m8dcd1b5971" d="M 0 0 
L 0 3.5 
" style="stroke: #000000; stroke-width: 0.8"/>
      </defs>
      <g>
       <use xlink:href="#m8dcd1b5971" x="47.72" y="174.04" style="stroke: #000000; stroke-width: 0.8"/>
      </g>
     </g>
     <g id="text_1">
      <!-- 0.0 -->
      <g transform="translate(39.768438 188.638438)scale(0.1 -0.1)">
       <defs>
        <path id="DejaVuSans-30" d="M 2034 4250 
Q 1547 4250 1301 3770 
Q 1056 3291 1056 2328 
Q 1056 1369 1301 889 
Q 1547 409 2034 409 
Q 2525 409 2770 889 
Q 3016 1369 3016 2328 
Q 3016 3291 2770 3770 
Q 2525 4250 2034 4250 
z
M 2034 4750 
Q 2819 4750 3233 4129 
Q 3647 3509 3647 2328 
Q 3647 1150 3233 529 
Q 2819 -91 2034 -91 
Q 1250 -91 836 529 
Q 422 1150 422 2328 
Q 422 3509 836 4129 
Q 1250 4750 2034 4750 
z
" transform="scale(0.015625)"/>
        <path id="DejaVuSans-2e" d="M 684 794 
L 1344 794 
L 1344 0 
L 684 0 
L 684 794 
z
" transform="scale(0.015625)"/>
       </defs>
       <use xlink:href="#DejaVuSans-30"/>
       <use xlink:href="#DejaVuSans-2e" x="63.623047"/>
       <use xlink:href="#DejaVuSans-30" x="95.410156"/>
      </g>
     </g>
    </g>
    <g id="xtick_2">
     <g id="line2d_2">
      <g>
       <use xlink:href="#m8dcd1b5971" x="102.09375" y="174.04" style="stroke: #000000; stroke-width: 0.8"/>
      </g>
     </g>
     <g id="text_2">
      <!-- 0.5 -->
      <g transform="translate(94.142188 188.638438)scale(0.1 -0.1)">
       <defs>
        <path id="DejaVuSans-35" d="M 691 4666 
L 3169 4666 
L 3169 4134 
L 1269 4134 
L 1269 2991 
Q 1406 3038 1543 3061 
Q 1681 3084 1819 3084 
Q 2600 3084 3056 2656 
Q 3513 2228 3513 1497 
Q 3513 744 3044 326 
Q 2575 -91 1722 -91 
Q 1428 -91 1123 -41 
Q 819 9 494 109 
L 494 744 
Q 775 591 1075 516 
Q 1375 441 1709 441 
Q 2250 441 2565 725 
Q 2881 1009 2881 1497 
Q 2881 1984 2565 2268 
Q 2250 2553 1709 2553 
Q 1456 2553 1204 2497 
Q 953 2441 691 2322 
L 691 4666 
z
" transform="scale(0.015625)"/>
       </defs>
       <use xlink:href="#DejaVuSans-30"/>
       <use xlink:href="#DejaVuSans-2e" x="63.623047"/>
       <use xlink:href="#DejaVuSans-35" x="95.410156"/>
      </g>
     </g>
    </g>
    <g id="xtick_3">
     <g id="line2d_3">
      <g>
       <use xlink:href="#m8dcd1b5971" x="156.4675" y="174.04" style="stroke: #000000; stroke-width: 0.8"/>
      </g>
     </g>
     <g id="text_3">
      <!-- 1.0 -->
      <g transform="translate(148.515938 188.638438)scale(0.1 -0.1)">
       <defs>
        <path id="DejaVuSans-31" d="M 794 531 
L 1825 531 
L 1825 4091 
L 703 3866 
L 703 4441 
L 1819 4666 
L 2450 4666 
L 2450 531 
L 3481 531 
L 3481 0 
L 794 0 
L 794 531 
z
" transform="scale(0.015625)"/>
       </defs>
       <use xlink:href="#DejaVuSans-31"/>
       <use xlink:href="#DejaVuSans-2e" x="63.623047"/>
       <use xlink:href="#DejaVuSans-30" x="95.410156"/>
      </g>
     </g>
    </g>
    <g id="xtick_4">
     <g id="line2d_4">
      <g>
       <use xlink:href="#m8dcd1b5971" x="210.84125" y="174.04" style="stroke: #000000; stroke-width: 0.8"/>
      </g>
     </g>
     <g id="text_4">
      <!-- 1.5 -->
      <g transform="translate(202.889687 188.638438)scale(0.1 -0.1)">
       <use xlink:href="#DejaVuSans-31"/>
       <use xlink:href="#DejaVuSans-2e" x="63.623047"/>
       <use xlink:href="#DejaVuSans-35" x="95.410156"/>
      </g>
     </g>
    </g>
    <g id="xtick_5">
     <g id="line2d_5">
      <g>
       <use xlink:href="#m8dcd1b5971" x="265.215" y="174.04" style="stroke: #000000; stroke-width: 0.8"/>
      </g>
     </g>
     <g id="text_5">
      <!-- 2.0 -->
      <g transform="translate(257.263437 188.638438)scale(0.1 -0.1)">
       <defs>
        <path id="DejaVuSans-32" d="M 1228 531 
L 3431 531 
L 3431 0 
L 469 0 
L 469 531 
Q 828 903 1448 1529 
Q 2069 2156 2228 2338 
Q 2531 2678 2651 2914 
Q 2772 3150 2772 3378 
Q 2772 3750 2511 3984 
Q 2250 4219 1831 4219 
Q 1534 4219 1204 4116 
Q 875 4013 500 3803 
L 500 4441 
Q 881 4594 1212 4672 
Q 1544 4750 1819 4750 
Q 2544 4750 2975 4387 
Q 3406 4025 3406 3419 
Q 3406 3131 3298 2873 
Q 3191 2616 2906 2266 
Q 2828 2175 2409 1742 
Q 1991 1309 1228 531 
z
" transform="scale(0.015625)"/>
       </defs>
       <use xlink:href="#DejaVuSans-32"/>
       <use xlink:href="#DejaVuSans-2e" x="63.623047"/>
       <use xlink:href="#DejaVuSans-30" x="95.410156"/>
      </g>
     </g>
    </g>
    <g id="text_6">
     <!-- Influence of surprisal (multiplication) -->
     <g transform="translate(64.320625 202.316563)scale(0.1 -0.1)">
      <defs>
       <path id="DejaVuSans-49" d="M 628 4666 
L 1259 4666 
L 1259 0 
L 628 0 
L 628 4666 
z
" transform="scale(0.015625)"/>
       <path id="DejaVuSans-6e" d="M 3513 2113 
L 3513 0 
L 2938 0 
L 2938 2094 
Q 2938 2591 2744 2837 
Q 2550 3084 2163 3084 
Q 1697 3084 1428 2787 
Q 1159 2491 1159 1978 
L 1159 0 
L 581 0 
L 581 3500 
L 1159 3500 
L 1159 2956 
Q 1366 3272 1645 3428 
Q 1925 3584 2291 3584 
Q 2894 3584 3203 3211 
Q 3513 2838 3513 2113 
z
" transform="scale(0.015625)"/>
       <path id="DejaVuSans-66" d="M 2375 4863 
L 2375 4384 
L 1825 4384 
Q 1516 4384 1395 4259 
Q 1275 4134 1275 3809 
L 1275 3500 
L 2222 3500 
L 2222 3053 
L 1275 3053 
L 1275 0 
L 697 0 
L 697 3053 
L 147 3053 
L 147 3500 
L 697 3500 
L 697 3744 
Q 697 4328 969 4595 
Q 1241 4863 1831 4863 
L 2375 4863 
z
" transform="scale(0.015625)"/>
       <path id="DejaVuSans-6c" d="M 603 4863 
L 1178 4863 
L 1178 0 
L 603 0 
L 603 4863 
z
" transform="scale(0.015625)"/>
       <path id="DejaVuSans-75" d="M 544 1381 
L 544 3500 
L 1119 3500 
L 1119 1403 
Q 1119 906 1312 657 
Q 1506 409 1894 409 
Q 2359 409 2629 706 
Q 2900 1003 2900 1516 
L 2900 3500 
L 3475 3500 
L 3475 0 
L 2900 0 
L 2900 538 
Q 2691 219 2414 64 
Q 2138 -91 1772 -91 
Q 1169 -91 856 284 
Q 544 659 544 1381 
z
M 1991 3584 
L 1991 3584 
z
" transform="scale(0.015625)"/>
       <path id="DejaVuSans-65" d="M 3597 1894 
L 3597 1613 
L 953 1613 
Q 991 1019 1311 708 
Q 1631 397 2203 397 
Q 2534 397 2845 478 
Q 3156 559 3463 722 
L 3463 178 
Q 3153 47 2828 -22 
Q 2503 -91 2169 -91 
Q 1331 -91 842 396 
Q 353 884 353 1716 
Q 353 2575 817 3079 
Q 1281 3584 2069 3584 
Q 2775 3584 3186 3129 
Q 3597 2675 3597 1894 
z
M 3022 2063 
Q 3016 2534 2758 2815 
Q 2500 3097 2075 3097 
Q 1594 3097 1305 2825 
Q 1016 2553 972 2059 
L 3022 2063 
z
" transform="scale(0.015625)"/>
       <path id="DejaVuSans-63" d="M 3122 3366 
L 3122 2828 
Q 2878 2963 2633 3030 
Q 2388 3097 2138 3097 
Q 1578 3097 1268 2742 
Q 959 2388 959 1747 
Q 959 1106 1268 751 
Q 1578 397 2138 397 
Q 2388 397 2633 464 
Q 2878 531 3122 666 
L 3122 134 
Q 2881 22 2623 -34 
Q 2366 -91 2075 -91 
Q 1284 -91 818 406 
Q 353 903 353 1747 
Q 353 2603 823 3093 
Q 1294 3584 2113 3584 
Q 2378 3584 2631 3529 
Q 2884 3475 3122 3366 
z
" transform="scale(0.015625)"/>
       <path id="DejaVuSans-20" transform="scale(0.015625)"/>
       <path id="DejaVuSans-6f" d="M 1959 3097 
Q 1497 3097 1228 2736 
Q 959 2375 959 1747 
Q 959 1119 1226 758 
Q 1494 397 1959 397 
Q 2419 397 2687 759 
Q 2956 1122 2956 1747 
Q 2956 2369 2687 2733 
Q 2419 3097 1959 3097 
z
M 1959 3584 
Q 2709 3584 3137 3096 
Q 3566 2609 3566 1747 
Q 3566 888 3137 398 
Q 2709 -91 1959 -91 
Q 1206 -91 779 398 
Q 353 888 353 1747 
Q 353 2609 779 3096 
Q 1206 3584 1959 3584 
z
" transform="scale(0.015625)"/>
       <path id="DejaVuSans-73" d="M 2834 3397 
L 2834 2853 
Q 2591 2978 2328 3040 
Q 2066 3103 1784 3103 
Q 1356 3103 1142 2972 
Q 928 2841 928 2578 
Q 928 2378 1081 2264 
Q 1234 2150 1697 2047 
L 1894 2003 
Q 2506 1872 2764 1633 
Q 3022 1394 3022 966 
Q 3022 478 2636 193 
Q 2250 -91 1575 -91 
Q 1294 -91 989 -36 
Q 684 19 347 128 
L 347 722 
Q 666 556 975 473 
Q 1284 391 1588 391 
Q 1994 391 2212 530 
Q 2431 669 2431 922 
Q 2431 1156 2273 1281 
Q 2116 1406 1581 1522 
L 1381 1569 
Q 847 1681 609 1914 
Q 372 2147 372 2553 
Q 372 3047 722 3315 
Q 1072 3584 1716 3584 
Q 2034 3584 2315 3537 
Q 2597 3491 2834 3397 
z
" transform="scale(0.015625)"/>
       <path id="DejaVuSans-72" d="M 2631 2963 
Q 2534 3019 2420 3045 
Q 2306 3072 2169 3072 
Q 1681 3072 1420 2755 
Q 1159 2438 1159 1844 
L 1159 0 
L 581 0 
L 581 3500 
L 1159 3500 
L 1159 2956 
Q 1341 3275 1631 3429 
Q 1922 3584 2338 3584 
Q 2397 3584 2469 3576 
Q 2541 3569 2628 3553 
L 2631 2963 
z
" transform="scale(0.015625)"/>
       <path id="DejaVuSans-70" d="M 1159 525 
L 1159 -1331 
L 581 -1331 
L 581 3500 
L 1159 3500 
L 1159 2969 
Q 1341 3281 1617 3432 
Q 1894 3584 2278 3584 
Q 2916 3584 3314 3078 
Q 3713 2572 3713 1747 
Q 3713 922 3314 415 
Q 2916 -91 2278 -91 
Q 1894 -91 1617 61 
Q 1341 213 1159 525 
z
M 3116 1747 
Q 3116 2381 2855 2742 
Q 2594 3103 2138 3103 
Q 1681 3103 1420 2742 
Q 1159 2381 1159 1747 
Q 1159 1113 1420 752 
Q 1681 391 2138 391 
Q 2594 391 2855 752 
Q 3116 1113 3116 1747 
z
" transform="scale(0.015625)"/>
       <path id="DejaVuSans-69" d="M 603 3500 
L 1178 3500 
L 1178 0 
L 603 0 
L 603 3500 
z
M 603 4863 
L 1178 4863 
L 1178 4134 
L 603 4134 
L 603 4863 
z
" transform="scale(0.015625)"/>
       <path id="DejaVuSans-61" d="M 2194 1759 
Q 1497 1759 1228 1600 
Q 959 1441 959 1056 
Q 959 750 1161 570 
Q 1363 391 1709 391 
Q 2188 391 2477 730 
Q 2766 1069 2766 1631 
L 2766 1759 
L 2194 1759 
z
M 3341 1997 
L 3341 0 
L 2766 0 
L 2766 531 
Q 2569 213 2275 61 
Q 1981 -91 1556 -91 
Q 1019 -91 701 211 
Q 384 513 384 1019 
Q 384 1609 779 1909 
Q 1175 2209 1959 2209 
L 2766 2209 
L 2766 2266 
Q 2766 2663 2505 2880 
Q 2244 3097 1772 3097 
Q 1472 3097 1187 3025 
Q 903 2953 641 2809 
L 641 3341 
Q 956 3463 1253 3523 
Q 1550 3584 1831 3584 
Q 2591 3584 2966 3190 
Q 3341 2797 3341 1997 
z
" transform="scale(0.015625)"/>
       <path id="DejaVuSans-28" d="M 1984 4856 
Q 1566 4138 1362 3434 
Q 1159 2731 1159 2009 
Q 1159 1288 1364 580 
Q 1569 -128 1984 -844 
L 1484 -844 
Q 1016 -109 783 600 
Q 550 1309 550 2009 
Q 550 2706 781 3412 
Q 1013 4119 1484 4856 
L 1984 4856 
z
" transform="scale(0.015625)"/>
       <path id="DejaVuSans-6d" d="M 3328 2828 
Q 3544 3216 3844 3400 
Q 4144 3584 4550 3584 
Q 5097 3584 5394 3201 
Q 5691 2819 5691 2113 
L 5691 0 
L 5113 0 
L 5113 2094 
Q 5113 2597 4934 2840 
Q 4756 3084 4391 3084 
Q 3944 3084 3684 2787 
Q 3425 2491 3425 1978 
L 3425 0 
L 2847 0 
L 2847 2094 
Q 2847 2600 2669 2842 
Q 2491 3084 2119 3084 
Q 1678 3084 1418 2786 
Q 1159 2488 1159 1978 
L 1159 0 
L 581 0 
L 581 3500 
L 1159 3500 
L 1159 2956 
Q 1356 3278 1631 3431 
Q 1906 3584 2284 3584 
Q 2666 3584 2933 3390 
Q 3200 3197 3328 2828 
z
" transform="scale(0.015625)"/>
       <path id="DejaVuSans-74" d="M 1172 4494 
L 1172 3500 
L 2356 3500 
L 2356 3053 
L 1172 3053 
L 1172 1153 
Q 1172 725 1289 603 
Q 1406 481 1766 481 
L 2356 481 
L 2356 0 
L 1766 0 
Q 1100 0 847 248 
Q 594 497 594 1153 
L 594 3053 
L 172 3053 
L 172 3500 
L 594 3500 
L 594 4494 
L 1172 4494 
z
" transform="scale(0.015625)"/>
       <path id="DejaVuSans-29" d="M 513 4856 
L 1013 4856 
Q 1481 4119 1714 3412 
Q 1947 2706 1947 2009 
Q 1947 1309 1714 600 
Q 1481 -109 1013 -844 
L 513 -844 
Q 928 -128 1133 580 
Q 1338 1288 1338 2009 
Q 1338 2731 1133 3434 
Q 928 4138 513 4856 
z
" transform="scale(0.015625)"/>
      </defs>
      <use xlink:href="#DejaVuSans-49"/>
      <use xlink:href="#DejaVuSans-6e" x="29.492188"/>
      <use xlink:href="#DejaVuSans-66" x="92.871094"/>
      <use xlink:href="#DejaVuSans-6c" x="128.076172"/>
      <use xlink:href="#DejaVuSans-75" x="155.859375"/>
      <use xlink:href="#DejaVuSans-65" x="219.238281"/>
      <use xlink:href="#DejaVuSans-6e" x="280.761719"/>
      <use xlink:href="#DejaVuSans-63" x="344.140625"/>
      <use xlink:href="#DejaVuSans-65" x="399.121094"/>
      <use xlink:href="#DejaVuSans-20" x="460.644531"/>
      <use xlink:href="#DejaVuSans-6f" x="492.431641"/>
      <use xlink:href="#DejaVuSans-66" x="553.613281"/>
      <use xlink:href="#DejaVuSans-20" x="588.818359"/>
      <use xlink:href="#DejaVuSans-73" x="620.605469"/>
      <use xlink:href="#DejaVuSans-75" x="672.705078"/>
      <use xlink:href="#DejaVuSans-72" x="736.083984"/>
      <use xlink:href="#DejaVuSans-70" x="777.197266"/>
      <use xlink:href="#DejaVuSans-72" x="840.673828"/>
      <use xlink:href="#DejaVuSans-69" x="881.787109"/>
      <use xlink:href="#DejaVuSans-73" x="909.570312"/>
      <use xlink:href="#DejaVuSans-61" x="961.669922"/>
      <use xlink:href="#DejaVuSans-6c" x="1022.949219"/>
      <use xlink:href="#DejaVuSans-20" x="1050.732422"/>
      <use xlink:href="#DejaVuSans-28" x="1082.519531"/>
      <use xlink:href="#DejaVuSans-6d" x="1121.533203"/>
      <use xlink:href="#DejaVuSans-75" x="1218.945312"/>
      <use xlink:href="#DejaVuSans-6c" x="1282.324219"/>
      <use xlink:href="#DejaVuSans-74" x="1310.107422"/>
      <use xlink:href="#DejaVuSans-69" x="1349.316406"/>
      <use xlink:href="#DejaVuSans-70" x="1377.099609"/>
      <use xlink:href="#DejaVuSans-6c" x="1440.576172"/>
      <use xlink:href="#DejaVuSans-69" x="1468.359375"/>
      <use xlink:href="#DejaVuSans-63" x="1496.142578"/>
      <use xlink:href="#DejaVuSans-61" x="1551.123047"/>
      <use xlink:href="#DejaVuSans-74" x="1612.402344"/>
      <use xlink:href="#DejaVuSans-69" x="1651.611328"/>
      <use xlink:href="#DejaVuSans-6f" x="1679.394531"/>
      <use xlink:href="#DejaVuSans-6e" x="1740.576172"/>
      <use xlink:href="#DejaVuSans-29" x="1803.955078"/>
     </g>
    </g>
   </g>
   <g id="matplotlib.axis_2">
    <g id="ytick_1">
     <g id="line2d_6">
      <defs>
       <path id="m0aacdb7ea6" d="M 0 0 
L -3.5 0 
" style="stroke: #000000; stroke-width: 0.8"/>
      </defs>
      <g>
       <use xlink:href="#m0aacdb7ea6" x="47.72" y="154.645251" style="stroke: #000000; stroke-width: 0.8"/>
      </g>
     </g>
     <g id="text_7">
      <!-- 0.2 -->
      <g transform="translate(24.816875 158.44447)scale(0.1 -0.1)">
       <use xlink:href="#DejaVuSans-30"/>
       <use xlink:href="#DejaVuSans-2e" x="63.623047"/>
       <use xlink:href="#DejaVuSans-32" x="95.410156"/>
      </g>
     </g>
    </g>
    <g id="ytick_2">
     <g id="line2d_7">
      <g>
       <use xlink:href="#m0aacdb7ea6" x="47.72" y="122.311372" style="stroke: #000000; stroke-width: 0.8"/>
      </g>
     </g>
     <g id="text_8">
      <!-- 0.4 -->
      <g transform="translate(24.816875 126.110591)scale(0.1 -0.1)">
       <defs>
        <path id="DejaVuSans-34" d="M 2419 4116 
L 825 1625 
L 2419 1625 
L 2419 4116 
z
M 2253 4666 
L 3047 4666 
L 3047 1625 
L 3713 1625 
L 3713 1100 
L 3047 1100 
L 3047 0 
L 2419 0 
L 2419 1100 
L 313 1100 
L 313 1709 
L 2253 4666 
z
" transform="scale(0.015625)"/>
       </defs>
       <use xlink:href="#DejaVuSans-30"/>
       <use xlink:href="#DejaVuSans-2e" x="63.623047"/>
       <use xlink:href="#DejaVuSans-34" x="95.410156"/>
      </g>
     </g>
    </g>
    <g id="ytick_3">
     <g id="line2d_8">
      <g>
       <use xlink:href="#m0aacdb7ea6" x="47.72" y="89.977492" style="stroke: #000000; stroke-width: 0.8"/>
      </g>
     </g>
     <g id="text_9">
      <!-- 0.6 -->
      <g transform="translate(24.816875 93.776711)scale(0.1 -0.1)">
       <defs>
        <path id="DejaVuSans-36" d="M 2113 2584 
Q 1688 2584 1439 2293 
Q 1191 2003 1191 1497 
Q 1191 994 1439 701 
Q 1688 409 2113 409 
Q 2538 409 2786 701 
Q 3034 994 3034 1497 
Q 3034 2003 2786 2293 
Q 2538 2584 2113 2584 
z
M 3366 4563 
L 3366 3988 
Q 3128 4100 2886 4159 
Q 2644 4219 2406 4219 
Q 1781 4219 1451 3797 
Q 1122 3375 1075 2522 
Q 1259 2794 1537 2939 
Q 1816 3084 2150 3084 
Q 2853 3084 3261 2657 
Q 3669 2231 3669 1497 
Q 3669 778 3244 343 
Q 2819 -91 2113 -91 
Q 1303 -91 875 529 
Q 447 1150 447 2328 
Q 447 3434 972 4092 
Q 1497 4750 2381 4750 
Q 2619 4750 2861 4703 
Q 3103 4656 3366 4563 
z
" transform="scale(0.015625)"/>
       </defs>
       <use xlink:href="#DejaVuSans-30"/>
       <use xlink:href="#DejaVuSans-2e" x="63.623047"/>
       <use xlink:href="#DejaVuSans-36" x="95.410156"/>
      </g>
     </g>
    </g>
    <g id="ytick_4">
     <g id="line2d_9">
      <g>
       <use xlink:href="#m0aacdb7ea6" x="47.72" y="57.643613" style="stroke: #000000; stroke-width: 0.8"/>
      </g>
     </g>
     <g id="text_10">
      <!-- 0.8 -->
      <g transform="translate(24.816875 61.442832)scale(0.1 -0.1)">
       <defs>
        <path id="DejaVuSans-38" d="M 2034 2216 
Q 1584 2216 1326 1975 
Q 1069 1734 1069 1313 
Q 1069 891 1326 650 
Q 1584 409 2034 409 
Q 2484 409 2743 651 
Q 3003 894 3003 1313 
Q 3003 1734 2745 1975 
Q 2488 2216 2034 2216 
z
M 1403 2484 
Q 997 2584 770 2862 
Q 544 3141 544 3541 
Q 544 4100 942 4425 
Q 1341 4750 2034 4750 
Q 2731 4750 3128 4425 
Q 3525 4100 3525 3541 
Q 3525 3141 3298 2862 
Q 3072 2584 2669 2484 
Q 3125 2378 3379 2068 
Q 3634 1759 3634 1313 
Q 3634 634 3220 271 
Q 2806 -91 2034 -91 
Q 1263 -91 848 271 
Q 434 634 434 1313 
Q 434 1759 690 2068 
Q 947 2378 1403 2484 
z
M 1172 3481 
Q 1172 3119 1398 2916 
Q 1625 2713 2034 2713 
Q 2441 2713 2670 2916 
Q 2900 3119 2900 3481 
Q 2900 3844 2670 4047 
Q 2441 4250 2034 4250 
Q 1625 4250 1398 4047 
Q 1172 3844 1172 3481 
z
" transform="scale(0.015625)"/>
       </defs>
       <use xlink:href="#DejaVuSans-30"/>
       <use xlink:href="#DejaVuSans-2e" x="63.623047"/>
       <use xlink:href="#DejaVuSans-38" x="95.410156"/>
      </g>
     </g>
    </g>
    <g id="text_11">
     <!-- R-value -->
     <g transform="translate(18.737188 119.064687)rotate(-90)scale(0.1 -0.1)">
      <defs>
       <path id="DejaVuSans-52" d="M 2841 2188 
Q 3044 2119 3236 1894 
Q 3428 1669 3622 1275 
L 4263 0 
L 3584 0 
L 2988 1197 
Q 2756 1666 2539 1819 
Q 2322 1972 1947 1972 
L 1259 1972 
L 1259 0 
L 628 0 
L 628 4666 
L 2053 4666 
Q 2853 4666 3247 4331 
Q 3641 3997 3641 3322 
Q 3641 2881 3436 2590 
Q 3231 2300 2841 2188 
z
M 1259 4147 
L 1259 2491 
L 2053 2491 
Q 2509 2491 2742 2702 
Q 2975 2913 2975 3322 
Q 2975 3731 2742 3939 
Q 2509 4147 2053 4147 
L 1259 4147 
z
" transform="scale(0.015625)"/>
       <path id="DejaVuSans-2d" d="M 313 2009 
L 1997 2009 
L 1997 1497 
L 313 1497 
L 313 2009 
z
" transform="scale(0.015625)"/>
       <path id="DejaVuSans-76" d="M 191 3500 
L 800 3500 
L 1894 563 
L 2988 3500 
L 3597 3500 
L 2284 0 
L 1503 0 
L 191 3500 
z
" transform="scale(0.015625)"/>
      </defs>
      <use xlink:href="#DejaVuSans-52"/>
      <use xlink:href="#DejaVuSans-2d" x="65.482422"/>
      <use xlink:href="#DejaVuSans-76" x="98.941406"/>
      <use xlink:href="#DejaVuSans-61" x="158.121094"/>
      <use xlink:href="#DejaVuSans-6c" x="219.400391"/>
      <use xlink:href="#DejaVuSans-75" x="247.183594"/>
      <use xlink:href="#DejaVuSans-65" x="310.5625"/>
     </g>
    </g>
   </g>
   <g id="line2d_10">
    <path d="M 47.72 34.072996 
L 59.167105 36.05407 
L 70.614211 41.479364 
L 82.061316 49.062381 
L 93.508421 58.435131 
L 104.955526 68.210127 
L 116.402632 78.332589 
L 127.849737 88.49966 
L 139.296842 96.877178 
L 150.743947 105.645936 
L 162.191053 113.218381 
L 173.638158 119.69578 
L 185.085263 125.815557 
L 196.532368 131.04979 
L 207.979474 135.390528 
L 219.426579 139.480045 
L 230.873684 143.088954 
L 242.320789 146.016546 
L 253.767895 149.390106 
L 265.215 151.406446 
" clip-path="url(#pec8944e391)" style="fill: none; stroke: #1f77b4; stroke-width: 1.5; stroke-linecap: square"/>
   </g>
   <g id="line2d_11">
    <path d="M 47.72 34.08508 
L 59.167105 35.318984 
L 70.614211 38.243379 
L 82.061316 42.508921 
L 93.508421 48.676738 
L 104.955526 55.638149 
L 116.402632 63.637817 
L 127.849737 72.300264 
L 139.296842 79.809303 
L 150.743947 88.379493 
L 162.191053 96.185197 
L 173.638158 103.432224 
L 185.085263 110.122273 
L 196.532368 116.269203 
L 207.979474 121.643231 
L 219.426579 126.689483 
L 230.873684 131.269194 
L 242.320789 135.067233 
L 253.767895 139.251393 
L 265.215 142.226016 
" clip-path="url(#pec8944e391)" style="fill: none; stroke: #ff7f0e; stroke-width: 1.5; stroke-linecap: square"/>
   </g>
   <g id="line2d_12">
    <path d="M 47.72 34.083831 
L 59.167105 35.553767 
L 70.614211 38.035675 
L 82.061316 41.077185 
L 93.508421 45.13579 
L 104.955526 49.290787 
L 116.402632 53.961976 
L 127.849737 58.976795 
L 139.296842 63.474687 
L 150.743947 68.746987 
L 162.191053 73.103582 
L 173.638158 77.765608 
L 185.085263 82.400167 
L 196.532368 86.415216 
L 207.979474 90.711022 
L 219.426579 94.839564 
L 230.873684 98.479548 
L 242.320789 102.04601 
L 253.767895 106.142224 
L 265.215 109.466671 
" clip-path="url(#pec8944e391)" style="fill: none; stroke: #2ca02c; stroke-width: 1.5; stroke-linecap: square"/>
   </g>
   <g id="line2d_13">
    <path d="M 47.72 34.092903 
L 59.167105 35.250979 
L 70.614211 37.162605 
L 82.061316 39.553573 
L 93.508421 43.156678 
L 104.955526 47.006079 
L 116.402632 51.585323 
L 127.849737 56.762489 
L 139.296842 61.311028 
L 150.743947 66.976103 
L 162.191053 71.451669 
L 173.638158 76.254195 
L 185.085263 80.993056 
L 196.532368 85.038078 
L 207.979474 89.322452 
L 219.426579 93.375107 
L 230.873684 96.787564 
L 242.320789 100.182307 
L 253.767895 104.066731 
L 265.215 107.079382 
" clip-path="url(#pec8944e391)" style="fill: none; stroke: #d62728; stroke-width: 1.5; stroke-linecap: square"/>
   </g>
   <g id="line2d_14">
    <path d="M 47.72 34.08296 
L 59.167105 36.066429 
L 70.614211 41.501446 
L 82.061316 49.07885 
L 93.508421 58.484763 
L 104.955526 68.264624 
L 116.402632 78.398674 
L 127.849737 88.662614 
L 139.296842 97.061642 
L 150.743947 105.926162 
L 162.191053 113.470842 
L 173.638158 120.096525 
L 185.085263 125.99337 
L 196.532368 131.440035 
L 207.979474 135.793372 
L 219.426579 140.012001 
L 230.873684 143.002291 
L 242.320789 146.635697 
L 253.767895 149.057598 
L 265.215 151.759873 
" clip-path="url(#pec8944e391)" style="fill: none; stroke: #9467bd; stroke-width: 1.5; stroke-linecap: square"/>
   </g>
   <g id="line2d_15">
    <path d="M 47.72 34.095563 
L 59.167105 35.328748 
L 70.614211 38.264111 
L 82.061316 42.520671 
L 93.508421 48.727579 
L 104.955526 55.686456 
L 116.402632 63.681774 
L 127.849737 72.431658 
L 139.296842 79.991411 
L 150.743947 88.565506 
L 162.191053 96.318702 
L 173.638158 103.722041 
L 185.085263 110.32991 
L 196.532368 116.563272 
L 207.979474 121.875003 
L 219.426579 127.06786 
L 230.873684 131.253782 
L 242.320789 135.491659 
L 253.767895 138.984154 
L 265.215 142.415832 
" clip-path="url(#pec8944e391)" style="fill: none; stroke: #8c564b; stroke-width: 1.5; stroke-linecap: square"/>
   </g>
   <g id="line2d_16">
    <path d="M 47.72 46.026935 
L 59.167105 48.517173 
L 70.614211 54.763409 
L 82.061316 63.654821 
L 93.508421 74.687703 
L 104.955526 85.778518 
L 116.402632 96.709733 
L 127.849737 107.575647 
L 139.296842 116.266965 
L 150.743947 125.015137 
L 162.191053 132.334635 
L 173.638158 138.264893 
L 185.085263 143.641369 
L 196.532368 148.182032 
L 207.979474 151.377136 
L 219.426579 154.78246 
L 230.873684 157.545557 
L 242.320789 159.609461 
L 253.767895 162.141077 
L 265.215 163.346552 
" clip-path="url(#pec8944e391)" style="fill: none; stroke: #e377c2; stroke-width: 1.5; stroke-linecap: square"/>
   </g>
   <g id="line2d_17">
    <path d="M 47.72 34.098158 
L 59.167105 34.688336 
L 70.614211 35.268544 
L 82.061316 36.773164 
L 93.508421 40.085532 
L 104.955526 44.949275 
L 116.402632 51.448322 
L 127.849737 59.188844 
L 139.296842 66.749093 
L 150.743947 75.533603 
L 162.191053 83.646114 
L 173.638158 91.81509 
L 185.085263 99.306474 
L 196.532368 106.013026 
L 207.979474 112.204842 
L 219.426579 118.054373 
L 230.873684 123.049407 
L 242.320789 127.469193 
L 253.767895 132.174214 
L 265.215 135.659793 
" clip-path="url(#pec8944e391)" style="fill: none; stroke: #7f7f7f; stroke-width: 1.5; stroke-linecap: square"/>
   </g>
   <g id="patch_3">
    <path d="M 47.72 174.04 
L 47.72 26.88 
" style="fill: none; stroke: #000000; stroke-width: 0.8; stroke-linejoin: miter; stroke-linecap: square"/>
   </g>
   <g id="patch_4">
    <path d="M 47.72 174.04 
L 265.215 174.04 
" style="fill: none; stroke: #000000; stroke-width: 0.8; stroke-linejoin: miter; stroke-linecap: square"/>
   </g>
   <g id="text_12">
    <!-- Node * surprisal -->
    <g transform="translate(108.18625 20.88)scale(0.12 -0.12)">
     <defs>
      <path id="DejaVuSans-4e" d="M 628 4666 
L 1478 4666 
L 3547 763 
L 3547 4666 
L 4159 4666 
L 4159 0 
L 3309 0 
L 1241 3903 
L 1241 0 
L 628 0 
L 628 4666 
z
" transform="scale(0.015625)"/>
      <path id="DejaVuSans-64" d="M 2906 2969 
L 2906 4863 
L 3481 4863 
L 3481 0 
L 2906 0 
L 2906 525 
Q 2725 213 2448 61 
Q 2172 -91 1784 -91 
Q 1150 -91 751 415 
Q 353 922 353 1747 
Q 353 2572 751 3078 
Q 1150 3584 1784 3584 
Q 2172 3584 2448 3432 
Q 2725 3281 2906 2969 
z
M 947 1747 
Q 947 1113 1208 752 
Q 1469 391 1925 391 
Q 2381 391 2643 752 
Q 2906 1113 2906 1747 
Q 2906 2381 2643 2742 
Q 2381 3103 1925 3103 
Q 1469 3103 1208 2742 
Q 947 2381 947 1747 
z
" transform="scale(0.015625)"/>
      <path id="DejaVuSans-2a" d="M 3009 3897 
L 1888 3291 
L 3009 2681 
L 2828 2375 
L 1778 3009 
L 1778 1831 
L 1422 1831 
L 1422 3009 
L 372 2375 
L 191 2681 
L 1313 3291 
L 191 3897 
L 372 4206 
L 1422 3572 
L 1422 4750 
L 1778 4750 
L 1778 3572 
L 2828 4206 
L 3009 3897 
z
" transform="scale(0.015625)"/>
     </defs>
     <use xlink:href="#DejaVuSans-4e"/>
     <use xlink:href="#DejaVuSans-6f" x="74.804688"/>
     <use xlink:href="#DejaVuSans-64" x="135.986328"/>
     <use xlink:href="#DejaVuSans-65" x="199.462891"/>
     <use xlink:href="#DejaVuSans-20" x="260.986328"/>
     <use xlink:href="#DejaVuSans-2a" x="292.773438"/>
     <use xlink:href="#DejaVuSans-20" x="342.773438"/>
     <use xlink:href="#DejaVuSans-73" x="374.560547"/>
     <use xlink:href="#DejaVuSans-75" x="426.660156"/>
     <use xlink:href="#DejaVuSans-72" x="490.039062"/>
     <use xlink:href="#DejaVuSans-70" x="531.152344"/>
     <use xlink:href="#DejaVuSans-72" x="594.628906"/>
     <use xlink:href="#DejaVuSans-69" x="635.742188"/>
     <use xlink:href="#DejaVuSans-73" x="663.525391"/>
     <use xlink:href="#DejaVuSans-61" x="715.625"/>
     <use xlink:href="#DejaVuSans-6c" x="776.904297"/>
    </g>
   </g>
  </g>
  <g id="axes_2">
   <g id="patch_5">
    <path d="M 298.065 174.04 
L 515.56 174.04 
L 515.56 26.88 
L 298.065 26.88 
z
" style="fill: #ffffff"/>
   </g>
   <g id="PolyCollection_9">
    <path d="M 298.065 33.569091 
L 298.065 34.285459 
L 309.512105 36.48548 
L 320.959211 41.87669 
L 332.406316 49.986878 
L 343.853421 59.608834 
L 355.300526 69.575245 
L 366.747632 80.360646 
L 378.194737 91.161126 
L 389.641842 100.259404 
L 401.088947 109.428293 
L 412.536053 117.511299 
L 423.983158 124.6568 
L 435.430263 130.818638 
L 446.877368 136.764155 
L 458.324474 141.753018 
L 469.771579 146.524045 
L 481.218684 151.097866 
L 492.665789 154.782481 
L 504.112895 158.517098 
L 515.56 161.606654 
L 515.56 150.578006 
L 515.56 150.578006 
L 504.112895 147.896615 
L 492.665789 144.795758 
L 481.218684 141.518962 
L 469.771579 137.28619 
L 458.324474 132.93102 
L 446.877368 127.736413 
L 435.430263 122.607271 
L 423.983158 116.354947 
L 412.536053 109.072794 
L 401.088947 101.287061 
L 389.641842 93.738417 
L 378.194737 84.10419 
L 366.747632 75.432779 
L 355.300526 65.866555 
L 343.853421 56.521624 
L 332.406316 47.42028 
L 320.959211 40.825682 
L 309.512105 35.423894 
L 298.065 33.569091 
z
" clip-path="url(#pd0a3d18f7c)" style="fill: #1f77b4; fill-opacity: 0.4"/>
   </g>
   <g id="PolyCollection_10">
    <path d="M 298.065 33.586154 
L 298.065 34.307041 
L 309.512105 36.504347 
L 320.959211 41.901978 
L 332.406316 50.017626 
L 343.853421 59.645074 
L 355.300526 69.615745 
L 366.747632 80.368798 
L 378.194737 91.255982 
L 389.641842 100.335403 
L 401.088947 109.502182 
L 412.536053 117.617265 
L 423.983158 124.784279 
L 435.430263 131.000606 
L 446.877368 136.929542 
L 458.324474 142.066122 
L 469.771579 146.939313 
L 481.218684 151.698749 
L 492.665789 155.624191 
L 504.112895 159.396721 
L 515.56 162.566786 
L 515.56 150.819691 
L 515.56 150.819691 
L 504.112895 148.27271 
L 492.665789 144.991002 
L 481.218684 141.633947 
L 469.771579 137.541807 
L 458.324474 133.103047 
L 446.877368 127.826074 
L 435.430263 122.686073 
L 423.983158 116.402478 
L 412.536053 109.106701 
L 401.088947 101.336459 
L 389.641842 93.733116 
L 378.194737 84.089894 
L 366.747632 75.429002 
L 355.300526 65.860481 
L 343.853421 56.538209 
L 332.406316 47.423492 
L 320.959211 40.843995 
L 309.512105 35.434909 
L 298.065 33.586154 
z
" clip-path="url(#pd0a3d18f7c)" style="fill: #ff7f0e; fill-opacity: 0.4"/>
   </g>
   <g id="PolyCollection_11">
    <path d="M 298.065 33.592521 
L 298.065 34.296214 
L 309.512105 36.497562 
L 320.959211 41.892849 
L 332.406316 50.007172 
L 343.853421 59.616682 
L 355.300526 69.709117 
L 366.747632 80.504886 
L 378.194737 91.380107 
L 389.641842 100.406775 
L 401.088947 109.662593 
L 412.536053 117.713868 
L 423.983158 124.877335 
L 435.430263 130.978491 
L 446.877368 136.97464 
L 458.324474 141.936204 
L 469.771579 146.905465 
L 481.218684 151.551039 
L 492.665789 155.302509 
L 504.112895 159.225047 
L 515.56 162.316932 
L 515.56 151.738717 
L 515.56 151.738717 
L 504.112895 148.968765 
L 492.665789 145.676005 
L 481.218684 142.029648 
L 469.771579 138.04981 
L 458.324474 133.420237 
L 446.877368 128.127699 
L 435.430263 123.044338 
L 423.983158 116.599329 
L 412.536053 109.241899 
L 401.088947 101.439628 
L 389.641842 93.820604 
L 378.194737 84.156701 
L 366.747632 75.496521 
L 355.300526 65.89723 
L 343.853421 56.558364 
L 332.406316 47.425252 
L 320.959211 40.831015 
L 309.512105 35.453016 
L 298.065 33.592521 
z
" clip-path="url(#pd0a3d18f7c)" style="fill: #2ca02c; fill-opacity: 0.4"/>
   </g>
   <g id="PolyCollection_12">
    <path d="M 298.065 33.613246 
L 298.065 34.323842 
L 309.512105 36.521398 
L 320.959211 41.913867 
L 332.406316 50.054871 
L 343.853421 59.666199 
L 355.300526 69.758611 
L 366.747632 80.541854 
L 378.194737 91.470992 
L 389.641842 100.589801 
L 401.088947 109.814079 
L 412.536053 117.925421 
L 423.983158 125.080648 
L 435.430263 131.250463 
L 446.877368 137.231633 
L 458.324474 142.406218 
L 469.771579 147.34984 
L 481.218684 152.196846 
L 492.665789 155.904912 
L 504.112895 159.798444 
L 515.56 163.006446 
L 515.56 152.002014 
L 515.56 152.002014 
L 504.112895 149.396063 
L 492.665789 145.888582 
L 481.218684 142.192139 
L 469.771579 138.205718 
L 458.324474 133.563846 
L 446.877368 128.223909 
L 435.430263 123.179066 
L 423.983158 116.65758 
L 412.536053 109.281214 
L 401.088947 101.53702 
L 389.641842 93.892387 
L 378.194737 84.203642 
L 366.747632 75.567229 
L 355.300526 65.939688 
L 343.853421 56.630907 
L 332.406316 47.463033 
L 320.959211 40.860396 
L 309.512105 35.463757 
L 298.065 33.613246 
z
" clip-path="url(#pd0a3d18f7c)" style="fill: #d62728; fill-opacity: 0.4"/>
   </g>
   <g id="PolyCollection_13">
    <path d="M 298.065 33.589176 
L 298.065 34.288962 
L 309.512105 36.498995 
L 320.959211 41.899119 
L 332.406316 50.148895 
L 343.853421 59.636066 
L 355.300526 69.669512 
L 366.747632 80.508607 
L 378.194737 91.210183 
L 389.641842 100.607187 
L 401.088947 109.553982 
L 412.536053 117.650408 
L 423.983158 125.028148 
L 435.430263 131.429454 
L 446.877368 137.235124 
L 458.324474 142.346545 
L 469.771579 146.122689 
L 481.218684 152.431123 
L 492.665789 155.77945 
L 504.112895 159.570192 
L 515.56 162.647432 
L 515.56 150.824645 
L 515.56 150.824645 
L 504.112895 147.136454 
L 492.665789 145.114018 
L 481.218684 142.738536 
L 469.771579 137.86391 
L 458.324474 133.335018 
L 446.877368 127.961074 
L 435.430263 122.582593 
L 423.983158 117.020887 
L 412.536053 108.79652 
L 401.088947 101.926021 
L 389.641842 94.621718 
L 378.194737 84.269527 
L 366.747632 75.661614 
L 355.300526 66.016937 
L 343.853421 56.511055 
L 332.406316 47.403676 
L 320.959211 40.847126 
L 309.512105 35.453131 
L 298.065 33.589176 
z
" clip-path="url(#pd0a3d18f7c)" style="fill: #9467bd; fill-opacity: 0.4"/>
   </g>
   <g id="PolyCollection_14">
    <path d="M 298.065 33.606671 
L 298.065 34.311679 
L 309.512105 36.518137 
L 320.959211 41.926447 
L 332.406316 50.182026 
L 343.853421 59.674018 
L 355.300526 69.708036 
L 366.747632 80.502583 
L 378.194737 91.303957 
L 389.641842 100.674374 
L 401.088947 109.632437 
L 412.536053 117.772332 
L 423.983158 125.15544 
L 435.430263 131.597645 
L 446.877368 137.395596 
L 458.324474 142.638979 
L 469.771579 146.545915 
L 481.218684 153.007607 
L 492.665789 156.38793 
L 504.112895 160.386423 
L 515.56 163.592342 
L 515.56 150.939041 
L 515.56 150.939041 
L 504.112895 147.488188 
L 492.665789 145.571133 
L 481.218684 142.840825 
L 469.771579 138.100474 
L 458.324474 133.531973 
L 446.877368 128.027417 
L 435.430263 122.679888 
L 423.983158 117.057331 
L 412.536053 108.814535 
L 401.088947 101.965917 
L 389.641842 94.631442 
L 378.194737 84.254447 
L 366.747632 75.66265 
L 355.300526 66.018155 
L 343.853421 56.535224 
L 332.406316 47.405159 
L 320.959211 40.866589 
L 309.512105 35.465068 
L 298.065 33.606671 
z
" clip-path="url(#pd0a3d18f7c)" style="fill: #8c564b; fill-opacity: 0.4"/>
   </g>
   <g id="PolyCollection_15">
    <path d="M 298.065 44.278925 
L 298.065 47.627346 
L 309.512105 49.517358 
L 320.959211 54.321598 
L 332.406316 61.522369 
L 343.853421 70.367442 
L 355.300526 79.136223 
L 366.747632 89.41362 
L 378.194737 98.6098 
L 389.641842 107.491615 
L 401.088947 115.966168 
L 412.536053 123.35538 
L 423.983158 130.467747 
L 435.430263 135.945118 
L 446.877368 141.488461 
L 458.324474 145.819484 
L 469.771579 150.058382 
L 481.218684 154.253156 
L 492.665789 157.330807 
L 504.112895 160.075085 
L 515.56 162.567931 
L 515.56 153.811808 
L 515.56 153.811808 
L 504.112895 151.221079 
L 492.665789 147.667164 
L 481.218684 144.355038 
L 469.771579 140.448079 
L 458.324474 136.275822 
L 446.877368 131.514935 
L 435.430263 126.748795 
L 423.983158 121.1041 
L 412.536053 114.372749 
L 401.088947 107.711279 
L 389.641842 101.300287 
L 378.194737 91.98189 
L 366.747632 83.92819 
L 355.300526 74.971858 
L 343.853421 66.184238 
L 332.406316 57.722136 
L 320.959211 50.829816 
L 309.512105 46.124565 
L 298.065 44.278925 
z
" clip-path="url(#pd0a3d18f7c)" style="fill: #e377c2; fill-opacity: 0.4"/>
   </g>
   <g id="PolyCollection_16">
    <path d="M 298.065 33.597405 
L 298.065 34.317033 
L 309.512105 36.505033 
L 320.959211 41.91825 
L 332.406316 50.034613 
L 343.853421 59.631493 
L 355.300526 69.6928 
L 366.747632 80.419716 
L 378.194737 91.271239 
L 389.641842 100.365 
L 401.088947 109.569805 
L 412.536053 117.690972 
L 423.983158 124.962271 
L 435.430263 131.229836 
L 446.877368 137.310485 
L 458.324474 142.524806 
L 469.771579 147.446252 
L 481.218684 152.402064 
L 492.665789 156.382261 
L 504.112895 160.068872 
L 515.56 163.557213 
L 515.56 151.673789 
L 515.56 151.673789 
L 504.112895 148.940301 
L 492.665789 145.564086 
L 481.218684 141.937758 
L 469.771579 137.778989 
L 458.324474 133.299131 
L 446.877368 127.932353 
L 435.430263 122.687375 
L 423.983158 116.404183 
L 412.536053 109.226129 
L 401.088947 101.453149 
L 389.641842 93.745421 
L 378.194737 84.136665 
L 366.747632 75.448423 
L 355.300526 65.8644 
L 343.853421 56.576281 
L 332.406316 47.444748 
L 320.959211 40.851267 
L 309.512105 35.457902 
L 298.065 33.597405 
z
" clip-path="url(#pd0a3d18f7c)" style="fill: #7f7f7f; fill-opacity: 0.4"/>
   </g>
   <g id="matplotlib.axis_3">
    <g id="xtick_6">
     <g id="line2d_18">
      <g>
       <use xlink:href="#m8dcd1b5971" x="298.065" y="174.04" style="stroke: #000000; stroke-width: 0.8"/>
      </g>
     </g>
     <g id="text_13">
      <!-- 0.0 -->
      <g transform="translate(290.113437 188.638438)scale(0.1 -0.1)">
       <use xlink:href="#DejaVuSans-30"/>
       <use xlink:href="#DejaVuSans-2e" x="63.623047"/>
       <use xlink:href="#DejaVuSans-30" x="95.410156"/>
      </g>
     </g>
    </g>
    <g id="xtick_7">
     <g id="line2d_19">
      <g>
       <use xlink:href="#m8dcd1b5971" x="352.43875" y="174.04" style="stroke: #000000; stroke-width: 0.8"/>
      </g>
     </g>
     <g id="text_14">
      <!-- 0.5 -->
      <g transform="translate(344.487187 188.638438)scale(0.1 -0.1)">
       <use xlink:href="#DejaVuSans-30"/>
       <use xlink:href="#DejaVuSans-2e" x="63.623047"/>
       <use xlink:href="#DejaVuSans-35" x="95.410156"/>
      </g>
     </g>
    </g>
    <g id="xtick_8">
     <g id="line2d_20">
      <g>
       <use xlink:href="#m8dcd1b5971" x="406.8125" y="174.04" style="stroke: #000000; stroke-width: 0.8"/>
      </g>
     </g>
     <g id="text_15">
      <!-- 1.0 -->
      <g transform="translate(398.860937 188.638438)scale(0.1 -0.1)">
       <use xlink:href="#DejaVuSans-31"/>
       <use xlink:href="#DejaVuSans-2e" x="63.623047"/>
       <use xlink:href="#DejaVuSans-30" x="95.410156"/>
      </g>
     </g>
    </g>
    <g id="xtick_9">
     <g id="line2d_21">
      <g>
       <use xlink:href="#m8dcd1b5971" x="461.18625" y="174.04" style="stroke: #000000; stroke-width: 0.8"/>
      </g>
     </g>
     <g id="text_16">
      <!-- 1.5 -->
      <g transform="translate(453.234687 188.638438)scale(0.1 -0.1)">
       <use xlink:href="#DejaVuSans-31"/>
       <use xlink:href="#DejaVuSans-2e" x="63.623047"/>
       <use xlink:href="#DejaVuSans-35" x="95.410156"/>
      </g>
     </g>
    </g>
    <g id="xtick_10">
     <g id="line2d_22">
      <g>
       <use xlink:href="#m8dcd1b5971" x="515.56" y="174.04" style="stroke: #000000; stroke-width: 0.8"/>
      </g>
     </g>
     <g id="text_17">
      <!-- 2.0 -->
      <g transform="translate(507.608437 188.638438)scale(0.1 -0.1)">
       <use xlink:href="#DejaVuSans-32"/>
       <use xlink:href="#DejaVuSans-2e" x="63.623047"/>
       <use xlink:href="#DejaVuSans-30" x="95.410156"/>
      </g>
     </g>
    </g>
    <g id="text_18">
     <!-- Influence of surprisal (multiplication) -->
     <g transform="translate(314.665625 202.316563)scale(0.1 -0.1)">
      <use xlink:href="#DejaVuSans-49"/>
      <use xlink:href="#DejaVuSans-6e" x="29.492188"/>
      <use xlink:href="#DejaVuSans-66" x="92.871094"/>
      <use xlink:href="#DejaVuSans-6c" x="128.076172"/>
      <use xlink:href="#DejaVuSans-75" x="155.859375"/>
      <use xlink:href="#DejaVuSans-65" x="219.238281"/>
      <use xlink:href="#DejaVuSans-6e" x="280.761719"/>
      <use xlink:href="#DejaVuSans-63" x="344.140625"/>
      <use xlink:href="#DejaVuSans-65" x="399.121094"/>
      <use xlink:href="#DejaVuSans-20" x="460.644531"/>
      <use xlink:href="#DejaVuSans-6f" x="492.431641"/>
      <use xlink:href="#DejaVuSans-66" x="553.613281"/>
      <use xlink:href="#DejaVuSans-20" x="588.818359"/>
      <use xlink:href="#DejaVuSans-73" x="620.605469"/>
      <use xlink:href="#DejaVuSans-75" x="672.705078"/>
      <use xlink:href="#DejaVuSans-72" x="736.083984"/>
      <use xlink:href="#DejaVuSans-70" x="777.197266"/>
      <use xlink:href="#DejaVuSans-72" x="840.673828"/>
      <use xlink:href="#DejaVuSans-69" x="881.787109"/>
      <use xlink:href="#DejaVuSans-73" x="909.570312"/>
      <use xlink:href="#DejaVuSans-61" x="961.669922"/>
      <use xlink:href="#DejaVuSans-6c" x="1022.949219"/>
      <use xlink:href="#DejaVuSans-20" x="1050.732422"/>
      <use xlink:href="#DejaVuSans-28" x="1082.519531"/>
      <use xlink:href="#DejaVuSans-6d" x="1121.533203"/>
      <use xlink:href="#DejaVuSans-75" x="1218.945312"/>
      <use xlink:href="#DejaVuSans-6c" x="1282.324219"/>
      <use xlink:href="#DejaVuSans-74" x="1310.107422"/>
      <use xlink:href="#DejaVuSans-69" x="1349.316406"/>
      <use xlink:href="#DejaVuSans-70" x="1377.099609"/>
      <use xlink:href="#DejaVuSans-6c" x="1440.576172"/>
      <use xlink:href="#DejaVuSans-69" x="1468.359375"/>
      <use xlink:href="#DejaVuSans-63" x="1496.142578"/>
      <use xlink:href="#DejaVuSans-61" x="1551.123047"/>
      <use xlink:href="#DejaVuSans-74" x="1612.402344"/>
      <use xlink:href="#DejaVuSans-69" x="1651.611328"/>
      <use xlink:href="#DejaVuSans-6f" x="1679.394531"/>
      <use xlink:href="#DejaVuSans-6e" x="1740.576172"/>
      <use xlink:href="#DejaVuSans-29" x="1803.955078"/>
     </g>
    </g>
   </g>
   <g id="line2d_23">
    <path d="M 298.065 33.927275 
L 309.512105 35.954687 
L 320.959211 41.351186 
L 332.406316 48.703579 
L 343.853421 58.065229 
L 355.300526 67.7209 
L 366.747632 77.896713 
L 378.194737 87.632658 
L 389.641842 96.998911 
L 401.088947 105.357677 
L 412.536053 113.292047 
L 423.983158 120.505873 
L 435.430263 126.712954 
L 446.877368 132.250284 
L 458.324474 137.342019 
L 469.771579 141.905118 
L 481.218684 146.308414 
L 492.665789 149.78912 
L 504.112895 153.206856 
L 515.56 156.09233 
" clip-path="url(#pd0a3d18f7c)" style="fill: none; stroke: #1f77b4; stroke-width: 1.5; stroke-linecap: square"/>
   </g>
   <g id="line2d_24">
    <path d="M 298.065 33.946598 
L 309.512105 35.969628 
L 320.959211 41.372987 
L 332.406316 48.720559 
L 343.853421 58.091642 
L 355.300526 67.738113 
L 366.747632 77.8989 
L 378.194737 87.672938 
L 389.641842 97.034259 
L 401.088947 105.41932 
L 412.536053 113.361983 
L 423.983158 120.593378 
L 435.430263 126.84334 
L 446.877368 132.377808 
L 458.324474 137.584584 
L 469.771579 142.24056 
L 481.218684 146.666348 
L 492.665789 150.307596 
L 504.112895 153.834716 
L 515.56 156.693238 
" clip-path="url(#pd0a3d18f7c)" style="fill: none; stroke: #ff7f0e; stroke-width: 1.5; stroke-linecap: square"/>
   </g>
   <g id="line2d_25">
    <path d="M 298.065 33.944367 
L 309.512105 35.975289 
L 320.959211 41.361932 
L 332.406316 48.716212 
L 343.853421 58.087523 
L 355.300526 67.803173 
L 366.747632 78.000704 
L 378.194737 87.768404 
L 389.641842 97.11369 
L 401.088947 105.551111 
L 412.536053 113.477883 
L 423.983158 120.738332 
L 435.430263 127.011414 
L 446.877368 132.55117 
L 458.324474 137.67822 
L 469.771579 142.477637 
L 481.218684 146.790343 
L 492.665789 150.489257 
L 504.112895 154.096906 
L 515.56 157.027825 
" clip-path="url(#pd0a3d18f7c)" style="fill: none; stroke: #2ca02c; stroke-width: 1.5; stroke-linecap: square"/>
   </g>
   <g id="line2d_26">
    <path d="M 298.065 33.968544 
L 309.512105 35.992577 
L 320.959211 41.387131 
L 332.406316 48.758952 
L 343.853421 58.148553 
L 355.300526 67.84915 
L 366.747632 78.054542 
L 378.194737 87.837317 
L 389.641842 97.241094 
L 401.088947 105.67555 
L 412.536053 113.603317 
L 423.983158 120.869114 
L 435.430263 127.214765 
L 446.877368 132.727771 
L 458.324474 137.985032 
L 469.771579 142.777779 
L 481.218684 147.194493 
L 492.665789 150.896747 
L 504.112895 154.597254 
L 515.56 157.50423 
" clip-path="url(#pd0a3d18f7c)" style="fill: none; stroke: #d62728; stroke-width: 1.5; stroke-linecap: square"/>
   </g>
   <g id="line2d_27">
    <path d="M 298.065 33.939069 
L 309.512105 35.976063 
L 320.959211 41.373123 
L 332.406316 48.776285 
L 343.853421 58.073561 
L 355.300526 67.843225 
L 366.747632 78.08511 
L 378.194737 87.739855 
L 389.641842 97.614452 
L 401.088947 105.740001 
L 412.536053 113.223464 
L 423.983158 121.024518 
L 435.430263 127.006023 
L 446.877368 132.598099 
L 458.324474 137.840782 
L 469.771579 141.9933 
L 481.218684 147.584829 
L 492.665789 150.446734 
L 504.112895 153.353323 
L 515.56 156.736038 
" clip-path="url(#pd0a3d18f7c)" style="fill: none; stroke: #9467bd; stroke-width: 1.5; stroke-linecap: square"/>
   </g>
   <g id="line2d_28">
    <path d="M 298.065 33.959175 
L 309.512105 35.991602 
L 320.959211 41.396518 
L 332.406316 48.793592 
L 343.853421 58.104621 
L 355.300526 67.863095 
L 366.747632 78.082616 
L 378.194737 87.779202 
L 389.641842 97.652908 
L 401.088947 105.799177 
L 412.536053 113.293433 
L 423.983158 121.106385 
L 435.430263 127.138766 
L 446.877368 132.711507 
L 458.324474 138.085476 
L 469.771579 142.323195 
L 481.218684 147.924216 
L 492.665789 150.979532 
L 504.112895 153.937306 
L 515.56 157.265692 
" clip-path="url(#pd0a3d18f7c)" style="fill: none; stroke: #8c564b; stroke-width: 1.5; stroke-linecap: square"/>
   </g>
   <g id="line2d_29">
    <path d="M 298.065 45.953136 
L 309.512105 47.820961 
L 320.959211 52.575707 
L 332.406316 59.622252 
L 343.853421 68.27584 
L 355.300526 77.054041 
L 366.747632 86.670905 
L 378.194737 95.295845 
L 389.641842 104.395951 
L 401.088947 111.838724 
L 412.536053 118.864065 
L 423.983158 125.785924 
L 435.430263 131.346956 
L 446.877368 136.501698 
L 458.324474 141.047653 
L 469.771579 145.253231 
L 481.218684 149.304097 
L 492.665789 152.498986 
L 504.112895 155.648082 
L 515.56 158.18987 
" clip-path="url(#pd0a3d18f7c)" style="fill: none; stroke: #e377c2; stroke-width: 1.5; stroke-linecap: square"/>
   </g>
   <g id="line2d_30">
    <path d="M 298.065 33.957219 
L 309.512105 35.981467 
L 320.959211 41.384758 
L 332.406316 48.739681 
L 343.853421 58.103887 
L 355.300526 67.7786 
L 366.747632 77.934069 
L 378.194737 87.703952 
L 389.641842 97.055211 
L 401.088947 105.511477 
L 412.536053 113.45855 
L 423.983158 120.683227 
L 435.430263 126.958606 
L 446.877368 132.621419 
L 458.324474 137.911969 
L 469.771579 142.61262 
L 481.218684 147.169911 
L 492.665789 150.973173 
L 504.112895 154.504586 
L 515.56 157.615501 
" clip-path="url(#pd0a3d18f7c)" style="fill: none; stroke: #7f7f7f; stroke-width: 1.5; stroke-linecap: square"/>
   </g>
   <g id="patch_6">
    <path d="M 298.065 174.04 
L 298.065 26.88 
" style="fill: none; stroke: #000000; stroke-width: 0.8; stroke-linejoin: miter; stroke-linecap: square"/>
   </g>
   <g id="patch_7">
    <path d="M 298.065 174.04 
L 515.56 174.04 
" style="fill: none; stroke: #000000; stroke-width: 0.8; stroke-linejoin: miter; stroke-linecap: square"/>
   </g>
   <g id="text_19">
    <!-- Node * third variable -->
    <g transform="translate(344.2325 20.88)scale(0.12 -0.12)">
     <defs>
      <path id="DejaVuSans-68" d="M 3513 2113 
L 3513 0 
L 2938 0 
L 2938 2094 
Q 2938 2591 2744 2837 
Q 2550 3084 2163 3084 
Q 1697 3084 1428 2787 
Q 1159 2491 1159 1978 
L 1159 0 
L 581 0 
L 581 4863 
L 1159 4863 
L 1159 2956 
Q 1366 3272 1645 3428 
Q 1925 3584 2291 3584 
Q 2894 3584 3203 3211 
Q 3513 2838 3513 2113 
z
" transform="scale(0.015625)"/>
      <path id="DejaVuSans-62" d="M 3116 1747 
Q 3116 2381 2855 2742 
Q 2594 3103 2138 3103 
Q 1681 3103 1420 2742 
Q 1159 2381 1159 1747 
Q 1159 1113 1420 752 
Q 1681 391 2138 391 
Q 2594 391 2855 752 
Q 3116 1113 3116 1747 
z
M 1159 2969 
Q 1341 3281 1617 3432 
Q 1894 3584 2278 3584 
Q 2916 3584 3314 3078 
Q 3713 2572 3713 1747 
Q 3713 922 3314 415 
Q 2916 -91 2278 -91 
Q 1894 -91 1617 61 
Q 1341 213 1159 525 
L 1159 0 
L 581 0 
L 581 4863 
L 1159 4863 
L 1159 2969 
z
" transform="scale(0.015625)"/>
     </defs>
     <use xlink:href="#DejaVuSans-4e"/>
     <use xlink:href="#DejaVuSans-6f" x="74.804688"/>
     <use xlink:href="#DejaVuSans-64" x="135.986328"/>
     <use xlink:href="#DejaVuSans-65" x="199.462891"/>
     <use xlink:href="#DejaVuSans-20" x="260.986328"/>
     <use xlink:href="#DejaVuSans-2a" x="292.773438"/>
     <use xlink:href="#DejaVuSans-20" x="342.773438"/>
     <use xlink:href="#DejaVuSans-74" x="374.560547"/>
     <use xlink:href="#DejaVuSans-68" x="413.769531"/>
     <use xlink:href="#DejaVuSans-69" x="477.148438"/>
     <use xlink:href="#DejaVuSans-72" x="504.931641"/>
     <use xlink:href="#DejaVuSans-64" x="544.294922"/>
     <use xlink:href="#DejaVuSans-20" x="607.771484"/>
     <use xlink:href="#DejaVuSans-76" x="639.558594"/>
     <use xlink:href="#DejaVuSans-61" x="698.738281"/>
     <use xlink:href="#DejaVuSans-72" x="760.017578"/>
     <use xlink:href="#DejaVuSans-69" x="801.130859"/>
     <use xlink:href="#DejaVuSans-61" x="828.914062"/>
     <use xlink:href="#DejaVuSans-62" x="890.193359"/>
     <use xlink:href="#DejaVuSans-6c" x="953.669922"/>
     <use xlink:href="#DejaVuSans-65" x="981.453125"/>
    </g>
   </g>
   <g id="legend_1">
    <g id="line2d_31">
     <path d="M 524.56 39.978437 
L 534.56 39.978437 
L 544.56 39.978437 
" style="fill: none; stroke: #1f77b4; stroke-width: 1.5; stroke-linecap: square"/>
    </g>
    <g id="text_20">
     <!-- Node -->
     <g transform="translate(552.56 43.478437)scale(0.1 -0.1)">
      <use xlink:href="#DejaVuSans-4e"/>
      <use xlink:href="#DejaVuSans-6f" x="74.804688"/>
      <use xlink:href="#DejaVuSans-64" x="135.986328"/>
      <use xlink:href="#DejaVuSans-65" x="199.462891"/>
     </g>
    </g>
    <g id="line2d_32">
     <path d="M 524.56 54.656563 
L 534.56 54.656563 
L 544.56 54.656563 
" style="fill: none; stroke: #ff7f0e; stroke-width: 1.5; stroke-linecap: square"/>
    </g>
    <g id="text_21">
     <!-- Node + surprisal -->
     <g transform="translate(552.56 58.156563)scale(0.1 -0.1)">
      <defs>
       <path id="DejaVuSans-2b" d="M 2944 4013 
L 2944 2272 
L 4684 2272 
L 4684 1741 
L 2944 1741 
L 2944 0 
L 2419 0 
L 2419 1741 
L 678 1741 
L 678 2272 
L 2419 2272 
L 2419 4013 
L 2944 4013 
z
" transform="scale(0.015625)"/>
      </defs>
      <use xlink:href="#DejaVuSans-4e"/>
      <use xlink:href="#DejaVuSans-6f" x="74.804688"/>
      <use xlink:href="#DejaVuSans-64" x="135.986328"/>
      <use xlink:href="#DejaVuSans-65" x="199.462891"/>
      <use xlink:href="#DejaVuSans-20" x="260.986328"/>
      <use xlink:href="#DejaVuSans-2b" x="292.773438"/>
      <use xlink:href="#DejaVuSans-20" x="376.5625"/>
      <use xlink:href="#DejaVuSans-73" x="408.349609"/>
      <use xlink:href="#DejaVuSans-75" x="460.449219"/>
      <use xlink:href="#DejaVuSans-72" x="523.828125"/>
      <use xlink:href="#DejaVuSans-70" x="564.941406"/>
      <use xlink:href="#DejaVuSans-72" x="628.417969"/>
      <use xlink:href="#DejaVuSans-69" x="669.53125"/>
      <use xlink:href="#DejaVuSans-73" x="697.314453"/>
      <use xlink:href="#DejaVuSans-61" x="749.414062"/>
      <use xlink:href="#DejaVuSans-6c" x="810.693359"/>
     </g>
    </g>
    <g id="line2d_33">
     <path d="M 524.56 69.334687 
L 534.56 69.334687 
L 544.56 69.334687 
" style="fill: none; stroke: #2ca02c; stroke-width: 1.5; stroke-linecap: square"/>
    </g>
    <g id="text_22">
     <!-- Node split -->
     <g transform="translate(552.56 72.834687)scale(0.1 -0.1)">
      <use xlink:href="#DejaVuSans-4e"/>
      <use xlink:href="#DejaVuSans-6f" x="74.804688"/>
      <use xlink:href="#DejaVuSans-64" x="135.986328"/>
      <use xlink:href="#DejaVuSans-65" x="199.462891"/>
      <use xlink:href="#DejaVuSans-20" x="260.986328"/>
      <use xlink:href="#DejaVuSans-73" x="292.773438"/>
      <use xlink:href="#DejaVuSans-70" x="344.873047"/>
      <use xlink:href="#DejaVuSans-6c" x="408.349609"/>
      <use xlink:href="#DejaVuSans-69" x="436.132812"/>
      <use xlink:href="#DejaVuSans-74" x="463.916016"/>
     </g>
    </g>
    <g id="line2d_34">
     <path d="M 524.56 84.012812 
L 534.56 84.012812 
L 544.56 84.012812 
" style="fill: none; stroke: #d62728; stroke-width: 1.5; stroke-linecap: square"/>
    </g>
    <g id="text_23">
     <!-- Node split + surprisal -->
     <g transform="translate(552.56 87.512812)scale(0.1 -0.1)">
      <use xlink:href="#DejaVuSans-4e"/>
      <use xlink:href="#DejaVuSans-6f" x="74.804688"/>
      <use xlink:href="#DejaVuSans-64" x="135.986328"/>
      <use xlink:href="#DejaVuSans-65" x="199.462891"/>
      <use xlink:href="#DejaVuSans-20" x="260.986328"/>
      <use xlink:href="#DejaVuSans-73" x="292.773438"/>
      <use xlink:href="#DejaVuSans-70" x="344.873047"/>
      <use xlink:href="#DejaVuSans-6c" x="408.349609"/>
      <use xlink:href="#DejaVuSans-69" x="436.132812"/>
      <use xlink:href="#DejaVuSans-74" x="463.916016"/>
      <use xlink:href="#DejaVuSans-20" x="503.125"/>
      <use xlink:href="#DejaVuSans-2b" x="534.912109"/>
      <use xlink:href="#DejaVuSans-20" x="618.701172"/>
      <use xlink:href="#DejaVuSans-73" x="650.488281"/>
      <use xlink:href="#DejaVuSans-75" x="702.587891"/>
      <use xlink:href="#DejaVuSans-72" x="765.966797"/>
      <use xlink:href="#DejaVuSans-70" x="807.080078"/>
      <use xlink:href="#DejaVuSans-72" x="870.556641"/>
      <use xlink:href="#DejaVuSans-69" x="911.669922"/>
      <use xlink:href="#DejaVuSans-73" x="939.453125"/>
      <use xlink:href="#DejaVuSans-61" x="991.552734"/>
      <use xlink:href="#DejaVuSans-6c" x="1052.832031"/>
     </g>
    </g>
    <g id="line2d_35">
     <path d="M 524.56 98.690937 
L 534.56 98.690937 
L 544.56 98.690937 
" style="fill: none; stroke: #9467bd; stroke-width: 1.5; stroke-linecap: square"/>
    </g>
    <g id="text_24">
     <!-- Node random split -->
     <g transform="translate(552.56 102.190937)scale(0.1 -0.1)">
      <use xlink:href="#DejaVuSans-4e"/>
      <use xlink:href="#DejaVuSans-6f" x="74.804688"/>
      <use xlink:href="#DejaVuSans-64" x="135.986328"/>
      <use xlink:href="#DejaVuSans-65" x="199.462891"/>
      <use xlink:href="#DejaVuSans-20" x="260.986328"/>
      <use xlink:href="#DejaVuSans-72" x="292.773438"/>
      <use xlink:href="#DejaVuSans-61" x="333.886719"/>
      <use xlink:href="#DejaVuSans-6e" x="395.166016"/>
      <use xlink:href="#DejaVuSans-64" x="458.544922"/>
      <use xlink:href="#DejaVuSans-6f" x="522.021484"/>
      <use xlink:href="#DejaVuSans-6d" x="583.203125"/>
      <use xlink:href="#DejaVuSans-20" x="680.615234"/>
      <use xlink:href="#DejaVuSans-73" x="712.402344"/>
      <use xlink:href="#DejaVuSans-70" x="764.501953"/>
      <use xlink:href="#DejaVuSans-6c" x="827.978516"/>
      <use xlink:href="#DejaVuSans-69" x="855.761719"/>
      <use xlink:href="#DejaVuSans-74" x="883.544922"/>
     </g>
    </g>
    <g id="line2d_36">
     <path d="M 524.56 113.369062 
L 534.56 113.369062 
L 544.56 113.369062 
" style="fill: none; stroke: #8c564b; stroke-width: 1.5; stroke-linecap: square"/>
    </g>
    <g id="text_25">
     <!-- Node random split + surprisal -->
     <g transform="translate(552.56 116.869062)scale(0.1 -0.1)">
      <use xlink:href="#DejaVuSans-4e"/>
      <use xlink:href="#DejaVuSans-6f" x="74.804688"/>
      <use xlink:href="#DejaVuSans-64" x="135.986328"/>
      <use xlink:href="#DejaVuSans-65" x="199.462891"/>
      <use xlink:href="#DejaVuSans-20" x="260.986328"/>
      <use xlink:href="#DejaVuSans-72" x="292.773438"/>
      <use xlink:href="#DejaVuSans-61" x="333.886719"/>
      <use xlink:href="#DejaVuSans-6e" x="395.166016"/>
      <use xlink:href="#DejaVuSans-64" x="458.544922"/>
      <use xlink:href="#DejaVuSans-6f" x="522.021484"/>
      <use xlink:href="#DejaVuSans-6d" x="583.203125"/>
      <use xlink:href="#DejaVuSans-20" x="680.615234"/>
      <use xlink:href="#DejaVuSans-73" x="712.402344"/>
      <use xlink:href="#DejaVuSans-70" x="764.501953"/>
      <use xlink:href="#DejaVuSans-6c" x="827.978516"/>
      <use xlink:href="#DejaVuSans-69" x="855.761719"/>
      <use xlink:href="#DejaVuSans-74" x="883.544922"/>
      <use xlink:href="#DejaVuSans-20" x="922.753906"/>
      <use xlink:href="#DejaVuSans-2b" x="954.541016"/>
      <use xlink:href="#DejaVuSans-20" x="1038.330078"/>
      <use xlink:href="#DejaVuSans-73" x="1070.117188"/>
      <use xlink:href="#DejaVuSans-75" x="1122.216797"/>
      <use xlink:href="#DejaVuSans-72" x="1185.595703"/>
      <use xlink:href="#DejaVuSans-70" x="1226.708984"/>
      <use xlink:href="#DejaVuSans-72" x="1290.185547"/>
      <use xlink:href="#DejaVuSans-69" x="1331.298828"/>
      <use xlink:href="#DejaVuSans-73" x="1359.082031"/>
      <use xlink:href="#DejaVuSans-61" x="1411.181641"/>
      <use xlink:href="#DejaVuSans-6c" x="1472.460938"/>
     </g>
    </g>
    <g id="line2d_37">
     <path d="M 524.56 128.047187 
L 534.56 128.047187 
L 544.56 128.047187 
" style="fill: none; stroke: #e377c2; stroke-width: 1.5; stroke-linecap: square"/>
    </g>
    <g id="text_26">
     <!-- Interaction -->
     <g transform="translate(552.56 131.547187)scale(0.1 -0.1)">
      <use xlink:href="#DejaVuSans-49"/>
      <use xlink:href="#DejaVuSans-6e" x="29.492188"/>
      <use xlink:href="#DejaVuSans-74" x="92.871094"/>
      <use xlink:href="#DejaVuSans-65" x="132.080078"/>
      <use xlink:href="#DejaVuSans-72" x="193.603516"/>
      <use xlink:href="#DejaVuSans-61" x="234.716797"/>
      <use xlink:href="#DejaVuSans-63" x="295.996094"/>
      <use xlink:href="#DejaVuSans-74" x="350.976562"/>
      <use xlink:href="#DejaVuSans-69" x="390.185547"/>
      <use xlink:href="#DejaVuSans-6f" x="417.96875"/>
      <use xlink:href="#DejaVuSans-6e" x="479.150391"/>
     </g>
    </g>
    <g id="line2d_38">
     <path d="M 524.56 142.725312 
L 534.56 142.725312 
L 544.56 142.725312 
" style="fill: none; stroke: #7f7f7f; stroke-width: 1.5; stroke-linecap: square"/>
    </g>
    <g id="text_27">
     <!-- Node + surprisal + interaction -->
     <g transform="translate(552.56 146.225312)scale(0.1 -0.1)">
      <use xlink:href="#DejaVuSans-4e"/>
      <use xlink:href="#DejaVuSans-6f" x="74.804688"/>
      <use xlink:href="#DejaVuSans-64" x="135.986328"/>
      <use xlink:href="#DejaVuSans-65" x="199.462891"/>
      <use xlink:href="#DejaVuSans-20" x="260.986328"/>
      <use xlink:href="#DejaVuSans-2b" x="292.773438"/>
      <use xlink:href="#DejaVuSans-20" x="376.5625"/>
      <use xlink:href="#DejaVuSans-73" x="408.349609"/>
      <use xlink:href="#DejaVuSans-75" x="460.449219"/>
      <use xlink:href="#DejaVuSans-72" x="523.828125"/>
      <use xlink:href="#DejaVuSans-70" x="564.941406"/>
      <use xlink:href="#DejaVuSans-72" x="628.417969"/>
      <use xlink:href="#DejaVuSans-69" x="669.53125"/>
      <use xlink:href="#DejaVuSans-73" x="697.314453"/>
      <use xlink:href="#DejaVuSans-61" x="749.414062"/>
      <use xlink:href="#DejaVuSans-6c" x="810.693359"/>
      <use xlink:href="#DejaVuSans-20" x="838.476562"/>
      <use xlink:href="#DejaVuSans-2b" x="870.263672"/>
      <use xlink:href="#DejaVuSans-20" x="954.052734"/>
      <use xlink:href="#DejaVuSans-69" x="985.839844"/>
      <use xlink:href="#DejaVuSans-6e" x="1013.623047"/>
      <use xlink:href="#DejaVuSans-74" x="1077.001953"/>
      <use xlink:href="#DejaVuSans-65" x="1116.210938"/>
      <use xlink:href="#DejaVuSans-72" x="1177.734375"/>
      <use xlink:href="#DejaVuSans-61" x="1218.847656"/>
      <use xlink:href="#DejaVuSans-63" x="1280.126953"/>
      <use xlink:href="#DejaVuSans-74" x="1335.107422"/>
      <use xlink:href="#DejaVuSans-69" x="1374.316406"/>
      <use xlink:href="#DejaVuSans-6f" x="1402.099609"/>
      <use xlink:href="#DejaVuSans-6e" x="1463.28125"/>
     </g>
    </g>
   </g>
  </g>
 </g>
 <defs>
  <clipPath id="pec8944e391">
   <rect x="47.72" y="26.88" width="217.495" height="147.16"/>
  </clipPath>
  <clipPath id="pd0a3d18f7c">
   <rect x="298.065" y="26.88" width="217.495" height="147.16"/>
  </clipPath>
 </defs>
</svg>
