<?xml version="1.0" encoding="utf-8" standalone="no"?>
<!DOCTYPE svg PUBLIC "-//W3C//DTD SVG 1.1//EN"
  "http://www.w3.org/Graphics/SVG/1.1/DTD/svg11.dtd">
<svg xmlns:xlink="http://www.w3.org/1999/xlink" width="720pt" height="216pt" viewBox="0 0 720 216" xmlns="http://www.w3.org/2000/svg" version="1.1">
 <metadata>
  <rdf:RDF xmlns:dc="http://purl.org/dc/elements/1.1/" xmlns:cc="http://creativecommons.org/ns#" xmlns:rdf="http://www.w3.org/1999/02/22-rdf-syntax-ns#">
   <cc:Work>
    <dc:type rdf:resource="http://purl.org/dc/dcmitype/StillImage"/>
    <dc:date>2024-01-16T08:01:17.276317</dc:date>
    <dc:format>image/svg+xml</dc:format>
    <dc:creator>
     <cc:Agent>
      <dc:title>Matplotlib v3.5.1, https://matplotlib.org/</dc:title>
     </cc:Agent>
    </dc:creator>
   </cc:Work>
  </rdf:RDF>
 </metadata>
 <defs>
  <style type="text/css">*{stroke-linejoin: round; stroke-linecap: butt}</style>
 </defs>
 <g id="figure_1">
  <g id="patch_1">
   <path d="M 0 216 
L 720 216 
L 720 0 
L 0 0 
z
" style="fill: #ffffff"/>
  </g>
  <g id="axes_1">
   <g id="patch_2">
    <path d="M 47.72 174.04 
L 265.215 174.04 
L 265.215 26.88 
L 47.72 26.88 
z
" style="fill: #ffffff"/>
   </g>
   <g id="PolyCollection_1">
    <path d="M 47.72 33.569091 
L 47.72 34.2024 
L 59.167105 36.545703 
L 70.614211 43.357483 
L 82.061316 51.989537 
L 93.508421 61.289425 
L 104.955526 72.090453 
L 116.402632 82.624795 
L 127.849737 93.51884 
L 139.296842 100.894598 
L 150.743947 110.457261 
L 162.191053 116.803996 
L 173.638158 124.021525 
L 185.085263 129.15696 
L 196.532368 135.971313 
L 207.979474 140.157388 
L 219.426579 144.896031 
L 230.873684 148.470822 
L 242.320789 151.649103 
L 253.767895 154.612155 
L 265.215 156.874282 
L 265.215 149.416216 
L 265.215 149.416216 
L 253.767895 146.416139 
L 242.320789 142.923507 
L 230.873684 140.088789 
L 219.426579 135.845166 
L 207.979474 131.366918 
L 196.532368 125.640236 
L 185.085263 119.729067 
L 173.638158 113.618365 
L 162.191053 105.515892 
L 150.743947 97.994757 
L 139.296842 90.255972 
L 127.849737 81.154143 
L 116.402632 72.040345 
L 104.955526 63.218363 
L 93.508421 54.409061 
L 82.061316 46.628904 
L 70.614211 40.342812 
L 59.167105 35.519951 
L 47.72 33.569091 
z
" clip-path="url(#pa8a16a2ef8)" style="fill: #1f77b4; fill-opacity: 0.4"/>
   </g>
   <g id="PolyCollection_2">
    <path d="M 47.72 33.575312 
L 47.72 34.219501 
L 59.167105 35.725233 
L 70.614211 39.375758 
L 82.061316 45.114564 
L 93.508421 51.955976 
L 104.955526 60.225369 
L 116.402632 68.931864 
L 127.849737 78.545397 
L 139.296842 86.346678 
L 150.743947 95.448494 
L 162.191053 102.669704 
L 173.638158 110.633596 
L 185.085263 116.294787 
L 196.532368 123.847004 
L 207.979474 128.376334 
L 219.426579 133.550632 
L 230.873684 137.857385 
L 242.320789 142.221381 
L 253.767895 145.476566 
L 265.215 148.412304 
L 265.215 139.8149 
L 265.215 139.8149 
L 253.767895 135.71665 
L 242.320789 131.779803 
L 230.873684 128.25051 
L 219.426579 123.437666 
L 207.979474 117.791799 
L 196.532368 111.751794 
L 185.085263 105.196109 
L 173.638158 98.972 
L 162.191053 90.567416 
L 150.743947 83.596311 
L 139.296842 76.443951 
L 127.849737 68.917121 
L 116.402632 60.668621 
L 104.955526 53.650198 
L 93.508421 46.733196 
L 82.061316 41.759935 
L 70.614211 37.781478 
L 59.167105 34.965326 
L 47.72 33.575312 
z
" clip-path="url(#pa8a16a2ef8)" style="fill: #ff7f0e; fill-opacity: 0.4"/>
   </g>
   <g id="PolyCollection_3">
    <path d="M 47.72 33.571921 
L 47.72 34.206728 
L 59.167105 36.023298 
L 70.614211 39.53885 
L 82.061316 43.366727 
L 93.508421 47.71685 
L 104.955526 52.960911 
L 116.402632 57.385745 
L 127.849737 62.653722 
L 139.296842 67.028143 
L 150.743947 71.412914 
L 162.191053 75.415647 
L 173.638158 80.12171 
L 185.085263 83.711304 
L 196.532368 88.328258 
L 207.979474 91.843735 
L 219.426579 96.165056 
L 230.873684 99.754224 
L 242.320789 103.817595 
L 253.767895 108.298643 
L 265.215 112.88228 
L 265.215 104.842881 
L 265.215 104.842881 
L 253.767895 100.597509 
L 242.320789 96.480703 
L 230.873684 92.54285 
L 219.426579 89.3578 
L 207.979474 84.880077 
L 196.532368 80.629192 
L 185.085263 76.003852 
L 173.638158 71.926568 
L 162.191053 66.543743 
L 150.743947 62.838795 
L 139.296842 58.910242 
L 127.849737 54.213684 
L 116.402632 50.097287 
L 104.955526 46.515725 
L 93.508421 42.802466 
L 82.061316 39.669019 
L 70.614211 37.245915 
L 59.167105 35.087084 
L 47.72 33.571921 
z
" clip-path="url(#pa8a16a2ef8)" style="fill: #2ca02c; fill-opacity: 0.4"/>
   </g>
   <g id="PolyCollection_4">
    <path d="M 47.72 33.589502 
L 47.72 34.230482 
L 59.167105 35.667497 
L 70.614211 38.169185 
L 82.061316 41.432511 
L 93.508421 45.33441 
L 104.955526 50.251966 
L 116.402632 54.682728 
L 127.849737 59.938502 
L 139.296842 64.468905 
L 150.743947 69.207756 
L 162.191053 73.403182 
L 173.638158 78.301806 
L 185.085263 82.183332 
L 196.532368 86.85463 
L 207.979474 90.706624 
L 219.426579 94.921779 
L 230.873684 98.25086 
L 242.320789 101.981325 
L 253.767895 106.572668 
L 265.215 110.902366 
L 265.215 102.25437 
L 265.215 102.25437 
L 253.767895 98.44549 
L 242.320789 94.576927 
L 230.873684 90.986524 
L 219.426579 88.031333 
L 207.979474 83.704907 
L 196.532368 79.689502 
L 185.085263 75.068333 
L 173.638158 71.099415 
L 162.191053 65.659868 
L 150.743947 61.815342 
L 139.296842 57.819011 
L 127.849737 53.178108 
L 116.402632 48.767121 
L 104.955526 45.030225 
L 93.508421 41.374651 
L 82.061316 38.762071 
L 70.614211 36.605838 
L 59.167105 34.870595 
L 47.72 33.589502 
z
" clip-path="url(#pa8a16a2ef8)" style="fill: #d62728; fill-opacity: 0.4"/>
   </g>
   <g id="PolyCollection_5">
    <path d="M 47.72 33.58726 
L 47.72 34.216743 
L 59.167105 36.554272 
L 70.614211 43.348514 
L 82.061316 52.016097 
L 93.508421 61.346164 
L 104.955526 72.252526 
L 116.402632 82.542302 
L 127.849737 93.677401 
L 139.296842 100.959074 
L 150.743947 110.762082 
L 162.191053 116.804977 
L 173.638158 125.109347 
L 185.085263 129.28608 
L 196.532368 136.742622 
L 207.979474 140.863337 
L 219.426579 144.60091 
L 230.873684 148.324274 
L 242.320789 152.436752 
L 253.767895 156.169282 
L 265.215 157.042449 
L 265.215 150.00298 
L 265.215 150.00298 
L 253.767895 146.869215 
L 242.320789 144.342263 
L 230.873684 141.610061 
L 219.426579 136.372801 
L 207.979474 130.993315 
L 196.532368 125.112199 
L 185.085263 120.1139 
L 173.638158 114.022924 
L 162.191053 105.435255 
L 150.743947 98.142023 
L 139.296842 90.298653 
L 127.849737 81.438622 
L 116.402632 72.084844 
L 104.955526 63.317745 
L 93.508421 54.410556 
L 82.061316 46.668879 
L 70.614211 40.375688 
L 59.167105 35.526962 
L 47.72 33.58726 
z
" clip-path="url(#pa8a16a2ef8)" style="fill: #9467bd; fill-opacity: 0.4"/>
   </g>
   <g id="PolyCollection_6">
    <path d="M 47.72 33.593482 
L 47.72 34.233706 
L 59.167105 35.737032 
L 70.614211 39.391683 
L 82.061316 45.14184 
L 93.508421 51.965889 
L 104.955526 60.313979 
L 116.402632 68.927865 
L 127.849737 78.776869 
L 139.296842 86.372977 
L 150.743947 95.528221 
L 162.191053 102.782676 
L 173.638158 111.250924 
L 185.085263 116.368356 
L 196.532368 124.151606 
L 207.979474 128.798043 
L 219.426579 133.454851 
L 230.873684 138.212686 
L 242.320789 142.771662 
L 253.767895 146.453919 
L 265.215 148.408605 
L 265.215 140.43538 
L 265.215 140.43538 
L 253.767895 136.086839 
L 242.320789 132.837603 
L 230.873684 129.096156 
L 219.426579 123.63508 
L 207.979474 117.751542 
L 196.532368 111.723988 
L 185.085263 105.606251 
L 173.638158 99.111103 
L 162.191053 90.468399 
L 150.743947 83.734098 
L 139.296842 76.441882 
L 127.849737 69.153145 
L 116.402632 60.689123 
L 104.955526 53.743158 
L 93.508421 46.743087 
L 82.061316 41.763692 
L 70.614211 37.780119 
L 59.167105 34.974588 
L 47.72 33.593482 
z
" clip-path="url(#pa8a16a2ef8)" style="fill: #8c564b; fill-opacity: 0.4"/>
   </g>
   <g id="PolyCollection_7">
    <path d="M 47.72 44.417539 
L 47.72 47.603372 
L 59.167105 51.222255 
L 70.614211 60.196436 
L 82.061316 70.605903 
L 93.508421 81.984523 
L 104.955526 93.305185 
L 116.402632 103.534984 
L 127.849737 114.471887 
L 139.296842 121.600095 
L 150.743947 130.316232 
L 162.191053 135.92423 
L 173.638158 142.139924 
L 185.085263 146.13179 
L 196.532368 151.285098 
L 207.979474 154.359359 
L 219.426579 158.53858 
L 230.873684 161.0831 
L 242.320789 163.505348 
L 253.767895 165.799387 
L 265.215 167.350909 
L 265.215 158.944398 
L 265.215 158.944398 
L 253.767895 156.547027 
L 242.320789 153.695713 
L 230.873684 151.054826 
L 219.426579 147.098316 
L 207.979474 143.681846 
L 196.532368 138.37295 
L 185.085263 132.807385 
L 173.638158 127.043976 
L 162.191053 119.824063 
L 150.743947 112.574658 
L 139.296842 105.394034 
L 127.849737 95.927101 
L 116.402632 87.183412 
L 104.955526 77.543535 
L 93.508421 67.854047 
L 82.061316 58.95091 
L 70.614211 51.774294 
L 59.167105 46.520682 
L 47.72 44.417539 
z
" clip-path="url(#pa8a16a2ef8)" style="fill: #e377c2; fill-opacity: 0.4"/>
   </g>
   <g id="PolyCollection_8">
    <path d="M 47.72 33.594481 
L 47.72 34.230443 
L 59.167105 35.017708 
L 70.614211 36.03185 
L 82.061316 39.320361 
L 93.508421 45.013629 
L 104.955526 52.621665 
L 116.402632 60.597798 
L 127.849737 68.563128 
L 139.296842 76.388106 
L 150.743947 84.862826 
L 162.191053 92.875581 
L 173.638158 100.598664 
L 185.085263 106.708535 
L 196.532368 113.864161 
L 207.979474 118.892541 
L 219.426579 124.43595 
L 230.873684 128.862876 
L 242.320789 133.746439 
L 253.767895 137.542743 
L 265.215 141.748376 
L 265.215 131.336794 
L 265.215 131.336794 
L 253.767895 126.290087 
L 242.320789 121.746806 
L 230.873684 117.187517 
L 219.426579 112.056649 
L 207.979474 105.942052 
L 196.532368 99.127378 
L 185.085263 92.473324 
L 173.638158 85.944666 
L 162.191053 76.878151 
L 150.743947 69.98366 
L 139.296842 62.72966 
L 127.849737 55.398194 
L 116.402632 47.923668 
L 104.955526 42.176243 
L 93.508421 37.980152 
L 82.061316 36.096975 
L 70.614211 34.877892 
L 59.167105 34.240259 
L 47.72 33.594481 
z
" clip-path="url(#pa8a16a2ef8)" style="fill: #7f7f7f; fill-opacity: 0.4"/>
   </g>
   <g id="matplotlib.axis_1">
    <g id="xtick_1">
     <g id="line2d_1">
      <defs>
       <path id="mcc84f771ec" d="M 0 0 
L 0 3.5 
" style="stroke: #000000; stroke-width: 0.8"/>
      </defs>
      <g>
       <use xlink:href="#mcc84f771ec" x="47.72" y="174.04" style="stroke: #000000; stroke-width: 0.8"/>
      </g>
     </g>
     <g id="text_1">
      <!-- 0.0 -->
      <g transform="translate(39.768438 188.638438)scale(0.1 -0.1)">
       <defs>
        <path id="DejaVuSans-30" d="M 2034 4250 
Q 1547 4250 1301 3770 
Q 1056 3291 1056 2328 
Q 1056 1369 1301 889 
Q 1547 409 2034 409 
Q 2525 409 2770 889 
Q 3016 1369 3016 2328 
Q 3016 3291 2770 3770 
Q 2525 4250 2034 4250 
z
M 2034 4750 
Q 2819 4750 3233 4129 
Q 3647 3509 3647 2328 
Q 3647 1150 3233 529 
Q 2819 -91 2034 -91 
Q 1250 -91 836 529 
Q 422 1150 422 2328 
Q 422 3509 836 4129 
Q 1250 4750 2034 4750 
z
" transform="scale(0.015625)"/>
        <path id="DejaVuSans-2e" d="M 684 794 
L 1344 794 
L 1344 0 
L 684 0 
L 684 794 
z
" transform="scale(0.015625)"/>
       </defs>
       <use xlink:href="#DejaVuSans-30"/>
       <use xlink:href="#DejaVuSans-2e" x="63.623047"/>
       <use xlink:href="#DejaVuSans-30" x="95.410156"/>
      </g>
     </g>
    </g>
    <g id="xtick_2">
     <g id="line2d_2">
      <g>
       <use xlink:href="#mcc84f771ec" x="102.09375" y="174.04" style="stroke: #000000; stroke-width: 0.8"/>
      </g>
     </g>
     <g id="text_2">
      <!-- 0.5 -->
      <g transform="translate(94.142188 188.638438)scale(0.1 -0.1)">
       <defs>
        <path id="DejaVuSans-35" d="M 691 4666 
L 3169 4666 
L 3169 4134 
L 1269 4134 
L 1269 2991 
Q 1406 3038 1543 3061 
Q 1681 3084 1819 3084 
Q 2600 3084 3056 2656 
Q 3513 2228 3513 1497 
Q 3513 744 3044 326 
Q 2575 -91 1722 -91 
Q 1428 -91 1123 -41 
Q 819 9 494 109 
L 494 744 
Q 775 591 1075 516 
Q 1375 441 1709 441 
Q 2250 441 2565 725 
Q 2881 1009 2881 1497 
Q 2881 1984 2565 2268 
Q 2250 2553 1709 2553 
Q 1456 2553 1204 2497 
Q 953 2441 691 2322 
L 691 4666 
z
" transform="scale(0.015625)"/>
       </defs>
       <use xlink:href="#DejaVuSans-30"/>
       <use xlink:href="#DejaVuSans-2e" x="63.623047"/>
       <use xlink:href="#DejaVuSans-35" x="95.410156"/>
      </g>
     </g>
    </g>
    <g id="xtick_3">
     <g id="line2d_3">
      <g>
       <use xlink:href="#mcc84f771ec" x="156.4675" y="174.04" style="stroke: #000000; stroke-width: 0.8"/>
      </g>
     </g>
     <g id="text_3">
      <!-- 1.0 -->
      <g transform="translate(148.515938 188.638438)scale(0.1 -0.1)">
       <defs>
        <path id="DejaVuSans-31" d="M 794 531 
L 1825 531 
L 1825 4091 
L 703 3866 
L 703 4441 
L 1819 4666 
L 2450 4666 
L 2450 531 
L 3481 531 
L 3481 0 
L 794 0 
L 794 531 
z
" transform="scale(0.015625)"/>
       </defs>
       <use xlink:href="#DejaVuSans-31"/>
       <use xlink:href="#DejaVuSans-2e" x="63.623047"/>
       <use xlink:href="#DejaVuSans-30" x="95.410156"/>
      </g>
     </g>
    </g>
    <g id="xtick_4">
     <g id="line2d_4">
      <g>
       <use xlink:href="#mcc84f771ec" x="210.84125" y="174.04" style="stroke: #000000; stroke-width: 0.8"/>
      </g>
     </g>
     <g id="text_4">
      <!-- 1.5 -->
      <g transform="translate(202.889687 188.638438)scale(0.1 -0.1)">
       <use xlink:href="#DejaVuSans-31"/>
       <use xlink:href="#DejaVuSans-2e" x="63.623047"/>
       <use xlink:href="#DejaVuSans-35" x="95.410156"/>
      </g>
     </g>
    </g>
    <g id="xtick_5">
     <g id="line2d_5">
      <g>
       <use xlink:href="#mcc84f771ec" x="265.215" y="174.04" style="stroke: #000000; stroke-width: 0.8"/>
      </g>
     </g>
     <g id="text_5">
      <!-- 2.0 -->
      <g transform="translate(257.263437 188.638438)scale(0.1 -0.1)">
       <defs>
        <path id="DejaVuSans-32" d="M 1228 531 
L 3431 531 
L 3431 0 
L 469 0 
L 469 531 
Q 828 903 1448 1529 
Q 2069 2156 2228 2338 
Q 2531 2678 2651 2914 
Q 2772 3150 2772 3378 
Q 2772 3750 2511 3984 
Q 2250 4219 1831 4219 
Q 1534 4219 1204 4116 
Q 875 4013 500 3803 
L 500 4441 
Q 881 4594 1212 4672 
Q 1544 4750 1819 4750 
Q 2544 4750 2975 4387 
Q 3406 4025 3406 3419 
Q 3406 3131 3298 2873 
Q 3191 2616 2906 2266 
Q 2828 2175 2409 1742 
Q 1991 1309 1228 531 
z
" transform="scale(0.015625)"/>
       </defs>
       <use xlink:href="#DejaVuSans-32"/>
       <use xlink:href="#DejaVuSans-2e" x="63.623047"/>
       <use xlink:href="#DejaVuSans-30" x="95.410156"/>
      </g>
     </g>
    </g>
    <g id="text_6">
     <!-- Influence of surprisal (multiplication) -->
     <g transform="translate(64.320625 202.316563)scale(0.1 -0.1)">
      <defs>
       <path id="DejaVuSans-49" d="M 628 4666 
L 1259 4666 
L 1259 0 
L 628 0 
L 628 4666 
z
" transform="scale(0.015625)"/>
       <path id="DejaVuSans-6e" d="M 3513 2113 
L 3513 0 
L 2938 0 
L 2938 2094 
Q 2938 2591 2744 2837 
Q 2550 3084 2163 3084 
Q 1697 3084 1428 2787 
Q 1159 2491 1159 1978 
L 1159 0 
L 581 0 
L 581 3500 
L 1159 3500 
L 1159 2956 
Q 1366 3272 1645 3428 
Q 1925 3584 2291 3584 
Q 2894 3584 3203 3211 
Q 3513 2838 3513 2113 
z
" transform="scale(0.015625)"/>
       <path id="DejaVuSans-66" d="M 2375 4863 
L 2375 4384 
L 1825 4384 
Q 1516 4384 1395 4259 
Q 1275 4134 1275 3809 
L 1275 3500 
L 2222 3500 
L 2222 3053 
L 1275 3053 
L 1275 0 
L 697 0 
L 697 3053 
L 147 3053 
L 147 3500 
L 697 3500 
L 697 3744 
Q 697 4328 969 4595 
Q 1241 4863 1831 4863 
L 2375 4863 
z
" transform="scale(0.015625)"/>
       <path id="DejaVuSans-6c" d="M 603 4863 
L 1178 4863 
L 1178 0 
L 603 0 
L 603 4863 
z
" transform="scale(0.015625)"/>
       <path id="DejaVuSans-75" d="M 544 1381 
L 544 3500 
L 1119 3500 
L 1119 1403 
Q 1119 906 1312 657 
Q 1506 409 1894 409 
Q 2359 409 2629 706 
Q 2900 1003 2900 1516 
L 2900 3500 
L 3475 3500 
L 3475 0 
L 2900 0 
L 2900 538 
Q 2691 219 2414 64 
Q 2138 -91 1772 -91 
Q 1169 -91 856 284 
Q 544 659 544 1381 
z
M 1991 3584 
L 1991 3584 
z
" transform="scale(0.015625)"/>
       <path id="DejaVuSans-65" d="M 3597 1894 
L 3597 1613 
L 953 1613 
Q 991 1019 1311 708 
Q 1631 397 2203 397 
Q 2534 397 2845 478 
Q 3156 559 3463 722 
L 3463 178 
Q 3153 47 2828 -22 
Q 2503 -91 2169 -91 
Q 1331 -91 842 396 
Q 353 884 353 1716 
Q 353 2575 817 3079 
Q 1281 3584 2069 3584 
Q 2775 3584 3186 3129 
Q 3597 2675 3597 1894 
z
M 3022 2063 
Q 3016 2534 2758 2815 
Q 2500 3097 2075 3097 
Q 1594 3097 1305 2825 
Q 1016 2553 972 2059 
L 3022 2063 
z
" transform="scale(0.015625)"/>
       <path id="DejaVuSans-63" d="M 3122 3366 
L 3122 2828 
Q 2878 2963 2633 3030 
Q 2388 3097 2138 3097 
Q 1578 3097 1268 2742 
Q 959 2388 959 1747 
Q 959 1106 1268 751 
Q 1578 397 2138 397 
Q 2388 397 2633 464 
Q 2878 531 3122 666 
L 3122 134 
Q 2881 22 2623 -34 
Q 2366 -91 2075 -91 
Q 1284 -91 818 406 
Q 353 903 353 1747 
Q 353 2603 823 3093 
Q 1294 3584 2113 3584 
Q 2378 3584 2631 3529 
Q 2884 3475 3122 3366 
z
" transform="scale(0.015625)"/>
       <path id="DejaVuSans-20" transform="scale(0.015625)"/>
       <path id="DejaVuSans-6f" d="M 1959 3097 
Q 1497 3097 1228 2736 
Q 959 2375 959 1747 
Q 959 1119 1226 758 
Q 1494 397 1959 397 
Q 2419 397 2687 759 
Q 2956 1122 2956 1747 
Q 2956 2369 2687 2733 
Q 2419 3097 1959 3097 
z
M 1959 3584 
Q 2709 3584 3137 3096 
Q 3566 2609 3566 1747 
Q 3566 888 3137 398 
Q 2709 -91 1959 -91 
Q 1206 -91 779 398 
Q 353 888 353 1747 
Q 353 2609 779 3096 
Q 1206 3584 1959 3584 
z
" transform="scale(0.015625)"/>
       <path id="DejaVuSans-73" d="M 2834 3397 
L 2834 2853 
Q 2591 2978 2328 3040 
Q 2066 3103 1784 3103 
Q 1356 3103 1142 2972 
Q 928 2841 928 2578 
Q 928 2378 1081 2264 
Q 1234 2150 1697 2047 
L 1894 2003 
Q 2506 1872 2764 1633 
Q 3022 1394 3022 966 
Q 3022 478 2636 193 
Q 2250 -91 1575 -91 
Q 1294 -91 989 -36 
Q 684 19 347 128 
L 347 722 
Q 666 556 975 473 
Q 1284 391 1588 391 
Q 1994 391 2212 530 
Q 2431 669 2431 922 
Q 2431 1156 2273 1281 
Q 2116 1406 1581 1522 
L 1381 1569 
Q 847 1681 609 1914 
Q 372 2147 372 2553 
Q 372 3047 722 3315 
Q 1072 3584 1716 3584 
Q 2034 3584 2315 3537 
Q 2597 3491 2834 3397 
z
" transform="scale(0.015625)"/>
       <path id="DejaVuSans-72" d="M 2631 2963 
Q 2534 3019 2420 3045 
Q 2306 3072 2169 3072 
Q 1681 3072 1420 2755 
Q 1159 2438 1159 1844 
L 1159 0 
L 581 0 
L 581 3500 
L 1159 3500 
L 1159 2956 
Q 1341 3275 1631 3429 
Q 1922 3584 2338 3584 
Q 2397 3584 2469 3576 
Q 2541 3569 2628 3553 
L 2631 2963 
z
" transform="scale(0.015625)"/>
       <path id="DejaVuSans-70" d="M 1159 525 
L 1159 -1331 
L 581 -1331 
L 581 3500 
L 1159 3500 
L 1159 2969 
Q 1341 3281 1617 3432 
Q 1894 3584 2278 3584 
Q 2916 3584 3314 3078 
Q 3713 2572 3713 1747 
Q 3713 922 3314 415 
Q 2916 -91 2278 -91 
Q 1894 -91 1617 61 
Q 1341 213 1159 525 
z
M 3116 1747 
Q 3116 2381 2855 2742 
Q 2594 3103 2138 3103 
Q 1681 3103 1420 2742 
Q 1159 2381 1159 1747 
Q 1159 1113 1420 752 
Q 1681 391 2138 391 
Q 2594 391 2855 752 
Q 3116 1113 3116 1747 
z
" transform="scale(0.015625)"/>
       <path id="DejaVuSans-69" d="M 603 3500 
L 1178 3500 
L 1178 0 
L 603 0 
L 603 3500 
z
M 603 4863 
L 1178 4863 
L 1178 4134 
L 603 4134 
L 603 4863 
z
" transform="scale(0.015625)"/>
       <path id="DejaVuSans-61" d="M 2194 1759 
Q 1497 1759 1228 1600 
Q 959 1441 959 1056 
Q 959 750 1161 570 
Q 1363 391 1709 391 
Q 2188 391 2477 730 
Q 2766 1069 2766 1631 
L 2766 1759 
L 2194 1759 
z
M 3341 1997 
L 3341 0 
L 2766 0 
L 2766 531 
Q 2569 213 2275 61 
Q 1981 -91 1556 -91 
Q 1019 -91 701 211 
Q 384 513 384 1019 
Q 384 1609 779 1909 
Q 1175 2209 1959 2209 
L 2766 2209 
L 2766 2266 
Q 2766 2663 2505 2880 
Q 2244 3097 1772 3097 
Q 1472 3097 1187 3025 
Q 903 2953 641 2809 
L 641 3341 
Q 956 3463 1253 3523 
Q 1550 3584 1831 3584 
Q 2591 3584 2966 3190 
Q 3341 2797 3341 1997 
z
" transform="scale(0.015625)"/>
       <path id="DejaVuSans-28" d="M 1984 4856 
Q 1566 4138 1362 3434 
Q 1159 2731 1159 2009 
Q 1159 1288 1364 580 
Q 1569 -128 1984 -844 
L 1484 -844 
Q 1016 -109 783 600 
Q 550 1309 550 2009 
Q 550 2706 781 3412 
Q 1013 4119 1484 4856 
L 1984 4856 
z
" transform="scale(0.015625)"/>
       <path id="DejaVuSans-6d" d="M 3328 2828 
Q 3544 3216 3844 3400 
Q 4144 3584 4550 3584 
Q 5097 3584 5394 3201 
Q 5691 2819 5691 2113 
L 5691 0 
L 5113 0 
L 5113 2094 
Q 5113 2597 4934 2840 
Q 4756 3084 4391 3084 
Q 3944 3084 3684 2787 
Q 3425 2491 3425 1978 
L 3425 0 
L 2847 0 
L 2847 2094 
Q 2847 2600 2669 2842 
Q 2491 3084 2119 3084 
Q 1678 3084 1418 2786 
Q 1159 2488 1159 1978 
L 1159 0 
L 581 0 
L 581 3500 
L 1159 3500 
L 1159 2956 
Q 1356 3278 1631 3431 
Q 1906 3584 2284 3584 
Q 2666 3584 2933 3390 
Q 3200 3197 3328 2828 
z
" transform="scale(0.015625)"/>
       <path id="DejaVuSans-74" d="M 1172 4494 
L 1172 3500 
L 2356 3500 
L 2356 3053 
L 1172 3053 
L 1172 1153 
Q 1172 725 1289 603 
Q 1406 481 1766 481 
L 2356 481 
L 2356 0 
L 1766 0 
Q 1100 0 847 248 
Q 594 497 594 1153 
L 594 3053 
L 172 3053 
L 172 3500 
L 594 3500 
L 594 4494 
L 1172 4494 
z
" transform="scale(0.015625)"/>
       <path id="DejaVuSans-29" d="M 513 4856 
L 1013 4856 
Q 1481 4119 1714 3412 
Q 1947 2706 1947 2009 
Q 1947 1309 1714 600 
Q 1481 -109 1013 -844 
L 513 -844 
Q 928 -128 1133 580 
Q 1338 1288 1338 2009 
Q 1338 2731 1133 3434 
Q 928 4138 513 4856 
z
" transform="scale(0.015625)"/>
      </defs>
      <use xlink:href="#DejaVuSans-49"/>
      <use xlink:href="#DejaVuSans-6e" x="29.492188"/>
      <use xlink:href="#DejaVuSans-66" x="92.871094"/>
      <use xlink:href="#DejaVuSans-6c" x="128.076172"/>
      <use xlink:href="#DejaVuSans-75" x="155.859375"/>
      <use xlink:href="#DejaVuSans-65" x="219.238281"/>
      <use xlink:href="#DejaVuSans-6e" x="280.761719"/>
      <use xlink:href="#DejaVuSans-63" x="344.140625"/>
      <use xlink:href="#DejaVuSans-65" x="399.121094"/>
      <use xlink:href="#DejaVuSans-20" x="460.644531"/>
      <use xlink:href="#DejaVuSans-6f" x="492.431641"/>
      <use xlink:href="#DejaVuSans-66" x="553.613281"/>
      <use xlink:href="#DejaVuSans-20" x="588.818359"/>
      <use xlink:href="#DejaVuSans-73" x="620.605469"/>
      <use xlink:href="#DejaVuSans-75" x="672.705078"/>
      <use xlink:href="#DejaVuSans-72" x="736.083984"/>
      <use xlink:href="#DejaVuSans-70" x="777.197266"/>
      <use xlink:href="#DejaVuSans-72" x="840.673828"/>
      <use xlink:href="#DejaVuSans-69" x="881.787109"/>
      <use xlink:href="#DejaVuSans-73" x="909.570312"/>
      <use xlink:href="#DejaVuSans-61" x="961.669922"/>
      <use xlink:href="#DejaVuSans-6c" x="1022.949219"/>
      <use xlink:href="#DejaVuSans-20" x="1050.732422"/>
      <use xlink:href="#DejaVuSans-28" x="1082.519531"/>
      <use xlink:href="#DejaVuSans-6d" x="1121.533203"/>
      <use xlink:href="#DejaVuSans-75" x="1218.945312"/>
      <use xlink:href="#DejaVuSans-6c" x="1282.324219"/>
      <use xlink:href="#DejaVuSans-74" x="1310.107422"/>
      <use xlink:href="#DejaVuSans-69" x="1349.316406"/>
      <use xlink:href="#DejaVuSans-70" x="1377.099609"/>
      <use xlink:href="#DejaVuSans-6c" x="1440.576172"/>
      <use xlink:href="#DejaVuSans-69" x="1468.359375"/>
      <use xlink:href="#DejaVuSans-63" x="1496.142578"/>
      <use xlink:href="#DejaVuSans-61" x="1551.123047"/>
      <use xlink:href="#DejaVuSans-74" x="1612.402344"/>
      <use xlink:href="#DejaVuSans-69" x="1651.611328"/>
      <use xlink:href="#DejaVuSans-6f" x="1679.394531"/>
      <use xlink:href="#DejaVuSans-6e" x="1740.576172"/>
      <use xlink:href="#DejaVuSans-29" x="1803.955078"/>
     </g>
    </g>
   </g>
   <g id="matplotlib.axis_2">
    <g id="ytick_1">
     <g id="line2d_6">
      <defs>
       <path id="mb066403ad1" d="M 0 0 
L -3.5 0 
" style="stroke: #000000; stroke-width: 0.8"/>
      </defs>
      <g>
       <use xlink:href="#mb066403ad1" x="47.72" y="151.308486" style="stroke: #000000; stroke-width: 0.8"/>
      </g>
     </g>
     <g id="text_7">
      <!-- 0.2 -->
      <g transform="translate(24.816875 155.107705)scale(0.1 -0.1)">
       <use xlink:href="#DejaVuSans-30"/>
       <use xlink:href="#DejaVuSans-2e" x="63.623047"/>
       <use xlink:href="#DejaVuSans-32" x="95.410156"/>
      </g>
     </g>
    </g>
    <g id="ytick_2">
     <g id="line2d_7">
      <g>
       <use xlink:href="#mb066403ad1" x="47.72" y="119.824627" style="stroke: #000000; stroke-width: 0.8"/>
      </g>
     </g>
     <g id="text_8">
      <!-- 0.4 -->
      <g transform="translate(24.816875 123.623845)scale(0.1 -0.1)">
       <defs>
        <path id="DejaVuSans-34" d="M 2419 4116 
L 825 1625 
L 2419 1625 
L 2419 4116 
z
M 2253 4666 
L 3047 4666 
L 3047 1625 
L 3713 1625 
L 3713 1100 
L 3047 1100 
L 3047 0 
L 2419 0 
L 2419 1100 
L 313 1100 
L 313 1709 
L 2253 4666 
z
" transform="scale(0.015625)"/>
       </defs>
       <use xlink:href="#DejaVuSans-30"/>
       <use xlink:href="#DejaVuSans-2e" x="63.623047"/>
       <use xlink:href="#DejaVuSans-34" x="95.410156"/>
      </g>
     </g>
    </g>
    <g id="ytick_3">
     <g id="line2d_8">
      <g>
       <use xlink:href="#mb066403ad1" x="47.72" y="88.340767" style="stroke: #000000; stroke-width: 0.8"/>
      </g>
     </g>
     <g id="text_9">
      <!-- 0.6 -->
      <g transform="translate(24.816875 92.139986)scale(0.1 -0.1)">
       <defs>
        <path id="DejaVuSans-36" d="M 2113 2584 
Q 1688 2584 1439 2293 
Q 1191 2003 1191 1497 
Q 1191 994 1439 701 
Q 1688 409 2113 409 
Q 2538 409 2786 701 
Q 3034 994 3034 1497 
Q 3034 2003 2786 2293 
Q 2538 2584 2113 2584 
z
M 3366 4563 
L 3366 3988 
Q 3128 4100 2886 4159 
Q 2644 4219 2406 4219 
Q 1781 4219 1451 3797 
Q 1122 3375 1075 2522 
Q 1259 2794 1537 2939 
Q 1816 3084 2150 3084 
Q 2853 3084 3261 2657 
Q 3669 2231 3669 1497 
Q 3669 778 3244 343 
Q 2819 -91 2113 -91 
Q 1303 -91 875 529 
Q 447 1150 447 2328 
Q 447 3434 972 4092 
Q 1497 4750 2381 4750 
Q 2619 4750 2861 4703 
Q 3103 4656 3366 4563 
z
" transform="scale(0.015625)"/>
       </defs>
       <use xlink:href="#DejaVuSans-30"/>
       <use xlink:href="#DejaVuSans-2e" x="63.623047"/>
       <use xlink:href="#DejaVuSans-36" x="95.410156"/>
      </g>
     </g>
    </g>
    <g id="ytick_4">
     <g id="line2d_9">
      <g>
       <use xlink:href="#mb066403ad1" x="47.72" y="56.856907" style="stroke: #000000; stroke-width: 0.8"/>
      </g>
     </g>
     <g id="text_10">
      <!-- 0.8 -->
      <g transform="translate(24.816875 60.656126)scale(0.1 -0.1)">
       <defs>
        <path id="DejaVuSans-38" d="M 2034 2216 
Q 1584 2216 1326 1975 
Q 1069 1734 1069 1313 
Q 1069 891 1326 650 
Q 1584 409 2034 409 
Q 2484 409 2743 651 
Q 3003 894 3003 1313 
Q 3003 1734 2745 1975 
Q 2488 2216 2034 2216 
z
M 1403 2484 
Q 997 2584 770 2862 
Q 544 3141 544 3541 
Q 544 4100 942 4425 
Q 1341 4750 2034 4750 
Q 2731 4750 3128 4425 
Q 3525 4100 3525 3541 
Q 3525 3141 3298 2862 
Q 3072 2584 2669 2484 
Q 3125 2378 3379 2068 
Q 3634 1759 3634 1313 
Q 3634 634 3220 271 
Q 2806 -91 2034 -91 
Q 1263 -91 848 271 
Q 434 634 434 1313 
Q 434 1759 690 2068 
Q 947 2378 1403 2484 
z
M 1172 3481 
Q 1172 3119 1398 2916 
Q 1625 2713 2034 2713 
Q 2441 2713 2670 2916 
Q 2900 3119 2900 3481 
Q 2900 3844 2670 4047 
Q 2441 4250 2034 4250 
Q 1625 4250 1398 4047 
Q 1172 3844 1172 3481 
z
" transform="scale(0.015625)"/>
       </defs>
       <use xlink:href="#DejaVuSans-30"/>
       <use xlink:href="#DejaVuSans-2e" x="63.623047"/>
       <use xlink:href="#DejaVuSans-38" x="95.410156"/>
      </g>
     </g>
    </g>
    <g id="text_11">
     <!-- R-value -->
     <g transform="translate(18.737188 119.064687)rotate(-90)scale(0.1 -0.1)">
      <defs>
       <path id="DejaVuSans-52" d="M 2841 2188 
Q 3044 2119 3236 1894 
Q 3428 1669 3622 1275 
L 4263 0 
L 3584 0 
L 2988 1197 
Q 2756 1666 2539 1819 
Q 2322 1972 1947 1972 
L 1259 1972 
L 1259 0 
L 628 0 
L 628 4666 
L 2053 4666 
Q 2853 4666 3247 4331 
Q 3641 3997 3641 3322 
Q 3641 2881 3436 2590 
Q 3231 2300 2841 2188 
z
M 1259 4147 
L 1259 2491 
L 2053 2491 
Q 2509 2491 2742 2702 
Q 2975 2913 2975 3322 
Q 2975 3731 2742 3939 
Q 2509 4147 2053 4147 
L 1259 4147 
z
" transform="scale(0.015625)"/>
       <path id="DejaVuSans-2d" d="M 313 2009 
L 1997 2009 
L 1997 1497 
L 313 1497 
L 313 2009 
z
" transform="scale(0.015625)"/>
       <path id="DejaVuSans-76" d="M 191 3500 
L 800 3500 
L 1894 563 
L 2988 3500 
L 3597 3500 
L 2284 0 
L 1503 0 
L 191 3500 
z
" transform="scale(0.015625)"/>
      </defs>
      <use xlink:href="#DejaVuSans-52"/>
      <use xlink:href="#DejaVuSans-2d" x="65.482422"/>
      <use xlink:href="#DejaVuSans-76" x="98.941406"/>
      <use xlink:href="#DejaVuSans-61" x="158.121094"/>
      <use xlink:href="#DejaVuSans-6c" x="219.400391"/>
      <use xlink:href="#DejaVuSans-75" x="247.183594"/>
      <use xlink:href="#DejaVuSans-65" x="310.5625"/>
     </g>
    </g>
   </g>
   <g id="line2d_10">
    <path d="M 47.72 33.885745 
L 59.167105 36.032827 
L 70.614211 41.850148 
L 82.061316 49.30922 
L 93.508421 57.849243 
L 104.955526 67.654408 
L 116.402632 77.33257 
L 127.849737 87.336491 
L 139.296842 95.575285 
L 150.743947 104.226009 
L 162.191053 111.159944 
L 173.638158 118.819945 
L 185.085263 124.443013 
L 196.532368 130.805774 
L 207.979474 135.762153 
L 219.426579 140.370599 
L 230.873684 144.279805 
L 242.320789 147.286305 
L 253.767895 150.514147 
L 265.215 153.145249 
" clip-path="url(#pa8a16a2ef8)" style="fill: none; stroke: #1f77b4; stroke-width: 1.5; stroke-linecap: square"/>
   </g>
   <g id="line2d_11">
    <path d="M 47.72 33.897406 
L 59.167105 35.34528 
L 70.614211 38.578618 
L 82.061316 43.43725 
L 93.508421 49.344586 
L 104.955526 56.937784 
L 116.402632 64.800242 
L 127.849737 73.731259 
L 139.296842 81.395314 
L 150.743947 89.522403 
L 162.191053 96.61856 
L 173.638158 104.802798 
L 185.085263 110.745448 
L 196.532368 117.799399 
L 207.979474 123.084066 
L 219.426579 128.494149 
L 230.873684 133.053947 
L 242.320789 137.000592 
L 253.767895 140.596608 
L 265.215 144.113602 
" clip-path="url(#pa8a16a2ef8)" style="fill: none; stroke: #ff7f0e; stroke-width: 1.5; stroke-linecap: square"/>
   </g>
   <g id="line2d_12">
    <path d="M 47.72 33.889324 
L 59.167105 35.555191 
L 70.614211 38.392383 
L 82.061316 41.517873 
L 93.508421 45.259658 
L 104.955526 49.738318 
L 116.402632 53.741516 
L 127.849737 58.433703 
L 139.296842 62.969193 
L 150.743947 67.125854 
L 162.191053 70.979695 
L 173.638158 76.024139 
L 185.085263 79.857578 
L 196.532368 84.478725 
L 207.979474 88.361906 
L 219.426579 92.761428 
L 230.873684 96.148537 
L 242.320789 100.149149 
L 253.767895 104.448076 
L 265.215 108.86258 
" clip-path="url(#pa8a16a2ef8)" style="fill: none; stroke: #2ca02c; stroke-width: 1.5; stroke-linecap: square"/>
   </g>
   <g id="line2d_13">
    <path d="M 47.72 33.909992 
L 59.167105 35.269046 
L 70.614211 37.387512 
L 82.061316 40.097291 
L 93.508421 43.35453 
L 104.955526 47.641095 
L 116.402632 51.724925 
L 127.849737 56.558305 
L 139.296842 61.143958 
L 150.743947 65.511549 
L 162.191053 69.531525 
L 173.638158 74.70061 
L 185.085263 78.625832 
L 196.532368 83.272066 
L 207.979474 87.205765 
L 219.426579 91.476556 
L 230.873684 94.618692 
L 242.320789 98.279126 
L 253.767895 102.509079 
L 265.215 106.578368 
" clip-path="url(#pa8a16a2ef8)" style="fill: none; stroke: #d62728; stroke-width: 1.5; stroke-linecap: square"/>
   </g>
   <g id="line2d_14">
    <path d="M 47.72 33.902001 
L 59.167105 36.040617 
L 70.614211 41.862101 
L 82.061316 49.342488 
L 93.508421 57.87836 
L 104.955526 67.785136 
L 116.402632 77.313573 
L 127.849737 87.558012 
L 139.296842 95.628863 
L 150.743947 104.452053 
L 162.191053 111.120116 
L 173.638158 119.566136 
L 185.085263 124.69999 
L 196.532368 130.927411 
L 207.979474 135.928326 
L 219.426579 140.486856 
L 230.873684 144.967168 
L 242.320789 148.389507 
L 253.767895 151.519249 
L 265.215 153.522715 
" clip-path="url(#pa8a16a2ef8)" style="fill: none; stroke: #9467bd; stroke-width: 1.5; stroke-linecap: square"/>
   </g>
   <g id="line2d_15">
    <path d="M 47.72 33.913594 
L 59.167105 35.35581 
L 70.614211 38.585901 
L 82.061316 43.452766 
L 93.508421 49.354488 
L 104.955526 57.028568 
L 116.402632 64.808494 
L 127.849737 73.965007 
L 139.296842 81.407429 
L 150.743947 89.63116 
L 162.191053 96.625538 
L 173.638158 105.181014 
L 185.085263 110.987304 
L 196.532368 117.937797 
L 207.979474 123.274793 
L 219.426579 128.544966 
L 230.873684 133.654421 
L 242.320789 137.804633 
L 253.767895 141.270379 
L 265.215 144.421992 
" clip-path="url(#pa8a16a2ef8)" style="fill: none; stroke: #8c564b; stroke-width: 1.5; stroke-linecap: square"/>
   </g>
   <g id="line2d_16">
    <path d="M 47.72 46.010456 
L 59.167105 48.871468 
L 70.614211 55.985365 
L 82.061316 64.778406 
L 93.508421 74.919285 
L 104.955526 85.42436 
L 116.402632 95.359198 
L 127.849737 105.199494 
L 139.296842 113.497064 
L 150.743947 121.445445 
L 162.191053 127.874146 
L 173.638158 134.59195 
L 185.085263 139.469588 
L 196.532368 144.829024 
L 207.979474 149.020603 
L 219.426579 152.818448 
L 230.873684 156.068963 
L 242.320789 158.600531 
L 253.767895 161.173207 
L 265.215 163.147653 
" clip-path="url(#pa8a16a2ef8)" style="fill: none; stroke: #e377c2; stroke-width: 1.5; stroke-linecap: square"/>
   </g>
   <g id="line2d_17">
    <path d="M 47.72 33.912462 
L 59.167105 34.628983 
L 70.614211 35.454871 
L 82.061316 37.708668 
L 93.508421 41.49689 
L 104.955526 47.398954 
L 116.402632 54.260733 
L 127.849737 61.980661 
L 139.296842 69.558883 
L 150.743947 77.423243 
L 162.191053 84.876866 
L 173.638158 93.271665 
L 185.085263 99.59093 
L 196.532368 106.495769 
L 207.979474 112.417296 
L 219.426579 118.2463 
L 230.873684 123.025196 
L 242.320789 127.746623 
L 253.767895 131.916415 
L 265.215 136.542585 
" clip-path="url(#pa8a16a2ef8)" style="fill: none; stroke: #7f7f7f; stroke-width: 1.5; stroke-linecap: square"/>
   </g>
   <g id="patch_3">
    <path d="M 47.72 174.04 
L 47.72 26.88 
" style="fill: none; stroke: #000000; stroke-width: 0.8; stroke-linejoin: miter; stroke-linecap: square"/>
   </g>
   <g id="patch_4">
    <path d="M 47.72 174.04 
L 265.215 174.04 
" style="fill: none; stroke: #000000; stroke-width: 0.8; stroke-linejoin: miter; stroke-linecap: square"/>
   </g>
   <g id="text_12">
    <!-- Node * surprisal -->
    <g transform="translate(108.18625 20.88)scale(0.12 -0.12)">
     <defs>
      <path id="DejaVuSans-4e" d="M 628 4666 
L 1478 4666 
L 3547 763 
L 3547 4666 
L 4159 4666 
L 4159 0 
L 3309 0 
L 1241 3903 
L 1241 0 
L 628 0 
L 628 4666 
z
" transform="scale(0.015625)"/>
      <path id="DejaVuSans-64" d="M 2906 2969 
L 2906 4863 
L 3481 4863 
L 3481 0 
L 2906 0 
L 2906 525 
Q 2725 213 2448 61 
Q 2172 -91 1784 -91 
Q 1150 -91 751 415 
Q 353 922 353 1747 
Q 353 2572 751 3078 
Q 1150 3584 1784 3584 
Q 2172 3584 2448 3432 
Q 2725 3281 2906 2969 
z
M 947 1747 
Q 947 1113 1208 752 
Q 1469 391 1925 391 
Q 2381 391 2643 752 
Q 2906 1113 2906 1747 
Q 2906 2381 2643 2742 
Q 2381 3103 1925 3103 
Q 1469 3103 1208 2742 
Q 947 2381 947 1747 
z
" transform="scale(0.015625)"/>
      <path id="DejaVuSans-2a" d="M 3009 3897 
L 1888 3291 
L 3009 2681 
L 2828 2375 
L 1778 3009 
L 1778 1831 
L 1422 1831 
L 1422 3009 
L 372 2375 
L 191 2681 
L 1313 3291 
L 191 3897 
L 372 4206 
L 1422 3572 
L 1422 4750 
L 1778 4750 
L 1778 3572 
L 2828 4206 
L 3009 3897 
z
" transform="scale(0.015625)"/>
     </defs>
     <use xlink:href="#DejaVuSans-4e"/>
     <use xlink:href="#DejaVuSans-6f" x="74.804688"/>
     <use xlink:href="#DejaVuSans-64" x="135.986328"/>
     <use xlink:href="#DejaVuSans-65" x="199.462891"/>
     <use xlink:href="#DejaVuSans-20" x="260.986328"/>
     <use xlink:href="#DejaVuSans-2a" x="292.773438"/>
     <use xlink:href="#DejaVuSans-20" x="342.773438"/>
     <use xlink:href="#DejaVuSans-73" x="374.560547"/>
     <use xlink:href="#DejaVuSans-75" x="426.660156"/>
     <use xlink:href="#DejaVuSans-72" x="490.039062"/>
     <use xlink:href="#DejaVuSans-70" x="531.152344"/>
     <use xlink:href="#DejaVuSans-72" x="594.628906"/>
     <use xlink:href="#DejaVuSans-69" x="635.742188"/>
     <use xlink:href="#DejaVuSans-73" x="663.525391"/>
     <use xlink:href="#DejaVuSans-61" x="715.625"/>
     <use xlink:href="#DejaVuSans-6c" x="776.904297"/>
    </g>
   </g>
  </g>
  <g id="axes_2">
   <g id="patch_5">
    <path d="M 298.065 174.04 
L 515.56 174.04 
L 515.56 26.88 
L 298.065 26.88 
z
" style="fill: #ffffff"/>
   </g>
   <g id="PolyCollection_9">
    <path d="M 298.065 33.69867 
L 298.065 34.428105 
L 309.512105 36.666719 
L 320.959211 43.73155 
L 332.406316 53.875086 
L 343.853421 64.652003 
L 355.300526 76.174895 
L 366.747632 87.311354 
L 378.194737 97.12332 
L 389.641842 106.735434 
L 401.088947 115.503529 
L 412.536053 121.404817 
L 423.983158 127.213645 
L 435.430263 132.515929 
L 446.877368 136.283391 
L 458.324474 140.2963 
L 469.771579 143.216814 
L 481.218684 146.231126 
L 492.665789 149.200635 
L 504.112895 151.798516 
L 515.56 153.937176 
L 515.56 148.676959 
L 515.56 148.676959 
L 504.112895 146.112432 
L 492.665789 143.539228 
L 481.218684 140.268036 
L 469.771579 136.484107 
L 458.324474 132.6955 
L 446.877368 127.405665 
L 435.430263 122.115716 
L 423.983158 115.718247 
L 412.536053 107.794036 
L 401.088947 100.586767 
L 389.641842 92.614594 
L 378.194737 82.927946 
L 366.747632 74.170594 
L 355.300526 66.1971 
L 343.853421 56.320953 
L 332.406316 48.082359 
L 320.959211 41.190471 
L 309.512105 35.4595 
L 298.065 33.69867 
z
" clip-path="url(#p1bec705fe9)" style="fill: #1f77b4; fill-opacity: 0.4"/>
   </g>
   <g id="PolyCollection_10">
    <path d="M 298.065 33.711479 
L 298.065 34.441995 
L 309.512105 36.675945 
L 320.959211 43.745577 
L 332.406316 53.888647 
L 343.853421 64.622294 
L 355.300526 76.187128 
L 366.747632 87.334289 
L 378.194737 97.173684 
L 389.641842 106.789771 
L 401.088947 115.59724 
L 412.536053 121.506468 
L 423.983158 127.36582 
L 435.430263 132.929094 
L 446.877368 136.707435 
L 458.324474 140.858116 
L 469.771579 143.859327 
L 481.218684 146.824801 
L 492.665789 149.763107 
L 504.112895 152.320772 
L 515.56 154.45636 
L 515.56 148.519638 
L 515.56 148.519638 
L 504.112895 145.857359 
L 492.665789 143.288596 
L 481.218684 140.180826 
L 469.771579 136.403549 
L 458.324474 132.68818 
L 446.877368 127.518449 
L 435.430263 122.221105 
L 423.983158 115.796557 
L 412.536053 107.954702 
L 401.088947 100.710463 
L 389.641842 92.737113 
L 378.194737 83.044308 
L 366.747632 74.194031 
L 355.300526 66.267963 
L 343.853421 56.333179 
L 332.406316 48.111982 
L 320.959211 41.218443 
L 309.512105 35.47916 
L 298.065 33.711479 
z
" clip-path="url(#p1bec705fe9)" style="fill: #ff7f0e; fill-opacity: 0.4"/>
   </g>
   <g id="PolyCollection_11">
    <path d="M 298.065 33.703674 
L 298.065 34.442295 
L 309.512105 36.677745 
L 320.959211 43.74584 
L 332.406316 53.898374 
L 343.853421 64.62666 
L 355.300526 76.19376 
L 366.747632 87.276608 
L 378.194737 97.054295 
L 389.641842 106.56451 
L 401.088947 115.455768 
L 412.536053 121.344788 
L 423.983158 127.284373 
L 435.430263 132.883914 
L 446.877368 136.842363 
L 458.324474 140.984989 
L 469.771579 144.266416 
L 481.218684 147.260332 
L 492.665789 150.542825 
L 504.112895 153.050367 
L 515.56 155.329569 
L 515.56 148.717322 
L 515.56 148.717322 
L 504.112895 146.45118 
L 492.665789 143.544844 
L 481.218684 140.307105 
L 469.771579 136.579914 
L 458.324474 132.936673 
L 446.877368 127.653177 
L 435.430263 122.299576 
L 423.983158 116.001963 
L 412.536053 108.05243 
L 401.088947 100.764281 
L 389.641842 92.734167 
L 378.194737 83.050317 
L 366.747632 74.257239 
L 355.300526 66.247442 
L 343.853421 56.348121 
L 332.406316 48.06553 
L 320.959211 41.20452 
L 309.512105 35.461741 
L 298.065 33.703674 
z
" clip-path="url(#p1bec705fe9)" style="fill: #2ca02c; fill-opacity: 0.4"/>
   </g>
   <g id="PolyCollection_12">
    <path d="M 298.065 33.724624 
L 298.065 34.455761 
L 309.512105 36.696021 
L 320.959211 43.758421 
L 332.406316 53.916474 
L 343.853421 64.658091 
L 355.300526 76.243136 
L 366.747632 87.349487 
L 378.194737 97.150419 
L 389.641842 106.696867 
L 401.088947 115.585504 
L 412.536053 121.466814 
L 423.983158 127.386724 
L 435.430263 133.084377 
L 446.877368 136.966351 
L 458.324474 141.163017 
L 469.771579 144.335454 
L 481.218684 147.265705 
L 492.665789 150.421991 
L 504.112895 152.907813 
L 515.56 155.048444 
L 515.56 148.828265 
L 515.56 148.828265 
L 504.112895 146.300291 
L 492.665789 143.426366 
L 481.218684 140.262234 
L 469.771579 136.520785 
L 458.324474 132.858229 
L 446.877368 127.657344 
L 435.430263 122.251078 
L 423.983158 115.906829 
L 412.536053 108.00026 
L 401.088947 100.708958 
L 389.641842 92.751209 
L 378.194737 83.042037 
L 366.747632 74.214816 
L 355.300526 66.26309 
L 343.853421 56.337838 
L 332.406316 48.083248 
L 320.959211 41.231816 
L 309.512105 35.484169 
L 298.065 33.724624 
z
" clip-path="url(#p1bec705fe9)" style="fill: #d62728; fill-opacity: 0.4"/>
   </g>
   <g id="PolyCollection_13">
    <path d="M 298.065 33.717153 
L 298.065 34.440455 
L 309.512105 36.68166 
L 320.959211 43.738321 
L 332.406316 53.940305 
L 343.853421 64.662829 
L 355.300526 76.267582 
L 366.747632 87.440585 
L 378.194737 97.102669 
L 389.641842 107.034253 
L 401.088947 115.631884 
L 412.536053 121.504289 
L 423.983158 127.4922 
L 435.430263 132.953211 
L 446.877368 136.435541 
L 458.324474 140.192784 
L 469.771579 143.56777 
L 481.218684 146.61953 
L 492.665789 148.68393 
L 504.112895 151.870121 
L 515.56 154.288445 
L 515.56 148.375854 
L 515.56 148.375854 
L 504.112895 147.653506 
L 492.665789 143.143102 
L 481.218684 140.903527 
L 469.771579 136.995782 
L 458.324474 133.01249 
L 446.877368 127.667265 
L 435.430263 122.638589 
L 423.983158 115.307638 
L 412.536053 107.63435 
L 401.088947 100.902089 
L 389.641842 92.513716 
L 378.194737 83.024533 
L 366.747632 74.224134 
L 355.300526 66.26709 
L 343.853421 56.41868 
L 332.406316 48.096302 
L 320.959211 41.219878 
L 309.512105 35.478013 
L 298.065 33.717153 
z
" clip-path="url(#p1bec705fe9)" style="fill: #9467bd; fill-opacity: 0.4"/>
   </g>
   <g id="PolyCollection_14">
    <path d="M 298.065 33.730313 
L 298.065 34.454155 
L 309.512105 36.691096 
L 320.959211 43.754488 
L 332.406316 53.953312 
L 343.853421 64.631963 
L 355.300526 76.27788 
L 366.747632 87.465834 
L 378.194737 97.146488 
L 389.641842 107.072161 
L 401.088947 115.726639 
L 412.536053 121.631256 
L 423.983158 127.659425 
L 435.430263 133.382051 
L 446.877368 136.838733 
L 458.324474 140.75387 
L 469.771579 144.185226 
L 481.218684 147.132108 
L 492.665789 149.310233 
L 504.112895 152.506209 
L 515.56 154.77618 
L 515.56 148.262228 
L 515.56 148.262228 
L 504.112895 147.259312 
L 492.665789 142.940548 
L 481.218684 140.878079 
L 469.771579 136.93168 
L 458.324474 133.002262 
L 446.877368 127.788975 
L 435.430263 122.740795 
L 423.983158 115.39995 
L 412.536053 107.777899 
L 401.088947 101.046782 
L 389.641842 92.641928 
L 378.194737 83.138266 
L 366.747632 74.253516 
L 355.300526 66.338517 
L 343.853421 56.431593 
L 332.406316 48.123138 
L 320.959211 41.248279 
L 309.512105 35.498234 
L 298.065 33.730313 
z
" clip-path="url(#p1bec705fe9)" style="fill: #8c564b; fill-opacity: 0.4"/>
   </g>
   <g id="PolyCollection_15">
    <path d="M 298.065 44.54758 
L 298.065 47.947456 
L 309.512105 49.631305 
L 320.959211 56.477923 
L 332.406316 65.466291 
L 343.853421 75.753165 
L 355.300526 86.968285 
L 366.747632 97.453607 
L 378.194737 107.139829 
L 389.641842 116.328618 
L 401.088947 124.020351 
L 412.536053 129.72328 
L 423.983158 134.115863 
L 435.430263 138.834259 
L 446.877368 142.022737 
L 458.324474 145.30084 
L 469.771579 147.201713 
L 481.218684 150.233514 
L 492.665789 152.392811 
L 504.112895 154.843138 
L 515.56 156.95678 
L 515.56 151.345409 
L 515.56 151.345409 
L 504.112895 149.046516 
L 492.665789 146.546848 
L 481.218684 143.041144 
L 469.771579 139.845077 
L 458.324474 136.046191 
L 446.877368 130.878779 
L 435.430263 125.927312 
L 423.983158 119.980108 
L 412.536053 112.409357 
L 401.088947 105.683594 
L 389.641842 98.448638 
L 378.194737 89.689507 
L 366.747632 81.782714 
L 355.300526 74.933871 
L 343.853421 65.936592 
L 332.406316 58.270655 
L 320.959211 51.94185 
L 309.512105 46.378243 
L 298.065 44.54758 
z
" clip-path="url(#p1bec705fe9)" style="fill: #e377c2; fill-opacity: 0.4"/>
   </g>
   <g id="PolyCollection_16">
    <path d="M 298.065 33.723416 
L 298.065 34.451049 
L 309.512105 36.68063 
L 320.959211 43.749225 
L 332.406316 53.894969 
L 343.853421 64.561838 
L 355.300526 76.175801 
L 366.747632 87.265877 
L 378.194737 97.057206 
L 389.641842 106.710171 
L 401.088947 115.625176 
L 412.536053 121.487614 
L 423.983158 127.511359 
L 435.430263 133.361944 
L 446.877368 137.067571 
L 458.324474 141.623168 
L 469.771579 144.58986 
L 481.218684 147.800857 
L 492.665789 150.830666 
L 504.112895 153.501962 
L 515.56 155.706366 
L 515.56 149.437322 
L 515.56 149.437322 
L 504.112895 146.37752 
L 492.665789 143.673675 
L 481.218684 140.63578 
L 469.771579 136.902092 
L 458.324474 133.207965 
L 446.877368 128.026026 
L 435.430263 122.591304 
L 423.983158 116.259011 
L 412.536053 108.431208 
L 401.088947 101.059833 
L 389.641842 92.954518 
L 378.194737 83.285137 
L 366.747632 74.348993 
L 355.300526 66.338609 
L 343.853421 56.363262 
L 332.406316 48.11669 
L 320.959211 41.252085 
L 309.512105 35.472832 
L 298.065 33.723416 
z
" clip-path="url(#p1bec705fe9)" style="fill: #7f7f7f; fill-opacity: 0.4"/>
   </g>
   <g id="matplotlib.axis_3">
    <g id="xtick_6">
     <g id="line2d_18">
      <g>
       <use xlink:href="#mcc84f771ec" x="298.065" y="174.04" style="stroke: #000000; stroke-width: 0.8"/>
      </g>
     </g>
     <g id="text_13">
      <!-- 0.0 -->
      <g transform="translate(290.113437 188.638438)scale(0.1 -0.1)">
       <use xlink:href="#DejaVuSans-30"/>
       <use xlink:href="#DejaVuSans-2e" x="63.623047"/>
       <use xlink:href="#DejaVuSans-30" x="95.410156"/>
      </g>
     </g>
    </g>
    <g id="xtick_7">
     <g id="line2d_19">
      <g>
       <use xlink:href="#mcc84f771ec" x="352.43875" y="174.04" style="stroke: #000000; stroke-width: 0.8"/>
      </g>
     </g>
     <g id="text_14">
      <!-- 0.5 -->
      <g transform="translate(344.487187 188.638438)scale(0.1 -0.1)">
       <use xlink:href="#DejaVuSans-30"/>
       <use xlink:href="#DejaVuSans-2e" x="63.623047"/>
       <use xlink:href="#DejaVuSans-35" x="95.410156"/>
      </g>
     </g>
    </g>
    <g id="xtick_8">
     <g id="line2d_20">
      <g>
       <use xlink:href="#mcc84f771ec" x="406.8125" y="174.04" style="stroke: #000000; stroke-width: 0.8"/>
      </g>
     </g>
     <g id="text_15">
      <!-- 1.0 -->
      <g transform="translate(398.860937 188.638438)scale(0.1 -0.1)">
       <use xlink:href="#DejaVuSans-31"/>
       <use xlink:href="#DejaVuSans-2e" x="63.623047"/>
       <use xlink:href="#DejaVuSans-30" x="95.410156"/>
      </g>
     </g>
    </g>
    <g id="xtick_9">
     <g id="line2d_21">
      <g>
       <use xlink:href="#mcc84f771ec" x="461.18625" y="174.04" style="stroke: #000000; stroke-width: 0.8"/>
      </g>
     </g>
     <g id="text_16">
      <!-- 1.5 -->
      <g transform="translate(453.234687 188.638438)scale(0.1 -0.1)">
       <use xlink:href="#DejaVuSans-31"/>
       <use xlink:href="#DejaVuSans-2e" x="63.623047"/>
       <use xlink:href="#DejaVuSans-35" x="95.410156"/>
      </g>
     </g>
    </g>
    <g id="xtick_10">
     <g id="line2d_22">
      <g>
       <use xlink:href="#mcc84f771ec" x="515.56" y="174.04" style="stroke: #000000; stroke-width: 0.8"/>
      </g>
     </g>
     <g id="text_17">
      <!-- 2.0 -->
      <g transform="translate(507.608437 188.638438)scale(0.1 -0.1)">
       <use xlink:href="#DejaVuSans-32"/>
       <use xlink:href="#DejaVuSans-2e" x="63.623047"/>
       <use xlink:href="#DejaVuSans-30" x="95.410156"/>
      </g>
     </g>
    </g>
    <g id="text_18">
     <!-- Influence of surprisal (multiplication) -->
     <g transform="translate(314.665625 202.316563)scale(0.1 -0.1)">
      <use xlink:href="#DejaVuSans-49"/>
      <use xlink:href="#DejaVuSans-6e" x="29.492188"/>
      <use xlink:href="#DejaVuSans-66" x="92.871094"/>
      <use xlink:href="#DejaVuSans-6c" x="128.076172"/>
      <use xlink:href="#DejaVuSans-75" x="155.859375"/>
      <use xlink:href="#DejaVuSans-65" x="219.238281"/>
      <use xlink:href="#DejaVuSans-6e" x="280.761719"/>
      <use xlink:href="#DejaVuSans-63" x="344.140625"/>
      <use xlink:href="#DejaVuSans-65" x="399.121094"/>
      <use xlink:href="#DejaVuSans-20" x="460.644531"/>
      <use xlink:href="#DejaVuSans-6f" x="492.431641"/>
      <use xlink:href="#DejaVuSans-66" x="553.613281"/>
      <use xlink:href="#DejaVuSans-20" x="588.818359"/>
      <use xlink:href="#DejaVuSans-73" x="620.605469"/>
      <use xlink:href="#DejaVuSans-75" x="672.705078"/>
      <use xlink:href="#DejaVuSans-72" x="736.083984"/>
      <use xlink:href="#DejaVuSans-70" x="777.197266"/>
      <use xlink:href="#DejaVuSans-72" x="840.673828"/>
      <use xlink:href="#DejaVuSans-69" x="881.787109"/>
      <use xlink:href="#DejaVuSans-73" x="909.570312"/>
      <use xlink:href="#DejaVuSans-61" x="961.669922"/>
      <use xlink:href="#DejaVuSans-6c" x="1022.949219"/>
      <use xlink:href="#DejaVuSans-20" x="1050.732422"/>
      <use xlink:href="#DejaVuSans-28" x="1082.519531"/>
      <use xlink:href="#DejaVuSans-6d" x="1121.533203"/>
      <use xlink:href="#DejaVuSans-75" x="1218.945312"/>
      <use xlink:href="#DejaVuSans-6c" x="1282.324219"/>
      <use xlink:href="#DejaVuSans-74" x="1310.107422"/>
      <use xlink:href="#DejaVuSans-69" x="1349.316406"/>
      <use xlink:href="#DejaVuSans-70" x="1377.099609"/>
      <use xlink:href="#DejaVuSans-6c" x="1440.576172"/>
      <use xlink:href="#DejaVuSans-69" x="1468.359375"/>
      <use xlink:href="#DejaVuSans-63" x="1496.142578"/>
      <use xlink:href="#DejaVuSans-61" x="1551.123047"/>
      <use xlink:href="#DejaVuSans-74" x="1612.402344"/>
      <use xlink:href="#DejaVuSans-69" x="1651.611328"/>
      <use xlink:href="#DejaVuSans-6f" x="1679.394531"/>
      <use xlink:href="#DejaVuSans-6e" x="1740.576172"/>
      <use xlink:href="#DejaVuSans-29" x="1803.955078"/>
     </g>
    </g>
   </g>
   <g id="line2d_23">
    <path d="M 298.065 34.063387 
L 309.512105 36.063109 
L 320.959211 42.461011 
L 332.406316 50.978722 
L 343.853421 60.486478 
L 355.300526 71.185998 
L 366.747632 80.740974 
L 378.194737 90.025633 
L 389.641842 99.675014 
L 401.088947 108.045148 
L 412.536053 114.599427 
L 423.983158 121.465946 
L 435.430263 127.315822 
L 446.877368 131.844528 
L 458.324474 136.4959 
L 469.771579 139.850461 
L 481.218684 143.249581 
L 492.665789 146.369931 
L 504.112895 148.955474 
L 515.56 151.307067 
" clip-path="url(#p1bec705fe9)" style="fill: none; stroke: #1f77b4; stroke-width: 1.5; stroke-linecap: square"/>
   </g>
   <g id="line2d_24">
    <path d="M 298.065 34.076737 
L 309.512105 36.077553 
L 320.959211 42.48201 
L 332.406316 51.000315 
L 343.853421 60.477736 
L 355.300526 71.227546 
L 366.747632 80.76416 
L 378.194737 90.108996 
L 389.641842 99.763442 
L 401.088947 108.153852 
L 412.536053 114.730585 
L 423.983158 121.581188 
L 435.430263 127.575099 
L 446.877368 132.112942 
L 458.324474 136.773148 
L 469.771579 140.131438 
L 481.218684 143.502814 
L 492.665789 146.525852 
L 504.112895 149.089065 
L 515.56 151.487999 
" clip-path="url(#p1bec705fe9)" style="fill: none; stroke: #ff7f0e; stroke-width: 1.5; stroke-linecap: square"/>
   </g>
   <g id="line2d_25">
    <path d="M 298.065 34.072985 
L 309.512105 36.069743 
L 320.959211 42.47518 
L 332.406316 50.981952 
L 343.853421 60.48739 
L 355.300526 71.220601 
L 366.747632 80.766924 
L 378.194737 90.052306 
L 389.641842 99.649339 
L 401.088947 108.110024 
L 412.536053 114.698609 
L 423.983158 121.643168 
L 435.430263 127.591745 
L 446.877368 132.24777 
L 458.324474 136.960831 
L 469.771579 140.423165 
L 481.218684 143.783718 
L 492.665789 147.043835 
L 504.112895 149.750774 
L 515.56 152.023445 
" clip-path="url(#p1bec705fe9)" style="fill: none; stroke: #2ca02c; stroke-width: 1.5; stroke-linecap: square"/>
   </g>
   <g id="line2d_26">
    <path d="M 298.065 34.090193 
L 309.512105 36.090095 
L 320.959211 42.495119 
L 332.406316 50.999861 
L 343.853421 60.497965 
L 355.300526 71.253113 
L 366.747632 80.782152 
L 378.194737 90.096228 
L 389.641842 99.724038 
L 401.088947 108.147231 
L 412.536053 114.733537 
L 423.983158 121.646777 
L 435.430263 127.667728 
L 446.877368 132.311847 
L 458.324474 137.010623 
L 469.771579 140.42812 
L 481.218684 143.76397 
L 492.665789 146.924178 
L 504.112895 149.604052 
L 515.56 151.938354 
" clip-path="url(#p1bec705fe9)" style="fill: none; stroke: #d62728; stroke-width: 1.5; stroke-linecap: square"/>
   </g>
   <g id="line2d_27">
    <path d="M 298.065 34.078804 
L 309.512105 36.079836 
L 320.959211 42.479099 
L 332.406316 51.018304 
L 343.853421 60.540754 
L 355.300526 71.267336 
L 366.747632 80.832359 
L 378.194737 90.063601 
L 389.641842 99.773984 
L 401.088947 108.266987 
L 412.536053 114.569319 
L 423.983158 121.399919 
L 435.430263 127.7959 
L 446.877368 132.051403 
L 458.324474 136.602637 
L 469.771579 140.281776 
L 481.218684 143.761528 
L 492.665789 145.913516 
L 504.112895 149.761814 
L 515.56 151.332149 
" clip-path="url(#p1bec705fe9)" style="fill: none; stroke: #9467bd; stroke-width: 1.5; stroke-linecap: square"/>
   </g>
   <g id="line2d_28">
    <path d="M 298.065 34.092234 
L 309.512105 36.094665 
L 320.959211 42.501384 
L 332.406316 51.038225 
L 343.853421 60.531778 
L 355.300526 71.308198 
L 366.747632 80.859675 
L 378.194737 90.142377 
L 389.641842 99.857045 
L 401.088947 108.38671 
L 412.536053 114.704577 
L 423.983158 121.529687 
L 435.430263 128.061423 
L 446.877368 132.313854 
L 458.324474 136.878066 
L 469.771579 140.558453 
L 481.218684 144.005094 
L 492.665789 146.125391 
L 504.112895 149.88276 
L 515.56 151.519204 
" clip-path="url(#p1bec705fe9)" style="fill: none; stroke: #8c564b; stroke-width: 1.5; stroke-linecap: square"/>
   </g>
   <g id="line2d_29">
    <path d="M 298.065 46.247518 
L 309.512105 48.004774 
L 320.959211 54.209886 
L 332.406316 61.868473 
L 343.853421 70.844878 
L 355.300526 80.951078 
L 366.747632 89.61816 
L 378.194737 98.414668 
L 389.641842 107.388628 
L 401.088947 114.851973 
L 412.536053 121.066318 
L 423.983158 127.047986 
L 435.430263 132.380786 
L 446.877368 136.450758 
L 458.324474 140.673515 
L 469.771579 143.523395 
L 481.218684 146.637329 
L 492.665789 149.469829 
L 504.112895 151.944827 
L 515.56 154.151094 
" clip-path="url(#p1bec705fe9)" style="fill: none; stroke: #e377c2; stroke-width: 1.5; stroke-linecap: square"/>
   </g>
   <g id="line2d_30">
    <path d="M 298.065 34.087232 
L 309.512105 36.076731 
L 320.959211 42.500655 
L 332.406316 51.00583 
L 343.853421 60.46255 
L 355.300526 71.257205 
L 366.747632 80.807435 
L 378.194737 90.171171 
L 389.641842 99.832345 
L 401.088947 108.342504 
L 412.536053 114.959411 
L 423.983158 121.885185 
L 435.430263 127.976624 
L 446.877368 132.546798 
L 458.324474 137.415567 
L 469.771579 140.745976 
L 481.218684 144.218318 
L 492.665789 147.252171 
L 504.112895 149.939741 
L 515.56 152.571844 
" clip-path="url(#p1bec705fe9)" style="fill: none; stroke: #7f7f7f; stroke-width: 1.5; stroke-linecap: square"/>
   </g>
   <g id="patch_6">
    <path d="M 298.065 174.04 
L 298.065 26.88 
" style="fill: none; stroke: #000000; stroke-width: 0.8; stroke-linejoin: miter; stroke-linecap: square"/>
   </g>
   <g id="patch_7">
    <path d="M 298.065 174.04 
L 515.56 174.04 
" style="fill: none; stroke: #000000; stroke-width: 0.8; stroke-linejoin: miter; stroke-linecap: square"/>
   </g>
   <g id="text_19">
    <!-- Node * third variable -->
    <g transform="translate(344.2325 20.88)scale(0.12 -0.12)">
     <defs>
      <path id="DejaVuSans-68" d="M 3513 2113 
L 3513 0 
L 2938 0 
L 2938 2094 
Q 2938 2591 2744 2837 
Q 2550 3084 2163 3084 
Q 1697 3084 1428 2787 
Q 1159 2491 1159 1978 
L 1159 0 
L 581 0 
L 581 4863 
L 1159 4863 
L 1159 2956 
Q 1366 3272 1645 3428 
Q 1925 3584 2291 3584 
Q 2894 3584 3203 3211 
Q 3513 2838 3513 2113 
z
" transform="scale(0.015625)"/>
      <path id="DejaVuSans-62" d="M 3116 1747 
Q 3116 2381 2855 2742 
Q 2594 3103 2138 3103 
Q 1681 3103 1420 2742 
Q 1159 2381 1159 1747 
Q 1159 1113 1420 752 
Q 1681 391 2138 391 
Q 2594 391 2855 752 
Q 3116 1113 3116 1747 
z
M 1159 2969 
Q 1341 3281 1617 3432 
Q 1894 3584 2278 3584 
Q 2916 3584 3314 3078 
Q 3713 2572 3713 1747 
Q 3713 922 3314 415 
Q 2916 -91 2278 -91 
Q 1894 -91 1617 61 
Q 1341 213 1159 525 
L 1159 0 
L 581 0 
L 581 4863 
L 1159 4863 
L 1159 2969 
z
" transform="scale(0.015625)"/>
     </defs>
     <use xlink:href="#DejaVuSans-4e"/>
     <use xlink:href="#DejaVuSans-6f" x="74.804688"/>
     <use xlink:href="#DejaVuSans-64" x="135.986328"/>
     <use xlink:href="#DejaVuSans-65" x="199.462891"/>
     <use xlink:href="#DejaVuSans-20" x="260.986328"/>
     <use xlink:href="#DejaVuSans-2a" x="292.773438"/>
     <use xlink:href="#DejaVuSans-20" x="342.773438"/>
     <use xlink:href="#DejaVuSans-74" x="374.560547"/>
     <use xlink:href="#DejaVuSans-68" x="413.769531"/>
     <use xlink:href="#DejaVuSans-69" x="477.148438"/>
     <use xlink:href="#DejaVuSans-72" x="504.931641"/>
     <use xlink:href="#DejaVuSans-64" x="544.294922"/>
     <use xlink:href="#DejaVuSans-20" x="607.771484"/>
     <use xlink:href="#DejaVuSans-76" x="639.558594"/>
     <use xlink:href="#DejaVuSans-61" x="698.738281"/>
     <use xlink:href="#DejaVuSans-72" x="760.017578"/>
     <use xlink:href="#DejaVuSans-69" x="801.130859"/>
     <use xlink:href="#DejaVuSans-61" x="828.914062"/>
     <use xlink:href="#DejaVuSans-62" x="890.193359"/>
     <use xlink:href="#DejaVuSans-6c" x="953.669922"/>
     <use xlink:href="#DejaVuSans-65" x="981.453125"/>
    </g>
   </g>
   <g id="legend_1">
    <g id="line2d_31">
     <path d="M 524.56 39.978437 
L 534.56 39.978437 
L 544.56 39.978437 
" style="fill: none; stroke: #1f77b4; stroke-width: 1.5; stroke-linecap: square"/>
    </g>
    <g id="text_20">
     <!-- Node -->
     <g transform="translate(552.56 43.478437)scale(0.1 -0.1)">
      <use xlink:href="#DejaVuSans-4e"/>
      <use xlink:href="#DejaVuSans-6f" x="74.804688"/>
      <use xlink:href="#DejaVuSans-64" x="135.986328"/>
      <use xlink:href="#DejaVuSans-65" x="199.462891"/>
     </g>
    </g>
    <g id="line2d_32">
     <path d="M 524.56 54.656563 
L 534.56 54.656563 
L 544.56 54.656563 
" style="fill: none; stroke: #ff7f0e; stroke-width: 1.5; stroke-linecap: square"/>
    </g>
    <g id="text_21">
     <!-- Node + surprisal -->
     <g transform="translate(552.56 58.156563)scale(0.1 -0.1)">
      <defs>
       <path id="DejaVuSans-2b" d="M 2944 4013 
L 2944 2272 
L 4684 2272 
L 4684 1741 
L 2944 1741 
L 2944 0 
L 2419 0 
L 2419 1741 
L 678 1741 
L 678 2272 
L 2419 2272 
L 2419 4013 
L 2944 4013 
z
" transform="scale(0.015625)"/>
      </defs>
      <use xlink:href="#DejaVuSans-4e"/>
      <use xlink:href="#DejaVuSans-6f" x="74.804688"/>
      <use xlink:href="#DejaVuSans-64" x="135.986328"/>
      <use xlink:href="#DejaVuSans-65" x="199.462891"/>
      <use xlink:href="#DejaVuSans-20" x="260.986328"/>
      <use xlink:href="#DejaVuSans-2b" x="292.773438"/>
      <use xlink:href="#DejaVuSans-20" x="376.5625"/>
      <use xlink:href="#DejaVuSans-73" x="408.349609"/>
      <use xlink:href="#DejaVuSans-75" x="460.449219"/>
      <use xlink:href="#DejaVuSans-72" x="523.828125"/>
      <use xlink:href="#DejaVuSans-70" x="564.941406"/>
      <use xlink:href="#DejaVuSans-72" x="628.417969"/>
      <use xlink:href="#DejaVuSans-69" x="669.53125"/>
      <use xlink:href="#DejaVuSans-73" x="697.314453"/>
      <use xlink:href="#DejaVuSans-61" x="749.414062"/>
      <use xlink:href="#DejaVuSans-6c" x="810.693359"/>
     </g>
    </g>
    <g id="line2d_33">
     <path d="M 524.56 69.334687 
L 534.56 69.334687 
L 544.56 69.334687 
" style="fill: none; stroke: #2ca02c; stroke-width: 1.5; stroke-linecap: square"/>
    </g>
    <g id="text_22">
     <!-- Node split -->
     <g transform="translate(552.56 72.834687)scale(0.1 -0.1)">
      <use xlink:href="#DejaVuSans-4e"/>
      <use xlink:href="#DejaVuSans-6f" x="74.804688"/>
      <use xlink:href="#DejaVuSans-64" x="135.986328"/>
      <use xlink:href="#DejaVuSans-65" x="199.462891"/>
      <use xlink:href="#DejaVuSans-20" x="260.986328"/>
      <use xlink:href="#DejaVuSans-73" x="292.773438"/>
      <use xlink:href="#DejaVuSans-70" x="344.873047"/>
      <use xlink:href="#DejaVuSans-6c" x="408.349609"/>
      <use xlink:href="#DejaVuSans-69" x="436.132812"/>
      <use xlink:href="#DejaVuSans-74" x="463.916016"/>
     </g>
    </g>
    <g id="line2d_34">
     <path d="M 524.56 84.012812 
L 534.56 84.012812 
L 544.56 84.012812 
" style="fill: none; stroke: #d62728; stroke-width: 1.5; stroke-linecap: square"/>
    </g>
    <g id="text_23">
     <!-- Node split + surprisal -->
     <g transform="translate(552.56 87.512812)scale(0.1 -0.1)">
      <use xlink:href="#DejaVuSans-4e"/>
      <use xlink:href="#DejaVuSans-6f" x="74.804688"/>
      <use xlink:href="#DejaVuSans-64" x="135.986328"/>
      <use xlink:href="#DejaVuSans-65" x="199.462891"/>
      <use xlink:href="#DejaVuSans-20" x="260.986328"/>
      <use xlink:href="#DejaVuSans-73" x="292.773438"/>
      <use xlink:href="#DejaVuSans-70" x="344.873047"/>
      <use xlink:href="#DejaVuSans-6c" x="408.349609"/>
      <use xlink:href="#DejaVuSans-69" x="436.132812"/>
      <use xlink:href="#DejaVuSans-74" x="463.916016"/>
      <use xlink:href="#DejaVuSans-20" x="503.125"/>
      <use xlink:href="#DejaVuSans-2b" x="534.912109"/>
      <use xlink:href="#DejaVuSans-20" x="618.701172"/>
      <use xlink:href="#DejaVuSans-73" x="650.488281"/>
      <use xlink:href="#DejaVuSans-75" x="702.587891"/>
      <use xlink:href="#DejaVuSans-72" x="765.966797"/>
      <use xlink:href="#DejaVuSans-70" x="807.080078"/>
      <use xlink:href="#DejaVuSans-72" x="870.556641"/>
      <use xlink:href="#DejaVuSans-69" x="911.669922"/>
      <use xlink:href="#DejaVuSans-73" x="939.453125"/>
      <use xlink:href="#DejaVuSans-61" x="991.552734"/>
      <use xlink:href="#DejaVuSans-6c" x="1052.832031"/>
     </g>
    </g>
    <g id="line2d_35">
     <path d="M 524.56 98.690937 
L 534.56 98.690937 
L 544.56 98.690937 
" style="fill: none; stroke: #9467bd; stroke-width: 1.5; stroke-linecap: square"/>
    </g>
    <g id="text_24">
     <!-- Node random split -->
     <g transform="translate(552.56 102.190937)scale(0.1 -0.1)">
      <use xlink:href="#DejaVuSans-4e"/>
      <use xlink:href="#DejaVuSans-6f" x="74.804688"/>
      <use xlink:href="#DejaVuSans-64" x="135.986328"/>
      <use xlink:href="#DejaVuSans-65" x="199.462891"/>
      <use xlink:href="#DejaVuSans-20" x="260.986328"/>
      <use xlink:href="#DejaVuSans-72" x="292.773438"/>
      <use xlink:href="#DejaVuSans-61" x="333.886719"/>
      <use xlink:href="#DejaVuSans-6e" x="395.166016"/>
      <use xlink:href="#DejaVuSans-64" x="458.544922"/>
      <use xlink:href="#DejaVuSans-6f" x="522.021484"/>
      <use xlink:href="#DejaVuSans-6d" x="583.203125"/>
      <use xlink:href="#DejaVuSans-20" x="680.615234"/>
      <use xlink:href="#DejaVuSans-73" x="712.402344"/>
      <use xlink:href="#DejaVuSans-70" x="764.501953"/>
      <use xlink:href="#DejaVuSans-6c" x="827.978516"/>
      <use xlink:href="#DejaVuSans-69" x="855.761719"/>
      <use xlink:href="#DejaVuSans-74" x="883.544922"/>
     </g>
    </g>
    <g id="line2d_36">
     <path d="M 524.56 113.369062 
L 534.56 113.369062 
L 544.56 113.369062 
" style="fill: none; stroke: #8c564b; stroke-width: 1.5; stroke-linecap: square"/>
    </g>
    <g id="text_25">
     <!-- Node random split + surprisal -->
     <g transform="translate(552.56 116.869062)scale(0.1 -0.1)">
      <use xlink:href="#DejaVuSans-4e"/>
      <use xlink:href="#DejaVuSans-6f" x="74.804688"/>
      <use xlink:href="#DejaVuSans-64" x="135.986328"/>
      <use xlink:href="#DejaVuSans-65" x="199.462891"/>
      <use xlink:href="#DejaVuSans-20" x="260.986328"/>
      <use xlink:href="#DejaVuSans-72" x="292.773438"/>
      <use xlink:href="#DejaVuSans-61" x="333.886719"/>
      <use xlink:href="#DejaVuSans-6e" x="395.166016"/>
      <use xlink:href="#DejaVuSans-64" x="458.544922"/>
      <use xlink:href="#DejaVuSans-6f" x="522.021484"/>
      <use xlink:href="#DejaVuSans-6d" x="583.203125"/>
      <use xlink:href="#DejaVuSans-20" x="680.615234"/>
      <use xlink:href="#DejaVuSans-73" x="712.402344"/>
      <use xlink:href="#DejaVuSans-70" x="764.501953"/>
      <use xlink:href="#DejaVuSans-6c" x="827.978516"/>
      <use xlink:href="#DejaVuSans-69" x="855.761719"/>
      <use xlink:href="#DejaVuSans-74" x="883.544922"/>
      <use xlink:href="#DejaVuSans-20" x="922.753906"/>
      <use xlink:href="#DejaVuSans-2b" x="954.541016"/>
      <use xlink:href="#DejaVuSans-20" x="1038.330078"/>
      <use xlink:href="#DejaVuSans-73" x="1070.117188"/>
      <use xlink:href="#DejaVuSans-75" x="1122.216797"/>
      <use xlink:href="#DejaVuSans-72" x="1185.595703"/>
      <use xlink:href="#DejaVuSans-70" x="1226.708984"/>
      <use xlink:href="#DejaVuSans-72" x="1290.185547"/>
      <use xlink:href="#DejaVuSans-69" x="1331.298828"/>
      <use xlink:href="#DejaVuSans-73" x="1359.082031"/>
      <use xlink:href="#DejaVuSans-61" x="1411.181641"/>
      <use xlink:href="#DejaVuSans-6c" x="1472.460938"/>
     </g>
    </g>
    <g id="line2d_37">
     <path d="M 524.56 128.047187 
L 534.56 128.047187 
L 544.56 128.047187 
" style="fill: none; stroke: #e377c2; stroke-width: 1.5; stroke-linecap: square"/>
    </g>
    <g id="text_26">
     <!-- Interaction -->
     <g transform="translate(552.56 131.547187)scale(0.1 -0.1)">
      <use xlink:href="#DejaVuSans-49"/>
      <use xlink:href="#DejaVuSans-6e" x="29.492188"/>
      <use xlink:href="#DejaVuSans-74" x="92.871094"/>
      <use xlink:href="#DejaVuSans-65" x="132.080078"/>
      <use xlink:href="#DejaVuSans-72" x="193.603516"/>
      <use xlink:href="#DejaVuSans-61" x="234.716797"/>
      <use xlink:href="#DejaVuSans-63" x="295.996094"/>
      <use xlink:href="#DejaVuSans-74" x="350.976562"/>
      <use xlink:href="#DejaVuSans-69" x="390.185547"/>
      <use xlink:href="#DejaVuSans-6f" x="417.96875"/>
      <use xlink:href="#DejaVuSans-6e" x="479.150391"/>
     </g>
    </g>
    <g id="line2d_38">
     <path d="M 524.56 142.725312 
L 534.56 142.725312 
L 544.56 142.725312 
" style="fill: none; stroke: #7f7f7f; stroke-width: 1.5; stroke-linecap: square"/>
    </g>
    <g id="text_27">
     <!-- Node + surprisal + interaction -->
     <g transform="translate(552.56 146.225312)scale(0.1 -0.1)">
      <use xlink:href="#DejaVuSans-4e"/>
      <use xlink:href="#DejaVuSans-6f" x="74.804688"/>
      <use xlink:href="#DejaVuSans-64" x="135.986328"/>
      <use xlink:href="#DejaVuSans-65" x="199.462891"/>
      <use xlink:href="#DejaVuSans-20" x="260.986328"/>
      <use xlink:href="#DejaVuSans-2b" x="292.773438"/>
      <use xlink:href="#DejaVuSans-20" x="376.5625"/>
      <use xlink:href="#DejaVuSans-73" x="408.349609"/>
      <use xlink:href="#DejaVuSans-75" x="460.449219"/>
      <use xlink:href="#DejaVuSans-72" x="523.828125"/>
      <use xlink:href="#DejaVuSans-70" x="564.941406"/>
      <use xlink:href="#DejaVuSans-72" x="628.417969"/>
      <use xlink:href="#DejaVuSans-69" x="669.53125"/>
      <use xlink:href="#DejaVuSans-73" x="697.314453"/>
      <use xlink:href="#DejaVuSans-61" x="749.414062"/>
      <use xlink:href="#DejaVuSans-6c" x="810.693359"/>
      <use xlink:href="#DejaVuSans-20" x="838.476562"/>
      <use xlink:href="#DejaVuSans-2b" x="870.263672"/>
      <use xlink:href="#DejaVuSans-20" x="954.052734"/>
      <use xlink:href="#DejaVuSans-69" x="985.839844"/>
      <use xlink:href="#DejaVuSans-6e" x="1013.623047"/>
      <use xlink:href="#DejaVuSans-74" x="1077.001953"/>
      <use xlink:href="#DejaVuSans-65" x="1116.210938"/>
      <use xlink:href="#DejaVuSans-72" x="1177.734375"/>
      <use xlink:href="#DejaVuSans-61" x="1218.847656"/>
      <use xlink:href="#DejaVuSans-63" x="1280.126953"/>
      <use xlink:href="#DejaVuSans-74" x="1335.107422"/>
      <use xlink:href="#DejaVuSans-69" x="1374.316406"/>
      <use xlink:href="#DejaVuSans-6f" x="1402.099609"/>
      <use xlink:href="#DejaVuSans-6e" x="1463.28125"/>
     </g>
    </g>
   </g>
  </g>
 </g>
 <defs>
  <clipPath id="pa8a16a2ef8">
   <rect x="47.72" y="26.88" width="217.495" height="147.16"/>
  </clipPath>
  <clipPath id="p1bec705fe9">
   <rect x="298.065" y="26.88" width="217.495" height="147.16"/>
  </clipPath>
 </defs>
</svg>
