<?xml version="1.0" encoding="utf-8" standalone="no"?>
<!DOCTYPE svg PUBLIC "-//W3C//DTD SVG 1.1//EN"
  "http://www.w3.org/Graphics/SVG/1.1/DTD/svg11.dtd">
<svg xmlns:xlink="http://www.w3.org/1999/xlink" width="720pt" height="216pt" viewBox="0 0 720 216" xmlns="http://www.w3.org/2000/svg" version="1.1">
 <metadata>
  <rdf:RDF xmlns:dc="http://purl.org/dc/elements/1.1/" xmlns:cc="http://creativecommons.org/ns#" xmlns:rdf="http://www.w3.org/1999/02/22-rdf-syntax-ns#">
   <cc:Work>
    <dc:type rdf:resource="http://purl.org/dc/dcmitype/StillImage"/>
    <dc:date>2024-01-15T20:11:10.296879</dc:date>
    <dc:format>image/svg+xml</dc:format>
    <dc:creator>
     <cc:Agent>
      <dc:title>Matplotlib v3.5.1, https://matplotlib.org/</dc:title>
     </cc:Agent>
    </dc:creator>
   </cc:Work>
  </rdf:RDF>
 </metadata>
 <defs>
  <style type="text/css">*{stroke-linejoin: round; stroke-linecap: butt}</style>
 </defs>
 <g id="figure_1">
  <g id="patch_1">
   <path d="M 0 216 
L 720 216 
L 720 0 
L 0 0 
z
" style="fill: #ffffff"/>
  </g>
  <g id="axes_1">
   <g id="patch_2">
    <path d="M 47.72 174.04 
L 265.215 174.04 
L 265.215 26.88 
L 47.72 26.88 
z
" style="fill: #ffffff"/>
   </g>
   <g id="PolyCollection_1">
    <path d="M 47.72 33.569091 
L 47.72 34.690762 
L 59.167105 36.699751 
L 70.614211 42.787574 
L 82.061316 51.363578 
L 93.508421 62.515378 
L 104.955526 74.004312 
L 116.402632 84.998641 
L 127.849737 96.289144 
L 139.296842 106.500689 
L 150.743947 115.333521 
L 162.191053 122.564496 
L 173.638158 128.699706 
L 185.085263 133.752159 
L 196.532368 137.880604 
L 207.979474 141.722954 
L 219.426579 144.683233 
L 230.873684 148.410646 
L 242.320789 151.217262 
L 253.767895 154.15084 
L 265.215 157.033972 
L 265.215 148.367546 
L 265.215 148.367546 
L 253.767895 145.695001 
L 242.320789 143.4006 
L 230.873684 139.316394 
L 219.426579 135.536835 
L 207.979474 130.897445 
L 196.532368 124.826469 
L 185.085263 118.751505 
L 173.638158 111.834499 
L 162.191053 104.879203 
L 150.743947 97.434188 
L 139.296842 88.40372 
L 127.849737 80.392498 
L 116.402632 71.685065 
L 104.955526 63.14179 
L 93.508421 54.988539 
L 82.061316 47.582744 
L 70.614211 40.922691 
L 59.167105 35.610177 
L 47.72 33.569091 
z
" clip-path="url(#p27f1a49a32)" style="fill: #1f77b4; fill-opacity: 0.4"/>
   </g>
   <g id="PolyCollection_2">
    <path d="M 47.72 33.571493 
L 47.72 34.710447 
L 59.167105 36.01302 
L 70.614211 39.584774 
L 82.061316 44.867399 
L 93.508421 52.616785 
L 104.955526 61.437684 
L 116.402632 69.871672 
L 127.849737 79.419866 
L 139.296842 88.848387 
L 150.743947 97.121678 
L 162.191053 105.315741 
L 173.638158 112.878765 
L 185.085263 119.377307 
L 196.532368 125.468966 
L 207.979474 131.468905 
L 219.426579 135.633679 
L 230.873684 141.177132 
L 242.320789 144.339403 
L 253.767895 148.350492 
L 265.215 151.572775 
L 265.215 139.341487 
L 265.215 139.341487 
L 253.767895 135.900393 
L 242.320789 132.987352 
L 230.873684 128.53104 
L 219.426579 123.971372 
L 207.979474 119.265208 
L 196.532368 112.963732 
L 185.085263 106.516832 
L 173.638158 99.258249 
L 162.191053 91.968386 
L 150.743947 85.011549 
L 139.296842 76.580314 
L 127.849737 69.496069 
L 116.402632 61.695666 
L 104.955526 54.424158 
L 93.508421 47.820522 
L 82.061316 42.12976 
L 70.614211 37.92585 
L 59.167105 34.965261 
L 47.72 33.571493 
z
" clip-path="url(#p27f1a49a32)" style="fill: #ff7f0e; fill-opacity: 0.4"/>
   </g>
   <g id="PolyCollection_3">
    <path d="M 47.72 33.581937 
L 47.72 34.710469 
L 59.167105 36.174018 
L 70.614211 38.971859 
L 82.061316 42.530295 
L 93.508421 47.620954 
L 104.955526 52.85377 
L 116.402632 58.004654 
L 127.849737 63.915286 
L 139.296842 70.517119 
L 150.743947 76.107224 
L 162.191053 81.152772 
L 173.638158 86.456832 
L 185.085263 92.205043 
L 196.532368 96.835419 
L 207.979474 101.528746 
L 219.426579 105.709892 
L 230.873684 109.89213 
L 242.320789 112.925946 
L 253.767895 116.536805 
L 265.215 119.978056 
L 265.215 106.51993 
L 265.215 106.51993 
L 253.767895 102.630243 
L 242.320789 99.03747 
L 230.873684 94.522026 
L 219.426579 90.119855 
L 207.979474 86.503186 
L 196.532368 82.070385 
L 185.085263 78.010386 
L 173.638158 72.96151 
L 162.191053 68.837932 
L 150.743947 64.654962 
L 139.296842 60.33346 
L 127.849737 56.549509 
L 116.402632 52.051361 
L 104.955526 48.035765 
L 93.508421 44.400053 
L 82.061316 40.969944 
L 70.614211 37.903404 
L 59.167105 35.153406 
L 47.72 33.581937 
z
" clip-path="url(#p27f1a49a32)" style="fill: #2ca02c; fill-opacity: 0.4"/>
   </g>
   <g id="PolyCollection_4">
    <path d="M 47.72 33.581901 
L 47.72 34.720284 
L 59.167105 35.900641 
L 70.614211 38.087318 
L 82.061316 41.098103 
L 93.508421 45.68783 
L 104.955526 50.848395 
L 116.402632 55.960922 
L 127.849737 61.918646 
L 139.296842 68.693823 
L 150.743947 74.485935 
L 162.191053 79.702654 
L 173.638158 85.106585 
L 185.085263 90.987953 
L 196.532368 95.511254 
L 207.979474 100.206421 
L 219.426579 104.321898 
L 230.873684 108.241329 
L 242.320789 111.116148 
L 253.767895 114.451723 
L 265.215 117.786106 
L 265.215 105.071159 
L 265.215 105.071159 
L 253.767895 101.170209 
L 242.320789 97.785844 
L 230.873684 93.284416 
L 219.426579 89.016912 
L 207.979474 85.388613 
L 196.532368 81.058149 
L 185.085263 76.971041 
L 173.638158 71.780989 
L 162.191053 67.617234 
L 150.743947 63.299169 
L 139.296842 58.724527 
L 127.849737 54.823294 
L 116.402632 50.175307 
L 104.955526 46.18286 
L 93.508421 42.684505 
L 82.061316 39.419217 
L 70.614211 36.944121 
L 59.167105 34.878989 
L 47.72 33.581901 
z
" clip-path="url(#p27f1a49a32)" style="fill: #d62728; fill-opacity: 0.4"/>
   </g>
   <g id="PolyCollection_5">
    <path d="M 47.72 33.588948 
L 47.72 34.699634 
L 59.167105 36.725738 
L 70.614211 42.78559 
L 82.061316 51.409741 
L 93.508421 62.622779 
L 104.955526 74.23862 
L 116.402632 85.02724 
L 127.849737 96.653903 
L 139.296842 106.512318 
L 150.743947 115.552071 
L 162.191053 122.575326 
L 173.638158 128.778939 
L 185.085263 133.468561 
L 196.532368 138.399362 
L 207.979474 142.367707 
L 219.426579 145.045761 
L 230.873684 149.514272 
L 242.320789 152.470354 
L 253.767895 155.158723 
L 265.215 157.388608 
L 265.215 150.425178 
L 265.215 150.425178 
L 253.767895 146.188509 
L 242.320789 144.627843 
L 230.873684 140.51666 
L 219.426579 136.370883 
L 207.979474 130.908407 
L 196.532368 124.83342 
L 185.085263 118.27386 
L 173.638158 111.682855 
L 162.191053 105.352117 
L 150.743947 98.467924 
L 139.296842 88.556264 
L 127.849737 80.574223 
L 116.402632 71.761313 
L 104.955526 63.141993 
L 93.508421 55.02904 
L 82.061316 47.648566 
L 70.614211 40.953139 
L 59.167105 35.643844 
L 47.72 33.588948 
z
" clip-path="url(#p27f1a49a32)" style="fill: #9467bd; fill-opacity: 0.4"/>
   </g>
   <g id="PolyCollection_6">
    <path d="M 47.72 33.592139 
L 47.72 34.719722 
L 59.167105 36.031508 
L 70.614211 39.587698 
L 82.061316 44.893283 
L 93.508421 52.721504 
L 104.955526 61.60003 
L 116.402632 69.946332 
L 127.849737 79.626525 
L 139.296842 88.904112 
L 150.743947 97.325485 
L 162.191053 105.314879 
L 173.638158 112.743687 
L 185.085263 119.273598 
L 196.532368 125.812549 
L 207.979474 131.776834 
L 219.426579 135.792488 
L 230.873684 142.136369 
L 242.320789 145.407672 
L 253.767895 148.935146 
L 265.215 151.283083 
L 265.215 141.376437 
L 265.215 141.376437 
L 253.767895 136.578532 
L 242.320789 133.92153 
L 230.873684 129.135243 
L 219.426579 124.652139 
L 207.979474 119.3437 
L 196.532368 112.971014 
L 185.085263 106.06903 
L 173.638158 99.305111 
L 162.191053 92.332688 
L 150.743947 85.666535 
L 139.296842 76.823932 
L 127.849737 69.594889 
L 116.402632 61.710076 
L 104.955526 54.498125 
L 93.508421 47.886275 
L 82.061316 42.178457 
L 70.614211 37.945357 
L 59.167105 34.98967 
L 47.72 33.592139 
z
" clip-path="url(#p27f1a49a32)" style="fill: #8c564b; fill-opacity: 0.4"/>
   </g>
   <g id="PolyCollection_7">
    <path d="M 47.72 45.243525 
L 47.72 47.495563 
L 59.167105 50.354214 
L 70.614211 57.628998 
L 82.061316 67.606185 
L 93.508421 79.730033 
L 104.955526 91.757465 
L 116.402632 103.547702 
L 127.849737 115.04623 
L 139.296842 125.551968 
L 150.743947 134.869936 
L 162.191053 141.920308 
L 173.638158 148.264102 
L 185.085263 153.3259 
L 196.532368 156.510841 
L 207.979474 159.229702 
L 219.426579 161.550582 
L 230.873684 162.856008 
L 242.320789 164.304716 
L 253.767895 165.59681 
L 265.215 167.350909 
L 265.215 160.358849 
L 265.215 160.358849 
L 253.767895 157.90743 
L 242.320789 156.065733 
L 230.873684 152.075396 
L 219.426579 148.553065 
L 207.979474 144.238328 
L 196.532368 139.149522 
L 185.085263 133.816077 
L 173.638158 127.415473 
L 162.191053 120.98917 
L 150.743947 114.234007 
L 139.296842 105.992442 
L 127.849737 98.153063 
L 116.402632 88.979835 
L 104.955526 80.507451 
L 93.508421 70.64148 
L 82.061316 61.535109 
L 70.614211 53.472804 
L 59.167105 47.616452 
L 47.72 45.243525 
z
" clip-path="url(#p27f1a49a32)" style="fill: #e377c2; fill-opacity: 0.4"/>
   </g>
   <g id="PolyCollection_8">
    <path d="M 47.72 33.593474 
L 47.72 34.721358 
L 59.167105 35.246713 
L 70.614211 35.917341 
L 82.061316 37.70425 
L 93.508421 41.804647 
L 104.955526 47.535263 
L 116.402632 54.905599 
L 127.849737 63.487079 
L 139.296842 71.861947 
L 150.743947 80.854561 
L 162.191053 89.258448 
L 173.638158 98.192605 
L 185.085263 106.434635 
L 196.532368 114.045707 
L 207.979474 121.394482 
L 219.426579 127.091713 
L 230.873684 133.010992 
L 242.320789 136.842064 
L 253.767895 140.982998 
L 265.215 144.670249 
L 265.215 133.011561 
L 265.215 133.011561 
L 253.767895 128.940649 
L 242.320789 124.703741 
L 230.873684 119.182827 
L 219.426579 113.577634 
L 207.979474 107.899768 
L 196.532368 100.612303 
L 185.085263 93.755414 
L 173.638158 85.849583 
L 162.191053 79.352742 
L 150.743947 71.90863 
L 139.296842 64.348253 
L 127.849737 56.845738 
L 116.402632 49.843879 
L 104.955526 44.340836 
L 93.508421 39.538129 
L 82.061316 36.417811 
L 70.614211 34.955855 
L 59.167105 34.251313 
L 47.72 33.593474 
z
" clip-path="url(#p27f1a49a32)" style="fill: #7f7f7f; fill-opacity: 0.4"/>
   </g>
   <g id="matplotlib.axis_1">
    <g id="xtick_1">
     <g id="line2d_1">
      <defs>
       <path id="m09f5b14a5c" d="M 0 0 
L 0 3.5 
" style="stroke: #000000; stroke-width: 0.8"/>
      </defs>
      <g>
       <use xlink:href="#m09f5b14a5c" x="47.72" y="174.04" style="stroke: #000000; stroke-width: 0.8"/>
      </g>
     </g>
     <g id="text_1">
      <!-- 0.0 -->
      <g transform="translate(39.768438 188.638438)scale(0.1 -0.1)">
       <defs>
        <path id="DejaVuSans-30" d="M 2034 4250 
Q 1547 4250 1301 3770 
Q 1056 3291 1056 2328 
Q 1056 1369 1301 889 
Q 1547 409 2034 409 
Q 2525 409 2770 889 
Q 3016 1369 3016 2328 
Q 3016 3291 2770 3770 
Q 2525 4250 2034 4250 
z
M 2034 4750 
Q 2819 4750 3233 4129 
Q 3647 3509 3647 2328 
Q 3647 1150 3233 529 
Q 2819 -91 2034 -91 
Q 1250 -91 836 529 
Q 422 1150 422 2328 
Q 422 3509 836 4129 
Q 1250 4750 2034 4750 
z
" transform="scale(0.015625)"/>
        <path id="DejaVuSans-2e" d="M 684 794 
L 1344 794 
L 1344 0 
L 684 0 
L 684 794 
z
" transform="scale(0.015625)"/>
       </defs>
       <use xlink:href="#DejaVuSans-30"/>
       <use xlink:href="#DejaVuSans-2e" x="63.623047"/>
       <use xlink:href="#DejaVuSans-30" x="95.410156"/>
      </g>
     </g>
    </g>
    <g id="xtick_2">
     <g id="line2d_2">
      <g>
       <use xlink:href="#m09f5b14a5c" x="102.09375" y="174.04" style="stroke: #000000; stroke-width: 0.8"/>
      </g>
     </g>
     <g id="text_2">
      <!-- 0.5 -->
      <g transform="translate(94.142188 188.638438)scale(0.1 -0.1)">
       <defs>
        <path id="DejaVuSans-35" d="M 691 4666 
L 3169 4666 
L 3169 4134 
L 1269 4134 
L 1269 2991 
Q 1406 3038 1543 3061 
Q 1681 3084 1819 3084 
Q 2600 3084 3056 2656 
Q 3513 2228 3513 1497 
Q 3513 744 3044 326 
Q 2575 -91 1722 -91 
Q 1428 -91 1123 -41 
Q 819 9 494 109 
L 494 744 
Q 775 591 1075 516 
Q 1375 441 1709 441 
Q 2250 441 2565 725 
Q 2881 1009 2881 1497 
Q 2881 1984 2565 2268 
Q 2250 2553 1709 2553 
Q 1456 2553 1204 2497 
Q 953 2441 691 2322 
L 691 4666 
z
" transform="scale(0.015625)"/>
       </defs>
       <use xlink:href="#DejaVuSans-30"/>
       <use xlink:href="#DejaVuSans-2e" x="63.623047"/>
       <use xlink:href="#DejaVuSans-35" x="95.410156"/>
      </g>
     </g>
    </g>
    <g id="xtick_3">
     <g id="line2d_3">
      <g>
       <use xlink:href="#m09f5b14a5c" x="156.4675" y="174.04" style="stroke: #000000; stroke-width: 0.8"/>
      </g>
     </g>
     <g id="text_3">
      <!-- 1.0 -->
      <g transform="translate(148.515938 188.638438)scale(0.1 -0.1)">
       <defs>
        <path id="DejaVuSans-31" d="M 794 531 
L 1825 531 
L 1825 4091 
L 703 3866 
L 703 4441 
L 1819 4666 
L 2450 4666 
L 2450 531 
L 3481 531 
L 3481 0 
L 794 0 
L 794 531 
z
" transform="scale(0.015625)"/>
       </defs>
       <use xlink:href="#DejaVuSans-31"/>
       <use xlink:href="#DejaVuSans-2e" x="63.623047"/>
       <use xlink:href="#DejaVuSans-30" x="95.410156"/>
      </g>
     </g>
    </g>
    <g id="xtick_4">
     <g id="line2d_4">
      <g>
       <use xlink:href="#m09f5b14a5c" x="210.84125" y="174.04" style="stroke: #000000; stroke-width: 0.8"/>
      </g>
     </g>
     <g id="text_4">
      <!-- 1.5 -->
      <g transform="translate(202.889687 188.638438)scale(0.1 -0.1)">
       <use xlink:href="#DejaVuSans-31"/>
       <use xlink:href="#DejaVuSans-2e" x="63.623047"/>
       <use xlink:href="#DejaVuSans-35" x="95.410156"/>
      </g>
     </g>
    </g>
    <g id="xtick_5">
     <g id="line2d_5">
      <g>
       <use xlink:href="#m09f5b14a5c" x="265.215" y="174.04" style="stroke: #000000; stroke-width: 0.8"/>
      </g>
     </g>
     <g id="text_5">
      <!-- 2.0 -->
      <g transform="translate(257.263437 188.638438)scale(0.1 -0.1)">
       <defs>
        <path id="DejaVuSans-32" d="M 1228 531 
L 3431 531 
L 3431 0 
L 469 0 
L 469 531 
Q 828 903 1448 1529 
Q 2069 2156 2228 2338 
Q 2531 2678 2651 2914 
Q 2772 3150 2772 3378 
Q 2772 3750 2511 3984 
Q 2250 4219 1831 4219 
Q 1534 4219 1204 4116 
Q 875 4013 500 3803 
L 500 4441 
Q 881 4594 1212 4672 
Q 1544 4750 1819 4750 
Q 2544 4750 2975 4387 
Q 3406 4025 3406 3419 
Q 3406 3131 3298 2873 
Q 3191 2616 2906 2266 
Q 2828 2175 2409 1742 
Q 1991 1309 1228 531 
z
" transform="scale(0.015625)"/>
       </defs>
       <use xlink:href="#DejaVuSans-32"/>
       <use xlink:href="#DejaVuSans-2e" x="63.623047"/>
       <use xlink:href="#DejaVuSans-30" x="95.410156"/>
      </g>
     </g>
    </g>
    <g id="text_6">
     <!-- Influence of surprisal (multiplication) -->
     <g transform="translate(64.320625 202.316563)scale(0.1 -0.1)">
      <defs>
       <path id="DejaVuSans-49" d="M 628 4666 
L 1259 4666 
L 1259 0 
L 628 0 
L 628 4666 
z
" transform="scale(0.015625)"/>
       <path id="DejaVuSans-6e" d="M 3513 2113 
L 3513 0 
L 2938 0 
L 2938 2094 
Q 2938 2591 2744 2837 
Q 2550 3084 2163 3084 
Q 1697 3084 1428 2787 
Q 1159 2491 1159 1978 
L 1159 0 
L 581 0 
L 581 3500 
L 1159 3500 
L 1159 2956 
Q 1366 3272 1645 3428 
Q 1925 3584 2291 3584 
Q 2894 3584 3203 3211 
Q 3513 2838 3513 2113 
z
" transform="scale(0.015625)"/>
       <path id="DejaVuSans-66" d="M 2375 4863 
L 2375 4384 
L 1825 4384 
Q 1516 4384 1395 4259 
Q 1275 4134 1275 3809 
L 1275 3500 
L 2222 3500 
L 2222 3053 
L 1275 3053 
L 1275 0 
L 697 0 
L 697 3053 
L 147 3053 
L 147 3500 
L 697 3500 
L 697 3744 
Q 697 4328 969 4595 
Q 1241 4863 1831 4863 
L 2375 4863 
z
" transform="scale(0.015625)"/>
       <path id="DejaVuSans-6c" d="M 603 4863 
L 1178 4863 
L 1178 0 
L 603 0 
L 603 4863 
z
" transform="scale(0.015625)"/>
       <path id="DejaVuSans-75" d="M 544 1381 
L 544 3500 
L 1119 3500 
L 1119 1403 
Q 1119 906 1312 657 
Q 1506 409 1894 409 
Q 2359 409 2629 706 
Q 2900 1003 2900 1516 
L 2900 3500 
L 3475 3500 
L 3475 0 
L 2900 0 
L 2900 538 
Q 2691 219 2414 64 
Q 2138 -91 1772 -91 
Q 1169 -91 856 284 
Q 544 659 544 1381 
z
M 1991 3584 
L 1991 3584 
z
" transform="scale(0.015625)"/>
       <path id="DejaVuSans-65" d="M 3597 1894 
L 3597 1613 
L 953 1613 
Q 991 1019 1311 708 
Q 1631 397 2203 397 
Q 2534 397 2845 478 
Q 3156 559 3463 722 
L 3463 178 
Q 3153 47 2828 -22 
Q 2503 -91 2169 -91 
Q 1331 -91 842 396 
Q 353 884 353 1716 
Q 353 2575 817 3079 
Q 1281 3584 2069 3584 
Q 2775 3584 3186 3129 
Q 3597 2675 3597 1894 
z
M 3022 2063 
Q 3016 2534 2758 2815 
Q 2500 3097 2075 3097 
Q 1594 3097 1305 2825 
Q 1016 2553 972 2059 
L 3022 2063 
z
" transform="scale(0.015625)"/>
       <path id="DejaVuSans-63" d="M 3122 3366 
L 3122 2828 
Q 2878 2963 2633 3030 
Q 2388 3097 2138 3097 
Q 1578 3097 1268 2742 
Q 959 2388 959 1747 
Q 959 1106 1268 751 
Q 1578 397 2138 397 
Q 2388 397 2633 464 
Q 2878 531 3122 666 
L 3122 134 
Q 2881 22 2623 -34 
Q 2366 -91 2075 -91 
Q 1284 -91 818 406 
Q 353 903 353 1747 
Q 353 2603 823 3093 
Q 1294 3584 2113 3584 
Q 2378 3584 2631 3529 
Q 2884 3475 3122 3366 
z
" transform="scale(0.015625)"/>
       <path id="DejaVuSans-20" transform="scale(0.015625)"/>
       <path id="DejaVuSans-6f" d="M 1959 3097 
Q 1497 3097 1228 2736 
Q 959 2375 959 1747 
Q 959 1119 1226 758 
Q 1494 397 1959 397 
Q 2419 397 2687 759 
Q 2956 1122 2956 1747 
Q 2956 2369 2687 2733 
Q 2419 3097 1959 3097 
z
M 1959 3584 
Q 2709 3584 3137 3096 
Q 3566 2609 3566 1747 
Q 3566 888 3137 398 
Q 2709 -91 1959 -91 
Q 1206 -91 779 398 
Q 353 888 353 1747 
Q 353 2609 779 3096 
Q 1206 3584 1959 3584 
z
" transform="scale(0.015625)"/>
       <path id="DejaVuSans-73" d="M 2834 3397 
L 2834 2853 
Q 2591 2978 2328 3040 
Q 2066 3103 1784 3103 
Q 1356 3103 1142 2972 
Q 928 2841 928 2578 
Q 928 2378 1081 2264 
Q 1234 2150 1697 2047 
L 1894 2003 
Q 2506 1872 2764 1633 
Q 3022 1394 3022 966 
Q 3022 478 2636 193 
Q 2250 -91 1575 -91 
Q 1294 -91 989 -36 
Q 684 19 347 128 
L 347 722 
Q 666 556 975 473 
Q 1284 391 1588 391 
Q 1994 391 2212 530 
Q 2431 669 2431 922 
Q 2431 1156 2273 1281 
Q 2116 1406 1581 1522 
L 1381 1569 
Q 847 1681 609 1914 
Q 372 2147 372 2553 
Q 372 3047 722 3315 
Q 1072 3584 1716 3584 
Q 2034 3584 2315 3537 
Q 2597 3491 2834 3397 
z
" transform="scale(0.015625)"/>
       <path id="DejaVuSans-72" d="M 2631 2963 
Q 2534 3019 2420 3045 
Q 2306 3072 2169 3072 
Q 1681 3072 1420 2755 
Q 1159 2438 1159 1844 
L 1159 0 
L 581 0 
L 581 3500 
L 1159 3500 
L 1159 2956 
Q 1341 3275 1631 3429 
Q 1922 3584 2338 3584 
Q 2397 3584 2469 3576 
Q 2541 3569 2628 3553 
L 2631 2963 
z
" transform="scale(0.015625)"/>
       <path id="DejaVuSans-70" d="M 1159 525 
L 1159 -1331 
L 581 -1331 
L 581 3500 
L 1159 3500 
L 1159 2969 
Q 1341 3281 1617 3432 
Q 1894 3584 2278 3584 
Q 2916 3584 3314 3078 
Q 3713 2572 3713 1747 
Q 3713 922 3314 415 
Q 2916 -91 2278 -91 
Q 1894 -91 1617 61 
Q 1341 213 1159 525 
z
M 3116 1747 
Q 3116 2381 2855 2742 
Q 2594 3103 2138 3103 
Q 1681 3103 1420 2742 
Q 1159 2381 1159 1747 
Q 1159 1113 1420 752 
Q 1681 391 2138 391 
Q 2594 391 2855 752 
Q 3116 1113 3116 1747 
z
" transform="scale(0.015625)"/>
       <path id="DejaVuSans-69" d="M 603 3500 
L 1178 3500 
L 1178 0 
L 603 0 
L 603 3500 
z
M 603 4863 
L 1178 4863 
L 1178 4134 
L 603 4134 
L 603 4863 
z
" transform="scale(0.015625)"/>
       <path id="DejaVuSans-61" d="M 2194 1759 
Q 1497 1759 1228 1600 
Q 959 1441 959 1056 
Q 959 750 1161 570 
Q 1363 391 1709 391 
Q 2188 391 2477 730 
Q 2766 1069 2766 1631 
L 2766 1759 
L 2194 1759 
z
M 3341 1997 
L 3341 0 
L 2766 0 
L 2766 531 
Q 2569 213 2275 61 
Q 1981 -91 1556 -91 
Q 1019 -91 701 211 
Q 384 513 384 1019 
Q 384 1609 779 1909 
Q 1175 2209 1959 2209 
L 2766 2209 
L 2766 2266 
Q 2766 2663 2505 2880 
Q 2244 3097 1772 3097 
Q 1472 3097 1187 3025 
Q 903 2953 641 2809 
L 641 3341 
Q 956 3463 1253 3523 
Q 1550 3584 1831 3584 
Q 2591 3584 2966 3190 
Q 3341 2797 3341 1997 
z
" transform="scale(0.015625)"/>
       <path id="DejaVuSans-28" d="M 1984 4856 
Q 1566 4138 1362 3434 
Q 1159 2731 1159 2009 
Q 1159 1288 1364 580 
Q 1569 -128 1984 -844 
L 1484 -844 
Q 1016 -109 783 600 
Q 550 1309 550 2009 
Q 550 2706 781 3412 
Q 1013 4119 1484 4856 
L 1984 4856 
z
" transform="scale(0.015625)"/>
       <path id="DejaVuSans-6d" d="M 3328 2828 
Q 3544 3216 3844 3400 
Q 4144 3584 4550 3584 
Q 5097 3584 5394 3201 
Q 5691 2819 5691 2113 
L 5691 0 
L 5113 0 
L 5113 2094 
Q 5113 2597 4934 2840 
Q 4756 3084 4391 3084 
Q 3944 3084 3684 2787 
Q 3425 2491 3425 1978 
L 3425 0 
L 2847 0 
L 2847 2094 
Q 2847 2600 2669 2842 
Q 2491 3084 2119 3084 
Q 1678 3084 1418 2786 
Q 1159 2488 1159 1978 
L 1159 0 
L 581 0 
L 581 3500 
L 1159 3500 
L 1159 2956 
Q 1356 3278 1631 3431 
Q 1906 3584 2284 3584 
Q 2666 3584 2933 3390 
Q 3200 3197 3328 2828 
z
" transform="scale(0.015625)"/>
       <path id="DejaVuSans-74" d="M 1172 4494 
L 1172 3500 
L 2356 3500 
L 2356 3053 
L 1172 3053 
L 1172 1153 
Q 1172 725 1289 603 
Q 1406 481 1766 481 
L 2356 481 
L 2356 0 
L 1766 0 
Q 1100 0 847 248 
Q 594 497 594 1153 
L 594 3053 
L 172 3053 
L 172 3500 
L 594 3500 
L 594 4494 
L 1172 4494 
z
" transform="scale(0.015625)"/>
       <path id="DejaVuSans-29" d="M 513 4856 
L 1013 4856 
Q 1481 4119 1714 3412 
Q 1947 2706 1947 2009 
Q 1947 1309 1714 600 
Q 1481 -109 1013 -844 
L 513 -844 
Q 928 -128 1133 580 
Q 1338 1288 1338 2009 
Q 1338 2731 1133 3434 
Q 928 4138 513 4856 
z
" transform="scale(0.015625)"/>
      </defs>
      <use xlink:href="#DejaVuSans-49"/>
      <use xlink:href="#DejaVuSans-6e" x="29.492188"/>
      <use xlink:href="#DejaVuSans-66" x="92.871094"/>
      <use xlink:href="#DejaVuSans-6c" x="128.076172"/>
      <use xlink:href="#DejaVuSans-75" x="155.859375"/>
      <use xlink:href="#DejaVuSans-65" x="219.238281"/>
      <use xlink:href="#DejaVuSans-6e" x="280.761719"/>
      <use xlink:href="#DejaVuSans-63" x="344.140625"/>
      <use xlink:href="#DejaVuSans-65" x="399.121094"/>
      <use xlink:href="#DejaVuSans-20" x="460.644531"/>
      <use xlink:href="#DejaVuSans-6f" x="492.431641"/>
      <use xlink:href="#DejaVuSans-66" x="553.613281"/>
      <use xlink:href="#DejaVuSans-20" x="588.818359"/>
      <use xlink:href="#DejaVuSans-73" x="620.605469"/>
      <use xlink:href="#DejaVuSans-75" x="672.705078"/>
      <use xlink:href="#DejaVuSans-72" x="736.083984"/>
      <use xlink:href="#DejaVuSans-70" x="777.197266"/>
      <use xlink:href="#DejaVuSans-72" x="840.673828"/>
      <use xlink:href="#DejaVuSans-69" x="881.787109"/>
      <use xlink:href="#DejaVuSans-73" x="909.570312"/>
      <use xlink:href="#DejaVuSans-61" x="961.669922"/>
      <use xlink:href="#DejaVuSans-6c" x="1022.949219"/>
      <use xlink:href="#DejaVuSans-20" x="1050.732422"/>
      <use xlink:href="#DejaVuSans-28" x="1082.519531"/>
      <use xlink:href="#DejaVuSans-6d" x="1121.533203"/>
      <use xlink:href="#DejaVuSans-75" x="1218.945312"/>
      <use xlink:href="#DejaVuSans-6c" x="1282.324219"/>
      <use xlink:href="#DejaVuSans-74" x="1310.107422"/>
      <use xlink:href="#DejaVuSans-69" x="1349.316406"/>
      <use xlink:href="#DejaVuSans-70" x="1377.099609"/>
      <use xlink:href="#DejaVuSans-6c" x="1440.576172"/>
      <use xlink:href="#DejaVuSans-69" x="1468.359375"/>
      <use xlink:href="#DejaVuSans-63" x="1496.142578"/>
      <use xlink:href="#DejaVuSans-61" x="1551.123047"/>
      <use xlink:href="#DejaVuSans-74" x="1612.402344"/>
      <use xlink:href="#DejaVuSans-69" x="1651.611328"/>
      <use xlink:href="#DejaVuSans-6f" x="1679.394531"/>
      <use xlink:href="#DejaVuSans-6e" x="1740.576172"/>
      <use xlink:href="#DejaVuSans-29" x="1803.955078"/>
     </g>
    </g>
   </g>
   <g id="matplotlib.axis_2">
    <g id="ytick_1">
     <g id="line2d_6">
      <defs>
       <path id="m7eac471dd9" d="M 0 0 
L -3.5 0 
" style="stroke: #000000; stroke-width: 0.8"/>
      </defs>
      <g>
       <use xlink:href="#m7eac471dd9" x="47.72" y="153.934328" style="stroke: #000000; stroke-width: 0.8"/>
      </g>
     </g>
     <g id="text_7">
      <!-- 0.2 -->
      <g transform="translate(24.816875 157.733547)scale(0.1 -0.1)">
       <use xlink:href="#DejaVuSans-30"/>
       <use xlink:href="#DejaVuSans-2e" x="63.623047"/>
       <use xlink:href="#DejaVuSans-32" x="95.410156"/>
      </g>
     </g>
    </g>
    <g id="ytick_2">
     <g id="line2d_7">
      <g>
       <use xlink:href="#m7eac471dd9" x="47.72" y="121.775923" style="stroke: #000000; stroke-width: 0.8"/>
      </g>
     </g>
     <g id="text_8">
      <!-- 0.4 -->
      <g transform="translate(24.816875 125.575141)scale(0.1 -0.1)">
       <defs>
        <path id="DejaVuSans-34" d="M 2419 4116 
L 825 1625 
L 2419 1625 
L 2419 4116 
z
M 2253 4666 
L 3047 4666 
L 3047 1625 
L 3713 1625 
L 3713 1100 
L 3047 1100 
L 3047 0 
L 2419 0 
L 2419 1100 
L 313 1100 
L 313 1709 
L 2253 4666 
z
" transform="scale(0.015625)"/>
       </defs>
       <use xlink:href="#DejaVuSans-30"/>
       <use xlink:href="#DejaVuSans-2e" x="63.623047"/>
       <use xlink:href="#DejaVuSans-34" x="95.410156"/>
      </g>
     </g>
    </g>
    <g id="ytick_3">
     <g id="line2d_8">
      <g>
       <use xlink:href="#m7eac471dd9" x="47.72" y="89.617517" style="stroke: #000000; stroke-width: 0.8"/>
      </g>
     </g>
     <g id="text_9">
      <!-- 0.6 -->
      <g transform="translate(24.816875 93.416736)scale(0.1 -0.1)">
       <defs>
        <path id="DejaVuSans-36" d="M 2113 2584 
Q 1688 2584 1439 2293 
Q 1191 2003 1191 1497 
Q 1191 994 1439 701 
Q 1688 409 2113 409 
Q 2538 409 2786 701 
Q 3034 994 3034 1497 
Q 3034 2003 2786 2293 
Q 2538 2584 2113 2584 
z
M 3366 4563 
L 3366 3988 
Q 3128 4100 2886 4159 
Q 2644 4219 2406 4219 
Q 1781 4219 1451 3797 
Q 1122 3375 1075 2522 
Q 1259 2794 1537 2939 
Q 1816 3084 2150 3084 
Q 2853 3084 3261 2657 
Q 3669 2231 3669 1497 
Q 3669 778 3244 343 
Q 2819 -91 2113 -91 
Q 1303 -91 875 529 
Q 447 1150 447 2328 
Q 447 3434 972 4092 
Q 1497 4750 2381 4750 
Q 2619 4750 2861 4703 
Q 3103 4656 3366 4563 
z
" transform="scale(0.015625)"/>
       </defs>
       <use xlink:href="#DejaVuSans-30"/>
       <use xlink:href="#DejaVuSans-2e" x="63.623047"/>
       <use xlink:href="#DejaVuSans-36" x="95.410156"/>
      </g>
     </g>
    </g>
    <g id="ytick_4">
     <g id="line2d_9">
      <g>
       <use xlink:href="#m7eac471dd9" x="47.72" y="57.459112" style="stroke: #000000; stroke-width: 0.8"/>
      </g>
     </g>
     <g id="text_10">
      <!-- 0.8 -->
      <g transform="translate(24.816875 61.25833)scale(0.1 -0.1)">
       <defs>
        <path id="DejaVuSans-38" d="M 2034 2216 
Q 1584 2216 1326 1975 
Q 1069 1734 1069 1313 
Q 1069 891 1326 650 
Q 1584 409 2034 409 
Q 2484 409 2743 651 
Q 3003 894 3003 1313 
Q 3003 1734 2745 1975 
Q 2488 2216 2034 2216 
z
M 1403 2484 
Q 997 2584 770 2862 
Q 544 3141 544 3541 
Q 544 4100 942 4425 
Q 1341 4750 2034 4750 
Q 2731 4750 3128 4425 
Q 3525 4100 3525 3541 
Q 3525 3141 3298 2862 
Q 3072 2584 2669 2484 
Q 3125 2378 3379 2068 
Q 3634 1759 3634 1313 
Q 3634 634 3220 271 
Q 2806 -91 2034 -91 
Q 1263 -91 848 271 
Q 434 634 434 1313 
Q 434 1759 690 2068 
Q 947 2378 1403 2484 
z
M 1172 3481 
Q 1172 3119 1398 2916 
Q 1625 2713 2034 2713 
Q 2441 2713 2670 2916 
Q 2900 3119 2900 3481 
Q 2900 3844 2670 4047 
Q 2441 4250 2034 4250 
Q 1625 4250 1398 4047 
Q 1172 3844 1172 3481 
z
" transform="scale(0.015625)"/>
       </defs>
       <use xlink:href="#DejaVuSans-30"/>
       <use xlink:href="#DejaVuSans-2e" x="63.623047"/>
       <use xlink:href="#DejaVuSans-38" x="95.410156"/>
      </g>
     </g>
    </g>
    <g id="text_11">
     <!-- R-value -->
     <g transform="translate(18.737188 119.064687)rotate(-90)scale(0.1 -0.1)">
      <defs>
       <path id="DejaVuSans-52" d="M 2841 2188 
Q 3044 2119 3236 1894 
Q 3428 1669 3622 1275 
L 4263 0 
L 3584 0 
L 2988 1197 
Q 2756 1666 2539 1819 
Q 2322 1972 1947 1972 
L 1259 1972 
L 1259 0 
L 628 0 
L 628 4666 
L 2053 4666 
Q 2853 4666 3247 4331 
Q 3641 3997 3641 3322 
Q 3641 2881 3436 2590 
Q 3231 2300 2841 2188 
z
M 1259 4147 
L 1259 2491 
L 2053 2491 
Q 2509 2491 2742 2702 
Q 2975 2913 2975 3322 
Q 2975 3731 2742 3939 
Q 2509 4147 2053 4147 
L 1259 4147 
z
" transform="scale(0.015625)"/>
       <path id="DejaVuSans-2d" d="M 313 2009 
L 1997 2009 
L 1997 1497 
L 313 1497 
L 313 2009 
z
" transform="scale(0.015625)"/>
       <path id="DejaVuSans-76" d="M 191 3500 
L 800 3500 
L 1894 563 
L 2988 3500 
L 3597 3500 
L 2284 0 
L 1503 0 
L 191 3500 
z
" transform="scale(0.015625)"/>
      </defs>
      <use xlink:href="#DejaVuSans-52"/>
      <use xlink:href="#DejaVuSans-2d" x="65.482422"/>
      <use xlink:href="#DejaVuSans-76" x="98.941406"/>
      <use xlink:href="#DejaVuSans-61" x="158.121094"/>
      <use xlink:href="#DejaVuSans-6c" x="219.400391"/>
      <use xlink:href="#DejaVuSans-75" x="247.183594"/>
      <use xlink:href="#DejaVuSans-65" x="310.5625"/>
     </g>
    </g>
   </g>
   <g id="line2d_10">
    <path d="M 47.72 34.129927 
L 59.167105 36.154964 
L 70.614211 41.855132 
L 82.061316 49.473161 
L 93.508421 58.751959 
L 104.955526 68.573051 
L 116.402632 78.341853 
L 127.849737 88.340821 
L 139.296842 97.452205 
L 150.743947 106.383855 
L 162.191053 113.721849 
L 173.638158 120.267102 
L 185.085263 126.251832 
L 196.532368 131.353536 
L 207.979474 136.3102 
L 219.426579 140.110034 
L 230.873684 143.86352 
L 242.320789 147.308931 
L 253.767895 149.92292 
L 265.215 152.700759 
" clip-path="url(#p27f1a49a32)" style="fill: none; stroke: #1f77b4; stroke-width: 1.5; stroke-linecap: square"/>
   </g>
   <g id="line2d_11">
    <path d="M 47.72 34.14097 
L 59.167105 35.489141 
L 70.614211 38.755312 
L 82.061316 43.49858 
L 93.508421 50.218653 
L 104.955526 57.930921 
L 116.402632 65.783669 
L 127.849737 74.457968 
L 139.296842 82.71435 
L 150.743947 91.066613 
L 162.191053 98.642063 
L 173.638158 106.068507 
L 185.085263 112.947069 
L 196.532368 119.216349 
L 207.979474 125.367057 
L 219.426579 129.802525 
L 230.873684 134.854086 
L 242.320789 138.663378 
L 253.767895 142.125443 
L 265.215 145.457131 
" clip-path="url(#p27f1a49a32)" style="fill: none; stroke: #ff7f0e; stroke-width: 1.5; stroke-linecap: square"/>
   </g>
   <g id="line2d_12">
    <path d="M 47.72 34.146203 
L 59.167105 35.663712 
L 70.614211 38.437631 
L 82.061316 41.750119 
L 93.508421 46.010503 
L 104.955526 50.444767 
L 116.402632 55.028007 
L 127.849737 60.232398 
L 139.296842 65.425289 
L 150.743947 70.381093 
L 162.191053 74.995352 
L 173.638158 79.709171 
L 185.085263 85.107715 
L 196.532368 89.452902 
L 207.979474 94.015966 
L 219.426579 97.914874 
L 230.873684 102.207078 
L 242.320789 105.981708 
L 253.767895 109.583524 
L 265.215 113.248993 
" clip-path="url(#p27f1a49a32)" style="fill: none; stroke: #2ca02c; stroke-width: 1.5; stroke-linecap: square"/>
   </g>
   <g id="line2d_13">
    <path d="M 47.72 34.151092 
L 59.167105 35.389815 
L 70.614211 37.51572 
L 82.061316 40.25866 
L 93.508421 44.186168 
L 104.955526 48.515627 
L 116.402632 53.068114 
L 127.849737 58.37097 
L 139.296842 63.709175 
L 150.743947 68.892552 
L 162.191053 73.659944 
L 173.638158 78.443787 
L 185.085263 83.979497 
L 196.532368 88.284702 
L 207.979474 92.797517 
L 219.426579 96.669405 
L 230.873684 100.762873 
L 242.320789 104.450996 
L 253.767895 107.810966 
L 265.215 111.428633 
" clip-path="url(#p27f1a49a32)" style="fill: none; stroke: #d62728; stroke-width: 1.5; stroke-linecap: square"/>
   </g>
   <g id="line2d_14">
    <path d="M 47.72 34.144291 
L 59.167105 36.184791 
L 70.614211 41.869365 
L 82.061316 49.529154 
L 93.508421 58.825909 
L 104.955526 68.690306 
L 116.402632 78.394277 
L 127.849737 88.614063 
L 139.296842 97.534291 
L 150.743947 107.009997 
L 162.191053 113.963722 
L 173.638158 120.230897 
L 185.085263 125.87121 
L 196.532368 131.616391 
L 207.979474 136.638057 
L 219.426579 140.708322 
L 230.873684 145.015466 
L 242.320789 148.549098 
L 253.767895 150.673616 
L 265.215 153.906893 
" clip-path="url(#p27f1a49a32)" style="fill: none; stroke: #9467bd; stroke-width: 1.5; stroke-linecap: square"/>
   </g>
   <g id="line2d_15">
    <path d="M 47.72 34.15593 
L 59.167105 35.510589 
L 70.614211 38.766527 
L 82.061316 43.53587 
L 93.508421 50.303889 
L 104.955526 58.049077 
L 116.402632 65.828204 
L 127.849737 74.610707 
L 139.296842 82.864022 
L 150.743947 91.49601 
L 162.191053 98.823784 
L 173.638158 106.024399 
L 185.085263 112.671314 
L 196.532368 119.391782 
L 207.979474 125.560267 
L 219.426579 130.222313 
L 230.873684 135.635806 
L 242.320789 139.664601 
L 253.767895 142.756839 
L 265.215 146.32976 
" clip-path="url(#p27f1a49a32)" style="fill: none; stroke: #8c564b; stroke-width: 1.5; stroke-linecap: square"/>
   </g>
   <g id="line2d_16">
    <path d="M 47.72 46.369544 
L 59.167105 48.985333 
L 70.614211 55.550901 
L 82.061316 64.570647 
L 93.508421 75.185756 
L 104.955526 86.132458 
L 116.402632 96.263768 
L 127.849737 106.599646 
L 139.296842 115.772205 
L 150.743947 124.551971 
L 162.191053 131.454739 
L 173.638158 137.839787 
L 185.085263 143.570989 
L 196.532368 147.830182 
L 207.979474 151.734015 
L 219.426579 155.051823 
L 230.873684 157.465702 
L 242.320789 160.185225 
L 253.767895 161.75212 
L 265.215 163.854879 
" clip-path="url(#p27f1a49a32)" style="fill: none; stroke: #e377c2; stroke-width: 1.5; stroke-linecap: square"/>
   </g>
   <g id="line2d_17">
    <path d="M 47.72 34.157416 
L 59.167105 34.749013 
L 70.614211 35.436598 
L 82.061316 37.06103 
L 93.508421 40.671388 
L 104.955526 45.93805 
L 116.402632 52.374739 
L 127.849737 60.166409 
L 139.296842 68.1051 
L 150.743947 76.381596 
L 162.191053 84.305595 
L 173.638158 92.021094 
L 185.085263 100.095024 
L 196.532368 107.329005 
L 207.979474 114.647125 
L 219.426579 120.334674 
L 230.873684 126.096909 
L 242.320789 130.772902 
L 253.767895 134.961824 
L 265.215 138.840905 
" clip-path="url(#p27f1a49a32)" style="fill: none; stroke: #7f7f7f; stroke-width: 1.5; stroke-linecap: square"/>
   </g>
   <g id="patch_3">
    <path d="M 47.72 174.04 
L 47.72 26.88 
" style="fill: none; stroke: #000000; stroke-width: 0.8; stroke-linejoin: miter; stroke-linecap: square"/>
   </g>
   <g id="patch_4">
    <path d="M 47.72 174.04 
L 265.215 174.04 
" style="fill: none; stroke: #000000; stroke-width: 0.8; stroke-linejoin: miter; stroke-linecap: square"/>
   </g>
   <g id="text_12">
    <!-- Node * surprisal -->
    <g transform="translate(108.18625 20.88)scale(0.12 -0.12)">
     <defs>
      <path id="DejaVuSans-4e" d="M 628 4666 
L 1478 4666 
L 3547 763 
L 3547 4666 
L 4159 4666 
L 4159 0 
L 3309 0 
L 1241 3903 
L 1241 0 
L 628 0 
L 628 4666 
z
" transform="scale(0.015625)"/>
      <path id="DejaVuSans-64" d="M 2906 2969 
L 2906 4863 
L 3481 4863 
L 3481 0 
L 2906 0 
L 2906 525 
Q 2725 213 2448 61 
Q 2172 -91 1784 -91 
Q 1150 -91 751 415 
Q 353 922 353 1747 
Q 353 2572 751 3078 
Q 1150 3584 1784 3584 
Q 2172 3584 2448 3432 
Q 2725 3281 2906 2969 
z
M 947 1747 
Q 947 1113 1208 752 
Q 1469 391 1925 391 
Q 2381 391 2643 752 
Q 2906 1113 2906 1747 
Q 2906 2381 2643 2742 
Q 2381 3103 1925 3103 
Q 1469 3103 1208 2742 
Q 947 2381 947 1747 
z
" transform="scale(0.015625)"/>
      <path id="DejaVuSans-2a" d="M 3009 3897 
L 1888 3291 
L 3009 2681 
L 2828 2375 
L 1778 3009 
L 1778 1831 
L 1422 1831 
L 1422 3009 
L 372 2375 
L 191 2681 
L 1313 3291 
L 191 3897 
L 372 4206 
L 1422 3572 
L 1422 4750 
L 1778 4750 
L 1778 3572 
L 2828 4206 
L 3009 3897 
z
" transform="scale(0.015625)"/>
     </defs>
     <use xlink:href="#DejaVuSans-4e"/>
     <use xlink:href="#DejaVuSans-6f" x="74.804688"/>
     <use xlink:href="#DejaVuSans-64" x="135.986328"/>
     <use xlink:href="#DejaVuSans-65" x="199.462891"/>
     <use xlink:href="#DejaVuSans-20" x="260.986328"/>
     <use xlink:href="#DejaVuSans-2a" x="292.773438"/>
     <use xlink:href="#DejaVuSans-20" x="342.773438"/>
     <use xlink:href="#DejaVuSans-73" x="374.560547"/>
     <use xlink:href="#DejaVuSans-75" x="426.660156"/>
     <use xlink:href="#DejaVuSans-72" x="490.039062"/>
     <use xlink:href="#DejaVuSans-70" x="531.152344"/>
     <use xlink:href="#DejaVuSans-72" x="594.628906"/>
     <use xlink:href="#DejaVuSans-69" x="635.742188"/>
     <use xlink:href="#DejaVuSans-73" x="663.525391"/>
     <use xlink:href="#DejaVuSans-61" x="715.625"/>
     <use xlink:href="#DejaVuSans-6c" x="776.904297"/>
    </g>
   </g>
  </g>
  <g id="axes_2">
   <g id="patch_5">
    <path d="M 298.065 174.04 
L 515.56 174.04 
L 515.56 26.88 
L 298.065 26.88 
z
" style="fill: #ffffff"/>
   </g>
   <g id="PolyCollection_9">
    <path d="M 298.065 33.593445 
L 298.065 34.623508 
L 309.512105 36.565815 
L 320.959211 42.975096 
L 332.406316 50.178951 
L 343.853421 60.30524 
L 355.300526 70.209783 
L 366.747632 81.044745 
L 378.194737 90.53903 
L 389.641842 99.488096 
L 401.088947 108.198887 
L 412.536053 116.467327 
L 423.983158 123.823159 
L 435.430263 131.079994 
L 446.877368 136.975756 
L 458.324474 142.52694 
L 469.771579 146.980015 
L 481.218684 151.727439 
L 492.665789 155.222939 
L 504.112895 158.309201 
L 515.56 160.835682 
L 515.56 149.845701 
L 515.56 149.845701 
L 504.112895 146.908131 
L 492.665789 142.611025 
L 481.218684 139.233205 
L 469.771579 134.794653 
L 458.324474 130.833071 
L 446.877368 126.281564 
L 435.430263 120.128369 
L 423.983158 113.72112 
L 412.536053 107.300666 
L 401.088947 99.257323 
L 389.641842 91.546616 
L 378.194737 81.844443 
L 366.747632 72.941687 
L 355.300526 63.292369 
L 343.853421 54.930244 
L 332.406316 46.832387 
L 320.959211 40.297401 
L 309.512105 35.431333 
L 298.065 33.593445 
z
" clip-path="url(#p00d686e13b)" style="fill: #1f77b4; fill-opacity: 0.4"/>
   </g>
   <g id="PolyCollection_10">
    <path d="M 298.065 33.609232 
L 298.065 34.634265 
L 309.512105 36.576868 
L 320.959211 42.981211 
L 332.406316 50.173622 
L 343.853421 60.313967 
L 355.300526 70.199435 
L 366.747632 81.095318 
L 378.194737 90.619707 
L 389.641842 99.618601 
L 401.088947 108.315051 
L 412.536053 116.67017 
L 423.983158 124.035042 
L 435.430263 131.508673 
L 446.877368 137.296486 
L 458.324474 143.098734 
L 469.771579 147.845047 
L 481.218684 152.652343 
L 492.665789 156.029735 
L 504.112895 159.428224 
L 515.56 162.233557 
L 515.56 149.920572 
L 515.56 149.920572 
L 504.112895 146.936465 
L 492.665789 142.560057 
L 481.218684 139.188212 
L 469.771579 134.676628 
L 458.324474 130.773148 
L 446.877368 126.295172 
L 435.430263 120.16387 
L 423.983158 113.8205 
L 412.536053 107.390014 
L 401.088947 99.359744 
L 389.641842 91.549018 
L 378.194737 81.918857 
L 366.747632 72.97765 
L 355.300526 63.309926 
L 343.853421 54.958079 
L 332.406316 46.857094 
L 320.959211 40.312302 
L 309.512105 35.451774 
L 298.065 33.609232 
z
" clip-path="url(#p00d686e13b)" style="fill: #ff7f0e; fill-opacity: 0.4"/>
   </g>
   <g id="PolyCollection_11">
    <path d="M 298.065 33.602934 
L 298.065 34.639286 
L 309.512105 36.563929 
L 320.959211 42.969199 
L 332.406316 50.175163 
L 343.853421 60.304816 
L 355.300526 70.187371 
L 366.747632 81.050533 
L 378.194737 90.610174 
L 389.641842 99.771992 
L 401.088947 108.612652 
L 412.536053 117.249572 
L 423.983158 124.797453 
L 435.430263 132.540583 
L 446.877368 138.312121 
L 458.324474 144.149616 
L 469.771579 149.158143 
L 481.218684 153.801531 
L 492.665789 157.244101 
L 504.112895 160.482469 
L 515.56 162.956274 
L 515.56 150.133609 
L 515.56 150.133609 
L 504.112895 147.154398 
L 492.665789 142.761632 
L 481.218684 139.220726 
L 469.771579 134.722393 
L 458.324474 130.630799 
L 446.877368 126.180795 
L 435.430263 120.033607 
L 423.983158 113.59786 
L 412.536053 107.269978 
L 401.088947 99.255751 
L 389.641842 91.53075 
L 378.194737 81.786064 
L 366.747632 72.955444 
L 355.300526 63.270163 
L 343.853421 54.972195 
L 332.406316 46.879813 
L 320.959211 40.327807 
L 309.512105 35.454466 
L 298.065 33.602934 
z
" clip-path="url(#p00d686e13b)" style="fill: #2ca02c; fill-opacity: 0.4"/>
   </g>
   <g id="PolyCollection_12">
    <path d="M 298.065 33.616079 
L 298.065 34.651832 
L 309.512105 36.580467 
L 320.959211 42.973026 
L 332.406316 50.181713 
L 343.853421 60.321019 
L 355.300526 70.234556 
L 366.747632 81.101457 
L 378.194737 90.786159 
L 389.641842 99.92427 
L 401.088947 108.78617 
L 412.536053 117.436994 
L 423.983158 125.026351 
L 435.430263 132.887898 
L 446.877368 138.614076 
L 458.324474 144.594881 
L 469.771579 149.552904 
L 481.218684 154.331829 
L 492.665789 157.735635 
L 504.112895 160.937896 
L 515.56 163.558025 
L 515.56 150.028319 
L 515.56 150.028319 
L 504.112895 146.986761 
L 492.665789 142.691222 
L 481.218684 139.185792 
L 469.771579 134.738072 
L 458.324474 130.582722 
L 446.877368 126.307241 
L 435.430263 120.118272 
L 423.983158 113.679916 
L 412.536053 107.413645 
L 401.088947 99.356754 
L 389.641842 91.604122 
L 378.194737 81.870935 
L 366.747632 73.03629 
L 355.300526 63.299637 
L 343.853421 55.032206 
L 332.406316 46.899534 
L 320.959211 40.34656 
L 309.512105 35.470798 
L 298.065 33.616079 
z
" clip-path="url(#p00d686e13b)" style="fill: #d62728; fill-opacity: 0.4"/>
   </g>
   <g id="PolyCollection_13">
    <path d="M 298.065 33.599181 
L 298.065 34.631644 
L 309.512105 36.577069 
L 320.959211 42.997585 
L 332.406316 50.236445 
L 343.853421 60.299319 
L 355.300526 70.258543 
L 366.747632 80.973359 
L 378.194737 90.610722 
L 389.641842 99.627418 
L 401.088947 108.226986 
L 412.536053 116.873267 
L 423.983158 123.938466 
L 435.430263 131.326132 
L 446.877368 137.572101 
L 458.324474 142.502264 
L 469.771579 147.701613 
L 481.218684 151.987425 
L 492.665789 155.699939 
L 504.112895 159.543093 
L 515.56 161.119996 
L 515.56 151.422777 
L 515.56 151.422777 
L 504.112895 147.278148 
L 492.665789 142.486409 
L 481.218684 139.193046 
L 469.771579 136.062208 
L 458.324474 130.752103 
L 446.877368 126.81063 
L 435.430263 120.030558 
L 423.983158 113.694224 
L 412.536053 107.68509 
L 401.088947 99.582459 
L 389.641842 91.938998 
L 378.194737 81.939639 
L 366.747632 73.032594 
L 355.300526 63.350899 
L 343.853421 55.036949 
L 332.406316 46.898661 
L 320.959211 40.306904 
L 309.512105 35.455393 
L 298.065 33.599181 
z
" clip-path="url(#p00d686e13b)" style="fill: #9467bd; fill-opacity: 0.4"/>
   </g>
   <g id="PolyCollection_14">
    <path d="M 298.065 33.614404 
L 298.065 34.642874 
L 309.512105 36.589159 
L 320.959211 43.001973 
L 332.406316 50.228245 
L 343.853421 60.311636 
L 355.300526 70.245298 
L 366.747632 81.018853 
L 378.194737 90.675426 
L 389.641842 99.746515 
L 401.088947 108.347401 
L 412.536053 117.082398 
L 423.983158 124.135338 
L 435.430263 131.760591 
L 446.877368 137.853686 
L 458.324474 143.052148 
L 469.771579 148.576397 
L 481.218684 152.931456 
L 492.665789 156.497373 
L 504.112895 160.694092 
L 515.56 162.573814 
L 515.56 151.418281 
L 515.56 151.418281 
L 504.112895 147.197466 
L 492.665789 142.38937 
L 481.218684 139.127719 
L 469.771579 135.943987 
L 458.324474 130.691331 
L 446.877368 126.859537 
L 435.430263 120.058843 
L 423.983158 113.797625 
L 412.536053 107.750235 
L 401.088947 99.661365 
L 389.641842 91.944645 
L 378.194737 82.023538 
L 366.747632 73.074759 
L 355.300526 63.368221 
L 343.853421 55.065484 
L 332.406316 46.920803 
L 320.959211 40.323073 
L 309.512105 35.475227 
L 298.065 33.614404 
z
" clip-path="url(#p00d686e13b)" style="fill: #8c564b; fill-opacity: 0.4"/>
   </g>
   <g id="PolyCollection_15">
    <path d="M 298.065 45.255917 
L 298.065 47.562425 
L 309.512105 48.966982 
L 320.959211 54.910684 
L 332.406316 61.353536 
L 343.853421 70.519851 
L 355.300526 79.70207 
L 366.747632 89.153609 
L 378.194737 97.396772 
L 389.641842 105.737537 
L 401.088947 113.698957 
L 412.536053 121.016222 
L 423.983158 127.745416 
L 435.430263 134.566929 
L 446.877368 140.326755 
L 458.324474 145.172073 
L 469.771579 149.586482 
L 481.218684 154.034122 
L 492.665789 157.383032 
L 504.112895 160.396303 
L 515.56 162.371886 
L 515.56 153.051493 
L 515.56 153.051493 
L 504.112895 149.928068 
L 492.665789 146.408625 
L 481.218684 143.128667 
L 469.771579 138.803117 
L 458.324474 135.422662 
L 446.877368 131.16331 
L 435.430263 125.646813 
L 423.983158 119.587628 
L 412.536053 113.800018 
L 401.088947 106.144524 
L 389.641842 98.570714 
L 378.194737 89.791333 
L 366.747632 81.468285 
L 355.300526 72.2303 
L 343.853421 64.632593 
L 332.406316 57.373759 
L 320.959211 51.425109 
L 309.512105 46.885671 
L 298.065 45.255917 
z
" clip-path="url(#p00d686e13b)" style="fill: #e377c2; fill-opacity: 0.4"/>
   </g>
   <g id="PolyCollection_16">
    <path d="M 298.065 33.620411 
L 298.065 34.640621 
L 309.512105 36.590168 
L 320.959211 42.99877 
L 332.406316 50.212473 
L 343.853421 60.429504 
L 355.300526 70.379417 
L 366.747632 81.291449 
L 378.194737 90.945414 
L 389.641842 100.014831 
L 401.088947 108.666688 
L 412.536053 117.199895 
L 423.983158 124.855666 
L 435.430263 132.323429 
L 446.877368 137.962115 
L 458.324474 143.99021 
L 469.771579 148.710481 
L 481.218684 153.469424 
L 492.665789 156.910351 
L 504.112895 160.36176 
L 515.56 162.925098 
L 515.56 150.304675 
L 515.56 150.304675 
L 504.112895 147.191854 
L 492.665789 142.924512 
L 481.218684 139.549952 
L 469.771579 134.910975 
L 458.324474 131.022054 
L 446.877368 126.585784 
L 435.430263 120.466434 
L 423.983158 113.950464 
L 412.536053 107.744908 
L 401.088947 99.536648 
L 389.641842 91.771199 
L 378.194737 82.074691 
L 366.747632 73.191849 
L 355.300526 63.50403 
L 343.853421 55.100037 
L 332.406316 46.958897 
L 320.959211 40.353576 
L 309.512105 35.469599 
L 298.065 33.620411 
z
" clip-path="url(#p00d686e13b)" style="fill: #7f7f7f; fill-opacity: 0.4"/>
   </g>
   <g id="matplotlib.axis_3">
    <g id="xtick_6">
     <g id="line2d_18">
      <g>
       <use xlink:href="#m09f5b14a5c" x="298.065" y="174.04" style="stroke: #000000; stroke-width: 0.8"/>
      </g>
     </g>
     <g id="text_13">
      <!-- 0.0 -->
      <g transform="translate(290.113437 188.638438)scale(0.1 -0.1)">
       <use xlink:href="#DejaVuSans-30"/>
       <use xlink:href="#DejaVuSans-2e" x="63.623047"/>
       <use xlink:href="#DejaVuSans-30" x="95.410156"/>
      </g>
     </g>
    </g>
    <g id="xtick_7">
     <g id="line2d_19">
      <g>
       <use xlink:href="#m09f5b14a5c" x="352.43875" y="174.04" style="stroke: #000000; stroke-width: 0.8"/>
      </g>
     </g>
     <g id="text_14">
      <!-- 0.5 -->
      <g transform="translate(344.487187 188.638438)scale(0.1 -0.1)">
       <use xlink:href="#DejaVuSans-30"/>
       <use xlink:href="#DejaVuSans-2e" x="63.623047"/>
       <use xlink:href="#DejaVuSans-35" x="95.410156"/>
      </g>
     </g>
    </g>
    <g id="xtick_8">
     <g id="line2d_20">
      <g>
       <use xlink:href="#m09f5b14a5c" x="406.8125" y="174.04" style="stroke: #000000; stroke-width: 0.8"/>
      </g>
     </g>
     <g id="text_15">
      <!-- 1.0 -->
      <g transform="translate(398.860937 188.638438)scale(0.1 -0.1)">
       <use xlink:href="#DejaVuSans-31"/>
       <use xlink:href="#DejaVuSans-2e" x="63.623047"/>
       <use xlink:href="#DejaVuSans-30" x="95.410156"/>
      </g>
     </g>
    </g>
    <g id="xtick_9">
     <g id="line2d_21">
      <g>
       <use xlink:href="#m09f5b14a5c" x="461.18625" y="174.04" style="stroke: #000000; stroke-width: 0.8"/>
      </g>
     </g>
     <g id="text_16">
      <!-- 1.5 -->
      <g transform="translate(453.234687 188.638438)scale(0.1 -0.1)">
       <use xlink:href="#DejaVuSans-31"/>
       <use xlink:href="#DejaVuSans-2e" x="63.623047"/>
       <use xlink:href="#DejaVuSans-35" x="95.410156"/>
      </g>
     </g>
    </g>
    <g id="xtick_10">
     <g id="line2d_22">
      <g>
       <use xlink:href="#m09f5b14a5c" x="515.56" y="174.04" style="stroke: #000000; stroke-width: 0.8"/>
      </g>
     </g>
     <g id="text_17">
      <!-- 2.0 -->
      <g transform="translate(507.608437 188.638438)scale(0.1 -0.1)">
       <use xlink:href="#DejaVuSans-32"/>
       <use xlink:href="#DejaVuSans-2e" x="63.623047"/>
       <use xlink:href="#DejaVuSans-30" x="95.410156"/>
      </g>
     </g>
    </g>
    <g id="text_18">
     <!-- Influence of surprisal (multiplication) -->
     <g transform="translate(314.665625 202.316563)scale(0.1 -0.1)">
      <use xlink:href="#DejaVuSans-49"/>
      <use xlink:href="#DejaVuSans-6e" x="29.492188"/>
      <use xlink:href="#DejaVuSans-66" x="92.871094"/>
      <use xlink:href="#DejaVuSans-6c" x="128.076172"/>
      <use xlink:href="#DejaVuSans-75" x="155.859375"/>
      <use xlink:href="#DejaVuSans-65" x="219.238281"/>
      <use xlink:href="#DejaVuSans-6e" x="280.761719"/>
      <use xlink:href="#DejaVuSans-63" x="344.140625"/>
      <use xlink:href="#DejaVuSans-65" x="399.121094"/>
      <use xlink:href="#DejaVuSans-20" x="460.644531"/>
      <use xlink:href="#DejaVuSans-6f" x="492.431641"/>
      <use xlink:href="#DejaVuSans-66" x="553.613281"/>
      <use xlink:href="#DejaVuSans-20" x="588.818359"/>
      <use xlink:href="#DejaVuSans-73" x="620.605469"/>
      <use xlink:href="#DejaVuSans-75" x="672.705078"/>
      <use xlink:href="#DejaVuSans-72" x="736.083984"/>
      <use xlink:href="#DejaVuSans-70" x="777.197266"/>
      <use xlink:href="#DejaVuSans-72" x="840.673828"/>
      <use xlink:href="#DejaVuSans-69" x="881.787109"/>
      <use xlink:href="#DejaVuSans-73" x="909.570312"/>
      <use xlink:href="#DejaVuSans-61" x="961.669922"/>
      <use xlink:href="#DejaVuSans-6c" x="1022.949219"/>
      <use xlink:href="#DejaVuSans-20" x="1050.732422"/>
      <use xlink:href="#DejaVuSans-28" x="1082.519531"/>
      <use xlink:href="#DejaVuSans-6d" x="1121.533203"/>
      <use xlink:href="#DejaVuSans-75" x="1218.945312"/>
      <use xlink:href="#DejaVuSans-6c" x="1282.324219"/>
      <use xlink:href="#DejaVuSans-74" x="1310.107422"/>
      <use xlink:href="#DejaVuSans-69" x="1349.316406"/>
      <use xlink:href="#DejaVuSans-70" x="1377.099609"/>
      <use xlink:href="#DejaVuSans-6c" x="1440.576172"/>
      <use xlink:href="#DejaVuSans-69" x="1468.359375"/>
      <use xlink:href="#DejaVuSans-63" x="1496.142578"/>
      <use xlink:href="#DejaVuSans-61" x="1551.123047"/>
      <use xlink:href="#DejaVuSans-74" x="1612.402344"/>
      <use xlink:href="#DejaVuSans-69" x="1651.611328"/>
      <use xlink:href="#DejaVuSans-6f" x="1679.394531"/>
      <use xlink:href="#DejaVuSans-6e" x="1740.576172"/>
      <use xlink:href="#DejaVuSans-29" x="1803.955078"/>
     </g>
    </g>
   </g>
   <g id="line2d_23">
    <path d="M 298.065 34.108477 
L 309.512105 35.998574 
L 320.959211 41.636248 
L 332.406316 48.505669 
L 343.853421 57.617742 
L 355.300526 66.751076 
L 366.747632 76.993216 
L 378.194737 86.191737 
L 389.641842 95.517356 
L 401.088947 103.728105 
L 412.536053 111.883997 
L 423.983158 118.772139 
L 435.430263 125.604181 
L 446.877368 131.62866 
L 458.324474 136.680006 
L 469.771579 140.887334 
L 481.218684 145.480322 
L 492.665789 148.916982 
L 504.112895 152.608666 
L 515.56 155.340691 
" clip-path="url(#p00d686e13b)" style="fill: none; stroke: #1f77b4; stroke-width: 1.5; stroke-linecap: square"/>
   </g>
   <g id="line2d_24">
    <path d="M 298.065 34.121748 
L 309.512105 36.014321 
L 320.959211 41.646757 
L 332.406316 48.515358 
L 343.853421 57.636023 
L 355.300526 66.754681 
L 366.747632 77.036484 
L 378.194737 86.269282 
L 389.641842 95.583809 
L 401.088947 103.837397 
L 412.536053 112.030092 
L 423.983158 118.927771 
L 435.430263 125.836272 
L 446.877368 131.795829 
L 458.324474 136.935941 
L 469.771579 141.260838 
L 481.218684 145.920278 
L 492.665789 149.294896 
L 504.112895 153.182345 
L 515.56 156.077065 
" clip-path="url(#p00d686e13b)" style="fill: none; stroke: #ff7f0e; stroke-width: 1.5; stroke-linecap: square"/>
   </g>
   <g id="line2d_25">
    <path d="M 298.065 34.12111 
L 309.512105 36.009197 
L 320.959211 41.648503 
L 332.406316 48.527488 
L 343.853421 57.638505 
L 355.300526 66.728767 
L 366.747632 77.002988 
L 378.194737 86.198119 
L 389.641842 95.651371 
L 401.088947 103.934201 
L 412.536053 112.259775 
L 423.983158 119.197657 
L 435.430263 126.287095 
L 446.877368 132.246458 
L 458.324474 137.390208 
L 469.771579 141.940268 
L 481.218684 146.511129 
L 492.665789 150.002867 
L 504.112895 153.818434 
L 515.56 156.544942 
" clip-path="url(#p00d686e13b)" style="fill: none; stroke: #2ca02c; stroke-width: 1.5; stroke-linecap: square"/>
   </g>
   <g id="line2d_26">
    <path d="M 298.065 34.133955 
L 309.512105 36.025632 
L 320.959211 41.659793 
L 332.406316 48.540624 
L 343.853421 57.676613 
L 355.300526 66.767097 
L 366.747632 77.068874 
L 378.194737 86.328547 
L 389.641842 95.764196 
L 401.088947 104.071462 
L 412.536053 112.425319 
L 423.983158 119.353133 
L 435.430263 126.503085 
L 446.877368 132.460658 
L 458.324474 137.588802 
L 469.771579 142.145488 
L 481.218684 146.75881 
L 492.665789 150.213428 
L 504.112895 153.962328 
L 515.56 156.793172 
" clip-path="url(#p00d686e13b)" style="fill: none; stroke: #d62728; stroke-width: 1.5; stroke-linecap: square"/>
   </g>
   <g id="line2d_27">
    <path d="M 298.065 34.115413 
L 309.512105 36.016231 
L 320.959211 41.652245 
L 332.406316 48.567553 
L 343.853421 57.668134 
L 355.300526 66.804721 
L 366.747632 77.002977 
L 378.194737 86.27518 
L 389.641842 95.783208 
L 401.088947 103.904722 
L 412.536053 112.279178 
L 423.983158 118.816345 
L 435.430263 125.678345 
L 446.877368 132.191365 
L 458.324474 136.627184 
L 469.771579 141.88191 
L 481.218684 145.590235 
L 492.665789 149.093174 
L 504.112895 153.410621 
L 515.56 156.271386 
" clip-path="url(#p00d686e13b)" style="fill: none; stroke: #9467bd; stroke-width: 1.5; stroke-linecap: square"/>
   </g>
   <g id="line2d_28">
    <path d="M 298.065 34.128639 
L 309.512105 36.032193 
L 320.959211 41.662523 
L 332.406316 48.574524 
L 343.853421 57.68856 
L 355.300526 66.80676 
L 366.747632 77.046806 
L 378.194737 86.349482 
L 389.641842 95.84558 
L 401.088947 104.004383 
L 412.536053 112.416317 
L 423.983158 118.966481 
L 435.430263 125.909717 
L 446.877368 132.356612 
L 458.324474 136.87174 
L 469.771579 142.260192 
L 481.218684 146.029588 
L 492.665789 149.443372 
L 504.112895 153.945779 
L 515.56 156.996048 
" clip-path="url(#p00d686e13b)" style="fill: none; stroke: #8c564b; stroke-width: 1.5; stroke-linecap: square"/>
   </g>
   <g id="line2d_29">
    <path d="M 298.065 46.409171 
L 309.512105 47.926326 
L 320.959211 53.167896 
L 332.406316 59.363647 
L 343.853421 67.576222 
L 355.300526 75.966185 
L 366.747632 85.310947 
L 378.194737 93.594052 
L 389.641842 102.154125 
L 401.088947 109.921741 
L 412.536053 117.40812 
L 423.983158 123.666522 
L 435.430263 130.106871 
L 446.877368 135.745032 
L 458.324474 140.297368 
L 469.771579 144.194799 
L 481.218684 148.581395 
L 492.665789 151.895829 
L 504.112895 155.162186 
L 515.56 157.71169 
" clip-path="url(#p00d686e13b)" style="fill: none; stroke: #e377c2; stroke-width: 1.5; stroke-linecap: square"/>
   </g>
   <g id="line2d_30">
    <path d="M 298.065 34.130516 
L 309.512105 36.029884 
L 320.959211 41.676173 
L 332.406316 48.585685 
L 343.853421 57.764771 
L 355.300526 66.941723 
L 366.747632 77.241649 
L 378.194737 86.510053 
L 389.641842 95.893015 
L 401.088947 104.101668 
L 412.536053 112.472402 
L 423.983158 119.403065 
L 435.430263 126.394931 
L 446.877368 132.27395 
L 458.324474 137.506132 
L 469.771579 141.810728 
L 481.218684 146.509688 
L 492.665789 149.917432 
L 504.112895 153.776807 
L 515.56 156.614886 
" clip-path="url(#p00d686e13b)" style="fill: none; stroke: #7f7f7f; stroke-width: 1.5; stroke-linecap: square"/>
   </g>
   <g id="patch_6">
    <path d="M 298.065 174.04 
L 298.065 26.88 
" style="fill: none; stroke: #000000; stroke-width: 0.8; stroke-linejoin: miter; stroke-linecap: square"/>
   </g>
   <g id="patch_7">
    <path d="M 298.065 174.04 
L 515.56 174.04 
" style="fill: none; stroke: #000000; stroke-width: 0.8; stroke-linejoin: miter; stroke-linecap: square"/>
   </g>
   <g id="text_19">
    <!-- Node * third variable -->
    <g transform="translate(344.2325 20.88)scale(0.12 -0.12)">
     <defs>
      <path id="DejaVuSans-68" d="M 3513 2113 
L 3513 0 
L 2938 0 
L 2938 2094 
Q 2938 2591 2744 2837 
Q 2550 3084 2163 3084 
Q 1697 3084 1428 2787 
Q 1159 2491 1159 1978 
L 1159 0 
L 581 0 
L 581 4863 
L 1159 4863 
L 1159 2956 
Q 1366 3272 1645 3428 
Q 1925 3584 2291 3584 
Q 2894 3584 3203 3211 
Q 3513 2838 3513 2113 
z
" transform="scale(0.015625)"/>
      <path id="DejaVuSans-62" d="M 3116 1747 
Q 3116 2381 2855 2742 
Q 2594 3103 2138 3103 
Q 1681 3103 1420 2742 
Q 1159 2381 1159 1747 
Q 1159 1113 1420 752 
Q 1681 391 2138 391 
Q 2594 391 2855 752 
Q 3116 1113 3116 1747 
z
M 1159 2969 
Q 1341 3281 1617 3432 
Q 1894 3584 2278 3584 
Q 2916 3584 3314 3078 
Q 3713 2572 3713 1747 
Q 3713 922 3314 415 
Q 2916 -91 2278 -91 
Q 1894 -91 1617 61 
Q 1341 213 1159 525 
L 1159 0 
L 581 0 
L 581 4863 
L 1159 4863 
L 1159 2969 
z
" transform="scale(0.015625)"/>
     </defs>
     <use xlink:href="#DejaVuSans-4e"/>
     <use xlink:href="#DejaVuSans-6f" x="74.804688"/>
     <use xlink:href="#DejaVuSans-64" x="135.986328"/>
     <use xlink:href="#DejaVuSans-65" x="199.462891"/>
     <use xlink:href="#DejaVuSans-20" x="260.986328"/>
     <use xlink:href="#DejaVuSans-2a" x="292.773438"/>
     <use xlink:href="#DejaVuSans-20" x="342.773438"/>
     <use xlink:href="#DejaVuSans-74" x="374.560547"/>
     <use xlink:href="#DejaVuSans-68" x="413.769531"/>
     <use xlink:href="#DejaVuSans-69" x="477.148438"/>
     <use xlink:href="#DejaVuSans-72" x="504.931641"/>
     <use xlink:href="#DejaVuSans-64" x="544.294922"/>
     <use xlink:href="#DejaVuSans-20" x="607.771484"/>
     <use xlink:href="#DejaVuSans-76" x="639.558594"/>
     <use xlink:href="#DejaVuSans-61" x="698.738281"/>
     <use xlink:href="#DejaVuSans-72" x="760.017578"/>
     <use xlink:href="#DejaVuSans-69" x="801.130859"/>
     <use xlink:href="#DejaVuSans-61" x="828.914062"/>
     <use xlink:href="#DejaVuSans-62" x="890.193359"/>
     <use xlink:href="#DejaVuSans-6c" x="953.669922"/>
     <use xlink:href="#DejaVuSans-65" x="981.453125"/>
    </g>
   </g>
   <g id="legend_1">
    <g id="line2d_31">
     <path d="M 524.56 39.978437 
L 534.56 39.978437 
L 544.56 39.978437 
" style="fill: none; stroke: #1f77b4; stroke-width: 1.5; stroke-linecap: square"/>
    </g>
    <g id="text_20">
     <!-- Node -->
     <g transform="translate(552.56 43.478437)scale(0.1 -0.1)">
      <use xlink:href="#DejaVuSans-4e"/>
      <use xlink:href="#DejaVuSans-6f" x="74.804688"/>
      <use xlink:href="#DejaVuSans-64" x="135.986328"/>
      <use xlink:href="#DejaVuSans-65" x="199.462891"/>
     </g>
    </g>
    <g id="line2d_32">
     <path d="M 524.56 54.656563 
L 534.56 54.656563 
L 544.56 54.656563 
" style="fill: none; stroke: #ff7f0e; stroke-width: 1.5; stroke-linecap: square"/>
    </g>
    <g id="text_21">
     <!-- Node + surprisal -->
     <g transform="translate(552.56 58.156563)scale(0.1 -0.1)">
      <defs>
       <path id="DejaVuSans-2b" d="M 2944 4013 
L 2944 2272 
L 4684 2272 
L 4684 1741 
L 2944 1741 
L 2944 0 
L 2419 0 
L 2419 1741 
L 678 1741 
L 678 2272 
L 2419 2272 
L 2419 4013 
L 2944 4013 
z
" transform="scale(0.015625)"/>
      </defs>
      <use xlink:href="#DejaVuSans-4e"/>
      <use xlink:href="#DejaVuSans-6f" x="74.804688"/>
      <use xlink:href="#DejaVuSans-64" x="135.986328"/>
      <use xlink:href="#DejaVuSans-65" x="199.462891"/>
      <use xlink:href="#DejaVuSans-20" x="260.986328"/>
      <use xlink:href="#DejaVuSans-2b" x="292.773438"/>
      <use xlink:href="#DejaVuSans-20" x="376.5625"/>
      <use xlink:href="#DejaVuSans-73" x="408.349609"/>
      <use xlink:href="#DejaVuSans-75" x="460.449219"/>
      <use xlink:href="#DejaVuSans-72" x="523.828125"/>
      <use xlink:href="#DejaVuSans-70" x="564.941406"/>
      <use xlink:href="#DejaVuSans-72" x="628.417969"/>
      <use xlink:href="#DejaVuSans-69" x="669.53125"/>
      <use xlink:href="#DejaVuSans-73" x="697.314453"/>
      <use xlink:href="#DejaVuSans-61" x="749.414062"/>
      <use xlink:href="#DejaVuSans-6c" x="810.693359"/>
     </g>
    </g>
    <g id="line2d_33">
     <path d="M 524.56 69.334687 
L 534.56 69.334687 
L 544.56 69.334687 
" style="fill: none; stroke: #2ca02c; stroke-width: 1.5; stroke-linecap: square"/>
    </g>
    <g id="text_22">
     <!-- Node split -->
     <g transform="translate(552.56 72.834687)scale(0.1 -0.1)">
      <use xlink:href="#DejaVuSans-4e"/>
      <use xlink:href="#DejaVuSans-6f" x="74.804688"/>
      <use xlink:href="#DejaVuSans-64" x="135.986328"/>
      <use xlink:href="#DejaVuSans-65" x="199.462891"/>
      <use xlink:href="#DejaVuSans-20" x="260.986328"/>
      <use xlink:href="#DejaVuSans-73" x="292.773438"/>
      <use xlink:href="#DejaVuSans-70" x="344.873047"/>
      <use xlink:href="#DejaVuSans-6c" x="408.349609"/>
      <use xlink:href="#DejaVuSans-69" x="436.132812"/>
      <use xlink:href="#DejaVuSans-74" x="463.916016"/>
     </g>
    </g>
    <g id="line2d_34">
     <path d="M 524.56 84.012812 
L 534.56 84.012812 
L 544.56 84.012812 
" style="fill: none; stroke: #d62728; stroke-width: 1.5; stroke-linecap: square"/>
    </g>
    <g id="text_23">
     <!-- Node split + surprisal -->
     <g transform="translate(552.56 87.512812)scale(0.1 -0.1)">
      <use xlink:href="#DejaVuSans-4e"/>
      <use xlink:href="#DejaVuSans-6f" x="74.804688"/>
      <use xlink:href="#DejaVuSans-64" x="135.986328"/>
      <use xlink:href="#DejaVuSans-65" x="199.462891"/>
      <use xlink:href="#DejaVuSans-20" x="260.986328"/>
      <use xlink:href="#DejaVuSans-73" x="292.773438"/>
      <use xlink:href="#DejaVuSans-70" x="344.873047"/>
      <use xlink:href="#DejaVuSans-6c" x="408.349609"/>
      <use xlink:href="#DejaVuSans-69" x="436.132812"/>
      <use xlink:href="#DejaVuSans-74" x="463.916016"/>
      <use xlink:href="#DejaVuSans-20" x="503.125"/>
      <use xlink:href="#DejaVuSans-2b" x="534.912109"/>
      <use xlink:href="#DejaVuSans-20" x="618.701172"/>
      <use xlink:href="#DejaVuSans-73" x="650.488281"/>
      <use xlink:href="#DejaVuSans-75" x="702.587891"/>
      <use xlink:href="#DejaVuSans-72" x="765.966797"/>
      <use xlink:href="#DejaVuSans-70" x="807.080078"/>
      <use xlink:href="#DejaVuSans-72" x="870.556641"/>
      <use xlink:href="#DejaVuSans-69" x="911.669922"/>
      <use xlink:href="#DejaVuSans-73" x="939.453125"/>
      <use xlink:href="#DejaVuSans-61" x="991.552734"/>
      <use xlink:href="#DejaVuSans-6c" x="1052.832031"/>
     </g>
    </g>
    <g id="line2d_35">
     <path d="M 524.56 98.690937 
L 534.56 98.690937 
L 544.56 98.690937 
" style="fill: none; stroke: #9467bd; stroke-width: 1.5; stroke-linecap: square"/>
    </g>
    <g id="text_24">
     <!-- Node random split -->
     <g transform="translate(552.56 102.190937)scale(0.1 -0.1)">
      <use xlink:href="#DejaVuSans-4e"/>
      <use xlink:href="#DejaVuSans-6f" x="74.804688"/>
      <use xlink:href="#DejaVuSans-64" x="135.986328"/>
      <use xlink:href="#DejaVuSans-65" x="199.462891"/>
      <use xlink:href="#DejaVuSans-20" x="260.986328"/>
      <use xlink:href="#DejaVuSans-72" x="292.773438"/>
      <use xlink:href="#DejaVuSans-61" x="333.886719"/>
      <use xlink:href="#DejaVuSans-6e" x="395.166016"/>
      <use xlink:href="#DejaVuSans-64" x="458.544922"/>
      <use xlink:href="#DejaVuSans-6f" x="522.021484"/>
      <use xlink:href="#DejaVuSans-6d" x="583.203125"/>
      <use xlink:href="#DejaVuSans-20" x="680.615234"/>
      <use xlink:href="#DejaVuSans-73" x="712.402344"/>
      <use xlink:href="#DejaVuSans-70" x="764.501953"/>
      <use xlink:href="#DejaVuSans-6c" x="827.978516"/>
      <use xlink:href="#DejaVuSans-69" x="855.761719"/>
      <use xlink:href="#DejaVuSans-74" x="883.544922"/>
     </g>
    </g>
    <g id="line2d_36">
     <path d="M 524.56 113.369062 
L 534.56 113.369062 
L 544.56 113.369062 
" style="fill: none; stroke: #8c564b; stroke-width: 1.5; stroke-linecap: square"/>
    </g>
    <g id="text_25">
     <!-- Node random split + surprisal -->
     <g transform="translate(552.56 116.869062)scale(0.1 -0.1)">
      <use xlink:href="#DejaVuSans-4e"/>
      <use xlink:href="#DejaVuSans-6f" x="74.804688"/>
      <use xlink:href="#DejaVuSans-64" x="135.986328"/>
      <use xlink:href="#DejaVuSans-65" x="199.462891"/>
      <use xlink:href="#DejaVuSans-20" x="260.986328"/>
      <use xlink:href="#DejaVuSans-72" x="292.773438"/>
      <use xlink:href="#DejaVuSans-61" x="333.886719"/>
      <use xlink:href="#DejaVuSans-6e" x="395.166016"/>
      <use xlink:href="#DejaVuSans-64" x="458.544922"/>
      <use xlink:href="#DejaVuSans-6f" x="522.021484"/>
      <use xlink:href="#DejaVuSans-6d" x="583.203125"/>
      <use xlink:href="#DejaVuSans-20" x="680.615234"/>
      <use xlink:href="#DejaVuSans-73" x="712.402344"/>
      <use xlink:href="#DejaVuSans-70" x="764.501953"/>
      <use xlink:href="#DejaVuSans-6c" x="827.978516"/>
      <use xlink:href="#DejaVuSans-69" x="855.761719"/>
      <use xlink:href="#DejaVuSans-74" x="883.544922"/>
      <use xlink:href="#DejaVuSans-20" x="922.753906"/>
      <use xlink:href="#DejaVuSans-2b" x="954.541016"/>
      <use xlink:href="#DejaVuSans-20" x="1038.330078"/>
      <use xlink:href="#DejaVuSans-73" x="1070.117188"/>
      <use xlink:href="#DejaVuSans-75" x="1122.216797"/>
      <use xlink:href="#DejaVuSans-72" x="1185.595703"/>
      <use xlink:href="#DejaVuSans-70" x="1226.708984"/>
      <use xlink:href="#DejaVuSans-72" x="1290.185547"/>
      <use xlink:href="#DejaVuSans-69" x="1331.298828"/>
      <use xlink:href="#DejaVuSans-73" x="1359.082031"/>
      <use xlink:href="#DejaVuSans-61" x="1411.181641"/>
      <use xlink:href="#DejaVuSans-6c" x="1472.460938"/>
     </g>
    </g>
    <g id="line2d_37">
     <path d="M 524.56 128.047187 
L 534.56 128.047187 
L 544.56 128.047187 
" style="fill: none; stroke: #e377c2; stroke-width: 1.5; stroke-linecap: square"/>
    </g>
    <g id="text_26">
     <!-- Interaction -->
     <g transform="translate(552.56 131.547187)scale(0.1 -0.1)">
      <use xlink:href="#DejaVuSans-49"/>
      <use xlink:href="#DejaVuSans-6e" x="29.492188"/>
      <use xlink:href="#DejaVuSans-74" x="92.871094"/>
      <use xlink:href="#DejaVuSans-65" x="132.080078"/>
      <use xlink:href="#DejaVuSans-72" x="193.603516"/>
      <use xlink:href="#DejaVuSans-61" x="234.716797"/>
      <use xlink:href="#DejaVuSans-63" x="295.996094"/>
      <use xlink:href="#DejaVuSans-74" x="350.976562"/>
      <use xlink:href="#DejaVuSans-69" x="390.185547"/>
      <use xlink:href="#DejaVuSans-6f" x="417.96875"/>
      <use xlink:href="#DejaVuSans-6e" x="479.150391"/>
     </g>
    </g>
    <g id="line2d_38">
     <path d="M 524.56 142.725312 
L 534.56 142.725312 
L 544.56 142.725312 
" style="fill: none; stroke: #7f7f7f; stroke-width: 1.5; stroke-linecap: square"/>
    </g>
    <g id="text_27">
     <!-- Node + surprisal + interaction -->
     <g transform="translate(552.56 146.225312)scale(0.1 -0.1)">
      <use xlink:href="#DejaVuSans-4e"/>
      <use xlink:href="#DejaVuSans-6f" x="74.804688"/>
      <use xlink:href="#DejaVuSans-64" x="135.986328"/>
      <use xlink:href="#DejaVuSans-65" x="199.462891"/>
      <use xlink:href="#DejaVuSans-20" x="260.986328"/>
      <use xlink:href="#DejaVuSans-2b" x="292.773438"/>
      <use xlink:href="#DejaVuSans-20" x="376.5625"/>
      <use xlink:href="#DejaVuSans-73" x="408.349609"/>
      <use xlink:href="#DejaVuSans-75" x="460.449219"/>
      <use xlink:href="#DejaVuSans-72" x="523.828125"/>
      <use xlink:href="#DejaVuSans-70" x="564.941406"/>
      <use xlink:href="#DejaVuSans-72" x="628.417969"/>
      <use xlink:href="#DejaVuSans-69" x="669.53125"/>
      <use xlink:href="#DejaVuSans-73" x="697.314453"/>
      <use xlink:href="#DejaVuSans-61" x="749.414062"/>
      <use xlink:href="#DejaVuSans-6c" x="810.693359"/>
      <use xlink:href="#DejaVuSans-20" x="838.476562"/>
      <use xlink:href="#DejaVuSans-2b" x="870.263672"/>
      <use xlink:href="#DejaVuSans-20" x="954.052734"/>
      <use xlink:href="#DejaVuSans-69" x="985.839844"/>
      <use xlink:href="#DejaVuSans-6e" x="1013.623047"/>
      <use xlink:href="#DejaVuSans-74" x="1077.001953"/>
      <use xlink:href="#DejaVuSans-65" x="1116.210938"/>
      <use xlink:href="#DejaVuSans-72" x="1177.734375"/>
      <use xlink:href="#DejaVuSans-61" x="1218.847656"/>
      <use xlink:href="#DejaVuSans-63" x="1280.126953"/>
      <use xlink:href="#DejaVuSans-74" x="1335.107422"/>
      <use xlink:href="#DejaVuSans-69" x="1374.316406"/>
      <use xlink:href="#DejaVuSans-6f" x="1402.099609"/>
      <use xlink:href="#DejaVuSans-6e" x="1463.28125"/>
     </g>
    </g>
   </g>
  </g>
 </g>
 <defs>
  <clipPath id="p27f1a49a32">
   <rect x="47.72" y="26.88" width="217.495" height="147.16"/>
  </clipPath>
  <clipPath id="p00d686e13b">
   <rect x="298.065" y="26.88" width="217.495" height="147.16"/>
  </clipPath>
 </defs>
</svg>
