<?xml version="1.0" encoding="utf-8" standalone="no"?>
<!DOCTYPE svg PUBLIC "-//W3C//DTD SVG 1.1//EN"
  "http://www.w3.org/Graphics/SVG/1.1/DTD/svg11.dtd">
<svg xmlns:xlink="http://www.w3.org/1999/xlink" width="720pt" height="216pt" viewBox="0 0 720 216" xmlns="http://www.w3.org/2000/svg" version="1.1">
 <metadata>
  <rdf:RDF xmlns:dc="http://purl.org/dc/elements/1.1/" xmlns:cc="http://creativecommons.org/ns#" xmlns:rdf="http://www.w3.org/1999/02/22-rdf-syntax-ns#">
   <cc:Work>
    <dc:type rdf:resource="http://purl.org/dc/dcmitype/StillImage"/>
    <dc:date>2024-01-15T22:35:32.982148</dc:date>
    <dc:format>image/svg+xml</dc:format>
    <dc:creator>
     <cc:Agent>
      <dc:title>Matplotlib v3.5.1, https://matplotlib.org/</dc:title>
     </cc:Agent>
    </dc:creator>
   </cc:Work>
  </rdf:RDF>
 </metadata>
 <defs>
  <style type="text/css">*{stroke-linejoin: round; stroke-linecap: butt}</style>
 </defs>
 <g id="figure_1">
  <g id="patch_1">
   <path d="M 0 216 
L 720 216 
L 720 0 
L 0 0 
z
" style="fill: #ffffff"/>
  </g>
  <g id="axes_1">
   <g id="patch_2">
    <path d="M 47.72 174.04 
L 265.215 174.04 
L 265.215 26.88 
L 47.72 26.88 
z
" style="fill: #ffffff"/>
   </g>
   <g id="PolyCollection_1">
    <path d="M 47.72 33.632407 
L 47.72 34.400061 
L 59.167105 36.605781 
L 70.614211 42.721212 
L 82.061316 50.886699 
L 93.508421 60.161769 
L 104.955526 70.073506 
L 116.402632 81.224653 
L 127.849737 92.295167 
L 139.296842 102.494647 
L 150.743947 112.164749 
L 162.191053 120.089274 
L 173.638158 127.421814 
L 185.085263 133.606556 
L 196.532368 138.858154 
L 207.979474 143.440386 
L 219.426579 147.429245 
L 230.873684 150.390829 
L 242.320789 154.085126 
L 253.767895 155.676686 
L 265.215 158.251707 
L 265.215 146.830243 
L 265.215 146.830243 
L 253.767895 144.021182 
L 242.320789 140.709585 
L 230.873684 137.115577 
L 219.426579 132.345033 
L 207.979474 127.783692 
L 196.532368 123.178628 
L 185.085263 117.230855 
L 173.638158 110.671813 
L 162.191053 104.227242 
L 150.743947 97.336682 
L 139.296842 89.671016 
L 127.849737 81.613448 
L 116.402632 72.874312 
L 104.955526 63.909045 
L 93.508421 55.192216 
L 82.061316 46.835181 
L 70.614211 40.490346 
L 59.167105 35.447832 
L 47.72 33.632407 
z
" clip-path="url(#p809877091a)" style="fill: #1f77b4; fill-opacity: 0.4"/>
   </g>
   <g id="PolyCollection_2">
    <path d="M 47.72 33.644582 
L 47.72 34.410143 
L 59.167105 35.818399 
L 70.614211 38.97158 
L 82.061316 43.894199 
L 93.508421 49.68386 
L 104.955526 57.464558 
L 116.402632 65.902855 
L 127.849737 74.905184 
L 139.296842 84.224671 
L 150.743947 92.977131 
L 162.191053 101.058601 
L 173.638158 108.713338 
L 185.085263 115.889159 
L 196.532368 122.05347 
L 207.979474 127.549193 
L 219.426579 133.561402 
L 230.873684 137.489298 
L 242.320789 142.877993 
L 253.767895 145.219329 
L 265.215 148.921206 
L 265.215 137.047152 
L 265.215 137.047152 
L 253.767895 133.576023 
L 242.320789 129.563277 
L 230.873684 125.093222 
L 219.426579 119.819897 
L 207.979474 114.980011 
L 196.532368 109.828714 
L 185.085263 103.665262 
L 173.638158 97.052528 
L 162.191053 90.901257 
L 150.743947 83.838651 
L 139.296842 76.292795 
L 127.849737 68.364874 
L 116.402632 60.739533 
L 104.955526 52.837311 
L 93.508421 46.785603 
L 82.061316 41.066461 
L 70.614211 37.40806 
L 59.167105 34.805204 
L 47.72 33.644582 
z
" clip-path="url(#p809877091a)" style="fill: #ff7f0e; fill-opacity: 0.4"/>
   </g>
   <g id="PolyCollection_3">
    <path d="M 47.72 33.638399 
L 47.72 34.421266 
L 59.167105 36.078964 
L 70.614211 38.987499 
L 82.061316 42.720336 
L 93.508421 46.880417 
L 104.955526 51.483263 
L 116.402632 56.042237 
L 127.849737 60.936309 
L 139.296842 66.042788 
L 150.743947 70.444578 
L 162.191053 75.100017 
L 173.638158 79.961848 
L 185.085263 84.595066 
L 196.532368 89.261372 
L 207.979474 93.088573 
L 219.426579 98.915351 
L 230.873684 102.465392 
L 242.320789 107.83915 
L 253.767895 110.573079 
L 265.215 115.520458 
L 265.215 103.266773 
L 265.215 103.266773 
L 253.767895 99.57445 
L 242.320789 95.796936 
L 230.873684 92.062566 
L 219.426579 88.37401 
L 207.979474 84.407137 
L 196.532368 80.722059 
L 185.085263 76.574092 
L 173.638158 72.44572 
L 162.191053 68.886196 
L 150.743947 65.365716 
L 139.296842 60.436479 
L 127.849737 55.895741 
L 116.402632 51.500388 
L 104.955526 46.904375 
L 93.508421 43.175583 
L 82.061316 39.766425 
L 70.614211 37.378957 
L 59.167105 35.112572 
L 47.72 33.638399 
z
" clip-path="url(#p809877091a)" style="fill: #2ca02c; fill-opacity: 0.4"/>
   </g>
   <g id="PolyCollection_4">
    <path d="M 47.72 33.657842 
L 47.72 34.420927 
L 59.167105 35.744962 
L 70.614211 37.819428 
L 82.061316 40.717747 
L 93.508421 44.190839 
L 104.955526 48.688511 
L 116.402632 53.015559 
L 127.849737 58.193948 
L 139.296842 63.628223 
L 150.743947 68.396869 
L 162.191053 73.250019 
L 173.638158 78.489588 
L 185.085263 83.221406 
L 196.532368 88.075078 
L 207.979474 91.803229 
L 219.426579 97.411198 
L 230.873684 100.948282 
L 242.320789 105.875215 
L 253.767895 108.353084 
L 265.215 112.819258 
L 265.215 101.879087 
L 265.215 101.879087 
L 253.767895 98.329268 
L 242.320789 94.623613 
L 230.873684 90.900088 
L 219.426579 87.443442 
L 207.979474 83.504225 
L 196.532368 79.797598 
L 185.085263 75.528102 
L 173.638158 71.196104 
L 162.191053 67.597539 
L 150.743947 63.521936 
L 139.296842 58.682177 
L 127.849737 53.682764 
L 116.402632 49.378512 
L 104.955526 44.79915 
L 93.508421 41.487235 
L 82.061316 38.514975 
L 70.614211 36.47901 
L 59.167105 34.786834 
L 47.72 33.657842 
z
" clip-path="url(#p809877091a)" style="fill: #d62728; fill-opacity: 0.4"/>
   </g>
   <g id="PolyCollection_5">
    <path d="M 47.72 33.651295 
L 47.72 34.420608 
L 59.167105 36.624131 
L 70.614211 42.749518 
L 82.061316 50.920699 
L 93.508421 60.176505 
L 104.955526 70.117093 
L 116.402632 81.337566 
L 127.849737 92.473314 
L 139.296842 102.534239 
L 150.743947 111.911309 
L 162.191053 120.634083 
L 173.638158 127.537402 
L 185.085263 133.597704 
L 196.532368 139.558973 
L 207.979474 144.174695 
L 219.426579 148.438278 
L 230.873684 150.063878 
L 242.320789 154.571577 
L 253.767895 157.814134 
L 265.215 159.336535 
L 265.215 148.383442 
L 265.215 148.383442 
L 253.767895 145.12335 
L 242.320789 141.84176 
L 230.873684 136.715728 
L 219.426579 132.938331 
L 207.979474 128.460661 
L 196.532368 123.491122 
L 185.085263 117.434259 
L 173.638158 111.300328 
L 162.191053 104.438053 
L 150.743947 97.319325 
L 139.296842 89.55054 
L 127.849737 81.600739 
L 116.402632 73.005094 
L 104.955526 64.171811 
L 93.508421 55.266376 
L 82.061316 46.778388 
L 70.614211 40.565616 
L 59.167105 35.461589 
L 47.72 33.651295 
z
" clip-path="url(#p809877091a)" style="fill: #9467bd; fill-opacity: 0.4"/>
   </g>
   <g id="PolyCollection_6">
    <path d="M 47.72 33.663042 
L 47.72 34.430265 
L 59.167105 35.838036 
L 70.614211 38.988375 
L 82.061316 43.923044 
L 93.508421 49.695411 
L 104.955526 57.518327 
L 116.402632 65.90673 
L 127.849737 75.066523 
L 139.296842 84.266943 
L 150.743947 92.835225 
L 162.191053 101.628577 
L 173.638158 108.729448 
L 185.085263 116.046352 
L 196.532368 122.343867 
L 207.979474 128.307866 
L 219.426579 134.19297 
L 230.873684 137.485125 
L 242.320789 143.488503 
L 253.767895 147.144231 
L 265.215 149.615571 
L 265.215 138.147267 
L 265.215 138.147267 
L 253.767895 134.314377 
L 242.320789 130.345776 
L 230.873684 124.523047 
L 219.426579 120.275862 
L 207.979474 115.340521 
L 196.532368 110.176463 
L 185.085263 103.590799 
L 173.638158 97.50854 
L 162.191053 90.892249 
L 150.743947 83.83694 
L 139.296842 76.257266 
L 127.849737 68.484528 
L 116.402632 60.848276 
L 104.955526 52.963252 
L 93.508421 46.822808 
L 82.061316 41.064745 
L 70.614211 37.451566 
L 59.167105 34.810635 
L 47.72 33.663042 
z
" clip-path="url(#p809877091a)" style="fill: #8c564b; fill-opacity: 0.4"/>
   </g>
   <g id="PolyCollection_7">
    <path d="M 47.72 44.420436 
L 47.72 47.393553 
L 59.167105 50.621047 
L 70.614211 58.269477 
L 82.061316 68.508205 
L 93.508421 78.974947 
L 104.955526 88.860412 
L 116.402632 99.881983 
L 127.849737 109.684404 
L 139.296842 119.138916 
L 150.743947 128.268619 
L 162.191053 135.413614 
L 173.638158 142.096389 
L 185.085263 147.806921 
L 196.532368 152.505127 
L 207.979474 156.47456 
L 219.426579 159.871797 
L 230.873684 162.134645 
L 242.320789 164.3492 
L 253.767895 166.127175 
L 265.215 167.350909 
L 265.215 157.357224 
L 265.215 157.357224 
L 253.767895 155.101449 
L 242.320789 152.508699 
L 230.873684 149.632328 
L 219.426579 145.748457 
L 207.979474 141.956959 
L 196.532368 138.205047 
L 185.085263 133.063988 
L 173.638158 127.589968 
L 162.191053 122.340729 
L 150.743947 116.181918 
L 139.296842 108.497874 
L 127.849737 100.084332 
L 116.402632 90.012683 
L 104.955526 79.024792 
L 93.508421 68.500609 
L 82.061316 58.70506 
L 70.614211 51.783761 
L 59.167105 46.320968 
L 47.72 44.420436 
z
" clip-path="url(#p809877091a)" style="fill: #e377c2; fill-opacity: 0.4"/>
   </g>
   <g id="PolyCollection_8">
    <path d="M 47.72 33.648335 
L 47.72 34.428941 
L 59.167105 35.163869 
L 70.614211 35.806649 
L 82.061316 38.628445 
L 93.508421 43.427095 
L 104.955526 50.289902 
L 116.402632 57.192678 
L 127.849737 64.756408 
L 139.296842 73.100962 
L 150.743947 80.616409 
L 162.191053 88.598782 
L 173.638158 96.216974 
L 185.085263 103.851595 
L 196.532368 110.517559 
L 207.979474 116.565867 
L 219.426579 123.895196 
L 230.873684 128.405431 
L 242.320789 134.611585 
L 253.767895 137.719913 
L 265.215 141.946401 
L 265.215 130.357637 
L 265.215 130.357637 
L 253.767895 125.959483 
L 242.320789 121.75709 
L 230.873684 116.82059 
L 219.426579 111.041387 
L 207.979474 105.891699 
L 196.532368 100.295497 
L 185.085263 93.256958 
L 173.638158 86.429401 
L 162.191053 79.075667 
L 150.743947 71.393835 
L 139.296842 62.348924 
L 127.849737 54.540969 
L 116.402632 47.149956 
L 104.955526 40.833983 
L 93.508421 37.667612 
L 82.061316 35.558946 
L 70.614211 34.748407 
L 59.167105 34.322793 
L 47.72 33.648335 
z
" clip-path="url(#p809877091a)" style="fill: #7f7f7f; fill-opacity: 0.4"/>
   </g>
   <g id="matplotlib.axis_1">
    <g id="xtick_1">
     <g id="line2d_1">
      <defs>
       <path id="md7b6a4d131" d="M 0 0 
L 0 3.5 
" style="stroke: #000000; stroke-width: 0.8"/>
      </defs>
      <g>
       <use xlink:href="#md7b6a4d131" x="47.72" y="174.04" style="stroke: #000000; stroke-width: 0.8"/>
      </g>
     </g>
     <g id="text_1">
      <!-- 0.0 -->
      <g transform="translate(39.768438 188.638438)scale(0.1 -0.1)">
       <defs>
        <path id="DejaVuSans-30" d="M 2034 4250 
Q 1547 4250 1301 3770 
Q 1056 3291 1056 2328 
Q 1056 1369 1301 889 
Q 1547 409 2034 409 
Q 2525 409 2770 889 
Q 3016 1369 3016 2328 
Q 3016 3291 2770 3770 
Q 2525 4250 2034 4250 
z
M 2034 4750 
Q 2819 4750 3233 4129 
Q 3647 3509 3647 2328 
Q 3647 1150 3233 529 
Q 2819 -91 2034 -91 
Q 1250 -91 836 529 
Q 422 1150 422 2328 
Q 422 3509 836 4129 
Q 1250 4750 2034 4750 
z
" transform="scale(0.015625)"/>
        <path id="DejaVuSans-2e" d="M 684 794 
L 1344 794 
L 1344 0 
L 684 0 
L 684 794 
z
" transform="scale(0.015625)"/>
       </defs>
       <use xlink:href="#DejaVuSans-30"/>
       <use xlink:href="#DejaVuSans-2e" x="63.623047"/>
       <use xlink:href="#DejaVuSans-30" x="95.410156"/>
      </g>
     </g>
    </g>
    <g id="xtick_2">
     <g id="line2d_2">
      <g>
       <use xlink:href="#md7b6a4d131" x="102.09375" y="174.04" style="stroke: #000000; stroke-width: 0.8"/>
      </g>
     </g>
     <g id="text_2">
      <!-- 0.5 -->
      <g transform="translate(94.142188 188.638438)scale(0.1 -0.1)">
       <defs>
        <path id="DejaVuSans-35" d="M 691 4666 
L 3169 4666 
L 3169 4134 
L 1269 4134 
L 1269 2991 
Q 1406 3038 1543 3061 
Q 1681 3084 1819 3084 
Q 2600 3084 3056 2656 
Q 3513 2228 3513 1497 
Q 3513 744 3044 326 
Q 2575 -91 1722 -91 
Q 1428 -91 1123 -41 
Q 819 9 494 109 
L 494 744 
Q 775 591 1075 516 
Q 1375 441 1709 441 
Q 2250 441 2565 725 
Q 2881 1009 2881 1497 
Q 2881 1984 2565 2268 
Q 2250 2553 1709 2553 
Q 1456 2553 1204 2497 
Q 953 2441 691 2322 
L 691 4666 
z
" transform="scale(0.015625)"/>
       </defs>
       <use xlink:href="#DejaVuSans-30"/>
       <use xlink:href="#DejaVuSans-2e" x="63.623047"/>
       <use xlink:href="#DejaVuSans-35" x="95.410156"/>
      </g>
     </g>
    </g>
    <g id="xtick_3">
     <g id="line2d_3">
      <g>
       <use xlink:href="#md7b6a4d131" x="156.4675" y="174.04" style="stroke: #000000; stroke-width: 0.8"/>
      </g>
     </g>
     <g id="text_3">
      <!-- 1.0 -->
      <g transform="translate(148.515938 188.638438)scale(0.1 -0.1)">
       <defs>
        <path id="DejaVuSans-31" d="M 794 531 
L 1825 531 
L 1825 4091 
L 703 3866 
L 703 4441 
L 1819 4666 
L 2450 4666 
L 2450 531 
L 3481 531 
L 3481 0 
L 794 0 
L 794 531 
z
" transform="scale(0.015625)"/>
       </defs>
       <use xlink:href="#DejaVuSans-31"/>
       <use xlink:href="#DejaVuSans-2e" x="63.623047"/>
       <use xlink:href="#DejaVuSans-30" x="95.410156"/>
      </g>
     </g>
    </g>
    <g id="xtick_4">
     <g id="line2d_4">
      <g>
       <use xlink:href="#md7b6a4d131" x="210.84125" y="174.04" style="stroke: #000000; stroke-width: 0.8"/>
      </g>
     </g>
     <g id="text_4">
      <!-- 1.5 -->
      <g transform="translate(202.889687 188.638438)scale(0.1 -0.1)">
       <use xlink:href="#DejaVuSans-31"/>
       <use xlink:href="#DejaVuSans-2e" x="63.623047"/>
       <use xlink:href="#DejaVuSans-35" x="95.410156"/>
      </g>
     </g>
    </g>
    <g id="xtick_5">
     <g id="line2d_5">
      <g>
       <use xlink:href="#md7b6a4d131" x="265.215" y="174.04" style="stroke: #000000; stroke-width: 0.8"/>
      </g>
     </g>
     <g id="text_5">
      <!-- 2.0 -->
      <g transform="translate(257.263437 188.638438)scale(0.1 -0.1)">
       <defs>
        <path id="DejaVuSans-32" d="M 1228 531 
L 3431 531 
L 3431 0 
L 469 0 
L 469 531 
Q 828 903 1448 1529 
Q 2069 2156 2228 2338 
Q 2531 2678 2651 2914 
Q 2772 3150 2772 3378 
Q 2772 3750 2511 3984 
Q 2250 4219 1831 4219 
Q 1534 4219 1204 4116 
Q 875 4013 500 3803 
L 500 4441 
Q 881 4594 1212 4672 
Q 1544 4750 1819 4750 
Q 2544 4750 2975 4387 
Q 3406 4025 3406 3419 
Q 3406 3131 3298 2873 
Q 3191 2616 2906 2266 
Q 2828 2175 2409 1742 
Q 1991 1309 1228 531 
z
" transform="scale(0.015625)"/>
       </defs>
       <use xlink:href="#DejaVuSans-32"/>
       <use xlink:href="#DejaVuSans-2e" x="63.623047"/>
       <use xlink:href="#DejaVuSans-30" x="95.410156"/>
      </g>
     </g>
    </g>
    <g id="text_6">
     <!-- Influence of surprisal (multiplication) -->
     <g transform="translate(64.320625 202.316563)scale(0.1 -0.1)">
      <defs>
       <path id="DejaVuSans-49" d="M 628 4666 
L 1259 4666 
L 1259 0 
L 628 0 
L 628 4666 
z
" transform="scale(0.015625)"/>
       <path id="DejaVuSans-6e" d="M 3513 2113 
L 3513 0 
L 2938 0 
L 2938 2094 
Q 2938 2591 2744 2837 
Q 2550 3084 2163 3084 
Q 1697 3084 1428 2787 
Q 1159 2491 1159 1978 
L 1159 0 
L 581 0 
L 581 3500 
L 1159 3500 
L 1159 2956 
Q 1366 3272 1645 3428 
Q 1925 3584 2291 3584 
Q 2894 3584 3203 3211 
Q 3513 2838 3513 2113 
z
" transform="scale(0.015625)"/>
       <path id="DejaVuSans-66" d="M 2375 4863 
L 2375 4384 
L 1825 4384 
Q 1516 4384 1395 4259 
Q 1275 4134 1275 3809 
L 1275 3500 
L 2222 3500 
L 2222 3053 
L 1275 3053 
L 1275 0 
L 697 0 
L 697 3053 
L 147 3053 
L 147 3500 
L 697 3500 
L 697 3744 
Q 697 4328 969 4595 
Q 1241 4863 1831 4863 
L 2375 4863 
z
" transform="scale(0.015625)"/>
       <path id="DejaVuSans-6c" d="M 603 4863 
L 1178 4863 
L 1178 0 
L 603 0 
L 603 4863 
z
" transform="scale(0.015625)"/>
       <path id="DejaVuSans-75" d="M 544 1381 
L 544 3500 
L 1119 3500 
L 1119 1403 
Q 1119 906 1312 657 
Q 1506 409 1894 409 
Q 2359 409 2629 706 
Q 2900 1003 2900 1516 
L 2900 3500 
L 3475 3500 
L 3475 0 
L 2900 0 
L 2900 538 
Q 2691 219 2414 64 
Q 2138 -91 1772 -91 
Q 1169 -91 856 284 
Q 544 659 544 1381 
z
M 1991 3584 
L 1991 3584 
z
" transform="scale(0.015625)"/>
       <path id="DejaVuSans-65" d="M 3597 1894 
L 3597 1613 
L 953 1613 
Q 991 1019 1311 708 
Q 1631 397 2203 397 
Q 2534 397 2845 478 
Q 3156 559 3463 722 
L 3463 178 
Q 3153 47 2828 -22 
Q 2503 -91 2169 -91 
Q 1331 -91 842 396 
Q 353 884 353 1716 
Q 353 2575 817 3079 
Q 1281 3584 2069 3584 
Q 2775 3584 3186 3129 
Q 3597 2675 3597 1894 
z
M 3022 2063 
Q 3016 2534 2758 2815 
Q 2500 3097 2075 3097 
Q 1594 3097 1305 2825 
Q 1016 2553 972 2059 
L 3022 2063 
z
" transform="scale(0.015625)"/>
       <path id="DejaVuSans-63" d="M 3122 3366 
L 3122 2828 
Q 2878 2963 2633 3030 
Q 2388 3097 2138 3097 
Q 1578 3097 1268 2742 
Q 959 2388 959 1747 
Q 959 1106 1268 751 
Q 1578 397 2138 397 
Q 2388 397 2633 464 
Q 2878 531 3122 666 
L 3122 134 
Q 2881 22 2623 -34 
Q 2366 -91 2075 -91 
Q 1284 -91 818 406 
Q 353 903 353 1747 
Q 353 2603 823 3093 
Q 1294 3584 2113 3584 
Q 2378 3584 2631 3529 
Q 2884 3475 3122 3366 
z
" transform="scale(0.015625)"/>
       <path id="DejaVuSans-20" transform="scale(0.015625)"/>
       <path id="DejaVuSans-6f" d="M 1959 3097 
Q 1497 3097 1228 2736 
Q 959 2375 959 1747 
Q 959 1119 1226 758 
Q 1494 397 1959 397 
Q 2419 397 2687 759 
Q 2956 1122 2956 1747 
Q 2956 2369 2687 2733 
Q 2419 3097 1959 3097 
z
M 1959 3584 
Q 2709 3584 3137 3096 
Q 3566 2609 3566 1747 
Q 3566 888 3137 398 
Q 2709 -91 1959 -91 
Q 1206 -91 779 398 
Q 353 888 353 1747 
Q 353 2609 779 3096 
Q 1206 3584 1959 3584 
z
" transform="scale(0.015625)"/>
       <path id="DejaVuSans-73" d="M 2834 3397 
L 2834 2853 
Q 2591 2978 2328 3040 
Q 2066 3103 1784 3103 
Q 1356 3103 1142 2972 
Q 928 2841 928 2578 
Q 928 2378 1081 2264 
Q 1234 2150 1697 2047 
L 1894 2003 
Q 2506 1872 2764 1633 
Q 3022 1394 3022 966 
Q 3022 478 2636 193 
Q 2250 -91 1575 -91 
Q 1294 -91 989 -36 
Q 684 19 347 128 
L 347 722 
Q 666 556 975 473 
Q 1284 391 1588 391 
Q 1994 391 2212 530 
Q 2431 669 2431 922 
Q 2431 1156 2273 1281 
Q 2116 1406 1581 1522 
L 1381 1569 
Q 847 1681 609 1914 
Q 372 2147 372 2553 
Q 372 3047 722 3315 
Q 1072 3584 1716 3584 
Q 2034 3584 2315 3537 
Q 2597 3491 2834 3397 
z
" transform="scale(0.015625)"/>
       <path id="DejaVuSans-72" d="M 2631 2963 
Q 2534 3019 2420 3045 
Q 2306 3072 2169 3072 
Q 1681 3072 1420 2755 
Q 1159 2438 1159 1844 
L 1159 0 
L 581 0 
L 581 3500 
L 1159 3500 
L 1159 2956 
Q 1341 3275 1631 3429 
Q 1922 3584 2338 3584 
Q 2397 3584 2469 3576 
Q 2541 3569 2628 3553 
L 2631 2963 
z
" transform="scale(0.015625)"/>
       <path id="DejaVuSans-70" d="M 1159 525 
L 1159 -1331 
L 581 -1331 
L 581 3500 
L 1159 3500 
L 1159 2969 
Q 1341 3281 1617 3432 
Q 1894 3584 2278 3584 
Q 2916 3584 3314 3078 
Q 3713 2572 3713 1747 
Q 3713 922 3314 415 
Q 2916 -91 2278 -91 
Q 1894 -91 1617 61 
Q 1341 213 1159 525 
z
M 3116 1747 
Q 3116 2381 2855 2742 
Q 2594 3103 2138 3103 
Q 1681 3103 1420 2742 
Q 1159 2381 1159 1747 
Q 1159 1113 1420 752 
Q 1681 391 2138 391 
Q 2594 391 2855 752 
Q 3116 1113 3116 1747 
z
" transform="scale(0.015625)"/>
       <path id="DejaVuSans-69" d="M 603 3500 
L 1178 3500 
L 1178 0 
L 603 0 
L 603 3500 
z
M 603 4863 
L 1178 4863 
L 1178 4134 
L 603 4134 
L 603 4863 
z
" transform="scale(0.015625)"/>
       <path id="DejaVuSans-61" d="M 2194 1759 
Q 1497 1759 1228 1600 
Q 959 1441 959 1056 
Q 959 750 1161 570 
Q 1363 391 1709 391 
Q 2188 391 2477 730 
Q 2766 1069 2766 1631 
L 2766 1759 
L 2194 1759 
z
M 3341 1997 
L 3341 0 
L 2766 0 
L 2766 531 
Q 2569 213 2275 61 
Q 1981 -91 1556 -91 
Q 1019 -91 701 211 
Q 384 513 384 1019 
Q 384 1609 779 1909 
Q 1175 2209 1959 2209 
L 2766 2209 
L 2766 2266 
Q 2766 2663 2505 2880 
Q 2244 3097 1772 3097 
Q 1472 3097 1187 3025 
Q 903 2953 641 2809 
L 641 3341 
Q 956 3463 1253 3523 
Q 1550 3584 1831 3584 
Q 2591 3584 2966 3190 
Q 3341 2797 3341 1997 
z
" transform="scale(0.015625)"/>
       <path id="DejaVuSans-28" d="M 1984 4856 
Q 1566 4138 1362 3434 
Q 1159 2731 1159 2009 
Q 1159 1288 1364 580 
Q 1569 -128 1984 -844 
L 1484 -844 
Q 1016 -109 783 600 
Q 550 1309 550 2009 
Q 550 2706 781 3412 
Q 1013 4119 1484 4856 
L 1984 4856 
z
" transform="scale(0.015625)"/>
       <path id="DejaVuSans-6d" d="M 3328 2828 
Q 3544 3216 3844 3400 
Q 4144 3584 4550 3584 
Q 5097 3584 5394 3201 
Q 5691 2819 5691 2113 
L 5691 0 
L 5113 0 
L 5113 2094 
Q 5113 2597 4934 2840 
Q 4756 3084 4391 3084 
Q 3944 3084 3684 2787 
Q 3425 2491 3425 1978 
L 3425 0 
L 2847 0 
L 2847 2094 
Q 2847 2600 2669 2842 
Q 2491 3084 2119 3084 
Q 1678 3084 1418 2786 
Q 1159 2488 1159 1978 
L 1159 0 
L 581 0 
L 581 3500 
L 1159 3500 
L 1159 2956 
Q 1356 3278 1631 3431 
Q 1906 3584 2284 3584 
Q 2666 3584 2933 3390 
Q 3200 3197 3328 2828 
z
" transform="scale(0.015625)"/>
       <path id="DejaVuSans-74" d="M 1172 4494 
L 1172 3500 
L 2356 3500 
L 2356 3053 
L 1172 3053 
L 1172 1153 
Q 1172 725 1289 603 
Q 1406 481 1766 481 
L 2356 481 
L 2356 0 
L 1766 0 
Q 1100 0 847 248 
Q 594 497 594 1153 
L 594 3053 
L 172 3053 
L 172 3500 
L 594 3500 
L 594 4494 
L 1172 4494 
z
" transform="scale(0.015625)"/>
       <path id="DejaVuSans-29" d="M 513 4856 
L 1013 4856 
Q 1481 4119 1714 3412 
Q 1947 2706 1947 2009 
Q 1947 1309 1714 600 
Q 1481 -109 1013 -844 
L 513 -844 
Q 928 -128 1133 580 
Q 1338 1288 1338 2009 
Q 1338 2731 1133 3434 
Q 928 4138 513 4856 
z
" transform="scale(0.015625)"/>
      </defs>
      <use xlink:href="#DejaVuSans-49"/>
      <use xlink:href="#DejaVuSans-6e" x="29.492188"/>
      <use xlink:href="#DejaVuSans-66" x="92.871094"/>
      <use xlink:href="#DejaVuSans-6c" x="128.076172"/>
      <use xlink:href="#DejaVuSans-75" x="155.859375"/>
      <use xlink:href="#DejaVuSans-65" x="219.238281"/>
      <use xlink:href="#DejaVuSans-6e" x="280.761719"/>
      <use xlink:href="#DejaVuSans-63" x="344.140625"/>
      <use xlink:href="#DejaVuSans-65" x="399.121094"/>
      <use xlink:href="#DejaVuSans-20" x="460.644531"/>
      <use xlink:href="#DejaVuSans-6f" x="492.431641"/>
      <use xlink:href="#DejaVuSans-66" x="553.613281"/>
      <use xlink:href="#DejaVuSans-20" x="588.818359"/>
      <use xlink:href="#DejaVuSans-73" x="620.605469"/>
      <use xlink:href="#DejaVuSans-75" x="672.705078"/>
      <use xlink:href="#DejaVuSans-72" x="736.083984"/>
      <use xlink:href="#DejaVuSans-70" x="777.197266"/>
      <use xlink:href="#DejaVuSans-72" x="840.673828"/>
      <use xlink:href="#DejaVuSans-69" x="881.787109"/>
      <use xlink:href="#DejaVuSans-73" x="909.570312"/>
      <use xlink:href="#DejaVuSans-61" x="961.669922"/>
      <use xlink:href="#DejaVuSans-6c" x="1022.949219"/>
      <use xlink:href="#DejaVuSans-20" x="1050.732422"/>
      <use xlink:href="#DejaVuSans-28" x="1082.519531"/>
      <use xlink:href="#DejaVuSans-6d" x="1121.533203"/>
      <use xlink:href="#DejaVuSans-75" x="1218.945312"/>
      <use xlink:href="#DejaVuSans-6c" x="1282.324219"/>
      <use xlink:href="#DejaVuSans-74" x="1310.107422"/>
      <use xlink:href="#DejaVuSans-69" x="1349.316406"/>
      <use xlink:href="#DejaVuSans-70" x="1377.099609"/>
      <use xlink:href="#DejaVuSans-6c" x="1440.576172"/>
      <use xlink:href="#DejaVuSans-69" x="1468.359375"/>
      <use xlink:href="#DejaVuSans-63" x="1496.142578"/>
      <use xlink:href="#DejaVuSans-61" x="1551.123047"/>
      <use xlink:href="#DejaVuSans-74" x="1612.402344"/>
      <use xlink:href="#DejaVuSans-69" x="1651.611328"/>
      <use xlink:href="#DejaVuSans-6f" x="1679.394531"/>
      <use xlink:href="#DejaVuSans-6e" x="1740.576172"/>
      <use xlink:href="#DejaVuSans-29" x="1803.955078"/>
     </g>
    </g>
   </g>
   <g id="matplotlib.axis_2">
    <g id="ytick_1">
     <g id="line2d_6">
      <defs>
       <path id="mb5e53f4912" d="M 0 0 
L -3.5 0 
" style="stroke: #000000; stroke-width: 0.8"/>
      </defs>
      <g>
       <use xlink:href="#mb5e53f4912" x="47.72" y="152.463537" style="stroke: #000000; stroke-width: 0.8"/>
      </g>
     </g>
     <g id="text_7">
      <!-- 0.2 -->
      <g transform="translate(24.816875 156.262756)scale(0.1 -0.1)">
       <use xlink:href="#DejaVuSans-30"/>
       <use xlink:href="#DejaVuSans-2e" x="63.623047"/>
       <use xlink:href="#DejaVuSans-32" x="95.410156"/>
      </g>
     </g>
    </g>
    <g id="ytick_2">
     <g id="line2d_7">
      <g>
       <use xlink:href="#mb5e53f4912" x="47.72" y="120.668798" style="stroke: #000000; stroke-width: 0.8"/>
      </g>
     </g>
     <g id="text_8">
      <!-- 0.4 -->
      <g transform="translate(24.816875 124.468017)scale(0.1 -0.1)">
       <defs>
        <path id="DejaVuSans-34" d="M 2419 4116 
L 825 1625 
L 2419 1625 
L 2419 4116 
z
M 2253 4666 
L 3047 4666 
L 3047 1625 
L 3713 1625 
L 3713 1100 
L 3047 1100 
L 3047 0 
L 2419 0 
L 2419 1100 
L 313 1100 
L 313 1709 
L 2253 4666 
z
" transform="scale(0.015625)"/>
       </defs>
       <use xlink:href="#DejaVuSans-30"/>
       <use xlink:href="#DejaVuSans-2e" x="63.623047"/>
       <use xlink:href="#DejaVuSans-34" x="95.410156"/>
      </g>
     </g>
    </g>
    <g id="ytick_3">
     <g id="line2d_8">
      <g>
       <use xlink:href="#mb5e53f4912" x="47.72" y="88.874059" style="stroke: #000000; stroke-width: 0.8"/>
      </g>
     </g>
     <g id="text_9">
      <!-- 0.6 -->
      <g transform="translate(24.816875 92.673278)scale(0.1 -0.1)">
       <defs>
        <path id="DejaVuSans-36" d="M 2113 2584 
Q 1688 2584 1439 2293 
Q 1191 2003 1191 1497 
Q 1191 994 1439 701 
Q 1688 409 2113 409 
Q 2538 409 2786 701 
Q 3034 994 3034 1497 
Q 3034 2003 2786 2293 
Q 2538 2584 2113 2584 
z
M 3366 4563 
L 3366 3988 
Q 3128 4100 2886 4159 
Q 2644 4219 2406 4219 
Q 1781 4219 1451 3797 
Q 1122 3375 1075 2522 
Q 1259 2794 1537 2939 
Q 1816 3084 2150 3084 
Q 2853 3084 3261 2657 
Q 3669 2231 3669 1497 
Q 3669 778 3244 343 
Q 2819 -91 2113 -91 
Q 1303 -91 875 529 
Q 447 1150 447 2328 
Q 447 3434 972 4092 
Q 1497 4750 2381 4750 
Q 2619 4750 2861 4703 
Q 3103 4656 3366 4563 
z
" transform="scale(0.015625)"/>
       </defs>
       <use xlink:href="#DejaVuSans-30"/>
       <use xlink:href="#DejaVuSans-2e" x="63.623047"/>
       <use xlink:href="#DejaVuSans-36" x="95.410156"/>
      </g>
     </g>
    </g>
    <g id="ytick_4">
     <g id="line2d_9">
      <g>
       <use xlink:href="#mb5e53f4912" x="47.72" y="57.07932" style="stroke: #000000; stroke-width: 0.8"/>
      </g>
     </g>
     <g id="text_10">
      <!-- 0.8 -->
      <g transform="translate(24.816875 60.878539)scale(0.1 -0.1)">
       <defs>
        <path id="DejaVuSans-38" d="M 2034 2216 
Q 1584 2216 1326 1975 
Q 1069 1734 1069 1313 
Q 1069 891 1326 650 
Q 1584 409 2034 409 
Q 2484 409 2743 651 
Q 3003 894 3003 1313 
Q 3003 1734 2745 1975 
Q 2488 2216 2034 2216 
z
M 1403 2484 
Q 997 2584 770 2862 
Q 544 3141 544 3541 
Q 544 4100 942 4425 
Q 1341 4750 2034 4750 
Q 2731 4750 3128 4425 
Q 3525 4100 3525 3541 
Q 3525 3141 3298 2862 
Q 3072 2584 2669 2484 
Q 3125 2378 3379 2068 
Q 3634 1759 3634 1313 
Q 3634 634 3220 271 
Q 2806 -91 2034 -91 
Q 1263 -91 848 271 
Q 434 634 434 1313 
Q 434 1759 690 2068 
Q 947 2378 1403 2484 
z
M 1172 3481 
Q 1172 3119 1398 2916 
Q 1625 2713 2034 2713 
Q 2441 2713 2670 2916 
Q 2900 3119 2900 3481 
Q 2900 3844 2670 4047 
Q 2441 4250 2034 4250 
Q 1625 4250 1398 4047 
Q 1172 3844 1172 3481 
z
" transform="scale(0.015625)"/>
       </defs>
       <use xlink:href="#DejaVuSans-30"/>
       <use xlink:href="#DejaVuSans-2e" x="63.623047"/>
       <use xlink:href="#DejaVuSans-38" x="95.410156"/>
      </g>
     </g>
    </g>
    <g id="text_11">
     <!-- R-value -->
     <g transform="translate(18.737188 119.064687)rotate(-90)scale(0.1 -0.1)">
      <defs>
       <path id="DejaVuSans-52" d="M 2841 2188 
Q 3044 2119 3236 1894 
Q 3428 1669 3622 1275 
L 4263 0 
L 3584 0 
L 2988 1197 
Q 2756 1666 2539 1819 
Q 2322 1972 1947 1972 
L 1259 1972 
L 1259 0 
L 628 0 
L 628 4666 
L 2053 4666 
Q 2853 4666 3247 4331 
Q 3641 3997 3641 3322 
Q 3641 2881 3436 2590 
Q 3231 2300 2841 2188 
z
M 1259 4147 
L 1259 2491 
L 2053 2491 
Q 2509 2491 2742 2702 
Q 2975 2913 2975 3322 
Q 2975 3731 2742 3939 
Q 2509 4147 2053 4147 
L 1259 4147 
z
" transform="scale(0.015625)"/>
       <path id="DejaVuSans-2d" d="M 313 2009 
L 1997 2009 
L 1997 1497 
L 313 1497 
L 313 2009 
z
" transform="scale(0.015625)"/>
       <path id="DejaVuSans-76" d="M 191 3500 
L 800 3500 
L 1894 563 
L 2988 3500 
L 3597 3500 
L 2284 0 
L 1503 0 
L 191 3500 
z
" transform="scale(0.015625)"/>
      </defs>
      <use xlink:href="#DejaVuSans-52"/>
      <use xlink:href="#DejaVuSans-2d" x="65.482422"/>
      <use xlink:href="#DejaVuSans-76" x="98.941406"/>
      <use xlink:href="#DejaVuSans-61" x="158.121094"/>
      <use xlink:href="#DejaVuSans-6c" x="219.400391"/>
      <use xlink:href="#DejaVuSans-75" x="247.183594"/>
      <use xlink:href="#DejaVuSans-65" x="310.5625"/>
     </g>
    </g>
   </g>
   <g id="line2d_10">
    <path d="M 47.72 34.016234 
L 59.167105 36.026807 
L 70.614211 41.605779 
L 82.061316 48.86094 
L 93.508421 57.676993 
L 104.955526 66.991275 
L 116.402632 77.049483 
L 127.849737 86.954308 
L 139.296842 96.082831 
L 150.743947 104.750715 
L 162.191053 112.158258 
L 173.638158 119.046813 
L 185.085263 125.418706 
L 196.532368 131.018391 
L 207.979474 135.612039 
L 219.426579 139.887139 
L 230.873684 143.753203 
L 242.320789 147.397355 
L 253.767895 149.848934 
L 265.215 152.540975 
" clip-path="url(#p809877091a)" style="fill: none; stroke: #1f77b4; stroke-width: 1.5; stroke-linecap: square"/>
   </g>
   <g id="line2d_11">
    <path d="M 47.72 34.027362 
L 59.167105 35.311801 
L 70.614211 38.18982 
L 82.061316 42.48033 
L 93.508421 48.234732 
L 104.955526 55.150934 
L 116.402632 63.321194 
L 127.849737 71.635029 
L 139.296842 80.258733 
L 150.743947 88.407891 
L 162.191053 95.979929 
L 173.638158 102.882933 
L 185.085263 109.77721 
L 196.532368 115.941092 
L 207.979474 121.264602 
L 219.426579 126.690649 
L 230.873684 131.29126 
L 242.320789 136.220635 
L 253.767895 139.397676 
L 265.215 142.984179 
" clip-path="url(#p809877091a)" style="fill: none; stroke: #ff7f0e; stroke-width: 1.5; stroke-linecap: square"/>
   </g>
   <g id="line2d_12">
    <path d="M 47.72 34.029832 
L 59.167105 35.595768 
L 70.614211 38.183228 
L 82.061316 41.243381 
L 93.508421 45.028 
L 104.955526 49.193819 
L 116.402632 53.771312 
L 127.849737 58.416025 
L 139.296842 63.239634 
L 150.743947 67.905147 
L 162.191053 71.993107 
L 173.638158 76.203784 
L 185.085263 80.584579 
L 196.532368 84.991716 
L 207.979474 88.747855 
L 219.426579 93.644681 
L 230.873684 97.263979 
L 242.320789 101.818043 
L 253.767895 105.073765 
L 265.215 109.393616 
" clip-path="url(#p809877091a)" style="fill: none; stroke: #2ca02c; stroke-width: 1.5; stroke-linecap: square"/>
   </g>
   <g id="line2d_13">
    <path d="M 47.72 34.039384 
L 59.167105 35.265898 
L 70.614211 37.149219 
L 82.061316 39.616361 
L 93.508421 42.839037 
L 104.955526 46.74383 
L 116.402632 51.197036 
L 127.849737 55.938356 
L 139.296842 61.1552 
L 150.743947 65.959403 
L 162.191053 70.423779 
L 173.638158 74.842846 
L 185.085263 79.374754 
L 196.532368 83.936338 
L 207.979474 87.653727 
L 219.426579 92.42732 
L 230.873684 95.924185 
L 242.320789 100.249414 
L 253.767895 103.341176 
L 265.215 107.349172 
" clip-path="url(#p809877091a)" style="fill: none; stroke: #d62728; stroke-width: 1.5; stroke-linecap: square"/>
   </g>
   <g id="line2d_14">
    <path d="M 47.72 34.035952 
L 59.167105 36.04286 
L 70.614211 41.657567 
L 82.061316 48.849543 
L 93.508421 57.72144 
L 104.955526 67.144452 
L 116.402632 77.17133 
L 127.849737 87.037026 
L 139.296842 96.04239 
L 150.743947 104.615317 
L 162.191053 112.536068 
L 173.638158 119.418865 
L 185.085263 125.515982 
L 196.532368 131.525047 
L 207.979474 136.317678 
L 219.426579 140.688305 
L 230.873684 143.389803 
L 242.320789 148.206669 
L 253.767895 151.468742 
L 265.215 153.859989 
" clip-path="url(#p809877091a)" style="fill: none; stroke: #9467bd; stroke-width: 1.5; stroke-linecap: square"/>
   </g>
   <g id="line2d_15">
    <path d="M 47.72 34.046654 
L 59.167105 35.324336 
L 70.614211 38.21997 
L 82.061316 42.493895 
L 93.508421 48.259109 
L 104.955526 55.24079 
L 116.402632 63.377503 
L 127.849737 71.775525 
L 139.296842 80.262105 
L 150.743947 88.336082 
L 162.191053 96.260413 
L 173.638158 103.118994 
L 185.085263 109.818575 
L 196.532368 116.260165 
L 207.979474 121.824194 
L 219.426579 127.234416 
L 230.873684 131.004086 
L 242.320789 136.91714 
L 253.767895 140.729304 
L 265.215 143.881419 
" clip-path="url(#p809877091a)" style="fill: none; stroke: #8c564b; stroke-width: 1.5; stroke-linecap: square"/>
   </g>
   <g id="line2d_16">
    <path d="M 47.72 45.906994 
L 59.167105 48.471007 
L 70.614211 55.026619 
L 82.061316 63.606632 
L 93.508421 73.737778 
L 104.955526 83.942602 
L 116.402632 94.947333 
L 127.849737 104.884368 
L 139.296842 113.818395 
L 150.743947 122.225268 
L 162.191053 128.877172 
L 173.638158 134.843178 
L 185.085263 140.435455 
L 196.532368 145.355087 
L 207.979474 149.21576 
L 219.426579 152.810127 
L 230.873684 155.883487 
L 242.320789 158.42895 
L 253.767895 160.614312 
L 265.215 162.354066 
" clip-path="url(#p809877091a)" style="fill: none; stroke: #e377c2; stroke-width: 1.5; stroke-linecap: square"/>
   </g>
   <g id="line2d_17">
    <path d="M 47.72 34.038638 
L 59.167105 34.743331 
L 70.614211 35.277528 
L 82.061316 37.093696 
L 93.508421 40.547353 
L 104.955526 45.561943 
L 116.402632 52.171317 
L 127.849737 59.648688 
L 139.296842 67.724943 
L 150.743947 76.005122 
L 162.191053 83.837224 
L 173.638158 91.323188 
L 185.085263 98.554277 
L 196.532368 105.406528 
L 207.979474 111.228783 
L 219.426579 117.468292 
L 230.873684 122.613011 
L 242.320789 128.184337 
L 253.767895 131.839698 
L 265.215 136.152019 
" clip-path="url(#p809877091a)" style="fill: none; stroke: #7f7f7f; stroke-width: 1.5; stroke-linecap: square"/>
   </g>
   <g id="patch_3">
    <path d="M 47.72 174.04 
L 47.72 26.88 
" style="fill: none; stroke: #000000; stroke-width: 0.8; stroke-linejoin: miter; stroke-linecap: square"/>
   </g>
   <g id="patch_4">
    <path d="M 47.72 174.04 
L 265.215 174.04 
" style="fill: none; stroke: #000000; stroke-width: 0.8; stroke-linejoin: miter; stroke-linecap: square"/>
   </g>
   <g id="text_12">
    <!-- Node * surprisal -->
    <g transform="translate(108.18625 20.88)scale(0.12 -0.12)">
     <defs>
      <path id="DejaVuSans-4e" d="M 628 4666 
L 1478 4666 
L 3547 763 
L 3547 4666 
L 4159 4666 
L 4159 0 
L 3309 0 
L 1241 3903 
L 1241 0 
L 628 0 
L 628 4666 
z
" transform="scale(0.015625)"/>
      <path id="DejaVuSans-64" d="M 2906 2969 
L 2906 4863 
L 3481 4863 
L 3481 0 
L 2906 0 
L 2906 525 
Q 2725 213 2448 61 
Q 2172 -91 1784 -91 
Q 1150 -91 751 415 
Q 353 922 353 1747 
Q 353 2572 751 3078 
Q 1150 3584 1784 3584 
Q 2172 3584 2448 3432 
Q 2725 3281 2906 2969 
z
M 947 1747 
Q 947 1113 1208 752 
Q 1469 391 1925 391 
Q 2381 391 2643 752 
Q 2906 1113 2906 1747 
Q 2906 2381 2643 2742 
Q 2381 3103 1925 3103 
Q 1469 3103 1208 2742 
Q 947 2381 947 1747 
z
" transform="scale(0.015625)"/>
      <path id="DejaVuSans-2a" d="M 3009 3897 
L 1888 3291 
L 3009 2681 
L 2828 2375 
L 1778 3009 
L 1778 1831 
L 1422 1831 
L 1422 3009 
L 372 2375 
L 191 2681 
L 1313 3291 
L 191 3897 
L 372 4206 
L 1422 3572 
L 1422 4750 
L 1778 4750 
L 1778 3572 
L 2828 4206 
L 3009 3897 
z
" transform="scale(0.015625)"/>
     </defs>
     <use xlink:href="#DejaVuSans-4e"/>
     <use xlink:href="#DejaVuSans-6f" x="74.804688"/>
     <use xlink:href="#DejaVuSans-64" x="135.986328"/>
     <use xlink:href="#DejaVuSans-65" x="199.462891"/>
     <use xlink:href="#DejaVuSans-20" x="260.986328"/>
     <use xlink:href="#DejaVuSans-2a" x="292.773438"/>
     <use xlink:href="#DejaVuSans-20" x="342.773438"/>
     <use xlink:href="#DejaVuSans-73" x="374.560547"/>
     <use xlink:href="#DejaVuSans-75" x="426.660156"/>
     <use xlink:href="#DejaVuSans-72" x="490.039062"/>
     <use xlink:href="#DejaVuSans-70" x="531.152344"/>
     <use xlink:href="#DejaVuSans-72" x="594.628906"/>
     <use xlink:href="#DejaVuSans-69" x="635.742188"/>
     <use xlink:href="#DejaVuSans-73" x="663.525391"/>
     <use xlink:href="#DejaVuSans-61" x="715.625"/>
     <use xlink:href="#DejaVuSans-6c" x="776.904297"/>
    </g>
   </g>
  </g>
  <g id="axes_2">
   <g id="patch_5">
    <path d="M 298.065 174.04 
L 515.56 174.04 
L 515.56 26.88 
L 298.065 26.88 
z
" style="fill: #ffffff"/>
   </g>
   <g id="PolyCollection_9">
    <path d="M 298.065 33.569091 
L 298.065 34.392153 
L 309.512105 36.425132 
L 320.959211 42.517914 
L 332.406316 50.520284 
L 343.853421 60.829661 
L 355.300526 70.51471 
L 366.747632 81.163943 
L 378.194737 91.378594 
L 389.641842 101.017253 
L 401.088947 107.846943 
L 412.536053 117.341835 
L 423.983158 122.966511 
L 435.430263 129.318582 
L 446.877368 134.697959 
L 458.324474 140.244905 
L 469.771579 144.540379 
L 481.218684 147.565265 
L 492.665789 150.962505 
L 504.112895 154.170834 
L 515.56 156.987085 
L 515.56 148.727647 
L 515.56 148.727647 
L 504.112895 146.159185 
L 492.665789 142.246018 
L 481.218684 137.907184 
L 469.771579 133.676544 
L 458.324474 129.040692 
L 446.877368 124.644289 
L 435.430263 118.807588 
L 423.983158 113.770565 
L 412.536053 107.040793 
L 401.088947 99.059098 
L 389.641842 91.355933 
L 378.194737 82.286143 
L 366.747632 72.234506 
L 355.300526 63.026401 
L 343.853421 53.653263 
L 332.406316 45.746787 
L 320.959211 40.215275 
L 309.512105 35.29978 
L 298.065 33.569091 
z
" clip-path="url(#pfb4196d761)" style="fill: #1f77b4; fill-opacity: 0.4"/>
   </g>
   <g id="PolyCollection_10">
    <path d="M 298.065 33.581535 
L 298.065 34.399369 
L 309.512105 36.448522 
L 320.959211 42.548167 
L 332.406316 50.560224 
L 343.853421 60.88672 
L 355.300526 70.612873 
L 366.747632 81.290073 
L 378.194737 91.608772 
L 389.641842 101.202333 
L 401.088947 108.050544 
L 412.536053 117.481668 
L 423.983158 123.092158 
L 435.430263 129.329799 
L 446.877368 134.715718 
L 458.324474 140.219152 
L 469.771579 144.739834 
L 481.218684 147.763972 
L 492.665789 150.964893 
L 504.112895 154.450969 
L 515.56 157.032344 
L 515.56 149.031288 
L 515.56 149.031288 
L 504.112895 146.388518 
L 492.665789 142.572873 
L 481.218684 138.286249 
L 469.771579 133.928445 
L 458.324474 129.275751 
L 446.877368 124.895814 
L 435.430263 119.047453 
L 423.983158 113.943663 
L 412.536053 107.180213 
L 401.088947 99.131236 
L 389.641842 91.385352 
L 378.194737 82.260637 
L 366.747632 72.242516 
L 355.300526 63.00708 
L 343.853421 53.654209 
L 332.406316 45.765423 
L 320.959211 40.236893 
L 309.512105 35.308502 
L 298.065 33.581535 
z
" clip-path="url(#pfb4196d761)" style="fill: #ff7f0e; fill-opacity: 0.4"/>
   </g>
   <g id="PolyCollection_11">
    <path d="M 298.065 33.581613 
L 298.065 34.404873 
L 309.512105 36.430501 
L 320.959211 42.539215 
L 332.406316 50.533086 
L 343.853421 60.864219 
L 355.300526 70.53084 
L 366.747632 81.195295 
L 378.194737 91.509545 
L 389.641842 101.231922 
L 401.088947 108.029951 
L 412.536053 117.536866 
L 423.983158 123.281883 
L 435.430263 129.547012 
L 446.877368 134.955746 
L 458.324474 140.359672 
L 469.771579 144.570103 
L 481.218684 147.647302 
L 492.665789 151.062097 
L 504.112895 154.412268 
L 515.56 157.188462 
L 515.56 148.407616 
L 515.56 148.407616 
L 504.112895 145.790149 
L 492.665789 141.927742 
L 481.218684 138.03901 
L 469.771579 133.932688 
L 458.324474 129.267685 
L 446.877368 125.043291 
L 435.430263 119.210248 
L 423.983158 114.200829 
L 412.536053 107.462247 
L 401.088947 99.352446 
L 389.641842 91.616665 
L 378.194737 82.575016 
L 366.747632 72.436998 
L 355.300526 63.210399 
L 343.853421 53.777573 
L 332.406316 45.845919 
L 320.959211 40.281908 
L 309.512105 35.316807 
L 298.065 33.581613 
z
" clip-path="url(#pfb4196d761)" style="fill: #2ca02c; fill-opacity: 0.4"/>
   </g>
   <g id="PolyCollection_12">
    <path d="M 298.065 33.594667 
L 298.065 34.414231 
L 309.512105 36.453155 
L 320.959211 42.557321 
L 332.406316 50.565082 
L 343.853421 60.89701 
L 355.300526 70.609756 
L 366.747632 81.276527 
L 378.194737 91.671063 
L 389.641842 101.316664 
L 401.088947 108.077599 
L 412.536053 117.552946 
L 423.983158 123.179053 
L 435.430263 129.380752 
L 446.877368 134.796269 
L 458.324474 140.231087 
L 469.771579 144.582581 
L 481.218684 147.759943 
L 492.665789 151.119218 
L 504.112895 154.789585 
L 515.56 157.634489 
L 515.56 148.97779 
L 515.56 148.97779 
L 504.112895 146.381259 
L 492.665789 142.596577 
L 481.218684 138.655115 
L 469.771579 134.568577 
L 458.324474 129.848762 
L 446.877368 125.666068 
L 435.430263 119.740731 
L 423.983158 114.655338 
L 412.536053 107.8375 
L 401.088947 99.608472 
L 389.641842 91.742159 
L 378.194737 82.606771 
L 366.747632 72.480938 
L 355.300526 63.221558 
L 343.853421 53.789847 
L 332.406316 45.859924 
L 320.959211 40.291646 
L 309.512105 35.328898 
L 298.065 33.594667 
z
" clip-path="url(#pfb4196d761)" style="fill: #d62728; fill-opacity: 0.4"/>
   </g>
   <g id="PolyCollection_13">
    <path d="M 298.065 33.578156 
L 298.065 34.398501 
L 309.512105 36.452728 
L 320.959211 42.556724 
L 332.406316 50.616927 
L 343.853421 60.888372 
L 355.300526 70.855241 
L 366.747632 81.245996 
L 378.194737 91.386876 
L 389.641842 101.301426 
L 401.088947 107.861468 
L 412.536053 117.245656 
L 423.983158 123.06167 
L 435.430263 129.115072 
L 446.877368 135.308315 
L 458.324474 140.511755 
L 469.771579 144.82542 
L 481.218684 149.216242 
L 492.665789 151.09684 
L 504.112895 154.045041 
L 515.56 157.370557 
L 515.56 149.635138 
L 515.56 149.635138 
L 504.112895 146.483114 
L 492.665789 142.414753 
L 481.218684 138.961998 
L 469.771579 133.432613 
L 458.324474 129.798912 
L 446.877368 125.294517 
L 435.430263 119.088353 
L 423.983158 114.729223 
L 412.536053 107.07126 
L 401.088947 99.312535 
L 389.641842 91.52109 
L 378.194737 82.321958 
L 366.747632 72.407273 
L 355.300526 63.164781 
L 343.853421 53.659895 
L 332.406316 45.761091 
L 320.959211 40.220616 
L 309.512105 35.314399 
L 298.065 33.578156 
z
" clip-path="url(#pfb4196d761)" style="fill: #9467bd; fill-opacity: 0.4"/>
   </g>
   <g id="PolyCollection_14">
    <path d="M 298.065 33.589668 
L 298.065 34.405896 
L 309.512105 36.476917 
L 320.959211 42.588474 
L 332.406316 50.657851 
L 343.853421 60.944455 
L 355.300526 70.977155 
L 366.747632 81.376981 
L 378.194737 91.610472 
L 389.641842 101.533159 
L 401.088947 108.07042 
L 412.536053 117.396137 
L 423.983158 123.197229 
L 435.430263 129.173653 
L 446.877368 135.3433 
L 458.324474 140.523165 
L 469.771579 145.054782 
L 481.218684 149.396515 
L 492.665789 151.152838 
L 504.112895 154.270757 
L 515.56 157.415622 
L 515.56 149.932416 
L 515.56 149.932416 
L 504.112895 146.761622 
L 492.665789 142.694134 
L 481.218684 139.288615 
L 469.771579 133.72826 
L 458.324474 129.983663 
L 446.877368 125.559178 
L 435.430263 119.27571 
L 423.983158 114.928514 
L 412.536053 107.20469 
L 401.088947 99.398681 
L 389.641842 91.539628 
L 378.194737 82.317715 
L 366.747632 72.421318 
L 355.300526 63.146247 
L 343.853421 53.658343 
L 332.406316 45.780779 
L 320.959211 40.239354 
L 309.512105 35.32392 
L 298.065 33.589668 
z
" clip-path="url(#pfb4196d761)" style="fill: #8c564b; fill-opacity: 0.4"/>
   </g>
   <g id="PolyCollection_15">
    <path d="M 298.065 44.256959 
L 298.065 47.364574 
L 309.512105 49.565703 
L 320.959211 54.825132 
L 332.406316 62.363553 
L 343.853421 71.707166 
L 355.300526 81.093046 
L 366.747632 91.288335 
L 378.194737 100.941814 
L 389.641842 110.350642 
L 401.088947 116.282433 
L 412.536053 124.783459 
L 423.983158 129.865263 
L 435.430263 135.304925 
L 446.877368 140.635036 
L 458.324474 145.109093 
L 469.771579 148.922281 
L 481.218684 151.851157 
L 492.665789 154.644093 
L 504.112895 157.562574 
L 515.56 159.947536 
L 515.56 152.781325 
L 515.56 152.781325 
L 504.112895 150.126828 
L 492.665789 146.475317 
L 481.218684 142.492919 
L 469.771579 138.639239 
L 458.324474 133.65867 
L 446.877368 129.592556 
L 435.430263 123.967282 
L 423.983158 118.799401 
L 412.536053 112.161625 
L 401.088947 104.957637 
L 389.641842 97.185133 
L 378.194737 89.070624 
L 366.747632 79.609253 
L 355.300526 71.398976 
L 343.853421 62.810503 
L 332.406316 55.546212 
L 320.959211 50.659717 
L 309.512105 45.918878 
L 298.065 44.256959 
z
" clip-path="url(#pfb4196d761)" style="fill: #e377c2; fill-opacity: 0.4"/>
   </g>
   <g id="PolyCollection_16">
    <path d="M 298.065 33.591521 
L 298.065 34.408288 
L 309.512105 36.444723 
L 320.959211 42.571596 
L 332.406316 50.565993 
L 343.853421 60.885127 
L 355.300526 70.608925 
L 366.747632 81.309935 
L 378.194737 91.750926 
L 389.641842 101.360753 
L 401.088947 108.281185 
L 412.536053 117.802947 
L 423.983158 123.461854 
L 435.430263 129.638251 
L 446.877368 135.158575 
L 458.324474 140.671141 
L 469.771579 144.957549 
L 481.218684 148.185987 
L 492.665789 151.342075 
L 504.112895 154.847508 
L 515.56 157.249355 
L 515.56 150.261384 
L 515.56 150.261384 
L 504.112895 147.304285 
L 492.665789 143.230138 
L 481.218684 139.087677 
L 469.771579 134.528363 
L 458.324474 129.665952 
L 446.877368 125.210709 
L 435.430263 119.267004 
L 423.983158 114.02271 
L 412.536053 107.26492 
L 401.088947 99.172112 
L 389.641842 91.518443 
L 378.194737 82.427927 
L 366.747632 72.378191 
L 355.300526 63.11657 
L 343.853421 53.804009 
L 332.406316 45.876241 
L 320.959211 40.265107 
L 309.512105 35.329049 
L 298.065 33.591521 
z
" clip-path="url(#pfb4196d761)" style="fill: #7f7f7f; fill-opacity: 0.4"/>
   </g>
   <g id="matplotlib.axis_3">
    <g id="xtick_6">
     <g id="line2d_18">
      <g>
       <use xlink:href="#md7b6a4d131" x="298.065" y="174.04" style="stroke: #000000; stroke-width: 0.8"/>
      </g>
     </g>
     <g id="text_13">
      <!-- 0.0 -->
      <g transform="translate(290.113437 188.638438)scale(0.1 -0.1)">
       <use xlink:href="#DejaVuSans-30"/>
       <use xlink:href="#DejaVuSans-2e" x="63.623047"/>
       <use xlink:href="#DejaVuSans-30" x="95.410156"/>
      </g>
     </g>
    </g>
    <g id="xtick_7">
     <g id="line2d_19">
      <g>
       <use xlink:href="#md7b6a4d131" x="352.43875" y="174.04" style="stroke: #000000; stroke-width: 0.8"/>
      </g>
     </g>
     <g id="text_14">
      <!-- 0.5 -->
      <g transform="translate(344.487187 188.638438)scale(0.1 -0.1)">
       <use xlink:href="#DejaVuSans-30"/>
       <use xlink:href="#DejaVuSans-2e" x="63.623047"/>
       <use xlink:href="#DejaVuSans-35" x="95.410156"/>
      </g>
     </g>
    </g>
    <g id="xtick_8">
     <g id="line2d_20">
      <g>
       <use xlink:href="#md7b6a4d131" x="406.8125" y="174.04" style="stroke: #000000; stroke-width: 0.8"/>
      </g>
     </g>
     <g id="text_15">
      <!-- 1.0 -->
      <g transform="translate(398.860937 188.638438)scale(0.1 -0.1)">
       <use xlink:href="#DejaVuSans-31"/>
       <use xlink:href="#DejaVuSans-2e" x="63.623047"/>
       <use xlink:href="#DejaVuSans-30" x="95.410156"/>
      </g>
     </g>
    </g>
    <g id="xtick_9">
     <g id="line2d_21">
      <g>
       <use xlink:href="#md7b6a4d131" x="461.18625" y="174.04" style="stroke: #000000; stroke-width: 0.8"/>
      </g>
     </g>
     <g id="text_16">
      <!-- 1.5 -->
      <g transform="translate(453.234687 188.638438)scale(0.1 -0.1)">
       <use xlink:href="#DejaVuSans-31"/>
       <use xlink:href="#DejaVuSans-2e" x="63.623047"/>
       <use xlink:href="#DejaVuSans-35" x="95.410156"/>
      </g>
     </g>
    </g>
    <g id="xtick_10">
     <g id="line2d_22">
      <g>
       <use xlink:href="#md7b6a4d131" x="515.56" y="174.04" style="stroke: #000000; stroke-width: 0.8"/>
      </g>
     </g>
     <g id="text_17">
      <!-- 2.0 -->
      <g transform="translate(507.608437 188.638438)scale(0.1 -0.1)">
       <use xlink:href="#DejaVuSans-32"/>
       <use xlink:href="#DejaVuSans-2e" x="63.623047"/>
       <use xlink:href="#DejaVuSans-30" x="95.410156"/>
      </g>
     </g>
    </g>
    <g id="text_18">
     <!-- Influence of surprisal (multiplication) -->
     <g transform="translate(314.665625 202.316563)scale(0.1 -0.1)">
      <use xlink:href="#DejaVuSans-49"/>
      <use xlink:href="#DejaVuSans-6e" x="29.492188"/>
      <use xlink:href="#DejaVuSans-66" x="92.871094"/>
      <use xlink:href="#DejaVuSans-6c" x="128.076172"/>
      <use xlink:href="#DejaVuSans-75" x="155.859375"/>
      <use xlink:href="#DejaVuSans-65" x="219.238281"/>
      <use xlink:href="#DejaVuSans-6e" x="280.761719"/>
      <use xlink:href="#DejaVuSans-63" x="344.140625"/>
      <use xlink:href="#DejaVuSans-65" x="399.121094"/>
      <use xlink:href="#DejaVuSans-20" x="460.644531"/>
      <use xlink:href="#DejaVuSans-6f" x="492.431641"/>
      <use xlink:href="#DejaVuSans-66" x="553.613281"/>
      <use xlink:href="#DejaVuSans-20" x="588.818359"/>
      <use xlink:href="#DejaVuSans-73" x="620.605469"/>
      <use xlink:href="#DejaVuSans-75" x="672.705078"/>
      <use xlink:href="#DejaVuSans-72" x="736.083984"/>
      <use xlink:href="#DejaVuSans-70" x="777.197266"/>
      <use xlink:href="#DejaVuSans-72" x="840.673828"/>
      <use xlink:href="#DejaVuSans-69" x="881.787109"/>
      <use xlink:href="#DejaVuSans-73" x="909.570312"/>
      <use xlink:href="#DejaVuSans-61" x="961.669922"/>
      <use xlink:href="#DejaVuSans-6c" x="1022.949219"/>
      <use xlink:href="#DejaVuSans-20" x="1050.732422"/>
      <use xlink:href="#DejaVuSans-28" x="1082.519531"/>
      <use xlink:href="#DejaVuSans-6d" x="1121.533203"/>
      <use xlink:href="#DejaVuSans-75" x="1218.945312"/>
      <use xlink:href="#DejaVuSans-6c" x="1282.324219"/>
      <use xlink:href="#DejaVuSans-74" x="1310.107422"/>
      <use xlink:href="#DejaVuSans-69" x="1349.316406"/>
      <use xlink:href="#DejaVuSans-70" x="1377.099609"/>
      <use xlink:href="#DejaVuSans-6c" x="1440.576172"/>
      <use xlink:href="#DejaVuSans-69" x="1468.359375"/>
      <use xlink:href="#DejaVuSans-63" x="1496.142578"/>
      <use xlink:href="#DejaVuSans-61" x="1551.123047"/>
      <use xlink:href="#DejaVuSans-74" x="1612.402344"/>
      <use xlink:href="#DejaVuSans-69" x="1651.611328"/>
      <use xlink:href="#DejaVuSans-6f" x="1679.394531"/>
      <use xlink:href="#DejaVuSans-6e" x="1740.576172"/>
      <use xlink:href="#DejaVuSans-29" x="1803.955078"/>
     </g>
    </g>
   </g>
   <g id="line2d_23">
    <path d="M 298.065 33.980622 
L 309.512105 35.862456 
L 320.959211 41.366594 
L 332.406316 48.133536 
L 343.853421 57.241462 
L 355.300526 66.770556 
L 366.747632 76.699224 
L 378.194737 86.832369 
L 389.641842 96.186593 
L 401.088947 103.453021 
L 412.536053 112.191314 
L 423.983158 118.368538 
L 435.430263 124.063085 
L 446.877368 129.671124 
L 458.324474 134.642799 
L 469.771579 139.108462 
L 481.218684 142.736224 
L 492.665789 146.604262 
L 504.112895 150.165009 
L 515.56 152.857366 
" clip-path="url(#pfb4196d761)" style="fill: none; stroke: #1f77b4; stroke-width: 1.5; stroke-linecap: square"/>
   </g>
   <g id="line2d_24">
    <path d="M 298.065 33.990452 
L 309.512105 35.878512 
L 320.959211 41.39253 
L 332.406316 48.162824 
L 343.853421 57.270464 
L 355.300526 66.809976 
L 366.747632 76.766295 
L 378.194737 86.934705 
L 389.641842 96.293843 
L 401.088947 103.59089 
L 412.536053 112.33094 
L 423.983158 118.517911 
L 435.430263 124.188626 
L 446.877368 129.805766 
L 458.324474 134.747451 
L 469.771579 139.334139 
L 481.218684 143.02511 
L 492.665789 146.768883 
L 504.112895 150.419744 
L 515.56 153.031816 
" clip-path="url(#pfb4196d761)" style="fill: none; stroke: #ff7f0e; stroke-width: 1.5; stroke-linecap: square"/>
   </g>
   <g id="line2d_25">
    <path d="M 298.065 33.993243 
L 309.512105 35.873654 
L 320.959211 41.410561 
L 332.406316 48.189502 
L 343.853421 57.320896 
L 355.300526 66.87062 
L 366.747632 76.816146 
L 378.194737 87.04228 
L 389.641842 96.424294 
L 401.088947 103.691198 
L 412.536053 112.499557 
L 423.983158 118.741356 
L 435.430263 124.37863 
L 446.877368 129.999518 
L 458.324474 134.813679 
L 469.771579 139.251396 
L 481.218684 142.843156 
L 492.665789 146.49492 
L 504.112895 150.101208 
L 515.56 152.798039 
" clip-path="url(#pfb4196d761)" style="fill: none; stroke: #2ca02c; stroke-width: 1.5; stroke-linecap: square"/>
   </g>
   <g id="line2d_26">
    <path d="M 298.065 34.004449 
L 309.512105 35.891027 
L 320.959211 41.424484 
L 332.406316 48.212503 
L 343.853421 57.343429 
L 355.300526 66.915657 
L 366.747632 76.878733 
L 378.194737 87.138917 
L 389.641842 96.529411 
L 401.088947 103.843035 
L 412.536053 112.695223 
L 423.983158 118.917196 
L 435.430263 124.560742 
L 446.877368 130.231168 
L 458.324474 135.039925 
L 469.771579 139.575579 
L 481.218684 143.207529 
L 492.665789 146.857898 
L 504.112895 150.585422 
L 515.56 153.306139 
" clip-path="url(#pfb4196d761)" style="fill: none; stroke: #d62728; stroke-width: 1.5; stroke-linecap: square"/>
   </g>
   <g id="line2d_27">
    <path d="M 298.065 33.988329 
L 309.512105 35.883563 
L 320.959211 41.38867 
L 332.406316 48.189009 
L 343.853421 57.274134 
L 355.300526 67.010011 
L 366.747632 76.826635 
L 378.194737 86.854417 
L 389.641842 96.411258 
L 401.088947 103.587002 
L 412.536053 112.158458 
L 423.983158 118.895446 
L 435.430263 124.101713 
L 446.877368 130.301416 
L 458.324474 135.155333 
L 469.771579 139.129016 
L 481.218684 144.08912 
L 492.665789 146.755796 
L 504.112895 150.264077 
L 515.56 153.502847 
" clip-path="url(#pfb4196d761)" style="fill: none; stroke: #9467bd; stroke-width: 1.5; stroke-linecap: square"/>
   </g>
   <g id="line2d_28">
    <path d="M 298.065 33.997782 
L 309.512105 35.900418 
L 320.959211 41.413914 
L 332.406316 48.219315 
L 343.853421 57.301399 
L 355.300526 67.061701 
L 366.747632 76.899149 
L 378.194737 86.964093 
L 389.641842 96.536394 
L 401.088947 103.734551 
L 412.536053 112.300414 
L 423.983158 119.062872 
L 435.430263 124.224682 
L 446.877368 130.451239 
L 458.324474 135.253414 
L 469.771579 139.391521 
L 481.218684 144.342565 
L 492.665789 146.923486 
L 504.112895 150.51619 
L 515.56 153.674019 
" clip-path="url(#pfb4196d761)" style="fill: none; stroke: #8c564b; stroke-width: 1.5; stroke-linecap: square"/>
   </g>
   <g id="line2d_29">
    <path d="M 298.065 45.810767 
L 309.512105 47.742291 
L 320.959211 52.742424 
L 332.406316 58.954882 
L 343.853421 67.258835 
L 355.300526 76.246011 
L 366.747632 85.448794 
L 378.194737 95.006219 
L 389.641842 103.767887 
L 401.088947 110.620035 
L 412.536053 118.472542 
L 423.983158 124.332332 
L 435.430263 129.636104 
L 446.877368 135.113796 
L 458.324474 139.383882 
L 469.771579 143.78076 
L 481.218684 147.172038 
L 492.665789 150.559705 
L 504.112895 153.844701 
L 515.56 156.364431 
" clip-path="url(#pfb4196d761)" style="fill: none; stroke: #e377c2; stroke-width: 1.5; stroke-linecap: square"/>
   </g>
   <g id="line2d_30">
    <path d="M 298.065 33.999905 
L 309.512105 35.886886 
L 320.959211 41.418352 
L 332.406316 48.221117 
L 343.853421 57.344568 
L 355.300526 66.862748 
L 366.747632 76.844063 
L 378.194737 87.089426 
L 389.641842 96.439598 
L 401.088947 103.726648 
L 412.536053 112.533933 
L 423.983158 118.742282 
L 435.430263 124.452627 
L 446.877368 130.184642 
L 458.324474 135.168546 
L 469.771579 139.742956 
L 481.218684 143.636832 
L 492.665789 147.286107 
L 504.112895 151.075896 
L 515.56 153.75537 
" clip-path="url(#pfb4196d761)" style="fill: none; stroke: #7f7f7f; stroke-width: 1.5; stroke-linecap: square"/>
   </g>
   <g id="patch_6">
    <path d="M 298.065 174.04 
L 298.065 26.88 
" style="fill: none; stroke: #000000; stroke-width: 0.8; stroke-linejoin: miter; stroke-linecap: square"/>
   </g>
   <g id="patch_7">
    <path d="M 298.065 174.04 
L 515.56 174.04 
" style="fill: none; stroke: #000000; stroke-width: 0.8; stroke-linejoin: miter; stroke-linecap: square"/>
   </g>
   <g id="text_19">
    <!-- Node * third variable -->
    <g transform="translate(344.2325 20.88)scale(0.12 -0.12)">
     <defs>
      <path id="DejaVuSans-68" d="M 3513 2113 
L 3513 0 
L 2938 0 
L 2938 2094 
Q 2938 2591 2744 2837 
Q 2550 3084 2163 3084 
Q 1697 3084 1428 2787 
Q 1159 2491 1159 1978 
L 1159 0 
L 581 0 
L 581 4863 
L 1159 4863 
L 1159 2956 
Q 1366 3272 1645 3428 
Q 1925 3584 2291 3584 
Q 2894 3584 3203 3211 
Q 3513 2838 3513 2113 
z
" transform="scale(0.015625)"/>
      <path id="DejaVuSans-62" d="M 3116 1747 
Q 3116 2381 2855 2742 
Q 2594 3103 2138 3103 
Q 1681 3103 1420 2742 
Q 1159 2381 1159 1747 
Q 1159 1113 1420 752 
Q 1681 391 2138 391 
Q 2594 391 2855 752 
Q 3116 1113 3116 1747 
z
M 1159 2969 
Q 1341 3281 1617 3432 
Q 1894 3584 2278 3584 
Q 2916 3584 3314 3078 
Q 3713 2572 3713 1747 
Q 3713 922 3314 415 
Q 2916 -91 2278 -91 
Q 1894 -91 1617 61 
Q 1341 213 1159 525 
L 1159 0 
L 581 0 
L 581 4863 
L 1159 4863 
L 1159 2969 
z
" transform="scale(0.015625)"/>
     </defs>
     <use xlink:href="#DejaVuSans-4e"/>
     <use xlink:href="#DejaVuSans-6f" x="74.804688"/>
     <use xlink:href="#DejaVuSans-64" x="135.986328"/>
     <use xlink:href="#DejaVuSans-65" x="199.462891"/>
     <use xlink:href="#DejaVuSans-20" x="260.986328"/>
     <use xlink:href="#DejaVuSans-2a" x="292.773438"/>
     <use xlink:href="#DejaVuSans-20" x="342.773438"/>
     <use xlink:href="#DejaVuSans-74" x="374.560547"/>
     <use xlink:href="#DejaVuSans-68" x="413.769531"/>
     <use xlink:href="#DejaVuSans-69" x="477.148438"/>
     <use xlink:href="#DejaVuSans-72" x="504.931641"/>
     <use xlink:href="#DejaVuSans-64" x="544.294922"/>
     <use xlink:href="#DejaVuSans-20" x="607.771484"/>
     <use xlink:href="#DejaVuSans-76" x="639.558594"/>
     <use xlink:href="#DejaVuSans-61" x="698.738281"/>
     <use xlink:href="#DejaVuSans-72" x="760.017578"/>
     <use xlink:href="#DejaVuSans-69" x="801.130859"/>
     <use xlink:href="#DejaVuSans-61" x="828.914062"/>
     <use xlink:href="#DejaVuSans-62" x="890.193359"/>
     <use xlink:href="#DejaVuSans-6c" x="953.669922"/>
     <use xlink:href="#DejaVuSans-65" x="981.453125"/>
    </g>
   </g>
   <g id="legend_1">
    <g id="line2d_31">
     <path d="M 524.56 39.978437 
L 534.56 39.978437 
L 544.56 39.978437 
" style="fill: none; stroke: #1f77b4; stroke-width: 1.5; stroke-linecap: square"/>
    </g>
    <g id="text_20">
     <!-- Node -->
     <g transform="translate(552.56 43.478437)scale(0.1 -0.1)">
      <use xlink:href="#DejaVuSans-4e"/>
      <use xlink:href="#DejaVuSans-6f" x="74.804688"/>
      <use xlink:href="#DejaVuSans-64" x="135.986328"/>
      <use xlink:href="#DejaVuSans-65" x="199.462891"/>
     </g>
    </g>
    <g id="line2d_32">
     <path d="M 524.56 54.656563 
L 534.56 54.656563 
L 544.56 54.656563 
" style="fill: none; stroke: #ff7f0e; stroke-width: 1.5; stroke-linecap: square"/>
    </g>
    <g id="text_21">
     <!-- Node + surprisal -->
     <g transform="translate(552.56 58.156563)scale(0.1 -0.1)">
      <defs>
       <path id="DejaVuSans-2b" d="M 2944 4013 
L 2944 2272 
L 4684 2272 
L 4684 1741 
L 2944 1741 
L 2944 0 
L 2419 0 
L 2419 1741 
L 678 1741 
L 678 2272 
L 2419 2272 
L 2419 4013 
L 2944 4013 
z
" transform="scale(0.015625)"/>
      </defs>
      <use xlink:href="#DejaVuSans-4e"/>
      <use xlink:href="#DejaVuSans-6f" x="74.804688"/>
      <use xlink:href="#DejaVuSans-64" x="135.986328"/>
      <use xlink:href="#DejaVuSans-65" x="199.462891"/>
      <use xlink:href="#DejaVuSans-20" x="260.986328"/>
      <use xlink:href="#DejaVuSans-2b" x="292.773438"/>
      <use xlink:href="#DejaVuSans-20" x="376.5625"/>
      <use xlink:href="#DejaVuSans-73" x="408.349609"/>
      <use xlink:href="#DejaVuSans-75" x="460.449219"/>
      <use xlink:href="#DejaVuSans-72" x="523.828125"/>
      <use xlink:href="#DejaVuSans-70" x="564.941406"/>
      <use xlink:href="#DejaVuSans-72" x="628.417969"/>
      <use xlink:href="#DejaVuSans-69" x="669.53125"/>
      <use xlink:href="#DejaVuSans-73" x="697.314453"/>
      <use xlink:href="#DejaVuSans-61" x="749.414062"/>
      <use xlink:href="#DejaVuSans-6c" x="810.693359"/>
     </g>
    </g>
    <g id="line2d_33">
     <path d="M 524.56 69.334687 
L 534.56 69.334687 
L 544.56 69.334687 
" style="fill: none; stroke: #2ca02c; stroke-width: 1.5; stroke-linecap: square"/>
    </g>
    <g id="text_22">
     <!-- Node split -->
     <g transform="translate(552.56 72.834687)scale(0.1 -0.1)">
      <use xlink:href="#DejaVuSans-4e"/>
      <use xlink:href="#DejaVuSans-6f" x="74.804688"/>
      <use xlink:href="#DejaVuSans-64" x="135.986328"/>
      <use xlink:href="#DejaVuSans-65" x="199.462891"/>
      <use xlink:href="#DejaVuSans-20" x="260.986328"/>
      <use xlink:href="#DejaVuSans-73" x="292.773438"/>
      <use xlink:href="#DejaVuSans-70" x="344.873047"/>
      <use xlink:href="#DejaVuSans-6c" x="408.349609"/>
      <use xlink:href="#DejaVuSans-69" x="436.132812"/>
      <use xlink:href="#DejaVuSans-74" x="463.916016"/>
     </g>
    </g>
    <g id="line2d_34">
     <path d="M 524.56 84.012812 
L 534.56 84.012812 
L 544.56 84.012812 
" style="fill: none; stroke: #d62728; stroke-width: 1.5; stroke-linecap: square"/>
    </g>
    <g id="text_23">
     <!-- Node split + surprisal -->
     <g transform="translate(552.56 87.512812)scale(0.1 -0.1)">
      <use xlink:href="#DejaVuSans-4e"/>
      <use xlink:href="#DejaVuSans-6f" x="74.804688"/>
      <use xlink:href="#DejaVuSans-64" x="135.986328"/>
      <use xlink:href="#DejaVuSans-65" x="199.462891"/>
      <use xlink:href="#DejaVuSans-20" x="260.986328"/>
      <use xlink:href="#DejaVuSans-73" x="292.773438"/>
      <use xlink:href="#DejaVuSans-70" x="344.873047"/>
      <use xlink:href="#DejaVuSans-6c" x="408.349609"/>
      <use xlink:href="#DejaVuSans-69" x="436.132812"/>
      <use xlink:href="#DejaVuSans-74" x="463.916016"/>
      <use xlink:href="#DejaVuSans-20" x="503.125"/>
      <use xlink:href="#DejaVuSans-2b" x="534.912109"/>
      <use xlink:href="#DejaVuSans-20" x="618.701172"/>
      <use xlink:href="#DejaVuSans-73" x="650.488281"/>
      <use xlink:href="#DejaVuSans-75" x="702.587891"/>
      <use xlink:href="#DejaVuSans-72" x="765.966797"/>
      <use xlink:href="#DejaVuSans-70" x="807.080078"/>
      <use xlink:href="#DejaVuSans-72" x="870.556641"/>
      <use xlink:href="#DejaVuSans-69" x="911.669922"/>
      <use xlink:href="#DejaVuSans-73" x="939.453125"/>
      <use xlink:href="#DejaVuSans-61" x="991.552734"/>
      <use xlink:href="#DejaVuSans-6c" x="1052.832031"/>
     </g>
    </g>
    <g id="line2d_35">
     <path d="M 524.56 98.690937 
L 534.56 98.690937 
L 544.56 98.690937 
" style="fill: none; stroke: #9467bd; stroke-width: 1.5; stroke-linecap: square"/>
    </g>
    <g id="text_24">
     <!-- Node random split -->
     <g transform="translate(552.56 102.190937)scale(0.1 -0.1)">
      <use xlink:href="#DejaVuSans-4e"/>
      <use xlink:href="#DejaVuSans-6f" x="74.804688"/>
      <use xlink:href="#DejaVuSans-64" x="135.986328"/>
      <use xlink:href="#DejaVuSans-65" x="199.462891"/>
      <use xlink:href="#DejaVuSans-20" x="260.986328"/>
      <use xlink:href="#DejaVuSans-72" x="292.773438"/>
      <use xlink:href="#DejaVuSans-61" x="333.886719"/>
      <use xlink:href="#DejaVuSans-6e" x="395.166016"/>
      <use xlink:href="#DejaVuSans-64" x="458.544922"/>
      <use xlink:href="#DejaVuSans-6f" x="522.021484"/>
      <use xlink:href="#DejaVuSans-6d" x="583.203125"/>
      <use xlink:href="#DejaVuSans-20" x="680.615234"/>
      <use xlink:href="#DejaVuSans-73" x="712.402344"/>
      <use xlink:href="#DejaVuSans-70" x="764.501953"/>
      <use xlink:href="#DejaVuSans-6c" x="827.978516"/>
      <use xlink:href="#DejaVuSans-69" x="855.761719"/>
      <use xlink:href="#DejaVuSans-74" x="883.544922"/>
     </g>
    </g>
    <g id="line2d_36">
     <path d="M 524.56 113.369062 
L 534.56 113.369062 
L 544.56 113.369062 
" style="fill: none; stroke: #8c564b; stroke-width: 1.5; stroke-linecap: square"/>
    </g>
    <g id="text_25">
     <!-- Node random split + surprisal -->
     <g transform="translate(552.56 116.869062)scale(0.1 -0.1)">
      <use xlink:href="#DejaVuSans-4e"/>
      <use xlink:href="#DejaVuSans-6f" x="74.804688"/>
      <use xlink:href="#DejaVuSans-64" x="135.986328"/>
      <use xlink:href="#DejaVuSans-65" x="199.462891"/>
      <use xlink:href="#DejaVuSans-20" x="260.986328"/>
      <use xlink:href="#DejaVuSans-72" x="292.773438"/>
      <use xlink:href="#DejaVuSans-61" x="333.886719"/>
      <use xlink:href="#DejaVuSans-6e" x="395.166016"/>
      <use xlink:href="#DejaVuSans-64" x="458.544922"/>
      <use xlink:href="#DejaVuSans-6f" x="522.021484"/>
      <use xlink:href="#DejaVuSans-6d" x="583.203125"/>
      <use xlink:href="#DejaVuSans-20" x="680.615234"/>
      <use xlink:href="#DejaVuSans-73" x="712.402344"/>
      <use xlink:href="#DejaVuSans-70" x="764.501953"/>
      <use xlink:href="#DejaVuSans-6c" x="827.978516"/>
      <use xlink:href="#DejaVuSans-69" x="855.761719"/>
      <use xlink:href="#DejaVuSans-74" x="883.544922"/>
      <use xlink:href="#DejaVuSans-20" x="922.753906"/>
      <use xlink:href="#DejaVuSans-2b" x="954.541016"/>
      <use xlink:href="#DejaVuSans-20" x="1038.330078"/>
      <use xlink:href="#DejaVuSans-73" x="1070.117188"/>
      <use xlink:href="#DejaVuSans-75" x="1122.216797"/>
      <use xlink:href="#DejaVuSans-72" x="1185.595703"/>
      <use xlink:href="#DejaVuSans-70" x="1226.708984"/>
      <use xlink:href="#DejaVuSans-72" x="1290.185547"/>
      <use xlink:href="#DejaVuSans-69" x="1331.298828"/>
      <use xlink:href="#DejaVuSans-73" x="1359.082031"/>
      <use xlink:href="#DejaVuSans-61" x="1411.181641"/>
      <use xlink:href="#DejaVuSans-6c" x="1472.460938"/>
     </g>
    </g>
    <g id="line2d_37">
     <path d="M 524.56 128.047187 
L 534.56 128.047187 
L 544.56 128.047187 
" style="fill: none; stroke: #e377c2; stroke-width: 1.5; stroke-linecap: square"/>
    </g>
    <g id="text_26">
     <!-- Interaction -->
     <g transform="translate(552.56 131.547187)scale(0.1 -0.1)">
      <use xlink:href="#DejaVuSans-49"/>
      <use xlink:href="#DejaVuSans-6e" x="29.492188"/>
      <use xlink:href="#DejaVuSans-74" x="92.871094"/>
      <use xlink:href="#DejaVuSans-65" x="132.080078"/>
      <use xlink:href="#DejaVuSans-72" x="193.603516"/>
      <use xlink:href="#DejaVuSans-61" x="234.716797"/>
      <use xlink:href="#DejaVuSans-63" x="295.996094"/>
      <use xlink:href="#DejaVuSans-74" x="350.976562"/>
      <use xlink:href="#DejaVuSans-69" x="390.185547"/>
      <use xlink:href="#DejaVuSans-6f" x="417.96875"/>
      <use xlink:href="#DejaVuSans-6e" x="479.150391"/>
     </g>
    </g>
    <g id="line2d_38">
     <path d="M 524.56 142.725312 
L 534.56 142.725312 
L 544.56 142.725312 
" style="fill: none; stroke: #7f7f7f; stroke-width: 1.5; stroke-linecap: square"/>
    </g>
    <g id="text_27">
     <!-- Node + surprisal + interaction -->
     <g transform="translate(552.56 146.225312)scale(0.1 -0.1)">
      <use xlink:href="#DejaVuSans-4e"/>
      <use xlink:href="#DejaVuSans-6f" x="74.804688"/>
      <use xlink:href="#DejaVuSans-64" x="135.986328"/>
      <use xlink:href="#DejaVuSans-65" x="199.462891"/>
      <use xlink:href="#DejaVuSans-20" x="260.986328"/>
      <use xlink:href="#DejaVuSans-2b" x="292.773438"/>
      <use xlink:href="#DejaVuSans-20" x="376.5625"/>
      <use xlink:href="#DejaVuSans-73" x="408.349609"/>
      <use xlink:href="#DejaVuSans-75" x="460.449219"/>
      <use xlink:href="#DejaVuSans-72" x="523.828125"/>
      <use xlink:href="#DejaVuSans-70" x="564.941406"/>
      <use xlink:href="#DejaVuSans-72" x="628.417969"/>
      <use xlink:href="#DejaVuSans-69" x="669.53125"/>
      <use xlink:href="#DejaVuSans-73" x="697.314453"/>
      <use xlink:href="#DejaVuSans-61" x="749.414062"/>
      <use xlink:href="#DejaVuSans-6c" x="810.693359"/>
      <use xlink:href="#DejaVuSans-20" x="838.476562"/>
      <use xlink:href="#DejaVuSans-2b" x="870.263672"/>
      <use xlink:href="#DejaVuSans-20" x="954.052734"/>
      <use xlink:href="#DejaVuSans-69" x="985.839844"/>
      <use xlink:href="#DejaVuSans-6e" x="1013.623047"/>
      <use xlink:href="#DejaVuSans-74" x="1077.001953"/>
      <use xlink:href="#DejaVuSans-65" x="1116.210938"/>
      <use xlink:href="#DejaVuSans-72" x="1177.734375"/>
      <use xlink:href="#DejaVuSans-61" x="1218.847656"/>
      <use xlink:href="#DejaVuSans-63" x="1280.126953"/>
      <use xlink:href="#DejaVuSans-74" x="1335.107422"/>
      <use xlink:href="#DejaVuSans-69" x="1374.316406"/>
      <use xlink:href="#DejaVuSans-6f" x="1402.099609"/>
      <use xlink:href="#DejaVuSans-6e" x="1463.28125"/>
     </g>
    </g>
   </g>
  </g>
 </g>
 <defs>
  <clipPath id="p809877091a">
   <rect x="47.72" y="26.88" width="217.495" height="147.16"/>
  </clipPath>
  <clipPath id="pfb4196d761">
   <rect x="298.065" y="26.88" width="217.495" height="147.16"/>
  </clipPath>
 </defs>
</svg>
