<?xml version="1.0" encoding="utf-8" standalone="no"?>
<!DOCTYPE svg PUBLIC "-//W3C//DTD SVG 1.1//EN"
  "http://www.w3.org/Graphics/SVG/1.1/DTD/svg11.dtd">
<svg xmlns:xlink="http://www.w3.org/1999/xlink" width="720pt" height="216pt" viewBox="0 0 720 216" xmlns="http://www.w3.org/2000/svg" version="1.1">
 <metadata>
  <rdf:RDF xmlns:dc="http://purl.org/dc/elements/1.1/" xmlns:cc="http://creativecommons.org/ns#" xmlns:rdf="http://www.w3.org/1999/02/22-rdf-syntax-ns#">
   <cc:Work>
    <dc:type rdf:resource="http://purl.org/dc/dcmitype/StillImage"/>
    <dc:date>2024-01-15T22:37:01.245134</dc:date>
    <dc:format>image/svg+xml</dc:format>
    <dc:creator>
     <cc:Agent>
      <dc:title>Matplotlib v3.5.1, https://matplotlib.org/</dc:title>
     </cc:Agent>
    </dc:creator>
   </cc:Work>
  </rdf:RDF>
 </metadata>
 <defs>
  <style type="text/css">*{stroke-linejoin: round; stroke-linecap: butt}</style>
 </defs>
 <g id="figure_1">
  <g id="patch_1">
   <path d="M 0 216 
L 720 216 
L 720 0 
L 0 0 
z
" style="fill: #ffffff"/>
  </g>
  <g id="axes_1">
   <g id="patch_2">
    <path d="M 47.72 174.04 
L 265.215 174.04 
L 265.215 26.88 
L 47.72 26.88 
z
" style="fill: #ffffff"/>
   </g>
   <g id="PolyCollection_1">
    <path d="M 47.72 33.569091 
L 47.72 34.39185 
L 59.167105 36.888559 
L 70.614211 43.261204 
L 82.061316 52.477446 
L 93.508421 62.575764 
L 104.955526 74.045714 
L 116.402632 84.222503 
L 127.849737 93.790515 
L 139.296842 103.383441 
L 150.743947 111.977589 
L 162.191053 118.978083 
L 173.638158 125.531747 
L 185.085263 132.116627 
L 196.532368 136.951794 
L 207.979474 141.628339 
L 219.426579 145.800627 
L 230.873684 150.213331 
L 242.320789 153.454894 
L 253.767895 156.810665 
L 265.215 159.27883 
L 265.215 151.202883 
L 265.215 151.202883 
L 253.767895 148.570566 
L 242.320789 144.388659 
L 230.873684 141.532425 
L 219.426579 136.519142 
L 207.979474 130.899732 
L 196.532368 126.718695 
L 185.085263 120.999123 
L 173.638158 113.694909 
L 162.191053 107.015381 
L 150.743947 99.168666 
L 139.296842 90.900651 
L 127.849737 82.197189 
L 116.402632 73.469605 
L 104.955526 63.799257 
L 93.508421 54.900641 
L 82.061316 46.323391 
L 70.614211 40.172387 
L 59.167105 35.240714 
L 47.72 33.569091 
z
" clip-path="url(#p331d84e4b5)" style="fill: #1f77b4; fill-opacity: 0.4"/>
   </g>
   <g id="PolyCollection_2">
    <path d="M 47.72 33.587709 
L 47.72 34.40639 
L 59.167105 35.918733 
L 70.614211 39.061936 
L 82.061316 44.84687 
L 93.508421 51.573234 
L 104.955526 60.795086 
L 116.402632 68.955254 
L 127.849737 77.948708 
L 139.296842 86.779378 
L 150.743947 95.914712 
L 162.191053 103.784193 
L 173.638158 110.986145 
L 185.085263 118.963307 
L 196.532368 124.745761 
L 207.979474 130.69215 
L 219.426579 135.625767 
L 230.873684 140.819447 
L 242.320789 144.185228 
L 253.767895 148.427667 
L 265.215 151.553222 
L 265.215 141.628578 
L 265.215 141.628578 
L 253.767895 138.401488 
L 242.320789 133.65802 
L 230.873684 130.014176 
L 219.426579 124.539207 
L 207.979474 118.127577 
L 196.532368 113.688761 
L 185.085263 107.451313 
L 173.638158 99.579541 
L 162.191053 92.948093 
L 150.743947 85.290136 
L 139.296842 76.987088 
L 127.849737 68.701164 
L 116.402632 61.265039 
L 104.955526 53.277862 
L 93.508421 46.890956 
L 82.061316 40.999784 
L 70.614211 37.626353 
L 59.167105 34.732163 
L 47.72 33.587709 
z
" clip-path="url(#p331d84e4b5)" style="fill: #ff7f0e; fill-opacity: 0.4"/>
   </g>
   <g id="PolyCollection_3">
    <path d="M 47.72 33.576586 
L 47.72 34.411298 
L 59.167105 36.210039 
L 70.614211 39.212664 
L 82.061316 43.404254 
L 93.508421 47.871425 
L 104.955526 53.353823 
L 116.402632 58.186524 
L 127.849737 63.668544 
L 139.296842 68.177815 
L 150.743947 73.966269 
L 162.191053 78.799549 
L 173.638158 82.801791 
L 185.085263 87.700601 
L 196.532368 92.819188 
L 207.979474 97.289858 
L 219.426579 101.54415 
L 230.873684 106.260865 
L 242.320789 109.437314 
L 253.767895 113.890862 
L 265.215 118.440734 
L 265.215 106.648278 
L 265.215 106.648278 
L 253.767895 102.489092 
L 242.320789 98.561264 
L 230.873684 94.913902 
L 219.426579 91.210571 
L 207.979474 86.564359 
L 196.532368 83.476495 
L 185.085263 79.07091 
L 173.638158 75.569916 
L 162.191053 70.926964 
L 150.743947 66.278643 
L 139.296842 61.917308 
L 127.849737 57.199181 
L 116.402632 53.049997 
L 104.955526 48.012795 
L 93.508421 44.00024 
L 82.061316 40.050954 
L 70.614211 37.408234 
L 59.167105 34.998105 
L 47.72 33.576586 
z
" clip-path="url(#p331d84e4b5)" style="fill: #2ca02c; fill-opacity: 0.4"/>
   </g>
   <g id="PolyCollection_4">
    <path d="M 47.72 33.594684 
L 47.72 34.419677 
L 59.167105 35.817664 
L 70.614211 37.939013 
L 82.061316 41.516113 
L 93.508421 45.362443 
L 104.955526 50.89351 
L 116.402632 55.607023 
L 127.849737 61.402231 
L 139.296842 66.278965 
L 150.743947 72.42702 
L 162.191053 77.352295 
L 173.638158 81.734657 
L 185.085263 86.606014 
L 196.532368 91.693731 
L 207.979474 96.014056 
L 219.426579 100.161847 
L 230.873684 104.578426 
L 242.320789 107.691522 
L 253.767895 111.819741 
L 265.215 116.0497 
L 265.215 104.46267 
L 265.215 104.46267 
L 253.767895 100.384818 
L 242.320789 96.969195 
L 230.873684 93.256662 
L 219.426579 89.7384 
L 207.979474 85.131634 
L 196.532368 81.856014 
L 185.085263 77.331118 
L 173.638158 73.788039 
L 162.191053 68.991611 
L 150.743947 64.087394 
L 139.296842 59.509173 
L 127.849737 54.558305 
L 116.402632 50.416144 
L 104.955526 45.568733 
L 93.508421 41.934442 
L 82.061316 38.504192 
L 70.614211 36.582394 
L 59.167105 34.72511 
L 47.72 33.594684 
z
" clip-path="url(#p331d84e4b5)" style="fill: #d62728; fill-opacity: 0.4"/>
   </g>
   <g id="PolyCollection_5">
    <path d="M 47.72 33.581863 
L 47.72 34.396733 
L 59.167105 36.893375 
L 70.614211 43.265679 
L 82.061316 52.486701 
L 93.508421 62.670885 
L 104.955526 74.272443 
L 116.402632 84.207829 
L 127.849737 93.861883 
L 139.296842 103.449911 
L 150.743947 112.164594 
L 162.191053 119.093632 
L 173.638158 125.929284 
L 185.085263 132.442868 
L 196.532368 137.345935 
L 207.979474 142.033039 
L 219.426579 146.431446 
L 230.873684 151.422872 
L 242.320789 154.592946 
L 253.767895 157.248028 
L 265.215 159.615682 
L 265.215 152.585808 
L 265.215 152.585808 
L 253.767895 149.197108 
L 242.320789 145.17144 
L 230.873684 141.600127 
L 219.426579 136.743031 
L 207.979474 130.84606 
L 196.532368 127.497896 
L 185.085263 121.071833 
L 173.638158 114.007252 
L 162.191053 107.147152 
L 150.743947 99.653012 
L 139.296842 91.043402 
L 127.849737 82.144819 
L 116.402632 73.492187 
L 104.955526 63.878441 
L 93.508421 55.064184 
L 82.061316 46.43041 
L 70.614211 40.210353 
L 59.167105 35.266028 
L 47.72 33.581863 
z
" clip-path="url(#p331d84e4b5)" style="fill: #9467bd; fill-opacity: 0.4"/>
   </g>
   <g id="PolyCollection_6">
    <path d="M 47.72 33.602058 
L 47.72 34.411855 
L 59.167105 35.927497 
L 70.614211 39.087846 
L 82.061316 44.847229 
L 93.508421 51.629168 
L 104.955526 60.940909 
L 116.402632 68.955693 
L 127.849737 78.092657 
L 139.296842 86.906575 
L 150.743947 95.972238 
L 162.191053 103.954904 
L 173.638158 111.258581 
L 185.085263 119.096433 
L 196.532368 124.935416 
L 207.979474 131.096324 
L 219.426579 136.041793 
L 230.873684 141.695274 
L 242.320789 144.953407 
L 253.767895 148.772504 
L 265.215 151.91635 
L 265.215 142.48492 
L 265.215 142.48492 
L 253.767895 138.951911 
L 242.320789 134.37818 
L 230.873684 130.122703 
L 219.426579 124.682868 
L 207.979474 118.264562 
L 196.532368 114.428286 
L 185.085263 107.667497 
L 173.638158 99.905591 
L 162.191053 93.138051 
L 150.743947 85.530377 
L 139.296842 77.097781 
L 127.849737 68.734807 
L 116.402632 61.221387 
L 104.955526 53.315189 
L 93.508421 46.921019 
L 82.061316 41.074506 
L 70.614211 37.625379 
L 59.167105 34.751502 
L 47.72 33.602058 
z
" clip-path="url(#p331d84e4b5)" style="fill: #8c564b; fill-opacity: 0.4"/>
   </g>
   <g id="PolyCollection_7">
    <path d="M 47.72 44.674163 
L 47.72 48.685588 
L 59.167105 51.803643 
L 70.614211 59.888758 
L 82.061316 70.626116 
L 93.508421 82.488312 
L 104.955526 94.351287 
L 116.402632 105.395044 
L 127.849737 114.723609 
L 139.296842 123.985299 
L 150.743947 131.078518 
L 162.191053 137.668949 
L 173.638158 142.859129 
L 185.085263 147.872343 
L 196.532368 151.669219 
L 207.979474 155.163617 
L 219.426579 158.211303 
L 230.873684 161.215997 
L 242.320789 163.668372 
L 253.767895 165.981852 
L 265.215 167.350909 
L 265.215 159.825837 
L 265.215 159.825837 
L 253.767895 157.466301 
L 242.320789 153.952347 
L 230.873684 151.481121 
L 219.426579 147.360928 
L 207.979474 142.755375 
L 196.532368 139.017183 
L 185.085263 134.526756 
L 173.638158 128.135095 
L 162.191053 122.103788 
L 150.743947 115.160869 
L 139.296842 107.515653 
L 127.849737 99.025225 
L 116.402632 89.945999 
L 104.955526 79.206354 
L 93.508421 69.098203 
L 82.061316 58.896144 
L 70.614211 52.029465 
L 59.167105 46.516895 
L 47.72 44.674163 
z
" clip-path="url(#p331d84e4b5)" style="fill: #e377c2; fill-opacity: 0.4"/>
   </g>
   <g id="PolyCollection_8">
    <path d="M 47.72 33.603534 
L 47.72 34.421393 
L 59.167105 35.074339 
L 70.614211 35.902365 
L 82.061316 38.998542 
L 93.508421 43.853563 
L 104.955526 51.366757 
L 116.402632 58.960477 
L 127.849737 67.304077 
L 139.296842 75.915154 
L 150.743947 85.247281 
L 162.191053 92.99891 
L 173.638158 100.477676 
L 185.085263 108.48569 
L 196.532368 114.735011 
L 207.979474 120.953875 
L 219.426579 126.656564 
L 230.873684 132.274874 
L 242.320789 136.265368 
L 253.767895 141.007698 
L 265.215 144.851743 
L 265.215 134.384057 
L 265.215 134.384057 
L 253.767895 130.611489 
L 242.320789 125.189727 
L 230.873684 121.080169 
L 219.426579 115.631545 
L 207.979474 108.948282 
L 196.532368 103.886185 
L 185.085263 96.80168 
L 173.638158 89.006792 
L 162.191053 81.396393 
L 150.743947 72.604523 
L 139.296842 64.257606 
L 127.849737 55.857868 
L 116.402632 49.128597 
L 104.955526 42.561557 
L 93.508421 38.313852 
L 82.061316 35.600897 
L 70.614211 34.702197 
L 59.167105 34.267728 
L 47.72 33.603534 
z
" clip-path="url(#p331d84e4b5)" style="fill: #7f7f7f; fill-opacity: 0.4"/>
   </g>
   <g id="matplotlib.axis_1">
    <g id="xtick_1">
     <g id="line2d_1">
      <defs>
       <path id="m2788bedd8c" d="M 0 0 
L 0 3.5 
" style="stroke: #000000; stroke-width: 0.8"/>
      </defs>
      <g>
       <use xlink:href="#m2788bedd8c" x="47.72" y="174.04" style="stroke: #000000; stroke-width: 0.8"/>
      </g>
     </g>
     <g id="text_1">
      <!-- 0.0 -->
      <g transform="translate(39.768438 188.638438)scale(0.1 -0.1)">
       <defs>
        <path id="DejaVuSans-30" d="M 2034 4250 
Q 1547 4250 1301 3770 
Q 1056 3291 1056 2328 
Q 1056 1369 1301 889 
Q 1547 409 2034 409 
Q 2525 409 2770 889 
Q 3016 1369 3016 2328 
Q 3016 3291 2770 3770 
Q 2525 4250 2034 4250 
z
M 2034 4750 
Q 2819 4750 3233 4129 
Q 3647 3509 3647 2328 
Q 3647 1150 3233 529 
Q 2819 -91 2034 -91 
Q 1250 -91 836 529 
Q 422 1150 422 2328 
Q 422 3509 836 4129 
Q 1250 4750 2034 4750 
z
" transform="scale(0.015625)"/>
        <path id="DejaVuSans-2e" d="M 684 794 
L 1344 794 
L 1344 0 
L 684 0 
L 684 794 
z
" transform="scale(0.015625)"/>
       </defs>
       <use xlink:href="#DejaVuSans-30"/>
       <use xlink:href="#DejaVuSans-2e" x="63.623047"/>
       <use xlink:href="#DejaVuSans-30" x="95.410156"/>
      </g>
     </g>
    </g>
    <g id="xtick_2">
     <g id="line2d_2">
      <g>
       <use xlink:href="#m2788bedd8c" x="102.09375" y="174.04" style="stroke: #000000; stroke-width: 0.8"/>
      </g>
     </g>
     <g id="text_2">
      <!-- 0.5 -->
      <g transform="translate(94.142188 188.638438)scale(0.1 -0.1)">
       <defs>
        <path id="DejaVuSans-35" d="M 691 4666 
L 3169 4666 
L 3169 4134 
L 1269 4134 
L 1269 2991 
Q 1406 3038 1543 3061 
Q 1681 3084 1819 3084 
Q 2600 3084 3056 2656 
Q 3513 2228 3513 1497 
Q 3513 744 3044 326 
Q 2575 -91 1722 -91 
Q 1428 -91 1123 -41 
Q 819 9 494 109 
L 494 744 
Q 775 591 1075 516 
Q 1375 441 1709 441 
Q 2250 441 2565 725 
Q 2881 1009 2881 1497 
Q 2881 1984 2565 2268 
Q 2250 2553 1709 2553 
Q 1456 2553 1204 2497 
Q 953 2441 691 2322 
L 691 4666 
z
" transform="scale(0.015625)"/>
       </defs>
       <use xlink:href="#DejaVuSans-30"/>
       <use xlink:href="#DejaVuSans-2e" x="63.623047"/>
       <use xlink:href="#DejaVuSans-35" x="95.410156"/>
      </g>
     </g>
    </g>
    <g id="xtick_3">
     <g id="line2d_3">
      <g>
       <use xlink:href="#m2788bedd8c" x="156.4675" y="174.04" style="stroke: #000000; stroke-width: 0.8"/>
      </g>
     </g>
     <g id="text_3">
      <!-- 1.0 -->
      <g transform="translate(148.515938 188.638438)scale(0.1 -0.1)">
       <defs>
        <path id="DejaVuSans-31" d="M 794 531 
L 1825 531 
L 1825 4091 
L 703 3866 
L 703 4441 
L 1819 4666 
L 2450 4666 
L 2450 531 
L 3481 531 
L 3481 0 
L 794 0 
L 794 531 
z
" transform="scale(0.015625)"/>
       </defs>
       <use xlink:href="#DejaVuSans-31"/>
       <use xlink:href="#DejaVuSans-2e" x="63.623047"/>
       <use xlink:href="#DejaVuSans-30" x="95.410156"/>
      </g>
     </g>
    </g>
    <g id="xtick_4">
     <g id="line2d_4">
      <g>
       <use xlink:href="#m2788bedd8c" x="210.84125" y="174.04" style="stroke: #000000; stroke-width: 0.8"/>
      </g>
     </g>
     <g id="text_4">
      <!-- 1.5 -->
      <g transform="translate(202.889687 188.638438)scale(0.1 -0.1)">
       <use xlink:href="#DejaVuSans-31"/>
       <use xlink:href="#DejaVuSans-2e" x="63.623047"/>
       <use xlink:href="#DejaVuSans-35" x="95.410156"/>
      </g>
     </g>
    </g>
    <g id="xtick_5">
     <g id="line2d_5">
      <g>
       <use xlink:href="#m2788bedd8c" x="265.215" y="174.04" style="stroke: #000000; stroke-width: 0.8"/>
      </g>
     </g>
     <g id="text_5">
      <!-- 2.0 -->
      <g transform="translate(257.263437 188.638438)scale(0.1 -0.1)">
       <defs>
        <path id="DejaVuSans-32" d="M 1228 531 
L 3431 531 
L 3431 0 
L 469 0 
L 469 531 
Q 828 903 1448 1529 
Q 2069 2156 2228 2338 
Q 2531 2678 2651 2914 
Q 2772 3150 2772 3378 
Q 2772 3750 2511 3984 
Q 2250 4219 1831 4219 
Q 1534 4219 1204 4116 
Q 875 4013 500 3803 
L 500 4441 
Q 881 4594 1212 4672 
Q 1544 4750 1819 4750 
Q 2544 4750 2975 4387 
Q 3406 4025 3406 3419 
Q 3406 3131 3298 2873 
Q 3191 2616 2906 2266 
Q 2828 2175 2409 1742 
Q 1991 1309 1228 531 
z
" transform="scale(0.015625)"/>
       </defs>
       <use xlink:href="#DejaVuSans-32"/>
       <use xlink:href="#DejaVuSans-2e" x="63.623047"/>
       <use xlink:href="#DejaVuSans-30" x="95.410156"/>
      </g>
     </g>
    </g>
    <g id="text_6">
     <!-- Influence of surprisal (multiplication) -->
     <g transform="translate(64.320625 202.316563)scale(0.1 -0.1)">
      <defs>
       <path id="DejaVuSans-49" d="M 628 4666 
L 1259 4666 
L 1259 0 
L 628 0 
L 628 4666 
z
" transform="scale(0.015625)"/>
       <path id="DejaVuSans-6e" d="M 3513 2113 
L 3513 0 
L 2938 0 
L 2938 2094 
Q 2938 2591 2744 2837 
Q 2550 3084 2163 3084 
Q 1697 3084 1428 2787 
Q 1159 2491 1159 1978 
L 1159 0 
L 581 0 
L 581 3500 
L 1159 3500 
L 1159 2956 
Q 1366 3272 1645 3428 
Q 1925 3584 2291 3584 
Q 2894 3584 3203 3211 
Q 3513 2838 3513 2113 
z
" transform="scale(0.015625)"/>
       <path id="DejaVuSans-66" d="M 2375 4863 
L 2375 4384 
L 1825 4384 
Q 1516 4384 1395 4259 
Q 1275 4134 1275 3809 
L 1275 3500 
L 2222 3500 
L 2222 3053 
L 1275 3053 
L 1275 0 
L 697 0 
L 697 3053 
L 147 3053 
L 147 3500 
L 697 3500 
L 697 3744 
Q 697 4328 969 4595 
Q 1241 4863 1831 4863 
L 2375 4863 
z
" transform="scale(0.015625)"/>
       <path id="DejaVuSans-6c" d="M 603 4863 
L 1178 4863 
L 1178 0 
L 603 0 
L 603 4863 
z
" transform="scale(0.015625)"/>
       <path id="DejaVuSans-75" d="M 544 1381 
L 544 3500 
L 1119 3500 
L 1119 1403 
Q 1119 906 1312 657 
Q 1506 409 1894 409 
Q 2359 409 2629 706 
Q 2900 1003 2900 1516 
L 2900 3500 
L 3475 3500 
L 3475 0 
L 2900 0 
L 2900 538 
Q 2691 219 2414 64 
Q 2138 -91 1772 -91 
Q 1169 -91 856 284 
Q 544 659 544 1381 
z
M 1991 3584 
L 1991 3584 
z
" transform="scale(0.015625)"/>
       <path id="DejaVuSans-65" d="M 3597 1894 
L 3597 1613 
L 953 1613 
Q 991 1019 1311 708 
Q 1631 397 2203 397 
Q 2534 397 2845 478 
Q 3156 559 3463 722 
L 3463 178 
Q 3153 47 2828 -22 
Q 2503 -91 2169 -91 
Q 1331 -91 842 396 
Q 353 884 353 1716 
Q 353 2575 817 3079 
Q 1281 3584 2069 3584 
Q 2775 3584 3186 3129 
Q 3597 2675 3597 1894 
z
M 3022 2063 
Q 3016 2534 2758 2815 
Q 2500 3097 2075 3097 
Q 1594 3097 1305 2825 
Q 1016 2553 972 2059 
L 3022 2063 
z
" transform="scale(0.015625)"/>
       <path id="DejaVuSans-63" d="M 3122 3366 
L 3122 2828 
Q 2878 2963 2633 3030 
Q 2388 3097 2138 3097 
Q 1578 3097 1268 2742 
Q 959 2388 959 1747 
Q 959 1106 1268 751 
Q 1578 397 2138 397 
Q 2388 397 2633 464 
Q 2878 531 3122 666 
L 3122 134 
Q 2881 22 2623 -34 
Q 2366 -91 2075 -91 
Q 1284 -91 818 406 
Q 353 903 353 1747 
Q 353 2603 823 3093 
Q 1294 3584 2113 3584 
Q 2378 3584 2631 3529 
Q 2884 3475 3122 3366 
z
" transform="scale(0.015625)"/>
       <path id="DejaVuSans-20" transform="scale(0.015625)"/>
       <path id="DejaVuSans-6f" d="M 1959 3097 
Q 1497 3097 1228 2736 
Q 959 2375 959 1747 
Q 959 1119 1226 758 
Q 1494 397 1959 397 
Q 2419 397 2687 759 
Q 2956 1122 2956 1747 
Q 2956 2369 2687 2733 
Q 2419 3097 1959 3097 
z
M 1959 3584 
Q 2709 3584 3137 3096 
Q 3566 2609 3566 1747 
Q 3566 888 3137 398 
Q 2709 -91 1959 -91 
Q 1206 -91 779 398 
Q 353 888 353 1747 
Q 353 2609 779 3096 
Q 1206 3584 1959 3584 
z
" transform="scale(0.015625)"/>
       <path id="DejaVuSans-73" d="M 2834 3397 
L 2834 2853 
Q 2591 2978 2328 3040 
Q 2066 3103 1784 3103 
Q 1356 3103 1142 2972 
Q 928 2841 928 2578 
Q 928 2378 1081 2264 
Q 1234 2150 1697 2047 
L 1894 2003 
Q 2506 1872 2764 1633 
Q 3022 1394 3022 966 
Q 3022 478 2636 193 
Q 2250 -91 1575 -91 
Q 1294 -91 989 -36 
Q 684 19 347 128 
L 347 722 
Q 666 556 975 473 
Q 1284 391 1588 391 
Q 1994 391 2212 530 
Q 2431 669 2431 922 
Q 2431 1156 2273 1281 
Q 2116 1406 1581 1522 
L 1381 1569 
Q 847 1681 609 1914 
Q 372 2147 372 2553 
Q 372 3047 722 3315 
Q 1072 3584 1716 3584 
Q 2034 3584 2315 3537 
Q 2597 3491 2834 3397 
z
" transform="scale(0.015625)"/>
       <path id="DejaVuSans-72" d="M 2631 2963 
Q 2534 3019 2420 3045 
Q 2306 3072 2169 3072 
Q 1681 3072 1420 2755 
Q 1159 2438 1159 1844 
L 1159 0 
L 581 0 
L 581 3500 
L 1159 3500 
L 1159 2956 
Q 1341 3275 1631 3429 
Q 1922 3584 2338 3584 
Q 2397 3584 2469 3576 
Q 2541 3569 2628 3553 
L 2631 2963 
z
" transform="scale(0.015625)"/>
       <path id="DejaVuSans-70" d="M 1159 525 
L 1159 -1331 
L 581 -1331 
L 581 3500 
L 1159 3500 
L 1159 2969 
Q 1341 3281 1617 3432 
Q 1894 3584 2278 3584 
Q 2916 3584 3314 3078 
Q 3713 2572 3713 1747 
Q 3713 922 3314 415 
Q 2916 -91 2278 -91 
Q 1894 -91 1617 61 
Q 1341 213 1159 525 
z
M 3116 1747 
Q 3116 2381 2855 2742 
Q 2594 3103 2138 3103 
Q 1681 3103 1420 2742 
Q 1159 2381 1159 1747 
Q 1159 1113 1420 752 
Q 1681 391 2138 391 
Q 2594 391 2855 752 
Q 3116 1113 3116 1747 
z
" transform="scale(0.015625)"/>
       <path id="DejaVuSans-69" d="M 603 3500 
L 1178 3500 
L 1178 0 
L 603 0 
L 603 3500 
z
M 603 4863 
L 1178 4863 
L 1178 4134 
L 603 4134 
L 603 4863 
z
" transform="scale(0.015625)"/>
       <path id="DejaVuSans-61" d="M 2194 1759 
Q 1497 1759 1228 1600 
Q 959 1441 959 1056 
Q 959 750 1161 570 
Q 1363 391 1709 391 
Q 2188 391 2477 730 
Q 2766 1069 2766 1631 
L 2766 1759 
L 2194 1759 
z
M 3341 1997 
L 3341 0 
L 2766 0 
L 2766 531 
Q 2569 213 2275 61 
Q 1981 -91 1556 -91 
Q 1019 -91 701 211 
Q 384 513 384 1019 
Q 384 1609 779 1909 
Q 1175 2209 1959 2209 
L 2766 2209 
L 2766 2266 
Q 2766 2663 2505 2880 
Q 2244 3097 1772 3097 
Q 1472 3097 1187 3025 
Q 903 2953 641 2809 
L 641 3341 
Q 956 3463 1253 3523 
Q 1550 3584 1831 3584 
Q 2591 3584 2966 3190 
Q 3341 2797 3341 1997 
z
" transform="scale(0.015625)"/>
       <path id="DejaVuSans-28" d="M 1984 4856 
Q 1566 4138 1362 3434 
Q 1159 2731 1159 2009 
Q 1159 1288 1364 580 
Q 1569 -128 1984 -844 
L 1484 -844 
Q 1016 -109 783 600 
Q 550 1309 550 2009 
Q 550 2706 781 3412 
Q 1013 4119 1484 4856 
L 1984 4856 
z
" transform="scale(0.015625)"/>
       <path id="DejaVuSans-6d" d="M 3328 2828 
Q 3544 3216 3844 3400 
Q 4144 3584 4550 3584 
Q 5097 3584 5394 3201 
Q 5691 2819 5691 2113 
L 5691 0 
L 5113 0 
L 5113 2094 
Q 5113 2597 4934 2840 
Q 4756 3084 4391 3084 
Q 3944 3084 3684 2787 
Q 3425 2491 3425 1978 
L 3425 0 
L 2847 0 
L 2847 2094 
Q 2847 2600 2669 2842 
Q 2491 3084 2119 3084 
Q 1678 3084 1418 2786 
Q 1159 2488 1159 1978 
L 1159 0 
L 581 0 
L 581 3500 
L 1159 3500 
L 1159 2956 
Q 1356 3278 1631 3431 
Q 1906 3584 2284 3584 
Q 2666 3584 2933 3390 
Q 3200 3197 3328 2828 
z
" transform="scale(0.015625)"/>
       <path id="DejaVuSans-74" d="M 1172 4494 
L 1172 3500 
L 2356 3500 
L 2356 3053 
L 1172 3053 
L 1172 1153 
Q 1172 725 1289 603 
Q 1406 481 1766 481 
L 2356 481 
L 2356 0 
L 1766 0 
Q 1100 0 847 248 
Q 594 497 594 1153 
L 594 3053 
L 172 3053 
L 172 3500 
L 594 3500 
L 594 4494 
L 1172 4494 
z
" transform="scale(0.015625)"/>
       <path id="DejaVuSans-29" d="M 513 4856 
L 1013 4856 
Q 1481 4119 1714 3412 
Q 1947 2706 1947 2009 
Q 1947 1309 1714 600 
Q 1481 -109 1013 -844 
L 513 -844 
Q 928 -128 1133 580 
Q 1338 1288 1338 2009 
Q 1338 2731 1133 3434 
Q 928 4138 513 4856 
z
" transform="scale(0.015625)"/>
      </defs>
      <use xlink:href="#DejaVuSans-49"/>
      <use xlink:href="#DejaVuSans-6e" x="29.492188"/>
      <use xlink:href="#DejaVuSans-66" x="92.871094"/>
      <use xlink:href="#DejaVuSans-6c" x="128.076172"/>
      <use xlink:href="#DejaVuSans-75" x="155.859375"/>
      <use xlink:href="#DejaVuSans-65" x="219.238281"/>
      <use xlink:href="#DejaVuSans-6e" x="280.761719"/>
      <use xlink:href="#DejaVuSans-63" x="344.140625"/>
      <use xlink:href="#DejaVuSans-65" x="399.121094"/>
      <use xlink:href="#DejaVuSans-20" x="460.644531"/>
      <use xlink:href="#DejaVuSans-6f" x="492.431641"/>
      <use xlink:href="#DejaVuSans-66" x="553.613281"/>
      <use xlink:href="#DejaVuSans-20" x="588.818359"/>
      <use xlink:href="#DejaVuSans-73" x="620.605469"/>
      <use xlink:href="#DejaVuSans-75" x="672.705078"/>
      <use xlink:href="#DejaVuSans-72" x="736.083984"/>
      <use xlink:href="#DejaVuSans-70" x="777.197266"/>
      <use xlink:href="#DejaVuSans-72" x="840.673828"/>
      <use xlink:href="#DejaVuSans-69" x="881.787109"/>
      <use xlink:href="#DejaVuSans-73" x="909.570312"/>
      <use xlink:href="#DejaVuSans-61" x="961.669922"/>
      <use xlink:href="#DejaVuSans-6c" x="1022.949219"/>
      <use xlink:href="#DejaVuSans-20" x="1050.732422"/>
      <use xlink:href="#DejaVuSans-28" x="1082.519531"/>
      <use xlink:href="#DejaVuSans-6d" x="1121.533203"/>
      <use xlink:href="#DejaVuSans-75" x="1218.945312"/>
      <use xlink:href="#DejaVuSans-6c" x="1282.324219"/>
      <use xlink:href="#DejaVuSans-74" x="1310.107422"/>
      <use xlink:href="#DejaVuSans-69" x="1349.316406"/>
      <use xlink:href="#DejaVuSans-70" x="1377.099609"/>
      <use xlink:href="#DejaVuSans-6c" x="1440.576172"/>
      <use xlink:href="#DejaVuSans-69" x="1468.359375"/>
      <use xlink:href="#DejaVuSans-63" x="1496.142578"/>
      <use xlink:href="#DejaVuSans-61" x="1551.123047"/>
      <use xlink:href="#DejaVuSans-74" x="1612.402344"/>
      <use xlink:href="#DejaVuSans-69" x="1651.611328"/>
      <use xlink:href="#DejaVuSans-6f" x="1679.394531"/>
      <use xlink:href="#DejaVuSans-6e" x="1740.576172"/>
      <use xlink:href="#DejaVuSans-29" x="1803.955078"/>
     </g>
    </g>
   </g>
   <g id="matplotlib.axis_2">
    <g id="ytick_1">
     <g id="line2d_6">
      <defs>
       <path id="m9d79ae42e9" d="M 0 0 
L -3.5 0 
" style="stroke: #000000; stroke-width: 0.8"/>
      </defs>
      <g>
       <use xlink:href="#m9d79ae42e9" x="47.72" y="152.660651" style="stroke: #000000; stroke-width: 0.8"/>
      </g>
     </g>
     <g id="text_7">
      <!-- 0.2 -->
      <g transform="translate(24.816875 156.45987)scale(0.1 -0.1)">
       <use xlink:href="#DejaVuSans-30"/>
       <use xlink:href="#DejaVuSans-2e" x="63.623047"/>
       <use xlink:href="#DejaVuSans-32" x="95.410156"/>
      </g>
     </g>
    </g>
    <g id="ytick_2">
     <g id="line2d_7">
      <g>
       <use xlink:href="#m9d79ae42e9" x="47.72" y="120.847407" style="stroke: #000000; stroke-width: 0.8"/>
      </g>
     </g>
     <g id="text_8">
      <!-- 0.4 -->
      <g transform="translate(24.816875 124.646626)scale(0.1 -0.1)">
       <defs>
        <path id="DejaVuSans-34" d="M 2419 4116 
L 825 1625 
L 2419 1625 
L 2419 4116 
z
M 2253 4666 
L 3047 4666 
L 3047 1625 
L 3713 1625 
L 3713 1100 
L 3047 1100 
L 3047 0 
L 2419 0 
L 2419 1100 
L 313 1100 
L 313 1709 
L 2253 4666 
z
" transform="scale(0.015625)"/>
       </defs>
       <use xlink:href="#DejaVuSans-30"/>
       <use xlink:href="#DejaVuSans-2e" x="63.623047"/>
       <use xlink:href="#DejaVuSans-34" x="95.410156"/>
      </g>
     </g>
    </g>
    <g id="ytick_3">
     <g id="line2d_8">
      <g>
       <use xlink:href="#m9d79ae42e9" x="47.72" y="89.034163" style="stroke: #000000; stroke-width: 0.8"/>
      </g>
     </g>
     <g id="text_9">
      <!-- 0.6 -->
      <g transform="translate(24.816875 92.833382)scale(0.1 -0.1)">
       <defs>
        <path id="DejaVuSans-36" d="M 2113 2584 
Q 1688 2584 1439 2293 
Q 1191 2003 1191 1497 
Q 1191 994 1439 701 
Q 1688 409 2113 409 
Q 2538 409 2786 701 
Q 3034 994 3034 1497 
Q 3034 2003 2786 2293 
Q 2538 2584 2113 2584 
z
M 3366 4563 
L 3366 3988 
Q 3128 4100 2886 4159 
Q 2644 4219 2406 4219 
Q 1781 4219 1451 3797 
Q 1122 3375 1075 2522 
Q 1259 2794 1537 2939 
Q 1816 3084 2150 3084 
Q 2853 3084 3261 2657 
Q 3669 2231 3669 1497 
Q 3669 778 3244 343 
Q 2819 -91 2113 -91 
Q 1303 -91 875 529 
Q 447 1150 447 2328 
Q 447 3434 972 4092 
Q 1497 4750 2381 4750 
Q 2619 4750 2861 4703 
Q 3103 4656 3366 4563 
z
" transform="scale(0.015625)"/>
       </defs>
       <use xlink:href="#DejaVuSans-30"/>
       <use xlink:href="#DejaVuSans-2e" x="63.623047"/>
       <use xlink:href="#DejaVuSans-36" x="95.410156"/>
      </g>
     </g>
    </g>
    <g id="ytick_4">
     <g id="line2d_9">
      <g>
       <use xlink:href="#m9d79ae42e9" x="47.72" y="57.220919" style="stroke: #000000; stroke-width: 0.8"/>
      </g>
     </g>
     <g id="text_10">
      <!-- 0.8 -->
      <g transform="translate(24.816875 61.020138)scale(0.1 -0.1)">
       <defs>
        <path id="DejaVuSans-38" d="M 2034 2216 
Q 1584 2216 1326 1975 
Q 1069 1734 1069 1313 
Q 1069 891 1326 650 
Q 1584 409 2034 409 
Q 2484 409 2743 651 
Q 3003 894 3003 1313 
Q 3003 1734 2745 1975 
Q 2488 2216 2034 2216 
z
M 1403 2484 
Q 997 2584 770 2862 
Q 544 3141 544 3541 
Q 544 4100 942 4425 
Q 1341 4750 2034 4750 
Q 2731 4750 3128 4425 
Q 3525 4100 3525 3541 
Q 3525 3141 3298 2862 
Q 3072 2584 2669 2484 
Q 3125 2378 3379 2068 
Q 3634 1759 3634 1313 
Q 3634 634 3220 271 
Q 2806 -91 2034 -91 
Q 1263 -91 848 271 
Q 434 634 434 1313 
Q 434 1759 690 2068 
Q 947 2378 1403 2484 
z
M 1172 3481 
Q 1172 3119 1398 2916 
Q 1625 2713 2034 2713 
Q 2441 2713 2670 2916 
Q 2900 3119 2900 3481 
Q 2900 3844 2670 4047 
Q 2441 4250 2034 4250 
Q 1625 4250 1398 4047 
Q 1172 3844 1172 3481 
z
" transform="scale(0.015625)"/>
       </defs>
       <use xlink:href="#DejaVuSans-30"/>
       <use xlink:href="#DejaVuSans-2e" x="63.623047"/>
       <use xlink:href="#DejaVuSans-38" x="95.410156"/>
      </g>
     </g>
    </g>
    <g id="text_11">
     <!-- R-value -->
     <g transform="translate(18.737188 119.064687)rotate(-90)scale(0.1 -0.1)">
      <defs>
       <path id="DejaVuSans-52" d="M 2841 2188 
Q 3044 2119 3236 1894 
Q 3428 1669 3622 1275 
L 4263 0 
L 3584 0 
L 2988 1197 
Q 2756 1666 2539 1819 
Q 2322 1972 1947 1972 
L 1259 1972 
L 1259 0 
L 628 0 
L 628 4666 
L 2053 4666 
Q 2853 4666 3247 4331 
Q 3641 3997 3641 3322 
Q 3641 2881 3436 2590 
Q 3231 2300 2841 2188 
z
M 1259 4147 
L 1259 2491 
L 2053 2491 
Q 2509 2491 2742 2702 
Q 2975 2913 2975 3322 
Q 2975 3731 2742 3939 
Q 2509 4147 2053 4147 
L 1259 4147 
z
" transform="scale(0.015625)"/>
       <path id="DejaVuSans-2d" d="M 313 2009 
L 1997 2009 
L 1997 1497 
L 313 1497 
L 313 2009 
z
" transform="scale(0.015625)"/>
       <path id="DejaVuSans-76" d="M 191 3500 
L 800 3500 
L 1894 563 
L 2988 3500 
L 3597 3500 
L 2284 0 
L 1503 0 
L 191 3500 
z
" transform="scale(0.015625)"/>
      </defs>
      <use xlink:href="#DejaVuSans-52"/>
      <use xlink:href="#DejaVuSans-2d" x="65.482422"/>
      <use xlink:href="#DejaVuSans-76" x="98.941406"/>
      <use xlink:href="#DejaVuSans-61" x="158.121094"/>
      <use xlink:href="#DejaVuSans-6c" x="219.400391"/>
      <use xlink:href="#DejaVuSans-75" x="247.183594"/>
      <use xlink:href="#DejaVuSans-65" x="310.5625"/>
     </g>
    </g>
   </g>
   <g id="line2d_10">
    <path d="M 47.72 33.98047 
L 59.167105 36.064636 
L 70.614211 41.716796 
L 82.061316 49.400419 
L 93.508421 58.738202 
L 104.955526 68.922485 
L 116.402632 78.846054 
L 127.849737 87.993852 
L 139.296842 97.142046 
L 150.743947 105.573127 
L 162.191053 112.996732 
L 173.638158 119.613328 
L 185.085263 126.557875 
L 196.532368 131.835245 
L 207.979474 136.264035 
L 219.426579 141.159884 
L 230.873684 145.872878 
L 242.320789 148.921776 
L 253.767895 152.690615 
L 265.215 155.240857 
" clip-path="url(#p331d84e4b5)" style="fill: none; stroke: #1f77b4; stroke-width: 1.5; stroke-linecap: square"/>
   </g>
   <g id="line2d_11">
    <path d="M 47.72 33.997049 
L 59.167105 35.325448 
L 70.614211 38.344145 
L 82.061316 42.923327 
L 93.508421 49.232095 
L 104.955526 57.036474 
L 116.402632 65.110147 
L 127.849737 73.324936 
L 139.296842 81.883233 
L 150.743947 90.602424 
L 162.191053 98.366143 
L 173.638158 105.282843 
L 185.085263 113.20731 
L 196.532368 119.217261 
L 207.979474 124.409864 
L 219.426579 130.082487 
L 230.873684 135.416811 
L 242.320789 138.921624 
L 253.767895 143.414578 
L 265.215 146.5909 
" clip-path="url(#p331d84e4b5)" style="fill: none; stroke: #ff7f0e; stroke-width: 1.5; stroke-linecap: square"/>
   </g>
   <g id="line2d_12">
    <path d="M 47.72 33.993942 
L 59.167105 35.604072 
L 70.614211 38.310449 
L 82.061316 41.727604 
L 93.508421 45.935832 
L 104.955526 50.683309 
L 116.402632 55.61826 
L 127.849737 60.433862 
L 139.296842 65.047562 
L 150.743947 70.122456 
L 162.191053 74.863257 
L 173.638158 79.185853 
L 185.085263 83.385756 
L 196.532368 88.147841 
L 207.979474 91.927109 
L 219.426579 96.37736 
L 230.873684 100.587383 
L 242.320789 103.999289 
L 253.767895 108.189977 
L 265.215 112.544506 
" clip-path="url(#p331d84e4b5)" style="fill: none; stroke: #2ca02c; stroke-width: 1.5; stroke-linecap: square"/>
   </g>
   <g id="line2d_13">
    <path d="M 47.72 34.007181 
L 59.167105 35.271387 
L 70.614211 37.260703 
L 82.061316 40.010152 
L 93.508421 43.648443 
L 104.955526 48.231121 
L 116.402632 53.011583 
L 127.849737 57.980268 
L 139.296842 62.894069 
L 150.743947 68.257207 
L 162.191053 73.171953 
L 173.638158 77.761348 
L 185.085263 81.968566 
L 196.532368 86.774873 
L 207.979474 90.572845 
L 219.426579 94.950124 
L 230.873684 98.917544 
L 242.320789 102.330358 
L 253.767895 106.102279 
L 265.215 110.256185 
" clip-path="url(#p331d84e4b5)" style="fill: none; stroke: #d62728; stroke-width: 1.5; stroke-linecap: square"/>
   </g>
   <g id="line2d_14">
    <path d="M 47.72 33.989298 
L 59.167105 36.079701 
L 70.614211 41.738016 
L 82.061316 49.458556 
L 93.508421 58.867535 
L 104.955526 69.075442 
L 116.402632 78.850008 
L 127.849737 88.003351 
L 139.296842 97.246656 
L 150.743947 105.908803 
L 162.191053 113.120392 
L 173.638158 119.968268 
L 185.085263 126.757351 
L 196.532368 132.421916 
L 207.979474 136.439549 
L 219.426579 141.587239 
L 230.873684 146.511499 
L 242.320789 149.882193 
L 253.767895 153.222568 
L 265.215 156.100745 
" clip-path="url(#p331d84e4b5)" style="fill: none; stroke: #9467bd; stroke-width: 1.5; stroke-linecap: square"/>
   </g>
   <g id="line2d_15">
    <path d="M 47.72 34.006957 
L 59.167105 35.3395 
L 70.614211 38.356613 
L 82.061316 42.960867 
L 93.508421 49.275093 
L 104.955526 57.128049 
L 116.402632 65.08854 
L 127.849737 73.413732 
L 139.296842 82.002178 
L 150.743947 90.751308 
L 162.191053 98.546478 
L 173.638158 105.582086 
L 185.085263 113.381965 
L 196.532368 119.681851 
L 207.979474 124.680443 
L 219.426579 130.36233 
L 230.873684 135.908989 
L 242.320789 139.665793 
L 253.767895 143.862208 
L 265.215 147.200635 
" clip-path="url(#p331d84e4b5)" style="fill: none; stroke: #8c564b; stroke-width: 1.5; stroke-linecap: square"/>
   </g>
   <g id="line2d_16">
    <path d="M 47.72 46.679875 
L 59.167105 49.160269 
L 70.614211 55.959112 
L 82.061316 64.76113 
L 93.508421 75.793258 
L 104.955526 86.778821 
L 116.402632 97.670521 
L 127.849737 106.874417 
L 139.296842 115.750476 
L 150.743947 123.119693 
L 162.191053 129.886369 
L 173.638158 135.497112 
L 185.085263 141.19955 
L 196.532368 145.343201 
L 207.979474 148.959496 
L 219.426579 152.786116 
L 230.873684 156.348559 
L 242.320789 158.81036 
L 253.767895 161.724077 
L 265.215 163.588373 
" clip-path="url(#p331d84e4b5)" style="fill: none; stroke: #e377c2; stroke-width: 1.5; stroke-linecap: square"/>
   </g>
   <g id="line2d_17">
    <path d="M 47.72 34.012464 
L 59.167105 34.671034 
L 70.614211 35.302281 
L 82.061316 37.299719 
L 93.508421 41.083708 
L 104.955526 46.964157 
L 116.402632 54.044537 
L 127.849737 61.580973 
L 139.296842 70.08638 
L 150.743947 78.925902 
L 162.191053 87.197651 
L 173.638158 94.742234 
L 185.085263 102.643685 
L 196.532368 109.310598 
L 207.979474 114.951079 
L 219.426579 121.144055 
L 230.873684 126.677522 
L 242.320789 130.727548 
L 253.767895 135.809594 
L 265.215 139.6179 
" clip-path="url(#p331d84e4b5)" style="fill: none; stroke: #7f7f7f; stroke-width: 1.5; stroke-linecap: square"/>
   </g>
   <g id="patch_3">
    <path d="M 47.72 174.04 
L 47.72 26.88 
" style="fill: none; stroke: #000000; stroke-width: 0.8; stroke-linejoin: miter; stroke-linecap: square"/>
   </g>
   <g id="patch_4">
    <path d="M 47.72 174.04 
L 265.215 174.04 
" style="fill: none; stroke: #000000; stroke-width: 0.8; stroke-linejoin: miter; stroke-linecap: square"/>
   </g>
   <g id="text_12">
    <!-- Node * surprisal -->
    <g transform="translate(108.18625 20.88)scale(0.12 -0.12)">
     <defs>
      <path id="DejaVuSans-4e" d="M 628 4666 
L 1478 4666 
L 3547 763 
L 3547 4666 
L 4159 4666 
L 4159 0 
L 3309 0 
L 1241 3903 
L 1241 0 
L 628 0 
L 628 4666 
z
" transform="scale(0.015625)"/>
      <path id="DejaVuSans-64" d="M 2906 2969 
L 2906 4863 
L 3481 4863 
L 3481 0 
L 2906 0 
L 2906 525 
Q 2725 213 2448 61 
Q 2172 -91 1784 -91 
Q 1150 -91 751 415 
Q 353 922 353 1747 
Q 353 2572 751 3078 
Q 1150 3584 1784 3584 
Q 2172 3584 2448 3432 
Q 2725 3281 2906 2969 
z
M 947 1747 
Q 947 1113 1208 752 
Q 1469 391 1925 391 
Q 2381 391 2643 752 
Q 2906 1113 2906 1747 
Q 2906 2381 2643 2742 
Q 2381 3103 1925 3103 
Q 1469 3103 1208 2742 
Q 947 2381 947 1747 
z
" transform="scale(0.015625)"/>
      <path id="DejaVuSans-2a" d="M 3009 3897 
L 1888 3291 
L 3009 2681 
L 2828 2375 
L 1778 3009 
L 1778 1831 
L 1422 1831 
L 1422 3009 
L 372 2375 
L 191 2681 
L 1313 3291 
L 191 3897 
L 372 4206 
L 1422 3572 
L 1422 4750 
L 1778 4750 
L 1778 3572 
L 2828 4206 
L 3009 3897 
z
" transform="scale(0.015625)"/>
     </defs>
     <use xlink:href="#DejaVuSans-4e"/>
     <use xlink:href="#DejaVuSans-6f" x="74.804688"/>
     <use xlink:href="#DejaVuSans-64" x="135.986328"/>
     <use xlink:href="#DejaVuSans-65" x="199.462891"/>
     <use xlink:href="#DejaVuSans-20" x="260.986328"/>
     <use xlink:href="#DejaVuSans-2a" x="292.773438"/>
     <use xlink:href="#DejaVuSans-20" x="342.773438"/>
     <use xlink:href="#DejaVuSans-73" x="374.560547"/>
     <use xlink:href="#DejaVuSans-75" x="426.660156"/>
     <use xlink:href="#DejaVuSans-72" x="490.039062"/>
     <use xlink:href="#DejaVuSans-70" x="531.152344"/>
     <use xlink:href="#DejaVuSans-72" x="594.628906"/>
     <use xlink:href="#DejaVuSans-69" x="635.742188"/>
     <use xlink:href="#DejaVuSans-73" x="663.525391"/>
     <use xlink:href="#DejaVuSans-61" x="715.625"/>
     <use xlink:href="#DejaVuSans-6c" x="776.904297"/>
    </g>
   </g>
  </g>
  <g id="axes_2">
   <g id="patch_5">
    <path d="M 298.065 174.04 
L 515.56 174.04 
L 515.56 26.88 
L 298.065 26.88 
z
" style="fill: #ffffff"/>
   </g>
   <g id="PolyCollection_9">
    <path d="M 298.065 33.673122 
L 298.065 34.483895 
L 309.512105 36.711706 
L 320.959211 43.145211 
L 332.406316 51.87715 
L 343.853421 62.28957 
L 355.300526 73.016556 
L 366.747632 82.851716 
L 378.194737 91.624607 
L 389.641842 100.82057 
L 401.088947 108.561906 
L 412.536053 115.466809 
L 423.983158 122.777247 
L 435.430263 128.431525 
L 446.877368 134.382644 
L 458.324474 138.897198 
L 469.771579 143.473536 
L 481.218684 147.276275 
L 492.665789 150.881668 
L 504.112895 153.275086 
L 515.56 156.283496 
L 515.56 150.926493 
L 515.56 150.926493 
L 504.112895 147.65387 
L 492.665789 143.621752 
L 481.218684 139.741623 
L 469.771579 135.087764 
L 458.324474 129.691383 
L 446.877368 123.737369 
L 435.430263 118.63882 
L 423.983158 110.764385 
L 412.536053 103.969159 
L 401.088947 96.318168 
L 389.641842 88.788449 
L 378.194737 79.975809 
L 366.747632 71.789289 
L 355.300526 62.611654 
L 343.853421 53.645464 
L 332.406316 46.549853 
L 320.959211 41.044455 
L 309.512105 35.593494 
L 298.065 33.673122 
z
" clip-path="url(#p75803bb762)" style="fill: #1f77b4; fill-opacity: 0.4"/>
   </g>
   <g id="PolyCollection_10">
    <path d="M 298.065 33.685126 
L 298.065 34.48282 
L 309.512105 36.720669 
L 320.959211 43.164809 
L 332.406316 51.893634 
L 343.853421 62.313827 
L 355.300526 73.049144 
L 366.747632 82.969614 
L 378.194737 91.706523 
L 389.641842 100.947586 
L 401.088947 108.773909 
L 412.536053 115.675555 
L 423.983158 123.032906 
L 435.430263 128.69668 
L 446.877368 134.723737 
L 458.324474 139.296014 
L 469.771579 143.910699 
L 481.218684 147.897212 
L 492.665789 151.590203 
L 504.112895 154.330921 
L 515.56 157.379867 
L 515.56 151.245509 
L 515.56 151.245509 
L 504.112895 147.957346 
L 492.665789 144.042557 
L 481.218684 140.060976 
L 469.771579 135.593023 
L 458.324474 130.177223 
L 446.877368 124.249857 
L 435.430263 118.985495 
L 423.983158 111.088749 
L 412.536053 104.054856 
L 401.088947 96.43609 
L 389.641842 88.909669 
L 378.194737 80.047263 
L 366.747632 71.851627 
L 355.300526 62.67863 
L 343.853421 53.704858 
L 332.406316 46.583744 
L 320.959211 41.071774 
L 309.512105 35.595642 
L 298.065 33.685126 
z
" clip-path="url(#p75803bb762)" style="fill: #ff7f0e; fill-opacity: 0.4"/>
   </g>
   <g id="PolyCollection_11">
    <path d="M 298.065 33.688149 
L 298.065 34.491379 
L 309.512105 36.734306 
L 320.959211 43.173454 
L 332.406316 51.927122 
L 343.853421 62.426867 
L 355.300526 73.168228 
L 366.747632 83.213962 
L 378.194737 91.999327 
L 389.641842 101.235296 
L 401.088947 109.009173 
L 412.536053 115.903665 
L 423.983158 123.150818 
L 435.430263 128.708048 
L 446.877368 134.923496 
L 458.324474 139.340533 
L 469.771579 143.79798 
L 481.218684 148.04119 
L 492.665789 151.421998 
L 504.112895 153.87122 
L 515.56 157.153851 
L 515.56 152.036661 
L 515.56 152.036661 
L 504.112895 149.047316 
L 492.665789 144.959751 
L 481.218684 141.087916 
L 469.771579 136.562943 
L 458.324474 130.986789 
L 446.877368 124.910851 
L 435.430263 119.663146 
L 423.983158 111.759442 
L 412.536053 104.778019 
L 401.088947 96.935019 
L 389.641842 89.277461 
L 378.194737 80.421846 
L 366.747632 72.135034 
L 355.300526 62.815537 
L 343.853421 53.760768 
L 332.406316 46.602599 
L 320.959211 41.08762 
L 309.512105 35.598364 
L 298.065 33.688149 
z
" clip-path="url(#p75803bb762)" style="fill: #2ca02c; fill-opacity: 0.4"/>
   </g>
   <g id="PolyCollection_12">
    <path d="M 298.065 33.694863 
L 298.065 34.492258 
L 309.512105 36.735701 
L 320.959211 43.189897 
L 332.406316 51.949187 
L 343.853421 62.498319 
L 355.300526 73.260127 
L 366.747632 83.43291 
L 378.194737 92.228671 
L 389.641842 101.54342 
L 401.088947 109.42598 
L 412.536053 116.386242 
L 423.983158 123.683312 
L 435.430263 129.193479 
L 446.877368 135.696164 
L 458.324474 140.182046 
L 469.771579 144.419504 
L 481.218684 149.069103 
L 492.665789 152.457801 
L 504.112895 155.308956 
L 515.56 158.657202 
L 515.56 152.755475 
L 515.56 152.755475 
L 504.112895 149.755332 
L 492.665789 146.052353 
L 481.218684 141.90471 
L 469.771579 137.677877 
L 458.324474 131.83146 
L 446.877368 125.727041 
L 435.430263 120.322642 
L 423.983158 112.360491 
L 412.536053 105.210634 
L 401.088947 97.259293 
L 389.641842 89.555965 
L 378.194737 80.612104 
L 366.747632 72.248828 
L 355.300526 62.973282 
L 343.853421 53.832757 
L 332.406316 46.668899 
L 320.959211 41.123605 
L 309.512105 35.611845 
L 298.065 33.694863 
z
" clip-path="url(#p75803bb762)" style="fill: #d62728; fill-opacity: 0.4"/>
   </g>
   <g id="PolyCollection_13">
    <path d="M 298.065 33.681197 
L 298.065 34.499607 
L 309.512105 36.72884 
L 320.959211 43.163182 
L 332.406316 51.964749 
L 343.853421 62.32966 
L 355.300526 73.110015 
L 366.747632 82.855989 
L 378.194737 91.807225 
L 389.641842 101.169107 
L 401.088947 109.115658 
L 412.536053 115.659777 
L 423.983158 122.883219 
L 435.430263 128.84947 
L 446.877368 134.470995 
L 458.324474 138.938082 
L 469.771579 143.671237 
L 481.218684 148.123015 
L 492.665789 151.927197 
L 504.112895 155.873818 
L 515.56 156.888517 
L 515.56 151.040667 
L 515.56 151.040667 
L 504.112895 147.829735 
L 492.665789 144.171618 
L 481.218684 140.782385 
L 469.771579 135.225747 
L 458.324474 129.885288 
L 446.877368 124.445939 
L 435.430263 118.979992 
L 423.983158 111.664684 
L 412.536053 104.242793 
L 401.088947 96.120923 
L 389.641842 89.11324 
L 378.194737 80.17673 
L 366.747632 71.903526 
L 355.300526 62.695147 
L 343.853421 53.782079 
L 332.406316 46.513975 
L 320.959211 41.139798 
L 309.512105 35.598365 
L 298.065 33.681197 
z
" clip-path="url(#p75803bb762)" style="fill: #9467bd; fill-opacity: 0.4"/>
   </g>
   <g id="PolyCollection_14">
    <path d="M 298.065 33.69268 
L 298.065 34.498068 
L 309.512105 36.737272 
L 320.959211 43.180656 
L 332.406316 51.982387 
L 343.853421 62.346015 
L 355.300526 73.140782 
L 366.747632 82.969054 
L 378.194737 91.887458 
L 389.641842 101.308244 
L 401.088947 109.331508 
L 412.536053 115.879079 
L 423.983158 123.21225 
L 435.430263 129.154053 
L 446.877368 134.912807 
L 458.324474 139.405792 
L 469.771579 144.135104 
L 481.218684 148.711265 
L 492.665789 152.561636 
L 504.112895 156.926455 
L 515.56 158.017757 
L 515.56 151.303102 
L 515.56 151.303102 
L 504.112895 148.005224 
L 492.665789 144.660505 
L 481.218684 141.120402 
L 469.771579 135.687095 
L 458.324474 130.323438 
L 446.877368 124.893159 
L 435.430263 119.280378 
L 423.983158 111.963193 
L 412.536053 104.313584 
L 401.088947 96.240294 
L 389.641842 89.245293 
L 378.194737 80.251709 
L 366.747632 71.97711 
L 355.300526 62.771165 
L 343.853421 53.842519 
L 332.406316 46.547047 
L 320.959211 41.168911 
L 309.512105 35.600276 
L 298.065 33.69268 
z
" clip-path="url(#p75803bb762)" style="fill: #8c564b; fill-opacity: 0.4"/>
   </g>
   <g id="PolyCollection_15">
    <path d="M 298.065 44.369153 
L 298.065 48.516542 
L 309.512105 50.207277 
L 320.959211 55.623135 
L 332.406316 62.76902 
L 343.853421 72.290394 
L 355.300526 81.911169 
L 366.747632 91.497553 
L 378.194737 99.841752 
L 389.641842 109.253167 
L 401.088947 116.378671 
L 412.536053 123.500037 
L 423.983158 129.858552 
L 435.430263 135.433 
L 446.877368 140.36436 
L 458.324474 144.760621 
L 469.771579 149.004291 
L 481.218684 152.355343 
L 492.665789 155.647319 
L 504.112895 157.976106 
L 515.56 160.600823 
L 515.56 154.251954 
L 515.56 154.251954 
L 504.112895 150.998454 
L 492.665789 146.844002 
L 481.218684 143.350391 
L 469.771579 138.911686 
L 458.324474 133.790875 
L 446.877368 127.855126 
L 435.430263 123.203819 
L 423.983158 116.08937 
L 412.536053 109.327776 
L 401.088947 102.887218 
L 389.641842 95.986553 
L 378.194737 88.312075 
L 366.747632 80.965136 
L 355.300526 73.000833 
L 343.853421 64.595149 
L 332.406316 57.989724 
L 320.959211 52.106623 
L 309.512105 46.534117 
L 298.065 44.369153 
z
" clip-path="url(#p75803bb762)" style="fill: #e377c2; fill-opacity: 0.4"/>
   </g>
   <g id="PolyCollection_16">
    <path d="M 298.065 33.696781 
L 298.065 34.500552 
L 309.512105 36.725609 
L 320.959211 43.195849 
L 332.406316 51.955151 
L 343.853421 62.428966 
L 355.300526 73.180493 
L 366.747632 83.254385 
L 378.194737 92.087144 
L 389.641842 101.305599 
L 401.088947 109.139966 
L 412.536053 116.196371 
L 423.983158 123.444774 
L 435.430263 129.148912 
L 446.877368 135.21746 
L 458.324474 139.668162 
L 469.771579 144.251989 
L 481.218684 148.315574 
L 492.665789 151.698013 
L 504.112895 154.637724 
L 515.56 158.016879 
L 515.56 152.844534 
L 515.56 152.844534 
L 504.112895 149.943395 
L 492.665789 145.922261 
L 481.218684 141.951764 
L 469.771579 137.200364 
L 458.324474 131.547041 
L 446.877368 125.537426 
L 435.430263 120.170133 
L 423.983158 112.143755 
L 412.536053 105.143369 
L 401.088947 97.380444 
L 389.641842 89.66793 
L 378.194737 80.776979 
L 366.747632 72.366413 
L 355.300526 63.006549 
L 343.853421 53.96713 
L 332.406316 46.731238 
L 320.959211 41.158948 
L 309.512105 35.617096 
L 298.065 33.696781 
z
" clip-path="url(#p75803bb762)" style="fill: #7f7f7f; fill-opacity: 0.4"/>
   </g>
   <g id="matplotlib.axis_3">
    <g id="xtick_6">
     <g id="line2d_18">
      <g>
       <use xlink:href="#m2788bedd8c" x="298.065" y="174.04" style="stroke: #000000; stroke-width: 0.8"/>
      </g>
     </g>
     <g id="text_13">
      <!-- 0.0 -->
      <g transform="translate(290.113437 188.638438)scale(0.1 -0.1)">
       <use xlink:href="#DejaVuSans-30"/>
       <use xlink:href="#DejaVuSans-2e" x="63.623047"/>
       <use xlink:href="#DejaVuSans-30" x="95.410156"/>
      </g>
     </g>
    </g>
    <g id="xtick_7">
     <g id="line2d_19">
      <g>
       <use xlink:href="#m2788bedd8c" x="352.43875" y="174.04" style="stroke: #000000; stroke-width: 0.8"/>
      </g>
     </g>
     <g id="text_14">
      <!-- 0.5 -->
      <g transform="translate(344.487187 188.638438)scale(0.1 -0.1)">
       <use xlink:href="#DejaVuSans-30"/>
       <use xlink:href="#DejaVuSans-2e" x="63.623047"/>
       <use xlink:href="#DejaVuSans-35" x="95.410156"/>
      </g>
     </g>
    </g>
    <g id="xtick_8">
     <g id="line2d_20">
      <g>
       <use xlink:href="#m2788bedd8c" x="406.8125" y="174.04" style="stroke: #000000; stroke-width: 0.8"/>
      </g>
     </g>
     <g id="text_15">
      <!-- 1.0 -->
      <g transform="translate(398.860937 188.638438)scale(0.1 -0.1)">
       <use xlink:href="#DejaVuSans-31"/>
       <use xlink:href="#DejaVuSans-2e" x="63.623047"/>
       <use xlink:href="#DejaVuSans-30" x="95.410156"/>
      </g>
     </g>
    </g>
    <g id="xtick_9">
     <g id="line2d_21">
      <g>
       <use xlink:href="#m2788bedd8c" x="461.18625" y="174.04" style="stroke: #000000; stroke-width: 0.8"/>
      </g>
     </g>
     <g id="text_16">
      <!-- 1.5 -->
      <g transform="translate(453.234687 188.638438)scale(0.1 -0.1)">
       <use xlink:href="#DejaVuSans-31"/>
       <use xlink:href="#DejaVuSans-2e" x="63.623047"/>
       <use xlink:href="#DejaVuSans-35" x="95.410156"/>
      </g>
     </g>
    </g>
    <g id="xtick_10">
     <g id="line2d_22">
      <g>
       <use xlink:href="#m2788bedd8c" x="515.56" y="174.04" style="stroke: #000000; stroke-width: 0.8"/>
      </g>
     </g>
     <g id="text_17">
      <!-- 2.0 -->
      <g transform="translate(507.608437 188.638438)scale(0.1 -0.1)">
       <use xlink:href="#DejaVuSans-32"/>
       <use xlink:href="#DejaVuSans-2e" x="63.623047"/>
       <use xlink:href="#DejaVuSans-30" x="95.410156"/>
      </g>
     </g>
    </g>
    <g id="text_18">
     <!-- Influence of surprisal (multiplication) -->
     <g transform="translate(314.665625 202.316563)scale(0.1 -0.1)">
      <use xlink:href="#DejaVuSans-49"/>
      <use xlink:href="#DejaVuSans-6e" x="29.492188"/>
      <use xlink:href="#DejaVuSans-66" x="92.871094"/>
      <use xlink:href="#DejaVuSans-6c" x="128.076172"/>
      <use xlink:href="#DejaVuSans-75" x="155.859375"/>
      <use xlink:href="#DejaVuSans-65" x="219.238281"/>
      <use xlink:href="#DejaVuSans-6e" x="280.761719"/>
      <use xlink:href="#DejaVuSans-63" x="344.140625"/>
      <use xlink:href="#DejaVuSans-65" x="399.121094"/>
      <use xlink:href="#DejaVuSans-20" x="460.644531"/>
      <use xlink:href="#DejaVuSans-6f" x="492.431641"/>
      <use xlink:href="#DejaVuSans-66" x="553.613281"/>
      <use xlink:href="#DejaVuSans-20" x="588.818359"/>
      <use xlink:href="#DejaVuSans-73" x="620.605469"/>
      <use xlink:href="#DejaVuSans-75" x="672.705078"/>
      <use xlink:href="#DejaVuSans-72" x="736.083984"/>
      <use xlink:href="#DejaVuSans-70" x="777.197266"/>
      <use xlink:href="#DejaVuSans-72" x="840.673828"/>
      <use xlink:href="#DejaVuSans-69" x="881.787109"/>
      <use xlink:href="#DejaVuSans-73" x="909.570312"/>
      <use xlink:href="#DejaVuSans-61" x="961.669922"/>
      <use xlink:href="#DejaVuSans-6c" x="1022.949219"/>
      <use xlink:href="#DejaVuSans-20" x="1050.732422"/>
      <use xlink:href="#DejaVuSans-28" x="1082.519531"/>
      <use xlink:href="#DejaVuSans-6d" x="1121.533203"/>
      <use xlink:href="#DejaVuSans-75" x="1218.945312"/>
      <use xlink:href="#DejaVuSans-6c" x="1282.324219"/>
      <use xlink:href="#DejaVuSans-74" x="1310.107422"/>
      <use xlink:href="#DejaVuSans-69" x="1349.316406"/>
      <use xlink:href="#DejaVuSans-70" x="1377.099609"/>
      <use xlink:href="#DejaVuSans-6c" x="1440.576172"/>
      <use xlink:href="#DejaVuSans-69" x="1468.359375"/>
      <use xlink:href="#DejaVuSans-63" x="1496.142578"/>
      <use xlink:href="#DejaVuSans-61" x="1551.123047"/>
      <use xlink:href="#DejaVuSans-74" x="1612.402344"/>
      <use xlink:href="#DejaVuSans-69" x="1651.611328"/>
      <use xlink:href="#DejaVuSans-6f" x="1679.394531"/>
      <use xlink:href="#DejaVuSans-6e" x="1740.576172"/>
      <use xlink:href="#DejaVuSans-29" x="1803.955078"/>
     </g>
    </g>
   </g>
   <g id="line2d_23">
    <path d="M 298.065 34.078509 
L 309.512105 36.1526 
L 320.959211 42.094833 
L 332.406316 49.213502 
L 343.853421 57.967517 
L 355.300526 67.814105 
L 366.747632 77.320503 
L 378.194737 85.800208 
L 389.641842 94.80451 
L 401.088947 102.440037 
L 412.536053 109.717984 
L 423.983158 116.770816 
L 435.430263 123.535173 
L 446.877368 129.060007 
L 458.324474 134.294291 
L 469.771579 139.28065 
L 481.218684 143.508949 
L 492.665789 147.25171 
L 504.112895 150.464478 
L 515.56 153.604995 
" clip-path="url(#p75803bb762)" style="fill: none; stroke: #1f77b4; stroke-width: 1.5; stroke-linecap: square"/>
   </g>
   <g id="line2d_24">
    <path d="M 298.065 34.083973 
L 309.512105 36.158155 
L 320.959211 42.118292 
L 332.406316 49.238689 
L 343.853421 58.009343 
L 355.300526 67.863887 
L 366.747632 77.41062 
L 378.194737 85.876893 
L 389.641842 94.928628 
L 401.088947 102.605 
L 412.536053 109.865205 
L 423.983158 117.060828 
L 435.430263 123.841088 
L 446.877368 129.486797 
L 458.324474 134.736619 
L 469.771579 139.751861 
L 481.218684 143.979094 
L 492.665789 147.81638 
L 504.112895 151.144133 
L 515.56 154.312688 
" clip-path="url(#p75803bb762)" style="fill: none; stroke: #ff7f0e; stroke-width: 1.5; stroke-linecap: square"/>
   </g>
   <g id="line2d_25">
    <path d="M 298.065 34.089764 
L 309.512105 36.166335 
L 320.959211 42.130537 
L 332.406316 49.26486 
L 343.853421 58.093818 
L 355.300526 67.991883 
L 366.747632 77.674498 
L 378.194737 86.210587 
L 389.641842 95.256379 
L 401.088947 102.972096 
L 412.536053 110.340842 
L 423.983158 117.45513 
L 435.430263 124.185597 
L 446.877368 129.917173 
L 458.324474 135.163661 
L 469.771579 140.180461 
L 481.218684 144.564553 
L 492.665789 148.190875 
L 504.112895 151.459268 
L 515.56 154.595256 
" clip-path="url(#p75803bb762)" style="fill: none; stroke: #2ca02c; stroke-width: 1.5; stroke-linecap: square"/>
   </g>
   <g id="line2d_26">
    <path d="M 298.065 34.093561 
L 309.512105 36.173773 
L 320.959211 42.156751 
L 332.406316 49.309043 
L 343.853421 58.165538 
L 355.300526 68.116704 
L 366.747632 77.840869 
L 378.194737 86.420388 
L 389.641842 95.549693 
L 401.088947 103.342637 
L 412.536053 110.798438 
L 423.983158 118.021901 
L 435.430263 124.75806 
L 446.877368 130.711602 
L 458.324474 136.006753 
L 469.771579 141.04869 
L 481.218684 145.486906 
L 492.665789 149.255077 
L 504.112895 152.532144 
L 515.56 155.706338 
" clip-path="url(#p75803bb762)" style="fill: none; stroke: #d62728; stroke-width: 1.5; stroke-linecap: square"/>
   </g>
   <g id="line2d_27">
    <path d="M 298.065 34.090402 
L 309.512105 36.163603 
L 320.959211 42.15149 
L 332.406316 49.239362 
L 343.853421 58.055869 
L 355.300526 67.902581 
L 366.747632 77.379757 
L 378.194737 85.991978 
L 389.641842 95.141174 
L 401.088947 102.61829 
L 412.536053 109.951285 
L 423.983158 117.273951 
L 435.430263 123.914731 
L 446.877368 129.458467 
L 458.324474 134.411685 
L 469.771579 139.448492 
L 481.218684 144.4527 
L 492.665789 148.049408 
L 504.112895 151.851777 
L 515.56 153.964592 
" clip-path="url(#p75803bb762)" style="fill: none; stroke: #9467bd; stroke-width: 1.5; stroke-linecap: square"/>
   </g>
   <g id="line2d_28">
    <path d="M 298.065 34.095374 
L 309.512105 36.168774 
L 320.959211 42.174783 
L 332.406316 49.264717 
L 343.853421 58.094267 
L 355.300526 67.955973 
L 366.747632 77.473082 
L 378.194737 86.069583 
L 389.641842 95.276768 
L 401.088947 102.785901 
L 412.536053 110.096331 
L 423.983158 117.587722 
L 435.430263 124.217216 
L 446.877368 129.902983 
L 458.324474 134.864615 
L 469.771579 139.9111 
L 481.218684 144.915834 
L 492.665789 148.611071 
L 504.112895 152.465839 
L 515.56 154.660429 
" clip-path="url(#p75803bb762)" style="fill: none; stroke: #8c564b; stroke-width: 1.5; stroke-linecap: square"/>
   </g>
   <g id="line2d_29">
    <path d="M 298.065 46.442848 
L 309.512105 48.370697 
L 320.959211 53.864879 
L 332.406316 60.379372 
L 343.853421 68.442771 
L 355.300526 77.456001 
L 366.747632 86.231344 
L 378.194737 94.076913 
L 389.641842 102.61986 
L 401.088947 109.632945 
L 412.536053 116.413907 
L 423.983158 122.973961 
L 435.430263 129.318409 
L 446.877368 134.109743 
L 458.324474 139.275748 
L 469.771579 143.957988 
L 481.218684 147.852867 
L 492.665789 151.24566 
L 504.112895 154.48728 
L 515.56 157.426388 
" clip-path="url(#p75803bb762)" style="fill: none; stroke: #e377c2; stroke-width: 1.5; stroke-linecap: square"/>
   </g>
   <g id="line2d_30">
    <path d="M 298.065 34.098667 
L 309.512105 36.171353 
L 320.959211 42.177398 
L 332.406316 49.343195 
L 343.853421 58.198048 
L 355.300526 68.093521 
L 366.747632 77.810399 
L 378.194737 86.432062 
L 389.641842 95.486764 
L 401.088947 103.260205 
L 412.536053 110.66987 
L 423.983158 117.794264 
L 435.430263 124.659523 
L 446.877368 130.377443 
L 458.324474 135.607602 
L 469.771579 140.726176 
L 481.218684 145.133669 
L 492.665789 148.810137 
L 504.112895 152.29056 
L 515.56 155.430707 
" clip-path="url(#p75803bb762)" style="fill: none; stroke: #7f7f7f; stroke-width: 1.5; stroke-linecap: square"/>
   </g>
   <g id="patch_6">
    <path d="M 298.065 174.04 
L 298.065 26.88 
" style="fill: none; stroke: #000000; stroke-width: 0.8; stroke-linejoin: miter; stroke-linecap: square"/>
   </g>
   <g id="patch_7">
    <path d="M 298.065 174.04 
L 515.56 174.04 
" style="fill: none; stroke: #000000; stroke-width: 0.8; stroke-linejoin: miter; stroke-linecap: square"/>
   </g>
   <g id="text_19">
    <!-- Node * third variable -->
    <g transform="translate(344.2325 20.88)scale(0.12 -0.12)">
     <defs>
      <path id="DejaVuSans-68" d="M 3513 2113 
L 3513 0 
L 2938 0 
L 2938 2094 
Q 2938 2591 2744 2837 
Q 2550 3084 2163 3084 
Q 1697 3084 1428 2787 
Q 1159 2491 1159 1978 
L 1159 0 
L 581 0 
L 581 4863 
L 1159 4863 
L 1159 2956 
Q 1366 3272 1645 3428 
Q 1925 3584 2291 3584 
Q 2894 3584 3203 3211 
Q 3513 2838 3513 2113 
z
" transform="scale(0.015625)"/>
      <path id="DejaVuSans-62" d="M 3116 1747 
Q 3116 2381 2855 2742 
Q 2594 3103 2138 3103 
Q 1681 3103 1420 2742 
Q 1159 2381 1159 1747 
Q 1159 1113 1420 752 
Q 1681 391 2138 391 
Q 2594 391 2855 752 
Q 3116 1113 3116 1747 
z
M 1159 2969 
Q 1341 3281 1617 3432 
Q 1894 3584 2278 3584 
Q 2916 3584 3314 3078 
Q 3713 2572 3713 1747 
Q 3713 922 3314 415 
Q 2916 -91 2278 -91 
Q 1894 -91 1617 61 
Q 1341 213 1159 525 
L 1159 0 
L 581 0 
L 581 4863 
L 1159 4863 
L 1159 2969 
z
" transform="scale(0.015625)"/>
     </defs>
     <use xlink:href="#DejaVuSans-4e"/>
     <use xlink:href="#DejaVuSans-6f" x="74.804688"/>
     <use xlink:href="#DejaVuSans-64" x="135.986328"/>
     <use xlink:href="#DejaVuSans-65" x="199.462891"/>
     <use xlink:href="#DejaVuSans-20" x="260.986328"/>
     <use xlink:href="#DejaVuSans-2a" x="292.773438"/>
     <use xlink:href="#DejaVuSans-20" x="342.773438"/>
     <use xlink:href="#DejaVuSans-74" x="374.560547"/>
     <use xlink:href="#DejaVuSans-68" x="413.769531"/>
     <use xlink:href="#DejaVuSans-69" x="477.148438"/>
     <use xlink:href="#DejaVuSans-72" x="504.931641"/>
     <use xlink:href="#DejaVuSans-64" x="544.294922"/>
     <use xlink:href="#DejaVuSans-20" x="607.771484"/>
     <use xlink:href="#DejaVuSans-76" x="639.558594"/>
     <use xlink:href="#DejaVuSans-61" x="698.738281"/>
     <use xlink:href="#DejaVuSans-72" x="760.017578"/>
     <use xlink:href="#DejaVuSans-69" x="801.130859"/>
     <use xlink:href="#DejaVuSans-61" x="828.914062"/>
     <use xlink:href="#DejaVuSans-62" x="890.193359"/>
     <use xlink:href="#DejaVuSans-6c" x="953.669922"/>
     <use xlink:href="#DejaVuSans-65" x="981.453125"/>
    </g>
   </g>
   <g id="legend_1">
    <g id="line2d_31">
     <path d="M 524.56 39.978437 
L 534.56 39.978437 
L 544.56 39.978437 
" style="fill: none; stroke: #1f77b4; stroke-width: 1.5; stroke-linecap: square"/>
    </g>
    <g id="text_20">
     <!-- Node -->
     <g transform="translate(552.56 43.478437)scale(0.1 -0.1)">
      <use xlink:href="#DejaVuSans-4e"/>
      <use xlink:href="#DejaVuSans-6f" x="74.804688"/>
      <use xlink:href="#DejaVuSans-64" x="135.986328"/>
      <use xlink:href="#DejaVuSans-65" x="199.462891"/>
     </g>
    </g>
    <g id="line2d_32">
     <path d="M 524.56 54.656563 
L 534.56 54.656563 
L 544.56 54.656563 
" style="fill: none; stroke: #ff7f0e; stroke-width: 1.5; stroke-linecap: square"/>
    </g>
    <g id="text_21">
     <!-- Node + surprisal -->
     <g transform="translate(552.56 58.156563)scale(0.1 -0.1)">
      <defs>
       <path id="DejaVuSans-2b" d="M 2944 4013 
L 2944 2272 
L 4684 2272 
L 4684 1741 
L 2944 1741 
L 2944 0 
L 2419 0 
L 2419 1741 
L 678 1741 
L 678 2272 
L 2419 2272 
L 2419 4013 
L 2944 4013 
z
" transform="scale(0.015625)"/>
      </defs>
      <use xlink:href="#DejaVuSans-4e"/>
      <use xlink:href="#DejaVuSans-6f" x="74.804688"/>
      <use xlink:href="#DejaVuSans-64" x="135.986328"/>
      <use xlink:href="#DejaVuSans-65" x="199.462891"/>
      <use xlink:href="#DejaVuSans-20" x="260.986328"/>
      <use xlink:href="#DejaVuSans-2b" x="292.773438"/>
      <use xlink:href="#DejaVuSans-20" x="376.5625"/>
      <use xlink:href="#DejaVuSans-73" x="408.349609"/>
      <use xlink:href="#DejaVuSans-75" x="460.449219"/>
      <use xlink:href="#DejaVuSans-72" x="523.828125"/>
      <use xlink:href="#DejaVuSans-70" x="564.941406"/>
      <use xlink:href="#DejaVuSans-72" x="628.417969"/>
      <use xlink:href="#DejaVuSans-69" x="669.53125"/>
      <use xlink:href="#DejaVuSans-73" x="697.314453"/>
      <use xlink:href="#DejaVuSans-61" x="749.414062"/>
      <use xlink:href="#DejaVuSans-6c" x="810.693359"/>
     </g>
    </g>
    <g id="line2d_33">
     <path d="M 524.56 69.334687 
L 534.56 69.334687 
L 544.56 69.334687 
" style="fill: none; stroke: #2ca02c; stroke-width: 1.5; stroke-linecap: square"/>
    </g>
    <g id="text_22">
     <!-- Node split -->
     <g transform="translate(552.56 72.834687)scale(0.1 -0.1)">
      <use xlink:href="#DejaVuSans-4e"/>
      <use xlink:href="#DejaVuSans-6f" x="74.804688"/>
      <use xlink:href="#DejaVuSans-64" x="135.986328"/>
      <use xlink:href="#DejaVuSans-65" x="199.462891"/>
      <use xlink:href="#DejaVuSans-20" x="260.986328"/>
      <use xlink:href="#DejaVuSans-73" x="292.773438"/>
      <use xlink:href="#DejaVuSans-70" x="344.873047"/>
      <use xlink:href="#DejaVuSans-6c" x="408.349609"/>
      <use xlink:href="#DejaVuSans-69" x="436.132812"/>
      <use xlink:href="#DejaVuSans-74" x="463.916016"/>
     </g>
    </g>
    <g id="line2d_34">
     <path d="M 524.56 84.012812 
L 534.56 84.012812 
L 544.56 84.012812 
" style="fill: none; stroke: #d62728; stroke-width: 1.5; stroke-linecap: square"/>
    </g>
    <g id="text_23">
     <!-- Node split + surprisal -->
     <g transform="translate(552.56 87.512812)scale(0.1 -0.1)">
      <use xlink:href="#DejaVuSans-4e"/>
      <use xlink:href="#DejaVuSans-6f" x="74.804688"/>
      <use xlink:href="#DejaVuSans-64" x="135.986328"/>
      <use xlink:href="#DejaVuSans-65" x="199.462891"/>
      <use xlink:href="#DejaVuSans-20" x="260.986328"/>
      <use xlink:href="#DejaVuSans-73" x="292.773438"/>
      <use xlink:href="#DejaVuSans-70" x="344.873047"/>
      <use xlink:href="#DejaVuSans-6c" x="408.349609"/>
      <use xlink:href="#DejaVuSans-69" x="436.132812"/>
      <use xlink:href="#DejaVuSans-74" x="463.916016"/>
      <use xlink:href="#DejaVuSans-20" x="503.125"/>
      <use xlink:href="#DejaVuSans-2b" x="534.912109"/>
      <use xlink:href="#DejaVuSans-20" x="618.701172"/>
      <use xlink:href="#DejaVuSans-73" x="650.488281"/>
      <use xlink:href="#DejaVuSans-75" x="702.587891"/>
      <use xlink:href="#DejaVuSans-72" x="765.966797"/>
      <use xlink:href="#DejaVuSans-70" x="807.080078"/>
      <use xlink:href="#DejaVuSans-72" x="870.556641"/>
      <use xlink:href="#DejaVuSans-69" x="911.669922"/>
      <use xlink:href="#DejaVuSans-73" x="939.453125"/>
      <use xlink:href="#DejaVuSans-61" x="991.552734"/>
      <use xlink:href="#DejaVuSans-6c" x="1052.832031"/>
     </g>
    </g>
    <g id="line2d_35">
     <path d="M 524.56 98.690937 
L 534.56 98.690937 
L 544.56 98.690937 
" style="fill: none; stroke: #9467bd; stroke-width: 1.5; stroke-linecap: square"/>
    </g>
    <g id="text_24">
     <!-- Node random split -->
     <g transform="translate(552.56 102.190937)scale(0.1 -0.1)">
      <use xlink:href="#DejaVuSans-4e"/>
      <use xlink:href="#DejaVuSans-6f" x="74.804688"/>
      <use xlink:href="#DejaVuSans-64" x="135.986328"/>
      <use xlink:href="#DejaVuSans-65" x="199.462891"/>
      <use xlink:href="#DejaVuSans-20" x="260.986328"/>
      <use xlink:href="#DejaVuSans-72" x="292.773438"/>
      <use xlink:href="#DejaVuSans-61" x="333.886719"/>
      <use xlink:href="#DejaVuSans-6e" x="395.166016"/>
      <use xlink:href="#DejaVuSans-64" x="458.544922"/>
      <use xlink:href="#DejaVuSans-6f" x="522.021484"/>
      <use xlink:href="#DejaVuSans-6d" x="583.203125"/>
      <use xlink:href="#DejaVuSans-20" x="680.615234"/>
      <use xlink:href="#DejaVuSans-73" x="712.402344"/>
      <use xlink:href="#DejaVuSans-70" x="764.501953"/>
      <use xlink:href="#DejaVuSans-6c" x="827.978516"/>
      <use xlink:href="#DejaVuSans-69" x="855.761719"/>
      <use xlink:href="#DejaVuSans-74" x="883.544922"/>
     </g>
    </g>
    <g id="line2d_36">
     <path d="M 524.56 113.369062 
L 534.56 113.369062 
L 544.56 113.369062 
" style="fill: none; stroke: #8c564b; stroke-width: 1.5; stroke-linecap: square"/>
    </g>
    <g id="text_25">
     <!-- Node random split + surprisal -->
     <g transform="translate(552.56 116.869062)scale(0.1 -0.1)">
      <use xlink:href="#DejaVuSans-4e"/>
      <use xlink:href="#DejaVuSans-6f" x="74.804688"/>
      <use xlink:href="#DejaVuSans-64" x="135.986328"/>
      <use xlink:href="#DejaVuSans-65" x="199.462891"/>
      <use xlink:href="#DejaVuSans-20" x="260.986328"/>
      <use xlink:href="#DejaVuSans-72" x="292.773438"/>
      <use xlink:href="#DejaVuSans-61" x="333.886719"/>
      <use xlink:href="#DejaVuSans-6e" x="395.166016"/>
      <use xlink:href="#DejaVuSans-64" x="458.544922"/>
      <use xlink:href="#DejaVuSans-6f" x="522.021484"/>
      <use xlink:href="#DejaVuSans-6d" x="583.203125"/>
      <use xlink:href="#DejaVuSans-20" x="680.615234"/>
      <use xlink:href="#DejaVuSans-73" x="712.402344"/>
      <use xlink:href="#DejaVuSans-70" x="764.501953"/>
      <use xlink:href="#DejaVuSans-6c" x="827.978516"/>
      <use xlink:href="#DejaVuSans-69" x="855.761719"/>
      <use xlink:href="#DejaVuSans-74" x="883.544922"/>
      <use xlink:href="#DejaVuSans-20" x="922.753906"/>
      <use xlink:href="#DejaVuSans-2b" x="954.541016"/>
      <use xlink:href="#DejaVuSans-20" x="1038.330078"/>
      <use xlink:href="#DejaVuSans-73" x="1070.117188"/>
      <use xlink:href="#DejaVuSans-75" x="1122.216797"/>
      <use xlink:href="#DejaVuSans-72" x="1185.595703"/>
      <use xlink:href="#DejaVuSans-70" x="1226.708984"/>
      <use xlink:href="#DejaVuSans-72" x="1290.185547"/>
      <use xlink:href="#DejaVuSans-69" x="1331.298828"/>
      <use xlink:href="#DejaVuSans-73" x="1359.082031"/>
      <use xlink:href="#DejaVuSans-61" x="1411.181641"/>
      <use xlink:href="#DejaVuSans-6c" x="1472.460938"/>
     </g>
    </g>
    <g id="line2d_37">
     <path d="M 524.56 128.047187 
L 534.56 128.047187 
L 544.56 128.047187 
" style="fill: none; stroke: #e377c2; stroke-width: 1.5; stroke-linecap: square"/>
    </g>
    <g id="text_26">
     <!-- Interaction -->
     <g transform="translate(552.56 131.547187)scale(0.1 -0.1)">
      <use xlink:href="#DejaVuSans-49"/>
      <use xlink:href="#DejaVuSans-6e" x="29.492188"/>
      <use xlink:href="#DejaVuSans-74" x="92.871094"/>
      <use xlink:href="#DejaVuSans-65" x="132.080078"/>
      <use xlink:href="#DejaVuSans-72" x="193.603516"/>
      <use xlink:href="#DejaVuSans-61" x="234.716797"/>
      <use xlink:href="#DejaVuSans-63" x="295.996094"/>
      <use xlink:href="#DejaVuSans-74" x="350.976562"/>
      <use xlink:href="#DejaVuSans-69" x="390.185547"/>
      <use xlink:href="#DejaVuSans-6f" x="417.96875"/>
      <use xlink:href="#DejaVuSans-6e" x="479.150391"/>
     </g>
    </g>
    <g id="line2d_38">
     <path d="M 524.56 142.725312 
L 534.56 142.725312 
L 544.56 142.725312 
" style="fill: none; stroke: #7f7f7f; stroke-width: 1.5; stroke-linecap: square"/>
    </g>
    <g id="text_27">
     <!-- Node + surprisal + interaction -->
     <g transform="translate(552.56 146.225312)scale(0.1 -0.1)">
      <use xlink:href="#DejaVuSans-4e"/>
      <use xlink:href="#DejaVuSans-6f" x="74.804688"/>
      <use xlink:href="#DejaVuSans-64" x="135.986328"/>
      <use xlink:href="#DejaVuSans-65" x="199.462891"/>
      <use xlink:href="#DejaVuSans-20" x="260.986328"/>
      <use xlink:href="#DejaVuSans-2b" x="292.773438"/>
      <use xlink:href="#DejaVuSans-20" x="376.5625"/>
      <use xlink:href="#DejaVuSans-73" x="408.349609"/>
      <use xlink:href="#DejaVuSans-75" x="460.449219"/>
      <use xlink:href="#DejaVuSans-72" x="523.828125"/>
      <use xlink:href="#DejaVuSans-70" x="564.941406"/>
      <use xlink:href="#DejaVuSans-72" x="628.417969"/>
      <use xlink:href="#DejaVuSans-69" x="669.53125"/>
      <use xlink:href="#DejaVuSans-73" x="697.314453"/>
      <use xlink:href="#DejaVuSans-61" x="749.414062"/>
      <use xlink:href="#DejaVuSans-6c" x="810.693359"/>
      <use xlink:href="#DejaVuSans-20" x="838.476562"/>
      <use xlink:href="#DejaVuSans-2b" x="870.263672"/>
      <use xlink:href="#DejaVuSans-20" x="954.052734"/>
      <use xlink:href="#DejaVuSans-69" x="985.839844"/>
      <use xlink:href="#DejaVuSans-6e" x="1013.623047"/>
      <use xlink:href="#DejaVuSans-74" x="1077.001953"/>
      <use xlink:href="#DejaVuSans-65" x="1116.210938"/>
      <use xlink:href="#DejaVuSans-72" x="1177.734375"/>
      <use xlink:href="#DejaVuSans-61" x="1218.847656"/>
      <use xlink:href="#DejaVuSans-63" x="1280.126953"/>
      <use xlink:href="#DejaVuSans-74" x="1335.107422"/>
      <use xlink:href="#DejaVuSans-69" x="1374.316406"/>
      <use xlink:href="#DejaVuSans-6f" x="1402.099609"/>
      <use xlink:href="#DejaVuSans-6e" x="1463.28125"/>
     </g>
    </g>
   </g>
  </g>
 </g>
 <defs>
  <clipPath id="p331d84e4b5">
   <rect x="47.72" y="26.88" width="217.495" height="147.16"/>
  </clipPath>
  <clipPath id="p75803bb762">
   <rect x="298.065" y="26.88" width="217.495" height="147.16"/>
  </clipPath>
 </defs>
</svg>
