<?xml version="1.0" encoding="utf-8" standalone="no"?>
<!DOCTYPE svg PUBLIC "-//W3C//DTD SVG 1.1//EN"
  "http://www.w3.org/Graphics/SVG/1.1/DTD/svg11.dtd">
<svg xmlns:xlink="http://www.w3.org/1999/xlink" width="720pt" height="216pt" viewBox="0 0 720 216" xmlns="http://www.w3.org/2000/svg" version="1.1">
 <metadata>
  <rdf:RDF xmlns:dc="http://purl.org/dc/elements/1.1/" xmlns:cc="http://creativecommons.org/ns#" xmlns:rdf="http://www.w3.org/1999/02/22-rdf-syntax-ns#">
   <cc:Work>
    <dc:type rdf:resource="http://purl.org/dc/dcmitype/StillImage"/>
    <dc:date>2024-01-15T22:03:14.178775</dc:date>
    <dc:format>image/svg+xml</dc:format>
    <dc:creator>
     <cc:Agent>
      <dc:title>Matplotlib v3.5.1, https://matplotlib.org/</dc:title>
     </cc:Agent>
    </dc:creator>
   </cc:Work>
  </rdf:RDF>
 </metadata>
 <defs>
  <style type="text/css">*{stroke-linejoin: round; stroke-linecap: butt}</style>
 </defs>
 <g id="figure_1">
  <g id="patch_1">
   <path d="M 0 216 
L 720 216 
L 720 0 
L 0 0 
z
" style="fill: #ffffff"/>
  </g>
  <g id="axes_1">
   <g id="patch_2">
    <path d="M 47.72 174.04 
L 265.215 174.04 
L 265.215 26.88 
L 47.72 26.88 
z
" style="fill: #ffffff"/>
   </g>
   <g id="PolyCollection_1">
    <path d="M 47.72 33.571129 
L 47.72 34.418718 
L 59.167105 36.237963 
L 70.614211 42.354368 
L 82.061316 50.739796 
L 93.508421 60.491073 
L 104.955526 71.295998 
L 116.402632 81.398304 
L 127.849737 90.665896 
L 139.296842 100.314424 
L 150.743947 108.466819 
L 162.191053 115.44694 
L 173.638158 123.014442 
L 185.085263 129.275045 
L 196.532368 134.850541 
L 207.979474 140.400044 
L 219.426579 145.308154 
L 230.873684 149.421273 
L 242.320789 153.645479 
L 253.767895 157.783765 
L 265.215 160.931034 
L 265.215 153.843273 
L 265.215 153.843273 
L 253.767895 150.150588 
L 242.320789 147.290094 
L 230.873684 143.058241 
L 219.426579 138.683591 
L 207.979474 133.363113 
L 196.532368 128.623111 
L 185.085263 122.143324 
L 173.638158 116.625381 
L 162.191053 108.220569 
L 150.743947 100.987381 
L 139.296842 91.559363 
L 127.849737 82.72428 
L 116.402632 74.18491 
L 104.955526 64.451195 
L 93.508421 54.933381 
L 82.061316 47.009159 
L 70.614211 40.97365 
L 59.167105 35.478099 
L 47.72 33.571129 
z
" clip-path="url(#p381efb7b5e)" style="fill: #1f77b4; fill-opacity: 0.4"/>
   </g>
   <g id="PolyCollection_2">
    <path d="M 47.72 33.57387 
L 47.72 34.438051 
L 59.167105 35.62913 
L 70.614211 38.810836 
L 82.061316 44.453703 
L 93.508421 51.463142 
L 104.955526 59.996998 
L 116.402632 69.062317 
L 127.849737 77.625071 
L 139.296842 86.984827 
L 150.743947 95.762056 
L 162.191053 102.730301 
L 173.638158 110.820078 
L 185.085263 117.859112 
L 196.532368 124.291906 
L 207.979474 130.507293 
L 219.426579 136.19147 
L 230.873684 140.841839 
L 242.320789 146.135093 
L 253.767895 150.506235 
L 265.215 153.838108 
L 265.215 144.970741 
L 265.215 144.970741 
L 253.767895 140.487908 
L 242.320789 136.759322 
L 230.873684 131.495879 
L 219.426579 126.483965 
L 207.979474 120.453297 
L 196.532368 114.68343 
L 185.085263 107.135364 
L 173.638158 101.930551 
L 162.191053 93.190941 
L 150.743947 86.377782 
L 139.296842 77.0565 
L 127.849737 69.418466 
L 116.402632 61.748334 
L 104.955526 54.233737 
L 93.508421 46.819182 
L 82.061316 41.834308 
L 70.614211 38.018938 
L 59.167105 34.701339 
L 47.72 33.57387 
z
" clip-path="url(#p381efb7b5e)" style="fill: #ff7f0e; fill-opacity: 0.4"/>
   </g>
   <g id="PolyCollection_3">
    <path d="M 47.72 33.581223 
L 47.72 34.446661 
L 59.167105 35.874423 
L 70.614211 39.116404 
L 82.061316 42.903266 
L 93.508421 47.471965 
L 104.955526 53.215326 
L 116.402632 58.253128 
L 127.849737 63.440258 
L 139.296842 68.849198 
L 150.743947 73.81373 
L 162.191053 78.601687 
L 173.638158 84.399812 
L 185.085263 88.223052 
L 196.532368 93.283135 
L 207.979474 98.207903 
L 219.426579 102.877854 
L 230.873684 106.623375 
L 242.320789 111.787543 
L 253.767895 115.268159 
L 265.215 119.015175 
L 265.215 109.115077 
L 265.215 109.115077 
L 253.767895 104.56935 
L 242.320789 101.195543 
L 230.873684 96.400894 
L 219.426579 91.929614 
L 207.979474 87.777112 
L 196.532368 83.573743 
L 185.085263 77.765824 
L 173.638158 74.19759 
L 162.191053 69.593305 
L 150.743947 65.905535 
L 139.296842 60.595757 
L 127.849737 56.861969 
L 116.402632 52.731235 
L 104.955526 48.387478 
L 93.508421 44.098189 
L 82.061316 40.406587 
L 70.614211 37.865769 
L 59.167105 35.026242 
L 47.72 33.581223 
z
" clip-path="url(#p381efb7b5e)" style="fill: #2ca02c; fill-opacity: 0.4"/>
   </g>
   <g id="PolyCollection_4">
    <path d="M 47.72 33.591499 
L 47.72 34.462036 
L 59.167105 35.572981 
L 70.614211 37.776036 
L 82.061316 40.990212 
L 93.508421 45.08192 
L 104.955526 50.3997 
L 116.402632 55.536744 
L 127.849737 60.837212 
L 139.296842 66.407927 
L 150.743947 71.72225 
L 162.191053 76.50299 
L 173.638158 82.706344 
L 185.085263 86.634551 
L 196.532368 91.820175 
L 207.979474 96.86403 
L 219.426579 101.222572 
L 230.873684 104.953929 
L 242.320789 109.873445 
L 253.767895 112.870832 
L 265.215 116.600032 
L 265.215 107.190797 
L 265.215 107.190797 
L 253.767895 102.758108 
L 242.320789 99.476521 
L 230.873684 94.826571 
L 219.426579 90.508695 
L 207.979474 86.365302 
L 196.532368 82.12932 
L 185.085263 76.373259 
L 173.638158 72.949192 
L 162.191053 68.07492 
L 150.743947 64.003003 
L 139.296842 58.584486 
L 127.849737 54.495381 
L 116.402632 50.196579 
L 104.955526 46.139563 
L 93.508421 42.023096 
L 82.061316 39.019676 
L 70.614211 36.904012 
L 59.167105 34.641567 
L 47.72 33.591499 
z
" clip-path="url(#p381efb7b5e)" style="fill: #d62728; fill-opacity: 0.4"/>
   </g>
   <g id="PolyCollection_5">
    <path d="M 47.72 33.58159 
L 47.72 34.42584 
L 59.167105 36.241351 
L 70.614211 42.416183 
L 82.061316 50.725216 
L 93.508421 60.545639 
L 104.955526 71.341431 
L 116.402632 81.519447 
L 127.849737 90.605436 
L 139.296842 100.284096 
L 150.743947 108.71947 
L 162.191053 116.000524 
L 173.638158 123.200418 
L 185.085263 130.117353 
L 196.532368 135.062763 
L 207.979474 140.587791 
L 219.426579 145.443888 
L 230.873684 149.638083 
L 242.320789 154.406914 
L 253.767895 160.202367 
L 265.215 161.402765 
L 265.215 154.39603 
L 265.215 154.39603 
L 253.767895 149.9198 
L 242.320789 146.574294 
L 230.873684 143.755429 
L 219.426579 137.93439 
L 207.979474 133.917982 
L 196.532368 128.988003 
L 185.085263 121.991502 
L 173.638158 116.909528 
L 162.191053 108.368343 
L 150.743947 101.093043 
L 139.296842 91.599658 
L 127.849737 82.830172 
L 116.402632 74.500094 
L 104.955526 64.518471 
L 93.508421 55.034024 
L 82.061316 46.991389 
L 70.614211 41.022985 
L 59.167105 35.496761 
L 47.72 33.58159 
z
" clip-path="url(#p381efb7b5e)" style="fill: #9467bd; fill-opacity: 0.4"/>
   </g>
   <g id="PolyCollection_6">
    <path d="M 47.72 33.585489 
L 47.72 34.445775 
L 59.167105 35.634862 
L 70.614211 38.8488 
L 82.061316 44.453 
L 93.508421 51.481872 
L 104.955526 60.055653 
L 116.402632 69.190887 
L 127.849737 77.594234 
L 139.296842 87.053342 
L 150.743947 95.886724 
L 162.191053 103.219632 
L 173.638158 110.926316 
L 185.085263 118.589676 
L 196.532368 124.346181 
L 207.979474 130.614755 
L 219.426579 136.236584 
L 230.873684 140.772204 
L 242.320789 146.446814 
L 253.767895 152.177589 
L 265.215 154.248721 
L 265.215 145.508726 
L 265.215 145.508726 
L 253.767895 140.646282 
L 242.320789 136.328949 
L 230.873684 132.297159 
L 219.426579 125.970882 
L 207.979474 120.963404 
L 196.532368 115.064117 
L 185.085263 106.888696 
L 173.638158 102.1193 
L 162.191053 93.256257 
L 150.743947 86.48173 
L 139.296842 77.127281 
L 127.849737 69.48775 
L 116.402632 61.935078 
L 104.955526 54.279597 
L 93.508421 46.859439 
L 82.061316 41.844391 
L 70.614211 38.05695 
L 59.167105 34.723493 
L 47.72 33.585489 
z
" clip-path="url(#p381efb7b5e)" style="fill: #8c564b; fill-opacity: 0.4"/>
   </g>
   <g id="PolyCollection_7">
    <path d="M 47.72 45.288083 
L 47.72 48.194277 
L 59.167105 51.32656 
L 70.614211 59.441329 
L 82.061316 69.045921 
L 93.508421 80.20466 
L 104.955526 92.437984 
L 116.402632 103.192587 
L 127.849737 112.485223 
L 139.296842 120.796754 
L 150.743947 127.925985 
L 162.191053 134.16311 
L 173.638158 139.891737 
L 185.085263 145.083001 
L 196.532368 148.347951 
L 207.979474 152.268244 
L 219.426579 156.164229 
L 230.873684 159.566272 
L 242.320789 162.319966 
L 253.767895 164.853326 
L 265.215 167.350909 
L 265.215 163.818958 
L 265.215 163.818958 
L 253.767895 161.201956 
L 242.320789 158.837366 
L 230.873684 155.480105 
L 219.426579 152.200308 
L 207.979474 148.107029 
L 196.532368 143.846948 
L 185.085263 137.671731 
L 173.638158 132.199164 
L 162.191053 124.738272 
L 150.743947 117.972948 
L 139.296842 108.87586 
L 127.849737 100.573958 
L 116.402632 91.202095 
L 104.955526 80.843112 
L 93.508421 70.07565 
L 82.061316 60.964245 
L 70.614211 53.37082 
L 59.167105 47.53867 
L 47.72 45.288083 
z
" clip-path="url(#p381efb7b5e)" style="fill: #e377c2; fill-opacity: 0.4"/>
   </g>
   <g id="PolyCollection_8">
    <path d="M 47.72 33.590637 
L 47.72 34.452048 
L 59.167105 35.037538 
L 70.614211 36.209412 
L 82.061316 38.886823 
L 93.508421 42.988652 
L 104.955526 49.746633 
L 116.402632 58.194113 
L 127.849737 67.10136 
L 139.296842 75.587685 
L 150.743947 84.214246 
L 162.191053 91.502804 
L 173.638158 99.276786 
L 185.085263 106.577622 
L 196.532368 113.883923 
L 207.979474 120.814038 
L 219.426579 127.133779 
L 230.873684 132.146911 
L 242.320789 137.957543 
L 253.767895 142.719863 
L 265.215 146.756841 
L 265.215 136.354313 
L 265.215 136.354313 
L 253.767895 131.337606 
L 242.320789 127.359543 
L 230.873684 121.616831 
L 219.426579 115.676547 
L 207.979474 109.816932 
L 196.532368 103.280654 
L 185.085263 95.348498 
L 173.638158 89.509827 
L 162.191053 80.485949 
L 150.743947 73.365194 
L 139.296842 64.551912 
L 127.849737 56.581415 
L 116.402632 49.882617 
L 104.955526 44.040064 
L 93.508421 38.984083 
L 82.061316 36.126222 
L 70.614211 34.800956 
L 59.167105 34.013699 
L 47.72 33.590637 
z
" clip-path="url(#p381efb7b5e)" style="fill: #7f7f7f; fill-opacity: 0.4"/>
   </g>
   <g id="matplotlib.axis_1">
    <g id="xtick_1">
     <g id="line2d_1">
      <defs>
       <path id="m04cf4ca38c" d="M 0 0 
L 0 3.5 
" style="stroke: #000000; stroke-width: 0.8"/>
      </defs>
      <g>
       <use xlink:href="#m04cf4ca38c" x="47.72" y="174.04" style="stroke: #000000; stroke-width: 0.8"/>
      </g>
     </g>
     <g id="text_1">
      <!-- 0.0 -->
      <g transform="translate(39.768438 188.638438)scale(0.1 -0.1)">
       <defs>
        <path id="DejaVuSans-30" d="M 2034 4250 
Q 1547 4250 1301 3770 
Q 1056 3291 1056 2328 
Q 1056 1369 1301 889 
Q 1547 409 2034 409 
Q 2525 409 2770 889 
Q 3016 1369 3016 2328 
Q 3016 3291 2770 3770 
Q 2525 4250 2034 4250 
z
M 2034 4750 
Q 2819 4750 3233 4129 
Q 3647 3509 3647 2328 
Q 3647 1150 3233 529 
Q 2819 -91 2034 -91 
Q 1250 -91 836 529 
Q 422 1150 422 2328 
Q 422 3509 836 4129 
Q 1250 4750 2034 4750 
z
" transform="scale(0.015625)"/>
        <path id="DejaVuSans-2e" d="M 684 794 
L 1344 794 
L 1344 0 
L 684 0 
L 684 794 
z
" transform="scale(0.015625)"/>
       </defs>
       <use xlink:href="#DejaVuSans-30"/>
       <use xlink:href="#DejaVuSans-2e" x="63.623047"/>
       <use xlink:href="#DejaVuSans-30" x="95.410156"/>
      </g>
     </g>
    </g>
    <g id="xtick_2">
     <g id="line2d_2">
      <g>
       <use xlink:href="#m04cf4ca38c" x="102.09375" y="174.04" style="stroke: #000000; stroke-width: 0.8"/>
      </g>
     </g>
     <g id="text_2">
      <!-- 0.5 -->
      <g transform="translate(94.142188 188.638438)scale(0.1 -0.1)">
       <defs>
        <path id="DejaVuSans-35" d="M 691 4666 
L 3169 4666 
L 3169 4134 
L 1269 4134 
L 1269 2991 
Q 1406 3038 1543 3061 
Q 1681 3084 1819 3084 
Q 2600 3084 3056 2656 
Q 3513 2228 3513 1497 
Q 3513 744 3044 326 
Q 2575 -91 1722 -91 
Q 1428 -91 1123 -41 
Q 819 9 494 109 
L 494 744 
Q 775 591 1075 516 
Q 1375 441 1709 441 
Q 2250 441 2565 725 
Q 2881 1009 2881 1497 
Q 2881 1984 2565 2268 
Q 2250 2553 1709 2553 
Q 1456 2553 1204 2497 
Q 953 2441 691 2322 
L 691 4666 
z
" transform="scale(0.015625)"/>
       </defs>
       <use xlink:href="#DejaVuSans-30"/>
       <use xlink:href="#DejaVuSans-2e" x="63.623047"/>
       <use xlink:href="#DejaVuSans-35" x="95.410156"/>
      </g>
     </g>
    </g>
    <g id="xtick_3">
     <g id="line2d_3">
      <g>
       <use xlink:href="#m04cf4ca38c" x="156.4675" y="174.04" style="stroke: #000000; stroke-width: 0.8"/>
      </g>
     </g>
     <g id="text_3">
      <!-- 1.0 -->
      <g transform="translate(148.515938 188.638438)scale(0.1 -0.1)">
       <defs>
        <path id="DejaVuSans-31" d="M 794 531 
L 1825 531 
L 1825 4091 
L 703 3866 
L 703 4441 
L 1819 4666 
L 2450 4666 
L 2450 531 
L 3481 531 
L 3481 0 
L 794 0 
L 794 531 
z
" transform="scale(0.015625)"/>
       </defs>
       <use xlink:href="#DejaVuSans-31"/>
       <use xlink:href="#DejaVuSans-2e" x="63.623047"/>
       <use xlink:href="#DejaVuSans-30" x="95.410156"/>
      </g>
     </g>
    </g>
    <g id="xtick_4">
     <g id="line2d_4">
      <g>
       <use xlink:href="#m04cf4ca38c" x="210.84125" y="174.04" style="stroke: #000000; stroke-width: 0.8"/>
      </g>
     </g>
     <g id="text_4">
      <!-- 1.5 -->
      <g transform="translate(202.889687 188.638438)scale(0.1 -0.1)">
       <use xlink:href="#DejaVuSans-31"/>
       <use xlink:href="#DejaVuSans-2e" x="63.623047"/>
       <use xlink:href="#DejaVuSans-35" x="95.410156"/>
      </g>
     </g>
    </g>
    <g id="xtick_5">
     <g id="line2d_5">
      <g>
       <use xlink:href="#m04cf4ca38c" x="265.215" y="174.04" style="stroke: #000000; stroke-width: 0.8"/>
      </g>
     </g>
     <g id="text_5">
      <!-- 2.0 -->
      <g transform="translate(257.263437 188.638438)scale(0.1 -0.1)">
       <defs>
        <path id="DejaVuSans-32" d="M 1228 531 
L 3431 531 
L 3431 0 
L 469 0 
L 469 531 
Q 828 903 1448 1529 
Q 2069 2156 2228 2338 
Q 2531 2678 2651 2914 
Q 2772 3150 2772 3378 
Q 2772 3750 2511 3984 
Q 2250 4219 1831 4219 
Q 1534 4219 1204 4116 
Q 875 4013 500 3803 
L 500 4441 
Q 881 4594 1212 4672 
Q 1544 4750 1819 4750 
Q 2544 4750 2975 4387 
Q 3406 4025 3406 3419 
Q 3406 3131 3298 2873 
Q 3191 2616 2906 2266 
Q 2828 2175 2409 1742 
Q 1991 1309 1228 531 
z
" transform="scale(0.015625)"/>
       </defs>
       <use xlink:href="#DejaVuSans-32"/>
       <use xlink:href="#DejaVuSans-2e" x="63.623047"/>
       <use xlink:href="#DejaVuSans-30" x="95.410156"/>
      </g>
     </g>
    </g>
    <g id="text_6">
     <!-- Influence of surprisal (multiplication) -->
     <g transform="translate(64.320625 202.316563)scale(0.1 -0.1)">
      <defs>
       <path id="DejaVuSans-49" d="M 628 4666 
L 1259 4666 
L 1259 0 
L 628 0 
L 628 4666 
z
" transform="scale(0.015625)"/>
       <path id="DejaVuSans-6e" d="M 3513 2113 
L 3513 0 
L 2938 0 
L 2938 2094 
Q 2938 2591 2744 2837 
Q 2550 3084 2163 3084 
Q 1697 3084 1428 2787 
Q 1159 2491 1159 1978 
L 1159 0 
L 581 0 
L 581 3500 
L 1159 3500 
L 1159 2956 
Q 1366 3272 1645 3428 
Q 1925 3584 2291 3584 
Q 2894 3584 3203 3211 
Q 3513 2838 3513 2113 
z
" transform="scale(0.015625)"/>
       <path id="DejaVuSans-66" d="M 2375 4863 
L 2375 4384 
L 1825 4384 
Q 1516 4384 1395 4259 
Q 1275 4134 1275 3809 
L 1275 3500 
L 2222 3500 
L 2222 3053 
L 1275 3053 
L 1275 0 
L 697 0 
L 697 3053 
L 147 3053 
L 147 3500 
L 697 3500 
L 697 3744 
Q 697 4328 969 4595 
Q 1241 4863 1831 4863 
L 2375 4863 
z
" transform="scale(0.015625)"/>
       <path id="DejaVuSans-6c" d="M 603 4863 
L 1178 4863 
L 1178 0 
L 603 0 
L 603 4863 
z
" transform="scale(0.015625)"/>
       <path id="DejaVuSans-75" d="M 544 1381 
L 544 3500 
L 1119 3500 
L 1119 1403 
Q 1119 906 1312 657 
Q 1506 409 1894 409 
Q 2359 409 2629 706 
Q 2900 1003 2900 1516 
L 2900 3500 
L 3475 3500 
L 3475 0 
L 2900 0 
L 2900 538 
Q 2691 219 2414 64 
Q 2138 -91 1772 -91 
Q 1169 -91 856 284 
Q 544 659 544 1381 
z
M 1991 3584 
L 1991 3584 
z
" transform="scale(0.015625)"/>
       <path id="DejaVuSans-65" d="M 3597 1894 
L 3597 1613 
L 953 1613 
Q 991 1019 1311 708 
Q 1631 397 2203 397 
Q 2534 397 2845 478 
Q 3156 559 3463 722 
L 3463 178 
Q 3153 47 2828 -22 
Q 2503 -91 2169 -91 
Q 1331 -91 842 396 
Q 353 884 353 1716 
Q 353 2575 817 3079 
Q 1281 3584 2069 3584 
Q 2775 3584 3186 3129 
Q 3597 2675 3597 1894 
z
M 3022 2063 
Q 3016 2534 2758 2815 
Q 2500 3097 2075 3097 
Q 1594 3097 1305 2825 
Q 1016 2553 972 2059 
L 3022 2063 
z
" transform="scale(0.015625)"/>
       <path id="DejaVuSans-63" d="M 3122 3366 
L 3122 2828 
Q 2878 2963 2633 3030 
Q 2388 3097 2138 3097 
Q 1578 3097 1268 2742 
Q 959 2388 959 1747 
Q 959 1106 1268 751 
Q 1578 397 2138 397 
Q 2388 397 2633 464 
Q 2878 531 3122 666 
L 3122 134 
Q 2881 22 2623 -34 
Q 2366 -91 2075 -91 
Q 1284 -91 818 406 
Q 353 903 353 1747 
Q 353 2603 823 3093 
Q 1294 3584 2113 3584 
Q 2378 3584 2631 3529 
Q 2884 3475 3122 3366 
z
" transform="scale(0.015625)"/>
       <path id="DejaVuSans-20" transform="scale(0.015625)"/>
       <path id="DejaVuSans-6f" d="M 1959 3097 
Q 1497 3097 1228 2736 
Q 959 2375 959 1747 
Q 959 1119 1226 758 
Q 1494 397 1959 397 
Q 2419 397 2687 759 
Q 2956 1122 2956 1747 
Q 2956 2369 2687 2733 
Q 2419 3097 1959 3097 
z
M 1959 3584 
Q 2709 3584 3137 3096 
Q 3566 2609 3566 1747 
Q 3566 888 3137 398 
Q 2709 -91 1959 -91 
Q 1206 -91 779 398 
Q 353 888 353 1747 
Q 353 2609 779 3096 
Q 1206 3584 1959 3584 
z
" transform="scale(0.015625)"/>
       <path id="DejaVuSans-73" d="M 2834 3397 
L 2834 2853 
Q 2591 2978 2328 3040 
Q 2066 3103 1784 3103 
Q 1356 3103 1142 2972 
Q 928 2841 928 2578 
Q 928 2378 1081 2264 
Q 1234 2150 1697 2047 
L 1894 2003 
Q 2506 1872 2764 1633 
Q 3022 1394 3022 966 
Q 3022 478 2636 193 
Q 2250 -91 1575 -91 
Q 1294 -91 989 -36 
Q 684 19 347 128 
L 347 722 
Q 666 556 975 473 
Q 1284 391 1588 391 
Q 1994 391 2212 530 
Q 2431 669 2431 922 
Q 2431 1156 2273 1281 
Q 2116 1406 1581 1522 
L 1381 1569 
Q 847 1681 609 1914 
Q 372 2147 372 2553 
Q 372 3047 722 3315 
Q 1072 3584 1716 3584 
Q 2034 3584 2315 3537 
Q 2597 3491 2834 3397 
z
" transform="scale(0.015625)"/>
       <path id="DejaVuSans-72" d="M 2631 2963 
Q 2534 3019 2420 3045 
Q 2306 3072 2169 3072 
Q 1681 3072 1420 2755 
Q 1159 2438 1159 1844 
L 1159 0 
L 581 0 
L 581 3500 
L 1159 3500 
L 1159 2956 
Q 1341 3275 1631 3429 
Q 1922 3584 2338 3584 
Q 2397 3584 2469 3576 
Q 2541 3569 2628 3553 
L 2631 2963 
z
" transform="scale(0.015625)"/>
       <path id="DejaVuSans-70" d="M 1159 525 
L 1159 -1331 
L 581 -1331 
L 581 3500 
L 1159 3500 
L 1159 2969 
Q 1341 3281 1617 3432 
Q 1894 3584 2278 3584 
Q 2916 3584 3314 3078 
Q 3713 2572 3713 1747 
Q 3713 922 3314 415 
Q 2916 -91 2278 -91 
Q 1894 -91 1617 61 
Q 1341 213 1159 525 
z
M 3116 1747 
Q 3116 2381 2855 2742 
Q 2594 3103 2138 3103 
Q 1681 3103 1420 2742 
Q 1159 2381 1159 1747 
Q 1159 1113 1420 752 
Q 1681 391 2138 391 
Q 2594 391 2855 752 
Q 3116 1113 3116 1747 
z
" transform="scale(0.015625)"/>
       <path id="DejaVuSans-69" d="M 603 3500 
L 1178 3500 
L 1178 0 
L 603 0 
L 603 3500 
z
M 603 4863 
L 1178 4863 
L 1178 4134 
L 603 4134 
L 603 4863 
z
" transform="scale(0.015625)"/>
       <path id="DejaVuSans-61" d="M 2194 1759 
Q 1497 1759 1228 1600 
Q 959 1441 959 1056 
Q 959 750 1161 570 
Q 1363 391 1709 391 
Q 2188 391 2477 730 
Q 2766 1069 2766 1631 
L 2766 1759 
L 2194 1759 
z
M 3341 1997 
L 3341 0 
L 2766 0 
L 2766 531 
Q 2569 213 2275 61 
Q 1981 -91 1556 -91 
Q 1019 -91 701 211 
Q 384 513 384 1019 
Q 384 1609 779 1909 
Q 1175 2209 1959 2209 
L 2766 2209 
L 2766 2266 
Q 2766 2663 2505 2880 
Q 2244 3097 1772 3097 
Q 1472 3097 1187 3025 
Q 903 2953 641 2809 
L 641 3341 
Q 956 3463 1253 3523 
Q 1550 3584 1831 3584 
Q 2591 3584 2966 3190 
Q 3341 2797 3341 1997 
z
" transform="scale(0.015625)"/>
       <path id="DejaVuSans-28" d="M 1984 4856 
Q 1566 4138 1362 3434 
Q 1159 2731 1159 2009 
Q 1159 1288 1364 580 
Q 1569 -128 1984 -844 
L 1484 -844 
Q 1016 -109 783 600 
Q 550 1309 550 2009 
Q 550 2706 781 3412 
Q 1013 4119 1484 4856 
L 1984 4856 
z
" transform="scale(0.015625)"/>
       <path id="DejaVuSans-6d" d="M 3328 2828 
Q 3544 3216 3844 3400 
Q 4144 3584 4550 3584 
Q 5097 3584 5394 3201 
Q 5691 2819 5691 2113 
L 5691 0 
L 5113 0 
L 5113 2094 
Q 5113 2597 4934 2840 
Q 4756 3084 4391 3084 
Q 3944 3084 3684 2787 
Q 3425 2491 3425 1978 
L 3425 0 
L 2847 0 
L 2847 2094 
Q 2847 2600 2669 2842 
Q 2491 3084 2119 3084 
Q 1678 3084 1418 2786 
Q 1159 2488 1159 1978 
L 1159 0 
L 581 0 
L 581 3500 
L 1159 3500 
L 1159 2956 
Q 1356 3278 1631 3431 
Q 1906 3584 2284 3584 
Q 2666 3584 2933 3390 
Q 3200 3197 3328 2828 
z
" transform="scale(0.015625)"/>
       <path id="DejaVuSans-74" d="M 1172 4494 
L 1172 3500 
L 2356 3500 
L 2356 3053 
L 1172 3053 
L 1172 1153 
Q 1172 725 1289 603 
Q 1406 481 1766 481 
L 2356 481 
L 2356 0 
L 1766 0 
Q 1100 0 847 248 
Q 594 497 594 1153 
L 594 3053 
L 172 3053 
L 172 3500 
L 594 3500 
L 594 4494 
L 1172 4494 
z
" transform="scale(0.015625)"/>
       <path id="DejaVuSans-29" d="M 513 4856 
L 1013 4856 
Q 1481 4119 1714 3412 
Q 1947 2706 1947 2009 
Q 1947 1309 1714 600 
Q 1481 -109 1013 -844 
L 513 -844 
Q 928 -128 1133 580 
Q 1338 1288 1338 2009 
Q 1338 2731 1133 3434 
Q 928 4138 513 4856 
z
" transform="scale(0.015625)"/>
      </defs>
      <use xlink:href="#DejaVuSans-49"/>
      <use xlink:href="#DejaVuSans-6e" x="29.492188"/>
      <use xlink:href="#DejaVuSans-66" x="92.871094"/>
      <use xlink:href="#DejaVuSans-6c" x="128.076172"/>
      <use xlink:href="#DejaVuSans-75" x="155.859375"/>
      <use xlink:href="#DejaVuSans-65" x="219.238281"/>
      <use xlink:href="#DejaVuSans-6e" x="280.761719"/>
      <use xlink:href="#DejaVuSans-63" x="344.140625"/>
      <use xlink:href="#DejaVuSans-65" x="399.121094"/>
      <use xlink:href="#DejaVuSans-20" x="460.644531"/>
      <use xlink:href="#DejaVuSans-6f" x="492.431641"/>
      <use xlink:href="#DejaVuSans-66" x="553.613281"/>
      <use xlink:href="#DejaVuSans-20" x="588.818359"/>
      <use xlink:href="#DejaVuSans-73" x="620.605469"/>
      <use xlink:href="#DejaVuSans-75" x="672.705078"/>
      <use xlink:href="#DejaVuSans-72" x="736.083984"/>
      <use xlink:href="#DejaVuSans-70" x="777.197266"/>
      <use xlink:href="#DejaVuSans-72" x="840.673828"/>
      <use xlink:href="#DejaVuSans-69" x="881.787109"/>
      <use xlink:href="#DejaVuSans-73" x="909.570312"/>
      <use xlink:href="#DejaVuSans-61" x="961.669922"/>
      <use xlink:href="#DejaVuSans-6c" x="1022.949219"/>
      <use xlink:href="#DejaVuSans-20" x="1050.732422"/>
      <use xlink:href="#DejaVuSans-28" x="1082.519531"/>
      <use xlink:href="#DejaVuSans-6d" x="1121.533203"/>
      <use xlink:href="#DejaVuSans-75" x="1218.945312"/>
      <use xlink:href="#DejaVuSans-6c" x="1282.324219"/>
      <use xlink:href="#DejaVuSans-74" x="1310.107422"/>
      <use xlink:href="#DejaVuSans-69" x="1349.316406"/>
      <use xlink:href="#DejaVuSans-70" x="1377.099609"/>
      <use xlink:href="#DejaVuSans-6c" x="1440.576172"/>
      <use xlink:href="#DejaVuSans-69" x="1468.359375"/>
      <use xlink:href="#DejaVuSans-63" x="1496.142578"/>
      <use xlink:href="#DejaVuSans-61" x="1551.123047"/>
      <use xlink:href="#DejaVuSans-74" x="1612.402344"/>
      <use xlink:href="#DejaVuSans-69" x="1651.611328"/>
      <use xlink:href="#DejaVuSans-6f" x="1679.394531"/>
      <use xlink:href="#DejaVuSans-6e" x="1740.576172"/>
      <use xlink:href="#DejaVuSans-29" x="1803.955078"/>
     </g>
    </g>
   </g>
   <g id="matplotlib.axis_2">
    <g id="ytick_1">
     <g id="line2d_6">
      <defs>
       <path id="mbda7a16355" d="M 0 0 
L -3.5 0 
" style="stroke: #000000; stroke-width: 0.8"/>
      </defs>
      <g>
       <use xlink:href="#mbda7a16355" x="47.72" y="157.094043" style="stroke: #000000; stroke-width: 0.8"/>
      </g>
     </g>
     <g id="text_7">
      <!-- 0.2 -->
      <g transform="translate(24.816875 160.893262)scale(0.1 -0.1)">
       <use xlink:href="#DejaVuSans-30"/>
       <use xlink:href="#DejaVuSans-2e" x="63.623047"/>
       <use xlink:href="#DejaVuSans-32" x="95.410156"/>
      </g>
     </g>
    </g>
    <g id="ytick_2">
     <g id="line2d_7">
      <g>
       <use xlink:href="#mbda7a16355" x="47.72" y="124.080256" style="stroke: #000000; stroke-width: 0.8"/>
      </g>
     </g>
     <g id="text_8">
      <!-- 0.4 -->
      <g transform="translate(24.816875 127.879475)scale(0.1 -0.1)">
       <defs>
        <path id="DejaVuSans-34" d="M 2419 4116 
L 825 1625 
L 2419 1625 
L 2419 4116 
z
M 2253 4666 
L 3047 4666 
L 3047 1625 
L 3713 1625 
L 3713 1100 
L 3047 1100 
L 3047 0 
L 2419 0 
L 2419 1100 
L 313 1100 
L 313 1709 
L 2253 4666 
z
" transform="scale(0.015625)"/>
       </defs>
       <use xlink:href="#DejaVuSans-30"/>
       <use xlink:href="#DejaVuSans-2e" x="63.623047"/>
       <use xlink:href="#DejaVuSans-34" x="95.410156"/>
      </g>
     </g>
    </g>
    <g id="ytick_3">
     <g id="line2d_8">
      <g>
       <use xlink:href="#mbda7a16355" x="47.72" y="91.066469" style="stroke: #000000; stroke-width: 0.8"/>
      </g>
     </g>
     <g id="text_9">
      <!-- 0.6 -->
      <g transform="translate(24.816875 94.865687)scale(0.1 -0.1)">
       <defs>
        <path id="DejaVuSans-36" d="M 2113 2584 
Q 1688 2584 1439 2293 
Q 1191 2003 1191 1497 
Q 1191 994 1439 701 
Q 1688 409 2113 409 
Q 2538 409 2786 701 
Q 3034 994 3034 1497 
Q 3034 2003 2786 2293 
Q 2538 2584 2113 2584 
z
M 3366 4563 
L 3366 3988 
Q 3128 4100 2886 4159 
Q 2644 4219 2406 4219 
Q 1781 4219 1451 3797 
Q 1122 3375 1075 2522 
Q 1259 2794 1537 2939 
Q 1816 3084 2150 3084 
Q 2853 3084 3261 2657 
Q 3669 2231 3669 1497 
Q 3669 778 3244 343 
Q 2819 -91 2113 -91 
Q 1303 -91 875 529 
Q 447 1150 447 2328 
Q 447 3434 972 4092 
Q 1497 4750 2381 4750 
Q 2619 4750 2861 4703 
Q 3103 4656 3366 4563 
z
" transform="scale(0.015625)"/>
       </defs>
       <use xlink:href="#DejaVuSans-30"/>
       <use xlink:href="#DejaVuSans-2e" x="63.623047"/>
       <use xlink:href="#DejaVuSans-36" x="95.410156"/>
      </g>
     </g>
    </g>
    <g id="ytick_4">
     <g id="line2d_9">
      <g>
       <use xlink:href="#mbda7a16355" x="47.72" y="58.052681" style="stroke: #000000; stroke-width: 0.8"/>
      </g>
     </g>
     <g id="text_10">
      <!-- 0.8 -->
      <g transform="translate(24.816875 61.8519)scale(0.1 -0.1)">
       <defs>
        <path id="DejaVuSans-38" d="M 2034 2216 
Q 1584 2216 1326 1975 
Q 1069 1734 1069 1313 
Q 1069 891 1326 650 
Q 1584 409 2034 409 
Q 2484 409 2743 651 
Q 3003 894 3003 1313 
Q 3003 1734 2745 1975 
Q 2488 2216 2034 2216 
z
M 1403 2484 
Q 997 2584 770 2862 
Q 544 3141 544 3541 
Q 544 4100 942 4425 
Q 1341 4750 2034 4750 
Q 2731 4750 3128 4425 
Q 3525 4100 3525 3541 
Q 3525 3141 3298 2862 
Q 3072 2584 2669 2484 
Q 3125 2378 3379 2068 
Q 3634 1759 3634 1313 
Q 3634 634 3220 271 
Q 2806 -91 2034 -91 
Q 1263 -91 848 271 
Q 434 634 434 1313 
Q 434 1759 690 2068 
Q 947 2378 1403 2484 
z
M 1172 3481 
Q 1172 3119 1398 2916 
Q 1625 2713 2034 2713 
Q 2441 2713 2670 2916 
Q 2900 3119 2900 3481 
Q 2900 3844 2670 4047 
Q 2441 4250 2034 4250 
Q 1625 4250 1398 4047 
Q 1172 3844 1172 3481 
z
" transform="scale(0.015625)"/>
       </defs>
       <use xlink:href="#DejaVuSans-30"/>
       <use xlink:href="#DejaVuSans-2e" x="63.623047"/>
       <use xlink:href="#DejaVuSans-38" x="95.410156"/>
      </g>
     </g>
    </g>
    <g id="text_11">
     <!-- R-value -->
     <g transform="translate(18.737188 119.064687)rotate(-90)scale(0.1 -0.1)">
      <defs>
       <path id="DejaVuSans-52" d="M 2841 2188 
Q 3044 2119 3236 1894 
Q 3428 1669 3622 1275 
L 4263 0 
L 3584 0 
L 2988 1197 
Q 2756 1666 2539 1819 
Q 2322 1972 1947 1972 
L 1259 1972 
L 1259 0 
L 628 0 
L 628 4666 
L 2053 4666 
Q 2853 4666 3247 4331 
Q 3641 3997 3641 3322 
Q 3641 2881 3436 2590 
Q 3231 2300 2841 2188 
z
M 1259 4147 
L 1259 2491 
L 2053 2491 
Q 2509 2491 2742 2702 
Q 2975 2913 2975 3322 
Q 2975 3731 2742 3939 
Q 2509 4147 2053 4147 
L 1259 4147 
z
" transform="scale(0.015625)"/>
       <path id="DejaVuSans-2d" d="M 313 2009 
L 1997 2009 
L 1997 1497 
L 313 1497 
L 313 2009 
z
" transform="scale(0.015625)"/>
       <path id="DejaVuSans-76" d="M 191 3500 
L 800 3500 
L 1894 563 
L 2988 3500 
L 3597 3500 
L 2284 0 
L 1503 0 
L 191 3500 
z
" transform="scale(0.015625)"/>
      </defs>
      <use xlink:href="#DejaVuSans-52"/>
      <use xlink:href="#DejaVuSans-2d" x="65.482422"/>
      <use xlink:href="#DejaVuSans-76" x="98.941406"/>
      <use xlink:href="#DejaVuSans-61" x="158.121094"/>
      <use xlink:href="#DejaVuSans-6c" x="219.400391"/>
      <use xlink:href="#DejaVuSans-75" x="247.183594"/>
      <use xlink:href="#DejaVuSans-65" x="310.5625"/>
     </g>
    </g>
   </g>
   <g id="line2d_10">
    <path d="M 47.72 33.994924 
L 59.167105 35.858031 
L 70.614211 41.664009 
L 82.061316 48.874478 
L 93.508421 57.712227 
L 104.955526 67.873597 
L 116.402632 77.791607 
L 127.849737 86.695088 
L 139.296842 95.936893 
L 150.743947 104.7271 
L 162.191053 111.833755 
L 173.638158 119.819911 
L 185.085263 125.709185 
L 196.532368 131.736826 
L 207.979474 136.881579 
L 219.426579 141.995873 
L 230.873684 146.239757 
L 242.320789 150.467786 
L 253.767895 153.967177 
L 265.215 157.387154 
" clip-path="url(#p381efb7b5e)" style="fill: none; stroke: #1f77b4; stroke-width: 1.5; stroke-linecap: square"/>
   </g>
   <g id="line2d_11">
    <path d="M 47.72 34.005961 
L 59.167105 35.165235 
L 70.614211 38.414887 
L 82.061316 43.144005 
L 93.508421 49.141162 
L 104.955526 57.115368 
L 116.402632 65.405325 
L 127.849737 73.521768 
L 139.296842 82.020664 
L 150.743947 91.069919 
L 162.191053 97.960621 
L 173.638158 106.375315 
L 185.085263 112.497238 
L 196.532368 119.487668 
L 207.979474 125.480295 
L 219.426579 131.337718 
L 230.873684 136.168859 
L 242.320789 141.447207 
L 253.767895 145.497071 
L 265.215 149.404425 
" clip-path="url(#p381efb7b5e)" style="fill: none; stroke: #ff7f0e; stroke-width: 1.5; stroke-linecap: square"/>
   </g>
   <g id="line2d_12">
    <path d="M 47.72 34.013942 
L 59.167105 35.450332 
L 70.614211 38.491087 
L 82.061316 41.654927 
L 93.508421 45.785077 
L 104.955526 50.801402 
L 116.402632 55.492181 
L 127.849737 60.151113 
L 139.296842 64.722478 
L 150.743947 69.859633 
L 162.191053 74.097496 
L 173.638158 79.298701 
L 185.085263 82.994438 
L 196.532368 88.428439 
L 207.979474 92.992508 
L 219.426579 97.403734 
L 230.873684 101.512134 
L 242.320789 106.491543 
L 253.767895 109.918754 
L 265.215 114.065126 
" clip-path="url(#p381efb7b5e)" style="fill: none; stroke: #2ca02c; stroke-width: 1.5; stroke-linecap: square"/>
   </g>
   <g id="line2d_13">
    <path d="M 47.72 34.026767 
L 59.167105 35.107274 
L 70.614211 37.340024 
L 82.061316 40.004944 
L 93.508421 43.552508 
L 104.955526 48.269631 
L 116.402632 52.866661 
L 127.849737 57.666296 
L 139.296842 62.496207 
L 150.743947 67.862627 
L 162.191053 72.288955 
L 173.638158 77.827768 
L 185.085263 81.503905 
L 196.532368 86.974748 
L 207.979474 91.614666 
L 219.426579 95.865634 
L 230.873684 99.89025 
L 242.320789 104.674983 
L 253.767895 107.81447 
L 265.215 111.895415 
" clip-path="url(#p381efb7b5e)" style="fill: none; stroke: #d62728; stroke-width: 1.5; stroke-linecap: square"/>
   </g>
   <g id="line2d_14">
    <path d="M 47.72 34.003715 
L 59.167105 35.869056 
L 70.614211 41.719584 
L 82.061316 48.858302 
L 93.508421 57.789832 
L 104.955526 67.929951 
L 116.402632 78.00977 
L 127.849737 86.717804 
L 139.296842 95.941877 
L 150.743947 104.906257 
L 162.191053 112.184433 
L 173.638158 120.054973 
L 185.085263 126.054428 
L 196.532368 132.025383 
L 207.979474 137.252886 
L 219.426579 141.689139 
L 230.873684 146.696756 
L 242.320789 150.490604 
L 253.767895 155.061083 
L 265.215 157.899397 
" clip-path="url(#p381efb7b5e)" style="fill: none; stroke: #9467bd; stroke-width: 1.5; stroke-linecap: square"/>
   </g>
   <g id="line2d_15">
    <path d="M 47.72 34.015632 
L 59.167105 35.179178 
L 70.614211 38.452875 
L 82.061316 43.148695 
L 93.508421 49.170656 
L 104.955526 57.167625 
L 116.402632 65.562982 
L 127.849737 73.540992 
L 139.296842 82.090311 
L 150.743947 91.184227 
L 162.191053 98.237944 
L 173.638158 106.522808 
L 185.085263 112.739186 
L 196.532368 119.705149 
L 207.979474 125.789079 
L 219.426579 131.103733 
L 230.873684 136.534681 
L 242.320789 141.387881 
L 253.767895 146.411936 
L 265.215 149.878723 
" clip-path="url(#p381efb7b5e)" style="fill: none; stroke: #8c564b; stroke-width: 1.5; stroke-linecap: square"/>
   </g>
   <g id="line2d_16">
    <path d="M 47.72 46.74118 
L 59.167105 49.432615 
L 70.614211 56.406074 
L 82.061316 65.005083 
L 93.508421 75.140155 
L 104.955526 86.640548 
L 116.402632 97.197341 
L 127.849737 106.52959 
L 139.296842 114.836307 
L 150.743947 122.949467 
L 162.191053 129.450691 
L 173.638158 136.04545 
L 185.085263 141.377366 
L 196.532368 146.097449 
L 207.979474 150.187636 
L 219.426579 154.182268 
L 230.873684 157.523189 
L 242.320789 160.578666 
L 253.767895 163.027641 
L 265.215 165.584934 
" clip-path="url(#p381efb7b5e)" style="fill: none; stroke: #e377c2; stroke-width: 1.5; stroke-linecap: square"/>
   </g>
   <g id="line2d_17">
    <path d="M 47.72 34.021342 
L 59.167105 34.525618 
L 70.614211 35.505184 
L 82.061316 37.506522 
L 93.508421 40.986367 
L 104.955526 46.893348 
L 116.402632 54.038365 
L 127.849737 61.841387 
L 139.296842 70.069798 
L 150.743947 78.78972 
L 162.191053 85.994376 
L 173.638158 94.393306 
L 185.085263 100.96306 
L 196.532368 108.582288 
L 207.979474 115.315485 
L 219.426579 121.405163 
L 230.873684 126.881871 
L 242.320789 132.658543 
L 253.767895 137.028735 
L 265.215 141.555577 
" clip-path="url(#p381efb7b5e)" style="fill: none; stroke: #7f7f7f; stroke-width: 1.5; stroke-linecap: square"/>
   </g>
   <g id="patch_3">
    <path d="M 47.72 174.04 
L 47.72 26.88 
" style="fill: none; stroke: #000000; stroke-width: 0.8; stroke-linejoin: miter; stroke-linecap: square"/>
   </g>
   <g id="patch_4">
    <path d="M 47.72 174.04 
L 265.215 174.04 
" style="fill: none; stroke: #000000; stroke-width: 0.8; stroke-linejoin: miter; stroke-linecap: square"/>
   </g>
   <g id="text_12">
    <!-- Node * surprisal -->
    <g transform="translate(108.18625 20.88)scale(0.12 -0.12)">
     <defs>
      <path id="DejaVuSans-4e" d="M 628 4666 
L 1478 4666 
L 3547 763 
L 3547 4666 
L 4159 4666 
L 4159 0 
L 3309 0 
L 1241 3903 
L 1241 0 
L 628 0 
L 628 4666 
z
" transform="scale(0.015625)"/>
      <path id="DejaVuSans-64" d="M 2906 2969 
L 2906 4863 
L 3481 4863 
L 3481 0 
L 2906 0 
L 2906 525 
Q 2725 213 2448 61 
Q 2172 -91 1784 -91 
Q 1150 -91 751 415 
Q 353 922 353 1747 
Q 353 2572 751 3078 
Q 1150 3584 1784 3584 
Q 2172 3584 2448 3432 
Q 2725 3281 2906 2969 
z
M 947 1747 
Q 947 1113 1208 752 
Q 1469 391 1925 391 
Q 2381 391 2643 752 
Q 2906 1113 2906 1747 
Q 2906 2381 2643 2742 
Q 2381 3103 1925 3103 
Q 1469 3103 1208 2742 
Q 947 2381 947 1747 
z
" transform="scale(0.015625)"/>
      <path id="DejaVuSans-2a" d="M 3009 3897 
L 1888 3291 
L 3009 2681 
L 2828 2375 
L 1778 3009 
L 1778 1831 
L 1422 1831 
L 1422 3009 
L 372 2375 
L 191 2681 
L 1313 3291 
L 191 3897 
L 372 4206 
L 1422 3572 
L 1422 4750 
L 1778 4750 
L 1778 3572 
L 2828 4206 
L 3009 3897 
z
" transform="scale(0.015625)"/>
     </defs>
     <use xlink:href="#DejaVuSans-4e"/>
     <use xlink:href="#DejaVuSans-6f" x="74.804688"/>
     <use xlink:href="#DejaVuSans-64" x="135.986328"/>
     <use xlink:href="#DejaVuSans-65" x="199.462891"/>
     <use xlink:href="#DejaVuSans-20" x="260.986328"/>
     <use xlink:href="#DejaVuSans-2a" x="292.773438"/>
     <use xlink:href="#DejaVuSans-20" x="342.773438"/>
     <use xlink:href="#DejaVuSans-73" x="374.560547"/>
     <use xlink:href="#DejaVuSans-75" x="426.660156"/>
     <use xlink:href="#DejaVuSans-72" x="490.039062"/>
     <use xlink:href="#DejaVuSans-70" x="531.152344"/>
     <use xlink:href="#DejaVuSans-72" x="594.628906"/>
     <use xlink:href="#DejaVuSans-69" x="635.742188"/>
     <use xlink:href="#DejaVuSans-73" x="663.525391"/>
     <use xlink:href="#DejaVuSans-61" x="715.625"/>
     <use xlink:href="#DejaVuSans-6c" x="776.904297"/>
    </g>
   </g>
  </g>
  <g id="axes_2">
   <g id="patch_5">
    <path d="M 298.065 174.04 
L 515.56 174.04 
L 515.56 26.88 
L 298.065 26.88 
z
" style="fill: #ffffff"/>
   </g>
   <g id="PolyCollection_9">
    <path d="M 298.065 33.569091 
L 298.065 34.438666 
L 309.512105 36.522265 
L 320.959211 42.183753 
L 332.406316 50.053319 
L 343.853421 59.716598 
L 355.300526 70.656282 
L 366.747632 81.009501 
L 378.194737 91.531561 
L 389.641842 101.365953 
L 401.088947 110.453258 
L 412.536053 118.789307 
L 423.983158 126.252063 
L 435.430263 133.718154 
L 446.877368 140.473642 
L 458.324474 144.51934 
L 469.771579 149.30263 
L 481.218684 153.590777 
L 492.665789 156.276735 
L 504.112895 159.797821 
L 515.56 162.528096 
L 515.56 152.103342 
L 515.56 152.103342 
L 504.112895 149.58756 
L 492.665789 146.250015 
L 481.218684 141.557569 
L 469.771579 137.476174 
L 458.324474 132.185698 
L 446.877368 126.759812 
L 435.430263 120.084967 
L 423.983158 113.712733 
L 412.536053 106.803566 
L 401.088947 98.763523 
L 389.641842 90.622316 
L 378.194737 81.65751 
L 366.747632 71.748489 
L 355.300526 63.722542 
L 343.853421 54.481377 
L 332.406316 47.451571 
L 320.959211 40.377567 
L 309.512105 35.427232 
L 298.065 33.569091 
z
" clip-path="url(#pac621490ea)" style="fill: #1f77b4; fill-opacity: 0.4"/>
   </g>
   <g id="PolyCollection_10">
    <path d="M 298.065 33.586795 
L 298.065 34.449606 
L 309.512105 36.542696 
L 320.959211 42.208774 
L 332.406316 50.10523 
L 343.853421 59.767228 
L 355.300526 70.721579 
L 366.747632 81.037448 
L 378.194737 91.581877 
L 389.641842 101.393424 
L 401.088947 110.416712 
L 412.536053 118.662134 
L 423.983158 126.138835 
L 435.430263 133.699026 
L 446.877368 140.388359 
L 458.324474 144.441991 
L 469.771579 149.201199 
L 481.218684 153.637254 
L 492.665789 156.280315 
L 504.112895 159.866414 
L 515.56 162.673401 
L 515.56 152.453669 
L 515.56 152.453669 
L 504.112895 149.811964 
L 492.665789 146.357569 
L 481.218684 141.623562 
L 469.771579 137.494659 
L 458.324474 132.132177 
L 446.877368 126.733798 
L 435.430263 120.050064 
L 423.983158 113.691887 
L 412.536053 106.818431 
L 401.088947 98.757044 
L 389.641842 90.647703 
L 378.194737 81.680079 
L 366.747632 71.760533 
L 355.300526 63.743842 
L 343.853421 54.492949 
L 332.406316 47.493765 
L 320.959211 40.433813 
L 309.512105 35.450864 
L 298.065 33.586795 
z
" clip-path="url(#pac621490ea)" style="fill: #ff7f0e; fill-opacity: 0.4"/>
   </g>
   <g id="PolyCollection_11">
    <path d="M 298.065 33.577891 
L 298.065 34.456468 
L 309.512105 36.53589 
L 320.959211 42.202583 
L 332.406316 50.065586 
L 343.853421 59.747401 
L 355.300526 70.74232 
L 366.747632 81.104144 
L 378.194737 91.651225 
L 389.641842 101.538837 
L 401.088947 110.521229 
L 412.536053 118.949819 
L 423.983158 126.54426 
L 435.430263 134.169468 
L 446.877368 141.000283 
L 458.324474 145.178204 
L 469.771579 150.426676 
L 481.218684 155.008274 
L 492.665789 157.907891 
L 504.112895 161.371958 
L 515.56 164.200561 
L 515.56 152.820686 
L 515.56 152.820686 
L 504.112895 150.550753 
L 492.665789 146.74129 
L 481.218684 142.111328 
L 469.771579 138.282295 
L 458.324474 132.93585 
L 446.877368 127.344928 
L 435.430263 120.601123 
L 423.983158 114.145447 
L 412.536053 107.227157 
L 401.088947 99.02221 
L 389.641842 90.823245 
L 378.194737 81.694993 
L 366.747632 71.742706 
L 355.300526 63.701803 
L 343.853421 54.458575 
L 332.406316 47.465002 
L 320.959211 40.391927 
L 309.512105 35.423467 
L 298.065 33.577891 
z
" clip-path="url(#pac621490ea)" style="fill: #2ca02c; fill-opacity: 0.4"/>
   </g>
   <g id="PolyCollection_12">
    <path d="M 298.065 33.593457 
L 298.065 34.470515 
L 309.512105 36.55399 
L 320.959211 42.224489 
L 332.406316 50.10331 
L 343.853421 59.791053 
L 355.300526 70.75326 
L 366.747632 81.052836 
L 378.194737 91.561695 
L 389.641842 101.405178 
L 401.088947 110.318878 
L 412.536053 118.729209 
L 423.983158 126.208211 
L 435.430263 133.75042 
L 446.877368 140.790757 
L 458.324474 144.890162 
L 469.771579 150.308933 
L 481.218684 154.952148 
L 492.665789 157.895747 
L 504.112895 161.529915 
L 515.56 164.500886 
L 515.56 152.889475 
L 515.56 152.889475 
L 504.112895 150.584213 
L 492.665789 146.929516 
L 481.218684 142.3211 
L 469.771579 138.354693 
L 458.324474 133.118874 
L 446.877368 127.444786 
L 435.430263 120.711281 
L 423.983158 114.251951 
L 412.536053 107.241626 
L 401.088947 99.038657 
L 389.641842 90.860678 
L 378.194737 81.750587 
L 366.747632 71.746402 
L 355.300526 63.715076 
L 343.853421 54.462794 
L 332.406316 47.497782 
L 320.959211 40.43106 
L 309.512105 35.458415 
L 298.065 33.593457 
z
" clip-path="url(#pac621490ea)" style="fill: #d62728; fill-opacity: 0.4"/>
   </g>
   <g id="PolyCollection_13">
    <path d="M 298.065 33.577642 
L 298.065 34.448134 
L 309.512105 36.530712 
L 320.959211 42.1901 
L 332.406316 50.062015 
L 343.853421 59.828461 
L 355.300526 70.705971 
L 366.747632 81.151989 
L 378.194737 91.54782 
L 389.641842 101.201719 
L 401.088947 110.851648 
L 412.536053 118.994081 
L 423.983158 126.219858 
L 435.430263 134.212569 
L 446.877368 140.473853 
L 458.324474 145.189222 
L 469.771579 149.49011 
L 481.218684 153.44506 
L 492.665789 156.910417 
L 504.112895 159.498289 
L 515.56 163.075604 
L 515.56 153.420305 
L 515.56 153.420305 
L 504.112895 149.916862 
L 492.665789 147.56289 
L 481.218684 141.864919 
L 469.771579 137.683335 
L 458.324474 132.279157 
L 446.877368 127.236334 
L 435.430263 120.236666 
L 423.983158 114.360149 
L 412.536053 107.164962 
L 401.088947 98.80308 
L 389.641842 90.676316 
L 378.194737 81.870945 
L 366.747632 71.875894 
L 355.300526 63.731602 
L 343.853421 54.675505 
L 332.406316 47.496707 
L 320.959211 40.450296 
L 309.512105 35.448225 
L 298.065 33.577642 
z
" clip-path="url(#pac621490ea)" style="fill: #9467bd; fill-opacity: 0.4"/>
   </g>
   <g id="PolyCollection_14">
    <path d="M 298.065 33.596084 
L 298.065 34.459326 
L 309.512105 36.551382 
L 320.959211 42.213085 
L 332.406316 50.118736 
L 343.853421 59.88402 
L 355.300526 70.775596 
L 366.747632 81.177874 
L 378.194737 91.588786 
L 389.641842 101.22815 
L 401.088947 110.813357 
L 412.536053 118.852904 
L 423.983158 126.093628 
L 435.430263 134.137464 
L 446.877368 140.405972 
L 458.324474 145.141767 
L 469.771579 149.340492 
L 481.218684 153.458397 
L 492.665789 156.874436 
L 504.112895 159.505058 
L 515.56 163.170049 
L 515.56 153.767339 
L 515.56 153.767339 
L 504.112895 150.202286 
L 492.665789 147.611767 
L 481.218684 141.940889 
L 469.771579 137.75297 
L 458.324474 132.213689 
L 446.877368 127.180507 
L 435.430263 120.253689 
L 423.983158 114.32859 
L 412.536053 107.173007 
L 401.088947 98.789116 
L 389.641842 90.7075 
L 378.194737 81.899989 
L 366.747632 71.885723 
L 355.300526 63.754101 
L 343.853421 54.688209 
L 332.406316 47.538452 
L 320.959211 40.508103 
L 309.512105 35.473156 
L 298.065 33.596084 
z
" clip-path="url(#pac621490ea)" style="fill: #8c564b; fill-opacity: 0.4"/>
   </g>
   <g id="PolyCollection_15">
    <path d="M 298.065 45.133153 
L 298.065 48.142304 
L 309.512105 50.066664 
L 320.959211 55.416806 
L 332.406316 63.246682 
L 343.853421 72.83329 
L 355.300526 82.667688 
L 366.747632 92.476669 
L 378.194737 102.124782 
L 389.641842 110.925677 
L 401.088947 119.208796 
L 412.536053 126.983146 
L 423.983158 133.793503 
L 435.430263 140.929375 
L 446.877368 146.637358 
L 458.324474 150.151721 
L 469.771579 154.255192 
L 481.218684 157.961198 
L 492.665789 160.399261 
L 504.112895 163.109999 
L 515.56 165.615832 
L 515.56 154.686346 
L 515.56 154.686346 
L 504.112895 152.224526 
L 492.665789 148.721573 
L 481.218684 144.335763 
L 469.771579 140.213389 
L 458.324474 135.340258 
L 446.877368 130.342828 
L 435.430263 124.140954 
L 423.983158 118.655078 
L 412.536053 112.118983 
L 401.088947 105.048351 
L 389.641842 98.036025 
L 378.194737 89.751833 
L 366.747632 80.733915 
L 355.300526 73.898354 
L 343.853421 65.190019 
L 332.406316 58.583156 
L 320.959211 51.828158 
L 309.512105 46.995617 
L 298.065 45.133153 
z
" clip-path="url(#pac621490ea)" style="fill: #e377c2; fill-opacity: 0.4"/>
   </g>
   <g id="PolyCollection_16">
    <path d="M 298.065 33.59707 
L 298.065 34.466722 
L 309.512105 36.557414 
L 320.959211 42.222247 
L 332.406316 50.191658 
L 343.853421 59.854125 
L 355.300526 70.826238 
L 366.747632 81.149135 
L 378.194737 91.70461 
L 389.641842 101.550737 
L 401.088947 110.595407 
L 412.536053 118.859679 
L 423.983158 126.302761 
L 435.430263 133.939244 
L 446.877368 140.840866 
L 458.324474 144.833846 
L 469.771579 149.851417 
L 481.218684 154.516936 
L 492.665789 157.057448 
L 504.112895 160.828768 
L 515.56 163.653283 
L 515.56 152.956795 
L 515.56 152.956795 
L 504.112895 150.513971 
L 492.665789 146.890485 
L 481.218684 141.945819 
L 469.771579 137.758463 
L 458.324474 132.349237 
L 446.877368 126.829826 
L 435.430263 119.939829 
L 423.983158 113.722505 
L 412.536053 106.854205 
L 401.088947 98.707305 
L 389.641842 90.657518 
L 378.194737 81.655437 
L 366.747632 71.729262 
L 355.300526 63.706838 
L 343.853421 54.54942 
L 332.406316 47.512877 
L 320.959211 40.466277 
L 309.512105 35.475071 
L 298.065 33.59707 
z
" clip-path="url(#pac621490ea)" style="fill: #7f7f7f; fill-opacity: 0.4"/>
   </g>
   <g id="matplotlib.axis_3">
    <g id="xtick_6">
     <g id="line2d_18">
      <g>
       <use xlink:href="#m04cf4ca38c" x="298.065" y="174.04" style="stroke: #000000; stroke-width: 0.8"/>
      </g>
     </g>
     <g id="text_13">
      <!-- 0.0 -->
      <g transform="translate(290.113437 188.638438)scale(0.1 -0.1)">
       <use xlink:href="#DejaVuSans-30"/>
       <use xlink:href="#DejaVuSans-2e" x="63.623047"/>
       <use xlink:href="#DejaVuSans-30" x="95.410156"/>
      </g>
     </g>
    </g>
    <g id="xtick_7">
     <g id="line2d_19">
      <g>
       <use xlink:href="#m04cf4ca38c" x="352.43875" y="174.04" style="stroke: #000000; stroke-width: 0.8"/>
      </g>
     </g>
     <g id="text_14">
      <!-- 0.5 -->
      <g transform="translate(344.487187 188.638438)scale(0.1 -0.1)">
       <use xlink:href="#DejaVuSans-30"/>
       <use xlink:href="#DejaVuSans-2e" x="63.623047"/>
       <use xlink:href="#DejaVuSans-35" x="95.410156"/>
      </g>
     </g>
    </g>
    <g id="xtick_8">
     <g id="line2d_20">
      <g>
       <use xlink:href="#m04cf4ca38c" x="406.8125" y="174.04" style="stroke: #000000; stroke-width: 0.8"/>
      </g>
     </g>
     <g id="text_15">
      <!-- 1.0 -->
      <g transform="translate(398.860937 188.638438)scale(0.1 -0.1)">
       <use xlink:href="#DejaVuSans-31"/>
       <use xlink:href="#DejaVuSans-2e" x="63.623047"/>
       <use xlink:href="#DejaVuSans-30" x="95.410156"/>
      </g>
     </g>
    </g>
    <g id="xtick_9">
     <g id="line2d_21">
      <g>
       <use xlink:href="#m04cf4ca38c" x="461.18625" y="174.04" style="stroke: #000000; stroke-width: 0.8"/>
      </g>
     </g>
     <g id="text_16">
      <!-- 1.5 -->
      <g transform="translate(453.234687 188.638438)scale(0.1 -0.1)">
       <use xlink:href="#DejaVuSans-31"/>
       <use xlink:href="#DejaVuSans-2e" x="63.623047"/>
       <use xlink:href="#DejaVuSans-35" x="95.410156"/>
      </g>
     </g>
    </g>
    <g id="xtick_10">
     <g id="line2d_22">
      <g>
       <use xlink:href="#m04cf4ca38c" x="515.56" y="174.04" style="stroke: #000000; stroke-width: 0.8"/>
      </g>
     </g>
     <g id="text_17">
      <!-- 2.0 -->
      <g transform="translate(507.608437 188.638438)scale(0.1 -0.1)">
       <use xlink:href="#DejaVuSans-32"/>
       <use xlink:href="#DejaVuSans-2e" x="63.623047"/>
       <use xlink:href="#DejaVuSans-30" x="95.410156"/>
      </g>
     </g>
    </g>
    <g id="text_18">
     <!-- Influence of surprisal (multiplication) -->
     <g transform="translate(314.665625 202.316563)scale(0.1 -0.1)">
      <use xlink:href="#DejaVuSans-49"/>
      <use xlink:href="#DejaVuSans-6e" x="29.492188"/>
      <use xlink:href="#DejaVuSans-66" x="92.871094"/>
      <use xlink:href="#DejaVuSans-6c" x="128.076172"/>
      <use xlink:href="#DejaVuSans-75" x="155.859375"/>
      <use xlink:href="#DejaVuSans-65" x="219.238281"/>
      <use xlink:href="#DejaVuSans-6e" x="280.761719"/>
      <use xlink:href="#DejaVuSans-63" x="344.140625"/>
      <use xlink:href="#DejaVuSans-65" x="399.121094"/>
      <use xlink:href="#DejaVuSans-20" x="460.644531"/>
      <use xlink:href="#DejaVuSans-6f" x="492.431641"/>
      <use xlink:href="#DejaVuSans-66" x="553.613281"/>
      <use xlink:href="#DejaVuSans-20" x="588.818359"/>
      <use xlink:href="#DejaVuSans-73" x="620.605469"/>
      <use xlink:href="#DejaVuSans-75" x="672.705078"/>
      <use xlink:href="#DejaVuSans-72" x="736.083984"/>
      <use xlink:href="#DejaVuSans-70" x="777.197266"/>
      <use xlink:href="#DejaVuSans-72" x="840.673828"/>
      <use xlink:href="#DejaVuSans-69" x="881.787109"/>
      <use xlink:href="#DejaVuSans-73" x="909.570312"/>
      <use xlink:href="#DejaVuSans-61" x="961.669922"/>
      <use xlink:href="#DejaVuSans-6c" x="1022.949219"/>
      <use xlink:href="#DejaVuSans-20" x="1050.732422"/>
      <use xlink:href="#DejaVuSans-28" x="1082.519531"/>
      <use xlink:href="#DejaVuSans-6d" x="1121.533203"/>
      <use xlink:href="#DejaVuSans-75" x="1218.945312"/>
      <use xlink:href="#DejaVuSans-6c" x="1282.324219"/>
      <use xlink:href="#DejaVuSans-74" x="1310.107422"/>
      <use xlink:href="#DejaVuSans-69" x="1349.316406"/>
      <use xlink:href="#DejaVuSans-70" x="1377.099609"/>
      <use xlink:href="#DejaVuSans-6c" x="1440.576172"/>
      <use xlink:href="#DejaVuSans-69" x="1468.359375"/>
      <use xlink:href="#DejaVuSans-63" x="1496.142578"/>
      <use xlink:href="#DejaVuSans-61" x="1551.123047"/>
      <use xlink:href="#DejaVuSans-74" x="1612.402344"/>
      <use xlink:href="#DejaVuSans-69" x="1651.611328"/>
      <use xlink:href="#DejaVuSans-6f" x="1679.394531"/>
      <use xlink:href="#DejaVuSans-6e" x="1740.576172"/>
      <use xlink:href="#DejaVuSans-29" x="1803.955078"/>
     </g>
    </g>
   </g>
   <g id="line2d_23">
    <path d="M 298.065 34.003878 
L 309.512105 35.974748 
L 320.959211 41.28066 
L 332.406316 48.752445 
L 343.853421 57.098988 
L 355.300526 67.189412 
L 366.747632 76.378995 
L 378.194737 86.594536 
L 389.641842 95.994134 
L 401.088947 104.608391 
L 412.536053 112.796436 
L 423.983158 119.982398 
L 435.430263 126.901561 
L 446.877368 133.616727 
L 458.324474 138.352519 
L 469.771579 143.389402 
L 481.218684 147.574173 
L 492.665789 151.263375 
L 504.112895 154.69269 
L 515.56 157.315719 
" clip-path="url(#pac621490ea)" style="fill: none; stroke: #1f77b4; stroke-width: 1.5; stroke-linecap: square"/>
   </g>
   <g id="line2d_24">
    <path d="M 298.065 34.0182 
L 309.512105 35.99678 
L 320.959211 41.321294 
L 332.406316 48.799497 
L 343.853421 57.130089 
L 355.300526 67.23271 
L 366.747632 76.39899 
L 378.194737 86.630978 
L 389.641842 96.020563 
L 401.088947 104.586878 
L 412.536053 112.740282 
L 423.983158 119.915361 
L 435.430263 126.874545 
L 446.877368 133.561078 
L 458.324474 138.287084 
L 469.771579 143.347929 
L 481.218684 147.630408 
L 492.665789 151.318942 
L 504.112895 154.839189 
L 515.56 157.563535 
" clip-path="url(#pac621490ea)" style="fill: none; stroke: #ff7f0e; stroke-width: 1.5; stroke-linecap: square"/>
   </g>
   <g id="line2d_25">
    <path d="M 298.065 34.01718 
L 309.512105 35.979678 
L 320.959211 41.297255 
L 332.406316 48.765294 
L 343.853421 57.102988 
L 355.300526 67.222062 
L 366.747632 76.423425 
L 378.194737 86.673109 
L 389.641842 96.181041 
L 401.088947 104.771719 
L 412.536053 113.088488 
L 423.983158 120.344853 
L 435.430263 127.385295 
L 446.877368 134.172605 
L 458.324474 139.057027 
L 469.771579 144.354486 
L 481.218684 148.559801 
L 492.665789 152.32459 
L 504.112895 155.961356 
L 515.56 158.510623 
" clip-path="url(#pac621490ea)" style="fill: none; stroke: #2ca02c; stroke-width: 1.5; stroke-linecap: square"/>
   </g>
   <g id="line2d_26">
    <path d="M 298.065 34.031986 
L 309.512105 36.006203 
L 320.959211 41.327775 
L 332.406316 48.800546 
L 343.853421 57.126924 
L 355.300526 67.234168 
L 366.747632 76.399619 
L 378.194737 86.656141 
L 389.641842 96.132928 
L 401.088947 104.678767 
L 412.536053 112.985418 
L 423.983158 120.230081 
L 435.430263 127.23085 
L 446.877368 134.117772 
L 458.324474 139.004518 
L 469.771579 144.331813 
L 481.218684 148.636624 
L 492.665789 152.412631 
L 504.112895 156.057064 
L 515.56 158.695181 
" clip-path="url(#pac621490ea)" style="fill: none; stroke: #d62728; stroke-width: 1.5; stroke-linecap: square"/>
   </g>
   <g id="line2d_27">
    <path d="M 298.065 34.012888 
L 309.512105 35.989468 
L 320.959211 41.320198 
L 332.406316 48.779361 
L 343.853421 57.251983 
L 355.300526 67.218786 
L 366.747632 76.513941 
L 378.194737 86.709383 
L 389.641842 95.939017 
L 401.088947 104.827364 
L 412.536053 113.079521 
L 423.983158 120.290003 
L 435.430263 127.224618 
L 446.877368 133.855093 
L 458.324474 138.73419 
L 469.771579 143.586722 
L 481.218684 147.65499 
L 492.665789 152.236654 
L 504.112895 154.707576 
L 515.56 158.247954 
" clip-path="url(#pac621490ea)" style="fill: none; stroke: #9467bd; stroke-width: 1.5; stroke-linecap: square"/>
   </g>
   <g id="line2d_28">
    <path d="M 298.065 34.027705 
L 309.512105 36.012269 
L 320.959211 41.360594 
L 332.406316 48.828594 
L 343.853421 57.286114 
L 355.300526 67.264849 
L 366.747632 76.531798 
L 378.194737 86.744387 
L 389.641842 95.967825 
L 401.088947 104.801237 
L 412.536053 113.012956 
L 423.983158 120.211109 
L 435.430263 127.195576 
L 446.877368 133.793239 
L 458.324474 138.677728 
L 469.771579 143.546731 
L 481.218684 147.699643 
L 492.665789 152.243101 
L 504.112895 154.853672 
L 515.56 158.468694 
" clip-path="url(#pac621490ea)" style="fill: none; stroke: #8c564b; stroke-width: 1.5; stroke-linecap: square"/>
   </g>
   <g id="line2d_29">
    <path d="M 298.065 46.637728 
L 309.512105 48.531141 
L 320.959211 53.622482 
L 332.406316 60.914919 
L 343.853421 69.011655 
L 355.300526 78.283021 
L 366.747632 86.605292 
L 378.194737 95.938307 
L 389.641842 104.480851 
L 401.088947 112.128573 
L 412.536053 119.551064 
L 423.983158 126.22429 
L 435.430263 132.535165 
L 446.877368 138.490093 
L 458.324474 142.74599 
L 469.771579 147.234291 
L 481.218684 151.148481 
L 492.665789 154.560417 
L 504.112895 157.667262 
L 515.56 160.151089 
" clip-path="url(#pac621490ea)" style="fill: none; stroke: #e377c2; stroke-width: 1.5; stroke-linecap: square"/>
   </g>
   <g id="line2d_30">
    <path d="M 298.065 34.031896 
L 309.512105 36.016243 
L 320.959211 41.344262 
L 332.406316 48.852267 
L 343.853421 57.201772 
L 355.300526 67.266538 
L 366.747632 76.439199 
L 378.194737 86.680024 
L 389.641842 96.104127 
L 401.088947 104.651356 
L 412.536053 112.856942 
L 423.983158 120.012633 
L 435.430263 126.939537 
L 446.877368 133.835346 
L 458.324474 138.591542 
L 469.771579 143.80494 
L 481.218684 148.231378 
L 492.665789 151.973966 
L 504.112895 155.67137 
L 515.56 158.305039 
" clip-path="url(#pac621490ea)" style="fill: none; stroke: #7f7f7f; stroke-width: 1.5; stroke-linecap: square"/>
   </g>
   <g id="patch_6">
    <path d="M 298.065 174.04 
L 298.065 26.88 
" style="fill: none; stroke: #000000; stroke-width: 0.8; stroke-linejoin: miter; stroke-linecap: square"/>
   </g>
   <g id="patch_7">
    <path d="M 298.065 174.04 
L 515.56 174.04 
" style="fill: none; stroke: #000000; stroke-width: 0.8; stroke-linejoin: miter; stroke-linecap: square"/>
   </g>
   <g id="text_19">
    <!-- Node * third variable -->
    <g transform="translate(344.2325 20.88)scale(0.12 -0.12)">
     <defs>
      <path id="DejaVuSans-68" d="M 3513 2113 
L 3513 0 
L 2938 0 
L 2938 2094 
Q 2938 2591 2744 2837 
Q 2550 3084 2163 3084 
Q 1697 3084 1428 2787 
Q 1159 2491 1159 1978 
L 1159 0 
L 581 0 
L 581 4863 
L 1159 4863 
L 1159 2956 
Q 1366 3272 1645 3428 
Q 1925 3584 2291 3584 
Q 2894 3584 3203 3211 
Q 3513 2838 3513 2113 
z
" transform="scale(0.015625)"/>
      <path id="DejaVuSans-62" d="M 3116 1747 
Q 3116 2381 2855 2742 
Q 2594 3103 2138 3103 
Q 1681 3103 1420 2742 
Q 1159 2381 1159 1747 
Q 1159 1113 1420 752 
Q 1681 391 2138 391 
Q 2594 391 2855 752 
Q 3116 1113 3116 1747 
z
M 1159 2969 
Q 1341 3281 1617 3432 
Q 1894 3584 2278 3584 
Q 2916 3584 3314 3078 
Q 3713 2572 3713 1747 
Q 3713 922 3314 415 
Q 2916 -91 2278 -91 
Q 1894 -91 1617 61 
Q 1341 213 1159 525 
L 1159 0 
L 581 0 
L 581 4863 
L 1159 4863 
L 1159 2969 
z
" transform="scale(0.015625)"/>
     </defs>
     <use xlink:href="#DejaVuSans-4e"/>
     <use xlink:href="#DejaVuSans-6f" x="74.804688"/>
     <use xlink:href="#DejaVuSans-64" x="135.986328"/>
     <use xlink:href="#DejaVuSans-65" x="199.462891"/>
     <use xlink:href="#DejaVuSans-20" x="260.986328"/>
     <use xlink:href="#DejaVuSans-2a" x="292.773438"/>
     <use xlink:href="#DejaVuSans-20" x="342.773438"/>
     <use xlink:href="#DejaVuSans-74" x="374.560547"/>
     <use xlink:href="#DejaVuSans-68" x="413.769531"/>
     <use xlink:href="#DejaVuSans-69" x="477.148438"/>
     <use xlink:href="#DejaVuSans-72" x="504.931641"/>
     <use xlink:href="#DejaVuSans-64" x="544.294922"/>
     <use xlink:href="#DejaVuSans-20" x="607.771484"/>
     <use xlink:href="#DejaVuSans-76" x="639.558594"/>
     <use xlink:href="#DejaVuSans-61" x="698.738281"/>
     <use xlink:href="#DejaVuSans-72" x="760.017578"/>
     <use xlink:href="#DejaVuSans-69" x="801.130859"/>
     <use xlink:href="#DejaVuSans-61" x="828.914062"/>
     <use xlink:href="#DejaVuSans-62" x="890.193359"/>
     <use xlink:href="#DejaVuSans-6c" x="953.669922"/>
     <use xlink:href="#DejaVuSans-65" x="981.453125"/>
    </g>
   </g>
   <g id="legend_1">
    <g id="line2d_31">
     <path d="M 524.56 39.978437 
L 534.56 39.978437 
L 544.56 39.978437 
" style="fill: none; stroke: #1f77b4; stroke-width: 1.5; stroke-linecap: square"/>
    </g>
    <g id="text_20">
     <!-- Node -->
     <g transform="translate(552.56 43.478437)scale(0.1 -0.1)">
      <use xlink:href="#DejaVuSans-4e"/>
      <use xlink:href="#DejaVuSans-6f" x="74.804688"/>
      <use xlink:href="#DejaVuSans-64" x="135.986328"/>
      <use xlink:href="#DejaVuSans-65" x="199.462891"/>
     </g>
    </g>
    <g id="line2d_32">
     <path d="M 524.56 54.656563 
L 534.56 54.656563 
L 544.56 54.656563 
" style="fill: none; stroke: #ff7f0e; stroke-width: 1.5; stroke-linecap: square"/>
    </g>
    <g id="text_21">
     <!-- Node + surprisal -->
     <g transform="translate(552.56 58.156563)scale(0.1 -0.1)">
      <defs>
       <path id="DejaVuSans-2b" d="M 2944 4013 
L 2944 2272 
L 4684 2272 
L 4684 1741 
L 2944 1741 
L 2944 0 
L 2419 0 
L 2419 1741 
L 678 1741 
L 678 2272 
L 2419 2272 
L 2419 4013 
L 2944 4013 
z
" transform="scale(0.015625)"/>
      </defs>
      <use xlink:href="#DejaVuSans-4e"/>
      <use xlink:href="#DejaVuSans-6f" x="74.804688"/>
      <use xlink:href="#DejaVuSans-64" x="135.986328"/>
      <use xlink:href="#DejaVuSans-65" x="199.462891"/>
      <use xlink:href="#DejaVuSans-20" x="260.986328"/>
      <use xlink:href="#DejaVuSans-2b" x="292.773438"/>
      <use xlink:href="#DejaVuSans-20" x="376.5625"/>
      <use xlink:href="#DejaVuSans-73" x="408.349609"/>
      <use xlink:href="#DejaVuSans-75" x="460.449219"/>
      <use xlink:href="#DejaVuSans-72" x="523.828125"/>
      <use xlink:href="#DejaVuSans-70" x="564.941406"/>
      <use xlink:href="#DejaVuSans-72" x="628.417969"/>
      <use xlink:href="#DejaVuSans-69" x="669.53125"/>
      <use xlink:href="#DejaVuSans-73" x="697.314453"/>
      <use xlink:href="#DejaVuSans-61" x="749.414062"/>
      <use xlink:href="#DejaVuSans-6c" x="810.693359"/>
     </g>
    </g>
    <g id="line2d_33">
     <path d="M 524.56 69.334687 
L 534.56 69.334687 
L 544.56 69.334687 
" style="fill: none; stroke: #2ca02c; stroke-width: 1.5; stroke-linecap: square"/>
    </g>
    <g id="text_22">
     <!-- Node split -->
     <g transform="translate(552.56 72.834687)scale(0.1 -0.1)">
      <use xlink:href="#DejaVuSans-4e"/>
      <use xlink:href="#DejaVuSans-6f" x="74.804688"/>
      <use xlink:href="#DejaVuSans-64" x="135.986328"/>
      <use xlink:href="#DejaVuSans-65" x="199.462891"/>
      <use xlink:href="#DejaVuSans-20" x="260.986328"/>
      <use xlink:href="#DejaVuSans-73" x="292.773438"/>
      <use xlink:href="#DejaVuSans-70" x="344.873047"/>
      <use xlink:href="#DejaVuSans-6c" x="408.349609"/>
      <use xlink:href="#DejaVuSans-69" x="436.132812"/>
      <use xlink:href="#DejaVuSans-74" x="463.916016"/>
     </g>
    </g>
    <g id="line2d_34">
     <path d="M 524.56 84.012812 
L 534.56 84.012812 
L 544.56 84.012812 
" style="fill: none; stroke: #d62728; stroke-width: 1.5; stroke-linecap: square"/>
    </g>
    <g id="text_23">
     <!-- Node split + surprisal -->
     <g transform="translate(552.56 87.512812)scale(0.1 -0.1)">
      <use xlink:href="#DejaVuSans-4e"/>
      <use xlink:href="#DejaVuSans-6f" x="74.804688"/>
      <use xlink:href="#DejaVuSans-64" x="135.986328"/>
      <use xlink:href="#DejaVuSans-65" x="199.462891"/>
      <use xlink:href="#DejaVuSans-20" x="260.986328"/>
      <use xlink:href="#DejaVuSans-73" x="292.773438"/>
      <use xlink:href="#DejaVuSans-70" x="344.873047"/>
      <use xlink:href="#DejaVuSans-6c" x="408.349609"/>
      <use xlink:href="#DejaVuSans-69" x="436.132812"/>
      <use xlink:href="#DejaVuSans-74" x="463.916016"/>
      <use xlink:href="#DejaVuSans-20" x="503.125"/>
      <use xlink:href="#DejaVuSans-2b" x="534.912109"/>
      <use xlink:href="#DejaVuSans-20" x="618.701172"/>
      <use xlink:href="#DejaVuSans-73" x="650.488281"/>
      <use xlink:href="#DejaVuSans-75" x="702.587891"/>
      <use xlink:href="#DejaVuSans-72" x="765.966797"/>
      <use xlink:href="#DejaVuSans-70" x="807.080078"/>
      <use xlink:href="#DejaVuSans-72" x="870.556641"/>
      <use xlink:href="#DejaVuSans-69" x="911.669922"/>
      <use xlink:href="#DejaVuSans-73" x="939.453125"/>
      <use xlink:href="#DejaVuSans-61" x="991.552734"/>
      <use xlink:href="#DejaVuSans-6c" x="1052.832031"/>
     </g>
    </g>
    <g id="line2d_35">
     <path d="M 524.56 98.690937 
L 534.56 98.690937 
L 544.56 98.690937 
" style="fill: none; stroke: #9467bd; stroke-width: 1.5; stroke-linecap: square"/>
    </g>
    <g id="text_24">
     <!-- Node random split -->
     <g transform="translate(552.56 102.190937)scale(0.1 -0.1)">
      <use xlink:href="#DejaVuSans-4e"/>
      <use xlink:href="#DejaVuSans-6f" x="74.804688"/>
      <use xlink:href="#DejaVuSans-64" x="135.986328"/>
      <use xlink:href="#DejaVuSans-65" x="199.462891"/>
      <use xlink:href="#DejaVuSans-20" x="260.986328"/>
      <use xlink:href="#DejaVuSans-72" x="292.773438"/>
      <use xlink:href="#DejaVuSans-61" x="333.886719"/>
      <use xlink:href="#DejaVuSans-6e" x="395.166016"/>
      <use xlink:href="#DejaVuSans-64" x="458.544922"/>
      <use xlink:href="#DejaVuSans-6f" x="522.021484"/>
      <use xlink:href="#DejaVuSans-6d" x="583.203125"/>
      <use xlink:href="#DejaVuSans-20" x="680.615234"/>
      <use xlink:href="#DejaVuSans-73" x="712.402344"/>
      <use xlink:href="#DejaVuSans-70" x="764.501953"/>
      <use xlink:href="#DejaVuSans-6c" x="827.978516"/>
      <use xlink:href="#DejaVuSans-69" x="855.761719"/>
      <use xlink:href="#DejaVuSans-74" x="883.544922"/>
     </g>
    </g>
    <g id="line2d_36">
     <path d="M 524.56 113.369062 
L 534.56 113.369062 
L 544.56 113.369062 
" style="fill: none; stroke: #8c564b; stroke-width: 1.5; stroke-linecap: square"/>
    </g>
    <g id="text_25">
     <!-- Node random split + surprisal -->
     <g transform="translate(552.56 116.869062)scale(0.1 -0.1)">
      <use xlink:href="#DejaVuSans-4e"/>
      <use xlink:href="#DejaVuSans-6f" x="74.804688"/>
      <use xlink:href="#DejaVuSans-64" x="135.986328"/>
      <use xlink:href="#DejaVuSans-65" x="199.462891"/>
      <use xlink:href="#DejaVuSans-20" x="260.986328"/>
      <use xlink:href="#DejaVuSans-72" x="292.773438"/>
      <use xlink:href="#DejaVuSans-61" x="333.886719"/>
      <use xlink:href="#DejaVuSans-6e" x="395.166016"/>
      <use xlink:href="#DejaVuSans-64" x="458.544922"/>
      <use xlink:href="#DejaVuSans-6f" x="522.021484"/>
      <use xlink:href="#DejaVuSans-6d" x="583.203125"/>
      <use xlink:href="#DejaVuSans-20" x="680.615234"/>
      <use xlink:href="#DejaVuSans-73" x="712.402344"/>
      <use xlink:href="#DejaVuSans-70" x="764.501953"/>
      <use xlink:href="#DejaVuSans-6c" x="827.978516"/>
      <use xlink:href="#DejaVuSans-69" x="855.761719"/>
      <use xlink:href="#DejaVuSans-74" x="883.544922"/>
      <use xlink:href="#DejaVuSans-20" x="922.753906"/>
      <use xlink:href="#DejaVuSans-2b" x="954.541016"/>
      <use xlink:href="#DejaVuSans-20" x="1038.330078"/>
      <use xlink:href="#DejaVuSans-73" x="1070.117188"/>
      <use xlink:href="#DejaVuSans-75" x="1122.216797"/>
      <use xlink:href="#DejaVuSans-72" x="1185.595703"/>
      <use xlink:href="#DejaVuSans-70" x="1226.708984"/>
      <use xlink:href="#DejaVuSans-72" x="1290.185547"/>
      <use xlink:href="#DejaVuSans-69" x="1331.298828"/>
      <use xlink:href="#DejaVuSans-73" x="1359.082031"/>
      <use xlink:href="#DejaVuSans-61" x="1411.181641"/>
      <use xlink:href="#DejaVuSans-6c" x="1472.460938"/>
     </g>
    </g>
    <g id="line2d_37">
     <path d="M 524.56 128.047187 
L 534.56 128.047187 
L 544.56 128.047187 
" style="fill: none; stroke: #e377c2; stroke-width: 1.5; stroke-linecap: square"/>
    </g>
    <g id="text_26">
     <!-- Interaction -->
     <g transform="translate(552.56 131.547187)scale(0.1 -0.1)">
      <use xlink:href="#DejaVuSans-49"/>
      <use xlink:href="#DejaVuSans-6e" x="29.492188"/>
      <use xlink:href="#DejaVuSans-74" x="92.871094"/>
      <use xlink:href="#DejaVuSans-65" x="132.080078"/>
      <use xlink:href="#DejaVuSans-72" x="193.603516"/>
      <use xlink:href="#DejaVuSans-61" x="234.716797"/>
      <use xlink:href="#DejaVuSans-63" x="295.996094"/>
      <use xlink:href="#DejaVuSans-74" x="350.976562"/>
      <use xlink:href="#DejaVuSans-69" x="390.185547"/>
      <use xlink:href="#DejaVuSans-6f" x="417.96875"/>
      <use xlink:href="#DejaVuSans-6e" x="479.150391"/>
     </g>
    </g>
    <g id="line2d_38">
     <path d="M 524.56 142.725312 
L 534.56 142.725312 
L 544.56 142.725312 
" style="fill: none; stroke: #7f7f7f; stroke-width: 1.5; stroke-linecap: square"/>
    </g>
    <g id="text_27">
     <!-- Node + surprisal + interaction -->
     <g transform="translate(552.56 146.225312)scale(0.1 -0.1)">
      <use xlink:href="#DejaVuSans-4e"/>
      <use xlink:href="#DejaVuSans-6f" x="74.804688"/>
      <use xlink:href="#DejaVuSans-64" x="135.986328"/>
      <use xlink:href="#DejaVuSans-65" x="199.462891"/>
      <use xlink:href="#DejaVuSans-20" x="260.986328"/>
      <use xlink:href="#DejaVuSans-2b" x="292.773438"/>
      <use xlink:href="#DejaVuSans-20" x="376.5625"/>
      <use xlink:href="#DejaVuSans-73" x="408.349609"/>
      <use xlink:href="#DejaVuSans-75" x="460.449219"/>
      <use xlink:href="#DejaVuSans-72" x="523.828125"/>
      <use xlink:href="#DejaVuSans-70" x="564.941406"/>
      <use xlink:href="#DejaVuSans-72" x="628.417969"/>
      <use xlink:href="#DejaVuSans-69" x="669.53125"/>
      <use xlink:href="#DejaVuSans-73" x="697.314453"/>
      <use xlink:href="#DejaVuSans-61" x="749.414062"/>
      <use xlink:href="#DejaVuSans-6c" x="810.693359"/>
      <use xlink:href="#DejaVuSans-20" x="838.476562"/>
      <use xlink:href="#DejaVuSans-2b" x="870.263672"/>
      <use xlink:href="#DejaVuSans-20" x="954.052734"/>
      <use xlink:href="#DejaVuSans-69" x="985.839844"/>
      <use xlink:href="#DejaVuSans-6e" x="1013.623047"/>
      <use xlink:href="#DejaVuSans-74" x="1077.001953"/>
      <use xlink:href="#DejaVuSans-65" x="1116.210938"/>
      <use xlink:href="#DejaVuSans-72" x="1177.734375"/>
      <use xlink:href="#DejaVuSans-61" x="1218.847656"/>
      <use xlink:href="#DejaVuSans-63" x="1280.126953"/>
      <use xlink:href="#DejaVuSans-74" x="1335.107422"/>
      <use xlink:href="#DejaVuSans-69" x="1374.316406"/>
      <use xlink:href="#DejaVuSans-6f" x="1402.099609"/>
      <use xlink:href="#DejaVuSans-6e" x="1463.28125"/>
     </g>
    </g>
   </g>
  </g>
 </g>
 <defs>
  <clipPath id="p381efb7b5e">
   <rect x="47.72" y="26.88" width="217.495" height="147.16"/>
  </clipPath>
  <clipPath id="pac621490ea">
   <rect x="298.065" y="26.88" width="217.495" height="147.16"/>
  </clipPath>
 </defs>
</svg>
