<?xml version="1.0" encoding="utf-8" standalone="no"?>
<!DOCTYPE svg PUBLIC "-//W3C//DTD SVG 1.1//EN"
  "http://www.w3.org/Graphics/SVG/1.1/DTD/svg11.dtd">
<svg xmlns:xlink="http://www.w3.org/1999/xlink" width="720pt" height="216pt" viewBox="0 0 720 216" xmlns="http://www.w3.org/2000/svg" version="1.1">
 <metadata>
  <rdf:RDF xmlns:dc="http://purl.org/dc/elements/1.1/" xmlns:cc="http://creativecommons.org/ns#" xmlns:rdf="http://www.w3.org/1999/02/22-rdf-syntax-ns#">
   <cc:Work>
    <dc:type rdf:resource="http://purl.org/dc/dcmitype/StillImage"/>
    <dc:date>2024-01-15T23:19:34.617482</dc:date>
    <dc:format>image/svg+xml</dc:format>
    <dc:creator>
     <cc:Agent>
      <dc:title>Matplotlib v3.5.1, https://matplotlib.org/</dc:title>
     </cc:Agent>
    </dc:creator>
   </cc:Work>
  </rdf:RDF>
 </metadata>
 <defs>
  <style type="text/css">*{stroke-linejoin: round; stroke-linecap: butt}</style>
 </defs>
 <g id="figure_1">
  <g id="patch_1">
   <path d="M 0 216 
L 720 216 
L 720 0 
L 0 0 
z
" style="fill: #ffffff"/>
  </g>
  <g id="axes_1">
   <g id="patch_2">
    <path d="M 47.72 174.04 
L 265.215 174.04 
L 265.215 26.88 
L 47.72 26.88 
z
" style="fill: #ffffff"/>
   </g>
   <g id="PolyCollection_1">
    <path d="M 47.72 33.569091 
L 47.72 34.193008 
L 59.167105 36.290985 
L 70.614211 42.896278 
L 82.061316 51.416874 
L 93.508421 61.174772 
L 104.955526 71.28259 
L 116.402632 82.231163 
L 127.849737 92.441845 
L 139.296842 102.194651 
L 150.743947 111.757768 
L 162.191053 119.873166 
L 173.638158 126.653721 
L 185.085263 133.61105 
L 196.532368 139.504385 
L 207.979474 143.133582 
L 219.426579 146.561416 
L 230.873684 149.716303 
L 242.320789 153.040239 
L 253.767895 155.331781 
L 265.215 157.419949 
L 265.215 145.987217 
L 265.215 145.987217 
L 253.767895 142.611386 
L 242.320789 140.056271 
L 230.873684 135.079465 
L 219.426579 130.801188 
L 207.979474 127.358703 
L 196.532368 122.73408 
L 185.085263 117.434524 
L 173.638158 111.080917 
L 162.191053 105.170131 
L 150.743947 98.307145 
L 139.296842 91.571653 
L 127.849737 82.612523 
L 116.402632 74.726182 
L 104.955526 64.548215 
L 93.508421 55.964665 
L 82.061316 47.044519 
L 70.614211 40.278989 
L 59.167105 35.329308 
L 47.72 33.569091 
z
" clip-path="url(#p2b6c2b19b3)" style="fill: #1f77b4; fill-opacity: 0.4"/>
   </g>
   <g id="PolyCollection_2">
    <path d="M 47.72 33.576577 
L 47.72 34.199816 
L 59.167105 35.509106 
L 70.614211 39.059689 
L 82.061316 44.325022 
L 93.508421 50.905226 
L 104.955526 59.558548 
L 116.402632 69.195757 
L 127.849737 77.881123 
L 139.296842 87.116196 
L 150.743947 95.960335 
L 162.191053 104.295774 
L 173.638158 111.257332 
L 185.085263 118.936979 
L 196.532368 126.081738 
L 207.979474 130.957699 
L 219.426579 135.341603 
L 230.873684 139.792565 
L 242.320789 144.079257 
L 253.767895 147.138705 
L 265.215 150.027477 
L 265.215 136.411385 
L 265.215 136.411385 
L 253.767895 132.522243 
L 242.320789 129.395598 
L 230.873684 124.37493 
L 219.426579 119.788163 
L 207.979474 115.558248 
L 196.532368 110.129453 
L 185.085263 104.526121 
L 173.638158 97.553802 
L 162.191053 90.983271 
L 150.743947 83.775944 
L 139.296842 76.327321 
L 127.849737 68.127923 
L 116.402632 61.049545 
L 104.955526 53.131021 
L 93.508421 47.43192 
L 82.061316 41.460578 
L 70.614211 37.519505 
L 59.167105 34.794076 
L 47.72 33.576577 
z
" clip-path="url(#p2b6c2b19b3)" style="fill: #ff7f0e; fill-opacity: 0.4"/>
   </g>
   <g id="PolyCollection_3">
    <path d="M 47.72 33.581754 
L 47.72 34.200826 
L 59.167105 35.816248 
L 70.614211 38.933214 
L 82.061316 42.641092 
L 93.508421 47.386875 
L 104.955526 52.393147 
L 116.402632 56.97399 
L 127.849737 61.481293 
L 139.296842 66.417001 
L 150.743947 71.165524 
L 162.191053 75.750994 
L 173.638158 80.121342 
L 185.085263 85.454133 
L 196.532368 89.983518 
L 207.979474 94.241998 
L 219.426579 99.174341 
L 230.873684 103.188194 
L 242.320789 107.491327 
L 253.767895 111.201974 
L 265.215 115.012821 
L 265.215 102.95566 
L 265.215 102.95566 
L 253.767895 98.819661 
L 242.320789 95.752745 
L 230.873684 92.209397 
L 219.426579 87.732352 
L 207.979474 84.559331 
L 196.532368 80.571559 
L 185.085263 77.415787 
L 173.638158 73.719497 
L 162.191053 69.620356 
L 150.743947 64.785773 
L 139.296842 61.193104 
L 127.849737 55.814336 
L 116.402632 52.187912 
L 104.955526 47.745839 
L 93.508421 43.466587 
L 82.061316 40.176079 
L 70.614211 37.06483 
L 59.167105 34.977454 
L 47.72 33.581754 
z
" clip-path="url(#p2b6c2b19b3)" style="fill: #2ca02c; fill-opacity: 0.4"/>
   </g>
   <g id="PolyCollection_4">
    <path d="M 47.72 33.595011 
L 47.72 34.211671 
L 59.167105 35.44555 
L 70.614211 37.699776 
L 82.061316 40.718594 
L 93.508421 44.631512 
L 104.955526 49.455249 
L 116.402632 54.008535 
L 127.849737 58.689174 
L 139.296842 64.050447 
L 150.743947 69.229558 
L 162.191053 74.083746 
L 173.638158 78.804901 
L 185.085263 84.135066 
L 196.532368 88.509686 
L 207.979474 92.565561 
L 219.426579 97.493393 
L 230.873684 101.402938 
L 242.320789 105.387597 
L 253.767895 109.084782 
L 265.215 112.806327 
L 265.215 101.002061 
L 265.215 101.002061 
L 253.767895 97.194642 
L 242.320789 94.356518 
L 230.873684 90.82159 
L 219.426579 86.417319 
L 207.979474 83.296801 
L 196.532368 79.20726 
L 185.085263 76.03432 
L 173.638158 72.122438 
L 162.191053 68.112933 
L 150.743947 63.105638 
L 139.296842 59.344897 
L 127.849737 54.046996 
L 116.402632 50.315612 
L 104.955526 45.743141 
L 93.508421 41.95079 
L 82.061316 38.836932 
L 70.614211 36.373695 
L 59.167105 34.748727 
L 47.72 33.595011 
z
" clip-path="url(#p2b6c2b19b3)" style="fill: #d62728; fill-opacity: 0.4"/>
   </g>
   <g id="PolyCollection_5">
    <path d="M 47.72 33.586708 
L 47.72 34.200939 
L 59.167105 36.305984 
L 70.614211 42.943323 
L 82.061316 51.481576 
L 93.508421 61.119536 
L 104.955526 71.548448 
L 116.402632 82.330543 
L 127.849737 92.704477 
L 139.296842 102.446981 
L 150.743947 112.213066 
L 162.191053 120.100089 
L 173.638158 126.61957 
L 185.085263 133.979222 
L 196.532368 139.819875 
L 207.979474 143.547724 
L 219.426579 146.34076 
L 230.873684 151.149086 
L 242.320789 153.244616 
L 253.767895 155.206382 
L 265.215 157.445368 
L 265.215 146.533211 
L 265.215 146.533211 
L 253.767895 142.921135 
L 242.320789 140.110005 
L 230.873684 135.912877 
L 219.426579 130.358708 
L 207.979474 127.634645 
L 196.532368 123.289799 
L 185.085263 118.090711 
L 173.638158 111.184167 
L 162.191053 105.476875 
L 150.743947 98.502016 
L 139.296842 91.774537 
L 127.849737 82.710613 
L 116.402632 75.091338 
L 104.955526 64.605605 
L 93.508421 55.936543 
L 82.061316 47.099527 
L 70.614211 40.313806 
L 59.167105 35.363808 
L 47.72 33.586708 
z
" clip-path="url(#p2b6c2b19b3)" style="fill: #9467bd; fill-opacity: 0.4"/>
   </g>
   <g id="PolyCollection_6">
    <path d="M 47.72 33.595563 
L 47.72 34.208587 
L 59.167105 35.530145 
L 70.614211 39.09516 
L 82.061316 44.390177 
L 93.508421 50.871874 
L 104.955526 59.674912 
L 116.402632 69.301945 
L 127.849737 78.062279 
L 139.296842 87.426541 
L 150.743947 96.195817 
L 162.191053 104.467026 
L 173.638158 111.249533 
L 185.085263 119.293083 
L 196.532368 126.266097 
L 207.979474 131.352611 
L 219.426579 134.906188 
L 230.873684 140.877941 
L 242.320789 144.202873 
L 253.767895 147.120234 
L 265.215 150.092606 
L 265.215 136.895748 
L 265.215 136.895748 
L 253.767895 132.766355 
L 242.320789 129.488446 
L 230.873684 125.06349 
L 219.426579 119.783291 
L 207.979474 115.830374 
L 196.532368 110.706359 
L 185.085263 105.051965 
L 173.638158 97.660171 
L 162.191053 91.170196 
L 150.743947 83.895502 
L 139.296842 76.530511 
L 127.849737 68.291742 
L 116.402632 61.397787 
L 104.955526 53.162719 
L 93.508421 47.461201 
L 82.061316 41.493311 
L 70.614211 37.555313 
L 59.167105 34.827291 
L 47.72 33.595563 
z
" clip-path="url(#p2b6c2b19b3)" style="fill: #8c564b; fill-opacity: 0.4"/>
   </g>
   <g id="PolyCollection_7">
    <path d="M 47.72 44.293418 
L 47.72 47.549265 
L 59.167105 50.423733 
L 70.614211 58.642666 
L 82.061316 69.456924 
L 93.508421 81.557527 
L 104.955526 93.459765 
L 116.402632 104.159477 
L 127.849737 113.502974 
L 139.296842 121.788868 
L 150.743947 130.160263 
L 162.191053 136.496877 
L 173.638158 142.591188 
L 185.085263 148.402554 
L 196.532368 153.159059 
L 207.979474 156.906399 
L 219.426579 159.493243 
L 230.873684 161.796663 
L 242.320789 164.419937 
L 253.767895 165.904632 
L 265.215 167.350909 
L 265.215 159.592621 
L 265.215 159.592621 
L 253.767895 157.218099 
L 242.320789 154.729062 
L 230.873684 150.883683 
L 219.426579 147.094029 
L 207.979474 144.645163 
L 196.532368 141.078936 
L 185.085263 136.51395 
L 173.638158 130.600657 
L 162.191053 125.005551 
L 150.743947 118.220249 
L 139.296842 110.1443 
L 127.849737 100.514947 
L 116.402632 91.25903 
L 104.955526 79.241208 
L 93.508421 69.259368 
L 82.061316 59.59046 
L 70.614211 51.547568 
L 59.167105 46.672585 
L 47.72 44.293418 
z
" clip-path="url(#p2b6c2b19b3)" style="fill: #e377c2; fill-opacity: 0.4"/>
   </g>
   <g id="PolyCollection_8">
    <path d="M 47.72 33.583501 
L 47.72 34.207948 
L 59.167105 34.862264 
L 70.614211 35.72406 
L 82.061316 37.997092 
L 93.508421 42.69834 
L 104.955526 49.962591 
L 116.402632 57.876539 
L 127.849737 66.284963 
L 139.296842 74.837039 
L 150.743947 82.881937 
L 162.191053 90.07261 
L 173.638158 96.695853 
L 185.085263 104.716222 
L 196.532368 111.696121 
L 207.979474 117.56214 
L 219.426579 123.431069 
L 230.873684 128.814393 
L 242.320789 133.968749 
L 253.767895 137.88109 
L 265.215 141.826499 
L 265.215 129.266517 
L 265.215 129.266517 
L 253.767895 124.964413 
L 242.320789 121.581526 
L 230.873684 116.142808 
L 219.426579 111.198134 
L 207.979474 106.333075 
L 196.532368 100.526482 
L 185.085263 94.123501 
L 173.638158 87.205416 
L 162.191053 79.730889 
L 150.743947 71.150168 
L 139.296842 63.945228 
L 127.849737 55.69677 
L 116.402632 49.490451 
L 104.955526 42.629916 
L 93.508421 38.641168 
L 82.061316 35.954153 
L 70.614211 34.528727 
L 59.167105 34.249966 
L 47.72 33.583501 
z
" clip-path="url(#p2b6c2b19b3)" style="fill: #7f7f7f; fill-opacity: 0.4"/>
   </g>
   <g id="matplotlib.axis_1">
    <g id="xtick_1">
     <g id="line2d_1">
      <defs>
       <path id="m32e8fa4be5" d="M 0 0 
L 0 3.5 
" style="stroke: #000000; stroke-width: 0.8"/>
      </defs>
      <g>
       <use xlink:href="#m32e8fa4be5" x="47.72" y="174.04" style="stroke: #000000; stroke-width: 0.8"/>
      </g>
     </g>
     <g id="text_1">
      <!-- 0.0 -->
      <g transform="translate(39.768438 188.638438)scale(0.1 -0.1)">
       <defs>
        <path id="DejaVuSans-30" d="M 2034 4250 
Q 1547 4250 1301 3770 
Q 1056 3291 1056 2328 
Q 1056 1369 1301 889 
Q 1547 409 2034 409 
Q 2525 409 2770 889 
Q 3016 1369 3016 2328 
Q 3016 3291 2770 3770 
Q 2525 4250 2034 4250 
z
M 2034 4750 
Q 2819 4750 3233 4129 
Q 3647 3509 3647 2328 
Q 3647 1150 3233 529 
Q 2819 -91 2034 -91 
Q 1250 -91 836 529 
Q 422 1150 422 2328 
Q 422 3509 836 4129 
Q 1250 4750 2034 4750 
z
" transform="scale(0.015625)"/>
        <path id="DejaVuSans-2e" d="M 684 794 
L 1344 794 
L 1344 0 
L 684 0 
L 684 794 
z
" transform="scale(0.015625)"/>
       </defs>
       <use xlink:href="#DejaVuSans-30"/>
       <use xlink:href="#DejaVuSans-2e" x="63.623047"/>
       <use xlink:href="#DejaVuSans-30" x="95.410156"/>
      </g>
     </g>
    </g>
    <g id="xtick_2">
     <g id="line2d_2">
      <g>
       <use xlink:href="#m32e8fa4be5" x="102.09375" y="174.04" style="stroke: #000000; stroke-width: 0.8"/>
      </g>
     </g>
     <g id="text_2">
      <!-- 0.5 -->
      <g transform="translate(94.142188 188.638438)scale(0.1 -0.1)">
       <defs>
        <path id="DejaVuSans-35" d="M 691 4666 
L 3169 4666 
L 3169 4134 
L 1269 4134 
L 1269 2991 
Q 1406 3038 1543 3061 
Q 1681 3084 1819 3084 
Q 2600 3084 3056 2656 
Q 3513 2228 3513 1497 
Q 3513 744 3044 326 
Q 2575 -91 1722 -91 
Q 1428 -91 1123 -41 
Q 819 9 494 109 
L 494 744 
Q 775 591 1075 516 
Q 1375 441 1709 441 
Q 2250 441 2565 725 
Q 2881 1009 2881 1497 
Q 2881 1984 2565 2268 
Q 2250 2553 1709 2553 
Q 1456 2553 1204 2497 
Q 953 2441 691 2322 
L 691 4666 
z
" transform="scale(0.015625)"/>
       </defs>
       <use xlink:href="#DejaVuSans-30"/>
       <use xlink:href="#DejaVuSans-2e" x="63.623047"/>
       <use xlink:href="#DejaVuSans-35" x="95.410156"/>
      </g>
     </g>
    </g>
    <g id="xtick_3">
     <g id="line2d_3">
      <g>
       <use xlink:href="#m32e8fa4be5" x="156.4675" y="174.04" style="stroke: #000000; stroke-width: 0.8"/>
      </g>
     </g>
     <g id="text_3">
      <!-- 1.0 -->
      <g transform="translate(148.515938 188.638438)scale(0.1 -0.1)">
       <defs>
        <path id="DejaVuSans-31" d="M 794 531 
L 1825 531 
L 1825 4091 
L 703 3866 
L 703 4441 
L 1819 4666 
L 2450 4666 
L 2450 531 
L 3481 531 
L 3481 0 
L 794 0 
L 794 531 
z
" transform="scale(0.015625)"/>
       </defs>
       <use xlink:href="#DejaVuSans-31"/>
       <use xlink:href="#DejaVuSans-2e" x="63.623047"/>
       <use xlink:href="#DejaVuSans-30" x="95.410156"/>
      </g>
     </g>
    </g>
    <g id="xtick_4">
     <g id="line2d_4">
      <g>
       <use xlink:href="#m32e8fa4be5" x="210.84125" y="174.04" style="stroke: #000000; stroke-width: 0.8"/>
      </g>
     </g>
     <g id="text_4">
      <!-- 1.5 -->
      <g transform="translate(202.889687 188.638438)scale(0.1 -0.1)">
       <use xlink:href="#DejaVuSans-31"/>
       <use xlink:href="#DejaVuSans-2e" x="63.623047"/>
       <use xlink:href="#DejaVuSans-35" x="95.410156"/>
      </g>
     </g>
    </g>
    <g id="xtick_5">
     <g id="line2d_5">
      <g>
       <use xlink:href="#m32e8fa4be5" x="265.215" y="174.04" style="stroke: #000000; stroke-width: 0.8"/>
      </g>
     </g>
     <g id="text_5">
      <!-- 2.0 -->
      <g transform="translate(257.263437 188.638438)scale(0.1 -0.1)">
       <defs>
        <path id="DejaVuSans-32" d="M 1228 531 
L 3431 531 
L 3431 0 
L 469 0 
L 469 531 
Q 828 903 1448 1529 
Q 2069 2156 2228 2338 
Q 2531 2678 2651 2914 
Q 2772 3150 2772 3378 
Q 2772 3750 2511 3984 
Q 2250 4219 1831 4219 
Q 1534 4219 1204 4116 
Q 875 4013 500 3803 
L 500 4441 
Q 881 4594 1212 4672 
Q 1544 4750 1819 4750 
Q 2544 4750 2975 4387 
Q 3406 4025 3406 3419 
Q 3406 3131 3298 2873 
Q 3191 2616 2906 2266 
Q 2828 2175 2409 1742 
Q 1991 1309 1228 531 
z
" transform="scale(0.015625)"/>
       </defs>
       <use xlink:href="#DejaVuSans-32"/>
       <use xlink:href="#DejaVuSans-2e" x="63.623047"/>
       <use xlink:href="#DejaVuSans-30" x="95.410156"/>
      </g>
     </g>
    </g>
    <g id="text_6">
     <!-- Influence of surprisal (multiplication) -->
     <g transform="translate(64.320625 202.316563)scale(0.1 -0.1)">
      <defs>
       <path id="DejaVuSans-49" d="M 628 4666 
L 1259 4666 
L 1259 0 
L 628 0 
L 628 4666 
z
" transform="scale(0.015625)"/>
       <path id="DejaVuSans-6e" d="M 3513 2113 
L 3513 0 
L 2938 0 
L 2938 2094 
Q 2938 2591 2744 2837 
Q 2550 3084 2163 3084 
Q 1697 3084 1428 2787 
Q 1159 2491 1159 1978 
L 1159 0 
L 581 0 
L 581 3500 
L 1159 3500 
L 1159 2956 
Q 1366 3272 1645 3428 
Q 1925 3584 2291 3584 
Q 2894 3584 3203 3211 
Q 3513 2838 3513 2113 
z
" transform="scale(0.015625)"/>
       <path id="DejaVuSans-66" d="M 2375 4863 
L 2375 4384 
L 1825 4384 
Q 1516 4384 1395 4259 
Q 1275 4134 1275 3809 
L 1275 3500 
L 2222 3500 
L 2222 3053 
L 1275 3053 
L 1275 0 
L 697 0 
L 697 3053 
L 147 3053 
L 147 3500 
L 697 3500 
L 697 3744 
Q 697 4328 969 4595 
Q 1241 4863 1831 4863 
L 2375 4863 
z
" transform="scale(0.015625)"/>
       <path id="DejaVuSans-6c" d="M 603 4863 
L 1178 4863 
L 1178 0 
L 603 0 
L 603 4863 
z
" transform="scale(0.015625)"/>
       <path id="DejaVuSans-75" d="M 544 1381 
L 544 3500 
L 1119 3500 
L 1119 1403 
Q 1119 906 1312 657 
Q 1506 409 1894 409 
Q 2359 409 2629 706 
Q 2900 1003 2900 1516 
L 2900 3500 
L 3475 3500 
L 3475 0 
L 2900 0 
L 2900 538 
Q 2691 219 2414 64 
Q 2138 -91 1772 -91 
Q 1169 -91 856 284 
Q 544 659 544 1381 
z
M 1991 3584 
L 1991 3584 
z
" transform="scale(0.015625)"/>
       <path id="DejaVuSans-65" d="M 3597 1894 
L 3597 1613 
L 953 1613 
Q 991 1019 1311 708 
Q 1631 397 2203 397 
Q 2534 397 2845 478 
Q 3156 559 3463 722 
L 3463 178 
Q 3153 47 2828 -22 
Q 2503 -91 2169 -91 
Q 1331 -91 842 396 
Q 353 884 353 1716 
Q 353 2575 817 3079 
Q 1281 3584 2069 3584 
Q 2775 3584 3186 3129 
Q 3597 2675 3597 1894 
z
M 3022 2063 
Q 3016 2534 2758 2815 
Q 2500 3097 2075 3097 
Q 1594 3097 1305 2825 
Q 1016 2553 972 2059 
L 3022 2063 
z
" transform="scale(0.015625)"/>
       <path id="DejaVuSans-63" d="M 3122 3366 
L 3122 2828 
Q 2878 2963 2633 3030 
Q 2388 3097 2138 3097 
Q 1578 3097 1268 2742 
Q 959 2388 959 1747 
Q 959 1106 1268 751 
Q 1578 397 2138 397 
Q 2388 397 2633 464 
Q 2878 531 3122 666 
L 3122 134 
Q 2881 22 2623 -34 
Q 2366 -91 2075 -91 
Q 1284 -91 818 406 
Q 353 903 353 1747 
Q 353 2603 823 3093 
Q 1294 3584 2113 3584 
Q 2378 3584 2631 3529 
Q 2884 3475 3122 3366 
z
" transform="scale(0.015625)"/>
       <path id="DejaVuSans-20" transform="scale(0.015625)"/>
       <path id="DejaVuSans-6f" d="M 1959 3097 
Q 1497 3097 1228 2736 
Q 959 2375 959 1747 
Q 959 1119 1226 758 
Q 1494 397 1959 397 
Q 2419 397 2687 759 
Q 2956 1122 2956 1747 
Q 2956 2369 2687 2733 
Q 2419 3097 1959 3097 
z
M 1959 3584 
Q 2709 3584 3137 3096 
Q 3566 2609 3566 1747 
Q 3566 888 3137 398 
Q 2709 -91 1959 -91 
Q 1206 -91 779 398 
Q 353 888 353 1747 
Q 353 2609 779 3096 
Q 1206 3584 1959 3584 
z
" transform="scale(0.015625)"/>
       <path id="DejaVuSans-73" d="M 2834 3397 
L 2834 2853 
Q 2591 2978 2328 3040 
Q 2066 3103 1784 3103 
Q 1356 3103 1142 2972 
Q 928 2841 928 2578 
Q 928 2378 1081 2264 
Q 1234 2150 1697 2047 
L 1894 2003 
Q 2506 1872 2764 1633 
Q 3022 1394 3022 966 
Q 3022 478 2636 193 
Q 2250 -91 1575 -91 
Q 1294 -91 989 -36 
Q 684 19 347 128 
L 347 722 
Q 666 556 975 473 
Q 1284 391 1588 391 
Q 1994 391 2212 530 
Q 2431 669 2431 922 
Q 2431 1156 2273 1281 
Q 2116 1406 1581 1522 
L 1381 1569 
Q 847 1681 609 1914 
Q 372 2147 372 2553 
Q 372 3047 722 3315 
Q 1072 3584 1716 3584 
Q 2034 3584 2315 3537 
Q 2597 3491 2834 3397 
z
" transform="scale(0.015625)"/>
       <path id="DejaVuSans-72" d="M 2631 2963 
Q 2534 3019 2420 3045 
Q 2306 3072 2169 3072 
Q 1681 3072 1420 2755 
Q 1159 2438 1159 1844 
L 1159 0 
L 581 0 
L 581 3500 
L 1159 3500 
L 1159 2956 
Q 1341 3275 1631 3429 
Q 1922 3584 2338 3584 
Q 2397 3584 2469 3576 
Q 2541 3569 2628 3553 
L 2631 2963 
z
" transform="scale(0.015625)"/>
       <path id="DejaVuSans-70" d="M 1159 525 
L 1159 -1331 
L 581 -1331 
L 581 3500 
L 1159 3500 
L 1159 2969 
Q 1341 3281 1617 3432 
Q 1894 3584 2278 3584 
Q 2916 3584 3314 3078 
Q 3713 2572 3713 1747 
Q 3713 922 3314 415 
Q 2916 -91 2278 -91 
Q 1894 -91 1617 61 
Q 1341 213 1159 525 
z
M 3116 1747 
Q 3116 2381 2855 2742 
Q 2594 3103 2138 3103 
Q 1681 3103 1420 2742 
Q 1159 2381 1159 1747 
Q 1159 1113 1420 752 
Q 1681 391 2138 391 
Q 2594 391 2855 752 
Q 3116 1113 3116 1747 
z
" transform="scale(0.015625)"/>
       <path id="DejaVuSans-69" d="M 603 3500 
L 1178 3500 
L 1178 0 
L 603 0 
L 603 3500 
z
M 603 4863 
L 1178 4863 
L 1178 4134 
L 603 4134 
L 603 4863 
z
" transform="scale(0.015625)"/>
       <path id="DejaVuSans-61" d="M 2194 1759 
Q 1497 1759 1228 1600 
Q 959 1441 959 1056 
Q 959 750 1161 570 
Q 1363 391 1709 391 
Q 2188 391 2477 730 
Q 2766 1069 2766 1631 
L 2766 1759 
L 2194 1759 
z
M 3341 1997 
L 3341 0 
L 2766 0 
L 2766 531 
Q 2569 213 2275 61 
Q 1981 -91 1556 -91 
Q 1019 -91 701 211 
Q 384 513 384 1019 
Q 384 1609 779 1909 
Q 1175 2209 1959 2209 
L 2766 2209 
L 2766 2266 
Q 2766 2663 2505 2880 
Q 2244 3097 1772 3097 
Q 1472 3097 1187 3025 
Q 903 2953 641 2809 
L 641 3341 
Q 956 3463 1253 3523 
Q 1550 3584 1831 3584 
Q 2591 3584 2966 3190 
Q 3341 2797 3341 1997 
z
" transform="scale(0.015625)"/>
       <path id="DejaVuSans-28" d="M 1984 4856 
Q 1566 4138 1362 3434 
Q 1159 2731 1159 2009 
Q 1159 1288 1364 580 
Q 1569 -128 1984 -844 
L 1484 -844 
Q 1016 -109 783 600 
Q 550 1309 550 2009 
Q 550 2706 781 3412 
Q 1013 4119 1484 4856 
L 1984 4856 
z
" transform="scale(0.015625)"/>
       <path id="DejaVuSans-6d" d="M 3328 2828 
Q 3544 3216 3844 3400 
Q 4144 3584 4550 3584 
Q 5097 3584 5394 3201 
Q 5691 2819 5691 2113 
L 5691 0 
L 5113 0 
L 5113 2094 
Q 5113 2597 4934 2840 
Q 4756 3084 4391 3084 
Q 3944 3084 3684 2787 
Q 3425 2491 3425 1978 
L 3425 0 
L 2847 0 
L 2847 2094 
Q 2847 2600 2669 2842 
Q 2491 3084 2119 3084 
Q 1678 3084 1418 2786 
Q 1159 2488 1159 1978 
L 1159 0 
L 581 0 
L 581 3500 
L 1159 3500 
L 1159 2956 
Q 1356 3278 1631 3431 
Q 1906 3584 2284 3584 
Q 2666 3584 2933 3390 
Q 3200 3197 3328 2828 
z
" transform="scale(0.015625)"/>
       <path id="DejaVuSans-74" d="M 1172 4494 
L 1172 3500 
L 2356 3500 
L 2356 3053 
L 1172 3053 
L 1172 1153 
Q 1172 725 1289 603 
Q 1406 481 1766 481 
L 2356 481 
L 2356 0 
L 1766 0 
Q 1100 0 847 248 
Q 594 497 594 1153 
L 594 3053 
L 172 3053 
L 172 3500 
L 594 3500 
L 594 4494 
L 1172 4494 
z
" transform="scale(0.015625)"/>
       <path id="DejaVuSans-29" d="M 513 4856 
L 1013 4856 
Q 1481 4119 1714 3412 
Q 1947 2706 1947 2009 
Q 1947 1309 1714 600 
Q 1481 -109 1013 -844 
L 513 -844 
Q 928 -128 1133 580 
Q 1338 1288 1338 2009 
Q 1338 2731 1133 3434 
Q 928 4138 513 4856 
z
" transform="scale(0.015625)"/>
      </defs>
      <use xlink:href="#DejaVuSans-49"/>
      <use xlink:href="#DejaVuSans-6e" x="29.492188"/>
      <use xlink:href="#DejaVuSans-66" x="92.871094"/>
      <use xlink:href="#DejaVuSans-6c" x="128.076172"/>
      <use xlink:href="#DejaVuSans-75" x="155.859375"/>
      <use xlink:href="#DejaVuSans-65" x="219.238281"/>
      <use xlink:href="#DejaVuSans-6e" x="280.761719"/>
      <use xlink:href="#DejaVuSans-63" x="344.140625"/>
      <use xlink:href="#DejaVuSans-65" x="399.121094"/>
      <use xlink:href="#DejaVuSans-20" x="460.644531"/>
      <use xlink:href="#DejaVuSans-6f" x="492.431641"/>
      <use xlink:href="#DejaVuSans-66" x="553.613281"/>
      <use xlink:href="#DejaVuSans-20" x="588.818359"/>
      <use xlink:href="#DejaVuSans-73" x="620.605469"/>
      <use xlink:href="#DejaVuSans-75" x="672.705078"/>
      <use xlink:href="#DejaVuSans-72" x="736.083984"/>
      <use xlink:href="#DejaVuSans-70" x="777.197266"/>
      <use xlink:href="#DejaVuSans-72" x="840.673828"/>
      <use xlink:href="#DejaVuSans-69" x="881.787109"/>
      <use xlink:href="#DejaVuSans-73" x="909.570312"/>
      <use xlink:href="#DejaVuSans-61" x="961.669922"/>
      <use xlink:href="#DejaVuSans-6c" x="1022.949219"/>
      <use xlink:href="#DejaVuSans-20" x="1050.732422"/>
      <use xlink:href="#DejaVuSans-28" x="1082.519531"/>
      <use xlink:href="#DejaVuSans-6d" x="1121.533203"/>
      <use xlink:href="#DejaVuSans-75" x="1218.945312"/>
      <use xlink:href="#DejaVuSans-6c" x="1282.324219"/>
      <use xlink:href="#DejaVuSans-74" x="1310.107422"/>
      <use xlink:href="#DejaVuSans-69" x="1349.316406"/>
      <use xlink:href="#DejaVuSans-70" x="1377.099609"/>
      <use xlink:href="#DejaVuSans-6c" x="1440.576172"/>
      <use xlink:href="#DejaVuSans-69" x="1468.359375"/>
      <use xlink:href="#DejaVuSans-63" x="1496.142578"/>
      <use xlink:href="#DejaVuSans-61" x="1551.123047"/>
      <use xlink:href="#DejaVuSans-74" x="1612.402344"/>
      <use xlink:href="#DejaVuSans-69" x="1651.611328"/>
      <use xlink:href="#DejaVuSans-6f" x="1679.394531"/>
      <use xlink:href="#DejaVuSans-6e" x="1740.576172"/>
      <use xlink:href="#DejaVuSans-29" x="1803.955078"/>
     </g>
    </g>
   </g>
   <g id="matplotlib.axis_2">
    <g id="ytick_1">
     <g id="line2d_6">
      <defs>
       <path id="m891b3c32b8" d="M 0 0 
L -3.5 0 
" style="stroke: #000000; stroke-width: 0.8"/>
      </defs>
      <g>
       <use xlink:href="#m891b3c32b8" x="47.72" y="153.433994" style="stroke: #000000; stroke-width: 0.8"/>
      </g>
     </g>
     <g id="text_7">
      <!-- 0.2 -->
      <g transform="translate(24.816875 157.233212)scale(0.1 -0.1)">
       <use xlink:href="#DejaVuSans-30"/>
       <use xlink:href="#DejaVuSans-2e" x="63.623047"/>
       <use xlink:href="#DejaVuSans-32" x="95.410156"/>
      </g>
     </g>
    </g>
    <g id="ytick_2">
     <g id="line2d_7">
      <g>
       <use xlink:href="#m891b3c32b8" x="47.72" y="121.393144" style="stroke: #000000; stroke-width: 0.8"/>
      </g>
     </g>
     <g id="text_8">
      <!-- 0.4 -->
      <g transform="translate(24.816875 125.192363)scale(0.1 -0.1)">
       <defs>
        <path id="DejaVuSans-34" d="M 2419 4116 
L 825 1625 
L 2419 1625 
L 2419 4116 
z
M 2253 4666 
L 3047 4666 
L 3047 1625 
L 3713 1625 
L 3713 1100 
L 3047 1100 
L 3047 0 
L 2419 0 
L 2419 1100 
L 313 1100 
L 313 1709 
L 2253 4666 
z
" transform="scale(0.015625)"/>
       </defs>
       <use xlink:href="#DejaVuSans-30"/>
       <use xlink:href="#DejaVuSans-2e" x="63.623047"/>
       <use xlink:href="#DejaVuSans-34" x="95.410156"/>
      </g>
     </g>
    </g>
    <g id="ytick_3">
     <g id="line2d_8">
      <g>
       <use xlink:href="#m891b3c32b8" x="47.72" y="89.352294" style="stroke: #000000; stroke-width: 0.8"/>
      </g>
     </g>
     <g id="text_9">
      <!-- 0.6 -->
      <g transform="translate(24.816875 93.151513)scale(0.1 -0.1)">
       <defs>
        <path id="DejaVuSans-36" d="M 2113 2584 
Q 1688 2584 1439 2293 
Q 1191 2003 1191 1497 
Q 1191 994 1439 701 
Q 1688 409 2113 409 
Q 2538 409 2786 701 
Q 3034 994 3034 1497 
Q 3034 2003 2786 2293 
Q 2538 2584 2113 2584 
z
M 3366 4563 
L 3366 3988 
Q 3128 4100 2886 4159 
Q 2644 4219 2406 4219 
Q 1781 4219 1451 3797 
Q 1122 3375 1075 2522 
Q 1259 2794 1537 2939 
Q 1816 3084 2150 3084 
Q 2853 3084 3261 2657 
Q 3669 2231 3669 1497 
Q 3669 778 3244 343 
Q 2819 -91 2113 -91 
Q 1303 -91 875 529 
Q 447 1150 447 2328 
Q 447 3434 972 4092 
Q 1497 4750 2381 4750 
Q 2619 4750 2861 4703 
Q 3103 4656 3366 4563 
z
" transform="scale(0.015625)"/>
       </defs>
       <use xlink:href="#DejaVuSans-30"/>
       <use xlink:href="#DejaVuSans-2e" x="63.623047"/>
       <use xlink:href="#DejaVuSans-36" x="95.410156"/>
      </g>
     </g>
    </g>
    <g id="ytick_4">
     <g id="line2d_9">
      <g>
       <use xlink:href="#m891b3c32b8" x="47.72" y="57.311444" style="stroke: #000000; stroke-width: 0.8"/>
      </g>
     </g>
     <g id="text_10">
      <!-- 0.8 -->
      <g transform="translate(24.816875 61.110663)scale(0.1 -0.1)">
       <defs>
        <path id="DejaVuSans-38" d="M 2034 2216 
Q 1584 2216 1326 1975 
Q 1069 1734 1069 1313 
Q 1069 891 1326 650 
Q 1584 409 2034 409 
Q 2484 409 2743 651 
Q 3003 894 3003 1313 
Q 3003 1734 2745 1975 
Q 2488 2216 2034 2216 
z
M 1403 2484 
Q 997 2584 770 2862 
Q 544 3141 544 3541 
Q 544 4100 942 4425 
Q 1341 4750 2034 4750 
Q 2731 4750 3128 4425 
Q 3525 4100 3525 3541 
Q 3525 3141 3298 2862 
Q 3072 2584 2669 2484 
Q 3125 2378 3379 2068 
Q 3634 1759 3634 1313 
Q 3634 634 3220 271 
Q 2806 -91 2034 -91 
Q 1263 -91 848 271 
Q 434 634 434 1313 
Q 434 1759 690 2068 
Q 947 2378 1403 2484 
z
M 1172 3481 
Q 1172 3119 1398 2916 
Q 1625 2713 2034 2713 
Q 2441 2713 2670 2916 
Q 2900 3119 2900 3481 
Q 2900 3844 2670 4047 
Q 2441 4250 2034 4250 
Q 1625 4250 1398 4047 
Q 1172 3844 1172 3481 
z
" transform="scale(0.015625)"/>
       </defs>
       <use xlink:href="#DejaVuSans-30"/>
       <use xlink:href="#DejaVuSans-2e" x="63.623047"/>
       <use xlink:href="#DejaVuSans-38" x="95.410156"/>
      </g>
     </g>
    </g>
    <g id="text_11">
     <!-- R-value -->
     <g transform="translate(18.737188 119.064687)rotate(-90)scale(0.1 -0.1)">
      <defs>
       <path id="DejaVuSans-52" d="M 2841 2188 
Q 3044 2119 3236 1894 
Q 3428 1669 3622 1275 
L 4263 0 
L 3584 0 
L 2988 1197 
Q 2756 1666 2539 1819 
Q 2322 1972 1947 1972 
L 1259 1972 
L 1259 0 
L 628 0 
L 628 4666 
L 2053 4666 
Q 2853 4666 3247 4331 
Q 3641 3997 3641 3322 
Q 3641 2881 3436 2590 
Q 3231 2300 2841 2188 
z
M 1259 4147 
L 1259 2491 
L 2053 2491 
Q 2509 2491 2742 2702 
Q 2975 2913 2975 3322 
Q 2975 3731 2742 3939 
Q 2509 4147 2053 4147 
L 1259 4147 
z
" transform="scale(0.015625)"/>
       <path id="DejaVuSans-2d" d="M 313 2009 
L 1997 2009 
L 1997 1497 
L 313 1497 
L 313 2009 
z
" transform="scale(0.015625)"/>
       <path id="DejaVuSans-76" d="M 191 3500 
L 800 3500 
L 1894 563 
L 2988 3500 
L 3597 3500 
L 2284 0 
L 1503 0 
L 191 3500 
z
" transform="scale(0.015625)"/>
      </defs>
      <use xlink:href="#DejaVuSans-52"/>
      <use xlink:href="#DejaVuSans-2d" x="65.482422"/>
      <use xlink:href="#DejaVuSans-76" x="98.941406"/>
      <use xlink:href="#DejaVuSans-61" x="158.121094"/>
      <use xlink:href="#DejaVuSans-6c" x="219.400391"/>
      <use xlink:href="#DejaVuSans-75" x="247.183594"/>
      <use xlink:href="#DejaVuSans-65" x="310.5625"/>
     </g>
    </g>
   </g>
   <g id="line2d_10">
    <path d="M 47.72 33.881049 
L 59.167105 35.810146 
L 70.614211 41.587634 
L 82.061316 49.230696 
L 93.508421 58.569719 
L 104.955526 67.915402 
L 116.402632 78.478672 
L 127.849737 87.527184 
L 139.296842 96.883152 
L 150.743947 105.032456 
L 162.191053 112.521649 
L 173.638158 118.867319 
L 185.085263 125.522787 
L 196.532368 131.119233 
L 207.979474 135.246142 
L 219.426579 138.681302 
L 230.873684 142.397884 
L 242.320789 146.548255 
L 253.767895 148.971584 
L 265.215 151.703583 
" clip-path="url(#p2b6c2b19b3)" style="fill: none; stroke: #1f77b4; stroke-width: 1.5; stroke-linecap: square"/>
   </g>
   <g id="line2d_11">
    <path d="M 47.72 33.888196 
L 59.167105 35.151591 
L 70.614211 38.289597 
L 82.061316 42.8928 
L 93.508421 49.168573 
L 104.955526 56.344784 
L 116.402632 65.122651 
L 127.849737 73.004523 
L 139.296842 81.721758 
L 150.743947 89.86814 
L 162.191053 97.639522 
L 173.638158 104.405567 
L 185.085263 111.73155 
L 196.532368 118.105595 
L 207.979474 123.257973 
L 219.426579 127.564883 
L 230.873684 132.083748 
L 242.320789 136.737428 
L 253.767895 139.830474 
L 265.215 143.219431 
" clip-path="url(#p2b6c2b19b3)" style="fill: none; stroke: #ff7f0e; stroke-width: 1.5; stroke-linecap: square"/>
   </g>
   <g id="line2d_12">
    <path d="M 47.72 33.89129 
L 59.167105 35.396851 
L 70.614211 37.999022 
L 82.061316 41.408585 
L 93.508421 45.426731 
L 104.955526 50.069493 
L 116.402632 54.580951 
L 127.849737 58.647814 
L 139.296842 63.805053 
L 150.743947 67.975648 
L 162.191053 72.685675 
L 173.638158 76.920419 
L 185.085263 81.43496 
L 196.532368 85.277539 
L 207.979474 89.400665 
L 219.426579 93.453347 
L 230.873684 97.698795 
L 242.320789 101.622036 
L 253.767895 105.010818 
L 265.215 108.984241 
" clip-path="url(#p2b6c2b19b3)" style="fill: none; stroke: #2ca02c; stroke-width: 1.5; stroke-linecap: square"/>
   </g>
   <g id="line2d_13">
    <path d="M 47.72 33.903341 
L 59.167105 35.097138 
L 70.614211 37.036735 
L 82.061316 39.777763 
L 93.508421 43.291151 
L 104.955526 47.599195 
L 116.402632 52.162073 
L 127.849737 56.368085 
L 139.296842 61.697672 
L 150.743947 66.167598 
L 162.191053 71.09834 
L 173.638158 75.46367 
L 185.085263 80.084693 
L 196.532368 83.858473 
L 207.979474 87.931181 
L 219.426579 91.955356 
L 230.873684 96.112264 
L 242.320789 99.872058 
L 253.767895 103.139712 
L 265.215 106.904194 
" clip-path="url(#p2b6c2b19b3)" style="fill: none; stroke: #d62728; stroke-width: 1.5; stroke-linecap: square"/>
   </g>
   <g id="line2d_14">
    <path d="M 47.72 33.893823 
L 59.167105 35.834896 
L 70.614211 41.628565 
L 82.061316 49.290552 
L 93.508421 58.528039 
L 104.955526 68.077027 
L 116.402632 78.71094 
L 127.849737 87.707545 
L 139.296842 97.110759 
L 150.743947 105.357541 
L 162.191053 112.788482 
L 173.638158 118.901869 
L 185.085263 126.034967 
L 196.532368 131.554837 
L 207.979474 135.591184 
L 219.426579 138.349734 
L 230.873684 143.530981 
L 242.320789 146.677311 
L 253.767895 149.063759 
L 265.215 151.98929 
" clip-path="url(#p2b6c2b19b3)" style="fill: none; stroke: #9467bd; stroke-width: 1.5; stroke-linecap: square"/>
   </g>
   <g id="line2d_15">
    <path d="M 47.72 33.902075 
L 59.167105 35.178718 
L 70.614211 38.325237 
L 82.061316 42.941744 
L 93.508421 49.166537 
L 104.955526 56.418815 
L 116.402632 65.349866 
L 127.849737 73.17701 
L 139.296842 81.978526 
L 150.743947 90.04566 
L 162.191053 97.818611 
L 173.638158 104.454852 
L 185.085263 112.172524 
L 196.532368 118.486228 
L 207.979474 123.591493 
L 219.426579 127.344739 
L 230.873684 132.970716 
L 242.320789 136.845659 
L 253.767895 139.943294 
L 265.215 143.494177 
" clip-path="url(#p2b6c2b19b3)" style="fill: none; stroke: #8c564b; stroke-width: 1.5; stroke-linecap: square"/>
   </g>
   <g id="line2d_16">
    <path d="M 47.72 45.921342 
L 59.167105 48.548159 
L 70.614211 55.095117 
L 82.061316 64.523692 
L 93.508421 75.408447 
L 104.955526 86.350486 
L 116.402632 97.709254 
L 127.849737 107.008961 
L 139.296842 115.966584 
L 150.743947 124.190256 
L 162.191053 130.751214 
L 173.638158 136.595922 
L 185.085263 142.458252 
L 196.532368 147.118998 
L 207.979474 150.775781 
L 219.426579 153.293636 
L 230.873684 156.340173 
L 242.320789 159.5745 
L 253.767895 161.561366 
L 265.215 163.471765 
" clip-path="url(#p2b6c2b19b3)" style="fill: none; stroke: #e377c2; stroke-width: 1.5; stroke-linecap: square"/>
   </g>
   <g id="line2d_17">
    <path d="M 47.72 33.895724 
L 59.167105 34.556115 
L 70.614211 35.126393 
L 82.061316 36.975622 
L 93.508421 40.669754 
L 104.955526 46.296253 
L 116.402632 53.683495 
L 127.849737 60.990866 
L 139.296842 69.391134 
L 150.743947 77.016052 
L 162.191053 84.90175 
L 173.638158 91.950634 
L 185.085263 99.419861 
L 196.532368 106.111301 
L 207.979474 111.947608 
L 219.426579 117.314601 
L 230.873684 122.478601 
L 242.320789 127.775138 
L 253.767895 131.422751 
L 265.215 135.546508 
" clip-path="url(#p2b6c2b19b3)" style="fill: none; stroke: #7f7f7f; stroke-width: 1.5; stroke-linecap: square"/>
   </g>
   <g id="patch_3">
    <path d="M 47.72 174.04 
L 47.72 26.88 
" style="fill: none; stroke: #000000; stroke-width: 0.8; stroke-linejoin: miter; stroke-linecap: square"/>
   </g>
   <g id="patch_4">
    <path d="M 47.72 174.04 
L 265.215 174.04 
" style="fill: none; stroke: #000000; stroke-width: 0.8; stroke-linejoin: miter; stroke-linecap: square"/>
   </g>
   <g id="text_12">
    <!-- Node * surprisal -->
    <g transform="translate(108.18625 20.88)scale(0.12 -0.12)">
     <defs>
      <path id="DejaVuSans-4e" d="M 628 4666 
L 1478 4666 
L 3547 763 
L 3547 4666 
L 4159 4666 
L 4159 0 
L 3309 0 
L 1241 3903 
L 1241 0 
L 628 0 
L 628 4666 
z
" transform="scale(0.015625)"/>
      <path id="DejaVuSans-64" d="M 2906 2969 
L 2906 4863 
L 3481 4863 
L 3481 0 
L 2906 0 
L 2906 525 
Q 2725 213 2448 61 
Q 2172 -91 1784 -91 
Q 1150 -91 751 415 
Q 353 922 353 1747 
Q 353 2572 751 3078 
Q 1150 3584 1784 3584 
Q 2172 3584 2448 3432 
Q 2725 3281 2906 2969 
z
M 947 1747 
Q 947 1113 1208 752 
Q 1469 391 1925 391 
Q 2381 391 2643 752 
Q 2906 1113 2906 1747 
Q 2906 2381 2643 2742 
Q 2381 3103 1925 3103 
Q 1469 3103 1208 2742 
Q 947 2381 947 1747 
z
" transform="scale(0.015625)"/>
      <path id="DejaVuSans-2a" d="M 3009 3897 
L 1888 3291 
L 3009 2681 
L 2828 2375 
L 1778 3009 
L 1778 1831 
L 1422 1831 
L 1422 3009 
L 372 2375 
L 191 2681 
L 1313 3291 
L 191 3897 
L 372 4206 
L 1422 3572 
L 1422 4750 
L 1778 4750 
L 1778 3572 
L 2828 4206 
L 3009 3897 
z
" transform="scale(0.015625)"/>
     </defs>
     <use xlink:href="#DejaVuSans-4e"/>
     <use xlink:href="#DejaVuSans-6f" x="74.804688"/>
     <use xlink:href="#DejaVuSans-64" x="135.986328"/>
     <use xlink:href="#DejaVuSans-65" x="199.462891"/>
     <use xlink:href="#DejaVuSans-20" x="260.986328"/>
     <use xlink:href="#DejaVuSans-2a" x="292.773438"/>
     <use xlink:href="#DejaVuSans-20" x="342.773438"/>
     <use xlink:href="#DejaVuSans-73" x="374.560547"/>
     <use xlink:href="#DejaVuSans-75" x="426.660156"/>
     <use xlink:href="#DejaVuSans-72" x="490.039062"/>
     <use xlink:href="#DejaVuSans-70" x="531.152344"/>
     <use xlink:href="#DejaVuSans-72" x="594.628906"/>
     <use xlink:href="#DejaVuSans-69" x="635.742188"/>
     <use xlink:href="#DejaVuSans-73" x="663.525391"/>
     <use xlink:href="#DejaVuSans-61" x="715.625"/>
     <use xlink:href="#DejaVuSans-6c" x="776.904297"/>
    </g>
   </g>
  </g>
  <g id="axes_2">
   <g id="patch_5">
    <path d="M 298.065 174.04 
L 515.56 174.04 
L 515.56 26.88 
L 298.065 26.88 
z
" style="fill: #ffffff"/>
   </g>
   <g id="PolyCollection_9">
    <path d="M 298.065 33.730777 
L 298.065 34.218028 
L 309.512105 36.506202 
L 320.959211 42.677897 
L 332.406316 50.741459 
L 343.853421 61.327094 
L 355.300526 72.075447 
L 366.747632 83.087046 
L 378.194737 92.597447 
L 389.641842 101.868513 
L 401.088947 110.554886 
L 412.536053 118.67145 
L 423.983158 124.837506 
L 435.430263 130.913842 
L 446.877368 135.95965 
L 458.324474 140.718488 
L 469.771579 144.807761 
L 481.218684 149.027478 
L 492.665789 151.509843 
L 504.112895 153.805505 
L 515.56 155.985424 
L 515.56 152.241461 
L 515.56 152.241461 
L 504.112895 150.088891 
L 492.665789 145.873522 
L 481.218684 141.524927 
L 469.771579 137.732709 
L 458.324474 132.15857 
L 446.877368 126.129693 
L 435.430263 119.843816 
L 423.983158 113.687829 
L 412.536053 105.77114 
L 401.088947 98.046152 
L 389.641842 89.39438 
L 378.194737 80.424767 
L 366.747632 70.658169 
L 355.300526 62.112631 
L 343.853421 52.452496 
L 332.406316 45.649616 
L 320.959211 40.040824 
L 309.512105 35.160735 
L 298.065 33.730777 
z
" clip-path="url(#pcb9e3428f0)" style="fill: #1f77b4; fill-opacity: 0.4"/>
   </g>
   <g id="PolyCollection_10">
    <path d="M 298.065 33.743953 
L 298.065 34.216835 
L 309.512105 36.531596 
L 320.959211 42.708299 
L 332.406316 50.823023 
L 343.853421 61.3961 
L 355.300526 72.17242 
L 366.747632 83.207607 
L 378.194737 92.759272 
L 389.641842 102.03801 
L 401.088947 110.727573 
L 412.536053 118.824867 
L 423.983158 125.04247 
L 435.430263 131.112256 
L 446.877368 136.237706 
L 458.324474 140.992452 
L 469.771579 145.085195 
L 481.218684 149.525801 
L 492.665789 152.022646 
L 504.112895 154.3227 
L 515.56 156.635975 
L 515.56 152.351112 
L 515.56 152.351112 
L 504.112895 150.043531 
L 492.665789 145.794496 
L 481.218684 141.531082 
L 469.771579 137.646917 
L 458.324474 132.139948 
L 446.877368 126.075502 
L 435.430263 119.892764 
L 423.983158 113.52 
L 412.536053 105.800221 
L 401.088947 98.046557 
L 389.641842 89.390183 
L 378.194737 80.364967 
L 366.747632 70.619107 
L 355.300526 62.071185 
L 343.853421 52.437741 
L 332.406316 45.62035 
L 320.959211 40.038658 
L 309.512105 35.167099 
L 298.065 33.743953 
z
" clip-path="url(#pcb9e3428f0)" style="fill: #ff7f0e; fill-opacity: 0.4"/>
   </g>
   <g id="PolyCollection_11">
    <path d="M 298.065 33.749061 
L 298.065 34.222478 
L 309.512105 36.564456 
L 320.959211 42.808416 
L 332.406316 51.076374 
L 343.853421 61.662272 
L 355.300526 72.515042 
L 366.747632 83.620802 
L 378.194737 93.262536 
L 389.641842 102.566071 
L 401.088947 111.302478 
L 412.536053 119.34005 
L 423.983158 125.869906 
L 435.430263 131.93075 
L 446.877368 136.965875 
L 458.324474 142.113222 
L 469.771579 145.86527 
L 481.218684 150.257185 
L 492.665789 152.887302 
L 504.112895 155.149869 
L 515.56 157.236115 
L 515.56 152.141831 
L 515.56 152.141831 
L 504.112895 149.79719 
L 492.665789 145.430089 
L 481.218684 141.616687 
L 469.771579 137.742536 
L 458.324474 132.209409 
L 446.877368 126.185715 
L 435.430263 119.984691 
L 423.983158 113.748735 
L 412.536053 105.851089 
L 401.088947 98.132315 
L 389.641842 89.469702 
L 378.194737 80.436109 
L 366.747632 70.682782 
L 355.300526 62.0996 
L 343.853421 52.431966 
L 332.406316 45.60375 
L 320.959211 40.045215 
L 309.512105 35.149051 
L 298.065 33.749061 
z
" clip-path="url(#pcb9e3428f0)" style="fill: #2ca02c; fill-opacity: 0.4"/>
   </g>
   <g id="PolyCollection_12">
    <path d="M 298.065 33.761726 
L 298.065 34.225093 
L 309.512105 36.572116 
L 320.959211 42.815701 
L 332.406316 51.075411 
L 343.853421 61.699107 
L 355.300526 72.514502 
L 366.747632 83.627567 
L 378.194737 93.271884 
L 389.641842 102.621269 
L 401.088947 111.356952 
L 412.536053 119.472331 
L 423.983158 126.017783 
L 435.430263 132.142364 
L 446.877368 137.277506 
L 458.324474 142.41824 
L 469.771579 146.149177 
L 481.218684 150.756411 
L 492.665789 153.497783 
L 504.112895 155.842613 
L 515.56 157.921816 
L 515.56 152.737782 
L 515.56 152.737782 
L 504.112895 150.306852 
L 492.665789 145.714674 
L 481.218684 141.9691 
L 469.771579 138.118847 
L 458.324474 132.487806 
L 446.877368 126.355206 
L 435.430263 120.255831 
L 423.983158 113.805601 
L 412.536053 106.088484 
L 401.088947 98.307857 
L 389.641842 89.649194 
L 378.194737 80.561035 
L 366.747632 70.77865 
L 355.300526 62.178708 
L 343.853421 52.455959 
L 332.406316 45.615611 
L 320.959211 40.056443 
L 309.512105 35.165368 
L 298.065 33.761726 
z
" clip-path="url(#pcb9e3428f0)" style="fill: #d62728; fill-opacity: 0.4"/>
   </g>
   <g id="PolyCollection_13">
    <path d="M 298.065 33.746074 
L 298.065 34.229714 
L 309.512105 36.522307 
L 320.959211 42.743736 
L 332.406316 50.805029 
L 343.853421 61.465581 
L 355.300526 72.056906 
L 366.747632 83.105625 
L 378.194737 92.606052 
L 389.641842 102.103604 
L 401.088947 110.974204 
L 412.536053 118.991942 
L 423.983158 125.033979 
L 435.430263 130.857748 
L 446.877368 136.89714 
L 458.324474 141.863355 
L 469.771579 145.065145 
L 481.218684 149.427601 
L 492.665789 152.643427 
L 504.112895 154.237619 
L 515.56 156.761846 
L 515.56 153.059035 
L 515.56 153.059035 
L 504.112895 150.66788 
L 492.665789 146.192503 
L 481.218684 139.643186 
L 469.771579 137.562111 
L 458.324474 132.830898 
L 446.877368 127.018233 
L 435.430263 120.137524 
L 423.983158 113.786401 
L 412.536053 106.326351 
L 401.088947 98.489516 
L 389.641842 89.672348 
L 378.194737 80.461767 
L 366.747632 70.617941 
L 355.300526 62.288067 
L 343.853421 52.358713 
L 332.406316 45.737425 
L 320.959211 40.074455 
L 309.512105 35.193008 
L 298.065 33.746074 
z
" clip-path="url(#pcb9e3428f0)" style="fill: #9467bd; fill-opacity: 0.4"/>
   </g>
   <g id="PolyCollection_14">
    <path d="M 298.065 33.760591 
L 298.065 34.229099 
L 309.512105 36.547428 
L 320.959211 42.773218 
L 332.406316 50.888056 
L 343.853421 61.534565 
L 355.300526 72.163165 
L 366.747632 83.225754 
L 378.194737 92.773928 
L 389.641842 102.267568 
L 401.088947 111.142845 
L 412.536053 119.148079 
L 423.983158 125.238526 
L 435.430263 131.042183 
L 446.877368 137.181822 
L 458.324474 142.10803 
L 469.771579 145.283371 
L 481.218684 149.885653 
L 492.665789 153.228638 
L 504.112895 154.674137 
L 515.56 157.30712 
L 515.56 153.164643 
L 515.56 153.164643 
L 504.112895 150.663368 
L 492.665789 146.009873 
L 481.218684 139.730298 
L 469.771579 137.525753 
L 458.324474 132.786195 
L 446.877368 126.96174 
L 435.430263 120.223042 
L 423.983158 113.603084 
L 412.536053 106.37619 
L 401.088947 98.481711 
L 389.641842 89.680509 
L 378.194737 80.397026 
L 366.747632 70.585365 
L 355.300526 62.253721 
L 343.853421 52.346594 
L 332.406316 45.706608 
L 320.959211 40.074207 
L 309.512105 35.200307 
L 298.065 33.760591 
z
" clip-path="url(#pcb9e3428f0)" style="fill: #8c564b; fill-opacity: 0.4"/>
   </g>
   <g id="PolyCollection_15">
    <path d="M 298.065 44.615444 
L 298.065 47.632704 
L 309.512105 49.649834 
L 320.959211 55.036456 
L 332.406316 62.380236 
L 343.853421 71.758255 
L 355.300526 81.459175 
L 366.747632 91.462651 
L 378.194737 99.760787 
L 389.641842 107.811253 
L 401.088947 116.249043 
L 412.536053 123.216721 
L 423.983158 128.749056 
L 435.430263 134.460656 
L 446.877368 139.005702 
L 458.324474 143.393949 
L 469.771579 147.441291 
L 481.218684 151.293754 
L 492.665789 153.555173 
L 504.112895 156.247741 
L 515.56 158.315123 
L 515.56 153.761407 
L 515.56 153.761407 
L 504.112895 151.843683 
L 492.665789 149.009781 
L 481.218684 144.957864 
L 469.771579 141.269205 
L 458.324474 136.514045 
L 446.877368 131.336658 
L 435.430263 125.420161 
L 423.983158 120.0295 
L 412.536053 112.506902 
L 401.088947 105.313498 
L 389.641842 97.654952 
L 378.194737 88.507741 
L 366.747632 79.232823 
L 355.300526 71.532655 
L 343.853421 62.66959 
L 332.406316 55.994031 
L 320.959211 50.792102 
L 309.512105 45.893767 
L 298.065 44.615444 
z
" clip-path="url(#pcb9e3428f0)" style="fill: #e377c2; fill-opacity: 0.4"/>
   </g>
   <g id="PolyCollection_16">
    <path d="M 298.065 33.761617 
L 298.065 34.231682 
L 309.512105 36.576548 
L 320.959211 42.819712 
L 332.406316 51.062121 
L 343.853421 61.636427 
L 355.300526 72.458007 
L 366.747632 83.540434 
L 378.194737 93.124257 
L 389.641842 102.31776 
L 401.088947 111.106259 
L 412.536053 119.056962 
L 423.983158 125.303837 
L 435.430263 131.344392 
L 446.877368 136.335881 
L 458.324474 141.232752 
L 469.771579 145.121409 
L 481.218684 149.349537 
L 492.665789 151.977751 
L 504.112895 154.39028 
L 515.56 156.651536 
L 515.56 152.868943 
L 515.56 152.868943 
L 504.112895 150.620248 
L 492.665789 146.252535 
L 481.218684 142.116642 
L 469.771579 138.462112 
L 458.324474 132.891818 
L 446.877368 126.759056 
L 435.430263 120.335576 
L 423.983158 113.979701 
L 412.536053 106.2277 
L 401.088947 98.218157 
L 389.641842 89.591349 
L 378.194737 80.383639 
L 366.747632 70.647188 
L 355.300526 62.117327 
L 343.853421 52.426123 
L 332.406316 45.574421 
L 320.959211 40.038528 
L 309.512105 35.159756 
L 298.065 33.761617 
z
" clip-path="url(#pcb9e3428f0)" style="fill: #7f7f7f; fill-opacity: 0.4"/>
   </g>
   <g id="matplotlib.axis_3">
    <g id="xtick_6">
     <g id="line2d_18">
      <g>
       <use xlink:href="#m32e8fa4be5" x="298.065" y="174.04" style="stroke: #000000; stroke-width: 0.8"/>
      </g>
     </g>
     <g id="text_13">
      <!-- 0.0 -->
      <g transform="translate(290.113437 188.638438)scale(0.1 -0.1)">
       <use xlink:href="#DejaVuSans-30"/>
       <use xlink:href="#DejaVuSans-2e" x="63.623047"/>
       <use xlink:href="#DejaVuSans-30" x="95.410156"/>
      </g>
     </g>
    </g>
    <g id="xtick_7">
     <g id="line2d_19">
      <g>
       <use xlink:href="#m32e8fa4be5" x="352.43875" y="174.04" style="stroke: #000000; stroke-width: 0.8"/>
      </g>
     </g>
     <g id="text_14">
      <!-- 0.5 -->
      <g transform="translate(344.487187 188.638438)scale(0.1 -0.1)">
       <use xlink:href="#DejaVuSans-30"/>
       <use xlink:href="#DejaVuSans-2e" x="63.623047"/>
       <use xlink:href="#DejaVuSans-35" x="95.410156"/>
      </g>
     </g>
    </g>
    <g id="xtick_8">
     <g id="line2d_20">
      <g>
       <use xlink:href="#m32e8fa4be5" x="406.8125" y="174.04" style="stroke: #000000; stroke-width: 0.8"/>
      </g>
     </g>
     <g id="text_15">
      <!-- 1.0 -->
      <g transform="translate(398.860937 188.638438)scale(0.1 -0.1)">
       <use xlink:href="#DejaVuSans-31"/>
       <use xlink:href="#DejaVuSans-2e" x="63.623047"/>
       <use xlink:href="#DejaVuSans-30" x="95.410156"/>
      </g>
     </g>
    </g>
    <g id="xtick_9">
     <g id="line2d_21">
      <g>
       <use xlink:href="#m32e8fa4be5" x="461.18625" y="174.04" style="stroke: #000000; stroke-width: 0.8"/>
      </g>
     </g>
     <g id="text_16">
      <!-- 1.5 -->
      <g transform="translate(453.234687 188.638438)scale(0.1 -0.1)">
       <use xlink:href="#DejaVuSans-31"/>
       <use xlink:href="#DejaVuSans-2e" x="63.623047"/>
       <use xlink:href="#DejaVuSans-35" x="95.410156"/>
      </g>
     </g>
    </g>
    <g id="xtick_10">
     <g id="line2d_22">
      <g>
       <use xlink:href="#m32e8fa4be5" x="515.56" y="174.04" style="stroke: #000000; stroke-width: 0.8"/>
      </g>
     </g>
     <g id="text_17">
      <!-- 2.0 -->
      <g transform="translate(507.608437 188.638438)scale(0.1 -0.1)">
       <use xlink:href="#DejaVuSans-32"/>
       <use xlink:href="#DejaVuSans-2e" x="63.623047"/>
       <use xlink:href="#DejaVuSans-30" x="95.410156"/>
      </g>
     </g>
    </g>
    <g id="text_18">
     <!-- Influence of surprisal (multiplication) -->
     <g transform="translate(314.665625 202.316563)scale(0.1 -0.1)">
      <use xlink:href="#DejaVuSans-49"/>
      <use xlink:href="#DejaVuSans-6e" x="29.492188"/>
      <use xlink:href="#DejaVuSans-66" x="92.871094"/>
      <use xlink:href="#DejaVuSans-6c" x="128.076172"/>
      <use xlink:href="#DejaVuSans-75" x="155.859375"/>
      <use xlink:href="#DejaVuSans-65" x="219.238281"/>
      <use xlink:href="#DejaVuSans-6e" x="280.761719"/>
      <use xlink:href="#DejaVuSans-63" x="344.140625"/>
      <use xlink:href="#DejaVuSans-65" x="399.121094"/>
      <use xlink:href="#DejaVuSans-20" x="460.644531"/>
      <use xlink:href="#DejaVuSans-6f" x="492.431641"/>
      <use xlink:href="#DejaVuSans-66" x="553.613281"/>
      <use xlink:href="#DejaVuSans-20" x="588.818359"/>
      <use xlink:href="#DejaVuSans-73" x="620.605469"/>
      <use xlink:href="#DejaVuSans-75" x="672.705078"/>
      <use xlink:href="#DejaVuSans-72" x="736.083984"/>
      <use xlink:href="#DejaVuSans-70" x="777.197266"/>
      <use xlink:href="#DejaVuSans-72" x="840.673828"/>
      <use xlink:href="#DejaVuSans-69" x="881.787109"/>
      <use xlink:href="#DejaVuSans-73" x="909.570312"/>
      <use xlink:href="#DejaVuSans-61" x="961.669922"/>
      <use xlink:href="#DejaVuSans-6c" x="1022.949219"/>
      <use xlink:href="#DejaVuSans-20" x="1050.732422"/>
      <use xlink:href="#DejaVuSans-28" x="1082.519531"/>
      <use xlink:href="#DejaVuSans-6d" x="1121.533203"/>
      <use xlink:href="#DejaVuSans-75" x="1218.945312"/>
      <use xlink:href="#DejaVuSans-6c" x="1282.324219"/>
      <use xlink:href="#DejaVuSans-74" x="1310.107422"/>
      <use xlink:href="#DejaVuSans-69" x="1349.316406"/>
      <use xlink:href="#DejaVuSans-70" x="1377.099609"/>
      <use xlink:href="#DejaVuSans-6c" x="1440.576172"/>
      <use xlink:href="#DejaVuSans-69" x="1468.359375"/>
      <use xlink:href="#DejaVuSans-63" x="1496.142578"/>
      <use xlink:href="#DejaVuSans-61" x="1551.123047"/>
      <use xlink:href="#DejaVuSans-74" x="1612.402344"/>
      <use xlink:href="#DejaVuSans-69" x="1651.611328"/>
      <use xlink:href="#DejaVuSans-6f" x="1679.394531"/>
      <use xlink:href="#DejaVuSans-6e" x="1740.576172"/>
      <use xlink:href="#DejaVuSans-29" x="1803.955078"/>
     </g>
    </g>
   </g>
   <g id="line2d_23">
    <path d="M 298.065 33.974403 
L 309.512105 35.833468 
L 320.959211 41.35936 
L 332.406316 48.195538 
L 343.853421 56.889795 
L 355.300526 67.094039 
L 366.747632 76.872608 
L 378.194737 86.511107 
L 389.641842 95.631447 
L 401.088947 104.300519 
L 412.536053 112.221295 
L 423.983158 119.262667 
L 435.430263 125.378829 
L 446.877368 131.044672 
L 458.324474 136.438529 
L 469.771579 141.270235 
L 481.218684 145.276203 
L 492.665789 148.691683 
L 504.112895 151.947198 
L 515.56 154.113442 
" clip-path="url(#pcb9e3428f0)" style="fill: none; stroke: #1f77b4; stroke-width: 1.5; stroke-linecap: square"/>
   </g>
   <g id="line2d_24">
    <path d="M 298.065 33.980394 
L 309.512105 35.849348 
L 320.959211 41.373479 
L 332.406316 48.221686 
L 343.853421 56.91692 
L 355.300526 67.121802 
L 366.747632 76.913357 
L 378.194737 86.56212 
L 389.641842 95.714097 
L 401.088947 104.387065 
L 412.536053 112.312544 
L 423.983158 119.281235 
L 435.430263 125.50251 
L 446.877368 131.156604 
L 458.324474 136.5662 
L 469.771579 141.366056 
L 481.218684 145.528441 
L 492.665789 148.908571 
L 504.112895 152.183116 
L 515.56 154.493544 
" clip-path="url(#pcb9e3428f0)" style="fill: none; stroke: #ff7f0e; stroke-width: 1.5; stroke-linecap: square"/>
   </g>
   <g id="line2d_25">
    <path d="M 298.065 33.98577 
L 309.512105 35.856753 
L 320.959211 41.426815 
L 332.406316 48.340062 
L 343.853421 57.047119 
L 355.300526 67.307321 
L 366.747632 77.151792 
L 378.194737 86.849322 
L 389.641842 96.017886 
L 401.088947 104.717396 
L 412.536053 112.595569 
L 423.983158 119.809321 
L 435.430263 125.95772 
L 446.877368 131.575795 
L 458.324474 137.161316 
L 469.771579 141.803903 
L 481.218684 145.936936 
L 492.665789 149.158696 
L 504.112895 152.473529 
L 515.56 154.688973 
" clip-path="url(#pcb9e3428f0)" style="fill: none; stroke: #2ca02c; stroke-width: 1.5; stroke-linecap: square"/>
   </g>
   <g id="line2d_26">
    <path d="M 298.065 33.99341 
L 309.512105 35.868742 
L 320.959211 41.436072 
L 332.406316 48.345511 
L 343.853421 57.077533 
L 355.300526 67.346605 
L 366.747632 77.203109 
L 378.194737 86.916459 
L 389.641842 96.135231 
L 401.088947 104.832404 
L 412.536053 112.780408 
L 423.983158 119.911692 
L 435.430263 126.199097 
L 446.877368 131.816356 
L 458.324474 137.453023 
L 469.771579 142.134012 
L 481.218684 146.362756 
L 492.665789 149.606228 
L 504.112895 153.074732 
L 515.56 155.329799 
" clip-path="url(#pcb9e3428f0)" style="fill: none; stroke: #d62728; stroke-width: 1.5; stroke-linecap: square"/>
   </g>
   <g id="line2d_27">
    <path d="M 298.065 33.987894 
L 309.512105 35.857657 
L 320.959211 41.409096 
L 332.406316 48.271227 
L 343.853421 56.912147 
L 355.300526 67.172486 
L 366.747632 76.861783 
L 378.194737 86.53391 
L 389.641842 95.887976 
L 401.088947 104.73186 
L 412.536053 112.659147 
L 423.983158 119.41019 
L 435.430263 125.497636 
L 446.877368 131.957686 
L 458.324474 137.347126 
L 469.771579 141.313628 
L 481.218684 144.535393 
L 492.665789 149.417965 
L 504.112895 152.452749 
L 515.56 154.910441 
" clip-path="url(#pcb9e3428f0)" style="fill: none; stroke: #9467bd; stroke-width: 1.5; stroke-linecap: square"/>
   </g>
   <g id="line2d_28">
    <path d="M 298.065 33.994845 
L 309.512105 35.873868 
L 320.959211 41.423713 
L 332.406316 48.297332 
L 343.853421 56.94058 
L 355.300526 67.208443 
L 366.747632 76.905559 
L 378.194737 86.585477 
L 389.641842 95.974039 
L 401.088947 104.812278 
L 412.536053 112.762135 
L 423.983158 119.420805 
L 435.430263 125.632612 
L 446.877368 132.071781 
L 458.324474 137.447112 
L 469.771579 141.404562 
L 481.218684 144.807975 
L 492.665789 149.619255 
L 504.112895 152.668752 
L 515.56 155.235881 
" clip-path="url(#pcb9e3428f0)" style="fill: none; stroke: #8c564b; stroke-width: 1.5; stroke-linecap: square"/>
   </g>
   <g id="line2d_29">
    <path d="M 298.065 46.124074 
L 309.512105 47.771801 
L 320.959211 52.914279 
L 332.406316 59.187133 
L 343.853421 67.213923 
L 355.300526 76.495915 
L 366.747632 85.347737 
L 378.194737 94.134264 
L 389.641842 102.733102 
L 401.088947 110.78127 
L 412.536053 117.861812 
L 423.983158 124.389278 
L 435.430263 129.940408 
L 446.877368 135.17118 
L 458.324474 139.953997 
L 469.771579 144.355248 
L 481.218684 148.125809 
L 492.665789 151.282477 
L 504.112895 154.045712 
L 515.56 156.038265 
" clip-path="url(#pcb9e3428f0)" style="fill: none; stroke: #e377c2; stroke-width: 1.5; stroke-linecap: square"/>
   </g>
   <g id="line2d_30">
    <path d="M 298.065 33.996649 
L 309.512105 35.868152 
L 320.959211 41.42912 
L 332.406316 48.318271 
L 343.853421 57.031275 
L 355.300526 67.287667 
L 366.747632 77.093811 
L 378.194737 86.753948 
L 389.641842 95.954555 
L 401.088947 104.662208 
L 412.536053 112.642331 
L 423.983158 119.641769 
L 435.430263 125.839984 
L 446.877368 131.547468 
L 458.324474 137.062285 
L 469.771579 141.79176 
L 481.218684 145.733089 
L 492.665789 149.115143 
L 504.112895 152.505264 
L 515.56 154.76024 
" clip-path="url(#pcb9e3428f0)" style="fill: none; stroke: #7f7f7f; stroke-width: 1.5; stroke-linecap: square"/>
   </g>
   <g id="patch_6">
    <path d="M 298.065 174.04 
L 298.065 26.88 
" style="fill: none; stroke: #000000; stroke-width: 0.8; stroke-linejoin: miter; stroke-linecap: square"/>
   </g>
   <g id="patch_7">
    <path d="M 298.065 174.04 
L 515.56 174.04 
" style="fill: none; stroke: #000000; stroke-width: 0.8; stroke-linejoin: miter; stroke-linecap: square"/>
   </g>
   <g id="text_19">
    <!-- Node * third variable -->
    <g transform="translate(344.2325 20.88)scale(0.12 -0.12)">
     <defs>
      <path id="DejaVuSans-68" d="M 3513 2113 
L 3513 0 
L 2938 0 
L 2938 2094 
Q 2938 2591 2744 2837 
Q 2550 3084 2163 3084 
Q 1697 3084 1428 2787 
Q 1159 2491 1159 1978 
L 1159 0 
L 581 0 
L 581 4863 
L 1159 4863 
L 1159 2956 
Q 1366 3272 1645 3428 
Q 1925 3584 2291 3584 
Q 2894 3584 3203 3211 
Q 3513 2838 3513 2113 
z
" transform="scale(0.015625)"/>
      <path id="DejaVuSans-62" d="M 3116 1747 
Q 3116 2381 2855 2742 
Q 2594 3103 2138 3103 
Q 1681 3103 1420 2742 
Q 1159 2381 1159 1747 
Q 1159 1113 1420 752 
Q 1681 391 2138 391 
Q 2594 391 2855 752 
Q 3116 1113 3116 1747 
z
M 1159 2969 
Q 1341 3281 1617 3432 
Q 1894 3584 2278 3584 
Q 2916 3584 3314 3078 
Q 3713 2572 3713 1747 
Q 3713 922 3314 415 
Q 2916 -91 2278 -91 
Q 1894 -91 1617 61 
Q 1341 213 1159 525 
L 1159 0 
L 581 0 
L 581 4863 
L 1159 4863 
L 1159 2969 
z
" transform="scale(0.015625)"/>
     </defs>
     <use xlink:href="#DejaVuSans-4e"/>
     <use xlink:href="#DejaVuSans-6f" x="74.804688"/>
     <use xlink:href="#DejaVuSans-64" x="135.986328"/>
     <use xlink:href="#DejaVuSans-65" x="199.462891"/>
     <use xlink:href="#DejaVuSans-20" x="260.986328"/>
     <use xlink:href="#DejaVuSans-2a" x="292.773438"/>
     <use xlink:href="#DejaVuSans-20" x="342.773438"/>
     <use xlink:href="#DejaVuSans-74" x="374.560547"/>
     <use xlink:href="#DejaVuSans-68" x="413.769531"/>
     <use xlink:href="#DejaVuSans-69" x="477.148438"/>
     <use xlink:href="#DejaVuSans-72" x="504.931641"/>
     <use xlink:href="#DejaVuSans-64" x="544.294922"/>
     <use xlink:href="#DejaVuSans-20" x="607.771484"/>
     <use xlink:href="#DejaVuSans-76" x="639.558594"/>
     <use xlink:href="#DejaVuSans-61" x="698.738281"/>
     <use xlink:href="#DejaVuSans-72" x="760.017578"/>
     <use xlink:href="#DejaVuSans-69" x="801.130859"/>
     <use xlink:href="#DejaVuSans-61" x="828.914062"/>
     <use xlink:href="#DejaVuSans-62" x="890.193359"/>
     <use xlink:href="#DejaVuSans-6c" x="953.669922"/>
     <use xlink:href="#DejaVuSans-65" x="981.453125"/>
    </g>
   </g>
   <g id="legend_1">
    <g id="line2d_31">
     <path d="M 524.56 39.978437 
L 534.56 39.978437 
L 544.56 39.978437 
" style="fill: none; stroke: #1f77b4; stroke-width: 1.5; stroke-linecap: square"/>
    </g>
    <g id="text_20">
     <!-- Node -->
     <g transform="translate(552.56 43.478437)scale(0.1 -0.1)">
      <use xlink:href="#DejaVuSans-4e"/>
      <use xlink:href="#DejaVuSans-6f" x="74.804688"/>
      <use xlink:href="#DejaVuSans-64" x="135.986328"/>
      <use xlink:href="#DejaVuSans-65" x="199.462891"/>
     </g>
    </g>
    <g id="line2d_32">
     <path d="M 524.56 54.656563 
L 534.56 54.656563 
L 544.56 54.656563 
" style="fill: none; stroke: #ff7f0e; stroke-width: 1.5; stroke-linecap: square"/>
    </g>
    <g id="text_21">
     <!-- Node + surprisal -->
     <g transform="translate(552.56 58.156563)scale(0.1 -0.1)">
      <defs>
       <path id="DejaVuSans-2b" d="M 2944 4013 
L 2944 2272 
L 4684 2272 
L 4684 1741 
L 2944 1741 
L 2944 0 
L 2419 0 
L 2419 1741 
L 678 1741 
L 678 2272 
L 2419 2272 
L 2419 4013 
L 2944 4013 
z
" transform="scale(0.015625)"/>
      </defs>
      <use xlink:href="#DejaVuSans-4e"/>
      <use xlink:href="#DejaVuSans-6f" x="74.804688"/>
      <use xlink:href="#DejaVuSans-64" x="135.986328"/>
      <use xlink:href="#DejaVuSans-65" x="199.462891"/>
      <use xlink:href="#DejaVuSans-20" x="260.986328"/>
      <use xlink:href="#DejaVuSans-2b" x="292.773438"/>
      <use xlink:href="#DejaVuSans-20" x="376.5625"/>
      <use xlink:href="#DejaVuSans-73" x="408.349609"/>
      <use xlink:href="#DejaVuSans-75" x="460.449219"/>
      <use xlink:href="#DejaVuSans-72" x="523.828125"/>
      <use xlink:href="#DejaVuSans-70" x="564.941406"/>
      <use xlink:href="#DejaVuSans-72" x="628.417969"/>
      <use xlink:href="#DejaVuSans-69" x="669.53125"/>
      <use xlink:href="#DejaVuSans-73" x="697.314453"/>
      <use xlink:href="#DejaVuSans-61" x="749.414062"/>
      <use xlink:href="#DejaVuSans-6c" x="810.693359"/>
     </g>
    </g>
    <g id="line2d_33">
     <path d="M 524.56 69.334687 
L 534.56 69.334687 
L 544.56 69.334687 
" style="fill: none; stroke: #2ca02c; stroke-width: 1.5; stroke-linecap: square"/>
    </g>
    <g id="text_22">
     <!-- Node split -->
     <g transform="translate(552.56 72.834687)scale(0.1 -0.1)">
      <use xlink:href="#DejaVuSans-4e"/>
      <use xlink:href="#DejaVuSans-6f" x="74.804688"/>
      <use xlink:href="#DejaVuSans-64" x="135.986328"/>
      <use xlink:href="#DejaVuSans-65" x="199.462891"/>
      <use xlink:href="#DejaVuSans-20" x="260.986328"/>
      <use xlink:href="#DejaVuSans-73" x="292.773438"/>
      <use xlink:href="#DejaVuSans-70" x="344.873047"/>
      <use xlink:href="#DejaVuSans-6c" x="408.349609"/>
      <use xlink:href="#DejaVuSans-69" x="436.132812"/>
      <use xlink:href="#DejaVuSans-74" x="463.916016"/>
     </g>
    </g>
    <g id="line2d_34">
     <path d="M 524.56 84.012812 
L 534.56 84.012812 
L 544.56 84.012812 
" style="fill: none; stroke: #d62728; stroke-width: 1.5; stroke-linecap: square"/>
    </g>
    <g id="text_23">
     <!-- Node split + surprisal -->
     <g transform="translate(552.56 87.512812)scale(0.1 -0.1)">
      <use xlink:href="#DejaVuSans-4e"/>
      <use xlink:href="#DejaVuSans-6f" x="74.804688"/>
      <use xlink:href="#DejaVuSans-64" x="135.986328"/>
      <use xlink:href="#DejaVuSans-65" x="199.462891"/>
      <use xlink:href="#DejaVuSans-20" x="260.986328"/>
      <use xlink:href="#DejaVuSans-73" x="292.773438"/>
      <use xlink:href="#DejaVuSans-70" x="344.873047"/>
      <use xlink:href="#DejaVuSans-6c" x="408.349609"/>
      <use xlink:href="#DejaVuSans-69" x="436.132812"/>
      <use xlink:href="#DejaVuSans-74" x="463.916016"/>
      <use xlink:href="#DejaVuSans-20" x="503.125"/>
      <use xlink:href="#DejaVuSans-2b" x="534.912109"/>
      <use xlink:href="#DejaVuSans-20" x="618.701172"/>
      <use xlink:href="#DejaVuSans-73" x="650.488281"/>
      <use xlink:href="#DejaVuSans-75" x="702.587891"/>
      <use xlink:href="#DejaVuSans-72" x="765.966797"/>
      <use xlink:href="#DejaVuSans-70" x="807.080078"/>
      <use xlink:href="#DejaVuSans-72" x="870.556641"/>
      <use xlink:href="#DejaVuSans-69" x="911.669922"/>
      <use xlink:href="#DejaVuSans-73" x="939.453125"/>
      <use xlink:href="#DejaVuSans-61" x="991.552734"/>
      <use xlink:href="#DejaVuSans-6c" x="1052.832031"/>
     </g>
    </g>
    <g id="line2d_35">
     <path d="M 524.56 98.690937 
L 534.56 98.690937 
L 544.56 98.690937 
" style="fill: none; stroke: #9467bd; stroke-width: 1.5; stroke-linecap: square"/>
    </g>
    <g id="text_24">
     <!-- Node random split -->
     <g transform="translate(552.56 102.190937)scale(0.1 -0.1)">
      <use xlink:href="#DejaVuSans-4e"/>
      <use xlink:href="#DejaVuSans-6f" x="74.804688"/>
      <use xlink:href="#DejaVuSans-64" x="135.986328"/>
      <use xlink:href="#DejaVuSans-65" x="199.462891"/>
      <use xlink:href="#DejaVuSans-20" x="260.986328"/>
      <use xlink:href="#DejaVuSans-72" x="292.773438"/>
      <use xlink:href="#DejaVuSans-61" x="333.886719"/>
      <use xlink:href="#DejaVuSans-6e" x="395.166016"/>
      <use xlink:href="#DejaVuSans-64" x="458.544922"/>
      <use xlink:href="#DejaVuSans-6f" x="522.021484"/>
      <use xlink:href="#DejaVuSans-6d" x="583.203125"/>
      <use xlink:href="#DejaVuSans-20" x="680.615234"/>
      <use xlink:href="#DejaVuSans-73" x="712.402344"/>
      <use xlink:href="#DejaVuSans-70" x="764.501953"/>
      <use xlink:href="#DejaVuSans-6c" x="827.978516"/>
      <use xlink:href="#DejaVuSans-69" x="855.761719"/>
      <use xlink:href="#DejaVuSans-74" x="883.544922"/>
     </g>
    </g>
    <g id="line2d_36">
     <path d="M 524.56 113.369062 
L 534.56 113.369062 
L 544.56 113.369062 
" style="fill: none; stroke: #8c564b; stroke-width: 1.5; stroke-linecap: square"/>
    </g>
    <g id="text_25">
     <!-- Node random split + surprisal -->
     <g transform="translate(552.56 116.869062)scale(0.1 -0.1)">
      <use xlink:href="#DejaVuSans-4e"/>
      <use xlink:href="#DejaVuSans-6f" x="74.804688"/>
      <use xlink:href="#DejaVuSans-64" x="135.986328"/>
      <use xlink:href="#DejaVuSans-65" x="199.462891"/>
      <use xlink:href="#DejaVuSans-20" x="260.986328"/>
      <use xlink:href="#DejaVuSans-72" x="292.773438"/>
      <use xlink:href="#DejaVuSans-61" x="333.886719"/>
      <use xlink:href="#DejaVuSans-6e" x="395.166016"/>
      <use xlink:href="#DejaVuSans-64" x="458.544922"/>
      <use xlink:href="#DejaVuSans-6f" x="522.021484"/>
      <use xlink:href="#DejaVuSans-6d" x="583.203125"/>
      <use xlink:href="#DejaVuSans-20" x="680.615234"/>
      <use xlink:href="#DejaVuSans-73" x="712.402344"/>
      <use xlink:href="#DejaVuSans-70" x="764.501953"/>
      <use xlink:href="#DejaVuSans-6c" x="827.978516"/>
      <use xlink:href="#DejaVuSans-69" x="855.761719"/>
      <use xlink:href="#DejaVuSans-74" x="883.544922"/>
      <use xlink:href="#DejaVuSans-20" x="922.753906"/>
      <use xlink:href="#DejaVuSans-2b" x="954.541016"/>
      <use xlink:href="#DejaVuSans-20" x="1038.330078"/>
      <use xlink:href="#DejaVuSans-73" x="1070.117188"/>
      <use xlink:href="#DejaVuSans-75" x="1122.216797"/>
      <use xlink:href="#DejaVuSans-72" x="1185.595703"/>
      <use xlink:href="#DejaVuSans-70" x="1226.708984"/>
      <use xlink:href="#DejaVuSans-72" x="1290.185547"/>
      <use xlink:href="#DejaVuSans-69" x="1331.298828"/>
      <use xlink:href="#DejaVuSans-73" x="1359.082031"/>
      <use xlink:href="#DejaVuSans-61" x="1411.181641"/>
      <use xlink:href="#DejaVuSans-6c" x="1472.460938"/>
     </g>
    </g>
    <g id="line2d_37">
     <path d="M 524.56 128.047187 
L 534.56 128.047187 
L 544.56 128.047187 
" style="fill: none; stroke: #e377c2; stroke-width: 1.5; stroke-linecap: square"/>
    </g>
    <g id="text_26">
     <!-- Interaction -->
     <g transform="translate(552.56 131.547187)scale(0.1 -0.1)">
      <use xlink:href="#DejaVuSans-49"/>
      <use xlink:href="#DejaVuSans-6e" x="29.492188"/>
      <use xlink:href="#DejaVuSans-74" x="92.871094"/>
      <use xlink:href="#DejaVuSans-65" x="132.080078"/>
      <use xlink:href="#DejaVuSans-72" x="193.603516"/>
      <use xlink:href="#DejaVuSans-61" x="234.716797"/>
      <use xlink:href="#DejaVuSans-63" x="295.996094"/>
      <use xlink:href="#DejaVuSans-74" x="350.976562"/>
      <use xlink:href="#DejaVuSans-69" x="390.185547"/>
      <use xlink:href="#DejaVuSans-6f" x="417.96875"/>
      <use xlink:href="#DejaVuSans-6e" x="479.150391"/>
     </g>
    </g>
    <g id="line2d_38">
     <path d="M 524.56 142.725312 
L 534.56 142.725312 
L 544.56 142.725312 
" style="fill: none; stroke: #7f7f7f; stroke-width: 1.5; stroke-linecap: square"/>
    </g>
    <g id="text_27">
     <!-- Node + surprisal + interaction -->
     <g transform="translate(552.56 146.225312)scale(0.1 -0.1)">
      <use xlink:href="#DejaVuSans-4e"/>
      <use xlink:href="#DejaVuSans-6f" x="74.804688"/>
      <use xlink:href="#DejaVuSans-64" x="135.986328"/>
      <use xlink:href="#DejaVuSans-65" x="199.462891"/>
      <use xlink:href="#DejaVuSans-20" x="260.986328"/>
      <use xlink:href="#DejaVuSans-2b" x="292.773438"/>
      <use xlink:href="#DejaVuSans-20" x="376.5625"/>
      <use xlink:href="#DejaVuSans-73" x="408.349609"/>
      <use xlink:href="#DejaVuSans-75" x="460.449219"/>
      <use xlink:href="#DejaVuSans-72" x="523.828125"/>
      <use xlink:href="#DejaVuSans-70" x="564.941406"/>
      <use xlink:href="#DejaVuSans-72" x="628.417969"/>
      <use xlink:href="#DejaVuSans-69" x="669.53125"/>
      <use xlink:href="#DejaVuSans-73" x="697.314453"/>
      <use xlink:href="#DejaVuSans-61" x="749.414062"/>
      <use xlink:href="#DejaVuSans-6c" x="810.693359"/>
      <use xlink:href="#DejaVuSans-20" x="838.476562"/>
      <use xlink:href="#DejaVuSans-2b" x="870.263672"/>
      <use xlink:href="#DejaVuSans-20" x="954.052734"/>
      <use xlink:href="#DejaVuSans-69" x="985.839844"/>
      <use xlink:href="#DejaVuSans-6e" x="1013.623047"/>
      <use xlink:href="#DejaVuSans-74" x="1077.001953"/>
      <use xlink:href="#DejaVuSans-65" x="1116.210938"/>
      <use xlink:href="#DejaVuSans-72" x="1177.734375"/>
      <use xlink:href="#DejaVuSans-61" x="1218.847656"/>
      <use xlink:href="#DejaVuSans-63" x="1280.126953"/>
      <use xlink:href="#DejaVuSans-74" x="1335.107422"/>
      <use xlink:href="#DejaVuSans-69" x="1374.316406"/>
      <use xlink:href="#DejaVuSans-6f" x="1402.099609"/>
      <use xlink:href="#DejaVuSans-6e" x="1463.28125"/>
     </g>
    </g>
   </g>
  </g>
 </g>
 <defs>
  <clipPath id="p2b6c2b19b3">
   <rect x="47.72" y="26.88" width="217.495" height="147.16"/>
  </clipPath>
  <clipPath id="pcb9e3428f0">
   <rect x="298.065" y="26.88" width="217.495" height="147.16"/>
  </clipPath>
 </defs>
</svg>
