<?xml version="1.0" encoding="utf-8" standalone="no"?>
<!DOCTYPE svg PUBLIC "-//W3C//DTD SVG 1.1//EN"
  "http://www.w3.org/Graphics/SVG/1.1/DTD/svg11.dtd">
<svg xmlns:xlink="http://www.w3.org/1999/xlink" width="720pt" height="216pt" viewBox="0 0 720 216" xmlns="http://www.w3.org/2000/svg" version="1.1">
 <metadata>
  <rdf:RDF xmlns:dc="http://purl.org/dc/elements/1.1/" xmlns:cc="http://creativecommons.org/ns#" xmlns:rdf="http://www.w3.org/1999/02/22-rdf-syntax-ns#">
   <cc:Work>
    <dc:type rdf:resource="http://purl.org/dc/dcmitype/StillImage"/>
    <dc:date>2024-01-15T22:32:04.545317</dc:date>
    <dc:format>image/svg+xml</dc:format>
    <dc:creator>
     <cc:Agent>
      <dc:title>Matplotlib v3.5.1, https://matplotlib.org/</dc:title>
     </cc:Agent>
    </dc:creator>
   </cc:Work>
  </rdf:RDF>
 </metadata>
 <defs>
  <style type="text/css">*{stroke-linejoin: round; stroke-linecap: butt}</style>
 </defs>
 <g id="figure_1">
  <g id="patch_1">
   <path d="M 0 216 
L 720 216 
L 720 0 
L 0 0 
z
" style="fill: #ffffff"/>
  </g>
  <g id="axes_1">
   <g id="patch_2">
    <path d="M 47.72 174.04 
L 265.215 174.04 
L 265.215 26.88 
L 47.72 26.88 
z
" style="fill: #ffffff"/>
   </g>
   <g id="PolyCollection_1">
    <path d="M 47.72 33.670309 
L 47.72 34.37914 
L 59.167105 36.403733 
L 70.614211 42.001181 
L 82.061316 50.422 
L 93.508421 59.60934 
L 104.955526 70.259747 
L 116.402632 80.832547 
L 127.849737 91.169958 
L 139.296842 101.917101 
L 150.743947 110.726151 
L 162.191053 118.523665 
L 173.638158 126.666146 
L 185.085263 132.523801 
L 196.532368 137.686274 
L 207.979474 142.161566 
L 219.426579 146.995003 
L 230.873684 150.073887 
L 242.320789 153.083269 
L 253.767895 154.870981 
L 265.215 157.18462 
L 265.215 146.978352 
L 265.215 146.978352 
L 253.767895 143.926137 
L 242.320789 140.236385 
L 230.873684 136.567875 
L 219.426579 131.730146 
L 207.979474 127.159988 
L 196.532368 121.90989 
L 185.085263 116.146054 
L 173.638158 109.602981 
L 162.191053 103.9549 
L 150.743947 96.117248 
L 139.296842 89.360057 
L 127.849737 81.067912 
L 116.402632 73.149665 
L 104.955526 64.460274 
L 93.508421 55.432731 
L 82.061316 47.633566 
L 70.614211 41.090605 
L 59.167105 35.490201 
L 47.72 33.670309 
z
" clip-path="url(#pdfd8099547)" style="fill: #1f77b4; fill-opacity: 0.4"/>
   </g>
   <g id="PolyCollection_2">
    <path d="M 47.72 33.681358 
L 47.72 34.388751 
L 59.167105 35.783851 
L 70.614211 38.885386 
L 82.061316 43.879038 
L 93.508421 50.286834 
L 104.955526 57.831069 
L 116.402632 66.324467 
L 127.849737 74.683198 
L 139.296842 84.693227 
L 150.743947 93.723925 
L 162.191053 102.40782 
L 173.638158 110.750337 
L 185.085263 118.001799 
L 196.532368 124.455535 
L 207.979474 129.740257 
L 219.426579 135.549206 
L 230.873684 139.754291 
L 242.320789 143.64551 
L 253.767895 146.137516 
L 265.215 149.213287 
L 265.215 137.99087 
L 265.215 137.99087 
L 253.767895 134.107373 
L 242.320789 129.99972 
L 230.873684 125.516899 
L 219.426579 120.423291 
L 207.979474 115.548519 
L 196.532368 109.944684 
L 185.085263 104.132627 
L 173.638158 97.967835 
L 162.191053 92.073624 
L 150.743947 84.555106 
L 139.296842 78.882235 
L 127.849737 70.997849 
L 116.402632 63.598896 
L 104.955526 56.137362 
L 93.508421 48.406693 
L 82.061316 42.446748 
L 70.614211 38.087199 
L 59.167105 34.850278 
L 47.72 33.681358 
z
" clip-path="url(#pdfd8099547)" style="fill: #ff7f0e; fill-opacity: 0.4"/>
   </g>
   <g id="PolyCollection_3">
    <path d="M 47.72 33.683708 
L 47.72 34.396131 
L 59.167105 35.922347 
L 70.614211 38.702903 
L 82.061316 41.819985 
L 93.508421 46.127777 
L 104.955526 51.001351 
L 116.402632 56.008111 
L 127.849737 60.584528 
L 139.296842 65.599207 
L 150.743947 70.756782 
L 162.191053 76.08827 
L 173.638158 80.338104 
L 185.085263 86.284293 
L 196.532368 90.621457 
L 207.979474 95.625896 
L 219.426579 100.353437 
L 230.873684 104.48448 
L 242.320789 109.657452 
L 253.767895 112.739625 
L 265.215 116.646305 
L 265.215 103.25573 
L 265.215 103.25573 
L 253.767895 98.713864 
L 242.320789 95.711214 
L 230.873684 91.337207 
L 219.426579 87.993261 
L 207.979474 83.991416 
L 196.532368 80.197979 
L 185.085263 75.846591 
L 173.638158 72.46752 
L 162.191053 68.9627 
L 150.743947 64.866568 
L 139.296842 61.32174 
L 127.849737 56.319367 
L 116.402632 52.930071 
L 104.955526 48.504007 
L 93.508421 44.336719 
L 82.061316 40.923179 
L 70.614211 37.644569 
L 59.167105 35.08864 
L 47.72 33.683708 
z
" clip-path="url(#pdfd8099547)" style="fill: #2ca02c; fill-opacity: 0.4"/>
   </g>
   <g id="PolyCollection_4">
    <path d="M 47.72 33.696159 
L 47.72 34.40673 
L 59.167105 35.674399 
L 70.614211 37.780997 
L 82.061316 40.401741 
L 93.508421 44.466011 
L 104.955526 49.001507 
L 116.402632 54.075451 
L 127.849737 58.785132 
L 139.296842 63.98644 
L 150.743947 69.185375 
L 162.191053 74.767053 
L 173.638158 79.167783 
L 185.085263 85.268198 
L 196.532368 89.44322 
L 207.979474 94.627547 
L 219.426579 99.115574 
L 230.873684 102.977791 
L 242.320789 108.023092 
L 253.767895 111.05772 
L 265.215 114.638015 
L 265.215 101.367904 
L 265.215 101.367904 
L 253.767895 97.099234 
L 242.320789 94.565298 
L 230.873684 90.592447 
L 219.426579 87.475383 
L 207.979474 83.515674 
L 196.532368 79.628799 
L 185.085263 75.214552 
L 173.638158 71.861369 
L 162.191053 68.082465 
L 150.743947 63.871461 
L 139.296842 60.044521 
L 127.849737 54.528293 
L 116.402632 50.962043 
L 104.955526 46.654028 
L 93.508421 42.504541 
L 82.061316 39.429177 
L 70.614211 36.793483 
L 59.167105 34.810578 
L 47.72 33.696159 
z
" clip-path="url(#pdfd8099547)" style="fill: #d62728; fill-opacity: 0.4"/>
   </g>
   <g id="PolyCollection_5">
    <path d="M 47.72 33.676183 
L 47.72 34.396158 
L 59.167105 36.415073 
L 70.614211 42.063268 
L 82.061316 50.455897 
L 93.508421 59.636114 
L 104.955526 70.312366 
L 116.402632 80.689872 
L 127.849737 91.286272 
L 139.296842 102.359112 
L 150.743947 111.100773 
L 162.191053 118.859757 
L 173.638158 127.279361 
L 185.085263 133.205912 
L 196.532368 138.32493 
L 207.979474 142.778925 
L 219.426579 146.162394 
L 230.873684 150.219617 
L 242.320789 152.785705 
L 253.767895 155.026331 
L 265.215 157.236343 
L 265.215 147.41025 
L 265.215 147.41025 
L 253.767895 144.548994 
L 242.320789 140.435612 
L 230.873684 137.375387 
L 219.426579 132.475266 
L 207.979474 127.288949 
L 196.532368 122.030304 
L 185.085263 117.168767 
L 173.638158 109.570475 
L 162.191053 103.911099 
L 150.743947 96.255149 
L 139.296842 89.515043 
L 127.849737 81.20291 
L 116.402632 73.321231 
L 104.955526 64.507932 
L 93.508421 55.543355 
L 82.061316 47.646431 
L 70.614211 41.122476 
L 59.167105 35.497384 
L 47.72 33.676183 
z
" clip-path="url(#pdfd8099547)" style="fill: #9467bd; fill-opacity: 0.4"/>
   </g>
   <g id="PolyCollection_6">
    <path d="M 47.72 33.688091 
L 47.72 34.405313 
L 59.167105 35.797859 
L 70.614211 38.913603 
L 82.061316 43.898456 
L 93.508421 50.352348 
L 104.955526 57.882069 
L 116.402632 66.344661 
L 127.849737 74.866059 
L 139.296842 85.128475 
L 150.743947 94.282563 
L 162.191053 102.500984 
L 173.638158 111.038468 
L 185.085263 118.673228 
L 196.532368 124.869057 
L 207.979474 130.397865 
L 219.426579 135.217268 
L 230.873684 139.979981 
L 242.320789 143.53936 
L 253.767895 146.3822 
L 265.215 149.141162 
L 265.215 138.435717 
L 265.215 138.435717 
L 253.767895 134.452743 
L 242.320789 129.941058 
L 230.873684 126.009232 
L 219.426579 120.800067 
L 207.979474 115.530489 
L 196.532368 110.124044 
L 185.085263 104.576706 
L 173.638158 98.228812 
L 162.191053 92.038602 
L 150.743947 84.415753 
L 139.296842 78.891223 
L 127.849737 71.015693 
L 116.402632 63.652265 
L 104.955526 56.107588 
L 93.508421 48.471649 
L 82.061316 42.454462 
L 70.614211 38.125587 
L 59.167105 34.857961 
L 47.72 33.688091 
z
" clip-path="url(#pdfd8099547)" style="fill: #8c564b; fill-opacity: 0.4"/>
   </g>
   <g id="PolyCollection_7">
    <path d="M 47.72 44.554328 
L 47.72 47.602394 
L 59.167105 50.677591 
L 70.614211 57.8765 
L 82.061316 68.043042 
L 93.508421 78.90239 
L 104.955526 90.240832 
L 116.402632 100.868841 
L 127.849737 110.46308 
L 139.296842 119.86157 
L 150.743947 127.762372 
L 162.191053 134.573272 
L 173.638158 141.735087 
L 185.085263 146.6736 
L 196.532368 151.455625 
L 207.979474 155.75753 
L 219.426579 159.244892 
L 230.873684 162.02996 
L 242.320789 164.228268 
L 253.767895 165.601784 
L 265.215 167.350909 
L 265.215 156.573885 
L 265.215 156.573885 
L 253.767895 154.553336 
L 242.320789 151.447249 
L 230.873684 148.274178 
L 219.426579 144.742047 
L 207.979474 140.652255 
L 196.532368 136.248122 
L 185.085263 131.56756 
L 173.638158 126.197369 
L 162.191053 121.603279 
L 150.743947 114.404723 
L 139.296842 107.295893 
L 127.849737 98.776828 
L 116.402632 89.85265 
L 104.955526 80.067855 
L 93.508421 69.179526 
L 82.061316 60.151834 
L 70.614211 52.389977 
L 59.167105 46.809469 
L 47.72 44.554328 
z
" clip-path="url(#pdfd8099547)" style="fill: #e377c2; fill-opacity: 0.4"/>
   </g>
   <g id="PolyCollection_8">
    <path d="M 47.72 33.699676 
L 47.72 34.400225 
L 59.167105 35.076825 
L 70.614211 35.699989 
L 82.061316 37.817995 
L 93.508421 42.556587 
L 104.955526 48.681512 
L 116.402632 56.538097 
L 127.849737 63.91473 
L 139.296842 72.754557 
L 150.743947 79.423594 
L 162.191053 88.016908 
L 173.638158 95.350769 
L 185.085263 103.250584 
L 196.532368 109.552477 
L 207.979474 116.19374 
L 219.426579 122.715322 
L 230.873684 127.672517 
L 242.320789 133.273671 
L 253.767895 136.590964 
L 265.215 140.298107 
L 265.215 131.066593 
L 265.215 131.066593 
L 253.767895 126.645428 
L 242.320789 122.177546 
L 230.873684 117.115817 
L 219.426579 111.916441 
L 207.979474 106.599377 
L 196.532368 101.135843 
L 185.085263 94.228817 
L 173.638158 87.893548 
L 162.191053 80.584227 
L 150.743947 72.426781 
L 139.296842 64.563043 
L 127.849737 56.085671 
L 116.402632 49.354874 
L 104.955526 43.592474 
L 93.508421 38.914541 
L 82.061316 36.474661 
L 70.614211 34.980258 
L 59.167105 34.196185 
L 47.72 33.699676 
z
" clip-path="url(#pdfd8099547)" style="fill: #7f7f7f; fill-opacity: 0.4"/>
   </g>
   <g id="matplotlib.axis_1">
    <g id="xtick_1">
     <g id="line2d_1">
      <defs>
       <path id="me77db65a6f" d="M 0 0 
L 0 3.5 
" style="stroke: #000000; stroke-width: 0.8"/>
      </defs>
      <g>
       <use xlink:href="#me77db65a6f" x="47.72" y="174.04" style="stroke: #000000; stroke-width: 0.8"/>
      </g>
     </g>
     <g id="text_1">
      <!-- 0.0 -->
      <g transform="translate(39.768438 188.638438)scale(0.1 -0.1)">
       <defs>
        <path id="DejaVuSans-30" d="M 2034 4250 
Q 1547 4250 1301 3770 
Q 1056 3291 1056 2328 
Q 1056 1369 1301 889 
Q 1547 409 2034 409 
Q 2525 409 2770 889 
Q 3016 1369 3016 2328 
Q 3016 3291 2770 3770 
Q 2525 4250 2034 4250 
z
M 2034 4750 
Q 2819 4750 3233 4129 
Q 3647 3509 3647 2328 
Q 3647 1150 3233 529 
Q 2819 -91 2034 -91 
Q 1250 -91 836 529 
Q 422 1150 422 2328 
Q 422 3509 836 4129 
Q 1250 4750 2034 4750 
z
" transform="scale(0.015625)"/>
        <path id="DejaVuSans-2e" d="M 684 794 
L 1344 794 
L 1344 0 
L 684 0 
L 684 794 
z
" transform="scale(0.015625)"/>
       </defs>
       <use xlink:href="#DejaVuSans-30"/>
       <use xlink:href="#DejaVuSans-2e" x="63.623047"/>
       <use xlink:href="#DejaVuSans-30" x="95.410156"/>
      </g>
     </g>
    </g>
    <g id="xtick_2">
     <g id="line2d_2">
      <g>
       <use xlink:href="#me77db65a6f" x="102.09375" y="174.04" style="stroke: #000000; stroke-width: 0.8"/>
      </g>
     </g>
     <g id="text_2">
      <!-- 0.5 -->
      <g transform="translate(94.142188 188.638438)scale(0.1 -0.1)">
       <defs>
        <path id="DejaVuSans-35" d="M 691 4666 
L 3169 4666 
L 3169 4134 
L 1269 4134 
L 1269 2991 
Q 1406 3038 1543 3061 
Q 1681 3084 1819 3084 
Q 2600 3084 3056 2656 
Q 3513 2228 3513 1497 
Q 3513 744 3044 326 
Q 2575 -91 1722 -91 
Q 1428 -91 1123 -41 
Q 819 9 494 109 
L 494 744 
Q 775 591 1075 516 
Q 1375 441 1709 441 
Q 2250 441 2565 725 
Q 2881 1009 2881 1497 
Q 2881 1984 2565 2268 
Q 2250 2553 1709 2553 
Q 1456 2553 1204 2497 
Q 953 2441 691 2322 
L 691 4666 
z
" transform="scale(0.015625)"/>
       </defs>
       <use xlink:href="#DejaVuSans-30"/>
       <use xlink:href="#DejaVuSans-2e" x="63.623047"/>
       <use xlink:href="#DejaVuSans-35" x="95.410156"/>
      </g>
     </g>
    </g>
    <g id="xtick_3">
     <g id="line2d_3">
      <g>
       <use xlink:href="#me77db65a6f" x="156.4675" y="174.04" style="stroke: #000000; stroke-width: 0.8"/>
      </g>
     </g>
     <g id="text_3">
      <!-- 1.0 -->
      <g transform="translate(148.515938 188.638438)scale(0.1 -0.1)">
       <defs>
        <path id="DejaVuSans-31" d="M 794 531 
L 1825 531 
L 1825 4091 
L 703 3866 
L 703 4441 
L 1819 4666 
L 2450 4666 
L 2450 531 
L 3481 531 
L 3481 0 
L 794 0 
L 794 531 
z
" transform="scale(0.015625)"/>
       </defs>
       <use xlink:href="#DejaVuSans-31"/>
       <use xlink:href="#DejaVuSans-2e" x="63.623047"/>
       <use xlink:href="#DejaVuSans-30" x="95.410156"/>
      </g>
     </g>
    </g>
    <g id="xtick_4">
     <g id="line2d_4">
      <g>
       <use xlink:href="#me77db65a6f" x="210.84125" y="174.04" style="stroke: #000000; stroke-width: 0.8"/>
      </g>
     </g>
     <g id="text_4">
      <!-- 1.5 -->
      <g transform="translate(202.889687 188.638438)scale(0.1 -0.1)">
       <use xlink:href="#DejaVuSans-31"/>
       <use xlink:href="#DejaVuSans-2e" x="63.623047"/>
       <use xlink:href="#DejaVuSans-35" x="95.410156"/>
      </g>
     </g>
    </g>
    <g id="xtick_5">
     <g id="line2d_5">
      <g>
       <use xlink:href="#me77db65a6f" x="265.215" y="174.04" style="stroke: #000000; stroke-width: 0.8"/>
      </g>
     </g>
     <g id="text_5">
      <!-- 2.0 -->
      <g transform="translate(257.263437 188.638438)scale(0.1 -0.1)">
       <defs>
        <path id="DejaVuSans-32" d="M 1228 531 
L 3431 531 
L 3431 0 
L 469 0 
L 469 531 
Q 828 903 1448 1529 
Q 2069 2156 2228 2338 
Q 2531 2678 2651 2914 
Q 2772 3150 2772 3378 
Q 2772 3750 2511 3984 
Q 2250 4219 1831 4219 
Q 1534 4219 1204 4116 
Q 875 4013 500 3803 
L 500 4441 
Q 881 4594 1212 4672 
Q 1544 4750 1819 4750 
Q 2544 4750 2975 4387 
Q 3406 4025 3406 3419 
Q 3406 3131 3298 2873 
Q 3191 2616 2906 2266 
Q 2828 2175 2409 1742 
Q 1991 1309 1228 531 
z
" transform="scale(0.015625)"/>
       </defs>
       <use xlink:href="#DejaVuSans-32"/>
       <use xlink:href="#DejaVuSans-2e" x="63.623047"/>
       <use xlink:href="#DejaVuSans-30" x="95.410156"/>
      </g>
     </g>
    </g>
    <g id="text_6">
     <!-- Influence of surprisal (multiplication) -->
     <g transform="translate(64.320625 202.316563)scale(0.1 -0.1)">
      <defs>
       <path id="DejaVuSans-49" d="M 628 4666 
L 1259 4666 
L 1259 0 
L 628 0 
L 628 4666 
z
" transform="scale(0.015625)"/>
       <path id="DejaVuSans-6e" d="M 3513 2113 
L 3513 0 
L 2938 0 
L 2938 2094 
Q 2938 2591 2744 2837 
Q 2550 3084 2163 3084 
Q 1697 3084 1428 2787 
Q 1159 2491 1159 1978 
L 1159 0 
L 581 0 
L 581 3500 
L 1159 3500 
L 1159 2956 
Q 1366 3272 1645 3428 
Q 1925 3584 2291 3584 
Q 2894 3584 3203 3211 
Q 3513 2838 3513 2113 
z
" transform="scale(0.015625)"/>
       <path id="DejaVuSans-66" d="M 2375 4863 
L 2375 4384 
L 1825 4384 
Q 1516 4384 1395 4259 
Q 1275 4134 1275 3809 
L 1275 3500 
L 2222 3500 
L 2222 3053 
L 1275 3053 
L 1275 0 
L 697 0 
L 697 3053 
L 147 3053 
L 147 3500 
L 697 3500 
L 697 3744 
Q 697 4328 969 4595 
Q 1241 4863 1831 4863 
L 2375 4863 
z
" transform="scale(0.015625)"/>
       <path id="DejaVuSans-6c" d="M 603 4863 
L 1178 4863 
L 1178 0 
L 603 0 
L 603 4863 
z
" transform="scale(0.015625)"/>
       <path id="DejaVuSans-75" d="M 544 1381 
L 544 3500 
L 1119 3500 
L 1119 1403 
Q 1119 906 1312 657 
Q 1506 409 1894 409 
Q 2359 409 2629 706 
Q 2900 1003 2900 1516 
L 2900 3500 
L 3475 3500 
L 3475 0 
L 2900 0 
L 2900 538 
Q 2691 219 2414 64 
Q 2138 -91 1772 -91 
Q 1169 -91 856 284 
Q 544 659 544 1381 
z
M 1991 3584 
L 1991 3584 
z
" transform="scale(0.015625)"/>
       <path id="DejaVuSans-65" d="M 3597 1894 
L 3597 1613 
L 953 1613 
Q 991 1019 1311 708 
Q 1631 397 2203 397 
Q 2534 397 2845 478 
Q 3156 559 3463 722 
L 3463 178 
Q 3153 47 2828 -22 
Q 2503 -91 2169 -91 
Q 1331 -91 842 396 
Q 353 884 353 1716 
Q 353 2575 817 3079 
Q 1281 3584 2069 3584 
Q 2775 3584 3186 3129 
Q 3597 2675 3597 1894 
z
M 3022 2063 
Q 3016 2534 2758 2815 
Q 2500 3097 2075 3097 
Q 1594 3097 1305 2825 
Q 1016 2553 972 2059 
L 3022 2063 
z
" transform="scale(0.015625)"/>
       <path id="DejaVuSans-63" d="M 3122 3366 
L 3122 2828 
Q 2878 2963 2633 3030 
Q 2388 3097 2138 3097 
Q 1578 3097 1268 2742 
Q 959 2388 959 1747 
Q 959 1106 1268 751 
Q 1578 397 2138 397 
Q 2388 397 2633 464 
Q 2878 531 3122 666 
L 3122 134 
Q 2881 22 2623 -34 
Q 2366 -91 2075 -91 
Q 1284 -91 818 406 
Q 353 903 353 1747 
Q 353 2603 823 3093 
Q 1294 3584 2113 3584 
Q 2378 3584 2631 3529 
Q 2884 3475 3122 3366 
z
" transform="scale(0.015625)"/>
       <path id="DejaVuSans-20" transform="scale(0.015625)"/>
       <path id="DejaVuSans-6f" d="M 1959 3097 
Q 1497 3097 1228 2736 
Q 959 2375 959 1747 
Q 959 1119 1226 758 
Q 1494 397 1959 397 
Q 2419 397 2687 759 
Q 2956 1122 2956 1747 
Q 2956 2369 2687 2733 
Q 2419 3097 1959 3097 
z
M 1959 3584 
Q 2709 3584 3137 3096 
Q 3566 2609 3566 1747 
Q 3566 888 3137 398 
Q 2709 -91 1959 -91 
Q 1206 -91 779 398 
Q 353 888 353 1747 
Q 353 2609 779 3096 
Q 1206 3584 1959 3584 
z
" transform="scale(0.015625)"/>
       <path id="DejaVuSans-73" d="M 2834 3397 
L 2834 2853 
Q 2591 2978 2328 3040 
Q 2066 3103 1784 3103 
Q 1356 3103 1142 2972 
Q 928 2841 928 2578 
Q 928 2378 1081 2264 
Q 1234 2150 1697 2047 
L 1894 2003 
Q 2506 1872 2764 1633 
Q 3022 1394 3022 966 
Q 3022 478 2636 193 
Q 2250 -91 1575 -91 
Q 1294 -91 989 -36 
Q 684 19 347 128 
L 347 722 
Q 666 556 975 473 
Q 1284 391 1588 391 
Q 1994 391 2212 530 
Q 2431 669 2431 922 
Q 2431 1156 2273 1281 
Q 2116 1406 1581 1522 
L 1381 1569 
Q 847 1681 609 1914 
Q 372 2147 372 2553 
Q 372 3047 722 3315 
Q 1072 3584 1716 3584 
Q 2034 3584 2315 3537 
Q 2597 3491 2834 3397 
z
" transform="scale(0.015625)"/>
       <path id="DejaVuSans-72" d="M 2631 2963 
Q 2534 3019 2420 3045 
Q 2306 3072 2169 3072 
Q 1681 3072 1420 2755 
Q 1159 2438 1159 1844 
L 1159 0 
L 581 0 
L 581 3500 
L 1159 3500 
L 1159 2956 
Q 1341 3275 1631 3429 
Q 1922 3584 2338 3584 
Q 2397 3584 2469 3576 
Q 2541 3569 2628 3553 
L 2631 2963 
z
" transform="scale(0.015625)"/>
       <path id="DejaVuSans-70" d="M 1159 525 
L 1159 -1331 
L 581 -1331 
L 581 3500 
L 1159 3500 
L 1159 2969 
Q 1341 3281 1617 3432 
Q 1894 3584 2278 3584 
Q 2916 3584 3314 3078 
Q 3713 2572 3713 1747 
Q 3713 922 3314 415 
Q 2916 -91 2278 -91 
Q 1894 -91 1617 61 
Q 1341 213 1159 525 
z
M 3116 1747 
Q 3116 2381 2855 2742 
Q 2594 3103 2138 3103 
Q 1681 3103 1420 2742 
Q 1159 2381 1159 1747 
Q 1159 1113 1420 752 
Q 1681 391 2138 391 
Q 2594 391 2855 752 
Q 3116 1113 3116 1747 
z
" transform="scale(0.015625)"/>
       <path id="DejaVuSans-69" d="M 603 3500 
L 1178 3500 
L 1178 0 
L 603 0 
L 603 3500 
z
M 603 4863 
L 1178 4863 
L 1178 4134 
L 603 4134 
L 603 4863 
z
" transform="scale(0.015625)"/>
       <path id="DejaVuSans-61" d="M 2194 1759 
Q 1497 1759 1228 1600 
Q 959 1441 959 1056 
Q 959 750 1161 570 
Q 1363 391 1709 391 
Q 2188 391 2477 730 
Q 2766 1069 2766 1631 
L 2766 1759 
L 2194 1759 
z
M 3341 1997 
L 3341 0 
L 2766 0 
L 2766 531 
Q 2569 213 2275 61 
Q 1981 -91 1556 -91 
Q 1019 -91 701 211 
Q 384 513 384 1019 
Q 384 1609 779 1909 
Q 1175 2209 1959 2209 
L 2766 2209 
L 2766 2266 
Q 2766 2663 2505 2880 
Q 2244 3097 1772 3097 
Q 1472 3097 1187 3025 
Q 903 2953 641 2809 
L 641 3341 
Q 956 3463 1253 3523 
Q 1550 3584 1831 3584 
Q 2591 3584 2966 3190 
Q 3341 2797 3341 1997 
z
" transform="scale(0.015625)"/>
       <path id="DejaVuSans-28" d="M 1984 4856 
Q 1566 4138 1362 3434 
Q 1159 2731 1159 2009 
Q 1159 1288 1364 580 
Q 1569 -128 1984 -844 
L 1484 -844 
Q 1016 -109 783 600 
Q 550 1309 550 2009 
Q 550 2706 781 3412 
Q 1013 4119 1484 4856 
L 1984 4856 
z
" transform="scale(0.015625)"/>
       <path id="DejaVuSans-6d" d="M 3328 2828 
Q 3544 3216 3844 3400 
Q 4144 3584 4550 3584 
Q 5097 3584 5394 3201 
Q 5691 2819 5691 2113 
L 5691 0 
L 5113 0 
L 5113 2094 
Q 5113 2597 4934 2840 
Q 4756 3084 4391 3084 
Q 3944 3084 3684 2787 
Q 3425 2491 3425 1978 
L 3425 0 
L 2847 0 
L 2847 2094 
Q 2847 2600 2669 2842 
Q 2491 3084 2119 3084 
Q 1678 3084 1418 2786 
Q 1159 2488 1159 1978 
L 1159 0 
L 581 0 
L 581 3500 
L 1159 3500 
L 1159 2956 
Q 1356 3278 1631 3431 
Q 1906 3584 2284 3584 
Q 2666 3584 2933 3390 
Q 3200 3197 3328 2828 
z
" transform="scale(0.015625)"/>
       <path id="DejaVuSans-74" d="M 1172 4494 
L 1172 3500 
L 2356 3500 
L 2356 3053 
L 1172 3053 
L 1172 1153 
Q 1172 725 1289 603 
Q 1406 481 1766 481 
L 2356 481 
L 2356 0 
L 1766 0 
Q 1100 0 847 248 
Q 594 497 594 1153 
L 594 3053 
L 172 3053 
L 172 3500 
L 594 3500 
L 594 4494 
L 1172 4494 
z
" transform="scale(0.015625)"/>
       <path id="DejaVuSans-29" d="M 513 4856 
L 1013 4856 
Q 1481 4119 1714 3412 
Q 1947 2706 1947 2009 
Q 1947 1309 1714 600 
Q 1481 -109 1013 -844 
L 513 -844 
Q 928 -128 1133 580 
Q 1338 1288 1338 2009 
Q 1338 2731 1133 3434 
Q 928 4138 513 4856 
z
" transform="scale(0.015625)"/>
      </defs>
      <use xlink:href="#DejaVuSans-49"/>
      <use xlink:href="#DejaVuSans-6e" x="29.492188"/>
      <use xlink:href="#DejaVuSans-66" x="92.871094"/>
      <use xlink:href="#DejaVuSans-6c" x="128.076172"/>
      <use xlink:href="#DejaVuSans-75" x="155.859375"/>
      <use xlink:href="#DejaVuSans-65" x="219.238281"/>
      <use xlink:href="#DejaVuSans-6e" x="280.761719"/>
      <use xlink:href="#DejaVuSans-63" x="344.140625"/>
      <use xlink:href="#DejaVuSans-65" x="399.121094"/>
      <use xlink:href="#DejaVuSans-20" x="460.644531"/>
      <use xlink:href="#DejaVuSans-6f" x="492.431641"/>
      <use xlink:href="#DejaVuSans-66" x="553.613281"/>
      <use xlink:href="#DejaVuSans-20" x="588.818359"/>
      <use xlink:href="#DejaVuSans-73" x="620.605469"/>
      <use xlink:href="#DejaVuSans-75" x="672.705078"/>
      <use xlink:href="#DejaVuSans-72" x="736.083984"/>
      <use xlink:href="#DejaVuSans-70" x="777.197266"/>
      <use xlink:href="#DejaVuSans-72" x="840.673828"/>
      <use xlink:href="#DejaVuSans-69" x="881.787109"/>
      <use xlink:href="#DejaVuSans-73" x="909.570312"/>
      <use xlink:href="#DejaVuSans-61" x="961.669922"/>
      <use xlink:href="#DejaVuSans-6c" x="1022.949219"/>
      <use xlink:href="#DejaVuSans-20" x="1050.732422"/>
      <use xlink:href="#DejaVuSans-28" x="1082.519531"/>
      <use xlink:href="#DejaVuSans-6d" x="1121.533203"/>
      <use xlink:href="#DejaVuSans-75" x="1218.945312"/>
      <use xlink:href="#DejaVuSans-6c" x="1282.324219"/>
      <use xlink:href="#DejaVuSans-74" x="1310.107422"/>
      <use xlink:href="#DejaVuSans-69" x="1349.316406"/>
      <use xlink:href="#DejaVuSans-70" x="1377.099609"/>
      <use xlink:href="#DejaVuSans-6c" x="1440.576172"/>
      <use xlink:href="#DejaVuSans-69" x="1468.359375"/>
      <use xlink:href="#DejaVuSans-63" x="1496.142578"/>
      <use xlink:href="#DejaVuSans-61" x="1551.123047"/>
      <use xlink:href="#DejaVuSans-74" x="1612.402344"/>
      <use xlink:href="#DejaVuSans-69" x="1651.611328"/>
      <use xlink:href="#DejaVuSans-6f" x="1679.394531"/>
      <use xlink:href="#DejaVuSans-6e" x="1740.576172"/>
      <use xlink:href="#DejaVuSans-29" x="1803.955078"/>
     </g>
    </g>
   </g>
   <g id="matplotlib.axis_2">
    <g id="ytick_1">
     <g id="line2d_6">
      <defs>
       <path id="m867c5ca805" d="M 0 0 
L -3.5 0 
" style="stroke: #000000; stroke-width: 0.8"/>
      </defs>
      <g>
       <use xlink:href="#m867c5ca805" x="47.72" y="151.571743" style="stroke: #000000; stroke-width: 0.8"/>
      </g>
     </g>
     <g id="text_7">
      <!-- 0.2 -->
      <g transform="translate(24.816875 155.370962)scale(0.1 -0.1)">
       <use xlink:href="#DejaVuSans-30"/>
       <use xlink:href="#DejaVuSans-2e" x="63.623047"/>
       <use xlink:href="#DejaVuSans-32" x="95.410156"/>
      </g>
     </g>
    </g>
    <g id="ytick_2">
     <g id="line2d_7">
      <g>
       <use xlink:href="#m867c5ca805" x="47.72" y="120.023715" style="stroke: #000000; stroke-width: 0.8"/>
      </g>
     </g>
     <g id="text_8">
      <!-- 0.4 -->
      <g transform="translate(24.816875 123.822933)scale(0.1 -0.1)">
       <defs>
        <path id="DejaVuSans-34" d="M 2419 4116 
L 825 1625 
L 2419 1625 
L 2419 4116 
z
M 2253 4666 
L 3047 4666 
L 3047 1625 
L 3713 1625 
L 3713 1100 
L 3047 1100 
L 3047 0 
L 2419 0 
L 2419 1100 
L 313 1100 
L 313 1709 
L 2253 4666 
z
" transform="scale(0.015625)"/>
       </defs>
       <use xlink:href="#DejaVuSans-30"/>
       <use xlink:href="#DejaVuSans-2e" x="63.623047"/>
       <use xlink:href="#DejaVuSans-34" x="95.410156"/>
      </g>
     </g>
    </g>
    <g id="ytick_3">
     <g id="line2d_8">
      <g>
       <use xlink:href="#m867c5ca805" x="47.72" y="88.475686" style="stroke: #000000; stroke-width: 0.8"/>
      </g>
     </g>
     <g id="text_9">
      <!-- 0.6 -->
      <g transform="translate(24.816875 92.274904)scale(0.1 -0.1)">
       <defs>
        <path id="DejaVuSans-36" d="M 2113 2584 
Q 1688 2584 1439 2293 
Q 1191 2003 1191 1497 
Q 1191 994 1439 701 
Q 1688 409 2113 409 
Q 2538 409 2786 701 
Q 3034 994 3034 1497 
Q 3034 2003 2786 2293 
Q 2538 2584 2113 2584 
z
M 3366 4563 
L 3366 3988 
Q 3128 4100 2886 4159 
Q 2644 4219 2406 4219 
Q 1781 4219 1451 3797 
Q 1122 3375 1075 2522 
Q 1259 2794 1537 2939 
Q 1816 3084 2150 3084 
Q 2853 3084 3261 2657 
Q 3669 2231 3669 1497 
Q 3669 778 3244 343 
Q 2819 -91 2113 -91 
Q 1303 -91 875 529 
Q 447 1150 447 2328 
Q 447 3434 972 4092 
Q 1497 4750 2381 4750 
Q 2619 4750 2861 4703 
Q 3103 4656 3366 4563 
z
" transform="scale(0.015625)"/>
       </defs>
       <use xlink:href="#DejaVuSans-30"/>
       <use xlink:href="#DejaVuSans-2e" x="63.623047"/>
       <use xlink:href="#DejaVuSans-36" x="95.410156"/>
      </g>
     </g>
    </g>
    <g id="ytick_4">
     <g id="line2d_9">
      <g>
       <use xlink:href="#m867c5ca805" x="47.72" y="56.927657" style="stroke: #000000; stroke-width: 0.8"/>
      </g>
     </g>
     <g id="text_10">
      <!-- 0.8 -->
      <g transform="translate(24.816875 60.726876)scale(0.1 -0.1)">
       <defs>
        <path id="DejaVuSans-38" d="M 2034 2216 
Q 1584 2216 1326 1975 
Q 1069 1734 1069 1313 
Q 1069 891 1326 650 
Q 1584 409 2034 409 
Q 2484 409 2743 651 
Q 3003 894 3003 1313 
Q 3003 1734 2745 1975 
Q 2488 2216 2034 2216 
z
M 1403 2484 
Q 997 2584 770 2862 
Q 544 3141 544 3541 
Q 544 4100 942 4425 
Q 1341 4750 2034 4750 
Q 2731 4750 3128 4425 
Q 3525 4100 3525 3541 
Q 3525 3141 3298 2862 
Q 3072 2584 2669 2484 
Q 3125 2378 3379 2068 
Q 3634 1759 3634 1313 
Q 3634 634 3220 271 
Q 2806 -91 2034 -91 
Q 1263 -91 848 271 
Q 434 634 434 1313 
Q 434 1759 690 2068 
Q 947 2378 1403 2484 
z
M 1172 3481 
Q 1172 3119 1398 2916 
Q 1625 2713 2034 2713 
Q 2441 2713 2670 2916 
Q 2900 3119 2900 3481 
Q 2900 3844 2670 4047 
Q 2441 4250 2034 4250 
Q 1625 4250 1398 4047 
Q 1172 3844 1172 3481 
z
" transform="scale(0.015625)"/>
       </defs>
       <use xlink:href="#DejaVuSans-30"/>
       <use xlink:href="#DejaVuSans-2e" x="63.623047"/>
       <use xlink:href="#DejaVuSans-38" x="95.410156"/>
      </g>
     </g>
    </g>
    <g id="text_11">
     <!-- R-value -->
     <g transform="translate(18.737188 119.064687)rotate(-90)scale(0.1 -0.1)">
      <defs>
       <path id="DejaVuSans-52" d="M 2841 2188 
Q 3044 2119 3236 1894 
Q 3428 1669 3622 1275 
L 4263 0 
L 3584 0 
L 2988 1197 
Q 2756 1666 2539 1819 
Q 2322 1972 1947 1972 
L 1259 1972 
L 1259 0 
L 628 0 
L 628 4666 
L 2053 4666 
Q 2853 4666 3247 4331 
Q 3641 3997 3641 3322 
Q 3641 2881 3436 2590 
Q 3231 2300 2841 2188 
z
M 1259 4147 
L 1259 2491 
L 2053 2491 
Q 2509 2491 2742 2702 
Q 2975 2913 2975 3322 
Q 2975 3731 2742 3939 
Q 2509 4147 2053 4147 
L 1259 4147 
z
" transform="scale(0.015625)"/>
       <path id="DejaVuSans-2d" d="M 313 2009 
L 1997 2009 
L 1997 1497 
L 313 1497 
L 313 2009 
z
" transform="scale(0.015625)"/>
       <path id="DejaVuSans-76" d="M 191 3500 
L 800 3500 
L 1894 563 
L 2988 3500 
L 3597 3500 
L 2284 0 
L 1503 0 
L 191 3500 
z
" transform="scale(0.015625)"/>
      </defs>
      <use xlink:href="#DejaVuSans-52"/>
      <use xlink:href="#DejaVuSans-2d" x="65.482422"/>
      <use xlink:href="#DejaVuSans-76" x="98.941406"/>
      <use xlink:href="#DejaVuSans-61" x="158.121094"/>
      <use xlink:href="#DejaVuSans-6c" x="219.400391"/>
      <use xlink:href="#DejaVuSans-75" x="247.183594"/>
      <use xlink:href="#DejaVuSans-65" x="310.5625"/>
     </g>
    </g>
   </g>
   <g id="line2d_10">
    <path d="M 47.72 34.024725 
L 59.167105 35.946967 
L 70.614211 41.545893 
L 82.061316 49.027783 
L 93.508421 57.521036 
L 104.955526 67.360011 
L 116.402632 76.991106 
L 127.849737 86.118935 
L 139.296842 95.638579 
L 150.743947 103.421699 
L 162.191053 111.239282 
L 173.638158 118.134564 
L 185.085263 124.334927 
L 196.532368 129.798082 
L 207.979474 134.660777 
L 219.426579 139.362575 
L 230.873684 143.320881 
L 242.320789 146.659827 
L 253.767895 149.398559 
L 265.215 152.081486 
" clip-path="url(#pdfd8099547)" style="fill: none; stroke: #1f77b4; stroke-width: 1.5; stroke-linecap: square"/>
   </g>
   <g id="line2d_11">
    <path d="M 47.72 34.035055 
L 59.167105 35.317065 
L 70.614211 38.486293 
L 82.061316 43.162893 
L 93.508421 49.346763 
L 104.955526 56.984215 
L 116.402632 64.961681 
L 127.849737 72.840523 
L 139.296842 81.787731 
L 150.743947 89.139515 
L 162.191053 97.240722 
L 173.638158 104.359086 
L 185.085263 111.067213 
L 196.532368 117.200109 
L 207.979474 122.644388 
L 219.426579 127.986248 
L 230.873684 132.635595 
L 242.320789 136.822615 
L 253.767895 140.122445 
L 265.215 143.602078 
" clip-path="url(#pdfd8099547)" style="fill: none; stroke: #ff7f0e; stroke-width: 1.5; stroke-linecap: square"/>
   </g>
   <g id="line2d_12">
    <path d="M 47.72 34.03992 
L 59.167105 35.505494 
L 70.614211 38.173736 
L 82.061316 41.371582 
L 93.508421 45.232248 
L 104.955526 49.752679 
L 116.402632 54.469091 
L 127.849737 58.451948 
L 139.296842 63.460474 
L 150.743947 67.811675 
L 162.191053 72.525485 
L 173.638158 76.402812 
L 185.085263 81.065442 
L 196.532368 85.409718 
L 207.979474 89.808656 
L 219.426579 94.173349 
L 230.873684 97.910843 
L 242.320789 102.684333 
L 253.767895 105.726744 
L 265.215 109.951017 
" clip-path="url(#pdfd8099547)" style="fill: none; stroke: #2ca02c; stroke-width: 1.5; stroke-linecap: square"/>
   </g>
   <g id="line2d_13">
    <path d="M 47.72 34.051444 
L 59.167105 35.242489 
L 70.614211 37.28724 
L 82.061316 39.915459 
L 93.508421 43.485276 
L 104.955526 47.827767 
L 116.402632 52.518747 
L 127.849737 56.656713 
L 139.296842 62.01548 
L 150.743947 66.528418 
L 162.191053 71.424759 
L 173.638158 75.514576 
L 185.085263 80.241375 
L 196.532368 84.536009 
L 207.979474 89.07161 
L 219.426579 93.295478 
L 230.873684 96.785119 
L 242.320789 101.294195 
L 253.767895 104.078477 
L 265.215 108.00296 
" clip-path="url(#pdfd8099547)" style="fill: none; stroke: #d62728; stroke-width: 1.5; stroke-linecap: square"/>
   </g>
   <g id="line2d_14">
    <path d="M 47.72 34.03617 
L 59.167105 35.956228 
L 70.614211 41.592872 
L 82.061316 49.051164 
L 93.508421 57.589735 
L 104.955526 67.410149 
L 116.402632 77.005551 
L 127.849737 86.244591 
L 139.296842 95.937078 
L 150.743947 103.677961 
L 162.191053 111.385428 
L 173.638158 118.424918 
L 185.085263 125.187339 
L 196.532368 130.177617 
L 207.979474 135.033937 
L 219.426579 139.31883 
L 230.873684 143.797502 
L 242.320789 146.610658 
L 253.767895 149.787663 
L 265.215 152.323296 
" clip-path="url(#pdfd8099547)" style="fill: none; stroke: #9467bd; stroke-width: 1.5; stroke-linecap: square"/>
   </g>
   <g id="line2d_15">
    <path d="M 47.72 34.046702 
L 59.167105 35.32791 
L 70.614211 38.519595 
L 82.061316 43.176459 
L 93.508421 49.411998 
L 104.955526 56.994828 
L 116.402632 64.998463 
L 127.849737 72.940876 
L 139.296842 82.009849 
L 150.743947 89.349158 
L 162.191053 97.269793 
L 173.638158 104.63364 
L 185.085263 111.624967 
L 196.532368 117.49655 
L 207.979474 122.964177 
L 219.426579 128.008668 
L 230.873684 132.994606 
L 242.320789 136.740209 
L 253.767895 140.417471 
L 265.215 143.78844 
" clip-path="url(#pdfd8099547)" style="fill: none; stroke: #8c564b; stroke-width: 1.5; stroke-linecap: square"/>
   </g>
   <g id="line2d_16">
    <path d="M 47.72 46.078361 
L 59.167105 48.74353 
L 70.614211 55.133238 
L 82.061316 64.097438 
L 93.508421 74.040958 
L 104.955526 85.154343 
L 116.402632 95.360745 
L 127.849737 104.619954 
L 139.296842 113.578732 
L 150.743947 121.083548 
L 162.191053 128.088276 
L 173.638158 133.966228 
L 185.085263 139.12058 
L 196.532368 143.851873 
L 207.979474 148.204892 
L 219.426579 151.993469 
L 230.873684 155.152069 
L 242.320789 157.837759 
L 253.767895 160.07756 
L 265.215 161.962397 
" clip-path="url(#pdfd8099547)" style="fill: none; stroke: #e377c2; stroke-width: 1.5; stroke-linecap: square"/>
   </g>
   <g id="line2d_17">
    <path d="M 47.72 34.04995 
L 59.167105 34.636505 
L 70.614211 35.340124 
L 82.061316 37.146328 
L 93.508421 40.735564 
L 104.955526 46.136993 
L 116.402632 52.946485 
L 127.849737 60.0002 
L 139.296842 68.6588 
L 150.743947 75.925188 
L 162.191053 84.300567 
L 173.638158 91.622159 
L 185.085263 98.7397 
L 196.532368 105.34416 
L 207.979474 111.396558 
L 219.426579 117.315882 
L 230.873684 122.394167 
L 242.320789 127.725608 
L 253.767895 131.618196 
L 265.215 135.68235 
" clip-path="url(#pdfd8099547)" style="fill: none; stroke: #7f7f7f; stroke-width: 1.5; stroke-linecap: square"/>
   </g>
   <g id="patch_3">
    <path d="M 47.72 174.04 
L 47.72 26.88 
" style="fill: none; stroke: #000000; stroke-width: 0.8; stroke-linejoin: miter; stroke-linecap: square"/>
   </g>
   <g id="patch_4">
    <path d="M 47.72 174.04 
L 265.215 174.04 
" style="fill: none; stroke: #000000; stroke-width: 0.8; stroke-linejoin: miter; stroke-linecap: square"/>
   </g>
   <g id="text_12">
    <!-- Node * surprisal -->
    <g transform="translate(108.18625 20.88)scale(0.12 -0.12)">
     <defs>
      <path id="DejaVuSans-4e" d="M 628 4666 
L 1478 4666 
L 3547 763 
L 3547 4666 
L 4159 4666 
L 4159 0 
L 3309 0 
L 1241 3903 
L 1241 0 
L 628 0 
L 628 4666 
z
" transform="scale(0.015625)"/>
      <path id="DejaVuSans-64" d="M 2906 2969 
L 2906 4863 
L 3481 4863 
L 3481 0 
L 2906 0 
L 2906 525 
Q 2725 213 2448 61 
Q 2172 -91 1784 -91 
Q 1150 -91 751 415 
Q 353 922 353 1747 
Q 353 2572 751 3078 
Q 1150 3584 1784 3584 
Q 2172 3584 2448 3432 
Q 2725 3281 2906 2969 
z
M 947 1747 
Q 947 1113 1208 752 
Q 1469 391 1925 391 
Q 2381 391 2643 752 
Q 2906 1113 2906 1747 
Q 2906 2381 2643 2742 
Q 2381 3103 1925 3103 
Q 1469 3103 1208 2742 
Q 947 2381 947 1747 
z
" transform="scale(0.015625)"/>
      <path id="DejaVuSans-2a" d="M 3009 3897 
L 1888 3291 
L 3009 2681 
L 2828 2375 
L 1778 3009 
L 1778 1831 
L 1422 1831 
L 1422 3009 
L 372 2375 
L 191 2681 
L 1313 3291 
L 191 3897 
L 372 4206 
L 1422 3572 
L 1422 4750 
L 1778 4750 
L 1778 3572 
L 2828 4206 
L 3009 3897 
z
" transform="scale(0.015625)"/>
     </defs>
     <use xlink:href="#DejaVuSans-4e"/>
     <use xlink:href="#DejaVuSans-6f" x="74.804688"/>
     <use xlink:href="#DejaVuSans-64" x="135.986328"/>
     <use xlink:href="#DejaVuSans-65" x="199.462891"/>
     <use xlink:href="#DejaVuSans-20" x="260.986328"/>
     <use xlink:href="#DejaVuSans-2a" x="292.773438"/>
     <use xlink:href="#DejaVuSans-20" x="342.773438"/>
     <use xlink:href="#DejaVuSans-73" x="374.560547"/>
     <use xlink:href="#DejaVuSans-75" x="426.660156"/>
     <use xlink:href="#DejaVuSans-72" x="490.039062"/>
     <use xlink:href="#DejaVuSans-70" x="531.152344"/>
     <use xlink:href="#DejaVuSans-72" x="594.628906"/>
     <use xlink:href="#DejaVuSans-69" x="635.742188"/>
     <use xlink:href="#DejaVuSans-73" x="663.525391"/>
     <use xlink:href="#DejaVuSans-61" x="715.625"/>
     <use xlink:href="#DejaVuSans-6c" x="776.904297"/>
    </g>
   </g>
  </g>
  <g id="axes_2">
   <g id="patch_5">
    <path d="M 298.065 174.04 
L 515.56 174.04 
L 515.56 26.88 
L 298.065 26.88 
z
" style="fill: #ffffff"/>
   </g>
   <g id="PolyCollection_9">
    <path d="M 298.065 33.569091 
L 298.065 34.485018 
L 309.512105 36.557375 
L 320.959211 42.820405 
L 332.406316 51.245786 
L 343.853421 59.657219 
L 355.300526 69.434683 
L 366.747632 80.156533 
L 378.194737 89.461501 
L 389.641842 98.693451 
L 401.088947 107.188037 
L 412.536053 114.90453 
L 423.983158 121.17749 
L 435.430263 126.26208 
L 446.877368 131.801672 
L 458.324474 136.684718 
L 469.771579 139.715899 
L 481.218684 144.352013 
L 492.665789 147.079227 
L 504.112895 150.673042 
L 515.56 153.85874 
L 515.56 146.093722 
L 515.56 146.093722 
L 504.112895 143.50404 
L 492.665789 140.458699 
L 481.218684 136.937923 
L 469.771579 133.265879 
L 458.324474 129.438507 
L 446.877368 124.043152 
L 435.430263 118.277506 
L 423.983158 111.414618 
L 412.536053 104.832482 
L 401.088947 97.560937 
L 389.641842 89.348021 
L 378.194737 80.931154 
L 366.747632 71.57449 
L 355.300526 62.969118 
L 343.853421 54.333956 
L 332.406316 46.507441 
L 320.959211 40.317336 
L 309.512105 35.284488 
L 298.065 33.569091 
z
" clip-path="url(#p70d6f84fe8)" style="fill: #1f77b4; fill-opacity: 0.4"/>
   </g>
   <g id="PolyCollection_10">
    <path d="M 298.065 33.580377 
L 298.065 34.503284 
L 309.512105 36.57844 
L 320.959211 42.822767 
L 332.406316 51.274076 
L 343.853421 59.700344 
L 355.300526 69.526504 
L 366.747632 80.256084 
L 378.194737 89.636267 
L 389.641842 98.863877 
L 401.088947 107.479882 
L 412.536053 115.256061 
L 423.983158 121.51402 
L 435.430263 126.640129 
L 446.877368 132.30089 
L 458.324474 137.255989 
L 469.771579 140.57677 
L 481.218684 145.161255 
L 492.665789 147.944601 
L 504.112895 151.615028 
L 515.56 154.972954 
L 515.56 146.980512 
L 515.56 146.980512 
L 504.112895 144.225562 
L 492.665789 141.220849 
L 481.218684 137.805836 
L 469.771579 133.824295 
L 458.324474 130.084318 
L 446.877368 124.585548 
L 435.430263 118.753953 
L 423.983158 111.768376 
L 412.536053 105.091709 
L 401.088947 97.731338 
L 389.641842 89.481775 
L 378.194737 81.080234 
L 366.747632 71.629768 
L 355.300526 63.054784 
L 343.853421 54.371967 
L 332.406316 46.537505 
L 320.959211 40.354804 
L 309.512105 35.30493 
L 298.065 33.580377 
z
" clip-path="url(#p70d6f84fe8)" style="fill: #ff7f0e; fill-opacity: 0.4"/>
   </g>
   <g id="PolyCollection_11">
    <path d="M 298.065 33.585192 
L 298.065 34.495109 
L 309.512105 36.564074 
L 320.959211 42.818098 
L 332.406316 51.231203 
L 343.853421 59.709878 
L 355.300526 69.498359 
L 366.747632 80.145483 
L 378.194737 89.463959 
L 389.641842 98.688946 
L 401.088947 107.337064 
L 412.536053 115.189783 
L 423.983158 121.531837 
L 435.430263 126.864701 
L 446.877368 132.507871 
L 458.324474 137.666903 
L 469.771579 140.934353 
L 481.218684 145.910668 
L 492.665789 148.712216 
L 504.112895 152.470693 
L 515.56 155.841473 
L 515.56 145.928673 
L 515.56 145.928673 
L 504.112895 143.525677 
L 492.665789 140.370028 
L 481.218684 136.831326 
L 469.771579 133.26194 
L 458.324474 129.493182 
L 446.877368 124.2584 
L 435.430263 118.486466 
L 423.983158 111.577329 
L 412.536053 105.166729 
L 401.088947 97.828891 
L 389.641842 89.730197 
L 378.194737 81.301517 
L 366.747632 71.873723 
L 355.300526 63.28412 
L 343.853421 54.489103 
L 332.406316 46.63883 
L 320.959211 40.40926 
L 309.512105 35.306192 
L 298.065 33.585192 
z
" clip-path="url(#p70d6f84fe8)" style="fill: #2ca02c; fill-opacity: 0.4"/>
   </g>
   <g id="PolyCollection_12">
    <path d="M 298.065 33.5994 
L 298.065 34.523848 
L 309.512105 36.588227 
L 320.959211 42.832407 
L 332.406316 51.26306 
L 343.853421 59.760756 
L 355.300526 69.607794 
L 366.747632 80.278467 
L 378.194737 89.602597 
L 389.641842 98.891323 
L 401.088947 107.568367 
L 412.536053 115.42084 
L 423.983158 121.70639 
L 435.430263 127.06672 
L 446.877368 132.79237 
L 458.324474 138.088366 
L 469.771579 141.633898 
L 481.218684 146.505709 
L 492.665789 149.332916 
L 504.112895 153.268259 
L 515.56 156.86819 
L 515.56 146.968016 
L 515.56 146.968016 
L 504.112895 144.439478 
L 492.665789 141.439047 
L 481.218684 137.968574 
L 469.771579 134.098147 
L 458.324474 130.374921 
L 446.877368 125.000419 
L 435.430263 119.155886 
L 423.983158 112.151544 
L 412.536053 105.478944 
L 401.088947 98.065436 
L 389.641842 89.834176 
L 378.194737 81.368877 
L 366.747632 71.869142 
L 355.300526 63.272726 
L 343.853421 54.46627 
L 332.406316 46.639425 
L 320.959211 40.418387 
L 309.512105 35.32163 
L 298.065 33.5994 
z
" clip-path="url(#p70d6f84fe8)" style="fill: #d62728; fill-opacity: 0.4"/>
   </g>
   <g id="PolyCollection_13">
    <path d="M 298.065 33.578368 
L 298.065 34.496791 
L 309.512105 36.567699 
L 320.959211 42.819341 
L 332.406316 51.315488 
L 343.853421 59.739314 
L 355.300526 69.486665 
L 366.747632 80.231859 
L 378.194737 89.346188 
L 389.641842 98.864092 
L 401.088947 107.09341 
L 412.536053 115.430724 
L 423.983158 122.007911 
L 435.430263 126.292072 
L 446.877368 132.38199 
L 458.324474 137.085996 
L 469.771579 140.243072 
L 481.218684 144.754714 
L 492.665789 147.184247 
L 504.112895 150.048893 
L 515.56 155.409621 
L 515.56 146.040377 
L 515.56 146.040377 
L 504.112895 144.295597 
L 492.665789 140.418726 
L 481.218684 137.021469 
L 469.771579 133.764351 
L 458.324474 130.164279 
L 446.877368 124.273511 
L 435.430263 118.270294 
L 423.983158 111.282257 
L 412.536053 105.27132 
L 401.088947 97.524147 
L 389.641842 89.706139 
L 378.194737 81.254394 
L 366.747632 71.63734 
L 355.300526 62.955072 
L 343.853421 54.376977 
L 332.406316 46.507497 
L 320.959211 40.348664 
L 309.512105 35.303191 
L 298.065 33.578368 
z
" clip-path="url(#p70d6f84fe8)" style="fill: #9467bd; fill-opacity: 0.4"/>
   </g>
   <g id="PolyCollection_14">
    <path d="M 298.065 33.589699 
L 298.065 34.514936 
L 309.512105 36.588871 
L 320.959211 42.823749 
L 332.406316 51.344902 
L 343.853421 59.785226 
L 355.300526 69.579715 
L 366.747632 80.346333 
L 378.194737 89.526763 
L 389.641842 99.028409 
L 401.088947 107.372771 
L 412.536053 115.773459 
L 423.983158 122.354114 
L 435.430263 126.650942 
L 446.877368 132.872347 
L 458.324474 137.563103 
L 469.771579 141.026306 
L 481.218684 145.469125 
L 492.665789 147.922511 
L 504.112895 150.95696 
L 515.56 156.489428 
L 515.56 146.793879 
L 515.56 146.793879 
L 504.112895 144.950279 
L 492.665789 141.265856 
L 481.218684 137.908491 
L 469.771579 134.341109 
L 458.324474 130.89074 
L 446.877368 124.796042 
L 435.430263 118.749578 
L 423.983158 111.637244 
L 412.536053 105.550834 
L 401.088947 97.698588 
L 389.641842 89.848153 
L 378.194737 81.415933 
L 366.747632 71.701651 
L 355.300526 63.049692 
L 343.853421 54.411167 
L 332.406316 46.539948 
L 320.959211 40.385605 
L 309.512105 35.324198 
L 298.065 33.589699 
z
" clip-path="url(#p70d6f84fe8)" style="fill: #8c564b; fill-opacity: 0.4"/>
   </g>
   <g id="PolyCollection_15">
    <path d="M 298.065 44.851774 
L 298.065 47.262306 
L 309.512105 49.069284 
L 320.959211 54.877888 
L 332.406316 62.678361 
L 343.853421 70.057882 
L 355.300526 79.245932 
L 366.747632 88.906346 
L 378.194737 97.333967 
L 389.641842 105.743154 
L 401.088947 113.464704 
L 412.536053 120.450394 
L 423.983158 126.035313 
L 435.430263 130.800093 
L 446.877368 135.992094 
L 458.324474 140.374627 
L 469.771579 143.771122 
L 481.218684 147.395569 
L 492.665789 150.512785 
L 504.112895 153.49483 
L 515.56 156.608715 
L 515.56 147.622757 
L 515.56 147.622757 
L 504.112895 145.160069 
L 492.665789 142.199797 
L 481.218684 139.381949 
L 469.771579 135.6888 
L 458.324474 132.637891 
L 446.877368 127.774332 
L 435.430263 122.85082 
L 423.983158 116.993495 
L 412.536053 111.047903 
L 401.088947 104.625487 
L 389.641842 97.196296 
L 378.194737 89.808479 
L 366.747632 81.084917 
L 355.300526 72.992782 
L 343.853421 65.178389 
L 332.406316 57.443574 
L 320.959211 51.356513 
L 309.512105 46.470964 
L 298.065 44.851774 
z
" clip-path="url(#p70d6f84fe8)" style="fill: #e377c2; fill-opacity: 0.4"/>
   </g>
   <g id="PolyCollection_16">
    <path d="M 298.065 33.599976 
L 298.065 34.510984 
L 309.512105 36.597825 
L 320.959211 42.856838 
L 332.406316 51.31871 
L 343.853421 59.83184 
L 355.300526 69.664521 
L 366.747632 80.419862 
L 378.194737 89.779169 
L 389.641842 98.979431 
L 401.088947 107.778633 
L 412.536053 115.572535 
L 423.983158 121.864081 
L 435.430263 127.02876 
L 446.877368 132.863509 
L 458.324474 137.851208 
L 469.771579 141.31475 
L 481.218684 146.026172 
L 492.665789 149.092686 
L 504.112895 152.621835 
L 515.56 156.080568 
L 515.56 146.832239 
L 515.56 146.832239 
L 504.112895 144.033433 
L 492.665789 141.058974 
L 481.218684 137.701526 
L 469.771579 133.723754 
L 458.324474 129.958973 
L 446.877368 124.440994 
L 435.430263 118.596097 
L 423.983158 111.618505 
L 412.536053 104.926577 
L 401.088947 97.506836 
L 389.641842 89.415113 
L 378.194737 80.931174 
L 366.747632 71.492117 
L 355.300526 62.999208 
L 343.853421 54.251218 
L 332.406316 46.541197 
L 320.959211 40.37361 
L 309.512105 35.30969 
L 298.065 33.599976 
z
" clip-path="url(#p70d6f84fe8)" style="fill: #7f7f7f; fill-opacity: 0.4"/>
   </g>
   <g id="matplotlib.axis_3">
    <g id="xtick_6">
     <g id="line2d_18">
      <g>
       <use xlink:href="#me77db65a6f" x="298.065" y="174.04" style="stroke: #000000; stroke-width: 0.8"/>
      </g>
     </g>
     <g id="text_13">
      <!-- 0.0 -->
      <g transform="translate(290.113437 188.638438)scale(0.1 -0.1)">
       <use xlink:href="#DejaVuSans-30"/>
       <use xlink:href="#DejaVuSans-2e" x="63.623047"/>
       <use xlink:href="#DejaVuSans-30" x="95.410156"/>
      </g>
     </g>
    </g>
    <g id="xtick_7">
     <g id="line2d_19">
      <g>
       <use xlink:href="#me77db65a6f" x="352.43875" y="174.04" style="stroke: #000000; stroke-width: 0.8"/>
      </g>
     </g>
     <g id="text_14">
      <!-- 0.5 -->
      <g transform="translate(344.487187 188.638438)scale(0.1 -0.1)">
       <use xlink:href="#DejaVuSans-30"/>
       <use xlink:href="#DejaVuSans-2e" x="63.623047"/>
       <use xlink:href="#DejaVuSans-35" x="95.410156"/>
      </g>
     </g>
    </g>
    <g id="xtick_8">
     <g id="line2d_20">
      <g>
       <use xlink:href="#me77db65a6f" x="406.8125" y="174.04" style="stroke: #000000; stroke-width: 0.8"/>
      </g>
     </g>
     <g id="text_15">
      <!-- 1.0 -->
      <g transform="translate(398.860937 188.638438)scale(0.1 -0.1)">
       <use xlink:href="#DejaVuSans-31"/>
       <use xlink:href="#DejaVuSans-2e" x="63.623047"/>
       <use xlink:href="#DejaVuSans-30" x="95.410156"/>
      </g>
     </g>
    </g>
    <g id="xtick_9">
     <g id="line2d_21">
      <g>
       <use xlink:href="#me77db65a6f" x="461.18625" y="174.04" style="stroke: #000000; stroke-width: 0.8"/>
      </g>
     </g>
     <g id="text_16">
      <!-- 1.5 -->
      <g transform="translate(453.234687 188.638438)scale(0.1 -0.1)">
       <use xlink:href="#DejaVuSans-31"/>
       <use xlink:href="#DejaVuSans-2e" x="63.623047"/>
       <use xlink:href="#DejaVuSans-35" x="95.410156"/>
      </g>
     </g>
    </g>
    <g id="xtick_10">
     <g id="line2d_22">
      <g>
       <use xlink:href="#me77db65a6f" x="515.56" y="174.04" style="stroke: #000000; stroke-width: 0.8"/>
      </g>
     </g>
     <g id="text_17">
      <!-- 2.0 -->
      <g transform="translate(507.608437 188.638438)scale(0.1 -0.1)">
       <use xlink:href="#DejaVuSans-32"/>
       <use xlink:href="#DejaVuSans-2e" x="63.623047"/>
       <use xlink:href="#DejaVuSans-30" x="95.410156"/>
      </g>
     </g>
    </g>
    <g id="text_18">
     <!-- Influence of surprisal (multiplication) -->
     <g transform="translate(314.665625 202.316563)scale(0.1 -0.1)">
      <use xlink:href="#DejaVuSans-49"/>
      <use xlink:href="#DejaVuSans-6e" x="29.492188"/>
      <use xlink:href="#DejaVuSans-66" x="92.871094"/>
      <use xlink:href="#DejaVuSans-6c" x="128.076172"/>
      <use xlink:href="#DejaVuSans-75" x="155.859375"/>
      <use xlink:href="#DejaVuSans-65" x="219.238281"/>
      <use xlink:href="#DejaVuSans-6e" x="280.761719"/>
      <use xlink:href="#DejaVuSans-63" x="344.140625"/>
      <use xlink:href="#DejaVuSans-65" x="399.121094"/>
      <use xlink:href="#DejaVuSans-20" x="460.644531"/>
      <use xlink:href="#DejaVuSans-6f" x="492.431641"/>
      <use xlink:href="#DejaVuSans-66" x="553.613281"/>
      <use xlink:href="#DejaVuSans-20" x="588.818359"/>
      <use xlink:href="#DejaVuSans-73" x="620.605469"/>
      <use xlink:href="#DejaVuSans-75" x="672.705078"/>
      <use xlink:href="#DejaVuSans-72" x="736.083984"/>
      <use xlink:href="#DejaVuSans-70" x="777.197266"/>
      <use xlink:href="#DejaVuSans-72" x="840.673828"/>
      <use xlink:href="#DejaVuSans-69" x="881.787109"/>
      <use xlink:href="#DejaVuSans-73" x="909.570312"/>
      <use xlink:href="#DejaVuSans-61" x="961.669922"/>
      <use xlink:href="#DejaVuSans-6c" x="1022.949219"/>
      <use xlink:href="#DejaVuSans-20" x="1050.732422"/>
      <use xlink:href="#DejaVuSans-28" x="1082.519531"/>
      <use xlink:href="#DejaVuSans-6d" x="1121.533203"/>
      <use xlink:href="#DejaVuSans-75" x="1218.945312"/>
      <use xlink:href="#DejaVuSans-6c" x="1282.324219"/>
      <use xlink:href="#DejaVuSans-74" x="1310.107422"/>
      <use xlink:href="#DejaVuSans-69" x="1349.316406"/>
      <use xlink:href="#DejaVuSans-70" x="1377.099609"/>
      <use xlink:href="#DejaVuSans-6c" x="1440.576172"/>
      <use xlink:href="#DejaVuSans-69" x="1468.359375"/>
      <use xlink:href="#DejaVuSans-63" x="1496.142578"/>
      <use xlink:href="#DejaVuSans-61" x="1551.123047"/>
      <use xlink:href="#DejaVuSans-74" x="1612.402344"/>
      <use xlink:href="#DejaVuSans-69" x="1651.611328"/>
      <use xlink:href="#DejaVuSans-6f" x="1679.394531"/>
      <use xlink:href="#DejaVuSans-6e" x="1740.576172"/>
      <use xlink:href="#DejaVuSans-29" x="1803.955078"/>
     </g>
    </g>
   </g>
   <g id="line2d_23">
    <path d="M 298.065 34.027055 
L 309.512105 35.920931 
L 320.959211 41.568871 
L 332.406316 48.876613 
L 343.853421 56.995587 
L 355.300526 66.201901 
L 366.747632 75.865512 
L 378.194737 85.196327 
L 389.641842 94.020736 
L 401.088947 102.374487 
L 412.536053 109.868506 
L 423.983158 116.296054 
L 435.430263 122.269793 
L 446.877368 127.922412 
L 458.324474 133.061613 
L 469.771579 136.490889 
L 481.218684 140.644968 
L 492.665789 143.768963 
L 504.112895 147.088541 
L 515.56 149.976231 
" clip-path="url(#p70d6f84fe8)" style="fill: none; stroke: #1f77b4; stroke-width: 1.5; stroke-linecap: square"/>
   </g>
   <g id="line2d_24">
    <path d="M 298.065 34.04183 
L 309.512105 35.941685 
L 320.959211 41.588786 
L 332.406316 48.905791 
L 343.853421 57.036155 
L 355.300526 66.290644 
L 366.747632 75.942926 
L 378.194737 85.358251 
L 389.641842 94.172826 
L 401.088947 102.60561 
L 412.536053 110.173885 
L 423.983158 116.641198 
L 435.430263 122.697041 
L 446.877368 128.443219 
L 458.324474 133.670153 
L 469.771579 137.200532 
L 481.218684 141.483546 
L 492.665789 144.582725 
L 504.112895 147.920295 
L 515.56 150.976733 
" clip-path="url(#p70d6f84fe8)" style="fill: none; stroke: #ff7f0e; stroke-width: 1.5; stroke-linecap: square"/>
   </g>
   <g id="line2d_25">
    <path d="M 298.065 34.040151 
L 309.512105 35.935133 
L 320.959211 41.613679 
L 332.406316 48.935017 
L 343.853421 57.09949 
L 355.300526 66.391239 
L 366.747632 76.009603 
L 378.194737 85.382738 
L 389.641842 94.209571 
L 401.088947 102.582977 
L 412.536053 110.178256 
L 423.983158 116.554583 
L 435.430263 122.675583 
L 446.877368 128.383136 
L 458.324474 133.580042 
L 469.771579 137.098146 
L 481.218684 141.370997 
L 492.665789 144.541122 
L 504.112895 147.998185 
L 515.56 150.885073 
" clip-path="url(#p70d6f84fe8)" style="fill: none; stroke: #2ca02c; stroke-width: 1.5; stroke-linecap: square"/>
   </g>
   <g id="line2d_26">
    <path d="M 298.065 34.061624 
L 309.512105 35.954929 
L 320.959211 41.625397 
L 332.406316 48.951243 
L 343.853421 57.113513 
L 355.300526 66.44026 
L 366.747632 76.073805 
L 378.194737 85.485737 
L 389.641842 94.36275 
L 401.088947 102.816901 
L 412.536053 110.449892 
L 423.983158 116.928967 
L 435.430263 123.111303 
L 446.877368 128.896394 
L 458.324474 134.231644 
L 469.771579 137.866022 
L 481.218684 142.237142 
L 492.665789 145.385981 
L 504.112895 148.853868 
L 515.56 151.918103 
" clip-path="url(#p70d6f84fe8)" style="fill: none; stroke: #d62728; stroke-width: 1.5; stroke-linecap: square"/>
   </g>
   <g id="line2d_27">
    <path d="M 298.065 34.03758 
L 309.512105 35.935445 
L 320.959211 41.584003 
L 332.406316 48.911492 
L 343.853421 57.058145 
L 355.300526 66.220868 
L 366.747632 75.9346 
L 378.194737 85.300291 
L 389.641842 94.285115 
L 401.088947 102.308778 
L 412.536053 110.351022 
L 423.983158 116.645084 
L 435.430263 122.281183 
L 446.877368 128.32775 
L 458.324474 133.625138 
L 469.771579 137.003711 
L 481.218684 140.888092 
L 492.665789 143.801487 
L 504.112895 147.172245 
L 515.56 150.724999 
" clip-path="url(#p70d6f84fe8)" style="fill: none; stroke: #9467bd; stroke-width: 1.5; stroke-linecap: square"/>
   </g>
   <g id="line2d_28">
    <path d="M 298.065 34.052318 
L 309.512105 35.956534 
L 320.959211 41.604677 
L 332.406316 48.942425 
L 343.853421 57.098197 
L 355.300526 66.314703 
L 366.747632 76.023992 
L 378.194737 85.471348 
L 389.641842 94.438281 
L 401.088947 102.53568 
L 412.536053 110.662146 
L 423.983158 116.995679 
L 435.430263 122.70026 
L 446.877368 128.834195 
L 458.324474 134.226922 
L 469.771579 137.683707 
L 481.218684 141.688808 
L 492.665789 144.594183 
L 504.112895 147.95362 
L 515.56 151.641653 
" clip-path="url(#p70d6f84fe8)" style="fill: none; stroke: #8c564b; stroke-width: 1.5; stroke-linecap: square"/>
   </g>
   <g id="line2d_29">
    <path d="M 298.065 46.05704 
L 309.512105 47.770124 
L 320.959211 53.1172 
L 332.406316 60.060968 
L 343.853421 67.618135 
L 355.300526 76.119357 
L 366.747632 84.995631 
L 378.194737 93.571223 
L 389.641842 101.469725 
L 401.088947 109.045095 
L 412.536053 115.749149 
L 423.983158 121.514404 
L 435.430263 126.825457 
L 446.877368 131.883213 
L 458.324474 136.506259 
L 469.771579 139.729961 
L 481.218684 143.388759 
L 492.665789 146.356291 
L 504.112895 149.32745 
L 515.56 152.115736 
" clip-path="url(#p70d6f84fe8)" style="fill: none; stroke: #e377c2; stroke-width: 1.5; stroke-linecap: square"/>
   </g>
   <g id="line2d_30">
    <path d="M 298.065 34.05548 
L 309.512105 35.953758 
L 320.959211 41.615224 
L 332.406316 48.929953 
L 343.853421 57.041529 
L 355.300526 66.331865 
L 366.747632 75.95599 
L 378.194737 85.355172 
L 389.641842 94.197272 
L 401.088947 102.642734 
L 412.536053 110.249556 
L 423.983158 116.741293 
L 435.430263 122.812429 
L 446.877368 128.652251 
L 458.324474 133.905091 
L 469.771579 137.519252 
L 481.218684 141.863849 
L 492.665789 145.07583 
L 504.112895 148.327634 
L 515.56 151.456403 
" clip-path="url(#p70d6f84fe8)" style="fill: none; stroke: #7f7f7f; stroke-width: 1.5; stroke-linecap: square"/>
   </g>
   <g id="patch_6">
    <path d="M 298.065 174.04 
L 298.065 26.88 
" style="fill: none; stroke: #000000; stroke-width: 0.8; stroke-linejoin: miter; stroke-linecap: square"/>
   </g>
   <g id="patch_7">
    <path d="M 298.065 174.04 
L 515.56 174.04 
" style="fill: none; stroke: #000000; stroke-width: 0.8; stroke-linejoin: miter; stroke-linecap: square"/>
   </g>
   <g id="text_19">
    <!-- Node * third variable -->
    <g transform="translate(344.2325 20.88)scale(0.12 -0.12)">
     <defs>
      <path id="DejaVuSans-68" d="M 3513 2113 
L 3513 0 
L 2938 0 
L 2938 2094 
Q 2938 2591 2744 2837 
Q 2550 3084 2163 3084 
Q 1697 3084 1428 2787 
Q 1159 2491 1159 1978 
L 1159 0 
L 581 0 
L 581 4863 
L 1159 4863 
L 1159 2956 
Q 1366 3272 1645 3428 
Q 1925 3584 2291 3584 
Q 2894 3584 3203 3211 
Q 3513 2838 3513 2113 
z
" transform="scale(0.015625)"/>
      <path id="DejaVuSans-62" d="M 3116 1747 
Q 3116 2381 2855 2742 
Q 2594 3103 2138 3103 
Q 1681 3103 1420 2742 
Q 1159 2381 1159 1747 
Q 1159 1113 1420 752 
Q 1681 391 2138 391 
Q 2594 391 2855 752 
Q 3116 1113 3116 1747 
z
M 1159 2969 
Q 1341 3281 1617 3432 
Q 1894 3584 2278 3584 
Q 2916 3584 3314 3078 
Q 3713 2572 3713 1747 
Q 3713 922 3314 415 
Q 2916 -91 2278 -91 
Q 1894 -91 1617 61 
Q 1341 213 1159 525 
L 1159 0 
L 581 0 
L 581 4863 
L 1159 4863 
L 1159 2969 
z
" transform="scale(0.015625)"/>
     </defs>
     <use xlink:href="#DejaVuSans-4e"/>
     <use xlink:href="#DejaVuSans-6f" x="74.804688"/>
     <use xlink:href="#DejaVuSans-64" x="135.986328"/>
     <use xlink:href="#DejaVuSans-65" x="199.462891"/>
     <use xlink:href="#DejaVuSans-20" x="260.986328"/>
     <use xlink:href="#DejaVuSans-2a" x="292.773438"/>
     <use xlink:href="#DejaVuSans-20" x="342.773438"/>
     <use xlink:href="#DejaVuSans-74" x="374.560547"/>
     <use xlink:href="#DejaVuSans-68" x="413.769531"/>
     <use xlink:href="#DejaVuSans-69" x="477.148438"/>
     <use xlink:href="#DejaVuSans-72" x="504.931641"/>
     <use xlink:href="#DejaVuSans-64" x="544.294922"/>
     <use xlink:href="#DejaVuSans-20" x="607.771484"/>
     <use xlink:href="#DejaVuSans-76" x="639.558594"/>
     <use xlink:href="#DejaVuSans-61" x="698.738281"/>
     <use xlink:href="#DejaVuSans-72" x="760.017578"/>
     <use xlink:href="#DejaVuSans-69" x="801.130859"/>
     <use xlink:href="#DejaVuSans-61" x="828.914062"/>
     <use xlink:href="#DejaVuSans-62" x="890.193359"/>
     <use xlink:href="#DejaVuSans-6c" x="953.669922"/>
     <use xlink:href="#DejaVuSans-65" x="981.453125"/>
    </g>
   </g>
   <g id="legend_1">
    <g id="line2d_31">
     <path d="M 524.56 39.978437 
L 534.56 39.978437 
L 544.56 39.978437 
" style="fill: none; stroke: #1f77b4; stroke-width: 1.5; stroke-linecap: square"/>
    </g>
    <g id="text_20">
     <!-- Node -->
     <g transform="translate(552.56 43.478437)scale(0.1 -0.1)">
      <use xlink:href="#DejaVuSans-4e"/>
      <use xlink:href="#DejaVuSans-6f" x="74.804688"/>
      <use xlink:href="#DejaVuSans-64" x="135.986328"/>
      <use xlink:href="#DejaVuSans-65" x="199.462891"/>
     </g>
    </g>
    <g id="line2d_32">
     <path d="M 524.56 54.656563 
L 534.56 54.656563 
L 544.56 54.656563 
" style="fill: none; stroke: #ff7f0e; stroke-width: 1.5; stroke-linecap: square"/>
    </g>
    <g id="text_21">
     <!-- Node + surprisal -->
     <g transform="translate(552.56 58.156563)scale(0.1 -0.1)">
      <defs>
       <path id="DejaVuSans-2b" d="M 2944 4013 
L 2944 2272 
L 4684 2272 
L 4684 1741 
L 2944 1741 
L 2944 0 
L 2419 0 
L 2419 1741 
L 678 1741 
L 678 2272 
L 2419 2272 
L 2419 4013 
L 2944 4013 
z
" transform="scale(0.015625)"/>
      </defs>
      <use xlink:href="#DejaVuSans-4e"/>
      <use xlink:href="#DejaVuSans-6f" x="74.804688"/>
      <use xlink:href="#DejaVuSans-64" x="135.986328"/>
      <use xlink:href="#DejaVuSans-65" x="199.462891"/>
      <use xlink:href="#DejaVuSans-20" x="260.986328"/>
      <use xlink:href="#DejaVuSans-2b" x="292.773438"/>
      <use xlink:href="#DejaVuSans-20" x="376.5625"/>
      <use xlink:href="#DejaVuSans-73" x="408.349609"/>
      <use xlink:href="#DejaVuSans-75" x="460.449219"/>
      <use xlink:href="#DejaVuSans-72" x="523.828125"/>
      <use xlink:href="#DejaVuSans-70" x="564.941406"/>
      <use xlink:href="#DejaVuSans-72" x="628.417969"/>
      <use xlink:href="#DejaVuSans-69" x="669.53125"/>
      <use xlink:href="#DejaVuSans-73" x="697.314453"/>
      <use xlink:href="#DejaVuSans-61" x="749.414062"/>
      <use xlink:href="#DejaVuSans-6c" x="810.693359"/>
     </g>
    </g>
    <g id="line2d_33">
     <path d="M 524.56 69.334687 
L 534.56 69.334687 
L 544.56 69.334687 
" style="fill: none; stroke: #2ca02c; stroke-width: 1.5; stroke-linecap: square"/>
    </g>
    <g id="text_22">
     <!-- Node split -->
     <g transform="translate(552.56 72.834687)scale(0.1 -0.1)">
      <use xlink:href="#DejaVuSans-4e"/>
      <use xlink:href="#DejaVuSans-6f" x="74.804688"/>
      <use xlink:href="#DejaVuSans-64" x="135.986328"/>
      <use xlink:href="#DejaVuSans-65" x="199.462891"/>
      <use xlink:href="#DejaVuSans-20" x="260.986328"/>
      <use xlink:href="#DejaVuSans-73" x="292.773438"/>
      <use xlink:href="#DejaVuSans-70" x="344.873047"/>
      <use xlink:href="#DejaVuSans-6c" x="408.349609"/>
      <use xlink:href="#DejaVuSans-69" x="436.132812"/>
      <use xlink:href="#DejaVuSans-74" x="463.916016"/>
     </g>
    </g>
    <g id="line2d_34">
     <path d="M 524.56 84.012812 
L 534.56 84.012812 
L 544.56 84.012812 
" style="fill: none; stroke: #d62728; stroke-width: 1.5; stroke-linecap: square"/>
    </g>
    <g id="text_23">
     <!-- Node split + surprisal -->
     <g transform="translate(552.56 87.512812)scale(0.1 -0.1)">
      <use xlink:href="#DejaVuSans-4e"/>
      <use xlink:href="#DejaVuSans-6f" x="74.804688"/>
      <use xlink:href="#DejaVuSans-64" x="135.986328"/>
      <use xlink:href="#DejaVuSans-65" x="199.462891"/>
      <use xlink:href="#DejaVuSans-20" x="260.986328"/>
      <use xlink:href="#DejaVuSans-73" x="292.773438"/>
      <use xlink:href="#DejaVuSans-70" x="344.873047"/>
      <use xlink:href="#DejaVuSans-6c" x="408.349609"/>
      <use xlink:href="#DejaVuSans-69" x="436.132812"/>
      <use xlink:href="#DejaVuSans-74" x="463.916016"/>
      <use xlink:href="#DejaVuSans-20" x="503.125"/>
      <use xlink:href="#DejaVuSans-2b" x="534.912109"/>
      <use xlink:href="#DejaVuSans-20" x="618.701172"/>
      <use xlink:href="#DejaVuSans-73" x="650.488281"/>
      <use xlink:href="#DejaVuSans-75" x="702.587891"/>
      <use xlink:href="#DejaVuSans-72" x="765.966797"/>
      <use xlink:href="#DejaVuSans-70" x="807.080078"/>
      <use xlink:href="#DejaVuSans-72" x="870.556641"/>
      <use xlink:href="#DejaVuSans-69" x="911.669922"/>
      <use xlink:href="#DejaVuSans-73" x="939.453125"/>
      <use xlink:href="#DejaVuSans-61" x="991.552734"/>
      <use xlink:href="#DejaVuSans-6c" x="1052.832031"/>
     </g>
    </g>
    <g id="line2d_35">
     <path d="M 524.56 98.690937 
L 534.56 98.690937 
L 544.56 98.690937 
" style="fill: none; stroke: #9467bd; stroke-width: 1.5; stroke-linecap: square"/>
    </g>
    <g id="text_24">
     <!-- Node random split -->
     <g transform="translate(552.56 102.190937)scale(0.1 -0.1)">
      <use xlink:href="#DejaVuSans-4e"/>
      <use xlink:href="#DejaVuSans-6f" x="74.804688"/>
      <use xlink:href="#DejaVuSans-64" x="135.986328"/>
      <use xlink:href="#DejaVuSans-65" x="199.462891"/>
      <use xlink:href="#DejaVuSans-20" x="260.986328"/>
      <use xlink:href="#DejaVuSans-72" x="292.773438"/>
      <use xlink:href="#DejaVuSans-61" x="333.886719"/>
      <use xlink:href="#DejaVuSans-6e" x="395.166016"/>
      <use xlink:href="#DejaVuSans-64" x="458.544922"/>
      <use xlink:href="#DejaVuSans-6f" x="522.021484"/>
      <use xlink:href="#DejaVuSans-6d" x="583.203125"/>
      <use xlink:href="#DejaVuSans-20" x="680.615234"/>
      <use xlink:href="#DejaVuSans-73" x="712.402344"/>
      <use xlink:href="#DejaVuSans-70" x="764.501953"/>
      <use xlink:href="#DejaVuSans-6c" x="827.978516"/>
      <use xlink:href="#DejaVuSans-69" x="855.761719"/>
      <use xlink:href="#DejaVuSans-74" x="883.544922"/>
     </g>
    </g>
    <g id="line2d_36">
     <path d="M 524.56 113.369062 
L 534.56 113.369062 
L 544.56 113.369062 
" style="fill: none; stroke: #8c564b; stroke-width: 1.5; stroke-linecap: square"/>
    </g>
    <g id="text_25">
     <!-- Node random split + surprisal -->
     <g transform="translate(552.56 116.869062)scale(0.1 -0.1)">
      <use xlink:href="#DejaVuSans-4e"/>
      <use xlink:href="#DejaVuSans-6f" x="74.804688"/>
      <use xlink:href="#DejaVuSans-64" x="135.986328"/>
      <use xlink:href="#DejaVuSans-65" x="199.462891"/>
      <use xlink:href="#DejaVuSans-20" x="260.986328"/>
      <use xlink:href="#DejaVuSans-72" x="292.773438"/>
      <use xlink:href="#DejaVuSans-61" x="333.886719"/>
      <use xlink:href="#DejaVuSans-6e" x="395.166016"/>
      <use xlink:href="#DejaVuSans-64" x="458.544922"/>
      <use xlink:href="#DejaVuSans-6f" x="522.021484"/>
      <use xlink:href="#DejaVuSans-6d" x="583.203125"/>
      <use xlink:href="#DejaVuSans-20" x="680.615234"/>
      <use xlink:href="#DejaVuSans-73" x="712.402344"/>
      <use xlink:href="#DejaVuSans-70" x="764.501953"/>
      <use xlink:href="#DejaVuSans-6c" x="827.978516"/>
      <use xlink:href="#DejaVuSans-69" x="855.761719"/>
      <use xlink:href="#DejaVuSans-74" x="883.544922"/>
      <use xlink:href="#DejaVuSans-20" x="922.753906"/>
      <use xlink:href="#DejaVuSans-2b" x="954.541016"/>
      <use xlink:href="#DejaVuSans-20" x="1038.330078"/>
      <use xlink:href="#DejaVuSans-73" x="1070.117188"/>
      <use xlink:href="#DejaVuSans-75" x="1122.216797"/>
      <use xlink:href="#DejaVuSans-72" x="1185.595703"/>
      <use xlink:href="#DejaVuSans-70" x="1226.708984"/>
      <use xlink:href="#DejaVuSans-72" x="1290.185547"/>
      <use xlink:href="#DejaVuSans-69" x="1331.298828"/>
      <use xlink:href="#DejaVuSans-73" x="1359.082031"/>
      <use xlink:href="#DejaVuSans-61" x="1411.181641"/>
      <use xlink:href="#DejaVuSans-6c" x="1472.460938"/>
     </g>
    </g>
    <g id="line2d_37">
     <path d="M 524.56 128.047187 
L 534.56 128.047187 
L 544.56 128.047187 
" style="fill: none; stroke: #e377c2; stroke-width: 1.5; stroke-linecap: square"/>
    </g>
    <g id="text_26">
     <!-- Interaction -->
     <g transform="translate(552.56 131.547187)scale(0.1 -0.1)">
      <use xlink:href="#DejaVuSans-49"/>
      <use xlink:href="#DejaVuSans-6e" x="29.492188"/>
      <use xlink:href="#DejaVuSans-74" x="92.871094"/>
      <use xlink:href="#DejaVuSans-65" x="132.080078"/>
      <use xlink:href="#DejaVuSans-72" x="193.603516"/>
      <use xlink:href="#DejaVuSans-61" x="234.716797"/>
      <use xlink:href="#DejaVuSans-63" x="295.996094"/>
      <use xlink:href="#DejaVuSans-74" x="350.976562"/>
      <use xlink:href="#DejaVuSans-69" x="390.185547"/>
      <use xlink:href="#DejaVuSans-6f" x="417.96875"/>
      <use xlink:href="#DejaVuSans-6e" x="479.150391"/>
     </g>
    </g>
    <g id="line2d_38">
     <path d="M 524.56 142.725312 
L 534.56 142.725312 
L 544.56 142.725312 
" style="fill: none; stroke: #7f7f7f; stroke-width: 1.5; stroke-linecap: square"/>
    </g>
    <g id="text_27">
     <!-- Node + surprisal + interaction -->
     <g transform="translate(552.56 146.225312)scale(0.1 -0.1)">
      <use xlink:href="#DejaVuSans-4e"/>
      <use xlink:href="#DejaVuSans-6f" x="74.804688"/>
      <use xlink:href="#DejaVuSans-64" x="135.986328"/>
      <use xlink:href="#DejaVuSans-65" x="199.462891"/>
      <use xlink:href="#DejaVuSans-20" x="260.986328"/>
      <use xlink:href="#DejaVuSans-2b" x="292.773438"/>
      <use xlink:href="#DejaVuSans-20" x="376.5625"/>
      <use xlink:href="#DejaVuSans-73" x="408.349609"/>
      <use xlink:href="#DejaVuSans-75" x="460.449219"/>
      <use xlink:href="#DejaVuSans-72" x="523.828125"/>
      <use xlink:href="#DejaVuSans-70" x="564.941406"/>
      <use xlink:href="#DejaVuSans-72" x="628.417969"/>
      <use xlink:href="#DejaVuSans-69" x="669.53125"/>
      <use xlink:href="#DejaVuSans-73" x="697.314453"/>
      <use xlink:href="#DejaVuSans-61" x="749.414062"/>
      <use xlink:href="#DejaVuSans-6c" x="810.693359"/>
      <use xlink:href="#DejaVuSans-20" x="838.476562"/>
      <use xlink:href="#DejaVuSans-2b" x="870.263672"/>
      <use xlink:href="#DejaVuSans-20" x="954.052734"/>
      <use xlink:href="#DejaVuSans-69" x="985.839844"/>
      <use xlink:href="#DejaVuSans-6e" x="1013.623047"/>
      <use xlink:href="#DejaVuSans-74" x="1077.001953"/>
      <use xlink:href="#DejaVuSans-65" x="1116.210938"/>
      <use xlink:href="#DejaVuSans-72" x="1177.734375"/>
      <use xlink:href="#DejaVuSans-61" x="1218.847656"/>
      <use xlink:href="#DejaVuSans-63" x="1280.126953"/>
      <use xlink:href="#DejaVuSans-74" x="1335.107422"/>
      <use xlink:href="#DejaVuSans-69" x="1374.316406"/>
      <use xlink:href="#DejaVuSans-6f" x="1402.099609"/>
      <use xlink:href="#DejaVuSans-6e" x="1463.28125"/>
     </g>
    </g>
   </g>
  </g>
 </g>
 <defs>
  <clipPath id="pdfd8099547">
   <rect x="47.72" y="26.88" width="217.495" height="147.16"/>
  </clipPath>
  <clipPath id="p70d6f84fe8">
   <rect x="298.065" y="26.88" width="217.495" height="147.16"/>
  </clipPath>
 </defs>
</svg>
