<?xml version="1.0" encoding="utf-8" standalone="no"?>
<!DOCTYPE svg PUBLIC "-//W3C//DTD SVG 1.1//EN"
  "http://www.w3.org/Graphics/SVG/1.1/DTD/svg11.dtd">
<svg xmlns:xlink="http://www.w3.org/1999/xlink" width="720pt" height="216pt" viewBox="0 0 720 216" xmlns="http://www.w3.org/2000/svg" version="1.1">
 <metadata>
  <rdf:RDF xmlns:dc="http://purl.org/dc/elements/1.1/" xmlns:cc="http://creativecommons.org/ns#" xmlns:rdf="http://www.w3.org/1999/02/22-rdf-syntax-ns#">
   <cc:Work>
    <dc:type rdf:resource="http://purl.org/dc/dcmitype/StillImage"/>
    <dc:date>2024-01-16T01:39:33.959105</dc:date>
    <dc:format>image/svg+xml</dc:format>
    <dc:creator>
     <cc:Agent>
      <dc:title>Matplotlib v3.5.1, https://matplotlib.org/</dc:title>
     </cc:Agent>
    </dc:creator>
   </cc:Work>
  </rdf:RDF>
 </metadata>
 <defs>
  <style type="text/css">*{stroke-linejoin: round; stroke-linecap: butt}</style>
 </defs>
 <g id="figure_1">
  <g id="patch_1">
   <path d="M 0 216 
L 720 216 
L 720 0 
L 0 0 
z
" style="fill: #ffffff"/>
  </g>
  <g id="axes_1">
   <g id="patch_2">
    <path d="M 47.72 174.04 
L 265.215 174.04 
L 265.215 26.88 
L 47.72 26.88 
z
" style="fill: #ffffff"/>
   </g>
   <g id="PolyCollection_1">
    <path d="M 47.72 33.569091 
L 47.72 34.22086 
L 59.167105 36.605207 
L 70.614211 43.22511 
L 82.061316 52.308743 
L 93.508421 62.093855 
L 104.955526 72.890816 
L 116.402632 83.452758 
L 127.849737 91.145274 
L 139.296842 101.520691 
L 150.743947 108.18337 
L 162.191053 116.466503 
L 173.638158 122.393984 
L 185.085263 128.99584 
L 196.532368 134.135219 
L 207.979474 139.397913 
L 219.426579 143.200254 
L 230.873684 146.371722 
L 242.320789 149.380888 
L 253.767895 152.731321 
L 265.215 154.773298 
L 265.215 149.574066 
L 265.215 149.574066 
L 253.767895 146.558778 
L 242.320789 143.273267 
L 230.873684 139.649145 
L 219.426579 135.77795 
L 207.979474 131.456053 
L 196.532368 126.720223 
L 185.085263 120.839349 
L 173.638158 116.024937 
L 162.191053 108.603539 
L 150.743947 101.447232 
L 139.296842 92.890699 
L 127.849737 82.987366 
L 116.402632 73.621671 
L 104.955526 63.788055 
L 93.508421 55.353672 
L 82.061316 46.957589 
L 70.614211 40.69371 
L 59.167105 35.635349 
L 47.72 33.569091 
z
" clip-path="url(#p12b1d1df2c)" style="fill: #1f77b4; fill-opacity: 0.4"/>
   </g>
   <g id="PolyCollection_2">
    <path d="M 47.72 33.576502 
L 47.72 34.237221 
L 59.167105 35.621425 
L 70.614211 39.285463 
L 82.061316 44.683855 
L 93.508421 51.487261 
L 104.955526 59.580896 
L 116.402632 68.469195 
L 127.849737 76.149861 
L 139.296842 85.813303 
L 150.743947 92.991933 
L 162.191053 100.05297 
L 173.638158 107.243555 
L 185.085263 114.272552 
L 196.532368 119.687563 
L 207.979474 125.419429 
L 219.426579 130.408498 
L 230.873684 135.096784 
L 242.320789 139.003218 
L 253.767895 143.445223 
L 265.215 146.935586 
L 265.215 139.739754 
L 265.215 139.739754 
L 253.767895 136.961509 
L 242.320789 133.615824 
L 230.873684 129.383108 
L 219.426579 125.292999 
L 207.979474 120.619918 
L 196.532368 114.702493 
L 185.085263 107.622149 
L 173.638158 101.333756 
L 162.191053 93.829663 
L 150.743947 85.101898 
L 139.296842 77.004285 
L 127.849737 68.099399 
L 116.402632 60.842373 
L 104.955526 53.392896 
L 93.508421 47.103141 
L 82.061316 41.463577 
L 70.614211 37.764623 
L 59.167105 35.094461 
L 47.72 33.576502 
z
" clip-path="url(#p12b1d1df2c)" style="fill: #ff7f0e; fill-opacity: 0.4"/>
   </g>
   <g id="PolyCollection_3">
    <path d="M 47.72 33.594386 
L 47.72 34.232349 
L 59.167105 36.068836 
L 70.614211 39.550294 
L 82.061316 43.86392 
L 93.508421 48.5957 
L 104.955526 53.470182 
L 116.402632 58.87599 
L 127.849737 63.232388 
L 139.296842 68.378542 
L 150.743947 72.867212 
L 162.191053 77.404127 
L 173.638158 81.946077 
L 185.085263 85.2234 
L 196.532368 89.621036 
L 207.979474 94.100481 
L 219.426579 97.901289 
L 230.873684 102.301066 
L 242.320789 105.532601 
L 253.767895 109.87154 
L 265.215 113.452477 
L 265.215 105.679852 
L 265.215 105.679852 
L 253.767895 101.724206 
L 242.320789 98.614381 
L 230.873684 94.879344 
L 219.426579 91.08646 
L 207.979474 87.093264 
L 196.532368 83.309536 
L 185.085263 79.237415 
L 173.638158 75.067292 
L 162.191053 70.27971 
L 150.743947 65.073839 
L 139.296842 60.503939 
L 127.849737 55.176519 
L 116.402632 51.021195 
L 104.955526 46.818559 
L 93.508421 43.487897 
L 82.061316 39.7347 
L 70.614211 37.213624 
L 59.167105 35.283522 
L 47.72 33.594386 
z
" clip-path="url(#p12b1d1df2c)" style="fill: #2ca02c; fill-opacity: 0.4"/>
   </g>
   <g id="PolyCollection_4">
    <path d="M 47.72 33.597788 
L 47.72 34.25191 
L 59.167105 35.592002 
L 70.614211 38.221577 
L 82.061316 41.77177 
L 93.508421 45.955342 
L 104.955526 50.485591 
L 116.402632 55.79706 
L 127.849737 60.282421 
L 139.296842 65.900787 
L 150.743947 70.565512 
L 162.191053 75.275452 
L 173.638158 80.062779 
L 185.085263 83.351496 
L 196.532368 87.707012 
L 207.979474 92.101764 
L 219.426579 95.606267 
L 230.873684 99.980339 
L 242.320789 102.941218 
L 253.767895 107.219124 
L 265.215 110.366536 
L 265.215 103.680102 
L 265.215 103.680102 
L 253.767895 99.924967 
L 242.320789 96.986079 
L 230.873684 93.390805 
L 219.426579 89.788941 
L 207.979474 85.903026 
L 196.532368 82.176052 
L 185.085263 78.003009 
L 173.638158 73.845513 
L 162.191053 69.010247 
L 150.743947 63.580764 
L 139.296842 58.851566 
L 127.849737 53.58113 
L 116.402632 49.386932 
L 104.955526 45.349543 
L 93.508421 42.000088 
L 82.061316 38.606967 
L 70.614211 36.603727 
L 59.167105 35.05148 
L 47.72 33.597788 
z
" clip-path="url(#p12b1d1df2c)" style="fill: #d62728; fill-opacity: 0.4"/>
   </g>
   <g id="PolyCollection_5">
    <path d="M 47.72 33.585306 
L 47.72 34.234466 
L 59.167105 36.611138 
L 70.614211 43.265831 
L 82.061316 52.365554 
L 93.508421 62.163841 
L 104.955526 72.872971 
L 116.402632 83.745905 
L 127.849737 91.309108 
L 139.296842 101.801453 
L 150.743947 108.492033 
L 162.191053 116.540359 
L 173.638158 122.682368 
L 185.085263 130.095639 
L 196.532368 134.030223 
L 207.979474 140.228327 
L 219.426579 143.605194 
L 230.873684 146.98071 
L 242.320789 149.443397 
L 253.767895 152.732237 
L 265.215 155.408484 
L 265.215 149.771726 
L 265.215 149.771726 
L 253.767895 147.061491 
L 242.320789 143.073106 
L 230.873684 140.066057 
L 219.426579 137.191498 
L 207.979474 131.626466 
L 196.532368 127.22025 
L 185.085263 121.706764 
L 173.638158 116.099842 
L 162.191053 109.069553 
L 150.743947 101.819274 
L 139.296842 92.955933 
L 127.849737 83.702138 
L 116.402632 73.974256 
L 104.955526 63.807874 
L 93.508421 55.327001 
L 82.061316 46.922085 
L 70.614211 40.755824 
L 59.167105 35.640075 
L 47.72 33.585306 
z
" clip-path="url(#p12b1d1df2c)" style="fill: #9467bd; fill-opacity: 0.4"/>
   </g>
   <g id="PolyCollection_6">
    <path d="M 47.72 33.59302 
L 47.72 34.251307 
L 59.167105 35.632324 
L 70.614211 39.321989 
L 82.061316 44.708276 
L 93.508421 51.493151 
L 104.955526 59.642916 
L 116.402632 68.710364 
L 127.849737 76.333627 
L 139.296842 85.950044 
L 150.743947 93.053166 
L 162.191053 100.150809 
L 173.638158 107.517572 
L 185.085263 114.816086 
L 196.532368 119.907813 
L 207.979474 125.773724 
L 219.426579 131.069317 
L 230.873684 135.338437 
L 242.320789 139.399924 
L 253.767895 143.868111 
L 265.215 147.533248 
L 265.215 139.556928 
L 265.215 139.556928 
L 253.767895 137.004561 
L 242.320789 133.370546 
L 230.873684 129.916076 
L 219.426579 125.971966 
L 207.979474 121.121808 
L 196.532368 114.822645 
L 185.085263 108.385985 
L 173.638158 101.437604 
L 162.191053 94.090906 
L 150.743947 85.367895 
L 139.296842 77.152619 
L 127.849737 68.530421 
L 116.402632 60.981105 
L 104.955526 53.384748 
L 93.508421 47.115055 
L 82.061316 41.475984 
L 70.614211 37.794036 
L 59.167105 35.099139 
L 47.72 33.59302 
z
" clip-path="url(#p12b1d1df2c)" style="fill: #8c564b; fill-opacity: 0.4"/>
   </g>
   <g id="PolyCollection_7">
    <path d="M 47.72 44.52242 
L 47.72 48.488224 
L 59.167105 53.088929 
L 70.614211 61.760223 
L 82.061316 73.232976 
L 93.508421 84.766511 
L 104.955526 96.347203 
L 116.402632 107.611356 
L 127.849737 115.865609 
L 139.296842 124.691082 
L 150.743947 130.797206 
L 162.191053 137.139901 
L 173.638158 142.145535 
L 185.085263 146.7282 
L 196.532368 151.519141 
L 207.979474 155.105699 
L 219.426579 158.210884 
L 230.873684 160.487093 
L 242.320789 163.071146 
L 253.767895 165.635276 
L 265.215 167.350909 
L 265.215 161.016235 
L 265.215 161.016235 
L 253.767895 158.991459 
L 242.320789 156.132859 
L 230.873684 153.177566 
L 219.426579 149.944629 
L 207.979474 146.415425 
L 196.532368 142.594703 
L 185.085263 137.528502 
L 173.638158 132.685252 
L 162.191053 125.283342 
L 150.743947 117.588953 
L 139.296842 108.264267 
L 127.849737 98.054919 
L 116.402632 88.382854 
L 104.955526 78.457318 
L 93.508421 68.959134 
L 82.061316 59.489155 
L 70.614211 51.665672 
L 59.167105 46.220177 
L 47.72 44.52242 
z
" clip-path="url(#p12b1d1df2c)" style="fill: #e377c2; fill-opacity: 0.4"/>
   </g>
   <g id="PolyCollection_8">
    <path d="M 47.72 33.585531 
L 47.72 34.258381 
L 59.167105 34.978335 
L 70.614211 36.468937 
L 82.061316 40.210454 
L 93.508421 46.320636 
L 104.955526 52.942899 
L 116.402632 60.861251 
L 127.849737 68.371634 
L 139.296842 77.468415 
L 150.743947 85.022151 
L 162.191053 92.408774 
L 173.638158 99.528603 
L 185.085263 106.093159 
L 196.532368 112.533129 
L 207.979474 118.821931 
L 219.426579 124.128568 
L 230.873684 129.115862 
L 242.320789 133.519498 
L 253.767895 138.572991 
L 265.215 142.417946 
L 265.215 132.175162 
L 265.215 132.175162 
L 253.767895 128.890135 
L 242.320789 125.068139 
L 230.873684 120.500007 
L 219.426579 115.625542 
L 207.979474 110.211211 
L 196.532368 103.947949 
L 185.085263 96.947233 
L 173.638158 89.377906 
L 162.191053 80.998299 
L 150.743947 71.462552 
L 139.296842 63.569766 
L 127.849737 55.306354 
L 116.402632 48.866837 
L 104.955526 42.330519 
L 93.508421 38.048103 
L 82.061316 35.385075 
L 70.614211 34.842303 
L 59.167105 34.460322 
L 47.72 33.585531 
z
" clip-path="url(#p12b1d1df2c)" style="fill: #7f7f7f; fill-opacity: 0.4"/>
   </g>
   <g id="matplotlib.axis_1">
    <g id="xtick_1">
     <g id="line2d_1">
      <defs>
       <path id="m8633f1c5eb" d="M 0 0 
L 0 3.5 
" style="stroke: #000000; stroke-width: 0.8"/>
      </defs>
      <g>
       <use xlink:href="#m8633f1c5eb" x="47.72" y="174.04" style="stroke: #000000; stroke-width: 0.8"/>
      </g>
     </g>
     <g id="text_1">
      <!-- 0.0 -->
      <g transform="translate(39.768438 188.638438)scale(0.1 -0.1)">
       <defs>
        <path id="DejaVuSans-30" d="M 2034 4250 
Q 1547 4250 1301 3770 
Q 1056 3291 1056 2328 
Q 1056 1369 1301 889 
Q 1547 409 2034 409 
Q 2525 409 2770 889 
Q 3016 1369 3016 2328 
Q 3016 3291 2770 3770 
Q 2525 4250 2034 4250 
z
M 2034 4750 
Q 2819 4750 3233 4129 
Q 3647 3509 3647 2328 
Q 3647 1150 3233 529 
Q 2819 -91 2034 -91 
Q 1250 -91 836 529 
Q 422 1150 422 2328 
Q 422 3509 836 4129 
Q 1250 4750 2034 4750 
z
" transform="scale(0.015625)"/>
        <path id="DejaVuSans-2e" d="M 684 794 
L 1344 794 
L 1344 0 
L 684 0 
L 684 794 
z
" transform="scale(0.015625)"/>
       </defs>
       <use xlink:href="#DejaVuSans-30"/>
       <use xlink:href="#DejaVuSans-2e" x="63.623047"/>
       <use xlink:href="#DejaVuSans-30" x="95.410156"/>
      </g>
     </g>
    </g>
    <g id="xtick_2">
     <g id="line2d_2">
      <g>
       <use xlink:href="#m8633f1c5eb" x="102.09375" y="174.04" style="stroke: #000000; stroke-width: 0.8"/>
      </g>
     </g>
     <g id="text_2">
      <!-- 0.5 -->
      <g transform="translate(94.142188 188.638438)scale(0.1 -0.1)">
       <defs>
        <path id="DejaVuSans-35" d="M 691 4666 
L 3169 4666 
L 3169 4134 
L 1269 4134 
L 1269 2991 
Q 1406 3038 1543 3061 
Q 1681 3084 1819 3084 
Q 2600 3084 3056 2656 
Q 3513 2228 3513 1497 
Q 3513 744 3044 326 
Q 2575 -91 1722 -91 
Q 1428 -91 1123 -41 
Q 819 9 494 109 
L 494 744 
Q 775 591 1075 516 
Q 1375 441 1709 441 
Q 2250 441 2565 725 
Q 2881 1009 2881 1497 
Q 2881 1984 2565 2268 
Q 2250 2553 1709 2553 
Q 1456 2553 1204 2497 
Q 953 2441 691 2322 
L 691 4666 
z
" transform="scale(0.015625)"/>
       </defs>
       <use xlink:href="#DejaVuSans-30"/>
       <use xlink:href="#DejaVuSans-2e" x="63.623047"/>
       <use xlink:href="#DejaVuSans-35" x="95.410156"/>
      </g>
     </g>
    </g>
    <g id="xtick_3">
     <g id="line2d_3">
      <g>
       <use xlink:href="#m8633f1c5eb" x="156.4675" y="174.04" style="stroke: #000000; stroke-width: 0.8"/>
      </g>
     </g>
     <g id="text_3">
      <!-- 1.0 -->
      <g transform="translate(148.515938 188.638438)scale(0.1 -0.1)">
       <defs>
        <path id="DejaVuSans-31" d="M 794 531 
L 1825 531 
L 1825 4091 
L 703 3866 
L 703 4441 
L 1819 4666 
L 2450 4666 
L 2450 531 
L 3481 531 
L 3481 0 
L 794 0 
L 794 531 
z
" transform="scale(0.015625)"/>
       </defs>
       <use xlink:href="#DejaVuSans-31"/>
       <use xlink:href="#DejaVuSans-2e" x="63.623047"/>
       <use xlink:href="#DejaVuSans-30" x="95.410156"/>
      </g>
     </g>
    </g>
    <g id="xtick_4">
     <g id="line2d_4">
      <g>
       <use xlink:href="#m8633f1c5eb" x="210.84125" y="174.04" style="stroke: #000000; stroke-width: 0.8"/>
      </g>
     </g>
     <g id="text_4">
      <!-- 1.5 -->
      <g transform="translate(202.889687 188.638438)scale(0.1 -0.1)">
       <use xlink:href="#DejaVuSans-31"/>
       <use xlink:href="#DejaVuSans-2e" x="63.623047"/>
       <use xlink:href="#DejaVuSans-35" x="95.410156"/>
      </g>
     </g>
    </g>
    <g id="xtick_5">
     <g id="line2d_5">
      <g>
       <use xlink:href="#m8633f1c5eb" x="265.215" y="174.04" style="stroke: #000000; stroke-width: 0.8"/>
      </g>
     </g>
     <g id="text_5">
      <!-- 2.0 -->
      <g transform="translate(257.263437 188.638438)scale(0.1 -0.1)">
       <defs>
        <path id="DejaVuSans-32" d="M 1228 531 
L 3431 531 
L 3431 0 
L 469 0 
L 469 531 
Q 828 903 1448 1529 
Q 2069 2156 2228 2338 
Q 2531 2678 2651 2914 
Q 2772 3150 2772 3378 
Q 2772 3750 2511 3984 
Q 2250 4219 1831 4219 
Q 1534 4219 1204 4116 
Q 875 4013 500 3803 
L 500 4441 
Q 881 4594 1212 4672 
Q 1544 4750 1819 4750 
Q 2544 4750 2975 4387 
Q 3406 4025 3406 3419 
Q 3406 3131 3298 2873 
Q 3191 2616 2906 2266 
Q 2828 2175 2409 1742 
Q 1991 1309 1228 531 
z
" transform="scale(0.015625)"/>
       </defs>
       <use xlink:href="#DejaVuSans-32"/>
       <use xlink:href="#DejaVuSans-2e" x="63.623047"/>
       <use xlink:href="#DejaVuSans-30" x="95.410156"/>
      </g>
     </g>
    </g>
    <g id="text_6">
     <!-- Influence of surprisal (multiplication) -->
     <g transform="translate(64.320625 202.316563)scale(0.1 -0.1)">
      <defs>
       <path id="DejaVuSans-49" d="M 628 4666 
L 1259 4666 
L 1259 0 
L 628 0 
L 628 4666 
z
" transform="scale(0.015625)"/>
       <path id="DejaVuSans-6e" d="M 3513 2113 
L 3513 0 
L 2938 0 
L 2938 2094 
Q 2938 2591 2744 2837 
Q 2550 3084 2163 3084 
Q 1697 3084 1428 2787 
Q 1159 2491 1159 1978 
L 1159 0 
L 581 0 
L 581 3500 
L 1159 3500 
L 1159 2956 
Q 1366 3272 1645 3428 
Q 1925 3584 2291 3584 
Q 2894 3584 3203 3211 
Q 3513 2838 3513 2113 
z
" transform="scale(0.015625)"/>
       <path id="DejaVuSans-66" d="M 2375 4863 
L 2375 4384 
L 1825 4384 
Q 1516 4384 1395 4259 
Q 1275 4134 1275 3809 
L 1275 3500 
L 2222 3500 
L 2222 3053 
L 1275 3053 
L 1275 0 
L 697 0 
L 697 3053 
L 147 3053 
L 147 3500 
L 697 3500 
L 697 3744 
Q 697 4328 969 4595 
Q 1241 4863 1831 4863 
L 2375 4863 
z
" transform="scale(0.015625)"/>
       <path id="DejaVuSans-6c" d="M 603 4863 
L 1178 4863 
L 1178 0 
L 603 0 
L 603 4863 
z
" transform="scale(0.015625)"/>
       <path id="DejaVuSans-75" d="M 544 1381 
L 544 3500 
L 1119 3500 
L 1119 1403 
Q 1119 906 1312 657 
Q 1506 409 1894 409 
Q 2359 409 2629 706 
Q 2900 1003 2900 1516 
L 2900 3500 
L 3475 3500 
L 3475 0 
L 2900 0 
L 2900 538 
Q 2691 219 2414 64 
Q 2138 -91 1772 -91 
Q 1169 -91 856 284 
Q 544 659 544 1381 
z
M 1991 3584 
L 1991 3584 
z
" transform="scale(0.015625)"/>
       <path id="DejaVuSans-65" d="M 3597 1894 
L 3597 1613 
L 953 1613 
Q 991 1019 1311 708 
Q 1631 397 2203 397 
Q 2534 397 2845 478 
Q 3156 559 3463 722 
L 3463 178 
Q 3153 47 2828 -22 
Q 2503 -91 2169 -91 
Q 1331 -91 842 396 
Q 353 884 353 1716 
Q 353 2575 817 3079 
Q 1281 3584 2069 3584 
Q 2775 3584 3186 3129 
Q 3597 2675 3597 1894 
z
M 3022 2063 
Q 3016 2534 2758 2815 
Q 2500 3097 2075 3097 
Q 1594 3097 1305 2825 
Q 1016 2553 972 2059 
L 3022 2063 
z
" transform="scale(0.015625)"/>
       <path id="DejaVuSans-63" d="M 3122 3366 
L 3122 2828 
Q 2878 2963 2633 3030 
Q 2388 3097 2138 3097 
Q 1578 3097 1268 2742 
Q 959 2388 959 1747 
Q 959 1106 1268 751 
Q 1578 397 2138 397 
Q 2388 397 2633 464 
Q 2878 531 3122 666 
L 3122 134 
Q 2881 22 2623 -34 
Q 2366 -91 2075 -91 
Q 1284 -91 818 406 
Q 353 903 353 1747 
Q 353 2603 823 3093 
Q 1294 3584 2113 3584 
Q 2378 3584 2631 3529 
Q 2884 3475 3122 3366 
z
" transform="scale(0.015625)"/>
       <path id="DejaVuSans-20" transform="scale(0.015625)"/>
       <path id="DejaVuSans-6f" d="M 1959 3097 
Q 1497 3097 1228 2736 
Q 959 2375 959 1747 
Q 959 1119 1226 758 
Q 1494 397 1959 397 
Q 2419 397 2687 759 
Q 2956 1122 2956 1747 
Q 2956 2369 2687 2733 
Q 2419 3097 1959 3097 
z
M 1959 3584 
Q 2709 3584 3137 3096 
Q 3566 2609 3566 1747 
Q 3566 888 3137 398 
Q 2709 -91 1959 -91 
Q 1206 -91 779 398 
Q 353 888 353 1747 
Q 353 2609 779 3096 
Q 1206 3584 1959 3584 
z
" transform="scale(0.015625)"/>
       <path id="DejaVuSans-73" d="M 2834 3397 
L 2834 2853 
Q 2591 2978 2328 3040 
Q 2066 3103 1784 3103 
Q 1356 3103 1142 2972 
Q 928 2841 928 2578 
Q 928 2378 1081 2264 
Q 1234 2150 1697 2047 
L 1894 2003 
Q 2506 1872 2764 1633 
Q 3022 1394 3022 966 
Q 3022 478 2636 193 
Q 2250 -91 1575 -91 
Q 1294 -91 989 -36 
Q 684 19 347 128 
L 347 722 
Q 666 556 975 473 
Q 1284 391 1588 391 
Q 1994 391 2212 530 
Q 2431 669 2431 922 
Q 2431 1156 2273 1281 
Q 2116 1406 1581 1522 
L 1381 1569 
Q 847 1681 609 1914 
Q 372 2147 372 2553 
Q 372 3047 722 3315 
Q 1072 3584 1716 3584 
Q 2034 3584 2315 3537 
Q 2597 3491 2834 3397 
z
" transform="scale(0.015625)"/>
       <path id="DejaVuSans-72" d="M 2631 2963 
Q 2534 3019 2420 3045 
Q 2306 3072 2169 3072 
Q 1681 3072 1420 2755 
Q 1159 2438 1159 1844 
L 1159 0 
L 581 0 
L 581 3500 
L 1159 3500 
L 1159 2956 
Q 1341 3275 1631 3429 
Q 1922 3584 2338 3584 
Q 2397 3584 2469 3576 
Q 2541 3569 2628 3553 
L 2631 2963 
z
" transform="scale(0.015625)"/>
       <path id="DejaVuSans-70" d="M 1159 525 
L 1159 -1331 
L 581 -1331 
L 581 3500 
L 1159 3500 
L 1159 2969 
Q 1341 3281 1617 3432 
Q 1894 3584 2278 3584 
Q 2916 3584 3314 3078 
Q 3713 2572 3713 1747 
Q 3713 922 3314 415 
Q 2916 -91 2278 -91 
Q 1894 -91 1617 61 
Q 1341 213 1159 525 
z
M 3116 1747 
Q 3116 2381 2855 2742 
Q 2594 3103 2138 3103 
Q 1681 3103 1420 2742 
Q 1159 2381 1159 1747 
Q 1159 1113 1420 752 
Q 1681 391 2138 391 
Q 2594 391 2855 752 
Q 3116 1113 3116 1747 
z
" transform="scale(0.015625)"/>
       <path id="DejaVuSans-69" d="M 603 3500 
L 1178 3500 
L 1178 0 
L 603 0 
L 603 3500 
z
M 603 4863 
L 1178 4863 
L 1178 4134 
L 603 4134 
L 603 4863 
z
" transform="scale(0.015625)"/>
       <path id="DejaVuSans-61" d="M 2194 1759 
Q 1497 1759 1228 1600 
Q 959 1441 959 1056 
Q 959 750 1161 570 
Q 1363 391 1709 391 
Q 2188 391 2477 730 
Q 2766 1069 2766 1631 
L 2766 1759 
L 2194 1759 
z
M 3341 1997 
L 3341 0 
L 2766 0 
L 2766 531 
Q 2569 213 2275 61 
Q 1981 -91 1556 -91 
Q 1019 -91 701 211 
Q 384 513 384 1019 
Q 384 1609 779 1909 
Q 1175 2209 1959 2209 
L 2766 2209 
L 2766 2266 
Q 2766 2663 2505 2880 
Q 2244 3097 1772 3097 
Q 1472 3097 1187 3025 
Q 903 2953 641 2809 
L 641 3341 
Q 956 3463 1253 3523 
Q 1550 3584 1831 3584 
Q 2591 3584 2966 3190 
Q 3341 2797 3341 1997 
z
" transform="scale(0.015625)"/>
       <path id="DejaVuSans-28" d="M 1984 4856 
Q 1566 4138 1362 3434 
Q 1159 2731 1159 2009 
Q 1159 1288 1364 580 
Q 1569 -128 1984 -844 
L 1484 -844 
Q 1016 -109 783 600 
Q 550 1309 550 2009 
Q 550 2706 781 3412 
Q 1013 4119 1484 4856 
L 1984 4856 
z
" transform="scale(0.015625)"/>
       <path id="DejaVuSans-6d" d="M 3328 2828 
Q 3544 3216 3844 3400 
Q 4144 3584 4550 3584 
Q 5097 3584 5394 3201 
Q 5691 2819 5691 2113 
L 5691 0 
L 5113 0 
L 5113 2094 
Q 5113 2597 4934 2840 
Q 4756 3084 4391 3084 
Q 3944 3084 3684 2787 
Q 3425 2491 3425 1978 
L 3425 0 
L 2847 0 
L 2847 2094 
Q 2847 2600 2669 2842 
Q 2491 3084 2119 3084 
Q 1678 3084 1418 2786 
Q 1159 2488 1159 1978 
L 1159 0 
L 581 0 
L 581 3500 
L 1159 3500 
L 1159 2956 
Q 1356 3278 1631 3431 
Q 1906 3584 2284 3584 
Q 2666 3584 2933 3390 
Q 3200 3197 3328 2828 
z
" transform="scale(0.015625)"/>
       <path id="DejaVuSans-74" d="M 1172 4494 
L 1172 3500 
L 2356 3500 
L 2356 3053 
L 1172 3053 
L 1172 1153 
Q 1172 725 1289 603 
Q 1406 481 1766 481 
L 2356 481 
L 2356 0 
L 1766 0 
Q 1100 0 847 248 
Q 594 497 594 1153 
L 594 3053 
L 172 3053 
L 172 3500 
L 594 3500 
L 594 4494 
L 1172 4494 
z
" transform="scale(0.015625)"/>
       <path id="DejaVuSans-29" d="M 513 4856 
L 1013 4856 
Q 1481 4119 1714 3412 
Q 1947 2706 1947 2009 
Q 1947 1309 1714 600 
Q 1481 -109 1013 -844 
L 513 -844 
Q 928 -128 1133 580 
Q 1338 1288 1338 2009 
Q 1338 2731 1133 3434 
Q 928 4138 513 4856 
z
" transform="scale(0.015625)"/>
      </defs>
      <use xlink:href="#DejaVuSans-49"/>
      <use xlink:href="#DejaVuSans-6e" x="29.492188"/>
      <use xlink:href="#DejaVuSans-66" x="92.871094"/>
      <use xlink:href="#DejaVuSans-6c" x="128.076172"/>
      <use xlink:href="#DejaVuSans-75" x="155.859375"/>
      <use xlink:href="#DejaVuSans-65" x="219.238281"/>
      <use xlink:href="#DejaVuSans-6e" x="280.761719"/>
      <use xlink:href="#DejaVuSans-63" x="344.140625"/>
      <use xlink:href="#DejaVuSans-65" x="399.121094"/>
      <use xlink:href="#DejaVuSans-20" x="460.644531"/>
      <use xlink:href="#DejaVuSans-6f" x="492.431641"/>
      <use xlink:href="#DejaVuSans-66" x="553.613281"/>
      <use xlink:href="#DejaVuSans-20" x="588.818359"/>
      <use xlink:href="#DejaVuSans-73" x="620.605469"/>
      <use xlink:href="#DejaVuSans-75" x="672.705078"/>
      <use xlink:href="#DejaVuSans-72" x="736.083984"/>
      <use xlink:href="#DejaVuSans-70" x="777.197266"/>
      <use xlink:href="#DejaVuSans-72" x="840.673828"/>
      <use xlink:href="#DejaVuSans-69" x="881.787109"/>
      <use xlink:href="#DejaVuSans-73" x="909.570312"/>
      <use xlink:href="#DejaVuSans-61" x="961.669922"/>
      <use xlink:href="#DejaVuSans-6c" x="1022.949219"/>
      <use xlink:href="#DejaVuSans-20" x="1050.732422"/>
      <use xlink:href="#DejaVuSans-28" x="1082.519531"/>
      <use xlink:href="#DejaVuSans-6d" x="1121.533203"/>
      <use xlink:href="#DejaVuSans-75" x="1218.945312"/>
      <use xlink:href="#DejaVuSans-6c" x="1282.324219"/>
      <use xlink:href="#DejaVuSans-74" x="1310.107422"/>
      <use xlink:href="#DejaVuSans-69" x="1349.316406"/>
      <use xlink:href="#DejaVuSans-70" x="1377.099609"/>
      <use xlink:href="#DejaVuSans-6c" x="1440.576172"/>
      <use xlink:href="#DejaVuSans-69" x="1468.359375"/>
      <use xlink:href="#DejaVuSans-63" x="1496.142578"/>
      <use xlink:href="#DejaVuSans-61" x="1551.123047"/>
      <use xlink:href="#DejaVuSans-74" x="1612.402344"/>
      <use xlink:href="#DejaVuSans-69" x="1651.611328"/>
      <use xlink:href="#DejaVuSans-6f" x="1679.394531"/>
      <use xlink:href="#DejaVuSans-6e" x="1740.576172"/>
      <use xlink:href="#DejaVuSans-29" x="1803.955078"/>
     </g>
    </g>
   </g>
   <g id="matplotlib.axis_2">
    <g id="ytick_1">
     <g id="line2d_6">
      <defs>
       <path id="md400f608c8" d="M 0 0 
L -3.5 0 
" style="stroke: #000000; stroke-width: 0.8"/>
      </defs>
      <g>
       <use xlink:href="#md400f608c8" x="47.72" y="152.729057" style="stroke: #000000; stroke-width: 0.8"/>
      </g>
     </g>
     <g id="text_7">
      <!-- 0.2 -->
      <g transform="translate(24.816875 156.528275)scale(0.1 -0.1)">
       <use xlink:href="#DejaVuSans-30"/>
       <use xlink:href="#DejaVuSans-2e" x="63.623047"/>
       <use xlink:href="#DejaVuSans-32" x="95.410156"/>
      </g>
     </g>
    </g>
    <g id="ytick_2">
     <g id="line2d_7">
      <g>
       <use xlink:href="#md400f608c8" x="47.72" y="120.92071" style="stroke: #000000; stroke-width: 0.8"/>
      </g>
     </g>
     <g id="text_8">
      <!-- 0.4 -->
      <g transform="translate(24.816875 124.719928)scale(0.1 -0.1)">
       <defs>
        <path id="DejaVuSans-34" d="M 2419 4116 
L 825 1625 
L 2419 1625 
L 2419 4116 
z
M 2253 4666 
L 3047 4666 
L 3047 1625 
L 3713 1625 
L 3713 1100 
L 3047 1100 
L 3047 0 
L 2419 0 
L 2419 1100 
L 313 1100 
L 313 1709 
L 2253 4666 
z
" transform="scale(0.015625)"/>
       </defs>
       <use xlink:href="#DejaVuSans-30"/>
       <use xlink:href="#DejaVuSans-2e" x="63.623047"/>
       <use xlink:href="#DejaVuSans-34" x="95.410156"/>
      </g>
     </g>
    </g>
    <g id="ytick_3">
     <g id="line2d_8">
      <g>
       <use xlink:href="#md400f608c8" x="47.72" y="89.112363" style="stroke: #000000; stroke-width: 0.8"/>
      </g>
     </g>
     <g id="text_9">
      <!-- 0.6 -->
      <g transform="translate(24.816875 92.911582)scale(0.1 -0.1)">
       <defs>
        <path id="DejaVuSans-36" d="M 2113 2584 
Q 1688 2584 1439 2293 
Q 1191 2003 1191 1497 
Q 1191 994 1439 701 
Q 1688 409 2113 409 
Q 2538 409 2786 701 
Q 3034 994 3034 1497 
Q 3034 2003 2786 2293 
Q 2538 2584 2113 2584 
z
M 3366 4563 
L 3366 3988 
Q 3128 4100 2886 4159 
Q 2644 4219 2406 4219 
Q 1781 4219 1451 3797 
Q 1122 3375 1075 2522 
Q 1259 2794 1537 2939 
Q 1816 3084 2150 3084 
Q 2853 3084 3261 2657 
Q 3669 2231 3669 1497 
Q 3669 778 3244 343 
Q 2819 -91 2113 -91 
Q 1303 -91 875 529 
Q 447 1150 447 2328 
Q 447 3434 972 4092 
Q 1497 4750 2381 4750 
Q 2619 4750 2861 4703 
Q 3103 4656 3366 4563 
z
" transform="scale(0.015625)"/>
       </defs>
       <use xlink:href="#DejaVuSans-30"/>
       <use xlink:href="#DejaVuSans-2e" x="63.623047"/>
       <use xlink:href="#DejaVuSans-36" x="95.410156"/>
      </g>
     </g>
    </g>
    <g id="ytick_4">
     <g id="line2d_9">
      <g>
       <use xlink:href="#md400f608c8" x="47.72" y="57.304016" style="stroke: #000000; stroke-width: 0.8"/>
      </g>
     </g>
     <g id="text_10">
      <!-- 0.8 -->
      <g transform="translate(24.816875 61.103235)scale(0.1 -0.1)">
       <defs>
        <path id="DejaVuSans-38" d="M 2034 2216 
Q 1584 2216 1326 1975 
Q 1069 1734 1069 1313 
Q 1069 891 1326 650 
Q 1584 409 2034 409 
Q 2484 409 2743 651 
Q 3003 894 3003 1313 
Q 3003 1734 2745 1975 
Q 2488 2216 2034 2216 
z
M 1403 2484 
Q 997 2584 770 2862 
Q 544 3141 544 3541 
Q 544 4100 942 4425 
Q 1341 4750 2034 4750 
Q 2731 4750 3128 4425 
Q 3525 4100 3525 3541 
Q 3525 3141 3298 2862 
Q 3072 2584 2669 2484 
Q 3125 2378 3379 2068 
Q 3634 1759 3634 1313 
Q 3634 634 3220 271 
Q 2806 -91 2034 -91 
Q 1263 -91 848 271 
Q 434 634 434 1313 
Q 434 1759 690 2068 
Q 947 2378 1403 2484 
z
M 1172 3481 
Q 1172 3119 1398 2916 
Q 1625 2713 2034 2713 
Q 2441 2713 2670 2916 
Q 2900 3119 2900 3481 
Q 2900 3844 2670 4047 
Q 2441 4250 2034 4250 
Q 1625 4250 1398 4047 
Q 1172 3844 1172 3481 
z
" transform="scale(0.015625)"/>
       </defs>
       <use xlink:href="#DejaVuSans-30"/>
       <use xlink:href="#DejaVuSans-2e" x="63.623047"/>
       <use xlink:href="#DejaVuSans-38" x="95.410156"/>
      </g>
     </g>
    </g>
    <g id="text_11">
     <!-- R-value -->
     <g transform="translate(18.737188 119.064687)rotate(-90)scale(0.1 -0.1)">
      <defs>
       <path id="DejaVuSans-52" d="M 2841 2188 
Q 3044 2119 3236 1894 
Q 3428 1669 3622 1275 
L 4263 0 
L 3584 0 
L 2988 1197 
Q 2756 1666 2539 1819 
Q 2322 1972 1947 1972 
L 1259 1972 
L 1259 0 
L 628 0 
L 628 4666 
L 2053 4666 
Q 2853 4666 3247 4331 
Q 3641 3997 3641 3322 
Q 3641 2881 3436 2590 
Q 3231 2300 2841 2188 
z
M 1259 4147 
L 1259 2491 
L 2053 2491 
Q 2509 2491 2742 2702 
Q 2975 2913 2975 3322 
Q 2975 3731 2742 3939 
Q 2509 4147 2053 4147 
L 1259 4147 
z
" transform="scale(0.015625)"/>
       <path id="DejaVuSans-2d" d="M 313 2009 
L 1997 2009 
L 1997 1497 
L 313 1497 
L 313 2009 
z
" transform="scale(0.015625)"/>
       <path id="DejaVuSans-76" d="M 191 3500 
L 800 3500 
L 1894 563 
L 2988 3500 
L 3597 3500 
L 2284 0 
L 1503 0 
L 191 3500 
z
" transform="scale(0.015625)"/>
      </defs>
      <use xlink:href="#DejaVuSans-52"/>
      <use xlink:href="#DejaVuSans-2d" x="65.482422"/>
      <use xlink:href="#DejaVuSans-76" x="98.941406"/>
      <use xlink:href="#DejaVuSans-61" x="158.121094"/>
      <use xlink:href="#DejaVuSans-6c" x="219.400391"/>
      <use xlink:href="#DejaVuSans-75" x="247.183594"/>
      <use xlink:href="#DejaVuSans-65" x="310.5625"/>
     </g>
    </g>
   </g>
   <g id="line2d_10">
    <path d="M 47.72 33.894976 
L 59.167105 36.120278 
L 70.614211 41.95941 
L 82.061316 49.633166 
L 93.508421 58.723763 
L 104.955526 68.339436 
L 116.402632 78.537214 
L 127.849737 87.06632 
L 139.296842 97.205695 
L 150.743947 104.815301 
L 162.191053 112.535021 
L 173.638158 119.209461 
L 185.085263 124.917594 
L 196.532368 130.427721 
L 207.979474 135.426983 
L 219.426579 139.489102 
L 230.873684 143.010433 
L 242.320789 146.327078 
L 253.767895 149.645049 
L 265.215 152.173682 
" clip-path="url(#p12b1d1df2c)" style="fill: none; stroke: #1f77b4; stroke-width: 1.5; stroke-linecap: square"/>
   </g>
   <g id="line2d_11">
    <path d="M 47.72 33.906862 
L 59.167105 35.357943 
L 70.614211 38.525043 
L 82.061316 43.073716 
L 93.508421 49.295201 
L 104.955526 56.486896 
L 116.402632 64.655784 
L 127.849737 72.12463 
L 139.296842 81.408794 
L 150.743947 89.046915 
L 162.191053 96.941317 
L 173.638158 104.288655 
L 185.085263 110.947351 
L 196.532368 117.195028 
L 207.979474 123.019674 
L 219.426579 127.850749 
L 230.873684 132.239946 
L 242.320789 136.309521 
L 253.767895 140.203366 
L 265.215 143.33767 
" clip-path="url(#p12b1d1df2c)" style="fill: none; stroke: #ff7f0e; stroke-width: 1.5; stroke-linecap: square"/>
   </g>
   <g id="line2d_12">
    <path d="M 47.72 33.913367 
L 59.167105 35.676179 
L 70.614211 38.381959 
L 82.061316 41.79931 
L 93.508421 46.041798 
L 104.955526 50.14437 
L 116.402632 54.948593 
L 127.849737 59.204453 
L 139.296842 64.441241 
L 150.743947 68.970525 
L 162.191053 73.841918 
L 173.638158 78.506684 
L 185.085263 82.230407 
L 196.532368 86.465286 
L 207.979474 90.596873 
L 219.426579 94.493875 
L 230.873684 98.590205 
L 242.320789 102.073491 
L 253.767895 105.797873 
L 265.215 109.566164 
" clip-path="url(#p12b1d1df2c)" style="fill: none; stroke: #2ca02c; stroke-width: 1.5; stroke-linecap: square"/>
   </g>
   <g id="line2d_13">
    <path d="M 47.72 33.924849 
L 59.167105 35.321741 
L 70.614211 37.412652 
L 82.061316 40.189369 
L 93.508421 43.977715 
L 104.955526 47.917567 
L 116.402632 52.591996 
L 127.849737 56.931775 
L 139.296842 62.376177 
L 150.743947 67.073138 
L 162.191053 72.14285 
L 173.638158 76.954146 
L 185.085263 80.677252 
L 196.532368 84.941532 
L 207.979474 89.002395 
L 219.426579 92.697604 
L 230.873684 96.685572 
L 242.320789 99.963648 
L 253.767895 103.572045 
L 265.215 107.023319 
" clip-path="url(#p12b1d1df2c)" style="fill: none; stroke: #d62728; stroke-width: 1.5; stroke-linecap: square"/>
   </g>
   <g id="line2d_14">
    <path d="M 47.72 33.909886 
L 59.167105 36.125607 
L 70.614211 42.010828 
L 82.061316 49.64382 
L 93.508421 58.745421 
L 104.955526 68.340423 
L 116.402632 78.86008 
L 127.849737 87.505623 
L 139.296842 97.378693 
L 150.743947 105.155653 
L 162.191053 112.804956 
L 173.638158 119.391105 
L 185.085263 125.901201 
L 196.532368 130.625237 
L 207.979474 135.927396 
L 219.426579 140.398346 
L 230.873684 143.523384 
L 242.320789 146.258252 
L 253.767895 149.896864 
L 265.215 152.590105 
" clip-path="url(#p12b1d1df2c)" style="fill: none; stroke: #9467bd; stroke-width: 1.5; stroke-linecap: square"/>
   </g>
   <g id="line2d_15">
    <path d="M 47.72 33.922163 
L 59.167105 35.365731 
L 70.614211 38.558013 
L 82.061316 43.09213 
L 93.508421 49.304103 
L 104.955526 56.513832 
L 116.402632 64.845734 
L 127.849737 72.432024 
L 139.296842 81.551332 
L 150.743947 89.21053 
L 162.191053 97.120858 
L 173.638158 104.477588 
L 185.085263 111.601036 
L 196.532368 117.365229 
L 207.979474 123.447766 
L 219.426579 128.520642 
L 230.873684 132.627256 
L 242.320789 136.385235 
L 253.767895 140.436336 
L 265.215 143.545088 
" clip-path="url(#p12b1d1df2c)" style="fill: none; stroke: #8c564b; stroke-width: 1.5; stroke-linecap: square"/>
   </g>
   <g id="line2d_16">
    <path d="M 47.72 46.505322 
L 59.167105 49.654553 
L 70.614211 56.712948 
L 82.061316 66.361066 
L 93.508421 76.862823 
L 104.955526 87.40226 
L 116.402632 97.997105 
L 127.849737 106.960264 
L 139.296842 116.477674 
L 150.743947 124.19308 
L 162.191053 131.211622 
L 173.638158 137.415393 
L 185.085263 142.128351 
L 196.532368 147.056922 
L 207.979474 150.760562 
L 219.426579 154.077756 
L 230.873684 156.832329 
L 242.320789 159.602002 
L 253.767895 162.313368 
L 265.215 164.183572 
" clip-path="url(#p12b1d1df2c)" style="fill: none; stroke: #e377c2; stroke-width: 1.5; stroke-linecap: square"/>
   </g>
   <g id="line2d_17">
    <path d="M 47.72 33.921956 
L 59.167105 34.719329 
L 70.614211 35.65562 
L 82.061316 37.797765 
L 93.508421 42.18437 
L 104.955526 47.636709 
L 116.402632 54.864044 
L 127.849737 61.838994 
L 139.296842 70.51909 
L 150.743947 78.242352 
L 162.191053 86.703537 
L 173.638158 94.453255 
L 185.085263 101.520196 
L 196.532368 108.240539 
L 207.979474 114.516571 
L 219.426579 119.877055 
L 230.873684 124.807934 
L 242.320789 129.293818 
L 253.767895 133.731563 
L 265.215 137.296554 
" clip-path="url(#p12b1d1df2c)" style="fill: none; stroke: #7f7f7f; stroke-width: 1.5; stroke-linecap: square"/>
   </g>
   <g id="patch_3">
    <path d="M 47.72 174.04 
L 47.72 26.88 
" style="fill: none; stroke: #000000; stroke-width: 0.8; stroke-linejoin: miter; stroke-linecap: square"/>
   </g>
   <g id="patch_4">
    <path d="M 47.72 174.04 
L 265.215 174.04 
" style="fill: none; stroke: #000000; stroke-width: 0.8; stroke-linejoin: miter; stroke-linecap: square"/>
   </g>
   <g id="text_12">
    <!-- Node * surprisal -->
    <g transform="translate(108.18625 20.88)scale(0.12 -0.12)">
     <defs>
      <path id="DejaVuSans-4e" d="M 628 4666 
L 1478 4666 
L 3547 763 
L 3547 4666 
L 4159 4666 
L 4159 0 
L 3309 0 
L 1241 3903 
L 1241 0 
L 628 0 
L 628 4666 
z
" transform="scale(0.015625)"/>
      <path id="DejaVuSans-64" d="M 2906 2969 
L 2906 4863 
L 3481 4863 
L 3481 0 
L 2906 0 
L 2906 525 
Q 2725 213 2448 61 
Q 2172 -91 1784 -91 
Q 1150 -91 751 415 
Q 353 922 353 1747 
Q 353 2572 751 3078 
Q 1150 3584 1784 3584 
Q 2172 3584 2448 3432 
Q 2725 3281 2906 2969 
z
M 947 1747 
Q 947 1113 1208 752 
Q 1469 391 1925 391 
Q 2381 391 2643 752 
Q 2906 1113 2906 1747 
Q 2906 2381 2643 2742 
Q 2381 3103 1925 3103 
Q 1469 3103 1208 2742 
Q 947 2381 947 1747 
z
" transform="scale(0.015625)"/>
      <path id="DejaVuSans-2a" d="M 3009 3897 
L 1888 3291 
L 3009 2681 
L 2828 2375 
L 1778 3009 
L 1778 1831 
L 1422 1831 
L 1422 3009 
L 372 2375 
L 191 2681 
L 1313 3291 
L 191 3897 
L 372 4206 
L 1422 3572 
L 1422 4750 
L 1778 4750 
L 1778 3572 
L 2828 4206 
L 3009 3897 
z
" transform="scale(0.015625)"/>
     </defs>
     <use xlink:href="#DejaVuSans-4e"/>
     <use xlink:href="#DejaVuSans-6f" x="74.804688"/>
     <use xlink:href="#DejaVuSans-64" x="135.986328"/>
     <use xlink:href="#DejaVuSans-65" x="199.462891"/>
     <use xlink:href="#DejaVuSans-20" x="260.986328"/>
     <use xlink:href="#DejaVuSans-2a" x="292.773438"/>
     <use xlink:href="#DejaVuSans-20" x="342.773438"/>
     <use xlink:href="#DejaVuSans-73" x="374.560547"/>
     <use xlink:href="#DejaVuSans-75" x="426.660156"/>
     <use xlink:href="#DejaVuSans-72" x="490.039062"/>
     <use xlink:href="#DejaVuSans-70" x="531.152344"/>
     <use xlink:href="#DejaVuSans-72" x="594.628906"/>
     <use xlink:href="#DejaVuSans-69" x="635.742188"/>
     <use xlink:href="#DejaVuSans-73" x="663.525391"/>
     <use xlink:href="#DejaVuSans-61" x="715.625"/>
     <use xlink:href="#DejaVuSans-6c" x="776.904297"/>
    </g>
   </g>
  </g>
  <g id="axes_2">
   <g id="patch_5">
    <path d="M 298.065 174.04 
L 515.56 174.04 
L 515.56 26.88 
L 298.065 26.88 
z
" style="fill: #ffffff"/>
   </g>
   <g id="PolyCollection_9">
    <path d="M 298.065 33.687456 
L 298.065 34.451097 
L 309.512105 36.604353 
L 320.959211 42.705771 
L 332.406316 51.498455 
L 343.853421 62.357613 
L 355.300526 73.964897 
L 366.747632 86.737309 
L 378.194737 96.116873 
L 389.641842 109.014266 
L 401.088947 117.291874 
L 412.536053 126.071505 
L 423.983158 133.485778 
L 435.430263 139.3907 
L 446.877368 144.377629 
L 458.324474 148.729468 
L 469.771579 152.021024 
L 481.218684 154.689667 
L 492.665789 156.959943 
L 504.112895 158.831027 
L 515.56 160.376832 
L 515.56 148.20264 
L 515.56 148.20264 
L 504.112895 144.588442 
L 492.665789 141.203971 
L 481.218684 137.661342 
L 469.771579 133.617719 
L 458.324474 128.801947 
L 446.877368 123.379033 
L 435.430263 117.654798 
L 423.983158 112.02594 
L 412.536053 105.061876 
L 401.088947 97.115915 
L 389.641842 88.682548 
L 378.194737 81.536099 
L 366.747632 71.357935 
L 355.300526 63.265448 
L 343.853421 53.989776 
L 332.406316 46.797753 
L 320.959211 40.082786 
L 309.512105 35.321315 
L 298.065 33.687456 
z
" clip-path="url(#paca00d235d)" style="fill: #1f77b4; fill-opacity: 0.4"/>
   </g>
   <g id="PolyCollection_10">
    <path d="M 298.065 33.704036 
L 298.065 34.465247 
L 309.512105 36.627058 
L 320.959211 42.737625 
L 332.406316 51.548545 
L 343.853421 62.435648 
L 355.300526 74.10343 
L 366.747632 86.848253 
L 378.194737 96.223026 
L 389.641842 109.072892 
L 401.088947 117.333181 
L 412.536053 125.907122 
L 423.983158 133.444289 
L 435.430263 139.294042 
L 446.877368 144.132995 
L 458.324474 148.523059 
L 469.771579 151.704272 
L 481.218684 154.429124 
L 492.665789 156.880256 
L 504.112895 158.760332 
L 515.56 160.164031 
L 515.56 148.552266 
L 515.56 148.552266 
L 504.112895 144.874159 
L 492.665789 141.665891 
L 481.218684 138.192961 
L 469.771579 134.349924 
L 458.324474 129.451798 
L 446.877368 123.938833 
L 435.430263 118.264177 
L 423.983158 112.570255 
L 412.536053 105.581901 
L 401.088947 97.421645 
L 389.641842 88.994902 
L 378.194737 81.67482 
L 366.747632 71.449932 
L 355.300526 63.307203 
L 343.853421 54.03753 
L 332.406316 46.836513 
L 320.959211 40.098182 
L 309.512105 35.331512 
L 298.065 33.704036 
z
" clip-path="url(#paca00d235d)" style="fill: #ff7f0e; fill-opacity: 0.4"/>
   </g>
   <g id="PolyCollection_11">
    <path d="M 298.065 33.696712 
L 298.065 34.466718 
L 309.512105 36.619672 
L 320.959211 42.76158 
L 332.406316 51.598798 
L 343.853421 62.521571 
L 355.300526 74.295659 
L 366.747632 87.113757 
L 378.194737 96.556943 
L 389.641842 109.665318 
L 401.088947 117.782526 
L 412.536053 126.466219 
L 423.983158 133.920424 
L 435.430263 139.945705 
L 446.877368 144.797864 
L 458.324474 149.106758 
L 469.771579 152.429797 
L 481.218684 155.238162 
L 492.665789 157.736508 
L 504.112895 159.738755 
L 515.56 161.399546 
L 515.56 149.137319 
L 515.56 149.137319 
L 504.112895 145.612467 
L 492.665789 142.417019 
L 481.218684 138.658943 
L 469.771579 134.712976 
L 458.324474 129.892341 
L 446.877368 124.308887 
L 435.430263 118.572111 
L 423.983158 112.732071 
L 412.536053 105.674489 
L 401.088947 97.566386 
L 389.641842 88.975155 
L 378.194737 81.750333 
L 366.747632 71.495381 
L 355.300526 63.357214 
L 343.853421 54.088459 
L 332.406316 46.829618 
L 320.959211 40.10951 
L 309.512105 35.327096 
L 298.065 33.696712 
z
" clip-path="url(#paca00d235d)" style="fill: #2ca02c; fill-opacity: 0.4"/>
   </g>
   <g id="PolyCollection_12">
    <path d="M 298.065 33.717132 
L 298.065 34.479514 
L 309.512105 36.64128 
L 320.959211 42.775577 
L 332.406316 51.615271 
L 343.853421 62.542969 
L 355.300526 74.343506 
L 366.747632 87.124228 
L 378.194737 96.566013 
L 389.641842 109.587119 
L 401.088947 117.730359 
L 412.536053 126.301235 
L 423.983158 133.806462 
L 435.430263 139.844665 
L 446.877368 144.616952 
L 458.324474 149.010145 
L 469.771579 152.278806 
L 481.218684 155.064048 
L 492.665789 157.816004 
L 504.112895 159.712587 
L 515.56 161.299427 
L 515.56 149.502789 
L 515.56 149.502789 
L 504.112895 145.929351 
L 492.665789 142.784444 
L 481.218684 139.110558 
L 469.771579 135.26212 
L 458.324474 130.360703 
L 446.877368 124.756616 
L 435.430263 118.986895 
L 423.983158 113.147295 
L 412.536053 106.050478 
L 401.088947 97.811989 
L 389.641842 89.209168 
L 378.194737 81.874305 
L 366.747632 71.575534 
L 355.300526 63.433198 
L 343.853421 54.156415 
L 332.406316 46.875441 
L 320.959211 40.13673 
L 309.512105 35.338962 
L 298.065 33.717132 
z
" clip-path="url(#paca00d235d)" style="fill: #d62728; fill-opacity: 0.4"/>
   </g>
   <g id="PolyCollection_13">
    <path d="M 298.065 33.700954 
L 298.065 34.466512 
L 309.512105 36.624005 
L 320.959211 42.752998 
L 332.406316 51.515221 
L 343.853421 62.400091 
L 355.300526 73.957459 
L 366.747632 86.969989 
L 378.194737 96.518771 
L 389.641842 109.191322 
L 401.088947 117.341501 
L 412.536053 126.279864 
L 423.983158 133.690011 
L 435.430263 139.671238 
L 446.877368 144.752983 
L 458.324474 149.224598 
L 469.771579 152.426398 
L 481.218684 155.148915 
L 492.665789 156.426062 
L 504.112895 159.699437 
L 515.56 160.730997 
L 515.56 148.82797 
L 515.56 148.82797 
L 504.112895 144.988636 
L 492.665789 141.164591 
L 481.218684 137.160384 
L 469.771579 134.147925 
L 458.324474 129.471694 
L 446.877368 123.229679 
L 435.430263 117.842473 
L 423.983158 111.978467 
L 412.536053 105.485015 
L 401.088947 97.083664 
L 389.641842 88.958234 
L 378.194737 81.579691 
L 366.747632 71.446846 
L 355.300526 63.295007 
L 343.853421 54.012253 
L 332.406316 46.822838 
L 320.959211 40.094869 
L 309.512105 35.336132 
L 298.065 33.700954 
z
" clip-path="url(#paca00d235d)" style="fill: #9467bd; fill-opacity: 0.4"/>
   </g>
   <g id="PolyCollection_14">
    <path d="M 298.065 33.718374 
L 298.065 34.480683 
L 309.512105 36.646376 
L 320.959211 42.787109 
L 332.406316 51.561777 
L 343.853421 62.474521 
L 355.300526 74.085328 
L 366.747632 87.084872 
L 378.194737 96.617873 
L 389.641842 109.240636 
L 401.088947 117.349892 
L 412.536053 126.119224 
L 423.983158 133.644477 
L 435.430263 139.591265 
L 446.877368 144.538008 
L 458.324474 149.049714 
L 469.771579 152.032191 
L 481.218684 154.863855 
L 492.665789 156.176006 
L 504.112895 159.503915 
L 515.56 160.438786 
L 515.56 149.229822 
L 515.56 149.229822 
L 504.112895 145.379163 
L 492.665789 141.819583 
L 481.218684 137.688137 
L 469.771579 134.843389 
L 458.324474 130.078565 
L 446.877368 123.733131 
L 435.430263 118.494546 
L 423.983158 112.525115 
L 412.536053 105.997751 
L 401.088947 97.39677 
L 389.641842 89.269395 
L 378.194737 81.722398 
L 366.747632 71.527693 
L 355.300526 63.338762 
L 343.853421 54.060117 
L 332.406316 46.858079 
L 320.959211 40.10782 
L 309.512105 35.347945 
L 298.065 33.718374 
z
" clip-path="url(#paca00d235d)" style="fill: #8c564b; fill-opacity: 0.4"/>
   </g>
   <g id="PolyCollection_15">
    <path d="M 298.065 44.626028 
L 298.065 48.949448 
L 309.512105 50.577281 
L 320.959211 55.407899 
L 332.406316 63.007741 
L 343.853421 72.023327 
L 355.300526 82.565401 
L 366.747632 93.315071 
L 378.194737 102.326912 
L 389.641842 113.641791 
L 401.088947 121.57735 
L 412.536053 129.969164 
L 423.983158 136.584922 
L 435.430263 142.237658 
L 446.877368 146.659291 
L 458.324474 150.678109 
L 469.771579 153.890744 
L 481.218684 156.057371 
L 492.665789 158.531251 
L 504.112895 160.049016 
L 515.56 161.700209 
L 515.56 151.762716 
L 515.56 151.762716 
L 504.112895 148.932936 
L 492.665789 145.730154 
L 481.218684 142.394951 
L 469.771579 138.782533 
L 458.324474 134.606056 
L 446.877368 129.216673 
L 435.430263 124.321318 
L 423.983158 118.84802 
L 412.536053 112.509603 
L 401.088947 104.891797 
L 389.641842 97.280836 
L 378.194737 90.601575 
L 366.747632 81.189841 
L 355.300526 73.626841 
L 343.853421 65.054896 
L 332.406316 57.798625 
L 320.959211 51.291936 
L 309.512105 46.120276 
L 298.065 44.626028 
z
" clip-path="url(#paca00d235d)" style="fill: #e377c2; fill-opacity: 0.4"/>
   </g>
   <g id="PolyCollection_16">
    <path d="M 298.065 33.713733 
L 298.065 34.481968 
L 309.512105 36.639985 
L 320.959211 42.735677 
L 332.406316 51.548537 
L 343.853421 62.431138 
L 355.300526 74.092062 
L 366.747632 86.851068 
L 378.194737 96.249902 
L 389.641842 109.149051 
L 401.088947 117.456455 
L 412.536053 126.186309 
L 423.983158 133.820991 
L 435.430263 139.800688 
L 446.877368 144.805535 
L 458.324474 149.433424 
L 469.771579 152.694329 
L 481.218684 155.59461 
L 492.665789 158.319765 
L 504.112895 160.427985 
L 515.56 161.829895 
L 515.56 149.518746 
L 515.56 149.518746 
L 504.112895 146.027184 
L 492.665789 142.69312 
L 481.218684 139.283509 
L 469.771579 135.310369 
L 458.324474 130.295652 
L 446.877368 124.653444 
L 435.430263 118.903937 
L 423.983158 113.080504 
L 412.536053 106.073745 
L 401.088947 97.861921 
L 389.641842 89.317758 
L 378.194737 81.901707 
L 366.747632 71.614241 
L 355.300526 63.410424 
L 343.853421 54.117734 
L 332.406316 46.869629 
L 320.959211 40.114663 
L 309.512105 35.35153 
L 298.065 33.713733 
z
" clip-path="url(#paca00d235d)" style="fill: #7f7f7f; fill-opacity: 0.4"/>
   </g>
   <g id="matplotlib.axis_3">
    <g id="xtick_6">
     <g id="line2d_18">
      <g>
       <use xlink:href="#m8633f1c5eb" x="298.065" y="174.04" style="stroke: #000000; stroke-width: 0.8"/>
      </g>
     </g>
     <g id="text_13">
      <!-- 0.0 -->
      <g transform="translate(290.113437 188.638438)scale(0.1 -0.1)">
       <use xlink:href="#DejaVuSans-30"/>
       <use xlink:href="#DejaVuSans-2e" x="63.623047"/>
       <use xlink:href="#DejaVuSans-30" x="95.410156"/>
      </g>
     </g>
    </g>
    <g id="xtick_7">
     <g id="line2d_19">
      <g>
       <use xlink:href="#m8633f1c5eb" x="352.43875" y="174.04" style="stroke: #000000; stroke-width: 0.8"/>
      </g>
     </g>
     <g id="text_14">
      <!-- 0.5 -->
      <g transform="translate(344.487187 188.638438)scale(0.1 -0.1)">
       <use xlink:href="#DejaVuSans-30"/>
       <use xlink:href="#DejaVuSans-2e" x="63.623047"/>
       <use xlink:href="#DejaVuSans-35" x="95.410156"/>
      </g>
     </g>
    </g>
    <g id="xtick_8">
     <g id="line2d_20">
      <g>
       <use xlink:href="#m8633f1c5eb" x="406.8125" y="174.04" style="stroke: #000000; stroke-width: 0.8"/>
      </g>
     </g>
     <g id="text_15">
      <!-- 1.0 -->
      <g transform="translate(398.860937 188.638438)scale(0.1 -0.1)">
       <use xlink:href="#DejaVuSans-31"/>
       <use xlink:href="#DejaVuSans-2e" x="63.623047"/>
       <use xlink:href="#DejaVuSans-30" x="95.410156"/>
      </g>
     </g>
    </g>
    <g id="xtick_9">
     <g id="line2d_21">
      <g>
       <use xlink:href="#m8633f1c5eb" x="461.18625" y="174.04" style="stroke: #000000; stroke-width: 0.8"/>
      </g>
     </g>
     <g id="text_16">
      <!-- 1.5 -->
      <g transform="translate(453.234687 188.638438)scale(0.1 -0.1)">
       <use xlink:href="#DejaVuSans-31"/>
       <use xlink:href="#DejaVuSans-2e" x="63.623047"/>
       <use xlink:href="#DejaVuSans-35" x="95.410156"/>
      </g>
     </g>
    </g>
    <g id="xtick_10">
     <g id="line2d_22">
      <g>
       <use xlink:href="#m8633f1c5eb" x="515.56" y="174.04" style="stroke: #000000; stroke-width: 0.8"/>
      </g>
     </g>
     <g id="text_17">
      <!-- 2.0 -->
      <g transform="translate(507.608437 188.638438)scale(0.1 -0.1)">
       <use xlink:href="#DejaVuSans-32"/>
       <use xlink:href="#DejaVuSans-2e" x="63.623047"/>
       <use xlink:href="#DejaVuSans-30" x="95.410156"/>
      </g>
     </g>
    </g>
    <g id="text_18">
     <!-- Influence of surprisal (multiplication) -->
     <g transform="translate(314.665625 202.316563)scale(0.1 -0.1)">
      <use xlink:href="#DejaVuSans-49"/>
      <use xlink:href="#DejaVuSans-6e" x="29.492188"/>
      <use xlink:href="#DejaVuSans-66" x="92.871094"/>
      <use xlink:href="#DejaVuSans-6c" x="128.076172"/>
      <use xlink:href="#DejaVuSans-75" x="155.859375"/>
      <use xlink:href="#DejaVuSans-65" x="219.238281"/>
      <use xlink:href="#DejaVuSans-6e" x="280.761719"/>
      <use xlink:href="#DejaVuSans-63" x="344.140625"/>
      <use xlink:href="#DejaVuSans-65" x="399.121094"/>
      <use xlink:href="#DejaVuSans-20" x="460.644531"/>
      <use xlink:href="#DejaVuSans-6f" x="492.431641"/>
      <use xlink:href="#DejaVuSans-66" x="553.613281"/>
      <use xlink:href="#DejaVuSans-20" x="588.818359"/>
      <use xlink:href="#DejaVuSans-73" x="620.605469"/>
      <use xlink:href="#DejaVuSans-75" x="672.705078"/>
      <use xlink:href="#DejaVuSans-72" x="736.083984"/>
      <use xlink:href="#DejaVuSans-70" x="777.197266"/>
      <use xlink:href="#DejaVuSans-72" x="840.673828"/>
      <use xlink:href="#DejaVuSans-69" x="881.787109"/>
      <use xlink:href="#DejaVuSans-73" x="909.570312"/>
      <use xlink:href="#DejaVuSans-61" x="961.669922"/>
      <use xlink:href="#DejaVuSans-6c" x="1022.949219"/>
      <use xlink:href="#DejaVuSans-20" x="1050.732422"/>
      <use xlink:href="#DejaVuSans-28" x="1082.519531"/>
      <use xlink:href="#DejaVuSans-6d" x="1121.533203"/>
      <use xlink:href="#DejaVuSans-75" x="1218.945312"/>
      <use xlink:href="#DejaVuSans-6c" x="1282.324219"/>
      <use xlink:href="#DejaVuSans-74" x="1310.107422"/>
      <use xlink:href="#DejaVuSans-69" x="1349.316406"/>
      <use xlink:href="#DejaVuSans-70" x="1377.099609"/>
      <use xlink:href="#DejaVuSans-6c" x="1440.576172"/>
      <use xlink:href="#DejaVuSans-69" x="1468.359375"/>
      <use xlink:href="#DejaVuSans-63" x="1496.142578"/>
      <use xlink:href="#DejaVuSans-61" x="1551.123047"/>
      <use xlink:href="#DejaVuSans-74" x="1612.402344"/>
      <use xlink:href="#DejaVuSans-69" x="1651.611328"/>
      <use xlink:href="#DejaVuSans-6f" x="1679.394531"/>
      <use xlink:href="#DejaVuSans-6e" x="1740.576172"/>
      <use xlink:href="#DejaVuSans-29" x="1803.955078"/>
     </g>
    </g>
   </g>
   <g id="line2d_23">
    <path d="M 298.065 34.069276 
L 309.512105 35.962834 
L 320.959211 41.394278 
L 332.406316 49.148104 
L 343.853421 58.173694 
L 355.300526 68.615173 
L 366.747632 79.047622 
L 378.194737 88.826486 
L 389.641842 98.848407 
L 401.088947 107.203895 
L 412.536053 115.566691 
L 423.983158 122.755859 
L 435.430263 128.522749 
L 446.877368 133.878331 
L 458.324474 138.765707 
L 469.771579 142.819372 
L 481.218684 146.175505 
L 492.665789 149.081957 
L 504.112895 151.709735 
L 515.56 154.289736 
" clip-path="url(#paca00d235d)" style="fill: none; stroke: #1f77b4; stroke-width: 1.5; stroke-linecap: square"/>
   </g>
   <g id="line2d_24">
    <path d="M 298.065 34.084641 
L 309.512105 35.979285 
L 320.959211 41.417903 
L 332.406316 49.192529 
L 343.853421 58.236589 
L 355.300526 68.705317 
L 366.747632 79.149092 
L 378.194737 88.948923 
L 389.641842 99.033897 
L 401.088947 107.377413 
L 412.536053 115.744511 
L 423.983158 123.007272 
L 435.430263 128.77911 
L 446.877368 134.035914 
L 458.324474 138.987428 
L 469.771579 143.027098 
L 481.218684 146.311043 
L 492.665789 149.273074 
L 504.112895 151.817246 
L 515.56 154.358148 
" clip-path="url(#paca00d235d)" style="fill: none; stroke: #ff7f0e; stroke-width: 1.5; stroke-linecap: square"/>
   </g>
   <g id="line2d_25">
    <path d="M 298.065 34.081715 
L 309.512105 35.973384 
L 320.959211 41.435545 
L 332.406316 49.214208 
L 343.853421 58.305015 
L 355.300526 68.826436 
L 366.747632 79.304569 
L 378.194737 89.153638 
L 389.641842 99.320237 
L 401.088947 107.674456 
L 412.536053 116.070354 
L 423.983158 123.326247 
L 435.430263 129.258908 
L 446.877368 134.553376 
L 458.324474 139.49955 
L 469.771579 143.571386 
L 481.218684 146.948552 
L 492.665789 150.076763 
L 504.112895 152.675611 
L 515.56 155.268432 
" clip-path="url(#paca00d235d)" style="fill: none; stroke: #2ca02c; stroke-width: 1.5; stroke-linecap: square"/>
   </g>
   <g id="line2d_26">
    <path d="M 298.065 34.098323 
L 309.512105 35.990121 
L 320.959211 41.456154 
L 332.406316 49.245356 
L 343.853421 58.349692 
L 355.300526 68.888352 
L 366.747632 79.349881 
L 378.194737 89.220159 
L 389.641842 99.398144 
L 401.088947 107.771174 
L 412.536053 116.175857 
L 423.983158 123.476879 
L 435.430263 129.41578 
L 446.877368 134.686784 
L 458.324474 139.685424 
L 469.771579 143.770463 
L 481.218684 147.087303 
L 492.665789 150.300224 
L 504.112895 152.820969 
L 515.56 155.401108 
" clip-path="url(#paca00d235d)" style="fill: none; stroke: #d62728; stroke-width: 1.5; stroke-linecap: square"/>
   </g>
   <g id="line2d_27">
    <path d="M 298.065 34.083733 
L 309.512105 35.980069 
L 320.959211 41.423933 
L 332.406316 49.169029 
L 343.853421 58.206172 
L 355.300526 68.626233 
L 366.747632 79.208417 
L 378.194737 89.049231 
L 389.641842 99.074778 
L 401.088947 107.212583 
L 412.536053 115.882439 
L 423.983158 122.834239 
L 435.430263 128.756856 
L 446.877368 133.991331 
L 458.324474 139.348146 
L 469.771579 143.287161 
L 481.218684 146.154649 
L 492.665789 148.795327 
L 504.112895 152.344037 
L 515.56 154.779484 
" clip-path="url(#paca00d235d)" style="fill: none; stroke: #9467bd; stroke-width: 1.5; stroke-linecap: square"/>
   </g>
   <g id="line2d_28">
    <path d="M 298.065 34.099529 
L 309.512105 35.997161 
L 320.959211 41.447465 
L 332.406316 49.209928 
L 343.853421 58.267319 
L 355.300526 68.712045 
L 366.747632 79.306283 
L 378.194737 89.170135 
L 389.641842 99.255015 
L 401.088947 107.373331 
L 412.536053 116.058487 
L 423.983158 123.084796 
L 435.430263 129.042905 
L 446.877368 134.135569 
L 458.324474 139.56414 
L 469.771579 143.43779 
L 481.218684 146.275996 
L 492.665789 148.997794 
L 504.112895 152.441539 
L 515.56 154.834304 
" clip-path="url(#paca00d235d)" style="fill: none; stroke: #8c564b; stroke-width: 1.5; stroke-linecap: square"/>
   </g>
   <g id="line2d_29">
    <path d="M 298.065 46.787738 
L 309.512105 48.348779 
L 320.959211 53.349918 
L 332.406316 60.403183 
L 343.853421 68.539111 
L 355.300526 78.096121 
L 366.747632 87.252456 
L 378.194737 96.464243 
L 389.641842 105.461314 
L 401.088947 113.234573 
L 412.536053 121.239383 
L 423.983158 127.716471 
L 435.430263 133.279488 
L 446.877368 137.937982 
L 458.324474 142.642082 
L 469.771579 146.336639 
L 481.218684 149.226161 
L 492.665789 152.130703 
L 504.112895 154.490976 
L 515.56 156.731462 
" clip-path="url(#paca00d235d)" style="fill: none; stroke: #e377c2; stroke-width: 1.5; stroke-linecap: square"/>
   </g>
   <g id="line2d_30">
    <path d="M 298.065 34.097851 
L 309.512105 35.995757 
L 320.959211 41.42517 
L 332.406316 49.209083 
L 343.853421 58.274436 
L 355.300526 68.751243 
L 366.747632 79.232654 
L 378.194737 89.075804 
L 389.641842 99.233405 
L 401.088947 107.659188 
L 412.536053 116.130027 
L 423.983158 123.450748 
L 435.430263 129.352312 
L 446.877368 134.729489 
L 458.324474 139.864538 
L 469.771579 144.002349 
L 481.218684 147.439059 
L 492.665789 150.506443 
L 504.112895 153.227585 
L 515.56 155.67432 
" clip-path="url(#paca00d235d)" style="fill: none; stroke: #7f7f7f; stroke-width: 1.5; stroke-linecap: square"/>
   </g>
   <g id="patch_6">
    <path d="M 298.065 174.04 
L 298.065 26.88 
" style="fill: none; stroke: #000000; stroke-width: 0.8; stroke-linejoin: miter; stroke-linecap: square"/>
   </g>
   <g id="patch_7">
    <path d="M 298.065 174.04 
L 515.56 174.04 
" style="fill: none; stroke: #000000; stroke-width: 0.8; stroke-linejoin: miter; stroke-linecap: square"/>
   </g>
   <g id="text_19">
    <!-- Node * third variable -->
    <g transform="translate(344.2325 20.88)scale(0.12 -0.12)">
     <defs>
      <path id="DejaVuSans-68" d="M 3513 2113 
L 3513 0 
L 2938 0 
L 2938 2094 
Q 2938 2591 2744 2837 
Q 2550 3084 2163 3084 
Q 1697 3084 1428 2787 
Q 1159 2491 1159 1978 
L 1159 0 
L 581 0 
L 581 4863 
L 1159 4863 
L 1159 2956 
Q 1366 3272 1645 3428 
Q 1925 3584 2291 3584 
Q 2894 3584 3203 3211 
Q 3513 2838 3513 2113 
z
" transform="scale(0.015625)"/>
      <path id="DejaVuSans-62" d="M 3116 1747 
Q 3116 2381 2855 2742 
Q 2594 3103 2138 3103 
Q 1681 3103 1420 2742 
Q 1159 2381 1159 1747 
Q 1159 1113 1420 752 
Q 1681 391 2138 391 
Q 2594 391 2855 752 
Q 3116 1113 3116 1747 
z
M 1159 2969 
Q 1341 3281 1617 3432 
Q 1894 3584 2278 3584 
Q 2916 3584 3314 3078 
Q 3713 2572 3713 1747 
Q 3713 922 3314 415 
Q 2916 -91 2278 -91 
Q 1894 -91 1617 61 
Q 1341 213 1159 525 
L 1159 0 
L 581 0 
L 581 4863 
L 1159 4863 
L 1159 2969 
z
" transform="scale(0.015625)"/>
     </defs>
     <use xlink:href="#DejaVuSans-4e"/>
     <use xlink:href="#DejaVuSans-6f" x="74.804688"/>
     <use xlink:href="#DejaVuSans-64" x="135.986328"/>
     <use xlink:href="#DejaVuSans-65" x="199.462891"/>
     <use xlink:href="#DejaVuSans-20" x="260.986328"/>
     <use xlink:href="#DejaVuSans-2a" x="292.773438"/>
     <use xlink:href="#DejaVuSans-20" x="342.773438"/>
     <use xlink:href="#DejaVuSans-74" x="374.560547"/>
     <use xlink:href="#DejaVuSans-68" x="413.769531"/>
     <use xlink:href="#DejaVuSans-69" x="477.148438"/>
     <use xlink:href="#DejaVuSans-72" x="504.931641"/>
     <use xlink:href="#DejaVuSans-64" x="544.294922"/>
     <use xlink:href="#DejaVuSans-20" x="607.771484"/>
     <use xlink:href="#DejaVuSans-76" x="639.558594"/>
     <use xlink:href="#DejaVuSans-61" x="698.738281"/>
     <use xlink:href="#DejaVuSans-72" x="760.017578"/>
     <use xlink:href="#DejaVuSans-69" x="801.130859"/>
     <use xlink:href="#DejaVuSans-61" x="828.914062"/>
     <use xlink:href="#DejaVuSans-62" x="890.193359"/>
     <use xlink:href="#DejaVuSans-6c" x="953.669922"/>
     <use xlink:href="#DejaVuSans-65" x="981.453125"/>
    </g>
   </g>
   <g id="legend_1">
    <g id="line2d_31">
     <path d="M 524.56 39.978437 
L 534.56 39.978437 
L 544.56 39.978437 
" style="fill: none; stroke: #1f77b4; stroke-width: 1.5; stroke-linecap: square"/>
    </g>
    <g id="text_20">
     <!-- Node -->
     <g transform="translate(552.56 43.478437)scale(0.1 -0.1)">
      <use xlink:href="#DejaVuSans-4e"/>
      <use xlink:href="#DejaVuSans-6f" x="74.804688"/>
      <use xlink:href="#DejaVuSans-64" x="135.986328"/>
      <use xlink:href="#DejaVuSans-65" x="199.462891"/>
     </g>
    </g>
    <g id="line2d_32">
     <path d="M 524.56 54.656563 
L 534.56 54.656563 
L 544.56 54.656563 
" style="fill: none; stroke: #ff7f0e; stroke-width: 1.5; stroke-linecap: square"/>
    </g>
    <g id="text_21">
     <!-- Node + surprisal -->
     <g transform="translate(552.56 58.156563)scale(0.1 -0.1)">
      <defs>
       <path id="DejaVuSans-2b" d="M 2944 4013 
L 2944 2272 
L 4684 2272 
L 4684 1741 
L 2944 1741 
L 2944 0 
L 2419 0 
L 2419 1741 
L 678 1741 
L 678 2272 
L 2419 2272 
L 2419 4013 
L 2944 4013 
z
" transform="scale(0.015625)"/>
      </defs>
      <use xlink:href="#DejaVuSans-4e"/>
      <use xlink:href="#DejaVuSans-6f" x="74.804688"/>
      <use xlink:href="#DejaVuSans-64" x="135.986328"/>
      <use xlink:href="#DejaVuSans-65" x="199.462891"/>
      <use xlink:href="#DejaVuSans-20" x="260.986328"/>
      <use xlink:href="#DejaVuSans-2b" x="292.773438"/>
      <use xlink:href="#DejaVuSans-20" x="376.5625"/>
      <use xlink:href="#DejaVuSans-73" x="408.349609"/>
      <use xlink:href="#DejaVuSans-75" x="460.449219"/>
      <use xlink:href="#DejaVuSans-72" x="523.828125"/>
      <use xlink:href="#DejaVuSans-70" x="564.941406"/>
      <use xlink:href="#DejaVuSans-72" x="628.417969"/>
      <use xlink:href="#DejaVuSans-69" x="669.53125"/>
      <use xlink:href="#DejaVuSans-73" x="697.314453"/>
      <use xlink:href="#DejaVuSans-61" x="749.414062"/>
      <use xlink:href="#DejaVuSans-6c" x="810.693359"/>
     </g>
    </g>
    <g id="line2d_33">
     <path d="M 524.56 69.334687 
L 534.56 69.334687 
L 544.56 69.334687 
" style="fill: none; stroke: #2ca02c; stroke-width: 1.5; stroke-linecap: square"/>
    </g>
    <g id="text_22">
     <!-- Node split -->
     <g transform="translate(552.56 72.834687)scale(0.1 -0.1)">
      <use xlink:href="#DejaVuSans-4e"/>
      <use xlink:href="#DejaVuSans-6f" x="74.804688"/>
      <use xlink:href="#DejaVuSans-64" x="135.986328"/>
      <use xlink:href="#DejaVuSans-65" x="199.462891"/>
      <use xlink:href="#DejaVuSans-20" x="260.986328"/>
      <use xlink:href="#DejaVuSans-73" x="292.773438"/>
      <use xlink:href="#DejaVuSans-70" x="344.873047"/>
      <use xlink:href="#DejaVuSans-6c" x="408.349609"/>
      <use xlink:href="#DejaVuSans-69" x="436.132812"/>
      <use xlink:href="#DejaVuSans-74" x="463.916016"/>
     </g>
    </g>
    <g id="line2d_34">
     <path d="M 524.56 84.012812 
L 534.56 84.012812 
L 544.56 84.012812 
" style="fill: none; stroke: #d62728; stroke-width: 1.5; stroke-linecap: square"/>
    </g>
    <g id="text_23">
     <!-- Node split + surprisal -->
     <g transform="translate(552.56 87.512812)scale(0.1 -0.1)">
      <use xlink:href="#DejaVuSans-4e"/>
      <use xlink:href="#DejaVuSans-6f" x="74.804688"/>
      <use xlink:href="#DejaVuSans-64" x="135.986328"/>
      <use xlink:href="#DejaVuSans-65" x="199.462891"/>
      <use xlink:href="#DejaVuSans-20" x="260.986328"/>
      <use xlink:href="#DejaVuSans-73" x="292.773438"/>
      <use xlink:href="#DejaVuSans-70" x="344.873047"/>
      <use xlink:href="#DejaVuSans-6c" x="408.349609"/>
      <use xlink:href="#DejaVuSans-69" x="436.132812"/>
      <use xlink:href="#DejaVuSans-74" x="463.916016"/>
      <use xlink:href="#DejaVuSans-20" x="503.125"/>
      <use xlink:href="#DejaVuSans-2b" x="534.912109"/>
      <use xlink:href="#DejaVuSans-20" x="618.701172"/>
      <use xlink:href="#DejaVuSans-73" x="650.488281"/>
      <use xlink:href="#DejaVuSans-75" x="702.587891"/>
      <use xlink:href="#DejaVuSans-72" x="765.966797"/>
      <use xlink:href="#DejaVuSans-70" x="807.080078"/>
      <use xlink:href="#DejaVuSans-72" x="870.556641"/>
      <use xlink:href="#DejaVuSans-69" x="911.669922"/>
      <use xlink:href="#DejaVuSans-73" x="939.453125"/>
      <use xlink:href="#DejaVuSans-61" x="991.552734"/>
      <use xlink:href="#DejaVuSans-6c" x="1052.832031"/>
     </g>
    </g>
    <g id="line2d_35">
     <path d="M 524.56 98.690937 
L 534.56 98.690937 
L 544.56 98.690937 
" style="fill: none; stroke: #9467bd; stroke-width: 1.5; stroke-linecap: square"/>
    </g>
    <g id="text_24">
     <!-- Node random split -->
     <g transform="translate(552.56 102.190937)scale(0.1 -0.1)">
      <use xlink:href="#DejaVuSans-4e"/>
      <use xlink:href="#DejaVuSans-6f" x="74.804688"/>
      <use xlink:href="#DejaVuSans-64" x="135.986328"/>
      <use xlink:href="#DejaVuSans-65" x="199.462891"/>
      <use xlink:href="#DejaVuSans-20" x="260.986328"/>
      <use xlink:href="#DejaVuSans-72" x="292.773438"/>
      <use xlink:href="#DejaVuSans-61" x="333.886719"/>
      <use xlink:href="#DejaVuSans-6e" x="395.166016"/>
      <use xlink:href="#DejaVuSans-64" x="458.544922"/>
      <use xlink:href="#DejaVuSans-6f" x="522.021484"/>
      <use xlink:href="#DejaVuSans-6d" x="583.203125"/>
      <use xlink:href="#DejaVuSans-20" x="680.615234"/>
      <use xlink:href="#DejaVuSans-73" x="712.402344"/>
      <use xlink:href="#DejaVuSans-70" x="764.501953"/>
      <use xlink:href="#DejaVuSans-6c" x="827.978516"/>
      <use xlink:href="#DejaVuSans-69" x="855.761719"/>
      <use xlink:href="#DejaVuSans-74" x="883.544922"/>
     </g>
    </g>
    <g id="line2d_36">
     <path d="M 524.56 113.369062 
L 534.56 113.369062 
L 544.56 113.369062 
" style="fill: none; stroke: #8c564b; stroke-width: 1.5; stroke-linecap: square"/>
    </g>
    <g id="text_25">
     <!-- Node random split + surprisal -->
     <g transform="translate(552.56 116.869062)scale(0.1 -0.1)">
      <use xlink:href="#DejaVuSans-4e"/>
      <use xlink:href="#DejaVuSans-6f" x="74.804688"/>
      <use xlink:href="#DejaVuSans-64" x="135.986328"/>
      <use xlink:href="#DejaVuSans-65" x="199.462891"/>
      <use xlink:href="#DejaVuSans-20" x="260.986328"/>
      <use xlink:href="#DejaVuSans-72" x="292.773438"/>
      <use xlink:href="#DejaVuSans-61" x="333.886719"/>
      <use xlink:href="#DejaVuSans-6e" x="395.166016"/>
      <use xlink:href="#DejaVuSans-64" x="458.544922"/>
      <use xlink:href="#DejaVuSans-6f" x="522.021484"/>
      <use xlink:href="#DejaVuSans-6d" x="583.203125"/>
      <use xlink:href="#DejaVuSans-20" x="680.615234"/>
      <use xlink:href="#DejaVuSans-73" x="712.402344"/>
      <use xlink:href="#DejaVuSans-70" x="764.501953"/>
      <use xlink:href="#DejaVuSans-6c" x="827.978516"/>
      <use xlink:href="#DejaVuSans-69" x="855.761719"/>
      <use xlink:href="#DejaVuSans-74" x="883.544922"/>
      <use xlink:href="#DejaVuSans-20" x="922.753906"/>
      <use xlink:href="#DejaVuSans-2b" x="954.541016"/>
      <use xlink:href="#DejaVuSans-20" x="1038.330078"/>
      <use xlink:href="#DejaVuSans-73" x="1070.117188"/>
      <use xlink:href="#DejaVuSans-75" x="1122.216797"/>
      <use xlink:href="#DejaVuSans-72" x="1185.595703"/>
      <use xlink:href="#DejaVuSans-70" x="1226.708984"/>
      <use xlink:href="#DejaVuSans-72" x="1290.185547"/>
      <use xlink:href="#DejaVuSans-69" x="1331.298828"/>
      <use xlink:href="#DejaVuSans-73" x="1359.082031"/>
      <use xlink:href="#DejaVuSans-61" x="1411.181641"/>
      <use xlink:href="#DejaVuSans-6c" x="1472.460938"/>
     </g>
    </g>
    <g id="line2d_37">
     <path d="M 524.56 128.047187 
L 534.56 128.047187 
L 544.56 128.047187 
" style="fill: none; stroke: #e377c2; stroke-width: 1.5; stroke-linecap: square"/>
    </g>
    <g id="text_26">
     <!-- Interaction -->
     <g transform="translate(552.56 131.547187)scale(0.1 -0.1)">
      <use xlink:href="#DejaVuSans-49"/>
      <use xlink:href="#DejaVuSans-6e" x="29.492188"/>
      <use xlink:href="#DejaVuSans-74" x="92.871094"/>
      <use xlink:href="#DejaVuSans-65" x="132.080078"/>
      <use xlink:href="#DejaVuSans-72" x="193.603516"/>
      <use xlink:href="#DejaVuSans-61" x="234.716797"/>
      <use xlink:href="#DejaVuSans-63" x="295.996094"/>
      <use xlink:href="#DejaVuSans-74" x="350.976562"/>
      <use xlink:href="#DejaVuSans-69" x="390.185547"/>
      <use xlink:href="#DejaVuSans-6f" x="417.96875"/>
      <use xlink:href="#DejaVuSans-6e" x="479.150391"/>
     </g>
    </g>
    <g id="line2d_38">
     <path d="M 524.56 142.725312 
L 534.56 142.725312 
L 544.56 142.725312 
" style="fill: none; stroke: #7f7f7f; stroke-width: 1.5; stroke-linecap: square"/>
    </g>
    <g id="text_27">
     <!-- Node + surprisal + interaction -->
     <g transform="translate(552.56 146.225312)scale(0.1 -0.1)">
      <use xlink:href="#DejaVuSans-4e"/>
      <use xlink:href="#DejaVuSans-6f" x="74.804688"/>
      <use xlink:href="#DejaVuSans-64" x="135.986328"/>
      <use xlink:href="#DejaVuSans-65" x="199.462891"/>
      <use xlink:href="#DejaVuSans-20" x="260.986328"/>
      <use xlink:href="#DejaVuSans-2b" x="292.773438"/>
      <use xlink:href="#DejaVuSans-20" x="376.5625"/>
      <use xlink:href="#DejaVuSans-73" x="408.349609"/>
      <use xlink:href="#DejaVuSans-75" x="460.449219"/>
      <use xlink:href="#DejaVuSans-72" x="523.828125"/>
      <use xlink:href="#DejaVuSans-70" x="564.941406"/>
      <use xlink:href="#DejaVuSans-72" x="628.417969"/>
      <use xlink:href="#DejaVuSans-69" x="669.53125"/>
      <use xlink:href="#DejaVuSans-73" x="697.314453"/>
      <use xlink:href="#DejaVuSans-61" x="749.414062"/>
      <use xlink:href="#DejaVuSans-6c" x="810.693359"/>
      <use xlink:href="#DejaVuSans-20" x="838.476562"/>
      <use xlink:href="#DejaVuSans-2b" x="870.263672"/>
      <use xlink:href="#DejaVuSans-20" x="954.052734"/>
      <use xlink:href="#DejaVuSans-69" x="985.839844"/>
      <use xlink:href="#DejaVuSans-6e" x="1013.623047"/>
      <use xlink:href="#DejaVuSans-74" x="1077.001953"/>
      <use xlink:href="#DejaVuSans-65" x="1116.210938"/>
      <use xlink:href="#DejaVuSans-72" x="1177.734375"/>
      <use xlink:href="#DejaVuSans-61" x="1218.847656"/>
      <use xlink:href="#DejaVuSans-63" x="1280.126953"/>
      <use xlink:href="#DejaVuSans-74" x="1335.107422"/>
      <use xlink:href="#DejaVuSans-69" x="1374.316406"/>
      <use xlink:href="#DejaVuSans-6f" x="1402.099609"/>
      <use xlink:href="#DejaVuSans-6e" x="1463.28125"/>
     </g>
    </g>
   </g>
  </g>
 </g>
 <defs>
  <clipPath id="p12b1d1df2c">
   <rect x="47.72" y="26.88" width="217.495" height="147.16"/>
  </clipPath>
  <clipPath id="paca00d235d">
   <rect x="298.065" y="26.88" width="217.495" height="147.16"/>
  </clipPath>
 </defs>
</svg>
