<?xml version="1.0" encoding="utf-8" standalone="no"?>
<!DOCTYPE svg PUBLIC "-//W3C//DTD SVG 1.1//EN"
  "http://www.w3.org/Graphics/SVG/1.1/DTD/svg11.dtd">
<svg xmlns:xlink="http://www.w3.org/1999/xlink" width="720pt" height="216pt" viewBox="0 0 720 216" xmlns="http://www.w3.org/2000/svg" version="1.1">
 <metadata>
  <rdf:RDF xmlns:dc="http://purl.org/dc/elements/1.1/" xmlns:cc="http://creativecommons.org/ns#" xmlns:rdf="http://www.w3.org/1999/02/22-rdf-syntax-ns#">
   <cc:Work>
    <dc:type rdf:resource="http://purl.org/dc/dcmitype/StillImage"/>
    <dc:date>2024-01-15T22:41:36.845794</dc:date>
    <dc:format>image/svg+xml</dc:format>
    <dc:creator>
     <cc:Agent>
      <dc:title>Matplotlib v3.5.1, https://matplotlib.org/</dc:title>
     </cc:Agent>
    </dc:creator>
   </cc:Work>
  </rdf:RDF>
 </metadata>
 <defs>
  <style type="text/css">*{stroke-linejoin: round; stroke-linecap: butt}</style>
 </defs>
 <g id="figure_1">
  <g id="patch_1">
   <path d="M 0 216 
L 720 216 
L 720 0 
L 0 0 
z
" style="fill: #ffffff"/>
  </g>
  <g id="axes_1">
   <g id="patch_2">
    <path d="M 47.72 174.04 
L 265.215 174.04 
L 265.215 26.88 
L 47.72 26.88 
z
" style="fill: #ffffff"/>
   </g>
   <g id="PolyCollection_1">
    <path d="M 47.72 33.654485 
L 47.72 34.2647 
L 59.167105 36.973669 
L 70.614211 43.181734 
L 82.061316 51.79454 
L 93.508421 62.682143 
L 104.955526 72.747019 
L 116.402632 83.003673 
L 127.849737 91.554192 
L 139.296842 101.615521 
L 150.743947 109.860677 
L 162.191053 118.375563 
L 173.638158 126.016144 
L 185.085263 133.153634 
L 196.532368 139.056052 
L 207.979474 144.09783 
L 219.426579 148.399107 
L 230.873684 151.500667 
L 242.320789 154.404306 
L 253.767895 156.472928 
L 265.215 158.022063 
L 265.215 144.965626 
L 265.215 144.965626 
L 253.767895 143.539106 
L 242.320789 140.396369 
L 230.873684 137.222203 
L 219.426579 133.765509 
L 207.979474 130.146239 
L 196.532368 125.502445 
L 185.085263 120.566066 
L 173.638158 114.448041 
L 162.191053 108.214076 
L 150.743947 100.939122 
L 139.296842 92.904668 
L 127.849737 83.521272 
L 116.402632 74.553575 
L 104.955526 64.443476 
L 93.508421 55.076736 
L 82.061316 46.439518 
L 70.614211 40.352679 
L 59.167105 35.468419 
L 47.72 33.654485 
z
" clip-path="url(#p90cfc89406)" style="fill: #1f77b4; fill-opacity: 0.4"/>
   </g>
   <g id="PolyCollection_2">
    <path d="M 47.72 33.662867 
L 47.72 34.27059 
L 59.167105 36.123508 
L 70.614211 39.280396 
L 82.061316 44.715035 
L 93.508421 52.4646 
L 104.955526 60.689164 
L 116.402632 69.715155 
L 127.849737 77.49325 
L 139.296842 87.005676 
L 150.743947 94.752251 
L 162.191053 102.751717 
L 173.638158 110.34251 
L 185.085263 117.60833 
L 196.532368 124.006812 
L 207.979474 129.264833 
L 219.426579 134.110061 
L 230.873684 138.470347 
L 242.320789 142.680065 
L 253.767895 145.504705 
L 265.215 148.42228 
L 265.215 134.099953 
L 265.215 134.099953 
L 253.767895 132.039989 
L 242.320789 128.001704 
L 230.873684 124.065029 
L 219.426579 120.137989 
L 207.979474 115.723302 
L 196.532368 110.991559 
L 185.085263 105.102313 
L 173.638158 98.301107 
L 162.191053 92.149379 
L 150.743947 84.832964 
L 139.296842 76.867655 
L 127.849737 68.761702 
L 116.402632 61.307156 
L 104.955526 53.535246 
L 93.508421 46.688595 
L 82.061316 41.044913 
L 70.614211 37.498193 
L 59.167105 34.921166 
L 47.72 33.662867 
z
" clip-path="url(#p90cfc89406)" style="fill: #ff7f0e; fill-opacity: 0.4"/>
   </g>
   <g id="PolyCollection_3">
    <path d="M 47.72 33.662203 
L 47.72 34.272228 
L 59.167105 36.363959 
L 70.614211 39.161182 
L 82.061316 43.410273 
L 93.508421 48.451332 
L 104.955526 53.323013 
L 116.402632 57.575857 
L 127.849737 62.118301 
L 139.296842 66.604712 
L 150.743947 70.736716 
L 162.191053 74.52572 
L 173.638158 78.629758 
L 185.085263 83.416399 
L 196.532368 87.699565 
L 207.979474 92.158176 
L 219.426579 97.001929 
L 230.873684 100.889813 
L 242.320789 105.71522 
L 253.767895 109.656241 
L 265.215 113.277206 
L 265.215 104.67541 
L 265.215 104.67541 
L 253.767895 101.892386 
L 242.320789 97.520435 
L 230.873684 93.724264 
L 219.426579 89.994279 
L 207.979474 86.309756 
L 196.532368 82.405248 
L 185.085263 78.047899 
L 173.638158 73.022615 
L 162.191053 68.48147 
L 150.743947 63.764497 
L 139.296842 59.457158 
L 127.849737 54.939063 
L 116.402632 51.231595 
L 104.955526 46.868722 
L 93.508421 42.747136 
L 82.061316 39.360953 
L 70.614211 37.109869 
L 59.167105 35.055052 
L 47.72 33.662203 
z
" clip-path="url(#p90cfc89406)" style="fill: #2ca02c; fill-opacity: 0.4"/>
   </g>
   <g id="PolyCollection_4">
    <path d="M 47.72 33.67559 
L 47.72 34.286064 
L 59.167105 36.008687 
L 70.614211 37.997591 
L 82.061316 41.496745 
L 93.508421 46.033615 
L 104.955526 50.898571 
L 116.402632 55.298675 
L 127.849737 60.092552 
L 139.296842 64.868289 
L 150.743947 69.245209 
L 162.191053 73.266341 
L 173.638158 77.656256 
L 185.085263 82.442333 
L 196.532368 86.824226 
L 207.979474 91.374082 
L 219.426579 96.193298 
L 230.873684 99.905565 
L 242.320789 104.331556 
L 253.767895 108.286751 
L 265.215 111.436489 
L 265.215 103.202278 
L 265.215 103.202278 
L 253.767895 100.42695 
L 242.320789 96.372111 
L 230.873684 92.655677 
L 219.426579 89.037371 
L 207.979474 85.523203 
L 196.532368 81.542156 
L 185.085263 77.311255 
L 173.638158 72.189218 
L 162.191053 67.473475 
L 150.743947 62.5658 
L 139.296842 58.065696 
L 127.849737 53.375211 
L 116.402632 49.552296 
L 104.955526 45.086725 
L 93.508421 41.254453 
L 82.061316 38.241927 
L 70.614211 36.411101 
L 59.167105 34.85353 
L 47.72 33.67559 
z
" clip-path="url(#p90cfc89406)" style="fill: #d62728; fill-opacity: 0.4"/>
   </g>
   <g id="PolyCollection_5">
    <path d="M 47.72 33.667116 
L 47.72 34.27853 
L 59.167105 37.0074 
L 70.614211 43.200592 
L 82.061316 51.800313 
L 93.508421 62.713047 
L 104.955526 72.779879 
L 116.402632 82.98418 
L 127.849737 91.820425 
L 139.296842 101.80143 
L 150.743947 110.118558 
L 162.191053 118.650467 
L 173.638158 126.109586 
L 185.085263 134.264989 
L 196.532368 139.395559 
L 207.979474 144.829545 
L 219.426579 148.424691 
L 230.873684 150.944518 
L 242.320789 153.848103 
L 253.767895 156.68215 
L 265.215 158.647736 
L 265.215 145.248646 
L 265.215 145.248646 
L 253.767895 143.779217 
L 242.320789 140.030329 
L 230.873684 136.950126 
L 219.426579 133.900977 
L 207.979474 130.8891 
L 196.532368 126.270312 
L 185.085263 120.58495 
L 173.638158 114.621648 
L 162.191053 107.953442 
L 150.743947 101.306265 
L 139.296842 93.33009 
L 127.849737 83.469498 
L 116.402632 74.813821 
L 104.955526 64.586695 
L 93.508421 55.051061 
L 82.061316 46.487996 
L 70.614211 40.391584 
L 59.167105 35.473824 
L 47.72 33.667116 
z
" clip-path="url(#p90cfc89406)" style="fill: #9467bd; fill-opacity: 0.4"/>
   </g>
   <g id="PolyCollection_6">
    <path d="M 47.72 33.674957 
L 47.72 34.284788 
L 59.167105 36.149794 
L 70.614211 39.308669 
L 82.061316 44.712009 
L 93.508421 52.500506 
L 104.955526 60.648889 
L 116.402632 69.75638 
L 127.849737 77.90703 
L 139.296842 87.174674 
L 150.743947 94.877983 
L 162.191053 102.796435 
L 173.638158 110.434948 
L 185.085263 118.198338 
L 196.532368 124.499022 
L 207.979474 129.944141 
L 219.426579 134.003302 
L 230.873684 137.830709 
L 242.320789 142.351702 
L 253.767895 145.657609 
L 265.215 149.116055 
L 265.215 134.245739 
L 265.215 134.245739 
L 253.767895 132.261832 
L 242.320789 127.780012 
L 230.873684 124.122767 
L 219.426579 120.424697 
L 207.979474 116.108352 
L 196.532368 111.604444 
L 185.085263 105.040307 
L 173.638158 98.449464 
L 162.191053 92.040794 
L 150.743947 85.083991 
L 139.296842 77.141522 
L 127.849737 68.744784 
L 116.402632 61.488995 
L 104.955526 53.655108 
L 93.508421 46.694059 
L 82.061316 41.065574 
L 70.614211 37.515071 
L 59.167105 34.934654 
L 47.72 33.674957 
z
" clip-path="url(#p90cfc89406)" style="fill: #8c564b; fill-opacity: 0.4"/>
   </g>
   <g id="PolyCollection_7">
    <path d="M 47.72 43.849315 
L 47.72 47.590744 
L 59.167105 51.460828 
L 70.614211 58.891538 
L 82.061316 70.500839 
L 93.508421 83.211347 
L 104.955526 94.354102 
L 116.402632 104.276089 
L 127.849737 112.54225 
L 139.296842 120.912923 
L 150.743947 127.726124 
L 162.191053 133.999733 
L 173.638158 139.912691 
L 185.085263 145.76741 
L 196.532368 151.141612 
L 207.979474 155.525931 
L 219.426579 159.620705 
L 230.873684 162.194311 
L 242.320789 164.807474 
L 253.767895 166.466812 
L 265.215 167.350909 
L 265.215 157.737447 
L 265.215 157.737447 
L 253.767895 156.196594 
L 242.320789 154.135697 
L 230.873684 151.575614 
L 219.426579 148.364153 
L 207.979474 145.555297 
L 196.532368 141.084224 
L 185.085263 136.685608 
L 173.638158 130.476608 
L 162.191053 124.270859 
L 150.743947 116.029784 
L 139.296842 106.908259 
L 127.849737 97.083784 
L 116.402632 87.793325 
L 104.955526 77.684363 
L 93.508421 67.306508 
L 82.061316 57.62805 
L 70.614211 51.000559 
L 59.167105 46.206232 
L 47.72 43.849315 
z
" clip-path="url(#p90cfc89406)" style="fill: #e377c2; fill-opacity: 0.4"/>
   </g>
   <g id="PolyCollection_8">
    <path d="M 47.72 33.67833 
L 47.72 34.285866 
L 59.167105 35.220768 
L 70.614211 35.617783 
L 82.061316 38.653299 
L 93.508421 44.353192 
L 104.955526 51.635673 
L 116.402632 59.376089 
L 127.849737 67.356062 
L 139.296842 75.75936 
L 150.743947 83.297321 
L 162.191053 90.016694 
L 173.638158 97.172312 
L 185.085263 103.912134 
L 196.532368 110.577056 
L 207.979474 116.825346 
L 219.426579 122.177483 
L 230.873684 127.27971 
L 242.320789 132.665515 
L 253.767895 136.544503 
L 265.215 140.522485 
L 265.215 129.351284 
L 265.215 129.351284 
L 253.767895 126.600751 
L 242.320789 121.770625 
L 230.873684 117.145908 
L 219.426579 111.997432 
L 207.979474 106.356628 
L 196.532368 100.389255 
L 185.085263 93.903633 
L 173.638158 85.754037 
L 162.191053 78.310029 
L 150.743947 69.587177 
L 139.296842 61.552885 
L 127.849737 54.002209 
L 116.402632 47.375816 
L 104.955526 41.806027 
L 93.508421 37.685447 
L 82.061316 35.513513 
L 70.614211 34.768818 
L 59.167105 34.279574 
L 47.72 33.67833 
z
" clip-path="url(#p90cfc89406)" style="fill: #7f7f7f; fill-opacity: 0.4"/>
   </g>
   <g id="matplotlib.axis_1">
    <g id="xtick_1">
     <g id="line2d_1">
      <defs>
       <path id="ma3317953f2" d="M 0 0 
L 0 3.5 
" style="stroke: #000000; stroke-width: 0.8"/>
      </defs>
      <g>
       <use xlink:href="#ma3317953f2" x="47.72" y="174.04" style="stroke: #000000; stroke-width: 0.8"/>
      </g>
     </g>
     <g id="text_1">
      <!-- 0.0 -->
      <g transform="translate(39.768438 188.638438)scale(0.1 -0.1)">
       <defs>
        <path id="DejaVuSans-30" d="M 2034 4250 
Q 1547 4250 1301 3770 
Q 1056 3291 1056 2328 
Q 1056 1369 1301 889 
Q 1547 409 2034 409 
Q 2525 409 2770 889 
Q 3016 1369 3016 2328 
Q 3016 3291 2770 3770 
Q 2525 4250 2034 4250 
z
M 2034 4750 
Q 2819 4750 3233 4129 
Q 3647 3509 3647 2328 
Q 3647 1150 3233 529 
Q 2819 -91 2034 -91 
Q 1250 -91 836 529 
Q 422 1150 422 2328 
Q 422 3509 836 4129 
Q 1250 4750 2034 4750 
z
" transform="scale(0.015625)"/>
        <path id="DejaVuSans-2e" d="M 684 794 
L 1344 794 
L 1344 0 
L 684 0 
L 684 794 
z
" transform="scale(0.015625)"/>
       </defs>
       <use xlink:href="#DejaVuSans-30"/>
       <use xlink:href="#DejaVuSans-2e" x="63.623047"/>
       <use xlink:href="#DejaVuSans-30" x="95.410156"/>
      </g>
     </g>
    </g>
    <g id="xtick_2">
     <g id="line2d_2">
      <g>
       <use xlink:href="#ma3317953f2" x="102.09375" y="174.04" style="stroke: #000000; stroke-width: 0.8"/>
      </g>
     </g>
     <g id="text_2">
      <!-- 0.5 -->
      <g transform="translate(94.142188 188.638438)scale(0.1 -0.1)">
       <defs>
        <path id="DejaVuSans-35" d="M 691 4666 
L 3169 4666 
L 3169 4134 
L 1269 4134 
L 1269 2991 
Q 1406 3038 1543 3061 
Q 1681 3084 1819 3084 
Q 2600 3084 3056 2656 
Q 3513 2228 3513 1497 
Q 3513 744 3044 326 
Q 2575 -91 1722 -91 
Q 1428 -91 1123 -41 
Q 819 9 494 109 
L 494 744 
Q 775 591 1075 516 
Q 1375 441 1709 441 
Q 2250 441 2565 725 
Q 2881 1009 2881 1497 
Q 2881 1984 2565 2268 
Q 2250 2553 1709 2553 
Q 1456 2553 1204 2497 
Q 953 2441 691 2322 
L 691 4666 
z
" transform="scale(0.015625)"/>
       </defs>
       <use xlink:href="#DejaVuSans-30"/>
       <use xlink:href="#DejaVuSans-2e" x="63.623047"/>
       <use xlink:href="#DejaVuSans-35" x="95.410156"/>
      </g>
     </g>
    </g>
    <g id="xtick_3">
     <g id="line2d_3">
      <g>
       <use xlink:href="#ma3317953f2" x="156.4675" y="174.04" style="stroke: #000000; stroke-width: 0.8"/>
      </g>
     </g>
     <g id="text_3">
      <!-- 1.0 -->
      <g transform="translate(148.515938 188.638438)scale(0.1 -0.1)">
       <defs>
        <path id="DejaVuSans-31" d="M 794 531 
L 1825 531 
L 1825 4091 
L 703 3866 
L 703 4441 
L 1819 4666 
L 2450 4666 
L 2450 531 
L 3481 531 
L 3481 0 
L 794 0 
L 794 531 
z
" transform="scale(0.015625)"/>
       </defs>
       <use xlink:href="#DejaVuSans-31"/>
       <use xlink:href="#DejaVuSans-2e" x="63.623047"/>
       <use xlink:href="#DejaVuSans-30" x="95.410156"/>
      </g>
     </g>
    </g>
    <g id="xtick_4">
     <g id="line2d_4">
      <g>
       <use xlink:href="#ma3317953f2" x="210.84125" y="174.04" style="stroke: #000000; stroke-width: 0.8"/>
      </g>
     </g>
     <g id="text_4">
      <!-- 1.5 -->
      <g transform="translate(202.889687 188.638438)scale(0.1 -0.1)">
       <use xlink:href="#DejaVuSans-31"/>
       <use xlink:href="#DejaVuSans-2e" x="63.623047"/>
       <use xlink:href="#DejaVuSans-35" x="95.410156"/>
      </g>
     </g>
    </g>
    <g id="xtick_5">
     <g id="line2d_5">
      <g>
       <use xlink:href="#ma3317953f2" x="265.215" y="174.04" style="stroke: #000000; stroke-width: 0.8"/>
      </g>
     </g>
     <g id="text_5">
      <!-- 2.0 -->
      <g transform="translate(257.263437 188.638438)scale(0.1 -0.1)">
       <defs>
        <path id="DejaVuSans-32" d="M 1228 531 
L 3431 531 
L 3431 0 
L 469 0 
L 469 531 
Q 828 903 1448 1529 
Q 2069 2156 2228 2338 
Q 2531 2678 2651 2914 
Q 2772 3150 2772 3378 
Q 2772 3750 2511 3984 
Q 2250 4219 1831 4219 
Q 1534 4219 1204 4116 
Q 875 4013 500 3803 
L 500 4441 
Q 881 4594 1212 4672 
Q 1544 4750 1819 4750 
Q 2544 4750 2975 4387 
Q 3406 4025 3406 3419 
Q 3406 3131 3298 2873 
Q 3191 2616 2906 2266 
Q 2828 2175 2409 1742 
Q 1991 1309 1228 531 
z
" transform="scale(0.015625)"/>
       </defs>
       <use xlink:href="#DejaVuSans-32"/>
       <use xlink:href="#DejaVuSans-2e" x="63.623047"/>
       <use xlink:href="#DejaVuSans-30" x="95.410156"/>
      </g>
     </g>
    </g>
    <g id="text_6">
     <!-- Influence of surprisal (multiplication) -->
     <g transform="translate(64.320625 202.316563)scale(0.1 -0.1)">
      <defs>
       <path id="DejaVuSans-49" d="M 628 4666 
L 1259 4666 
L 1259 0 
L 628 0 
L 628 4666 
z
" transform="scale(0.015625)"/>
       <path id="DejaVuSans-6e" d="M 3513 2113 
L 3513 0 
L 2938 0 
L 2938 2094 
Q 2938 2591 2744 2837 
Q 2550 3084 2163 3084 
Q 1697 3084 1428 2787 
Q 1159 2491 1159 1978 
L 1159 0 
L 581 0 
L 581 3500 
L 1159 3500 
L 1159 2956 
Q 1366 3272 1645 3428 
Q 1925 3584 2291 3584 
Q 2894 3584 3203 3211 
Q 3513 2838 3513 2113 
z
" transform="scale(0.015625)"/>
       <path id="DejaVuSans-66" d="M 2375 4863 
L 2375 4384 
L 1825 4384 
Q 1516 4384 1395 4259 
Q 1275 4134 1275 3809 
L 1275 3500 
L 2222 3500 
L 2222 3053 
L 1275 3053 
L 1275 0 
L 697 0 
L 697 3053 
L 147 3053 
L 147 3500 
L 697 3500 
L 697 3744 
Q 697 4328 969 4595 
Q 1241 4863 1831 4863 
L 2375 4863 
z
" transform="scale(0.015625)"/>
       <path id="DejaVuSans-6c" d="M 603 4863 
L 1178 4863 
L 1178 0 
L 603 0 
L 603 4863 
z
" transform="scale(0.015625)"/>
       <path id="DejaVuSans-75" d="M 544 1381 
L 544 3500 
L 1119 3500 
L 1119 1403 
Q 1119 906 1312 657 
Q 1506 409 1894 409 
Q 2359 409 2629 706 
Q 2900 1003 2900 1516 
L 2900 3500 
L 3475 3500 
L 3475 0 
L 2900 0 
L 2900 538 
Q 2691 219 2414 64 
Q 2138 -91 1772 -91 
Q 1169 -91 856 284 
Q 544 659 544 1381 
z
M 1991 3584 
L 1991 3584 
z
" transform="scale(0.015625)"/>
       <path id="DejaVuSans-65" d="M 3597 1894 
L 3597 1613 
L 953 1613 
Q 991 1019 1311 708 
Q 1631 397 2203 397 
Q 2534 397 2845 478 
Q 3156 559 3463 722 
L 3463 178 
Q 3153 47 2828 -22 
Q 2503 -91 2169 -91 
Q 1331 -91 842 396 
Q 353 884 353 1716 
Q 353 2575 817 3079 
Q 1281 3584 2069 3584 
Q 2775 3584 3186 3129 
Q 3597 2675 3597 1894 
z
M 3022 2063 
Q 3016 2534 2758 2815 
Q 2500 3097 2075 3097 
Q 1594 3097 1305 2825 
Q 1016 2553 972 2059 
L 3022 2063 
z
" transform="scale(0.015625)"/>
       <path id="DejaVuSans-63" d="M 3122 3366 
L 3122 2828 
Q 2878 2963 2633 3030 
Q 2388 3097 2138 3097 
Q 1578 3097 1268 2742 
Q 959 2388 959 1747 
Q 959 1106 1268 751 
Q 1578 397 2138 397 
Q 2388 397 2633 464 
Q 2878 531 3122 666 
L 3122 134 
Q 2881 22 2623 -34 
Q 2366 -91 2075 -91 
Q 1284 -91 818 406 
Q 353 903 353 1747 
Q 353 2603 823 3093 
Q 1294 3584 2113 3584 
Q 2378 3584 2631 3529 
Q 2884 3475 3122 3366 
z
" transform="scale(0.015625)"/>
       <path id="DejaVuSans-20" transform="scale(0.015625)"/>
       <path id="DejaVuSans-6f" d="M 1959 3097 
Q 1497 3097 1228 2736 
Q 959 2375 959 1747 
Q 959 1119 1226 758 
Q 1494 397 1959 397 
Q 2419 397 2687 759 
Q 2956 1122 2956 1747 
Q 2956 2369 2687 2733 
Q 2419 3097 1959 3097 
z
M 1959 3584 
Q 2709 3584 3137 3096 
Q 3566 2609 3566 1747 
Q 3566 888 3137 398 
Q 2709 -91 1959 -91 
Q 1206 -91 779 398 
Q 353 888 353 1747 
Q 353 2609 779 3096 
Q 1206 3584 1959 3584 
z
" transform="scale(0.015625)"/>
       <path id="DejaVuSans-73" d="M 2834 3397 
L 2834 2853 
Q 2591 2978 2328 3040 
Q 2066 3103 1784 3103 
Q 1356 3103 1142 2972 
Q 928 2841 928 2578 
Q 928 2378 1081 2264 
Q 1234 2150 1697 2047 
L 1894 2003 
Q 2506 1872 2764 1633 
Q 3022 1394 3022 966 
Q 3022 478 2636 193 
Q 2250 -91 1575 -91 
Q 1294 -91 989 -36 
Q 684 19 347 128 
L 347 722 
Q 666 556 975 473 
Q 1284 391 1588 391 
Q 1994 391 2212 530 
Q 2431 669 2431 922 
Q 2431 1156 2273 1281 
Q 2116 1406 1581 1522 
L 1381 1569 
Q 847 1681 609 1914 
Q 372 2147 372 2553 
Q 372 3047 722 3315 
Q 1072 3584 1716 3584 
Q 2034 3584 2315 3537 
Q 2597 3491 2834 3397 
z
" transform="scale(0.015625)"/>
       <path id="DejaVuSans-72" d="M 2631 2963 
Q 2534 3019 2420 3045 
Q 2306 3072 2169 3072 
Q 1681 3072 1420 2755 
Q 1159 2438 1159 1844 
L 1159 0 
L 581 0 
L 581 3500 
L 1159 3500 
L 1159 2956 
Q 1341 3275 1631 3429 
Q 1922 3584 2338 3584 
Q 2397 3584 2469 3576 
Q 2541 3569 2628 3553 
L 2631 2963 
z
" transform="scale(0.015625)"/>
       <path id="DejaVuSans-70" d="M 1159 525 
L 1159 -1331 
L 581 -1331 
L 581 3500 
L 1159 3500 
L 1159 2969 
Q 1341 3281 1617 3432 
Q 1894 3584 2278 3584 
Q 2916 3584 3314 3078 
Q 3713 2572 3713 1747 
Q 3713 922 3314 415 
Q 2916 -91 2278 -91 
Q 1894 -91 1617 61 
Q 1341 213 1159 525 
z
M 3116 1747 
Q 3116 2381 2855 2742 
Q 2594 3103 2138 3103 
Q 1681 3103 1420 2742 
Q 1159 2381 1159 1747 
Q 1159 1113 1420 752 
Q 1681 391 2138 391 
Q 2594 391 2855 752 
Q 3116 1113 3116 1747 
z
" transform="scale(0.015625)"/>
       <path id="DejaVuSans-69" d="M 603 3500 
L 1178 3500 
L 1178 0 
L 603 0 
L 603 3500 
z
M 603 4863 
L 1178 4863 
L 1178 4134 
L 603 4134 
L 603 4863 
z
" transform="scale(0.015625)"/>
       <path id="DejaVuSans-61" d="M 2194 1759 
Q 1497 1759 1228 1600 
Q 959 1441 959 1056 
Q 959 750 1161 570 
Q 1363 391 1709 391 
Q 2188 391 2477 730 
Q 2766 1069 2766 1631 
L 2766 1759 
L 2194 1759 
z
M 3341 1997 
L 3341 0 
L 2766 0 
L 2766 531 
Q 2569 213 2275 61 
Q 1981 -91 1556 -91 
Q 1019 -91 701 211 
Q 384 513 384 1019 
Q 384 1609 779 1909 
Q 1175 2209 1959 2209 
L 2766 2209 
L 2766 2266 
Q 2766 2663 2505 2880 
Q 2244 3097 1772 3097 
Q 1472 3097 1187 3025 
Q 903 2953 641 2809 
L 641 3341 
Q 956 3463 1253 3523 
Q 1550 3584 1831 3584 
Q 2591 3584 2966 3190 
Q 3341 2797 3341 1997 
z
" transform="scale(0.015625)"/>
       <path id="DejaVuSans-28" d="M 1984 4856 
Q 1566 4138 1362 3434 
Q 1159 2731 1159 2009 
Q 1159 1288 1364 580 
Q 1569 -128 1984 -844 
L 1484 -844 
Q 1016 -109 783 600 
Q 550 1309 550 2009 
Q 550 2706 781 3412 
Q 1013 4119 1484 4856 
L 1984 4856 
z
" transform="scale(0.015625)"/>
       <path id="DejaVuSans-6d" d="M 3328 2828 
Q 3544 3216 3844 3400 
Q 4144 3584 4550 3584 
Q 5097 3584 5394 3201 
Q 5691 2819 5691 2113 
L 5691 0 
L 5113 0 
L 5113 2094 
Q 5113 2597 4934 2840 
Q 4756 3084 4391 3084 
Q 3944 3084 3684 2787 
Q 3425 2491 3425 1978 
L 3425 0 
L 2847 0 
L 2847 2094 
Q 2847 2600 2669 2842 
Q 2491 3084 2119 3084 
Q 1678 3084 1418 2786 
Q 1159 2488 1159 1978 
L 1159 0 
L 581 0 
L 581 3500 
L 1159 3500 
L 1159 2956 
Q 1356 3278 1631 3431 
Q 1906 3584 2284 3584 
Q 2666 3584 2933 3390 
Q 3200 3197 3328 2828 
z
" transform="scale(0.015625)"/>
       <path id="DejaVuSans-74" d="M 1172 4494 
L 1172 3500 
L 2356 3500 
L 2356 3053 
L 1172 3053 
L 1172 1153 
Q 1172 725 1289 603 
Q 1406 481 1766 481 
L 2356 481 
L 2356 0 
L 1766 0 
Q 1100 0 847 248 
Q 594 497 594 1153 
L 594 3053 
L 172 3053 
L 172 3500 
L 594 3500 
L 594 4494 
L 1172 4494 
z
" transform="scale(0.015625)"/>
       <path id="DejaVuSans-29" d="M 513 4856 
L 1013 4856 
Q 1481 4119 1714 3412 
Q 1947 2706 1947 2009 
Q 1947 1309 1714 600 
Q 1481 -109 1013 -844 
L 513 -844 
Q 928 -128 1133 580 
Q 1338 1288 1338 2009 
Q 1338 2731 1133 3434 
Q 928 4138 513 4856 
z
" transform="scale(0.015625)"/>
      </defs>
      <use xlink:href="#DejaVuSans-49"/>
      <use xlink:href="#DejaVuSans-6e" x="29.492188"/>
      <use xlink:href="#DejaVuSans-66" x="92.871094"/>
      <use xlink:href="#DejaVuSans-6c" x="128.076172"/>
      <use xlink:href="#DejaVuSans-75" x="155.859375"/>
      <use xlink:href="#DejaVuSans-65" x="219.238281"/>
      <use xlink:href="#DejaVuSans-6e" x="280.761719"/>
      <use xlink:href="#DejaVuSans-63" x="344.140625"/>
      <use xlink:href="#DejaVuSans-65" x="399.121094"/>
      <use xlink:href="#DejaVuSans-20" x="460.644531"/>
      <use xlink:href="#DejaVuSans-6f" x="492.431641"/>
      <use xlink:href="#DejaVuSans-66" x="553.613281"/>
      <use xlink:href="#DejaVuSans-20" x="588.818359"/>
      <use xlink:href="#DejaVuSans-73" x="620.605469"/>
      <use xlink:href="#DejaVuSans-75" x="672.705078"/>
      <use xlink:href="#DejaVuSans-72" x="736.083984"/>
      <use xlink:href="#DejaVuSans-70" x="777.197266"/>
      <use xlink:href="#DejaVuSans-72" x="840.673828"/>
      <use xlink:href="#DejaVuSans-69" x="881.787109"/>
      <use xlink:href="#DejaVuSans-73" x="909.570312"/>
      <use xlink:href="#DejaVuSans-61" x="961.669922"/>
      <use xlink:href="#DejaVuSans-6c" x="1022.949219"/>
      <use xlink:href="#DejaVuSans-20" x="1050.732422"/>
      <use xlink:href="#DejaVuSans-28" x="1082.519531"/>
      <use xlink:href="#DejaVuSans-6d" x="1121.533203"/>
      <use xlink:href="#DejaVuSans-75" x="1218.945312"/>
      <use xlink:href="#DejaVuSans-6c" x="1282.324219"/>
      <use xlink:href="#DejaVuSans-74" x="1310.107422"/>
      <use xlink:href="#DejaVuSans-69" x="1349.316406"/>
      <use xlink:href="#DejaVuSans-70" x="1377.099609"/>
      <use xlink:href="#DejaVuSans-6c" x="1440.576172"/>
      <use xlink:href="#DejaVuSans-69" x="1468.359375"/>
      <use xlink:href="#DejaVuSans-63" x="1496.142578"/>
      <use xlink:href="#DejaVuSans-61" x="1551.123047"/>
      <use xlink:href="#DejaVuSans-74" x="1612.402344"/>
      <use xlink:href="#DejaVuSans-69" x="1651.611328"/>
      <use xlink:href="#DejaVuSans-6f" x="1679.394531"/>
      <use xlink:href="#DejaVuSans-6e" x="1740.576172"/>
      <use xlink:href="#DejaVuSans-29" x="1803.955078"/>
     </g>
    </g>
   </g>
   <g id="matplotlib.axis_2">
    <g id="ytick_1">
     <g id="line2d_6">
      <defs>
       <path id="meef82976b6" d="M 0 0 
L -3.5 0 
" style="stroke: #000000; stroke-width: 0.8"/>
      </defs>
      <g>
       <use xlink:href="#meef82976b6" x="47.72" y="149.326482" style="stroke: #000000; stroke-width: 0.8"/>
      </g>
     </g>
     <g id="text_7">
      <!-- 0.2 -->
      <g transform="translate(24.816875 153.1257)scale(0.1 -0.1)">
       <use xlink:href="#DejaVuSans-30"/>
       <use xlink:href="#DejaVuSans-2e" x="63.623047"/>
       <use xlink:href="#DejaVuSans-32" x="95.410156"/>
      </g>
     </g>
    </g>
    <g id="ytick_2">
     <g id="line2d_7">
      <g>
       <use xlink:href="#meef82976b6" x="47.72" y="118.433171" style="stroke: #000000; stroke-width: 0.8"/>
      </g>
     </g>
     <g id="text_8">
      <!-- 0.4 -->
      <g transform="translate(24.816875 122.23239)scale(0.1 -0.1)">
       <defs>
        <path id="DejaVuSans-34" d="M 2419 4116 
L 825 1625 
L 2419 1625 
L 2419 4116 
z
M 2253 4666 
L 3047 4666 
L 3047 1625 
L 3713 1625 
L 3713 1100 
L 3047 1100 
L 3047 0 
L 2419 0 
L 2419 1100 
L 313 1100 
L 313 1709 
L 2253 4666 
z
" transform="scale(0.015625)"/>
       </defs>
       <use xlink:href="#DejaVuSans-30"/>
       <use xlink:href="#DejaVuSans-2e" x="63.623047"/>
       <use xlink:href="#DejaVuSans-34" x="95.410156"/>
      </g>
     </g>
    </g>
    <g id="ytick_3">
     <g id="line2d_8">
      <g>
       <use xlink:href="#meef82976b6" x="47.72" y="87.539861" style="stroke: #000000; stroke-width: 0.8"/>
      </g>
     </g>
     <g id="text_9">
      <!-- 0.6 -->
      <g transform="translate(24.816875 91.33908)scale(0.1 -0.1)">
       <defs>
        <path id="DejaVuSans-36" d="M 2113 2584 
Q 1688 2584 1439 2293 
Q 1191 2003 1191 1497 
Q 1191 994 1439 701 
Q 1688 409 2113 409 
Q 2538 409 2786 701 
Q 3034 994 3034 1497 
Q 3034 2003 2786 2293 
Q 2538 2584 2113 2584 
z
M 3366 4563 
L 3366 3988 
Q 3128 4100 2886 4159 
Q 2644 4219 2406 4219 
Q 1781 4219 1451 3797 
Q 1122 3375 1075 2522 
Q 1259 2794 1537 2939 
Q 1816 3084 2150 3084 
Q 2853 3084 3261 2657 
Q 3669 2231 3669 1497 
Q 3669 778 3244 343 
Q 2819 -91 2113 -91 
Q 1303 -91 875 529 
Q 447 1150 447 2328 
Q 447 3434 972 4092 
Q 1497 4750 2381 4750 
Q 2619 4750 2861 4703 
Q 3103 4656 3366 4563 
z
" transform="scale(0.015625)"/>
       </defs>
       <use xlink:href="#DejaVuSans-30"/>
       <use xlink:href="#DejaVuSans-2e" x="63.623047"/>
       <use xlink:href="#DejaVuSans-36" x="95.410156"/>
      </g>
     </g>
    </g>
    <g id="ytick_4">
     <g id="line2d_9">
      <g>
       <use xlink:href="#meef82976b6" x="47.72" y="56.64655" style="stroke: #000000; stroke-width: 0.8"/>
      </g>
     </g>
     <g id="text_10">
      <!-- 0.8 -->
      <g transform="translate(24.816875 60.445769)scale(0.1 -0.1)">
       <defs>
        <path id="DejaVuSans-38" d="M 2034 2216 
Q 1584 2216 1326 1975 
Q 1069 1734 1069 1313 
Q 1069 891 1326 650 
Q 1584 409 2034 409 
Q 2484 409 2743 651 
Q 3003 894 3003 1313 
Q 3003 1734 2745 1975 
Q 2488 2216 2034 2216 
z
M 1403 2484 
Q 997 2584 770 2862 
Q 544 3141 544 3541 
Q 544 4100 942 4425 
Q 1341 4750 2034 4750 
Q 2731 4750 3128 4425 
Q 3525 4100 3525 3541 
Q 3525 3141 3298 2862 
Q 3072 2584 2669 2484 
Q 3125 2378 3379 2068 
Q 3634 1759 3634 1313 
Q 3634 634 3220 271 
Q 2806 -91 2034 -91 
Q 1263 -91 848 271 
Q 434 634 434 1313 
Q 434 1759 690 2068 
Q 947 2378 1403 2484 
z
M 1172 3481 
Q 1172 3119 1398 2916 
Q 1625 2713 2034 2713 
Q 2441 2713 2670 2916 
Q 2900 3119 2900 3481 
Q 2900 3844 2670 4047 
Q 2441 4250 2034 4250 
Q 1625 4250 1398 4047 
Q 1172 3844 1172 3481 
z
" transform="scale(0.015625)"/>
       </defs>
       <use xlink:href="#DejaVuSans-30"/>
       <use xlink:href="#DejaVuSans-2e" x="63.623047"/>
       <use xlink:href="#DejaVuSans-38" x="95.410156"/>
      </g>
     </g>
    </g>
    <g id="text_11">
     <!-- R-value -->
     <g transform="translate(18.737188 119.064687)rotate(-90)scale(0.1 -0.1)">
      <defs>
       <path id="DejaVuSans-52" d="M 2841 2188 
Q 3044 2119 3236 1894 
Q 3428 1669 3622 1275 
L 4263 0 
L 3584 0 
L 2988 1197 
Q 2756 1666 2539 1819 
Q 2322 1972 1947 1972 
L 1259 1972 
L 1259 0 
L 628 0 
L 628 4666 
L 2053 4666 
Q 2853 4666 3247 4331 
Q 3641 3997 3641 3322 
Q 3641 2881 3436 2590 
Q 3231 2300 2841 2188 
z
M 1259 4147 
L 1259 2491 
L 2053 2491 
Q 2509 2491 2742 2702 
Q 2975 2913 2975 3322 
Q 2975 3731 2742 3939 
Q 2509 4147 2053 4147 
L 1259 4147 
z
" transform="scale(0.015625)"/>
       <path id="DejaVuSans-2d" d="M 313 2009 
L 1997 2009 
L 1997 1497 
L 313 1497 
L 313 2009 
z
" transform="scale(0.015625)"/>
       <path id="DejaVuSans-76" d="M 191 3500 
L 800 3500 
L 1894 563 
L 2988 3500 
L 3597 3500 
L 2284 0 
L 1503 0 
L 191 3500 
z
" transform="scale(0.015625)"/>
      </defs>
      <use xlink:href="#DejaVuSans-52"/>
      <use xlink:href="#DejaVuSans-2d" x="65.482422"/>
      <use xlink:href="#DejaVuSans-76" x="98.941406"/>
      <use xlink:href="#DejaVuSans-61" x="158.121094"/>
      <use xlink:href="#DejaVuSans-6c" x="219.400391"/>
      <use xlink:href="#DejaVuSans-75" x="247.183594"/>
      <use xlink:href="#DejaVuSans-65" x="310.5625"/>
     </g>
    </g>
   </g>
   <g id="line2d_10">
    <path d="M 47.72 33.959592 
L 59.167105 36.221044 
L 70.614211 41.767207 
L 82.061316 49.117029 
L 93.508421 58.87944 
L 104.955526 68.595248 
L 116.402632 78.778624 
L 127.849737 87.537732 
L 139.296842 97.260095 
L 150.743947 105.3999 
L 162.191053 113.294819 
L 173.638158 120.232092 
L 185.085263 126.85985 
L 196.532368 132.279249 
L 207.979474 137.122035 
L 219.426579 141.082308 
L 230.873684 144.361435 
L 242.320789 147.400338 
L 253.767895 150.006017 
L 265.215 151.493845 
" clip-path="url(#p90cfc89406)" style="fill: none; stroke: #1f77b4; stroke-width: 1.5; stroke-linecap: square"/>
   </g>
   <g id="line2d_11">
    <path d="M 47.72 33.966729 
L 59.167105 35.522337 
L 70.614211 38.389295 
L 82.061316 42.879974 
L 93.508421 49.576598 
L 104.955526 57.112205 
L 116.402632 65.511156 
L 127.849737 73.127476 
L 139.296842 81.936665 
L 150.743947 89.792607 
L 162.191053 97.450548 
L 173.638158 104.321809 
L 185.085263 111.355321 
L 196.532368 117.499186 
L 207.979474 122.494068 
L 219.426579 127.124025 
L 230.873684 131.267688 
L 242.320789 135.340885 
L 253.767895 138.772347 
L 265.215 141.261116 
" clip-path="url(#p90cfc89406)" style="fill: none; stroke: #ff7f0e; stroke-width: 1.5; stroke-linecap: square"/>
   </g>
   <g id="line2d_12">
    <path d="M 47.72 33.967216 
L 59.167105 35.709506 
L 70.614211 38.135526 
L 82.061316 41.385613 
L 93.508421 45.599234 
L 104.955526 50.095868 
L 116.402632 54.403726 
L 127.849737 58.528682 
L 139.296842 63.030935 
L 150.743947 67.250606 
L 162.191053 71.503595 
L 173.638158 75.826187 
L 185.085263 80.732149 
L 196.532368 85.052407 
L 207.979474 89.233966 
L 219.426579 93.498104 
L 230.873684 97.307038 
L 242.320789 101.617828 
L 253.767895 105.774313 
L 265.215 108.976308 
" clip-path="url(#p90cfc89406)" style="fill: none; stroke: #2ca02c; stroke-width: 1.5; stroke-linecap: square"/>
   </g>
   <g id="line2d_13">
    <path d="M 47.72 33.980827 
L 59.167105 35.431109 
L 70.614211 37.204346 
L 82.061316 39.869336 
L 93.508421 43.644034 
L 104.955526 47.992648 
L 116.402632 52.425485 
L 127.849737 56.733881 
L 139.296842 61.466993 
L 150.743947 65.905505 
L 162.191053 70.369908 
L 173.638158 74.922737 
L 185.085263 79.876794 
L 196.532368 84.183191 
L 207.979474 88.448643 
L 219.426579 92.615334 
L 230.873684 96.280621 
L 242.320789 100.351833 
L 253.767895 104.35685 
L 265.215 107.319384 
" clip-path="url(#p90cfc89406)" style="fill: none; stroke: #d62728; stroke-width: 1.5; stroke-linecap: square"/>
   </g>
   <g id="line2d_14">
    <path d="M 47.72 33.972823 
L 59.167105 36.240612 
L 70.614211 41.796088 
L 82.061316 49.144155 
L 93.508421 58.882054 
L 104.955526 68.683287 
L 116.402632 78.899 
L 127.849737 87.644962 
L 139.296842 97.56576 
L 150.743947 105.712412 
L 162.191053 113.301954 
L 173.638158 120.365617 
L 185.085263 127.424969 
L 196.532368 132.832936 
L 207.979474 137.859322 
L 219.426579 141.162834 
L 230.873684 143.947322 
L 242.320789 146.939216 
L 253.767895 150.230683 
L 265.215 151.948191 
" clip-path="url(#p90cfc89406)" style="fill: none; stroke: #9467bd; stroke-width: 1.5; stroke-linecap: square"/>
   </g>
   <g id="line2d_15">
    <path d="M 47.72 33.979872 
L 59.167105 35.542224 
L 70.614211 38.41187 
L 82.061316 42.888792 
L 93.508421 49.597283 
L 104.955526 57.151998 
L 116.402632 65.622688 
L 127.849737 73.325907 
L 139.296842 82.158098 
L 150.743947 89.980987 
L 162.191053 97.418615 
L 173.638158 104.442206 
L 185.085263 111.619322 
L 196.532368 118.051733 
L 207.979474 123.026246 
L 219.426579 127.214 
L 230.873684 130.976738 
L 242.320789 135.065857 
L 253.767895 138.959721 
L 265.215 141.680897 
" clip-path="url(#p90cfc89406)" style="fill: none; stroke: #8c564b; stroke-width: 1.5; stroke-linecap: square"/>
   </g>
   <g id="line2d_16">
    <path d="M 47.72 45.72003 
L 59.167105 48.83353 
L 70.614211 54.946049 
L 82.061316 64.064444 
L 93.508421 75.258928 
L 104.955526 86.019232 
L 116.402632 96.034707 
L 127.849737 104.813017 
L 139.296842 113.910591 
L 150.743947 121.877954 
L 162.191053 129.135296 
L 173.638158 135.194649 
L 185.085263 141.226509 
L 196.532368 146.112918 
L 207.979474 150.540614 
L 219.426579 153.992429 
L 230.873684 156.884962 
L 242.320789 159.471585 
L 253.767895 161.331703 
L 265.215 162.544178 
" clip-path="url(#p90cfc89406)" style="fill: none; stroke: #e377c2; stroke-width: 1.5; stroke-linecap: square"/>
   </g>
   <g id="line2d_17">
    <path d="M 47.72 33.982098 
L 59.167105 34.750171 
L 70.614211 35.193301 
L 82.061316 37.083406 
L 93.508421 41.01932 
L 104.955526 46.72085 
L 116.402632 53.375952 
L 127.849737 60.679136 
L 139.296842 68.656123 
L 150.743947 76.442249 
L 162.191053 84.163361 
L 173.638158 91.463174 
L 185.085263 98.907883 
L 196.532368 105.483156 
L 207.979474 111.590987 
L 219.426579 117.087458 
L 230.873684 122.212809 
L 242.320789 127.21807 
L 253.767895 131.572627 
L 265.215 134.936884 
" clip-path="url(#p90cfc89406)" style="fill: none; stroke: #7f7f7f; stroke-width: 1.5; stroke-linecap: square"/>
   </g>
   <g id="patch_3">
    <path d="M 47.72 174.04 
L 47.72 26.88 
" style="fill: none; stroke: #000000; stroke-width: 0.8; stroke-linejoin: miter; stroke-linecap: square"/>
   </g>
   <g id="patch_4">
    <path d="M 47.72 174.04 
L 265.215 174.04 
" style="fill: none; stroke: #000000; stroke-width: 0.8; stroke-linejoin: miter; stroke-linecap: square"/>
   </g>
   <g id="text_12">
    <!-- Node * surprisal -->
    <g transform="translate(108.18625 20.88)scale(0.12 -0.12)">
     <defs>
      <path id="DejaVuSans-4e" d="M 628 4666 
L 1478 4666 
L 3547 763 
L 3547 4666 
L 4159 4666 
L 4159 0 
L 3309 0 
L 1241 3903 
L 1241 0 
L 628 0 
L 628 4666 
z
" transform="scale(0.015625)"/>
      <path id="DejaVuSans-64" d="M 2906 2969 
L 2906 4863 
L 3481 4863 
L 3481 0 
L 2906 0 
L 2906 525 
Q 2725 213 2448 61 
Q 2172 -91 1784 -91 
Q 1150 -91 751 415 
Q 353 922 353 1747 
Q 353 2572 751 3078 
Q 1150 3584 1784 3584 
Q 2172 3584 2448 3432 
Q 2725 3281 2906 2969 
z
M 947 1747 
Q 947 1113 1208 752 
Q 1469 391 1925 391 
Q 2381 391 2643 752 
Q 2906 1113 2906 1747 
Q 2906 2381 2643 2742 
Q 2381 3103 1925 3103 
Q 1469 3103 1208 2742 
Q 947 2381 947 1747 
z
" transform="scale(0.015625)"/>
      <path id="DejaVuSans-2a" d="M 3009 3897 
L 1888 3291 
L 3009 2681 
L 2828 2375 
L 1778 3009 
L 1778 1831 
L 1422 1831 
L 1422 3009 
L 372 2375 
L 191 2681 
L 1313 3291 
L 191 3897 
L 372 4206 
L 1422 3572 
L 1422 4750 
L 1778 4750 
L 1778 3572 
L 2828 4206 
L 3009 3897 
z
" transform="scale(0.015625)"/>
     </defs>
     <use xlink:href="#DejaVuSans-4e"/>
     <use xlink:href="#DejaVuSans-6f" x="74.804688"/>
     <use xlink:href="#DejaVuSans-64" x="135.986328"/>
     <use xlink:href="#DejaVuSans-65" x="199.462891"/>
     <use xlink:href="#DejaVuSans-20" x="260.986328"/>
     <use xlink:href="#DejaVuSans-2a" x="292.773438"/>
     <use xlink:href="#DejaVuSans-20" x="342.773438"/>
     <use xlink:href="#DejaVuSans-73" x="374.560547"/>
     <use xlink:href="#DejaVuSans-75" x="426.660156"/>
     <use xlink:href="#DejaVuSans-72" x="490.039062"/>
     <use xlink:href="#DejaVuSans-70" x="531.152344"/>
     <use xlink:href="#DejaVuSans-72" x="594.628906"/>
     <use xlink:href="#DejaVuSans-69" x="635.742188"/>
     <use xlink:href="#DejaVuSans-73" x="663.525391"/>
     <use xlink:href="#DejaVuSans-61" x="715.625"/>
     <use xlink:href="#DejaVuSans-6c" x="776.904297"/>
    </g>
   </g>
  </g>
  <g id="axes_2">
   <g id="patch_5">
    <path d="M 298.065 174.04 
L 515.56 174.04 
L 515.56 26.88 
L 298.065 26.88 
z
" style="fill: #ffffff"/>
   </g>
   <g id="PolyCollection_9">
    <path d="M 298.065 33.569091 
L 298.065 34.273569 
L 309.512105 36.403881 
L 320.959211 42.488572 
L 332.406316 51.565844 
L 343.853421 60.628578 
L 355.300526 71.131635 
L 366.747632 81.123444 
L 378.194737 91.276234 
L 389.641842 100.132174 
L 401.088947 109.050943 
L 412.536053 117.040295 
L 423.983158 122.944789 
L 435.430263 128.340358 
L 446.877368 134.321154 
L 458.324474 138.419948 
L 469.771579 142.566434 
L 481.218684 146.68669 
L 492.665789 149.644588 
L 504.112895 152.178733 
L 515.56 154.825209 
L 515.56 145.980794 
L 515.56 145.980794 
L 504.112895 142.71522 
L 492.665789 139.818519 
L 481.218684 135.844331 
L 469.771579 132.505264 
L 458.324474 127.83222 
L 446.877368 122.996518 
L 435.430263 117.029071 
L 423.983158 111.917171 
L 412.536053 105.24963 
L 401.088947 97.827996 
L 389.641842 90.808851 
L 378.194737 82.668645 
L 366.747632 73.662416 
L 355.300526 64.449202 
L 343.853421 55.004512 
L 332.406316 46.494307 
L 320.959211 40.092188 
L 309.512105 35.358939 
L 298.065 33.569091 
z
" clip-path="url(#peba180671e)" style="fill: #1f77b4; fill-opacity: 0.4"/>
   </g>
   <g id="PolyCollection_10">
    <path d="M 298.065 33.579978 
L 298.065 34.292632 
L 309.512105 36.423038 
L 320.959211 42.47814 
L 332.406316 51.58802 
L 343.853421 60.639598 
L 355.300526 71.179411 
L 366.747632 81.176002 
L 378.194737 91.439496 
L 389.641842 100.253103 
L 401.088947 109.131485 
L 412.536053 117.202088 
L 423.983158 123.20324 
L 435.430263 128.618933 
L 446.877368 134.746164 
L 458.324474 138.825174 
L 469.771579 143.181117 
L 481.218684 147.360566 
L 492.665789 150.424744 
L 504.112895 153.101006 
L 515.56 155.56424 
L 515.56 146.8917 
L 515.56 146.8917 
L 504.112895 143.593727 
L 492.665789 140.699909 
L 481.218684 136.577225 
L 469.771579 133.09296 
L 458.324474 128.387906 
L 446.877368 123.425158 
L 435.430263 117.427748 
L 423.983158 112.242937 
L 412.536053 105.501991 
L 401.088947 98.098221 
L 389.641842 91.07825 
L 378.194737 82.915057 
L 366.747632 73.851098 
L 355.300526 64.59186 
L 343.853421 55.109638 
L 332.406316 46.560847 
L 320.959211 40.120469 
L 309.512105 35.374187 
L 298.065 33.579978 
z
" clip-path="url(#peba180671e)" style="fill: #ff7f0e; fill-opacity: 0.4"/>
   </g>
   <g id="PolyCollection_11">
    <path d="M 298.065 33.58387 
L 298.065 34.294348 
L 309.512105 36.431373 
L 320.959211 42.510943 
L 332.406316 51.590993 
L 343.853421 60.635315 
L 355.300526 71.09796 
L 366.747632 81.067003 
L 378.194737 91.23299 
L 389.641842 100.104086 
L 401.088947 108.993376 
L 412.536053 117.11843 
L 423.983158 123.145931 
L 435.430263 128.729987 
L 446.877368 134.938911 
L 458.324474 139.241496 
L 469.771579 143.646206 
L 481.218684 147.705533 
L 492.665789 150.604678 
L 504.112895 153.268464 
L 515.56 155.802728 
L 515.56 147.077549 
L 515.56 147.077549 
L 504.112895 143.271262 
L 492.665789 140.497258 
L 481.218684 136.321117 
L 469.771579 132.740927 
L 458.324474 128.01268 
L 446.877368 123.10197 
L 435.430263 117.113881 
L 423.983158 111.89054 
L 412.536053 105.144587 
L 401.088947 97.631767 
L 389.641842 90.6236 
L 378.194737 82.471327 
L 366.747632 73.521238 
L 355.300526 64.37544 
L 343.853421 54.943902 
L 332.406316 46.473249 
L 320.959211 40.069808 
L 309.512105 35.368974 
L 298.065 33.58387 
z
" clip-path="url(#peba180671e)" style="fill: #2ca02c; fill-opacity: 0.4"/>
   </g>
   <g id="PolyCollection_12">
    <path d="M 298.065 33.595983 
L 298.065 34.307154 
L 309.512105 36.455316 
L 320.959211 42.514049 
L 332.406316 51.62602 
L 343.853421 60.663772 
L 355.300526 71.149313 
L 366.747632 81.160258 
L 378.194737 91.421875 
L 389.641842 100.243138 
L 401.088947 109.135101 
L 412.536053 117.277918 
L 423.983158 123.337835 
L 435.430263 128.949682 
L 446.877368 135.258058 
L 458.324474 139.536342 
L 469.771579 143.983434 
L 481.218684 148.137209 
L 492.665789 151.085027 
L 504.112895 153.805445 
L 515.56 156.25131 
L 515.56 146.996991 
L 515.56 146.996991 
L 504.112895 143.413877 
L 492.665789 140.547996 
L 481.218684 136.365975 
L 469.771579 132.868082 
L 458.324474 128.142432 
L 446.877368 123.237644 
L 435.430263 117.279897 
L 423.983158 112.043311 
L 412.536053 105.251404 
L 401.088947 97.832337 
L 389.641842 90.837673 
L 378.194737 82.661281 
L 366.747632 73.702863 
L 355.300526 64.524375 
L 343.853421 55.057329 
L 332.406316 46.534606 
L 320.959211 40.089257 
L 309.512105 35.37819 
L 298.065 33.595983 
z
" clip-path="url(#peba180671e)" style="fill: #d62728; fill-opacity: 0.4"/>
   </g>
   <g id="PolyCollection_13">
    <path d="M 298.065 33.585488 
L 298.065 34.284436 
L 309.512105 36.398422 
L 320.959211 42.495674 
L 332.406316 51.617699 
L 343.853421 60.765903 
L 355.300526 71.246626 
L 366.747632 81.328184 
L 378.194737 91.400734 
L 389.641842 100.143462 
L 401.088947 109.312255 
L 412.536053 117.244839 
L 423.983158 123.134182 
L 435.430263 128.21615 
L 446.877368 133.915582 
L 458.324474 138.126938 
L 469.771579 143.507888 
L 481.218684 146.822937 
L 492.665789 150.424314 
L 504.112895 153.667784 
L 515.56 156.418064 
L 515.56 146.14779 
L 515.56 146.14779 
L 504.112895 142.310333 
L 492.665789 140.329587 
L 481.218684 136.381816 
L 469.771579 132.623159 
L 458.324474 127.574091 
L 446.877368 123.363894 
L 435.430263 117.211739 
L 423.983158 111.957715 
L 412.536053 106.116899 
L 401.088947 98.361847 
L 389.641842 90.647088 
L 378.194737 82.873284 
L 366.747632 73.675499 
L 355.300526 64.491471 
L 343.853421 55.032035 
L 332.406316 46.555943 
L 320.959211 40.109645 
L 309.512105 35.372776 
L 298.065 33.585488 
z
" clip-path="url(#peba180671e)" style="fill: #9467bd; fill-opacity: 0.4"/>
   </g>
   <g id="PolyCollection_14">
    <path d="M 298.065 33.596187 
L 298.065 34.304013 
L 309.512105 36.417334 
L 320.959211 42.484594 
L 332.406316 51.639119 
L 343.853421 60.779795 
L 355.300526 71.295964 
L 366.747632 81.389116 
L 378.194737 91.600628 
L 389.641842 100.270253 
L 401.088947 109.394976 
L 412.536053 117.380893 
L 423.983158 123.451017 
L 435.430263 128.504116 
L 446.877368 134.307377 
L 458.324474 138.566786 
L 469.771579 144.116243 
L 481.218684 147.365336 
L 492.665789 151.087655 
L 504.112895 154.535399 
L 515.56 157.163946 
L 515.56 146.913415 
L 515.56 146.913415 
L 504.112895 143.187059 
L 492.665789 141.293941 
L 481.218684 137.191008 
L 469.771579 133.158171 
L 458.324474 128.086326 
L 446.877368 123.796796 
L 435.430263 117.609751 
L 423.983158 112.308181 
L 412.536053 106.380826 
L 401.088947 98.650339 
L 389.641842 90.921823 
L 378.194737 83.137638 
L 366.747632 73.852988 
L 355.300526 64.633156 
L 343.853421 55.132655 
L 332.406316 46.622053 
L 320.959211 40.134653 
L 309.512105 35.389057 
L 298.065 33.596187 
z
" clip-path="url(#peba180671e)" style="fill: #8c564b; fill-opacity: 0.4"/>
   </g>
   <g id="PolyCollection_15">
    <path d="M 298.065 43.995946 
L 298.065 47.310613 
L 309.512105 49.216914 
L 320.959211 54.354291 
L 332.406316 62.139727 
L 343.853421 70.949081 
L 355.300526 80.433209 
L 366.747632 89.51507 
L 378.194737 98.853697 
L 389.641842 106.772471 
L 401.088947 114.732421 
L 412.536053 122.18321 
L 423.983158 127.405251 
L 435.430263 132.641268 
L 446.877368 138.146288 
L 458.324474 142.29544 
L 469.771579 146.580268 
L 481.218684 150.082639 
L 492.665789 153.023284 
L 504.112895 155.421186 
L 515.56 157.973824 
L 515.56 148.842164 
L 515.56 148.842164 
L 504.112895 145.870281 
L 492.665789 143.238223 
L 481.218684 139.320602 
L 469.771579 135.976846 
L 458.324474 131.972741 
L 446.877368 127.995713 
L 435.430263 122.083691 
L 423.983158 117.384543 
L 412.536053 111.291109 
L 401.088947 104.475972 
L 389.641842 97.702012 
L 378.194737 90.188875 
L 366.747632 81.667795 
L 355.300526 73.357613 
L 343.853421 64.805199 
L 332.406316 57.191456 
L 320.959211 50.688085 
L 309.512105 45.969875 
L 298.065 43.995946 
z
" clip-path="url(#peba180671e)" style="fill: #e377c2; fill-opacity: 0.4"/>
   </g>
   <g id="PolyCollection_16">
    <path d="M 298.065 33.591239 
L 298.065 34.303266 
L 309.512105 36.444355 
L 320.959211 42.512626 
L 332.406316 51.597951 
L 343.853421 60.636992 
L 355.300526 71.165496 
L 366.747632 81.194209 
L 378.194737 91.46267 
L 389.641842 100.231374 
L 401.088947 109.077897 
L 412.536053 117.215299 
L 423.983158 123.131762 
L 435.430263 128.611766 
L 446.877368 134.767465 
L 458.324474 139.00384 
L 469.771579 143.586424 
L 481.218684 147.743129 
L 492.665789 150.989115 
L 504.112895 153.780103 
L 515.56 156.396782 
L 515.56 148.27762 
L 515.56 148.27762 
L 504.112895 144.828133 
L 492.665789 141.901703 
L 481.218684 137.586417 
L 469.771579 133.983813 
L 458.324474 129.166176 
L 446.877368 124.131866 
L 435.430263 117.816306 
L 423.983158 112.564632 
L 412.536053 105.631374 
L 401.088947 98.173151 
L 389.641842 91.02584 
L 378.194737 82.850003 
L 366.747632 73.678589 
L 355.300526 64.509441 
L 343.853421 55.088906 
L 332.406316 46.54175 
L 320.959211 40.096958 
L 309.512105 35.375708 
L 298.065 33.591239 
z
" clip-path="url(#peba180671e)" style="fill: #7f7f7f; fill-opacity: 0.4"/>
   </g>
   <g id="matplotlib.axis_3">
    <g id="xtick_6">
     <g id="line2d_18">
      <g>
       <use xlink:href="#ma3317953f2" x="298.065" y="174.04" style="stroke: #000000; stroke-width: 0.8"/>
      </g>
     </g>
     <g id="text_13">
      <!-- 0.0 -->
      <g transform="translate(290.113437 188.638438)scale(0.1 -0.1)">
       <use xlink:href="#DejaVuSans-30"/>
       <use xlink:href="#DejaVuSans-2e" x="63.623047"/>
       <use xlink:href="#DejaVuSans-30" x="95.410156"/>
      </g>
     </g>
    </g>
    <g id="xtick_7">
     <g id="line2d_19">
      <g>
       <use xlink:href="#ma3317953f2" x="352.43875" y="174.04" style="stroke: #000000; stroke-width: 0.8"/>
      </g>
     </g>
     <g id="text_14">
      <!-- 0.5 -->
      <g transform="translate(344.487187 188.638438)scale(0.1 -0.1)">
       <use xlink:href="#DejaVuSans-30"/>
       <use xlink:href="#DejaVuSans-2e" x="63.623047"/>
       <use xlink:href="#DejaVuSans-35" x="95.410156"/>
      </g>
     </g>
    </g>
    <g id="xtick_8">
     <g id="line2d_20">
      <g>
       <use xlink:href="#ma3317953f2" x="406.8125" y="174.04" style="stroke: #000000; stroke-width: 0.8"/>
      </g>
     </g>
     <g id="text_15">
      <!-- 1.0 -->
      <g transform="translate(398.860937 188.638438)scale(0.1 -0.1)">
       <use xlink:href="#DejaVuSans-31"/>
       <use xlink:href="#DejaVuSans-2e" x="63.623047"/>
       <use xlink:href="#DejaVuSans-30" x="95.410156"/>
      </g>
     </g>
    </g>
    <g id="xtick_9">
     <g id="line2d_21">
      <g>
       <use xlink:href="#ma3317953f2" x="461.18625" y="174.04" style="stroke: #000000; stroke-width: 0.8"/>
      </g>
     </g>
     <g id="text_16">
      <!-- 1.5 -->
      <g transform="translate(453.234687 188.638438)scale(0.1 -0.1)">
       <use xlink:href="#DejaVuSans-31"/>
       <use xlink:href="#DejaVuSans-2e" x="63.623047"/>
       <use xlink:href="#DejaVuSans-35" x="95.410156"/>
      </g>
     </g>
    </g>
    <g id="xtick_10">
     <g id="line2d_22">
      <g>
       <use xlink:href="#ma3317953f2" x="515.56" y="174.04" style="stroke: #000000; stroke-width: 0.8"/>
      </g>
     </g>
     <g id="text_17">
      <!-- 2.0 -->
      <g transform="translate(507.608437 188.638438)scale(0.1 -0.1)">
       <use xlink:href="#DejaVuSans-32"/>
       <use xlink:href="#DejaVuSans-2e" x="63.623047"/>
       <use xlink:href="#DejaVuSans-30" x="95.410156"/>
      </g>
     </g>
    </g>
    <g id="text_18">
     <!-- Influence of surprisal (multiplication) -->
     <g transform="translate(314.665625 202.316563)scale(0.1 -0.1)">
      <use xlink:href="#DejaVuSans-49"/>
      <use xlink:href="#DejaVuSans-6e" x="29.492188"/>
      <use xlink:href="#DejaVuSans-66" x="92.871094"/>
      <use xlink:href="#DejaVuSans-6c" x="128.076172"/>
      <use xlink:href="#DejaVuSans-75" x="155.859375"/>
      <use xlink:href="#DejaVuSans-65" x="219.238281"/>
      <use xlink:href="#DejaVuSans-6e" x="280.761719"/>
      <use xlink:href="#DejaVuSans-63" x="344.140625"/>
      <use xlink:href="#DejaVuSans-65" x="399.121094"/>
      <use xlink:href="#DejaVuSans-20" x="460.644531"/>
      <use xlink:href="#DejaVuSans-6f" x="492.431641"/>
      <use xlink:href="#DejaVuSans-66" x="553.613281"/>
      <use xlink:href="#DejaVuSans-20" x="588.818359"/>
      <use xlink:href="#DejaVuSans-73" x="620.605469"/>
      <use xlink:href="#DejaVuSans-75" x="672.705078"/>
      <use xlink:href="#DejaVuSans-72" x="736.083984"/>
      <use xlink:href="#DejaVuSans-70" x="777.197266"/>
      <use xlink:href="#DejaVuSans-72" x="840.673828"/>
      <use xlink:href="#DejaVuSans-69" x="881.787109"/>
      <use xlink:href="#DejaVuSans-73" x="909.570312"/>
      <use xlink:href="#DejaVuSans-61" x="961.669922"/>
      <use xlink:href="#DejaVuSans-6c" x="1022.949219"/>
      <use xlink:href="#DejaVuSans-20" x="1050.732422"/>
      <use xlink:href="#DejaVuSans-28" x="1082.519531"/>
      <use xlink:href="#DejaVuSans-6d" x="1121.533203"/>
      <use xlink:href="#DejaVuSans-75" x="1218.945312"/>
      <use xlink:href="#DejaVuSans-6c" x="1282.324219"/>
      <use xlink:href="#DejaVuSans-74" x="1310.107422"/>
      <use xlink:href="#DejaVuSans-69" x="1349.316406"/>
      <use xlink:href="#DejaVuSans-70" x="1377.099609"/>
      <use xlink:href="#DejaVuSans-6c" x="1440.576172"/>
      <use xlink:href="#DejaVuSans-69" x="1468.359375"/>
      <use xlink:href="#DejaVuSans-63" x="1496.142578"/>
      <use xlink:href="#DejaVuSans-61" x="1551.123047"/>
      <use xlink:href="#DejaVuSans-74" x="1612.402344"/>
      <use xlink:href="#DejaVuSans-69" x="1651.611328"/>
      <use xlink:href="#DejaVuSans-6f" x="1679.394531"/>
      <use xlink:href="#DejaVuSans-6e" x="1740.576172"/>
      <use xlink:href="#DejaVuSans-29" x="1803.955078"/>
     </g>
    </g>
   </g>
   <g id="line2d_23">
    <path d="M 298.065 33.92133 
L 309.512105 35.88141 
L 320.959211 41.29038 
L 332.406316 49.030075 
L 343.853421 57.816545 
L 355.300526 67.790419 
L 366.747632 77.39293 
L 378.194737 86.97244 
L 389.641842 95.470512 
L 401.088947 103.43947 
L 412.536053 111.144963 
L 423.983158 117.43098 
L 435.430263 122.684714 
L 446.877368 128.658836 
L 458.324474 133.126084 
L 469.771579 137.535849 
L 481.218684 141.26551 
L 492.665789 144.731554 
L 504.112895 147.446976 
L 515.56 150.403001 
" clip-path="url(#peba180671e)" style="fill: none; stroke: #1f77b4; stroke-width: 1.5; stroke-linecap: square"/>
   </g>
   <g id="line2d_24">
    <path d="M 298.065 33.936305 
L 309.512105 35.898613 
L 320.959211 41.299305 
L 332.406316 49.074434 
L 343.853421 57.874618 
L 355.300526 67.885635 
L 366.747632 77.51355 
L 378.194737 87.177277 
L 389.641842 95.665677 
L 401.088947 103.614853 
L 412.536053 111.35204 
L 423.983158 117.723088 
L 435.430263 123.023341 
L 446.877368 129.085661 
L 458.324474 133.60654 
L 469.771579 138.137039 
L 481.218684 141.968895 
L 492.665789 145.562326 
L 504.112895 148.347367 
L 515.56 151.22797 
" clip-path="url(#peba180671e)" style="fill: none; stroke: #ff7f0e; stroke-width: 1.5; stroke-linecap: square"/>
   </g>
   <g id="line2d_25">
    <path d="M 298.065 33.939109 
L 309.512105 35.900174 
L 320.959211 41.290376 
L 332.406316 49.032121 
L 343.853421 57.789609 
L 355.300526 67.7367 
L 366.747632 77.29412 
L 378.194737 86.852158 
L 389.641842 95.363843 
L 401.088947 103.312571 
L 412.536053 111.131509 
L 423.983158 117.518236 
L 435.430263 122.921934 
L 446.877368 129.020441 
L 458.324474 133.627088 
L 469.771579 138.193567 
L 481.218684 142.013325 
L 492.665789 145.550968 
L 504.112895 148.269863 
L 515.56 151.440138 
" clip-path="url(#peba180671e)" style="fill: none; stroke: #2ca02c; stroke-width: 1.5; stroke-linecap: square"/>
   </g>
   <g id="line2d_26">
    <path d="M 298.065 33.951568 
L 309.512105 35.916753 
L 320.959211 41.301653 
L 332.406316 49.080313 
L 343.853421 57.860551 
L 355.300526 67.836844 
L 366.747632 77.431561 
L 378.194737 87.041578 
L 389.641842 95.540406 
L 401.088947 103.483719 
L 412.536053 111.264661 
L 423.983158 117.690573 
L 435.430263 123.11479 
L 446.877368 129.247851 
L 458.324474 133.839387 
L 469.771579 138.425758 
L 481.218684 142.251592 
L 492.665789 145.816511 
L 504.112895 148.609661 
L 515.56 151.62415 
" clip-path="url(#peba180671e)" style="fill: none; stroke: #d62728; stroke-width: 1.5; stroke-linecap: square"/>
   </g>
   <g id="line2d_27">
    <path d="M 298.065 33.934962 
L 309.512105 35.885599 
L 320.959211 41.302659 
L 332.406316 49.086821 
L 343.853421 57.898969 
L 355.300526 67.869049 
L 366.747632 77.501841 
L 378.194737 87.137009 
L 389.641842 95.395275 
L 401.088947 103.837051 
L 412.536053 111.680869 
L 423.983158 117.545949 
L 435.430263 122.713944 
L 446.877368 128.639738 
L 458.324474 132.850515 
L 469.771579 138.065524 
L 481.218684 141.602376 
L 492.665789 145.37695 
L 504.112895 147.989058 
L 515.56 151.282927 
" clip-path="url(#peba180671e)" style="fill: none; stroke: #9467bd; stroke-width: 1.5; stroke-linecap: square"/>
   </g>
   <g id="line2d_28">
    <path d="M 298.065 33.9501 
L 309.512105 35.903196 
L 320.959211 41.309624 
L 332.406316 49.130586 
L 343.853421 57.956225 
L 355.300526 67.96456 
L 366.747632 77.621052 
L 378.194737 87.369133 
L 389.641842 95.596038 
L 401.088947 104.022657 
L 412.536053 111.88086 
L 423.983158 117.879599 
L 435.430263 123.056934 
L 446.877368 129.052087 
L 458.324474 133.326556 
L 469.771579 138.637207 
L 481.218684 142.278172 
L 492.665789 146.190798 
L 504.112895 148.861229 
L 515.56 152.03868 
" clip-path="url(#peba180671e)" style="fill: none; stroke: #8c564b; stroke-width: 1.5; stroke-linecap: square"/>
   </g>
   <g id="line2d_29">
    <path d="M 298.065 45.653279 
L 309.512105 47.593395 
L 320.959211 52.521188 
L 332.406316 59.665592 
L 343.853421 67.87714 
L 355.300526 76.895411 
L 366.747632 85.591433 
L 378.194737 94.521286 
L 389.641842 102.237241 
L 401.088947 109.604197 
L 412.536053 116.73716 
L 423.983158 122.394897 
L 435.430263 127.362479 
L 446.877368 133.071 
L 458.324474 137.13409 
L 469.771579 141.278557 
L 481.218684 144.701621 
L 492.665789 148.130753 
L 504.112895 150.645733 
L 515.56 153.407994 
" clip-path="url(#peba180671e)" style="fill: none; stroke: #e377c2; stroke-width: 1.5; stroke-linecap: square"/>
   </g>
   <g id="line2d_30">
    <path d="M 298.065 33.947253 
L 309.512105 35.910032 
L 320.959211 41.304792 
L 332.406316 49.06985 
L 343.853421 57.862949 
L 355.300526 67.837469 
L 366.747632 77.436399 
L 378.194737 87.156336 
L 389.641842 95.628607 
L 401.088947 103.625524 
L 412.536053 111.423336 
L 423.983158 117.848197 
L 435.430263 123.214036 
L 446.877368 129.449665 
L 458.324474 134.085008 
L 469.771579 138.785119 
L 481.218684 142.664773 
L 492.665789 146.445409 
L 504.112895 149.304118 
L 515.56 152.337201 
" clip-path="url(#peba180671e)" style="fill: none; stroke: #7f7f7f; stroke-width: 1.5; stroke-linecap: square"/>
   </g>
   <g id="patch_6">
    <path d="M 298.065 174.04 
L 298.065 26.88 
" style="fill: none; stroke: #000000; stroke-width: 0.8; stroke-linejoin: miter; stroke-linecap: square"/>
   </g>
   <g id="patch_7">
    <path d="M 298.065 174.04 
L 515.56 174.04 
" style="fill: none; stroke: #000000; stroke-width: 0.8; stroke-linejoin: miter; stroke-linecap: square"/>
   </g>
   <g id="text_19">
    <!-- Node * third variable -->
    <g transform="translate(344.2325 20.88)scale(0.12 -0.12)">
     <defs>
      <path id="DejaVuSans-68" d="M 3513 2113 
L 3513 0 
L 2938 0 
L 2938 2094 
Q 2938 2591 2744 2837 
Q 2550 3084 2163 3084 
Q 1697 3084 1428 2787 
Q 1159 2491 1159 1978 
L 1159 0 
L 581 0 
L 581 4863 
L 1159 4863 
L 1159 2956 
Q 1366 3272 1645 3428 
Q 1925 3584 2291 3584 
Q 2894 3584 3203 3211 
Q 3513 2838 3513 2113 
z
" transform="scale(0.015625)"/>
      <path id="DejaVuSans-62" d="M 3116 1747 
Q 3116 2381 2855 2742 
Q 2594 3103 2138 3103 
Q 1681 3103 1420 2742 
Q 1159 2381 1159 1747 
Q 1159 1113 1420 752 
Q 1681 391 2138 391 
Q 2594 391 2855 752 
Q 3116 1113 3116 1747 
z
M 1159 2969 
Q 1341 3281 1617 3432 
Q 1894 3584 2278 3584 
Q 2916 3584 3314 3078 
Q 3713 2572 3713 1747 
Q 3713 922 3314 415 
Q 2916 -91 2278 -91 
Q 1894 -91 1617 61 
Q 1341 213 1159 525 
L 1159 0 
L 581 0 
L 581 4863 
L 1159 4863 
L 1159 2969 
z
" transform="scale(0.015625)"/>
     </defs>
     <use xlink:href="#DejaVuSans-4e"/>
     <use xlink:href="#DejaVuSans-6f" x="74.804688"/>
     <use xlink:href="#DejaVuSans-64" x="135.986328"/>
     <use xlink:href="#DejaVuSans-65" x="199.462891"/>
     <use xlink:href="#DejaVuSans-20" x="260.986328"/>
     <use xlink:href="#DejaVuSans-2a" x="292.773438"/>
     <use xlink:href="#DejaVuSans-20" x="342.773438"/>
     <use xlink:href="#DejaVuSans-74" x="374.560547"/>
     <use xlink:href="#DejaVuSans-68" x="413.769531"/>
     <use xlink:href="#DejaVuSans-69" x="477.148438"/>
     <use xlink:href="#DejaVuSans-72" x="504.931641"/>
     <use xlink:href="#DejaVuSans-64" x="544.294922"/>
     <use xlink:href="#DejaVuSans-20" x="607.771484"/>
     <use xlink:href="#DejaVuSans-76" x="639.558594"/>
     <use xlink:href="#DejaVuSans-61" x="698.738281"/>
     <use xlink:href="#DejaVuSans-72" x="760.017578"/>
     <use xlink:href="#DejaVuSans-69" x="801.130859"/>
     <use xlink:href="#DejaVuSans-61" x="828.914062"/>
     <use xlink:href="#DejaVuSans-62" x="890.193359"/>
     <use xlink:href="#DejaVuSans-6c" x="953.669922"/>
     <use xlink:href="#DejaVuSans-65" x="981.453125"/>
    </g>
   </g>
   <g id="legend_1">
    <g id="line2d_31">
     <path d="M 524.56 39.978437 
L 534.56 39.978437 
L 544.56 39.978437 
" style="fill: none; stroke: #1f77b4; stroke-width: 1.5; stroke-linecap: square"/>
    </g>
    <g id="text_20">
     <!-- Node -->
     <g transform="translate(552.56 43.478437)scale(0.1 -0.1)">
      <use xlink:href="#DejaVuSans-4e"/>
      <use xlink:href="#DejaVuSans-6f" x="74.804688"/>
      <use xlink:href="#DejaVuSans-64" x="135.986328"/>
      <use xlink:href="#DejaVuSans-65" x="199.462891"/>
     </g>
    </g>
    <g id="line2d_32">
     <path d="M 524.56 54.656563 
L 534.56 54.656563 
L 544.56 54.656563 
" style="fill: none; stroke: #ff7f0e; stroke-width: 1.5; stroke-linecap: square"/>
    </g>
    <g id="text_21">
     <!-- Node + surprisal -->
     <g transform="translate(552.56 58.156563)scale(0.1 -0.1)">
      <defs>
       <path id="DejaVuSans-2b" d="M 2944 4013 
L 2944 2272 
L 4684 2272 
L 4684 1741 
L 2944 1741 
L 2944 0 
L 2419 0 
L 2419 1741 
L 678 1741 
L 678 2272 
L 2419 2272 
L 2419 4013 
L 2944 4013 
z
" transform="scale(0.015625)"/>
      </defs>
      <use xlink:href="#DejaVuSans-4e"/>
      <use xlink:href="#DejaVuSans-6f" x="74.804688"/>
      <use xlink:href="#DejaVuSans-64" x="135.986328"/>
      <use xlink:href="#DejaVuSans-65" x="199.462891"/>
      <use xlink:href="#DejaVuSans-20" x="260.986328"/>
      <use xlink:href="#DejaVuSans-2b" x="292.773438"/>
      <use xlink:href="#DejaVuSans-20" x="376.5625"/>
      <use xlink:href="#DejaVuSans-73" x="408.349609"/>
      <use xlink:href="#DejaVuSans-75" x="460.449219"/>
      <use xlink:href="#DejaVuSans-72" x="523.828125"/>
      <use xlink:href="#DejaVuSans-70" x="564.941406"/>
      <use xlink:href="#DejaVuSans-72" x="628.417969"/>
      <use xlink:href="#DejaVuSans-69" x="669.53125"/>
      <use xlink:href="#DejaVuSans-73" x="697.314453"/>
      <use xlink:href="#DejaVuSans-61" x="749.414062"/>
      <use xlink:href="#DejaVuSans-6c" x="810.693359"/>
     </g>
    </g>
    <g id="line2d_33">
     <path d="M 524.56 69.334687 
L 534.56 69.334687 
L 544.56 69.334687 
" style="fill: none; stroke: #2ca02c; stroke-width: 1.5; stroke-linecap: square"/>
    </g>
    <g id="text_22">
     <!-- Node split -->
     <g transform="translate(552.56 72.834687)scale(0.1 -0.1)">
      <use xlink:href="#DejaVuSans-4e"/>
      <use xlink:href="#DejaVuSans-6f" x="74.804688"/>
      <use xlink:href="#DejaVuSans-64" x="135.986328"/>
      <use xlink:href="#DejaVuSans-65" x="199.462891"/>
      <use xlink:href="#DejaVuSans-20" x="260.986328"/>
      <use xlink:href="#DejaVuSans-73" x="292.773438"/>
      <use xlink:href="#DejaVuSans-70" x="344.873047"/>
      <use xlink:href="#DejaVuSans-6c" x="408.349609"/>
      <use xlink:href="#DejaVuSans-69" x="436.132812"/>
      <use xlink:href="#DejaVuSans-74" x="463.916016"/>
     </g>
    </g>
    <g id="line2d_34">
     <path d="M 524.56 84.012812 
L 534.56 84.012812 
L 544.56 84.012812 
" style="fill: none; stroke: #d62728; stroke-width: 1.5; stroke-linecap: square"/>
    </g>
    <g id="text_23">
     <!-- Node split + surprisal -->
     <g transform="translate(552.56 87.512812)scale(0.1 -0.1)">
      <use xlink:href="#DejaVuSans-4e"/>
      <use xlink:href="#DejaVuSans-6f" x="74.804688"/>
      <use xlink:href="#DejaVuSans-64" x="135.986328"/>
      <use xlink:href="#DejaVuSans-65" x="199.462891"/>
      <use xlink:href="#DejaVuSans-20" x="260.986328"/>
      <use xlink:href="#DejaVuSans-73" x="292.773438"/>
      <use xlink:href="#DejaVuSans-70" x="344.873047"/>
      <use xlink:href="#DejaVuSans-6c" x="408.349609"/>
      <use xlink:href="#DejaVuSans-69" x="436.132812"/>
      <use xlink:href="#DejaVuSans-74" x="463.916016"/>
      <use xlink:href="#DejaVuSans-20" x="503.125"/>
      <use xlink:href="#DejaVuSans-2b" x="534.912109"/>
      <use xlink:href="#DejaVuSans-20" x="618.701172"/>
      <use xlink:href="#DejaVuSans-73" x="650.488281"/>
      <use xlink:href="#DejaVuSans-75" x="702.587891"/>
      <use xlink:href="#DejaVuSans-72" x="765.966797"/>
      <use xlink:href="#DejaVuSans-70" x="807.080078"/>
      <use xlink:href="#DejaVuSans-72" x="870.556641"/>
      <use xlink:href="#DejaVuSans-69" x="911.669922"/>
      <use xlink:href="#DejaVuSans-73" x="939.453125"/>
      <use xlink:href="#DejaVuSans-61" x="991.552734"/>
      <use xlink:href="#DejaVuSans-6c" x="1052.832031"/>
     </g>
    </g>
    <g id="line2d_35">
     <path d="M 524.56 98.690937 
L 534.56 98.690937 
L 544.56 98.690937 
" style="fill: none; stroke: #9467bd; stroke-width: 1.5; stroke-linecap: square"/>
    </g>
    <g id="text_24">
     <!-- Node random split -->
     <g transform="translate(552.56 102.190937)scale(0.1 -0.1)">
      <use xlink:href="#DejaVuSans-4e"/>
      <use xlink:href="#DejaVuSans-6f" x="74.804688"/>
      <use xlink:href="#DejaVuSans-64" x="135.986328"/>
      <use xlink:href="#DejaVuSans-65" x="199.462891"/>
      <use xlink:href="#DejaVuSans-20" x="260.986328"/>
      <use xlink:href="#DejaVuSans-72" x="292.773438"/>
      <use xlink:href="#DejaVuSans-61" x="333.886719"/>
      <use xlink:href="#DejaVuSans-6e" x="395.166016"/>
      <use xlink:href="#DejaVuSans-64" x="458.544922"/>
      <use xlink:href="#DejaVuSans-6f" x="522.021484"/>
      <use xlink:href="#DejaVuSans-6d" x="583.203125"/>
      <use xlink:href="#DejaVuSans-20" x="680.615234"/>
      <use xlink:href="#DejaVuSans-73" x="712.402344"/>
      <use xlink:href="#DejaVuSans-70" x="764.501953"/>
      <use xlink:href="#DejaVuSans-6c" x="827.978516"/>
      <use xlink:href="#DejaVuSans-69" x="855.761719"/>
      <use xlink:href="#DejaVuSans-74" x="883.544922"/>
     </g>
    </g>
    <g id="line2d_36">
     <path d="M 524.56 113.369062 
L 534.56 113.369062 
L 544.56 113.369062 
" style="fill: none; stroke: #8c564b; stroke-width: 1.5; stroke-linecap: square"/>
    </g>
    <g id="text_25">
     <!-- Node random split + surprisal -->
     <g transform="translate(552.56 116.869062)scale(0.1 -0.1)">
      <use xlink:href="#DejaVuSans-4e"/>
      <use xlink:href="#DejaVuSans-6f" x="74.804688"/>
      <use xlink:href="#DejaVuSans-64" x="135.986328"/>
      <use xlink:href="#DejaVuSans-65" x="199.462891"/>
      <use xlink:href="#DejaVuSans-20" x="260.986328"/>
      <use xlink:href="#DejaVuSans-72" x="292.773438"/>
      <use xlink:href="#DejaVuSans-61" x="333.886719"/>
      <use xlink:href="#DejaVuSans-6e" x="395.166016"/>
      <use xlink:href="#DejaVuSans-64" x="458.544922"/>
      <use xlink:href="#DejaVuSans-6f" x="522.021484"/>
      <use xlink:href="#DejaVuSans-6d" x="583.203125"/>
      <use xlink:href="#DejaVuSans-20" x="680.615234"/>
      <use xlink:href="#DejaVuSans-73" x="712.402344"/>
      <use xlink:href="#DejaVuSans-70" x="764.501953"/>
      <use xlink:href="#DejaVuSans-6c" x="827.978516"/>
      <use xlink:href="#DejaVuSans-69" x="855.761719"/>
      <use xlink:href="#DejaVuSans-74" x="883.544922"/>
      <use xlink:href="#DejaVuSans-20" x="922.753906"/>
      <use xlink:href="#DejaVuSans-2b" x="954.541016"/>
      <use xlink:href="#DejaVuSans-20" x="1038.330078"/>
      <use xlink:href="#DejaVuSans-73" x="1070.117188"/>
      <use xlink:href="#DejaVuSans-75" x="1122.216797"/>
      <use xlink:href="#DejaVuSans-72" x="1185.595703"/>
      <use xlink:href="#DejaVuSans-70" x="1226.708984"/>
      <use xlink:href="#DejaVuSans-72" x="1290.185547"/>
      <use xlink:href="#DejaVuSans-69" x="1331.298828"/>
      <use xlink:href="#DejaVuSans-73" x="1359.082031"/>
      <use xlink:href="#DejaVuSans-61" x="1411.181641"/>
      <use xlink:href="#DejaVuSans-6c" x="1472.460938"/>
     </g>
    </g>
    <g id="line2d_37">
     <path d="M 524.56 128.047187 
L 534.56 128.047187 
L 544.56 128.047187 
" style="fill: none; stroke: #e377c2; stroke-width: 1.5; stroke-linecap: square"/>
    </g>
    <g id="text_26">
     <!-- Interaction -->
     <g transform="translate(552.56 131.547187)scale(0.1 -0.1)">
      <use xlink:href="#DejaVuSans-49"/>
      <use xlink:href="#DejaVuSans-6e" x="29.492188"/>
      <use xlink:href="#DejaVuSans-74" x="92.871094"/>
      <use xlink:href="#DejaVuSans-65" x="132.080078"/>
      <use xlink:href="#DejaVuSans-72" x="193.603516"/>
      <use xlink:href="#DejaVuSans-61" x="234.716797"/>
      <use xlink:href="#DejaVuSans-63" x="295.996094"/>
      <use xlink:href="#DejaVuSans-74" x="350.976562"/>
      <use xlink:href="#DejaVuSans-69" x="390.185547"/>
      <use xlink:href="#DejaVuSans-6f" x="417.96875"/>
      <use xlink:href="#DejaVuSans-6e" x="479.150391"/>
     </g>
    </g>
    <g id="line2d_38">
     <path d="M 524.56 142.725312 
L 534.56 142.725312 
L 544.56 142.725312 
" style="fill: none; stroke: #7f7f7f; stroke-width: 1.5; stroke-linecap: square"/>
    </g>
    <g id="text_27">
     <!-- Node + surprisal + interaction -->
     <g transform="translate(552.56 146.225312)scale(0.1 -0.1)">
      <use xlink:href="#DejaVuSans-4e"/>
      <use xlink:href="#DejaVuSans-6f" x="74.804688"/>
      <use xlink:href="#DejaVuSans-64" x="135.986328"/>
      <use xlink:href="#DejaVuSans-65" x="199.462891"/>
      <use xlink:href="#DejaVuSans-20" x="260.986328"/>
      <use xlink:href="#DejaVuSans-2b" x="292.773438"/>
      <use xlink:href="#DejaVuSans-20" x="376.5625"/>
      <use xlink:href="#DejaVuSans-73" x="408.349609"/>
      <use xlink:href="#DejaVuSans-75" x="460.449219"/>
      <use xlink:href="#DejaVuSans-72" x="523.828125"/>
      <use xlink:href="#DejaVuSans-70" x="564.941406"/>
      <use xlink:href="#DejaVuSans-72" x="628.417969"/>
      <use xlink:href="#DejaVuSans-69" x="669.53125"/>
      <use xlink:href="#DejaVuSans-73" x="697.314453"/>
      <use xlink:href="#DejaVuSans-61" x="749.414062"/>
      <use xlink:href="#DejaVuSans-6c" x="810.693359"/>
      <use xlink:href="#DejaVuSans-20" x="838.476562"/>
      <use xlink:href="#DejaVuSans-2b" x="870.263672"/>
      <use xlink:href="#DejaVuSans-20" x="954.052734"/>
      <use xlink:href="#DejaVuSans-69" x="985.839844"/>
      <use xlink:href="#DejaVuSans-6e" x="1013.623047"/>
      <use xlink:href="#DejaVuSans-74" x="1077.001953"/>
      <use xlink:href="#DejaVuSans-65" x="1116.210938"/>
      <use xlink:href="#DejaVuSans-72" x="1177.734375"/>
      <use xlink:href="#DejaVuSans-61" x="1218.847656"/>
      <use xlink:href="#DejaVuSans-63" x="1280.126953"/>
      <use xlink:href="#DejaVuSans-74" x="1335.107422"/>
      <use xlink:href="#DejaVuSans-69" x="1374.316406"/>
      <use xlink:href="#DejaVuSans-6f" x="1402.099609"/>
      <use xlink:href="#DejaVuSans-6e" x="1463.28125"/>
     </g>
    </g>
   </g>
  </g>
 </g>
 <defs>
  <clipPath id="p90cfc89406">
   <rect x="47.72" y="26.88" width="217.495" height="147.16"/>
  </clipPath>
  <clipPath id="peba180671e">
   <rect x="298.065" y="26.88" width="217.495" height="147.16"/>
  </clipPath>
 </defs>
</svg>
