<?xml version="1.0" encoding="utf-8" standalone="no"?>
<!DOCTYPE svg PUBLIC "-//W3C//DTD SVG 1.1//EN"
  "http://www.w3.org/Graphics/SVG/1.1/DTD/svg11.dtd">
<svg xmlns:xlink="http://www.w3.org/1999/xlink" width="720pt" height="216pt" viewBox="0 0 720 216" xmlns="http://www.w3.org/2000/svg" version="1.1">
 <metadata>
  <rdf:RDF xmlns:dc="http://purl.org/dc/elements/1.1/" xmlns:cc="http://creativecommons.org/ns#" xmlns:rdf="http://www.w3.org/1999/02/22-rdf-syntax-ns#">
   <cc:Work>
    <dc:type rdf:resource="http://purl.org/dc/dcmitype/StillImage"/>
    <dc:date>2024-01-16T01:38:59.986768</dc:date>
    <dc:format>image/svg+xml</dc:format>
    <dc:creator>
     <cc:Agent>
      <dc:title>Matplotlib v3.5.1, https://matplotlib.org/</dc:title>
     </cc:Agent>
    </dc:creator>
   </cc:Work>
  </rdf:RDF>
 </metadata>
 <defs>
  <style type="text/css">*{stroke-linejoin: round; stroke-linecap: butt}</style>
 </defs>
 <g id="figure_1">
  <g id="patch_1">
   <path d="M 0 216 
L 720 216 
L 720 0 
L 0 0 
z
" style="fill: #ffffff"/>
  </g>
  <g id="axes_1">
   <g id="patch_2">
    <path d="M 47.72 174.04 
L 265.215 174.04 
L 265.215 26.88 
L 47.72 26.88 
z
" style="fill: #ffffff"/>
   </g>
   <g id="PolyCollection_1">
    <path d="M 47.72 33.569091 
L 47.72 34.173502 
L 59.167105 36.171921 
L 70.614211 41.42913 
L 82.061316 49.13053 
L 93.508421 58.419782 
L 104.955526 68.72137 
L 116.402632 78.340096 
L 127.849737 88.397701 
L 139.296842 97.053509 
L 150.743947 106.517006 
L 162.191053 113.220975 
L 173.638158 121.082241 
L 185.085263 127.989147 
L 196.532368 132.973162 
L 207.979474 138.429449 
L 219.426579 143.175624 
L 230.873684 146.493442 
L 242.320789 150.291406 
L 253.767895 152.618028 
L 265.215 155.113358 
L 265.215 146.986515 
L 265.215 146.986515 
L 253.767895 143.268657 
L 242.320789 139.929805 
L 230.873684 136.534272 
L 219.426579 131.817811 
L 207.979474 127.608044 
L 196.532368 122.080243 
L 185.085263 116.699139 
L 173.638158 110.708978 
L 162.191053 103.525009 
L 150.743947 97.02768 
L 139.296842 88.758639 
L 127.849737 80.052151 
L 116.402632 70.612102 
L 104.955526 62.28341 
L 93.508421 53.582069 
L 82.061316 45.855835 
L 70.614211 40.041212 
L 59.167105 35.653328 
L 47.72 33.569091 
z
" clip-path="url(#p26d2704dd9)" style="fill: #1f77b4; fill-opacity: 0.4"/>
   </g>
   <g id="PolyCollection_2">
    <path d="M 47.72 33.582379 
L 47.72 34.176877 
L 59.167105 35.648646 
L 70.614211 38.669122 
L 82.061316 43.501668 
L 93.508421 49.954166 
L 104.955526 58.101316 
L 116.402632 66.484191 
L 127.849737 76.070219 
L 139.296842 84.557021 
L 150.743947 93.93297 
L 162.191053 101.064852 
L 173.638158 108.500638 
L 185.085263 115.755285 
L 196.532368 121.272658 
L 207.979474 127.163083 
L 219.426579 132.074709 
L 230.873684 136.082684 
L 242.320789 140.585841 
L 253.767895 143.067946 
L 265.215 146.242213 
L 265.215 138.491187 
L 265.215 138.491187 
L 253.767895 133.919392 
L 242.320789 130.083726 
L 230.873684 125.888866 
L 219.426579 121.202503 
L 207.979474 115.498009 
L 196.532368 109.49789 
L 185.085263 103.291306 
L 173.638158 96.810263 
L 162.191053 89.205137 
L 150.743947 82.892591 
L 139.296842 74.977764 
L 127.849737 66.757049 
L 116.402632 59.087333 
L 104.955526 52.700102 
L 93.508421 46.328068 
L 82.061316 41.245451 
L 70.614211 37.488919 
L 59.167105 35.102858 
L 47.72 33.582379 
z
" clip-path="url(#p26d2704dd9)" style="fill: #ff7f0e; fill-opacity: 0.4"/>
   </g>
   <g id="PolyCollection_3">
    <path d="M 47.72 33.583137 
L 47.72 34.184287 
L 59.167105 35.745966 
L 70.614211 38.073531 
L 82.061316 41.213538 
L 93.508421 45.210274 
L 104.955526 50.215978 
L 116.402632 54.183269 
L 127.849737 59.74835 
L 139.296842 64.531717 
L 150.743947 69.665255 
L 162.191053 73.570718 
L 173.638158 78.661781 
L 185.085263 83.384748 
L 196.532368 87.987933 
L 207.979474 93.089694 
L 219.426579 97.417139 
L 230.873684 100.981387 
L 242.320789 106.019127 
L 253.767895 109.608166 
L 265.215 113.698137 
L 265.215 105.582504 
L 265.215 105.582504 
L 253.767895 100.45336 
L 242.320789 96.907793 
L 230.873684 92.731797 
L 219.426579 88.870456 
L 207.979474 84.169862 
L 196.532368 80.134118 
L 185.085263 75.699433 
L 173.638158 71.718046 
L 162.191053 67.88851 
L 150.743947 63.550408 
L 139.296842 59.138586 
L 127.849737 54.272715 
L 116.402632 50.235571 
L 104.955526 46.013136 
L 93.508421 42.791588 
L 82.061316 39.769544 
L 70.614211 37.315318 
L 59.167105 35.295073 
L 47.72 33.583137 
z
" clip-path="url(#p26d2704dd9)" style="fill: #2ca02c; fill-opacity: 0.4"/>
   </g>
   <g id="PolyCollection_4">
    <path d="M 47.72 33.59712 
L 47.72 34.19863 
L 59.167105 35.578562 
L 70.614211 37.350916 
L 82.061316 39.909712 
L 93.508421 43.418861 
L 104.955526 48.263128 
L 116.402632 52.506115 
L 127.849737 58.265928 
L 139.296842 63.231161 
L 150.743947 68.602542 
L 162.191053 72.694995 
L 173.638158 77.762317 
L 185.085263 82.624645 
L 196.532368 87.030723 
L 207.979474 92.154326 
L 219.426579 96.45267 
L 230.873684 99.658713 
L 242.320789 104.513326 
L 253.767895 108.034292 
L 265.215 111.647298 
L 265.215 104.455651 
L 265.215 104.455651 
L 253.767895 99.81865 
L 242.320789 96.184527 
L 230.873684 92.17719 
L 219.426579 88.422014 
L 207.979474 84.025795 
L 196.532368 79.86971 
L 185.085263 75.419191 
L 173.638158 71.248549 
L 162.191053 67.0818 
L 150.743947 62.374146 
L 139.296842 57.687958 
L 127.849737 52.53922 
L 116.402632 48.414517 
L 104.955526 44.566954 
L 93.508421 41.539658 
L 82.061316 38.742089 
L 70.614211 36.547172 
L 59.167105 35.03291 
L 47.72 33.59712 
z
" clip-path="url(#p26d2704dd9)" style="fill: #d62728; fill-opacity: 0.4"/>
   </g>
   <g id="PolyCollection_5">
    <path d="M 47.72 33.57688 
L 47.72 34.18589 
L 59.167105 36.180909 
L 70.614211 41.471386 
L 82.061316 49.121853 
L 93.508421 58.485993 
L 104.955526 68.779646 
L 116.402632 78.549762 
L 127.849737 88.188845 
L 139.296842 97.404325 
L 150.743947 106.764155 
L 162.191053 113.489259 
L 173.638158 121.649926 
L 185.085263 128.461801 
L 196.532368 133.256217 
L 207.979474 139.474821 
L 219.426579 143.949145 
L 230.873684 146.947681 
L 242.320789 151.756687 
L 253.767895 152.116485 
L 265.215 156.824573 
L 265.215 147.98223 
L 265.215 147.98223 
L 253.767895 144.251604 
L 242.320789 140.217394 
L 230.873684 137.097062 
L 219.426579 132.52573 
L 207.979474 128.970459 
L 196.532368 122.319681 
L 185.085263 116.662824 
L 173.638158 111.020794 
L 162.191053 103.690539 
L 150.743947 97.31464 
L 139.296842 89.096237 
L 127.849737 80.536077 
L 116.402632 70.943884 
L 104.955526 62.38726 
L 93.508421 53.658834 
L 82.061316 45.862648 
L 70.614211 40.066853 
L 59.167105 35.667458 
L 47.72 33.57688 
z
" clip-path="url(#p26d2704dd9)" style="fill: #9467bd; fill-opacity: 0.4"/>
   </g>
   <g id="PolyCollection_6">
    <path d="M 47.72 33.590584 
L 47.72 34.189823 
L 59.167105 35.660857 
L 70.614211 38.683825 
L 82.061316 43.510158 
L 93.508421 50.021496 
L 104.955526 58.158181 
L 116.402632 66.643795 
L 127.849737 76.01723 
L 139.296842 84.788175 
L 150.743947 93.941317 
L 162.191053 101.278447 
L 173.638158 109.113008 
L 185.085263 116.050633 
L 196.532368 121.358581 
L 207.979474 127.928853 
L 219.426579 132.569752 
L 230.873684 136.04242 
L 242.320789 141.820908 
L 253.767895 142.351348 
L 265.215 147.261824 
L 265.215 139.360516 
L 265.215 139.360516 
L 253.767895 134.708375 
L 242.320789 130.233207 
L 230.873684 126.759455 
L 219.426579 121.575335 
L 207.979474 116.474547 
L 196.532368 109.83918 
L 185.085263 103.299751 
L 173.638158 96.886244 
L 162.191053 89.301647 
L 150.743947 83.136461 
L 139.296842 75.092921 
L 127.849737 66.857321 
L 116.402632 59.326397 
L 104.955526 52.818495 
L 93.508421 46.333148 
L 82.061316 41.24071 
L 70.614211 37.522154 
L 59.167105 35.111759 
L 47.72 33.590584 
z
" clip-path="url(#p26d2704dd9)" style="fill: #8c564b; fill-opacity: 0.4"/>
   </g>
   <g id="PolyCollection_7">
    <path d="M 47.72 43.939401 
L 47.72 46.695887 
L 59.167105 49.643384 
L 70.614211 56.075729 
L 82.061316 65.596613 
L 93.508421 76.495916 
L 104.955526 88.05428 
L 116.402632 98.592399 
L 127.849737 108.306834 
L 139.296842 116.902993 
L 150.743947 125.570467 
L 162.191053 131.642071 
L 173.638158 138.406896 
L 185.085263 144.158129 
L 196.532368 148.717983 
L 207.979474 152.744297 
L 219.426579 157.259529 
L 230.873684 159.757112 
L 242.320789 163.059539 
L 253.767895 165.63009 
L 265.215 167.350909 
L 265.215 157.836753 
L 265.215 157.836753 
L 253.767895 155.256503 
L 242.320789 153.421782 
L 230.873684 150.590436 
L 219.426579 146.823416 
L 207.979474 143.253756 
L 196.532368 138.554021 
L 185.085263 133.70268 
L 173.638158 127.638725 
L 162.191053 120.314478 
L 150.743947 113.875664 
L 139.296842 104.830975 
L 127.849737 95.82625 
L 116.402632 85.193751 
L 104.955526 76.284516 
L 93.508421 66.361696 
L 82.061316 58.06917 
L 70.614211 50.989632 
L 59.167105 46.25046 
L 47.72 43.939401 
z
" clip-path="url(#p26d2704dd9)" style="fill: #e377c2; fill-opacity: 0.4"/>
   </g>
   <g id="PolyCollection_8">
    <path d="M 47.72 33.595187 
L 47.72 34.197516 
L 59.167105 35.029956 
L 70.614211 35.442389 
L 82.061316 37.234981 
L 93.508421 40.961 
L 104.955526 46.697239 
L 116.402632 53.351313 
L 127.849737 61.075901 
L 139.296842 68.967849 
L 150.743947 77.094088 
L 162.191053 84.533676 
L 173.638158 92.792133 
L 185.085263 100.946176 
L 196.532368 107.259482 
L 207.979474 114.671391 
L 219.426579 120.538171 
L 230.873684 125.610539 
L 242.320789 131.283558 
L 253.767895 135.294287 
L 265.215 139.115831 
L 265.215 129.526285 
L 265.215 129.526285 
L 253.767895 124.317975 
L 242.320789 120.324152 
L 230.873684 115.339109 
L 219.426579 109.644128 
L 207.979474 103.268452 
L 196.532368 96.902354 
L 185.085263 89.988087 
L 173.638158 83.199248 
L 162.191053 75.458438 
L 150.743947 68.775021 
L 139.296842 60.425498 
L 127.849737 53.058593 
L 116.402632 46.038218 
L 104.955526 41.65377 
L 93.508421 38.091006 
L 82.061316 35.881031 
L 70.614211 34.825188 
L 59.167105 34.437614 
L 47.72 33.595187 
z
" clip-path="url(#p26d2704dd9)" style="fill: #7f7f7f; fill-opacity: 0.4"/>
   </g>
   <g id="matplotlib.axis_1">
    <g id="xtick_1">
     <g id="line2d_1">
      <defs>
       <path id="m07356a3efe" d="M 0 0 
L 0 3.5 
" style="stroke: #000000; stroke-width: 0.8"/>
      </defs>
      <g>
       <use xlink:href="#m07356a3efe" x="47.72" y="174.04" style="stroke: #000000; stroke-width: 0.8"/>
      </g>
     </g>
     <g id="text_1">
      <!-- 0.0 -->
      <g transform="translate(39.768438 188.638438)scale(0.1 -0.1)">
       <defs>
        <path id="DejaVuSans-30" d="M 2034 4250 
Q 1547 4250 1301 3770 
Q 1056 3291 1056 2328 
Q 1056 1369 1301 889 
Q 1547 409 2034 409 
Q 2525 409 2770 889 
Q 3016 1369 3016 2328 
Q 3016 3291 2770 3770 
Q 2525 4250 2034 4250 
z
M 2034 4750 
Q 2819 4750 3233 4129 
Q 3647 3509 3647 2328 
Q 3647 1150 3233 529 
Q 2819 -91 2034 -91 
Q 1250 -91 836 529 
Q 422 1150 422 2328 
Q 422 3509 836 4129 
Q 1250 4750 2034 4750 
z
" transform="scale(0.015625)"/>
        <path id="DejaVuSans-2e" d="M 684 794 
L 1344 794 
L 1344 0 
L 684 0 
L 684 794 
z
" transform="scale(0.015625)"/>
       </defs>
       <use xlink:href="#DejaVuSans-30"/>
       <use xlink:href="#DejaVuSans-2e" x="63.623047"/>
       <use xlink:href="#DejaVuSans-30" x="95.410156"/>
      </g>
     </g>
    </g>
    <g id="xtick_2">
     <g id="line2d_2">
      <g>
       <use xlink:href="#m07356a3efe" x="102.09375" y="174.04" style="stroke: #000000; stroke-width: 0.8"/>
      </g>
     </g>
     <g id="text_2">
      <!-- 0.5 -->
      <g transform="translate(94.142188 188.638438)scale(0.1 -0.1)">
       <defs>
        <path id="DejaVuSans-35" d="M 691 4666 
L 3169 4666 
L 3169 4134 
L 1269 4134 
L 1269 2991 
Q 1406 3038 1543 3061 
Q 1681 3084 1819 3084 
Q 2600 3084 3056 2656 
Q 3513 2228 3513 1497 
Q 3513 744 3044 326 
Q 2575 -91 1722 -91 
Q 1428 -91 1123 -41 
Q 819 9 494 109 
L 494 744 
Q 775 591 1075 516 
Q 1375 441 1709 441 
Q 2250 441 2565 725 
Q 2881 1009 2881 1497 
Q 2881 1984 2565 2268 
Q 2250 2553 1709 2553 
Q 1456 2553 1204 2497 
Q 953 2441 691 2322 
L 691 4666 
z
" transform="scale(0.015625)"/>
       </defs>
       <use xlink:href="#DejaVuSans-30"/>
       <use xlink:href="#DejaVuSans-2e" x="63.623047"/>
       <use xlink:href="#DejaVuSans-35" x="95.410156"/>
      </g>
     </g>
    </g>
    <g id="xtick_3">
     <g id="line2d_3">
      <g>
       <use xlink:href="#m07356a3efe" x="156.4675" y="174.04" style="stroke: #000000; stroke-width: 0.8"/>
      </g>
     </g>
     <g id="text_3">
      <!-- 1.0 -->
      <g transform="translate(148.515938 188.638438)scale(0.1 -0.1)">
       <defs>
        <path id="DejaVuSans-31" d="M 794 531 
L 1825 531 
L 1825 4091 
L 703 3866 
L 703 4441 
L 1819 4666 
L 2450 4666 
L 2450 531 
L 3481 531 
L 3481 0 
L 794 0 
L 794 531 
z
" transform="scale(0.015625)"/>
       </defs>
       <use xlink:href="#DejaVuSans-31"/>
       <use xlink:href="#DejaVuSans-2e" x="63.623047"/>
       <use xlink:href="#DejaVuSans-30" x="95.410156"/>
      </g>
     </g>
    </g>
    <g id="xtick_4">
     <g id="line2d_4">
      <g>
       <use xlink:href="#m07356a3efe" x="210.84125" y="174.04" style="stroke: #000000; stroke-width: 0.8"/>
      </g>
     </g>
     <g id="text_4">
      <!-- 1.5 -->
      <g transform="translate(202.889687 188.638438)scale(0.1 -0.1)">
       <use xlink:href="#DejaVuSans-31"/>
       <use xlink:href="#DejaVuSans-2e" x="63.623047"/>
       <use xlink:href="#DejaVuSans-35" x="95.410156"/>
      </g>
     </g>
    </g>
    <g id="xtick_5">
     <g id="line2d_5">
      <g>
       <use xlink:href="#m07356a3efe" x="265.215" y="174.04" style="stroke: #000000; stroke-width: 0.8"/>
      </g>
     </g>
     <g id="text_5">
      <!-- 2.0 -->
      <g transform="translate(257.263437 188.638438)scale(0.1 -0.1)">
       <defs>
        <path id="DejaVuSans-32" d="M 1228 531 
L 3431 531 
L 3431 0 
L 469 0 
L 469 531 
Q 828 903 1448 1529 
Q 2069 2156 2228 2338 
Q 2531 2678 2651 2914 
Q 2772 3150 2772 3378 
Q 2772 3750 2511 3984 
Q 2250 4219 1831 4219 
Q 1534 4219 1204 4116 
Q 875 4013 500 3803 
L 500 4441 
Q 881 4594 1212 4672 
Q 1544 4750 1819 4750 
Q 2544 4750 2975 4387 
Q 3406 4025 3406 3419 
Q 3406 3131 3298 2873 
Q 3191 2616 2906 2266 
Q 2828 2175 2409 1742 
Q 1991 1309 1228 531 
z
" transform="scale(0.015625)"/>
       </defs>
       <use xlink:href="#DejaVuSans-32"/>
       <use xlink:href="#DejaVuSans-2e" x="63.623047"/>
       <use xlink:href="#DejaVuSans-30" x="95.410156"/>
      </g>
     </g>
    </g>
    <g id="text_6">
     <!-- Influence of surprisal (multiplication) -->
     <g transform="translate(64.320625 202.316563)scale(0.1 -0.1)">
      <defs>
       <path id="DejaVuSans-49" d="M 628 4666 
L 1259 4666 
L 1259 0 
L 628 0 
L 628 4666 
z
" transform="scale(0.015625)"/>
       <path id="DejaVuSans-6e" d="M 3513 2113 
L 3513 0 
L 2938 0 
L 2938 2094 
Q 2938 2591 2744 2837 
Q 2550 3084 2163 3084 
Q 1697 3084 1428 2787 
Q 1159 2491 1159 1978 
L 1159 0 
L 581 0 
L 581 3500 
L 1159 3500 
L 1159 2956 
Q 1366 3272 1645 3428 
Q 1925 3584 2291 3584 
Q 2894 3584 3203 3211 
Q 3513 2838 3513 2113 
z
" transform="scale(0.015625)"/>
       <path id="DejaVuSans-66" d="M 2375 4863 
L 2375 4384 
L 1825 4384 
Q 1516 4384 1395 4259 
Q 1275 4134 1275 3809 
L 1275 3500 
L 2222 3500 
L 2222 3053 
L 1275 3053 
L 1275 0 
L 697 0 
L 697 3053 
L 147 3053 
L 147 3500 
L 697 3500 
L 697 3744 
Q 697 4328 969 4595 
Q 1241 4863 1831 4863 
L 2375 4863 
z
" transform="scale(0.015625)"/>
       <path id="DejaVuSans-6c" d="M 603 4863 
L 1178 4863 
L 1178 0 
L 603 0 
L 603 4863 
z
" transform="scale(0.015625)"/>
       <path id="DejaVuSans-75" d="M 544 1381 
L 544 3500 
L 1119 3500 
L 1119 1403 
Q 1119 906 1312 657 
Q 1506 409 1894 409 
Q 2359 409 2629 706 
Q 2900 1003 2900 1516 
L 2900 3500 
L 3475 3500 
L 3475 0 
L 2900 0 
L 2900 538 
Q 2691 219 2414 64 
Q 2138 -91 1772 -91 
Q 1169 -91 856 284 
Q 544 659 544 1381 
z
M 1991 3584 
L 1991 3584 
z
" transform="scale(0.015625)"/>
       <path id="DejaVuSans-65" d="M 3597 1894 
L 3597 1613 
L 953 1613 
Q 991 1019 1311 708 
Q 1631 397 2203 397 
Q 2534 397 2845 478 
Q 3156 559 3463 722 
L 3463 178 
Q 3153 47 2828 -22 
Q 2503 -91 2169 -91 
Q 1331 -91 842 396 
Q 353 884 353 1716 
Q 353 2575 817 3079 
Q 1281 3584 2069 3584 
Q 2775 3584 3186 3129 
Q 3597 2675 3597 1894 
z
M 3022 2063 
Q 3016 2534 2758 2815 
Q 2500 3097 2075 3097 
Q 1594 3097 1305 2825 
Q 1016 2553 972 2059 
L 3022 2063 
z
" transform="scale(0.015625)"/>
       <path id="DejaVuSans-63" d="M 3122 3366 
L 3122 2828 
Q 2878 2963 2633 3030 
Q 2388 3097 2138 3097 
Q 1578 3097 1268 2742 
Q 959 2388 959 1747 
Q 959 1106 1268 751 
Q 1578 397 2138 397 
Q 2388 397 2633 464 
Q 2878 531 3122 666 
L 3122 134 
Q 2881 22 2623 -34 
Q 2366 -91 2075 -91 
Q 1284 -91 818 406 
Q 353 903 353 1747 
Q 353 2603 823 3093 
Q 1294 3584 2113 3584 
Q 2378 3584 2631 3529 
Q 2884 3475 3122 3366 
z
" transform="scale(0.015625)"/>
       <path id="DejaVuSans-20" transform="scale(0.015625)"/>
       <path id="DejaVuSans-6f" d="M 1959 3097 
Q 1497 3097 1228 2736 
Q 959 2375 959 1747 
Q 959 1119 1226 758 
Q 1494 397 1959 397 
Q 2419 397 2687 759 
Q 2956 1122 2956 1747 
Q 2956 2369 2687 2733 
Q 2419 3097 1959 3097 
z
M 1959 3584 
Q 2709 3584 3137 3096 
Q 3566 2609 3566 1747 
Q 3566 888 3137 398 
Q 2709 -91 1959 -91 
Q 1206 -91 779 398 
Q 353 888 353 1747 
Q 353 2609 779 3096 
Q 1206 3584 1959 3584 
z
" transform="scale(0.015625)"/>
       <path id="DejaVuSans-73" d="M 2834 3397 
L 2834 2853 
Q 2591 2978 2328 3040 
Q 2066 3103 1784 3103 
Q 1356 3103 1142 2972 
Q 928 2841 928 2578 
Q 928 2378 1081 2264 
Q 1234 2150 1697 2047 
L 1894 2003 
Q 2506 1872 2764 1633 
Q 3022 1394 3022 966 
Q 3022 478 2636 193 
Q 2250 -91 1575 -91 
Q 1294 -91 989 -36 
Q 684 19 347 128 
L 347 722 
Q 666 556 975 473 
Q 1284 391 1588 391 
Q 1994 391 2212 530 
Q 2431 669 2431 922 
Q 2431 1156 2273 1281 
Q 2116 1406 1581 1522 
L 1381 1569 
Q 847 1681 609 1914 
Q 372 2147 372 2553 
Q 372 3047 722 3315 
Q 1072 3584 1716 3584 
Q 2034 3584 2315 3537 
Q 2597 3491 2834 3397 
z
" transform="scale(0.015625)"/>
       <path id="DejaVuSans-72" d="M 2631 2963 
Q 2534 3019 2420 3045 
Q 2306 3072 2169 3072 
Q 1681 3072 1420 2755 
Q 1159 2438 1159 1844 
L 1159 0 
L 581 0 
L 581 3500 
L 1159 3500 
L 1159 2956 
Q 1341 3275 1631 3429 
Q 1922 3584 2338 3584 
Q 2397 3584 2469 3576 
Q 2541 3569 2628 3553 
L 2631 2963 
z
" transform="scale(0.015625)"/>
       <path id="DejaVuSans-70" d="M 1159 525 
L 1159 -1331 
L 581 -1331 
L 581 3500 
L 1159 3500 
L 1159 2969 
Q 1341 3281 1617 3432 
Q 1894 3584 2278 3584 
Q 2916 3584 3314 3078 
Q 3713 2572 3713 1747 
Q 3713 922 3314 415 
Q 2916 -91 2278 -91 
Q 1894 -91 1617 61 
Q 1341 213 1159 525 
z
M 3116 1747 
Q 3116 2381 2855 2742 
Q 2594 3103 2138 3103 
Q 1681 3103 1420 2742 
Q 1159 2381 1159 1747 
Q 1159 1113 1420 752 
Q 1681 391 2138 391 
Q 2594 391 2855 752 
Q 3116 1113 3116 1747 
z
" transform="scale(0.015625)"/>
       <path id="DejaVuSans-69" d="M 603 3500 
L 1178 3500 
L 1178 0 
L 603 0 
L 603 3500 
z
M 603 4863 
L 1178 4863 
L 1178 4134 
L 603 4134 
L 603 4863 
z
" transform="scale(0.015625)"/>
       <path id="DejaVuSans-61" d="M 2194 1759 
Q 1497 1759 1228 1600 
Q 959 1441 959 1056 
Q 959 750 1161 570 
Q 1363 391 1709 391 
Q 2188 391 2477 730 
Q 2766 1069 2766 1631 
L 2766 1759 
L 2194 1759 
z
M 3341 1997 
L 3341 0 
L 2766 0 
L 2766 531 
Q 2569 213 2275 61 
Q 1981 -91 1556 -91 
Q 1019 -91 701 211 
Q 384 513 384 1019 
Q 384 1609 779 1909 
Q 1175 2209 1959 2209 
L 2766 2209 
L 2766 2266 
Q 2766 2663 2505 2880 
Q 2244 3097 1772 3097 
Q 1472 3097 1187 3025 
Q 903 2953 641 2809 
L 641 3341 
Q 956 3463 1253 3523 
Q 1550 3584 1831 3584 
Q 2591 3584 2966 3190 
Q 3341 2797 3341 1997 
z
" transform="scale(0.015625)"/>
       <path id="DejaVuSans-28" d="M 1984 4856 
Q 1566 4138 1362 3434 
Q 1159 2731 1159 2009 
Q 1159 1288 1364 580 
Q 1569 -128 1984 -844 
L 1484 -844 
Q 1016 -109 783 600 
Q 550 1309 550 2009 
Q 550 2706 781 3412 
Q 1013 4119 1484 4856 
L 1984 4856 
z
" transform="scale(0.015625)"/>
       <path id="DejaVuSans-6d" d="M 3328 2828 
Q 3544 3216 3844 3400 
Q 4144 3584 4550 3584 
Q 5097 3584 5394 3201 
Q 5691 2819 5691 2113 
L 5691 0 
L 5113 0 
L 5113 2094 
Q 5113 2597 4934 2840 
Q 4756 3084 4391 3084 
Q 3944 3084 3684 2787 
Q 3425 2491 3425 1978 
L 3425 0 
L 2847 0 
L 2847 2094 
Q 2847 2600 2669 2842 
Q 2491 3084 2119 3084 
Q 1678 3084 1418 2786 
Q 1159 2488 1159 1978 
L 1159 0 
L 581 0 
L 581 3500 
L 1159 3500 
L 1159 2956 
Q 1356 3278 1631 3431 
Q 1906 3584 2284 3584 
Q 2666 3584 2933 3390 
Q 3200 3197 3328 2828 
z
" transform="scale(0.015625)"/>
       <path id="DejaVuSans-74" d="M 1172 4494 
L 1172 3500 
L 2356 3500 
L 2356 3053 
L 1172 3053 
L 1172 1153 
Q 1172 725 1289 603 
Q 1406 481 1766 481 
L 2356 481 
L 2356 0 
L 1766 0 
Q 1100 0 847 248 
Q 594 497 594 1153 
L 594 3053 
L 172 3053 
L 172 3500 
L 594 3500 
L 594 4494 
L 1172 4494 
z
" transform="scale(0.015625)"/>
       <path id="DejaVuSans-29" d="M 513 4856 
L 1013 4856 
Q 1481 4119 1714 3412 
Q 1947 2706 1947 2009 
Q 1947 1309 1714 600 
Q 1481 -109 1013 -844 
L 513 -844 
Q 928 -128 1133 580 
Q 1338 1288 1338 2009 
Q 1338 2731 1133 3434 
Q 928 4138 513 4856 
z
" transform="scale(0.015625)"/>
      </defs>
      <use xlink:href="#DejaVuSans-49"/>
      <use xlink:href="#DejaVuSans-6e" x="29.492188"/>
      <use xlink:href="#DejaVuSans-66" x="92.871094"/>
      <use xlink:href="#DejaVuSans-6c" x="128.076172"/>
      <use xlink:href="#DejaVuSans-75" x="155.859375"/>
      <use xlink:href="#DejaVuSans-65" x="219.238281"/>
      <use xlink:href="#DejaVuSans-6e" x="280.761719"/>
      <use xlink:href="#DejaVuSans-63" x="344.140625"/>
      <use xlink:href="#DejaVuSans-65" x="399.121094"/>
      <use xlink:href="#DejaVuSans-20" x="460.644531"/>
      <use xlink:href="#DejaVuSans-6f" x="492.431641"/>
      <use xlink:href="#DejaVuSans-66" x="553.613281"/>
      <use xlink:href="#DejaVuSans-20" x="588.818359"/>
      <use xlink:href="#DejaVuSans-73" x="620.605469"/>
      <use xlink:href="#DejaVuSans-75" x="672.705078"/>
      <use xlink:href="#DejaVuSans-72" x="736.083984"/>
      <use xlink:href="#DejaVuSans-70" x="777.197266"/>
      <use xlink:href="#DejaVuSans-72" x="840.673828"/>
      <use xlink:href="#DejaVuSans-69" x="881.787109"/>
      <use xlink:href="#DejaVuSans-73" x="909.570312"/>
      <use xlink:href="#DejaVuSans-61" x="961.669922"/>
      <use xlink:href="#DejaVuSans-6c" x="1022.949219"/>
      <use xlink:href="#DejaVuSans-20" x="1050.732422"/>
      <use xlink:href="#DejaVuSans-28" x="1082.519531"/>
      <use xlink:href="#DejaVuSans-6d" x="1121.533203"/>
      <use xlink:href="#DejaVuSans-75" x="1218.945312"/>
      <use xlink:href="#DejaVuSans-6c" x="1282.324219"/>
      <use xlink:href="#DejaVuSans-74" x="1310.107422"/>
      <use xlink:href="#DejaVuSans-69" x="1349.316406"/>
      <use xlink:href="#DejaVuSans-70" x="1377.099609"/>
      <use xlink:href="#DejaVuSans-6c" x="1440.576172"/>
      <use xlink:href="#DejaVuSans-69" x="1468.359375"/>
      <use xlink:href="#DejaVuSans-63" x="1496.142578"/>
      <use xlink:href="#DejaVuSans-61" x="1551.123047"/>
      <use xlink:href="#DejaVuSans-74" x="1612.402344"/>
      <use xlink:href="#DejaVuSans-69" x="1651.611328"/>
      <use xlink:href="#DejaVuSans-6f" x="1679.394531"/>
      <use xlink:href="#DejaVuSans-6e" x="1740.576172"/>
      <use xlink:href="#DejaVuSans-29" x="1803.955078"/>
     </g>
    </g>
   </g>
   <g id="matplotlib.axis_2">
    <g id="ytick_1">
     <g id="line2d_6">
      <defs>
       <path id="m0a20898d5d" d="M 0 0 
L -3.5 0 
" style="stroke: #000000; stroke-width: 0.8"/>
      </defs>
      <g>
       <use xlink:href="#m0a20898d5d" x="47.72" y="153.646389" style="stroke: #000000; stroke-width: 0.8"/>
      </g>
     </g>
     <g id="text_7">
      <!-- 0.2 -->
      <g transform="translate(24.816875 157.445608)scale(0.1 -0.1)">
       <use xlink:href="#DejaVuSans-30"/>
       <use xlink:href="#DejaVuSans-2e" x="63.623047"/>
       <use xlink:href="#DejaVuSans-32" x="95.410156"/>
      </g>
     </g>
    </g>
    <g id="ytick_2">
     <g id="line2d_7">
      <g>
       <use xlink:href="#m0a20898d5d" x="47.72" y="121.48301" style="stroke: #000000; stroke-width: 0.8"/>
      </g>
     </g>
     <g id="text_8">
      <!-- 0.4 -->
      <g transform="translate(24.816875 125.282229)scale(0.1 -0.1)">
       <defs>
        <path id="DejaVuSans-34" d="M 2419 4116 
L 825 1625 
L 2419 1625 
L 2419 4116 
z
M 2253 4666 
L 3047 4666 
L 3047 1625 
L 3713 1625 
L 3713 1100 
L 3047 1100 
L 3047 0 
L 2419 0 
L 2419 1100 
L 313 1100 
L 313 1709 
L 2253 4666 
z
" transform="scale(0.015625)"/>
       </defs>
       <use xlink:href="#DejaVuSans-30"/>
       <use xlink:href="#DejaVuSans-2e" x="63.623047"/>
       <use xlink:href="#DejaVuSans-34" x="95.410156"/>
      </g>
     </g>
    </g>
    <g id="ytick_3">
     <g id="line2d_8">
      <g>
       <use xlink:href="#m0a20898d5d" x="47.72" y="89.319631" style="stroke: #000000; stroke-width: 0.8"/>
      </g>
     </g>
     <g id="text_9">
      <!-- 0.6 -->
      <g transform="translate(24.816875 93.11885)scale(0.1 -0.1)">
       <defs>
        <path id="DejaVuSans-36" d="M 2113 2584 
Q 1688 2584 1439 2293 
Q 1191 2003 1191 1497 
Q 1191 994 1439 701 
Q 1688 409 2113 409 
Q 2538 409 2786 701 
Q 3034 994 3034 1497 
Q 3034 2003 2786 2293 
Q 2538 2584 2113 2584 
z
M 3366 4563 
L 3366 3988 
Q 3128 4100 2886 4159 
Q 2644 4219 2406 4219 
Q 1781 4219 1451 3797 
Q 1122 3375 1075 2522 
Q 1259 2794 1537 2939 
Q 1816 3084 2150 3084 
Q 2853 3084 3261 2657 
Q 3669 2231 3669 1497 
Q 3669 778 3244 343 
Q 2819 -91 2113 -91 
Q 1303 -91 875 529 
Q 447 1150 447 2328 
Q 447 3434 972 4092 
Q 1497 4750 2381 4750 
Q 2619 4750 2861 4703 
Q 3103 4656 3366 4563 
z
" transform="scale(0.015625)"/>
       </defs>
       <use xlink:href="#DejaVuSans-30"/>
       <use xlink:href="#DejaVuSans-2e" x="63.623047"/>
       <use xlink:href="#DejaVuSans-36" x="95.410156"/>
      </g>
     </g>
    </g>
    <g id="ytick_4">
     <g id="line2d_9">
      <g>
       <use xlink:href="#m0a20898d5d" x="47.72" y="57.156252" style="stroke: #000000; stroke-width: 0.8"/>
      </g>
     </g>
     <g id="text_10">
      <!-- 0.8 -->
      <g transform="translate(24.816875 60.955471)scale(0.1 -0.1)">
       <defs>
        <path id="DejaVuSans-38" d="M 2034 2216 
Q 1584 2216 1326 1975 
Q 1069 1734 1069 1313 
Q 1069 891 1326 650 
Q 1584 409 2034 409 
Q 2484 409 2743 651 
Q 3003 894 3003 1313 
Q 3003 1734 2745 1975 
Q 2488 2216 2034 2216 
z
M 1403 2484 
Q 997 2584 770 2862 
Q 544 3141 544 3541 
Q 544 4100 942 4425 
Q 1341 4750 2034 4750 
Q 2731 4750 3128 4425 
Q 3525 4100 3525 3541 
Q 3525 3141 3298 2862 
Q 3072 2584 2669 2484 
Q 3125 2378 3379 2068 
Q 3634 1759 3634 1313 
Q 3634 634 3220 271 
Q 2806 -91 2034 -91 
Q 1263 -91 848 271 
Q 434 634 434 1313 
Q 434 1759 690 2068 
Q 947 2378 1403 2484 
z
M 1172 3481 
Q 1172 3119 1398 2916 
Q 1625 2713 2034 2713 
Q 2441 2713 2670 2916 
Q 2900 3119 2900 3481 
Q 2900 3844 2670 4047 
Q 2441 4250 2034 4250 
Q 1625 4250 1398 4047 
Q 1172 3844 1172 3481 
z
" transform="scale(0.015625)"/>
       </defs>
       <use xlink:href="#DejaVuSans-30"/>
       <use xlink:href="#DejaVuSans-2e" x="63.623047"/>
       <use xlink:href="#DejaVuSans-38" x="95.410156"/>
      </g>
     </g>
    </g>
    <g id="text_11">
     <!-- R-value -->
     <g transform="translate(18.737188 119.064687)rotate(-90)scale(0.1 -0.1)">
      <defs>
       <path id="DejaVuSans-52" d="M 2841 2188 
Q 3044 2119 3236 1894 
Q 3428 1669 3622 1275 
L 4263 0 
L 3584 0 
L 2988 1197 
Q 2756 1666 2539 1819 
Q 2322 1972 1947 1972 
L 1259 1972 
L 1259 0 
L 628 0 
L 628 4666 
L 2053 4666 
Q 2853 4666 3247 4331 
Q 3641 3997 3641 3322 
Q 3641 2881 3436 2590 
Q 3231 2300 2841 2188 
z
M 1259 4147 
L 1259 2491 
L 2053 2491 
Q 2509 2491 2742 2702 
Q 2975 2913 2975 3322 
Q 2975 3731 2742 3939 
Q 2509 4147 2053 4147 
L 1259 4147 
z
" transform="scale(0.015625)"/>
       <path id="DejaVuSans-2d" d="M 313 2009 
L 1997 2009 
L 1997 1497 
L 313 1497 
L 313 2009 
z
" transform="scale(0.015625)"/>
       <path id="DejaVuSans-76" d="M 191 3500 
L 800 3500 
L 1894 563 
L 2988 3500 
L 3597 3500 
L 2284 0 
L 1503 0 
L 191 3500 
z
" transform="scale(0.015625)"/>
      </defs>
      <use xlink:href="#DejaVuSans-52"/>
      <use xlink:href="#DejaVuSans-2d" x="65.482422"/>
      <use xlink:href="#DejaVuSans-76" x="98.941406"/>
      <use xlink:href="#DejaVuSans-61" x="158.121094"/>
      <use xlink:href="#DejaVuSans-6c" x="219.400391"/>
      <use xlink:href="#DejaVuSans-75" x="247.183594"/>
      <use xlink:href="#DejaVuSans-65" x="310.5625"/>
     </g>
    </g>
   </g>
   <g id="line2d_10">
    <path d="M 47.72 33.871296 
L 59.167105 35.912625 
L 70.614211 40.735171 
L 82.061316 47.493183 
L 93.508421 56.000925 
L 104.955526 65.50239 
L 116.402632 74.476099 
L 127.849737 84.224926 
L 139.296842 92.906074 
L 150.743947 101.772343 
L 162.191053 108.372992 
L 173.638158 115.895609 
L 185.085263 122.344143 
L 196.532368 127.526702 
L 207.979474 133.018746 
L 219.426579 137.496717 
L 230.873684 141.513857 
L 242.320789 145.110605 
L 253.767895 147.943342 
L 265.215 151.049937 
" clip-path="url(#p26d2704dd9)" style="fill: none; stroke: #1f77b4; stroke-width: 1.5; stroke-linecap: square"/>
   </g>
   <g id="line2d_11">
    <path d="M 47.72 33.879628 
L 59.167105 35.375752 
L 70.614211 38.07902 
L 82.061316 42.37356 
L 93.508421 48.141117 
L 104.955526 55.400709 
L 116.402632 62.785762 
L 127.849737 71.413634 
L 139.296842 79.767392 
L 150.743947 88.41278 
L 162.191053 95.134994 
L 173.638158 102.65545 
L 185.085263 109.523296 
L 196.532368 115.385274 
L 207.979474 121.330546 
L 219.426579 126.638606 
L 230.873684 130.985775 
L 242.320789 135.334784 
L 253.767895 138.493669 
L 265.215 142.3667 
" clip-path="url(#p26d2704dd9)" style="fill: none; stroke: #ff7f0e; stroke-width: 1.5; stroke-linecap: square"/>
   </g>
   <g id="line2d_12">
    <path d="M 47.72 33.883712 
L 59.167105 35.52052 
L 70.614211 37.694425 
L 82.061316 40.491541 
L 93.508421 44.000931 
L 104.955526 48.114557 
L 116.402632 52.20942 
L 127.849737 57.010533 
L 139.296842 61.835152 
L 150.743947 66.607832 
L 162.191053 70.729614 
L 173.638158 75.189914 
L 185.085263 79.542091 
L 196.532368 84.061026 
L 207.979474 88.629778 
L 219.426579 93.143798 
L 230.873684 96.856592 
L 242.320789 101.46346 
L 253.767895 105.030763 
L 265.215 109.640321 
" clip-path="url(#p26d2704dd9)" style="fill: none; stroke: #2ca02c; stroke-width: 1.5; stroke-linecap: square"/>
   </g>
   <g id="line2d_13">
    <path d="M 47.72 33.897875 
L 59.167105 35.305736 
L 70.614211 36.949044 
L 82.061316 39.3259 
L 93.508421 42.479259 
L 104.955526 46.415041 
L 116.402632 50.460316 
L 127.849737 55.402574 
L 139.296842 60.459559 
L 150.743947 65.488344 
L 162.191053 69.888398 
L 173.638158 74.505433 
L 185.085263 79.021918 
L 196.532368 83.450217 
L 207.979474 88.09006 
L 219.426579 92.437342 
L 230.873684 95.917951 
L 242.320789 100.348926 
L 253.767895 103.926471 
L 265.215 108.051475 
" clip-path="url(#p26d2704dd9)" style="fill: none; stroke: #d62728; stroke-width: 1.5; stroke-linecap: square"/>
   </g>
   <g id="line2d_14">
    <path d="M 47.72 33.881385 
L 59.167105 35.924184 
L 70.614211 40.76912 
L 82.061316 47.49225 
L 93.508421 56.072414 
L 104.955526 65.583453 
L 116.402632 74.746823 
L 127.849737 84.362461 
L 139.296842 93.250281 
L 150.743947 102.039397 
L 162.191053 108.589899 
L 173.638158 116.33536 
L 185.085263 122.562312 
L 196.532368 127.787949 
L 207.979474 134.22264 
L 219.426579 138.237438 
L 230.873684 142.022372 
L 242.320789 145.98704 
L 253.767895 148.184044 
L 265.215 152.403402 
" clip-path="url(#p26d2704dd9)" style="fill: none; stroke: #9467bd; stroke-width: 1.5; stroke-linecap: square"/>
   </g>
   <g id="line2d_15">
    <path d="M 47.72 33.890203 
L 59.167105 35.386308 
L 70.614211 38.102989 
L 82.061316 42.375434 
L 93.508421 48.177322 
L 104.955526 55.488338 
L 116.402632 62.985096 
L 127.849737 71.437276 
L 139.296842 79.940548 
L 150.743947 88.538889 
L 162.191053 95.290047 
L 173.638158 102.999626 
L 185.085263 109.675192 
L 196.532368 115.598881 
L 207.979474 122.2017 
L 219.426579 127.072544 
L 230.873684 131.400938 
L 242.320789 136.027058 
L 253.767895 138.529861 
L 265.215 143.31117 
" clip-path="url(#p26d2704dd9)" style="fill: none; stroke: #8c564b; stroke-width: 1.5; stroke-linecap: square"/>
   </g>
   <g id="line2d_16">
    <path d="M 47.72 45.317644 
L 59.167105 47.946922 
L 70.614211 53.53268 
L 82.061316 61.832891 
L 93.508421 71.428806 
L 104.955526 82.169398 
L 116.402632 91.893075 
L 127.849737 102.066542 
L 139.296842 110.866984 
L 150.743947 119.723066 
L 162.191053 125.978275 
L 173.638158 133.022811 
L 185.085263 138.930404 
L 196.532368 143.636002 
L 207.979474 147.999026 
L 219.426579 152.041473 
L 230.873684 155.173774 
L 242.320789 158.240661 
L 253.767895 160.443296 
L 265.215 162.593831 
" clip-path="url(#p26d2704dd9)" style="fill: none; stroke: #e377c2; stroke-width: 1.5; stroke-linecap: square"/>
   </g>
   <g id="line2d_17">
    <path d="M 47.72 33.896352 
L 59.167105 34.733785 
L 70.614211 35.133789 
L 82.061316 36.558006 
L 93.508421 39.526003 
L 104.955526 44.175505 
L 116.402632 49.694765 
L 127.849737 57.067247 
L 139.296842 64.696673 
L 150.743947 72.934555 
L 162.191053 79.996057 
L 173.638158 87.995691 
L 185.085263 95.467131 
L 196.532368 102.080918 
L 207.979474 108.969921 
L 219.426579 115.09115 
L 230.873684 120.474824 
L 242.320789 125.803855 
L 253.767895 129.806131 
L 265.215 134.321058 
" clip-path="url(#p26d2704dd9)" style="fill: none; stroke: #7f7f7f; stroke-width: 1.5; stroke-linecap: square"/>
   </g>
   <g id="patch_3">
    <path d="M 47.72 174.04 
L 47.72 26.88 
" style="fill: none; stroke: #000000; stroke-width: 0.8; stroke-linejoin: miter; stroke-linecap: square"/>
   </g>
   <g id="patch_4">
    <path d="M 47.72 174.04 
L 265.215 174.04 
" style="fill: none; stroke: #000000; stroke-width: 0.8; stroke-linejoin: miter; stroke-linecap: square"/>
   </g>
   <g id="text_12">
    <!-- Node * surprisal -->
    <g transform="translate(108.18625 20.88)scale(0.12 -0.12)">
     <defs>
      <path id="DejaVuSans-4e" d="M 628 4666 
L 1478 4666 
L 3547 763 
L 3547 4666 
L 4159 4666 
L 4159 0 
L 3309 0 
L 1241 3903 
L 1241 0 
L 628 0 
L 628 4666 
z
" transform="scale(0.015625)"/>
      <path id="DejaVuSans-64" d="M 2906 2969 
L 2906 4863 
L 3481 4863 
L 3481 0 
L 2906 0 
L 2906 525 
Q 2725 213 2448 61 
Q 2172 -91 1784 -91 
Q 1150 -91 751 415 
Q 353 922 353 1747 
Q 353 2572 751 3078 
Q 1150 3584 1784 3584 
Q 2172 3584 2448 3432 
Q 2725 3281 2906 2969 
z
M 947 1747 
Q 947 1113 1208 752 
Q 1469 391 1925 391 
Q 2381 391 2643 752 
Q 2906 1113 2906 1747 
Q 2906 2381 2643 2742 
Q 2381 3103 1925 3103 
Q 1469 3103 1208 2742 
Q 947 2381 947 1747 
z
" transform="scale(0.015625)"/>
      <path id="DejaVuSans-2a" d="M 3009 3897 
L 1888 3291 
L 3009 2681 
L 2828 2375 
L 1778 3009 
L 1778 1831 
L 1422 1831 
L 1422 3009 
L 372 2375 
L 191 2681 
L 1313 3291 
L 191 3897 
L 372 4206 
L 1422 3572 
L 1422 4750 
L 1778 4750 
L 1778 3572 
L 2828 4206 
L 3009 3897 
z
" transform="scale(0.015625)"/>
     </defs>
     <use xlink:href="#DejaVuSans-4e"/>
     <use xlink:href="#DejaVuSans-6f" x="74.804688"/>
     <use xlink:href="#DejaVuSans-64" x="135.986328"/>
     <use xlink:href="#DejaVuSans-65" x="199.462891"/>
     <use xlink:href="#DejaVuSans-20" x="260.986328"/>
     <use xlink:href="#DejaVuSans-2a" x="292.773438"/>
     <use xlink:href="#DejaVuSans-20" x="342.773438"/>
     <use xlink:href="#DejaVuSans-73" x="374.560547"/>
     <use xlink:href="#DejaVuSans-75" x="426.660156"/>
     <use xlink:href="#DejaVuSans-72" x="490.039062"/>
     <use xlink:href="#DejaVuSans-70" x="531.152344"/>
     <use xlink:href="#DejaVuSans-72" x="594.628906"/>
     <use xlink:href="#DejaVuSans-69" x="635.742188"/>
     <use xlink:href="#DejaVuSans-73" x="663.525391"/>
     <use xlink:href="#DejaVuSans-61" x="715.625"/>
     <use xlink:href="#DejaVuSans-6c" x="776.904297"/>
    </g>
   </g>
  </g>
  <g id="axes_2">
   <g id="patch_5">
    <path d="M 298.065 174.04 
L 515.56 174.04 
L 515.56 26.88 
L 298.065 26.88 
z
" style="fill: #ffffff"/>
   </g>
   <g id="PolyCollection_9">
    <path d="M 298.065 33.729123 
L 298.065 34.280879 
L 309.512105 36.776747 
L 320.959211 43.520854 
L 332.406316 52.737688 
L 343.853421 62.764242 
L 355.300526 73.540569 
L 366.747632 85.929308 
L 378.194737 96.418769 
L 389.641842 105.994992 
L 401.088947 114.400141 
L 412.536053 124.102413 
L 423.983158 130.928833 
L 435.430263 137.956007 
L 446.877368 142.770336 
L 458.324474 148.036591 
L 469.771579 152.008666 
L 481.218684 155.836797 
L 492.665789 158.819816 
L 504.112895 162.002458 
L 515.56 163.482807 
L 515.56 148.763051 
L 515.56 148.763051 
L 504.112895 146.269015 
L 492.665789 143.416706 
L 481.218684 139.960724 
L 469.771579 136.090216 
L 458.324474 133.07532 
L 446.877368 127.591589 
L 435.430263 122.392 
L 423.983158 116.954366 
L 412.536053 109.963577 
L 401.088947 101.865305 
L 389.641842 93.941345 
L 378.194737 84.891857 
L 366.747632 75.518328 
L 355.300526 66.210702 
L 343.853421 57.009391 
L 332.406316 48.476944 
L 320.959211 41.662284 
L 309.512105 35.690216 
L 298.065 33.729123 
z
" clip-path="url(#p675ba288e2)" style="fill: #1f77b4; fill-opacity: 0.4"/>
   </g>
   <g id="PolyCollection_10">
    <path d="M 298.065 33.735335 
L 298.065 34.288417 
L 309.512105 36.792234 
L 320.959211 43.52953 
L 332.406316 52.679257 
L 343.853421 62.725988 
L 355.300526 73.460618 
L 366.747632 85.852381 
L 378.194737 96.372292 
L 389.641842 105.976015 
L 401.088947 114.382868 
L 412.536053 124.129374 
L 423.983158 130.951837 
L 435.430263 138.164254 
L 446.877368 142.95535 
L 458.324474 148.322278 
L 469.771579 152.291464 
L 481.218684 155.966401 
L 492.665789 159.159614 
L 504.112895 162.266084 
L 515.56 163.914717 
L 515.56 149.26843 
L 515.56 149.26843 
L 504.112895 146.881212 
L 492.665789 143.730486 
L 481.218684 140.297246 
L 469.771579 136.273438 
L 458.324474 133.202311 
L 446.877368 127.724171 
L 435.430263 122.427016 
L 423.983158 117.063037 
L 412.536053 110.012602 
L 401.088947 101.937852 
L 389.641842 94.057586 
L 378.194737 85.093566 
L 366.747632 75.60635 
L 355.300526 66.321693 
L 343.853421 57.086837 
L 332.406316 48.551547 
L 320.959211 41.670671 
L 309.512105 35.710676 
L 298.065 33.735335 
z
" clip-path="url(#p675ba288e2)" style="fill: #ff7f0e; fill-opacity: 0.4"/>
   </g>
   <g id="PolyCollection_11">
    <path d="M 298.065 33.736536 
L 298.065 34.287996 
L 309.512105 36.790648 
L 320.959211 43.53391 
L 332.406316 52.697331 
L 343.853421 62.717056 
L 355.300526 73.406374 
L 366.747632 85.85078 
L 378.194737 96.375227 
L 389.641842 105.887424 
L 401.088947 114.27413 
L 412.536053 124.032641 
L 423.983158 130.839904 
L 435.430263 137.983325 
L 446.877368 143.050762 
L 458.324474 148.529797 
L 469.771579 152.662484 
L 481.218684 156.649715 
L 492.665789 159.70351 
L 504.112895 163.141653 
L 515.56 164.791431 
L 515.56 149.751893 
L 515.56 149.751893 
L 504.112895 147.280312 
L 492.665789 144.250686 
L 481.218684 140.723822 
L 469.771579 136.447841 
L 458.324474 133.380574 
L 446.877368 127.90189 
L 435.430263 122.424057 
L 423.983158 117.025075 
L 412.536053 109.802351 
L 401.088947 101.631829 
L 389.641842 93.755618 
L 378.194737 84.790031 
L 366.747632 75.491272 
L 355.300526 66.200957 
L 343.853421 57.034144 
L 332.406316 48.530793 
L 320.959211 41.661164 
L 309.512105 35.7028 
L 298.065 33.736536 
z
" clip-path="url(#p675ba288e2)" style="fill: #2ca02c; fill-opacity: 0.4"/>
   </g>
   <g id="PolyCollection_12">
    <path d="M 298.065 33.743486 
L 298.065 34.299021 
L 309.512105 36.80921 
L 320.959211 43.563133 
L 332.406316 52.689504 
L 343.853421 62.711849 
L 355.300526 73.388615 
L 366.747632 85.843023 
L 378.194737 96.364593 
L 389.641842 105.970851 
L 401.088947 114.320371 
L 412.536053 124.234687 
L 423.983158 131.119227 
L 435.430263 138.410998 
L 446.877368 143.562186 
L 458.324474 149.108821 
L 469.771579 153.21856 
L 481.218684 157.337246 
L 492.665789 160.344242 
L 504.112895 163.710155 
L 515.56 165.632165 
L 515.56 150.83566 
L 515.56 150.83566 
L 504.112895 148.37318 
L 492.665789 145.126683 
L 481.218684 141.526974 
L 469.771579 137.094977 
L 458.324474 134.024766 
L 446.877368 128.428976 
L 435.430263 122.787739 
L 423.983158 117.264684 
L 412.536053 109.96768 
L 401.088947 101.782562 
L 389.641842 93.861291 
L 378.194737 84.910014 
L 366.747632 75.531933 
L 355.300526 66.284233 
L 343.853421 57.087167 
L 332.406316 48.555961 
L 320.959211 41.661129 
L 309.512105 35.721755 
L 298.065 33.743486 
z
" clip-path="url(#p675ba288e2)" style="fill: #d62728; fill-opacity: 0.4"/>
   </g>
   <g id="PolyCollection_13">
    <path d="M 298.065 33.737928 
L 298.065 34.28983 
L 309.512105 36.796678 
L 320.959211 43.627317 
L 332.406316 52.744871 
L 343.853421 62.737719 
L 355.300526 73.633917 
L 366.747632 86.109282 
L 378.194737 96.500156 
L 389.641842 105.922598 
L 401.088947 114.748337 
L 412.536053 123.886983 
L 423.983158 130.999155 
L 435.430263 138.405521 
L 446.877368 142.287081 
L 458.324474 148.669164 
L 469.771579 151.636722 
L 481.218684 156.795265 
L 492.665789 158.678632 
L 504.112895 162.223194 
L 515.56 165.166798 
L 515.56 148.098679 
L 515.56 148.098679 
L 504.112895 148.161561 
L 492.665789 143.484088 
L 481.218684 139.401369 
L 469.771579 137.253888 
L 458.324474 133.434546 
L 446.877368 127.450506 
L 435.430263 122.369455 
L 423.983158 117.1352 
L 412.536053 110.079804 
L 401.088947 102.582639 
L 389.641842 93.829815 
L 378.194737 84.969201 
L 366.747632 75.548352 
L 355.300526 66.249156 
L 343.853421 57.120662 
L 332.406316 48.52298 
L 320.959211 41.690103 
L 309.512105 35.712802 
L 298.065 33.737928 
z
" clip-path="url(#p675ba288e2)" style="fill: #9467bd; fill-opacity: 0.4"/>
   </g>
   <g id="PolyCollection_14">
    <path d="M 298.065 33.744733 
L 298.065 34.298143 
L 309.512105 36.812884 
L 320.959211 43.636144 
L 332.406316 52.686047 
L 343.853421 62.700334 
L 355.300526 73.560125 
L 366.747632 86.024573 
L 378.194737 96.446626 
L 389.641842 105.896985 
L 401.088947 114.719006 
L 412.536053 123.855717 
L 423.983158 131.005206 
L 435.430263 138.590466 
L 446.877368 142.48474 
L 458.324474 148.933616 
L 469.771579 151.922762 
L 481.218684 156.947281 
L 492.665789 158.985062 
L 504.112895 162.474456 
L 515.56 165.56871 
L 515.56 148.531891 
L 515.56 148.531891 
L 504.112895 148.791841 
L 492.665789 143.831495 
L 481.218684 139.701566 
L 469.771579 137.47093 
L 458.324474 133.590182 
L 446.877368 127.544758 
L 435.430263 122.430334 
L 423.983158 117.261574 
L 412.536053 110.171312 
L 401.088947 102.672124 
L 389.641842 93.943455 
L 378.194737 85.166898 
L 366.747632 75.637702 
L 355.300526 66.358029 
L 343.853421 57.194993 
L 332.406316 48.600472 
L 320.959211 41.697402 
L 309.512105 35.734259 
L 298.065 33.744733 
z
" clip-path="url(#p675ba288e2)" style="fill: #8c564b; fill-opacity: 0.4"/>
   </g>
   <g id="PolyCollection_15">
    <path d="M 298.065 44.186958 
L 298.065 46.714163 
L 309.512105 49.319001 
L 320.959211 55.46363 
L 332.406316 64.320667 
L 343.853421 73.767588 
L 355.300526 83.262739 
L 366.747632 94.667459 
L 378.194737 104.080202 
L 389.641842 113.051778 
L 401.088947 120.554755 
L 412.536053 130.017369 
L 423.983158 136.424848 
L 435.430263 142.689702 
L 446.877368 147.317747 
L 458.324474 152.100611 
L 469.771579 155.594533 
L 481.218684 159.199873 
L 492.665789 161.496871 
L 504.112895 164.585515 
L 515.56 165.594881 
L 515.56 149.622615 
L 515.56 149.622615 
L 504.112895 147.567142 
L 492.665789 145.025748 
L 481.218684 141.871841 
L 469.771579 138.272222 
L 458.324474 135.955624 
L 446.877368 131.095237 
L 435.430263 126.563386 
L 423.983158 121.915199 
L 412.536053 115.649872 
L 401.088947 108.725621 
L 389.641842 101.051831 
L 378.194737 93.185125 
L 366.747632 84.409069 
L 355.300526 75.345937 
L 343.853421 66.553805 
L 332.406316 58.249574 
L 320.959211 52.056144 
L 309.512105 45.971562 
L 298.065 44.186958 
z
" clip-path="url(#p675ba288e2)" style="fill: #e377c2; fill-opacity: 0.4"/>
   </g>
   <g id="PolyCollection_16">
    <path d="M 298.065 33.741022 
L 298.065 34.297359 
L 309.512105 36.811518 
L 320.959211 43.54558 
L 332.406316 52.717452 
L 343.853421 62.800696 
L 355.300526 73.497122 
L 366.747632 85.889003 
L 378.194737 96.358038 
L 389.641842 105.908433 
L 401.088947 114.334272 
L 412.536053 124.128664 
L 423.983158 130.811463 
L 435.430263 138.118411 
L 446.877368 143.028141 
L 458.324474 148.336879 
L 469.771579 152.481813 
L 481.218684 156.187758 
L 492.665789 159.215122 
L 504.112895 162.462589 
L 515.56 164.304565 
L 515.56 149.794845 
L 515.56 149.794845 
L 504.112895 147.500051 
L 492.665789 144.358512 
L 481.218684 140.847413 
L 469.771579 136.649906 
L 458.324474 133.416947 
L 446.877368 127.853034 
L 435.430263 122.458242 
L 423.983158 116.997804 
L 412.536053 109.9151 
L 401.088947 101.876122 
L 389.641842 93.974102 
L 378.194737 85.010587 
L 366.747632 75.546141 
L 355.300526 66.316488 
L 343.853421 57.058841 
L 332.406316 48.571419 
L 320.959211 41.694253 
L 309.512105 35.741505 
L 298.065 33.741022 
z
" clip-path="url(#p675ba288e2)" style="fill: #7f7f7f; fill-opacity: 0.4"/>
   </g>
   <g id="matplotlib.axis_3">
    <g id="xtick_6">
     <g id="line2d_18">
      <g>
       <use xlink:href="#m07356a3efe" x="298.065" y="174.04" style="stroke: #000000; stroke-width: 0.8"/>
      </g>
     </g>
     <g id="text_13">
      <!-- 0.0 -->
      <g transform="translate(290.113437 188.638438)scale(0.1 -0.1)">
       <use xlink:href="#DejaVuSans-30"/>
       <use xlink:href="#DejaVuSans-2e" x="63.623047"/>
       <use xlink:href="#DejaVuSans-30" x="95.410156"/>
      </g>
     </g>
    </g>
    <g id="xtick_7">
     <g id="line2d_19">
      <g>
       <use xlink:href="#m07356a3efe" x="352.43875" y="174.04" style="stroke: #000000; stroke-width: 0.8"/>
      </g>
     </g>
     <g id="text_14">
      <!-- 0.5 -->
      <g transform="translate(344.487187 188.638438)scale(0.1 -0.1)">
       <use xlink:href="#DejaVuSans-30"/>
       <use xlink:href="#DejaVuSans-2e" x="63.623047"/>
       <use xlink:href="#DejaVuSans-35" x="95.410156"/>
      </g>
     </g>
    </g>
    <g id="xtick_8">
     <g id="line2d_20">
      <g>
       <use xlink:href="#m07356a3efe" x="406.8125" y="174.04" style="stroke: #000000; stroke-width: 0.8"/>
      </g>
     </g>
     <g id="text_15">
      <!-- 1.0 -->
      <g transform="translate(398.860937 188.638438)scale(0.1 -0.1)">
       <use xlink:href="#DejaVuSans-31"/>
       <use xlink:href="#DejaVuSans-2e" x="63.623047"/>
       <use xlink:href="#DejaVuSans-30" x="95.410156"/>
      </g>
     </g>
    </g>
    <g id="xtick_9">
     <g id="line2d_21">
      <g>
       <use xlink:href="#m07356a3efe" x="461.18625" y="174.04" style="stroke: #000000; stroke-width: 0.8"/>
      </g>
     </g>
     <g id="text_16">
      <!-- 1.5 -->
      <g transform="translate(453.234687 188.638438)scale(0.1 -0.1)">
       <use xlink:href="#DejaVuSans-31"/>
       <use xlink:href="#DejaVuSans-2e" x="63.623047"/>
       <use xlink:href="#DejaVuSans-35" x="95.410156"/>
      </g>
     </g>
    </g>
    <g id="xtick_10">
     <g id="line2d_22">
      <g>
       <use xlink:href="#m07356a3efe" x="515.56" y="174.04" style="stroke: #000000; stroke-width: 0.8"/>
      </g>
     </g>
     <g id="text_17">
      <!-- 2.0 -->
      <g transform="translate(507.608437 188.638438)scale(0.1 -0.1)">
       <use xlink:href="#DejaVuSans-32"/>
       <use xlink:href="#DejaVuSans-2e" x="63.623047"/>
       <use xlink:href="#DejaVuSans-30" x="95.410156"/>
      </g>
     </g>
    </g>
    <g id="text_18">
     <!-- Influence of surprisal (multiplication) -->
     <g transform="translate(314.665625 202.316563)scale(0.1 -0.1)">
      <use xlink:href="#DejaVuSans-49"/>
      <use xlink:href="#DejaVuSans-6e" x="29.492188"/>
      <use xlink:href="#DejaVuSans-66" x="92.871094"/>
      <use xlink:href="#DejaVuSans-6c" x="128.076172"/>
      <use xlink:href="#DejaVuSans-75" x="155.859375"/>
      <use xlink:href="#DejaVuSans-65" x="219.238281"/>
      <use xlink:href="#DejaVuSans-6e" x="280.761719"/>
      <use xlink:href="#DejaVuSans-63" x="344.140625"/>
      <use xlink:href="#DejaVuSans-65" x="399.121094"/>
      <use xlink:href="#DejaVuSans-20" x="460.644531"/>
      <use xlink:href="#DejaVuSans-6f" x="492.431641"/>
      <use xlink:href="#DejaVuSans-66" x="553.613281"/>
      <use xlink:href="#DejaVuSans-20" x="588.818359"/>
      <use xlink:href="#DejaVuSans-73" x="620.605469"/>
      <use xlink:href="#DejaVuSans-75" x="672.705078"/>
      <use xlink:href="#DejaVuSans-72" x="736.083984"/>
      <use xlink:href="#DejaVuSans-70" x="777.197266"/>
      <use xlink:href="#DejaVuSans-72" x="840.673828"/>
      <use xlink:href="#DejaVuSans-69" x="881.787109"/>
      <use xlink:href="#DejaVuSans-73" x="909.570312"/>
      <use xlink:href="#DejaVuSans-61" x="961.669922"/>
      <use xlink:href="#DejaVuSans-6c" x="1022.949219"/>
      <use xlink:href="#DejaVuSans-20" x="1050.732422"/>
      <use xlink:href="#DejaVuSans-28" x="1082.519531"/>
      <use xlink:href="#DejaVuSans-6d" x="1121.533203"/>
      <use xlink:href="#DejaVuSans-75" x="1218.945312"/>
      <use xlink:href="#DejaVuSans-6c" x="1282.324219"/>
      <use xlink:href="#DejaVuSans-74" x="1310.107422"/>
      <use xlink:href="#DejaVuSans-69" x="1349.316406"/>
      <use xlink:href="#DejaVuSans-70" x="1377.099609"/>
      <use xlink:href="#DejaVuSans-6c" x="1440.576172"/>
      <use xlink:href="#DejaVuSans-69" x="1468.359375"/>
      <use xlink:href="#DejaVuSans-63" x="1496.142578"/>
      <use xlink:href="#DejaVuSans-61" x="1551.123047"/>
      <use xlink:href="#DejaVuSans-74" x="1612.402344"/>
      <use xlink:href="#DejaVuSans-69" x="1651.611328"/>
      <use xlink:href="#DejaVuSans-6f" x="1679.394531"/>
      <use xlink:href="#DejaVuSans-6e" x="1740.576172"/>
      <use xlink:href="#DejaVuSans-29" x="1803.955078"/>
     </g>
    </g>
   </g>
   <g id="line2d_23">
    <path d="M 298.065 34.005001 
L 309.512105 36.233482 
L 320.959211 42.591569 
L 332.406316 50.607316 
L 343.853421 59.886817 
L 355.300526 69.875636 
L 366.747632 80.723818 
L 378.194737 90.655313 
L 389.641842 99.968168 
L 401.088947 108.132723 
L 412.536053 117.032995 
L 423.983158 123.9416 
L 435.430263 130.174003 
L 446.877368 135.180963 
L 458.324474 140.555955 
L 469.771579 144.049441 
L 481.218684 147.89876 
L 492.665789 151.118261 
L 504.112895 154.135736 
L 515.56 156.122929 
" clip-path="url(#p675ba288e2)" style="fill: none; stroke: #1f77b4; stroke-width: 1.5; stroke-linecap: square"/>
   </g>
   <g id="line2d_24">
    <path d="M 298.065 34.011876 
L 309.512105 36.251455 
L 320.959211 42.6001 
L 332.406316 50.615402 
L 343.853421 59.906412 
L 355.300526 69.891155 
L 366.747632 80.729365 
L 378.194737 90.732929 
L 389.641842 100.0168 
L 401.088947 108.16036 
L 412.536053 117.070988 
L 423.983158 124.007437 
L 435.430263 130.295635 
L 446.877368 135.339761 
L 458.324474 140.762295 
L 469.771579 144.282451 
L 481.218684 148.131823 
L 492.665789 151.44505 
L 504.112895 154.573648 
L 515.56 156.591574 
" clip-path="url(#p675ba288e2)" style="fill: none; stroke: #ff7f0e; stroke-width: 1.5; stroke-linecap: square"/>
   </g>
   <g id="line2d_25">
    <path d="M 298.065 34.012266 
L 309.512105 36.246724 
L 320.959211 42.597537 
L 332.406316 50.614062 
L 343.853421 59.8756 
L 355.300526 69.803665 
L 366.747632 80.671026 
L 378.194737 90.582629 
L 389.641842 99.821521 
L 401.088947 107.952979 
L 412.536053 116.917496 
L 423.983158 123.93249 
L 435.430263 130.203691 
L 446.877368 135.476326 
L 458.324474 140.955186 
L 469.771579 144.555163 
L 481.218684 148.686769 
L 492.665789 151.977098 
L 504.112895 155.210982 
L 515.56 157.271662 
" clip-path="url(#p675ba288e2)" style="fill: none; stroke: #2ca02c; stroke-width: 1.5; stroke-linecap: square"/>
   </g>
   <g id="line2d_26">
    <path d="M 298.065 34.021254 
L 309.512105 36.265483 
L 320.959211 42.612131 
L 332.406316 50.622733 
L 343.853421 59.899508 
L 355.300526 69.836424 
L 366.747632 80.687478 
L 378.194737 90.637303 
L 389.641842 99.916071 
L 401.088947 108.051466 
L 412.536053 117.101184 
L 423.983158 124.191956 
L 435.430263 130.599368 
L 446.877368 135.995581 
L 458.324474 141.566794 
L 469.771579 145.156768 
L 481.218684 149.43211 
L 492.665789 152.735462 
L 504.112895 156.041668 
L 515.56 158.233913 
" clip-path="url(#p675ba288e2)" style="fill: none; stroke: #d62728; stroke-width: 1.5; stroke-linecap: square"/>
   </g>
   <g id="line2d_27">
    <path d="M 298.065 34.013879 
L 309.512105 36.25474 
L 320.959211 42.65871 
L 332.406316 50.633925 
L 343.853421 59.92919 
L 355.300526 69.941537 
L 366.747632 80.828817 
L 378.194737 90.734678 
L 389.641842 99.876207 
L 401.088947 108.665488 
L 412.536053 116.983394 
L 423.983158 124.067178 
L 435.430263 130.387488 
L 446.877368 134.868793 
L 458.324474 141.051855 
L 469.771579 144.445305 
L 481.218684 148.098317 
L 492.665789 151.08136 
L 504.112895 155.192377 
L 515.56 156.632739 
" clip-path="url(#p675ba288e2)" style="fill: none; stroke: #9467bd; stroke-width: 1.5; stroke-linecap: square"/>
   </g>
   <g id="line2d_28">
    <path d="M 298.065 34.021438 
L 309.512105 36.273572 
L 320.959211 42.666773 
L 332.406316 50.643259 
L 343.853421 59.947664 
L 355.300526 69.959077 
L 366.747632 80.831138 
L 378.194737 90.806762 
L 389.641842 99.92022 
L 401.088947 108.695565 
L 412.536053 117.013514 
L 423.983158 124.13339 
L 435.430263 130.5104 
L 446.877368 135.014749 
L 458.324474 141.261899 
L 469.771579 144.696846 
L 481.218684 148.324423 
L 492.665789 151.408278 
L 504.112895 155.633148 
L 515.56 157.0503 
" clip-path="url(#p675ba288e2)" style="fill: none; stroke: #8c564b; stroke-width: 1.5; stroke-linecap: square"/>
   </g>
   <g id="line2d_29">
    <path d="M 298.065 45.45056 
L 309.512105 47.645282 
L 320.959211 53.759887 
L 332.406316 61.28512 
L 343.853421 70.160697 
L 355.300526 79.304338 
L 366.747632 89.538264 
L 378.194737 98.632663 
L 389.641842 107.051805 
L 401.088947 114.640188 
L 412.536053 122.833621 
L 423.983158 129.170023 
L 435.430263 134.626544 
L 446.877368 139.206492 
L 458.324474 144.028118 
L 469.771579 146.933377 
L 481.218684 150.535857 
L 492.665789 153.26131 
L 504.112895 156.076329 
L 515.56 157.608748 
" clip-path="url(#p675ba288e2)" style="fill: none; stroke: #e377c2; stroke-width: 1.5; stroke-linecap: square"/>
   </g>
   <g id="line2d_30">
    <path d="M 298.065 34.019191 
L 309.512105 36.276512 
L 320.959211 42.619916 
L 332.406316 50.644435 
L 343.853421 59.929769 
L 355.300526 69.906805 
L 366.747632 80.717572 
L 378.194737 90.684312 
L 389.641842 99.941268 
L 401.088947 108.105197 
L 412.536053 117.021882 
L 423.983158 123.904633 
L 435.430263 130.288326 
L 446.877368 135.440587 
L 458.324474 140.876913 
L 469.771579 144.565859 
L 481.218684 148.517586 
L 492.665789 151.786817 
L 504.112895 154.98132 
L 515.56 157.049705 
" clip-path="url(#p675ba288e2)" style="fill: none; stroke: #7f7f7f; stroke-width: 1.5; stroke-linecap: square"/>
   </g>
   <g id="patch_6">
    <path d="M 298.065 174.04 
L 298.065 26.88 
" style="fill: none; stroke: #000000; stroke-width: 0.8; stroke-linejoin: miter; stroke-linecap: square"/>
   </g>
   <g id="patch_7">
    <path d="M 298.065 174.04 
L 515.56 174.04 
" style="fill: none; stroke: #000000; stroke-width: 0.8; stroke-linejoin: miter; stroke-linecap: square"/>
   </g>
   <g id="text_19">
    <!-- Node * third variable -->
    <g transform="translate(344.2325 20.88)scale(0.12 -0.12)">
     <defs>
      <path id="DejaVuSans-68" d="M 3513 2113 
L 3513 0 
L 2938 0 
L 2938 2094 
Q 2938 2591 2744 2837 
Q 2550 3084 2163 3084 
Q 1697 3084 1428 2787 
Q 1159 2491 1159 1978 
L 1159 0 
L 581 0 
L 581 4863 
L 1159 4863 
L 1159 2956 
Q 1366 3272 1645 3428 
Q 1925 3584 2291 3584 
Q 2894 3584 3203 3211 
Q 3513 2838 3513 2113 
z
" transform="scale(0.015625)"/>
      <path id="DejaVuSans-62" d="M 3116 1747 
Q 3116 2381 2855 2742 
Q 2594 3103 2138 3103 
Q 1681 3103 1420 2742 
Q 1159 2381 1159 1747 
Q 1159 1113 1420 752 
Q 1681 391 2138 391 
Q 2594 391 2855 752 
Q 3116 1113 3116 1747 
z
M 1159 2969 
Q 1341 3281 1617 3432 
Q 1894 3584 2278 3584 
Q 2916 3584 3314 3078 
Q 3713 2572 3713 1747 
Q 3713 922 3314 415 
Q 2916 -91 2278 -91 
Q 1894 -91 1617 61 
Q 1341 213 1159 525 
L 1159 0 
L 581 0 
L 581 4863 
L 1159 4863 
L 1159 2969 
z
" transform="scale(0.015625)"/>
     </defs>
     <use xlink:href="#DejaVuSans-4e"/>
     <use xlink:href="#DejaVuSans-6f" x="74.804688"/>
     <use xlink:href="#DejaVuSans-64" x="135.986328"/>
     <use xlink:href="#DejaVuSans-65" x="199.462891"/>
     <use xlink:href="#DejaVuSans-20" x="260.986328"/>
     <use xlink:href="#DejaVuSans-2a" x="292.773438"/>
     <use xlink:href="#DejaVuSans-20" x="342.773438"/>
     <use xlink:href="#DejaVuSans-74" x="374.560547"/>
     <use xlink:href="#DejaVuSans-68" x="413.769531"/>
     <use xlink:href="#DejaVuSans-69" x="477.148438"/>
     <use xlink:href="#DejaVuSans-72" x="504.931641"/>
     <use xlink:href="#DejaVuSans-64" x="544.294922"/>
     <use xlink:href="#DejaVuSans-20" x="607.771484"/>
     <use xlink:href="#DejaVuSans-76" x="639.558594"/>
     <use xlink:href="#DejaVuSans-61" x="698.738281"/>
     <use xlink:href="#DejaVuSans-72" x="760.017578"/>
     <use xlink:href="#DejaVuSans-69" x="801.130859"/>
     <use xlink:href="#DejaVuSans-61" x="828.914062"/>
     <use xlink:href="#DejaVuSans-62" x="890.193359"/>
     <use xlink:href="#DejaVuSans-6c" x="953.669922"/>
     <use xlink:href="#DejaVuSans-65" x="981.453125"/>
    </g>
   </g>
   <g id="legend_1">
    <g id="line2d_31">
     <path d="M 524.56 39.978437 
L 534.56 39.978437 
L 544.56 39.978437 
" style="fill: none; stroke: #1f77b4; stroke-width: 1.5; stroke-linecap: square"/>
    </g>
    <g id="text_20">
     <!-- Node -->
     <g transform="translate(552.56 43.478437)scale(0.1 -0.1)">
      <use xlink:href="#DejaVuSans-4e"/>
      <use xlink:href="#DejaVuSans-6f" x="74.804688"/>
      <use xlink:href="#DejaVuSans-64" x="135.986328"/>
      <use xlink:href="#DejaVuSans-65" x="199.462891"/>
     </g>
    </g>
    <g id="line2d_32">
     <path d="M 524.56 54.656563 
L 534.56 54.656563 
L 544.56 54.656563 
" style="fill: none; stroke: #ff7f0e; stroke-width: 1.5; stroke-linecap: square"/>
    </g>
    <g id="text_21">
     <!-- Node + surprisal -->
     <g transform="translate(552.56 58.156563)scale(0.1 -0.1)">
      <defs>
       <path id="DejaVuSans-2b" d="M 2944 4013 
L 2944 2272 
L 4684 2272 
L 4684 1741 
L 2944 1741 
L 2944 0 
L 2419 0 
L 2419 1741 
L 678 1741 
L 678 2272 
L 2419 2272 
L 2419 4013 
L 2944 4013 
z
" transform="scale(0.015625)"/>
      </defs>
      <use xlink:href="#DejaVuSans-4e"/>
      <use xlink:href="#DejaVuSans-6f" x="74.804688"/>
      <use xlink:href="#DejaVuSans-64" x="135.986328"/>
      <use xlink:href="#DejaVuSans-65" x="199.462891"/>
      <use xlink:href="#DejaVuSans-20" x="260.986328"/>
      <use xlink:href="#DejaVuSans-2b" x="292.773438"/>
      <use xlink:href="#DejaVuSans-20" x="376.5625"/>
      <use xlink:href="#DejaVuSans-73" x="408.349609"/>
      <use xlink:href="#DejaVuSans-75" x="460.449219"/>
      <use xlink:href="#DejaVuSans-72" x="523.828125"/>
      <use xlink:href="#DejaVuSans-70" x="564.941406"/>
      <use xlink:href="#DejaVuSans-72" x="628.417969"/>
      <use xlink:href="#DejaVuSans-69" x="669.53125"/>
      <use xlink:href="#DejaVuSans-73" x="697.314453"/>
      <use xlink:href="#DejaVuSans-61" x="749.414062"/>
      <use xlink:href="#DejaVuSans-6c" x="810.693359"/>
     </g>
    </g>
    <g id="line2d_33">
     <path d="M 524.56 69.334687 
L 534.56 69.334687 
L 544.56 69.334687 
" style="fill: none; stroke: #2ca02c; stroke-width: 1.5; stroke-linecap: square"/>
    </g>
    <g id="text_22">
     <!-- Node split -->
     <g transform="translate(552.56 72.834687)scale(0.1 -0.1)">
      <use xlink:href="#DejaVuSans-4e"/>
      <use xlink:href="#DejaVuSans-6f" x="74.804688"/>
      <use xlink:href="#DejaVuSans-64" x="135.986328"/>
      <use xlink:href="#DejaVuSans-65" x="199.462891"/>
      <use xlink:href="#DejaVuSans-20" x="260.986328"/>
      <use xlink:href="#DejaVuSans-73" x="292.773438"/>
      <use xlink:href="#DejaVuSans-70" x="344.873047"/>
      <use xlink:href="#DejaVuSans-6c" x="408.349609"/>
      <use xlink:href="#DejaVuSans-69" x="436.132812"/>
      <use xlink:href="#DejaVuSans-74" x="463.916016"/>
     </g>
    </g>
    <g id="line2d_34">
     <path d="M 524.56 84.012812 
L 534.56 84.012812 
L 544.56 84.012812 
" style="fill: none; stroke: #d62728; stroke-width: 1.5; stroke-linecap: square"/>
    </g>
    <g id="text_23">
     <!-- Node split + surprisal -->
     <g transform="translate(552.56 87.512812)scale(0.1 -0.1)">
      <use xlink:href="#DejaVuSans-4e"/>
      <use xlink:href="#DejaVuSans-6f" x="74.804688"/>
      <use xlink:href="#DejaVuSans-64" x="135.986328"/>
      <use xlink:href="#DejaVuSans-65" x="199.462891"/>
      <use xlink:href="#DejaVuSans-20" x="260.986328"/>
      <use xlink:href="#DejaVuSans-73" x="292.773438"/>
      <use xlink:href="#DejaVuSans-70" x="344.873047"/>
      <use xlink:href="#DejaVuSans-6c" x="408.349609"/>
      <use xlink:href="#DejaVuSans-69" x="436.132812"/>
      <use xlink:href="#DejaVuSans-74" x="463.916016"/>
      <use xlink:href="#DejaVuSans-20" x="503.125"/>
      <use xlink:href="#DejaVuSans-2b" x="534.912109"/>
      <use xlink:href="#DejaVuSans-20" x="618.701172"/>
      <use xlink:href="#DejaVuSans-73" x="650.488281"/>
      <use xlink:href="#DejaVuSans-75" x="702.587891"/>
      <use xlink:href="#DejaVuSans-72" x="765.966797"/>
      <use xlink:href="#DejaVuSans-70" x="807.080078"/>
      <use xlink:href="#DejaVuSans-72" x="870.556641"/>
      <use xlink:href="#DejaVuSans-69" x="911.669922"/>
      <use xlink:href="#DejaVuSans-73" x="939.453125"/>
      <use xlink:href="#DejaVuSans-61" x="991.552734"/>
      <use xlink:href="#DejaVuSans-6c" x="1052.832031"/>
     </g>
    </g>
    <g id="line2d_35">
     <path d="M 524.56 98.690937 
L 534.56 98.690937 
L 544.56 98.690937 
" style="fill: none; stroke: #9467bd; stroke-width: 1.5; stroke-linecap: square"/>
    </g>
    <g id="text_24">
     <!-- Node random split -->
     <g transform="translate(552.56 102.190937)scale(0.1 -0.1)">
      <use xlink:href="#DejaVuSans-4e"/>
      <use xlink:href="#DejaVuSans-6f" x="74.804688"/>
      <use xlink:href="#DejaVuSans-64" x="135.986328"/>
      <use xlink:href="#DejaVuSans-65" x="199.462891"/>
      <use xlink:href="#DejaVuSans-20" x="260.986328"/>
      <use xlink:href="#DejaVuSans-72" x="292.773438"/>
      <use xlink:href="#DejaVuSans-61" x="333.886719"/>
      <use xlink:href="#DejaVuSans-6e" x="395.166016"/>
      <use xlink:href="#DejaVuSans-64" x="458.544922"/>
      <use xlink:href="#DejaVuSans-6f" x="522.021484"/>
      <use xlink:href="#DejaVuSans-6d" x="583.203125"/>
      <use xlink:href="#DejaVuSans-20" x="680.615234"/>
      <use xlink:href="#DejaVuSans-73" x="712.402344"/>
      <use xlink:href="#DejaVuSans-70" x="764.501953"/>
      <use xlink:href="#DejaVuSans-6c" x="827.978516"/>
      <use xlink:href="#DejaVuSans-69" x="855.761719"/>
      <use xlink:href="#DejaVuSans-74" x="883.544922"/>
     </g>
    </g>
    <g id="line2d_36">
     <path d="M 524.56 113.369062 
L 534.56 113.369062 
L 544.56 113.369062 
" style="fill: none; stroke: #8c564b; stroke-width: 1.5; stroke-linecap: square"/>
    </g>
    <g id="text_25">
     <!-- Node random split + surprisal -->
     <g transform="translate(552.56 116.869062)scale(0.1 -0.1)">
      <use xlink:href="#DejaVuSans-4e"/>
      <use xlink:href="#DejaVuSans-6f" x="74.804688"/>
      <use xlink:href="#DejaVuSans-64" x="135.986328"/>
      <use xlink:href="#DejaVuSans-65" x="199.462891"/>
      <use xlink:href="#DejaVuSans-20" x="260.986328"/>
      <use xlink:href="#DejaVuSans-72" x="292.773438"/>
      <use xlink:href="#DejaVuSans-61" x="333.886719"/>
      <use xlink:href="#DejaVuSans-6e" x="395.166016"/>
      <use xlink:href="#DejaVuSans-64" x="458.544922"/>
      <use xlink:href="#DejaVuSans-6f" x="522.021484"/>
      <use xlink:href="#DejaVuSans-6d" x="583.203125"/>
      <use xlink:href="#DejaVuSans-20" x="680.615234"/>
      <use xlink:href="#DejaVuSans-73" x="712.402344"/>
      <use xlink:href="#DejaVuSans-70" x="764.501953"/>
      <use xlink:href="#DejaVuSans-6c" x="827.978516"/>
      <use xlink:href="#DejaVuSans-69" x="855.761719"/>
      <use xlink:href="#DejaVuSans-74" x="883.544922"/>
      <use xlink:href="#DejaVuSans-20" x="922.753906"/>
      <use xlink:href="#DejaVuSans-2b" x="954.541016"/>
      <use xlink:href="#DejaVuSans-20" x="1038.330078"/>
      <use xlink:href="#DejaVuSans-73" x="1070.117188"/>
      <use xlink:href="#DejaVuSans-75" x="1122.216797"/>
      <use xlink:href="#DejaVuSans-72" x="1185.595703"/>
      <use xlink:href="#DejaVuSans-70" x="1226.708984"/>
      <use xlink:href="#DejaVuSans-72" x="1290.185547"/>
      <use xlink:href="#DejaVuSans-69" x="1331.298828"/>
      <use xlink:href="#DejaVuSans-73" x="1359.082031"/>
      <use xlink:href="#DejaVuSans-61" x="1411.181641"/>
      <use xlink:href="#DejaVuSans-6c" x="1472.460938"/>
     </g>
    </g>
    <g id="line2d_37">
     <path d="M 524.56 128.047187 
L 534.56 128.047187 
L 544.56 128.047187 
" style="fill: none; stroke: #e377c2; stroke-width: 1.5; stroke-linecap: square"/>
    </g>
    <g id="text_26">
     <!-- Interaction -->
     <g transform="translate(552.56 131.547187)scale(0.1 -0.1)">
      <use xlink:href="#DejaVuSans-49"/>
      <use xlink:href="#DejaVuSans-6e" x="29.492188"/>
      <use xlink:href="#DejaVuSans-74" x="92.871094"/>
      <use xlink:href="#DejaVuSans-65" x="132.080078"/>
      <use xlink:href="#DejaVuSans-72" x="193.603516"/>
      <use xlink:href="#DejaVuSans-61" x="234.716797"/>
      <use xlink:href="#DejaVuSans-63" x="295.996094"/>
      <use xlink:href="#DejaVuSans-74" x="350.976562"/>
      <use xlink:href="#DejaVuSans-69" x="390.185547"/>
      <use xlink:href="#DejaVuSans-6f" x="417.96875"/>
      <use xlink:href="#DejaVuSans-6e" x="479.150391"/>
     </g>
    </g>
    <g id="line2d_38">
     <path d="M 524.56 142.725312 
L 534.56 142.725312 
L 544.56 142.725312 
" style="fill: none; stroke: #7f7f7f; stroke-width: 1.5; stroke-linecap: square"/>
    </g>
    <g id="text_27">
     <!-- Node + surprisal + interaction -->
     <g transform="translate(552.56 146.225312)scale(0.1 -0.1)">
      <use xlink:href="#DejaVuSans-4e"/>
      <use xlink:href="#DejaVuSans-6f" x="74.804688"/>
      <use xlink:href="#DejaVuSans-64" x="135.986328"/>
      <use xlink:href="#DejaVuSans-65" x="199.462891"/>
      <use xlink:href="#DejaVuSans-20" x="260.986328"/>
      <use xlink:href="#DejaVuSans-2b" x="292.773438"/>
      <use xlink:href="#DejaVuSans-20" x="376.5625"/>
      <use xlink:href="#DejaVuSans-73" x="408.349609"/>
      <use xlink:href="#DejaVuSans-75" x="460.449219"/>
      <use xlink:href="#DejaVuSans-72" x="523.828125"/>
      <use xlink:href="#DejaVuSans-70" x="564.941406"/>
      <use xlink:href="#DejaVuSans-72" x="628.417969"/>
      <use xlink:href="#DejaVuSans-69" x="669.53125"/>
      <use xlink:href="#DejaVuSans-73" x="697.314453"/>
      <use xlink:href="#DejaVuSans-61" x="749.414062"/>
      <use xlink:href="#DejaVuSans-6c" x="810.693359"/>
      <use xlink:href="#DejaVuSans-20" x="838.476562"/>
      <use xlink:href="#DejaVuSans-2b" x="870.263672"/>
      <use xlink:href="#DejaVuSans-20" x="954.052734"/>
      <use xlink:href="#DejaVuSans-69" x="985.839844"/>
      <use xlink:href="#DejaVuSans-6e" x="1013.623047"/>
      <use xlink:href="#DejaVuSans-74" x="1077.001953"/>
      <use xlink:href="#DejaVuSans-65" x="1116.210938"/>
      <use xlink:href="#DejaVuSans-72" x="1177.734375"/>
      <use xlink:href="#DejaVuSans-61" x="1218.847656"/>
      <use xlink:href="#DejaVuSans-63" x="1280.126953"/>
      <use xlink:href="#DejaVuSans-74" x="1335.107422"/>
      <use xlink:href="#DejaVuSans-69" x="1374.316406"/>
      <use xlink:href="#DejaVuSans-6f" x="1402.099609"/>
      <use xlink:href="#DejaVuSans-6e" x="1463.28125"/>
     </g>
    </g>
   </g>
  </g>
 </g>
 <defs>
  <clipPath id="p26d2704dd9">
   <rect x="47.72" y="26.88" width="217.495" height="147.16"/>
  </clipPath>
  <clipPath id="p675ba288e2">
   <rect x="298.065" y="26.88" width="217.495" height="147.16"/>
  </clipPath>
 </defs>
</svg>
