<?xml version="1.0" encoding="utf-8" standalone="no"?>
<!DOCTYPE svg PUBLIC "-//W3C//DTD SVG 1.1//EN"
  "http://www.w3.org/Graphics/SVG/1.1/DTD/svg11.dtd">
<svg xmlns:xlink="http://www.w3.org/1999/xlink" width="720pt" height="216pt" viewBox="0 0 720 216" xmlns="http://www.w3.org/2000/svg" version="1.1">
 <metadata>
  <rdf:RDF xmlns:dc="http://purl.org/dc/elements/1.1/" xmlns:cc="http://creativecommons.org/ns#" xmlns:rdf="http://www.w3.org/1999/02/22-rdf-syntax-ns#">
   <cc:Work>
    <dc:type rdf:resource="http://purl.org/dc/dcmitype/StillImage"/>
    <dc:date>2024-01-16T04:15:30.254195</dc:date>
    <dc:format>image/svg+xml</dc:format>
    <dc:creator>
     <cc:Agent>
      <dc:title>Matplotlib v3.5.1, https://matplotlib.org/</dc:title>
     </cc:Agent>
    </dc:creator>
   </cc:Work>
  </rdf:RDF>
 </metadata>
 <defs>
  <style type="text/css">*{stroke-linejoin: round; stroke-linecap: butt}</style>
 </defs>
 <g id="figure_1">
  <g id="patch_1">
   <path d="M 0 216 
L 720 216 
L 720 0 
L 0 0 
z
" style="fill: #ffffff"/>
  </g>
  <g id="axes_1">
   <g id="patch_2">
    <path d="M 47.72 174.04 
L 265.215 174.04 
L 265.215 26.88 
L 47.72 26.88 
z
" style="fill: #ffffff"/>
   </g>
   <g id="PolyCollection_1">
    <path d="M 47.72 33.569091 
L 47.72 34.532711 
L 59.167105 36.435907 
L 70.614211 42.788689 
L 82.061316 51.61198 
L 93.508421 61.271017 
L 104.955526 71.156929 
L 116.402632 82.058829 
L 127.849737 91.567515 
L 139.296842 100.878853 
L 150.743947 108.034801 
L 162.191053 116.10064 
L 173.638158 122.921505 
L 185.085263 128.730571 
L 196.532368 133.614424 
L 207.979474 138.70133 
L 219.426579 142.514319 
L 230.873684 146.277015 
L 242.320789 150.07684 
L 253.767895 152.954815 
L 265.215 156.567733 
L 265.215 148.524333 
L 265.215 148.524333 
L 253.767895 145.429311 
L 242.320789 142.619 
L 230.873684 139.01893 
L 219.426579 134.626847 
L 207.979474 129.200765 
L 196.532368 124.009122 
L 185.085263 118.219644 
L 173.638158 112.0564 
L 162.191053 104.942817 
L 150.743947 97.648396 
L 139.296842 89.346933 
L 127.849737 81.615669 
L 116.402632 71.976114 
L 104.955526 62.988942 
L 93.508421 53.816258 
L 82.061316 46.571008 
L 70.614211 40.351556 
L 59.167105 35.353737 
L 47.72 33.569091 
z
" clip-path="url(#pe9d88f93a7)" style="fill: #1f77b4; fill-opacity: 0.4"/>
   </g>
   <g id="PolyCollection_2">
    <path d="M 47.72 33.585079 
L 47.72 34.549971 
L 59.167105 35.808302 
L 70.614211 39.123121 
L 82.061316 45.063433 
L 93.508421 51.802356 
L 104.955526 59.10274 
L 116.402632 67.995875 
L 127.849737 76.995096 
L 139.296842 86.013532 
L 150.743947 93.391005 
L 162.191053 101.287749 
L 173.638158 108.359365 
L 185.085263 114.819301 
L 196.532368 120.856158 
L 207.979474 126.495636 
L 219.426579 131.56255 
L 230.873684 136.144635 
L 242.320789 140.712174 
L 253.767895 144.261282 
L 265.215 148.273166 
L 265.215 138.569937 
L 265.215 138.569937 
L 253.767895 135.201545 
L 242.320789 131.873281 
L 230.873684 128.2547 
L 219.426579 122.850556 
L 207.979474 118.419404 
L 196.532368 112.659911 
L 185.085263 106.859015 
L 173.638158 100.459155 
L 162.191053 93.20599 
L 150.743947 85.237942 
L 139.296842 77.049043 
L 127.849737 69.420407 
L 116.402632 60.989221 
L 104.955526 53.180163 
L 93.508421 45.803152 
L 82.061316 41.211048 
L 70.614211 37.658936 
L 59.167105 34.817871 
L 47.72 33.585079 
z
" clip-path="url(#pe9d88f93a7)" style="fill: #ff7f0e; fill-opacity: 0.4"/>
   </g>
   <g id="PolyCollection_3">
    <path d="M 47.72 33.582241 
L 47.72 34.527854 
L 59.167105 35.959343 
L 70.614211 39.109604 
L 82.061316 43.326743 
L 93.508421 47.503922 
L 104.955526 51.947585 
L 116.402632 57.546305 
L 127.849737 62.371785 
L 139.296842 67.361235 
L 150.743947 71.299308 
L 162.191053 76.245464 
L 173.638158 80.167298 
L 185.085263 85.000992 
L 196.532368 89.139961 
L 207.979474 94.255087 
L 219.426579 97.053243 
L 230.873684 102.12789 
L 242.320789 106.593242 
L 253.767895 110.468589 
L 265.215 114.106976 
L 265.215 103.971076 
L 265.215 103.971076 
L 253.767895 100.099075 
L 242.320789 96.142104 
L 230.873684 93.433046 
L 219.426579 88.407178 
L 207.979474 85.822377 
L 196.532368 81.563159 
L 185.085263 76.887805 
L 173.638158 72.473121 
L 162.191053 68.66988 
L 150.743947 64.283702 
L 139.296842 59.776462 
L 127.849737 56.00697 
L 116.402632 51.380245 
L 104.955526 47.192082 
L 93.508421 43.154173 
L 82.061316 39.624287 
L 70.614211 37.545758 
L 59.167105 35.058337 
L 47.72 33.582241 
z
" clip-path="url(#pe9d88f93a7)" style="fill: #2ca02c; fill-opacity: 0.4"/>
   </g>
   <g id="PolyCollection_4">
    <path d="M 47.72 33.594873 
L 47.72 34.544868 
L 59.167105 35.704258 
L 70.614211 37.946478 
L 82.061316 41.568003 
L 93.508421 45.200736 
L 104.955526 49.28423 
L 116.402632 54.613383 
L 127.849737 59.86739 
L 139.296842 65.138359 
L 150.743947 69.368593 
L 162.191053 74.650342 
L 173.638158 78.866966 
L 185.085263 84.026863 
L 196.532368 88.122985 
L 207.979474 93.35237 
L 219.426579 96.00745 
L 230.873684 101.040235 
L 242.320789 105.454442 
L 253.767895 109.07215 
L 265.215 113.182424 
L 265.215 102.548078 
L 265.215 102.548078 
L 253.767895 98.935597 
L 242.320789 95.030157 
L 230.873684 92.493152 
L 219.426579 87.62044 
L 207.979474 84.891877 
L 196.532368 80.572815 
L 185.085263 75.807281 
L 173.638158 71.296579 
L 162.191053 67.284169 
L 150.743947 62.560936 
L 139.296842 57.806676 
L 127.849737 53.762234 
L 116.402632 49.275846 
L 104.955526 45.097104 
L 93.508421 41.194244 
L 82.061316 38.33012 
L 70.614211 36.675366 
L 59.167105 34.800492 
L 47.72 33.594873 
z
" clip-path="url(#pe9d88f93a7)" style="fill: #d62728; fill-opacity: 0.4"/>
   </g>
   <g id="PolyCollection_5">
    <path d="M 47.72 33.577772 
L 47.72 34.546603 
L 59.167105 36.455261 
L 70.614211 42.793946 
L 82.061316 51.655816 
L 93.508421 61.378384 
L 104.955526 71.373796 
L 116.402632 82.160833 
L 127.849737 91.904461 
L 139.296842 100.919835 
L 150.743947 109.003596 
L 162.191053 116.101445 
L 173.638158 123.111489 
L 185.085263 129.159129 
L 196.532368 135.142084 
L 207.979474 139.76323 
L 219.426579 142.472459 
L 230.873684 146.936635 
L 242.320789 150.958933 
L 253.767895 153.718868 
L 265.215 157.365466 
L 265.215 149.357982 
L 265.215 149.357982 
L 253.767895 145.188559 
L 242.320789 143.219059 
L 230.873684 140.516493 
L 219.426579 134.763679 
L 207.979474 130.074937 
L 196.532368 124.175587 
L 185.085263 118.313727 
L 173.638158 112.224774 
L 162.191053 105.153451 
L 150.743947 97.501859 
L 139.296842 89.512265 
L 127.849737 81.709464 
L 116.402632 71.985929 
L 104.955526 62.950705 
L 93.508421 53.870748 
L 82.061316 46.65831 
L 70.614211 40.355364 
L 59.167105 35.36161 
L 47.72 33.577772 
z
" clip-path="url(#pe9d88f93a7)" style="fill: #9467bd; fill-opacity: 0.4"/>
   </g>
   <g id="PolyCollection_6">
    <path d="M 47.72 33.594459 
L 47.72 34.563903 
L 59.167105 35.823116 
L 70.614211 39.143808 
L 82.061316 45.098874 
L 93.508421 51.875041 
L 104.955526 59.185605 
L 116.402632 68.071573 
L 127.849737 77.204578 
L 139.296842 86.08385 
L 150.743947 94.130705 
L 162.191053 101.270562 
L 173.638158 108.465583 
L 185.085263 115.001824 
L 196.532368 121.814202 
L 207.979474 127.468787 
L 219.426579 131.485394 
L 230.873684 136.696781 
L 242.320789 141.338775 
L 253.767895 144.703583 
L 265.215 148.831347 
L 265.215 139.285955 
L 265.215 139.285955 
L 253.767895 134.954785 
L 242.320789 132.133885 
L 230.873684 129.193992 
L 219.426579 122.964914 
L 207.979474 118.805514 
L 196.532368 112.740386 
L 185.085263 107.062296 
L 173.638158 100.582291 
L 162.191053 93.500067 
L 150.743947 84.953575 
L 139.296842 77.179487 
L 127.849737 69.485204 
L 116.402632 61.044213 
L 104.955526 53.105536 
L 93.508421 45.838974 
L 82.061316 41.230413 
L 70.614211 37.670454 
L 59.167105 34.831117 
L 47.72 33.594459 
z
" clip-path="url(#pe9d88f93a7)" style="fill: #8c564b; fill-opacity: 0.4"/>
   </g>
   <g id="PolyCollection_7">
    <path d="M 47.72 44.500711 
L 47.72 47.711185 
L 59.167105 50.714977 
L 70.614211 58.536458 
L 82.061316 70.100677 
L 93.508421 80.940281 
L 104.955526 92.365228 
L 116.402632 104.189659 
L 127.849737 114.371023 
L 139.296842 123.209309 
L 150.743947 130.249169 
L 162.191053 137.57778 
L 173.638158 142.911975 
L 185.085263 148.497076 
L 196.532368 152.64478 
L 207.979474 156.74739 
L 219.426579 159.171801 
L 230.873684 162.255183 
L 242.320789 164.289602 
L 253.767895 165.532898 
L 265.215 167.350909 
L 265.215 161.595584 
L 265.215 161.595584 
L 253.767895 158.890622 
L 242.320789 155.828592 
L 230.873684 152.215087 
L 219.426579 149.00846 
L 207.979474 144.378231 
L 196.532368 140.111296 
L 185.085263 134.71242 
L 173.638158 129.732068 
L 162.191053 123.077437 
L 150.743947 116.049311 
L 139.296842 108.16754 
L 127.849737 99.679427 
L 116.402632 89.30406 
L 104.955526 78.898377 
L 93.508421 68.119388 
L 82.061316 59.416084 
L 70.614211 52.056718 
L 59.167105 46.646752 
L 47.72 44.500711 
z
" clip-path="url(#pe9d88f93a7)" style="fill: #e377c2; fill-opacity: 0.4"/>
   </g>
   <g id="PolyCollection_8">
    <path d="M 47.72 33.596205 
L 47.72 34.562381 
L 59.167105 35.027664 
L 70.614211 35.901451 
L 82.061316 38.667786 
L 93.508421 42.61814 
L 104.955526 48.337341 
L 116.402632 56.100067 
L 127.849737 64.711194 
L 139.296842 72.800072 
L 150.743947 80.810847 
L 162.191053 88.899848 
L 173.638158 95.393042 
L 185.085263 102.819271 
L 196.532368 109.248079 
L 207.979474 115.995221 
L 219.426579 121.079622 
L 230.873684 126.890229 
L 242.320789 131.559563 
L 253.767895 136.068285 
L 265.215 139.877683 
L 265.215 131.438324 
L 265.215 131.438324 
L 253.767895 126.64005 
L 242.320789 122.372564 
L 230.873684 117.512699 
L 219.426579 111.492869 
L 207.979474 106.378136 
L 196.532368 99.746882 
L 185.085263 92.598652 
L 173.638158 85.793723 
L 162.191053 77.760933 
L 150.743947 69.837291 
L 139.296842 61.91723 
L 127.849737 55.002728 
L 116.402632 47.87829 
L 104.955526 42.209701 
L 93.508421 37.850345 
L 82.061316 35.683597 
L 70.614211 34.981646 
L 59.167105 34.32741 
L 47.72 33.596205 
z
" clip-path="url(#pe9d88f93a7)" style="fill: #7f7f7f; fill-opacity: 0.4"/>
   </g>
   <g id="matplotlib.axis_1">
    <g id="xtick_1">
     <g id="line2d_1">
      <defs>
       <path id="m7ba39d0e2f" d="M 0 0 
L 0 3.5 
" style="stroke: #000000; stroke-width: 0.8"/>
      </defs>
      <g>
       <use xlink:href="#m7ba39d0e2f" x="47.72" y="174.04" style="stroke: #000000; stroke-width: 0.8"/>
      </g>
     </g>
     <g id="text_1">
      <!-- 0.0 -->
      <g transform="translate(39.768438 188.638438)scale(0.1 -0.1)">
       <defs>
        <path id="DejaVuSans-30" d="M 2034 4250 
Q 1547 4250 1301 3770 
Q 1056 3291 1056 2328 
Q 1056 1369 1301 889 
Q 1547 409 2034 409 
Q 2525 409 2770 889 
Q 3016 1369 3016 2328 
Q 3016 3291 2770 3770 
Q 2525 4250 2034 4250 
z
M 2034 4750 
Q 2819 4750 3233 4129 
Q 3647 3509 3647 2328 
Q 3647 1150 3233 529 
Q 2819 -91 2034 -91 
Q 1250 -91 836 529 
Q 422 1150 422 2328 
Q 422 3509 836 4129 
Q 1250 4750 2034 4750 
z
" transform="scale(0.015625)"/>
        <path id="DejaVuSans-2e" d="M 684 794 
L 1344 794 
L 1344 0 
L 684 0 
L 684 794 
z
" transform="scale(0.015625)"/>
       </defs>
       <use xlink:href="#DejaVuSans-30"/>
       <use xlink:href="#DejaVuSans-2e" x="63.623047"/>
       <use xlink:href="#DejaVuSans-30" x="95.410156"/>
      </g>
     </g>
    </g>
    <g id="xtick_2">
     <g id="line2d_2">
      <g>
       <use xlink:href="#m7ba39d0e2f" x="102.09375" y="174.04" style="stroke: #000000; stroke-width: 0.8"/>
      </g>
     </g>
     <g id="text_2">
      <!-- 0.5 -->
      <g transform="translate(94.142188 188.638438)scale(0.1 -0.1)">
       <defs>
        <path id="DejaVuSans-35" d="M 691 4666 
L 3169 4666 
L 3169 4134 
L 1269 4134 
L 1269 2991 
Q 1406 3038 1543 3061 
Q 1681 3084 1819 3084 
Q 2600 3084 3056 2656 
Q 3513 2228 3513 1497 
Q 3513 744 3044 326 
Q 2575 -91 1722 -91 
Q 1428 -91 1123 -41 
Q 819 9 494 109 
L 494 744 
Q 775 591 1075 516 
Q 1375 441 1709 441 
Q 2250 441 2565 725 
Q 2881 1009 2881 1497 
Q 2881 1984 2565 2268 
Q 2250 2553 1709 2553 
Q 1456 2553 1204 2497 
Q 953 2441 691 2322 
L 691 4666 
z
" transform="scale(0.015625)"/>
       </defs>
       <use xlink:href="#DejaVuSans-30"/>
       <use xlink:href="#DejaVuSans-2e" x="63.623047"/>
       <use xlink:href="#DejaVuSans-35" x="95.410156"/>
      </g>
     </g>
    </g>
    <g id="xtick_3">
     <g id="line2d_3">
      <g>
       <use xlink:href="#m7ba39d0e2f" x="156.4675" y="174.04" style="stroke: #000000; stroke-width: 0.8"/>
      </g>
     </g>
     <g id="text_3">
      <!-- 1.0 -->
      <g transform="translate(148.515938 188.638438)scale(0.1 -0.1)">
       <defs>
        <path id="DejaVuSans-31" d="M 794 531 
L 1825 531 
L 1825 4091 
L 703 3866 
L 703 4441 
L 1819 4666 
L 2450 4666 
L 2450 531 
L 3481 531 
L 3481 0 
L 794 0 
L 794 531 
z
" transform="scale(0.015625)"/>
       </defs>
       <use xlink:href="#DejaVuSans-31"/>
       <use xlink:href="#DejaVuSans-2e" x="63.623047"/>
       <use xlink:href="#DejaVuSans-30" x="95.410156"/>
      </g>
     </g>
    </g>
    <g id="xtick_4">
     <g id="line2d_4">
      <g>
       <use xlink:href="#m7ba39d0e2f" x="210.84125" y="174.04" style="stroke: #000000; stroke-width: 0.8"/>
      </g>
     </g>
     <g id="text_4">
      <!-- 1.5 -->
      <g transform="translate(202.889687 188.638438)scale(0.1 -0.1)">
       <use xlink:href="#DejaVuSans-31"/>
       <use xlink:href="#DejaVuSans-2e" x="63.623047"/>
       <use xlink:href="#DejaVuSans-35" x="95.410156"/>
      </g>
     </g>
    </g>
    <g id="xtick_5">
     <g id="line2d_5">
      <g>
       <use xlink:href="#m7ba39d0e2f" x="265.215" y="174.04" style="stroke: #000000; stroke-width: 0.8"/>
      </g>
     </g>
     <g id="text_5">
      <!-- 2.0 -->
      <g transform="translate(257.263437 188.638438)scale(0.1 -0.1)">
       <defs>
        <path id="DejaVuSans-32" d="M 1228 531 
L 3431 531 
L 3431 0 
L 469 0 
L 469 531 
Q 828 903 1448 1529 
Q 2069 2156 2228 2338 
Q 2531 2678 2651 2914 
Q 2772 3150 2772 3378 
Q 2772 3750 2511 3984 
Q 2250 4219 1831 4219 
Q 1534 4219 1204 4116 
Q 875 4013 500 3803 
L 500 4441 
Q 881 4594 1212 4672 
Q 1544 4750 1819 4750 
Q 2544 4750 2975 4387 
Q 3406 4025 3406 3419 
Q 3406 3131 3298 2873 
Q 3191 2616 2906 2266 
Q 2828 2175 2409 1742 
Q 1991 1309 1228 531 
z
" transform="scale(0.015625)"/>
       </defs>
       <use xlink:href="#DejaVuSans-32"/>
       <use xlink:href="#DejaVuSans-2e" x="63.623047"/>
       <use xlink:href="#DejaVuSans-30" x="95.410156"/>
      </g>
     </g>
    </g>
    <g id="text_6">
     <!-- Influence of surprisal (multiplication) -->
     <g transform="translate(64.320625 202.316563)scale(0.1 -0.1)">
      <defs>
       <path id="DejaVuSans-49" d="M 628 4666 
L 1259 4666 
L 1259 0 
L 628 0 
L 628 4666 
z
" transform="scale(0.015625)"/>
       <path id="DejaVuSans-6e" d="M 3513 2113 
L 3513 0 
L 2938 0 
L 2938 2094 
Q 2938 2591 2744 2837 
Q 2550 3084 2163 3084 
Q 1697 3084 1428 2787 
Q 1159 2491 1159 1978 
L 1159 0 
L 581 0 
L 581 3500 
L 1159 3500 
L 1159 2956 
Q 1366 3272 1645 3428 
Q 1925 3584 2291 3584 
Q 2894 3584 3203 3211 
Q 3513 2838 3513 2113 
z
" transform="scale(0.015625)"/>
       <path id="DejaVuSans-66" d="M 2375 4863 
L 2375 4384 
L 1825 4384 
Q 1516 4384 1395 4259 
Q 1275 4134 1275 3809 
L 1275 3500 
L 2222 3500 
L 2222 3053 
L 1275 3053 
L 1275 0 
L 697 0 
L 697 3053 
L 147 3053 
L 147 3500 
L 697 3500 
L 697 3744 
Q 697 4328 969 4595 
Q 1241 4863 1831 4863 
L 2375 4863 
z
" transform="scale(0.015625)"/>
       <path id="DejaVuSans-6c" d="M 603 4863 
L 1178 4863 
L 1178 0 
L 603 0 
L 603 4863 
z
" transform="scale(0.015625)"/>
       <path id="DejaVuSans-75" d="M 544 1381 
L 544 3500 
L 1119 3500 
L 1119 1403 
Q 1119 906 1312 657 
Q 1506 409 1894 409 
Q 2359 409 2629 706 
Q 2900 1003 2900 1516 
L 2900 3500 
L 3475 3500 
L 3475 0 
L 2900 0 
L 2900 538 
Q 2691 219 2414 64 
Q 2138 -91 1772 -91 
Q 1169 -91 856 284 
Q 544 659 544 1381 
z
M 1991 3584 
L 1991 3584 
z
" transform="scale(0.015625)"/>
       <path id="DejaVuSans-65" d="M 3597 1894 
L 3597 1613 
L 953 1613 
Q 991 1019 1311 708 
Q 1631 397 2203 397 
Q 2534 397 2845 478 
Q 3156 559 3463 722 
L 3463 178 
Q 3153 47 2828 -22 
Q 2503 -91 2169 -91 
Q 1331 -91 842 396 
Q 353 884 353 1716 
Q 353 2575 817 3079 
Q 1281 3584 2069 3584 
Q 2775 3584 3186 3129 
Q 3597 2675 3597 1894 
z
M 3022 2063 
Q 3016 2534 2758 2815 
Q 2500 3097 2075 3097 
Q 1594 3097 1305 2825 
Q 1016 2553 972 2059 
L 3022 2063 
z
" transform="scale(0.015625)"/>
       <path id="DejaVuSans-63" d="M 3122 3366 
L 3122 2828 
Q 2878 2963 2633 3030 
Q 2388 3097 2138 3097 
Q 1578 3097 1268 2742 
Q 959 2388 959 1747 
Q 959 1106 1268 751 
Q 1578 397 2138 397 
Q 2388 397 2633 464 
Q 2878 531 3122 666 
L 3122 134 
Q 2881 22 2623 -34 
Q 2366 -91 2075 -91 
Q 1284 -91 818 406 
Q 353 903 353 1747 
Q 353 2603 823 3093 
Q 1294 3584 2113 3584 
Q 2378 3584 2631 3529 
Q 2884 3475 3122 3366 
z
" transform="scale(0.015625)"/>
       <path id="DejaVuSans-20" transform="scale(0.015625)"/>
       <path id="DejaVuSans-6f" d="M 1959 3097 
Q 1497 3097 1228 2736 
Q 959 2375 959 1747 
Q 959 1119 1226 758 
Q 1494 397 1959 397 
Q 2419 397 2687 759 
Q 2956 1122 2956 1747 
Q 2956 2369 2687 2733 
Q 2419 3097 1959 3097 
z
M 1959 3584 
Q 2709 3584 3137 3096 
Q 3566 2609 3566 1747 
Q 3566 888 3137 398 
Q 2709 -91 1959 -91 
Q 1206 -91 779 398 
Q 353 888 353 1747 
Q 353 2609 779 3096 
Q 1206 3584 1959 3584 
z
" transform="scale(0.015625)"/>
       <path id="DejaVuSans-73" d="M 2834 3397 
L 2834 2853 
Q 2591 2978 2328 3040 
Q 2066 3103 1784 3103 
Q 1356 3103 1142 2972 
Q 928 2841 928 2578 
Q 928 2378 1081 2264 
Q 1234 2150 1697 2047 
L 1894 2003 
Q 2506 1872 2764 1633 
Q 3022 1394 3022 966 
Q 3022 478 2636 193 
Q 2250 -91 1575 -91 
Q 1294 -91 989 -36 
Q 684 19 347 128 
L 347 722 
Q 666 556 975 473 
Q 1284 391 1588 391 
Q 1994 391 2212 530 
Q 2431 669 2431 922 
Q 2431 1156 2273 1281 
Q 2116 1406 1581 1522 
L 1381 1569 
Q 847 1681 609 1914 
Q 372 2147 372 2553 
Q 372 3047 722 3315 
Q 1072 3584 1716 3584 
Q 2034 3584 2315 3537 
Q 2597 3491 2834 3397 
z
" transform="scale(0.015625)"/>
       <path id="DejaVuSans-72" d="M 2631 2963 
Q 2534 3019 2420 3045 
Q 2306 3072 2169 3072 
Q 1681 3072 1420 2755 
Q 1159 2438 1159 1844 
L 1159 0 
L 581 0 
L 581 3500 
L 1159 3500 
L 1159 2956 
Q 1341 3275 1631 3429 
Q 1922 3584 2338 3584 
Q 2397 3584 2469 3576 
Q 2541 3569 2628 3553 
L 2631 2963 
z
" transform="scale(0.015625)"/>
       <path id="DejaVuSans-70" d="M 1159 525 
L 1159 -1331 
L 581 -1331 
L 581 3500 
L 1159 3500 
L 1159 2969 
Q 1341 3281 1617 3432 
Q 1894 3584 2278 3584 
Q 2916 3584 3314 3078 
Q 3713 2572 3713 1747 
Q 3713 922 3314 415 
Q 2916 -91 2278 -91 
Q 1894 -91 1617 61 
Q 1341 213 1159 525 
z
M 3116 1747 
Q 3116 2381 2855 2742 
Q 2594 3103 2138 3103 
Q 1681 3103 1420 2742 
Q 1159 2381 1159 1747 
Q 1159 1113 1420 752 
Q 1681 391 2138 391 
Q 2594 391 2855 752 
Q 3116 1113 3116 1747 
z
" transform="scale(0.015625)"/>
       <path id="DejaVuSans-69" d="M 603 3500 
L 1178 3500 
L 1178 0 
L 603 0 
L 603 3500 
z
M 603 4863 
L 1178 4863 
L 1178 4134 
L 603 4134 
L 603 4863 
z
" transform="scale(0.015625)"/>
       <path id="DejaVuSans-61" d="M 2194 1759 
Q 1497 1759 1228 1600 
Q 959 1441 959 1056 
Q 959 750 1161 570 
Q 1363 391 1709 391 
Q 2188 391 2477 730 
Q 2766 1069 2766 1631 
L 2766 1759 
L 2194 1759 
z
M 3341 1997 
L 3341 0 
L 2766 0 
L 2766 531 
Q 2569 213 2275 61 
Q 1981 -91 1556 -91 
Q 1019 -91 701 211 
Q 384 513 384 1019 
Q 384 1609 779 1909 
Q 1175 2209 1959 2209 
L 2766 2209 
L 2766 2266 
Q 2766 2663 2505 2880 
Q 2244 3097 1772 3097 
Q 1472 3097 1187 3025 
Q 903 2953 641 2809 
L 641 3341 
Q 956 3463 1253 3523 
Q 1550 3584 1831 3584 
Q 2591 3584 2966 3190 
Q 3341 2797 3341 1997 
z
" transform="scale(0.015625)"/>
       <path id="DejaVuSans-28" d="M 1984 4856 
Q 1566 4138 1362 3434 
Q 1159 2731 1159 2009 
Q 1159 1288 1364 580 
Q 1569 -128 1984 -844 
L 1484 -844 
Q 1016 -109 783 600 
Q 550 1309 550 2009 
Q 550 2706 781 3412 
Q 1013 4119 1484 4856 
L 1984 4856 
z
" transform="scale(0.015625)"/>
       <path id="DejaVuSans-6d" d="M 3328 2828 
Q 3544 3216 3844 3400 
Q 4144 3584 4550 3584 
Q 5097 3584 5394 3201 
Q 5691 2819 5691 2113 
L 5691 0 
L 5113 0 
L 5113 2094 
Q 5113 2597 4934 2840 
Q 4756 3084 4391 3084 
Q 3944 3084 3684 2787 
Q 3425 2491 3425 1978 
L 3425 0 
L 2847 0 
L 2847 2094 
Q 2847 2600 2669 2842 
Q 2491 3084 2119 3084 
Q 1678 3084 1418 2786 
Q 1159 2488 1159 1978 
L 1159 0 
L 581 0 
L 581 3500 
L 1159 3500 
L 1159 2956 
Q 1356 3278 1631 3431 
Q 1906 3584 2284 3584 
Q 2666 3584 2933 3390 
Q 3200 3197 3328 2828 
z
" transform="scale(0.015625)"/>
       <path id="DejaVuSans-74" d="M 1172 4494 
L 1172 3500 
L 2356 3500 
L 2356 3053 
L 1172 3053 
L 1172 1153 
Q 1172 725 1289 603 
Q 1406 481 1766 481 
L 2356 481 
L 2356 0 
L 1766 0 
Q 1100 0 847 248 
Q 594 497 594 1153 
L 594 3053 
L 172 3053 
L 172 3500 
L 594 3500 
L 594 4494 
L 1172 4494 
z
" transform="scale(0.015625)"/>
       <path id="DejaVuSans-29" d="M 513 4856 
L 1013 4856 
Q 1481 4119 1714 3412 
Q 1947 2706 1947 2009 
Q 1947 1309 1714 600 
Q 1481 -109 1013 -844 
L 513 -844 
Q 928 -128 1133 580 
Q 1338 1288 1338 2009 
Q 1338 2731 1133 3434 
Q 928 4138 513 4856 
z
" transform="scale(0.015625)"/>
      </defs>
      <use xlink:href="#DejaVuSans-49"/>
      <use xlink:href="#DejaVuSans-6e" x="29.492188"/>
      <use xlink:href="#DejaVuSans-66" x="92.871094"/>
      <use xlink:href="#DejaVuSans-6c" x="128.076172"/>
      <use xlink:href="#DejaVuSans-75" x="155.859375"/>
      <use xlink:href="#DejaVuSans-65" x="219.238281"/>
      <use xlink:href="#DejaVuSans-6e" x="280.761719"/>
      <use xlink:href="#DejaVuSans-63" x="344.140625"/>
      <use xlink:href="#DejaVuSans-65" x="399.121094"/>
      <use xlink:href="#DejaVuSans-20" x="460.644531"/>
      <use xlink:href="#DejaVuSans-6f" x="492.431641"/>
      <use xlink:href="#DejaVuSans-66" x="553.613281"/>
      <use xlink:href="#DejaVuSans-20" x="588.818359"/>
      <use xlink:href="#DejaVuSans-73" x="620.605469"/>
      <use xlink:href="#DejaVuSans-75" x="672.705078"/>
      <use xlink:href="#DejaVuSans-72" x="736.083984"/>
      <use xlink:href="#DejaVuSans-70" x="777.197266"/>
      <use xlink:href="#DejaVuSans-72" x="840.673828"/>
      <use xlink:href="#DejaVuSans-69" x="881.787109"/>
      <use xlink:href="#DejaVuSans-73" x="909.570312"/>
      <use xlink:href="#DejaVuSans-61" x="961.669922"/>
      <use xlink:href="#DejaVuSans-6c" x="1022.949219"/>
      <use xlink:href="#DejaVuSans-20" x="1050.732422"/>
      <use xlink:href="#DejaVuSans-28" x="1082.519531"/>
      <use xlink:href="#DejaVuSans-6d" x="1121.533203"/>
      <use xlink:href="#DejaVuSans-75" x="1218.945312"/>
      <use xlink:href="#DejaVuSans-6c" x="1282.324219"/>
      <use xlink:href="#DejaVuSans-74" x="1310.107422"/>
      <use xlink:href="#DejaVuSans-69" x="1349.316406"/>
      <use xlink:href="#DejaVuSans-70" x="1377.099609"/>
      <use xlink:href="#DejaVuSans-6c" x="1440.576172"/>
      <use xlink:href="#DejaVuSans-69" x="1468.359375"/>
      <use xlink:href="#DejaVuSans-63" x="1496.142578"/>
      <use xlink:href="#DejaVuSans-61" x="1551.123047"/>
      <use xlink:href="#DejaVuSans-74" x="1612.402344"/>
      <use xlink:href="#DejaVuSans-69" x="1651.611328"/>
      <use xlink:href="#DejaVuSans-6f" x="1679.394531"/>
      <use xlink:href="#DejaVuSans-6e" x="1740.576172"/>
      <use xlink:href="#DejaVuSans-29" x="1803.955078"/>
     </g>
    </g>
   </g>
   <g id="matplotlib.axis_2">
    <g id="ytick_1">
     <g id="line2d_6">
      <defs>
       <path id="m16b5394da3" d="M 0 0 
L -3.5 0 
" style="stroke: #000000; stroke-width: 0.8"/>
      </defs>
      <g>
       <use xlink:href="#m16b5394da3" x="47.72" y="155.937028" style="stroke: #000000; stroke-width: 0.8"/>
      </g>
     </g>
     <g id="text_7">
      <!-- 0.2 -->
      <g transform="translate(24.816875 159.736247)scale(0.1 -0.1)">
       <use xlink:href="#DejaVuSans-30"/>
       <use xlink:href="#DejaVuSans-2e" x="63.623047"/>
       <use xlink:href="#DejaVuSans-32" x="95.410156"/>
      </g>
     </g>
    </g>
    <g id="ytick_2">
     <g id="line2d_7">
      <g>
       <use xlink:href="#m16b5394da3" x="47.72" y="123.196523" style="stroke: #000000; stroke-width: 0.8"/>
      </g>
     </g>
     <g id="text_8">
      <!-- 0.4 -->
      <g transform="translate(24.816875 126.995742)scale(0.1 -0.1)">
       <defs>
        <path id="DejaVuSans-34" d="M 2419 4116 
L 825 1625 
L 2419 1625 
L 2419 4116 
z
M 2253 4666 
L 3047 4666 
L 3047 1625 
L 3713 1625 
L 3713 1100 
L 3047 1100 
L 3047 0 
L 2419 0 
L 2419 1100 
L 313 1100 
L 313 1709 
L 2253 4666 
z
" transform="scale(0.015625)"/>
       </defs>
       <use xlink:href="#DejaVuSans-30"/>
       <use xlink:href="#DejaVuSans-2e" x="63.623047"/>
       <use xlink:href="#DejaVuSans-34" x="95.410156"/>
      </g>
     </g>
    </g>
    <g id="ytick_3">
     <g id="line2d_8">
      <g>
       <use xlink:href="#m16b5394da3" x="47.72" y="90.456018" style="stroke: #000000; stroke-width: 0.8"/>
      </g>
     </g>
     <g id="text_9">
      <!-- 0.6 -->
      <g transform="translate(24.816875 94.255237)scale(0.1 -0.1)">
       <defs>
        <path id="DejaVuSans-36" d="M 2113 2584 
Q 1688 2584 1439 2293 
Q 1191 2003 1191 1497 
Q 1191 994 1439 701 
Q 1688 409 2113 409 
Q 2538 409 2786 701 
Q 3034 994 3034 1497 
Q 3034 2003 2786 2293 
Q 2538 2584 2113 2584 
z
M 3366 4563 
L 3366 3988 
Q 3128 4100 2886 4159 
Q 2644 4219 2406 4219 
Q 1781 4219 1451 3797 
Q 1122 3375 1075 2522 
Q 1259 2794 1537 2939 
Q 1816 3084 2150 3084 
Q 2853 3084 3261 2657 
Q 3669 2231 3669 1497 
Q 3669 778 3244 343 
Q 2819 -91 2113 -91 
Q 1303 -91 875 529 
Q 447 1150 447 2328 
Q 447 3434 972 4092 
Q 1497 4750 2381 4750 
Q 2619 4750 2861 4703 
Q 3103 4656 3366 4563 
z
" transform="scale(0.015625)"/>
       </defs>
       <use xlink:href="#DejaVuSans-30"/>
       <use xlink:href="#DejaVuSans-2e" x="63.623047"/>
       <use xlink:href="#DejaVuSans-36" x="95.410156"/>
      </g>
     </g>
    </g>
    <g id="ytick_4">
     <g id="line2d_9">
      <g>
       <use xlink:href="#m16b5394da3" x="47.72" y="57.715513" style="stroke: #000000; stroke-width: 0.8"/>
      </g>
     </g>
     <g id="text_10">
      <!-- 0.8 -->
      <g transform="translate(24.816875 61.514732)scale(0.1 -0.1)">
       <defs>
        <path id="DejaVuSans-38" d="M 2034 2216 
Q 1584 2216 1326 1975 
Q 1069 1734 1069 1313 
Q 1069 891 1326 650 
Q 1584 409 2034 409 
Q 2484 409 2743 651 
Q 3003 894 3003 1313 
Q 3003 1734 2745 1975 
Q 2488 2216 2034 2216 
z
M 1403 2484 
Q 997 2584 770 2862 
Q 544 3141 544 3541 
Q 544 4100 942 4425 
Q 1341 4750 2034 4750 
Q 2731 4750 3128 4425 
Q 3525 4100 3525 3541 
Q 3525 3141 3298 2862 
Q 3072 2584 2669 2484 
Q 3125 2378 3379 2068 
Q 3634 1759 3634 1313 
Q 3634 634 3220 271 
Q 2806 -91 2034 -91 
Q 1263 -91 848 271 
Q 434 634 434 1313 
Q 434 1759 690 2068 
Q 947 2378 1403 2484 
z
M 1172 3481 
Q 1172 3119 1398 2916 
Q 1625 2713 2034 2713 
Q 2441 2713 2670 2916 
Q 2900 3119 2900 3481 
Q 2900 3844 2670 4047 
Q 2441 4250 2034 4250 
Q 1625 4250 1398 4047 
Q 1172 3844 1172 3481 
z
" transform="scale(0.015625)"/>
       </defs>
       <use xlink:href="#DejaVuSans-30"/>
       <use xlink:href="#DejaVuSans-2e" x="63.623047"/>
       <use xlink:href="#DejaVuSans-38" x="95.410156"/>
      </g>
     </g>
    </g>
    <g id="text_11">
     <!-- R-value -->
     <g transform="translate(18.737188 119.064687)rotate(-90)scale(0.1 -0.1)">
      <defs>
       <path id="DejaVuSans-52" d="M 2841 2188 
Q 3044 2119 3236 1894 
Q 3428 1669 3622 1275 
L 4263 0 
L 3584 0 
L 2988 1197 
Q 2756 1666 2539 1819 
Q 2322 1972 1947 1972 
L 1259 1972 
L 1259 0 
L 628 0 
L 628 4666 
L 2053 4666 
Q 2853 4666 3247 4331 
Q 3641 3997 3641 3322 
Q 3641 2881 3436 2590 
Q 3231 2300 2841 2188 
z
M 1259 4147 
L 1259 2491 
L 2053 2491 
Q 2509 2491 2742 2702 
Q 2975 2913 2975 3322 
Q 2975 3731 2742 3939 
Q 2509 4147 2053 4147 
L 1259 4147 
z
" transform="scale(0.015625)"/>
       <path id="DejaVuSans-2d" d="M 313 2009 
L 1997 2009 
L 1997 1497 
L 313 1497 
L 313 2009 
z
" transform="scale(0.015625)"/>
       <path id="DejaVuSans-76" d="M 191 3500 
L 800 3500 
L 1894 563 
L 2988 3500 
L 3597 3500 
L 2284 0 
L 1503 0 
L 191 3500 
z
" transform="scale(0.015625)"/>
      </defs>
      <use xlink:href="#DejaVuSans-52"/>
      <use xlink:href="#DejaVuSans-2d" x="65.482422"/>
      <use xlink:href="#DejaVuSans-76" x="98.941406"/>
      <use xlink:href="#DejaVuSans-61" x="158.121094"/>
      <use xlink:href="#DejaVuSans-6c" x="219.400391"/>
      <use xlink:href="#DejaVuSans-75" x="247.183594"/>
      <use xlink:href="#DejaVuSans-65" x="310.5625"/>
     </g>
    </g>
   </g>
   <g id="line2d_10">
    <path d="M 47.72 34.050901 
L 59.167105 35.894822 
L 70.614211 41.570122 
L 82.061316 49.091494 
L 93.508421 57.543637 
L 104.955526 67.072936 
L 116.402632 77.017471 
L 127.849737 86.591592 
L 139.296842 95.112893 
L 150.743947 102.841598 
L 162.191053 110.521728 
L 173.638158 117.488953 
L 185.085263 123.475108 
L 196.532368 128.811773 
L 207.979474 133.951048 
L 219.426579 138.570583 
L 230.873684 142.647973 
L 242.320789 146.34792 
L 253.767895 149.192063 
L 265.215 152.546033 
" clip-path="url(#pe9d88f93a7)" style="fill: none; stroke: #1f77b4; stroke-width: 1.5; stroke-linecap: square"/>
   </g>
   <g id="line2d_11">
    <path d="M 47.72 34.067525 
L 59.167105 35.313086 
L 70.614211 38.391029 
L 82.061316 43.13724 
L 93.508421 48.802754 
L 104.955526 56.141452 
L 116.402632 64.492548 
L 127.849737 73.207752 
L 139.296842 81.531287 
L 150.743947 89.314474 
L 162.191053 97.246869 
L 173.638158 104.40926 
L 185.085263 110.839158 
L 196.532368 116.758034 
L 207.979474 122.45752 
L 219.426579 127.206553 
L 230.873684 132.199667 
L 242.320789 136.292727 
L 253.767895 139.731414 
L 265.215 143.421552 
" clip-path="url(#pe9d88f93a7)" style="fill: none; stroke: #ff7f0e; stroke-width: 1.5; stroke-linecap: square"/>
   </g>
   <g id="line2d_12">
    <path d="M 47.72 34.055047 
L 59.167105 35.50884 
L 70.614211 38.327681 
L 82.061316 41.475515 
L 93.508421 45.329048 
L 104.955526 49.569833 
L 116.402632 54.463275 
L 127.849737 59.189378 
L 139.296842 63.568849 
L 150.743947 67.791505 
L 162.191053 72.457672 
L 173.638158 76.320209 
L 185.085263 80.944399 
L 196.532368 85.35156 
L 207.979474 90.038732 
L 219.426579 92.730211 
L 230.873684 97.780468 
L 242.320789 101.367673 
L 253.767895 105.283832 
L 265.215 109.039026 
" clip-path="url(#pe9d88f93a7)" style="fill: none; stroke: #2ca02c; stroke-width: 1.5; stroke-linecap: square"/>
   </g>
   <g id="line2d_13">
    <path d="M 47.72 34.069871 
L 59.167105 35.252375 
L 70.614211 37.310922 
L 82.061316 39.949062 
L 93.508421 43.19749 
L 104.955526 47.190667 
L 116.402632 51.944614 
L 127.849737 56.814812 
L 139.296842 61.472518 
L 150.743947 65.964765 
L 162.191053 70.967256 
L 173.638158 75.081772 
L 185.085263 79.917072 
L 196.532368 84.3479 
L 207.979474 89.122124 
L 219.426579 91.813945 
L 230.873684 96.766693 
L 242.320789 100.242299 
L 253.767895 104.003874 
L 265.215 107.865251 
" clip-path="url(#pe9d88f93a7)" style="fill: none; stroke: #d62728; stroke-width: 1.5; stroke-linecap: square"/>
   </g>
   <g id="line2d_14">
    <path d="M 47.72 34.062188 
L 59.167105 35.908436 
L 70.614211 41.574655 
L 82.061316 49.157063 
L 93.508421 57.624566 
L 104.955526 67.162251 
L 116.402632 77.073381 
L 127.849737 86.806963 
L 139.296842 95.21605 
L 150.743947 103.252728 
L 162.191053 110.627448 
L 173.638158 117.668132 
L 185.085263 123.736428 
L 196.532368 129.658835 
L 207.979474 134.919083 
L 219.426579 138.618069 
L 230.873684 143.726564 
L 242.320789 147.088996 
L 253.767895 149.453713 
L 265.215 153.361724 
" clip-path="url(#pe9d88f93a7)" style="fill: none; stroke: #9467bd; stroke-width: 1.5; stroke-linecap: square"/>
   </g>
   <g id="line2d_15">
    <path d="M 47.72 34.079181 
L 59.167105 35.327116 
L 70.614211 38.407131 
L 82.061316 43.164644 
L 93.508421 48.857008 
L 104.955526 56.14557 
L 116.402632 64.557893 
L 127.849737 73.344891 
L 139.296842 81.631669 
L 150.743947 89.54214 
L 162.191053 97.385315 
L 173.638158 104.523937 
L 185.085263 111.03206 
L 196.532368 117.277294 
L 207.979474 123.137151 
L 219.426579 127.225154 
L 230.873684 132.945386 
L 242.320789 136.73633 
L 253.767895 139.829184 
L 265.215 144.058651 
" clip-path="url(#pe9d88f93a7)" style="fill: none; stroke: #8c564b; stroke-width: 1.5; stroke-linecap: square"/>
   </g>
   <g id="line2d_16">
    <path d="M 47.72 46.105948 
L 59.167105 48.680864 
L 70.614211 55.296588 
L 82.061316 64.758381 
L 93.508421 74.529835 
L 104.955526 85.631802 
L 116.402632 96.74686 
L 127.849737 107.025225 
L 139.296842 115.688425 
L 150.743947 123.14924 
L 162.191053 130.327609 
L 173.638158 136.322021 
L 185.085263 141.604748 
L 196.532368 146.378038 
L 207.979474 150.562811 
L 219.426579 154.090131 
L 230.873684 157.235135 
L 242.320789 160.059097 
L 253.767895 162.21176 
L 265.215 164.473246 
" clip-path="url(#pe9d88f93a7)" style="fill: none; stroke: #e377c2; stroke-width: 1.5; stroke-linecap: square"/>
   </g>
   <g id="line2d_17">
    <path d="M 47.72 34.079293 
L 59.167105 34.677537 
L 70.614211 35.441548 
L 82.061316 37.175692 
L 93.508421 40.234243 
L 104.955526 45.273521 
L 116.402632 51.989178 
L 127.849737 59.856961 
L 139.296842 67.358651 
L 150.743947 75.324069 
L 162.191053 83.330391 
L 173.638158 90.593383 
L 185.085263 97.708962 
L 196.532368 104.49748 
L 207.979474 111.186678 
L 219.426579 116.286245 
L 230.873684 122.201464 
L 242.320789 126.966063 
L 253.767895 131.354167 
L 265.215 135.658004 
" clip-path="url(#pe9d88f93a7)" style="fill: none; stroke: #7f7f7f; stroke-width: 1.5; stroke-linecap: square"/>
   </g>
   <g id="patch_3">
    <path d="M 47.72 174.04 
L 47.72 26.88 
" style="fill: none; stroke: #000000; stroke-width: 0.8; stroke-linejoin: miter; stroke-linecap: square"/>
   </g>
   <g id="patch_4">
    <path d="M 47.72 174.04 
L 265.215 174.04 
" style="fill: none; stroke: #000000; stroke-width: 0.8; stroke-linejoin: miter; stroke-linecap: square"/>
   </g>
   <g id="text_12">
    <!-- Node * surprisal -->
    <g transform="translate(108.18625 20.88)scale(0.12 -0.12)">
     <defs>
      <path id="DejaVuSans-4e" d="M 628 4666 
L 1478 4666 
L 3547 763 
L 3547 4666 
L 4159 4666 
L 4159 0 
L 3309 0 
L 1241 3903 
L 1241 0 
L 628 0 
L 628 4666 
z
" transform="scale(0.015625)"/>
      <path id="DejaVuSans-64" d="M 2906 2969 
L 2906 4863 
L 3481 4863 
L 3481 0 
L 2906 0 
L 2906 525 
Q 2725 213 2448 61 
Q 2172 -91 1784 -91 
Q 1150 -91 751 415 
Q 353 922 353 1747 
Q 353 2572 751 3078 
Q 1150 3584 1784 3584 
Q 2172 3584 2448 3432 
Q 2725 3281 2906 2969 
z
M 947 1747 
Q 947 1113 1208 752 
Q 1469 391 1925 391 
Q 2381 391 2643 752 
Q 2906 1113 2906 1747 
Q 2906 2381 2643 2742 
Q 2381 3103 1925 3103 
Q 1469 3103 1208 2742 
Q 947 2381 947 1747 
z
" transform="scale(0.015625)"/>
      <path id="DejaVuSans-2a" d="M 3009 3897 
L 1888 3291 
L 3009 2681 
L 2828 2375 
L 1778 3009 
L 1778 1831 
L 1422 1831 
L 1422 3009 
L 372 2375 
L 191 2681 
L 1313 3291 
L 191 3897 
L 372 4206 
L 1422 3572 
L 1422 4750 
L 1778 4750 
L 1778 3572 
L 2828 4206 
L 3009 3897 
z
" transform="scale(0.015625)"/>
     </defs>
     <use xlink:href="#DejaVuSans-4e"/>
     <use xlink:href="#DejaVuSans-6f" x="74.804688"/>
     <use xlink:href="#DejaVuSans-64" x="135.986328"/>
     <use xlink:href="#DejaVuSans-65" x="199.462891"/>
     <use xlink:href="#DejaVuSans-20" x="260.986328"/>
     <use xlink:href="#DejaVuSans-2a" x="292.773438"/>
     <use xlink:href="#DejaVuSans-20" x="342.773438"/>
     <use xlink:href="#DejaVuSans-73" x="374.560547"/>
     <use xlink:href="#DejaVuSans-75" x="426.660156"/>
     <use xlink:href="#DejaVuSans-72" x="490.039062"/>
     <use xlink:href="#DejaVuSans-70" x="531.152344"/>
     <use xlink:href="#DejaVuSans-72" x="594.628906"/>
     <use xlink:href="#DejaVuSans-69" x="635.742188"/>
     <use xlink:href="#DejaVuSans-73" x="663.525391"/>
     <use xlink:href="#DejaVuSans-61" x="715.625"/>
     <use xlink:href="#DejaVuSans-6c" x="776.904297"/>
    </g>
   </g>
  </g>
  <g id="axes_2">
   <g id="patch_5">
    <path d="M 298.065 174.04 
L 515.56 174.04 
L 515.56 26.88 
L 298.065 26.88 
z
" style="fill: #ffffff"/>
   </g>
   <g id="PolyCollection_9">
    <path d="M 298.065 33.784708 
L 298.065 34.553167 
L 309.512105 37.025102 
L 320.959211 43.799743 
L 332.406316 52.227386 
L 343.853421 61.987751 
L 355.300526 71.597419 
L 366.747632 80.134293 
L 378.194737 91.870318 
L 389.641842 100.57479 
L 401.088947 110.658086 
L 412.536053 119.612328 
L 423.983158 127.181349 
L 435.430263 135.312341 
L 446.877368 140.938219 
L 458.324474 146.075426 
L 469.771579 150.457578 
L 481.218684 154.408027 
L 492.665789 158.025234 
L 504.112895 160.849106 
L 515.56 163.418697 
L 515.56 149.62524 
L 515.56 149.62524 
L 504.112895 146.854865 
L 492.665789 144.066885 
L 481.218684 140.848006 
L 469.771579 136.78329 
L 458.324474 132.763634 
L 446.877368 127.324985 
L 435.430263 122.571564 
L 423.983158 115.578563 
L 412.536053 107.930139 
L 401.088947 99.519797 
L 389.641842 90.832193 
L 378.194737 82.402772 
L 366.747632 73.040318 
L 355.300526 63.745355 
L 343.853421 55.463866 
L 332.406316 46.895041 
L 320.959211 40.201139 
L 309.512105 35.365161 
L 298.065 33.784708 
z
" clip-path="url(#p913e5d2f66)" style="fill: #1f77b4; fill-opacity: 0.4"/>
   </g>
   <g id="PolyCollection_10">
    <path d="M 298.065 33.79755 
L 298.065 34.573942 
L 309.512105 37.033379 
L 320.959211 43.818057 
L 332.406316 52.222548 
L 343.853421 61.990423 
L 355.300526 71.632786 
L 366.747632 80.268029 
L 378.194737 92.054485 
L 389.641842 100.832535 
L 401.088947 110.966633 
L 412.536053 119.991526 
L 423.983158 127.574205 
L 435.430263 135.711408 
L 446.877368 141.58768 
L 458.324474 146.554439 
L 469.771579 150.990509 
L 481.218684 154.829606 
L 492.665789 158.499506 
L 504.112895 161.278304 
L 515.56 163.610676 
L 515.56 149.904099 
L 515.56 149.904099 
L 504.112895 147.335517 
L 492.665789 144.302556 
L 481.218684 140.901617 
L 469.771579 136.9591 
L 458.324474 132.862666 
L 446.877368 127.408476 
L 435.430263 122.662992 
L 423.983158 115.667524 
L 412.536053 107.928811 
L 401.088947 99.641317 
L 389.641842 90.937173 
L 378.194737 82.443105 
L 366.747632 73.090042 
L 355.300526 63.759273 
L 343.853421 55.50082 
L 332.406316 46.903324 
L 320.959211 40.222769 
L 309.512105 35.379997 
L 298.065 33.79755 
z
" clip-path="url(#p913e5d2f66)" style="fill: #ff7f0e; fill-opacity: 0.4"/>
   </g>
   <g id="PolyCollection_11">
    <path d="M 298.065 33.801895 
L 298.065 34.556315 
L 309.512105 37.023436 
L 320.959211 43.796332 
L 332.406316 52.176265 
L 343.853421 61.878779 
L 355.300526 71.406511 
L 366.747632 79.869162 
L 378.194737 91.551943 
L 389.641842 100.262756 
L 401.088947 110.224042 
L 412.536053 119.424343 
L 423.983158 127.014963 
L 435.430263 135.242318 
L 446.877368 141.272406 
L 458.324474 146.369196 
L 469.771579 151.073685 
L 481.218684 154.97658 
L 492.665789 158.421869 
L 504.112895 161.861777 
L 515.56 164.029954 
L 515.56 150.562746 
L 515.56 150.562746 
L 504.112895 147.829634 
L 492.665789 144.691575 
L 481.218684 141.137908 
L 469.771579 137.282807 
L 458.324474 133.008844 
L 446.877368 127.470193 
L 435.430263 122.708807 
L 423.983158 115.864061 
L 412.536053 108.191473 
L 401.088947 99.837657 
L 389.641842 91.058469 
L 378.194737 82.727384 
L 366.747632 73.409988 
L 355.300526 64.007285 
L 343.853421 55.67255 
L 332.406316 47.038566 
L 320.959211 40.280615 
L 309.512105 35.383433 
L 298.065 33.801895 
z
" clip-path="url(#p913e5d2f66)" style="fill: #2ca02c; fill-opacity: 0.4"/>
   </g>
   <g id="PolyCollection_12">
    <path d="M 298.065 33.812297 
L 298.065 34.570865 
L 309.512105 37.044216 
L 320.959211 43.833382 
L 332.406316 52.193684 
L 343.853421 61.88409 
L 355.300526 71.43869 
L 366.747632 79.970249 
L 378.194737 91.678448 
L 389.641842 100.391503 
L 401.088947 110.424189 
L 412.536053 119.681347 
L 423.983158 127.311385 
L 435.430263 135.660402 
L 446.877368 141.850364 
L 458.324474 146.975387 
L 469.771579 151.719056 
L 481.218684 155.543772 
L 492.665789 159.065308 
L 504.112895 162.450771 
L 515.56 164.601328 
L 515.56 150.759626 
L 515.56 150.759626 
L 504.112895 148.099028 
L 492.665789 144.867643 
L 481.218684 141.345553 
L 469.771579 137.595465 
L 458.324474 133.341798 
L 446.877368 127.964851 
L 435.430263 123.204973 
L 423.983158 116.387774 
L 412.536053 108.498906 
L 401.088947 100.277584 
L 389.641842 91.384593 
L 378.194737 82.946531 
L 366.747632 73.542055 
L 355.300526 64.105166 
L 343.853421 55.781678 
L 332.406316 47.063465 
L 320.959211 40.322309 
L 309.512105 35.389988 
L 298.065 33.812297 
z
" clip-path="url(#p913e5d2f66)" style="fill: #d62728; fill-opacity: 0.4"/>
   </g>
   <g id="PolyCollection_13">
    <path d="M 298.065 33.806228 
L 298.065 34.563244 
L 309.512105 37.044874 
L 320.959211 43.813206 
L 332.406316 52.229123 
L 343.853421 62.006522 
L 355.300526 72.017372 
L 366.747632 80.144042 
L 378.194737 91.956935 
L 389.641842 100.841522 
L 401.088947 110.660036 
L 412.536053 120.127543 
L 423.983158 127.351828 
L 435.430263 135.959278 
L 446.877368 140.924032 
L 458.324474 145.722481 
L 469.771579 151.468351 
L 481.218684 154.850423 
L 492.665789 158.071308 
L 504.112895 161.033804 
L 515.56 162.887269 
L 515.56 149.827321 
L 515.56 149.827321 
L 504.112895 146.8971 
L 492.665789 143.877821 
L 481.218684 140.723948 
L 469.771579 136.966641 
L 458.324474 133.700932 
L 446.877368 128.878171 
L 435.430263 123.07697 
L 423.983158 115.640629 
L 412.536053 107.996089 
L 401.088947 99.662941 
L 389.641842 90.889401 
L 378.194737 82.207896 
L 366.747632 73.208557 
L 355.300526 63.875111 
L 343.853421 55.504542 
L 332.406316 46.984645 
L 320.959211 40.288892 
L 309.512105 35.362487 
L 298.065 33.806228 
z
" clip-path="url(#p913e5d2f66)" style="fill: #9467bd; fill-opacity: 0.4"/>
   </g>
   <g id="PolyCollection_14">
    <path d="M 298.065 33.819578 
L 298.065 34.584156 
L 309.512105 37.053844 
L 320.959211 43.831976 
L 332.406316 52.22915 
L 343.853421 62.00966 
L 355.300526 72.059592 
L 366.747632 80.268029 
L 378.194737 92.128952 
L 389.641842 101.083946 
L 401.088947 110.980574 
L 412.536053 120.494149 
L 423.983158 127.757719 
L 435.430263 136.350328 
L 446.877368 141.581466 
L 458.324474 146.19229 
L 469.771579 152.023651 
L 481.218684 155.209338 
L 492.665789 158.504811 
L 504.112895 161.470174 
L 515.56 163.090465 
L 515.56 150.06612 
L 515.56 150.06612 
L 504.112895 147.345034 
L 492.665789 144.104755 
L 481.218684 140.788126 
L 469.771579 137.151349 
L 458.324474 133.755914 
L 446.877368 128.904729 
L 435.430263 123.170192 
L 423.983158 115.718769 
L 412.536053 108.014972 
L 401.088947 99.771231 
L 389.641842 90.998972 
L 378.194737 82.248437 
L 366.747632 73.254256 
L 355.300526 63.889304 
L 343.853421 55.542687 
L 332.406316 46.988887 
L 320.959211 40.311828 
L 309.512105 35.378048 
L 298.065 33.819578 
z
" clip-path="url(#p913e5d2f66)" style="fill: #8c564b; fill-opacity: 0.4"/>
   </g>
   <g id="PolyCollection_15">
    <path d="M 298.065 44.573964 
L 298.065 48.001021 
L 309.512105 49.929247 
L 320.959211 55.685168 
L 332.406316 63.482215 
L 343.853421 72.207632 
L 355.300526 81.030027 
L 366.747632 88.340522 
L 378.194737 99.401871 
L 389.641842 107.415096 
L 401.088947 116.516598 
L 412.536053 125.223805 
L 423.983158 132.144352 
L 435.430263 139.921697 
L 446.877368 145.537502 
L 458.324474 149.701404 
L 469.771579 154.018757 
L 481.218684 157.820367 
L 492.665789 160.886142 
L 504.112895 163.662731 
L 515.56 165.984477 
L 515.56 153.878137 
L 515.56 153.878137 
L 504.112895 151.209774 
L 492.665789 148.305189 
L 481.218684 145.213568 
L 469.771579 141.763501 
L 458.324474 137.703499 
L 446.877368 132.154029 
L 435.430263 127.692483 
L 423.983158 121.401061 
L 412.536053 114.213059 
L 401.088947 106.721416 
L 389.641842 98.19926 
L 378.194737 90.65335 
L 366.747632 82.37446 
L 355.300526 73.683745 
L 343.853421 66.036801 
L 332.406316 57.493261 
L 320.959211 51.058151 
L 309.512105 46.44014 
L 298.065 44.573964 
z
" clip-path="url(#p913e5d2f66)" style="fill: #e377c2; fill-opacity: 0.4"/>
   </g>
   <g id="PolyCollection_16">
    <path d="M 298.065 33.811903 
L 298.065 34.579978 
L 309.512105 37.066632 
L 320.959211 43.83121 
L 332.406316 52.249376 
L 343.853421 61.980922 
L 355.300526 71.573191 
L 366.747632 80.131584 
L 378.194737 91.929482 
L 389.641842 100.703698 
L 401.088947 110.790029 
L 412.536053 119.820256 
L 423.983158 127.43898 
L 435.430263 135.63547 
L 446.877368 141.623643 
L 458.324474 146.624979 
L 469.771579 151.267533 
L 481.218684 155.143532 
L 492.665789 158.813129 
L 504.112895 162.316907 
L 515.56 164.378449 
L 515.56 151.305474 
L 515.56 151.305474 
L 504.112895 148.837081 
L 492.665789 145.317772 
L 481.218684 141.729681 
L 469.771579 137.934317 
L 458.324474 133.644069 
L 446.877368 127.840123 
L 435.430263 123.102018 
L 423.983158 116.146453 
L 412.536053 108.322198 
L 401.088947 99.901705 
L 389.641842 91.086717 
L 378.194737 82.600681 
L 366.747632 73.261781 
L 355.300526 63.849916 
L 343.853421 55.617559 
L 332.406316 46.952771 
L 320.959211 40.260436 
L 309.512105 35.392717 
L 298.065 33.811903 
z
" clip-path="url(#p913e5d2f66)" style="fill: #7f7f7f; fill-opacity: 0.4"/>
   </g>
   <g id="matplotlib.axis_3">
    <g id="xtick_6">
     <g id="line2d_18">
      <g>
       <use xlink:href="#m7ba39d0e2f" x="298.065" y="174.04" style="stroke: #000000; stroke-width: 0.8"/>
      </g>
     </g>
     <g id="text_13">
      <!-- 0.0 -->
      <g transform="translate(290.113437 188.638438)scale(0.1 -0.1)">
       <use xlink:href="#DejaVuSans-30"/>
       <use xlink:href="#DejaVuSans-2e" x="63.623047"/>
       <use xlink:href="#DejaVuSans-30" x="95.410156"/>
      </g>
     </g>
    </g>
    <g id="xtick_7">
     <g id="line2d_19">
      <g>
       <use xlink:href="#m7ba39d0e2f" x="352.43875" y="174.04" style="stroke: #000000; stroke-width: 0.8"/>
      </g>
     </g>
     <g id="text_14">
      <!-- 0.5 -->
      <g transform="translate(344.487187 188.638438)scale(0.1 -0.1)">
       <use xlink:href="#DejaVuSans-30"/>
       <use xlink:href="#DejaVuSans-2e" x="63.623047"/>
       <use xlink:href="#DejaVuSans-35" x="95.410156"/>
      </g>
     </g>
    </g>
    <g id="xtick_8">
     <g id="line2d_20">
      <g>
       <use xlink:href="#m7ba39d0e2f" x="406.8125" y="174.04" style="stroke: #000000; stroke-width: 0.8"/>
      </g>
     </g>
     <g id="text_15">
      <!-- 1.0 -->
      <g transform="translate(398.860937 188.638438)scale(0.1 -0.1)">
       <use xlink:href="#DejaVuSans-31"/>
       <use xlink:href="#DejaVuSans-2e" x="63.623047"/>
       <use xlink:href="#DejaVuSans-30" x="95.410156"/>
      </g>
     </g>
    </g>
    <g id="xtick_9">
     <g id="line2d_21">
      <g>
       <use xlink:href="#m7ba39d0e2f" x="461.18625" y="174.04" style="stroke: #000000; stroke-width: 0.8"/>
      </g>
     </g>
     <g id="text_16">
      <!-- 1.5 -->
      <g transform="translate(453.234687 188.638438)scale(0.1 -0.1)">
       <use xlink:href="#DejaVuSans-31"/>
       <use xlink:href="#DejaVuSans-2e" x="63.623047"/>
       <use xlink:href="#DejaVuSans-35" x="95.410156"/>
      </g>
     </g>
    </g>
    <g id="xtick_10">
     <g id="line2d_22">
      <g>
       <use xlink:href="#m7ba39d0e2f" x="515.56" y="174.04" style="stroke: #000000; stroke-width: 0.8"/>
      </g>
     </g>
     <g id="text_17">
      <!-- 2.0 -->
      <g transform="translate(507.608437 188.638438)scale(0.1 -0.1)">
       <use xlink:href="#DejaVuSans-32"/>
       <use xlink:href="#DejaVuSans-2e" x="63.623047"/>
       <use xlink:href="#DejaVuSans-30" x="95.410156"/>
      </g>
     </g>
    </g>
    <g id="text_18">
     <!-- Influence of surprisal (multiplication) -->
     <g transform="translate(314.665625 202.316563)scale(0.1 -0.1)">
      <use xlink:href="#DejaVuSans-49"/>
      <use xlink:href="#DejaVuSans-6e" x="29.492188"/>
      <use xlink:href="#DejaVuSans-66" x="92.871094"/>
      <use xlink:href="#DejaVuSans-6c" x="128.076172"/>
      <use xlink:href="#DejaVuSans-75" x="155.859375"/>
      <use xlink:href="#DejaVuSans-65" x="219.238281"/>
      <use xlink:href="#DejaVuSans-6e" x="280.761719"/>
      <use xlink:href="#DejaVuSans-63" x="344.140625"/>
      <use xlink:href="#DejaVuSans-65" x="399.121094"/>
      <use xlink:href="#DejaVuSans-20" x="460.644531"/>
      <use xlink:href="#DejaVuSans-6f" x="492.431641"/>
      <use xlink:href="#DejaVuSans-66" x="553.613281"/>
      <use xlink:href="#DejaVuSans-20" x="588.818359"/>
      <use xlink:href="#DejaVuSans-73" x="620.605469"/>
      <use xlink:href="#DejaVuSans-75" x="672.705078"/>
      <use xlink:href="#DejaVuSans-72" x="736.083984"/>
      <use xlink:href="#DejaVuSans-70" x="777.197266"/>
      <use xlink:href="#DejaVuSans-72" x="840.673828"/>
      <use xlink:href="#DejaVuSans-69" x="881.787109"/>
      <use xlink:href="#DejaVuSans-73" x="909.570312"/>
      <use xlink:href="#DejaVuSans-61" x="961.669922"/>
      <use xlink:href="#DejaVuSans-6c" x="1022.949219"/>
      <use xlink:href="#DejaVuSans-20" x="1050.732422"/>
      <use xlink:href="#DejaVuSans-28" x="1082.519531"/>
      <use xlink:href="#DejaVuSans-6d" x="1121.533203"/>
      <use xlink:href="#DejaVuSans-75" x="1218.945312"/>
      <use xlink:href="#DejaVuSans-6c" x="1282.324219"/>
      <use xlink:href="#DejaVuSans-74" x="1310.107422"/>
      <use xlink:href="#DejaVuSans-69" x="1349.316406"/>
      <use xlink:href="#DejaVuSans-70" x="1377.099609"/>
      <use xlink:href="#DejaVuSans-6c" x="1440.576172"/>
      <use xlink:href="#DejaVuSans-69" x="1468.359375"/>
      <use xlink:href="#DejaVuSans-63" x="1496.142578"/>
      <use xlink:href="#DejaVuSans-61" x="1551.123047"/>
      <use xlink:href="#DejaVuSans-74" x="1612.402344"/>
      <use xlink:href="#DejaVuSans-69" x="1651.611328"/>
      <use xlink:href="#DejaVuSans-6f" x="1679.394531"/>
      <use xlink:href="#DejaVuSans-6e" x="1740.576172"/>
      <use xlink:href="#DejaVuSans-29" x="1803.955078"/>
     </g>
    </g>
   </g>
   <g id="line2d_23">
    <path d="M 298.065 34.168937 
L 309.512105 36.195131 
L 320.959211 42.000441 
L 332.406316 49.561214 
L 343.853421 58.725809 
L 355.300526 67.671387 
L 366.747632 76.587305 
L 378.194737 87.136545 
L 389.641842 95.703491 
L 401.088947 105.088942 
L 412.536053 113.771234 
L 423.983158 121.379956 
L 435.430263 128.941953 
L 446.877368 134.131602 
L 458.324474 139.41953 
L 469.771579 143.620434 
L 481.218684 147.628016 
L 492.665789 151.046059 
L 504.112895 153.851985 
L 515.56 156.521968 
" clip-path="url(#p913e5d2f66)" style="fill: none; stroke: #1f77b4; stroke-width: 1.5; stroke-linecap: square"/>
   </g>
   <g id="line2d_24">
    <path d="M 298.065 34.185746 
L 309.512105 36.206688 
L 320.959211 42.020413 
L 332.406316 49.562936 
L 343.853421 58.745621 
L 355.300526 67.69603 
L 366.747632 76.679035 
L 378.194737 87.248795 
L 389.641842 95.884854 
L 401.088947 105.303975 
L 412.536053 113.960169 
L 423.983158 121.620865 
L 435.430263 129.1872 
L 446.877368 134.498078 
L 458.324474 139.708553 
L 469.771579 143.974805 
L 481.218684 147.865612 
L 492.665789 151.401031 
L 504.112895 154.30691 
L 515.56 156.757387 
" clip-path="url(#p913e5d2f66)" style="fill: none; stroke: #ff7f0e; stroke-width: 1.5; stroke-linecap: square"/>
   </g>
   <g id="line2d_25">
    <path d="M 298.065 34.179105 
L 309.512105 36.203435 
L 320.959211 42.038474 
L 332.406316 49.607416 
L 343.853421 58.775664 
L 355.300526 67.706898 
L 366.747632 76.639575 
L 378.194737 87.139663 
L 389.641842 95.660613 
L 401.088947 105.03085 
L 412.536053 113.807908 
L 423.983158 121.439512 
L 435.430263 128.975563 
L 446.877368 134.371299 
L 458.324474 139.68902 
L 469.771579 144.178246 
L 481.218684 148.057244 
L 492.665789 151.556722 
L 504.112895 154.845705 
L 515.56 157.29635 
" clip-path="url(#p913e5d2f66)" style="fill: none; stroke: #2ca02c; stroke-width: 1.5; stroke-linecap: square"/>
   </g>
   <g id="line2d_26">
    <path d="M 298.065 34.191581 
L 309.512105 36.217102 
L 320.959211 42.077846 
L 332.406316 49.628575 
L 343.853421 58.832884 
L 355.300526 67.771928 
L 366.747632 76.756152 
L 378.194737 87.31249 
L 389.641842 95.888048 
L 401.088947 105.350887 
L 412.536053 114.090126 
L 423.983158 121.849579 
L 435.430263 129.432687 
L 446.877368 134.907608 
L 458.324474 140.158593 
L 469.771579 144.65726 
L 481.218684 148.444662 
L 492.665789 151.966475 
L 504.112895 155.274899 
L 515.56 157.680477 
" clip-path="url(#p913e5d2f66)" style="fill: none; stroke: #d62728; stroke-width: 1.5; stroke-linecap: square"/>
   </g>
   <g id="line2d_27">
    <path d="M 298.065 34.184736 
L 309.512105 36.20368 
L 320.959211 42.051049 
L 332.406316 49.606884 
L 343.853421 58.755532 
L 355.300526 67.946242 
L 366.747632 76.676299 
L 378.194737 87.082415 
L 389.641842 95.865462 
L 401.088947 105.161488 
L 412.536053 114.061816 
L 423.983158 121.496229 
L 435.430263 129.518124 
L 446.877368 134.901101 
L 458.324474 139.711706 
L 469.771579 144.217496 
L 481.218684 147.787186 
L 492.665789 150.974564 
L 504.112895 153.965452 
L 515.56 156.357295 
" clip-path="url(#p913e5d2f66)" style="fill: none; stroke: #9467bd; stroke-width: 1.5; stroke-linecap: square"/>
   </g>
   <g id="line2d_28">
    <path d="M 298.065 34.201867 
L 309.512105 36.215946 
L 320.959211 42.071902 
L 332.406316 49.609018 
L 343.853421 58.776173 
L 355.300526 67.974448 
L 366.747632 76.761142 
L 378.194737 87.188695 
L 389.641842 96.041459 
L 401.088947 105.375902 
L 412.536053 114.254561 
L 423.983158 121.738244 
L 435.430263 129.76026 
L 446.877368 135.243097 
L 458.324474 139.974102 
L 469.771579 144.5875 
L 481.218684 147.998732 
L 492.665789 151.304783 
L 504.112895 154.407604 
L 515.56 156.578292 
" clip-path="url(#p913e5d2f66)" style="fill: none; stroke: #8c564b; stroke-width: 1.5; stroke-linecap: square"/>
   </g>
   <g id="line2d_29">
    <path d="M 298.065 46.287493 
L 309.512105 48.184694 
L 320.959211 53.371659 
L 332.406316 60.487738 
L 343.853421 69.122216 
L 355.300526 77.356886 
L 366.747632 85.357491 
L 378.194737 95.02761 
L 389.641842 102.807178 
L 401.088947 111.619007 
L 412.536053 119.718432 
L 423.983158 126.772706 
L 435.430263 133.80709 
L 446.877368 138.845765 
L 458.324474 143.702451 
L 469.771579 147.891129 
L 481.218684 151.516968 
L 492.665789 154.595666 
L 504.112895 157.436252 
L 515.56 159.931307 
" clip-path="url(#p913e5d2f66)" style="fill: none; stroke: #e377c2; stroke-width: 1.5; stroke-linecap: square"/>
   </g>
   <g id="line2d_30">
    <path d="M 298.065 34.195941 
L 309.512105 36.229675 
L 320.959211 42.045823 
L 332.406316 49.601074 
L 343.853421 58.799241 
L 355.300526 67.711554 
L 366.747632 76.696682 
L 378.194737 87.265082 
L 389.641842 95.895207 
L 401.088947 105.345867 
L 412.536053 114.071227 
L 423.983158 121.792716 
L 435.430263 129.368744 
L 446.877368 134.731883 
L 458.324474 140.134524 
L 469.771579 144.600925 
L 481.218684 148.436607 
L 492.665789 152.065451 
L 504.112895 155.576994 
L 515.56 157.841961 
" clip-path="url(#p913e5d2f66)" style="fill: none; stroke: #7f7f7f; stroke-width: 1.5; stroke-linecap: square"/>
   </g>
   <g id="patch_6">
    <path d="M 298.065 174.04 
L 298.065 26.88 
" style="fill: none; stroke: #000000; stroke-width: 0.8; stroke-linejoin: miter; stroke-linecap: square"/>
   </g>
   <g id="patch_7">
    <path d="M 298.065 174.04 
L 515.56 174.04 
" style="fill: none; stroke: #000000; stroke-width: 0.8; stroke-linejoin: miter; stroke-linecap: square"/>
   </g>
   <g id="text_19">
    <!-- Node * third variable -->
    <g transform="translate(344.2325 20.88)scale(0.12 -0.12)">
     <defs>
      <path id="DejaVuSans-68" d="M 3513 2113 
L 3513 0 
L 2938 0 
L 2938 2094 
Q 2938 2591 2744 2837 
Q 2550 3084 2163 3084 
Q 1697 3084 1428 2787 
Q 1159 2491 1159 1978 
L 1159 0 
L 581 0 
L 581 4863 
L 1159 4863 
L 1159 2956 
Q 1366 3272 1645 3428 
Q 1925 3584 2291 3584 
Q 2894 3584 3203 3211 
Q 3513 2838 3513 2113 
z
" transform="scale(0.015625)"/>
      <path id="DejaVuSans-62" d="M 3116 1747 
Q 3116 2381 2855 2742 
Q 2594 3103 2138 3103 
Q 1681 3103 1420 2742 
Q 1159 2381 1159 1747 
Q 1159 1113 1420 752 
Q 1681 391 2138 391 
Q 2594 391 2855 752 
Q 3116 1113 3116 1747 
z
M 1159 2969 
Q 1341 3281 1617 3432 
Q 1894 3584 2278 3584 
Q 2916 3584 3314 3078 
Q 3713 2572 3713 1747 
Q 3713 922 3314 415 
Q 2916 -91 2278 -91 
Q 1894 -91 1617 61 
Q 1341 213 1159 525 
L 1159 0 
L 581 0 
L 581 4863 
L 1159 4863 
L 1159 2969 
z
" transform="scale(0.015625)"/>
     </defs>
     <use xlink:href="#DejaVuSans-4e"/>
     <use xlink:href="#DejaVuSans-6f" x="74.804688"/>
     <use xlink:href="#DejaVuSans-64" x="135.986328"/>
     <use xlink:href="#DejaVuSans-65" x="199.462891"/>
     <use xlink:href="#DejaVuSans-20" x="260.986328"/>
     <use xlink:href="#DejaVuSans-2a" x="292.773438"/>
     <use xlink:href="#DejaVuSans-20" x="342.773438"/>
     <use xlink:href="#DejaVuSans-74" x="374.560547"/>
     <use xlink:href="#DejaVuSans-68" x="413.769531"/>
     <use xlink:href="#DejaVuSans-69" x="477.148438"/>
     <use xlink:href="#DejaVuSans-72" x="504.931641"/>
     <use xlink:href="#DejaVuSans-64" x="544.294922"/>
     <use xlink:href="#DejaVuSans-20" x="607.771484"/>
     <use xlink:href="#DejaVuSans-76" x="639.558594"/>
     <use xlink:href="#DejaVuSans-61" x="698.738281"/>
     <use xlink:href="#DejaVuSans-72" x="760.017578"/>
     <use xlink:href="#DejaVuSans-69" x="801.130859"/>
     <use xlink:href="#DejaVuSans-61" x="828.914062"/>
     <use xlink:href="#DejaVuSans-62" x="890.193359"/>
     <use xlink:href="#DejaVuSans-6c" x="953.669922"/>
     <use xlink:href="#DejaVuSans-65" x="981.453125"/>
    </g>
   </g>
   <g id="legend_1">
    <g id="line2d_31">
     <path d="M 524.56 39.978437 
L 534.56 39.978437 
L 544.56 39.978437 
" style="fill: none; stroke: #1f77b4; stroke-width: 1.5; stroke-linecap: square"/>
    </g>
    <g id="text_20">
     <!-- Node -->
     <g transform="translate(552.56 43.478437)scale(0.1 -0.1)">
      <use xlink:href="#DejaVuSans-4e"/>
      <use xlink:href="#DejaVuSans-6f" x="74.804688"/>
      <use xlink:href="#DejaVuSans-64" x="135.986328"/>
      <use xlink:href="#DejaVuSans-65" x="199.462891"/>
     </g>
    </g>
    <g id="line2d_32">
     <path d="M 524.56 54.656563 
L 534.56 54.656563 
L 544.56 54.656563 
" style="fill: none; stroke: #ff7f0e; stroke-width: 1.5; stroke-linecap: square"/>
    </g>
    <g id="text_21">
     <!-- Node + surprisal -->
     <g transform="translate(552.56 58.156563)scale(0.1 -0.1)">
      <defs>
       <path id="DejaVuSans-2b" d="M 2944 4013 
L 2944 2272 
L 4684 2272 
L 4684 1741 
L 2944 1741 
L 2944 0 
L 2419 0 
L 2419 1741 
L 678 1741 
L 678 2272 
L 2419 2272 
L 2419 4013 
L 2944 4013 
z
" transform="scale(0.015625)"/>
      </defs>
      <use xlink:href="#DejaVuSans-4e"/>
      <use xlink:href="#DejaVuSans-6f" x="74.804688"/>
      <use xlink:href="#DejaVuSans-64" x="135.986328"/>
      <use xlink:href="#DejaVuSans-65" x="199.462891"/>
      <use xlink:href="#DejaVuSans-20" x="260.986328"/>
      <use xlink:href="#DejaVuSans-2b" x="292.773438"/>
      <use xlink:href="#DejaVuSans-20" x="376.5625"/>
      <use xlink:href="#DejaVuSans-73" x="408.349609"/>
      <use xlink:href="#DejaVuSans-75" x="460.449219"/>
      <use xlink:href="#DejaVuSans-72" x="523.828125"/>
      <use xlink:href="#DejaVuSans-70" x="564.941406"/>
      <use xlink:href="#DejaVuSans-72" x="628.417969"/>
      <use xlink:href="#DejaVuSans-69" x="669.53125"/>
      <use xlink:href="#DejaVuSans-73" x="697.314453"/>
      <use xlink:href="#DejaVuSans-61" x="749.414062"/>
      <use xlink:href="#DejaVuSans-6c" x="810.693359"/>
     </g>
    </g>
    <g id="line2d_33">
     <path d="M 524.56 69.334687 
L 534.56 69.334687 
L 544.56 69.334687 
" style="fill: none; stroke: #2ca02c; stroke-width: 1.5; stroke-linecap: square"/>
    </g>
    <g id="text_22">
     <!-- Node split -->
     <g transform="translate(552.56 72.834687)scale(0.1 -0.1)">
      <use xlink:href="#DejaVuSans-4e"/>
      <use xlink:href="#DejaVuSans-6f" x="74.804688"/>
      <use xlink:href="#DejaVuSans-64" x="135.986328"/>
      <use xlink:href="#DejaVuSans-65" x="199.462891"/>
      <use xlink:href="#DejaVuSans-20" x="260.986328"/>
      <use xlink:href="#DejaVuSans-73" x="292.773438"/>
      <use xlink:href="#DejaVuSans-70" x="344.873047"/>
      <use xlink:href="#DejaVuSans-6c" x="408.349609"/>
      <use xlink:href="#DejaVuSans-69" x="436.132812"/>
      <use xlink:href="#DejaVuSans-74" x="463.916016"/>
     </g>
    </g>
    <g id="line2d_34">
     <path d="M 524.56 84.012812 
L 534.56 84.012812 
L 544.56 84.012812 
" style="fill: none; stroke: #d62728; stroke-width: 1.5; stroke-linecap: square"/>
    </g>
    <g id="text_23">
     <!-- Node split + surprisal -->
     <g transform="translate(552.56 87.512812)scale(0.1 -0.1)">
      <use xlink:href="#DejaVuSans-4e"/>
      <use xlink:href="#DejaVuSans-6f" x="74.804688"/>
      <use xlink:href="#DejaVuSans-64" x="135.986328"/>
      <use xlink:href="#DejaVuSans-65" x="199.462891"/>
      <use xlink:href="#DejaVuSans-20" x="260.986328"/>
      <use xlink:href="#DejaVuSans-73" x="292.773438"/>
      <use xlink:href="#DejaVuSans-70" x="344.873047"/>
      <use xlink:href="#DejaVuSans-6c" x="408.349609"/>
      <use xlink:href="#DejaVuSans-69" x="436.132812"/>
      <use xlink:href="#DejaVuSans-74" x="463.916016"/>
      <use xlink:href="#DejaVuSans-20" x="503.125"/>
      <use xlink:href="#DejaVuSans-2b" x="534.912109"/>
      <use xlink:href="#DejaVuSans-20" x="618.701172"/>
      <use xlink:href="#DejaVuSans-73" x="650.488281"/>
      <use xlink:href="#DejaVuSans-75" x="702.587891"/>
      <use xlink:href="#DejaVuSans-72" x="765.966797"/>
      <use xlink:href="#DejaVuSans-70" x="807.080078"/>
      <use xlink:href="#DejaVuSans-72" x="870.556641"/>
      <use xlink:href="#DejaVuSans-69" x="911.669922"/>
      <use xlink:href="#DejaVuSans-73" x="939.453125"/>
      <use xlink:href="#DejaVuSans-61" x="991.552734"/>
      <use xlink:href="#DejaVuSans-6c" x="1052.832031"/>
     </g>
    </g>
    <g id="line2d_35">
     <path d="M 524.56 98.690937 
L 534.56 98.690937 
L 544.56 98.690937 
" style="fill: none; stroke: #9467bd; stroke-width: 1.5; stroke-linecap: square"/>
    </g>
    <g id="text_24">
     <!-- Node random split -->
     <g transform="translate(552.56 102.190937)scale(0.1 -0.1)">
      <use xlink:href="#DejaVuSans-4e"/>
      <use xlink:href="#DejaVuSans-6f" x="74.804688"/>
      <use xlink:href="#DejaVuSans-64" x="135.986328"/>
      <use xlink:href="#DejaVuSans-65" x="199.462891"/>
      <use xlink:href="#DejaVuSans-20" x="260.986328"/>
      <use xlink:href="#DejaVuSans-72" x="292.773438"/>
      <use xlink:href="#DejaVuSans-61" x="333.886719"/>
      <use xlink:href="#DejaVuSans-6e" x="395.166016"/>
      <use xlink:href="#DejaVuSans-64" x="458.544922"/>
      <use xlink:href="#DejaVuSans-6f" x="522.021484"/>
      <use xlink:href="#DejaVuSans-6d" x="583.203125"/>
      <use xlink:href="#DejaVuSans-20" x="680.615234"/>
      <use xlink:href="#DejaVuSans-73" x="712.402344"/>
      <use xlink:href="#DejaVuSans-70" x="764.501953"/>
      <use xlink:href="#DejaVuSans-6c" x="827.978516"/>
      <use xlink:href="#DejaVuSans-69" x="855.761719"/>
      <use xlink:href="#DejaVuSans-74" x="883.544922"/>
     </g>
    </g>
    <g id="line2d_36">
     <path d="M 524.56 113.369062 
L 534.56 113.369062 
L 544.56 113.369062 
" style="fill: none; stroke: #8c564b; stroke-width: 1.5; stroke-linecap: square"/>
    </g>
    <g id="text_25">
     <!-- Node random split + surprisal -->
     <g transform="translate(552.56 116.869062)scale(0.1 -0.1)">
      <use xlink:href="#DejaVuSans-4e"/>
      <use xlink:href="#DejaVuSans-6f" x="74.804688"/>
      <use xlink:href="#DejaVuSans-64" x="135.986328"/>
      <use xlink:href="#DejaVuSans-65" x="199.462891"/>
      <use xlink:href="#DejaVuSans-20" x="260.986328"/>
      <use xlink:href="#DejaVuSans-72" x="292.773438"/>
      <use xlink:href="#DejaVuSans-61" x="333.886719"/>
      <use xlink:href="#DejaVuSans-6e" x="395.166016"/>
      <use xlink:href="#DejaVuSans-64" x="458.544922"/>
      <use xlink:href="#DejaVuSans-6f" x="522.021484"/>
      <use xlink:href="#DejaVuSans-6d" x="583.203125"/>
      <use xlink:href="#DejaVuSans-20" x="680.615234"/>
      <use xlink:href="#DejaVuSans-73" x="712.402344"/>
      <use xlink:href="#DejaVuSans-70" x="764.501953"/>
      <use xlink:href="#DejaVuSans-6c" x="827.978516"/>
      <use xlink:href="#DejaVuSans-69" x="855.761719"/>
      <use xlink:href="#DejaVuSans-74" x="883.544922"/>
      <use xlink:href="#DejaVuSans-20" x="922.753906"/>
      <use xlink:href="#DejaVuSans-2b" x="954.541016"/>
      <use xlink:href="#DejaVuSans-20" x="1038.330078"/>
      <use xlink:href="#DejaVuSans-73" x="1070.117188"/>
      <use xlink:href="#DejaVuSans-75" x="1122.216797"/>
      <use xlink:href="#DejaVuSans-72" x="1185.595703"/>
      <use xlink:href="#DejaVuSans-70" x="1226.708984"/>
      <use xlink:href="#DejaVuSans-72" x="1290.185547"/>
      <use xlink:href="#DejaVuSans-69" x="1331.298828"/>
      <use xlink:href="#DejaVuSans-73" x="1359.082031"/>
      <use xlink:href="#DejaVuSans-61" x="1411.181641"/>
      <use xlink:href="#DejaVuSans-6c" x="1472.460938"/>
     </g>
    </g>
    <g id="line2d_37">
     <path d="M 524.56 128.047187 
L 534.56 128.047187 
L 544.56 128.047187 
" style="fill: none; stroke: #e377c2; stroke-width: 1.5; stroke-linecap: square"/>
    </g>
    <g id="text_26">
     <!-- Interaction -->
     <g transform="translate(552.56 131.547187)scale(0.1 -0.1)">
      <use xlink:href="#DejaVuSans-49"/>
      <use xlink:href="#DejaVuSans-6e" x="29.492188"/>
      <use xlink:href="#DejaVuSans-74" x="92.871094"/>
      <use xlink:href="#DejaVuSans-65" x="132.080078"/>
      <use xlink:href="#DejaVuSans-72" x="193.603516"/>
      <use xlink:href="#DejaVuSans-61" x="234.716797"/>
      <use xlink:href="#DejaVuSans-63" x="295.996094"/>
      <use xlink:href="#DejaVuSans-74" x="350.976562"/>
      <use xlink:href="#DejaVuSans-69" x="390.185547"/>
      <use xlink:href="#DejaVuSans-6f" x="417.96875"/>
      <use xlink:href="#DejaVuSans-6e" x="479.150391"/>
     </g>
    </g>
    <g id="line2d_38">
     <path d="M 524.56 142.725312 
L 534.56 142.725312 
L 544.56 142.725312 
" style="fill: none; stroke: #7f7f7f; stroke-width: 1.5; stroke-linecap: square"/>
    </g>
    <g id="text_27">
     <!-- Node + surprisal + interaction -->
     <g transform="translate(552.56 146.225312)scale(0.1 -0.1)">
      <use xlink:href="#DejaVuSans-4e"/>
      <use xlink:href="#DejaVuSans-6f" x="74.804688"/>
      <use xlink:href="#DejaVuSans-64" x="135.986328"/>
      <use xlink:href="#DejaVuSans-65" x="199.462891"/>
      <use xlink:href="#DejaVuSans-20" x="260.986328"/>
      <use xlink:href="#DejaVuSans-2b" x="292.773438"/>
      <use xlink:href="#DejaVuSans-20" x="376.5625"/>
      <use xlink:href="#DejaVuSans-73" x="408.349609"/>
      <use xlink:href="#DejaVuSans-75" x="460.449219"/>
      <use xlink:href="#DejaVuSans-72" x="523.828125"/>
      <use xlink:href="#DejaVuSans-70" x="564.941406"/>
      <use xlink:href="#DejaVuSans-72" x="628.417969"/>
      <use xlink:href="#DejaVuSans-69" x="669.53125"/>
      <use xlink:href="#DejaVuSans-73" x="697.314453"/>
      <use xlink:href="#DejaVuSans-61" x="749.414062"/>
      <use xlink:href="#DejaVuSans-6c" x="810.693359"/>
      <use xlink:href="#DejaVuSans-20" x="838.476562"/>
      <use xlink:href="#DejaVuSans-2b" x="870.263672"/>
      <use xlink:href="#DejaVuSans-20" x="954.052734"/>
      <use xlink:href="#DejaVuSans-69" x="985.839844"/>
      <use xlink:href="#DejaVuSans-6e" x="1013.623047"/>
      <use xlink:href="#DejaVuSans-74" x="1077.001953"/>
      <use xlink:href="#DejaVuSans-65" x="1116.210938"/>
      <use xlink:href="#DejaVuSans-72" x="1177.734375"/>
      <use xlink:href="#DejaVuSans-61" x="1218.847656"/>
      <use xlink:href="#DejaVuSans-63" x="1280.126953"/>
      <use xlink:href="#DejaVuSans-74" x="1335.107422"/>
      <use xlink:href="#DejaVuSans-69" x="1374.316406"/>
      <use xlink:href="#DejaVuSans-6f" x="1402.099609"/>
      <use xlink:href="#DejaVuSans-6e" x="1463.28125"/>
     </g>
    </g>
   </g>
  </g>
 </g>
 <defs>
  <clipPath id="pe9d88f93a7">
   <rect x="47.72" y="26.88" width="217.495" height="147.16"/>
  </clipPath>
  <clipPath id="p913e5d2f66">
   <rect x="298.065" y="26.88" width="217.495" height="147.16"/>
  </clipPath>
 </defs>
</svg>
