<?xml version="1.0" encoding="utf-8" standalone="no"?>
<!DOCTYPE svg PUBLIC "-//W3C//DTD SVG 1.1//EN"
  "http://www.w3.org/Graphics/SVG/1.1/DTD/svg11.dtd">
<svg xmlns:xlink="http://www.w3.org/1999/xlink" width="720pt" height="216pt" viewBox="0 0 720 216" xmlns="http://www.w3.org/2000/svg" version="1.1">
 <metadata>
  <rdf:RDF xmlns:dc="http://purl.org/dc/elements/1.1/" xmlns:cc="http://creativecommons.org/ns#" xmlns:rdf="http://www.w3.org/1999/02/22-rdf-syntax-ns#">
   <cc:Work>
    <dc:type rdf:resource="http://purl.org/dc/dcmitype/StillImage"/>
    <dc:date>2024-01-15T22:35:45.847147</dc:date>
    <dc:format>image/svg+xml</dc:format>
    <dc:creator>
     <cc:Agent>
      <dc:title>Matplotlib v3.5.1, https://matplotlib.org/</dc:title>
     </cc:Agent>
    </dc:creator>
   </cc:Work>
  </rdf:RDF>
 </metadata>
 <defs>
  <style type="text/css">*{stroke-linejoin: round; stroke-linecap: butt}</style>
 </defs>
 <g id="figure_1">
  <g id="patch_1">
   <path d="M 0 216 
L 720 216 
L 720 0 
L 0 0 
z
" style="fill: #ffffff"/>
  </g>
  <g id="axes_1">
   <g id="patch_2">
    <path d="M 47.72 174.04 
L 265.215 174.04 
L 265.215 26.88 
L 47.72 26.88 
z
" style="fill: #ffffff"/>
   </g>
   <g id="PolyCollection_1">
    <path d="M 47.72 33.672297 
L 47.72 34.684398 
L 59.167105 36.733748 
L 70.614211 42.257651 
L 82.061316 50.194256 
L 93.508421 59.158203 
L 104.955526 70.375665 
L 116.402632 81.395113 
L 127.849737 91.531313 
L 139.296842 101.099429 
L 150.743947 109.650744 
L 162.191053 117.656874 
L 173.638158 124.304864 
L 185.085263 130.735439 
L 196.532368 136.115179 
L 207.979474 141.109139 
L 219.426579 146.395643 
L 230.873684 149.65034 
L 242.320789 153.315261 
L 253.767895 156.507866 
L 265.215 158.612779 
L 265.215 147.520502 
L 265.215 147.520502 
L 253.767895 144.318038 
L 242.320789 140.707849 
L 230.873684 137.362598 
L 219.426579 133.926022 
L 207.979474 129.745281 
L 196.532368 125.095671 
L 185.085263 119.627004 
L 173.638158 113.182937 
L 162.191053 106.44189 
L 150.743947 99.350237 
L 139.296842 90.566288 
L 127.849737 81.736389 
L 116.402632 73.3537 
L 104.955526 63.486497 
L 93.508421 54.127184 
L 82.061316 46.666246 
L 70.614211 40.280049 
L 59.167105 35.492189 
L 47.72 33.672297 
z
" clip-path="url(#pb07bf2527b)" style="fill: #1f77b4; fill-opacity: 0.4"/>
   </g>
   <g id="PolyCollection_2">
    <path d="M 47.72 33.697814 
L 47.72 34.69178 
L 59.167105 36.123982 
L 70.614211 39.155811 
L 82.061316 43.960368 
L 93.508421 50.434326 
L 104.955526 58.561442 
L 116.402632 67.01425 
L 127.849737 76.24398 
L 139.296842 85.490672 
L 150.743947 93.950122 
L 162.191053 102.277828 
L 173.638158 109.861606 
L 185.085263 116.951622 
L 196.532368 122.713296 
L 207.979474 128.459982 
L 219.426579 134.232343 
L 230.873684 138.401101 
L 242.320789 142.682978 
L 253.767895 146.812959 
L 265.215 149.40377 
L 265.215 139.377417 
L 265.215 139.377417 
L 253.767895 135.565331 
L 242.320789 130.912095 
L 230.873684 126.694176 
L 219.426579 122.32318 
L 207.979474 117.286994 
L 196.532368 111.718041 
L 185.085263 105.676161 
L 173.638158 98.818893 
L 162.191053 91.534258 
L 150.743947 84.379545 
L 139.296842 76.94371 
L 127.849737 68.535361 
L 116.402632 61.682615 
L 104.955526 53.839424 
L 93.508421 46.439287 
L 82.061316 41.713153 
L 70.614211 37.76859 
L 59.167105 34.969669 
L 47.72 33.697814 
z
" clip-path="url(#pb07bf2527b)" style="fill: #ff7f0e; fill-opacity: 0.4"/>
   </g>
   <g id="PolyCollection_3">
    <path d="M 47.72 33.696615 
L 47.72 34.702642 
L 59.167105 36.285991 
L 70.614211 38.753198 
L 82.061316 41.812952 
L 93.508421 45.859583 
L 104.955526 50.770282 
L 116.402632 55.738727 
L 127.849737 60.52346 
L 139.296842 66.299292 
L 150.743947 71.30574 
L 162.191053 75.702533 
L 173.638158 80.881162 
L 185.085263 85.356071 
L 196.532368 90.214123 
L 207.979474 94.340463 
L 219.426579 99.297567 
L 230.873684 103.694923 
L 242.320789 107.214186 
L 253.767895 111.62832 
L 265.215 114.437115 
L 265.215 106.020167 
L 265.215 106.020167 
L 253.767895 103.356887 
L 242.320789 98.523295 
L 230.873684 95.375353 
L 219.426579 91.35756 
L 207.979474 87.183699 
L 196.532368 82.926541 
L 185.085263 79.078939 
L 173.638158 74.279797 
L 162.191053 69.990038 
L 150.743947 65.101352 
L 139.296842 60.543165 
L 127.849737 56.604895 
L 116.402632 52.14212 
L 104.955526 46.945458 
L 93.508421 42.784486 
L 82.061316 39.81038 
L 70.614211 37.232965 
L 59.167105 35.092797 
L 47.72 33.696615 
z
" clip-path="url(#pb07bf2527b)" style="fill: #2ca02c; fill-opacity: 0.4"/>
   </g>
   <g id="PolyCollection_4">
    <path d="M 47.72 33.714512 
L 47.72 34.71855 
L 59.167105 36.043632 
L 70.614211 37.892814 
L 82.061316 40.384669 
L 93.508421 43.99147 
L 104.955526 48.847769 
L 116.402632 53.503403 
L 127.849737 58.438929 
L 139.296842 64.359868 
L 150.743947 69.783168 
L 162.191053 74.406179 
L 173.638158 79.929563 
L 185.085263 84.389694 
L 196.532368 89.332862 
L 207.979474 93.446104 
L 219.426579 98.254037 
L 230.873684 102.56804 
L 242.320789 105.930432 
L 253.767895 110.300758 
L 265.215 112.863991 
L 265.215 103.85982 
L 265.215 103.85982 
L 253.767895 101.475274 
L 242.320789 96.888603 
L 230.873684 93.845621 
L 219.426579 90.040879 
L 207.979474 85.792024 
L 196.532368 81.588027 
L 185.085263 77.719783 
L 173.638158 72.744544 
L 162.191053 68.483697 
L 150.743947 63.574471 
L 139.296842 59.083299 
L 127.849737 54.877719 
L 116.402632 50.403939 
L 104.955526 45.390388 
L 93.508421 41.433218 
L 82.061316 38.858536 
L 70.614211 36.639945 
L 59.167105 34.888695 
L 47.72 33.714512 
z
" clip-path="url(#pb07bf2527b)" style="fill: #d62728; fill-opacity: 0.4"/>
   </g>
   <g id="PolyCollection_5">
    <path d="M 47.72 33.683892 
L 47.72 34.701465 
L 59.167105 36.736653 
L 70.614211 42.259951 
L 82.061316 50.25863 
L 93.508421 59.212829 
L 104.955526 70.796353 
L 116.402632 81.337337 
L 127.849737 91.803463 
L 139.296842 101.755488 
L 150.743947 110.319387 
L 162.191053 117.735439 
L 173.638158 124.190567 
L 185.085263 130.934688 
L 196.532368 137.070356 
L 207.979474 141.650003 
L 219.426579 146.928161 
L 230.873684 150.663289 
L 242.320789 153.588449 
L 253.767895 158.169286 
L 265.215 159.113968 
L 265.215 147.893791 
L 265.215 147.893791 
L 253.767895 144.936226 
L 242.320789 141.016371 
L 230.873684 137.59988 
L 219.426579 135.292599 
L 207.979474 130.561374 
L 196.532368 125.158756 
L 185.085263 120.101227 
L 173.638158 113.37146 
L 162.191053 106.468564 
L 150.743947 99.325115 
L 139.296842 90.644925 
L 127.849737 82.094967 
L 116.402632 73.496083 
L 104.955526 63.555792 
L 93.508421 54.144792 
L 82.061316 46.678291 
L 70.614211 40.376135 
L 59.167105 35.510658 
L 47.72 33.683892 
z
" clip-path="url(#pb07bf2527b)" style="fill: #9467bd; fill-opacity: 0.4"/>
   </g>
   <g id="PolyCollection_6">
    <path d="M 47.72 33.711713 
L 47.72 34.708438 
L 59.167105 36.121718 
L 70.614211 39.163417 
L 82.061316 43.95945 
L 93.508421 50.487071 
L 104.955526 58.77921 
L 116.402632 66.993586 
L 127.849737 76.448598 
L 139.296842 85.799811 
L 150.743947 94.43637 
L 162.191053 102.361289 
L 173.638158 109.703144 
L 185.085263 117.131744 
L 196.532368 123.39001 
L 207.979474 128.764681 
L 219.426579 134.671009 
L 230.873684 139.413485 
L 242.320789 142.77047 
L 253.767895 148.095172 
L 265.215 149.779423 
L 265.215 139.660874 
L 265.215 139.660874 
L 253.767895 135.918602 
L 242.320789 131.142064 
L 230.873684 126.83927 
L 219.426579 123.249461 
L 207.979474 117.790175 
L 196.532368 111.991581 
L 185.085263 105.95346 
L 173.638158 98.858568 
L 162.191053 91.594703 
L 150.743947 84.488455 
L 139.296842 77.169256 
L 127.849737 68.710092 
L 116.402632 61.801852 
L 104.955526 53.988527 
L 93.508421 46.460844 
L 82.061316 41.733104 
L 70.614211 37.80755 
L 59.167105 34.983974 
L 47.72 33.711713 
z
" clip-path="url(#pb07bf2527b)" style="fill: #8c564b; fill-opacity: 0.4"/>
   </g>
   <g id="PolyCollection_7">
    <path d="M 47.72 44.122276 
L 47.72 46.867829 
L 59.167105 49.626014 
L 70.614211 55.819214 
L 82.061316 65.034549 
L 93.508421 75.790813 
L 104.955526 87.942628 
L 116.402632 99.490703 
L 127.849737 110.258842 
L 139.296842 119.816649 
L 150.743947 129.091776 
L 162.191053 135.528706 
L 173.638158 141.246184 
L 185.085263 146.137721 
L 196.532368 150.000887 
L 207.979474 153.630626 
L 219.426579 157.439576 
L 230.873684 160.017583 
L 242.320789 162.695136 
L 253.767895 165.178065 
L 265.215 167.350909 
L 265.215 158.391705 
L 265.215 158.391705 
L 253.767895 156.329815 
L 242.320789 153.651876 
L 230.873684 150.759553 
L 219.426579 148.092099 
L 207.979474 144.407621 
L 196.532368 140.023113 
L 185.085263 134.512452 
L 173.638158 128.371429 
L 162.191053 121.809548 
L 150.743947 114.612781 
L 139.296842 105.81733 
L 127.849737 97.093223 
L 116.402632 87.659745 
L 104.955526 76.789731 
L 93.508421 66.499009 
L 82.061316 58.226607 
L 70.614211 51.098368 
L 59.167105 45.786915 
L 47.72 44.122276 
z
" clip-path="url(#pb07bf2527b)" style="fill: #e377c2; fill-opacity: 0.4"/>
   </g>
   <g id="PolyCollection_8">
    <path d="M 47.72 33.702441 
L 47.72 34.704708 
L 59.167105 35.406521 
L 70.614211 35.938801 
L 82.061316 37.454119 
L 93.508421 41.168293 
L 104.955526 46.619958 
L 116.402632 53.574762 
L 127.849737 61.239489 
L 139.296842 69.883241 
L 150.743947 78.591828 
L 162.191053 87.548917 
L 173.638158 95.232695 
L 185.085263 103.478401 
L 196.532368 110.348859 
L 207.979474 116.183709 
L 219.426579 122.79197 
L 230.873684 127.58576 
L 242.320789 132.54624 
L 253.767895 136.674835 
L 265.215 140.453322 
L 265.215 133.341834 
L 265.215 133.341834 
L 253.767895 129.667975 
L 242.320789 123.864602 
L 230.873684 119.104636 
L 219.426579 113.576362 
L 207.979474 107.302271 
L 196.532368 100.345179 
L 185.085263 92.91148 
L 173.638158 84.974204 
L 162.191053 77.016476 
L 150.743947 69.013958 
L 139.296842 61.156158 
L 127.849737 53.788887 
L 116.402632 47.783024 
L 104.955526 41.741808 
L 93.508421 37.815052 
L 82.061316 35.769549 
L 70.614211 34.765692 
L 59.167105 34.407303 
L 47.72 33.702441 
z
" clip-path="url(#pb07bf2527b)" style="fill: #7f7f7f; fill-opacity: 0.4"/>
   </g>
   <g id="matplotlib.axis_1">
    <g id="xtick_1">
     <g id="line2d_1">
      <defs>
       <path id="m552998daf0" d="M 0 0 
L 0 3.5 
" style="stroke: #000000; stroke-width: 0.8"/>
      </defs>
      <g>
       <use xlink:href="#m552998daf0" x="47.72" y="174.04" style="stroke: #000000; stroke-width: 0.8"/>
      </g>
     </g>
     <g id="text_1">
      <!-- 0.0 -->
      <g transform="translate(39.768438 188.638438)scale(0.1 -0.1)">
       <defs>
        <path id="DejaVuSans-30" d="M 2034 4250 
Q 1547 4250 1301 3770 
Q 1056 3291 1056 2328 
Q 1056 1369 1301 889 
Q 1547 409 2034 409 
Q 2525 409 2770 889 
Q 3016 1369 3016 2328 
Q 3016 3291 2770 3770 
Q 2525 4250 2034 4250 
z
M 2034 4750 
Q 2819 4750 3233 4129 
Q 3647 3509 3647 2328 
Q 3647 1150 3233 529 
Q 2819 -91 2034 -91 
Q 1250 -91 836 529 
Q 422 1150 422 2328 
Q 422 3509 836 4129 
Q 1250 4750 2034 4750 
z
" transform="scale(0.015625)"/>
        <path id="DejaVuSans-2e" d="M 684 794 
L 1344 794 
L 1344 0 
L 684 0 
L 684 794 
z
" transform="scale(0.015625)"/>
       </defs>
       <use xlink:href="#DejaVuSans-30"/>
       <use xlink:href="#DejaVuSans-2e" x="63.623047"/>
       <use xlink:href="#DejaVuSans-30" x="95.410156"/>
      </g>
     </g>
    </g>
    <g id="xtick_2">
     <g id="line2d_2">
      <g>
       <use xlink:href="#m552998daf0" x="102.09375" y="174.04" style="stroke: #000000; stroke-width: 0.8"/>
      </g>
     </g>
     <g id="text_2">
      <!-- 0.5 -->
      <g transform="translate(94.142188 188.638438)scale(0.1 -0.1)">
       <defs>
        <path id="DejaVuSans-35" d="M 691 4666 
L 3169 4666 
L 3169 4134 
L 1269 4134 
L 1269 2991 
Q 1406 3038 1543 3061 
Q 1681 3084 1819 3084 
Q 2600 3084 3056 2656 
Q 3513 2228 3513 1497 
Q 3513 744 3044 326 
Q 2575 -91 1722 -91 
Q 1428 -91 1123 -41 
Q 819 9 494 109 
L 494 744 
Q 775 591 1075 516 
Q 1375 441 1709 441 
Q 2250 441 2565 725 
Q 2881 1009 2881 1497 
Q 2881 1984 2565 2268 
Q 2250 2553 1709 2553 
Q 1456 2553 1204 2497 
Q 953 2441 691 2322 
L 691 4666 
z
" transform="scale(0.015625)"/>
       </defs>
       <use xlink:href="#DejaVuSans-30"/>
       <use xlink:href="#DejaVuSans-2e" x="63.623047"/>
       <use xlink:href="#DejaVuSans-35" x="95.410156"/>
      </g>
     </g>
    </g>
    <g id="xtick_3">
     <g id="line2d_3">
      <g>
       <use xlink:href="#m552998daf0" x="156.4675" y="174.04" style="stroke: #000000; stroke-width: 0.8"/>
      </g>
     </g>
     <g id="text_3">
      <!-- 1.0 -->
      <g transform="translate(148.515938 188.638438)scale(0.1 -0.1)">
       <defs>
        <path id="DejaVuSans-31" d="M 794 531 
L 1825 531 
L 1825 4091 
L 703 3866 
L 703 4441 
L 1819 4666 
L 2450 4666 
L 2450 531 
L 3481 531 
L 3481 0 
L 794 0 
L 794 531 
z
" transform="scale(0.015625)"/>
       </defs>
       <use xlink:href="#DejaVuSans-31"/>
       <use xlink:href="#DejaVuSans-2e" x="63.623047"/>
       <use xlink:href="#DejaVuSans-30" x="95.410156"/>
      </g>
     </g>
    </g>
    <g id="xtick_4">
     <g id="line2d_4">
      <g>
       <use xlink:href="#m552998daf0" x="210.84125" y="174.04" style="stroke: #000000; stroke-width: 0.8"/>
      </g>
     </g>
     <g id="text_4">
      <!-- 1.5 -->
      <g transform="translate(202.889687 188.638438)scale(0.1 -0.1)">
       <use xlink:href="#DejaVuSans-31"/>
       <use xlink:href="#DejaVuSans-2e" x="63.623047"/>
       <use xlink:href="#DejaVuSans-35" x="95.410156"/>
      </g>
     </g>
    </g>
    <g id="xtick_5">
     <g id="line2d_5">
      <g>
       <use xlink:href="#m552998daf0" x="265.215" y="174.04" style="stroke: #000000; stroke-width: 0.8"/>
      </g>
     </g>
     <g id="text_5">
      <!-- 2.0 -->
      <g transform="translate(257.263437 188.638438)scale(0.1 -0.1)">
       <defs>
        <path id="DejaVuSans-32" d="M 1228 531 
L 3431 531 
L 3431 0 
L 469 0 
L 469 531 
Q 828 903 1448 1529 
Q 2069 2156 2228 2338 
Q 2531 2678 2651 2914 
Q 2772 3150 2772 3378 
Q 2772 3750 2511 3984 
Q 2250 4219 1831 4219 
Q 1534 4219 1204 4116 
Q 875 4013 500 3803 
L 500 4441 
Q 881 4594 1212 4672 
Q 1544 4750 1819 4750 
Q 2544 4750 2975 4387 
Q 3406 4025 3406 3419 
Q 3406 3131 3298 2873 
Q 3191 2616 2906 2266 
Q 2828 2175 2409 1742 
Q 1991 1309 1228 531 
z
" transform="scale(0.015625)"/>
       </defs>
       <use xlink:href="#DejaVuSans-32"/>
       <use xlink:href="#DejaVuSans-2e" x="63.623047"/>
       <use xlink:href="#DejaVuSans-30" x="95.410156"/>
      </g>
     </g>
    </g>
    <g id="text_6">
     <!-- Influence of surprisal (multiplication) -->
     <g transform="translate(64.320625 202.316563)scale(0.1 -0.1)">
      <defs>
       <path id="DejaVuSans-49" d="M 628 4666 
L 1259 4666 
L 1259 0 
L 628 0 
L 628 4666 
z
" transform="scale(0.015625)"/>
       <path id="DejaVuSans-6e" d="M 3513 2113 
L 3513 0 
L 2938 0 
L 2938 2094 
Q 2938 2591 2744 2837 
Q 2550 3084 2163 3084 
Q 1697 3084 1428 2787 
Q 1159 2491 1159 1978 
L 1159 0 
L 581 0 
L 581 3500 
L 1159 3500 
L 1159 2956 
Q 1366 3272 1645 3428 
Q 1925 3584 2291 3584 
Q 2894 3584 3203 3211 
Q 3513 2838 3513 2113 
z
" transform="scale(0.015625)"/>
       <path id="DejaVuSans-66" d="M 2375 4863 
L 2375 4384 
L 1825 4384 
Q 1516 4384 1395 4259 
Q 1275 4134 1275 3809 
L 1275 3500 
L 2222 3500 
L 2222 3053 
L 1275 3053 
L 1275 0 
L 697 0 
L 697 3053 
L 147 3053 
L 147 3500 
L 697 3500 
L 697 3744 
Q 697 4328 969 4595 
Q 1241 4863 1831 4863 
L 2375 4863 
z
" transform="scale(0.015625)"/>
       <path id="DejaVuSans-6c" d="M 603 4863 
L 1178 4863 
L 1178 0 
L 603 0 
L 603 4863 
z
" transform="scale(0.015625)"/>
       <path id="DejaVuSans-75" d="M 544 1381 
L 544 3500 
L 1119 3500 
L 1119 1403 
Q 1119 906 1312 657 
Q 1506 409 1894 409 
Q 2359 409 2629 706 
Q 2900 1003 2900 1516 
L 2900 3500 
L 3475 3500 
L 3475 0 
L 2900 0 
L 2900 538 
Q 2691 219 2414 64 
Q 2138 -91 1772 -91 
Q 1169 -91 856 284 
Q 544 659 544 1381 
z
M 1991 3584 
L 1991 3584 
z
" transform="scale(0.015625)"/>
       <path id="DejaVuSans-65" d="M 3597 1894 
L 3597 1613 
L 953 1613 
Q 991 1019 1311 708 
Q 1631 397 2203 397 
Q 2534 397 2845 478 
Q 3156 559 3463 722 
L 3463 178 
Q 3153 47 2828 -22 
Q 2503 -91 2169 -91 
Q 1331 -91 842 396 
Q 353 884 353 1716 
Q 353 2575 817 3079 
Q 1281 3584 2069 3584 
Q 2775 3584 3186 3129 
Q 3597 2675 3597 1894 
z
M 3022 2063 
Q 3016 2534 2758 2815 
Q 2500 3097 2075 3097 
Q 1594 3097 1305 2825 
Q 1016 2553 972 2059 
L 3022 2063 
z
" transform="scale(0.015625)"/>
       <path id="DejaVuSans-63" d="M 3122 3366 
L 3122 2828 
Q 2878 2963 2633 3030 
Q 2388 3097 2138 3097 
Q 1578 3097 1268 2742 
Q 959 2388 959 1747 
Q 959 1106 1268 751 
Q 1578 397 2138 397 
Q 2388 397 2633 464 
Q 2878 531 3122 666 
L 3122 134 
Q 2881 22 2623 -34 
Q 2366 -91 2075 -91 
Q 1284 -91 818 406 
Q 353 903 353 1747 
Q 353 2603 823 3093 
Q 1294 3584 2113 3584 
Q 2378 3584 2631 3529 
Q 2884 3475 3122 3366 
z
" transform="scale(0.015625)"/>
       <path id="DejaVuSans-20" transform="scale(0.015625)"/>
       <path id="DejaVuSans-6f" d="M 1959 3097 
Q 1497 3097 1228 2736 
Q 959 2375 959 1747 
Q 959 1119 1226 758 
Q 1494 397 1959 397 
Q 2419 397 2687 759 
Q 2956 1122 2956 1747 
Q 2956 2369 2687 2733 
Q 2419 3097 1959 3097 
z
M 1959 3584 
Q 2709 3584 3137 3096 
Q 3566 2609 3566 1747 
Q 3566 888 3137 398 
Q 2709 -91 1959 -91 
Q 1206 -91 779 398 
Q 353 888 353 1747 
Q 353 2609 779 3096 
Q 1206 3584 1959 3584 
z
" transform="scale(0.015625)"/>
       <path id="DejaVuSans-73" d="M 2834 3397 
L 2834 2853 
Q 2591 2978 2328 3040 
Q 2066 3103 1784 3103 
Q 1356 3103 1142 2972 
Q 928 2841 928 2578 
Q 928 2378 1081 2264 
Q 1234 2150 1697 2047 
L 1894 2003 
Q 2506 1872 2764 1633 
Q 3022 1394 3022 966 
Q 3022 478 2636 193 
Q 2250 -91 1575 -91 
Q 1294 -91 989 -36 
Q 684 19 347 128 
L 347 722 
Q 666 556 975 473 
Q 1284 391 1588 391 
Q 1994 391 2212 530 
Q 2431 669 2431 922 
Q 2431 1156 2273 1281 
Q 2116 1406 1581 1522 
L 1381 1569 
Q 847 1681 609 1914 
Q 372 2147 372 2553 
Q 372 3047 722 3315 
Q 1072 3584 1716 3584 
Q 2034 3584 2315 3537 
Q 2597 3491 2834 3397 
z
" transform="scale(0.015625)"/>
       <path id="DejaVuSans-72" d="M 2631 2963 
Q 2534 3019 2420 3045 
Q 2306 3072 2169 3072 
Q 1681 3072 1420 2755 
Q 1159 2438 1159 1844 
L 1159 0 
L 581 0 
L 581 3500 
L 1159 3500 
L 1159 2956 
Q 1341 3275 1631 3429 
Q 1922 3584 2338 3584 
Q 2397 3584 2469 3576 
Q 2541 3569 2628 3553 
L 2631 2963 
z
" transform="scale(0.015625)"/>
       <path id="DejaVuSans-70" d="M 1159 525 
L 1159 -1331 
L 581 -1331 
L 581 3500 
L 1159 3500 
L 1159 2969 
Q 1341 3281 1617 3432 
Q 1894 3584 2278 3584 
Q 2916 3584 3314 3078 
Q 3713 2572 3713 1747 
Q 3713 922 3314 415 
Q 2916 -91 2278 -91 
Q 1894 -91 1617 61 
Q 1341 213 1159 525 
z
M 3116 1747 
Q 3116 2381 2855 2742 
Q 2594 3103 2138 3103 
Q 1681 3103 1420 2742 
Q 1159 2381 1159 1747 
Q 1159 1113 1420 752 
Q 1681 391 2138 391 
Q 2594 391 2855 752 
Q 3116 1113 3116 1747 
z
" transform="scale(0.015625)"/>
       <path id="DejaVuSans-69" d="M 603 3500 
L 1178 3500 
L 1178 0 
L 603 0 
L 603 3500 
z
M 603 4863 
L 1178 4863 
L 1178 4134 
L 603 4134 
L 603 4863 
z
" transform="scale(0.015625)"/>
       <path id="DejaVuSans-61" d="M 2194 1759 
Q 1497 1759 1228 1600 
Q 959 1441 959 1056 
Q 959 750 1161 570 
Q 1363 391 1709 391 
Q 2188 391 2477 730 
Q 2766 1069 2766 1631 
L 2766 1759 
L 2194 1759 
z
M 3341 1997 
L 3341 0 
L 2766 0 
L 2766 531 
Q 2569 213 2275 61 
Q 1981 -91 1556 -91 
Q 1019 -91 701 211 
Q 384 513 384 1019 
Q 384 1609 779 1909 
Q 1175 2209 1959 2209 
L 2766 2209 
L 2766 2266 
Q 2766 2663 2505 2880 
Q 2244 3097 1772 3097 
Q 1472 3097 1187 3025 
Q 903 2953 641 2809 
L 641 3341 
Q 956 3463 1253 3523 
Q 1550 3584 1831 3584 
Q 2591 3584 2966 3190 
Q 3341 2797 3341 1997 
z
" transform="scale(0.015625)"/>
       <path id="DejaVuSans-28" d="M 1984 4856 
Q 1566 4138 1362 3434 
Q 1159 2731 1159 2009 
Q 1159 1288 1364 580 
Q 1569 -128 1984 -844 
L 1484 -844 
Q 1016 -109 783 600 
Q 550 1309 550 2009 
Q 550 2706 781 3412 
Q 1013 4119 1484 4856 
L 1984 4856 
z
" transform="scale(0.015625)"/>
       <path id="DejaVuSans-6d" d="M 3328 2828 
Q 3544 3216 3844 3400 
Q 4144 3584 4550 3584 
Q 5097 3584 5394 3201 
Q 5691 2819 5691 2113 
L 5691 0 
L 5113 0 
L 5113 2094 
Q 5113 2597 4934 2840 
Q 4756 3084 4391 3084 
Q 3944 3084 3684 2787 
Q 3425 2491 3425 1978 
L 3425 0 
L 2847 0 
L 2847 2094 
Q 2847 2600 2669 2842 
Q 2491 3084 2119 3084 
Q 1678 3084 1418 2786 
Q 1159 2488 1159 1978 
L 1159 0 
L 581 0 
L 581 3500 
L 1159 3500 
L 1159 2956 
Q 1356 3278 1631 3431 
Q 1906 3584 2284 3584 
Q 2666 3584 2933 3390 
Q 3200 3197 3328 2828 
z
" transform="scale(0.015625)"/>
       <path id="DejaVuSans-74" d="M 1172 4494 
L 1172 3500 
L 2356 3500 
L 2356 3053 
L 1172 3053 
L 1172 1153 
Q 1172 725 1289 603 
Q 1406 481 1766 481 
L 2356 481 
L 2356 0 
L 1766 0 
Q 1100 0 847 248 
Q 594 497 594 1153 
L 594 3053 
L 172 3053 
L 172 3500 
L 594 3500 
L 594 4494 
L 1172 4494 
z
" transform="scale(0.015625)"/>
       <path id="DejaVuSans-29" d="M 513 4856 
L 1013 4856 
Q 1481 4119 1714 3412 
Q 1947 2706 1947 2009 
Q 1947 1309 1714 600 
Q 1481 -109 1013 -844 
L 513 -844 
Q 928 -128 1133 580 
Q 1338 1288 1338 2009 
Q 1338 2731 1133 3434 
Q 928 4138 513 4856 
z
" transform="scale(0.015625)"/>
      </defs>
      <use xlink:href="#DejaVuSans-49"/>
      <use xlink:href="#DejaVuSans-6e" x="29.492188"/>
      <use xlink:href="#DejaVuSans-66" x="92.871094"/>
      <use xlink:href="#DejaVuSans-6c" x="128.076172"/>
      <use xlink:href="#DejaVuSans-75" x="155.859375"/>
      <use xlink:href="#DejaVuSans-65" x="219.238281"/>
      <use xlink:href="#DejaVuSans-6e" x="280.761719"/>
      <use xlink:href="#DejaVuSans-63" x="344.140625"/>
      <use xlink:href="#DejaVuSans-65" x="399.121094"/>
      <use xlink:href="#DejaVuSans-20" x="460.644531"/>
      <use xlink:href="#DejaVuSans-6f" x="492.431641"/>
      <use xlink:href="#DejaVuSans-66" x="553.613281"/>
      <use xlink:href="#DejaVuSans-20" x="588.818359"/>
      <use xlink:href="#DejaVuSans-73" x="620.605469"/>
      <use xlink:href="#DejaVuSans-75" x="672.705078"/>
      <use xlink:href="#DejaVuSans-72" x="736.083984"/>
      <use xlink:href="#DejaVuSans-70" x="777.197266"/>
      <use xlink:href="#DejaVuSans-72" x="840.673828"/>
      <use xlink:href="#DejaVuSans-69" x="881.787109"/>
      <use xlink:href="#DejaVuSans-73" x="909.570312"/>
      <use xlink:href="#DejaVuSans-61" x="961.669922"/>
      <use xlink:href="#DejaVuSans-6c" x="1022.949219"/>
      <use xlink:href="#DejaVuSans-20" x="1050.732422"/>
      <use xlink:href="#DejaVuSans-28" x="1082.519531"/>
      <use xlink:href="#DejaVuSans-6d" x="1121.533203"/>
      <use xlink:href="#DejaVuSans-75" x="1218.945312"/>
      <use xlink:href="#DejaVuSans-6c" x="1282.324219"/>
      <use xlink:href="#DejaVuSans-74" x="1310.107422"/>
      <use xlink:href="#DejaVuSans-69" x="1349.316406"/>
      <use xlink:href="#DejaVuSans-70" x="1377.099609"/>
      <use xlink:href="#DejaVuSans-6c" x="1440.576172"/>
      <use xlink:href="#DejaVuSans-69" x="1468.359375"/>
      <use xlink:href="#DejaVuSans-63" x="1496.142578"/>
      <use xlink:href="#DejaVuSans-61" x="1551.123047"/>
      <use xlink:href="#DejaVuSans-74" x="1612.402344"/>
      <use xlink:href="#DejaVuSans-69" x="1651.611328"/>
      <use xlink:href="#DejaVuSans-6f" x="1679.394531"/>
      <use xlink:href="#DejaVuSans-6e" x="1740.576172"/>
      <use xlink:href="#DejaVuSans-29" x="1803.955078"/>
     </g>
    </g>
   </g>
   <g id="matplotlib.axis_2">
    <g id="ytick_1">
     <g id="line2d_6">
      <defs>
       <path id="m0df9b6dd40" d="M 0 0 
L -3.5 0 
" style="stroke: #000000; stroke-width: 0.8"/>
      </defs>
      <g>
       <use xlink:href="#m0df9b6dd40" x="47.72" y="153.989745" style="stroke: #000000; stroke-width: 0.8"/>
      </g>
     </g>
     <g id="text_7">
      <!-- 0.2 -->
      <g transform="translate(24.816875 157.788964)scale(0.1 -0.1)">
       <use xlink:href="#DejaVuSans-30"/>
       <use xlink:href="#DejaVuSans-2e" x="63.623047"/>
       <use xlink:href="#DejaVuSans-32" x="95.410156"/>
      </g>
     </g>
    </g>
    <g id="ytick_2">
     <g id="line2d_7">
      <g>
       <use xlink:href="#m0df9b6dd40" x="47.72" y="121.820337" style="stroke: #000000; stroke-width: 0.8"/>
      </g>
     </g>
     <g id="text_8">
      <!-- 0.4 -->
      <g transform="translate(24.816875 125.619556)scale(0.1 -0.1)">
       <defs>
        <path id="DejaVuSans-34" d="M 2419 4116 
L 825 1625 
L 2419 1625 
L 2419 4116 
z
M 2253 4666 
L 3047 4666 
L 3047 1625 
L 3713 1625 
L 3713 1100 
L 3047 1100 
L 3047 0 
L 2419 0 
L 2419 1100 
L 313 1100 
L 313 1709 
L 2253 4666 
z
" transform="scale(0.015625)"/>
       </defs>
       <use xlink:href="#DejaVuSans-30"/>
       <use xlink:href="#DejaVuSans-2e" x="63.623047"/>
       <use xlink:href="#DejaVuSans-34" x="95.410156"/>
      </g>
     </g>
    </g>
    <g id="ytick_3">
     <g id="line2d_8">
      <g>
       <use xlink:href="#m0df9b6dd40" x="47.72" y="89.650928" style="stroke: #000000; stroke-width: 0.8"/>
      </g>
     </g>
     <g id="text_9">
      <!-- 0.6 -->
      <g transform="translate(24.816875 93.450147)scale(0.1 -0.1)">
       <defs>
        <path id="DejaVuSans-36" d="M 2113 2584 
Q 1688 2584 1439 2293 
Q 1191 2003 1191 1497 
Q 1191 994 1439 701 
Q 1688 409 2113 409 
Q 2538 409 2786 701 
Q 3034 994 3034 1497 
Q 3034 2003 2786 2293 
Q 2538 2584 2113 2584 
z
M 3366 4563 
L 3366 3988 
Q 3128 4100 2886 4159 
Q 2644 4219 2406 4219 
Q 1781 4219 1451 3797 
Q 1122 3375 1075 2522 
Q 1259 2794 1537 2939 
Q 1816 3084 2150 3084 
Q 2853 3084 3261 2657 
Q 3669 2231 3669 1497 
Q 3669 778 3244 343 
Q 2819 -91 2113 -91 
Q 1303 -91 875 529 
Q 447 1150 447 2328 
Q 447 3434 972 4092 
Q 1497 4750 2381 4750 
Q 2619 4750 2861 4703 
Q 3103 4656 3366 4563 
z
" transform="scale(0.015625)"/>
       </defs>
       <use xlink:href="#DejaVuSans-30"/>
       <use xlink:href="#DejaVuSans-2e" x="63.623047"/>
       <use xlink:href="#DejaVuSans-36" x="95.410156"/>
      </g>
     </g>
    </g>
    <g id="ytick_4">
     <g id="line2d_9">
      <g>
       <use xlink:href="#m0df9b6dd40" x="47.72" y="57.48152" style="stroke: #000000; stroke-width: 0.8"/>
      </g>
     </g>
     <g id="text_10">
      <!-- 0.8 -->
      <g transform="translate(24.816875 61.280739)scale(0.1 -0.1)">
       <defs>
        <path id="DejaVuSans-38" d="M 2034 2216 
Q 1584 2216 1326 1975 
Q 1069 1734 1069 1313 
Q 1069 891 1326 650 
Q 1584 409 2034 409 
Q 2484 409 2743 651 
Q 3003 894 3003 1313 
Q 3003 1734 2745 1975 
Q 2488 2216 2034 2216 
z
M 1403 2484 
Q 997 2584 770 2862 
Q 544 3141 544 3541 
Q 544 4100 942 4425 
Q 1341 4750 2034 4750 
Q 2731 4750 3128 4425 
Q 3525 4100 3525 3541 
Q 3525 3141 3298 2862 
Q 3072 2584 2669 2484 
Q 3125 2378 3379 2068 
Q 3634 1759 3634 1313 
Q 3634 634 3220 271 
Q 2806 -91 2034 -91 
Q 1263 -91 848 271 
Q 434 634 434 1313 
Q 434 1759 690 2068 
Q 947 2378 1403 2484 
z
M 1172 3481 
Q 1172 3119 1398 2916 
Q 1625 2713 2034 2713 
Q 2441 2713 2670 2916 
Q 2900 3119 2900 3481 
Q 2900 3844 2670 4047 
Q 2441 4250 2034 4250 
Q 1625 4250 1398 4047 
Q 1172 3844 1172 3481 
z
" transform="scale(0.015625)"/>
       </defs>
       <use xlink:href="#DejaVuSans-30"/>
       <use xlink:href="#DejaVuSans-2e" x="63.623047"/>
       <use xlink:href="#DejaVuSans-38" x="95.410156"/>
      </g>
     </g>
    </g>
    <g id="text_11">
     <!-- R-value -->
     <g transform="translate(18.737188 119.064687)rotate(-90)scale(0.1 -0.1)">
      <defs>
       <path id="DejaVuSans-52" d="M 2841 2188 
Q 3044 2119 3236 1894 
Q 3428 1669 3622 1275 
L 4263 0 
L 3584 0 
L 2988 1197 
Q 2756 1666 2539 1819 
Q 2322 1972 1947 1972 
L 1259 1972 
L 1259 0 
L 628 0 
L 628 4666 
L 2053 4666 
Q 2853 4666 3247 4331 
Q 3641 3997 3641 3322 
Q 3641 2881 3436 2590 
Q 3231 2300 2841 2188 
z
M 1259 4147 
L 1259 2491 
L 2053 2491 
Q 2509 2491 2742 2702 
Q 2975 2913 2975 3322 
Q 2975 3731 2742 3939 
Q 2509 4147 2053 4147 
L 1259 4147 
z
" transform="scale(0.015625)"/>
       <path id="DejaVuSans-2d" d="M 313 2009 
L 1997 2009 
L 1997 1497 
L 313 1497 
L 313 2009 
z
" transform="scale(0.015625)"/>
       <path id="DejaVuSans-76" d="M 191 3500 
L 800 3500 
L 1894 563 
L 2988 3500 
L 3597 3500 
L 2284 0 
L 1503 0 
L 191 3500 
z
" transform="scale(0.015625)"/>
      </defs>
      <use xlink:href="#DejaVuSans-52"/>
      <use xlink:href="#DejaVuSans-2d" x="65.482422"/>
      <use xlink:href="#DejaVuSans-76" x="98.941406"/>
      <use xlink:href="#DejaVuSans-61" x="158.121094"/>
      <use xlink:href="#DejaVuSans-6c" x="219.400391"/>
      <use xlink:href="#DejaVuSans-75" x="247.183594"/>
      <use xlink:href="#DejaVuSans-65" x="310.5625"/>
     </g>
    </g>
   </g>
   <g id="line2d_10">
    <path d="M 47.72 34.178348 
L 59.167105 36.112968 
L 70.614211 41.26885 
L 82.061316 48.430251 
L 93.508421 56.642694 
L 104.955526 66.931081 
L 116.402632 77.374407 
L 127.849737 86.633851 
L 139.296842 95.832858 
L 150.743947 104.50049 
L 162.191053 112.049382 
L 173.638158 118.7439 
L 185.085263 125.181221 
L 196.532368 130.605425 
L 207.979474 135.42721 
L 219.426579 140.160833 
L 230.873684 143.506469 
L 242.320789 147.011555 
L 253.767895 150.412952 
L 265.215 153.066641 
" clip-path="url(#pb07bf2527b)" style="fill: none; stroke: #1f77b4; stroke-width: 1.5; stroke-linecap: square"/>
   </g>
   <g id="line2d_11">
    <path d="M 47.72 34.194797 
L 59.167105 35.546825 
L 70.614211 38.4622 
L 82.061316 42.836761 
L 93.508421 48.436807 
L 104.955526 56.200433 
L 116.402632 64.348433 
L 127.849737 72.389671 
L 139.296842 81.217191 
L 150.743947 89.164834 
L 162.191053 96.906043 
L 173.638158 104.34025 
L 185.085263 111.313891 
L 196.532368 117.215668 
L 207.979474 122.873488 
L 219.426579 128.277761 
L 230.873684 132.547638 
L 242.320789 136.797536 
L 253.767895 141.189145 
L 265.215 144.390593 
" clip-path="url(#pb07bf2527b)" style="fill: none; stroke: #ff7f0e; stroke-width: 1.5; stroke-linecap: square"/>
   </g>
   <g id="line2d_12">
    <path d="M 47.72 34.199629 
L 59.167105 35.689394 
L 70.614211 37.993082 
L 82.061316 40.811666 
L 93.508421 44.322034 
L 104.955526 48.85787 
L 116.402632 53.940423 
L 127.849737 58.564177 
L 139.296842 63.421229 
L 150.743947 68.203546 
L 162.191053 72.846285 
L 173.638158 77.58048 
L 185.085263 82.217505 
L 196.532368 86.570332 
L 207.979474 90.762081 
L 219.426579 95.327563 
L 230.873684 99.535138 
L 242.320789 102.868741 
L 253.767895 107.492603 
L 265.215 110.228641 
" clip-path="url(#pb07bf2527b)" style="fill: none; stroke: #2ca02c; stroke-width: 1.5; stroke-linecap: square"/>
   </g>
   <g id="line2d_13">
    <path d="M 47.72 34.216531 
L 59.167105 35.466164 
L 70.614211 37.26638 
L 82.061316 39.621603 
L 93.508421 42.712344 
L 104.955526 47.119078 
L 116.402632 51.953671 
L 127.849737 56.658324 
L 139.296842 61.721584 
L 150.743947 66.678819 
L 162.191053 71.444938 
L 173.638158 76.337053 
L 185.085263 81.054739 
L 196.532368 85.460445 
L 207.979474 89.619064 
L 219.426579 94.147458 
L 230.873684 98.206831 
L 242.320789 101.409518 
L 253.767895 105.888016 
L 265.215 108.361906 
" clip-path="url(#pb07bf2527b)" style="fill: none; stroke: #d62728; stroke-width: 1.5; stroke-linecap: square"/>
   </g>
   <g id="line2d_14">
    <path d="M 47.72 34.192678 
L 59.167105 36.123655 
L 70.614211 41.318043 
L 82.061316 48.46846 
L 93.508421 56.678811 
L 104.955526 67.176072 
L 116.402632 77.41671 
L 127.849737 86.949215 
L 139.296842 96.200206 
L 150.743947 104.822251 
L 162.191053 112.102001 
L 173.638158 118.781014 
L 185.085263 125.517958 
L 196.532368 131.114556 
L 207.979474 136.105689 
L 219.426579 141.11038 
L 230.873684 144.131585 
L 242.320789 147.30241 
L 253.767895 151.552756 
L 265.215 153.503879 
" clip-path="url(#pb07bf2527b)" style="fill: none; stroke: #9467bd; stroke-width: 1.5; stroke-linecap: square"/>
   </g>
   <g id="line2d_15">
    <path d="M 47.72 34.210075 
L 59.167105 35.552846 
L 70.614211 38.485483 
L 82.061316 42.846277 
L 93.508421 48.473958 
L 104.955526 56.383868 
L 116.402632 64.397719 
L 127.849737 72.579345 
L 139.296842 81.484534 
L 150.743947 89.462413 
L 162.191053 96.977996 
L 173.638158 104.280856 
L 185.085263 111.542602 
L 196.532368 117.690795 
L 207.979474 123.277428 
L 219.426579 128.960235 
L 230.873684 133.126378 
L 242.320789 136.956267 
L 253.767895 142.006887 
L 265.215 144.720148 
" clip-path="url(#pb07bf2527b)" style="fill: none; stroke: #8c564b; stroke-width: 1.5; stroke-linecap: square"/>
   </g>
   <g id="line2d_16">
    <path d="M 47.72 45.495053 
L 59.167105 47.706465 
L 70.614211 53.458791 
L 82.061316 61.630578 
L 93.508421 71.144911 
L 104.955526 82.366179 
L 116.402632 93.575224 
L 127.849737 103.676033 
L 139.296842 112.816989 
L 150.743947 121.852279 
L 162.191053 128.669127 
L 173.638158 134.808806 
L 185.085263 140.325086 
L 196.532368 145.012 
L 207.979474 149.019124 
L 219.426579 152.765838 
L 230.873684 155.388568 
L 242.320789 158.173506 
L 253.767895 160.75394 
L 265.215 162.871307 
" clip-path="url(#pb07bf2527b)" style="fill: none; stroke: #e377c2; stroke-width: 1.5; stroke-linecap: square"/>
   </g>
   <g id="line2d_17">
    <path d="M 47.72 34.203574 
L 59.167105 34.906912 
L 70.614211 35.352247 
L 82.061316 36.611834 
L 93.508421 39.491672 
L 104.955526 44.180883 
L 116.402632 50.678893 
L 127.849737 57.514188 
L 139.296842 65.5197 
L 150.743947 73.802893 
L 162.191053 82.282696 
L 173.638158 90.103449 
L 185.085263 98.19494 
L 196.532368 105.347019 
L 207.979474 111.74299 
L 219.426579 118.184166 
L 230.873684 123.345198 
L 242.320789 128.205421 
L 253.767895 133.171405 
L 265.215 136.897578 
" clip-path="url(#pb07bf2527b)" style="fill: none; stroke: #7f7f7f; stroke-width: 1.5; stroke-linecap: square"/>
   </g>
   <g id="patch_3">
    <path d="M 47.72 174.04 
L 47.72 26.88 
" style="fill: none; stroke: #000000; stroke-width: 0.8; stroke-linejoin: miter; stroke-linecap: square"/>
   </g>
   <g id="patch_4">
    <path d="M 47.72 174.04 
L 265.215 174.04 
" style="fill: none; stroke: #000000; stroke-width: 0.8; stroke-linejoin: miter; stroke-linecap: square"/>
   </g>
   <g id="text_12">
    <!-- Node * surprisal -->
    <g transform="translate(108.18625 20.88)scale(0.12 -0.12)">
     <defs>
      <path id="DejaVuSans-4e" d="M 628 4666 
L 1478 4666 
L 3547 763 
L 3547 4666 
L 4159 4666 
L 4159 0 
L 3309 0 
L 1241 3903 
L 1241 0 
L 628 0 
L 628 4666 
z
" transform="scale(0.015625)"/>
      <path id="DejaVuSans-64" d="M 2906 2969 
L 2906 4863 
L 3481 4863 
L 3481 0 
L 2906 0 
L 2906 525 
Q 2725 213 2448 61 
Q 2172 -91 1784 -91 
Q 1150 -91 751 415 
Q 353 922 353 1747 
Q 353 2572 751 3078 
Q 1150 3584 1784 3584 
Q 2172 3584 2448 3432 
Q 2725 3281 2906 2969 
z
M 947 1747 
Q 947 1113 1208 752 
Q 1469 391 1925 391 
Q 2381 391 2643 752 
Q 2906 1113 2906 1747 
Q 2906 2381 2643 2742 
Q 2381 3103 1925 3103 
Q 1469 3103 1208 2742 
Q 947 2381 947 1747 
z
" transform="scale(0.015625)"/>
      <path id="DejaVuSans-2a" d="M 3009 3897 
L 1888 3291 
L 3009 2681 
L 2828 2375 
L 1778 3009 
L 1778 1831 
L 1422 1831 
L 1422 3009 
L 372 2375 
L 191 2681 
L 1313 3291 
L 191 3897 
L 372 4206 
L 1422 3572 
L 1422 4750 
L 1778 4750 
L 1778 3572 
L 2828 4206 
L 3009 3897 
z
" transform="scale(0.015625)"/>
     </defs>
     <use xlink:href="#DejaVuSans-4e"/>
     <use xlink:href="#DejaVuSans-6f" x="74.804688"/>
     <use xlink:href="#DejaVuSans-64" x="135.986328"/>
     <use xlink:href="#DejaVuSans-65" x="199.462891"/>
     <use xlink:href="#DejaVuSans-20" x="260.986328"/>
     <use xlink:href="#DejaVuSans-2a" x="292.773438"/>
     <use xlink:href="#DejaVuSans-20" x="342.773438"/>
     <use xlink:href="#DejaVuSans-73" x="374.560547"/>
     <use xlink:href="#DejaVuSans-75" x="426.660156"/>
     <use xlink:href="#DejaVuSans-72" x="490.039062"/>
     <use xlink:href="#DejaVuSans-70" x="531.152344"/>
     <use xlink:href="#DejaVuSans-72" x="594.628906"/>
     <use xlink:href="#DejaVuSans-69" x="635.742188"/>
     <use xlink:href="#DejaVuSans-73" x="663.525391"/>
     <use xlink:href="#DejaVuSans-61" x="715.625"/>
     <use xlink:href="#DejaVuSans-6c" x="776.904297"/>
    </g>
   </g>
  </g>
  <g id="axes_2">
   <g id="patch_5">
    <path d="M 298.065 174.04 
L 515.56 174.04 
L 515.56 26.88 
L 298.065 26.88 
z
" style="fill: #ffffff"/>
   </g>
   <g id="PolyCollection_9">
    <path d="M 298.065 33.571339 
L 298.065 34.777639 
L 309.512105 36.48915 
L 320.959211 42.341121 
L 332.406316 50.394336 
L 343.853421 60.435309 
L 355.300526 70.959206 
L 366.747632 81.705276 
L 378.194737 92.324211 
L 389.641842 102.54524 
L 401.088947 111.286681 
L 412.536053 118.963614 
L 423.983158 126.984184 
L 435.430263 132.299556 
L 446.877368 138.952376 
L 458.324474 142.69639 
L 469.771579 146.765507 
L 481.218684 151.237609 
L 492.665789 153.789345 
L 504.112895 156.91867 
L 515.56 159.355236 
L 515.56 147.461461 
L 515.56 147.461461 
L 504.112895 144.484887 
L 492.665789 141.213035 
L 481.218684 137.368197 
L 469.771579 133.853357 
L 458.324474 129.272152 
L 446.877368 124.830909 
L 435.430263 118.763763 
L 423.983158 112.875461 
L 412.536053 106.157818 
L 401.088947 98.153713 
L 389.641842 90.810631 
L 378.194737 81.967786 
L 366.747632 73.868396 
L 355.300526 64.354101 
L 343.853421 54.972651 
L 332.406316 46.76126 
L 320.959211 40.814592 
L 309.512105 35.413945 
L 298.065 33.571339 
z
" clip-path="url(#p4270cc1c0a)" style="fill: #1f77b4; fill-opacity: 0.4"/>
   </g>
   <g id="PolyCollection_10">
    <path d="M 298.065 33.585873 
L 298.065 34.792787 
L 309.512105 36.4972 
L 320.959211 42.351192 
L 332.406316 50.409896 
L 343.853421 60.497431 
L 355.300526 71.008231 
L 366.747632 81.812637 
L 378.194737 92.427164 
L 389.641842 102.592064 
L 401.088947 111.371629 
L 412.536053 118.990141 
L 423.983158 126.995537 
L 435.430263 132.263638 
L 446.877368 139.093346 
L 458.324474 142.739017 
L 469.771579 146.962209 
L 481.218684 151.476666 
L 492.665789 154.073133 
L 504.112895 157.238439 
L 515.56 159.592984 
L 515.56 147.631043 
L 515.56 147.631043 
L 504.112895 144.409269 
L 492.665789 141.449582 
L 481.218684 137.663509 
L 469.771579 134.241614 
L 458.324474 129.77549 
L 446.877368 125.306893 
L 435.430263 119.331988 
L 423.983158 113.352182 
L 412.536053 106.578862 
L 401.088947 98.531631 
L 389.641842 91.068518 
L 378.194737 82.206703 
L 366.747632 74.001876 
L 355.300526 64.454701 
L 343.853421 55.03009 
L 332.406316 46.827104 
L 320.959211 40.837372 
L 309.512105 35.424626 
L 298.065 33.585873 
z
" clip-path="url(#p4270cc1c0a)" style="fill: #ff7f0e; fill-opacity: 0.4"/>
   </g>
   <g id="PolyCollection_11">
    <path d="M 298.065 33.585977 
L 298.065 34.791035 
L 309.512105 36.512498 
L 320.959211 42.379773 
L 332.406316 50.425887 
L 343.853421 60.470734 
L 355.300526 71.008231 
L 366.747632 81.753752 
L 378.194737 92.293853 
L 389.641842 102.536205 
L 401.088947 111.112625 
L 412.536053 118.84494 
L 423.983158 126.926727 
L 435.430263 132.255961 
L 446.877368 138.961625 
L 458.324474 142.805921 
L 469.771579 147.162114 
L 481.218684 151.59178 
L 492.665789 154.202067 
L 504.112895 157.508144 
L 515.56 160.102429 
L 515.56 148.298047 
L 515.56 148.298047 
L 504.112895 145.451711 
L 492.665789 142.298083 
L 481.218684 138.374128 
L 469.771579 135.043881 
L 458.324474 130.497771 
L 446.877368 125.923152 
L 435.430263 120.009389 
L 423.983158 113.892376 
L 412.536053 107.134521 
L 401.088947 98.841634 
L 389.641842 91.199081 
L 378.194737 82.272618 
L 366.747632 74.020733 
L 355.300526 64.376014 
L 343.853421 54.937738 
L 332.406316 46.752599 
L 320.959211 40.807522 
L 309.512105 35.430099 
L 298.065 33.585977 
z
" clip-path="url(#p4270cc1c0a)" style="fill: #2ca02c; fill-opacity: 0.4"/>
   </g>
   <g id="PolyCollection_12">
    <path d="M 298.065 33.600858 
L 298.065 34.808638 
L 309.512105 36.51618 
L 320.959211 42.39756 
L 332.406316 50.458787 
L 343.853421 60.55744 
L 355.300526 71.096391 
L 366.747632 81.91278 
L 378.194737 92.463549 
L 389.641842 102.686286 
L 401.088947 111.318784 
L 412.536053 119.00708 
L 423.983158 127.084766 
L 435.430263 132.380353 
L 446.877368 139.267136 
L 458.324474 143.058947 
L 469.771579 147.415469 
L 481.218684 151.925739 
L 492.665789 154.553787 
L 504.112895 157.857008 
L 515.56 160.293018 
L 515.56 148.282543 
L 515.56 148.282543 
L 504.112895 145.183108 
L 492.665789 142.158607 
L 481.218684 138.274972 
L 469.771579 134.954172 
L 458.324474 130.498729 
L 446.877368 126.018029 
L 435.430263 120.070819 
L 423.983158 113.959485 
L 412.536053 107.179659 
L 401.088947 99.005295 
L 389.641842 91.344628 
L 378.194737 82.418748 
L 366.747632 74.151211 
L 355.300526 64.45257 
L 343.853421 55.007744 
L 332.406316 46.810354 
L 320.959211 40.82226 
L 309.512105 35.438406 
L 298.065 33.600858 
z
" clip-path="url(#p4270cc1c0a)" style="fill: #d62728; fill-opacity: 0.4"/>
   </g>
   <g id="PolyCollection_13">
    <path d="M 298.065 33.569091 
L 298.065 34.797602 
L 309.512105 36.510554 
L 320.959211 42.354037 
L 332.406316 50.613373 
L 343.853421 60.435864 
L 355.300526 71.183287 
L 366.747632 82.035363 
L 378.194737 92.707917 
L 389.641842 102.747276 
L 401.088947 111.00044 
L 412.536053 119.420491 
L 423.983158 127.352996 
L 435.430263 132.657927 
L 446.877368 139.712425 
L 458.324474 142.350024 
L 469.771579 147.777873 
L 481.218684 152.714454 
L 492.665789 154.028225 
L 504.112895 157.974463 
L 515.56 158.661895 
L 515.56 148.26073 
L 515.56 148.26073 
L 504.112895 144.494874 
L 492.665789 141.840058 
L 481.218684 138.015488 
L 469.771579 135.21816 
L 458.324474 128.785869 
L 446.877368 125.049122 
L 435.430263 119.291174 
L 423.983158 113.654559 
L 412.536053 106.268429 
L 401.088947 98.288908 
L 389.641842 90.659514 
L 378.194737 82.112441 
L 366.747632 74.042235 
L 355.300526 64.457941 
L 343.853421 54.981835 
L 332.406316 46.723862 
L 320.959211 40.813513 
L 309.512105 35.442308 
L 298.065 33.569091 
z
" clip-path="url(#p4270cc1c0a)" style="fill: #9467bd; fill-opacity: 0.4"/>
   </g>
   <g id="PolyCollection_14">
    <path d="M 298.065 33.584752 
L 298.065 34.813372 
L 309.512105 36.521327 
L 320.959211 42.365377 
L 332.406316 50.631543 
L 343.853421 60.500442 
L 355.300526 71.22534 
L 366.747632 82.161535 
L 378.194737 92.813305 
L 389.641842 102.790513 
L 401.088947 111.104664 
L 412.536053 119.418985 
L 423.983158 127.352909 
L 435.430263 132.607481 
L 446.877368 139.869081 
L 458.324474 142.371975 
L 469.771579 147.945868 
L 481.218684 152.981419 
L 492.665789 154.333551 
L 504.112895 158.282947 
L 515.56 158.927935 
L 515.56 148.416409 
L 515.56 148.416409 
L 504.112895 144.381553 
L 492.665789 142.061294 
L 481.218684 138.273497 
L 469.771579 135.600934 
L 458.324474 129.292967 
L 446.877368 125.532493 
L 435.430263 119.887903 
L 423.983158 114.109764 
L 412.536053 106.710374 
L 401.088947 98.664503 
L 389.641842 90.913805 
L 378.194737 82.35007 
L 366.747632 74.181909 
L 355.300526 64.559969 
L 343.853421 55.040398 
L 332.406316 46.79049 
L 320.959211 40.839608 
L 309.512105 35.452808 
L 298.065 33.584752 
z
" clip-path="url(#p4270cc1c0a)" style="fill: #8c564b; fill-opacity: 0.4"/>
   </g>
   <g id="PolyCollection_15">
    <path d="M 298.065 44.026097 
L 298.065 46.875725 
L 309.512105 48.305151 
L 320.959211 53.765584 
L 332.406316 60.870537 
L 343.853421 70.013139 
L 355.300526 79.682132 
L 366.747632 89.833538 
L 378.194737 99.416534 
L 389.641842 109.320093 
L 401.088947 117.008343 
L 412.536053 124.108888 
L 423.983158 131.437254 
L 435.430263 136.41041 
L 446.877368 142.411415 
L 458.324474 145.913075 
L 469.771579 150.19104 
L 481.218684 154.054531 
L 492.665789 156.700154 
L 504.112895 159.564975 
L 515.56 161.928274 
L 515.56 151.611308 
L 515.56 151.611308 
L 504.112895 148.719836 
L 492.665789 145.332722 
L 481.218684 141.717913 
L 469.771579 138.392681 
L 458.324474 133.416491 
L 446.877368 129.286916 
L 435.430263 123.436264 
L 423.983158 117.844517 
L 412.536053 111.377887 
L 401.088947 103.908652 
L 389.641842 96.510003 
L 378.194737 88.805262 
L 366.747632 81.093796 
L 355.300526 72.582515 
L 343.853421 64.319384 
L 332.406316 56.869483 
L 320.959211 50.772785 
L 309.512105 45.778908 
L 298.065 44.026097 
z
" clip-path="url(#p4270cc1c0a)" style="fill: #e377c2; fill-opacity: 0.4"/>
   </g>
   <g id="PolyCollection_16">
    <path d="M 298.065 33.599904 
L 298.065 34.804437 
L 309.512105 36.512242 
L 320.959211 42.344151 
L 332.406316 50.441142 
L 343.853421 60.54566 
L 355.300526 71.038976 
L 366.747632 81.883596 
L 378.194737 92.505864 
L 389.641842 102.693444 
L 401.088947 111.449845 
L 412.536053 119.095196 
L 423.983158 127.209127 
L 435.430263 132.473716 
L 446.877368 139.25833 
L 458.324474 143.024843 
L 469.771579 147.277582 
L 481.218684 151.699856 
L 492.665789 154.375157 
L 504.112895 157.336552 
L 515.56 159.814624 
L 515.56 148.719055 
L 515.56 148.719055 
L 504.112895 145.195901 
L 492.665789 142.361106 
L 481.218684 138.284834 
L 469.771579 134.872584 
L 458.324474 130.275549 
L 446.877368 125.67693 
L 435.430263 119.64934 
L 423.983158 113.615982 
L 412.536053 106.85298 
L 401.088947 98.83555 
L 389.641842 91.216091 
L 378.194737 82.280331 
L 366.747632 74.074829 
L 355.300526 64.478477 
L 343.853421 55.064441 
L 332.406316 46.831895 
L 320.959211 40.852496 
L 309.512105 35.428573 
L 298.065 33.599904 
z
" clip-path="url(#p4270cc1c0a)" style="fill: #7f7f7f; fill-opacity: 0.4"/>
   </g>
   <g id="matplotlib.axis_3">
    <g id="xtick_6">
     <g id="line2d_18">
      <g>
       <use xlink:href="#m552998daf0" x="298.065" y="174.04" style="stroke: #000000; stroke-width: 0.8"/>
      </g>
     </g>
     <g id="text_13">
      <!-- 0.0 -->
      <g transform="translate(290.113437 188.638438)scale(0.1 -0.1)">
       <use xlink:href="#DejaVuSans-30"/>
       <use xlink:href="#DejaVuSans-2e" x="63.623047"/>
       <use xlink:href="#DejaVuSans-30" x="95.410156"/>
      </g>
     </g>
    </g>
    <g id="xtick_7">
     <g id="line2d_19">
      <g>
       <use xlink:href="#m552998daf0" x="352.43875" y="174.04" style="stroke: #000000; stroke-width: 0.8"/>
      </g>
     </g>
     <g id="text_14">
      <!-- 0.5 -->
      <g transform="translate(344.487187 188.638438)scale(0.1 -0.1)">
       <use xlink:href="#DejaVuSans-30"/>
       <use xlink:href="#DejaVuSans-2e" x="63.623047"/>
       <use xlink:href="#DejaVuSans-35" x="95.410156"/>
      </g>
     </g>
    </g>
    <g id="xtick_8">
     <g id="line2d_20">
      <g>
       <use xlink:href="#m552998daf0" x="406.8125" y="174.04" style="stroke: #000000; stroke-width: 0.8"/>
      </g>
     </g>
     <g id="text_15">
      <!-- 1.0 -->
      <g transform="translate(398.860937 188.638438)scale(0.1 -0.1)">
       <use xlink:href="#DejaVuSans-31"/>
       <use xlink:href="#DejaVuSans-2e" x="63.623047"/>
       <use xlink:href="#DejaVuSans-30" x="95.410156"/>
      </g>
     </g>
    </g>
    <g id="xtick_9">
     <g id="line2d_21">
      <g>
       <use xlink:href="#m552998daf0" x="461.18625" y="174.04" style="stroke: #000000; stroke-width: 0.8"/>
      </g>
     </g>
     <g id="text_16">
      <!-- 1.5 -->
      <g transform="translate(453.234687 188.638438)scale(0.1 -0.1)">
       <use xlink:href="#DejaVuSans-31"/>
       <use xlink:href="#DejaVuSans-2e" x="63.623047"/>
       <use xlink:href="#DejaVuSans-35" x="95.410156"/>
      </g>
     </g>
    </g>
    <g id="xtick_10">
     <g id="line2d_22">
      <g>
       <use xlink:href="#m552998daf0" x="515.56" y="174.04" style="stroke: #000000; stroke-width: 0.8"/>
      </g>
     </g>
     <g id="text_17">
      <!-- 2.0 -->
      <g transform="translate(507.608437 188.638438)scale(0.1 -0.1)">
       <use xlink:href="#DejaVuSans-32"/>
       <use xlink:href="#DejaVuSans-2e" x="63.623047"/>
       <use xlink:href="#DejaVuSans-30" x="95.410156"/>
      </g>
     </g>
    </g>
    <g id="text_18">
     <!-- Influence of surprisal (multiplication) -->
     <g transform="translate(314.665625 202.316563)scale(0.1 -0.1)">
      <use xlink:href="#DejaVuSans-49"/>
      <use xlink:href="#DejaVuSans-6e" x="29.492188"/>
      <use xlink:href="#DejaVuSans-66" x="92.871094"/>
      <use xlink:href="#DejaVuSans-6c" x="128.076172"/>
      <use xlink:href="#DejaVuSans-75" x="155.859375"/>
      <use xlink:href="#DejaVuSans-65" x="219.238281"/>
      <use xlink:href="#DejaVuSans-6e" x="280.761719"/>
      <use xlink:href="#DejaVuSans-63" x="344.140625"/>
      <use xlink:href="#DejaVuSans-65" x="399.121094"/>
      <use xlink:href="#DejaVuSans-20" x="460.644531"/>
      <use xlink:href="#DejaVuSans-6f" x="492.431641"/>
      <use xlink:href="#DejaVuSans-66" x="553.613281"/>
      <use xlink:href="#DejaVuSans-20" x="588.818359"/>
      <use xlink:href="#DejaVuSans-73" x="620.605469"/>
      <use xlink:href="#DejaVuSans-75" x="672.705078"/>
      <use xlink:href="#DejaVuSans-72" x="736.083984"/>
      <use xlink:href="#DejaVuSans-70" x="777.197266"/>
      <use xlink:href="#DejaVuSans-72" x="840.673828"/>
      <use xlink:href="#DejaVuSans-69" x="881.787109"/>
      <use xlink:href="#DejaVuSans-73" x="909.570312"/>
      <use xlink:href="#DejaVuSans-61" x="961.669922"/>
      <use xlink:href="#DejaVuSans-6c" x="1022.949219"/>
      <use xlink:href="#DejaVuSans-20" x="1050.732422"/>
      <use xlink:href="#DejaVuSans-28" x="1082.519531"/>
      <use xlink:href="#DejaVuSans-6d" x="1121.533203"/>
      <use xlink:href="#DejaVuSans-75" x="1218.945312"/>
      <use xlink:href="#DejaVuSans-6c" x="1282.324219"/>
      <use xlink:href="#DejaVuSans-74" x="1310.107422"/>
      <use xlink:href="#DejaVuSans-69" x="1349.316406"/>
      <use xlink:href="#DejaVuSans-70" x="1377.099609"/>
      <use xlink:href="#DejaVuSans-6c" x="1440.576172"/>
      <use xlink:href="#DejaVuSans-69" x="1468.359375"/>
      <use xlink:href="#DejaVuSans-63" x="1496.142578"/>
      <use xlink:href="#DejaVuSans-61" x="1551.123047"/>
      <use xlink:href="#DejaVuSans-74" x="1612.402344"/>
      <use xlink:href="#DejaVuSans-69" x="1651.611328"/>
      <use xlink:href="#DejaVuSans-6f" x="1679.394531"/>
      <use xlink:href="#DejaVuSans-6e" x="1740.576172"/>
      <use xlink:href="#DejaVuSans-29" x="1803.955078"/>
     </g>
    </g>
   </g>
   <g id="line2d_23">
    <path d="M 298.065 34.174489 
L 309.512105 35.951547 
L 320.959211 41.577857 
L 332.406316 48.577798 
L 343.853421 57.70398 
L 355.300526 67.656653 
L 366.747632 77.786836 
L 378.194737 87.145998 
L 389.641842 96.677936 
L 401.088947 104.720197 
L 412.536053 112.560716 
L 423.983158 119.929822 
L 435.430263 125.53166 
L 446.877368 131.891642 
L 458.324474 135.984271 
L 469.771579 140.309432 
L 481.218684 144.302903 
L 492.665789 147.50119 
L 504.112895 150.701779 
L 515.56 153.408349 
" clip-path="url(#p4270cc1c0a)" style="fill: none; stroke: #1f77b4; stroke-width: 1.5; stroke-linecap: square"/>
   </g>
   <g id="line2d_24">
    <path d="M 298.065 34.18933 
L 309.512105 35.960913 
L 320.959211 41.594282 
L 332.406316 48.6185 
L 343.853421 57.763761 
L 355.300526 67.731466 
L 366.747632 77.907256 
L 378.194737 87.316934 
L 389.641842 96.830291 
L 401.088947 104.95163 
L 412.536053 112.784502 
L 423.983158 120.17386 
L 435.430263 125.797813 
L 446.877368 132.200119 
L 458.324474 136.257254 
L 469.771579 140.601911 
L 481.218684 144.570087 
L 492.665789 147.761357 
L 504.112895 150.823854 
L 515.56 153.612013 
" clip-path="url(#p4270cc1c0a)" style="fill: none; stroke: #ff7f0e; stroke-width: 1.5; stroke-linecap: square"/>
   </g>
   <g id="line2d_25">
    <path d="M 298.065 34.188506 
L 309.512105 35.971298 
L 320.959211 41.593647 
L 332.406316 48.589243 
L 343.853421 57.704236 
L 355.300526 67.692122 
L 366.747632 77.887243 
L 378.194737 87.283235 
L 389.641842 96.867643 
L 401.088947 104.977129 
L 412.536053 112.989731 
L 423.983158 120.409551 
L 435.430263 126.132675 
L 446.877368 132.442389 
L 458.324474 136.651846 
L 469.771579 141.102998 
L 481.218684 144.982954 
L 492.665789 148.250075 
L 504.112895 151.479928 
L 515.56 154.200238 
" clip-path="url(#p4270cc1c0a)" style="fill: none; stroke: #2ca02c; stroke-width: 1.5; stroke-linecap: square"/>
   </g>
   <g id="line2d_26">
    <path d="M 298.065 34.204748 
L 309.512105 35.977293 
L 320.959211 41.60991 
L 332.406316 48.63457 
L 343.853421 57.782592 
L 355.300526 67.77448 
L 366.747632 78.031995 
L 378.194737 87.441148 
L 389.641842 97.015457 
L 401.088947 105.16204 
L 412.536053 113.09337 
L 423.983158 120.522125 
L 435.430263 126.225586 
L 446.877368 132.642583 
L 458.324474 136.778838 
L 469.771579 141.18482 
L 481.218684 145.100355 
L 492.665789 148.356197 
L 504.112895 151.520058 
L 515.56 154.287781 
" clip-path="url(#p4270cc1c0a)" style="fill: none; stroke: #d62728; stroke-width: 1.5; stroke-linecap: square"/>
   </g>
   <g id="line2d_27">
    <path d="M 298.065 34.183347 
L 309.512105 35.976431 
L 320.959211 41.583775 
L 332.406316 48.668618 
L 343.853421 57.708849 
L 355.300526 67.820614 
L 366.747632 78.038799 
L 378.194737 87.410179 
L 389.641842 96.703395 
L 401.088947 104.644674 
L 412.536053 112.84446 
L 423.983158 120.503778 
L 435.430263 125.974551 
L 446.877368 132.380773 
L 458.324474 135.567946 
L 469.771579 141.498017 
L 481.218684 145.364971 
L 492.665789 147.934142 
L 504.112895 151.234669 
L 515.56 153.461312 
" clip-path="url(#p4270cc1c0a)" style="fill: none; stroke: #9467bd; stroke-width: 1.5; stroke-linecap: square"/>
   </g>
   <g id="line2d_28">
    <path d="M 298.065 34.199062 
L 309.512105 35.987067 
L 320.959211 41.602492 
L 332.406316 48.711016 
L 343.853421 57.77042 
L 355.300526 67.892655 
L 366.747632 78.171722 
L 378.194737 87.581688 
L 389.641842 96.852159 
L 401.088947 104.884583 
L 412.536053 113.06468 
L 423.983158 120.731336 
L 435.430263 126.247692 
L 446.877368 132.700787 
L 458.324474 135.832471 
L 469.771579 141.773401 
L 481.218684 145.627458 
L 492.665789 148.197423 
L 504.112895 151.33225 
L 515.56 153.672172 
" clip-path="url(#p4270cc1c0a)" style="fill: none; stroke: #8c564b; stroke-width: 1.5; stroke-linecap: square"/>
   </g>
   <g id="line2d_29">
    <path d="M 298.065 45.450911 
L 309.512105 47.042029 
L 320.959211 52.269185 
L 332.406316 58.87001 
L 343.853421 67.166262 
L 355.300526 76.132323 
L 366.747632 85.463667 
L 378.194737 94.110898 
L 389.641842 102.915048 
L 401.088947 110.458498 
L 412.536053 117.743388 
L 423.983158 124.640886 
L 435.430263 129.923337 
L 446.877368 135.849165 
L 458.324474 139.664783 
L 469.771579 144.291861 
L 481.218684 147.886222 
L 492.665789 151.016438 
L 504.112895 154.142405 
L 515.56 156.769791 
" clip-path="url(#p4270cc1c0a)" style="fill: none; stroke: #e377c2; stroke-width: 1.5; stroke-linecap: square"/>
   </g>
   <g id="line2d_30">
    <path d="M 298.065 34.202171 
L 309.512105 35.970408 
L 320.959211 41.598324 
L 332.406316 48.636518 
L 343.853421 57.805051 
L 355.300526 67.758726 
L 366.747632 77.979212 
L 378.194737 87.393098 
L 389.641842 96.954768 
L 401.088947 105.142697 
L 412.536053 112.974088 
L 423.983158 120.412554 
L 435.430263 126.061528 
L 446.877368 132.46763 
L 458.324474 136.650196 
L 469.771579 141.075083 
L 481.218684 144.992345 
L 492.665789 148.368132 
L 504.112895 151.266226 
L 515.56 154.266839 
" clip-path="url(#p4270cc1c0a)" style="fill: none; stroke: #7f7f7f; stroke-width: 1.5; stroke-linecap: square"/>
   </g>
   <g id="patch_6">
    <path d="M 298.065 174.04 
L 298.065 26.88 
" style="fill: none; stroke: #000000; stroke-width: 0.8; stroke-linejoin: miter; stroke-linecap: square"/>
   </g>
   <g id="patch_7">
    <path d="M 298.065 174.04 
L 515.56 174.04 
" style="fill: none; stroke: #000000; stroke-width: 0.8; stroke-linejoin: miter; stroke-linecap: square"/>
   </g>
   <g id="text_19">
    <!-- Node * third variable -->
    <g transform="translate(344.2325 20.88)scale(0.12 -0.12)">
     <defs>
      <path id="DejaVuSans-68" d="M 3513 2113 
L 3513 0 
L 2938 0 
L 2938 2094 
Q 2938 2591 2744 2837 
Q 2550 3084 2163 3084 
Q 1697 3084 1428 2787 
Q 1159 2491 1159 1978 
L 1159 0 
L 581 0 
L 581 4863 
L 1159 4863 
L 1159 2956 
Q 1366 3272 1645 3428 
Q 1925 3584 2291 3584 
Q 2894 3584 3203 3211 
Q 3513 2838 3513 2113 
z
" transform="scale(0.015625)"/>
      <path id="DejaVuSans-62" d="M 3116 1747 
Q 3116 2381 2855 2742 
Q 2594 3103 2138 3103 
Q 1681 3103 1420 2742 
Q 1159 2381 1159 1747 
Q 1159 1113 1420 752 
Q 1681 391 2138 391 
Q 2594 391 2855 752 
Q 3116 1113 3116 1747 
z
M 1159 2969 
Q 1341 3281 1617 3432 
Q 1894 3584 2278 3584 
Q 2916 3584 3314 3078 
Q 3713 2572 3713 1747 
Q 3713 922 3314 415 
Q 2916 -91 2278 -91 
Q 1894 -91 1617 61 
Q 1341 213 1159 525 
L 1159 0 
L 581 0 
L 581 4863 
L 1159 4863 
L 1159 2969 
z
" transform="scale(0.015625)"/>
     </defs>
     <use xlink:href="#DejaVuSans-4e"/>
     <use xlink:href="#DejaVuSans-6f" x="74.804688"/>
     <use xlink:href="#DejaVuSans-64" x="135.986328"/>
     <use xlink:href="#DejaVuSans-65" x="199.462891"/>
     <use xlink:href="#DejaVuSans-20" x="260.986328"/>
     <use xlink:href="#DejaVuSans-2a" x="292.773438"/>
     <use xlink:href="#DejaVuSans-20" x="342.773438"/>
     <use xlink:href="#DejaVuSans-74" x="374.560547"/>
     <use xlink:href="#DejaVuSans-68" x="413.769531"/>
     <use xlink:href="#DejaVuSans-69" x="477.148438"/>
     <use xlink:href="#DejaVuSans-72" x="504.931641"/>
     <use xlink:href="#DejaVuSans-64" x="544.294922"/>
     <use xlink:href="#DejaVuSans-20" x="607.771484"/>
     <use xlink:href="#DejaVuSans-76" x="639.558594"/>
     <use xlink:href="#DejaVuSans-61" x="698.738281"/>
     <use xlink:href="#DejaVuSans-72" x="760.017578"/>
     <use xlink:href="#DejaVuSans-69" x="801.130859"/>
     <use xlink:href="#DejaVuSans-61" x="828.914062"/>
     <use xlink:href="#DejaVuSans-62" x="890.193359"/>
     <use xlink:href="#DejaVuSans-6c" x="953.669922"/>
     <use xlink:href="#DejaVuSans-65" x="981.453125"/>
    </g>
   </g>
   <g id="legend_1">
    <g id="line2d_31">
     <path d="M 524.56 39.978437 
L 534.56 39.978437 
L 544.56 39.978437 
" style="fill: none; stroke: #1f77b4; stroke-width: 1.5; stroke-linecap: square"/>
    </g>
    <g id="text_20">
     <!-- Node -->
     <g transform="translate(552.56 43.478437)scale(0.1 -0.1)">
      <use xlink:href="#DejaVuSans-4e"/>
      <use xlink:href="#DejaVuSans-6f" x="74.804688"/>
      <use xlink:href="#DejaVuSans-64" x="135.986328"/>
      <use xlink:href="#DejaVuSans-65" x="199.462891"/>
     </g>
    </g>
    <g id="line2d_32">
     <path d="M 524.56 54.656563 
L 534.56 54.656563 
L 544.56 54.656563 
" style="fill: none; stroke: #ff7f0e; stroke-width: 1.5; stroke-linecap: square"/>
    </g>
    <g id="text_21">
     <!-- Node + surprisal -->
     <g transform="translate(552.56 58.156563)scale(0.1 -0.1)">
      <defs>
       <path id="DejaVuSans-2b" d="M 2944 4013 
L 2944 2272 
L 4684 2272 
L 4684 1741 
L 2944 1741 
L 2944 0 
L 2419 0 
L 2419 1741 
L 678 1741 
L 678 2272 
L 2419 2272 
L 2419 4013 
L 2944 4013 
z
" transform="scale(0.015625)"/>
      </defs>
      <use xlink:href="#DejaVuSans-4e"/>
      <use xlink:href="#DejaVuSans-6f" x="74.804688"/>
      <use xlink:href="#DejaVuSans-64" x="135.986328"/>
      <use xlink:href="#DejaVuSans-65" x="199.462891"/>
      <use xlink:href="#DejaVuSans-20" x="260.986328"/>
      <use xlink:href="#DejaVuSans-2b" x="292.773438"/>
      <use xlink:href="#DejaVuSans-20" x="376.5625"/>
      <use xlink:href="#DejaVuSans-73" x="408.349609"/>
      <use xlink:href="#DejaVuSans-75" x="460.449219"/>
      <use xlink:href="#DejaVuSans-72" x="523.828125"/>
      <use xlink:href="#DejaVuSans-70" x="564.941406"/>
      <use xlink:href="#DejaVuSans-72" x="628.417969"/>
      <use xlink:href="#DejaVuSans-69" x="669.53125"/>
      <use xlink:href="#DejaVuSans-73" x="697.314453"/>
      <use xlink:href="#DejaVuSans-61" x="749.414062"/>
      <use xlink:href="#DejaVuSans-6c" x="810.693359"/>
     </g>
    </g>
    <g id="line2d_33">
     <path d="M 524.56 69.334687 
L 534.56 69.334687 
L 544.56 69.334687 
" style="fill: none; stroke: #2ca02c; stroke-width: 1.5; stroke-linecap: square"/>
    </g>
    <g id="text_22">
     <!-- Node split -->
     <g transform="translate(552.56 72.834687)scale(0.1 -0.1)">
      <use xlink:href="#DejaVuSans-4e"/>
      <use xlink:href="#DejaVuSans-6f" x="74.804688"/>
      <use xlink:href="#DejaVuSans-64" x="135.986328"/>
      <use xlink:href="#DejaVuSans-65" x="199.462891"/>
      <use xlink:href="#DejaVuSans-20" x="260.986328"/>
      <use xlink:href="#DejaVuSans-73" x="292.773438"/>
      <use xlink:href="#DejaVuSans-70" x="344.873047"/>
      <use xlink:href="#DejaVuSans-6c" x="408.349609"/>
      <use xlink:href="#DejaVuSans-69" x="436.132812"/>
      <use xlink:href="#DejaVuSans-74" x="463.916016"/>
     </g>
    </g>
    <g id="line2d_34">
     <path d="M 524.56 84.012812 
L 534.56 84.012812 
L 544.56 84.012812 
" style="fill: none; stroke: #d62728; stroke-width: 1.5; stroke-linecap: square"/>
    </g>
    <g id="text_23">
     <!-- Node split + surprisal -->
     <g transform="translate(552.56 87.512812)scale(0.1 -0.1)">
      <use xlink:href="#DejaVuSans-4e"/>
      <use xlink:href="#DejaVuSans-6f" x="74.804688"/>
      <use xlink:href="#DejaVuSans-64" x="135.986328"/>
      <use xlink:href="#DejaVuSans-65" x="199.462891"/>
      <use xlink:href="#DejaVuSans-20" x="260.986328"/>
      <use xlink:href="#DejaVuSans-73" x="292.773438"/>
      <use xlink:href="#DejaVuSans-70" x="344.873047"/>
      <use xlink:href="#DejaVuSans-6c" x="408.349609"/>
      <use xlink:href="#DejaVuSans-69" x="436.132812"/>
      <use xlink:href="#DejaVuSans-74" x="463.916016"/>
      <use xlink:href="#DejaVuSans-20" x="503.125"/>
      <use xlink:href="#DejaVuSans-2b" x="534.912109"/>
      <use xlink:href="#DejaVuSans-20" x="618.701172"/>
      <use xlink:href="#DejaVuSans-73" x="650.488281"/>
      <use xlink:href="#DejaVuSans-75" x="702.587891"/>
      <use xlink:href="#DejaVuSans-72" x="765.966797"/>
      <use xlink:href="#DejaVuSans-70" x="807.080078"/>
      <use xlink:href="#DejaVuSans-72" x="870.556641"/>
      <use xlink:href="#DejaVuSans-69" x="911.669922"/>
      <use xlink:href="#DejaVuSans-73" x="939.453125"/>
      <use xlink:href="#DejaVuSans-61" x="991.552734"/>
      <use xlink:href="#DejaVuSans-6c" x="1052.832031"/>
     </g>
    </g>
    <g id="line2d_35">
     <path d="M 524.56 98.690937 
L 534.56 98.690937 
L 544.56 98.690937 
" style="fill: none; stroke: #9467bd; stroke-width: 1.5; stroke-linecap: square"/>
    </g>
    <g id="text_24">
     <!-- Node random split -->
     <g transform="translate(552.56 102.190937)scale(0.1 -0.1)">
      <use xlink:href="#DejaVuSans-4e"/>
      <use xlink:href="#DejaVuSans-6f" x="74.804688"/>
      <use xlink:href="#DejaVuSans-64" x="135.986328"/>
      <use xlink:href="#DejaVuSans-65" x="199.462891"/>
      <use xlink:href="#DejaVuSans-20" x="260.986328"/>
      <use xlink:href="#DejaVuSans-72" x="292.773438"/>
      <use xlink:href="#DejaVuSans-61" x="333.886719"/>
      <use xlink:href="#DejaVuSans-6e" x="395.166016"/>
      <use xlink:href="#DejaVuSans-64" x="458.544922"/>
      <use xlink:href="#DejaVuSans-6f" x="522.021484"/>
      <use xlink:href="#DejaVuSans-6d" x="583.203125"/>
      <use xlink:href="#DejaVuSans-20" x="680.615234"/>
      <use xlink:href="#DejaVuSans-73" x="712.402344"/>
      <use xlink:href="#DejaVuSans-70" x="764.501953"/>
      <use xlink:href="#DejaVuSans-6c" x="827.978516"/>
      <use xlink:href="#DejaVuSans-69" x="855.761719"/>
      <use xlink:href="#DejaVuSans-74" x="883.544922"/>
     </g>
    </g>
    <g id="line2d_36">
     <path d="M 524.56 113.369062 
L 534.56 113.369062 
L 544.56 113.369062 
" style="fill: none; stroke: #8c564b; stroke-width: 1.5; stroke-linecap: square"/>
    </g>
    <g id="text_25">
     <!-- Node random split + surprisal -->
     <g transform="translate(552.56 116.869062)scale(0.1 -0.1)">
      <use xlink:href="#DejaVuSans-4e"/>
      <use xlink:href="#DejaVuSans-6f" x="74.804688"/>
      <use xlink:href="#DejaVuSans-64" x="135.986328"/>
      <use xlink:href="#DejaVuSans-65" x="199.462891"/>
      <use xlink:href="#DejaVuSans-20" x="260.986328"/>
      <use xlink:href="#DejaVuSans-72" x="292.773438"/>
      <use xlink:href="#DejaVuSans-61" x="333.886719"/>
      <use xlink:href="#DejaVuSans-6e" x="395.166016"/>
      <use xlink:href="#DejaVuSans-64" x="458.544922"/>
      <use xlink:href="#DejaVuSans-6f" x="522.021484"/>
      <use xlink:href="#DejaVuSans-6d" x="583.203125"/>
      <use xlink:href="#DejaVuSans-20" x="680.615234"/>
      <use xlink:href="#DejaVuSans-73" x="712.402344"/>
      <use xlink:href="#DejaVuSans-70" x="764.501953"/>
      <use xlink:href="#DejaVuSans-6c" x="827.978516"/>
      <use xlink:href="#DejaVuSans-69" x="855.761719"/>
      <use xlink:href="#DejaVuSans-74" x="883.544922"/>
      <use xlink:href="#DejaVuSans-20" x="922.753906"/>
      <use xlink:href="#DejaVuSans-2b" x="954.541016"/>
      <use xlink:href="#DejaVuSans-20" x="1038.330078"/>
      <use xlink:href="#DejaVuSans-73" x="1070.117188"/>
      <use xlink:href="#DejaVuSans-75" x="1122.216797"/>
      <use xlink:href="#DejaVuSans-72" x="1185.595703"/>
      <use xlink:href="#DejaVuSans-70" x="1226.708984"/>
      <use xlink:href="#DejaVuSans-72" x="1290.185547"/>
      <use xlink:href="#DejaVuSans-69" x="1331.298828"/>
      <use xlink:href="#DejaVuSans-73" x="1359.082031"/>
      <use xlink:href="#DejaVuSans-61" x="1411.181641"/>
      <use xlink:href="#DejaVuSans-6c" x="1472.460938"/>
     </g>
    </g>
    <g id="line2d_37">
     <path d="M 524.56 128.047187 
L 534.56 128.047187 
L 544.56 128.047187 
" style="fill: none; stroke: #e377c2; stroke-width: 1.5; stroke-linecap: square"/>
    </g>
    <g id="text_26">
     <!-- Interaction -->
     <g transform="translate(552.56 131.547187)scale(0.1 -0.1)">
      <use xlink:href="#DejaVuSans-49"/>
      <use xlink:href="#DejaVuSans-6e" x="29.492188"/>
      <use xlink:href="#DejaVuSans-74" x="92.871094"/>
      <use xlink:href="#DejaVuSans-65" x="132.080078"/>
      <use xlink:href="#DejaVuSans-72" x="193.603516"/>
      <use xlink:href="#DejaVuSans-61" x="234.716797"/>
      <use xlink:href="#DejaVuSans-63" x="295.996094"/>
      <use xlink:href="#DejaVuSans-74" x="350.976562"/>
      <use xlink:href="#DejaVuSans-69" x="390.185547"/>
      <use xlink:href="#DejaVuSans-6f" x="417.96875"/>
      <use xlink:href="#DejaVuSans-6e" x="479.150391"/>
     </g>
    </g>
    <g id="line2d_38">
     <path d="M 524.56 142.725312 
L 534.56 142.725312 
L 544.56 142.725312 
" style="fill: none; stroke: #7f7f7f; stroke-width: 1.5; stroke-linecap: square"/>
    </g>
    <g id="text_27">
     <!-- Node + surprisal + interaction -->
     <g transform="translate(552.56 146.225312)scale(0.1 -0.1)">
      <use xlink:href="#DejaVuSans-4e"/>
      <use xlink:href="#DejaVuSans-6f" x="74.804688"/>
      <use xlink:href="#DejaVuSans-64" x="135.986328"/>
      <use xlink:href="#DejaVuSans-65" x="199.462891"/>
      <use xlink:href="#DejaVuSans-20" x="260.986328"/>
      <use xlink:href="#DejaVuSans-2b" x="292.773438"/>
      <use xlink:href="#DejaVuSans-20" x="376.5625"/>
      <use xlink:href="#DejaVuSans-73" x="408.349609"/>
      <use xlink:href="#DejaVuSans-75" x="460.449219"/>
      <use xlink:href="#DejaVuSans-72" x="523.828125"/>
      <use xlink:href="#DejaVuSans-70" x="564.941406"/>
      <use xlink:href="#DejaVuSans-72" x="628.417969"/>
      <use xlink:href="#DejaVuSans-69" x="669.53125"/>
      <use xlink:href="#DejaVuSans-73" x="697.314453"/>
      <use xlink:href="#DejaVuSans-61" x="749.414062"/>
      <use xlink:href="#DejaVuSans-6c" x="810.693359"/>
      <use xlink:href="#DejaVuSans-20" x="838.476562"/>
      <use xlink:href="#DejaVuSans-2b" x="870.263672"/>
      <use xlink:href="#DejaVuSans-20" x="954.052734"/>
      <use xlink:href="#DejaVuSans-69" x="985.839844"/>
      <use xlink:href="#DejaVuSans-6e" x="1013.623047"/>
      <use xlink:href="#DejaVuSans-74" x="1077.001953"/>
      <use xlink:href="#DejaVuSans-65" x="1116.210938"/>
      <use xlink:href="#DejaVuSans-72" x="1177.734375"/>
      <use xlink:href="#DejaVuSans-61" x="1218.847656"/>
      <use xlink:href="#DejaVuSans-63" x="1280.126953"/>
      <use xlink:href="#DejaVuSans-74" x="1335.107422"/>
      <use xlink:href="#DejaVuSans-69" x="1374.316406"/>
      <use xlink:href="#DejaVuSans-6f" x="1402.099609"/>
      <use xlink:href="#DejaVuSans-6e" x="1463.28125"/>
     </g>
    </g>
   </g>
  </g>
 </g>
 <defs>
  <clipPath id="pb07bf2527b">
   <rect x="47.72" y="26.88" width="217.495" height="147.16"/>
  </clipPath>
  <clipPath id="p4270cc1c0a">
   <rect x="298.065" y="26.88" width="217.495" height="147.16"/>
  </clipPath>
 </defs>
</svg>
