<?xml version="1.0" encoding="utf-8" standalone="no"?>
<!DOCTYPE svg PUBLIC "-//W3C//DTD SVG 1.1//EN"
  "http://www.w3.org/Graphics/SVG/1.1/DTD/svg11.dtd">
<svg xmlns:xlink="http://www.w3.org/1999/xlink" width="720pt" height="216pt" viewBox="0 0 720 216" xmlns="http://www.w3.org/2000/svg" version="1.1">
 <metadata>
  <rdf:RDF xmlns:dc="http://purl.org/dc/elements/1.1/" xmlns:cc="http://creativecommons.org/ns#" xmlns:rdf="http://www.w3.org/1999/02/22-rdf-syntax-ns#">
   <cc:Work>
    <dc:type rdf:resource="http://purl.org/dc/dcmitype/StillImage"/>
    <dc:date>2024-01-15T20:11:28.269487</dc:date>
    <dc:format>image/svg+xml</dc:format>
    <dc:creator>
     <cc:Agent>
      <dc:title>Matplotlib v3.5.1, https://matplotlib.org/</dc:title>
     </cc:Agent>
    </dc:creator>
   </cc:Work>
  </rdf:RDF>
 </metadata>
 <defs>
  <style type="text/css">*{stroke-linejoin: round; stroke-linecap: butt}</style>
 </defs>
 <g id="figure_1">
  <g id="patch_1">
   <path d="M 0 216 
L 720 216 
L 720 0 
L 0 0 
z
" style="fill: #ffffff"/>
  </g>
  <g id="axes_1">
   <g id="patch_2">
    <path d="M 47.72 174.04 
L 265.215 174.04 
L 265.215 26.88 
L 47.72 26.88 
z
" style="fill: #ffffff"/>
   </g>
   <g id="PolyCollection_1">
    <path d="M 47.72 33.675129 
L 47.72 34.376778 
L 59.167105 36.532429 
L 70.614211 43.801635 
L 82.061316 52.282154 
L 93.508421 62.300773 
L 104.955526 72.507702 
L 116.402632 82.903238 
L 127.849737 92.741193 
L 139.296842 102.123309 
L 150.743947 110.048699 
L 162.191053 118.293449 
L 173.638158 124.805796 
L 185.085263 130.624245 
L 196.532368 136.638421 
L 207.979474 141.6935 
L 219.426579 146.063529 
L 230.873684 150.063098 
L 242.320789 152.939497 
L 253.767895 155.86638 
L 265.215 158.069525 
L 265.215 149.085948 
L 265.215 149.085948 
L 253.767895 146.532527 
L 242.320789 143.005549 
L 230.873684 139.190359 
L 219.426579 134.505839 
L 207.979474 130.15412 
L 196.532368 124.760104 
L 185.085263 118.06225 
L 173.638158 111.555521 
L 162.191053 104.402886 
L 150.743947 95.876703 
L 139.296842 87.77978 
L 127.849737 78.631364 
L 116.402632 69.708225 
L 104.955526 60.954609 
L 93.508421 53.315459 
L 82.061316 45.536354 
L 70.614211 40.127881 
L 59.167105 35.124911 
L 47.72 33.675129 
z
" clip-path="url(#pb3a18faf2d)" style="fill: #1f77b4; fill-opacity: 0.4"/>
   </g>
   <g id="PolyCollection_2">
    <path d="M 47.72 33.682404 
L 47.72 34.386082 
L 59.167105 35.826331 
L 70.614211 40.253898 
L 82.061316 45.653529 
L 93.508421 53.286856 
L 104.955526 61.197112 
L 116.402632 70.165223 
L 127.849737 78.897173 
L 139.296842 87.712388 
L 150.743947 95.851182 
L 162.191053 104.152906 
L 173.638158 111.448508 
L 185.085263 117.529925 
L 196.532368 124.748712 
L 207.979474 130.657593 
L 219.426579 135.980982 
L 230.873684 140.511579 
L 242.320789 144.116879 
L 253.767895 147.83748 
L 265.215 150.372503 
L 265.215 138.200719 
L 265.215 138.200719 
L 253.767895 135.116728 
L 242.320789 131.257428 
L 230.873684 126.780484 
L 219.426579 121.797065 
L 207.979474 117.100296 
L 196.532368 111.472433 
L 185.085263 104.375227 
L 173.638158 97.51805 
L 162.191053 90.446737 
L 150.743947 82.211988 
L 139.296842 74.282772 
L 127.849737 66.752114 
L 116.402632 58.86528 
L 104.955526 52.062582 
L 93.508421 46.144652 
L 82.061316 40.856059 
L 70.614211 37.659646 
L 59.167105 34.648422 
L 47.72 33.682404 
z
" clip-path="url(#pb3a18faf2d)" style="fill: #ff7f0e; fill-opacity: 0.4"/>
   </g>
   <g id="PolyCollection_3">
    <path d="M 47.72 33.682882 
L 47.72 34.385635 
L 59.167105 36.058609 
L 70.614211 39.639516 
L 82.061316 43.558166 
L 93.508421 48.431559 
L 104.955526 52.972001 
L 116.402632 58.356205 
L 127.849737 62.820705 
L 139.296842 66.926449 
L 150.743947 71.37998 
L 162.191053 76.1576 
L 173.638158 79.953865 
L 185.085263 84.169726 
L 196.532368 89.136039 
L 207.979474 93.407428 
L 219.426579 97.176167 
L 230.873684 101.080521 
L 242.320789 105.167547 
L 253.767895 109.040184 
L 265.215 112.873466 
L 265.215 100.121325 
L 265.215 100.121325 
L 253.767895 96.174815 
L 242.320789 93.395049 
L 230.873684 89.433581 
L 219.426579 84.986719 
L 207.979474 81.281041 
L 196.532368 77.094064 
L 185.085263 72.821331 
L 173.638158 69.788722 
L 162.191053 65.507768 
L 150.743947 61.52124 
L 139.296842 56.852305 
L 127.849737 53.374221 
L 116.402632 49.150406 
L 104.955526 45.271461 
L 93.508421 42.089433 
L 82.061316 38.957076 
L 70.614211 37.145715 
L 59.167105 34.910614 
L 47.72 33.682882 
z
" clip-path="url(#pb3a18faf2d)" style="fill: #2ca02c; fill-opacity: 0.4"/>
   </g>
   <g id="PolyCollection_4">
    <path d="M 47.72 33.686197 
L 47.72 34.394623 
L 59.167105 35.745535 
L 70.614211 38.585774 
L 82.061316 41.79897 
L 93.508421 46.29104 
L 104.955526 50.66887 
L 116.402632 55.970232 
L 127.849737 60.601358 
L 139.296842 65.003979 
L 150.743947 69.649678 
L 162.191053 74.624019 
L 173.638158 78.532904 
L 185.085263 82.924149 
L 196.532368 87.852224 
L 207.979474 92.09466 
L 219.426579 95.830388 
L 230.873684 99.657859 
L 242.320789 103.539236 
L 253.767895 107.141222 
L 265.215 111.051463 
L 265.215 98.573164 
L 265.215 98.573164 
L 253.767895 94.6031 
L 242.320789 92.061683 
L 230.873684 88.407886 
L 219.426579 84.070985 
L 207.979474 80.452213 
L 196.532368 76.164265 
L 185.085263 71.876161 
L 173.638158 68.622659 
L 162.191053 64.294238 
L 150.743947 60.100811 
L 139.296842 55.389338 
L 127.849737 51.76032 
L 116.402632 47.404827 
L 104.955526 43.694784 
L 93.508421 40.668769 
L 82.061316 37.854643 
L 70.614211 36.51807 
L 59.167105 34.64031 
L 47.72 33.686197 
z
" clip-path="url(#pb3a18faf2d)" style="fill: #d62728; fill-opacity: 0.4"/>
   </g>
   <g id="PolyCollection_5">
    <path d="M 47.72 33.689403 
L 47.72 34.38573 
L 59.167105 36.542253 
L 70.614211 43.82286 
L 82.061316 52.305586 
L 93.508421 62.306377 
L 104.955526 72.535317 
L 116.402632 82.91992 
L 127.849737 92.800318 
L 139.296842 102.032049 
L 150.743947 110.442852 
L 162.191053 118.943459 
L 173.638158 126.021715 
L 185.085263 131.319347 
L 196.532368 137.165212 
L 207.979474 141.760484 
L 219.426579 146.482226 
L 230.873684 150.281007 
L 242.320789 153.230988 
L 253.767895 156.517545 
L 265.215 159.465433 
L 265.215 150.437218 
L 265.215 150.437218 
L 253.767895 147.090387 
L 242.320789 144.191146 
L 230.873684 139.643949 
L 219.426579 134.850623 
L 207.979474 130.837159 
L 196.532368 125.623253 
L 185.085263 119.452264 
L 173.638158 111.202286 
L 162.191053 105.205973 
L 150.743947 95.984266 
L 139.296842 87.961143 
L 127.849737 78.761662 
L 116.402632 69.738918 
L 104.955526 61.040272 
L 93.508421 53.3864 
L 82.061316 45.676704 
L 70.614211 40.134888 
L 59.167105 35.155526 
L 47.72 33.689403 
z
" clip-path="url(#pb3a18faf2d)" style="fill: #9467bd; fill-opacity: 0.4"/>
   </g>
   <g id="PolyCollection_6">
    <path d="M 47.72 33.696853 
L 47.72 34.395002 
L 59.167105 35.831955 
L 70.614211 40.273256 
L 82.061316 45.66266 
L 93.508421 53.284009 
L 104.955526 61.236738 
L 116.402632 70.185884 
L 127.849737 78.987741 
L 139.296842 87.697946 
L 150.743947 96.066958 
L 162.191053 104.463474 
L 173.638158 112.478958 
L 185.085263 117.991224 
L 196.532368 125.183749 
L 207.979474 130.552368 
L 219.426579 136.460985 
L 230.873684 140.776745 
L 242.320789 144.41339 
L 253.767895 148.340644 
L 265.215 151.838873 
L 265.215 138.975568 
L 265.215 138.975568 
L 253.767895 135.565393 
L 242.320789 131.979524 
L 230.873684 126.76144 
L 219.426579 121.872522 
L 207.979474 117.879704 
L 196.532368 111.831145 
L 185.085263 105.597769 
L 173.638158 97.22786 
L 162.191053 91.208172 
L 150.743947 82.411387 
L 139.296842 74.436983 
L 127.849737 66.909598 
L 116.402632 58.822808 
L 104.955526 52.110451 
L 93.508421 46.169717 
L 82.061316 40.9075 
L 70.614211 37.663678 
L 59.167105 34.678055 
L 47.72 33.696853 
z
" clip-path="url(#pb3a18faf2d)" style="fill: #8c564b; fill-opacity: 0.4"/>
   </g>
   <g id="PolyCollection_7">
    <path d="M 47.72 43.661298 
L 47.72 48.172622 
L 59.167105 51.916786 
L 70.614211 60.648697 
L 82.061316 72.356233 
L 93.508421 84.585942 
L 104.955526 95.291525 
L 116.402632 105.669634 
L 127.849737 114.301453 
L 139.296842 122.628166 
L 150.743947 129.257099 
L 162.191053 136.706441 
L 173.638158 141.815179 
L 185.085263 146.483136 
L 196.532368 151.219787 
L 207.979474 155.303696 
L 219.426579 158.625438 
L 230.873684 161.780472 
L 242.320789 164.034882 
L 253.767895 165.477459 
L 265.215 167.350909 
L 265.215 161.26949 
L 265.215 161.26949 
L 253.767895 159.152332 
L 242.320789 155.755065 
L 230.873684 152.179235 
L 219.426579 148.046294 
L 207.979474 143.532815 
L 196.532368 138.620564 
L 185.085263 132.176819 
L 173.638158 125.942778 
L 162.191053 118.877713 
L 150.743947 110.963034 
L 139.296842 102.892715 
L 127.849737 93.444614 
L 116.402632 83.87513 
L 104.955526 74.38061 
L 93.508421 65.151803 
L 82.061316 56.475655 
L 70.614211 50.514267 
L 59.167105 45.43652 
L 47.72 43.661298 
z
" clip-path="url(#pb3a18faf2d)" style="fill: #e377c2; fill-opacity: 0.4"/>
   </g>
   <g id="PolyCollection_8">
    <path d="M 47.72 33.693884 
L 47.72 34.403215 
L 59.167105 35.014673 
L 70.614211 36.010877 
L 82.061316 38.912913 
L 93.508421 44.661612 
L 104.955526 51.857979 
L 116.402632 60.188134 
L 127.849737 68.524407 
L 139.296842 75.947149 
L 150.743947 83.999855 
L 162.191053 92.181973 
L 173.638158 98.981722 
L 185.085263 105.072448 
L 196.532368 112.113567 
L 207.979474 117.415099 
L 219.426579 123.442343 
L 230.873684 128.382036 
L 242.320789 132.679789 
L 253.767895 137.025785 
L 265.215 140.551987 
L 265.215 130.407689 
L 265.215 130.407689 
L 253.767895 126.014027 
L 242.320789 121.871957 
L 230.873684 116.48449 
L 219.426579 110.569141 
L 207.979474 104.812244 
L 196.532368 97.620107 
L 185.085263 89.719646 
L 173.638158 82.822749 
L 162.191053 75.148331 
L 150.743947 67.890551 
L 139.296842 60.206015 
L 127.849737 53.629739 
L 116.402632 47.112845 
L 104.955526 41.829478 
L 93.508421 38.332985 
L 82.061316 35.8175 
L 70.614211 35.032962 
L 59.167105 34.143613 
L 47.72 33.693884 
z
" clip-path="url(#pb3a18faf2d)" style="fill: #7f7f7f; fill-opacity: 0.4"/>
   </g>
   <g id="matplotlib.axis_1">
    <g id="xtick_1">
     <g id="line2d_1">
      <defs>
       <path id="ma7b439993e" d="M 0 0 
L 0 3.5 
" style="stroke: #000000; stroke-width: 0.8"/>
      </defs>
      <g>
       <use xlink:href="#ma7b439993e" x="47.72" y="174.04" style="stroke: #000000; stroke-width: 0.8"/>
      </g>
     </g>
     <g id="text_1">
      <!-- 0.0 -->
      <g transform="translate(39.768438 188.638438)scale(0.1 -0.1)">
       <defs>
        <path id="DejaVuSans-30" d="M 2034 4250 
Q 1547 4250 1301 3770 
Q 1056 3291 1056 2328 
Q 1056 1369 1301 889 
Q 1547 409 2034 409 
Q 2525 409 2770 889 
Q 3016 1369 3016 2328 
Q 3016 3291 2770 3770 
Q 2525 4250 2034 4250 
z
M 2034 4750 
Q 2819 4750 3233 4129 
Q 3647 3509 3647 2328 
Q 3647 1150 3233 529 
Q 2819 -91 2034 -91 
Q 1250 -91 836 529 
Q 422 1150 422 2328 
Q 422 3509 836 4129 
Q 1250 4750 2034 4750 
z
" transform="scale(0.015625)"/>
        <path id="DejaVuSans-2e" d="M 684 794 
L 1344 794 
L 1344 0 
L 684 0 
L 684 794 
z
" transform="scale(0.015625)"/>
       </defs>
       <use xlink:href="#DejaVuSans-30"/>
       <use xlink:href="#DejaVuSans-2e" x="63.623047"/>
       <use xlink:href="#DejaVuSans-30" x="95.410156"/>
      </g>
     </g>
    </g>
    <g id="xtick_2">
     <g id="line2d_2">
      <g>
       <use xlink:href="#ma7b439993e" x="102.09375" y="174.04" style="stroke: #000000; stroke-width: 0.8"/>
      </g>
     </g>
     <g id="text_2">
      <!-- 0.5 -->
      <g transform="translate(94.142188 188.638438)scale(0.1 -0.1)">
       <defs>
        <path id="DejaVuSans-35" d="M 691 4666 
L 3169 4666 
L 3169 4134 
L 1269 4134 
L 1269 2991 
Q 1406 3038 1543 3061 
Q 1681 3084 1819 3084 
Q 2600 3084 3056 2656 
Q 3513 2228 3513 1497 
Q 3513 744 3044 326 
Q 2575 -91 1722 -91 
Q 1428 -91 1123 -41 
Q 819 9 494 109 
L 494 744 
Q 775 591 1075 516 
Q 1375 441 1709 441 
Q 2250 441 2565 725 
Q 2881 1009 2881 1497 
Q 2881 1984 2565 2268 
Q 2250 2553 1709 2553 
Q 1456 2553 1204 2497 
Q 953 2441 691 2322 
L 691 4666 
z
" transform="scale(0.015625)"/>
       </defs>
       <use xlink:href="#DejaVuSans-30"/>
       <use xlink:href="#DejaVuSans-2e" x="63.623047"/>
       <use xlink:href="#DejaVuSans-35" x="95.410156"/>
      </g>
     </g>
    </g>
    <g id="xtick_3">
     <g id="line2d_3">
      <g>
       <use xlink:href="#ma7b439993e" x="156.4675" y="174.04" style="stroke: #000000; stroke-width: 0.8"/>
      </g>
     </g>
     <g id="text_3">
      <!-- 1.0 -->
      <g transform="translate(148.515938 188.638438)scale(0.1 -0.1)">
       <defs>
        <path id="DejaVuSans-31" d="M 794 531 
L 1825 531 
L 1825 4091 
L 703 3866 
L 703 4441 
L 1819 4666 
L 2450 4666 
L 2450 531 
L 3481 531 
L 3481 0 
L 794 0 
L 794 531 
z
" transform="scale(0.015625)"/>
       </defs>
       <use xlink:href="#DejaVuSans-31"/>
       <use xlink:href="#DejaVuSans-2e" x="63.623047"/>
       <use xlink:href="#DejaVuSans-30" x="95.410156"/>
      </g>
     </g>
    </g>
    <g id="xtick_4">
     <g id="line2d_4">
      <g>
       <use xlink:href="#ma7b439993e" x="210.84125" y="174.04" style="stroke: #000000; stroke-width: 0.8"/>
      </g>
     </g>
     <g id="text_4">
      <!-- 1.5 -->
      <g transform="translate(202.889687 188.638438)scale(0.1 -0.1)">
       <use xlink:href="#DejaVuSans-31"/>
       <use xlink:href="#DejaVuSans-2e" x="63.623047"/>
       <use xlink:href="#DejaVuSans-35" x="95.410156"/>
      </g>
     </g>
    </g>
    <g id="xtick_5">
     <g id="line2d_5">
      <g>
       <use xlink:href="#ma7b439993e" x="265.215" y="174.04" style="stroke: #000000; stroke-width: 0.8"/>
      </g>
     </g>
     <g id="text_5">
      <!-- 2.0 -->
      <g transform="translate(257.263437 188.638438)scale(0.1 -0.1)">
       <defs>
        <path id="DejaVuSans-32" d="M 1228 531 
L 3431 531 
L 3431 0 
L 469 0 
L 469 531 
Q 828 903 1448 1529 
Q 2069 2156 2228 2338 
Q 2531 2678 2651 2914 
Q 2772 3150 2772 3378 
Q 2772 3750 2511 3984 
Q 2250 4219 1831 4219 
Q 1534 4219 1204 4116 
Q 875 4013 500 3803 
L 500 4441 
Q 881 4594 1212 4672 
Q 1544 4750 1819 4750 
Q 2544 4750 2975 4387 
Q 3406 4025 3406 3419 
Q 3406 3131 3298 2873 
Q 3191 2616 2906 2266 
Q 2828 2175 2409 1742 
Q 1991 1309 1228 531 
z
" transform="scale(0.015625)"/>
       </defs>
       <use xlink:href="#DejaVuSans-32"/>
       <use xlink:href="#DejaVuSans-2e" x="63.623047"/>
       <use xlink:href="#DejaVuSans-30" x="95.410156"/>
      </g>
     </g>
    </g>
    <g id="text_6">
     <!-- Influence of surprisal (multiplication) -->
     <g transform="translate(64.320625 202.316563)scale(0.1 -0.1)">
      <defs>
       <path id="DejaVuSans-49" d="M 628 4666 
L 1259 4666 
L 1259 0 
L 628 0 
L 628 4666 
z
" transform="scale(0.015625)"/>
       <path id="DejaVuSans-6e" d="M 3513 2113 
L 3513 0 
L 2938 0 
L 2938 2094 
Q 2938 2591 2744 2837 
Q 2550 3084 2163 3084 
Q 1697 3084 1428 2787 
Q 1159 2491 1159 1978 
L 1159 0 
L 581 0 
L 581 3500 
L 1159 3500 
L 1159 2956 
Q 1366 3272 1645 3428 
Q 1925 3584 2291 3584 
Q 2894 3584 3203 3211 
Q 3513 2838 3513 2113 
z
" transform="scale(0.015625)"/>
       <path id="DejaVuSans-66" d="M 2375 4863 
L 2375 4384 
L 1825 4384 
Q 1516 4384 1395 4259 
Q 1275 4134 1275 3809 
L 1275 3500 
L 2222 3500 
L 2222 3053 
L 1275 3053 
L 1275 0 
L 697 0 
L 697 3053 
L 147 3053 
L 147 3500 
L 697 3500 
L 697 3744 
Q 697 4328 969 4595 
Q 1241 4863 1831 4863 
L 2375 4863 
z
" transform="scale(0.015625)"/>
       <path id="DejaVuSans-6c" d="M 603 4863 
L 1178 4863 
L 1178 0 
L 603 0 
L 603 4863 
z
" transform="scale(0.015625)"/>
       <path id="DejaVuSans-75" d="M 544 1381 
L 544 3500 
L 1119 3500 
L 1119 1403 
Q 1119 906 1312 657 
Q 1506 409 1894 409 
Q 2359 409 2629 706 
Q 2900 1003 2900 1516 
L 2900 3500 
L 3475 3500 
L 3475 0 
L 2900 0 
L 2900 538 
Q 2691 219 2414 64 
Q 2138 -91 1772 -91 
Q 1169 -91 856 284 
Q 544 659 544 1381 
z
M 1991 3584 
L 1991 3584 
z
" transform="scale(0.015625)"/>
       <path id="DejaVuSans-65" d="M 3597 1894 
L 3597 1613 
L 953 1613 
Q 991 1019 1311 708 
Q 1631 397 2203 397 
Q 2534 397 2845 478 
Q 3156 559 3463 722 
L 3463 178 
Q 3153 47 2828 -22 
Q 2503 -91 2169 -91 
Q 1331 -91 842 396 
Q 353 884 353 1716 
Q 353 2575 817 3079 
Q 1281 3584 2069 3584 
Q 2775 3584 3186 3129 
Q 3597 2675 3597 1894 
z
M 3022 2063 
Q 3016 2534 2758 2815 
Q 2500 3097 2075 3097 
Q 1594 3097 1305 2825 
Q 1016 2553 972 2059 
L 3022 2063 
z
" transform="scale(0.015625)"/>
       <path id="DejaVuSans-63" d="M 3122 3366 
L 3122 2828 
Q 2878 2963 2633 3030 
Q 2388 3097 2138 3097 
Q 1578 3097 1268 2742 
Q 959 2388 959 1747 
Q 959 1106 1268 751 
Q 1578 397 2138 397 
Q 2388 397 2633 464 
Q 2878 531 3122 666 
L 3122 134 
Q 2881 22 2623 -34 
Q 2366 -91 2075 -91 
Q 1284 -91 818 406 
Q 353 903 353 1747 
Q 353 2603 823 3093 
Q 1294 3584 2113 3584 
Q 2378 3584 2631 3529 
Q 2884 3475 3122 3366 
z
" transform="scale(0.015625)"/>
       <path id="DejaVuSans-20" transform="scale(0.015625)"/>
       <path id="DejaVuSans-6f" d="M 1959 3097 
Q 1497 3097 1228 2736 
Q 959 2375 959 1747 
Q 959 1119 1226 758 
Q 1494 397 1959 397 
Q 2419 397 2687 759 
Q 2956 1122 2956 1747 
Q 2956 2369 2687 2733 
Q 2419 3097 1959 3097 
z
M 1959 3584 
Q 2709 3584 3137 3096 
Q 3566 2609 3566 1747 
Q 3566 888 3137 398 
Q 2709 -91 1959 -91 
Q 1206 -91 779 398 
Q 353 888 353 1747 
Q 353 2609 779 3096 
Q 1206 3584 1959 3584 
z
" transform="scale(0.015625)"/>
       <path id="DejaVuSans-73" d="M 2834 3397 
L 2834 2853 
Q 2591 2978 2328 3040 
Q 2066 3103 1784 3103 
Q 1356 3103 1142 2972 
Q 928 2841 928 2578 
Q 928 2378 1081 2264 
Q 1234 2150 1697 2047 
L 1894 2003 
Q 2506 1872 2764 1633 
Q 3022 1394 3022 966 
Q 3022 478 2636 193 
Q 2250 -91 1575 -91 
Q 1294 -91 989 -36 
Q 684 19 347 128 
L 347 722 
Q 666 556 975 473 
Q 1284 391 1588 391 
Q 1994 391 2212 530 
Q 2431 669 2431 922 
Q 2431 1156 2273 1281 
Q 2116 1406 1581 1522 
L 1381 1569 
Q 847 1681 609 1914 
Q 372 2147 372 2553 
Q 372 3047 722 3315 
Q 1072 3584 1716 3584 
Q 2034 3584 2315 3537 
Q 2597 3491 2834 3397 
z
" transform="scale(0.015625)"/>
       <path id="DejaVuSans-72" d="M 2631 2963 
Q 2534 3019 2420 3045 
Q 2306 3072 2169 3072 
Q 1681 3072 1420 2755 
Q 1159 2438 1159 1844 
L 1159 0 
L 581 0 
L 581 3500 
L 1159 3500 
L 1159 2956 
Q 1341 3275 1631 3429 
Q 1922 3584 2338 3584 
Q 2397 3584 2469 3576 
Q 2541 3569 2628 3553 
L 2631 2963 
z
" transform="scale(0.015625)"/>
       <path id="DejaVuSans-70" d="M 1159 525 
L 1159 -1331 
L 581 -1331 
L 581 3500 
L 1159 3500 
L 1159 2969 
Q 1341 3281 1617 3432 
Q 1894 3584 2278 3584 
Q 2916 3584 3314 3078 
Q 3713 2572 3713 1747 
Q 3713 922 3314 415 
Q 2916 -91 2278 -91 
Q 1894 -91 1617 61 
Q 1341 213 1159 525 
z
M 3116 1747 
Q 3116 2381 2855 2742 
Q 2594 3103 2138 3103 
Q 1681 3103 1420 2742 
Q 1159 2381 1159 1747 
Q 1159 1113 1420 752 
Q 1681 391 2138 391 
Q 2594 391 2855 752 
Q 3116 1113 3116 1747 
z
" transform="scale(0.015625)"/>
       <path id="DejaVuSans-69" d="M 603 3500 
L 1178 3500 
L 1178 0 
L 603 0 
L 603 3500 
z
M 603 4863 
L 1178 4863 
L 1178 4134 
L 603 4134 
L 603 4863 
z
" transform="scale(0.015625)"/>
       <path id="DejaVuSans-61" d="M 2194 1759 
Q 1497 1759 1228 1600 
Q 959 1441 959 1056 
Q 959 750 1161 570 
Q 1363 391 1709 391 
Q 2188 391 2477 730 
Q 2766 1069 2766 1631 
L 2766 1759 
L 2194 1759 
z
M 3341 1997 
L 3341 0 
L 2766 0 
L 2766 531 
Q 2569 213 2275 61 
Q 1981 -91 1556 -91 
Q 1019 -91 701 211 
Q 384 513 384 1019 
Q 384 1609 779 1909 
Q 1175 2209 1959 2209 
L 2766 2209 
L 2766 2266 
Q 2766 2663 2505 2880 
Q 2244 3097 1772 3097 
Q 1472 3097 1187 3025 
Q 903 2953 641 2809 
L 641 3341 
Q 956 3463 1253 3523 
Q 1550 3584 1831 3584 
Q 2591 3584 2966 3190 
Q 3341 2797 3341 1997 
z
" transform="scale(0.015625)"/>
       <path id="DejaVuSans-28" d="M 1984 4856 
Q 1566 4138 1362 3434 
Q 1159 2731 1159 2009 
Q 1159 1288 1364 580 
Q 1569 -128 1984 -844 
L 1484 -844 
Q 1016 -109 783 600 
Q 550 1309 550 2009 
Q 550 2706 781 3412 
Q 1013 4119 1484 4856 
L 1984 4856 
z
" transform="scale(0.015625)"/>
       <path id="DejaVuSans-6d" d="M 3328 2828 
Q 3544 3216 3844 3400 
Q 4144 3584 4550 3584 
Q 5097 3584 5394 3201 
Q 5691 2819 5691 2113 
L 5691 0 
L 5113 0 
L 5113 2094 
Q 5113 2597 4934 2840 
Q 4756 3084 4391 3084 
Q 3944 3084 3684 2787 
Q 3425 2491 3425 1978 
L 3425 0 
L 2847 0 
L 2847 2094 
Q 2847 2600 2669 2842 
Q 2491 3084 2119 3084 
Q 1678 3084 1418 2786 
Q 1159 2488 1159 1978 
L 1159 0 
L 581 0 
L 581 3500 
L 1159 3500 
L 1159 2956 
Q 1356 3278 1631 3431 
Q 1906 3584 2284 3584 
Q 2666 3584 2933 3390 
Q 3200 3197 3328 2828 
z
" transform="scale(0.015625)"/>
       <path id="DejaVuSans-74" d="M 1172 4494 
L 1172 3500 
L 2356 3500 
L 2356 3053 
L 1172 3053 
L 1172 1153 
Q 1172 725 1289 603 
Q 1406 481 1766 481 
L 2356 481 
L 2356 0 
L 1766 0 
Q 1100 0 847 248 
Q 594 497 594 1153 
L 594 3053 
L 172 3053 
L 172 3500 
L 594 3500 
L 594 4494 
L 1172 4494 
z
" transform="scale(0.015625)"/>
       <path id="DejaVuSans-29" d="M 513 4856 
L 1013 4856 
Q 1481 4119 1714 3412 
Q 1947 2706 1947 2009 
Q 1947 1309 1714 600 
Q 1481 -109 1013 -844 
L 513 -844 
Q 928 -128 1133 580 
Q 1338 1288 1338 2009 
Q 1338 2731 1133 3434 
Q 928 4138 513 4856 
z
" transform="scale(0.015625)"/>
      </defs>
      <use xlink:href="#DejaVuSans-49"/>
      <use xlink:href="#DejaVuSans-6e" x="29.492188"/>
      <use xlink:href="#DejaVuSans-66" x="92.871094"/>
      <use xlink:href="#DejaVuSans-6c" x="128.076172"/>
      <use xlink:href="#DejaVuSans-75" x="155.859375"/>
      <use xlink:href="#DejaVuSans-65" x="219.238281"/>
      <use xlink:href="#DejaVuSans-6e" x="280.761719"/>
      <use xlink:href="#DejaVuSans-63" x="344.140625"/>
      <use xlink:href="#DejaVuSans-65" x="399.121094"/>
      <use xlink:href="#DejaVuSans-20" x="460.644531"/>
      <use xlink:href="#DejaVuSans-6f" x="492.431641"/>
      <use xlink:href="#DejaVuSans-66" x="553.613281"/>
      <use xlink:href="#DejaVuSans-20" x="588.818359"/>
      <use xlink:href="#DejaVuSans-73" x="620.605469"/>
      <use xlink:href="#DejaVuSans-75" x="672.705078"/>
      <use xlink:href="#DejaVuSans-72" x="736.083984"/>
      <use xlink:href="#DejaVuSans-70" x="777.197266"/>
      <use xlink:href="#DejaVuSans-72" x="840.673828"/>
      <use xlink:href="#DejaVuSans-69" x="881.787109"/>
      <use xlink:href="#DejaVuSans-73" x="909.570312"/>
      <use xlink:href="#DejaVuSans-61" x="961.669922"/>
      <use xlink:href="#DejaVuSans-6c" x="1022.949219"/>
      <use xlink:href="#DejaVuSans-20" x="1050.732422"/>
      <use xlink:href="#DejaVuSans-28" x="1082.519531"/>
      <use xlink:href="#DejaVuSans-6d" x="1121.533203"/>
      <use xlink:href="#DejaVuSans-75" x="1218.945312"/>
      <use xlink:href="#DejaVuSans-6c" x="1282.324219"/>
      <use xlink:href="#DejaVuSans-74" x="1310.107422"/>
      <use xlink:href="#DejaVuSans-69" x="1349.316406"/>
      <use xlink:href="#DejaVuSans-70" x="1377.099609"/>
      <use xlink:href="#DejaVuSans-6c" x="1440.576172"/>
      <use xlink:href="#DejaVuSans-69" x="1468.359375"/>
      <use xlink:href="#DejaVuSans-63" x="1496.142578"/>
      <use xlink:href="#DejaVuSans-61" x="1551.123047"/>
      <use xlink:href="#DejaVuSans-74" x="1612.402344"/>
      <use xlink:href="#DejaVuSans-69" x="1651.611328"/>
      <use xlink:href="#DejaVuSans-6f" x="1679.394531"/>
      <use xlink:href="#DejaVuSans-6e" x="1740.576172"/>
      <use xlink:href="#DejaVuSans-29" x="1803.955078"/>
     </g>
    </g>
   </g>
   <g id="matplotlib.axis_2">
    <g id="ytick_1">
     <g id="line2d_6">
      <defs>
       <path id="m7a7c637ae9" d="M 0 0 
L -3.5 0 
" style="stroke: #000000; stroke-width: 0.8"/>
      </defs>
      <g>
       <use xlink:href="#m7a7c637ae9" x="47.72" y="154.013683" style="stroke: #000000; stroke-width: 0.8"/>
      </g>
     </g>
     <g id="text_7">
      <!-- 0.2 -->
      <g transform="translate(24.816875 157.812902)scale(0.1 -0.1)">
       <use xlink:href="#DejaVuSans-30"/>
       <use xlink:href="#DejaVuSans-2e" x="63.623047"/>
       <use xlink:href="#DejaVuSans-32" x="95.410156"/>
      </g>
     </g>
    </g>
    <g id="ytick_2">
     <g id="line2d_7">
      <g>
       <use xlink:href="#m7a7c637ae9" x="47.72" y="121.870924" style="stroke: #000000; stroke-width: 0.8"/>
      </g>
     </g>
     <g id="text_8">
      <!-- 0.4 -->
      <g transform="translate(24.816875 125.670143)scale(0.1 -0.1)">
       <defs>
        <path id="DejaVuSans-34" d="M 2419 4116 
L 825 1625 
L 2419 1625 
L 2419 4116 
z
M 2253 4666 
L 3047 4666 
L 3047 1625 
L 3713 1625 
L 3713 1100 
L 3047 1100 
L 3047 0 
L 2419 0 
L 2419 1100 
L 313 1100 
L 313 1709 
L 2253 4666 
z
" transform="scale(0.015625)"/>
       </defs>
       <use xlink:href="#DejaVuSans-30"/>
       <use xlink:href="#DejaVuSans-2e" x="63.623047"/>
       <use xlink:href="#DejaVuSans-34" x="95.410156"/>
      </g>
     </g>
    </g>
    <g id="ytick_3">
     <g id="line2d_8">
      <g>
       <use xlink:href="#m7a7c637ae9" x="47.72" y="89.728165" style="stroke: #000000; stroke-width: 0.8"/>
      </g>
     </g>
     <g id="text_9">
      <!-- 0.6 -->
      <g transform="translate(24.816875 93.527384)scale(0.1 -0.1)">
       <defs>
        <path id="DejaVuSans-36" d="M 2113 2584 
Q 1688 2584 1439 2293 
Q 1191 2003 1191 1497 
Q 1191 994 1439 701 
Q 1688 409 2113 409 
Q 2538 409 2786 701 
Q 3034 994 3034 1497 
Q 3034 2003 2786 2293 
Q 2538 2584 2113 2584 
z
M 3366 4563 
L 3366 3988 
Q 3128 4100 2886 4159 
Q 2644 4219 2406 4219 
Q 1781 4219 1451 3797 
Q 1122 3375 1075 2522 
Q 1259 2794 1537 2939 
Q 1816 3084 2150 3084 
Q 2853 3084 3261 2657 
Q 3669 2231 3669 1497 
Q 3669 778 3244 343 
Q 2819 -91 2113 -91 
Q 1303 -91 875 529 
Q 447 1150 447 2328 
Q 447 3434 972 4092 
Q 1497 4750 2381 4750 
Q 2619 4750 2861 4703 
Q 3103 4656 3366 4563 
z
" transform="scale(0.015625)"/>
       </defs>
       <use xlink:href="#DejaVuSans-30"/>
       <use xlink:href="#DejaVuSans-2e" x="63.623047"/>
       <use xlink:href="#DejaVuSans-36" x="95.410156"/>
      </g>
     </g>
    </g>
    <g id="ytick_4">
     <g id="line2d_9">
      <g>
       <use xlink:href="#m7a7c637ae9" x="47.72" y="57.585406" style="stroke: #000000; stroke-width: 0.8"/>
      </g>
     </g>
     <g id="text_10">
      <!-- 0.8 -->
      <g transform="translate(24.816875 61.384625)scale(0.1 -0.1)">
       <defs>
        <path id="DejaVuSans-38" d="M 2034 2216 
Q 1584 2216 1326 1975 
Q 1069 1734 1069 1313 
Q 1069 891 1326 650 
Q 1584 409 2034 409 
Q 2484 409 2743 651 
Q 3003 894 3003 1313 
Q 3003 1734 2745 1975 
Q 2488 2216 2034 2216 
z
M 1403 2484 
Q 997 2584 770 2862 
Q 544 3141 544 3541 
Q 544 4100 942 4425 
Q 1341 4750 2034 4750 
Q 2731 4750 3128 4425 
Q 3525 4100 3525 3541 
Q 3525 3141 3298 2862 
Q 3072 2584 2669 2484 
Q 3125 2378 3379 2068 
Q 3634 1759 3634 1313 
Q 3634 634 3220 271 
Q 2806 -91 2034 -91 
Q 1263 -91 848 271 
Q 434 634 434 1313 
Q 434 1759 690 2068 
Q 947 2378 1403 2484 
z
M 1172 3481 
Q 1172 3119 1398 2916 
Q 1625 2713 2034 2713 
Q 2441 2713 2670 2916 
Q 2900 3119 2900 3481 
Q 2900 3844 2670 4047 
Q 2441 4250 2034 4250 
Q 1625 4250 1398 4047 
Q 1172 3844 1172 3481 
z
" transform="scale(0.015625)"/>
       </defs>
       <use xlink:href="#DejaVuSans-30"/>
       <use xlink:href="#DejaVuSans-2e" x="63.623047"/>
       <use xlink:href="#DejaVuSans-38" x="95.410156"/>
      </g>
     </g>
    </g>
    <g id="text_11">
     <!-- R-value -->
     <g transform="translate(18.737188 119.064687)rotate(-90)scale(0.1 -0.1)">
      <defs>
       <path id="DejaVuSans-52" d="M 2841 2188 
Q 3044 2119 3236 1894 
Q 3428 1669 3622 1275 
L 4263 0 
L 3584 0 
L 2988 1197 
Q 2756 1666 2539 1819 
Q 2322 1972 1947 1972 
L 1259 1972 
L 1259 0 
L 628 0 
L 628 4666 
L 2053 4666 
Q 2853 4666 3247 4331 
Q 3641 3997 3641 3322 
Q 3641 2881 3436 2590 
Q 3231 2300 2841 2188 
z
M 1259 4147 
L 1259 2491 
L 2053 2491 
Q 2509 2491 2742 2702 
Q 2975 2913 2975 3322 
Q 2975 3731 2742 3939 
Q 2509 4147 2053 4147 
L 1259 4147 
z
" transform="scale(0.015625)"/>
       <path id="DejaVuSans-2d" d="M 313 2009 
L 1997 2009 
L 1997 1497 
L 313 1497 
L 313 2009 
z
" transform="scale(0.015625)"/>
       <path id="DejaVuSans-76" d="M 191 3500 
L 800 3500 
L 1894 563 
L 2988 3500 
L 3597 3500 
L 2284 0 
L 1503 0 
L 191 3500 
z
" transform="scale(0.015625)"/>
      </defs>
      <use xlink:href="#DejaVuSans-52"/>
      <use xlink:href="#DejaVuSans-2d" x="65.482422"/>
      <use xlink:href="#DejaVuSans-76" x="98.941406"/>
      <use xlink:href="#DejaVuSans-61" x="158.121094"/>
      <use xlink:href="#DejaVuSans-6c" x="219.400391"/>
      <use xlink:href="#DejaVuSans-75" x="247.183594"/>
      <use xlink:href="#DejaVuSans-65" x="310.5625"/>
     </g>
    </g>
   </g>
   <g id="line2d_10">
    <path d="M 47.72 34.025954 
L 59.167105 35.82867 
L 70.614211 41.964758 
L 82.061316 48.909254 
L 93.508421 57.808116 
L 104.955526 66.731155 
L 116.402632 76.305731 
L 127.849737 85.686279 
L 139.296842 94.951544 
L 150.743947 102.962701 
L 162.191053 111.348168 
L 173.638158 118.180659 
L 185.085263 124.343248 
L 196.532368 130.699262 
L 207.979474 135.92381 
L 219.426579 140.284684 
L 230.873684 144.626728 
L 242.320789 147.972523 
L 253.767895 151.199453 
L 265.215 153.577737 
" clip-path="url(#pb3a18faf2d)" style="fill: none; stroke: #1f77b4; stroke-width: 1.5; stroke-linecap: square"/>
   </g>
   <g id="line2d_11">
    <path d="M 47.72 34.034243 
L 59.167105 35.237377 
L 70.614211 38.956772 
L 82.061316 43.254794 
L 93.508421 49.715754 
L 104.955526 56.629847 
L 116.402632 64.515252 
L 127.849737 72.824643 
L 139.296842 80.99758 
L 150.743947 89.031585 
L 162.191053 97.299822 
L 173.638158 104.483279 
L 185.085263 110.952576 
L 196.532368 118.110573 
L 207.979474 123.878945 
L 219.426579 128.889023 
L 230.873684 133.646031 
L 242.320789 137.687153 
L 253.767895 141.477104 
L 265.215 144.286611 
" clip-path="url(#pb3a18faf2d)" style="fill: none; stroke: #ff7f0e; stroke-width: 1.5; stroke-linecap: square"/>
   </g>
   <g id="line2d_12">
    <path d="M 47.72 34.034258 
L 59.167105 35.484612 
L 70.614211 38.392616 
L 82.061316 41.257621 
L 93.508421 45.260496 
L 104.955526 49.121731 
L 116.402632 53.753305 
L 127.849737 58.097463 
L 139.296842 61.889377 
L 150.743947 66.45061 
L 162.191053 70.832684 
L 173.638158 74.871294 
L 185.085263 78.495529 
L 196.532368 83.115052 
L 207.979474 87.344235 
L 219.426579 91.081443 
L 230.873684 95.257051 
L 242.320789 99.281298 
L 253.767895 102.607499 
L 265.215 106.497395 
" clip-path="url(#pb3a18faf2d)" style="fill: none; stroke: #2ca02c; stroke-width: 1.5; stroke-linecap: square"/>
   </g>
   <g id="line2d_13">
    <path d="M 47.72 34.04041 
L 59.167105 35.192923 
L 70.614211 37.551922 
L 82.061316 39.826807 
L 93.508421 43.479905 
L 104.955526 47.181827 
L 116.402632 51.687529 
L 127.849737 56.180839 
L 139.296842 60.196658 
L 150.743947 64.875245 
L 162.191053 69.459129 
L 173.638158 73.577782 
L 185.085263 77.400155 
L 196.532368 82.008245 
L 207.979474 86.273436 
L 219.426579 89.950687 
L 230.873684 94.032872 
L 242.320789 97.800459 
L 253.767895 100.872161 
L 265.215 104.812314 
" clip-path="url(#pb3a18faf2d)" style="fill: none; stroke: #d62728; stroke-width: 1.5; stroke-linecap: square"/>
   </g>
   <g id="line2d_14">
    <path d="M 47.72 34.037567 
L 59.167105 35.84889 
L 70.614211 41.978874 
L 82.061316 48.991145 
L 93.508421 57.846388 
L 104.955526 66.787794 
L 116.402632 76.329419 
L 127.849737 85.78099 
L 139.296842 94.996596 
L 150.743947 103.213559 
L 162.191053 112.074716 
L 173.638158 118.612 
L 185.085263 125.385806 
L 196.532368 131.394232 
L 207.979474 136.298822 
L 219.426579 140.666425 
L 230.873684 144.962478 
L 242.320789 148.711067 
L 253.767895 151.803966 
L 265.215 154.951325 
" clip-path="url(#pb3a18faf2d)" style="fill: none; stroke: #9467bd; stroke-width: 1.5; stroke-linecap: square"/>
   </g>
   <g id="line2d_15">
    <path d="M 47.72 34.045928 
L 59.167105 35.255005 
L 70.614211 38.968467 
L 82.061316 43.28508 
L 93.508421 49.726863 
L 104.955526 56.673595 
L 116.402632 64.504346 
L 127.849737 72.948669 
L 139.296842 81.067465 
L 150.743947 89.239173 
L 162.191053 97.835823 
L 173.638158 104.853409 
L 185.085263 111.794496 
L 196.532368 118.507447 
L 207.979474 124.216036 
L 219.426579 129.166754 
L 230.873684 133.769092 
L 242.320789 138.196457 
L 253.767895 141.953019 
L 265.215 145.40722 
" clip-path="url(#pb3a18faf2d)" style="fill: none; stroke: #8c564b; stroke-width: 1.5; stroke-linecap: square"/>
   </g>
   <g id="line2d_16">
    <path d="M 47.72 45.91696 
L 59.167105 48.676653 
L 70.614211 55.581482 
L 82.061316 64.415944 
L 93.508421 74.868873 
L 104.955526 84.836068 
L 116.402632 94.772382 
L 127.849737 103.873034 
L 139.296842 112.76044 
L 150.743947 120.110067 
L 162.191053 127.792077 
L 173.638158 133.878979 
L 185.085263 139.329978 
L 196.532368 144.920176 
L 207.979474 149.418256 
L 219.426579 153.335866 
L 230.873684 156.979853 
L 242.320789 159.894974 
L 253.767895 162.314895 
L 265.215 164.3102 
" clip-path="url(#pb3a18faf2d)" style="fill: none; stroke: #e377c2; stroke-width: 1.5; stroke-linecap: square"/>
   </g>
   <g id="line2d_17">
    <path d="M 47.72 34.048549 
L 59.167105 34.579143 
L 70.614211 35.521919 
L 82.061316 37.365206 
L 93.508421 41.497299 
L 104.955526 46.843728 
L 116.402632 53.650489 
L 127.849737 61.077073 
L 139.296842 68.076582 
L 150.743947 75.945203 
L 162.191053 83.665152 
L 173.638158 90.902236 
L 185.085263 97.396047 
L 196.532368 104.866837 
L 207.979474 111.113671 
L 219.426579 117.005742 
L 230.873684 122.433263 
L 242.320789 127.275873 
L 253.767895 131.519906 
L 265.215 135.479838 
" clip-path="url(#pb3a18faf2d)" style="fill: none; stroke: #7f7f7f; stroke-width: 1.5; stroke-linecap: square"/>
   </g>
   <g id="patch_3">
    <path d="M 47.72 174.04 
L 47.72 26.88 
" style="fill: none; stroke: #000000; stroke-width: 0.8; stroke-linejoin: miter; stroke-linecap: square"/>
   </g>
   <g id="patch_4">
    <path d="M 47.72 174.04 
L 265.215 174.04 
" style="fill: none; stroke: #000000; stroke-width: 0.8; stroke-linejoin: miter; stroke-linecap: square"/>
   </g>
   <g id="text_12">
    <!-- Node * surprisal -->
    <g transform="translate(108.18625 20.88)scale(0.12 -0.12)">
     <defs>
      <path id="DejaVuSans-4e" d="M 628 4666 
L 1478 4666 
L 3547 763 
L 3547 4666 
L 4159 4666 
L 4159 0 
L 3309 0 
L 1241 3903 
L 1241 0 
L 628 0 
L 628 4666 
z
" transform="scale(0.015625)"/>
      <path id="DejaVuSans-64" d="M 2906 2969 
L 2906 4863 
L 3481 4863 
L 3481 0 
L 2906 0 
L 2906 525 
Q 2725 213 2448 61 
Q 2172 -91 1784 -91 
Q 1150 -91 751 415 
Q 353 922 353 1747 
Q 353 2572 751 3078 
Q 1150 3584 1784 3584 
Q 2172 3584 2448 3432 
Q 2725 3281 2906 2969 
z
M 947 1747 
Q 947 1113 1208 752 
Q 1469 391 1925 391 
Q 2381 391 2643 752 
Q 2906 1113 2906 1747 
Q 2906 2381 2643 2742 
Q 2381 3103 1925 3103 
Q 1469 3103 1208 2742 
Q 947 2381 947 1747 
z
" transform="scale(0.015625)"/>
      <path id="DejaVuSans-2a" d="M 3009 3897 
L 1888 3291 
L 3009 2681 
L 2828 2375 
L 1778 3009 
L 1778 1831 
L 1422 1831 
L 1422 3009 
L 372 2375 
L 191 2681 
L 1313 3291 
L 191 3897 
L 372 4206 
L 1422 3572 
L 1422 4750 
L 1778 4750 
L 1778 3572 
L 2828 4206 
L 3009 3897 
z
" transform="scale(0.015625)"/>
     </defs>
     <use xlink:href="#DejaVuSans-4e"/>
     <use xlink:href="#DejaVuSans-6f" x="74.804688"/>
     <use xlink:href="#DejaVuSans-64" x="135.986328"/>
     <use xlink:href="#DejaVuSans-65" x="199.462891"/>
     <use xlink:href="#DejaVuSans-20" x="260.986328"/>
     <use xlink:href="#DejaVuSans-2a" x="292.773438"/>
     <use xlink:href="#DejaVuSans-20" x="342.773438"/>
     <use xlink:href="#DejaVuSans-73" x="374.560547"/>
     <use xlink:href="#DejaVuSans-75" x="426.660156"/>
     <use xlink:href="#DejaVuSans-72" x="490.039062"/>
     <use xlink:href="#DejaVuSans-70" x="531.152344"/>
     <use xlink:href="#DejaVuSans-72" x="594.628906"/>
     <use xlink:href="#DejaVuSans-69" x="635.742188"/>
     <use xlink:href="#DejaVuSans-73" x="663.525391"/>
     <use xlink:href="#DejaVuSans-61" x="715.625"/>
     <use xlink:href="#DejaVuSans-6c" x="776.904297"/>
    </g>
   </g>
  </g>
  <g id="axes_2">
   <g id="patch_5">
    <path d="M 298.065 174.04 
L 515.56 174.04 
L 515.56 26.88 
L 298.065 26.88 
z
" style="fill: #ffffff"/>
   </g>
   <g id="PolyCollection_9">
    <path d="M 298.065 33.569091 
L 298.065 34.483688 
L 309.512105 36.601089 
L 320.959211 43.128809 
L 332.406316 51.786949 
L 343.853421 62.037171 
L 355.300526 73.105461 
L 366.747632 82.75131 
L 378.194737 93.889316 
L 389.641842 101.710007 
L 401.088947 110.752746 
L 412.536053 117.358543 
L 423.983158 123.357544 
L 435.430263 130.208373 
L 446.877368 135.556331 
L 458.324474 141.156195 
L 469.771579 145.754011 
L 481.218684 149.352573 
L 492.665789 154.212784 
L 504.112895 156.679623 
L 515.56 159.295757 
L 515.56 144.81253 
L 515.56 144.81253 
L 504.112895 142.021404 
L 492.665789 138.939162 
L 481.218684 135.371017 
L 469.771579 132.257516 
L 458.324474 127.978386 
L 446.877368 122.940483 
L 435.430263 117.714936 
L 423.983158 111.769416 
L 412.536053 104.796766 
L 401.088947 98.088412 
L 389.641842 90.590403 
L 378.194737 81.59863 
L 366.747632 72.504302 
L 355.300526 64.029518 
L 343.853421 54.628134 
L 332.406316 46.427484 
L 320.959211 40.292689 
L 309.512105 35.47547 
L 298.065 33.569091 
z
" clip-path="url(#pf023c835b0)" style="fill: #1f77b4; fill-opacity: 0.4"/>
   </g>
   <g id="PolyCollection_10">
    <path d="M 298.065 33.580532 
L 298.065 34.494432 
L 309.512105 36.612531 
L 320.959211 43.149784 
L 332.406316 51.808533 
L 343.853421 62.075832 
L 355.300526 73.12147 
L 366.747632 82.764938 
L 378.194737 93.882478 
L 389.641842 101.665327 
L 401.088947 110.746648 
L 412.536053 117.278776 
L 423.983158 123.277833 
L 435.430263 130.19774 
L 446.877368 135.534232 
L 458.324474 141.170231 
L 469.771579 145.838867 
L 481.218684 149.342804 
L 492.665789 154.203981 
L 504.112895 156.752112 
L 515.56 159.289804 
L 515.56 145.504143 
L 515.56 145.504143 
L 504.112895 142.66827 
L 492.665789 139.6259 
L 481.218684 136.063109 
L 469.771579 132.602348 
L 458.324474 128.310439 
L 446.877368 123.181952 
L 435.430263 117.787054 
L 423.983158 111.878918 
L 412.536053 104.883073 
L 401.088947 98.130136 
L 389.641842 90.688901 
L 378.194737 81.679026 
L 366.747632 72.553747 
L 355.300526 64.064588 
L 343.853421 54.66875 
L 332.406316 46.445858 
L 320.959211 40.313595 
L 309.512105 35.481825 
L 298.065 33.580532 
z
" clip-path="url(#pf023c835b0)" style="fill: #ff7f0e; fill-opacity: 0.4"/>
   </g>
   <g id="PolyCollection_11">
    <path d="M 298.065 33.58001 
L 298.065 34.496244 
L 309.512105 36.614605 
L 320.959211 43.157797 
L 332.406316 51.778587 
L 343.853421 62.02305 
L 355.300526 73.129295 
L 366.747632 82.856711 
L 378.194737 94.049467 
L 389.641842 101.942895 
L 401.088947 111.014244 
L 412.536053 117.727308 
L 423.983158 123.836927 
L 435.430263 130.798387 
L 446.877368 136.171828 
L 458.324474 141.649299 
L 469.771579 146.674748 
L 481.218684 150.031106 
L 492.665789 154.804243 
L 504.112895 157.358883 
L 515.56 159.998629 
L 515.56 146.55159 
L 515.56 146.55159 
L 504.112895 143.709287 
L 492.665789 140.545291 
L 481.218684 136.727467 
L 469.771579 133.295295 
L 458.324474 128.92037 
L 446.877368 123.490368 
L 435.430263 118.026519 
L 423.983158 112.060371 
L 412.536053 105.009296 
L 401.088947 98.290502 
L 389.641842 90.683334 
L 378.194737 81.634742 
L 366.747632 72.569105 
L 355.300526 64.028317 
L 343.853421 54.664284 
L 332.406316 46.428931 
L 320.959211 40.311343 
L 309.512105 35.502057 
L 298.065 33.58001 
z
" clip-path="url(#pf023c835b0)" style="fill: #2ca02c; fill-opacity: 0.4"/>
   </g>
   <g id="PolyCollection_12">
    <path d="M 298.065 33.591934 
L 298.065 34.518959 
L 309.512105 36.629236 
L 320.959211 43.16539 
L 332.406316 51.804492 
L 343.853421 62.045055 
L 355.300526 73.135963 
L 366.747632 82.848697 
L 378.194737 93.961798 
L 389.641842 101.779572 
L 401.088947 110.714203 
L 412.536053 117.393148 
L 423.983158 123.438627 
L 435.430263 130.363146 
L 446.877368 135.661624 
L 458.324474 141.134426 
L 469.771579 146.062912 
L 481.218684 149.512669 
L 492.665789 154.255683 
L 504.112895 156.925523 
L 515.56 159.515633 
L 515.56 146.492058 
L 515.56 146.492058 
L 504.112895 143.795004 
L 492.665789 140.629141 
L 481.218684 136.855286 
L 469.771579 133.47593 
L 458.324474 129.117304 
L 446.877368 123.72428 
L 435.430263 118.163628 
L 423.983158 112.269535 
L 412.536053 105.221658 
L 401.088947 98.554984 
L 389.641842 90.899723 
L 378.194737 81.787206 
L 366.747632 72.659605 
L 355.300526 64.097742 
L 343.853421 54.706815 
L 332.406316 46.445239 
L 320.959211 40.323547 
L 309.512105 35.503033 
L 298.065 33.591934 
z
" clip-path="url(#pf023c835b0)" style="fill: #d62728; fill-opacity: 0.4"/>
   </g>
   <g id="PolyCollection_13">
    <path d="M 298.065 33.588601 
L 298.065 34.507865 
L 309.512105 36.609345 
L 320.959211 43.166133 
L 332.406316 51.881025 
L 343.853421 62.05326 
L 355.300526 73.1016 
L 366.747632 83.009672 
L 378.194737 93.83222 
L 389.641842 101.709298 
L 401.088947 111.14533 
L 412.536053 117.706783 
L 423.983158 123.847982 
L 435.430263 130.405881 
L 446.877368 135.540142 
L 458.324474 141.080442 
L 469.771579 146.135453 
L 481.218684 150.038272 
L 492.665789 154.804886 
L 504.112895 157.076637 
L 515.56 160.372781 
L 515.56 145.113227 
L 515.56 145.113227 
L 504.112895 142.936414 
L 492.665789 138.744418 
L 481.218684 135.426817 
L 469.771579 131.95329 
L 458.324474 128.500194 
L 446.877368 123.217959 
L 435.430263 118.185882 
L 423.983158 111.798561 
L 412.536053 104.916269 
L 401.088947 98.365815 
L 389.641842 90.907197 
L 378.194737 81.690089 
L 366.747632 72.534996 
L 355.300526 64.175132 
L 343.853421 54.655447 
L 332.406316 46.479074 
L 320.959211 40.278747 
L 309.512105 35.499526 
L 298.065 33.588601 
z
" clip-path="url(#pf023c835b0)" style="fill: #9467bd; fill-opacity: 0.4"/>
   </g>
   <g id="PolyCollection_14">
    <path d="M 298.065 33.599758 
L 298.065 34.519419 
L 309.512105 36.621493 
L 320.959211 43.18689 
L 332.406316 51.903194 
L 343.853421 62.091097 
L 355.300526 73.124897 
L 366.747632 83.027142 
L 378.194737 93.833622 
L 389.641842 101.669389 
L 401.088947 111.140959 
L 412.536053 117.628972 
L 423.983158 123.754096 
L 435.430263 130.396952 
L 446.877368 135.553167 
L 458.324474 141.110063 
L 469.771579 146.197789 
L 481.218684 150.01753 
L 492.665789 154.831179 
L 504.112895 157.148231 
L 515.56 160.332472 
L 515.56 145.774032 
L 515.56 145.774032 
L 504.112895 143.551458 
L 492.665789 139.347504 
L 481.218684 136.128013 
L 469.771579 132.324294 
L 458.324474 128.79788 
L 446.877368 123.410096 
L 435.430263 118.275526 
L 423.983158 111.948139 
L 412.536053 105.0341 
L 401.088947 98.394438 
L 389.641842 91.00711 
L 378.194737 81.755011 
L 366.747632 72.59115 
L 355.300526 64.212931 
L 343.853421 54.695786 
L 332.406316 46.497285 
L 320.959211 40.30021 
L 309.512105 35.505532 
L 298.065 33.599758 
z
" clip-path="url(#pf023c835b0)" style="fill: #8c564b; fill-opacity: 0.4"/>
   </g>
   <g id="PolyCollection_15">
    <path d="M 298.065 43.679971 
L 298.065 48.041882 
L 309.512105 50.341987 
L 320.959211 55.027642 
L 332.406316 62.783991 
L 343.853421 71.893559 
L 355.300526 82.395496 
L 366.747632 91.032765 
L 378.194737 101.508975 
L 389.641842 108.784155 
L 401.088947 118.090865 
L 412.536053 123.555905 
L 423.983158 129.894259 
L 435.430263 136.314476 
L 446.877368 141.110201 
L 458.324474 146.166255 
L 469.771579 150.396123 
L 481.218684 153.606459 
L 492.665789 158.013279 
L 504.112895 160.374072 
L 515.56 162.684985 
L 515.56 149.881386 
L 515.56 149.881386 
L 504.112895 147.471536 
L 492.665789 144.945767 
L 481.218684 141.752623 
L 469.771579 138.782808 
L 458.324474 134.92585 
L 446.877368 130.327944 
L 435.430263 125.676923 
L 423.983158 119.632636 
L 412.536053 113.36368 
L 401.088947 106.909851 
L 389.641842 99.59868 
L 378.194737 91.172791 
L 366.747632 82.251482 
L 355.300526 73.878513 
L 343.853421 65.431596 
L 332.406316 57.408313 
L 320.959211 51.074345 
L 309.512105 45.633585 
L 298.065 43.679971 
z
" clip-path="url(#pf023c835b0)" style="fill: #e377c2; fill-opacity: 0.4"/>
   </g>
   <g id="PolyCollection_16">
    <path d="M 298.065 33.591858 
L 298.065 34.519586 
L 309.512105 36.632792 
L 320.959211 43.147111 
L 332.406316 51.776235 
L 343.853421 62.047968 
L 355.300526 73.047692 
L 366.747632 82.716155 
L 378.194737 93.788087 
L 389.641842 101.568369 
L 401.088947 110.693686 
L 412.536053 117.240328 
L 423.983158 123.35633 
L 435.430263 130.371565 
L 446.877368 135.748821 
L 458.324474 141.840151 
L 469.771579 146.634538 
L 481.218684 150.126134 
L 492.665789 155.245217 
L 504.112895 158.018958 
L 515.56 160.772178 
L 515.56 145.616169 
L 515.56 145.616169 
L 504.112895 143.007793 
L 492.665789 139.923694 
L 481.218684 136.218748 
L 469.771579 132.925919 
L 458.324474 128.396947 
L 446.877368 123.269753 
L 435.430263 117.878377 
L 423.983158 112.043081 
L 412.536053 104.955807 
L 401.088947 98.208986 
L 389.641842 90.755796 
L 378.194737 81.665524 
L 366.747632 72.557089 
L 355.300526 64.070363 
L 343.853421 54.620879 
L 332.406316 46.401161 
L 320.959211 40.30787 
L 309.512105 35.490324 
L 298.065 33.591858 
z
" clip-path="url(#pf023c835b0)" style="fill: #7f7f7f; fill-opacity: 0.4"/>
   </g>
   <g id="matplotlib.axis_3">
    <g id="xtick_6">
     <g id="line2d_18">
      <g>
       <use xlink:href="#ma7b439993e" x="298.065" y="174.04" style="stroke: #000000; stroke-width: 0.8"/>
      </g>
     </g>
     <g id="text_13">
      <!-- 0.0 -->
      <g transform="translate(290.113437 188.638438)scale(0.1 -0.1)">
       <use xlink:href="#DejaVuSans-30"/>
       <use xlink:href="#DejaVuSans-2e" x="63.623047"/>
       <use xlink:href="#DejaVuSans-30" x="95.410156"/>
      </g>
     </g>
    </g>
    <g id="xtick_7">
     <g id="line2d_19">
      <g>
       <use xlink:href="#ma7b439993e" x="352.43875" y="174.04" style="stroke: #000000; stroke-width: 0.8"/>
      </g>
     </g>
     <g id="text_14">
      <!-- 0.5 -->
      <g transform="translate(344.487187 188.638438)scale(0.1 -0.1)">
       <use xlink:href="#DejaVuSans-30"/>
       <use xlink:href="#DejaVuSans-2e" x="63.623047"/>
       <use xlink:href="#DejaVuSans-35" x="95.410156"/>
      </g>
     </g>
    </g>
    <g id="xtick_8">
     <g id="line2d_20">
      <g>
       <use xlink:href="#ma7b439993e" x="406.8125" y="174.04" style="stroke: #000000; stroke-width: 0.8"/>
      </g>
     </g>
     <g id="text_15">
      <!-- 1.0 -->
      <g transform="translate(398.860937 188.638438)scale(0.1 -0.1)">
       <use xlink:href="#DejaVuSans-31"/>
       <use xlink:href="#DejaVuSans-2e" x="63.623047"/>
       <use xlink:href="#DejaVuSans-30" x="95.410156"/>
      </g>
     </g>
    </g>
    <g id="xtick_9">
     <g id="line2d_21">
      <g>
       <use xlink:href="#ma7b439993e" x="461.18625" y="174.04" style="stroke: #000000; stroke-width: 0.8"/>
      </g>
     </g>
     <g id="text_16">
      <!-- 1.5 -->
      <g transform="translate(453.234687 188.638438)scale(0.1 -0.1)">
       <use xlink:href="#DejaVuSans-31"/>
       <use xlink:href="#DejaVuSans-2e" x="63.623047"/>
       <use xlink:href="#DejaVuSans-35" x="95.410156"/>
      </g>
     </g>
    </g>
    <g id="xtick_10">
     <g id="line2d_22">
      <g>
       <use xlink:href="#ma7b439993e" x="515.56" y="174.04" style="stroke: #000000; stroke-width: 0.8"/>
      </g>
     </g>
     <g id="text_17">
      <!-- 2.0 -->
      <g transform="translate(507.608437 188.638438)scale(0.1 -0.1)">
       <use xlink:href="#DejaVuSans-32"/>
       <use xlink:href="#DejaVuSans-2e" x="63.623047"/>
       <use xlink:href="#DejaVuSans-30" x="95.410156"/>
      </g>
     </g>
    </g>
    <g id="text_18">
     <!-- Influence of surprisal (multiplication) -->
     <g transform="translate(314.665625 202.316563)scale(0.1 -0.1)">
      <use xlink:href="#DejaVuSans-49"/>
      <use xlink:href="#DejaVuSans-6e" x="29.492188"/>
      <use xlink:href="#DejaVuSans-66" x="92.871094"/>
      <use xlink:href="#DejaVuSans-6c" x="128.076172"/>
      <use xlink:href="#DejaVuSans-75" x="155.859375"/>
      <use xlink:href="#DejaVuSans-65" x="219.238281"/>
      <use xlink:href="#DejaVuSans-6e" x="280.761719"/>
      <use xlink:href="#DejaVuSans-63" x="344.140625"/>
      <use xlink:href="#DejaVuSans-65" x="399.121094"/>
      <use xlink:href="#DejaVuSans-20" x="460.644531"/>
      <use xlink:href="#DejaVuSans-6f" x="492.431641"/>
      <use xlink:href="#DejaVuSans-66" x="553.613281"/>
      <use xlink:href="#DejaVuSans-20" x="588.818359"/>
      <use xlink:href="#DejaVuSans-73" x="620.605469"/>
      <use xlink:href="#DejaVuSans-75" x="672.705078"/>
      <use xlink:href="#DejaVuSans-72" x="736.083984"/>
      <use xlink:href="#DejaVuSans-70" x="777.197266"/>
      <use xlink:href="#DejaVuSans-72" x="840.673828"/>
      <use xlink:href="#DejaVuSans-69" x="881.787109"/>
      <use xlink:href="#DejaVuSans-73" x="909.570312"/>
      <use xlink:href="#DejaVuSans-61" x="961.669922"/>
      <use xlink:href="#DejaVuSans-6c" x="1022.949219"/>
      <use xlink:href="#DejaVuSans-20" x="1050.732422"/>
      <use xlink:href="#DejaVuSans-28" x="1082.519531"/>
      <use xlink:href="#DejaVuSans-6d" x="1121.533203"/>
      <use xlink:href="#DejaVuSans-75" x="1218.945312"/>
      <use xlink:href="#DejaVuSans-6c" x="1282.324219"/>
      <use xlink:href="#DejaVuSans-74" x="1310.107422"/>
      <use xlink:href="#DejaVuSans-69" x="1349.316406"/>
      <use xlink:href="#DejaVuSans-70" x="1377.099609"/>
      <use xlink:href="#DejaVuSans-6c" x="1440.576172"/>
      <use xlink:href="#DejaVuSans-69" x="1468.359375"/>
      <use xlink:href="#DejaVuSans-63" x="1496.142578"/>
      <use xlink:href="#DejaVuSans-61" x="1551.123047"/>
      <use xlink:href="#DejaVuSans-74" x="1612.402344"/>
      <use xlink:href="#DejaVuSans-69" x="1651.611328"/>
      <use xlink:href="#DejaVuSans-6f" x="1679.394531"/>
      <use xlink:href="#DejaVuSans-6e" x="1740.576172"/>
      <use xlink:href="#DejaVuSans-29" x="1803.955078"/>
     </g>
    </g>
   </g>
   <g id="line2d_23">
    <path d="M 298.065 34.026389 
L 309.512105 36.038279 
L 320.959211 41.710749 
L 332.406316 49.107217 
L 343.853421 58.332652 
L 355.300526 68.567489 
L 366.747632 77.627806 
L 378.194737 87.743973 
L 389.641842 96.150205 
L 401.088947 104.420579 
L 412.536053 111.077655 
L 423.983158 117.56348 
L 435.430263 123.961655 
L 446.877368 129.248407 
L 458.324474 134.56729 
L 469.771579 139.005763 
L 481.218684 142.361795 
L 492.665789 146.575973 
L 504.112895 149.350514 
L 515.56 152.054143 
" clip-path="url(#pf023c835b0)" style="fill: none; stroke: #1f77b4; stroke-width: 1.5; stroke-linecap: square"/>
   </g>
   <g id="line2d_24">
    <path d="M 298.065 34.037482 
L 309.512105 36.047178 
L 320.959211 41.731689 
L 332.406316 49.127195 
L 343.853421 58.372291 
L 355.300526 68.593029 
L 366.747632 77.659343 
L 378.194737 87.780752 
L 389.641842 96.177114 
L 401.088947 104.438392 
L 412.536053 111.080924 
L 423.983158 117.578375 
L 435.430263 123.992397 
L 446.877368 129.358092 
L 458.324474 134.740335 
L 469.771579 139.220607 
L 481.218684 142.702957 
L 492.665789 146.91494 
L 504.112895 149.710191 
L 515.56 152.396974 
" clip-path="url(#pf023c835b0)" style="fill: none; stroke: #ff7f0e; stroke-width: 1.5; stroke-linecap: square"/>
   </g>
   <g id="line2d_25">
    <path d="M 298.065 34.038127 
L 309.512105 36.058331 
L 320.959211 41.73457 
L 332.406316 49.103759 
L 343.853421 58.343667 
L 355.300526 68.578806 
L 366.747632 77.712908 
L 378.194737 87.842105 
L 389.641842 96.313114 
L 401.088947 104.652373 
L 412.536053 111.368302 
L 423.983158 117.948649 
L 435.430263 124.412453 
L 446.877368 129.831098 
L 458.324474 135.284835 
L 469.771579 139.985022 
L 481.218684 143.379287 
L 492.665789 147.674767 
L 504.112895 150.534085 
L 515.56 153.275109 
" clip-path="url(#pf023c835b0)" style="fill: none; stroke: #2ca02c; stroke-width: 1.5; stroke-linecap: square"/>
   </g>
   <g id="line2d_26">
    <path d="M 298.065 34.055447 
L 309.512105 36.066135 
L 320.959211 41.744468 
L 332.406316 49.124866 
L 343.853421 58.375935 
L 355.300526 68.616852 
L 366.747632 77.754151 
L 378.194737 87.874502 
L 389.641842 96.339647 
L 401.088947 104.634593 
L 412.536053 111.307403 
L 423.983158 117.854081 
L 435.430263 124.263387 
L 446.877368 129.692952 
L 458.324474 135.125865 
L 469.771579 139.769421 
L 481.218684 143.183977 
L 492.665789 147.442412 
L 504.112895 150.360264 
L 515.56 153.003845 
" clip-path="url(#pf023c835b0)" style="fill: none; stroke: #d62728; stroke-width: 1.5; stroke-linecap: square"/>
   </g>
   <g id="line2d_27">
    <path d="M 298.065 34.048233 
L 309.512105 36.054436 
L 320.959211 41.72244 
L 332.406316 49.18005 
L 343.853421 58.354353 
L 355.300526 68.638366 
L 366.747632 77.772334 
L 378.194737 87.761155 
L 389.641842 96.308248 
L 401.088947 104.755572 
L 412.536053 111.311526 
L 423.983158 117.823271 
L 435.430263 124.295881 
L 446.877368 129.37905 
L 458.324474 134.790318 
L 469.771579 139.044371 
L 481.218684 142.732545 
L 492.665789 146.774652 
L 504.112895 150.006526 
L 515.56 152.743004 
" clip-path="url(#pf023c835b0)" style="fill: none; stroke: #9467bd; stroke-width: 1.5; stroke-linecap: square"/>
   </g>
   <g id="line2d_28">
    <path d="M 298.065 34.059588 
L 309.512105 36.063513 
L 320.959211 41.74355 
L 332.406316 49.20024 
L 343.853421 58.393442 
L 355.300526 68.668914 
L 366.747632 77.809146 
L 378.194737 87.794316 
L 389.641842 96.33825 
L 401.088947 104.767699 
L 412.536053 111.331536 
L 423.983158 117.851117 
L 435.430263 124.336239 
L 446.877368 129.481632 
L 458.324474 134.953971 
L 469.771579 139.261042 
L 481.218684 143.072771 
L 492.665789 147.089342 
L 504.112895 150.349844 
L 515.56 153.053252 
" clip-path="url(#pf023c835b0)" style="fill: none; stroke: #8c564b; stroke-width: 1.5; stroke-linecap: square"/>
   </g>
   <g id="line2d_29">
    <path d="M 298.065 45.860926 
L 309.512105 47.987786 
L 320.959211 53.050994 
L 332.406316 60.096152 
L 343.853421 68.662578 
L 355.300526 78.137004 
L 366.747632 86.642123 
L 378.194737 96.340883 
L 389.641842 104.191417 
L 401.088947 112.500358 
L 412.536053 118.459793 
L 423.983158 124.763447 
L 435.430263 130.9957 
L 446.877368 135.719072 
L 458.324474 140.546052 
L 469.771579 144.589466 
L 481.218684 147.679541 
L 492.665789 151.479523 
L 504.112895 153.922804 
L 515.56 156.283186 
" clip-path="url(#pf023c835b0)" style="fill: none; stroke: #e377c2; stroke-width: 1.5; stroke-linecap: square"/>
   </g>
   <g id="line2d_30">
    <path d="M 298.065 34.055722 
L 309.512105 36.061558 
L 320.959211 41.727491 
L 332.406316 49.088698 
L 343.853421 58.334424 
L 355.300526 68.559028 
L 366.747632 77.636622 
L 378.194737 87.726806 
L 389.641842 96.162083 
L 401.088947 104.451336 
L 412.536053 111.098068 
L 423.983158 117.699705 
L 435.430263 124.124971 
L 446.877368 129.509287 
L 458.324474 135.118549 
L 469.771579 139.780228 
L 481.218684 143.172441 
L 492.665789 147.584455 
L 504.112895 150.513376 
L 515.56 153.194173 
" clip-path="url(#pf023c835b0)" style="fill: none; stroke: #7f7f7f; stroke-width: 1.5; stroke-linecap: square"/>
   </g>
   <g id="patch_6">
    <path d="M 298.065 174.04 
L 298.065 26.88 
" style="fill: none; stroke: #000000; stroke-width: 0.8; stroke-linejoin: miter; stroke-linecap: square"/>
   </g>
   <g id="patch_7">
    <path d="M 298.065 174.04 
L 515.56 174.04 
" style="fill: none; stroke: #000000; stroke-width: 0.8; stroke-linejoin: miter; stroke-linecap: square"/>
   </g>
   <g id="text_19">
    <!-- Node * third variable -->
    <g transform="translate(344.2325 20.88)scale(0.12 -0.12)">
     <defs>
      <path id="DejaVuSans-68" d="M 3513 2113 
L 3513 0 
L 2938 0 
L 2938 2094 
Q 2938 2591 2744 2837 
Q 2550 3084 2163 3084 
Q 1697 3084 1428 2787 
Q 1159 2491 1159 1978 
L 1159 0 
L 581 0 
L 581 4863 
L 1159 4863 
L 1159 2956 
Q 1366 3272 1645 3428 
Q 1925 3584 2291 3584 
Q 2894 3584 3203 3211 
Q 3513 2838 3513 2113 
z
" transform="scale(0.015625)"/>
      <path id="DejaVuSans-62" d="M 3116 1747 
Q 3116 2381 2855 2742 
Q 2594 3103 2138 3103 
Q 1681 3103 1420 2742 
Q 1159 2381 1159 1747 
Q 1159 1113 1420 752 
Q 1681 391 2138 391 
Q 2594 391 2855 752 
Q 3116 1113 3116 1747 
z
M 1159 2969 
Q 1341 3281 1617 3432 
Q 1894 3584 2278 3584 
Q 2916 3584 3314 3078 
Q 3713 2572 3713 1747 
Q 3713 922 3314 415 
Q 2916 -91 2278 -91 
Q 1894 -91 1617 61 
Q 1341 213 1159 525 
L 1159 0 
L 581 0 
L 581 4863 
L 1159 4863 
L 1159 2969 
z
" transform="scale(0.015625)"/>
     </defs>
     <use xlink:href="#DejaVuSans-4e"/>
     <use xlink:href="#DejaVuSans-6f" x="74.804688"/>
     <use xlink:href="#DejaVuSans-64" x="135.986328"/>
     <use xlink:href="#DejaVuSans-65" x="199.462891"/>
     <use xlink:href="#DejaVuSans-20" x="260.986328"/>
     <use xlink:href="#DejaVuSans-2a" x="292.773438"/>
     <use xlink:href="#DejaVuSans-20" x="342.773438"/>
     <use xlink:href="#DejaVuSans-74" x="374.560547"/>
     <use xlink:href="#DejaVuSans-68" x="413.769531"/>
     <use xlink:href="#DejaVuSans-69" x="477.148438"/>
     <use xlink:href="#DejaVuSans-72" x="504.931641"/>
     <use xlink:href="#DejaVuSans-64" x="544.294922"/>
     <use xlink:href="#DejaVuSans-20" x="607.771484"/>
     <use xlink:href="#DejaVuSans-76" x="639.558594"/>
     <use xlink:href="#DejaVuSans-61" x="698.738281"/>
     <use xlink:href="#DejaVuSans-72" x="760.017578"/>
     <use xlink:href="#DejaVuSans-69" x="801.130859"/>
     <use xlink:href="#DejaVuSans-61" x="828.914062"/>
     <use xlink:href="#DejaVuSans-62" x="890.193359"/>
     <use xlink:href="#DejaVuSans-6c" x="953.669922"/>
     <use xlink:href="#DejaVuSans-65" x="981.453125"/>
    </g>
   </g>
   <g id="legend_1">
    <g id="line2d_31">
     <path d="M 524.56 39.978437 
L 534.56 39.978437 
L 544.56 39.978437 
" style="fill: none; stroke: #1f77b4; stroke-width: 1.5; stroke-linecap: square"/>
    </g>
    <g id="text_20">
     <!-- Node -->
     <g transform="translate(552.56 43.478437)scale(0.1 -0.1)">
      <use xlink:href="#DejaVuSans-4e"/>
      <use xlink:href="#DejaVuSans-6f" x="74.804688"/>
      <use xlink:href="#DejaVuSans-64" x="135.986328"/>
      <use xlink:href="#DejaVuSans-65" x="199.462891"/>
     </g>
    </g>
    <g id="line2d_32">
     <path d="M 524.56 54.656563 
L 534.56 54.656563 
L 544.56 54.656563 
" style="fill: none; stroke: #ff7f0e; stroke-width: 1.5; stroke-linecap: square"/>
    </g>
    <g id="text_21">
     <!-- Node + surprisal -->
     <g transform="translate(552.56 58.156563)scale(0.1 -0.1)">
      <defs>
       <path id="DejaVuSans-2b" d="M 2944 4013 
L 2944 2272 
L 4684 2272 
L 4684 1741 
L 2944 1741 
L 2944 0 
L 2419 0 
L 2419 1741 
L 678 1741 
L 678 2272 
L 2419 2272 
L 2419 4013 
L 2944 4013 
z
" transform="scale(0.015625)"/>
      </defs>
      <use xlink:href="#DejaVuSans-4e"/>
      <use xlink:href="#DejaVuSans-6f" x="74.804688"/>
      <use xlink:href="#DejaVuSans-64" x="135.986328"/>
      <use xlink:href="#DejaVuSans-65" x="199.462891"/>
      <use xlink:href="#DejaVuSans-20" x="260.986328"/>
      <use xlink:href="#DejaVuSans-2b" x="292.773438"/>
      <use xlink:href="#DejaVuSans-20" x="376.5625"/>
      <use xlink:href="#DejaVuSans-73" x="408.349609"/>
      <use xlink:href="#DejaVuSans-75" x="460.449219"/>
      <use xlink:href="#DejaVuSans-72" x="523.828125"/>
      <use xlink:href="#DejaVuSans-70" x="564.941406"/>
      <use xlink:href="#DejaVuSans-72" x="628.417969"/>
      <use xlink:href="#DejaVuSans-69" x="669.53125"/>
      <use xlink:href="#DejaVuSans-73" x="697.314453"/>
      <use xlink:href="#DejaVuSans-61" x="749.414062"/>
      <use xlink:href="#DejaVuSans-6c" x="810.693359"/>
     </g>
    </g>
    <g id="line2d_33">
     <path d="M 524.56 69.334687 
L 534.56 69.334687 
L 544.56 69.334687 
" style="fill: none; stroke: #2ca02c; stroke-width: 1.5; stroke-linecap: square"/>
    </g>
    <g id="text_22">
     <!-- Node split -->
     <g transform="translate(552.56 72.834687)scale(0.1 -0.1)">
      <use xlink:href="#DejaVuSans-4e"/>
      <use xlink:href="#DejaVuSans-6f" x="74.804688"/>
      <use xlink:href="#DejaVuSans-64" x="135.986328"/>
      <use xlink:href="#DejaVuSans-65" x="199.462891"/>
      <use xlink:href="#DejaVuSans-20" x="260.986328"/>
      <use xlink:href="#DejaVuSans-73" x="292.773438"/>
      <use xlink:href="#DejaVuSans-70" x="344.873047"/>
      <use xlink:href="#DejaVuSans-6c" x="408.349609"/>
      <use xlink:href="#DejaVuSans-69" x="436.132812"/>
      <use xlink:href="#DejaVuSans-74" x="463.916016"/>
     </g>
    </g>
    <g id="line2d_34">
     <path d="M 524.56 84.012812 
L 534.56 84.012812 
L 544.56 84.012812 
" style="fill: none; stroke: #d62728; stroke-width: 1.5; stroke-linecap: square"/>
    </g>
    <g id="text_23">
     <!-- Node split + surprisal -->
     <g transform="translate(552.56 87.512812)scale(0.1 -0.1)">
      <use xlink:href="#DejaVuSans-4e"/>
      <use xlink:href="#DejaVuSans-6f" x="74.804688"/>
      <use xlink:href="#DejaVuSans-64" x="135.986328"/>
      <use xlink:href="#DejaVuSans-65" x="199.462891"/>
      <use xlink:href="#DejaVuSans-20" x="260.986328"/>
      <use xlink:href="#DejaVuSans-73" x="292.773438"/>
      <use xlink:href="#DejaVuSans-70" x="344.873047"/>
      <use xlink:href="#DejaVuSans-6c" x="408.349609"/>
      <use xlink:href="#DejaVuSans-69" x="436.132812"/>
      <use xlink:href="#DejaVuSans-74" x="463.916016"/>
      <use xlink:href="#DejaVuSans-20" x="503.125"/>
      <use xlink:href="#DejaVuSans-2b" x="534.912109"/>
      <use xlink:href="#DejaVuSans-20" x="618.701172"/>
      <use xlink:href="#DejaVuSans-73" x="650.488281"/>
      <use xlink:href="#DejaVuSans-75" x="702.587891"/>
      <use xlink:href="#DejaVuSans-72" x="765.966797"/>
      <use xlink:href="#DejaVuSans-70" x="807.080078"/>
      <use xlink:href="#DejaVuSans-72" x="870.556641"/>
      <use xlink:href="#DejaVuSans-69" x="911.669922"/>
      <use xlink:href="#DejaVuSans-73" x="939.453125"/>
      <use xlink:href="#DejaVuSans-61" x="991.552734"/>
      <use xlink:href="#DejaVuSans-6c" x="1052.832031"/>
     </g>
    </g>
    <g id="line2d_35">
     <path d="M 524.56 98.690937 
L 534.56 98.690937 
L 544.56 98.690937 
" style="fill: none; stroke: #9467bd; stroke-width: 1.5; stroke-linecap: square"/>
    </g>
    <g id="text_24">
     <!-- Node random split -->
     <g transform="translate(552.56 102.190937)scale(0.1 -0.1)">
      <use xlink:href="#DejaVuSans-4e"/>
      <use xlink:href="#DejaVuSans-6f" x="74.804688"/>
      <use xlink:href="#DejaVuSans-64" x="135.986328"/>
      <use xlink:href="#DejaVuSans-65" x="199.462891"/>
      <use xlink:href="#DejaVuSans-20" x="260.986328"/>
      <use xlink:href="#DejaVuSans-72" x="292.773438"/>
      <use xlink:href="#DejaVuSans-61" x="333.886719"/>
      <use xlink:href="#DejaVuSans-6e" x="395.166016"/>
      <use xlink:href="#DejaVuSans-64" x="458.544922"/>
      <use xlink:href="#DejaVuSans-6f" x="522.021484"/>
      <use xlink:href="#DejaVuSans-6d" x="583.203125"/>
      <use xlink:href="#DejaVuSans-20" x="680.615234"/>
      <use xlink:href="#DejaVuSans-73" x="712.402344"/>
      <use xlink:href="#DejaVuSans-70" x="764.501953"/>
      <use xlink:href="#DejaVuSans-6c" x="827.978516"/>
      <use xlink:href="#DejaVuSans-69" x="855.761719"/>
      <use xlink:href="#DejaVuSans-74" x="883.544922"/>
     </g>
    </g>
    <g id="line2d_36">
     <path d="M 524.56 113.369062 
L 534.56 113.369062 
L 544.56 113.369062 
" style="fill: none; stroke: #8c564b; stroke-width: 1.5; stroke-linecap: square"/>
    </g>
    <g id="text_25">
     <!-- Node random split + surprisal -->
     <g transform="translate(552.56 116.869062)scale(0.1 -0.1)">
      <use xlink:href="#DejaVuSans-4e"/>
      <use xlink:href="#DejaVuSans-6f" x="74.804688"/>
      <use xlink:href="#DejaVuSans-64" x="135.986328"/>
      <use xlink:href="#DejaVuSans-65" x="199.462891"/>
      <use xlink:href="#DejaVuSans-20" x="260.986328"/>
      <use xlink:href="#DejaVuSans-72" x="292.773438"/>
      <use xlink:href="#DejaVuSans-61" x="333.886719"/>
      <use xlink:href="#DejaVuSans-6e" x="395.166016"/>
      <use xlink:href="#DejaVuSans-64" x="458.544922"/>
      <use xlink:href="#DejaVuSans-6f" x="522.021484"/>
      <use xlink:href="#DejaVuSans-6d" x="583.203125"/>
      <use xlink:href="#DejaVuSans-20" x="680.615234"/>
      <use xlink:href="#DejaVuSans-73" x="712.402344"/>
      <use xlink:href="#DejaVuSans-70" x="764.501953"/>
      <use xlink:href="#DejaVuSans-6c" x="827.978516"/>
      <use xlink:href="#DejaVuSans-69" x="855.761719"/>
      <use xlink:href="#DejaVuSans-74" x="883.544922"/>
      <use xlink:href="#DejaVuSans-20" x="922.753906"/>
      <use xlink:href="#DejaVuSans-2b" x="954.541016"/>
      <use xlink:href="#DejaVuSans-20" x="1038.330078"/>
      <use xlink:href="#DejaVuSans-73" x="1070.117188"/>
      <use xlink:href="#DejaVuSans-75" x="1122.216797"/>
      <use xlink:href="#DejaVuSans-72" x="1185.595703"/>
      <use xlink:href="#DejaVuSans-70" x="1226.708984"/>
      <use xlink:href="#DejaVuSans-72" x="1290.185547"/>
      <use xlink:href="#DejaVuSans-69" x="1331.298828"/>
      <use xlink:href="#DejaVuSans-73" x="1359.082031"/>
      <use xlink:href="#DejaVuSans-61" x="1411.181641"/>
      <use xlink:href="#DejaVuSans-6c" x="1472.460938"/>
     </g>
    </g>
    <g id="line2d_37">
     <path d="M 524.56 128.047187 
L 534.56 128.047187 
L 544.56 128.047187 
" style="fill: none; stroke: #e377c2; stroke-width: 1.5; stroke-linecap: square"/>
    </g>
    <g id="text_26">
     <!-- Interaction -->
     <g transform="translate(552.56 131.547187)scale(0.1 -0.1)">
      <use xlink:href="#DejaVuSans-49"/>
      <use xlink:href="#DejaVuSans-6e" x="29.492188"/>
      <use xlink:href="#DejaVuSans-74" x="92.871094"/>
      <use xlink:href="#DejaVuSans-65" x="132.080078"/>
      <use xlink:href="#DejaVuSans-72" x="193.603516"/>
      <use xlink:href="#DejaVuSans-61" x="234.716797"/>
      <use xlink:href="#DejaVuSans-63" x="295.996094"/>
      <use xlink:href="#DejaVuSans-74" x="350.976562"/>
      <use xlink:href="#DejaVuSans-69" x="390.185547"/>
      <use xlink:href="#DejaVuSans-6f" x="417.96875"/>
      <use xlink:href="#DejaVuSans-6e" x="479.150391"/>
     </g>
    </g>
    <g id="line2d_38">
     <path d="M 524.56 142.725312 
L 534.56 142.725312 
L 544.56 142.725312 
" style="fill: none; stroke: #7f7f7f; stroke-width: 1.5; stroke-linecap: square"/>
    </g>
    <g id="text_27">
     <!-- Node + surprisal + interaction -->
     <g transform="translate(552.56 146.225312)scale(0.1 -0.1)">
      <use xlink:href="#DejaVuSans-4e"/>
      <use xlink:href="#DejaVuSans-6f" x="74.804688"/>
      <use xlink:href="#DejaVuSans-64" x="135.986328"/>
      <use xlink:href="#DejaVuSans-65" x="199.462891"/>
      <use xlink:href="#DejaVuSans-20" x="260.986328"/>
      <use xlink:href="#DejaVuSans-2b" x="292.773438"/>
      <use xlink:href="#DejaVuSans-20" x="376.5625"/>
      <use xlink:href="#DejaVuSans-73" x="408.349609"/>
      <use xlink:href="#DejaVuSans-75" x="460.449219"/>
      <use xlink:href="#DejaVuSans-72" x="523.828125"/>
      <use xlink:href="#DejaVuSans-70" x="564.941406"/>
      <use xlink:href="#DejaVuSans-72" x="628.417969"/>
      <use xlink:href="#DejaVuSans-69" x="669.53125"/>
      <use xlink:href="#DejaVuSans-73" x="697.314453"/>
      <use xlink:href="#DejaVuSans-61" x="749.414062"/>
      <use xlink:href="#DejaVuSans-6c" x="810.693359"/>
      <use xlink:href="#DejaVuSans-20" x="838.476562"/>
      <use xlink:href="#DejaVuSans-2b" x="870.263672"/>
      <use xlink:href="#DejaVuSans-20" x="954.052734"/>
      <use xlink:href="#DejaVuSans-69" x="985.839844"/>
      <use xlink:href="#DejaVuSans-6e" x="1013.623047"/>
      <use xlink:href="#DejaVuSans-74" x="1077.001953"/>
      <use xlink:href="#DejaVuSans-65" x="1116.210938"/>
      <use xlink:href="#DejaVuSans-72" x="1177.734375"/>
      <use xlink:href="#DejaVuSans-61" x="1218.847656"/>
      <use xlink:href="#DejaVuSans-63" x="1280.126953"/>
      <use xlink:href="#DejaVuSans-74" x="1335.107422"/>
      <use xlink:href="#DejaVuSans-69" x="1374.316406"/>
      <use xlink:href="#DejaVuSans-6f" x="1402.099609"/>
      <use xlink:href="#DejaVuSans-6e" x="1463.28125"/>
     </g>
    </g>
   </g>
  </g>
 </g>
 <defs>
  <clipPath id="pb3a18faf2d">
   <rect x="47.72" y="26.88" width="217.495" height="147.16"/>
  </clipPath>
  <clipPath id="pf023c835b0">
   <rect x="298.065" y="26.88" width="217.495" height="147.16"/>
  </clipPath>
 </defs>
</svg>
