<?xml version="1.0" encoding="utf-8" standalone="no"?>
<!DOCTYPE svg PUBLIC "-//W3C//DTD SVG 1.1//EN"
  "http://www.w3.org/Graphics/SVG/1.1/DTD/svg11.dtd">
<svg xmlns:xlink="http://www.w3.org/1999/xlink" width="720pt" height="216pt" viewBox="0 0 720 216" xmlns="http://www.w3.org/2000/svg" version="1.1">
 <metadata>
  <rdf:RDF xmlns:dc="http://purl.org/dc/elements/1.1/" xmlns:cc="http://creativecommons.org/ns#" xmlns:rdf="http://www.w3.org/1999/02/22-rdf-syntax-ns#">
   <cc:Work>
    <dc:type rdf:resource="http://purl.org/dc/dcmitype/StillImage"/>
    <dc:date>2024-01-15T22:41:17.715272</dc:date>
    <dc:format>image/svg+xml</dc:format>
    <dc:creator>
     <cc:Agent>
      <dc:title>Matplotlib v3.5.1, https://matplotlib.org/</dc:title>
     </cc:Agent>
    </dc:creator>
   </cc:Work>
  </rdf:RDF>
 </metadata>
 <defs>
  <style type="text/css">*{stroke-linejoin: round; stroke-linecap: butt}</style>
 </defs>
 <g id="figure_1">
  <g id="patch_1">
   <path d="M 0 216 
L 720 216 
L 720 0 
L 0 0 
z
" style="fill: #ffffff"/>
  </g>
  <g id="axes_1">
   <g id="patch_2">
    <path d="M 47.72 174.04 
L 265.215 174.04 
L 265.215 26.88 
L 47.72 26.88 
z
" style="fill: #ffffff"/>
   </g>
   <g id="PolyCollection_1">
    <path d="M 47.72 33.743934 
L 47.72 34.715621 
L 59.167105 36.655701 
L 70.614211 43.229341 
L 82.061316 51.24625 
L 93.508421 61.376808 
L 104.955526 71.69785 
L 116.402632 83.114049 
L 127.849737 91.927631 
L 139.296842 101.721557 
L 150.743947 109.867129 
L 162.191053 117.791362 
L 173.638158 124.387591 
L 185.085263 129.696684 
L 196.532368 135.143691 
L 207.979474 140.020054 
L 219.426579 143.811212 
L 230.873684 147.72144 
L 242.320789 150.73987 
L 253.767895 154.092031 
L 265.215 156.762724 
L 265.215 150.169196 
L 265.215 150.169196 
L 253.767895 146.556902 
L 242.320789 143.12036 
L 230.873684 139.670976 
L 219.426579 135.247981 
L 207.979474 130.742001 
L 196.532368 125.040323 
L 185.085263 118.544745 
L 173.638158 112.496462 
L 162.191053 106.018525 
L 150.743947 98.283394 
L 139.296842 90.043658 
L 127.849737 80.180535 
L 116.402632 71.275086 
L 104.955526 61.844507 
L 93.508421 53.134807 
L 82.061316 45.622949 
L 70.614211 39.954653 
L 59.167105 35.254513 
L 47.72 33.743934 
z
" clip-path="url(#pdb67bc9e78)" style="fill: #1f77b4; fill-opacity: 0.4"/>
   </g>
   <g id="PolyCollection_2">
    <path d="M 47.72 33.754866 
L 47.72 34.735516 
L 59.167105 36.060569 
L 70.614211 39.630839 
L 82.061316 44.720429 
L 93.508421 51.431598 
L 104.955526 59.353347 
L 116.402632 68.806998 
L 127.849737 76.090309 
L 139.296842 85.044044 
L 150.743947 93.059165 
L 162.191053 100.473173 
L 173.638158 107.749101 
L 185.085263 113.840799 
L 196.532368 120.574529 
L 207.979474 126.599361 
L 219.426579 130.956116 
L 230.873684 135.993806 
L 242.320789 139.730241 
L 253.767895 144.612524 
L 265.215 148.157702 
L 265.215 142.49734 
L 265.215 142.49734 
L 253.767895 138.418722 
L 242.320789 134.698527 
L 230.873684 130.198326 
L 219.426579 124.872493 
L 207.979474 119.369231 
L 196.532368 113.025872 
L 185.085263 105.715711 
L 173.638158 99.100918 
L 162.191053 91.907039 
L 150.743947 83.76984 
L 139.296842 75.962716 
L 127.849737 67.064479 
L 116.402632 59.283398 
L 104.955526 51.799463 
L 93.508421 45.571241 
L 82.061316 40.570336 
L 70.614211 37.242726 
L 59.167105 34.666667 
L 47.72 33.754866 
z
" clip-path="url(#pdb67bc9e78)" style="fill: #ff7f0e; fill-opacity: 0.4"/>
   </g>
   <g id="PolyCollection_3">
    <path d="M 47.72 33.756771 
L 47.72 34.731615 
L 59.167105 36.205141 
L 70.614211 39.224061 
L 82.061316 43.136711 
L 93.508421 47.74054 
L 104.955526 51.902858 
L 116.402632 57.663124 
L 127.849737 61.853443 
L 139.296842 66.900747 
L 150.743947 71.308887 
L 162.191053 75.865218 
L 173.638158 81.053336 
L 185.085263 85.385849 
L 196.532368 89.781215 
L 207.979474 94.278941 
L 219.426579 98.203561 
L 230.873684 102.497831 
L 242.320789 106.059793 
L 253.767895 110.272451 
L 265.215 113.891091 
L 265.215 108.389199 
L 265.215 108.389199 
L 253.767895 104.369453 
L 242.320789 101.123075 
L 230.873684 97.081691 
L 219.426579 92.187458 
L 207.979474 88.230932 
L 196.532368 83.614616 
L 185.085263 79.253546 
L 173.638158 74.621344 
L 162.191053 69.258668 
L 150.743947 64.140799 
L 139.296842 59.468641 
L 127.849737 54.886568 
L 116.402632 50.046284 
L 104.955526 46.092823 
L 93.508421 42.508176 
L 82.061316 38.994286 
L 70.614211 37.252384 
L 59.167105 34.871877 
L 47.72 33.756771 
z
" clip-path="url(#pdb67bc9e78)" style="fill: #2ca02c; fill-opacity: 0.4"/>
   </g>
   <g id="PolyCollection_4">
    <path d="M 47.72 33.768485 
L 47.72 34.752788 
L 59.167105 35.982315 
L 70.614211 38.278231 
L 82.061316 41.576035 
L 93.508421 45.642738 
L 104.955526 49.821759 
L 116.402632 55.626311 
L 127.849737 59.834815 
L 139.296842 65.1549 
L 150.743947 69.874521 
L 162.191053 74.516867 
L 173.638158 79.789604 
L 185.085263 84.1383 
L 196.532368 88.39606 
L 207.979474 92.858549 
L 219.426579 96.895935 
L 230.873684 100.850243 
L 242.320789 104.482932 
L 253.767895 108.516333 
L 265.215 112.142842 
L 265.215 106.082644 
L 265.215 106.082644 
L 253.767895 102.442539 
L 242.320789 99.731405 
L 230.873684 95.822084 
L 219.426579 90.813728 
L 207.979474 86.978435 
L 196.532368 82.320173 
L 185.085263 77.887397 
L 173.638158 73.085678 
L 162.191053 67.492894 
L 150.743947 62.176563 
L 139.296842 57.388869 
L 127.849737 52.670482 
L 116.402632 47.808406 
L 104.955526 43.918136 
L 93.508421 40.647074 
L 82.061316 37.718383 
L 70.614211 36.342635 
L 59.167105 34.606292 
L 47.72 33.768485 
z
" clip-path="url(#pdb67bc9e78)" style="fill: #d62728; fill-opacity: 0.4"/>
   </g>
   <g id="PolyCollection_5">
    <path d="M 47.72 33.751413 
L 47.72 34.715081 
L 59.167105 36.655434 
L 70.614211 43.235278 
L 82.061316 51.267509 
L 93.508421 61.504538 
L 104.955526 71.945535 
L 116.402632 83.287488 
L 127.849737 91.96128 
L 139.296842 102.293733 
L 150.743947 109.517982 
L 162.191053 118.132007 
L 173.638158 125.080051 
L 185.085263 130.701558 
L 196.532368 135.986391 
L 207.979474 140.89046 
L 219.426579 143.210034 
L 230.873684 147.790021 
L 242.320789 152.141658 
L 253.767895 155.403058 
L 265.215 157.889972 
L 265.215 150.744074 
L 265.215 150.744074 
L 253.767895 147.836295 
L 242.320789 144.09907 
L 230.873684 139.886189 
L 219.426579 136.556494 
L 207.979474 131.116027 
L 196.532368 125.018618 
L 185.085263 119.216541 
L 173.638158 112.876155 
L 162.191053 106.399191 
L 150.743947 98.858058 
L 139.296842 90.336661 
L 127.849737 80.44787 
L 116.402632 71.318216 
L 104.955526 61.954448 
L 93.508421 52.9885 
L 82.061316 45.677614 
L 70.614211 39.962013 
L 59.167105 35.273191 
L 47.72 33.751413 
z
" clip-path="url(#pdb67bc9e78)" style="fill: #9467bd; fill-opacity: 0.4"/>
   </g>
   <g id="PolyCollection_6">
    <path d="M 47.72 33.762555 
L 47.72 34.735187 
L 59.167105 36.056927 
L 70.614211 39.643291 
L 82.061316 44.743426 
L 93.508421 51.477227 
L 104.955526 59.515052 
L 116.402632 68.896912 
L 127.849737 76.20946 
L 139.296842 85.44102 
L 150.743947 92.753502 
L 162.191053 100.553667 
L 173.638158 108.205572 
L 185.085263 114.475197 
L 196.532368 121.077503 
L 207.979474 127.23309 
L 219.426579 130.879201 
L 230.873684 136.196901 
L 242.320789 140.666981 
L 253.767895 145.868745 
L 265.215 149.111145 
L 265.215 143.029278 
L 265.215 143.029278 
L 253.767895 138.909683 
L 242.320789 135.519506 
L 230.873684 129.924799 
L 219.426579 125.648441 
L 207.979474 119.754405 
L 196.532368 113.211417 
L 185.085263 106.434058 
L 173.638158 99.600337 
L 162.191053 92.42502 
L 150.743947 84.078089 
L 139.296842 76.203899 
L 127.849737 67.169962 
L 116.402632 59.326405 
L 104.955526 51.901729 
L 93.508421 45.543659 
L 82.061316 40.582412 
L 70.614211 37.250661 
L 59.167105 34.67985 
L 47.72 33.762555 
z
" clip-path="url(#pdb67bc9e78)" style="fill: #8c564b; fill-opacity: 0.4"/>
   </g>
   <g id="PolyCollection_7">
    <path d="M 47.72 43.962883 
L 47.72 47.886021 
L 59.167105 50.621793 
L 70.614211 58.923928 
L 82.061316 68.90143 
L 93.508421 81.093964 
L 104.955526 92.37181 
L 116.402632 104.475808 
L 127.849737 113.241929 
L 139.296842 122.889419 
L 150.743947 130.100073 
L 162.191053 137.725707 
L 173.638158 143.993214 
L 185.085263 148.818424 
L 196.532368 152.922047 
L 207.979474 156.386275 
L 219.426579 159.305999 
L 230.873684 161.750812 
L 242.320789 163.345697 
L 253.767895 165.351381 
L 265.215 167.350909 
L 265.215 159.570231 
L 265.215 159.570231 
L 253.767895 157.110749 
L 242.320789 154.3593 
L 230.873684 151.664874 
L 219.426579 147.706017 
L 207.979474 144.035266 
L 196.532368 138.706755 
L 185.085263 133.51348 
L 173.638158 126.940783 
L 162.191053 121.401358 
L 150.743947 113.343881 
L 139.296842 104.355379 
L 127.849737 94.894581 
L 116.402632 85.08825 
L 104.955526 75.011879 
L 93.508421 65.464724 
L 82.061316 57.040419 
L 70.614211 50.821684 
L 59.167105 45.76522 
L 47.72 43.962883 
z
" clip-path="url(#pdb67bc9e78)" style="fill: #e377c2; fill-opacity: 0.4"/>
   </g>
   <g id="PolyCollection_8">
    <path d="M 47.72 33.764354 
L 47.72 34.740103 
L 59.167105 35.361102 
L 70.614211 35.971579 
L 82.061316 38.328208 
L 93.508421 42.696964 
L 104.955526 48.921747 
L 116.402632 58.420647 
L 127.849737 65.249115 
L 139.296842 74.275463 
L 150.743947 82.590057 
L 162.191053 90.132139 
L 173.638158 98.15199 
L 185.085263 105.162974 
L 196.532368 112.136444 
L 207.979474 118.963099 
L 219.426579 124.308234 
L 230.873684 129.499337 
L 242.320789 133.184134 
L 253.767895 137.767271 
L 265.215 141.118702 
L 265.215 133.452328 
L 265.215 133.452328 
L 253.767895 128.230416 
L 242.320789 123.459811 
L 230.873684 117.648964 
L 219.426579 111.429294 
L 207.979474 105.207158 
L 196.532368 98.292938 
L 185.085263 90.59679 
L 173.638158 82.779804 
L 162.191053 75.003865 
L 150.743947 67.034111 
L 139.296842 59.794349 
L 127.849737 52.339384 
L 116.402632 46.046213 
L 104.955526 41.572816 
L 93.508421 37.907744 
L 82.061316 35.63905 
L 70.614211 34.802916 
L 59.167105 34.137165 
L 47.72 33.764354 
z
" clip-path="url(#pdb67bc9e78)" style="fill: #7f7f7f; fill-opacity: 0.4"/>
   </g>
   <g id="matplotlib.axis_1">
    <g id="xtick_1">
     <g id="line2d_1">
      <defs>
       <path id="m49595bf493" d="M 0 0 
L 0 3.5 
" style="stroke: #000000; stroke-width: 0.8"/>
      </defs>
      <g>
       <use xlink:href="#m49595bf493" x="47.72" y="174.04" style="stroke: #000000; stroke-width: 0.8"/>
      </g>
     </g>
     <g id="text_1">
      <!-- 0.0 -->
      <g transform="translate(39.768438 188.638438)scale(0.1 -0.1)">
       <defs>
        <path id="DejaVuSans-30" d="M 2034 4250 
Q 1547 4250 1301 3770 
Q 1056 3291 1056 2328 
Q 1056 1369 1301 889 
Q 1547 409 2034 409 
Q 2525 409 2770 889 
Q 3016 1369 3016 2328 
Q 3016 3291 2770 3770 
Q 2525 4250 2034 4250 
z
M 2034 4750 
Q 2819 4750 3233 4129 
Q 3647 3509 3647 2328 
Q 3647 1150 3233 529 
Q 2819 -91 2034 -91 
Q 1250 -91 836 529 
Q 422 1150 422 2328 
Q 422 3509 836 4129 
Q 1250 4750 2034 4750 
z
" transform="scale(0.015625)"/>
        <path id="DejaVuSans-2e" d="M 684 794 
L 1344 794 
L 1344 0 
L 684 0 
L 684 794 
z
" transform="scale(0.015625)"/>
       </defs>
       <use xlink:href="#DejaVuSans-30"/>
       <use xlink:href="#DejaVuSans-2e" x="63.623047"/>
       <use xlink:href="#DejaVuSans-30" x="95.410156"/>
      </g>
     </g>
    </g>
    <g id="xtick_2">
     <g id="line2d_2">
      <g>
       <use xlink:href="#m49595bf493" x="102.09375" y="174.04" style="stroke: #000000; stroke-width: 0.8"/>
      </g>
     </g>
     <g id="text_2">
      <!-- 0.5 -->
      <g transform="translate(94.142188 188.638438)scale(0.1 -0.1)">
       <defs>
        <path id="DejaVuSans-35" d="M 691 4666 
L 3169 4666 
L 3169 4134 
L 1269 4134 
L 1269 2991 
Q 1406 3038 1543 3061 
Q 1681 3084 1819 3084 
Q 2600 3084 3056 2656 
Q 3513 2228 3513 1497 
Q 3513 744 3044 326 
Q 2575 -91 1722 -91 
Q 1428 -91 1123 -41 
Q 819 9 494 109 
L 494 744 
Q 775 591 1075 516 
Q 1375 441 1709 441 
Q 2250 441 2565 725 
Q 2881 1009 2881 1497 
Q 2881 1984 2565 2268 
Q 2250 2553 1709 2553 
Q 1456 2553 1204 2497 
Q 953 2441 691 2322 
L 691 4666 
z
" transform="scale(0.015625)"/>
       </defs>
       <use xlink:href="#DejaVuSans-30"/>
       <use xlink:href="#DejaVuSans-2e" x="63.623047"/>
       <use xlink:href="#DejaVuSans-35" x="95.410156"/>
      </g>
     </g>
    </g>
    <g id="xtick_3">
     <g id="line2d_3">
      <g>
       <use xlink:href="#m49595bf493" x="156.4675" y="174.04" style="stroke: #000000; stroke-width: 0.8"/>
      </g>
     </g>
     <g id="text_3">
      <!-- 1.0 -->
      <g transform="translate(148.515938 188.638438)scale(0.1 -0.1)">
       <defs>
        <path id="DejaVuSans-31" d="M 794 531 
L 1825 531 
L 1825 4091 
L 703 3866 
L 703 4441 
L 1819 4666 
L 2450 4666 
L 2450 531 
L 3481 531 
L 3481 0 
L 794 0 
L 794 531 
z
" transform="scale(0.015625)"/>
       </defs>
       <use xlink:href="#DejaVuSans-31"/>
       <use xlink:href="#DejaVuSans-2e" x="63.623047"/>
       <use xlink:href="#DejaVuSans-30" x="95.410156"/>
      </g>
     </g>
    </g>
    <g id="xtick_4">
     <g id="line2d_4">
      <g>
       <use xlink:href="#m49595bf493" x="210.84125" y="174.04" style="stroke: #000000; stroke-width: 0.8"/>
      </g>
     </g>
     <g id="text_4">
      <!-- 1.5 -->
      <g transform="translate(202.889687 188.638438)scale(0.1 -0.1)">
       <use xlink:href="#DejaVuSans-31"/>
       <use xlink:href="#DejaVuSans-2e" x="63.623047"/>
       <use xlink:href="#DejaVuSans-35" x="95.410156"/>
      </g>
     </g>
    </g>
    <g id="xtick_5">
     <g id="line2d_5">
      <g>
       <use xlink:href="#m49595bf493" x="265.215" y="174.04" style="stroke: #000000; stroke-width: 0.8"/>
      </g>
     </g>
     <g id="text_5">
      <!-- 2.0 -->
      <g transform="translate(257.263437 188.638438)scale(0.1 -0.1)">
       <defs>
        <path id="DejaVuSans-32" d="M 1228 531 
L 3431 531 
L 3431 0 
L 469 0 
L 469 531 
Q 828 903 1448 1529 
Q 2069 2156 2228 2338 
Q 2531 2678 2651 2914 
Q 2772 3150 2772 3378 
Q 2772 3750 2511 3984 
Q 2250 4219 1831 4219 
Q 1534 4219 1204 4116 
Q 875 4013 500 3803 
L 500 4441 
Q 881 4594 1212 4672 
Q 1544 4750 1819 4750 
Q 2544 4750 2975 4387 
Q 3406 4025 3406 3419 
Q 3406 3131 3298 2873 
Q 3191 2616 2906 2266 
Q 2828 2175 2409 1742 
Q 1991 1309 1228 531 
z
" transform="scale(0.015625)"/>
       </defs>
       <use xlink:href="#DejaVuSans-32"/>
       <use xlink:href="#DejaVuSans-2e" x="63.623047"/>
       <use xlink:href="#DejaVuSans-30" x="95.410156"/>
      </g>
     </g>
    </g>
    <g id="text_6">
     <!-- Influence of surprisal (multiplication) -->
     <g transform="translate(64.320625 202.316563)scale(0.1 -0.1)">
      <defs>
       <path id="DejaVuSans-49" d="M 628 4666 
L 1259 4666 
L 1259 0 
L 628 0 
L 628 4666 
z
" transform="scale(0.015625)"/>
       <path id="DejaVuSans-6e" d="M 3513 2113 
L 3513 0 
L 2938 0 
L 2938 2094 
Q 2938 2591 2744 2837 
Q 2550 3084 2163 3084 
Q 1697 3084 1428 2787 
Q 1159 2491 1159 1978 
L 1159 0 
L 581 0 
L 581 3500 
L 1159 3500 
L 1159 2956 
Q 1366 3272 1645 3428 
Q 1925 3584 2291 3584 
Q 2894 3584 3203 3211 
Q 3513 2838 3513 2113 
z
" transform="scale(0.015625)"/>
       <path id="DejaVuSans-66" d="M 2375 4863 
L 2375 4384 
L 1825 4384 
Q 1516 4384 1395 4259 
Q 1275 4134 1275 3809 
L 1275 3500 
L 2222 3500 
L 2222 3053 
L 1275 3053 
L 1275 0 
L 697 0 
L 697 3053 
L 147 3053 
L 147 3500 
L 697 3500 
L 697 3744 
Q 697 4328 969 4595 
Q 1241 4863 1831 4863 
L 2375 4863 
z
" transform="scale(0.015625)"/>
       <path id="DejaVuSans-6c" d="M 603 4863 
L 1178 4863 
L 1178 0 
L 603 0 
L 603 4863 
z
" transform="scale(0.015625)"/>
       <path id="DejaVuSans-75" d="M 544 1381 
L 544 3500 
L 1119 3500 
L 1119 1403 
Q 1119 906 1312 657 
Q 1506 409 1894 409 
Q 2359 409 2629 706 
Q 2900 1003 2900 1516 
L 2900 3500 
L 3475 3500 
L 3475 0 
L 2900 0 
L 2900 538 
Q 2691 219 2414 64 
Q 2138 -91 1772 -91 
Q 1169 -91 856 284 
Q 544 659 544 1381 
z
M 1991 3584 
L 1991 3584 
z
" transform="scale(0.015625)"/>
       <path id="DejaVuSans-65" d="M 3597 1894 
L 3597 1613 
L 953 1613 
Q 991 1019 1311 708 
Q 1631 397 2203 397 
Q 2534 397 2845 478 
Q 3156 559 3463 722 
L 3463 178 
Q 3153 47 2828 -22 
Q 2503 -91 2169 -91 
Q 1331 -91 842 396 
Q 353 884 353 1716 
Q 353 2575 817 3079 
Q 1281 3584 2069 3584 
Q 2775 3584 3186 3129 
Q 3597 2675 3597 1894 
z
M 3022 2063 
Q 3016 2534 2758 2815 
Q 2500 3097 2075 3097 
Q 1594 3097 1305 2825 
Q 1016 2553 972 2059 
L 3022 2063 
z
" transform="scale(0.015625)"/>
       <path id="DejaVuSans-63" d="M 3122 3366 
L 3122 2828 
Q 2878 2963 2633 3030 
Q 2388 3097 2138 3097 
Q 1578 3097 1268 2742 
Q 959 2388 959 1747 
Q 959 1106 1268 751 
Q 1578 397 2138 397 
Q 2388 397 2633 464 
Q 2878 531 3122 666 
L 3122 134 
Q 2881 22 2623 -34 
Q 2366 -91 2075 -91 
Q 1284 -91 818 406 
Q 353 903 353 1747 
Q 353 2603 823 3093 
Q 1294 3584 2113 3584 
Q 2378 3584 2631 3529 
Q 2884 3475 3122 3366 
z
" transform="scale(0.015625)"/>
       <path id="DejaVuSans-20" transform="scale(0.015625)"/>
       <path id="DejaVuSans-6f" d="M 1959 3097 
Q 1497 3097 1228 2736 
Q 959 2375 959 1747 
Q 959 1119 1226 758 
Q 1494 397 1959 397 
Q 2419 397 2687 759 
Q 2956 1122 2956 1747 
Q 2956 2369 2687 2733 
Q 2419 3097 1959 3097 
z
M 1959 3584 
Q 2709 3584 3137 3096 
Q 3566 2609 3566 1747 
Q 3566 888 3137 398 
Q 2709 -91 1959 -91 
Q 1206 -91 779 398 
Q 353 888 353 1747 
Q 353 2609 779 3096 
Q 1206 3584 1959 3584 
z
" transform="scale(0.015625)"/>
       <path id="DejaVuSans-73" d="M 2834 3397 
L 2834 2853 
Q 2591 2978 2328 3040 
Q 2066 3103 1784 3103 
Q 1356 3103 1142 2972 
Q 928 2841 928 2578 
Q 928 2378 1081 2264 
Q 1234 2150 1697 2047 
L 1894 2003 
Q 2506 1872 2764 1633 
Q 3022 1394 3022 966 
Q 3022 478 2636 193 
Q 2250 -91 1575 -91 
Q 1294 -91 989 -36 
Q 684 19 347 128 
L 347 722 
Q 666 556 975 473 
Q 1284 391 1588 391 
Q 1994 391 2212 530 
Q 2431 669 2431 922 
Q 2431 1156 2273 1281 
Q 2116 1406 1581 1522 
L 1381 1569 
Q 847 1681 609 1914 
Q 372 2147 372 2553 
Q 372 3047 722 3315 
Q 1072 3584 1716 3584 
Q 2034 3584 2315 3537 
Q 2597 3491 2834 3397 
z
" transform="scale(0.015625)"/>
       <path id="DejaVuSans-72" d="M 2631 2963 
Q 2534 3019 2420 3045 
Q 2306 3072 2169 3072 
Q 1681 3072 1420 2755 
Q 1159 2438 1159 1844 
L 1159 0 
L 581 0 
L 581 3500 
L 1159 3500 
L 1159 2956 
Q 1341 3275 1631 3429 
Q 1922 3584 2338 3584 
Q 2397 3584 2469 3576 
Q 2541 3569 2628 3553 
L 2631 2963 
z
" transform="scale(0.015625)"/>
       <path id="DejaVuSans-70" d="M 1159 525 
L 1159 -1331 
L 581 -1331 
L 581 3500 
L 1159 3500 
L 1159 2969 
Q 1341 3281 1617 3432 
Q 1894 3584 2278 3584 
Q 2916 3584 3314 3078 
Q 3713 2572 3713 1747 
Q 3713 922 3314 415 
Q 2916 -91 2278 -91 
Q 1894 -91 1617 61 
Q 1341 213 1159 525 
z
M 3116 1747 
Q 3116 2381 2855 2742 
Q 2594 3103 2138 3103 
Q 1681 3103 1420 2742 
Q 1159 2381 1159 1747 
Q 1159 1113 1420 752 
Q 1681 391 2138 391 
Q 2594 391 2855 752 
Q 3116 1113 3116 1747 
z
" transform="scale(0.015625)"/>
       <path id="DejaVuSans-69" d="M 603 3500 
L 1178 3500 
L 1178 0 
L 603 0 
L 603 3500 
z
M 603 4863 
L 1178 4863 
L 1178 4134 
L 603 4134 
L 603 4863 
z
" transform="scale(0.015625)"/>
       <path id="DejaVuSans-61" d="M 2194 1759 
Q 1497 1759 1228 1600 
Q 959 1441 959 1056 
Q 959 750 1161 570 
Q 1363 391 1709 391 
Q 2188 391 2477 730 
Q 2766 1069 2766 1631 
L 2766 1759 
L 2194 1759 
z
M 3341 1997 
L 3341 0 
L 2766 0 
L 2766 531 
Q 2569 213 2275 61 
Q 1981 -91 1556 -91 
Q 1019 -91 701 211 
Q 384 513 384 1019 
Q 384 1609 779 1909 
Q 1175 2209 1959 2209 
L 2766 2209 
L 2766 2266 
Q 2766 2663 2505 2880 
Q 2244 3097 1772 3097 
Q 1472 3097 1187 3025 
Q 903 2953 641 2809 
L 641 3341 
Q 956 3463 1253 3523 
Q 1550 3584 1831 3584 
Q 2591 3584 2966 3190 
Q 3341 2797 3341 1997 
z
" transform="scale(0.015625)"/>
       <path id="DejaVuSans-28" d="M 1984 4856 
Q 1566 4138 1362 3434 
Q 1159 2731 1159 2009 
Q 1159 1288 1364 580 
Q 1569 -128 1984 -844 
L 1484 -844 
Q 1016 -109 783 600 
Q 550 1309 550 2009 
Q 550 2706 781 3412 
Q 1013 4119 1484 4856 
L 1984 4856 
z
" transform="scale(0.015625)"/>
       <path id="DejaVuSans-6d" d="M 3328 2828 
Q 3544 3216 3844 3400 
Q 4144 3584 4550 3584 
Q 5097 3584 5394 3201 
Q 5691 2819 5691 2113 
L 5691 0 
L 5113 0 
L 5113 2094 
Q 5113 2597 4934 2840 
Q 4756 3084 4391 3084 
Q 3944 3084 3684 2787 
Q 3425 2491 3425 1978 
L 3425 0 
L 2847 0 
L 2847 2094 
Q 2847 2600 2669 2842 
Q 2491 3084 2119 3084 
Q 1678 3084 1418 2786 
Q 1159 2488 1159 1978 
L 1159 0 
L 581 0 
L 581 3500 
L 1159 3500 
L 1159 2956 
Q 1356 3278 1631 3431 
Q 1906 3584 2284 3584 
Q 2666 3584 2933 3390 
Q 3200 3197 3328 2828 
z
" transform="scale(0.015625)"/>
       <path id="DejaVuSans-74" d="M 1172 4494 
L 1172 3500 
L 2356 3500 
L 2356 3053 
L 1172 3053 
L 1172 1153 
Q 1172 725 1289 603 
Q 1406 481 1766 481 
L 2356 481 
L 2356 0 
L 1766 0 
Q 1100 0 847 248 
Q 594 497 594 1153 
L 594 3053 
L 172 3053 
L 172 3500 
L 594 3500 
L 594 4494 
L 1172 4494 
z
" transform="scale(0.015625)"/>
       <path id="DejaVuSans-29" d="M 513 4856 
L 1013 4856 
Q 1481 4119 1714 3412 
Q 1947 2706 1947 2009 
Q 1947 1309 1714 600 
Q 1481 -109 1013 -844 
L 513 -844 
Q 928 -128 1133 580 
Q 1338 1288 1338 2009 
Q 1338 2731 1133 3434 
Q 928 4138 513 4856 
z
" transform="scale(0.015625)"/>
      </defs>
      <use xlink:href="#DejaVuSans-49"/>
      <use xlink:href="#DejaVuSans-6e" x="29.492188"/>
      <use xlink:href="#DejaVuSans-66" x="92.871094"/>
      <use xlink:href="#DejaVuSans-6c" x="128.076172"/>
      <use xlink:href="#DejaVuSans-75" x="155.859375"/>
      <use xlink:href="#DejaVuSans-65" x="219.238281"/>
      <use xlink:href="#DejaVuSans-6e" x="280.761719"/>
      <use xlink:href="#DejaVuSans-63" x="344.140625"/>
      <use xlink:href="#DejaVuSans-65" x="399.121094"/>
      <use xlink:href="#DejaVuSans-20" x="460.644531"/>
      <use xlink:href="#DejaVuSans-6f" x="492.431641"/>
      <use xlink:href="#DejaVuSans-66" x="553.613281"/>
      <use xlink:href="#DejaVuSans-20" x="588.818359"/>
      <use xlink:href="#DejaVuSans-73" x="620.605469"/>
      <use xlink:href="#DejaVuSans-75" x="672.705078"/>
      <use xlink:href="#DejaVuSans-72" x="736.083984"/>
      <use xlink:href="#DejaVuSans-70" x="777.197266"/>
      <use xlink:href="#DejaVuSans-72" x="840.673828"/>
      <use xlink:href="#DejaVuSans-69" x="881.787109"/>
      <use xlink:href="#DejaVuSans-73" x="909.570312"/>
      <use xlink:href="#DejaVuSans-61" x="961.669922"/>
      <use xlink:href="#DejaVuSans-6c" x="1022.949219"/>
      <use xlink:href="#DejaVuSans-20" x="1050.732422"/>
      <use xlink:href="#DejaVuSans-28" x="1082.519531"/>
      <use xlink:href="#DejaVuSans-6d" x="1121.533203"/>
      <use xlink:href="#DejaVuSans-75" x="1218.945312"/>
      <use xlink:href="#DejaVuSans-6c" x="1282.324219"/>
      <use xlink:href="#DejaVuSans-74" x="1310.107422"/>
      <use xlink:href="#DejaVuSans-69" x="1349.316406"/>
      <use xlink:href="#DejaVuSans-70" x="1377.099609"/>
      <use xlink:href="#DejaVuSans-6c" x="1440.576172"/>
      <use xlink:href="#DejaVuSans-69" x="1468.359375"/>
      <use xlink:href="#DejaVuSans-63" x="1496.142578"/>
      <use xlink:href="#DejaVuSans-61" x="1551.123047"/>
      <use xlink:href="#DejaVuSans-74" x="1612.402344"/>
      <use xlink:href="#DejaVuSans-69" x="1651.611328"/>
      <use xlink:href="#DejaVuSans-6f" x="1679.394531"/>
      <use xlink:href="#DejaVuSans-6e" x="1740.576172"/>
      <use xlink:href="#DejaVuSans-29" x="1803.955078"/>
     </g>
    </g>
   </g>
   <g id="matplotlib.axis_2">
    <g id="ytick_1">
     <g id="line2d_6">
      <defs>
       <path id="mc213c9ef4c" d="M 0 0 
L -3.5 0 
" style="stroke: #000000; stroke-width: 0.8"/>
      </defs>
      <g>
       <use xlink:href="#mc213c9ef4c" x="47.72" y="154.479685" style="stroke: #000000; stroke-width: 0.8"/>
      </g>
     </g>
     <g id="text_7">
      <!-- 0.2 -->
      <g transform="translate(24.816875 158.278904)scale(0.1 -0.1)">
       <use xlink:href="#DejaVuSans-30"/>
       <use xlink:href="#DejaVuSans-2e" x="63.623047"/>
       <use xlink:href="#DejaVuSans-32" x="95.410156"/>
      </g>
     </g>
    </g>
    <g id="ytick_2">
     <g id="line2d_7">
      <g>
       <use xlink:href="#mc213c9ef4c" x="47.72" y="122.19418" style="stroke: #000000; stroke-width: 0.8"/>
      </g>
     </g>
     <g id="text_8">
      <!-- 0.4 -->
      <g transform="translate(24.816875 125.993398)scale(0.1 -0.1)">
       <defs>
        <path id="DejaVuSans-34" d="M 2419 4116 
L 825 1625 
L 2419 1625 
L 2419 4116 
z
M 2253 4666 
L 3047 4666 
L 3047 1625 
L 3713 1625 
L 3713 1100 
L 3047 1100 
L 3047 0 
L 2419 0 
L 2419 1100 
L 313 1100 
L 313 1709 
L 2253 4666 
z
" transform="scale(0.015625)"/>
       </defs>
       <use xlink:href="#DejaVuSans-30"/>
       <use xlink:href="#DejaVuSans-2e" x="63.623047"/>
       <use xlink:href="#DejaVuSans-34" x="95.410156"/>
      </g>
     </g>
    </g>
    <g id="ytick_3">
     <g id="line2d_8">
      <g>
       <use xlink:href="#mc213c9ef4c" x="47.72" y="89.908674" style="stroke: #000000; stroke-width: 0.8"/>
      </g>
     </g>
     <g id="text_9">
      <!-- 0.6 -->
      <g transform="translate(24.816875 93.707893)scale(0.1 -0.1)">
       <defs>
        <path id="DejaVuSans-36" d="M 2113 2584 
Q 1688 2584 1439 2293 
Q 1191 2003 1191 1497 
Q 1191 994 1439 701 
Q 1688 409 2113 409 
Q 2538 409 2786 701 
Q 3034 994 3034 1497 
Q 3034 2003 2786 2293 
Q 2538 2584 2113 2584 
z
M 3366 4563 
L 3366 3988 
Q 3128 4100 2886 4159 
Q 2644 4219 2406 4219 
Q 1781 4219 1451 3797 
Q 1122 3375 1075 2522 
Q 1259 2794 1537 2939 
Q 1816 3084 2150 3084 
Q 2853 3084 3261 2657 
Q 3669 2231 3669 1497 
Q 3669 778 3244 343 
Q 2819 -91 2113 -91 
Q 1303 -91 875 529 
Q 447 1150 447 2328 
Q 447 3434 972 4092 
Q 1497 4750 2381 4750 
Q 2619 4750 2861 4703 
Q 3103 4656 3366 4563 
z
" transform="scale(0.015625)"/>
       </defs>
       <use xlink:href="#DejaVuSans-30"/>
       <use xlink:href="#DejaVuSans-2e" x="63.623047"/>
       <use xlink:href="#DejaVuSans-36" x="95.410156"/>
      </g>
     </g>
    </g>
    <g id="ytick_4">
     <g id="line2d_9">
      <g>
       <use xlink:href="#mc213c9ef4c" x="47.72" y="57.623168" style="stroke: #000000; stroke-width: 0.8"/>
      </g>
     </g>
     <g id="text_10">
      <!-- 0.8 -->
      <g transform="translate(24.816875 61.422387)scale(0.1 -0.1)">
       <defs>
        <path id="DejaVuSans-38" d="M 2034 2216 
Q 1584 2216 1326 1975 
Q 1069 1734 1069 1313 
Q 1069 891 1326 650 
Q 1584 409 2034 409 
Q 2484 409 2743 651 
Q 3003 894 3003 1313 
Q 3003 1734 2745 1975 
Q 2488 2216 2034 2216 
z
M 1403 2484 
Q 997 2584 770 2862 
Q 544 3141 544 3541 
Q 544 4100 942 4425 
Q 1341 4750 2034 4750 
Q 2731 4750 3128 4425 
Q 3525 4100 3525 3541 
Q 3525 3141 3298 2862 
Q 3072 2584 2669 2484 
Q 3125 2378 3379 2068 
Q 3634 1759 3634 1313 
Q 3634 634 3220 271 
Q 2806 -91 2034 -91 
Q 1263 -91 848 271 
Q 434 634 434 1313 
Q 434 1759 690 2068 
Q 947 2378 1403 2484 
z
M 1172 3481 
Q 1172 3119 1398 2916 
Q 1625 2713 2034 2713 
Q 2441 2713 2670 2916 
Q 2900 3119 2900 3481 
Q 2900 3844 2670 4047 
Q 2441 4250 2034 4250 
Q 1625 4250 1398 4047 
Q 1172 3844 1172 3481 
z
" transform="scale(0.015625)"/>
       </defs>
       <use xlink:href="#DejaVuSans-30"/>
       <use xlink:href="#DejaVuSans-2e" x="63.623047"/>
       <use xlink:href="#DejaVuSans-38" x="95.410156"/>
      </g>
     </g>
    </g>
    <g id="text_11">
     <!-- R-value -->
     <g transform="translate(18.737188 119.064687)rotate(-90)scale(0.1 -0.1)">
      <defs>
       <path id="DejaVuSans-52" d="M 2841 2188 
Q 3044 2119 3236 1894 
Q 3428 1669 3622 1275 
L 4263 0 
L 3584 0 
L 2988 1197 
Q 2756 1666 2539 1819 
Q 2322 1972 1947 1972 
L 1259 1972 
L 1259 0 
L 628 0 
L 628 4666 
L 2053 4666 
Q 2853 4666 3247 4331 
Q 3641 3997 3641 3322 
Q 3641 2881 3436 2590 
Q 3231 2300 2841 2188 
z
M 1259 4147 
L 1259 2491 
L 2053 2491 
Q 2509 2491 2742 2702 
Q 2975 2913 2975 3322 
Q 2975 3731 2742 3939 
Q 2509 4147 2053 4147 
L 1259 4147 
z
" transform="scale(0.015625)"/>
       <path id="DejaVuSans-2d" d="M 313 2009 
L 1997 2009 
L 1997 1497 
L 313 1497 
L 313 2009 
z
" transform="scale(0.015625)"/>
       <path id="DejaVuSans-76" d="M 191 3500 
L 800 3500 
L 1894 563 
L 2988 3500 
L 3597 3500 
L 2284 0 
L 1503 0 
L 191 3500 
z
" transform="scale(0.015625)"/>
      </defs>
      <use xlink:href="#DejaVuSans-52"/>
      <use xlink:href="#DejaVuSans-2d" x="65.482422"/>
      <use xlink:href="#DejaVuSans-76" x="98.941406"/>
      <use xlink:href="#DejaVuSans-61" x="158.121094"/>
      <use xlink:href="#DejaVuSans-6c" x="219.400391"/>
      <use xlink:href="#DejaVuSans-75" x="247.183594"/>
      <use xlink:href="#DejaVuSans-65" x="310.5625"/>
     </g>
    </g>
   </g>
   <g id="line2d_10">
    <path d="M 47.72 34.229778 
L 59.167105 35.955107 
L 70.614211 41.591997 
L 82.061316 48.434599 
L 93.508421 57.255808 
L 104.955526 66.771179 
L 116.402632 77.194568 
L 127.849737 86.054083 
L 139.296842 95.882608 
L 150.743947 104.075262 
L 162.191053 111.904943 
L 173.638158 118.442027 
L 185.085263 124.120714 
L 196.532368 130.092007 
L 207.979474 135.381028 
L 219.426579 139.529597 
L 230.873684 143.696208 
L 242.320789 146.930115 
L 253.767895 150.324466 
L 265.215 153.46596 
" clip-path="url(#pdb67bc9e78)" style="fill: none; stroke: #1f77b4; stroke-width: 1.5; stroke-linecap: square"/>
   </g>
   <g id="line2d_11">
    <path d="M 47.72 34.245191 
L 59.167105 35.363618 
L 70.614211 38.436782 
L 82.061316 42.645382 
L 93.508421 48.50142 
L 104.955526 55.576405 
L 116.402632 64.045198 
L 127.849737 71.577394 
L 139.296842 80.50338 
L 150.743947 88.414502 
L 162.191053 96.190106 
L 173.638158 103.425009 
L 185.085263 109.778255 
L 196.532368 116.8002 
L 207.979474 122.984296 
L 219.426579 127.914305 
L 230.873684 133.096066 
L 242.320789 137.214384 
L 253.767895 141.515623 
L 265.215 145.327521 
" clip-path="url(#pdb67bc9e78)" style="fill: none; stroke: #ff7f0e; stroke-width: 1.5; stroke-linecap: square"/>
   </g>
   <g id="line2d_12">
    <path d="M 47.72 34.244193 
L 59.167105 35.538509 
L 70.614211 38.238223 
L 82.061316 41.065498 
L 93.508421 45.124358 
L 104.955526 48.997841 
L 116.402632 53.854704 
L 127.849737 58.370005 
L 139.296842 63.184694 
L 150.743947 67.724843 
L 162.191053 72.561943 
L 173.638158 77.83734 
L 185.085263 82.319698 
L 196.532368 86.697916 
L 207.979474 91.254936 
L 219.426579 95.19551 
L 230.873684 99.789761 
L 242.320789 103.591434 
L 253.767895 107.320952 
L 265.215 111.140145 
" clip-path="url(#pdb67bc9e78)" style="fill: none; stroke: #2ca02c; stroke-width: 1.5; stroke-linecap: square"/>
   </g>
   <g id="line2d_13">
    <path d="M 47.72 34.260636 
L 59.167105 35.294304 
L 70.614211 37.310433 
L 82.061316 39.647209 
L 93.508421 43.144906 
L 104.955526 46.869948 
L 116.402632 51.717359 
L 127.849737 56.252649 
L 139.296842 61.271884 
L 150.743947 66.025542 
L 162.191053 71.00488 
L 173.638158 76.437641 
L 185.085263 81.012848 
L 196.532368 85.358117 
L 207.979474 89.918492 
L 219.426579 93.854831 
L 230.873684 98.336164 
L 242.320789 102.107169 
L 253.767895 105.479436 
L 265.215 109.112743 
" clip-path="url(#pdb67bc9e78)" style="fill: none; stroke: #d62728; stroke-width: 1.5; stroke-linecap: square"/>
   </g>
   <g id="line2d_14">
    <path d="M 47.72 34.233247 
L 59.167105 35.964312 
L 70.614211 41.598646 
L 82.061316 48.472561 
L 93.508421 57.246519 
L 104.955526 66.949992 
L 116.402632 77.302852 
L 127.849737 86.204575 
L 139.296842 96.315197 
L 150.743947 104.18802 
L 162.191053 112.265599 
L 173.638158 118.978103 
L 185.085263 124.959049 
L 196.532368 130.502505 
L 207.979474 136.003243 
L 219.426579 139.883264 
L 230.873684 143.838105 
L 242.320789 148.120364 
L 253.767895 151.619677 
L 265.215 154.317023 
" clip-path="url(#pdb67bc9e78)" style="fill: none; stroke: #9467bd; stroke-width: 1.5; stroke-linecap: square"/>
   </g>
   <g id="line2d_15">
    <path d="M 47.72 34.248871 
L 59.167105 35.368388 
L 70.614211 38.446976 
L 82.061316 42.662919 
L 93.508421 48.510443 
L 104.955526 55.708391 
L 116.402632 64.111659 
L 127.849737 71.689711 
L 139.296842 80.822459 
L 150.743947 88.415795 
L 162.191053 96.489344 
L 173.638158 103.902955 
L 185.085263 110.454627 
L 196.532368 117.14446 
L 207.979474 123.493748 
L 219.426579 128.263821 
L 230.873684 133.06085 
L 242.320789 138.093243 
L 253.767895 142.389214 
L 265.215 146.070211 
" clip-path="url(#pdb67bc9e78)" style="fill: none; stroke: #8c564b; stroke-width: 1.5; stroke-linecap: square"/>
   </g>
   <g id="line2d_16">
    <path d="M 47.72 45.924452 
L 59.167105 48.193507 
L 70.614211 54.872806 
L 82.061316 62.970924 
L 93.508421 73.279344 
L 104.955526 83.691845 
L 116.402632 94.782029 
L 127.849737 104.068255 
L 139.296842 113.622399 
L 150.743947 121.721977 
L 162.191053 129.563532 
L 173.638158 135.466998 
L 185.085263 141.165952 
L 196.532368 145.814401 
L 207.979474 150.210771 
L 219.426579 153.506008 
L 230.873684 156.707843 
L 242.320789 158.852498 
L 253.767895 161.231065 
L 265.215 163.46057 
" clip-path="url(#pdb67bc9e78)" style="fill: none; stroke: #e377c2; stroke-width: 1.5; stroke-linecap: square"/>
   </g>
   <g id="line2d_17">
    <path d="M 47.72 34.252229 
L 59.167105 34.749134 
L 70.614211 35.387247 
L 82.061316 36.983629 
L 93.508421 40.302354 
L 104.955526 45.247281 
L 116.402632 52.23343 
L 127.849737 58.79425 
L 139.296842 67.034906 
L 150.743947 74.812084 
L 162.191053 82.568002 
L 173.638158 90.465897 
L 185.085263 97.879882 
L 196.532368 105.214691 
L 207.979474 112.085129 
L 219.426579 117.868764 
L 230.873684 123.574151 
L 242.320789 128.321972 
L 253.767895 132.998844 
L 265.215 137.285515 
" clip-path="url(#pdb67bc9e78)" style="fill: none; stroke: #7f7f7f; stroke-width: 1.5; stroke-linecap: square"/>
   </g>
   <g id="patch_3">
    <path d="M 47.72 174.04 
L 47.72 26.88 
" style="fill: none; stroke: #000000; stroke-width: 0.8; stroke-linejoin: miter; stroke-linecap: square"/>
   </g>
   <g id="patch_4">
    <path d="M 47.72 174.04 
L 265.215 174.04 
" style="fill: none; stroke: #000000; stroke-width: 0.8; stroke-linejoin: miter; stroke-linecap: square"/>
   </g>
   <g id="text_12">
    <!-- Node * surprisal -->
    <g transform="translate(108.18625 20.88)scale(0.12 -0.12)">
     <defs>
      <path id="DejaVuSans-4e" d="M 628 4666 
L 1478 4666 
L 3547 763 
L 3547 4666 
L 4159 4666 
L 4159 0 
L 3309 0 
L 1241 3903 
L 1241 0 
L 628 0 
L 628 4666 
z
" transform="scale(0.015625)"/>
      <path id="DejaVuSans-64" d="M 2906 2969 
L 2906 4863 
L 3481 4863 
L 3481 0 
L 2906 0 
L 2906 525 
Q 2725 213 2448 61 
Q 2172 -91 1784 -91 
Q 1150 -91 751 415 
Q 353 922 353 1747 
Q 353 2572 751 3078 
Q 1150 3584 1784 3584 
Q 2172 3584 2448 3432 
Q 2725 3281 2906 2969 
z
M 947 1747 
Q 947 1113 1208 752 
Q 1469 391 1925 391 
Q 2381 391 2643 752 
Q 2906 1113 2906 1747 
Q 2906 2381 2643 2742 
Q 2381 3103 1925 3103 
Q 1469 3103 1208 2742 
Q 947 2381 947 1747 
z
" transform="scale(0.015625)"/>
      <path id="DejaVuSans-2a" d="M 3009 3897 
L 1888 3291 
L 3009 2681 
L 2828 2375 
L 1778 3009 
L 1778 1831 
L 1422 1831 
L 1422 3009 
L 372 2375 
L 191 2681 
L 1313 3291 
L 191 3897 
L 372 4206 
L 1422 3572 
L 1422 4750 
L 1778 4750 
L 1778 3572 
L 2828 4206 
L 3009 3897 
z
" transform="scale(0.015625)"/>
     </defs>
     <use xlink:href="#DejaVuSans-4e"/>
     <use xlink:href="#DejaVuSans-6f" x="74.804688"/>
     <use xlink:href="#DejaVuSans-64" x="135.986328"/>
     <use xlink:href="#DejaVuSans-65" x="199.462891"/>
     <use xlink:href="#DejaVuSans-20" x="260.986328"/>
     <use xlink:href="#DejaVuSans-2a" x="292.773438"/>
     <use xlink:href="#DejaVuSans-20" x="342.773438"/>
     <use xlink:href="#DejaVuSans-73" x="374.560547"/>
     <use xlink:href="#DejaVuSans-75" x="426.660156"/>
     <use xlink:href="#DejaVuSans-72" x="490.039062"/>
     <use xlink:href="#DejaVuSans-70" x="531.152344"/>
     <use xlink:href="#DejaVuSans-72" x="594.628906"/>
     <use xlink:href="#DejaVuSans-69" x="635.742188"/>
     <use xlink:href="#DejaVuSans-73" x="663.525391"/>
     <use xlink:href="#DejaVuSans-61" x="715.625"/>
     <use xlink:href="#DejaVuSans-6c" x="776.904297"/>
    </g>
   </g>
  </g>
  <g id="axes_2">
   <g id="patch_5">
    <path d="M 298.065 174.04 
L 515.56 174.04 
L 515.56 26.88 
L 298.065 26.88 
z
" style="fill: #ffffff"/>
   </g>
   <g id="PolyCollection_9">
    <path d="M 298.065 33.569091 
L 298.065 34.951467 
L 309.512105 36.616352 
L 320.959211 42.475129 
L 332.406316 50.90792 
L 343.853421 60.712527 
L 355.300526 71.884934 
L 366.747632 81.957725 
L 378.194737 92.508431 
L 389.641842 102.629913 
L 401.088947 110.820142 
L 412.536053 118.666146 
L 423.983158 126.292992 
L 435.430263 131.999479 
L 446.877368 137.59875 
L 458.324474 142.80368 
L 469.771579 147.299124 
L 481.218684 150.830052 
L 492.665789 155.017598 
L 504.112895 158.464559 
L 515.56 159.771198 
L 515.56 149.633396 
L 515.56 149.633396 
L 504.112895 146.270167 
L 492.665789 142.45076 
L 481.218684 138.476343 
L 469.771579 134.164127 
L 458.324474 127.924513 
L 446.877368 123.766192 
L 435.430263 117.570866 
L 423.983158 110.808542 
L 412.536053 104.135626 
L 401.088947 96.135027 
L 389.641842 88.272591 
L 378.194737 80.470295 
L 366.747632 71.583467 
L 355.300526 62.07614 
L 343.853421 53.914616 
L 332.406316 46.50243 
L 320.959211 40.012668 
L 309.512105 35.385967 
L 298.065 33.569091 
z
" clip-path="url(#p0a9401543f)" style="fill: #1f77b4; fill-opacity: 0.4"/>
   </g>
   <g id="PolyCollection_10">
    <path d="M 298.065 33.581974 
L 298.065 34.952318 
L 309.512105 36.627679 
L 320.959211 42.481344 
L 332.406316 50.933254 
L 343.853421 60.751158 
L 355.300526 71.978807 
L 366.747632 82.060845 
L 378.194737 92.660135 
L 389.641842 102.815195 
L 401.088947 111.032423 
L 412.536053 118.919859 
L 423.983158 126.429601 
L 435.430263 132.20395 
L 446.877368 137.754766 
L 458.324474 142.855053 
L 469.771579 147.284576 
L 481.218684 150.783305 
L 492.665789 155.050374 
L 504.112895 158.444564 
L 515.56 159.942525 
L 515.56 150.194735 
L 515.56 150.194735 
L 504.112895 146.624476 
L 492.665789 142.880257 
L 481.218684 138.703511 
L 469.771579 134.310653 
L 458.324474 128.142896 
L 446.877368 123.901248 
L 435.430263 117.645897 
L 423.983158 110.894209 
L 412.536053 104.206921 
L 401.088947 96.158129 
L 389.641842 88.265328 
L 378.194737 80.465853 
L 366.747632 71.5757 
L 355.300526 62.076717 
L 343.853421 53.918517 
L 332.406316 46.515748 
L 320.959211 40.036004 
L 309.512105 35.395967 
L 298.065 33.581974 
z
" clip-path="url(#p0a9401543f)" style="fill: #ff7f0e; fill-opacity: 0.4"/>
   </g>
   <g id="PolyCollection_11">
    <path d="M 298.065 33.594166 
L 298.065 34.952069 
L 309.512105 36.637868 
L 320.959211 42.491903 
L 332.406316 50.99914 
L 343.853421 60.914712 
L 355.300526 72.18556 
L 366.747632 82.347345 
L 378.194737 93.03583 
L 389.641842 103.213773 
L 401.088947 111.424027 
L 412.536053 119.366805 
L 423.983158 126.93854 
L 435.430263 132.578132 
L 446.877368 137.999121 
L 458.324474 143.264667 
L 469.771579 147.600507 
L 481.218684 151.031648 
L 492.665789 155.286702 
L 504.112895 158.687687 
L 515.56 160.189191 
L 515.56 151.470675 
L 515.56 151.470675 
L 504.112895 147.878643 
L 492.665789 143.960006 
L 481.218684 139.825967 
L 469.771579 135.206054 
L 458.324474 128.75506 
L 446.877368 124.462991 
L 435.430263 118.061704 
L 423.983158 111.186195 
L 412.536053 104.346667 
L 401.088947 96.399953 
L 389.641842 88.448286 
L 378.194737 80.606184 
L 366.747632 71.606485 
L 355.300526 62.117968 
L 343.853421 53.908169 
L 332.406316 46.50222 
L 320.959211 40.017708 
L 309.512105 35.39916 
L 298.065 33.594166 
z
" clip-path="url(#p0a9401543f)" style="fill: #2ca02c; fill-opacity: 0.4"/>
   </g>
   <g id="PolyCollection_12">
    <path d="M 298.065 33.604645 
L 298.065 34.94769 
L 309.512105 36.65388 
L 320.959211 42.512619 
L 332.406316 51.009434 
L 343.853421 60.921499 
L 355.300526 72.1923 
L 366.747632 82.330323 
L 378.194737 93.002717 
L 389.641842 103.200124 
L 401.088947 111.444318 
L 412.536053 119.323569 
L 423.983158 126.839972 
L 435.430263 132.532713 
L 446.877368 137.924076 
L 458.324474 143.089435 
L 469.771579 147.415016 
L 481.218684 150.939652 
L 492.665789 155.257608 
L 504.112895 158.671748 
L 515.56 160.267417 
L 515.56 151.492677 
L 515.56 151.492677 
L 504.112895 147.733706 
L 492.665789 144.014525 
L 481.218684 139.791415 
L 469.771579 135.223825 
L 458.324474 128.992939 
L 446.877368 124.609523 
L 435.430263 118.275477 
L 423.983158 111.430131 
L 412.536053 104.583438 
L 401.088947 96.580736 
L 389.641842 88.644008 
L 378.194737 80.794518 
L 366.747632 71.768123 
L 355.300526 62.218296 
L 343.853421 53.989007 
L 332.406316 46.590311 
L 320.959211 40.049916 
L 309.512105 35.409202 
L 298.065 33.604645 
z
" clip-path="url(#p0a9401543f)" style="fill: #d62728; fill-opacity: 0.4"/>
   </g>
   <g id="PolyCollection_13">
    <path d="M 298.065 33.57963 
L 298.065 34.960491 
L 309.512105 36.626703 
L 320.959211 42.502862 
L 332.406316 50.920873 
L 343.853421 60.774624 
L 355.300526 71.803818 
L 366.747632 81.717083 
L 378.194737 92.817723 
L 389.641842 102.847578 
L 401.088947 111.235829 
L 412.536053 119.097641 
L 423.983158 127.012524 
L 435.430263 131.968549 
L 446.877368 138.727294 
L 458.324474 143.353409 
L 469.771579 148.277257 
L 481.218684 151.199904 
L 492.665789 155.39509 
L 504.112895 161.298119 
L 515.56 160.222262 
L 515.56 149.204142 
L 515.56 149.204142 
L 504.112895 146.674121 
L 492.665789 143.241914 
L 481.218684 138.636391 
L 469.771579 134.948038 
L 458.324474 129.033212 
L 446.877368 124.17996 
L 435.430263 117.590973 
L 423.983158 110.554123 
L 412.536053 104.388715 
L 401.088947 96.316851 
L 389.641842 88.289449 
L 378.194737 80.696721 
L 366.747632 71.650472 
L 355.300526 62.14571 
L 343.853421 53.889368 
L 332.406316 46.59014 
L 320.959211 40.081329 
L 309.512105 35.413038 
L 298.065 33.57963 
z
" clip-path="url(#p0a9401543f)" style="fill: #9467bd; fill-opacity: 0.4"/>
   </g>
   <g id="PolyCollection_14">
    <path d="M 298.065 33.592523 
L 298.065 34.961318 
L 309.512105 36.637264 
L 320.959211 42.508286 
L 332.406316 50.946019 
L 343.853421 60.8089 
L 355.300526 71.892577 
L 366.747632 81.818959 
L 378.194737 92.94705 
L 389.641842 103.039219 
L 401.088947 111.44907 
L 412.536053 119.350559 
L 423.983158 127.133207 
L 435.430263 132.198794 
L 446.877368 138.921742 
L 458.324474 143.404679 
L 469.771579 148.265937 
L 481.218684 151.114482 
L 492.665789 155.398354 
L 504.112895 161.24222 
L 515.56 160.367205 
L 515.56 149.721455 
L 515.56 149.721455 
L 504.112895 146.946025 
L 492.665789 143.706182 
L 481.218684 138.864837 
L 469.771579 135.078961 
L 458.324474 129.271177 
L 446.877368 124.265089 
L 435.430263 117.670728 
L 423.983158 110.670116 
L 412.536053 104.451474 
L 401.088947 96.341405 
L 389.641842 88.305364 
L 378.194737 80.701024 
L 366.747632 71.642609 
L 355.300526 62.150103 
L 343.853421 53.897746 
L 332.406316 46.607217 
L 320.959211 40.105035 
L 309.512105 35.424106 
L 298.065 33.592523 
z
" clip-path="url(#p0a9401543f)" style="fill: #8c564b; fill-opacity: 0.4"/>
   </g>
   <g id="PolyCollection_15">
    <path d="M 298.065 43.817158 
L 298.065 48.075505 
L 309.512105 49.114239 
L 320.959211 54.62404 
L 332.406316 61.940143 
L 343.853421 70.408234 
L 355.300526 80.440184 
L 366.747632 89.680293 
L 378.194737 99.273447 
L 389.641842 109.08089 
L 401.088947 117.323889 
L 412.536053 124.5988 
L 423.983158 131.672325 
L 435.430263 136.911408 
L 446.877368 141.832462 
L 458.324474 146.548329 
L 469.771579 150.287138 
L 481.218684 153.32675 
L 492.665789 157.03701 
L 504.112895 160.216554 
L 515.56 161.538633 
L 515.56 151.508314 
L 515.56 151.508314 
L 504.112895 148.514058 
L 492.665789 144.891171 
L 481.218684 141.016207 
L 469.771579 136.778933 
L 458.324474 131.28602 
L 446.877368 127.468321 
L 435.430263 121.725197 
L 423.983158 115.464552 
L 412.536053 109.044829 
L 401.088947 102.213771 
L 389.641842 94.993253 
L 378.194737 87.896558 
L 366.747632 79.928065 
L 355.300526 71.168432 
L 343.853421 63.4134 
L 332.406316 56.38534 
L 320.959211 49.917658 
L 309.512105 45.685899 
L 298.065 43.817158 
z
" clip-path="url(#p0a9401543f)" style="fill: #e377c2; fill-opacity: 0.4"/>
   </g>
   <g id="PolyCollection_16">
    <path d="M 298.065 33.592607 
L 298.065 34.973979 
L 309.512105 36.633237 
L 320.959211 42.481929 
L 332.406316 50.933209 
L 343.853421 60.761441 
L 355.300526 71.970167 
L 366.747632 82.094177 
L 378.194737 92.74032 
L 389.641842 102.945127 
L 401.088947 111.28985 
L 412.536053 119.332292 
L 423.983158 126.883646 
L 435.430263 132.767204 
L 446.877368 138.265515 
L 458.324474 143.439552 
L 469.771579 147.632117 
L 481.218684 151.21699 
L 492.665789 155.184965 
L 504.112895 158.612814 
L 515.56 160.243271 
L 515.56 150.360272 
L 515.56 150.360272 
L 504.112895 146.733589 
L 492.665789 143.184169 
L 481.218684 138.812341 
L 469.771579 134.317049 
L 458.324474 128.09333 
L 446.877368 124.057532 
L 435.430263 117.791622 
L 423.983158 111.073769 
L 412.536053 104.390142 
L 401.088947 96.418569 
L 389.641842 88.544291 
L 378.194737 80.715709 
L 366.747632 71.664524 
L 355.300526 62.157457 
L 343.853421 53.968955 
L 332.406316 46.511299 
L 320.959211 40.035865 
L 309.512105 35.395601 
L 298.065 33.592607 
z
" clip-path="url(#p0a9401543f)" style="fill: #7f7f7f; fill-opacity: 0.4"/>
   </g>
   <g id="matplotlib.axis_3">
    <g id="xtick_6">
     <g id="line2d_18">
      <g>
       <use xlink:href="#m49595bf493" x="298.065" y="174.04" style="stroke: #000000; stroke-width: 0.8"/>
      </g>
     </g>
     <g id="text_13">
      <!-- 0.0 -->
      <g transform="translate(290.113437 188.638438)scale(0.1 -0.1)">
       <use xlink:href="#DejaVuSans-30"/>
       <use xlink:href="#DejaVuSans-2e" x="63.623047"/>
       <use xlink:href="#DejaVuSans-30" x="95.410156"/>
      </g>
     </g>
    </g>
    <g id="xtick_7">
     <g id="line2d_19">
      <g>
       <use xlink:href="#m49595bf493" x="352.43875" y="174.04" style="stroke: #000000; stroke-width: 0.8"/>
      </g>
     </g>
     <g id="text_14">
      <!-- 0.5 -->
      <g transform="translate(344.487187 188.638438)scale(0.1 -0.1)">
       <use xlink:href="#DejaVuSans-30"/>
       <use xlink:href="#DejaVuSans-2e" x="63.623047"/>
       <use xlink:href="#DejaVuSans-35" x="95.410156"/>
      </g>
     </g>
    </g>
    <g id="xtick_8">
     <g id="line2d_20">
      <g>
       <use xlink:href="#m49595bf493" x="406.8125" y="174.04" style="stroke: #000000; stroke-width: 0.8"/>
      </g>
     </g>
     <g id="text_15">
      <!-- 1.0 -->
      <g transform="translate(398.860937 188.638438)scale(0.1 -0.1)">
       <use xlink:href="#DejaVuSans-31"/>
       <use xlink:href="#DejaVuSans-2e" x="63.623047"/>
       <use xlink:href="#DejaVuSans-30" x="95.410156"/>
      </g>
     </g>
    </g>
    <g id="xtick_9">
     <g id="line2d_21">
      <g>
       <use xlink:href="#m49595bf493" x="461.18625" y="174.04" style="stroke: #000000; stroke-width: 0.8"/>
      </g>
     </g>
     <g id="text_16">
      <!-- 1.5 -->
      <g transform="translate(453.234687 188.638438)scale(0.1 -0.1)">
       <use xlink:href="#DejaVuSans-31"/>
       <use xlink:href="#DejaVuSans-2e" x="63.623047"/>
       <use xlink:href="#DejaVuSans-35" x="95.410156"/>
      </g>
     </g>
    </g>
    <g id="xtick_10">
     <g id="line2d_22">
      <g>
       <use xlink:href="#m49595bf493" x="515.56" y="174.04" style="stroke: #000000; stroke-width: 0.8"/>
      </g>
     </g>
     <g id="text_17">
      <!-- 2.0 -->
      <g transform="translate(507.608437 188.638438)scale(0.1 -0.1)">
       <use xlink:href="#DejaVuSans-32"/>
       <use xlink:href="#DejaVuSans-2e" x="63.623047"/>
       <use xlink:href="#DejaVuSans-30" x="95.410156"/>
      </g>
     </g>
    </g>
    <g id="text_18">
     <!-- Influence of surprisal (multiplication) -->
     <g transform="translate(314.665625 202.316563)scale(0.1 -0.1)">
      <use xlink:href="#DejaVuSans-49"/>
      <use xlink:href="#DejaVuSans-6e" x="29.492188"/>
      <use xlink:href="#DejaVuSans-66" x="92.871094"/>
      <use xlink:href="#DejaVuSans-6c" x="128.076172"/>
      <use xlink:href="#DejaVuSans-75" x="155.859375"/>
      <use xlink:href="#DejaVuSans-65" x="219.238281"/>
      <use xlink:href="#DejaVuSans-6e" x="280.761719"/>
      <use xlink:href="#DejaVuSans-63" x="344.140625"/>
      <use xlink:href="#DejaVuSans-65" x="399.121094"/>
      <use xlink:href="#DejaVuSans-20" x="460.644531"/>
      <use xlink:href="#DejaVuSans-6f" x="492.431641"/>
      <use xlink:href="#DejaVuSans-66" x="553.613281"/>
      <use xlink:href="#DejaVuSans-20" x="588.818359"/>
      <use xlink:href="#DejaVuSans-73" x="620.605469"/>
      <use xlink:href="#DejaVuSans-75" x="672.705078"/>
      <use xlink:href="#DejaVuSans-72" x="736.083984"/>
      <use xlink:href="#DejaVuSans-70" x="777.197266"/>
      <use xlink:href="#DejaVuSans-72" x="840.673828"/>
      <use xlink:href="#DejaVuSans-69" x="881.787109"/>
      <use xlink:href="#DejaVuSans-73" x="909.570312"/>
      <use xlink:href="#DejaVuSans-61" x="961.669922"/>
      <use xlink:href="#DejaVuSans-6c" x="1022.949219"/>
      <use xlink:href="#DejaVuSans-20" x="1050.732422"/>
      <use xlink:href="#DejaVuSans-28" x="1082.519531"/>
      <use xlink:href="#DejaVuSans-6d" x="1121.533203"/>
      <use xlink:href="#DejaVuSans-75" x="1218.945312"/>
      <use xlink:href="#DejaVuSans-6c" x="1282.324219"/>
      <use xlink:href="#DejaVuSans-74" x="1310.107422"/>
      <use xlink:href="#DejaVuSans-69" x="1349.316406"/>
      <use xlink:href="#DejaVuSans-70" x="1377.099609"/>
      <use xlink:href="#DejaVuSans-6c" x="1440.576172"/>
      <use xlink:href="#DejaVuSans-69" x="1468.359375"/>
      <use xlink:href="#DejaVuSans-63" x="1496.142578"/>
      <use xlink:href="#DejaVuSans-61" x="1551.123047"/>
      <use xlink:href="#DejaVuSans-74" x="1612.402344"/>
      <use xlink:href="#DejaVuSans-69" x="1651.611328"/>
      <use xlink:href="#DejaVuSans-6f" x="1679.394531"/>
      <use xlink:href="#DejaVuSans-6e" x="1740.576172"/>
      <use xlink:href="#DejaVuSans-29" x="1803.955078"/>
     </g>
    </g>
   </g>
   <g id="line2d_23">
    <path d="M 298.065 34.260279 
L 309.512105 36.001159 
L 320.959211 41.243898 
L 332.406316 48.705175 
L 343.853421 57.313572 
L 355.300526 66.980537 
L 366.747632 76.770596 
L 378.194737 86.489363 
L 389.641842 95.451252 
L 401.088947 103.477585 
L 412.536053 111.400886 
L 423.983158 118.550767 
L 435.430263 124.785172 
L 446.877368 130.682471 
L 458.324474 135.364096 
L 469.771579 140.731625 
L 481.218684 144.653197 
L 492.665789 148.734179 
L 504.112895 152.367363 
L 515.56 154.702297 
" clip-path="url(#p0a9401543f)" style="fill: none; stroke: #1f77b4; stroke-width: 1.5; stroke-linecap: square"/>
   </g>
   <g id="line2d_24">
    <path d="M 298.065 34.267146 
L 309.512105 36.011823 
L 320.959211 41.258674 
L 332.406316 48.724501 
L 343.853421 57.334838 
L 355.300526 67.027762 
L 366.747632 76.818272 
L 378.194737 86.562994 
L 389.641842 95.540261 
L 401.088947 103.595276 
L 412.536053 111.56339 
L 423.983158 118.661905 
L 435.430263 124.924924 
L 446.877368 130.828007 
L 458.324474 135.498974 
L 469.771579 140.797614 
L 481.218684 144.743408 
L 492.665789 148.965315 
L 504.112895 152.53452 
L 515.56 155.06863 
" clip-path="url(#p0a9401543f)" style="fill: none; stroke: #ff7f0e; stroke-width: 1.5; stroke-linecap: square"/>
   </g>
   <g id="line2d_25">
    <path d="M 298.065 34.273118 
L 309.512105 36.018514 
L 320.959211 41.254806 
L 332.406316 48.75068 
L 343.853421 57.411441 
L 355.300526 67.151764 
L 366.747632 76.976915 
L 378.194737 86.821007 
L 389.641842 95.83103 
L 401.088947 103.91199 
L 412.536053 111.856736 
L 423.983158 119.062368 
L 435.430263 125.319918 
L 446.877368 131.231056 
L 458.324474 136.009864 
L 469.771579 141.403281 
L 481.218684 145.428807 
L 492.665789 149.623354 
L 504.112895 153.283165 
L 515.56 155.829933 
" clip-path="url(#p0a9401543f)" style="fill: none; stroke: #2ca02c; stroke-width: 1.5; stroke-linecap: square"/>
   </g>
   <g id="line2d_26">
    <path d="M 298.065 34.276168 
L 309.512105 36.031541 
L 320.959211 41.281268 
L 332.406316 48.799873 
L 343.853421 57.455253 
L 355.300526 67.205298 
L 366.747632 77.049223 
L 378.194737 86.898617 
L 389.641842 95.922066 
L 401.088947 104.012527 
L 412.536053 111.953503 
L 423.983158 119.135052 
L 435.430263 125.404095 
L 446.877368 131.2668 
L 458.324474 136.041187 
L 469.771579 141.31942 
L 481.218684 145.365534 
L 492.665789 149.636067 
L 504.112895 153.202727 
L 515.56 155.880047 
" clip-path="url(#p0a9401543f)" style="fill: none; stroke: #d62728; stroke-width: 1.5; stroke-linecap: square"/>
   </g>
   <g id="line2d_27">
    <path d="M 298.065 34.270061 
L 309.512105 36.019871 
L 320.959211 41.292096 
L 332.406316 48.755506 
L 343.853421 57.331996 
L 355.300526 66.974764 
L 366.747632 76.683778 
L 378.194737 86.757222 
L 389.641842 95.568513 
L 401.088947 103.77634 
L 412.536053 111.743178 
L 423.983158 118.783323 
L 435.430263 124.779761 
L 446.877368 131.453627 
L 458.324474 136.19331 
L 469.771579 141.612648 
L 481.218684 144.918147 
L 492.665789 149.318502 
L 504.112895 153.98612 
L 515.56 154.713202 
" clip-path="url(#p0a9401543f)" style="fill: none; stroke: #9467bd; stroke-width: 1.5; stroke-linecap: square"/>
   </g>
   <g id="line2d_28">
    <path d="M 298.065 34.276921 
L 309.512105 36.030685 
L 320.959211 41.30666 
L 332.406316 48.776618 
L 343.853421 57.353323 
L 355.300526 67.02134 
L 366.747632 76.730784 
L 378.194737 86.824037 
L 389.641842 95.672292 
L 401.088947 103.895237 
L 412.536053 111.901016 
L 423.983158 118.901661 
L 435.430263 124.934761 
L 446.877368 131.593415 
L 458.324474 136.337928 
L 469.771579 141.672449 
L 481.218684 144.98966 
L 492.665789 149.552268 
L 504.112895 154.094123 
L 515.56 155.04433 
" clip-path="url(#p0a9401543f)" style="fill: none; stroke: #8c564b; stroke-width: 1.5; stroke-linecap: square"/>
   </g>
   <g id="line2d_29">
    <path d="M 298.065 45.946331 
L 309.512105 47.400069 
L 320.959211 52.270849 
L 332.406316 59.162741 
L 343.853421 66.910817 
L 355.300526 75.804308 
L 366.747632 84.804179 
L 378.194737 93.585002 
L 389.641842 102.037071 
L 401.088947 109.76883 
L 412.536053 116.821814 
L 423.983158 123.568439 
L 435.430263 129.318303 
L 446.877368 134.650392 
L 458.324474 138.917175 
L 469.771579 143.533036 
L 481.218684 147.171479 
L 492.665789 150.96409 
L 504.112895 154.365306 
L 515.56 156.523474 
" clip-path="url(#p0a9401543f)" style="fill: none; stroke: #e377c2; stroke-width: 1.5; stroke-linecap: square"/>
   </g>
   <g id="line2d_30">
    <path d="M 298.065 34.283293 
L 309.512105 36.014419 
L 320.959211 41.258897 
L 332.406316 48.722254 
L 343.853421 57.365198 
L 355.300526 67.063812 
L 366.747632 76.87935 
L 378.194737 86.728015 
L 389.641842 95.744709 
L 401.088947 103.854209 
L 412.536053 111.861217 
L 423.983158 118.978708 
L 435.430263 125.279413 
L 446.877368 131.161524 
L 458.324474 135.766441 
L 469.771579 140.974583 
L 481.218684 145.014665 
L 492.665789 149.184567 
L 504.112895 152.673202 
L 515.56 155.301772 
" clip-path="url(#p0a9401543f)" style="fill: none; stroke: #7f7f7f; stroke-width: 1.5; stroke-linecap: square"/>
   </g>
   <g id="patch_6">
    <path d="M 298.065 174.04 
L 298.065 26.88 
" style="fill: none; stroke: #000000; stroke-width: 0.8; stroke-linejoin: miter; stroke-linecap: square"/>
   </g>
   <g id="patch_7">
    <path d="M 298.065 174.04 
L 515.56 174.04 
" style="fill: none; stroke: #000000; stroke-width: 0.8; stroke-linejoin: miter; stroke-linecap: square"/>
   </g>
   <g id="text_19">
    <!-- Node * third variable -->
    <g transform="translate(344.2325 20.88)scale(0.12 -0.12)">
     <defs>
      <path id="DejaVuSans-68" d="M 3513 2113 
L 3513 0 
L 2938 0 
L 2938 2094 
Q 2938 2591 2744 2837 
Q 2550 3084 2163 3084 
Q 1697 3084 1428 2787 
Q 1159 2491 1159 1978 
L 1159 0 
L 581 0 
L 581 4863 
L 1159 4863 
L 1159 2956 
Q 1366 3272 1645 3428 
Q 1925 3584 2291 3584 
Q 2894 3584 3203 3211 
Q 3513 2838 3513 2113 
z
" transform="scale(0.015625)"/>
      <path id="DejaVuSans-62" d="M 3116 1747 
Q 3116 2381 2855 2742 
Q 2594 3103 2138 3103 
Q 1681 3103 1420 2742 
Q 1159 2381 1159 1747 
Q 1159 1113 1420 752 
Q 1681 391 2138 391 
Q 2594 391 2855 752 
Q 3116 1113 3116 1747 
z
M 1159 2969 
Q 1341 3281 1617 3432 
Q 1894 3584 2278 3584 
Q 2916 3584 3314 3078 
Q 3713 2572 3713 1747 
Q 3713 922 3314 415 
Q 2916 -91 2278 -91 
Q 1894 -91 1617 61 
Q 1341 213 1159 525 
L 1159 0 
L 581 0 
L 581 4863 
L 1159 4863 
L 1159 2969 
z
" transform="scale(0.015625)"/>
     </defs>
     <use xlink:href="#DejaVuSans-4e"/>
     <use xlink:href="#DejaVuSans-6f" x="74.804688"/>
     <use xlink:href="#DejaVuSans-64" x="135.986328"/>
     <use xlink:href="#DejaVuSans-65" x="199.462891"/>
     <use xlink:href="#DejaVuSans-20" x="260.986328"/>
     <use xlink:href="#DejaVuSans-2a" x="292.773438"/>
     <use xlink:href="#DejaVuSans-20" x="342.773438"/>
     <use xlink:href="#DejaVuSans-74" x="374.560547"/>
     <use xlink:href="#DejaVuSans-68" x="413.769531"/>
     <use xlink:href="#DejaVuSans-69" x="477.148438"/>
     <use xlink:href="#DejaVuSans-72" x="504.931641"/>
     <use xlink:href="#DejaVuSans-64" x="544.294922"/>
     <use xlink:href="#DejaVuSans-20" x="607.771484"/>
     <use xlink:href="#DejaVuSans-76" x="639.558594"/>
     <use xlink:href="#DejaVuSans-61" x="698.738281"/>
     <use xlink:href="#DejaVuSans-72" x="760.017578"/>
     <use xlink:href="#DejaVuSans-69" x="801.130859"/>
     <use xlink:href="#DejaVuSans-61" x="828.914062"/>
     <use xlink:href="#DejaVuSans-62" x="890.193359"/>
     <use xlink:href="#DejaVuSans-6c" x="953.669922"/>
     <use xlink:href="#DejaVuSans-65" x="981.453125"/>
    </g>
   </g>
   <g id="legend_1">
    <g id="line2d_31">
     <path d="M 524.56 39.978437 
L 534.56 39.978437 
L 544.56 39.978437 
" style="fill: none; stroke: #1f77b4; stroke-width: 1.5; stroke-linecap: square"/>
    </g>
    <g id="text_20">
     <!-- Node -->
     <g transform="translate(552.56 43.478437)scale(0.1 -0.1)">
      <use xlink:href="#DejaVuSans-4e"/>
      <use xlink:href="#DejaVuSans-6f" x="74.804688"/>
      <use xlink:href="#DejaVuSans-64" x="135.986328"/>
      <use xlink:href="#DejaVuSans-65" x="199.462891"/>
     </g>
    </g>
    <g id="line2d_32">
     <path d="M 524.56 54.656563 
L 534.56 54.656563 
L 544.56 54.656563 
" style="fill: none; stroke: #ff7f0e; stroke-width: 1.5; stroke-linecap: square"/>
    </g>
    <g id="text_21">
     <!-- Node + surprisal -->
     <g transform="translate(552.56 58.156563)scale(0.1 -0.1)">
      <defs>
       <path id="DejaVuSans-2b" d="M 2944 4013 
L 2944 2272 
L 4684 2272 
L 4684 1741 
L 2944 1741 
L 2944 0 
L 2419 0 
L 2419 1741 
L 678 1741 
L 678 2272 
L 2419 2272 
L 2419 4013 
L 2944 4013 
z
" transform="scale(0.015625)"/>
      </defs>
      <use xlink:href="#DejaVuSans-4e"/>
      <use xlink:href="#DejaVuSans-6f" x="74.804688"/>
      <use xlink:href="#DejaVuSans-64" x="135.986328"/>
      <use xlink:href="#DejaVuSans-65" x="199.462891"/>
      <use xlink:href="#DejaVuSans-20" x="260.986328"/>
      <use xlink:href="#DejaVuSans-2b" x="292.773438"/>
      <use xlink:href="#DejaVuSans-20" x="376.5625"/>
      <use xlink:href="#DejaVuSans-73" x="408.349609"/>
      <use xlink:href="#DejaVuSans-75" x="460.449219"/>
      <use xlink:href="#DejaVuSans-72" x="523.828125"/>
      <use xlink:href="#DejaVuSans-70" x="564.941406"/>
      <use xlink:href="#DejaVuSans-72" x="628.417969"/>
      <use xlink:href="#DejaVuSans-69" x="669.53125"/>
      <use xlink:href="#DejaVuSans-73" x="697.314453"/>
      <use xlink:href="#DejaVuSans-61" x="749.414062"/>
      <use xlink:href="#DejaVuSans-6c" x="810.693359"/>
     </g>
    </g>
    <g id="line2d_33">
     <path d="M 524.56 69.334687 
L 534.56 69.334687 
L 544.56 69.334687 
" style="fill: none; stroke: #2ca02c; stroke-width: 1.5; stroke-linecap: square"/>
    </g>
    <g id="text_22">
     <!-- Node split -->
     <g transform="translate(552.56 72.834687)scale(0.1 -0.1)">
      <use xlink:href="#DejaVuSans-4e"/>
      <use xlink:href="#DejaVuSans-6f" x="74.804688"/>
      <use xlink:href="#DejaVuSans-64" x="135.986328"/>
      <use xlink:href="#DejaVuSans-65" x="199.462891"/>
      <use xlink:href="#DejaVuSans-20" x="260.986328"/>
      <use xlink:href="#DejaVuSans-73" x="292.773438"/>
      <use xlink:href="#DejaVuSans-70" x="344.873047"/>
      <use xlink:href="#DejaVuSans-6c" x="408.349609"/>
      <use xlink:href="#DejaVuSans-69" x="436.132812"/>
      <use xlink:href="#DejaVuSans-74" x="463.916016"/>
     </g>
    </g>
    <g id="line2d_34">
     <path d="M 524.56 84.012812 
L 534.56 84.012812 
L 544.56 84.012812 
" style="fill: none; stroke: #d62728; stroke-width: 1.5; stroke-linecap: square"/>
    </g>
    <g id="text_23">
     <!-- Node split + surprisal -->
     <g transform="translate(552.56 87.512812)scale(0.1 -0.1)">
      <use xlink:href="#DejaVuSans-4e"/>
      <use xlink:href="#DejaVuSans-6f" x="74.804688"/>
      <use xlink:href="#DejaVuSans-64" x="135.986328"/>
      <use xlink:href="#DejaVuSans-65" x="199.462891"/>
      <use xlink:href="#DejaVuSans-20" x="260.986328"/>
      <use xlink:href="#DejaVuSans-73" x="292.773438"/>
      <use xlink:href="#DejaVuSans-70" x="344.873047"/>
      <use xlink:href="#DejaVuSans-6c" x="408.349609"/>
      <use xlink:href="#DejaVuSans-69" x="436.132812"/>
      <use xlink:href="#DejaVuSans-74" x="463.916016"/>
      <use xlink:href="#DejaVuSans-20" x="503.125"/>
      <use xlink:href="#DejaVuSans-2b" x="534.912109"/>
      <use xlink:href="#DejaVuSans-20" x="618.701172"/>
      <use xlink:href="#DejaVuSans-73" x="650.488281"/>
      <use xlink:href="#DejaVuSans-75" x="702.587891"/>
      <use xlink:href="#DejaVuSans-72" x="765.966797"/>
      <use xlink:href="#DejaVuSans-70" x="807.080078"/>
      <use xlink:href="#DejaVuSans-72" x="870.556641"/>
      <use xlink:href="#DejaVuSans-69" x="911.669922"/>
      <use xlink:href="#DejaVuSans-73" x="939.453125"/>
      <use xlink:href="#DejaVuSans-61" x="991.552734"/>
      <use xlink:href="#DejaVuSans-6c" x="1052.832031"/>
     </g>
    </g>
    <g id="line2d_35">
     <path d="M 524.56 98.690937 
L 534.56 98.690937 
L 544.56 98.690937 
" style="fill: none; stroke: #9467bd; stroke-width: 1.5; stroke-linecap: square"/>
    </g>
    <g id="text_24">
     <!-- Node random split -->
     <g transform="translate(552.56 102.190937)scale(0.1 -0.1)">
      <use xlink:href="#DejaVuSans-4e"/>
      <use xlink:href="#DejaVuSans-6f" x="74.804688"/>
      <use xlink:href="#DejaVuSans-64" x="135.986328"/>
      <use xlink:href="#DejaVuSans-65" x="199.462891"/>
      <use xlink:href="#DejaVuSans-20" x="260.986328"/>
      <use xlink:href="#DejaVuSans-72" x="292.773438"/>
      <use xlink:href="#DejaVuSans-61" x="333.886719"/>
      <use xlink:href="#DejaVuSans-6e" x="395.166016"/>
      <use xlink:href="#DejaVuSans-64" x="458.544922"/>
      <use xlink:href="#DejaVuSans-6f" x="522.021484"/>
      <use xlink:href="#DejaVuSans-6d" x="583.203125"/>
      <use xlink:href="#DejaVuSans-20" x="680.615234"/>
      <use xlink:href="#DejaVuSans-73" x="712.402344"/>
      <use xlink:href="#DejaVuSans-70" x="764.501953"/>
      <use xlink:href="#DejaVuSans-6c" x="827.978516"/>
      <use xlink:href="#DejaVuSans-69" x="855.761719"/>
      <use xlink:href="#DejaVuSans-74" x="883.544922"/>
     </g>
    </g>
    <g id="line2d_36">
     <path d="M 524.56 113.369062 
L 534.56 113.369062 
L 544.56 113.369062 
" style="fill: none; stroke: #8c564b; stroke-width: 1.5; stroke-linecap: square"/>
    </g>
    <g id="text_25">
     <!-- Node random split + surprisal -->
     <g transform="translate(552.56 116.869062)scale(0.1 -0.1)">
      <use xlink:href="#DejaVuSans-4e"/>
      <use xlink:href="#DejaVuSans-6f" x="74.804688"/>
      <use xlink:href="#DejaVuSans-64" x="135.986328"/>
      <use xlink:href="#DejaVuSans-65" x="199.462891"/>
      <use xlink:href="#DejaVuSans-20" x="260.986328"/>
      <use xlink:href="#DejaVuSans-72" x="292.773438"/>
      <use xlink:href="#DejaVuSans-61" x="333.886719"/>
      <use xlink:href="#DejaVuSans-6e" x="395.166016"/>
      <use xlink:href="#DejaVuSans-64" x="458.544922"/>
      <use xlink:href="#DejaVuSans-6f" x="522.021484"/>
      <use xlink:href="#DejaVuSans-6d" x="583.203125"/>
      <use xlink:href="#DejaVuSans-20" x="680.615234"/>
      <use xlink:href="#DejaVuSans-73" x="712.402344"/>
      <use xlink:href="#DejaVuSans-70" x="764.501953"/>
      <use xlink:href="#DejaVuSans-6c" x="827.978516"/>
      <use xlink:href="#DejaVuSans-69" x="855.761719"/>
      <use xlink:href="#DejaVuSans-74" x="883.544922"/>
      <use xlink:href="#DejaVuSans-20" x="922.753906"/>
      <use xlink:href="#DejaVuSans-2b" x="954.541016"/>
      <use xlink:href="#DejaVuSans-20" x="1038.330078"/>
      <use xlink:href="#DejaVuSans-73" x="1070.117188"/>
      <use xlink:href="#DejaVuSans-75" x="1122.216797"/>
      <use xlink:href="#DejaVuSans-72" x="1185.595703"/>
      <use xlink:href="#DejaVuSans-70" x="1226.708984"/>
      <use xlink:href="#DejaVuSans-72" x="1290.185547"/>
      <use xlink:href="#DejaVuSans-69" x="1331.298828"/>
      <use xlink:href="#DejaVuSans-73" x="1359.082031"/>
      <use xlink:href="#DejaVuSans-61" x="1411.181641"/>
      <use xlink:href="#DejaVuSans-6c" x="1472.460938"/>
     </g>
    </g>
    <g id="line2d_37">
     <path d="M 524.56 128.047187 
L 534.56 128.047187 
L 544.56 128.047187 
" style="fill: none; stroke: #e377c2; stroke-width: 1.5; stroke-linecap: square"/>
    </g>
    <g id="text_26">
     <!-- Interaction -->
     <g transform="translate(552.56 131.547187)scale(0.1 -0.1)">
      <use xlink:href="#DejaVuSans-49"/>
      <use xlink:href="#DejaVuSans-6e" x="29.492188"/>
      <use xlink:href="#DejaVuSans-74" x="92.871094"/>
      <use xlink:href="#DejaVuSans-65" x="132.080078"/>
      <use xlink:href="#DejaVuSans-72" x="193.603516"/>
      <use xlink:href="#DejaVuSans-61" x="234.716797"/>
      <use xlink:href="#DejaVuSans-63" x="295.996094"/>
      <use xlink:href="#DejaVuSans-74" x="350.976562"/>
      <use xlink:href="#DejaVuSans-69" x="390.185547"/>
      <use xlink:href="#DejaVuSans-6f" x="417.96875"/>
      <use xlink:href="#DejaVuSans-6e" x="479.150391"/>
     </g>
    </g>
    <g id="line2d_38">
     <path d="M 524.56 142.725312 
L 534.56 142.725312 
L 544.56 142.725312 
" style="fill: none; stroke: #7f7f7f; stroke-width: 1.5; stroke-linecap: square"/>
    </g>
    <g id="text_27">
     <!-- Node + surprisal + interaction -->
     <g transform="translate(552.56 146.225312)scale(0.1 -0.1)">
      <use xlink:href="#DejaVuSans-4e"/>
      <use xlink:href="#DejaVuSans-6f" x="74.804688"/>
      <use xlink:href="#DejaVuSans-64" x="135.986328"/>
      <use xlink:href="#DejaVuSans-65" x="199.462891"/>
      <use xlink:href="#DejaVuSans-20" x="260.986328"/>
      <use xlink:href="#DejaVuSans-2b" x="292.773438"/>
      <use xlink:href="#DejaVuSans-20" x="376.5625"/>
      <use xlink:href="#DejaVuSans-73" x="408.349609"/>
      <use xlink:href="#DejaVuSans-75" x="460.449219"/>
      <use xlink:href="#DejaVuSans-72" x="523.828125"/>
      <use xlink:href="#DejaVuSans-70" x="564.941406"/>
      <use xlink:href="#DejaVuSans-72" x="628.417969"/>
      <use xlink:href="#DejaVuSans-69" x="669.53125"/>
      <use xlink:href="#DejaVuSans-73" x="697.314453"/>
      <use xlink:href="#DejaVuSans-61" x="749.414062"/>
      <use xlink:href="#DejaVuSans-6c" x="810.693359"/>
      <use xlink:href="#DejaVuSans-20" x="838.476562"/>
      <use xlink:href="#DejaVuSans-2b" x="870.263672"/>
      <use xlink:href="#DejaVuSans-20" x="954.052734"/>
      <use xlink:href="#DejaVuSans-69" x="985.839844"/>
      <use xlink:href="#DejaVuSans-6e" x="1013.623047"/>
      <use xlink:href="#DejaVuSans-74" x="1077.001953"/>
      <use xlink:href="#DejaVuSans-65" x="1116.210938"/>
      <use xlink:href="#DejaVuSans-72" x="1177.734375"/>
      <use xlink:href="#DejaVuSans-61" x="1218.847656"/>
      <use xlink:href="#DejaVuSans-63" x="1280.126953"/>
      <use xlink:href="#DejaVuSans-74" x="1335.107422"/>
      <use xlink:href="#DejaVuSans-69" x="1374.316406"/>
      <use xlink:href="#DejaVuSans-6f" x="1402.099609"/>
      <use xlink:href="#DejaVuSans-6e" x="1463.28125"/>
     </g>
    </g>
   </g>
  </g>
 </g>
 <defs>
  <clipPath id="pdb67bc9e78">
   <rect x="47.72" y="26.88" width="217.495" height="147.16"/>
  </clipPath>
  <clipPath id="p0a9401543f">
   <rect x="298.065" y="26.88" width="217.495" height="147.16"/>
  </clipPath>
 </defs>
</svg>
