<?xml version="1.0" encoding="utf-8" standalone="no"?>
<!DOCTYPE svg PUBLIC "-//W3C//DTD SVG 1.1//EN"
  "http://www.w3.org/Graphics/SVG/1.1/DTD/svg11.dtd">
<svg xmlns:xlink="http://www.w3.org/1999/xlink" width="648pt" height="288pt" viewBox="0 0 648 288" xmlns="http://www.w3.org/2000/svg" version="1.1">
 <metadata>
  <rdf:RDF xmlns:dc="http://purl.org/dc/elements/1.1/" xmlns:cc="http://creativecommons.org/ns#" xmlns:rdf="http://www.w3.org/1999/02/22-rdf-syntax-ns#">
   <cc:Work>
    <dc:type rdf:resource="http://purl.org/dc/dcmitype/StillImage"/>
    <dc:date>2024-01-16T09:27:27.862557</dc:date>
    <dc:format>image/svg+xml</dc:format>
    <dc:creator>
     <cc:Agent>
      <dc:title>Matplotlib v3.5.1, https://matplotlib.org/</dc:title>
     </cc:Agent>
    </dc:creator>
   </cc:Work>
  </rdf:RDF>
 </metadata>
 <defs>
  <style type="text/css">*{stroke-linejoin: round; stroke-linecap: butt}</style>
 </defs>
 <g id="figure_1">
  <g id="patch_1">
   <path d="M 0 288 
L 648 288 
L 648 0 
L 0 0 
z
" style="fill: #ffffff"/>
  </g>
  <g id="axes_1">
   <g id="patch_2">
    <path d="M 47.675 246.2 
L 325.1625 246.2 
L 325.1625 26.8 
L 47.675 26.8 
z
" style="fill: #ffffff"/>
   </g>
   <g id="PolyCollection_1">
    <path d="M 47.675 36.772727 
L 47.675 38.206812 
L 62.279605 41.528292 
L 76.884211 51.273563 
L 91.488816 64.398149 
L 106.093421 80.08007 
L 120.698026 96.622289 
L 135.302632 113.281584 
L 149.907237 129.246175 
L 164.511842 144.176687 
L 179.116447 157.846837 
L 193.721053 170.330935 
L 208.325658 181.512302 
L 222.930263 191.539811 
L 237.534868 200.272687 
L 252.139474 207.89143 
L 266.744079 214.741954 
L 281.348684 220.69538 
L 295.953289 225.944337 
L 310.557895 230.517116 
L 325.1625 234.505706 
L 325.1625 216.971998 
L 325.1625 216.971998 
L 310.557895 212.259396 
L 295.953289 207.017017 
L 281.348684 201.185263 
L 266.744079 194.696879 
L 252.139474 187.482943 
L 237.534868 179.499379 
L 222.930263 170.498957 
L 208.325658 160.731302 
L 193.721053 149.938511 
L 179.116447 138.217791 
L 164.511842 125.660825 
L 149.907237 112.023902 
L 135.302632 97.9833 
L 120.698026 83.608437 
L 106.093421 69.746654 
L 91.488816 57.24038 
L 76.884211 47.273075 
L 62.279605 39.592921 
L 47.675 36.772727 
z
" clip-path="url(#p13f7180dd2)" style="fill: #1f77b4; fill-opacity: 0.2"/>
   </g>
   <g id="PolyCollection_2">
    <path d="M 47.675 36.789899 
L 47.675 38.228932 
L 62.279605 40.373543 
L 76.884211 45.74897 
L 91.488816 53.990767 
L 106.093421 65.01418 
L 120.698026 77.819196 
L 135.302632 91.708965 
L 149.907237 105.829478 
L 164.511842 119.878811 
L 179.116447 133.307863 
L 193.721053 146.118833 
L 208.325658 158.141122 
L 222.930263 169.282533 
L 237.534868 179.240617 
L 252.139474 188.292043 
L 266.744079 196.585378 
L 281.348684 203.930721 
L 295.953289 210.60268 
L 310.557895 216.446654 
L 325.1625 221.648472 
L 325.1625 202.720217 
L 325.1625 202.720217 
L 310.557895 197.048635 
L 295.953289 190.824816 
L 281.348684 184.052115 
L 266.744079 176.542956 
L 252.139474 168.317942 
L 237.534868 159.473514 
L 222.930263 149.607873 
L 208.325658 139.214981 
L 193.721053 128.124331 
L 179.116447 116.351763 
L 164.511842 104.150612 
L 149.907237 91.586638 
L 135.302632 79.428255 
L 120.698026 67.816308 
L 106.093421 57.510185 
L 91.488816 49.103364 
L 76.884211 43.084317 
L 62.279605 38.681903 
L 47.675 36.789899 
z
" clip-path="url(#p13f7180dd2)" style="fill: #ff7f0e; fill-opacity: 0.2"/>
   </g>
   <g id="PolyCollection_3">
    <path d="M 47.675 36.79043 
L 47.675 38.226325 
L 62.279605 40.729987 
L 76.884211 45.385096 
L 91.488816 51.361436 
L 106.093421 58.476877 
L 120.698026 66.154861 
L 135.302632 74.053958 
L 149.907237 81.874036 
L 164.511842 89.721823 
L 179.116447 97.456791 
L 193.721053 105.060989 
L 208.325658 112.711627 
L 222.930263 120.135 
L 237.534868 127.356637 
L 252.139474 134.45261 
L 266.744079 141.454105 
L 281.348684 148.198718 
L 295.953289 154.871679 
L 310.557895 161.14396 
L 325.1625 167.299205 
L 325.1625 148.767267 
L 325.1625 148.767267 
L 310.557895 142.986961 
L 295.953289 137.069173 
L 281.348684 131.113057 
L 266.744079 124.964891 
L 252.139474 118.567526 
L 237.534868 112.251826 
L 222.930263 105.614978 
L 208.325658 98.91857 
L 193.721053 92.110824 
L 179.116447 85.074123 
L 164.511842 78.120339 
L 149.907237 71.207971 
L 135.302632 64.371676 
L 120.698026 57.783328 
L 106.093421 51.777495 
L 91.488816 46.541399 
L 76.884211 42.558687 
L 62.279605 39.007111 
L 47.675 36.79043 
z
" clip-path="url(#p13f7180dd2)" style="fill: #2ca02c; fill-opacity: 0.2"/>
   </g>
   <g id="PolyCollection_4">
    <path d="M 47.675 36.809495 
L 47.675 38.248187 
L 62.279605 40.241108 
L 76.884211 43.718823 
L 91.488816 48.628222 
L 106.093421 54.997081 
L 120.698026 62.377067 
L 135.302632 70.280578 
L 149.907237 78.415846 
L 164.511842 86.65589 
L 179.116447 94.848196 
L 193.721053 102.884024 
L 208.325658 110.847673 
L 222.930263 118.435168 
L 237.534868 125.70301 
L 252.139474 132.69484 
L 266.744079 139.463858 
L 281.348684 145.931401 
L 295.953289 152.172647 
L 310.557895 158.046281 
L 325.1625 163.759619 
L 325.1625 145.801844 
L 325.1625 145.801844 
L 310.557895 140.352802 
L 295.953289 134.766598 
L 281.348684 129.042988 
L 266.744079 123.101998 
L 252.139474 116.872769 
L 237.534868 110.589082 
L 222.930263 103.928344 
L 208.325658 97.125433 
L 193.721053 90.119703 
L 179.116447 82.849619 
L 164.511842 75.620152 
L 149.907237 68.431762 
L 135.302632 61.505658 
L 120.698026 55.009935 
L 106.093421 49.348064 
L 91.488816 44.722863 
L 76.884211 41.435932 
L 62.279605 38.601201 
L 47.675 36.809495 
z
" clip-path="url(#p13f7180dd2)" style="fill: #d62728; fill-opacity: 0.2"/>
   </g>
   <g id="PolyCollection_5">
    <path d="M 47.675 36.790887 
L 47.675 38.225301 
L 62.279605 41.551272 
L 76.884211 51.312226 
L 91.488816 64.467771 
L 106.093421 80.19057 
L 120.698026 96.780667 
L 135.302632 113.498086 
L 149.907237 129.490532 
L 164.511842 144.432947 
L 179.116447 158.140764 
L 193.721053 170.757112 
L 208.325658 181.972374 
L 222.930263 192.074291 
L 237.534868 200.968549 
L 252.139474 208.704354 
L 266.744079 215.665418 
L 281.348684 221.573156 
L 295.953289 226.989083 
L 310.557895 231.597954 
L 325.1625 235.676923 
L 325.1625 217.92653 
L 325.1625 217.92653 
L 310.557895 213.228848 
L 295.953289 207.813917 
L 281.348684 201.855429 
L 266.744079 195.273762 
L 252.139474 188.111875 
L 237.534868 180.058044 
L 222.930263 171.009983 
L 208.325658 161.085163 
L 193.721053 150.258337 
L 179.116447 138.552762 
L 164.511842 125.9229 
L 149.907237 112.224143 
L 135.302632 98.185673 
L 120.698026 83.709602 
L 106.093421 69.833121 
L 91.488816 57.292665 
L 76.884211 47.313783 
L 62.279605 39.615279 
L 47.675 36.790887 
z
" clip-path="url(#p13f7180dd2)" style="fill: #9467bd; fill-opacity: 0.2"/>
   </g>
   <g id="PolyCollection_6">
    <path d="M 47.675 36.808767 
L 47.675 38.24825 
L 62.279605 40.394295 
L 76.884211 45.781896 
L 91.488816 54.038796 
L 106.093421 65.086897 
L 120.698026 77.925781 
L 135.302632 91.836741 
L 149.907237 106.018894 
L 164.511842 120.061004 
L 179.116447 133.506223 
L 193.721053 146.408311 
L 208.325658 158.484228 
L 222.930263 169.659809 
L 237.534868 179.759395 
L 252.139474 188.905246 
L 266.744079 197.27796 
L 281.348684 204.640487 
L 295.953289 211.368178 
L 310.557895 217.252731 
L 325.1625 222.482326 
L 325.1625 203.501217 
L 325.1625 203.501217 
L 310.557895 197.82571 
L 295.953289 191.471832 
L 281.348684 184.532479 
L 266.744079 176.986812 
L 252.139474 168.786597 
L 237.534868 159.92066 
L 222.930263 149.985345 
L 208.325658 139.479749 
L 193.721053 128.36186 
L 179.116447 116.548808 
L 164.511842 104.359556 
L 149.907237 91.741114 
L 135.302632 79.565872 
L 120.698026 67.88957 
L 106.093421 57.570831 
L 91.488816 49.143692 
L 76.884211 43.112455 
L 62.279605 38.704356 
L 47.675 36.808767 
z
" clip-path="url(#p13f7180dd2)" style="fill: #8c564b; fill-opacity: 0.2"/>
   </g>
   <g id="PolyCollection_7">
    <path d="M 47.675 36.808675 
L 47.675 38.248706 
L 62.279605 39.230918 
L 76.884211 40.674251 
L 91.488816 44.934506 
L 106.093421 52.421189 
L 120.698026 62.515994 
L 135.302632 74.440221 
L 149.907237 87.263876 
L 164.511842 100.554847 
L 179.116447 113.739307 
L 193.721053 126.613512 
L 208.325658 138.965838 
L 222.930263 150.657545 
L 237.534868 161.404414 
L 252.139474 171.44115 
L 266.744079 180.656628 
L 281.348684 189.009811 
L 295.953289 196.70559 
L 310.557895 203.577478 
L 325.1625 209.808959 
L 325.1625 191.317499 
L 325.1625 191.317499 
L 310.557895 184.685705 
L 295.953289 177.472088 
L 281.348684 169.581774 
L 266.744079 160.928942 
L 252.139474 151.470331 
L 237.534868 141.488971 
L 222.930263 130.490478 
L 208.325658 118.900647 
L 193.721053 106.811815 
L 179.116447 94.268942 
L 164.511842 81.876212 
L 149.907237 69.916485 
L 135.302632 59.144115 
L 120.698026 50.172824 
L 106.093421 43.73828 
L 91.488816 39.991499 
L 76.884211 38.490695 
L 62.279605 37.742931 
L 47.675 36.808675 
z
" clip-path="url(#p13f7180dd2)" style="fill: #e377c2; fill-opacity: 0.2"/>
   </g>
   <g id="matplotlib.axis_1">
    <g id="xtick_1">
     <g id="line2d_1">
      <defs>
       <path id="m879ad838ed" d="M 0 0 
L 0 3.5 
" style="stroke: #000000; stroke-width: 0.8"/>
      </defs>
      <g>
       <use xlink:href="#m879ad838ed" x="47.675" y="246.2" style="stroke: #000000; stroke-width: 0.8"/>
      </g>
     </g>
     <g id="text_1">
      <!-- 0.00 -->
      <g transform="translate(36.542188 260.798437)scale(0.1 -0.1)">
       <defs>
        <path id="DejaVuSans-30" d="M 2034 4250 
Q 1547 4250 1301 3770 
Q 1056 3291 1056 2328 
Q 1056 1369 1301 889 
Q 1547 409 2034 409 
Q 2525 409 2770 889 
Q 3016 1369 3016 2328 
Q 3016 3291 2770 3770 
Q 2525 4250 2034 4250 
z
M 2034 4750 
Q 2819 4750 3233 4129 
Q 3647 3509 3647 2328 
Q 3647 1150 3233 529 
Q 2819 -91 2034 -91 
Q 1250 -91 836 529 
Q 422 1150 422 2328 
Q 422 3509 836 4129 
Q 1250 4750 2034 4750 
z
" transform="scale(0.015625)"/>
        <path id="DejaVuSans-2e" d="M 684 794 
L 1344 794 
L 1344 0 
L 684 0 
L 684 794 
z
" transform="scale(0.015625)"/>
       </defs>
       <use xlink:href="#DejaVuSans-30"/>
       <use xlink:href="#DejaVuSans-2e" x="63.623047"/>
       <use xlink:href="#DejaVuSans-30" x="95.410156"/>
       <use xlink:href="#DejaVuSans-30" x="159.033203"/>
      </g>
     </g>
    </g>
    <g id="xtick_2">
     <g id="line2d_2">
      <g>
       <use xlink:href="#m879ad838ed" x="82.360938" y="246.2" style="stroke: #000000; stroke-width: 0.8"/>
      </g>
     </g>
     <g id="text_2">
      <!-- 0.25 -->
      <g transform="translate(71.228125 260.798437)scale(0.1 -0.1)">
       <defs>
        <path id="DejaVuSans-32" d="M 1228 531 
L 3431 531 
L 3431 0 
L 469 0 
L 469 531 
Q 828 903 1448 1529 
Q 2069 2156 2228 2338 
Q 2531 2678 2651 2914 
Q 2772 3150 2772 3378 
Q 2772 3750 2511 3984 
Q 2250 4219 1831 4219 
Q 1534 4219 1204 4116 
Q 875 4013 500 3803 
L 500 4441 
Q 881 4594 1212 4672 
Q 1544 4750 1819 4750 
Q 2544 4750 2975 4387 
Q 3406 4025 3406 3419 
Q 3406 3131 3298 2873 
Q 3191 2616 2906 2266 
Q 2828 2175 2409 1742 
Q 1991 1309 1228 531 
z
" transform="scale(0.015625)"/>
        <path id="DejaVuSans-35" d="M 691 4666 
L 3169 4666 
L 3169 4134 
L 1269 4134 
L 1269 2991 
Q 1406 3038 1543 3061 
Q 1681 3084 1819 3084 
Q 2600 3084 3056 2656 
Q 3513 2228 3513 1497 
Q 3513 744 3044 326 
Q 2575 -91 1722 -91 
Q 1428 -91 1123 -41 
Q 819 9 494 109 
L 494 744 
Q 775 591 1075 516 
Q 1375 441 1709 441 
Q 2250 441 2565 725 
Q 2881 1009 2881 1497 
Q 2881 1984 2565 2268 
Q 2250 2553 1709 2553 
Q 1456 2553 1204 2497 
Q 953 2441 691 2322 
L 691 4666 
z
" transform="scale(0.015625)"/>
       </defs>
       <use xlink:href="#DejaVuSans-30"/>
       <use xlink:href="#DejaVuSans-2e" x="63.623047"/>
       <use xlink:href="#DejaVuSans-32" x="95.410156"/>
       <use xlink:href="#DejaVuSans-35" x="159.033203"/>
      </g>
     </g>
    </g>
    <g id="xtick_3">
     <g id="line2d_3">
      <g>
       <use xlink:href="#m879ad838ed" x="117.046875" y="246.2" style="stroke: #000000; stroke-width: 0.8"/>
      </g>
     </g>
     <g id="text_3">
      <!-- 0.50 -->
      <g transform="translate(105.914062 260.798437)scale(0.1 -0.1)">
       <use xlink:href="#DejaVuSans-30"/>
       <use xlink:href="#DejaVuSans-2e" x="63.623047"/>
       <use xlink:href="#DejaVuSans-35" x="95.410156"/>
       <use xlink:href="#DejaVuSans-30" x="159.033203"/>
      </g>
     </g>
    </g>
    <g id="xtick_4">
     <g id="line2d_4">
      <g>
       <use xlink:href="#m879ad838ed" x="151.732812" y="246.2" style="stroke: #000000; stroke-width: 0.8"/>
      </g>
     </g>
     <g id="text_4">
      <!-- 0.75 -->
      <g transform="translate(140.6 260.798437)scale(0.1 -0.1)">
       <defs>
        <path id="DejaVuSans-37" d="M 525 4666 
L 3525 4666 
L 3525 4397 
L 1831 0 
L 1172 0 
L 2766 4134 
L 525 4134 
L 525 4666 
z
" transform="scale(0.015625)"/>
       </defs>
       <use xlink:href="#DejaVuSans-30"/>
       <use xlink:href="#DejaVuSans-2e" x="63.623047"/>
       <use xlink:href="#DejaVuSans-37" x="95.410156"/>
       <use xlink:href="#DejaVuSans-35" x="159.033203"/>
      </g>
     </g>
    </g>
    <g id="xtick_5">
     <g id="line2d_5">
      <g>
       <use xlink:href="#m879ad838ed" x="186.41875" y="246.2" style="stroke: #000000; stroke-width: 0.8"/>
      </g>
     </g>
     <g id="text_5">
      <!-- 1.00 -->
      <g transform="translate(175.285937 260.798437)scale(0.1 -0.1)">
       <defs>
        <path id="DejaVuSans-31" d="M 794 531 
L 1825 531 
L 1825 4091 
L 703 3866 
L 703 4441 
L 1819 4666 
L 2450 4666 
L 2450 531 
L 3481 531 
L 3481 0 
L 794 0 
L 794 531 
z
" transform="scale(0.015625)"/>
       </defs>
       <use xlink:href="#DejaVuSans-31"/>
       <use xlink:href="#DejaVuSans-2e" x="63.623047"/>
       <use xlink:href="#DejaVuSans-30" x="95.410156"/>
       <use xlink:href="#DejaVuSans-30" x="159.033203"/>
      </g>
     </g>
    </g>
    <g id="xtick_6">
     <g id="line2d_6">
      <g>
       <use xlink:href="#m879ad838ed" x="221.104687" y="246.2" style="stroke: #000000; stroke-width: 0.8"/>
      </g>
     </g>
     <g id="text_6">
      <!-- 1.25 -->
      <g transform="translate(209.971875 260.798437)scale(0.1 -0.1)">
       <use xlink:href="#DejaVuSans-31"/>
       <use xlink:href="#DejaVuSans-2e" x="63.623047"/>
       <use xlink:href="#DejaVuSans-32" x="95.410156"/>
       <use xlink:href="#DejaVuSans-35" x="159.033203"/>
      </g>
     </g>
    </g>
    <g id="xtick_7">
     <g id="line2d_7">
      <g>
       <use xlink:href="#m879ad838ed" x="255.790625" y="246.2" style="stroke: #000000; stroke-width: 0.8"/>
      </g>
     </g>
     <g id="text_7">
      <!-- 1.50 -->
      <g transform="translate(244.657812 260.798437)scale(0.1 -0.1)">
       <use xlink:href="#DejaVuSans-31"/>
       <use xlink:href="#DejaVuSans-2e" x="63.623047"/>
       <use xlink:href="#DejaVuSans-35" x="95.410156"/>
       <use xlink:href="#DejaVuSans-30" x="159.033203"/>
      </g>
     </g>
    </g>
    <g id="xtick_8">
     <g id="line2d_8">
      <g>
       <use xlink:href="#m879ad838ed" x="290.476562" y="246.2" style="stroke: #000000; stroke-width: 0.8"/>
      </g>
     </g>
     <g id="text_8">
      <!-- 1.75 -->
      <g transform="translate(279.34375 260.798437)scale(0.1 -0.1)">
       <use xlink:href="#DejaVuSans-31"/>
       <use xlink:href="#DejaVuSans-2e" x="63.623047"/>
       <use xlink:href="#DejaVuSans-37" x="95.410156"/>
       <use xlink:href="#DejaVuSans-35" x="159.033203"/>
      </g>
     </g>
    </g>
    <g id="xtick_9">
     <g id="line2d_9">
      <g>
       <use xlink:href="#m879ad838ed" x="325.1625" y="246.2" style="stroke: #000000; stroke-width: 0.8"/>
      </g>
     </g>
     <g id="text_9">
      <!-- 2.00 -->
      <g transform="translate(314.029687 260.798437)scale(0.1 -0.1)">
       <use xlink:href="#DejaVuSans-32"/>
       <use xlink:href="#DejaVuSans-2e" x="63.623047"/>
       <use xlink:href="#DejaVuSans-30" x="95.410156"/>
       <use xlink:href="#DejaVuSans-30" x="159.033203"/>
      </g>
     </g>
    </g>
    <g id="text_10">
     <!-- Influence of surprisal (multiplication) -->
     <g transform="translate(94.271875 274.476562)scale(0.1 -0.1)">
      <defs>
       <path id="DejaVuSans-49" d="M 628 4666 
L 1259 4666 
L 1259 0 
L 628 0 
L 628 4666 
z
" transform="scale(0.015625)"/>
       <path id="DejaVuSans-6e" d="M 3513 2113 
L 3513 0 
L 2938 0 
L 2938 2094 
Q 2938 2591 2744 2837 
Q 2550 3084 2163 3084 
Q 1697 3084 1428 2787 
Q 1159 2491 1159 1978 
L 1159 0 
L 581 0 
L 581 3500 
L 1159 3500 
L 1159 2956 
Q 1366 3272 1645 3428 
Q 1925 3584 2291 3584 
Q 2894 3584 3203 3211 
Q 3513 2838 3513 2113 
z
" transform="scale(0.015625)"/>
       <path id="DejaVuSans-66" d="M 2375 4863 
L 2375 4384 
L 1825 4384 
Q 1516 4384 1395 4259 
Q 1275 4134 1275 3809 
L 1275 3500 
L 2222 3500 
L 2222 3053 
L 1275 3053 
L 1275 0 
L 697 0 
L 697 3053 
L 147 3053 
L 147 3500 
L 697 3500 
L 697 3744 
Q 697 4328 969 4595 
Q 1241 4863 1831 4863 
L 2375 4863 
z
" transform="scale(0.015625)"/>
       <path id="DejaVuSans-6c" d="M 603 4863 
L 1178 4863 
L 1178 0 
L 603 0 
L 603 4863 
z
" transform="scale(0.015625)"/>
       <path id="DejaVuSans-75" d="M 544 1381 
L 544 3500 
L 1119 3500 
L 1119 1403 
Q 1119 906 1312 657 
Q 1506 409 1894 409 
Q 2359 409 2629 706 
Q 2900 1003 2900 1516 
L 2900 3500 
L 3475 3500 
L 3475 0 
L 2900 0 
L 2900 538 
Q 2691 219 2414 64 
Q 2138 -91 1772 -91 
Q 1169 -91 856 284 
Q 544 659 544 1381 
z
M 1991 3584 
L 1991 3584 
z
" transform="scale(0.015625)"/>
       <path id="DejaVuSans-65" d="M 3597 1894 
L 3597 1613 
L 953 1613 
Q 991 1019 1311 708 
Q 1631 397 2203 397 
Q 2534 397 2845 478 
Q 3156 559 3463 722 
L 3463 178 
Q 3153 47 2828 -22 
Q 2503 -91 2169 -91 
Q 1331 -91 842 396 
Q 353 884 353 1716 
Q 353 2575 817 3079 
Q 1281 3584 2069 3584 
Q 2775 3584 3186 3129 
Q 3597 2675 3597 1894 
z
M 3022 2063 
Q 3016 2534 2758 2815 
Q 2500 3097 2075 3097 
Q 1594 3097 1305 2825 
Q 1016 2553 972 2059 
L 3022 2063 
z
" transform="scale(0.015625)"/>
       <path id="DejaVuSans-63" d="M 3122 3366 
L 3122 2828 
Q 2878 2963 2633 3030 
Q 2388 3097 2138 3097 
Q 1578 3097 1268 2742 
Q 959 2388 959 1747 
Q 959 1106 1268 751 
Q 1578 397 2138 397 
Q 2388 397 2633 464 
Q 2878 531 3122 666 
L 3122 134 
Q 2881 22 2623 -34 
Q 2366 -91 2075 -91 
Q 1284 -91 818 406 
Q 353 903 353 1747 
Q 353 2603 823 3093 
Q 1294 3584 2113 3584 
Q 2378 3584 2631 3529 
Q 2884 3475 3122 3366 
z
" transform="scale(0.015625)"/>
       <path id="DejaVuSans-20" transform="scale(0.015625)"/>
       <path id="DejaVuSans-6f" d="M 1959 3097 
Q 1497 3097 1228 2736 
Q 959 2375 959 1747 
Q 959 1119 1226 758 
Q 1494 397 1959 397 
Q 2419 397 2687 759 
Q 2956 1122 2956 1747 
Q 2956 2369 2687 2733 
Q 2419 3097 1959 3097 
z
M 1959 3584 
Q 2709 3584 3137 3096 
Q 3566 2609 3566 1747 
Q 3566 888 3137 398 
Q 2709 -91 1959 -91 
Q 1206 -91 779 398 
Q 353 888 353 1747 
Q 353 2609 779 3096 
Q 1206 3584 1959 3584 
z
" transform="scale(0.015625)"/>
       <path id="DejaVuSans-73" d="M 2834 3397 
L 2834 2853 
Q 2591 2978 2328 3040 
Q 2066 3103 1784 3103 
Q 1356 3103 1142 2972 
Q 928 2841 928 2578 
Q 928 2378 1081 2264 
Q 1234 2150 1697 2047 
L 1894 2003 
Q 2506 1872 2764 1633 
Q 3022 1394 3022 966 
Q 3022 478 2636 193 
Q 2250 -91 1575 -91 
Q 1294 -91 989 -36 
Q 684 19 347 128 
L 347 722 
Q 666 556 975 473 
Q 1284 391 1588 391 
Q 1994 391 2212 530 
Q 2431 669 2431 922 
Q 2431 1156 2273 1281 
Q 2116 1406 1581 1522 
L 1381 1569 
Q 847 1681 609 1914 
Q 372 2147 372 2553 
Q 372 3047 722 3315 
Q 1072 3584 1716 3584 
Q 2034 3584 2315 3537 
Q 2597 3491 2834 3397 
z
" transform="scale(0.015625)"/>
       <path id="DejaVuSans-72" d="M 2631 2963 
Q 2534 3019 2420 3045 
Q 2306 3072 2169 3072 
Q 1681 3072 1420 2755 
Q 1159 2438 1159 1844 
L 1159 0 
L 581 0 
L 581 3500 
L 1159 3500 
L 1159 2956 
Q 1341 3275 1631 3429 
Q 1922 3584 2338 3584 
Q 2397 3584 2469 3576 
Q 2541 3569 2628 3553 
L 2631 2963 
z
" transform="scale(0.015625)"/>
       <path id="DejaVuSans-70" d="M 1159 525 
L 1159 -1331 
L 581 -1331 
L 581 3500 
L 1159 3500 
L 1159 2969 
Q 1341 3281 1617 3432 
Q 1894 3584 2278 3584 
Q 2916 3584 3314 3078 
Q 3713 2572 3713 1747 
Q 3713 922 3314 415 
Q 2916 -91 2278 -91 
Q 1894 -91 1617 61 
Q 1341 213 1159 525 
z
M 3116 1747 
Q 3116 2381 2855 2742 
Q 2594 3103 2138 3103 
Q 1681 3103 1420 2742 
Q 1159 2381 1159 1747 
Q 1159 1113 1420 752 
Q 1681 391 2138 391 
Q 2594 391 2855 752 
Q 3116 1113 3116 1747 
z
" transform="scale(0.015625)"/>
       <path id="DejaVuSans-69" d="M 603 3500 
L 1178 3500 
L 1178 0 
L 603 0 
L 603 3500 
z
M 603 4863 
L 1178 4863 
L 1178 4134 
L 603 4134 
L 603 4863 
z
" transform="scale(0.015625)"/>
       <path id="DejaVuSans-61" d="M 2194 1759 
Q 1497 1759 1228 1600 
Q 959 1441 959 1056 
Q 959 750 1161 570 
Q 1363 391 1709 391 
Q 2188 391 2477 730 
Q 2766 1069 2766 1631 
L 2766 1759 
L 2194 1759 
z
M 3341 1997 
L 3341 0 
L 2766 0 
L 2766 531 
Q 2569 213 2275 61 
Q 1981 -91 1556 -91 
Q 1019 -91 701 211 
Q 384 513 384 1019 
Q 384 1609 779 1909 
Q 1175 2209 1959 2209 
L 2766 2209 
L 2766 2266 
Q 2766 2663 2505 2880 
Q 2244 3097 1772 3097 
Q 1472 3097 1187 3025 
Q 903 2953 641 2809 
L 641 3341 
Q 956 3463 1253 3523 
Q 1550 3584 1831 3584 
Q 2591 3584 2966 3190 
Q 3341 2797 3341 1997 
z
" transform="scale(0.015625)"/>
       <path id="DejaVuSans-28" d="M 1984 4856 
Q 1566 4138 1362 3434 
Q 1159 2731 1159 2009 
Q 1159 1288 1364 580 
Q 1569 -128 1984 -844 
L 1484 -844 
Q 1016 -109 783 600 
Q 550 1309 550 2009 
Q 550 2706 781 3412 
Q 1013 4119 1484 4856 
L 1984 4856 
z
" transform="scale(0.015625)"/>
       <path id="DejaVuSans-6d" d="M 3328 2828 
Q 3544 3216 3844 3400 
Q 4144 3584 4550 3584 
Q 5097 3584 5394 3201 
Q 5691 2819 5691 2113 
L 5691 0 
L 5113 0 
L 5113 2094 
Q 5113 2597 4934 2840 
Q 4756 3084 4391 3084 
Q 3944 3084 3684 2787 
Q 3425 2491 3425 1978 
L 3425 0 
L 2847 0 
L 2847 2094 
Q 2847 2600 2669 2842 
Q 2491 3084 2119 3084 
Q 1678 3084 1418 2786 
Q 1159 2488 1159 1978 
L 1159 0 
L 581 0 
L 581 3500 
L 1159 3500 
L 1159 2956 
Q 1356 3278 1631 3431 
Q 1906 3584 2284 3584 
Q 2666 3584 2933 3390 
Q 3200 3197 3328 2828 
z
" transform="scale(0.015625)"/>
       <path id="DejaVuSans-74" d="M 1172 4494 
L 1172 3500 
L 2356 3500 
L 2356 3053 
L 1172 3053 
L 1172 1153 
Q 1172 725 1289 603 
Q 1406 481 1766 481 
L 2356 481 
L 2356 0 
L 1766 0 
Q 1100 0 847 248 
Q 594 497 594 1153 
L 594 3053 
L 172 3053 
L 172 3500 
L 594 3500 
L 594 4494 
L 1172 4494 
z
" transform="scale(0.015625)"/>
       <path id="DejaVuSans-29" d="M 513 4856 
L 1013 4856 
Q 1481 4119 1714 3412 
Q 1947 2706 1947 2009 
Q 1947 1309 1714 600 
Q 1481 -109 1013 -844 
L 513 -844 
Q 928 -128 1133 580 
Q 1338 1288 1338 2009 
Q 1338 2731 1133 3434 
Q 928 4138 513 4856 
z
" transform="scale(0.015625)"/>
      </defs>
      <use xlink:href="#DejaVuSans-49"/>
      <use xlink:href="#DejaVuSans-6e" x="29.492188"/>
      <use xlink:href="#DejaVuSans-66" x="92.871094"/>
      <use xlink:href="#DejaVuSans-6c" x="128.076172"/>
      <use xlink:href="#DejaVuSans-75" x="155.859375"/>
      <use xlink:href="#DejaVuSans-65" x="219.238281"/>
      <use xlink:href="#DejaVuSans-6e" x="280.761719"/>
      <use xlink:href="#DejaVuSans-63" x="344.140625"/>
      <use xlink:href="#DejaVuSans-65" x="399.121094"/>
      <use xlink:href="#DejaVuSans-20" x="460.644531"/>
      <use xlink:href="#DejaVuSans-6f" x="492.431641"/>
      <use xlink:href="#DejaVuSans-66" x="553.613281"/>
      <use xlink:href="#DejaVuSans-20" x="588.818359"/>
      <use xlink:href="#DejaVuSans-73" x="620.605469"/>
      <use xlink:href="#DejaVuSans-75" x="672.705078"/>
      <use xlink:href="#DejaVuSans-72" x="736.083984"/>
      <use xlink:href="#DejaVuSans-70" x="777.197266"/>
      <use xlink:href="#DejaVuSans-72" x="840.673828"/>
      <use xlink:href="#DejaVuSans-69" x="881.787109"/>
      <use xlink:href="#DejaVuSans-73" x="909.570312"/>
      <use xlink:href="#DejaVuSans-61" x="961.669922"/>
      <use xlink:href="#DejaVuSans-6c" x="1022.949219"/>
      <use xlink:href="#DejaVuSans-20" x="1050.732422"/>
      <use xlink:href="#DejaVuSans-28" x="1082.519531"/>
      <use xlink:href="#DejaVuSans-6d" x="1121.533203"/>
      <use xlink:href="#DejaVuSans-75" x="1218.945312"/>
      <use xlink:href="#DejaVuSans-6c" x="1282.324219"/>
      <use xlink:href="#DejaVuSans-74" x="1310.107422"/>
      <use xlink:href="#DejaVuSans-69" x="1349.316406"/>
      <use xlink:href="#DejaVuSans-70" x="1377.099609"/>
      <use xlink:href="#DejaVuSans-6c" x="1440.576172"/>
      <use xlink:href="#DejaVuSans-69" x="1468.359375"/>
      <use xlink:href="#DejaVuSans-63" x="1496.142578"/>
      <use xlink:href="#DejaVuSans-61" x="1551.123047"/>
      <use xlink:href="#DejaVuSans-74" x="1612.402344"/>
      <use xlink:href="#DejaVuSans-69" x="1651.611328"/>
      <use xlink:href="#DejaVuSans-6f" x="1679.394531"/>
      <use xlink:href="#DejaVuSans-6e" x="1740.576172"/>
      <use xlink:href="#DejaVuSans-29" x="1803.955078"/>
     </g>
    </g>
   </g>
   <g id="matplotlib.axis_2">
    <g id="ytick_1">
     <g id="line2d_10">
      <defs>
       <path id="m1a0dc19bdf" d="M 0 0 
L -3.5 0 
" style="stroke: #000000; stroke-width: 0.8"/>
      </defs>
      <g>
       <use xlink:href="#m1a0dc19bdf" x="47.675" y="225.428117" style="stroke: #000000; stroke-width: 0.8"/>
      </g>
     </g>
     <g id="text_11">
      <!-- 0.2 -->
      <g transform="translate(24.771875 229.227336)scale(0.1 -0.1)">
       <use xlink:href="#DejaVuSans-30"/>
       <use xlink:href="#DejaVuSans-2e" x="63.623047"/>
       <use xlink:href="#DejaVuSans-32" x="95.410156"/>
      </g>
     </g>
    </g>
    <g id="ytick_2">
     <g id="line2d_11">
      <g>
       <use xlink:href="#m1a0dc19bdf" x="47.675" y="200.222715" style="stroke: #000000; stroke-width: 0.8"/>
      </g>
     </g>
     <g id="text_12">
      <!-- 0.3 -->
      <g transform="translate(24.771875 204.021933)scale(0.1 -0.1)">
       <defs>
        <path id="DejaVuSans-33" d="M 2597 2516 
Q 3050 2419 3304 2112 
Q 3559 1806 3559 1356 
Q 3559 666 3084 287 
Q 2609 -91 1734 -91 
Q 1441 -91 1130 -33 
Q 819 25 488 141 
L 488 750 
Q 750 597 1062 519 
Q 1375 441 1716 441 
Q 2309 441 2620 675 
Q 2931 909 2931 1356 
Q 2931 1769 2642 2001 
Q 2353 2234 1838 2234 
L 1294 2234 
L 1294 2753 
L 1863 2753 
Q 2328 2753 2575 2939 
Q 2822 3125 2822 3475 
Q 2822 3834 2567 4026 
Q 2313 4219 1838 4219 
Q 1578 4219 1281 4162 
Q 984 4106 628 3988 
L 628 4550 
Q 988 4650 1302 4700 
Q 1616 4750 1894 4750 
Q 2613 4750 3031 4423 
Q 3450 4097 3450 3541 
Q 3450 3153 3228 2886 
Q 3006 2619 2597 2516 
z
" transform="scale(0.015625)"/>
       </defs>
       <use xlink:href="#DejaVuSans-30"/>
       <use xlink:href="#DejaVuSans-2e" x="63.623047"/>
       <use xlink:href="#DejaVuSans-33" x="95.410156"/>
      </g>
     </g>
    </g>
    <g id="ytick_3">
     <g id="line2d_12">
      <g>
       <use xlink:href="#m1a0dc19bdf" x="47.675" y="175.017312" style="stroke: #000000; stroke-width: 0.8"/>
      </g>
     </g>
     <g id="text_13">
      <!-- 0.4 -->
      <g transform="translate(24.771875 178.816531)scale(0.1 -0.1)">
       <defs>
        <path id="DejaVuSans-34" d="M 2419 4116 
L 825 1625 
L 2419 1625 
L 2419 4116 
z
M 2253 4666 
L 3047 4666 
L 3047 1625 
L 3713 1625 
L 3713 1100 
L 3047 1100 
L 3047 0 
L 2419 0 
L 2419 1100 
L 313 1100 
L 313 1709 
L 2253 4666 
z
" transform="scale(0.015625)"/>
       </defs>
       <use xlink:href="#DejaVuSans-30"/>
       <use xlink:href="#DejaVuSans-2e" x="63.623047"/>
       <use xlink:href="#DejaVuSans-34" x="95.410156"/>
      </g>
     </g>
    </g>
    <g id="ytick_4">
     <g id="line2d_13">
      <g>
       <use xlink:href="#m1a0dc19bdf" x="47.675" y="149.81191" style="stroke: #000000; stroke-width: 0.8"/>
      </g>
     </g>
     <g id="text_14">
      <!-- 0.5 -->
      <g transform="translate(24.771875 153.611129)scale(0.1 -0.1)">
       <use xlink:href="#DejaVuSans-30"/>
       <use xlink:href="#DejaVuSans-2e" x="63.623047"/>
       <use xlink:href="#DejaVuSans-35" x="95.410156"/>
      </g>
     </g>
    </g>
    <g id="ytick_5">
     <g id="line2d_14">
      <g>
       <use xlink:href="#m1a0dc19bdf" x="47.675" y="124.606507" style="stroke: #000000; stroke-width: 0.8"/>
      </g>
     </g>
     <g id="text_15">
      <!-- 0.6 -->
      <g transform="translate(24.771875 128.405726)scale(0.1 -0.1)">
       <defs>
        <path id="DejaVuSans-36" d="M 2113 2584 
Q 1688 2584 1439 2293 
Q 1191 2003 1191 1497 
Q 1191 994 1439 701 
Q 1688 409 2113 409 
Q 2538 409 2786 701 
Q 3034 994 3034 1497 
Q 3034 2003 2786 2293 
Q 2538 2584 2113 2584 
z
M 3366 4563 
L 3366 3988 
Q 3128 4100 2886 4159 
Q 2644 4219 2406 4219 
Q 1781 4219 1451 3797 
Q 1122 3375 1075 2522 
Q 1259 2794 1537 2939 
Q 1816 3084 2150 3084 
Q 2853 3084 3261 2657 
Q 3669 2231 3669 1497 
Q 3669 778 3244 343 
Q 2819 -91 2113 -91 
Q 1303 -91 875 529 
Q 447 1150 447 2328 
Q 447 3434 972 4092 
Q 1497 4750 2381 4750 
Q 2619 4750 2861 4703 
Q 3103 4656 3366 4563 
z
" transform="scale(0.015625)"/>
       </defs>
       <use xlink:href="#DejaVuSans-30"/>
       <use xlink:href="#DejaVuSans-2e" x="63.623047"/>
       <use xlink:href="#DejaVuSans-36" x="95.410156"/>
      </g>
     </g>
    </g>
    <g id="ytick_6">
     <g id="line2d_15">
      <g>
       <use xlink:href="#m1a0dc19bdf" x="47.675" y="99.401105" style="stroke: #000000; stroke-width: 0.8"/>
      </g>
     </g>
     <g id="text_16">
      <!-- 0.7 -->
      <g transform="translate(24.771875 103.200324)scale(0.1 -0.1)">
       <use xlink:href="#DejaVuSans-30"/>
       <use xlink:href="#DejaVuSans-2e" x="63.623047"/>
       <use xlink:href="#DejaVuSans-37" x="95.410156"/>
      </g>
     </g>
    </g>
    <g id="ytick_7">
     <g id="line2d_16">
      <g>
       <use xlink:href="#m1a0dc19bdf" x="47.675" y="74.195702" style="stroke: #000000; stroke-width: 0.8"/>
      </g>
     </g>
     <g id="text_17">
      <!-- 0.8 -->
      <g transform="translate(24.771875 77.994921)scale(0.1 -0.1)">
       <defs>
        <path id="DejaVuSans-38" d="M 2034 2216 
Q 1584 2216 1326 1975 
Q 1069 1734 1069 1313 
Q 1069 891 1326 650 
Q 1584 409 2034 409 
Q 2484 409 2743 651 
Q 3003 894 3003 1313 
Q 3003 1734 2745 1975 
Q 2488 2216 2034 2216 
z
M 1403 2484 
Q 997 2584 770 2862 
Q 544 3141 544 3541 
Q 544 4100 942 4425 
Q 1341 4750 2034 4750 
Q 2731 4750 3128 4425 
Q 3525 4100 3525 3541 
Q 3525 3141 3298 2862 
Q 3072 2584 2669 2484 
Q 3125 2378 3379 2068 
Q 3634 1759 3634 1313 
Q 3634 634 3220 271 
Q 2806 -91 2034 -91 
Q 1263 -91 848 271 
Q 434 634 434 1313 
Q 434 1759 690 2068 
Q 947 2378 1403 2484 
z
M 1172 3481 
Q 1172 3119 1398 2916 
Q 1625 2713 2034 2713 
Q 2441 2713 2670 2916 
Q 2900 3119 2900 3481 
Q 2900 3844 2670 4047 
Q 2441 4250 2034 4250 
Q 1625 4250 1398 4047 
Q 1172 3844 1172 3481 
z
" transform="scale(0.015625)"/>
       </defs>
       <use xlink:href="#DejaVuSans-30"/>
       <use xlink:href="#DejaVuSans-2e" x="63.623047"/>
       <use xlink:href="#DejaVuSans-38" x="95.410156"/>
      </g>
     </g>
    </g>
    <g id="ytick_8">
     <g id="line2d_17">
      <g>
       <use xlink:href="#m1a0dc19bdf" x="47.675" y="48.9903" style="stroke: #000000; stroke-width: 0.8"/>
      </g>
     </g>
     <g id="text_18">
      <!-- 0.9 -->
      <g transform="translate(24.771875 52.789519)scale(0.1 -0.1)">
       <defs>
        <path id="DejaVuSans-39" d="M 703 97 
L 703 672 
Q 941 559 1184 500 
Q 1428 441 1663 441 
Q 2288 441 2617 861 
Q 2947 1281 2994 2138 
Q 2813 1869 2534 1725 
Q 2256 1581 1919 1581 
Q 1219 1581 811 2004 
Q 403 2428 403 3163 
Q 403 3881 828 4315 
Q 1253 4750 1959 4750 
Q 2769 4750 3195 4129 
Q 3622 3509 3622 2328 
Q 3622 1225 3098 567 
Q 2575 -91 1691 -91 
Q 1453 -91 1209 -44 
Q 966 3 703 97 
z
M 1959 2075 
Q 2384 2075 2632 2365 
Q 2881 2656 2881 3163 
Q 2881 3666 2632 3958 
Q 2384 4250 1959 4250 
Q 1534 4250 1286 3958 
Q 1038 3666 1038 3163 
Q 1038 2656 1286 2365 
Q 1534 2075 1959 2075 
z
" transform="scale(0.015625)"/>
       </defs>
       <use xlink:href="#DejaVuSans-30"/>
       <use xlink:href="#DejaVuSans-2e" x="63.623047"/>
       <use xlink:href="#DejaVuSans-39" x="95.410156"/>
      </g>
     </g>
    </g>
    <g id="text_19">
     <!-- R-value -->
     <g transform="translate(18.692188 155.104687)rotate(-90)scale(0.1 -0.1)">
      <defs>
       <path id="DejaVuSans-52" d="M 2841 2188 
Q 3044 2119 3236 1894 
Q 3428 1669 3622 1275 
L 4263 0 
L 3584 0 
L 2988 1197 
Q 2756 1666 2539 1819 
Q 2322 1972 1947 1972 
L 1259 1972 
L 1259 0 
L 628 0 
L 628 4666 
L 2053 4666 
Q 2853 4666 3247 4331 
Q 3641 3997 3641 3322 
Q 3641 2881 3436 2590 
Q 3231 2300 2841 2188 
z
M 1259 4147 
L 1259 2491 
L 2053 2491 
Q 2509 2491 2742 2702 
Q 2975 2913 2975 3322 
Q 2975 3731 2742 3939 
Q 2509 4147 2053 4147 
L 1259 4147 
z
" transform="scale(0.015625)"/>
       <path id="DejaVuSans-2d" d="M 313 2009 
L 1997 2009 
L 1997 1497 
L 313 1497 
L 313 2009 
z
" transform="scale(0.015625)"/>
       <path id="DejaVuSans-76" d="M 191 3500 
L 800 3500 
L 1894 563 
L 2988 3500 
L 3597 3500 
L 2284 0 
L 1503 0 
L 191 3500 
z
" transform="scale(0.015625)"/>
      </defs>
      <use xlink:href="#DejaVuSans-52"/>
      <use xlink:href="#DejaVuSans-2d" x="65.482422"/>
      <use xlink:href="#DejaVuSans-76" x="98.941406"/>
      <use xlink:href="#DejaVuSans-61" x="158.121094"/>
      <use xlink:href="#DejaVuSans-6c" x="219.400391"/>
      <use xlink:href="#DejaVuSans-75" x="247.183594"/>
      <use xlink:href="#DejaVuSans-65" x="310.5625"/>
     </g>
    </g>
   </g>
   <g id="line2d_18">
    <path d="M 47.675 37.489769 
L 62.279605 40.560607 
L 76.884211 49.273319 
L 91.488816 60.819264 
L 106.093421 74.913362 
L 120.698026 90.115363 
L 135.302632 105.632442 
L 149.907237 120.635039 
L 164.511842 134.918756 
L 179.116447 148.032314 
L 193.721053 160.134723 
L 208.325658 171.121802 
L 222.930263 181.019384 
L 237.534868 189.886033 
L 252.139474 197.687186 
L 266.744079 204.719417 
L 281.348684 210.940321 
L 295.953289 216.480677 
L 310.557895 221.388256 
L 325.1625 225.738852 
" clip-path="url(#p13f7180dd2)" style="fill: none; stroke: #1f77b4; stroke-width: 1.5; stroke-linecap: square"/>
   </g>
   <g id="line2d_19">
    <path d="M 47.675 37.509415 
L 62.279605 39.527723 
L 76.884211 44.416644 
L 91.488816 51.547065 
L 106.093421 61.262182 
L 120.698026 72.817752 
L 135.302632 85.56861 
L 149.907237 98.708058 
L 164.511842 112.014711 
L 179.116447 124.829813 
L 193.721053 137.121582 
L 208.325658 148.678052 
L 222.930263 159.445203 
L 237.534868 169.357065 
L 252.139474 178.304992 
L 266.744079 186.564167 
L 281.348684 193.991418 
L 295.953289 200.713748 
L 310.557895 206.747644 
L 325.1625 212.184344 
" clip-path="url(#p13f7180dd2)" style="fill: none; stroke: #ff7f0e; stroke-width: 1.5; stroke-linecap: square"/>
   </g>
   <g id="line2d_20">
    <path d="M 47.675 37.508377 
L 62.279605 39.868549 
L 76.884211 43.971892 
L 91.488816 48.951418 
L 106.093421 55.127186 
L 120.698026 61.969094 
L 135.302632 69.212817 
L 149.907237 76.541004 
L 164.511842 83.921081 
L 179.116447 91.265457 
L 193.721053 98.585907 
L 208.325658 105.815098 
L 222.930263 112.874989 
L 237.534868 119.804232 
L 252.139474 126.510068 
L 266.744079 133.209498 
L 281.348684 139.655888 
L 295.953289 145.970426 
L 310.557895 152.06546 
L 325.1625 158.033236 
" clip-path="url(#p13f7180dd2)" style="fill: none; stroke: #2ca02c; stroke-width: 1.5; stroke-linecap: square"/>
   </g>
   <g id="line2d_21">
    <path d="M 47.675 37.528841 
L 62.279605 39.421154 
L 76.884211 42.577377 
L 91.488816 46.675543 
L 106.093421 52.172572 
L 120.698026 58.693501 
L 135.302632 65.893118 
L 149.907237 73.423804 
L 164.511842 81.138021 
L 179.116447 88.848907 
L 193.721053 96.501863 
L 208.325658 103.986553 
L 222.930263 111.181756 
L 237.534868 118.146046 
L 252.139474 124.783805 
L 266.744079 131.282928 
L 281.348684 137.487195 
L 295.953289 143.469622 
L 310.557895 149.199541 
L 325.1625 154.780732 
" clip-path="url(#p13f7180dd2)" style="fill: none; stroke: #d62728; stroke-width: 1.5; stroke-linecap: square"/>
   </g>
   <g id="line2d_22">
    <path d="M 47.675 37.508094 
L 62.279605 40.583275 
L 76.884211 49.313005 
L 91.488816 60.880218 
L 106.093421 75.011845 
L 120.698026 90.245134 
L 135.302632 105.84188 
L 149.907237 120.857337 
L 164.511842 135.177924 
L 179.116447 148.346763 
L 193.721053 160.507725 
L 208.325658 171.528769 
L 222.930263 181.542137 
L 237.534868 190.513296 
L 252.139474 198.408114 
L 266.744079 205.46959 
L 281.348684 211.714292 
L 295.953289 217.4015 
L 310.557895 222.413401 
L 325.1625 226.801726 
" clip-path="url(#p13f7180dd2)" style="fill: none; stroke: #9467bd; stroke-width: 1.5; stroke-linecap: square"/>
   </g>
   <g id="line2d_23">
    <path d="M 47.675 37.528508 
L 62.279605 39.549326 
L 76.884211 44.447175 
L 91.488816 51.591244 
L 106.093421 61.328864 
L 120.698026 72.907676 
L 135.302632 85.701307 
L 149.907237 98.880004 
L 164.511842 112.21028 
L 179.116447 125.027515 
L 193.721053 137.385086 
L 208.325658 148.981988 
L 222.930263 159.822577 
L 237.534868 169.840028 
L 252.139474 178.845922 
L 266.744079 187.132386 
L 281.348684 194.586483 
L 295.953289 201.420005 
L 310.557895 207.53922 
L 325.1625 212.991771 
" clip-path="url(#p13f7180dd2)" style="fill: none; stroke: #8c564b; stroke-width: 1.5; stroke-linecap: square"/>
   </g>
   <g id="line2d_24">
    <path d="M 47.675 37.528691 
L 62.279605 38.486925 
L 76.884211 39.582473 
L 91.488816 42.463002 
L 106.093421 48.079735 
L 120.698026 56.344409 
L 135.302632 66.792168 
L 149.907237 78.59018 
L 164.511842 91.215529 
L 179.116447 104.004125 
L 193.721053 116.712664 
L 208.325658 128.933243 
L 222.930263 140.574011 
L 237.534868 151.446692 
L 252.139474 161.455741 
L 266.744079 170.792785 
L 281.348684 179.295793 
L 295.953289 187.088839 
L 310.557895 194.131592 
L 325.1625 200.563229 
" clip-path="url(#p13f7180dd2)" style="fill: none; stroke: #e377c2; stroke-width: 1.5; stroke-linecap: square"/>
   </g>
   <g id="patch_3">
    <path d="M 47.675 246.2 
L 47.675 26.8 
" style="fill: none; stroke: #000000; stroke-width: 0.8; stroke-linejoin: miter; stroke-linecap: square"/>
   </g>
   <g id="patch_4">
    <path d="M 47.675 246.2 
L 325.1625 246.2 
" style="fill: none; stroke: #000000; stroke-width: 0.8; stroke-linejoin: miter; stroke-linecap: square"/>
   </g>
   <g id="text_20">
    <!-- Node * surprisal -->
    <g transform="translate(138.1375 20.8)scale(0.12 -0.12)">
     <defs>
      <path id="DejaVuSans-4e" d="M 628 4666 
L 1478 4666 
L 3547 763 
L 3547 4666 
L 4159 4666 
L 4159 0 
L 3309 0 
L 1241 3903 
L 1241 0 
L 628 0 
L 628 4666 
z
" transform="scale(0.015625)"/>
      <path id="DejaVuSans-64" d="M 2906 2969 
L 2906 4863 
L 3481 4863 
L 3481 0 
L 2906 0 
L 2906 525 
Q 2725 213 2448 61 
Q 2172 -91 1784 -91 
Q 1150 -91 751 415 
Q 353 922 353 1747 
Q 353 2572 751 3078 
Q 1150 3584 1784 3584 
Q 2172 3584 2448 3432 
Q 2725 3281 2906 2969 
z
M 947 1747 
Q 947 1113 1208 752 
Q 1469 391 1925 391 
Q 2381 391 2643 752 
Q 2906 1113 2906 1747 
Q 2906 2381 2643 2742 
Q 2381 3103 1925 3103 
Q 1469 3103 1208 2742 
Q 947 2381 947 1747 
z
" transform="scale(0.015625)"/>
      <path id="DejaVuSans-2a" d="M 3009 3897 
L 1888 3291 
L 3009 2681 
L 2828 2375 
L 1778 3009 
L 1778 1831 
L 1422 1831 
L 1422 3009 
L 372 2375 
L 191 2681 
L 1313 3291 
L 191 3897 
L 372 4206 
L 1422 3572 
L 1422 4750 
L 1778 4750 
L 1778 3572 
L 2828 4206 
L 3009 3897 
z
" transform="scale(0.015625)"/>
     </defs>
     <use xlink:href="#DejaVuSans-4e"/>
     <use xlink:href="#DejaVuSans-6f" x="74.804688"/>
     <use xlink:href="#DejaVuSans-64" x="135.986328"/>
     <use xlink:href="#DejaVuSans-65" x="199.462891"/>
     <use xlink:href="#DejaVuSans-20" x="260.986328"/>
     <use xlink:href="#DejaVuSans-2a" x="292.773438"/>
     <use xlink:href="#DejaVuSans-20" x="342.773438"/>
     <use xlink:href="#DejaVuSans-73" x="374.560547"/>
     <use xlink:href="#DejaVuSans-75" x="426.660156"/>
     <use xlink:href="#DejaVuSans-72" x="490.039062"/>
     <use xlink:href="#DejaVuSans-70" x="531.152344"/>
     <use xlink:href="#DejaVuSans-72" x="594.628906"/>
     <use xlink:href="#DejaVuSans-69" x="635.742188"/>
     <use xlink:href="#DejaVuSans-73" x="663.525391"/>
     <use xlink:href="#DejaVuSans-61" x="715.625"/>
     <use xlink:href="#DejaVuSans-6c" x="776.904297"/>
    </g>
   </g>
   <g id="legend_1">
    <g id="line2d_25">
     <path d="M 56.675 143.551562 
L 66.675 143.551562 
L 76.675 143.551562 
" style="fill: none; stroke: #1f77b4; stroke-width: 1.5; stroke-linecap: square"/>
    </g>
    <g id="text_21">
     <!-- Node -->
     <g transform="translate(84.675 147.051562)scale(0.1 -0.1)">
      <use xlink:href="#DejaVuSans-4e"/>
      <use xlink:href="#DejaVuSans-6f" x="74.804688"/>
      <use xlink:href="#DejaVuSans-64" x="135.986328"/>
      <use xlink:href="#DejaVuSans-65" x="199.462891"/>
     </g>
    </g>
    <g id="line2d_26">
     <path d="M 56.675 158.229688 
L 66.675 158.229688 
L 76.675 158.229688 
" style="fill: none; stroke: #ff7f0e; stroke-width: 1.5; stroke-linecap: square"/>
    </g>
    <g id="text_22">
     <!-- Node + surprisal -->
     <g transform="translate(84.675 161.729688)scale(0.1 -0.1)">
      <defs>
       <path id="DejaVuSans-2b" d="M 2944 4013 
L 2944 2272 
L 4684 2272 
L 4684 1741 
L 2944 1741 
L 2944 0 
L 2419 0 
L 2419 1741 
L 678 1741 
L 678 2272 
L 2419 2272 
L 2419 4013 
L 2944 4013 
z
" transform="scale(0.015625)"/>
      </defs>
      <use xlink:href="#DejaVuSans-4e"/>
      <use xlink:href="#DejaVuSans-6f" x="74.804688"/>
      <use xlink:href="#DejaVuSans-64" x="135.986328"/>
      <use xlink:href="#DejaVuSans-65" x="199.462891"/>
      <use xlink:href="#DejaVuSans-20" x="260.986328"/>
      <use xlink:href="#DejaVuSans-2b" x="292.773438"/>
      <use xlink:href="#DejaVuSans-20" x="376.5625"/>
      <use xlink:href="#DejaVuSans-73" x="408.349609"/>
      <use xlink:href="#DejaVuSans-75" x="460.449219"/>
      <use xlink:href="#DejaVuSans-72" x="523.828125"/>
      <use xlink:href="#DejaVuSans-70" x="564.941406"/>
      <use xlink:href="#DejaVuSans-72" x="628.417969"/>
      <use xlink:href="#DejaVuSans-69" x="669.53125"/>
      <use xlink:href="#DejaVuSans-73" x="697.314453"/>
      <use xlink:href="#DejaVuSans-61" x="749.414062"/>
      <use xlink:href="#DejaVuSans-6c" x="810.693359"/>
     </g>
    </g>
    <g id="line2d_27">
     <path d="M 56.675 172.907812 
L 66.675 172.907812 
L 76.675 172.907812 
" style="fill: none; stroke: #2ca02c; stroke-width: 1.5; stroke-linecap: square"/>
    </g>
    <g id="text_23">
     <!-- Node split -->
     <g transform="translate(84.675 176.407812)scale(0.1 -0.1)">
      <use xlink:href="#DejaVuSans-4e"/>
      <use xlink:href="#DejaVuSans-6f" x="74.804688"/>
      <use xlink:href="#DejaVuSans-64" x="135.986328"/>
      <use xlink:href="#DejaVuSans-65" x="199.462891"/>
      <use xlink:href="#DejaVuSans-20" x="260.986328"/>
      <use xlink:href="#DejaVuSans-73" x="292.773438"/>
      <use xlink:href="#DejaVuSans-70" x="344.873047"/>
      <use xlink:href="#DejaVuSans-6c" x="408.349609"/>
      <use xlink:href="#DejaVuSans-69" x="436.132812"/>
      <use xlink:href="#DejaVuSans-74" x="463.916016"/>
     </g>
    </g>
    <g id="line2d_28">
     <path d="M 56.675 187.585938 
L 66.675 187.585938 
L 76.675 187.585938 
" style="fill: none; stroke: #d62728; stroke-width: 1.5; stroke-linecap: square"/>
    </g>
    <g id="text_24">
     <!-- Node split + surprisal -->
     <g transform="translate(84.675 191.085938)scale(0.1 -0.1)">
      <use xlink:href="#DejaVuSans-4e"/>
      <use xlink:href="#DejaVuSans-6f" x="74.804688"/>
      <use xlink:href="#DejaVuSans-64" x="135.986328"/>
      <use xlink:href="#DejaVuSans-65" x="199.462891"/>
      <use xlink:href="#DejaVuSans-20" x="260.986328"/>
      <use xlink:href="#DejaVuSans-73" x="292.773438"/>
      <use xlink:href="#DejaVuSans-70" x="344.873047"/>
      <use xlink:href="#DejaVuSans-6c" x="408.349609"/>
      <use xlink:href="#DejaVuSans-69" x="436.132812"/>
      <use xlink:href="#DejaVuSans-74" x="463.916016"/>
      <use xlink:href="#DejaVuSans-20" x="503.125"/>
      <use xlink:href="#DejaVuSans-2b" x="534.912109"/>
      <use xlink:href="#DejaVuSans-20" x="618.701172"/>
      <use xlink:href="#DejaVuSans-73" x="650.488281"/>
      <use xlink:href="#DejaVuSans-75" x="702.587891"/>
      <use xlink:href="#DejaVuSans-72" x="765.966797"/>
      <use xlink:href="#DejaVuSans-70" x="807.080078"/>
      <use xlink:href="#DejaVuSans-72" x="870.556641"/>
      <use xlink:href="#DejaVuSans-69" x="911.669922"/>
      <use xlink:href="#DejaVuSans-73" x="939.453125"/>
      <use xlink:href="#DejaVuSans-61" x="991.552734"/>
      <use xlink:href="#DejaVuSans-6c" x="1052.832031"/>
     </g>
    </g>
    <g id="line2d_29">
     <path d="M 56.675 202.264062 
L 66.675 202.264062 
L 76.675 202.264062 
" style="fill: none; stroke: #9467bd; stroke-width: 1.5; stroke-linecap: square"/>
    </g>
    <g id="text_25">
     <!-- Node random split -->
     <g transform="translate(84.675 205.764062)scale(0.1 -0.1)">
      <use xlink:href="#DejaVuSans-4e"/>
      <use xlink:href="#DejaVuSans-6f" x="74.804688"/>
      <use xlink:href="#DejaVuSans-64" x="135.986328"/>
      <use xlink:href="#DejaVuSans-65" x="199.462891"/>
      <use xlink:href="#DejaVuSans-20" x="260.986328"/>
      <use xlink:href="#DejaVuSans-72" x="292.773438"/>
      <use xlink:href="#DejaVuSans-61" x="333.886719"/>
      <use xlink:href="#DejaVuSans-6e" x="395.166016"/>
      <use xlink:href="#DejaVuSans-64" x="458.544922"/>
      <use xlink:href="#DejaVuSans-6f" x="522.021484"/>
      <use xlink:href="#DejaVuSans-6d" x="583.203125"/>
      <use xlink:href="#DejaVuSans-20" x="680.615234"/>
      <use xlink:href="#DejaVuSans-73" x="712.402344"/>
      <use xlink:href="#DejaVuSans-70" x="764.501953"/>
      <use xlink:href="#DejaVuSans-6c" x="827.978516"/>
      <use xlink:href="#DejaVuSans-69" x="855.761719"/>
      <use xlink:href="#DejaVuSans-74" x="883.544922"/>
     </g>
    </g>
    <g id="line2d_30">
     <path d="M 56.675 216.942187 
L 66.675 216.942187 
L 76.675 216.942187 
" style="fill: none; stroke: #8c564b; stroke-width: 1.5; stroke-linecap: square"/>
    </g>
    <g id="text_26">
     <!-- Node random split + surprisal -->
     <g transform="translate(84.675 220.442187)scale(0.1 -0.1)">
      <use xlink:href="#DejaVuSans-4e"/>
      <use xlink:href="#DejaVuSans-6f" x="74.804688"/>
      <use xlink:href="#DejaVuSans-64" x="135.986328"/>
      <use xlink:href="#DejaVuSans-65" x="199.462891"/>
      <use xlink:href="#DejaVuSans-20" x="260.986328"/>
      <use xlink:href="#DejaVuSans-72" x="292.773438"/>
      <use xlink:href="#DejaVuSans-61" x="333.886719"/>
      <use xlink:href="#DejaVuSans-6e" x="395.166016"/>
      <use xlink:href="#DejaVuSans-64" x="458.544922"/>
      <use xlink:href="#DejaVuSans-6f" x="522.021484"/>
      <use xlink:href="#DejaVuSans-6d" x="583.203125"/>
      <use xlink:href="#DejaVuSans-20" x="680.615234"/>
      <use xlink:href="#DejaVuSans-73" x="712.402344"/>
      <use xlink:href="#DejaVuSans-70" x="764.501953"/>
      <use xlink:href="#DejaVuSans-6c" x="827.978516"/>
      <use xlink:href="#DejaVuSans-69" x="855.761719"/>
      <use xlink:href="#DejaVuSans-74" x="883.544922"/>
      <use xlink:href="#DejaVuSans-20" x="922.753906"/>
      <use xlink:href="#DejaVuSans-2b" x="954.541016"/>
      <use xlink:href="#DejaVuSans-20" x="1038.330078"/>
      <use xlink:href="#DejaVuSans-73" x="1070.117188"/>
      <use xlink:href="#DejaVuSans-75" x="1122.216797"/>
      <use xlink:href="#DejaVuSans-72" x="1185.595703"/>
      <use xlink:href="#DejaVuSans-70" x="1226.708984"/>
      <use xlink:href="#DejaVuSans-72" x="1290.185547"/>
      <use xlink:href="#DejaVuSans-69" x="1331.298828"/>
      <use xlink:href="#DejaVuSans-73" x="1359.082031"/>
      <use xlink:href="#DejaVuSans-61" x="1411.181641"/>
      <use xlink:href="#DejaVuSans-6c" x="1472.460938"/>
     </g>
    </g>
    <g id="line2d_31">
     <path d="M 56.675 231.620312 
L 66.675 231.620312 
L 76.675 231.620312 
" style="fill: none; stroke: #e377c2; stroke-width: 1.5; stroke-linecap: square"/>
    </g>
    <g id="text_27">
     <!-- Node + surprisal + interaction -->
     <g transform="translate(84.675 235.120312)scale(0.1 -0.1)">
      <use xlink:href="#DejaVuSans-4e"/>
      <use xlink:href="#DejaVuSans-6f" x="74.804688"/>
      <use xlink:href="#DejaVuSans-64" x="135.986328"/>
      <use xlink:href="#DejaVuSans-65" x="199.462891"/>
      <use xlink:href="#DejaVuSans-20" x="260.986328"/>
      <use xlink:href="#DejaVuSans-2b" x="292.773438"/>
      <use xlink:href="#DejaVuSans-20" x="376.5625"/>
      <use xlink:href="#DejaVuSans-73" x="408.349609"/>
      <use xlink:href="#DejaVuSans-75" x="460.449219"/>
      <use xlink:href="#DejaVuSans-72" x="523.828125"/>
      <use xlink:href="#DejaVuSans-70" x="564.941406"/>
      <use xlink:href="#DejaVuSans-72" x="628.417969"/>
      <use xlink:href="#DejaVuSans-69" x="669.53125"/>
      <use xlink:href="#DejaVuSans-73" x="697.314453"/>
      <use xlink:href="#DejaVuSans-61" x="749.414062"/>
      <use xlink:href="#DejaVuSans-6c" x="810.693359"/>
      <use xlink:href="#DejaVuSans-20" x="838.476562"/>
      <use xlink:href="#DejaVuSans-2b" x="870.263672"/>
      <use xlink:href="#DejaVuSans-20" x="954.052734"/>
      <use xlink:href="#DejaVuSans-69" x="985.839844"/>
      <use xlink:href="#DejaVuSans-6e" x="1013.623047"/>
      <use xlink:href="#DejaVuSans-74" x="1077.001953"/>
      <use xlink:href="#DejaVuSans-65" x="1116.210938"/>
      <use xlink:href="#DejaVuSans-72" x="1177.734375"/>
      <use xlink:href="#DejaVuSans-61" x="1218.847656"/>
      <use xlink:href="#DejaVuSans-63" x="1280.126953"/>
      <use xlink:href="#DejaVuSans-74" x="1335.107422"/>
      <use xlink:href="#DejaVuSans-69" x="1374.316406"/>
      <use xlink:href="#DejaVuSans-6f" x="1402.099609"/>
      <use xlink:href="#DejaVuSans-6e" x="1463.28125"/>
     </g>
    </g>
   </g>
  </g>
  <g id="axes_2">
   <g id="patch_5">
    <path d="M 351.775 246.2 
L 629.2625 246.2 
L 629.2625 26.8 
L 351.775 26.8 
z
" style="fill: #ffffff"/>
   </g>
   <g id="PolyCollection_8">
    <path d="M 351.775 36.798673 
L 351.775 38.224171 
L 366.379605 41.552221 
L 380.984211 51.7072 
L 395.588816 64.982838 
L 410.193421 80.687339 
L 424.798026 97.322562 
L 439.402632 113.832806 
L 454.007237 129.594768 
L 468.611842 144.547478 
L 483.216447 158.12835 
L 497.821053 170.465301 
L 512.425658 181.501364 
L 527.030263 191.372781 
L 541.634868 200.016014 
L 556.239474 207.779005 
L 570.844079 214.544443 
L 585.448684 220.514975 
L 600.053289 225.719595 
L 614.657895 230.295835 
L 629.2625 234.279439 
L 629.2625 217.502508 
L 629.2625 217.502508 
L 614.657895 212.825437 
L 600.053289 207.431114 
L 585.448684 201.62228 
L 570.844079 195.178352 
L 556.239474 187.822933 
L 541.634868 179.878596 
L 527.030263 170.807746 
L 512.425658 161.034937 
L 497.821053 150.317435 
L 483.216447 138.498242 
L 468.611842 125.809114 
L 454.007237 112.372811 
L 439.402632 98.150614 
L 424.798026 83.900414 
L 410.193421 69.917682 
L 395.588816 57.452705 
L 380.984211 47.442754 
L 366.379605 39.64802 
L 351.775 36.798673 
z
" clip-path="url(#pe9af5d7e73)" style="fill: #1f77b4; fill-opacity: 0.2"/>
   </g>
   <g id="PolyCollection_9">
    <path d="M 351.775 36.817008 
L 351.775 38.244667 
L 366.379605 41.576543 
L 380.984211 51.735515 
L 395.588816 65.025751 
L 410.193421 80.744149 
L 424.798026 97.404699 
L 439.402632 113.937474 
L 454.007237 129.734362 
L 468.611842 144.706441 
L 483.216447 158.336709 
L 497.821053 170.688397 
L 512.425658 181.770584 
L 527.030263 191.677066 
L 541.634868 200.373534 
L 556.239474 208.176464 
L 570.844079 214.992703 
L 585.448684 221.027995 
L 600.053289 226.250808 
L 614.657895 230.909485 
L 629.2625 234.937525 
L 629.2625 218.035113 
L 629.2625 218.035113 
L 614.657895 213.321187 
L 600.053289 207.885628 
L 585.448684 202.052111 
L 570.844079 195.603485 
L 556.239474 188.217639 
L 541.634868 180.226606 
L 527.030263 171.116132 
L 512.425658 161.30169 
L 497.821053 150.546071 
L 483.216447 138.69649 
L 468.611842 125.970665 
L 454.007237 112.502281 
L 439.402632 98.254535 
L 424.798026 83.976824 
L 410.193421 69.975586 
L 395.588816 57.494012 
L 380.984211 47.474767 
L 366.379605 39.666425 
L 351.775 36.817008 
z
" clip-path="url(#pe9af5d7e73)" style="fill: #ff7f0e; fill-opacity: 0.2"/>
   </g>
   <g id="PolyCollection_10">
    <path d="M 351.775 36.818038 
L 351.775 38.244454 
L 366.379605 41.580204 
L 380.984211 51.752713 
L 395.588816 65.05492 
L 410.193421 80.78902 
L 424.798026 97.46992 
L 439.402632 114.016623 
L 454.007237 129.835558 
L 468.611842 144.856961 
L 483.216447 158.499019 
L 497.821053 170.902466 
L 512.425658 182.042222 
L 527.030263 191.995042 
L 541.634868 200.745766 
L 556.239474 208.579776 
L 570.844079 215.456063 
L 585.448684 221.562198 
L 600.053289 226.85272 
L 614.657895 231.553366 
L 629.2625 235.664308 
L 629.2625 218.34647 
L 629.2625 218.34647 
L 614.657895 213.647343 
L 600.053289 208.216924 
L 585.448684 202.344986 
L 570.844079 195.884507 
L 556.239474 188.468985 
L 541.634868 180.444582 
L 527.030263 171.328102 
L 512.425658 161.470356 
L 497.821053 150.67917 
L 483.216447 138.792667 
L 468.611842 126.03892 
L 454.007237 112.573336 
L 439.402632 98.3015 
L 424.798026 84.007126 
L 410.193421 70.004942 
L 395.588816 57.510595 
L 380.984211 47.481297 
L 366.379605 39.668971 
L 351.775 36.818038 
z
" clip-path="url(#pe9af5d7e73)" style="fill: #2ca02c; fill-opacity: 0.2"/>
   </g>
   <g id="PolyCollection_11">
    <path d="M 351.775 36.837436 
L 351.775 38.265445 
L 366.379605 41.603707 
L 380.984211 51.783392 
L 395.588816 65.096543 
L 410.193421 80.845332 
L 424.798026 97.549012 
L 439.402632 114.112813 
L 454.007237 129.962713 
L 468.611842 145.003711 
L 483.216447 158.689232 
L 497.821053 171.101192 
L 512.425658 182.282585 
L 527.030263 192.266684 
L 541.634868 201.051683 
L 556.239474 208.947951 
L 570.844079 215.8334 
L 585.448684 222.002381 
L 600.053289 227.316253 
L 614.657895 232.076679 
L 629.2625 236.227273 
L 629.2625 218.8761 
L 629.2625 218.8761 
L 614.657895 214.157536 
L 600.053289 208.665663 
L 585.448684 202.788082 
L 570.844079 196.323708 
L 556.239474 188.871977 
L 541.634868 180.794656 
L 527.030263 171.629628 
L 512.425658 161.743286 
L 497.821053 150.910011 
L 483.216447 138.993466 
L 468.611842 126.194317 
L 454.007237 112.702155 
L 439.402632 98.408195 
L 424.798026 84.091602 
L 410.193421 70.069441 
L 395.588816 57.559657 
L 380.984211 47.515378 
L 366.379605 39.690761 
L 351.775 36.837436 
z
" clip-path="url(#pe9af5d7e73)" style="fill: #d62728; fill-opacity: 0.2"/>
   </g>
   <g id="PolyCollection_12">
    <path d="M 351.775 36.817591 
L 351.775 38.242828 
L 366.379605 41.580038 
L 380.984211 51.750858 
L 395.588816 65.064331 
L 410.193421 80.78955 
L 424.798026 97.453873 
L 439.402632 114.019042 
L 454.007237 129.829537 
L 468.611842 144.807252 
L 483.216447 158.486526 
L 497.821053 170.8333 
L 512.425658 182.005559 
L 527.030263 191.942758 
L 541.634868 200.515512 
L 556.239474 208.476515 
L 570.844079 215.268958 
L 585.448684 221.335381 
L 600.053289 226.525884 
L 614.657895 231.44678 
L 629.2625 235.406219 
L 629.2625 218.320363 
L 629.2625 218.320363 
L 614.657895 213.479867 
L 600.053289 208.177025 
L 585.448684 202.25267 
L 570.844079 195.855423 
L 556.239474 188.402918 
L 541.634868 180.449075 
L 527.030263 171.286692 
L 512.425658 161.452744 
L 497.821053 150.664521 
L 483.216447 138.770878 
L 468.611842 126.063962 
L 454.007237 112.595363 
L 439.402632 98.336506 
L 424.798026 84.062164 
L 410.193421 70.01106 
L 395.588816 57.519145 
L 380.984211 47.487416 
L 366.379605 39.671997 
L 351.775 36.817591 
z
" clip-path="url(#pe9af5d7e73)" style="fill: #9467bd; fill-opacity: 0.2"/>
   </g>
   <g id="PolyCollection_13">
    <path d="M 351.775 36.83646 
L 351.775 38.264016 
L 366.379605 41.604918 
L 380.984211 51.779065 
L 395.588816 65.105708 
L 410.193421 80.845031 
L 424.798026 97.534057 
L 439.402632 114.123815 
L 454.007237 129.966887 
L 468.611842 144.963494 
L 483.216447 158.685719 
L 497.821053 171.048284 
L 512.425658 182.271147 
L 527.030263 192.236187 
L 541.634868 200.866774 
L 556.239474 208.861103 
L 570.844079 215.699689 
L 585.448684 221.807005 
L 600.053289 227.018011 
L 614.657895 232.027048 
L 629.2625 236.023398 
L 629.2625 218.829086 
L 629.2625 218.829086 
L 614.657895 213.943894 
L 600.053289 208.625352 
L 585.448684 202.677377 
L 570.844079 196.262867 
L 556.239474 188.787495 
L 541.634868 180.785148 
L 527.030263 171.598813 
L 512.425658 161.717806 
L 497.821053 150.896649 
L 483.216447 138.970822 
L 468.611842 126.228649 
L 454.007237 112.726848 
L 439.402632 98.442197 
L 424.798026 84.141576 
L 410.193421 70.070575 
L 395.588816 57.562696 
L 380.984211 47.520465 
L 366.379605 39.691349 
L 351.775 36.83646 
z
" clip-path="url(#pe9af5d7e73)" style="fill: #8c564b; fill-opacity: 0.2"/>
   </g>
   <g id="PolyCollection_14">
    <path d="M 351.775 36.83628 
L 351.775 38.264828 
L 366.379605 41.603692 
L 380.984211 51.78249 
L 395.588816 65.105577 
L 410.193421 80.846065 
L 424.798026 97.549808 
L 439.402632 114.117873 
L 454.007237 129.956553 
L 468.611842 144.990214 
L 483.216447 158.673981 
L 497.821053 171.086363 
L 512.425658 182.249152 
L 527.030263 192.214545 
L 541.634868 201.00711 
L 556.239474 208.868776 
L 570.844079 215.749493 
L 585.448684 221.886444 
L 600.053289 227.195079 
L 614.657895 231.954254 
L 629.2625 236.052913 
L 629.2625 218.773376 
L 629.2625 218.773376 
L 614.657895 214.046952 
L 600.053289 208.576056 
L 585.448684 202.650469 
L 570.844079 196.176482 
L 556.239474 188.73083 
L 541.634868 180.644834 
L 527.030263 171.484179 
L 512.425658 161.618617 
L 497.821053 150.857238 
L 483.216447 138.934788 
L 468.611842 126.149542 
L 454.007237 112.671863 
L 439.402632 98.368207 
L 424.798026 84.066961 
L 410.193421 70.056418 
L 395.588816 57.542419 
L 380.984211 47.506756 
L 366.379605 39.688925 
L 351.775 36.83628 
z
" clip-path="url(#pe9af5d7e73)" style="fill: #e377c2; fill-opacity: 0.2"/>
   </g>
   <g id="matplotlib.axis_3">
    <g id="xtick_10">
     <g id="line2d_32">
      <g>
       <use xlink:href="#m879ad838ed" x="351.775" y="246.2" style="stroke: #000000; stroke-width: 0.8"/>
      </g>
     </g>
     <g id="text_28">
      <!-- 0.00 -->
      <g transform="translate(340.642187 260.798437)scale(0.1 -0.1)">
       <use xlink:href="#DejaVuSans-30"/>
       <use xlink:href="#DejaVuSans-2e" x="63.623047"/>
       <use xlink:href="#DejaVuSans-30" x="95.410156"/>
       <use xlink:href="#DejaVuSans-30" x="159.033203"/>
      </g>
     </g>
    </g>
    <g id="xtick_11">
     <g id="line2d_33">
      <g>
       <use xlink:href="#m879ad838ed" x="386.460937" y="246.2" style="stroke: #000000; stroke-width: 0.8"/>
      </g>
     </g>
     <g id="text_29">
      <!-- 0.25 -->
      <g transform="translate(375.328125 260.798437)scale(0.1 -0.1)">
       <use xlink:href="#DejaVuSans-30"/>
       <use xlink:href="#DejaVuSans-2e" x="63.623047"/>
       <use xlink:href="#DejaVuSans-32" x="95.410156"/>
       <use xlink:href="#DejaVuSans-35" x="159.033203"/>
      </g>
     </g>
    </g>
    <g id="xtick_12">
     <g id="line2d_34">
      <g>
       <use xlink:href="#m879ad838ed" x="421.146875" y="246.2" style="stroke: #000000; stroke-width: 0.8"/>
      </g>
     </g>
     <g id="text_30">
      <!-- 0.50 -->
      <g transform="translate(410.014062 260.798437)scale(0.1 -0.1)">
       <use xlink:href="#DejaVuSans-30"/>
       <use xlink:href="#DejaVuSans-2e" x="63.623047"/>
       <use xlink:href="#DejaVuSans-35" x="95.410156"/>
       <use xlink:href="#DejaVuSans-30" x="159.033203"/>
      </g>
     </g>
    </g>
    <g id="xtick_13">
     <g id="line2d_35">
      <g>
       <use xlink:href="#m879ad838ed" x="455.832812" y="246.2" style="stroke: #000000; stroke-width: 0.8"/>
      </g>
     </g>
     <g id="text_31">
      <!-- 0.75 -->
      <g transform="translate(444.7 260.798437)scale(0.1 -0.1)">
       <use xlink:href="#DejaVuSans-30"/>
       <use xlink:href="#DejaVuSans-2e" x="63.623047"/>
       <use xlink:href="#DejaVuSans-37" x="95.410156"/>
       <use xlink:href="#DejaVuSans-35" x="159.033203"/>
      </g>
     </g>
    </g>
    <g id="xtick_14">
     <g id="line2d_36">
      <g>
       <use xlink:href="#m879ad838ed" x="490.51875" y="246.2" style="stroke: #000000; stroke-width: 0.8"/>
      </g>
     </g>
     <g id="text_32">
      <!-- 1.00 -->
      <g transform="translate(479.385937 260.798437)scale(0.1 -0.1)">
       <use xlink:href="#DejaVuSans-31"/>
       <use xlink:href="#DejaVuSans-2e" x="63.623047"/>
       <use xlink:href="#DejaVuSans-30" x="95.410156"/>
       <use xlink:href="#DejaVuSans-30" x="159.033203"/>
      </g>
     </g>
    </g>
    <g id="xtick_15">
     <g id="line2d_37">
      <g>
       <use xlink:href="#m879ad838ed" x="525.204687" y="246.2" style="stroke: #000000; stroke-width: 0.8"/>
      </g>
     </g>
     <g id="text_33">
      <!-- 1.25 -->
      <g transform="translate(514.071875 260.798437)scale(0.1 -0.1)">
       <use xlink:href="#DejaVuSans-31"/>
       <use xlink:href="#DejaVuSans-2e" x="63.623047"/>
       <use xlink:href="#DejaVuSans-32" x="95.410156"/>
       <use xlink:href="#DejaVuSans-35" x="159.033203"/>
      </g>
     </g>
    </g>
    <g id="xtick_16">
     <g id="line2d_38">
      <g>
       <use xlink:href="#m879ad838ed" x="559.890625" y="246.2" style="stroke: #000000; stroke-width: 0.8"/>
      </g>
     </g>
     <g id="text_34">
      <!-- 1.50 -->
      <g transform="translate(548.757812 260.798437)scale(0.1 -0.1)">
       <use xlink:href="#DejaVuSans-31"/>
       <use xlink:href="#DejaVuSans-2e" x="63.623047"/>
       <use xlink:href="#DejaVuSans-35" x="95.410156"/>
       <use xlink:href="#DejaVuSans-30" x="159.033203"/>
      </g>
     </g>
    </g>
    <g id="xtick_17">
     <g id="line2d_39">
      <g>
       <use xlink:href="#m879ad838ed" x="594.576562" y="246.2" style="stroke: #000000; stroke-width: 0.8"/>
      </g>
     </g>
     <g id="text_35">
      <!-- 1.75 -->
      <g transform="translate(583.44375 260.798437)scale(0.1 -0.1)">
       <use xlink:href="#DejaVuSans-31"/>
       <use xlink:href="#DejaVuSans-2e" x="63.623047"/>
       <use xlink:href="#DejaVuSans-37" x="95.410156"/>
       <use xlink:href="#DejaVuSans-35" x="159.033203"/>
      </g>
     </g>
    </g>
    <g id="xtick_18">
     <g id="line2d_40">
      <g>
       <use xlink:href="#m879ad838ed" x="629.2625" y="246.2" style="stroke: #000000; stroke-width: 0.8"/>
      </g>
     </g>
     <g id="text_36">
      <!-- 2.00 -->
      <g transform="translate(618.129687 260.798437)scale(0.1 -0.1)">
       <use xlink:href="#DejaVuSans-32"/>
       <use xlink:href="#DejaVuSans-2e" x="63.623047"/>
       <use xlink:href="#DejaVuSans-30" x="95.410156"/>
       <use xlink:href="#DejaVuSans-30" x="159.033203"/>
      </g>
     </g>
    </g>
    <g id="text_37">
     <!-- Influence of surprisal (multiplication) -->
     <g transform="translate(398.371875 274.476562)scale(0.1 -0.1)">
      <use xlink:href="#DejaVuSans-49"/>
      <use xlink:href="#DejaVuSans-6e" x="29.492188"/>
      <use xlink:href="#DejaVuSans-66" x="92.871094"/>
      <use xlink:href="#DejaVuSans-6c" x="128.076172"/>
      <use xlink:href="#DejaVuSans-75" x="155.859375"/>
      <use xlink:href="#DejaVuSans-65" x="219.238281"/>
      <use xlink:href="#DejaVuSans-6e" x="280.761719"/>
      <use xlink:href="#DejaVuSans-63" x="344.140625"/>
      <use xlink:href="#DejaVuSans-65" x="399.121094"/>
      <use xlink:href="#DejaVuSans-20" x="460.644531"/>
      <use xlink:href="#DejaVuSans-6f" x="492.431641"/>
      <use xlink:href="#DejaVuSans-66" x="553.613281"/>
      <use xlink:href="#DejaVuSans-20" x="588.818359"/>
      <use xlink:href="#DejaVuSans-73" x="620.605469"/>
      <use xlink:href="#DejaVuSans-75" x="672.705078"/>
      <use xlink:href="#DejaVuSans-72" x="736.083984"/>
      <use xlink:href="#DejaVuSans-70" x="777.197266"/>
      <use xlink:href="#DejaVuSans-72" x="840.673828"/>
      <use xlink:href="#DejaVuSans-69" x="881.787109"/>
      <use xlink:href="#DejaVuSans-73" x="909.570312"/>
      <use xlink:href="#DejaVuSans-61" x="961.669922"/>
      <use xlink:href="#DejaVuSans-6c" x="1022.949219"/>
      <use xlink:href="#DejaVuSans-20" x="1050.732422"/>
      <use xlink:href="#DejaVuSans-28" x="1082.519531"/>
      <use xlink:href="#DejaVuSans-6d" x="1121.533203"/>
      <use xlink:href="#DejaVuSans-75" x="1218.945312"/>
      <use xlink:href="#DejaVuSans-6c" x="1282.324219"/>
      <use xlink:href="#DejaVuSans-74" x="1310.107422"/>
      <use xlink:href="#DejaVuSans-69" x="1349.316406"/>
      <use xlink:href="#DejaVuSans-70" x="1377.099609"/>
      <use xlink:href="#DejaVuSans-6c" x="1440.576172"/>
      <use xlink:href="#DejaVuSans-69" x="1468.359375"/>
      <use xlink:href="#DejaVuSans-63" x="1496.142578"/>
      <use xlink:href="#DejaVuSans-61" x="1551.123047"/>
      <use xlink:href="#DejaVuSans-74" x="1612.402344"/>
      <use xlink:href="#DejaVuSans-69" x="1651.611328"/>
      <use xlink:href="#DejaVuSans-6f" x="1679.394531"/>
      <use xlink:href="#DejaVuSans-6e" x="1740.576172"/>
      <use xlink:href="#DejaVuSans-29" x="1803.955078"/>
     </g>
    </g>
   </g>
   <g id="line2d_41">
    <path d="M 351.775 37.511422 
L 366.379605 40.60012 
L 380.984211 49.574977 
L 395.588816 61.217772 
L 410.193421 75.302511 
L 424.798026 90.611488 
L 439.402632 105.99171 
L 454.007237 120.983789 
L 468.611842 135.178296 
L 483.216447 148.313296 
L 497.821053 160.391368 
L 512.425658 171.26815 
L 527.030263 181.090263 
L 541.634868 189.947305 
L 556.239474 197.800969 
L 570.844079 204.861398 
L 585.448684 211.068627 
L 600.053289 216.575355 
L 614.657895 221.560636 
L 629.2625 225.890973 
" clip-path="url(#pe9af5d7e73)" style="fill: none; stroke: #1f77b4; stroke-width: 1.5; stroke-linecap: square"/>
   </g>
   <g id="line2d_42">
    <path d="M 351.775 37.530838 
L 366.379605 40.621484 
L 380.984211 49.605141 
L 395.588816 61.259881 
L 410.193421 75.359867 
L 424.798026 90.690762 
L 439.402632 106.096005 
L 454.007237 121.118321 
L 468.611842 135.338553 
L 483.216447 148.5166 
L 497.821053 160.617234 
L 512.425658 171.536137 
L 527.030263 181.396599 
L 541.634868 190.30007 
L 556.239474 198.197052 
L 570.844079 205.298094 
L 585.448684 211.540053 
L 600.053289 217.068218 
L 614.657895 222.115336 
L 629.2625 226.486319 
" clip-path="url(#pe9af5d7e73)" style="fill: none; stroke: #ff7f0e; stroke-width: 1.5; stroke-linecap: square"/>
   </g>
   <g id="line2d_43">
    <path d="M 351.775 37.531246 
L 366.379605 40.624588 
L 380.984211 49.617005 
L 395.588816 61.282757 
L 410.193421 75.396981 
L 424.798026 90.738523 
L 439.402632 106.159062 
L 454.007237 121.204447 
L 468.611842 135.44794 
L 483.216447 148.645843 
L 497.821053 160.790818 
L 512.425658 171.756289 
L 527.030263 181.661572 
L 541.634868 190.595174 
L 556.239474 198.524381 
L 570.844079 205.670285 
L 585.448684 211.953592 
L 600.053289 217.534822 
L 614.657895 222.600355 
L 629.2625 227.005389 
" clip-path="url(#pe9af5d7e73)" style="fill: none; stroke: #2ca02c; stroke-width: 1.5; stroke-linecap: square"/>
   </g>
   <g id="line2d_44">
    <path d="M 351.775 37.551441 
L 366.379605 40.647234 
L 380.984211 49.649385 
L 395.588816 61.3281 
L 410.193421 75.457386 
L 424.798026 90.820307 
L 439.402632 106.260504 
L 454.007237 121.332434 
L 468.611842 135.599014 
L 483.216447 148.841349 
L 497.821053 161.005602 
L 512.425658 172.012936 
L 527.030263 181.948156 
L 541.634868 190.923169 
L 556.239474 198.909964 
L 570.844079 206.078554 
L 585.448684 212.395231 
L 600.053289 217.990958 
L 614.657895 223.117107 
L 629.2625 227.551686 
" clip-path="url(#pe9af5d7e73)" style="fill: none; stroke: #d62728; stroke-width: 1.5; stroke-linecap: square"/>
   </g>
   <g id="line2d_45">
    <path d="M 351.775 37.53021 
L 366.379605 40.626018 
L 380.984211 49.619137 
L 395.588816 61.291738 
L 410.193421 75.400305 
L 424.798026 90.758018 
L 439.402632 106.177774 
L 454.007237 121.21245 
L 468.611842 135.435607 
L 483.216447 148.628702 
L 497.821053 160.748911 
L 512.425658 171.729151 
L 527.030263 181.614725 
L 541.634868 190.482294 
L 556.239474 198.439716 
L 570.844079 205.56219 
L 585.448684 211.794025 
L 600.053289 217.351455 
L 614.657895 222.463324 
L 629.2625 226.863291 
" clip-path="url(#pe9af5d7e73)" style="fill: none; stroke: #9467bd; stroke-width: 1.5; stroke-linecap: square"/>
   </g>
   <g id="line2d_46">
    <path d="M 351.775 37.550238 
L 366.379605 40.648134 
L 380.984211 49.649765 
L 395.588816 61.334202 
L 410.193421 75.457803 
L 424.798026 90.837817 
L 439.402632 106.283006 
L 454.007237 121.346867 
L 468.611842 135.596071 
L 483.216447 148.828271 
L 497.821053 160.972467 
L 512.425658 171.994477 
L 527.030263 181.9175 
L 541.634868 190.825961 
L 556.239474 198.824299 
L 570.844079 205.981278 
L 585.448684 212.242191 
L 600.053289 217.821682 
L 614.657895 222.985471 
L 629.2625 227.426242 
" clip-path="url(#pe9af5d7e73)" style="fill: none; stroke: #8c564b; stroke-width: 1.5; stroke-linecap: square"/>
   </g>
   <g id="line2d_47">
    <path d="M 351.775 37.550554 
L 366.379605 40.646308 
L 380.984211 49.644623 
L 395.588816 61.323998 
L 410.193421 75.451242 
L 424.798026 90.808384 
L 439.402632 106.24304 
L 454.007237 121.314208 
L 468.611842 135.569878 
L 483.216447 148.804385 
L 497.821053 160.971801 
L 512.425658 171.933885 
L 527.030263 181.849362 
L 541.634868 190.825972 
L 556.239474 198.799803 
L 570.844079 205.962988 
L 585.448684 212.268457 
L 600.053289 217.885568 
L 614.657895 223.000603 
L 629.2625 227.413144 
" clip-path="url(#pe9af5d7e73)" style="fill: none; stroke: #e377c2; stroke-width: 1.5; stroke-linecap: square"/>
   </g>
   <g id="patch_6">
    <path d="M 351.775 246.2 
L 351.775 26.8 
" style="fill: none; stroke: #000000; stroke-width: 0.8; stroke-linejoin: miter; stroke-linecap: square"/>
   </g>
   <g id="patch_7">
    <path d="M 351.775 246.2 
L 629.2625 246.2 
" style="fill: none; stroke: #000000; stroke-width: 0.8; stroke-linejoin: miter; stroke-linecap: square"/>
   </g>
   <g id="text_38">
    <!-- Node * third variable -->
    <g transform="translate(427.93875 20.8)scale(0.12 -0.12)">
     <defs>
      <path id="DejaVuSans-68" d="M 3513 2113 
L 3513 0 
L 2938 0 
L 2938 2094 
Q 2938 2591 2744 2837 
Q 2550 3084 2163 3084 
Q 1697 3084 1428 2787 
Q 1159 2491 1159 1978 
L 1159 0 
L 581 0 
L 581 4863 
L 1159 4863 
L 1159 2956 
Q 1366 3272 1645 3428 
Q 1925 3584 2291 3584 
Q 2894 3584 3203 3211 
Q 3513 2838 3513 2113 
z
" transform="scale(0.015625)"/>
      <path id="DejaVuSans-62" d="M 3116 1747 
Q 3116 2381 2855 2742 
Q 2594 3103 2138 3103 
Q 1681 3103 1420 2742 
Q 1159 2381 1159 1747 
Q 1159 1113 1420 752 
Q 1681 391 2138 391 
Q 2594 391 2855 752 
Q 3116 1113 3116 1747 
z
M 1159 2969 
Q 1341 3281 1617 3432 
Q 1894 3584 2278 3584 
Q 2916 3584 3314 3078 
Q 3713 2572 3713 1747 
Q 3713 922 3314 415 
Q 2916 -91 2278 -91 
Q 1894 -91 1617 61 
Q 1341 213 1159 525 
L 1159 0 
L 581 0 
L 581 4863 
L 1159 4863 
L 1159 2969 
z
" transform="scale(0.015625)"/>
     </defs>
     <use xlink:href="#DejaVuSans-4e"/>
     <use xlink:href="#DejaVuSans-6f" x="74.804688"/>
     <use xlink:href="#DejaVuSans-64" x="135.986328"/>
     <use xlink:href="#DejaVuSans-65" x="199.462891"/>
     <use xlink:href="#DejaVuSans-20" x="260.986328"/>
     <use xlink:href="#DejaVuSans-2a" x="292.773438"/>
     <use xlink:href="#DejaVuSans-20" x="342.773438"/>
     <use xlink:href="#DejaVuSans-74" x="374.560547"/>
     <use xlink:href="#DejaVuSans-68" x="413.769531"/>
     <use xlink:href="#DejaVuSans-69" x="477.148438"/>
     <use xlink:href="#DejaVuSans-72" x="504.931641"/>
     <use xlink:href="#DejaVuSans-64" x="544.294922"/>
     <use xlink:href="#DejaVuSans-20" x="607.771484"/>
     <use xlink:href="#DejaVuSans-76" x="639.558594"/>
     <use xlink:href="#DejaVuSans-61" x="698.738281"/>
     <use xlink:href="#DejaVuSans-72" x="760.017578"/>
     <use xlink:href="#DejaVuSans-69" x="801.130859"/>
     <use xlink:href="#DejaVuSans-61" x="828.914062"/>
     <use xlink:href="#DejaVuSans-62" x="890.193359"/>
     <use xlink:href="#DejaVuSans-6c" x="953.669922"/>
     <use xlink:href="#DejaVuSans-65" x="981.453125"/>
    </g>
   </g>
  </g>
 </g>
 <defs>
  <clipPath id="p13f7180dd2">
   <rect x="47.675" y="26.8" width="277.4875" height="219.4"/>
  </clipPath>
  <clipPath id="pe9af5d7e73">
   <rect x="351.775" y="26.8" width="277.4875" height="219.4"/>
  </clipPath>
 </defs>
</svg>
